# Generated by Visualization Toolkit
v -0.013660999946296215 -0.025862999260425568 -0.004056999925523996
v -0.01182200014591217 -0.023895999416708946 -0.008425000123679638
v -0.013802999630570412 -0.02690800093114376 -0.003992999903857708
v -0.013904999941587448 -0.02604999952018261 -0.0027409999165683985
v -0.01202400028705597 -0.02247699908912182 -0.0034779999405145645
v -0.013423999771475792 -0.022140000015497208 -0.0008800000068731606
v -0.011909999884665012 -0.027009999379515648 -0.009026999585330486
v -0.012682000175118446 -0.027713999152183533 -0.006819000001996756
v -0.01043500006198883 -0.020082000643014908 -0.0074880002066493034
v -0.009267999790608883 -0.02270199917256832 -0.008322999812662601
v -0.011745000258088112 -0.027668999508023262 -0.0024850000627338886
v -0.010397999547421932 -0.028566999360919 -0.006014999933540821
v -0.01169699989259243 -0.02626500092446804 0.0003279999946244061
v -0.012616000138223171 -0.024167999625205994 0.0009110000100918114
v -0.011637000367045403 -0.019666999578475952 0.000295000005280599
v -0.007323000114411116 -0.01496999990195036 -0.006504999939352274
v -0.006878000218421221 -0.014403999783098698 -0.004275000188499689
v -0.00863999966531992 -0.017906999215483665 -0.0016749999485909939
v -0.011125000193715096 -0.021379999816417694 0.0022189998999238014
v -0.009081000462174416 -0.027998000383377075 -0.007584000006318092
v -0.004687999840825796 -0.014503000304102898 -0.0067449999041855335
v -0.0016199999954551458 -0.024553999304771423 -0.0038620000705122948
v -0.002948000095784664 -0.0164170004427433 -0.0069240001030266285
v -0.005247000139206648 -0.02721400000154972 -0.0029279999434947968
v -0.004244000185281038 -0.027458999305963516 -0.004370999988168478
v -0.0034050000831484795 -0.024908000603318214 0.0032430000137537718
v -0.011494000442326069 -0.024013999849557877 0.00317499996162951
v -0.0035570000763982534 -0.022498000413179398 0.005508000031113625
v -0.006393000017851591 -0.015370000153779984 0.0004830000107176602
v -0.006390000227838755 -0.015809999778866768 0.001281999982893467
v -0.003837999887764454 -0.01638299971818924 0.004267000127583742
v -0.007102999836206436 -0.013523000292479992 -0.0048340000212192535
v -0.00483699981123209 -0.012741000391542912 -0.00583800021559
v -0.006147000007331371 -0.012992000207304955 0.0006099999882280827
v -0.010002999566495419 -0.021570999175310135 0.004732999950647354
v -0.002894999925047159 -0.009789000265300274 -0.005437000188976526
v 0.0004769999941345304 -0.013368000276386738 -0.006868000142276287
v -0.0022140000946819782 -0.027799999341368675 -0.0023980000987648964
v 0.0014779999619349837 -0.025645999237895012 -0.0018729999428614974
v 0.003186000045388937 -0.014688000082969666 -0.0059710000641644
v 0.0030670000705868006 -0.016721000894904137 -0.00496299983933568
v 0.0007159999804571271 -0.029113000258803368 0.006302999798208475
v 0.0007019999902695417 -0.0299529992043972 0.004556000232696533
v -0.005615000147372484 -0.019155999645590782 0.006845999974757433
v -0.0027540000155568123 -0.020648999139666557 0.0064650001004338264
v 0.00013800000306218863 -0.027014000341296196 0.007156999781727791
v -0.004951000213623047 -0.014096000231802464 0.0024470000062137842
v -0.003800000064074993 -0.015527999959886074 0.004280999768525362
v -0.004373000003397465 -0.017152000218629837 0.007763000205159187
v -0.003355999942868948 -0.014774000272154808 0.005632000043988228
v -0.007375000044703484 -0.012288999743759632 -0.0031010000966489315
v -0.006893999874591827 -0.011254999786615372 0.0015429999912157655
v -0.00016799999866634607 -0.007025000173598528 -0.002638000063598156
v 0.002452000044286251 -0.008688000030815601 -0.006459000054746866
v 0.0023930000606924295 -0.010394000448286533 -0.007203000131994486
v 0.004048999864608049 -0.009965999983251095 -0.007044999860227108
v 0.005026999861001968 -0.012240000069141388 -0.006566000171005726
v 0.0013770000077784061 -0.028922999277710915 0.00039900001138448715
v 0.00048600000445730984 -0.029865000396966934 0.0012489999644458294
v 0.004406000021845102 -0.019733000546693802 -0.002237000036984682
v 0.004846999887377024 -0.014446999877691269 -0.004352999851107597
v 0.005129000172019005 -0.016008000820875168 -0.0012410000199452043
v 0.0026549999602138996 -0.02919900044798851 0.0035180000122636557
v 0.0026390000712126493 -0.028099000453948975 0.005934999790042639
v -0.0017010000301524997 -0.018797000870108604 0.007321999873965979
v -0.00022499999613501132 -0.021340999752283096 0.0074280002154409885
v 0.002701000077649951 -0.020423000678420067 0.0063240001909434795
v 0.001680999994277954 -0.02141599915921688 0.006889999844133854
v -0.005423999857157469 -0.012075000442564487 0.00445799995213747
v -0.0033360000234097242 -0.013120999559760094 0.006533000152558088
v -0.0026829999405890703 -0.014073999598622322 0.007180999964475632
v -0.0016629999736323953 -0.013426999561488628 0.007557999808341265
v -0.0032500000670552254 -0.0139340003952384 0.006653000134974718
v 0.0012649999698624015 -0.015035999938845634 0.008488000370562077
v 0.00016199999663513154 -0.006194000132381916 0.0006960000027902424
v -0.0012509999796748161 -0.009224999696016312 0.005493000149726868
v 0.004048999864608049 -0.007242999970912933 -0.0036639999598264694
v 0.003329999977722764 -0.005896000191569328 -0.00008600000001024455
v 0.006672999821603298 -0.010579000227153301 -0.0037150001153349876
v 0.006641999818384647 -0.011714999563992023 -0.0033259999472647905
v 0.005578000098466873 -0.01951799914240837 0.00018400000408291817
v 0.004435000009834766 -0.02633100003004074 0.0033100000582635403
v 0.006810000166296959 -0.011927000246942043 0.0035250000655651093
v 0.002094999887049198 -0.019074000418186188 0.0073079997673630714
v 0.005528000183403492 -0.01498399954289198 0.005417999811470509
v -0.0024790000170469284 -0.013306000269949436 0.0070870001800358295
v 0.0009319999953731894 -0.013539999723434448 0.008326999843120575
v 0.004650999791920185 -0.011556999757885933 0.0056859999895095825
v 0.004035999998450279 -0.006438000127673149 0.0029980000108480453
v 0.005030000116676092 -0.006711000110954046 0.0027570000384002924
vn -0.9254484176635742 0.2704692482948303 -0.2653142511844635
vn -0.795068621635437 0.2549513578414917 -0.550332248210907
vn -0.8505937457084656 -0.5255990028381348 0.015361905097961426
vn -0.9573585391044617 -0.19548757374286652 0.21271853148937225
vn -0.821275532245636 0.5395296216011047 -0.18551114201545715
vn -0.9395735263824463 0.3344338536262512 0.07318221777677536
vn -0.25482478737831116 -0.4694465398788452 -0.8453899621963501
vn -0.7867939472198486 -0.5398644804954529 -0.2991679608821869
vn -0.6159011125564575 0.44182515144348145 -0.6522701978683472
vn 0.13543568551540375 0.08672423660755157 -0.9869833588600159
vn -0.20419079065322876 -0.9277332425117493 0.31243735551834106
vn -0.10370185971260071 -0.993954062461853 -0.03607088327407837
vn -0.37434154748916626 -0.7668563723564148 0.5213439464569092
vn -0.8729662895202637 -0.11264459043741226 0.4745957553386688
vn -0.7084720134735107 0.685772716999054 0.1666831374168396
vn -0.6582086086273193 0.48313066363334656 -0.5773614645004272
vn -0.9512979984283447 0.2620776891708374 0.16231855750083923
vn -0.7553684711456299 0.650682806968689 -0.07765571773052216
vn -0.7741262316703796 0.4010131359100342 0.4898131489753723
vn 0.3671666383743286 -0.5739966034889221 -0.731926679611206
vn -0.1310322880744934 0.2720150947570801 -0.9533301591873169
vn 0.4882514774799347 -0.306193083524704 -0.8172247409820557
vn 0.24792629480361938 -0.19306355714797974 -0.9493466019630432
vn -0.019353166222572327 -0.9553403854370117 0.2948732078075409
vn 0.3087441921234131 -0.8938753008842468 -0.32506006956100464
vn -0.49514585733413696 -0.7580297589302063 0.4245249927043915
vn -0.6763043403625488 -0.28619998693466187 0.6787503361701965
vn -0.3648095428943634 -0.5171454548835754 0.774257481098175
vn -0.8430166244506836 0.48333504796028137 0.23603010177612305
vn -0.7302671074867249 0.4268207848072052 0.5334172248840332
vn -0.7891093492507935 0.4827822744846344 0.3797731399536133
vn -0.9766321778297424 0.17250987887382507 -0.12817932665348053
vn -0.44025498628616333 0.552306592464447 -0.707907497882843
vn -0.9324217438697815 -0.24693261086940765 0.2638446092605591
vn -0.626079261302948 0.21524636447429657 0.7494621872901917
vn -0.3858222961425781 0.5019521117210388 -0.7740705609321594
vn 0.025675395503640175 -0.06955001503229141 -0.9972480535507202
vn -0.039888665080070496 -0.9219135046005249 -0.3853365182876587
vn 0.49176570773124695 -0.395754873752594 -0.7755930423736572
vn 0.3978153169155121 -0.4066659212112427 -0.8224145770072937
vn 0.620157778263092 -0.3683905005455017 -0.6925985217094421
vn -0.2223530262708664 -0.7344961762428284 0.6411510109901428
vn -0.33929333090782166 -0.9208857417106628 0.19196239113807678
vn -0.4200623035430908 -0.08636653423309326 0.9033761620521545
vn -0.3108557164669037 -0.2540319859981537 0.9158801436424255
vn -0.017334213480353355 -0.18999552726745605 0.981631875038147
vn -0.9052629470825195 -0.11688951402902603 0.40845543146133423
vn -0.8666945099830627 -0.1309923529624939 0.48133334517478943
vn -0.6879287362098694 0.26108452677726746 0.677191972732544
vn -0.9871866703033447 0.07739748805761337 0.13954192399978638
vn -0.84076327085495 0.48502740263938904 -0.24055245518684387
vn -0.9317528605461121 0.17849501967430115 0.3161899149417877
vn -0.28585538268089294 0.8985394239425659 -0.33303678035736084
vn -0.048587650060653687 0.6925418972969055 -0.7197394371032715
vn -0.11244376003742218 0.1794859766960144 -0.977313220500946
vn 0.4030781090259552 0.29657864570617676 -0.8657765984535217
vn 0.6387251615524292 -0.2752903997898102 -0.7185022234916687
vn 0.6507077217102051 -0.5594783425331116 -0.513384222984314
vn 0.14360469579696655 -0.9522713422775269 -0.26936423778533936
vn 0.8172621130943298 -0.2541089653968811 -0.5172149538993835
vn 0.7630070447921753 -0.47406452894210815 -0.4394122362136841
vn 0.9649744629859924 -0.24745309352874756 -0.08712766319513321
vn 0.6282548308372498 -0.7765477895736694 0.047639116644859314
vn 0.6499984860420227 -0.371613085269928 0.6628768444061279
vn -0.0980844795703888 -0.25023338198661804 0.9632044434547424
vn -0.04851628839969635 -0.09591883420944214 0.9942060708999634
vn 0.7707789540290833 0.004103019833564758 0.6370894908905029
vn 0.44421395659446716 -0.1543121635913849 0.882531464099884
vn -0.8398934602737427 -0.03589083254337311 0.5415632724761963
vn -0.7555421590805054 0.05557892471551895 0.652738094329834
vn -0.5493100881576538 0.34144267439842224 0.7626763582229614
vn -0.3615555465221405 0.30374735593795776 0.8814846277236938
vn -0.8224740028381348 0.21859103441238403 0.5251233577728271
vn 0.1785944700241089 -0.025063946843147278 0.9836034178733826
vn -0.37487488985061646 0.9226152896881104 0.09082856774330139
vn -0.36811065673828125 0.6137334108352661 0.6984453201293945
vn 0.4303448498249054 0.8138892650604248 -0.3903684616088867
vn 0.14675863087177277 0.9842723608016968 -0.09833531081676483
vn 0.918248176574707 0.27193185687065125 -0.28787732124328613
vn 0.9283941388130188 -0.2905706763267517 -0.23163126409053802
vn 0.9888594150543213 -0.10942424088716507 -0.10091347247362137
vn 0.9468865394592285 -0.3117520809173584 0.07884497940540314
vn 0.9695688486099243 0.0038095314521342516 0.2447892278432846
vn 0.532301664352417 -0.21895724534988403 0.8177486062049866
vn 0.8163085579872131 -0.20894761383533478 0.5384989976882935
vn -0.49434593319892883 0.2889555096626282 0.8198334574699402
vn 0.12730267643928528 0.39222943782806396 0.9110159873962402
vn 0.5762970447540283 0.24879862368106842 0.7784476280212402
vn 0.09287012368440628 0.8449416160583496 0.5267342925071716
vn 0.667756974697113 0.656778872013092 0.3503454923629761
f 1//1 2//2 3//3
f 4//4 1//1 3//3
f 1//1 5//5 2//2
f 5//5 1//1 6//6
f 4//4 6//6 1//1
f 7//7 8//8 2//2
f 3//3 2//2 8//8
f 9//9 2//2 5//5
f 7//7 2//2 10//10
f 10//10 2//2 9//9
f 11//11 3//3 12//12
f 8//8 12//12 3//3
f 11//11 13//13 3//3
f 13//13 4//4 3//3
f 14//14 6//6 4//4
f 4//4 13//13 14//14
f 15//15 5//5 6//6
f 9//9 5//5 16//16
f 16//16 5//5 17//17
f 18//18 17//17 5//5
f 18//18 5//5 15//15
f 19//19 15//15 6//6
f 19//19 6//6 14//14
f 8//8 7//7 12//12
f 20//20 12//12 7//7
f 20//20 7//7 10//10
f 10//10 9//9 16//16
f 10//10 16//16 21//21
f 22//22 20//20 10//10
f 10//10 21//21 23//23
f 10//10 23//23 22//22
f 11//11 12//12 24//24
f 11//11 24//24 13//13
f 25//25 24//24 12//12
f 12//12 20//20 25//25
f 13//13 24//24 26//26
f 13//13 27//27 14//14
f 13//13 28//28 27//27
f 26//26 28//28 13//13
f 19//19 14//14 27//27
f 29//29 18//18 15//15
f 30//30 29//29 15//15
f 15//15 19//19 31//31
f 30//30 15//15 31//31
f 17//17 32//32 16//16
f 16//16 32//32 33//33
f 16//16 33//33 21//21
f 18//18 29//29 17//17
f 34//34 17//17 29//29
f 32//32 17//17 34//34
f 35//35 19//19 27//27
f 31//31 19//19 35//35
f 20//20 22//22 25//25
f 36//36 21//21 33//33
f 21//21 36//36 37//37
f 37//37 23//23 21//21
f 22//22 38//38 25//25
f 23//23 39//39 22//22
f 39//39 38//38 22//22
f 40//40 23//23 37//37
f 40//40 41//41 23//23
f 23//23 41//41 39//39
f 24//24 25//25 38//38
f 38//38 26//26 24//24
f 42//42 28//28 26//26
f 43//43 42//42 26//26
f 38//38 43//43 26//26
f 28//28 35//35 27//27
f 44//44 28//28 45//45
f 28//28 44//44 35//35
f 45//45 28//28 46//46
f 42//42 46//46 28//28
f 34//34 29//29 47//47
f 47//47 29//29 30//30
f 48//48 30//30 31//31
f 47//47 30//30 48//48
f 35//35 44//44 31//31
f 49//49 31//31 44//44
f 50//50 31//31 49//49
f 31//31 50//50 48//48
f 32//32 34//34 51//51
f 51//51 33//33 32//32
f 51//51 36//36 33//33
f 34//34 52//52 51//51
f 34//34 47//47 52//52
f 36//36 53//53 54//54
f 51//51 53//53 36//36
f 54//54 55//55 36//36
f 37//37 36//36 55//55
f 55//55 56//56 37//37
f 56//56 57//57 37//37
f 37//37 57//57 40//40
f 38//38 39//39 58//58
f 38//38 58//58 59//59
f 59//59 43//43 38//38
f 60//60 58//58 39//39
f 41//41 60//60 39//39
f 40//40 61//61 41//41
f 61//61 40//40 57//57
f 62//62 60//60 41//41
f 62//62 41//41 61//61
f 43//43 63//63 42//42
f 63//63 64//64 42//42
f 46//46 42//42 64//64
f 59//59 63//63 43//43
f 44//44 65//65 49//49
f 45//45 65//65 44//44
f 65//65 45//45 66//66
f 46//46 66//66 45//45
f 67//67 46//46 64//64
f 67//67 68//68 46//46
f 68//68 66//66 46//46
f 69//69 52//52 47//47
f 48//48 69//69 47//47
f 50//50 70//70 48//48
f 70//70 69//69 48//48
f 71//71 49//49 72//72
f 50//50 49//49 73//73
f 49//49 71//71 73//73
f 49//49 74//74 72//72
f 49//49 65//65 74//74
f 50//50 73//73 70//70
f 75//75 53//53 51//51
f 52//52 75//75 51//51
f 76//76 75//75 52//52
f 76//76 52//52 69//69
f 53//53 77//77 54//54
f 53//53 75//75 78//78
f 53//53 78//78 77//77
f 56//56 54//54 77//77
f 55//55 54//54 56//56
f 57//57 56//56 79//79
f 77//77 79//79 56//56
f 61//61 57//57 80//80
f 80//80 57//57 79//79
f 81//81 58//58 60//60
f 82//82 58//58 81//81
f 82//82 63//63 58//58
f 58//58 63//63 59//59
f 60//60 62//62 81//81
f 80//80 62//62 61//61
f 80//80 83//83 62//62
f 81//81 62//62 67//67
f 84//84 67//67 62//62
f 84//84 62//62 85//85
f 83//83 85//85 62//62
f 63//63 82//82 64//64
f 64//64 82//82 67//67
f 74//74 65//65 84//84
f 84//84 65//65 66//66
f 68//68 84//84 66//66
f 82//82 81//81 67//67
f 67//67 84//84 68//68
f 70//70 76//76 69//69
f 73//73 86//86 70//70
f 86//86 76//76 70//70
f 71//71 72//72 86//86
f 71//71 86//86 73//73
f 87//87 72//72 74//74
f 72//72 87//87 76//76
f 86//86 72//72 76//76
f 74//74 88//88 87//87
f 74//74 85//85 88//88
f 84//84 85//85 74//74
f 78//78 75//75 89//89
f 75//75 76//76 89//89
f 89//89 76//76 87//87
f 77//77 78//78 90//90
f 90//90 79//79 77//77
f 89//89 90//90 78//78
f 90//90 83//83 79//79
f 80//80 79//79 83//83
f 88//88 83//83 90//90
f 85//85 83//83 88//88
f 87//87 88//88 90//90
f 90//90 89//89 87//87
