# Generated by Visualization Toolkit
v 0.011837000027298927 -0.027605999261140823 -0.013919999822974205
v 0.011978000402450562 -0.02404800057411194 -0.01312899962067604
v 0.013152999803423882 -0.02742299996316433 -0.011730000376701355
v 0.011281999759376049 -0.030205000191926956 -0.013013999909162521
v 0.009948999620974064 -0.027267999947071075 -0.015843000262975693
v 0.010017000138759613 -0.02456199936568737 -0.01609399914741516
v 0.009850000031292439 -0.02302899956703186 -0.01522700022906065
v 0.012284000404179096 -0.025570999830961227 -0.010449999943375587
v 0.009619000367820263 -0.02644599974155426 -0.01075000036507845
v 0.007890000008046627 -0.023343000560998917 -0.012943999841809273
v 0.011997000314295292 -0.03145499899983406 -0.011629000306129456
v 0.011636000126600266 -0.028957000002264977 -0.009720000438392162
v 0.010572999715805054 -0.03280600160360336 -0.01293100044131279
v 0.008639000356197357 -0.03278300166130066 -0.01361900009214878
v 0.007087999954819679 -0.024188999086618423 -0.017410999163985252
v 0.0036170000676065683 -0.027264999225735664 -0.017142999917268753
v 0.006624999921768904 -0.03206200152635574 -0.014171999879181385
v 0.0060339998453855515 -0.029231000691652298 -0.015393000096082687
v 0.008496999740600586 -0.022631000727415085 -0.015673000365495682
v 0.0066709998063743114 -0.029147999361157417 -0.01092899963259697
v 0.005890999920666218 -0.025422999635338783 -0.011700999923050404
v 0.006539999973028898 -0.022766999900341034 -0.013387000188231468
v 0.010123999789357185 -0.03179699927568436 -0.010261000134050846
v 0.009014000184834003 -0.03356799855828285 -0.011509999632835388
v 0.008066999725997448 -0.03357499837875366 -0.01153200026601553
v 0.003942999988794327 -0.02418600022792816 -0.01810700073838234
v 0.004383999854326248 -0.029844999313354492 -0.01457899995148182
v 0.000901999999769032 -0.025326000526547432 -0.02112000063061714
v 0.0025110000278800726 -0.027977000921964645 -0.0156230004504323
v -0.0010779999429360032 -0.027651000767946243 -0.019175000488758087
v 0.005317999981343746 -0.03150099888443947 -0.011535000056028366
v 0.004162000026553869 -0.02131200022995472 -0.014654000289738178
v 0.004302999936044216 -0.021890999749302864 -0.01628899946808815
v 0.004887999966740608 -0.028300000354647636 -0.01089600007981062
v 0.009042000398039818 -0.031902000308036804 -0.010797999799251556
v 0.003312000073492527 -0.023886000737547874 -0.011315999552607536
v 0.0026499999221414328 -0.02659600041806698 -0.010143999941647053
v 0.0024530000519007444 -0.0203000009059906 -0.012426000088453293
v 0.003000000026077032 -0.02180599980056286 -0.01691100001335144
v 0.00101500004529953 -0.027758000418543816 -0.01297600008547306
v -0.001988000003620982 -0.023669999092817307 -0.022216999903321266
v -0.0015180000336840749 -0.02539600059390068 -0.02281700074672699
v -0.000881000014487654 -0.01729400083422661 -0.016902999952435493
v -0.006513999775052071 -0.02666899934411049 -0.02293499931693077
v -0.0040779998525977135 -0.026030000299215317 -0.023303000256419182
v -0.0008960000122897327 -0.02733900025486946 -0.007023000158369541
v -0.011246999725699425 -0.02751000039279461 -0.010638000443577766
v -0.008255000226199627 -0.028630999848246574 -0.020302999764680862
v -0.009483999572694302 -0.028542999178171158 -0.018376000225543976
v 0.0021039999555796385 -0.028192000463604927 -0.010041999630630016
v 0.0018269999418407679 -0.019355999305844307 -0.014453000389039516
v 0.0018629999831318855 -0.022640999406576157 -0.01002500019967556
v 0.0008609999786131084 -0.02794799953699112 -0.00865199975669384
v 0.0018579999450594187 -0.020304000005126 -0.00811500009149313
v 0.0016039999900385737 -0.017381999641656876 -0.00875800009816885
v 0.0017130000051110983 -0.012776999734342098 -0.010929999873042107
v 0.00020599999697878957 -0.027816999703645706 -0.007410999853163958
v -0.005547000095248222 -0.023300999775528908 -0.023691000416874886
v -0.00228299992159009 -0.014538000337779522 -0.015062999911606312
v -0.008251000195741653 -0.01895200088620186 -0.020509999245405197
v 0.00028899998869746923 -0.011602000333368778 -0.01346299983561039
v -0.009138000197708607 -0.026921000331640244 -0.01986199989914894
v 0.0008069999748840928 -0.019773999229073524 -0.006672999821603298
v -0.011885000392794609 -0.02371699921786785 -0.011428999714553356
v 0.0006440000142902136 -0.025299999862909317 -0.007462000008672476
v -0.011575000360608101 -0.027396000921726227 -0.012938999570906162
v 0.0013119999784976244 -0.015350000001490116 -0.007530999835580587
v 0.0008319999906234443 -0.009278999641537666 -0.009405000135302544
v -0.007794999983161688 -0.02239600010216236 -0.020671000704169273
v -0.002125999890267849 -0.012807999737560749 -0.013179999776184559
v -0.01028900034725666 -0.015154000371694565 -0.014140999875962734
v -0.010649999603629112 -0.016770999878644943 -0.012496000155806541
v -0.011227999813854694 -0.015131999738514423 -0.009572000242769718
v -0.009902999736368656 -0.013983000069856644 -0.009046999737620354
v -0.0017040000529959798 -0.010812999680638313 -0.008542000316083431
v -0.010058999992907047 -0.014240000396966934 -0.012035000137984753
vn 0.7823548316955566 -0.13062311708927155 -0.6089816689491272
vn 0.7735817432403564 0.6214547157287598 -0.1239568218588829
vn 0.9934445023536682 -0.07624080032110214 -0.08517894893884659
vn 0.6659832000732422 -0.29377248883247375 -0.6856850385665894
vn 0.4420023560523987 -0.290208637714386 -0.8487713932991028
vn 0.6381187438964844 0.19031743705272675 -0.7460454702377319
vn 0.4671466648578644 0.8001477718353271 -0.3762148320674896
vn 0.43383359909057617 0.48981258273124695 0.7562223076820374
vn -0.1531417816877365 0.4557909071445465 0.8768136501312256
vn 0.12163878977298737 0.8007201552391052 0.5865587592124939
vn 0.8314350843429565 -0.5383022427558899 0.13764627277851105
vn 0.32378026843070984 -0.0658332109451294 0.9438391923904419
vn 0.5553232431411743 -0.6421398520469666 -0.528462290763855
vn 0.17700429260730743 -0.6979202628135681 -0.6939573884010315
vn 0.32532036304473877 0.17328223586082458 -0.9295912981033325
vn 0.18795299530029297 -0.6244956851005554 -0.7580756545066833
vn -0.299437016248703 -0.6934969425201416 -0.6552857756614685
vn -0.022909434512257576 -0.5266699194908142 -0.8497611284255981
vn 0.30498430132865906 0.9105431437492371 -0.2790980339050293
vn -0.19037263095378876 -0.049774885177612305 0.9804491996765137
vn 0.1356002539396286 0.34795185923576355 0.9276540279388428
vn 0.35135340690612793 0.732477068901062 0.58311927318573
vn 0.01538081094622612 -0.4283781051635742 0.903468668460846
vn 0.17794229090213776 -0.9026138186454773 0.39195001125335693
vn -0.3045257329940796 -0.8277328014373779 0.4712987244129181
vn 0.41243976354599 0.32728245854377747 -0.8501644134521484
vn -0.45910343527793884 -0.7283397912979126 -0.5086700320243835
vn 0.6123737692832947 0.01997632160782814 -0.7903159260749817
vn -0.23768949508666992 -0.920069694519043 -0.3114089071750641
vn 0.15009739995002747 -0.9580098986625671 -0.24431094527244568
vn -0.4956532418727875 -0.7094064950942993 0.5010690689086914
vn 0.4889547824859619 0.8723025321960449 -0.0033722291700541973
vn 0.37050193548202515 0.7448557615280151 -0.5549036860466003
vn 0.20923861861228943 -0.010549698956310749 0.9778076410293579
vn -0.2833098769187927 -0.32383930683135986 0.9026979804039001
vn 0.5368284583091736 0.32385188341140747 0.7790603041648865
vn 0.5229663252830505 0.06968050450086594 0.849500298500061
vn 0.8979384899139404 0.3617981970310211 0.2506164014339447
vn 0.5119982361793518 0.6011326909065247 -0.6135938167572021
vn -0.39709484577178955 -0.9155228137969971 -0.06429318338632584
vn 0.3926977813243866 0.386258989572525 -0.8346211314201355
vn 0.41261792182922363 -0.2574792504310608 -0.8737567663192749
vn 0.43670251965522766 0.5540440678596497 -0.7087497115135193
vn -0.3085845708847046 -0.509837806224823 -0.8030198216438293
vn 0.20158910751342773 -0.3443789482116699 -0.9169323444366455
vn -0.10096964985132217 -0.6146617531776428 0.7823018431663513
vn -0.45971012115478516 -0.8123483657836914 0.3588269352912903
vn -0.4054332673549652 -0.7641139626502991 -0.501750648021698
vn -0.6653288006782532 -0.719438910484314 -0.1993623971939087
vn 0.10724075138568878 -0.611323356628418 0.7840810418128967
vn 0.7673931121826172 0.5430014133453369 -0.340965211391449
vn 0.8649722933769226 0.06786040961742401 0.4972101151943207
vn 0.7044041752815247 -0.49780768156051636 0.5059667825698853
vn 0.9334190487861633 -0.03462518751621246 0.3571135401725769
vn 0.9611672163009644 0.07429470866918564 0.2657776176929474
vn 0.9828866720199585 0.17097947001457214 -0.06855474412441254
vn 0.19443480670452118 -0.8274039030075073 0.5268755555152893
vn -0.2680880129337311 0.21945986151695251 -0.9380651712417603
vn -0.10723846405744553 0.7034860253334045 -0.7025718688964844
vn -0.6274421215057373 0.37690243124961853 -0.6813669204711914
vn 0.34584134817123413 0.6227808594703674 -0.7018104195594788
vn -0.8494262099266052 -0.028393341228365898 -0.5269429087638855
vn 0.4730401635169983 0.030957883223891258 0.8804967403411865
vn -0.9442781209945679 0.026835858821868896 0.3280526101589203
vn 0.6878665685653687 -0.12077683955430984 0.7157182097434998
vn -0.9223970770835876 -0.37648576498031616 -0.08626694232225418
vn 0.4649495780467987 0.11849741637706757 0.8773712515830994
vn 0.374222069978714 0.9252036213874817 0.06289677321910858
vn -0.8633540272712708 0.03623615577816963 -0.5032958984375
vn -0.36429041624069214 0.8012926578521729 -0.4745759665966034
vn -0.5329468846321106 0.7185501456260681 -0.4468258023262024
vn -0.9614146947860718 0.1390480101108551 -0.2373759150505066
vn -0.9355831146240234 0.333951860666275 0.11471912264823914
vn -0.42622777819633484 0.4121021628379822 0.8052960634231567
vn -0.31248605251312256 0.9290128350257874 0.1982111930847168
vn -0.696503221988678 0.6955636143684387 -0.17627981305122375
f 1//1 2//2 3//3
f 4//4 1//1 3//3
f 1//1 5//5 2//2
f 4//4 5//5 1//1
f 5//5 6//6 2//2
f 2//2 6//6 7//7
f 2//2 8//8 3//3
f 2//2 9//9 8//8
f 2//2 10//10 9//9
f 7//7 10//10 2//2
f 11//11 4//4 3//3
f 12//12 3//3 8//8
f 3//3 12//12 11//11
f 11//11 13//13 4//4
f 5//5 4//4 14//14
f 13//13 14//14 4//4
f 15//15 6//6 5//5
f 15//15 5//5 16//16
f 5//5 14//14 17//17
f 18//18 5//5 17//17
f 16//16 5//5 18//18
f 6//6 15//15 7//7
f 19//19 7//7 15//15
f 7//7 19//19 10//10
f 8//8 9//9 12//12
f 20//20 9//9 21//21
f 20//20 12//12 9//9
f 10//10 21//21 9//9
f 10//10 19//19 22//22
f 22//22 21//21 10//10
f 23//23 11//11 12//12
f 13//13 11//11 24//24
f 23//23 24//24 11//11
f 23//23 12//12 20//20
f 24//24 14//14 13//13
f 25//25 14//14 24//24
f 14//14 25//25 17//17
f 15//15 16//16 26//26
f 19//19 15//15 26//26
f 18//18 27//27 16//16
f 28//28 26//26 16//16
f 16//16 27//27 29//29
f 30//30 28//28 16//16
f 30//30 16//16 29//29
f 31//31 17//17 25//25
f 27//27 17//17 31//31
f 17//17 27//27 18//18
f 32//32 22//22 19//19
f 33//33 32//32 19//19
f 33//33 19//19 26//26
f 34//34 20//20 21//21
f 23//23 20//20 35//35
f 35//35 20//20 25//25
f 34//34 31//31 20//20
f 31//31 25//25 20//20
f 36//36 21//21 22//22
f 21//21 36//36 37//37
f 34//34 21//21 37//37
f 38//38 36//36 22//22
f 22//22 32//32 38//38
f 23//23 35//35 24//24
f 24//24 35//35 25//25
f 33//33 26//26 39//39
f 26//26 28//28 39//39
f 29//29 27//27 40//40
f 27//27 31//31 40//40
f 41//41 28//28 42//42
f 28//28 30//30 42//42
f 43//43 28//28 41//41
f 28//28 43//43 39//39
f 30//30 29//29 40//40
f 44//44 45//45 30//30
f 30//30 46//46 47//47
f 48//48 30//30 49//49
f 30//30 48//48 44//44
f 47//47 49//49 30//30
f 45//45 42//42 30//30
f 46//46 30//30 40//40
f 31//31 34//34 50//50
f 50//50 40//40 31//31
f 51//51 32//32 33//33
f 51//51 38//38 32//32
f 51//51 33//33 39//39
f 37//37 50//50 34//34
f 37//37 36//36 52//52
f 52//52 36//36 38//38
f 52//52 53//53 37//37
f 50//50 37//37 53//53
f 54//54 38//38 55//55
f 52//52 38//38 54//54
f 51//51 56//56 38//38
f 55//55 38//38 56//56
f 51//51 39//39 43//43
f 40//40 53//53 57//57
f 40//40 57//57 46//46
f 40//40 50//50 53//53
f 42//42 45//45 41//41
f 58//58 41//41 45//45
f 41//41 58//58 43//43
f 59//59 43//43 60//60
f 43//43 58//58 60//60
f 43//43 59//59 61//61
f 51//51 43//43 61//61
f 48//48 62//62 44//44
f 62//62 58//58 44//44
f 44//44 58//58 45//45
f 63//63 64//64 46//46
f 57//57 65//65 46//46
f 46//46 65//65 63//63
f 46//46 64//64 47//47
f 64//64 66//66 47//47
f 49//49 47//47 66//66
f 48//48 49//49 62//62
f 49//49 66//66 64//64
f 49//49 64//64 62//62
f 61//61 56//56 51//51
f 54//54 53//53 52//52
f 57//57 53//53 65//65
f 54//54 65//65 53//53
f 54//54 63//63 65//65
f 55//55 63//63 54//54
f 67//67 63//63 55//55
f 56//56 67//67 55//55
f 68//68 67//67 56//56
f 61//61 68//68 56//56
f 69//69 58//58 62//62
f 58//58 69//69 60//60
f 61//61 59//59 70//70
f 59//59 71//71 70//70
f 60//60 71//71 59//59
f 60//60 69//69 64//64
f 60//60 72//72 71//71
f 64//64 72//72 60//60
f 61//61 70//70 68//68
f 69//69 62//62 64//64
f 67//67 64//64 63//63
f 73//73 72//72 64//64
f 74//74 64//64 67//67
f 64//64 74//74 73//73
f 74//74 67//67 75//75
f 67//67 68//68 75//75
f 68//68 70//70 75//75
f 71//71 75//75 70//70
f 76//76 75//75 71//71
f 71//71 72//72 76//76
f 73//73 76//76 72//72
f 74//74 76//76 73//73
f 75//75 76//76 74//74
