# Generated by Visualization Toolkit
v 0.013152999803423882 -0.02742299996316433 0.011730000376701355
v 0.011978000402450562 -0.02404800057411194 0.01312899962067604
v 0.011837000027298927 -0.027605999261140823 0.013919999822974205
v 0.011281999759376049 -0.030205000191926956 0.013013999909162521
v 0.012284000404179096 -0.025570999830961227 0.010449999943375587
v 0.011997000314295292 -0.03145499899983406 0.011629000306129456
v 0.011636000126600266 -0.028957000002264977 0.009720000438392162
v 0.009948999620974064 -0.027267999947071075 0.015843000262975693
v 0.010017000138759613 -0.02456199936568737 0.01609399914741516
v 0.009850000031292439 -0.02302899956703186 0.01522700022906065
v 0.009619000367820263 -0.02644599974155426 0.01075000036507845
v 0.007890000008046627 -0.023343000560998917 0.012943999841809273
v 0.010572999715805054 -0.03280600160360336 0.01293100044131279
v 0.008639000356197357 -0.03278300166130066 0.01361900009214878
v 0.010123999789357185 -0.03179699927568436 0.010261000134050846
v 0.009014000184834003 -0.03356799855828285 0.011509999632835388
v 0.0066709998063743114 -0.029147999361157417 0.01092899963259697
v 0.007087999954819679 -0.024188999086618423 0.017410999163985252
v 0.0036170000676065683 -0.027264999225735664 0.017142999917268753
v 0.006624999921768904 -0.03206200152635574 0.014171999879181385
v 0.0060339998453855515 -0.029231000691652298 0.015393000096082687
v 0.008496999740600586 -0.022631000727415085 0.015673000365495682
v 0.005890999920666218 -0.025422999635338783 0.011700999923050404
v 0.006539999973028898 -0.022766999900341034 0.013387000188231468
v 0.008066999725997448 -0.03357499837875366 0.01153200026601553
v 0.009042000398039818 -0.031902000308036804 0.010797999799251556
v 0.004887999966740608 -0.028300000354647636 0.01089600007981062
v 0.005317999981343746 -0.03150099888443947 0.011535000056028366
v 0.003942999988794327 -0.02418600022792816 0.01810700073838234
v 0.004383999854326248 -0.029844999313354492 0.01457899995148182
v 0.000901999999769032 -0.025326000526547432 0.02112000063061714
v 0.0025110000278800726 -0.027977000921964645 0.0156230004504323
v -0.0010779999429360032 -0.027651000767946243 0.019175000488758087
v 0.004162000026553869 -0.02131200022995472 0.014654000289738178
v 0.004302999936044216 -0.021890999749302864 0.01628899946808815
v 0.003312000073492527 -0.023886000737547874 0.011315999552607536
v 0.0026499999221414328 -0.02659600041806698 0.010143999941647053
v 0.0024530000519007444 -0.0203000009059906 0.012426000088453293
v 0.0021039999555796385 -0.028192000463604927 0.010041999630630016
v 0.00101500004529953 -0.027758000418543816 0.01297600008547306
v 0.003000000026077032 -0.02180599980056286 0.01691100001335144
v -0.0015180000336840749 -0.02539600059390068 0.02281700074672699
v -0.001988000003620982 -0.023669999092817307 0.022216999903321266
v -0.000881000014487654 -0.01729400083422661 0.016902999952435493
v -0.0040779998525977135 -0.026030000299215317 0.023303000256419182
v -0.006513999775052071 -0.02666899934411049 0.02293499931693077
v -0.011246999725699425 -0.02751000039279461 0.010638000443577766
v -0.0008960000122897327 -0.02733900025486946 0.007023000158369541
v -0.009483999572694302 -0.028542999178171158 0.018376000225543976
v -0.008255000226199627 -0.028630999848246574 0.020302999764680862
v 0.0018269999418407679 -0.019355999305844307 0.014453000389039516
v 0.0018629999831318855 -0.022640999406576157 0.01002500019967556
v 0.0008609999786131084 -0.02794799953699112 0.00865199975669384
v 0.0016039999900385737 -0.017381999641656876 0.00875800009816885
v 0.0018579999450594187 -0.020304000005126 0.00811500009149313
v 0.0017130000051110983 -0.012776999734342098 0.010929999873042107
v 0.00020599999697878957 -0.027816999703645706 0.007410999853163958
v -0.005547000095248222 -0.023300999775528908 0.023691000416874886
v -0.008251000195741653 -0.01895200088620186 0.020509999245405197
v -0.00228299992159009 -0.014538000337779522 0.015062999911606312
v 0.00028899998869746923 -0.011602000333368778 0.01346299983561039
v -0.009138000197708607 -0.026921000331640244 0.01986199989914894
v -0.011885000392794609 -0.02371699921786785 0.011428999714553356
v -0.011575000360608101 -0.027396000921726227 0.012938999570906162
v 0.0008069999748840928 -0.019773999229073524 0.006672999821603298
v 0.0006440000142902136 -0.025299999862909317 0.007462000008672476
v 0.0013119999784976244 -0.015350000001490116 0.007530999835580587
v 0.0008319999906234443 -0.009278999641537666 0.009405000135302544
v -0.007794999983161688 -0.02239600010216236 0.020671000704169273
v -0.01028900034725666 -0.015154000371694565 0.014140999875962734
v -0.010649999603629112 -0.016770999878644943 0.012496000155806541
v -0.002125999890267849 -0.012807999737560749 0.013179999776184559
v -0.011227999813854694 -0.015131999738514423 0.009572000242769718
v -0.009902999736368656 -0.013983000069856644 0.009046999737620354
v -0.0017040000529959798 -0.010812999680638313 0.008542000316083431
v -0.010058999992907047 -0.014240000396966934 0.012035000137984753
vn 0.9934445023536682 -0.07624080032110214 0.08517894893884659
vn 0.7735817432403564 0.6214547157287598 0.1239568218588829
vn 0.7823548316955566 -0.13062311708927155 0.6089816689491272
vn 0.6659832000732422 -0.29377248883247375 0.6856850385665894
vn 0.43383359909057617 0.48981258273124695 -0.7562223076820374
vn 0.8314350843429565 -0.5383022427558899 -0.13764627277851105
vn 0.32378023862838745 -0.0658332034945488 -0.9438390731811523
vn 0.4420023262500763 -0.290208637714386 0.8487713932991028
vn 0.6381187438964844 0.19031743705272675 0.7460454702377319
vn 0.4671466648578644 0.8001477718353271 0.3762148320674896
vn -0.1531417816877365 0.45579099655151367 -0.8768136501312256
vn 0.12163878977298737 0.8007201552391052 -0.5865587592124939
vn 0.5553232431411743 -0.6421398520469666 0.528462290763855
vn 0.17700429260730743 -0.6979202628135681 0.6939573884010315
vn 0.01538081094622612 -0.4283781051635742 -0.903468668460846
vn 0.17794229090213776 -0.9026138186454773 -0.39195001125335693
vn -0.19037261605262756 -0.049774881452322006 -0.9804491996765137
vn 0.32532036304473877 0.17328223586082458 0.9295912981033325
vn 0.18795302510261536 -0.6244956851005554 0.7580756545066833
vn -0.299437016248703 -0.6934969425201416 0.6552857756614685
vn -0.022909434512257576 -0.5266699194908142 0.8497611284255981
vn 0.30498430132865906 0.9105431437492371 0.2790980339050293
vn 0.1356002539396286 0.34795185923576355 -0.9276540279388428
vn 0.35135340690612793 0.7324771285057068 -0.58311927318573
vn -0.3045257329940796 -0.8277328014373779 -0.47129878401756287
vn -0.2833099067211151 -0.3238392770290375 -0.9026979804039001
vn 0.20923861861228943 -0.010549698956310749 -0.9778076410293579
vn -0.4956532418727875 -0.7094064950942993 -0.5010690689086914
vn 0.41243976354599 0.32728245854377747 0.8501644134521484
vn -0.45910343527793884 -0.7283397912979126 0.5086700320243835
vn 0.6123738288879395 0.019976336508989334 0.7903159260749817
vn -0.23768950998783112 -0.920069694519043 0.3114089071750641
vn 0.15009739995002747 -0.9580098986625671 0.24431094527244568
vn 0.4889547824859619 0.8723025321960449 0.0033722417429089546
vn 0.37050193548202515 0.7448557615280151 0.5549036860466003
vn 0.5368284583091736 0.32385188341140747 -0.7790603041648865
vn 0.5229663252830505 0.06968050450086594 -0.849500298500061
vn 0.8979384899139404 0.3617982566356659 -0.2506163716316223
vn 0.10724075138568878 -0.611323356628418 -0.7840810418128967
vn -0.39709484577178955 -0.9155228137969971 0.06429318338632584
vn 0.5119982361793518 0.6011326313018799 0.6135938167572021
vn 0.41261792182922363 -0.2574792504310608 0.8737567663192749
vn 0.3926977813243866 0.386258989572525 0.8346211314201355
vn 0.43670251965522766 0.5540440678596497 0.7087497115135193
vn 0.20158910751342773 -0.3443789482116699 0.9169323444366455
vn -0.3085845708847046 -0.509837806224823 0.8030198216438293
vn -0.45971012115478516 -0.8123483657836914 -0.3588269352912903
vn -0.10096964240074158 -0.6146617531776428 -0.7823018431663513
vn -0.6653288006782532 -0.719438910484314 0.1993623971939087
vn -0.4054332673549652 -0.7641139626502991 0.501750648021698
vn 0.7673931121826172 0.5430014133453369 0.340965211391449
vn 0.8649722933769226 0.06786040961742401 -0.4972101151943207
vn 0.7044041752815247 -0.49780768156051636 -0.5059667229652405
vn 0.9611672163009644 0.07429470866918564 -0.2657776176929474
vn 0.9334189891815186 -0.03462519124150276 -0.3571135401725769
vn 0.9828866720199585 0.17097947001457214 0.06855474412441254
vn 0.19443480670452118 -0.8274039030075073 -0.5268755555152893
vn -0.2680880129337311 0.21945986151695251 0.9380651712417603
vn -0.6274421215057373 0.37690243124961853 0.6813669204711914
vn -0.10723848640918732 0.7034861445426941 0.7025719285011292
vn 0.34584134817123413 0.6227808594703674 0.7018104195594788
vn -0.8494262099266052 -0.028393341228365898 0.5269429087638855
vn -0.9442781209945679 0.026835858821868896 -0.3280526101589203
vn -0.9223970770835876 -0.37648576498031616 0.08626694232225418
vn 0.4730401933193207 0.030957883223891258 -0.8804967403411865
vn 0.6878666281700134 -0.12077685445547104 -0.715718150138855
vn 0.4649495780467987 0.11849741637706757 -0.8773712515830994
vn 0.374222069978714 0.9252036213874817 -0.06289677321910858
vn -0.8633540272712708 0.03623615577816963 0.5032958984375
vn -0.5329468250274658 0.7185501456260681 0.4468258023262024
vn -0.9614146947860718 0.1390480101108551 0.2373759150505066
vn -0.36429041624069214 0.8012926578521729 0.4745759665966034
vn -0.9355831146240234 0.333951860666275 -0.11471912264823914
vn -0.42622777819633484 0.4121021628379822 -0.8052960634231567
vn -0.31248605251312256 0.9290128350257874 -0.1982111930847168
vn -0.696503221988678 0.6955636143684387 0.17627981305122375
f 1//1 2//2 3//3
f 1//1 3//3 4//4
f 1//1 5//5 2//2
f 1//1 4//4 6//6
f 5//5 1//1 7//7
f 6//6 7//7 1//1
f 2//2 8//8 3//3
f 2//2 9//9 8//8
f 10//10 9//9 2//2
f 5//5 11//11 2//2
f 11//11 12//12 2//2
f 2//2 12//12 10//10
f 3//3 8//8 4//4
f 4//4 13//13 6//6
f 14//14 4//4 8//8
f 4//4 14//14 13//13
f 7//7 11//11 5//5
f 7//7 6//6 15//15
f 16//16 6//6 13//13
f 6//6 16//16 15//15
f 11//11 7//7 17//17
f 17//17 7//7 15//15
f 8//8 9//9 18//18
f 19//19 8//8 18//18
f 20//20 14//14 8//8
f 20//20 8//8 21//21
f 21//21 8//8 19//19
f 10//10 18//18 9//9
f 18//18 10//10 22//22
f 12//12 22//22 10//10
f 23//23 11//11 17//17
f 11//11 23//23 12//12
f 24//24 22//22 12//12
f 12//12 23//23 24//24
f 13//13 14//14 16//16
f 16//16 14//14 25//25
f 20//20 25//25 14//14
f 26//26 17//17 15//15
f 16//16 26//26 15//15
f 25//25 26//26 16//16
f 23//23 17//17 27//27
f 25//25 17//17 26//26
f 17//17 28//28 27//27
f 17//17 25//25 28//28
f 29//29 19//19 18//18
f 29//29 18//18 22//22
f 19//19 30//30 21//21
f 19//19 29//29 31//31
f 32//32 30//30 19//19
f 19//19 31//31 33//33
f 32//32 19//19 33//33
f 25//25 20//20 28//28
f 28//28 20//20 30//30
f 21//21 30//30 20//20
f 22//22 24//24 34//34
f 22//22 34//34 35//35
f 29//29 22//22 35//35
f 24//24 23//23 36//36
f 37//37 36//36 23//23
f 37//37 23//23 27//27
f 24//24 36//36 38//38
f 38//38 34//34 24//24
f 39//39 27//27 28//28
f 27//27 39//39 37//37
f 40//40 28//28 30//30
f 28//28 40//40 39//39
f 41//41 29//29 35//35
f 41//41 31//31 29//29
f 40//40 30//30 32//32
f 42//42 31//31 43//43
f 42//42 33//33 31//31
f 43//43 31//31 44//44
f 41//41 44//44 31//31
f 40//40 32//32 33//33
f 33//33 45//45 46//46
f 47//47 48//48 33//33
f 49//49 33//33 50//50
f 46//46 50//50 33//33
f 33//33 49//49 47//47
f 33//33 42//42 45//45
f 40//40 33//33 48//48
f 35//35 34//34 51//51
f 34//34 38//38 51//51
f 41//41 35//35 51//51
f 52//52 36//36 37//37
f 38//38 36//36 52//52
f 37//37 53//53 52//52
f 53//53 37//37 39//39
f 54//54 38//38 55//55
f 55//55 38//38 52//52
f 38//38 56//56 51//51
f 56//56 38//38 54//54
f 53//53 39//39 40//40
f 57//57 53//53 40//40
f 48//48 57//57 40//40
f 44//44 41//41 51//51
f 43//43 45//45 42//42
f 45//45 43//43 58//58
f 44//44 58//58 43//43
f 59//59 44//44 60//60
f 59//59 58//58 44//44
f 61//61 60//60 44//44
f 61//61 44//44 51//51
f 45//45 58//58 46//46
f 46//46 62//62 50//50
f 46//46 58//58 62//62
f 47//47 63//63 48//48
f 47//47 64//64 63//63
f 64//64 47//47 49//49
f 48//48 63//63 65//65
f 48//48 66//66 57//57
f 65//65 66//66 48//48
f 62//62 49//49 50//50
f 63//63 64//64 49//49
f 62//62 63//63 49//49
f 51//51 56//56 61//61
f 52//52 53//53 55//55
f 66//66 53//53 57//57
f 53//53 66//66 55//55
f 55//55 65//65 54//54
f 54//54 65//65 67//67
f 54//54 67//67 56//56
f 66//66 65//65 55//55
f 56//56 67//67 68//68
f 56//56 68//68 61//61
f 62//62 58//58 69//69
f 59//59 69//69 58//58
f 60//60 70//70 59//59
f 63//63 69//69 59//59
f 70//70 71//71 59//59
f 59//59 71//71 63//63
f 72//72 60//60 61//61
f 72//72 70//70 60//60
f 68//68 72//72 61//61
f 63//63 62//62 69//69
f 65//65 63//63 67//67
f 63//63 71//71 73//73
f 67//67 63//63 74//74
f 73//73 74//74 63//63
f 75//75 67//67 74//74
f 75//75 68//68 67//67
f 75//75 72//72 68//68
f 72//72 75//75 70//70
f 70//70 75//75 76//76
f 76//76 71//71 70//70
f 71//71 76//76 73//73
f 73//73 76//76 74//74
f 74//74 76//76 75//75
