# Generated by Visualization Toolkit
v 0.0017989999614655972 -0.18509000539779663 0.007098999805748463
v -0.0033499998971819878 -0.22861100733280182 0.009503000415861607
v 0.010027999989688396 -0.2374110072851181 0.0023640000727027655
v 0.009248999878764153 -0.2153480052947998 0.002382999984547496
v -0.005688999779522419 -0.17959199845790863 0.0058200000785291195
v 0.006976000033318996 -0.14707200229167938 0.007765000220388174
v 0.011714000254869461 -0.1769769936800003 -0.0005779999773949385
v 0.013845999725162983 -0.1436299979686737 0.003777999896556139
v -0.00381199992261827 -0.22787299752235413 -0.00749199977144599
v -0.006928000133484602 -0.20598700642585754 0.004341000225394964
v 0.006233000196516514 -0.24893100559711456 0.010033000260591507
v -0.0008159999852068722 -0.24948200583457947 0.014295999892055988
v -0.0024939998984336853 -0.24515199661254883 -0.003751999931409955
v 0.009731999598443508 -0.24709300696849823 0.005444000009447336
v 0.011497000232338905 -0.24506600201129913 -0.0017269999952986836
v 0.010274999774992466 -0.21590399742126465 -0.001104000024497509
v -0.005907000042498112 -0.2047490030527115 -0.004532000049948692
v -0.003848999971523881 -0.1558620035648346 0.005200999788939953
v -0.006372000090777874 -0.1560879945755005 -0.0008459999808110297
v 0.0029819998890161514 -0.08728499710559845 0.008852999657392502
v -0.002587999915704131 -0.17495599389076233 -0.007706000003963709
v 0.004616999998688698 -0.12393499910831451 -0.007459000218659639
v 0.015870999544858932 -0.0990070030093193 0.001285000005736947
v -0.0024019998963922262 -0.23657600581645966 -0.008759000338613987
v 0.0001990000018849969 -0.23680900037288666 -0.010267999954521656
v 0.009724999777972698 -0.2659299969673157 0.01782199926674366
v 0.011549999937415123 -0.2660770118236542 0.013020999729633331
v 0.0023849999997764826 -0.2625190019607544 0.020880000665783882
v -0.00026699999580159783 -0.2633259892463684 0.01913299970328808
v 0.00013699999544769526 -0.2617279887199402 -0.013962999917566776
v 0.00028899998869746923 -0.2609519958496094 -0.015838999301195145
v -0.0010010000551119447 -0.26623401045799255 0.005903999786823988
v 0.0013559999642893672 -0.2651360034942627 -0.0018240000354126096
v -0.00029200001154094934 -0.25310200452804565 -0.012872000224888325
v 0.015402000397443771 -0.2725229859352112 0.0005230000242590904
v 0.01372000016272068 -0.26694101095199585 -0.00443200021982193
v 0.0005929999751970172 -0.24504299461841583 -0.011533999815583229
v 0.0031139999628067017 -0.26239100098609924 -0.01733499951660633
v 0.011831000447273254 -0.26081201434135437 -0.008921000175178051
v 0.014078999869525433 -0.26949501037597656 0.004236999899148941
v 0.01498199999332428 -0.27281901240348816 0.0028150000143796206
v -0.004666000138968229 -0.15593400597572327 -0.004891999997198582
v -0.0024709999561309814 -0.09808100014925003 -0.0004330000083427876
v -0.002713999943807721 -0.12748600542545319 -0.004166000057011843
v 0.009014000184834003 -0.036122001707553864 0.010723999701440334
v 0.017710000276565552 -0.03192700073122978 0.006054999772459269
v 0.00380500010214746 -0.03634899854660034 0.009731999598443508
v -0.0014199999859556556 -0.07284600287675858 0.0030010000336915255
v 0.01335499994456768 -0.08249100297689438 -0.003955999854952097
v 0.004767999984323978 -0.09747199714183807 -0.008317999541759491
v 0.010664000175893307 -0.2710599899291992 0.02307100035250187
v 0.012476000003516674 -0.2718220055103302 0.02164500020444393
v 0.01183599978685379 -0.26951199769973755 0.017285000532865524
v 0.012171000242233276 -0.2735219895839691 0.008143000304698944
v 0.011815999634563923 -0.2722190022468567 0.01195599976927042
v 0.006713000126183033 -0.27114999294281006 0.023984000086784363
v 0.001164000015705824 -0.2801609933376312 0.015096000395715237
v 0.005133000202476978 -0.2782920002937317 0.02250399999320507
v -0.0009590000263415277 -0.2713159918785095 0.008967000059783459
v -0.0007849999819882214 -0.2760240137577057 0.01046799961477518
v 0.0008510000188834965 -0.27407100796699524 -0.019294999539852142
v 0.0016339999856427312 -0.2690959870815277 -0.011017999611794949
v 0.0006689999718219042 -0.2659339904785156 -0.01860000006854534
v 0.0031220000237226486 -0.269665002822876 0.003083999967202544
v 0.006403000093996525 -0.2708609998226166 -0.0006629999843426049
v 0.016005000099539757 -0.27537500858306885 0.0007220000261440873
v 0.014605999924242496 -0.2737100124359131 -0.0016400000313296914
v 0.01307000033557415 -0.27134498953819275 -0.004356999881565571
v 0.012745999731123447 -0.27051299810409546 -0.008464000187814236
v 0.01297600008547306 -0.27031099796295166 -0.012485000304877758
v 0.011946000158786774 -0.27374500036239624 -0.018101999536156654
v 0.003102000104263425 -0.2706319987773895 -0.023725999519228935
v 0.013531000353395939 -0.27393999695777893 0.004834999796003103
v 0.016200000420212746 -0.2759059965610504 0.003073000116273761
v -0.0014049999881535769 -0.07658299803733826 -0.0009250000002793968
v 0.011978000402450562 -0.007400999777019024 0.018061000853776932
v 0.0040790000930428505 -0.020976999774575233 0.01295700017362833
v 0.016363000497221947 -0.002449000021442771 0.017091000452637672
v 0.011787000112235546 -0.059390999376773834 -0.008310999721288681
v 0.020076999440789223 -0.022982999682426453 -0.0033360000234097242
v 0.022244999185204506 -0.008154000155627728 0.0028550000861287117
v 0.023145999759435654 -0.0029120000544935465 0.010358000174164772
v 0.0006300000241026282 -0.021321000531315804 0.011258999817073345
v -0.0015150000108405948 -0.03609500080347061 0.0032770000398159027
v -0.0016720000421628356 -0.04411900043487549 0.0030789999291300774
v -0.0014819999923929572 -0.0500670000910759 0.003089000005275011
v 0.008023999631404877 -0.0451820008456707 -0.00939400028437376
v -0.00037299998803064227 -0.05431799963116646 -0.0023870000150054693
v 0.015305000357329845 -0.2770079970359802 0.02159699983894825
v 0.01295199990272522 -0.2763499915599823 0.023531999439001083
v 0.014031999744474888 -0.27397701144218445 0.02026199921965599
v 0.012388999573886395 -0.2747350037097931 0.013167999684810638
v 0.01690799929201603 -0.27842798829078674 0.005071999970823526
v 0.010552000254392624 -0.2799740135669708 0.02428399957716465
v 0.003837000112980604 -0.2877109944820404 0.011597000062465668
v 0.001474000047892332 -0.2811479866504669 0.010626000352203846
v 0.005303999874740839 -0.289341002702713 0.011676999740302563
v 0.010664000175893307 -0.28693899512290955 0.02026600018143654
v 0.002202000003308058 -0.2721239924430847 0.006591999903321266
v 0.006932999938726425 -0.2740580141544342 0.0056409998796880245
v 0.003467000089585781 -0.2769779860973358 0.007734000217169523
v 0.0019229999743402004 -0.2773570120334625 -0.014587000012397766
v 0.002584999892860651 -0.2721010148525238 -0.012734999880194664
v 0.0010000000474974513 -0.2761090099811554 -0.030264999717473984
v 0.00015500000154133886 -0.27690601348876953 -0.021410999819636345
v 0.010374999605119228 -0.27506300806999207 -0.0022169998846948147
v 0.00903400033712387 -0.27679601311683655 -0.007788000162690878
v 0.004867999814450741 -0.27484700083732605 -0.011474000290036201
v 0.0061240000650286674 -0.2708609998226166 0.0018619999755173922
v 0.009920000098645687 -0.27397599816322327 0.000838999985717237
v 0.00980400014668703 -0.2745720148086548 -0.0006590000120922923
v 0.01546700019389391 -0.2776859998703003 -0.0027809999883174896
v 0.01896899938583374 -0.27908599376678467 0.0008210000232793391
v 0.011958999559283257 -0.2756989896297455 -0.004259999841451645
v 0.010374000295996666 -0.276636004447937 -0.007207000162452459
v 0.01043500006198883 -0.275613009929657 -0.00930000003427267
v 0.013253999873995781 -0.27382001280784607 -0.015273000113666058
v 0.011897999793291092 -0.27569401264190674 -0.012846999801695347
v 0.014688000082969666 -0.27685800194740295 -0.01664300076663494
v 0.006945000030100346 -0.2779340147972107 -0.031957998871803284
v 0.012258999980986118 -0.2792209982872009 -0.023197000846266747
v 0.015259999781847 -0.27950799465179443 -0.018105000257492065
v 0.009333999827504158 -0.27953100204467773 -0.030693000182509422
v 0.003215000033378601 -0.2764970064163208 -0.031543001532554626
v 0.012191000394523144 0.008936000056564808 0.018523000180721283
v 0.00010900000052060932 -0.0012839999981224537 0.018411999568343163
v 0.008603000082075596 0.007031000219285488 0.01984100043773651
v -0.00042600001324899495 -0.011691000312566757 0.01511599961668253
v 0.013857999816536903 0.01027000043541193 0.016186000779271126
v 0.022406000643968582 0.0017269999952986836 0.011331000365316868
v 0.02121400088071823 0.004869000054895878 0.011971999891102314
v 0.019328000023961067 -0.02331800013780594 -0.006453999783843756
v 0.027532000094652176 -0.007961999624967575 -0.008967000059783459
v 0.024582000449299812 -0.014348999597132206 -0.005024999845772982
v 0.024243999272584915 -0.014498000033199787 -0.0031059999018907547
v 0.022760000079870224 0.0021840000990778208 0.0031500000040978193
v 0.02843400090932846 -0.0018029999919235706 -0.0003330000035930425
v 0.027525000274181366 -0.010095000267028809 -0.002283999929204583
v 0.021859999746084213 0.0019509999547153711 0.00633700005710125
v -0.003111999947577715 -0.015706000849604607 0.00888300035148859
v -0.0036899999249726534 -0.02728400006890297 -0.0014260000316426158
v -0.002194999950006604 -0.035753000527620316 -0.00152299995534122
v 0.0014959999825805426 -0.036511000245809555 -0.007199000101536512
v 0.0067460001446306705 -0.03493800014257431 -0.010173999704420567
v 0.017909999936819077 -0.27726998925209045 0.02090200036764145
v 0.025638999417424202 -0.2871370017528534 0.01739099994301796
v 0.01704300008714199 -0.2836019992828369 0.020618999376893044
v 0.01584699936211109 -0.2847500145435333 0.022096000611782074
v 0.01507600024342537 -0.2750000059604645 0.020430000498890877
v 0.015838000923395157 -0.27532199025154114 0.019478999078273773
v 0.02285899966955185 -0.277334988117218 0.01611199975013733
v 0.019412999972701073 -0.2774670124053955 0.008329999633133411
v 0.020431000739336014 -0.27696600556373596 0.01908300071954727
v 0.016870999708771706 -0.27577701210975647 0.019625000655651093
v 0.01952899992465973 -0.27970901131629944 0.004248000215739012
v 0.01360199972987175 -0.2857449948787689 0.02209700085222721
v 0.004666999913752079 -0.2836880087852478 0.004538999870419502
v 0.0059830001555383205 -0.2904140055179596 0.008810999803245068
v 0.009290999732911587 -0.29247498512268066 0.008391999639570713
v 0.016133999451994896 -0.2877349853515625 0.020041000097990036
v 0.01909800060093403 -0.2934660017490387 0.014566999860107899
v 0.019650999456644058 -0.29209399223327637 0.01626800000667572
v 0.016165999695658684 -0.2939800024032593 0.013137999922037125
v 0.006889000069350004 -0.27210700511932373 0.004133000038564205
v 0.007296000141650438 -0.27528899908065796 0.005034999921917915
v 0.007728000171482563 -0.2781429886817932 0.002142000012099743
v 0.004840000066906214 -0.2819649875164032 0.004207000136375427
v 0.005384999793022871 -0.277321994304657 -0.01170899998396635
v 0.004145999904721975 -0.283394992351532 -0.006312999874353409
v 0.001142999972216785 -0.2797060012817383 -0.03162200003862381
v 0.001032999949529767 -0.28365498781204224 -0.03129899874329567
v 0.0026910000015050173 -0.28555700182914734 -0.01979300007224083
v 0.002266000024974346 -0.2843469977378845 -0.01217000000178814
v 0.0057310000993311405 -0.2818160057067871 0.000291000003926456
v 0.007449000142514706 -0.27948498725891113 -0.006297999992966652
v 0.008333999663591385 -0.27822598814964294 -0.00838600005954504
v 0.007652999833226204 -0.27738600969314575 -0.00913000013679266
v 0.012474000453948975 -0.2767390012741089 -0.0045380000956356525
v 0.019231000915169716 -0.2818169891834259 -0.006548999808728695
v 0.015964999794960022 -0.2801060080528259 -0.009488999843597412
v 0.02159699983894825 -0.28171899914741516 0.0037360000424087048
v 0.021801000460982323 -0.2853600084781647 -0.0036150000523775816
v 0.010890999808907509 -0.2766909897327423 -0.009801999665796757
v 0.01473699975758791 -0.27759799361228943 -0.014783999882638454
v 0.01916700042784214 -0.28215500712394714 -0.011339999735355377
v 0.021741999313235283 -0.2856549918651581 -0.0155239999294281
v 0.021020999178290367 -0.285288006067276 -0.01795800030231476
v 0.02046000026166439 -0.28505998849868774 -0.01845400035381317
v 0.018223000690340996 -0.2837370038032532 -0.018828000873327255
v 0.0026519999373704195 -0.2796129882335663 -0.032735999673604965
v 0.006519999820739031 -0.28183498978614807 -0.032712001353502274
v 0.009095000103116035 -0.2868860065937042 -0.029146000742912292
v 0.013015000149607658 -0.28158000111579895 -0.02065199986100197
v 0.011359999887645245 -0.2845520079135895 -0.022818999364972115
v 0.006918999832123518 0.008771000429987907 0.01846799999475479
v 0.010002999566495419 0.01090100035071373 0.01745700091123581
v 0.003163000103086233 0.004879999905824661 0.01923299953341484
v -0.0007130000158213079 0.003938000183552504 0.01751299947500229
v -0.004892999771982431 0.002727000042796135 0.013054000213742256
v -0.00659599993377924 -0.008876999840140343 0.010521999560296535
v 0.011637000367045403 0.0124719999730587 0.016032999381422997
v 0.016766000539064407 0.011479999870061874 0.011700999923050404
v 0.012435000389814377 0.013504000380635262 0.013856999576091766
v 0.020628999918699265 0.007577999960631132 0.010247999802231789
v 0.00889899954199791 -0.019277000799775124 -0.013908999972045422
v 0.016398999840021133 -0.007600000128149986 -0.01758600026369095
v 0.01897599920630455 -0.004730000160634518 -0.018703000620007515
v 0.02150600031018257 0.002713999943807721 -0.0171549990773201
v 0.02931400015950203 -0.005276000127196312 -0.006149000022560358
v 0.027365999296307564 -0.0020800000056624413 -0.008812000043690205
v 0.019122999161481857 0.00892999954521656 0.006955000106245279
v 0.024212000891566277 0.0050650001503527164 0.00019099999917671084
v 0.027667999267578125 0.0004980000085197389 -0.00014800000644754618
v 0.02928999997675419 0.00006199999916134402 -0.0031210000161081553
v -0.006442000158131123 -0.013491000048816204 -0.004023000132292509
v -0.004813000094145536 -0.017875000834465027 -0.0038499999791383743
v -0.005549999885261059 -0.015186999924480915 -0.008004000410437584
v -0.00042799999937415123 -0.02034199982881546 -0.01244600024074316
v 0.0013989999424666166 -0.02812799997627735 -0.009554999880492687
v 0.005578000098466873 -0.020150000229477882 -0.014406000263988972
v 0.0024610001128166914 -0.02024500072002411 -0.01406100019812584
v 0.015917999669909477 -0.2754890024662018 0.02006400004029274
v 0.025039000436663628 -0.27980899810791016 0.017812000587582588
v 0.0263030007481575 -0.28453201055526733 0.017472999170422554
v 0.02631000056862831 -0.2882469892501831 0.014352000318467617
v 0.02437499910593033 -0.29075101017951965 0.014655999839305878
v 0.023799000307917595 -0.2894519865512848 0.01705300062894821
v 0.025603000074625015 -0.2795009911060333 0.015251999720931053
v 0.02423899993300438 -0.27981698513031006 0.009442999958992004
v 0.005280000157654285 -0.28493601083755493 0.0011500000255182385
v 0.009197000414133072 -0.29295799136161804 0.000045000000682193786
v 0.007124000228941441 -0.29017698764801025 0.006122000049799681
v 0.009455000050365925 -0.29301100969314575 0.005979999899864197
v 0.021530000492930412 -0.292589008808136 0.01485500019043684
v 0.02164600044488907 -0.2931100130081177 0.012257999740540981
v 0.019114000722765923 -0.29417699575424194 0.012346000410616398
v 0.00572599982842803 -0.27930501103401184 -0.009081999771296978
v 0.004404999781399965 -0.28981998562812805 -0.006056000012904406
v 0.002265000017359853 -0.28390100598335266 -0.03227800130844116
v 0.0028780000284314156 -0.28860199451446533 -0.030602000653743744
v 0.004784999880939722 -0.28844499588012695 -0.018831999972462654
v 0.003484999993816018 -0.287337988615036 -0.017438000068068504
v 0.002901999978348613 -0.28741100430488586 -0.011687000282108784
v 0.020476000383496284 -0.28434398770332336 -0.006612999830394983
v 0.022262999787926674 -0.28965699672698975 0.004170000087469816
v 0.026453999802470207 -0.2824540138244629 0.01056199986487627
v 0.020222000777721405 -0.29019200801849365 -0.006194999907165766
v 0.02091600000858307 -0.28730300068855286 -0.00658900011330843
v 0.021709999069571495 -0.29314500093460083 -0.016036000102758408
v 0.021616000682115555 -0.2890399992465973 -0.01801300048828125
v 0.020452000200748444 -0.2886179983615875 -0.0190069992095232
v 0.012994999997317791 -0.28431999683380127 -0.020538000389933586
v 0.0043390002101659775 -0.2838680148124695 -0.03265799954533577
v 0.005998999811708927 -0.2893179953098297 -0.030616000294685364
v 0.00381499994546175 -0.2874610126018524 -0.031619999557733536
v 0.007864000275731087 -0.2891539931297302 -0.028846999630331993
v 0.009456999599933624 -0.289588987827301 -0.022461000829935074
v 0.004255000036209822 0.007757000159472227 0.018024999648332596
v 0.0005089999758638442 0.011660999618470669 0.009347000159323215
v -0.008954999968409538 0.011026999913156033 0.0006569999968633056
v -0.005171999800950289 0.014309000223875046 0.001820000004954636
v -0.011692999862134457 0.007329000160098076 -0.0010000000474974513
v -0.012896999716758728 0.0012910000514239073 -0.0008730000117793679
v -0.011109000071883202 -0.004741999786347151 -0.0005959999980404973
v 0.01612200029194355 0.01243599969893694 0.00930000003427267
v 0.00890900008380413 0.015048000030219555 0.006787999998778105
v 0.0041069998405873775 0.014770999550819397 0.007825000211596489
v 0.014797000214457512 0.012953000143170357 0.007966999895870686
v 0.0043669999577105045 -0.013783000409603119 -0.01917400024831295
v 0.007792000193148851 -0.012814000248908997 -0.01918799988925457
v 0.01593399979174137 -0.007348999846726656 -0.02091600000858307
v 0.015211000107228756 -0.004064000211656094 -0.02319199964404106
v 0.022098999470472336 0.006928000133484602 -0.014494000002741814
v 0.013144000433385372 -0.00009899999713525176 -0.02471099980175495
v 0.014081000350415707 0.0064559997990727425 -0.022135000675916672
v 0.01942100003361702 0.014147999696433544 -0.006816999986767769
v 0.0193060003221035 0.012915000319480896 -0.00016399999731220305
v 0.01794400066137314 0.011296999640762806 0.006167999934405088
v 0.028334999457001686 0.0017460000235587358 -0.0019099999917671084
v -0.012659000232815742 -0.0059540001675486565 -0.005477000027894974
v -0.004234999883919954 -0.012594999745488167 -0.019625000655651093
v -0.0015920000150799751 -0.017355000600218773 -0.01440299954265356
v -0.010267999954521656 -0.010054999962449074 -0.012257000431418419
v 0.001120000029914081 -0.01590000092983246 -0.017775999382138252
v 0.026844000443816185 -0.28208398818969727 0.014627999626100063
v 0.02706499956548214 -0.2855919897556305 0.014751999638974667
v 0.026083000004291534 -0.28867700695991516 0.010292000137269497
v 0.008310999721288681 -0.29472699761390686 -0.006221999879926443
v 0.014581000432372093 -0.2941350042819977 -0.0009539999882690609
v 0.018792999908328056 -0.2929939925670624 0.0053170002065598965
v 0.004036999773234129 -0.29392099380493164 -0.00929300021380186
v 0.005038999952375889 -0.28967800736427307 -0.027915000915527344
v 0.004858999978750944 -0.28925999999046326 -0.030719000846147537
v 0.00699299992993474 -0.289561003446579 -0.02049800008535385
v 0.0043299999088048935 -0.2881909906864166 -0.01750599965453148
v 0.005216000135987997 -0.29071998596191406 -0.015776000916957855
v 0.004424000158905983 -0.2952220141887665 -0.011857000179588795
v 0.02696700021624565 -0.285768985748291 0.010540000163018703
v 0.016186999157071114 -0.29464998841285706 -0.004532999824732542
v 0.019960999488830566 -0.2966040074825287 -0.015549999661743641
v 0.021013999357819557 -0.29308798909187317 -0.01806900091469288
v 0.019276000559329987 -0.2963950037956238 -0.017619000747799873
v 0.017588000744581223 -0.2950100004673004 -0.01872899942100048
v 0.011777999810874462 -0.29079800844192505 -0.019293999299407005
v 0.010205999948084354 -0.28995299339294434 -0.020029999315738678
v 0.006763999816030264 -0.2897860109806061 -0.028426000848412514
v 0.009236999787390232 -0.29001399874687195 -0.020951999351382256
v -0.009855999611318111 0.010755999945104122 -0.007935999892652035
v 0.0034749999176710844 0.017204999923706055 0.0042409999296069145
v 0.002345999935641885 0.018271999433636665 0.0001880000054370612
v -0.002876000013202429 0.013174000196158886 -0.015289000235497952
v -0.013345999643206596 0.0037400000728666782 -0.003450999967753887
v -0.013819999992847443 0.0003229999856557697 -0.005520000122487545
v 0.008346999995410442 0.017402999103069305 0.00343300006352365
v -0.0001630000042496249 -0.012817000038921833 -0.02222999930381775
v 0.003911999985575676 -0.012594999745488167 -0.023284999653697014
v 0.00824700016528368 -0.011288999579846859 -0.02366900071501732
v 0.009227000176906586 -0.007323999889194965 -0.02502099983394146
v 0.010703000240027905 0.013751000165939331 -0.017165999859571457
v 0.004304999951273203 0.0005910000181756914 -0.02576100081205368
v 0.008803999982774258 0.008128000423312187 -0.02260199934244156
v 0.010118000209331512 0.018101999536156654 -0.008023999631404877
v -0.012126999907195568 -0.0015450000064447522 -0.013377999886870384
v -0.0011790000135079026 -0.010081999935209751 -0.02353600040078163
v -0.007660999894142151 -0.0006329999887384474 -0.01990099996328354
v -0.0019259999971836805 -0.005884999874979258 -0.02429400011897087
v 0.007751000113785267 -0.2980259954929352 -0.011265000328421593
v 0.013706999830901623 -0.2959049940109253 -0.0062500000931322575
v 0.004848000127822161 -0.29613998532295227 -0.011309999972581863
v 0.007930000312626362 -0.29015499353408813 -0.017992999404668808
v 0.00798300001770258 -0.29823899269104004 -0.013864999637007713
v 0.013712000101804733 -0.2993820011615753 -0.016013000160455704
v 0.010487999767065048 -0.2915480136871338 -0.018796000629663467
v 0.017115000635385513 -0.29900699853897095 -0.014595000073313713
v 0.013969000428915024 -0.29962000250816345 -0.013776999898254871
v 0.016791999340057373 -0.2986699938774109 -0.01686899922788143
v -0.013005999848246574 0.003894000081345439 -0.00810300000011921
v -0.004184999968856573 0.006219000089913607 -0.0203000009059906
v 0.0018309999722987413 0.008462999947369099 -0.022092999890446663
v 0.00279999990016222 -0.009569000452756882 -0.024918999522924423
vn 0.39351701736450195 -0.017416754737496376 0.9191523790359497
vn -0.492820680141449 0.06088820472359657 0.8679978847503662
vn 0.7637608051300049 0.10228745639324188 0.6373434662818909
vn 0.8564155697822571 0.015163222327828407 0.5160643458366394
vn -0.7418361902236938 0.042576760053634644 0.669228196144104
vn 0.08417242020368576 -0.0108882375061512 0.9963917136192322
vn 0.9996904730796814 -0.0228507649153471 0.009833153337240219
vn 0.9706884622573853 -0.06240449473261833 0.23209801316261292
vn -0.9063118696212769 -0.05511755496263504 -0.4189998209476471
vn -0.994168758392334 -0.044048573821783066 0.09842885285615921
vn 0.6369941830635071 0.341325044631958 0.6911842226982117
vn -0.5276410579681396 0.2774389684200287 0.8028838038444519
vn -0.9927898645401001 -0.089908666908741 -0.07927615195512772
vn 0.8590011596679688 0.19652779400348663 0.4727514982223511
vn 0.966694712638855 0.16039764881134033 -0.19943366944789886
vn 0.929255485534668 0.010101023130118847 -0.36929967999458313
vn -0.9451104402542114 0.0026217936538159847 -0.3267405927181244
vn -0.6493978500366211 0.04685505852103233 0.7590040564537048
vn -0.9984750151634216 0.054436977952718735 0.00917798187583685
vn -0.24405117332935333 -0.01029516477137804 0.9697077870368958
vn -0.03755280748009682 0.031990159302949905 -0.9987825155258179
vn 0.3501012325286865 -0.050170451402664185 -0.9353673458099365
vn 0.9977551102638245 -0.06518584489822388 -0.01534716784954071
vn -0.7301927208900452 0.030466832220554352 -0.6825616359710693
vn -0.06174570694565773 0.09015994518995285 -0.9940114617347717
vn 0.737964928150177 0.5143795609474182 0.43683120608329773
vn 0.9418107271194458 0.18343563377857208 0.28168052434921265
vn 0.10227958858013153 0.4451976418495178 0.8895717859268188
vn -0.9082367420196533 -0.01724395342171192 0.41810110211372375
vn -0.994534969329834 -0.10415155440568924 -0.007265733554959297
vn -0.8323090672492981 0.1644030064344406 -0.5293706059455872
vn -0.9361194372177124 -0.2598862051963806 -0.2369377464056015
vn -0.8921499848365784 -0.4366433620452881 -0.11580558121204376
vn -0.7072048783302307 0.1447492241859436 -0.6920323371887207
vn 0.9760333299636841 0.11217062920331955 -0.186485156416893
vn 0.9654028415679932 0.008254935964941978 -0.26063254475593567
vn -0.01462595909833908 0.23200593888759613 -0.9726043343544006
vn 0.21439094841480255 0.47100722789764404 -0.8556802868843079
vn 0.8906293511390686 0.20924390852451324 -0.40372809767723083
vn 0.9353572130203247 0.019627178087830544 0.3531593382358551
vn 0.9219634532928467 0.20764639973640442 0.3269043564796448
vn -0.8140679597854614 0.04316630959510803 -0.579163134098053
vn -0.985583484172821 0.04681628569960594 -0.16258376836776733
vn -0.6900374293327332 0.056841447949409485 -0.7215381264686584
vn 0.09841868281364441 -0.16848117113113403 0.980779230594635
vn 0.8950771689414978 -0.18351921439170837 0.40639591217041016
vn -0.6115582585334778 -0.08436782658100128 0.7866883277893066
vn -0.9316638112068176 0.0011053252965211868 0.363319993019104
vn 0.7603858113288879 -0.050125207751989365 -0.6475345492362976
vn -0.30907636880874634 -0.010086284019052982 -0.9509837031364441
vn 0.5071988105773926 0.4474259912967682 0.7365862131118774
vn 0.7954769134521484 0.5009633302688599 0.34095773100852966
vn 0.9398114681243896 0.3396042287349701 0.0377265103161335
vn 0.9504280090332031 0.231426402926445 0.2076740860939026
vn 0.9925889372825623 0.12133714556694031 -0.006665007211267948
vn -0.16796550154685974 0.10273996740579605 0.9804243445396423
vn -0.9058994054794312 -0.3246023952960968 0.2719917893409729
vn -0.6252000331878662 -0.35766568779945374 0.6936858892440796
vn -0.8765277862548828 -0.2705437242984772 -0.39812710881233215
vn -0.8408041596412659 -0.2655892074108124 -0.47171053290367126
vn -0.9913465976715088 -0.0382474847137928 0.1255745142698288
vn -0.834017276763916 -0.46313366293907166 0.29987066984176636
vn -0.7689557671546936 0.3672451972961426 -0.5232954025268555
vn -0.6172640323638916 -0.6599907279014587 -0.4282490611076355
vn -0.6744919419288635 -0.7376673221588135 0.030124057084321976
vn 0.9073522090911865 0.38739678263664246 -0.1632044017314911
vn 0.8336031436920166 0.14742673933506012 -0.5323261618614197
vn 0.9153316020965576 -0.1692415326833725 -0.36541110277175903
vn 0.9739540219306946 -0.1997596174478531 -0.1072835847735405
vn 0.9881188273429871 0.09084247797727585 -0.12397162616252899
vn 0.7293484807014465 0.5181625485420227 -0.44671958684921265
vn 0.14197126030921936 0.7449523210525513 -0.6518359780311584
vn 0.8217383027076721 0.29201871156692505 0.4893580377101898
vn 0.8129935264587402 0.48933565616607666 0.3155822455883026
vn -0.9430614113807678 0.019309058785438538 -0.332057923078537
vn 0.14913402497768402 -0.2015407234430313 0.9680601358413696
vn -0.27055829763412476 -0.2542262673377991 0.9285295009613037
vn 0.6064963936805725 -0.018354030326008797 0.7948744297027588
vn 0.757810115814209 -0.11065240204334259 -0.6430239677429199
vn 0.934063732624054 -0.35297372937202454 0.05417172983288765
vn 0.8760292530059814 -0.20705804228782654 0.4355452060699463
vn 0.9665369391441345 -0.03895087167620659 0.2535529136657715
vn -0.6360712647438049 -0.27024030685424805 0.7227609753608704
vn -0.8493466377258301 -0.11845730245113373 0.5143716931343079
vn -0.9402408003807068 -0.046355001628398895 0.3373403251171112
vn -0.9841260313987732 -0.02191687375307083 0.17611254751682281
vn -0.1632220298051834 -0.06251436471939087 -0.9846068024635315
vn -0.8350836038589478 -0.04769662767648697 -0.5480514168739319
vn 0.5706720948219299 0.2578916549682617 0.779631495475769
vn 0.42093122005462646 0.14037348330020905 0.8961652517318726
vn 0.7696032524108887 0.6111376881599426 0.18499068915843964
vn 0.6198540925979614 0.7756735682487488 -0.11879158765077591
vn 0.6170275807380676 0.7843371033668518 0.06397083401679993
vn -0.07637427747249603 -0.2306867241859436 0.9700261354446411
vn -0.8504192233085632 -0.5212307572364807 0.07145386189222336
vn -0.9001399278640747 -0.28029894828796387 -0.333437442779541
vn -0.6928554177284241 -0.6870728731155396 0.21882016956806183
vn -0.29798173904418945 -0.6997349858283997 0.6492903828620911
vn -0.4576731026172638 -0.5968600511550903 -0.6590093970298767
vn -0.6325190663337708 -0.22205205261707306 -0.7420327067375183
vn -0.7337784767150879 0.11652331054210663 -0.6693217158317566
vn -0.8521538376808167 0.05723125860095024 0.5201521515846252
vn -0.8424237370491028 -0.28436943888664246 0.45766395330429077
vn -0.8144955635070801 0.3838346600532532 -0.4350493550300598
vn -0.9941861033439636 -0.018963905051350594 0.10599227249622345
vn -0.9988117218017578 0.04864586144685745 0.0029391946736723185
vn -0.8242392539978027 -0.09624870121479034 0.5580015182495117
vn -0.703760027885437 -0.3080509901046753 0.6401768922805786
vn -0.4984600245952606 -0.8238900899887085 -0.2697087228298187
vn -0.9174280762672424 -0.30415254831314087 -0.25654786825180054
vn -0.9764330983161926 -0.2025212198495865 -0.07458925992250443
vn 0.6248718500137329 0.6412503123283386 -0.44534629583358765
vn 0.7454216480255127 0.6614841818809509 -0.08237279206514359
vn 0.7369704842567444 0.18114914000034332 -0.6511984467506409
vn 0.8994045853614807 0.36145251989364624 -0.24581187963485718
vn 0.9797778725624084 -0.10436037182807922 0.17071694135665894
vn 0.942315399646759 0.3222547769546509 0.09051857143640518
vn 0.8722661733627319 0.15847042202949524 0.46264350414276123
vn 0.7475470304489136 0.5877132415771484 -0.30946189165115356
vn 0.3804444372653961 0.5135138034820557 -0.7691330909729004
vn 0.9120774865150452 0.01478540524840355 -0.4097509980201721
vn 0.7155682444572449 0.33145231008529663 -0.6148995757102966
vn 0.7873849272727966 0.1816292554140091 -0.5890974998474121
vn -0.20326003432273865 0.5640984177589417 -0.800298810005188
vn 0.29737475514411926 0.34652483463287354 0.8896565437316895
vn -0.4217660427093506 -0.10145040601491928 0.9010111689567566
vn -0.009567095898091793 0.1659664660692215 0.9860849976539612
vn -0.47779136896133423 -0.3400881886482239 0.8099725246429443
vn 0.5827531218528748 0.47797200083732605 0.6572226285934448
vn 0.9299322962760925 0.18146365880966187 0.31983885169029236
vn 0.7484604120254517 0.2833361327648163 0.5996062755584717
vn 0.6248679757118225 -0.2534314692020416 -0.7384527921676636
vn 0.7880563735961914 -0.3778652250766754 -0.4859887659549713
vn 0.8604212999343872 -0.5093181729316711 -0.016438797116279602
vn 0.7613480687141418 -0.5052110552787781 0.40633830428123474
vn 0.7754796743392944 0.15924803912639618 0.6109593510627747
vn 0.805921196937561 -0.03410803899168968 0.5910394191741943
vn 0.8502084612846375 -0.45050883293151855 0.27237364649772644
vn 0.9782475233078003 0.20687253773212433 -0.015344749204814434
vn -0.8828125 -0.302013099193573 0.3597640097141266
vn -0.9781287312507629 -0.18142805993556976 -0.10172585397958755
vn -0.9416269659996033 -0.11154910922050476 -0.3176405131816864
vn -0.6352941393852234 -0.15764962136745453 -0.7560079097747803
vn -0.08003199100494385 -0.2447776198387146 -0.9662705659866333
vn 0.42685896158218384 0.4173266291618347 0.802265465259552
vn 0.5155665278434753 -0.3057585656642914 0.8004392385482788
vn 0.5801387429237366 -0.1067696139216423 0.8074895143508911
vn 0.5308557152748108 -0.16749431192874908 0.8307453393936157
vn 0.5099659562110901 0.7032830715179443 0.4953056573867798
vn 0.5149631500244141 0.8550704121589661 0.060560546815395355
vn 0.4778042435646057 0.8782215714454651 0.020739061757922173
vn 0.3259464204311371 0.888093888759613 -0.3241114318370819
vn 0.41326087713241577 0.8329449892044067 0.36799195408821106
vn 0.3956277668476105 0.8894185423851013 0.2289394736289978
vn 0.5123822093009949 0.8178912997245789 -0.2617602050304413
vn -0.009134262800216675 -0.5414209365844727 0.8407021164894104
vn -0.919434666633606 -0.2693873643875122 -0.286479115486145
vn -0.7621376514434814 -0.6258671283721924 -0.16563962399959564
vn -0.5065422058105469 -0.8434845209121704 0.17874228954315186
vn 0.2564895749092102 -0.5129798054695129 0.8191854953765869
vn 0.10777213424444199 -0.8823267221450806 0.4581318497657776
vn 0.10560587048530579 -0.7077949643135071 0.6984795928001404
vn -0.21451035141944885 -0.9266828894615173 0.30861636996269226
vn -0.5390968322753906 -0.6895527243614197 -0.48362335562705994
vn -0.7603979110717773 0.2605327069759369 -0.5949099063873291
vn -0.8395054936408997 0.40608203411102295 -0.3610095679759979
vn -0.9241678714752197 0.19214846193790436 -0.3301403820514679
vn -0.6768918633460999 0.2972962558269501 0.6733738780021667
vn -0.8684378266334534 0.3341914415359497 0.36624008417129517
vn -0.690005898475647 0.133665531873703 -0.7113545536994934
vn -0.9425508379936218 -0.17564977705478668 -0.2841566801071167
vn -0.9092798233032227 -0.4158097207546234 0.01767890900373459
vn -0.978199303150177 -0.1712665557861328 0.11744698137044907
vn -0.9282407760620117 0.3700486421585083 -0.03785295784473419
vn -0.7333030700683594 0.6603353023529053 0.16193756461143494
vn -0.7389081120491028 0.5134196281433105 0.4363657236099243
vn -0.6263735294342041 0.33824092149734497 0.7023171782493591
vn 0.5856974124908447 0.6109755039215088 -0.5326045155525208
vn 0.742889404296875 0.6471524834632874 -0.17119848728179932
vn 0.5519285202026367 0.8338906764984131 -0.0010711571667343378
vn 0.8336613178253174 0.4478546380996704 -0.3231639564037323
vn 0.9628261923789978 0.18372951447963715 -0.19801340997219086
vn 0.7629016041755676 0.5828259587287903 0.27981239557266235
vn 0.692442774772644 0.635594367980957 0.34138360619544983
vn 0.7200379967689514 0.6906211972236633 0.06773196905851364
vn 0.9384573101997375 0.34103575348854065 -0.05470452085137367
vn 0.8181508779525757 0.38649487495422363 -0.4257355034351349
vn 0.5594983696937561 0.29622453451156616 -0.7740882635116577
vn 0.38684022426605225 0.28832197189331055 -0.8759138584136963
vn -0.21380290389060974 0.1371767818927765 -0.9671974778175354
vn 0.34820663928985596 -0.11255322396755219 -0.9306362867355347
vn 0.8244462013244629 -0.2987728714942932 -0.48064878582954407
vn 0.7140223979949951 -0.016679542139172554 -0.699924111366272
vn 0.885565996170044 -0.2204456478357315 -0.40887224674224854
vn -0.23855382204055786 0.6050247550010681 0.7596296072006226
vn -0.016241056844592094 0.6836408376693726 0.7296379208564758
vn -0.31807050108909607 0.28583863377571106 0.9039509892463684
vn -0.5918764472007751 0.4360388219356537 0.6779029369354248
vn -0.8238822817802429 0.11674869060516357 0.5546060800552368
vn -0.8292829990386963 -0.2929995059967041 0.475858211517334
vn 0.09026249498128891 0.7803399562835693 0.6188070774078369
vn 0.6383304595947266 0.6809999942779541 0.35884982347488403
vn 0.23193000257015228 0.9088760614395142 0.3466305434703827
vn 0.8535382747650146 0.4998217821121216 0.14714154601097107
vn 0.36846375465393066 -0.4517115652561188 -0.8125214576721191
vn 0.554837703704834 -0.677173912525177 -0.4833122789859772
vn 0.7128456830978394 -0.39399224519729614 -0.5801906585693359
vn 0.7397053241729736 0.08925090730190277 -0.6669859886169434
vn 0.985590934753418 -0.10013093054294586 -0.1363239288330078
vn 0.8692425489425659 0.2355242669582367 -0.43467894196510315
vn 0.865662157535553 0.4541568458080292 0.21064317226409912
vn 0.7650428414344788 0.46402040123939514 0.4465361535549164
vn 0.7383725643157959 0.29193785786628723 0.6079294085502625
vn 0.9597586393356323 0.27899837493896484 0.031989503651857376
vn -0.8636166453361511 -0.48157966136932373 0.1491554081439972
vn -0.9714528322219849 -0.2162962406873703 0.09744399785995483
vn -0.8410727977752686 -0.524658739566803 -0.1316429078578949
vn -0.6673221588134766 -0.4720982313156128 -0.57602459192276
vn -0.6725803017616272 -0.28933462500572205 -0.6811176538467407
vn 0.07832487672567368 -0.43416300415992737 -0.8974227905273438
vn -0.2763005197048187 -0.5274705290794373 -0.8033884167671204
vn 0.49157223105430603 0.8208471536636353 0.29080358147621155
vn 0.7136927843093872 0.4673101305961609 0.5217888951301575
vn 0.813218355178833 -0.06011529266834259 0.5788455605506897
vn 0.8893933296203613 -0.4061061143875122 0.20989824831485748
vn 0.678241491317749 -0.6889998316764832 0.25547537207603455
vn 0.39992010593414307 -0.5977238416671753 0.6948310136795044
vn 0.7916244268417358 0.6109221577644348 -0.010238762944936752
vn 0.6193101406097412 0.7058691382408142 -0.3438078463077545
vn -0.9918462634086609 -0.1274401992559433 0.0001942355593200773
vn -0.7063939571380615 -0.6950183510780334 0.13400423526763916
vn -0.7920669317245483 -0.5926625728607178 -0.14622226357460022
vn -0.3314887583255768 -0.9426936507225037 0.03800090402364731
vn 0.38745152950286865 -0.8119364976882935 0.4366239011287689
vn 0.5042067766189575 -0.8631279468536377 0.028029516339302063
vn 0.14332304894924164 -0.9888282418251038 0.04095388203859329
vn -0.5572936534881592 0.6230344772338867 0.5488641858100891
vn -0.9245105981826782 -0.22475148737430573 0.3078422546386719
vn -0.4577154517173767 -0.18995758891105652 -0.8685692548751831
vn -0.6634286642074585 -0.6559075713157654 -0.36006635427474976
vn -0.6278128623962402 -0.7783139944076538 0.008845746517181396
vn -0.8372329473495483 -0.5169816017150879 -0.17824451625347137
vn -0.9730184674263 -0.22765330970287323 -0.0375351645052433
vn 0.9515550136566162 0.2963179647922516 -0.08209045231342316
vn 0.8963239789009094 -0.26261359453201294 -0.35726362466812134
vn 0.8730190396308899 0.3088372051715851 -0.3774350583553314
vn 0.8877555131912231 -0.457414448261261 0.05159594491124153
vn 0.9962140917778015 -0.04383460059762001 -0.07507343590259552
vn 0.9774203896522522 -0.20474305748939514 -0.052245888859033585
vn 0.8619939684867859 0.02976658195257187 -0.5060438513755798
vn 0.3341014087200165 -0.013090611435472965 -0.942446231842041
vn 0.5400463342666626 -0.17636117339134216 -0.8229500651359558
vn -0.02427108772099018 -0.1695067435503006 -0.9852300882339478
vn 0.3430793583393097 -0.6110033392906189 -0.7134222984313965
vn -0.05894003435969353 -0.3707727789878845 -0.9268515110015869
vn 0.6083884239196777 -0.70654296875 -0.36147013306617737
vn 0.6953661441802979 -0.6598292589187622 -0.28476524353027344
vn -0.4330001473426819 0.6053379774093628 0.6678898930549622
vn -0.39158323407173157 0.7593230605125427 0.5197030305862427
vn -0.7513321042060852 0.5581996440887451 0.35201290249824524
vn -0.5090183019638062 0.8011354804039001 0.31477341055870056
vn -0.8891155123710632 0.36059999465942383 0.2818533480167389
vn -0.9331416487693787 -0.044180840253829956 0.35678404569625854
vn -0.8787005543708801 -0.3066479563713074 0.3658582270145416
vn 0.6104543209075928 0.7877338528633118 0.08258882910013199
vn 0.24014021456241608 0.9231358766555786 0.3002549111843109
vn -0.1759302020072937 0.8280243873596191 0.5323758721351624
vn 0.3989913761615753 0.9115840792655945 0.099098339676857
vn 0.1380981206893921 -0.7529947757720947 -0.6433721780776978
vn 0.38221871852874756 -0.8163903951644897 -0.4329153001308441
vn 0.6123301982879639 -0.6219719052314758 -0.4880601167678833
vn 0.6102811694145203 -0.19406980276107788 -0.7680454850196838
vn 0.7201145887374878 0.48779064416885376 -0.4934524595737457
vn 0.3979542553424835 0.09065094590187073 -0.9129155874252319
vn 0.4079718589782715 0.42637205123901367 -0.8073201775550842
vn 0.7209106683731079 0.6831254959106445 -0.11673591285943985
vn 0.5967069864273071 0.7607190608978271 0.2554352879524231
vn 0.686394453048706 0.6939918398857117 0.2173430472612381
vn 0.8096181154251099 0.48097944259643555 0.33641842007637024
vn -0.911224901676178 -0.3947508633136749 0.11764742434024811
vn -0.6167786717414856 -0.5630284547805786 -0.5500755310058594
vn -0.5415591597557068 -0.6701568365097046 -0.5075464248657227
vn -0.8365864753723145 -0.4495982229709625 -0.31302475929260254
vn -0.1510666310787201 -0.7616868019104004 -0.6300889849662781
vn 0.9683933854103088 0.22821733355522156 0.10065414756536484
vn 0.982029378414154 -0.1512143313884735 0.11292678117752075
vn 0.8253361582756042 -0.5390552282333374 -0.16804669797420502
vn -0.41232171654701233 -0.7840465903282166 0.4639630913734436
vn -0.0395645834505558 -0.9774556159973145 0.20740102231502533
vn 0.40958577394485474 -0.9071974754333496 -0.09608433395624161
vn -0.8074644207954407 -0.46426689624786377 0.36394718289375305
vn -0.28544825315475464 -0.958387553691864 -0.00354911875911057
vn -0.13865827023983002 -0.8627752065658569 -0.48620256781578064
vn -0.26018163561820984 -0.9651387929916382 0.028505666181445122
vn -0.5676160454750061 -0.7748401165008545 -0.27827122807502747
vn -0.6441463232040405 -0.4691747725009918 -0.6041113138198853
vn -0.8852917551994324 -0.36302971839904785 -0.2906337082386017
vn 0.9622962474822998 -0.035554297268390656 -0.2696699798107147
vn 0.44121548533439636 -0.8496826887130737 0.2887357473373413
vn 0.7675542831420898 -0.6403400897979736 0.028723489493131638
vn 0.6590553522109985 -0.25356149673461914 -0.7080625891685486
vn 0.6086958050727844 -0.5407089591026306 -0.580623209476471
vn 0.08530903607606888 -0.3127076327800751 -0.9460107088088989
vn 0.02718925289809704 -0.3225991427898407 -0.9461451172828674
vn 0.12626753747463226 -0.8483000993728638 -0.5142405033111572
vn 0.13414983451366425 -0.9809265732765198 -0.14066551625728607
vn 0.10322831571102142 -0.9938873648643494 -0.0391363799571991
vn -0.7943174242973328 0.569608211517334 -0.21120202541351318
vn -0.18696415424346924 0.8774778842926025 0.44167524576187134
vn -0.2080489993095398 0.975985050201416 0.06456711888313293
vn -0.37786319851875305 0.8281245827674866 -0.41404008865356445
vn -0.9638510942459106 0.25420841574668884 0.07980602234601974
vn -0.9997606873512268 -0.020417852327227592 -0.007865017279982567
vn 0.19246509671211243 0.9162399768829346 0.35137081146240234
vn -0.17159295082092285 -0.7616722583770752 -0.6248288154602051
vn 0.025285614654421806 -0.7797161340713501 -0.6256223917007446
vn 0.3111366331577301 -0.651242196559906 -0.6921542882919312
vn 0.26803749799728394 -0.24621601402759552 -0.9314148426055908
vn 0.22191789746284485 0.7759271264076233 -0.5904994010925293
vn -0.12158522754907608 0.1848970353603363 -0.9752077460289001
vn 0.0956728458404541 0.5194218754768372 -0.849145233631134
vn 0.17036055028438568 0.978141725063324 -0.11923155933618546
vn -0.9129425883293152 0.07644568383693695 -0.4008636474609375
vn -0.38584280014038086 -0.4101956784725189 -0.8263564109802246
vn -0.7015204429626465 0.013668594881892204 -0.7125183343887329
vn -0.4847058951854706 -0.1064714789390564 -0.8681727647781372
vn -0.3420735001564026 -0.8602492213249207 0.37809646129608154
vn 0.00047751879901625216 -0.9089056849479675 0.4170014262199402
vn -0.725536048412323 -0.6848933696746826 0.06721969693899155
vn -0.4312935471534729 -0.7600435614585876 -0.48612716794013977
vn -0.5242542624473572 -0.7763047218322754 -0.3500122129917145
vn -0.22659708559513092 -0.6435009241104126 -0.7311362028121948
vn -0.3286508321762085 -0.5210573673248291 -0.7877105474472046
vn 0.4538125693798065 -0.885066568851471 0.10349498689174652
vn 0.03837301582098007 -0.9883272051811218 0.14743447303771973
vn 0.29459428787231445 -0.8279948234558105 -0.47711503505706787
vn -0.9391242265701294 0.2639513611793518 -0.21994391083717346
vn -0.6120156645774841 0.3964264690876007 -0.6843118667602539
vn -0.20353473722934723 0.572943389415741 -0.7939202785491943
vn -0.08725683391094208 -0.28958460688591003 -0.9531668424606323
f 1//1 2//2 3//3
f 1//1 3//3 4//4
f 5//5 1//1 6//6
f 2//2 1//1 5//5
f 7//7 1//1 4//4
f 8//8 1//1 7//7
f 1//1 8//8 6//6
f 9//9 2//2 10//10
f 11//11 3//3 2//2
f 2//2 12//12 11//11
f 9//9 13//13 2//2
f 12//12 2//2 13//13
f 5//5 10//10 2//2
f 14//14 15//15 3//3
f 11//11 14//14 3//3
f 15//15 4//4 3//3
f 16//16 7//7 4//4
f 16//16 4//4 15//15
f 17//17 10//10 5//5
f 18//18 19//19 5//5
f 18//18 5//5 6//6
f 19//19 17//17 5//5
f 18//18 6//6 20//20
f 20//20 6//6 8//8
f 16//16 21//21 7//7
f 7//7 21//21 8//8
f 22//22 8//8 21//21
f 8//8 22//22 23//23
f 20//20 8//8 23//23
f 21//21 9//9 17//17
f 9//9 24//24 13//13
f 9//9 10//10 17//17
f 24//24 9//9 25//25
f 25//25 9//9 21//21
f 11//11 26//26 27//27
f 14//14 11//11 27//27
f 11//11 12//12 28//28
f 26//26 11//11 28//28
f 13//13 29//29 12//12
f 12//12 29//29 28//28
f 30//30 13//13 31//31
f 32//32 29//29 13//13
f 32//32 13//13 33//33
f 30//30 33//33 13//13
f 34//34 13//13 24//24
f 34//34 31//31 13//13
f 15//15 14//14 27//27
f 21//21 15//15 25//25
f 15//15 35//35 36//36
f 16//16 15//15 21//21
f 37//37 15//15 38//38
f 39//39 38//38 15//15
f 25//25 15//15 37//37
f 36//36 39//39 15//15
f 15//15 40//40 41//41
f 35//35 15//15 41//41
f 27//27 40//40 15//15
f 17//17 19//19 42//42
f 17//17 42//42 21//21
f 20//20 19//19 18//18
f 19//19 20//20 43//43
f 44//44 42//42 19//19
f 44//44 19//19 43//43
f 45//45 20//20 46//46
f 45//45 47//47 20//20
f 20//20 47//47 48//48
f 48//48 43//43 20//20
f 23//23 46//46 20//20
f 44//44 21//21 42//42
f 22//22 21//21 44//44
f 49//49 22//22 50//50
f 49//49 23//23 22//22
f 50//50 22//22 44//44
f 46//46 23//23 49//49
f 37//37 24//24 25//25
f 37//37 34//34 24//24
f 28//28 51//51 26//26
f 52//52 26//26 51//51
f 26//26 52//52 53//53
f 53//53 27//27 26//26
f 40//40 27//27 54//54
f 55//55 54//54 27//27
f 53//53 55//55 27//27
f 56//56 28//28 29//29
f 56//56 51//51 28//28
f 29//29 57//57 58//58
f 58//58 56//56 29//29
f 32//32 59//59 29//29
f 57//57 29//29 60//60
f 59//59 60//60 29//29
f 61//61 62//62 30//30
f 62//62 33//33 30//30
f 31//31 63//63 30//30
f 30//30 63//63 61//61
f 38//38 63//63 31//31
f 34//34 38//38 31//31
f 64//64 32//32 33//33
f 32//32 64//64 59//59
f 33//33 65//65 64//64
f 65//65 33//33 62//62
f 34//34 37//37 38//38
f 35//35 66//66 67//67
f 68//68 36//36 35//35
f 67//67 68//68 35//35
f 35//35 41//41 66//66
f 69//69 39//39 36//36
f 36//36 68//68 69//69
f 39//39 70//70 38//38
f 71//71 38//38 70//70
f 71//71 72//72 38//38
f 72//72 63//63 38//38
f 69//69 70//70 39//39
f 73//73 41//41 40//40
f 73//73 40//40 54//54
f 66//66 41//41 74//74
f 74//74 41//41 73//73
f 43//43 75//75 50//50
f 43//43 48//48 75//75
f 50//50 44//44 43//43
f 45//45 76//76 77//77
f 45//45 77//77 47//47
f 76//76 45//45 46//46
f 46//46 78//78 76//76
f 49//49 79//79 46//46
f 79//79 80//80 46//46
f 46//46 80//80 81//81
f 81//81 82//82 46//46
f 82//82 78//78 46//46
f 47//47 77//77 83//83
f 47//47 83//83 84//84
f 85//85 47//47 84//84
f 85//85 86//86 47//47
f 48//48 47//47 86//86
f 86//86 75//75 48//48
f 79//79 49//49 50//50
f 87//87 50//50 88//88
f 50//50 75//75 88//88
f 87//87 79//79 50//50
f 89//89 51//51 90//90
f 51//51 56//56 90//90
f 89//89 52//52 51//51
f 91//91 52//52 89//89
f 91//91 53//53 52//52
f 53//53 91//91 92//92
f 53//53 92//92 55//55
f 93//93 73//73 54//54
f 55//55 92//92 54//54
f 93//93 54//54 92//92
f 94//94 56//56 58//58
f 56//56 94//94 90//90
f 95//95 58//58 57//57
f 96//96 57//57 60//60
f 95//95 57//57 96//96
f 97//97 98//98 58//58
f 58//58 98//98 94//94
f 95//95 97//97 58//58
f 60//60 59//59 99//99
f 99//99 59//59 64//64
f 60//60 99//99 100//100
f 60//60 100//100 101//101
f 60//60 101//101 96//96
f 102//102 103//103 61//61
f 103//103 62//62 61//61
f 63//63 104//104 61//61
f 105//105 61//61 104//104
f 61//61 105//105 102//102
f 65//65 62//62 106//106
f 107//107 106//106 62//62
f 108//108 107//107 62//62
f 62//62 103//103 108//108
f 72//72 104//104 63//63
f 64//64 109//109 99//99
f 64//64 65//65 109//109
f 110//110 109//109 65//65
f 111//111 110//110 65//65
f 106//106 111//111 65//65
f 112//112 67//67 66//66
f 113//113 112//112 66//66
f 113//113 66//66 74//74
f 67//67 114//114 68//68
f 114//114 67//67 112//112
f 115//115 69//69 68//68
f 68//68 114//114 115//115
f 116//116 70//70 69//69
f 116//116 69//69 115//115
f 71//71 70//70 117//117
f 117//117 70//70 118//118
f 116//116 118//118 70//70
f 119//119 71//71 117//117
f 71//71 120//120 72//72
f 121//121 71//71 122//122
f 119//119 122//122 71//71
f 121//121 123//123 71//71
f 120//120 71//71 123//123
f 124//124 72//72 120//120
f 72//72 124//124 104//104
f 74//74 73//73 93//93
f 113//113 74//74 93//93
f 88//88 75//75 86//86
f 78//78 125//125 76//76
f 126//126 76//76 127//127
f 127//127 76//76 125//125
f 76//76 126//126 128//128
f 128//128 77//77 76//76
f 128//128 83//83 77//77
f 125//125 78//78 129//129
f 130//130 78//78 82//82
f 78//78 130//130 131//131
f 78//78 131//131 129//129
f 132//132 79//79 87//87
f 80//80 79//79 132//132
f 132//132 133//133 80//80
f 134//134 135//135 80//80
f 80//80 133//133 134//134
f 135//135 81//81 80//80
f 136//136 81//81 137//137
f 81//81 135//135 138//138
f 137//137 81//81 138//138
f 136//136 139//139 81//81
f 81//81 139//139 82//82
f 130//130 82//82 139//139
f 83//83 128//128 140//140
f 140//140 84//84 83//83
f 84//84 140//140 141//141
f 85//85 84//84 141//141
f 85//85 141//141 142//142
f 142//142 86//86 85//85
f 142//142 88//88 86//86
f 143//143 87//87 88//88
f 87//87 144//144 132//132
f 87//87 143//143 144//144
f 143//143 88//88 142//142
f 145//145 89//89 146//146
f 89//89 147//147 146//146
f 148//148 147//147 89//89
f 89//89 90//90 148//148
f 149//149 91//91 89//89
f 145//145 149//149 89//89
f 94//94 148//148 90//90
f 91//91 150//150 92//92
f 150//150 91//91 149//149
f 92//92 151//151 152//152
f 93//93 92//92 152//152
f 151//151 92//92 153//153
f 154//154 153//153 92//92
f 154//154 92//92 150//150
f 93//93 152//152 155//155
f 155//155 113//113 93//93
f 94//94 98//98 156//156
f 94//94 156//156 148//148
f 157//157 97//97 95//95
f 95//95 96//96 157//157
f 96//96 101//101 157//157
f 158//158 97//97 157//157
f 97//97 158//158 159//159
f 98//98 97//97 159//159
f 160//160 156//156 98//98
f 98//98 161//161 162//162
f 98//98 163//163 161//161
f 98//98 159//159 163//163
f 160//160 98//98 162//162
f 164//164 99//99 109//109
f 164//164 100//100 99//99
f 165//165 100//100 110//110
f 110//110 100//100 164//164
f 100//100 165//165 101//101
f 165//165 166//166 101//101
f 167//167 101//101 166//166
f 167//167 157//157 101//101
f 102//102 108//108 103//103
f 168//168 108//108 102//102
f 102//102 169//169 168//168
f 105//105 169//169 102//102
f 170//170 171//171 104//104
f 171//171 105//105 104//104
f 124//124 170//170 104//104
f 105//105 171//171 172//172
f 169//169 105//105 173//173
f 173//173 105//105 172//172
f 174//174 166//166 106//106
f 111//111 106//106 166//166
f 175//175 106//106 176//176
f 107//107 176//176 106//106
f 174//174 106//106 175//175
f 177//177 107//107 168//168
f 108//108 168//168 107//107
f 176//176 107//107 177//177
f 110//110 164//164 109//109
f 165//165 110//110 166//166
f 110//110 111//111 166//166
f 114//114 112//112 178//178
f 112//112 179//179 180//180
f 115//115 178//178 112//112
f 115//115 112//112 180//180
f 179//179 112//112 113//113
f 113//113 181//181 182//182
f 155//155 181//181 113//113
f 113//113 182//182 179//179
f 115//115 114//114 178//178
f 183//183 116//116 115//115
f 180//180 183//183 115//115
f 183//183 118//118 116//116
f 184//184 119//119 117//117
f 118//118 184//184 117//117
f 118//118 183//183 184//184
f 185//185 186//186 119//119
f 186//186 187//187 119//119
f 188//188 119//119 187//187
f 122//122 119//119 189//189
f 188//188 189//189 119//119
f 119//119 184//184 185//185
f 124//124 120//120 190//190
f 191//191 120//120 123//123
f 191//191 190//190 120//120
f 123//123 121//121 192//192
f 121//121 193//193 194//194
f 194//194 192//192 121//121
f 193//193 121//121 122//122
f 189//189 193//193 122//122
f 192//192 191//191 123//123
f 190//190 170//170 124//124
f 127//127 125//125 195//195
f 125//125 129//129 196//196
f 196//196 195//195 125//125
f 126//126 127//127 197//197
f 198//198 126//126 197//197
f 126//126 198//198 199//199
f 199//199 200//200 126//126
f 126//126 200//200 128//128
f 127//127 195//195 197//197
f 140//140 128//128 200//200
f 201//201 196//196 129//129
f 129//129 202//202 203//203
f 204//204 202//202 129//129
f 129//129 131//131 204//204
f 203//203 201//201 129//129
f 130//130 204//204 131//131
f 204//204 130//130 139//139
f 144//144 205//205 132//132
f 133//133 132//132 205//205
f 133//133 206//206 207//207
f 205//205 206//206 133//133
f 138//138 134//134 133//133
f 133//133 207//207 208//208
f 138//138 133//133 209//209
f 208//208 210//210 133//133
f 209//209 133//133 210//210
f 135//135 134//134 138//138
f 136//136 211//211 139//139
f 136//136 212//212 211//211
f 213//213 212//212 136//136
f 213//213 136//136 137//137
f 137//137 138//138 209//209
f 209//209 214//214 137//137
f 137//137 214//214 213//213
f 139//139 211//211 204//204
f 200//200 215//215 140//140
f 216//216 140//140 215//215
f 140//140 216//216 141//141
f 217//217 141//141 216//216
f 141//141 217//217 218//218
f 219//219 141//141 218//218
f 142//142 141//141 219//219
f 142//142 219//219 143//143
f 219//219 144//144 143//143
f 205//205 144//144 220//220
f 220//220 144//144 221//221
f 221//221 144//144 219//219
f 222//222 149//149 145//145
f 154//154 145//145 153//153
f 153//153 145//145 223//223
f 223//223 145//145 224//224
f 145//145 146//146 224//224
f 145//145 154//154 222//222
f 225//225 146//146 226//226
f 160//160 227//227 146//146
f 147//147 160//160 146//146
f 227//227 226//226 146//146
f 146//146 225//225 224//224
f 148//148 160//160 147//147
f 156//156 160//160 148//148
f 150//150 149//149 222//222
f 222//222 154//154 150//150
f 151//151 223//223 228//228
f 223//223 151//151 153//153
f 228//228 229//229 151//151
f 152//152 151//151 229//229
f 229//229 155//155 152//152
f 229//229 181//181 155//155
f 157//157 167//167 230//230
f 230//230 231//231 157//157
f 232//232 157//157 231//231
f 158//158 157//157 232//232
f 232//232 159//159 158//158
f 233//233 159//159 232//232
f 233//233 163//163 159//159
f 162//162 227//227 160//160
f 162//162 161//161 234//234
f 234//234 161//161 235//235
f 161//161 236//236 235//235
f 163//163 236//236 161//161
f 162//162 234//234 227//227
f 233//233 236//236 163//163
f 167//167 166//166 174//174
f 230//230 167//167 174//174
f 237//237 168//168 169//169
f 237//237 177//177 168//168
f 175//175 169//169 174//174
f 175//175 237//237 169//169
f 238//238 174//174 169//169
f 238//238 169//169 173//173
f 190//190 239//239 170//170
f 239//239 171//171 170//170
f 172//172 171//171 240//240
f 239//239 240//240 171//171
f 241//241 172//172 240//240
f 172//172 242//242 173//173
f 241//241 242//242 172//172
f 242//242 243//243 173//173
f 173//173 243//243 238//238
f 238//238 230//230 174//174
f 176//176 237//237 175//175
f 176//176 177//177 237//237
f 185//185 180//180 179//179
f 179//179 244//244 185//185
f 182//182 244//244 179//179
f 184//184 183//183 180//180
f 185//185 184//184 180//180
f 182//182 181//181 245//245
f 181//181 246//246 245//245
f 229//229 246//246 181//181
f 182//182 245//245 247//247
f 247//247 248//248 182//182
f 248//248 244//244 182//182
f 244//244 186//186 185//185
f 186//186 244//244 249//249
f 186//186 250//250 187//187
f 186//186 249//249 250//250
f 250//250 188//188 187//187
f 189//189 188//188 251//251
f 251//251 188//188 250//250
f 193//193 189//189 252//252
f 251//251 252//252 189//189
f 190//190 191//191 253//253
f 190//190 253//253 239//239
f 254//254 255//255 191//191
f 253//253 191//191 255//255
f 254//254 191//191 192//192
f 256//256 254//254 192//192
f 192//192 194//194 257//257
f 257//257 256//256 192//192
f 252//252 194//194 193//193
f 257//257 194//194 252//252
f 197//197 195//195 258//258
f 195//195 259//259 258//258
f 195//195 196//196 259//259
f 201//201 259//259 196//196
f 258//258 198//198 197//197
f 259//259 198//198 258//258
f 199//199 198//198 260//260
f 261//261 260//260 198//198
f 198//198 259//259 261//261
f 262//262 263//263 199//199
f 264//264 199//199 263//263
f 260//260 262//262 199//199
f 264//264 200//200 199//199
f 264//264 215//215 200//200
f 201//201 203//203 259//259
f 202//202 265//265 203//203
f 202//202 204//204 265//265
f 266//266 267//267 203//203
f 203//203 267//267 259//259
f 268//268 203//203 265//265
f 203//203 268//268 266//266
f 211//211 265//265 204//204
f 220//220 269//269 205//205
f 205//205 269//269 270//270
f 205//205 270//270 206//206
f 271//271 206//206 270//270
f 207//207 206//206 271//271
f 271//271 272//272 207//207
f 208//208 207//207 272//272
f 208//208 273//273 210//210
f 208//208 272//272 274//274
f 208//208 274//274 275//275
f 273//273 208//208 275//275
f 210//210 214//214 209//209
f 210//210 276//276 214//214
f 210//210 273//273 276//276
f 277//277 278//278 211//211
f 211//211 278//278 265//265
f 277//277 211//211 212//212
f 279//279 276//276 212//212
f 277//277 212//212 276//276
f 213//213 279//279 212//212
f 214//214 279//279 213//213
f 279//279 214//214 276//276
f 215//215 264//264 280//280
f 280//280 217//217 215//215
f 215//215 217//217 216//216
f 217//217 281//281 282//282
f 217//217 280//280 283//283
f 217//217 283//283 281//281
f 218//218 217//217 282//282
f 221//221 218//218 282//282
f 219//219 218//218 221//221
f 220//220 221//221 269//269
f 284//284 269//269 221//221
f 284//284 221//221 282//282
f 228//228 223//223 285//285
f 223//223 224//224 285//285
f 286//286 224//224 225//225
f 285//285 224//224 286//286
f 226//226 287//287 225//225
f 225//225 287//287 286//286
f 234//234 235//235 226//226
f 287//287 226//226 235//235
f 227//227 234//234 226//226
f 285//285 246//246 228//228
f 229//229 228//228 246//246
f 238//238 231//231 230//230
f 238//238 288//288 231//231
f 232//232 231//231 233//233
f 231//231 289//289 233//233
f 231//231 288//288 289//289
f 290//290 233//233 289//289
f 236//236 233//233 290//290
f 290//290 287//287 235//235
f 235//235 236//236 290//290
f 291//291 238//238 243//243
f 238//238 291//291 288//288
f 240//240 239//239 255//255
f 253//253 255//255 239//239
f 240//240 292//292 241//241
f 293//293 240//240 255//255
f 240//240 293//293 292//292
f 294//294 241//241 292//292
f 242//242 241//241 295//295
f 294//294 295//295 241//241
f 242//242 295//295 296//296
f 296//296 243//243 242//242
f 243//243 297//297 291//291
f 297//297 243//243 296//296
f 248//248 249//249 244//244
f 247//247 245//245 290//290
f 298//298 245//245 246//246
f 287//287 245//245 298//298
f 290//290 245//245 287//287
f 246//246 285//285 298//298
f 299//299 247//247 290//290
f 249//249 247//247 300//300
f 299//299 300//300 247//247
f 248//248 247//247 249//249
f 301//301 250//250 249//249
f 300//300 302//302 249//249
f 302//302 301//301 249//249
f 301//301 251//251 250//250
f 303//303 251//251 301//301
f 303//303 304//304 251//251
f 304//304 252//252 251//251
f 304//304 305//305 252//252
f 305//305 257//257 252//252
f 255//255 254//254 293//293
f 293//293 254//254 306//306
f 306//306 254//254 256//256
f 306//306 256//256 257//257
f 307//307 306//306 257//257
f 307//307 257//257 305//305
f 259//259 267//267 261//261
f 262//262 260//260 308//308
f 260//260 261//261 308//308
f 309//309 261//261 267//267
f 309//309 310//310 261//261
f 261//261 310//310 311//311
f 308//308 261//261 311//311
f 262//262 308//308 312//312
f 312//312 263//263 262//262
f 313//313 263//263 312//312
f 280//280 264//264 263//263
f 263//263 313//313 280//280
f 268//268 265//265 278//278
f 267//267 266//266 314//314
f 314//314 266//266 277//277
f 277//277 266//266 268//268
f 267//267 314//314 309//309
f 278//278 277//277 268//268
f 284//284 315//315 269//269
f 269//269 315//315 316//316
f 269//269 316//316 270//270
f 317//317 271//271 270//270
f 317//317 270//270 316//316
f 272//272 271//271 318//318
f 271//271 317//317 318//318
f 272//272 318//318 274//274
f 275//275 319//319 273//273
f 273//273 319//319 276//276
f 320//320 274//274 318//318
f 275//275 274//274 320//320
f 275//275 321//321 319//319
f 275//275 320//320 321//321
f 322//322 276//276 319//319
f 277//277 276//276 322//322
f 277//277 322//322 314//314
f 323//323 280//280 313//313
f 280//280 323//323 283//283
f 315//315 284//284 281//281
f 324//324 315//315 281//281
f 283//283 325//325 281//281
f 326//326 281//281 325//325
f 281//281 284//284 282//282
f 324//324 281//281 326//326
f 325//325 283//283 323//323
f 286//286 298//298 285//285
f 298//298 286//286 287//287
f 288//288 291//291 327//327
f 289//289 288//288 328//328
f 288//288 327//327 328//328
f 289//289 328//328 299//299
f 290//290 289//289 299//299
f 329//329 327//327 291//291
f 297//297 329//329 291//291
f 292//292 293//293 306//306
f 306//306 294//294 292//292
f 305//305 294//294 307//307
f 294//294 306//306 307//307
f 294//294 330//330 295//295
f 330//330 294//294 305//305
f 330//330 296//296 295//295
f 331//331 297//297 296//296
f 332//332 331//331 296//296
f 332//332 296//296 333//333
f 296//296 330//330 333//333
f 331//331 329//329 297//297
f 299//299 334//334 300//300
f 328//328 335//335 299//299
f 299//299 335//335 334//334
f 302//302 300//300 336//336
f 334//334 336//336 300//300
f 301//301 302//302 303//303
f 302//302 336//336 303//303
f 332//332 303//303 336//336
f 304//304 303//303 332//332
f 305//305 304//304 333//333
f 304//304 332//332 333//333
f 330//330 305//305 333//333
f 337//337 308//308 323//323
f 337//337 312//312 308//308
f 338//338 323//323 308//308
f 311//311 338//338 308//308
f 310//310 309//309 314//314
f 310//310 322//322 311//311
f 310//310 314//314 322//322
f 339//339 338//338 311//311
f 311//311 319//319 339//339
f 322//322 319//319 311//311
f 312//312 337//337 313//313
f 313//313 337//337 323//323
f 315//315 324//324 316//316
f 317//317 316//316 340//340
f 340//340 316//316 324//324
f 318//318 317//317 340//340
f 318//318 340//340 320//320
f 319//319 321//321 339//339
f 340//340 326//326 320//320
f 320//320 339//339 321//321
f 338//338 320//320 325//325
f 326//326 325//325 320//320
f 338//338 339//339 320//320
f 323//323 338//338 325//325
f 326//326 340//340 324//324
f 327//327 329//329 331//331
f 327//327 335//335 328//328
f 331//331 335//335 327//327
f 335//335 331//331 332//332
f 332//332 336//336 335//335
f 335//335 336//336 334//334
