# Generated by Visualization Toolkit
v 0.01902499981224537 -0.13516800105571747 -0.024390999227762222
v 0.018743999302387238 -0.13855700194835663 -0.02368899993598461
v 0.017906000837683678 -0.1362909972667694 -0.0231890007853508
v 0.01891399919986725 -0.134443998336792 -0.024174999445676804
v 0.024450000375509262 -0.13671299815177917 -0.025397000834345818
v 0.021550999954342842 -0.13431000709533691 -0.025026999413967133
v 0.017361000180244446 -0.13615599274635315 -0.02133299969136715
v 0.02080100029706955 -0.14105099439620972 -0.023786000907421112
v 0.019680000841617584 -0.14080899953842163 -0.022045999765396118
v 0.012101000174880028 -0.12817400693893433 -0.019541999325156212
v 0.015406999737024307 -0.1322759985923767 -0.02215700037777424
v 0.014782000333070755 -0.12672899663448334 -0.024178000167012215
v 0.016705000773072243 -0.12622599303722382 -0.02403399907052517
v 0.020694000646471977 -0.1335189938545227 -0.023499999195337296
v 0.020570000633597374 -0.1338919997215271 -0.024616999551653862
v 0.02162100002169609 -0.14135600626468658 -0.023896999657154083
v 0.024091999977827072 -0.14031000435352325 -0.024467000737786293
v 0.024654999375343323 -0.1385989934206009 -0.024992000311613083
v 0.024896999821066856 -0.13511499762535095 -0.024563999846577644
v 0.02583100087940693 -0.13730399310588837 -0.02429099939763546
v 0.022622000426054 -0.13360799849033356 -0.02400200068950653
v 0.017875999212265015 -0.13606399297714233 -0.01700899936258793
v 0.018679000437259674 -0.13873699307441711 -0.017635000869631767
v 0.019617000594735146 -0.14054900407791138 -0.019605999812483788
v 0.02131599932909012 -0.14176400005817413 -0.022257000207901
v 0.009298999793827534 -0.12301500141620636 -0.02038699947297573
v 0.01166599988937378 -0.12600499391555786 -0.017302999272942543
v 0.012388999573886395 -0.12122999876737595 -0.024483000859618187
v 0.012138999998569489 -0.11507199704647064 -0.02532999962568283
v 0.014007000252604485 -0.11758799850940704 -0.024222999811172485
v 0.015407999977469444 -0.12053799629211426 -0.023159999400377274
v 0.02132599987089634 -0.13324500620365143 -0.02167999930679798
v 0.02402699925005436 -0.14117099344730377 -0.02313699945807457
v 0.02575399912893772 -0.13830099999904633 -0.024097999557852745
v 0.024862000718712807 -0.14027200639247894 -0.023528000339865685
v 0.0251499991863966 -0.13552899658679962 -0.021984999999403954
v 0.026019999757409096 -0.13759499788284302 -0.021987000480294228
v 0.023182999342679977 -0.1339150071144104 -0.022028999403119087
v 0.007656999863684177 -0.11350700259208679 -0.014293000102043152
v 0.02029000036418438 -0.13896100223064423 -0.015212999656796455
v 0.018720999360084534 -0.13469499349594116 -0.015706000849604607
v 0.02042900025844574 -0.14101600646972656 -0.01608400046825409
v 0.021733000874519348 -0.14217300713062286 -0.017163999378681183
v 0.021424999460577965 -0.14157600700855255 -0.019555000588297844
v 0.023845000192523003 -0.14112700521945953 -0.020448999479413033
v 0.004745999816805124 -0.11291900277137756 -0.016313999891281128
v 0.009170999750494957 -0.11249300092458725 -0.026386000216007233
v 0.003926999866962433 -0.11146999895572662 -0.022659000009298325
v 0.010243000462651253 -0.1123809963464737 -0.026277000084519386
v 0.012527000159025192 -0.10983700305223465 -0.024651000276207924
v 0.012036999687552452 -0.11229400336742401 -0.01600099913775921
v 0.01667499914765358 -0.12300299853086472 -0.02019600011408329
v 0.021250000223517418 -0.1334719955921173 -0.019610000774264336
v 0.02585200034081936 -0.1384429931640625 -0.02176699973642826
v 0.025102000683546066 -0.13678699731826782 -0.019480999559164047
v 0.025383999571204185 -0.13773700594902039 -0.019497999921441078
v 0.0029070000164210796 -0.10632699728012085 -0.01381400041282177
v 0.010925999842584133 -0.11319799721240997 -0.01372199971228838
v 0.009279999881982803 -0.11077599972486496 -0.013129999861121178
v 0.007679999805986881 -0.10874699801206589 -0.012306000106036663
v 0.017625000327825546 -0.12864600121974945 -0.015639999881386757
v 0.022187000140547752 -0.13619600236415863 -0.014120000414550304
v 0.021436000242829323 -0.13645699620246887 -0.014316000044345856
v 0.021608000621199608 -0.14098000526428223 -0.015011999756097794
v 0.024475999176502228 -0.139832004904747 -0.014173000119626522
v 0.024170000106096268 -0.13736100494861603 -0.013868000358343124
v 0.02463199943304062 -0.13813899457454681 -0.013873999938368797
v 0.020313000306487083 -0.13390900194644928 -0.015893999487161636
v 0.02207300066947937 -0.1345759928226471 -0.014888999983668327
v 0.021762000396847725 -0.14200900495052338 -0.015819000080227852
v 0.023739999160170555 -0.14179900288581848 -0.015567000024020672
v 0.023708000779151917 -0.1410129964351654 -0.019658999517560005
v 0.024450000375509262 -0.14024999737739563 -0.019626999273896217
v 0.002022000029683113 -0.10764200240373611 -0.021911999210715294
v 0.0024349999148398638 -0.10790999978780746 -0.015799999237060547
v 0.003498000092804432 -0.10886699706315994 -0.02520200051367283
v 0.0075079998932778835 -0.10758999735116959 -0.028663000091910362
v 0.009959000162780285 -0.10713200271129608 -0.028302999213337898
v 0.010824000462889671 -0.10726899653673172 -0.027563000097870827
v 0.011648000217974186 -0.10184399783611298 -0.02441300079226494
v 0.010762999765574932 -0.10456400364637375 -0.013566000387072563
v 0.010463000275194645 -0.11157800257205963 -0.01360000018030405
v 0.021190999075770378 -0.133432999253273 -0.017330000177025795
v 0.02448900043964386 -0.13542500138282776 -0.016836000606417656
v 0.022644000127911568 -0.13421300053596497 -0.017013000324368477
v 0.025894999504089355 -0.13769200444221497 -0.01709599979221821
v 0.025560999289155006 -0.13987399637699127 -0.017278000712394714
v 0.0017320000333711505 -0.10558000206947327 -0.018893999978899956
v 0.004139000084251165 -0.10395299643278122 -0.012307999655604362
v 0.0023060000967234373 -0.10411600023508072 -0.014897000044584274
v 0.004898999817669392 -0.10334999859333038 -0.012218999676406384
v 0.009007999673485756 -0.10520800203084946 -0.012403000146150589
v 0.024176999926567078 -0.13590799272060394 -0.014576000161468983
v 0.025054000318050385 -0.1402129977941513 -0.014894999563694
v 0.025471000000834465 -0.13809099793434143 -0.014562999829649925
v 0.0017729999963194132 -0.10551399737596512 -0.0213639996945858
v 0.003938999958336353 -0.10360900312662125 -0.026719000190496445
v 0.0043390002101659775 -0.10519800335168839 -0.02730800025165081
v 0.0081599997356534 -0.10505200177431107 -0.028649000450968742
v 0.006752000190317631 -0.1052670031785965 -0.028873000293970108
v 0.010583999566733837 -0.10598400235176086 -0.0278290007263422
v 0.008453000336885452 -0.10138799995183945 -0.014870000071823597
v 0.01013800036162138 -0.1005299985408783 -0.023351000621914864
v 0.009758000262081623 -0.10259900242090225 -0.013867000117897987
v 0.010418999940156937 -0.10239499807357788 -0.02672700025141239
v 0.00796900037676096 -0.10106399655342102 -0.026443000882864
v 0.0035910001024603844 -0.10251999646425247 -0.013458999805152416
v 0.00710699986666441 -0.1022460013628006 -0.018880000337958336
v 0.00520200002938509 -0.10178899765014648 -0.013284999877214432
v 0.007970999926328659 -0.10256099700927734 -0.012860000133514404
v 0.004184000194072723 -0.10245300084352493 -0.02513200044631958
v 0.005843999795615673 -0.10153800249099731 -0.026461999863386154
v 0.006074000149965286 -0.10256999731063843 -0.02795800007879734
v 0.00860000029206276 -0.10266199707984924 -0.02784699946641922
v 0.007162999827414751 -0.10141599923372269 -0.013883999548852444
v 0.007687999866902828 -0.10098099708557129 -0.015699999406933784
vn -0.46169358491897583 -0.015473078936338425 -0.8869044780731201
vn -0.6988328099250793 -0.32755422592163086 -0.6358779668807983
vn -0.8092246651649475 -0.23903831839561462 -0.5366713404655457
vn -0.37393614649772644 0.15406657755374908 -0.914568305015564
vn 0.033893659710884094 -0.07371609658002853 -0.9967031478881836
vn -0.05071835219860077 0.3910747170448303 -0.9189603924751282
vn -0.8990074396133423 -0.43586650490760803 -0.042497046291828156
vn -0.46735718846321106 -0.6057136654853821 -0.6439629197120667
vn -0.7385931015014648 -0.663139820098877 -0.12134940922260284
vn -0.864237368106842 -0.5018832683563232 -0.034741539508104324
vn -0.7242543697357178 -0.3494253158569336 -0.594438910484314
vn -0.3650112748146057 -0.21116569638252258 -0.9067390561103821
vn 0.4656892716884613 0.1382998824119568 -0.8740746974945068
vn 0.28297221660614014 0.7511428594589233 -0.5964152216911316
vn -0.17848101258277893 0.7857820987701416 -0.5921916961669922
vn -0.0746740773320198 -0.7223625183105469 -0.6874709129333496
vn 0.3393597900867462 -0.5429905652999878 -0.7681121230125427
vn 0.4572758674621582 -0.25429973006248474 -0.8521915078163147
vn 0.6162005662918091 0.577668309211731 -0.5353468060493469
vn 0.8865619897842407 0.10769655555486679 -0.44989916682243347
vn 0.28729039430618286 0.9191722869873047 -0.26941895484924316
vn -0.7962832450866699 -0.4248659908771515 0.430606484413147
vn -0.8789673447608948 -0.4021110534667969 0.2563648521900177
vn -0.6996320486068726 -0.7139350175857544 0.028490353375673294
vn -0.19978486001491547 -0.9772149324417114 -0.0716724619269371
vn -0.828244686126709 -0.44566789269447327 -0.33969220519065857
vn -0.7755827307701111 -0.43917012214660645 0.4534326493740082
vn -0.35645928978919983 -0.2696295976638794 -0.8945594429969788
vn 0.3086511194705963 -0.03932248800992966 -0.9503622055053711
vn 0.7274091243743896 0.15965169668197632 -0.6673734188079834
vn 0.8865877985954285 0.3182297348976135 -0.33569613099098206
vn 0.6424552202224731 0.7641320824623108 -0.05790923163294792
vn 0.4059014916419983 -0.8845924139022827 -0.2296523153781891
vn 0.8660343885421753 -0.32177969813346863 -0.3826775550842285
vn 0.7828230261802673 -0.595065176486969 -0.1818944364786148
vn 0.7898156046867371 0.6059633493423462 0.09486660361289978
vn 0.9901459813117981 0.105907142162323 0.09162215888500214
vn 0.5192388892173767 0.8375415205955505 0.17004479467868805
vn -0.3442619740962982 -0.3199373185634613 0.8826799392700195
vn -0.4581149220466614 -0.2231789082288742 0.8604195713996887
vn -0.24291114509105682 0.1307660937309265 0.9611942768096924
vn -0.7207356691360474 -0.5835763216018677 0.37413737177848816
vn -0.2826840877532959 -0.9586383700370789 -0.033196162432432175
vn 0.013565226458013058 -0.9985378384590149 -0.05232815444469452
vn 0.5660831332206726 -0.8174940943717957 0.10608156770467758
vn -0.8297045230865479 -0.44626155495643616 0.3353222608566284
vn -0.27276888489723206 -0.421863317489624 -0.864655077457428
vn -0.8105641603469849 -0.49224597215652466 -0.31730055809020996
vn 0.4044351875782013 -0.2458050698041916 -0.8809154033660889
vn 0.8971146941184998 0.08687011897563934 -0.4331730008125305
vn 0.928001880645752 0.23646238446235657 0.28792038559913635
vn 0.9074908494949341 0.40727725625038147 0.10288580507040024
vn 0.6724651455879211 0.739010751247406 0.04066433012485504
vn 0.9175657033920288 -0.38577568531036377 0.09617890417575836
vn 0.8269805908203125 0.5528395175933838 0.10233030468225479
vn 0.9979020357131958 -0.06472471356391907 0.001488998532295227
vn -0.7634119391441345 -0.24465124309062958 0.5977858901023865
vn 0.4185546040534973 0.007088220678269863 0.9081640839576721
vn 0.1287211924791336 -0.22068287432193756 0.9668142795562744
vn -0.04817929491400719 -0.20790337026119232 0.9769620895385742
vn 0.5778529047966003 0.2136821299791336 0.7876711487770081
vn -0.11830601841211319 0.18216849863529205 0.976124107837677
vn -0.33430272340774536 -0.04170370474457741 0.9415426254272461
vn -0.3774701952934265 -0.42597469687461853 0.82222980260849
vn 0.10852065682411194 -0.41054388880729675 0.9053601026535034
vn 0.06587829440832138 0.11598063260316849 0.9910643696784973
vn 0.385030061006546 -0.006177689880132675 0.9228833317756653
vn 0.28475019335746765 0.6415412425994873 0.7122796177864075
vn 0.17658820748329163 0.7632378935813904 0.6215179562568665
vn -0.24625667929649353 -0.7950640916824341 0.5542839169502258
vn 0.45574718713760376 -0.8806230425834656 0.1296057403087616
vn 0.4966620206832886 -0.8677111864089966 0.020101098343729973
vn 0.807513415813446 -0.5893573760986328 -0.024082306772470474
vn -0.9602639675140381 -0.2425106167793274 -0.13813629746437073
vn -0.938663125038147 -0.2695760130882263 0.21503561735153198
vn -0.7538491487503052 -0.3426363170146942 -0.5606352090835571
vn -0.14251583814620972 -0.28654518723487854 -0.947407603263855
vn 0.41249921917915344 -0.10442947596311569 -0.904952347278595
vn 0.78452467918396 -0.07005161792039871 -0.616128146648407
vn 0.8391475677490234 0.5107821226119995 -0.18690386414527893
vn 0.8577015995979309 0.18218711018562317 0.4807867407798767
vn 0.5656376481056213 -0.018891233950853348 0.8244374990463257
vn 0.7088859677314758 0.6305370330810547 0.3160756230354309
vn 0.6729232668876648 0.7368077039718628 0.065486378967762
vn 0.43180277943611145 0.8822272419929504 0.18767400085926056
vn 0.9627724289894104 0.26981809735298157 0.016354601830244064
vn 0.9166613817214966 -0.39429572224617004 -0.06528981029987335
vn -0.9487461447715759 0.3159901201725006 0.0055619655176997185
vn -0.5646669864654541 0.06213449686765671 0.8229767084121704
vn -0.9206924438476562 0.20699913799762726 0.33087247610092163
vn -0.11383374780416489 0.3131965398788452 0.9428413510322571
vn 0.3423588275909424 0.13401766121387482 0.9299622178077698
vn 0.5736491680145264 0.5358081459999084 0.6195452213287354
vn 0.7557199001312256 -0.41738077998161316 0.5046590566635132
vn 0.8917526602745056 0.05194161832332611 0.4495323896408081
vn -0.8924887776374817 0.44482532143592834 -0.07479432225227356
vn -0.8330577611923218 0.27305352687835693 -0.481099396944046
vn -0.6399527192115784 -0.06297718733549118 -0.7658291459083557
vn 0.2881110608577728 0.15004217624664307 -0.9457692503929138
vn -0.16205264627933502 0.10783227533102036 -0.9808726906776428
vn 0.6729953289031982 0.1480882465839386 -0.7246704697608948
vn 0.4544985890388489 0.8489140868186951 0.26976996660232544
vn 0.04937972128391266 0.9985849857330322 -0.019738251343369484
vn 0.5506832599639893 0.6248477697372437 0.5534557104110718
vn 0.5275686979293823 0.4715864360332489 -0.7065956592559814
vn 0.13807065784931183 0.8527278900146484 -0.5037773847579956
vn -0.6365714073181152 0.7159508466720581 0.2866903245449066
vn -0.49783849716186523 0.8661313056945801 -0.04442127048969269
vn -0.24204474687576294 0.8850153684616089 0.39769595861434937
vn 0.22284945845603943 0.5344371795654297 0.8153006434440613
vn -0.6678311228752136 0.7429565787315369 -0.04491286352276802
vn -0.42353516817092896 0.8800859451293945 -0.2146316021680832
vn -0.31908249855041504 0.49759185314178467 -0.8065907955169678
vn 0.21120189130306244 0.45794638991355896 -0.8635270595550537
vn 0.17730185389518738 0.8649963140487671 0.46940964460372925
vn -0.17216049134731293 0.9837420582771301 0.051110535860061646
f 1//1 2//2 3//3
f 3//3 4//4 1//1
f 5//5 2//2 1//1
f 5//5 1//1 6//6
f 4//4 6//6 1//1
f 7//7 3//3 2//2
f 8//8 2//2 5//5
f 2//2 8//8 9//9
f 9//9 7//7 2//2
f 3//3 7//7 10//10
f 4//4 3//3 11//11
f 10//10 11//11 3//3
f 11//11 12//12 4//4
f 13//13 4//4 12//12
f 4//4 13//13 14//14
f 4//4 14//14 15//15
f 4//4 15//15 6//6
f 5//5 16//16 8//8
f 5//5 17//17 16//16
f 5//5 18//18 17//17
f 19//19 5//5 6//6
f 19//19 20//20 5//5
f 18//18 5//5 20//20
f 6//6 15//15 21//21
f 6//6 21//21 19//19
f 22//22 10//10 7//7
f 23//23 22//22 7//7
f 9//9 24//24 7//7
f 7//7 24//24 23//23
f 25//25 8//8 16//16
f 25//25 9//9 8//8
f 24//24 9//9 25//25
f 26//26 11//11 10//10
f 27//27 26//26 10//10
f 10//10 22//22 27//27
f 12//12 11//11 26//26
f 12//12 26//26 28//28
f 28//28 29//29 12//12
f 12//12 29//29 13//13
f 29//29 30//30 13//13
f 13//13 31//31 14//14
f 13//13 30//30 31//31
f 21//21 15//15 14//14
f 31//31 32//32 14//14
f 32//32 21//21 14//14
f 25//25 16//16 33//33
f 16//16 17//17 33//33
f 18//18 34//34 17//17
f 35//35 33//33 17//17
f 35//35 17//17 34//34
f 20//20 34//34 18//18
f 36//36 20//20 19//19
f 36//36 19//19 21//21
f 20//20 36//36 37//37
f 37//37 34//34 20//20
f 38//38 36//36 21//21
f 21//21 32//32 38//38
f 27//27 22//22 39//39
f 23//23 40//40 22//22
f 39//39 22//22 41//41
f 40//40 23//23 42//42
f 23//23 24//24 42//42
f 42//42 24//24 43//43
f 44//44 24//24 25//25
f 43//43 24//24 44//44
f 33//33 45//45 25//25
f 25//25 45//45 44//44
f 27//27 46//46 26//26
f 47//47 28//28 26//26
f 48//48 47//47 26//26
f 48//48 26//26 46//46
f 39//39 46//46 27//27
f 29//29 28//28 47//47
f 47//47 49//49 29//29
f 29//29 49//49 50//50
f 50//50 30//30 29//29
f 30//30 50//50 31//31
f 31//31 50//50 51//51
f 31//31 51//51 52//52
f 52//52 32//32 31//31
f 53//53 32//32 52//52
f 53//53 38//38 32//32
f 45//45 33//33 35//35
f 54//54 35//35 34//34
f 34//34 37//37 54//54
f 45//45 35//35 54//54
f 38//38 55//55 36//36
f 37//37 36//36 55//55
f 56//56 37//37 55//55
f 56//56 54//54 37//37
f 55//55 38//38 53//53
f 57//57 46//46 39//39
f 58//58 59//59 39//39
f 60//60 57//57 39//39
f 39//39 59//59 60//60
f 41//41 61//61 39//39
f 39//39 61//61 58//58
f 62//62 63//63 40//40
f 40//40 64//64 65//65
f 42//42 64//64 40//40
f 62//62 40//40 66//66
f 66//66 40//40 67//67
f 40//40 65//65 67//67
f 63//63 41//41 40//40
f 41//41 68//68 61//61
f 68//68 41//41 69//69
f 41//41 63//63 62//62
f 41//41 62//62 69//69
f 43//43 70//70 42//42
f 42//42 70//70 64//64
f 43//43 71//71 70//70
f 43//43 44//44 71//71
f 71//71 44//44 72//72
f 44//44 45//45 72//72
f 54//54 73//73 45//45
f 73//73 72//72 45//45
f 48//48 46//46 74//74
f 74//74 46//46 75//75
f 57//57 75//75 46//46
f 48//48 76//76 47//47
f 47//47 77//77 49//49
f 76//76 77//77 47//47
f 48//48 74//74 76//76
f 78//78 49//49 77//77
f 50//50 49//49 79//79
f 79//79 49//49 78//78
f 79//79 80//80 50//50
f 50//50 81//81 51//51
f 50//50 80//80 81//81
f 51//51 58//58 61//61
f 82//82 58//58 51//51
f 61//61 52//52 51//51
f 82//82 51//51 81//81
f 61//61 83//83 52//52
f 53//53 52//52 83//83
f 84//84 55//55 53//53
f 84//84 53//53 85//85
f 53//53 83//83 85//85
f 54//54 56//56 73//73
f 86//86 55//55 84//84
f 55//55 86//86 56//56
f 87//87 73//73 56//56
f 86//86 87//87 56//56
f 88//88 75//75 57//57
f 60//60 89//89 57//57
f 57//57 90//90 88//88
f 90//90 57//57 89//89
f 59//59 58//58 82//82
f 60//60 59//59 82//82
f 89//89 60//60 91//91
f 60//60 82//82 92//92
f 60//60 92//92 91//91
f 83//83 61//61 68//68
f 93//93 62//62 66//66
f 62//62 93//93 69//69
f 70//70 65//65 64//64
f 70//70 71//71 65//65
f 65//65 94//94 67//67
f 65//65 71//71 94//94
f 66//66 67//67 93//93
f 94//94 95//95 67//67
f 67//67 95//95 93//93
f 68//68 85//85 83//83
f 85//85 68//68 69//69
f 84//84 69//69 93//93
f 84//84 85//85 69//69
f 73//73 71//71 72//72
f 73//73 87//87 71//71
f 71//71 87//87 94//94
f 74//74 75//75 88//88
f 74//74 88//88 96//96
f 96//96 97//97 74//74
f 76//76 74//74 97//97
f 98//98 76//76 97//97
f 98//98 77//77 76//76
f 78//78 77//77 99//99
f 77//77 98//98 100//100
f 99//99 77//77 100//100
f 78//78 101//101 79//79
f 101//101 78//78 99//99
f 80//80 79//79 101//101
f 102//102 80//80 103//103
f 80//80 102//102 104//104
f 81//81 80//80 104//104
f 80//80 101//101 105//105
f 106//106 80//80 105//105
f 80//80 106//106 103//103
f 82//82 81//81 92//92
f 104//104 92//92 81//81
f 86//86 84//84 93//93
f 86//86 93//93 95//95
f 86//86 95//95 87//87
f 87//87 95//95 94//94
f 88//88 90//90 107//107
f 88//88 108//108 96//96
f 108//108 88//88 107//107
f 90//90 89//89 107//107
f 91//91 107//107 89//89
f 109//109 107//107 91//91
f 110//110 91//91 92//92
f 110//110 109//109 91//91
f 92//92 104//104 110//110
f 108//108 111//111 96//96
f 97//97 96//96 111//111
f 111//111 112//112 97//97
f 97//97 112//112 113//113
f 98//98 97//97 113//113
f 113//113 100//100 98//98
f 100//100 114//114 99//99
f 99//99 105//105 101//101
f 105//105 99//99 114//114
f 100//100 113//113 114//114
f 102//102 115//115 104//104
f 116//116 102//102 103//103
f 116//116 115//115 102//102
f 112//112 108//108 103//103
f 116//116 103//103 108//108
f 103//103 106//106 112//112
f 115//115 110//110 104//104
f 106//106 105//105 114//114
f 113//113 112//112 106//106
f 113//113 106//106 114//114
f 108//108 107//107 109//109
f 112//112 111//111 108//108
f 108//108 109//109 116//116
f 109//109 110//110 115//115
f 115//115 116//116 109//109
