# Generated by Visualization Toolkit
v 0.04781299829483032 -0.16185499727725983 -0.01660200022161007
v 0.04694699868559837 -0.1622850000858307 -0.015752999112010002
v 0.04605900123715401 -0.16184699535369873 -0.01724899932742119
v 0.047143999487161636 -0.16117799282073975 -0.017455000430345535
v 0.0498570017516613 -0.16255499422550201 -0.01539700012654066
v 0.047793999314308167 -0.16090799868106842 -0.01714799925684929
v 0.048847001045942307 -0.16137200593948364 -0.016445999965071678
v 0.0458189994096756 -0.16208800673484802 -0.016635999083518982
v 0.05016300082206726 -0.1634570062160492 -0.013729999773204327
v 0.0423940010368824 -0.1617880016565323 -0.015568000264465809
v 0.044895000755786896 -0.16197900474071503 -0.0181099995970726
v 0.04439400136470795 -0.16078199446201324 -0.01955600082874298
v 0.04537300020456314 -0.1597059965133667 -0.019447999075055122
v 0.053033001720905304 -0.16442599892616272 -0.013174000196158886
v 0.050415001809597015 -0.16200800240039825 -0.015572000294923782
v 0.051288001239299774 -0.16235099732875824 -0.015443000011146069
v 0.04794500023126602 -0.15994100272655487 -0.01657100021839142
v 0.046018000692129135 -0.15901899337768555 -0.01874700002372265
v 0.048937998712062836 -0.1605370044708252 -0.0156870000064373
v 0.05047700181603432 -0.161421999335289 -0.01496300008147955
v 0.04410000145435333 -0.1621129959821701 -0.0176170002669096
v 0.04251199960708618 -0.16173100471496582 -0.01653899997472763
v 0.052710000425577164 -0.16441099345684052 -0.012590000405907631
v 0.05003799870610237 -0.16328300535678864 -0.011876000091433525
v 0.045754000544548035 -0.16199100017547607 -0.0117790000513196
v 0.04161899909377098 -0.16135400533676147 -0.012268999591469765
v 0.04185599833726883 -0.16157099604606628 -0.014422999694943428
v 0.0441569983959198 -0.1618019938468933 -0.018563000485301018
v 0.044130999594926834 -0.1612659990787506 -0.019206000491976738
v 0.04481400176882744 -0.15946300327777863 -0.019677000120282173
v 0.04370199888944626 -0.16022799909114838 -0.019347000867128372
v 0.04413200169801712 -0.15906700491905212 -0.01926399953663349
v 0.04521000012755394 -0.15853899717330933 -0.01896500028669834
v 0.05243900045752525 -0.16262300312519073 -0.015273000113666058
v 0.05502999946475029 -0.16424299776554108 -0.01409399975091219
v 0.05645599961280823 -0.1647779941558838 -0.0123070003464818
v 0.051624998450279236 -0.16200000047683716 -0.015297999605536461
v 0.04575999826192856 -0.15719300508499146 -0.010652000084519386
v 0.04531199857592583 -0.1576080024242401 -0.01755400002002716
v 0.050255998969078064 -0.16097299754619598 -0.01309099979698658
v 0.043522000312805176 -0.16144999861717224 -0.01862799935042858
v 0.04318699985742569 -0.16064299643039703 -0.014151999726891518
v 0.04399000108242035 -0.15960100293159485 -0.014515000395476818
v 0.05561500042676926 -0.1646440029144287 -0.01075000036507845
v 0.05276000127196312 -0.16387100517749786 -0.011251999996602535
v 0.05112700164318085 -0.1624000072479248 -0.010350000113248825
v 0.04982399940490723 -0.1626559942960739 -0.010870999656617641
v 0.048145998269319534 -0.16140100359916687 -0.010489000007510185
v 0.04677300155162811 -0.16088899970054626 -0.010240999981760979
v 0.04487200081348419 -0.16065099835395813 -0.009956000372767448
v 0.04259800165891647 -0.16064000129699707 -0.010127999819815159
v 0.04233799874782562 -0.16082599759101868 -0.01115499995648861
v 0.043820999562740326 -0.15980400145053864 -0.013629999943077564
v 0.04436599835753441 -0.1583079993724823 -0.015162999741733074
v 0.04418199881911278 -0.15853199362754822 -0.018823999911546707
v 0.04439400136470795 -0.1576559990644455 -0.01771399937570095
v 0.044054001569747925 -0.15755000710487366 -0.016824999824166298
v 0.05269699916243553 -0.16235099732875824 -0.01628899946808815
v 0.05220299959182739 -0.16225799918174744 -0.01566999964416027
v 0.05621799826622009 -0.16472800076007843 -0.014041000045835972
v 0.05581900104880333 -0.16430099308490753 -0.014902999624609947
v 0.05677799880504608 -0.16490299999713898 -0.012701000086963177
v 0.0566370002925396 -0.1648859977722168 -0.011799000203609467
v 0.05777899920940399 -0.16446000337600708 -0.013024999760091305
v 0.05721699818968773 -0.16467900574207306 -0.011714000254869461
v 0.052368998527526855 -0.16168099641799927 -0.01461699977517128
v 0.05167900025844574 -0.16149500012397766 -0.012938999570906162
v 0.052622001618146896 -0.16145800054073334 -0.015468999743461609
v 0.047609999775886536 -0.15974299609661102 -0.010329999960958958
v 0.046105001121759415 -0.1582310050725937 -0.009726000018417835
v 0.045010000467300415 -0.15758800506591797 -0.009424000047147274
v 0.043832000344991684 -0.15726099908351898 -0.00977499969303608
v 0.04382700100541115 -0.15684400498867035 -0.010955000296235085
v 0.0439159981906414 -0.1569570004940033 -0.013647000305354595
v 0.04446699842810631 -0.157382994890213 -0.01719300076365471
v 0.04992299899458885 -0.1614300012588501 -0.01106599997729063
v 0.04427500069141388 -0.15866999328136444 -0.014588999561965466
v 0.04355200007557869 -0.16016900539398193 -0.014154000207781792
v 0.04401100054383278 -0.15911200642585754 -0.014155999757349491
v 0.056088000535964966 -0.1637219935655594 -0.00963400024920702
v 0.05394100025296211 -0.1635890007019043 -0.009530999697744846
v 0.0571650005877018 -0.16428999602794647 -0.010722000151872635
v 0.05201299861073494 -0.1622689962387085 -0.009529000148177147
v 0.05177899822592735 -0.1626179963350296 -0.0103150000795722
v 0.05065000057220459 -0.1622530072927475 -0.010425999760627747
v 0.05157899856567383 -0.16212299466133118 -0.010076000355184078
v 0.05106600001454353 -0.16190199553966522 -0.010470000095665455
v 0.04978000000119209 -0.16202400624752045 -0.010590000078082085
v 0.04585200175642967 -0.15956099331378937 -0.009549999609589577
v 0.04284000024199486 -0.1602800041437149 -0.00962700042873621
v 0.04367600008845329 -0.15939000248908997 -0.008825000375509262
v 0.04244399815797806 -0.16048799455165863 -0.010692000389099121
v 0.043017998337745667 -0.15921199321746826 -0.010166999883949757
v 0.042789001017808914 -0.1601179987192154 -0.010800999589264393
v 0.04424599930644035 -0.1581680029630661 -0.012955999933183193
v 0.04404500126838684 -0.15787899494171143 -0.014330999925732613
v 0.05293300002813339 -0.16187100112438202 -0.016658000648021698
v 0.05242199823260307 -0.1617880016565323 -0.016346000134944916
v 0.057464998215436935 -0.16424299776554108 -0.01413199957460165
v 0.05573200061917305 -0.16314800083637238 -0.015769999474287033
v 0.05656300112605095 -0.16361500322818756 -0.015320999547839165
v 0.05692199990153313 -0.16384999454021454 -0.015025000087916851
v 0.0539730004966259 -0.1622619926929474 -0.016404999420046806
v 0.05688399821519852 -0.16331599652767181 -0.014681000262498856
v 0.05760499835014343 -0.16396799683570862 -0.01209999993443489
v 0.056366998702287674 -0.16272899508476257 -0.013886000029742718
v 0.05293300002813339 -0.16177600622177124 -0.012668999843299389
v 0.0519459992647171 -0.1616629958152771 -0.010866999626159668
v 0.05283299833536148 -0.1613900065422058 -0.016171999275684357
v 0.05401099845767021 -0.16172300279140472 -0.01598300039768219
v 0.044557999819517136 -0.15871399641036987 -0.00880299974232912
v 0.043345000594854355 -0.15860100090503693 -0.008888999931514263
v 0.04300500079989433 -0.15809200704097748 -0.009286999702453613
v 0.043216001242399216 -0.15743400156497955 -0.010428999550640583
v 0.04387100040912628 -0.15798799693584442 -0.011730000376701355
v 0.053677998483181 -0.16248899698257446 -0.008813000284135342
v 0.055459000170230865 -0.16273100674152374 -0.009569000452756882
v 0.05304199829697609 -0.16217400133609772 -0.008844999596476555
v 0.05256899818778038 -0.16197499632835388 -0.009007999673485756
v 0.05186200141906738 -0.16178399324417114 -0.009324000217020512
v 0.05210600048303604 -0.16145199537277222 -0.010266000404953957
v 0.04298499971628189 -0.15906000137329102 -0.008960999548435211
v 0.04382399842143059 -0.1588910073041916 -0.008725999854505062
v 0.04302699863910675 -0.15815000236034393 -0.010150999762117863
v 0.05625800043344498 -0.16283899545669556 -0.015205999836325645
v 0.05318500101566315 -0.16165900230407715 -0.009277000091969967
v 0.05218999832868576 -0.1613920032978058 -0.00976600032299757
vn 0.2750048339366913 -0.6679015755653381 -0.6915777921676636
vn -0.009513909928500652 -0.9378442764282227 -0.34692567586898804
vn 0.2428371012210846 -0.8710390329360962 -0.42699092626571655
vn 0.45283982157707214 -0.560032308101654 -0.6937578320503235
vn 0.06311758607625961 -0.7016251683235168 -0.7097452282905579
vn 0.6229720115661621 -0.11752548068761826 -0.7733651995658875
vn 0.567858099937439 0.06400767713785172 -0.8206340670585632
vn 0.02610931172966957 -0.9932574033737183 -0.11295192688703537
vn -0.2144084870815277 -0.9522685408592224 -0.2172870934009552
vn -0.2332690805196762 -0.9721189737319946 -0.02387753501534462
vn 0.25561583042144775 -0.8502203226089478 -0.46020224690437317
vn 0.06817388534545898 -0.3277309238910675 -0.9423081278800964
vn 0.5335795879364014 -0.0229461919516325 -0.8454384803771973
vn -0.12676499783992767 -0.8992408514022827 -0.4186842143535614
vn 0.28191235661506653 0.1472327709197998 -0.9480758905410767
vn 0.09274391829967499 -0.3127591013908386 -0.9452937841415405
vn 0.7197926044464111 0.5489228367805481 -0.42494985461235046
vn 0.6645298004150391 0.4221929907798767 -0.6165656447410583
vn 0.6346938014030457 0.6957077383995056 -0.3363843560218811
vn 0.47617796063423157 0.7422975301742554 -0.4714329242706299
vn -0.1894790083169937 -0.9650404453277588 -0.18109256029129028
vn -0.8817983269691467 -0.41511642932891846 -0.22385266423225403
vn -0.24643076956272125 -0.9624984860420227 0.11343970894813538
vn -0.2562912106513977 -0.9037036299705505 0.3429790139198303
vn -0.1953105628490448 -0.8518033027648926 0.48609140515327454
vn -0.9643062353134155 -0.19245459139347076 0.18186470866203308
vn -0.9744568467140198 -0.06800330430269241 -0.21403123438358307
vn -0.15971605479717255 -0.8599957227706909 -0.4846629500389099
vn -0.1960189789533615 -0.6198054552078247 -0.7598801255226135
vn 0.060635756701231 0.26300865411758423 -0.9628861546516418
vn -0.6993173360824585 -0.06731480360031128 -0.7116347551345825
vn -0.8227133750915527 0.33611005544662476 -0.45844587683677673
vn 0.19085457921028137 0.6629382371902466 -0.7239388823509216
vn -0.3152883052825928 -0.7138023376464844 -0.6253636479377747
vn -0.3005813956260681 -0.9041117429733276 -0.3036988079547882
vn -0.028240717947483063 -0.9995239973068237 -0.012426059693098068
vn -0.04783468693494797 0.7161718606948853 -0.6962828040122986
vn 0.5148037672042847 0.8359087109565735 0.19035150110721588
vn 0.3686654567718506 0.8855428695678711 -0.2826651930809021
vn 0.527916669845581 0.848241925239563 0.04230483993887901
vn -0.9473246335983276 -0.14623674750328064 -0.28493988513946533
vn -0.6991191506385803 0.7042009830474854 -0.12382892519235611
vn -0.8563956022262573 0.484150767326355 -0.17940115928649902
vn -0.05559855327010155 -0.9326499700546265 0.35647282004356384
vn -0.3535064458847046 -0.8031629323959351 0.47954410314559937
vn -0.27837350964546204 -0.4520505964756012 0.8474422097206116
vn -0.20649556815624237 -0.6100645065307617 0.7649711966514587
vn 0.03962065279483795 -0.23466673493385315 0.9712680578231812
vn 0.097358338534832 -0.4803212881088257 0.8716724514961243
vn 0.005171165335923433 -0.7415710091590881 0.6708544492721558
vn -0.9211934804916382 0.05889536067843437 0.38462164998054504
vn -0.7948509454727173 0.6044937968254089 -0.05290742218494415
vn -0.8285461068153381 0.5515419840812683 -0.09650257974863052
vn -0.9954174160957336 -0.08233561366796494 -0.048631008714437485
vn -0.5604820847511292 0.6333106160163879 -0.5336454510688782
vn -0.48220348358154297 0.7681541442871094 -0.42121127247810364
vn -0.9491034150123596 0.2640713155269623 -0.1716650426387787
vn -0.47371378540992737 -0.6838391423225403 -0.5549408793449402
vn -0.8063727617263794 -0.2706230580806732 -0.5258574485778809
vn -0.025996660813689232 -0.9722985029220581 -0.23229248821735382
vn 0.0007194213103502989 -0.7558146119117737 -0.6547853350639343
vn 0.17902986705303192 -0.9736804366111755 0.1410481333732605
vn 0.10700466483831406 -0.9941778182983398 0.012666680850088596
vn 0.9135320782661438 -0.4067176580429077 0.006308580748736858
vn 0.5335487723350525 -0.8265513181686401 0.1792725920677185
vn -0.21057549118995667 0.9775627255439758 0.005399645306169987
vn 0.13763758540153503 0.9899443984031677 0.03264875337481499
vn -0.2939888536930084 0.954845666885376 -0.04290066659450531
vn 0.5448848605155945 0.27609241008758545 0.7917532920837402
vn 0.5554702281951904 0.34185805916786194 0.7580145001411438
vn 0.21263737976551056 0.631718099117279 0.7454646229743958
vn -0.183641254901886 0.824226438999176 0.5356552600860596
vn -0.13164930045604706 0.9856857657432556 0.10531871020793915
vn -0.874467134475708 0.4621204435825348 -0.14748568832874298
vn -0.2230737805366516 0.933246374130249 -0.2815834581851959
vn 0.3124953508377075 0.7228884696960449 0.6162620782852173
vn -0.9640675187110901 0.11650359630584717 -0.23874814808368683
vn -0.857360303401947 0.5100014209747314 -0.06951155513525009
vn -0.9599388241767883 0.22210296988487244 -0.1708441525697708
vn 0.4684140384197235 -0.19014479219913483 0.8628054261207581
vn -0.2673075795173645 -0.7111102342605591 0.6502836346626282
vn 0.6822329759597778 -0.5090392827987671 0.5248210430145264
vn -0.5575805902481079 -0.5780699849128723 0.5957675576210022
vn -0.4438250660896301 -0.6366681456565857 0.6306132078170776
vn -0.19603611528873444 -0.09109977632761002 0.9763558506965637
vn -0.7121232748031616 -0.038629788905382156 0.7009907960891724
vn -0.24037650227546692 0.7012339234352112 0.6711855530738831
vn -0.08143798261880875 0.14769801497459412 0.9856739044189453
vn 0.3240896761417389 -0.25045666098594666 0.9122704267501831
vn -0.6405925154685974 -0.40148767828941345 0.6545600891113281
vn 0.008484367281198502 -0.40812966227531433 0.9128844738006592
vn -0.8734506368637085 0.47061312198638916 0.12492933869361877
vn -0.9703965783119202 0.20059579610824585 -0.13450577855110168
vn -0.8509334921836853 0.5101655125617981 -0.1250726878643036
vn -0.9864360690116882 0.10659357905387878 -0.12482696771621704
vn -0.9765214920043945 -0.18112963438034058 -0.11660940945148468
vn -0.05054561793804169 0.07670369744300842 -0.9957719445228577
vn -0.7991783618927002 0.27523910999298096 -0.534375786781311
vn 0.7156258821487427 -0.47755828499794006 -0.5097231268882751
vn 0.4064139425754547 0.03371420130133629 -0.9130669236183167
vn 0.5696601271629333 -0.028943590819835663 -0.8213706612586975
vn 0.6612213850021362 -0.23769569396972656 -0.711538553237915
vn 0.2674955725669861 -0.05016724392771721 -0.9622522592544556
vn 0.8060346841812134 0.5087859630584717 -0.30239835381507874
vn 0.9060719013214111 0.34009283781051636 0.25173524022102356
vn 0.4985840618610382 0.8668394684791565 0.0018264098325744271
vn 0.04953387379646301 0.998454213142395 -0.025209510698914528
vn -0.17723411321640015 0.98101806640625 -0.07868742942810059
vn -0.1314200758934021 0.911704421043396 -0.38926059007644653
vn 0.42489874362945557 0.8066394925117493 -0.41084519028663635
vn 0.23765972256660461 0.12008895725011826 0.9638965129852295
vn -0.17588861286640167 0.4229104220867157 0.8889375329017639
vn -0.7652351260185242 0.45264115929603577 0.4577457904815674
vn -0.905519425868988 0.42248693108558655 -0.03923482075333595
vn -0.9272996783256531 -0.10411545634269714 -0.3595488965511322
vn 0.17824293673038483 0.06867601722478867 0.9815870523452759
vn 0.573576807975769 0.6534963846206665 0.4939151704311371
vn -0.23963584005832672 -0.1063145101070404 0.9650242924690247
vn -0.32149919867515564 0.14425763487815857 0.9358568787574768
vn -0.6748238801956177 0.4393809139728546 0.5929225087165833
vn -0.48177796602249146 0.8750368356704712 0.046909745782613754
vn -0.7859324812889099 -0.002669687382876873 0.6183066368103027
vn -0.10291721671819687 0.047993626445531845 0.9935314655303955
vn -0.9748206734657288 0.06740070879459381 -0.21255987882614136
vn 0.6357173323631287 0.604396641254425 -0.4801752269268036
vn 0.17916366457939148 0.8115745186805725 0.5561000108718872
vn -0.06549602746963501 0.9928008913993835 0.10028238594532013
f 1//1 2//2 3//3
f 1//1 3//3 4//4
f 2//2 1//1 5//5
f 1//1 4//4 6//6
f 5//5 1//1 7//7
f 1//1 6//6 7//7
f 3//3 2//2 8//8
f 2//2 5//5 9//9
f 10//10 2//2 9//9
f 10//10 8//8 2//2
f 3//3 11//11 4//4
f 3//3 8//8 11//11
f 12//12 4//4 11//11
f 13//13 4//4 12//12
f 13//13 6//6 4//4
f 5//5 14//14 9//9
f 5//5 15//15 16//16
f 5//5 7//7 15//15
f 5//5 16//16 14//14
f 17//17 7//7 6//6
f 17//17 6//6 18//18
f 18//18 6//6 13//13
f 7//7 19//19 20//20
f 15//15 7//7 20//20
f 7//7 17//17 19//19
f 21//21 8//8 22//22
f 22//22 8//8 10//10
f 21//21 11//11 8//8
f 9//9 14//14 23//23
f 10//10 9//9 24//24
f 9//9 23//23 24//24
f 10//10 24//24 25//25
f 25//25 26//26 10//10
f 27//27 10//10 26//26
f 10//10 27//27 22//22
f 11//11 21//21 28//28
f 11//11 28//28 29//29
f 29//29 12//12 11//11
f 13//13 12//12 30//30
f 12//12 31//31 32//32
f 31//31 12//12 29//29
f 32//32 30//30 12//12
f 13//13 33//33 18//18
f 33//33 13//13 30//30
f 14//14 34//34 35//35
f 16//16 34//34 14//14
f 36//36 23//23 14//14
f 36//36 14//14 35//35
f 37//37 16//16 15//15
f 37//37 15//15 20//20
f 16//16 37//37 34//34
f 38//38 19//19 17//17
f 38//38 17//17 39//39
f 39//39 17//17 18//18
f 39//39 18//18 33//33
f 20//20 19//19 40//40
f 40//40 19//19 38//38
f 20//20 40//40 37//37
f 41//41 21//21 22//22
f 41//41 28//28 21//21
f 42//42 22//22 27//27
f 43//43 22//22 42//42
f 43//43 41//41 22//22
f 44//44 23//23 36//36
f 23//23 44//44 45//45
f 23//23 45//45 24//24
f 46//46 24//24 45//45
f 24//24 46//46 47//47
f 24//24 47//47 25//25
f 25//25 47//47 48//48
f 25//25 48//48 49//49
f 26//26 25//25 50//50
f 50//50 25//25 49//49
f 26//26 50//50 51//51
f 26//26 51//51 52//52
f 27//27 26//26 42//42
f 53//53 26//26 52//52
f 53//53 42//42 26//26
f 28//28 41//41 29//29
f 31//31 29//29 41//41
f 32//32 33//33 30//30
f 31//31 41//41 32//32
f 54//54 32//32 41//41
f 33//33 32//32 55//55
f 32//32 56//56 55//55
f 56//56 32//32 57//57
f 57//57 32//32 54//54
f 33//33 55//55 56//56
f 39//39 33//33 56//56
f 35//35 34//34 58//58
f 34//34 59//59 58//58
f 37//37 59//59 34//34
f 60//60 35//35 61//61
f 36//36 35//35 60//60
f 61//61 35//35 58//58
f 62//62 36//36 60//60
f 36//36 63//63 44//44
f 36//36 62//62 64//64
f 36//36 65//65 63//63
f 65//65 36//36 64//64
f 66//66 37//37 67//67
f 40//40 67//67 37//37
f 68//68 59//59 37//37
f 68//68 37//37 66//66
f 69//69 38//38 70//70
f 40//40 38//38 69//69
f 70//70 38//38 71//71
f 72//72 71//71 38//38
f 73//73 72//72 38//38
f 39//39 73//73 38//38
f 39//39 74//74 73//73
f 74//74 39//39 75//75
f 39//39 56//56 75//75
f 40//40 69//69 76//76
f 67//67 40//40 76//76
f 77//77 41//41 43//43
f 77//77 54//54 41//41
f 78//78 42//42 53//53
f 42//42 78//78 43//43
f 78//78 79//79 43//43
f 79//79 77//77 43//43
f 44//44 80//80 81//81
f 44//44 63//63 65//65
f 82//82 44//44 65//65
f 44//44 82//82 80//80
f 45//45 44//44 81//81
f 83//83 45//45 81//81
f 45//45 84//84 46//46
f 45//45 83//83 84//84
f 85//85 47//47 46//46
f 86//86 46//46 84//84
f 46//46 87//87 85//85
f 87//87 46//46 86//86
f 47//47 88//88 48//48
f 47//47 85//85 88//88
f 76//76 48//48 88//88
f 48//48 76//76 69//69
f 69//69 49//49 48//48
f 89//89 50//50 49//49
f 69//69 89//89 49//49
f 90//90 50//50 91//91
f 50//50 89//89 91//91
f 50//50 90//90 51//51
f 51//51 92//92 52//52
f 93//93 51//51 90//90
f 92//92 51//51 94//94
f 93//93 94//94 51//51
f 94//94 52//52 92//92
f 53//53 52//52 94//94
f 79//79 78//78 53//53
f 53//53 94//94 95//95
f 79//79 53//53 95//95
f 96//96 57//57 54//54
f 77//77 96//96 54//54
f 57//57 75//75 56//56
f 57//57 74//74 75//75
f 96//96 74//74 57//57
f 61//61 58//58 97//97
f 59//59 98//98 58//58
f 58//58 98//98 97//97
f 59//59 68//68 98//98
f 99//99 60//60 61//61
f 99//99 64//64 60//60
f 60//60 64//64 62//62
f 61//61 100//100 101//101
f 61//61 101//101 102//102
f 100//100 61//61 103//103
f 99//99 61//61 102//102
f 103//103 61//61 97//97
f 64//64 99//99 104//104
f 105//105 65//65 64//64
f 64//64 106//106 105//105
f 104//104 106//106 64//64
f 105//105 82//82 65//65
f 67//67 107//107 66//66
f 66//66 107//107 68//68
f 76//76 87//87 67//67
f 67//67 108//108 107//107
f 87//87 108//108 67//67
f 68//68 109//109 98//98
f 106//106 68//68 107//107
f 110//110 68//68 106//106
f 68//68 110//110 109//109
f 89//89 69//69 70//70
f 70//70 111//111 89//89
f 111//111 70//70 71//71
f 111//111 71//71 112//112
f 72//72 112//112 71//71
f 72//72 113//113 112//112
f 72//72 73//73 114//114
f 72//72 114//114 113//113
f 73//73 74//74 114//114
f 115//115 74//74 95//95
f 95//95 74//74 96//96
f 115//115 114//114 74//74
f 87//87 76//76 88//88
f 79//79 96//96 77//77
f 95//95 96//96 79//79
f 80//80 116//116 81//81
f 80//80 117//117 116//116
f 105//105 80//80 82//82
f 80//80 105//105 117//117
f 116//116 118//118 81//81
f 118//118 83//83 81//81
f 118//118 119//119 83//83
f 119//119 120//120 83//83
f 86//86 84//84 83//83
f 83//83 120//120 86//86
f 85//85 87//87 88//88
f 121//121 87//87 86//86
f 121//121 86//86 120//120
f 121//121 108//108 87//87
f 91//91 89//89 111//111
f 91//91 122//122 90//90
f 93//93 90//90 122//122
f 123//123 122//122 91//91
f 111//111 123//123 91//91
f 95//95 94//94 93//93
f 115//115 95//95 93//93
f 124//124 93//93 122//122
f 93//93 124//124 115//115
f 103//103 97//97 110//110
f 110//110 97//97 109//109
f 109//109 97//97 98//98
f 99//99 102//102 104//104
f 101//101 100//100 125//125
f 110//110 125//125 100//100
f 103//103 110//110 100//100
f 101//101 104//104 102//102
f 101//101 125//125 104//104
f 106//106 104//104 125//125
f 117//117 105//105 106//106
f 117//117 106//106 126//126
f 106//106 107//107 127//127
f 106//106 125//125 110//110
f 106//106 127//127 126//126
f 108//108 121//121 107//107
f 121//121 127//127 107//107
f 123//123 111//111 112//112
f 122//122 123//123 112//112
f 112//112 113//113 122//122
f 122//122 113//113 124//124
f 114//114 124//124 113//113
f 124//124 114//114 115//115
f 126//126 116//116 117//117
f 126//126 118//118 116//116
f 118//118 126//126 119//119
f 119//119 126//126 120//120
f 126//126 127//127 120//120
f 121//121 120//120 127//127
