# Generated by Visualization Toolkit
v 0.037679001688957214 -0.1580680012702942 -0.018509000539779663
v 0.039684001356363297 -0.16033199429512024 -0.01776999980211258
v 0.03930800035595894 -0.1601880043745041 -0.01653200015425682
v 0.03676899895071983 -0.1569720059633255 -0.017892999574542046
v 0.04243500158190727 -0.15743400156497955 -0.019592000171542168
v 0.038346998393535614 -0.15556000173091888 -0.01981700025498867
v 0.036986999213695526 -0.15563400089740753 -0.019238000735640526
v 0.04108000174164772 -0.16066999733448029 -0.017854999750852585
v 0.04064000025391579 -0.16088099777698517 -0.016551999375224113
v 0.03720699995756149 -0.15757399797439575 -0.014793000183999538
v 0.039788998663425446 -0.15961800515651703 -0.011345000006258488
v 0.03996500000357628 -0.1601559966802597 -0.013400999829173088
v 0.03475100174546242 -0.15511499345302582 -0.01761999912559986
v 0.032628998160362244 -0.15336400270462036 -0.0149959996342659
v 0.04243199899792671 -0.1599150002002716 -0.018293999135494232
v 0.042819999158382416 -0.15881100296974182 -0.018926000222563744
v 0.039746999740600586 -0.1556520015001297 -0.020090999081730843
v 0.041335999965667725 -0.15632599592208862 -0.01996699906885624
v 0.04146600142121315 -0.15529799461364746 -0.019619999453425407
v 0.04298799857497215 -0.15671099722385406 -0.01896500028669834
v 0.0378590002655983 -0.1546030044555664 -0.018921000882983208
v 0.03916899859905243 -0.15444399416446686 -0.019321000203490257
v 0.03670800104737282 -0.1534699946641922 -0.01929900050163269
v 0.03561900183558464 -0.15436699986457825 -0.01918400079011917
v 0.04290800169110298 -0.1598760038614273 -0.017364000901579857
v 0.0406000018119812 -0.16040000319480896 -0.014138000085949898
v 0.042649999260902405 -0.15912599861621857 -0.014523999765515327
v 0.03667299821972847 -0.1561959981918335 -0.013119000010192394
v 0.041039999574422836 -0.1600620001554489 -0.011006000451743603
v 0.03860900178551674 -0.15656700730323792 -0.011095999740064144
v 0.03764199838042259 -0.1568010002374649 -0.011760000139474869
v 0.04058000072836876 -0.15921300649642944 -0.010611999779939651
v 0.041131000965833664 -0.16039499640464783 -0.012107999995350838
v 0.028562000021338463 -0.14936499297618866 -0.015494000166654587
v 0.028725000098347664 -0.14863499999046326 -0.020907999947667122
v 0.032962001860141754 -0.15165500342845917 -0.020145000889897346
v 0.031092999503016472 -0.1494089961051941 -0.02137799933552742
v 0.03660999983549118 -0.15518799424171448 -0.012330000288784504
v 0.033362001180648804 -0.15231099724769592 -0.013106999918818474
v 0.02779800072312355 -0.14837199449539185 -0.0147299999371171
v 0.031567998230457306 -0.1501930058002472 -0.012814999558031559
v 0.02686299942433834 -0.14600299298763275 -0.013318000361323357
v 0.043441999703645706 -0.1581210047006607 -0.018268000334501266
v 0.04170899838209152 -0.15520000457763672 -0.01746400073170662
v 0.04314199835062027 -0.1565520018339157 -0.017111999914050102
v 0.03810799866914749 -0.1540829986333847 -0.017504999414086342
v 0.04133100062608719 -0.1552090048789978 -0.015312000177800655
v 0.03520200029015541 -0.15168499946594238 -0.01961500011384487
v 0.03425300121307373 -0.15010300278663635 -0.01728999987244606
v 0.034890998154878616 -0.15218600630760193 -0.019927000626921654
v 0.04340999945998192 -0.1579110026359558 -0.016459999606013298
v 0.04261799901723862 -0.15956999361515045 -0.01267900038510561
v 0.042812999337911606 -0.15713000297546387 -0.01487400010228157
v 0.043400999158620834 -0.15773199498653412 -0.012760999612510204
v 0.03768699988722801 -0.1553570032119751 -0.0115769999101758
v 0.042305998504161835 -0.15926100313663483 -0.010722000151872635
v 0.03860500082373619 -0.15594300627708435 -0.010995999909937382
v 0.0403750017285347 -0.15711399912834167 -0.011003999970853329
v 0.042417000979185104 -0.15749700367450714 -0.010231999680399895
v 0.02319199964404106 -0.14534500241279602 -0.01617800071835518
v 0.023068999871611595 -0.14548499882221222 -0.017193999141454697
v 0.023729000240564346 -0.14517299830913544 -0.022050999104976654
v 0.0293940007686615 -0.1463800072669983 -0.023327000439167023
v 0.026859000325202942 -0.14694499969482422 -0.022644000127911568
v 0.03206900134682655 -0.14892999827861786 -0.02139499969780445
v 0.036910999566316605 -0.15438899397850037 -0.012407000176608562
v 0.036118000745773315 -0.15291200578212738 -0.01291900034993887
v 0.03236600011587143 -0.14900599420070648 -0.012949000112712383
v 0.023757999762892723 -0.14396800100803375 -0.013873999938368797
v 0.02519400045275688 -0.14358699321746826 -0.012764000333845615
v 0.027854999527335167 -0.1451359987258911 -0.012906000018119812
v 0.029729999601840973 -0.14586800336837769 -0.013123000040650368
v 0.037863001227378845 -0.1537030041217804 -0.013907999731600285
v 0.04093800112605095 -0.1545889973640442 -0.013224000111222267
v 0.04286700114607811 -0.1560090035200119 -0.013044999912381172
v 0.03258400037884712 -0.14816200733184814 -0.02063100039958954
v 0.04288800060749054 -0.1569100022315979 -0.010758000425994396
v 0.04300199821591377 -0.15777599811553955 -0.010688000358641148
v 0.03975899890065193 -0.15439000725746155 -0.011459000408649445
v 0.0372139997780323 -0.15379400551319122 -0.012773999944329262
v 0.04067299887537956 -0.15533800423145294 -0.010595999658107758
v 0.04191099852323532 -0.15620699524879456 -0.010312999598681927
v 0.021865999326109886 -0.14345699548721313 -0.016808999702334404
v 0.02187200076878071 -0.14391399919986725 -0.019432000815868378
v 0.026037000119686127 -0.14565500617027283 -0.024229999631643295
v 0.023646999150514603 -0.1439639925956726 -0.022700000554323196
v 0.024325000122189522 -0.14392000436782837 -0.02406799979507923
v 0.02740499936044216 -0.1450670063495636 -0.02490299940109253
v 0.02818799950182438 -0.14301900565624237 -0.025384999811649323
v 0.030616000294685364 -0.14496299624443054 -0.022276999428868294
v 0.02922699972987175 -0.14254899322986603 -0.024661999195814133
v 0.02988399937748909 -0.14408600330352783 -0.016269000247120857
v 0.022949999198317528 -0.14304399490356445 -0.014632999897003174
v 0.024217000231146812 -0.14216099679470062 -0.013063999824225903
v 0.026189999654889107 -0.14268800616264343 -0.012640000320971012
v 0.028873000293970108 -0.14444300532341003 -0.013265999965369701
v 0.04078200086951256 -0.15471400320529938 -0.011260000057518482
v 0.04257600009441376 -0.1560630053281784 -0.010859999805688858
v 0.023446999490261078 -0.1429470032453537 -0.015448999591171741
v 0.023719999939203262 -0.14354999363422394 -0.01936200074851513
v 0.026593999937176704 -0.14390599727630615 -0.025498999282717705
v 0.025147000327706337 -0.1432269960641861 -0.024958999827504158
v 0.02652299962937832 -0.14162799715995789 -0.02493100054562092
v 0.027219999581575394 -0.14047999680042267 -0.023269999772310257
v 0.025784000754356384 -0.1425590068101883 -0.019550999626517296
v 0.026643000543117523 -0.14157600700855255 -0.019504999741911888
v 0.027132999151945114 -0.14114899933338165 -0.02064099907875061
v 0.025064999237656593 -0.1428530067205429 -0.02439899928867817
v 0.02483999915421009 -0.14306600391864777 -0.01923000067472458
v 0.02687700092792511 -0.1423410028219223 -0.02574699930846691
v 0.02708500064909458 -0.1429630070924759 -0.02566399984061718
v 0.02903199940919876 -0.140407994389534 -0.022895000874996185
v 0.028511999174952507 -0.14130200445652008 -0.024647999554872513
v 0.02840700000524521 -0.14115199446678162 -0.014379999600350857
v 0.025756999850273132 -0.14164899289608002 -0.016178999096155167
v 0.024907000362873077 -0.1409820020198822 -0.013500000350177288
v 0.027383999899029732 -0.14163899421691895 -0.013214999809861183
v 0.024612000212073326 -0.14328500628471375 -0.018206000328063965
v 0.025940999388694763 -0.14214499294757843 -0.017868999391794205
v 0.02606000006198883 -0.14263099431991577 -0.025661999359726906
v 0.027187999337911606 -0.14040400087833405 -0.024349000304937363
v 0.027615999802947044 -0.14012999832630157 -0.02371099963784218
v 0.02773600071668625 -0.13950400054454803 -0.022474000230431557
v 0.02599100023508072 -0.14201100170612335 -0.01908300071954727
v 0.025647999718785286 -0.14263099431991577 -0.018709000200033188
v 0.027091000229120255 -0.14037300646305084 -0.020114999264478683
v 0.026794999837875366 -0.14008399844169617 -0.01912900060415268
v 0.026528000831604004 -0.14157499372959137 -0.018695000559091568
v 0.02741999924182892 -0.13914600014686584 -0.020831000059843063
v 0.026287000626325607 -0.1402300000190735 -0.013957999646663666
v 0.026623999699950218 -0.1394760012626648 -0.015273000113666058
v 0.02578200027346611 -0.13995400071144104 -0.014289000071585178
v 0.026466000825166702 -0.13987299799919128 -0.01594099961221218
v 0.02672399953007698 -0.14110800623893738 -0.01787699945271015
vn -0.5532586574554443 -0.5467017889022827 -0.6285078525543213
vn -0.3722923994064331 -0.7398800849914551 -0.5603353977203369
vn -0.6190855503082275 -0.7853081822395325 -0.004923360887914896
vn -0.7440834641456604 -0.6302889585494995 -0.22153028845787048
vn 0.1079738587141037 -0.30726340413093567 -0.9454792141914368
vn -0.2856496572494507 0.052342597395181656 -0.9569035768508911
vn -0.3992951810359955 -0.2238306850194931 -0.8890799283981323
vn -0.005605822894722223 -0.896323025226593 -0.44336605072021484
vn 0.06747239083051682 -0.9943819642066956 0.08156032115221024
vn -0.7301620244979858 -0.669488787651062 0.1365586221218109
vn -0.6432660818099976 -0.6165101528167725 0.4540088474750519
vn -0.3959563076496124 -0.9041880965232849 0.16019493341445923
vn -0.5757224559783936 -0.6886005997657776 -0.44087740778923035
vn -0.6675091981887817 -0.6642881631851196 0.33638179302215576
vn 0.4513566195964813 -0.6397081017494202 -0.6221339702606201
vn 0.6476532816886902 -0.30716443061828613 -0.6972770094871521
vn -0.030607981607317924 0.09377342462539673 -0.9951229095458984
vn 0.21805264055728912 0.03662224858999252 -0.9752496480941772
vn 0.46175462007522583 0.5676809549331665 -0.681557834148407
vn 0.8342593908309937 0.32987943291664124 -0.4418039321899414
vn 0.04245314747095108 0.6457106471061707 -0.7624010443687439
vn 0.06208260729908943 0.887287974357605 -0.45701825618743896
vn 0.5253077745437622 0.32288166880607605 -0.7872732281684875
vn -0.20854012668132782 -0.4107941687107086 -0.8875579833984375
vn 0.7367211580276489 -0.6759016513824463 -0.01997045800089836
vn 0.22798337042331696 -0.9732666015625 0.02785027027130127
vn 0.8392541408538818 -0.5401351451873779 0.06250213831663132
vn -0.7254363894462585 -0.5032954216003418 0.4695058763027191
vn -0.15945450961589813 -0.8220394253730774 0.5466493368148804
vn -0.4025001525878906 -0.1290043294429779 0.9062843918800354
vn -0.7004990577697754 -0.24897287786006927 0.6688148975372314
vn -0.21322906017303467 -0.2124648243188858 0.9536205530166626
vn 0.1639958620071411 -0.9742453098297119 0.15476247668266296
vn -0.6381449699401855 -0.7688790559768677 0.039947714656591415
vn -0.43842580914497375 -0.7782260179519653 -0.449607789516449
vn -0.22612161934375763 -0.5638189315795898 -0.7943407297134399
vn -0.1341167688369751 -0.5626510381698608 -0.8157429099082947
vn -0.5403205156326294 -0.2645416259765625 0.7987937927246094
vn -0.331618070602417 -0.20681776106357574 0.9204650521278381
vn -0.6150363683700562 -0.6531861424446106 0.4416763186454773
vn -0.27836474776268005 -0.2738962471485138 0.920594334602356
vn -0.35549870133399963 -0.4197651147842407 0.8351155519485474
vn 0.9568951725959778 -0.14477074146270752 -0.2517797648906708
vn 0.5858049988746643 0.8100010752677917 0.027035826817154884
vn 0.8863722681999207 0.4595485329627991 0.05620858073234558
vn 0.45257219672203064 0.8713976740837097 -0.1893264800310135
vn 0.5527462959289551 0.829468309879303 -0.0803370550274849
vn 0.7192760705947876 0.41099801659584045 -0.5601093173027039
vn 0.712034285068512 0.7021366357803345 0.0033443975262343884
vn 0.22971169650554657 -0.1838841736316681 -0.9557296633720398
vn 0.9864245653152466 -0.02504086308181286 0.16229434311389923
vn 0.7040577530860901 -0.7101171612739563 0.006036063656210899
vn 0.9328957796096802 0.35932135581970215 0.024364303797483444
vn 0.9956024289131165 -0.09235665947198868 0.015682347118854523
vn -0.4926367998123169 0.17925825715065002 0.8515723943710327
vn 0.5701438188552856 -0.5651772618293762 0.596247136592865
vn -0.2920846939086914 -0.0217191930860281 0.9561457633972168
vn -0.2114797830581665 -0.047347571700811386 0.9762348532676697
vn 0.2036396861076355 -0.011525674723088741 0.9789780378341675
vn -0.6712618470191956 -0.6309345960617065 0.3890104293823242
vn -0.7212800979614258 -0.6917005777359009 0.03612891584634781
vn -0.6692884564399719 -0.6713504195213318 -0.3183419406414032
vn 0.38049250841140747 -0.4001205861568451 -0.8337439894676208
vn -0.21580806374549866 -0.8124420642852783 -0.5416316390037537
vn 0.4908558428287506 -0.027336692437529564 -0.8708118796348572
vn -0.11485465615987778 0.36426037549972534 0.9241877198219299
vn 0.3440646231174469 0.492919921875 0.7991554141044617
vn 0.6074829697608948 0.5215886235237122 0.5990907549858093
vn -0.6746230125427246 -0.3827238380908966 0.6311942338943481
vn -0.2813928723335266 -0.21903881430625916 0.9342591166496277
vn 0.05951789394021034 -0.1062488779425621 0.9925566911697388
vn 0.39113375544548035 0.23415447771549225 0.8900483846664429
vn 0.4813116490840912 0.861972451210022 0.15919315814971924
vn 0.3843625485897064 0.9231685400009155 0.0050295391120016575
vn 0.8110837340354919 0.5840273499488831 -0.032481905072927475
vn 0.8080908060073853 0.44669854640960693 -0.38399186730384827
vn 0.8268176913261414 0.27342674136161804 0.4915388524532318
vn 0.8400030136108398 -0.10881097614765167 0.53155916929245
vn 0.005893841851502657 0.8329150080680847 0.5533696413040161
vn 0.14769889414310455 0.7958670854568481 0.5871801376342773
vn -0.03672783821821213 0.42427587509155273 0.9047878384590149
vn 0.18423275649547577 0.24241076409816742 0.9525205492973328
vn -0.9680606126785278 0.03752328082919121 0.2478925734758377
vn -0.8669353127479553 0.4102625846862793 -0.28303301334381104
vn -0.3749617338180542 -0.647689700126648 -0.6632508635520935
vn -0.7494381666183472 0.6392801403999329 -0.17223066091537476
vn -0.7187861204147339 -0.27021968364715576 -0.6405683755874634
vn 0.10634477436542511 -0.5773232579231262 -0.8095607161521912
vn 0.3778992295265198 -0.15073230862617493 -0.9134944081306458
vn 0.9238333702087402 0.27245378494262695 -0.26888829469680786
vn 0.7090938687324524 0.16841167211532593 -0.6847068667411804
vn 0.8745189905166626 0.4360307455062866 0.21235314011573792
vn -0.7727051377296448 0.6004037261009216 0.20601482689380646
vn -0.6742907166481018 0.3179738223552704 0.6665017604827881
vn 0.0553484745323658 0.1818069964647293 0.9817752838134766
vn 0.573262095451355 0.2798444330692291 0.7701023817062378
vn 0.4050120711326599 0.843995988368988 0.351619154214859
vn 0.6066681146621704 0.617925226688385 0.5001222491264343
vn -0.34326499700546265 0.9169495701789856 -0.20340265333652496
vn -0.25312453508377075 0.9633526802062988 -0.08876558393239975
vn -0.17894680798053741 -0.36235949397087097 -0.9146986603736877
vn -0.742018461227417 0.16056503355503082 -0.6508665680885315
vn -0.6545515060424805 0.6676175594329834 -0.3547520041465759
vn -0.7797943353652954 0.6260018348693848 -0.006517617031931877
vn -0.66163170337677 0.7481497526168823 -0.05015368014574051
vn -0.8440306782722473 0.5103898048400879 -0.16466419398784637
vn -0.9053649306297302 0.4136442542076111 -0.09598308801651001
vn -0.7268654108047485 0.5959903597831726 -0.34126538038253784
vn -0.4330782890319824 0.9013209939002991 0.007972009479999542
vn 0.07631780952215195 0.34903484582901 -0.9339969754219055
vn 0.09256073087453842 -0.15787212550640106 -0.9831118583679199
vn 0.7645174860954285 0.6140938997268677 -0.19596339762210846
vn 0.4621985852718353 0.5746409893035889 -0.6753963828086853
vn 0.7109794616699219 0.5847358703613281 0.3906305432319641
vn -0.75921231508255 0.589420735836029 -0.2760069668292999
vn -0.4305388927459717 0.6510066390037537 0.6251614093780518
vn 0.29794785380363464 0.43750301003456116 0.8484209775924683
vn -0.45456457138061523 0.8857801556587219 -0.09361911565065384
vn -0.6997959017753601 0.6929169297218323 -0.17364263534545898
vn -0.43957382440567017 0.23782511055469513 -0.8661489486694336
vn -0.3536401689052582 0.7936472296714783 -0.4950379729270935
vn -0.04112246260046959 0.9089074730873108 -0.41496527194976807
vn -0.5033570528030396 0.8232331275939941 -0.262524276971817
vn -0.761619508266449 0.6385979652404785 -0.1101289764046669
vn -0.7507413625717163 0.6547418832778931 -0.08775273710489273
vn -0.9426912069320679 0.1360911875963211 -0.30465102195739746
vn -0.9758449792861938 0.15884940326213837 -0.14997854828834534
vn -0.8468669652938843 0.530036985874176 -0.043326329439878464
vn -0.6105667948722839 0.7717908620834351 -0.1776147186756134
vn 0.18083173036575317 0.7048904299736023 0.6858785152435303
vn -0.3426155149936676 0.9244880676269531 0.16714142262935638
vn -0.542677640914917 0.8249359130859375 0.15805590152740479
vn -0.9344121813774109 0.32817474007606506 -0.13847462832927704
vn -0.9191785454750061 0.3609671890735626 -0.15752224624156952
f 1//1 2//2 3//3
f 1//1 3//3 4//4
f 2//2 1//1 5//5
f 6//6 1//1 7//7
f 5//5 1//1 6//6
f 7//7 1//1 4//4
f 3//3 2//2 8//8
f 2//2 5//5 8//8
f 8//8 9//9 3//3
f 10//10 4//4 3//3
f 10//10 3//3 11//11
f 3//3 12//12 11//11
f 12//12 3//3 9//9
f 13//13 4//4 14//14
f 7//7 4//4 13//13
f 4//4 10//10 14//14
f 5//5 15//15 8//8
f 5//5 16//16 15//15
f 5//5 17//17 18//18
f 5//5 6//6 17//17
f 18//18 19//19 5//5
f 19//19 20//20 5//5
f 16//16 5//5 20//20
f 7//7 21//21 6//6
f 22//22 6//6 21//21
f 17//17 6//6 22//22
f 7//7 23//23 21//21
f 24//24 7//7 13//13
f 23//23 7//7 24//24
f 9//9 8//8 25//25
f 8//8 15//15 25//25
f 12//12 9//9 26//26
f 9//9 27//27 26//26
f 9//9 25//25 27//27
f 14//14 10//10 28//28
f 11//11 28//28 10//10
f 11//11 12//12 29//29
f 30//30 31//31 11//11
f 11//11 32//32 30//30
f 11//11 29//29 32//32
f 11//11 31//31 28//28
f 29//29 12//12 33//33
f 26//26 33//33 12//12
f 34//34 13//13 14//14
f 34//34 35//35 13//13
f 13//13 36//36 24//24
f 13//13 37//37 36//36
f 37//37 13//13 35//35
f 14//14 38//38 39//39
f 34//34 14//14 40//40
f 41//41 14//14 39//39
f 14//14 41//41 42//42
f 40//40 14//14 42//42
f 38//38 14//14 28//28
f 25//25 15//15 43//43
f 15//15 16//16 43//43
f 16//16 20//20 43//43
f 19//19 18//18 17//17
f 22//22 19//19 17//17
f 44//44 20//20 19//19
f 22//22 44//44 19//19
f 20//20 44//44 45//45
f 45//45 43//43 20//20
f 23//23 46//46 21//21
f 46//46 22//22 21//21
f 47//47 22//22 46//46
f 22//22 47//47 44//44
f 23//23 48//48 49//49
f 46//46 23//23 49//49
f 23//23 50//50 48//48
f 24//24 50//50 23//23
f 50//50 24//24 36//36
f 25//25 43//43 51//51
f 51//51 27//27 25//25
f 52//52 26//26 27//27
f 33//33 26//26 52//52
f 53//53 27//27 51//51
f 53//53 54//54 27//27
f 54//54 52//52 27//27
f 28//28 31//31 55//55
f 55//55 38//38 28//28
f 33//33 56//56 29//29
f 56//56 32//32 29//29
f 30//30 55//55 31//31
f 57//57 55//55 30//30
f 57//57 30//30 58//58
f 30//30 32//32 58//58
f 32//32 59//59 58//58
f 56//56 59//59 32//32
f 56//56 33//33 52//52
f 60//60 34//34 40//40
f 34//34 61//61 62//62
f 34//34 62//62 35//35
f 60//60 61//61 34//34
f 63//63 35//35 64//64
f 37//37 35//35 63//63
f 35//35 62//62 64//64
f 37//37 50//50 36//36
f 37//37 65//65 50//50
f 37//37 63//63 65//65
f 38//38 66//66 39//39
f 38//38 55//55 66//66
f 39//39 66//66 67//67
f 67//67 41//41 39//39
f 42//42 60//60 40//40
f 41//41 67//67 68//68
f 41//41 68//68 42//42
f 60//60 42//42 69//69
f 69//69 42//42 70//70
f 71//71 70//70 42//42
f 72//72 71//71 42//42
f 68//68 72//72 42//42
f 43//43 45//45 51//51
f 53//53 44//44 47//47
f 44//44 53//53 45//45
f 53//53 51//51 45//45
f 46//46 49//49 73//73
f 74//74 47//47 46//46
f 46//46 73//73 74//74
f 47//47 75//75 53//53
f 75//75 47//47 74//74
f 76//76 49//49 48//48
f 48//48 65//65 76//76
f 50//50 65//65 48//48
f 49//49 68//68 67//67
f 67//67 73//73 49//49
f 76//76 68//68 49//49
f 56//56 52//52 54//54
f 53//53 75//75 54//54
f 54//54 77//77 78//78
f 75//75 77//77 54//54
f 56//56 54//54 78//78
f 55//55 79//79 80//80
f 66//66 55//55 80//80
f 55//55 57//57 81//81
f 55//55 81//81 79//79
f 56//56 78//78 59//59
f 81//81 57//57 58//58
f 81//81 58//58 82//82
f 58//58 59//59 82//82
f 59//59 77//77 82//82
f 77//77 59//59 78//78
f 61//61 60//60 83//83
f 83//83 60//60 69//69
f 84//84 62//62 61//61
f 83//83 84//84 61//61
f 62//62 85//85 64//64
f 84//84 86//86 62//62
f 62//62 86//86 87//87
f 85//85 62//62 87//87
f 64//64 88//88 63//63
f 89//89 63//63 88//88
f 76//76 65//65 63//63
f 63//63 90//90 76//76
f 90//90 63//63 91//91
f 91//91 63//63 89//89
f 88//88 64//64 85//85
f 66//66 80//80 67//67
f 73//73 67//67 80//80
f 90//90 68//68 76//76
f 72//72 68//68 92//92
f 90//90 92//92 68//68
f 93//93 69//69 94//94
f 69//69 93//93 83//83
f 69//69 70//70 94//94
f 70//70 71//71 95//95
f 95//95 94//94 70//70
f 96//96 95//95 71//71
f 71//71 72//72 96//96
f 72//72 92//92 96//96
f 80//80 74//74 73//73
f 75//75 74//74 97//97
f 74//74 80//80 79//79
f 74//74 79//79 97//97
f 98//98 77//77 75//75
f 75//75 97//97 98//98
f 77//77 98//98 82//82
f 81//81 97//97 79//79
f 98//98 81//81 82//82
f 81//81 98//98 97//97
f 83//83 99//99 84//84
f 83//83 93//93 99//99
f 84//84 100//100 86//86
f 100//100 84//84 99//99
f 85//85 87//87 101//101
f 85//85 101//101 88//88
f 87//87 86//86 102//102
f 103//103 86//86 104//104
f 86//86 105//105 106//106
f 86//86 106//106 107//107
f 102//102 86//86 108//108
f 108//108 86//86 103//103
f 86//86 100//100 109//109
f 86//86 107//107 104//104
f 105//105 86//86 109//109
f 102//102 101//101 87//87
f 89//89 88//88 101//101
f 110//110 89//89 111//111
f 111//111 89//89 101//101
f 91//91 89//89 110//110
f 92//92 90//90 112//112
f 112//112 90//90 91//91
f 91//91 113//113 112//112
f 113//113 91//91 110//110
f 92//92 112//112 114//114
f 96//96 92//92 114//114
f 94//94 115//115 93//93
f 99//99 93//93 115//115
f 94//94 95//95 116//116
f 94//94 116//116 115//115
f 95//95 96//96 117//117
f 95//95 117//117 116//116
f 96//96 114//114 117//117
f 100//100 99//99 118//118
f 118//118 99//99 119//119
f 99//99 115//115 119//119
f 100//100 118//118 109//109
f 101//101 120//120 111//111
f 102//102 120//120 101//101
f 108//108 120//120 102//102
f 121//121 103//103 104//104
f 120//120 108//108 103//103
f 103//103 110//110 120//120
f 103//103 121//121 110//110
f 122//122 104//104 123//123
f 104//104 122//122 121//121
f 123//123 104//104 107//107
f 124//124 106//106 105//105
f 105//105 109//109 118//118
f 118//118 125//125 105//105
f 124//124 105//105 125//125
f 106//106 126//126 107//107
f 106//106 127//127 126//126
f 127//127 106//106 128//128
f 124//124 128//128 106//106
f 107//107 126//126 129//129
f 107//107 129//129 123//123
f 111//111 120//120 110//110
f 121//121 113//113 110//110
f 112//112 129//129 114//114
f 129//129 112//112 123//123
f 122//122 112//112 113//113
f 112//112 122//122 123//123
f 113//113 121//121 122//122
f 117//117 114//114 130//130
f 131//131 130//130 114//114
f 129//129 131//131 114//114
f 115//115 116//116 132//132
f 115//115 131//131 133//133
f 115//115 132//132 131//131
f 134//134 115//115 133//133
f 119//119 115//115 134//134
f 130//130 132//132 116//116
f 116//116 117//117 130//130
f 125//125 118//118 119//119
f 119//119 134//134 128//128
f 124//124 125//125 119//119
f 124//124 119//119 128//128
f 126//126 127//127 129//129
f 127//127 133//133 129//129
f 127//127 134//134 133//133
f 128//128 134//134 127//127
f 133//133 131//131 129//129
f 132//132 130//130 131//131
