# Generated by Visualization Toolkit
v 0.005481999833136797 0.0491270013153553 0.007546000182628632
v 0 0.05027399957180023 0.012600000016391277
v 0 0.05291999876499176 0
v 0.005758000072091818 0.04797999933362007 0.0018710000440478325
v 0.01014699973165989 0.04436499997973442 0.013965999707579613
v 0 0.044982001185417175 0.021764000877738
v 0.012138999998569489 0.04374700039625168 0.003944000229239464
v -0.004954000003635883 0.050978999584913254 0.006818000227212906
v -0.007934999652206898 0.04339500144124031 0.01092199981212616
v 0.005758000072091818 0.04797999933362007 -0.0018710000440478325
v 0.0038950000889599323 0.04974399879574776 -0.005361999850720167
v 0 0.05150900036096573 -0.007199999876320362
v -0.003367000026628375 0.05159600079059601 -0.004633000120520592
v -0.004046000074595213 0.05168500170111656 -0.0013150000013411045
v -0.004046000074595213 0.05168500170111656 0.0013150000013411045
v 0.012138999998569489 0.04374700039625168 -0.003944000229239464
v 0.012023000046610832 0.03395700082182884 0.016548000276088715
v 0 0.035280000418424606 0.024708999320864677
v 0.015406999737024307 0.03263400122523308 0.005005999933928251
v -0.008175999857485294 0.03501499816775322 0.011253000237047672
v 0.015406999737024307 0.03263400122523308 -0.005005999933928251
v -0.004980999976396561 0.04180699959397316 0.001617999980226159
v -0.002956999931484461 0.03475100174546242 0.0009609999833628535
v 0.008992999792098999 0.04656900092959404 -0.012377999722957611
v 0 0.04939199984073639 -0.01783600077033043
v -0.006781000178307295 0.04559899866580963 -0.009332999587059021
v -0.004980999976396561 0.04180699959397316 -0.001617999980226159
v 0.012600000016391277 0.03492699936032295 -0.017342999577522278
v 0.011013000272214413 0.023814000189304352 0.015158000402152538
v 0 0.023814000189304352 0.021436000242829323
v 0.01525100041180849 0.023814000189304352 0.004954999778419733
v -0.00735800014808774 0.0255769994109869 0.010127999819815159
v 0.01525100041180849 0.023814000189304352 -0.004954999778419733
v -0.00342399999499321 0.027341999113559723 0.0011119999689981341
v 0.011590000241994858 0.02346000075340271 -0.015953000634908676
v -0.002956999931484461 0.03475100174546242 -0.0009609999833628535
v -0.00342399999499321 0.027341999113559723 -0.0011119999689981341
v 0 0.037220001220703125 -0.026673000305891037
v -0.008751999586820602 0.035985998809337616 -0.012047000229358673
v 0 0.02310900017619133 -0.023399999365210533
v 0.008511999621987343 0.016493000090122223 0.01171599980443716
v 0 0.018345000222325325 0.015545999631285667
v 0.012760999612510204 0.01464099995791912 0.004145999904721975
v -0.00788700021803379 0.015434999950230122 0.010855999775230885
v 0.012760999612510204 0.01464099995791912 -0.004145999904721975
v -0.010738000273704529 0.012524000369012356 0.0034890000242739916
v 0.009088999591767788 0.016228999942541122 -0.012511000037193298
v -0.010738000273704529 0.012524000369012356 -0.0034890000242739916
v 0 0.017815999686717987 -0.01750900037586689
v -0.007934999652206898 0.025225000455975533 -0.01092199981212616
v -0.008464000187814236 0.015170999802649021 -0.011649999767541885
v 0.006924999877810478 0.00873200036585331 0.009530999697744846
v 0 0.00864300038665533 0.013418000191450119
v 0.009649000130593777 0.008820000104606152 0.0031349998898804188
v -0.006924999877810478 0.007937000133097172 0.009530999697744846
v 0.009649000130593777 0.008820000104606152 -0.0031349998898804188
v -0.009649000130593777 0.00723200011998415 0.0031349998898804188
v 0.007550999987870455 0.008555999957025051 -0.01039199996739626
v -0.009649000130593777 0.00723200011998415 -0.0031349998898804188
v 0 0.008290999568998814 -0.015545999631285667
v -0.007550999987870455 0.007761000189930201 -0.01039199996739626
v 0.003990999888628721 0.003969000186771154 0.005495000164955854
v 0 0.0042329998686909676 0.008182000368833542
v 0.005135000217705965 0.003705000039190054 0.0016690000193193555
v -0.004424000158905983 0.003616000059992075 0.006089000031352043
v 0.005135000217705965 0.003705000039190054 -0.0016690000193193555
v -0.006535999942570925 0.0029990000184625387 0.002124000107869506
v 0.004616999998688698 0.00343999988399446 -0.00635500019416213
v -0.006535999942570925 0.0029990000184625387 -0.002124000107869506
v 0 0.0031739999540150166 -0.010308999568223953
v -0.0050490000285208225 0.0030869999900460243 -0.006949999835342169
v 0 0 0
vn 0.556294858455658 0.8283752202987671 0.06580714881420135
vn -0.025669477880001068 0.9127256274223328 0.40776580572128296
vn 0.1959182173013687 0.9806035757064819 -0.0057241301983594894
vn 0.6029046773910522 0.7962243556976318 -0.050326086580753326
vn 0.6676267981529236 0.5766141414642334 0.4709465801715851
vn -0.3681761920452118 0.5323438048362732 0.7622705101966858
vn 0.8484426736831665 0.5263971090316772 0.05523760989308357
vn -0.7183568477630615 0.6889276504516602 0.0966540053486824
vn -0.9163461327552795 0.3390667736530304 0.21294040977954865
vn 0.6099720001220703 0.7916973829269409 0.033902812749147415
vn 0.5502724647521973 0.8348933458328247 -0.012382203713059425
vn 0.02680790424346924 0.9661176800727844 -0.25670579075813293
vn -0.4280986487865448 0.8608580827713013 -0.27505427598953247
vn -0.8401100635528564 0.5424142479896545 0.001405861577950418
vn -0.7705190777778625 0.6370424032211304 -0.021849434822797775
vn 0.7308053970336914 0.682417094707489 -0.015180607326328754
vn 0.8119889497756958 0.05003548413515091 0.5815241932868958
vn -0.00023396158940158784 0.08833139389753342 0.9960911870002747
vn 0.9785788655281067 0.08363302797079086 0.18811896443367004
vn -0.9869230389595032 -0.048767369240522385 0.15363867580890656
vn 0.9836331605911255 0.13322269916534424 -0.12131579965353012
vn -0.9868710041046143 -0.03629827871918678 -0.15737876296043396
vn -0.960769534111023 -0.08198629319667816 -0.26495298743247986
vn 0.6975269913673401 0.6773766279220581 -0.23370271921157837
vn -0.1684906929731369 0.7653639316558838 -0.6211512684822083
vn -0.9209912419319153 0.37654656171798706 -0.09993927925825119
vn -0.9914185404777527 -0.09339815378189087 0.09146595746278763
vn 0.765347957611084 0.15679782629013062 -0.6242251396179199
vn 0.7030283212661743 -0.3554934859275818 0.6159346699714661
vn -0.24893009662628174 -0.421907514333725 0.8717957735061646
vn 0.9598343968391418 -0.17822761833667755 0.21668598055839539
vn -0.9857516884803772 -0.00521003408357501 0.168126180768013
vn 0.9606493711471558 -0.2160574048757553 -0.1745619773864746
vn -0.9677699208259583 0.20658068358898163 -0.1440342366695404
vn 0.7497477531433105 -0.34695035219192505 -0.5634747743606567
vn -0.9794726371765137 -0.07942644506692886 0.1852693259716034
vn -0.9467136263847351 0.28476858139038086 0.15046608448028564
vn -0.20698429644107819 0.19929225742816925 -0.9578309655189514
vn -0.9750053882598877 0.08340349793434143 -0.20593293011188507
vn -0.22988645732402802 -0.40965646505355835 -0.8827988505363464
vn 0.6227163672447205 -0.35757461190223694 0.6959632039070129
vn -0.15240144729614258 -0.3886028230190277 0.9087142944335938
vn 0.903448224067688 -0.3562714159488678 0.2384365051984787
vn -0.6979963779449463 -0.09166695177555084 0.7102099061012268
vn 0.9037765860557556 -0.3856808543205261 -0.18557488918304443
vn -0.9907506108283997 0.07263850420713425 0.1146165281534195
vn 0.6913288235664368 -0.3514225482940674 -0.6313214302062988
vn -0.9940328598022461 0.05483473837375641 -0.09429623931646347
vn -0.14203308522701263 -0.3981042504310608 -0.9062779545783997
vn -0.9907522797584534 -0.002935071475803852 -0.1356506198644638
vn -0.7595387101173401 -0.08291321992874146 -0.6451560258865356
vn 0.6073430776596069 -0.567497968673706 0.5559500455856323
vn -0.0006872275844216347 -0.45286551117897034 0.8915786147117615
vn 0.7978774309158325 -0.5842727422714233 0.1483810693025589
vn -0.6211477518081665 -0.49134427309036255 0.6105376482009888
vn 0.7974580526351929 -0.5981355905532837 -0.07933679223060608
vn -0.8403687477111816 -0.4994647800922394 0.21051177382469177
vn 0.6918879151344299 -0.5324344038963318 -0.4876522421836853
vn -0.8986056447029114 -0.41698694229125977 -0.1364910900592804
vn -0.0036899291444569826 -0.43027421832084656 -0.9026907086372375
vn -0.7153544425964355 -0.45393988490104675 -0.5312311053276062
vn 0.5150483846664429 -0.7735061049461365 0.36934202909469604
vn 0.060389839112758636 -0.8019153475761414 0.5943777561187744
vn 0.6686152815818787 -0.7375684976577759 0.0945851281285286
vn -0.4106612503528595 -0.7800073027610779 0.4721713662147522
vn 0.6688495874404907 -0.7432312369346619 -0.015733735635876656
vn -0.5802026987075806 -0.7898489832878113 0.19875502586364746
vn 0.5994871854782104 -0.7687293291091919 -0.2228684276342392
vn -0.6552212238311768 -0.7513973116874695 -0.07802043855190277
vn 0.04821484535932541 -0.833466649055481 -0.5504620671272278
vn -0.5201219916343689 -0.789050817489624 -0.32691293954849243
vn 0.09624319523572922 -0.9921913146972656 0.07933111488819122
f 3//3 2//2 1//1
f 3//3 1//1 4//4
f 6//6 5//5 2//2
f 2//2 5//5 1//1
f 5//5 7//7 1//1
f 4//4 1//1 7//7
f 3//3 8//8 2//2
f 6//6 2//2 9//9
f 9//9 2//2 8//8
f 3//3 4//4 10//10
f 3//3 10//10 11//11
f 3//3 11//11 12//12
f 3//3 12//12 13//13
f 3//3 13//13 14//14
f 3//3 14//14 15//15
f 3//3 15//15 8//8
f 7//7 16//16 4//4
f 10//10 4//4 16//16
f 17//17 5//5 18//18
f 6//6 18//18 5//5
f 19//19 7//7 17//17
f 5//5 17//17 7//7
f 18//18 6//6 20//20
f 9//9 20//20 6//6
f 19//19 21//21 7//7
f 7//7 21//21 16//16
f 9//9 8//8 22//22
f 15//15 22//22 8//8
f 9//9 22//22 20//20
f 20//20 22//22 23//23
f 24//24 11//11 16//16
f 10//10 16//16 11//11
f 25//25 12//12 24//24
f 11//11 24//24 12//12
f 25//25 26//26 12//12
f 13//13 12//12 26//26
f 27//27 14//14 26//26
f 14//14 13//13 26//26
f 27//27 22//22 14//14
f 15//15 14//14 22//22
f 28//28 24//24 21//21
f 21//21 24//24 16//16
f 18//18 30//30 17//17
f 29//29 17//17 30//30
f 17//17 29//29 19//19
f 31//31 19//19 29//29
f 18//18 20//20 30//30
f 30//30 20//20 32//32
f 19//19 31//31 21//21
f 33//33 21//21 31//31
f 20//20 23//23 32//32
f 23//23 34//34 32//32
f 28//28 21//21 35//35
f 33//33 35//35 21//21
f 27//27 36//36 22//22
f 23//23 22//22 36//36
f 37//37 34//34 36//36
f 23//23 36//36 34//34
f 38//38 25//25 28//28
f 24//24 28//28 25//25
f 38//38 39//39 25//25
f 26//26 25//25 39//39
f 39//39 36//36 26//26
f 27//27 26//26 36//36
f 38//38 28//28 40//40
f 35//35 40//40 28//28
f 41//41 29//29 42//42
f 30//30 42//42 29//29
f 29//29 41//41 31//31
f 43//43 31//31 41//41
f 44//44 42//42 32//32
f 30//30 32//32 42//42
f 31//31 43//43 33//33
f 45//45 33//33 43//43
f 34//34 46//46 32//32
f 44//44 32//32 46//46
f 45//45 47//47 33//33
f 35//35 33//33 47//47
f 48//48 46//46 37//37
f 34//34 37//37 46//46
f 47//47 49//49 35//35
f 40//40 35//35 49//49
f 39//39 50//50 36//36
f 37//37 36//36 50//50
f 37//37 50//50 48//48
f 51//51 48//48 50//50
f 38//38 40//40 39//39
f 50//50 39//39 40//40
f 51//51 50//50 49//49
f 40//40 49//49 50//50
f 42//42 53//53 41//41
f 52//52 41//41 53//53
f 41//41 52//52 43//43
f 54//54 43//43 52//52
f 42//42 44//44 53//53
f 55//55 53//53 44//44
f 43//43 54//54 45//45
f 56//56 45//45 54//54
f 44//44 46//46 55//55
f 57//57 55//55 46//46
f 47//47 45//45 58//58
f 56//56 58//58 45//45
f 48//48 59//59 46//46
f 57//57 46//46 59//59
f 49//49 47//47 60//60
f 58//58 60//60 47//47
f 51//51 61//61 48//48
f 59//59 48//48 61//61
f 49//49 60//60 51//51
f 61//61 51//51 60//60
f 53//53 63//63 52//52
f 52//52 63//63 62//62
f 52//52 62//62 54//54
f 64//64 54//54 62//62
f 53//53 55//55 63//63
f 65//65 63//63 55//55
f 54//54 64//64 56//56
f 56//56 64//64 66//66
f 55//55 57//57 65//65
f 67//67 65//65 57//57
f 58//58 56//56 68//68
f 66//66 68//68 56//56
f 59//59 69//69 57//57
f 57//57 69//69 67//67
f 60//60 58//58 70//70
f 68//68 70//70 58//58
f 61//61 71//71 59//59
f 69//69 59//59 71//71
f 60//60 70//70 61//61
f 71//71 61//61 70//70
f 63//63 72//72 62//62
f 62//62 72//72 64//64
f 65//65 72//72 63//63
f 64//64 72//72 66//66
f 67//67 72//72 65//65
f 66//66 72//72 68//68
f 69//69 72//72 67//67
f 68//68 72//72 70//70
f 71//71 72//72 69//69
f 70//70 72//72 71//71
