# Generated by Visualization Toolkit
v -0.04432699829339981 -0.08084999769926071 -0.054676998406648636
v -0.0453220009803772 -0.07201000303030014 -0.052928999066352844
v -0.029819000512361526 -0.07650099694728851 -0.06886299699544907
v -0.034255001693964005 -0.08490800112485886 -0.06101299822330475
v -0.059126999229192734 -0.07801099866628647 -0.051587000489234924
v -0.06260000169277191 -0.08397100120782852 -0.05779699981212616
v -0.05320600047707558 -0.08503399789333344 -0.05993799865245819
v -0.0666470006108284 -0.09303399920463562 -0.06597799807786942
v -0.04296699911355972 -0.06222200021147728 -0.06210700049996376
v -0.055024001747369766 -0.06866300106048584 -0.051878999918699265
v -0.05121700093150139 -0.06367799639701843 -0.05332000181078911
v -0.03528200089931488 -0.05752800032496452 -0.07974100112915039
v -0.03881099820137024 -0.05547099933028221 -0.09443099796772003
v -0.03141799941658974 -0.05176600068807602 -0.08780799806118011
v -0.025296999141573906 -0.07168199867010117 -0.060148000717163086
v -0.007544999942183495 -0.08884300291538239 -0.018857000395655632
v -0.035677000880241394 -0.08237099647521973 -0.05046699941158295
v -0.061014000326395035 -0.08715800195932388 -0.04561600089073181
v -0.07080499827861786 -0.07724399864673615 -0.06037300080060959
v -0.062171999365091324 -0.06972800195217133 -0.05192900076508522
v -0.07809700071811676 -0.09147799760103226 -0.07463700324296951
v -0.0845400020480156 -0.09354099631309509 -0.06479399651288986
v -0.07681699842214584 -0.10465999692678452 -0.04422000050544739
v -0.04828299954533577 -0.05494900047779083 -0.06624600291252136
v -0.0507190003991127 -0.05897799879312515 -0.05793200060725212
v -0.06049099937081337 -0.061737000942230225 -0.05465700104832649
v -0.05173400044441223 -0.048677001148462296 -0.08556699752807617
v -0.06271599978208542 -0.0523889996111393 -0.09987600147724152
v -0.05285099893808365 -0.03589100018143654 -0.09516999870538712
v -0.022260000929236412 -0.03525499999523163 -0.09668999910354614
v -0.029868999496102333 -0.05404600128531456 -0.06372799724340439
v -0.034961000084877014 -0.044477999210357666 -0.07717499881982803
v -0.015992000699043274 -0.07845299690961838 -0.03737099841237068
v -0.025342000648379326 -0.06644900143146515 -0.04135400056838989
v -0.027254000306129456 -0.10660099983215332 0.0005830000154674053
v 0.000009999999747378752 -0.08372599631547928 -0.0049230000004172325
v 0 -0.07946900278329849 -0.026655999943614006
v -0.03372899815440178 -0.07529100030660629 -0.043024998158216476
v -0.036187998950481415 -0.0730459988117218 -0.035638000816106796
v -0.02595200017094612 -0.11044000089168549 -0.005669999867677689
v -0.0375789999961853 -0.09997399896383286 -0.017788000404834747
v -0.0461140014231205 -0.06437800079584122 -0.05000000074505806
v -0.10806000232696533 -0.07222799956798553 -0.04270799830555916
v -0.10851199924945831 -0.0881659984588623 -0.05159499868750572
v -0.07758799940347672 -0.04316699877381325 -0.05993900075554848
v -0.04711500182747841 -0.04084499925374985 -0.058660998940467834
v -0.07557400315999985 -0.0668250024318695 -0.06658200174570084
v -0.06945999711751938 -0.06604699790477753 -0.05462599918246269
v -0.08470399677753448 -0.07421500235795975 -0.08532000333070755
v -0.07986100018024445 -0.06277599930763245 -0.0830719992518425
v -0.08984100073575974 -0.07840900123119354 -0.06778299808502197
v -0.09270700067281723 -0.10193099826574326 -0.06475699692964554
v -0.09482499957084656 -0.07545900344848633 -0.059126999229192734
v -0.07146699726581573 -0.1163949966430664 -0.03519599884748459
v -0.11427000164985657 -0.1033179983496666 -0.04371099919080734
v -0.0976720005273819 -0.11772800236940384 -0.061402998864650726
v -0.08894100040197372 -0.1308159977197647 -0.04511699825525284
v -0.06088000163435936 -0.05064300075173378 -0.07306300103664398
v -0.05657000094652176 -0.05496399849653244 -0.06094000115990639
v -0.07011300325393677 -0.06037300080060959 -0.05886299908161163
v -0.06409899890422821 -0.055427998304367065 -0.06077900156378746
v -0.07780399918556213 -0.060867998749017715 -0.0938429981470108
v -0.07937099784612656 -0.04345100000500679 -0.0856110006570816
v -0.02076599933207035 -0.01268799975514412 -0.10658799856901169
v -0.058844998478889465 -0.015488999895751476 -0.0948610007762909
v -0.030136000365018845 -0.023374000564217567 -0.09380999952554703
v -0.022293999791145325 -0.08064000308513641 -0.002345999935641885
v -0.029246000573039055 -0.09167999774217606 -0.0010809999657794833
v -0.04454899951815605 -0.1278270035982132 -0.023459000512957573
v -0.0799970030784607 -0.1267939954996109 -0.030146000906825066
v -0.03908199816942215 -0.10562200099229813 -0.017474999651312828
v -0.002515000058338046 -0.0765250027179718 -0.007104000076651573
v -0.10131999850273132 -0.08318399637937546 -0.058632999658584595
v -0.0862089991569519 -0.025933999568223953 -0.061845000833272934
v -0.11349199712276459 -0.0940679982304573 -0.05871399864554405
v -0.07692299783229828 -0.0008980000275187194 -0.05314800143241882
v -0.08865000307559967 -0.06228100135922432 -0.07622499763965607
v -0.06437599658966064 -0.1337919980287552 -0.03167799860239029
v -0.11344800144433975 -0.11564400047063828 -0.05016399919986725
v -0.05775099992752075 0.02265300042927265 -0.09312599897384644
v -0.007193999830633402 -0.014922999776899815 -0.12326999753713608
v 0 0 -0.12083300203084946
v -0.025767000392079353 -0.01355700008571148 -0.11176499724388123
v -0.05079599842429161 0.03734099864959717 -0.11891099810600281
v -0.07517900317907333 0.0154600003734231 -0.07224699854850769
v -0.09402800351381302 -0.02026199921965599 -0.06398899853229523
v -0.0911640003323555 0.009620999917387962 -0.045499999076128006
v -0.09580200165510178 -0.005518999882042408 -0.040828000754117966
v -0.11069200187921524 -0.02409300021827221 -0.05188100039958954
v -0.08079200237989426 0.03171800076961517 -0.057624999433755875
v -0.07576700299978256 0.08100499957799911 -0.07643499970436096
v -0.03220300003886223 0.042817000299692154 -0.11798600107431412
v -0.01167299970984459 0.020719999447464943 -0.1231440007686615
v -0.0037950000260025263 0.011366999708116055 -0.129271999001503
v -0.022141000255942345 0.01706399954855442 -0.1321679949760437
v -0.04997500032186508 0.0451899990439415 -0.1279429942369461
v -0.07405400276184082 0.07292400300502777 -0.09521699696779251
v -0.12558099627494812 0.031049000099301338 -0.05418999865651131
v -0.09999199956655502 0.05722400173544884 -0.06035200133919716
v -0.11266999691724777 0.004129999782890081 -0.04705300182104111
v -0.10651499778032303 0.024731000885367393 -0.04049300029873848
v -0.12063799798488617 -0.019938999786973 -0.04447900131344795
v -0.12563200294971466 -0.010077999904751778 -0.042406000196933746
v -0.12615300714969635 0.0012750000460073352 -0.05013300105929375
v -0.08458200097084045 0.05276700109243393 -0.050023000687360764
v -0.051690999418497086 0.06547100096940994 -0.11383400112390518
v -0.07255599647760391 0.08000999689102173 -0.09247899800539017
v -0.09286700189113617 0.08027999848127365 -0.06545399874448776
v -0.08541800081729889 0.07653100043535233 -0.060986001044511795
v -0.02280000038444996 0.03611699864268303 -0.13146400451660156
v -0.10901100188493729 0.06640999764204025 -0.06097099930047989
v -0.13682599365711212 0.02710000053048134 -0.0424249991774559
v -0.12295699864625931 0.05636199936270714 -0.04716699942946434
v -0.12945599853992462 0.0052280002273619175 -0.042603999376297
v -0.12411700189113617 0.016543999314308167 -0.030060000717639923
v -0.11831700056791306 0.03679100051522255 -0.03542200103402138
v -0.13792599737644196 0.01680699922144413 -0.0405769981443882
v -0.10183800011873245 0.06464599817991257 -0.047067999839782715
v -0.1050800010561943 0.07171499729156494 -0.05533299967646599
v -0.13694900274276733 0.015754999592900276 -0.03522200137376785
v -0.13452200591564178 0.03237399831414223 -0.036368001252412796
v -0.13352300226688385 0.006378999911248684 -0.036938998848199844
vn -0.5807934403419495 -0.6699012517929077 -0.4625055193901062
vn -0.44626516103744507 -0.13640931248664856 -0.8844432830810547
vn -0.29670482873916626 -0.5710291862487793 -0.7654357552528381
vn 0.22506503760814667 -0.896006166934967 -0.38277748227119446
vn 0.2344733625650406 0.007706577889621258 -0.9720919728279114
vn 0.773101270198822 -0.020898601040244102 -0.6339383125305176
vn -0.12797750532627106 -0.6661222577095032 -0.7347808480262756
vn 0.42018160223960876 -0.12876741588115692 -0.8982574343681335
vn -0.6369249224662781 -0.5440732836723328 -0.5461785197257996
vn -0.025658175349235535 -0.1704297661781311 -0.9850357174873352
vn -0.2802748382091522 -0.4700196385383606 -0.8369753360748291
vn -0.7027919292449951 -0.6823503971099854 -0.20119984447956085
vn -0.3629516661167145 -0.8647705316543579 -0.3470417857170105
vn 0.8515114784240723 0.02624398283660412 -0.5236787796020508
vn 0.968629777431488 -0.0002567917690612376 -0.24850796163082123
vn 0.40397608280181885 -0.8742588758468628 -0.2692115008831024
vn -0.3632826805114746 -0.6630293726921082 0.6545363664627075
vn 0.15599019825458527 -0.2807287871837616 0.9470260739326477
vn 0.7424127459526062 0.23644062876701355 -0.6268326640129089
vn 0.2822073698043823 -0.037998124957084656 -0.958600640296936
vn -0.016443632543087006 -0.5280926823616028 -0.8490275144577026
vn -0.26432743668556213 -0.6707024574279785 -0.6930291056632996
vn 0.8758870959281921 -0.47439461946487427 -0.08815664798021317
vn -0.3759516477584839 -0.8481020927429199 -0.37334081530570984
vn -0.31703445315361023 -0.7047584652900696 -0.6346690058708191
vn 0.0922599658370018 -0.5381757020950317 -0.8377678394317627
vn -0.07674269378185272 -0.9969044923782349 -0.017082620412111282
vn -0.02491304837167263 -0.07696231454610825 -0.9967226386070251
vn -0.13399504125118256 -0.08850331604480743 -0.9870219826698303
vn 0.9737764596939087 -0.22706468403339386 -0.014183447696268559
vn 0.8609793782234192 0.5005668997764587 0.09026231616735458
vn 0.858307957649231 0.32127645611763 0.4001111388206482
vn 0.8127954602241516 0.04866922274231911 -0.580512523651123
vn 0.5368197560310364 0.7813138365745544 0.31839171051979065
vn -0.2511427700519562 -0.21388761699199677 0.9440230131149292
vn 0.8008638620376587 -0.2144806683063507 0.5591197609901428
vn 0.9202920198440552 0.25646084547042847 -0.29544928669929504
vn -0.6927329897880554 -0.6415759921073914 0.3293952941894531
vn -0.7928080558776855 0.4547315239906311 0.40580129623413086
vn 0.7250454425811768 -0.5831237435340881 -0.3664366900920868
vn -0.35050198435783386 -0.481813907623291 -0.8031212687492371
vn -0.43514594435691833 0.07592641562223434 0.897152841091156
vn -0.7910680770874023 0.45882144570350647 0.40459144115448
vn -0.6615250706672668 0.44633954763412476 0.6026322245597839
vn 0.08890228718519211 0.2499702423810959 0.9641634821891785
vn 0.27037012577056885 0.39599519968032837 0.8775463700294495
vn 0.9280115365982056 -0.24539802968502045 -0.2803114354610443
vn 0.6090300679206848 -0.147491917014122 -0.779312789440155
vn 0.014532044529914856 -0.4795968532562256 -0.877368688583374
vn 0.8556971549987793 -0.47569042444229126 -0.2037178874015808
vn -0.8568081855773926 -0.3086584508419037 -0.4130493998527527
vn 0.06618703156709671 -0.09083429723978043 -0.9936641454696655
vn -0.7343226075172424 0.09144341200590134 -0.6726130247116089
vn 0.5792075991630554 0.6514792442321777 -0.4899930953979492
vn -0.5371981263160706 0.3443980813026428 0.7699403762817383
vn 0.03276652842760086 -0.4861207902431488 -0.8732771873474121
vn 0.16229845583438873 -0.8463336825370789 -0.5073248147964478
vn 0.2197878658771515 -0.9602503776550293 -0.17208267748355865
vn -0.09808102995157242 -0.8381835222244263 -0.5364964604377747
vn 0.5900343060493469 -0.6108829379081726 -0.5279029607772827
vn 0.43090930581092834 -0.8063977360725403 -0.4050183892250061
vn 0.03202790766954422 -0.8127429485321045 -0.581741452217102
vn -0.6609559059143066 0.266621857881546 -0.7014627456665039
vn 0.6705846786499023 -0.6370822787284851 0.38005563616752625
vn -0.5656841397285461 -0.27078214287757874 -0.7788957357406616
vn 0.7073317766189575 0.3367600739002228 0.6215097904205322
vn -0.1415882259607315 0.4801892042160034 0.865662157535553
vn -0.7245704531669617 0.2151397168636322 0.654761552810669
vn 0.584111750125885 -0.7877518534660339 -0.1956029236316681
vn -0.4819042980670929 -0.21770313382148743 0.8487483263015747
vn -0.05529407784342766 0.8667927384376526 -0.4955933690071106
vn 0.37646880745887756 0.847751259803772 0.3736162483692169
vn -0.5589996576309204 0.43241018056869507 -0.7074890732765198
vn -0.9433000087738037 0.005663253366947174 0.33189302682876587
vn -0.7875581979751587 0.21329566836357117 -0.578149676322937
vn 0.5247004628181458 -0.07666559517383575 0.8478277921676636
vn -0.9097651839256287 0.0675601214170456 -0.4095888137817383
vn 0.23588073253631592 -0.9032833576202393 -0.358384370803833
vn -0.8093243837356567 -0.5872682929039001 -0.010475228540599346
vn 0.6685991287231445 0.24498403072357178 0.7021097540855408
vn 0.3326758146286011 -0.7746907472610474 -0.5377554893493652
vn 0.8583552241325378 0.10205546021461487 0.5028032064437866
vn -0.34823596477508545 -0.7821314334869385 -0.5167225003242493
vn -0.730454683303833 -0.32591161131858826 -0.6001812815666199
vn -0.6570510864257812 -0.052883658558130264 -0.7519888877868652
vn -0.6113171577453613 -0.5629489421844482 -0.556219220161438
vn 0.31169652938842773 0.11466547846794128 0.9432375431060791
vn 0.201250821352005 -0.144509956240654 0.9688214659690857
vn -0.27916479110717773 -0.8704372644424438 -0.4054701030254364
vn 0.7416542768478394 0.09454827010631561 0.6640855073928833
vn 0.7143073678016663 0.5604883432388306 0.419067919254303
vn 0.7495141625404358 0.4688793122768402 0.4673123359680176
vn 0.7235760688781738 0.5186533331871033 0.45545172691345215
vn 0.7419057488441467 0.19419392943382263 -0.6417666673660278
vn -0.2964581549167633 -0.28502893447875977 -0.9115212559700012
vn -0.5010215640068054 0.051956657320261 -0.8638736605644226
vn -0.7393872141838074 0.06873129308223724 -0.6697631478309631
vn -0.5032862424850464 0.0009208545088768005 -0.8641193509101868
vn -0.44217872619628906 -0.23370672762393951 -0.8659440875053406
vn 0.13992175459861755 -0.12721842527389526 0.981955885887146
vn 0.44737502932548523 -0.09881617873907089 0.8888705968856812
vn -0.26720157265663147 -0.7087699770927429 0.6528770327568054
vn -0.8441370129585266 -0.2124679833650589 0.492229700088501
vn -0.7572323679924011 -0.2715665400028229 -0.5940124988555908
vn 0.6068775057792664 0.1340797245502472 0.7834042906761169
vn 0.3079034090042114 0.8448763489723206 -0.4374692738056183
vn -0.24161992967128754 0.8602577447891235 -0.4489726126194
vn -0.4070824086666107 0.910477876663208 -0.07289651781320572
vn 0.30473002791404724 0.6762468814849854 0.670693576335907
vn 0.5804121494293213 0.6019657254219055 -0.5484150648117065
vn -0.6936593651771545 0.31226032972335815 -0.6490995287895203
vn -0.9368931651115417 0.1566823124885559 -0.3125411570072174
vn -0.7404606938362122 0.6433988213539124 0.19430896639823914
vn -0.29437699913978577 -0.85066819190979 0.43555232882499695
vn 0.1917218714952469 -0.37399205565452576 0.9073988795280457
vn 0.11872847378253937 0.2731172442436218 0.9546259045600891
vn -0.9307159781455994 -0.30052584409713745 -0.20845115184783936
vn 0.05497372895479202 0.5361166596412659 0.8423519134521484
vn -0.38062340021133423 0.84641033411026 0.37244507670402527
vn -0.8349834084510803 -0.05403687059879303 0.5476155281066895
vn -0.615094780921936 0.35207486152648926 0.7054798007011414
vn -0.3457425534725189 -0.8132539987564087 0.4680597186088562
f 1//1 2//2 3//3
f 3//3 4//4 1//1
f 5//5 2//2 1//1
f 6//6 1//1 5//5
f 6//6 7//7 1//1
f 8//8 1//1 4//4
f 1//1 7//7 4//4
f 2//2 9//9 3//3
f 2//2 10//10 11//11
f 9//9 2//2 11//11
f 2//2 5//5 10//10
f 3//3 9//9 12//12
f 12//12 13//13 3//3
f 13//13 14//14 3//3
f 15//15 3//3 14//14
f 15//15 4//4 3//3
f 16//16 4//4 15//15
f 4//4 16//16 17//17
f 8//8 4//4 18//18
f 18//18 4//4 17//17
f 7//7 4//4 8//8
f 6//6 19//19 5//5
f 5//5 19//19 20//20
f 5//5 20//20 10//10
f 8//8 19//19 6//6
f 7//7 8//8 6//6
f 21//21 19//19 8//8
f 8//8 22//22 21//21
f 8//8 18//18 23//23
f 22//22 8//8 23//23
f 12//12 9//9 24//24
f 9//9 11//11 25//25
f 24//24 9//9 25//25
f 10//10 26//26 11//11
f 20//20 26//26 10//10
f 11//11 26//26 25//25
f 13//13 12//12 27//27
f 27//27 12//12 24//24
f 27//27 28//28 13//13
f 13//13 28//28 14//14
f 14//14 29//29 30//30
f 14//14 28//28 29//29
f 14//14 31//31 15//15
f 32//32 31//31 14//14
f 30//30 32//32 14//14
f 15//15 33//33 16//16
f 15//15 31//31 34//34
f 33//33 15//15 34//34
f 35//35 16//16 36//36
f 16//16 33//33 37//37
f 38//38 16//16 39//39
f 17//17 16//16 38//38
f 36//36 16//16 37//37
f 16//16 40//40 41//41
f 16//16 35//35 40//40
f 16//16 41//41 39//39
f 42//42 18//18 17//17
f 38//38 42//42 17//17
f 43//43 44//44 18//18
f 43//43 18//18 45//45
f 44//44 23//23 18//18
f 46//46 18//18 42//42
f 45//45 18//18 46//46
f 19//19 47//47 48//48
f 19//19 48//48 20//20
f 21//21 49//49 19//19
f 19//19 50//50 47//47
f 49//49 50//50 19//19
f 48//48 26//26 20//20
f 21//21 51//51 49//49
f 21//21 22//22 51//51
f 22//22 52//52 53//53
f 22//22 53//53 51//51
f 22//22 23//23 52//52
f 54//54 23//23 55//55
f 44//44 55//55 23//23
f 56//56 23//23 57//57
f 57//57 23//23 54//54
f 52//52 23//23 56//56
f 27//27 24//24 58//58
f 24//24 25//25 59//59
f 58//58 24//24 59//59
f 25//25 26//26 59//59
f 60//60 61//61 26//26
f 59//59 26//26 61//61
f 60//60 26//26 48//48
f 62//62 27//27 58//58
f 28//28 27//27 62//62
f 28//28 62//62 63//63
f 28//28 63//63 29//29
f 30//30 29//29 64//64
f 64//64 29//29 65//65
f 65//65 29//29 63//63
f 32//32 30//30 66//66
f 64//64 66//66 30//30
f 46//46 31//31 32//32
f 34//34 31//31 46//46
f 46//46 32//32 66//66
f 37//37 33//33 34//34
f 37//37 34//34 39//39
f 39//39 34//34 42//42
f 34//34 46//46 42//42
f 36//36 67//67 35//35
f 68//68 35//35 67//67
f 39//39 41//41 35//35
f 39//39 35//35 68//68
f 35//35 69//69 40//40
f 69//69 35//35 70//70
f 71//71 70//70 35//35
f 71//71 35//35 41//41
f 36//36 72//72 67//67
f 72//72 36//36 37//37
f 72//72 37//37 39//39
f 39//39 42//42 38//38
f 68//68 67//67 39//39
f 67//67 72//72 39//39
f 40//40 71//71 41//41
f 40//40 69//69 71//71
f 73//73 44//44 43//43
f 43//43 53//53 73//73
f 74//74 43//43 45//45
f 43//43 74//74 53//53
f 75//75 44//44 73//73
f 55//55 44//44 75//75
f 45//45 46//46 74//74
f 66//66 76//76 46//46
f 46//46 76//76 74//74
f 48//48 47//47 60//60
f 60//60 47//47 61//61
f 50//50 61//61 47//47
f 49//49 62//62 50//50
f 62//62 49//49 77//77
f 49//49 51//51 77//77
f 58//58 61//61 50//50
f 50//50 62//62 58//58
f 53//53 77//77 51//51
f 53//53 52//52 73//73
f 52//52 75//75 73//73
f 52//52 56//56 75//75
f 53//53 74//74 77//77
f 54//54 55//55 70//70
f 54//54 70//70 71//71
f 78//78 57//57 54//54
f 54//54 69//69 78//78
f 69//69 54//54 71//71
f 75//75 79//79 55//55
f 55//55 79//79 70//70
f 56//56 57//57 79//79
f 56//56 79//79 75//75
f 57//57 70//70 79//79
f 78//78 70//70 57//57
f 61//61 58//58 59//59
f 62//62 77//77 63//63
f 74//74 65//65 63//63
f 74//74 63//63 77//77
f 64//64 80//80 66//66
f 64//64 81//81 82//82
f 82//82 80//80 64//64
f 83//83 81//81 64//64
f 83//83 64//64 65//65
f 84//84 83//83 65//65
f 85//85 84//84 65//65
f 85//85 65//65 86//86
f 74//74 86//86 65//65
f 66//66 80//80 76//76
f 78//78 69//69 70//70
f 74//74 76//76 86//86
f 76//76 87//87 88//88
f 89//89 76//76 88//88
f 86//86 76//76 89//89
f 90//90 76//76 80//80
f 76//76 90//90 87//87
f 90//90 80//80 91//91
f 92//92 80//80 93//93
f 91//91 80//80 92//92
f 80//80 82//82 93//93
f 94//94 82//82 81//81
f 83//83 95//95 81//81
f 81//81 95//95 94//94
f 93//93 82//82 94//94
f 95//95 83//83 84//84
f 95//95 84//84 96//96
f 84//84 85//85 97//97
f 84//84 97//97 96//96
f 85//85 98//98 99//99
f 85//85 99//99 97//97
f 98//98 85//85 86//86
f 98//98 86//86 89//89
f 87//87 100//100 88//88
f 90//90 101//101 87//87
f 101//101 100//100 87//87
f 102//102 89//89 88//88
f 102//102 88//88 103//103
f 88//88 100//100 103//103
f 104//104 89//89 103//103
f 103//103 89//89 102//102
f 89//89 104//104 98//98
f 91//91 105//105 90//90
f 90//90 105//105 101//101
f 91//91 92//92 106//106
f 107//107 91//91 106//106
f 108//108 91//91 107//107
f 91//91 108//108 109//109
f 109//109 105//105 91//91
f 92//92 93//93 110//110
f 92//92 110//110 106//106
f 110//110 93//93 94//94
f 110//110 94//94 95//95
f 110//110 95//95 96//96
f 106//106 110//110 96//96
f 106//106 96//96 97//97
f 107//107 106//106 97//97
f 108//108 97//97 111//111
f 97//97 99//99 111//111
f 107//107 97//97 108//108
f 99//99 98//98 111//111
f 98//98 104//104 112//112
f 111//111 98//98 113//113
f 98//98 112//112 113//113
f 114//114 103//103 100//100
f 115//115 100//100 101//101
f 114//114 100//100 115//115
f 105//105 116//116 101//101
f 101//101 116//116 115//115
f 114//114 104//104 103//103
f 117//117 104//104 114//114
f 112//112 104//104 117//117
f 118//118 105//105 109//109
f 116//116 105//105 118//118
f 119//119 109//109 108//108
f 111//111 119//119 108//108
f 118//118 109//109 119//119
f 111//111 113//113 119//119
f 112//112 120//120 121//121
f 113//113 112//112 121//121
f 117//117 120//120 112//112
f 113//113 118//118 119//119
f 113//113 121//121 116//116
f 116//116 118//118 113//113
f 115//115 122//122 114//114
f 115//115 122//122 114//114
f 117//117 114//114 122//122
f 115//115 120//120 122//122
f 115//115 121//121 120//120
f 116//116 121//121 115//115
f 122//122 120//120 117//117
