# Generated by Visualization Toolkit
v 0.01092199981212616 -0.3634360134601593 -0.0022189998999238014
v -0.01257999986410141 -0.37861499190330505 -0.01083999965339899
v 0.013027999550104141 -0.361501008272171 0.010207000188529491
v 0.01486899983137846 -0.37428298592567444 0.005665999837219715
v 0.010621000081300735 -0.34775999188423157 -0.0033050000201910734
v 0.010068999603390694 -0.3778190016746521 -0.003166999900713563
v -0.000307999987853691 -0.3604179918766022 0.01635799929499626
v -0.006345999892801046 -0.37984099984169006 -0.013175000436604023
v 0.00368200009688735 -0.3614700138568878 -0.01243400014936924
v -0.009658999741077423 -0.3609299957752228 -0.009914999827742577
v -0.02396100014448166 -0.3716740012168884 -0.006635999772697687
v -0.02552800066769123 -0.38203001022338867 -0.001151000033132732
v -0.011549999937415123 -0.3807789981365204 -0.003172999946400523
v -0.005034999921917915 -0.37449100613594055 -0.022569000720977783
v -0.005737000145018101 -0.3616499900817871 -0.017028000205755234
v -0.000653000024612993 -0.3835909962654114 -0.01922300085425377
v -0.0026279999874532223 -0.38109099864959717 0.0013170000165700912
v 0.013407000340521336 -0.3723909854888916 0.01660900004208088
v 0.010583000257611275 -0.34773901104927063 0.007277000229805708
v 0.010414999909698963 -0.3836610019207001 0.014050999656319618
v 0.006593999918550253 -0.3828440010547638 0.007331999950110912
v 0.012551999650895596 -0.31124499440193176 -0.0030819999519735575
v 0.002597999991849065 -0.3480519950389862 -0.01208299957215786
v 0.0040799998678267 -0.3779880106449127 -0.017878999933600426
v 0.005020999815315008 -0.3845059871673584 -0.0031789999920874834
v 0.004017000086605549 -0.3714529871940613 0.02238599956035614
v -0.007978999987244606 -0.3582409918308258 0.0143630001693964
v 0.00012199999764561653 -0.3468039929866791 0.011943000368773937
v -0.013929000124335289 -0.3592590093612671 -0.0018019999843090773
v -0.009216999635100365 -0.34680798649787903 -0.006273999810218811
v -0.004933999851346016 -0.3471490144729614 -0.013062000274658203
v -0.025944000110030174 -0.3752950131893158 -0.0026499999221414328
v -0.022727999836206436 -0.3833799958229065 0.003792000003159046
v -0.019548000767827034 -0.3823769986629486 0.010301999747753143
v -0.010412000119686127 -0.3822369873523712 0.005919000133872032
v 0.000813000020571053 -0.38033801317214966 0.011055000126361847
v 0.013275000266730785 -0.3813529908657074 0.023056000471115112
v 0.009738000109791756 -0.31061598658561707 0.0015849999617785215
v 0.009499000385403633 -0.3916639983654022 0.0158929992467165
v 0.012186000123620033 -0.27281099557876587 -0.003367000026628375
v 0.0063669998198747635 -0.3099749982357025 -0.012645999900996685
v 0.01691100001335144 -0.2734920084476471 -0.009696999564766884
v 0.004217999987304211 -0.38062000274658203 0.026305999606847763
v -0.006341000087559223 -0.36821499466896057 0.022415999323129654
v -0.015627000480890274 -0.370061993598938 0.012609000317752361
v -0.01285099983215332 -0.35848599672317505 0.005685000214725733
v -0.007395999971777201 -0.34681999683380127 0.01140500046312809
v 0.0021550001110881567 -0.30980199575424194 0.006051000207662582
v -0.020772000774741173 -0.37042099237442017 0.005288999993354082
v -0.010906999930739403 -0.34630200266838074 0.0012809999752789736
v -0.0046709999442100525 -0.3102790117263794 -0.01231900043785572
v -0.006748999934643507 -0.31045401096343994 -0.0035409999545663595
v -0.014418000355362892 -0.3814150094985962 0.016293000429868698
v -0.0031419999431818724 -0.38971200585365295 0.018479999154806137
v 0.010065999813377857 -0.38881900906562805 0.02322700060904026
v 0.005470000207424164 -0.2718749940395355 0.002145000034943223
v 0.002113000024110079 -0.3939709961414337 0.018331000581383705
v 0.009279999881982803 -0.23531000316143036 0.0003769999893847853
v 0.0165570005774498 -0.23572400212287903 -0.006424999795854092
v 0.009620999917387962 -0.273404985666275 -0.014661000110208988
v 0.01837100088596344 -0.23623499274253845 -0.014541000127792358
v 0.0065100002102553844 -0.38967299461364746 0.025498999282717705
v -0.00457700015977025 -0.37882199883461 0.026643000543117523
v -0.005797000136226416 -0.30970799922943115 0.005621000193059444
v -0.0027089999057352543 -0.27264198660850525 0.0032599999103695154
v -0.0023139999248087406 -0.27714401483535767 -0.011127999983727932
v -0.004813000094145536 -0.2740199863910675 -0.005348000209778547
v -0.010369000025093555 -0.38600799441337585 0.022477999329566956
v 0.0010860000038519502 -0.38906699419021606 0.02737800031900406
v 0.0018710000440478325 -0.2349269986152649 0.0034149999264627695
v 0.003287999890744686 -0.20111100375652313 0.0030040000565350056
v 0.011878999881446362 -0.20037099719047546 0.0010140000376850367
v 0.018174000084400177 -0.2016499936580658 -0.0056570000015199184
v 0.009638999588787556 -0.23706600069999695 -0.015518000349402428
v 0.021522000432014465 -0.20202499628067017 -0.013577999547123909
v 0.012236000038683414 -0.20169299840927124 -0.01547400001436472
v -0.0022330000065267086 -0.23423999547958374 -0.0034990001004189253
v 0.002032000105828047 -0.23550599813461304 -0.013489999808371067
v -0.0016449999529868364 -0.2013089954853058 -0.0024999999441206455
v 0.00850099977105856 -0.16286000609397888 0.00456500006839633
v 0.0012440000427886844 -0.16311199963092804 0.0019829999655485153
v 0.01382800005376339 -0.16350099444389343 0.0004360000020824373
v 0.018498999997973442 -0.16380199790000916 -0.0045540002174675465
v 0.00304899993352592 -0.20144400000572205 -0.013638000003993511
v 0.02168400026857853 -0.16426800191402435 -0.014613999985158443
v 0.009762999601662159 -0.16239100694656372 -0.014612000435590744
v -0.0009050000226125121 -0.20194199681282043 -0.011156000196933746
v -0.0022060000337660313 -0.16154399514198303 -0.0009529999806545675
v 0.010219999589025974 -0.12742599844932556 0.003470000112429261
v 0.004528000019490719 -0.12838999927043915 0.005644999910145998
v -0.0045289997942745686 -0.1261029988527298 -0.002710999920964241
v 0.01592000015079975 -0.12703099846839905 -0.0017999999690800905
v 0.02241699956357479 -0.1272449940443039 -0.008705000393092632
v -0.0013289999915286899 -0.16244199872016907 -0.007579000201076269
v 0.02234400063753128 -0.12625400722026825 -0.013492000289261341
v 0.009422999806702137 -0.1256520003080368 -0.014214999973773956
v -0.002256999956443906 -0.12625500559806824 -0.009909000247716904
v 0.009278999641537666 -0.08654599636793137 0.005402000155299902
v -0.0012199999764561653 -0.08739899843931198 0.007903999648988247
v -0.007619999814778566 -0.08705999702215195 0.0013510000426322222
v -0.006384000182151794 -0.08786100149154663 -0.009349999949336052
v 0.021122999489307404 -0.08648400008678436 -0.0050130002200603485
v 0.021862000226974487 -0.08702699840068817 -0.015522999688982964
v 0.006990999914705753 -0.08707500249147415 -0.01777699962258339
v -0.002449000021442771 -0.08730299770832062 -0.016793999820947647
v -0.0014430000446736813 -0.07288400083780289 0.011428999714553356
v 0.010727999731898308 -0.060527000576257706 0.00686000008136034
v 0.01547200046479702 -0.07208699733018875 0.0004689999914262444
v -0.012993000447750092 -0.05975399911403656 0.005493999924510717
v -0.00837900023907423 -0.07236699759960175 -0.006316000130027533
v 0.02761399932205677 -0.06657800078392029 -0.008546000346541405
v 0.023989999666810036 -0.06916999816894531 -0.0030449999030679464
v 0.013465000316500664 -0.07604800164699554 -0.01819000020623207
v 0.01627100072801113 -0.06857100129127502 -0.020322000607848167
v 0.0238840002566576 -0.06899899989366531 -0.016651000827550888
v -0.0041970000602304935 -0.05826300010085106 -0.021763000637292862
v 0.010486000217497349 -0.05576999858021736 -0.023892000317573547
v -0.008932000026106834 -0.05865100026130676 -0.017527999356389046
v -0.002443999983370304 -0.06235399842262268 0.013969000428915024
v 0.008600999601185322 -0.05092199891805649 0.010497000068426132
v 0.02070700004696846 -0.0588500015437603 0.0005760000203736126
v -0.017280999571084976 -0.04639900103211403 -0.012085000053048134
v -0.025219999253749847 -0.03959900140762329 -0.012091999873518944
v -0.02431200072169304 -0.04735200107097626 0.006659999955445528
v -0.02250099927186966 -0.047520000487565994 0.013659000396728516
v -0.015444000251591206 -0.049644000828266144 0.022141000255942345
v 0.024991000071167946 -0.059978000819683075 -0.016784999519586563
v 0.027319999411702156 -0.05511299893260002 -0.010888000018894672
v 0.02010600082576275 -0.0527539998292923 -0.02450699917972088
v -0.01533500012010336 -0.04766499996185303 -0.020145999267697334
v -0.011750999838113785 -0.045079998672008514 -0.030202999711036682
v 0.00981799978762865 -0.036497000604867935 -0.035847000777721405
v -0.0055669997818768024 -0.04846300184726715 0.024632999673485756
v 0.018730999901890755 -0.04165399819612503 0.006256000138819218
v -0.005969000048935413 -0.020982999354600906 -0.007567000109702349
v 0.0034910000395029783 -0.022902999073266983 -0.01335499994456768
v 0.02170800045132637 -0.04567199945449829 -0.0033130000811070204
v -0.026132000610232353 -0.02980400063097477 -0.013679999858140945
v -0.024591000750660896 -0.02675499953329563 -0.009538000449538231
v -0.027334000915288925 -0.031321000307798386 -0.020901000127196312
v -0.02593499980866909 -0.0422619991004467 -0.0253090001642704
v -0.022255999967455864 -0.028325000777840614 -0.0032110000029206276
v -0.02969300001859665 -0.03972499817609787 0.001129999989643693
v -0.02989800088107586 -0.031000999733805656 0.015541999600827694
v -0.024302000179886818 -0.03266099840402603 0.027350999414920807
v -0.02930399961769581 -0.03229900076985359 0.02121400088071823
v -0.0047240001149475574 -0.02722099982202053 0.03064199909567833
v -0.01739099994301796 -0.0314829982817173 0.030559999868273735
v 0.021935999393463135 -0.050659000873565674 -0.018686000257730484
v 0.017860999330878258 -0.031780000776052475 -0.02550699934363365
v -0.015780000016093254 -0.036722999066114426 -0.03697500005364418
v -0.0007249999907799065 -0.028390999883413315 -0.03822699934244156
v 0.012097000144422054 -0.02495099976658821 -0.028332000598311424
v 0.011615999974310398 -0.03364599868655205 0.018149999901652336
v 0.017004000023007393 -0.023963000625371933 0.005332999862730503
v -0.0007810000097379088 -0.022569000720977783 -0.0008590000215917826
v -0.003705000039190054 -0.02320699952542782 -0.02027300000190735
v -0.011229000054299831 -0.01799900084733963 -0.006175999995321035
v -0.006783000193536282 -0.021302999928593636 0.0001900000061141327
v 0.010804999619722366 -0.0217909999191761 0.004011999815702438
v 0.014996999874711037 -0.02532700076699257 -0.009314999915659428
v 0.008000999689102173 -0.023806000128388405 -0.020111000165343285
v -0.01587500050663948 -0.025530999526381493 -0.02131599932909012
v -0.01958099938929081 -0.021935999393463135 -0.00725100003182888
v -0.025700999423861504 -0.030119000002741814 -0.027612999081611633
v -0.02181299962103367 -0.03512800112366676 -0.03351199999451637
v -0.016964999958872795 -0.02696399949491024 0.009693999774754047
v -0.018364999443292618 -0.02157299965620041 0.002463999902829528
v -0.02676899917423725 -0.0322440005838871 0.007493000011891127
v -0.024404000490903854 -0.029841000214219093 0.01171599980443716
v -0.017869999632239342 -0.029830999672412872 0.015995999798178673
v -0.007327999919652939 -0.028056999668478966 0.016845999285578728
v 0.0010639999527484179 -0.02565000019967556 0.025397000834345818
v 0.015653999522328377 -0.02689800038933754 -0.016169000416994095
v -0.007720000110566616 -0.022540999576449394 -0.034432001411914825
v -0.01992099918425083 -0.027247000485658646 -0.034637998789548874
v -0.000770999991800636 -0.020941000431776047 -0.03243099898099899
v 0.007350000087171793 -0.022268999367952347 -0.02586599998176098
v 0.007234000135213137 -0.023226000368595123 0.01910500042140484
v 0.010727999731898308 -0.02313300035893917 0.00925000011920929
v -0.004017000086605549 -0.01862199977040291 0.005979000125080347
v -0.01271199993789196 -0.018279999494552612 0.004089000169187784
v 0.002919000107795 -0.021066000685095787 0.005078000016510487
v -0.01065799966454506 -0.02431900054216385 -0.021209999918937683
v -0.011983999982476234 -0.017937999218702316 -0.0019039999460801482
v 0.005049999803304672 -0.02130500040948391 0.01232600025832653
vn 0.9898561835289001 -0.14187367260456085 -0.00751041155308485
vn -0.39870497584342957 -0.7649875283241272 -0.5057948231697083
vn 0.9618954658508301 0.06939969956874847 0.26446324586868286
vn 0.9835702776908875 -0.177768275141716 -0.03142932057380676
vn 0.9288813471794128 0.026060031726956367 -0.3694596290588379
vn 0.9368986487388611 -0.3478762209415436 -0.03468563035130501
vn 0.4377700686454773 0.2991383373737335 0.8478640913963318
vn -0.3616674542427063 -0.8226827383041382 0.43862247467041016
vn 0.7178894877433777 0.0939323827624321 -0.6897907853126526
vn -0.7453279495239258 0.3171629309654236 -0.5864247679710388
vn -0.7521437406539917 0.22426563501358032 -0.6196650862693787
vn -0.6731287240982056 -0.6607704162597656 -0.332084596157074
vn 0.06884083151817322 -0.9669705629348755 -0.2454155534505844
vn -0.19150970876216888 -0.044196825474500656 -0.9804951548576355
vn -0.1948871612548828 0.2807080149650574 -0.9397988319396973
vn -0.17744791507720947 -0.8160118460655212 -0.55012446641922
vn -0.16864240169525146 -0.980038583278656 0.10528149455785751
vn 0.8615654110908508 0.23464636504650116 0.45016244053840637
vn 0.7806494235992432 0.17103637754917145 0.6011097431182861
vn 0.7432575821876526 -0.5610268712043762 -0.3644405007362366
vn 0.3075919449329376 -0.9418233633041382 0.13548392057418823
vn 0.9987837076187134 -0.041925087571144104 -0.025948651134967804
vn 0.5368112921714783 0.041950467973947525 -0.8426587581634521
vn 0.6872331500053406 0.02112904191017151 -0.7261295318603516
vn 0.3405633270740509 -0.9262421727180481 0.16153034567832947
vn 0.26188337802886963 0.5003721117973328 0.8252544403076172
vn -0.4622655510902405 0.4335884749889374 0.7735059857368469
vn 0.18155692517757416 0.2171608954668045 0.9591028690338135
vn -0.8564321398735046 0.5003275275230408 -0.12726478278636932
vn -0.916778564453125 0.1303640455007553 -0.37752118706703186
vn -0.448506236076355 0.11942540854215622 -0.885765016078949
vn -0.9770157933235168 0.1861974596977234 0.10378225892782211
vn -0.14584988355636597 -0.9883909821510315 -0.04255777597427368
vn -0.8016753792762756 -0.25747376680374146 0.5394662022590637
vn 0.09652538597583771 -0.9953198432922363 0.00459262914955616
vn -0.14683865010738373 -0.9415715336799622 -0.3031194508075714
vn 0.8855835199356079 0.0015129359671846032 0.46447768807411194
vn 0.6509668827056885 0.08010315150022507 0.7548680305480957
vn 0.485730916261673 -0.6059206128120422 -0.6300203800201416
vn 0.7417992353439331 -0.0016469816910102963 0.6706201434135437
vn 0.4181481897830963 -0.08013676106929779 -0.9048371315002441
vn 0.9805462956428528 -0.09930863231420517 -0.16931268572807312
vn 0.2529037892818451 0.1753208339214325 0.9514737725257874
vn -0.226904034614563 0.4362936317920685 0.8707252144813538
vn -0.7667322158813477 0.31145185232162476 0.5613549947738647
vn -0.8512787818908691 0.407166451215744 0.33096814155578613
vn -0.5665941834449768 0.21362510323524475 0.7958237528800964
vn 0.16849808394908905 0.10833101719617844 0.9797309041023254
vn -0.8431087136268616 0.3932937979698181 0.3667258024215698
vn -0.9813998341560364 0.1778877079486847 0.07218199968338013
vn -0.6231349110603333 0.03972874954342842 -0.7811046838760376
vn -0.9852921962738037 0.07735111564397812 -0.15236803889274597
vn -0.6811665892601013 -0.6812521815299988 0.26815566420555115
vn -0.4468540549278259 -0.7701005935668945 -0.4552654027938843
vn 0.6093971729278564 -0.528689980506897 0.5908654928207397
vn 0.41539427638053894 0.025687480345368385 0.9092787504196167
vn 0.0046242764219641685 -0.9916657209396362 0.12875409424304962
vn 0.5073932409286499 -0.024949535727500916 0.86135333776474
vn 0.8335797786712646 -0.04129863902926445 0.5508530139923096
vn 0.1118517741560936 -0.04769677668809891 -0.9925795793533325
vn 0.7914135456085205 -0.0629720538854599 -0.6080289483070374
vn 0.33281832933425903 -0.374403715133667 0.8654788136482239
vn -0.3503755033016205 0.1438411921262741 0.9254980683326721
vn -0.8198602199554443 0.12218558043241501 0.5593746304512024
vn -0.5464035868644714 0.08174574375152588 0.8335230946540833
vn -0.6762554049491882 0.033773187547922134 -0.7358927130699158
vn -0.9905158877372742 0.06662008166313171 -0.12016710638999939
vn -0.6716394424438477 -0.5477374196052551 0.4988829493522644
vn -0.24465028941631317 -0.6325093507766724 0.7349000573158264
vn -0.3253454864025116 0.025076325982809067 0.9452626705169678
vn -0.1881893128156662 -0.016405818983912468 0.981995701789856
vn 0.5500413775444031 -0.0459304079413414 0.833873450756073
vn 0.8509079813957214 -0.04596683382987976 0.5232998132705688
vn -0.12983989715576172 -0.010358830913901329 -0.991480827331543
vn 0.9635234475135803 -0.03898497670888901 -0.26476946473121643
vn 0.020840167999267578 0.0036040914710611105 -0.999776303768158
vn -0.9969662427902222 0.035805780440568924 0.06911018490791321
vn -0.6883678436279297 0.014964072965085506 -0.7252073884010315
vn -0.8996883034706116 -0.00212642690166831 0.43652763962745667
vn 0.20786385238170624 -0.026418529450893402 0.9778009653091431
vn -0.5779993534088135 -0.023642396554350853 0.8156946301460266
vn 0.682636022567749 -0.012151663191616535 0.7306574583053589
vn 0.8542236089706421 -0.018550172448158264 0.5195747017860413
vn -0.38129371404647827 0.030767308548092842 -0.9239417910575867
vn 0.7925996780395508 -0.014301788061857224 -0.609574556350708
vn -0.20739562809467316 0.025392411276698112 -0.9779276251792908
vn -0.9023298025131226 0.0072190044447779655 -0.43098580837249756
vn -0.9859631061553955 -0.030806973576545715 0.1640966534614563
vn 0.4966246485710144 -0.008243256248533726 0.8679261803627014
vn -0.3248170018196106 -0.0643407553434372 0.9435858726501465
vn -0.9536474347114563 -0.07545938342809677 0.29131174087524414
vn 0.701283872127533 -0.01290806196630001 0.7127652764320374
vn 0.9531775116920471 -0.01523054949939251 0.30202755331993103
vn -0.7260604500770569 0.008123261854052544 -0.6875828504562378
vn 0.49099457263946533 -0.02221537195146084 -0.8708792924880981
vn -0.2063857465982437 -0.06955061852931976 -0.975995659828186
vn -0.8198767900466919 -0.09788907319307327 -0.5641096830368042
vn 0.5322059392929077 -0.07195629924535751 0.843551516532898
vn -0.23005691170692444 -0.16206678748130798 0.9595875144004822
vn -0.9389412999153137 -0.15592803061008453 0.3067179024219513
vn -0.9523926377296448 -0.0773208811879158 -0.2949063181877136
vn 0.8138144016265869 -0.11229909956455231 0.570171058177948
vn 0.7367501258850098 -0.14957278966903687 -0.6594142913818359
vn 0.050393491983413696 -0.13423161208629608 -0.9896678328514099
vn -0.6226661205291748 -0.14925919473171234 -0.7681201100349426
vn -0.026375334709882736 -0.20764285326004028 0.9778490662574768
vn 0.5393100380897522 -0.15764327347278595 0.8272202610969543
vn 0.5644391775131226 -0.13682042062282562 0.8140568733215332
vn -0.828170657157898 -0.5244857668876648 0.197606161236763
vn -0.9607298374176025 -0.14007295668125153 -0.23953674733638763
vn 0.9917868971824646 -0.09380494058132172 0.08694476634263992
vn 0.6627063155174255 -0.1262364685535431 0.7381630539894104
vn 0.1046506017446518 -0.22075270116329193 -0.9696991443634033
vn 0.253366619348526 -0.2267196923494339 -0.940427303314209
vn 0.7186123728752136 -0.1109415665268898 -0.6865043044090271
vn -0.38223156332969666 -0.39684364199638367 -0.8345142602920532
vn 0.04060303419828415 -0.36850979924201965 -0.928736686706543
vn -0.8517822027206421 -0.3677980899810791 -0.37308377027511597
vn 0.03379971906542778 -0.5109262466430664 0.8589597344398499
vn 0.519200325012207 -0.4447551965713501 0.7298107743263245
vn 0.7237755060195923 -0.06598813086748123 0.6868730783462524
vn -0.7514033913612366 -0.6337564587593079 -0.18370012938976288
vn -0.9168742895126343 -0.39917200803756714 -0.0018307380378246307
vn -0.8079319000244141 -0.5883123278617859 0.033685922622680664
vn -0.7740703821182251 -0.5616287589073181 0.29221272468566895
vn -0.3360782265663147 -0.5862853527069092 0.7371030449867249
vn 0.8259369134902954 -0.028888564556837082 -0.5630220174789429
vn 0.9753628969192505 0.220431387424469 0.008783560246229172
vn 0.6527020335197449 -0.14688405394554138 -0.7432396411895752
vn -0.6300889849662781 -0.7370855212211609 -0.24432122707366943
vn -0.08870360255241394 -0.635895311832428 -0.7666608095169067
vn 0.38183513283729553 -0.13147160410881042 -0.9148317575454712
vn 0.30249518156051636 -0.45925772190093994 0.835211992263794
vn 0.8145013451576233 -0.13775156438350677 0.5635709166526794
vn 0.2418033927679062 0.9666233062744141 -0.08467984199523926
vn 0.10435765236616135 0.9866234660148621 -0.12523381412029266
vn 0.9659491777420044 0.2169725000858307 0.1409441977739334
vn -0.8842059969902039 0.46629586815834045 0.027347903698682785
vn -0.8755106329917908 0.47247564792633057 0.10123129934072495
vn -0.929011881351471 0.3699289858341217 -0.009453633800148964
vn -0.7634701728820801 -0.5366133451461792 -0.35938772559165955
vn -0.8954499363899231 0.3955453634262085 0.20423834025859833
vn -0.9288989901542664 0.27418673038482666 -0.24893435835838318
vn -0.8769903182983398 0.4784877896308899 0.04401488974690437
vn -0.6902496814727783 0.1520395129919052 0.7074174284934998
vn -0.8038905262947083 0.43716320395469666 0.40329688787460327
vn 0.13707098364830017 0.31809645891189575 0.9380971789360046
vn -0.3003721237182617 0.68683922290802 0.6618372201919556
vn 0.9188122153282166 0.26625826954841614 -0.2913598120212555
vn 0.9009265303611755 0.3147341310977936 -0.29878735542297363
vn -0.18955907225608826 -0.29167771339416504 -0.9375455379486084
vn 0.20113961398601532 -0.01855282299220562 -0.9793868660926819
vn 0.5851884484291077 0.7317072153091431 -0.34951266646385193
vn 0.7209911942481995 0.014432939700782299 0.6927940249443054
vn 0.7419113516807556 0.6543253064155579 0.14637671411037445
vn 0.159474715590477 0.9728891253471375 -0.16749565303325653
vn 0.02278209663927555 0.9997120499610901 -0.007530856411904097
vn 0.06769702583551407 0.9827600121498108 -0.17204613983631134
vn 0.38672420382499695 0.9213945865631104 -0.038421764969825745
vn 0.20503515005111694 0.9785277843475342 -0.02107119746506214
vn 0.38513827323913574 0.9179426431655884 -0.09513022005558014
vn 0.22331072390079498 0.9727785587310791 0.06192122772336006
vn -0.41352972388267517 0.8970432281494141 -0.15590539574623108
vn -0.578875720500946 0.8152104020118713 -0.01830107718706131
vn -0.8461868762969971 0.4331657588481903 -0.3103794455528259
vn -0.6649485230445862 -0.09966636449098587 -0.7402095198631287
vn -0.5430830717086792 0.8049197793006897 0.23909199237823486
vn -0.6921007037162781 0.6938855648040771 0.1987949013710022
vn -0.44725775718688965 0.7878950238227844 -0.4232989549636841
vn -0.29973337054252625 0.9539963603019714 -0.007123446092009544
vn -0.16705571115016937 0.960608959197998 0.22208739817142487
vn -0.2715761661529541 0.9054214954376221 0.32627952098846436
vn 0.24937179684638977 0.8058679103851318 0.5370201468467712
vn 0.7013752460479736 0.701214611530304 -0.12794896960258484
vn -0.21842417120933533 0.8787805438041687 -0.4243060052394867
vn -0.5564472675323486 0.451194703578949 -0.6977032423019409
vn 0.14135031402111053 0.9292212724685669 -0.3414206802845001
vn 0.25427043437957764 0.963306725025177 0.08594583719968796
vn 0.276602566242218 0.8767838478088379 0.3933713436126709
vn 0.3097279667854309 0.9350022077560425 0.17274080216884613
vn 0.09635389596223831 0.9921431541442871 0.07979928702116013
vn -0.27373218536376953 0.9531833529472351 0.1284998059272766
vn 0.18595881760120392 0.9652305841445923 -0.18370947241783142
vn -0.1784796118736267 0.9716774225234985 -0.15488071739673615
vn 0.04243326932191849 0.9987072944641113 0.027984270825982094
vn 0.11794663220643997 0.9660948514938354 0.22967234253883362
f 3//3 2//2 1//1
f 1//1 3//3 4//4
f 3//3 1//1 5//5
f 6//6 1//1 4//4
f 1//1 7//7 6//6
f 1//1 7//7 6//6
f 8//8 6//6 1//1
f 6//6 9//9 1//1
f 1//1 9//9 5//5
f 2//2 11//11 10//10
f 13//13 12//12 2//2
f 12//12 11//11 2//2
f 15//15 14//14 2//2
f 14//14 16//16 2//2
f 8//8 2//2 16//16
f 2//2 8//8 17//17
f 13//13 2//2 17//17
f 2//2 10//10 15//15
f 3//3 18//18 4//4
f 7//7 18//18 3//3
f 7//7 3//3 19//19
f 19//19 3//3 5//5
f 20//20 21//21 4//4
f 18//18 20//20 4//4
f 21//21 6//6 4//4
f 4//4 17//17 21//21
f 19//19 5//5 22//22
f 5//5 9//9 23//23
f 5//5 23//23 22//22
f 16//16 24//24 6//6
f 25//25 6//6 21//21
f 6//6 24//24 9//9
f 24//24 6//6 25//25
f 7//7 26//26 18//18
f 27//27 26//26 7//7
f 27//27 7//7 28//28
f 28//28 7//7 19//19
f 17//17 8//8 16//16
f 24//24 15//15 9//9
f 9//9 15//15 23//23
f 29//29 10//10 11//11
f 11//11 29//29 10//10
f 10//10 29//29 30//30
f 31//31 15//15 10//10
f 31//31 10//10 30//30
f 29//29 11//11 32//32
f 12//12 32//32 11//11
f 32//32 11//11 12//12
f 13//13 33//33 12//12
f 33//33 12//12 13//13
f 32//32 12//12 34//34
f 33//33 34//34 12//12
f 13//13 35//35 33//33
f 35//35 13//13 17//17
f 24//24 14//14 15//15
f 14//14 24//24 16//16
f 23//23 15//15 31//31
f 17//17 25//25 16//16
f 24//24 16//16 25//25
f 36//36 35//35 17//17
f 25//25 36//36 17//17
f 37//37 20//20 18//18
f 26//26 37//37 18//18
f 28//28 19//19 38//38
f 38//38 19//19 22//22
f 20//20 36//36 21//21
f 20//20 37//37 39//39
f 39//39 36//36 20//20
f 25//25 21//21 36//36
f 40//40 38//38 22//22
f 22//22 23//23 41//41
f 40//40 22//22 42//42
f 42//42 22//22 41//41
f 23//23 31//31 41//41
f 26//26 43//43 37//37
f 44//44 43//43 26//26
f 27//27 44//44 26//26
f 44//44 27//27 45//45
f 46//46 45//45 27//27
f 46//46 45//45 27//27
f 47//47 27//27 28//28
f 46//46 27//27 47//47
f 47//47 28//28 48//48
f 48//48 28//28 38//38
f 29//29 32//32 49//49
f 49//49 46//46 29//29
f 29//29 49//49 46//46
f 30//30 29//29 50//50
f 29//29 46//46 50//50
f 31//31 30//30 51//51
f 51//51 30//30 52//52
f 30//30 50//50 52//52
f 41//41 31//31 51//51
f 34//34 49//49 32//32
f 34//34 49//49 32//32
f 35//35 34//34 33//33
f 34//34 35//35 53//53
f 49//49 34//34 45//45
f 34//34 53//53 45//45
f 35//35 36//36 53//53
f 54//54 53//53 36//36
f 36//36 39//39 54//54
f 37//37 55//55 39//39
f 43//43 55//55 37//37
f 56//56 48//48 38//38
f 56//56 38//38 40//40
f 57//57 54//54 39//39
f 39//39 55//55 57//57
f 58//58 56//56 40//40
f 58//58 40//40 59//59
f 59//59 40//40 42//42
f 42//42 41//41 60//60
f 60//60 41//41 51//51
f 59//59 42//42 61//61
f 61//61 42//42 60//60
f 43//43 62//62 55//55
f 63//63 62//62 43//43
f 44//44 63//63 43//43
f 45//45 63//63 44//44
f 49//49 45//45 46//46
f 49//49 45//45 46//46
f 53//53 63//63 45//45
f 50//50 46//46 47//47
f 50//50 47//47 64//64
f 64//64 47//47 48//48
f 65//65 64//64 48//48
f 65//65 48//48 56//56
f 52//52 50//50 64//64
f 60//60 51//51 66//66
f 66//66 51//51 52//52
f 66//66 52//52 67//67
f 67//67 52//52 64//64
f 68//68 53//53 54//54
f 53//53 68//68 63//63
f 69//69 54//54 57//57
f 54//54 69//69 68//68
f 55//55 62//62 57//57
f 70//70 65//65 56//56
f 70//70 56//56 58//58
f 62//62 69//69 57//57
f 71//71 70//70 58//58
f 71//71 58//58 72//72
f 72//72 58//58 59//59
f 72//72 59//59 73//73
f 73//73 59//59 61//61
f 61//61 60//60 74//74
f 74//74 60//60 66//66
f 73//73 61//61 75//75
f 75//75 61//61 76//76
f 76//76 61//61 74//74
f 63//63 69//69 62//62
f 69//69 63//63 68//68
f 67//67 64//64 65//65
f 77//77 67//67 65//65
f 77//77 65//65 70//70
f 74//74 66//66 78//78
f 78//78 66//66 67//67
f 78//78 67//67 77//77
f 79//79 77//77 70//70
f 79//79 70//70 71//71
f 80//80 71//71 72//72
f 81//81 79//79 71//71
f 81//81 71//71 80//80
f 80//80 72//72 82//82
f 82//82 72//72 73//73
f 82//82 73//73 83//83
f 83//83 73//73 75//75
f 76//76 74//74 84//84
f 84//84 74//74 78//78
f 83//83 75//75 85//85
f 85//85 75//75 76//76
f 85//85 76//76 86//86
f 86//86 76//76 84//84
f 87//87 78//78 77//77
f 87//87 77//77 79//79
f 84//84 78//78 87//87
f 88//88 87//87 79//79
f 88//88 79//79 81//81
f 89//89 80//80 82//82
f 90//90 81//81 80//80
f 90//90 80//80 89//89
f 91//91 88//88 81//81
f 91//91 81//81 90//90
f 89//89 82//82 92//92
f 92//92 82//82 83//83
f 92//92 83//83 93//93
f 93//93 83//83 85//85
f 94//94 84//84 87//87
f 86//86 84//84 94//94
f 93//93 85//85 95//95
f 95//95 85//85 86//86
f 95//95 86//86 96//96
f 96//96 86//86 94//94
f 94//94 87//87 88//88
f 97//97 94//94 88//88
f 97//97 88//88 91//91
f 98//98 89//89 92//92
f 99//99 90//90 89//89
f 99//99 89//89 98//98
f 100//100 91//91 90//90
f 100//100 90//90 99//99
f 101//101 97//97 91//91
f 101//101 91//91 100//100
f 98//98 92//92 102//102
f 102//102 92//92 93//93
f 102//102 93//93 103//103
f 103//103 93//93 95//95
f 96//96 94//94 97//97
f 103//103 95//95 104//104
f 104//104 95//95 96//96
f 105//105 96//96 97//97
f 104//104 96//96 105//105
f 105//105 97//97 101//101
f 99//99 98//98 106//106
f 98//98 107//107 106//106
f 107//107 98//98 108//108
f 98//98 102//102 108//108
f 100//100 99//99 109//109
f 109//109 99//99 106//106
f 100//100 109//109 110//110
f 101//101 100//100 110//110
f 105//105 101//101 110//110
f 103//103 111//111 102//102
f 102//102 111//111 112//112
f 102//102 112//112 108//108
f 113//113 103//103 104//104
f 113//113 114//114 103//103
f 103//103 115//115 111//111
f 115//115 103//103 114//114
f 104//104 105//105 116//116
f 117//117 104//104 116//116
f 113//113 104//104 117//117
f 116//116 105//105 118//118
f 118//118 105//105 110//110
f 119//119 109//109 106//106
f 107//107 119//119 106//106
f 107//107 121//121 120//120
f 119//119 107//107 120//120
f 121//121 107//107 108//108
f 112//112 121//121 108//108
f 118//118 109//109 122//122
f 109//109 123//123 122//122
f 109//109 124//124 123//123
f 109//109 125//125 124//124
f 109//109 126//126 125//125
f 109//109 119//119 126//126
f 109//109 118//118 110//110
f 127//127 111//111 115//115
f 111//111 127//127 128//128
f 112//112 111//111 121//121
f 111//111 128//128 121//121
f 113//113 117//117 114//114
f 127//127 114//114 129//129
f 114//114 117//117 129//129
f 127//127 115//115 114//114
f 116//116 118//118 130//130
f 116//116 130//130 131//131
f 117//117 116//116 131//131
f 132//132 117//117 131//131
f 129//129 117//117 132//132
f 130//130 118//118 122//122
f 119//119 133//133 126//126
f 119//119 133//133 126//126
f 133//133 119//119 120//120
f 121//121 134//134 120//120
f 135//135 136//136 120//120
f 134//134 133//133 120//120
f 121//121 137//137 134//134
f 121//121 128//128 137//137
f 130//130 122//122 123//123
f 123//123 139//139 138//138
f 123//123 138//138 140//140
f 123//123 140//140 141//141
f 142//142 139//139 123//123
f 142//142 123//123 143//143
f 123//123 124//124 143//143
f 130//130 123//123 141//141
f 124//124 144//144 143//143
f 124//124 125//125 144//144
f 126//126 145//145 125//125
f 145//145 146//146 125//125
f 125//125 146//146 144//144
f 126//126 133//133 147//147
f 126//126 147//147 148//148
f 126//126 148//148 145//145
f 149//149 128//128 127//127
f 149//149 127//127 129//129
f 149//149 137//137 128//128
f 150//150 129//129 132//132
f 149//149 129//129 150//150
f 131//131 130//130 141//141
f 152//152 131//131 151//151
f 131//131 141//141 151//151
f 131//131 151//151 152//152
f 132//132 131//131 152//152
f 152//152 131//131 151//151
f 152//152 153//153 132//132
f 150//150 132//132 153//153
f 154//154 147//147 133//133
f 154//154 133//133 134//134
f 154//154 134//134 155//155
f 137//137 155//155 134//134
f 156//156 136//136 135//135
f 136//136 135//135 156//156
f 136//136 135//135 156//156
f 157//157 135//135 136//136
f 157//157 158//158 135//135
f 159//159 156//156 135//135
f 159//159 135//135 158//158
f 136//136 156//156 160//160
f 136//136 160//160 161//161
f 157//157 136//136 162//162
f 162//162 136//136 161//161
f 137//137 150//150 155//155
f 149//149 150//150 137//137
f 138//138 139//139 163//163
f 140//140 138//138 163//163
f 139//139 164//164 163//163
f 142//142 164//164 139//139
f 141//141 140//140 165//165
f 165//165 140//140 163//163
f 166//166 141//141 165//165
f 166//166 151//151 141//141
f 142//142 143//143 167//167
f 142//142 167//167 168//168
f 142//142 168//168 164//164
f 169//169 167//167 143//143
f 169//169 143//143 144//144
f 169//169 144//144 170//170
f 171//171 170//170 144//144
f 171//171 144//144 146//146
f 171//171 146//146 145//145
f 171//171 145//145 148//148
f 172//172 148//148 147//147
f 172//172 147//147 173//173
f 154//154 173//173 147//147
f 172//172 171//171 148//148
f 150//150 174//174 155//155
f 174//174 150//150 153//153
f 151//151 175//175 152//152
f 166//166 176//176 151//151
f 176//176 175//175 151//151
f 166//166 176//176 151//151
f 152//152 177//177 153//153
f 175//175 177//177 152//152
f 153//153 162//162 161//161
f 178//178 153//153 177//177
f 178//178 162//162 153//153
f 161//161 174//174 153//153
f 154//154 155//155 179//179
f 154//154 179//179 173//173
f 161//161 160//160 155//155
f 180//180 155//155 160//160
f 174//174 161//161 155//155
f 180//180 179//179 155//155
f 182//182 181//181 156//156
f 159//159 182//182 156//156
f 183//183 160//160 156//156
f 183//183 156//156 181//181
f 157//157 184//184 158//158
f 157//157 162//162 178//178
f 157//157 178//178 177//177
f 157//157 177//177 175//175
f 157//157 175//175 184//184
f 158//158 184//184 163//163
f 164//164 158//158 163//163
f 159//159 158//158 185//185
f 185//185 158//158 164//164
f 159//159 185//185 182//182
f 183//183 186//186 160//160
f 180//180 160//160 186//186
f 176//176 165//165 163//163
f 175//175 176//176 163//163
f 184//184 175//175 163//163
f 182//182 185//185 164//164
f 168//168 182//182 164//164
f 168//168 182//182 164//164
f 182//182 164//164 168//168
f 166//166 165//165 176//176
f 182//182 168//168 167//167
f 169//169 170//170 167//167
f 167//167 170//170 171//171
f 172//172 182//182 167//167
f 172//172 167//167 171//171
f 172//172 186//186 181//181
f 172//172 181//181 182//182
f 172//172 173//173 179//179
f 172//172 179//179 186//186
f 180//180 186//186 179//179
f 183//183 181//181 186//186
