# Generated by Visualization Toolkit
v 0.04547800123691559 -0.13599500060081482 -0.04709099978208542
v 0.046574000269174576 -0.1374099999666214 -0.04825599864125252
v 0.047331999987363815 -0.13746100664138794 -0.04759100079536438
v 0.04773600026965141 -0.13651099801063538 -0.04715700075030327
v 0.04631499946117401 -0.13558900356292725 -0.04695500060915947
v 0.04498999938368797 -0.13583800196647644 -0.0472479984164238
v 0.045106999576091766 -0.13524200022220612 -0.0470689982175827
v 0.04188999906182289 -0.13610899448394775 -0.048179998993873596
v 0.04777799919247627 -0.1380070000886917 -0.04826800152659416
v 0.047843001782894135 -0.13810600340366364 -0.0496629998087883
v 0.04430000111460686 -0.13753299415111542 -0.04951599985361099
v 0.04883800074458122 -0.1373859941959381 -0.047818999737501144
v 0.0481950007379055 -0.13629500567913055 -0.04758799821138382
v 0.04602300003170967 -0.1348229944705963 -0.04721200093626976
v 0.042775001376867294 -0.1353680044412613 -0.04726799950003624
v 0.044082000851631165 -0.13510799407958984 -0.04717300087213516
v 0.04521999880671501 -0.13449199497699738 -0.047529999166727066
v 0.04207000136375427 -0.13547199964523315 -0.047419000416994095
v 0.03935899958014488 -0.13425399363040924 -0.04654800146818161
v 0.03855200111865997 -0.1347229927778244 -0.047148000448942184
v 0.038718998432159424 -0.13535800576210022 -0.04918200150132179
v 0.0377889983355999 -0.1347150057554245 -0.04752200096845627
v 0.04912799969315529 -0.1376429945230484 -0.04819900169968605
v 0.04918200150132179 -0.13783599436283112 -0.04906899854540825
v 0.04782000184059143 -0.13832299411296844 -0.05042500048875809
v 0.0488630011677742 -0.13783100247383118 -0.050144001841545105
v 0.04274599999189377 -0.13668599724769592 -0.0502920001745224
v 0.04727799817919731 -0.13813799619674683 -0.05097400024533272
v 0.04506099969148636 -0.1366419941186905 -0.05200999975204468
v 0.04882200062274933 -0.13685500621795654 -0.048245999962091446
v 0.04857100173830986 -0.13654999434947968 -0.048597998917102814
v 0.04741299897432327 -0.1361909955739975 -0.05150799825787544
v 0.041832998394966125 -0.13501699268817902 -0.047221001237630844
v 0.04308300092816353 -0.1349470019340515 -0.047297000885009766
v 0.04414999857544899 -0.13466599583625793 -0.04785099998116493
v 0.04548899829387665 -0.13497400283813477 -0.04958900064229965
v 0.04471899941563606 -0.1349249929189682 -0.049545999616384506
v 0.039413001388311386 -0.13328100740909576 -0.046108998358249664
v 0.0373850017786026 -0.13435900211334229 -0.04649500176310539
v 0.04052799940109253 -0.1339160054922104 -0.04655800014734268
v 0.03683200106024742 -0.1344909965991974 -0.049727000296115875
v 0.0395749993622303 -0.13506799936294556 -0.050728000700473785
v 0.03558000177145004 -0.13415199518203735 -0.04575899988412857
v 0.04889800027012825 -0.1373250037431717 -0.049803998321294785
v 0.048631999641656876 -0.13780799508094788 -0.051368001848459244
v 0.04832400009036064 -0.13699699938297272 -0.051284998655319214
v 0.048760998994112015 -0.13722799718379974 -0.05033399909734726
v 0.042796000838279724 -0.13548900187015533 -0.051437001675367355
v 0.04108700156211853 -0.1354680061340332 -0.05100199952721596
v 0.048257000744342804 -0.13759300112724304 -0.051656000316143036
v 0.04661500081419945 -0.1366029977798462 -0.05225599929690361
v 0.045402999967336655 -0.13594800233840942 -0.05242300033569336
v 0.043234001845121384 -0.1352979987859726 -0.052046999335289
v 0.04484499990940094 -0.13499200344085693 -0.05214700102806091
v 0.04634099826216698 -0.1358260065317154 -0.05211900174617767
v 0.04471300169825554 -0.13485099375247955 -0.050301000475883484
v 0.04416799917817116 -0.1345670074224472 -0.0515189990401268
v 0.042222000658512115 -0.13421399891376495 -0.04771700128912926
v 0.041464000940322876 -0.13371600210666656 -0.04744499921798706
v 0.04348199814558029 -0.1345359981060028 -0.049355000257492065
v 0.04420600086450577 -0.1349090039730072 -0.050338998436927795
v 0.038137998431921005 -0.13256600499153137 -0.04523700103163719
v 0.03974800184369087 -0.13242900371551514 -0.04650399833917618
v 0.038235001266002655 -0.13147799670696259 -0.045159000903367996
v 0.03596000000834465 -0.1333570033311844 -0.04435399919748306
v 0.0365849994122982 -0.13300399482250214 -0.044259000569581985
v 0.036309000104665756 -0.13404999673366547 -0.05104300007224083
v 0.03685300052165985 -0.13415899872779846 -0.05090299993753433
v 0.03349100053310394 -0.13373200595378876 -0.05005799978971481
v 0.039990998804569244 -0.13436999917030334 -0.051235999912023544
v 0.03718100115656853 -0.13336099684238434 -0.051639001816511154
v 0.035259999334812164 -0.13349300622940063 -0.04486199840903282
v 0.034178998321294785 -0.13380999863147736 -0.04656499996781349
v 0.03451399877667427 -0.1334580034017563 -0.045813001692295074
v 0.03348600119352341 -0.13371500372886658 -0.04831099882721901
v 0.042139001190662384 -0.13495700061321259 -0.05151500180363655
v 0.04272900149226189 -0.1349329948425293 -0.05186399817466736
v 0.04130600020289421 -0.13484999537467957 -0.051336999982595444
v 0.043136000633239746 -0.1345749944448471 -0.05207899957895279
v 0.043650999665260315 -0.13450899720191956 -0.05189400166273117
v 0.04069200158119202 -0.13297100365161896 -0.04870200157165527
v 0.04259699955582619 -0.1345299929380417 -0.050523001700639725
v 0.04179399833083153 -0.13412800431251526 -0.05035199970006943
v 0.04190399870276451 -0.13388100266456604 -0.0497639998793602
v 0.042399998754262924 -0.13443900644779205 -0.0510529987514019
v 0.03745099902153015 -0.13207100331783295 -0.04450099915266037
v 0.037255000323057175 -0.1302890032529831 -0.04514800012111664
v 0.03741399943828583 -0.12977099418640137 -0.04989299923181534
v 0.037804000079631805 -0.13025100529193878 -0.04589100182056427
v 0.03716399893164635 -0.13070300221443176 -0.04465600103139877
v 0.036056000739336014 -0.13275699317455292 -0.04393500089645386
v 0.03576900064945221 -0.13236699998378754 -0.04422200098633766
v 0.03672099858522415 -0.13230100274085999 -0.0440559983253479
v 0.0361500009894371 -0.1335889995098114 -0.0515809990465641
v 0.03466000035405159 -0.13285799324512482 -0.05224199965596199
v 0.03438299894332886 -0.13316500186920166 -0.051812998950481415
v 0.03421499952673912 -0.13331499695777893 -0.05097699910402298
v 0.03826000168919563 -0.13203200697898865 -0.05199100077152252
v 0.03865500167012215 -0.1315629929304123 -0.05187999829649925
v 0.04069799929857254 -0.13431400060653687 -0.05112000182271004
v 0.039921000599861145 -0.1330060064792633 -0.05139400064945221
v 0.03523600101470947 -0.13277000188827515 -0.04852500185370445
v 0.03595700114965439 -0.1318109929561615 -0.04472300037741661
v 0.03582900017499924 -0.13207900524139404 -0.04744800180196762
v 0.03585299849510193 -0.13151900470256805 -0.045781999826431274
v 0.041717998683452606 -0.1345140039920807 -0.051323000341653824
v 0.03798599913716316 -0.13002599775791168 -0.05147700011730194
v 0.04128799960017204 -0.13425099849700928 -0.05087700113654137
v 0.03680700063705444 -0.13159899413585663 -0.04403200000524521
v 0.03606000170111656 -0.13030800223350525 -0.04524200037121773
v 0.03675900027155876 -0.1298390030860901 -0.04595300182700157
v 0.03655200079083443 -0.12955200672149658 -0.050606001168489456
v 0.036913998425006866 -0.12976999580860138 -0.051396001130342484
v 0.03603300079703331 -0.12955500185489655 -0.04982699826359749
v 0.03748700022697449 -0.1297920048236847 -0.05144999921321869
v 0.03641600161790848 -0.12958000600337982 -0.046650998294353485
v 0.036051999777555466 -0.13129200041294098 -0.04436799883842468
v 0.036044999957084656 -0.1318099945783615 -0.044217001646757126
v 0.03630699962377548 -0.13249699771404266 -0.05291200056672096
v 0.03745599836111069 -0.13211700320243835 -0.05241300165653229
v 0.03515499830245972 -0.1318349987268448 -0.05290500074625015
v 0.03464600071310997 -0.13263100385665894 -0.05128199979662895
v 0.0348379984498024 -0.13224700093269348 -0.05157800018787384
v 0.035335998982191086 -0.13135699927806854 -0.052903998643159866
v 0.035544998943805695 -0.13248500227928162 -0.04911499843001366
v 0.037866998463869095 -0.13163499534130096 -0.05229699984192848
v 0.0377499982714653 -0.13077999651432037 -0.052347999066114426
v 0.03562900051474571 -0.13228200376033783 -0.04834999889135361
v 0.036072999238967896 -0.1307770013809204 -0.046477001160383224
v 0.035937998443841934 -0.13126400113105774 -0.04822000116109848
v 0.03610999882221222 -0.13124600052833557 -0.047499001026153564
v 0.03575599938631058 -0.13163800537586212 -0.0485600009560585
v 0.035881999880075455 -0.13096100091934204 -0.045504000037908554
v 0.03726299852132797 -0.13046400249004364 -0.05249600112438202
v 0.03577899932861328 -0.13019099831581116 -0.04582500085234642
v 0.03573400154709816 -0.12996800243854523 -0.04643300175666809
v 0.03558899834752083 -0.12988199293613434 -0.047593001276254654
v 0.03604099899530411 -0.12970000505447388 -0.051291998475790024
v 0.03551900014281273 -0.1299709975719452 -0.05065000057220459
v 0.037151999771595 -0.12999099493026733 -0.05197500064969063
v 0.03665100038051605 -0.12982699275016785 -0.05187100172042847
v 0.03533000126481056 -0.1299780011177063 -0.050151001662015915
v 0.03544599935412407 -0.1298840045928955 -0.04853900149464607
v 0.03715899959206581 -0.13186900317668915 -0.05280200019478798
v 0.0365619994699955 -0.13208700716495514 -0.053077999502420425
v 0.03616400063037872 -0.13179199397563934 -0.05323600023984909
v 0.03550000116229057 -0.13130900263786316 -0.05149799957871437
v 0.03591899946331978 -0.13125400245189667 -0.05058399960398674
v 0.035307999700307846 -0.13140399754047394 -0.05198400095105171
v 0.03546399995684624 -0.1309259980916977 -0.05196800082921982
v 0.03570200130343437 -0.1305759996175766 -0.052577000111341476
v 0.03578599914908409 -0.13206499814987183 -0.04883800074458122
v 0.03586500138044357 -0.13164499402046204 -0.04979800060391426
v 0.03681499883532524 -0.1316249966621399 -0.05308099836111069
v 0.03594199940562248 -0.13127699494361877 -0.04891499876976013
v 0.03552599996328354 -0.13030500710010529 -0.05172999948263168
v 0.03588100150227547 -0.13064299523830414 -0.050331998616456985
v 0.03588800132274628 -0.1306779980659485 -0.04950999841094017
v 0.036065999418497086 -0.1310269981622696 -0.04993699863553047
vn -0.2599797248840332 -0.43893060088157654 0.8600873947143555
vn -0.33243101835250854 -0.8319766521453857 0.4441894590854645
vn -0.1377970576286316 -0.6805144548416138 0.7196612358093262
vn 0.25416436791419983 -0.08905354887247086 0.9630523324012756
vn 0.15789251029491425 0.20143704116344452 0.966691792011261
vn -0.22198250889778137 -0.4757823348045349 0.8510904312133789
vn -0.13138225674629211 0.1472080945968628 0.9803410768508911
vn -0.18397632241249084 -0.8073371648788452 0.560677707195282
vn -0.02402881532907486 -0.9277697801589966 0.37237846851348877
vn 0.004892904311418533 -0.9872867465019226 0.1588740050792694
vn -0.2780705988407135 -0.9596458077430725 0.041912492364645004
vn 0.5714478492736816 -0.20949430763721466 0.7934478521347046
vn 0.6420219540596008 0.6355352997779846 0.4288388788700104
vn 0.32106813788414 0.7464300394058228 0.5828872323036194
vn -0.06899165362119675 -0.3401147425174713 0.937849760055542
vn -0.09727269411087036 0.36430755257606506 0.9261847138404846
vn 0.06353281438350677 0.9648387432098389 0.2550484538078308
vn -0.031211942434310913 -0.590951144695282 0.8061032891273499
vn 0.04371810704469681 -0.5687053799629211 0.8213787078857422
vn -0.10169743746519089 -0.8595077991485596 0.5009030699729919
vn -0.3657859265804291 -0.9292495846748352 -0.05192222073674202
vn -0.22239190340042114 -0.9470396041870117 0.23164182901382446
vn 0.9775161147117615 -0.03519078716635704 0.20790335536003113
vn 0.7282131910324097 -0.6848001480102539 -0.027463817968964577
vn 0.11315441876649857 -0.9934412240982056 -0.016448182985186577
vn 0.8945759534835815 -0.40393882989883423 -0.19122575223445892
vn -0.33943891525268555 -0.7934407591819763 -0.5052058696746826
vn -0.1286620795726776 -0.8742334246635437 -0.4681474566459656
vn -0.2896144986152649 -0.6697881817817688 -0.6837450861930847
vn 0.8693279027938843 0.46806496381759644 0.15869520604610443
vn 0.7659015655517578 0.6308595538139343 -0.12414092570543289
vn 0.5192701816558838 0.7927761077880859 -0.31916236877441406
vn 0.21326389908790588 -0.008390308357775211 0.9769586324691772
vn 0.08381561189889908 0.6500608325004578 0.755245566368103
vn -0.043123383074998856 0.9766134023666382 0.21063382923603058
vn 0.22536171972751617 0.965629518032074 -0.12950579822063446
vn 0.0785570740699768 0.9943772554397583 -0.07101207226514816
vn 0.3652101755142212 -0.22848199307918549 0.9024507999420166
vn 0.14995649456977844 -0.7926640510559082 0.590928852558136
vn 0.43028464913368225 0.00009358119132230058 0.9026932716369629
vn -0.2645251452922821 -0.9533811807632446 -0.14522674679756165
vn -0.2698288559913635 -0.7556535601615906 -0.5968082547187805
vn -0.23839926719665527 -0.9322184920310974 0.2722764313220978
vn 0.9311962127685547 0.33375489711761475 -0.1465645730495453
vn 0.6246781349182129 -0.5466107130050659 -0.5576684474945068
vn 0.7944504618644714 0.4436098337173462 -0.41479966044425964
vn 0.905899167060852 0.3437744081020355 -0.2473173886537552
vn -0.40255171060562134 -0.592111349105835 -0.6981090307235718
vn -0.2467690259218216 -0.5252968668937683 -0.8143514394760132
vn 0.3298046886920929 -0.21440167725086212 -0.9193805456161499
vn 0.2586473822593689 -0.02813364751636982 -0.965562105178833
vn 0.000992381596006453 0.004830122925341129 -0.999987781047821
vn -0.3475843667984009 -0.2771296799182892 -0.8957589864730835
vn 0.24322377145290375 0.6556576490402222 -0.7148113250732422
vn 0.40555381774902344 0.48204997181892395 -0.7766298651695251
vn 0.09315111488103867 0.9913877248764038 0.09205099195241928
vn 0.29263171553611755 0.9555643796920776 -0.03554175794124603
vn 0.4756641685962677 0.7147051095962524 0.5127769112586975
vn 0.6416810154914856 0.5407437086105347 0.5439133644104004
vn 0.3451332747936249 0.9351523518562317 -0.07983233034610748
vn 0.1143736019730568 0.9919202327728271 0.054890796542167664
vn 0.5218486785888672 -0.3751855790615082 0.7661004066467285
vn 0.7144417762756348 0.5200175642967224 0.4681396186351776
vn 0.6672332882881165 0.2045479416847229 0.7162122130393982
vn -0.1858796924352646 -0.674039900302887 0.7149258255958557
vn 0.44526174664497375 -0.5046488642692566 0.739642858505249
vn -0.08628688007593155 -0.8467925786972046 -0.5248779058456421
vn -0.13769373297691345 -0.8373257517814636 -0.5290804505348206
vn -0.6520328521728516 -0.7305557131767273 -0.20283347368240356
vn 0.044449303299188614 -0.19945219159126282 -0.9788989424705505
vn -0.005265172105282545 -0.5407348871231079 -0.8411765694618225
vn -0.9113053679466248 0.12375251948833466 0.39269301295280457
vn -0.9203282594680786 -0.04137266427278519 0.3889526426792145
vn -0.863416314125061 0.09181088209152222 0.49606752395629883
vn -0.9345359802246094 0.32893288135528564 0.1358153074979782
vn -0.321222722530365 0.1966918408870697 -0.9263520836830139
vn -0.5016348361968994 -0.3032715916633606 -0.810178279876709
vn -0.1451636701822281 0.03152528777718544 -0.9889053106307983
vn -0.27716922760009766 0.42813587188720703 -0.8601609468460083
vn -0.024484733119606972 0.9956019520759583 -0.09042792022228241
vn 0.6181716322898865 0.7860394716262817 0.0023888354189693928
vn 0.21468086540699005 0.9635830521583557 -0.15943579375743866
vn 0.48873287439346313 0.7354539632797241 -0.4693054258823395
vn 0.503971517086029 0.8060063123703003 -0.31042957305908203
vn 0.019630083814263344 0.9787141680717468 -0.20428746938705444
vn 0.6121217608451843 -0.07562584429979324 0.7871389985084534
vn 0.41096633672714233 0.7417244911193848 0.530048668384552
vn 0.4161459505558014 0.9086506962776184 0.03430028632283211
vn 0.5343388319015503 0.8141434788703918 0.22727146744728088
vn 0.2812982499599457 0.5499336123466492 0.7864123582839966
vn -0.1345907598733902 -0.20604677498340607 0.9692419767379761
vn -0.7099699378013611 0.1892252266407013 0.678333580493927
vn 0.11267382651567459 0.019681259989738464 0.9934371113777161
vn 0.13960006833076477 -0.6906036138534546 -0.7096326351165771
vn -0.7708147168159485 -0.20350158214569092 -0.6036818027496338
vn -0.896327555179596 0.10941026359796524 -0.4296815097332001
vn -0.6218644976615906 0.7810416221618652 0.0570840984582901
vn 0.2986522912979126 -0.29374074935913086 -0.9080326557159424
vn 0.5226702094078064 0.09997592121362686 -0.846652626991272
vn 0.13172657787799835 0.33722996711730957 -0.9321609735488892
vn 0.5902572870254517 0.39282676577568054 -0.7051833868026733
vn -0.6226651072502136 0.7794010639190674 0.06944133341312408
vn -0.9517824649810791 0.2710091471672058 0.14375030994415283
vn -0.9322850108146667 0.3583541214466095 0.04926609620451927
vn -0.9834455251693726 0.17931663990020752 0.02608310990035534
vn 0.017568081617355347 0.7671008110046387 -0.6412860155105591
vn 0.6430844068527222 0.6714621782302856 -0.3682132661342621
vn 0.3705543577671051 0.6823483109474182 -0.6301510334014893
vn 0.2064380943775177 0.21763740479946136 0.9539483189582825
vn -0.308726966381073 0.8054585456848145 0.5058894157409668
vn -0.13202272355556488 0.9253013730049133 0.35551008582115173
vn -0.04204537346959114 0.9956098794937134 -0.08362549543380737
vn 0.12350907176733017 0.9739311337471008 -0.19027306139469147
vn -0.24581024050712585 0.968298077583313 -0.044455572962760925
vn 0.261204332113266 0.9136574864387512 -0.31145191192626953
vn -0.12166877090930939 0.9785362482070923 0.16632339358329773
vn -0.7440563440322876 0.2779885530471802 0.607538104057312
vn -0.6497982740402222 0.2696831524372101 0.7106568217277527
vn 0.13881707191467285 -0.5952470302581787 -0.7914611101150513
vn 0.49935010075569153 -0.5111770033836365 -0.6995338797569275
vn -0.5258963704109192 -0.12300547957420349 -0.8416071534156799
vn -0.8427727818489075 0.5363669991493225 0.04521586000919342
vn -0.8521700501441956 0.5068908333778381 0.12987610697746277
vn -0.8318007588386536 0.4202965795993805 -0.3625718355178833
vn -0.7970592379570007 0.5886785984039307 0.13473713397979736
vn 0.5442879796028137 -0.13150297105312347 -0.8285273909568787
vn 0.5669551491737366 0.27229052782058716 -0.7774443030357361
vn -0.8962844610214233 0.441509485244751 -0.04175586998462677
vn -0.9941473603248596 -0.017894810065627098 -0.10654044151306152
vn -0.9909300208091736 0.016711324453353882 0.13333557546138763
vn -0.9896561503410339 -0.09513463079929352 0.10737798362970352
vn -0.9680019021034241 0.2502378225326538 -0.018794959411025047
vn -0.9954373240470886 -0.09242665022611618 -0.023705272004008293
vn 0.25753700733184814 0.6053293347358704 -0.7531607151031494
vn -0.6890750527381897 0.6415490508079529 0.33703190088272095
vn -0.8785075545310974 0.430372953414917 0.2073732614517212
vn -0.9203034043312073 0.29734668135643005 0.25421786308288574
vn -0.31596639752388 0.9164597988128662 -0.24549275636672974
vn -0.9840656518936157 0.17773061990737915 0.005149256903678179
vn 0.2079041302204132 0.8587312698364258 -0.46835511922836304
vn 0.02540513500571251 0.8792145848274231 -0.475748211145401
vn -0.727613091468811 0.6763777136802673 -0.11442223936319351
vn -0.9978339076042175 0.06360651552677155 0.016788097098469734
vn 0.5478988885879517 -0.3688405454158783 -0.7508417963981628
vn 0.3416512608528137 -0.36429262161254883 -0.8663516640663147
vn -0.04074467718601227 0.06975860148668289 -0.9967314004898071
vn -0.8456531167030334 0.43778952956199646 0.3053050637245178
vn -0.9418281316757202 0.18234297633171082 0.2823314070701599
vn -0.9005027413368225 0.41589125990867615 0.12700128555297852
vn -0.9549330472946167 0.2765803933143616 0.10773131996393204
vn -0.4700566530227661 0.6360437273979187 -0.6119601726531982
vn -0.9599248170852661 0.27088069915771484 -0.07188934832811356
vn -0.9638158679008484 0.26514333486557007 -0.02752959355711937
vn 0.4342971742153168 0.03781237080693245 -0.899975597858429
vn -0.9979551434516907 0.04662926495075226 -0.04371705278754234
vn -0.9446539878845215 0.3110451102256775 -0.10430646687746048
vn -0.9207404851913452 -0.3445340394973755 0.18312117457389832
vn -0.9572980999946594 -0.2664882242679596 -0.11209125071763992
vn -0.9988097548484802 -0.03323516622185707 -0.03569793328642845
f 1//1 2//2 3//3
f 4//4 1//1 3//3
f 5//5 1//1 4//4
f 2//2 1//1 6//6
f 7//7 6//6 1//1
f 7//7 1//1 5//5
f 8//8 2//2 6//6
f 9//9 3//3 2//2
f 10//10 2//2 11//11
f 9//9 2//2 10//10
f 2//2 8//8 11//11
f 12//12 4//4 3//3
f 3//3 9//9 12//12
f 13//13 4//4 12//12
f 5//5 4//4 13//13
f 14//14 7//7 5//5
f 5//5 13//13 14//14
f 6//6 15//15 8//8
f 16//16 6//6 7//7
f 16//16 15//15 6//6
f 14//14 17//17 7//7
f 16//16 7//7 17//17
f 18//18 19//19 8//8
f 15//15 18//18 8//8
f 20//20 8//8 19//19
f 21//21 11//11 8//8
f 8//8 20//20 22//22
f 22//22 21//21 8//8
f 12//12 9//9 23//23
f 23//23 9//9 24//24
f 9//9 10//10 24//24
f 25//25 10//10 11//11
f 25//25 26//26 10//10
f 10//10 26//26 24//24
f 11//11 21//21 27//27
f 28//28 11//11 29//29
f 25//25 11//11 28//28
f 27//27 29//29 11//11
f 13//13 12//12 30//30
f 12//12 23//23 30//30
f 31//31 32//32 13//13
f 31//31 13//13 30//30
f 14//14 13//13 32//32
f 32//32 17//17 14//14
f 18//18 15//15 33//33
f 34//34 15//15 16//16
f 15//15 34//34 33//33
f 16//16 35//35 34//34
f 16//16 17//17 35//35
f 36//36 17//17 32//32
f 17//17 37//37 35//35
f 36//36 37//37 17//17
f 19//19 18//18 33//33
f 38//38 39//39 19//19
f 39//39 20//20 19//19
f 19//19 33//33 40//40
f 38//38 19//19 40//40
f 20//20 39//39 22//22
f 21//21 22//22 41//41
f 27//27 21//21 42//42
f 21//21 41//41 42//42
f 39//39 43//43 22//22
f 43//43 41//41 22//22
f 23//23 24//24 44//44
f 44//44 31//31 23//23
f 23//23 31//31 30//30
f 24//24 26//26 44//44
f 28//28 45//45 25//25
f 26//26 25//25 45//45
f 45//45 46//46 26//26
f 26//26 46//46 47//47
f 26//26 47//47 44//44
f 29//29 27//27 48//48
f 49//49 27//27 42//42
f 49//49 48//48 27//27
f 28//28 50//50 45//45
f 29//29 50//50 28//28
f 51//51 50//50 29//29
f 29//29 52//52 51//51
f 29//29 53//53 52//52
f 48//48 53//53 29//29
f 46//46 32//32 31//31
f 31//31 44//44 47//47
f 31//31 47//47 46//46
f 54//54 32//32 55//55
f 56//56 36//36 32//32
f 57//57 32//32 54//54
f 56//56 32//32 57//57
f 51//51 32//32 50//50
f 50//50 32//32 46//46
f 32//32 51//51 55//55
f 33//33 34//34 58//58
f 40//40 33//33 59//59
f 58//58 59//59 33//33
f 60//60 34//34 35//35
f 34//34 60//60 58//58
f 35//35 37//37 60//60
f 37//37 36//36 56//56
f 37//37 56//56 61//61
f 37//37 61//61 60//60
f 39//39 38//38 62//62
f 38//38 40//40 63//63
f 64//64 38//38 63//63
f 62//62 38//38 64//64
f 65//65 43//43 39//39
f 39//39 66//66 65//65
f 66//66 39//39 62//62
f 59//59 63//63 40//40
f 67//67 68//68 41//41
f 41//41 68//68 42//42
f 41//41 69//69 67//67
f 43//43 69//69 41//41
f 49//49 42//42 70//70
f 71//71 70//70 42//42
f 42//42 68//68 71//71
f 43//43 65//65 72//72
f 73//73 43//43 74//74
f 43//43 72//72 74//74
f 75//75 69//69 43//43
f 75//75 43//43 73//73
f 45//45 50//50 46//46
f 48//48 49//49 76//76
f 77//77 53//53 48//48
f 77//77 48//48 76//76
f 76//76 49//49 78//78
f 78//78 49//49 70//70
f 51//51 52//52 55//55
f 55//55 52//52 54//54
f 53//53 54//54 52//52
f 53//53 79//79 54//54
f 79//79 53//53 77//77
f 79//79 80//80 54//54
f 54//54 80//80 57//57
f 56//56 80//80 61//61
f 56//56 57//57 80//80
f 81//81 59//59 58//58
f 81//81 58//58 60//60
f 81//81 63//63 59//59
f 82//82 60//60 61//61
f 83//83 84//84 60//60
f 83//83 60//60 82//82
f 60//60 84//84 81//81
f 82//82 61//61 85//85
f 85//85 61//61 80//80
f 86//86 66//66 62//62
f 86//86 62//62 64//64
f 63//63 87//87 64//64
f 88//88 63//63 81//81
f 89//89 63//63 88//88
f 89//89 87//87 63//63
f 90//90 64//64 87//87
f 64//64 90//90 86//86
f 65//65 66//66 91//91
f 72//72 65//65 92//92
f 65//65 91//91 92//92
f 93//93 91//91 66//66
f 86//86 93//93 66//66
f 71//71 68//68 67//67
f 71//71 67//67 94//94
f 67//67 95//95 94//94
f 96//96 67//67 69//69
f 96//96 95//95 67//67
f 97//97 96//96 69//69
f 97//97 69//69 75//75
f 71//71 98//98 70//70
f 70//70 98//98 99//99
f 100//100 70//70 101//101
f 99//99 101//101 70//70
f 78//78 70//70 100//100
f 71//71 94//94 98//98
f 74//74 72//72 102//102
f 72//72 92//92 103//103
f 102//102 72//72 104//104
f 105//105 72//72 103//103
f 72//72 105//105 104//104
f 73//73 74//74 102//102
f 75//75 73//73 102//102
f 102//102 97//97 75//75
f 79//79 76//76 80//80
f 79//79 77//77 76//76
f 76//76 85//85 80//80
f 78//78 106//106 76//76
f 85//85 76//76 106//106
f 106//106 78//78 100//100
f 101//101 107//107 81//81
f 81//81 107//107 88//88
f 101//101 81//81 84//84
f 106//106 82//82 85//85
f 82//82 106//106 108//108
f 108//108 83//83 82//82
f 83//83 101//101 84//84
f 108//108 101//101 83//83
f 93//93 86//86 109//109
f 109//109 86//86 90//90
f 90//90 87//87 110//110
f 111//111 87//87 89//89
f 111//111 110//110 87//87
f 112//112 88//88 113//113
f 114//114 88//88 112//112
f 115//115 113//113 88//88
f 107//107 115//115 88//88
f 116//116 88//88 114//114
f 116//116 89//89 88//88
f 111//111 89//89 116//116
f 110//110 117//117 90//90
f 109//109 90//90 117//117
f 93//93 92//92 91//91
f 118//118 92//92 93//93
f 92//92 118//118 103//103
f 93//93 109//109 117//117
f 117//117 118//118 93//93
f 119//119 94//94 95//95
f 120//120 98//98 94//94
f 94//94 119//119 120//120
f 95//95 121//121 119//119
f 122//122 95//95 96//96
f 95//95 122//122 123//123
f 124//124 121//121 95//95
f 124//124 95//95 123//123
f 96//96 97//97 122//122
f 97//97 102//102 125//125
f 122//122 97//97 125//125
f 126//126 98//98 120//120
f 99//99 98//98 126//126
f 127//127 99//99 126//126
f 127//127 107//107 99//99
f 99//99 107//107 101//101
f 101//101 108//108 100//100
f 100//100 108//108 106//106
f 102//102 104//104 128//128
f 125//125 102//102 128//128
f 103//103 117//117 105//105
f 118//118 117//117 103//103
f 129//129 104//104 105//105
f 130//130 104//104 131//131
f 104//104 129//129 131//131
f 104//104 132//132 128//128
f 104//104 130//130 132//132
f 133//133 105//105 117//117
f 105//105 133//133 129//129
f 134//134 107//107 127//127
f 107//107 134//134 115//115
f 110//110 111//111 135//135
f 117//117 110//110 135//135
f 135//135 110//110 136//136
f 136//136 135//135 110//110
f 137//137 111//111 116//116
f 135//135 111//111 136//136
f 137//137 136//136 111//111
f 113//113 138//138 112//112
f 114//114 112//112 139//139
f 112//112 138//138 139//139
f 115//115 140//140 113//113
f 141//141 113//113 140//140
f 141//141 138//138 113//113
f 142//142 143//143 114//114
f 142//142 114//114 139//139
f 116//116 114//114 143//143
f 134//134 140//140 115//115
f 116//116 143//143 137//137
f 135//135 133//133 117//117
f 144//144 120//120 119//119
f 144//144 119//119 145//145
f 119//119 121//121 146//146
f 119//119 146//146 145//145
f 120//120 144//144 126//126
f 124//124 146//146 121//121
f 125//125 123//123 122//122
f 147//147 123//123 148//148
f 124//124 123//123 149//149
f 125//125 148//148 123//123
f 149//149 123//123 147//147
f 124//124 149//149 150//150
f 151//151 124//124 150//150
f 151//151 146//146 124//124
f 152//152 153//153 125//125
f 128//128 152//152 125//125
f 148//148 125//125 153//153
f 126//126 154//154 127//127
f 144//144 154//154 126//126
f 134//134 127//127 154//154
f 152//152 128//128 132//132
f 133//133 136//136 129//129
f 129//129 136//136 131//131
f 143//143 130//130 137//137
f 155//155 130//130 143//143
f 137//137 130//130 131//131
f 130//130 155//155 132//132
f 131//131 136//136 137//137
f 152//152 132//132 153//153
f 155//155 153//153 132//132
f 133//133 135//135 136//136
f 151//151 141//141 134//134
f 141//141 140//140 134//134
f 146//146 134//134 154//154
f 134//134 146//146 151//151
f 141//141 151//151 138//138
f 151//151 156//156 138//138
f 156//156 139//139 138//138
f 139//139 156//156 148//148
f 148//148 157//157 139//139
f 143//143 142//142 139//139
f 143//143 139//139 158//158
f 157//157 158//158 139//139
f 155//155 143//143 158//158
f 154//154 144//144 145//145
f 145//145 146//146 154//154
f 147//147 148//148 150//150
f 150//150 149//149 147//147
f 148//148 156//156 150//150
f 159//159 157//157 148//148
f 159//159 148//148 153//153
f 150//150 156//156 151//151
f 158//158 159//159 153//153
f 153//153 155//155 158//158
f 159//159 158//158 157//157
