# Generated by Visualization Toolkit
v 0.004989999812096357 -0.007899000309407711 -0.00433199992403388
v 0.004550999961793423 -0.009215000085532665 -0.0078039998188614845
v 0.006941999774426222 -0.005752000026404858 -0.003261999925598502
v 0.006033000070601702 -0.004796000197529793 -0.00042699999175965786
v 0.002157999901100993 -0.005212000105530024 -0.003513999981805682
v 0.0040420000441372395 -0.004393000155687332 -0.0010849999962374568
v 0.0031129999551922083 -0.00977300014346838 -0.011045999825000763
v -0.0005779999773949385 -0.007110999897122383 -0.009212999604642391
v 0.0064039998687803745 -0.007792999967932701 -0.008042000234127045
v 0.007613999769091606 -0.00203699991106987 -0.0034469999372959137
v 0.006341999862343073 -0.003671000013127923 0.00009300000237999484
v 0.006544000003486872 -0.002500999951735139 0.0011220000451430678
v 0.00585799990221858 -0.0031159999780356884 0.0009830000344663858
v -0.000299000006634742 -0.0031769999768584967 -0.0016850000247359276
v -0.0018269999418407679 -0.005570999812334776 -0.004184999968856573
v -0.0010319999419152737 -0.006029000040143728 -0.00597799988463521
v 0.004786999896168709 -0.0019130000146105886 0.0021860001143068075
v 0.005024000070989132 -0.008321999572217464 -0.010712999850511551
v 0.001145999995060265 -0.009879999794065952 -0.0128370001912117
v -0.006068000104278326 -0.008868999779224396 -0.0059819999150931835
v -0.003959000110626221 -0.010356999933719635 -0.013294000178575516
v -0.0012390000047162175 -0.009940000250935555 -0.013496999628841877
v 0.006155999843031168 -0.002217999892309308 -0.0096220001578331
v 0.007499000057578087 0.00020799999765586108 -0.0034680000972002745
v 0.005355000030249357 -0.0018420000560581684 0.0022499999031424522
v 0.005919999908655882 -0.0004659999976865947 0.001626000041142106
v -0.0007789999945089221 -0.0012880000285804272 -0.00045399999362416565
v 0.0037120000924915075 -0.00011100000119768083 0.003237999975681305
v -0.0024510000366717577 -0.004004000220447779 -0.002572000026702881
v -0.003713000100106001 -0.0067980000749230385 -0.0042329998686909676
v 0.0010710000060498714 -0.00810999982059002 -0.015062999911606312
v -0.0011840000515803695 -0.00836700014770031 -0.015727000311017036
v -0.007919000461697578 -0.010191000066697598 -0.005714999977499247
v -0.00824000034481287 -0.010452999733388424 -0.0019120000069960952
v -0.0034149999264627695 -0.00736499996855855 -0.016032999381422997
v -0.006550999823957682 -0.006564000155776739 -0.01434400025755167
v -0.007613999769091606 -0.01166599988937378 -0.010857000015676022
v 0.005113000050187111 0.002271000063046813 -0.007104999851435423
v 0.0019030000548809767 0.003544999985024333 -0.00824700016528368
v -0.0007970000151544809 -0.0030360000673681498 -0.015591000206768513
v 0.0014560000272467732 0.0019239999819546938 -0.01183400023728609
v -0.0017900000093504786 -0.005907000042498112 -0.01664699986577034
v 0.005204000044614077 0.001386999967508018 0.0005080000264570117
v 0.004310000222176313 0.0031999999191612005 -0.0053519997745752335
v -0.005241999868303537 0.00060299999313429 -0.007437000051140785
v -0.0029349999967962503 -0.0021210000850260258 -0.0013539999490603805
v 0.0003220000071451068 0.00381499994546175 -0.004819000139832497
v -0.006765999831259251 -0.0050570000894367695 -0.0006040000007487833
v -0.009549999609589577 -0.010867999866604805 -0.0014130000490695238
v -0.010716999880969524 -0.009417999535799026 -0.001234999974258244
v -0.010223999619483948 -0.005679000169038773 -0.005619999952614307
v -0.008294999599456787 -0.008930999785661697 -0.009302999824285507
v -0.00941499974578619 -0.00967200007289648 -0.0001140000022132881
v -0.0037529999390244484 -0.005716000217944384 -0.016228999942541122
v -0.008907999843358994 -0.008833999745547771 -0.010165000334382057
v -0.008271999657154083 -0.005152000114321709 -0.0114120002835989
v -0.005537999793887138 -0.0008379999781027436 -0.011710000224411488
v -0.0038320000749081373 0.0015839999541640282 -0.009731999598443508
v -0.0028959999326616526 -0.002621999941766262 -0.015122000128030777
v -0.002234000014141202 0.00013099999341648072 -0.013306999579071999
v -0.007745000068098307 -0.0014149999478831887 -0.006819999776780605
v -0.007488999981433153 -0.0015780000248923898 -0.009417000226676464
v -0.00814099982380867 -0.006093000061810017 0.0006290000164881349
v -0.01056000031530857 -0.006233000196516514 -0.0027089999057352543
v -0.010533000342547894 -0.007362000178545713 0.0026829999405890703
v -0.011090000160038471 -0.007687999866902828 -0.0003100000030826777
v -0.00976100005209446 -0.006814999971538782 -0.008669000118970871
v -0.009717999957501888 -0.0064130001701414585 0.0023360000923275948
vn -0.17228655517101288 -0.8470542430877686 0.5028085708618164
vn 0.40397605299949646 -0.8933314681053162 0.19688111543655396
vn 0.804675817489624 -0.5211634635925293 0.2844032943248749
vn 0.30692145228385925 -0.6860644817352295 0.6596323251724243
vn -0.22678671777248383 -0.8361672759056091 0.49939173460006714
vn -0.3228897452354431 -0.7192915081977844 0.615111231803894
vn 0.10006978362798691 -0.9929270148277283 0.06389015167951584
vn -0.05074962601065636 -0.8920626640319824 0.4490531086921692
vn 0.864727795124054 -0.4828481078147888 -0.13821499049663544
vn 0.9984546303749084 -0.05453043431043625 -0.010711127892136574
vn 0.664014995098114 -0.5174468159675598 0.5397525429725647
vn 0.8121613264083862 -0.2558671534061432 0.5243337750434875
vn 0.16502651572227478 -0.67457115650177 0.7195276021957397
vn -0.22895562648773193 -0.6869929432868958 0.6896520256996155
vn 0.23217475414276123 -0.8102775812149048 0.5380939245223999
vn 0.24479888379573822 -0.9078129529953003 0.34051281213760376
vn -0.17306171357631683 -0.6807697415351868 0.7117599248886108
vn 0.724129319190979 -0.4578867554664612 -0.5157290101051331
vn 0.22136972844600677 -0.937713086605072 -0.2677495777606964
vn 0.5332629680633545 -0.8111536502838135 0.2401256412267685
vn 0.1177922785282135 -0.965242326259613 -0.23330730199813843
vn 0.08863306790590286 -0.9959391355514526 -0.01579700969159603
vn 0.7966057658195496 0.21266745030879974 -0.5658549070358276
vn 0.9085243344306946 0.41377031803131104 0.0581180639564991
vn 0.36862584948539734 -0.36962857842445374 0.8529301285743713
vn 0.7544810771942139 0.30399128794670105 0.5816766619682312
vn -0.4590349495410919 -0.10174904018640518 0.8825723528862
vn -0.17585410177707672 0.1957065910100937 0.9647665023803711
vn 0.17724759876728058 -0.5959934592247009 0.7831826210021973
vn 0.5547448992729187 -0.6606907248497009 0.5057131052017212
vn 0.5410669445991516 -0.3257368803024292 -0.7753334045410156
vn 0.10586222261190414 -0.6398025751113892 -0.7612134218215942
vn -0.28288978338241577 -0.9572502970695496 -0.0603766031563282
vn 0.6044424772262573 -0.7172166109085083 0.3467702269554138
vn -0.3019391596317291 -0.3956068158149719 -0.8673684000968933
vn -0.6748782396316528 -0.09854240715503693 -0.7313199639320374
vn -0.718296229839325 -0.6714406609535217 -0.18225760757923126
vn 0.6541658639907837 0.6608770489692688 -0.3678431510925293
vn 0.2383655607700348 0.9012624025344849 -0.36181196570396423
vn 0.1994481235742569 0.3772233724594116 -0.9043909907341003
vn 0.16753031313419342 0.719794750213623 -0.673668384552002
vn 0.20998671650886536 -0.02459673583507538 -0.9773947596549988
vn 0.45733708143234253 0.799644947052002 0.3891151249408722
vn 0.4411855936050415 0.8972504138946533 0.017233043909072876
vn -0.6143103241920471 0.7585650086402893 0.21726001799106598
vn -0.30633383989334106 0.34582170844078064 0.8868860602378845
vn -0.20341259241104126 0.9578851461410522 0.20268043875694275
vn 0.33725103735923767 0.052645470947027206 0.9399416446685791
vn -0.1553187221288681 -0.936491847038269 0.3144185245037079
vn -0.9289580583572388 -0.35316482186317444 -0.11095726490020752
vn -0.9890576004981995 -0.019141405820846558 -0.14628280699253082
vn -0.850782036781311 -0.4876023530960083 0.19599474966526031
vn 0.6011654138565063 -0.5036922693252563 0.6203984022140503
vn -0.3941662013530731 0.21851371228694916 -0.8926839828491211
vn -0.9380034804344177 -0.3104732036590576 -0.154129758477211
vn -0.8415001034736633 0.23852992057800293 -0.4847484529018402
vn -0.6327475309371948 0.571338951587677 -0.5226876139640808
vn -0.42144766449928284 0.8597592711448669 -0.28843680024147034
vn -0.2517305910587311 0.5211641192436218 -0.8154873847961426
vn -0.29026758670806885 0.7048085927963257 -0.6472941040992737
vn -0.678828239440918 0.6984478235244751 0.2266337275505066
vn -0.7972031831741333 0.5462257862091064 -0.2571079134941101
vn 0.04991035535931587 0.7577619552612305 0.6506194472312927
vn -0.8290460705757141 0.540524423122406 0.14323380589485168
vn -0.5495073795318604 -0.49269363284111023 0.6747552156448364
vn -0.8783570528030396 0.4765007793903351 0.03789202868938446
vn -0.9856644868850708 -0.11771655082702637 -0.12086499482393265
vn 0.19615590572357178 0.5923033356666565 0.7814727425575256
f 1//1 2//2 3//3
f 1//1 3//3 4//4
f 5//5 1//1 6//6
f 6//6 1//1 4//4
f 2//2 1//1 7//7
f 1//1 8//8 7//7
f 8//8 1//1 5//5
f 9//9 2//2 7//7
f 3//3 2//2 9//9
f 3//3 9//9 10//10
f 3//3 11//11 4//4
f 3//3 12//12 11//11
f 12//12 3//3 10//10
f 6//6 4//4 13//13
f 11//11 13//13 4//4
f 5//5 6//6 14//14
f 15//15 5//5 14//14
f 5//5 15//15 16//16
f 5//5 16//16 8//8
f 14//14 6//6 17//17
f 6//6 13//13 17//17
f 9//9 7//7 18//18
f 19//19 18//18 7//7
f 19//19 7//7 8//8
f 20//20 8//8 16//16
f 21//21 8//8 20//20
f 22//22 19//19 8//8
f 21//21 22//22 8//8
f 9//9 18//18 23//23
f 10//10 9//9 23//23
f 12//12 10//10 24//24
f 23//23 24//24 10//10
f 12//12 13//13 11//11
f 12//12 25//25 13//13
f 26//26 25//25 12//12
f 24//24 26//26 12//12
f 17//17 13//13 25//25
f 27//27 14//14 28//28
f 14//14 17//17 28//28
f 29//29 14//14 27//27
f 29//29 15//15 14//14
f 30//30 15//15 29//29
f 15//15 30//30 20//20
f 20//20 16//16 15//15
f 17//17 25//25 28//28
f 18//18 31//31 23//23
f 19//19 31//31 18//18
f 31//31 19//19 32//32
f 19//19 22//22 32//32
f 33//33 20//20 34//34
f 30//30 34//34 20//20
f 21//21 20//20 33//33
f 21//21 35//35 32//32
f 35//35 21//21 36//36
f 21//21 32//32 22//22
f 36//36 21//21 37//37
f 21//21 33//33 37//37
f 23//23 38//38 24//24
f 23//23 39//39 38//38
f 40//40 41//41 23//23
f 40//40 23//23 42//42
f 23//23 31//31 42//42
f 41//41 39//39 23//23
f 43//43 26//26 24//24
f 38//38 44//44 24//24
f 44//44 43//43 24//24
f 25//25 26//26 28//28
f 43//43 28//28 26//26
f 45//45 27//27 28//28
f 46//46 27//27 45//45
f 27//27 46//46 29//29
f 43//43 47//47 28//28
f 47//47 45//45 28//28
f 48//48 29//29 46//46
f 48//48 30//30 29//29
f 34//34 30//30 48//48
f 32//32 42//42 31//31
f 35//35 42//42 32//32
f 49//49 50//50 33//33
f 33//33 51//51 52//52
f 50//50 51//51 33//33
f 37//37 33//33 52//52
f 49//49 33//33 34//34
f 48//48 53//53 34//34
f 49//49 34//34 53//53
f 35//35 36//36 54//54
f 42//42 35//35 54//54
f 55//55 56//56 36//36
f 36//36 56//56 57//57
f 36//36 57//57 54//54
f 37//37 55//55 36//36
f 55//55 37//37 52//52
f 38//38 39//39 44//44
f 39//39 47//47 44//44
f 58//58 47//47 39//39
f 58//58 39//39 41//41
f 40//40 59//59 41//41
f 59//59 40//40 54//54
f 40//40 42//42 54//54
f 60//60 41//41 59//59
f 41//41 60//60 58//58
f 43//43 44//44 47//47
f 61//61 45//45 62//62
f 58//58 57//57 45//45
f 62//62 45//45 57//57
f 47//47 58//58 45//45
f 61//61 46//46 45//45
f 48//48 46//46 61//61
f 63//63 48//48 64//64
f 61//61 64//64 48//48
f 48//48 63//63 53//53
f 65//65 50//50 49//49
f 65//65 49//49 53//53
f 64//64 51//51 50//50
f 64//64 50//50 66//66
f 66//66 50//50 65//65
f 51//51 62//62 67//67
f 52//52 51//51 67//67
f 51//51 64//64 61//61
f 62//62 51//51 61//61
f 52//52 67//67 55//55
f 63//63 68//68 53//53
f 65//65 53//53 68//68
f 59//59 54//54 57//57
f 56//56 55//55 67//67
f 62//62 57//57 56//56
f 67//67 62//62 56//56
f 60//60 59//59 57//57
f 57//57 58//58 60//60
f 63//63 66//66 68//68
f 66//66 63//63 64//64
f 68//68 66//66 65//65
