# Generated by Visualization Toolkit
v 0.0009169999975711107 -0.09287499636411667 -0.023777000606060028
v 0.0036730000283569098 -0.08966699987649918 -0.024473000317811966
v 0.003089000005275011 -0.09559500217437744 -0.025801999494433403
v 0.0028470000252127647 -0.09710600227117538 -0.025800999253988266
v 0.00011800000356743112 -0.09527599811553955 -0.02315700054168701
v 0.0010740000288933516 -0.08904100209474564 -0.02348800003528595
v 0.000011000000085914508 -0.09294400364160538 -0.023951999843120575
v 0.0024679999332875013 -0.08699800074100494 -0.023559000343084335
v 0.0003239999932702631 -0.08554600179195404 -0.022808000445365906
v 0.004348999820649624 -0.08820900321006775 -0.024311000481247902
v 0.00380899989977479 -0.08752600103616714 -0.02411700040102005
v 0.005001000128686428 -0.09277399629354477 -0.025033000856637955
v 0.005301999859511852 -0.09034399688243866 -0.024514000862836838
v 0.003604999976232648 -0.0970190018415451 -0.025855999439954758
v 0.003135999897494912 -0.0982770025730133 -0.025551000609993935
v 0.002481000032275915 -0.09810200333595276 -0.02531999908387661
v -0.001101000001654029 -0.09673900157213211 -0.024612000212073326
v -0.0003150000120513141 -0.09489499777555466 -0.024327000603079796
v -0.0003349999897181988 -0.09873999655246735 -0.024341000244021416
v 0.0002460000105202198 -0.09832300245761871 -0.02380100078880787
v 0.0020149999763816595 -0.09901099652051926 -0.02485099993646145
v -0.0019280000124126673 -0.0872659981250763 -0.02546899951994419
v -0.002426000079140067 -0.08545999974012375 -0.024978000670671463
v -0.0016070000128820539 -0.09011899679899216 -0.024713000282645226
v 0.003727999981492758 -0.08704700320959091 -0.023426000028848648
v 0.001449999981559813 -0.0862250030040741 -0.021703999489545822
v 0.002271000063046813 -0.08680500090122223 -0.02260500006377697
v -0.0031389999203383923 -0.08323699980974197 -0.023517999798059464
v -0.0008520000264979899 -0.08119399845600128 -0.020579999312758446
v 0.0006590000120922923 -0.08483800292015076 -0.020639000460505486
v 0.005123000126332045 -0.08914600312709808 -0.023050999268889427
v 0.005373000167310238 -0.08979000151157379 -0.023811999708414078
v 0.004327999893575907 -0.09658999741077423 -0.025637999176979065
v 0.005590999964624643 -0.09171599894762039 -0.02453400008380413
v 0.003829000052064657 -0.09808599948883057 -0.025460999459028244
v 0.003286000108346343 -0.09925000369548798 -0.02497199922800064
v -0.00190100003965199 -0.0954819992184639 -0.024365000426769257
v -0.0019199999514967203 -0.09860000014305115 -0.02279300056397915
v 0.00041099998634308577 -0.09934700280427933 -0.024495000019669533
v 0.0012639999622479081 -0.09939199686050415 -0.02473899908363819
v 0.002096999902278185 -0.09972900152206421 -0.024210000410676003
v -0.0029639999847859144 -0.08687099814414978 -0.02500000037252903
v -0.0037869999650865793 -0.08469899743795395 -0.023579999804496765
v -0.0028589998837560415 -0.0905120000243187 -0.024017000570893288
v 0.002094999887049198 -0.08697500079870224 -0.021581999957561493
v -0.004222000017762184 -0.0788239985704422 -0.02230199985206127
v -0.0026569999754428864 -0.07263600081205368 -0.019892999902367592
v -0.002722000004723668 -0.06997200101613998 -0.017911000177264214
v -0.0005469999741762877 -0.08108200132846832 -0.018880000337958336
v 0.001943000010214746 -0.09164399653673172 -0.01776999980211258
v 0.005967000033706427 -0.092119000852108 -0.022221000865101814
v 0.005667000077664852 -0.09085399657487869 -0.02371400035917759
v 0.005623000208288431 -0.0968329980969429 -0.02227500081062317
v 0.0032259998843073845 -0.09988299757242203 -0.02384999953210354
v 0.002741999924182892 -0.09995999932289124 -0.024173999205231667
v -0.004288999829441309 -0.08886999636888504 -0.023016000166535378
v -0.0036609999369829893 -0.09594400227069855 -0.02284199930727482
v 0.001972000114619732 -0.10043500363826752 -0.02323799952864647
v -0.00040600000647827983 -0.10042200237512589 -0.021908000111579895
v -0.0024850000627338886 -0.09967000037431717 -0.01983099989593029
v -0.004085000138729811 -0.09694299846887589 -0.02127999998629093
v -0.005067999940365553 -0.08358900249004364 -0.022453999146819115
v -0.004244000185281038 -0.060965001583099365 -0.017247000709176064
v -0.005743000190705061 -0.06074099987745285 -0.01787400059401989
v -0.007170999888330698 -0.06095099821686745 -0.01803000085055828
v -0.008422999642789364 -0.06777500361204147 -0.018642999231815338
v -0.00356299988925457 -0.08295100182294846 -0.014504999853670597
v -0.0011690000537782907 -0.08393500000238419 -0.01597999967634678
v -0.004097000230103731 -0.060756001621484756 -0.015526000410318375
v -0.0040799998678267 -0.06104300171136856 -0.016429999843239784
v -0.005456999875605106 -0.06832599639892578 -0.014538999646902084
v 0.0016509999986737967 -0.09212499856948853 -0.014945999719202518
v 0.0025049999821931124 -0.09595099836587906 -0.01694200001657009
v 0.004645000211894512 -0.09654200077056885 -0.01955999992787838
v 0.0010089999996125698 -0.08880200237035751 -0.014708000235259533
v -0.00011100000119768083 -0.0871570035815239 -0.015716999769210815
v 0.005442999769002199 -0.09707599878311157 -0.021313000470399857
v 0.004763999953866005 -0.09822099655866623 -0.021062999963760376
v 0.0030900000128895044 -0.1002340018749237 -0.02269499935209751
v -0.005475000012665987 -0.09334199875593185 -0.01729400083422661
v -0.0064559997990727425 -0.0898279994726181 -0.017636999487876892
v -0.007792000193148851 -0.0816510021686554 -0.015769999474287033
v 0.0017719999887049198 -0.10040400177240372 -0.021275000646710396
v -0.0028719999827444553 -0.09953799843788147 -0.01883699931204319
v 0.001706999959424138 -0.10025399923324585 -0.01940299943089485
v -0.0023300000466406345 -0.09975499659776688 -0.018657999113202095
v -0.004515999928116798 -0.09685099869966507 -0.016459999606013298
v -0.004964999854564667 -0.09609899669885635 -0.01657399907708168
v -0.005288999993354082 -0.0578170008957386 -0.017813999205827713
v -0.004614999983459711 -0.05785899981856346 -0.0175199992954731
v -0.006140999961644411 -0.05432000011205673 -0.016884999349713326
v -0.0055599999614059925 -0.054614998400211334 -0.017266999930143356
v -0.00798300001770258 -0.04969000071287155 -0.016665000468492508
v -0.009960000403225422 -0.049782998859882355 -0.01577799953520298
v -0.008391999639570713 -0.07523199915885925 -0.015096999704837799
v -0.00991700030863285 -0.06200199946761131 -0.01533500012010336
v -0.010835000313818455 -0.053025998175144196 -0.01413699984550476
v -0.005379000212997198 -0.08496599644422531 -0.013778000138700008
v -0.004255999810993671 -0.087848000228405 -0.013646000064909458
v -0.000506000011228025 -0.08709099888801575 -0.014986000023782253
v -0.004182999953627586 -0.046248000115156174 -0.012477999553084373
v -0.004997000098228455 -0.05036500096321106 -0.0124080004170537
v -0.007108999881893396 -0.059137001633644104 -0.012621000409126282
v -0.004178000148385763 -0.04907099902629852 -0.014375999569892883
v -0.0049959998577833176 -0.054572999477386475 -0.01730399951338768
v -0.007156000006943941 -0.07504100352525711 -0.014170000329613686
v 0.001769999973475933 -0.09345299750566483 -0.015232999809086323
v 0.0011940000113099813 -0.09114299714565277 -0.01435600034892559
v 0.004430999979376793 -0.09800100326538086 -0.0200009997934103
v 0.001319000031799078 -0.09619800001382828 -0.015568000264465809
v 0.0006210000137798488 -0.09857200086116791 -0.01674499921500683
v 0.000387999985832721 -0.08965600281953812 -0.013873999938368797
v 0.002819000044837594 -0.09984900057315826 -0.020135000348091125
v 0.00279300007969141 -0.09995999932289124 -0.021084999665617943
v -0.0055069997906684875 -0.09389100223779678 -0.016099000349640846
v -0.00659500015899539 -0.092739999294281 -0.015727000311017036
v -0.00737199978902936 -0.08806400001049042 -0.0159939993172884
v -0.007304000202566385 -0.09113100171089172 -0.015526999719440937
v -0.007474999874830246 -0.08703599870204926 -0.014786999672651291
v -0.007348000071942806 -0.08430299907922745 -0.014380999840795994
v -0.00171999994199723 -0.09899000078439713 -0.016923999413847923
v -0.0029060000088065863 -0.09814699739217758 -0.01623300090432167
v -0.004472999833524227 -0.0954120010137558 -0.015943000093102455
v -0.0031109999399632215 -0.09543199837207794 -0.016137000173330307
v -0.005160000175237656 -0.09409700334072113 -0.015479999594390392
v -0.006442000158131123 -0.04843199998140335 -0.0166229996830225
v -0.004776999820023775 -0.04844700172543526 -0.01701599918305874
v -0.007288000080734491 -0.04357900097966194 -0.01702200062572956
v -0.00901000015437603 -0.044029999524354935 -0.017097000032663345
v -0.00999400019645691 -0.04422900080680847 -0.016635999083518982
v -0.00785600021481514 -0.07516799867153168 -0.014534999616444111
v -0.00930199958384037 -0.06873200088739395 -0.014165000058710575
v -0.011256000027060509 -0.048225000500679016 -0.011265000328421593
v -0.010347999632358551 -0.05328100174665451 -0.012223999947309494
v -0.012136000208556652 -0.042830999940633774 -0.011118999682366848
v -0.012257999740540981 -0.03902300074696541 -0.013255000114440918
v -0.007309999782592058 -0.08636199682950974 -0.013891000300645828
v -0.0057390001602470875 -0.08856700360774994 -0.013225000351667404
v -0.007063999772071838 -0.08677499741315842 -0.01355000026524067
v -0.0020290000829845667 -0.09215900301933289 -0.014936000108718872
v -0.001133000012487173 -0.08965799957513809 -0.014437999576330185
v -0.003777999896556139 -0.09053199738264084 -0.014353999868035316
v -0.003183000022545457 -0.0440169982612133 -0.01498899981379509
v -0.004854999948292971 -0.042479000985622406 -0.009709999896585941
v -0.00620400020852685 -0.05038600042462349 -0.01116899959743023
v -0.008326999843120575 -0.05333000048995018 -0.011265000328421593
v -0.003911999985575676 -0.04408000037074089 -0.016839999705553055
v -0.00076299998909235 -0.09368400275707245 -0.014001999981701374
v -0.0006500000017695129 -0.09163200110197067 -0.014066999778151512
v -0.0009590000263415277 -0.0958390012383461 -0.01484999991953373
v -0.005975000094622374 -0.09292499721050262 -0.015189999714493752
v -0.006922000087797642 -0.09209199994802475 -0.015209999866783619
v -0.00784900039434433 -0.08967000246047974 -0.015146000310778618
v -0.007563999854028225 -0.09069199860095978 -0.015080000273883343
v -0.004364000167697668 -0.09234700351953506 -0.014897000044584274
v -0.001661999966017902 -0.0931520015001297 -0.015103000216186047
v -0.0055240001529455185 -0.03761500120162964 -0.016966000199317932
v -0.007418000139296055 -0.03936399891972542 -0.017727000638842583
v -0.008559999987483025 -0.03930800035595894 -0.018442999571561813
v -0.0034910000395029783 -0.03951499983668327 -0.016930999234318733
v -0.009390000253915787 -0.04187300056219101 -0.01767599955201149
v -0.011025000363588333 -0.047885000705718994 -0.009604999795556068
v -0.010781999677419662 -0.04868999868631363 -0.010262000374495983
v -0.009789999574422836 -0.04849899932742119 -0.00981799978762865
v -0.012538000009953976 -0.03920900076627731 -0.011912000365555286
v -0.012493000365793705 -0.03983499854803085 -0.011411000043153763
v -0.011637999676167965 -0.041218001395463943 -0.010009000077843666
v -0.01126100029796362 -0.04575999826192856 -0.00930199958384037
v -0.011986999772489071 -0.03821000084280968 -0.014077999629080296
v -0.011599999852478504 -0.03857199847698212 -0.0149959996342659
v -0.012574000284075737 -0.037859998643398285 -0.013357999734580517
v -0.007480999920517206 -0.087459996342659 -0.013860000297427177
v -0.005119000095874071 -0.09161999821662903 -0.014116000384092331
v -0.007511000148952007 -0.09010999649763107 -0.014190999791026115
v -0.0011449999874457717 -0.09307499974966049 -0.014519000425934792
v -0.002816000021994114 -0.039778001606464386 -0.015798000618815422
v -0.002604000037536025 -0.03963499888777733 -0.010851999744772911
v -0.0018449999624863267 -0.03846700116991997 -0.014550000429153442
v -0.004474000073969364 -0.04030999913811684 -0.009116999804973602
v -0.006910999771207571 -0.044913001358509064 -0.00918199960142374
v -0.005073000211268663 -0.040477998554706573 -0.009026999585330486
v -0.006312999874353409 -0.0920720025897026 -0.0147299999371171
v -0.007402000017464161 -0.09070699661970139 -0.01457899995148182
v -0.007282999809831381 -0.036970000714063644 -0.018623000010848045
v -0.004335000179708004 -0.03482399880886078 -0.01744000054895878
v -0.009259999729692936 -0.03869999945163727 -0.01867399923503399
v -0.010009000077843666 -0.0388140007853508 -0.017785999923944473
v -0.0019160000374540687 -0.035006001591682434 -0.016947999596595764
v -0.01165200024843216 -0.03681499883532524 -0.01633399911224842
v -0.01017600018531084 -0.04766299948096275 -0.00902399979531765
v -0.012624000199139118 -0.038763001561164856 -0.010963000357151031
v -0.013616000302135944 -0.03324199840426445 -0.01169699989259243
v -0.013251000083982944 -0.03612300008535385 -0.012803000397980213
v -0.011882999911904335 -0.039709001779556274 -0.009829999879002571
v -0.012285999953746796 -0.03940799832344055 -0.010405000299215317
v -0.010490000247955322 -0.04398399963974953 -0.00889500044286251
v -0.01082099974155426 -0.040651001036167145 -0.009573999792337418
v -0.012457000091671944 -0.037362001836299896 -0.014227000065147877
v -0.011807999573647976 -0.03750799968838692 -0.014845999889075756
v -0.001996000064536929 -0.037122998386621475 -0.015776999294757843
v -0.003648000070825219 -0.03896800056099892 -0.009410999715328217
v -0.003722999943420291 -0.03790599852800369 -0.009019999764859676
v -0.002268000040203333 -0.03726999834179878 -0.011014999821782112
v -0.0015640000347048044 -0.03715299814939499 -0.014201999641954899
v -0.005078999791294336 -0.03915100172162056 -0.008690999820828438
v -0.0044929999858140945 -0.03903999924659729 -0.00875800009816885
v -0.007348000071942806 -0.0425029993057251 -0.009180000051856041
v -0.006593000143766403 -0.040532998740673065 -0.009668000042438507
v -0.009708000347018242 -0.0378590002655983 -0.018804000690579414
v -0.008484999649226665 -0.036694999784231186 -0.01901799999177456
v -0.007102999836206436 -0.03554999828338623 -0.01871499978005886
v -0.006804999895393848 -0.03138599917292595 -0.017935000360012054
v -0.002891999902203679 -0.03027000091969967 -0.01666400022804737
v -0.0021359999664127827 -0.03111799992620945 -0.016475999727845192
v -0.006984000094234943 -0.032575998455286026 -0.01838799938559532
v -0.010528000071644783 -0.03791999816894531 -0.017727000638842583
v -0.001766999950632453 -0.03486299887299538 -0.016303999349474907
v -0.0010979999788105488 -0.031683001667261124 -0.01637299917638302
v -0.012648999691009521 -0.036086998879909515 -0.014224999584257603
v -0.011882999911904335 -0.03556400164961815 -0.0165180005133152
v -0.012400999665260315 -0.035036999732255936 -0.01508999988436699
v -0.013062999583780766 -0.03779599815607071 -0.009833999909460545
v -0.013602999970316887 -0.03456300124526024 -0.01057399995625019
v -0.013627000153064728 -0.03265399858355522 -0.010737000033259392
v -0.013160999864339828 -0.03136499971151352 -0.013407000340521336
v -0.013244000263512135 -0.03011300042271614 -0.011843999847769737
v -0.011068999767303467 -0.039416998624801636 -0.009712000377476215
v -0.012165999971330166 -0.03867200016975403 -0.009499999694526196
v -0.008387000299990177 -0.040532998740673065 -0.010023999959230423
v -0.0018520000157877803 -0.03463200107216835 -0.015576999634504318
v -0.0020000000949949026 -0.03451700136065483 -0.014810999855399132
v -0.004399000201374292 -0.03808800131082535 -0.008721999824047089
v -0.004137999843806028 -0.036726001650094986 -0.008682000450789928
v -0.004720000084489584 -0.03668000176548958 -0.008697999641299248
v -0.004658999852836132 -0.03723499923944473 -0.008566999807953835
v -0.002389000030234456 -0.034651000052690506 -0.011500000022351742
v -0.0029060000088065863 -0.0341619998216629 -0.010366000235080719
v -0.003220000071451068 -0.03450600057840347 -0.009227000176906586
v -0.004395000170916319 -0.03616100177168846 -0.008787999860942364
v -0.005969000048935413 -0.03740999847650528 -0.008736000396311283
v -0.007073000073432922 -0.036559998989105225 -0.008799999952316284
v -0.007038000039756298 -0.04081699997186661 -0.009717999957501888
v -0.009991000406444073 -0.03315100073814392 -0.01957700029015541
v -0.008255000226199627 -0.03278699889779091 -0.02009899914264679
v -0.008325999602675438 -0.03490399941802025 -0.01963300071656704
v -0.007079999893903732 -0.0305160004645586 -0.017549000680446625
v -0.008527999743819237 -0.031176000833511353 -0.019895000383257866
v -0.008737999945878983 -0.03009900078177452 -0.019255999475717545
v -0.002687999978661537 -0.029536999762058258 -0.015876999124884605
v -0.011966999620199203 -0.03248399868607521 -0.016675999388098717
v -0.0013539999490603805 -0.033250000327825546 -0.01608400046825409
v -0.0010270000202581286 -0.030990000814199448 -0.01604500040411949
v -0.0007570000016130507 -0.03197399899363518 -0.0158270001411438
v -0.012145999819040298 -0.033656999468803406 -0.015065000392496586
v -0.012272000312805176 -0.03233399987220764 -0.015038999728858471
v -0.012605000287294388 -0.03173200041055679 -0.014026000164449215
v -0.012387000024318695 -0.03674900159239769 -0.009391999803483486
v -0.012949000112712383 -0.03266200050711632 -0.010135999880731106
v -0.013233000412583351 -0.029579000547528267 -0.010242000222206116
v -0.012802000157535076 -0.029606999829411507 -0.011831999756395817
v -0.013199999928474426 -0.029117999598383904 -0.010913999751210213
v -0.013133999891579151 -0.03027999959886074 -0.012896000407636166
v -0.012811999768018723 -0.030774999409914017 -0.013488000258803368
v -0.010515999980270863 -0.03794199973344803 -0.010622999630868435
v -0.011486000381410122 -0.03834100067615509 -0.009614000096917152
v -0.011939000338315964 -0.037415001541376114 -0.009285000152885914
v -0.007670000195503235 -0.03955899924039841 -0.009850000031292439
v -0.009333999827504158 -0.03865800052881241 -0.01068899966776371
v -0.004991000052541494 -0.03564700111746788 -0.009008999913930893
v -0.005535999778658152 -0.035721998661756516 -0.00889699999243021
v -0.00534699996933341 -0.036570001393556595 -0.008546000346541405
v -0.0023980000987648964 -0.03208199888467789 -0.010451000183820724
v -0.0010010000551119447 -0.03137800097465515 -0.014813000336289406
v -0.0031449999660253525 -0.03372599929571152 -0.009039999917149544
v -0.002570000011473894 -0.03215400129556656 -0.008976999670267105
v -0.004401000216603279 -0.03318699821829796 -0.008999000303447247
v -0.004918999969959259 -0.034814998507499695 -0.009019000455737114
v -0.00634999992325902 -0.035530999302864075 -0.00900499988347292
v -0.007546999957412481 -0.03580600023269653 -0.009487999603152275
v -0.008716000244021416 -0.036347001791000366 -0.01032899972051382
v -0.010456999763846397 -0.031596001237630844 -0.019060999155044556
v -0.009209999814629555 -0.029631000012159348 -0.018377000465989113
v -0.010273000225424767 -0.030038999393582344 -0.015830999240279198
v -0.011416999623179436 -0.030376000329852104 -0.017239000648260117
v -0.0011790000135079026 -0.03051299974322319 -0.015737000852823257
v -0.008320000022649765 -0.030650999397039413 -0.014720000326633453
v -0.005776999983936548 -0.031238000839948654 -0.013120999559760094
v -0.011481000110507011 -0.03139200061559677 -0.01540399994701147
v -0.011099000461399555 -0.030412999913096428 -0.01609800010919571
v -0.011981000192463398 -0.03126100078225136 -0.014197999611496925
v -0.01205000001937151 -0.032951999455690384 -0.010506999678909779
v -0.012516000308096409 -0.030115999281406403 -0.00991399958729744
v -0.012613000348210335 -0.02880599908530712 -0.010102000087499619
v -0.012409999966621399 -0.02917500026524067 -0.011043000034987926
v -0.01207400020211935 -0.029726000502705574 -0.012396999634802341
v -0.012242999859154224 -0.029030000790953636 -0.011675000190734863
v -0.0127379996702075 -0.029962999746203423 -0.01317800022661686
v -0.012250999920070171 -0.030710000544786453 -0.013705000281333923
v -0.01013999991118908 -0.036671001464128494 -0.010683000087738037
v -0.010982000268995762 -0.036997999995946884 -0.010363000445067883
v -0.005489999894052744 -0.03513599932193756 -0.009088000282645226
v -0.005574999842792749 -0.03471500054001808 -0.009499999694526196
v -0.005638000089675188 -0.033980000764131546 -0.009736999869346619
v -0.005537000019103289 -0.03403399884700775 -0.009119000285863876
v -0.006765999831259251 -0.02981399931013584 -0.009906000457704067
v -0.002624999964609742 -0.03136900067329407 -0.0095229996368289
v -0.005673000123351812 -0.031550001353025436 -0.012569000013172626
v -0.006697000004351139 -0.030316000804305077 -0.011900000274181366
v -0.004077000077813864 -0.032728999853134155 -0.008724999614059925
v -0.0038479999639093876 -0.03094400092959404 -0.008973999880254269
v -0.005475999787449837 -0.03290700167417526 -0.009709999896585941
v -0.005357999820262194 -0.032464999705553055 -0.009340999647974968
v -0.006907999981194735 -0.03466799855232239 -0.009170000441372395
v -0.00800899975001812 -0.034749001264572144 -0.010308999568223953
v -0.010332999750971794 -0.030590999871492386 -0.014178999699652195
v -0.011095999740064144 -0.0302559994161129 -0.014379999600350857
v -0.010367999784648418 -0.030239999294281006 -0.013485999777913094
v -0.00965300016105175 -0.03032599948346615 -0.012431000359356403
v -0.0087890001013875 -0.03090599924325943 -0.012116000056266785
v -0.011429999954998493 -0.030778000131249428 -0.014589999802410603
v -0.010758999735116959 -0.031734999269247055 -0.010528000071644783
v -0.009371999651193619 -0.03232099860906601 -0.010634999722242355
v -0.011733000166714191 -0.03094400092959404 -0.009998999536037445
v -0.012117999605834484 -0.029099000617861748 -0.009676000103354454
v -0.01206700038164854 -0.028859000653028488 -0.010281000286340714
v -0.010489000007510185 -0.028666000813245773 -0.010811000131070614
v -0.011440999805927277 -0.02957800030708313 -0.012864000163972378
v -0.01070099975913763 -0.028961999341845512 -0.011478000320494175
v -0.011500000022351742 -0.029985999688506126 -0.013570999726653099
v -0.008713999763131142 -0.03378500044345856 -0.010641000233590603
v -0.005549000110477209 -0.033201999962329865 -0.009066999889910221
v -0.007007999811321497 -0.03254399821162224 -0.009611999616026878
v -0.007594000082463026 -0.029441000893712044 -0.009642000310122967
v -0.008932000026106834 -0.029399000108242035 -0.009987999685108662
v -0.009176000021398067 -0.0300890002399683 -0.01140500046312809
v -0.005508999805897474 -0.03188500180840492 -0.009089999832212925
v -0.0076350001618266106 -0.031032999977469444 -0.009557999670505524
v -0.010348999872803688 -0.031039999797940254 -0.010220999829471111
v -0.011339999735355377 -0.030385000631213188 -0.009777000173926353
v -0.010959000326693058 -0.02931799925863743 -0.00939400028437376
v -0.010014000348746777 -0.029200000688433647 -0.009318999946117401
v -0.008585000410676003 -0.03125400096178055 -0.009587000124156475
v -0.011603999882936478 -0.029145000502467155 -0.00945299956947565
v -0.010838000103831291 -0.02833399921655655 -0.009341999888420105
v -0.010235999710857868 -0.02843499928712845 -0.009685000404715538
v -0.008112000301480293 -0.02996799908578396 -0.009734000079333782
v -0.00925000011920929 -0.029962999746203423 -0.009359000250697136
vn -0.3148459792137146 0.039227407425642014 -0.9483317732810974
vn -0.18259744346141815 0.17548586428165436 -0.9674000144004822
vn -0.1856127381324768 0.1428971290588379 -0.9721771478652954
vn -0.44395482540130615 -0.07513242959976196 -0.8928937315940857
vn 0.11234770715236664 -0.03661245480179787 -0.9929942488670349
vn 0.2627958655357361 0.11345233768224716 -0.958158016204834
vn 0.4876370131969452 -0.055296413600444794 -0.8712935447692871
vn 0.15439076721668243 0.8093128204345703 -0.5667240023612976
vn 0.4858544170856476 0.5345103740692139 -0.691551923751831
vn 0.6268175840377808 0.48136258125305176 -0.6126906275749207
vn 0.09354307502508163 0.5359485745429993 -0.8390523791313171
vn 0.29600051045417786 0.13237427175045013 -0.9459708333015442
vn 0.5432201027870178 0.23822936415672302 -0.8050830960273743
vn 0.1608240306377411 -0.08944317698478699 -0.9829219579696655
vn -0.0822383314371109 -0.3753884434700012 -0.9232119917869568
vn -0.4926043748855591 -0.2664569616317749 -0.8284574151039124
vn 0.034911636263132095 -0.18321356177330017 -0.9824529886245728
vn 0.5398967266082764 -0.048656344413757324 -0.8403238654136658
vn 0.08719829469919205 -0.00437998678535223 -0.996181309223175
vn -0.02347569167613983 0.4150815010070801 -0.9094812273979187
vn -0.31171634793281555 -0.2165771722793579 -0.9251633882522583
vn 0.08466129750013351 0.018389416858553886 -0.9962400794029236
vn 0.039010267704725266 0.39431527256965637 -0.9181468486785889
vn 0.014659103006124496 -0.11679704487323761 -0.9930475950241089
vn 0.4996868669986725 0.8613773584365845 -0.09133537858724594
vn 0.6686734557151794 0.7383195161819458 -0.0880909189581871
vn 0.4178243577480316 0.9071710109710693 0.04963589832186699
vn 0.16241565346717834 0.4468998908996582 -0.8797168135643005
vn 0.8111628890037537 0.334999144077301 -0.4793644845485687
vn 0.886492908000946 0.4573793411254883 -0.07024633884429932
vn 0.8552731275558472 0.4542021155357361 0.2494160383939743
vn 0.9198130369186401 0.3292737901210785 -0.21336057782173157
vn 0.6685614585876465 -0.13219638168811798 -0.7318127155303955
vn 0.8795960545539856 0.0676283985376358 -0.470889687538147
vn 0.5599021911621094 -0.4047347903251648 -0.7229793667793274
vn 0.19789618253707886 -0.6635703444480896 -0.7214647531509399
vn -0.454183965921402 -0.11626949906349182 -0.8832883834838867
vn -0.6196629405021667 -0.5670541524887085 -0.5426485538482666
vn -0.3394463062286377 -0.36779314279556274 -0.8657392859458923
vn -0.1267373263835907 -0.35775867104530334 -0.9251736998558044
vn -0.07717287540435791 -0.7238088250160217 -0.6856712698936462
vn -0.597746729850769 -0.05182511731982231 -0.8000080585479736
vn -0.6225762367248535 0.14791281521320343 -0.7684534192085266
vn -0.5623372197151184 -0.13896331191062927 -0.815147876739502
vn 0.6932715773582458 0.6418068408966064 0.32780879735946655
vn 0.02986234799027443 0.2305670976638794 -0.972598135471344
vn 0.770152747631073 0.22696314752101898 -0.5961145162582397
vn 0.9688625931739807 0.1613079458475113 0.18784302473068237
vn 0.9602945446968079 0.254671573638916 0.11391591280698776
vn 0.8815467357635498 0.30475887656211853 0.3605516850948334
vn 0.9481055736541748 0.11972614377737045 0.2945530414581299
vn 0.9844172596931458 0.14187340438365936 -0.10389700531959534
vn 0.932537317276001 -0.31919533014297485 -0.16878555715084076
vn 0.6015603542327881 -0.7637210488319397 -0.23421169817447662
vn 0.07344815135002136 -0.8465258479118347 -0.5272564888000488
vn -0.8373910784721375 -0.09828857332468033 -0.5376945734024048
vn -0.7465507984161377 -0.2672262489795685 -0.6093046069145203
vn -0.05416346341371536 -0.9323849678039551 -0.3573858141899109
vn -0.2799118459224701 -0.951410174369812 -0.12832780182361603
vn -0.6377609968185425 -0.7287755608558655 -0.24929317831993103
vn -0.8834747076034546 -0.39526158571243286 -0.2514771819114685
vn -0.755585253238678 0.0015597331803292036 -0.6550484299659729
vn 0.7220838069915771 0.1430305689573288 -0.6768584251403809
vn -0.01795559749007225 0.14660011231899261 -0.9890328645706177
vn -0.11624601483345032 0.15464897453784943 -0.9811068177223206
vn -0.8050122857093811 0.005317106377333403 -0.5932344794273376
vn 0.5092750787734985 0.10901759564876556 0.8536708950996399
vn 0.7540355324745178 0.2475060671567917 0.6084170341491699
vn 0.8654457330703735 -0.04135866463184357 0.4992925822734833
vn 0.9869050979614258 0.09287907183170319 -0.13187789916992188
vn 0.5491710305213928 0.005132745951414108 0.8356941938400269
vn 0.9240249991416931 0.07823001593351364 0.37424296140670776
vn 0.8278717994689941 -0.15222641825675964 0.5398661494255066
vn 0.8201745748519897 -0.04051049426198006 0.5706772208213806
vn 0.8301376700401306 0.3847751021385193 0.4035091698169708
vn 0.8638472557067871 0.46065229177474976 0.20388087630271912
vn 0.9175164103507996 -0.2651155889034271 0.29644137620925903
vn 0.776731014251709 -0.6170932650566101 0.12603545188903809
vn 0.47562527656555176 -0.8789916038513184 0.033977262675762177
vn -0.9124928116798401 -0.2859629988670349 -0.29254406690597534
vn -0.8786290884017944 -0.17547160387039185 -0.44409528374671936
vn -0.983178436756134 -0.07319485396146774 -0.16733966767787933
vn 0.1808755248785019 -0.979517936706543 0.08847983181476593
vn -0.6127022504806519 -0.7894299626350403 0.037366025149822235
vn 0.2027416080236435 -0.9316152930259705 0.3016435205936432
vn -0.3288329839706421 -0.8881484866142273 0.32103148102760315
vn -0.605850100517273 -0.5369372367858887 0.5870639085769653
vn -0.8768218755722046 -0.3722442090511322 0.3043314516544342
vn 0.12473145127296448 0.06365598738193512 -0.9901464581489563
vn 0.7880210876464844 0.08447515219449997 -0.6098251342773438
vn -0.16666404902935028 0.09841413795948029 -0.9810900688171387
vn -0.34852030873298645 0.10477235168218613 -0.9314270615577698
vn -0.12692731618881226 -0.023560089990496635 -0.9916321635246277
vn -0.576592743396759 -0.006415282841771841 -0.8170064687728882
vn -0.9775227308273315 -0.11660356819629669 0.175649955868721
vn -0.9771091938018799 -0.09560523927211761 -0.19004473090171814
vn -0.9795167446136475 -0.10187461227178574 -0.1736910343170166
vn -0.0139307314530015 0.15182757377624512 0.988308846950531
vn 0.2729300856590271 0.018960915505886078 0.9618470072746277
vn 0.41039830446243286 0.4154086112976074 0.8117936849594116
vn 0.9535919427871704 -0.08871179819107056 0.2877372205257416
vn 0.7384102940559387 -0.18223609030246735 0.6492613554000854
vn 0.5595373511314392 -0.12498772144317627 0.8193265795707703
vn 0.9812104105949402 -0.0854654610157013 -0.17297928035259247
vn 0.6486854553222656 0.10183440893888474 -0.7542127370834351
vn -0.08186495304107666 -0.06921921670436859 0.9942368865013123
vn 0.6798114776611328 -0.14350031316280365 0.7192107439041138
vn 0.5533326268196106 -0.033324792981147766 0.8322934508323669
vn 0.7321833372116089 -0.43791595101356506 0.5216677784919739
vn 0.4897516369819641 -0.35857656598091125 0.7947113513946533
vn 0.3839864432811737 -0.5832597017288208 0.7157949209213257
vn 0.14242492616176605 0.18281511962413788 0.9727762937545776
vn 0.6103141903877258 -0.709061861038208 0.35319650173187256
vn 0.49437636137008667 -0.8570446372032166 0.14514340460300446
vn -0.8459702134132385 -0.5153322815895081 0.13699336349964142
vn -0.8335491418838501 -0.5449276566505432 -0.0908278375864029
vn -0.9309524297714233 -0.02848830074071884 -0.36402735114097595
vn -0.8965192437171936 -0.26848891377449036 -0.3523731529712677
vn -0.9968076348304749 0.0513758510351181 0.06111437454819679
vn -0.7505649924278259 0.01355445384979248 0.660657525062561
vn -0.05109864100813866 -0.8124873638153076 0.58073490858078
vn -0.28704214096069336 -0.5249758362770081 0.8012535572052002
vn -0.14820602536201477 -0.36085769534111023 0.9207695722579956
vn -0.17687886953353882 -0.21490168571472168 0.9604848623275757
vn -0.47020572423934937 -0.45041623711586 0.7589675188064575
vn -0.06905277818441391 0.003631149884313345 -0.9976063370704651
vn 0.20282898843288422 0.014388973824679852 -0.9791083931922913
vn 0.17480923235416412 -0.09817131608724594 -0.9796959161758423
vn -0.130343958735466 -0.2174822837114334 -0.967322051525116
vn -0.6373741626739502 -0.13291625678539276 -0.7590042352676392
vn -0.5890191793441772 -0.09777289628982544 0.8021824955940247
vn -0.8118019104003906 -0.15450498461723328 0.5631214380264282
vn -0.9467598795890808 -0.24224364757537842 0.2120467573404312
vn -0.7356518507003784 -0.2672242820262909 0.6224207282066345
vn -0.98415607213974 -0.11699704825878143 0.1332232803106308
vn -0.9175565838813782 -0.15156474709510803 -0.3675840497016907
vn -0.8248071074485779 0.21375684440135956 0.5234513282775879
vn 0.04223775491118431 -0.09518354386091232 0.9945632219314575
vn -0.42129766941070557 0.10747610777616501 0.9005315899848938
vn -0.22816966474056244 -0.17599579691886902 0.9575823545455933
vn -0.17137956619262695 0.06089023873209953 0.9833216667175293
vn 0.2517525255680084 -0.2304895967245102 0.9399442672729492
vn 0.9678559899330139 -0.24726621806621552 0.045979518443346024
vn 0.7061593532562256 -0.22810262441635132 0.670304536819458
vn 0.437660276889801 -0.23658215999603271 0.867457389831543
vn -0.04697945713996887 -0.2055128663778305 0.9775261282920837
vn 0.6128698587417603 -0.11419994384050369 -0.7818880081176758
vn -0.07556753605604172 -0.16604143381118774 0.9832190871238708
vn -0.32669249176979065 -0.01702228933572769 0.944977343082428
vn -0.3526156544685364 -0.28940021991729736 0.889893114566803
vn -0.4578072726726532 -0.5947079658508301 0.660859227180481
vn -0.7787811160087585 -0.5300641059875488 0.33545786142349243
vn -0.9972397685050964 -0.06787122040987015 -0.030104245990514755
vn -0.9370869994163513 -0.3465839922428131 0.04180100932717323
vn 0.055842407047748566 -0.4144998788833618 0.9083343744277954
vn -0.31698065996170044 -0.23511235415935516 0.9188283681869507
vn 0.3281395137310028 -0.19794048368930817 -0.923658013343811
vn 0.5011948943138123 -0.12897352874279022 -0.8556689620018005
vn 0.03553350269794464 -0.24275073409080505 -0.9694377183914185
vn 0.33602914214134216 -0.10901156812906265 -0.9355217218399048
vn -0.6554282307624817 -0.22481103241443634 -0.7210227251052856
vn -0.8072627186775208 -0.3493746817111969 0.47567230463027954
vn -0.5712994933128357 -0.5418593287467957 0.616445779800415
vn 0.001033307402394712 -0.4487033486366272 0.8936801552772522
vn -0.9775205850601196 -0.18807047605514526 -0.09530505537986755
vn -0.9745497703552246 -0.13709694147109985 0.17736154794692993
vn -0.7945025563240051 -0.10159676522016525 0.5987015962600708
vn -0.7173482179641724 -0.06765342503786087 0.693422257900238
vn -0.8418433666229248 -0.2933284342288971 -0.4530541002750397
vn -0.9250073432922363 -0.1860741227865219 -0.3312669098377228
vn -0.8839408755302429 -0.3225388824939728 -0.33855152130126953
vn -0.8554999828338623 0.04174990579485893 0.5161170363426208
vn -0.033369921147823334 -0.4615834355354309 0.8864690065383911
vn -0.6223134994506836 -0.2639032006263733 0.736940324306488
vn -0.7244545221328735 -0.1306033730506897 0.676837146282196
vn 0.8653841614723206 -0.2038337141275406 -0.4577794671058655
vn 0.8718108534812927 -0.25526928901672363 0.4180709719657898
vn 0.9574881196022034 -0.21779765188694 -0.18915818631649017
vn 0.5319475531578064 -0.3241504430770874 0.7822777032852173
vn 0.2814449667930603 -0.22438563406467438 0.9329736828804016
vn 0.021842747926712036 -0.11801014840602875 0.992772102355957
vn -0.289747953414917 -0.548193633556366 0.784557044506073
vn -0.713810920715332 -0.42689019441604614 0.5551925301551819
vn 0.370317667722702 -0.2517041265964508 -0.8941531777381897
vn 0.3228617310523987 -0.009918631054461002 -0.9463942050933838
vn -0.19017291069030762 -0.35702598094940186 -0.914530873298645
vn -0.6783528923988342 -0.3922538161277771 -0.6212683916091919
vn 0.6946238279342651 -0.11810228228569031 -0.709612250328064
vn -0.8925609588623047 -0.260814368724823 -0.3678461015224457
vn -0.11793509125709534 -0.33836671710014343 0.9335947632789612
vn -0.9700501561164856 -0.24229468405246735 0.017204545438289642
vn -0.9950236082077026 -0.053070779889822006 -0.08432947844266891
vn -0.9572944641113281 -0.15699386596679688 -0.24277612566947937
vn -0.5044945478439331 -0.2138461321592331 0.8365136981010437
vn -0.86404949426651 -0.3678103983402252 0.3437061309814453
vn -0.2890440821647644 0.06384586542844772 0.9551843404769897
vn -0.13367411494255066 0.144401416182518 0.9804486632347107
vn -0.81944340467453 -0.3052646219730377 -0.4851040840148926
vn -0.861170768737793 -0.26423460245132446 -0.434240460395813
vn 0.9759429693222046 -0.12607410550117493 -0.1778780221939087
vn 0.6340581178665161 -0.21230968832969666 0.7435690760612488
vn 0.5730772614479065 -0.07914282381534576 0.8156708478927612
vn 0.903781533241272 0.06995312124490738 0.42223861813545227
vn 0.9992097616195679 -0.039420198649168015 0.005080970004200935
vn -0.056818343698978424 -0.15691177546977997 0.9859769344329834
vn 0.3066617548465729 -0.11008712649345398 0.9454307556152344
vn -0.07901466637849808 0.21234388649463654 0.9739952087402344
vn -0.2957595884799957 0.003323606913909316 0.9552566409111023
vn -0.2202998250722885 -0.28384748101234436 -0.9332194328308105
vn 0.2798071503639221 -0.28909045457839966 -0.9154968857765198
vn 0.4483436346054077 -0.07979864627122879 -0.890292227268219
vn 0.5415548086166382 0.3190669119358063 -0.7777625322341919
vn 0.3248714804649353 0.3728335499763489 -0.8691683411598206
vn 0.3459981381893158 0.25197461247444153 -0.9037666320800781
vn 0.6592615842819214 0.09813414514064789 -0.7454822659492493
vn -0.7861201763153076 -0.2660600244998932 -0.5578775405883789
vn 0.9813317656517029 -0.18170170485973358 -0.06302815675735474
vn 0.8106776475906372 0.05845071002840996 -0.5825678110122681
vn -0.895332396030426 -0.1403122842311859 -0.4227203130722046
vn -0.9296180009841919 -0.07796616852283478 -0.36018285155296326
vn -0.8840740919113159 0.025600118562579155 -0.4666450023651123
vn -0.8383491039276123 -0.2764573395252228 0.46983209252357483
vn -0.9327349662780762 -0.046399205923080444 0.3575648367404938
vn -0.9471831917762756 0.12285525351762772 0.29622718691825867
vn -0.8916561603546143 0.11521679908037186 -0.43780627846717834
vn -0.9494931697845459 0.30856040120124817 0.057037804275751114
vn 0.1960078328847885 0.09081782400608063 0.9763877391815186
vn -0.3119390308856964 -0.26106610894203186 0.9135307669639587
vn 0.02355293184518814 0.2887299358844757 0.9571207761764526
vn 0.9659923911094666 -0.20157040655612946 0.16195088624954224
vn 0.9914356470108032 -0.07980480045080185 0.10337574779987335
vn 0.2843334972858429 -0.13717330992221832 0.9488614797592163
vn 0.27802789211273193 0.13515818119049072 0.9510166645050049
vn 0.14643335342407227 0.16879884898662567 0.9747124314308167
vn 0.22177664935588837 0.09266870468854904 0.9706841707229614
vn 0.9539705514907837 -0.10945476591587067 0.27921292185783386
vn 0.947966992855072 -0.11358337849378586 0.29741784930229187
vn 0.8367975950241089 -0.1348072588443756 0.5306568145751953
vn 0.1962435245513916 0.024777499958872795 0.980242133140564
vn -0.0997760221362114 0.022571267560124397 0.994753897190094
vn -0.35416939854621887 0.01471963245421648 0.9350654482841492
vn -0.2510789632797241 0.05524250864982605 0.966389000415802
vn -0.6052826642990112 -0.04626378417015076 -0.7946650981903076
vn 0.21407637000083923 -0.06202699616551399 -0.9748456478118896
vn 0.4109039604663849 -0.20834077894687653 -0.8875539302825928
vn 0.3085644245147705 0.8271083831787109 -0.46976563334465027
vn 0.2200249582529068 0.29975274205207825 -0.9282980561256409
vn 0.069481261074543 0.6999454498291016 -0.7108084559440613
vn 0.2899395227432251 0.8880800008773804 -0.35671985149383545
vn -0.9338948130607605 0.14817297458648682 -0.3254002034664154
vn 0.9550879597663879 -0.16681085526943207 0.2449105978012085
vn 0.7213076949119568 0.39506372809410095 -0.568893551826477
vn 0.9947003126144409 -0.08484654128551483 -0.0580708347260952
vn -0.9376161694526672 0.038093432784080505 -0.3455789089202881
vn -0.9190307259559631 0.2637811005115509 -0.2929198145866394
vn -0.7199628353118896 0.25670126080513 -0.6447929739952087
vn -0.2715129852294922 0.07624191045761108 0.9594101309776306
vn -0.31079670786857605 0.02700445055961609 0.950092613697052
vn -0.6747788190841675 0.36939144134521484 0.6389235854148865
vn -0.6742667555809021 0.665743887424469 -0.31960824131965637
vn -0.6300755143165588 0.7752387523651123 -0.044829268008470535
vn -0.7360372543334961 0.577694296836853 -0.352871835231781
vn -0.5493913888931274 0.3605926036834717 -0.7537520527839661
vn 0.42091915011405945 0.20618218183517456 0.8833549618721008
vn 0.5267897248268127 0.045194510370492935 0.8487932682037354
vn 0.33124345541000366 0.06274399906396866 0.9414568543434143
vn -0.46825888752937317 -0.040571946650743484 0.882659375667572
vn -0.14435413479804993 0.10696980357170105 0.9837271571159363
vn -0.08206123858690262 0.17081290483474731 0.9818803071975708
vn 0.13706715404987335 0.19144172966480255 0.971886157989502
vn -0.08039990067481995 0.18851463496685028 0.9787737727165222
vn 0.9533900618553162 0.2579258680343628 0.15659354627132416
vn 0.7623225450515747 0.6392689347267151 0.10099282115697861
vn 0.5190973281860352 -0.2386760711669922 0.8207141757011414
vn 0.7580185532569885 0.022531015798449516 0.6518436670303345
vn -0.40854761004447937 -0.06390272080898285 0.91049724817276
vn -0.3510190546512604 0.1860128939151764 0.9177062511444092
vn -0.17517529428005219 0.1590011864900589 0.9716132283210754
vn -0.5707762241363525 0.2344677746295929 0.7869176268577576
vn -0.5028932094573975 0.0714331790804863 0.8613916635513306
vn -0.6523849368095398 0.23732855916023254 -0.7197701334953308
vn -0.02892022579908371 0.9870631098747253 -0.15770244598388672
vn -0.0751824900507927 0.9846274256706238 0.15765929222106934
vn -0.7033690810203552 0.6623099446296692 -0.25810372829437256
vn 0.6545219421386719 0.7068511843681335 0.26825815439224243
vn 0.0206194706261158 0.9807992577552795 0.19392721354961395
vn 0.19955092668533325 0.8941571712493896 0.4008273184299469
vn -0.8562804460525513 0.46851563453674316 -0.2174329161643982
vn -0.8026874661445618 0.5956211090087891 0.030467752367258072
vn -0.631669282913208 0.4774779975414276 -0.6107443571090698
vn 0.25642526149749756 0.011974912136793137 0.9664899110794067
vn -0.22714601457118988 -0.06870631128549576 0.9714340567588806
vn -0.44946736097335815 0.7975626587867737 0.4023343622684479
vn -0.17681273818016052 0.9840948581695557 -0.017161458730697632
vn -0.3183129131793976 0.8827476501464844 -0.34559139609336853
vn -0.19508081674575806 0.9091784954071045 -0.3678831458091736
vn -0.44078385829925537 0.7279050946235657 -0.5252274870872498
vn -0.48442700505256653 0.48609721660614014 -0.7273513078689575
vn 0.0054023778066039085 0.02328101359307766 0.9997143745422363
vn 0.5728116631507874 0.10412023216485977 0.8130471706390381
vn 0.8393033742904663 0.15290316939353943 0.5217186212539673
vn 0.9773741960525513 0.0950581505894661 0.188954159617424
vn -0.9507739543914795 -0.05190319940447807 0.30550774931907654
vn 0.48491764068603516 0.11009353399276733 0.8676025867462158
vn 0.2640492022037506 0.9349493384361267 -0.23695489764213562
vn 0.666715145111084 0.7374976873397827 0.10764826834201813
vn 0.05818944051861763 0.9951255917549133 -0.07961928099393845
vn -0.10662304610013962 0.7145026922225952 -0.6914604902267456
vn -0.1668328046798706 -0.13589434325695038 0.9765753746032715
vn 0.31327328085899353 0.6748862862586975 0.6681228876113892
vn 0.7852566838264465 -0.3646295964717865 0.5004169940948486
vn -0.22414587438106537 -0.2774994373321533 0.934212327003479
vn -0.4522455334663391 0.06199135258793831 0.889736533164978
vn -0.5412450432777405 0.09417207539081573 0.8355748653411865
vn 0.2119465470314026 0.9744089245796204 -0.07487297803163528
vn -0.32796192169189453 0.9232049584388733 -0.20033353567123413
vn 0.2080218493938446 0.9362090826034546 -0.2832656800746918
vn 0.43352895975112915 0.8919141888618469 -0.12861430644989014
vn 0.3320796489715576 0.8874898552894592 -0.3195072412490845
vn -0.7986970543861389 0.4673546552658081 -0.37902846932411194
vn 0.09716862440109253 -0.32088854908943176 0.9421192407608032
vn -0.18234017491340637 -0.28140825033187866 0.9421048760414124
vn -0.011925100348889828 -0.2752622067928314 0.9612953066825867
vn -0.26400768756866455 0.2552527189254761 0.930132269859314
vn -0.1620510220527649 0.9867427349090576 0.008849667385220528
vn 0.1549157351255417 0.940722644329071 -0.3017318546772003
vn 0.05469629168510437 0.9299423098564148 -0.36361485719680786
vn 0.27879834175109863 0.8255298733711243 -0.4906851053237915
vn -0.015445691533386707 0.8470958471298218 -0.5312155485153198
vn -0.41263002157211304 -0.04155932366847992 0.9099501967430115
vn 0.8041671514511108 0.014839757233858109 0.5942179560661316
vn -0.2919950485229492 -0.021381542086601257 0.9561808109283447
vn -0.06657778471708298 0.5251669883728027 0.8483908176422119
vn 0.4261544346809387 0.9019812345504761 0.06944278627634048
vn 0.3099149763584137 0.802688717842102 -0.5095523595809937
vn -0.30306580662727356 -0.1591130793094635 0.9395925402641296
vn -0.07186196744441986 -0.06951483339071274 0.994989275932312
vn -0.041326649487018585 -0.4081103503704071 0.9119967222213745
vn -0.022546987980604172 -0.33288511633872986 0.9426978230476379
vn -0.14794491231441498 -0.30044281482696533 0.9422559142112732
vn 0.14372625946998596 0.13494832813739777 0.980373203754425
vn -0.22746562957763672 -0.2924436330795288 0.9288358092308044
vn -0.239793062210083 0.09557286649942398 0.9661081433296204
vn -0.11883940547704697 0.5404086112976074 0.8329680562019348
vn 0.3290958106517792 0.9329788684844971 0.14576120674610138
vn 0.06964964419603348 0.2823151648044586 0.9567899703979492
vn 0.10018092393875122 0.022786926478147507 0.9947082996368408
f 1//1 2//2 3//3
f 3//3 4//4 1//1
f 1//1 4//4 5//5
f 6//6 2//2 1//1
f 1//1 5//5 7//7
f 6//6 1//1 7//7
f 8//8 2//2 9//9
f 10//10 2//2 11//11
f 6//6 9//9 2//2
f 2//2 12//12 3//3
f 8//8 11//11 2//2
f 13//13 2//2 10//10
f 12//12 2//2 13//13
f 4//4 3//3 14//14
f 3//3 12//12 14//14
f 15//15 16//16 4//4
f 15//15 4//4 14//14
f 4//4 16//16 5//5
f 5//5 17//17 18//18
f 5//5 19//19 17//17
f 18//18 7//7 5//5
f 20//20 19//19 5//5
f 16//16 21//21 5//5
f 5//5 21//21 20//20
f 22//22 23//23 6//6
f 24//24 6//6 7//7
f 6//6 24//24 22//22
f 9//9 6//6 23//23
f 7//7 18//18 24//24
f 25//25 11//11 8//8
f 9//9 26//26 8//8
f 26//26 27//27 8//8
f 25//25 8//8 27//27
f 9//9 23//23 28//28
f 28//28 29//29 9//9
f 9//9 30//30 26//26
f 29//29 30//30 9//9
f 31//31 10//10 25//25
f 11//11 25//25 10//10
f 32//32 13//13 10//10
f 32//32 10//10 31//31
f 14//14 12//12 33//33
f 12//12 13//13 34//34
f 12//12 34//34 33//33
f 13//13 32//32 34//34
f 35//35 14//14 33//33
f 15//15 14//14 35//35
f 36//36 15//15 35//35
f 36//36 16//16 15//15
f 36//36 21//21 16//16
f 18//18 17//17 37//37
f 17//17 38//38 37//37
f 17//17 19//19 38//38
f 24//24 18//18 37//37
f 19//19 39//39 38//38
f 20//20 39//39 19//19
f 20//20 40//40 39//39
f 21//21 40//40 20//20
f 41//41 21//21 36//36
f 21//21 41//41 40//40
f 22//22 42//42 23//23
f 22//22 24//24 42//42
f 23//23 43//43 28//28
f 42//42 43//43 23//23
f 44//44 42//42 24//24
f 37//37 44//44 24//24
f 25//25 27//27 45//45
f 25//25 45//45 31//31
f 26//26 30//30 45//45
f 26//26 45//45 27//27
f 28//28 46//46 29//29
f 28//28 43//43 46//46
f 29//29 46//46 47//47
f 47//47 48//48 29//29
f 48//48 49//49 29//29
f 29//29 49//49 30//30
f 30//30 49//49 50//50
f 30//30 50//50 45//45
f 51//51 52//52 31//31
f 52//52 32//32 31//31
f 31//31 45//45 50//50
f 51//51 31//31 50//50
f 52//52 34//34 32//32
f 53//53 33//33 34//34
f 35//35 33//33 53//53
f 34//34 52//52 53//53
f 35//35 53//53 36//36
f 54//54 36//36 53//53
f 55//55 36//36 54//54
f 41//41 36//36 55//55
f 56//56 37//37 57//57
f 37//37 56//56 44//44
f 38//38 57//57 37//37
f 38//38 58//58 59//59
f 59//59 60//60 38//38
f 38//38 61//61 57//57
f 38//38 60//60 61//61
f 39//39 58//58 38//38
f 40//40 58//58 39//39
f 41//41 58//58 40//40
f 58//58 41//41 55//55
f 42//42 56//56 43//43
f 56//56 42//42 44//44
f 46//46 43//43 62//62
f 56//56 62//62 43//43
f 46//46 63//63 47//47
f 46//46 64//64 63//63
f 64//64 46//46 65//65
f 46//46 66//66 65//65
f 62//62 66//66 46//46
f 47//47 63//63 48//48
f 48//48 67//67 68//68
f 69//69 48//48 70//70
f 63//63 70//70 48//48
f 68//68 49//49 48//48
f 48//48 69//69 71//71
f 67//67 48//48 71//71
f 49//49 68//68 50//50
f 72//72 73//73 50//50
f 74//74 50//50 73//73
f 50//50 75//75 72//72
f 76//76 75//75 50//50
f 51//51 50//50 74//74
f 68//68 76//76 50//50
f 77//77 51//51 74//74
f 51//51 53//53 52//52
f 51//51 77//77 53//53
f 77//77 78//78 53//53
f 54//54 53//53 78//78
f 58//58 54//54 79//79
f 79//79 54//54 78//78
f 55//55 54//54 58//58
f 80//80 81//81 56//56
f 56//56 57//57 61//61
f 56//56 82//82 62//62
f 61//61 80//80 56//56
f 56//56 81//81 82//82
f 79//79 83//83 58//58
f 83//83 59//59 58//58
f 60//60 59//59 84//84
f 85//85 86//86 59//59
f 86//86 84//84 59//59
f 59//59 83//83 85//85
f 61//61 60//60 84//84
f 61//61 87//87 88//88
f 84//84 87//87 61//61
f 61//61 88//88 80//80
f 66//66 62//62 82//82
f 64//64 89//89 63//63
f 89//89 90//90 63//63
f 70//70 63//63 90//90
f 91//91 64//64 65//65
f 91//91 92//92 64//64
f 92//92 89//89 64//64
f 93//93 91//91 65//65
f 93//93 65//65 94//94
f 66//66 94//94 65//65
f 95//95 96//96 66//66
f 94//94 66//66 97//97
f 96//96 97//97 66//66
f 66//66 82//82 95//95
f 67//67 71//71 98//98
f 98//98 99//99 67//67
f 99//99 68//68 67//67
f 68//68 99//99 100//100
f 68//68 100//100 76//76
f 101//101 69//69 70//70
f 69//69 101//101 102//102
f 69//69 102//102 103//103
f 69//69 103//103 71//71
f 70//70 104//104 101//101
f 105//105 104//104 70//70
f 70//70 90//90 105//105
f 71//71 103//103 106//106
f 71//71 106//106 98//98
f 107//107 72//72 108//108
f 75//75 108//108 72//72
f 72//72 107//107 73//73
f 109//109 74//74 73//73
f 73//73 107//107 110//110
f 109//109 73//73 111//111
f 110//110 111//111 73//73
f 74//74 109//109 77//77
f 100//100 75//75 76//76
f 112//112 108//108 75//75
f 75//75 100//100 112//112
f 78//78 77//77 109//109
f 113//113 114//114 78//78
f 113//113 78//78 109//109
f 79//79 78//78 114//114
f 83//83 79//79 114//114
f 115//115 80//80 88//88
f 116//116 80//80 115//115
f 116//116 81//81 80//80
f 82//82 81//81 117//117
f 116//116 118//118 81//81
f 118//118 117//117 81//81
f 119//119 82//82 117//117
f 120//120 95//95 82//82
f 120//120 82//82 119//119
f 85//85 83//83 114//114
f 84//84 86//86 87//87
f 113//113 111//111 85//85
f 85//85 111//111 121//121
f 121//121 86//86 85//85
f 85//85 114//114 113//113
f 86//86 121//121 122//122
f 86//86 122//122 87//87
f 87//87 123//123 88//88
f 124//124 87//87 122//122
f 87//87 124//124 123//123
f 123//123 125//125 88//88
f 115//115 88//88 125//125
f 92//92 105//105 89//89
f 89//89 105//105 90//90
f 126//126 91//91 93//93
f 91//91 126//126 127//127
f 91//91 127//127 92//92
f 92//92 127//127 105//105
f 93//93 128//128 126//126
f 93//93 129//129 128//128
f 93//93 94//94 130//130
f 93//93 130//130 129//129
f 130//130 94//94 97//97
f 131//131 132//132 95//95
f 95//95 120//120 131//131
f 96//96 95//95 132//132
f 97//97 96//96 132//132
f 133//133 97//97 134//134
f 134//134 97//97 132//132
f 135//135 97//97 133//133
f 136//136 97//97 135//135
f 130//130 97//97 136//136
f 137//137 98//98 120//120
f 106//106 120//120 98//98
f 98//98 138//138 99//99
f 138//138 98//98 139//139
f 137//137 139//139 98//98
f 140//140 141//141 99//99
f 140//140 99//99 142//142
f 142//142 99//99 138//138
f 141//141 100//100 99//99
f 112//112 100//100 141//141
f 104//104 143//143 101//101
f 143//143 144//144 101//101
f 102//102 101//101 144//144
f 145//145 103//103 102//102
f 144//144 145//145 102//102
f 103//103 145//145 146//146
f 146//146 106//106 103//103
f 127//127 104//104 105//105
f 143//143 104//104 147//147
f 104//104 127//127 147//147
f 131//131 120//120 106//106
f 106//106 132//132 131//131
f 106//106 146//146 132//132
f 108//108 148//148 107//107
f 107//107 148//148 110//110
f 149//149 108//108 112//112
f 148//148 108//108 149//149
f 109//109 111//111 113//113
f 150//150 110//110 148//148
f 110//110 150//150 111//111
f 111//111 150//150 122//122
f 111//111 122//122 121//121
f 112//112 141//141 149//149
f 116//116 115//115 151//151
f 115//115 125//125 151//151
f 116//116 151//151 152//152
f 118//118 116//116 152//152
f 118//118 153//153 117//117
f 117//117 153//153 119//119
f 153//153 118//118 154//154
f 118//118 152//152 154//154
f 119//119 153//153 137//137
f 137//137 120//120 119//119
f 124//124 122//122 150//150
f 124//124 155//155 123//123
f 155//155 125//125 123//123
f 156//156 155//155 124//124
f 156//156 124//124 150//150
f 151//151 125//125 155//155
f 126//126 147//147 127//127
f 126//126 128//128 147//147
f 157//157 128//128 158//158
f 128//128 159//159 158//158
f 128//128 157//157 160//160
f 128//128 160//160 147//147
f 128//128 129//129 159//159
f 129//129 130//130 161//161
f 129//129 161//161 159//159
f 130//130 136//136 161//161
f 134//134 132//132 146//146
f 135//135 133//133 162//162
f 163//163 162//162 133//133
f 134//134 163//163 133//133
f 146//146 164//164 134//134
f 163//163 134//134 164//164
f 165//165 135//135 166//166
f 166//166 135//135 167//167
f 168//168 167//167 135//135
f 168//168 135//135 162//162
f 136//136 135//135 165//165
f 169//169 170//170 136//136
f 136//136 165//165 171//171
f 136//136 171//171 169//169
f 161//161 136//136 170//170
f 172//172 137//137 153//153
f 139//139 137//137 172//172
f 173//173 138//138 174//174
f 138//138 173//173 142//142
f 139//139 174//174 138//138
f 139//139 172//172 174//174
f 140//140 142//142 156//156
f 140//140 156//156 175//175
f 149//149 141//141 140//140
f 149//149 140//140 175//175
f 142//142 173//173 155//155
f 155//155 156//156 142//142
f 147//147 176//176 143//143
f 177//177 143//143 178//178
f 177//177 179//179 143//143
f 179//179 144//144 143//143
f 178//178 143//143 176//176
f 180//180 145//145 144//144
f 181//181 144//144 179//179
f 144//144 181//181 180//180
f 145//145 180//180 164//164
f 164//164 146//146 145//145
f 160//160 176//176 147//147
f 175//175 150//150 148//148
f 175//175 148//148 149//149
f 156//156 150//150 175//175
f 151//151 155//155 182//182
f 151//151 182//182 152//152
f 152//152 182//182 183//183
f 154//154 152//152 183//183
f 174//174 172//172 153//153
f 174//174 153//153 183//183
f 153//153 154//154 183//183
f 155//155 173//173 182//182
f 158//158 184//184 157//157
f 157//157 184//184 185//185
f 185//185 160//160 157//157
f 159//159 186//186 158//158
f 186//186 184//184 158//158
f 161//161 187//187 159//159
f 186//186 159//159 187//187
f 188//188 160//160 185//185
f 176//176 160//160 188//188
f 161//161 170//170 189//189
f 189//189 187//187 161//161
f 162//162 163//163 190//190
f 162//162 190//190 168//168
f 163//163 164//164 190//190
f 190//190 164//164 180//180
f 191//191 165//165 166//166
f 192//192 193//193 165//165
f 192//192 165//165 191//191
f 193//193 171//171 165//165
f 166//166 167//167 191//191
f 194//194 195//195 167//167
f 168//168 196//196 167//167
f 167//167 197//197 194//194
f 167//167 195//195 191//191
f 197//197 167//167 196//196
f 190//190 196//196 168//168
f 169//169 171//171 198//198
f 198//198 199//199 169//169
f 199//199 170//170 169//169
f 199//199 189//189 170//170
f 193//193 198//198 171//171
f 173//173 174//174 183//183
f 173//173 183//183 182//182
f 178//178 176//176 200//200
f 176//176 188//188 200//200
f 201//201 177//177 202//202
f 203//203 177//177 204//204
f 177//177 178//178 204//204
f 203//203 202//202 177//177
f 179//179 177//177 201//201
f 204//204 178//178 200//200
f 179//179 205//205 181//181
f 179//179 201//201 206//206
f 206//206 205//205 179//179
f 207//207 180//180 181//181
f 190//190 180//180 207//207
f 208//208 207//207 181//181
f 205//205 208//208 181//181
f 186//186 209//209 184//184
f 210//210 184//184 209//209
f 185//185 184//184 211//211
f 184//184 210//210 211//211
f 185//185 212//212 213//213
f 213//213 214//214 185//185
f 214//214 188//188 185//185
f 185//185 211//211 215//215
f 215//215 212//212 185//185
f 209//209 186//186 216//216
f 186//186 187//187 216//216
f 216//216 187//187 189//189
f 217//217 200//200 188//188
f 214//214 218//218 188//188
f 188//188 218//218 217//217
f 199//199 219//219 189//189
f 220//220 189//189 221//221
f 189//189 219//219 221//221
f 189//189 220//220 216//216
f 207//207 196//196 190//190
f 191//191 195//195 222//222
f 223//223 191//191 222//222
f 223//223 192//192 191//191
f 223//223 224//224 192//192
f 192//192 225//225 193//193
f 192//192 226//226 225//225
f 224//224 226//226 192//192
f 198//198 193//193 219//219
f 193//193 225//225 219//219
f 194//194 227//227 228//228
f 197//197 227//227 194//194
f 228//228 195//195 194//194
f 228//228 222//222 195//195
f 197//197 196//196 207//207
f 197//197 229//229 227//227
f 229//229 197//197 207//207
f 198//198 219//219 199//199
f 230//230 200//200 217//217
f 230//230 231//231 200//200
f 204//204 200//200 231//231
f 201//201 202//202 232//232
f 201//201 232//232 206//206
f 203//203 233//233 202//202
f 202//202 233//233 234//234
f 235//235 202//202 234//234
f 202//202 235//235 232//232
f 203//203 231//231 236//236
f 204//204 231//231 203//203
f 236//236 237//237 203//203
f 237//237 238//238 203//203
f 239//239 203//203 238//238
f 203//203 239//239 233//233
f 206//206 240//240 205//205
f 240//240 241//241 205//205
f 205//205 241//241 208//208
f 206//206 232//232 240//240
f 242//242 207//207 208//208
f 242//242 229//229 207//207
f 241//241 242//242 208//208
f 243//243 209//209 216//216
f 244//244 209//209 243//243
f 245//245 209//209 244//244
f 210//210 209//209 245//245
f 210//210 245//245 211//211
f 215//215 211//211 245//245
f 212//212 246//246 213//213
f 215//215 247//247 212//212
f 248//248 212//212 247//247
f 248//248 246//246 212//212
f 246//246 249//249 213//213
f 213//213 249//249 214//214
f 214//214 249//249 218//218
f 247//247 215//215 244//244
f 244//244 215//215 245//245
f 250//250 216//216 220//220
f 243//243 216//216 250//250
f 217//217 251//251 230//230
f 218//218 251//251 217//217
f 252//252 218//218 249//249
f 253//253 230//230 218//218
f 230//230 251//251 218//218
f 252//252 253//253 218//218
f 221//221 219//219 225//225
f 221//221 254//254 220//220
f 250//250 220//220 255//255
f 220//220 254//254 255//255
f 221//221 225//225 256//256
f 221//221 256//256 254//254
f 223//223 222//222 257//257
f 222//222 228//228 257//257
f 223//223 258//258 224//224
f 257//257 258//258 223//223
f 259//259 224//224 258//258
f 260//260 226//226 224//224
f 260//260 224//224 261//261
f 224//224 259//259 261//261
f 226//226 262//262 225//225
f 263//263 256//256 225//225
f 263//263 225//225 262//262
f 262//262 226//226 260//260
f 264//264 227//227 229//229
f 265//265 228//228 227//227
f 265//265 227//227 264//264
f 228//228 265//265 266//266
f 228//228 266//266 257//257
f 267//267 229//229 242//242
f 268//268 229//229 267//267
f 264//264 229//229 268//268
f 231//231 230//230 253//253
f 236//236 231//231 253//253
f 235//235 240//240 232//232
f 233//233 239//239 269//269
f 233//233 269//269 234//234
f 234//234 269//269 270//270
f 235//235 234//234 270//270
f 271//271 235//235 270//270
f 235//235 271//271 240//240
f 272//272 237//237 236//236
f 236//236 253//253 273//273
f 272//272 236//236 273//273
f 237//237 274//274 238//238
f 275//275 274//274 237//237
f 275//275 237//237 272//272
f 238//238 274//274 239//239
f 276//276 239//239 274//274
f 239//239 277//277 269//269
f 277//277 239//239 276//276
f 240//240 278//278 241//241
f 271//271 270//270 240//240
f 270//270 278//278 240//240
f 278//278 279//279 241//241
f 280//280 267//267 241//241
f 267//267 242//242 241//241
f 280//280 241//241 279//279
f 281//281 243//243 250//250
f 247//247 243//243 281//281
f 244//244 243//243 247//247
f 282//282 246//246 248//248
f 283//283 246//246 282//282
f 283//283 249//249 246//246
f 247//247 281//281 248//248
f 248//248 281//281 284//284
f 248//248 284//284 282//282
f 285//285 252//252 249//249
f 283//283 286//286 249//249
f 249//249 286//286 287//287
f 285//285 249//249 287//287
f 255//255 288//288 250//250
f 289//289 284//284 250//250
f 289//289 250//250 288//288
f 281//281 250//250 284//284
f 285//285 253//253 252//252
f 285//285 273//273 253//253
f 255//255 254//254 256//256
f 256//256 290//290 255//255
f 290//290 288//288 255//255
f 263//263 290//290 256//256
f 257//257 266//266 291//291
f 257//257 291//291 258//258
f 292//292 258//258 291//291
f 259//259 258//258 292//292
f 293//293 259//259 292//292
f 259//259 293//293 294//294
f 259//259 294//294 261//261
f 295//295 260//260 296//296
f 296//296 260//260 261//261
f 262//262 260//260 295//295
f 261//261 294//294 296//296
f 297//297 263//263 262//262
f 297//297 262//262 295//295
f 297//297 298//298 263//263
f 298//298 290//290 263//263
f 268//268 299//299 264//264
f 300//300 264//264 299//299
f 265//265 264//264 300//300
f 265//265 300//300 266//266
f 266//266 300//300 291//291
f 280//280 268//268 267//267
f 268//268 280//280 299//299
f 269//269 301//301 270//270
f 277//277 301//301 269//269
f 301//301 270//270 302//302
f 302//302 301//301 270//270
f 270//270 303//303 302//302
f 270//270 303//303 302//302
f 270//270 304//304 278//278
f 270//270 301//301 304//304
f 305//305 272//272 273//273
f 272//272 306//306 275//275
f 305//305 306//306 272//272
f 273//273 285//285 307//307
f 273//273 307//307 308//308
f 273//273 308//308 305//305
f 309//309 276//276 274//274
f 309//309 274//274 275//275
f 309//309 275//275 310//310
f 275//275 306//306 310//310
f 276//276 303//303 302//302
f 302//302 277//277 276//276
f 276//276 311//311 303//303
f 312//312 311//311 276//276
f 312//312 276//276 309//309
f 277//277 302//302 301//301
f 304//304 313//313 278//278
f 313//313 279//279 278//278
f 314//314 280//280 279//279
f 313//313 314//314 279//279
f 280//280 314//314 299//299
f 283//283 282//282 284//284
f 315//315 286//286 283//283
f 283//283 316//316 315//315
f 289//289 316//316 283//283
f 289//289 283//283 284//284
f 285//285 287//287 307//307
f 286//286 315//315 317//317
f 286//286 317//317 287//287
f 317//317 318//318 287//287
f 307//307 287//287 319//319
f 319//319 287//287 318//318
f 320//320 289//289 288//288
f 290//290 320//320 288//288
f 316//316 289//289 320//320
f 298//298 320//320 290//290
f 321//321 291//291 322//322
f 291//291 299//299 322//322
f 291//291 323//323 292//292
f 323//323 291//291 321//321
f 300//300 299//299 291//291
f 292//292 324//324 293//293
f 323//323 324//324 292//292
f 325//325 293//293 324//324
f 293//293 325//325 294//294
f 294//294 326//326 296//296
f 325//325 326//326 294//294
f 297//297 295//295 327//327
f 327//327 295//295 328//328
f 328//328 295//295 296//296
f 296//296 326//326 328//328
f 329//329 298//298 297//297
f 297//297 327//327 329//329
f 316//316 320//320 298//298
f 316//316 298//298 329//329
f 299//299 314//314 330//330
f 299//299 330//330 322//322
f 304//304 301//301 302//302
f 302//302 311//311 331//331
f 331//331 304//304 302//302
f 303//303 311//311 302//302
f 313//313 304//304 332//332
f 332//332 304//304 331//331
f 333//333 305//305 334//334
f 308//308 335//335 305//305
f 335//335 334//334 305//305
f 310//310 306//306 305//305
f 310//310 305//305 333//333
f 308//308 307//307 319//319
f 319//319 335//335 308//308
f 336//336 309//309 333//333
f 309//309 310//310 333//333
f 336//336 312//312 309//309
f 312//312 331//331 311//311
f 331//331 312//312 332//332
f 312//312 336//336 337//337
f 312//312 337//337 332//332
f 314//314 313//313 330//330
f 313//313 332//332 330//330
f 316//316 329//329 315//315
f 315//315 329//329 317//317
f 327//327 317//317 329//329
f 317//317 327//327 318//318
f 327//327 328//328 318//318
f 328//328 319//319 318//318
f 319//319 328//328 335//335
f 321//321 338//338 339//339
f 339//339 323//323 321//321
f 322//322 338//338 321//321
f 338//338 322//322 340//340
f 322//322 341//341 340//340
f 322//322 332//332 342//342
f 342//342 341//341 322//322
f 330//330 332//332 322//322
f 323//323 339//339 324//324
f 343//343 324//324 339//339
f 343//343 325//325 324//324
f 325//325 343//343 344//344
f 325//325 345//345 326//326
f 344//344 345//345 325//325
f 326//326 335//335 328//328
f 335//335 326//326 334//334
f 345//345 334//334 326//326
f 332//332 337//337 342//342
f 346//346 336//336 333//333
f 346//346 333//333 334//334
f 341//341 334//334 345//345
f 334//334 341//341 346//346
f 346//346 337//337 336//336
f 342//342 337//337 347//347
f 347//347 337//337 346//346
f 339//339 338//338 343//343
f 338//338 340//340 343//343
f 340//340 344//344 343//343
f 341//341 344//344 340//340
f 347//347 341//341 342//342
f 344//344 341//341 345//345
f 341//341 347//347 346//346
