# Generated by Visualization Toolkit
v 0.006738000083714724 -0.09287499636411667 0.0024770000018179417
v 0.0035059999208897352 -0.08817599713802338 0.0032079999800771475
v 0.004443999845534563 -0.09191299974918365 0.0034360000863671303
v 0.0068870000541210175 -0.09843099862337112 0.0028750000055879354
v 0.005549999885261059 -0.08983699977397919 0.0021279999054968357
v 0.006792000029236078 -0.09054800122976303 0.0016530000139027834
v 0.007895000278949738 -0.09368100017309189 0.0008479999960400164
v 0.0038620000705122948 -0.08944299817085266 0.005125999916344881
v 0.00015799999528098851 -0.08376000076532364 0.00622999994084239
v 0.0011149999918416142 -0.08351399749517441 0.0015589999966323376
v 0.0025629999581724405 -0.0872189998626709 -0.000045000000682193786
v 0.004592000041157007 -0.09583699703216553 0.003703000023961067
v 0.0040710000321269035 -0.09587500244379044 0.004912999924272299
v 0.004315000027418137 -0.09241999685764313 0.004674999974668026
v 0.0065819998271763325 -0.09977699816226959 0.0028989999555051327
v 0.007546000182628632 -0.09946800023317337 0.0009079999872483313
v 0.00418600020930171 -0.08955799788236618 -0.0002460000105202198
v 0.00636299978941679 -0.0899519994854927 0.0007890000124461949
v 0.006697000004351139 -0.09129100292921066 -0.00017800000205170363
v 0.007577999960631132 -0.09732700139284134 -0.0010189999593421817
v 0.0033080000430345535 -0.09060999751091003 0.006527000106871128
v 0.0029319999739527702 -0.0891600027680397 0.006575999781489372
v 0.00031800000579096377 -0.08616500347852707 0.0070859999395906925
v 0.0010839999886229634 -0.08808299899101257 0.007286000065505505
v -0.0007479999912902713 -0.07799199968576431 0.0018119999440386891
v -0.002515000058338046 -0.07879099994897842 0.00800700020045042
v 0.001145999995060265 -0.0857430025935173 -0.0013989999424666166
v 0.0037239999510347843 -0.0979750007390976 0.0036780000664293766
v 0.00420599989593029 -0.09758000075817108 0.006035999860614538
v 0.003020999953150749 -0.09428700059652328 0.008162000216543674
v 0.0026759998872876167 -0.09068500250577927 0.008177000097930431
v 0.006455000024288893 -0.10190299898386002 0.0012760000536218286
v 0.005543000064790249 -0.10127899795770645 0.002873999997973442
v 0.005284000188112259 -0.10274700075387955 -0.0006820000126026571
v 0.005078999791294336 -0.09638000279664993 -0.005301999859511852
v 0.0017209999496117234 -0.0922819972038269 -0.004912000149488449
v 0.0065100002102553844 -0.09938400238752365 -0.0032659999560564756
v 0.0020169999916106462 -0.0891840010881424 0.007788000162690878
v -0.00039500001003034413 -0.08790399879217148 0.0074339997954666615
v -0.00177800003439188 -0.08645900338888168 0.007935999892652035
v -0.0033889999613165855 -0.07951600104570389 0.008445000275969505
v -0.0007830000249668956 -0.08928799629211426 0.008287999778985977
v -0.004972999915480614 -0.06905300170183182 0.006554000079631805
v -0.004519999958574772 -0.06548400223255157 0.004238000139594078
v -0.005020999815315008 -0.0621270015835762 0.0039369999431073666
v -0.0038240000139921904 -0.062217000871896744 0.0018560000462457538
v -0.001787999994121492 -0.07581000030040741 -0.0004870000120718032
v -0.006800999864935875 -0.06994999945163727 0.007397000212222338
v -0.006647000089287758 -0.06997700035572052 -0.0014570000348612666
v -0.0025839998852461576 -0.0816200003027916 -0.002759000053629279
v -0.0007340000011026859 -0.08910900354385376 -0.005799000151455402
v -0.0015399999683722854 -0.08590000122785568 -0.004182999953627586
v 0.004062000196427107 -0.09914299845695496 0.007803000044077635
v 0.004362999927252531 -0.10167499631643295 0.004573000129312277
v 0.003493000054731965 -0.09627299755811691 0.007331999950110912
v 0.0005239999736659229 -0.09597600251436234 0.008669000118970871
v 0.0028750000055879354 -0.09674900025129318 0.008454999886453152
v 0.005036999937146902 -0.10309100151062012 0.0013180000241845846
v 0.002824000082910061 -0.10309600085020065 -0.003613000037148595
v 0.0011690000537782907 -0.09403099864721298 -0.007275999989360571
v 0.0019239999819546938 -0.09815099835395813 -0.007861999794840813
v -0.00033999999868683517 -0.09053099900484085 -0.008426000364124775
v 0.0005280000041238964 -0.0934630036354065 -0.00877199973911047
v 0.0031079999171197414 -0.10201600193977356 -0.004757999908179045
v -0.001969000091776252 -0.08962900191545486 0.007451999932527542
v -0.006430999841541052 -0.07341799885034561 0.007185999769717455
v -0.005836999975144863 -0.06576000154018402 0.005766000133007765
v -0.007836000062525272 -0.06673599779605865 0.006453999783843756
v -0.004048999864608049 -0.05900600180029869 0.0027520000003278255
v -0.006002999842166901 -0.05534299835562706 0.003346000099554658
v -0.005177000071853399 -0.05564599856734276 0.003387999953702092
v -0.004604000132530928 -0.05902500078082085 0.003662999952211976
v -0.004569000098854303 -0.06180199980735779 -0.0004619999963324517
v -0.0059819999150931835 -0.05319700017571449 -0.001959000015631318
v -0.006401000078767538 -0.06618499755859375 -0.001446999958716333
v -0.01054100040346384 -0.06374099850654602 0.0040480000898242
v -0.00520800007507205 -0.08298700302839279 -0.0032550001051276922
v -0.006202000193297863 -0.08745399862527847 -0.002598999999463558
v -0.008888999931514263 -0.07383400201797485 -0.0006000000284984708
v -0.009814999997615814 -0.06710399687290192 -0.0007820000173524022
v -0.001512999995611608 -0.08899399638175964 -0.006403000093996525
v -0.0009720000089146197 -0.08965499699115753 -0.0073460000567138195
v -0.0035780000034719706 -0.08980699628591537 -0.004809000063687563
v 0.0008219999726861715 -0.09764199703931808 0.00853000022470951
v 0.0007949999999254942 -0.09885799884796143 0.007895000278949738
v 0.0020540000405162573 -0.10026299953460693 0.005894999951124191
v 0.0022060000337660313 -0.103302001953125 0.002641000086441636
v 0.00027600000612437725 -0.09759899973869324 0.00824000034481287
v 0.0019490000559017062 -0.10354799777269363 -0.00025599999935366213
v 0.0017450000159442425 -0.10224699974060059 -0.004894999787211418
v -0.0028909998945891857 -0.10064099729061127 -0.0018579999450594187
v 0.0007740000146441162 -0.09494999796152115 -0.008934999816119671
v 0.00038400001358240843 -0.09536699950695038 -0.00916100014001131
v 0.0002629999944474548 -0.09837400168180466 -0.008328000083565712
v -0.0005610000225715339 -0.09288299828767776 -0.009503999724984169
v -0.0010000000474974513 -0.09078700095415115 -0.008616000413894653
v -0.002715999959036708 -0.09393899887800217 0.005104000214487314
v -0.006295999977737665 -0.09104400128126144 0.0028260000981390476
v -0.009240999817848206 -0.058591000735759735 0.005444999784231186
v -0.004548000171780586 -0.05557199940085411 0.003017999930307269
v -0.0062339999713003635 -0.052393000572919846 0.0034199999645352364
v -0.00940600037574768 -0.05085799843072891 0.00509499991312623
v -0.0033480001147836447 -0.04452100023627281 0.002715999959036708
v -0.002245000097900629 -0.03977600112557411 -0.00020900000527035445
v -0.004902000073343515 -0.043528001755476 -0.0024270000867545605
v -0.007306999992579222 -0.044440001249313354 -0.004393000155687332
v -0.009575000032782555 -0.05704899877309799 -0.0021389999892562628
v -0.007877999916672707 -0.050390999764204025 -0.003235999960452318
v -0.01244799979031086 -0.05784200131893158 0.0011360000353306532
v -0.012469000183045864 -0.054350998252630234 0.003341000061482191
v -0.007832000032067299 -0.08420500159263611 0.0008580000139772892
v -0.007542999926954508 -0.08924700319766998 -0.0001849999971454963
v -0.007770999800413847 -0.09198799729347229 -0.001820000004954636
v -0.011256000027060509 -0.054099999368190765 -0.0022070000413805246
v -0.002308000111952424 -0.09171599894762039 -0.006591999903321266
v -0.00145800004247576 -0.09137500077486038 -0.00911100022494793
v -0.002669000066816807 -0.09453800320625305 -0.004985999781638384
v -0.004052999895066023 -0.09470199793577194 -0.0030269999988377094
v -0.006947000045329332 -0.09410399943590164 -0.0018149999668821692
v 0.0004220000118948519 -0.10037299990653992 0.005549999885261059
v -0.0004180000105407089 -0.09985300153493881 0.006023999769240618
v -0.00016700000560376793 -0.1009019985795021 0.003840999910607934
v -0.0033050000201910734 -0.1003360003232956 -0.001117000007070601
v -0.0036770000588148832 -0.09634800255298615 0.002638000063598156
v -0.0018029999919235706 -0.10001499950885773 -0.004368999972939491
v -0.0022700000554323196 -0.09825599938631058 -0.0031469999812543392
v -0.003963999915868044 -0.09840500354766846 -0.0010300000431016088
v -0.00020399999630171806 -0.09562700241804123 -0.009211000055074692
v -0.002222999930381775 -0.09583699703216553 -0.007825000211596489
v -0.0021349999587982893 -0.09366100281476974 -0.007772000040858984
v -0.004265000112354755 -0.09475000202655792 0.0033889999613165855
v -0.007528999820351601 -0.0929810032248497 0.001487000030465424
v -0.005485000088810921 -0.0955900028347969 0.0018189999973401427
v -0.010726000182330608 -0.05087700113654137 0.004999000113457441
v -0.006093999836593866 -0.04184599965810776 0.004265999887138605
v -0.009441999718546867 -0.042555999010801315 0.007164000067859888
v -0.0022640000097453594 -0.038314998149871826 0.0029589999467134476
v -0.004995000082999468 -0.03786800056695938 0.00456599984318018
v -0.0012989999959245324 -0.036956001073122025 -0.0007820000173524022
v -0.0012120000319555402 -0.03710399940609932 0.0012420000275596976
v -0.007420000154525042 -0.03960200026631355 -0.005733999889343977
v -0.005274000111967325 -0.0392879992723465 -0.004985999781638384
v -0.004310000222176313 -0.03902300074696541 -0.004639999940991402
v -0.00822800025343895 -0.03982099890708923 -0.0055680000223219395
v -0.010506999678909779 -0.04475799947977066 -0.004852999933063984
v -0.012323999777436256 -0.04811700060963631 -0.0032850001007318497
v -0.012916999869048595 -0.05447600036859512 0.000506000011228025
v -0.013763000257313251 -0.04463699832558632 0.003573999973013997
v -0.011946000158786774 -0.04504700005054474 0.005284999962896109
v -0.014367000199854374 -0.049274999648332596 0.0003009999927598983
v -0.007988999597728252 -0.09349600225687027 -0.0005450000171549618
v -0.012896000407636166 -0.051045000553131104 -0.0018810000037774444
v -0.004712999798357487 -0.09752199798822403 -0.0007789999945089221
v -0.005551000125706196 -0.09633299708366394 -0.00019200000679120421
v -0.006312999874353409 -0.09530500322580338 -0.0006670000148005784
v -0.007646999787539244 -0.09408099949359894 -0.00011500000255182385
v -0.004310999996960163 -0.09894700348377228 -0.0000779999973019585
v -0.003969000186771154 -0.09954799711704254 -0.0007580000092275441
v -0.004670000169426203 -0.09727499634027481 0.00046300000394694507
v -0.0064039998687803745 -0.09526699781417847 0.000901999999769032
v -0.010991999879479408 -0.04289599880576134 0.006496000103652477
v -0.008346999995410442 -0.03982799872756004 0.007441999856382608
v -0.007215999998152256 -0.039799999445676804 0.006037999875843525
v -0.010120999999344349 -0.04070400074124336 0.007203999906778336
v -0.00046999999904073775 -0.035082001239061356 0.002893999917432666
v -0.006750000175088644 -0.03736500069499016 0.007050999905914068
v -0.0014939999673515558 -0.03432200103998184 0.0035669999197125435
v -0.0030429998878389597 -0.036851998418569565 -0.003507999936118722
v -0.001344999996945262 -0.03438999876379967 0.0006179999909363687
v -0.002575000049546361 -0.034391000866889954 -0.0022360000293701887
v 0.000003999999989900971 -0.0331679992377758 0.0018980000168085098
v -0.005991999991238117 -0.038297999650239944 -0.005429999902844429
v -0.008123000152409077 -0.03850200027227402 -0.005565000232309103
v -0.007333000190556049 -0.038346998393535614 -0.005747999995946884
v -0.005014999769628048 -0.0381769984960556 -0.005243000108748674
v -0.011064999736845493 -0.04227299988269806 -0.004492000211030245
v -0.009794999845325947 -0.040171001106500626 -0.0039980001747608185
v -0.013860000297427177 -0.04284600168466568 -0.003602999961003661
v -0.01425699982792139 -0.048326000571250916 -0.003166999900713563
v -0.01345799956470728 -0.0491890013217926 -0.002517000073567033
v -0.014329999685287476 -0.049623001366853714 -0.0013040000339969993
v -0.01191100012511015 -0.042608000338077545 0.004528000019490719
v -0.014131000265479088 -0.04196000099182129 0.0037400000728666782
v -0.015199000015854836 -0.039746999740600586 0.003163000103086233
v -0.014910999685525894 -0.04878599941730499 -0.001896000001579523
v -0.01629200018942356 -0.04180099815130234 -0.0017709999810904264
v -0.01670599915087223 -0.04057899862527847 0.00043899999582208693
v -0.011629999615252018 -0.041117001324892044 0.0061969999223947525
v -0.010266000404953957 -0.03938300162553787 0.0076779997907578945
v -0.009100999683141708 -0.03923700004816055 0.008139999583363533
v -0.011850000359117985 -0.039824001491069794 0.006566999945789576
v 0.0005310000269673765 -0.03157399967312813 0.0023380001075565815
v -0.009576999582350254 -0.03838900104165077 0.008615000173449516
v -0.009548000060021877 -0.03719300031661987 0.008960000239312649
v -0.007104000076651573 -0.031038999557495117 0.005756999831646681
v -0.00152299995534122 -0.029296999797225 0.002939000027254224
v -0.004701000172644854 -0.03715499863028526 -0.00496299983933568
v -0.004875000100582838 -0.03395799919962883 -0.004898000042885542
v -0.006302000023424625 -0.035684000700712204 -0.004503999836742878
v -0.006113000214099884 -0.036191001534461975 -0.004889000207185745
v -0.0019199999514967203 -0.032690998166799545 -0.002423000056296587
v -0.004029000177979469 -0.033764999359846115 -0.0037819999270141125
v 0.0007329999934881926 -0.03173299878835678 0.0018400000408291817
v -0.005863000173121691 -0.03728500008583069 -0.005295999813824892
v -0.0068720001727342606 -0.03747199848294258 -0.0053369998931884766
v -0.008004000410437584 -0.03694000095129013 -0.004666999913752079
v -0.00860000029206276 -0.036991000175476074 -0.004170000087469816
v -0.011130000464618206 -0.0393190011382103 -0.0032969999592751265
v -0.012242999859154224 -0.03910600021481514 -0.0024019998963922262
v -0.010634000413119793 -0.0389540009200573 -0.0037010000087320805
v -0.01561299990862608 -0.04098000004887581 -0.002827000105753541
v -0.01181000005453825 -0.03889400139451027 0.0042940001003444195
v -0.014054999686777592 -0.03880399838089943 0.004095000214874744
v -0.015588000416755676 -0.03856800124049187 0.0034630000591278076
v -0.01716100051999092 -0.040024999529123306 -0.0012049999786540866
v -0.016951000317931175 -0.04022099822759628 -0.0021470000501722097
v -0.01734899915754795 -0.038704998791217804 0.00029799999902024865
v -0.017007000744342804 -0.03441200032830238 0.003441999899223447
v -0.012657999992370605 -0.03740999847650528 0.007323000114411116
v -0.012009000405669212 -0.037755001336336136 0.004153000190854073
v -0.013035999611020088 -0.03681499883532524 0.0050490000285208225
v 0.0005360000068321824 -0.03081200085580349 0.0020459999796003103
v -0.01030499953776598 -0.03263700008392334 0.00964299961924553
v -0.01194700039923191 -0.03301699832081795 0.009049000218510628
v -0.011219999752938747 -0.030632000416517258 0.00611699977889657
v -0.01145199965685606 -0.030906999483704567 0.0068270000629127026
v -0.012186000123620033 -0.03139699995517731 0.008201999589800835
v -0.011315000243484974 -0.03184200078248978 0.009114000014960766
v 0.0002589999930933118 -0.03027999959886074 0.001858999952673912
v -0.011803999543190002 -0.030666999518871307 0.005291000008583069
v -0.009344999678432941 -0.0306560005992651 0.003976999782025814
v -0.0067010000348091125 -0.031307999044656754 0.0003000000142492354
v -0.004904999863356352 -0.03311200067400932 -0.005177999846637249
v -0.005880999844521284 -0.03407900035381317 -0.0048409998416900635
v -0.0069679999724030495 -0.0352340005338192 -0.00394099997356534
v -0.00698699988424778 -0.034370001405477524 -0.004102999810129404
v -0.006814999971538782 -0.03619600087404251 -0.0045380000956356525
v -0.003473999910056591 -0.03292199969291687 -0.00392800010740757
v -0.0032369999680668116 -0.032145000994205475 -0.0038620000705122948
v 0.000387999985832721 -0.030834000557661057 0.0010900000343099236
v -0.001062000053934753 -0.03147999942302704 -0.0010819999733939767
v -0.008925000205636024 -0.035144999623298645 -0.0035429999697953463
v -0.007741999812424183 -0.03608899936079979 -0.004478000104427338
v -0.007988999597728252 -0.03522700071334839 -0.004348999820649624
v -0.010613000020384789 -0.03549899905920029 -0.002877000020816922
v -0.010638999752700329 -0.03713500127196312 -0.0032240001019090414
v -0.016047000885009766 -0.039716001600027084 -0.0027209999971091747
v -0.015030999667942524 -0.03809399902820587 -0.0018919999711215496
v -0.015447000041604042 -0.03556700050830841 -0.0021810000762343407
v -0.011501999571919441 -0.03649299964308739 -0.0027439999394118786
v -0.015091000124812126 -0.036726001650094986 0.004964000079780817
v -0.017618000507354736 -0.03914999961853027 -0.0025679999962449074
v -0.018598999828100204 -0.0384490005671978 -0.0017140000127255917
v -0.0191079992800951 -0.036552999168634415 -0.0007820000173524022
v -0.015545999631285667 -0.03329100087285042 0.004869000054895878
v -0.01611899957060814 -0.029109999537467957 0.0039079999551177025
v -0.013565000146627426 -0.034060999751091 0.005799999926239252
v -0.013767000287771225 -0.0327490009367466 0.005859999917447567
v -0.012942000292241573 -0.03309499844908714 0.008073999546468258
v -0.012659999541938305 -0.03039499931037426 0.005601000040769577
v -0.012107999995350838 -0.030634000897407532 0.006335000041872263
v -0.01244099996984005 -0.0313120000064373 0.00648800004273653
v -0.01231400016695261 -0.03058600053191185 0.0040790000930428505
v -0.013148000463843346 -0.030125999823212624 0.004815999884158373
v -0.0128370001912117 -0.029805000871419907 0.003172999946400523
v -0.008557000197470188 -0.029913000762462616 -0.00021300000662449747
v -0.0116779999807477 -0.03057900071144104 0.0003239999932702631
v -0.006182999815791845 -0.03209900110960007 -0.004964999854564667
v -0.004327999893575907 -0.0321739986538887 -0.005404000170528889
v -0.0077669997699558735 -0.03530900180339813 -0.0038660001009702682
v -0.007706999778747559 -0.034724000841379166 -0.003766000038012862
v -0.007416999898850918 -0.033893998712301254 -0.003524000057950616
v -0.0032289999071508646 -0.031606998294591904 -0.003645000047981739
v -0.0041069998405873775 -0.03141700103878975 -0.005288000218570232
v -0.009486000053584576 -0.02965500019490719 -0.0019509999547153711
v -0.0031820000149309635 -0.03125999867916107 -0.0031689999159425497
v -0.009734000079333782 -0.029121000319719315 -0.0027729999274015427
v -0.00811699964106083 -0.03200700134038925 -0.004110000096261501
v -0.009974000044167042 -0.034226998686790466 -0.0035699999425560236
v -0.008073999546468258 -0.03416299819946289 -0.0038980001118034124
v -0.01371499989181757 -0.031922001391649246 -0.002130999928340316
v -0.017636999487876892 -0.037728000432252884 -0.0031210000161081553
v -0.016932999715209007 -0.03612599894404411 -0.002615999896079302
v -0.018705999478697777 -0.032944001257419586 -0.0015249999705702066
v -0.017771000042557716 -0.02839300036430359 -0.001851000008173287
v -0.017235999926924706 -0.028369000181555748 -0.002380999969318509
v -0.018188999965786934 -0.037129998207092285 -0.002795000094920397
v -0.018704000860452652 -0.029681000858545303 -0.0005629999795928597
v -0.016448000445961952 -0.027248000726103783 0.003056999994441867
v -0.014837999828159809 -0.02774900011718273 0.002887000096961856
v -0.012760000303387642 -0.029565000906586647 -0.0006140000186860561
v -0.014909000135958195 -0.027289999648928642 0.0011630000080913305
v -0.007996000349521637 -0.032597001641988754 -0.0036669999826699495
v -0.008077999576926231 -0.03128800168633461 -0.004044999834150076
v -0.005669000092893839 -0.030257999897003174 -0.0044999998062849045
v -0.00797600019723177 -0.03056200034916401 -0.004025000147521496
v -0.007745000068098307 -0.034338001161813736 -0.0033760000951588154
v -0.007911000400781631 -0.033587001264095306 -0.003295999951660633
v -0.0038960000965744257 -0.030997000634670258 -0.004935000091791153
v -0.013156999833881855 -0.028982000425457954 -0.002050000010058284
v -0.0038610000628978014 -0.030722999945282936 -0.004478000104427338
v -0.013225000351667404 -0.028668999671936035 -0.0025480000767856836
v -0.011241000145673752 -0.02865299955010414 -0.0030529999639838934
v -0.010642999783158302 -0.03117400035262108 -0.0034680000972002745
v -0.011394999921321869 -0.030357999727129936 -0.0033650000113993883
v -0.01410400029271841 -0.02924099937081337 -0.0034549999982118607
v -0.013012999668717384 -0.030597999691963196 -0.0034290000330656767
v -0.01768600009381771 -0.026683999225497246 -0.0010590000310912728
v -0.01742600090801716 -0.027084000408649445 -0.0020020001102238894
v -0.016241999343037605 -0.027139000594615936 -0.0026179999113082886
v -0.016973000019788742 -0.02694600075483322 -0.0022350000217556953
v -0.017335999757051468 -0.02606000006198883 -0.0003490000090096146
v -0.01697400026023388 -0.025836000218987465 0.00031800000579096377
v -0.01525100041180849 -0.027096999809145927 -0.0016980000073090196
v -0.012072999961674213 -0.029238000512123108 -0.0030129998922348022
v -0.007464999798685312 -0.030055999755859375 -0.00394099997356534
v -0.015212999656796455 -0.02743699960410595 -0.002403999911621213
v -0.014569000340998173 -0.028217000886797905 -0.0031419999431818724
v -0.017253000289201736 -0.026252999901771545 -0.0012750000460073352
v -0.017017999663949013 -0.025860000401735306 -0.0007130000158213079
vn 0.6262410879135132 0.1856498271226883 0.7572028636932373
vn 0.8359941244125366 0.4643958508968353 0.2923186123371124
vn 0.8351700305938721 0.11113563179969788 0.538646399974823
vn 0.6798235774040222 -0.01468395721167326 0.7332287430763245
vn 0.629324734210968 0.7210415005683899 0.2899129390716553
vn 0.8465267419815063 0.4526572525501251 0.2801675796508789
vn 0.9849939942359924 0.12459815293550491 0.1194244846701622
vn 0.9182184934616089 0.27399104833602905 0.2860133647918701
vn 0.8053372502326965 0.38922327756881714 0.44714343547821045
vn 0.9082064032554626 0.41362693905830383 -0.06382734328508377
vn 0.7978426218032837 0.5655688047409058 -0.2087559998035431
vn 0.597226083278656 -0.07977598905563354 0.798095703125
vn 0.9782708287239075 -0.04152172803878784 0.20313061773777008
vn 0.9552812576293945 0.05431496724486351 0.2906675934791565
vn 0.5738798379898071 -0.23743292689323425 0.7837650775909424
vn 0.9638638496398926 -0.2595062255859375 0.060191161930561066
vn 0.5911090970039368 0.6447713971138 -0.484623521566391
vn 0.5928599834442139 0.7874019742012024 -0.16886447370052338
vn 0.7721312642097473 0.40659967064857483 -0.4883544445037842
vn 0.9337272644042969 -0.06388870626688004 -0.35223808884620667
vn 0.8677902221679688 0.21372340619564056 0.44862261414527893
vn 0.7237837910652161 0.3766694962978363 0.5781497955322266
vn 0.4624073803424835 0.13899368047714233 0.8757055997848511
vn 0.35740673542022705 0.42948105931282043 0.8293409943580627
vn 0.947409987449646 0.2631019353866577 0.18218578398227692
vn 0.6613122224807739 0.24713872373104095 0.708229124546051
vn 0.7524945139884949 0.39396750926971436 -0.5277705192565918
vn 0.8871123194694519 -0.08301696926355362 0.45402634143829346
vn 0.9910964369773865 0.030650272965431213 0.12957002222537994
vn 0.7845892906188965 0.06333694607019424 0.6167722940444946
vn 0.595797061920166 0.2085685282945633 0.7755804061889648
vn 0.7805432081222534 -0.5751977562904358 0.24474482238292694
vn 0.6450497508049011 -0.3366332948207855 0.6859947443008423
vn 0.7389170527458191 -0.6224400401115417 -0.2580113708972931
vn 0.6893524527549744 0.30072131752967834 -0.6590597629547119
vn 0.7681650519371033 0.4251006245613098 -0.4787607789039612
vn 0.7767207622528076 -0.3681619167327881 -0.5110397934913635
vn 0.5430914163589478 0.4692646861076355 0.6963061690330505
vn 0.3166394531726837 0.25229623913764954 0.9143774509429932
vn -0.07555975764989853 -0.012541957199573517 0.9970624446868896
vn -0.04256247729063034 -0.01181969977915287 0.999023973941803
vn -0.006025306414812803 0.243134006857872 0.9699739813804626
vn 0.5859926342964172 0.2949702739715576 0.7547219395637512
vn 0.7987537980079651 0.21547414362430573 0.5617502331733704
vn 0.6782673001289368 0.09532581269741058 0.7286058664321899
vn 0.9920441508293152 0.12548601627349854 -0.01008717343211174
vn 0.7248387932777405 0.1784781664609909 -0.6653977036476135
vn -0.21936407685279846 0.10726437717676163 0.9697287082672119
vn -0.030647048726677895 0.09263279289007187 -0.9952285289764404
vn 0.36321231722831726 0.3003874123096466 -0.8819547295570374
vn 0.6256430149078369 0.6130561828613281 -0.48242393136024475
vn 0.21985743939876556 0.4431893527507782 -0.8690488338470459
vn 0.6571109294891357 -0.34856802225112915 0.6683604121208191
vn 0.5753862857818604 -0.5585461854934692 0.5974584817886353
vn 0.8834161758422852 0.12571841478347778 0.45140960812568665
vn -0.18843165040016174 -0.03105044551193714 0.9815953373908997
vn 0.44736549258232117 0.020136037841439247 0.8941245079040527
vn 0.42917802929878235 -0.8843740820884705 0.18354432284832
vn 0.1780911237001419 -0.9168312549591064 -0.35735705494880676
vn 0.7912713289260864 0.30200648307800293 -0.5316781401634216
vn 0.6544424891471863 -0.1104792058467865 -0.7479969263076782
vn 0.5343027114868164 0.586880624294281 -0.6083517074584961
vn 0.8369820713996887 0.2281055897474289 -0.49742236733436584
vn 0.40111979842185974 -0.6008751392364502 -0.6914129853248596
vn -0.63093501329422 -0.14244242012500763 0.7626474499702454
vn -0.6708084940910339 -0.14885498583316803 0.7265384793281555
vn 0.5137994289398193 0.2289046347141266 0.8268088102340698
vn -0.14825357496738434 0.17344394326210022 0.9736211895942688
vn 0.9701492786407471 0.0483437143266201 0.23764106631278992
vn 0.3529725968837738 0.08770609647035599 0.9315137267112732
vn 0.1860293596982956 0.05100398138165474 0.9812195897102356
vn 0.60611891746521 0.06901528686285019 0.7923741936683655
vn 0.767325758934021 0.08570031076669693 -0.6355050206184387
vn 0.7651814818382263 -0.07518728077411652 -0.6394093036651611
vn 0.14445284008979797 -0.025432579219341278 -0.9891847968101501
vn -0.7953686118125916 -0.10123150795698166 0.5976126194000244
vn -0.26652830839157104 0.15574714541435242 -0.9511601328849792
vn -0.7592183351516724 0.05213116109371185 -0.6487448811531067
vn -0.7278163433074951 -0.09418009221553802 -0.6792742609977722
vn -0.4525769054889679 -0.10490328818559647 -0.8855334520339966
vn -0.3138539493083954 0.6430482268333435 -0.6985591053962708
vn 0.06911632418632507 0.8193566203117371 -0.5691025853157043
vn -0.618005096912384 0.026612062007188797 -0.7857236862182617
vn -0.15784233808517456 -0.2729259431362152 0.9489980340003967
vn -0.24840974807739258 -0.6677797436714172 0.7016856670379639
vn -0.11657081544399261 -0.819899320602417 0.5605143308639526
vn -0.21858230233192444 -0.8872308135032654 0.406255304813385
vn -0.6800925135612488 -0.2561468183994293 0.6869228482246399
vn -0.25776830315589905 -0.9660981297492981 -0.01448057871311903
vn -0.2393452227115631 -0.7918233275413513 -0.561898410320282
vn -0.7219857573509216 -0.5962159633636475 -0.3510885536670685
vn 0.6585655212402344 0.0920005664229393 -0.746878445148468
vn 0.334242045879364 -0.13265398144721985 -0.9331051111221313
vn -0.11057417839765549 -0.5165826678276062 -0.8490675091743469
vn 0.13864848017692566 0.13151608407497406 -0.9815702438354492
vn 0.031145615503191948 0.6031923890113831 -0.7969873547554016
vn -0.7008196115493774 -0.2882431149482727 0.6525089144706726
vn -0.8031185865402222 -0.17046180367469788 0.5709144473075867
vn -0.13744978606700897 0.05058087036013603 0.9892164468765259
vn 0.908210277557373 0.06036064028739929 0.4141386151313782
vn 0.2538100481033325 -0.014871722087264061 0.967139720916748
vn 0.355324387550354 -0.06989991664886475 0.9321258068084717
vn 0.7086845636367798 -0.13289527595043182 0.6928960680961609
vn 0.9409166574478149 -0.2991675138473511 -0.15866553783416748
vn 0.6633512377738953 -0.29885023832321167 -0.6860421299934387
vn 0.31918248534202576 -0.20798707008361816 -0.9245885610580444
vn -0.025047725066542625 -0.13127808272838593 -0.9910291433334351
vn 0.058321017771959305 -0.2207166850566864 -0.9735927581787109
vn -0.9749166369438171 -0.16862675547599792 -0.14526768028736115
vn -0.8271830677986145 -0.14163465797901154 0.543790340423584
vn -0.9815601706504822 -0.11411987990140915 -0.15335024893283844
vn -0.9938663840293884 0.10570571571588516 0.03249499946832657
vn -0.8360385894775391 -0.014788367785513401 -0.5484713315963745
vn -0.544256329536438 -0.2178262621164322 -0.810146152973175
vn -0.9091442227363586 0.10400505363941193 -0.4032861292362213
vn -0.5557453036308289 0.42948606610298157 -0.7118207216262817
vn -0.9380533695220947 -0.1339281052350998 -0.3195610046386719
vn -0.646138608455658 -0.4035395681858063 -0.6478121876716614
vn -0.6296850442886353 -0.4983593821525574 -0.5959318280220032
vn -0.1446538269519806 -0.8805880546569824 0.451264888048172
vn -0.6070163249969482 -0.6091669797897339 0.5103397369384766
vn -0.472512423992157 -0.7986039519309998 0.3727784752845764
vn -0.7268809676170349 -0.683685302734375 -0.0649496465921402
vn -0.752618134021759 -0.35941678285598755 0.5517114400863647
vn -0.8285159468650818 -0.40788623690605164 -0.3836537301540375
vn -0.8553243279457092 -0.2021201103925705 -0.4770406484603882
vn -0.7725705504417419 -0.27161329984664917 -0.5738998055458069
vn -0.3169625401496887 -0.18008911609649658 -0.9311834573745728
vn -0.8176470994949341 -0.20869100093841553 -0.536564290523529
vn -0.8581659197807312 -0.03005131520330906 -0.5124922394752502
vn -0.5905864834785461 -0.4551377594470978 0.6663762331008911
vn -0.8429344296455383 -0.22573792934417725 0.48836854100227356
vn -0.627581775188446 -0.5347280502319336 0.5658682584762573
vn -0.3839373290538788 -0.132470041513443 0.9138072729110718
vn 0.6054841876029968 -0.18835735321044922 0.7732465863227844
vn 0.08118848502635956 -0.21490396559238434 0.9732546806335449
vn 0.8101785182952881 -0.3227371573448181 0.48933786153793335
vn 0.5565623641014099 -0.267373651266098 0.7866064310073853
vn 0.9235715866088867 -0.12698350846767426 -0.3617883324623108
vn 0.9545933604240417 -0.2869705855846405 -0.07999725639820099
vn 0.15889860689640045 -0.16585099697113037 -0.9732649922370911
vn 0.34602293372154236 -0.32939690351486206 -0.8785020112991333
vn 0.6481674313545227 -0.26429927349090576 -0.7141602039337158
vn -0.3564721941947937 0.030804529786109924 -0.9337979555130005
vn -0.1388525664806366 -0.16543978452682495 -0.9763962030410767
vn -0.18942953646183014 -0.374134361743927 -0.907821536064148
vn -0.9012369513511658 -0.31570112705230713 -0.29682451486587524
vn -0.7253977656364441 -0.08090902119874954 0.6835581064224243
vn -0.69001305103302 -0.00799089577049017 0.7237527370452881
vn -0.9360650777816772 -0.266316294670105 0.22990815341472626
vn -0.9686218500137329 -0.23602227866649628 -0.07787847518920898
vn -0.5969613194465637 -0.36101049184799194 -0.7164555788040161
vn -0.8442757725715637 -0.4230540990829468 -0.32897359132766724
vn -0.7662748694419861 -0.6352714896202087 -0.09619233012199402
vn -0.6378557682037354 -0.7023839950561523 -0.3159061670303345
vn -0.8032845854759216 -0.5953351259231567 0.017609063535928726
vn -0.8793493509292603 -0.46053391695022583 0.12105020135641098
vn -0.8501566648483276 -0.5038572549819946 -0.15284450352191925
vn -0.7680004239082336 -0.5180698037147522 0.37653541564941406
vn -0.7321068048477173 -0.6364499926567078 0.2427983582019806
vn -0.6457934379577637 -0.11752744764089584 0.7544124126434326
vn 0.39638644456863403 -0.2812453508377075 0.8739444613456726
vn 0.7309457659721375 -0.18387262523174286 0.6571979522705078
vn -0.3294503390789032 -0.21711231768131256 0.9188714623451233
vn 0.816071629524231 -0.2884828746318817 0.5008041858673096
vn 0.6177708506584167 -0.2921026349067688 0.730092465877533
vn 0.5173566937446594 -0.03600841388106346 0.8550119996070862
vn 0.6539783477783203 0.1476217806339264 -0.741970419883728
vn 0.9074543118476868 -0.14295727014541626 -0.3950822353363037
vn 0.8245717883110046 0.012491839937865734 -0.5656193494796753
vn 0.910078227519989 -0.35243740677833557 -0.21804916858673096
vn 0.2029876410961151 0.017674803733825684 -0.9790217280387878
vn -0.46887442469596863 0.27484938502311707 -0.8394132256507874
vn -0.02035035565495491 0.22057656943798065 -0.9751573801040649
vn 0.4081359803676605 -0.044614601880311966 -0.9118303060531616
vn -0.4357883036136627 0.29685062170028687 -0.8496870994567871
vn -0.5718960165977478 0.1928391307592392 -0.79733806848526
vn -0.3176952302455902 0.15058684349060059 -0.9361588358879089
vn -0.46339645981788635 -0.395309180021286 -0.7930915951728821
vn -0.4120672643184662 -0.5423551201820374 -0.7321553826332092
vn -0.7344029545783997 -0.5876572728157043 -0.33957502245903015
vn -0.7537491917610168 0.02327316254377365 0.6567500829696655
vn -0.4196567237377167 -0.07456900924444199 0.9046146869659424
vn -0.7046568393707275 -0.2385261505842209 0.6682543754577637
vn -0.8764148950576782 -0.4384321868419647 -0.19918322563171387
vn -0.9157772064208984 -0.30919066071510315 -0.2564241588115692
vn -0.8896188139915466 -0.32138264179229736 0.32448649406433105
vn -0.8671813607215881 -0.16468869149684906 0.4699724316596985
vn -0.29604727029800415 -0.5013681054115295 0.8130105137825012
vn 0.37115761637687683 -0.4139213263988495 0.8312106728553772
vn -0.8635725975036621 -0.3779090344905853 0.3338070213794708
vn 0.7914473414421082 -0.03090575337409973 0.6104554533958435
vn -0.01803228072822094 -0.3752205967903137 0.9267601370811462
vn 0.19710983335971832 -0.11555737257003784 0.9735472202301025
vn 0.3454645574092865 0.6516559720039368 0.6752767562866211
vn 0.2655438780784607 0.8695411086082458 0.4163949489593506
vn 0.4093753695487976 0.3265523612499237 -0.851924479007721
vn 0.45764341950416565 -0.11345868557691574 -0.8818671107292175
vn -0.20895832777023315 0.07983103394508362 -0.9746607542037964
vn -0.02550639398396015 0.5205754041671753 -0.8534346222877502
vn 0.789844810962677 -0.2463407665491104 -0.5616595149040222
vn 0.7144092917442322 -0.2647222876548767 -0.6477202773094177
vn 0.9900678396224976 -0.12519076466560364 -0.06397627294063568
vn 0.027041494846343994 0.27094611525535583 -0.9622146487236023
vn -0.10741961002349854 0.4348699152469635 -0.8940632939338684
vn -0.3483412265777588 0.32664623856544495 -0.8786129355430603
vn -0.520861804485321 0.22725775837898254 -0.8228346705436707
vn -0.5462852120399475 0.1706172078847885 -0.8200379610061646
vn -0.27855372428894043 0.1829237937927246 -0.9428396821022034
vn -0.4977131485939026 0.07335187494754791 -0.8642343878746033
vn -0.41965407133102417 -0.04168380796909332 -0.9067264795303345
vn -0.7650287747383118 -0.050069645047187805 0.6420466899871826
vn -0.25171172618865967 -0.22314226627349854 0.9417265057563782
vn -0.65062415599823 -0.3695017099380493 0.6634430885314941
vn -0.8585876226425171 -0.5111634731292725 0.03923268988728523
vn -0.6891005635261536 -0.4363845884799957 -0.5785403251647949
vn -0.8305380344390869 -0.38439109921455383 0.4030510485172272
vn -0.8077151775360107 -0.15146507322788239 0.5697845816612244
vn -0.7648825645446777 -0.2831217348575592 0.578616201877594
vn -0.5488400459289551 -0.5024127960205078 0.6680988669395447
vn -0.7299405932426453 -0.45741546154022217 0.5078954100608826
vn 0.8830323815345764 0.3555804491043091 0.3062947690486908
vn 0.12872904539108276 0.23653720319271088 0.9630571007728577
vn -0.5142008662223816 -0.03215714171528816 0.8570667505264282
vn 0.09106051176786423 0.9562216997146606 0.27811503410339355
vn -0.11043811589479446 0.8837156891822815 0.45480775833129883
vn -0.4151354432106018 0.8091446757316589 0.4158695936203003
vn -0.30206140875816345 0.5684271454811096 0.7652773857116699
vn 0.5108898878097534 0.8183130621910095 -0.2633541226387024
vn 0.11609429121017456 0.9897074103355408 -0.08367382735013962
vn -0.02340354211628437 0.999725878238678 0.0006604486843571067
vn 0.031959157437086105 0.9991458058357239 0.02619815804064274
vn 0.29170307517051697 -0.32376134395599365 -0.9000488519668579
vn -0.2815641760826111 -0.16000790894031525 -0.9461073875427246
vn -0.3633171021938324 0.22675444185733795 -0.9036499261856079
vn -0.594285786151886 -0.007662023417651653 -0.804217517375946
vn -0.1035204529762268 0.46758371591567993 -0.8778660893440247
vn 0.6804215312004089 -0.38473644852638245 -0.6237022280693054
vn 0.7969735264778137 0.012920243665575981 -0.6038761734962463
vn 0.71067875623703 0.6587474942207336 -0.24695628881454468
vn 0.6219747066497803 0.6550198197364807 -0.42906472086906433
vn -0.47468236088752747 0.00941385142505169 -0.8801067471504211
vn 0.011269714683294296 0.18128086626529694 -0.9833667874336243
vn 0.2943815290927887 0.3489152789115906 -0.8897177577018738
vn -0.36495527625083923 0.015170319937169552 -0.9309015274047852
vn -0.5023598074913025 0.16577406227588654 -0.8486186265945435
vn -0.08529123663902283 -0.03833945468068123 -0.9956181049346924
vn 0.20150133967399597 0.108950175344944 -0.9734101295471191
vn -0.12407321482896805 -0.008494018577039242 -0.9922367334365845
vn -0.2654989957809448 0.05012466013431549 -0.9628072381019592
vn -0.33491674065589905 -0.34761837124824524 0.8757809996604919
vn -0.6277381777763367 -0.48384416103363037 -0.6097864508628845
vn -0.9128236770629883 -0.3747546672821045 -0.16220928728580475
vn -0.9610089659690857 -0.0788668543100357 0.2650318443775177
vn -0.47710201144218445 0.0293507631868124 0.8783577680587769
vn -0.4986354410648346 0.2902875244617462 0.8167593479156494
vn -0.7997860908508301 -0.22134464979171753 0.557986319065094
vn -0.8001744747161865 0.1778045892715454 0.5728057622909546
vn -0.8220925331115723 0.2146243453025818 0.5273521542549133
vn -0.18041807413101196 0.9214357733726501 0.3441009819507599
vn -0.25839194655418396 0.7680957317352295 0.5858862400054932
vn -0.6943702697753906 0.5280211567878723 0.48892098665237427
vn 0.3000607192516327 0.925621509552002 0.23062603175640106
vn -0.025308342650532722 0.7847623229026794 0.6192798614501953
vn 0.4413491189479828 0.8767286539077759 0.19120058417320251
vn 0.020401164889335632 0.7560088634490967 0.6542432904243469
vn 0.4634215235710144 0.8240588307380676 0.32583338022232056
vn -0.3959338068962097 -0.019282491877675056 -0.9180765748023987
vn 0.42625635862350464 -0.17972728610038757 -0.8865684866905212
vn 0.4306682050228119 0.48985692858695984 -0.7580007314682007
vn -0.6173242926597595 0.21501201391220093 -0.7567565441131592
vn -0.6369760036468506 0.03918401151895523 -0.7698871493339539
vn 0.8236238956451416 0.27322497963905334 -0.4969825744628906
vn 0.4514927864074707 0.23031441867351532 -0.8620380759239197
vn 0.14590705931186676 0.9684263467788696 0.20214229822158813
vn 0.6585748195648193 0.7103708386421204 -0.24829916656017303
vn 0.2230277955532074 0.9340628385543823 0.2788998484611511
vn -0.0898030549287796 -0.11993414908647537 -0.9887118339538574
vn -0.30313605070114136 -0.1727941632270813 -0.9371502995491028
vn 0.9629158973693848 0.09498021006584167 -0.2525308430194855
vn -0.29022398591041565 -0.22252710163593292 -0.9307264685630798
vn -0.04361329600214958 -0.0006063335458748043 -0.9990482926368713
vn 0.12875527143478394 0.219387948513031 -0.9671043753623962
vn -0.6510384678840637 0.1424112617969513 -0.7455655932426453
vn -0.7610107660293579 0.08317020535469055 -0.6433858275413513
vn -0.4478326141834259 -0.020998768508434296 -0.8938708305358887
vn -0.5933669805526733 0.019210807979106903 -0.8047028183937073
vn -0.978622555732727 0.2049306184053421 -0.017358751967549324
vn -0.5046635270118713 0.5937265157699585 0.6267403364181519
vn 0.4860447943210602 0.7516902685165405 0.4457826018333435
vn 0.4279527962207794 0.8758214712142944 0.22314384579658508
vn 0.5956493020057678 0.7961603999137878 0.10644617676734924
vn 0.16980338096618652 -0.4057326316833496 -0.8980801701545715
vn -0.26944249868392944 0.11364372819662094 -0.9562875032424927
vn -0.030493246391415596 0.6368783712387085 -0.7703610062599182
vn -0.23449087142944336 0.21746844053268433 -0.9474816918373108
vn -0.5039095282554626 0.30084237456321716 -0.8096721172332764
vn 0.5065927505493164 0.0353793241083622 -0.8614593148231506
vn 0.6788265109062195 0.4860839545726776 -0.5503789186477661
vn 0.4008040726184845 0.8723851442337036 0.2798219621181488
vn 0.4635787308216095 0.8675437569618225 -0.18017332255840302
vn 0.3006751835346222 0.9537080526351929 -0.005953267682343721
vn -0.10898970812559128 0.5772813558578491 -0.8092387914657593
vn -0.20162257552146912 -0.24671317636966705 -0.9478822946548462
vn -0.059638768434524536 0.12424512207508087 -0.9904576539993286
vn -0.1520957499742508 0.028015976771712303 -0.9879686236381531
vn -0.17519502341747284 -0.254340261220932 -0.9511139988899231
vn -0.8778634667396545 0.4061332643032074 -0.2537943720817566
vn -0.7071277499198914 0.34602564573287964 -0.6166333556175232
vn -0.0641704574227333 0.5618616342544556 -0.8247385621070862
vn -0.40489181876182556 0.47050952911376953 -0.7840174436569214
vn -0.8194981217384338 0.5676791667938232 0.07850658148527145
vn 0.04914619401097298 0.9841073155403137 0.17063850164413452
vn 0.5408632755279541 0.8172630071640015 -0.1988670825958252
vn -0.0004186305741313845 0.3843058943748474 -0.9232057332992554
vn -0.2333781123161316 0.13862328231334686 -0.9624543190002441
vn 0.4426186680793762 0.8502185344696045 -0.28498604893684387
vn 0.2714226543903351 0.687006413936615 -0.674056351184845
vn -0.2799246907234192 0.8290956616401672 -0.4839862585067749
vn -0.13989004492759705 0.9548924565315247 -0.26193758845329285
f 1//1 2//2 3//3
f 3//3 4//4 1//1
f 2//2 1//1 5//5
f 1//1 6//6 5//5
f 1//1 7//7 6//6
f 7//7 1//1 4//4
f 8//8 3//3 2//2
f 2//2 9//9 8//8
f 2//2 10//10 9//9
f 2//2 5//5 11//11
f 2//2 11//11 10//10
f 12//12 4//4 3//3
f 13//13 12//12 3//3
f 13//13 3//3 14//14
f 3//3 8//8 14//14
f 12//12 15//15 4//4
f 16//16 4//4 15//15
f 16//16 7//7 4//4
f 17//17 5//5 18//18
f 5//5 6//6 18//18
f 5//5 17//17 11//11
f 18//18 6//6 19//19
f 7//7 19//19 6//6
f 7//7 16//16 20//20
f 20//20 19//19 7//7
f 21//21 14//14 8//8
f 8//8 9//9 22//22
f 22//22 21//21 8//8
f 9//9 23//23 24//24
f 22//22 9//9 24//24
f 9//9 25//25 26//26
f 23//23 9//9 26//26
f 10//10 25//25 9//9
f 27//27 25//25 10//10
f 11//11 27//27 10//10
f 17//17 27//27 11//11
f 13//13 28//28 12//12
f 12//12 28//28 15//15
f 28//28 13//13 29//29
f 30//30 29//29 13//13
f 13//13 14//14 30//30
f 30//30 14//14 31//31
f 31//31 14//14 21//21
f 32//32 16//16 15//15
f 15//15 33//33 32//32
f 28//28 33//33 15//15
f 34//34 20//20 16//16
f 34//34 16//16 32//32
f 17//17 18//18 19//19
f 17//17 35//35 36//36
f 17//17 19//19 35//35
f 27//27 17//17 36//36
f 19//19 20//20 35//35
f 20//20 34//34 37//37
f 37//37 35//35 20//20
f 31//31 21//21 38//38
f 38//38 21//21 22//22
f 22//22 24//24 38//38
f 23//23 39//39 24//24
f 40//40 39//39 23//23
f 23//23 41//41 40//40
f 23//23 26//26 41//41
f 24//24 42//42 38//38
f 24//24 39//39 42//42
f 25//25 43//43 26//26
f 25//25 44//44 43//43
f 45//45 25//25 46//46
f 45//45 44//44 25//25
f 47//47 46//46 25//25
f 25//25 27//27 47//47
f 48//48 26//26 43//43
f 26//26 48//48 41//41
f 49//49 27//27 50//50
f 36//36 51//51 27//27
f 27//27 49//49 47//47
f 50//50 27//27 52//52
f 27//27 51//51 52//52
f 28//28 29//29 53//53
f 53//53 54//54 28//28
f 54//54 33//33 28//28
f 55//55 29//29 30//30
f 53//53 29//29 55//55
f 56//56 57//57 30//30
f 31//31 56//56 30//30
f 57//57 55//55 30//30
f 42//42 31//31 38//38
f 31//31 42//42 56//56
f 58//58 34//34 32//32
f 32//32 33//33 58//58
f 54//54 58//58 33//33
f 37//37 34//34 59//59
f 58//58 59//59 34//34
f 36//36 35//35 60//60
f 61//61 35//35 37//37
f 61//61 60//60 35//35
f 62//62 36//36 63//63
f 63//63 36//36 60//60
f 51//51 36//36 62//62
f 37//37 64//64 61//61
f 64//64 37//37 59//59
f 39//39 40//40 42//42
f 65//65 42//42 40//40
f 40//40 66//66 65//65
f 66//66 40//40 41//41
f 66//66 41//41 48//48
f 65//65 56//56 42//42
f 43//43 44//44 67//67
f 43//43 68//68 48//48
f 43//43 67//67 68//68
f 67//67 44//44 45//45
f 46//46 69//69 45//45
f 45//45 70//70 67//67
f 45//45 71//71 70//70
f 45//45 72//72 71//71
f 45//45 69//69 72//72
f 46//46 47//47 73//73
f 73//73 74//74 46//46
f 74//74 69//69 46//46
f 75//75 73//73 47//47
f 49//49 75//75 47//47
f 76//76 48//48 68//68
f 76//76 66//66 48//48
f 50//50 77//77 49//49
f 78//78 49//49 77//77
f 49//49 78//78 79//79
f 80//80 49//49 79//79
f 80//80 75//75 49//49
f 50//50 52//52 77//77
f 51//51 81//81 52//52
f 51//51 62//62 82//82
f 51//51 82//82 81//81
f 81//81 83//83 52//52
f 52//52 83//83 77//77
f 57//57 84//84 53//53
f 85//85 86//86 53//53
f 57//57 53//53 55//55
f 53//53 84//84 85//85
f 86//86 54//54 53//53
f 54//54 86//86 87//87
f 54//54 87//87 58//58
f 84//84 57//57 56//56
f 56//56 65//65 88//88
f 88//88 84//84 56//56
f 89//89 59//59 58//58
f 87//87 89//89 58//58
f 59//59 90//90 64//64
f 91//91 59//59 89//89
f 59//59 91//91 90//90
f 61//61 63//63 60//60
f 92//92 63//63 61//61
f 61//61 93//93 92//92
f 93//93 61//61 94//94
f 94//94 61//61 64//64
f 63//63 95//95 62//62
f 62//62 95//95 96//96
f 96//96 82//82 62//62
f 92//92 95//95 63//63
f 64//64 90//90 94//94
f 88//88 65//65 97//97
f 65//65 66//66 98//98
f 98//98 97//97 65//65
f 76//76 98//98 66//66
f 99//99 67//67 70//70
f 67//67 99//99 68//68
f 76//76 68//68 99//99
f 74//74 100//100 69//69
f 69//69 100//100 72//72
f 70//70 101//101 102//102
f 71//71 101//101 70//70
f 102//102 99//99 70//70
f 72//72 100//100 71//71
f 71//71 100//100 103//103
f 71//71 103//103 101//101
f 74//74 73//73 75//75
f 104//104 74//74 105//105
f 74//74 106//106 105//105
f 74//74 75//75 107//107
f 108//108 74//74 107//107
f 108//108 106//106 74//74
f 100//100 74//74 103//103
f 104//104 103//103 74//74
f 80//80 107//107 75//75
f 98//98 76//76 109//109
f 109//109 76//76 110//110
f 99//99 110//110 76//76
f 83//83 78//78 77//77
f 111//111 79//79 78//78
f 111//111 78//78 112//112
f 83//83 113//113 78//78
f 78//78 113//113 112//112
f 111//111 109//109 79//79
f 109//109 80//80 79//79
f 107//107 80//80 114//114
f 109//109 114//114 80//80
f 83//83 81//81 115//115
f 116//116 81//81 82//82
f 115//115 81//81 116//116
f 96//96 116//116 82//82
f 83//83 115//115 117//117
f 118//118 83//83 117//117
f 119//119 83//83 118//118
f 83//83 119//119 113//113
f 88//88 85//85 84//84
f 85//85 120//120 86//86
f 121//121 85//85 88//88
f 120//120 85//85 121//121
f 86//86 122//122 87//87
f 120//120 122//122 86//86
f 123//123 89//89 87//87
f 123//123 87//87 122//122
f 88//88 124//124 121//121
f 88//88 97//97 124//124
f 89//89 123//123 91//91
f 125//125 90//90 91//91
f 90//90 125//125 94//94
f 91//91 126//126 125//125
f 91//91 127//127 126//126
f 127//127 91//91 123//123
f 95//95 92//92 93//93
f 95//95 93//93 128//128
f 128//128 93//93 94//94
f 128//128 94//94 129//129
f 129//129 94//94 125//125
f 116//116 95//95 130//130
f 96//96 95//95 116//116
f 130//130 95//95 128//128
f 124//124 97//97 131//131
f 97//97 98//98 131//131
f 98//98 109//109 111//111
f 112//112 98//98 111//111
f 98//98 132//132 133//133
f 131//131 98//98 133//133
f 112//112 132//132 98//98
f 110//110 99//99 134//134
f 99//99 102//102 134//134
f 102//102 101//101 103//103
f 103//103 135//135 102//102
f 136//136 102//102 135//135
f 136//136 134//134 102//102
f 104//104 137//137 103//103
f 103//103 138//138 135//135
f 138//138 103//103 137//137
f 105//105 139//139 104//104
f 140//140 137//137 104//104
f 140//140 104//104 139//139
f 105//105 141//141 142//142
f 105//105 142//142 143//143
f 106//106 141//141 105//105
f 143//143 139//139 105//105
f 141//141 106//106 144//144
f 145//145 106//106 108//108
f 145//145 144//144 106//106
f 108//108 107//107 114//114
f 114//114 146//146 108//108
f 146//146 145//145 108//108
f 110//110 147//147 109//109
f 114//114 109//109 147//147
f 148//148 110//110 149//149
f 150//150 147//147 110//110
f 150//150 110//110 148//148
f 149//149 110//110 134//134
f 132//132 112//112 151//151
f 151//151 112//112 113//113
f 151//151 113//113 119//119
f 152//152 114//114 147//147
f 152//152 146//146 114//114
f 117//117 115//115 130//130
f 130//130 115//115 116//116
f 126//126 118//118 117//117
f 129//129 125//125 117//117
f 125//125 126//126 117//117
f 129//129 117//117 130//130
f 118//118 153//153 154//154
f 127//127 118//118 126//126
f 127//127 153//153 118//118
f 155//155 119//119 118//118
f 155//155 118//118 154//154
f 156//156 119//119 155//155
f 151//151 119//119 156//156
f 122//122 120//120 121//121
f 122//122 121//121 157//157
f 157//157 121//121 124//124
f 157//157 158//158 122//122
f 122//122 158//158 123//123
f 158//158 127//127 123//123
f 157//157 124//124 159//159
f 159//159 124//124 131//131
f 157//157 127//127 158//158
f 157//157 153//153 127//127
f 130//130 128//128 129//129
f 159//159 131//131 133//133
f 160//160 133//133 132//132
f 156//156 132//132 151//151
f 156//156 160//160 132//132
f 154//154 159//159 133//133
f 160//160 154//154 133//133
f 134//134 136//136 161//161
f 161//161 149//149 134//134
f 135//135 162//162 136//136
f 163//163 135//135 138//138
f 163//163 162//162 135//135
f 136//136 162//162 164//164
f 161//161 136//136 164//164
f 165//165 138//138 137//137
f 137//137 140//140 165//165
f 138//138 166//166 163//163
f 167//167 166//166 138//138
f 138//138 165//165 167//167
f 143//143 168//168 139//139
f 169//169 140//140 139//139
f 170//170 139//139 168//168
f 170//170 169//169 139//139
f 165//165 140//140 171//171
f 140//140 169//169 171//171
f 172//172 142//142 141//141
f 144//144 173//173 141//141
f 174//174 172//172 141//141
f 141//141 173//173 174//174
f 175//175 143//143 142//142
f 172//172 175//175 142//142
f 143//143 175//175 168//168
f 144//144 176//176 177//177
f 144//144 145//145 176//176
f 144//144 177//177 173//173
f 145//145 178//178 176//176
f 145//145 146//146 179//179
f 178//178 145//145 179//179
f 180//180 179//179 146//146
f 152//152 180//180 146//146
f 147//147 180//180 152//152
f 180//180 147//147 181//181
f 150//150 181//181 147//147
f 182//182 148//148 149//149
f 148//148 182//182 183//183
f 150//150 148//148 184//184
f 184//184 148//148 183//183
f 161//161 182//182 149//149
f 150//150 185//185 181//181
f 150//150 186//186 185//185
f 150//150 187//187 186//186
f 187//187 150//150 184//184
f 153//153 157//157 159//159
f 154//154 153//153 159//159
f 160//160 155//155 154//154
f 156//156 155//155 160//160
f 188//188 182//182 161//161
f 161//161 164//164 188//188
f 162//162 189//189 164//164
f 189//189 162//162 190//190
f 163//163 190//190 162//162
f 163//163 166//166 190//190
f 164//164 191//191 188//188
f 164//164 189//189 191//191
f 192//192 167//167 165//165
f 171//171 192//192 165//165
f 166//166 193//193 190//190
f 194//194 166//166 167//167
f 194//194 193//193 166//166
f 167//167 195//195 194//194
f 196//196 167//167 192//192
f 196//196 195//195 167//167
f 168//168 175//175 197//197
f 170//170 168//168 198//198
f 168//168 199//199 198//198
f 200//200 199//199 168//168
f 197//197 200//200 168//168
f 201//201 171//171 169//169
f 201//201 169//169 170//170
f 170//170 202//202 201//201
f 198//198 202//202 170//170
f 192//192 171//171 203//203
f 171//171 201//201 203//203
f 204//204 175//175 172//172
f 205//205 204//204 172//172
f 174//174 205//205 172//172
f 173//173 205//205 174//174
f 173//173 206//206 205//205
f 173//173 207//207 206//206
f 177//177 207//207 173//173
f 175//175 204//204 197//197
f 177//177 176//176 208//208
f 176//176 209//209 208//208
f 176//176 178//178 209//209
f 210//210 207//207 177//177
f 210//210 177//177 208//208
f 179//179 211//211 178//178
f 178//178 211//211 209//209
f 179//179 180//180 181//181
f 179//179 181//181 185//185
f 186//186 179//179 185//185
f 186//186 211//211 179//179
f 182//182 188//188 212//212
f 183//183 182//182 212//212
f 184//184 183//183 213//213
f 183//183 212//212 213//213
f 214//214 187//187 184//184
f 213//213 214//214 184//184
f 186//186 215//215 216//216
f 216//216 211//211 186//186
f 215//215 186//186 187//187
f 217//217 215//215 187//187
f 217//217 187//187 218//218
f 187//187 214//214 218//218
f 191//191 212//212 188//188
f 189//189 190//190 193//193
f 189//189 219//219 191//191
f 189//189 193//193 219//219
f 212//212 191//191 220//220
f 191//191 221//221 220//220
f 221//221 191//191 219//219
f 192//192 203//203 222//222
f 196//196 192//192 222//222
f 219//219 193//193 194//194
f 194//194 223//223 224//224
f 219//219 194//194 224//224
f 195//195 223//223 194//194
f 195//195 196//196 225//225
f 225//225 226//226 195//195
f 227//227 228//228 195//195
f 228//228 223//223 195//195
f 227//227 195//195 226//226
f 196//196 222//222 229//229
f 196//196 230//230 225//225
f 196//196 231//231 230//230
f 232//232 231//231 196//196
f 232//232 196//196 229//229
f 204//204 200//200 197//197
f 198//198 233//233 202//202
f 234//234 233//233 198//198
f 199//199 234//234 198//198
f 235//235 199//199 200//200
f 235//235 236//236 199//199
f 234//234 199//199 236//236
f 237//237 200//200 204//204
f 237//237 235//235 200//200
f 201//201 238//238 239//239
f 240//240 203//203 201//201
f 201//201 241//241 240//240
f 241//241 201//201 239//239
f 201//201 202//202 238//238
f 202//202 233//233 238//238
f 203//203 240//240 222//222
f 205//205 237//237 204//204
f 205//205 206//206 237//237
f 206//206 207//207 242//242
f 206//206 243//243 237//237
f 244//244 243//243 206//206
f 242//242 244//244 206//206
f 242//242 207//207 245//245
f 246//246 245//245 207//207
f 210//210 246//246 207//207
f 208//208 209//209 246//246
f 210//210 208//208 246//246
f 247//247 209//209 211//211
f 209//209 247//247 248//248
f 209//209 248//248 249//249
f 209//209 250//250 246//246
f 209//209 249//249 250//250
f 216//216 247//247 211//211
f 213//213 212//212 220//220
f 251//251 214//214 213//213
f 220//220 251//251 213//213
f 251//251 218//218 214//214
f 216//216 215//215 252//252
f 253//253 215//215 217//217
f 215//215 253//253 252//252
f 252//252 247//247 216//216
f 253//253 217//217 254//254
f 217//217 218//218 254//254
f 255//255 256//256 218//218
f 251//251 255//255 218//218
f 218//218 256//256 254//254
f 219//219 257//257 221//221
f 258//258 219//219 259//259
f 258//258 257//257 219//219
f 219//219 224//224 259//259
f 220//220 221//221 251//251
f 221//221 255//255 251//251
f 221//221 257//257 255//255
f 222//222 240//240 229//229
f 228//228 224//224 223//223
f 228//228 259//259 224//224
f 225//225 260//260 261//261
f 260//260 225//225 230//230
f 261//261 226//226 225//225
f 226//226 261//261 262//262
f 227//227 226//226 262//262
f 227//227 259//259 228//228
f 259//259 227//227 262//262
f 232//232 229//229 240//240
f 230//230 231//231 263//263
f 230//230 264//264 260//260
f 263//263 264//264 230//230
f 265//265 263//263 231//231
f 232//232 265//265 231//231
f 266//266 232//232 240//240
f 232//232 267//267 265//265
f 267//267 232//232 266//266
f 233//233 234//234 268//268
f 238//238 233//233 269//269
f 269//269 233//233 268//268
f 268//268 234//234 236//236
f 270//270 235//235 237//237
f 270//270 271//271 235//235
f 235//235 271//271 236//236
f 271//271 272//272 236//236
f 268//268 236//236 272//272
f 270//270 237//237 244//244
f 244//244 237//237 243//243
f 239//239 238//238 269//269
f 273//273 239//239 274//274
f 273//273 241//241 239//239
f 239//239 269//269 274//274
f 275//275 266//266 240//240
f 275//275 240//240 241//241
f 241//241 276//276 277//277
f 273//273 276//276 241//241
f 277//277 275//275 241//241
f 242//242 278//278 244//244
f 242//242 279//279 278//278
f 242//242 245//245 279//279
f 278//278 280//280 244//244
f 280//280 270//270 244//244
f 245//245 250//250 281//281
f 245//245 246//246 250//250
f 245//245 281//281 279//279
f 247//247 252//252 282//282
f 248//248 247//247 282//282
f 249//249 248//248 283//283
f 283//283 248//248 282//282
f 249//249 284//284 285//285
f 285//285 286//286 249//249
f 281//281 249//249 286//286
f 284//284 249//249 283//283
f 249//249 281//281 250//250
f 287//287 252//252 253//253
f 287//287 282//282 252//252
f 253//253 284//284 287//287
f 284//284 253//253 254//254
f 284//284 254//254 288//288
f 254//254 256//256 289//289
f 288//288 254//254 289//289
f 255//255 264//264 256//256
f 255//255 257//257 258//258
f 258//258 264//264 255//255
f 264//264 290//290 256//256
f 290//290 289//289 256//256
f 258//258 262//262 264//264
f 258//258 259//259 262//262
f 264//264 262//262 260//260
f 260//260 262//262 261//261
f 265//265 264//264 263//263
f 264//264 265//265 290//290
f 267//267 290//290 265//265
f 266//266 291//291 267//267
f 275//275 291//291 266//266
f 267//267 292//292 290//290
f 291//291 292//292 267//267
f 268//268 293//293 278//278
f 268//268 278//278 294//294
f 274//274 269//269 268//268
f 295//295 274//274 268//268
f 296//296 268//268 294//294
f 296//296 295//295 268//268
f 272//272 293//293 268//268
f 271//271 270//270 297//297
f 270//270 298//298 297//297
f 280//280 298//298 270//270
f 271//271 297//297 272//272
f 298//298 293//293 272//272
f 297//297 298//298 272//272
f 274//274 299//299 273//273
f 273//273 299//299 276//276
f 295//295 299//299 274//274
f 275//275 300//300 291//291
f 277//277 300//300 275//275
f 276//276 301//301 277//277
f 299//299 301//301 276//276
f 277//277 302//302 300//300
f 302//302 277//277 303//303
f 277//277 301//301 295//295
f 303//303 277//277 295//295
f 278//278 293//293 280//280
f 281//281 278//278 279//279
f 304//304 278//278 281//281
f 305//305 294//294 278//278
f 304//304 305//305 278//278
f 280//280 293//293 298//298
f 286//286 306//306 281//281
f 307//307 304//304 281//281
f 281//281 306//306 307//307
f 283//283 282//282 287//287
f 287//287 284//284 283//283
f 285//285 284//284 288//288
f 285//285 288//288 308//308
f 285//285 309//309 286//286
f 285//285 308//308 309//309
f 286//286 310//310 306//306
f 311//311 286//286 309//309
f 311//311 310//310 286//286
f 289//289 312//312 288//288
f 312//312 308//308 288//288
f 312//312 289//289 313//313
f 292//292 289//289 290//290
f 289//289 292//292 313//313
f 292//292 291//291 314//314
f 300//300 314//314 291//291
f 292//292 314//314 313//313
f 294//294 305//305 315//315
f 296//296 294//294 315//315
f 316//316 295//295 296//296
f 295//295 301//301 299//299
f 303//303 295//295 316//316
f 316//316 296//296 303//303
f 303//303 296//296 315//315
f 314//314 300//300 317//317
f 302//302 317//317 300//300
f 302//302 303//303 315//315
f 317//317 302//302 318//318
f 315//315 318//318 302//302
f 307//307 305//305 304//304
f 315//315 305//305 306//306
f 306//306 305//305 307//307
f 315//315 306//306 318//318
f 310//310 318//318 306//306
f 319//319 308//308 312//312
f 308//308 319//319 309//309
f 311//311 309//309 319//319
f 310//310 311//311 319//319
f 319//319 317//317 310//310
f 317//317 318//318 310//310
f 312//312 320//320 319//319
f 312//312 313//313 320//320
f 313//313 314//314 320//320
f 320//320 314//314 319//319
f 314//314 317//317 319//319
