# Generated by Visualization Toolkit
v 0.004308000206947327 -0.07650300115346909 0.04121600091457367
v 0.0004870000120718032 -0.07331100106239319 0.03927300125360489
v 0.0023129999171942472 -0.07639499753713608 0.0404449999332428
v 0.0016339999856427312 -0.08243899792432785 0.04123299941420555
v 0.0024659999180585146 -0.07453499734401703 0.04006100073456764
v 0.003907000180333853 -0.07982199639081955 0.04163900017738342
v 0.0037479999009519815 -0.07499399781227112 0.040667999535799026
v 0.004226000048220158 -0.0755700021982193 0.04092799872159958
v 0.004980999976396561 -0.07735099643468857 0.0412600003182888
v 0.0047079999931156635 -0.07602699846029282 0.040516000241041183
v 0.0006469999789260328 -0.07469599694013596 0.03956500068306923
v -0.000742000003810972 -0.06820899993181229 0.036139000207185745
v -0.0027389999013394117 -0.07110200077295303 0.03989199921488762
v 0.00043700000969693065 -0.07503899931907654 0.040038999170064926
v -0.0013000000035390258 -0.07278700172901154 0.04069500043988228
v 0.0015660000499337912 -0.07408499717712402 0.0382549986243248
v 0.00042699999175965786 -0.0721839964389801 0.035461001098155975
v -0.0006479999865405262 -0.08185099810361862 0.0399399995803833
v -0.0001049999991664663 -0.08374500274658203 0.039969999343156815
v 0.0009280000231228769 -0.07649300247430801 0.04022499918937683
v 0.0007360000163316727 -0.07802899926900864 0.04015599936246872
v 0.0005970000056549907 -0.08410300314426422 0.04041200131177902
v 0.003444999922066927 -0.0823260024189949 0.041294001042842865
v 0.001962000038474798 -0.08440999686717987 0.0405069999396801
v 0.0021269998978823423 -0.07475599646568298 0.038120001554489136
v 0.003719999920576811 -0.07469099760055542 0.03996099904179573
v 0.005115999840199947 -0.07846800237894058 0.04120799899101257
v 0.00457199988886714 -0.07576800137758255 0.0397690013051033
v 0.005111999809741974 -0.07700199633836746 0.04054399952292442
v -0.0039980001747608185 -0.06306099891662598 0.03650299832224846
v -0.0017359999474138021 -0.05826300010085106 0.034060001373291016
v -0.0011919999960809946 -0.061149001121520996 0.033045001327991486
v -0.0035379999317228794 -0.072223000228405 0.03993399813771248
v -0.0023159999400377274 -0.07276900112628937 0.04118200019001961
v 0.00008600000001024455 -0.0776899978518486 0.03974800184369087
v -0.0010679999832063913 -0.07412800192832947 0.040957000106573105
v 0.0016509999986737967 -0.07856400310993195 0.035287998616695404
v 0.0012499999720603228 -0.07773199677467346 0.03456899896264076
v -0.000024000000848900527 -0.07556100189685822 0.03223700076341629
v -0.002937000012025237 -0.0649930015206337 0.030817000195384026
v -0.0008110000053420663 -0.07283899933099747 0.03221699967980385
v -0.001062000053934753 -0.08343800157308578 0.039636000990867615
v -0.0008590000215917826 -0.08048900216817856 0.03959500044584274
v -0.0011889999732375145 -0.08117000013589859 0.03977299854159355
v -0.0016060000052675605 -0.08213099837303162 0.039767999202013016
v -0.00021800000104121864 -0.08437400311231613 0.040369998663663864
v 0.0006060000159777701 -0.08484099805355072 0.03976599872112274
v 0.003203999949619174 -0.08410199731588364 0.03948599845170975
v 0.005057999864220619 -0.0807809978723526 0.04028100147843361
v 0.0018609999679028988 -0.0851380005478859 0.03950899839401245
v 0.0013010000111535192 -0.08508700132369995 0.039799999445676804
v 0.005336000118404627 -0.07824700325727463 0.039135999977588654
v 0.005456999875605106 -0.0791030004620552 0.03885100036859512
v 0.004821999929845333 -0.08075200021266937 0.03707300126552582
v 0.005293000023812056 -0.07788900285959244 0.040437001734972
v -0.0063749998807907104 -0.06111299991607666 0.03450100123882294
v -0.00406000018119812 -0.05796699970960617 0.034561000764369965
v -0.001879999996162951 -0.050721000880002975 0.032391998916864395
v -0.0014929999597370625 -0.05344599857926369 0.03204699978232384
v -0.002334000077098608 -0.05319499969482422 0.03315899893641472
v -0.0037720000836998224 -0.060074999928474426 0.029371000826358795
v -0.002982999896630645 -0.0738689973950386 0.04125300049781799
v -0.004395999945700169 -0.07564599812030792 0.039645999670028687
v -0.002015999983996153 -0.07420500367879868 0.04165500029921532
v -0.0007389999809674919 -0.0791419968008995 0.03980199992656708
v -0.001988000003620982 -0.07662799954414368 0.04088100045919418
v 0.0020890000741928816 -0.0799809992313385 0.03446400165557861
v 0.0014169999631121755 -0.07948300242424011 0.033351998776197433
v 0.0009679999784566462 -0.07710299640893936 0.03139699995517731
v -0.0004149999876972288 -0.07558400183916092 0.03144799917936325
v -0.006936999969184399 -0.06547500193119049 0.029016999527812004
v -0.005537999793887138 -0.0716399997472763 0.02937999926507473
v -0.00266400002874434 -0.07594899833202362 0.030626999214291573
v -0.0010679999832063913 -0.08433900028467178 0.040084000676870346
v -0.0018599999602884054 -0.08387400209903717 0.03943200036883354
v -0.000999000039882958 -0.07997699826955795 0.03996799886226654
v -0.002022000029683113 -0.07943800091743469 0.04051300138235092
v -0.0023509999737143517 -0.08062300086021423 0.03999999910593033
v -0.002481000032275915 -0.08235599845647812 0.03942900151014328
v 0.0003539999888744205 -0.08572500199079514 0.03869999945163727
v 0.0038389998953789473 -0.0843840017914772 0.037271998822689056
v 0.005001000128686428 -0.08175300061702728 0.03988900035619736
v 0.004726999904960394 -0.08302000164985657 0.03861699998378754
v 0.001614999957382679 -0.08569200336933136 0.038359999656677246
v 0.0035830000415444374 -0.08432900160551071 0.036288000643253326
v 0.0016840000171214342 -0.08273500204086304 0.0335719995200634
v -0.0077309999614953995 -0.05453300103545189 0.029404999688267708
v -0.006699000019580126 -0.05411199852824211 0.03168800100684166
v -0.00748400017619133 -0.06540899723768234 0.029566999524831772
v -0.00735200010240078 -0.0703670009970665 0.03212900087237358
v -0.00544800003990531 -0.048183001577854156 0.031470999121665955
v -0.0065899998880922794 -0.051541998982429504 0.031209999695420265
v -0.0016980000073090196 -0.0483429990708828 0.031022999435663223
v -0.00216299993917346 -0.04792400076985359 0.031120000407099724
v -0.002626999979838729 -0.05048700049519539 0.032343000173568726
v -0.0013889999827370048 -0.04908299818634987 0.028410999104380608
v -0.004685999825596809 -0.05265999957919121 0.026413999497890472
v -0.006153999827802181 -0.05785499885678291 0.027197999879717827
v -0.0032250001095235348 -0.07695499807596207 0.040352001786231995
v -0.004631000105291605 -0.08052700012922287 0.03932800143957138
v -0.0029200001154094934 -0.07982899993658066 0.04061700031161308
v -0.005748999770730734 -0.08262299746274948 0.03579200059175491
v -0.005685000214725733 -0.07643300294876099 0.03610000014305115
v 0.0015079999575391412 -0.07932800054550171 0.03237700089812279
v 0.000957000011112541 -0.07906000316143036 0.031231999397277832
v 0.0002699999895412475 -0.07787299901247025 0.0305550005286932
v -0.0009180000051856041 -0.07639099657535553 0.031153999269008636
v -0.007162999827414751 -0.07057800143957138 0.029936999082565308
v -0.007689000107347965 -0.0500280000269413 0.026064999401569366
v -0.005154000129550695 -0.07366900146007538 0.029659999534487724
v -0.006316999904811382 -0.07400699704885483 0.02964000031352043
v -0.003470999887213111 -0.0772320032119751 0.030541999265551567
v -0.005805000197142363 -0.07669100165367126 0.02941099926829338
v -0.0020570000633597374 -0.08574900031089783 0.037092000246047974
v -0.0033470001071691513 -0.08392500132322311 0.03811800107359886
v -0.0027830000035464764 -0.08141999691724777 0.03975199908018112
v -0.003481999970972538 -0.08274500072002411 0.03893499821424484
v 0.0002099999983329326 -0.08621200174093246 0.0351330004632473
v -0.000539999979082495 -0.0848350003361702 0.033020999282598495
v 0.0010770000517368317 -0.083017997443676 0.03289100155234337
v 0.0008280000183731318 -0.08109000325202942 0.03176100179553032
v -0.007943999953567982 -0.049594998359680176 0.028056999668478966
v -0.007408999837934971 -0.07579100131988525 0.03215400129556656
v -0.007199999876320362 -0.07466500252485275 0.029836999252438545
v -0.002597999991849065 -0.04781400039792061 0.03163500130176544
v -0.004263000097125769 -0.0411049984395504 0.03121200017631054
v -0.005249999929219484 -0.041221000254154205 0.03094800002872944
v -0.006322000175714493 -0.04139599949121475 0.03002299927175045
v -0.007164000067859888 -0.04606400057673454 0.02901099994778633
v -0.007540999911725521 -0.04655800014734268 0.027386000379920006
v -0.0014570000348612666 -0.045903000980615616 0.030208000913262367
v -0.0020630001090466976 -0.04299100115895271 0.030905000865459442
v -0.0017800000496208668 -0.04525800049304962 0.03063799999654293
v -0.0008609999786131084 -0.04412800073623657 0.02773899957537651
v -0.0020890000741928816 -0.04345500096678734 0.02357099950313568
v -0.004203000105917454 -0.04780000075697899 0.02460400015115738
v -0.0050490000285208225 -0.04771900177001953 0.02419699914753437
v -0.004689999856054783 -0.08159200102090836 0.038651999086141586
v -0.004257999826222658 -0.08493799716234207 0.03444699943065643
v -0.005014999769628048 -0.08378499746322632 0.03279799968004227
v -0.005822000093758106 -0.08247900009155273 0.03286899998784065
v -0.006053000222891569 -0.08009699732065201 0.033583998680114746
v -0.007058999966830015 -0.07971200346946716 0.03213199973106384
v -0.0009549999958835542 -0.07939600199460983 0.030791999772191048
v -0.0024270000867545605 -0.07964599877595901 0.03148699924349785
v -0.0016090000281110406 -0.0804930031299591 0.03119800053536892
v -0.00303900009021163 -0.07912500202655792 0.03121899999678135
v -0.006699000019580126 -0.04729500040411949 0.025103000923991203
v -0.006976999808102846 -0.07507599890232086 0.029572999104857445
v -0.004790999926626682 -0.07966200262308121 0.03132700175046921
v -0.0054720002226531506 -0.07911600172519684 0.030484000220894814
v -0.007025000173598528 -0.07680299878120422 0.029673999175429344
v -0.003019999945536256 -0.08545400202274323 0.03413200005888939
v -0.0019099999917671084 -0.0854090005159378 0.03342600166797638
v -0.001724999980069697 -0.08272600173950195 0.03147900104522705
v -0.0012610000558197498 -0.08106999844312668 0.030796000733971596
v -0.00802600011229515 -0.07718399912118912 0.03135799989104271
v -0.0076790000312030315 -0.07695599645376205 0.03037399984896183
v -0.004321000073105097 -0.03614199906587601 0.031348999589681625
v -0.0054259998723864555 -0.037866998463869095 0.03131699934601784
v -0.003449999960139394 -0.04085800051689148 0.031106000766158104
v -0.005607999861240387 -0.03663399815559387 0.030882999300956726
v -0.007273999974131584 -0.03806700184941292 0.027480000630021095
v -0.006670000031590462 -0.04380299896001816 0.026115000247955322
v -0.007114999927580357 -0.04161199927330017 0.026384999975562096
v -0.005450000055134296 -0.04469799995422363 0.02361699938774109
v -0.001057000015862286 -0.04359700158238411 0.029918000102043152
v -0.00088900001719594 -0.041655998677015305 0.02977300062775612
v -0.0010580000234767795 -0.03827900066971779 0.029377000406384468
v -0.002595999976620078 -0.04087800160050392 0.030703000724315643
v -0.001142999972216785 -0.04005900025367737 0.0216279998421669
v 0.00046099998871795833 -0.040463000535964966 0.027581999078392982
v 0.0002410000015515834 -0.04024900123476982 0.02886899933218956
v -0.003335000015795231 -0.04176200181245804 0.02137799933552742
v -0.00430000014603138 -0.04539300128817558 0.023026999086141586
v -0.0044450000859797 -0.043251000344753265 0.02216999977827072
v -0.005245000123977661 -0.08203499764204025 0.03228599950671196
v -0.002167999977245927 -0.08046399801969528 0.031647998839616776
v -0.005764999892562628 -0.08096099644899368 0.031915999948978424
v -0.006105999927967787 -0.08069200068712234 0.032489001750946045
v -0.006453000009059906 -0.07998000085353851 0.03161099925637245
v -0.007323999889194965 -0.07922700047492981 0.03156200051307678
v -0.004850999917834997 -0.045125000178813934 0.023088999092578888
v -0.006711999885737896 -0.0793209969997406 0.031085999682545662
v -0.0077229999005794525 -0.07769499719142914 0.0304189994931221
v -0.003275000024586916 -0.03925999999046326 0.030966000631451607
v -0.0033009999897331 -0.03780600056052208 0.03115200065076351
v -0.0030519999563694 -0.036302000284194946 0.03123299963772297
v -0.005576000083237886 -0.03563600033521652 0.030897000804543495
v -0.004914000164717436 -0.03547300025820732 0.031700000166893005
v -0.006651000119745731 -0.03504699841141701 0.028099000453948975
v -0.007404000032693148 -0.037748999893665314 0.025495000183582306
v -0.005766000133007765 -0.04194499924778938 0.02284100092947483
v -0.007007000036537647 -0.03991800174117088 0.02238300070166588
v -0.0048329997807741165 -0.04328399896621704 0.022641999647021294
v 0.0010890000266954303 -0.03716599941253662 0.027696000412106514
v -0.0020439999643713236 -0.036166001111269 0.02981399931013584
v -0.0007660000119358301 -0.036692000925540924 0.02898699976503849
v -0.002383999992161989 -0.039308998733758926 0.03028300032019615
v 0.0007459999760612845 -0.035645000636577606 0.02815599925816059
v -0.002194999950006604 -0.03796600177884102 0.02990500070154667
v 0.0012000000569969416 -0.03774400055408478 0.022088000550866127
v -0.000666000007186085 -0.036653999239206314 0.01889299973845482
v -0.0013050000416114926 -0.0385500006377697 0.02029700018465519
v -0.0021120000164955854 -0.040251001715660095 0.021150000393390656
v 0.0007810000097379088 -0.03718699887394905 0.02069699950516224
v 0.0020620001014322042 -0.0363290011882782 0.025906000286340714
v 0.002094999887049198 -0.03645600005984306 0.024793999269604683
v -0.004296999890357256 -0.04209600016474724 0.021398000419139862
v -0.004474000073969364 -0.03994100168347359 0.02106199972331524
v -0.0029690000228583813 -0.04008999839425087 0.021018000319600105
v -0.004863999783992767 -0.04215399920940399 0.021599000319838524
v -0.003244000021368265 -0.03550399839878082 0.03171199932694435
v -0.0059739998541772366 -0.03489400073885918 0.03040199913084507
v -0.005247999913990498 -0.03475100174546242 0.031876999884843826
v -0.007373000029474497 -0.03377100080251694 0.024771999567747116
v -0.007145000156015158 -0.03489900007843971 0.026000000536441803
v -0.007670000195503235 -0.035548001527786255 0.025286000221967697
v -0.006686000153422356 -0.03305000066757202 0.027759000658988953
v -0.006434000097215176 -0.031821999698877335 0.028971999883651733
v -0.005107999779284 -0.04214699938893318 0.02254199981689453
v -0.007108000107109547 -0.0385419987142086 0.02033199928700924
v -0.006128999870270491 -0.04044000059366226 0.020997999235987663
v -0.007683999836444855 -0.0354590006172657 0.020687000826001167
v 0.00184599997010082 -0.035006001591682434 0.026406999677419662
v -0.001395000028423965 -0.03507399931550026 0.028790000826120377
v 0.0017810000572353601 -0.03303699940443039 0.026233000680804253
v 0.00021600000036414713 -0.03441900014877319 0.027463000267744064
v 0.002271000063046813 -0.035280000418424606 0.02474999986588955
v 0.0015429999912157655 -0.03578300029039383 0.02132200077176094
v 0.0008169999928213656 -0.03629399836063385 0.02011300064623356
v -0.001626000041142106 -0.035367000848054886 0.01800299994647503
v 0.000011000000085914508 -0.03649500012397766 0.019161999225616455
v -0.0009399999980814755 -0.03595000132918358 0.018319999799132347
v -0.002087000058963895 -0.03863300010561943 0.020677000284194946
v -0.002455000067129731 -0.03533799946308136 0.018293000757694244
v -0.0028639999218285084 -0.03604799881577492 0.018519999459385872
v -0.0026110000908374786 -0.03748200088739395 0.01991499960422516
v -0.005373999942094088 -0.039778001606464386 0.020796999335289
v -0.004333999939262867 -0.038384001702070236 0.021031999960541725
v -0.005429000128060579 -0.038026001304388046 0.020377999171614647
v -0.0032389999832957983 -0.03864999860525131 0.021112000569701195
v -0.003967000171542168 -0.03388899937272072 0.03193200007081032
v -0.002814000006765127 -0.034217000007629395 0.03154199942946434
v -0.005260000005364418 -0.03384200111031532 0.03170499950647354
v -0.0076939999125897884 -0.03482300043106079 0.025127999484539032
v -0.00647599995136261 -0.03173200041055679 0.025603000074625015
v -0.006661000195890665 -0.030160000547766685 0.021296000108122826
v -0.007945000194013119 -0.0336650013923645 0.022140000015497208
v -0.006783999968320131 -0.0311450008302927 0.024274000898003578
v -0.007013999857008457 -0.030889999121427536 0.023388000205159187
v -0.00646300008520484 -0.030540000647306442 0.025465000420808792
v -0.0066709998063743114 -0.030441999435424805 0.027367999777197838
v -0.006676000077277422 -0.03042599931359291 0.028362000361084938
v -0.005642999894917011 -0.03164299950003624 0.030125999823212624
v -0.006426000036299229 -0.03830600157380104 0.019888000562787056
v -0.0070779998786747456 -0.03743299841880798 0.019514000043272972
v -0.007269000168889761 -0.035684000700712204 0.019272999837994576
v -0.006723000202327967 -0.034699998795986176 0.019252000376582146
v -0.006943999789655209 -0.03389199823141098 0.019318999722599983
v 0.0018820000113919377 -0.03300200030207634 0.02531999908387661
v 0.0017239999724552035 -0.03288000077009201 0.024174999445676804
v 0.0015300000086426735 -0.03286699950695038 0.023138999938964844
v -0.000522000016644597 -0.03267800062894821 0.02695400081574917
v 0.0010300000431016088 -0.03096199966967106 0.024003000929951668
v 0.002337000099942088 -0.030267000198364258 0.023560000583529472
v 0.0021619999315589666 -0.03167299926280975 0.023933999240398407
v 0.0013180000241845846 -0.0334790013730526 0.020339999347925186
v 0.0005039999959990382 -0.03363500162959099 0.017959000542759895
v 0.0008290000259876251 -0.03320800140500069 0.019040999934077263
v -0.0004290000069886446 -0.03553000092506409 0.01821500062942505
v -0.0018070000223815441 -0.034627001732587814 0.017687000334262848
v -0.001765000051818788 -0.0340769998729229 0.017928000539541245
v -0.0031190000008791685 -0.03531700000166893 0.018285000696778297
v -0.002492999890819192 -0.03439699858427048 0.01811099983751774
v -0.003148999996483326 -0.03697099909186363 0.01910099945962429
v -0.003806999884545803 -0.037755999714136124 0.020246999338269234
v -0.004466000013053417 -0.03740699961781502 0.02043999917805195
v -0.005135999992489815 -0.0361500009894371 0.019547000527381897
v -0.005646999925374985 -0.03614800050854683 0.01960100047290325
v -0.006424000021070242 -0.035638999193906784 0.01858600042760372
v -0.0034749999176710844 -0.03756700083613396 0.0197720006108284
v -0.002698000054806471 -0.03308200091123581 0.030747000128030777
v -0.003918999806046486 -0.03280000016093254 0.031373001635074615
v -0.0039820000529289246 -0.031387001276016235 0.030431000515818596
v -0.00646300008520484 -0.030132999643683434 0.02421100065112114
v -0.006147999782115221 -0.03155200183391571 0.01916399970650673
v -0.006568999961018562 -0.028578000143170357 0.020795999094843864
v -0.00659599993377924 -0.029225999489426613 0.02175999991595745
v -0.006258999928832054 -0.028821000829339027 0.02171899937093258
v -0.006845000199973583 -0.02995000034570694 0.0234839990735054
v -0.005913999862968922 -0.029471000656485558 0.024354999884963036
v -0.005752999801188707 -0.028245000168681145 0.02664799988269806
v -0.005452000070363283 -0.028572000563144684 0.02475699968636036
v -0.006405999884009361 -0.028355000540614128 0.02791599929332733
v -0.0063149998895823956 -0.028953000903129578 0.02872299961745739
v -0.004511999897658825 -0.0278329998254776 0.028876999393105507
v -0.00698699988424778 -0.03658699989318848 0.01901400089263916
v -0.006140999961644411 -0.034040000289678574 0.01867399923503399
v -0.006155999843031168 -0.033201999962329865 0.01888200081884861
v 0.002749999985098839 -0.030672000721096992 0.02320699952542782
v 0.0023350000847131014 -0.031123999506235123 0.022050999104976654
v -0.0003440000000409782 -0.0303530003875494 0.02406200021505356
v 0.0006929999799467623 -0.029110999777913094 0.02316500060260296
v 0.0005779999773949385 -0.027793999761343002 0.022072000429034233
v 0.0022750000935047865 -0.029573999345302582 0.022955000400543213
v 0.001918999943882227 -0.03209000080823898 0.020054999738931656
v 0.0006060000159777701 -0.03301699832081795 0.01755400002002716
v -0.0002579999854788184 -0.03373799845576286 0.017493000254034996
v 0.0014179999707266688 -0.03151300176978111 0.01860000006854534
v 0.0012959999730810523 -0.031787000596523285 0.01730700023472309
v -0.0012150000547990203 -0.03383500128984451 0.017703000456094742
v -0.0018070000223815441 -0.033622000366449356 0.017602000385522842
v -0.0015640000347048044 -0.03330500051379204 0.018052000552415848
v -0.003413999918848276 -0.034651000052690506 0.01838899962604046
v -0.003596999915316701 -0.03609500080347061 0.01858600042760372
v -0.0029070000164210796 -0.03365999832749367 0.017906999215483665
v -0.004333000164479017 -0.03640900179743767 0.019385000690817833
v -0.004755999892950058 -0.03595200181007385 0.019058000296354294
v -0.005135000217705965 -0.0351950004696846 0.019101999700069427
v -0.004784000106155872 -0.03505000099539757 0.018705999478697777
v -0.005661000031977892 -0.035312000662088394 0.019096000120043755
v -0.0056870002299547195 -0.034442998468875885 0.01865999959409237
v -0.003982999827712774 -0.03552699834108353 0.018532000482082367
v -0.006521000061184168 -0.029378000646829605 0.02353299967944622
v -0.005104000214487314 -0.033383000642061234 0.01878499984741211
v -0.005960999988019466 -0.02961299940943718 0.019392000511288643
v -0.006517999805510044 -0.02905699983239174 0.0200360007584095
v -0.005874999798834324 -0.028410999104380608 0.021511999890208244
v -0.005905000027269125 -0.028668999671936035 0.02079400047659874
v -0.006711000110954046 -0.029117999598383904 0.022871999070048332
v -0.005739999935030937 -0.028728999197483063 0.022259000688791275
v -0.006051999982446432 -0.029138000681996346 0.023753000423312187
v -0.005022999830543995 -0.027925999835133553 0.024424999952316284
v -0.004484999924898148 -0.027347000315785408 0.025465000420808792
v -0.005419000051915646 -0.02783999964594841 0.027388999238610268
v -0.0018739999504759908 -0.02712400071322918 0.025310000404715538
v 0.002626999979838729 -0.030239999294281006 0.02268099971115589
v 0.002068999921903014 -0.03086799941956997 0.02033800072968006
v -0.00039999998989515007 -0.027313999831676483 0.022693999111652374
v 0.0018779999809339643 -0.02899100072681904 0.022419000044465065
v -0.00019799999427050352 -0.02703000046312809 0.02217699959874153
v -0.0017930000321939588 -0.027365000918507576 0.02137799933552742
v -0.000623999978415668 -0.02782999910414219 0.020181000232696533
v 0.0023300000466406345 -0.029495999217033386 0.022391999140381813
v -0.0006520000169984996 -0.03249499946832657 0.017211999744176865
v -0.000295000005280599 -0.032175999134778976 0.016899000853300095
v -0.002093000104650855 -0.02907799929380417 0.018353000283241272
v 0.0012829999905079603 -0.031065000221133232 0.017695000395178795
v 0.00006600000051548705 -0.030705999583005905 0.016930999234318733
v -0.0037930000107735395 -0.030717000365257263 0.01805499941110611
v -0.0017640000442042947 -0.03281699866056442 0.017479000613093376
v -0.001664999988861382 -0.032113999128341675 0.017880000174045563
v -0.0036150000523775816 -0.033702000975608826 0.018518000841140747
v -0.004009999800473452 -0.032864999026060104 0.01839599944651127
v -0.005150000099092722 -0.03421600162982941 0.018859000876545906
v -0.006442999932914972 -0.028756000101566315 0.023159999400377274
v -0.0048779998905956745 -0.03246400132775307 0.018503999337553978
v -0.006142999976873398 -0.02848299965262413 0.019852999597787857
v -0.005816000048071146 -0.028821999207139015 0.019252000376582146
v -0.005173000041395426 -0.02909800037741661 0.0186769999563694
v -0.004987999796867371 -0.031032999977469444 0.018828000873327255
v -0.0047599999234080315 -0.028226999565958977 0.02098100073635578
v -0.004916999954730272 -0.028258999809622765 0.021688999608159065
v -0.004681000020354986 -0.028186999261379242 0.02020999975502491
v -0.0053369998931884766 -0.02831299975514412 0.022746000438928604
v -0.005386000033468008 -0.028286000713706017 0.023530999198555946
v -0.004110000096261501 -0.027986999601125717 0.024056000635027885
v -0.0026310000102967024 -0.027465999126434326 0.02352599985897541
v 0.002329000039026141 -0.030141999945044518 0.021709000691771507
v -0.0014489999739453197 -0.028199000284075737 0.01906600035727024
v -0.0028180000372231007 -0.027948999777436256 0.0205329991877079
v -0.00029799999902024865 -0.028124000877141953 0.019812999293208122
v -0.0015300000086426735 -0.03180199861526489 0.01742199994623661
v -0.001496999990195036 -0.030810000374913216 0.01704300008714199
v -0.0016250000335276127 -0.03135399892926216 0.017124999314546585
v -0.002848000032827258 -0.028967000544071198 0.018122000619769096
v -0.003653000108897686 -0.02875700034201145 0.01888200081884861
v -0.0031999999191612005 -0.0293589998036623 0.018358999863266945
v -0.0046190000139176846 -0.029015999287366867 0.0185139998793602
v -0.004327000118792057 -0.03160800039768219 0.01838099956512451
v -0.005158999934792519 -0.02828899957239628 0.018861999735236168
v -0.0047690002247691154 -0.03049200028181076 0.018679000437259674
v -0.0012880000285804272 -0.028091000393033028 0.01958400011062622
vn -0.031416408717632294 0.27756267786026 0.9601936340332031
vn 0.5035617351531982 0.5441552400588989 0.6710594296455383
vn -0.2991096079349518 0.11725194752216339 0.9469874501228333
vn -0.3164399564266205 -0.06303706765174866 0.9465157389640808
vn 0.2406534105539322 0.8872317671775818 0.3935806453227997
vn 0.1223677322268486 -0.014782345853745937 0.9923747777938843
vn 0.08609641343355179 0.6340106129646301 0.7685167789459229
vn 0.6518463492393494 0.5855150818824768 0.4819425046443939
vn 0.6464948058128357 0.24624821543693542 0.7220847010612488
vn 0.8149878978729248 0.4593890905380249 0.35320860147476196
vn 0.32826685905456543 0.3048962950706482 0.894024133682251
vn 0.807924747467041 0.3162551820278168 0.4972325563430786
vn 0.22058258950710297 0.5743429064750671 0.7883359789848328
vn 0.5410727858543396 0.16877801716327667 0.8238654136657715
vn 0.5367611646652222 0.4380398690700531 0.7211161255836487
vn 0.6968263983726501 0.7171595096588135 0.010733826085925102
vn 0.936455488204956 0.3000403642654419 -0.18173322081565857
vn -0.2197648286819458 0.03199610486626625 0.9750280380249023
vn -0.3623773157596588 0.19536158442497253 0.9113267660140991
vn -0.12628388404846191 0.1407342106103897 0.9819603562355042
vn -0.37959498167037964 0.05487929284572601 0.9235236048698425
vn -0.2196464091539383 -0.2718352675437927 0.9369423389434814
vn 0.4625137448310852 -0.3864496648311615 0.7979584336280823
vn 0.11813518404960632 -0.6313251256942749 0.7664675712585449
vn 0.6880419850349426 0.5520329475402832 -0.4710177481174469
vn 0.5269757509231567 0.8495383262634277 0.024106476455926895
vn 0.8147226572036743 -0.06038019061088562 0.5766984820365906
vn 0.824867844581604 0.5245347619056702 -0.21084646880626678
vn 0.9576708674430847 0.2620030641555786 0.1192517802119255
vn 0.011289404705166817 0.3512798249721527 0.9362024068832397
vn 0.6746722459793091 0.20518310368061066 0.709025502204895
vn 0.9817385673522949 0.06051436811685562 -0.180353581905365
vn -0.6029655933380127 0.2896074652671814 0.7433437705039978
vn -0.022026658058166504 0.43677276372909546 0.8993022441864014
vn 0.09690012037754059 -0.1094694584608078 0.9892556667327881
vn 0.5347501635551453 0.1282247006893158 0.835224986076355
vn 0.8427784442901611 0.3400293290615082 -0.41725826263427734
vn 0.9468308687210083 0.2645045220851898 -0.18316279351711273
vn 0.8709807395935059 0.38386163115501404 -0.30666375160217285
vn 0.6571438908576965 0.005279946606606245 -0.7537466287612915
vn 0.7578043341636658 0.21327386796474457 -0.6166414618492126
vn -0.2572256624698639 0.17272718250751495 0.9507893323898315
vn 0.20594164729118347 -0.010180486366152763 0.978511393070221
vn 0.22915567457675934 -0.10395702719688416 0.9678226709365845
vn -0.16011109948158264 -0.12289183586835861 0.9794192314147949
vn -0.16550646722316742 -0.00018555985298007727 0.9862086176872253
vn -0.14135566353797913 -0.7185834646224976 0.6809231042861938
vn 0.6069415807723999 -0.6311151385307312 0.4830276072025299
vn 0.8843491077423096 -0.22365416586399078 0.4097626805305481
vn 0.37861037254333496 -0.8326369524002075 0.404190331697464
vn -0.04543716460466385 -0.7781517505645752 0.6264305710792542
vn 0.948227047920227 0.2191237062215805 -0.22989201545715332
vn 0.9750587940216064 0.05810572952032089 -0.21420590579509735
vn 0.8191204071044922 0.13866059482097626 -0.5566101670265198
vn 0.9901540875434875 0.0460924468934536 0.13217483460903168
vn -0.7958426475524902 0.1630908101797104 0.5831258893013
vn -0.2600756585597992 0.27508431673049927 0.9255751371383667
vn 0.5494902729988098 0.28470465540885925 0.7854958176612854
vn 0.995447039604187 -0.03808276355266571 -0.08737774193286896
vn 0.11070401221513748 0.25844478607177734 0.9596617817878723
vn 0.6756481528282166 -0.15042534470558167 -0.7217145562171936
vn -0.5505743622779846 0.018740367144346237 0.8345757722854614
vn -0.8175943493843079 0.013966242782771587 0.5756251811981201
vn 0.16862955689430237 -0.0076246438547968864 0.9856500029563904
vn 0.570323646068573 -0.142862007021904 0.8089013695716858
vn 0.1315125674009323 -0.17263133823871613 0.9761673212051392
vn 0.7950665354728699 0.2901141047477722 -0.5326377153396606
vn 0.9648632407188416 0.2154015451669693 -0.1504696160554886
vn 0.8807832598686218 0.3338950276374817 -0.3357601761817932
vn 0.47044068574905396 0.38583803176879883 -0.793608546257019
vn -0.12972326576709747 -0.16685879230499268 -0.977409839630127
vn 0.08257491141557693 -0.049447402358055115 -0.9953573346138
vn 0.3785287141799927 0.016489442437887192 -0.925442636013031
vn -0.42333635687828064 -0.45166945457458496 0.7853540182113647
vn -0.503673791885376 -0.24643735587596893 0.8279984593391418
vn 0.642353892326355 -0.1577356904745102 0.750000536441803
vn 0.24947011470794678 -0.2813301086425781 0.9266164302825928
vn 0.08776076138019562 -0.33436349034309387 0.9383491277694702
vn -0.28619185090065 -0.336636483669281 0.8970898389816284
vn -0.06810615211725235 -0.9011175036430359 0.4281923472881317
vn 0.6570197939872742 -0.7521715760231018 0.05062383785843849
vn 0.8377465605735779 -0.36021581292152405 0.41039639711380005
vn 0.916201114654541 -0.4005582630634308 -0.01134046632796526
vn 0.32779940962791443 -0.9257469773292542 0.18852046132087708
vn 0.7544568777084351 -0.4619848430156708 -0.46622392535209656
vn 0.8360159397125244 -0.1817922741174698 -0.5177152156829834
vn -0.9743911027908325 0.0328545942902565 0.2224465310573578
vn -0.7542836666107178 0.18681275844573975 0.6294100284576416
vn -0.9780343174934387 -0.05612410604953766 -0.20074589550495148
vn -0.9884687066078186 -0.00005535432865144685 0.15142543613910675
vn -0.2342257797718048 0.1756138950586319 0.9561893343925476
vn -0.793870210647583 0.11393041163682938 0.5973190665245056
vn 0.8599040508270264 0.16788309812545776 0.4820582866668701
vn 0.6147642135620117 0.18794839084148407 0.7659898400306702
vn 0.15332567691802979 0.3001866638660431 0.9414771199226379
vn 0.9414663314819336 -0.21982316672801971 -0.2555755078792572
vn 0.6571966409683228 -0.29745498299598694 -0.6925410628318787
vn 0.20327706634998322 -0.27059438824653625 -0.9409873485565186
vn -0.4735682010650635 -0.08650454878807068 0.8764987587928772
vn -0.7373883724212646 -0.2130635380744934 0.6409854888916016
vn -0.17479193210601807 -0.2505517899990082 0.9521930813789368
vn -0.8921739459037781 -0.357089638710022 0.27660906314849854
vn -0.931725800037384 -0.06217263638973236 0.35780102014541626
vn 0.9682704210281372 0.019766012206673622 -0.24912157654762268
vn 0.6618435978889465 -0.15346407890319824 -0.7337655425071716
vn 0.2532879114151001 0.13844084739685059 -0.9574337601661682
vn -0.022196512669324875 0.02545391581952572 -0.9994295835494995
vn -0.7044350504875183 -0.05131705477833748 -0.7079108953475952
vn -0.7944201231002808 -0.08300179243087769 -0.601670503616333
vn 0.1801500767469406 -0.02998034842312336 -0.9831821918487549
vn -0.1650649756193161 0.06506697833538055 -0.9841340184211731
vn 0.31274765729904175 -0.29148298501968384 -0.9040058851242065
vn 0.10558333992958069 -0.12511688470840454 -0.9865079522132874
vn -0.47007814049720764 -0.8242098689079285 0.3157602548599243
vn -0.5669690370559692 -0.545129656791687 0.6175596117973328
vn -0.008482147939503193 -0.41664811968803406 0.9090283513069153
vn -0.44434529542922974 -0.4881293773651123 0.7511903047561646
vn 0.18267206847667694 -0.9628536701202393 -0.1988563984632492
vn 0.4159289300441742 -0.6107515692710876 -0.6737846732139587
vn 0.539137065410614 -0.44944995641708374 -0.7122682332992554
vn 0.6235114932060242 -0.23459722101688385 -0.7457865476608276
vn -0.9911044239997864 0.11853770911693573 0.06050412356853485
vn -0.9486140608787537 0.048251356929540634 0.31273525953292847
vn -0.8709983229637146 0.14075978100299835 -0.4706896245479584
vn 0.35810741782188416 0.13044454157352448 0.9245232939720154
vn -0.007834537886083126 0.009728244505822659 0.999921977519989
vn -0.460958868265152 0.005759404040873051 0.8874028325080872
vn -0.8311901688575745 0.03963984549045563 0.5545732975006104
vn -0.9878287315368652 0.0515979565680027 0.1467377245426178
vn -0.9851431846618652 0.15782207250595093 -0.06771314889192581
vn 0.8864251971244812 -0.016440143808722496 0.46257975697517395
vn 0.5238854885101318 0.08389583975076675 0.8476470112800598
vn 0.7433004379272461 -0.009968849830329418 0.6688835024833679
vn 0.9646391868591309 -0.26176130771636963 -0.030857129022479057
vn 0.6462326645851135 -0.4386920928955078 -0.6244457364082336
vn 0.5328346490859985 -0.4203430116176605 -0.7344378232955933
vn -0.023693248629570007 -0.3300265371799469 -0.9436742067337036
vn -0.7304164171218872 -0.4171527922153473 0.5408098697662354
vn -0.6215352416038513 -0.7833551168441772 0.006974326446652412
vn -0.520380437374115 -0.5639121532440186 -0.6412543058395386
vn -0.8790085911750793 -0.32994571328163147 -0.3442087173461914
vn -0.9452699422836304 -0.22462762892246246 0.2366580218076706
vn -0.8659883141517639 -0.44345319271087646 0.2311135232448578
vn -0.13029509782791138 -0.06830298900604248 -0.9891197681427002
vn -0.08636811375617981 -0.15891073644161224 -0.9835079908370972
vn -0.6182776689529419 -0.030498091131448746 -0.7853679060935974
vn 0.19470585882663727 -0.2341955602169037 -0.9524925947189331
vn -0.7553170919418335 -0.0629023090004921 -0.6523339152336121
vn -0.45741337537765503 0.0702970027923584 -0.8864713311195374
vn 0.03661360591650009 -0.4841603636741638 -0.8742128610610962
vn -0.040779393166303635 -0.5184010863304138 -0.8541647791862488
vn -0.43517419695854187 -0.28557032346725464 -0.8538578152656555
vn -0.30518877506256104 -0.9208804965019226 -0.2425672858953476
vn -0.08582218736410141 -0.7739430665969849 -0.627412736415863
vn -0.19123536348342896 -0.3458896279335022 -0.9185801148414612
vn -0.07036756724119186 -0.2167852222919464 -0.9736799001693726
vn -0.9987303018569946 -0.03391539677977562 0.037248916923999786
vn -0.734700083732605 -0.09112314879894257 -0.6722443103790283
vn -0.06767173856496811 -0.13586102426052094 0.9884140491485596
vn -0.46582096815109253 0.005890967790037394 0.8848594427108765
vn 0.3135978877544403 0.04513942822813988 0.9484823346138
vn -0.7789240479469299 0.08532165735960007 0.6212870478630066
vn -0.9720280766487122 0.056518059223890305 0.22796288132667542
vn -0.9599624276161194 -0.020207636058330536 -0.27939873933792114
vn -0.9708725810050964 -0.176047220826149 -0.16252291202545166
vn -0.8059983253479004 -0.07874112576246262 -0.5866571068763733
vn 0.8517288565635681 -0.11087150871753693 0.5121186971664429
vn 0.6365458369255066 0.049023550003767014 0.7696791887283325
vn 0.510794997215271 0.11293011158704758 0.8522530198097229
vn 0.4728904068470001 0.14377151429653168 0.869312584400177
vn 0.6202023029327393 -0.5580250024795532 -0.5513231158256531
vn 0.9287146329879761 -0.3684154450893402 0.0419413186609745
vn 0.8280138373374939 -0.09883774816989899 0.5519276857376099
vn 0.23594501614570618 -0.4181663691997528 -0.8771925568580627
vn 0.04440729692578316 -0.43510115146636963 -0.8992857933044434
vn -0.14867690205574036 -0.5003599524497986 -0.8529566526412964
vn -0.22896206378936768 -0.36968931555747986 -0.9005032777786255
vn -0.1968153715133667 -0.21941623091697693 -0.9555732011795044
vn -0.5090169906616211 -0.45525479316711426 -0.730509877204895
vn -0.8652051091194153 -0.49110302329063416 -0.10118304193019867
vn -0.47903966903686523 -0.6689725518226624 -0.5683280825614929
vn -0.7689832448959351 -0.5605658888816833 -0.307295560836792
vn -0.5756341814994812 -0.25712040066719055 -0.7762309312820435
vn -0.31008684635162354 -0.6756330132484436 -0.6688543558120728
vn -0.6520249247550964 -0.34698086977005005 -0.6741422414779663
vn 0.42411190271377563 -0.0052506993524730206 0.9055945873260498
vn 0.4627050459384918 -0.0780821219086647 0.8830668926239014
vn 0.4582890272140503 -0.2562113404273987 0.8510739803314209
vn -0.7609642148017883 -0.21425345540046692 0.6123959422111511
vn -0.38064664602279663 -0.4440062642097473 0.8111513257026672
vn -0.9614073038101196 0.04686403647065163 0.2711082994937897
vn -0.996138870716095 -0.03485628217458725 0.08057589828968048
vn -0.7350443601608276 -0.3254791796207428 -0.5947882533073425
vn -0.9040064215660095 -0.3617883622646332 -0.22777526080608368
vn -0.707252562046051 -0.27037152647972107 -0.6532173752784729
vn 0.8315778970718384 -0.05369354411959648 0.5528066158294678
vn 0.7017168998718262 0.04256075993180275 0.7111833691596985
vn 0.48158571124076843 0.20542550086975098 0.8519832491874695
vn 0.5838977098464966 0.09490957111120224 0.8062602877616882
vn 0.5499022603034973 0.23342038691043854 0.8019490838050842
vn 0.653477132320404 0.015370288863778114 0.7567901611328125
vn 0.8739089369773865 -0.3921694755554199 -0.28720423579216003
vn 0.23055483400821686 -0.6424646377563477 -0.7308103442192078
vn -0.055844470858573914 -0.5782908797264099 -0.8139171004295349
vn 0.15303102135658264 -0.3884461224079132 -0.908675491809845
vn 0.6683418154716492 -0.5334950685501099 -0.5183650255203247
vn 0.9596517086029053 -0.129525825381279 0.24958284199237823
vn 0.9609718322753906 -0.27073177695274353 -0.05689925700426102
vn -0.009945460595190525 -0.359628826379776 -0.9330424666404724
vn 0.1615465134382248 -0.13234837353229523 -0.9779502749443054
vn -0.02388632670044899 -0.11108469218015671 -0.9935238361358643
vn -0.5328214168548584 -0.4909490644931793 -0.6892534494400024
vn 0.457881361246109 -0.19736096262931824 0.866829514503479
vn -0.8925158381462097 -0.14373061060905457 0.42750096321105957
vn -0.5363613367080688 -0.09999942779541016 0.8380433917045593
vn -0.9419597387313843 0.24540844559669495 0.2290993183851242
vn -0.884425699710846 0.25560975074768066 0.39045464992523193
vn -0.9849038124084473 0.00263991579413414 0.17308266460895538
vn -0.9952564239501953 0.047975391149520874 0.08463449776172638
vn -0.919649064540863 0.06069340929389 0.38802310824394226
vn -0.7311429977416992 -0.470438688993454 -0.4940822720527649
vn -0.8109633326530457 -0.37274909019470215 -0.4509950280189514
vn -0.48085036873817444 -0.5847216248512268 -0.6533632278442383
vn -0.9705879092216492 -0.02780483104288578 -0.23913590610027313
vn 0.9723138213157654 0.04446468874812126 0.22940915822982788
vn 0.6691101789474487 0.21055974066257477 0.7127103805541992
vn 0.7195898294448853 0.3610367178916931 0.5931634902954102
vn 0.3281283974647522 0.5643640756607056 0.7575123310089111
vn 0.9993866682052612 0.012404166162014008 -0.03274800628423691
vn 0.9380636811256409 -0.09921064227819443 -0.33195436000823975
vn 0.8345509767532349 -0.23537515103816986 -0.498119592666626
vn 0.4030340611934662 -0.20493045449256897 -0.8919456601142883
vn 0.6946197748184204 -0.21102763712406158 -0.6877286434173584
vn 0.4407564103603363 -0.14218616485595703 -0.8862939476966858
vn -0.2566874027252197 -0.37158867716789246 -0.8922069668769836
vn -0.15311573445796967 -0.37327998876571655 -0.9149959683418274
vn -0.0009003474842756987 -0.5187703371047974 -0.8549132347106934
vn -0.050351306796073914 -0.6887602210044861 -0.7232385873794556
vn 0.14978532493114471 -0.28512197732925415 -0.9467152953147888
vn 0.05544267222285271 -0.31395095586776733 -0.9478189945220947
vn 0.39137548208236694 -0.2998865246772766 -0.8699961304664612
vn -0.11153270304203033 -0.5638399720191956 -0.8183183670043945
vn 0.16984987258911133 0.25241339206695557 0.9525956511497498
vn 0.7134376764297485 0.12795132398605347 0.6889377236366272
vn -0.45077240467071533 0.3697759807109833 0.8124469518661499
vn -0.9123260974884033 0.21537789702415466 0.34824320673942566
vn -0.9706400036811829 0.19245022535324097 0.1442941129207611
vn -0.9649773836135864 0.20887784659862518 -0.1587095409631729
vn -0.9791998863220215 0.18514296412467957 -0.08300311118364334
vn -0.8993881940841675 0.2541748881340027 0.3556627333164215
vn -0.986038088798523 0.15743336081504822 0.05425390228629112
vn -0.9796335101127625 0.19905595481395721 -0.026360440999269485
vn -0.9658311009407043 0.21961775422096252 -0.13761641085147858
vn -0.9597864747047424 0.07294464856386185 0.27108874917030334
vn -0.582645833492279 0.30244967341423035 0.7543527483940125
vn 0.05174889415502548 -0.45150473713874817 -0.8907667994499207
vn -0.6616384983062744 -0.38090869784355164 -0.6458661556243896
vn -0.8770145177841187 0.09898719191551208 -0.47015655040740967
vn -0.7867238521575928 0.1797606498003006 -0.5905519723892212
vn -0.7695757150650024 0.0748092457652092 -0.6341583728790283
vn 0.9909303188323975 -0.13220153748989105 -0.024080520495772362
vn 0.9368464946746826 -0.3086160123348236 -0.16454386711120605
vn 0.993253231048584 -0.0795275941491127 -0.08440060168504715
vn 0.6822928786277771 0.42282387614250183 0.5964028239250183
vn 0.1914866715669632 0.6079732179641724 0.7705201506614685
vn 0.6081578731536865 0.46925053000450134 0.6402716636657715
vn 0.9334138631820679 -0.2476116269826889 -0.25966721773147583
vn 0.9505385756492615 -0.2586672306060791 -0.17195264995098114
vn 0.7827864289283752 -0.34048664569854736 -0.5208783745765686
vn 0.9157176613807678 -0.293185293674469 -0.2747790515422821
vn 0.3981199264526367 -0.3548429310321808 -0.8459237217903137
vn 0.42803123593330383 -0.12782156467437744 -0.8946792483329773
vn 0.645366907119751 -0.025065023452043533 -0.7634614109992981
vn -0.16927926242351532 -0.24031327664852142 -0.9558212161064148
vn -0.31064414978027344 -0.19889618456363678 -0.9294840097427368
vn 0.03509903699159622 -0.6299995183944702 -0.775801956653595
vn -0.373096764087677 -0.6647580862045288 -0.6472212672233582
vn -0.2291596382856369 -0.6104569435119629 -0.7581741809844971
vn -0.3000391721725464 -0.45403870940208435 -0.8389428853988647
vn 0.2782747447490692 -0.41322311758995056 -0.8670697212219238
vn 0.1946154683828354 -0.23023173213005066 -0.9534769058227539
vn -0.3998761773109436 -0.6466007232666016 -0.6496203541755676
vn 0.5935759544372559 0.5104329586029053 0.6221943497657776
vn 0.29833099246025085 0.563518762588501 0.7703539729118347
vn 0.21290075778961182 0.5067763328552246 0.8353747129440308
vn -0.8595273494720459 0.35649240016937256 0.3662318289279938
vn -0.7564760446548462 0.13625730574131012 -0.6396702527999878
vn -0.7871899604797363 0.6116907596588135 -0.07852664589881897
vn -0.9200416207313538 0.30305784940719604 -0.2483529895544052
vn -0.7137601971626282 0.695881724357605 0.0793401226401329
vn -0.9276025891304016 0.263612300157547 0.2646917998790741
vn -0.8300319910049438 0.49786612391471863 0.2513488829135895
vn -0.7812551856040955 0.5832663178443909 -0.22235248982906342
vn -0.8961802124977112 0.4436776041984558 0.0033588206861168146
vn -0.8167089819908142 0.5725659728050232 0.07179524749517441
vn -0.7078331708908081 0.35989460349082947 0.6078223586082458
vn -0.015014387667179108 0.7701215744018555 0.6377202868461609
vn -0.4608584940433502 -0.29909881949424744 -0.8355532884597778
vn -0.41938138008117676 0.21379153430461884 -0.8822768330574036
vn -0.4036252498626709 0.1354563981294632 -0.9048414826393127
vn 0.9761842489242554 0.07423750311136246 0.20384588837623596
vn 0.9405819177627563 -0.3118014335632324 -0.1344822198152542
vn 0.615831196308136 0.46603572368621826 0.6352658867835999
vn 0.3047778606414795 0.497158020734787 0.8123695850372314
vn 0.562218427658081 0.793551504611969 0.23278002440929413
vn 0.7399595379829407 0.5800216197967529 0.3406389355659485
vn 0.9206188321113586 -0.27711060643196106 -0.27508318424224854
vn 0.5242298245429993 -0.47804832458496094 -0.7047359347343445
vn 0.1847994327545166 -0.35713785886764526 -0.9155882000923157
vn 0.9627144932746887 0.16597487032413483 -0.2136191725730896
vn 0.7949444651603699 -0.15489526093006134 -0.586575448513031
vn -0.36060672998428345 -0.15150493383407593 -0.9203309416770935
vn 0.4390316605567932 -0.1607086956501007 -0.8839818239212036
vn 0.01763935200870037 -0.017862021923065186 -0.9996848702430725
vn -0.3368666172027588 -0.08663251250982285 -0.9375584721565247
vn -0.29848676919937134 -0.3777846097946167 -0.8764613270759583
vn -0.4109293818473816 -0.22034814953804016 -0.8846376538276672
vn -0.27296197414398193 -0.5697395205497742 -0.775170087814331
vn -0.28721991181373596 -0.5470188856124878 -0.7863047122955322
vn -0.27322301268577576 -0.36361175775527954 -0.8905815482139587
vn -0.37764739990234375 -0.2378791868686676 -0.8948720097541809
vn 0.392860472202301 -0.38975831866264343 -0.8329160809516907
vn 0.3231250047683716 -0.14494071900844574 -0.9351911544799805
vn -0.3765955865383148 -0.2865679860115051 -0.8809395432472229
vn -0.7229803204536438 0.46446168422698975 0.5114437937736511
vn -0.19820263981819153 0.07257720082998276 -0.977470338344574
vn -0.5984010696411133 0.07302834093570709 -0.7978615760803223
vn -0.7893273234367371 0.4316711127758026 -0.4366031587123871
vn -0.3063962161540985 0.9462522268295288 0.10357636958360672
vn -0.26453229784965515 0.9576172828674316 -0.11398190259933472
vn -0.8053765296936035 0.5908949375152588 0.04703013598918915
vn -0.47665494680404663 0.8790814280509949 0.003994329366832972
vn -0.7122294902801514 0.5605499744415283 0.4225078225135803
vn -0.5979709029197693 0.7844928503036499 -0.16432183980941772
vn -0.34542912244796753 0.923125684261322 -0.16887226700782776
vn -0.4574686884880066 0.8892038464546204 0.006241291295737028
vn 0.6046426296234131 0.6700431704521179 0.4306383430957794
vn 0.97654789686203 0.1732841581106186 -0.12777665257453918
vn 0.8738492131233215 0.23593638837337494 -0.4251137375831604
vn 0.6772254109382629 0.40780556201934814 0.6124218702316284
vn 0.7105199694633484 0.6981756687164307 -0.0878179743885994
vn 0.2720966935157776 0.9600133299827576 -0.06586284190416336
vn -0.10494691133499146 0.9420889616012573 -0.3185194730758667
vn 0.2750110924243927 0.8914602398872375 -0.3600939214229584
vn 0.7981404662132263 0.5765164494514465 -0.1749304085969925
vn -0.36814841628074646 -0.32973045110702515 -0.8693356513977051
vn -0.10968304425477982 -0.30721136927604675 -0.9452992677688599
vn 0.37845098972320557 0.8250331878662109 -0.4196368455886841
vn 0.7446120381355286 0.6223120093345642 -0.24141375720500946
vn 0.2627300024032593 0.47880643606185913 -0.837685763835907
vn -0.3543473184108734 -0.04027790203690529 -0.9342460036277771
vn 0.5661967992782593 -0.17259156703948975 -0.8059982657432556
vn 0.6226322054862976 -0.38292673230171204 -0.6824194192886353
vn -0.37079939246177673 -0.0988445058465004 -0.9234379529953003
vn -0.316001296043396 -0.13767878711223602 -0.9387159943580627
vn -0.1829521805047989 -0.1779024749994278 -0.9668915271759033
vn -0.6405342221260071 0.745914876461029 0.182556614279747
vn -0.43824049830436707 0.01425256673246622 -0.8987447619438171
vn -0.7043826580047607 0.6573989391326904 -0.26771557331085205
vn -0.7225020527839661 0.16668801009655 -0.6709737181663513
vn -0.566883385181427 -0.011385396122932434 -0.823719322681427
vn -0.4617651402950287 0.026418721303343773 -0.8866086602210999
vn -0.22090131044387817 0.9740883708000183 -0.04852414131164551
vn -0.2491428703069687 0.9682783484458923 -0.019100304692983627
vn -0.12044931948184967 0.9913023114204407 -0.05302423983812332
vn -0.37875333428382874 0.9156033992767334 -0.13496741652488708
vn -0.4341292679309845 0.8984577059745789 0.06561776250600815
vn -0.24937240779399872 0.9448860883712769 -0.21214056015014648
vn -0.3510768413543701 0.9002537727355957 -0.2574649453163147
vn 0.7876397371292114 0.3418588936328888 -0.5125975012779236
vn 0.26725223660469055 0.7951921224594116 -0.5442845225334167
vn -0.08697671443223953 0.9780805706977844 -0.18919159471988678
vn 0.3812771737575531 0.689087986946106 -0.6162673830986023
vn -0.28528153896331787 -0.5008264183998108 -0.8171826004981995
vn -0.33223891258239746 0.09645817428827286 -0.938249945640564
vn -0.44076862931251526 -0.1858857423067093 -0.8781626224517822
vn -0.22398266196250916 0.609521210193634 -0.7604706883430481
vn -0.050628989934921265 0.858968198299408 -0.5095197558403015
vn -0.3047539293766022 0.30455857515335083 -0.9024240374565125
vn -0.23478662967681885 0.1851450651884079 -0.9542518258094788
vn -0.4865153133869171 -0.037527844309806824 -0.8728656768798828
vn -0.21973520517349243 0.6792371273040771 -0.7002524137496948
vn -0.6485120058059692 -0.13115669786930084 -0.7498200535774231
vn 0.2955581545829773 0.7965865135192871 -0.5273474454879761
f 1//1 2//2 3//3
f 3//3 4//4 1//1
f 2//2 1//1 5//5
f 4//4 6//6 1//1
f 1//1 7//7 5//5
f 8//8 7//7 1//1
f 1//1 6//6 9//9
f 8//8 1//1 10//10
f 9//9 10//10 1//1
f 3//3 2//2 11//11
f 12//12 13//13 2//2
f 2//2 14//14 11//11
f 15//15 14//14 2//2
f 13//13 15//15 2//2
f 2//2 5//5 16//16
f 16//16 17//17 2//2
f 2//2 17//17 12//12
f 18//18 19//19 3//3
f 3//3 20//20 21//21
f 3//3 21//21 18//18
f 3//3 11//11 20//20
f 3//3 19//19 4//4
f 19//19 22//22 4//4
f 23//23 4//4 24//24
f 6//6 4//4 23//23
f 4//4 22//22 24//24
f 25//25 5//5 26//26
f 5//5 7//7 26//26
f 5//5 25//25 16//16
f 6//6 27//27 9//9
f 23//23 27//27 6//6
f 8//8 26//26 7//7
f 26//26 8//8 28//28
f 28//28 8//8 10//10
f 27//27 29//29 9//9
f 9//9 29//29 10//10
f 29//29 28//28 10//10
f 14//14 20//20 11//11
f 13//13 12//12 30//30
f 31//31 30//30 12//12
f 32//32 31//31 12//12
f 12//12 17//17 32//32
f 13//13 33//33 34//34
f 15//15 13//13 34//34
f 30//30 33//33 13//13
f 35//35 20//20 14//14
f 14//14 15//15 36//36
f 35//35 14//14 36//36
f 36//36 15//15 34//34
f 25//25 17//17 16//16
f 25//25 37//37 17//17
f 38//38 39//39 17//17
f 17//17 37//37 38//38
f 17//17 40//40 32//32
f 40//40 17//17 41//41
f 17//17 39//39 41//41
f 42//42 19//19 18//18
f 18//18 43//43 44//44
f 43//43 18//18 21//21
f 44//44 45//45 18//18
f 45//45 42//42 18//18
f 46//46 22//22 19//19
f 42//42 46//46 19//19
f 35//35 21//21 20//20
f 35//35 43//43 21//21
f 24//24 22//22 47//47
f 46//46 47//47 22//22
f 48//48 23//23 24//24
f 27//27 23//23 49//49
f 48//48 49//49 23//23
f 50//50 24//24 51//51
f 50//50 48//48 24//24
f 51//51 24//24 47//47
f 25//25 26//26 28//28
f 25//25 28//28 52//52
f 53//53 25//25 52//52
f 53//53 54//54 25//25
f 37//37 25//25 54//54
f 49//49 55//55 27//27
f 29//29 27//27 55//55
f 28//28 29//29 52//52
f 52//52 29//29 55//55
f 56//56 33//33 30//30
f 57//57 30//30 31//31
f 30//30 57//57 56//56
f 58//58 31//31 59//59
f 60//60 31//31 58//58
f 31//31 60//60 57//57
f 31//31 32//32 59//59
f 61//61 59//59 32//32
f 40//40 61//61 32//32
f 34//34 33//33 62//62
f 33//33 56//56 63//63
f 33//33 63//63 62//62
f 36//36 34//34 64//64
f 34//34 62//62 64//64
f 65//65 43//43 35//35
f 66//66 35//35 64//64
f 35//35 66//66 65//65
f 64//64 35//35 36//36
f 37//37 67//67 68//68
f 37//37 54//54 67//67
f 38//38 37//37 68//68
f 38//38 69//69 39//39
f 68//68 69//69 38//38
f 39//39 70//70 41//41
f 39//39 69//69 70//70
f 71//71 61//61 40//40
f 72//72 40//40 73//73
f 72//72 71//71 40//40
f 73//73 40//40 41//41
f 70//70 73//73 41//41
f 74//74 46//46 42//42
f 75//75 74//74 42//42
f 45//45 75//75 42//42
f 44//44 43//43 76//76
f 43//43 65//65 76//76
f 77//77 44//44 66//66
f 66//66 44//44 76//76
f 78//78 44//44 77//77
f 44//44 78//78 45//45
f 79//79 75//75 45//45
f 78//78 79//79 45//45
f 46//46 74//74 47//47
f 51//51 47//47 80//80
f 74//74 80//80 47//47
f 50//50 81//81 48//48
f 49//49 48//48 82//82
f 83//83 82//82 48//48
f 81//81 83//83 48//48
f 52//52 49//49 53//53
f 52//52 55//55 49//49
f 82//82 53//53 49//49
f 80//80 50//50 51//51
f 84//84 50//50 80//80
f 84//84 81//81 50//50
f 83//83 54//54 53//53
f 83//83 53//53 82//82
f 85//85 54//54 83//83
f 86//86 54//54 85//85
f 54//54 86//86 67//67
f 87//87 56//56 88//88
f 56//56 87//87 89//89
f 90//90 63//63 56//56
f 89//89 90//90 56//56
f 57//57 88//88 56//56
f 60//60 91//91 57//57
f 57//57 92//92 88//88
f 57//57 91//91 92//92
f 59//59 93//93 58//58
f 94//94 58//58 93//93
f 58//58 94//94 95//95
f 60//60 58//58 95//95
f 59//59 96//96 93//93
f 97//97 59//59 61//61
f 97//97 96//96 59//59
f 91//91 60//60 95//95
f 98//98 97//97 61//61
f 71//71 98//98 61//61
f 66//66 62//62 99//99
f 62//62 66//66 64//64
f 99//99 62//62 63//63
f 100//100 101//101 63//63
f 102//102 100//100 63//63
f 99//99 63//63 101//101
f 63//63 90//90 103//103
f 63//63 103//103 102//102
f 66//66 76//76 65//65
f 66//66 99//99 101//101
f 101//101 77//77 66//66
f 86//86 68//68 67//67
f 104//104 69//69 68//68
f 86//86 104//104 68//68
f 69//69 105//105 106//106
f 104//104 105//105 69//69
f 106//106 70//70 69//69
f 73//73 70//70 107//107
f 107//107 70//70 106//106
f 108//108 71//71 72//72
f 89//89 109//109 71//71
f 71//71 108//108 89//89
f 71//71 109//109 98//98
f 73//73 110//110 72//72
f 72//72 110//110 111//111
f 108//108 72//72 111//111
f 107//107 112//112 73//73
f 73//73 112//112 113//113
f 73//73 113//113 110//110
f 114//114 74//74 75//75
f 114//114 80//80 74//74
f 115//115 75//75 79//79
f 115//115 114//114 75//75
f 101//101 78//78 77//77
f 116//116 78//78 101//101
f 116//116 79//79 78//78
f 117//117 115//115 79//79
f 116//116 117//117 79//79
f 80//80 118//118 84//84
f 114//114 118//118 80//80
f 118//118 81//81 84//84
f 85//85 83//83 81//81
f 85//85 81//81 118//118
f 119//119 86//86 85//85
f 118//118 119//119 85//85
f 86//86 119//119 120//120
f 86//86 121//121 104//104
f 121//121 86//86 120//120
f 88//88 92//92 87//87
f 109//109 89//89 87//87
f 109//109 87//87 122//122
f 92//92 122//122 87//87
f 90//90 89//89 108//108
f 123//123 90//90 124//124
f 123//123 103//103 90//90
f 124//124 90//90 108//108
f 125//125 91//91 95//95
f 125//125 126//126 91//91
f 127//127 92//92 91//91
f 126//126 127//127 91//91
f 92//92 127//127 128//128
f 129//129 92//92 128//128
f 92//92 130//130 122//122
f 92//92 129//129 130//130
f 131//131 94//94 93//93
f 131//131 93//93 96//96
f 94//94 132//132 125//125
f 94//94 131//131 133//133
f 95//95 94//94 125//125
f 132//132 94//94 133//133
f 96//96 134//134 131//131
f 96//96 135//135 134//134
f 96//96 97//97 136//136
f 135//135 96//96 136//136
f 137//137 136//136 97//97
f 97//97 98//98 137//137
f 109//109 137//137 98//98
f 101//101 100//100 117//117
f 117//117 100//100 138//138
f 102//102 138//138 100//100
f 101//101 117//117 116//116
f 102//102 114//114 115//115
f 102//102 139//139 114//114
f 117//117 102//102 115//115
f 138//138 102//102 117//117
f 140//140 139//139 102//102
f 141//141 140//140 102//102
f 103//103 142//142 102//102
f 102//102 142//142 141//141
f 103//103 123//123 143//143
f 142//142 103//103 143//143
f 105//105 104//104 121//121
f 106//106 105//105 144//144
f 144//144 105//105 121//121
f 144//144 107//107 106//106
f 145//145 107//107 146//146
f 147//147 107//107 145//145
f 147//147 112//112 107//107
f 146//146 107//107 144//144
f 108//108 111//111 124//124
f 122//122 148//148 109//109
f 109//109 148//148 137//137
f 111//111 110//110 113//113
f 149//149 111//111 113//113
f 111//111 149//149 124//124
f 150//150 151//151 112//112
f 112//112 147//147 150//150
f 151//151 113//113 112//112
f 152//152 113//113 151//151
f 152//152 149//149 113//113
f 114//114 139//139 153//153
f 114//114 153//153 118//118
f 154//154 119//119 118//118
f 118//118 153//153 154//154
f 119//119 155//155 120//120
f 155//155 119//119 154//154
f 120//120 156//156 121//121
f 156//156 120//120 155//155
f 144//144 121//121 156//156
f 148//148 122//122 130//130
f 124//124 157//157 123//123
f 123//123 157//157 143//143
f 157//157 124//124 158//158
f 158//158 124//124 149//149
f 126//126 125//125 132//132
f 159//159 160//160 126//126
f 161//161 159//159 126//126
f 132//132 161//161 126//126
f 126//126 160//160 127//127
f 160//160 128//128 127//127
f 128//128 160//160 162//162
f 129//129 128//128 163//163
f 162//162 163//163 128//128
f 164//164 129//129 165//165
f 129//129 164//164 130//130
f 165//165 129//129 163//163
f 166//166 130//130 164//164
f 166//166 148//148 130//130
f 131//131 134//134 167//167
f 133//133 131//131 167//167
f 168//168 169//169 132//132
f 161//161 132//132 170//170
f 132//132 133//133 168//168
f 132//132 169//169 170//170
f 133//133 167//167 168//168
f 134//134 171//171 172//172
f 171//171 134//134 135//135
f 173//173 134//134 172//172
f 173//173 167//167 134//134
f 171//171 135//135 174//174
f 135//135 136//136 175//175
f 176//176 174//174 135//135
f 175//175 176//176 135//135
f 175//175 136//136 137//137
f 148//148 175//175 137//137
f 139//139 140//140 153//153
f 140//140 154//154 153//153
f 155//155 154//154 140//140
f 141//141 177//177 140//140
f 140//140 178//178 155//155
f 177//177 178//178 140//140
f 141//141 179//179 177//177
f 141//141 142//142 180//180
f 179//179 141//141 180//180
f 180//180 142//142 143//143
f 181//181 180//180 143//143
f 182//182 181//181 143//143
f 182//182 143//143 157//157
f 144//144 156//156 146//146
f 146//146 178//178 145//145
f 178//178 147//147 145//145
f 156//156 155//155 146//146
f 146//146 155//155 178//178
f 178//178 150//150 147//147
f 175//175 148//148 183//183
f 183//183 148//148 166//166
f 152//152 158//158 149//149
f 184//184 151//151 150//150
f 150//150 179//179 181//181
f 177//177 150//150 178//178
f 177//177 179//179 150//150
f 184//184 150//150 181//181
f 158//158 152//152 151//151
f 185//185 158//158 151//151
f 184//184 185//185 151//151
f 157//157 158//158 185//185
f 185//185 182//182 157//157
f 160//160 159//159 162//162
f 159//159 161//161 186//186
f 159//159 187//187 188//188
f 159//159 189//189 162//162
f 186//186 187//187 159//159
f 189//189 159//159 190//190
f 188//188 190//190 159//159
f 186//186 161//161 170//170
f 162//162 191//191 163//163
f 162//162 189//189 191//191
f 165//165 163//163 192//192
f 192//192 163//163 191//191
f 193//193 164//164 165//165
f 164//164 193//193 166//166
f 165//165 194//194 193//193
f 165//165 192//192 194//194
f 166//166 195//195 183//183
f 195//195 166//166 193//193
f 167//167 173//173 168//168
f 169//169 168//168 173//173
f 173//173 196//196 169//169
f 197//197 169//169 198//198
f 169//169 199//199 170//170
f 198//198 169//169 200//200
f 169//169 197//197 201//201
f 169//169 201//201 199//199
f 196//196 200//200 169//169
f 186//186 170//170 199//199
f 172//172 171//171 202//202
f 203//203 171//171 204//204
f 205//205 204//204 171//171
f 174//174 205//205 171//171
f 206//206 202//202 171//171
f 203//203 206//206 171//171
f 172//172 196//196 173//173
f 207//207 172//172 208//208
f 172//172 202//202 208//208
f 196//196 172//172 207//207
f 174//174 176//176 209//209
f 174//174 210//210 211//211
f 205//205 174//174 211//211
f 210//210 174//174 209//209
f 183//183 176//176 175//175
f 209//209 176//176 212//212
f 195//195 212//212 176//176
f 183//183 195//195 176//176
f 181//181 179//179 180//180
f 182//182 184//184 181//181
f 182//182 185//185 184//184
f 199//199 187//187 186//186
f 188//188 187//187 201//201
f 187//187 199//199 201//201
f 197//197 213//213 188//188
f 188//188 201//201 197//197
f 188//188 213//213 190//190
f 191//191 189//189 214//214
f 214//214 189//189 190//190
f 214//214 190//190 215//215
f 213//213 215//215 190//190
f 191//191 216//216 217//217
f 192//192 191//191 218//218
f 218//218 191//191 217//217
f 216//216 191//191 219//219
f 220//220 219//219 191//191
f 214//214 220//220 191//191
f 194//194 192//192 218//218
f 221//221 195//195 193//193
f 194//194 221//221 193//193
f 222//222 223//223 194//194
f 194//194 223//223 221//221
f 194//194 218//218 224//224
f 222//222 194//194 224//224
f 212//212 195//195 221//221
f 225//225 196//196 207//207
f 225//225 200//200 196//196
f 197//197 198//198 226//226
f 226//226 213//213 197//197
f 198//198 200//200 226//226
f 227//227 228//228 200//200
f 228//228 226//226 200//200
f 225//225 227//227 200//200
f 229//229 208//208 202//202
f 229//229 202//202 230//230
f 202//202 231//231 230//230
f 202//202 206//206 231//231
f 204//204 232//232 203//203
f 203//203 233//233 206//206
f 203//203 234//234 233//233
f 203//203 232//232 234//234
f 204//204 205//205 235//235
f 232//232 204//204 236//236
f 236//236 204//204 237//237
f 238//238 237//237 204//204
f 235//235 238//238 204//204
f 235//235 205//205 211//211
f 206//206 233//233 231//231
f 208//208 229//229 207//207
f 225//225 207//207 229//229
f 239//239 209//209 212//212
f 239//239 210//210 209//209
f 211//211 210//210 240//240
f 241//241 210//210 239//239
f 210//210 241//241 240//240
f 235//235 211//211 242//242
f 211//211 240//240 242//242
f 212//212 223//223 239//239
f 223//223 212//212 221//221
f 243//243 213//213 244//244
f 226//226 244//244 213//213
f 215//215 213//213 243//243
f 215//215 220//220 214//214
f 220//220 215//215 245//245
f 245//245 215//215 243//243
f 217//217 216//216 246//246
f 219//219 247//247 216//216
f 216//216 248//248 249//249
f 216//216 249//249 246//246
f 216//216 247//247 250//250
f 250//250 251//251 216//216
f 248//248 216//216 251//251
f 218//218 217//217 246//246
f 218//218 249//249 224//224
f 246//246 249//249 218//218
f 252//252 219//219 253//253
f 252//252 247//247 219//219
f 219//219 254//254 253//253
f 219//219 220//220 254//254
f 220//220 245//245 255//255
f 220//220 255//255 254//254
f 223//223 222//222 256//256
f 257//257 256//256 222//222
f 257//257 222//222 258//258
f 222//222 224//224 258//258
f 239//239 223//223 256//256
f 258//258 224//224 259//259
f 259//259 224//224 260//260
f 224//224 249//249 260//260
f 227//227 225//225 261//261
f 261//261 225//225 262//262
f 225//225 263//263 262//262
f 263//263 225//225 229//229
f 264//264 226//226 228//228
f 264//264 244//244 226//226
f 228//228 227//227 265//265
f 266//266 265//265 227//227
f 267//267 266//266 227//227
f 261//261 267//267 227//227
f 264//264 228//228 265//265
f 230//230 263//263 229//229
f 268//268 263//263 230//230
f 230//230 269//269 270//270
f 230//230 270//270 268//268
f 230//230 271//271 269//269
f 231//231 271//271 230//230
f 233//233 271//271 231//231
f 236//236 272//272 232//232
f 234//234 232//232 233//233
f 232//232 233//233 234//234
f 272//272 273//273 232//232
f 234//234 232//232 272//272
f 272//272 273//273 232//232
f 234//234 271//271 233//233
f 234//234 273//273 271//271
f 272//272 273//273 234//234
f 242//242 238//238 235//235
f 274//274 275//275 236//236
f 236//236 275//275 272//272
f 236//236 237//237 274//274
f 237//237 276//276 274//274
f 237//237 238//238 276//276
f 238//238 242//242 276//276
f 239//239 256//256 241//241
f 242//242 240//240 277//277
f 240//240 241//241 278//278
f 277//277 240//240 278//278
f 279//279 241//241 280//280
f 279//279 278//278 241//241
f 241//241 281//281 280//280
f 241//241 256//256 281//281
f 282//282 242//242 277//277
f 282//282 276//276 242//242
f 283//283 243//243 244//244
f 283//283 284//284 243//243
f 284//284 245//245 243//243
f 283//283 244//244 264//264
f 255//255 245//245 285//285
f 285//285 245//245 284//284
f 286//286 247//247 252//252
f 247//247 286//286 250//250
f 249//249 248//248 287//287
f 287//287 248//248 288//288
f 289//289 248//248 251//251
f 248//248 289//289 290//290
f 288//288 248//248 290//290
f 249//249 287//287 260//260
f 286//286 291//291 250//250
f 250//250 291//291 251//251
f 289//289 251//251 291//291
f 252//252 253//253 292//292
f 252//252 292//292 286//286
f 253//253 293//293 294//294
f 253//253 295//295 293//293
f 253//253 294//294 292//292
f 295//295 253//253 254//254
f 296//296 254//254 255//255
f 296//296 295//295 254//254
f 296//296 255//255 297//297
f 297//297 255//255 285//285
f 298//298 256//256 257//257
f 256//256 298//298 281//281
f 257//257 258//258 298//298
f 299//299 258//258 259//259
f 281//281 298//298 258//258
f 299//299 281//281 258//258
f 300//300 259//259 260//260
f 300//300 299//299 259//259
f 287//287 300//300 260//260
f 262//262 267//267 261//261
f 266//266 262//262 301//301
f 266//266 267//267 262//262
f 262//262 302//302 301//301
f 302//302 262//262 263//263
f 302//302 263//263 268//268
f 264//264 265//265 303//303
f 303//303 283//283 264//264
f 265//265 266//266 304//304
f 303//303 265//265 304//304
f 266//266 305//305 304//304
f 305//305 266//266 306//306
f 266//266 301//301 306//306
f 268//268 270//270 307//307
f 307//307 302//302 268//268
f 269//269 308//308 270//270
f 309//309 308//308 269//269
f 271//271 309//309 269//269
f 307//307 270//270 310//310
f 270//270 308//308 311//311
f 310//310 270//270 311//311
f 273//273 312//312 271//271
f 309//309 271//271 312//312
f 275//275 313//313 272//272
f 313//313 273//273 272//272
f 273//273 314//314 312//312
f 313//313 314//314 273//273
f 274//274 315//315 275//275
f 274//274 316//316 315//315
f 316//316 274//274 276//276
f 275//275 317//317 313//313
f 275//275 315//315 317//317
f 282//282 316//316 276//276
f 277//277 278//278 282//282
f 278//278 318//318 282//282
f 319//319 278//278 279//279
f 278//278 319//319 318//318
f 280//280 320//320 279//279
f 279//279 321//321 319//319
f 279//279 320//320 321//321
f 320//320 280//280 322//322
f 322//322 280//280 281//281
f 323//323 322//322 281//281
f 323//323 281//281 299//299
f 318//318 324//324 282//282
f 316//316 282//282 324//324
f 284//284 283//283 303//303
f 284//284 303//303 285//285
f 285//285 303//303 297//297
f 286//286 292//292 325//325
f 291//291 286//286 325//325
f 326//326 287//287 327//327
f 287//287 326//326 300//300
f 327//327 287//287 328//328
f 288//288 328//328 287//287
f 329//329 330//330 288//288
f 288//288 290//290 329//329
f 288//288 330//330 328//328
f 291//291 331//331 289//289
f 290//290 289//289 331//331
f 329//329 290//290 332//332
f 332//332 290//290 331//331
f 331//331 291//291 325//325
f 292//292 294//294 333//333
f 325//325 292//292 333//333
f 294//294 293//293 334//334
f 334//334 293//293 335//335
f 336//336 335//335 293//293
f 295//295 336//336 293//293
f 333//333 294//294 334//334
f 295//295 296//296 297//297
f 295//295 297//297 336//336
f 337//337 297//297 303//303
f 297//297 337//337 335//335
f 335//335 336//336 297//297
f 326//326 299//299 300//300
f 299//299 326//326 323//323
f 301//301 338//338 306//306
f 338//338 301//301 302//302
f 302//302 339//339 338//338
f 339//339 302//302 307//307
f 340//340 337//337 303//303
f 303//303 304//304 340//340
f 304//304 305//305 340//340
f 305//305 306//306 341//341
f 305//305 342//342 340//340
f 343//343 342//342 305//305
f 344//344 305//305 341//341
f 344//344 343//343 305//305
f 306//306 345//345 341//341
f 306//306 338//338 345//345
f 339//339 307//307 310//310
f 308//308 309//309 346//346
f 308//308 346//346 347//347
f 311//311 308//308 347//347
f 346//346 309//309 312//312
f 339//339 310//310 348//348
f 311//311 349//349 310//310
f 310//310 349//349 348//348
f 350//350 311//311 347//347
f 350//350 349//349 311//311
f 346//346 312//312 314//314
f 351//351 313//313 317//317
f 351//351 352//352 313//313
f 352//352 353//353 313//313
f 313//313 353//353 314//314
f 314//314 353//353 346//346
f 315//315 324//324 354//354
f 315//315 316//316 324//324
f 315//315 354//354 317//317
f 355//355 317//317 354//354
f 355//355 351//351 317//317
f 319//319 321//321 318//318
f 318//318 321//321 324//324
f 320//320 356//356 321//321
f 356//356 320//320 322//322
f 321//321 354//354 324//324
f 356//356 355//355 321//321
f 355//355 354//354 321//321
f 356//356 322//322 323//323
f 356//356 323//323 326//326
f 325//325 333//333 357//357
f 331//331 325//325 357//357
f 358//358 326//326 327//327
f 358//358 356//356 326//326
f 359//359 360//360 327//327
f 360//360 361//361 327//327
f 327//327 328//328 359//359
f 362//362 327//327 361//361
f 362//362 358//358 327//327
f 330//330 359//359 328//328
f 329//329 363//363 330//330
f 329//329 332//332 364//364
f 364//364 363//363 329//329
f 363//363 365//365 330//330
f 330//330 365//365 359//359
f 332//332 331//331 357//357
f 366//366 332//332 357//357
f 364//364 332//332 366//366
f 357//357 333//333 367//367
f 367//367 333//333 334//334
f 368//368 367//367 334//334
f 368//368 334//334 335//335
f 342//342 335//335 337//337
f 342//342 369//369 335//335
f 335//335 369//369 368//368
f 340//340 342//342 337//337
f 338//338 370//370 345//345
f 338//338 339//339 370//370
f 371//371 370//370 339//339
f 348//348 371//371 339//339
f 344//344 341//341 345//345
f 343//343 369//369 342//342
f 343//343 364//364 368//368
f 364//364 343//343 344//344
f 343//343 368//368 369//369
f 372//372 344//344 373//373
f 373//373 344//344 345//345
f 364//364 344//344 372//372
f 373//373 345//345 370//370
f 346//346 353//353 374//374
f 347//347 346//346 374//374
f 375//375 347//347 376//376
f 375//375 350//350 347//347
f 347//347 374//374 376//376
f 348//348 349//349 350//350
f 377//377 348//348 350//350
f 378//378 371//371 348//348
f 378//378 348//348 377//377
f 377//377 350//350 375//375
f 374//374 352//352 351//351
f 376//376 351//351 379//379
f 351//351 376//376 374//374
f 379//379 351//351 380//380
f 381//381 380//380 351//351
f 381//381 351//351 355//355
f 353//353 352//352 374//374
f 358//358 355//355 356//356
f 381//381 355//355 358//358
f 367//367 366//366 357//357
f 362//362 381//381 358//358
f 382//382 360//360 359//359
f 365//365 382//382 359//359
f 360//360 382//382 361//361
f 361//361 383//383 362//362
f 361//361 381//381 383//383
f 381//381 361//361 380//380
f 380//380 361//361 382//382
f 362//362 383//383 381//381
f 363//363 372//372 365//365
f 364//364 372//372 363//363
f 364//364 366//366 368//368
f 378//378 365//365 372//372
f 365//365 378//378 382//382
f 367//367 368//368 366//366
f 384//384 373//373 370//370
f 371//371 384//384 370//370
f 371//371 378//378 372//372
f 371//371 372//372 384//384
f 372//372 373//373 384//384
f 377//377 375//375 379//379
f 375//375 376//376 379//379
f 378//378 377//377 379//379
f 379//379 382//382 378//378
f 379//379 380//380 382//382
