# Generated by Visualization Toolkit
v 0.008875000290572643 -0.09248699992895126 -0.014031000435352325
v 0.005762999877333641 -0.0878399983048439 -0.014010000042617321
v 0.006417999975383282 -0.09149699658155441 -0.014090999960899353
v 0.008727000094950199 -0.0978040024638176 -0.014682999812066555
v 0.00804699957370758 -0.08944500237703323 -0.014305000193417072
v 0.009353999979794025 -0.09016700088977814 -0.014271000400185585
v 0.010657000355422497 -0.09310699999332428 -0.015050999820232391
v 0.004292000085115433 -0.08803299814462662 -0.012202000245451927
v -0.0006220000213943422 -0.07894100248813629 -0.011610000394284725
v 0.0036959999706596136 -0.0806720033288002 -0.015604999847710133
v 0.006506999954581261 -0.08632300049066544 -0.01707400009036064
v 0.006357000209391117 -0.09525399655103683 -0.014542999677360058
v 0.005324000027030706 -0.09544000029563904 -0.013732999563217163
v 0.0029100000392645597 -0.09452199935913086 -0.011014999821782112
v 0.002248999895527959 -0.08939599990844727 -0.010993000119924545
v 0.008426000364124775 -0.09904400259256363 -0.015062999911606312
v 0.010230000130832195 -0.09853599965572357 -0.01627100072801113
v 0.007991000078618526 -0.0886629968881607 -0.016937000676989555
v 0.00940100010484457 -0.08942300081253052 -0.015103000216186047
v 0.010135999880731106 -0.0905660018324852 -0.01603800058364868
v 0.011215000413358212 -0.09621399641036987 -0.01750900037586689
v -0.0010930000571534038 -0.08624999970197678 -0.0114120002835989
v 0.0015910000074654818 -0.07186000049114227 -0.01450200006365776
v -0.0033130000811070204 -0.06615000218153 -0.011957000009715557
v -0.00508299982175231 -0.07021799683570862 -0.012707999907433987
v 0.005936000030487776 -0.08456999808549881 -0.01862199977040291
v 0.003924000076949596 -0.07792700082063675 -0.01748800091445446
v 0.005572999827563763 -0.09717600047588348 -0.01537999976426363
v 0.004416000097990036 -0.09819500148296356 -0.012616000138223171
v 0.002615999896079302 -0.09692800045013428 -0.011241000145673752
v 0.0033030000049620867 -0.09853199869394302 -0.011824999935925007
v 0.009050000458955765 -0.10074400156736374 -0.016950000077486038
v 0.007468000054359436 -0.10019700229167938 -0.01594500057399273
v 0.008953000418841839 -0.10113900154829025 -0.01933000050485134
v 0.011086000129580498 -0.09438200294971466 -0.02219099923968315
v 0.008016999810934067 -0.09023399651050568 -0.022637000307440758
v 0.01131999958306551 -0.09768600016832352 -0.020340999588370323
v -0.0027050001081079245 -0.08947300165891647 -0.019468000158667564
v 0.0004349999944679439 -0.0958390012383461 -0.012009000405669212
v -0.000291000003926456 -0.09483599662780762 -0.018271999433636665
v -0.001221999991685152 -0.09330099821090698 -0.018451999872922897
v -0.0016560000367462635 -0.06251899898052216 -0.012373000383377075
v 0.00038899999344721437 -0.06239499896764755 -0.01362599991261959
v -0.007048000115901232 -0.05141200125217438 -0.012485000304877758
v -0.00431999983265996 -0.07625199854373932 -0.01902100071310997
v -0.006767000071704388 -0.057266999036073685 -0.017438000068068504
v -0.008201000280678272 -0.050700001418590546 -0.014921000227332115
v 0.006337999831885099 -0.08684899657964706 -0.023941999301314354
v 0.0033770001027733088 -0.08008100092411041 -0.020748000591993332
v 0.004908000119030476 -0.08399800211191177 -0.02230899967253208
v -0.0006270000012591481 -0.06889300048351288 -0.01929200068116188
v 0.0008510000188834965 -0.06155800074338913 -0.01589599996805191
v -0.0003549999964889139 -0.06534499675035477 -0.01844099909067154
v 0.003882999997586012 -0.09909500181674957 -0.012094000354409218
v 0.005594999995082617 -0.10063999891281128 -0.01515199989080429
v 0.0007270000060088933 -0.09743800014257431 -0.012488000094890594
v 0.0009720000089146197 -0.09844599664211273 -0.013398000039160252
v 0.00773600023239851 -0.10158900171518326 -0.0178810004144907
v 0.008191999979317188 -0.10075099766254425 -0.023073000833392143
v 0.008636999875307083 -0.09144999831914902 -0.02527100034058094
v 0.00951400026679039 -0.095319002866745 -0.02621299959719181
v 0.007918000221252441 -0.08781199902296066 -0.02629699930548668
v 0.008798999711871147 -0.09060999751091003 -0.02675200067460537
v 0.009006000123918056 -0.09957999736070633 -0.023722000420093536
v -0.0023300000466406345 -0.08717100322246552 -0.022307999432086945
v -0.003191000083461404 -0.09093400090932846 -0.02169400081038475
v -0.001567999948747456 -0.09352699667215347 -0.02026199921965599
v 0.00037799999699927866 -0.09725400060415268 -0.012994999997317791
v 0.0005590000073425472 -0.09720499813556671 -0.020438000559806824
v -0.00015799999528098851 -0.09489399939775467 -0.020222999155521393
v 0.00033400001120753586 -0.09850099682807922 -0.016685999929904938
v -0.0003530000103637576 -0.05034000054001808 -0.009465999901294708
v -0.00747800013050437 -0.04599300026893616 -0.01123099960386753
v 0.0007600000244565308 -0.04602200165390968 -0.008479000069200993
v -0.0030670000705868006 -0.07243599742650986 -0.02033800072968006
v 0.00003199999991920777 -0.08523499965667725 -0.0234179999679327
v -0.00850799959152937 -0.04110400006175041 -0.018425000831484795
v -0.004104999825358391 -0.050126999616622925 -0.019058000296354294
v -0.0036849998869001865 -0.06596600264310837 -0.019639000296592712
v -0.005016000010073185 -0.04463199898600578 -0.01944199949502945
v -0.009345999918878078 -0.04068100079894066 -0.01732500083744526
v -0.009862000122666359 -0.04024599865078926 -0.013492000289261341
v -0.008387000299990177 -0.04221399873495102 -0.010658999904990196
v 0.005944000091403723 -0.08656500279903412 -0.02480500005185604
v 0.00686000008136034 -0.08709300309419632 -0.025492999702692032
v 0.0012890000361949205 -0.08102100342512131 -0.02266399934887886
v 0.003355999942868948 -0.08737199753522873 -0.024550000205636024
v -0.000004999999873689376 -0.05365300178527832 -0.016922999173402786
v 0.0007960000075399876 -0.04983599856495857 -0.013802999630570412
v -0.00006199999916134402 -0.059689000248909 -0.017323000356554985
v -0.00266400002874434 -0.05629400163888931 -0.018769999966025352
v 0.002065999899059534 -0.09965600073337555 -0.01740100048482418
v 0.005338999908417463 -0.10196200013160706 -0.017938999459147453
v 0.0007939999923110008 -0.09891200065612793 -0.015572000294923782
v 0.006157000083476305 -0.1014930009841919 -0.021470999345183372
v 0.007872000336647034 -0.09963499754667282 -0.024522000923752785
v 0.009069999679923058 -0.09201200306415558 -0.027062999084591866
v 0.007880999706685543 -0.09670999646186829 -0.02676299959421158
v 0.008275999687612057 -0.09528400003910065 -0.027434999123215675
v 0.008829000405967236 -0.0923290029168129 -0.02751999907195568
v 0.008201999589800835 -0.08983500301837921 -0.027782000601291656
v 0.007426000200212002 -0.08795499801635742 -0.026819000020623207
v -0.002643000101670623 -0.0910239964723587 -0.02387399971485138
v -0.0018090000376105309 -0.08944100141525269 -0.024512000381946564
v -0.002303000073879957 -0.09231399744749069 -0.022822000086307526
v 0.0007379999733529985 -0.09288699924945831 -0.02349199913442135
v 0.0003459999861661345 -0.09489399939775467 -0.021922999992966652
v 0.0018029999919235706 -0.09828700125217438 -0.022247999906539917
v 0.001988000003620982 -0.09577099978923798 -0.022763000801205635
v 0.0019509999547153711 -0.045131001621484756 -0.011474999599158764
v -0.006074000149965286 -0.041443999856710434 -0.008314999751746655
v 0.00133200001437217 -0.04178199917078018 -0.006231999956071377
v -0.009283999912440777 -0.038401998579502106 -0.019842000678181648
v -0.00559999980032444 -0.04201800003647804 -0.020145999267697334
v -0.0013330000219866633 -0.05010800063610077 -0.018404999747872353
v -0.002002999885007739 -0.0440870001912117 -0.01918400079011917
v -0.01104000024497509 -0.03692900016903877 -0.015660999342799187
v -0.011130000464618206 -0.03753599897027016 -0.013635000213980675
v -0.009251000359654427 -0.03989500179886818 -0.009549999609589577
v -0.011074000038206577 -0.03662300109863281 -0.010913999751210213
v -0.00786999985575676 -0.04085699841380119 -0.008971000090241432
v 0.005293000023812056 -0.08901900053024292 -0.025861000642180443
v 0.00725100003182888 -0.0883840024471283 -0.027573000639677048
v -0.0011190000222995877 -0.0915130004286766 -0.02447899989783764
v 0.004162999801337719 -0.09189700335264206 -0.025185000151395798
v 0.002131999935954809 -0.09143300354480743 -0.02435700036585331
v 0.0006060000159777701 -0.0442809984087944 -0.017240000888705254
v 0.0033019999973475933 -0.10075200349092484 -0.019411999732255936
v 0.0031369999051094055 -0.09822700172662735 -0.02398099936544895
v 0.005576000083237886 -0.09523499757051468 -0.026820000261068344
v 0.008333000354468822 -0.09250599890947342 -0.027888000011444092
v 0.0058929999358952045 -0.09271600097417831 -0.027674999088048935
v 0.005979999899864197 -0.0906819999217987 -0.027171000838279724
v 0.0020989999175071716 -0.09411600232124329 -0.023459000512957573
v 0.004612000193446875 -0.09284999966621399 -0.025404000654816628
v 0.003898999886587262 -0.03873800113797188 -0.013465999625623226
v 0.0034390001092106104 -0.03821700066328049 -0.006564000155776739
v 0.004271000158041716 -0.038419000804424286 -0.009882999584078789
v -0.0006050000083632767 -0.03855299949645996 -0.004912999924272299
v -0.0070779998786747456 -0.040894001722335815 -0.008119000121951103
v 0.0033179998863488436 -0.03739599883556366 -0.005495999939739704
v -0.006147000007331371 -0.03555800020694733 -0.02309500053524971
v -0.004098000004887581 -0.03666200116276741 -0.022561000660061836
v -0.001984999980777502 -0.0395440012216568 -0.01978899911046028
v -0.008762000128626823 -0.030024999752640724 -0.018014000728726387
v -0.008004999719560146 -0.032010000199079514 -0.020326999947428703
v -0.01107999961823225 -0.034641001373529434 -0.014457999728620052
v -0.01133199967443943 -0.03600599989295006 -0.013040999881923199
v -0.010803000070154667 -0.03495499864220619 -0.007701999973505735
v -0.010724999941885471 -0.03314200043678284 -0.008492999710142612
v -0.010468999855220318 -0.033045001327991486 -0.010821999981999397
v 0.0019680000841617584 -0.03957900032401085 -0.01685499958693981
v -0.0008060000254772604 -0.039758000522851944 -0.018852999433875084
v 0.002492999890819192 -0.03766300156712532 -0.015301000326871872
v 0.002369999885559082 -0.03848600015044212 -0.01620499975979328
v 0.0041240002028644085 -0.03783600032329559 -0.01232299953699112
v 0.0036150000523775816 -0.03700999915599823 -0.006419000215828419
v 0.0036410000175237656 -0.03655099868774414 -0.007294000126421452
v 0.003628999926149845 -0.03572800010442734 -0.00901500042527914
v 0.0036100000143051147 -0.03578300029039383 -0.010734000243246555
v 0.004534999839961529 -0.03412900120019913 -0.004674999974668026
v 0.0021329999435693026 -0.032930001616477966 -0.003358999965712428
v -0.009291999973356724 -0.03394100069999695 -0.006087000016123056
v -0.006291999947279692 -0.03286600112915039 -0.021900000050663948
v -0.0055149998515844345 -0.034519001841545105 -0.02301100082695484
v -0.004430000204592943 -0.0331760011613369 -0.022241000086069107
v -0.0033360000234097242 -0.03461100161075592 -0.02127699926495552
v -0.0011060000397264957 -0.03745099902153015 -0.01827399991452694
v -0.007751999888569117 -0.030528999865055084 -0.019464999437332153
v -0.0085249999538064 -0.02969999983906746 -0.01853499934077263
v -0.009242000058293343 -0.03066200017929077 -0.01661599986255169
v -0.008334999904036522 -0.029298000037670135 -0.017312999814748764
v -0.006417000200599432 -0.031293001025915146 -0.020771000534296036
v -0.010087000206112862 -0.032287999987602234 -0.012879000045359135
v -0.009898999705910683 -0.033160001039505005 -0.006564999930560589
v -0.009116999804973602 -0.03177899867296219 -0.007340999785810709
v -0.009123999625444412 -0.031870000064373016 -0.010215999558568
v -0.008837999776005745 -0.03130200132727623 -0.011758999899029732
v 0.0013289999915286899 -0.038314998149871826 -0.01727299951016903
v 0.0000940000027185306 -0.03683200106024742 -0.018008999526500702
v 0.0017140000127255917 -0.03585600107908249 -0.013047000393271446
v 0.000371000001905486 -0.036010999232530594 -0.013942999765276909
v 0.00027200000477023423 -0.035881999880075455 -0.015855999663472176
v 0.0031220000237226486 -0.03552199900150299 -0.01278000045567751
v 0.004220000002533197 -0.03545000031590462 -0.005969000048935413
v 0.004029000177979469 -0.03429200127720833 -0.010102000087499619
v 0.005067000165581703 -0.0341779999434948 -0.005696000065654516
v 0.00445799995213747 -0.034269001334905624 -0.008728000335395336
v 0.002099999925121665 -0.034327998757362366 -0.012412000447511673
v 0.00253800000064075 -0.03195200115442276 -0.004126999992877245
v 0.004693000111728907 -0.03336599841713905 -0.004765000194311142
v -0.003959000110626221 -0.03243099898099899 -0.0053889998234808445
v -0.00686099985614419 -0.03315100073814392 -0.005688000004738569
v -0.0055610002018511295 -0.03229700028896332 -0.021841999143362045
v -0.002311999909579754 -0.03361300006508827 -0.02090200036764145
v -0.00034100000630132854 -0.033883001655340195 -0.01929599978029728
v -0.007699999958276749 -0.030326999723911285 -0.014316000044345856
v -0.006899000145494938 -0.028839999809861183 -0.016318999230861664
v -0.006198999937623739 -0.02886899933218956 -0.01666799932718277
v -0.004681000020354986 -0.03090200014412403 -0.020461000502109528
v -0.008541000075638294 -0.03181099891662598 -0.006558000110089779
v -0.00784400012344122 -0.031640999019145966 -0.007149999961256981
v -0.00507500022649765 -0.031769998371601105 -0.008217000402510166
v -0.0008740000193938613 -0.032749999314546585 -0.01016900036484003
v -0.005268000066280365 -0.0315140001475811 -0.012555999681353569
v 0.00012599999899975955 -0.034008000046014786 -0.018477000296115875
v 0.00023799999326001853 -0.03470500186085701 -0.01331700012087822
v -0.0002410000015515834 -0.03325999900698662 -0.013685000129044056
v 0.004038000013679266 -0.0331679992377758 -0.009812000207602978
v 0.0033340000081807375 -0.032767001539468765 -0.010634999722242355
v 0.005071000196039677 -0.033656999468803406 -0.005801999941468239
v 0.004984000232070684 -0.03355100005865097 -0.005260000005364418
v 0.004941000137478113 -0.03328000009059906 -0.006756999995559454
v 0.0013310000067576766 -0.031505998224020004 -0.012322000227868557
v -0.00016900000628083944 -0.03198700025677681 -0.014216000214219093
v -0.005299000069499016 -0.03136700019240379 -0.006769000086933374
v 0.004550000187009573 -0.0328110009431839 -0.004927999805659056
v -0.007176999934017658 -0.031603001058101654 -0.006490999832749367
v -0.002939000027254224 -0.031651999801397324 -0.020090999081730843
v -0.0020699999295175076 -0.030722999945282936 -0.012236000038683414
v -0.0022410000674426556 -0.03052400052547455 -0.013213000260293484
v -0.0022589999716728926 -0.03112499974668026 -0.0114120002835989
v -0.005239999853074551 -0.02907799929380417 -0.015600999817252159
v -0.004058000165969133 -0.02958199940621853 -0.01596199907362461
v 0.0048870001919567585 -0.03303699940443039 -0.005419999826699495
v -0.002056000055745244 -0.029861999675631523 -0.01394800003618002
v -0.003240999998524785 -0.02919900044798851 -0.014937000349164009
vn 0.19020552933216095 -0.0059329611249268055 0.9817262887954712
vn 0.5985686779022217 0.30853748321533203 0.7392699718475342
vn 0.42123740911483765 -0.05605776607990265 0.9052162766456604
vn 0.2452268898487091 -0.21202494204044342 0.9459964036941528
vn 0.4177100360393524 0.604583740234375 0.6782306432723999
vn 0.6131024956703186 0.3185873329639435 0.7229158878326416
vn 0.8091985583305359 -0.0012191988062113523 0.5875340104103088
vn 0.6308549642562866 0.13587553799152374 0.7639110088348389
vn 0.35594695806503296 0.15481658279895782 0.9215928912162781
vn 0.8541429042816162 0.2640686333179474 0.4480040967464447
vn 0.8081026077270508 0.5115505456924438 0.29203781485557556
vn 0.14528019726276398 -0.2801659107208252 0.9488945007324219
vn 0.7479920983314514 -0.18806585669517517 0.6365053057670593
vn 0.4291313588619232 -0.05716649442911148 0.9014312028884888
vn 0.28923454880714417 0.03145841509103775 0.956741213798523
vn 0.09771045297384262 -0.45530393719673157 0.8849581480026245
vn 0.8073888421058655 -0.38230255246162415 0.4494083821773529
vn 0.749909520149231 0.6613523960113525 -0.015771208330988884
vn 0.6031365394592285 0.7470722198486328 0.279480516910553
vn 0.9127941131591797 0.4079117774963379 0.020368320867419243
vn 0.9869502782821655 -0.10802054405212402 0.1194181740283966
vn -0.6072189807891846 -0.15834611654281616 0.7785958647727966
vn 0.6841117739677429 0.0631740540266037 0.7266361117362976
vn 0.10096199065446854 0.01114315539598465 0.994827926158905
vn -0.8458989858627319 -0.1171824261546135 0.5203105211257935
vn 0.9088730216026306 0.4169445335865021 -0.01034766249358654
vn 0.9680245518684387 0.23420876264572144 -0.08985931426286697
vn 0.5459743142127991 -0.29522839188575745 0.7840613722801208
vn 0.7899589538574219 -0.10489930957555771 0.6041200757026672
vn -0.2211487591266632 -0.23847052454948425 0.9456347227096558
vn 0.06547125428915024 -0.38873401284217834 0.9190208911895752
vn 0.4890924394130707 -0.7397521734237671 0.46212056279182434
vn 0.16520367562770844 -0.5619035363197327 0.8105382323265076
vn 0.7286607027053833 -0.6847951412200928 0.010449516586959362
vn 0.9222433567047119 0.3385137915611267 -0.18675026297569275
vn 0.9042235612869263 0.4260537624359131 0.029288025572896004
vn 0.9161562919616699 -0.3717960715293884 -0.14975124597549438
vn -0.9747937321662903 -0.1645612269639969 0.15065452456474304
vn -0.8159216046333313 -0.21011784672737122 0.5386301875114441
vn -0.9616031646728516 -0.26574498414993286 0.06854838877916336
vn -0.8580628037452698 -0.4582348167896271 0.23183806240558624
vn 0.24898278713226318 -0.09638094156980515 0.9637002348899841
vn 0.8202021718025208 -0.012747881934046745 0.571931779384613
vn -0.48930132389068604 -0.12016113102436066 0.8637971878051758
vn -0.890166163444519 -0.04308488592505455 -0.4535943269729614
vn -0.7479408383369446 -0.08302430063486099 -0.6585525274276733
vn -0.9791228175163269 -0.18481217324733734 0.08463402092456818
vn 0.7788301110267639 0.6272194385528564 -0.00441365223377943
vn 0.7646963000297546 0.39443641901016235 -0.5095680356025696
vn 0.6093584299087524 0.5670978426933289 -0.5541500449180603
vn 0.3727562129497528 0.24973492324352264 -0.893691897392273
vn 0.9780269861221313 0.06922394782304764 -0.1966496706008911
vn 0.5935187935829163 0.1334165334701538 -0.793684720993042
vn 0.30726081132888794 -0.6968936324119568 0.6480201482772827
vn 0.20589803159236908 -0.7090552449226379 0.6744232177734375
vn -0.6086310148239136 -0.47098129987716675 0.6385490894317627
vn -0.5373485684394836 -0.7528141736984253 0.380167692899704
vn 0.2591887414455414 -0.9442982077598572 0.20278581976890564
vn 0.4157027006149292 -0.8441000580787659 -0.33865389227867126
vn 0.9508184194564819 0.3083511292934418 -0.029395027086138725
vn 0.9085482954978943 -0.11101607233285904 -0.40275976061820984
vn 0.7602101564407349 0.6304170489311218 -0.15701885521411896
vn 0.9745995998382568 0.22385351359844208 0.006728543434292078
vn 0.6623080372810364 -0.538210391998291 -0.5212270021438599
vn -0.8843085169792175 0.20850758254528046 -0.41775956749916077
vn -0.982840359210968 -0.1844504177570343 -0.001710359239950776
vn -0.7957170009613037 -0.6033801436424255 -0.052600543946027756
vn -0.9133120775222778 -0.3358154296875 0.23041069507598877
vn -0.8565428256988525 -0.40625086426734924 -0.31826844811439514
vn -0.8530991673469543 -0.5164157748222351 -0.07440760731697083
vn -0.8553058505058289 -0.5151925086975098 -0.05503232777118683
vn 0.6832320094108582 -0.23418191075325012 0.6916306018829346
vn -0.6296426653862 -0.2954859733581543 0.7184972167015076
vn 0.12909772992134094 -0.397407203912735 0.9085160493850708
vn -0.3526444137096405 0.08533925563097 -0.9318578839302063
vn -0.35549768805503845 0.24227628111839294 -0.90273118019104
vn -0.7149772047996521 -0.30473387241363525 -0.6292414665222168
vn 0.0006050023366697133 -0.01602681167423725 -0.9998714327812195
vn 0.03500184789299965 0.08811596781015396 -0.995495080947876
vn -0.1301100105047226 -0.1610216647386551 -0.9783369898796082
vn -0.9082270860671997 -0.32008299231529236 -0.26957470178604126
vn -0.9329482316970825 -0.34192535281181335 0.11267119646072388
vn -0.7537213563919067 -0.3996509611606598 0.5217117071151733
vn 0.06384432315826416 0.7883756160736084 -0.6118722558021545
vn 0.33464503288269043 0.8969036340713501 -0.28909626603126526
vn 0.22234895825386047 0.3458854556083679 -0.9115505218505859
vn -0.1512414515018463 0.23229753971099854 -0.9608142375946045
vn 0.8070325255393982 -0.015609712339937687 -0.5903006196022034
vn 0.9931498765945435 -0.10259542614221573 -0.05592396855354309
vn 0.7343091368675232 0.06491702049970627 -0.6757040023803711
vn 0.4565317928791046 0.031912174075841904 -0.8891345858573914
vn -0.544764518737793 -0.8362603187561035 0.06245141848921776
vn -0.2492404282093048 -0.9586902856826782 0.1370846927165985
vn -0.6712726354598999 -0.7288798093795776 0.13463731110095978
vn -0.16568782925605774 -0.917206883430481 -0.36232444643974304
vn 0.05389385297894478 -0.7121250629425049 -0.6999809145927429
vn 0.9365299940109253 0.14650453627109528 -0.31850889325141907
vn 0.17513638734817505 -0.5396672487258911 -0.823460042476654
vn 0.2652598023414612 -0.29292455315589905 -0.9186035394668579
vn 0.7381203174591064 -0.01586030051112175 -0.6744827032089233
vn 0.5918117165565491 0.2817651927471161 -0.7552265524864197
vn 0.41227611899375916 0.7304385304450989 -0.5445070862770081
vn -0.8106827139854431 -0.1712987720966339 -0.5598663091659546
vn -0.4519929587841034 0.18651358783245087 -0.8723044395446777
vn -0.5906475186347961 -0.7083643674850464 -0.3864651620388031
vn -0.3614618480205536 -0.5576461553573608 -0.7472457885742188
vn -0.7335018515586853 -0.4564327895641327 -0.503631055355072
vn -0.7907699346542358 -0.4652179777622223 -0.39781299233436584
vn -0.6607951521873474 -0.2112705260515213 -0.7202183604240417
vn 0.9405242800712585 -0.3228849172592163 0.10563833266496658
vn -0.3663564920425415 -0.5529074668884277 0.7483823895454407
vn 0.4517711102962494 -0.47202593088150024 0.7570300102233887
vn -0.7687829732894897 -0.2805979549884796 -0.574662983417511
vn -0.3037194609642029 -0.3982255160808563 -0.8655465841293335
vn 0.4202868640422821 -0.05726855248212814 -0.9055822491645813
vn 0.3315420150756836 -0.2145882397890091 -0.9187120199203491
vn -0.9402176141738892 0.006616990547627211 -0.34051021933555603
vn -0.9705632328987122 -0.23706340789794922 -0.04252070188522339
vn -0.7783783078193665 -0.469639390707016 0.41661253571510315
vn -0.9823349118232727 -0.1454988569021225 0.11767846345901489
vn -0.5287356376647949 -0.6518970131874084 0.5435704588890076
vn -0.6024972200393677 0.2722494602203369 -0.7502515316009521
vn -0.14281731843948364 0.6071341037750244 -0.7816593647003174
vn -0.19057592749595642 -0.3958585560321808 -0.898318886756897
vn -0.6406515836715698 0.032817572355270386 -0.7671301364898682
vn -0.24555367231369019 -0.18724282085895538 -0.9511275291442871
vn 0.79258793592453 -0.1370258927345276 -0.5941616892814636
vn -0.5578554272651672 -0.8009198904037476 -0.21754223108291626
vn -0.5242666602134705 -0.5361626744270325 -0.6615694761276245
vn -0.5594849586486816 -0.2093992382287979 -0.8019528985023499
vn 0.1648508906364441 0.006865205243229866 -0.9862946271896362
vn -0.5400540828704834 -0.06773965805768967 -0.8388999104499817
vn -0.5083343386650085 0.14891862869262695 -0.8481860160827637
vn -0.3849126994609833 -0.31220242381095886 -0.8685458898544312
vn -0.6638609766960144 -0.13921500742435455 -0.7347841858863831
vn 0.9407020807266235 -0.05248658359050751 -0.33514872193336487
vn 0.9507325887680054 -0.230669304728508 0.20712122321128845
vn 0.9981852769851685 -0.030494555830955505 0.05192592740058899
vn -0.032533831894397736 -0.3816598653793335 0.9237301349639893
vn -0.465117871761322 -0.5563203692436218 0.6886022090911865
vn 0.7114346623420715 -0.353553831577301 0.6073387861251831
vn -0.418768972158432 -0.04048488289117813 -0.9071899056434631
vn 0.5441304445266724 -0.04505031183362007 -0.8377903699874878
vn 0.7159188389778137 0.014338194392621517 -0.6980363130569458
vn -0.8946252465248108 0.3034973442554474 -0.3279251158237457
vn -0.6617165803909302 0.3363566994667053 -0.6700710654258728
vn -0.971784770488739 0.20423875749111176 -0.11798705905675888
vn -0.9925049543380737 0.12065689265727997 0.01938602514564991
vn -0.839597225189209 -0.18784499168395996 0.5096967220306396
vn -0.9113577604293823 0.38945138454437256 0.1332470327615738
vn -0.8379418849945068 0.5447683334350586 0.03287876397371292
vn 0.7469207048416138 -0.03779846802353859 -0.6638378500938416
vn 0.5803205370903015 0.07501381635665894 -0.810926079750061
vn 0.6880824565887451 0.6140281558036804 -0.3866678774356842
vn 0.7897950410842896 0.24113458395004272 -0.5639838576316833
vn 0.8826049566268921 0.2703102231025696 -0.3846307396888733
vn 0.9548953771591187 -0.2864900827407837 0.07809043675661087
vn 0.9262537956237793 -0.35982197523117065 -0.11216944456100464
vn 0.9958555698394775 -0.08987841010093689 -0.01391073502600193
vn 0.9582089185714722 0.2326367348432541 -0.1664811372756958
vn 0.692995548248291 -0.2562899589538574 0.6738491058349609
vn -0.0013466577511280775 0.25024619698524475 0.9681812524795532
vn -0.40260475873947144 -0.06572315841913223 0.9130114316940308
vn -0.3391238749027252 0.42444196343421936 -0.8395498394966125
vn 0.04742320999503136 0.2592869997024536 -0.9646353721618652
vn 0.37074026465415955 0.3107708692550659 -0.8751988410949707
vn 0.6633104085922241 -0.14772626757621765 -0.7336186766624451
vn 0.5651219487190247 -0.019661422818899155 -0.8247730135917664
vn -0.36639314889907837 0.6258422136306763 -0.6885328888893127
vn -0.6391633749008179 0.6060760021209717 -0.4734364151954651
vn -0.7755631804466248 0.6144180297851562 0.1448865383863449
vn -0.33430254459381104 0.9195595383644104 -0.20652368664741516
vn -0.313099205493927 0.6243960857391357 -0.7156105041503906
vn -0.8093503713607788 0.5825175046920776 0.0750017911195755
vn -0.6374913454055786 0.35505470633506775 0.683769702911377
vn -0.5125792026519775 0.8452708721160889 0.1509297639131546
vn -0.34158632159233093 0.9374842643737793 0.06664939969778061
vn -0.27175334095954895 0.94328373670578 0.19069848954677582
vn 0.5738121271133423 0.10440156608819962 -0.8123053908348083
vn 0.7531113624572754 0.04995052143931389 -0.6559940576553345
vn 0.3794316053390503 0.4454818069934845 -0.8109115958213806
vn 0.7430753707885742 0.5577219724655151 -0.36984488368034363
vn 0.9154222011566162 0.39351731538772583 -0.08453628420829773
vn 0.6134723424911499 0.4036456048488617 -0.678765058517456
vn 0.8659757375717163 -0.478116899728775 0.1465952843427658
vn 0.9093079566955566 -0.1119217649102211 -0.4007900357246399
vn 0.9292970299720764 -0.3069115877151489 0.20545625686645508
vn 0.9596652984619141 -0.15329740941524506 -0.2356746643781662
vn 0.6079944968223572 0.17965185642242432 -0.7733485102653503
vn 0.25488245487213135 0.8104051351547241 0.5275209546089172
vn 0.7201048135757446 0.07065924257040024 0.6902580857276917
vn -0.11922480911016464 0.7413696050643921 0.6604215502738953
vn -0.21870513260364532 0.3899201452732086 0.8945001363754272
vn 0.1663179248571396 0.5550834536552429 -0.8149973750114441
vn 0.5642447471618652 0.267607718706131 -0.7810339331626892
vn 0.73636794090271 0.1106831356883049 -0.6674664616584778
vn -0.294922411441803 0.866468608379364 0.40280628204345703
vn -0.26931092143058777 0.8978009223937988 0.3484609127044678
vn 0.146897554397583 0.9618632793426514 -0.23073861002922058
vn 0.3085654079914093 0.8156074285507202 -0.489460825920105
vn -0.29446983337402344 0.7575177550315857 0.5826270580291748
vn -0.03940720483660698 0.9989883303642273 0.021669136360287666
vn 0.04379786178469658 0.9942825436592102 -0.09738517552614212
vn 0.05003489926457405 0.9863104820251465 0.1571243852376938
vn -0.1331712007522583 0.7401953339576721 0.6590722799301147
vn 0.9499658346176147 0.2527785897254944 -0.1834883689880371
vn 0.5993093252182007 0.22905699908733368 -0.767047107219696
vn 0.9209461212158203 0.024066122248768806 -0.3889461159706116
vn 0.6848556995391846 0.7247000932693481 -0.07604093849658966
vn 0.6635098457336426 0.730987012386322 -0.1594138741493225
vn 0.9968312382698059 0.07546687871217728 -0.025145672261714935
vn 0.9299812912940979 0.12241469323635101 0.34662604331970215
vn 0.7698140740394592 0.6371461749076843 0.037827711552381516
vn 0.6496684551239014 0.6439312696456909 -0.4040834307670593
vn 0.7796878814697266 0.3617599904537201 -0.5110934376716614
vn -0.08066898584365845 0.9619035720825195 0.26121675968170166
vn 0.6657813191413879 0.6961495280265808 0.26853466033935547
vn -0.034273456782102585 0.8766430616378784 0.4799191951751709
vn 0.5620949864387512 0.6628604531288147 -0.49463626742362976
vn 0.09987092018127441 0.9449287056922913 0.31166571378707886
vn 0.02419232949614525 0.884066641330719 0.46673426032066345
vn -0.1606668382883072 0.7372984886169434 0.656183660030365
vn 0.026992328464984894 0.9569602012634277 0.28896111249923706
vn 0.4726416766643524 0.7818628549575806 -0.40657123923301697
vn 0.7642863988876343 0.6442535519599915 0.028348710387945175
vn 0.05714377760887146 0.8422896862030029 0.5359876751899719
vn 0.31783223152160645 0.9445416927337646 -0.08260518312454224
f 1//1 2//2 3//3
f 3//3 4//4 1//1
f 2//2 1//1 5//5
f 1//1 6//6 5//5
f 1//1 7//7 6//6
f 7//7 1//1 4//4
f 8//8 3//3 2//2
f 2//2 9//9 8//8
f 2//2 10//10 9//9
f 2//2 5//5 11//11
f 2//2 11//11 10//10
f 12//12 4//4 3//3
f 13//13 12//12 3//3
f 13//13 3//3 14//14
f 14//14 3//3 15//15
f 15//15 3//3 8//8
f 12//12 16//16 4//4
f 17//17 4//4 16//16
f 17//17 7//7 4//4
f 18//18 5//5 19//19
f 5//5 6//6 19//19
f 5//5 18//18 11//11
f 19//19 6//6 20//20
f 7//7 20//20 6//6
f 7//7 17//17 21//21
f 21//21 20//20 7//7
f 9//9 15//15 8//8
f 9//9 22//22 15//15
f 10//10 23//23 9//9
f 23//23 24//24 9//9
f 25//25 9//9 24//24
f 9//9 25//25 22//22
f 26//26 10//10 11//11
f 10//10 27//27 23//23
f 27//27 10//10 26//26
f 18//18 26//26 11//11
f 28//28 16//16 12//12
f 13//13 28//28 12//12
f 14//14 29//29 13//13
f 13//13 29//29 28//28
f 22//22 14//14 15//15
f 14//14 22//22 30//30
f 31//31 29//29 14//14
f 30//30 31//31 14//14
f 17//17 16//16 32//32
f 16//16 33//33 32//32
f 28//28 33//33 16//16
f 34//34 21//21 17//17
f 34//34 17//17 32//32
f 18//18 19//19 20//20
f 18//18 35//35 36//36
f 18//18 20//20 35//35
f 26//26 18//18 36//36
f 20//20 21//21 35//35
f 21//21 34//34 37//37
f 37//37 35//35 21//21
f 38//38 22//22 25//25
f 22//22 39//39 30//30
f 39//39 22//22 40//40
f 40//40 22//22 41//41
f 38//38 41//41 22//22
f 42//42 23//23 43//43
f 24//24 23//23 42//42
f 27//27 43//43 23//23
f 42//42 44//44 24//24
f 24//24 44//44 25//25
f 45//45 38//38 25//25
f 46//46 25//25 47//47
f 46//46 45//45 25//25
f 44//44 47//47 25//25
f 36//36 48//48 26//26
f 26//26 49//49 27//27
f 49//49 26//26 50//50
f 26//26 48//48 50//50
f 51//51 27//27 49//49
f 43//43 27//27 52//52
f 53//53 52//52 27//27
f 51//51 53//53 27//27
f 29//29 54//54 28//28
f 28//28 54//54 55//55
f 55//55 33//33 28//28
f 31//31 54//54 29//29
f 56//56 30//30 39//39
f 30//30 56//56 31//31
f 31//31 56//56 57//57
f 31//31 57//57 54//54
f 58//58 34//34 32//32
f 32//32 33//33 58//58
f 55//55 58//58 33//33
f 37//37 34//34 59//59
f 58//58 59//59 34//34
f 36//36 35//35 60//60
f 61//61 35//35 37//37
f 61//61 60//60 35//35
f 62//62 36//36 63//63
f 63//63 36//36 60//60
f 48//48 36//36 62//62
f 37//37 64//64 61//61
f 64//64 37//37 59//59
f 65//65 38//38 45//45
f 38//38 66//66 67//67
f 41//41 38//38 67//67
f 65//65 66//66 38//38
f 40//40 68//68 39//39
f 68//68 56//56 39//39
f 69//69 40//40 70//70
f 69//69 71//71 40//40
f 68//68 40//40 71//71
f 70//70 40//40 41//41
f 70//70 41//41 67//67
f 43//43 72//72 42//42
f 42//42 72//72 44//44
f 43//43 52//52 72//72
f 73//73 44//44 74//74
f 44//44 72//72 74//74
f 47//47 44//44 73//73
f 45//45 75//75 76//76
f 45//45 46//46 75//75
f 45//45 76//76 65//65
f 47//47 77//77 46//46
f 46//46 78//78 79//79
f 46//46 79//79 75//75
f 46//46 80//80 78//78
f 46//46 77//77 80//80
f 47//47 81//81 77//77
f 81//81 47//47 82//82
f 83//83 82//82 47//47
f 83//83 47//47 73//73
f 48//48 84//84 50//50
f 48//48 62//62 85//85
f 48//48 85//85 84//84
f 49//49 50//50 86//86
f 49//49 86//86 51//51
f 84//84 87//87 50//50
f 50//50 87//87 86//86
f 76//76 51//51 86//86
f 51//51 76//76 75//75
f 79//79 51//51 75//75
f 79//79 53//53 51//51
f 52//52 88//88 89//89
f 52//52 89//89 72//72
f 90//90 52//52 53//53
f 90//90 88//88 52//52
f 53//53 79//79 91//91
f 90//90 53//53 91//91
f 57//57 92//92 54//54
f 92//92 55//55 54//54
f 92//92 93//93 55//55
f 55//55 93//93 58//58
f 68//68 57//57 56//56
f 94//94 57//57 68//68
f 57//57 94//94 92//92
f 58//58 95//95 59//59
f 58//58 93//93 95//95
f 59//59 96//96 64//64
f 96//96 59//59 95//95
f 61//61 63//63 60//60
f 97//97 63//63 61//61
f 61//61 98//98 99//99
f 61//61 100//100 97//97
f 100//100 61//61 99//99
f 98//98 61//61 64//64
f 63//63 101//101 62//62
f 62//62 101//101 102//102
f 102//102 85//85 62//62
f 97//97 101//101 63//63
f 64//64 96//96 98//98
f 66//66 65//65 103//103
f 104//104 103//103 65//65
f 76//76 104//104 65//65
f 105//105 67//67 66//66
f 105//105 66//66 103//103
f 106//106 107//107 67//67
f 67//67 107//107 70//70
f 105//105 106//106 67//67
f 71//71 94//94 68//68
f 92//92 71//71 69//69
f 108//108 92//92 69//69
f 107//107 69//69 70//70
f 69//69 109//109 108//108
f 69//69 107//107 109//109
f 92//92 94//94 71//71
f 72//72 89//89 110//110
f 72//72 110//110 74//74
f 74//74 111//111 73//73
f 73//73 111//111 83//83
f 111//111 74//74 112//112
f 110//110 112//112 74//74
f 104//104 76//76 87//87
f 87//87 76//76 86//86
f 77//77 81//81 113//113
f 113//113 114//114 77//77
f 114//114 80//80 77//77
f 91//91 79//79 78//78
f 78//78 115//115 91//91
f 115//115 78//78 80//80
f 116//116 115//115 80//80
f 114//114 116//116 80//80
f 81//81 117//117 113//113
f 81//81 82//82 118//118
f 117//117 81//81 118//118
f 119//119 120//120 82//82
f 119//119 82//82 83//83
f 82//82 120//120 118//118
f 111//111 121//121 83//83
f 83//83 121//121 119//119
f 87//87 84//84 122//122
f 123//123 84//84 85//85
f 122//122 84//84 123//123
f 102//102 123//123 85//85
f 87//87 124//124 104//104
f 87//87 122//122 125//125
f 126//126 87//87 125//125
f 124//124 87//87 126//126
f 127//127 89//89 88//88
f 91//91 88//88 90//90
f 115//115 127//127 88//88
f 88//88 91//91 115//115
f 110//110 89//89 127//127
f 108//108 128//128 92//92
f 92//92 128//128 93//93
f 93//93 128//128 95//95
f 95//95 128//128 129//129
f 95//95 129//129 96//96
f 96//96 129//129 98//98
f 101//101 97//97 100//100
f 98//98 130//130 99//99
f 130//130 98//98 129//129
f 131//131 99//99 132//132
f 132//132 99//99 130//130
f 131//131 100//100 99//99
f 101//101 100//100 131//131
f 123//123 101//101 133//133
f 102//102 101//101 123//123
f 133//133 101//101 131//131
f 103//103 104//104 124//124
f 103//103 124//124 105//105
f 105//105 124//124 106//106
f 109//109 107//107 106//106
f 124//124 126//126 106//106
f 134//134 109//109 106//106
f 126//126 134//134 106//106
f 108//108 129//129 128//128
f 109//109 129//129 108//108
f 109//109 134//134 135//135
f 109//109 130//130 129//129
f 130//130 109//109 135//135
f 127//127 136//136 110//110
f 137//137 112//112 110//110
f 137//137 110//110 138//138
f 138//138 110//110 136//136
f 111//111 112//112 139//139
f 121//121 111//111 140//140
f 140//140 111//111 139//139
f 141//141 139//139 112//112
f 137//137 141//141 112//112
f 117//117 142//142 113//113
f 142//142 114//114 113//113
f 114//114 142//142 116//116
f 116//116 127//127 115//115
f 116//116 142//142 143//143
f 116//116 144//144 127//127
f 144//144 116//116 143//143
f 145//145 146//146 117//117
f 145//145 117//117 147//147
f 146//146 142//142 117//117
f 118//118 147//147 117//117
f 118//118 148//148 147//147
f 118//118 120//120 148//148
f 120//120 119//119 149//149
f 140//140 149//149 119//119
f 119//119 121//121 140//140
f 120//120 149//149 150//150
f 120//120 150//150 151//151
f 148//148 120//120 151//151
f 125//125 122//122 133//133
f 133//133 122//122 123//123
f 135//135 126//126 125//125
f 132//132 135//135 125//125
f 132//132 125//125 133//133
f 134//134 126//126 135//135
f 127//127 152//152 136//136
f 152//152 127//127 153//153
f 144//144 153//153 127//127
f 132//132 130//130 135//135
f 133//133 131//131 132//132
f 154//154 136//136 155//155
f 138//138 136//136 156//156
f 136//136 154//154 156//156
f 155//155 136//136 152//152
f 141//141 137//137 157//157
f 157//157 137//137 158//158
f 137//137 159//159 158//158
f 159//159 137//137 138//138
f 138//138 160//160 159//159
f 160//160 138//138 156//156
f 139//139 161//161 162//162
f 139//139 141//141 161//161
f 139//139 162//162 163//163
f 163//163 140//140 139//139
f 149//149 140//140 163//163
f 157//157 161//161 141//141
f 146//146 164//164 142//142
f 142//142 164//164 165//165
f 142//142 165//165 143//143
f 165//165 166//166 143//143
f 143//143 167//167 144//144
f 167//167 143//143 166//166
f 144//144 168//168 153//153
f 168//168 144//144 167//167
f 145//145 169//169 146//146
f 145//145 170//170 169//169
f 171//171 145//145 147//147
f 172//172 170//170 145//145
f 172//172 145//145 171//171
f 173//173 164//164 146//146
f 146//146 169//169 173//173
f 174//174 171//171 147//147
f 147//147 148//148 174//174
f 174//174 148//148 151//151
f 175//175 149//149 163//163
f 149//149 175//175 150//150
f 151//151 150//150 176//176
f 150//150 175//175 176//176
f 177//177 178//178 151//151
f 178//178 174//174 151//151
f 177//177 151//151 176//176
f 179//179 155//155 152//152
f 152//152 153//153 179//179
f 153//153 168//168 179//179
f 180//180 154//154 155//155
f 154//154 181//181 156//156
f 182//182 181//181 154//154
f 154//154 183//183 182//182
f 180//180 183//183 154//154
f 179//179 180//180 155//155
f 160//160 156//156 184//184
f 156//156 181//181 184//184
f 158//158 185//185 157//157
f 157//157 185//185 161//161
f 159//159 186//186 158//158
f 187//187 185//185 158//158
f 158//158 188//188 187//187
f 158//158 186//186 188//188
f 186//186 159//159 160//160
f 184//184 189//189 160//160
f 160//160 189//189 186//186
f 161//161 190//190 162//162
f 161//161 185//185 187//187
f 161//161 187//187 191//191
f 190//190 161//161 191//191
f 162//162 192//192 193//193
f 162//162 190//190 192//192
f 193//193 163//163 162//162
f 175//175 163//163 193//193
f 194//194 166//166 164//164
f 173//173 194//194 164//164
f 164//164 166//166 165//165
f 167//167 166//166 195//195
f 194//194 195//195 166//166
f 180//180 168//168 167//167
f 167//167 196//196 180//180
f 196//196 167//167 195//195
f 180//180 179//179 168//168
f 173//173 169//169 172//172
f 172//172 169//169 170//170
f 174//174 197//197 171//171
f 197//197 198//198 171//171
f 171//171 198//198 172//172
f 198//198 199//199 172//172
f 172//172 199//199 200//200
f 197//197 174//174 178//178
f 201//201 176//176 175//175
f 175//175 193//193 201//201
f 177//177 176//176 202//202
f 176//176 201//201 202//202
f 178//178 177//177 203//203
f 202//202 203//203 177//177
f 204//204 205//205 178//178
f 204//204 178//178 203//203
f 205//205 197//197 178//178
f 206//206 183//183 180//180
f 196//196 206//206 180//180
f 182//182 207//207 181//181
f 181//181 189//189 184//184
f 189//189 181//181 207//207
f 182//182 183//183 208//208
f 207//207 182//182 208//208
f 208//208 183//183 206//206
f 209//209 188//188 186//186
f 210//210 209//209 186//186
f 186//186 189//189 210//210
f 187//187 211//211 212//212
f 211//211 187//187 188//188
f 191//191 187//187 212//212
f 188//188 209//209 213//213
f 211//211 188//188 213//213
f 214//214 189//189 215//215
f 214//214 210//210 189//189
f 207//207 208//208 189//189
f 189//189 208//208 215//215
f 190//190 216//216 192//192
f 190//190 203//203 216//216
f 190//190 191//191 217//217
f 204//204 203//203 190//190
f 204//204 190//190 217//217
f 191//191 212//212 217//217
f 193//193 192//192 218//218
f 192//192 216//216 202//202
f 218//218 192//192 202//202
f 218//218 201//201 193//193
f 200//200 219//219 194//194
f 194//194 219//219 195//195
f 219//219 196//196 195//195
f 206//206 196//196 219//219
f 197//197 220//220 221//221
f 222//222 197//197 205//205
f 220//220 197//197 222//222
f 221//221 198//198 197//197
f 223//223 198//198 221//221
f 198//198 223//223 199//199
f 224//224 200//200 199//199
f 224//224 199//199 223//223
f 224//224 219//219 200//200
f 202//202 201//201 218//218
f 216//216 203//203 202//202
f 205//205 204//204 222//222
f 204//204 217//217 225//225
f 204//204 225//225 213//213
f 222//222 204//204 213//213
f 208//208 206//206 215//215
f 219//219 215//215 206//206
f 209//209 210//210 221//221
f 222//222 213//213 209//209
f 220//220 222//222 209//209
f 221//221 220//220 209//209
f 226//226 210//210 214//214
f 221//221 210//210 226//226
f 212//212 211//211 225//225
f 211//211 213//213 225//225
f 212//212 225//225 217//217
f 214//214 215//215 224//224
f 227//227 226//226 214//214
f 227//227 214//214 224//224
f 215//215 219//219 224//224
f 221//221 226//226 223//223
f 223//223 226//226 227//227
f 223//223 227//227 224//224
