# Generated by Visualization Toolkit
v 0.0431860014796257 -0.1684419959783554 -0.007579999975860119
v 0.04386100172996521 -0.16840699315071106 -0.0075530000030994415
v 0.043568000197410583 -0.16834799945354462 -0.006173000205308199
v 0.04240800067782402 -0.16810299456119537 -0.007511000148952007
v 0.042764998972415924 -0.16828499734401703 -0.006732999812811613
v 0.043740998953580856 -0.16774199903011322 -0.010286999866366386
v 0.0419670008122921 -0.16737699508666992 -0.01003399956971407
v 0.04290499910712242 -0.16770100593566895 -0.011203000321984291
v 0.04598499834537506 -0.16618600487709045 -0.00979899987578392
v 0.04639900103211403 -0.16717499494552612 -0.006632000207901001
v 0.03994499891996384 -0.16527099907398224 -0.005239999853074551
v 0.04279699921607971 -0.1680459976196289 -0.006157000083476305
v 0.045844998210668564 -0.16727900505065918 -0.005537999793887138
v 0.03932600095868111 -0.16468900442123413 -0.005594999995082617
v 0.039872001856565475 -0.16533899307250977 -0.008364999666810036
v 0.0410350002348423 -0.16629399359226227 -0.00992400012910366
v 0.04429800063371658 -0.16742299497127533 -0.013358999975025654
v 0.04601600021123886 -0.1666409969329834 -0.011843999847769737
v 0.04225299879908562 -0.16717199981212616 -0.012168999761343002
v 0.04031199961900711 -0.16551299393177032 -0.010645000264048576
v 0.043042998760938644 -0.167153000831604 -0.013803999871015549
v 0.04670500010251999 -0.16480199992656708 -0.007600999902933836
v 0.045885998755693436 -0.16383999586105347 -0.009339000098407269
v 0.046675000339746475 -0.164450004696846 -0.011683999560773373
v 0.046778999269008636 -0.16512799263000488 -0.005504999775439501
v 0.039250001311302185 -0.16312800347805023 -0.004550000187009573
v 0.046146001666784286 -0.16599300503730774 -0.004749000072479248
v 0.04549099877476692 -0.16440999507904053 -0.003926000092178583
v 0.0420369990170002 -0.1624079942703247 -0.003432000055909157
v 0.04036799818277359 -0.1623380035161972 -0.0038759999442845583
v 0.03890300169587135 -0.16387200355529785 -0.006053999997675419
v 0.039781998842954636 -0.16469399631023407 -0.009525000117719173
v 0.04068399965763092 -0.16532400250434875 -0.009812000207602978
v 0.04420299828052521 -0.16719099879264832 -0.013929000124335289
v 0.045593999326229095 -0.16620099544525146 -0.01411799993366003
v 0.041742999106645584 -0.16602599620819092 -0.013555999845266342
v 0.03985600173473358 -0.1650010049343109 -0.010564999654889107
v 0.04352099820971489 -0.16617600619792938 -0.014495999552309513
v 0.04619099944829941 -0.16323600709438324 -0.006804000120609999
v 0.0457880012691021 -0.16244299709796906 -0.011350000277161598
v 0.04385000094771385 -0.161640003323555 -0.008782999590039253
v 0.04530800133943558 -0.16247600317001343 -0.00661499984562397
v 0.046202998608350754 -0.16442599892616272 -0.014090999960899353
v 0.045938000082969666 -0.16340699791908264 -0.014027000404894352
v 0.04603800177574158 -0.16350999474525452 -0.004654999822378159
v 0.03877900168299675 -0.16245700418949127 -0.004687999840825796
v 0.03948099911212921 -0.1622070074081421 -0.004253000020980835
v 0.044022999703884125 -0.16191500425338745 -0.003930999897420406
v 0.04117000102996826 -0.16096599400043488 -0.004356999881565571
v 0.03965499997138977 -0.16119199991226196 -0.004933000076562166
v 0.03697099909186363 -0.16100400686264038 -0.0047530001029372215
v 0.03622699901461601 -0.16201600432395935 -0.0063680000603199005
v 0.027924999594688416 -0.1547500044107437 -0.009038000367581844
v 0.038787998259067535 -0.16287000477313995 -0.011451000347733498
v 0.04546299949288368 -0.16408999264240265 -0.014680000022053719
v 0.03970099985599518 -0.16348899900913239 -0.01304600015282631
v 0.03911900147795677 -0.16322100162506104 -0.012271000072360039
v 0.04071199893951416 -0.1624089926481247 -0.013868999667465687
v 0.04544200003147125 -0.16241900622844696 -0.013918000273406506
v 0.04433799907565117 -0.1616089940071106 -0.01372199971228838
v 0.0432949997484684 -0.1608400046825409 -0.011106000281870365
v 0.03986499831080437 -0.1605069935321808 -0.006382999941706657
v 0.04467000067234039 -0.16258400678634644 -0.01460499968379736
v 0.03812199831008911 -0.1599069982767105 -0.004530000034719706
v 0.030532000586390495 -0.15492300689220428 -0.001563000027090311
v 0.035767000168561935 -0.15846599638462067 -0.003674000035971403
v 0.03384099900722504 -0.15666499733924866 -0.0028119999915361404
v 0.02853900007903576 -0.1535169929265976 -0.010444999672472477
v 0.031106999143958092 -0.15569999814033508 -0.010559000074863434
v 0.0230919998139143 -0.1524520069360733 -0.007670999970287085
v 0.03731999918818474 -0.16077400743961334 -0.012071999721229076
v 0.023912999778985977 -0.14920000731945038 -0.011133000254631042
v 0.03894700109958649 -0.16234800219535828 -0.012404000386595726
v 0.03851500153541565 -0.16203400492668152 -0.011988000012934208
v 0.04307499900460243 -0.16161000728607178 -0.014279000461101532
v 0.03883900120854378 -0.16161300241947174 -0.012675000354647636
v 0.03853100165724754 -0.160739004611969 -0.012164000421762466
v 0.0418660007417202 -0.16057099401950836 -0.01312899962067604
v 0.039535000920295715 -0.15993699431419373 -0.010289999656379223
v 0.03879699856042862 -0.16003699600696564 -0.011668999679386616
v 0.03813999891281128 -0.159061998128891 -0.006955999881029129
v 0.036063000559806824 -0.15785099565982819 -0.003978000022470951
v 0.023634999990463257 -0.15235300362110138 -0.0011709999525919557
v 0.023801999166607857 -0.15081800520420074 0.0008970000199042261
v 0.025431999936699867 -0.14984600245952606 0.002355000004172325
v 0.03079799935221672 -0.1533759981393814 -0.0009699999936856329
v 0.03417599946260452 -0.15582099556922913 -0.00344299990683794
v 0.030494999140501022 -0.1509619951248169 -0.0009919999865815043
v 0.02623100019991398 -0.14951199293136597 -0.011366000398993492
v 0.028341000899672508 -0.15123000741004944 -0.011021999642252922
v 0.03737099841237068 -0.15904000401496887 -0.011474999599158764
v 0.031888000667095184 -0.15408000349998474 -0.010901999659836292
v 0.020898999646306038 -0.1511480063199997 -0.007389000151306391
v 0.021515000611543655 -0.1501139998435974 -0.009128999896347523
v 0.01950100064277649 -0.15015199780464172 -0.004908000119030476
v 0.020762000232934952 -0.15085899829864502 -0.0023189999628812075
v 0.03828899934887886 -0.1616860032081604 -0.012315000407397747
v 0.022513000294566154 -0.14752699434757233 -0.01083299983292818
v 0.02002899907529354 -0.1486700028181076 -0.008360999636352062
v 0.02049900032579899 -0.14922299981117249 -0.008756999857723713
v 0.032304998487234116 -0.15365199744701385 -0.0086899995803833
v 0.02474600076675415 -0.1484909951686859 0.0028019999153912067
v 0.02288299985229969 -0.15000799298286438 0.0009319999953731894
v 0.025964999571442604 -0.14880700409412384 0.002739999908953905
v 0.027286000549793243 -0.14882999658584595 0.002423000056296587
v 0.02805499918758869 -0.15008099377155304 0.001547000021673739
v 0.030882999300956726 -0.1514669954776764 -0.004581000190228224
v 0.028937000781297684 -0.14702999591827393 -0.00016900000628083944
v 0.02745000086724758 -0.1451990008354187 -0.0024949999060481787
v 0.028505999594926834 -0.14826500415802002 0.0016880000475794077
v 0.026235999539494514 -0.14684100449085236 -0.010665000416338444
v 0.02889000065624714 -0.15081200003623962 -0.010762999765574932
v 0.023205000907182693 -0.1461610049009323 -0.010324000380933285
v 0.020054999738931656 -0.14964500069618225 -0.007938000373542309
v 0.019238999113440514 -0.14881600439548492 -0.0066280001774430275
v 0.01954999938607216 -0.14886699616909027 -0.007557000033557415
v 0.01912499964237213 -0.1495939940214157 -0.0036009999457746744
v 0.018900999799370766 -0.14910100400447845 -0.004689999856054783
v 0.019979000091552734 -0.15000499784946442 -0.0023380001075565815
v 0.021875999867916107 -0.15000900626182556 -0.00023499999952036887
v 0.022792000323534012 -0.14677099883556366 -0.010366999544203281
v 0.021183999255299568 -0.14827199280261993 -0.008191999979317188
v 0.023614000529050827 -0.1487479954957962 0.0013899999903514981
v 0.025679999962449074 -0.14813299477100372 0.00292899995110929
v 0.02535399980843067 -0.1476230025291443 0.0024840000551193953
v 0.02518099918961525 -0.14729300141334534 0.002076999982818961
v 0.023617999628186226 -0.14867399632930756 -0.0010019999463111162
v 0.026858000084757805 -0.14830900728702545 0.0026839999482035637
v 0.026460999622941017 -0.14778800308704376 0.0026360000483691692
v 0.027482999488711357 -0.1468220055103302 0.0017300000181421638
v 0.027372999116778374 -0.14627400040626526 -0.00938700046390295
v 0.027970999479293823 -0.14568200707435608 -0.00015700000221841037
v 0.02550400048494339 -0.1442430019378662 -0.00622999994084239
v 0.026305999606847763 -0.14464600384235382 -0.0005719999899156392
v 0.02566000074148178 -0.1438630074262619 -0.004102000035345554
v 0.024089999496936798 -0.14494700729846954 -0.009430999867618084
v 0.02472200058400631 -0.14615799486637115 -0.007464999798685312
v 0.022595999762415886 -0.14922399818897247 -0.005472999997437
v 0.02254899963736534 -0.14888300001621246 -0.006564000155776739
v 0.02046399936079979 -0.14956800639629364 -0.0025289999321103096
v 0.021252000704407692 -0.14961500465869904 -0.0015030000358819962
v 0.022599000483751297 -0.1492139995098114 -0.0011390000581741333
v 0.024582000449299812 -0.14765499532222748 -0.005654000211507082
v 0.025783000513911247 -0.145796000957489 0.0014319999609142542
v 0.025290999561548233 -0.1467979997396469 -0.00011000000085914508
v 0.024455999955534935 -0.14830000698566437 -0.002584999892860651
v 0.02501400001347065 -0.1443910002708435 -0.008348999544978142
v 0.026249999180436134 -0.1454329937696457 0.0007389999809674919
v 0.0248819999396801 -0.1448889970779419 -0.0076430002227425575
v 0.025110999122262 -0.1445769965648651 -0.005764999892562628
v 0.02583800069987774 -0.14653900265693665 -0.002618999918922782
v 0.025592999532818794 -0.14635199308395386 -0.0034749999176710844
v 0.025232000276446342 -0.14603400230407715 -0.004182999953627586
v 0.02483700029551983 -0.14486299455165863 -0.008484000340104103
v 0.02528199926018715 -0.14610899984836578 -0.0063240001909434795
v 0.021612999960780144 -0.1496720016002655 -0.00279600010253489
v 0.023161999881267548 -0.149058997631073 -0.005332999862730503
v 0.02298000082373619 -0.1491200029850006 -0.004172000102698803
v 0.0218339990824461 -0.1494709998369217 -0.001832999987527728
v 0.02519099973142147 -0.1469929963350296 -0.004738999996334314
v 0.024615999311208725 -0.14753900468349457 -0.004337000194936991
v 0.024303000420331955 -0.14826799929141998 -0.004765999969094992
v 0.025325000286102295 -0.14701999723911285 -0.0038640000857412815
v 0.024449000135064125 -0.14820900559425354 -0.0038530000019818544
v 0.02496900036931038 -0.14672799408435822 -0.00418600020930171
v 0.024039000272750854 -0.1481429934501648 -0.0042420001700520515
vn -0.16996677219867706 -0.9807446599006653 -0.09618313610553741
vn 0.33484765887260437 -0.934012770652771 -0.12448765337467194
vn 0.019642051309347153 -0.9053729176521301 0.4241628348827362
vn -0.6449324488639832 -0.7640278935432434 -0.017992643639445305
vn -0.44972607493400574 -0.8717985153198242 0.19420038163661957
vn 0.3194020390510559 -0.9422130584716797 -0.10107900202274323
vn -0.6104010939598083 -0.7845468521118164 -0.1090719923377037
vn -0.21897514164447784 -0.9598518013954163 -0.17531214654445648
vn 0.8840527534484863 -0.46025267243385315 -0.08135306090116501
vn 0.7736347317695618 -0.633513867855072 0.01222890056669712
vn -0.3869366943836212 -0.5591138005256653 0.733260989189148
vn -0.3878927230834961 -0.7278871536254883 0.565437376499176
vn 0.46592727303504944 -0.6208239793777466 0.6304675340652466
vn -0.8512930870056152 -0.5051105618476868 0.14199762046337128
vn -0.803699254989624 -0.5546051859855652 -0.2155936062335968
vn -0.8321175575256348 -0.5537323355674744 -0.030996549874544144
vn 0.2383406162261963 -0.9419277906417847 -0.23657077550888062
vn 0.7447683215141296 -0.6654824018478394 -0.04952958598732948
vn -0.6084318161010742 -0.7619583010673523 -0.2218787670135498
vn -0.7756356000900269 -0.6295347213745117 0.0455562025308609
vn -0.3353845477104187 -0.795872688293457 -0.5040872693061829
vn 0.9811010360717773 0.09612704068422318 -0.16792942583560944
vn 0.8918684124946594 0.4518680274486542 -0.019646085798740387
vn 0.9996888041496277 0.021752387285232544 -0.012214040383696556
vn 0.9497407674789429 -0.033697087317705154 0.31121835112571716
vn -0.6297106146812439 -0.3314458429813385 0.7025725245475769
vn 0.42337870597839355 -0.4216403663158417 0.8018539547920227
vn 0.3916429579257965 -0.09481799602508545 0.915218710899353
vn -0.07348762452602386 0.0657317042350769 0.9951276779174805
vn -0.3247871398925781 0.1022566705942154 0.9402430653572083
vn -0.7357304096221924 -0.5857151746749878 0.3400564193725586
vn -0.7402243614196777 -0.6665856838226318 -0.08792812377214432
vn -0.7753637433052063 -0.6287438273429871 0.05909561365842819
vn 0.1304471492767334 -0.7191804051399231 -0.6824682950973511
vn 0.627683162689209 -0.48271286487579346 -0.6107391119003296
vn -0.690292477607727 -0.5437883138656616 -0.47727417945861816
vn -0.7763615846633911 -0.6302698850631714 0.004742460325360298
vn -0.20074942708015442 -0.28604260087013245 -0.9369521737098694
vn 0.8435796499252319 0.5355598330497742 -0.039354994893074036
vn 0.7625856995582581 0.6439098119735718 0.06199478730559349
vn 0.5246418714523315 0.8435471653938293 0.11479940265417099
vn 0.567779541015625 0.8229719996452332 -0.01852903701364994
vn 0.8543218970298767 -0.005589008796960115 -0.5197142362594604
vn 0.8077492117881775 0.3650250732898712 -0.4629231095314026
vn 0.7798823714256287 0.48185694217681885 0.3994962275028229
vn -0.43774938583374023 -0.15942327678203583 0.8848500847816467
vn -0.4650490880012512 0.20228609442710876 0.8618640899658203
vn 0.42275339365005493 0.6424806714057922 0.6391385793685913
vn 0.03355155885219574 0.8697957396507263 0.4922697842121124
vn -0.11167961359024048 0.6167240738868713 0.7792170643806458
vn -0.1632673293352127 -0.46261632442474365 0.8713952898979187
vn -0.5809468626976013 -0.7573384642601013 0.2982267141342163
vn -0.5790691375732422 -0.693340003490448 -0.4289039969444275
vn -0.7769737243652344 -0.5244945883750916 -0.34816262125968933
vn 0.2202071100473404 0.014854555949568748 -0.9753400087356567
vn -0.6593724489212036 -0.24628892540931702 -0.710330605506897
vn -0.8438159227371216 -0.42367908358573914 -0.32934892177581787
vn -0.41315680742263794 0.04810376092791557 -0.909388542175293
vn 0.6587842702865601 0.6284803748130798 -0.41354045271873474
vn 0.4177548885345459 0.8375295400619507 -0.35217222571372986
vn 0.35768717527389526 0.9335499405860901 0.023329954594373703
vn 0.37957677245140076 0.8974100947380066 0.22489216923713684
vn 0.348675012588501 0.4437660872936249 -0.825528621673584
vn 0.46767351031303406 0.3308457136154175 0.8196479678153992
vn -0.20264823734760284 -0.7395618557929993 0.6418582797050476
vn 0.3154680132865906 -0.0829709991812706 0.94530189037323
vn 0.43660029768943787 -0.03270520642399788 0.8990610241889954
vn -0.28170904517173767 -0.3962208330631256 -0.8738701939582825
vn -0.23401276767253876 -0.12395592033863068 -0.964299201965332
vn -0.473538875579834 -0.8535028100013733 -0.21747134625911713
vn -0.47433286905288696 -0.34795045852661133 -0.8086647987365723
vn -0.41817018389701843 -0.3388442397117615 -0.8428037762641907
vn -0.7785840034484863 -0.28174740076065063 -0.5607364177703857
vn -0.6384871006011963 -0.5862723588943481 -0.49861717224121094
vn -0.0853753313422203 0.46003457903862 -0.8837869167327881
vn -0.5866988897323608 -0.17858996987342834 -0.7898671627044678
vn -0.18184484541416168 0.4145263433456421 -0.8916839957237244
vn 0.05692936107516289 0.8746085166931152 -0.4814760088920593
vn 0.48666298389434814 0.865667462348938 -0.11738422513008118
vn 0.1940925419330597 0.8640093207359314 -0.4645598828792572
vn 0.6479750275611877 0.7444252967834473 0.16111910343170166
vn 0.6741767525672913 0.5161705017089844 0.52825528383255
vn -0.42593279480934143 -0.8470445275306702 0.31795749068260193
vn -0.3997332751750946 -0.6341254115104675 0.6618898510932922
vn 0.044231608510017395 -0.4846804738044739 0.8735721111297607
vn 0.41965776681900024 -0.2241068333387375 0.8795814514160156
vn 0.7920385599136353 0.529205858707428 0.3043290972709656
vn 0.8636758327484131 0.26946821808815 0.4259708523750305
vn 0.052508629858493805 0.08511084318161011 -0.994986891746521
vn 0.030022423714399338 -0.04664115980267525 -0.9984604120254517
vn 0.3515051305294037 0.5954564213752747 -0.7224095463752747
vn 0.3292914628982544 0.3538452088832855 -0.8754202723503113
vn -0.6355524659156799 -0.6926043629646301 -0.341133713722229
vn -0.533233106136322 -0.5409525632858276 -0.6504097580909729
vn -0.7698827981948853 -0.6302517056465149 -0.10031583905220032
vn -0.6147778034210205 -0.7105839848518372 0.3422258794307709
vn -0.5027846693992615 -0.30473366379737854 -0.8089157938957214
vn -0.4837794899940491 0.27189725637435913 -0.8318830728530884
vn -0.7598778605461121 0.4174690246582031 -0.4983023405075073
vn -0.6896113753318787 -0.24830076098442078 -0.6802813410758972
vn 0.6905078887939453 0.7144466638565063 -0.11298152059316635
vn -0.4631345570087433 0.04482794553041458 0.8851536512374878
vn -0.7908126711845398 -0.022349748760461807 0.6116501688957214
vn 0.12948250770568848 -0.22699330747127533 0.9652504324913025
vn 0.4062706530094147 -0.16658636927604675 0.8984392285346985
vn 0.5083556175231934 -0.26490193605422974 0.8193909525871277
vn 0.8303806185722351 0.551018238067627 -0.08274639397859573
vn 0.8493517637252808 0.4776068329811096 0.2247072458267212
vn 0.748136579990387 0.6600909233093262 -0.06761416792869568
vn 0.6989238858222961 0.12951655685901642 0.7033711075782776
vn 0.2540540397167206 0.46841132640838623 -0.8461958169937134
vn 0.5969011783599854 0.4540083110332489 -0.661502480506897
vn -0.5690499544143677 0.6030656099319458 -0.559011697769165
vn -0.765370786190033 -0.46443068981170654 -0.4455466568470001
vn -0.5767852663993835 0.815849781036377 0.0413273423910141
vn -0.9148052930831909 0.0861949697136879 -0.39459043741226196
vn -0.9125797748565674 -0.10005989670753479 0.3964672386646271
vn -0.7184250950813293 0.6708236336708069 0.18401364982128143
vn -0.7517809867858887 0.26003792881965637 0.6059750318527222
vn -0.6670001745223999 0.44826528429985046 0.5951210856437683
vn -0.656882107257843 0.7332303524017334 0.17572468519210815
vn -0.2585631012916565 0.9429051876068115 0.20994022488594055
vn -0.7997879385948181 0.5282741189002991 0.2850714325904846
vn -0.030288400128483772 0.26653167605400085 0.9633500576019287
vn -0.4077424108982086 0.5351815223693848 0.7398154735565186
vn -0.7260443568229675 0.5950025320053101 0.34471970796585083
vn -0.6519999504089355 0.7524582147598267 0.0932883620262146
vn 0.34316715598106384 0.09891350567340851 0.9340515732765198
vn 0.22191545367240906 0.30849161744117737 0.9249790906906128
vn 0.5159146189689636 0.4691961407661438 0.7167198657989502
vn 0.6346216201782227 0.663672149181366 -0.3959730267524719
vn 0.5639625191688538 0.7324797511100769 0.38133931159973145
vn -0.08675915002822876 0.9908502101898193 -0.10338623076677322
vn -0.6613911986351013 0.6757616996765137 0.32543471455574036
vn -0.4645311236381531 0.8802950978279114 0.09639166295528412
vn -0.4993109405040741 0.8554883003234863 -0.1372169405221939
vn -0.8413416147232056 0.38178253173828125 0.3826046288013458
vn -0.0998782142996788 0.9803626537322998 0.17003944516181946
vn -0.2906434237957001 0.8801195025444031 0.37538766860961914
vn -0.18774820864200592 0.9461030960083008 0.2638929486274719
vn -0.37854573130607605 0.8758168816566467 0.29941266775131226
vn -0.3767813444137573 0.921901524066925 0.09018515050411224
vn -0.7497087717056274 0.6119987964630127 0.2517819404602051
vn -0.23002079129219055 0.7196666598320007 0.6551109552383423
vn -0.8286083936691284 0.5586307048797607 -0.03660527244210243
vn -0.6304982304573059 0.7757649421691895 -0.02570420689880848
vn -0.5771004557609558 0.8166311979293823 0.008278800174593925
vn -0.2810671031475067 0.8701037764549255 0.40487122535705566
vn -0.9435926079750061 0.2977038621902466 0.14493246376514435
vn -0.951667070388794 0.3021814525127411 0.054918594658374786
vn -0.9237058162689209 0.3739188611507416 0.08337991684675217
vn -0.8939145803451538 0.020337332040071487 0.44777587056159973
vn -0.9862319827079773 0.10646367818117142 0.1265387088060379
vn -0.9024142026901245 0.27929672598838806 0.32808804512023926
vn -0.9662720561027527 0.16781793534755707 0.1953345537185669
vn -0.21062971651554108 0.9770196080207825 -0.03267647698521614
vn -0.5144465565681458 0.8524386882781982 0.09323661029338837
vn -0.4860811233520508 0.8676919937133789 0.10409460216760635
vn -0.14282020926475525 0.9873390793800354 -0.06902124732732773
vn -0.8868700861930847 0.4257552921772003 -0.17942656576633453
vn -0.816958487033844 0.5582033395767212 0.1448720544576645
vn -0.7108622789382935 0.6849007606506348 -0.15995565056800842
vn -0.8283833861351013 0.35181334614753723 0.43589937686920166
vn -0.6426552534103394 0.6591638326644897 0.3905090093612671
vn -0.9300042986869812 0.261584609746933 0.25819653272628784
vn -0.6366996169090271 0.7673261761665344 0.0763169452548027
f 1//1 2//2 3//3
f 4//4 1//1 5//5
f 1//1 6//6 2//2
f 3//3 5//5 1//1
f 7//7 8//8 1//1
f 8//8 6//6 1//1
f 1//1 4//4 7//7
f 6//6 9//9 2//2
f 10//10 3//3 2//2
f 2//2 9//9 10//10
f 3//3 11//11 12//12
f 3//3 13//13 11//11
f 3//3 12//12 5//5
f 10//10 13//13 3//3
f 11//11 14//14 4//4
f 5//5 11//11 4//4
f 4//4 15//15 16//16
f 4//4 14//14 15//15
f 4//4 16//16 7//7
f 5//5 12//12 11//11
f 8//8 17//17 6//6
f 9//9 6//6 18//18
f 18//18 6//6 17//17
f 19//19 8//8 7//7
f 20//20 19//19 7//7
f 7//7 16//16 20//20
f 17//17 8//8 21//21
f 8//8 19//19 21//21
f 22//22 9//9 23//23
f 9//9 24//24 23//23
f 10//10 9//9 22//22
f 18//18 24//24 9//9
f 25//25 13//13 10//10
f 22//22 25//25 10//10
f 14//14 11//11 26//26
f 13//13 27//27 11//11
f 27//27 28//28 11//11
f 28//28 29//29 11//11
f 29//29 30//30 11//11
f 30//30 26//26 11//11
f 25//25 27//27 13//13
f 26//26 31//31 14//14
f 14//14 31//31 32//32
f 14//14 32//32 15//15
f 15//15 33//33 16//16
f 15//15 32//32 33//33
f 16//16 33//33 20//20
f 21//21 34//34 17//17
f 34//34 35//35 17//17
f 18//18 17//17 35//35
f 24//24 18//18 35//35
f 21//21 19//19 36//36
f 36//36 19//19 20//20
f 36//36 20//20 37//37
f 37//37 20//20 33//33
f 38//38 21//21 36//36
f 38//38 34//34 21//21
f 39//39 22//22 23//23
f 22//22 39//39 25//25
f 24//24 40//40 23//23
f 23//23 40//40 41//41
f 39//39 23//23 42//42
f 23//23 41//41 42//42
f 43//43 44//44 24//24
f 24//24 44//44 40//40
f 43//43 24//24 35//35
f 45//45 25//25 39//39
f 27//27 25//25 28//28
f 25//25 45//45 28//28
f 26//26 46//46 31//31
f 46//46 26//26 47//47
f 26//26 30//30 47//47
f 28//28 45//45 48//48
f 29//29 28//28 48//48
f 49//49 30//30 29//29
f 48//48 49//49 29//29
f 30//30 50//50 47//47
f 50//50 30//30 49//49
f 51//51 31//31 46//46
f 52//52 31//31 51//51
f 31//31 52//52 32//32
f 32//32 52//52 53//53
f 53//53 54//54 32//32
f 37//37 33//33 32//32
f 32//32 54//54 37//37
f 34//34 38//38 35//35
f 38//38 55//55 35//35
f 55//55 43//43 35//35
f 36//36 56//56 38//38
f 57//57 56//56 36//36
f 57//57 36//36 37//37
f 54//54 57//57 37//37
f 38//38 56//56 58//58
f 55//55 38//38 58//58
f 42//42 45//45 39//39
f 40//40 44//44 59//59
f 59//59 60//60 40//40
f 60//60 61//61 40//40
f 61//61 41//41 40//40
f 62//62 41//41 61//61
f 62//62 49//49 41//41
f 42//42 41//41 49//49
f 48//48 45//45 42//42
f 48//48 42//42 49//49
f 43//43 55//55 44//44
f 63//63 44//44 55//55
f 59//59 44//44 63//63
f 50//50 64//64 46//46
f 47//47 50//50 46//46
f 51//51 46//46 64//64
f 50//50 49//49 62//62
f 50//50 62//62 64//64
f 65//65 52//52 51//51
f 66//66 67//67 51//51
f 67//67 65//65 51//51
f 64//64 66//66 51//51
f 53//53 52//52 65//65
f 68//68 69//69 53//53
f 70//70 53//53 65//65
f 69//69 71//71 53//53
f 54//54 53//53 71//71
f 53//53 70//70 72//72
f 68//68 53//53 72//72
f 73//73 57//57 54//54
f 71//71 74//74 54//54
f 54//54 74//74 73//73
f 55//55 75//75 63//63
f 55//55 58//58 75//75
f 58//58 56//56 73//73
f 56//56 57//57 73//73
f 73//73 76//76 58//58
f 77//77 58//58 76//76
f 75//75 58//58 77//77
f 63//63 60//60 59//59
f 78//78 60//60 75//75
f 63//63 75//75 60//60
f 60//60 78//78 61//61
f 79//79 61//61 80//80
f 61//61 79//79 62//62
f 78//78 80//80 61//61
f 81//81 62//62 79//79
f 81//81 64//64 62//62
f 64//64 81//81 82//82
f 82//82 66//66 64//64
f 65//65 83//83 70//70
f 84//84 83//83 65//65
f 85//85 84//84 65//65
f 65//65 86//86 85//85
f 67//67 86//86 65//65
f 66//66 82//82 67//67
f 87//87 67//67 82//82
f 86//86 67//67 88//88
f 87//87 88//88 67//67
f 68//68 72//72 89//89
f 68//68 89//89 90//90
f 68//68 90//90 69//69
f 69//69 91//91 77//77
f 69//69 77//77 71//71
f 69//69 90//90 92//92
f 92//92 91//91 69//69
f 70//70 93//93 94//94
f 94//94 72//72 70//70
f 93//93 70//70 95//95
f 70//70 96//96 95//95
f 96//96 70//70 83//83
f 71//71 77//77 97//97
f 71//71 97//97 74//74
f 98//98 72//72 99//99
f 99//99 72//72 100//100
f 72//72 94//94 100//100
f 72//72 98//98 89//89
f 74//74 76//76 73//73
f 74//74 97//97 76//76
f 78//78 75//75 77//77
f 77//77 76//76 97//97
f 91//91 80//80 77//77
f 80//80 78//78 77//77
f 80//80 91//91 79//79
f 91//91 101//101 79//79
f 101//101 81//81 79//79
f 82//82 81//81 101//101
f 82//82 101//101 87//87
f 96//96 83//83 84//84
f 102//102 103//103 84//84
f 84//84 103//103 96//96
f 84//84 85//85 102//102
f 104//104 102//102 85//85
f 105//105 85//85 106//106
f 85//85 86//86 106//106
f 85//85 105//105 104//104
f 88//88 106//106 86//86
f 101//101 107//107 87//87
f 88//88 87//87 107//107
f 108//108 88//88 109//109
f 88//88 107//107 109//109
f 110//110 88//88 108//108
f 88//88 110//110 106//106
f 89//89 111//111 112//112
f 113//113 89//89 98//98
f 112//112 90//90 89//89
f 113//113 111//111 89//89
f 112//112 92//92 90//90
f 91//91 92//92 101//101
f 112//112 101//101 92//92
f 114//114 94//94 93//93
f 114//114 93//93 95//95
f 94//94 114//114 100//100
f 95//95 115//115 116//116
f 95//95 96//96 117//117
f 95//95 118//118 115//115
f 116//116 114//114 95//95
f 117//117 118//118 95//95
f 96//96 119//119 117//117
f 103//103 120//120 96//96
f 120//120 119//119 96//96
f 98//98 121//121 113//113
f 99//99 121//121 98//98
f 122//122 99//99 116//116
f 116//116 99//99 100//100
f 99//99 122//122 121//121
f 100//100 114//114 116//116
f 101//101 112//112 107//107
f 103//103 102//102 123//123
f 102//102 124//124 125//125
f 126//126 123//123 102//102
f 126//126 102//102 125//125
f 124//124 102//102 104//104
f 127//127 103//103 123//123
f 120//120 103//103 127//127
f 104//104 128//128 129//129
f 105//105 128//128 104//104
f 129//129 124//124 104//104
f 105//105 106//106 110//110
f 110//110 130//130 105//105
f 128//128 105//105 130//130
f 107//107 112//112 131//131
f 131//131 109//109 107//107
f 108//108 109//109 132//132
f 108//108 130//130 110//110
f 108//108 132//132 130//130
f 131//131 133//133 109//109
f 109//109 134//134 132//132
f 135//135 109//109 133//133
f 109//109 135//135 134//134
f 111//111 131//131 112//112
f 136//136 131//131 111//111
f 136//136 111//111 113//113
f 137//137 113//113 121//121
f 137//137 136//136 113//113
f 122//122 116//116 115//115
f 115//115 118//118 138//138
f 122//122 115//115 139//139
f 115//115 138//138 139//139
f 117//117 140//140 118//118
f 117//117 119//119 140//140
f 140//140 138//138 118//118
f 120//120 141//141 119//119
f 119//119 141//141 140//140
f 127//127 142//142 120//120
f 142//142 141//141 120//120
f 121//121 122//122 139//139
f 143//143 121//121 139//139
f 143//143 137//137 121//121
f 127//127 123//123 126//126
f 124//124 129//129 144//144
f 124//124 144//144 125//125
f 144//144 126//126 125//125
f 145//145 127//127 126//126
f 145//145 126//126 144//144
f 142//142 127//127 146//146
f 146//146 127//127 145//145
f 129//129 128//128 130//130
f 129//129 130//130 144//144
f 130//130 132//132 144//144
f 131//131 136//136 147//147
f 131//131 147//147 133//133
f 134//134 148//148 132//132
f 148//148 144//144 132//132
f 133//133 147//147 149//149
f 149//149 150//150 133//133
f 135//135 133//133 150//150
f 151//151 134//134 152//152
f 145//145 134//134 151//151
f 134//134 145//145 148//148
f 135//135 153//153 134//134
f 152//152 134//134 153//153
f 135//135 150//150 153//153
f 147//147 136//136 154//154
f 154//154 136//136 137//137
f 149//149 154//154 137//137
f 143//143 155//155 137//137
f 149//149 137//137 155//155
f 156//156 138//138 140//140
f 139//139 138//138 157//157
f 138//138 158//158 157//157
f 138//138 156//156 158//158
f 157//157 143//143 139//139
f 140//140 141//141 159//159
f 159//159 156//156 140//140
f 142//142 159//159 141//141
f 156//156 159//159 142//142
f 156//156 142//142 146//146
f 160//160 143//143 161//161
f 143//143 157//157 162//162
f 155//155 143//143 160//160
f 143//143 162//162 161//161
f 144//144 148//148 145//145
f 151//151 146//146 145//145
f 146//146 151//151 163//163
f 156//156 146//146 158//158
f 158//158 146//146 164//164
f 163//163 164//164 146//146
f 154//154 149//149 147//147
f 149//149 155//155 150//150
f 155//155 153//153 150//150
f 151//151 152//152 163//163
f 152//152 153//153 165//165
f 163//163 152//152 165//165
f 153//153 155//155 160//160
f 160//160 165//165 153//153
f 166//166 162//162 157//157
f 157//157 158//158 166//166
f 164//164 166//166 158//158
f 165//165 160//160 161//161
f 162//162 166//166 161//161
f 166//166 164//164 161//161
f 164//164 163//163 161//161
f 163//163 165//165 161//161
