# Generated by Visualization Toolkit
v 0.05899300053715706 -0.17026400566101074 0.009820000268518925
v 0.060256000608205795 -0.1702529937028885 0.01005799975246191
v 0.061452001333236694 -0.17077100276947021 0.012174000032246113
v 0.057861000299453735 -0.17077699303627014 0.012484000064432621
v 0.058681000024080276 -0.16942599415779114 0.009074999950826168
v 0.05709100142121315 -0.1702290028333664 0.010258999653160572
v 0.06159200146794319 -0.17076900601387024 0.010243000462651253
v 0.0606129989027977 -0.17005500197410583 0.0087890001013875
v 0.062247999012470245 -0.17090199887752533 0.011753999628126621
v 0.058003999292850494 -0.17059199512004852 0.013044999912381172
v 0.06241400167346001 -0.17059700191020966 0.013365999795496464
v 0.051141999661922455 -0.1693509966135025 0.010324999690055847
v 0.056758999824523926 -0.1702679991722107 0.012984000146389008
v 0.05449499934911728 -0.16976499557495117 0.012684999965131283
v 0.057645998895168304 -0.16843099892139435 0.007842999882996082
v 0.05714799836277962 -0.16863200068473816 0.008724000304937363
v 0.05676800012588501 -0.16830700635910034 0.008340000174939632
v 0.053677998483181 -0.16829100251197815 0.00810800027102232
v 0.05575399845838547 -0.16851499676704407 0.008471000008285046
v 0.06336700171232224 -0.17038600146770477 0.011962000280618668
v 0.062950000166893 -0.1701039969921112 0.01015899982303381
v 0.062077999114990234 -0.1701200008392334 0.009631999768316746
v 0.0598829984664917 -0.1685599982738495 0.007644999772310257
v 0.06194499880075455 -0.16947700083255768 0.00880299974232912
v 0.061802998185157776 -0.16982899606227875 0.009246000088751316
v 0.05776999890804291 -0.16783100366592407 0.0074339997954666615
v 0.061868999153375626 -0.17038099467754364 0.014310999773442745
v 0.06083099916577339 -0.16996300220489502 0.01497699972242117
v 0.05902799963951111 -0.1694979965686798 0.015193000435829163
v 0.05695800110697746 -0.1689939945936203 0.014266000129282475
v 0.06266099959611893 -0.17027199268341064 0.013931999914348125
v 0.06316500157117844 -0.17036199569702148 0.01296900026500225
v 0.04991000145673752 -0.1680939942598343 0.006320000160485506
v 0.04707000032067299 -0.16872699558734894 0.008464000187814236
v 0.05098700150847435 -0.16924400627613068 0.012005000375211239
v 0.056464001536369324 -0.16863100230693817 0.014217999763786793
v 0.055247001349925995 -0.169172003865242 0.013774000108242035
v 0.056033000349998474 -0.16899000108242035 0.014001999981701374
v 0.05291400104761124 -0.1684499979019165 0.014275999739766121
v 0.05725099891424179 -0.16773200035095215 0.007586999796330929
v 0.05682399868965149 -0.16776999831199646 0.007846999913454056
v 0.05655299872159958 -0.16791799664497375 0.008899999782443047
v 0.05050399899482727 -0.16740800440311432 0.006006999872624874
v 0.05176100134849548 -0.16718000173568726 0.006767000071704388
v 0.05390600115060806 -0.167153000831604 0.008830999955534935
v 0.05589799955487251 -0.16790400445461273 0.009196000173687935
v 0.06306400150060654 -0.1698250025510788 0.012450999580323696
v 0.0626479983329773 -0.16990800201892853 0.00964100006967783
v 0.0615679994225502 -0.1686519980430603 0.008880999870598316
v 0.059101998805999756 -0.16790999472141266 0.007734999991953373
v 0.059783998876810074 -0.16791200637817383 0.008186999708414078
v 0.05811399966478348 -0.16735200583934784 0.007987000048160553
v 0.057367999106645584 -0.1672399938106537 0.007925000041723251
v 0.06128700077533722 -0.1697929948568344 0.015204999595880508
v 0.06173599883913994 -0.16934700310230255 0.0143630001693964
v 0.06137099862098694 -0.16928599774837494 0.015053999610245228
v 0.05987799912691116 -0.169063001871109 0.01576700061559677
v 0.056373000144958496 -0.16833999752998352 0.015052000060677528
v 0.058490000665187836 -0.16858099400997162 0.015789000317454338
v 0.04960000142455101 -0.1677899956703186 0.005568999797105789
v 0.05001499876379967 -0.16721099615097046 0.005541999824345112
v 0.04807300120592117 -0.1685599982738495 0.005526999942958355
v 0.047589998692274094 -0.16881999373435974 0.006304999813437462
v 0.04613799974322319 -0.16872799396514893 0.0073449998162686825
v 0.04466500133275986 -0.1684039980173111 0.00979399960488081
v 0.051017001271247864 -0.1686059981584549 0.013538000173866749
v 0.04881900176405907 -0.1682409942150116 0.013679999858140945
v 0.04483800008893013 -0.16838400065898895 0.012032000347971916
v 0.04575299844145775 -0.16797800362110138 0.0136329997330904
v 0.05594300106167793 -0.1680230051279068 0.014570999890565872
v 0.05581099912524223 -0.16835300624370575 0.014210999943315983
v 0.055084001272916794 -0.16860100626945496 0.014124000445008278
v 0.050411999225616455 -0.16737399995326996 0.014340999536216259
v 0.054712001234292984 -0.1681949943304062 0.01398400031030178
v 0.05315300077199936 -0.16772599518299103 0.014193999581038952
v 0.05694099888205528 -0.1676730066537857 0.009615999646484852
v 0.04910700023174286 -0.16489100456237793 0.00495600001886487
v 0.04956600069999695 -0.16356100142002106 0.008379999548196793
v 0.054308000952005386 -0.167385995388031 0.01285600010305643
v 0.0486610010266304 -0.16368399560451508 0.006378000136464834
v 0.05617399886250496 -0.16757400333881378 0.011532999575138092
v 0.060006000101566315 -0.1685509979724884 0.015591000206768513
v 0.058476999402046204 -0.1676969975233078 0.01191799994558096
v 0.05575300008058548 -0.16803400218486786 0.015189000405371189
v 0.05704300105571747 -0.16808199882507324 0.015604999847710133
v 0.04791700094938278 -0.16727599501609802 0.004267999902367592
v 0.048271000385284424 -0.16575300693511963 0.004116999916732311
v 0.04699600115418434 -0.16813300549983978 0.005247999913990498
v 0.04766499996185303 -0.16785399615764618 0.004639000166207552
v 0.04641500115394592 -0.1683720052242279 0.00636299978941679
v 0.04506799951195717 -0.16844099760055542 0.008702999912202358
v 0.04559699818491936 -0.16841499507427216 0.007596000097692013
v 0.04681200161576271 -0.16677699983119965 0.010173999704420567
v 0.045086998492479324 -0.16810299456119537 0.011626999825239182
v 0.04597700014710426 -0.16729700565338135 0.013213999569416046
v 0.04742899909615517 -0.16627199947834015 0.015530000440776348
v 0.04600000008940697 -0.16708800196647644 0.014897000044584274
v 0.045935001224279404 -0.16756799817085266 0.014353999868035316
v 0.045823998749256134 -0.16741999983787537 0.013736000284552574
v 0.05644499883055687 -0.16739599406719208 0.015104999765753746
v 0.05534899979829788 -0.16801400482654572 0.01372000016272068
v 0.05648300051689148 -0.16779400408267975 0.013767999596893787
v 0.052319999784231186 -0.1666090041399002 0.01420500036329031
v 0.051336999982595444 -0.166020005941391 0.014395000413060188
v 0.05419100075960159 -0.16771200299263 0.013593999668955803
v 0.04863300174474716 -0.16470099985599518 0.004856000188738108
v 0.04910600185394287 -0.16334199905395508 0.014058000408113003
v 0.04892199859023094 -0.16328899562358856 0.00922400038689375
v 0.04902099817991257 -0.16325999796390533 0.008369999937713146
v 0.047630999237298965 -0.16381800174713135 0.0062049999833106995
v 0.04755600169301033 -0.16626399755477905 0.004240000154823065
v 0.04730699956417084 -0.1669439971446991 0.004288999829441309
v 0.0474650003015995 -0.16538099944591522 0.004569999873638153
v 0.04687799885869026 -0.1672939956188202 0.004896000027656555
v 0.04734800010919571 -0.16628000140190125 0.008652999997138977
v 0.04714199900627136 -0.16637399792671204 0.010753000155091286
v 0.04732099920511246 -0.16557499766349792 0.01016400009393692
v 0.04613199830055237 -0.16695399582386017 0.013628999702632427
v 0.045566000044345856 -0.1655150055885315 0.015386000275611877
v 0.046925999224185944 -0.16539700329303741 0.01571499928832054
v 0.04879000037908554 -0.16486799716949463 0.015405000187456608
v 0.0460209995508194 -0.16701699793338776 0.014255000278353691
v 0.045715998858213425 -0.16498799622058868 0.01487400010228157
v 0.048966001719236374 -0.16418899595737457 0.015123999677598476
v 0.0474729984998703 -0.16479000449180603 0.005028000101447105
v 0.04830799996852875 -0.16391000151634216 0.015169999562203884
v 0.04737100005149841 -0.16305500268936157 0.013748000375926495
v 0.04724400117993355 -0.16307300329208374 0.010900000110268593
v 0.04737100005149841 -0.16321200132369995 0.010001000016927719
v 0.04709500074386597 -0.16349400579929352 0.008768999949097633
v 0.047690000385046005 -0.1646990031003952 0.007953999564051628
v 0.04765100032091141 -0.1646140068769455 0.009046000428497791
v 0.04758000001311302 -0.16504399478435516 0.0096859997138381
v 0.04715200141072273 -0.1653680056333542 0.012365000322461128
v 0.0472479984164238 -0.16418400406837463 0.009995000436902046
v 0.047547001391649246 -0.16500599682331085 0.010828999802470207
v 0.045820001512765884 -0.16449399292469025 0.015181999653577805
v 0.04634200036525726 -0.1637129932641983 0.01368900015950203
v 0.04744499921798706 -0.1646289974451065 0.011784999631345272
v 0.04632499814033508 -0.16404299437999725 0.014986000023782253
v 0.046925000846385956 -0.1633410006761551 0.014240999706089497
v 0.04696200042963028 -0.16350600123405457 0.010081999935209751
vn -0.010356276296079159 -0.8915343880653381 -0.4528345465660095
vn -0.17137549817562103 -0.9293369650840759 -0.3270522654056549
vn -0.07743871212005615 -0.9967592358589172 0.02178271859884262
vn -0.14430229365825653 -0.9847697019577026 0.09698143601417542
vn -0.23581448197364807 -0.8123484253883362 -0.5333681702613831
vn -0.061528000980615616 -0.8095634579658508 -0.5837989449501038
vn 0.10133835673332214 -0.9501739144325256 -0.29478833079338074
vn 0.009885110892355442 -0.7894614934921265 -0.6137204766273499
vn 0.16130761802196503 -0.9868428707122803 0.011007120832800865
vn -0.14658917486667633 -0.8967440128326416 0.41756629943847656
vn 0.2012908160686493 -0.955922544002533 0.21376179158687592
vn -0.11525426059961319 -0.9811668395996094 -0.1550094485282898
vn -0.2118811458349228 -0.748935341835022 0.627855122089386
vn -0.21804098784923553 -0.8973182439804077 0.3837684392929077
vn -0.33436495065689087 -0.6623502969741821 -0.6704416871070862
vn -0.14431048929691315 -0.7701579332351685 -0.6213141679763794
vn -0.406749963760376 -0.5076172947883606 -0.7595255970954895
vn 0.312455952167511 -0.43024978041648865 -0.8469099402427673
vn 0.04320995882153511 0.2974774241447449 -0.9537506103515625
vn 0.7786609530448914 -0.6255359649658203 -0.048906877636909485
vn 0.8758958578109741 -0.19113993644714355 -0.4430258274078369
vn 0.32176700234413147 -0.7260493040084839 -0.6077156066894531
vn 0.3683544397354126 0.15858978033065796 -0.9160590767860413
vn 0.5313564538955688 -0.3393899202346802 -0.7761925458908081
vn 0.2993616759777069 -0.7170267105102539 -0.6294880509376526
vn -0.010415252298116684 0.11887171864509583 -0.9928550720214844
vn 0.4364939033985138 -0.6353065371513367 0.6370702981948853
vn -0.08261603862047195 -0.8079293370246887 0.5834592580795288
vn -0.2692711353302002 -0.7397747039794922 0.6166250705718994
vn -0.4324039816856384 -0.7356458306312561 0.5213941931724548
vn 0.74416184425354 -0.18216010928153992 0.6426825523376465
vn 0.8810730576515198 -0.33609452843666077 0.3327922224998474
vn 0.3338281512260437 -0.8505419492721558 -0.406370609998703
vn -0.02544156275689602 -0.9996668100357056 -0.004367094952613115
vn -0.13981637358665466 -0.9608535170555115 0.23919038474559784
vn -0.39172565937042236 -0.6689503788948059 0.6317091584205627
vn -0.11210758239030838 -0.6732959151268005 0.7308245301246643
vn -0.05421504005789757 -0.4974963963031769 0.865770161151886
vn -0.051004886627197266 -0.47191664576530457 0.8801665902137756
vn -0.643778920173645 0.23401828110218048 -0.7285493016242981
vn -0.5009599924087524 -0.4740963578224182 -0.7240661978721619
vn -0.5415561199188232 0.7276268005371094 -0.4210420250892639
vn 0.4497363567352295 -0.45874232053756714 -0.766350269317627
vn 0.615541934967041 0.001728453440591693 -0.7881022095680237
vn 0.5309040546417236 0.7113433480262756 -0.46057745814323425
vn 0.04781718552112579 0.9210383892059326 -0.38652512431144714
vn 0.7851822972297668 0.6038469672203064 0.13732250034809113
vn 0.641627311706543 -0.3668181896209717 -0.6736162304878235
vn 0.620983362197876 0.7490764856338501 -0.23079046607017517
vn 0.30566689372062683 0.6390129923820496 -0.7058542370796204
vn 0.41444820165634155 0.8381028771400452 -0.3547061085700989
vn 0.24788588285446167 0.8892754912376404 -0.38437193632125854
vn -0.30069980025291443 0.8996058106422424 -0.31668442487716675
vn 0.41014108061790466 -0.2785686254501343 0.868437647819519
vn 0.6699389815330505 0.6208460330963135 0.40710175037384033
vn 0.7527055740356445 0.3134463429450989 0.5789523124694824
vn 0.040983933955430984 -0.3629271388053894 0.9309157729148865
vn -0.45662257075309753 -0.7943148612976074 0.400699257850647
vn -0.15112921595573425 -0.2540915310382843 0.9552996754646301
vn 0.4955417811870575 -0.5967998504638672 -0.6310849785804749
vn 0.5730613470077515 -0.3115781843662262 -0.7579708099365234
vn 0.18601113557815552 -0.827433168888092 -0.5298623442649841
vn -0.0657271072268486 -0.9750222563743591 -0.2121591717004776
vn -0.3563668727874756 -0.9135568141937256 -0.1960015445947647
vn -0.9641674757003784 -0.26039066910743713 -0.05077211558818817
vn -0.12572741508483887 -0.7815101742744446 0.6110928654670715
vn -0.036471519619226456 -0.7761922478675842 0.6294406056404114
vn -0.9144368171691895 -0.2625259757041931 0.3080345094203949
vn -0.8764591813087463 -0.2910420000553131 0.3835543394088745
vn -0.9556739926338196 -0.29376256465911865 -0.01976616308093071
vn -0.4915722906589508 0.36471569538116455 0.7907838821411133
vn -0.018427452072501183 0.02746639959514141 0.9994528889656067
vn 0.04501358047127724 -0.3136083781719208 0.9484848976135254
vn 0.18164478242397308 0.50658118724823 0.8428406715393066
vn 0.22533808648586273 0.27982160449028015 0.933232307434082
vn -0.22227060794830322 0.9742119908332825 -0.038819726556539536
vn 0.5885132551193237 0.3921906054019928 -0.7069926261901855
vn 0.5457360148429871 0.8334966897964478 -0.08634620159864426
vn 0.5143073797225952 0.8129965662956238 0.272991806268692
vn 0.35690033435821533 0.8472414612770081 -0.3934512734413147
vn 0.1090206429362297 0.9906073212623596 0.08253201842308044
vn 0.3820579946041107 0.7102206349372864 0.5912852883338928
vn 0.15296564996242523 0.9854604601860046 0.07395417243242264
vn -0.7947247624397278 -0.24374152719974518 0.555880069732666
vn 0.00911510270088911 0.3496088981628418 0.9368513226509094
vn 0.2024344950914383 -0.37171700596809387 -0.906005859375
vn 0.16975097358226776 0.21916143596172333 -0.960808515548706
vn -0.4480028748512268 -0.6972869038581848 -0.5595394372940063
vn -0.2431677132844925 -0.5933430194854736 -0.7673417925834656
vn -0.8101506233215332 -0.36399224400520325 -0.45952755212783813
vn -0.9356173276901245 0.1733863204717636 -0.30750197172164917
vn -0.8684691786766052 -0.025037942454218864 -0.49511033296585083
vn -0.754901111125946 0.6538518071174622 -0.051013458520174026
vn -0.7381901144981384 0.66178959608078 0.1308051347732544
vn -0.8152897357940674 0.5770155787467957 -0.04853490740060806
vn 0.06789468228816986 -0.3745412230491638 0.9247211813926697
vn -0.758171021938324 -0.4612569510936737 0.46088898181915283
vn -0.8388311266899109 -0.32666370272636414 0.4354918897151947
vn -0.9498834013938904 0.3124656081199646 -0.009322036989033222
vn -0.37522169947624207 0.9267730116844177 -0.017330439761281013
vn -0.024140816181898117 0.7995270490646362 0.6001448035240173
vn -0.2966800630092621 0.9512757658958435 0.08399621397256851
vn 0.40166541934013367 0.40647462010383606 0.8206358551979065
vn 0.46416860818862915 0.260875940322876 0.8464580774307251
vn 0.35582730174064636 0.7501879930496216 0.5573192238807678
vn 0.04835772514343262 0.702610194683075 -0.7099297642707825
vn 0.3910166621208191 0.8681042194366455 0.3057793974876404
vn 0.21276402473449707 0.97708660364151 -0.0057667456567287445
vn 0.10838483273983002 0.9871671795845032 -0.11727626621723175
vn -0.7038277983665466 0.6527765393257141 -0.28019481897354126
vn -0.320482075214386 0.0972515344619751 -0.9422491192817688
vn -0.5374937057495117 -0.13217563927173615 -0.8328445553779602
vn -0.798474133014679 0.3116328716278076 -0.5150961875915527
vn -0.9216440916061401 -0.013924987055361271 -0.3877861499786377
vn -0.8891949653625488 0.4419410228729248 -0.11840809136629105
vn -0.8890713453292847 0.4527234733104706 -0.06777531653642654
vn -0.966917097568512 0.24089805781841278 -0.08390137553215027
vn -0.9050663113594055 0.35898712277412415 -0.22799816727638245
vn -0.732344925403595 -0.08627688139677048 0.6754459142684937
vn -0.05667779594659805 0.11285146325826645 0.9919941425323486
vn 0.24979981780052185 0.11440222710371017 0.9615155458450317
vn -0.9905201196670532 0.1349281370639801 -0.025772687047719955
vn -0.9529806971549988 0.03293055295944214 -0.30123642086982727
vn 0.42070114612579346 0.4855367839336395 0.7663318514823914
vn -0.6162386536598206 0.5728647708892822 -0.5404404997825623
vn 0.05045594647526741 0.626099705696106 0.7781088948249817
vn -0.3233618140220642 0.9354218244552612 0.1429092437028885
vn -0.2936387062072754 0.9525498151779175 -0.0801563486456871
vn -0.27424564957618713 0.9544513821601868 -0.11752411723136902
vn -0.9573025703430176 0.23501494526863098 -0.1683446168899536
vn -0.9998940229415894 -0.005920893047004938 -0.013302238658070564
vn -0.9805247187614441 -0.1696362942457199 -0.09896887093782425
vn -0.9645690321922302 0.031064195558428764 -0.2619953453540802
vn -0.9317691326141357 0.23128120601177216 -0.27984875440597534
vn -0.9507030248641968 -0.2897854149341583 -0.11040034890174866
vn -0.9948354363441467 0.10060104727745056 0.013489347882568836
vn -0.6996546983718872 0.5912830829620361 0.40108299255371094
vn -0.903089702129364 0.40747639536857605 -0.13561660051345825
vn -0.9508275389671326 -0.20345953106880188 -0.23351916670799255
vn -0.2904517650604248 0.7269930839538574 0.6221888065338135
vn -0.4584849774837494 0.8465055823326111 0.2705915868282318
vn -0.973624587059021 0.18758182227611542 -0.12987777590751648
f 1//1 2//2 3//3
f 1//1 3//3 4//4
f 1//1 5//5 2//2
f 6//6 1//1 4//4
f 6//6 5//5 1//1
f 3//3 2//2 7//7
f 2//2 5//5 8//8
f 2//2 8//8 7//7
f 3//3 7//7 9//9
f 3//3 10//10 4//4
f 3//3 11//11 10//10
f 11//11 3//3 9//9
f 6//6 4//4 12//12
f 4//4 10//10 13//13
f 4//4 13//13 14//14
f 12//12 4//4 14//14
f 8//8 5//5 15//15
f 16//16 5//5 6//6
f 5//5 17//17 15//15
f 5//5 16//16 17//17
f 18//18 6//6 12//12
f 19//19 6//6 18//18
f 6//6 17//17 16//16
f 6//6 19//19 17//17
f 9//9 7//7 20//20
f 20//20 7//7 21//21
f 7//7 8//8 22//22
f 7//7 22//22 21//21
f 8//8 23//23 24//24
f 25//25 8//8 24//24
f 23//23 8//8 26//26
f 26//26 8//8 15//15
f 22//22 8//8 25//25
f 9//9 20//20 11//11
f 10//10 27//27 28//28
f 10//10 28//28 29//29
f 30//30 10//10 29//29
f 30//30 13//13 10//10
f 10//10 11//11 27//27
f 31//31 11//11 32//32
f 27//27 11//11 31//31
f 32//32 11//11 20//20
f 33//33 18//18 12//12
f 34//34 33//33 12//12
f 12//12 14//14 35//35
f 34//34 12//12 35//35
f 36//36 13//13 30//30
f 37//37 14//14 13//13
f 13//13 36//36 38//38
f 13//13 38//38 37//37
f 39//39 35//35 14//14
f 14//14 37//37 39//39
f 15//15 40//40 26//26
f 15//15 41//41 40//40
f 17//17 41//41 15//15
f 17//17 40//40 41//41
f 40//40 17//17 42//42
f 19//19 42//42 17//17
f 18//18 33//33 43//43
f 18//18 43//43 44//44
f 45//45 18//18 44//44
f 19//19 18//18 45//45
f 46//46 19//19 45//45
f 19//19 46//46 42//42
f 47//47 20//20 21//21
f 47//47 32//32 20//20
f 21//21 22//22 48//48
f 49//49 47//47 21//21
f 49//49 21//21 48//48
f 48//48 22//22 25//25
f 49//49 24//24 23//23
f 23//23 26//26 50//50
f 51//51 49//49 23//23
f 50//50 51//51 23//23
f 48//48 25//25 24//24
f 48//48 24//24 49//49
f 50//50 26//26 52//52
f 40//40 53//53 26//26
f 52//52 26//26 53//53
f 27//27 54//54 28//28
f 31//31 55//55 27//27
f 55//55 56//56 27//27
f 27//27 56//56 54//54
f 28//28 54//54 57//57
f 28//28 57//57 29//29
f 29//29 58//58 30//30
f 57//57 59//59 29//29
f 59//59 58//58 29//29
f 36//36 30//30 58//58
f 47//47 31//31 32//32
f 31//31 47//47 55//55
f 33//33 60//60 61//61
f 62//62 60//60 33//33
f 61//61 43//43 33//33
f 63//63 62//62 33//33
f 34//34 63//63 33//33
f 63//63 34//34 64//64
f 34//34 35//35 65//65
f 64//64 34//34 65//65
f 35//35 39//39 66//66
f 35//35 66//66 67//67
f 35//35 68//68 65//65
f 35//35 69//69 68//68
f 35//35 67//67 69//69
f 70//70 71//71 36//36
f 36//36 58//58 70//70
f 38//38 36//36 71//71
f 72//72 37//37 38//38
f 72//72 39//39 37//37
f 72//72 38//38 71//71
f 73//73 66//66 39//39
f 74//74 39//39 72//72
f 75//75 73//73 39//39
f 74//74 75//75 39//39
f 53//53 40//40 42//42
f 53//53 42//42 76//76
f 46//46 76//76 42//42
f 61//61 44//44 43//43
f 45//45 44//44 77//77
f 77//77 44//44 61//61
f 45//45 78//78 79//79
f 80//80 45//45 77//77
f 80//80 78//78 45//45
f 45//45 81//81 46//46
f 45//45 79//79 81//81
f 76//76 46//46 81//81
f 55//55 47//47 49//49
f 82//82 55//55 49//49
f 49//49 51//51 83//83
f 82//82 49//49 83//83
f 52//52 51//51 50//50
f 83//83 51//51 52//52
f 83//83 52//52 53//53
f 53//53 76//76 83//83
f 54//54 82//82 57//57
f 82//82 54//54 56//56
f 55//55 82//82 56//56
f 82//82 59//59 57//57
f 84//84 58//58 85//85
f 59//59 85//85 58//58
f 70//70 58//58 84//84
f 85//85 59//59 82//82
f 61//61 60//60 86//86
f 86//86 60//60 62//62
f 61//61 86//86 87//87
f 61//61 87//87 77//77
f 62//62 88//88 89//89
f 88//88 62//62 63//63
f 62//62 89//89 86//86
f 90//90 63//63 64//64
f 90//90 88//88 63//63
f 65//65 91//91 64//64
f 64//64 92//92 90//90
f 91//91 92//92 64//64
f 65//65 93//93 91//91
f 65//65 68//68 94//94
f 95//95 65//65 94//94
f 65//65 95//95 93//93
f 73//73 67//67 66//66
f 96//96 97//97 67//67
f 67//67 98//98 69//69
f 67//67 97//97 98//98
f 96//96 67//67 73//73
f 68//68 69//69 94//94
f 95//95 94//94 69//69
f 99//99 95//95 69//69
f 98//98 99//99 69//69
f 100//100 71//71 70//70
f 70//70 84//84 100//100
f 71//71 101//101 72//72
f 101//101 71//71 102//102
f 100//100 102//102 71//71
f 74//74 72//72 101//101
f 73//73 75//75 103//103
f 104//104 96//96 73//73
f 103//103 104//104 73//73
f 105//105 75//75 74//74
f 101//101 105//105 74//74
f 75//75 105//105 103//103
f 81//81 83//83 76//76
f 106//106 80//80 77//77
f 87//87 106//106 77//77
f 79//79 78//78 107//107
f 108//108 107//107 78//78
f 109//109 108//108 78//78
f 80//80 109//109 78//78
f 79//79 103//103 105//105
f 79//79 104//104 103//103
f 104//104 79//79 107//107
f 81//81 79//79 105//105
f 110//110 109//109 80//80
f 80//80 106//106 110//110
f 83//83 81//81 102//102
f 101//101 102//102 81//81
f 105//105 101//101 81//81
f 82//82 83//83 85//85
f 83//83 100//100 85//85
f 102//102 100//100 83//83
f 85//85 100//100 84//84
f 111//111 87//87 86//86
f 86//86 112//112 111//111
f 112//112 86//86 89//89
f 113//113 87//87 111//111
f 87//87 113//113 106//106
f 114//114 89//89 88//88
f 88//88 90//90 114//114
f 114//114 112//112 89//89
f 115//115 114//114 90//90
f 115//115 90//90 92//92
f 115//115 92//92 91//91
f 91//91 93//93 115//115
f 95//95 116//116 93//93
f 117//117 115//115 93//93
f 117//117 93//93 116//116
f 118//118 95//95 99//99
f 95//95 118//118 116//116
f 96//96 119//119 97//97
f 120//120 119//119 96//96
f 96//96 104//104 121//121
f 120//120 96//96 121//121
f 98//98 97//97 122//122
f 123//123 122//122 97//97
f 123//123 97//97 119//119
f 99//99 98//98 122//122
f 99//99 122//122 118//118
f 121//121 104//104 124//124
f 104//104 107//107 124//124
f 106//106 125//125 110//110
f 106//106 113//113 125//125
f 124//124 107//107 126//126
f 127//127 126//126 107//107
f 107//107 128//128 127//127
f 128//128 107//107 108//108
f 109//109 129//129 108//108
f 128//128 108//108 129//129
f 130//130 109//109 110//110
f 129//129 109//109 130//130
f 113//113 110//110 125//125
f 131//131 110//110 113//113
f 130//130 110//110 131//131
f 112//112 113//113 111//111
f 112//112 114//114 113//113
f 113//113 114//114 131//131
f 115//115 131//131 114//114
f 132//132 115//115 133//133
f 115//115 132//132 131//131
f 117//117 133//133 115//115
f 118//118 134//134 116//116
f 134//134 117//117 116//116
f 117//117 135//135 133//133
f 136//136 135//135 117//117
f 117//117 134//134 136//136
f 123//123 118//118 122//122
f 118//118 123//123 134//134
f 119//119 137//137 123//123
f 119//119 120//120 137//137
f 120//120 121//121 126//126
f 120//120 126//126 137//137
f 126//126 121//121 124//124
f 137//137 138//138 123//123
f 123//123 138//138 139//139
f 134//134 123//123 139//139
f 140//140 137//137 126//126
f 126//126 141//141 140//140
f 127//127 141//141 126//126
f 141//141 127//127 137//137
f 137//137 127//127 138//138
f 138//138 127//127 128//128
f 128//128 142//142 138//138
f 129//129 142//142 128//128
f 129//129 130//130 142//142
f 131//131 132//132 130//130
f 130//130 132//132 135//135
f 130//130 135//135 142//142
f 133//133 135//135 132//132
f 134//134 139//139 136//136
f 139//139 142//142 135//135
f 136//136 139//139 135//135
f 137//137 140//140 141//141
f 138//138 142//142 139//139
