# Generated by Visualization Toolkit
v 0.015985000878572464 -0.1417980045080185 0.0037539999466389418
v 0.017121000215411186 -0.14495299756526947 0.0004529999860096723
v 0.017779000103473663 -0.14572100341320038 0.00038899999344721437
v 0.01684500090777874 -0.14416299760341644 0.003942999988794327
v 0.015065999701619148 -0.14036299288272858 0.001724999980069697
v 0.017396999523043633 -0.1431570053100586 0.007393000181764364
v 0.016304999589920044 -0.1412229984998703 0.006029999814927578
v 0.01781800016760826 -0.1452530026435852 0.0050409999676048756
v 0.01358800008893013 -0.1383959949016571 0.0015160000184550881
v 0.007036000024527311 -0.12818099558353424 0.0030580000020563602
v 0.008507000282406807 -0.1286730021238327 0.005096999928355217
v 0.017952000722289085 -0.14567899703979492 -0.00040499999886378646
v 0.016429999843239784 -0.14336000382900238 -0.0005740000051446259
v 0.019801000133156776 -0.14666800200939178 -0.0005740000051446259
v 0.01948300004005432 -0.14688000082969666 0.0012130000395700336
v 0.015812000259757042 -0.1416649967432022 -0.0004400000034365803
v 0.018668999895453453 -0.1453319936990738 0.007706999778747559
v 0.016824999824166298 -0.14049899578094482 0.007457000203430653
v 0.018296999856829643 -0.13907699286937714 0.008740999735891819
v 0.020041000097990036 -0.14516699314117432 0.00880999956279993
v 0.016467999666929245 -0.13782599568367004 0.007459000218659639
v 0.019664999097585678 -0.14630399644374847 0.00405400013551116
v 0.02011599950492382 -0.1467290073633194 0.006645999848842621
v 0.0201990008354187 -0.14640699326992035 0.008055999875068665
v 0.012632000260055065 -0.13617800176143646 0.0004920000210404396
v 0.005501000210642815 -0.12559400498867035 0.0023849999997764826
v 0.0027360001113265753 -0.11951900273561478 0.0025470000691711903
v 0.0030300000216811895 -0.11312200129032135 0.006876999977976084
v -0.001184999942779541 -0.11064799875020981 0.005109000019729137
v 0.022022999823093414 -0.1462710052728653 -0.0010319999419152737
v 0.0168869998306036 -0.14050699770450592 -0.0017140000127255917
v 0.02261199988424778 -0.14648699760437012 0.000155999994603917
v 0.01654299907386303 -0.13878099620342255 -0.0015190000412985682
v 0.01785999909043312 -0.13854199647903442 0.008407000452280045
v 0.023295000195503235 -0.14375799894332886 0.009506000205874443
v 0.020065000280737877 -0.13853999972343445 0.009158000349998474
v 0.023447999730706215 -0.14180199801921844 0.00964600034058094
v 0.018585000187158585 -0.13755600154399872 0.008170000277459621
v 0.0212629996240139 -0.14626699686050415 0.008138000033795834
v 0.01823499985039234 -0.1369210034608841 0.007155000232160091
v 0.017791999503970146 -0.1375270038843155 0.0076350001618266106
v 0.02223300002515316 -0.14566099643707275 0.0038250000216066837
v 0.021314000710844994 -0.14653900265693665 0.007379999849945307
v 0.022515999153256416 -0.14615699648857117 0.007046999875456095
v 0.010180000215768814 -0.1241530030965805 -0.003108999924734235
v 0.004253999795764685 -0.11889000236988068 -0.002662000013515353
v 0.002816000021994114 -0.1193389967083931 -0.00009999999747378752
v -0.00016799999866634607 -0.1148110032081604 -0.001487000030465424
v -0.002363000065088272 -0.11106500029563904 0.0021909999195486307
v 0.007965999655425549 -0.11483299732208252 0.007327000144869089
v 0.004523999989032745 -0.11122000217437744 0.007528999820351601
v 0.002351999981328845 -0.1078139990568161 0.008617999963462353
v -0.0014909999445080757 -0.10638000071048737 0.007048000115901232
v -0.0027580000460147858 -0.10566200315952301 0.004102999810129404
v 0.022777000442147255 -0.14139199256896973 -0.002730000065639615
v 0.023020999506115913 -0.14481300115585327 -0.0016919999616220593
v 0.019481999799609184 -0.1386840045452118 -0.0025080000050365925
v 0.02414499968290329 -0.14425399899482727 -0.0008730000117793679
v 0.02426600083708763 -0.14400799572467804 0.0015369999455288053
v 0.023057999089360237 -0.14478600025177002 0.003759999992325902
v 0.018386000767350197 -0.13818399608135223 -0.002090000081807375
v 0.018564000725746155 -0.1376499980688095 -0.0009459999855607748
v 0.0231929998844862 -0.14516200125217438 0.00850099977105856
v 0.024375999346375465 -0.14182600378990173 0.008887000381946564
v 0.023924000561237335 -0.1442520022392273 0.008763999678194523
v 0.02010500058531761 -0.1372310072183609 0.00823500007390976
v 0.02371699921786785 -0.14052900671958923 0.008806999772787094
v 0.02097499929368496 -0.13764099776744843 0.005969000048935413
v 0.019345000386238098 -0.13687700033187866 0.005588000174611807
v 0.009496999904513359 -0.11520899832248688 0.004433999769389629
v 0.024397000670433044 -0.14410699903964996 0.006184999831020832
v 0.007571999914944172 -0.11758600175380707 -0.004486999940127134
v 0.011378999799489975 -0.1237960010766983 -0.0030410001054406166
v 0.008549000136554241 -0.11717899888753891 -0.004410000052303076
v 0.00455200020223856 -0.11303599923849106 -0.00660899979993701
v 0.00026500000967644155 -0.11471299827098846 -0.002979000099003315
v -0.00101500004529953 -0.11315499991178513 -0.001905999961309135
v -0.003140999935567379 -0.1063309982419014 -0.0010519999777898192
v 0.006756999995559454 -0.11063399910926819 0.007280000019818544
v 0.005816000048071146 -0.10621999949216843 0.008185000158846378
v 0.001474000047892332 -0.1019349992275238 0.00867099966853857
v -0.00015100000018719584 -0.10339300334453583 0.008390000090003014
v -0.00215000007301569 -0.10419800132513046 0.005810000002384186
v -0.0008280000183731318 -0.10193300247192383 0.007135000079870224
v 0.003198999911546707 -0.10225299745798111 -0.0008789999992586672
v 0.02438800036907196 -0.1419290006160736 -0.0015310000162571669
v 0.0232900008559227 -0.13950300216674805 -0.002022000029683113
v 0.020721999928355217 -0.13777799904346466 -0.001521000056527555
v 0.024695999920368195 -0.14201700687408447 0.0009399999980814755
v 0.024078000336885452 -0.14193099737167358 0.0036140000447630882
v 0.019345000386238098 -0.13714900612831116 0.0009410000056959689
v 0.024748999625444412 -0.14162999391555786 0.006144999992102385
v 0.023128999397158623 -0.13905100524425507 0.00622900016605854
v 0.023211000487208366 -0.13981199264526367 0.0034729999024420977
v 0.008568000048398972 -0.10694000124931335 0.00004400000034365803
v 0.008948000147938728 -0.11122000217437744 -0.004395999945700169
v 0.007926000282168388 -0.1153549998998642 -0.005005999933928251
v 0.002937000012025237 -0.10878700017929077 -0.009368999861180782
v -0.000019999999494757503 -0.10756699740886688 -0.008050999604165554
v 0.0001289999927394092 -0.11271999776363373 -0.003851999994367361
v -0.0012880000285804272 -0.11026299744844437 -0.0050760000012815
v -0.0008219999726861715 -0.1047390028834343 -0.0067900000140070915
v -0.0005540000274777412 -0.1032629981637001 -0.005843999795615673
v 0.007313000038266182 -0.10417599976062775 0.0068870000541210175
v 0.006039999891072512 -0.10187900066375732 0.00685499981045723
v 0.003944000229239464 -0.10157900303602219 0.008375000208616257
v 0.0007890000124461949 -0.10073799639940262 0.007548999972641468
v 0.0019030000548809767 -0.10043500363826752 0.0074880002066493034
v 0.0012359999818727374 -0.10220900177955627 -0.006899999920278788
v 0.0039079999551177025 -0.10096199810504913 -0.006541000213474035
v 0.005748999770730734 -0.10068999975919724 -0.003734000027179718
v 0.004526999779045582 -0.10114800184965134 -0.004219000227749348
v 0.001614999957382679 -0.10046099871397018 0.006453999783843756
v 0.0036059999838471413 -0.10026499629020691 0.004772999789565802
v 0.02368300035595894 -0.13970300555229187 0.0007510000141337514
v 0.007805999834090471 -0.10212799906730652 -0.005022999830543995
v 0.006972000002861023 -0.10544899851083755 -0.007903000339865685
v 0.0053530000150203705 -0.10691200196743011 -0.009019000455737114
v 0.002128999913111329 -0.10640600323677063 -0.009569000452756882
v 0.003918000031262636 -0.10727900266647339 -0.009424000047147274
v 0.002391000045463443 -0.1022149994969368 -0.008005999960005283
v 0.004453999921679497 -0.100552998483181 0.005892000161111355
v 0.004834999796003103 -0.10048700124025345 0.0027699999045580626
v 0.00291600008495152 -0.10029900074005127 0.0072280000895261765
v 0.002701000077649951 -0.10025999695062637 0.006688000168651342
v 0.003406000090762973 -0.10116399824619293 -0.007453999947756529
v 0.005745999980717897 -0.10080599784851074 -0.004993000067770481
v 0.004284000024199486 -0.10092099756002426 -0.006926999893039465
v 0.006000000052154064 -0.10227199643850327 -0.00803999975323677
v 0.005481999833136797 -0.10142800211906433 -0.0072119999676942825
v 0.004974000155925751 -0.10245700180530548 -0.008733999915421009
v 0.00394799979403615 -0.10280299931764603 -0.009025000035762787
v 0.0046179997734725475 -0.10152000188827515 -0.007946999743580818
vn -0.8612650632858276 -0.4676783084869385 0.1987445205450058
vn -0.8385847806930542 -0.5446449518203735 -0.011723354458808899
vn -0.7044114470481873 -0.709583580493927 -0.01719209924340248
vn -0.8882118463516235 -0.4313625395298004 0.158132866024971
vn -0.8782564401626587 -0.4781704843044281 -0.004305663518607616
vn -0.7952048778533936 -0.2947465479373932 0.5298807621002197
vn -0.8517642617225647 -0.30641013383865356 0.4249829351902008
vn -0.7080007195472717 -0.6806305050849915 0.18835361301898956
vn -0.833917498588562 -0.5456791520118713 -0.08255884796380997
vn -0.8554589152336121 -0.5043843388557434 0.117415651679039
vn -0.7351574301719666 -0.38998720049858093 0.5544849038124084
vn -0.5579787492752075 -0.5605803728103638 -0.6118899583816528
vn -0.7154831886291504 -0.3792094588279724 -0.586757242679596
vn -0.21650058031082153 -0.8967317938804626 -0.38600462675094604
vn -0.25741735100746155 -0.9654690027236938 0.040074463933706284
vn -0.8278768658638 -0.33164480328559875 -0.4523622393608093
vn -0.6797564625740051 -0.5288162231445312 0.5082168579101562
vn -0.7682374119758606 -0.14115644991397858 0.6244086623191833
vn -0.39238134026527405 0.037252359092235565 0.9190478920936584
vn -0.3200383186340332 -0.3423321843147278 0.8833935260772705
vn -0.5043284296989441 0.09835604578256607 0.8578920960426331
vn -0.0542837493121624 -0.9951116442680359 0.08249837160110474
vn -0.07158428430557251 -0.9970270395278931 -0.028506994247436523
vn -0.30021044611930847 -0.8323420882225037 0.46591874957084656
vn -0.761806845664978 -0.4102531373500824 -0.5013410449028015
vn -0.8526074886322021 -0.4959608316421509 -0.16456986963748932
vn -0.8613052368164062 -0.47684964537620544 0.17540757358074188
vn -0.2621840536594391 -0.20571155846118927 0.9428372979164124
vn -0.7429305911064148 -0.35015571117401123 0.5704779624938965
vn -0.06144064664840698 -0.4350307285785675 -0.8983169198036194
vn -0.43721380829811096 -0.16056741774082184 -0.8849080801010132
vn 0.5188971757888794 -0.8537588119506836 -0.042913805693387985
vn -0.43461114168167114 0.06936699897050858 -0.8979429006576538
vn -0.3726462721824646 0.4047991931438446 0.8350284099578857
vn 0.24713768064975739 -0.3142837584018707 0.9165962338447571
vn -0.07925542443990707 0.3814343214035034 0.9209920763969421
vn 0.282666951417923 0.20849213004112244 0.9362853765487671
vn -0.2958129942417145 0.5789408683776855 0.7598170638084412
vn 0.15598876774311066 -0.7181746363639832 0.678153932094574
vn 0.19288745522499084 0.6921365261077881 0.6955152750015259
vn -0.3321150243282318 0.6390248537063599 0.6937916278839111
vn 0.5025005340576172 -0.8632391691207886 -0.048075415194034576
vn 0.24219155311584473 -0.941919207572937 0.23266127705574036
vn 0.5474551916122437 -0.8367396593093872 0.012626813724637032
vn -0.21771645545959473 -0.27142301201820374 -0.937512218952179
vn -0.5447641015052795 -0.5471788048744202 -0.6354740858078003
vn -0.8010848164558411 -0.5298624038696289 -0.2784041464328766
vn -0.8069598078727722 -0.5605840086936951 -0.18590708076953888
vn -0.9296047687530518 -0.3506680130958557 0.11343194544315338
vn 0.3748158812522888 0.10141868889331818 0.9215353727340698
vn 0.057001665234565735 -0.1675628423690796 0.9842121005058289
vn -0.19021490216255188 -0.21588459610939026 0.9577119946479797
vn -0.7677353024482727 -0.11645057797431946 0.6300966739654541
vn -0.9709380269050598 0.18103660643100739 0.15654096007347107
vn 0.1936550885438919 -0.07987616211175919 -0.977812647819519
vn 0.5035330653190613 -0.4522375762462616 -0.7361627817153931
vn -0.09487628936767578 0.18727630376815796 -0.9777147173881531
vn 0.8769190907478333 -0.3929750323295593 -0.27673712372779846
vn 0.9110292792320251 -0.3787868618965149 0.16293023526668549
vn 0.8348037004470825 -0.5487204194068909 0.044818006455898285
vn -0.19820857048034668 0.7134008407592773 -0.67214035987854
vn 0.158420130610466 0.6534938812255859 -0.7401680946350098
vn 0.4623369574546814 -0.7352383732795715 0.49565020203590393
vn 0.8350363373756409 0.07672435790300369 0.5448189377784729
vn 0.8371124863624573 -0.42398232221603394 0.3456610441207886
vn 0.2829377353191376 0.8042551279067993 0.5226086974143982
vn 0.7033430933952332 0.5496310591697693 0.4507927894592285
vn 0.43908220529556274 0.8966310024261475 -0.057093676179647446
vn 0.6257628202438354 0.7756766676902771 0.0821385458111763
vn 0.928160548210144 0.32056543231010437 0.18909227848052979
vn 0.8753740191459656 -0.4664803147315979 -0.12695062160491943
vn -0.0016243578866124153 -0.31654366850852966 -0.9485765099525452
vn 0.6644324660301208 0.1425483226776123 -0.7336276173591614
vn 0.2952771484851837 -0.12789317965507507 -0.9468129873275757
vn -0.30484041571617126 -0.5171552300453186 -0.7997642159461975
vn -0.686527669429779 -0.48616552352905273 -0.5406689643859863
vn -0.8630129098892212 -0.41230812668800354 -0.2919086813926697
vn -0.9680352807044983 0.2178071290254593 -0.12436936050653458
vn 0.6978387832641602 0.06526980549097061 0.7132746577262878
vn 0.338238924741745 0.016621973365545273 0.9409134387969971
vn -0.09682859480381012 0.29855459928512573 0.9494679570198059
vn -0.5134946703910828 0.15305550396442413 0.8443325161933899
vn -0.9139211773872375 0.39725127816200256 0.0833021029829979
vn -0.8081514239311218 0.5015400648117065 0.30878615379333496
vn -0.5380123853683472 0.8381499648094177 -0.08970772475004196
vn 0.8675733208656311 0.05470196157693863 -0.4942916929721832
vn 0.5876346230506897 0.5209314227104187 -0.619125247001648
vn 0.30095043778419495 0.908014178276062 -0.29144299030303955
vn 0.9909233450889587 0.12027925252914429 0.06003330275416374
vn 0.9993206262588501 -0.03164710849523544 -0.018891487270593643
vn 0.6638771891593933 0.7088674902915955 -0.23827292025089264
vn 0.976710855960846 0.21414747834205627 -0.013293358497321606
vn 0.703528642654419 0.7102713584899902 0.02370533160865307
vn 0.7489793300628662 0.6603251099586487 -0.0547790490090847
vn 0.9821165800094604 0.14077527821063995 0.1250174194574356
vn 0.8768595457077026 0.02163594961166382 -0.48025956749916077
vn 0.38823381066322327 -0.2590494751930237 -0.8844025135040283
vn -0.04151399806141853 -0.36163774132728577 -0.9313939213752747
vn -0.6362360715866089 -0.27548083662986755 -0.7206345200538635
vn -0.6100485920906067 -0.4768161177635193 -0.632840633392334
vn -0.7695881724357605 -0.3826623558998108 -0.5111786723136902
vn -0.7942217588424683 0.21472948789596558 -0.5684216022491455
vn -0.7018566131591797 0.6635214686393738 -0.25910744071006775
vn 0.8696032166481018 0.19725386798381805 0.45263803005218506
vn 0.6587291359901428 0.6474161744117737 0.3833121657371521
vn 0.3157317340373993 0.5732423067092896 0.7561129331588745
vn -0.46997326612472534 0.833599328994751 0.2902366816997528
vn -0.08952835202217102 0.8573516607284546 0.5068854689598083
vn -0.5243772268295288 0.83198082447052 -0.18120795488357544
vn -0.287951797246933 0.9553662538528442 0.06602466106414795
vn 0.09540164470672607 0.995315670967102 -0.01566237024962902
vn -0.31647831201553345 0.9444426894187927 0.08871021121740341
vn -0.3498765528202057 0.9242838621139526 -0.15259695053100586
vn -0.09622818231582642 0.9922658801078796 -0.07841277867555618
vn 0.792008101940155 0.6103347539901733 0.014651712961494923
vn 0.8315070271492004 0.5291465520858765 -0.16911599040031433
vn 0.7639952898025513 0.06119730323553085 -0.6423130631446838
vn 0.4713212251663208 -0.059207186102867126 -0.8799721002578735
vn -0.34016430377960205 0.10974188894033432 -0.933940589427948
vn 0.18828606605529785 -0.03495820611715317 -0.9814919233322144
vn -0.503507137298584 0.4997890591621399 -0.7047634720802307
vn 0.3694966435432434 0.9104941487312317 0.18566769361495972
vn 0.43191009759902954 0.9004096984863281 0.05211547762155533
vn 0.1719793677330017 0.9267684817314148 0.33395111560821533
vn -0.06142934784293175 0.9976764917373657 0.029463160783052444
vn -0.2520124912261963 0.8545272946357727 -0.45417261123657227
vn 0.13685762882232666 0.9846436977386475 -0.10838224738836288
vn 0.06890729069709778 0.9605728983879089 -0.2693536877632141
vn 0.5650182366371155 0.4681897461414337 -0.6793767809867859
vn 0.4145718514919281 0.8230454325675964 -0.3882349133491516
vn 0.29926881194114685 0.4032096266746521 -0.8647891283035278
vn -0.02319248951971531 0.38910672068595886 -0.9209006428718567
vn 0.15774251520633698 0.7690854072570801 -0.6193746328353882
f 1//1 2//2 3//3
f 4//4 1//1 3//3
f 2//2 1//1 5//5
f 6//6 7//7 1//1
f 8//8 1//1 4//4
f 9//9 5//5 1//1
f 10//10 9//9 1//1
f 11//11 10//10 1//1
f 1//1 7//7 11//11
f 6//6 1//1 8//8
f 2//2 12//12 3//3
f 13//13 12//12 2//2
f 2//2 5//5 13//13
f 3//3 14//14 15//15
f 3//3 12//12 14//14
f 3//3 8//8 4//4
f 8//8 3//3 15//15
f 5//5 16//16 13//13
f 16//16 5//5 9//9
f 8//8 17//17 6//6
f 6//6 18//18 7//7
f 19//19 18//18 6//6
f 6//6 20//20 19//19
f 6//6 17//17 20//20
f 11//11 7//7 21//21
f 7//7 18//18 21//21
f 15//15 22//22 8//8
f 22//22 23//23 8//8
f 8//8 23//23 24//24
f 24//24 17//17 8//8
f 25//25 9//9 10//10
f 9//9 25//25 16//16
f 26//26 25//25 10//10
f 11//11 26//26 10//10
f 11//11 27//27 26//26
f 11//11 21//21 28//28
f 27//27 11//11 29//29
f 29//29 11//11 28//28
f 30//30 12//12 13//13
f 30//30 14//14 12//12
f 30//30 13//13 31//31
f 31//31 13//13 16//16
f 15//15 14//14 32//32
f 14//14 30//30 32//32
f 32//32 22//22 15//15
f 33//33 31//31 16//16
f 33//33 16//16 25//25
f 17//17 24//24 20//20
f 18//18 19//19 21//21
f 19//19 34//34 21//21
f 19//19 20//20 35//35
f 36//36 19//19 37//37
f 19//19 35//35 37//37
f 36//36 38//38 19//19
f 34//34 19//19 38//38
f 24//24 39//39 20//20
f 39//39 35//35 20//20
f 21//21 40//40 28//28
f 21//21 41//41 40//40
f 21//21 34//34 41//41
f 22//22 32//32 42//42
f 23//23 22//22 42//42
f 23//23 43//43 24//24
f 44//44 23//23 42//42
f 44//44 43//43 23//23
f 24//24 43//43 39//39
f 25//25 45//45 33//33
f 45//45 25//25 26//26
f 45//45 26//26 46//46
f 46//46 26//26 47//47
f 47//47 26//26 27//27
f 48//48 47//47 27//27
f 27//27 49//49 48//48
f 29//29 49//49 27//27
f 50//50 51//51 28//28
f 52//52 29//29 28//28
f 51//51 52//52 28//28
f 28//28 40//40 50//50
f 52//52 53//53 29//29
f 49//49 29//29 54//54
f 54//54 29//29 53//53
f 30//30 55//55 56//56
f 55//55 30//30 57//57
f 30//30 31//31 57//57
f 32//32 30//30 56//56
f 33//33 57//57 31//31
f 58//58 59//59 32//32
f 60//60 32//32 59//59
f 60//60 42//42 32//32
f 32//32 56//56 58//58
f 33//33 61//61 57//57
f 62//62 33//33 45//45
f 33//33 62//62 61//61
f 34//34 38//38 41//41
f 35//35 39//39 63//63
f 35//35 64//64 37//37
f 64//64 35//35 65//65
f 35//35 63//63 65//65
f 37//37 66//66 36//36
f 36//36 66//66 38//38
f 64//64 67//67 37//37
f 67//67 66//66 37//37
f 38//38 66//66 40//40
f 41//41 38//38 40//40
f 43//43 63//63 39//39
f 40//40 68//68 69//69
f 40//40 69//69 70//70
f 40//40 70//70 50//50
f 66//66 68//68 40//40
f 60//60 71//71 42//42
f 44//44 42//42 71//71
f 63//63 43//43 44//44
f 44//44 71//71 65//65
f 63//63 44//44 65//65
f 45//45 46//46 72//72
f 45//45 73//73 62//62
f 45//45 74//74 73//73
f 45//45 72//72 74//74
f 46//46 75//75 72//72
f 46//46 76//76 75//75
f 46//46 47//47 48//48
f 76//76 46//46 48//48
f 76//76 48//48 77//77
f 77//77 48//48 49//49
f 77//77 49//49 78//78
f 54//54 78//78 49//49
f 51//51 50//50 79//79
f 50//50 70//70 79//79
f 51//51 79//79 80//80
f 52//52 51//51 80//80
f 52//52 80//80 81//81
f 82//82 53//53 52//52
f 82//82 52//52 81//81
f 53//53 83//83 54//54
f 84//84 53//53 82//82
f 84//84 83//83 53//53
f 85//85 78//78 54//54
f 85//85 54//54 83//83
f 56//56 55//55 86//86
f 87//87 55//55 57//57
f 87//87 86//86 55//55
f 56//56 86//86 58//58
f 57//57 61//61 88//88
f 57//57 88//88 87//87
f 58//58 89//89 59//59
f 89//89 58//58 86//86
f 90//90 59//59 89//89
f 59//59 90//90 60//60
f 71//71 60//60 90//90
f 88//88 61//61 62//62
f 91//91 88//88 62//62
f 73//73 91//91 62//62
f 64//64 65//65 92//92
f 92//92 67//67 64//64
f 92//92 65//65 71//71
f 66//66 93//93 68//68
f 93//93 66//66 67//67
f 92//92 93//93 67//67
f 94//94 69//69 68//68
f 93//93 94//94 68//68
f 94//94 88//88 69//69
f 69//69 88//88 91//91
f 69//69 91//91 70//70
f 95//95 79//79 70//70
f 96//96 95//95 70//70
f 73//73 96//96 70//70
f 70//70 91//91 73//73
f 92//92 71//71 90//90
f 72//72 75//75 97//97
f 72//72 97//97 74//74
f 96//96 73//73 74//74
f 74//74 97//97 96//96
f 98//98 75//75 99//99
f 76//76 100//100 75//75
f 100//100 101//101 75//75
f 98//98 97//97 75//75
f 101//101 99//99 75//75
f 77//77 100//100 76//76
f 77//77 101//101 100//100
f 77//77 78//78 101//101
f 102//102 101//101 78//78
f 85//85 103//103 78//78
f 102//102 78//78 103//103
f 104//104 80//80 79//79
f 104//104 79//79 95//95
f 80//80 105//105 106//106
f 105//105 80//80 104//104
f 81//81 80//80 106//106
f 82//82 81//81 107//107
f 108//108 107//107 81//81
f 106//106 108//108 81//81
f 107//107 84//84 82//82
f 85//85 83//83 84//84
f 85//85 84//84 107//107
f 109//109 85//85 110//110
f 85//85 111//111 112//112
f 85//85 109//109 103//103
f 85//85 113//113 114//114
f 85//85 107//107 113//113
f 112//112 110//110 85//85
f 114//114 111//111 85//85
f 86//86 115//115 89//89
f 115//115 86//86 87//87
f 115//115 87//87 88//88
f 88//88 94//94 115//115
f 90//90 89//89 94//94
f 89//89 115//115 94//94
f 94//94 92//92 90//90
f 92//92 94//94 93//93
f 95//95 116//116 104//104
f 96//96 116//116 95//95
f 117//117 116//116 96//96
f 118//118 117//117 96//96
f 96//96 97//97 118//118
f 98//98 118//118 97//97
f 119//119 98//98 99//99
f 118//118 98//98 120//120
f 120//120 98//98 119//119
f 99//99 101//101 102//102
f 119//119 99//99 102//102
f 121//121 102//102 103//103
f 121//121 119//119 102//102
f 103//103 109//109 121//121
f 116//116 105//105 104//104
f 122//122 106//106 105//105
f 122//122 105//105 123//123
f 123//123 105//105 111//111
f 116//116 111//111 105//105
f 108//108 106//106 124//124
f 106//106 122//122 124//124
f 125//125 107//107 108//108
f 125//125 113//113 107//107
f 125//125 108//108 124//124
f 126//126 109//109 110//110
f 121//121 109//109 126//126
f 127//127 110//110 112//112
f 110//110 128//128 126//126
f 110//110 127//127 128//128
f 127//127 112//112 111//111
f 123//123 111//111 114//114
f 116//116 127//127 111//111
f 125//125 114//114 113//113
f 114//114 122//122 123//123
f 114//114 125//125 122//122
f 116//116 117//117 129//129
f 130//130 116//116 129//129
f 116//116 130//130 127//127
f 118//118 129//129 117//117
f 129//129 118//118 131//131
f 120//120 132//132 118//118
f 131//131 118//118 132//132
f 119//119 121//121 132//132
f 132//132 120//120 119//119
f 126//126 132//132 121//121
f 125//125 124//124 122//122
f 126//126 133//133 132//132
f 133//133 126//126 128//128
f 130//130 128//128 127//127
f 130//130 133//133 128//128
f 129//129 133//133 130//130
f 133//133 129//129 131//131
f 132//132 133//133 131//131
