# Generated by Visualization Toolkit
v 0.006562999915331602 -0.008431999944150448 0.02607399970293045
v 0.004025000147521496 -0.01082099974155426 0.025805000215768814
v 0.006025000009685755 -0.011087000370025635 0.02687700092792511
v 0.008372999727725983 -0.009840999729931355 0.026965999975800514
v 0.0021609999239444733 -0.009758000262081623 0.02531999908387661
v 0.0014400000218302011 -0.00737700005993247 0.023499000817537308
v 0.007672000210732222 -0.006837000139057636 0.02520499937236309
v 0.002976000076159835 -0.01278000045567751 0.025374000892043114
v 0.006856000050902367 -0.01329800020903349 0.026955999433994293
v 0.008917000144720078 -0.007861999794840813 0.025655999779701233
v 0.00967899989336729 -0.013578999787569046 0.026830999180674553
v 0.010479000397026539 -0.010565999895334244 0.026050999760627747
v 0.0037150001153349876 -0.015197999775409698 0.020397000014781952
v 0.006498999893665314 -0.005625999998301268 0.022297000512480736
v 0.001766999950632453 -0.006393999792635441 0.020584000274538994
v 0.008430000394582748 -0.0070489998906850815 0.025186000391840935
v 0.004647000227123499 -0.017994999885559082 0.024423999711871147
v 0.005400999914854765 -0.018710000440478325 0.024596000090241432
v 0.011129000224173069 -0.011699000373482704 0.023586999624967575
v 0.007193999830633402 -0.019644999876618385 0.023202000185847282
v 0.012078000232577324 -0.014728999696671963 0.024455999955534935
v 0.005384999793022871 -0.018719999119639397 0.022523999214172363
v 0.003536999924108386 -0.009196000173687935 0.018350999802350998
v 0.00595899997279048 -0.014569999650120735 0.017626000568270683
v 0.006031999830156565 -0.018177999183535576 0.020312000066041946
v 0.00911800004541874 -0.008541000075638294 0.021619999781250954
v 0.007385999895632267 -0.00873200036585331 0.01980300061404705
v 0.012292000465095043 -0.014973999932408333 0.022050000727176666
v 0.011253000237047672 -0.012745999731123447 0.021014999598264694
v 0.007782999891787767 -0.019070999696850777 0.0209330003708601
v 0.010719000361859798 -0.0173179991543293 0.021035000681877136
v 0.010037999600172043 -0.012272000312805176 0.020016999915242195
v 0.006930999923497438 -0.01627100072801113 0.018139999359846115
v 0.010497000068426132 -0.016840999945998192 0.02025499939918518
vn -0.23950105905532837 0.40522944927215576 0.8822858333587646
vn -0.34478017687797546 0.11061587929725647 0.9321431517601013
vn -0.3123692274093628 0.12782323360443115 0.9413217306137085
vn 0.11809520423412323 0.2789250612258911 0.9530237913131714
vn -0.7035555839538574 0.00508512556552887 0.7106221318244934
vn -0.6722896099090576 0.5574246048927307 0.4871390461921692
vn 0.01328942272812128 0.7064933776855469 0.7075948715209961
vn -0.6470107436180115 -0.2082832157611847 0.7334814667701721
vn -0.16268719732761383 -0.16392555832862854 0.9729651808738708
vn 0.5863254070281982 0.5818726420402527 0.5636016130447388
vn 0.34003862738609314 -0.26580625772476196 0.9020648002624512
vn 0.7706815600395203 0.29981228709220886 0.5622832775115967
vn -0.8934398293495178 -0.3515382409095764 -0.27961793541908264
vn 0.25187990069389343 0.9450870752334595 -0.2082473188638687
vn -0.7664052248001099 0.4790017902851105 -0.42799583077430725
vn 0.6567239761352539 0.7278751134872437 0.19725994765758514
vn -0.8354538083076477 -0.5134284496307373 0.19598008692264557
vn -0.3476760685443878 -0.6394274234771729 0.6857506036758423
vn 0.9017773866653442 0.4314824640750885 -0.024910766631364822
vn 0.13097159564495087 -0.9734165072441101 0.18790118396282196
vn 0.8847052454948425 -0.2500050365924835 0.3934389352798462
vn -0.6450758576393127 -0.745561420917511 -0.16737812757492065
vn -0.24638748168945312 0.3071943521499634 -0.9191979169845581
vn -0.14818984270095825 -0.14883889257907867 -0.9776946306228638
vn -0.47616297006607056 -0.7098918557167053 -0.5189628005027771
vn 0.746716320514679 0.5464625954627991 -0.37920108437538147
vn 0.42866408824920654 0.45579656958580017 -0.7800619602203369
vn 0.9664661288261414 -0.05879729241132736 -0.24997249245643616
vn 0.8181330561637878 0.27814432978630066 -0.5032832026481628
vn 0.1798732429742813 -0.8352296352386475 -0.519650936126709
vn 0.6989420056343079 -0.6998974084854126 -0.14705055952072144
vn 0.5718648433685303 0.19710256159305573 -0.7963172197341919
vn 0.15745873749256134 -0.42622122168540955 -0.8908098936080933
vn 0.6182236671447754 -0.29505765438079834 -0.7285194396972656
f 1//1 2//2 3//3
f 3//3 4//4 1//1
f 5//5 2//2 1//1
f 6//6 1//1 7//7
f 1//1 6//6 5//5
f 7//7 1//1 4//4
f 2//2 8//8 3//3
f 8//8 2//2 5//5
f 8//8 9//9 3//3
f 9//9 4//4 3//3
f 4//4 10//10 7//7
f 4//4 9//9 11//11
f 4//4 11//11 12//12
f 10//10 4//4 12//12
f 8//8 5//5 13//13
f 13//13 5//5 6//6
f 14//14 6//6 7//7
f 6//6 14//14 15//15
f 6//6 15//15 13//13
f 16//16 7//7 10//10
f 7//7 16//16 14//14
f 8//8 13//13 17//17
f 8//8 17//17 18//18
f 9//9 8//8 18//18
f 18//18 11//11 9//9
f 12//12 19//19 10//10
f 10//10 19//19 16//16
f 20//20 11//11 18//18
f 20//20 21//21 11//11
f 11//11 21//21 12//12
f 19//19 12//12 21//21
f 13//13 22//22 17//17
f 23//23 24//24 13//13
f 13//13 25//25 22//22
f 24//24 25//25 13//13
f 13//13 15//15 23//23
f 26//26 14//14 16//16
f 14//14 23//23 15//15
f 23//23 14//14 27//27
f 27//27 14//14 26//26
f 16//16 19//19 26//26
f 22//22 18//18 17//17
f 22//22 20//20 18//18
f 28//28 19//19 21//21
f 19//19 28//28 29//29
f 26//26 19//19 29//29
f 25//25 20//20 22//22
f 25//25 30//30 20//20
f 30//30 31//31 20//20
f 31//31 21//21 20//20
f 21//21 31//31 28//28
f 27//27 24//24 23//23
f 32//32 24//24 27//27
f 32//32 33//33 24//24
f 24//24 33//33 25//25
f 33//33 30//30 25//25
f 26//26 32//32 27//27
f 32//32 26//26 29//29
f 31//31 34//34 28//28
f 34//34 29//29 28//28
f 34//34 32//32 29//29
f 33//33 34//34 30//30
f 31//31 30//30 34//34
f 33//33 32//32 34//34
