# Generated by Visualization Toolkit
v -0.01601400040090084 -0.40074700117111206 0.020868999883532524
v -0.021023999899625778 -0.4070659875869751 0.021717000752687454
v -0.021445000544190407 -0.39987701177597046 0.01822499930858612
v -0.01939300075173378 -0.39263099431991577 0.014918000437319279
v -0.015248999930918217 -0.3925260007381439 0.014196000061929226
v -0.009855999611318111 -0.3951689898967743 0.014426000416278839
v -0.004985000006854534 -0.39785900712013245 0.01895800046622753
v -0.010006999596953392 -0.4011160135269165 0.023804999887943268
v -0.014948000200092793 -0.40432101488113403 0.02269200049340725
v -0.016224000602960587 -0.4043540060520172 0.022915000095963478
v -0.0184480007737875 -0.4057160019874573 0.023460999131202698
v -0.02176699973642826 -0.39763399958610535 0.02188500016927719
v -0.02471200004220009 -0.39114299416542053 0.016798999160528183
v -0.02104800008237362 -0.3961839973926544 0.02598400041460991
v -0.02252900041639805 -0.3845120072364807 0.009429000318050385
v -0.014558999799191952 -0.38430899381637573 0.00803999975323677
v -0.007083000149577856 -0.3852989971637726 0.01140500046312809
v -0.002937000012025237 -0.3863990008831024 0.018647000193595886
v -0.006380999926477671 -0.3904530107975006 0.025793999433517456
v -0.012242999859154224 -0.3945249915122986 0.02832699939608574
v -0.017343999817967415 -0.3946549892425537 0.02921600081026554
v -0.02590099908411503 -0.3866559863090515 0.02264999970793724
v -0.024267999455332756 -0.3802179992198944 0.01723499968647957
v -0.024630000814795494 -0.3874970078468323 0.029534999281167984
v -0.020214999094605446 -0.3737410008907318 0.014378000050783157
v -0.0183119997382164 -0.38820600509643555 0.03497299924492836
v -0.015591000206768513 -0.3736230134963989 0.013571999967098236
v -0.012445000000298023 -0.3708040118217468 0.01669500023126602
v -0.012152000330388546 -0.3680559992790222 0.02032800018787384
v -0.008093000389635563 -0.3779410123825073 0.02520499937236309
v -0.00970499962568283 -0.3879869878292084 0.03347399830818176
v -0.024001000449061394 -0.3690069913864136 0.022390000522136688
v -0.02300100028514862 -0.36438700556755066 0.018171999603509903
v -0.024380000308156013 -0.3751029968261719 0.029072999954223633
v -0.019937999546527863 -0.35972899198532104 0.015651000663638115
v -0.018595000728964806 -0.3810490071773529 0.03581099957227707
v -0.01611199975013733 -0.3596319854259491 0.014984999783337116
v -0.009507999755442142 -0.3808180093765259 0.03422800078988075
v -0.013294000178575516 -0.3468709886074066 0.01717500016093254
v -0.01244799979031086 -0.3341670036315918 0.02051600068807602
v -0.007996000349521637 -0.35740798711776733 0.025662999600172043
v -0.022430000826716423 -0.35919100046157837 0.0221560001373291
v -0.022110000252723694 -0.34269800782203674 0.019040999934077263
v -0.021893000230193138 -0.3685019910335541 0.026398999616503716
v -0.02012999914586544 -0.3261750042438507 0.017084000632166862
v -0.017860999330878258 -0.3777259886264801 0.030132999643683434
v -0.01709900051355362 -0.3260979950428009 0.01655600033700466
v -0.012280999682843685 -0.3775840103626251 0.02916100062429905
v -0.015421000309288502 -0.2809309959411621 0.01828099973499775
v -0.01191799994558096 -0.30664899945259094 0.024754000827670097
v -0.015062999911606312 -0.2358040064573288 0.021369999274611473
v -0.026907000690698624 -0.30161601305007935 0.023168999701738358
v -0.02607399970293045 -0.2803710103034973 0.018343999981880188
v -0.022540999576449394 -0.3300589919090271 0.026434000581502914
v -0.022839000448584557 -0.2590849995613098 0.015552000142633915
v -0.017767999321222305 -0.35846298933029175 0.026402000337839127
v -0.018376000225543976 -0.2589710056781769 0.014774000272154808
v -0.01457899995148182 -0.358381986618042 0.025846000760793686
v -0.01727299951016903 -0.19982099533081055 0.018852999433875084
v -0.015992000699043274 -0.24953700602054596 0.02389799989759922
v -0.019406000152230263 -0.14074599742889404 0.02251099981367588
v -0.029506999999284744 -0.23617100715637207 0.023886999115347862
v -0.02886500023305416 -0.20808100700378418 0.018418999388813972
v -0.02382900007069111 -0.2649039924144745 0.026686999946832657
v -0.025349000468850136 -0.17993900179862976 0.015045000240206718
v -0.019061999395489693 -0.2936230003833771 0.025119999423623085
v -0.020089000463485718 -0.1798049956560135 0.014128999784588814
v -0.01699100062251091 -0.29357001185417175 0.024759000167250633
v -0.01715400069952011 -0.14391200244426727 0.017808999866247177
v -0.01668900065124035 -0.20083199441432953 0.024529000744223595
v -0.017349999397993088 -0.10810200124979019 0.02228499948978424
v -0.030671000480651855 -0.18763799965381622 0.024286000058054924
v -0.0295609999448061 -0.15937599539756775 0.019050000235438347
v -0.02574799954891205 -0.19243599474430084 0.02747100032866001
v -0.026030000299215317 -0.13107599318027496 0.01637299917638302
v -0.02144699916243553 -0.1972140073776245 0.02643200010061264
v -0.02140600048005581 -0.13095900416374207 0.015567000024020672
v -0.019054999575018883 -0.1971530020236969 0.02601500041782856
v -0.01668900065124035 -0.10624700039625168 0.016706999391317368
v -0.015691999346017838 -0.139383003115654 0.02624399960041046
v -0.013081000186502934 -0.08159299939870834 0.021648000925779343
v -0.030309999361634254 -0.13808999955654144 0.02442299947142601
v -0.029556000605225563 -0.1104929968714714 0.020028000697493553
v -0.0265749990940094 -0.13508999347686768 0.02737800031900406
v -0.026695000007748604 -0.08286400139331818 0.017695000395178795
v -0.023009000346064568 -0.13206900656223297 0.02696700021624565
v -0.022709999233484268 -0.08276300132274628 0.017000000923871994
v -0.02061600051820278 -0.13200800120830536 0.02655000053346157
v -0.015112999826669693 -0.07685700058937073 0.014599000103771687
v -0.013187999837100506 -0.1015319973230362 0.028226999565958977
v -0.00585100008174777 -0.07098100334405899 0.020430000498890877
v -0.028519000858068466 -0.10512500256299973 0.024243999272584915
v -0.029656000435352325 -0.08670700341463089 0.020454000681638718
v -0.027164999395608902 -0.10283800214529037 0.027455000206828117
v -0.027782000601291656 -0.06821300089359283 0.016426999121904373
v -0.02406099997460842 -0.10049699991941452 0.029301000759005547
v -0.022839000448584557 -0.06808800250291824 0.015565999783575535
v -0.02039399929344654 -0.10040400177240372 0.028661999851465225
v -0.015073000453412533 -0.06332799792289734 0.014333000406622887
v -0.01300899963825941 -0.07953199744224548 0.02875399962067604
v -0.0066639999859035015 -0.05861600115895271 0.020622000098228455
v -0.027305999770760536 -0.06956899911165237 0.02417599968612194
v -0.03165299817919731 -0.06719399988651276 0.019865000620484352
v -0.03092700056731701 -0.06384199857711792 0.030690999701619148
v -0.03044000081717968 -0.06465300172567368 0.01159599982202053
v -0.02652299962937832 -0.057944998145103455 0.03976299986243248
v -0.02215000055730343 -0.06444200128316879 0.010150999762117863
v -0.01664000004529953 -0.057693999260663986 0.038040999323129654
v -0.01601400040090084 -0.058306001126766205 0.01522199995815754
v -0.012540999799966812 -0.054917000234127045 0.02947399951517582
v -0.014557999558746815 -0.05229699984192848 0.022022999823093414
v -0.028133999556303024 -0.05655299872159958 0.024373000487685204
v -0.02959500066936016 -0.05493199825286865 0.021118000149726868
v -0.027705999091267586 -0.049883998930454254 0.0271380003541708
v -0.028017999604344368 -0.05322900041937828 0.016781000420451164
v -0.02536099962890148 -0.043163999915122986 0.029254000633955002
v -0.023236000910401344 -0.05310700088739395 0.015946999192237854
v -0.022012999281287193 -0.04307899996638298 0.02867100015282631
v -0.02003300003707409 -0.050450000911951065 0.019235000014305115
v -0.01994200050830841 -0.04545300081372261 0.026037000119686127
v -0.019826000556349754 -0.047867998480796814 0.02295999974012375
v -0.02437499910593033 -0.05189500004053116 0.023737000301480293
vn 0.16632424294948578 -0.6012290120124817 -0.7815752625465393
vn -0.40104132890701294 -0.819280743598938 -0.4098108112812042
vn -0.4914635419845581 -0.464819997549057 -0.7364820837974548
vn -0.14620450139045715 -0.5490071177482605 -0.8229309916496277
vn -0.06763383746147156 -0.5473015308380127 -0.8341983556747437
vn 0.26986315846443176 -0.49950671195983887 -0.8232053518295288
vn 0.7182685136795044 -0.6506666541099548 -0.24642089009284973
vn 0.6196101903915405 -0.7406080365180969 0.2599673569202423
vn 0.2806267738342285 -0.9111401438713074 0.30178195238113403
vn 0.005710958503186703 -0.9424983263015747 0.33416205644607544
vn -0.21626612544059753 -0.8996053338050842 0.37939321994781494
vn -0.9234293103218079 -0.26579201221466064 0.27682676911354065
vn -0.8904216289520264 -0.288353830575943 -0.3521381914615631
vn -0.6468443870544434 -0.45190316438674927 0.6143091917037964
vn -0.6419550180435181 -0.08985160291194916 -0.761459469795227
vn 0.020458973944187164 -0.08868984878063202 -0.9958491921424866
vn 0.5217174291610718 0.020104797556996346 -0.8528814315795898
vn 0.973734974861145 0.13603854179382324 -0.1825750470161438
vn 0.823652446269989 -0.20859821140766144 0.5273361206054688
vn 0.3103400468826294 -0.5689523220062256 0.7615657448768616
vn -0.17143212258815765 -0.5856574177742004 0.7922224998474121
vn -0.9910451769828796 -0.12582145631313324 0.044704630970954895
vn -0.9354695677757263 0.128494992852211 -0.3292197585105896
vn -0.7826129794120789 -0.28322795033454895 0.554345428943634
vn -0.49256661534309387 0.2727919816970825 -0.8264155387878418
vn -0.16998042166233063 -0.4787437319755554 0.8613425493240356
vn 0.17397665977478027 0.2930842936038971 -0.9401243329048157
vn 0.7536043524742126 0.27061694860458374 -0.599038302898407
vn 0.9259327054023743 0.16772915422916412 -0.3384016156196594
vn 0.9852723479270935 0.12309925258159637 0.11867997795343399
vn 0.6122807860374451 -0.27748751640319824 0.7403464317321777
vn -0.9793201684951782 0.18421189486980438 0.08365359157323837
vn -0.9071181416511536 0.09262046217918396 -0.4105583727359772
vn -0.7086535096168518 0.3946937918663025 0.5848308205604553
vn -0.4736715853214264 0.06739670038223267 -0.8781189918518066
vn -0.12274157255887985 0.4131261110305786 0.9023642539978027
vn 0.1957361400127411 0.06550309807062149 -0.9784665107727051
vn 0.49365878105163574 0.3274852931499481 0.8056390881538391
vn 0.7650138139724731 0.03692502900958061 -0.6429542899131775
vn 0.9012050032615662 0.028641002252697945 -0.4324454963207245
vn 0.9916263222694397 0.1230405643582344 -0.03922080993652344
vn -0.9931210875511169 0.03346053138375282 0.11220872402191162
vn -0.8497502207756042 -0.008984951302409172 -0.5271090269088745
vn -0.6247951984405518 0.22858166694641113 0.7465797662734985
vn -0.39789074659347534 -0.0012086244532838464 -0.9174320697784424
vn 0.01202505361288786 0.535678505897522 0.8443363904953003
vn 0.17694887518882751 0.010768706910312176 -0.9841610789299011
vn -0.08570142835378647 0.4271228313446045 0.9001230001449585
vn 0.7946097254753113 0.02304595150053501 -0.6066829562187195
vn 0.7027073502540588 0.0777423158288002 0.7072187662124634
vn 0.9975100755691528 0.041917383670806885 -0.056715019047260284
vn -0.981645405292511 -0.05723358318209648 0.18192477524280548
vn -0.7711994647979736 -0.04156360775232315 -0.6352352499961853
vn -0.43408727645874023 -0.01786305382847786 0.9006935954093933
vn -0.3679143190383911 -0.026427721604704857 -0.9294841289520264
vn 0.0370045006275177 0.10149195045232773 0.9941478967666626
vn 0.3895663619041443 -0.0035036196932196617 -0.9209917187690735
vn -0.010469069704413414 0.0561174601316452 0.9983692765235901
vn 0.9485623836517334 0.0183258019387722 -0.31605955958366394
vn 0.6954318284988403 0.03316469490528107 0.7178263068199158
vn 0.9976270198822021 0.006642370950430632 -0.0685291737318039
vn -0.9384446740150452 -0.034620970487594604 0.3436901867389679
vn -0.8334984183311462 -0.020022548735141754 -0.5521588921546936
vn -0.17257899045944214 -0.014627919532358646 0.9848870038986206
vn -0.42376527190208435 -0.002102713566273451 -0.9057695269584656
vn 0.2105170339345932 0.009292291477322578 0.977545976638794
vn 0.3450900912284851 0.015612977556884289 -0.9384397268295288
vn 0.3012191951274872 0.003974761348217726 0.9535466432571411
vn 0.961917519569397 -0.012599775567650795 -0.2730492055416107
vn 0.9895694851875305 -0.010315223596990108 0.14368639886379242
vn 0.9360007047653198 -0.0704532116651535 -0.3448755741119385
vn -0.932773232460022 -0.009754744358360767 0.3603317141532898
vn -0.8718593120574951 0.004541346337646246 -0.48973548412323
vn -0.19169597327709198 -0.0096577238291502 0.9814068078994751
vn -0.40380436182022095 0.01997329108417034 -0.9146273136138916
vn 0.20962432026863098 -0.00588945159688592 0.9777642488479614
vn 0.1420040875673294 0.01853598840534687 -0.9896925091743469
vn 0.27077457308769226 -0.009502124041318893 0.9625958800315857
vn 0.7170373797416687 -0.06766723096370697 -0.6937423944473267
vn 0.8954341411590576 -0.0756976455450058 0.4387112259864807
vn 0.819560706615448 -0.22785410284996033 -0.5257401466369629
vn -0.9484006762504578 0.023914344608783722 0.316171258687973
vn -0.9337425231933594 0.015729468315839767 -0.3575995862483978
vn -0.4636496305465698 0.0037002365570515394 0.8860109448432922
vn -0.4310249090194702 -0.04560273513197899 -0.901187002658844
vn 0.07504706084728241 -0.022736504673957825 0.9969208240509033
vn -0.15632469952106476 -0.028237950056791306 -0.9873020052909851
vn 0.10101321339607239 -0.04397233575582504 0.9939128160476685
vn 0.30722737312316895 -0.15802191197872162 -0.9384244680404663
vn 0.6318443417549133 -0.15462343394756317 0.7595159411430359
vn 0.8787146806716919 -0.18834255635738373 -0.43862003087997437
vn -0.9129970669746399 0.022405236959457397 0.4073505103588104
vn -0.9804753065109253 -0.048155102878808975 -0.19065505266189575
vn -0.752193033695221 -0.049280088394880295 0.6570975184440613
vn -0.4581521153450012 -0.4394901692867279 -0.7726221084594727
vn -0.16560938954353333 -0.15127582848072052 0.9745199084281921
vn -0.07510147243738174 -0.44290220737457275 -0.8934189677238464
vn 0.21960686147212982 -0.12457268685102463 0.9676024913787842
vn 0.43647831678390503 -0.05413918197154999 -0.8980844616889954
vn 0.6930967569351196 -0.051435213536024094 0.7190071940422058
vn 0.8815132975578308 0.41066718101501465 -0.2329956293106079
vn -0.969078004360199 -0.027397815138101578 0.2452288717031479
vn -0.9756249189376831 -0.15898215770721436 0.15126308798789978
vn -0.9941713213920593 0.010045299306511879 0.10734312981367111
vn -0.6650800704956055 -0.37655386328697205 -0.6448841691017151
vn -0.5092492699623108 0.28382715582847595 0.8124698400497437
vn 0.15482543408870697 -0.007307037711143494 -0.9879148602485657
vn 0.5135329365730286 0.0830051451921463 0.8540457487106323
vn 0.4161655902862549 0.46397021412849426 -0.7820088267326355
vn 0.8373631834983826 0.458173930644989 0.2981601357460022
vn 0.5872077941894531 0.7082622051239014 -0.3918566405773163
vn -0.9727191925048828 0.22565986216068268 0.053805746138095856
vn -0.8799173831939697 0.43859177827835083 0.18270869553089142
vn -0.8982322216033936 0.3356420695781708 -0.2837662994861603
vn -0.45812907814979553 0.7356149554252625 -0.49898722767829895
vn -0.6305046677589417 0.7424637675285339 -0.22629936039447784
vn -0.03258383646607399 0.7528594732284546 -0.6573742628097534
vn 0.3228498697280884 0.9334322214126587 0.15643635392189026
vn 0.04828973114490509 0.7966704368591309 -0.6024817228317261
vn 0.2891687750816345 0.8329485058784485 -0.4717819094657898
vn -0.08360876142978668 0.8021714091300964 -0.5912111401557922
vn -0.5305675268173218 0.7302231788635254 -0.4304324984550476
f 1//1 2//2 3//3
f 1//1 3//3 4//4
f 1//1 4//4 5//5
f 1//1 5//5 6//6
f 1//1 6//6 7//7
f 1//1 7//7 8//8
f 1//1 8//8 9//9
f 1//1 9//9 10//10
f 1//1 10//10 11//11
f 1//1 11//11 2//2
f 13//13 3//3 12//12
f 12//12 3//3 2//2
f 14//14 12//12 11//11
f 2//2 11//11 12//12
f 3//3 13//13 4//4
f 15//15 4//4 13//13
f 15//15 16//16 4//4
f 5//5 4//4 16//16
f 16//16 17//17 5//5
f 6//6 5//5 17//17
f 17//17 18//18 6//6
f 7//7 6//6 18//18
f 18//18 19//19 7//7
f 19//19 8//8 7//7
f 19//19 20//20 8//8
f 9//9 8//8 20//20
f 20//20 21//21 9//9
f 10//10 9//9 21//21
f 21//21 14//14 10//10
f 11//11 10//10 14//14
f 23//23 13//13 22//22
f 12//12 22//22 13//13
f 24//24 22//22 14//14
f 22//22 12//12 14//14
f 13//13 23//23 15//15
f 23//23 25//25 15//15
f 26//26 24//24 21//21
f 21//21 24//24 14//14
f 15//15 25//25 16//16
f 27//27 16//16 25//25
f 16//16 27//27 17//17
f 28//28 17//17 27//27
f 17//17 28//28 18//18
f 29//29 18//18 28//28
f 19//19 18//18 30//30
f 29//29 30//30 18//18
f 30//30 31//31 19//19
f 19//19 31//31 20//20
f 31//31 26//26 20//20
f 21//21 20//20 26//26
f 22//22 32//32 23//23
f 33//33 23//23 32//32
f 24//24 34//34 22//22
f 32//32 22//22 34//34
f 23//23 33//33 25//25
f 35//35 25//25 33//33
f 34//34 24//24 36//36
f 26//26 36//36 24//24
f 25//25 35//35 27//27
f 27//27 35//35 37//37
f 38//38 36//36 31//31
f 26//26 31//31 36//36
f 27//27 37//37 28//28
f 39//39 28//28 37//37
f 28//28 39//39 29//29
f 40//40 29//29 39//39
f 30//30 29//29 41//41
f 40//40 41//41 29//29
f 31//31 30//30 38//38
f 30//30 41//41 38//38
f 32//32 42//42 33//33
f 33//33 42//42 43//43
f 34//34 44//44 32//32
f 42//42 32//32 44//44
f 33//33 43//43 35//35
f 45//45 35//35 43//43
f 44//44 34//34 46//46
f 34//34 36//36 46//46
f 35//35 45//45 37//37
f 47//47 37//37 45//45
f 38//38 48//48 36//36
f 36//36 48//48 46//46
f 37//37 47//47 39//39
f 49//49 39//39 47//47
f 38//38 41//41 48//48
f 50//50 48//48 41//41
f 39//39 49//49 40//40
f 51//51 40//40 49//49
f 41//41 40//40 50//50
f 51//51 50//50 40//40
f 53//53 43//43 52//52
f 42//42 52//52 43//43
f 44//44 54//54 42//42
f 52//52 42//42 54//54
f 55//55 45//45 53//53
f 53//53 45//45 43//43
f 46//46 56//56 44//44
f 54//54 44//44 56//56
f 57//57 47//47 55//55
f 45//45 55//55 47//47
f 46//46 48//48 56//56
f 58//58 56//56 48//48
f 47//47 57//57 49//49
f 59//59 49//49 57//57
f 48//48 50//50 58//58
f 60//60 58//58 50//50
f 49//49 59//59 51//51
f 61//61 51//51 59//59
f 50//50 51//51 60//60
f 61//61 60//60 51//51
f 52//52 62//62 53//53
f 63//63 53//53 62//62
f 62//62 52//52 64//64
f 54//54 64//64 52//52
f 65//65 55//55 63//63
f 53//53 63//63 55//55
f 64//64 54//54 66//66
f 56//56 66//66 54//54
f 67//67 57//57 65//65
f 55//55 65//65 57//57
f 56//56 58//58 66//66
f 68//68 66//66 58//58
f 69//69 59//59 67//67
f 67//67 59//59 57//57
f 58//58 60//60 68//68
f 70//70 68//68 60//60
f 71//71 61//61 69//69
f 59//59 69//69 61//61
f 71//71 70//70 61//61
f 60//60 61//61 70//70
f 62//62 72//72 63//63
f 63//63 72//72 73//73
f 72//72 62//62 74//74
f 62//62 64//64 74//74
f 63//63 73//73 65//65
f 75//75 65//65 73//73
f 74//74 64//64 76//76
f 66//66 76//76 64//64
f 65//65 75//75 67//67
f 77//77 67//67 75//75
f 78//78 76//76 68//68
f 66//66 68//68 76//76
f 79//79 69//69 77//77
f 67//67 77//77 69//69
f 80//80 78//78 70//70
f 70//70 78//78 68//68
f 81//81 71//71 79//79
f 69//69 79//79 71//71
f 81//81 80//80 71//71
f 70//70 71//71 80//80
f 72//72 82//82 73//73
f 83//83 73//73 82//82
f 74//74 84//84 72//72
f 72//72 84//84 82//82
f 73//73 83//83 75//75
f 85//85 75//75 83//83
f 76//76 86//86 74//74
f 84//84 74//74 86//86
f 77//77 75//75 87//87
f 85//85 87//87 75//75
f 88//88 86//86 78//78
f 76//76 78//78 86//86
f 89//89 79//79 87//87
f 87//87 79//79 77//77
f 90//90 88//88 80//80
f 78//78 80//80 88//88
f 91//91 81//81 89//89
f 79//79 89//89 81//81
f 91//91 90//90 81//81
f 80//80 81//81 90//90
f 93//93 83//83 92//92
f 82//82 92//92 83//83
f 82//82 84//84 92//92
f 94//94 92//92 84//84
f 95//95 85//85 93//93
f 83//83 93//93 85//85
f 84//84 86//86 94//94
f 86//86 96//96 94//94
f 95//95 97//97 85//85
f 87//87 85//85 97//97
f 98//98 96//96 88//88
f 96//96 86//86 88//88
f 99//99 89//89 97//97
f 87//87 97//97 89//89
f 100//100 98//98 90//90
f 88//88 90//90 98//98
f 89//89 99//99 91//91
f 101//101 91//91 99//99
f 101//101 100//100 91//91
f 90//90 91//91 100//100
f 103//103 93//93 102//102
f 102//102 93//93 92//92
f 104//104 102//102 94//94
f 92//92 94//94 102//102
f 105//105 95//95 103//103
f 93//93 103//103 95//95
f 106//106 104//104 96//96
f 94//94 96//96 104//104
f 107//107 97//97 105//105
f 95//95 105//105 97//97
f 106//106 96//96 108//108
f 98//98 108//108 96//96
f 97//97 107//107 99//99
f 109//109 99//99 107//107
f 110//110 108//108 100//100
f 100//100 108//108 98//98
f 111//111 101//101 109//109
f 99//99 109//109 101//101
f 100//100 101//101 110//110
f 111//111 110//110 101//101
f 102//102 112//112 103//103
f 103//103 112//112 113//113
f 102//102 104//104 112//112
f 104//104 114//114 112//112
f 103//103 113//113 105//105
f 115//115 105//105 113//113
f 104//104 106//106 114//114
f 116//116 114//114 106//106
f 105//105 115//115 107//107
f 117//117 107//107 115//115
f 108//108 118//118 106//106
f 116//116 106//106 118//118
f 107//107 117//117 109//109
f 119//119 109//109 117//117
f 108//108 110//110 118//118
f 120//120 118//118 110//110
f 109//109 119//119 111//111
f 121//121 111//111 119//119
f 110//110 111//111 120//120
f 111//111 121//121 120//120
f 112//112 122//122 113//113
f 114//114 122//122 112//112
f 113//113 122//122 115//115
f 116//116 122//122 114//114
f 115//115 122//122 117//117
f 118//118 122//122 116//116
f 117//117 122//122 119//119
f 120//120 122//122 118//118
f 119//119 122//122 121//121
f 121//121 122//122 120//120
