# Generated by Visualization Toolkit
v 0 0.05291999876499176 0
v 0 0.05027399957180023 -0.012600000016391277
v 0 0.044982001185417175 -0.021764000877738
v 0 0.035280000418424606 -0.024708999320864677
v 0 0.023814000189304352 -0.021436000242829323
v 0 0.018345000222325325 -0.015545999631285667
v 0 0.00864300038665533 -0.013418000191450119
v 0 0.0042329998686909676 -0.008182000368833542
v 0 0 0
v 0.005481999833136797 0.0491270013153553 -0.007546000182628632
v 0.01014699973165989 0.04436499997973442 -0.013965999707579613
v 0.012023000046610832 0.03395700082182884 -0.016548000276088715
v 0.011013000272214413 0.023814000189304352 -0.015158000402152538
v 0.008511999621987343 0.016493000090122223 -0.01171599980443716
v 0.006924999877810478 0.00873200036585331 -0.009530999697744846
v 0.003990999888628721 0.003969000186771154 -0.005495000164955854
v 0.005758000072091818 0.04797999933362007 -0.0018710000440478325
v 0.012138999998569489 0.04374700039625168 -0.003944000229239464
v 0.015406999737024307 0.03263400122523308 -0.005005999933928251
v 0.01525100041180849 0.023814000189304352 -0.004954999778419733
v 0.012760999612510204 0.01464099995791912 -0.004145999904721975
v 0.009649000130593777 0.008820000104606152 -0.0031349998898804188
v 0.005135000217705965 0.003705000039190054 -0.0016690000193193555
v 0.005758000072091818 0.04797999933362007 0.0018710000440478325
v 0.012138999998569489 0.04374700039625168 0.003944000229239464
v 0.015406999737024307 0.03263400122523308 0.005005999933928251
v 0.01525100041180849 0.023814000189304352 0.004954999778419733
v 0.012760999612510204 0.01464099995791912 0.004145999904721975
v 0.009649000130593777 0.008820000104606152 0.0031349998898804188
v 0.005135000217705965 0.003705000039190054 0.0016690000193193555
v 0.0038950000889599323 0.04974399879574776 0.005361999850720167
v 0.008992999792098999 0.04656900092959404 0.012377999722957611
v 0.012600000016391277 0.03492699936032295 0.017342999577522278
v 0.011590000241994858 0.02346000075340271 0.015953000634908676
v 0.009088999591767788 0.016228999942541122 0.012511000037193298
v 0.007550999987870455 0.008555999957025051 0.01039199996739626
v 0.004616999998688698 0.00343999988399446 0.00635500019416213
v 0 0.05150900036096573 0.007199999876320362
v 0 0.04939199984073639 0.01783600077033043
v 0 0.037220001220703125 0.026673000305891037
v 0 0.02310900017619133 0.023399999365210533
v 0 0.017815999686717987 0.01750900037586689
v 0 0.008290999568998814 0.015545999631285667
v 0 0.0031739999540150166 0.010308999568223953
v -0.003367000026628375 0.05159600079059601 0.004633000120520592
v -0.006781000178307295 0.04559899866580963 0.009332999587059021
v -0.008751999586820602 0.035985998809337616 0.012047000229358673
v -0.007934999652206898 0.025225000455975533 0.01092199981212616
v -0.008464000187814236 0.015170999802649021 0.011649999767541885
v -0.007550999987870455 0.007761000189930201 0.01039199996739626
v -0.0050490000285208225 0.0030869999900460243 0.006949999835342169
v -0.004046000074595213 0.05168500170111656 0.0013150000013411045
v -0.004980999976396561 0.04180699959397316 0.001617999980226159
v -0.002956999931484461 0.03475100174546242 0.0009609999833628535
v -0.00342399999499321 0.027341999113559723 0.0011119999689981341
v -0.010738000273704529 0.012524000369012356 0.0034890000242739916
v -0.009649000130593777 0.00723200011998415 0.0031349998898804188
v -0.006535999942570925 0.0029990000184625387 0.002124000107869506
v -0.004046000074595213 0.05168500170111656 -0.0013150000013411045
v -0.004980999976396561 0.04180699959397316 -0.001617999980226159
v -0.002956999931484461 0.03475100174546242 -0.0009609999833628535
v -0.00342399999499321 0.027341999113559723 -0.0011119999689981341
v -0.010738000273704529 0.012524000369012356 -0.0034890000242739916
v -0.009649000130593777 0.00723200011998415 -0.0031349998898804188
v -0.006535999942570925 0.0029990000184625387 -0.002124000107869506
v -0.004954000003635883 0.050978999584913254 -0.006818000227212906
v -0.007934999652206898 0.04339500144124031 -0.01092199981212616
v -0.008175999857485294 0.03501499816775322 -0.011253000237047672
v -0.00735800014808774 0.0255769994109869 -0.010127999819815159
v -0.00788700021803379 0.015434999950230122 -0.010855999775230885
v -0.006924999877810478 0.007937000133097172 -0.009530999697744846
v -0.004424000158905983 0.003616000059992075 -0.006089000031352043
vn 0.19591818749904633 0.9806035757064819 0.005724131129682064
vn -0.025669477880001068 0.9127256274223328 -0.40776580572128296
vn -0.3681761920452118 0.532343864440918 -0.7622706294059753
vn -0.00023397913901135325 0.08833139389753342 -0.9960911870002747
vn -0.24893008172512054 -0.4219074547290802 -0.8717958331108093
vn -0.15240144729614258 -0.3886028230190277 -0.9087142944335938
vn -0.0006872388767078519 -0.45286551117897034 -0.8915786147117615
vn 0.060389839112758636 -0.8019153475761414 -0.5943777561187744
vn 0.09624318033456802 -0.9921913146972656 -0.07933110743761063
vn 0.556294858455658 0.8283752202987671 -0.06580714881420135
vn 0.6676267981529236 0.5766141414642334 -0.4709465801715851
vn 0.8119889497756958 0.05003548413515091 -0.5815241932868958
vn 0.7030283808708191 -0.3554934859275818 -0.6159346699714661
vn 0.6227163076400757 -0.35757458209991455 -0.6959632039070129
vn 0.6073430776596069 -0.567497968673706 -0.5559500455856323
vn 0.5150483846664429 -0.7735061049461365 -0.36934205889701843
vn 0.6148725152015686 0.7861136198043823 0.06290619820356369
vn 0.7890148162841797 0.6118713021278381 -0.055399343371391296
vn 0.9860397577285767 0.09851612895727158 -0.134239062666893
vn 0.9512467384338379 -0.22006234526634216 -0.21610672771930695
vn 0.8884638547897339 -0.39224493503570557 -0.23827700316905975
vn 0.7740830779075623 -0.6155120134353638 -0.14812226593494415
vn 0.6457862854003906 -0.7543078660964966 -0.11823621392250061
vn 0.5988091826438904 0.8004323244094849 -0.027121683582663536
vn 0.807910680770874 0.5891067981719971 0.015282406471669674
vn 0.9778572916984558 0.1325969249010086 0.16190506517887115
vn 0.968967616558075 -0.17458803951740265 0.17498743534088135
vn 0.918196976184845 -0.3499448001384735 0.1856151521205902
vn 0.8202280402183533 -0.5665009617805481 0.07938916236162186
vn 0.6858581900596619 -0.7276263236999512 0.012584817595779896
vn 0.5502724051475525 0.8348932862281799 0.012382201850414276
vn 0.6975269913673401 0.6773766875267029 0.23370271921157837
vn 0.765347957611084 0.15679782629013062 0.6242251396179199
vn 0.7497477531433105 -0.34695035219192505 0.563474714756012
vn 0.6913288235664368 -0.3514225482940674 0.6313214302062988
vn 0.6918879747390747 -0.5324344038963318 0.4876522421836853
vn 0.5994871258735657 -0.7687293291091919 0.2228684276342392
vn 0.02680790424346924 0.9661176800727844 0.25670579075813293
vn -0.1684906780719757 0.7653639316558838 0.6211512684822083
vn -0.20698429644107819 0.19929225742816925 0.9578309655189514
vn -0.22988645732402802 -0.40965646505355835 0.8827988505363464
vn -0.14203307032585144 -0.3981042504310608 0.9062779545783997
vn -0.0036899226251989603 -0.43027418851852417 0.902690589427948
vn 0.04821484535932541 -0.833466649055481 0.5504621267318726
vn -0.4280986487865448 0.8608580827713013 0.27505427598953247
vn -0.9209912419319153 0.37654656171798706 0.09993930160999298
vn -0.9750053286552429 0.08340348303318024 0.2059328854084015
vn -0.9907522797584534 -0.0029350677505135536 0.1356506198644638
vn -0.7595387101173401 -0.08291321992874146 0.6451560258865356
vn -0.7153544425964355 -0.45393991470336914 0.531231164932251
vn -0.5201219916343689 -0.789050817489624 0.32691293954849243
vn -0.7764342427253723 0.6301959156990051 -0.0016907696845009923
vn -0.9937872886657715 -0.09313630312681198 -0.06093064695596695
vn -0.9666007161140442 -0.06907128542661667 -0.24680399894714355
vn -0.9669353365898132 0.20598839223384857 -0.15034884214401245
vn -0.9948112964630127 0.07322776317596436 0.07062668353319168
vn -0.8652528524398804 -0.48254677653312683 0.13596336543560028
vn -0.610440731048584 -0.7860285043716431 0.09757717698812485
vn -0.8495515584945679 0.5272215604782104 0.01730603165924549
vn -0.9776607751846313 -0.017155280336737633 0.20948746800422668
vn -0.9777055382728577 -0.09018756449222565 0.18962633609771729
vn -0.947553277015686 0.28524670004844666 0.14414286613464355
vn -0.9867182970046997 0.05366566404700279 -0.1533205211162567
vn -0.8758529424667358 -0.43364420533180237 -0.21174152195453644
vn -0.6340176463127136 -0.7567951679229736 -0.15900522470474243
vn -0.7183568477630615 0.6889276504516602 -0.0966539978981018
vn -0.9163460731506348 0.3390667736530304 -0.21294042468070984
vn -0.9869230389595032 -0.04876736178994179 -0.15363867580890656
vn -0.9857516884803772 -0.0052100359462201595 -0.16812613606452942
vn -0.6979964375495911 -0.09166695177555084 -0.7102099061012268
vn -0.6211477518081665 -0.4913443326950073 -0.6105376482009888
vn -0.4106613099575043 -0.7800073623657227 -0.472171425819397
f 10//10 2//2 1//1
f 3//3 2//2 11//11
f 2//2 10//10 11//11
f 12//12 4//4 11//11
f 3//3 11//11 4//4
f 4//4 12//12 5//5
f 13//13 5//5 12//12
f 14//14 6//6 13//13
f 5//5 13//13 6//6
f 6//6 14//14 7//7
f 15//15 7//7 14//14
f 7//7 15//15 8//8
f 8//8 15//15 16//16
f 16//16 9//9 8//8
f 17//17 10//10 1//1
f 11//11 10//10 18//18
f 17//17 18//18 10//10
f 19//19 12//12 18//18
f 11//11 18//18 12//12
f 12//12 19//19 13//13
f 20//20 13//13 19//19
f 13//13 20//20 14//14
f 21//21 14//14 20//20
f 14//14 21//21 15//15
f 22//22 15//15 21//21
f 15//15 22//22 16//16
f 23//23 16//16 22//22
f 23//23 9//9 16//16
f 24//24 17//17 1//1
f 25//25 18//18 24//24
f 17//17 24//24 18//18
f 26//26 19//19 25//25
f 25//25 19//19 18//18
f 26//26 27//27 19//19
f 20//20 19//19 27//27
f 27//27 28//28 20//20
f 21//21 20//20 28//28
f 28//28 29//29 21//21
f 22//22 21//21 29//29
f 29//29 30//30 22//22
f 22//22 30//30 23//23
f 30//30 9//9 23//23
f 31//31 24//24 1//1
f 32//32 25//25 31//31
f 24//24 31//31 25//25
f 33//33 26//26 32//32
f 32//32 26//26 25//25
f 33//33 34//34 26//26
f 27//27 26//26 34//34
f 28//28 27//27 35//35
f 34//34 35//35 27//27
f 35//35 36//36 28//28
f 29//29 28//28 36//36
f 36//36 37//37 29//29
f 30//30 29//29 37//37
f 37//37 9//9 30//30
f 38//38 31//31 1//1
f 39//39 32//32 38//38
f 31//31 38//38 32//32
f 40//40 33//33 39//39
f 32//32 39//39 33//33
f 40//40 41//41 33//33
f 34//34 33//33 41//41
f 35//35 34//34 42//42
f 41//41 42//42 34//34
f 42//42 43//43 35//35
f 36//36 35//35 43//43
f 43//43 44//44 36//36
f 37//37 36//36 44//44
f 44//44 9//9 37//37
f 45//45 38//38 1//1
f 39//39 38//38 46//46
f 45//45 46//46 38//38
f 40//40 39//39 47//47
f 46//46 47//47 39//39
f 40//40 47//47 41//41
f 48//48 41//41 47//47
f 49//49 42//42 48//48
f 41//41 48//48 42//42
f 42//42 49//49 43//43
f 50//50 43//43 49//49
f 43//43 50//50 44//44
f 51//51 44//44 50//50
f 51//51 9//9 44//44
f 52//52 45//45 1//1
f 53//53 46//46 52//52
f 52//52 46//46 45//45
f 47//47 46//46 54//54
f 53//53 54//54 46//46
f 47//47 54//54 48//48
f 55//55 48//48 54//54
f 55//55 56//56 48//48
f 49//49 48//48 56//56
f 49//49 56//56 50//50
f 57//57 50//50 56//56
f 50//50 57//57 51//51
f 58//58 51//51 57//57
f 58//58 9//9 51//51
f 59//59 52//52 1//1
f 60//60 53//53 59//59
f 52//52 59//59 53//53
f 60//60 61//61 53//53
f 54//54 53//53 61//61
f 62//62 55//55 61//61
f 54//54 61//61 55//55
f 63//63 56//56 62//62
f 55//55 62//62 56//56
f 63//63 64//64 56//56
f 57//57 56//56 64//64
f 64//64 65//65 57//57
f 57//57 65//65 58//58
f 65//65 9//9 58//58
f 66//66 59//59 1//1
f 67//67 60//60 66//66
f 59//59 66//66 60//60
f 67//67 68//68 60//60
f 60//60 68//68 61//61
f 68//68 69//69 61//61
f 61//61 69//69 62//62
f 62//62 69//69 63//63
f 70//70 63//63 69//69
f 70//70 71//71 63//63
f 64//64 63//63 71//71
f 71//71 72//72 64//64
f 65//65 64//64 72//72
f 72//72 9//9 65//65
f 2//2 66//66 1//1
f 3//3 67//67 2//2
f 2//2 67//67 66//66
f 4//4 68//68 3//3
f 67//67 3//3 68//68
f 4//4 5//5 68//68
f 5//5 69//69 68//68
f 70//70 69//69 6//6
f 5//5 6//6 69//69
f 6//6 7//7 70//70
f 71//71 70//70 7//7
f 7//7 8//8 71//71
f 72//72 71//71 8//8
f 8//8 9//9 72//72
