# Generated by Visualization Toolkit
v 0.013027999550104141 -0.361501008272171 -0.010207000188529491
v -0.01257999986410141 -0.37861499190330505 0.01083999965339899
v 0.01092199981212616 -0.3634360134601593 0.0022189998999238014
v 0.01486899983137846 -0.37428298592567444 -0.005665999837219715
v 0.013407000340521336 -0.3723909854888916 -0.01660900004208088
v -0.000307999987853691 -0.3604179918766022 -0.01635799929499626
v 0.010583000257611275 -0.34773901104927063 -0.007277000229805708
v 0.010621000081300735 -0.34775999188423157 0.0033050000201910734
v -0.009658999741077423 -0.3609299957752228 0.009914999827742577
v -0.02396100014448166 -0.3716740012168884 0.006635999772697687
v -0.02552800066769123 -0.38203001022338867 0.001151000033132732
v -0.011549999937415123 -0.3807789981365204 0.003172999946400523
v -0.005034999921917915 -0.37449100613594055 0.022569000720977783
v -0.005737000145018101 -0.3616499900817871 0.017028000205755234
v -0.000653000024612993 -0.3835909962654114 0.01922300085425377
v -0.006345999892801046 -0.37984099984169006 0.013175000436604023
v -0.0026279999874532223 -0.38109099864959717 -0.0013170000165700912
v 0.010068999603390694 -0.3778190016746521 0.003166999900713563
v 0.00368200009688735 -0.3614700138568878 0.01243400014936924
v 0.006593999918550253 -0.3828440010547638 -0.007331999950110912
v 0.010414999909698963 -0.3836610019207001 -0.014050999656319618
v 0.013275000266730785 -0.3813529908657074 -0.023056000471115112
v 0.004017000086605549 -0.3714529871940613 -0.02238599956035614
v -0.007978999987244606 -0.3582409918308258 -0.0143630001693964
v 0.00012199999764561653 -0.3468039929866791 -0.011943000368773937
v 0.009738000109791756 -0.31061598658561707 -0.0015849999617785215
v 0.012551999650895596 -0.31124499440193176 0.0030819999519735575
v 0.002597999991849065 -0.3480519950389862 0.01208299957215786
v -0.013929000124335289 -0.3592590093612671 0.0018019999843090773
v -0.009216999635100365 -0.34680798649787903 0.006273999810218811
v -0.004933999851346016 -0.3471490144729614 0.013062000274658203
v -0.025944000110030174 -0.3752950131893158 0.0026499999221414328
v -0.019548000767827034 -0.3823769986629486 -0.010301999747753143
v -0.022727999836206436 -0.3833799958229065 -0.003792000003159046
v -0.010412000119686127 -0.3822369873523712 -0.005919000133872032
v 0.0040799998678267 -0.3779880106449127 0.017878999933600426
v 0.005020999815315008 -0.3845059871673584 0.0031789999920874834
v 0.000813000020571053 -0.38033801317214966 -0.011055000126361847
v 0.009499000385403633 -0.3916639983654022 -0.0158929992467165
v 0.010065999813377857 -0.38881900906562805 -0.02322700060904026
v 0.004217999987304211 -0.38062000274658203 -0.026305999606847763
v -0.006341000087559223 -0.36821499466896057 -0.022415999323129654
v -0.015627000480890274 -0.370061993598938 -0.012609000317752361
v -0.01285099983215332 -0.35848599672317505 -0.005685000214725733
v -0.007395999971777201 -0.34681999683380127 -0.01140500046312809
v 0.0021550001110881567 -0.30980199575424194 -0.006051000207662582
v 0.005470000207424164 -0.2718749940395355 -0.002145000034943223
v 0.012186000123620033 -0.27281099557876587 0.003367000026628375
v 0.0063669998198747635 -0.3099749982357025 0.012645999900996685
v 0.01691100001335144 -0.2734920084476471 0.009696999564766884
v -0.020772000774741173 -0.37042099237442017 -0.005288999993354082
v -0.010906999930739403 -0.34630200266838074 -0.0012809999752789736
v -0.0046709999442100525 -0.3102790117263794 0.01231900043785572
v -0.006748999934643507 -0.31045401096343994 0.0035409999545663595
v -0.014418000355362892 -0.3814150094985962 -0.016293000429868698
v -0.0031419999431818724 -0.38971200585365295 -0.018479999154806137
v 0.002113000024110079 -0.3939709961414337 -0.018331000581383705
v 0.0065100002102553844 -0.38967299461364746 -0.025498999282717705
v -0.00457700015977025 -0.37882199883461 -0.026643000543117523
v -0.005797000136226416 -0.30970799922943115 -0.005621000193059444
v -0.0027089999057352543 -0.27264198660850525 -0.0032599999103695154
v 0.0018710000440478325 -0.2349269986152649 -0.0034149999264627695
v 0.009279999881982803 -0.23531000316143036 -0.0003769999893847853
v 0.0165570005774498 -0.23572400212287903 0.006424999795854092
v 0.009620999917387962 -0.273404985666275 0.014661000110208988
v 0.01837100088596344 -0.23623499274253845 0.014541000127792358
v -0.0023139999248087406 -0.27714401483535767 0.011127999983727932
v -0.004813000094145536 -0.2740199863910675 0.005348000209778547
v -0.010369000025093555 -0.38600799441337585 -0.022477999329566956
v 0.0010860000038519502 -0.38906699419021606 -0.02737800031900406
v -0.0022330000065267086 -0.23423999547958374 0.0034990001004189253
v 0.003287999890744686 -0.20111100375652313 -0.0030040000565350056
v -0.0016449999529868364 -0.2013089954853058 0.0024999999441206455
v 0.011878999881446362 -0.20037099719047546 -0.0010140000376850367
v 0.018174000084400177 -0.2016499936580658 0.0056570000015199184
v 0.009638999588787556 -0.23706600069999695 0.015518000349402428
v 0.021522000432014465 -0.20202499628067017 0.013577999547123909
v 0.012236000038683414 -0.20169299840927124 0.01547400001436472
v 0.002032000105828047 -0.23550599813461304 0.013489999808371067
v -0.0009050000226125121 -0.20194199681282043 0.011156000196933746
v 0.00850099977105856 -0.16286000609397888 -0.00456500006839633
v 0.0012440000427886844 -0.16311199963092804 -0.0019829999655485153
v -0.0022060000337660313 -0.16154399514198303 0.0009529999806545675
v 0.01382800005376339 -0.16350099444389343 -0.0004360000020824373
v 0.018498999997973442 -0.16380199790000916 0.0045540002174675465
v 0.00304899993352592 -0.20144400000572205 0.013638000003993511
v 0.02168400026857853 -0.16426800191402435 0.014613999985158443
v 0.009762999601662159 -0.16239100694656372 0.014612000435590744
v -0.0013289999915286899 -0.16244199872016907 0.007579000201076269
v 0.010219999589025974 -0.12742599844932556 -0.003470000112429261
v 0.004528000019490719 -0.12838999927043915 -0.005644999910145998
v -0.0045289997942745686 -0.1261029988527298 0.002710999920964241
v -0.002256999956443906 -0.12625500559806824 0.009909000247716904
v 0.01592000015079975 -0.12703099846839905 0.0017999999690800905
v 0.02241699956357479 -0.1272449940443039 0.008705000393092632
v 0.02234400063753128 -0.12625400722026825 0.013492000289261341
v 0.009422999806702137 -0.1256520003080368 0.014214999973773956
v 0.009278999641537666 -0.08654599636793137 -0.005402000155299902
v -0.0012199999764561653 -0.08739899843931198 -0.007903999648988247
v -0.007619999814778566 -0.08705999702215195 -0.0013510000426322222
v -0.006384000182151794 -0.08786100149154663 0.009349999949336052
v -0.002449000021442771 -0.08730299770832062 0.016793999820947647
v 0.021122999489307404 -0.08648400008678436 0.0050130002200603485
v 0.021862000226974487 -0.08702699840068817 0.015522999688982964
v 0.006990999914705753 -0.08707500249147415 0.01777699962258339
v -0.0014430000446736813 -0.07288400083780289 -0.011428999714553356
v 0.010727999731898308 -0.060527000576257706 -0.00686000008136034
v 0.01547200046479702 -0.07208699733018875 -0.0004689999914262444
v -0.012993000447750092 -0.05975399911403656 -0.005493999924510717
v -0.00837900023907423 -0.07236699759960175 0.006316000130027533
v -0.008932000026106834 -0.05865100026130676 0.017527999356389046
v -0.0041970000602304935 -0.05826300010085106 0.021763000637292862
v 0.02761399932205677 -0.06657800078392029 0.008546000346541405
v 0.023989999666810036 -0.06916999816894531 0.0030449999030679464
v 0.013465000316500664 -0.07604800164699554 0.01819000020623207
v 0.01627100072801113 -0.06857100129127502 0.020322000607848167
v 0.0238840002566576 -0.06899899989366531 0.016651000827550888
v 0.010486000217497349 -0.05576999858021736 0.023892000317573547
v -0.002443999983370304 -0.06235399842262268 -0.013969000428915024
v 0.008600999601185322 -0.05092199891805649 -0.010497000068426132
v 0.02070700004696846 -0.0588500015437603 -0.0005760000203736126
v -0.017280999571084976 -0.04639900103211403 0.012085000053048134
v -0.025219999253749847 -0.03959900140762329 0.012091999873518944
v -0.02431200072169304 -0.04735200107097626 -0.006659999955445528
v -0.02250099927186966 -0.047520000487565994 -0.013659000396728516
v -0.015444000251591206 -0.049644000828266144 -0.022141000255942345
v -0.01533500012010336 -0.04766499996185303 0.020145999267697334
v -0.011750999838113785 -0.045079998672008514 0.030202999711036682
v 0.024991000071167946 -0.059978000819683075 0.016784999519586563
v 0.027319999411702156 -0.05511299893260002 0.010888000018894672
v 0.02010600082576275 -0.0527539998292923 0.02450699917972088
v 0.00981799978762865 -0.036497000604867935 0.035847000777721405
v -0.0055669997818768024 -0.04846300184726715 -0.024632999673485756
v -0.005969000048935413 -0.020982999354600906 0.007567000109702349
v 0.0034910000395029783 -0.022902999073266983 0.01335499994456768
v 0.018730999901890755 -0.04165399819612503 -0.006256000138819218
v 0.02170800045132637 -0.04567199945449829 0.0033130000811070204
v -0.026132000610232353 -0.02980400063097477 0.013679999858140945
v -0.024591000750660896 -0.02675499953329563 0.009538000449538231
v -0.027334000915288925 -0.031321000307798386 0.020901000127196312
v -0.02593499980866909 -0.0422619991004467 0.0253090001642704
v -0.022255999967455864 -0.028325000777840614 0.0032110000029206276
v -0.02969300001859665 -0.03972499817609787 -0.001129999989643693
v -0.02989800088107586 -0.031000999733805656 -0.015541999600827694
v -0.024302000179886818 -0.03266099840402603 -0.027350999414920807
v -0.02930399961769581 -0.03229900076985359 -0.02121400088071823
v -0.0047240001149475574 -0.02722099982202053 -0.03064199909567833
v -0.01739099994301796 -0.0314829982817173 -0.030559999868273735
v -0.015780000016093254 -0.036722999066114426 0.03697500005364418
v -0.0007249999907799065 -0.028390999883413315 0.03822699934244156
v 0.021935999393463135 -0.050659000873565674 0.018686000257730484
v 0.017860999330878258 -0.031780000776052475 0.02550699934363365
v 0.012097000144422054 -0.02495099976658821 0.028332000598311424
v 0.011615999974310398 -0.03364599868655205 -0.018149999901652336
v -0.0007810000097379088 -0.022569000720977783 0.0008590000215917826
v -0.003705000039190054 -0.02320699952542782 0.02027300000190735
v -0.011229000054299831 -0.01799900084733963 0.006175999995321035
v -0.006783000193536282 -0.021302999928593636 -0.0001900000061141327
v 0.010804999619722366 -0.0217909999191761 -0.004011999815702438
v 0.014996999874711037 -0.02532700076699257 0.009314999915659428
v 0.008000999689102173 -0.023806000128388405 0.020111000165343285
v 0.017004000023007393 -0.023963000625371933 -0.005332999862730503
v -0.01587500050663948 -0.025530999526381493 0.02131599932909012
v -0.01958099938929081 -0.021935999393463135 0.00725100003182888
v -0.025700999423861504 -0.030119000002741814 0.027612999081611633
v -0.02181299962103367 -0.03512800112366676 0.03351199999451637
v -0.016964999958872795 -0.02696399949491024 -0.009693999774754047
v -0.018364999443292618 -0.02157299965620041 -0.002463999902829528
v -0.02676899917423725 -0.0322440005838871 -0.007493000011891127
v -0.024404000490903854 -0.029841000214219093 -0.01171599980443716
v -0.017869999632239342 -0.029830999672412872 -0.015995999798178673
v -0.007327999919652939 -0.028056999668478966 -0.016845999285578728
v 0.0010639999527484179 -0.02565000019967556 -0.025397000834345818
v -0.01992099918425083 -0.027247000485658646 0.034637998789548874
v -0.007720000110566616 -0.022540999576449394 0.034432001411914825
v -0.000770999991800636 -0.020941000431776047 0.03243099898099899
v 0.015653999522328377 -0.02689800038933754 0.016169000416994095
v 0.007350000087171793 -0.022268999367952347 0.02586599998176098
v 0.007234000135213137 -0.023226000368595123 -0.01910500042140484
v -0.004017000086605549 -0.01862199977040291 -0.005979000125080347
v -0.01271199993789196 -0.018279999494552612 -0.004089000169187784
v 0.002919000107795 -0.021066000685095787 -0.005078000016510487
v -0.01065799966454506 -0.02431900054216385 0.021209999918937683
v -0.011983999982476234 -0.017937999218702316 0.0019039999460801482
v 0.005049999803304672 -0.02130500040948391 -0.01232600025832653
v 0.010727999731898308 -0.02313300035893917 -0.00925000011920929
vn 0.9618954658508301 0.06939971446990967 -0.26446327567100525
vn -0.39870497584342957 -0.7649875283241272 0.5057948231697083
vn 0.9898561835289001 -0.14187368750572205 0.0075104208663105965
vn 0.9835702776908875 -0.177768275141716 0.03142932057380676
vn 0.8615654110908508 0.23464639484882355 -0.45016247034072876
vn 0.4377700984477997 0.2991383671760559 -0.8478641510009766
vn 0.7806494235992432 0.17103640735149384 -0.6011097431182861
vn 0.9288813471794128 0.026060031726956367 0.3694596290588379
vn -0.7453279495239258 0.3171629309654236 0.5864247679710388
vn -0.7521437406539917 0.22426564991474152 0.6196650862693787
vn -0.6731287240982056 -0.6607704162597656 0.33208462595939636
vn 0.06884083151817322 -0.9669705629348755 0.2454155534505844
vn -0.19150975346565247 -0.044196829199790955 0.9804951548576355
vn -0.19488714635372162 0.280707985162735 0.939798891544342
vn 0.10368785262107849 -0.9478629231452942 0.3013380169868469
vn -0.3616674542427063 -0.8226827383041382 -0.43862247467041016
vn -0.23277533054351807 -0.9676890969276428 -0.09691979736089706
vn 0.9368986487388611 -0.3478762209415436 0.0346856415271759
vn 0.7178895473480225 0.0939323902130127 0.6897907853126526
vn 0.30759185552597046 -0.9418233633041382 -0.13548392057418823
vn 0.7432575821876526 -0.5610268712043762 0.3644405007362366
vn 0.8855835199356079 0.001512939459644258 -0.4644777178764343
vn 0.26188337802886963 0.5003721117973328 -0.8252544403076172
vn -0.4622655510902405 0.4335884749889374 -0.7735059857368469
vn 0.18155692517757416 0.2171608954668045 -0.9591028690338135
vn 0.6509668231010437 0.08010314404964447 -0.7548680305480957
vn 0.9987837076187134 -0.041925083845853806 0.025948651134967804
vn 0.536811351776123 0.04195046424865723 0.8426586389541626
vn -0.8564321398735046 0.5003275275230408 0.12726478278636932
vn -0.916778564453125 0.1303640455007553 0.37752118706703186
vn -0.448506236076355 0.11942540854215622 0.885765016078949
vn -0.9770157933235168 0.18619747459888458 -0.10378226637840271
vn -0.8016753792762756 -0.25747376680374146 -0.5394662022590637
vn -0.14584989845752716 -0.9883909821510315 0.04255777597427368
vn 0.09652538597583771 -0.9953198432922363 -0.004592630080878735
vn 0.7555837035179138 -0.1739562302827835 0.6315318942070007
vn 0.2861771583557129 -0.9574308395385742 0.037798114120960236
vn -0.14683865010738373 -0.9415715336799622 0.303119421005249
vn 0.48573094606399536 -0.6059206128120422 0.6300203204154968
vn 0.6093971729278564 -0.528689980506897 -0.5908655524253845
vn 0.2529037892818451 0.17532086372375488 -0.9514737725257874
vn -0.22690406441688538 0.4362936317920685 -0.8707252144813538
vn -0.7667322158813477 0.31145185232162476 -0.5613549947738647
vn -0.8512787818908691 0.407166451215744 -0.33096814155578613
vn -0.5665941834449768 0.21362510323524475 -0.7958237528800964
vn 0.16849808394908905 0.10833101719617844 -0.9797309041023254
vn 0.41539427638053894 0.025687484070658684 -0.9092787504196167
vn 0.7417992353439331 -0.0016469809925183654 -0.6706201434135437
vn 0.4181481897830963 -0.08013676106929779 0.9048371315002441
vn 0.9805462956428528 -0.09930863231420517 0.16931268572807312
vn -0.8431087136268616 0.3932937979698181 -0.3667258024215698
vn -0.9813998341560364 0.1778877079486847 -0.07218199968338013
vn -0.6231349110603333 0.03972874581813812 0.7811046838760376
vn -0.9852921962738037 0.07735111564397812 0.15236803889274597
vn -0.6811665892601013 -0.6812521815299988 -0.26815566420555115
vn -0.4468540549278259 -0.7701005935668945 0.4552654027938843
vn 0.0046242764219641685 -0.9916657209396362 -0.12875410914421082
vn 0.33281832933425903 -0.374403715133667 -0.8654788136482239
vn -0.3503755033016205 0.1438411921262741 -0.9254980683326721
vn -0.8198602199554443 0.12218558043241501 -0.5593746304512024
vn -0.5464035868644714 0.08174574375152588 -0.8335230946540833
vn -0.3253454864025116 0.025076325982809067 -0.9452626705169678
vn 0.5073932409286499 -0.024949535727500916 -0.86135333776474
vn 0.8335797786712646 -0.04129864275455475 -0.5508530139923096
vn 0.1118517741560936 -0.04769677668809891 0.9925795793533325
vn 0.7914135456085205 -0.0629720538854599 0.6080289483070374
vn -0.6762554049491882 0.033773183822631836 0.7358927130699158
vn -0.9905158877372742 0.06662008166313171 0.12016710638999939
vn -0.6716394424438477 -0.5477374196052551 -0.4988829493522644
vn -0.24465028941631317 -0.6325094103813171 -0.7349000573158264
vn -0.9969662427902222 0.03580578789114952 -0.0691101923584938
vn -0.1881892830133438 -0.016405818983912468 -0.981995701789856
vn -0.8996883034706116 -0.002126427600160241 -0.43652763962745667
vn 0.5500413775444031 -0.0459304079413414 -0.833873450756073
vn 0.8509079813957214 -0.04596683382987976 -0.5232998132705688
vn -0.12983989715576172 -0.010358830913901329 0.991480827331543
vn 0.9635234475135803 -0.03898497670888901 0.26476943492889404
vn 0.020840167999267578 0.0036040914710611105 0.999776303768158
vn -0.6883678436279297 0.014964074827730656 0.7252073884010315
vn -0.9023298025131226 0.007219003513455391 0.43098580837249756
vn 0.20786385238170624 -0.026418529450893402 -0.9778009653091431
vn -0.5779993534088135 -0.023642398416996002 -0.8156946301460266
vn -0.9859631061553955 -0.030806973576545715 -0.1640966534614563
vn 0.682636022567749 -0.012151663191616535 -0.7306574583053589
vn 0.8542236089706421 -0.018550176173448563 -0.5195747017860413
vn -0.38129371404647827 0.030767306685447693 0.9239417910575867
vn 0.7925996780395508 -0.014301784336566925 0.609574556350708
vn -0.20739562809467316 0.02539241313934326 0.9779276251792908
vn -0.7260605096817017 0.008123260922729969 0.6875828504562378
vn 0.4966246485710144 -0.008243258111178875 -0.867926299571991
vn -0.324817031621933 -0.0643407553434372 -0.9435858130455017
vn -0.9536474347114563 -0.07545938342809677 -0.29131171107292175
vn -0.8198767900466919 -0.09788907319307327 0.5641096830368042
vn 0.701283872127533 -0.01290806382894516 -0.7127652764320374
vn 0.9531775116920471 -0.01523054949939251 -0.30202755331993103
vn 0.49099457263946533 -0.02221537195146084 0.8708792924880981
vn -0.2063857465982437 -0.06955061852931976 0.975995659828186
vn 0.5322059392929077 -0.07195631414651871 -0.8435515761375427
vn -0.23005689680576324 -0.1620667576789856 -0.9595874547958374
vn -0.9389412999153137 -0.15592803061008453 -0.3067179024219513
vn -0.9523926377296448 -0.0773208737373352 0.2949063181877136
vn -0.6226661205291748 -0.14925917983055115 0.7681201100349426
vn 0.8138144016265869 -0.11229909956455231 -0.570171058177948
vn 0.7367501258850098 -0.14957278966903687 0.6594142913818359
vn 0.050393491983413696 -0.13423161208629608 0.9896678328514099
vn -0.026375355198979378 -0.2076428383588791 -0.9778490662574768
vn 0.5393100380897522 -0.15764325857162476 -0.8272202610969543
vn 0.5644391775131226 -0.13682042062282562 -0.8140568733215332
vn -0.8281705975532532 -0.52448570728302 -0.1976061463356018
vn -0.9607297778129578 -0.14007292687892914 0.23953674733638763
vn -0.8517822027206421 -0.3677980899810791 0.3730837404727936
vn -0.38223156332969666 -0.39684364199638367 0.8345142602920532
vn 0.9917868971824646 -0.09380494058132172 -0.08694476634263992
vn 0.6627063155174255 -0.1262364685535431 -0.7381631135940552
vn 0.1046506017446518 -0.22075270116329193 0.9696991443634033
vn 0.253366619348526 -0.2267196923494339 0.940427303314209
vn 0.7186123728752136 -0.1109415665268898 0.6865043044090271
vn 0.04060303419828415 -0.36850979924201965 0.928736686706543
vn 0.03379971161484718 -0.5109262466430664 -0.8589597344398499
vn 0.519200325012207 -0.4447551965713501 -0.7298107743263245
vn 0.7237755656242371 -0.06598814576864243 -0.6868730783462524
vn -0.7514033913612366 -0.6337564587593079 0.18370012938976288
vn -0.9168742895126343 -0.39917200803756714 0.0018307380378246307
vn -0.8079319000244141 -0.5883123278617859 -0.03368591144680977
vn -0.7740703821182251 -0.5616287589073181 -0.29221272468566895
vn -0.3360782563686371 -0.5862853527069092 -0.7371030449867249
vn -0.6300889253616333 -0.7370855212211609 0.24432122707366943
vn -0.08870360255241394 -0.635895311832428 0.7666608095169067
vn 0.8259369134902954 -0.028888564556837082 0.5630220174789429
vn 0.9753628969192505 0.220431387424469 -0.008783560246229172
vn 0.6527020335197449 -0.14688405394554138 0.7432396411895752
vn 0.38183513283729553 -0.13147160410881042 0.9148317575454712
vn 0.30249518156051636 -0.45925772190093994 -0.835211992263794
vn 0.2418033927679062 0.9666233062744141 0.08467984199523926
vn 0.10435765236616135 0.9866234660148621 0.12523381412029266
vn 0.8145013451576233 -0.13775156438350677 -0.5635709166526794
vn 0.9659491777420044 0.2169725000858307 -0.1409441977739334
vn -0.8842059969902039 0.46629586815834045 -0.027347899973392487
vn -0.8755106329917908 0.47247564792633057 -0.10123129934072495
vn -0.929011881351471 0.3699289858341217 0.009453633800148964
vn -0.7634701728820801 -0.5366133451461792 0.35938772559165955
vn -0.8954499363899231 0.3955453634262085 -0.20423834025859833
vn -0.9288989901542664 0.27418673038482666 0.24893435835838318
vn -0.8769903182983398 0.4784877896308899 -0.04401489719748497
vn -0.6902496814727783 0.1520395129919052 -0.7074174284934998
vn -0.8038905262947083 0.43716320395469666 -0.40329688787460327
vn 0.13707098364830017 0.31809645891189575 -0.9380971789360046
vn -0.3003721237182617 0.68683922290802 -0.6618372201919556
vn -0.18955908715724945 -0.29167771339416504 0.9375455379486084
vn 0.20113961398601532 -0.01855282299220562 0.9793868660926819
vn 0.9188122153282166 0.26625826954841614 0.2913598120212555
vn 0.9009265303611755 0.3147341310977936 0.29878735542297363
vn 0.5851885080337524 0.7317072153091431 0.34951266646385193
vn 0.7209911942481995 0.014432939700782299 -0.6927940249443054
vn 0.159474715590477 0.9728891253471375 0.16749563813209534
vn 0.02278209663927555 0.9997120499610901 0.007530856411904097
vn 0.06769702583551407 0.9827600121498108 0.17204613983631134
vn 0.38672420382499695 0.9213945865631104 0.03842174634337425
vn 0.20503515005111694 0.9785277843475342 0.02107119746506214
vn 0.3851383328437805 0.9179426431655884 0.09513022750616074
vn 0.22331072390079498 0.9727785587310791 -0.06192122772336006
vn 0.7419113516807556 0.6543251276016235 -0.14637668430805206
vn -0.41352972388267517 0.8970432281494141 0.15590539574623108
vn -0.578875720500946 0.8152104020118713 0.01830107718706131
vn -0.8461868762969971 0.4331657588481903 0.3103794455528259
vn -0.6649485230445862 -0.09966636449098587 0.7402095198631287
vn -0.5430830717086792 0.8049197793006897 -0.23909199237823486
vn -0.6921007037162781 0.6938855648040771 -0.1987949013710022
vn -0.44725775718688965 0.7878950238227844 0.4232989549636841
vn -0.29973337054252625 0.9539964199066162 0.007123446092009544
vn -0.16705571115016937 0.960608959197998 -0.22208739817142487
vn -0.2715761363506317 0.9054214954376221 -0.32627952098846436
vn 0.24937179684638977 0.8058679103851318 -0.5370201468467712
vn -0.5564472675323486 0.451194703578949 0.6977032423019409
vn -0.21842417120933533 0.8787805438041687 0.4243060052394867
vn 0.14135031402111053 0.9292212724685669 0.3414206802845001
vn 0.7013752460479736 0.701214611530304 0.12794896960258484
vn 0.25427043437957764 0.963306725025177 -0.08594585210084915
vn 0.276602566242218 0.8767838478088379 -0.3933713138103485
vn 0.09635390341281891 0.9921431541442871 -0.07979928702116013
vn -0.27373218536376953 0.9531833529472351 -0.1284998208284378
vn 0.18595881760120392 0.9652305841445923 0.18370945751667023
vn -0.1784796118736267 0.9716774225234985 0.15488071739673615
vn 0.04243326932191849 0.9987072944641113 -0.027984272688627243
vn 0.11794664710760117 0.9660948514938354 -0.22967234253883362
vn 0.3097279667854309 0.9350022077560425 -0.17274080216884613
f 3//3 2//2 1//1
f 4//4 1//1 3//3
f 4//4 5//5 1//1
f 1//1 5//5 6//6
f 7//7 1//1 6//6
f 8//8 1//1 7//7
f 8//8 3//3 1//1
f 9//9 10//10 2//2
f 2//2 11//11 12//12
f 2//2 10//10 11//11
f 2//2 13//13 14//14
f 2//2 15//15 13//13
f 15//15 2//2 16//16
f 17//17 16//16 2//2
f 17//17 2//2 12//12
f 14//14 9//9 2//2
f 4//4 3//3 18//18
f 18//18 6//6 3//3
f 18//18 6//6 3//3
f 3//3 18//18 16//16
f 3//3 19//19 18//18
f 8//8 19//19 3//3
f 4//4 20//20 21//21
f 4//4 21//21 5//5
f 4//4 18//18 20//20
f 20//20 17//17 4//4
f 5//5 21//21 22//22
f 5//5 22//22 23//23
f 5//5 23//23 6//6
f 6//6 23//23 24//24
f 25//25 6//6 24//24
f 7//7 6//6 25//25
f 26//26 7//7 25//25
f 27//27 7//7 26//26
f 27//27 8//8 7//7
f 28//28 19//19 8//8
f 27//27 28//28 8//8
f 10//10 9//9 29//29
f 9//9 29//29 10//10
f 30//30 29//29 9//9
f 9//9 14//14 31//31
f 30//30 9//9 31//31
f 32//32 10//10 29//29
f 10//10 32//32 11//11
f 11//11 10//10 32//32
f 33//33 11//11 32//32
f 11//11 33//33 34//34
f 11//11 34//34 12//12
f 12//12 11//11 34//34
f 34//34 35//35 12//12
f 17//17 12//12 35//35
f 14//14 13//13 36//36
f 15//15 36//36 13//13
f 19//19 14//14 36//36
f 28//28 14//14 19//19
f 31//31 14//14 28//28
f 18//18 36//36 15//15
f 17//17 37//37 15//15
f 36//36 15//15 37//37
f 15//15 16//16 17//17
f 17//17 35//35 38//38
f 17//17 38//38 37//37
f 20//20 18//18 37//37
f 19//19 36//36 18//18
f 37//37 18//18 36//36
f 20//20 38//38 21//21
f 38//38 20//20 37//37
f 39//39 22//22 21//21
f 21//21 38//38 39//39
f 39//39 40//40 22//22
f 22//22 40//40 41//41
f 22//22 41//41 23//23
f 23//23 41//41 42//42
f 23//23 42//42 24//24
f 43//43 24//24 42//42
f 24//24 43//43 44//44
f 24//24 43//43 44//44
f 25//25 24//24 45//45
f 45//45 24//24 44//44
f 46//46 25//25 45//45
f 26//26 25//25 46//46
f 26//26 46//46 47//47
f 48//48 26//26 47//47
f 27//27 26//26 48//48
f 49//49 28//28 27//27
f 50//50 27//27 48//48
f 49//49 27//27 50//50
f 49//49 31//31 28//28
f 51//51 32//32 29//29
f 29//29 44//44 51//51
f 44//44 51//51 29//29
f 52//52 29//29 30//30
f 52//52 44//44 29//29
f 53//53 30//30 31//31
f 54//54 30//30 53//53
f 54//54 52//52 30//30
f 53//53 31//31 49//49
f 32//32 51//51 33//33
f 32//32 51//51 33//33
f 43//43 33//33 51//51
f 55//55 35//35 33//33
f 43//43 55//55 33//33
f 34//34 33//33 35//35
f 55//55 38//38 35//35
f 38//38 55//55 56//56
f 56//56 39//39 38//38
f 39//39 56//56 57//57
f 57//57 40//40 39//39
f 57//57 58//58 40//40
f 40//40 58//58 41//41
f 41//41 58//58 59//59
f 41//41 59//59 42//42
f 42//42 59//59 43//43
f 44//44 43//43 51//51
f 44//44 43//43 51//51
f 43//43 59//59 55//55
f 45//45 44//44 52//52
f 60//60 45//45 52//52
f 46//46 45//45 60//60
f 46//46 60//60 61//61
f 47//47 46//46 61//61
f 47//47 61//61 62//62
f 63//63 47//47 62//62
f 48//48 47//47 63//63
f 64//64 48//48 63//63
f 50//50 48//48 64//64
f 65//65 49//49 50//50
f 53//53 49//49 65//65
f 66//66 50//50 64//64
f 65//65 50//50 66//66
f 60//60 52//52 54//54
f 67//67 53//53 65//65
f 54//54 53//53 67//67
f 68//68 54//54 67//67
f 60//60 54//54 68//68
f 56//56 55//55 69//69
f 59//59 69//69 55//55
f 57//57 56//56 70//70
f 69//69 70//70 56//56
f 57//57 70//70 58//58
f 58//58 70//70 59//59
f 69//69 59//59 70//70
f 61//61 60//60 68//68
f 61//61 68//68 71//71
f 62//62 61//61 71//71
f 63//63 62//62 72//72
f 62//62 71//71 73//73
f 72//72 62//62 73//73
f 74//74 63//63 72//72
f 64//64 63//63 74//74
f 75//75 64//64 74//74
f 66//66 64//64 75//75
f 76//76 65//65 66//66
f 67//67 65//65 76//76
f 77//77 66//66 75//75
f 78//78 66//66 77//77
f 76//76 66//66 78//78
f 79//79 67//67 76//76
f 68//68 67//67 79//79
f 71//71 68//68 79//79
f 71//71 79//79 80//80
f 73//73 71//71 80//80
f 74//74 72//72 81//81
f 72//72 73//73 82//82
f 81//81 72//72 82//82
f 73//73 80//80 83//83
f 82//82 73//73 83//83
f 84//84 74//74 81//81
f 75//75 74//74 84//84
f 85//85 75//75 84//84
f 77//77 75//75 85//85
f 86//86 76//76 78//78
f 79//79 76//76 86//86
f 87//87 77//77 85//85
f 78//78 77//77 87//87
f 88//88 78//78 87//87
f 86//86 78//78 88//88
f 80//80 79//79 86//86
f 80//80 86//86 89//89
f 83//83 80//80 89//89
f 84//84 81//81 90//90
f 81//81 82//82 91//91
f 90//90 81//81 91//91
f 82//82 83//83 92//92
f 91//91 82//82 92//92
f 83//83 89//89 93//93
f 92//92 83//83 93//93
f 94//94 84//84 90//90
f 85//85 84//84 94//94
f 95//95 85//85 94//94
f 87//87 85//85 95//95
f 89//89 86//86 88//88
f 96//96 87//87 95//95
f 88//88 87//87 96//96
f 97//97 88//88 96//96
f 89//89 88//88 97//97
f 93//93 89//89 97//97
f 94//94 90//90 98//98
f 90//90 91//91 99//99
f 98//98 90//90 99//99
f 91//91 92//92 100//100
f 99//99 91//91 100//100
f 92//92 93//93 101//101
f 100//100 92//92 101//101
f 93//93 97//97 102//102
f 101//101 93//93 102//102
f 103//103 94//94 98//98
f 95//95 94//94 103//103
f 104//104 95//95 103//103
f 96//96 95//95 104//104
f 105//105 96//96 104//104
f 97//97 96//96 105//105
f 102//102 97//97 105//105
f 106//106 98//98 99//99
f 106//106 107//107 98//98
f 108//108 98//98 107//107
f 108//108 103//103 98//98
f 109//109 99//99 100//100
f 106//106 99//99 109//109
f 110//110 109//109 100//100
f 110//110 100//100 101//101
f 110//110 101//101 102//102
f 111//111 102//102 112//112
f 110//110 102//102 111//111
f 112//112 102//102 105//105
f 103//103 113//113 104//104
f 114//114 113//113 103//103
f 108//108 114//114 103//103
f 105//105 104//104 115//115
f 104//104 116//116 115//115
f 113//113 117//117 104//104
f 116//116 104//104 117//117
f 112//112 105//105 118//118
f 118//118 105//105 115//115
f 106//106 109//109 119//119
f 106//106 119//119 107//107
f 120//120 121//121 107//107
f 120//120 107//107 119//119
f 108//108 107//107 121//121
f 108//108 121//121 114//114
f 122//122 109//109 111//111
f 122//122 123//123 109//109
f 123//123 124//124 109//109
f 124//124 125//125 109//109
f 125//125 126//126 109//109
f 126//126 119//119 109//109
f 110//110 111//111 109//109
f 127//127 111//111 112//112
f 122//122 111//111 127//127
f 128//128 127//127 112//112
f 128//128 112//112 118//118
f 117//117 113//113 129//129
f 130//130 129//129 113//113
f 121//121 113//113 114//114
f 121//121 130//130 113//113
f 116//116 118//118 115//115
f 131//131 116//116 129//129
f 131//131 118//118 116//116
f 116//116 117//117 129//129
f 128//128 118//118 132//132
f 132//132 118//118 131//131
f 126//126 133//133 119//119
f 126//126 133//133 119//119
f 120//120 119//119 133//133
f 120//120 135//135 134//134
f 120//120 133//133 136//136
f 120//120 136//136 121//121
f 136//136 137//137 121//121
f 137//137 130//130 121//121
f 123//123 122//122 127//127
f 138//138 139//139 123//123
f 140//140 138//138 123//123
f 141//141 140//140 123//123
f 123//123 139//139 142//142
f 143//143 123//123 142//142
f 143//143 124//124 123//123
f 141//141 123//123 127//127
f 143//143 144//144 124//124
f 144//144 125//125 124//124
f 125//125 145//145 126//126
f 125//125 146//146 145//145
f 144//144 146//146 125//125
f 147//147 133//133 126//126
f 148//148 147//147 126//126
f 145//145 148//148 126//126
f 141//141 127//127 128//128
f 149//149 128//128 150//150
f 149//149 141//141 128//128
f 150//150 149//149 128//128
f 150//150 128//128 132//132
f 149//149 128//128 150//150
f 129//129 130//130 151//151
f 131//131 129//129 151//151
f 130//130 137//137 151//151
f 132//132 131//131 152//152
f 152//152 131//131 151//151
f 132//132 153//153 150//150
f 153//153 132//132 152//152
f 133//133 147//147 154//154
f 136//136 133//133 154//154
f 134//134 135//135 155//155
f 155//155 134//134 135//135
f 155//155 134//134 135//135
f 135//135 134//134 156//156
f 134//134 157//157 156//156
f 134//134 155//155 158//158
f 157//157 134//134 158//158
f 159//159 155//155 135//135
f 160//160 159//159 135//135
f 161//161 135//135 156//156
f 160//160 135//135 161//161
f 162//162 136//136 154//154
f 136//136 162//162 137//137
f 162//162 152//152 137//137
f 137//137 152//152 151//151
f 163//163 138//138 140//140
f 163//163 139//139 138//138
f 163//163 164//164 139//139
f 139//139 164//164 142//142
f 165//165 140//140 141//141
f 163//163 140//140 165//165
f 165//165 141//141 166//166
f 141//141 149//149 166//166
f 167//167 143//143 142//142
f 168//168 167//167 142//142
f 164//164 168//168 142//142
f 143//143 167//167 169//169
f 144//144 143//143 169//169
f 170//170 144//144 169//169
f 144//144 170//170 171//171
f 146//146 144//144 171//171
f 145//145 146//146 171//171
f 148//148 145//145 171//171
f 147//147 148//148 172//172
f 173//173 147//147 172//172
f 147//147 173//173 154//154
f 148//148 171//171 172//172
f 149//149 174//174 166//166
f 150//150 175//175 149//149
f 149//149 175//175 174//174
f 149//149 174//174 166//166
f 153//153 176//176 150//150
f 150//150 176//176 175//175
f 162//162 177//177 152//152
f 153//153 152//152 177//177
f 160//160 161//161 153//153
f 176//176 153//153 178//178
f 153//153 161//161 178//178
f 153//153 177//177 160//160
f 179//179 162//162 154//154
f 173//173 179//179 154//154
f 155//155 180//180 181//181
f 155//155 181//181 158//158
f 155//155 159//159 182//182
f 180//180 155//155 182//182
f 157//157 183//183 156//156
f 178//178 161//161 156//156
f 176//176 178//178 156//156
f 175//175 176//176 156//156
f 183//183 175//175 156//156
f 163//163 183//183 157//157
f 163//163 157//157 164//164
f 184//184 157//157 158//158
f 164//164 157//157 184//184
f 181//181 184//184 158//158
f 162//162 159//159 160//160
f 159//159 185//185 182//182
f 159//159 162//162 186//186
f 185//185 159//159 186//186
f 162//162 160//160 177//177
f 162//162 179//179 186//186
f 163//163 165//165 174//174
f 163//163 174//174 175//175
f 163//163 175//175 183//183
f 164//164 184//184 181//181
f 164//164 181//181 168//168
f 164//164 181//181 168//168
f 168//168 164//164 181//181
f 174//174 165//165 166//166
f 167//167 168//168 181//181
f 167//167 170//170 169//169
f 171//171 170//170 167//167
f 167//167 181//181 172//172
f 171//171 167//167 172//172
f 180//180 185//185 172//172
f 181//181 180//180 172//172
f 179//179 173//173 172//172
f 185//185 179//179 172//172
f 179//179 185//185 186//186
f 185//185 180//180 182//182
