# Generated by Visualization Toolkit
v -0.012807000428438187 -0.22762000560760498 0.011017000302672386
v -0.013906000182032585 -0.22937799990177155 0.014952999539673328
v -0.01879199966788292 -0.2293969988822937 0.015464999713003635
v -0.007830999791622162 -0.22772599756717682 0.008201999589800835
v -0.003959000110626221 -0.22841300070285797 0.009251000359654427
v -0.010300000198185444 -0.22289299964904785 0.008969999849796295
v -0.006924999877810478 -0.22418999671936035 0.0076489998027682304
v -0.016839999705553055 -0.23313699662685394 0.020368000492453575
v -0.0035699999425560236 -0.23248699307441711 0.02758299931883812
v -0.020873000845313072 -0.22680999338626862 0.01604600064456463
v -0.01998000033199787 -0.2298160046339035 0.016063999384641647
v -0.0034940000623464584 -0.22592200338840485 0.00913199968636036
v -0.0015069999499246478 -0.22958000004291534 0.011938000097870827
v -0.00045900000259280205 -0.2274159938097 0.012409999966621399
v -0.006535000167787075 -0.22037899494171143 0.013224000111222267
v -0.0114120002835989 -0.21866799890995026 0.012810000218451023
v -0.01269800029695034 -0.2186339944601059 0.013016000390052795
v -0.016801999881863594 -0.23160000145435333 0.0239499993622303
v -0.020037999376654625 -0.22924399375915527 0.017450999468564987
v -0.008888999931514263 -0.23411500453948975 0.02796100080013275
v -0.014344999566674232 -0.23384900391101837 0.023899000138044357
v -0.015652000904083252 -0.23295700550079346 0.023784000426530838
v 0.0022009999956935644 -0.23383499681949615 0.027080999687314034
v 0.0010819999733939767 -0.2369460016489029 0.03175700083374977
v 0.0011919999960809946 -0.23267899453639984 0.024164000526070595
v -0.004699000157415867 -0.23739199340343475 0.03266099840402603
v -0.007457999978214502 -0.23561599850654602 0.03122200071811676
v -0.016402000561356544 -0.21541500091552734 0.01750599965453148
v -0.018750999122858047 -0.22417199611663818 0.019161000847816467
v 0.0026110000908374786 -0.23252800107002258 0.025187000632286072
v 0.0026320000179111958 -0.2285279929637909 0.019733000546693802
v 0.0009599999757483602 -0.22482499480247498 0.023096000775694847
v -0.006479000207036734 -0.21436099708080292 0.01686299964785576
v -0.00521400012075901 -0.21940399706363678 0.015905000269412994
v -0.010011999867856503 -0.21444100141525269 0.015197999775409698
v -0.016276000067591667 -0.23148900270462036 0.02616100013256073
v -0.015603999607264996 -0.23290200531482697 0.025442000478506088
v -0.015320999547839165 -0.23282699286937714 0.02662999927997589
v -0.01017099991440773 -0.23462000489234924 0.02951899915933609
v -0.01459600031375885 -0.23364199697971344 0.0268389992415905
v 0.0019249999895691872 -0.23610299825668335 0.03305000066757202
v 0.003622000105679035 -0.23154300451278687 0.03141200169920921
v -0.0017600000137463212 -0.23849600553512573 0.033939000219106674
v 0.00017100000695791095 -0.23775699734687805 0.034630000591278076
v -0.007060000207275152 -0.2347330003976822 0.03273199871182442
v -0.004767999984323978 -0.2368990033864975 0.033883001655340195
v -0.012830999679863453 -0.2301809936761856 0.03143199905753136
v -0.01053099986165762 -0.20887599885463715 0.016641000285744667
v -0.014504999853670597 -0.20918400585651398 0.01818300038576126
v -0.016790999099612236 -0.22655199468135834 0.025854000821709633
v 0.004889000207185745 -0.22935600578784943 0.02725899964570999
v 0.00481700012460351 -0.2302210032939911 0.030299000442028046
v 0.004708999767899513 -0.22544999420642853 0.029131000861525536
v -0.0031059999018907547 -0.20923100411891937 0.021412000060081482
v 0.0016380000161007047 -0.21613800525665283 0.0320499986410141
v -0.01771399937570095 -0.22571200132369995 0.028610000386834145
v 0.0017059999518096447 -0.2355560064315796 0.03516000136733055
v 0.004170000087469816 -0.23051400482654572 0.03334999829530716
v -0.002655999967828393 -0.2368669956922531 0.035771001130342484
v -0.00133500003721565 -0.23544800281524658 0.036616001278162
v -0.004100000020116568 -0.2320770025253296 0.035333000123500824
v -0.01649099960923195 -0.22510600090026855 0.03022100031375885
v -0.0026199999265372753 -0.2305620014667511 0.036240000277757645
v -0.011754999868571758 -0.19492900371551514 0.017976000905036926
v -0.00786499958485365 -0.18782499432563782 0.017666999250650406
v -0.0038240000139921904 -0.18456700444221497 0.019536999985575676
v -0.015070999972522259 -0.20899100601673126 0.024858999997377396
v 0.004858999978750944 -0.22753700613975525 0.03219899907708168
v -0.0008789999992586672 -0.1874070018529892 0.025050999596714973
v -0.0011269999668002129 -0.19418199360370636 0.029374999925494194
v -0.0048489999026060104 -0.20829400420188904 0.032003000378608704
v -0.01634499989449978 -0.22265200316905975 0.029892999678850174
v -0.011010999791324139 -0.19662100076675415 0.03006099909543991
v -0.008743000216782093 -0.14678099751472473 0.016471000388264656
v -0.013016999699175358 -0.18780100345611572 0.024765999987721443
v 0.0012799999676644802 -0.14155399799346924 0.021405000239610672
v -0.0004879999905824661 -0.1700969934463501 0.02656799927353859
v -0.004050000105053186 -0.183105006814003 0.03004400059580803
v -0.010781999677419662 -0.18013499677181244 0.027759000658988953
v -0.0067090000957250595 -0.16998499631881714 0.0293940007686615
v -0.0069149998016655445 -0.1081480011343956 0.009186999872326851
v -0.009403999894857407 -0.15074600279331207 0.025523999705910683
v -0.007712999824434519 -0.10154099762439728 0.018654000014066696
v -0.00827299989759922 -0.1548289954662323 0.027434999123215675
v 0.004236999899148941 -0.07419399917125702 0.009913000278174877
v 0.0027439999394118786 -0.11202800273895264 0.020382000133395195
v -0.0026310000102967024 -0.13680399954319 0.02717299945652485
v 0.000514000013936311 -0.11155000329017639 0.023617999628186226
v -0.005384999793022871 -0.14558400213718414 0.028053000569343567
v -0.005446999799460173 -0.07709000259637833 0.004368999972939491
v -0.007081000134348869 -0.07701700180768967 0.004865000024437904
v -0.007344000041484833 -0.1369280070066452 0.026498999446630478
v -0.0027920000720769167 -0.07531700283288956 0.016380000859498978
v -0.004356999881565571 -0.0390160009264946 0.009127000346779823
v -0.006723999977111816 -0.046000998467206955 0.0022819999139755964
v -0.005179000087082386 -0.06182200089097023 0.00292299990542233
v -0.0010079999919980764 -0.1063620001077652 0.023414000868797302
v 0.0034600000362843275 -0.06654799729585648 0.00660800002515316
v 0.0036929999478161335 -0.07580900192260742 0.014132999815046787
v 0.0013299999991431832 -0.08474799990653992 0.0188400000333786
v -0.003914000000804663 -0.13199399411678314 0.02699499949812889
v 0.0010310000507161021 -0.0753839984536171 0.016240999102592468
v -0.0006319999811239541 -0.03244100138545036 0.008162000216543674
v -0.0032840000931173563 -0.02396799996495247 0.00520299980416894
v -0.006506000179797411 -0.03055099956691265 0.0043390002101659775
v -0.003636999987065792 -0.027094999328255653 -0.00482399994507432
v -0.006663000211119652 -0.026528000831604004 -0.0026390000712126493
v -0.00722600007429719 -0.027171000838279724 0.0007619999814778566
v 0.003415999934077263 -0.04857499897480011 0.0023690001107752323
v -0.000446999998530373 -0.04363999888300896 -0.0018029999919235706
v 0.0028099999763071537 -0.06144699826836586 0.011017999611794949
v 0.0029349999967962503 -0.018761999905109406 0.0036589999217540026
v -0.000056000000768108293 -0.018105000257492065 0.004701999947428703
v -0.006577999796718359 -0.01801699958741665 0.0023880000226199627
v -0.004395999945700169 -0.01399100013077259 0.004581000190228224
v -0.005425000097602606 -0.02355399914085865 -0.0031479999888688326
v -0.0012069999938830733 -0.024063000455498695 -0.004947999957948923
v 0.0008679999737069011 -0.035544998943805695 -0.0039369999431073666
v 0.0010470000561326742 -0.031617000699043274 -0.0047240001149475574
v -0.0065460000187158585 -0.018377000465989113 -0.002194999950006604
v -0.007400999777019024 -0.016016999259591103 0.00016599999798927456
v 0.003478999948129058 -0.044502999633550644 0.0013879999751225114
v 0.0027149999514222145 -0.04426800087094307 0.00034500000765547156
v 0.0023399998899549246 -0.040314000099897385 -0.0020639998838305473
v 0.004772000014781952 -0.024183999747037888 -0.0015310000162571669
v 0.00443299999460578 -0.01874700002372265 0.0006970000104047358
v 0.004550999961793423 -0.01004599966108799 -0.00024500000290572643
v 0.0038620000705122948 -0.010010999627411366 0.002736999886110425
v 0.002311999909579754 -0.009755999781191349 0.004922000225633383
v 0.000060999998822808266 -0.009266999550163746 0.006087999790906906
v -0.00279300007969141 -0.009484999813139439 0.00620400020852685
v -0.007544000167399645 -0.009580999612808228 0.002727000042796135
v -0.004422000143676996 -0.019166000187397003 -0.004021000117063522
v 0.002230999991297722 -0.01949400082230568 -0.0038870000280439854
v -0.0008379999781027436 -0.01154599990695715 -0.006632999982684851
v 0.002005999907851219 -0.015364999882876873 -0.0042940001003444195
v 0.0031900000758469105 -0.03185399994254112 -0.0035099999513477087
v 0.0036299999337643385 -0.02423200011253357 -0.0033970000222325325
v -0.006674000062048435 -0.01347300037741661 -0.003189000068232417
v -0.007898000068962574 -0.00952799990773201 0.0014049999881535769
v 0.0038880000356584787 -0.019425999373197556 -0.002119000069797039
v 0.0038109999150037766 -0.014798000454902649 -0.00216299993917346
v 0.0032550001051276922 -0.010963999666273594 -0.003994999919086695
v 0.005934999790042639 -0.007420999929308891 -0.006118999794125557
v 0.0062950002029538155 -0.007474000100046396 -0.000012000000424450263
v 0.007757999934256077 -0.005096000153571367 0.004224000032991171
v 0.005231999792158604 -0.004720999859273434 0.00762399984523654
v 0.000526999996509403 -0.004327000118792057 0.010147999972105026
v 0.003066000062972307 -0.00445100013166666 0.009379000402987003
v -0.008383999578654766 -0.004302999936044216 0.006957000121474266
v -0.0032949999440461397 -0.0044559999369084835 0.009921000339090824
v -0.010382999666035175 -0.004497000016272068 0.0023109999019652605
v -0.003922999836504459 -0.011274999938905239 -0.005973000079393387
v 0.0034920000471174717 -0.009097999893128872 -0.007207999937236309
v 0.0022090000566095114 -0.011467999778687954 -0.005278000142425299
v -0.000623999978415668 -0.009399999864399433 -0.008426999673247337
v -0.007046999875456095 -0.009991999715566635 -0.003083999967202544
v -0.010445999912917614 -0.004621999803930521 -0.0005890000029467046
v 0.003386999946087599 -0.005394000094383955 -0.008431999944150448
v 0.00558000011369586 -0.000391999987186864 -0.007261000107973814
v 0.007822000421583652 -0.006407999899238348 -0.003515999997034669
v 0.008658000268042088 -0.0057749999687075615 -0.0001740000006975606
v 0.00798800028860569 -0.002455000067129731 0.004044999834150076
v 0.0056329998187720776 -0.00164899998344481 0.0073090000078082085
v -0.001339999958872795 -0.0014690000098198652 0.010181999765336514
v 0.003438000101596117 0.0006960000027902424 0.00798800028860569
v -0.00660800002515316 -0.000037999998312443495 0.007872999645769596
v -0.003223000094294548 -0.0015310000162571669 0.010181999765336514
v -0.009383000433444977 -0.0011360000353306532 0.0054720002226531506
v -0.009975000284612179 -0.0011390000581741333 0.0039820000529289246
v -0.010169999673962593 0.0013549999566748738 0.0019460000330582261
v -0.01052900031208992 -0.0014319999609142542 -0.0011220000451430678
v -0.003776000114157796 -0.008705000393092632 -0.007860000245273113
v -0.008142000064253807 -0.0062489998526871204 -0.004253000020980835
v -0.003607999999076128 -0.0031950001139193773 -0.009031999856233597
v -0.001905999961309135 -0.004883999936282635 -0.009198999963700771
v 0.0003380000125616789 -0.0005680000176653266 -0.00964299961924553
v 0.007953999564051628 0.0004459999909158796 -0.0007580000092275441
v 0.004664999898523092 0.000666000007186085 -0.006120999809354544
v 0.00775599991902709 -0.00003400000059627928 0.003134000115096569
v 0.005621999967843294 0.00027200000477023423 0.006268000230193138
v -0.0025259999092668295 0.0009360000258311629 0.009178999811410904
v 0.0026730000972747803 0.0014189999783411622 0.00660899979993701
v -0.008684000000357628 0.0015559999737888575 0.004980000201612711
v -0.006184999831020832 0.001339999958872795 0.0073910001665353775
v -0.008503999561071396 0.001057000015862286 -0.004228999838232994
v -0.008496999740600586 0.002203000010922551 0.0014949999749660492
v -0.009200000204145908 -0.0018119999440386891 -0.004160999786108732
v -0.003292999928817153 -0.00006500000017695129 -0.009131000377237797
v -0.0027970001101493835 0.0010949999559670687 -0.007737999781966209
v 0.0070130000822246075 0.0004769999941345304 0.0030400000978261232
v 0.0016609999584034085 -0.0004030000127386302 -0.0011820000363513827
v -0.007280000019818544 0.0023129999171942472 0.0040420000441372395
v -0.007127000018954277 0.0020630001090466976 -0.00367600005120039
vn -0.36346498131752014 -0.5929572582244873 -0.7185367345809937
vn -0.0029043785762041807 -0.9030556678771973 -0.42951369285583496
vn -0.303000271320343 -0.5421229600906372 -0.7837687730789185
vn -0.024791454896330833 -0.4026624262332916 -0.9150127172470093
vn 0.19351980090141296 -0.7616921067237854 -0.6183649897575378
vn -0.30578309297561646 0.35190701484680176 -0.8846796751022339
vn 0.007617037743330002 0.27873092889785767 -0.9603391289710999
vn -0.314209908246994 -0.9296649098396301 -0.19234149158000946
vn -0.03194857016205788 -0.8987396359443665 -0.4373171329498291
vn -0.9042698740959167 0.07282416522502899 -0.4207049012184143
vn -0.7182101607322693 -0.5672740340232849 -0.40295717120170593
vn 0.5703797936439514 0.19230592250823975 -0.7985519766807556
vn 0.4538900852203369 -0.7736119031906128 -0.44216325879096985
vn 0.8339250087738037 0.22539448738098145 -0.5037523508071899
vn 0.5660044550895691 0.6061713695526123 -0.5587443709373474
vn 0.146957129240036 0.5597785711288452 -0.8155068755149841
vn -0.36917340755462646 0.5057637095451355 -0.7796884775161743
vn -0.8683104515075684 -0.4256027340888977 0.25475314259529114
vn -0.9122007489204407 -0.26015177369117737 0.3165612816810608
vn 0.13876493275165558 -0.9219238758087158 -0.36166372895240784
vn -0.22897884249687195 -0.9719145894050598 -0.05431888625025749
vn -0.6542718410491943 -0.7458691596984863 0.12493018060922623
vn 0.5251815319061279 -0.7800629734992981 -0.3401266932487488
vn 0.3036247789859772 -0.8570465445518494 -0.4162730872631073
vn 0.07804957777261734 -0.9420891404151917 -0.326153963804245
vn -0.41320106387138367 -0.8881552219390869 -0.20110996067523956
vn -0.3851512670516968 -0.9228392839431763 0.005111014004796743
vn -0.7193046808242798 0.3929402828216553 -0.5728864669799805
vn -0.9339119791984558 0.11210155487060547 0.33947283029556274
vn 0.7332506775856018 -0.6336441040039062 -0.24665485322475433
vn 0.9301720857620239 0.028087982907891273 -0.36604779958724976
vn 0.7827194929122925 0.49618035554885864 -0.375706285238266
vn 0.5056175589561462 0.35184651613235474 -0.7877530455589294
vn 0.8097374439239502 0.26898857951164246 -0.5215078592300415
vn -0.007327815052121878 0.4183793365955353 -0.9082428216934204
vn -0.9479861259460449 -0.25572267174720764 0.18954749405384064
vn -0.7534534335136414 -0.6433324813842773 0.13576152920722961
vn -0.785843014717102 -0.4962933361530304 0.3689767122268677
vn -0.30621159076690674 -0.9397292137145996 0.15212969481945038
vn -0.6241426467895508 -0.7044874429702759 0.337851345539093
vn 0.8527404069900513 -0.521423876285553 0.03083670698106289
vn 0.8791100978851318 -0.47649526596069336 0.010842104442417622
vn -0.11273150891065598 -0.9778954386711121 0.17610257863998413
vn 0.45760977268218994 -0.763177216053009 0.45623868703842163
vn -0.6245594620704651 -0.4904576539993286 0.6077637076377869
vn -0.6141653656959534 -0.5570024847984314 0.5590610504150391
vn -0.5664165019989014 -0.3969392776489258 0.7222269177436829
vn 0.08064871281385422 0.15244080126285553 -0.9850165843963623
vn -0.9235241413116455 0.2235046774148941 -0.3116869330406189
vn -0.9985255002975464 0.05043693259358406 -0.020070431753993034
vn 0.9768919348716736 -0.156143456697464 -0.14594979584217072
vn 0.907905638217926 -0.41761091351509094 0.03617386519908905
vn 0.9145145416259766 0.3208407461643219 -0.24642325937747955
vn 0.7599449753761292 0.1020088791847229 -0.6419329047203064
vn 0.8382521271705627 0.2189343273639679 0.499400794506073
vn -0.9071062207221985 -0.1741531938314438 0.3831825852394104
vn 0.7119197845458984 -0.22238464653491974 0.6661195158958435
vn 0.854830801486969 -0.21122406423091888 0.4739711582660675
vn -0.34861326217651367 -0.4399699866771698 0.8275839686393738
vn 0.1265038102865219 -0.2649149000644684 0.9559376835823059
vn -0.5181791186332703 -0.1621139645576477 0.8397674560546875
vn -0.5971285104751587 -0.04293828830122948 0.8009955883026123
vn -0.15429365634918213 0.06531836837530136 0.9858635663986206
vn -0.7052288055419922 0.08723501116037369 -0.7035924196243286
vn 0.16162864863872528 0.004660577047616243 -0.9868406057357788
vn 0.6211923956871033 -0.03128327429294586 -0.7830334305763245
vn -0.9890551567077637 0.13254837691783905 -0.06481394916772842
vn 0.967668354511261 0.06878156214952469 0.24266619980335236
vn 0.9862311482429504 -0.0032028639689087868 -0.1653417944908142
vn 0.7034592628479004 0.09525410085916519 0.7043235898017883
vn 0.14781688153743744 0.13774526119232178 0.9793755412101746
vn -0.773583173751831 0.14436815679073334 0.617030918598175
vn -0.30592066049575806 0.10724648833274841 0.9459972381591797
vn -0.5377304553985596 -0.0081770159304142 -0.8430771827697754
vn -0.987153172492981 0.09619659930467606 0.12757237255573273
vn 0.9803273677825928 -0.07521359622478485 -0.182486429810524
vn 0.8650967478752136 0.021284028887748718 0.5011532306671143
vn 0.24898770451545715 0.06108614429831505 0.9665782451629639
vn -0.7365425229072571 0.11036583036184311 0.6673262715339661
vn -0.2406700998544693 0.06860817223787308 0.9681791067123413
vn -0.1868898719549179 -0.1663975864648819 -0.9681859016418457
vn -0.8825438022613525 0.08453109115362167 0.462569922208786
vn -0.9378541707992554 0.08998800069093704 0.335159033536911
vn -0.6770294904708862 0.09313797205686569 0.7300387024879456
vn 0.8994791507720947 -0.09430565685033798 -0.4266657531261444
vn 0.9295984506607056 0.015112802386283875 0.36826393008232117
vn 0.4193645119667053 0.05790901184082031 0.905968964099884
vn 0.6528390049934387 0.061008960008621216 0.7550357580184937
vn -0.2920209467411041 0.0831579864025116 0.9527899622917175
vn 0.17932435870170593 -0.1640813946723938 -0.9700103402137756
vn -0.8236615657806396 -0.027384724467992783 -0.5664201378822327
vn -0.5336887836456299 0.12072575092315674 0.8370195031166077
vn -0.1739073097705841 0.20272962749004364 0.9636685252189636
vn -0.6167123913764954 0.16776005923748016 0.7691049575805664
vn -0.9800838232040405 -0.06334798038005829 -0.18820928037166595
vn -0.34561973810195923 -0.17037305235862732 -0.9227783679962158
vn -0.0832730382680893 0.1676882803440094 0.982316792011261
vn 0.8716995120048523 -0.06702692806720734 -0.4854353070259094
vn 0.892101526260376 0.1337980180978775 0.43157023191452026
vn 0.47853514552116394 0.18423689901828766 0.8585224747657776
vn -0.07731829583644867 0.11566420644521713 0.9902745485305786
vn 0.4398212134838104 0.21995262801647186 0.8707342743873596
vn 0.1647127866744995 0.21230682730674744 0.9632214307785034
vn -0.4028521478176117 0.15629291534423828 0.9018219113349915
vn -0.8639417886734009 0.07394716888666153 0.4981329143047333
vn -0.3775120675563812 -0.07836449891328812 -0.9226828217506409
vn -0.7923440933227539 -0.012981518171727657 -0.6099362373352051
vn -0.9997780919075012 -0.0045695179142057896 0.02056618593633175
vn 0.7858834862709045 -0.19301894307136536 -0.5874783396720886
vn 0.2232876718044281 -0.3123396337032318 -0.9233561754226685
vn 0.9279900193214417 0.07273353636264801 0.36543723940849304
vn 0.6990552544593811 0.01489283051341772 0.7149126529693604
vn 0.03548848628997803 -0.00794654618948698 0.9993385076522827
vn -0.8239058256149292 -0.015466785058379173 0.5665158033370972
vn -0.4403914511203766 -0.08209764212369919 0.8940443992614746
vn -0.5002760291099548 0.06250721216201782 -0.863606870174408
vn -0.0075698792934417725 -0.021648824214935303 -0.9997369647026062
vn 0.17023664712905884 -0.22579817473888397 -0.959184467792511
vn 0.24781973659992218 -0.06262369453907013 -0.9667801260948181
vn -0.836217999458313 -0.03521124646067619 -0.5472657084465027
vn -0.9978107810020447 -0.06582222133874893 0.006412203423678875
vn 0.9253605604171753 -0.1403687596321106 -0.35214272141456604
vn 0.6263439059257507 -0.3050577938556671 -0.7173792123794556
vn 0.5758206844329834 -0.2887234389781952 -0.7648982405662537
vn 0.9656710028648376 0.004034091718494892 -0.25973695516586304
vn 0.9970312714576721 0.04125487804412842 0.06501246988773346
vn 0.957190752029419 -0.2888736426830292 0.018383171409368515
vn 0.8096603155136108 -0.45270904898643494 0.37350302934646606
vn 0.49157005548477173 -0.4697468876838684 0.7332780361175537
vn 0.23368073999881744 -0.34989604353904724 0.9071747064590454
vn -0.24962544441223145 -0.439071923494339 0.8630775809288025
vn -0.80780428647995 -0.29362359642982483 0.5111137628555298
vn -0.5140978693962097 -0.12409444153308868 -0.8487072587013245
vn 0.5577765107154846 0.02121177688241005 -0.8297200798988342
vn 0.09886827319860458 -0.4180999994277954 -0.9030045866966248
vn 0.6237894892692566 -0.14247409999370575 -0.7684969902038574
vn 0.7131320834159851 -0.1264987736940384 -0.6895220279693604
vn 0.6860635876655579 0.04187909513711929 -0.7263352274894714
vn -0.8597744107246399 -0.09942302852869034 -0.5009021759033203
vn -0.9579195976257324 -0.28701889514923096 -0.0031814826652407646
vn 0.8758283853530884 0.08400134742259979 -0.47525617480278015
vn 0.883963406085968 -0.04092495143413544 -0.4657615125179291
vn 0.8404710292816162 -0.3620133101940155 -0.4031807482242584
vn 0.7426789402961731 -0.5234136581420898 -0.41769149899482727
vn 0.6938136219978333 -0.7162559032440186 0.07483376562595367
vn 0.8086318373680115 -0.46605169773101807 0.35904091596603394
vn 0.6868273019790649 -0.34138360619544983 0.6416584253311157
vn 0.13025453686714172 -0.42733731865882874 0.8946600556373596
vn 0.43232616782188416 -0.12033049017190933 0.8936523795127869
vn -0.7128496170043945 -0.22749029099941254 0.6633954048156738
vn -0.2165536731481552 -0.29115575551986694 0.9318438172340393
vn -0.960973858833313 -0.20227380096912384 0.18871821463108063
vn -0.520021378993988 -0.35793307423591614 -0.7755396366119385
vn 0.4248146712779999 -0.5324257016181946 -0.7321580052375793
vn 0.6021699905395508 -0.5296094417572021 -0.5974154472351074
vn -0.05324293300509453 -0.40567725896835327 -0.912464439868927
vn -0.8605132699012756 -0.29503536224365234 -0.4152963161468506
vn -0.9343470335006714 -0.3000124394893646 -0.19232338666915894
vn 0.36310434341430664 -0.15477623045444489 -0.9188032746315002
vn 0.6810360550880432 0.3062988519668579 -0.6651096940040588
vn 0.8909423351287842 -0.3540534973144531 -0.28437280654907227
vn 0.9400725364685059 -0.3355221450328827 0.060733262449502945
vn 0.9191529750823975 0.09679704904556274 0.3818223178386688
vn 0.687433660030365 0.16714511811733246 0.70675128698349
vn 0.12727957963943481 0.19033728539943695 0.9734328985214233
vn 0.38487040996551514 0.5596058368682861 0.7339727878570557
vn -0.5558658242225647 0.29685476422309875 0.7764602303504944
vn -0.3028170168399811 0.15106342732906342 0.9410004615783691
vn -0.8235949873924255 0.1559971570968628 0.5453038215637207
vn -0.936077892780304 0.0818929374217987 0.342128187417984
vn -0.8776751160621643 0.47452259063720703 0.0671917200088501
vn -0.9666013717651367 0.05369347333908081 -0.2505969703197479
vn -0.48982560634613037 -0.3376195430755615 -0.8037934303283691
vn -0.784944474697113 -0.25406551361083984 -0.5650776624679565
vn -0.4619904160499573 -0.12210094183683395 -0.8784396052360535
vn -0.0699777826666832 -0.12148792296648026 -0.9901231527328491
vn 0.15371304750442505 0.4378557801246643 -0.8858073949813843
vn 0.755098819732666 0.6492859721183777 -0.09084929525852203
vn 0.17239336669445038 0.9603164792060852 -0.21925514936447144
vn 0.7860504984855652 0.5550336241722107 0.2721441388130188
vn 0.6304337382316589 0.6353510022163391 0.44596222043037415
vn -0.07037825137376785 0.7151555418968201 0.6954131722450256
vn 0.18597540259361267 0.9760343432426453 0.11300449073314667
vn -0.6488153338432312 0.6280964016914368 0.4295738637447357
vn -0.34583160281181335 0.7333319187164307 0.5853415131568909
vn -0.6456877589225769 0.6229093074798584 -0.44166892766952515
vn -0.24269689619541168 0.9697591662406921 -0.02579638734459877
vn -0.7822026610374451 0.007669216953217983 -0.6229768991470337
vn -0.35671597719192505 0.31786826252937317 -0.8784722685813904
vn -0.04273359850049019 0.9334549307823181 -0.3561401963233948
vn 0.2843787372112274 0.9557611346244812 0.0751626119017601
vn 0.08137185871601105 0.9962645769119263 -0.028905818238854408
vn -0.05201209709048271 0.9924638271331787 0.11095146089792252
vn -0.10054299980401993 0.9797375202178955 -0.17322073876857758
f 1//1 2//2 3//3
f 1//1 4//4 5//5
f 6//6 7//7 1//1
f 4//4 1//1 7//7
f 3//3 6//6 1//1
f 2//2 1//1 5//5
f 3//3 2//2 8//8
f 2//2 5//5 9//9
f 9//9 8//8 2//2
f 10//10 3//3 11//11
f 8//8 11//11 3//3
f 3//3 10//10 6//6
f 5//5 4//4 12//12
f 12//12 4//4 7//7
f 9//9 5//5 13//13
f 13//13 5//5 14//14
f 12//12 14//14 5//5
f 7//7 6//6 15//15
f 6//6 16//16 15//15
f 6//6 17//17 16//16
f 17//17 6//6 10//10
f 7//7 15//15 12//12
f 8//8 18//18 19//19
f 8//8 19//19 11//11
f 8//8 20//20 21//21
f 8//8 9//9 20//20
f 8//8 21//21 22//22
f 8//8 22//22 18//18
f 9//9 23//23 24//24
f 13//13 25//25 9//9
f 9//9 25//25 23//23
f 26//26 9//9 24//24
f 27//27 9//9 26//26
f 27//27 20//20 9//9
f 17//17 10//10 28//28
f 28//28 10//10 29//29
f 29//29 10//10 19//19
f 10//10 11//11 19//19
f 12//12 15//15 14//14
f 25//25 13//13 30//30
f 14//14 31//31 13//13
f 30//30 13//13 31//31
f 32//32 14//14 15//15
f 32//32 31//31 14//14
f 16//16 33//33 15//15
f 15//15 33//33 34//34
f 32//32 15//15 34//34
f 16//16 17//17 35//35
f 16//16 35//35 33//33
f 35//35 17//17 28//28
f 36//36 29//29 18//18
f 18//18 22//22 37//37
f 36//36 18//18 38//38
f 18//18 37//37 38//38
f 19//19 18//18 29//29
f 39//39 20//20 27//27
f 20//20 39//39 21//21
f 22//22 21//21 40//40
f 40//40 21//21 39//39
f 22//22 40//40 37//37
f 24//24 23//23 41//41
f 25//25 30//30 23//23
f 23//23 30//30 42//42
f 41//41 23//23 42//42
f 43//43 26//26 24//24
f 41//41 44//44 24//24
f 24//24 44//44 43//43
f 27//27 26//26 45//45
f 46//46 45//45 26//26
f 26//26 43//43 46//46
f 47//47 39//39 27//27
f 45//45 47//47 27//27
f 48//48 28//28 49//49
f 28//28 48//48 35//35
f 28//28 29//29 49//49
f 50//50 49//49 29//29
f 36//36 50//50 29//29
f 51//51 30//30 31//31
f 42//42 30//30 52//52
f 51//51 52//52 30//30
f 51//51 31//31 53//53
f 53//53 31//31 32//32
f 34//34 53//53 32//32
f 54//54 34//34 33//33
f 54//54 33//33 48//48
f 35//35 48//48 33//33
f 55//55 34//34 54//54
f 34//34 55//55 53//53
f 50//50 36//36 56//56
f 36//36 38//38 56//56
f 38//38 37//37 40//40
f 38//38 40//40 56//56
f 39//39 47//47 40//40
f 40//40 47//47 56//56
f 41//41 42//42 57//57
f 57//57 44//44 41//41
f 57//57 42//42 58//58
f 42//42 52//52 58//58
f 59//59 46//46 43//43
f 44//44 59//59 43//43
f 59//59 44//44 60//60
f 57//57 60//60 44//44
f 47//47 45//45 61//61
f 45//45 46//46 61//61
f 61//61 46//46 59//59
f 62//62 47//47 63//63
f 61//61 63//63 47//47
f 47//47 62//62 56//56
f 64//64 48//48 49//49
f 65//65 48//48 64//64
f 66//66 48//48 65//65
f 66//66 54//54 48//48
f 67//67 49//49 50//50
f 49//49 67//67 64//64
f 50//50 56//56 67//67
f 51//51 53//53 68//68
f 51//51 68//68 52//52
f 58//58 52//52 68//68
f 55//55 68//68 53//53
f 66//66 69//69 54//54
f 55//55 54//54 69//69
f 55//55 70//70 71//71
f 69//69 70//70 55//55
f 58//58 68//68 55//55
f 63//63 55//55 71//71
f 57//57 55//55 63//63
f 57//57 58//58 55//55
f 56//56 72//72 67//67
f 62//62 72//72 56//56
f 63//63 60//60 57//57
f 61//61 59//59 63//63
f 60//60 63//63 59//59
f 63//63 72//72 62//62
f 71//71 73//73 63//63
f 73//73 72//72 63//63
f 64//64 74//74 65//65
f 64//64 67//67 75//75
f 74//74 64//64 75//75
f 65//65 74//74 66//66
f 76//76 66//66 74//74
f 66//66 76//76 69//69
f 75//75 67//67 72//72
f 77//77 69//69 76//76
f 77//77 70//70 69//69
f 70//70 77//77 78//78
f 78//78 71//71 70//70
f 71//71 78//78 73//73
f 72//72 73//73 79//79
f 75//75 72//72 79//79
f 78//78 80//80 73//73
f 79//79 73//73 80//80
f 74//74 81//81 76//76
f 82//82 74//74 75//75
f 74//74 82//82 83//83
f 74//74 83//83 81//81
f 79//79 84//84 75//75
f 84//84 82//82 75//75
f 76//76 81//81 85//85
f 86//86 76//76 85//85
f 77//77 76//76 87//87
f 88//88 87//87 76//76
f 76//76 86//86 88//88
f 87//87 78//78 77//77
f 78//78 87//87 80//80
f 84//84 79//79 80//80
f 80//80 89//89 84//84
f 89//89 80//80 87//87
f 81//81 90//90 85//85
f 91//91 81//81 83//83
f 90//90 81//81 91//91
f 89//89 92//92 82//82
f 84//84 89//89 82//82
f 83//83 82//82 92//92
f 83//83 93//93 94//94
f 83//83 95//95 96//96
f 83//83 92//92 97//97
f 93//93 83//83 97//97
f 91//91 83//83 96//96
f 83//83 94//94 95//95
f 90//90 98//98 85//85
f 99//99 86//86 85//85
f 85//85 98//98 99//99
f 86//86 100//100 88//88
f 86//86 99//99 100//100
f 87//87 97//97 101//101
f 101//101 89//89 87//87
f 88//88 97//97 87//87
f 88//88 100//100 97//97
f 92//92 89//89 101//101
f 90//90 91//91 96//96
f 98//98 90//90 96//96
f 97//97 92//92 101//101
f 93//93 97//97 100//100
f 100//100 102//102 93//93
f 102//102 103//103 93//93
f 103//103 94//94 93//93
f 104//104 94//94 103//103
f 94//94 105//105 95//95
f 105//105 94//94 104//104
f 95//95 106//106 96//96
f 107//107 106//106 95//95
f 108//108 95//95 105//105
f 107//107 95//95 108//108
f 109//109 98//98 96//96
f 110//110 96//96 106//106
f 109//109 96//96 110//110
f 111//111 99//99 98//98
f 98//98 109//109 111//111
f 102//102 100//100 99//99
f 102//102 99//99 111//111
f 103//103 102//102 111//111
f 111//111 112//112 103//103
f 113//113 103//103 112//112
f 103//103 113//113 104//104
f 114//114 105//105 104//104
f 115//115 104//104 113//113
f 104//104 115//115 114//114
f 114//114 108//108 105//105
f 106//106 107//107 116//116
f 106//106 116//116 117//117
f 110//110 106//106 118//118
f 119//119 118//118 106//106
f 117//117 119//119 106//106
f 120//120 116//116 107//107
f 120//120 107//107 108//108
f 114//114 121//121 108//108
f 108//108 121//121 120//120
f 111//111 109//109 122//122
f 123//123 109//109 110//110
f 122//122 109//109 123//123
f 110//110 118//118 124//124
f 124//124 123//123 110//110
f 125//125 111//111 122//122
f 111//111 125//125 126//126
f 126//126 112//112 111//111
f 127//127 112//112 126//126
f 128//128 112//112 127//127
f 129//129 112//112 128//128
f 113//113 112//112 130//130
f 112//112 129//129 130//130
f 131//131 113//113 130//130
f 131//131 115//115 113//113
f 114//114 132//132 121//121
f 132//132 114//114 115//115
f 131//131 132//132 115//115
f 133//133 117//117 116//116
f 133//133 116//116 120//120
f 134//134 119//119 117//117
f 117//117 133//133 135//135
f 135//135 136//136 117//117
f 134//134 117//117 136//136
f 137//137 124//124 118//118
f 118//118 119//119 137//137
f 137//137 119//119 138//138
f 138//138 119//119 134//134
f 120//120 139//139 133//133
f 139//139 120//120 121//121
f 132//132 140//140 121//121
f 139//139 121//121 140//140
f 123//123 124//124 122//122
f 125//125 122//122 137//137
f 124//124 137//137 122//122
f 125//125 138//138 141//141
f 125//125 137//137 138//138
f 141//141 126//126 125//125
f 127//127 126//126 142//142
f 141//141 142//142 126//126
f 142//142 143//143 127//127
f 144//144 145//145 127//127
f 143//143 144//144 127//127
f 145//145 128//128 127//127
f 146//146 147//147 128//128
f 128//128 145//145 146//146
f 129//129 128//128 147//147
f 130//130 129//129 148//148
f 149//149 129//129 147//147
f 148//148 129//129 149//149
f 131//131 130//130 148//148
f 132//132 131//131 150//150
f 131//131 148//148 151//151
f 150//150 131//131 151//151
f 132//132 152//152 140//140
f 152//152 132//132 150//150
f 153//153 133//133 139//139
f 153//153 135//135 133//133
f 134//134 142//142 141//141
f 141//141 138//138 134//134
f 136//136 142//142 134//134
f 135//135 154//154 155//155
f 156//156 135//135 153//153
f 155//155 136//136 135//135
f 156//156 154//154 135//135
f 136//136 155//155 143//143
f 136//136 143//143 142//142
f 139//139 157//157 153//153
f 140//140 157//157 139//139
f 158//158 140//140 152//152
f 157//157 140//140 158//158
f 155//155 144//144 143//143
f 159//159 144//144 154//154
f 160//160 144//144 159//159
f 161//161 144//144 160//160
f 155//155 154//154 144//144
f 144//144 161//161 145//145
f 162//162 145//145 161//161
f 162//162 146//146 145//145
f 146//146 162//162 163//163
f 146//146 163//163 147//147
f 147//147 164//164 149//149
f 164//164 147//147 163//163
f 148//148 165//165 151//151
f 165//165 148//148 149//149
f 149//149 164//164 166//166
f 165//165 149//149 166//166
f 167//167 150//150 168//168
f 151//151 168//168 150//150
f 167//167 169//169 150//150
f 152//152 150//150 170//170
f 170//170 150//150 169//169
f 168//168 151//151 165//165
f 152//152 171//171 172//172
f 172//172 158//158 152//152
f 170//170 171//171 152//152
f 173//173 156//156 153//153
f 173//173 153//153 174//174
f 153//153 157//157 174//174
f 159//159 154//154 156//156
f 173//173 175//175 156//156
f 175//175 176//176 156//156
f 176//176 159//159 156//156
f 158//158 174//174 157//157
f 174//174 158//158 172//172
f 160//160 159//159 177//177
f 176//176 177//177 159//159
f 160//160 178//178 161//161
f 179//179 160//160 177//177
f 179//179 178//178 160//160
f 178//178 162//162 161//161
f 178//178 163//163 162//162
f 178//178 180//180 163//163
f 164//164 163//163 181//181
f 181//181 163//163 180//180
f 166//166 164//164 181//181
f 168//168 165//165 182//182
f 166//166 182//182 165//165
f 183//183 166//166 181//181
f 182//182 166//166 183//183
f 167//167 184//184 169//169
f 167//167 185//185 184//184
f 185//185 167//167 182//182
f 168//168 182//182 167//167
f 169//169 184//184 170//170
f 171//171 170//170 184//184
f 172//172 171//171 186//186
f 186//186 171//171 187//187
f 171//171 184//184 187//187
f 188//188 172//172 186//186
f 174//174 172//172 188//188
f 175//175 173//173 174//174
f 175//175 174//174 188//188
f 175//175 189//189 176//176
f 175//175 188//188 189//189
f 177//177 176//176 189//189
f 190//190 177//177 189//189
f 190//190 179//179 177//177
f 178//178 191//191 180//180
f 192//192 178//178 179//179
f 191//191 178//178 192//192
f 192//192 179//179 190//190
f 181//181 180//180 191//191
f 191//191 183//183 181//181
f 183//183 193//193 182//182
f 193//193 185//185 182//182
f 193//193 183//183 192//192
f 183//183 191//191 192//192
f 185//185 193//193 184//184
f 184//184 193//193 187//187
f 186//186 189//189 188//188
f 194//194 190//190 186//186
f 190//190 189//189 186//186
f 187//187 194//194 186//186
f 187//187 193//193 192//192
f 194//194 187//187 192//192
f 190//190 194//194 192//192
