# Generated by Visualization Toolkit
v 0.022458000108599663 -0.13851700723171234 0.021595999598503113
v 0.025033999234437943 -0.1391250044107437 0.020639000460505486
v 0.021265000104904175 -0.1415189951658249 0.022206999361515045
v 0.01928200013935566 -0.1395290046930313 0.022141000255942345
v 0.021486999467015266 -0.13438500463962555 0.02017899975180626
v 0.01923700049519539 -0.13607899844646454 0.020937999710440636
v 0.01974100060760975 -0.13419100642204285 0.020685000345110893
v 0.02463800087571144 -0.14097900688648224 0.021391000598669052
v 0.026101000607013702 -0.13757899403572083 0.021157000213861465
v 0.026131000369787216 -0.13868600130081177 0.02147199958562851
v 0.024622000753879547 -0.13704000413417816 0.020013000816106796
v 0.02214900031685829 -0.14191600680351257 0.022123999893665314
v 0.020106999203562737 -0.14101000130176544 0.023919999599456787
v 0.021880000829696655 -0.14214399456977844 0.02380399964749813
v 0.01802000030875206 -0.1362760066986084 0.022306999191641808
v 0.017849000170826912 -0.13505899906158447 0.028387999162077904
v 0.02047399990260601 -0.13390399515628815 0.020560000091791153
v 0.02254899963736534 -0.13353599607944489 0.021098999306559563
v 0.024960000067949295 -0.1352120041847229 0.02065899968147278
v 0.018857000395655632 -0.13444100320339203 0.021095000207424164
v 0.024661000818014145 -0.1417659968137741 0.02282699942588806
v 0.025438999757170677 -0.1408499926328659 0.022311000153422356
v 0.026345999911427498 -0.13762600719928741 0.023486999794840813
v 0.02607100084424019 -0.13953299820423126 0.024088000878691673
v 0.02095099911093712 -0.14051300287246704 0.02983199991285801
v 0.021984999999403954 -0.1415719985961914 0.02645000070333481
v 0.024671999737620354 -0.14169999957084656 0.02371099963784218
v 0.016814999282360077 -0.13086600601673126 0.020820999518036842
v 0.013779000379145145 -0.12947900593280792 0.025319000706076622
v 0.012740000151097775 -0.12723399698734283 0.02232000045478344
v 0.018592000007629395 -0.13317500054836273 0.02948799915611744
v 0.014817999675869942 -0.12588700652122498 0.028232000768184662
v 0.013226999901235104 -0.12716799974441528 0.026861000806093216
v 0.02001900039613247 -0.1343419998884201 0.030412999913096428
v 0.020080000162124634 -0.13666099309921265 0.030334999784827232
v 0.02049499936401844 -0.13495700061321259 0.03073200024664402
v 0.020600000396370888 -0.13339699804782867 0.021626999601721764
v 0.024846000596880913 -0.135452002286911 0.025824999436736107
v 0.021263999864459038 -0.13292500376701355 0.02339399978518486
v 0.025728000327944756 -0.13745899498462677 0.025992000475525856
v 0.02498600073158741 -0.1402139961719513 0.02617800049483776
v 0.022374000400304794 -0.14193500578403473 0.028883999213576317
v 0.02242100052535534 -0.14162400364875793 0.03020399995148182
v 0.022151000797748566 -0.14033299684524536 0.03086400032043457
v 0.02442000061273575 -0.14137400686740875 0.03039100021123886
v 0.02429099939763546 -0.14103899896144867 0.026249000802636147
v 0.0021039999555796385 -0.10993599891662598 0.020569000393152237
v 0.009960999712347984 -0.11732300370931625 0.018845999613404274
v 0.013470999896526337 -0.12027300149202347 0.019564000889658928
v 0.016795000061392784 -0.12535299360752106 0.02098100073635578
v 0.007031999994069338 -0.11881399899721146 0.024935999885201454
v 0.0187740009278059 -0.12959299981594086 0.028922000899910927
v 0.020114999264478683 -0.13244900107383728 0.029180999845266342
v 0.019790999591350555 -0.1331070065498352 0.02965099923312664
v 0.007329999934881926 -0.11864600330591202 0.025989999994635582
v 0.008414000272750854 -0.1143139973282814 0.02714800089597702
v 0.00949000008404255 -0.11116699874401093 0.02744000032544136
v 0.020576000213623047 -0.13332599401474 0.030153000727295876
v 0.0250410009175539 -0.13910099864006042 0.03153099864721298
v 0.02205199934542179 -0.13445299863815308 0.03108000010251999
v 0.02445800043642521 -0.13623599708080292 0.03151100128889084
v 0.025043999776244164 -0.1371850073337555 0.031612999737262726
v 0.026295000687241554 -0.13716700673103333 0.028365999460220337
v 0.02555900067090988 -0.13586899638175964 0.028410999104380608
v 0.022634999826550484 -0.1332309991121292 0.028087999671697617
v 0.020632000640034676 -0.13242000341415405 0.02848700061440468
v 0.026096999645233154 -0.13949799537658691 0.028435999527573586
v 0.02566000074148178 -0.13962100446224213 0.030856000259518623
v 0.007294000126421452 -0.11124999821186066 0.017456000670790672
v 0.005532999988645315 -0.11608199775218964 0.024517999961972237
v 0.0026859999634325504 -0.11095699667930603 0.025104999542236328
v 0.0005569999921135604 -0.10548099875450134 0.026280999183654785
v -0.00003400000059627928 -0.10585100203752518 0.02077599987387657
v 0.0013559999642893672 -0.10734599828720093 0.018257999792695045
v 0.009329999797046185 -0.11087299883365631 0.01756400056183338
v 0.014386000111699104 -0.11962399631738663 0.020603999495506287
v 0.010823000222444534 -0.11073499917984009 0.0189410001039505
v 0.00598399993032217 -0.11571899801492691 0.02544499933719635
v 0.011003999970853329 -0.1123490035533905 0.025443000718951225
v 0.020955000072717667 -0.1326490044593811 0.02969999983906746
v 0.0026599999982863665 -0.10257700085639954 0.02884499914944172
v 0.008510000072419643 -0.10743899643421173 0.026743000373244286
v 0.008275999687612057 -0.1083419993519783 0.027473999187350273
v 0.010002999566495419 -0.11077599972486496 0.026308000087738037
v 0.025929000228643417 -0.1373019963502884 0.030930999666452408
v 0.023118000477552414 -0.133774995803833 0.030435999855399132
v 0.02434300072491169 -0.13475200533866882 0.030646000057458878
v 0.008170000277459621 -0.10727400332689285 0.015829000622034073
v 0.004401000216603279 -0.10401000082492828 0.014096000231802464
v 0.0010160000529140234 -0.10364100337028503 0.027753999456763268
v -0.00040099999750964344 -0.10355900228023529 0.022298000752925873
v -0.00020700000459328294 -0.10287699848413467 0.02542000077664852
v 0.0008870000019669533 -0.10306300222873688 0.016860000789165497
v 0.0016120000509545207 -0.10224000364542007 0.01584799960255623
v 0.008803999982774258 -0.10329599678516388 0.015314999967813492
v 0.00974700041115284 -0.10543300211429596 0.017170000821352005
v 0.009724999777972698 -0.10990899801254272 0.02552199922502041
v 0.0024429999757558107 -0.10150200128555298 0.02877799980342388
v 0.003836000105366111 -0.10011299699544907 0.02873699925839901
v 0.007888000458478928 -0.10570099949836731 0.027876999229192734
v 0.007946999743580818 -0.10192500054836273 0.028293000534176826
v 0.00481799989938736 -0.09970799833536148 0.028635000810027122
v 0.009573999792337418 -0.1060120016336441 0.025088999420404434
v 0.009138000197708607 -0.10583700239658356 0.026441000401973724
v 0.00930000003427267 -0.10768400132656097 0.025275999680161476
v 0.003765000030398369 -0.101453997194767 0.01477499958127737
v 0.006173999980092049 -0.10118900239467621 0.01444500032812357
v 0.0004729999927803874 -0.10137200355529785 0.0264699999243021
v 0.0015279999934136868 -0.09971299767494202 0.027892999351024628
v 0.00107999995816499 -0.10145600140094757 0.017847999930381775
v 0.000826000003144145 -0.10213100165128708 0.024598000571131706
v 0.0006689999718219042 -0.10267200320959091 0.021366000175476074
v 0.0032470000442117453 -0.09966699779033661 0.015444000251591206
v 0.009298999793827534 -0.0999549999833107 0.017378000542521477
v 0.007153000216931105 -0.10102099925279617 0.01482400018721819
v 0.00916299968957901 -0.10309399664402008 0.02399899996817112
v 0.009456999599933624 -0.10604699701070786 0.024064000695943832
v 0.0031030001118779182 -0.0988989993929863 0.027981000021100044
v 0.0035989999305456877 -0.09968999773263931 0.02829499915242195
v 0.008599000051617622 -0.1017019972205162 0.027830999344587326
v 0.0076790000312030315 -0.09967000037431717 0.027560999616980553
v 0.005919999908655882 -0.09956599771976471 0.02837900072336197
v 0.004505000077188015 -0.09915799647569656 0.028164999559521675
v 0.00468500005081296 -0.10051000118255615 0.015285000205039978
v 0.005468999966979027 -0.0993570014834404 0.0155239999294281
v 0.0021299999207258224 -0.10078399628400803 0.025880999863147736
v 0.007706999778747559 -0.09845700114965439 0.01827099919319153
v 0.004736999981105328 -0.09991099685430527 0.023548999801278114
v 0.006281000096350908 -0.09855400025844574 0.02656099945306778
v 0.006560000125318766 -0.09825199842453003 0.02332800067961216
v 0.005022000055760145 -0.09851700067520142 0.027428999543190002
v 0.00456599984318018 -0.09854400157928467 0.026739999651908875
vn -0.19589278101921082 -0.24525383114814758 -0.9494611620903015
vn 0.10113740712404251 -0.2991540729999542 -0.9488298296928406
vn -0.41774967312812805 -0.5358325839042664 -0.7337360978126526
vn -0.6992858052253723 -0.4475577473640442 -0.5573970675468445
vn -0.1263132393360138 0.11350719630718231 -0.9854750037193298
vn -0.39610034227371216 -0.18161095678806305 -0.9000677466392517
vn -0.29793375730514526 0.12899848818778992 -0.9458302855491638
vn 0.33359014987945557 -0.5683081150054932 -0.7521592378616333
vn 0.831719160079956 0.05354435369372368 -0.5526087284088135
vn 0.8810473680496216 -0.2726380527019501 -0.38655415177345276
vn 0.3062180280685425 -0.00452891131862998 -0.9519506692886353
vn -0.09661795943975449 -0.859464168548584 -0.5019822716712952
vn -0.696060836315155 -0.7170329689979553 0.03691970929503441
vn -0.19021472334861755 -0.9817023873329163 0.008865010924637318
vn -0.8062126636505127 -0.3842006325721741 -0.4499012231826782
vn -0.8070171475410461 -0.30693039298057556 0.5044969320297241
vn -0.22343695163726807 0.7685835957527161 -0.5994623899459839
vn 0.2542417645454407 0.8880524039268494 -0.38304582238197327
vn 0.6756253242492676 0.5494365096092224 -0.49157893657684326
vn -0.45263564586639404 0.27945828437805176 -0.8467726707458496
vn 0.3848598897457123 -0.9029760360717773 -0.19109465181827545
vn 0.8044911623001099 -0.5638306736946106 -0.18678581714630127
vn 0.9786497950553894 0.20035484433174133 0.045854393392801285
vn 0.9343276023864746 -0.32289108633995056 0.15090806782245636
vn -0.7040718197822571 -0.5840546488761902 0.4039342999458313
vn -0.10645633190870285 -0.9904983639717102 0.08706365525722504
vn 0.5676069259643555 -0.8021278381347656 0.1855078488588333
vn -0.16300389170646667 -0.20425869524478912 -0.9652503132820129
vn -0.8514581322669983 -0.5164149403572083 0.09129373729228973
vn -0.7723828554153442 -0.48243606090545654 -0.4131345748901367
vn -0.2676602303981781 0.19376792013645172 0.9438283443450928
vn -0.37076956033706665 -0.09543675184249878 0.9238082766532898
vn -0.7259235382080078 -0.38756534457206726 0.5681795477867126
vn -0.43406814336776733 0.20568466186523438 0.8770853877067566
vn -0.40879538655281067 -0.1132626011967659 0.9055705070495605
vn -0.4161052107810974 0.0734994113445282 0.9063410758972168
vn 0.18332341313362122 0.6727843880653381 -0.7167661786079407
vn 0.7650870680809021 0.6431031823158264 -0.0325593464076519
vn 0.632533848285675 0.7678017616271973 -0.10188816487789154
vn 0.9996434450149536 0.0266789048910141 -0.001107225427404046
vn 0.8443669676780701 -0.5320166945457458 0.0632668137550354
vn -0.24250701069831848 -0.9677417874336243 0.06830937415361404
vn -0.24944515526294708 -0.7051120400428772 0.6637726426124573
vn -0.3669494390487671 -0.30543333292007446 0.8786686658859253
vn 0.489396870136261 -0.842545747756958 0.22496098279953003
vn 0.5254994630813599 -0.8444636464118958 0.1035923957824707
vn -0.8114350438117981 -0.5071008801460266 -0.29055413603782654
vn -0.17021964490413666 -0.2630578279495239 -0.9496451616287231
vn 0.4620952308177948 0.04862234368920326 -0.8854963183403015
vn 0.7602742910385132 0.30211254954338074 -0.5750748515129089
vn -0.8502712845802307 -0.4647495448589325 0.2470760941505432
vn 0.7077012062072754 0.42466971278190613 0.564636766910553
vn 0.22168666124343872 0.7205261588096619 0.6570366024971008
vn -0.25241902470588684 0.5719147324562073 0.7805115580558777
vn -0.6700308918952942 -0.2920951545238495 0.6824507117271423
vn -0.3078407645225525 -0.141903817653656 0.9407960772514343
vn 0.4813899099826813 0.19631391763687134 0.8542392253875732
vn -0.2518329918384552 0.4707012474536896 0.8455888628959656
vn 0.18900108337402344 -0.24768106639385223 0.9502277374267578
vn -0.0910312607884407 0.312173992395401 0.9456535577774048
vn 0.21098190546035767 0.3172908425331116 0.9245611429214478
vn 0.19608819484710693 0.08755085617303848 0.9766700267791748
vn 0.9817365407943726 0.18754082918167114 -0.031966034322977066
vn 0.7675413489341736 0.6407929062843323 0.016273094341158867
vn 0.5052363872528076 0.8625636696815491 0.026835741475224495
vn 0.6342694163322449 0.7333852052688599 0.24463947117328644
vn 0.9238521456718445 -0.37321799993515015 -0.08488615602254868
vn 0.8544750213623047 -0.3068680763244629 0.4191713035106659
vn -0.21381188929080963 -0.45567449927330017 -0.8640863299369812
vn -0.8436765074729919 -0.46030017733573914 0.276285320520401
vn -0.7319679260253906 -0.44046053290367126 0.5198245048522949
vn -0.9120419025421143 -0.3163342773914337 0.2609829306602478
vn -0.9517362713813782 -0.28314027190208435 -0.11844629794359207
vn -0.6979457139968872 -0.42510873079299927 -0.5763283371925354
vn 0.340671569108963 -0.16457095742225647 -0.9256669878959656
vn 0.8929840922355652 0.3387489318847656 -0.29635873436927795
vn 0.8916614055633545 0.1527751237154007 -0.4261450469493866
vn -0.6756201386451721 -0.3314044177532196 0.6585654020309448
vn 0.8890345692634583 0.4104436933994293 0.2028634250164032
vn 0.024300971999764442 0.8173873424530029 0.5755758285522461
vn -0.09546273946762085 -0.1228223517537117 0.9878266453742981
vn 0.8842524290084839 0.09836908429861069 0.45653173327445984
vn 0.5883355140686035 0.11006930470466614 0.80109041929245
vn 0.8760896325111389 0.36188456416130066 0.3186008036136627
vn 0.8105533719062805 0.25796133279800415 0.5257939100265503
vn 0.4262952506542206 0.763964831829071 0.48438623547554016
vn 0.6363243460655212 0.6237160563468933 0.4539490342140198
vn 0.3755094110965729 -0.26881158351898193 -0.8869796991348267
vn -0.16924136877059937 -0.17540191113948822 -0.9698408842086792
vn -0.7130587697029114 -0.11153663694858551 0.6921755075454712
vn -0.9384490847587585 0.34409475326538086 -0.030202284455299377
vn -0.9621294736862183 0.24325396120548248 0.12302187830209732
vn -0.9186100959777832 0.009140601381659508 -0.39505934715270996
vn -0.707694411277771 0.0836336687207222 -0.7015511989593506
vn 0.6239252090454102 0.015459582209587097 -0.7813310623168945
vn 0.9932523369789124 0.10077603161334991 -0.05739478021860123
vn 0.926348090171814 0.330886572599411 0.17998120188713074
vn -0.3486388921737671 0.21156346797943115 0.9130672216415405
vn -0.15891188383102417 0.3242867588996887 0.9325154423713684
vn 0.5806033611297607 -0.10057675838470459 0.8079505562782288
vn 0.33104243874549866 0.09985199570655823 0.9383178949356079
vn 0.016438208520412445 0.36070680618286133 0.932534396648407
vn 0.9844617247581482 -0.04591580480337143 0.16949014365673065
vn 0.8544437289237976 -0.1432042419910431 0.499418169260025
vn 0.9796985387802124 0.017348168417811394 0.19972442090511322
vn -0.2456136792898178 0.3094159960746765 -0.9186598062515259
vn 0.03623414412140846 0.3138124942779541 -0.9487934112548828
vn -0.8226501941680908 0.5636218786239624 -0.07467886805534363
vn -0.7388493418693542 0.5811947584152222 0.34104862809181213
vn -0.7382697463035583 0.6735596656799316 -0.035710208117961884
vn -0.589649498462677 0.7797651886940002 -0.21042729914188385
vn -0.5445640087127686 0.8355438709259033 0.07291420549154282
vn -0.36640453338623047 0.6538556814193726 -0.6619821786880493
vn 0.8566253781318665 0.4993104338645935 -0.12993115186691284
vn 0.42305171489715576 0.4951053857803345 -0.7588794231414795
vn 0.9923213720321655 0.11908996105194092 0.033403679728507996
vn 0.9993484616279602 -0.011496621184051037 -0.034214507788419724
vn -0.27375927567481995 0.8172122836112976 0.5071685314178467
vn -0.21326199173927307 0.4835825562477112 0.8489212393760681
vn 0.8817113041877747 0.13544784486293793 0.45192813873291016
vn 0.5554778575897217 0.6393787860870361 0.5316381454467773
vn 0.23383447527885437 0.5521795153617859 0.8002619743347168
vn -0.00904383510351181 0.6181269288063049 0.7860262989997864
vn -0.0912761241197586 0.4006895124912262 -0.9116559028625488
vn 0.04996941238641739 0.6300089359283447 -0.7749786376953125
vn -0.4812280833721161 0.7688553929328918 -0.4210473299026489
vn -0.15834185481071472 0.9768502116203308 -0.14384494721889496
vn -0.5920068025588989 0.7686293721199036 -0.24235717952251434
vn 0.35278600454330444 0.9235332012176514 0.15042744576931
vn 0.028903793543577194 0.9987657070159912 -0.040394481271505356
vn 0.11027703434228897 0.8957985043525696 0.43056246638298035
vn -0.3429417908191681 0.9233275055885315 -0.17279236018657684
f 1//1 2//2 3//3
f 3//3 4//4 1//1
f 2//2 1//1 5//5
f 1//1 4//4 6//6
f 1//1 7//7 5//5
f 1//1 6//6 7//7
f 3//3 2//2 8//8
f 9//9 10//10 2//2
f 11//11 2//2 5//5
f 2//2 11//11 9//9
f 2//2 10//10 8//8
f 3//3 8//8 12//12
f 4//4 3//3 13//13
f 14//14 3//3 12//12
f 14//14 13//13 3//3
f 6//6 4//4 15//15
f 4//4 13//13 16//16
f 16//16 15//15 4//4
f 7//7 17//17 5//5
f 5//5 17//17 18//18
f 5//5 18//18 19//19
f 19//19 11//11 5//5
f 15//15 20//20 6//6
f 7//7 6//6 20//20
f 7//7 20//20 17//17
f 12//12 8//8 21//21
f 22//22 21//21 8//8
f 22//22 8//8 10//10
f 23//23 10//10 9//9
f 9//9 19//19 23//23
f 19//19 9//9 11//11
f 10//10 23//23 24//24
f 24//24 22//22 10//10
f 14//14 12//12 21//21
f 16//16 13//13 25//25
f 25//25 13//13 26//26
f 26//26 13//13 14//14
f 26//26 14//14 27//27
f 21//21 27//27 14//14
f 20//20 15//15 28//28
f 15//15 16//16 29//29
f 28//28 15//15 30//30
f 29//29 30//30 15//15
f 16//16 31//31 32//32
f 33//33 29//29 16//16
f 32//32 33//33 16//16
f 34//34 31//31 16//16
f 16//16 25//25 35//35
f 36//36 16//16 35//35
f 36//36 34//34 16//16
f 18//18 17//17 37//37
f 20//20 37//37 17//17
f 18//18 38//38 19//19
f 38//38 18//18 39//39
f 39//39 18//18 37//37
f 23//23 19//19 38//38
f 20//20 28//28 37//37
f 27//27 21//21 22//22
f 27//27 22//22 24//24
f 40//40 24//24 23//23
f 40//40 23//23 38//38
f 24//24 41//41 27//27
f 24//24 40//40 41//41
f 42//42 43//43 25//25
f 42//42 25//25 26//26
f 25//25 44//44 35//35
f 25//25 43//43 44//44
f 45//45 26//26 46//46
f 42//42 26//26 45//45
f 27//27 46//46 26//26
f 41//41 46//46 27//27
f 47//47 48//48 28//28
f 28//28 30//30 47//47
f 28//28 48//48 49//49
f 28//28 49//49 50//50
f 28//28 50//50 37//37
f 29//29 47//47 30//30
f 51//51 47//47 29//29
f 33//33 51//51 29//29
f 31//31 52//52 32//32
f 31//31 53//53 52//52
f 31//31 54//54 53//53
f 31//31 34//34 54//54
f 55//55 32//32 56//56
f 55//55 33//33 32//32
f 32//32 52//52 57//57
f 57//57 56//56 32//32
f 51//51 33//33 55//55
f 34//34 58//58 54//54
f 34//34 36//36 58//58
f 35//35 44//44 59//59
f 60//60 35//35 61//61
f 61//61 35//35 62//62
f 35//35 59//59 62//62
f 35//35 60//60 36//36
f 60//60 58//58 36//36
f 39//39 37//37 50//50
f 38//38 63//63 40//40
f 64//64 38//38 65//65
f 63//63 38//38 64//64
f 38//38 39//39 65//65
f 39//39 52//52 66//66
f 39//39 50//50 52//52
f 39//39 66//66 65//65
f 41//41 40//40 67//67
f 40//40 63//63 67//67
f 41//41 45//45 46//46
f 41//41 67//67 45//45
f 42//42 45//45 43//43
f 45//45 59//59 43//43
f 43//43 59//59 44//44
f 59//59 45//45 68//68
f 45//45 67//67 68//68
f 47//47 69//69 48//48
f 47//47 51//51 70//70
f 47//47 70//70 71//71
f 47//47 72//72 73//73
f 47//47 71//71 72//72
f 47//47 74//74 69//69
f 47//47 73//73 74//74
f 75//75 48//48 69//69
f 48//48 75//75 49//49
f 50//50 49//49 76//76
f 49//49 77//77 76//76
f 77//77 49//49 75//75
f 50//50 76//76 52//52
f 78//78 70//70 51//51
f 55//55 78//78 51//51
f 57//57 52//52 79//79
f 66//66 52//52 53//53
f 79//79 52//52 76//76
f 53//53 65//65 66//66
f 65//65 53//53 80//80
f 54//54 80//80 53//53
f 54//54 58//58 80//80
f 56//56 78//78 55//55
f 57//57 81//81 56//56
f 78//78 56//56 81//81
f 57//57 82//82 83//83
f 57//57 84//84 82//82
f 81//81 57//57 83//83
f 79//79 84//84 57//57
f 60//60 80//80 58//58
f 59//59 85//85 62//62
f 85//85 59//59 68//68
f 61//61 86//86 60//60
f 60//60 86//86 80//80
f 87//87 86//86 61//61
f 61//61 85//85 87//87
f 62//62 85//85 61//61
f 85//85 68//68 63//63
f 63//63 68//68 67//67
f 63//63 64//64 85//85
f 64//64 65//65 86//86
f 64//64 86//86 87//87
f 64//64 87//87 85//85
f 65//65 80//80 86//86
f 88//88 75//75 69//69
f 89//89 69//69 74//74
f 69//69 89//89 88//88
f 78//78 71//71 70//70
f 90//90 71//71 81//81
f 71//71 78//78 81//81
f 71//71 90//90 72//72
f 91//91 73//73 72//72
f 92//92 91//91 72//72
f 90//90 92//92 72//72
f 91//91 93//93 73//73
f 74//74 73//73 93//93
f 93//93 94//94 74//74
f 74//74 94//94 89//89
f 75//75 88//88 77//77
f 79//79 76//76 77//77
f 77//77 95//95 96//96
f 77//77 96//96 97//97
f 79//79 77//77 97//97
f 95//95 77//77 88//88
f 84//84 79//79 97//97
f 81//81 98//98 90//90
f 98//98 81//81 99//99
f 81//81 83//83 100//100
f 81//81 100//100 101//101
f 81//81 101//101 102//102
f 81//81 102//102 99//99
f 83//83 82//82 100//100
f 82//82 103//103 104//104
f 104//104 100//100 82//82
f 82//82 84//84 97//97
f 103//103 82//82 105//105
f 105//105 82//82 97//97
f 89//89 95//95 88//88
f 89//89 106//106 107//107
f 106//106 89//89 94//94
f 107//107 95//95 89//89
f 108//108 90//90 109//109
f 90//90 108//108 92//92
f 109//109 90//90 98//98
f 91//91 110//110 93//93
f 111//111 91//91 92//92
f 111//111 112//112 91//91
f 91//91 112//112 110//110
f 111//111 92//92 108//108
f 94//94 93//93 110//110
f 94//94 113//113 106//106
f 94//94 110//110 113//113
f 95//95 114//114 96//96
f 95//95 115//115 114//114
f 115//115 95//95 107//107
f 116//116 117//117 96//96
f 96//96 117//117 105//105
f 97//97 96//96 105//105
f 114//114 116//116 96//96
f 118//118 109//109 98//98
f 98//98 99//99 119//119
f 98//98 119//119 118//118
f 102//102 119//119 99//99
f 100//100 120//120 101//101
f 120//120 100//100 104//104
f 101//101 121//121 122//122
f 121//121 101//101 120//120
f 102//102 101//101 122//122
f 122//122 123//123 102//102
f 102//102 123//123 119//119
f 104//104 103//103 120//120
f 105//105 117//117 103//103
f 103//103 116//116 120//120
f 103//103 117//117 116//116
f 124//124 107//107 106//106
f 106//106 113//113 124//124
f 124//124 125//125 107//107
f 125//125 115//115 107//107
f 126//126 108//108 109//109
f 108//108 126//126 111//111
f 126//126 109//109 118//118
f 110//110 127//127 113//113
f 127//127 110//110 112//112
f 111//111 128//128 127//127
f 112//112 111//111 127//127
f 111//111 126//126 128//128
f 124//124 113//113 125//125
f 127//127 125//125 113//113
f 116//116 114//114 120//120
f 114//114 129//129 121//121
f 114//114 121//121 120//120
f 130//130 129//129 114//114
f 130//130 114//114 127//127
f 127//127 114//114 115//115
f 115//115 125//125 127//127
f 118//118 123//123 131//131
f 123//123 118//118 119//119
f 132//132 126//126 118//118
f 118//118 131//131 132//132
f 131//131 122//122 121//121
f 129//129 131//131 121//121
f 131//131 123//123 122//122
f 128//128 126//126 132//132
f 128//128 130//130 127//127
f 132//132 130//130 128//128
f 132//132 131//131 129//129
f 129//129 130//130 132//132
