# Generated by Visualization Toolkit
v 0.04369800165295601 -0.1594270020723343 -0.026272999122738838
v 0.04482699930667877 -0.15960800647735596 -0.02617100067436695
v 0.04397699981927872 -0.15948599576950073 -0.02550099976360798
v 0.043473001569509506 -0.15895800292491913 -0.02869199961423874
v 0.04257600009441376 -0.158610001206398 -0.02632099948823452
v 0.045207999646663666 -0.15928800404071808 -0.024746999144554138
v 0.04463899880647659 -0.15940600633621216 -0.024901999160647392
v 0.04415600001811981 -0.15920700132846832 -0.028748000040650368
v 0.046925000846385956 -0.15741099417209625 -0.02830599993467331
v 0.04708699882030487 -0.15808899700641632 -0.025180000811815262
v 0.04254800081253052 -0.15851600468158722 -0.02490600012242794
v 0.043818000704050064 -0.15883299708366394 -0.030553000047802925
v 0.041345998644828796 -0.1569650024175644 -0.028551999479532242
v 0.04275299981236458 -0.1582150012254715 -0.029582999646663666
v 0.04084499925374985 -0.15649999678134918 -0.026830999180674553
v 0.045857999473810196 -0.1549769937992096 -0.02281999960541725
v 0.04655800014734268 -0.1582150012254715 -0.0242139995098114
v 0.04550199955701828 -0.15907999873161316 -0.030945999547839165
v 0.04698500037193298 -0.1579049974679947 -0.03026599995791912
v 0.047022998332977295 -0.15530499815940857 -0.028044000267982483
v 0.04773499816656113 -0.15583699941635132 -0.030233999714255333
v 0.047547999769449234 -0.15614700317382812 -0.02427699975669384
v 0.04745600000023842 -0.15523600578308105 -0.025962000712752342
v 0.041641999036073685 -0.15728899836540222 -0.024486999958753586
v 0.04055500030517578 -0.15615999698638916 -0.02549000084400177
v 0.0445609986782074 -0.1587740033864975 -0.03202600032091141
v 0.040098000317811966 -0.1562429964542389 -0.02824299968779087
v 0.03309699892997742 -0.15042300522327423 -0.029930999502539635
v 0.040929000824689865 -0.1557379961013794 -0.030628999695181847
v 0.04184199869632721 -0.15609599649906158 -0.031863998621702194
v 0.03965400159358978 -0.15609200298786163 -0.026712000370025635
v 0.04689899832010269 -0.15698100626468658 -0.023574000224471092
v 0.0464170016348362 -0.1555429995059967 -0.02297000028192997
v 0.044367000460624695 -0.15422199666500092 -0.022711999714374542
v 0.0435510016977787 -0.15411999821662903 -0.02275400049984455
v 0.041579000651836395 -0.15597300231456757 -0.023816000670194626
v 0.04530100151896477 -0.15398399531841278 -0.022856999188661575
v 0.04597799852490425 -0.15442200005054474 -0.023000000044703484
v 0.045448001474142075 -0.15877099335193634 -0.03216199949383736
v 0.04673999920487404 -0.15768000483512878 -0.03241800144314766
v 0.04542800039052963 -0.15362100303173065 -0.027814999222755432
v 0.04712799936532974 -0.15416200459003448 -0.03008200041949749
v 0.04741699993610382 -0.15599800646305084 -0.03249400109052658
v 0.047272998839616776 -0.15512500703334808 -0.03248399868607521
v 0.046925000846385956 -0.15431199967861176 -0.03245300054550171
v 0.0470069982111454 -0.15474200248718262 -0.02365100011229515
v 0.04079199954867363 -0.1549839973449707 -0.024098999798297882
v 0.03956599906086922 -0.15569999814033508 -0.02565000019967556
v 0.04533199965953827 -0.15827199816703796 -0.03244499862194061
v 0.03611600026488304 -0.1533149927854538 -0.026870999485254288
v 0.04076800122857094 -0.1550700068473816 -0.03128400072455406
v 0.03520600125193596 -0.15249399840831757 -0.026247000321745872
v 0.03063799999654293 -0.14851300418376923 -0.02974499948322773
v 0.029696999117732048 -0.14634500443935394 -0.03150400146842003
v 0.03412900120019913 -0.14960399270057678 -0.031036999076604843
v 0.03920400142669678 -0.15358999371528625 -0.03140300139784813
v 0.04125300049781799 -0.1551620066165924 -0.03157300129532814
v 0.041861001402139664 -0.15460899472236633 -0.03223799914121628
v 0.04284600168466568 -0.15632900595664978 -0.032308999449014664
v 0.0453450009226799 -0.15346600115299225 -0.02315099909901619
v 0.04299100115895271 -0.15313899517059326 -0.023729000240564346
v 0.046250998973846436 -0.15707099437713623 -0.03284800052642822
v 0.046828001737594604 -0.1558379977941513 -0.033048998564481735
v 0.041978999972343445 -0.1531209945678711 -0.025815000757575035
v 0.04509799927473068 -0.15309500694274902 -0.03013399988412857
v 0.0450269989669323 -0.15328699350357056 -0.032253000885248184
v 0.046268999576568604 -0.15460899472236633 -0.03308599814772606
v 0.04495999962091446 -0.15396499633789062 -0.03293599933385849
v 0.03922300040721893 -0.1541139930486679 -0.024351999163627625
v 0.04022800177335739 -0.15303799510002136 -0.024135999381542206
v 0.04163099825382233 -0.15376700460910797 -0.024369999766349792
v 0.04073299840092659 -0.1546649932861328 -0.031676001846790314
v 0.036295000463724136 -0.15124599635601044 -0.023634999990463257
v 0.034327998757362366 -0.14903900027275085 -0.022623000666499138
v 0.031122999265789986 -0.14824900031089783 -0.02322399988770485
v 0.024090999737381935 -0.14498299360275269 -0.029802000150084496
v 0.022450000047683716 -0.14448800683021545 -0.0251499991863966
v 0.024504000321030617 -0.1437010020017624 -0.030980000272393227
v 0.026698000729084015 -0.1433819979429245 -0.032451000064611435
v 0.031091000884771347 -0.1451530009508133 -0.0319410003721714
v 0.036942001432180405 -0.149850994348526 -0.031153999269008636
v 0.028999000787734985 -0.14358900487422943 -0.03252600133419037
v 0.03925500065088272 -0.15176500380039215 -0.031300999224185944
v 0.041016001254320145 -0.1537729948759079 -0.03162100166082382
v 0.040132999420166016 -0.1523970067501068 -0.03116299957036972
v 0.042833998799324036 -0.15502099692821503 -0.03263700008392334
v 0.043956998735666275 -0.15316399931907654 -0.03214100003242493
v 0.04129000008106232 -0.1530819982290268 -0.03117400035262108
v 0.03966600075364113 -0.15169300138950348 -0.026333000510931015
v 0.03945299983024597 -0.1523980051279068 -0.024178000167012215
v 0.0418890006840229 -0.15281899273395538 -0.029758000746369362
v 0.040490999817848206 -0.1521580070257187 -0.02841399982571602
v 0.038072001188993454 -0.1516689956188202 -0.02367500029504299
v 0.037516999989748 -0.15082399547100067 -0.023252999410033226
v 0.03502599895000458 -0.14877599477767944 -0.022415999323129654
v 0.025949999690055847 -0.14570799469947815 -0.02224699966609478
v 0.02789900079369545 -0.14371299743652344 -0.019763000309467316
v 0.02643200010061264 -0.14464999735355377 -0.020692000165581703
v 0.03069699928164482 -0.14503799378871918 -0.020555000752210617
v 0.023096000775694847 -0.14458200335502625 -0.02371699921786785
v 0.022763000801205635 -0.14383700489997864 -0.029493000358343124
v 0.022260000929236412 -0.14427399635314941 -0.026531999930739403
v 0.023190999403595924 -0.1434130072593689 -0.030282000079751015
v 0.0217250008136034 -0.14366500079631805 -0.02528100088238716
v 0.025265999138355255 -0.1417820006608963 -0.03234900161623955
v 0.023287000134587288 -0.14253899455070496 -0.03064900077879429
v 0.02284199930727482 -0.14299200475215912 -0.030042000114917755
v 0.031605999916791916 -0.14469599723815918 -0.03167999908328056
v 0.03539099916815758 -0.1474830061197281 -0.02775599993765354
v 0.025885000824928284 -0.14036500453948975 -0.031895000487565994
v 0.028901999816298485 -0.1409049928188324 -0.032010000199079514
v 0.03838000074028969 -0.15102000534534454 -0.024020999670028687
v 0.03549300134181976 -0.14844000339508057 -0.022523000836372375
v 0.024105999618768692 -0.14456500113010406 -0.022425999864935875
v 0.024848999455571175 -0.1433189958333969 -0.020702000707387924
v 0.027828000485897064 -0.14193899929523468 -0.01912900060415268
v 0.02659899927675724 -0.1416579931974411 -0.01913600042462349
v 0.02871299907565117 -0.14143900573253632 -0.019176999107003212
v 0.031036999076604843 -0.1435759961605072 -0.020793000236153603
v 0.03223700076341629 -0.14451399445533752 -0.021827999502420425
v 0.022307999432086945 -0.14377999305725098 -0.02384999953210354
v 0.022290000692009926 -0.14312699437141418 -0.029224999248981476
v 0.02168099954724312 -0.1433670073747635 -0.02643899992108345
v 0.022245999425649643 -0.14309200644493103 -0.02624800056219101
v 0.022871999070048332 -0.14341099560260773 -0.024109000340104103
v 0.025495000183582306 -0.1409900039434433 -0.03192000091075897
v 0.02356399968266487 -0.142426997423172 -0.03022100031375885
v 0.031018000096082687 -0.1430249959230423 -0.031098999083042145
v 0.032010000199079514 -0.14376400411128998 -0.025564000010490417
v 0.026673000305891037 -0.13906200230121613 -0.031036000698804855
v 0.027201000601053238 -0.14009100198745728 -0.02895599976181984
v 0.029928000643849373 -0.14020100235939026 -0.030709000304341316
v 0.02317900024354458 -0.14372099936008453 -0.022799000144004822
v 0.024764999747276306 -0.14291299879550934 -0.021105000749230385
v 0.023956000804901123 -0.14330899715423584 -0.02195899933576584
v 0.028334999457001686 -0.1409360021352768 -0.01930299960076809
v 0.02752400003373623 -0.14126700162887573 -0.019029000774025917
v 0.02723100036382675 -0.14081600308418274 -0.01951500028371811
v 0.025141000747680664 -0.1427440047264099 -0.02153399959206581
v 0.027101999148726463 -0.14054100215435028 -0.019937999546527863
v 0.0257750004529953 -0.142193004488945 -0.02258400060236454
v 0.03026299923658371 -0.1415330022573471 -0.01988000050187111
v 0.029363999143242836 -0.140066996216774 -0.02005700021982193
v 0.03167499974370003 -0.14348599314689636 -0.02191999927163124
v 0.030486999079585075 -0.1410199999809265 -0.020748000591993332
v 0.02432899922132492 -0.1429940015077591 -0.022362999618053436
v 0.0224629994481802 -0.14285600185394287 -0.02818799950182438
v 0.023142000660300255 -0.14268900454044342 -0.028721999377012253
v 0.023934999480843544 -0.14339900016784668 -0.024226000532507896
v 0.025608999654650688 -0.14289499819278717 -0.02672399953007698
v 0.02698500081896782 -0.14145199954509735 -0.027055999264121056
v 0.02813900075852871 -0.1379680037498474 -0.025805000215768814
v 0.03064800053834915 -0.14056499302387238 -0.02158699929714203
v 0.02979299984872341 -0.13921299576759338 -0.021726999431848526
v 0.0275030005723238 -0.13839200139045715 -0.02994300052523613
v 0.027348000556230545 -0.13887600600719452 -0.030054999515414238
v 0.027341000735759735 -0.13884299993515015 -0.029211999848484993
v 0.027685999870300293 -0.13994400203227997 -0.027790000662207603
v 0.027786999940872192 -0.1391340047121048 -0.0205329991877079
v 0.027638999745249748 -0.13961000740528107 -0.021418999880552292
v 0.025357000529766083 -0.14288300275802612 -0.025558000430464745
v 0.026757000014185905 -0.1418839991092682 -0.025218000635504723
v 0.0279959999024868 -0.14017100632190704 -0.024095000699162483
v 0.027695000171661377 -0.14073899388313293 -0.0248429998755455
v 0.0282639991492033 -0.138824000954628 -0.021097000688314438
v 0.02637599967420101 -0.14186599850654602 -0.025634000077843666
v 0.026669999584555626 -0.14201100170612335 -0.026133999228477478
v 0.027525000274181366 -0.1407189965248108 -0.026151999831199646
v 0.026936000213027 -0.1412470042705536 -0.0257399994879961
v 0.02842400036752224 -0.13818499445915222 -0.022272000089287758
v 0.027410000562667847 -0.1386220008134842 -0.028317000716924667
v 0.027567999437451363 -0.13983400166034698 -0.025671999901533127
v 0.027852000668644905 -0.140051007270813 -0.02493000030517578
v 0.027274999767541885 -0.14044499397277832 -0.025631999596953392
vn -0.3800717890262604 -0.9241835474967957 -0.03781876340508461
vn 0.16217468678951263 -0.985670268535614 -0.04640612751245499
vn -0.3460286557674408 -0.9225130081176758 0.17097939550876617
vn -0.4960111677646637 -0.8597557544708252 -0.12162657082080841
vn -0.665013313293457 -0.746701717376709 -0.013922883197665215
vn 0.24910208582878113 -0.8079875707626343 0.5339515805244446
vn -0.12238828092813492 -0.7949092388153076 0.5942561626434326
vn 0.13190872967243195 -0.9910029768943787 -0.022653186693787575
vn 0.8459035754203796 -0.5326895713806152 0.026246126741170883
vn 0.8647656440734863 -0.5021079778671265 0.00824592262506485
vn -0.5737134218215942 -0.708331286907196 0.4112417697906494
vn -0.41631320118904114 -0.8870248794555664 -0.19967536628246307
vn -0.646095871925354 -0.7455757260322571 -0.16333097219467163
vn -0.6860750317573547 -0.6829631924629211 -0.2507234811782837
vn -0.589524507522583 -0.806668221950531 0.04179973900318146
vn -0.02537926472723484 -0.26982858777046204 0.9625738263130188
vn 0.4898952841758728 -0.5772186517715454 0.6533156037330627
vn 0.254861980676651 -0.9598078727722168 -0.11753423511981964
vn 0.7551248669624329 -0.652082085609436 0.06764011085033417
vn 0.9657283425331116 0.24229776859283447 0.09306210279464722
vn 0.9998367428779602 0.01107753999531269 0.014272884465754032
vn 0.9444790482521057 -0.141887366771698 0.2963564395904541
vn 0.9435818791389465 0.3170713484287262 -0.09549365192651749
vn -0.5542305707931519 -0.4919981360435486 0.6713914275169373
vn -0.6207541227340698 -0.725662887096405 0.2967788577079773
vn -0.38066813349723816 -0.7528401017189026 -0.5369576811790466
vn -0.5241504907608032 -0.8449211120605469 -0.1066516861319542
vn -0.551746666431427 -0.704198956489563 -0.4468550384044647
vn -0.6393085718154907 -0.6383906006813049 -0.4286513924598694
vn -0.607226550579071 -0.42943283915519714 -0.6684783697128296
vn -0.46807920932769775 -0.8756919503211975 0.11859732866287231
vn 0.48164719343185425 -0.3099437355995178 0.8197260499000549
vn 0.4397992193698883 -0.004097894765436649 0.8980867862701416
vn 0.018778257071971893 0.09818015247583389 0.9949915409088135
vn -0.18987515568733215 0.21177200973033905 0.9586970210075378
vn -0.3458450436592102 -0.3362458646297455 0.875973641872406
vn 0.19115950167179108 0.35359546542167664 0.9156573414802551
vn 0.4766812324523926 0.3164409399032593 0.820146381855011
vn 0.1901238113641739 -0.7037405967712402 -0.6845452785491943
vn 0.6916427612304688 -0.5240452289581299 -0.49699801206588745
vn 0.4756614565849304 0.878115177154541 0.051575057208538055
vn 0.7077236771583557 0.7020018100738525 0.07950274646282196
vn 0.8800693154335022 -0.10166257619857788 -0.46383485198020935
vn 0.8110046982765198 0.259705126285553 -0.5242371559143066
vn 0.6530622243881226 0.6180213093757629 -0.4376751482486725
vn 0.7850528955459595 0.4168934226036072 0.4581393301486969
vn -0.49180734157562256 -0.13926053047180176 0.8594951629638672
vn -0.5132473707199097 -0.7128865718841553 0.4778806269168854
vn -0.1829265058040619 -0.39916905760765076 -0.8984441757202148
vn -0.6221849918365479 -0.7680299282073975 0.1517091542482376
vn -0.469695121049881 -0.5926255583763123 -0.6543558239936829
vn -0.5667848587036133 -0.7671570181846619 0.3003748655319214
vn -0.521665096282959 -0.7831886410713196 -0.3383503258228302
vn -0.23797042667865753 -0.4670117497444153 -0.8516279458999634
vn -0.19132958352565765 -0.25214287638664246 -0.9485868215560913
vn -0.23156225681304932 -0.1850736141204834 -0.9550532102584839
vn -0.6305291652679443 -0.40097299218177795 -0.6645703315734863
vn -0.4100648760795593 0.03619934245944023 -0.9113377332687378
vn -0.26196855306625366 -0.21385599672794342 -0.941083550453186
vn 0.3257884979248047 0.7443931698799133 0.582872748374939
vn -0.2644055485725403 0.8576231598854065 0.4411034882068634
vn 0.08673489093780518 -0.3054123818874359 -0.9482616782188416
vn 0.35676825046539307 -0.07678590714931488 -0.9310318827629089
vn 0.28689906001091003 0.932748556137085 0.21833215653896332
vn 0.21099841594696045 0.9774603247642517 -0.007139293476939201
vn 0.28594908118247986 0.8876384496688843 -0.3610137701034546
vn 0.2576870322227478 0.2352796494960785 -0.9371450543403625
vn -0.024868391454219818 0.39735177159309387 -0.9173293113708496
vn -0.2994517385959625 -0.4524189233779907 0.8400271534919739
vn 0.21177496016025543 0.32735636830329895 0.9208633303642273
vn -0.11711820214986801 0.6798751354217529 0.7239151000976562
vn -0.3906695246696472 -0.28025704622268677 -0.8768314123153687
vn -0.2658296525478363 -0.5519159436225891 0.7903944849967957
vn -0.19332255423069 -0.6236845850944519 0.7573928236961365
vn -0.437656044960022 -0.8585132360458374 0.26723071932792664
vn -0.5341012477874756 -0.7263745665550232 -0.4325689673423767
vn -0.5582635402679443 -0.8275387287139893 0.05934211611747742
vn -0.47190314531326294 -0.3990011215209961 -0.7861968278884888
vn -0.30304867029190063 -0.42984718084335327 -0.8505251407623291
vn 0.14934328198432922 -0.0715041309595108 -0.9861965775489807
vn 0.3942683935165405 0.3714522123336792 -0.8405805230140686
vn 0.10804809629917145 0.015711354091763496 -0.9940215349197388
vn 0.3406161367893219 0.4305788576602936 -0.8358124494552612
vn -0.09158619493246078 0.32589560747146606 -0.9409590363502502
vn 0.34593164920806885 0.6517837047576904 -0.6749142408370972
vn -0.2547000050544739 -0.06763341277837753 -0.9646520018577576
vn -0.1004125252366066 0.8193663358688354 -0.5644077062606812
vn 0.08807174116373062 0.8041690587997437 -0.587839663028717
vn 0.6289688944816589 0.7572628259658813 0.1759290099143982
vn 0.46751078963279724 0.42126980423927307 0.7771521210670471
vn 0.294027179479599 0.9490082263946533 -0.11371631175279617
vn 0.5600026249885559 0.8256891369819641 -0.06807838380336761
vn 0.272257924079895 -0.1297353059053421 0.9534382224082947
vn 0.251161128282547 -0.20556461811065674 0.9458653330802917
vn 0.1089712455868721 -0.30017608404159546 0.9476389288902283
vn -0.42204320430755615 -0.7615178227424622 0.4919046461582184
vn -0.06212310120463371 -0.40655213594436646 0.911513090133667
vn -0.32014068961143494 -0.5992245078086853 0.7337846159934998
vn 0.3359316289424896 -0.1604853719472885 0.9281133413314819
vn -0.5919072031974792 -0.7507385611534119 0.29332149028778076
vn -0.7439344525337219 -0.5219144821166992 -0.4173330068588257
vn -0.7519952654838562 -0.643629789352417 -0.14228051900863647
vn -0.6403394341468811 -0.31216102838516235 -0.7017983794212341
vn -0.9664952754974365 0.021147459745407104 0.25581175088882446
vn -0.4553295075893402 0.10861457884311676 -0.8836730122566223
vn -0.7883424162864685 0.3825293779373169 -0.48185834288597107
vn -0.7678236365318298 0.2412562370300293 -0.5934998989105225
vn 0.5794082880020142 0.3811643421649933 -0.7204164266586304
vn 0.7287708520889282 0.6820388436317444 -0.060957565903663635
vn -0.5540226101875305 0.5443731546401978 -0.6298545598983765
vn 0.3693840205669403 0.4266853332519531 -0.8255271911621094
vn 0.7179737091064453 0.48664963245391846 0.4976804852485657
vn 0.5298773646354675 0.20986080169677734 0.8216984868049622
vn -0.5936263799667358 -0.5797052383422852 0.5581662058830261
vn -0.6496948599815369 -0.2078438699245453 0.7312301397323608
vn 0.07526665925979614 -0.12875743210315704 0.9888156652450562
vn -0.6008382439613342 0.4055646061897278 0.6888474822044373
vn 0.29580435156822205 0.017342232167720795 0.9550911784172058
vn 0.7334189414978027 0.0974186360836029 0.6727601885795593
vn 0.7770333886146545 0.47062671184539795 0.4180068075656891
vn -0.8351799249649048 0.16352976858615875 0.5251023769378662
vn -0.8927910327911377 0.27633821964263916 -0.3557545840740204
vn -0.9157693386077881 0.4003334045410156 -0.0331621952354908
vn -0.23791316151618958 0.957186758518219 0.16489657759666443
vn -0.2929929196834564 0.9466742873191833 0.1340259313583374
vn -0.7173092365264893 0.6953417658805847 0.04435459151864052
vn -0.4548797607421875 0.8865216374397278 0.08463829010725021
vn 0.7878867387771606 0.47590067982673645 -0.390836238861084
vn 0.8520964980125427 0.5226802825927734 -0.02714342065155506
vn -0.5196654200553894 0.8228540420532227 -0.229911208152771
vn -0.8752692937850952 0.3811040222644806 0.29776403307914734
vn 0.6536193490028381 0.6390905380249023 -0.4053948223590851
vn -0.7952858209609985 0.21818654239177704 0.565610408782959
vn -0.6779513955116272 0.6876784563064575 0.2597695291042328
vn -0.6423619389533997 0.7045018076896667 0.30174222588539124
vn 0.14095650613307953 0.37016719579696655 0.9182088375091553
vn -0.08199857175350189 0.3443498909473419 0.9352536201477051
vn -0.4655178487300873 0.590779721736908 0.6589935421943665
vn -0.5019111037254333 0.8624945878982544 0.06471669673919678
vn -0.7882879972457886 0.5572183728218079 0.2609785497188568
vn -0.6881654858589172 0.7235926985740662 -0.053309712558984756
vn 0.6886513233184814 0.2918529808521271 0.6637627482414246
vn 0.3791362941265106 0.5895043015480042 0.7132604122161865
vn 0.8906217217445374 0.353292316198349 0.2863171398639679
vn 0.8368874788284302 0.34497779607772827 0.42498210072517395
vn -0.4578319489955902 0.8840683102607727 0.09387828409671783
vn -0.4229820966720581 0.9057654142379761 -0.025983262807130814
vn -0.22082313895225525 0.9739359617233276 0.05182613059878349
vn -0.18756459653377533 0.9820815324783325 -0.018314288929104805
vn -0.40248459577560425 0.9130745530128479 0.06558182090520859
vn -0.8011713624000549 0.5824194550514221 0.13752134144306183
vn 0.2973126173019409 0.9541950821876526 -0.03342325612902641
vn 0.8883453607559204 0.42415717244148254 0.175878643989563
vn 0.6980722546577454 0.662267804145813 0.2722066044807434
vn -0.6644092202186584 0.7444484829902649 -0.06600723415613174
vn -0.9293177127838135 0.2736404240131378 0.2479708045721054
vn -0.9836298823356628 0.15664799511432648 0.0890716016292572
vn -0.9787124991416931 0.151858851313591 0.13806037604808807
vn -0.39232125878334045 0.721277117729187 0.5708269476890564
vn -0.8324469923973083 0.5479064583778381 -0.08264633268117905
vn -0.5526764392852783 0.8333343267440796 -0.010131286457180977
vn -0.6834453344345093 0.6870600581169128 0.24667996168136597
vn -0.9088906049728394 0.4134756326675415 -0.054366450756788254
vn -0.8587512969970703 0.46337446570396423 0.2187015414237976
vn -0.12047932296991348 0.9079309701919556 0.4014301598072052
vn -0.6710043549537659 0.74129319190979 -0.015410104766488075
vn -0.7260790467262268 0.6421302556991577 -0.24592263996601105
vn -0.8732859492301941 0.4195105731487274 -0.24775508046150208
vn -0.8399360775947571 0.5423488020896912 0.019103433936834335
vn -0.79544597864151 0.5655841827392578 0.21767009794712067
vn -0.9691201448440552 0.23805354535579681 0.06431736797094345
vn -0.9920807480812073 0.11766477674245834 0.04394267499446869
vn -0.9261678457260132 0.16497838497161865 0.33910953998565674
vn -0.9179208278656006 0.38662347197532654 0.08912748098373413
f 1//1 2//2 3//3
f 2//2 1//1 4//4
f 1//1 5//5 4//4
f 3//3 5//5 1//1
f 6//6 7//7 2//2
f 7//7 3//3 2//2
f 4//4 8//8 2//2
f 8//8 9//9 2//2
f 9//9 10//10 2//2
f 10//10 6//6 2//2
f 3//3 7//7 11//11
f 3//3 11//11 5//5
f 12//12 8//8 4//4
f 5//5 13//13 4//4
f 4//4 13//13 14//14
f 14//14 12//12 4//4
f 5//5 15//15 13//13
f 11//11 15//15 5//5
f 7//7 6//6 16//16
f 6//6 17//17 16//16
f 10//10 17//17 6//6
f 16//16 11//11 7//7
f 8//8 12//12 18//18
f 9//9 8//8 19//19
f 19//19 8//8 18//18
f 10//10 9//9 20//20
f 9//9 21//21 20//20
f 19//19 21//21 9//9
f 22//22 17//17 10//10
f 22//22 10//10 23//23
f 23//23 10//10 20//20
f 16//16 24//24 11//11
f 24//24 25//25 11//11
f 11//11 25//25 15//15
f 26//26 18//18 12//12
f 26//26 12//12 14//14
f 27//27 13//13 15//15
f 13//13 27//27 28//28
f 29//29 13//13 28//28
f 13//13 29//29 14//14
f 30//30 26//26 14//14
f 29//29 30//30 14//14
f 31//31 15//15 25//25
f 27//27 15//15 31//31
f 17//17 32//32 16//16
f 32//32 33//33 16//16
f 34//34 35//35 16//16
f 35//35 36//36 16//16
f 36//36 24//24 16//16
f 34//34 16//16 37//37
f 16//16 33//33 38//38
f 16//16 38//38 37//37
f 22//22 32//32 17//17
f 26//26 39//39 18//18
f 19//19 18//18 40//40
f 18//18 39//39 40//40
f 21//21 19//19 40//40
f 41//41 23//23 20//20
f 21//21 42//42 20//20
f 20//20 42//42 41//41
f 43//43 44//44 21//21
f 42//42 21//21 45//45
f 21//21 44//44 45//45
f 43//43 21//21 40//40
f 46//46 22//22 23//23
f 22//22 46//46 32//32
f 23//23 41//41 46//46
f 47//47 24//24 36//36
f 25//25 24//24 47//47
f 48//48 25//25 47//47
f 25//25 48//48 31//31
f 49//49 39//39 26//26
f 49//49 26//26 30//30
f 31//31 50//50 27//27
f 28//28 27//27 50//50
f 28//28 51//51 29//29
f 50//50 52//52 28//28
f 53//53 28//28 52//52
f 54//54 55//55 28//28
f 54//54 28//28 53//53
f 55//55 56//56 28//28
f 56//56 51//51 28//28
f 29//29 51//51 57//57
f 30//30 29//29 57//57
f 58//58 59//59 30//30
f 59//59 49//49 30//30
f 58//58 30//30 57//57
f 48//48 50//50 31//31
f 46//46 33//33 32//32
f 33//33 46//46 38//38
f 34//34 37//37 35//35
f 35//35 37//37 60//60
f 61//61 47//47 35//35
f 36//36 35//35 47//47
f 35//35 60//60 61//61
f 37//37 38//38 60//60
f 38//38 46//46 60//60
f 39//39 62//62 40//40
f 62//62 39//39 49//49
f 63//63 43//43 40//40
f 63//63 40//40 62//62
f 64//64 41//41 65//65
f 65//65 41//41 42//42
f 64//64 61//61 41//41
f 60//60 46//46 41//41
f 61//61 60//60 41//41
f 65//65 42//42 66//66
f 66//66 42//42 45//45
f 43//43 63//63 44//44
f 67//67 45//45 44//44
f 67//67 44//44 63//63
f 67//67 68//68 45//45
f 66//66 45//45 68//68
f 69//69 47//47 70//70
f 47//47 69//69 48//48
f 70//70 47//47 71//71
f 47//47 61//61 71//71
f 50//50 48//48 69//69
f 59//59 62//62 49//49
f 52//52 50//50 69//69
f 56//56 72//72 51//51
f 51//51 72//72 58//58
f 51//51 58//58 57//57
f 52//52 69//69 73//73
f 52//52 73//73 74//74
f 75//75 52//52 74//74
f 53//53 52//52 75//75
f 76//76 53//53 77//77
f 53//53 75//75 77//77
f 76//76 78//78 53//53
f 79//79 53//53 78//78
f 54//54 53//53 79//79
f 80//80 81//81 54//54
f 54//54 79//79 82//82
f 54//54 82//82 80//80
f 55//55 54//54 81//81
f 81//81 83//83 55//55
f 83//83 56//56 55//55
f 56//56 84//84 72//72
f 85//85 84//84 56//56
f 83//83 85//85 56//56
f 68//68 86//86 58//58
f 87//87 68//68 58//58
f 84//84 58//58 72//72
f 88//88 87//87 58//58
f 88//88 58//58 84//84
f 59//59 58//58 86//86
f 63//63 62//62 59//59
f 67//67 63//63 59//59
f 67//67 59//59 68//68
f 86//86 68//68 59//59
f 71//71 61//61 64//64
f 89//89 90//90 64//64
f 91//91 92//92 64//64
f 64//64 92//92 89//89
f 65//65 91//91 64//64
f 70//70 64//64 90//90
f 71//71 64//64 70//70
f 91//91 65//65 88//88
f 66//66 87//87 65//65
f 87//87 88//88 65//65
f 87//87 66//66 68//68
f 73//73 69//69 93//93
f 90//90 93//93 69//69
f 70//70 90//90 69//69
f 93//93 94//94 73//73
f 74//74 73//73 94//94
f 94//94 95//95 74//74
f 74//74 96//96 75//75
f 74//74 97//97 98//98
f 74//74 99//99 97//97
f 74//74 95//95 99//99
f 74//74 98//98 96//96
f 96//96 100//100 75//75
f 100//100 77//77 75//75
f 101//101 76//76 102//102
f 76//76 77//77 102//102
f 78//78 76//76 103//103
f 76//76 101//101 103//103
f 102//102 77//77 104//104
f 104//104 77//77 100//100
f 105//105 78//78 106//106
f 107//107 106//106 78//78
f 107//107 78//78 103//103
f 105//105 79//79 78//78
f 79//79 105//105 82//82
f 108//108 81//81 80//80
f 108//108 80//80 82//82
f 109//109 92//92 81//81
f 83//83 81//81 92//92
f 108//108 109//109 81//81
f 110//110 82//82 105//105
f 111//111 108//108 82//82
f 110//110 111//111 82//82
f 85//85 83//83 92//92
f 85//85 88//88 84//84
f 91//91 85//85 92//92
f 88//88 85//85 91//91
f 109//109 112//112 89//89
f 109//109 89//89 92//92
f 89//89 112//112 90//90
f 112//112 93//93 90//90
f 93//93 112//112 94//94
f 112//112 113//113 94//94
f 113//113 95//95 94//94
f 113//113 99//99 95//95
f 114//114 96//96 115//115
f 115//115 96//96 98//98
f 114//114 100//100 96//96
f 116//116 117//117 97//97
f 115//115 97//97 117//117
f 97//97 118//118 116//116
f 97//97 115//115 98//98
f 99//99 118//118 97//97
f 119//119 99//99 120//120
f 118//118 99//99 119//119
f 99//99 113//113 120//120
f 100//100 121//121 104//104
f 114//114 121//121 100//100
f 103//103 101//101 122//122
f 122//122 101//101 102//102
f 102//102 123//123 122//122
f 104//104 123//123 102//102
f 122//122 107//107 103//103
f 124//124 123//123 104//104
f 104//104 125//125 124//124
f 104//104 121//121 125//125
f 105//105 126//126 110//110
f 106//106 126//126 105//105
f 127//127 106//106 107//107
f 126//126 106//106 127//127
f 127//127 107//107 122//122
f 128//128 109//109 108//108
f 111//111 128//128 108//108
f 128//128 129//129 109//109
f 109//109 129//129 120//120
f 120//120 112//112 109//109
f 130//130 111//111 110//110
f 131//131 110//110 126//126
f 131//131 130//130 110//110
f 128//128 111//111 132//132
f 130//130 132//132 111//111
f 112//112 120//120 113//113
f 114//114 133//133 121//121
f 115//115 133//133 114//114
f 117//117 134//134 115//115
f 135//135 133//133 115//115
f 134//134 135//135 115//115
f 116//116 118//118 136//136
f 136//136 137//137 116//116
f 137//137 117//117 116//116
f 117//117 137//137 138//138
f 117//117 139//139 134//134
f 140//140 117//117 138//138
f 140//140 141//141 117//117
f 141//141 139//139 117//117
f 142//142 143//143 118//118
f 136//136 118//118 143//143
f 119//119 142//142 118//118
f 119//119 120//120 144//144
f 119//119 144//144 145//145
f 142//142 119//119 145//145
f 144//144 120//120 129//129
f 121//121 133//133 146//146
f 121//121 146//146 125//125
f 147//147 122//122 123//123
f 122//122 148//148 127//127
f 148//148 122//122 147//147
f 123//123 124//124 147//147
f 147//147 124//124 148//148
f 125//125 149//149 124//124
f 124//124 149//149 150//150
f 148//148 124//124 150//150
f 146//146 149//149 125//125
f 150//150 126//126 127//127
f 150//150 151//151 126//126
f 151//151 131//131 126//126
f 127//127 148//148 150//150
f 129//129 128//128 132//132
f 132//132 152//152 129//129
f 153//153 144//144 129//129
f 152//152 154//154 129//129
f 153//153 129//129 154//154
f 132//132 130//130 155//155
f 155//155 130//130 156//156
f 156//156 130//130 131//131
f 157//157 156//156 131//131
f 131//131 158//158 157//157
f 151//151 158//158 131//131
f 132//132 155//155 152//152
f 133//133 135//135 146//146
f 135//135 134//134 139//139
f 135//135 139//139 146//146
f 137//137 136//136 159//159
f 136//136 143//143 159//159
f 137//137 159//159 138//138
f 159//159 140//140 138//138
f 146//146 139//139 141//141
f 160//160 140//140 159//159
f 140//140 160//160 141//141
f 146//146 141//141 161//161
f 141//141 162//162 161//161
f 163//163 164//164 141//141
f 160//160 163//163 141//141
f 164//164 162//162 141//141
f 143//143 142//142 154//154
f 142//142 145//145 154//154
f 165//165 143//143 154//154
f 165//165 159//159 143//143
f 144//144 153//153 145//145
f 153//153 154//154 145//145
f 149//149 146//146 161//161
f 150//150 149//149 161//161
f 166//166 167//167 150//150
f 151//151 150//150 167//167
f 150//150 161//161 166//166
f 168//168 151//151 169//169
f 151//151 168//168 158//158
f 151//151 167//167 169//169
f 170//170 154//154 152//152
f 171//171 170//170 152//152
f 152//152 155//155 171//171
f 170//170 165//165 154//154
f 171//171 155//155 157//157
f 156//156 157//157 155//155
f 171//171 157//157 158//158
f 158//158 172//172 171//171
f 172//172 158//158 168//168
f 159//159 165//165 160//160
f 160//160 165//165 170//170
f 163//163 160//160 170//170
f 162//162 166//166 161//161
f 166//166 162//162 169//169
f 164//164 169//169 162//162
f 163//163 170//170 173//173
f 163//163 173//173 164//164
f 164//164 174//174 169//169
f 174//174 164//164 173//173
f 167//167 166//166 169//169
f 174//174 172//172 168//168
f 174//174 168//168 169//169
f 172//172 170//170 171//171
f 172//172 173//173 170//170
f 173//173 172//172 174//174
