# Generated by Visualization Toolkit
v -0.08486399799585342 0.05829299986362457 0.014170000329613686
v -0.09940099716186523 0.059859998524188995 -0.000037999998312443495
v -0.10403700172901154 0.060791000723838806 0
v -0.08410599827766418 0.05193699896335602 0.015581999905407429
v -0.09902600198984146 0.0510220006108284 -0.00005500000042957254
v -0.09063100069761276 0.05891399830579758 0.04162999987602234
v -0.09046600013971329 0.055146001279354095 0.04428499937057495
v -0.08508499711751938 0.05831599980592728 -0.014481999911367893
v -0.08434899896383286 0.05196399986743927 -0.015925999730825424
v -0.11696100234985352 0.061751000583171844 0.04184500128030777
v -0.12391500174999237 0.061778999865055084 0.014964000321924686
v -0.11067499965429306 0.05963100120425224 0.000050999999075429514
v -0.12414299696683884 0.06180400028824806 -0.014642000198364258
v -0.11760400235652924 0.061820000410079956 -0.04162999987602234
v -0.0912730023264885 0.058984000235795975 -0.04184500128030777
v -0.08272399753332138 0.04292000085115433 0.017808999866247177
v -0.09454800188541412 0.049240998923778534 -0.0000940000027185306
v -0.09264799952507019 0.038940999656915665 0.04693799838423729
v -0.08300100266933441 0.04294800013303757 -0.018201999366283417
v -0.11847499758005142 0.058164000511169434 0.044514000415802
v -0.12233400344848633 0.042139001190662384 0.047182001173496246
v -0.0911479964852333 0.05521899834275246 -0.044514000415802
v -0.09337099641561508 0.03901899978518486 -0.047182001173496246
v -0.12729600071907043 0.05630199983716011 0.016713999211788177
v -0.11514399945735931 0.052181001752614975 0.00007500000356230885
v -0.12755100429058075 0.05632900074124336 -0.016352999955415726
v -0.11915799975395203 0.05823700129985809 -0.04428499937057495
v -0.08274800330400467 0.03744100034236908 0.018535999581217766
v -0.09087800234556198 0.0524509996175766 -0.00011800000356743112
v -0.09552200138568878 0.024684999138116837 0.046379998326301575
v -0.08303599804639816 0.03747199848294258 -0.0189449992030859
v -0.12485700100660324 0.027845999225974083 0.046620000153779984
v -0.09623900055885315 0.024762000888586044 -0.046620000153779984
v -0.12927299737930298 0.04490499943494797 0.016581999137997627
v -0.13597899675369263 0.03423599898815155 0.020083000883460045
v -0.12306000292301178 0.04221799969673157 -0.04693799838423729
v -0.125573992729187 0.027922000735998154 -0.046379998326301575
v -0.11325299739837646 0.04519899934530258 0.00004999999873689376
v -0.12952400743961334 0.04493299871683121 -0.016225000843405724
v -0.08307299762964249 0.03163599967956543 0.019092999398708344
v -0.08510199934244156 0.04750100150704384 -0.00017100000695791095
v -0.09837699681520462 0.01763799972832203 0.041770000010728836
v -0.08337000012397766 0.031668998301029205 -0.019514000043272972
v -0.12479300051927567 0.020483000203967094 0.041985999792814255
v -0.09901999682188034 0.01770699955523014 -0.041985999792814255
v -0.13489499688148499 0.026619000360369682 0.018201999366283417
v -0.12544000148773193 0.02055400051176548 -0.041770000010728836
v -0.12678299844264984 0.038437001407146454 0.00014800000644754618
v -0.12676699459552765 0.03079099953174591 0.00013699999544769526
v -0.1362839937210083 0.03426799923181534 -0.019649000838398933
v -0.13516999781131744 0.02665100060403347 -0.017808999866247177
v -0.0798880010843277 0.02523599937558174 0.022260000929236412
v -0.06926199793815613 0.03714200109243393 -0.00031400000443682075
v -0.10118900239467621 0.014479000121355057 0.035064999014139175
v -0.08023399859666824 0.025273999199271202 -0.02275099977850914
v -0.12336699664592743 0.01686899922788143 0.035245999693870544
v -0.10172999650239944 0.014538999646902084 -0.035245999693870544
v -0.13625399768352509 0.0194109994918108 0.018201999366283417
v -0.12390799820423126 0.01692800037562847 -0.035064999014139175
v -0.13571099936962128 0.0205060001462698 0.00019200000679120421
v -0.1365319937467575 0.019440999254584312 -0.017808999866247177
v -0.07885800302028656 0.020005999132990837 0.023715000599622726
v -0.06387399882078171 0.03555300086736679 -0.0003589999978430569
v -0.10312400013208389 0.005458000116050243 0.034366000443696976
v -0.0792279988527298 0.020045999437570572 -0.02423899993300438
v -0.12485799938440323 0.007801000028848648 0.0345430001616478
v -0.10365500301122665 0.0055160000920295715 -0.03454200178384781
v -0.1406629979610443 0.012531000189483166 0.020521000027656555
v -0.12538999319076538 0.007857000455260277 -0.034366000443696976
v -0.14501699805259705 0.016029000282287598 0.0002610000083222985
v -0.1409740000963211 0.01256600022315979 -0.02007799968123436
v -0.08118399977684021 0.014921000227332115 0.022731000557541847
v -0.06459300220012665 0.031738001853227615 -0.0003589999978430569
v -0.10541699826717377 -0.0010720000136643648 0.03115300089120865
v -0.08153600245714188 0.014957999810576439 -0.02323400042951107
v -0.12512199580669403 0.0010499999625608325 0.031314000487327576
v -0.10589899867773056 -0.0010209999745711684 -0.031314000487327576
v -0.14090800285339355 0.006572999991476536 0.019864000380039215
v -0.12560200691223145 0.001101000001654029 -0.03115300089120865
v -0.14712199568748474 0.011064999736845493 0.0002699999895412475
v -0.14120900630950928 0.006604999769479036 -0.019435999915003777
v -0.0894550010561943 0.010402999818325043 0.0173799991607666
v -0.0777129977941513 0.026372000575065613 -0.00026199998683296144
v -0.10806600004434586 -0.004825000185519457 0.025286000221967697
v -0.08972600102424622 0.010432000271975994 -0.017765000462532043
v -0.12405800074338913 -0.0031030001118779182 0.02541700005531311
v -0.10845399647951126 -0.004782000090926886 -0.02541700005531311
v -0.13801899552345276 0.0022950000129640102 0.017108000814914703
v -0.1244489997625351 -0.0030610000248998404 -0.025286000221967697
v -0.14483900368213654 0.0069229998625814915 0.0002460000105202198
v -0.1382790058851242 0.002322999993339181 -0.01673799939453602
v -0.09534099698066711 0.002167999977245927 0.014255000278353691
v -0.09208299964666367 0.018257999792695045 -0.00015999999595806003
v -0.10888200253248215 -0.01281300000846386 0.02738099917769432
v -0.09556200355291367 0.0021929999347776175 -0.014569999650120735
v -0.12619900703430176 -0.0109479995444417 0.027521999552845955
v -0.10930400341749191 -0.012768000364303589 -0.027521999552845955
v -0.14239199459552765 -0.00595800019800663 0.019207000732421875
v -0.1266220062971115 -0.010901999659836292 -0.02738099917769432
v -0.15129099786281586 -0.0017549999756738544 0.0002840000088326633
v -0.14268499612808228 -0.005925000179558992 -0.018794000148773193
v -0.10182700306177139 -0.005785999819636345 0.010658999904990196
v -0.10026899725198746 0.011207999661564827 -0.0001049999991664663
v -0.11229000240564346 -0.02181899920105934 0.02221200056374073
v -0.10199200361967087 -0.005768999923020601 -0.010893999598920345
v -0.12633900344371796 -0.02030700072646141 0.02232700027525425
v -0.11263299733400345 -0.021782999858260155 -0.02232700027525425
v -0.14145299792289734 -0.013414000160992146 0.017457999289035797
v -0.12668199837207794 -0.020269999280571938 -0.022211000323295593
v -0.15185000002384186 -0.007029999978840351 0.0002809999859891832
v -0.1417189985513687 -0.013385999947786331 -0.01708099991083145
v -0.10841000080108643 -0.01235899981111288 0.006806999910622835
v -0.11143500357866287 0.006930000148713589 -0.000022000000171829015
v -0.11483000218868256 -0.030633000656962395 0.019557999446988106
v -0.10851699858903885 -0.012347999960184097 -0.006957000121474266
v -0.12720100581645966 -0.029299000278115273 0.019658999517560005
v -0.11513300240039825 -0.03060000017285347 -0.019658999517560005
v -0.13995300233364105 -0.020066000521183014 0.015401000156998634
v -0.12750199437141418 -0.029267000034451485 -0.019557999446988106
v -0.14856599271297455 -0.011278999969363213 0.0002479999966453761
v -0.14018599689006805 -0.0200399998575449 -0.01506900042295456
v -0.1152459979057312 -0.02027600072324276 0.0029539999086409807
v -0.12115199863910675 -0.005146999843418598 0.000037999998312443495
v -0.11737000197172165 -0.034540001302957535 0.014109999872744083
v -0.11529199779033661 -0.020270999521017075 -0.0030189999379217625
v -0.12629300355911255 -0.033580001443624496 0.014182000420987606
v -0.11758600175380707 -0.03451799973845482 -0.014182000420987606
v -0.139055997133255 -0.025570999830961227 0.013957000337541103
v -0.12651200592517853 -0.03355500102043152 -0.014109999872744083
v -0.15065400302410126 -0.01768600009381771 0.00025400001322850585
v -0.1392669975757599 -0.025546999648213387 -0.013655999675393105
v -0.12175700068473816 -0.02584799937903881 -0.0009850000496953726
v -0.1294800043106079 -0.014488999731838703 0.00009000000136438757
v -0.11992499977350235 -0.03657300025224686 0.007542999926954508
v -0.12174200266599655 -0.025848999619483948 0.0010059999767690897
v -0.12469500303268433 -0.036058999598026276 0.007583000231534243
v -0.12004099786281586 -0.036559998989105225 -0.007583000231534243
v -0.13909600675106049 -0.03169399872422218 0.013125999830663204
v -0.12481100112199783 -0.036045998334884644 -0.007542999926954508
v -0.15649700164794922 -0.027009999379515648 0.00028700000257231295
v -0.13929599523544312 -0.03167299926280975 -0.012842000462114811
v -0.12493299692869186 -0.03826799988746643 -0.0015839999541640282
v -0.1353520005941391 -0.03245899826288223 0.00011000000085914508
v -0.12106800079345703 -0.04337200149893761 0.007961999624967575
v -0.12490899860858917 -0.03827200084924698 0.0016189999878406525
v -0.12610599398612976 -0.0428289994597435 0.008004000410437584
v -0.12119200080633163 -0.043359000235795975 -0.008004000410437584
v -0.13740399479866028 -0.03764500096440315 0.011025999672710896
v -0.126227006316185 -0.04281499981880188 -0.007961999624967575
v -0.15005800127983093 -0.03231700137257576 0.00022699999681208283
v -0.13757100701332092 -0.03762799873948097 -0.01078800018876791
v -0.1213729977607727 -0.04110400006175041 0.0013699999544769526
v -0.13277600705623627 -0.037351999431848526 0.00008199999865610152
v -0.11908599734306335 -0.043873000890016556 0.01425000000745058
v -0.12139300256967545 -0.04110100120306015 -0.00139999995008111
v -0.1280979961156845 -0.04290099814534187 0.014322999864816666
v -0.11930599808692932 -0.04385000094771385 -0.014322999864816666
v -0.13937699794769287 -0.04219299927353859 0.011857000179588795
v -0.12831799685955048 -0.042879000306129456 -0.01425000000745058
v -0.148049995303154 -0.04176200181245804 0.00019799999427050352
v -0.13955700397491455 -0.04217299818992615 -0.011602000333368778
v -0.1220029965043068 -0.04694899916648865 0.001711999997496605
v -0.1330530047416687 -0.04655100032687187 0.00007000000186963007
v -0.11965599656105042 -0.04640800133347511 0.013969999738037586
v -0.12202899903059006 -0.0469449982047081 -0.0017500000540167093
v -0.12849199771881104 -0.04545599967241287 0.014042000286281109
v -0.11987199634313583 -0.0463859997689724 -0.014042000286281109
v -0.13951200246810913 -0.048813000321388245 0.011025999672710896
v -0.12870700657367706 -0.04543500021100044 -0.013969999738037586
v -0.14759300649166107 -0.05248299986124039 0.00017800000205170363
v -0.13967999815940857 -0.04879499971866608 -0.01078800018876791
v -0.12351799756288528 -0.050895001739263535 0.001155999954789877
v -0.12991200387477875 -0.05309100076556206 0.000035000000934815034
v -0.12197499722242355 -0.048177000135183334 0.007961999624967575
v -0.12353699654340744 -0.050891999155282974 -0.0011820000363513827
v -0.1270119994878769 -0.047634001821279526 0.008004000410437584
v -0.12209799885749817 -0.048163000494241714 -0.008004000410437584
v -0.1334950029850006 -0.05111800134181976 0.006213000044226646
v -0.12713399529457092 -0.04762199893593788 -0.007961999624967575
v -0.13825500011444092 -0.054788000881671906 0.00009999999747378752
v -0.1335889995098114 -0.05110799893736839 -0.0060789999552071095
v -0.12391000241041183 -0.05611699819564819 0.0015839999541640282
v -0.12704800069332123 -0.058014001697301865 0.000003999999989900971
v -0.12379399687051773 -0.05389399826526642 0.005727000068873167
v -0.12393499910831451 -0.05611399933695793 -0.0016189999878406525
v -0.12741699814796448 -0.05350400134921074 0.005756999831646681
v -0.1238820031285286 -0.05388399958610535 -0.005756999831646681
v -0.132750004529953 -0.058049000799655914 0.004681999795138836
v -0.12750400602817535 -0.05349399894475937 -0.005727000068873167
v -0.13697999715805054 -0.06271199882030487 0.00007699999696342275
v -0.1328199952840805 -0.05804099887609482 -0.004579999949783087
v -0.12804999947547913 -0.0664139986038208 0
vn 0.7410619258880615 0.5717551708221436 -0.35202744603157043
vn 0.6674519181251526 0.7446385025978088 -0.004623297601938248
vn 0.062422942370176315 0.9980497360229492 0.0003599972988013178
vn 0.943964421749115 0.26022133231163025 -0.2030174732208252
vn 0.9071168303489685 0.42082569003105164 -0.006699156481772661
vn 0.5786887407302856 0.7516273260116577 0.3165052533149719
vn 0.6361592411994934 0.3370392322540283 0.6940503120422363
vn 0.7466966509819031 0.5708262920379639 0.34146976470947266
vn 0.9470356702804565 0.25971144437789917 0.18887417018413544
vn -0.2739577889442444 0.8641666173934937 0.42209380865097046
vn -0.5616092085838318 0.7619717717170715 -0.32248109579086304
vn -0.5224994421005249 0.8526254296302795 0.004910897929221392
vn -0.5566214323043823 0.7612624764442444 0.3326437771320343
vn -0.28057122230529785 0.8649449348449707 -0.4161130487918854
vn 0.5735095739364624 0.7524315714836121 -0.32393452525138855
vn 0.9802739024162292 0.17083078622817993 0.09939713031053543
vn 0.39799463748931885 0.9173851013183594 -0.002175236353650689
vn 0.587979257106781 0.008319049142301083 0.8088333010673523
vn 0.9786162376403809 0.1711025834083557 -0.11416731774806976
vn -0.5439649224281311 0.386209636926651 0.7449458837509155
vn -0.5430620312690735 0.2214924395084381 0.8099534511566162
vn 0.6251077055931091 0.3390609323978424 -0.7030490636825562
vn 0.5752040147781372 0.010725314728915691 -0.8179396390914917
vn -0.9221551418304443 0.37054648995399475 -0.11101843416690826
vn -0.9781688451766968 0.2076617032289505 0.00789113249629736
vn -0.920408308506012 0.3701029419898987 0.12598586082458496
vn -0.5555312037467957 0.38811615109443665 -0.7353576421737671
vn 0.9862855076789856 0.07785698771476746 0.14553114771842957
vn 0.6068265438079834 0.7948246598243713 -0.003911427687853575
vn 0.5420864224433899 -0.27369967103004456 0.7945004105567932
vn 0.9839134216308594 0.0782441720366478 -0.16059984266757965
vn -0.466577410697937 -0.2872842252254486 0.836524486541748
vn 0.5295884609222412 -0.27147871255874634 -0.8036388754844666
vn -0.9063183665275574 0.36967775225639343 -0.2047562599182129
vn -0.9934499263763428 0.11077135801315308 0.028051700443029404
vn -0.5556669235229492 0.22378931939601898 -0.8007200956344604
vn -0.47983962297439575 -0.2848879396915436 -0.8298149108886719
vn -0.8681790828704834 0.496198832988739 0.007191135548055172
vn -0.9030948281288147 0.3691278100013733 0.21946386992931366
vn 0.8519193530082703 0.2542451322078705 0.45781317353248596
vn 0.8357588648796082 0.5490648150444031 -0.005900890566408634
vn 0.3609224557876587 -0.5988902449607849 0.7148884534835815
vn 0.8446104526519775 0.25556355714797974 -0.47044697403907776
vn -0.5567744970321655 -0.6570767760276794 0.5081852674484253
vn 0.3495563566684723 -0.5973535776138306 -0.7217888236045837
vn -0.9950644969940186 0.02336711809039116 0.09644016623497009
vn -0.5648980736732483 -0.6558763980865479 -0.5007157921791077
vn -0.8646860718727112 0.5022620558738708 0.007138298358768225
vn -0.9721604585647583 0.23418934643268585 0.007703550159931183
vn -0.9937665462493896 0.11078307777643204 -0.012450424022972584
vn -0.9964386820793152 0.02367836982011795 -0.08092813193798065
vn 0.5963876843452454 0.3606317341327667 0.7171237468719482
vn 0.5214200019836426 0.853294312953949 -0.0031688774470239878
vn 0.25085118412971497 -0.5356654524803162 0.8063102960586548
vn 0.5848966836929321 0.3626258373260498 -0.7255330681800842
vn -0.5102900266647339 -0.29984191060066223 0.8060389757156372
vn 0.23801535367965698 -0.53382807970047 -0.8114038705825806
vn -0.7885036468505859 0.45493510365486145 0.4138793349266052
vn -0.5230477452278137 -0.2975219488143921 -0.7986875772476196
vn -0.7799524664878845 0.6258044838905334 0.006539235822856426
vn -0.7946479916572571 0.4560690224170685 -0.4006689190864563
vn 0.7036938071250916 -0.09984941780567169 0.7034522891044617
vn 0.8839033246040344 0.4676262140274048 -0.006375395227223635
vn 0.27813994884490967 -0.29660117626190186 0.9136005640029907
vn 0.6925806403160095 -0.09768002480268478 -0.7146961688995361
vn -0.4247070252895355 -0.11123059689998627 0.8984718322753906
vn 0.2636321783065796 -0.29388922452926636 -0.9187639355659485
vn -0.8122368454933167 0.31365954875946045 0.49182215332984924
vn -0.4388679563999176 -0.10862801223993301 -0.8919612765312195
vn -0.7476744055747986 0.6640353202819824 0.006332524120807648
vn -0.8196706771850586 0.31494924426078796 -0.47848400473594666
vn 0.6596684455871582 -0.731254518032074 0.17350608110427856
vn 0.8165347576141357 -0.5772550106048584 -0.006911152508109808
vn 0.31087833642959595 -0.7360437512397766 0.6013270616531372
vn 0.6570318937301636 -0.730735182762146 -0.18529760837554932
vn -0.3462909758090973 -0.6795865893363953 0.6467185020446777
vn 0.3013530671596527 -0.7346791625022888 -0.6078099012374878
vn -0.8033758401870728 -0.3850812017917633 0.45420214533805847
vn -0.3567190170288086 -0.6780630946159363 -0.6426366567611694
vn -0.9993906617164612 -0.03405241295695305 0.007665758021175861
vn -0.8105508089065552 -0.3837988078594208 -0.442386656999588
vn 0.6595907807350159 -0.7444584965705872 -0.10354514420032501
vn 0.502110481262207 -0.8647910356521606 -0.004660588689148426
vn 0.3877737820148468 -0.5578098893165588 0.7338117957115173
vn 0.6610604524612427 -0.7446653246879578 0.09204757958650589
vn -0.25856509804725647 -0.06726819276809692 0.963648796081543
vn 0.3762364089488983 -0.5562239289283752 -0.7409865856170654
vn -0.7930789589881897 -0.1267208456993103 0.5957916378974915
vn -0.2739273011684418 -0.06458759307861328 -0.9595792889595032
vn -0.9735504984855652 -0.22835442423820496 0.007336728274822235
vn -0.8023892045021057 -0.125089630484581 -0.5835443139076233
vn 0.8467113375663757 -0.5305533409118652 -0.03991188481450081
vn 0.6937375068664551 -0.7202021479606628 -0.006100585218518972
vn 0.4987168610095978 -0.20314814150333405 0.8426222801208496
vn 0.8472288250923157 -0.5306028127670288 0.025767220184206963
vn -0.24717827141284943 -0.1958867907524109 0.9489632248878479
vn 0.48545902967453003 -0.20083245635032654 -0.8508794903755188
vn -0.6797701120376587 0.15797516703605652 0.7162097692489624
vn -0.2623230218887329 -0.1932191550731659 -0.9454379677772522
vn -0.900414228439331 0.43497008085250854 0.007437269669026136
vn -0.6908646821975708 0.16004011034965515 -0.7050483822822571
vn 0.7513843774795532 -0.5331352949142456 -0.3888292908668518
vn 0.6969821453094482 -0.7170612812042236 -0.006248617544770241
vn 0.5450369119644165 -0.577517569065094 0.6077896952629089
vn 0.7572078108787537 -0.5340699553489685 0.3760395646095276
vn -0.2422872930765152 -0.3508516252040863 0.9045440554618835
vn 0.5353983640670776 -0.5761334300041199 -0.617591142654419
vn -0.6921596527099609 -0.38102594017982483 0.6129716634750366
vn -0.25680750608444214 -0.34825602173805237 -0.901536226272583
vn -0.9627190232276917 -0.27040642499923706 0.007248991169035435
vn -0.70188969373703 -0.37932899594306946 -0.6028768420219421
vn 0.740138053894043 -0.3526327610015869 -0.5725782513618469
vn 0.7651959657669067 -0.6437608599662781 -0.00686612306162715
vn 0.622724175453186 -0.6044315099716187 0.49686744809150696
vn 0.7488169074058533 -0.3542003333568573 0.5601921677589417
vn -0.2840825915336609 -0.5569915771484375 0.7804213762283325
vn 0.6148812770843506 -0.6031985282897949 -0.5080085396766663
vn -0.6795854568481445 -0.21015183627605438 0.7028511762619019
vn -0.2966689467430115 -0.5549267530441284 -0.7772025465965271
vn -0.9667906165122986 -0.25546547770500183 0.0072950273752212524
vn -0.6906356811523438 -0.20809932053089142 -0.6926161646842957
vn 0.6444127559661865 -0.21849074959754944 -0.73279869556427
vn 0.9279158711433411 -0.37270504236221313 -0.00794085580855608
vn 0.5576094388961792 -0.8213275074958801 0.12038613110780716
vn 0.6557449102401733 -0.22047550976276398 0.7220728993415833
vn -0.18329660594463348 -0.8115955591201782 0.5547206401824951
vn 0.5553968548774719 -0.8212688565254211 -0.1305830329656601
vn -0.5752490758895874 -0.3279941976070404 0.7493385672569275
vn -0.1923668384552002 -0.810398280620575 -0.5533983111381531
vn -0.9968889951705933 0.07842645049095154 0.007850497961044312
vn -0.587191641330719 -0.3258030116558075 -0.7409847974777222
vn 0.530953586101532 -0.08110271394252777 -0.8435109257698059
vn 0.897682785987854 0.44059404730796814 -0.006508221849799156
vn 0.7306923866271973 -0.6709124445915222 0.12635301053524017
vn 0.5440188646316528 -0.08354778587818146 0.8349031805992126
vn 0.06252628564834595 -0.4028428792953491 0.9131309390068054
vn 0.7283276319503784 -0.6710190773010254 -0.1388244330883026
vn -0.43328458070755005 -0.3725408613681793 0.8206568956375122
vn 0.04780064895749092 -0.4003196358680725 -0.9151280522346497
vn -0.9499489665031433 -0.31232306361198425 0.007162528578191996
vn -0.4463336765766144 -0.3702276945114136 -0.8146887421607971
vn 0.46714290976524353 -0.10662947595119476 -0.8777285814285278
vn -0.9998433589935303 -0.015786778181791306 0.008000314235687256
vn 0.23503674566745758 0.7361615896224976 0.6346840262413025
vn 0.4807850122451782 -0.10919332504272461 0.8700129985809326
vn 0.24706919491291046 0.7746767401695251 0.5820934772491455
vn 0.22449447214603424 0.7377539873123169 -0.636648416519165
vn -0.25312021374702454 0.14889077842235565 0.9559087753295898
vn 0.23752713203430176 0.7759289741516113 -0.5843930244445801
vn -0.8442803025245667 -0.5358679294586182 0.006019332446157932
vn -0.2681160867214203 0.15171504020690918 -0.9513654708862305
vn 0.33532199263572693 0.2216297686100006 -0.9156633615493774
vn -0.30226820707321167 -0.9532222747802734 0.0011086688609793782
vn 0.5147524476051331 0.7862601280212402 0.3417966663837433
vn 0.3501253128051758 0.21920379996299744 0.9106931090354919
vn 0.030417539179325104 0.40898895263671875 0.9120323061943054
vn 0.5092738270759583 0.7869380116462708 -0.34838035702705383
vn -0.47035616636276245 0.09184065461158752 0.8776846528053284
vn 0.015838181599974632 0.41143476963043213 -0.9113015532493591
vn -0.9982178807258606 0.059151291847229004 0.007889478467404842
vn -0.4841347932815552 0.09444981068372726 -0.8698808550834656
vn 0.7398844957351685 -0.21403825283050537 -0.637776255607605
vn 0.9999446868896484 -0.006811921484768391 -0.008014226332306862
vn 0.5045264959335327 -0.6047350764274597 0.6162374019622803
vn 0.7495880722999573 -0.2160521298646927 0.6256511211395264
vn -0.03217241168022156 -0.6525486707687378 0.7570635080337524
vn 0.4947775602340698 -0.6034421920776367 -0.6253422498703003
vn -0.37900590896606445 -0.5631604194641113 0.734305739402771
vn -0.04423999413847923 -0.6509156823158264 -0.7578597664833069
vn -0.7475425004959106 -0.6641935706138611 0.005220510996878147
vn -0.3907611072063446 -0.5613828897476196 -0.7294895648956299
vn 0.8218265175819397 -0.17633512616157532 -0.5417630672454834
vn 0.9570411443710327 0.2898636758327484 -0.007163467817008495
vn 0.5536553859710693 -0.7826973795890808 0.28434187173843384
vn 0.8300373554229736 -0.17789122462272644 0.5285760164260864
vn 0.026585491374135017 -0.6311720013618469 0.7751871943473816
vn 0.549017071723938 -0.7823154926300049 -0.2942153513431549
vn -0.051529813557863235 -0.6418226361274719 0.7651198506355286
vn 0.014172019436955452 -0.6293191909790039 -0.7770176529884338
vn -0.598406195640564 -0.8011834025382996 0.003890885040163994
vn -0.06374101340770721 -0.6400794982910156 -0.7656600475311279
vn 0.7457025647163391 -0.1055554524064064 -0.6578645706176758
vn 0.9852011799812317 0.1712418645620346 -0.007402689196169376
vn 0.6296579241752625 -0.42018067836761475 0.6534363627433777
vn 0.7557879686355591 -0.1074540913105011 0.6459396481513977
vn 0.004071276169270277 -0.3499647378921509 0.9367539882659912
vn 0.6193658113479614 -0.41847363114356995 -0.6642783880233765
vn -0.31556496024131775 -0.3340120017528534 0.8881749510765076
vn -0.01100181695073843 -0.3473188579082489 -0.9376826286315918
vn -0.8032964468002319 -0.5955541133880615 0.005483636632561684
vn -0.3296773135662079 -0.3314521908760071 -0.8839979767799377
vn 0.5683813691139221 -0.8227476477622986 -0.005383875221014023
f 1//1 2//2 3//3
f 2//2 1//1 5//5
f 5//5 1//1 4//4
f 6//6 1//1 3//3
f 1//1 6//6 4//4
f 7//7 4//4 6//6
f 2//2 8//8 3//3
f 2//2 5//5 8//8
f 9//9 8//8 5//5
f 10//10 6//6 3//3
f 11//11 10//10 3//3
f 12//12 11//11 3//3
f 13//13 12//12 3//3
f 14//14 13//13 3//3
f 15//15 14//14 3//3
f 8//8 15//15 3//3
f 16//16 17//17 4//4
f 5//5 4//4 17//17
f 18//18 16//16 7//7
f 4//4 7//7 16//16
f 19//19 9//9 17//17
f 5//5 17//17 9//9
f 20//20 7//7 10//10
f 6//6 10//10 7//7
f 21//21 18//18 20//20
f 7//7 20//20 18//18
f 8//8 9//9 15//15
f 22//22 15//15 9//9
f 23//23 22//22 19//19
f 9//9 19//19 22//22
f 11//11 24//24 10//10
f 20//20 10//10 24//24
f 12//12 25//25 11//11
f 24//24 11//11 25//25
f 12//12 13//13 25//25
f 26//26 25//25 13//13
f 13//13 14//14 26//26
f 27//27 26//26 14//14
f 27//27 14//14 22//22
f 15//15 22//22 14//14
f 17//17 16//16 29//29
f 28//28 29//29 16//16
f 30//30 28//28 18//18
f 16//16 18//18 28//28
f 17//17 29//29 19//19
f 31//31 19//19 29//29
f 18//18 21//21 30//30
f 32//32 30//30 21//21
f 33//33 23//23 31//31
f 19//19 31//31 23//23
f 21//21 20//20 34//34
f 24//24 34//34 20//20
f 32//32 21//21 35//35
f 34//34 35//35 21//21
f 36//36 27//27 23//23
f 22//22 23//23 27//27
f 23//23 33//33 36//36
f 37//37 36//36 33//33
f 24//24 25//25 34//34
f 38//38 34//34 25//25
f 26//26 39//39 25//25
f 39//39 38//38 25//25
f 36//36 39//39 27//27
f 26//26 27//27 39//39
f 29//29 28//28 41//41
f 40//40 41//41 28//28
f 42//42 40//40 30//30
f 28//28 30//30 40//40
f 29//29 41//41 31//31
f 43//43 31//31 41//41
f 30//30 32//32 42//42
f 44//44 42//42 32//32
f 45//45 33//33 43//43
f 33//33 31//31 43//43
f 32//32 35//35 44//44
f 46//46 44//44 35//35
f 33//33 45//45 37//37
f 47//47 37//37 45//45
f 38//38 48//48 34//34
f 35//35 34//34 48//48
f 46//46 35//35 49//49
f 35//35 48//48 49//49
f 37//37 50//50 36//36
f 36//36 50//50 39//39
f 37//37 47//47 50//50
f 51//51 50//50 47//47
f 38//38 39//39 48//48
f 50//50 48//48 39//39
f 41//41 40//40 53//53
f 52//52 53//53 40//40
f 54//54 52//52 42//42
f 40//40 42//42 52//52
f 41//41 53//53 43//43
f 53//53 55//55 43//43
f 42//42 44//44 54//54
f 56//56 54//54 44//44
f 57//57 45//45 55//55
f 43//43 55//55 45//45
f 58//58 56//56 46//46
f 46//46 56//56 44//44
f 45//45 57//57 47//47
f 47//47 57//57 59//59
f 49//49 60//60 46//46
f 58//58 46//46 60//60
f 61//61 51//51 59//59
f 47//47 59//59 51//51
f 51//51 49//49 50//50
f 50//50 49//49 48//48
f 49//49 51//51 60//60
f 61//61 60//60 51//51
f 53//53 52//52 63//63
f 62//62 63//63 52//52
f 64//64 62//62 54//54
f 52//52 54//54 62//62
f 53//53 63//63 55//55
f 65//65 55//55 63//63
f 54//54 56//56 64//64
f 66//66 64//64 56//56
f 67//67 57//57 65//65
f 55//55 65//65 57//57
f 56//56 58//58 66//66
f 68//68 66//66 58//58
f 57//57 67//67 59//59
f 69//69 59//59 67//67
f 60//60 70//70 58//58
f 68//68 58//58 70//70
f 59//59 69//69 61//61
f 71//71 61//61 69//69
f 60//60 61//61 70//70
f 71//71 70//70 61//61
f 72//72 73//73 62//62
f 63//63 62//62 73//73
f 74//74 72//72 64//64
f 62//62 64//64 72//72
f 75//75 65//65 73//73
f 63//63 73//73 65//65
f 64//64 66//66 74//74
f 76//76 74//74 66//66
f 77//77 67//67 75//75
f 65//65 75//75 67//67
f 76//76 66//66 78//78
f 68//68 78//78 66//66
f 67//67 77//77 69//69
f 79//79 69//69 77//77
f 78//78 68//68 80//80
f 70//70 80//80 68//68
f 79//79 81//81 69//69
f 81//81 71//71 69//69
f 81//81 80//80 71//71
f 71//71 80//80 70//70
f 82//82 83//83 72//72
f 73//73 72//72 83//83
f 72//72 74//74 82//82
f 84//84 82//82 74//74
f 85//85 75//75 83//83
f 73//73 83//83 75//75
f 74//74 76//76 84//84
f 86//86 84//84 76//76
f 75//75 85//85 77//77
f 87//87 77//77 85//85
f 86//86 76//76 88//88
f 88//88 76//76 78//78
f 77//77 87//87 79//79
f 89//89 79//79 87//87
f 88//88 78//78 90//90
f 80//80 90//90 78//78
f 89//89 91//91 79//79
f 81//81 79//79 91//91
f 91//91 90//90 81//81
f 80//80 81//81 90//90
f 83//83 82//82 93//93
f 92//92 93//93 82//82
f 82//82 84//84 92//92
f 94//94 92//92 84//84
f 83//83 93//93 85//85
f 95//95 85//85 93//93
f 96//96 94//94 86//86
f 84//84 86//86 94//94
f 85//85 95//95 87//87
f 97//97 87//87 95//95
f 88//88 98//98 86//86
f 96//96 86//86 98//98
f 99//99 89//89 97//97
f 87//87 97//97 89//89
f 90//90 100//100 88//88
f 98//98 88//88 100//100
f 91//91 89//89 101//101
f 101//101 89//89 99//99
f 90//90 91//91 100//100
f 100//100 91//91 101//101
f 102//102 103//103 92//92
f 93//93 92//92 103//103
f 104//104 102//102 94//94
f 92//92 94//94 102//102
f 105//105 95//95 103//103
f 93//93 103//103 95//95
f 94//94 96//96 104//104
f 104//104 96//96 106//106
f 107//107 97//97 105//105
f 95//95 105//105 97//97
f 106//106 96//96 108//108
f 98//98 108//108 96//96
f 97//97 107//107 99//99
f 109//109 99//99 107//107
f 108//108 98//98 110//110
f 100//100 110//110 98//98
f 109//109 111//111 99//99
f 101//101 99//99 111//111
f 111//111 110//110 101//101
f 100//100 101//101 110//110
f 103//103 102//102 113//113
f 112//112 113//113 102//102
f 102//102 104//104 112//112
f 114//114 112//112 104//104
f 103//103 113//113 105//105
f 115//115 105//105 113//113
f 104//104 106//106 114//114
f 114//114 106//106 116//116
f 105//105 115//115 107//107
f 117//117 107//107 115//115
f 116//116 106//106 118//118
f 108//108 118//118 106//106
f 107//107 117//117 109//109
f 119//119 109//109 117//117
f 118//118 108//108 120//120
f 110//110 120//120 108//108
f 119//119 121//121 109//109
f 111//111 109//109 121//121
f 121//121 120//120 111//111
f 111//111 120//120 110//110
f 113//113 112//112 123//123
f 122//122 123//123 112//112
f 112//112 114//114 122//122
f 124//124 122//122 114//114
f 113//113 123//123 115//115
f 125//125 115//115 123//123
f 114//114 116//116 124//124
f 126//126 124//124 116//116
f 115//115 125//125 117//117
f 127//127 117//117 125//125
f 126//126 116//116 128//128
f 118//118 128//128 116//116
f 117//117 127//127 119//119
f 129//129 119//119 127//127
f 120//120 130//130 118//118
f 128//128 118//118 130//130
f 129//129 131//131 119//119
f 121//121 119//119 131//131
f 120//120 121//121 130//130
f 131//131 130//130 121//121
f 123//123 122//122 133//133
f 132//132 133//133 122//122
f 122//122 124//124 132//132
f 134//134 132//132 124//124
f 123//123 133//133 125//125
f 135//135 125//125 133//133
f 124//124 126//126 134//134
f 136//136 134//134 126//126
f 125//125 135//135 127//127
f 135//135 137//137 127//127
f 136//136 126//126 138//138
f 128//128 138//138 126//126
f 127//127 137//137 129//129
f 139//139 129//129 137//137
f 140//140 138//138 130//130
f 130//130 138//138 128//128
f 139//139 141//141 129//129
f 131//131 129//129 141//141
f 140//140 130//130 141//141
f 131//131 141//141 130//130
f 142//142 143//143 132//132
f 133//133 132//132 143//143
f 132//132 134//134 142//142
f 144//144 142//142 134//134
f 145//145 135//135 143//143
f 133//133 143//143 135//135
f 146//146 144//144 136//136
f 134//134 136//136 144//144
f 135//135 145//145 137//137
f 147//147 137//137 145//145
f 146//146 136//136 148//148
f 138//138 148//148 136//136
f 149//149 139//139 147//147
f 137//137 147//147 139//139
f 148//148 138//138 150//150
f 140//140 150//150 138//138
f 149//149 151//151 139//139
f 141//141 139//139 151//151
f 151//151 150//150 141//141
f 140//140 141//141 150//150
f 143//143 142//142 153//153
f 152//152 153//153 142//142
f 142//142 144//144 152//152
f 154//154 152//152 144//144
f 143//143 153//153 145//145
f 155//155 145//145 153//153
f 156//156 154//154 146//146
f 144//144 146//146 154//154
f 145//145 155//155 147//147
f 157//157 147//147 155//155
f 146//146 148//148 156//156
f 158//158 156//156 148//148
f 159//159 149//149 157//157
f 147//147 157//157 149//149
f 150//150 160//160 148//148
f 158//158 148//148 160//160
f 149//149 159//159 151//151
f 161//161 151//151 159//159
f 150//150 151//151 160//160
f 161//161 160//160 151//151
f 153//153 152//152 163//163
f 162//162 163//163 152//152
f 152//152 154//154 162//162
f 162//162 154//154 164//164
f 153//153 163//163 155//155
f 165//165 155//155 163//163
f 154//154 156//156 164//164
f 166//166 164//164 156//156
f 155//155 165//165 157//157
f 167//167 157//157 165//165
f 168//168 166//166 158//158
f 156//156 158//158 166//166
f 157//157 167//167 159//159
f 169//169 159//159 167//167
f 170//170 168//168 160//160
f 158//158 160//160 168//168
f 171//171 161//161 169//169
f 159//159 169//169 161//161
f 170//170 160//160 171//171
f 161//161 171//171 160//160
f 163//163 162//162 173//173
f 173//173 162//162 172//172
f 172//172 162//162 174//174
f 164//164 174//174 162//162
f 163//163 173//173 165//165
f 165//165 173//173 175//175
f 164//164 166//166 174//174
f 176//176 174//174 166//166
f 175//175 177//177 165//165
f 167//167 165//165 177//177
f 168//168 178//178 166//166
f 176//176 166//166 178//178
f 167//167 177//177 169//169
f 179//179 169//169 177//177
f 170//170 180//180 168//168
f 178//178 168//168 180//180
f 171//171 169//169 181//181
f 179//179 181//181 169//169
f 170//170 171//171 180//180
f 180//180 171//171 181//181
f 172//172 182//182 173//173
f 183//183 173//173 182//182
f 182//182 172//172 184//184
f 174//174 184//184 172//172
f 175//175 173//173 185//185
f 183//183 185//185 173//173
f 174//174 176//176 184//184
f 186//186 184//184 176//176
f 185//185 187//187 175//175
f 177//177 175//175 187//187
f 188//188 186//186 178//178
f 176//176 178//178 186//186
f 177//177 187//187 179//179
f 189//189 179//179 187//187
f 190//190 188//188 180//180
f 178//178 180//180 188//188
f 191//191 181//181 189//189
f 179//179 189//189 181//181
f 190//190 180//180 191//191
f 181//181 191//191 180//180
f 182//182 192//192 183//183
f 184//184 192//192 182//182
f 183//183 192//192 185//185
f 186//186 192//192 184//184
f 185//185 192//192 187//187
f 188//188 192//192 186//186
f 187//187 192//192 189//189
f 190//190 192//192 188//188
f 189//189 192//192 191//191
f 191//191 192//192 190//190
