# Generated by Visualization Toolkit
v -0.009491000324487686 -0.009290000423789024 -0.008409000001847744
v -0.01003200002014637 -0.01143999956548214 -0.017199000343680382
v -0.0076790000312030315 -0.01488799974322319 -0.012198000214993954
v -0.006256000138819218 -0.014409000054001808 -0.008465000428259373
v -0.010304000228643417 -0.006041999906301498 -0.008476000279188156
v -0.005646999925374985 -0.01119299978017807 -0.0073379999957978725
v -0.0062489998526871204 -0.009197000414133072 -0.006477000191807747
v -0.007792000193148851 -0.00673400005325675 -0.006118000019341707
v -0.009208999574184418 -0.012773999944329262 -0.01899000070989132
v -0.009607999585568905 -0.0032190000638365746 -0.008522000163793564
v -0.00902200024574995 -0.004904000088572502 -0.014871000312268734
v -0.008558999747037888 -0.010603000409901142 -0.019509999081492424
v -0.004358000122010708 -0.016986999660730362 -0.010230000130832195
v -0.007631000131368637 -0.015033000148832798 -0.017904000356793404
v -0.005570000037550926 -0.01690099947154522 -0.012706000357866287
v -0.004585000220686197 -0.017121000215411186 -0.011246000416576862
v -0.004005999770015478 -0.01535400003194809 -0.008170000277459621
v -0.0034129999112337828 -0.01629200018942356 -0.008565000258386135
v -0.007675000000745058 -0.001981999957934022 -0.00304200011305511
v -0.0074269999749958515 -0.005553999915719032 -0.0031759999692440033
v -0.007926000282168388 -0.004350999835878611 -0.002873999997973442
v -0.0016659999964758754 -0.01382800005376339 -0.00955200009047985
v -0.00006500000017695129 -0.005867000203579664 -0.012949000112712383
v -0.006053000222891569 -0.007829000242054462 -0.005423999857157469
v -0.005677000153809786 -0.006548999808728695 -0.0031349998898804188
v -0.004718000069260597 -0.01421399973332882 -0.02161400020122528
v -0.005206000059843063 -0.015742000192403793 -0.019711999222636223
v -0.005404000170528889 0.00003899999865097925 -0.012474999763071537
v -0.007501999847590923 0.000058000001445179805 -0.006207999773323536
v -0.00685499981045723 0.000610999995842576 -0.00418000016361475
v -0.005270000081509352 -0.010847000405192375 -0.02130799926817417
v -0.0008829999715089798 0.0008009999874047935 -0.013187999837100506
v -0.004430999979376793 -0.010212000459432602 -0.020754000172019005
v -0.003306000027805567 -0.004761999938637018 -0.01623000018298626
v -0.0046640001237392426 -0.012864000163972378 -0.021758999675512314
v -0.0032949999440461397 -0.01759300008416176 -0.012943999841809273
v -0.00215000007301569 -0.017488999292254448 -0.011006000451743603
v -0.00145800004247576 -0.0164560005068779 -0.009368999861180782
v -0.004656999837607145 -0.017254000529646873 -0.01423100009560585
v -0.004604000132530928 -0.0008169999928213656 0.0008069999748840928
v -0.00381799996830523 0.0017470000311732292 -0.0007929999846965075
v -0.004188000224530697 -0.003894000081345439 0.000610999995842576
v -0.004778999835252762 -0.006339999847114086 -0.0013099999632686377
v 0.00003899999865097925 -0.015469999983906746 -0.010812000371515751
v -0.00015199999324977398 -0.012892000377178192 -0.012256000190973282
v -0.0008379999781027436 -0.007877999916672707 -0.01590700075030327
v 0.0010509999701753259 -0.0013200000394135714 -0.010576000437140465
v 0.00009999999747378752 -0.015190999954938889 -0.013798999600112438
v -0.003845999948680401 -0.005330000072717667 -0.0048870001919567585
v -0.0033839999232441187 -0.014449000358581543 -0.02063100039958954
v -0.0041809999383986 -0.01244099996984005 -0.021803999319672585
v -0.003759999992325902 -0.013172999955713749 -0.021654000505805016
v -0.003487000009045005 -0.017108000814914703 -0.014411999844014645
v -0.004120000172406435 0.003263999940827489 -0.006936999969184399
v 0.001044000033289194 0.0036539998836815357 -0.0087890001013875
v -0.0008839999791234732 0.004358000122010708 -0.007096999790519476
v -0.0022529999259859324 0.004019000101834536 -0.005104999989271164
v -0.004592000041157007 -0.01152000017464161 -0.02171500027179718
v -0.00045900000259280205 -0.0014680000022053719 -0.013818999752402306
v -0.0022090000566095114 -0.006868999917060137 -0.017263000831007957
v -0.003169999923557043 -0.011630999855697155 -0.020975999534130096
v -0.0008580000139772892 -0.016548000276088715 -0.01243900042027235
v -0.0026400000788271427 -0.002191999927163124 0.001303000026382506
v -0.001943000010214746 0.00042600001324899495 0.0014609999489039183
v -0.0007570000016130507 0.002340999897569418 0.0003020000003743917
v -0.00024199999461416155 0.0041809999383986 -0.0038819999899715185
v -0.0032399999909102917 -0.005748999770730734 -0.0007409999961964786
v -0.0015920000150799751 -0.012171999551355839 -0.019068999215960503
v 0.0026519999373704195 0.0004239999980200082 -0.006136999931186438
v 0.0020039998926222324 0.003845999948680401 -0.0062489998526871204
v 0.0019490000559017062 0.0004490000137593597 -0.002623999956995249
v -0.000039999998989515007 0.003240999998524785 -0.0015399999683722854
v 0.0019460000330582261 0.0021089999936521053 -0.004869000054895878
vn -0.717971682548523 -0.37361153960227966 0.5873082876205444
vn -0.9874743223190308 -0.04982912540435791 -0.1497046947479248
vn -0.7562528848648071 -0.6280830502510071 0.18328475952148438
vn -0.5004242658615112 -0.5278698801994324 0.6862425804138184
vn -0.9283245801925659 -0.15882685780525208 0.336136132478714
vn 0.1513204127550125 -0.16165459156036377 0.9751768708229065
vn 0.005133904982358217 -0.4801423251628876 0.8771755695343018
vn -0.5803947448730469 -0.5606070756912231 0.5906449556350708
vn -0.7801730036735535 -0.4241265654563904 -0.4598333239555359
vn -0.9086361527442932 0.41706928610801697 -0.02082422748208046
vn -0.5016275644302368 0.5787952542304993 -0.6429353952407837
vn -0.636360228061676 0.16478829085826874 -0.7535851001739502
vn -0.2948761582374573 -0.8890407681465149 0.35022059082984924
vn -0.622738778591156 -0.7645482420921326 -0.16632014513015747
vn -0.5403540134429932 -0.8387040495872498 0.06777207553386688
vn -0.40213093161582947 -0.9004353880882263 0.1658521592617035
vn 0.1274951994419098 -0.23103061318397522 0.9645568132400513
vn 0.04920196160674095 -0.5207913517951965 0.8522648215293884
vn -0.8573213219642639 0.3113242983818054 0.4099723994731903
vn -0.5971459150314331 -0.6247402429580688 0.5031067132949829
vn -0.788244903087616 -0.15585769712924957 0.5952966809272766
vn 0.6278843879699707 0.11959712207317352 0.769062876701355
vn 0.9130890369415283 -0.1835358440876007 0.3641195297241211
vn 0.24916598200798035 -0.7668077945709229 0.5915421843528748
vn -0.09286466240882874 -0.9424244165420532 0.321266770362854
vn -0.12057526409626007 -0.3623196482658386 -0.924221932888031
vn -0.14022134244441986 -0.873580276966095 -0.46604230999946594
vn -0.4628693759441376 0.7663889527320862 -0.445421040058136
vn -0.7641209959983826 0.640373706817627 -0.07772226631641388
vn -0.7422178387641907 0.627282440662384 0.2358589470386505
vn -0.27844423055648804 0.42433252930641174 -0.8616325855255127
vn 0.11920157074928284 0.5864517092704773 -0.8011650443077087
vn 0.17928840219974518 0.6033249497413635 -0.777080774307251
vn 0.0999804437160492 0.531703531742096 -0.8410084843635559
vn -0.3300902545452118 -0.006138427183032036 -0.9439293742179871
vn 0.05706920847296715 -0.9944843649864197 -0.08799923956394196
vn 0.26068025827407837 -0.9488189816474915 0.1782926768064499
vn 0.5030183792114258 -0.6300342679023743 0.5916327834129333
vn -0.23291455209255219 -0.962487518787384 -0.13917124271392822
vn -0.5797318816184998 0.17522795498371124 0.7957424521446228
vn -0.5110572576522827 0.7082217335700989 0.4870752990245819
vn -0.36758503317832947 -0.3913780748844147 0.8436257243156433
vn -0.06933876872062683 -0.9180418252944946 0.39037346839904785
vn 0.9194576740264893 -0.1918003261089325 0.3432351052761078
vn 0.9384174346923828 0.12868402898311615 0.32064494490623474
vn 0.9127100706100464 0.07729203999042511 -0.40123099088668823
vn 0.9691573977470398 -0.17710381746292114 -0.17137181758880615
vn 0.9156506061553955 -0.3291108310222626 -0.2308029681444168
vn 0.6508558392524719 -0.7533169984817505 0.09434079378843307
vn 0.5793154835700989 -0.6128752827644348 -0.5373802185058594
vn 0.20986796915531158 0.048377521336078644 -0.9765321612358093
vn 0.5746330618858337 -0.1478360891342163 -0.8049481511116028
vn 0.3337916135787964 -0.8764939904212952 -0.3469026982784271
vn -0.535876989364624 0.8385273218154907 -0.09852781146764755
vn 0.6019675135612488 0.61225426197052 -0.5126205682754517
vn -0.09433289617300034 0.9776320457458496 -0.18798081576824188
vn -0.3784022629261017 0.9096817970275879 0.1711450219154358
vn 0.08420974761247635 0.32259172201156616 -0.9427849650382996
vn 0.6907446980476379 0.26979273557662964 -0.6708828210830688
vn 0.5650949478149414 0.39847707748413086 -0.7224152684211731
vn 0.5889406800270081 0.29376220703125 -0.7528961896896362
vn 0.6000570058822632 -0.7907747626304626 -0.12085932493209839
vn 0.2466539889574051 -0.2958112061023712 0.9228529334068298
vn 0.10010332614183426 0.24764791131019592 0.9636647701263428
vn 0.17662984132766724 0.7196629047393799 0.6714813709259033
vn -0.04784264415502548 0.9638766646385193 0.2620167136192322
vn 0.5253316760063171 -0.752383828163147 0.3974231481552124
vn 0.8455813527107239 0.005458327475935221 -0.5338186025619507
vn 0.9730116724967957 -0.2273017317056656 -0.039778053760528564
vn 0.7143769860267639 0.6926403641700745 0.09957385808229446
vn 0.8715626001358032 -0.033960144966840744 0.48910677433013916
vn 0.6220009922981262 0.6518650650978088 0.43380481004714966
vn 0.9026981592178345 0.30252605676651 0.3059639036655426
f 1//1 2//2 3//3
f 3//3 4//4 1//1
f 5//5 2//2 1//1
f 6//6 1//1 4//4
f 1//1 6//6 7//7
f 7//7 8//8 1//1
f 1//1 8//8 5//5
f 9//9 3//3 2//2
f 2//2 10//10 11//11
f 5//5 10//10 2//2
f 2//2 11//11 12//12
f 12//12 9//9 2//2
f 13//13 4//4 3//3
f 14//14 15//15 3//3
f 14//14 3//3 9//9
f 3//3 16//16 13//13
f 3//3 15//15 16//16
f 4//4 17//17 6//6
f 4//4 18//18 17//17
f 18//18 4//4 13//13
f 5//5 19//19 10//10
f 8//8 20//20 5//5
f 21//21 5//5 20//20
f 5//5 21//21 19//19
f 22//22 6//6 17//17
f 23//23 7//7 6//6
f 23//23 6//6 22//22
f 8//8 7//7 24//24
f 23//23 24//24 7//7
f 25//25 8//8 24//24
f 20//20 8//8 25//25
f 26//26 27//27 9//9
f 9//9 12//12 26//26
f 9//9 27//27 14//14
f 28//28 11//11 10//10
f 29//29 28//28 10//10
f 10//10 30//30 29//29
f 30//30 10//10 19//19
f 12//12 11//11 31//31
f 32//32 11//11 28//28
f 31//31 11//11 33//33
f 34//34 33//33 11//11
f 11//11 32//32 34//34
f 12//12 35//35 26//26
f 12//12 31//31 35//35
f 13//13 36//36 37//37
f 13//13 16//16 36//36
f 38//38 18//18 13//13
f 13//13 37//37 38//38
f 14//14 39//39 15//15
f 39//39 14//14 27//27
f 15//15 39//39 16//16
f 39//39 36//36 16//16
f 22//22 17//17 18//18
f 22//22 18//18 38//38
f 21//21 40//40 19//19
f 19//19 41//41 30//30
f 40//40 41//41 19//19
f 42//42 20//20 43//43
f 43//43 20//20 25//25
f 20//20 42//42 21//21
f 40//40 21//21 42//42
f 44//44 22//22 38//38
f 44//44 45//45 22//22
f 22//22 45//45 23//23
f 46//46 47//47 23//23
f 48//48 46//46 23//23
f 48//48 23//23 45//45
f 24//24 23//23 49//49
f 23//23 47//47 49//49
f 49//49 25//25 24//24
f 49//49 43//43 25//25
f 26//26 50//50 27//27
f 51//51 52//52 26//26
f 35//35 51//51 26//26
f 26//26 52//52 50//50
f 50//50 53//53 27//27
f 39//39 27//27 53//53
f 29//29 54//54 28//28
f 55//55 32//32 28//28
f 55//55 28//28 56//56
f 56//56 28//28 54//54
f 30//30 54//54 29//29
f 57//57 54//54 30//30
f 30//30 41//41 57//57
f 31//31 58//58 35//35
f 33//33 58//58 31//31
f 59//59 34//34 32//32
f 59//59 32//32 55//55
f 34//34 60//60 33//33
f 33//33 60//60 61//61
f 61//61 58//58 33//33
f 34//34 59//59 60//60
f 58//58 51//51 35//35
f 36//36 62//62 37//37
f 39//39 53//53 36//36
f 36//36 53//53 62//62
f 38//38 37//37 62//62
f 38//38 62//62 44//44
f 40//40 42//42 63//63
f 63//63 64//64 40//40
f 40//40 64//64 41//41
f 65//65 66//66 41//41
f 66//66 57//57 41//41
f 41//41 64//64 65//65
f 42//42 43//43 67//67
f 67//67 63//63 42//42
f 49//49 67//67 43//43
f 44//44 62//62 48//48
f 48//48 45//45 44//44
f 46//46 60//60 59//59
f 59//59 47//47 46//46
f 60//60 46//46 68//68
f 68//68 46//46 48//48
f 47//47 59//59 55//55
f 55//55 69//69 47//47
f 47//47 69//69 49//49
f 53//53 48//48 62//62
f 48//48 53//53 50//50
f 50//50 68//68 48//48
f 49//49 69//69 67//67
f 68//68 50//50 52//52
f 52//52 51//51 61//61
f 51//51 58//58 61//61
f 52//52 61//61 68//68
f 57//57 56//56 54//54
f 69//69 55//55 70//70
f 56//56 70//70 55//55
f 56//56 66//66 70//70
f 66//66 56//56 57//57
f 61//61 60//60 68//68
f 71//71 64//64 63//63
f 71//71 63//63 67//67
f 71//71 65//65 64//64
f 65//65 72//72 66//66
f 72//72 65//65 71//71
f 66//66 72//72 70//70
f 71//71 67//67 69//69
f 73//73 69//69 70//70
f 71//71 69//69 73//73
f 73//73 70//70 72//72
f 71//71 73//73 72//72
