# Generated by Visualization Toolkit
v 0.024320000782608986 -0.08680199831724167 -0.05852700024843216
v 0.024971000850200653 -0.08819899708032608 -0.058361999690532684
v 0.023482000455260277 -0.08859600126743317 -0.057583000510931015
v 0.02092999964952469 -0.0866210013628006 -0.0559069998562336
v 0.028528999537229538 -0.08904600143432617 -0.05637200176715851
v 0.02527100034058094 -0.0833669975399971 -0.05762400105595589
v 0.024274999275803566 -0.08340699970722198 -0.05768999829888344
v 0.02170800045132637 -0.0812549963593483 -0.057172998785972595
v 0.01935099996626377 -0.08026900142431259 -0.055406998842954636
v 0.023941000923514366 -0.08922000229358673 -0.05745600163936615
v 0.026050999760627747 -0.08927399665117264 -0.058003999292850494
v 0.020919999107718468 -0.08718699961900711 -0.05608399957418442
v 0.022634999826550484 -0.08868200331926346 -0.056836001574993134
v 0.020702000707387924 -0.088128000497818 -0.055181000381708145
v 0.01928500086069107 -0.08193600177764893 -0.05452200025320053
v 0.019345000386238098 -0.08532100170850754 -0.05284100025892258
v 0.02005700021982193 -0.08711700141429901 -0.05430399999022484
v 0.02975199930369854 -0.08584299683570862 -0.05551600083708763
v 0.029046999290585518 -0.08847899734973907 -0.05604400113224983
v 0.029642999172210693 -0.08516599982976913 -0.05554300174117088
v 0.02857300080358982 -0.08396700024604797 -0.05599600076675415
v 0.0261049997061491 -0.08279500156641006 -0.05685900151729584
v 0.02748499996960163 -0.0899839997291565 -0.05577300116419792
v 0.02844100072979927 -0.08934599906206131 -0.05522000044584274
v 0.025141000747680664 -0.082846999168396 -0.05728499963879585
v 0.023439999669790268 -0.07756400108337402 -0.0571880005300045
v 0.01830100081861019 -0.07516200095415115 -0.05581799894571304
v 0.015977000817656517 -0.0738229975104332 -0.05407999828457832
v 0.022055000066757202 -0.0892769992351532 -0.055597998201847076
v 0.024785999208688736 -0.08974500000476837 -0.05698300153017044
v 0.02060999907553196 -0.08948799967765808 -0.05442100018262863
v 0.020522000268101692 -0.08892600238323212 -0.05429999902844429
v 0.0184749998152256 -0.08202899992465973 -0.05183599889278412
v 0.01931699924170971 -0.08477099984884262 -0.050244998186826706
v 0.020529000088572502 -0.09014599770307541 -0.053394000977277756
v 0.02030700072646141 -0.09059400111436844 -0.052609000355005264
v 0.020357999950647354 -0.09074799716472626 -0.051906000822782516
v 0.029916999861598015 -0.08681699633598328 -0.05409400165081024
v 0.02971399948000908 -0.08489400148391724 -0.05409099906682968
v 0.02921699918806553 -0.08851200342178345 -0.054708000272512436
v 0.029234999790787697 -0.08406200259923935 -0.05486999824643135
v 0.02698500081896782 -0.08294700086116791 -0.054944999516010284
v 0.028909999877214432 -0.0837780013680458 -0.05414300039410591
v 0.026745999231934547 -0.08277600258588791 -0.056352999061346054
v 0.025584999471902847 -0.08246800303459167 -0.056386999785900116
v 0.026148999109864235 -0.09013400226831436 -0.0545319989323616
v 0.02769000083208084 -0.08892600238323212 -0.053068000823259354
v 0.02508999966084957 -0.07918299734592438 -0.05506499856710434
v 0.023063000291585922 -0.07373599708080292 -0.05686800181865692
v 0.02382900007069111 -0.07395099848508835 -0.056251998990774155
v 0.024354999884963036 -0.07592099905014038 -0.05585400015115738
v 0.02346399985253811 -0.06984899938106537 -0.05712300166487694
v 0.017754999920725822 -0.06796199828386307 -0.05698100104928017
v 0.015135999768972397 -0.07079000025987625 -0.05383700132369995
v 0.013855000026524067 -0.07009299844503403 -0.051461998373270035
v 0.017657000571489334 -0.07935900241136551 -0.05159899964928627
v 0.021539000794291496 -0.09097900241613388 -0.05326100066304207
v 0.021020999178290367 -0.09033200144767761 -0.054009001702070236
v 0.023413000628352165 -0.09090899676084518 -0.05216100066900253
v 0.024627000093460083 -0.08991800248622894 -0.05329899862408638
v 0.020529000088572502 -0.09113200008869171 -0.05242300033569336
v 0.019809000194072723 -0.0835530012845993 -0.05014900118112564
v 0.019881000742316246 -0.08190499991178513 -0.05052100121974945
v 0.021726999431848526 -0.0885469987988472 -0.0482649989426136
v 0.020848000422120094 -0.08601699769496918 -0.047745998948812485
v 0.021053999662399292 -0.08451800048351288 -0.04831000044941902
v 0.020857999101281166 -0.0908140018582344 -0.05132099986076355
v 0.027646999806165695 -0.08461300283670425 -0.05242199823260307
v 0.028460999950766563 -0.08754199743270874 -0.05244499817490578
v 0.02749899961054325 -0.08334700018167496 -0.05360500141978264
v 0.02541700005531311 -0.0831570029258728 -0.053585998713970184
v 0.026110999286174774 -0.08271300047636032 -0.05536400154232979
v 0.025877000764012337 -0.08916699886322021 -0.05198900029063225
v 0.026290999725461006 -0.08794199675321579 -0.051134999841451645
v 0.021719999611377716 -0.08171699941158295 -0.05096200108528137
v 0.022081000730395317 -0.08263300359249115 -0.050652001053094864
v 0.019192000851035118 -0.07882100343704224 -0.05094800144433975
v 0.02441900037229061 -0.07596900314092636 -0.05455299839377403
v 0.024418000131845474 -0.07178600132465363 -0.05542200058698654
v 0.024567000567913055 -0.07180699706077576 -0.054478999227285385
v 0.024421999230980873 -0.07397700101137161 -0.05480799823999405
v 0.022345000877976418 -0.06381099671125412 -0.05862399935722351
v 0.024745000526309013 -0.06374099850654602 -0.05822199955582619
v 0.01434400025755167 -0.0686890035867691 -0.05379100143909454
v 0.014740999788045883 -0.06509300321340561 -0.05600700154900551
v 0.019276000559329987 -0.06482400000095367 -0.058591000735759735
v 0.011827999725937843 -0.06647499650716782 -0.047756001353263855
v 0.012063000351190567 -0.06481699645519257 -0.051270999014377594
v 0.015567000024020672 -0.0712440013885498 -0.04826600104570389
v 0.012732000090181828 -0.06591399759054184 -0.0537789985537529
v 0.018355000764131546 -0.07914400100708008 -0.05029100179672241
v 0.02188199944794178 -0.09123499691486359 -0.05097400024533272
v 0.02462499961256981 -0.08997700363397598 -0.050296999514102936
v 0.020755000412464142 -0.08382400125265121 -0.04911300167441368
v 0.021104000508785248 -0.08259499818086624 -0.050301000475883484
v 0.021418999880552292 -0.08353900164365768 -0.05007699877023697
v 0.022833000868558884 -0.08869899809360504 -0.048172999173402786
v 0.022505000233650208 -0.09023699909448624 -0.04946399852633476
v 0.021716000512242317 -0.08509399741888046 -0.047481000423431396
v 0.02360299974679947 -0.08489499986171722 -0.04896799847483635
v 0.02231300063431263 -0.08371999859809875 -0.050494998693466187
v 0.025969000533223152 -0.08615300059318542 -0.050880998373031616
v 0.02696700021624565 -0.0837789997458458 -0.05277999863028526
v 0.02474600076675415 -0.08438999950885773 -0.05143800005316734
v 0.025016000494360924 -0.08840300142765045 -0.04912399873137474
v 0.019193999469280243 -0.0728290006518364 -0.049580998718738556
v 0.026277000084519386 -0.06322699785232544 -0.05607600137591362
v 0.025258999317884445 -0.06578099727630615 -0.05250599980354309
v 0.024351999163627625 -0.07183600217103958 -0.05366000160574913
v 0.021914999932050705 -0.06231100112199783 -0.05826999992132187
v 0.024701999500393867 -0.0620109997689724 -0.058028001338243484
v 0.012803000397980213 -0.0641380026936531 -0.05230199918150902
v 0.015915999189019203 -0.06328500062227249 -0.05590000003576279
v 0.01990400068461895 -0.06166199967265129 -0.05698699876666069
v 0.011969000101089478 -0.06415999680757523 -0.048781998455524445
v 0.012292000465095043 -0.06338399648666382 -0.04781800135970116
v 0.013249999843537807 -0.06413599848747253 -0.04605000093579292
v 0.015096999704837799 -0.06591500341892242 -0.04482400044798851
v 0.012215999886393547 -0.06358599662780762 -0.04899299889802933
v 0.019133999943733215 -0.06943800300359726 -0.048493001610040665
v 0.017212999984622 -0.0655440017580986 -0.04434800148010254
v 0.025971999391913414 -0.06192699819803238 -0.0555649995803833
v 0.026649000123143196 -0.06300699710845947 -0.05388600006699562
v 0.025722000747919083 -0.06184700131416321 -0.05041100084781647
v 0.023869000375270844 -0.06125099956989288 -0.05660099908709526
v 0.022477999329566956 -0.06067299842834473 -0.05654599890112877
v 0.021244000643491745 -0.0611019991338253 -0.05688999965786934
v 0.024560999125242233 -0.060478001832962036 -0.05396600067615509
v 0.020468000322580338 -0.062084000557661057 -0.051419999450445175
v 0.02081199921667576 -0.061882998794317245 -0.04786999896168709
v 0.021661000326275826 -0.060465000569820404 -0.05561099946498871
v 0.013597999699413776 -0.06314600259065628 -0.04659400135278702
v 0.0155239999294281 -0.0630749985575676 -0.04558800160884857
v 0.015203000046312809 -0.06408599764108658 -0.044766999781131744
v 0.01710899919271469 -0.06416100263595581 -0.04441500082612038
v 0.019415000453591347 -0.0633929967880249 -0.04610700160264969
v 0.02628600038588047 -0.06156500056385994 -0.053068000823259354
v 0.02413799986243248 -0.06105399876832962 -0.0501680001616478
v 0.023421000689268112 -0.060430001467466354 -0.05608699843287468
v 0.02302899956703186 -0.060029998421669006 -0.05557600036263466
v 0.022276999428868294 -0.06028499826788902 -0.05490899831056595
v 0.022905999794602394 -0.06089499965310097 -0.05318000167608261
v 0.017090000212192535 -0.06304600089788437 -0.04549200087785721
vn -0.16789351403713226 0.014741825871169567 -0.985694944858551
vn 0.018627101555466652 -0.19111569225788116 -0.9813907146453857
vn -0.4935256242752075 -0.2439626157283783 -0.8348142504692078
vn -0.8107502460479736 -0.0444161482155323 -0.5837047100067139
vn 0.5918442010879517 -0.1376684308052063 -0.7942089438438416
vn 0.31237781047821045 0.3422892391681671 -0.8861479163169861
vn 0.06364630162715912 0.36338359117507935 -0.9294630885124207
vn -0.31170353293418884 0.04030231013894081 -0.9493243098258972
vn -0.7178099751472473 -0.1713271588087082 -0.6748302578926086
vn -0.36790382862091064 -0.6500001549720764 -0.6649410128593445
vn 0.14122819900512695 -0.661203920841217 -0.736793041229248
vn -0.7314257621765137 -0.11698470264673233 -0.6718116402626038
vn -0.5952949523925781 -0.5002924203872681 -0.6287537813186646
vn -0.8323562741279602 -0.25951656699180603 -0.4897285997867584
vn -0.8871713280677795 -0.23873232305049896 -0.3948846459388733
vn -0.963339626789093 -0.17291945219039917 -0.20512352883815765
vn -0.9119768142700195 -0.15313182771205902 -0.38059020042419434
vn 0.8809834122657776 0.0313044898211956 -0.4721103608608246
vn 0.8617954850196838 -0.39232948422431946 -0.321537047624588
vn 0.8047500848770142 0.2677554488182068 -0.5297965407371521
vn 0.5698157548904419 0.6303138136863708 -0.5272707939147949
vn 0.3938712477684021 0.5769438743591309 -0.7155426144599915
vn 0.3123621940612793 -0.9330900311470032 -0.17824919521808624
vn 0.6070783734321594 -0.787922739982605 0.10311896353960037
vn 0.3633541762828827 0.4894125759601593 -0.7927477955818176
vn 0.4323412775993347 0.1147380918264389 -0.8943803310394287
vn -0.40347880125045776 -0.08124537020921707 -0.9113747477531433
vn -0.8315574526786804 -0.26302871108055115 -0.48921167850494385
vn -0.27206534147262573 -0.816088855266571 -0.5098819136619568
vn -0.13397617638111115 -0.9426752328872681 -0.3056366443634033
vn -0.8207697868347168 -0.3430442810058594 -0.45679035782814026
vn -0.9431353807449341 -0.17047947645187378 -0.2853635549545288
vn -0.9513514041900635 -0.1541426181793213 0.2667781412601471
vn -0.8953248858451843 -0.047888413071632385 0.442831814289093
vn -0.9258678555488586 -0.24104103446006775 -0.2909776568412781
vn -0.8443732261657715 -0.5080782771110535 -0.16997195780277252
vn -0.8323827385902405 -0.5114033818244934 0.21355494856834412
vn 0.9491962790489197 -0.1265510767698288 0.2881169021129608
vn 0.9116849899291992 0.3297908902168274 0.24508851766586304
vn 0.7788553237915039 -0.5880117416381836 0.21823516488075256
vn 0.7577589154243469 0.6358465552330017 -0.14663085341453552
vn 0.302373468875885 0.9475858211517334 0.10320648550987244
vn 0.5543467402458191 0.8013283610343933 0.22488345205783844
vn 0.3785029649734497 0.909071683883667 -0.1741383671760559
vn 0.5273508429527283 0.7667890191078186 -0.3659723997116089
vn 0.13266851007938385 -0.9770907163619995 0.1664118468761444
vn 0.49917057156562805 -0.7243353724479675 0.4755702614784241
vn 0.931722104549408 0.3215571641921997 0.1688046157360077
vn 0.37738755345344543 0.03116856887936592 -0.925530731678009
vn 0.8460614085197449 0.049349796026945114 -0.5307961106300354
vn 0.9306827187538147 0.10161177068948746 -0.35143235325813293
vn 0.23222942650318146 -0.19626298546791077 -0.9526544213294983
vn -0.3667558431625366 -0.2907085716724396 -0.883729875087738
vn -0.7594067454338074 -0.21276205778121948 -0.6148444414138794
vn -0.908080518245697 -0.386483758687973 -0.1613079160451889
vn -0.8692666292190552 -0.37859877943992615 0.3178655803203583
vn 0.0168017465621233 -0.9205122590065002 -0.39035239815711975
vn -0.39948755502700806 -0.7043826580047607 -0.5867323875427246
vn 0.3510412871837616 -0.9156765937805176 -0.19572030007839203
vn 0.2962968945503235 -0.9539228081703186 -0.04732414707541466
vn -0.6828104257583618 -0.7065250277519226 -0.1859898865222931
vn -0.6760110855102539 0.27130192518234253 0.6851307153701782
vn -0.1416318714618683 0.2559719383716583 0.9562525153160095
vn -0.5512908101081848 -0.5012871026992798 0.6669254899024963
vn -0.5482721924781799 -0.031579870730638504 0.8357034921646118
vn -0.20205584168434143 0.7079765796661377 0.6767145991325378
vn -0.5608012676239014 -0.7332159280776978 0.38457292318344116
vn 0.5405012369155884 0.3995780050754547 0.7404024004936218
vn 0.6683257818222046 -0.23600751161575317 0.7054367661476135
vn 0.2930798828601837 0.8426782488822937 0.4516609013080597
vn 0.42003268003463745 0.7225191593170166 0.5491253733634949
vn 0.5667341351509094 0.8156425356864929 0.11636065691709518
vn 0.5442928075790405 -0.7516213059425354 0.37257352471351624
vn 0.6636096835136414 -0.35469403862953186 0.658645749092102
vn 0.3726893365383148 0.3769971430301666 0.8479244112968445
vn 0.45568934082984924 0.3942223787307739 0.798082709312439
vn 0.497558057308197 0.07209209352731705 0.8644296526908875
vn 0.8708946704864502 0.02348201535642147 0.49090826511383057
vn 0.8961919546127319 -0.14584268629550934 -0.41901084780693054
vn 0.9923797845840454 -0.11589747667312622 -0.041835661977529526
vn 0.9860075116157532 -0.04075024276971817 0.1616431027650833
vn 0.06246726214885712 -0.07201815396547318 -0.9954451322555542
vn 0.5703226923942566 -0.10683174431324005 -0.8144439458847046
vn -0.7148273587226868 -0.3533148467540741 -0.6034820079803467
vn -0.6630655527114868 0.0649983361363411 -0.7457340955734253
vn -0.3043402135372162 0.148907870054245 -0.9408525228500366
vn -0.9193350076675415 -0.20159970223903656 0.3379063010215759
vn -0.9733009934425354 0.116142138838768 -0.19798004627227783
vn -0.2291329801082611 -0.49691343307495117 0.8370037078857422
vn -0.8775795698165894 -0.07278674095869064 -0.4738736152648926
vn -0.14149482548236847 -0.22885030508041382 0.9631234407424927
vn -0.09324422478675842 -0.9411858320236206 0.32476872205734253
vn 0.5241867303848267 -0.7957072854042053 0.3034436106681824
vn -0.10392438620328903 0.6553937792778015 0.7481034994125366
vn 0.26303890347480774 0.3805812895298004 0.8865485787391663
vn 0.36983075737953186 0.5861269235610962 0.720888614654541
vn 0.19227632880210876 -0.28649747371673584 0.9385887980461121
vn 0.08705133199691772 -0.7213291525840759 0.6870999932289124
vn 0.059328943490982056 0.3422735631465912 0.9377254247665405
vn 0.5101082921028137 0.5715435743331909 0.6427498459815979
vn 0.43908488750457764 0.6123784780502319 0.657416820526123
vn 0.5882974863052368 0.3156346082687378 0.744500458240509
vn 0.24761013686656952 0.6994248628616333 0.6704431772232056
vn 0.3913113474845886 0.7375037670135498 0.5504212975502014
vn 0.6725143194198608 -0.2900093197822571 0.6808959245681763
vn 0.5413843393325806 -0.20888398587703705 0.8144141435623169
vn 0.9496006369590759 -0.02888830192387104 -0.31212812662124634
vn 0.893248975276947 -0.28414782881736755 0.34837669134140015
vn 0.830603837966919 -0.23111437261104584 0.5066393613815308
vn -0.0728212222456932 0.5862107276916504 -0.8068792223930359
vn 0.43289700150489807 0.5759009122848511 -0.6934972405433655
vn -0.6001973152160645 0.745662271976471 -0.2893976867198944
vn -0.5121424198150635 0.7628219127655029 -0.39473143219947815
vn -0.36976203322410583 0.712062418460846 -0.5968610644340515
vn -0.9712919592857361 0.2378365844488144 0.0050692143850028515
vn -0.7408760786056519 0.633451521396637 0.22325274348258972
vn -0.6243588328361511 0.30574092268943787 0.7188175320625305
vn -0.3936813473701477 -0.2079072892665863 0.8954269886016846
vn -0.6730431914329529 0.7219343185424805 -0.16069750487804413
vn 0.5465148091316223 -0.36605381965637207 0.7532106041908264
vn 0.30933716893196106 -0.29803580045700073 0.903042197227478
vn 0.7964687347412109 0.5428746938705444 -0.26631686091423035
vn 0.9997435808181763 -0.00588340824469924 0.02186514437198639
vn 0.7481662034988403 0.297080934047699 0.5932876467704773
vn 0.29091280698776245 0.7724490761756897 -0.564528226852417
vn 0.06243688613176346 0.7513346672058105 -0.6569609642028809
vn -0.22138549387454987 0.8261412978172302 -0.5181495547294617
vn 0.3489936292171478 0.9366665482521057 -0.029314028099179268
vn -0.3464861810207367 0.9291926622390747 0.12864051759243011
vn -0.050711631774902344 0.963154137134552 0.26412585377693176
vn -0.388131320476532 0.9179112911224365 -0.08241987228393555
vn -0.3690391182899475 0.8345754146575928 0.40901580452919006
vn -0.20670002698898315 0.7747465372085571 0.597530722618103
vn -0.34683647751808167 0.34845322370529175 0.8707955479621887
vn 0.05140853300690651 0.39160457253456116 0.918696403503418
vn 0.5335560441017151 0.23965416848659515 0.8111003637313843
vn 0.813396692276001 0.5815166234970093 0.01497755665332079
vn 0.13883963227272034 0.9344611763954163 0.3278807997703552
vn 0.39842650294303894 0.7546617984771729 -0.5212886929512024
vn -0.03881201148033142 0.968913733959198 -0.24433553218841553
vn -0.21690461039543152 0.9413763880729675 0.25838518142700195
vn -0.2092372328042984 0.9575061202049255 0.19849847257137299
vn 0.12163753807544708 0.7455583214759827 0.6552459001541138
f 1//1 2//2 3//3
f 1//1 3//3 4//4
f 2//2 1//1 5//5
f 6//6 1//1 7//7
f 5//5 1//1 6//6
f 7//7 1//1 8//8
f 1//1 4//4 9//9
f 8//8 1//1 9//9
f 3//3 2//2 10//10
f 2//2 5//5 11//11
f 10//10 2//2 11//11
f 4//4 3//3 12//12
f 3//3 13//13 12//12
f 13//13 3//3 10//10
f 14//14 4//4 12//12
f 4//4 15//15 9//9
f 4//4 16//16 15//15
f 17//17 16//16 4//4
f 4//4 14//14 17//17
f 5//5 18//18 19//19
f 18//18 5//5 20//20
f 5//5 21//21 20//20
f 5//5 22//22 21//21
f 5//5 6//6 22//22
f 11//11 5//5 23//23
f 24//24 5//5 19//19
f 24//24 23//23 5//5
f 7//7 25//25 6//6
f 22//22 6//6 25//25
f 25//25 7//7 8//8
f 8//8 26//26 25//25
f 26//26 8//8 27//27
f 8//8 9//9 28//28
f 28//28 27//27 8//8
f 15//15 28//28 9//9
f 29//29 13//13 10//10
f 11//11 30//30 10//10
f 10//10 30//30 29//29
f 30//30 11//11 23//23
f 14//14 12//12 13//13
f 13//13 29//29 14//14
f 14//14 29//29 31//31
f 17//17 14//14 32//32
f 31//31 32//32 14//14
f 33//33 15//15 16//16
f 28//28 15//15 33//33
f 34//34 33//33 16//16
f 35//35 36//36 16//16
f 17//17 35//35 16//16
f 16//16 37//37 34//34
f 16//16 36//36 37//37
f 35//35 17//17 32//32
f 19//19 18//18 38//38
f 20//20 39//39 18//18
f 39//39 38//38 18//18
f 19//19 38//38 40//40
f 24//24 19//19 40//40
f 39//39 20//20 41//41
f 41//41 20//20 21//21
f 42//42 43//43 21//21
f 22//22 44//44 21//21
f 21//21 44//44 42//42
f 21//21 43//43 41//41
f 25//25 45//45 22//22
f 22//22 45//45 44//44
f 30//30 23//23 46//46
f 46//46 23//23 24//24
f 47//47 24//24 40//40
f 46//46 24//24 47//47
f 48//48 25//25 26//26
f 25//25 48//48 45//45
f 27//27 49//49 26//26
f 50//50 26//26 49//49
f 26//26 51//51 48//48
f 26//26 50//50 51//51
f 52//52 27//27 53//53
f 27//27 52//52 49//49
f 54//54 53//53 27//27
f 27//27 28//28 54//54
f 54//54 28//28 55//55
f 56//56 55//55 28//28
f 28//28 33//33 56//56
f 57//57 58//58 29//29
f 29//29 30//30 46//46
f 58//58 31//31 29//29
f 59//59 29//29 60//60
f 59//59 57//57 29//29
f 46//46 60//60 29//29
f 31//31 58//58 61//61
f 35//35 31//31 61//61
f 35//35 32//32 31//31
f 33//33 34//34 62//62
f 33//33 62//62 63//63
f 63//63 56//56 33//33
f 34//34 37//37 64//64
f 65//65 34//34 64//64
f 65//65 66//66 34//34
f 62//62 34//34 66//66
f 36//36 35//35 61//61
f 67//67 37//37 36//36
f 67//67 36//36 61//61
f 67//67 64//64 37//37
f 38//38 68//68 69//69
f 69//69 40//40 38//38
f 68//68 38//38 39//39
f 39//39 43//43 68//68
f 43//43 39//39 41//41
f 40//40 69//69 47//47
f 43//43 42//42 70//70
f 42//42 71//71 70//70
f 71//71 42//42 72//72
f 42//42 44//44 72//72
f 68//68 43//43 70//70
f 45//45 72//72 44//44
f 45//45 48//48 72//72
f 73//73 46//46 47//47
f 73//73 60//60 46//46
f 47//47 74//74 73//73
f 74//74 47//47 69//69
f 48//48 75//75 76//76
f 71//71 48//48 76//76
f 77//77 75//75 48//48
f 78//78 77//77 48//48
f 48//48 71//71 72//72
f 51//51 78//78 48//48
f 49//49 79//79 50//50
f 79//79 49//49 52//52
f 50//50 80//80 81//81
f 51//51 50//50 81//81
f 80//80 50//50 79//79
f 78//78 51//51 81//81
f 53//53 82//82 52//52
f 82//82 83//83 52//52
f 79//79 52//52 83//83
f 84//84 53//53 54//54
f 85//85 53//53 84//84
f 53//53 86//86 82//82
f 53//53 85//85 86//86
f 84//84 54//54 55//55
f 87//87 88//88 55//55
f 89//89 55//55 56//56
f 90//90 84//84 55//55
f 55//55 88//88 90//90
f 89//89 87//87 55//55
f 56//56 63//63 91//91
f 56//56 91//91 89//89
f 57//57 61//61 58//58
f 57//57 92//92 61//61
f 92//92 57//57 59//59
f 93//93 59//59 60//60
f 92//92 59//59 93//93
f 73//73 93//93 60//60
f 61//61 92//92 67//67
f 62//62 94//94 63//63
f 62//62 66//66 94//94
f 91//91 63//63 77//77
f 63//63 76//76 75//75
f 63//63 95//95 76//76
f 96//96 63//63 94//94
f 96//96 95//95 63//63
f 77//77 63//63 75//75
f 92//92 64//64 67//67
f 97//97 64//64 98//98
f 65//65 64//64 97//97
f 64//64 92//92 98//98
f 65//65 97//97 99//99
f 65//65 99//99 66//66
f 94//94 66//66 96//96
f 100//100 66//66 99//99
f 100//100 101//101 66//66
f 96//96 66//66 101//101
f 69//69 68//68 102//102
f 102//102 68//68 103//103
f 68//68 70//70 103//103
f 74//74 69//69 102//102
f 70//70 71//71 103//103
f 71//71 76//76 101//101
f 71//71 101//101 104//104
f 103//103 71//71 104//104
f 73//73 105//105 93//93
f 105//105 73//73 74//74
f 102//102 105//105 74//74
f 95//95 101//101 76//76
f 106//106 89//89 77//77
f 77//77 78//78 106//106
f 77//77 89//89 91//91
f 78//78 81//81 106//106
f 79//79 83//83 107//107
f 108//108 80//80 79//79
f 108//108 79//79 107//107
f 81//81 80//80 109//109
f 80//80 108//108 109//109
f 106//106 81//81 109//109
f 82//82 86//86 110//110
f 82//82 110//110 111//111
f 82//82 111//111 83//83
f 107//107 83//83 111//111
f 85//85 84//84 90//90
f 112//112 85//85 90//90
f 112//112 113//113 85//85
f 86//86 85//85 113//113
f 110//110 86//86 114//114
f 114//114 86//86 113//113
f 87//87 115//115 88//88
f 87//87 116//116 115//115
f 116//116 87//87 117//117
f 87//87 89//89 118//118
f 87//87 118//118 117//117
f 119//119 88//88 115//115
f 112//112 90//90 88//88
f 88//88 119//119 112//112
f 89//89 106//106 120//120
f 89//89 121//121 118//118
f 120//120 121//121 89//89
f 92//92 93//93 98//98
f 98//98 93//93 105//105
f 101//101 95//95 96//96
f 97//97 98//98 105//105
f 97//97 100//100 99//99
f 97//97 105//105 100//100
f 104//104 101//101 100//100
f 102//102 104//104 100//100
f 100//100 105//105 102//102
f 102//102 103//103 104//104
f 106//106 109//109 108//108
f 120//120 106//106 108//108
f 111//111 122//122 107//107
f 108//108 107//107 123//123
f 123//123 107//107 122//122
f 108//108 124//124 120//120
f 123//123 124//124 108//108
f 125//125 110//110 126//126
f 125//125 111//111 110//110
f 114//114 127//127 110//110
f 126//126 110//110 127//127
f 111//111 125//125 128//128
f 122//122 111//111 128//128
f 113//113 112//112 129//129
f 130//130 112//112 119//119
f 130//130 129//129 112//112
f 114//114 113//113 131//131
f 129//129 131//131 113//113
f 127//127 114//114 131//131
f 115//115 116//116 119//119
f 130//130 119//119 116//116
f 116//116 117//117 132//132
f 130//130 116//116 132//132
f 132//132 117//117 133//133
f 117//117 118//118 134//134
f 133//133 117//117 134//134
f 118//118 135//135 134//134
f 135//135 118//118 121//121
f 136//136 120//120 124//124
f 120//120 136//136 121//121
f 121//121 136//136 135//135
f 128//128 137//137 122//122
f 137//137 123//123 122//122
f 124//124 123//123 137//137
f 130//130 124//124 138//138
f 130//130 136//136 124//124
f 128//128 124//124 137//137
f 124//124 128//128 138//138
f 126//126 139//139 125//125
f 125//125 139//139 128//128
f 126//126 127//127 140//140
f 126//126 140//140 139//139
f 127//127 131//131 140//140
f 139//139 140//140 128//128
f 128//128 140//140 141//141
f 138//138 128//128 142//142
f 142//142 128//128 141//141
f 129//129 141//141 131//131
f 129//129 142//142 141//141
f 130//130 142//142 129//129
f 143//143 136//136 130//130
f 133//133 130//130 132//132
f 130//130 133//133 143//143
f 138//138 142//142 130//130
f 141//141 140//140 131//131
f 133//133 134//134 135//135
f 143//143 133//133 135//135
f 136//136 143//143 135//135
