# Generated by Visualization Toolkit
v 0.025451000779867172 -0.10177300125360489 0.05094200000166893
v 0.026316000148653984 -0.10638199746608734 0.04967299848794937
v 0.02792000025510788 -0.10194599628448486 0.05104300007224083
v 0.027705000713467598 -0.10107000172138214 0.05142899975180626
v 0.024754999205470085 -0.0995590016245842 0.05158400163054466
v 0.0236820001155138 -0.10150499641895294 0.049605999141931534
v 0.024799000471830368 -0.10824699699878693 0.04778800159692764
v 0.0291920006275177 -0.10302499681711197 0.050269998610019684
v 0.0291920006275177 -0.10233200341463089 0.05032600089907646
v 0.026014000177383423 -0.10957600176334381 0.04762300103902817
v 0.027045000344514847 -0.1086369976401329 0.04843199998140335
v 0.02863300032913685 -0.1012289971113205 0.05098000168800354
v 0.025620000436902046 -0.09762799739837646 0.05293300002813339
v 0.027938000857830048 -0.09740400314331055 0.05316400155425072
v 0.02812100015580654 -0.10031399875879288 0.051426999270915985
v 0.024792000651359558 -0.09753099828958511 0.052646998316049576
v 0.0228240005671978 -0.09763199836015701 0.049330998212099075
v 0.022942999377846718 -0.09958600252866745 0.04899600148200989
v 0.023509999737143517 -0.10447099804878235 0.048229001462459564
v 0.022933000698685646 -0.10195299983024597 0.04735900089144707
v 0.02582399919629097 -0.11073499917984009 0.0467119999229908
v 0.023785000666975975 -0.10976599901914597 0.046153001487255096
v 0.02920600026845932 -0.10607600212097168 0.049564000219106674
v 0.02967200055718422 -0.1033250018954277 0.05012200027704239
v 0.029644999653100967 -0.1023240014910698 0.049897998571395874
v 0.029920000582933426 -0.10291200131177902 0.04995499923825264
v 0.029039999470114708 -0.10162100195884705 0.05053099989891052
v 0.02751700021326542 -0.11016599833965302 0.04808099940419197
v 0.028464000672101974 -0.10025499761104584 0.05105200037360191
v 0.028586000204086304 -0.1009719967842102 0.049943000078201294
v 0.02828799933195114 -0.0999390035867691 0.04980599880218506
v 0.028477000072598457 -0.10001499950885773 0.05049100145697594
v 0.026743000373244286 -0.09551999717950821 0.05521300062537193
v 0.024598000571131706 -0.09513299912214279 0.05440500006079674
v 0.027381999418139458 -0.09542299807071686 0.0551070012152195
v 0.02906399965286255 -0.09664099663496017 0.05273500084877014
v 0.021338000893592834 -0.09344100207090378 0.0529169999063015
v 0.022159000858664513 -0.09492699801921844 0.05112399905920029
v 0.022830000147223473 -0.09870699793100357 0.04889899864792824
v 0.022794000804424286 -0.09765899926424026 0.048760998994112015
v 0.022846000269055367 -0.09953399747610092 0.04844199866056442
v 0.022393999621272087 -0.10542599856853485 0.0459819994866848
v 0.022481000050902367 -0.1022460013628006 0.04640600085258484
v 0.02289400063455105 -0.1009029969573021 0.0469839982688427
v 0.022725999355316162 -0.10135400295257568 0.04661399871110916
v 0.02693299949169159 -0.11157199740409851 0.0458110012114048
v 0.02595899999141693 -0.11143799871206284 0.04532000049948692
v 0.024366000667214394 -0.11064399778842926 0.04461099952459335
v 0.023970000445842743 -0.11000899970531464 0.04449800029397011
v 0.030022000893950462 -0.10753200203180313 0.048229001462459564
v 0.029454000294208527 -0.10999000072479248 0.04741799831390381
v 0.030355999246239662 -0.10341600328683853 0.04956100136041641
v 0.028978999704122543 -0.10173200070858002 0.04981699958443642
v 0.029566999524831772 -0.10237500071525574 0.048955000936985016
v 0.029975000768899918 -0.1025879979133606 0.049430001527071
v 0.028526000678539276 -0.11121799796819687 0.04670900106430054
v 0.02863200008869171 -0.10211300104856491 0.048872001469135284
v 0.02654300071299076 -0.10188800096511841 0.047540001571178436
v 0.029013000428676605 -0.09685400128364563 0.05086800083518028
v 0.028790999203920364 -0.09570299834012985 0.05052800104022026
v 0.02930399961769581 -0.09639599919319153 0.05208799988031387
v 0.025022000074386597 -0.09436599910259247 0.05607299879193306
v 0.027526000514626503 -0.0948610007762909 0.05606500059366226
v 0.028637999668717384 -0.09416300058364868 0.056062001734972
v 0.03062799945473671 -0.09397199749946594 0.05488799884915352
v 0.030724000185728073 -0.09399200230836868 0.05305600166320801
v 0.021317999809980392 -0.09230300039052963 0.05627899989485741
v 0.019641000777482986 -0.09260600060224533 0.052611999213695526
v 0.021052999421954155 -0.09347300231456757 0.051934998482465744
v 0.02428700029850006 -0.09376499801874161 0.057218998670578
v 0.022144999355077744 -0.09478899836540222 0.04962100088596344
v 0.020501000806689262 -0.09298700094223022 0.05141700059175491
v 0.023219000548124313 -0.09847299754619598 0.04825799912214279
v 0.02341499924659729 -0.09709099680185318 0.04772099852561951
v 0.02327599935233593 -0.09981799870729446 0.047412000596523285
v 0.02331399917602539 -0.09898500144481659 0.048138998448848724
v 0.02266800031065941 -0.10521300137042999 0.04483700171113014
v 0.022512000054121017 -0.10176099836826324 0.045896001160144806
v 0.024000000208616257 -0.10050400346517563 0.04696999862790108
v 0.023811999708414078 -0.10177700221538544 0.04590899869799614
v 0.023056000471115112 -0.10128799825906754 0.04600999876856804
v 0.02670999988913536 -0.11079200357198715 0.045207999646663666
v 0.028394000604748726 -0.11099100112915039 0.04625900089740753
v 0.024845000356435776 -0.10952600091695786 0.04423899948596954
v 0.02400200068950653 -0.10761500149965286 0.04402200132608414
v 0.03044399991631508 -0.10430199652910233 0.04839299991726875
v 0.029740000143647194 -0.10872399806976318 0.04697199910879135
v 0.030198000371456146 -0.10284599661827087 0.04893700033426285
v 0.029743999242782593 -0.10290300101041794 0.048457998782396317
v 0.026778999716043472 -0.10460799932479858 0.04629199951887131
v 0.024229999631643295 -0.09407400339841843 0.047579001635313034
v 0.02628600038588047 -0.09408500045537949 0.048464998602867126
v 0.024737000465393066 -0.10081099718809128 0.047251999378204346
v 0.024932000786066055 -0.0994969978928566 0.0475660003721714
v 0.030717000365257263 -0.09313599765300751 0.052567001432180405
v 0.029464000836014748 -0.09172599762678146 0.05139299854636192
v 0.030189000070095062 -0.09293799847364426 0.05180799961090088
v 0.026166999712586403 -0.09426700323820114 0.05763600021600723
v 0.02711400017142296 -0.09442400187253952 0.05738300085067749
v 0.03030100092291832 -0.09350699931383133 0.05623000115156174
v 0.029624000191688538 -0.09312400221824646 0.057162001729011536
v 0.0311879999935627 -0.09292300045490265 0.05557100102305412
v 0.03131600096821785 -0.09217599779367447 0.05368899926543236
v 0.01887499913573265 -0.09073399752378464 0.053415000438690186
v 0.02096099965274334 -0.09123700112104416 0.05664699897170067
v 0.01991499960422516 -0.09070099890232086 0.05580899864435196
v 0.022187000140547752 -0.09089399874210358 0.057509999722242355
v 0.024952000007033348 -0.09318599849939346 0.058348000049591064
v 0.019533000886440277 -0.09205599874258041 0.05186999961733818
v 0.02165599912405014 -0.09352199733257294 0.04957899823784828
v 0.019770000129938126 -0.09192900359630585 0.050221998244524
v 0.01905299909412861 -0.09113900363445282 0.05131800100207329
v 0.02384299971163273 -0.09909199923276901 0.047850001603364944
v 0.022460000589489937 -0.09386099874973297 0.047784000635147095
v 0.02196500077843666 -0.09383100271224976 0.04828700050711632
v 0.02336299978196621 -0.1037139967083931 0.044718001037836075
v 0.02339800074696541 -0.10196399688720703 0.04550199955701828
v 0.02699499949812889 -0.10905499756336212 0.04500199854373932
v 0.02213899977505207 -0.09307199716567993 0.047616999596357346
v 0.02366499975323677 -0.09162600338459015 0.047175999730825424
v 0.030376000329852104 -0.09130100160837173 0.05209700018167496
v 0.030222000554203987 -0.09219799935817719 0.05204100161790848
v 0.023567000404000282 -0.09018599987030029 0.047641001641750336
v 0.023354999721050262 -0.0892999991774559 0.048266999423503876
v 0.02349800057709217 -0.09091699868440628 0.04751399904489517
v 0.026180999353528023 -0.09251700341701508 0.05850199982523918
v 0.027494000270962715 -0.09370499849319458 0.058125000447034836
v 0.030378000810742378 -0.0927089974284172 0.05651199817657471
v 0.030762000009417534 -0.09179899841547012 0.055309999734163284
v 0.02764900028705597 -0.09285300225019455 0.058285001665353775
v 0.030549999326467514 -0.09091299772262573 0.052838001400232315
v 0.02252900041639805 -0.09135500341653824 0.05690699815750122
v 0.018775999546051025 -0.09081699699163437 0.05234000086784363
v 0.019440000876784325 -0.09086800366640091 0.05358700081706047
v 0.020911000669002533 -0.09074299782514572 0.05672699958086014
v 0.024809999391436577 -0.09184599667787552 0.05840200185775757
v 0.019781000912189484 -0.0922359973192215 0.0492589995265007
v 0.019391000270843506 -0.09159500151872635 0.04913099855184555
v 0.01941400021314621 -0.09121300280094147 0.0502530001103878
v 0.019380999729037285 -0.09051500260829926 0.04940799996256828
v 0.021570999175310135 -0.0931129977107048 0.048023998737335205
v 0.020200999453663826 -0.09194199740886688 0.04784499853849411
v 0.02269200049340725 -0.09149900078773499 0.047168999910354614
v 0.02092299982905388 -0.09170699864625931 0.047474998980760574
v 0.030101999640464783 -0.09036300331354141 0.05289199948310852
v 0.027925999835133553 -0.08950900286436081 0.051656998693943024
v 0.021888000890612602 -0.08982499688863754 0.04770100116729736
v 0.020295999944210052 -0.0897660031914711 0.048597000539302826
v 0.022703999653458595 -0.08921699970960617 0.048948999494314194
v 0.025056999176740646 -0.0889580026268959 0.050195999443531036
v 0.027560999616980553 -0.09223999828100204 0.05804299935698509
v 0.029426999390125275 -0.0913970023393631 0.05471400171518326
v 0.030389999970793724 -0.09053599834442139 0.053651001304388046
v 0.01999500021338463 -0.0907370001077652 0.05297499895095825
v 0.023670999333262444 -0.09155900031328201 0.05323699861764908
v 0.024235999211668968 -0.09157200157642365 0.053977999836206436
v 0.019291000440716743 -0.09056700021028519 0.05275899916887283
v 0.019826000556349754 -0.092119000852108 0.04846800118684769
v 0.019548000767827034 -0.0914049968123436 0.04835199937224388
v 0.019652999937534332 -0.0906519964337349 0.048505999147892
v 0.024625999853014946 -0.09057699888944626 0.05077100172638893
v 0.02469399943947792 -0.09097599983215332 0.051511000841856
v 0.020044999197125435 -0.09121400117874146 0.0478769987821579
v 0.020867999643087387 -0.09092900156974792 0.04751399904489517
v 0.029721999540925026 -0.0901390016078949 0.05312800034880638
v 0.027255000546574593 -0.09084700047969818 0.05243400111794472
v 0.026362000033259392 -0.08916600048542023 0.05104999989271164
v 0.02606699988245964 -0.0900460034608841 0.051575999706983566
v 0.025940999388694763 -0.09154199808835983 0.053592998534440994
v 0.024772999808192253 -0.09131500124931335 0.053203001618385315
v 0.024507999420166016 -0.09145200252532959 0.05276700109243393
v 0.025249000638723373 -0.09149300307035446 0.053227998316287994
v 0.025179000571370125 -0.09108799695968628 0.052528999745845795
v 0.025993000715970993 -0.09098199754953384 0.05223099887371063
vn -0.34541696310043335 -0.3480299413204193 0.871528685092926
vn -0.10402458906173706 -0.371593177318573 0.9225494265556335
vn 0.20543627440929413 -0.34728091955184937 0.9149819612503052
vn 0.14965902268886566 -0.3797241449356079 0.9129137992858887
vn -0.3879159092903137 -0.40660005807876587 0.8271624445915222
vn -0.7672190070152283 -0.253067284822464 0.5893487930297852
vn -0.540153443813324 -0.3881921172142029 0.7466868162155151
vn 0.22984030842781067 -0.08836332708597183 0.9692086577415466
vn 0.48397505283355713 -0.16874609887599945 0.8586575984954834
vn -0.37432003021240234 -0.46858930587768555 0.8001927733421326
vn -0.14542584121227264 -0.3555792272090912 0.9232631325721741
vn 0.8432031869888306 0.04163173586130142 0.5359806418418884
vn -0.2205503284931183 -0.5513766407966614 0.8045752048492432
vn 0.34460994601249695 -0.5380421280860901 0.7692559957504272
vn 0.6259411573410034 -0.26563507318496704 0.7332364320755005
vn -0.6320000886917114 -0.4744099974632263 0.612789511680603
vn -0.9242571592330933 -0.20510759949684143 0.3219931721687317
vn -0.9451889991760254 -0.14125263690948486 0.29438987374305725
vn -0.8240838050842285 -0.17678123712539673 0.5381767153739929
vn -0.9559746384620667 -0.04250407963991165 0.29035457968711853
vn -0.39481478929519653 -0.6885952353477478 0.608241617679596
vn -0.7394936680793762 -0.5486003160476685 0.3901112675666809
vn 0.28662192821502686 -0.31569159030914307 0.9045367240905762
vn 0.4537886679172516 -0.10219535231590271 0.8852298259735107
vn 0.7681121826171875 0.4947339594364166 0.4064996838569641
vn 0.6516046524047852 0.25841498374938965 0.71318519115448
vn 0.8671985268592834 0.4067232310771942 0.2873031795024872
vn -0.10130888223648071 -0.5897963047027588 0.8011721968650818
vn 0.9295156002044678 -0.08092567324638367 0.35979390144348145
vn 0.8223313093185425 0.4707235097885132 -0.31967267394065857
vn 0.9103728532791138 0.052161943167448044 -0.4104878902435303
vn 0.9926990270614624 -0.09392327070236206 -0.07567685097455978
vn -0.07079268991947174 -0.7573421001434326 0.6491696834564209
vn -0.43963006138801575 -0.6501162052154541 0.6197373270988464
vn 0.3806944787502289 -0.7241649627685547 0.5750277042388916
vn 0.7845907211303711 -0.47567978501319885 0.39767590165138245
vn -0.5650560855865479 -0.762740433216095 0.31454524397850037
vn -0.833246111869812 -0.5308119654655457 0.15472450852394104
vn -0.9907807111740112 -0.06670444458723068 0.11791542172431946
vn -0.9621484875679016 -0.08834543079137802 -0.25780877470970154
vn -0.9506220817565918 0.10782398283481598 -0.2910185158252716
vn -0.9822521805763245 -0.16457684338092804 0.08997257053852081
vn -0.9785739779472351 0.058162346482276917 0.1975099891424179
vn -0.6669400334358215 0.5834419131278992 -0.46345067024230957
vn -0.9171373844146729 0.394064724445343 0.059765852987766266
vn 0.13603106141090393 -0.9819139242172241 -0.1316836178302765
vn -0.142276331782341 -0.9142701625823975 -0.37929877638816833
vn -0.45429831743240356 -0.6928671598434448 -0.5599536895751953
vn -0.7380942106246948 -0.3269538879394531 -0.59018474817276
vn 0.9093437194824219 -0.24975813925266266 0.33273816108703613
vn 0.737514853477478 -0.5015950798988342 0.4521884322166443
vn 0.8860586881637573 0.052351970225572586 0.46060749888420105
vn 0.6771116256713867 0.681770920753479 -0.2769622802734375
vn 0.4905778169631958 0.8002018332481384 -0.344978928565979
vn 0.7752714157104492 0.6170921325683594 0.13472817838191986
vn 0.6146065592765808 -0.7879458069801331 -0.037418220192193985
vn 0.42641735076904297 0.636590838432312 -0.64258873462677
vn 0.49607160687446594 0.23242898285388947 -0.8365941047668457
vn 0.9252604246139526 -0.16772685945034027 -0.3402363359928131
vn 0.7593667507171631 -0.021367928013205528 -0.6503118872642517
vn 0.9228866100311279 -0.38347145915031433 0.03507024422287941
vn -0.3308011591434479 -0.8574808239936829 0.3940775990486145
vn 0.13734325766563416 -0.8918002247810364 0.43107908964157104
vn 0.39965584874153137 -0.8085403442382812 0.4319000542163849
vn 0.6898051500320435 -0.6612942218780518 0.2947184145450592
vn 0.9156308770179749 -0.3580537438392639 -0.18280498683452606
vn -0.6067503690719604 -0.593107283115387 0.5292238593101501
vn -0.7059754133224487 -0.7069255709648132 0.04306894540786743
vn -0.632304847240448 -0.7676828503608704 0.1041807234287262
vn -0.4149400591850281 -0.8172773718833923 0.3998529314994812
vn -0.9090080857276917 -0.3334867060184479 -0.2499820739030838
vn -0.7484565377235413 -0.6372995972633362 -0.18347233533859253
vn -0.6574960947036743 0.0034360489808022976 -0.7534499764442444
vn -0.6764671802520752 -0.17625471949577332 -0.7150708436965942
vn -0.26048743724823 0.6084412336349487 -0.7496302723884583
vn -0.5614249110221863 0.3351462185382843 -0.7566234469413757
vn -0.8360933065414429 -0.003428403288125992 -0.5485765933990479
vn -0.7409491539001465 0.4128830134868622 -0.5296432375907898
vn 0.24199886620044708 0.603156566619873 -0.7600253820419312
vn 0.3617086112499237 0.6623327732086182 -0.6561114192008972
vn -0.1849452257156372 0.8040292263031006 -0.5650948882102966
vn 0.3707452118396759 -0.35286274552345276 -0.8590901494026184
vn 0.5902665257453918 -0.39081981778144836 -0.7062897682189941
vn 0.13394083082675934 -0.23409503698349 -0.9629431366920471
vn -0.00794758927077055 0.05975872278213501 -0.9981812238693237
vn 0.8372505307197571 0.1648392528295517 -0.5213823914527893
vn 0.8624212145805359 -0.17754706740379333 -0.4740324020385742
vn 0.793225109577179 0.5419734716415405 -0.2775947153568268
vn 0.42394936084747314 0.5512556433677673 -0.7185987234115601
vn 0.45012667775154114 0.38829323649406433 -0.8041232824325562
vn 0.042047083377838135 -0.06097849830985069 -0.9972530007362366
vn 0.5467667579650879 0.08628520369529724 -0.832827091217041
vn 0.2870319187641144 0.4392986297607422 -0.8512516021728516
vn -0.06678543984889984 0.06203269213438034 -0.9958372116088867
vn 0.8379336595535278 -0.08067580312490463 -0.5397764444351196
vn 0.6008498072624207 0.20757538080215454 -0.7719404101371765
vn 0.7418684959411621 0.0670938715338707 -0.6671802401542664
vn -0.13195174932479858 -0.7991955280303955 0.5864086747169495
vn 0.2815919518470764 -0.8378561735153198 0.4676569104194641
vn 0.6593095660209656 -0.4742046892642975 0.5834729671478271
vn 0.5313871502876282 -0.484537810087204 0.6948747634887695
vn 0.9031878113746643 -0.09176375716924667 0.4193226099014282
vn 0.988273024559021 0.0591646172106266 -0.14076930284500122
vn -0.9259019494056702 0.34711694717407227 0.14904849231243134
vn -0.5922466516494751 -0.31149184703826904 0.7431128621101379
vn -0.7452583312988281 0.32097700238227844 0.5844345092773438
vn -0.37645840644836426 0.21885381639003754 0.9002122282981873
vn -0.2998907268047333 -0.4112425148487091 0.8607816696166992
vn -0.8364322185516357 -0.5260146260261536 -0.15391452610492706
vn -0.7928469777107239 -0.598617434501648 -0.11423972249031067
vn -0.8012003302574158 -0.5983937382698059 0.0017699535237625241
vn -0.867117702960968 -0.4508552551269531 -0.2117462009191513
vn -0.3009033203125 0.20071524381637573 -0.932293176651001
vn -0.4466843903064728 -0.2959108352661133 -0.8443398475646973
vn -0.7422617077827454 -0.5371646881103516 -0.4006265103816986
vn -0.07708019018173218 0.2906542718410492 -0.953718364238739
vn 0.16810248792171478 0.5098974704742432 -0.8436505794525146
vn 0.4705308973789215 0.043862245976924896 -0.8812927603721619
vn -0.2494678944349289 -0.3381432294845581 -0.9074276089668274
vn 0.26084208488464355 0.10903530567884445 -0.9592041373252869
vn 0.7040678262710571 0.2928831875324249 -0.6469218730926514
vn 0.7153486013412476 0.04868049919605255 -0.6970699429512024
vn 0.32391056418418884 0.35969188809394836 -0.8750450015068054
vn 0.2354562133550644 0.7757242918014526 -0.5855017304420471
vn 0.3764101564884186 0.2943512201309204 -0.878449022769928
vn 0.05318039655685425 -0.11167597025632858 0.9923206567764282
vn 0.19404029846191406 -0.5081272721290588 0.8391395211219788
vn 0.6095092296600342 0.3849649131298065 0.693037211894989
vn 0.6984512805938721 0.5435307025909424 0.4655535817146301
vn 0.3526623547077179 0.2302536517381668 0.9069798588752747
vn 0.8470689654350281 0.5049622654914856 -0.16579271852970123
vn 0.2462323009967804 0.959097146987915 -0.13965082168579102
vn -0.9314992427825928 0.3628581464290619 0.025359196588397026
vn -0.004370674025267363 0.9894936084747314 0.14451023936271667
vn -0.2976871132850647 0.8265545964241028 0.4776921272277832
vn 0.1498335599899292 0.7383749485015869 0.6575348973274231
vn -0.7043090462684631 -0.70689457654953 -0.06518224626779556
vn -0.9466029405593872 -0.3195837140083313 -0.04253477230668068
vn -0.9414607882499695 -0.3251212239265442 -0.08915024995803833
vn -0.6831459999084473 0.7256771326065063 0.08188008517026901
vn -0.5585352778434753 -0.6200388669967651 -0.5509900450706482
vn -0.5472008585929871 -0.3882927894592285 -0.7414848804473877
vn -0.005900641903281212 0.10423249751329422 -0.9945354461669922
vn -0.30366018414497375 -0.12335855513811111 -0.9447608590126038
vn 0.6072973608970642 0.7472437620162964 -0.26984575390815735
vn 0.25137415528297424 0.9667432308197021 0.04710227623581886
vn -0.11934681236743927 0.5527241826057434 -0.8247742056846619
vn -0.45669832825660706 0.7687488198280334 -0.4477185904979706
vn -0.2559211254119873 0.8981567025184631 0.357517808675766
vn -0.07329525798559189 0.9760804176330566 0.20468252897262573
vn 0.1463039219379425 0.8816114664077759 0.4487275183200836
vn -0.015550512820482254 0.8532525300979614 0.5212660431861877
vn 0.5173534154891968 0.8124375343322754 0.2688692808151245
vn 0.1530078500509262 0.9818337559700012 0.11221052706241608
vn 0.018532227724790573 0.9949008822441101 0.09914043545722961
vn 0.07410262525081635 0.9873024225234985 0.14050902426242828
vn -0.19497984647750854 0.9614995121955872 0.1936529278755188
vn -0.7318956255912781 -0.5917383432388306 -0.3378971517086029
vn -0.8727152347564697 -0.07262453436851501 -0.4827978312969208
vn -0.7620763182640076 0.3803284466266632 -0.5240132212638855
vn -0.3819689154624939 0.6385180354118347 0.6681274771690369
vn -0.2597532570362091 0.8511232137680054 0.456199049949646
vn -0.5606321692466736 0.1718961000442505 -0.8100267052650452
vn -0.328338623046875 0.26435428857803345 -0.906813383102417
vn 0.0430741161108017 0.9139566421508789 0.4035193920135498
vn -0.23534661531448364 0.7974616885185242 0.5555778741836548
vn -0.32740750908851624 0.7348423600196838 0.5939788222312927
vn -0.28241047263145447 0.5634555220603943 0.7763776779174805
vn -0.10110689699649811 0.948508083820343 0.30018290877342224
vn -0.07037723064422607 0.975824236869812 0.20691537857055664
vn -0.25853726267814636 0.957624614238739 0.12693917751312256
vn 0.09811095893383026 0.9096152782440186 0.4037005603313446
vn -0.14519570767879486 0.9389147758483887 0.31202125549316406
vn -0.17182809114456177 0.8390503525733948 0.5162069201469421
f 1//1 2//2 3//3
f 1//1 4//4 5//5
f 6//6 1//1 5//5
f 3//3 4//4 1//1
f 1//1 7//7 2//2
f 6//6 7//7 1//1
f 8//8 9//9 2//2
f 2//2 10//10 11//11
f 9//9 3//3 2//2
f 11//11 8//8 2//2
f 2//2 7//7 10//10
f 9//9 12//12 3//3
f 4//4 3//3 12//12
f 13//13 4//4 14//14
f 13//13 5//5 4//4
f 4//4 12//12 15//15
f 14//14 4//4 15//15
f 16//16 5//5 13//13
f 5//5 16//16 6//6
f 17//17 6//6 16//16
f 17//17 18//18 6//6
f 19//19 6//6 20//20
f 18//18 20//20 6//6
f 6//6 19//19 7//7
f 10//10 7//7 21//21
f 22//22 21//21 7//7
f 19//19 22//22 7//7
f 8//8 11//11 23//23
f 24//24 8//8 23//23
f 8//8 25//25 9//9
f 24//24 26//26 8//8
f 26//26 25//25 8//8
f 27//27 9//9 25//25
f 27//27 12//12 9//9
f 10//10 21//21 28//28
f 28//28 11//11 10//10
f 28//28 23//23 11//11
f 15//15 12//12 29//29
f 30//30 12//12 27//27
f 31//31 12//12 30//30
f 32//32 29//29 12//12
f 32//32 12//12 31//31
f 33//33 13//13 14//14
f 34//34 16//16 13//13
f 34//34 13//13 33//33
f 14//14 35//35 33//33
f 36//36 35//35 14//14
f 36//36 14//14 15//15
f 29//29 36//36 15//15
f 16//16 37//37 38//38
f 34//34 37//37 16//16
f 17//17 16//16 38//38
f 39//39 17//17 40//40
f 18//18 17//17 39//39
f 40//40 17//17 38//38
f 20//20 18//18 41//41
f 41//41 18//18 39//39
f 42//42 19//19 43//43
f 19//19 42//42 22//22
f 20//20 43//43 19//19
f 44//44 20//20 41//41
f 45//45 43//43 20//20
f 45//45 20//20 44//44
f 46//46 28//28 21//21
f 22//22 47//47 21//21
f 46//46 21//21 47//47
f 47//47 22//22 48//48
f 49//49 48//48 22//22
f 42//42 49//49 22//22
f 50//50 23//23 51//51
f 52//52 23//23 50//50
f 24//24 23//23 52//52
f 51//51 23//23 28//28
f 24//24 52//52 26//26
f 27//27 25//25 53//53
f 53//53 25//25 54//54
f 55//55 54//54 25//25
f 26//26 55//55 25//25
f 52//52 55//55 26//26
f 53//53 30//30 27//27
f 28//28 46//46 56//56
f 51//51 28//28 56//56
f 36//36 29//29 32//32
f 53//53 57//57 30//30
f 58//58 30//30 57//57
f 30//30 58//58 31//31
f 59//59 31//31 60//60
f 60//60 31//31 58//58
f 31//31 59//59 32//32
f 36//36 32//32 61//61
f 61//61 32//32 59//59
f 33//33 62//62 34//34
f 63//63 33//33 35//35
f 33//33 63//63 62//62
f 62//62 37//37 34//34
f 63//63 35//35 64//64
f 64//64 35//35 65//65
f 35//35 36//36 65//65
f 65//65 36//36 66//66
f 36//36 61//61 66//66
f 37//37 67//67 68//68
f 69//69 38//38 37//37
f 68//68 69//69 37//37
f 70//70 67//67 37//37
f 70//70 37//37 62//62
f 71//71 40//40 38//38
f 72//72 38//38 69//69
f 71//71 38//38 72//72
f 40//40 41//41 39//39
f 41//41 40//40 73//73
f 40//40 71//71 74//74
f 40//40 74//74 73//73
f 75//75 44//44 41//41
f 41//41 73//73 76//76
f 41//41 76//76 75//75
f 77//77 49//49 42//42
f 43//43 77//77 42//42
f 43//43 45//45 78//78
f 43//43 78//78 77//77
f 44//44 75//75 79//79
f 44//44 79//79 80//80
f 81//81 45//45 44//44
f 81//81 44//44 80//80
f 78//78 45//45 81//81
f 82//82 83//83 46//46
f 83//83 56//56 46//46
f 46//46 47//47 82//82
f 84//84 82//82 47//47
f 84//84 47//47 48//48
f 48//48 49//49 84//84
f 77//77 85//85 49//49
f 84//84 49//49 85//85
f 52//52 50//50 86//86
f 50//50 87//87 86//86
f 87//87 50//50 51//51
f 87//87 51//51 56//56
f 88//88 52//52 86//86
f 52//52 88//88 55//55
f 57//57 53//53 54//54
f 55//55 88//88 54//54
f 88//88 89//89 54//54
f 89//89 57//57 54//54
f 87//87 56//56 83//83
f 89//89 90//90 57//57
f 90//90 58//58 57//57
f 58//58 91//91 92//92
f 92//92 60//60 58//58
f 93//93 58//58 90//90
f 94//94 91//91 58//58
f 94//94 58//58 93//93
f 66//66 61//61 59//59
f 66//66 59//59 60//60
f 66//66 60//60 95//95
f 92//92 96//96 60//60
f 97//97 60//60 96//96
f 60//60 97//97 95//95
f 63//63 98//98 62//62
f 98//98 70//70 62//62
f 63//63 64//64 99//99
f 63//63 99//99 98//98
f 100//100 101//101 64//64
f 99//99 64//64 101//101
f 65//65 100//100 64//64
f 100//100 65//65 102//102
f 66//66 103//103 65//65
f 102//102 65//65 103//103
f 103//103 66//66 95//95
f 104//104 68//68 67//67
f 105//105 106//106 67//67
f 67//67 106//106 104//104
f 67//67 107//107 105//105
f 107//107 67//67 108//108
f 108//108 67//67 70//70
f 72//72 69//69 68//68
f 68//68 109//109 72//72
f 109//109 68//68 104//104
f 108//108 70//70 98//98
f 71//71 72//72 110//110
f 71//71 110//110 74//74
f 111//111 72//72 112//112
f 109//109 112//112 72//72
f 110//110 72//72 111//111
f 76//76 73//73 113//113
f 74//74 113//113 73//73
f 114//114 91//91 74//74
f 114//114 74//74 115//115
f 110//110 115//115 74//74
f 91//91 94//94 74//74
f 113//113 74//74 94//94
f 76//76 113//113 75//75
f 93//93 75//75 113//113
f 75//75 93//93 79//79
f 77//77 116//116 85//85
f 78//78 116//116 77//77
f 78//78 117//117 116//116
f 117//117 78//78 81//81
f 93//93 90//90 79//79
f 79//79 90//90 80//80
f 90//90 117//117 80//80
f 117//117 81//81 80//80
f 82//82 118//118 83//83
f 84//84 118//118 82//82
f 83//83 118//118 87//87
f 84//84 85//85 118//118
f 90//90 85//85 116//116
f 90//90 118//118 85//85
f 89//89 86//86 90//90
f 86//86 87//87 118//118
f 118//118 90//90 86//86
f 88//88 86//86 89//89
f 116//116 117//117 90//90
f 119//119 91//91 114//114
f 91//91 119//119 120//120
f 120//120 92//92 91//91
f 96//96 92//92 120//120
f 113//113 94//94 93//93
f 103//103 95//95 121//121
f 122//122 121//121 95//95
f 97//97 122//122 95//95
f 122//122 96//96 121//121
f 123//123 124//124 96//96
f 125//125 123//123 96//96
f 125//125 96//96 120//120
f 96//96 124//124 121//121
f 97//97 96//96 122//122
f 126//126 98//98 127//127
f 108//108 98//98 126//126
f 127//127 98//98 99//99
f 127//127 99//99 101//101
f 101//101 100//100 128//128
f 100//100 102//102 129//129
f 100//100 129//129 128//128
f 128//128 130//130 101//101
f 101//101 130//130 127//127
f 102//102 103//103 129//129
f 131//131 129//129 103//103
f 103//103 121//121 131//131
f 132//132 104//104 106//106
f 109//109 104//104 133//133
f 134//134 104//104 132//132
f 133//133 104//104 134//134
f 107//107 135//135 105//105
f 135//135 106//106 105//105
f 132//132 106//106 135//135
f 107//107 108//108 136//136
f 132//132 135//135 107//107
f 136//136 132//132 107//107
f 136//136 108//108 126//126
f 112//112 109//109 133//133
f 137//137 110//110 111//111
f 110//110 137//137 115//115
f 111//111 138//138 137//137
f 112//112 139//139 111//111
f 139//139 138//138 111//111
f 133//133 140//140 112//112
f 139//139 112//112 140//140
f 119//119 114//114 141//141
f 114//114 115//115 141//141
f 141//141 115//115 137//137
f 141//141 142//142 119//119
f 143//143 120//120 119//119
f 143//143 119//119 144//144
f 119//119 142//142 144//144
f 120//120 143//143 125//125
f 145//145 131//131 121//121
f 145//145 121//121 146//146
f 124//124 146//146 121//121
f 147//147 123//123 143//143
f 143//143 123//123 125//125
f 123//123 147//147 124//124
f 148//148 124//124 147//147
f 149//149 124//124 148//148
f 149//149 150//150 124//124
f 146//146 124//124 150//150
f 126//126 127//127 130//130
f 136//136 126//126 130//130
f 128//128 151//151 130//130
f 128//128 129//129 152//152
f 128//128 152//152 151//151
f 153//153 152//152 129//129
f 153//153 129//129 131//131
f 151//151 136//136 130//130
f 145//145 153//153 131//131
f 154//154 134//134 132//132
f 154//154 132//132 155//155
f 132//132 136//136 156//156
f 156//156 155//155 132//132
f 134//134 157//157 133//133
f 140//140 133//133 157//157
f 134//134 154//154 157//157
f 136//136 151//151 156//156
f 137//137 138//138 158//158
f 141//141 137//137 158//158
f 139//139 140//140 138//138
f 138//138 140//140 159//159
f 138//138 159//159 158//158
f 148//148 160//160 140//140
f 160//160 159//159 140//140
f 157//157 154//154 140//140
f 140//140 149//149 148//148
f 140//140 161//161 149//149
f 140//140 154//154 155//155
f 162//162 140//140 155//155
f 161//161 140//140 162//162
f 142//142 141//141 158//158
f 158//158 159//159 142//142
f 163//163 142//142 159//159
f 163//163 144//144 142//142
f 164//164 143//143 144//144
f 147//147 143//143 164//164
f 164//164 144//144 163//163
f 153//153 145//145 165//165
f 165//165 145//145 146//146
f 166//166 165//165 146//146
f 167//167 146//146 150//150
f 146//146 167//167 168//168
f 168//168 166//166 146//146
f 148//148 147//147 164//164
f 148//148 163//163 160//160
f 148//148 164//164 163//163
f 150//150 149//149 161//161
f 167//167 150//150 161//161
f 166//166 169//169 151//151
f 151//151 152//152 166//166
f 169//169 156//156 151//151
f 165//165 152//152 153//153
f 152//152 165//165 166//166
f 155//155 156//156 170//170
f 171//171 155//155 170//170
f 162//162 155//155 171//171
f 169//169 172//172 156//156
f 172//172 170//170 156//156
f 163//163 159//159 160//160
f 167//167 161//161 162//162
f 162//162 171//171 173//173
f 168//168 167//167 162//162
f 174//174 168//168 162//162
f 174//174 162//162 173//173
f 174//174 169//169 166//166
f 166//166 168//168 174//174
f 172//172 169//169 173//173
f 169//169 174//174 173//173
f 170//170 172//172 173//173
f 171//171 170//170 173//173
