# Generated by Visualization Toolkit
v -0.005640000104904175 -0.017322000116109848 0.013969000428915024
v -0.009151999838650227 -0.01857900060713291 0.011381000280380249
v -0.008341999724507332 -0.01818300038576126 0.014596999622881413
v -0.004191000014543533 -0.018031999468803406 0.013093000277876854
v -0.0013620000099763274 -0.019175000488758087 0.013395999558269978
v -0.007000999990850687 -0.018644999712705612 0.01496300008147955
v -0.0050050001591444016 -0.01788800023496151 0.012335999868810177
v -0.012865999713540077 -0.021554000675678253 0.01278700027614832
v -0.007563000079244375 -0.020459000021219254 0.007416999898850918
v -0.007019999902695417 -0.018928999081254005 0.009347000159323215
v -0.010092999786138535 -0.022502999752759933 0.006132000125944614
v -0.011256000027060509 -0.023327000439167023 0.006808999925851822
v -0.012423999607563019 -0.0226259995251894 0.016287999227643013
v -0.0029060000088065863 -0.018124999478459358 0.011901999823749065
v -0.003984999842941761 -0.022220000624656677 0.015604999847710133
v -0.0011149999918416142 -0.018735000863671303 0.011971999891102314
v -0.000022000000171829015 -0.020572999492287636 0.01425199955701828
v -0.013952000066637993 -0.025191999971866608 0.01628899946808815
v -0.015116999857127666 -0.02812499925494194 0.009670999832451344
v -0.011296999640762806 -0.026951000094413757 0.0037430000957101583
v -0.004253999795764685 -0.02000799961388111 0.008510000072419643
v -0.00394099997356534 -0.02395699918270111 0.005820999853312969
v -0.002581000095233321 -0.01880599930882454 0.010178999975323677
v -0.012474000453948975 -0.028571000322699547 0.004127999767661095
v -0.014417000114917755 -0.028937000781297684 0.007007999811321497
v -0.00849399995058775 -0.023871999233961105 0.01629900000989437
v -0.005123000126332045 -0.0236859992146492 0.016152000054717064
v -0.0012240000069141388 -0.02507600001990795 0.01596900075674057
v -0.0006699999794363976 -0.02259800024330616 0.016138000413775444
v -0.0009749999735504389 -0.01885100081562996 0.010677999816834927
v 0.00006399999983841553 -0.0192709993571043 0.011494000442326069
v 0.0031240000389516354 -0.02004699967801571 0.012582999654114246
v -0.015018000267446041 -0.029889000579714775 0.011884000152349472
v -0.009015999734401703 -0.025609999895095825 0.015159999951720238
v -0.014657000079751015 -0.03139900043606758 0.008937000297009945
v -0.010598000138998032 -0.029688000679016113 0.0035929998848587275
v -0.008554999716579914 -0.02875800058245659 0.003450999967753887
v -0.0005430000019259751 -0.023222999647259712 0.007837999612092972
v 0.0003929999948013574 -0.020715000107884407 0.009053999558091164
v 0.0004349999944679439 -0.025272000581026077 0.008174999617040157
v -0.0051449998281896114 -0.026982000097632408 0.004534999839961529
v -0.0021200000774115324 -0.025546999648213387 0.006657000165432692
v 0.00016199999663513154 -0.019605999812483788 0.010178999975323677
v -0.013585999608039856 -0.03169099986553192 0.006527000106871128
v -0.012060999870300293 -0.030866000801324844 0.004507000092417002
v -0.0050929998978972435 -0.026480000466108322 0.015521000139415264
v -0.002013999968767166 -0.02675200067460537 0.016318999230861664
v 0.00025099999038502574 -0.026604000478982925 0.014826999977231026
v 0.0011879999656230211 -0.023096000775694847 0.015731999650597572
v 0.003037000074982643 -0.020042000338435173 0.009983000345528126
v 0.0016870000399649143 -0.02517399936914444 0.01423100009560585
v -0.005381000228226185 -0.02775299921631813 0.013415999710559845
v -0.004604000132530928 -0.028867999091744423 0.008963000029325485
v -0.00949500035494566 -0.029858000576496124 0.004317999817430973
v -0.010577999986708164 -0.03082999959588051 0.005160000175237656
v 0.003134000115096569 -0.020913999527692795 0.00947600044310093
v -0.002701000077649951 -0.027031999081373215 0.006591999903321266
v 0.0026680000592023134 -0.02672800049185753 0.009571000002324581
v -0.003522000042721629 -0.02811799943447113 0.0075170001946389675
v 0.0003110000106971711 -0.028087999671697617 0.014933999627828598
v 0.001560000004246831 -0.028111999854445457 0.012978999875485897
v 0.0025339999701827765 -0.02638399973511696 0.012281999923288822
v -0.0014459999511018395 -0.02873300015926361 0.010161999613046646
v -0.000805000017862767 -0.028193999081850052 0.008836000226438046
v 0.0023769999388605356 -0.027334000915288925 0.009885000064969063
vn 0.12535792589187622 0.9708673357963562 0.2042105346918106
vn -0.41589754819869995 0.8543068766593933 -0.31175142526626587
vn -0.38408905267715454 0.7997199892997742 0.46143639087677
vn 0.3007921278476715 0.953620433807373 0.011495430953800678
vn 0.3488529622554779 0.7623595595359802 0.5450775027275085
vn 0.10691425949335098 0.41584905982017517 0.9031272530555725
vn 0.06616098433732986 0.9719347357749939 -0.2257554531097412
vn -0.7988693714141846 0.6013111472129822 -0.015250957570970058
vn -0.027475805953145027 0.6808063983917236 -0.7319480180740356
vn -0.05910488963127136 0.8976718187332153 -0.4366828203201294
vn -0.43946024775505066 0.6395337581634521 -0.6307703256607056
vn -0.7462101578712463 0.5092668533325195 -0.4287394881248474
vn -0.23458170890808105 0.38210487365722656 0.8938497304916382
vn 0.20100848376750946 0.9778345227241516 -0.058611828833818436
vn 0.05871253088116646 0.3552969992160797 0.9329078197479248
vn 0.3767370581626892 0.9198384881019592 0.10939082503318787
vn 0.25776582956314087 0.7524711489677429 0.6060889959335327
vn -0.649825930595398 -0.09047017246484756 0.7546796798706055
vn -0.9701421856880188 0.19331471621990204 -0.14647039771080017
vn -0.2417449653148651 0.34641438722610474 -0.9063975214958191
vn 0.20116814970970154 0.5967667102813721 -0.7767888307571411
vn 0.3019210994243622 0.3402922749519348 -0.8905306458473206
vn 0.16001196205615997 0.839953601360321 -0.5185306668281555
vn -0.6791199445724487 0.04159291461110115 -0.7328479886054993
vn -0.9026856422424316 0.09123946726322174 -0.4205161929130554
vn 0.007785632740706205 -0.24414700269699097 0.9697069525718689
vn 0.021936770528554916 0.06965860724449158 0.9973296523094177
vn 0.20250849425792694 -0.0238447654992342 0.9789901971817017
vn 0.13093504309654236 0.37738072872161865 0.916754961013794
vn 0.3040415048599243 0.9205451607704163 -0.24526597559452057
vn 0.3245621621608734 0.9439049959182739 0.06084847450256348
vn 0.619229793548584 0.5904561281204224 0.5176061391830444
vn -0.35463979840278625 -0.7540241479873657 0.5528815984725952
vn -0.03378565236926079 -0.6556227803230286 0.7543324828147888
vn -0.7352052927017212 -0.6778032779693604 0.007467346265912056
vn 0.011683193035423756 -0.4761109948158264 -0.8793076276779175
vn 0.2376355230808258 -0.18877173960208893 -0.9528350830078125
vn 0.319278746843338 0.2953864336013794 -0.9004486799240112
vn 0.16240838170051575 0.5773590207099915 -0.8001750707626343
vn 0.4842577278614044 -0.010152301751077175 -0.8748664259910583
vn 0.5204795002937317 -0.3716031014919281 -0.7687731981277466
vn 0.5485280156135559 -0.027463383972644806 -0.835681140422821
vn 0.2305559664964676 0.8335234522819519 -0.5020782351493835
vn -0.4217835068702698 -0.8214427828788757 -0.3838363289833069
vn -0.21046607196331024 -0.6590237617492676 -0.7220746874809265
vn -0.1786927580833435 -0.5505252480506897 0.8154696822166443
vn 0.10929260402917862 -0.3487568199634552 0.9308188557624817
vn 0.6120413541793823 -0.1605919897556305 0.7743485569953918
vn 0.5343567728996277 -0.06911079585552216 0.842428982257843
vn 0.827692985534668 0.5234326124191284 -0.20234282314777374
vn 0.8527377247810364 -0.22111289203166962 0.4732307493686676
vn -0.08807864785194397 -0.8901559114456177 0.44706210494041443
vn 0.21457277238368988 -0.9709464907646179 0.10593124479055405
vn 0.4028228521347046 -0.7645264863967896 -0.503222644329071
vn 0.3101092278957367 -0.8911173343658447 -0.33127352595329285
vn 0.5471771955490112 0.2002466470003128 -0.8127104640007019
vn 0.4812277853488922 -0.45415839552879333 -0.7497733235359192
vn 0.8198420405387878 -0.32639816403388977 -0.4704500436782837
vn 0.3395366370677948 -0.8418188691139221 -0.4195900857448578
vn 0.3366400897502899 -0.7340313792228699 0.5898060202598572
vn 0.7277584671974182 -0.5796595811843872 0.36655494570732117
vn 0.9439423680305481 -0.22729553282260895 0.2393941581249237
vn 0.13687826693058014 -0.9873360395431519 -0.08019965887069702
vn 0.31711068749427795 -0.7868320345878601 -0.5294678211212158
vn 0.6444322466850281 -0.7383688688278198 -0.19879291951656342
f 1//1 2//2 3//3
f 4//4 1//1 5//5
f 6//6 1//1 3//3
f 1//1 7//7 2//2
f 6//6 5//5 1//1
f 7//7 1//1 4//4
f 8//8 3//3 2//2
f 9//9 2//2 10//10
f 2//2 9//9 11//11
f 2//2 11//11 12//12
f 8//8 2//2 12//12
f 10//10 2//2 7//7
f 3//3 13//13 6//6
f 8//8 13//13 3//3
f 5//5 14//14 4//4
f 14//14 7//7 4//4
f 5//5 6//6 15//15
f 5//5 16//16 14//14
f 17//17 16//16 5//5
f 15//15 17//17 5//5
f 15//15 6//6 13//13
f 14//14 10//10 7//7
f 18//18 8//8 19//19
f 13//13 8//8 18//18
f 8//8 12//12 19//19
f 20//20 11//11 9//9
f 9//9 21//21 22//22
f 20//20 9//9 22//22
f 10//10 23//23 9//9
f 23//23 21//21 9//9
f 14//14 23//23 10//10
f 20//20 12//12 11//11
f 24//24 12//12 20//20
f 12//12 25//25 19//19
f 25//25 12//12 24//24
f 13//13 18//18 26//26
f 13//13 26//26 27//27
f 15//15 13//13 27//27
f 23//23 14//14 16//16
f 27//27 28//28 15//15
f 28//28 29//29 15//15
f 15//15 29//29 17//17
f 16//16 30//30 23//23
f 30//30 16//16 31//31
f 17//17 31//31 16//16
f 17//17 29//29 32//32
f 32//32 31//31 17//17
f 18//18 19//19 33//33
f 34//34 18//18 33//33
f 34//34 26//26 18//18
f 19//19 35//35 33//33
f 25//25 35//35 19//19
f 36//36 20//20 37//37
f 24//24 20//20 36//36
f 20//20 22//22 37//37
f 38//38 22//22 21//21
f 39//39 21//21 23//23
f 21//21 39//39 38//38
f 40//40 22//22 38//38
f 22//22 41//41 37//37
f 42//42 41//41 22//22
f 42//42 22//22 40//40
f 43//43 23//23 30//30
f 43//43 39//39 23//23
f 44//44 24//24 45//45
f 24//24 44//44 25//25
f 45//45 24//24 36//36
f 25//25 44//44 35//35
f 26//26 34//34 46//46
f 46//46 27//27 26//26
f 46//46 47//47 27//27
f 47//47 28//28 27//27
f 28//28 48//48 49//49
f 28//28 47//47 48//48
f 29//29 28//28 49//49
f 49//49 32//32 29//29
f 30//30 31//31 43//43
f 32//32 50//50 31//31
f 50//50 43//43 31//31
f 51//51 50//50 32//32
f 32//32 49//49 51//51
f 34//34 33//33 52//52
f 33//33 35//35 53//53
f 53//53 52//52 33//33
f 52//52 46//46 34//34
f 44//44 53//53 35//35
f 36//36 37//37 54//54
f 55//55 45//45 36//36
f 55//55 36//36 54//54
f 37//37 41//41 54//54
f 56//56 38//38 39//39
f 56//56 40//40 38//38
f 43//43 50//50 39//39
f 50//50 56//56 39//39
f 57//57 42//42 40//40
f 56//56 58//58 40//40
f 58//58 57//57 40//40
f 59//59 54//54 41//41
f 41//41 42//42 57//57
f 41//41 57//57 59//59
f 45//45 55//55 44//44
f 55//55 53//53 44//44
f 52//52 47//47 46//46
f 60//60 48//48 47//47
f 52//52 60//60 47//47
f 61//61 48//48 60//60
f 48//48 61//61 51//51
f 51//51 49//49 48//48
f 50//50 62//62 58//58
f 62//62 50//50 51//51
f 50//50 58//58 56//56
f 62//62 51//51 61//61
f 52//52 53//53 63//63
f 63//63 60//60 52//52
f 59//59 53//53 55//55
f 63//63 53//53 59//59
f 59//59 55//55 54//54
f 59//59 57//57 64//64
f 57//57 58//58 64//64
f 65//65 58//58 62//62
f 58//58 65//65 64//64
f 63//63 59//59 64//64
f 63//63 61//61 60//60
f 65//65 62//62 61//61
f 61//61 63//63 65//65
f 64//64 65//65 63//63
