# 
# Wavefront OBJ file
# Converted by the DEEP Exploration 2.00.1211
# Right Hemisphere, LTD
# http://www.righthemisphere.com/
# 
mtllib capitate_r.mtl
# object Object #0
g Object__0
v -0.001492 0.000146 0.006483
v -0.000748 -0.000247 0.005918
v -0.000814 0.00634 0.005295
v -0.002626 0.012072 0.005469
v -0.010114 0.000468 0.00514
v -0.015149 -0.00815 0.001522
v -0.004225 -0.009111 0.004203
v -0.001291 -0.008902 0.005352
v 0.000268 -0.000349 0.004592
v -0.000276 0.002722 0.004211
v 0.000205 0.002926 0.002616
v -4.7e-005 0.006862 0.002673
v -0.007997 0.008535 0.005065
v -0.000926 0.012192 0.000881
v -0.01021 0.000594 0.003223
v -0.014962 -0.007756 -0.002016
v -0.014491 -0.008602 -0.004044
v -0.014459 -0.010307 -0.004654
v -0.001389 -0.009861 0.000511
v -0.000358 -0.00667 0.004114
v -0.000392 -0.009216 0.001784
v 0.000173 -0.001557 0.002192
v 0.001051 0.002488 -0.000152
v 0.000759 0.005559 -0.001892
v -0.009653 0.010516 0.000411
v -0.010073 0.004784 0.003887
v 0.001207 0.010482 -0.006364
v -0.010824 0.000786 0.000175
v -0.014224 -0.004029 -0.002433
v -0.013176 -0.003147 -0.003238
v -0.013045 -0.002892 -0.004397
v -0.014504 -0.007593 -0.00626
v -0.011304 -0.010506 -0.008681
v -0.005034 -0.008889 -0.006183
v -0.000749 -0.007452 0.002035
v -0.000609 -0.007369 -0.000967
v -5e-005 -0.005411 0.001025
v -4.2e-005 -0.002601 0.00064
v 0.001508 0.000337 0.000649
v 0.000509 0.000572 -0.002406
v -0.010399 0.006982 0.000349
v -0.006982 0.007725 -0.008731
v -0.010782 0.002548 0.000183
v -0.000228 0.001604 -0.004506
v -0.011804 4.7e-005 -0.002675
v -0.012074 -0.001566 -0.004632
v -0.011688 -0.001995 -0.006096
v -0.010266 -0.002356 -0.008543
v -0.001768 -0.00297 -0.005322
v -0.000407 -0.003306 -0.001977
v -0.009601 0.005368 -0.004808
v -0.010946 0.003641 -0.001588
v -0.009066 0.00235 -0.00827
v -0.010331 0.003539 -0.002659
v -0.010347 0.000864 -0.003787
v -0.010311 0.001119 -0.00579
# 56 verticies
vn 0.17922 -0.097408 0.978975
vn 0.622705 -0.025553 0.782039
vn 0.853612 0.110264 0.509106
vn 0.372361 0.398545 0.838158
vn -0.69469 0.225697 0.682983
vn -0.821172 -0.291951 0.490349
vn -0.074335 -0.710148 0.700118
vn 0.592808 -0.543451 0.594339
vn 0.94489 0.012781 0.327138
vn 0.954551 0.089047 0.284434
vn 0.956697 0.019833 0.290409
vn 0.953485 0.171093 0.248181
vn -0.641483 0.480562 0.597963
vn 0.504039 0.844443 0.181276
vn -0.902091 0.239272 0.359139
vn -0.967229 0.220657 -0.125609
vn -0.993833 0.076592 -0.080182
vn -0.666683 -0.744575 -0.033796
vn 0.286417 -0.957273 -0.039927
vn 0.994253 -0.082259 0.068513
vn 0.938066 -0.31735 -0.138999
vn 0.980387 -0.048513 0.191017
vn 0.878619 0.199862 0.433686
vn 0.983131 0.136154 0.122126
vn -0.687807 0.725255 0.030435
vn -0.918494 0.08896 0.385298
vn 0.78461 0.412774 -0.462606
vn -0.951848 0.21606 0.217492
vn -0.914283 0.388075 -0.116119
vn -0.887225 0.288428 -0.360057
vn -0.907722 0.384487 -0.167962
vn -0.889762 0.188257 -0.415791
vn -0.331893 -0.488306 -0.807096
vn 0.621171 -0.400621 -0.673535
vn 0.999159 -0.040547 0.00607
vn 0.939553 -0.223115 -0.259732
vn 0.992381 -0.12234 -0.014565
vn 0.965264 -0.244179 -0.092966
vn 0.974073 -0.043722 0.221971
vn 0.943002 -0.211053 -0.257301
vn -0.971866 0.227695 -0.060267
vn -0.523203 0.350505 -0.776792
vn -0.977895 0.075331 0.195054
vn 0.671725 -0.205963 -0.711593
vn -0.891931 0.397971 -0.214659
vn -0.748027 0.529681 -0.399867
vn -0.799756 0.391503 -0.455099
vn -0.327057 0.142716 -0.934166
vn 0.659068 -0.139525 -0.739028
vn 0.949053 -0.165215 -0.268333
vn -0.920778 0.219154 -0.322707
vn -0.97237 0.142916 -0.184584
vn -0.376783 0.13415 -0.916536
vn -0.913077 0.133383 -0.385356
vn -0.853085 0.41909 -0.31082
vn -0.939933 0.255109 -0.226814
# 56 normals
usemtl Material__1
f  1//1 2//2 3//3
f  1//1 3//3 4//4
f  5//5 1//1 4//4
f  6//6 7//7 1//1
f  6//6 1//1 5//5
f  7//7 2//2 1//1
f  7//7 8//8 2//2
f  2//2 9//9 10//10
f  2//2 10//10 3//3
f  8//8 9//9 2//2
f  3//3 10//10 11//11
f  3//3 11//11 12//12
f  4//4 3//3 12//12
f  5//5 4//4 13//13
f  4//4 12//12 14//14
f  13//13 4//4 14//14
f  15//15 5//5 13//13
f  16//16 6//6 5//5
f  16//16 5//5 15//15
f  17//17 18//18 6//6
f  17//17 6//6 16//16
f  18//18 7//7 6//6
f  18//18 19//19 7//7
f  19//19 8//8 7//7
f  8//8 20//20 9//9
f  19//19 21//21 8//8
f  21//21 20//20 8//8
f  22//22 10//10 9//9
f  22//22 9//9 20//20
f  22//22 11//11 10//10
f  12//12 11//11 23//23
f  22//22 23//23 11//11
f  12//12 23//23 24//24
f  14//14 12//12 24//24
f  13//13 14//14 25//25
f  15//15 13//13 26//26
f  26//26 13//13 25//25
f  14//14 24//24 27//27
f  25//25 14//14 27//27
f  28//28 15//15 26//26
f  29//29 16//16 15//15
f  29//29 15//15 28//28
f  30//30 17//17 16//16
f  30//30 16//16 29//29
f  31//31 32//32 17//17
f  31//31 17//17 30//30
f  32//32 18//18 17//17
f  32//32 33//33 18//18
f  33//33 19//19 18//18
f  33//33 34//34 19//19
f  34//34 21//21 19//19
f  21//21 35//35 20//20
f  22//22 20//20 35//35
f  34//34 36//36 21//21
f  36//36 35//35 21//21
f  22//22 35//35 37//37
f  22//22 37//37 38//38
f  22//22 38//38 39//39
f  22//22 39//39 23//23
f  24//24 23//23 39//39
f  24//24 39//39 40//40
f  27//27 24//24 40//40
f  26//26 25//25 41//41
f  25//25 27//27 42//42
f  41//41 25//25 42//42
f  28//28 26//26 43//43
f  43//43 26//26 41//41
f  27//27 40//40 44//44
f  42//42 27//27 44//44
f  28//28 43//43 45//45
f  29//29 28//28 45//45
f  30//30 29//29 45//45
f  31//31 30//30 45//45
f  46//46 32//32 31//31
f  46//46 31//31 45//45
f  46//46 47//47 32//32
f  47//47 33//33 32//32
f  47//47 48//48 33//33
f  48//48 34//34 33//33
f  48//48 49//49 34//34
f  49//49 36//36 34//34
f  36//36 37//37 35//35
f  49//49 50//50 36//36
f  50//50 37//37 36//36
f  50//50 38//38 37//37
f  40//40 39//39 38//38
f  40//40 38//38 50//50
f  44//44 40//40 50//50
f  41//41 42//42 51//51
f  43//43 41//41 52//52
f  52//52 41//41 51//51
f  42//42 44//44 53//53
f  51//51 42//42 53//53
f  43//43 52//52 45//45
f  44//44 50//50 49//49
f  53//53 44//44 49//49
f  52//52 54//54 45//45
f  54//54 55//55 45//45
f  55//55 46//46 45//45
f  55//55 47//47 46//46
f  56//56 48//48 47//47
f  55//55 56//56 47//47
f  53//53 49//49 48//48
f  56//56 53//53 48//48
f  52//52 51//51 54//54
f  51//51 53//53 56//56
f  54//54 51//51 56//56
f  54//54 56//56 55//55
