#VRML V2.0 utf8
Transform {
children [
Shape {
appearance Appearance {
              material DEF surface Material {
              diffuseColor 0.8 0.8 0.8
              ambientIntensity 0.2
              specularColor 0.4 0.4 0.4
              emissiveColor 0 0 0
              shininess 0.25
              transparency 0
            }
          }
geometry IndexedFaceSet {
solid FALSE
coord DEF bone Coordinate {
point [
 -0.001492	  0.000146	  0.006483,
 -0.000748	 -0.000247	  0.005918,
 -0.000814	  0.006340	  0.005295,
 -0.002626	  0.012072	  0.005469,
 -0.010114	  0.000468	  0.005140,
 -0.015149	 -0.008150	  0.001522,
 -0.004225	 -0.009111	  0.004203,
 -0.001291	 -0.008902	  0.005352,
  0.000268	 -0.000349	  0.004592,
 -0.000276	  0.002722	  0.004211,
  0.000205	  0.002926	  0.002616,
 -0.000047	  0.006862	  0.002673,
 -0.007997	  0.008535	  0.005065,
 -0.000926	  0.012192	  0.000881,
 -0.010210	  0.000594	  0.003223,
 -0.014962	 -0.007756	 -0.002016,
 -0.014491	 -0.008602	 -0.004044,
 -0.014459	 -0.010307	 -0.004654,
 -0.001389	 -0.009861	  0.000511,
 -0.000358	 -0.006670	  0.004114,
 -0.000392	 -0.009216	  0.001784,
  0.000173	 -0.001557	  0.002192,
  0.001051	  0.002488	 -0.000152,
  0.000759	  0.005559	 -0.001892,
 -0.009653	  0.010516	  0.000411,
 -0.010073	  0.004784	  0.003887,
  0.001207	  0.010482	 -0.006364,
 -0.010824	  0.000786	  0.000175,
 -0.014224	 -0.004029	 -0.002433,
 -0.013176	 -0.003147	 -0.003238,
 -0.013045	 -0.002892	 -0.004397,
 -0.014504	 -0.007593	 -0.006260,
 -0.011304	 -0.010506	 -0.008681,
 -0.005034	 -0.008889	 -0.006183,
 -0.000749	 -0.007452	  0.002035,
 -0.000609	 -0.007369	 -0.000967,
 -0.000050	 -0.005411	  0.001025,
 -0.000042	 -0.002601	  0.000640,
  0.001508	  0.000337	  0.000649,
  0.000509	  0.000572	 -0.002406,
 -0.010399	  0.006982	  0.000349,
 -0.006982	  0.007725	 -0.008731,
 -0.010782	  0.002548	  0.000183,
 -0.000228	  0.001604	 -0.004506,
 -0.011804	  0.000047	 -0.002675,
 -0.012074	 -0.001566	 -0.004632,
 -0.011688	 -0.001995	 -0.006096,
 -0.010266	 -0.002356	 -0.008543,
 -0.001768	 -0.002970	 -0.005322,
 -0.000407	 -0.003306	 -0.001977,
 -0.009601	  0.005368	 -0.004808,
 -0.010946	  0.003641	 -0.001588,
 -0.009066	  0.002350	 -0.008270,
 -0.010331	  0.003539	 -0.002659,
 -0.010347	  0.000864	 -0.003787,
 -0.010311	  0.001119	 -0.005790,
]
}
coordIndex [
   0,	   1,	   2, -1
   0,	   2,	   3, -1
   4,	   0,	   3, -1
   5,	   6,	   0, -1
   5,	   0,	   4, -1
   6,	   1,	   0, -1
   6,	   7,	   1, -1
   1,	   8,	   9, -1
   1,	   9,	   2, -1
   7,	   8,	   1, -1
   2,	   9,	  10, -1
   2,	  10,	  11, -1
   3,	   2,	  11, -1
   4,	   3,	  12, -1
   3,	  11,	  13, -1
  12,	   3,	  13, -1
  14,	   4,	  12, -1
  15,	   5,	   4, -1
  15,	   4,	  14, -1
  16,	  17,	   5, -1
  16,	   5,	  15, -1
  17,	   6,	   5, -1
  17,	  18,	   6, -1
  18,	   7,	   6, -1
   7,	  19,	   8, -1
  18,	  20,	   7, -1
  20,	  19,	   7, -1
  21,	   9,	   8, -1
  21,	   8,	  19, -1
  21,	  10,	   9, -1
  11,	  10,	  22, -1
  21,	  22,	  10, -1
  11,	  22,	  23, -1
  13,	  11,	  23, -1
  12,	  13,	  24, -1
  14,	  12,	  25, -1
  25,	  12,	  24, -1
  13,	  23,	  26, -1
  24,	  13,	  26, -1
  27,	  14,	  25, -1
  28,	  15,	  14, -1
  28,	  14,	  27, -1
  29,	  16,	  15, -1
  29,	  15,	  28, -1
  30,	  31,	  16, -1
  30,	  16,	  29, -1
  31,	  17,	  16, -1
  31,	  32,	  17, -1
  32,	  18,	  17, -1
  32,	  33,	  18, -1
  33,	  20,	  18, -1
  20,	  34,	  19, -1
  21,	  19,	  34, -1
  33,	  35,	  20, -1
  35,	  34,	  20, -1
  21,	  34,	  36, -1
  21,	  36,	  37, -1
  21,	  37,	  38, -1
  21,	  38,	  22, -1
  23,	  22,	  38, -1
  23,	  38,	  39, -1
  26,	  23,	  39, -1
  25,	  24,	  40, -1
  24,	  26,	  41, -1
  40,	  24,	  41, -1
  27,	  25,	  42, -1
  42,	  25,	  40, -1
  26,	  39,	  43, -1
  41,	  26,	  43, -1
  27,	  42,	  44, -1
  28,	  27,	  44, -1
  29,	  28,	  44, -1
  30,	  29,	  44, -1
  45,	  31,	  30, -1
  45,	  30,	  44, -1
  45,	  46,	  31, -1
  46,	  32,	  31, -1
  46,	  47,	  32, -1
  47,	  33,	  32, -1
  47,	  48,	  33, -1
  48,	  35,	  33, -1
  35,	  36,	  34, -1
  48,	  49,	  35, -1
  49,	  36,	  35, -1
  49,	  37,	  36, -1
  39,	  38,	  37, -1
  39,	  37,	  49, -1
  43,	  39,	  49, -1
  40,	  41,	  50, -1
  42,	  40,	  51, -1
  51,	  40,	  50, -1
  41,	  43,	  52, -1
  50,	  41,	  52, -1
  42,	  51,	  44, -1
  43,	  49,	  48, -1
  52,	  43,	  48, -1
  51,	  53,	  44, -1
  53,	  54,	  44, -1
  54,	  45,	  44, -1
  54,	  46,	  45, -1
  55,	  47,	  46, -1
  54,	  55,	  46, -1
  52,	  48,	  47, -1
  55,	  52,	  47, -1
  51,	  50,	  53, -1
  50,	  52,	  55, -1
  53,	  50,	  55, -1
  53,	  55,	  54, -1
]
colorPerVertex FALSE
colorIndex [
1,
1,
1,
1,
1,
1,
1,
1,
1,
1,
1,
1,
1,
1,
1,
1,
1,
1,
1,
1,
1,
1,
1,
1,
1,
1,
1,
1,
1,
1,
1,
1,
1,
1,
1,
1,
1,
1,
1,
1,
1,
1,
1,
1,
1,
1,
1,
1,
1,
1,
1,
1,
1,
1,
1,
1,
]
normal Normal {
vector [
  0.179220	 -0.097408	  0.978975,
  0.622705	 -0.025553	  0.782039,
  0.853611	  0.110264	  0.509106,
  0.372361	  0.398545	  0.838158,
 -0.694690	  0.225697	  0.682983,
 -0.821172	 -0.291951	  0.490349,
 -0.074335	 -0.710148	  0.700118,
  0.592808	 -0.543451	  0.594339,
  0.944890	  0.012781	  0.327138,
  0.954551	  0.089047	  0.284434,
  0.956697	  0.019833	  0.290409,
  0.953485	  0.171093	  0.248181,
 -0.641483	  0.480562	  0.597963,
  0.504039	  0.844443	  0.181276,
 -0.902091	  0.239272	  0.359139,
 -0.967229	  0.220657	 -0.125609,
 -0.993833	  0.076592	 -0.080182,
 -0.666683	 -0.744575	 -0.033796,
  0.286417	 -0.957273	 -0.039927,
  0.994253	 -0.082259	  0.068513,
  0.938066	 -0.317350	 -0.138999,
  0.980387	 -0.048513	  0.191017,
  0.878619	  0.199862	  0.433686,
  0.983131	  0.136154	  0.122126,
 -0.687807	  0.725255	  0.030435,
 -0.918494	  0.088960	  0.385298,
  0.784610	  0.412774	 -0.462606,
 -0.951848	  0.216060	  0.217492,
 -0.914283	  0.388075	 -0.116119,
 -0.887225	  0.288428	 -0.360057,
 -0.907722	  0.384487	 -0.167962,
 -0.889762	  0.188257	 -0.415791,
 -0.331893	 -0.488306	 -0.807096,
  0.621171	 -0.400621	 -0.673535,
  0.999159	 -0.040547	  0.006070,
  0.939553	 -0.223115	 -0.259732,
  0.992381	 -0.122340	 -0.014565,
  0.965264	 -0.244179	 -0.092966,
  0.974073	 -0.043722	  0.221971,
  0.943002	 -0.211053	 -0.257301,
 -0.971866	  0.227695	 -0.060267,
 -0.523203	  0.350505	 -0.776792,
 -0.977895	  0.075331	  0.195054,
  0.671725	 -0.205963	 -0.711593,
 -0.891931	  0.397971	 -0.214659,
 -0.748027	  0.529681	 -0.399867,
 -0.799756	  0.391503	 -0.455099,
 -0.327057	  0.142716	 -0.934166,
  0.659068	 -0.139525	 -0.739028,
  0.949053	 -0.165215	 -0.268333,
 -0.920778	  0.219154	 -0.322707,
 -0.972370	  0.142916	 -0.184584,
 -0.376783	  0.134150	 -0.916536,
 -0.913077	  0.133383	 -0.385356,
 -0.853086	  0.419090	 -0.310820,
 -0.939933	  0.255109	 -0.226814,
]
}
normalIndex [
   0,	   1,	   2, -1
   0,	   2,	   3, -1
   4,	   0,	   3, -1
   5,	   6,	   0, -1
   5,	   0,	   4, -1
   6,	   1,	   0, -1
   6,	   7,	   1, -1
   1,	   8,	   9, -1
   1,	   9,	   2, -1
   7,	   8,	   1, -1
   2,	   9,	  10, -1
   2,	  10,	  11, -1
   3,	   2,	  11, -1
   4,	   3,	  12, -1
   3,	  11,	  13, -1
  12,	   3,	  13, -1
  14,	   4,	  12, -1
  15,	   5,	   4, -1
  15,	   4,	  14, -1
  16,	  17,	   5, -1
  16,	   5,	  15, -1
  17,	   6,	   5, -1
  17,	  18,	   6, -1
  18,	   7,	   6, -1
   7,	  19,	   8, -1
  18,	  20,	   7, -1
  20,	  19,	   7, -1
  21,	   9,	   8, -1
  21,	   8,	  19, -1
  21,	  10,	   9, -1
  11,	  10,	  22, -1
  21,	  22,	  10, -1
  11,	  22,	  23, -1
  13,	  11,	  23, -1
  12,	  13,	  24, -1
  14,	  12,	  25, -1
  25,	  12,	  24, -1
  13,	  23,	  26, -1
  24,	  13,	  26, -1
  27,	  14,	  25, -1
  28,	  15,	  14, -1
  28,	  14,	  27, -1
  29,	  16,	  15, -1
  29,	  15,	  28, -1
  30,	  31,	  16, -1
  30,	  16,	  29, -1
  31,	  17,	  16, -1
  31,	  32,	  17, -1
  32,	  18,	  17, -1
  32,	  33,	  18, -1
  33,	  20,	  18, -1
  20,	  34,	  19, -1
  21,	  19,	  34, -1
  33,	  35,	  20, -1
  35,	  34,	  20, -1
  21,	  34,	  36, -1
  21,	  36,	  37, -1
  21,	  37,	  38, -1
  21,	  38,	  22, -1
  23,	  22,	  38, -1
  23,	  38,	  39, -1
  26,	  23,	  39, -1
  25,	  24,	  40, -1
  24,	  26,	  41, -1
  40,	  24,	  41, -1
  27,	  25,	  42, -1
  42,	  25,	  40, -1
  26,	  39,	  43, -1
  41,	  26,	  43, -1
  27,	  42,	  44, -1
  28,	  27,	  44, -1
  29,	  28,	  44, -1
  30,	  29,	  44, -1
  45,	  31,	  30, -1
  45,	  30,	  44, -1
  45,	  46,	  31, -1
  46,	  32,	  31, -1
  46,	  47,	  32, -1
  47,	  33,	  32, -1
  47,	  48,	  33, -1
  48,	  35,	  33, -1
  35,	  36,	  34, -1
  48,	  49,	  35, -1
  49,	  36,	  35, -1
  49,	  37,	  36, -1
  39,	  38,	  37, -1
  39,	  37,	  49, -1
  43,	  39,	  49, -1
  40,	  41,	  50, -1
  42,	  40,	  51, -1
  51,	  40,	  50, -1
  41,	  43,	  52, -1
  50,	  41,	  52, -1
  42,	  51,	  44, -1
  43,	  49,	  48, -1
  52,	  43,	  48, -1
  51,	  53,	  44, -1
  53,	  54,	  44, -1
  54,	  45,	  44, -1
  54,	  46,	  45, -1
  55,	  47,	  46, -1
  54,	  55,	  46, -1
  52,	  48,	  47, -1
  55,	  52,	  47, -1
  51,	  50,	  53, -1
  50,	  52,	  55, -1
  53,	  50,	  55, -1
  53,	  55,	  54, -1
]
normalPerVertex FALSE
}
}
]
}
