#VRML V2.0 utf8
Transform {
children [
Shape {
appearance Appearance {
              material DEF surface Material {
              diffuseColor 0.8 0.8 0.8
              ambientIntensity 0.2
              specularColor 0.4 0.4 0.4
              emissiveColor 0 0 0
              shininess 0.25
              transparency 0
            }
          }
geometry IndexedFaceSet {
solid FALSE
coord DEF bone Coordinate {
point [
 -0.000814	  0.006340	 -0.005295,
 -0.000748	 -0.000247	 -0.005918,
 -0.001492	  0.000146	 -0.006483,
 -0.002626	  0.012072	 -0.005469,
 -0.000276	  0.002722	 -0.004211,
  0.000205	  0.002926	 -0.002616,
 -0.000047	  0.006862	 -0.002673,
 -0.004225	 -0.009111	 -0.004203,
 -0.001291	 -0.008902	 -0.005352,
  0.000268	 -0.000349	 -0.004592,
 -0.010114	  0.000468	 -0.005140,
 -0.015149	 -0.008150	 -0.001522,
 -0.007997	  0.008535	 -0.005065,
 -0.000926	  0.012192	 -0.000881,
  0.000173	 -0.001557	 -0.002192,
  0.001051	  0.002488	  0.000152,
  0.000759	  0.005559	  0.001892,
 -0.014459	 -0.010307	  0.004654,
 -0.001389	 -0.009861	 -0.000511,
 -0.000358	 -0.006670	 -0.004114,
 -0.000392	 -0.009216	 -0.001784,
 -0.010210	  0.000594	 -0.003223,
 -0.014962	 -0.007756	  0.002016,
 -0.014491	 -0.008602	  0.004044,
 -0.009653	  0.010516	 -0.000411,
 -0.010073	  0.004784	 -0.003887,
  0.001207	  0.010482	  0.006364,
 -0.000749	 -0.007452	 -0.002035,
 -0.000050	 -0.005411	 -0.001025,
 -0.000042	 -0.002601	 -0.000640,
  0.001508	  0.000337	 -0.000649,
  0.000509	  0.000572	  0.002406,
 -0.014504	 -0.007593	  0.006260,
 -0.011304	 -0.010506	  0.008681,
 -0.005034	 -0.008889	  0.006183,
 -0.000609	 -0.007369	  0.000967,
 -0.010824	  0.000786	 -0.000175,
 -0.014224	 -0.004029	  0.002433,
 -0.013176	 -0.003147	  0.003238,
 -0.013045	 -0.002892	  0.004397,
 -0.010399	  0.006982	 -0.000349,
 -0.006982	  0.007725	  0.008731,
 -0.010782	  0.002548	 -0.000183,
 -0.000228	  0.001604	  0.004506,
 -0.000407	 -0.003306	  0.001977,
 -0.012074	 -0.001566	  0.004632,
 -0.011688	 -0.001995	  0.006096,
 -0.010266	 -0.002356	  0.008543,
 -0.001768	 -0.002970	  0.005322,
 -0.011804	  0.000047	  0.002675,
 -0.009601	  0.005368	  0.004808,
 -0.010946	  0.003641	  0.001588,
 -0.009066	  0.002350	  0.008270,
 -0.010347	  0.000864	  0.003787,
 -0.010311	  0.001119	  0.005790,
 -0.010331	  0.003539	  0.002659,
]
}
coordIndex [
   0,	   1,	   2, -1
   3,	   0,	   2, -1
   0,	   4,	   1, -1
   5,	   4,	   0, -1
   6,	   5,	   0, -1
   6,	   0,	   3, -1
   2,	   1,	   7, -1
   1,	   8,	   7, -1
   4,	   9,	   1, -1
   1,	   9,	   8, -1
   3,	   2,	  10, -1
   2,	   7,	  11, -1
  10,	   2,	  11, -1
  12,	   3,	  10, -1
  13,	   6,	   3, -1
  13,	   3,	  12, -1
   9,	   4,	  14, -1
   4,	   5,	  14, -1
  15,	   5,	   6, -1
   5,	  15,	  14, -1
  16,	  15,	   6, -1
  16,	   6,	  13, -1
  11,	   7,	  17, -1
   7,	  18,	  17, -1
   7,	   8,	  18, -1
   9,	  19,	   8, -1
   8,	  20,	  18, -1
   8,	  19,	  20, -1
  19,	   9,	  14, -1
  12,	  10,	  21, -1
  10,	  11,	  22, -1
  21,	  10,	  22, -1
  11,	  17,	  23, -1
  22,	  11,	  23, -1
  24,	  13,	  12, -1
  25,	  12,	  21, -1
  24,	  12,	  25, -1
  26,	  16,	  13, -1
  26,	  13,	  24, -1
  27,	  19,	  14, -1
  28,	  27,	  14, -1
  29,	  28,	  14, -1
  30,	  29,	  14, -1
  15,	  30,	  14, -1
  30,	  15,	  16, -1
  31,	  30,	  16, -1
  31,	  16,	  26, -1
  23,	  17,	  32, -1
  17,	  33,	  32, -1
  17,	  18,	  33, -1
  18,	  34,	  33, -1
  18,	  20,	  34, -1
  19,	  27,	  20, -1
  20,	  35,	  34, -1
  20,	  27,	  35, -1
  25,	  21,	  36, -1
  21,	  22,	  37, -1
  36,	  21,	  37, -1
  22,	  23,	  38, -1
  37,	  22,	  38, -1
  23,	  32,	  39, -1
  38,	  23,	  39, -1
  40,	  24,	  25, -1
  41,	  26,	  24, -1
  41,	  24,	  40, -1
  42,	  25,	  36, -1
  40,	  25,	  42, -1
  43,	  31,	  26, -1
  43,	  26,	  41, -1
  27,	  28,	  35, -1
  35,	  28,	  44, -1
  28,	  29,	  44, -1
  29,	  30,	  31, -1
  44,	  29,	  31, -1
  44,	  31,	  43, -1
  39,	  32,	  45, -1
  32,	  46,	  45, -1
  32,	  33,	  46, -1
  33,	  47,	  46, -1
  33,	  34,	  47, -1
  34,	  48,	  47, -1
  34,	  35,	  48, -1
  35,	  44,	  48, -1
  49,	  42,	  36, -1
  49,	  36,	  37, -1
  49,	  37,	  38, -1
  49,	  38,	  39, -1
  49,	  39,	  45, -1
  50,	  41,	  40, -1
  51,	  40,	  42, -1
  50,	  40,	  51, -1
  52,	  43,	  41, -1
  52,	  41,	  50, -1
  49,	  51,	  42, -1
  48,	  44,	  43, -1
  48,	  43,	  52, -1
  49,	  45,	  53, -1
  45,	  46,	  53, -1
  46,	  47,	  54, -1
  46,	  54,	  53, -1
  47,	  48,	  52, -1
  47,	  52,	  54, -1
  49,	  55,	  51, -1
  49,	  53,	  55, -1
  55,	  50,	  51, -1
  54,	  52,	  50, -1
  54,	  50,	  55, -1
  53,	  54,	  55, -1
]
colorPerVertex FALSE
colorIndex [
1,
1,
1,
1,
1,
1,
1,
1,
1,
1,
1,
1,
1,
1,
1,
1,
1,
1,
1,
1,
1,
1,
1,
1,
1,
1,
1,
1,
1,
1,
1,
1,
1,
1,
1,
1,
1,
1,
1,
1,
1,
1,
1,
1,
1,
1,
1,
1,
1,
1,
1,
1,
1,
1,
1,
1,
]
normal Normal {
vector [
  0.853611	  0.110264	 -0.509106,
  0.622705	 -0.025553	 -0.782039,
  0.179220	 -0.097408	 -0.978975,
  0.372361	  0.398545	 -0.838158,
  0.954551	  0.089047	 -0.284434,
  0.956697	  0.019833	 -0.290409,
  0.953485	  0.171093	 -0.248181,
 -0.074335	 -0.710148	 -0.700118,
  0.592808	 -0.543451	 -0.594339,
  0.944890	  0.012781	 -0.327138,
 -0.694690	  0.225697	 -0.682983,
 -0.821172	 -0.291951	 -0.490349,
 -0.641483	  0.480562	 -0.597963,
  0.504039	  0.844443	 -0.181276,
  0.980387	 -0.048513	 -0.191017,
  0.878619	  0.199862	 -0.433686,
  0.983131	  0.136154	 -0.122126,
 -0.666683	 -0.744575	  0.033796,
  0.286417	 -0.957273	  0.039927,
  0.994253	 -0.082259	 -0.068513,
  0.938066	 -0.317350	  0.138999,
 -0.902091	  0.239272	 -0.359139,
 -0.967229	  0.220657	  0.125609,
 -0.993833	  0.076592	  0.080182,
 -0.687807	  0.725255	 -0.030435,
 -0.918494	  0.088960	 -0.385298,
  0.784610	  0.412774	  0.462606,
  0.999159	 -0.040547	 -0.006070,
  0.992381	 -0.122340	  0.014565,
  0.965264	 -0.244179	  0.092966,
  0.974073	 -0.043722	 -0.221971,
  0.943002	 -0.211053	  0.257301,
 -0.889762	  0.188257	  0.415791,
 -0.331893	 -0.488306	  0.807096,
  0.621171	 -0.400621	  0.673535,
  0.939553	 -0.223115	  0.259732,
 -0.951848	  0.216060	 -0.217492,
 -0.914283	  0.388075	  0.116119,
 -0.887225	  0.288428	  0.360057,
 -0.907722	  0.384487	  0.167962,
 -0.971866	  0.227695	  0.060267,
 -0.523203	  0.350505	  0.776792,
 -0.977895	  0.075331	 -0.195054,
  0.671725	 -0.205963	  0.711593,
  0.949053	 -0.165215	  0.268333,
 -0.748027	  0.529681	  0.399867,
 -0.799756	  0.391503	  0.455099,
 -0.327057	  0.142716	  0.934166,
  0.659068	 -0.139525	  0.739028,
 -0.891931	  0.397971	  0.214659,
 -0.920778	  0.219154	  0.322707,
 -0.972370	  0.142916	  0.184584,
 -0.376783	  0.134150	  0.916536,
 -0.853086	  0.419090	  0.310820,
 -0.939933	  0.255109	  0.226814,
 -0.913077	  0.133383	  0.385356,
]
}
normalIndex [
   0,	   1,	   2, -1
   3,	   0,	   2, -1
   0,	   4,	   1, -1
   5,	   4,	   0, -1
   6,	   5,	   0, -1
   6,	   0,	   3, -1
   2,	   1,	   7, -1
   1,	   8,	   7, -1
   4,	   9,	   1, -1
   1,	   9,	   8, -1
   3,	   2,	  10, -1
   2,	   7,	  11, -1
  10,	   2,	  11, -1
  12,	   3,	  10, -1
  13,	   6,	   3, -1
  13,	   3,	  12, -1
   9,	   4,	  14, -1
   4,	   5,	  14, -1
  15,	   5,	   6, -1
   5,	  15,	  14, -1
  16,	  15,	   6, -1
  16,	   6,	  13, -1
  11,	   7,	  17, -1
   7,	  18,	  17, -1
   7,	   8,	  18, -1
   9,	  19,	   8, -1
   8,	  20,	  18, -1
   8,	  19,	  20, -1
  19,	   9,	  14, -1
  12,	  10,	  21, -1
  10,	  11,	  22, -1
  21,	  10,	  22, -1
  11,	  17,	  23, -1
  22,	  11,	  23, -1
  24,	  13,	  12, -1
  25,	  12,	  21, -1
  24,	  12,	  25, -1
  26,	  16,	  13, -1
  26,	  13,	  24, -1
  27,	  19,	  14, -1
  28,	  27,	  14, -1
  29,	  28,	  14, -1
  30,	  29,	  14, -1
  15,	  30,	  14, -1
  30,	  15,	  16, -1
  31,	  30,	  16, -1
  31,	  16,	  26, -1
  23,	  17,	  32, -1
  17,	  33,	  32, -1
  17,	  18,	  33, -1
  18,	  34,	  33, -1
  18,	  20,	  34, -1
  19,	  27,	  20, -1
  20,	  35,	  34, -1
  20,	  27,	  35, -1
  25,	  21,	  36, -1
  21,	  22,	  37, -1
  36,	  21,	  37, -1
  22,	  23,	  38, -1
  37,	  22,	  38, -1
  23,	  32,	  39, -1
  38,	  23,	  39, -1
  40,	  24,	  25, -1
  41,	  26,	  24, -1
  41,	  24,	  40, -1
  42,	  25,	  36, -1
  40,	  25,	  42, -1
  43,	  31,	  26, -1
  43,	  26,	  41, -1
  27,	  28,	  35, -1
  35,	  28,	  44, -1
  28,	  29,	  44, -1
  29,	  30,	  31, -1
  44,	  29,	  31, -1
  44,	  31,	  43, -1
  39,	  32,	  45, -1
  32,	  46,	  45, -1
  32,	  33,	  46, -1
  33,	  47,	  46, -1
  33,	  34,	  47, -1
  34,	  48,	  47, -1
  34,	  35,	  48, -1
  35,	  44,	  48, -1
  49,	  42,	  36, -1
  49,	  36,	  37, -1
  49,	  37,	  38, -1
  49,	  38,	  39, -1
  49,	  39,	  45, -1
  50,	  41,	  40, -1
  51,	  40,	  42, -1
  50,	  40,	  51, -1
  52,	  43,	  41, -1
  52,	  41,	  50, -1
  49,	  51,	  42, -1
  48,	  44,	  43, -1
  48,	  43,	  52, -1
  49,	  45,	  53, -1
  45,	  46,	  53, -1
  46,	  47,	  54, -1
  46,	  54,	  53, -1
  47,	  48,	  52, -1
  47,	  52,	  54, -1
  49,	  55,	  51, -1
  49,	  53,	  55, -1
  55,	  50,	  51, -1
  54,	  52,	  50, -1
  54,	  50,	  55, -1
  53,	  54,	  55, -1
]
normalPerVertex FALSE
}
}
]
}
