#VRML V2.0 utf8 
Transform { 
 children [ 
    Shape { 
appearance Appearance {
              material DEF surface Material {
              diffuseColor 0.8 0.8 0.8
              ambientIntensity 0.2
              specularColor 0.4 0.4 0.4
              emissiveColor 0 0 0
              shininess 0.25
              transparency 0
            }
          }
   geometry IndexedFaceSet { 
   solid FALSE 
    coord DEF bone Coordinate{ 
     point [ 
	 -0.023067   0.020431   0.000140,
	 -0.015304   0.027309   0.000140,
	 -0.014663   0.027408  -0.003896,
	 -0.024029   0.020425   0.000140,
	 -0.014663   0.027408   0.004177,
	 -0.020401   0.012277  -0.001978,
	 -0.015545   0.026656  -0.001385,
	 -0.020402   0.012275   0.000140,
	 -0.015545   0.026656   0.001665,
	 -0.020400   0.012277   0.002258,
	 -0.009278   0.029978  -0.011364,
	 -0.015625   0.027452  -0.004624,
	 -0.018277   0.022085  -0.011012,
	 -0.026072   0.016108  -0.004913,
	 -0.031844   0.015830  -0.003498,
	 -0.037410   0.016676  -0.003289,
	 -0.037224   0.018711   0.000140,
	 -0.037410   0.016676   0.003569,
	 -0.031844   0.015830   0.003778,
	 -0.026072   0.016108   0.005193,
	 -0.018277   0.022085   0.011293,
	 -0.009278   0.029978   0.011645,
	 -0.015625   0.027452   0.004904,
	 -0.014201   0.016715  -0.009172,
	 -0.026629   0.011563  -0.006226,
	 -0.020810   0.014833  -0.011435,
	 -0.026634   0.011557   0.000140,
	 -0.026629   0.011563   0.006506,
	 -0.014201   0.016715   0.009452,
	 -0.020810   0.014833   0.011716,
	 -0.005394   0.024101  -0.011438,
	 -0.006496   0.025738  -0.012801,
	 -0.011519   0.025985  -0.021334,
	 -0.029202   0.011838  -0.005362,
	 -0.035769   0.009816  -0.005214,
	 -0.039817   0.008504  -0.005077,
	 -0.043628   0.014254  -0.004023,
	 -0.042442   0.018424   0.000140,
	 -0.043628   0.014254   0.004304,
	 -0.039817   0.008504   0.005357,
	 -0.035769   0.009816   0.005494,
	 -0.029202   0.011838   0.005642,
	 -0.011519   0.025985   0.021614,
	 -0.006496   0.025738   0.013081,
	 -0.005394   0.024101   0.011718,
	 -0.002364   0.017938  -0.010190,
	 -0.006199   0.013007  -0.009160,
	 -0.003179   0.023895  -0.019971,
	 -0.018302   0.015484  -0.021518,
	 -0.029206   0.011833   0.000140,
	 -0.014943   0.021107  -0.022931,
	 -0.019402   0.015354  -0.016221,
	 -0.002364   0.017938   0.010470,
	 -0.006199   0.013007   0.009440,
	 -0.003179   0.023895   0.020251,
	 -0.018302   0.015484   0.021798,
	 -0.014943   0.021107   0.023211,
	 -0.019402   0.015354   0.016501,
	  0.000241   0.027769  -0.009222,
	  0.000410   0.029173  -0.010242,
	 -0.002201   0.024677  -0.012255,
	 -0.000778   0.024886  -0.015519,
	 -0.004303   0.028157  -0.017592,
	 -0.008762   0.024268  -0.023228,
	 -0.001245   0.030009  -0.022017,
	 -0.035773   0.009811   0.000140,
	 -0.039821   0.008500   0.000140,
	 -0.044041   0.011084  -0.003925,
	 -0.044041   0.011084   0.004205,
	 -0.008882   0.026718   0.024080,
	 -0.001245   0.030009   0.022264,
	 -0.004303   0.028157   0.017872,
	 -0.002201   0.024677   0.012535,
	 -0.000778   0.024886   0.015799,
	  0.000410   0.029173   0.010523,
	  0.000241   0.027769   0.009502,
	 -0.005028   0.011706  -0.003823,
	  0.013453   0.007545  -0.007964,
	  0.010598   0.009384  -0.013986,
	  0.007009   0.010316  -0.015622,
	  0.004338   0.016077  -0.017152,
	 -0.000874   0.022069  -0.017037,
	 -0.003370   0.028210  -0.023925,
	 -0.002989   0.021143  -0.022826,
	 -0.001854   0.025798  -0.026025,
	 -0.004482   0.017763  -0.027959,
	 -0.001317   0.017054  -0.026899,
	  0.002199   0.021489  -0.018225,
	  0.002509   0.020445  -0.021903,
	  0.001647   0.015845  -0.024499,
	  0.003849   0.018498  -0.021155,
	 -0.006840   0.023119  -0.026208,
	 -0.005028   0.011706   0.004103,
	  0.010598   0.009384   0.014267,
	  0.013453   0.007545   0.008245,
	  0.007009   0.010316   0.015902,
	  0.004338   0.016077   0.017432,
	 -0.000874   0.022069   0.017317,
	 -0.003370   0.028210   0.024172,
	 -0.001854   0.025798   0.026271,
	 -0.003108   0.023565   0.023668,
	 -0.004482   0.017763   0.028205,
	 -0.001317   0.017054   0.027164,
	  0.002509   0.020445   0.022183,
	  0.002199   0.021489   0.018505,
	  0.003849   0.018498   0.021436,
	  0.001647   0.015845   0.024764,
	 -0.006840   0.023119   0.026474,
	  0.002994   0.031442  -0.010875,
	  0.002598   0.026495  -0.004810,
	  0.004261   0.030280  -0.013358,
	  0.001582   0.026365  -0.002229,
	 -0.005143   0.011019   0.000140,
	  0.003227   0.029602  -0.014648,
	  0.003227   0.029602   0.014928,
	  0.004261   0.030280   0.013639,
	  0.002994   0.031442   0.011156,
	  0.002598   0.026495   0.005090,
	  0.001582   0.026365   0.002509,
	  0.014738   0.007375  -0.002017,
	  0.014739   0.007524   0.000140,
	  0.015516   0.021390  -0.007018,
	  0.012423   0.023079  -0.010930,
	  0.010296   0.024842  -0.012437,
	  0.006204   0.022689  -0.016098,
	  0.004005   0.019821  -0.021709,
	 -0.000116   0.020059  -0.023513,
	 -0.002050   0.018579  -0.027407,
	  0.001580   0.017132  -0.023683,
	  0.014738   0.007375   0.002297,
	  0.015516   0.021390   0.007298,
	  0.012423   0.023079   0.011210,
	  0.010296   0.024842   0.012717,
	  0.006204   0.022689   0.016378,
	  0.004005   0.019821   0.021989,
	 -0.000058   0.018862   0.023096,
	 -0.002050   0.018579   0.027653,
	  0.001580   0.017132   0.023949,
	  0.006248   0.028865  -0.012525,
	  0.004132   0.024916   0.000140,
	  0.016393   0.021138   0.000140,
	  0.006248   0.028865   0.012805,
     ]    } 
    coordIndex [ 
	     0,      1,      2, -1 
	     2,      3,      0, -1 
	     4,      1,      0, -1 
	     0,      3,      4, -1 
	     5,      6,      1, -1 
	     7,      5,      1, -1 
	     1,      6,      2, -1 
	     1,      8,      9, -1 
	     1,      9,      7, -1 
	     4,      8,      1, -1 
	    10,      2,      6, -1 
	    10,     11,      2, -1 
	    12,      2,     11, -1 
	    13,     14,      3, -1 
	     3,     18,     19, -1 
	     8,      4,     21, -1 
	     4,     22,     21, -1 
	    22,      4,     20, -1 
	    23,      6,      5, -1 
	    10,      6,     23, -1 
	    28,      8,     21, -1 
	     9,      8,     28, -1 
	    10,     31,     32, -1 
	    12,     25,     24, -1 
	    12,     32,     25, -1 
	    14,     34,     35, -1 
	    15,     14,     35, -1 
	    35,     36,     15, -1 
	    39,     18,     17, -1 
	    17,     38,     39, -1 
	    39,     40,     18, -1 
	    27,     29,     20, -1 
	    29,     42,     20, -1 
	    42,     43,     21, -1 
	    30,     23,     45, -1 
	    45,     23,     46, -1 
	    47,     46,     23, -1 
	    25,     32,     50, -1 
	    25,     50,     51, -1 
	    25,     51,     48, -1 
	    52,     28,     44, -1 
	    53,     28,     52, -1 
	    28,     53,     54, -1 
	    56,     42,     29, -1 
	    57,     56,     29, -1 
	    55,     57,     29, -1 
	    59,     60,     30, -1 
	    60,     31,     30, -1 
	    62,     32,     31, -1 
	    32,     63,     50, -1 
	    66,     37,     35, -1 
	    67,     35,     37, -1 
	    67,     36,     35, -1 
	    36,     67,     37, -1 
	    39,     37,     66, -1 
	    37,     68,     38, -1 
	    37,     39,     68, -1 
	    39,     38,     68, -1 
	    56,     69,     42, -1 
	    43,     42,     71, -1 
	    44,     43,     72, -1 
	    44,     72,     74, -1 
	    58,     45,     46, -1 
	    58,     46,     76, -1 
	    78,     46,     79, -1 
	    79,     46,     80, -1 
	    46,     47,     80, -1 
	    47,     64,     62, -1 
	    47,     82,     64, -1 
	    47,     48,     85, -1 
	    47,     85,     86, -1 
	    47,     81,     87, -1 
	    89,     90,     47, -1 
	    90,     80,     47, -1 
	    47,     86,     89, -1 
	    51,     50,     48, -1 
	    50,     91,     48, -1 
	    91,     85,     48, -1 
	    63,     91,     50, -1 
	    53,     52,     75, -1 
	    92,     53,     75, -1 
	    95,     53,     93, -1 
	    96,     53,     95, -1 
	    96,     54,     53, -1 
	    71,     70,     54, -1 
	    70,     98,     54, -1 
	   101,     55,     54, -1 
	   102,    101,     54, -1 
	   104,     97,     54, -1 
	    54,    105,    106, -1 
	    54,     96,    105, -1 
	   106,    102,     54, -1 
	    55,     56,     57, -1 
	    55,    107,     56, -1 
	    55,    101,    107, -1 
	    56,    107,     69, -1 
	   108,     58,    109, -1 
	   109,     58,    111, -1 
	   113,     61,     60, -1 
	    81,     61,    113, -1 
	    82,     63,     64, -1 
	    91,     63,     82, -1 
	    70,     69,     98, -1 
	    98,     69,    107, -1 
	    72,     73,    114, -1 
	   114,     73,     97, -1 
	   117,     75,    116, -1 
	   118,     75,    117, -1 
	    77,    121,    119, -1 
	    79,    122,     78, -1 
	    80,    124,    123, -1 
	    87,     81,    113, -1 
	    82,     84,     91, -1 
	   126,     84,     83, -1 
	   126,     83,     88, -1 
	    84,    127,     91, -1 
	   126,    127,     84, -1 
	    91,    127,     85, -1 
	    86,     85,    127, -1 
	   124,     87,    113, -1 
	    93,    131,     95, -1 
	   129,    130,     94, -1 
	   132,    133,     96, -1 
	   114,     97,    104, -1 
	   107,     99,     98, -1 
	   100,     99,    135, -1 
	   107,    136,     99, -1 
	    99,    136,    135, -1 
	   103,    100,    135, -1 
	   101,    136,    107, -1 
	   136,    101,    102, -1 
	   114,    104,    133, -1 
	   138,    110,    108, -1 
	   123,    109,    122, -1 
	   122,    109,    121, -1 
	   109,    111,    139, -1 
	   139,    111,    112, -1 
	   112,    118,    139, -1 
	   116,    115,    141, -1 
	   131,    117,    132, -1 
	   130,    117,    131, -1 
	   139,    118,    117, -1 
	   123,    124,    138, -1 
	   127,    126,    128, -1 
	   141,    133,    132, -1 
	   137,    135,    136, -1 
	     2,     12,     13, -1 
	     2,     13,      3, -1 
	     3,     14,     15, -1 
	     3,     15,     16, -1 
	    16,     17,     18, -1 
	    16,     18,      3, -1 
	     3,     19,     20, -1 
	     3,     20,      4, -1 
	    23,      5,     24, -1 
	    23,     24,     25, -1 
	    24,      5,      7, -1 
	    24,      7,     26, -1 
	    26,      7,      9, -1 
	    26,      9,     27, -1 
	    29,     27,      9, -1 
	    29,      9,     28, -1 
	    30,     31,     10, -1 
	    30,     10,     23, -1 
	    10,     32,     12, -1 
	    10,     12,     11, -1 
	    13,     12,     24, -1 
	    13,     24,     33, -1 
	    14,     13,     33, -1 
	    14,     33,     34, -1 
	    16,     15,     36, -1 
	    16,     36,     37, -1 
	    37,     38,     17, -1 
	    37,     17,     16, -1 
	    40,     41,     19, -1 
	    40,     19,     18, -1 
	    41,     27,     20, -1 
	    41,     20,     19, -1 
	    22,     20,     42, -1 
	    22,     42,     21, -1 
	    28,     21,     43, -1 
	    28,     43,     44, -1 
	    47,     23,     25, -1 
	    47,     25,     48, -1 
	    49,     33,     24, -1 
	    49,     24,     26, -1 
	    26,     27,     41, -1 
	    26,     41,     49, -1 
	    55,     29,     28, -1 
	    55,     28,     54, -1 
	    58,     59,     30, -1 
	    58,     30,     45, -1 
	    61,     62,     31, -1 
	    61,     31,     60, -1 
	    32,     62,     64, -1 
	    32,     64,     63, -1 
	    65,     34,     33, -1 
	    65,     33,     49, -1 
	    66,     35,     34, -1 
	    66,     34,     65, -1 
	    65,     40,     39, -1 
	    65,     39,     66, -1 
	    49,     41,     40, -1 
	    49,     40,     65, -1 
	    69,     70,     71, -1 
	    69,     71,     42, -1 
	    72,     43,     71, -1 
	    72,     71,     73, -1 
	    52,     44,     74, -1 
	    52,     74,     75, -1 
	    77,     76,     46, -1 
	    77,     46,     78, -1 
	    81,     47,     62, -1 
	    81,     62,     61, -1 
	    47,     83,     84, -1 
	    47,     84,     82, -1 
	    83,     47,     87, -1 
	    83,     87,     88, -1 
	    93,     53,     92, -1 
	    93,     92,     94, -1 
	    73,     71,     54, -1 
	    73,     54,     97, -1 
	    98,     99,    100, -1 
	    98,    100,     54, -1 
	   103,    104,     54, -1 
	   103,     54,    100, -1 
	   110,     59,     58, -1 
	   110,     58,    108, -1 
	   111,     58,     76, -1 
	   111,     76,    112, -1 
	   110,    113,     60, -1 
	   110,     60,     59, -1 
	    74,     72,    114, -1 
	    74,    114,    115, -1 
	   116,     75,     74, -1 
	   116,     74,    115, -1 
	   112,     92,     75, -1 
	   112,     75,    118, -1 
	    78,    122,    121, -1 
	    78,    121,     77, -1 
	    80,    123,    122, -1 
	    80,    122,     79, -1 
	    80,     90,    125, -1 
	    80,    125,    124, -1 
	    89,     86,    127, -1 
	    89,    127,    128, -1 
	   125,     88,     87, -1 
	   125,     87,    124, -1 
	   128,    126,     88, -1 
	   128,     88,    125, -1 
	    90,     89,    128, -1 
	    90,    128,    125, -1 
	    94,    130,    131, -1 
	    94,    131,     93, -1 
	    95,    131,    132, -1 
	    95,    132,     96, -1 
	   133,    134,    105, -1 
	   133,    105,     96, -1 
	   137,    136,    102, -1 
	   137,    102,    106, -1 
	   133,    104,    103, -1 
	   133,    103,    134, -1 
	   134,    103,    135, -1 
	   134,    135,    137, -1 
	   134,    137,    106, -1 
	   134,    106,    105, -1 
	   123,    138,    108, -1 
	   123,    108,    109, -1 
	   109,    139,    140, -1 
	   109,    140,    121, -1 
	   124,    113,    110, -1 
	   124,    110,    138, -1 
	   141,    115,    114, -1 
	   141,    114,    133, -1 
	   117,    116,    141, -1 
	   117,    141,    132, -1 
	   130,    140,    139, -1 
	   130,    139,    117, -1 
	   121,    140,    120, -1 
	   121,    120,    119, -1 
	   129,    120,    140, -1 
	   129,    140,    130, -1 
	    76,     77,    119, -1 
	    76,    119,    120, -1 
	    76,    120,    112, -1 
	   112,    120,    129, -1 
	   112,    129,     94, -1 
	   112,     94,     92, -1 
    ] 
   colorPerVertex FALSE 
    colorIndex [ 
	  1, 
	  1, 
	  1, 
	  1, 
	  1, 
	  1, 
	  1, 
	  1, 
	  1, 
	  1, 
	  1, 
	  1, 
	  1, 
	  1, 
	  1, 
	  1, 
	  1, 
	  1, 
	  1, 
	  1, 
	  1, 
	  1, 
	  1, 
	  1, 
	  1, 
	  1, 
	  1, 
	  1, 
	  1, 
	  1, 
	  1, 
	  1, 
	  1, 
	  1, 
	  1, 
	  1, 
	  1, 
	  1, 
	  1, 
	  1, 
	  1, 
	  1, 
	  1, 
	  1, 
	  1, 
	  1, 
	  1, 
	  1, 
	  1, 
	  1, 
	  1, 
	  1, 
	  1, 
	  1, 
	  1, 
	  1, 
	  1, 
	  1, 
	  1, 
	  1, 
	  1, 
	  1, 
	  1, 
	  1, 
	  1, 
	  1, 
	  1, 
	  1, 
	  1, 
	  1, 
	  1, 
	  1, 
	  1, 
	  1, 
	  1, 
	  1, 
	  1, 
	  1, 
	  1, 
	  1, 
	  1, 
	  1, 
	  1, 
	  1, 
	  1, 
	  1, 
	  1, 
	  1, 
	  1, 
	  1, 
	  1, 
	  1, 
	  1, 
	  1, 
	  1, 
	  1, 
	  1, 
	  1, 
	  1, 
	  1, 
	  1, 
	  1, 
	  1, 
	  1, 
	  1, 
	  1, 
	  1, 
	  1, 
	  1, 
	  1, 
	  1, 
	  1, 
	  1, 
	  1, 
	  1, 
	  1, 
	  1, 
	  1, 
	  1, 
	  1, 
	  1, 
	  1, 
	  1, 
	  1, 
	  1, 
	  1, 
	  1, 
	  1, 
	  1, 
	  1, 
	  1, 
	  1, 
	  1, 
	  1, 
	  1, 
	  1, 
	  1, 
	  1, 
	  1, 
	  1, 
	  1, 
	  1, 
    ] 
normal Normal { 
vector [ 
	 -0.469202   0.883091   0.000000,
	  0.975185  -0.221390  -0.000010,
	 -0.364800   0.774137   0.517333,
	 -0.286954   0.957086  -0.040537,
	 -0.380316   0.775535  -0.503890,
	  0.739541  -0.671361   0.048508,
	  0.921031  -0.128934   0.367531,
	  0.628199  -0.778053  -0.000015,
	  0.921031  -0.128931  -0.367529,
	  0.734933  -0.675776  -0.056566,
	  0.382507   0.918697   0.098406,
	 -0.686923   0.612199   0.391599,
	 -0.877989   0.380914  -0.289895,
	 -0.505481   0.565132  -0.652009,
	 -0.108614   0.455939  -0.883359,
	 -0.048634   0.485582  -0.872837,
	 -0.102416   0.993772  -0.043923,
	 -0.016039   0.536521   0.843735,
	 -0.063438   0.508673   0.858620,
	 -0.382345   0.422069   0.821992,
	 -0.869679   0.272202   0.411781,
	  0.307899   0.878659  -0.364908,
	 -0.740512   0.571636  -0.353375,
	  0.749913  -0.514820   0.415442,
	 -0.371725  -0.770167  -0.518328,
	 -0.843211   0.136741  -0.519901,
	  0.003871  -0.999992  -0.000002,
	 -0.223266  -0.815714   0.533632,
	  0.537198  -0.578530  -0.613776,
	 -0.883032   0.119843   0.453754,
	  0.027866   0.852074   0.522679,
	  0.399130   0.869939   0.289657,
	 -0.484054   0.830795  -0.274720,
	 -0.342034  -0.624354  -0.702278,
	  0.094505  -0.563670  -0.820576,
	 -0.330649  -0.274261  -0.903024,
	 -0.498332   0.397288  -0.770602,
	 -0.995969   0.079890   0.040781,
	 -0.464884   0.350216   0.813162,
	 -0.330637  -0.274270   0.903026,
	  0.160884  -0.581994   0.797119,
	 -0.077163  -0.712165   0.697759,
	 -0.551537   0.802467   0.227716,
	  0.258161   0.801346  -0.539627,
	  0.004434   0.468214  -0.883604,
	 -0.419862   0.489700   0.764140,
	 -0.642968  -0.625101  -0.442540,
	  0.480919  -0.876277  -0.029239,
	 -0.658613  -0.157755  -0.735760,
	  0.095748  -0.995406  -0.000003,
	 -0.681247   0.510327  -0.524852,
	 -0.820660   0.545463  -0.170256,
	 -0.277248   0.291090  -0.915642,
	 -0.643279  -0.624911   0.442356,
	  0.461643  -0.871721  -0.164282,
	 -0.721206  -0.190863   0.665907,
	 -0.735897   0.448202   0.507513,
	 -0.820662   0.545461   0.170255,
	 -0.565175   0.745719   0.352819,
	 -0.404919   0.876339   0.260904,
	 -0.336653   0.936745   0.095782,
	  0.052109   0.926828  -0.371852,
	  0.380151   0.863017   0.332696,
	 -0.472417   0.776532  -0.416917,
	  0.472494   0.877530   0.081792,
	  0.301276  -0.953537   0.000003,
	 -0.479099  -0.877761   0.000008,
	 -0.966281  -0.253593   0.044623,
	 -0.966280  -0.253598  -0.044617,
	 -0.409992   0.700325   0.584338,
	  0.598981   0.768713   0.224283,
	  0.273627   0.921750  -0.274781,
	 -0.413798   0.908435   0.059306,
	 -0.070634   0.910892   0.406555,
	 -0.654122   0.725601  -0.213605,
	 -0.662227   0.649845  -0.373037,
	 -0.877201  -0.457072   0.146977,
	  0.497059  -0.780823  -0.378481,
	  0.291537  -0.680469  -0.672286,
	  0.120704  -0.433662  -0.892954,
	  0.188352  -0.475881  -0.859105,
	  0.176698   0.771110  -0.611692,
	  0.160636   0.619286  -0.768558,
	  0.740120   0.670972  -0.044940,
	  0.745895   0.445838  -0.494843,
	 -0.026068  -0.592669  -0.805024,
	 -0.044333  -0.913893  -0.403527,
	  0.312392   0.779067  -0.543568,
	  0.407033   0.712881  -0.571073,
	  0.220249  -0.892401  -0.393841,
	  0.380456  -0.802647  -0.459359,
	 -0.302436   0.387553  -0.870824,
	 -0.875036  -0.477361  -0.080242,
	  0.273361  -0.698263   0.661591,
	  0.487985  -0.796319   0.357416,
	  0.123034  -0.431126   0.893864,
	  0.188411  -0.473993   0.860135,
	  0.139881   0.761353   0.633068,
	  0.352149   0.544782   0.761054,
	  0.771271   0.508164   0.383289,
	  0.824445   0.565918  -0.005160,
	 -0.024745  -0.590495   0.806662,
	  0.014486  -0.928562   0.370894,
	  0.250287   0.637799   0.728401,
	  0.178446   0.862607   0.473356,
	  0.057742  -0.803242   0.592847,
	 -0.231896  -0.836621   0.496276,
	 -0.236226   0.292461   0.926641,
	  0.362790   0.817972   0.446437,
	  0.287621   0.920624   0.264056,
	  0.384180   0.922558   0.035950,
	 -0.269166   0.854410   0.444448,
	 -0.984211  -0.169531   0.050869,
	 -0.215209   0.648298  -0.730339,
	 -0.217568   0.576661   0.787481,
	  0.062343   0.983607   0.169204,
	  0.121827   0.834463  -0.537429,
	  0.293847   0.916681  -0.270830,
	 -0.299034   0.871604  -0.388439,
	  0.808102  -0.570007  -0.148538,
	  0.584385  -0.808697  -0.067110,
	  0.888914   0.426264  -0.167723,
	  0.701008   0.509558  -0.498938,
	  0.746051   0.492615  -0.448039,
	  0.658366   0.339967  -0.671548,
	  0.680929   0.433096  -0.590562,
	  0.707809   0.573745  -0.412096,
	  0.476631   0.172095  -0.862094,
	  0.598598   0.333195  -0.728465,
	  0.821668  -0.566485   0.062898,
	  0.891949   0.407422   0.196045,
	  0.705156   0.491782   0.510788,
	  0.779607   0.478051   0.404573,
	  0.582855   0.372303   0.722268,
	  0.370240   0.496828   0.784910,
	  0.725381   0.423797   0.542419,
	  0.500951   0.250776   0.828347,
	  0.454666   0.448534   0.769478,
	  0.659710   0.660030  -0.359364,
	  0.053471   0.997431   0.047679,
	  0.840264   0.541564   0.025769,
	  0.689518   0.654825   0.309465,
     ]    } 
normalIndex      [ 
	     0,      1,      2, -1 
	     2,      3,      0, -1 
	     4,      1,      0, -1 
	     0,      3,      4, -1 
	     5,      6,      1, -1 
	     7,      5,      1, -1 
	     1,      6,      2, -1 
	     1,      8,      9, -1 
	     1,      9,      7, -1 
	     4,      8,      1, -1 
	    10,      2,      6, -1 
	    10,     11,      2, -1 
	    12,      2,     11, -1 
	    13,     14,      3, -1 
	     3,     18,     19, -1 
	     8,      4,     21, -1 
	     4,     22,     21, -1 
	    22,      4,     20, -1 
	    23,      6,      5, -1 
	    10,      6,     23, -1 
	    28,      8,     21, -1 
	     9,      8,     28, -1 
	    10,     31,     32, -1 
	    12,     25,     24, -1 
	    12,     32,     25, -1 
	    14,     34,     35, -1 
	    15,     14,     35, -1 
	    35,     36,     15, -1 
	    39,     18,     17, -1 
	    17,     38,     39, -1 
	    39,     40,     18, -1 
	    27,     29,     20, -1 
	    29,     42,     20, -1 
	    42,     43,     21, -1 
	    30,     23,     45, -1 
	    45,     23,     46, -1 
	    47,     46,     23, -1 
	    25,     32,     50, -1 
	    25,     50,     51, -1 
	    25,     51,     48, -1 
	    52,     28,     44, -1 
	    53,     28,     52, -1 
	    28,     53,     54, -1 
	    56,     42,     29, -1 
	    57,     56,     29, -1 
	    55,     57,     29, -1 
	    59,     60,     30, -1 
	    60,     31,     30, -1 
	    62,     32,     31, -1 
	    32,     63,     50, -1 
	    66,     37,     35, -1 
	    67,     35,     37, -1 
	    67,     36,     35, -1 
	    36,     67,     37, -1 
	    39,     37,     66, -1 
	    37,     68,     38, -1 
	    37,     39,     68, -1 
	    39,     38,     68, -1 
	    56,     69,     42, -1 
	    43,     42,     71, -1 
	    44,     43,     72, -1 
	    44,     72,     74, -1 
	    58,     45,     46, -1 
	    58,     46,     76, -1 
	    78,     46,     79, -1 
	    79,     46,     80, -1 
	    46,     47,     80, -1 
	    47,     64,     62, -1 
	    47,     82,     64, -1 
	    47,     48,     85, -1 
	    47,     85,     86, -1 
	    47,     81,     87, -1 
	    89,     90,     47, -1 
	    90,     80,     47, -1 
	    47,     86,     89, -1 
	    51,     50,     48, -1 
	    50,     91,     48, -1 
	    91,     85,     48, -1 
	    63,     91,     50, -1 
	    53,     52,     75, -1 
	    92,     53,     75, -1 
	    95,     53,     93, -1 
	    96,     53,     95, -1 
	    96,     54,     53, -1 
	    71,     70,     54, -1 
	    70,     98,     54, -1 
	   101,     55,     54, -1 
	   102,    101,     54, -1 
	   104,     97,     54, -1 
	    54,    105,    106, -1 
	    54,     96,    105, -1 
	   106,    102,     54, -1 
	    55,     56,     57, -1 
	    55,    107,     56, -1 
	    55,    101,    107, -1 
	    56,    107,     69, -1 
	   108,     58,    109, -1 
	   109,     58,    111, -1 
	   113,     61,     60, -1 
	    81,     61,    113, -1 
	    82,     63,     64, -1 
	    91,     63,     82, -1 
	    70,     69,     98, -1 
	    98,     69,    107, -1 
	    72,     73,    114, -1 
	   114,     73,     97, -1 
	   117,     75,    116, -1 
	   118,     75,    117, -1 
	    77,    121,    119, -1 
	    79,    122,     78, -1 
	    80,    124,    123, -1 
	    87,     81,    113, -1 
	    82,     84,     91, -1 
	   126,     84,     83, -1 
	   126,     83,     88, -1 
	    84,    127,     91, -1 
	   126,    127,     84, -1 
	    91,    127,     85, -1 
	    86,     85,    127, -1 
	   124,     87,    113, -1 
	    93,    131,     95, -1 
	   129,    130,     94, -1 
	   132,    133,     96, -1 
	   114,     97,    104, -1 
	   107,     99,     98, -1 
	   100,     99,    135, -1 
	   107,    136,     99, -1 
	    99,    136,    135, -1 
	   103,    100,    135, -1 
	   101,    136,    107, -1 
	   136,    101,    102, -1 
	   114,    104,    133, -1 
	   138,    110,    108, -1 
	   123,    109,    122, -1 
	   122,    109,    121, -1 
	   109,    111,    139, -1 
	   139,    111,    112, -1 
	   112,    118,    139, -1 
	   116,    115,    141, -1 
	   131,    117,    132, -1 
	   130,    117,    131, -1 
	   139,    118,    117, -1 
	   123,    124,    138, -1 
	   127,    126,    128, -1 
	   141,    133,    132, -1 
	   137,    135,    136, -1 
	     2,     12,     13, -1 
	     2,     13,      3, -1 
	     3,     14,     15, -1 
	     3,     15,     16, -1 
	    16,     17,     18, -1 
	    16,     18,      3, -1 
	     3,     19,     20, -1 
	     3,     20,      4, -1 
	    23,      5,     24, -1 
	    23,     24,     25, -1 
	    24,      5,      7, -1 
	    24,      7,     26, -1 
	    26,      7,      9, -1 
	    26,      9,     27, -1 
	    29,     27,      9, -1 
	    29,      9,     28, -1 
	    30,     31,     10, -1 
	    30,     10,     23, -1 
	    10,     32,     12, -1 
	    10,     12,     11, -1 
	    13,     12,     24, -1 
	    13,     24,     33, -1 
	    14,     13,     33, -1 
	    14,     33,     34, -1 
	    16,     15,     36, -1 
	    16,     36,     37, -1 
	    37,     38,     17, -1 
	    37,     17,     16, -1 
	    40,     41,     19, -1 
	    40,     19,     18, -1 
	    41,     27,     20, -1 
	    41,     20,     19, -1 
	    22,     20,     42, -1 
	    22,     42,     21, -1 
	    28,     21,     43, -1 
	    28,     43,     44, -1 
	    47,     23,     25, -1 
	    47,     25,     48, -1 
	    49,     33,     24, -1 
	    49,     24,     26, -1 
	    26,     27,     41, -1 
	    26,     41,     49, -1 
	    55,     29,     28, -1 
	    55,     28,     54, -1 
	    58,     59,     30, -1 
	    58,     30,     45, -1 
	    61,     62,     31, -1 
	    61,     31,     60, -1 
	    32,     62,     64, -1 
	    32,     64,     63, -1 
	    65,     34,     33, -1 
	    65,     33,     49, -1 
	    66,     35,     34, -1 
	    66,     34,     65, -1 
	    65,     40,     39, -1 
	    65,     39,     66, -1 
	    49,     41,     40, -1 
	    49,     40,     65, -1 
	    69,     70,     71, -1 
	    69,     71,     42, -1 
	    72,     43,     71, -1 
	    72,     71,     73, -1 
	    52,     44,     74, -1 
	    52,     74,     75, -1 
	    77,     76,     46, -1 
	    77,     46,     78, -1 
	    81,     47,     62, -1 
	    81,     62,     61, -1 
	    47,     83,     84, -1 
	    47,     84,     82, -1 
	    83,     47,     87, -1 
	    83,     87,     88, -1 
	    93,     53,     92, -1 
	    93,     92,     94, -1 
	    73,     71,     54, -1 
	    73,     54,     97, -1 
	    98,     99,    100, -1 
	    98,    100,     54, -1 
	   103,    104,     54, -1 
	   103,     54,    100, -1 
	   110,     59,     58, -1 
	   110,     58,    108, -1 
	   111,     58,     76, -1 
	   111,     76,    112, -1 
	   110,    113,     60, -1 
	   110,     60,     59, -1 
	    74,     72,    114, -1 
	    74,    114,    115, -1 
	   116,     75,     74, -1 
	   116,     74,    115, -1 
	   112,     92,     75, -1 
	   112,     75,    118, -1 
	    78,    122,    121, -1 
	    78,    121,     77, -1 
	    80,    123,    122, -1 
	    80,    122,     79, -1 
	    80,     90,    125, -1 
	    80,    125,    124, -1 
	    89,     86,    127, -1 
	    89,    127,    128, -1 
	   125,     88,     87, -1 
	   125,     87,    124, -1 
	   128,    126,     88, -1 
	   128,     88,    125, -1 
	    90,     89,    128, -1 
	    90,    128,    125, -1 
	    94,    130,    131, -1 
	    94,    131,     93, -1 
	    95,    131,    132, -1 
	    95,    132,     96, -1 
	   133,    134,    105, -1 
	   133,    105,     96, -1 
	   137,    136,    102, -1 
	   137,    102,    106, -1 
	   133,    104,    103, -1 
	   133,    103,    134, -1 
	   134,    103,    135, -1 
	   134,    135,    137, -1 
	   134,    137,    106, -1 
	   134,    106,    105, -1 
	   123,    138,    108, -1 
	   123,    108,    109, -1 
	   109,    139,    140, -1 
	   109,    140,    121, -1 
	   124,    113,    110, -1 
	   124,    110,    138, -1 
	   141,    115,    114, -1 
	   141,    114,    133, -1 
	   117,    116,    141, -1 
	   117,    141,    132, -1 
	   130,    140,    139, -1 
	   130,    139,    117, -1 
	   121,    140,    120, -1 
	   121,    120,    119, -1 
	   129,    120,    140, -1 
	   129,    140,    130, -1 
	    76,     77,    119, -1 
	    76,    119,    120, -1 
	    76,    120,    112, -1 
	   112,    120,    129, -1 
	   112,    129,     94, -1 
	   112,     94,     92, -1 
    ] 
normalPerVertex  TRUE 
   } 
  } 
 ] 
} 
