# 
# Wavefront OBJ file
# Converted by the DEEP Exploration 2.00.1211
# Right Hemisphere, LTD
# http://www.righthemisphere.com/
# 
mtllib cerv3.mtl
# object Object #0
g Object__0
v -0.023697 0.015078 0.000132
v -0.016905 0.023008 0.000132
v -0.016284 0.023198 -0.003659
v -0.024649 0.014935 0.000132
v -0.016284 0.023198 0.003922
v -0.019999 0.007377 -0.001858
v -0.017059 0.022326 -0.0013
v -0.02 0.007375 0.000132
v -0.017059 0.022326 0.001564
v -0.019999 0.007377 0.002121
v -0.011286 0.026516 -0.010672
v -0.017242 0.023103 -0.004342
v -0.01917 0.017403 -0.010342
v -0.026111 0.010363 -0.004614
v -0.031789 0.009261 -0.003285
v -0.03741 0.009303 -0.003088
v -0.03749 0.011347 0.000132
v -0.03741 0.009303 0.003351
v -0.031789 0.009261 0.003548
v -0.026111 0.010363 0.004877
v -0.01917 0.017403 0.010605
v -0.011286 0.026516 0.010936
v -0.017242 0.023103 0.004605
v -0.014437 0.012664 -0.008613
v -0.026072 0.005777 -0.005847
v -0.020736 0.009852 -0.010739
v -0.026076 0.005771 0.000132
v -0.026072 0.005777 0.00611
v -0.014437 0.012664 0.008877
v -0.020736 0.009852 0.011002
v -0.006678 0.021246 -0.010742
v -0.007981 0.022711 -0.012022
v -0.012986 0.022237 -0.020035
v -0.028655 0.005682 -0.005035
v -0.034894 0.002737 -0.004896
v -0.038731 0.000857 -0.004768
v -0.04325 0.006012 -0.003779
v -0.042618 0.010316 0.000132
v -0.04325 0.006012 0.004042
v -0.038731 0.000857 0.005031
v -0.034894 0.002737 0.00516
v -0.028655 0.005682 0.005298
v -0.012986 0.022237 0.020298
v -0.007981 0.022711 0.012285
v -0.006678 0.021246 0.011005
v -0.002878 0.015571 -0.009569
v -0.006033 0.010133 -0.008602
v -0.004458 0.021359 -0.018755
v -0.018338 0.010857 -0.020208
v -0.028658 0.005677 0.000132
v -0.015742 0.016911 -0.021535
v -0.01941 0.01057 -0.015233
v -0.002878 0.015571 0.009833
v -0.006033 0.010133 0.008865
v -0.004458 0.021359 0.019019
v -0.018338 0.010857 0.020471
v -0.015742 0.016911 0.021798
v -0.01941 0.01057 0.015496
v -0.001576 0.025689 -0.00866
v -0.00159 0.027105 -0.009619
v -0.003591 0.022274 -0.011509
v -0.00221 0.022685 -0.014574
v -0.006125 0.025423 -0.016521
v -0.01022 0.018206 -0.020203
v -0.004028 0.027648 -0.021231
v -0.034897 0.002732 0.000132
v -0.038734 0.000853 0.000132
v -0.043248 0.002811 -0.003686
v -0.043248 0.002811 0.003949
v -0.010471 0.023341 0.022614
v -0.004028 0.027648 0.021469
v -0.006125 0.025423 0.016784
v -0.003591 0.022274 0.011772
v -0.00221 0.022685 0.014837
v -0.00159 0.027105 0.009882
v -0.001576 0.025689 0.008923
v -0.004706 0.009012 -0.00359
v 0.014131 0.007532 -0.00748
v 0.011066 0.008946 -0.013135
v 0.007392 0.009356 -0.014671
v 0.003999 0.014685 -0.016108
v -0.001939 0.019879 -0.016
v -0.005894 0.025564 -0.023071
v -0.004096 0.015949 -0.019853
v -0.004074 0.023384 -0.025096
v -0.005614 0.015044 -0.02696
v -0.002119 0.013327 -0.024095
v 0.001179 0.019744 -0.017115
v 0.001621 0.018753 -0.020569
v 0.000975 0.012552 -0.021946
v 0.003201 0.017014 -0.019867
v -0.008384 0.018534 -0.023477
v -0.004706 0.009012 0.003853
v 0.011066 0.008946 0.013398
v 0.014131 0.007532 0.007743
v 0.007392 0.009356 0.014934
v 0.003999 0.014685 0.016371
v -0.001939 0.019879 0.016263
v -0.005894 0.025564 0.023309
v -0.004074 0.023384 0.025333
v -0.004345 0.021042 0.022227
v -0.005614 0.015044 0.027198
v -0.002119 0.013327 0.024333
v 0.001621 0.018753 0.020833
v 0.001179 0.019744 0.017378
v 0.003201 0.017014 0.02013
v 0.000975 0.012552 0.022183
v -0.008384 0.018534 0.023714
v 0.000673 0.029724 -0.010213
v 0.000923 0.024764 -0.004517
v 0.002078 0.028754 -0.012545
v -6.5e-005 0.024489 -0.002093
v -0.004731 0.008313 0.000132
v 0.001142 0.027934 -0.013756
v 0.001142 0.027934 0.014019
v 0.002078 0.028754 0.012808
v 0.000673 0.029724 0.010476
v 0.000923 0.024764 0.00478
v -6.5e-005 0.024489 0.002356
v 0.015426 0.007547 -0.001894
v 0.015407 0.007695 0.000132
v 0.014375 0.021551 -0.006591
v 0.011094 0.022783 -0.010265
v 0.008759 0.024226 -0.011679
v 0.004988 0.021507 -0.015118
v 0.003183 0.018349 -0.020387
v -0.001109 0.015289 -0.020451
v -0.003314 0.016196 -0.026428
v 0.000739 0.013813 -0.021215
v 0.015426 0.007547 0.002157
v 0.014375 0.021551 0.006854
v 0.011094 0.022783 0.010528
v 0.008759 0.024226 0.011943
v 0.004988 0.021507 0.015381
v 0.003183 0.018349 0.02065
v -0.001109 0.015289 0.020689
v -0.003314 0.016196 0.026666
v 0.000739 0.013813 0.021453
v 0.004229 0.027635 -0.011763
v 0.002647 0.023417 0.000132
v 0.015277 0.021427 0.000132
v 0.004229 0.027635 0.012026
# 142 verticies
vn -0.593483 0.804847 0
vn 0.995701 -0.092627 0
vn -0.463933 0.708806 0.531375
vn -0.42331 0.90514 -0.039112
vn -0.479335 0.708644 -0.517747
vn 0.823176 -0.565594 0.049838
vn 0.922366 -0.006848 0.386255
vn 0.728862 -0.684661 0
vn 0.922366 -0.006847 -0.386257
vn 0.819148 -0.57062 -0.058222
vn 0.248602 0.963049 0.103605
vn -0.754487 0.516162 0.405372
vn -0.915369 0.263243 -0.304637
vn -0.567162 0.481531 -0.668173
vn -0.165073 0.418527 -0.893077
vn -0.129793 0.478442 0.868474
vn -0.425664 0.359238 0.830517
vn 0.172205 0.910878 -0.375028
vn -0.802636 0.47066 -0.366409
vn -0.890205 0.159009 0.426908
vn 0.812478 -0.408375 0.416064
vn 0.604164 -0.501204 -0.6195
vn 0.275065 0.912633 0.30239
vn -0.543797 0.772559 -0.327777
vn -0.83982 0.024833 -0.542296
vn -0.244657 -0.807983 -0.53601
vn 0.181682 -0.548792 -0.815977
vn -0.282186 -0.31925 -0.904683
vn -0.114821 0.456524 -0.882271
vn -0.542389 0.320081 -0.776764
vn -0.282183 -0.319248 0.904684
vn -0.089424 0.511443 0.854652
vn -0.502227 0.276072 0.819483
vn 0.245467 -0.557601 0.792986
vn -0.094752 -0.832131 0.546425
vn -0.879924 0.001776 0.475112
vn -0.660502 0.713472 0.233871
vn 0.136958 0.819682 -0.556205
vn -0.082514 0.837356 0.540395
vn -0.473755 0.415482 0.776486
vn -0.540285 -0.701557 -0.464662
vn 0.589649 -0.797084 -0.130277
vn -0.67182 0.492236 -0.553499
vn -0.8847 0.430054 -0.179886
vn -0.625619 -0.151403 -0.765296
vn -0.304044 0.240538 -0.921791
vn -0.060218 0.44599 -0.89301
vn -0.540633 -0.701418 0.464466
vn 0.664829 -0.729534 -0.160572
vn -0.758679 0.31764 0.568781
vn -0.8847 0.430054 0.179886
vn -0.692333 -0.19266 0.695383
vn -0.523846 0.805229 0.277834
vn -0.467405 0.877943 0.103673
vn 0.261407 0.910765 0.319646
vn -0.578192 0.766275 -0.280209
vn -0.355015 -0.934861 1.1e-005
vn -0.997981 -0.048643 0.040839
vn -0.928721 -0.366067 0.058932
vn -0.928721 -0.366067 -0.058932
vn -0.519755 0.55346 0.650798
vn 0.143378 0.95477 -0.260495
vn -0.538895 0.840124 0.061513
vn -0.747449 0.628993 -0.213747
vn -0.656352 0.656017 0.372616
vn -0.803905 -0.574029 0.155654
vn 0.366008 -0.632728 -0.682417
vn 0.168625 -0.406793 -0.897822
vn 0.242888 -0.429739 -0.869672
vn 0.29215 0.92955 0.224913
vn -0.233543 0.512135 -0.826544
vn -0.28054 -0.46288 -0.840856
vn -0.188438 -0.958308 -0.214796
vn 0.07557 0.776354 -0.625751
vn 0.195108 0.720901 -0.665007
vn -0.360394 -0.924526 -0.123966
vn 0.234626 -0.776753 -0.58447
vn -0.49387 0.418619 -0.762135
vn -0.73807 0.55252 -0.387264
vn -0.800535 -0.593236 -0.084934
vn 0.17052 -0.40407 0.898694
vn 0.350924 -0.652288 0.671843
vn 0.242566 -0.427882 0.870677
vn 0.4141 0.880953 0.229004
vn 0.15989 0.471712 0.867135
vn -0.280786 -0.462077 0.841216
vn -0.063429 -0.981418 0.181097
vn 0.054606 0.872427 0.485684
vn 0.038531 0.760703 0.647956
vn -0.068927 -0.849373 0.523273
vn -0.429563 -0.900865 -0.062589
vn -0.359516 0.219556 0.906942
vn 0.24447 0.851046 0.464709
vn 0.1557 0.947447 0.279468
vn -0.377192 0.803969 0.459739
vn -0.301454 0.595936 -0.744302
vn -0.074137 0.919208 -0.386731
vn -0.195266 0.88521 0.422225
vn -0.290877 0.522614 0.801415
vn 0.161548 0.944529 -0.285951
vn 0.009547 0.830609 -0.556775
vn -0.410707 0.818727 -0.401256
vn 0.590415 -0.704797 -0.393283
vn 0.821372 0.542656 -0.175708
vn 0.874941 -0.458164 -0.156727
vn 0.614006 0.599793 -0.513075
vn 0.590707 0.413467 -0.6929
vn 0.664115 0.588335 -0.461316
vn 0.59538 0.569075 -0.567164
vn 0.502611 0.649435 -0.570627
vn 0.718254 0.460122 -0.521919
vn 0.04899 0.416698 -0.907724
vn 0.430468 0.192053 -0.881937
vn 0.620044 0.583011 0.525018
vn 0.8891 -0.452907 0.06616
vn 0.825947 0.525042 0.205289
vn 0.584563 -0.721535 0.371044
vn 0.700901 0.578481 0.417249
vn 0.50966 0.432684 0.74366
vn 0.624484 0.604711 0.494312
vn 0.771979 0.619863 0.140777
vn 0.740083 0.356528 0.570233
vn 0.49012 0.23968 0.838055
vn 0.104975 0.528466 0.842439
vn 0.558858 0.740667 -0.372948
vn 0.245891 0.968612 0.036435
vn -0.079492 0.995529 0.051027
vn -0.949359 -0.309455 0.054368
vn -0.073378 0.980179 0.184024
vn 0.590079 0.740336 0.322038
vn 0.211699 0.335721 -0.917864
vn 0.331179 0.290594 0.897706
vn -0.243639 0.968947 -0.04222
vn 0.146743 -0.989175 -4e-006
vn -0.23242 -0.664776 -0.709968
vn 0.032599 -0.712742 0.700668
vn 0.236505 -0.97163 -6e-006
vn 0.433371 -0.901216 6e-006
vn 0.288747 0.519328 -0.804315
vn 0.125111 0.417309 0.900111
vn 0.75901 0.650487 0.027758
vn 0.688916 -0.721365 -0.070903
# 142 normals
usemtl Material__1
f  1//1 2//2 3//3
f  3//3 4//4 1//1
f  5//5 2//2 1//1
f  1//1 4//4 5//5
f  6//6 7//7 2//2
f  8//8 6//6 2//2
f  2//2 7//7 3//3
f  2//2 9//9 10//10
f  2//2 10//10 8//8
f  5//5 9//9 2//2
f  11//11 3//3 7//7
f  11//11 12//12 3//3
f  13//13 3//3 12//12
f  14//14 15//15 4//4
f  4//4 19//16 20//17
f  9//9 5//5 22//18
f  5//5 23//19 22//18
f  23//19 5//5 21//20
f  24//21 7//7 6//6
f  11//11 7//7 24//21
f  29//22 9//9 22//18
f  10//10 9//9 29//22
f  11//11 32//23 33//24
f  13//13 26//25 25//26
f  13//13 33//24 26//25
f  15//15 35//27 36//28
f  16//29 15//15 36//28
f  36//28 37//30 16//29
f  40//31 19//16 18//32
f  18//32 39//33 40//31
f  40//31 41//34 19//16
f  28//35 30//36 21//20
f  30//36 43//37 21//20
f  43//37 44//38 22//18
f  31//39 24//21 46//40
f  46//40 24//21 47//41
f  48//42 47//41 24//21
f  26//25 33//24 51//43
f  26//25 51//43 52//44
f  26//25 52//44 49//45
f  53//46 29//22 45//47
f  54//48 29//22 53//46
f  29//22 54//48 55//49
f  57//50 43//37 30//36
f  58//51 57//50 30//36
f  56//52 58//51 30//36
f  60//53 61//54 31//39
f  61//54 32//23 31//39
f  63//55 33//24 32//23
f  33//24 64//56 51//43
f  67//57 38//58 36//28
f  68//59 36//28 38//58
f  68//59 37//30 36//28
f  37//30 68//59 38//58
f  40//31 38//58 67//57
f  38//58 69//60 39//33
f  38//58 40//31 69//60
f  40//31 39//33 69//60
f  57//50 70//61 43//37
f  44//38 43//37 72//62
f  45//47 44//38 73//63
f  45//47 73//63 75//64
f  59//65 46//40 47//41
f  59//65 47//41 77//66
f  79//67 47//41 80//68
f  80//68 47//41 81//69
f  47//41 48//42 81//69
f  48//42 65//70 63//55
f  48//42 83//71 65//70
f  48//42 49//45 86//72
f  48//42 86//72 87//73
f  48//42 82//74 88//75
f  90//76 91//77 48//42
f  91//77 81//69 48//42
f  48//42 87//73 90//76
f  52//44 51//43 49//45
f  51//43 92//78 49//45
f  92//78 86//72 49//45
f  64//56 92//78 51//43
f  54//48 53//46 76//79
f  93//80 54//48 76//79
f  96//81 54//48 94//82
f  97//83 54//48 96//81
f  97//83 55//49 54//48
f  72//62 71//84 55//49
f  71//84 99//85 55//49
f  102//86 56//52 55//49
f  103//87 102//86 55//49
f  105//88 98//89 55//49
f  55//49 106//90 107//91
f  55//49 97//83 106//90
f  107//91 103//87 55//49
f  56//52 57//50 58//51
f  56//52 108//92 57//50
f  56//52 102//86 108//92
f  57//50 108//92 70//61
f  109//93 59//65 110//94
f  110//94 59//65 112//95
f  114//96 62//97 61//54
f  82//74 62//97 114//96
f  83//71 64//56 65//70
f  92//78 64//56 83//71
f  71//84 70//61 99//85
f  99//85 70//61 108//92
f  73//63 74//98 115//99
f  115//99 74//98 98//89
f  118//100 76//79 117//101
f  119//102 76//79 118//100
f  78//103 122//104 120//105
f  80//68 123//106 79//67
f  81//69 125//107 124//108
f  88//75 82//74 114//96
f  83//71 85//109 92//78
f  127//110 85//109 84//111
f  127//110 84//111 89//112
f  85//109 128//113 92//78
f  127//110 128//113 85//109
f  92//78 128//113 86//72
f  87//73 86//72 128//113
f  125//107 88//75 114//96
f  94//82 132//114 96//81
f  130//115 131//116 95//117
f  133//118 134//119 97//83
f  115//99 98//89 105//88
f  108//92 100//120 99//85
f  101//121 100//120 136//122
f  108//92 137//123 100//120
f  100//120 137//123 136//122
f  104//124 101//121 136//122
f  102//86 137//123 108//92
f  137//123 102//86 103//87
f  115//99 105//88 134//119
f  139//125 111//126 109//93
f  124//108 110//94 123//106
f  123//106 110//94 122//104
f  110//94 112//95 140//127
f  140//127 112//95 113//128
f  113//128 119//102 140//127
f  117//101 116//129 142//130
f  132//114 118//100 133//118
f  131//116 118//100 132//114
f  140//127 119//102 118//100
f  124//108 125//107 139//125
f  128//113 127//110 129//131
f  142//130 134//119 133//118
f  138//132 136//122 137//123
f  3//3 13//13 14//14
f  3//3 14//14 4//4
f  4//4 15//15 16//29
f  4//4 16//29 17//133
f  17//133 18//32 19//16
f  17//133 19//16 4//4
f  4//4 20//17 21//20
f  4//4 21//20 5//5
f  24//21 6//6 25//26
f  24//21 25//26 26//25
f  25//26 6//6 8//8
f  25//26 8//8 27//134
f  27//134 8//8 10//10
f  27//134 10//10 28//35
f  30//36 28//35 10//10
f  30//36 10//10 29//22
f  31//39 32//23 11//11
f  31//39 11//11 24//21
f  11//11 33//24 13//13
f  11//11 13//13 12//12
f  14//14 13//13 25//26
f  14//14 25//26 34//135
f  15//15 14//14 34//135
f  15//15 34//135 35//27
f  17//133 16//29 37//30
f  17//133 37//30 38//58
f  38//58 39//33 18//32
f  38//58 18//32 17//133
f  41//34 42//136 20//17
f  41//34 20//17 19//16
f  42//136 28//35 21//20
f  42//136 21//20 20//17
f  23//19 21//20 43//37
f  23//19 43//37 22//18
f  29//22 22//18 44//38
f  29//22 44//38 45//47
f  48//42 24//21 26//25
f  48//42 26//25 49//45
f  50//137 34//135 25//26
f  50//137 25//26 27//134
f  27//134 28//35 42//136
f  27//134 42//136 50//137
f  56//52 30//36 29//22
f  56//52 29//22 55//49
f  59//65 60//53 31//39
f  59//65 31//39 46//40
f  62//97 63//55 32//23
f  62//97 32//23 61//54
f  33//24 63//55 65//70
f  33//24 65//70 64//56
f  66//138 35//27 34//135
f  66//138 34//135 50//137
f  67//57 36//28 35//27
f  67//57 35//27 66//138
f  66//138 41//34 40//31
f  66//138 40//31 67//57
f  50//137 42//136 41//34
f  50//137 41//34 66//138
f  70//61 71//84 72//62
f  70//61 72//62 43//37
f  73//63 44//38 72//62
f  73//63 72//62 74//98
f  53//46 45//47 75//64
f  53//46 75//64 76//79
f  78//103 77//66 47//41
f  78//103 47//41 79//67
f  82//74 48//42 63//55
f  82//74 63//55 62//97
f  48//42 84//111 85//109
f  48//42 85//109 83//71
f  84//111 48//42 88//75
f  84//111 88//75 89//112
f  94//82 54//48 93//80
f  94//82 93//80 95//117
f  74//98 72//62 55//49
f  74//98 55//49 98//89
f  99//85 100//120 101//121
f  99//85 101//121 55//49
f  104//124 105//88 55//49
f  104//124 55//49 101//121
f  111//126 60//53 59//65
f  111//126 59//65 109//93
f  112//95 59//65 77//66
f  112//95 77//66 113//128
f  111//126 114//96 61//54
f  111//126 61//54 60//53
f  75//64 73//63 115//99
f  75//64 115//99 116//129
f  117//101 76//79 75//64
f  117//101 75//64 116//129
f  113//128 93//80 76//79
f  113//128 76//79 119//102
f  79//67 123//106 122//104
f  79//67 122//104 78//103
f  81//69 124//108 123//106
f  81//69 123//106 80//68
f  81//69 91//77 126//139
f  81//69 126//139 125//107
f  90//76 87//73 128//113
f  90//76 128//113 129//131
f  126//139 89//112 88//75
f  126//139 88//75 125//107
f  129//131 127//110 89//112
f  129//131 89//112 126//139
f  91//77 90//76 129//131
f  91//77 129//131 126//139
f  95//117 131//116 132//114
f  95//117 132//114 94//82
f  96//81 132//114 133//118
f  96//81 133//118 97//83
f  134//119 135//140 106//90
f  134//119 106//90 97//83
f  138//132 137//123 103//87
f  138//132 103//87 107//91
f  134//119 105//88 104//124
f  134//119 104//124 135//140
f  135//140 104//124 136//122
f  135//140 136//122 138//132
f  135//140 138//132 107//91
f  135//140 107//91 106//90
f  124//108 139//125 109//93
f  124//108 109//93 110//94
f  110//94 140//127 141//141
f  110//94 141//141 122//104
f  125//107 114//96 111//126
f  125//107 111//126 139//125
f  142//130 116//129 115//99
f  142//130 115//99 134//119
f  118//100 117//101 142//130
f  118//100 142//130 133//118
f  131//116 141//141 140//127
f  131//116 140//127 118//100
f  122//104 141//141 121//142
f  122//104 121//142 120//105
f  130//115 121//142 141//141
f  130//115 141//141 131//116
f  77//66 78//103 120//105
f  77//66 120//105 121//142
f  77//66 121//142 113//128
f  113//128 121//142 130//115
f  113//128 130//115 95//117
f  113//128 95//117 93//80
