# 
# Wavefront OBJ file
# Converted by the DEEP Exploration 2.00.1211
# Right Hemisphere, LTD
# http://www.righthemisphere.com/
# 
mtllib cerv1.mtl
# object Object #0
g Object__0
v -0.029548 -0.006703 0
v -0.029243 -0.006689 0.003428
v -0.042208 -0.003531 0.003608
v -0.04245 -0.003542 0
v -0.029236 -0.006684 0
v -0.030119 0.002765 0
v -0.029814 0.002779 0.003435
v -0.042208 -0.003531 -0.003608
v -0.029243 -0.006689 -0.003428
v -0.029814 0.002779 -0.003435
v -0.041957 -0.003516 0.005137
v -0.0288 -0.006662 0.004872
v -0.040181 -0.003408 0.007223
v -0.029371 0.002803 0.004878
v -0.042303 -0.001943 0.003609
v -0.042546 -0.001954 0
v -0.042053 -0.001931 0.005138
v -0.042303 -0.001943 -0.003609
v -0.029807 0.002784 0
v -0.040277 -0.001825 0.007225
v -0.041957 -0.003516 -0.005137
v -0.042053 -0.001931 -0.005138
v -0.040181 -0.003408 -0.007223
v -0.0288 -0.006662 -0.004872
v -0.029371 0.002803 -0.004878
v -0.040277 -0.001825 -0.007225
v -0.037778 -0.003262 0.009073
v -0.035327 -0.003114 0.011871
v -0.033269 -0.005622 0.01403
v -0.026163 -0.005181 0.008574
v -0.03036 -0.003473 0.017833
v -0.026575 0.001647 0.008579
v -0.037873 -0.001681 0.009074
v -0.035422 -0.001535 0.011872
v -0.033681 0.001202 0.014034
v -0.030535 -0.000584 0.017835
v -0.037778 -0.003262 -0.009073
v -0.037873 -0.001681 -0.009074
v -0.035327 -0.003114 -0.011871
v -0.033269 -0.005622 -0.01403
v -0.03036 -0.003473 -0.017833
v -0.026163 -0.005181 -0.008574
v -0.026575 0.001647 -0.008579
v -0.035422 -0.001535 -0.011872
v -0.033681 0.001202 -0.014034
v -0.030535 -0.000584 -0.017835
v -0.024338 -0.004413 0.010978
v -0.02855 -0.002703 0.019215
v -0.024671 0.001103 0.010982
v -0.028645 -0.00113 0.019216
v -0.02855 -0.002703 -0.019215
v -0.024338 -0.004413 -0.010978
v -0.028645 -0.00113 -0.019216
v -0.024671 0.001103 -0.010982
v -0.022574 -0.00299 0.01275
v -0.025054 -0.005124 0.023067
v -0.022748 -9.7e-005 0.012752
v -0.025465 0.001693 0.023072
v -0.025054 -0.005124 -0.023067
v -0.022574 -0.00299 -0.01275
v -0.025465 0.001693 -0.023072
v -0.022748 -9.7e-005 -0.012752
v -0.019203 -0.002785 0.014584
v -0.022737 -0.004983 0.024502
v -0.019377 0.000107 0.014586
v -0.023148 0.001833 0.024506
v -0.022737 -0.004983 -0.024502
v -0.019203 -0.002785 -0.014584
v -0.023148 0.001833 -0.024506
v -0.019377 0.000107 -0.014586
v -0.012575 -0.006852 0.015696
v -0.015437 -0.009493 0.018507
v -0.016436 -0.010123 0.020622
v -0.013261 -0.00176 0.015081
v -0.011109 -0.006477 0.014636
v -0.013356 -0.000183 0.015082
v -0.016368 -0.001958 0.024032
v -0.020604 -0.00222 0.025572
v -0.020699 -0.000651 0.025573
v -0.016445 0.007218 0.018518
v -0.013287 0.004954 0.015704
v -0.017511 0.007715 0.020633
v -0.011787 0.004764 0.014643
v -0.016462 -0.000389 0.024033
v -0.016436 -0.010123 -0.020622
v -0.020604 -0.00222 -0.025572
v -0.016368 -0.001958 -0.024032
v -0.020699 -0.000651 -0.025573
v -0.015437 -0.009493 -0.018507
v -0.012575 -0.006852 -0.015696
v -0.011109 -0.006477 -0.014636
v -0.013261 -0.00176 -0.015081
v -0.013356 -0.000183 -0.015082
v -0.017511 0.007715 -0.020633
v -0.016462 -0.000389 -0.024033
v -0.013287 0.004954 -0.015704
v -0.016445 0.007218 -0.018518
v -0.011787 0.004764 -0.014643
v -0.009427 -0.008716 0.023364
v -0.012975 -0.009603 0.023401
v -0.005305 -0.007114 0.022021
v -0.00909 -0.001502 0.01371
v -0.007955 -0.005067 0.013784
v -0.009185 7.5e-005 0.013711
v -0.002622 -0.006578 0.020638
v -0.008487 0.003752 0.01379
v -0.016241 -0.001952 0.025834
v -0.016335 -0.000384 0.025835
v -0.014013 0.007617 0.023412
v -0.010385 0.007172 0.023375
v -0.006102 0.006089 0.02203
v -0.003374 0.005889 0.020647
v -0.012975 -0.009603 -0.023401
v -0.016241 -0.001952 -0.025834
v -0.016335 -0.000384 -0.025835
v -0.009427 -0.008716 -0.023364
v -0.005305 -0.007114 -0.022021
v -0.007955 -0.005067 -0.013784
v -0.00909 -0.001502 -0.01371
v -0.002622 -0.006578 -0.020638
v -0.009185 7.5e-005 -0.013711
v -0.008487 0.003752 -0.01379
v -0.014013 0.007617 -0.023412
v -0.010385 0.007172 -0.023375
v -0.006102 0.006089 -0.02203
v -0.003374 0.005889 -0.020647
v -0.008518 -0.001478 0.026664
v -0.010032 -0.001572 0.027745
v -0.006667 -0.001363 0.026074
v -0.001591 -0.00105 0.024639
v -0.004118 -0.001195 0.011057
v -0.001531 -0.00504 0.011482
v -0.004213 0.000385 0.011058
v 0.000183 -0.006874 0.018707
v -0.002108 0.004518 0.011488
v -0.000625 0.006531 0.018716
v -0.015653 -0.001917 0.028079
v -0.015747 -0.000351 0.02808
v -0.010127 -5e-006 0.027746
v -0.008612 9e-005 0.026665
v -0.006762 0.000204 0.026075
v -0.001685 0.000519 0.02464
v -0.010032 -0.001572 -0.027745
v -0.008518 -0.001478 -0.026664
v -0.015653 -0.001917 -0.028079
v -0.015747 -0.000351 -0.02808
v -0.010127 -5e-006 -0.027746
v -0.006667 -0.001363 -0.026074
v -0.001591 -0.00105 -0.024639
v -0.001531 -0.00504 -0.011482
v -0.004118 -0.001195 -0.011057
v 0.000183 -0.006874 -0.018707
v -0.004213 0.000385 -0.011058
v -0.002108 0.004518 -0.011488
v -0.000625 0.006531 -0.018716
v -0.008612 9e-005 -0.026665
v -0.006762 0.000204 -0.026075
v -0.001685 0.000519 -0.02464
v -0.010148 -0.00158 0.029107
v -0.015697 -0.001922 0.030853
v -0.010242 -1.4e-005 0.029108
v 0.00436 -0.004769 0.023048
v 0.0001 -0.004575 0.026251
v -0.00043 0.004221 0.026256
v -0.002003 -0.001064 0.009496
v -0.002098 0.000518 0.009497
v 0.000337 -0.00092 0.00947
v 0.001347 -0.005374 0.010936
v 0.002531 -0.006919 0.016962
v 0.004622 -0.007443 0.015477
v 0.006536 -0.005132 0.01956
v 0.000709 0.005203 0.010943
v 0.000242 0.000661 0.009471
v 0.0017 0.006867 0.016971
v 0.003713 0.007647 0.015487
v 0.003774 0.004943 0.023055
v 0.00589 0.005578 0.019567
v -0.015792 -0.000358 0.030854
v -0.015697 -0.001922 -0.030853
v -0.010148 -0.00158 -0.029107
v -0.010242 -1.4e-005 -0.029108
v -0.015792 -0.000358 -0.030854
v 0.0001 -0.004575 -0.026251
v 0.00436 -0.004769 -0.023048
v -0.00043 0.004221 -0.026256
v -0.002003 -0.001064 -0.009496
v 0.001347 -0.005374 -0.010936
v 0.000337 -0.00092 -0.00947
v 0.002531 -0.006919 -0.016962
v 0.004622 -0.007443 -0.015477
v -0.002098 0.000518 -0.009497
v 0.006536 -0.005132 -0.01956
v 0.000242 0.000661 -0.009471
v 0.000709 0.005203 -0.010943
v 0.0017 0.006867 -0.016971
v 0.003713 0.007647 -0.015487
v 0.003774 0.004943 -0.023055
v 0.00589 0.005578 -0.019567
v -0.009765 -0.001557 0.030522
v -0.013537 -0.001792 0.034233
v -0.009859 7e-006 0.030523
v -0.013631 -0.000231 0.034234
v 0.003383 -0.004238 0.027203
v 0.00287 0.004286 0.027208
v 0.00245 -0.003948 0.029638
v -0.000262 -0.004308 0.028281
v -0.000757 0.003907 0.028286
v 0.001978 0.003878 0.029644
v 0.007218 -0.00643 0.009189
v 0.00641 0.006974 0.009198
v 0.003906 -0.006531 0.011914
v 0.005122 -0.006966 0.013811
v 0.007455 -0.005337 0.017729
v 0.008194 -0.005059 0.015358
v 0.006777 0.005898 0.017736
v 0.00311 0.006663 0.011923
v 0.004266 0.007238 0.013821
v 0.007544 0.005718 0.015365
v -0.013537 -0.001792 -0.034233
v -0.009765 -0.001557 -0.030522
v -0.013631 -0.000231 -0.034234
v -0.009859 7e-006 -0.030523
v -0.000262 -0.004308 -0.028281
v 0.00245 -0.003948 -0.029638
v 0.003383 -0.004238 -0.027203
v -0.000757 0.003907 -0.028286
v 0.00287 0.004286 -0.027208
v 0.001978 0.003878 -0.029644
v 0.007218 -0.00643 -0.009189
v 0.003906 -0.006531 -0.011914
v 0.005122 -0.006966 -0.013811
v 0.00641 0.006974 -0.009198
v 0.007455 -0.005337 -0.017729
v 0.008194 -0.005059 -0.015358
v 0.006777 0.005898 -0.017736
v 0.00311 0.006663 -0.011923
v 0.004266 0.007238 -0.013821
v 0.007544 0.005718 -0.015365
v -0.006974 -0.001387 0.031596
v -0.012475 -0.00173 0.037165
v -0.007069 0.000177 0.031597
v -0.012569 -0.000171 0.037166
v -0.000604 -0.000996 0.033119
v -0.001267 -0.001034 0.029753
v -0.000698 0.000566 0.03312
v -0.001362 0.000531 0.029754
v 0.008607 -0.004436 0.008816
v 0.011078 -0.002971 0.011227
v 0.008028 0.005166 0.008822
v 0.010657 0.004008 0.011232
v -0.012475 -0.00173 -0.037165
v -0.006974 -0.001387 -0.031596
v -0.012569 -0.000171 -0.037166
v -0.007069 0.000177 -0.031597
v -0.001267 -0.001034 -0.029753
v -0.000604 -0.000996 -0.033119
v -0.001362 0.000531 -0.029754
v -0.000698 0.000566 -0.03312
v 0.011078 -0.002971 -0.011227
v 0.008607 -0.004436 -0.008816
v 0.008028 0.005166 -0.008822
v 0.010657 0.004008 -0.011232
v -0.010953 -0.001638 0.03951
v -0.009229 -0.001533 0.040882
v -0.006515 -0.003885 0.040955
v -0.00279 -0.003277 0.039636
v -0.003846 -0.001194 0.031042
v -0.001588 -0.003079 0.035962
v -0.00394 0.00037 0.031044
v -0.011047 -8.2e-005 0.039511
v -0.009323 2.2e-005 0.040883
v -0.006912 0.002689 0.040959
v -0.003141 0.002545 0.03964
v -0.001925 0.002504 0.035965
v 0.009389 -0.004518 0.007193
v 0.014532 -0.002754 0.00593
v 0.008794 0.005347 0.007199
v 0.014111 0.004229 0.005935
v -0.010953 -0.001638 -0.03951
v -0.011047 -8.2e-005 -0.039511
v -0.009229 -0.001533 -0.040882
v -0.006515 -0.003885 -0.040955
v -0.00279 -0.003277 -0.039636
v -0.001588 -0.003079 -0.035962
v -0.003846 -0.001194 -0.031042
v -0.00394 0.00037 -0.031044
v -0.009323 2.2e-005 -0.040883
v -0.006912 0.002689 -0.040959
v -0.003141 0.002545 -0.03964
v -0.001925 0.002504 -0.035965
v 0.014532 -0.002754 -0.00593
v 0.009389 -0.004518 -0.007193
v 0.014111 0.004229 -0.005935
v 0.008794 0.005347 -0.007199
v 0.014925 -0.001412 0.001798
v 0.008899 -0.003232 0.005583
v 0.008462 0.004014 0.005588
v 0.014662 0.002955 0.001801
v 0.008899 -0.003232 -0.005583
v 0.014925 -0.001412 -0.001798
v 0.014662 0.002955 -0.001801
v 0.008462 0.004014 -0.005588
v 0.008398 -0.002603 0.003242
v 0.00826 -0.001294 0
v 0.01499 -0.000749 0
v 0.014806 0.002308 0
v 0.00804 0.003334 0.003246
v 0.00806 0.002025 0
v 0.008398 -0.002603 -0.003242
v 0.00804 0.003334 -0.003246
# 310 verticies
vn 0.412586 -0.910615 -0.023502
vn -0.691457 -0.635117 0.344258
vn -0.762143 -0.640562 0.093906
vn -0.833583 0.54447 0.093231
vn -0.761503 0.550139 0.342725
vn 0.303102 0.952566 -0.027329
vn -0.761465 -0.641656 -0.091912
vn -0.689165 -0.639011 -0.341637
vn 0.416781 -0.908531 0.02942
vn 0.298687 0.954111 0.02141
vn -0.763311 0.545996 -0.345318
vn -0.834123 0.543299 -0.095216
vn -0.536446 -0.582764 0.61042
vn -0.537436 -0.588075 0.604426
vn 0.169247 -0.985574 0.00017
vn -0.732305 -0.540859 0.413764
vn -0.652083 -0.598106 0.465894
vn 0.060203 0.998154 -0.008021
vn -0.602886 0.521643 0.60367
vn -0.603233 0.512419 0.611176
vn -0.792263 0.447621 0.414674
vn -0.716158 0.522901 0.462269
vn 0.181562 -0.983326 0.010288
vn -0.53496 -0.591888 -0.602899
vn -0.536434 -0.582782 -0.610413
vn -0.732307 -0.540861 -0.413759
vn -0.647681 -0.606414 -0.461271
vn -0.603233 0.512401 -0.611191
vn -0.60488 0.517562 -0.605185
vn 0.047691 0.998859 -0.002439
vn -0.792267 0.447617 -0.41467
vn -0.719546 0.5141 -0.466857
vn -0.083079 -0.760122 -0.644448
vn -0.098364 -0.867646 -0.487355
vn -0.251175 -0.525578 -0.812822
vn -0.393521 -0.905914 0.156398
vn -0.374153 -0.682452 0.627908
vn -0.275602 0.577292 -0.768621
vn -0.204621 0.873483 -0.441766
vn -0.117063 0.847328 -0.518008
vn -0.542847 0.818858 0.186517
vn -0.48928 0.587067 0.644948
vn -0.203061 -0.60503 0.769873
vn -0.414315 -0.643018 -0.644105
vn -0.439294 -0.879146 -0.184727
vn -0.096352 -0.890875 0.443912
vn -0.012559 -0.854129 0.51991
vn -0.500735 0.850996 -0.158339
vn -0.454261 0.631004 -0.628873
vn -0.313632 0.492668 0.811735
vn -0.175519 0.745701 0.642747
vn -0.203779 0.850271 0.485298
vn -0.17133 -0.851003 0.496428
vn -0.367729 -0.759028 0.537263
vn -0.496182 -0.687518 0.53021
vn -0.033284 -0.505892 0.861954
vn -0.49691 0.662449 0.560572
vn -0.138968 0.456641 0.87873
vn -0.575916 0.62147 0.531128
vn -0.271522 0.823478 0.498157
vn -0.169147 -0.851212 -0.496817
vn -0.412689 -0.718706 -0.559597
vn -0.081983 -0.471364 -0.87812
vn -0.496177 -0.687526 -0.530205
vn -0.57592 0.621461 -0.531133
vn -0.094885 0.496783 -0.862672
vn -0.457213 0.707881 -0.538388
vn -0.273642 0.823035 -0.497728
vn 0.475867 -0.642498 0.600622
vn -0.062213 -0.997767 -0.024286
vn -0.103677 -0.581573 0.806861
vn 0.151522 -0.939685 0.306649
vn -0.654274 -0.751591 0.083883
vn 0.377178 0.720993 0.581297
vn -0.740549 0.666542 0.085487
vn 0.073074 0.923984 0.375384
vn -0.23983 0.386169 0.890705
vn -0.269146 0.943925 0.191223
vn 0.462545 -0.670944 -0.579557
vn -0.654263 -0.751601 -0.083883
vn 0.393901 0.694311 -0.602307
vn -0.740556 0.666535 -0.085488
vn 0.185718 -0.908957 -0.373238
vn -0.190977 -0.413587 -0.89021
vn -0.151845 -0.970166 -0.189001
vn -0.183818 0.982718 0.021821
vn -0.17391 0.563321 -0.807728
vn 0.035366 0.950447 -0.308869
vn -0.351977 -0.214655 -0.911063
vn -0.338335 -0.738616 -0.583074
vn -0.485792 -0.206377 -0.849361
vn 0.036879 -0.998103 0.049292
vn -0.504551 0.099335 -0.857649
vn -0.420845 0.710525 -0.563954
vn -0.381967 0.201161 -0.902018
vn -0.118686 0.991747 0.04849
vn -0.488757 -0.158085 0.857978
vn -0.33082 -0.755335 0.56571
vn -0.354587 -0.244363 0.902527
vn 0.003564 -0.998933 -0.046047
vn -0.375753 0.171993 0.91062
vn -0.426259 0.69306 0.581353
vn -0.507527 0.147615 0.848897
vn -0.085491 0.994993 -0.051772
vn 0.557137 -0.81345 0.167024
vn 0.703789 -0.645695 0.296241
vn -0.626801 -0.778194 0.039173
vn -0.768411 0.589995 0.247892
vn 0.620111 0.72566 0.298127
vn 0.327386 0.834666 0.44289
vn 0.033935 -0.689058 -0.723911
vn -0.245292 -0.780532 -0.57498
vn -0.151853 -0.182692 -0.971372
vn 0.097668 -0.978905 -0.179462
vn -0.178607 0.19309 -0.964788
vn -0.3728 0.749115 -0.547583
vn 0.016135 0.584881 -0.810959
vn -0.034895 0.894976 -0.444747
vn -0.691345 -0.679118 -0.246659
vn 0.70379 -0.645694 -0.296241
vn 0.426826 -0.789614 -0.440827
vn 0.453854 0.874851 -0.169267
vn 0.620115 0.725656 -0.298128
vn -0.716655 0.696226 -0.040934
vn -0.153688 -0.211824 0.965148
vn -0.278382 -0.787825 0.549395
vn 0.087215 -0.577108 0.811997
vn 0.074576 -0.891624 0.446593
vn -0.050588 0.689542 0.722477
vn -0.339051 0.74598 0.5732
vn -0.173224 0.16439 0.971066
vn -0.02276 0.983935 0.177068
vn -0.475293 -0.742354 0.472236
vn -0.586504 -0.746679 0.313821
vn -0.095625 -0.907597 -0.408807
vn -0.455471 -0.660474 0.596926
vn -0.120648 -0.739922 0.661785
vn 0.438453 -0.817046 0.374426
vn -0.178786 0.900447 -0.396522
vn -0.672642 0.66941 0.315346
vn -0.561991 0.67824 0.473452
vn -0.532202 0.599245 0.598051
vn -0.209843 0.718405 0.66322
vn 0.383968 0.843594 0.375391
vn -0.067387 -0.914556 0.398806
vn -0.586508 -0.746676 -0.313819
vn -0.47529 -0.742358 -0.472233
vn -0.455472 -0.66047 -0.596929
vn -0.120646 -0.739923 -0.661784
vn 0.484102 -0.791448 -0.37317
vn -0.561994 0.678236 -0.473454
vn -0.672681 0.669365 -0.315359
vn -0.205965 0.890128 0.406511
vn -0.532199 0.599251 -0.598049
vn -0.209842 0.718404 -0.663221
vn 0.335605 0.863399 -0.376711
vn -0.65746 -0.738232 -0.150866
vn 0.655615 -0.728984 -0.196854
vn -0.62054 -0.782852 -0.045532
vn -0.756089 0.627777 -0.185001
vn 0.550232 0.778343 -0.302368
vn -0.73877 0.657189 -0.149402
vn -0.674519 -0.714277 0.186633
vn 0.640816 -0.705063 0.303713
vn -0.65369 -0.741504 0.151201
vn -0.74212 0.653479 0.149076
vn 0.562008 0.803746 0.195294
vn -0.710815 0.702012 0.043831
vn 0.64039 -0.768044 0.00284
vn 0.542578 0.84 -0.002837
vn -0.838263 0.545262 -0.002094
vn -0.765968 -0.642876 0.002101
vn 0.718247 -0.651839 -0.243368
vn -0.34088 -0.663872 0.665639
vn 0.665788 0.709215 -0.23182
vn -0.378992 0.624582 0.682834
vn -0.3 -0.666997 -0.681994
vn 0.746801 -0.622836 0.23316
vn 0.633889 0.73458 0.242025
vn -0.41919 0.616521 -0.66647
vn 0.742228 -0.557713 -0.371556
vn -0.246501 -0.710083 0.65956
vn 0.430715 0.743317 -0.511824
vn -0.603945 0.605293 0.518528
vn -0.52595 -0.674949 -0.517513
vn 0.517787 -0.684699 0.512917
vn -0.33104 0.673955 -0.660452
vn 0.669203 0.644125 0.3705
vn 0.626234 -0.53656 -0.565628
vn -0.210591 -0.788609 0.577708
vn 0.265083 0.662469 -0.700618
vn -0.629887 0.662466 0.40544
vn -0.544845 -0.734681 -0.404213
vn 0.343752 -0.624258 0.701524
vn -0.304892 0.756341 -0.578782
vn 0.556478 0.609463 0.564701
vn -0.257412 -0.071146 -0.963679
vn -0.139039 -0.670396 -0.72886
vn -0.232578 0.166506 -0.958219
vn -0.153619 0.760594 -0.630791
vn -0.059458 -0.772293 0.632478
vn -0.21054 -0.19197 0.958551
vn -0.264288 0.04095 0.963574
vn -0.220123 0.649976 0.727377
vn 0.416063 -0.860212 0.294833
vn 0.264497 -0.911863 0.313922
vn -0.334271 -0.113883 -0.935571
vn -0.212131 -0.692737 -0.689287
vn -0.346567 0.008608 -0.937986
vn -0.290015 0.654661 -0.698076
vn 0.284008 0.903382 0.321311
vn 0.176551 0.912309 0.36949
vn 0.392438 -0.862585 -0.319279
vn 0.286995 -0.884625 -0.367522
vn -0.207739 -0.683697 0.699574
vn -0.343023 -0.048933 0.938052
vn -0.345835 0.074121 0.935363
vn -0.295484 0.663067 0.687773
vn 0.307773 0.903973 -0.29683
vn 0.150878 0.936702 -0.31595
vn 0.449132 -0.223286 0.865115
vn 0.292588 -0.280039 0.914314
vn 0.410742 0.292214 0.863656
vn 0.262621 0.266649 0.927323
vn 0.443547 -0.241815 -0.863013
vn 0.293451 -0.234395 -0.926793
vn 0.41856 0.274478 -0.865719
vn 0.256171 0.311864 -0.914941
vn 0.740835 -0.668676 -0.063529
vn -0.620089 -0.761553 0.188483
vn 0.654265 0.75373 -0.061884
vn 0.169025 -0.985428 -0.019033
vn 0.725665 -0.511798 0.459862
vn -0.024817 0.999388 -0.024653
vn 0.626023 0.634574 0.453223
vn -0.707853 0.680332 0.189983
vn -0.620097 -0.761545 -0.188489
vn 0.740852 -0.668657 0.063527
vn 0.654245 0.753747 0.061881
vn -0.707846 0.680339 -0.189982
vn 0.097532 -0.994864 0.027079
vn 0.698754 -0.554866 -0.451515
vn 0.047333 0.998741 0.016611
vn 0.657998 0.595054 -0.461464
vn 0.538623 -0.714572 -0.446399
vn -0.587684 -0.746614 0.31176
vn 0.447755 0.775581 -0.444961
vn -0.673801 0.669229 0.313249
vn 0.55567 -0.592653 0.583089
vn -0.715329 -0.698628 0.014951
vn -0.850172 0.512251 -0.121682
vn 0.395494 0.751052 0.528683
vn 0.361499 -0.931912 -0.029289
vn 0.815658 -0.477687 0.326369
vn 0.776567 -0.582146 0.240935
vn 0.738614 0.592497 0.321553
vn 0.274288 0.917876 -0.286828
vn 0.794707 0.594578 0.12214
vn -0.587714 -0.746586 -0.311772
vn 0.538599 -0.714595 0.446391
vn -0.673821 0.669208 -0.313251
vn 0.447713 0.775606 0.44496
vn -0.78187 -0.611178 0.123047
vn 0.48402 -0.698738 -0.526772
vn -0.794797 0.606657 -0.016276
vn 0.479391 0.654407 -0.584753
vn 0.384031 -0.877034 0.288672
vn 0.805168 -0.49926 -0.320068
vn 0.860916 -0.494166 -0.120925
vn 0.751646 0.572337 -0.327809
vn 0.245003 0.969146 0.027022
vn 0.700069 0.671628 -0.242527
vn 0.773824 -0.431471 0.463713
vn -0.36191 -0.778024 -0.513517
vn 0.574921 0.759676 0.303905
vn -0.617074 0.512359 -0.597251
vn -0.107381 -0.819422 -0.563043
vn 0.772307 -0.501023 0.390535
vn -0.169169 0.821532 -0.544488
vn 0.719652 0.55723 0.414241
vn -0.5503 -0.582056 0.598649
vn 0.662959 -0.68495 -0.302208
vn -0.453905 0.72939 0.511821
vn 0.715847 0.521019 -0.464869
vn 0.782143 -0.466703 -0.412845
vn -0.067769 -0.834619 0.546643
vn -0.206681 0.801642 0.56094
vn 0.705681 0.590215 -0.391996
vn -0.074913 -0.568076 -0.819559
vn 0.85002 -0.510402 0.130218
vn -0.223783 0.563821 -0.795001
vn 0.688266 0.724667 0.033892
vn -0.537935 -0.835425 -0.112652
vn 0.800754 -0.567757 0.190907
vn -0.684026 0.679655 -0.264908
vn 0.747915 0.659146 0.078425
vn 0.771109 -0.635886 -0.032258
vn -0.153307 -0.585189 0.796273
vn -0.143544 0.556412 0.818414
vn 0.782068 0.609118 -0.1317
vn 0.822367 -0.563723 -0.076996
vn -0.596538 -0.756936 0.266814
vn 0.725885 0.660336 -0.192477
vn -0.635362 0.764249 0.11063
vn -0.675558 -0.737307 -0.000436
vn 0.777313 -0.629113 -0.000425
vn 0.695037 0.718974 0.000423
vn -0.759672 0.650307 0.000436
vn -0.23384 -0.972269 0.003374
vn -0.350956 0.936386 -0.003365
# 310 normals
usemtl Material__1
f  2//1 11//2 3//3
f  15//4 17//5 7//6
f  8//7 21//8 9//9
f  10//10 22//11 18//12
f  27//13 13//14 12//15
f  28//16 27//13 12//15
f  29//17 28//16 12//15
f  14//18 20//19 33//20
f  14//18 33//20 34//21
f  14//18 34//21 35//22
f  24//23 23//24 37//25
f  24//23 37//25 39//26
f  24//23 39//26 40//27
f  38//28 26//29 25//30
f  44//31 38//28 25//30
f  45//32 44//31 25//30
f  71//33 72//34 63//35
f  72//34 73//36 63//35
f  73//36 64//37 63//35
f  65//38 80//39 81//40
f  65//38 82//41 80//39
f  65//38 66//42 82//41
f  68//43 67//44 85//45
f  68//43 89//46 90//47
f  68//43 85//45 89//46
f  94//48 69//49 70//50
f  96//51 97//52 70//50
f  97//52 94//48 70//50
f  100//53 73//36 72//34
f  100//53 77//54 73//36
f  107//55 78//56 77//54
f  100//53 107//55 77//54
f  84//57 79//58 108//59
f  80//39 82//41 109//60
f  82//41 84//57 109//60
f  84//57 108//59 109//60
f  89//46 85//45 113//61
f  85//45 87//62 113//61
f  87//62 86//63 114//64
f  87//62 114//64 113//61
f  115//65 88//66 95//67
f  123//68 94//48 97//52
f  123//68 95//67 94//48
f  123//68 115//65 95//67
f  128//69 107//55 100//53
f  134//70 130//71 105//72
f  137//73 107//55 128//69
f  109//60 108//59 139//74
f  139//74 108//59 138//75
f  112//76 142//77 136//78
f  113//61 114//64 143//79
f  143//79 114//64 145//80
f  147//81 115//65 123//68
f  146//82 115//65 147//81
f  120//83 149//84 152//85
f  155//86 158//87 126//88
f  165//89 132//90 131//91
f  169//92 134//70 132//90
f  133//93 135//94 166//95
f  135//94 136//78 174//96
f  151//97 150//98 186//99
f  150//98 152//85 189//100
f  191//101 154//102 153//103
f  195//104 155//86 154//102
f  162//105 203//106 163//107
f  164//108 204//109 176//110
f  209//111 168//112 167//113
f  209//111 211//114 168//112
f  173//115 172//116 210//117
f  172//116 216//118 210//117
f  183//119 225//120 184//121
f  197//122 227//123 185//124
f  188//125 187//126 229//127
f  187//126 230//128 229//127
f  232//129 194//130 193//131
f  232//129 236//132 194//130
f  263//133 240//134 239//135
f  264//136 263//133 239//135
f  265//137 264//136 239//135
f  266//138 265//137 239//135
f  241//139 242//140 270//141
f  241//139 270//141 271//142
f  241//139 271//142 272//143
f  241//139 272//143 273//144
f  252//145 251//146 279//147
f  252//145 279//147 281//148
f  252//145 281//148 282//149
f  252//145 282//149 283//150
f  280//151 253//152 254//153
f  287//154 280//151 254//153
f  288//155 287//154 254//153
f  289//156 288//155 254//153
f  303//157 295//158 296//159
f  297//160 298//161 307//162
f  299//163 300//164 309//165
f  310//166 301//167 302//168
f  1//169 6//170 7//6
f  1//169 7//6 2//1
f  9//9 10//10 6//170
f  9//9 6//170 1//169
f  12//15 13//14 11//2
f  12//15 11//2 2//1
f  2//1 7//6 14//18
f  2//1 14//18 12//15
f  3//3 15//4 16//171
f  3//3 16//171 4//172
f  11//2 17//5 15//4
f  11//2 15//4 3//3
f  4//172 16//171 18//12
f  4//172 18//12 8//7
f  7//6 17//5 20//19
f  7//6 20//19 14//18
f  8//7 18//12 22//11
f  8//7 22//11 21//8
f  9//9 21//8 23//24
f  9//9 23//24 24//23
f  24//23 25//30 10//10
f  24//23 10//10 9//9
f  25//30 26//29 22//11
f  25//30 22//11 10//10
f  13//14 20//19 17//5
f  13//14 17//5 11//2
f  30//173 31//174 29//17
f  30//173 29//17 12//15
f  12//15 14//18 32//175
f  12//15 32//175 30//173
f  27//13 33//20 20//19
f  27//13 20//19 13//14
f  14//18 35//22 36//176
f  14//18 36//176 32//175
f  21//8 22//11 26//29
f  21//8 26//29 23//24
f  23//24 26//29 38//28
f  23//24 38//28 37//25
f  24//23 40//27 41//177
f  24//23 41//177 42//178
f  42//178 43//179 25//30
f  42//178 25//30 24//23
f  43//179 46//180 45//32
f  43//179 45//32 25//30
f  28//16 34//21 33//20
f  28//16 33//20 27//13
f  29//17 35//22 34//21
f  29//17 34//21 28//16
f  31//174 36//176 35//22
f  31//174 35//22 29//17
f  30//173 47//181 48//182
f  30//173 48//182 31//174
f  30//173 32//175 49//183
f  30//173 49//183 47//181
f  48//182 50//184 36//176
f  48//182 36//176 31//174
f  36//176 50//184 49//183
f  36//176 49//183 32//175
f  37//25 38//28 44//31
f  37//25 44//31 39//26
f  39//26 44//31 45//32
f  39//26 45//32 40//27
f  40//27 45//32 46//180
f  40//27 46//180 41//177
f  41//177 51//185 52//186
f  41//177 52//186 42//178
f  41//177 46//180 53//187
f  41//177 53//187 51//185
f  52//186 54//188 43//179
f  52//186 43//179 42//178
f  43//179 54//188 53//187
f  43//179 53//187 46//180
f  47//181 55//189 56//190
f  47//181 56//190 48//182
f  47//181 49//183 57//191
f  47//181 57//191 55//189
f  56//190 58//192 50//184
f  56//190 50//184 48//182
f  50//184 58//192 57//191
f  50//184 57//191 49//183
f  51//185 59//193 60//194
f  51//185 60//194 52//186
f  51//185 53//187 61//195
f  51//185 61//195 59//193
f  60//194 62//196 54//188
f  60//194 54//188 52//186
f  54//188 62//196 61//195
f  54//188 61//195 53//187
f  63//35 64//37 56//190
f  63//35 56//190 55//189
f  55//189 57//191 65//38
f  55//189 65//38 63//35
f  64//37 66//42 58//192
f  64//37 58//192 56//190
f  57//191 58//192 66//42
f  57//191 66//42 65//38
f  60//194 59//193 67//44
f  60//194 67//44 68//43
f  59//193 61//195 69//49
f  59//193 69//49 67//44
f  68//43 70//50 62//196
f  68//43 62//196 60//194
f  70//50 69//49 61//195
f  70//50 61//195 62//196
f  74//197 75//198 71//33
f  74//197 71//33 63//35
f  74//197 63//35 65//38
f  74//197 65//38 76//199
f  77//54 78//56 64//37
f  77//54 64//37 73//36
f  78//56 79//58 66//42
f  78//56 66//42 64//37
f  65//38 81//40 83//200
f  65//38 83//200 76//199
f  82//41 66//42 79//58
f  82//41 79//58 84//57
f  85//45 67//44 86//63
f  85//45 86//63 87//62
f  67//44 69//49 88//66
f  67//44 88//66 86//63
f  68//43 90//47 91//201
f  68//43 91//201 92//202
f  93//203 70//50 68//43
f  93//203 68//43 92//202
f  95//67 88//66 69//49
f  95//67 69//49 94//48
f  93//203 98//204 96//51
f  93//203 96//51 70//50
f  71//33 99//205 100//53
f  71//33 100//53 72//34
f  75//198 101//206 99//205
f  75//198 99//205 71//33
f  102//207 103//208 75//198
f  102//207 75//198 74//197
f  102//207 74//197 76//199
f  102//207 76//199 104//209
f  103//208 105//72 101//206
f  103//208 101//206 75//198
f  76//199 83//200 106//210
f  76//199 106//210 104//209
f  107//55 108//59 79//58
f  107//55 79//58 78//56
f  80//39 109//60 110//211
f  80//39 110//211 81//40
f  81//40 110//211 111//212
f  81//40 111//212 83//200
f  83//200 111//212 112//76
f  83//200 112//76 106//210
f  86//63 88//66 115//65
f  86//63 115//65 114//64
f  89//46 113//61 116//213
f  89//46 116//213 90//47
f  90//47 116//213 117//214
f  90//47 117//214 91//201
f  92//202 91//201 118//215
f  92//202 118//215 119//216
f  91//201 117//214 120//83
f  91//201 120//83 118//215
f  121//217 93//203 92//202
f  121//217 92//202 119//216
f  121//217 122//218 98//204
f  121//217 98//204 93//203
f  96//51 124//219 123//68
f  96//51 123//68 97//52
f  98//204 125//220 124//219
f  98//204 124//219 96//51
f  122//218 126//88 125//220
f  122//218 125//220 98//204
f  99//205 127//221 128//69
f  99//205 128//69 100//53
f  101//206 129//222 127//221
f  101//206 127//221 99//205
f  105//72 130//71 129//222
f  105//72 129//222 101//206
f  131//91 132//90 103//208
f  131//91 103//208 102//207
f  102//207 104//209 133//93
f  102//207 133//93 131//91
f  132//90 134//70 105//72
f  132//90 105//72 103//208
f  104//209 106//210 135//94
f  104//209 135//94 133//93
f  106//210 112//76 136//78
f  106//210 136//78 135//94
f  137//73 138//75 108//59
f  137//73 108//59 107//55
f  109//60 139//74 140//223
f  109//60 140//223 110//211
f  110//211 140//223 141//224
f  110//211 141//224 111//212
f  111//212 141//224 142//77
f  111//212 142//77 112//76
f  113//61 143//79 144//225
f  113//61 144//225 116//213
f  114//64 115//65 146//82
f  114//64 146//82 145//80
f  116//213 144//225 148//226
f  116//213 148//226 117//214
f  117//214 148//226 149//84
f  117//214 149//84 120//83
f  119//216 118//215 150//98
f  119//216 150//98 151//97
f  118//215 120//83 152//85
f  118//215 152//85 150//98
f  151//97 153//103 121//217
f  151//97 121//217 119//216
f  153//103 154//102 122//218
f  153//103 122//218 121//217
f  154//102 155//86 126//88
f  154//102 126//88 122//218
f  124//219 156//227 147//81
f  124//219 147//81 123//68
f  125//220 157//228 156//227
f  125//220 156//227 124//219
f  126//88 158//87 157//228
f  126//88 157//228 125//220
f  129//222 141//224 140//223
f  129//222 140//223 127//221
f  127//221 140//223 139//74
f  127//221 139//74 128//69
f  159//229 160//230 137//73
f  159//229 137//73 128//69
f  128//69 139//74 161//231
f  128//69 161//231 159//229
f  130//71 142//77 141//224
f  130//71 141//224 129//222
f  162//105 163//107 130//71
f  162//105 130//71 134//70
f  163//107 164//108 142//77
f  163//107 142//77 130//71
f  131//91 133//93 166//95
f  131//91 166//95 165//89
f  167//113 168//112 132//90
f  167//113 132//90 165//89
f  168//112 170//232 169//92
f  168//112 169//92 132//90
f  169//92 171//233 162//105
f  169//92 162//105 134//70
f  166//95 135//94 172//116
f  166//95 172//116 173//115
f  135//94 174//96 175//234
f  135//94 175//234 172//116
f  136//78 142//77 164//108
f  136//78 164//108 176//110
f  136//78 176//110 177//235
f  136//78 177//235 174//96
f  160//230 178//236 138//75
f  160//230 138//75 137//73
f  139//74 138//75 178//236
f  139//74 178//236 161//231
f  143//79 145//80 179//237
f  143//79 179//237 180//238
f  143//79 147//81 156//227
f  143//79 156//227 144//225
f  180//238 181//239 147//81
f  180//238 147//81 143//79
f  144//225 156//227 157//228
f  144//225 157//228 148//226
f  145//80 146//82 182//240
f  145//80 182//240 179//237
f  181//239 182//240 146//82
f  181//239 146//82 147//81
f  148//226 157//228 158//87
f  148//226 158//87 149//84
f  152//85 149//84 183//119
f  152//85 183//119 184//121
f  149//84 158//87 185//124
f  149//84 185//124 183//119
f  186//99 150//98 187//126
f  186//99 187//126 188//125
f  150//98 189//100 190//241
f  150//98 190//241 187//126
f  186//99 191//101 153//103
f  186//99 153//103 151//97
f  152//85 184//121 192//242
f  152//85 192//242 189//100
f  193//131 194//130 154//102
f  193//131 154//102 191//101
f  194//130 196//243 195//104
f  194//130 195//104 154//102
f  197//122 185//124 158//87
f  197//122 158//87 155//86
f  195//104 198//244 197//122
f  195//104 197//122 155//86
f  199//245 200//246 160//230
f  199//245 160//230 159//229
f  159//229 161//231 201//247
f  159//229 201//247 199//245
f  200//246 202//248 178//236
f  200//246 178//236 160//230
f  161//231 178//236 202//248
f  161//231 202//248 201//247
f  162//105 176//110 204//109
f  162//105 204//109 203//106
f  171//233 177//235 176//110
f  171//233 176//110 162//105
f  163//107 203//106 205//249
f  163//107 205//249 206//250
f  206//250 207//251 164//108
f  206//250 164//108 163//107
f  207//251 208//252 204//109
f  207//251 204//109 164//108
f  165//89 166//95 173//115
f  165//89 173//115 167//113
f  167//113 173//115 210//117
f  167//113 210//117 209//111
f  211//114 212//253 170//232
f  211//114 170//232 168//112
f  170//232 213//254 171//233
f  170//232 171//233 169//92
f  212//253 214//255 213//254
f  212//253 213//254 170//232
f  213//254 215//256 177//235
f  213//254 177//235 171//233
f  172//116 175//234 217//257
f  172//116 217//257 216//118
f  174//96 177//235 215//256
f  174//96 215//256 175//234
f  175//234 215//256 218//258
f  175//234 218//258 217//257
f  180//238 179//237 219//259
f  180//238 219//259 220//260
f  179//237 182//240 221//261
f  179//237 221//261 219//259
f  220//260 222//262 181//239
f  220//260 181//239 180//238
f  222//262 221//261 182//240
f  222//262 182//240 181//239
f  223//263 224//264 225//120
f  223//263 225//120 183//119
f  183//119 185//124 226//265
f  183//119 226//265 223//263
f  225//120 227//123 197//122
f  225//120 197//122 184//121
f  184//121 197//122 198//244
f  184//121 198//244 192//242
f  185//124 227//123 228//266
f  185//124 228//266 226//265
f  188//125 193//131 191//101
f  188//125 191//101 186//99
f  187//126 190//241 231//267
f  187//126 231//267 230//128
f  229//127 232//129 193//131
f  229//127 193//131 188//125
f  189//100 192//242 233//268
f  189//100 233//268 190//241
f  190//241 233//268 234//269
f  190//241 234//269 231//267
f  192//242 198//244 235//270
f  192//242 235//270 233//268
f  236//132 237//271 196//243
f  236//132 196//243 194//130
f  196//243 235//270 198//244
f  196//243 198//244 195//104
f  237//271 238//272 235//270
f  237//271 235//270 196//243
f  239//135 240//134 200//246
f  239//135 200//246 199//245
f  199//245 201//247 241//139
f  199//245 241//139 239//135
f  240//134 242//140 202//248
f  240//134 202//248 200//246
f  201//247 202//248 242//140
f  201//247 242//140 241//139
f  203//106 204//109 208//252
f  203//106 208//252 205//249
f  206//250 205//249 243//273
f  206//250 243//273 244//274
f  205//249 208//252 245//275
f  205//249 245//275 243//273
f  244//274 246//276 207//251
f  244//274 207//251 206//250
f  246//276 245//275 208//252
f  246//276 208//252 207//251
f  209//111 214//255 212//253
f  209//111 212//253 211//114
f  247//277 248//278 214//255
f  247//277 214//255 209//111
f  209//111 210//117 249//279
f  209//111 249//279 247//277
f  216//118 217//257 218//258
f  216//118 218//258 210//117
f  210//117 218//258 250//280
f  210//117 250//280 249//279
f  214//255 218//258 215//256
f  214//255 215//256 213//254
f  248//278 250//280 218//258
f  248//278 218//258 214//255
f  220//260 219//259 251//146
f  220//260 251//146 252//145
f  219//259 221//261 253//152
f  219//259 253//152 251//146
f  252//145 254//153 222//262
f  252//145 222//262 220//260
f  254//153 253//152 221//261
f  254//153 221//261 222//262
f  255//281 256//282 224//264
f  255//281 224//264 223//263
f  223//263 226//265 257//283
f  223//263 257//283 255//281
f  256//282 258//284 228//266
f  256//282 228//266 224//264
f  224//264 228//266 227//123
f  224//264 227//123 225//120
f  226//265 228//266 258//284
f  226//265 258//284 257//283
f  230//128 231//267 234//269
f  230//128 234//269 229//127
f  229//127 234//269 259//285
f  229//127 259//285 260//286
f  260//286 261//287 232//129
f  260//286 232//129 229//127
f  232//129 238//272 237//271
f  232//129 237//271 236//132
f  261//287 262//288 238//272
f  261//287 238//272 232//129
f  233//268 235//270 238//272
f  233//268 238//272 234//269
f  234//269 238//272 262//288
f  234//269 262//288 259//285
f  267//289 268//290 266//138
f  267//289 266//138 239//135
f  239//135 241//139 269//291
f  239//135 269//291 267//289
f  263//133 270//141 242//140
f  263//133 242//140 240//134
f  241//139 273//144 274//292
f  241//139 274//292 269//291
f  244//274 243//273 268//290
f  244//274 268//290 267//289
f  243//273 245//275 274//292
f  243//273 274//292 268//290
f  267//289 269//291 246//276
f  267//289 246//276 244//274
f  269//291 274//292 245//275
f  269//291 245//275 246//276
f  275//293 276//294 248//278
f  275//293 248//278 247//277
f  247//277 249//279 277//295
f  247//277 277//295 275//293
f  276//294 278//296 250//280
f  276//294 250//280 248//278
f  249//279 250//280 278//296
f  249//279 278//296 277//295
f  251//146 253//152 280//151
f  251//146 280//151 279//147
f  252//145 283//150 284//297
f  252//145 284//297 285//298
f  285//298 286//299 254//153
f  285//298 254//153 252//145
f  286//299 290//300 289//156
f  286//299 289//156 254//153
f  285//298 284//297 256//282
f  285//298 256//282 255//281
f  255//281 257//283 286//299
f  255//281 286//299 285//298
f  284//297 290//300 258//284
f  284//297 258//284 256//282
f  257//283 258//284 290//300
f  257//283 290//300 286//299
f  260//286 259//285 291//301
f  260//286 291//301 292//302
f  259//285 262//288 293//303
f  259//285 293//303 291//301
f  292//302 294//304 261//287
f  292//302 261//287 260//286
f  294//304 293//303 262//288
f  294//304 262//288 261//287
f  264//136 271//142 270//141
f  264//136 270//141 263//133
f  265//137 272//143 271//142
f  265//137 271//142 264//136
f  266//138 273//144 272//143
f  266//138 272//143 265//137
f  268//290 274//292 273//144
f  268//290 273//144 266//138
f  295//158 276//294 275//293
f  295//158 275//293 296//159
f  275//293 277//295 297//160
f  275//293 297//160 296//159
f  295//158 298//161 278//296
f  295//158 278//296 276//294
f  297//160 277//295 278//296
f  297//160 278//296 298//161
f  279//147 280//151 287//154
f  279//147 287//154 281//148
f  281//148 287//154 288//155
f  281//148 288//155 282//149
f  282//149 288//155 289//156
f  282//149 289//156 283//150
f  283//150 289//156 290//300
f  283//150 290//300 284//297
f  299//163 292//302 291//301
f  299//163 291//301 300//164
f  291//301 293//303 301//167
f  291//301 301//167 300//164
f  299//163 302//168 294//304
f  299//163 294//304 292//302
f  301//167 293//303 294//304
f  301//167 294//304 302//168
f  304//305 305//306 295//158
f  304//305 295//158 303//157
f  305//306 306//307 298//161
f  305//306 298//161 295//158
f  296//159 297//160 307//162
f  296//159 307//162 303//157
f  307//162 298//161 306//307
f  307//162 306//307 308//308
f  309//165 310//166 302//168
f  309//165 302//168 299//163
f  309//165 300//164 305//306
f  309//165 305//306 304//305
f  300//164 301//167 306//307
f  300//164 306//307 305//306
f  308//308 306//307 301//167
f  308//308 301//167 310//166
f  303//157 307//162 308//308
f  303//157 308//308 304//305
f  304//305 308//308 310//166
f  304//305 310//166 309//165
f  1//169 2//1 3//3
f  1//169 3//3 4//172
f  1//169 4//172 5//309
f  5//309 4//172 8//7
f  5//309 8//7 9//9
f  5//309 9//9 1//169
f  19//310 16//171 15//4
f  19//310 15//4 7//6
f  19//310 7//6 6//170
f  6//170 10//10 18//12
f  6//170 18//12 16//171
f  6//170 16//171 19//310
