#VRML V2.0 utf8 
Transform { 
 children [ 
    Shape { 
appearance Appearance {
              material DEF surface Material {
              diffuseColor 0.8 0.8 0.8
              ambientIntensity 0.2
              specularColor 0.4 0.4 0.4
              emissiveColor 0 0 0
              shininess 0.25
              transparency 0
            }
          }
   geometry IndexedFaceSet { 
   solid FALSE 
    coord DEF bone Coordinate{ 
     point [ 
	 -0.026075   0.024359   0.000150,
	 -0.014984   0.024991   0.000150,
	 -0.014339   0.025054  -0.004180,
	 -0.027036   0.024407   0.000150,
	 -0.014339   0.025054   0.004480,
	 -0.020849   0.010273  -0.002122,
	 -0.015259   0.024353  -0.001485,
	 -0.020850   0.010272   0.000150,
	 -0.015259   0.024353   0.001786,
	 -0.020849   0.010273   0.002422,
	 -0.008831   0.026462  -0.012190,
	 -0.015298   0.025152  -0.004960,
	 -0.018223   0.019944  -0.011813,
	 -0.030423   0.020223  -0.005270,
	 -0.037822   0.021924  -0.003752,
	 -0.043338   0.023084  -0.003527,
	 -0.043048   0.025105   0.000150,
	 -0.043338   0.023084   0.003828,
	 -0.037822   0.021924   0.004053,
	 -0.030423   0.020223   0.005571,
	 -0.018223   0.019944   0.012113,
	 -0.008831   0.026462   0.012491,
	 -0.015298   0.025152   0.005260,
	 -0.014428   0.014353  -0.009838,
	 -0.031215   0.015192  -0.006679,
	 -0.021126   0.012848  -0.012267,
	 -0.031220   0.015187   0.000150,
	 -0.031215   0.015192   0.006979,
	 -0.014428   0.014353   0.010139,
	 -0.021126   0.012848   0.012567,
	 -0.005252   0.021226  -0.012269,
	 -0.006271   0.022071  -0.013732,
	 -0.011272   0.023453  -0.022495,
	 -0.037205   0.015902  -0.005751,
	 -0.043867   0.014780  -0.005593,
	 -0.047974   0.014880  -0.005446,
	 -0.050667   0.022666  -0.004316,
	 -0.049268   0.026761   0.000150,
	 -0.050667   0.022666   0.004616,
	 -0.047974   0.014880   0.005746,
	 -0.043867   0.014780   0.005893,
	 -0.037205   0.015902   0.006052,
	 -0.011272   0.023453   0.022791,
	 -0.006271   0.022071   0.014032,
	 -0.005252   0.021226   0.012570,
	 -0.002543   0.014903  -0.010931,
	 -0.006626   0.010197  -0.009825,
	 -0.003050   0.020895  -0.021058,
	 -0.018587   0.013356  -0.022689,
	 -0.037209   0.015898   0.000150,
	 -0.014943   0.018778  -0.024179,
	 -0.019693   0.013289  -0.017400,
	 -0.002543   0.014903   0.011231,
	 -0.006626   0.010197   0.010126,
	 -0.003050   0.020895   0.021354,
	 -0.018587   0.013356   0.022985,
	 -0.014943   0.018778   0.024475,
	 -0.019693   0.013289   0.017700,
	  0.000565   0.024569  -0.009892,
	  0.000807   0.025961  -0.010987,
	 -0.002033   0.021620  -0.013145,
	 -0.000601   0.021749  -0.016647,
	 -0.003954   0.025212  -0.018550,
	 -0.008601   0.024036  -0.024668,
	 -0.000588   0.028069  -0.023900,
	 -0.043871   0.014776   0.000150,
	 -0.047978   0.014876   0.000150,
	 -0.052060   0.017696  -0.004210,
	 -0.052060   0.017696   0.004511,
	 -0.008601   0.024036   0.024959,
	 -0.000588   0.028069   0.024167,
	 -0.003954   0.025212   0.018845,
	 -0.002033   0.021620   0.013446,
	 -0.000601   0.021749   0.016948,
	  0.000807   0.025961   0.011288,
	  0.000565   0.024569   0.010193,
	 -0.005524   0.008833  -0.004101,
	  0.012721   0.003631  -0.008543,
	  0.009964   0.005628  -0.015003,
	  0.006427   0.006762  -0.016757,
	  0.004055   0.012665  -0.018399,
	 -0.000842   0.018942  -0.018276,
	 -0.002804   0.026386  -0.025971,
	 -0.002996   0.020561  -0.024241,
	 -0.001415   0.023886  -0.028250,
	 -0.004459   0.015987  -0.030349,
	 -0.001533   0.017552  -0.029420,
	  0.002198   0.018189  -0.019549,
	  0.002454   0.017128  -0.023095,
	  0.001366   0.016161  -0.026796,
	  0.003692   0.015108  -0.022307,
	 -0.006739   0.023144  -0.028665,
	 -0.005524   0.008833   0.004401,
	  0.009964   0.005628   0.015303,
	  0.012721   0.003631   0.008844,
	  0.006427   0.006762   0.017058,
	  0.004055   0.012665   0.018699,
	 -0.000842   0.018942   0.018576,
	 -0.002804   0.026386   0.026239,
	 -0.001415   0.023886   0.028518,
	 -0.002996   0.020561   0.024532,
	 -0.004459   0.015987   0.030617,
	 -0.001533   0.017552   0.029711,
	  0.002454   0.017128   0.023391,
	  0.002198   0.018188   0.019512,
	  0.003692   0.015108   0.022603,
	  0.001366   0.016161   0.027086,
	 -0.006739   0.023144   0.028956,
	  0.003504   0.028080  -0.011666,
	  0.002854   0.023164  -0.005159,
	  0.004709   0.026848  -0.014329,
	  0.001833   0.023092  -0.002390,
	 -0.005675   0.008153   0.000150,
	  0.003641   0.026230  -0.015713,
	  0.003641   0.026230   0.016013,
	  0.004709   0.026848   0.014630,
	  0.003504   0.028080   0.011966,
	  0.002854   0.023164   0.005460,
	  0.001833   0.023092   0.002691,
	  0.013996   0.003387  -0.002163,
	  0.014004   0.003537   0.000150,
	  0.015493   0.017335  -0.007528,
	  0.012491   0.019196  -0.011725,
	  0.010457   0.021077  -0.013341,
	  0.006260   0.019160  -0.017268,
	  0.003916   0.016420  -0.022891,
	 -0.000182   0.019306  -0.024971,
	 -0.001988   0.016668  -0.029750,
	  0.001365   0.017465  -0.025903,
	  0.013996   0.003387   0.002464,
	  0.015493   0.017335   0.007829,
	  0.012491   0.019196   0.012025,
	  0.010457   0.021077   0.013641,
	  0.006260   0.019160   0.017569,
	  0.003916   0.016420   0.023186,
	 -0.000182   0.019306   0.025261,
	 -0.001988   0.016668   0.030018,
	  0.001365   0.017465   0.026194,
	  0.006621   0.025323  -0.013436,
	  0.004304   0.021500   0.000150,
	  0.016357   0.017033   0.000150,
	  0.006621   0.025323   0.013736,
     ]    } 
    coordIndex [ 
	     0,      1,      2, -1 
	     2,      3,      0, -1 
	     4,      1,      0, -1 
	     0,      3,      4, -1 
	     5,      6,      1, -1 
	     7,      5,      1, -1 
	     1,      6,      2, -1 
	     1,      8,      9, -1 
	     1,      9,      7, -1 
	     4,      8,      1, -1 
	    10,      2,      6, -1 
	    10,     11,      2, -1 
	    12,      2,     11, -1 
	    13,     14,      3, -1 
	     3,     18,     19, -1 
	     8,      4,     21, -1 
	     4,     22,     21, -1 
	    22,      4,     20, -1 
	    23,      6,      5, -1 
	    10,      6,     23, -1 
	    28,      8,     21, -1 
	     9,      8,     28, -1 
	    10,     31,     32, -1 
	    12,     25,     24, -1 
	    12,     32,     25, -1 
	    14,     34,     35, -1 
	    15,     14,     35, -1 
	    35,     36,     15, -1 
	    39,     18,     17, -1 
	    17,     38,     39, -1 
	    39,     40,     18, -1 
	    27,     29,     20, -1 
	    29,     42,     20, -1 
	    42,     43,     21, -1 
	    30,     23,     45, -1 
	    45,     23,     46, -1 
	    47,     46,     23, -1 
	    25,     32,     50, -1 
	    25,     50,     51, -1 
	    25,     51,     48, -1 
	    52,     28,     44, -1 
	    53,     28,     52, -1 
	    28,     53,     54, -1 
	    56,     42,     29, -1 
	    57,     56,     29, -1 
	    55,     57,     29, -1 
	    59,     60,     30, -1 
	    60,     31,     30, -1 
	    62,     32,     31, -1 
	    32,     63,     50, -1 
	    66,     37,     35, -1 
	    67,     35,     37, -1 
	    67,     36,     35, -1 
	    36,     67,     37, -1 
	    39,     37,     66, -1 
	    37,     68,     38, -1 
	    37,     39,     68, -1 
	    39,     38,     68, -1 
	    56,     69,     42, -1 
	    43,     42,     71, -1 
	    44,     43,     72, -1 
	    44,     72,     74, -1 
	    58,     45,     46, -1 
	    58,     46,     76, -1 
	    78,     46,     79, -1 
	    79,     46,     80, -1 
	    46,     47,     80, -1 
	    47,     64,     62, -1 
	    47,     82,     64, -1 
	    47,     48,     85, -1 
	    47,     85,     86, -1 
	    47,     81,     87, -1 
	    89,     90,     47, -1 
	    90,     80,     47, -1 
	    47,     86,     89, -1 
	    51,     50,     48, -1 
	    50,     91,     48, -1 
	    91,     85,     48, -1 
	    63,     91,     50, -1 
	    53,     52,     75, -1 
	    92,     53,     75, -1 
	    95,     53,     93, -1 
	    96,     53,     95, -1 
	    96,     54,     53, -1 
	    71,     70,     54, -1 
	    70,     98,     54, -1 
	   101,     55,     54, -1 
	   102,    101,     54, -1 
	   104,     97,     54, -1 
	    54,    105,    106, -1 
	    54,     96,    105, -1 
	   106,    102,     54, -1 
	    55,     56,     57, -1 
	    55,    107,     56, -1 
	    55,    101,    107, -1 
	    56,    107,     69, -1 
	   108,     58,    109, -1 
	   109,     58,    111, -1 
	   113,     61,     60, -1 
	    81,     61,    113, -1 
	    82,     63,     64, -1 
	    91,     63,     82, -1 
	    70,     69,     98, -1 
	    98,     69,    107, -1 
	    72,     73,    114, -1 
	   114,     73,     97, -1 
	   117,     75,    116, -1 
	   118,     75,    117, -1 
	    77,    121,    119, -1 
	    79,    122,     78, -1 
	    80,    124,    123, -1 
	    87,     81,    113, -1 
	    82,     84,     91, -1 
	   126,     84,     83, -1 
	   126,     83,     88, -1 
	    84,    127,     91, -1 
	   126,    127,     84, -1 
	    91,    127,     85, -1 
	    86,     85,    127, -1 
	   124,     87,    113, -1 
	    93,    131,     95, -1 
	   129,    130,     94, -1 
	   132,    133,     96, -1 
	   114,     97,    104, -1 
	   107,     99,     98, -1 
	   100,     99,    135, -1 
	   107,    136,     99, -1 
	    99,    136,    135, -1 
	   103,    100,    135, -1 
	   101,    136,    107, -1 
	   136,    101,    102, -1 
	   114,    104,    133, -1 
	   138,    110,    108, -1 
	   123,    109,    122, -1 
	   122,    109,    121, -1 
	   109,    111,    139, -1 
	   139,    111,    112, -1 
	   112,    118,    139, -1 
	   116,    115,    141, -1 
	   131,    117,    132, -1 
	   130,    117,    131, -1 
	   139,    118,    117, -1 
	   123,    124,    138, -1 
	   127,    126,    128, -1 
	   141,    133,    132, -1 
	   137,    135,    136, -1 
	     2,     12,     13, -1 
	     2,     13,      3, -1 
	     3,     14,     15, -1 
	     3,     15,     16, -1 
	    16,     17,     18, -1 
	    16,     18,      3, -1 
	     3,     19,     20, -1 
	     3,     20,      4, -1 
	    23,      5,     24, -1 
	    23,     24,     25, -1 
	    24,      5,      7, -1 
	    24,      7,     26, -1 
	    26,      7,      9, -1 
	    26,      9,     27, -1 
	    29,     27,      9, -1 
	    29,      9,     28, -1 
	    30,     31,     10, -1 
	    30,     10,     23, -1 
	    10,     32,     12, -1 
	    10,     12,     11, -1 
	    13,     12,     24, -1 
	    13,     24,     33, -1 
	    14,     13,     33, -1 
	    14,     33,     34, -1 
	    16,     15,     36, -1 
	    16,     36,     37, -1 
	    37,     38,     17, -1 
	    37,     17,     16, -1 
	    40,     41,     19, -1 
	    40,     19,     18, -1 
	    41,     27,     20, -1 
	    41,     20,     19, -1 
	    22,     20,     42, -1 
	    22,     42,     21, -1 
	    28,     21,     43, -1 
	    28,     43,     44, -1 
	    47,     23,     25, -1 
	    47,     25,     48, -1 
	    49,     33,     24, -1 
	    49,     24,     26, -1 
	    26,     27,     41, -1 
	    26,     41,     49, -1 
	    55,     29,     28, -1 
	    55,     28,     54, -1 
	    58,     59,     30, -1 
	    58,     30,     45, -1 
	    61,     62,     31, -1 
	    61,     31,     60, -1 
	    32,     62,     64, -1 
	    32,     64,     63, -1 
	    65,     34,     33, -1 
	    65,     33,     49, -1 
	    66,     35,     34, -1 
	    66,     34,     65, -1 
	    65,     40,     39, -1 
	    65,     39,     66, -1 
	    49,     41,     40, -1 
	    49,     40,     65, -1 
	    69,     70,     71, -1 
	    69,     71,     42, -1 
	    72,     43,     71, -1 
	    72,     71,     73, -1 
	    52,     44,     74, -1 
	    52,     74,     75, -1 
	    77,     76,     46, -1 
	    77,     46,     78, -1 
	    81,     47,     62, -1 
	    81,     62,     61, -1 
	    47,     83,     84, -1 
	    47,     84,     82, -1 
	    83,     47,     87, -1 
	    83,     87,     88, -1 
	    93,     53,     92, -1 
	    93,     92,     94, -1 
	    73,     71,     54, -1 
	    73,     54,     97, -1 
	    98,     99,    100, -1 
	    98,    100,     54, -1 
	   103,    104,     54, -1 
	   103,     54,    100, -1 
	   110,     59,     58, -1 
	   110,     58,    108, -1 
	   111,     58,     76, -1 
	   111,     76,    112, -1 
	   110,    113,     60, -1 
	   110,     60,     59, -1 
	    74,     72,    114, -1 
	    74,    114,    115, -1 
	   116,     75,     74, -1 
	   116,     74,    115, -1 
	   112,     92,     75, -1 
	   112,     75,    118, -1 
	    78,    122,    121, -1 
	    78,    121,     77, -1 
	    80,    123,    122, -1 
	    80,    122,     79, -1 
	    80,     90,    125, -1 
	    80,    125,    124, -1 
	    89,     86,    127, -1 
	    89,    127,    128, -1 
	   125,     88,     87, -1 
	   125,     87,    124, -1 
	   128,    126,     88, -1 
	   128,     88,    125, -1 
	    90,     89,    128, -1 
	    90,    128,    125, -1 
	    94,    130,    131, -1 
	    94,    131,     93, -1 
	    95,    131,    132, -1 
	    95,    132,     96, -1 
	   133,    134,    105, -1 
	   133,    105,     96, -1 
	   137,    136,    102, -1 
	   137,    102,    106, -1 
	   133,    104,    103, -1 
	   133,    103,    134, -1 
	   134,    103,    135, -1 
	   134,    135,    137, -1 
	   134,    137,    106, -1 
	   134,    106,    105, -1 
	   123,    138,    108, -1 
	   123,    108,    109, -1 
	   109,    139,    140, -1 
	   109,    140,    121, -1 
	   124,    113,    110, -1 
	   124,    110,    138, -1 
	   141,    115,    114, -1 
	   141,    114,    133, -1 
	   117,    116,    141, -1 
	   117,    141,    132, -1 
	   130,    140,    139, -1 
	   130,    139,    117, -1 
	   121,    140,    120, -1 
	   121,    120,    119, -1 
	   129,    120,    140, -1 
	   129,    140,    130, -1 
	    76,     77,    119, -1 
	    76,    119,    120, -1 
	    76,    120,    112, -1 
	   112,    120,    129, -1 
	   112,    129,     94, -1 
	   112,     94,     92, -1 
    ] 
   colorPerVertex FALSE 
    colorIndex [ 
	  1, 
	  1, 
	  1, 
	  1, 
	  1, 
	  1, 
	  1, 
	  1, 
	  1, 
	  1, 
	  1, 
	  1, 
	  1, 
	  1, 
	  1, 
	  1, 
	  1, 
	  1, 
	  1, 
	  1, 
	  1, 
	  1, 
	  1, 
	  1, 
	  1, 
	  1, 
	  1, 
	  1, 
	  1, 
	  1, 
	  1, 
	  1, 
	  1, 
	  1, 
	  1, 
	  1, 
	  1, 
	  1, 
	  1, 
	  1, 
	  1, 
	  1, 
	  1, 
	  1, 
	  1, 
	  1, 
	  1, 
	  1, 
	  1, 
	  1, 
	  1, 
	  1, 
	  1, 
	  1, 
	  1, 
	  1, 
	  1, 
	  1, 
	  1, 
	  1, 
	  1, 
	  1, 
	  1, 
	  1, 
	  1, 
	  1, 
	  1, 
	  1, 
	  1, 
	  1, 
	  1, 
	  1, 
	  1, 
	  1, 
	  1, 
	  1, 
	  1, 
	  1, 
	  1, 
	  1, 
	  1, 
	  1, 
	  1, 
	  1, 
	  1, 
	  1, 
	  1, 
	  1, 
	  1, 
	  1, 
	  1, 
	  1, 
	  1, 
	  1, 
	  1, 
	  1, 
	  1, 
	  1, 
	  1, 
	  1, 
	  1, 
	  1, 
	  1, 
	  1, 
	  1, 
	  1, 
	  1, 
	  1, 
	  1, 
	  1, 
	  1, 
	  1, 
	  1, 
	  1, 
	  1, 
	  1, 
	  1, 
	  1, 
	  1, 
	  1, 
	  1, 
	  1, 
	  1, 
	  1, 
	  1, 
	  1, 
	  1, 
	  1, 
	  1, 
	  1, 
	  1, 
	  1, 
	  1, 
	  1, 
	  1, 
	  1, 
	  1, 
	  1, 
	  1, 
	  1, 
	  1, 
	  1, 
    ] 
normal Normal { 
vector [ 
	 -0.004211   0.999991   0.000000,
	  0.990772  -0.135539   0.000000,
	  0.046770   0.958850   0.280035,
	 -0.000568   0.999479  -0.032280,
	  0.042313   0.960888  -0.273687,
	  0.597296  -0.801702  -0.022599,
	  0.920678  -0.180844   0.345902,
	  0.365782  -0.930701   0.000000,
	  0.920678  -0.180845  -0.345901,
	  0.546294  -0.834443  -0.072576,
	  0.496617   0.866076   0.057312,
	 -0.624761   0.687957   0.369309,
	 -0.725617   0.486550  -0.486569,
	 -0.200673   0.602089  -0.772800,
	  0.003130   0.467017  -0.884243,
	  0.057884   0.522262  -0.850818,
	  0.096847   0.995176  -0.015668,
	  0.079516   0.536048   0.840434,
	  0.028580   0.500025   0.865539,
	 -0.132983   0.414545   0.900260,
	 -0.758935   0.299021   0.578449,
	  0.454112   0.815528  -0.358742,
	 -0.707770   0.634097  -0.311421,
	  0.715518  -0.610690   0.339252,
	 -0.445415  -0.619922  -0.645989,
	 -0.798804   0.154380  -0.581445,
	 -0.276730  -0.960948   0.000001,
	 -0.383950  -0.772239   0.506191,
	  0.413525  -0.638768  -0.648824,
	 -0.880551   0.122836   0.457757,
	  0.018142   0.937459   0.347622,
	  0.391231   0.892231   0.225526,
	 -0.492385   0.856530  -0.154637,
	 -0.225196  -0.593088  -0.773003,
	 -0.004596  -0.595074  -0.803658,
	 -0.367824  -0.245027  -0.897032,
	 -0.378272   0.463581  -0.801251,
	 -0.963109   0.264627   0.048932,
	 -0.357356   0.402488   0.842793,
	 -0.367825  -0.245027   0.897032,
	  0.023214  -0.615341   0.787919,
	 -0.067701  -0.764504   0.641054,
	 -0.531119   0.825657   0.190270,
	  0.229733   0.822681  -0.520018,
	  0.004748   0.564037  -0.825736,
	 -0.399793   0.528014   0.749245,
	 -0.688971  -0.587606  -0.424308,
	  0.469418  -0.868190  -0.160914,
	 -0.703823  -0.146000  -0.695210,
	  0.024328  -0.999704  -0.000000,
	 -0.736026   0.547094  -0.398690,
	 -0.805285   0.568301  -0.168967,
	 -0.270772   0.320232  -0.907818,
	 -0.689283  -0.587316   0.424203,
	  0.479252  -0.872635   0.093946,
	 -0.759603  -0.172414   0.627117,
	 -0.735880   0.547103   0.398946,
	 -0.805505   0.567946   0.169112,
	 -0.527989   0.782478   0.330085,
	 -0.352993   0.903641   0.242547,
	 -0.306539   0.950513   0.050589,
	  0.071813   0.939888  -0.333848,
	  0.394999   0.823709   0.406792,
	 -0.494213   0.822094  -0.282692,
	  0.578652   0.815456   0.013900,
	  0.071155  -0.997465  -0.000001,
	 -0.676891  -0.736083  -0.000000,
	 -0.996327  -0.085362  -0.006810,
	 -0.996327  -0.085362   0.006810,
	 -0.509590   0.807858   0.296115,
	  0.538863   0.841416   0.040568,
	  0.241122   0.908990  -0.339998,
	 -0.404360   0.910058   0.091035,
	 -0.099232   0.922318   0.373474,
	 -0.613416   0.760461  -0.213119,
	 -0.632390   0.687880  -0.356236,
	 -0.902833  -0.407309   0.137812,
	  0.463560  -0.809389  -0.360557,
	  0.273555  -0.700922  -0.658693,
	  0.109135  -0.450099  -0.886284,
	  0.163673  -0.496840  -0.852268,
	  0.208958   0.774806  -0.596667,
	  0.330062   0.613857  -0.717104,
	  0.728669   0.612349   0.306709,
	  0.800111   0.375117  -0.468092,
	  0.129289  -0.990353  -0.049847,
	 -0.333780  -0.590900   0.734458,
	  0.352966   0.838106  -0.415926,
	  0.538216   0.841601  -0.045071,
	 -0.565465  -0.711727   0.416766,
	  0.302798  -0.817438  -0.490009,
	 -0.299281   0.453803  -0.839341,
	 -0.900417  -0.428467  -0.075267,
	  0.253790  -0.718221   0.647881,
	  0.452748  -0.823963   0.340741,
	  0.111663  -0.447581   0.887244,
	  0.165626  -0.495166   0.852865,
	  0.188394   0.758846   0.623427,
	  0.309255   0.777795   0.547172,
	  0.780350   0.530455   0.331167,
	  0.651368   0.672323  -0.351714,
	  0.128626  -0.990570   0.047187,
	 -0.384425  -0.568914  -0.727017,
	  0.323166   0.941522  -0.095399,
	  0.225624   0.853116   0.470412,
	  0.245240  -0.779484   0.576422,
	 -0.727893  -0.624994  -0.282053,
	 -0.297625   0.453567   0.840058,
	  0.410444   0.806088   0.426330,
	  0.338440   0.907755   0.247867,
	  0.440903   0.896871   0.035034,
	 -0.229570   0.875152   0.425919,
	 -0.993269  -0.105787   0.047176,
	 -0.177548   0.677688  -0.713594,
	 -0.181439   0.597878   0.780783,
	  0.115301   0.981276   0.154281,
	  0.164859   0.841129  -0.515095,
	  0.345305   0.903215  -0.254887,
	 -0.257094   0.891591  -0.372785,
	  0.778650  -0.611819  -0.139217,
	  0.540181  -0.839202  -0.062798,
	  0.912338   0.377152  -0.159360,
	  0.738843   0.469181  -0.483716,
	  0.780166   0.451195  -0.433316,
	  0.689019   0.309576  -0.655298,
	  0.844248   0.441507  -0.303838,
	  0.732479   0.680320  -0.025300,
	  0.480387   0.557938  -0.676708,
	  0.628276   0.758636  -0.172456,
	  0.791235  -0.608651   0.059089,
	  0.915203   0.357289   0.186406,
	  0.742525   0.450847   0.495372,
	  0.811353   0.434863   0.390642,
	  0.609372   0.349362   0.711766,
	  0.703259   0.680454   0.205936,
	  0.662307   0.735176  -0.144449,
	  0.387991   0.598943   0.700521,
	  0.371015   0.928511  -0.014668,
	  0.699186   0.626244  -0.344902,
	  0.099467   0.994059   0.044202,
	  0.868028   0.495937   0.023957,
	  0.727604   0.618698   0.296319,
     ]    } 
normalIndex      [ 
	     0,      1,      2, -1 
	     2,      3,      0, -1 
	     4,      1,      0, -1 
	     0,      3,      4, -1 
	     5,      6,      1, -1 
	     7,      5,      1, -1 
	     1,      6,      2, -1 
	     1,      8,      9, -1 
	     1,      9,      7, -1 
	     4,      8,      1, -1 
	    10,      2,      6, -1 
	    10,     11,      2, -1 
	    12,      2,     11, -1 
	    13,     14,      3, -1 
	     3,     18,     19, -1 
	     8,      4,     21, -1 
	     4,     22,     21, -1 
	    22,      4,     20, -1 
	    23,      6,      5, -1 
	    10,      6,     23, -1 
	    28,      8,     21, -1 
	     9,      8,     28, -1 
	    10,     31,     32, -1 
	    12,     25,     24, -1 
	    12,     32,     25, -1 
	    14,     34,     35, -1 
	    15,     14,     35, -1 
	    35,     36,     15, -1 
	    39,     18,     17, -1 
	    17,     38,     39, -1 
	    39,     40,     18, -1 
	    27,     29,     20, -1 
	    29,     42,     20, -1 
	    42,     43,     21, -1 
	    30,     23,     45, -1 
	    45,     23,     46, -1 
	    47,     46,     23, -1 
	    25,     32,     50, -1 
	    25,     50,     51, -1 
	    25,     51,     48, -1 
	    52,     28,     44, -1 
	    53,     28,     52, -1 
	    28,     53,     54, -1 
	    56,     42,     29, -1 
	    57,     56,     29, -1 
	    55,     57,     29, -1 
	    59,     60,     30, -1 
	    60,     31,     30, -1 
	    62,     32,     31, -1 
	    32,     63,     50, -1 
	    66,     37,     35, -1 
	    67,     35,     37, -1 
	    67,     36,     35, -1 
	    36,     67,     37, -1 
	    39,     37,     66, -1 
	    37,     68,     38, -1 
	    37,     39,     68, -1 
	    39,     38,     68, -1 
	    56,     69,     42, -1 
	    43,     42,     71, -1 
	    44,     43,     72, -1 
	    44,     72,     74, -1 
	    58,     45,     46, -1 
	    58,     46,     76, -1 
	    78,     46,     79, -1 
	    79,     46,     80, -1 
	    46,     47,     80, -1 
	    47,     64,     62, -1 
	    47,     82,     64, -1 
	    47,     48,     85, -1 
	    47,     85,     86, -1 
	    47,     81,     87, -1 
	    89,     90,     47, -1 
	    90,     80,     47, -1 
	    47,     86,     89, -1 
	    51,     50,     48, -1 
	    50,     91,     48, -1 
	    91,     85,     48, -1 
	    63,     91,     50, -1 
	    53,     52,     75, -1 
	    92,     53,     75, -1 
	    95,     53,     93, -1 
	    96,     53,     95, -1 
	    96,     54,     53, -1 
	    71,     70,     54, -1 
	    70,     98,     54, -1 
	   101,     55,     54, -1 
	   102,    101,     54, -1 
	   104,     97,     54, -1 
	    54,    105,    106, -1 
	    54,     96,    105, -1 
	   106,    102,     54, -1 
	    55,     56,     57, -1 
	    55,    107,     56, -1 
	    55,    101,    107, -1 
	    56,    107,     69, -1 
	   108,     58,    109, -1 
	   109,     58,    111, -1 
	   113,     61,     60, -1 
	    81,     61,    113, -1 
	    82,     63,     64, -1 
	    91,     63,     82, -1 
	    70,     69,     98, -1 
	    98,     69,    107, -1 
	    72,     73,    114, -1 
	   114,     73,     97, -1 
	   117,     75,    116, -1 
	   118,     75,    117, -1 
	    77,    121,    119, -1 
	    79,    122,     78, -1 
	    80,    124,    123, -1 
	    87,     81,    113, -1 
	    82,     84,     91, -1 
	   126,     84,     83, -1 
	   126,     83,     88, -1 
	    84,    127,     91, -1 
	   126,    127,     84, -1 
	    91,    127,     85, -1 
	    86,     85,    127, -1 
	   124,     87,    113, -1 
	    93,    131,     95, -1 
	   129,    130,     94, -1 
	   132,    133,     96, -1 
	   114,     97,    104, -1 
	   107,     99,     98, -1 
	   100,     99,    135, -1 
	   107,    136,     99, -1 
	    99,    136,    135, -1 
	   103,    100,    135, -1 
	   101,    136,    107, -1 
	   136,    101,    102, -1 
	   114,    104,    133, -1 
	   138,    110,    108, -1 
	   123,    109,    122, -1 
	   122,    109,    121, -1 
	   109,    111,    139, -1 
	   139,    111,    112, -1 
	   112,    118,    139, -1 
	   116,    115,    141, -1 
	   131,    117,    132, -1 
	   130,    117,    131, -1 
	   139,    118,    117, -1 
	   123,    124,    138, -1 
	   127,    126,    128, -1 
	   141,    133,    132, -1 
	   137,    135,    136, -1 
	     2,     12,     13, -1 
	     2,     13,      3, -1 
	     3,     14,     15, -1 
	     3,     15,     16, -1 
	    16,     17,     18, -1 
	    16,     18,      3, -1 
	     3,     19,     20, -1 
	     3,     20,      4, -1 
	    23,      5,     24, -1 
	    23,     24,     25, -1 
	    24,      5,      7, -1 
	    24,      7,     26, -1 
	    26,      7,      9, -1 
	    26,      9,     27, -1 
	    29,     27,      9, -1 
	    29,      9,     28, -1 
	    30,     31,     10, -1 
	    30,     10,     23, -1 
	    10,     32,     12, -1 
	    10,     12,     11, -1 
	    13,     12,     24, -1 
	    13,     24,     33, -1 
	    14,     13,     33, -1 
	    14,     33,     34, -1 
	    16,     15,     36, -1 
	    16,     36,     37, -1 
	    37,     38,     17, -1 
	    37,     17,     16, -1 
	    40,     41,     19, -1 
	    40,     19,     18, -1 
	    41,     27,     20, -1 
	    41,     20,     19, -1 
	    22,     20,     42, -1 
	    22,     42,     21, -1 
	    28,     21,     43, -1 
	    28,     43,     44, -1 
	    47,     23,     25, -1 
	    47,     25,     48, -1 
	    49,     33,     24, -1 
	    49,     24,     26, -1 
	    26,     27,     41, -1 
	    26,     41,     49, -1 
	    55,     29,     28, -1 
	    55,     28,     54, -1 
	    58,     59,     30, -1 
	    58,     30,     45, -1 
	    61,     62,     31, -1 
	    61,     31,     60, -1 
	    32,     62,     64, -1 
	    32,     64,     63, -1 
	    65,     34,     33, -1 
	    65,     33,     49, -1 
	    66,     35,     34, -1 
	    66,     34,     65, -1 
	    65,     40,     39, -1 
	    65,     39,     66, -1 
	    49,     41,     40, -1 
	    49,     40,     65, -1 
	    69,     70,     71, -1 
	    69,     71,     42, -1 
	    72,     43,     71, -1 
	    72,     71,     73, -1 
	    52,     44,     74, -1 
	    52,     74,     75, -1 
	    77,     76,     46, -1 
	    77,     46,     78, -1 
	    81,     47,     62, -1 
	    81,     62,     61, -1 
	    47,     83,     84, -1 
	    47,     84,     82, -1 
	    83,     47,     87, -1 
	    83,     87,     88, -1 
	    93,     53,     92, -1 
	    93,     92,     94, -1 
	    73,     71,     54, -1 
	    73,     54,     97, -1 
	    98,     99,    100, -1 
	    98,    100,     54, -1 
	   103,    104,     54, -1 
	   103,     54,    100, -1 
	   110,     59,     58, -1 
	   110,     58,    108, -1 
	   111,     58,     76, -1 
	   111,     76,    112, -1 
	   110,    113,     60, -1 
	   110,     60,     59, -1 
	    74,     72,    114, -1 
	    74,    114,    115, -1 
	   116,     75,     74, -1 
	   116,     74,    115, -1 
	   112,     92,     75, -1 
	   112,     75,    118, -1 
	    78,    122,    121, -1 
	    78,    121,     77, -1 
	    80,    123,    122, -1 
	    80,    122,     79, -1 
	    80,     90,    125, -1 
	    80,    125,    124, -1 
	    89,     86,    127, -1 
	    89,    127,    128, -1 
	   125,     88,     87, -1 
	   125,     87,    124, -1 
	   128,    126,     88, -1 
	   128,     88,    125, -1 
	    90,     89,    128, -1 
	    90,    128,    125, -1 
	    94,    130,    131, -1 
	    94,    131,     93, -1 
	    95,    131,    132, -1 
	    95,    132,     96, -1 
	   133,    134,    105, -1 
	   133,    105,     96, -1 
	   137,    136,    102, -1 
	   137,    102,    106, -1 
	   133,    104,    103, -1 
	   133,    103,    134, -1 
	   134,    103,    135, -1 
	   134,    135,    137, -1 
	   134,    137,    106, -1 
	   134,    106,    105, -1 
	   123,    138,    108, -1 
	   123,    108,    109, -1 
	   109,    139,    140, -1 
	   109,    140,    121, -1 
	   124,    113,    110, -1 
	   124,    110,    138, -1 
	   141,    115,    114, -1 
	   141,    114,    133, -1 
	   117,    116,    141, -1 
	   117,    141,    132, -1 
	   130,    140,    139, -1 
	   130,    139,    117, -1 
	   121,    140,    120, -1 
	   121,    120,    119, -1 
	   129,    120,    140, -1 
	   129,    140,    130, -1 
	    76,     77,    119, -1 
	    76,    119,    120, -1 
	    76,    120,    112, -1 
	   112,    120,    129, -1 
	   112,    129,     94, -1 
	   112,     94,     92, -1 
    ] 
normalPerVertex  TRUE 
   } 
  } 
 ] 
} 
