# 
# Wavefront OBJ file
# Converted by the DEEP Exploration 2.00.1211
# Right Hemisphere, LTD
# http://www.righthemisphere.com/
# 
mtllib clavicle.mtl
# object Object #0
g Object__0
v 0.003317 0.002357 0.164899
v 0.005666 -4e-006 0.173552
v 0.004489 -0.002121 0.164213
v -0.000336 0.000877 0.15873
v 0.000545 0.005329 0.167347
v -0.004779 0.005888 0.175861
v -0.000411 0.001101 0.176697
v 0.000521 -0.003262 0.169163
v -0.000908 -0.001517 0.157204
v -0.004558 0.006697 0.161903
v -0.002895 0.00046 0.154491
v -0.003748 -0.001148 0.151061
v -0.008037 0.00798 0.172716
v -0.005546 0.002246 0.178703
v -0.00392 -0.002425 0.17434
v -0.005723 -0.002714 0.158689
v -0.008126 -0.003442 0.172137
v -0.008772 -0.001804 0.152803
v -0.008036 0.007119 0.155384
v -0.012786 0.01007 0.166035
v -0.004059 0.000545 0.148186
v -0.006416 -0.000404 0.144603
v -0.011038 -0.001242 0.144836
v -0.01044 0.005287 0.177241
v -0.010197 -0.000772 0.177146
v -0.013328 -0.001589 0.160772
v -0.015456 -0.000638 0.154356
v -0.018346 -0.003369 0.170314
v -0.01976 -0.001423 0.171375
v -0.018412 -0.000659 0.146041
v -0.016023 0.0115 0.158273
v -0.011073 0.008026 0.14889
v -0.021938 0.009671 0.167115
v -0.017797 0.007624 0.171874
v -0.004976 0.000738 0.142826
v -0.006334 -0.000433 0.140266
v -0.011736 -0.001587 0.139207
v -0.021416 -0.001316 0.136803
v -0.024107 0.000485 0.163184
v -0.025431 0.00571 0.154836
v -0.023104 0.005585 0.14822
v -0.025214 0.00317 0.165481
v -0.023399 0.001322 0.13717
v -0.015853 0.011438 0.149293
v -0.023711 0.011337 0.158839
v -0.011631 0.007397 0.140804
v -0.004703 -0.000483 0.136382
v -0.006683 -0.000942 0.135905
v -0.012434 -0.001941 0.132956
v -0.017773 -0.002462 0.131273
v -0.023869 -0.002652 0.129806
v -0.025035 0.009272 0.157238
v -0.024015 0.008621 0.148668
v -0.02354 0.00711 0.1376
v -0.023942 0.00531 0.129869
v -0.023009 0.011484 0.150217
v -0.015744 0.012287 0.14122
v -0.009667 0.007431 0.133833
v -0.00334 -0.001296 0.129397
v -0.003584 -0.002948 0.127877
v -0.009221 -0.002669 0.124886
v -0.005977 -0.003876 0.126757
v -0.01654 -0.002769 0.119916
v -0.012247 -0.002008 0.12305
v -0.017898 0.003778 0.119593
v -0.020971 0.011493 0.138615
v -0.019762 0.010314 0.131311
v -0.014722 0.009006 0.12033
v -0.013484 0.010867 0.13216
v -0.004784 0.002429 0.126982
v -0.005649 0.005457 0.125567
v -0.00226 5e-006 0.12635
v -0.000286 -0.002388 0.121324
v -0.001042 -0.005154 0.120722
v -0.004145 -0.006655 0.11957
v -0.010475 -0.002989 0.114557
v -0.006611 -0.004253 0.117106
v -0.013116 -0.002488 0.112455
v -0.013692 0.00283 0.112861
v -0.010266 0.008155 0.114545
v -0.008804 0.008822 0.122403
v -0.006325 0.007537 0.116141
v -0.000645 -0.000694 0.120617
v -0.001064 0.000375 0.120242
v -0.002516 0.004094 0.118449
v 0.003133 -0.003666 0.113288
v 0.003147 -0.005215 0.112093
v -0.00129 -0.010313 0.110009
v -0.003132 -0.006416 0.109104
v -0.008751 -0.003073 0.105725
v -0.006045 -0.004478 0.107239
v -0.009326 0.002245 0.10612
v -0.006287 0.006204 0.108129
v -0.003095 0.005905 0.10965
v 0.000347 0.002633 0.111603
v 0.007053 -0.005371 0.104382
v 0.00685 -0.007919 0.103516
v 0.002933 -0.011268 0.102351
v -0.000556 -0.007098 0.100048
v -0.00483 -0.000155 0.097603
v -0.004631 -0.003765 0.098038
v 0.000333 0.003096 0.101053
v -0.001791 0.003804 0.0996
v 0.004406 -0.000245 0.103369
v 0.010502 -0.006644 0.095117
v 0.010353 -0.010099 0.093661
v 0.005574 -0.012854 0.092707
v 0.00201 -0.009312 0.091662
v -0.001697 -0.006141 0.089689
v -0.001496 -0.00116 0.088929
v 0.008218 -0.001677 0.094445
v 0.004608 0.001226 0.093111
v 0.001283 0.002695 0.090602
v 0.01031 -0.002811 0.088779
v 0.010939 -0.004181 0.083603
v 0.012576 -0.009081 0.084204
v 0.012924 -0.011435 0.082135
v 0.007501 -0.014125 0.081745
v 0.004463 -0.011907 0.0808
v 0.000335 -0.007675 0.078757
v 0.000886 -0.002849 0.07896
v 0.005061 0.0015 0.077944
v 0.008427 1.6e-005 0.078285
v 0.014887 -0.008976 0.072928
v 0.013229 -0.004059 0.073253
v 0.010093 -4.6e-005 0.072548
v 0.014232 -0.011994 0.072355
v 0.009114 -0.015478 0.072627
v 0.004259 -0.013349 0.071526
v 0.00154 -0.009515 0.068373
v 0.001929 -0.003509 0.069148
v 0.006739 0.001433 0.071587
v 0.015349 -0.008946 0.062433
v 0.013483 -0.01364 0.063344
v 0.01408 -0.003319 0.059669
v 0.009631 0.000842 0.060383
v 0.009685 -0.016602 0.06496
v 0.004359 -0.013385 0.066262
v 0.001622 -0.003144 0.059503
v 0.000757 -0.010252 0.058721
v 0.006632 0.002156 0.060397
v 0.014896 -0.006743 0.055806
v 0.013624 -0.01369 0.055912
v 0.008868 -0.017334 0.05655
v 0.009477 0.001357 0.057253
v 0.01185 -0.001873 0.047332
v 0.007843 -0.000567 0.05252
v 0.014255 -0.005572 0.047035
v 0.00302 -0.01433 0.056873
v 0.00533 0.002508 0.055305
v -0.000328 -0.003372 0.05221
v -0.001215 -0.009599 0.049227
v 0.01315 -0.013679 0.047191
v 0.007871 -0.017543 0.047168
v 0.001243 -0.014854 0.046187
v 0.013551 -0.006571 0.038948
v 0.010668 -0.000901 0.039141
v 0.003827 0.003392 0.049567
v 0.006797 0.004091 0.040198
v 0.012285 -0.013521 0.038736
v -0.002745 -0.002531 0.0467
v -0.004052 -0.007688 0.043328
v 0.00741 -0.017544 0.037203
v -0.002032 -0.010098 0.035829
v -0.000561 -0.014488 0.033311
v 0.012412 -0.006503 0.030777
v 0.009775 -0.011129 0.030072
v 0.010392 0.000108 0.031334
v 0.001788 0.006509 0.04154
v 0.006461 0.004475 0.03271
v 0.006805 -0.015456 0.030976
v -0.006563 -0.000404 0.038853
v -0.008674 -0.005869 0.035434
v -0.00716 -0.009619 0.034133
v -0.004542 -0.012958 0.031365
v -0.001089 -0.015302 0.028693
v 0.010344 -0.002099 0.028918
v 0.006861 -0.011665 0.020694
v 0.007933 -0.007978 0.019072
v 0.006934 -0.001959 0.020223
v 0.007844 0.004425 0.027992
v -0.002544 0.009075 0.035808
v 0.004271 0.008648 0.029287
v -0.002885 0.01173 0.030424
v 0.001839 -0.013732 0.023968
v -0.01036 0.002362 0.032857
v -0.013994 -0.003081 0.028826
v -0.013964 -0.009969 0.025974
v -0.007428 -0.013601 0.026902
v 0.00723 0.003327 0.021693
v 0.000599 -0.004973 0.021993
v -0.000191 0.000437 0.022421
v 0.003282 0.007615 0.02404
v -0.011093 0.005759 0.027983
v -0.002035 0.005766 0.024324
v -0.007149 -0.012604 0.023127
v -0.01641 -0.001387 0.023454
v -0.016124 -0.009184 0.021961
v -0.007954 -0.006967 0.021045
v -0.008666 0.001278 0.021935
v 0.004489 -0.002121 -0.164213
v 0.005666 -4e-006 -0.173552
v 0.003317 0.002357 -0.164899
v -0.000336 0.000877 -0.15873
v 0.000521 -0.003262 -0.169163
v -0.000908 -0.001517 -0.157204
v 0.000545 0.005329 -0.167347
v -0.000411 0.001101 -0.176697
v -0.004779 0.005888 -0.175861
v -0.004558 0.006697 -0.161903
v -0.002895 0.00046 -0.154491
v -0.003748 -0.001148 -0.151061
v -0.00392 -0.002425 -0.17434
v -0.005723 -0.002714 -0.158689
v -0.008126 -0.003442 -0.172137
v -0.008772 -0.001804 -0.152803
v -0.008037 0.00798 -0.172716
v -0.005546 0.002246 -0.178703
v -0.008036 0.007119 -0.155384
v -0.012786 0.01007 -0.166035
v -0.004059 0.000545 -0.148186
v -0.006416 -0.000404 -0.144603
v -0.011038 -0.001242 -0.144836
v -0.010197 -0.000772 -0.177146
v -0.013328 -0.001589 -0.160772
v -0.015456 -0.000638 -0.154356
v -0.018346 -0.003369 -0.170314
v -0.01976 -0.001423 -0.171375
v -0.018412 -0.000659 -0.146041
v -0.01044 0.005287 -0.177241
v -0.016023 0.0115 -0.158273
v -0.011073 0.008026 -0.14889
v -0.021938 0.009671 -0.167115
v -0.017797 0.007624 -0.171874
v -0.004976 0.000738 -0.142826
v -0.006334 -0.000433 -0.140266
v -0.011736 -0.001587 -0.139207
v -0.021416 -0.001316 -0.136803
v -0.024107 0.000485 -0.163184
v -0.025431 0.00571 -0.154836
v -0.023104 0.005585 -0.14822
v -0.025214 0.00317 -0.165481
v -0.023399 0.001322 -0.13717
v -0.015853 0.011438 -0.149293
v -0.023711 0.011337 -0.158839
v -0.011631 0.007397 -0.140804
v -0.004703 -0.000483 -0.136382
v -0.006683 -0.000942 -0.135905
v -0.012434 -0.001941 -0.132956
v -0.017773 -0.002462 -0.131273
v -0.023869 -0.002652 -0.129806
v -0.025035 0.009272 -0.157238
v -0.024015 0.008621 -0.148668
v -0.02354 0.00711 -0.1376
v -0.023942 0.00531 -0.129869
v -0.023009 0.011484 -0.150217
v -0.015744 0.012287 -0.14122
v -0.009667 0.007431 -0.133833
v -0.00334 -0.001296 -0.129397
v -0.003584 -0.002948 -0.127877
v -0.009221 -0.002669 -0.124886
v -0.005977 -0.003876 -0.126757
v -0.012247 -0.002008 -0.12305
v -0.01654 -0.002769 -0.119916
v -0.017898 0.003778 -0.119593
v -0.020971 0.011493 -0.138615
v -0.019762 0.010314 -0.131311
v -0.014722 0.009006 -0.12033
v -0.013484 0.010867 -0.13216
v -0.004784 0.002429 -0.126982
v -0.005649 0.005457 -0.125567
v -0.00226 5e-006 -0.12635
v -0.000286 -0.002388 -0.121324
v -0.001042 -0.005154 -0.120722
v -0.004145 -0.006655 -0.11957
v -0.006611 -0.004253 -0.117106
v -0.010475 -0.002989 -0.114557
v -0.013116 -0.002488 -0.112455
v -0.013692 0.00283 -0.112861
v -0.010266 0.008155 -0.114545
v -0.008804 0.008822 -0.122403
v -0.006325 0.007537 -0.116141
v -0.001064 0.000375 -0.120242
v -0.000645 -0.000694 -0.120617
v -0.002516 0.004094 -0.118449
v 0.003133 -0.003666 -0.113288
v 0.003147 -0.005215 -0.112093
v -0.00129 -0.010313 -0.110009
v -0.003132 -0.006416 -0.109104
v -0.006045 -0.004478 -0.107239
v -0.008751 -0.003073 -0.105725
v -0.009326 0.002245 -0.10612
v -0.006287 0.006204 -0.108129
v -0.003095 0.005905 -0.10965
v 0.000347 0.002633 -0.111603
v 0.007053 -0.005371 -0.104382
v 0.00685 -0.007919 -0.103516
v 0.002933 -0.011268 -0.102351
v -0.000556 -0.007098 -0.100048
v -0.004631 -0.003765 -0.098038
v -0.00483 -0.000155 -0.097603
v -0.001791 0.003804 -0.0996
v 0.000333 0.003096 -0.101053
v 0.004406 -0.000245 -0.103369
v 0.010502 -0.006644 -0.095117
v 0.010353 -0.010099 -0.093661
v 0.005574 -0.012854 -0.092707
v 0.00201 -0.009312 -0.091662
v -0.001697 -0.006141 -0.089689
v -0.001496 -0.00116 -0.088929
v 0.004608 0.001226 -0.093111
v 0.001283 0.002695 -0.090602
v 0.008218 -0.001677 -0.094445
v 0.01031 -0.002811 -0.088779
v 0.010939 -0.004181 -0.083603
v 0.012576 -0.009081 -0.084204
v 0.012924 -0.011435 -0.082135
v 0.007501 -0.014125 -0.081745
v 0.004463 -0.011907 -0.0808
v 0.000335 -0.007675 -0.078757
v 0.000886 -0.002849 -0.07896
v 0.005061 0.0015 -0.077944
v 0.008427 1.6e-005 -0.078285
v 0.013229 -0.004059 -0.073253
v 0.014887 -0.008976 -0.072928
v 0.010093 -4.6e-005 -0.072548
v 0.014232 -0.011994 -0.072355
v 0.009114 -0.015478 -0.072627
v 0.004259 -0.013349 -0.071526
v 0.00154 -0.009515 -0.068373
v 0.001929 -0.003509 -0.069148
v 0.006739 0.001433 -0.071587
v 0.015349 -0.008946 -0.062433
v 0.01408 -0.003319 -0.059669
v 0.013483 -0.01364 -0.063344
v 0.009631 0.000842 -0.060383
v 0.009685 -0.016602 -0.06496
v 0.004359 -0.013385 -0.066262
v 0.001622 -0.003144 -0.059503
v 0.000757 -0.010252 -0.058721
v 0.006632 0.002156 -0.060397
v 0.014896 -0.006743 -0.055806
v 0.013624 -0.01369 -0.055912
v 0.009477 0.001357 -0.057253
v 0.007843 -0.000567 -0.05252
v 0.01185 -0.001873 -0.047332
v 0.014255 -0.005572 -0.047035
v 0.008868 -0.017334 -0.05655
v 0.00302 -0.01433 -0.056873
v 0.00533 0.002508 -0.055305
v -0.000328 -0.003372 -0.05221
v -0.001215 -0.009599 -0.049227
v 0.01315 -0.013679 -0.047191
v 0.007871 -0.017543 -0.047168
v 0.010668 -0.000901 -0.039141
v 0.003827 0.003392 -0.049567
v 0.006797 0.004091 -0.040198
v 0.013551 -0.006571 -0.038948
v 0.012285 -0.013521 -0.038736
v 0.001243 -0.014854 -0.046187
v -0.002745 -0.002531 -0.0467
v -0.004052 -0.007688 -0.043328
v 0.00741 -0.017544 -0.037203
v 0.012412 -0.006503 -0.030777
v 0.010392 0.000108 -0.031334
v 0.001788 0.006509 -0.04154
v 0.006461 0.004475 -0.03271
v 0.009775 -0.011129 -0.030072
v 0.006805 -0.015456 -0.030976
v -0.002032 -0.010098 -0.035829
v -0.000561 -0.014488 -0.033311
v -0.006563 -0.000404 -0.038853
v -0.008674 -0.005869 -0.035434
v -0.00716 -0.009619 -0.034133
v 0.010344 -0.002099 -0.028918
v 0.007844 0.004425 -0.027992
v -0.002544 0.009075 -0.035808
v 0.004271 0.008648 -0.029287
v -0.002885 0.01173 -0.030424
v 0.007933 -0.007978 -0.019072
v 0.006861 -0.011665 -0.020694
v 0.006934 -0.001959 -0.020223
v -0.001089 -0.015302 -0.028693
v 0.001839 -0.013732 -0.023968
v -0.004542 -0.012958 -0.031365
v -0.01036 0.002362 -0.032857
v -0.013994 -0.003081 -0.028826
v -0.013964 -0.009969 -0.025974
v -0.007428 -0.013601 -0.026902
v 0.00723 0.003327 -0.021693
v 0.003282 0.007615 -0.02404
v -0.011093 0.005759 -0.027983
v -0.002035 0.005766 -0.024324
v 0.000599 -0.004973 -0.021993
v -0.000191 0.000437 -0.022421
v -0.007149 -0.012604 -0.023127
v -0.01641 -0.001387 -0.023454
v -0.016124 -0.009184 -0.021961
v -0.008666 0.001278 -0.021935
v -0.007954 -0.006967 -0.021045
# 400 verticies
vn 0.777717 0.543811 -0.315317
vn 0.900283 0.161953 0.404056
vn 0.870007 -0.319268 -0.375707
vn 0.719057 0.490245 -0.492562
vn 0.525325 0.847489 -0.076139
vn 0.327593 0.745027 0.581049
vn 0.413531 -0.321076 0.851999
vn 0.205369 -0.966552 0.153628
vn 0.485477 -0.796243 -0.360983
vn 0.510672 0.829122 -0.227534
vn 0.844953 0.387948 -0.368172
vn 0.737057 -0.531818 -0.417033
vn 0.156218 0.923052 0.351528
vn 0.090093 0.123201 0.988284
vn 0.170801 -0.810334 0.560524
vn -0.027678 -0.992968 -0.115099
vn -0.061201 -0.966384 0.249712
vn -0.012395 -0.99667 -0.080591
vn 0.591495 0.789698 -0.16282
vn 0.146796 0.970873 0.189358
vn 0.978308 -0.099926 -0.181459
vn 0.45767 -0.882025 -0.112118
vn 0.041821 -0.998894 -0.021471
vn -0.196226 0.606486 0.7705
vn -0.287426 -0.47696 0.830599
vn -0.234166 -0.954536 -0.184466
vn -0.402001 -0.915593 0.009201
vn -0.445064 -0.87313 0.198902
vn -0.590691 -0.348428 0.727792
vn -0.452705 -0.876205 0.165295
vn 0.254154 0.966074 0.045902
vn 0.631059 0.768674 -0.104425
vn -0.47045 0.724332 0.504003
vn -0.442722 0.482393 0.75584
vn 0.995377 -0.075284 -0.059643
vn 0.398498 -0.917129 0.008614
vn 0.101157 -0.993979 0.042115
vn -0.24827 -0.948221 0.19809
vn -0.776583 -0.617894 -0.12299
vn -0.843199 -0.507158 -0.178341
vn -0.878468 -0.477641 0.012354
vn -0.947853 -0.105026 0.300906
vn -0.921777 -0.336822 0.192036
vn 0.343926 0.938843 0.017015
vn -0.515084 0.846783 0.132841
vn 0.732416 0.679898 0.03614
vn 0.961517 -0.117541 0.248331
vn 0.136081 -0.970726 0.19792
vn 0.056276 -0.995552 0.075566
vn 0.030129 -0.992311 0.120043
vn -0.766967 -0.634033 -0.098813
vn -0.973121 0.229599 -0.017875
vn -0.972688 0.176221 -0.151077
vn -0.967212 0.246067 -0.062869
vn -0.911978 0.324963 -0.250389
vn -0.532311 0.845108 -0.049379
vn 0.371959 0.927075 0.046678
vn 0.778317 0.599856 0.18546
vn 0.933237 0.078533 0.350574
vn 0.450929 -0.814499 0.365041
vn -0.26307 -0.959973 0.096158
vn -0.259785 -0.936368 0.236066
vn -0.413904 -0.86841 -0.273034
vn -0.077013 -0.996442 0.034231
vn -0.802739 0.206594 -0.559401
vn -0.533491 0.830535 -0.159996
vn -0.418176 0.881057 -0.22106
vn -0.328625 0.88433 -0.331611
vn 0.318866 0.946747 -0.044671
vn 0.804111 0.507325 0.309883
vn 0.764141 0.601121 0.233971
vn 0.852607 0.422461 0.307552
vn 0.928993 -0.051918 0.366437
vn 0.652696 -0.636484 0.410946
vn -0.316742 -0.922775 0.219454
vn -0.291933 -0.956291 0.016837
vn -0.506372 -0.862081 0.02008
vn -0.638289 -0.699712 -0.32092
vn -0.802742 0.271718 -0.530824
vn -0.267547 0.884627 -0.381908
vn 0.362859 0.931688 -0.017038
vn 0.413291 0.910599 -5.4e-005
vn 0.857644 0.445833 0.25628
vn 0.84851 0.439474 0.294776
vn 0.760294 0.620306 0.192802
vn 0.913026 0.224022 0.340878
vn 0.76172 -0.487702 0.426531
vn -0.225591 -0.963971 0.140956
vn -0.716679 -0.690246 -0.0996521
vn -0.722086 -0.603813 -0.337641
vn -0.466805 -0.881153 -0.075248
vn -0.806095 0.25746 -0.532847
vn -0.256115 0.881507 -0.396675
vn 0.439577 0.896083 -0.061709
vn 0.762339 0.619881 0.185975
vn 0.927804 0.073434 0.365769
vn 0.698716 -0.592031 0.401616
vn -0.098938 -0.980334 0.170753
vn -0.676241 -0.72799 -0.112823
vn -0.821519 0.322925 -0.46992
vn -0.820314 -0.505615 -0.26728
vn 0.462858 0.886303 -0.015156
vn -0.165347 0.955394 -0.24471
vn 0.754984 0.63409 0.167123
vn 0.954491 0.193681 0.22679
vn 0.755562 -0.577092 0.309985
vn -0.110523 -0.982181 0.152001
vn -0.69503 -0.71868 -0.020797
vn -0.901117 -0.408808 -0.144444
vn -0.866264 0.380348 -0.323916
vn 0.709657 0.685116 0.164325
vn 0.467549 0.882762 0.046149
vn -0.058376 0.990283 -0.126218
vn 0.872475 0.479055 0.096404
vn 0.893889 0.427115 0.136143
vn 0.982137 0.08703 0.166834
vn 0.829936 -0.518458 0.205934
vn -0.05787 -0.987215 0.14852
vn -0.705754 -0.706924 0.046573
vn -0.937046 -0.340776 -0.076263
vn -0.895301 0.39699 -0.202077
vn -0.208194 0.971934 -0.109542
vn 0.589988 0.803853 0.075728
vn 0.993511 0.02449 0.111066
vn 0.893858 0.432194 0.119273
vn 0.600442 0.792455 0.107168
vn 0.851157 -0.511446 0.118128
vn 0.161588 -0.975836 0.147083
vn -0.621141 -0.780955 0.065515
vn -0.942586 -0.332352 0.032761
vn -0.90811 0.416759 -0.040601
vn -0.197023 0.980292 -0.014507
vn 0.999748 -0.020027 0.010123
vn 0.820045 -0.571858 0.022456
vn 0.824366 0.565248 -0.030257
vn 0.520414 0.850964 0.070914
vn -0.009045 -0.994252 0.106685
vn -0.699225 -0.70964 0.086577
vn -0.908871 0.391161 0.144731
vn -0.951778 -0.256172 0.168805
vn -0.225436 0.968724 0.103694
vn 0.998149 -0.001105 -0.060812
vn 0.831856 -0.553584 -0.039506
vn 0.107809 -0.99267 0.054624
vn 0.541607 0.826856 -0.151563
vn 0.692911 0.719784 -0.042259
vn 0.6127 0.786473 -0.077841
vn 0.982692 0.161223 -0.091229
vn -0.673071 -0.724151 0.150268
vn -0.186257 0.981908 0.034121
vn -0.894086 0.329409 0.30348
vn -0.922032 -0.27806 0.269333
vn 0.859202 -0.506866 -0.069708
vn 0.233778 -0.972269 -0.006382
vn -0.657798 -0.747281 0.094199
vn 0.981368 0.11671 -0.152627
vn 0.816671 0.576975 0.01216
vn -0.08825 0.937213 0.337408
vn 0.65305 0.748197 0.117157
vn 0.871378 -0.440199 -0.21662
vn -0.847527 0.286322 0.446897
vn -0.840629 -0.414574 0.348528
vn 0.181894 -0.975188 -0.126188
vn -0.59987 -0.71363 0.361785
vn -0.473175 -0.865372 0.165036
vn 0.941557 0.09868 -0.322076
vn 0.886453 -0.300159 -0.352287
vn 0.87474 0.481444 -0.055148
vn -0.121136 0.913423 0.388568
vn 0.60941 0.762716 0.216526
vn 0.338156 -0.905134 -0.257649
vn -0.78479 0.259778 0.56269
vn -0.816812 -0.189792 0.544791
vn -0.509132 -0.720021 0.471545
vn -0.425687 -0.77794 0.462168
vn -0.194558 -0.980807 0.012835
vn 0.900574 0.132213 -0.41411
vn 0.163666 -0.646386 -0.745251
vn 0.735284 -0.146512 -0.661733
vn 0.163439 0.026432 -0.986199
vn 0.823186 0.562073 -0.080238
vn -0.314385 0.792136 0.523146
vn 0.610601 0.787264 0.085919
vn 0.022672 0.997458 -0.067558
vn -0.107667 -0.719459 -0.686139
vn -0.792868 0.287554 0.537283
vn -0.857091 -0.028476 0.514377
vn -0.74164 -0.57429 0.346642
vn -0.36151 -0.930751 0.054888
vn 0.437269 0.444091 -0.782035
vn -0.008143 -0.091019 -0.995816
vn -0.107075 0.209351 -0.971961
vn 0.300955 0.781848 -0.546022
vn -0.62582 0.765767 -0.148157
vn -0.187448 0.524132 -0.830752
vn -0.132807 -0.727985 -0.672607
vn -0.96062 0.277416 0.015804
vn -0.522504 -0.362037 -0.771958
vn 0.029334 -0.118144 -0.992563
vn -0.116049 0.339473 -0.93343
vn 0.870007 -0.319268 0.375707
vn 0.900283 0.161953 -0.404056
vn 0.777717 0.543811 0.315317
vn 0.719057 0.490245 0.492562
vn 0.205369 -0.966552 -0.153628
vn 0.485477 -0.796243 0.360983
vn 0.525325 0.847489 0.076139
vn 0.413531 -0.321076 -0.851999
vn 0.327593 0.745027 -0.581049
vn 0.510672 0.829122 0.227534
vn 0.844953 0.387948 0.368172
vn 0.737057 -0.531818 0.417033
vn 0.170801 -0.810334 -0.560524
vn -0.027678 -0.992968 0.115099
vn -0.061201 -0.966384 -0.249712
vn -0.012395 -0.99667 0.080591
vn 0.156218 0.923052 -0.351528
vn 0.090093 0.123201 -0.988284
vn 0.591495 0.789698 0.16282
vn 0.146796 0.970873 -0.189358
vn 0.978308 -0.099926 0.181459
vn 0.45767 -0.882025 0.112118
vn 0.041821 -0.998894 0.021471
vn -0.287426 -0.47696 -0.830599
vn -0.234166 -0.954536 0.184466
vn -0.402001 -0.915593 -0.009201
vn -0.445064 -0.87313 -0.198902
vn -0.590691 -0.348428 -0.727792
vn -0.452705 -0.876205 -0.165295
vn -0.196226 0.606486 -0.7705
vn 0.254154 0.966074 -0.045902
vn 0.631059 0.768674 0.104425
vn -0.47045 0.724332 -0.504003
vn -0.442722 0.482393 -0.75584
vn 0.995377 -0.075284 0.059643
vn 0.398498 -0.917129 -0.008614
vn 0.101157 -0.993979 -0.042115
vn -0.24827 -0.948221 -0.19809
vn -0.776583 -0.617894 0.12299
vn -0.843199 -0.507158 0.178341
vn -0.878468 -0.477641 -0.012354
vn -0.947853 -0.105026 -0.300906
vn -0.921777 -0.336822 -0.192036
vn 0.343926 0.938843 -0.017015
vn -0.515084 0.846783 -0.132841
vn 0.732416 0.679898 -0.03614
vn 0.961517 -0.117541 -0.248331
vn 0.136081 -0.970726 -0.19792
vn 0.056276 -0.995552 -0.075566
vn 0.030129 -0.992311 -0.120043
vn -0.766967 -0.634033 0.098813
vn -0.973121 0.229599 0.017875
vn -0.972688 0.176221 0.151077
vn -0.967212 0.246067 0.062869
vn -0.911978 0.324963 0.250389
vn -0.532311 0.845108 0.049379
vn 0.371959 0.927075 -0.046678
vn 0.778317 0.599856 -0.18546
vn 0.933237 0.078533 -0.350574
vn 0.450929 -0.814499 -0.365041
vn -0.26307 -0.959973 -0.096158
vn -0.259785 -0.936368 -0.236066
vn -0.077013 -0.996442 -0.034231
vn -0.413904 -0.86841 0.273034
vn -0.802739 0.206594 0.559401
vn -0.533491 0.830535 0.159996
vn -0.418176 0.881057 0.22106
vn -0.328625 0.88433 0.331611
vn 0.318866 0.946747 0.044671
vn 0.804111 0.507325 -0.309883
vn 0.764141 0.601121 -0.233971
vn 0.852607 0.422461 -0.307552
vn 0.928993 -0.051918 -0.366437
vn 0.652696 -0.636484 -0.410946
vn -0.316742 -0.922775 -0.219454
vn -0.506372 -0.862081 -0.02008
vn -0.291933 -0.956291 -0.016837
vn -0.638289 -0.699712 0.32092
vn -0.802742 0.271718 0.530824
vn -0.267547 0.884627 0.381908
vn 0.362859 0.931688 0.017038
vn 0.413291 0.910599 5.4e-005
vn 0.84851 0.439474 -0.294776
vn 0.857644 0.445833 -0.25628
vn 0.760294 0.620306 -0.192802
vn 0.913026 0.224022 -0.340878
vn 0.76172 -0.487702 -0.426531
vn -0.225591 -0.963971 -0.140956
vn -0.716679 -0.690246 0.0996521
vn -0.466805 -0.881153 0.075248
vn -0.722086 -0.603813 0.337641
vn -0.806095 0.25746 0.532847
vn -0.256115 0.881507 0.396675
vn 0.439577 0.896083 0.061709
vn 0.762339 0.619881 -0.185975
vn 0.927804 0.073434 -0.365769
vn 0.698716 -0.592031 -0.401616
vn -0.098938 -0.980334 -0.170753
vn -0.676241 -0.72799 0.112823
vn -0.820314 -0.505615 0.26728
vn -0.821519 0.322925 0.46992
vn -0.165347 0.955394 0.24471
vn 0.462858 0.886303 0.015156
vn 0.754984 0.63409 -0.167123
vn 0.954491 0.193681 -0.22679
vn 0.755562 -0.577092 -0.309985
vn -0.110523 -0.982181 -0.152001
vn -0.69503 -0.71868 0.020797
vn -0.901117 -0.408808 0.144444
vn -0.866264 0.380348 0.323916
vn 0.467549 0.882762 -0.046149
vn -0.058376 0.990283 0.126218
vn 0.709657 0.685116 -0.164325
vn 0.872475 0.479055 -0.096404
vn 0.893889 0.427115 -0.136143
vn 0.982137 0.08703 -0.166834
vn 0.829936 -0.518458 -0.205934
vn -0.05787 -0.987215 -0.14852
vn -0.705754 -0.706924 -0.046573
vn -0.937046 -0.340776 0.076263
vn -0.895301 0.39699 0.202077
vn -0.208194 0.971934 0.109542
vn 0.589988 0.803853 -0.075728
vn 0.893858 0.432194 -0.119273
vn 0.993511 0.02449 -0.111066
vn 0.600442 0.792455 -0.107168
vn 0.851157 -0.511446 -0.118128
vn 0.161588 -0.975836 -0.147083
vn -0.621141 -0.780955 -0.065515
vn -0.942586 -0.332352 -0.032761
vn -0.90811 0.416759 0.040601
vn -0.197023 0.980292 0.014507
vn 0.999748 -0.020027 -0.010123
vn 0.824366 0.565248 0.030257
vn 0.820045 -0.571858 -0.022456
vn 0.520414 0.850964 -0.070914
vn -0.009045 -0.994252 -0.106685
vn -0.699225 -0.70964 -0.086577
vn -0.908871 0.391161 -0.144731
vn -0.951778 -0.256172 -0.168805
vn -0.225436 0.968724 -0.103694
vn 0.998149 -0.001105 0.060812
vn 0.831856 -0.553584 0.039506
vn 0.541607 0.826856 0.151563
vn 0.6127 0.786473 0.077841
vn 0.692911 0.719784 0.042259
vn 0.982692 0.161223 0.091229
vn 0.107809 -0.99267 -0.054624
vn -0.673071 -0.724151 -0.150268
vn -0.186257 0.981908 -0.034121
vn -0.894086 0.329409 -0.30348
vn -0.922032 -0.27806 -0.269333
vn 0.859202 -0.506866 0.069708
vn 0.233778 -0.972269 0.006382
vn 0.816671 0.576975 -0.01216
vn -0.08825 0.937213 -0.337408
vn 0.65305 0.748197 -0.117157
vn 0.981368 0.11671 0.152627
vn 0.871378 -0.440199 0.21662
vn -0.657798 -0.747281 -0.094199
vn -0.847527 0.286322 -0.446897
vn -0.840629 -0.414574 -0.348528
vn 0.181894 -0.975188 0.126188
vn 0.941557 0.09868 0.322076
vn 0.87474 0.481444 0.055148
vn -0.121136 0.913423 -0.388568
vn 0.60941 0.762716 -0.216526
vn 0.886453 -0.300159 0.352287
vn 0.338156 -0.905134 0.257649
vn -0.59987 -0.71363 -0.361785
vn -0.473175 -0.865372 -0.165036
vn -0.78479 0.259778 -0.56269
vn -0.816812 -0.189792 -0.544791
vn -0.509132 -0.720021 -0.471545
vn 0.900574 0.132213 0.41411
vn 0.823186 0.562073 0.080238
vn -0.314385 0.792136 -0.523146
vn 0.610601 0.787264 -0.085919
vn 0.022672 0.997458 0.067558
vn 0.735284 -0.146512 0.661733
vn 0.163666 -0.646386 0.745251
vn 0.163439 0.026432 0.986199
vn -0.194558 -0.980807 -0.012835
vn -0.107667 -0.719459 0.686139
vn -0.425687 -0.77794 -0.462168
vn -0.792868 0.287554 -0.537283
vn -0.857091 -0.028476 -0.514377
vn -0.74164 -0.57429 -0.346642
vn -0.36151 -0.930751 -0.054888
vn 0.437269 0.444091 0.782035
vn 0.300955 0.781848 0.546022
vn -0.62582 0.765767 0.148157
vn -0.187448 0.524132 0.830752
vn -0.008143 -0.091019 0.995816
vn -0.107075 0.209351 0.971961
vn -0.132807 -0.727985 0.672607
vn -0.96062 0.277416 -0.015804
vn -0.522504 -0.362037 0.771958
vn -0.116049 0.339473 0.93343
vn 0.029334 -0.118144 0.992563
# 400 normals
usemtl Material__1
f  1//1 2//2 3//3
f  4//4 1//1 3//3
f  4//4 5//5 1//1
f  1//1 5//5 2//2
f  6//6 7//7 2//2
f  6//6 2//2 5//5
f  8//8 2//2 7//7
f  3//3 2//2 8//8
f  4//4 3//3 9//9
f  9//9 3//3 8//8
f  4//4 10//10 5//5
f  10//10 4//4 11//11
f  12//12 11//11 4//4
f  12//12 4//4 9//9
f  5//5 10//10 13//13
f  5//5 13//13 6//6
f  14//14 6//6 13//13
f  6//6 14//14 7//7
f  8//8 7//7 15//15
f  15//15 7//7 14//14
f  9//9 8//8 16//16
f  8//8 15//15 17//17
f  8//8 17//17 16//16
f  9//9 16//16 18//18
f  9//9 18//18 12//12
f  10//10 11//11 19//19
f  19//19 20//20 10//10
f  13//13 10//10 20//20
f  19//19 11//11 21//21
f  22//22 21//21 11//11
f  22//22 11//11 12//12
f  12//12 18//18 23//23
f  12//12 23//23 22//22
f  14//14 13//13 24//24
f  24//24 13//13 20//20
f  25//25 15//15 14//14
f  24//24 25//25 14//14
f  25//25 17//17 15//15
f  17//17 26//26 16//16
f  27//27 18//18 16//16
f  27//27 16//16 26//26
f  17//17 28//28 26//26
f  29//29 28//28 17//17
f  29//29 17//17 25//25
f  30//30 23//23 18//18
f  30//30 18//18 27//27
f  19//19 31//31 20//20
f  19//19 21//21 32//32
f  32//32 31//31 19//19
f  31//31 33//33 20//20
f  33//33 34//34 20//20
f  24//24 20//20 34//34
f  32//32 21//21 35//35
f  21//21 22//22 36//36
f  21//21 36//36 35//35
f  22//22 23//23 37//37
f  22//22 37//37 36//36
f  38//38 37//37 23//23
f  38//38 23//23 30//30
f  34//34 25//25 24//24
f  34//34 29//29 25//25
f  39//39 26//26 28//28
f  40//40 27//27 26//26
f  40//40 26//26 39//39
f  41//41 30//30 27//27
f  41//41 27//27 40//40
f  42//42 39//39 28//28
f  42//42 28//28 29//29
f  33//33 42//42 29//29
f  33//33 29//29 34//34
f  43//43 38//38 30//30
f  43//43 30//30 41//41
f  32//32 44//44 31//31
f  31//31 45//45 33//33
f  44//44 45//45 31//31
f  32//32 35//35 46//46
f  46//46 44//44 32//32
f  45//45 42//42 33//33
f  46//46 35//35 47//47
f  48//48 47//47 35//35
f  48//48 35//35 36//36
f  36//36 37//37 49//49
f  36//36 49//49 48//48
f  49//49 37//37 38//38
f  49//49 38//38 50//50
f  43//43 51//51 38//38
f  50//50 38//38 51//51
f  52//52 40//40 39//39
f  52//52 39//39 42//42
f  53//53 41//41 40//40
f  53//53 40//40 52//52
f  54//54 43//43 41//41
f  54//54 41//41 53//53
f  45//45 52//52 42//42
f  55//55 51//51 43//43
f  55//55 43//43 54//54
f  44//44 56//56 45//45
f  46//46 57//57 44//44
f  57//57 56//56 44//44
f  56//56 52//52 45//45
f  46//46 47//47 58//58
f  58//58 57//57 46//46
f  58//58 47//47 59//59
f  60//60 59//59 47//47
f  60//60 47//47 48//48
f  48//48 49//49 61//61
f  48//48 61//61 62//62
f  62//62 60//60 48//48
f  63//63 64//64 49//49
f  63//63 49//49 50//50
f  61//61 49//49 64//64
f  50//50 51//51 63//63
f  65//65 51//51 55//55
f  65//65 63//63 51//51
f  56//56 53//53 52//52
f  66//66 54//54 53//53
f  66//66 53//53 56//56
f  67//67 55//55 54//54
f  67//67 54//54 66//66
f  68//68 65//65 55//55
f  68//68 55//55 67//67
f  57//57 66//66 56//56
f  58//58 69//69 57//57
f  69//69 66//66 57//57
f  58//58 59//59 70//70
f  71//71 69//69 58//58
f  70//70 71//71 58//58
f  72//72 70//70 59//59
f  72//72 59//59 73//73
f  74//74 73//73 59//59
f  74//74 59//59 60//60
f  75//75 74//74 60//60
f  75//75 60//60 62//62
f  76//76 77//77 61//61
f  76//76 61//61 64//64
f  77//77 62//62 61//61
f  77//77 75//75 62//62
f  78//78 64//64 63//63
f  63//63 65//65 79//79
f  63//63 79//79 78//78
f  78//78 76//76 64//64
f  80//80 79//79 65//65
f  80//80 65//65 68//68
f  69//69 67//67 66//66
f  81//81 68//68 67//67
f  81//81 67//67 69//69
f  82//82 80//80 68//68
f  82//82 68//68 81//81
f  71//71 81//81 69//69
f  83//83 84//84 70//70
f  83//83 70//70 72//72
f  84//84 71//71 70//70
f  84//84 85//85 71//71
f  85//85 81//81 71//71
f  72//72 73//73 83//83
f  83//83 73//73 86//86
f  87//87 86//86 73//73
f  87//87 73//73 74//74
f  88//88 87//87 74//74
f  88//88 74//74 75//75
f  89//89 88//88 75//75
f  89//89 75//75 77//77
f  90//90 91//91 76//76
f  90//90 76//76 78//78
f  91//91 77//77 76//76
f  91//91 89//89 77//77
f  92//92 90//90 78//78
f  92//92 78//78 79//79
f  93//93 92//92 79//79
f  93//93 79//79 80//80
f  94//94 93//93 80//80
f  94//94 80//80 82//82
f  85//85 82//82 81//81
f  95//95 94//94 82//82
f  95//95 82//82 85//85
f  83//83 86//86 84//84
f  86//86 85//85 84//84
f  86//86 95//95 85//85
f  95//95 86//86 96//96
f  96//96 86//86 87//87
f  96//96 87//87 97//97
f  98//98 97//97 87//87
f  98//98 87//87 88//88
f  99//99 98//98 88//88
f  99//99 88//88 89//89
f  99//99 89//89 91//91
f  100//100 101//101 90//90
f  100//100 90//90 92//92
f  101//101 91//91 90//90
f  101//101 99//99 91//91
f  100//100 92//92 93//93
f  102//102 103//103 93//93
f  102//102 93//93 94//94
f  100//100 93//93 103//103
f  104//104 102//102 94//94
f  104//104 94//94 95//95
f  95//95 96//96 104//104
f  105//105 104//104 96//96
f  96//96 97//97 106//106
f  96//96 106//106 105//105
f  107//107 106//106 97//97
f  107//107 97//97 98//98
f  108//108 107//107 98//98
f  108//108 98//98 99//99
f  109//109 108//108 99//99
f  109//109 99//99 101//101
f  103//103 110//110 100//100
f  110//110 101//101 100//100
f  110//110 109//109 101//101
f  111//111 112//112 102//102
f  111//111 102//102 104//104
f  112//112 103//103 102//102
f  112//112 113//113 103//103
f  103//103 113//113 110//110
f  105//105 111//111 104//104
f  114//114 111//111 105//105
f  105//105 115//115 114//114
f  116//116 115//115 105//105
f  105//105 106//106 117//117
f  105//105 117//117 116//116
f  118//118 117//117 106//106
f  118//118 106//106 107//107
f  119//119 118//118 107//107
f  119//119 107//107 108//108
f  108//108 109//109 120//120
f  108//108 120//120 119//119
f  121//121 120//120 109//109
f  121//121 109//109 110//110
f  122//122 121//121 110//110
f  122//122 110//110 113//113
f  123//123 112//112 111//111
f  123//123 111//111 114//114
f  113//113 112//112 123//123
f  113//113 123//123 122//122
f  114//114 115//115 123//123
f  124//124 125//125 115//115
f  124//124 115//115 116//116
f  126//126 123//123 115//115
f  126//126 115//115 125//125
f  116//116 117//117 127//127
f  116//116 127//127 124//124
f  128//128 127//127 117//117
f  128//128 117//117 118//118
f  129//129 128//128 118//118
f  129//129 118//118 119//119
f  119//119 120//120 130//130
f  119//119 130//130 129//129
f  131//131 130//130 120//120
f  121//121 131//131 120//120
f  121//121 122//122 132//132
f  121//121 132//132 131//131
f  122//122 123//123 126//126
f  122//122 126//126 132//132
f  133//133 125//125 124//124
f  124//124 127//127 134//134
f  124//124 134//134 133//133
f  133//133 135//135 125//125
f  135//135 126//126 125//125
f  135//135 136//136 126//126
f  132//132 126//126 136//136
f  137//137 134//134 127//127
f  137//137 127//127 128//128
f  137//137 128//128 129//129
f  138//138 129//129 130//130
f  138//138 137//137 129//129
f  131//131 139//139 130//130
f  140//140 138//138 130//130
f  139//139 140//140 130//130
f  131//131 132//132 141//141
f  131//131 141//141 139//139
f  132//132 136//136 141//141
f  142//142 135//135 133//133
f  133//133 134//134 143//143
f  133//133 143//143 142//142
f  144//144 143//143 134//134
f  144//144 134//134 137//137
f  145//145 136//136 135//135
f  146//146 147//147 135//135
f  148//148 146//146 135//135
f  148//148 135//135 142//142
f  147//147 145//145 135//135
f  141//141 136//136 145//145
f  149//149 144//144 137//137
f  149//149 137//137 138//138
f  140//140 149//149 138//138
f  139//139 141//141 150//150
f  139//139 150//150 151//151
f  151//151 140//140 139//139
f  151//151 152//152 140//140
f  149//149 140//140 152//152
f  141//141 145//145 150//150
f  142//142 143//143 153//153
f  142//142 153//153 148//148
f  154//154 153//153 143//143
f  154//154 143//143 144//144
f  144//144 149//149 155//155
f  155//155 154//154 144//144
f  150//150 145//145 147//147
f  156//156 157//157 146//146
f  156//156 146//146 148//148
f  147//147 146//146 157//157
f  150//150 147//147 158//158
f  147//147 157//157 159//159
f  158//158 147//147 159//159
f  148//148 153//153 160//160
f  148//148 160//160 156//156
f  152//152 155//155 149//149
f  151//151 150//150 158//158
f  151//151 158//158 161//161
f  161//161 152//152 151//151
f  161//161 162//162 152//152
f  162//162 155//155 152//152
f  163//163 160//160 153//153
f  163//163 153//153 154//154
f  163//163 154//154 155//155
f  164//164 155//155 162//162
f  165//165 155//155 164//164
f  163//163 155//155 165//165
f  166//166 157//157 156//156
f  167//167 166//166 156//156
f  167//167 156//156 160//160
f  166//166 168//168 157//157
f  159//159 157//157 168//168
f  161//161 158//158 169//169
f  158//158 159//159 169//169
f  159//159 168//168 170//170
f  169//169 159//159 170//170
f  171//171 167//167 160//160
f  171//171 160//160 163//163
f  161//161 169//169 172//172
f  172//172 162//162 161//161
f  172//172 173//173 162//162
f  174//174 164//164 162//162
f  174//174 162//162 173//173
f  171//171 163//163 165//165
f  175//175 164//164 174//174
f  165//165 164//164 175//175
f  175//175 176//176 165//165
f  171//171 165//165 176//176
f  167//167 177//177 166//166
f  177//177 168//168 166//166
f  178//178 179//179 167//167
f  178//178 167//167 171//171
f  180//180 177//177 167//167
f  180//180 167//167 179//179
f  168//168 177//177 181//181
f  168//168 181//181 170//170
f  169//169 170//170 182//182
f  172//172 169//169 182//182
f  170//170 181//181 183//183
f  170//170 183//183 184//184
f  170//170 184//184 182//182
f  171//171 176//176 185//185
f  171//171 185//185 178//178
f  172//172 182//182 186//186
f  186//186 173//173 172//172
f  186//186 187//187 173//173
f  173//173 187//187 188//188
f  173//173 188//188 174//174
f  174//174 188//188 189//189
f  174//174 189//189 175//175
f  175//175 189//189 176//176
f  189//189 185//185 176//176
f  190//190 181//181 177//177
f  190//190 177//177 180//180
f  180//180 179//179 178//178
f  180//180 178//178 185//185
f  180//180 185//185 191//191
f  192//192 190//190 180//180
f  192//192 180//180 191//191
f  193//193 183//183 181//181
f  193//193 181//181 190//190
f  194//194 186//186 182//182
f  194//194 182//182 184//184
f  183//183 193//193 184//184
f  194//194 184//184 195//195
f  184//184 193//193 195//195
f  189//189 196//196 185//185
f  191//191 185//185 196//196
f  197//197 187//187 186//186
f  197//197 186//186 194//194
f  188//188 187//187 197//197
f  188//188 198//198 196//196
f  188//188 196//196 189//189
f  188//188 197//197 198//198
f  195//195 193//193 190//190
f  195//195 190//190 192//192
f  191//191 196//196 199//199
f  191//191 199//199 200//200
f  191//191 200//200 192//192
f  195//195 192//192 200//200
f  200//200 197//197 194//194
f  195//195 200//200 194//194
f  199//199 196//196 198//198
f  198//198 197//197 200//200
f  198//198 200//200 199//199
f  201//201 202//202 203//203
f  201//201 203//203 204//204
f  205//205 202//202 201//201
f  206//206 201//201 204//204
f  205//205 201//201 206//206
f  202//202 207//207 203//203
f  202//202 208//208 209//209
f  207//207 202//202 209//209
f  208//208 202//202 205//205
f  203//203 207//207 204//204
f  207//207 210//210 204//204
f  211//211 204//204 210//210
f  204//204 211//211 212//212
f  206//206 204//204 212//212
f  213//213 208//208 205//205
f  214//214 205//205 206//206
f  215//215 213//213 205//205
f  214//214 215//215 205//205
f  216//216 214//214 206//206
f  212//212 216//216 206//206
f  217//217 210//210 207//207
f  209//209 217//217 207//207
f  208//208 218//218 209//209
f  218//218 208//208 213//213
f  217//217 209//209 218//218
f  219//219 211//211 210//210
f  210//210 220//220 219//219
f  220//220 210//210 217//217
f  221//221 211//211 219//219
f  211//211 221//221 222//222
f  212//212 211//211 222//222
f  223//223 216//216 212//212
f  222//222 223//223 212//212
f  218//218 213//213 224//224
f  213//213 215//215 224//224
f  214//214 225//225 215//215
f  214//214 216//216 226//226
f  225//225 214//214 226//226
f  225//225 227//227 215//215
f  215//215 227//227 228//228
f  224//224 215//215 228//228
f  216//216 223//223 229//229
f  226//226 216//216 229//229
f  230//230 217//217 218//218
f  220//220 217//217 230//230
f  218//218 224//224 230//230
f  220//220 231//231 219//219
f  232//232 221//221 219//219
f  219//219 231//231 232//232
f  220//220 233//233 231//231
f  220//220 234//234 233//233
f  234//234 220//220 230//230
f  235//235 221//221 232//232
f  236//236 222//222 221//221
f  235//235 236//236 221//221
f  237//237 223//223 222//222
f  236//236 237//237 222//222
f  223//223 237//237 238//238
f  229//229 223//223 238//238
f  230//230 224//224 234//234
f  224//224 228//228 234//234
f  227//227 225//225 239//239
f  225//225 226//226 240//240
f  239//239 225//225 240//240
f  226//226 229//229 241//241
f  240//240 226//226 241//241
f  227//227 239//239 242//242
f  228//228 227//227 242//242
f  228//228 242//242 233//233
f  234//234 228//228 233//233
f  229//229 238//238 243//243
f  241//241 229//229 243//243
f  231//231 244//244 232//232
f  233//233 245//245 231//231
f  231//231 245//245 244//244
f  246//246 235//235 232//232
f  232//232 244//244 246//246
f  233//233 242//242 245//245
f  247//247 235//235 246//246
f  235//235 247//247 248//248
f  236//236 235//235 248//248
f  249//249 237//237 236//236
f  248//248 249//249 236//236
f  238//238 237//237 249//249
f  250//250 238//238 249//249
f  238//238 251//251 243//243
f  251//251 238//238 250//250
f  239//239 240//240 252//252
f  242//242 239//239 252//252
f  240//240 241//241 253//253
f  252//252 240//240 253//253
f  241//241 243//243 254//254
f  253//253 241//241 254//254
f  242//242 252//252 245//245
f  243//243 251//251 255//255
f  254//254 243//243 255//255
f  245//245 256//256 244//244
f  244//244 257//257 246//246
f  244//244 256//256 257//257
f  245//245 252//252 256//256
f  258//258 247//247 246//246
f  246//246 257//257 258//258
f  259//259 247//247 258//258
f  247//247 259//259 260//260
f  248//248 247//247 260//260
f  261//261 249//249 248//248
f  262//262 261//261 248//248
f  248//248 260//260 262//262
f  249//249 263//263 264//264
f  250//250 249//249 264//264
f  263//263 249//249 261//261
f  264//264 251//251 250//250
f  255//255 251//251 265//265
f  251//251 264//264 265//265
f  252//252 253//253 256//256
f  253//253 254//254 266//266
f  256//256 253//253 266//266
f  254//254 255//255 267//267
f  266//266 254//254 267//267
f  255//255 265//265 268//268
f  267//267 255//255 268//268
f  256//256 266//266 257//257
f  257//257 269//269 258//258
f  257//257 266//266 269//269
f  270//270 259//259 258//258
f  258//258 269//269 271//271
f  258//258 271//271 270//270
f  259//259 270//270 272//272
f  273//273 259//259 272//272
f  259//259 273//273 274//274
f  260//260 259//259 274//274
f  260//260 274//274 275//275
f  262//262 260//260 275//275
f  261//261 276//276 277//277
f  263//263 261//261 277//277
f  261//261 262//262 276//276
f  262//262 275//275 276//276
f  264//264 263//263 278//278
f  263//263 277//277 278//278
f  279//279 265//265 264//264
f  278//278 279//279 264//264
f  265//265 279//279 280//280
f  268//268 265//265 280//280
f  266//266 267//267 269//269
f  267//267 268//268 281//281
f  269//269 267//267 281//281
f  268//268 280//280 282//282
f  281//281 268//268 282//282
f  269//269 281//281 271//271
f  270//270 283//283 284//284
f  272//272 270//270 284//284
f  270//270 271//271 283//283
f  271//271 285//285 283//283
f  271//271 281//281 285//285
f  284//284 273//273 272//272
f  286//286 273//273 284//284
f  273//273 286//286 287//287
f  274//274 273//273 287//287
f  274//274 287//287 288//288
f  275//275 274//274 288//288
f  275//275 288//288 289//289
f  276//276 275//275 289//289
f  277//277 276//276 290//290
f  276//276 289//289 290//290
f  277//277 290//290 291//291
f  278//278 277//277 291//291
f  278//278 291//291 292//292
f  279//279 278//278 292//292
f  279//279 292//292 293//293
f  280//280 279//279 293//293
f  280//280 293//293 294//294
f  282//282 280//280 294//294
f  281//281 282//282 285//285
f  282//282 294//294 295//295
f  285//285 282//282 295//295
f  283//283 286//286 284//284
f  283//283 285//285 286//286
f  285//285 295//295 286//286
f  296//296 286//286 295//295
f  287//287 286//286 296//296
f  297//297 287//287 296//296
f  287//287 297//297 298//298
f  288//288 287//287 298//298
f  288//288 298//298 299//299
f  289//289 288//288 299//299
f  290//290 289//289 299//299
f  291//291 290//290 300//300
f  290//290 299//299 300//300
f  291//291 300//300 301//301
f  292//292 291//291 301//301
f  293//293 292//292 301//301
f  293//293 302//302 303//303
f  294//294 293//293 303//303
f  302//302 293//293 301//301
f  294//294 303//303 304//304
f  295//295 294//294 304//304
f  304//304 296//296 295//295
f  296//296 304//304 305//305
f  306//306 297//297 296//296
f  305//305 306//306 296//296
f  297//297 306//306 307//307
f  298//298 297//297 307//307
f  298//298 307//307 308//308
f  299//299 298//298 308//308
f  299//299 308//308 309//309
f  300//300 299//299 309//309
f  301//301 300//300 310//310
f  300//300 309//309 310//310
f  301//301 310//310 302//302
f  303//303 302//302 311//311
f  302//302 312//312 311//311
f  310//310 312//312 302//302
f  303//303 311//311 313//313
f  304//304 303//303 313//313
f  304//304 313//313 305//305
f  305//305 313//313 314//314
f  314//314 315//315 305//305
f  305//305 315//315 316//316
f  317//317 306//306 305//305
f  316//316 317//317 305//305
f  306//306 317//317 318//318
f  307//307 306//306 318//318
f  307//307 318//318 319//319
f  308//308 307//307 319//319
f  320//320 309//309 308//308
f  319//319 320//320 308//308
f  309//309 320//320 321//321
f  310//310 309//309 321//321
f  310//310 321//321 322//322
f  312//312 310//310 322//322
f  313//313 311//311 323//323
f  323//323 311//311 312//312
f  322//322 323//323 312//312
f  314//314 313//313 323//323
f  323//323 315//315 314//314
f  315//315 324//324 325//325
f  316//316 315//315 325//325
f  315//315 323//323 326//326
f  324//324 315//315 326//326
f  327//327 317//317 316//316
f  325//325 327//327 316//316
f  317//317 327//327 328//328
f  318//318 317//317 328//328
f  318//318 328//328 329//329
f  319//319 318//318 329//329
f  330//330 320//320 319//319
f  329//329 330//330 319//319
f  320//320 330//330 331//331
f  320//320 331//331 321//321
f  332//332 322//322 321//321
f  331//331 332//332 321//321
f  326//326 323//323 322//322
f  332//332 326//326 322//322
f  325//325 324//324 333//333
f  324//324 334//334 333//333
f  324//324 326//326 334//334
f  335//335 327//327 325//325
f  333//333 335//335 325//325
f  326//326 336//336 334//334
f  336//336 326//326 332//332
f  327//327 335//335 337//337
f  328//328 327//327 337//337
f  329//329 328//328 337//337
f  330//330 329//329 338//338
f  329//329 337//337 338//338
f  330//330 339//339 331//331
f  330//330 338//338 340//340
f  330//330 340//340 339//339
f  341//341 332//332 331//331
f  339//339 341//341 331//331
f  341//341 336//336 332//332
f  333//333 334//334 342//342
f  343//343 335//335 333//333
f  342//342 343//343 333//333
f  334//334 336//336 344//344
f  334//334 345//345 346//346
f  334//334 346//346 347//347
f  342//342 334//334 347//347
f  334//334 344//344 345//345
f  335//335 343//343 348//348
f  337//337 335//335 348//348
f  344//344 336//336 341//341
f  337//337 348//348 349//349
f  338//338 337//337 349//349
f  338//338 349//349 340//340
f  350//350 341//341 339//339
f  351//351 350//350 339//339
f  339//339 340//340 351//351
f  340//340 352//352 351//351
f  352//352 340//340 349//349
f  350//350 344//344 341//341
f  353//353 343//343 342//342
f  347//347 353//353 342//342
f  343//343 353//353 354//354
f  348//348 343//343 354//354
f  345//345 344//344 350//350
f  355//355 346//346 345//345
f  356//356 345//345 350//350
f  357//357 355//355 345//345
f  357//357 345//345 356//356
f  346//346 355//355 358//358
f  347//347 346//346 358//358
f  359//359 353//353 347//347
f  358//358 359//359 347//347
f  360//360 349//349 348//348
f  348//348 354//354 360//360
f  349//349 360//360 352//352
f  356//356 350//350 351//351
f  361//361 356//356 351//351
f  351//351 352//352 361//361
f  352//352 362//362 361//361
f  352//352 360//360 362//362
f  353//353 359//359 363//363
f  354//354 353//353 363//363
f  360//360 354//354 363//363
f  358//358 355//355 364//364
f  355//355 365//365 364//364
f  365//365 355//355 357//357
f  366//366 356//356 361//361
f  366//366 357//357 356//356
f  367//367 365//365 357//357
f  367//367 357//357 366//366
f  358//358 364//364 368//368
f  359//359 358//358 368//368
f  359//359 368//368 369//369
f  363//363 359//359 369//369
f  362//362 360//360 370//370
f  370//370 360//360 371//371
f  371//371 360//360 363//363
f  372//372 366//366 361//361
f  361//361 362//362 372//372
f  362//362 373//373 372//372
f  362//362 370//370 374//374
f  373//373 362//362 374//374
f  371//371 363//363 369//369
f  364//364 375//375 368//368
f  364//364 365//365 375//375
f  376//376 375//375 365//365
f  367//367 376//376 365//365
f  377//377 367//367 366//366
f  377//377 366//366 372//372
f  378//378 376//376 367//367
f  379//379 378//378 367//367
f  377//377 379//379 367//367
f  368//368 380//380 381//381
f  369//369 368//368 381//381
f  368//368 375//375 382//382
f  380//380 368//368 382//382
f  383//383 371//371 369//369
f  384//384 383//383 369//369
f  381//381 384//384 369//369
f  374//374 370//370 385//385
f  385//385 370//370 371//371
f  371//371 383//383 385//385
f  386//386 377//377 372//372
f  372//372 373//373 386//386
f  373//373 387//387 386//386
f  388//388 387//387 373//373
f  374//374 388//388 373//373
f  389//389 388//388 374//374
f  385//385 389//389 374//374
f  375//375 376//376 390//390
f  382//382 375//375 390//390
f  376//376 378//378 391//391
f  390//390 376//376 391//391
f  377//377 386//386 392//392
f  379//379 377//377 392//392
f  379//379 391//391 378//378
f  393//393 379//379 392//392
f  393//393 391//391 379//379
f  381//381 380//380 382//382
f  384//384 381//381 382//382
f  394//394 384//384 382//382
f  382//382 390//390 395//395
f  394//394 382//382 395//395
f  383//383 389//389 385//385
f  383//383 384//384 389//389
f  384//384 396//396 389//389
f  396//396 384//384 394//394
f  386//386 387//387 397//397
f  392//392 386//386 397//397
f  397//397 387//387 388//388
f  396//396 398//398 388//388
f  389//389 396//396 388//388
f  398//398 397//397 388//388
f  390//390 391//391 393//393
f  395//395 390//390 393//393
f  392//392 397//397 399//399
f  392//392 399//399 393//393
f  399//399 395//395 393//393
f  400//400 396//396 394//394
f  399//399 400//400 394//394
f  395//395 399//399 394//394
f  398//398 396//396 400//400
f  399//399 397//397 398//398
f  400//400 399//399 398//398
