#VRML V2.0 utf8 
Transform { 
 children [ 
    Shape { 
appearance Appearance {
              material DEF surface Material {
              diffuseColor 0.8 0.8 0.8
              ambientIntensity 0.2
              specularColor 0.4 0.4 0.4
              emissiveColor 0 0 0
              shininess 0.25
              transparency 0
            }
          }
   geometry IndexedFaceSet { 
   solid FALSE 
    coord DEF bone Coordinate{ 
     point [ 
	  0.003317   0.002357   0.164899,
	  0.005666  -0.000004   0.173552,
	  0.004489  -0.002121   0.164213,
	 -0.000336   0.000877   0.158730,
	  0.000545   0.005329   0.167347,
	 -0.004779   0.005888   0.175861,
	 -0.000411   0.001101   0.176697,
	  0.000521  -0.003262   0.169163,
	 -0.000908  -0.001517   0.157204,
	 -0.004558   0.006697   0.161903,
	 -0.002895   0.000460   0.154491,
	 -0.003748  -0.001148   0.151061,
	 -0.008037   0.007980   0.172716,
	 -0.005546   0.002246   0.178703,
	 -0.003920  -0.002425   0.174340,
	 -0.005723  -0.002714   0.158689,
	 -0.008126  -0.003442   0.172137,
	 -0.008772  -0.001804   0.152803,
	 -0.008036   0.007119   0.155384,
	 -0.012786   0.010070   0.166035,
	 -0.004059   0.000545   0.148186,
	 -0.006416  -0.000404   0.144603,
	 -0.011038  -0.001242   0.144836,
	 -0.010440   0.005287   0.177241,
	 -0.010197  -0.000772   0.177146,
	 -0.013328  -0.001589   0.160772,
	 -0.015456  -0.000638   0.154356,
	 -0.018346  -0.003369   0.170314,
	 -0.019760  -0.001423   0.171375,
	 -0.018412  -0.000659   0.146041,
	 -0.016023   0.011500   0.158273,
	 -0.011073   0.008026   0.148890,
	 -0.021938   0.009671   0.167115,
	 -0.017797   0.007624   0.171874,
	 -0.004976   0.000738   0.142826,
	 -0.006334  -0.000433   0.140266,
	 -0.011736  -0.001587   0.139207,
	 -0.021416  -0.001316   0.136803,
	 -0.024107   0.000485   0.163184,
	 -0.025431   0.005710   0.154836,
	 -0.023104   0.005585   0.148220,
	 -0.025214   0.003170   0.165481,
	 -0.023399   0.001322   0.137170,
	 -0.015853   0.011438   0.149293,
	 -0.023711   0.011337   0.158839,
	 -0.011631   0.007397   0.140804,
	 -0.004703  -0.000483   0.136382,
	 -0.006683  -0.000942   0.135905,
	 -0.012434  -0.001941   0.132956,
	 -0.017773  -0.002462   0.131273,
	 -0.023869  -0.002652   0.129806,
	 -0.025035   0.009272   0.157238,
	 -0.024015   0.008621   0.148668,
	 -0.023540   0.007110   0.137600,
	 -0.023942   0.005310   0.129869,
	 -0.023009   0.011484   0.150217,
	 -0.015744   0.012287   0.141220,
	 -0.009667   0.007431   0.133833,
	 -0.003340  -0.001296   0.129397,
	 -0.003584  -0.002948   0.127877,
	 -0.009221  -0.002669   0.124886,
	 -0.005977  -0.003876   0.126757,
	 -0.016540  -0.002769   0.119916,
	 -0.012247  -0.002008   0.123050,
	 -0.017898   0.003778   0.119593,
	 -0.020971   0.011493   0.138615,
	 -0.019762   0.010314   0.131311,
	 -0.014722   0.009006   0.120330,
	 -0.013484   0.010867   0.132160,
	 -0.004784   0.002429   0.126982,
	 -0.005649   0.005457   0.125567,
	 -0.002260   0.000005   0.126350,
	 -0.000286  -0.002388   0.121324,
	 -0.001042  -0.005154   0.120722,
	 -0.004145  -0.006655   0.119570,
	 -0.010475  -0.002989   0.114557,
	 -0.006611  -0.004253   0.117106,
	 -0.013116  -0.002488   0.112455,
	 -0.013692   0.002830   0.112861,
	 -0.010266   0.008155   0.114545,
	 -0.008804   0.008822   0.122403,
	 -0.006325   0.007537   0.116141,
	 -0.000645  -0.000694   0.120617,
	 -0.001064   0.000375   0.120242,
	 -0.002516   0.004094   0.118449,
	  0.003133  -0.003666   0.113288,
	  0.003147  -0.005215   0.112093,
	 -0.001290  -0.010313   0.110009,
	 -0.003132  -0.006416   0.109104,
	 -0.008751  -0.003073   0.105725,
	 -0.006045  -0.004478   0.107239,
	 -0.009326   0.002245   0.106120,
	 -0.006287   0.006204   0.108129,
	 -0.003095   0.005905   0.109650,
	  0.000347   0.002633   0.111603,
	  0.007053  -0.005371   0.104382,
	  0.006850  -0.007919   0.103516,
	  0.002933  -0.011268   0.102351,
	 -0.000556  -0.007098   0.100048,
	 -0.004830  -0.000155   0.097603,
	 -0.004631  -0.003765   0.098038,
	  0.000333   0.003096   0.101053,
	 -0.001791   0.003804   0.099600,
	  0.004406  -0.000245   0.103369,
	  0.010502  -0.006644   0.095117,
	  0.010353  -0.010099   0.093661,
	  0.005574  -0.012854   0.092707,
	  0.002010  -0.009312   0.091662,
	 -0.001697  -0.006141   0.089689,
	 -0.001496  -0.001160   0.088929,
	  0.008218  -0.001677   0.094445,
	  0.004608   0.001226   0.093111,
	  0.001283   0.002695   0.090602,
	  0.010310  -0.002811   0.088779,
	  0.010939  -0.004181   0.083603,
	  0.012576  -0.009081   0.084204,
	  0.012924  -0.011435   0.082135,
	  0.007501  -0.014125   0.081745,
	  0.004463  -0.011907   0.080800,
	  0.000335  -0.007675   0.078757,
	  0.000886  -0.002849   0.078960,
	  0.005061   0.001500   0.077944,
	  0.008427   0.000016   0.078285,
	  0.014887  -0.008976   0.072928,
	  0.013229  -0.004059   0.073253,
	  0.010093  -0.000046   0.072548,
	  0.014232  -0.011994   0.072355,
	  0.009114  -0.015478   0.072627,
	  0.004259  -0.013349   0.071526,
	  0.001540  -0.009515   0.068373,
	  0.001929  -0.003509   0.069148,
	  0.006739   0.001433   0.071587,
	  0.015349  -0.008946   0.062433,
	  0.013483  -0.013640   0.063344,
	  0.014080  -0.003319   0.059669,
	  0.009631   0.000842   0.060383,
	  0.009685  -0.016602   0.064960,
	  0.004359  -0.013385   0.066262,
	  0.001622  -0.003144   0.059503,
	  0.000757  -0.010252   0.058721,
	  0.006632   0.002156   0.060397,
	  0.014896  -0.006743   0.055806,
	  0.013624  -0.013690   0.055912,
	  0.008868  -0.017334   0.056550,
	  0.009477   0.001357   0.057253,
	  0.011850  -0.001873   0.047332,
	  0.007843  -0.000567   0.052520,
	  0.014255  -0.005572   0.047035,
	  0.003020  -0.014330   0.056873,
	  0.005330   0.002508   0.055305,
	 -0.000328  -0.003372   0.052210,
	 -0.001215  -0.009599   0.049227,
	  0.013150  -0.013679   0.047191,
	  0.007871  -0.017543   0.047168,
	  0.001243  -0.014854   0.046187,
	  0.013551  -0.006571   0.038948,
	  0.010668  -0.000901   0.039141,
	  0.003827   0.003392   0.049567,
	  0.006797   0.004091   0.040198,
	  0.012285  -0.013521   0.038736,
	 -0.002745  -0.002531   0.046700,
	 -0.004052  -0.007688   0.043328,
	  0.007410  -0.017544   0.037203,
	 -0.002032  -0.010098   0.035829,
	 -0.000561  -0.014488   0.033311,
	  0.012412  -0.006503   0.030777,
	  0.009775  -0.011129   0.030072,
	  0.010392   0.000108   0.031334,
	  0.001788   0.006509   0.041540,
	  0.006461   0.004475   0.032710,
	  0.006805  -0.015456   0.030976,
	 -0.006563  -0.000404   0.038853,
	 -0.008674  -0.005869   0.035434,
	 -0.007160  -0.009619   0.034133,
	 -0.004542  -0.012958   0.031365,
	 -0.001089  -0.015302   0.028693,
	  0.010344  -0.002099   0.028918,
	  0.006861  -0.011665   0.020694,
	  0.007933  -0.007978   0.019072,
	  0.006934  -0.001959   0.020223,
	  0.007844   0.004425   0.027992,
	 -0.002544   0.009075   0.035808,
	  0.004271   0.008648   0.029287,
	 -0.002885   0.011730   0.030424,
	  0.001839  -0.013732   0.023968,
	 -0.010360   0.002362   0.032857,
	 -0.013994  -0.003081   0.028826,
	 -0.013964  -0.009969   0.025974,
	 -0.007428  -0.013601   0.026902,
	  0.007230   0.003327   0.021693,
	  0.000599  -0.004973   0.021993,
	 -0.000191   0.000437   0.022421,
	  0.003282   0.007615   0.024040,
	 -0.011093   0.005759   0.027983,
	 -0.002035   0.005766   0.024324,
	 -0.007149  -0.012604   0.023127,
	 -0.016410  -0.001387   0.023454,
	 -0.016124  -0.009184   0.021961,
	 -0.007954  -0.006967   0.021045,
	 -0.008666   0.001278   0.021935,
	  0.004489  -0.002121  -0.164213,
	  0.005666  -0.000004  -0.173552,
	  0.003317   0.002357  -0.164899,
	 -0.000336   0.000877  -0.158730,
	  0.000521  -0.003262  -0.169163,
	 -0.000908  -0.001517  -0.157204,
	  0.000545   0.005329  -0.167347,
	 -0.000411   0.001101  -0.176697,
	 -0.004779   0.005888  -0.175861,
	 -0.004558   0.006697  -0.161903,
	 -0.002895   0.000460  -0.154491,
	 -0.003748  -0.001148  -0.151061,
	 -0.003920  -0.002425  -0.174340,
	 -0.005723  -0.002714  -0.158689,
	 -0.008126  -0.003442  -0.172137,
	 -0.008772  -0.001804  -0.152803,
	 -0.008037   0.007980  -0.172716,
	 -0.005546   0.002246  -0.178703,
	 -0.008036   0.007119  -0.155384,
	 -0.012786   0.010070  -0.166035,
	 -0.004059   0.000545  -0.148186,
	 -0.006416  -0.000404  -0.144603,
	 -0.011038  -0.001242  -0.144836,
	 -0.010197  -0.000772  -0.177146,
	 -0.013328  -0.001589  -0.160772,
	 -0.015456  -0.000638  -0.154356,
	 -0.018346  -0.003369  -0.170314,
	 -0.019760  -0.001423  -0.171375,
	 -0.018412  -0.000659  -0.146041,
	 -0.010440   0.005287  -0.177241,
	 -0.016023   0.011500  -0.158273,
	 -0.011073   0.008026  -0.148890,
	 -0.021938   0.009671  -0.167115,
	 -0.017797   0.007624  -0.171874,
	 -0.004976   0.000738  -0.142826,
	 -0.006334  -0.000433  -0.140266,
	 -0.011736  -0.001587  -0.139207,
	 -0.021416  -0.001316  -0.136803,
	 -0.024107   0.000485  -0.163184,
	 -0.025431   0.005710  -0.154836,
	 -0.023104   0.005585  -0.148220,
	 -0.025214   0.003170  -0.165481,
	 -0.023399   0.001322  -0.137170,
	 -0.015853   0.011438  -0.149293,
	 -0.023711   0.011337  -0.158839,
	 -0.011631   0.007397  -0.140804,
	 -0.004703  -0.000483  -0.136382,
	 -0.006683  -0.000942  -0.135905,
	 -0.012434  -0.001941  -0.132956,
	 -0.017773  -0.002462  -0.131273,
	 -0.023869  -0.002652  -0.129806,
	 -0.025035   0.009272  -0.157238,
	 -0.024015   0.008621  -0.148668,
	 -0.023540   0.007110  -0.137600,
	 -0.023942   0.005310  -0.129869,
	 -0.023009   0.011484  -0.150217,
	 -0.015744   0.012287  -0.141220,
	 -0.009667   0.007431  -0.133833,
	 -0.003340  -0.001296  -0.129397,
	 -0.003584  -0.002948  -0.127877,
	 -0.009221  -0.002669  -0.124886,
	 -0.005977  -0.003876  -0.126757,
	 -0.012247  -0.002008  -0.123050,
	 -0.016540  -0.002769  -0.119916,
	 -0.017898   0.003778  -0.119593,
	 -0.020971   0.011493  -0.138615,
	 -0.019762   0.010314  -0.131311,
	 -0.014722   0.009006  -0.120330,
	 -0.013484   0.010867  -0.132160,
	 -0.004784   0.002429  -0.126982,
	 -0.005649   0.005457  -0.125567,
	 -0.002260   0.000005  -0.126350,
	 -0.000286  -0.002388  -0.121324,
	 -0.001042  -0.005154  -0.120722,
	 -0.004145  -0.006655  -0.119570,
	 -0.006611  -0.004253  -0.117106,
	 -0.010475  -0.002989  -0.114557,
	 -0.013116  -0.002488  -0.112455,
	 -0.013692   0.002830  -0.112861,
	 -0.010266   0.008155  -0.114545,
	 -0.008804   0.008822  -0.122403,
	 -0.006325   0.007537  -0.116141,
	 -0.001064   0.000375  -0.120242,
	 -0.000645  -0.000694  -0.120617,
	 -0.002516   0.004094  -0.118449,
	  0.003133  -0.003666  -0.113288,
	  0.003147  -0.005215  -0.112093,
	 -0.001290  -0.010313  -0.110009,
	 -0.003132  -0.006416  -0.109104,
	 -0.006045  -0.004478  -0.107239,
	 -0.008751  -0.003073  -0.105725,
	 -0.009326   0.002245  -0.106120,
	 -0.006287   0.006204  -0.108129,
	 -0.003095   0.005905  -0.109650,
	  0.000347   0.002633  -0.111603,
	  0.007053  -0.005371  -0.104382,
	  0.006850  -0.007919  -0.103516,
	  0.002933  -0.011268  -0.102351,
	 -0.000556  -0.007098  -0.100048,
	 -0.004631  -0.003765  -0.098038,
	 -0.004830  -0.000155  -0.097603,
	 -0.001791   0.003804  -0.099600,
	  0.000333   0.003096  -0.101053,
	  0.004406  -0.000245  -0.103369,
	  0.010502  -0.006644  -0.095117,
	  0.010353  -0.010099  -0.093661,
	  0.005574  -0.012854  -0.092707,
	  0.002010  -0.009312  -0.091662,
	 -0.001697  -0.006141  -0.089689,
	 -0.001496  -0.001160  -0.088929,
	  0.004608   0.001226  -0.093111,
	  0.001283   0.002695  -0.090602,
	  0.008218  -0.001677  -0.094445,
	  0.010310  -0.002811  -0.088779,
	  0.010939  -0.004181  -0.083603,
	  0.012576  -0.009081  -0.084204,
	  0.012924  -0.011435  -0.082135,
	  0.007501  -0.014125  -0.081745,
	  0.004463  -0.011907  -0.080800,
	  0.000335  -0.007675  -0.078757,
	  0.000886  -0.002849  -0.078960,
	  0.005061   0.001500  -0.077944,
	  0.008427   0.000016  -0.078285,
	  0.013229  -0.004059  -0.073253,
	  0.014887  -0.008976  -0.072928,
	  0.010093  -0.000046  -0.072548,
	  0.014232  -0.011994  -0.072355,
	  0.009114  -0.015478  -0.072627,
	  0.004259  -0.013349  -0.071526,
	  0.001540  -0.009515  -0.068373,
	  0.001929  -0.003509  -0.069148,
	  0.006739   0.001433  -0.071587,
	  0.015349  -0.008946  -0.062433,
	  0.014080  -0.003319  -0.059669,
	  0.013483  -0.013640  -0.063344,
	  0.009631   0.000842  -0.060383,
	  0.009685  -0.016602  -0.064960,
	  0.004359  -0.013385  -0.066262,
	  0.001622  -0.003144  -0.059503,
	  0.000757  -0.010252  -0.058721,
	  0.006632   0.002156  -0.060397,
	  0.014896  -0.006743  -0.055806,
	  0.013624  -0.013690  -0.055912,
	  0.009477   0.001357  -0.057253,
	  0.007843  -0.000567  -0.052520,
	  0.011850  -0.001873  -0.047332,
	  0.014255  -0.005572  -0.047035,
	  0.008868  -0.017334  -0.056550,
	  0.003020  -0.014330  -0.056873,
	  0.005330   0.002508  -0.055305,
	 -0.000328  -0.003372  -0.052210,
	 -0.001215  -0.009599  -0.049227,
	  0.013150  -0.013679  -0.047191,
	  0.007871  -0.017543  -0.047168,
	  0.010668  -0.000901  -0.039141,
	  0.003827   0.003392  -0.049567,
	  0.006797   0.004091  -0.040198,
	  0.013551  -0.006571  -0.038948,
	  0.012285  -0.013521  -0.038736,
	  0.001243  -0.014854  -0.046187,
	 -0.002745  -0.002531  -0.046700,
	 -0.004052  -0.007688  -0.043328,
	  0.007410  -0.017544  -0.037203,
	  0.012412  -0.006503  -0.030777,
	  0.010392   0.000108  -0.031334,
	  0.001788   0.006509  -0.041540,
	  0.006461   0.004475  -0.032710,
	  0.009775  -0.011129  -0.030072,
	  0.006805  -0.015456  -0.030976,
	 -0.002032  -0.010098  -0.035829,
	 -0.000561  -0.014488  -0.033311,
	 -0.006563  -0.000404  -0.038853,
	 -0.008674  -0.005869  -0.035434,
	 -0.007160  -0.009619  -0.034133,
	  0.010344  -0.002099  -0.028918,
	  0.007844   0.004425  -0.027992,
	 -0.002544   0.009075  -0.035808,
	  0.004271   0.008648  -0.029287,
	 -0.002885   0.011730  -0.030424,
	  0.007933  -0.007978  -0.019072,
	  0.006861  -0.011665  -0.020694,
	  0.006934  -0.001959  -0.020223,
	 -0.001089  -0.015302  -0.028693,
	  0.001839  -0.013732  -0.023968,
	 -0.004542  -0.012958  -0.031365,
	 -0.010360   0.002362  -0.032857,
	 -0.013994  -0.003081  -0.028826,
	 -0.013964  -0.009969  -0.025974,
	 -0.007428  -0.013601  -0.026902,
	  0.007230   0.003327  -0.021693,
	  0.003282   0.007615  -0.024040,
	 -0.011093   0.005759  -0.027983,
	 -0.002035   0.005766  -0.024324,
	  0.000599  -0.004973  -0.021993,
	 -0.000191   0.000437  -0.022421,
	 -0.007149  -0.012604  -0.023127,
	 -0.016410  -0.001387  -0.023454,
	 -0.016124  -0.009184  -0.021961,
	 -0.008666   0.001278  -0.021935,
	 -0.007954  -0.006967  -0.021045,
     ]    } 
    coordIndex [ 
	     0,      1,      2, -1 
	     3,      0,      2, -1 
	     3,      4,      0, -1 
	     0,      4,      1, -1 
	     5,      6,      1, -1 
	     5,      1,      4, -1 
	     7,      1,      6, -1 
	     2,      1,      7, -1 
	     3,      2,      8, -1 
	     8,      2,      7, -1 
	     3,      9,      4, -1 
	     9,      3,     10, -1 
	    11,     10,      3, -1 
	    11,      3,      8, -1 
	     4,      9,     12, -1 
	     4,     12,      5, -1 
	    13,      5,     12, -1 
	     5,     13,      6, -1 
	     7,      6,     14, -1 
	    14,      6,     13, -1 
	     8,      7,     15, -1 
	     7,     14,     16, -1 
	     7,     16,     15, -1 
	     8,     15,     17, -1 
	     8,     17,     11, -1 
	     9,     10,     18, -1 
	    18,     19,      9, -1 
	    12,      9,     19, -1 
	    18,     10,     20, -1 
	    21,     20,     10, -1 
	    21,     10,     11, -1 
	    11,     17,     22, -1 
	    11,     22,     21, -1 
	    13,     12,     23, -1 
	    23,     12,     19, -1 
	    24,     14,     13, -1 
	    23,     24,     13, -1 
	    24,     16,     14, -1 
	    16,     25,     15, -1 
	    26,     17,     15, -1 
	    26,     15,     25, -1 
	    16,     27,     25, -1 
	    28,     27,     16, -1 
	    28,     16,     24, -1 
	    29,     22,     17, -1 
	    29,     17,     26, -1 
	    18,     30,     19, -1 
	    18,     20,     31, -1 
	    31,     30,     18, -1 
	    30,     32,     19, -1 
	    32,     33,     19, -1 
	    23,     19,     33, -1 
	    31,     20,     34, -1 
	    20,     21,     35, -1 
	    20,     35,     34, -1 
	    21,     22,     36, -1 
	    21,     36,     35, -1 
	    37,     36,     22, -1 
	    37,     22,     29, -1 
	    33,     24,     23, -1 
	    33,     28,     24, -1 
	    38,     25,     27, -1 
	    39,     26,     25, -1 
	    39,     25,     38, -1 
	    40,     29,     26, -1 
	    40,     26,     39, -1 
	    41,     38,     27, -1 
	    41,     27,     28, -1 
	    32,     41,     28, -1 
	    32,     28,     33, -1 
	    42,     37,     29, -1 
	    42,     29,     40, -1 
	    31,     43,     30, -1 
	    30,     44,     32, -1 
	    43,     44,     30, -1 
	    31,     34,     45, -1 
	    45,     43,     31, -1 
	    44,     41,     32, -1 
	    45,     34,     46, -1 
	    47,     46,     34, -1 
	    47,     34,     35, -1 
	    35,     36,     48, -1 
	    35,     48,     47, -1 
	    48,     36,     37, -1 
	    48,     37,     49, -1 
	    42,     50,     37, -1 
	    49,     37,     50, -1 
	    51,     39,     38, -1 
	    51,     38,     41, -1 
	    52,     40,     39, -1 
	    52,     39,     51, -1 
	    53,     42,     40, -1 
	    53,     40,     52, -1 
	    44,     51,     41, -1 
	    54,     50,     42, -1 
	    54,     42,     53, -1 
	    43,     55,     44, -1 
	    45,     56,     43, -1 
	    56,     55,     43, -1 
	    55,     51,     44, -1 
	    45,     46,     57, -1 
	    57,     56,     45, -1 
	    57,     46,     58, -1 
	    59,     58,     46, -1 
	    59,     46,     47, -1 
	    47,     48,     60, -1 
	    47,     60,     61, -1 
	    61,     59,     47, -1 
	    62,     63,     48, -1 
	    62,     48,     49, -1 
	    60,     48,     63, -1 
	    49,     50,     62, -1 
	    64,     50,     54, -1 
	    64,     62,     50, -1 
	    55,     52,     51, -1 
	    65,     53,     52, -1 
	    65,     52,     55, -1 
	    66,     54,     53, -1 
	    66,     53,     65, -1 
	    67,     64,     54, -1 
	    67,     54,     66, -1 
	    56,     65,     55, -1 
	    57,     68,     56, -1 
	    68,     65,     56, -1 
	    57,     58,     69, -1 
	    70,     68,     57, -1 
	    69,     70,     57, -1 
	    71,     69,     58, -1 
	    71,     58,     72, -1 
	    73,     72,     58, -1 
	    73,     58,     59, -1 
	    74,     73,     59, -1 
	    74,     59,     61, -1 
	    75,     76,     60, -1 
	    75,     60,     63, -1 
	    76,     61,     60, -1 
	    76,     74,     61, -1 
	    77,     63,     62, -1 
	    62,     64,     78, -1 
	    62,     78,     77, -1 
	    77,     75,     63, -1 
	    79,     78,     64, -1 
	    79,     64,     67, -1 
	    68,     66,     65, -1 
	    80,     67,     66, -1 
	    80,     66,     68, -1 
	    81,     79,     67, -1 
	    81,     67,     80, -1 
	    70,     80,     68, -1 
	    82,     83,     69, -1 
	    82,     69,     71, -1 
	    83,     70,     69, -1 
	    83,     84,     70, -1 
	    84,     80,     70, -1 
	    71,     72,     82, -1 
	    82,     72,     85, -1 
	    86,     85,     72, -1 
	    86,     72,     73, -1 
	    87,     86,     73, -1 
	    87,     73,     74, -1 
	    88,     87,     74, -1 
	    88,     74,     76, -1 
	    89,     90,     75, -1 
	    89,     75,     77, -1 
	    90,     76,     75, -1 
	    90,     88,     76, -1 
	    91,     89,     77, -1 
	    91,     77,     78, -1 
	    92,     91,     78, -1 
	    92,     78,     79, -1 
	    93,     92,     79, -1 
	    93,     79,     81, -1 
	    84,     81,     80, -1 
	    94,     93,     81, -1 
	    94,     81,     84, -1 
	    82,     85,     83, -1 
	    85,     84,     83, -1 
	    85,     94,     84, -1 
	    94,     85,     95, -1 
	    95,     85,     86, -1 
	    95,     86,     96, -1 
	    97,     96,     86, -1 
	    97,     86,     87, -1 
	    98,     97,     87, -1 
	    98,     87,     88, -1 
	    98,     88,     90, -1 
	    99,    100,     89, -1 
	    99,     89,     91, -1 
	   100,     90,     89, -1 
	   100,     98,     90, -1 
	    99,     91,     92, -1 
	   101,    102,     92, -1 
	   101,     92,     93, -1 
	    99,     92,    102, -1 
	   103,    101,     93, -1 
	   103,     93,     94, -1 
	    94,     95,    103, -1 
	   104,    103,     95, -1 
	    95,     96,    105, -1 
	    95,    105,    104, -1 
	   106,    105,     96, -1 
	   106,     96,     97, -1 
	   107,    106,     97, -1 
	   107,     97,     98, -1 
	   108,    107,     98, -1 
	   108,     98,    100, -1 
	   102,    109,     99, -1 
	   109,    100,     99, -1 
	   109,    108,    100, -1 
	   110,    111,    101, -1 
	   110,    101,    103, -1 
	   111,    102,    101, -1 
	   111,    112,    102, -1 
	   102,    112,    109, -1 
	   104,    110,    103, -1 
	   113,    110,    104, -1 
	   104,    114,    113, -1 
	   115,    114,    104, -1 
	   104,    105,    116, -1 
	   104,    116,    115, -1 
	   117,    116,    105, -1 
	   117,    105,    106, -1 
	   118,    117,    106, -1 
	   118,    106,    107, -1 
	   107,    108,    119, -1 
	   107,    119,    118, -1 
	   120,    119,    108, -1 
	   120,    108,    109, -1 
	   121,    120,    109, -1 
	   121,    109,    112, -1 
	   122,    111,    110, -1 
	   122,    110,    113, -1 
	   112,    111,    122, -1 
	   112,    122,    121, -1 
	   113,    114,    122, -1 
	   123,    124,    114, -1 
	   123,    114,    115, -1 
	   125,    122,    114, -1 
	   125,    114,    124, -1 
	   115,    116,    126, -1 
	   115,    126,    123, -1 
	   127,    126,    116, -1 
	   127,    116,    117, -1 
	   128,    127,    117, -1 
	   128,    117,    118, -1 
	   118,    119,    129, -1 
	   118,    129,    128, -1 
	   130,    129,    119, -1 
	   120,    130,    119, -1 
	   120,    121,    131, -1 
	   120,    131,    130, -1 
	   121,    122,    125, -1 
	   121,    125,    131, -1 
	   132,    124,    123, -1 
	   123,    126,    133, -1 
	   123,    133,    132, -1 
	   132,    134,    124, -1 
	   134,    125,    124, -1 
	   134,    135,    125, -1 
	   131,    125,    135, -1 
	   136,    133,    126, -1 
	   136,    126,    127, -1 
	   136,    127,    128, -1 
	   137,    128,    129, -1 
	   137,    136,    128, -1 
	   130,    138,    129, -1 
	   139,    137,    129, -1 
	   138,    139,    129, -1 
	   130,    131,    140, -1 
	   130,    140,    138, -1 
	   131,    135,    140, -1 
	   141,    134,    132, -1 
	   132,    133,    142, -1 
	   132,    142,    141, -1 
	   143,    142,    133, -1 
	   143,    133,    136, -1 
	   144,    135,    134, -1 
	   145,    146,    134, -1 
	   147,    145,    134, -1 
	   147,    134,    141, -1 
	   146,    144,    134, -1 
	   140,    135,    144, -1 
	   148,    143,    136, -1 
	   148,    136,    137, -1 
	   139,    148,    137, -1 
	   138,    140,    149, -1 
	   138,    149,    150, -1 
	   150,    139,    138, -1 
	   150,    151,    139, -1 
	   148,    139,    151, -1 
	   140,    144,    149, -1 
	   141,    142,    152, -1 
	   141,    152,    147, -1 
	   153,    152,    142, -1 
	   153,    142,    143, -1 
	   143,    148,    154, -1 
	   154,    153,    143, -1 
	   149,    144,    146, -1 
	   155,    156,    145, -1 
	   155,    145,    147, -1 
	   146,    145,    156, -1 
	   149,    146,    157, -1 
	   146,    156,    158, -1 
	   157,    146,    158, -1 
	   147,    152,    159, -1 
	   147,    159,    155, -1 
	   151,    154,    148, -1 
	   150,    149,    157, -1 
	   150,    157,    160, -1 
	   160,    151,    150, -1 
	   160,    161,    151, -1 
	   161,    154,    151, -1 
	   162,    159,    152, -1 
	   162,    152,    153, -1 
	   162,    153,    154, -1 
	   163,    154,    161, -1 
	   164,    154,    163, -1 
	   162,    154,    164, -1 
	   165,    156,    155, -1 
	   166,    165,    155, -1 
	   166,    155,    159, -1 
	   165,    167,    156, -1 
	   158,    156,    167, -1 
	   160,    157,    168, -1 
	   157,    158,    168, -1 
	   158,    167,    169, -1 
	   168,    158,    169, -1 
	   170,    166,    159, -1 
	   170,    159,    162, -1 
	   160,    168,    171, -1 
	   171,    161,    160, -1 
	   171,    172,    161, -1 
	   173,    163,    161, -1 
	   173,    161,    172, -1 
	   170,    162,    164, -1 
	   174,    163,    173, -1 
	   164,    163,    174, -1 
	   174,    175,    164, -1 
	   170,    164,    175, -1 
	   166,    176,    165, -1 
	   176,    167,    165, -1 
	   177,    178,    166, -1 
	   177,    166,    170, -1 
	   179,    176,    166, -1 
	   179,    166,    178, -1 
	   167,    176,    180, -1 
	   167,    180,    169, -1 
	   168,    169,    181, -1 
	   171,    168,    181, -1 
	   169,    180,    182, -1 
	   169,    182,    183, -1 
	   169,    183,    181, -1 
	   170,    175,    184, -1 
	   170,    184,    177, -1 
	   171,    181,    185, -1 
	   185,    172,    171, -1 
	   185,    186,    172, -1 
	   172,    186,    187, -1 
	   172,    187,    173, -1 
	   173,    187,    188, -1 
	   173,    188,    174, -1 
	   174,    188,    175, -1 
	   188,    184,    175, -1 
	   189,    180,    176, -1 
	   189,    176,    179, -1 
	   179,    178,    177, -1 
	   179,    177,    184, -1 
	   179,    184,    190, -1 
	   191,    189,    179, -1 
	   191,    179,    190, -1 
	   192,    182,    180, -1 
	   192,    180,    189, -1 
	   193,    185,    181, -1 
	   193,    181,    183, -1 
	   182,    192,    183, -1 
	   193,    183,    194, -1 
	   183,    192,    194, -1 
	   188,    195,    184, -1 
	   190,    184,    195, -1 
	   196,    186,    185, -1 
	   196,    185,    193, -1 
	   187,    186,    196, -1 
	   187,    197,    195, -1 
	   187,    195,    188, -1 
	   187,    196,    197, -1 
	   194,    192,    189, -1 
	   194,    189,    191, -1 
	   190,    195,    198, -1 
	   190,    198,    199, -1 
	   190,    199,    191, -1 
	   194,    191,    199, -1 
	   199,    196,    193, -1 
	   194,    199,    193, -1 
	   198,    195,    197, -1 
	   197,    196,    199, -1 
	   197,    199,    198, -1 
	   200,    201,    202, -1 
	   200,    202,    203, -1 
	   204,    201,    200, -1 
	   205,    200,    203, -1 
	   204,    200,    205, -1 
	   201,    206,    202, -1 
	   201,    207,    208, -1 
	   206,    201,    208, -1 
	   207,    201,    204, -1 
	   202,    206,    203, -1 
	   206,    209,    203, -1 
	   210,    203,    209, -1 
	   203,    210,    211, -1 
	   205,    203,    211, -1 
	   212,    207,    204, -1 
	   213,    204,    205, -1 
	   214,    212,    204, -1 
	   213,    214,    204, -1 
	   215,    213,    205, -1 
	   211,    215,    205, -1 
	   216,    209,    206, -1 
	   208,    216,    206, -1 
	   207,    217,    208, -1 
	   217,    207,    212, -1 
	   216,    208,    217, -1 
	   218,    210,    209, -1 
	   209,    219,    218, -1 
	   219,    209,    216, -1 
	   220,    210,    218, -1 
	   210,    220,    221, -1 
	   211,    210,    221, -1 
	   222,    215,    211, -1 
	   221,    222,    211, -1 
	   217,    212,    223, -1 
	   212,    214,    223, -1 
	   213,    224,    214, -1 
	   213,    215,    225, -1 
	   224,    213,    225, -1 
	   224,    226,    214, -1 
	   214,    226,    227, -1 
	   223,    214,    227, -1 
	   215,    222,    228, -1 
	   225,    215,    228, -1 
	   229,    216,    217, -1 
	   219,    216,    229, -1 
	   217,    223,    229, -1 
	   219,    230,    218, -1 
	   231,    220,    218, -1 
	   218,    230,    231, -1 
	   219,    232,    230, -1 
	   219,    233,    232, -1 
	   233,    219,    229, -1 
	   234,    220,    231, -1 
	   235,    221,    220, -1 
	   234,    235,    220, -1 
	   236,    222,    221, -1 
	   235,    236,    221, -1 
	   222,    236,    237, -1 
	   228,    222,    237, -1 
	   229,    223,    233, -1 
	   223,    227,    233, -1 
	   226,    224,    238, -1 
	   224,    225,    239, -1 
	   238,    224,    239, -1 
	   225,    228,    240, -1 
	   239,    225,    240, -1 
	   226,    238,    241, -1 
	   227,    226,    241, -1 
	   227,    241,    232, -1 
	   233,    227,    232, -1 
	   228,    237,    242, -1 
	   240,    228,    242, -1 
	   230,    243,    231, -1 
	   232,    244,    230, -1 
	   230,    244,    243, -1 
	   245,    234,    231, -1 
	   231,    243,    245, -1 
	   232,    241,    244, -1 
	   246,    234,    245, -1 
	   234,    246,    247, -1 
	   235,    234,    247, -1 
	   248,    236,    235, -1 
	   247,    248,    235, -1 
	   237,    236,    248, -1 
	   249,    237,    248, -1 
	   237,    250,    242, -1 
	   250,    237,    249, -1 
	   238,    239,    251, -1 
	   241,    238,    251, -1 
	   239,    240,    252, -1 
	   251,    239,    252, -1 
	   240,    242,    253, -1 
	   252,    240,    253, -1 
	   241,    251,    244, -1 
	   242,    250,    254, -1 
	   253,    242,    254, -1 
	   244,    255,    243, -1 
	   243,    256,    245, -1 
	   243,    255,    256, -1 
	   244,    251,    255, -1 
	   257,    246,    245, -1 
	   245,    256,    257, -1 
	   258,    246,    257, -1 
	   246,    258,    259, -1 
	   247,    246,    259, -1 
	   260,    248,    247, -1 
	   261,    260,    247, -1 
	   247,    259,    261, -1 
	   248,    262,    263, -1 
	   249,    248,    263, -1 
	   262,    248,    260, -1 
	   263,    250,    249, -1 
	   254,    250,    264, -1 
	   250,    263,    264, -1 
	   251,    252,    255, -1 
	   252,    253,    265, -1 
	   255,    252,    265, -1 
	   253,    254,    266, -1 
	   265,    253,    266, -1 
	   254,    264,    267, -1 
	   266,    254,    267, -1 
	   255,    265,    256, -1 
	   256,    268,    257, -1 
	   256,    265,    268, -1 
	   269,    258,    257, -1 
	   257,    268,    270, -1 
	   257,    270,    269, -1 
	   258,    269,    271, -1 
	   272,    258,    271, -1 
	   258,    272,    273, -1 
	   259,    258,    273, -1 
	   259,    273,    274, -1 
	   261,    259,    274, -1 
	   260,    275,    276, -1 
	   262,    260,    276, -1 
	   260,    261,    275, -1 
	   261,    274,    275, -1 
	   263,    262,    277, -1 
	   262,    276,    277, -1 
	   278,    264,    263, -1 
	   277,    278,    263, -1 
	   264,    278,    279, -1 
	   267,    264,    279, -1 
	   265,    266,    268, -1 
	   266,    267,    280, -1 
	   268,    266,    280, -1 
	   267,    279,    281, -1 
	   280,    267,    281, -1 
	   268,    280,    270, -1 
	   269,    282,    283, -1 
	   271,    269,    283, -1 
	   269,    270,    282, -1 
	   270,    284,    282, -1 
	   270,    280,    284, -1 
	   283,    272,    271, -1 
	   285,    272,    283, -1 
	   272,    285,    286, -1 
	   273,    272,    286, -1 
	   273,    286,    287, -1 
	   274,    273,    287, -1 
	   274,    287,    288, -1 
	   275,    274,    288, -1 
	   276,    275,    289, -1 
	   275,    288,    289, -1 
	   276,    289,    290, -1 
	   277,    276,    290, -1 
	   277,    290,    291, -1 
	   278,    277,    291, -1 
	   278,    291,    292, -1 
	   279,    278,    292, -1 
	   279,    292,    293, -1 
	   281,    279,    293, -1 
	   280,    281,    284, -1 
	   281,    293,    294, -1 
	   284,    281,    294, -1 
	   282,    285,    283, -1 
	   282,    284,    285, -1 
	   284,    294,    285, -1 
	   295,    285,    294, -1 
	   286,    285,    295, -1 
	   296,    286,    295, -1 
	   286,    296,    297, -1 
	   287,    286,    297, -1 
	   287,    297,    298, -1 
	   288,    287,    298, -1 
	   289,    288,    298, -1 
	   290,    289,    299, -1 
	   289,    298,    299, -1 
	   290,    299,    300, -1 
	   291,    290,    300, -1 
	   292,    291,    300, -1 
	   292,    301,    302, -1 
	   293,    292,    302, -1 
	   301,    292,    300, -1 
	   293,    302,    303, -1 
	   294,    293,    303, -1 
	   303,    295,    294, -1 
	   295,    303,    304, -1 
	   305,    296,    295, -1 
	   304,    305,    295, -1 
	   296,    305,    306, -1 
	   297,    296,    306, -1 
	   297,    306,    307, -1 
	   298,    297,    307, -1 
	   298,    307,    308, -1 
	   299,    298,    308, -1 
	   300,    299,    309, -1 
	   299,    308,    309, -1 
	   300,    309,    301, -1 
	   302,    301,    310, -1 
	   301,    311,    310, -1 
	   309,    311,    301, -1 
	   302,    310,    312, -1 
	   303,    302,    312, -1 
	   303,    312,    304, -1 
	   304,    312,    313, -1 
	   313,    314,    304, -1 
	   304,    314,    315, -1 
	   316,    305,    304, -1 
	   315,    316,    304, -1 
	   305,    316,    317, -1 
	   306,    305,    317, -1 
	   306,    317,    318, -1 
	   307,    306,    318, -1 
	   319,    308,    307, -1 
	   318,    319,    307, -1 
	   308,    319,    320, -1 
	   309,    308,    320, -1 
	   309,    320,    321, -1 
	   311,    309,    321, -1 
	   312,    310,    322, -1 
	   322,    310,    311, -1 
	   321,    322,    311, -1 
	   313,    312,    322, -1 
	   322,    314,    313, -1 
	   314,    323,    324, -1 
	   315,    314,    324, -1 
	   314,    322,    325, -1 
	   323,    314,    325, -1 
	   326,    316,    315, -1 
	   324,    326,    315, -1 
	   316,    326,    327, -1 
	   317,    316,    327, -1 
	   317,    327,    328, -1 
	   318,    317,    328, -1 
	   329,    319,    318, -1 
	   328,    329,    318, -1 
	   319,    329,    330, -1 
	   319,    330,    320, -1 
	   331,    321,    320, -1 
	   330,    331,    320, -1 
	   325,    322,    321, -1 
	   331,    325,    321, -1 
	   324,    323,    332, -1 
	   323,    333,    332, -1 
	   323,    325,    333, -1 
	   334,    326,    324, -1 
	   332,    334,    324, -1 
	   325,    335,    333, -1 
	   335,    325,    331, -1 
	   326,    334,    336, -1 
	   327,    326,    336, -1 
	   328,    327,    336, -1 
	   329,    328,    337, -1 
	   328,    336,    337, -1 
	   329,    338,    330, -1 
	   329,    337,    339, -1 
	   329,    339,    338, -1 
	   340,    331,    330, -1 
	   338,    340,    330, -1 
	   340,    335,    331, -1 
	   332,    333,    341, -1 
	   342,    334,    332, -1 
	   341,    342,    332, -1 
	   333,    335,    343, -1 
	   333,    344,    345, -1 
	   333,    345,    346, -1 
	   341,    333,    346, -1 
	   333,    343,    344, -1 
	   334,    342,    347, -1 
	   336,    334,    347, -1 
	   343,    335,    340, -1 
	   336,    347,    348, -1 
	   337,    336,    348, -1 
	   337,    348,    339, -1 
	   349,    340,    338, -1 
	   350,    349,    338, -1 
	   338,    339,    350, -1 
	   339,    351,    350, -1 
	   351,    339,    348, -1 
	   349,    343,    340, -1 
	   352,    342,    341, -1 
	   346,    352,    341, -1 
	   342,    352,    353, -1 
	   347,    342,    353, -1 
	   344,    343,    349, -1 
	   354,    345,    344, -1 
	   355,    344,    349, -1 
	   356,    354,    344, -1 
	   356,    344,    355, -1 
	   345,    354,    357, -1 
	   346,    345,    357, -1 
	   358,    352,    346, -1 
	   357,    358,    346, -1 
	   359,    348,    347, -1 
	   347,    353,    359, -1 
	   348,    359,    351, -1 
	   355,    349,    350, -1 
	   360,    355,    350, -1 
	   350,    351,    360, -1 
	   351,    361,    360, -1 
	   351,    359,    361, -1 
	   352,    358,    362, -1 
	   353,    352,    362, -1 
	   359,    353,    362, -1 
	   357,    354,    363, -1 
	   354,    364,    363, -1 
	   364,    354,    356, -1 
	   365,    355,    360, -1 
	   365,    356,    355, -1 
	   366,    364,    356, -1 
	   366,    356,    365, -1 
	   357,    363,    367, -1 
	   358,    357,    367, -1 
	   358,    367,    368, -1 
	   362,    358,    368, -1 
	   361,    359,    369, -1 
	   369,    359,    370, -1 
	   370,    359,    362, -1 
	   371,    365,    360, -1 
	   360,    361,    371, -1 
	   361,    372,    371, -1 
	   361,    369,    373, -1 
	   372,    361,    373, -1 
	   370,    362,    368, -1 
	   363,    374,    367, -1 
	   363,    364,    374, -1 
	   375,    374,    364, -1 
	   366,    375,    364, -1 
	   376,    366,    365, -1 
	   376,    365,    371, -1 
	   377,    375,    366, -1 
	   378,    377,    366, -1 
	   376,    378,    366, -1 
	   367,    379,    380, -1 
	   368,    367,    380, -1 
	   367,    374,    381, -1 
	   379,    367,    381, -1 
	   382,    370,    368, -1 
	   383,    382,    368, -1 
	   380,    383,    368, -1 
	   373,    369,    384, -1 
	   384,    369,    370, -1 
	   370,    382,    384, -1 
	   385,    376,    371, -1 
	   371,    372,    385, -1 
	   372,    386,    385, -1 
	   387,    386,    372, -1 
	   373,    387,    372, -1 
	   388,    387,    373, -1 
	   384,    388,    373, -1 
	   374,    375,    389, -1 
	   381,    374,    389, -1 
	   375,    377,    390, -1 
	   389,    375,    390, -1 
	   376,    385,    391, -1 
	   378,    376,    391, -1 
	   378,    390,    377, -1 
	   392,    378,    391, -1 
	   392,    390,    378, -1 
	   380,    379,    381, -1 
	   383,    380,    381, -1 
	   393,    383,    381, -1 
	   381,    389,    394, -1 
	   393,    381,    394, -1 
	   382,    388,    384, -1 
	   382,    383,    388, -1 
	   383,    395,    388, -1 
	   395,    383,    393, -1 
	   385,    386,    396, -1 
	   391,    385,    396, -1 
	   396,    386,    387, -1 
	   395,    397,    387, -1 
	   388,    395,    387, -1 
	   397,    396,    387, -1 
	   389,    390,    392, -1 
	   394,    389,    392, -1 
	   391,    396,    398, -1 
	   391,    398,    392, -1 
	   398,    394,    392, -1 
	   399,    395,    393, -1 
	   398,    399,    393, -1 
	   394,    398,    393, -1 
	   397,    395,    399, -1 
	   398,    396,    397, -1 
	   399,    398,    397, -1 
    ] 
   colorPerVertex FALSE 
    colorIndex [ 
	  1, 
	  1, 
	  1, 
	  1, 
	  1, 
	  1, 
	  1, 
	  1, 
	  1, 
	  1, 
	  1, 
	  1, 
	  1, 
	  1, 
	  1, 
	  1, 
	  1, 
	  1, 
	  1, 
	  1, 
	  1, 
	  1, 
	  1, 
	  1, 
	  1, 
	  1, 
	  1, 
	  1, 
	  1, 
	  1, 
	  1, 
	  1, 
	  1, 
	  1, 
	  1, 
	  1, 
	  1, 
	  1, 
	  1, 
	  1, 
	  1, 
	  1, 
	  1, 
	  1, 
	  1, 
	  1, 
	  1, 
	  1, 
	  1, 
	  1, 
	  1, 
	  1, 
	  1, 
	  1, 
	  1, 
	  1, 
	  1, 
	  1, 
	  1, 
	  1, 
	  1, 
	  1, 
	  1, 
	  1, 
	  1, 
	  1, 
	  1, 
	  1, 
	  1, 
	  1, 
	  1, 
	  1, 
	  1, 
	  1, 
	  1, 
	  1, 
	  1, 
	  1, 
	  1, 
	  1, 
	  1, 
	  1, 
	  1, 
	  1, 
	  1, 
	  1, 
	  1, 
	  1, 
	  1, 
	  1, 
	  1, 
	  1, 
	  1, 
	  1, 
	  1, 
	  1, 
	  1, 
	  1, 
	  1, 
	  1, 
	  1, 
	  1, 
	  1, 
	  1, 
	  1, 
	  1, 
	  1, 
	  1, 
	  1, 
	  1, 
	  1, 
	  1, 
	  1, 
	  1, 
	  1, 
	  1, 
	  1, 
	  1, 
	  1, 
	  1, 
	  1, 
	  1, 
	  1, 
	  1, 
	  1, 
	  1, 
	  1, 
	  1, 
	  1, 
	  1, 
	  1, 
	  1, 
	  1, 
	  1, 
	  1, 
	  1, 
	  1, 
	  1, 
	  1, 
	  1, 
	  1, 
	  1, 
	  1, 
	  1, 
	  1, 
	  1, 
	  1, 
	  1, 
	  1, 
	  1, 
	  1, 
	  1, 
	  1, 
	  1, 
	  1, 
	  1, 
	  1, 
	  1, 
	  1, 
	  1, 
	  1, 
	  1, 
	  1, 
	  1, 
	  1, 
	  1, 
	  1, 
	  1, 
	  1, 
	  1, 
	  1, 
	  1, 
	  1, 
	  1, 
	  1, 
	  1, 
	  1, 
	  1, 
	  1, 
	  1, 
	  1, 
	  1, 
	  1, 
	  1, 
	  1, 
	  1, 
	  1, 
	  1, 
	  1, 
	  1, 
	  1, 
	  1, 
	  1, 
	  1, 
	  1, 
	  1, 
	  1, 
	  1, 
	  1, 
	  1, 
	  1, 
	  1, 
	  1, 
	  1, 
	  1, 
	  1, 
	  1, 
	  1, 
	  1, 
	  1, 
	  1, 
	  1, 
	  1, 
	  1, 
	  1, 
	  1, 
	  1, 
	  1, 
	  1, 
	  1, 
	  1, 
	  1, 
	  1, 
	  1, 
	  1, 
	  1, 
	  1, 
	  1, 
	  1, 
	  1, 
	  1, 
	  1, 
	  1, 
	  1, 
	  1, 
	  1, 
	  1, 
	  1, 
	  1, 
	  1, 
	  1, 
	  1, 
	  1, 
	  1, 
	  1, 
	  1, 
	  1, 
	  1, 
	  1, 
	  1, 
	  1, 
	  1, 
	  1, 
	  1, 
	  1, 
	  1, 
	  1, 
	  1, 
	  1, 
	  1, 
	  1, 
	  1, 
	  1, 
	  1, 
	  1, 
	  1, 
	  1, 
	  1, 
	  1, 
	  1, 
	  1, 
	  1, 
	  1, 
	  1, 
	  1, 
	  1, 
	  1, 
	  1, 
	  1, 
	  1, 
	  1, 
	  1, 
	  1, 
	  1, 
	  1, 
	  1, 
	  1, 
	  1, 
	  1, 
	  1, 
	  1, 
	  1, 
	  1, 
	  1, 
	  1, 
	  1, 
	  1, 
	  1, 
	  1, 
	  1, 
	  1, 
	  1, 
	  1, 
	  1, 
	  1, 
	  1, 
	  1, 
	  1, 
	  1, 
	  1, 
	  1, 
	  1, 
	  1, 
	  1, 
	  1, 
	  1, 
	  1, 
	  1, 
	  1, 
	  1, 
	  1, 
	  1, 
	  1, 
	  1, 
	  1, 
	  1, 
	  1, 
	  1, 
	  1, 
	  1, 
	  1, 
	  1, 
	  1, 
	  1, 
	  1, 
	  1, 
	  1, 
	  1, 
	  1, 
	  1, 
	  1, 
	  1, 
	  1, 
	  1, 
	  1, 
	  1, 
	  1, 
	  1, 
	  1, 
	  1, 
	  1, 
	  1, 
	  1, 
	  1, 
	  1, 
	  1, 
	  1, 
	  1, 
	  1, 
	  1, 
	  1, 
	  1, 
	  1, 
	  1, 
	  1, 
	  1, 
	  1, 
	  1, 
	  1, 
	  1, 
	  1, 
	  1, 
	  1, 
	  1, 
	  1, 
	  1, 
	  1, 
	  1, 
	  1, 
	  1, 
	  1, 
	  1, 
	  1, 
	  1, 
	  1, 
	  1, 
	  1, 
	  1, 
	  1, 
	  1, 
	  1, 
	  1, 
	  1, 
	  1, 
	  1, 
	  1, 
	  1, 
	  1, 
	  1, 
	  1, 
    ] 
normal Normal { 
vector [ 
	  0.777717   0.543811  -0.315317,
	  0.900283   0.161953   0.404056,
	  0.870007  -0.319268  -0.375707,
	  0.719057   0.490245  -0.492562,
	  0.525325   0.847489  -0.076139,
	  0.327593   0.745027   0.581049,
	  0.413531  -0.321076   0.851999,
	  0.205369  -0.966552   0.153628,
	  0.485477  -0.796243  -0.360983,
	  0.510672   0.829122  -0.227534,
	  0.844953   0.387948  -0.368172,
	  0.737057  -0.531818  -0.417033,
	  0.156218   0.923052   0.351528,
	  0.090093   0.123201   0.988284,
	  0.170801  -0.810334   0.560524,
	 -0.027678  -0.992968  -0.115099,
	 -0.061201  -0.966384   0.249712,
	 -0.012395  -0.996670  -0.080591,
	  0.591495   0.789698  -0.162820,
	  0.146796   0.970873   0.189358,
	  0.978308  -0.099926  -0.181459,
	  0.457670  -0.882025  -0.112118,
	  0.041821  -0.998894  -0.021471,
	 -0.196226   0.606486   0.770500,
	 -0.287426  -0.476960   0.830599,
	 -0.234166  -0.954536  -0.184466,
	 -0.402001  -0.915593   0.009201,
	 -0.445064  -0.873130   0.198902,
	 -0.590691  -0.348428   0.727792,
	 -0.452705  -0.876205   0.165295,
	  0.254154   0.966074   0.045902,
	  0.631059   0.768674  -0.104425,
	 -0.470450   0.724332   0.504003,
	 -0.442722   0.482393   0.755840,
	  0.995377  -0.075284  -0.059643,
	  0.398498  -0.917129   0.008614,
	  0.101157  -0.993979   0.042115,
	 -0.248270  -0.948221   0.198090,
	 -0.776583  -0.617894  -0.122990,
	 -0.843199  -0.507158  -0.178341,
	 -0.878468  -0.477641   0.012354,
	 -0.947853  -0.105026   0.300906,
	 -0.921777  -0.336822   0.192036,
	  0.343926   0.938843   0.017015,
	 -0.515084   0.846784   0.132841,
	  0.732416   0.679898   0.036140,
	  0.961517  -0.117541   0.248331,
	  0.136081  -0.970726   0.197920,
	  0.056276  -0.995552   0.075566,
	  0.030129  -0.992312   0.120043,
	 -0.766967  -0.634033  -0.098813,
	 -0.973121   0.229599  -0.017875,
	 -0.972688   0.176221  -0.151077,
	 -0.967212   0.246067  -0.062869,
	 -0.911978   0.324963  -0.250389,
	 -0.532311   0.845108  -0.049379,
	  0.371959   0.927075   0.046678,
	  0.778317   0.599856   0.185460,
	  0.933237   0.078533   0.350574,
	  0.450929  -0.814499   0.365041,
	 -0.263070  -0.959973   0.096158,
	 -0.259785  -0.936368   0.236066,
	 -0.413904  -0.868410  -0.273034,
	 -0.077013  -0.996442   0.034231,
	 -0.802739   0.206594  -0.559401,
	 -0.533491   0.830535  -0.159996,
	 -0.418176   0.881057  -0.221060,
	 -0.328625   0.884330  -0.331611,
	  0.318866   0.946747  -0.044671,
	  0.804111   0.507325   0.309883,
	  0.764141   0.601121   0.233971,
	  0.852607   0.422461   0.307552,
	  0.928993  -0.051918   0.366437,
	  0.652696  -0.636484   0.410946,
	 -0.316742  -0.922775   0.219454,
	 -0.291933  -0.956291   0.016837,
	 -0.506372  -0.862082   0.020080,
	 -0.638289  -0.699712  -0.320920,
	 -0.802742   0.271718  -0.530824,
	 -0.267547   0.884627  -0.381908,
	  0.362859   0.931688  -0.017038,
	  0.413291   0.910599  -0.000054,
	  0.857644   0.445833   0.256280,
	  0.848510   0.439474   0.294776,
	  0.760294   0.620306   0.192802,
	  0.913026   0.224022   0.340878,
	  0.761720  -0.487702   0.426531,
	 -0.225591  -0.963971   0.140956,
	 -0.716679  -0.690246  -0.099652,
	 -0.722086  -0.603813  -0.337641,
	 -0.466805  -0.881153  -0.075248,
	 -0.806095   0.257460  -0.532847,
	 -0.256115   0.881507  -0.396675,
	  0.439577   0.896083  -0.061709,
	  0.762339   0.619881   0.185975,
	  0.927804   0.073434   0.365769,
	  0.698716  -0.592031   0.401616,
	 -0.098938  -0.980334   0.170753,
	 -0.676241  -0.727990  -0.112823,
	 -0.821519   0.322925  -0.469920,
	 -0.820314  -0.505615  -0.267280,
	  0.462858   0.886303  -0.015156,
	 -0.165347   0.955394  -0.244710,
	  0.754984   0.634090   0.167123,
	  0.954491   0.193681   0.226790,
	  0.755562  -0.577092   0.309985,
	 -0.110523  -0.982181   0.152001,
	 -0.695030  -0.718680  -0.020797,
	 -0.901117  -0.408808  -0.144444,
	 -0.866264   0.380348  -0.323916,
	  0.709657   0.685116   0.164325,
	  0.467549   0.882762   0.046149,
	 -0.058376   0.990283  -0.126218,
	  0.872475   0.479055   0.096404,
	  0.893889   0.427115   0.136143,
	  0.982136   0.087030   0.166834,
	  0.829936  -0.518458   0.205934,
	 -0.057870  -0.987215   0.148520,
	 -0.705754  -0.706924   0.046573,
	 -0.937046  -0.340776  -0.076263,
	 -0.895301   0.396990  -0.202077,
	 -0.208194   0.971934  -0.109542,
	  0.589988   0.803853   0.075728,
	  0.993511   0.024490   0.111066,
	  0.893858   0.432194   0.119273,
	  0.600442   0.792455   0.107168,
	  0.851157  -0.511446   0.118128,
	  0.161588  -0.975836   0.147083,
	 -0.621141  -0.780955   0.065515,
	 -0.942586  -0.332352   0.032761,
	 -0.908110   0.416759  -0.040601,
	 -0.197023   0.980291  -0.014507,
	  0.999748  -0.020027   0.010123,
	  0.820045  -0.571858   0.022456,
	  0.824366   0.565248  -0.030257,
	  0.520414   0.850964   0.070914,
	 -0.009045  -0.994252   0.106685,
	 -0.699225  -0.709640   0.086577,
	 -0.908871   0.391161   0.144731,
	 -0.951778  -0.256172   0.168805,
	 -0.225436   0.968724   0.103694,
	  0.998149  -0.001105  -0.060812,
	  0.831855  -0.553584  -0.039506,
	  0.107809  -0.992670   0.054624,
	  0.541607   0.826856  -0.151563,
	  0.692911   0.719784  -0.042259,
	  0.612700   0.786473  -0.077841,
	  0.982692   0.161223  -0.091229,
	 -0.673071  -0.724151   0.150268,
	 -0.186257   0.981908   0.034121,
	 -0.894086   0.329409   0.303480,
	 -0.922032  -0.278060   0.269333,
	  0.859202  -0.506866  -0.069708,
	  0.233778  -0.972269  -0.006382,
	 -0.657798  -0.747281   0.094199,
	  0.981368   0.116710  -0.152627,
	  0.816671   0.576975   0.012160,
	 -0.088250   0.937213   0.337408,
	  0.653050   0.748197   0.117157,
	  0.871378  -0.440199  -0.216620,
	 -0.847527   0.286322   0.446897,
	 -0.840629  -0.414574   0.348528,
	  0.181894  -0.975188  -0.126188,
	 -0.599870  -0.713630   0.361785,
	 -0.473175  -0.865372   0.165036,
	  0.941557   0.098680  -0.322076,
	  0.886452  -0.300159  -0.352287,
	  0.874740   0.481444  -0.055148,
	 -0.121136   0.913423   0.388568,
	  0.609410   0.762716   0.216526,
	  0.338156  -0.905134  -0.257649,
	 -0.784790   0.259778   0.562690,
	 -0.816812  -0.189792   0.544791,
	 -0.509132  -0.720021   0.471545,
	 -0.425687  -0.777940   0.462168,
	 -0.194558  -0.980807   0.012835,
	  0.900574   0.132213  -0.414110,
	  0.163666  -0.646386  -0.745251,
	  0.735284  -0.146512  -0.661733,
	  0.163439   0.026432  -0.986199,
	  0.823186   0.562073  -0.080238,
	 -0.314385   0.792136   0.523146,
	  0.610601   0.787264   0.085919,
	  0.022672   0.997458  -0.067558,
	 -0.107667  -0.719459  -0.686139,
	 -0.792868   0.287554   0.537283,
	 -0.857092  -0.028476   0.514377,
	 -0.741640  -0.574290   0.346642,
	 -0.361510  -0.930751   0.054888,
	  0.437269   0.444091  -0.782035,
	 -0.008143  -0.091019  -0.995816,
	 -0.107075   0.209351  -0.971961,
	  0.300955   0.781848  -0.546022,
	 -0.625820   0.765767  -0.148157,
	 -0.187448   0.524132  -0.830752,
	 -0.132807  -0.727985  -0.672607,
	 -0.960620   0.277416   0.015804,
	 -0.522504  -0.362037  -0.771958,
	  0.029334  -0.118144  -0.992563,
	 -0.116049   0.339473  -0.933430,
	  0.870007  -0.319268   0.375707,
	  0.900283   0.161953  -0.404056,
	  0.777717   0.543811   0.315317,
	  0.719057   0.490245   0.492562,
	  0.205369  -0.966552  -0.153628,
	  0.485477  -0.796243   0.360983,
	  0.525325   0.847489   0.076139,
	  0.413531  -0.321076  -0.851999,
	  0.327593   0.745027  -0.581049,
	  0.510672   0.829122   0.227534,
	  0.844953   0.387948   0.368172,
	  0.737057  -0.531818   0.417033,
	  0.170801  -0.810334  -0.560524,
	 -0.027678  -0.992968   0.115099,
	 -0.061201  -0.966384  -0.249712,
	 -0.012395  -0.996670   0.080591,
	  0.156218   0.923052  -0.351528,
	  0.090093   0.123201  -0.988284,
	  0.591495   0.789698   0.162820,
	  0.146796   0.970873  -0.189358,
	  0.978308  -0.099926   0.181459,
	  0.457670  -0.882025   0.112118,
	  0.041821  -0.998894   0.021471,
	 -0.287426  -0.476960  -0.830599,
	 -0.234166  -0.954536   0.184466,
	 -0.402001  -0.915593  -0.009201,
	 -0.445064  -0.873130  -0.198902,
	 -0.590691  -0.348428  -0.727792,
	 -0.452705  -0.876205  -0.165295,
	 -0.196226   0.606486  -0.770500,
	  0.254154   0.966074  -0.045902,
	  0.631059   0.768674   0.104425,
	 -0.470450   0.724332  -0.504003,
	 -0.442722   0.482393  -0.755840,
	  0.995377  -0.075284   0.059643,
	  0.398498  -0.917129  -0.008614,
	  0.101157  -0.993979  -0.042115,
	 -0.248270  -0.948221  -0.198090,
	 -0.776583  -0.617894   0.122990,
	 -0.843199  -0.507158   0.178341,
	 -0.878468  -0.477641  -0.012354,
	 -0.947853  -0.105026  -0.300906,
	 -0.921777  -0.336822  -0.192036,
	  0.343926   0.938843  -0.017015,
	 -0.515084   0.846784  -0.132841,
	  0.732416   0.679898  -0.036140,
	  0.961517  -0.117541  -0.248331,
	  0.136081  -0.970726  -0.197920,
	  0.056276  -0.995552  -0.075566,
	  0.030129  -0.992312  -0.120043,
	 -0.766967  -0.634033   0.098813,
	 -0.973121   0.229599   0.017875,
	 -0.972688   0.176221   0.151077,
	 -0.967212   0.246067   0.062869,
	 -0.911978   0.324963   0.250389,
	 -0.532311   0.845108   0.049379,
	  0.371959   0.927075  -0.046678,
	  0.778317   0.599856  -0.185460,
	  0.933237   0.078533  -0.350574,
	  0.450929  -0.814499  -0.365041,
	 -0.263070  -0.959973  -0.096158,
	 -0.259785  -0.936368  -0.236066,
	 -0.077013  -0.996442  -0.034231,
	 -0.413904  -0.868410   0.273034,
	 -0.802739   0.206594   0.559401,
	 -0.533491   0.830535   0.159996,
	 -0.418176   0.881057   0.221060,
	 -0.328625   0.884330   0.331611,
	  0.318866   0.946747   0.044671,
	  0.804111   0.507325  -0.309883,
	  0.764141   0.601121  -0.233971,
	  0.852607   0.422461  -0.307552,
	  0.928993  -0.051918  -0.366437,
	  0.652696  -0.636484  -0.410946,
	 -0.316742  -0.922775  -0.219454,
	 -0.506372  -0.862082  -0.020080,
	 -0.291933  -0.956291  -0.016837,
	 -0.638289  -0.699712   0.320920,
	 -0.802742   0.271718   0.530824,
	 -0.267547   0.884627   0.381908,
	  0.362859   0.931688   0.017038,
	  0.413291   0.910599   0.000054,
	  0.848510   0.439474  -0.294776,
	  0.857644   0.445833  -0.256280,
	  0.760294   0.620306  -0.192802,
	  0.913026   0.224022  -0.340878,
	  0.761720  -0.487702  -0.426531,
	 -0.225591  -0.963971  -0.140956,
	 -0.716679  -0.690246   0.099652,
	 -0.466805  -0.881153   0.075248,
	 -0.722086  -0.603813   0.337641,
	 -0.806095   0.257460   0.532847,
	 -0.256115   0.881507   0.396675,
	  0.439577   0.896083   0.061709,
	  0.762339   0.619881  -0.185975,
	  0.927804   0.073434  -0.365769,
	  0.698716  -0.592031  -0.401616,
	 -0.098938  -0.980334  -0.170753,
	 -0.676241  -0.727990   0.112823,
	 -0.820314  -0.505615   0.267280,
	 -0.821519   0.322925   0.469920,
	 -0.165347   0.955394   0.244710,
	  0.462858   0.886303   0.015156,
	  0.754984   0.634090  -0.167123,
	  0.954491   0.193681  -0.226790,
	  0.755562  -0.577092  -0.309985,
	 -0.110523  -0.982181  -0.152001,
	 -0.695030  -0.718680   0.020797,
	 -0.901117  -0.408808   0.144444,
	 -0.866264   0.380348   0.323916,
	  0.467549   0.882762  -0.046149,
	 -0.058376   0.990283   0.126218,
	  0.709657   0.685116  -0.164325,
	  0.872475   0.479055  -0.096404,
	  0.893889   0.427115  -0.136143,
	  0.982136   0.087030  -0.166834,
	  0.829936  -0.518458  -0.205934,
	 -0.057870  -0.987215  -0.148520,
	 -0.705754  -0.706924  -0.046573,
	 -0.937046  -0.340776   0.076263,
	 -0.895301   0.396990   0.202077,
	 -0.208194   0.971934   0.109542,
	  0.589988   0.803853  -0.075728,
	  0.893858   0.432194  -0.119273,
	  0.993511   0.024490  -0.111066,
	  0.600442   0.792455  -0.107168,
	  0.851157  -0.511446  -0.118128,
	  0.161588  -0.975836  -0.147083,
	 -0.621141  -0.780955  -0.065515,
	 -0.942586  -0.332352  -0.032761,
	 -0.908110   0.416759   0.040601,
	 -0.197023   0.980291   0.014507,
	  0.999748  -0.020027  -0.010123,
	  0.824366   0.565248   0.030257,
	  0.820045  -0.571858  -0.022456,
	  0.520414   0.850964  -0.070914,
	 -0.009045  -0.994252  -0.106685,
	 -0.699225  -0.709640  -0.086577,
	 -0.908871   0.391161  -0.144731,
	 -0.951778  -0.256172  -0.168805,
	 -0.225436   0.968724  -0.103694,
	  0.998149  -0.001105   0.060812,
	  0.831855  -0.553584   0.039506,
	  0.541607   0.826856   0.151563,
	  0.612700   0.786473   0.077841,
	  0.692911   0.719784   0.042259,
	  0.982692   0.161223   0.091229,
	  0.107809  -0.992670  -0.054624,
	 -0.673071  -0.724151  -0.150268,
	 -0.186257   0.981908  -0.034121,
	 -0.894086   0.329409  -0.303480,
	 -0.922032  -0.278060  -0.269333,
	  0.859202  -0.506866   0.069708,
	  0.233778  -0.972269   0.006382,
	  0.816671   0.576975  -0.012160,
	 -0.088250   0.937213  -0.337408,
	  0.653050   0.748197  -0.117157,
	  0.981368   0.116710   0.152627,
	  0.871378  -0.440199   0.216620,
	 -0.657798  -0.747281  -0.094199,
	 -0.847527   0.286322  -0.446897,
	 -0.840629  -0.414574  -0.348528,
	  0.181894  -0.975188   0.126188,
	  0.941557   0.098680   0.322076,
	  0.874740   0.481444   0.055148,
	 -0.121136   0.913423  -0.388568,
	  0.609410   0.762716  -0.216526,
	  0.886452  -0.300159   0.352287,
	  0.338156  -0.905134   0.257649,
	 -0.599870  -0.713630  -0.361785,
	 -0.473175  -0.865372  -0.165036,
	 -0.784790   0.259778  -0.562690,
	 -0.816812  -0.189792  -0.544791,
	 -0.509132  -0.720021  -0.471545,
	  0.900574   0.132213   0.414110,
	  0.823186   0.562073   0.080238,
	 -0.314385   0.792136  -0.523146,
	  0.610601   0.787264  -0.085919,
	  0.022672   0.997458   0.067558,
	  0.735284  -0.146512   0.661733,
	  0.163666  -0.646386   0.745251,
	  0.163439   0.026432   0.986199,
	 -0.194558  -0.980807  -0.012835,
	 -0.107667  -0.719459   0.686139,
	 -0.425687  -0.777940  -0.462168,
	 -0.792868   0.287554  -0.537283,
	 -0.857092  -0.028476  -0.514377,
	 -0.741640  -0.574290  -0.346642,
	 -0.361510  -0.930751  -0.054888,
	  0.437269   0.444091   0.782035,
	  0.300955   0.781848   0.546022,
	 -0.625820   0.765767   0.148157,
	 -0.187448   0.524132   0.830752,
	 -0.008143  -0.091019   0.995816,
	 -0.107075   0.209351   0.971961,
	 -0.132807  -0.727985   0.672607,
	 -0.960620   0.277416  -0.015804,
	 -0.522504  -0.362037   0.771958,
	 -0.116049   0.339473   0.933430,
	  0.029334  -0.118144   0.992563,
     ]    } 
normalIndex      [ 
	     0,      1,      2, -1 
	     3,      0,      2, -1 
	     3,      4,      0, -1 
	     0,      4,      1, -1 
	     5,      6,      1, -1 
	     5,      1,      4, -1 
	     7,      1,      6, -1 
	     2,      1,      7, -1 
	     3,      2,      8, -1 
	     8,      2,      7, -1 
	     3,      9,      4, -1 
	     9,      3,     10, -1 
	    11,     10,      3, -1 
	    11,      3,      8, -1 
	     4,      9,     12, -1 
	     4,     12,      5, -1 
	    13,      5,     12, -1 
	     5,     13,      6, -1 
	     7,      6,     14, -1 
	    14,      6,     13, -1 
	     8,      7,     15, -1 
	     7,     14,     16, -1 
	     7,     16,     15, -1 
	     8,     15,     17, -1 
	     8,     17,     11, -1 
	     9,     10,     18, -1 
	    18,     19,      9, -1 
	    12,      9,     19, -1 
	    18,     10,     20, -1 
	    21,     20,     10, -1 
	    21,     10,     11, -1 
	    11,     17,     22, -1 
	    11,     22,     21, -1 
	    13,     12,     23, -1 
	    23,     12,     19, -1 
	    24,     14,     13, -1 
	    23,     24,     13, -1 
	    24,     16,     14, -1 
	    16,     25,     15, -1 
	    26,     17,     15, -1 
	    26,     15,     25, -1 
	    16,     27,     25, -1 
	    28,     27,     16, -1 
	    28,     16,     24, -1 
	    29,     22,     17, -1 
	    29,     17,     26, -1 
	    18,     30,     19, -1 
	    18,     20,     31, -1 
	    31,     30,     18, -1 
	    30,     32,     19, -1 
	    32,     33,     19, -1 
	    23,     19,     33, -1 
	    31,     20,     34, -1 
	    20,     21,     35, -1 
	    20,     35,     34, -1 
	    21,     22,     36, -1 
	    21,     36,     35, -1 
	    37,     36,     22, -1 
	    37,     22,     29, -1 
	    33,     24,     23, -1 
	    33,     28,     24, -1 
	    38,     25,     27, -1 
	    39,     26,     25, -1 
	    39,     25,     38, -1 
	    40,     29,     26, -1 
	    40,     26,     39, -1 
	    41,     38,     27, -1 
	    41,     27,     28, -1 
	    32,     41,     28, -1 
	    32,     28,     33, -1 
	    42,     37,     29, -1 
	    42,     29,     40, -1 
	    31,     43,     30, -1 
	    30,     44,     32, -1 
	    43,     44,     30, -1 
	    31,     34,     45, -1 
	    45,     43,     31, -1 
	    44,     41,     32, -1 
	    45,     34,     46, -1 
	    47,     46,     34, -1 
	    47,     34,     35, -1 
	    35,     36,     48, -1 
	    35,     48,     47, -1 
	    48,     36,     37, -1 
	    48,     37,     49, -1 
	    42,     50,     37, -1 
	    49,     37,     50, -1 
	    51,     39,     38, -1 
	    51,     38,     41, -1 
	    52,     40,     39, -1 
	    52,     39,     51, -1 
	    53,     42,     40, -1 
	    53,     40,     52, -1 
	    44,     51,     41, -1 
	    54,     50,     42, -1 
	    54,     42,     53, -1 
	    43,     55,     44, -1 
	    45,     56,     43, -1 
	    56,     55,     43, -1 
	    55,     51,     44, -1 
	    45,     46,     57, -1 
	    57,     56,     45, -1 
	    57,     46,     58, -1 
	    59,     58,     46, -1 
	    59,     46,     47, -1 
	    47,     48,     60, -1 
	    47,     60,     61, -1 
	    61,     59,     47, -1 
	    62,     63,     48, -1 
	    62,     48,     49, -1 
	    60,     48,     63, -1 
	    49,     50,     62, -1 
	    64,     50,     54, -1 
	    64,     62,     50, -1 
	    55,     52,     51, -1 
	    65,     53,     52, -1 
	    65,     52,     55, -1 
	    66,     54,     53, -1 
	    66,     53,     65, -1 
	    67,     64,     54, -1 
	    67,     54,     66, -1 
	    56,     65,     55, -1 
	    57,     68,     56, -1 
	    68,     65,     56, -1 
	    57,     58,     69, -1 
	    70,     68,     57, -1 
	    69,     70,     57, -1 
	    71,     69,     58, -1 
	    71,     58,     72, -1 
	    73,     72,     58, -1 
	    73,     58,     59, -1 
	    74,     73,     59, -1 
	    74,     59,     61, -1 
	    75,     76,     60, -1 
	    75,     60,     63, -1 
	    76,     61,     60, -1 
	    76,     74,     61, -1 
	    77,     63,     62, -1 
	    62,     64,     78, -1 
	    62,     78,     77, -1 
	    77,     75,     63, -1 
	    79,     78,     64, -1 
	    79,     64,     67, -1 
	    68,     66,     65, -1 
	    80,     67,     66, -1 
	    80,     66,     68, -1 
	    81,     79,     67, -1 
	    81,     67,     80, -1 
	    70,     80,     68, -1 
	    82,     83,     69, -1 
	    82,     69,     71, -1 
	    83,     70,     69, -1 
	    83,     84,     70, -1 
	    84,     80,     70, -1 
	    71,     72,     82, -1 
	    82,     72,     85, -1 
	    86,     85,     72, -1 
	    86,     72,     73, -1 
	    87,     86,     73, -1 
	    87,     73,     74, -1 
	    88,     87,     74, -1 
	    88,     74,     76, -1 
	    89,     90,     75, -1 
	    89,     75,     77, -1 
	    90,     76,     75, -1 
	    90,     88,     76, -1 
	    91,     89,     77, -1 
	    91,     77,     78, -1 
	    92,     91,     78, -1 
	    92,     78,     79, -1 
	    93,     92,     79, -1 
	    93,     79,     81, -1 
	    84,     81,     80, -1 
	    94,     93,     81, -1 
	    94,     81,     84, -1 
	    82,     85,     83, -1 
	    85,     84,     83, -1 
	    85,     94,     84, -1 
	    94,     85,     95, -1 
	    95,     85,     86, -1 
	    95,     86,     96, -1 
	    97,     96,     86, -1 
	    97,     86,     87, -1 
	    98,     97,     87, -1 
	    98,     87,     88, -1 
	    98,     88,     90, -1 
	    99,    100,     89, -1 
	    99,     89,     91, -1 
	   100,     90,     89, -1 
	   100,     98,     90, -1 
	    99,     91,     92, -1 
	   101,    102,     92, -1 
	   101,     92,     93, -1 
	    99,     92,    102, -1 
	   103,    101,     93, -1 
	   103,     93,     94, -1 
	    94,     95,    103, -1 
	   104,    103,     95, -1 
	    95,     96,    105, -1 
	    95,    105,    104, -1 
	   106,    105,     96, -1 
	   106,     96,     97, -1 
	   107,    106,     97, -1 
	   107,     97,     98, -1 
	   108,    107,     98, -1 
	   108,     98,    100, -1 
	   102,    109,     99, -1 
	   109,    100,     99, -1 
	   109,    108,    100, -1 
	   110,    111,    101, -1 
	   110,    101,    103, -1 
	   111,    102,    101, -1 
	   111,    112,    102, -1 
	   102,    112,    109, -1 
	   104,    110,    103, -1 
	   113,    110,    104, -1 
	   104,    114,    113, -1 
	   115,    114,    104, -1 
	   104,    105,    116, -1 
	   104,    116,    115, -1 
	   117,    116,    105, -1 
	   117,    105,    106, -1 
	   118,    117,    106, -1 
	   118,    106,    107, -1 
	   107,    108,    119, -1 
	   107,    119,    118, -1 
	   120,    119,    108, -1 
	   120,    108,    109, -1 
	   121,    120,    109, -1 
	   121,    109,    112, -1 
	   122,    111,    110, -1 
	   122,    110,    113, -1 
	   112,    111,    122, -1 
	   112,    122,    121, -1 
	   113,    114,    122, -1 
	   123,    124,    114, -1 
	   123,    114,    115, -1 
	   125,    122,    114, -1 
	   125,    114,    124, -1 
	   115,    116,    126, -1 
	   115,    126,    123, -1 
	   127,    126,    116, -1 
	   127,    116,    117, -1 
	   128,    127,    117, -1 
	   128,    117,    118, -1 
	   118,    119,    129, -1 
	   118,    129,    128, -1 
	   130,    129,    119, -1 
	   120,    130,    119, -1 
	   120,    121,    131, -1 
	   120,    131,    130, -1 
	   121,    122,    125, -1 
	   121,    125,    131, -1 
	   132,    124,    123, -1 
	   123,    126,    133, -1 
	   123,    133,    132, -1 
	   132,    134,    124, -1 
	   134,    125,    124, -1 
	   134,    135,    125, -1 
	   131,    125,    135, -1 
	   136,    133,    126, -1 
	   136,    126,    127, -1 
	   136,    127,    128, -1 
	   137,    128,    129, -1 
	   137,    136,    128, -1 
	   130,    138,    129, -1 
	   139,    137,    129, -1 
	   138,    139,    129, -1 
	   130,    131,    140, -1 
	   130,    140,    138, -1 
	   131,    135,    140, -1 
	   141,    134,    132, -1 
	   132,    133,    142, -1 
	   132,    142,    141, -1 
	   143,    142,    133, -1 
	   143,    133,    136, -1 
	   144,    135,    134, -1 
	   145,    146,    134, -1 
	   147,    145,    134, -1 
	   147,    134,    141, -1 
	   146,    144,    134, -1 
	   140,    135,    144, -1 
	   148,    143,    136, -1 
	   148,    136,    137, -1 
	   139,    148,    137, -1 
	   138,    140,    149, -1 
	   138,    149,    150, -1 
	   150,    139,    138, -1 
	   150,    151,    139, -1 
	   148,    139,    151, -1 
	   140,    144,    149, -1 
	   141,    142,    152, -1 
	   141,    152,    147, -1 
	   153,    152,    142, -1 
	   153,    142,    143, -1 
	   143,    148,    154, -1 
	   154,    153,    143, -1 
	   149,    144,    146, -1 
	   155,    156,    145, -1 
	   155,    145,    147, -1 
	   146,    145,    156, -1 
	   149,    146,    157, -1 
	   146,    156,    158, -1 
	   157,    146,    158, -1 
	   147,    152,    159, -1 
	   147,    159,    155, -1 
	   151,    154,    148, -1 
	   150,    149,    157, -1 
	   150,    157,    160, -1 
	   160,    151,    150, -1 
	   160,    161,    151, -1 
	   161,    154,    151, -1 
	   162,    159,    152, -1 
	   162,    152,    153, -1 
	   162,    153,    154, -1 
	   163,    154,    161, -1 
	   164,    154,    163, -1 
	   162,    154,    164, -1 
	   165,    156,    155, -1 
	   166,    165,    155, -1 
	   166,    155,    159, -1 
	   165,    167,    156, -1 
	   158,    156,    167, -1 
	   160,    157,    168, -1 
	   157,    158,    168, -1 
	   158,    167,    169, -1 
	   168,    158,    169, -1 
	   170,    166,    159, -1 
	   170,    159,    162, -1 
	   160,    168,    171, -1 
	   171,    161,    160, -1 
	   171,    172,    161, -1 
	   173,    163,    161, -1 
	   173,    161,    172, -1 
	   170,    162,    164, -1 
	   174,    163,    173, -1 
	   164,    163,    174, -1 
	   174,    175,    164, -1 
	   170,    164,    175, -1 
	   166,    176,    165, -1 
	   176,    167,    165, -1 
	   177,    178,    166, -1 
	   177,    166,    170, -1 
	   179,    176,    166, -1 
	   179,    166,    178, -1 
	   167,    176,    180, -1 
	   167,    180,    169, -1 
	   168,    169,    181, -1 
	   171,    168,    181, -1 
	   169,    180,    182, -1 
	   169,    182,    183, -1 
	   169,    183,    181, -1 
	   170,    175,    184, -1 
	   170,    184,    177, -1 
	   171,    181,    185, -1 
	   185,    172,    171, -1 
	   185,    186,    172, -1 
	   172,    186,    187, -1 
	   172,    187,    173, -1 
	   173,    187,    188, -1 
	   173,    188,    174, -1 
	   174,    188,    175, -1 
	   188,    184,    175, -1 
	   189,    180,    176, -1 
	   189,    176,    179, -1 
	   179,    178,    177, -1 
	   179,    177,    184, -1 
	   179,    184,    190, -1 
	   191,    189,    179, -1 
	   191,    179,    190, -1 
	   192,    182,    180, -1 
	   192,    180,    189, -1 
	   193,    185,    181, -1 
	   193,    181,    183, -1 
	   182,    192,    183, -1 
	   193,    183,    194, -1 
	   183,    192,    194, -1 
	   188,    195,    184, -1 
	   190,    184,    195, -1 
	   196,    186,    185, -1 
	   196,    185,    193, -1 
	   187,    186,    196, -1 
	   187,    197,    195, -1 
	   187,    195,    188, -1 
	   187,    196,    197, -1 
	   194,    192,    189, -1 
	   194,    189,    191, -1 
	   190,    195,    198, -1 
	   190,    198,    199, -1 
	   190,    199,    191, -1 
	   194,    191,    199, -1 
	   199,    196,    193, -1 
	   194,    199,    193, -1 
	   198,    195,    197, -1 
	   197,    196,    199, -1 
	   197,    199,    198, -1 
	   200,    201,    202, -1 
	   200,    202,    203, -1 
	   204,    201,    200, -1 
	   205,    200,    203, -1 
	   204,    200,    205, -1 
	   201,    206,    202, -1 
	   201,    207,    208, -1 
	   206,    201,    208, -1 
	   207,    201,    204, -1 
	   202,    206,    203, -1 
	   206,    209,    203, -1 
	   210,    203,    209, -1 
	   203,    210,    211, -1 
	   205,    203,    211, -1 
	   212,    207,    204, -1 
	   213,    204,    205, -1 
	   214,    212,    204, -1 
	   213,    214,    204, -1 
	   215,    213,    205, -1 
	   211,    215,    205, -1 
	   216,    209,    206, -1 
	   208,    216,    206, -1 
	   207,    217,    208, -1 
	   217,    207,    212, -1 
	   216,    208,    217, -1 
	   218,    210,    209, -1 
	   209,    219,    218, -1 
	   219,    209,    216, -1 
	   220,    210,    218, -1 
	   210,    220,    221, -1 
	   211,    210,    221, -1 
	   222,    215,    211, -1 
	   221,    222,    211, -1 
	   217,    212,    223, -1 
	   212,    214,    223, -1 
	   213,    224,    214, -1 
	   213,    215,    225, -1 
	   224,    213,    225, -1 
	   224,    226,    214, -1 
	   214,    226,    227, -1 
	   223,    214,    227, -1 
	   215,    222,    228, -1 
	   225,    215,    228, -1 
	   229,    216,    217, -1 
	   219,    216,    229, -1 
	   217,    223,    229, -1 
	   219,    230,    218, -1 
	   231,    220,    218, -1 
	   218,    230,    231, -1 
	   219,    232,    230, -1 
	   219,    233,    232, -1 
	   233,    219,    229, -1 
	   234,    220,    231, -1 
	   235,    221,    220, -1 
	   234,    235,    220, -1 
	   236,    222,    221, -1 
	   235,    236,    221, -1 
	   222,    236,    237, -1 
	   228,    222,    237, -1 
	   229,    223,    233, -1 
	   223,    227,    233, -1 
	   226,    224,    238, -1 
	   224,    225,    239, -1 
	   238,    224,    239, -1 
	   225,    228,    240, -1 
	   239,    225,    240, -1 
	   226,    238,    241, -1 
	   227,    226,    241, -1 
	   227,    241,    232, -1 
	   233,    227,    232, -1 
	   228,    237,    242, -1 
	   240,    228,    242, -1 
	   230,    243,    231, -1 
	   232,    244,    230, -1 
	   230,    244,    243, -1 
	   245,    234,    231, -1 
	   231,    243,    245, -1 
	   232,    241,    244, -1 
	   246,    234,    245, -1 
	   234,    246,    247, -1 
	   235,    234,    247, -1 
	   248,    236,    235, -1 
	   247,    248,    235, -1 
	   237,    236,    248, -1 
	   249,    237,    248, -1 
	   237,    250,    242, -1 
	   250,    237,    249, -1 
	   238,    239,    251, -1 
	   241,    238,    251, -1 
	   239,    240,    252, -1 
	   251,    239,    252, -1 
	   240,    242,    253, -1 
	   252,    240,    253, -1 
	   241,    251,    244, -1 
	   242,    250,    254, -1 
	   253,    242,    254, -1 
	   244,    255,    243, -1 
	   243,    256,    245, -1 
	   243,    255,    256, -1 
	   244,    251,    255, -1 
	   257,    246,    245, -1 
	   245,    256,    257, -1 
	   258,    246,    257, -1 
	   246,    258,    259, -1 
	   247,    246,    259, -1 
	   260,    248,    247, -1 
	   261,    260,    247, -1 
	   247,    259,    261, -1 
	   248,    262,    263, -1 
	   249,    248,    263, -1 
	   262,    248,    260, -1 
	   263,    250,    249, -1 
	   254,    250,    264, -1 
	   250,    263,    264, -1 
	   251,    252,    255, -1 
	   252,    253,    265, -1 
	   255,    252,    265, -1 
	   253,    254,    266, -1 
	   265,    253,    266, -1 
	   254,    264,    267, -1 
	   266,    254,    267, -1 
	   255,    265,    256, -1 
	   256,    268,    257, -1 
	   256,    265,    268, -1 
	   269,    258,    257, -1 
	   257,    268,    270, -1 
	   257,    270,    269, -1 
	   258,    269,    271, -1 
	   272,    258,    271, -1 
	   258,    272,    273, -1 
	   259,    258,    273, -1 
	   259,    273,    274, -1 
	   261,    259,    274, -1 
	   260,    275,    276, -1 
	   262,    260,    276, -1 
	   260,    261,    275, -1 
	   261,    274,    275, -1 
	   263,    262,    277, -1 
	   262,    276,    277, -1 
	   278,    264,    263, -1 
	   277,    278,    263, -1 
	   264,    278,    279, -1 
	   267,    264,    279, -1 
	   265,    266,    268, -1 
	   266,    267,    280, -1 
	   268,    266,    280, -1 
	   267,    279,    281, -1 
	   280,    267,    281, -1 
	   268,    280,    270, -1 
	   269,    282,    283, -1 
	   271,    269,    283, -1 
	   269,    270,    282, -1 
	   270,    284,    282, -1 
	   270,    280,    284, -1 
	   283,    272,    271, -1 
	   285,    272,    283, -1 
	   272,    285,    286, -1 
	   273,    272,    286, -1 
	   273,    286,    287, -1 
	   274,    273,    287, -1 
	   274,    287,    288, -1 
	   275,    274,    288, -1 
	   276,    275,    289, -1 
	   275,    288,    289, -1 
	   276,    289,    290, -1 
	   277,    276,    290, -1 
	   277,    290,    291, -1 
	   278,    277,    291, -1 
	   278,    291,    292, -1 
	   279,    278,    292, -1 
	   279,    292,    293, -1 
	   281,    279,    293, -1 
	   280,    281,    284, -1 
	   281,    293,    294, -1 
	   284,    281,    294, -1 
	   282,    285,    283, -1 
	   282,    284,    285, -1 
	   284,    294,    285, -1 
	   295,    285,    294, -1 
	   286,    285,    295, -1 
	   296,    286,    295, -1 
	   286,    296,    297, -1 
	   287,    286,    297, -1 
	   287,    297,    298, -1 
	   288,    287,    298, -1 
	   289,    288,    298, -1 
	   290,    289,    299, -1 
	   289,    298,    299, -1 
	   290,    299,    300, -1 
	   291,    290,    300, -1 
	   292,    291,    300, -1 
	   292,    301,    302, -1 
	   293,    292,    302, -1 
	   301,    292,    300, -1 
	   293,    302,    303, -1 
	   294,    293,    303, -1 
	   303,    295,    294, -1 
	   295,    303,    304, -1 
	   305,    296,    295, -1 
	   304,    305,    295, -1 
	   296,    305,    306, -1 
	   297,    296,    306, -1 
	   297,    306,    307, -1 
	   298,    297,    307, -1 
	   298,    307,    308, -1 
	   299,    298,    308, -1 
	   300,    299,    309, -1 
	   299,    308,    309, -1 
	   300,    309,    301, -1 
	   302,    301,    310, -1 
	   301,    311,    310, -1 
	   309,    311,    301, -1 
	   302,    310,    312, -1 
	   303,    302,    312, -1 
	   303,    312,    304, -1 
	   304,    312,    313, -1 
	   313,    314,    304, -1 
	   304,    314,    315, -1 
	   316,    305,    304, -1 
	   315,    316,    304, -1 
	   305,    316,    317, -1 
	   306,    305,    317, -1 
	   306,    317,    318, -1 
	   307,    306,    318, -1 
	   319,    308,    307, -1 
	   318,    319,    307, -1 
	   308,    319,    320, -1 
	   309,    308,    320, -1 
	   309,    320,    321, -1 
	   311,    309,    321, -1 
	   312,    310,    322, -1 
	   322,    310,    311, -1 
	   321,    322,    311, -1 
	   313,    312,    322, -1 
	   322,    314,    313, -1 
	   314,    323,    324, -1 
	   315,    314,    324, -1 
	   314,    322,    325, -1 
	   323,    314,    325, -1 
	   326,    316,    315, -1 
	   324,    326,    315, -1 
	   316,    326,    327, -1 
	   317,    316,    327, -1 
	   317,    327,    328, -1 
	   318,    317,    328, -1 
	   329,    319,    318, -1 
	   328,    329,    318, -1 
	   319,    329,    330, -1 
	   319,    330,    320, -1 
	   331,    321,    320, -1 
	   330,    331,    320, -1 
	   325,    322,    321, -1 
	   331,    325,    321, -1 
	   324,    323,    332, -1 
	   323,    333,    332, -1 
	   323,    325,    333, -1 
	   334,    326,    324, -1 
	   332,    334,    324, -1 
	   325,    335,    333, -1 
	   335,    325,    331, -1 
	   326,    334,    336, -1 
	   327,    326,    336, -1 
	   328,    327,    336, -1 
	   329,    328,    337, -1 
	   328,    336,    337, -1 
	   329,    338,    330, -1 
	   329,    337,    339, -1 
	   329,    339,    338, -1 
	   340,    331,    330, -1 
	   338,    340,    330, -1 
	   340,    335,    331, -1 
	   332,    333,    341, -1 
	   342,    334,    332, -1 
	   341,    342,    332, -1 
	   333,    335,    343, -1 
	   333,    344,    345, -1 
	   333,    345,    346, -1 
	   341,    333,    346, -1 
	   333,    343,    344, -1 
	   334,    342,    347, -1 
	   336,    334,    347, -1 
	   343,    335,    340, -1 
	   336,    347,    348, -1 
	   337,    336,    348, -1 
	   337,    348,    339, -1 
	   349,    340,    338, -1 
	   350,    349,    338, -1 
	   338,    339,    350, -1 
	   339,    351,    350, -1 
	   351,    339,    348, -1 
	   349,    343,    340, -1 
	   352,    342,    341, -1 
	   346,    352,    341, -1 
	   342,    352,    353, -1 
	   347,    342,    353, -1 
	   344,    343,    349, -1 
	   354,    345,    344, -1 
	   355,    344,    349, -1 
	   356,    354,    344, -1 
	   356,    344,    355, -1 
	   345,    354,    357, -1 
	   346,    345,    357, -1 
	   358,    352,    346, -1 
	   357,    358,    346, -1 
	   359,    348,    347, -1 
	   347,    353,    359, -1 
	   348,    359,    351, -1 
	   355,    349,    350, -1 
	   360,    355,    350, -1 
	   350,    351,    360, -1 
	   351,    361,    360, -1 
	   351,    359,    361, -1 
	   352,    358,    362, -1 
	   353,    352,    362, -1 
	   359,    353,    362, -1 
	   357,    354,    363, -1 
	   354,    364,    363, -1 
	   364,    354,    356, -1 
	   365,    355,    360, -1 
	   365,    356,    355, -1 
	   366,    364,    356, -1 
	   366,    356,    365, -1 
	   357,    363,    367, -1 
	   358,    357,    367, -1 
	   358,    367,    368, -1 
	   362,    358,    368, -1 
	   361,    359,    369, -1 
	   369,    359,    370, -1 
	   370,    359,    362, -1 
	   371,    365,    360, -1 
	   360,    361,    371, -1 
	   361,    372,    371, -1 
	   361,    369,    373, -1 
	   372,    361,    373, -1 
	   370,    362,    368, -1 
	   363,    374,    367, -1 
	   363,    364,    374, -1 
	   375,    374,    364, -1 
	   366,    375,    364, -1 
	   376,    366,    365, -1 
	   376,    365,    371, -1 
	   377,    375,    366, -1 
	   378,    377,    366, -1 
	   376,    378,    366, -1 
	   367,    379,    380, -1 
	   368,    367,    380, -1 
	   367,    374,    381, -1 
	   379,    367,    381, -1 
	   382,    370,    368, -1 
	   383,    382,    368, -1 
	   380,    383,    368, -1 
	   373,    369,    384, -1 
	   384,    369,    370, -1 
	   370,    382,    384, -1 
	   385,    376,    371, -1 
	   371,    372,    385, -1 
	   372,    386,    385, -1 
	   387,    386,    372, -1 
	   373,    387,    372, -1 
	   388,    387,    373, -1 
	   384,    388,    373, -1 
	   374,    375,    389, -1 
	   381,    374,    389, -1 
	   375,    377,    390, -1 
	   389,    375,    390, -1 
	   376,    385,    391, -1 
	   378,    376,    391, -1 
	   378,    390,    377, -1 
	   392,    378,    391, -1 
	   392,    390,    378, -1 
	   380,    379,    381, -1 
	   383,    380,    381, -1 
	   393,    383,    381, -1 
	   381,    389,    394, -1 
	   393,    381,    394, -1 
	   382,    388,    384, -1 
	   382,    383,    388, -1 
	   383,    395,    388, -1 
	   395,    383,    393, -1 
	   385,    386,    396, -1 
	   391,    385,    396, -1 
	   396,    386,    387, -1 
	   395,    397,    387, -1 
	   388,    395,    387, -1 
	   397,    396,    387, -1 
	   389,    390,    392, -1 
	   394,    389,    392, -1 
	   391,    396,    398, -1 
	   391,    398,    392, -1 
	   398,    394,    392, -1 
	   399,    395,    393, -1 
	   398,    399,    393, -1 
	   394,    398,    393, -1 
	   397,    395,    399, -1 
	   398,    396,    397, -1 
	   399,    398,    397, -1 
    ] 
normalPerVertex  TRUE 
   } 
  } 
 ] 
} 
