# 
# Wavefront OBJ file
# Converted by the DEEP Exploration 2.00.1211
# Right Hemisphere, LTD
# http://www.righthemisphere.com/
# 
mtllib clavicle_l.mtl
# object Object #0
g Object__0
v 0.013177 -0.003421 -0.142213
v 0.014354 -0.001304 -0.151552
v 0.012005 0.001057 -0.142899
v 0.008352 -0.000423 -0.13673
v 0.009209 -0.004562 -0.147163
v 0.00778 -0.002817 -0.135204
v 0.009233 0.004029 -0.145347
v 0.008277 -0.000199 -0.154697
v 0.003909 0.004588 -0.153861
v 0.00413 0.005397 -0.139903
v 0.005793 -0.00084 -0.132491
v 0.00494 -0.002448 -0.129061
v 0.004768 -0.003725 -0.15234
v 0.002965 -0.004014 -0.136689
v 0.000562 -0.004742 -0.150137
v -8.4e-005 -0.003104 -0.130803
v 0.000651 0.00668 -0.150716
v 0.003142 0.000946 -0.156703
v 0.000652 0.005819 -0.133384
v -0.004098 0.00877 -0.144035
v 0.004629 -0.000755 -0.126186
v 0.002272 -0.001704 -0.122603
v -0.00235 -0.002542 -0.122836
v -0.001509 -0.002072 -0.155146
v -0.00464 -0.002889 -0.138772
v -0.006768 -0.001938 -0.132356
v -0.009658 -0.004669 -0.148314
v -0.011072 -0.002723 -0.149375
v -0.009724 -0.001959 -0.124041
v -0.001752 0.003987 -0.155241
v -0.007335 0.0102 -0.136273
v -0.002385 0.006726 -0.12689
v -0.01325 0.008371 -0.145115
v -0.009109 0.006324 -0.149874
v 0.003712 -0.000562 -0.120826
v 0.002354 -0.001733 -0.118266
v -0.003048 -0.002887 -0.117207
v -0.012728 -0.002616 -0.114803
v -0.015419 -0.000815 -0.141184
v -0.016743 0.00441 -0.132836
v -0.014416 0.004285 -0.12622
v -0.016526 0.00187 -0.143481
v -0.014711 2.2e-005 -0.11517
v -0.007165 0.010138 -0.127293
v -0.015023 0.010037 -0.136839
v -0.002943 0.006097 -0.118804
v 0.003985 -0.001783 -0.114382
v 0.002005 -0.002242 -0.113905
v -0.003746 -0.003241 -0.110956
v -0.009085 -0.003762 -0.109273
v -0.015181 -0.003952 -0.107806
v -0.016347 0.007972 -0.135238
v -0.015327 0.007321 -0.126668
v -0.014852 0.00581 -0.1156
v -0.015254 0.00401 -0.107869
v -0.014321 0.010184 -0.128217
v -0.007056 0.010987 -0.11922
v -0.000979 0.006131 -0.111833
v 0.005348 -0.002596 -0.107397
v 0.005104 -0.004248 -0.105877
v -0.000533 -0.003969 -0.102886
v 0.002711 -0.005176 -0.104757
v -0.003559 -0.003308 -0.10105
v -0.007852 -0.004069 -0.097916
v -0.00921 0.002478 -0.097593
v -0.012283 0.010193 -0.116615
v -0.011074 0.009014 -0.109311
v -0.006034 0.007706 -0.09833
v -0.004796 0.009567 -0.11016
v 0.003904 0.001129 -0.104982
v 0.003039 0.004157 -0.103567
v 0.006428 -0.001295 -0.10435
v 0.008402 -0.003688 -0.099324
v 0.007646 -0.006454 -0.098722
v 0.004543 -0.007955 -0.09757
v 0.002077 -0.005553 -0.095106
v -0.001787 -0.004289 -0.092557
v -0.004428 -0.003788 -0.090455
v -0.005004 0.00153 -0.090861
v -0.001578 0.006855 -0.092545
v -0.000116 0.007522 -0.100403
v 0.002363 0.006237 -0.094141
v 0.007624 -0.000925 -0.098242
v 0.008043 -0.001994 -0.098617
v 0.006172 0.002794 -0.096449
v 0.011821 -0.004966 -0.091288
v 0.011835 -0.006515 -0.090093
v 0.007398 -0.011613 -0.088009
v 0.005556 -0.007716 -0.087104
v 0.002643 -0.005778 -0.085239
v -6.3e-005 -0.004373 -0.083725
v -0.000638 0.000945 -0.08412
v 0.002401 0.004904 -0.086129
v 0.005593 0.004605 -0.08765
v 0.009035 0.001333 -0.089603
v 0.015741 -0.006671 -0.082382
v 0.015538 -0.009219 -0.081516
v 0.011621 -0.012568 -0.080351
v 0.008132 -0.008398 -0.078048
v 0.004057 -0.005065 -0.076038
v 0.003858 -0.001455 -0.075603
v 0.006897 0.002504 -0.0776
v 0.009021 0.001796 -0.079053
v 0.013094 -0.001545 -0.081369
v 0.01919 -0.007944 -0.073117
v 0.019041 -0.011399 -0.071661
v 0.014262 -0.014154 -0.070707
v 0.010698 -0.010612 -0.069662
v 0.006991 -0.007441 -0.067689
v 0.007192 -0.00246 -0.066929
v 0.013296 -7.4e-005 -0.071111
v 0.009971 0.001395 -0.068602
v 0.016906 -0.002977 -0.072445
v 0.018998 -0.004111 -0.066779
v 0.019627 -0.005481 -0.061603
v 0.021264 -0.010381 -0.062204
v 0.021612 -0.012735 -0.060135
v 0.016189 -0.015425 -0.059745
v 0.013151 -0.013207 -0.0588
v 0.009023 -0.008975 -0.056757
v 0.009574 -0.004149 -0.05696
v 0.013749 0.0002 -0.055944
v 0.017115 -0.001284 -0.056285
v 0.021917 -0.005359 -0.051253
v 0.023575 -0.010276 -0.050928
v 0.018781 -0.001346 -0.050548
v 0.02292 -0.013294 -0.050355
v 0.017802 -0.016778 -0.050627
v 0.012947 -0.014649 -0.049526
v 0.010228 -0.010815 -0.046373
v 0.010617 -0.004809 -0.047148
v 0.015427 0.000133 -0.049587
v 0.024037 -0.010246 -0.040433
v 0.022768 -0.004619 -0.037669
v 0.022171 -0.01494 -0.041344
v 0.018319 -0.000458 -0.038383
v 0.018373 -0.017902 -0.04296
v 0.013047 -0.014685 -0.044262
v 0.01031 -0.004444 -0.037503
v 0.009445 -0.011552 -0.036721
v 0.01532 0.000856 -0.038397
v 0.023584 -0.008043 -0.033806
v 0.022312 -0.01499 -0.033912
v 0.018165 5.7e-005 -0.035253
v 0.016531 -0.001867 -0.03052
v 0.020538 -0.003173 -0.025332
v 0.022943 -0.006872 -0.025035
v 0.017556 -0.018634 -0.03455
v 0.011708 -0.01563 -0.034873
v 0.014018 0.001208 -0.033305
v 0.00836 -0.004672 -0.03021
v 0.007473 -0.010899 -0.027227
v 0.021838 -0.014979 -0.025191
v 0.016559 -0.018843 -0.025168
v 0.019356 -0.002201 -0.017141
v 0.012515 0.002092 -0.027567
v 0.015485 0.002791 -0.018198
v 0.022239 -0.007871 -0.016948
v 0.020973 -0.014821 -0.016736
v 0.009931 -0.016154 -0.024187
v 0.005943 -0.003831 -0.0247
v 0.004636 -0.008988 -0.021328
v 0.016098 -0.018844 -0.015203
v 0.0211 -0.007803 -0.008777
v 0.01908 -0.001192 -0.009334
v 0.010476 0.005209 -0.01954
v 0.015149 0.003175 -0.01071
v 0.018463 -0.012429 -0.008072
v 0.015493 -0.016756 -0.008976
v 0.006656 -0.011398 -0.013829
v 0.008127 -0.015788 -0.011311
v 0.002125 -0.001704 -0.016853
v 1.4e-005 -0.007169 -0.013434
v 0.001528 -0.010919 -0.012133
v 0.019032 -0.003399 -0.006918
v 0.016532 0.003125 -0.005992
v 0.006144 0.007775 -0.013808
v 0.012959 0.007348 -0.007287
v 0.005803 0.01043 -0.008424
v 0.016621 -0.009278 0.002928
v 0.015549 -0.012965 0.001306
v 0.015622 -0.003259 0.001777
v 0.007599 -0.016602 -0.006693
v 0.010527 -0.015032 -0.001968
v 0.004146 -0.014258 -0.009365
v -0.001672 0.001062 -0.010857
v -0.005306 -0.004381 -0.006826
v -0.005276 -0.011269 -0.003974
v 0.00126 -0.014901 -0.004902
v 0.015918 0.002027 0.000307
v 0.01197 0.006315 -0.00204
v -0.002405 0.004459 -0.005983
v 0.006653 0.004466 -0.002324
v 0.009287 -0.006273 7e-006
v 0.008497 -0.000863 -0.000421
v 0.001539 -0.013904 -0.001127
v -0.007722 -0.002687 -0.001454
v -0.007436 -0.010484 3.9e-005
v 2.2e-005 -2.2e-005 6.5e-005
v 0.000734 -0.008267 0.000955
# 200 verticies
vn 0.870007 -0.319268 0.375707
vn 0.900283 0.161953 -0.404056
vn 0.777717 0.543811 0.315317
vn 0.719057 0.490245 0.492562
vn 0.205369 -0.966552 -0.153628
vn 0.485477 -0.796243 0.360983
vn 0.525325 0.847489 0.076139
vn 0.413531 -0.321076 -0.851999
vn 0.327593 0.745027 -0.581049
vn 0.510672 0.829122 0.227534
vn 0.844953 0.387948 0.368172
vn 0.737057 -0.531818 0.417033
vn 0.170801 -0.810334 -0.560524
vn -0.027678 -0.992968 0.115099
vn -0.061201 -0.966384 -0.249712
vn -0.012395 -0.99667 0.080591
vn 0.156218 0.923052 -0.351528
vn 0.090093 0.123201 -0.988284
vn 0.591495 0.789698 0.16282
vn 0.146796 0.970873 -0.189358
vn 0.978308 -0.099926 0.181459
vn 0.45767 -0.882025 0.112118
vn 0.041821 -0.998894 0.021471
vn -0.287426 -0.47696 -0.830599
vn -0.234166 -0.954536 0.184466
vn -0.402001 -0.915593 -0.009201
vn -0.445064 -0.87313 -0.198902
vn -0.590691 -0.348428 -0.727792
vn -0.452705 -0.876205 -0.165295
vn -0.196226 0.606486 -0.7705
vn 0.254154 0.966074 -0.045902
vn 0.631059 0.768674 0.104425
vn -0.47045 0.724332 -0.504003
vn -0.442722 0.482393 -0.75584
vn 0.995377 -0.075284 0.059643
vn 0.398498 -0.917129 -0.008614
vn 0.101157 -0.993979 -0.042115
vn -0.24827 -0.948221 -0.19809
vn -0.776583 -0.617894 0.12299
vn -0.843199 -0.507158 0.178341
vn -0.878468 -0.477641 -0.012354
vn -0.947853 -0.105026 -0.300906
vn -0.921777 -0.336822 -0.192036
vn 0.343926 0.938843 -0.017015
vn -0.515084 0.846783 -0.132841
vn 0.732416 0.679898 -0.03614
vn 0.961517 -0.117541 -0.248331
vn 0.136081 -0.970726 -0.19792
vn 0.056276 -0.995552 -0.075566
vn 0.030129 -0.992311 -0.120043
vn -0.766967 -0.634033 0.098813
vn -0.973121 0.229599 0.017875
vn -0.972688 0.176221 0.151077
vn -0.967212 0.246067 0.062869
vn -0.911978 0.324963 0.250389
vn -0.532311 0.845108 0.049379
vn 0.371959 0.927075 -0.046678
vn 0.778317 0.599856 -0.18546
vn 0.933237 0.078533 -0.350574
vn 0.450929 -0.814499 -0.365041
vn -0.26307 -0.959973 -0.096158
vn -0.259785 -0.936368 -0.236066
vn -0.077013 -0.996442 -0.034231
vn -0.413904 -0.86841 0.273034
vn -0.802739 0.206594 0.559401
vn -0.533491 0.830535 0.159996
vn -0.418176 0.881057 0.22106
vn -0.328625 0.88433 0.331611
vn 0.318866 0.946747 0.044671
vn 0.804111 0.507325 -0.309883
vn 0.764141 0.601121 -0.233971
vn 0.852607 0.422461 -0.307552
vn 0.928993 -0.051918 -0.366437
vn 0.652696 -0.636484 -0.410946
vn -0.316742 -0.922775 -0.219454
vn -0.506372 -0.862081 -0.02008
vn -0.291933 -0.956291 -0.016837
vn -0.638289 -0.699712 0.32092
vn -0.802742 0.271718 0.530824
vn -0.267547 0.884627 0.381908
vn 0.362859 0.931688 0.017038
vn 0.413291 0.910599 5.4e-005
vn 0.84851 0.439474 -0.294776
vn 0.857644 0.445833 -0.25628
vn 0.760294 0.620306 -0.192802
vn 0.913026 0.224022 -0.340878
vn 0.76172 -0.487702 -0.426531
vn -0.225591 -0.963971 -0.140956
vn -0.716679 -0.690246 0.0996521
vn -0.466805 -0.881153 0.075248
vn -0.722086 -0.603813 0.337641
vn -0.806095 0.25746 0.532847
vn -0.256115 0.881507 0.396675
vn 0.439577 0.896083 0.061709
vn 0.762339 0.619881 -0.185975
vn 0.927804 0.073434 -0.365769
vn 0.698716 -0.592031 -0.401616
vn -0.098938 -0.980334 -0.170753
vn -0.676241 -0.72799 0.112823
vn -0.820314 -0.505615 0.26728
vn -0.821519 0.322925 0.46992
vn -0.165347 0.955394 0.24471
vn 0.462858 0.886303 0.015156
vn 0.754984 0.63409 -0.167123
vn 0.954491 0.193681 -0.22679
vn 0.755562 -0.577092 -0.309985
vn -0.110523 -0.982181 -0.152001
vn -0.69503 -0.71868 0.020797
vn -0.901117 -0.408808 0.144444
vn -0.866264 0.380348 0.323916
vn 0.467549 0.882762 -0.046149
vn -0.058376 0.990283 0.126218
vn 0.709657 0.685116 -0.164325
vn 0.872475 0.479055 -0.096404
vn 0.893889 0.427115 -0.136143
vn 0.982137 0.08703 -0.166834
vn 0.829936 -0.518458 -0.205934
vn -0.05787 -0.987215 -0.14852
vn -0.705754 -0.706924 -0.046573
vn -0.937046 -0.340776 0.076263
vn -0.895301 0.39699 0.202077
vn -0.208194 0.971934 0.109542
vn 0.589988 0.803853 -0.075728
vn 0.893858 0.432194 -0.119273
vn 0.993511 0.02449 -0.111066
vn 0.600442 0.792455 -0.107168
vn 0.851157 -0.511446 -0.118128
vn 0.161588 -0.975836 -0.147083
vn -0.621141 -0.780955 -0.065515
vn -0.942586 -0.332352 -0.032761
vn -0.90811 0.416759 0.040601
vn -0.197023 0.980292 0.014507
vn 0.999748 -0.020027 -0.010123
vn 0.824366 0.565248 0.030257
vn 0.820045 -0.571858 -0.022456
vn 0.520414 0.850964 -0.070914
vn -0.009045 -0.994252 -0.106685
vn -0.699225 -0.70964 -0.086577
vn -0.908871 0.391161 -0.144731
vn -0.951778 -0.256172 -0.168805
vn -0.225436 0.968724 -0.103694
vn 0.998149 -0.001105 0.060812
vn 0.831856 -0.553584 0.039506
vn 0.541607 0.826856 0.151563
vn 0.6127 0.786473 0.077841
vn 0.692911 0.719784 0.042259
vn 0.982692 0.161223 0.091229
vn 0.107809 -0.99267 -0.054624
vn -0.673071 -0.724151 -0.150268
vn -0.186257 0.981908 -0.034121
vn -0.894086 0.329409 -0.30348
vn -0.922032 -0.27806 -0.269333
vn 0.859202 -0.506866 0.069708
vn 0.233778 -0.972269 0.006382
vn 0.816671 0.576975 -0.01216
vn -0.08825 0.937213 -0.337408
vn 0.65305 0.748197 -0.117157
vn 0.981368 0.11671 0.152627
vn 0.871378 -0.440199 0.21662
vn -0.657798 -0.747281 -0.094199
vn -0.847527 0.286322 -0.446897
vn -0.840629 -0.414574 -0.348528
vn 0.181894 -0.975188 0.126188
vn 0.941557 0.09868 0.322076
vn 0.87474 0.481444 0.055148
vn -0.121136 0.913423 -0.388568
vn 0.60941 0.762716 -0.216526
vn 0.886453 -0.300159 0.352287
vn 0.338156 -0.905134 0.257649
vn -0.59987 -0.71363 -0.361785
vn -0.473175 -0.865372 -0.165036
vn -0.78479 0.259778 -0.56269
vn -0.816812 -0.189792 -0.544791
vn -0.509132 -0.720021 -0.471545
vn 0.900574 0.132213 0.41411
vn 0.823186 0.562073 0.080238
vn -0.314385 0.792136 -0.523146
vn 0.610601 0.787264 -0.085919
vn 0.022672 0.997458 0.067558
vn 0.735284 -0.146512 0.661733
vn 0.163666 -0.646386 0.745251
vn 0.163439 0.026432 0.986199
vn -0.194558 -0.980807 -0.012835
vn -0.107667 -0.719459 0.686139
vn -0.425687 -0.77794 -0.462168
vn -0.792868 0.287554 -0.537283
vn -0.857091 -0.028476 -0.514377
vn -0.74164 -0.57429 -0.346642
vn -0.36151 -0.930751 -0.054888
vn 0.437269 0.444091 0.782035
vn 0.300955 0.781848 0.546022
vn -0.62582 0.765767 0.148157
vn -0.187448 0.524132 0.830752
vn -0.008143 -0.091019 0.995816
vn -0.107075 0.209351 0.971961
vn -0.132807 -0.727985 0.672607
vn -0.96062 0.277416 -0.015804
vn -0.522504 -0.362037 0.771958
vn -0.116049 0.339473 0.93343
vn 0.029334 -0.118144 0.992563
# 200 normals
usemtl Material__1
f  1//1 2//2 3//3
f  1//1 3//3 4//4
f  5//5 2//2 1//1
f  6//6 1//1 4//4
f  5//5 1//1 6//6
f  2//2 7//7 3//3
f  2//2 8//8 9//9
f  7//7 2//2 9//9
f  8//8 2//2 5//5
f  3//3 7//7 4//4
f  7//7 10//10 4//4
f  11//11 4//4 10//10
f  4//4 11//11 12//12
f  6//6 4//4 12//12
f  13//13 8//8 5//5
f  14//14 5//5 6//6
f  15//15 13//13 5//5
f  14//14 15//15 5//5
f  16//16 14//14 6//6
f  12//12 16//16 6//6
f  17//17 10//10 7//7
f  9//9 17//17 7//7
f  8//8 18//18 9//9
f  18//18 8//8 13//13
f  17//17 9//9 18//18
f  19//19 11//11 10//10
f  10//10 20//20 19//19
f  20//20 10//10 17//17
f  21//21 11//11 19//19
f  11//11 21//21 22//22
f  12//12 11//11 22//22
f  23//23 16//16 12//12
f  22//22 23//23 12//12
f  18//18 13//13 24//24
f  13//13 15//15 24//24
f  14//14 25//25 15//15
f  14//14 16//16 26//26
f  25//25 14//14 26//26
f  25//25 27//27 15//15
f  15//15 27//27 28//28
f  24//24 15//15 28//28
f  16//16 23//23 29//29
f  26//26 16//16 29//29
f  30//30 17//17 18//18
f  20//20 17//17 30//30
f  18//18 24//24 30//30
f  20//20 31//31 19//19
f  32//32 21//21 19//19
f  19//19 31//31 32//32
f  20//20 33//33 31//31
f  20//20 34//34 33//33
f  34//34 20//20 30//30
f  35//35 21//21 32//32
f  36//36 22//22 21//21
f  35//35 36//36 21//21
f  37//37 23//23 22//22
f  36//36 37//37 22//22
f  23//23 37//37 38//38
f  29//29 23//23 38//38
f  30//30 24//24 34//34
f  24//24 28//28 34//34
f  27//27 25//25 39//39
f  25//25 26//26 40//40
f  39//39 25//25 40//40
f  26//26 29//29 41//41
f  40//40 26//26 41//41
f  27//27 39//39 42//42
f  28//28 27//27 42//42
f  28//28 42//42 33//33
f  34//34 28//28 33//33
f  29//29 38//38 43//43
f  41//41 29//29 43//43
f  31//31 44//44 32//32
f  33//33 45//45 31//31
f  31//31 45//45 44//44
f  46//46 35//35 32//32
f  32//32 44//44 46//46
f  33//33 42//42 45//45
f  47//47 35//35 46//46
f  35//35 47//47 48//48
f  36//36 35//35 48//48
f  49//49 37//37 36//36
f  48//48 49//49 36//36
f  38//38 37//37 49//49
f  50//50 38//38 49//49
f  38//38 51//51 43//43
f  51//51 38//38 50//50
f  39//39 40//40 52//52
f  42//42 39//39 52//52
f  40//40 41//41 53//53
f  52//52 40//40 53//53
f  41//41 43//43 54//54
f  53//53 41//41 54//54
f  42//42 52//52 45//45
f  43//43 51//51 55//55
f  54//54 43//43 55//55
f  45//45 56//56 44//44
f  44//44 57//57 46//46
f  44//44 56//56 57//57
f  45//45 52//52 56//56
f  58//58 47//47 46//46
f  46//46 57//57 58//58
f  59//59 47//47 58//58
f  47//47 59//59 60//60
f  48//48 47//47 60//60
f  61//61 49//49 48//48
f  62//62 61//61 48//48
f  48//48 60//60 62//62
f  49//49 63//63 64//64
f  50//50 49//49 64//64
f  63//63 49//49 61//61
f  64//64 51//51 50//50
f  55//55 51//51 65//65
f  51//51 64//64 65//65
f  52//52 53//53 56//56
f  53//53 54//54 66//66
f  56//56 53//53 66//66
f  54//54 55//55 67//67
f  66//66 54//54 67//67
f  55//55 65//65 68//68
f  67//67 55//55 68//68
f  56//56 66//66 57//57
f  57//57 69//69 58//58
f  57//57 66//66 69//69
f  70//70 59//59 58//58
f  58//58 69//69 71//71
f  58//58 71//71 70//70
f  59//59 70//70 72//72
f  73//73 59//59 72//72
f  59//59 73//73 74//74
f  60//60 59//59 74//74
f  60//60 74//74 75//75
f  62//62 60//60 75//75
f  61//61 76//76 77//77
f  63//63 61//61 77//77
f  61//61 62//62 76//76
f  62//62 75//75 76//76
f  64//64 63//63 78//78
f  63//63 77//77 78//78
f  79//79 65//65 64//64
f  78//78 79//79 64//64
f  65//65 79//79 80//80
f  68//68 65//65 80//80
f  66//66 67//67 69//69
f  67//67 68//68 81//81
f  69//69 67//67 81//81
f  68//68 80//80 82//82
f  81//81 68//68 82//82
f  69//69 81//81 71//71
f  70//70 83//83 84//84
f  72//72 70//70 84//84
f  70//70 71//71 83//83
f  71//71 85//85 83//83
f  71//71 81//81 85//85
f  84//84 73//73 72//72
f  86//86 73//73 84//84
f  73//73 86//86 87//87
f  74//74 73//73 87//87
f  74//74 87//87 88//88
f  75//75 74//74 88//88
f  75//75 88//88 89//89
f  76//76 75//75 89//89
f  77//77 76//76 90//90
f  76//76 89//89 90//90
f  77//77 90//90 91//91
f  78//78 77//77 91//91
f  78//78 91//91 92//92
f  79//79 78//78 92//92
f  79//79 92//92 93//93
f  80//80 79//79 93//93
f  80//80 93//93 94//94
f  82//82 80//80 94//94
f  81//81 82//82 85//85
f  82//82 94//94 95//95
f  85//85 82//82 95//95
f  83//83 86//86 84//84
f  83//83 85//85 86//86
f  85//85 95//95 86//86
f  96//96 86//86 95//95
f  87//87 86//86 96//96
f  97//97 87//87 96//96
f  87//87 97//97 98//98
f  88//88 87//87 98//98
f  88//88 98//98 99//99
f  89//89 88//88 99//99
f  90//90 89//89 99//99
f  91//91 90//90 100//100
f  90//90 99//99 100//100
f  91//91 100//100 101//101
f  92//92 91//91 101//101
f  93//93 92//92 101//101
f  93//93 102//102 103//103
f  94//94 93//93 103//103
f  102//102 93//93 101//101
f  94//94 103//103 104//104
f  95//95 94//94 104//104
f  104//104 96//96 95//95
f  96//96 104//104 105//105
f  106//106 97//97 96//96
f  105//105 106//106 96//96
f  97//97 106//106 107//107
f  98//98 97//97 107//107
f  98//98 107//107 108//108
f  99//99 98//98 108//108
f  99//99 108//108 109//109
f  100//100 99//99 109//109
f  101//101 100//100 110//110
f  100//100 109//109 110//110
f  101//101 110//110 102//102
f  103//103 102//102 111//111
f  102//102 112//112 111//111
f  110//110 112//112 102//102
f  103//103 111//111 113//113
f  104//104 103//103 113//113
f  104//104 113//113 105//105
f  105//105 113//113 114//114
f  114//114 115//115 105//105
f  105//105 115//115 116//116
f  117//117 106//106 105//105
f  116//116 117//117 105//105
f  106//106 117//117 118//118
f  107//107 106//106 118//118
f  107//107 118//118 119//119
f  108//108 107//107 119//119
f  120//120 109//109 108//108
f  119//119 120//120 108//108
f  109//109 120//120 121//121
f  110//110 109//109 121//121
f  110//110 121//121 122//122
f  112//112 110//110 122//122
f  113//113 111//111 123//123
f  123//123 111//111 112//112
f  122//122 123//123 112//112
f  114//114 113//113 123//123
f  123//123 115//115 114//114
f  115//115 124//124 125//125
f  116//116 115//115 125//125
f  115//115 123//123 126//126
f  124//124 115//115 126//126
f  127//127 117//117 116//116
f  125//125 127//127 116//116
f  117//117 127//127 128//128
f  118//118 117//117 128//128
f  118//118 128//128 129//129
f  119//119 118//118 129//129
f  130//130 120//120 119//119
f  129//129 130//130 119//119
f  120//120 130//130 131//131
f  120//120 131//131 121//121
f  132//132 122//122 121//121
f  131//131 132//132 121//121
f  126//126 123//123 122//122
f  132//132 126//126 122//122
f  125//125 124//124 133//133
f  124//124 134//134 133//133
f  124//124 126//126 134//134
f  135//135 127//127 125//125
f  133//133 135//135 125//125
f  126//126 136//136 134//134
f  136//136 126//126 132//132
f  127//127 135//135 137//137
f  128//128 127//127 137//137
f  129//129 128//128 137//137
f  130//130 129//129 138//138
f  129//129 137//137 138//138
f  130//130 139//139 131//131
f  130//130 138//138 140//140
f  130//130 140//140 139//139
f  141//141 132//132 131//131
f  139//139 141//141 131//131
f  141//141 136//136 132//132
f  133//133 134//134 142//142
f  143//143 135//135 133//133
f  142//142 143//143 133//133
f  134//134 136//136 144//144
f  134//134 145//145 146//146
f  134//134 146//146 147//147
f  142//142 134//134 147//147
f  134//134 144//144 145//145
f  135//135 143//143 148//148
f  137//137 135//135 148//148
f  144//144 136//136 141//141
f  137//137 148//148 149//149
f  138//138 137//137 149//149
f  138//138 149//149 140//140
f  150//150 141//141 139//139
f  151//151 150//150 139//139
f  139//139 140//140 151//151
f  140//140 152//152 151//151
f  152//152 140//140 149//149
f  150//150 144//144 141//141
f  153//153 143//143 142//142
f  147//147 153//153 142//142
f  143//143 153//153 154//154
f  148//148 143//143 154//154
f  145//145 144//144 150//150
f  155//155 146//146 145//145
f  156//156 145//145 150//150
f  157//157 155//155 145//145
f  157//157 145//145 156//156
f  146//146 155//155 158//158
f  147//147 146//146 158//158
f  159//159 153//153 147//147
f  158//158 159//159 147//147
f  160//160 149//149 148//148
f  148//148 154//154 160//160
f  149//149 160//160 152//152
f  156//156 150//150 151//151
f  161//161 156//156 151//151
f  151//151 152//152 161//161
f  152//152 162//162 161//161
f  152//152 160//160 162//162
f  153//153 159//159 163//163
f  154//154 153//153 163//163
f  160//160 154//154 163//163
f  158//158 155//155 164//164
f  155//155 165//165 164//164
f  165//165 155//155 157//157
f  166//166 156//156 161//161
f  166//166 157//157 156//156
f  167//167 165//165 157//157
f  167//167 157//157 166//166
f  158//158 164//164 168//168
f  159//159 158//158 168//168
f  159//159 168//168 169//169
f  163//163 159//159 169//169
f  162//162 160//160 170//170
f  170//170 160//160 171//171
f  171//171 160//160 163//163
f  172//172 166//166 161//161
f  161//161 162//162 172//172
f  162//162 173//173 172//172
f  162//162 170//170 174//174
f  173//173 162//162 174//174
f  171//171 163//163 169//169
f  164//164 175//175 168//168
f  164//164 165//165 175//175
f  176//176 175//175 165//165
f  167//167 176//176 165//165
f  177//177 167//167 166//166
f  177//177 166//166 172//172
f  178//178 176//176 167//167
f  179//179 178//178 167//167
f  177//177 179//179 167//167
f  168//168 180//180 181//181
f  169//169 168//168 181//181
f  168//168 175//175 182//182
f  180//180 168//168 182//182
f  183//183 171//171 169//169
f  184//184 183//183 169//169
f  181//181 184//184 169//169
f  174//174 170//170 185//185
f  185//185 170//170 171//171
f  171//171 183//183 185//185
f  186//186 177//177 172//172
f  172//172 173//173 186//186
f  173//173 187//187 186//186
f  188//188 187//187 173//173
f  174//174 188//188 173//173
f  189//189 188//188 174//174
f  185//185 189//189 174//174
f  175//175 176//176 190//190
f  182//182 175//175 190//190
f  176//176 178//178 191//191
f  190//190 176//176 191//191
f  177//177 186//186 192//192
f  179//179 177//177 192//192
f  179//179 191//191 178//178
f  193//193 179//179 192//192
f  193//193 191//191 179//179
f  181//181 180//180 182//182
f  184//184 181//181 182//182
f  194//194 184//184 182//182
f  182//182 190//190 195//195
f  194//194 182//182 195//195
f  183//183 189//189 185//185
f  183//183 184//184 189//189
f  184//184 196//196 189//189
f  196//196 184//184 194//194
f  186//186 187//187 197//197
f  192//192 186//186 197//197
f  197//197 187//187 188//188
f  196//196 198//198 188//188
f  189//189 196//196 188//188
f  198//198 197//197 188//188
f  190//190 191//191 193//193
f  195//195 190//190 193//193
f  192//192 197//197 199//199
f  192//192 199//199 193//193
f  199//199 195//195 193//193
f  200//200 196//196 194//194
f  199//199 200//200 194//194
f  195//195 199//199 194//194
f  198//198 196//196 200//200
f  199//199 197//197 198//198
f  200//200 199//199 198//198
