#VRML V2.0 utf8

# Produced by 3D Exploration VRML exporter
# http://www.xdsoft.com/explorer/

DEF object0 Transform {
  children [
    Shape {
      appearance Appearance {
        material Material {
          diffuseColor 0.800000 0.800000 0.800000
          emissiveColor 0.000000 0.000000 0.000000
          specularColor 0.400000 0.400000 0.400000
          ambientIntensity 0.200000
          shininess 0.250000
        }
      }
      geometry IndexedFaceSet {
        coord Coordinate { point [
          # points 58
          -0.011309 -0.00949 0.013242, -0.007978 -0.011558 0.018274, -0.009206 -0.009752 0.019555, -0.011046 -0.0079 0.016037, 
          -0.001104 -0.008774 0.011892, -0.012205 -0.008676 0.009569, -0.002941 -0.007531 0.008647, -0.006374 -0.006689 0.022715, 
          -0.00438 -0.010251 0.023521, 0.000553 -0.0115 0.018244, -0.010327 -0.004271 0.019203, -0.011638 -0.006101 0.015157, 
          0.00211 -0.007254 0.012075, -0.000679 -0.004965 0.008983, -0.012212 -0.00368 0.009345, -0.003456 0.000824 0.008639, 
          -0.000477 -0.002037 0.009044, -0.006775 -0.002567 0.022158, 0.000995 -0.009122 0.020174, -0.001957 -0.004243 0.021691, 
          0.003426 -0.009499 0.014137, -0.009859 -0.00262 0.019549, -0.010879 -0.001449 0.017504, -0.011478 -0.001958 0.014946, 
          -0.011607 -0.003919 0.014906, 0.005574 -0.00961 0.012787, 0.004815 -0.007582 0.012157, 0.003726 -0.005334 0.012856, 
          0.003354 -0.003656 0.013105, -0.012709 0.000786 0.010161, -0.002007 0.002916 0.008978, 0.000738 0.000588 0.009779, 
          0.00368 -0.002174 0.013716, 0.001698 -0.003785 0.020821, 0.004172 -0.0063 0.018117, -0.00976 0.001162 0.019056, 
          -0.009697 0.006385 0.010149, 0.0069 -0.005779 0.016852, 0.005194 -0.008596 0.012472, 0.010283 -0.006294 0.012912, 
          0.009802 -0.007055 0.012703, 0.00932 -0.007818 0.012494, 0.008539 -0.008341 0.011282, 0.008674 -0.007663 0.010899, 
          0.008807 -0.006982 0.010514, -0.001292 0.007319 0.012559, 0.00094 0.002778 0.012852, 0.005105 -0.001617 0.014736, 
          0.009273 -0.006103 0.010317, 0.000491 0.000302 0.017143, 0.004029 -0.002295 0.018412, 0.007727 -0.002205 0.016455, 
          0.010342 -0.003738 0.01323, 0.009483 -0.006225 0.011684, 0.001604 0.000245 0.016204, 0.005217 -0.001124 0.016397, 
          0.009641 -0.004627 0.010654, 0.010153 -0.003629 0.011836]
        }
        creaseAngle 0.610865
        normal Normal { vector [
          # normals 58
          -0.522786 -0.850115 -0.063243, -0.336565 -0.917493 0.211968, -0.744683 -0.417926 0.52037, -0.93494 -0.209361 0.286452, 
          0.249768 -0.823002 -0.51018, -0.798514 -0.380159 -0.466749, 0.194007 -0.489953 -0.849887, -0.531549 -0.189611 0.825532, 
          0.058525 -0.327819 0.942926, 0.302021 -0.952153 -0.046775, -0.868917 -0.014985 0.49473, -0.975548 -0.054698 0.212872, 
          0.119314 -0.522348 -0.844344, 0.56299 -0.199476 -0.80203, -0.794408 0.077186 -0.60246, 0.047938 0.06618 -0.996656, 
          0.485059 0.014008 -0.874369, -0.294866 0.367299 0.882126, 0.627717 -0.343347 0.698631, 0.236235 0.369033 0.898892, 
          0.332164 -0.942727 0.030548, -0.654486 0.358113 0.665885, -0.934949 0.157394 0.317957, -0.943698 0.16074 0.28913, 
          -0.976515 0.011959 0.215119, 0.490775 -0.871256 0.007314, 0.237067 -0.259105 -0.936303, 0.067069 0.0517 -0.996408, 
          0.216107 0.098411 -0.971397, -0.800895 0.28573 -0.526238, 0.208632 0.39103 -0.89642, 0.612318 0.141172 -0.777906, 
          0.335281 0.179145 -0.924929, 0.41027 0.300063 0.861186, 0.588737 -0.424203 0.688071, -0.330398 0.55341 0.764574, 
          -0.711429 0.61985 0.331141, 0.588927 -0.305338 0.748287, 0.699712 -0.462427 -0.544576, 0.865857 -0.420974 0.270321, 
          0.770716 -0.633336 -0.069873, 0.606676 -0.772484 -0.18765, 0.354529 -0.596307 -0.720227, 0.118905 -0.384764 -0.915324, 
          0.167685 -0.219264 -0.961148, 0.642225 0.738726 -0.204524, 0.761151 0.621806 -0.184407, 0.452265 0.597845 -0.661844, 
          0.340868 0.154683 -0.927298, 0.228314 0.709923 0.666245, 0.482279 0.402752 0.777944, 0.530142 0.475094 0.702307, 
          0.979677 0.121976 0.159231, 0.896401 -0.286149 -0.338502, 0.453813 0.593892 0.664339, 0.363155 0.930356 0.05055, 
          0.521314 0.513831 -0.681329, 0.750774 0.591984 -0.293076]
        }
        coordIndex [
          0, 1, 2, -1,3, 0, 2, -1,0, 4, 1, -1,5, 0, 3, -1,6, 4, 0, -1,5, 6, 0, -1,2, 1, 7, -1,
          1, 8, 7, -1,4, 9, 1, -1,1, 9, 8, -1,10, 3, 2, -1,10, 2, 7, -1,11, 5, 3, -1,10, 11, 
          3, -1,4, 12, 9, -1,13, 12, 4, -1,6, 13, 4, -1,14, 5, 11, -1,15, 6, 5, -1,14, 15, 
          5, -1,16, 13, 6, -1,15, 16, 6, -1,7, 8, 17, -1,10, 7, 17, -1,9, 18, 8, -1,8, 19, 
          17, -1,8, 18, 19, -1,12, 20, 9, -1,9, 20, 18, -1,10, 17, 21, -1,10, 21, 22, -1,10, 
          22, 23, -1,10, 23, 24, -1,10, 24, 11, -1,24, 14, 11, -1,20, 12, 25, -1,12, 26, 25, -1,
          27, 26, 12, -1,13, 27, 12, -1,28, 27, 13, -1,16, 28, 13, -1,29, 14, 24, -1,30, 15, 
          14, -1,29, 30, 14, -1,31, 16, 15, -1,30, 31, 15, -1,32, 28, 16, -1,31, 32, 16, -1,
          17, 19, 21, -1,18, 33, 19, -1,20, 34, 18, -1,18, 34, 33, -1,19, 35, 21, -1,19, 33, 
          35, -1,20, 25, 34, -1,21, 35, 22, -1,35, 36, 22, -1,22, 36, 23, -1,36, 29, 23, -1,
          23, 29, 24, -1,25, 37, 34, -1,26, 38, 25, -1,25, 39, 37, -1,40, 39, 25, -1,38, 40, 
          25, -1,26, 41, 38, -1,42, 41, 26, -1,27, 42, 26, -1,43, 42, 27, -1,28, 43, 27, -1,
          44, 43, 28, -1,32, 44, 28, -1,36, 45, 29, -1,45, 30, 29, -1,46, 31, 30, -1,45, 46, 
          30, -1,47, 32, 31, -1,46, 47, 31, -1,48, 44, 32, -1,47, 48, 32, -1,33, 49, 35, -1,
          34, 50, 33, -1,33, 50, 49, -1,34, 37, 50, -1,35, 49, 36, -1,49, 45, 36, -1,37, 51, 
          50, -1,39, 52, 37, -1,37, 52, 51, -1,41, 40, 38, -1,52, 39, 53, -1,39, 40, 53, -1,
          40, 41, 53, -1,41, 42, 53, -1,42, 43, 53, -1,43, 44, 53, -1,44, 48, 53, -1,49, 54, 
          45, -1,54, 46, 45, -1,55, 47, 46, -1,54, 55, 46, -1,56, 48, 47, -1,55, 56, 47, -1,
          48, 56, 53, -1,50, 54, 49, -1,50, 51, 54, -1,51, 55, 54, -1,52, 57, 51, -1,51, 57, 
          55, -1,57, 52, 53, -1,56, 57, 53, -1,57, 56, 55, -1
        ]
        normalPerVertex TRUE
        normalIndex [
          0, 1, 2, -1,3, 0, 2, -1,0, 4, 1, -1,5, 0, 3, -1,6, 4, 0, -1,5, 6, 0, -1,2, 1, 7, -1,
          1, 8, 7, -1,4, 9, 1, -1,1, 9, 8, -1,10, 3, 2, -1,10, 2, 7, -1,11, 5, 3, -1,10, 11, 
          3, -1,4, 12, 9, -1,13, 12, 4, -1,6, 13, 4, -1,14, 5, 11, -1,15, 6, 5, -1,14, 15, 
          5, -1,16, 13, 6, -1,15, 16, 6, -1,7, 8, 17, -1,10, 7, 17, -1,9, 18, 8, -1,8, 19, 
          17, -1,8, 18, 19, -1,12, 20, 9, -1,9, 20, 18, -1,10, 17, 21, -1,10, 21, 22, -1,10, 
          22, 23, -1,10, 23, 24, -1,10, 24, 11, -1,24, 14, 11, -1,20, 12, 25, -1,12, 26, 25, -1,
          27, 26, 12, -1,13, 27, 12, -1,28, 27, 13, -1,16, 28, 13, -1,29, 14, 24, -1,30, 15, 
          14, -1,29, 30, 14, -1,31, 16, 15, -1,30, 31, 15, -1,32, 28, 16, -1,31, 32, 16, -1,
          17, 19, 21, -1,18, 33, 19, -1,20, 34, 18, -1,18, 34, 33, -1,19, 35, 21, -1,19, 33, 
          35, -1,20, 25, 34, -1,21, 35, 22, -1,35, 36, 22, -1,22, 36, 23, -1,36, 29, 23, -1,
          23, 29, 24, -1,25, 37, 34, -1,26, 38, 25, -1,25, 39, 37, -1,40, 39, 25, -1,38, 40, 
          25, -1,26, 41, 38, -1,42, 41, 26, -1,27, 42, 26, -1,43, 42, 27, -1,28, 43, 27, -1,
          44, 43, 28, -1,32, 44, 28, -1,36, 45, 29, -1,45, 30, 29, -1,46, 31, 30, -1,45, 46, 
          30, -1,47, 32, 31, -1,46, 47, 31, -1,48, 44, 32, -1,47, 48, 32, -1,33, 49, 35, -1,
          34, 50, 33, -1,33, 50, 49, -1,34, 37, 50, -1,35, 49, 36, -1,49, 45, 36, -1,37, 51, 
          50, -1,39, 52, 37, -1,37, 52, 51, -1,41, 40, 38, -1,52, 39, 53, -1,39, 40, 53, -1,
          40, 41, 53, -1,41, 42, 53, -1,42, 43, 53, -1,43, 44, 53, -1,44, 48, 53, -1,49, 54, 
          45, -1,54, 46, 45, -1,55, 47, 46, -1,54, 55, 46, -1,56, 48, 47, -1,55, 56, 47, -1,
          48, 56, 53, -1,50, 54, 49, -1,50, 51, 54, -1,51, 55, 54, -1,52, 57, 51, -1,51, 57, 
          55, -1,57, 52, 53, -1,56, 57, 53, -1,57, 56, 55, -1
        ]
      }
    }
  ]
}
DEF object1 Transform {
  children [
    Shape {
      appearance Appearance {
        material Material {
          diffuseColor 0.800000 0.800000 0.800000
          emissiveColor 0.000000 0.000000 0.000000
          specularColor 0.400000 0.400000 0.400000
          ambientIntensity 0.200000
          shininess 0.250000
        }
      }
      geometry IndexedFaceSet {
        coord Coordinate { point [
          # points 56
          -0.000814 0.00634 -0.005295, -0.000748 -0.000247 -0.005918, -0.001492 0.000146 -0.006483, -0.002626 0.012072 -0.005469, 
          -0.000276 0.002722 -0.004211, 0.000205 0.002926 -0.002616, -4.7e-005 0.006862 -0.002673, -0.004225 -0.009111 -0.004203, 
          -0.001291 -0.008902 -0.005352, 0.000268 -0.000349 -0.004592, -0.010114 0.000468 -0.00514, -0.015149 -0.00815 -0.001522, 
          -0.007997 0.008535 -0.005065, -0.000926 0.012192 -0.000881, 0.000173 -0.001557 -0.002192, 0.001051 0.002488 0.000152, 
          0.000759 0.005559 0.001892, -0.014459 -0.010307 0.004654, -0.001389 -0.009861 -0.000511, -0.000358 -0.00667 -0.004114, 
          -0.000392 -0.009216 -0.001784, -0.01021 0.000594 -0.003223, -0.014962 -0.007756 0.002016, -0.014491 -0.008602 0.004044, 
          -0.009653 0.010516 -0.000411, -0.010073 0.004784 -0.003887, 0.001207 0.010482 0.006364, -0.000749 -0.007452 -0.002035, 
          -5e-005 -0.005411 -0.001025, -4.2e-005 -0.002601 -0.00064, 0.001508 0.000337 -0.000649, 0.000509 0.000572 0.002406, 
          -0.014504 -0.007593 0.00626, -0.011304 -0.010506 0.008681, -0.005034 -0.008889 0.006183, -0.000609 -0.007369 0.000967, 
          -0.010824 0.000786 -0.000175, -0.014224 -0.004029 0.002433, -0.013176 -0.003147 0.003238, -0.013045 -0.002892 0.004397, 
          -0.010399 0.006982 -0.000349, -0.006982 0.007725 0.008731, -0.010782 0.002548 -0.000183, -0.000228 0.001604 0.004506, 
          -0.000407 -0.003306 0.001977, -0.012074 -0.001566 0.004632, -0.011688 -0.001995 0.006096, -0.010266 -0.002356 0.008543, 
          -0.001768 -0.00297 0.005322, -0.011804 4.7e-005 0.002675, -0.009601 0.005368 0.004808, -0.010946 0.003641 0.001588, 
          -0.009066 0.00235 0.00827, -0.010347 0.000864 0.003787, -0.010311 0.001119 0.00579, -0.010331 0.003539 0.002659]
        }
        creaseAngle 0.610865
        normal Normal { vector [
          # normals 56
          0.853612 0.110264 -0.509106, 0.622705 -0.025553 -0.782039, 0.17922 -0.097408 -0.978975, 0.372361 0.398545 -0.838158, 
          0.954551 0.089047 -0.284434, 0.956697 0.019833 -0.290409, 0.953485 0.171093 -0.248181, -0.074335 -0.710148 -0.700118, 
          0.592808 -0.543451 -0.594339, 0.94489 0.012781 -0.327138, -0.69469 0.225697 -0.682983, -0.821172 -0.291951 -0.490349, 
          -0.641483 0.480562 -0.597963, 0.504039 0.844443 -0.181276, 0.980387 -0.048513 -0.191017, 0.878619 0.199862 -0.433686, 
          0.983131 0.136154 -0.122126, -0.666683 -0.744575 0.033796, 0.286417 -0.957273 0.039927, 0.994253 -0.082259 -0.068513, 
          0.938066 -0.31735 0.138999, -0.902091 0.239272 -0.359139, -0.967229 0.220657 0.125609, -0.993833 0.076592 0.080182, 
          -0.687807 0.725255 -0.030435, -0.918494 0.08896 -0.385298, 0.78461 0.412774 0.462606, 0.999159 -0.040547 -0.00607, 
          0.992381 -0.12234 0.014565, 0.965264 -0.244179 0.092966, 0.974073 -0.043722 -0.221971, 0.943002 -0.211053 0.257301, 
          -0.889762 0.188257 0.415791, -0.331893 -0.488306 0.807096, 0.621171 -0.400621 0.673535, 0.939553 -0.223115 0.259732, 
          -0.951848 0.21606 -0.217492, -0.914283 0.388075 0.116119, -0.887225 0.288428 0.360057, -0.907722 0.384487 0.167962, 
          -0.971866 0.227695 0.060267, -0.523203 0.350505 0.776792, -0.977895 0.075331 -0.195054, 0.671725 -0.205963 0.711593, 
          0.949053 -0.165215 0.268333, -0.748027 0.529681 0.399867, -0.799756 0.391503 0.455099, -0.327057 0.142716 0.934166, 
          0.659068 -0.139525 0.739028, -0.891931 0.397971 0.214659, -0.920778 0.219154 0.322707, -0.97237 0.142916 0.184584, 
          -0.376783 0.13415 0.916536, -0.853085 0.41909 0.31082, -0.939933 0.255109 0.226814, -0.913077 0.133383 0.385356]
        }
        coordIndex [
          0, 1, 2, -1,3, 0, 2, -1,0, 4, 1, -1,5, 4, 0, -1,6, 5, 0, -1,6, 0, 3, -1,2, 1, 7, -1,
          1, 8, 7, -1,4, 9, 1, -1,1, 9, 8, -1,3, 2, 10, -1,2, 7, 11, -1,10, 2, 11, -1,12, 3, 
          10, -1,13, 6, 3, -1,13, 3, 12, -1,9, 4, 14, -1,4, 5, 14, -1,15, 5, 6, -1,5, 15, 14, -1,
          16, 15, 6, -1,16, 6, 13, -1,11, 7, 17, -1,7, 18, 17, -1,7, 8, 18, -1,9, 19, 8, -1,
          8, 20, 18, -1,8, 19, 20, -1,19, 9, 14, -1,12, 10, 21, -1,10, 11, 22, -1,21, 10, 22, -1,
          11, 17, 23, -1,22, 11, 23, -1,24, 13, 12, -1,25, 12, 21, -1,24, 12, 25, -1,26, 16, 
          13, -1,26, 13, 24, -1,27, 19, 14, -1,28, 27, 14, -1,29, 28, 14, -1,30, 29, 14, -1,
          15, 30, 14, -1,30, 15, 16, -1,31, 30, 16, -1,31, 16, 26, -1,23, 17, 32, -1,17, 33, 
          32, -1,17, 18, 33, -1,18, 34, 33, -1,18, 20, 34, -1,19, 27, 20, -1,20, 35, 34, -1,
          20, 27, 35, -1,25, 21, 36, -1,21, 22, 37, -1,36, 21, 37, -1,22, 23, 38, -1,37, 22, 
          38, -1,23, 32, 39, -1,38, 23, 39, -1,40, 24, 25, -1,41, 26, 24, -1,41, 24, 40, -1,
          42, 25, 36, -1,40, 25, 42, -1,43, 31, 26, -1,43, 26, 41, -1,27, 28, 35, -1,35, 28, 
          44, -1,28, 29, 44, -1,29, 30, 31, -1,44, 29, 31, -1,44, 31, 43, -1,39, 32, 45, -1,
          32, 46, 45, -1,32, 33, 46, -1,33, 47, 46, -1,33, 34, 47, -1,34, 48, 47, -1,34, 35, 
          48, -1,35, 44, 48, -1,49, 42, 36, -1,49, 36, 37, -1,49, 37, 38, -1,49, 38, 39, -1,
          49, 39, 45, -1,50, 41, 40, -1,51, 40, 42, -1,50, 40, 51, -1,52, 43, 41, -1,52, 41, 
          50, -1,49, 51, 42, -1,48, 44, 43, -1,48, 43, 52, -1,49, 45, 53, -1,45, 46, 53, -1,
          46, 47, 54, -1,46, 54, 53, -1,47, 48, 52, -1,47, 52, 54, -1,49, 55, 51, -1,49, 53, 
          55, -1,55, 50, 51, -1,54, 52, 50, -1,54, 50, 55, -1,53, 54, 55, -1
        ]
        normalPerVertex TRUE
        normalIndex [
          0, 1, 2, -1,3, 0, 2, -1,0, 4, 1, -1,5, 4, 0, -1,6, 5, 0, -1,6, 0, 3, -1,2, 1, 7, -1,
          1, 8, 7, -1,4, 9, 1, -1,1, 9, 8, -1,3, 2, 10, -1,2, 7, 11, -1,10, 2, 11, -1,12, 3, 
          10, -1,13, 6, 3, -1,13, 3, 12, -1,9, 4, 14, -1,4, 5, 14, -1,15, 5, 6, -1,5, 15, 14, -1,
          16, 15, 6, -1,16, 6, 13, -1,11, 7, 17, -1,7, 18, 17, -1,7, 8, 18, -1,9, 19, 8, -1,
          8, 20, 18, -1,8, 19, 20, -1,19, 9, 14, -1,12, 10, 21, -1,10, 11, 22, -1,21, 10, 22, -1,
          11, 17, 23, -1,22, 11, 23, -1,24, 13, 12, -1,25, 12, 21, -1,24, 12, 25, -1,26, 16, 
          13, -1,26, 13, 24, -1,27, 19, 14, -1,28, 27, 14, -1,29, 28, 14, -1,30, 29, 14, -1,
          15, 30, 14, -1,30, 15, 16, -1,31, 30, 16, -1,31, 16, 26, -1,23, 17, 32, -1,17, 33, 
          32, -1,17, 18, 33, -1,18, 34, 33, -1,18, 20, 34, -1,19, 27, 20, -1,20, 35, 34, -1,
          20, 27, 35, -1,25, 21, 36, -1,21, 22, 37, -1,36, 21, 37, -1,22, 23, 38, -1,37, 22, 
          38, -1,23, 32, 39, -1,38, 23, 39, -1,40, 24, 25, -1,41, 26, 24, -1,41, 24, 40, -1,
          42, 25, 36, -1,40, 25, 42, -1,43, 31, 26, -1,43, 26, 41, -1,27, 28, 35, -1,35, 28, 
          44, -1,28, 29, 44, -1,29, 30, 31, -1,44, 29, 31, -1,44, 31, 43, -1,39, 32, 45, -1,
          32, 46, 45, -1,32, 33, 46, -1,33, 47, 46, -1,33, 34, 47, -1,34, 48, 47, -1,34, 35, 
          48, -1,35, 44, 48, -1,49, 42, 36, -1,49, 36, 37, -1,49, 37, 38, -1,49, 38, 39, -1,
          49, 39, 45, -1,50, 41, 40, -1,51, 40, 42, -1,50, 40, 51, -1,52, 43, 41, -1,52, 41, 
          50, -1,49, 51, 42, -1,48, 44, 43, -1,48, 43, 52, -1,49, 45, 53, -1,45, 46, 53, -1,
          46, 47, 54, -1,46, 54, 53, -1,47, 48, 52, -1,47, 52, 54, -1,49, 55, 51, -1,49, 53, 
          55, -1,55, 50, 51, -1,54, 52, 50, -1,54, 50, 55, -1,53, 54, 55, -1
        ]
      }
    }
  ]
}
DEF object2 Transform {
  children [
    Shape {
      appearance Appearance {
        material Material {
          diffuseColor 0.800000 0.800000 0.800000
          emissiveColor 0.000000 0.000000 0.000000
          specularColor 0.400000 0.400000 0.400000
          ambientIntensity 0.200000
          shininess 0.250000
        }
      }
      geometry IndexedFaceSet {
        coord Coordinate { point [
          # points 34
          0.003007 0.000471 -0.007115, 0.002 -0.002054 -0.006929, 0.002869 -0.003194 -0.009323, 0.003297 -0.00231 -0.009568, 
          -0.003988 0.002213 -0.007834, 0.003648 -0.000546 -0.010134, -0.005764 0.002535 -0.011056, 0.002307 -0.004833 -0.009648, 
          0.001063 -0.007144 -0.008105, -0.008883 -0.00109 -0.006264, 0.002549 -0.004326 -0.010817, 0.003131 -0.002449 -0.010663, 
          -0.010397 -0.000854 -0.00963, -0.009193 0.000105 -0.012535, 0.004098 -0.001648 -0.013628, -0.0076 0.001595 -0.016504, 
          -0.008843 0.000258 -0.014418, 0.002358 -0.005802 -0.011012, -0.011355 -0.00741 -0.006465, 0.001211 -0.0081 -0.010823, 
          -0.011142 -0.002261 -0.009408, 0.002035 -0.005716 -0.011847, 0.002535 -0.004451 -0.011806, 0.00186 -0.005851 -0.012673, 
          -0.010877 -0.002469 -0.012014, -0.001369 -0.006993 -0.015889, -0.008805 -0.00303 -0.017973, -0.01056 -0.003069 -0.015365, 
          -0.012819 -0.008144 -0.011194, -0.012044 -0.004417 -0.009479, -5.3e-005 -0.008332 -0.013627, -0.012928 -0.005354 -0.011451, 
          -0.011904 -0.004161 -0.01383, -0.01193 -0.007091 -0.014933]
        }
        creaseAngle 0.610865
        normal Normal { vector [
          # normals 34
          0.814935 0.330942 0.475771, 0.521878 -0.146017 0.84043, 0.885588 -0.347159 0.308567, 0.954789 -0.273635 0.1162, 
          -0.273067 0.782424 0.559684, 0.873723 0.477245 -0.094049, -0.189538 0.981765 -0.014611, 0.922374 -0.286963 0.258608, 
          0.607593 -0.465288 0.64369, -0.387391 0.344315 0.855205, 0.958082 -0.284483 -0.033875, 0.951545 -0.304587 0.042287, 
          -0.732906 0.67321 0.098169, -0.700519 0.712514 0.039961, 0.862891 -0.020245 -0.504985, -0.306406 0.829111 -0.467644, 
          -0.771031 0.630972 -0.08594, 0.954991 -0.295315 -0.027935, -0.617686 -0.340794 0.708748, 0.524624 -0.851236 0.012963, 
          -0.883107 0.406598 0.234095, 0.89215 -0.363223 -0.268584, 0.917609 -0.358432 -0.171816, 0.885286 -0.323439 -0.33415, 
          -0.843644 0.525287 -0.11108, 0.462523 -0.428277 -0.776306, -0.394115 0.117446 -0.911526, -0.826174 0.45773 -0.328511, 
          -0.70055 -0.707151 0.095751, -0.926353 0.287649 0.243162, 0.447311 -0.826677 -0.341347, -0.962922 0.267569 -0.034457, 
          -0.858101 0.375896 -0.349806, -0.64181 -0.467686 -0.607741]
        }
        coordIndex [
          0, 1, 2, -1,3, 0, 2, -1,0, 4, 1, -1,5, 0, 3, -1,6, 4, 0, -1,5, 6, 0, -1,2, 1, 7, -1,
          1, 8, 7, -1,1, 9, 8, -1,4, 9, 1, -1,2, 7, 10, -1,3, 2, 10, -1,11, 5, 3, -1,11, 3, 
          10, -1,4, 12, 9, -1,13, 12, 4, -1,6, 13, 4, -1,14, 5, 11, -1,15, 6, 5, -1,14, 15, 
          5, -1,16, 13, 6, -1,15, 16, 6, -1,7, 8, 17, -1,7, 17, 10, -1,9, 18, 8, -1,8, 19, 
          17, -1,8, 18, 19, -1,9, 20, 18, -1,12, 20, 9, -1,17, 21, 10, -1,22, 11, 10, -1,23, 
          22, 10, -1,21, 23, 10, -1,22, 14, 11, -1,24, 20, 12, -1,24, 12, 13, -1,24, 13, 16, -1,
          25, 14, 22, -1,26, 15, 14, -1,25, 26, 14, -1,27, 16, 15, -1,26, 27, 15, -1,24, 16, 
          27, -1,17, 19, 21, -1,18, 28, 19, -1,18, 29, 28, -1,20, 29, 18, -1,19, 30, 21, -1,
          19, 28, 30, -1,24, 29, 20, -1,21, 30, 23, -1,23, 25, 22, -1,30, 25, 23, -1,24, 31, 
          29, -1,24, 32, 31, -1,24, 27, 32, -1,30, 33, 25, -1,33, 26, 25, -1,32, 27, 26, -1,
          33, 32, 26, -1,28, 33, 30, -1,29, 31, 28, -1,28, 31, 33, -1,31, 32, 33, -1
        ]
        normalPerVertex TRUE
        normalIndex [
          0, 1, 2, -1,3, 0, 2, -1,0, 4, 1, -1,5, 0, 3, -1,6, 4, 0, -1,5, 6, 0, -1,2, 1, 7, -1,
          1, 8, 7, -1,1, 9, 8, -1,4, 9, 1, -1,2, 7, 10, -1,3, 2, 10, -1,11, 5, 3, -1,11, 3, 
          10, -1,4, 12, 9, -1,13, 12, 4, -1,6, 13, 4, -1,14, 5, 11, -1,15, 6, 5, -1,14, 15, 
          5, -1,16, 13, 6, -1,15, 16, 6, -1,7, 8, 17, -1,7, 17, 10, -1,9, 18, 8, -1,8, 19, 
          17, -1,8, 18, 19, -1,9, 20, 18, -1,12, 20, 9, -1,17, 21, 10, -1,22, 11, 10, -1,23, 
          22, 10, -1,21, 23, 10, -1,22, 14, 11, -1,24, 20, 12, -1,24, 12, 13, -1,24, 13, 16, -1,
          25, 14, 22, -1,26, 15, 14, -1,25, 26, 14, -1,27, 16, 15, -1,26, 27, 15, -1,24, 16, 
          27, -1,17, 19, 21, -1,18, 28, 19, -1,18, 29, 28, -1,20, 29, 18, -1,19, 30, 21, -1,
          19, 28, 30, -1,24, 29, 20, -1,21, 30, 23, -1,23, 25, 22, -1,30, 25, 23, -1,24, 31, 
          29, -1,24, 32, 31, -1,24, 27, 32, -1,30, 33, 25, -1,33, 26, 25, -1,32, 27, 26, -1,
          33, 32, 26, -1,28, 33, 30, -1,29, 31, 28, -1,28, 31, 33, -1,31, 32, 33, -1
        ]
      }
    }
  ]
}
DEF object3 Transform {
  children [
    Shape {
      appearance Appearance {
        material Material {
          diffuseColor 0.800000 0.800000 0.800000
          emissiveColor 0.000000 0.000000 0.000000
          specularColor 0.400000 0.400000 0.400000
          ambientIntensity 0.200000
          shininess 0.250000
        }
      }
      geometry IndexedFaceSet {
        coord Coordinate { point [
          # points 47
          0.004714 -0.002639 -0.013221, 0.003194 -0.004816 -0.014902, 0.008651 -0.003654 -0.013486, 0.008519 -0.002234 -0.012494, 
          0.001598 -0.005798 -0.013862, 0.005228 0.000989 -0.012478, 0.002565 0.000164 -0.009697, 0.007812 -0.004233 -0.013966, 
          0.003378 -0.005259 -0.015955, -0.001586 -0.010303 -0.018955, 0.009526 -0.000886 -0.01309, 0.008777 0.00067 -0.011485, 
          -0.008734 -0.003699 -0.019655, -0.004564 0.002543 -0.016396, 0.007573 0.004745 -0.01152, 0.007175 0.006446 -0.012876, 
          0.001211 0.006414 -0.017896, 0.009424 -0.004055 -0.01438, -0.000443 -0.010596 -0.021722, 0.007036 -0.005017 -0.015536, 
          -0.007378 -0.007607 -0.022133, 0.010129 0.003693 -0.011317, 0.011108 0.004234 -0.012773, 0.010921 0.000117 -0.013682, 
          0.010394 -0.00251 -0.014217, -0.006303 -0.000753 -0.021163, -0.004049 0.001432 -0.019848, -0.001079 0.003642 -0.020304, 
          0.010631 0.005947 -0.013874, 0.008431 0.006728 -0.016217, 0.002958 0.007761 -0.020606, -1.4e-005 0.005553 -0.02014, 
          0.005947 -0.006116 -0.016316, -0.003445 -0.008625 -0.023809, 0.009455 -0.002457 -0.0173, -0.00605 -0.002591 -0.022948, 
          0.010505 0.001622 -0.015874, -0.002407 0.001262 -0.021798, 0.009778 0.002816 -0.017275, 0.002356 0.006147 -0.023485, 
          0.000284 0.003298 -0.022451, 0.009301 -0.00021 -0.022569, 0.001263 -0.003095 -0.023733, -0.004316 -0.001649 -0.023102, 
          -0.001496 0.000393 -0.022467, 0.001367 0.002032 -0.023759, 0.005603 0.003526 -0.024965]
        }
        creaseAngle 0.610865
        normal Normal { vector [
          # normals 47
          0.272832 -0.52959 0.803179, 0.298793 -0.774541 0.557502, 0.316139 -0.651947 0.689218, 0.221933 -0.381047 0.897524, 
          -0.004247 -0.637336 0.770574, 0.002384 -0.143363 0.989667, 0.098744 0.009279 0.99507, 0.264364 -0.86244 0.431636, 
          0.215297 -0.857637 0.467018, 0.050278 -0.882167 0.468246, 0.699084 -0.327982 0.635382, 0.179538 -0.231876 0.956033, 
          -0.940557 0.092249 0.326869, -0.788778 0.554499 0.265255, -0.026188 0.505273 0.862562, 0.040032 0.770068 0.636704, 
          -0.562875 0.781711 0.268515, 0.381921 -0.775465 0.502783, -0.109733 -0.981016 0.159892, 0.33463 -0.896154 0.291429, 
          -0.782748 -0.470625 -0.407207, 0.550916 0.147954 0.821341, 0.936894 0.034749 0.347882, 0.9588 -0.185569 0.215099, 
          0.866847 -0.491218 0.08533, -0.71393 0.537057 -0.449303, -0.632447 0.71115 -0.307043, -0.735957 0.651285 -0.184921, 
          0.762863 0.637971 0.105042, 0.575101 0.800502 -0.168687, -0.324078 0.930462 -0.170923, -0.749135 0.629894 -0.205013, 
          0.614424 -0.645876 -0.45313, 0.050079 -0.247647 -0.967555, 0.858823 -0.463438 -0.218286, -0.500727 0.312119 -0.807375, 
          0.968648 0.026566 -0.247013, -0.520263 0.551404 -0.652135, 0.797359 0.443456 -0.409348, -0.005681 0.664527 -0.747243, 
          -0.638235 0.475724 -0.605262, 0.816441 -0.251649 -0.519709, 0.147637 -0.224111 -0.963316, -0.161778 0.32273 -0.932563, 
          -0.227845 0.094733 -0.969078, -0.426438 0.063732 -0.902269, 0.205404 0.136835 -0.969064]
        }
        coordIndex [
          0, 1, 2, -1,3, 0, 2, -1,0, 4, 1, -1,5, 0, 3, -1,6, 4, 0, -1,5, 6, 0, -1,2, 1, 7, -1,
          1, 8, 7, -1,4, 9, 1, -1,1, 9, 8, -1,3, 2, 10, -1,2, 7, 10, -1,11, 5, 3, -1,11, 3, 
          10, -1,4, 12, 9, -1,13, 12, 4, -1,6, 13, 4, -1,14, 5, 11, -1,15, 6, 5, -1,14, 15, 
          5, -1,16, 13, 6, -1,15, 16, 6, -1,7, 8, 17, -1,7, 17, 10, -1,9, 18, 8, -1,8, 19, 
          17, -1,8, 18, 19, -1,12, 20, 9, -1,9, 20, 18, -1,21, 11, 10, -1,22, 21, 10, -1,23, 
          22, 10, -1,24, 23, 10, -1,17, 24, 10, -1,21, 14, 11, -1,12, 25, 20, -1,26, 25, 12, -1,
          13, 26, 12, -1,27, 26, 13, -1,16, 27, 13, -1,28, 14, 21, -1,29, 15, 14, -1,28, 29, 
          14, -1,30, 16, 15, -1,29, 30, 15, -1,31, 27, 16, -1,30, 31, 16, -1,17, 19, 24, -1,
          18, 32, 19, -1,20, 33, 18, -1,18, 33, 32, -1,19, 34, 24, -1,19, 32, 34, -1,25, 35, 
          20, -1,20, 35, 33, -1,22, 28, 21, -1,36, 28, 22, -1,23, 36, 22, -1,34, 36, 23, -1,
          24, 34, 23, -1,37, 35, 25, -1,37, 25, 26, -1,37, 26, 27, -1,37, 27, 31, -1,38, 29, 
          28, -1,36, 38, 28, -1,39, 30, 29, -1,38, 39, 29, -1,40, 31, 30, -1,39, 40, 30, -1,
          37, 31, 40, -1,32, 41, 34, -1,33, 42, 32, -1,32, 42, 41, -1,35, 43, 33, -1,33, 43, 
          42, -1,34, 41, 36, -1,37, 43, 35, -1,41, 38, 36, -1,37, 44, 43, -1,37, 45, 44, -1,
          37, 40, 45, -1,46, 39, 38, -1,41, 46, 38, -1,45, 40, 39, -1,46, 45, 39, -1,42, 46, 
          41, -1,43, 44, 42, -1,42, 44, 46, -1,44, 45, 46, -1
        ]
        normalPerVertex TRUE
        normalIndex [
          0, 1, 2, -1,3, 0, 2, -1,0, 4, 1, -1,5, 0, 3, -1,6, 4, 0, -1,5, 6, 0, -1,2, 1, 7, -1,
          1, 8, 7, -1,4, 9, 1, -1,1, 9, 8, -1,3, 2, 10, -1,2, 7, 10, -1,11, 5, 3, -1,11, 3, 
          10, -1,4, 12, 9, -1,13, 12, 4, -1,6, 13, 4, -1,14, 5, 11, -1,15, 6, 5, -1,14, 15, 
          5, -1,16, 13, 6, -1,15, 16, 6, -1,7, 8, 17, -1,7, 17, 10, -1,9, 18, 8, -1,8, 19, 
          17, -1,8, 18, 19, -1,12, 20, 9, -1,9, 20, 18, -1,21, 11, 10, -1,22, 21, 10, -1,23, 
          22, 10, -1,24, 23, 10, -1,17, 24, 10, -1,21, 14, 11, -1,12, 25, 20, -1,26, 25, 12, -1,
          13, 26, 12, -1,27, 26, 13, -1,16, 27, 13, -1,28, 14, 21, -1,29, 15, 14, -1,28, 29, 
          14, -1,30, 16, 15, -1,29, 30, 15, -1,31, 27, 16, -1,30, 31, 16, -1,17, 19, 24, -1,
          18, 32, 19, -1,20, 33, 18, -1,18, 33, 32, -1,19, 34, 24, -1,19, 32, 34, -1,25, 35, 
          20, -1,20, 35, 33, -1,22, 28, 21, -1,36, 28, 22, -1,23, 36, 22, -1,34, 36, 23, -1,
          24, 34, 23, -1,37, 35, 25, -1,37, 25, 26, -1,37, 26, 27, -1,37, 27, 31, -1,38, 29, 
          28, -1,36, 38, 28, -1,39, 30, 29, -1,38, 39, 29, -1,40, 31, 30, -1,39, 40, 30, -1,
          37, 31, 40, -1,32, 41, 34, -1,33, 42, 32, -1,32, 42, 41, -1,35, 43, 33, -1,33, 43, 
          42, -1,34, 41, 36, -1,37, 43, 35, -1,41, 38, 36, -1,37, 44, 43, -1,37, 45, 44, -1,
          37, 40, 45, -1,46, 39, 38, -1,41, 46, 38, -1,45, 40, 39, -1,46, 45, 39, -1,42, 46, 
          41, -1,43, 44, 42, -1,42, 44, 46, -1,44, 45, 46, -1
        ]
      }
    }
  ]
}
