#VRML V2.0 utf8

# Produced by 3D Exploration VRML exporter
# http://www.xdsoft.com/explorer/

DEF object0 Transform {
  children [
    Shape {
      appearance Appearance {
        material Material {
          diffuseColor 0.800000 0.800000 0.800000
          emissiveColor 0.000000 0.000000 0.000000
          specularColor 0.400000 0.400000 0.400000
          ambientIntensity 0.200000
          shininess 0.250000
        }
      }
      geometry IndexedFaceSet {
        coord Coordinate { point [
          # points 58
          -0.009206 -0.009752 -0.019555, -0.007978 -0.011558 -0.018274, -0.011309 -0.00949 -0.013242, -0.011046 -0.0079 -0.016037, 
          -0.006374 -0.006689 -0.022715, -0.010327 -0.004271 -0.019203, -0.00438 -0.010251 -0.023521, 0.000553 -0.0115 -0.018244, 
          -0.001104 -0.008774 -0.011892, -0.012205 -0.008676 -0.009569, -0.002941 -0.007531 -0.008647, -0.011638 -0.006101 -0.015157, 
          -0.006775 -0.002567 -0.022158, -0.009859 -0.00262 -0.019549, -0.010879 -0.001449 -0.017504, -0.011478 -0.001958 -0.014946, 
          -0.011607 -0.003919 -0.014906, 0.000995 -0.009122 -0.020174, -0.001957 -0.004243 -0.021691, 0.003426 -0.009499 -0.014137, 
          0.00211 -0.007254 -0.012075, -0.000679 -0.004965 -0.008983, -0.012212 -0.00368 -0.009345, -0.003456 0.000824 -0.008639, 
          -0.000477 -0.002037 -0.009044, -0.00976 0.001162 -0.019056, -0.009697 0.006385 -0.010149, -0.012709 0.000786 -0.010161, 
          0.001698 -0.003785 -0.020821, 0.004172 -0.0063 -0.018117, 0.005574 -0.00961 -0.012787, 0.004815 -0.007582 -0.012157, 
          0.003726 -0.005334 -0.012856, 0.003354 -0.003656 -0.013105, -0.002007 0.002916 -0.008978, 0.000738 0.000588 -0.009779, 
          0.00368 -0.002174 -0.013716, 0.000491 0.000302 -0.017143, -0.001292 0.007319 -0.012559, 0.004029 -0.002295 -0.018412, 
          0.0069 -0.005779 -0.016852, 0.005194 -0.008596 -0.012472, 0.010283 -0.006294 -0.012912, 0.009802 -0.007055 -0.012703, 
          0.00932 -0.007818 -0.012494, 0.008539 -0.008341 -0.011282, 0.008674 -0.007663 -0.010899, 0.008807 -0.006982 -0.010514, 
          0.00094 0.002778 -0.012852, 0.005105 -0.001617 -0.014736, 0.009273 -0.006103 -0.010317, 0.001604 0.000245 -0.016204, 
          0.007727 -0.002205 -0.016455, 0.010342 -0.003738 -0.01323, 0.009483 -0.006225 -0.011684, 0.005217 -0.001124 -0.016397, 
          0.009641 -0.004627 -0.010654, 0.010153 -0.003629 -0.011836]
        }
        creaseAngle 0.610865
        normal Normal { vector [
          # normals 58
          -0.744683 -0.417926 -0.52037, -0.336565 -0.917493 -0.211968, -0.522786 -0.850115 0.063243, -0.93494 -0.209361 -0.286452, 
          -0.531549 -0.189611 -0.825532, -0.868917 -0.014985 -0.49473, 0.058525 -0.327819 -0.942926, 0.302021 -0.952153 0.046775, 
          0.249768 -0.823002 0.51018, -0.798514 -0.380159 0.466749, 0.194007 -0.489953 0.849887, -0.975548 -0.054698 -0.212872, 
          -0.294866 0.367299 -0.882126, -0.654486 0.358113 -0.665885, -0.934949 0.157394 -0.317957, -0.943698 0.16074 -0.28913, 
          -0.976515 0.011959 -0.215119, 0.627717 -0.343347 -0.698631, 0.236235 0.369033 -0.898892, 0.332164 -0.942727 -0.030548, 
          0.119314 -0.522348 0.844344, 0.56299 -0.199476 0.80203, -0.794408 0.077186 0.60246, 0.047938 0.06618 0.996656, 
          0.485059 0.014008 0.874369, -0.330398 0.55341 -0.764574, -0.711429 0.61985 -0.331141, -0.800895 0.28573 0.526238, 
          0.41027 0.300063 -0.861186, 0.588737 -0.424203 -0.688071, 0.490775 -0.871256 -0.007314, 0.237067 -0.259105 0.936303, 
          0.067069 0.0517 0.996408, 0.216107 0.098411 0.971397, 0.208632 0.39103 0.89642, 0.612318 0.141172 0.777906, 
          0.335281 0.179145 0.924929, 0.228314 0.709923 -0.666245, 0.642225 0.738726 0.204524, 0.482279 0.402752 -0.777944, 
          0.588927 -0.305338 -0.748287, 0.699712 -0.462427 0.544576, 0.865857 -0.420974 -0.270321, 0.770716 -0.633336 0.069873, 
          0.606676 -0.772484 0.18765, 0.354529 -0.596307 0.720227, 0.118905 -0.384764 0.915324, 0.167685 -0.219264 0.961148, 
          0.761151 0.621806 0.184407, 0.452265 0.597845 0.661844, 0.340868 0.154683 0.927298, 0.453813 0.593892 -0.664339, 
          0.530142 0.475094 -0.702307, 0.979677 0.121976 -0.159231, 0.896401 -0.286149 0.338502, 0.363155 0.930356 -0.05055, 
          0.521314 0.513831 0.681329, 0.750774 0.591984 0.293076]
        }
        coordIndex [
          0, 1, 2, -1,0, 2, 3, -1,4, 1, 0, -1,0, 3, 5, -1,4, 0, 5, -1,4, 6, 1, -1,1, 7, 8, -1,
          1, 8, 2, -1,6, 7, 1, -1,3, 2, 9, -1,2, 8, 10, -1,2, 10, 9, -1,3, 9, 11, -1,3, 11, 
          5, -1,12, 6, 4, -1,12, 4, 5, -1,13, 12, 5, -1,14, 13, 5, -1,15, 14, 5, -1,16, 15, 
          5, -1,11, 16, 5, -1,6, 17, 7, -1,12, 18, 6, -1,18, 17, 6, -1,7, 19, 20, -1,7, 20, 
          8, -1,17, 19, 7, -1,8, 20, 21, -1,8, 21, 10, -1,11, 9, 22, -1,9, 10, 23, -1,9, 23, 
          22, -1,10, 21, 24, -1,10, 24, 23, -1,11, 22, 16, -1,13, 18, 12, -1,13, 25, 18, -1,
          14, 25, 13, -1,14, 26, 25, -1,15, 26, 14, -1,15, 27, 26, -1,16, 27, 15, -1,16, 22, 
          27, -1,18, 28, 17, -1,17, 29, 19, -1,28, 29, 17, -1,25, 28, 18, -1,29, 30, 19, -1,
          30, 20, 19, -1,30, 31, 20, -1,20, 31, 32, -1,20, 32, 21, -1,21, 32, 33, -1,21, 33, 
          24, -1,22, 23, 34, -1,22, 34, 27, -1,23, 24, 35, -1,23, 35, 34, -1,24, 33, 36, -1,
          24, 36, 35, -1,25, 37, 28, -1,26, 37, 25, -1,26, 38, 37, -1,27, 38, 26, -1,27, 34, 
          38, -1,28, 39, 29, -1,37, 39, 28, -1,29, 40, 30, -1,39, 40, 29, -1,30, 41, 31, -1,
          40, 42, 30, -1,30, 42, 43, -1,30, 43, 41, -1,41, 44, 31, -1,31, 44, 45, -1,31, 45, 
          32, -1,32, 45, 46, -1,32, 46, 33, -1,33, 46, 47, -1,33, 47, 36, -1,34, 35, 48, -1,
          34, 48, 38, -1,35, 36, 49, -1,35, 49, 48, -1,36, 47, 50, -1,36, 50, 49, -1,37, 51, 
          39, -1,38, 51, 37, -1,38, 48, 51, -1,39, 52, 40, -1,51, 52, 39, -1,40, 53, 42, -1,
          52, 53, 40, -1,41, 43, 44, -1,54, 42, 53, -1,54, 43, 42, -1,54, 44, 43, -1,54, 45, 
          44, -1,54, 46, 45, -1,54, 47, 46, -1,54, 50, 47, -1,48, 49, 55, -1,48, 55, 51, -1,
          49, 50, 56, -1,49, 56, 55, -1,54, 56, 50, -1,51, 55, 52, -1,52, 57, 53, -1,55, 57, 
          52, -1,54, 53, 57, -1,54, 57, 56, -1,55, 56, 57, -1
        ]
        normalPerVertex TRUE
        normalIndex [
          0, 1, 2, -1,0, 2, 3, -1,4, 1, 0, -1,0, 3, 5, -1,4, 0, 5, -1,4, 6, 1, -1,1, 7, 8, -1,
          1, 8, 2, -1,6, 7, 1, -1,3, 2, 9, -1,2, 8, 10, -1,2, 10, 9, -1,3, 9, 11, -1,3, 11, 
          5, -1,12, 6, 4, -1,12, 4, 5, -1,13, 12, 5, -1,14, 13, 5, -1,15, 14, 5, -1,16, 15, 
          5, -1,11, 16, 5, -1,6, 17, 7, -1,12, 18, 6, -1,18, 17, 6, -1,7, 19, 20, -1,7, 20, 
          8, -1,17, 19, 7, -1,8, 20, 21, -1,8, 21, 10, -1,11, 9, 22, -1,9, 10, 23, -1,9, 23, 
          22, -1,10, 21, 24, -1,10, 24, 23, -1,11, 22, 16, -1,13, 18, 12, -1,13, 25, 18, -1,
          14, 25, 13, -1,14, 26, 25, -1,15, 26, 14, -1,15, 27, 26, -1,16, 27, 15, -1,16, 22, 
          27, -1,18, 28, 17, -1,17, 29, 19, -1,28, 29, 17, -1,25, 28, 18, -1,29, 30, 19, -1,
          30, 20, 19, -1,30, 31, 20, -1,20, 31, 32, -1,20, 32, 21, -1,21, 32, 33, -1,21, 33, 
          24, -1,22, 23, 34, -1,22, 34, 27, -1,23, 24, 35, -1,23, 35, 34, -1,24, 33, 36, -1,
          24, 36, 35, -1,25, 37, 28, -1,26, 37, 25, -1,26, 38, 37, -1,27, 38, 26, -1,27, 34, 
          38, -1,28, 39, 29, -1,37, 39, 28, -1,29, 40, 30, -1,39, 40, 29, -1,30, 41, 31, -1,
          40, 42, 30, -1,30, 42, 43, -1,30, 43, 41, -1,41, 44, 31, -1,31, 44, 45, -1,31, 45, 
          32, -1,32, 45, 46, -1,32, 46, 33, -1,33, 46, 47, -1,33, 47, 36, -1,34, 35, 48, -1,
          34, 48, 38, -1,35, 36, 49, -1,35, 49, 48, -1,36, 47, 50, -1,36, 50, 49, -1,37, 51, 
          39, -1,38, 51, 37, -1,38, 48, 51, -1,39, 52, 40, -1,51, 52, 39, -1,40, 53, 42, -1,
          52, 53, 40, -1,41, 43, 44, -1,54, 42, 53, -1,54, 43, 42, -1,54, 44, 43, -1,54, 45, 
          44, -1,54, 46, 45, -1,54, 47, 46, -1,54, 50, 47, -1,48, 49, 55, -1,48, 55, 51, -1,
          49, 50, 56, -1,49, 56, 55, -1,54, 56, 50, -1,51, 55, 52, -1,52, 57, 53, -1,55, 57, 
          52, -1,54, 53, 57, -1,54, 57, 56, -1,55, 56, 57, -1
        ]
      }
    }
  ]
}
DEF object1 Transform {
  children [
    Shape {
      appearance Appearance {
        material Material {
          diffuseColor 0.800000 0.800000 0.800000
          emissiveColor 0.000000 0.000000 0.000000
          specularColor 0.400000 0.400000 0.400000
          ambientIntensity 0.200000
          shininess 0.250000
        }
      }
      geometry IndexedFaceSet {
        coord Coordinate { point [
          # points 56
          -0.001492 0.000146 0.006483, -0.000748 -0.000247 0.005918, -0.000814 0.00634 0.005295, -0.002626 0.012072 0.005469, 
          -0.010114 0.000468 0.00514, -0.015149 -0.00815 0.001522, -0.004225 -0.009111 0.004203, -0.001291 -0.008902 0.005352, 
          0.000268 -0.000349 0.004592, -0.000276 0.002722 0.004211, 0.000205 0.002926 0.002616, -4.7e-005 0.006862 0.002673, 
          -0.007997 0.008535 0.005065, -0.000926 0.012192 0.000881, -0.01021 0.000594 0.003223, -0.014962 -0.007756 -0.002016, 
          -0.014491 -0.008602 -0.004044, -0.014459 -0.010307 -0.004654, -0.001389 -0.009861 0.000511, -0.000358 -0.00667 0.004114, 
          -0.000392 -0.009216 0.001784, 0.000173 -0.001557 0.002192, 0.001051 0.002488 -0.000152, 0.000759 0.005559 -0.001892, 
          -0.009653 0.010516 0.000411, -0.010073 0.004784 0.003887, 0.001207 0.010482 -0.006364, -0.010824 0.000786 0.000175, 
          -0.014224 -0.004029 -0.002433, -0.013176 -0.003147 -0.003238, -0.013045 -0.002892 -0.004397, -0.014504 -0.007593 -0.00626, 
          -0.011304 -0.010506 -0.008681, -0.005034 -0.008889 -0.006183, -0.000749 -0.007452 0.002035, -0.000609 -0.007369 -0.000967, 
          -5e-005 -0.005411 0.001025, -4.2e-005 -0.002601 0.00064, 0.001508 0.000337 0.000649, 0.000509 0.000572 -0.002406, 
          -0.010399 0.006982 0.000349, -0.006982 0.007725 -0.008731, -0.010782 0.002548 0.000183, -0.000228 0.001604 -0.004506, 
          -0.011804 4.7e-005 -0.002675, -0.012074 -0.001566 -0.004632, -0.011688 -0.001995 -0.006096, -0.010266 -0.002356 -0.008543, 
          -0.001768 -0.00297 -0.005322, -0.000407 -0.003306 -0.001977, -0.009601 0.005368 -0.004808, -0.010946 0.003641 -0.001588, 
          -0.009066 0.00235 -0.00827, -0.010331 0.003539 -0.002659, -0.010347 0.000864 -0.003787, -0.010311 0.001119 -0.00579]
        }
        creaseAngle 0.610865
        normal Normal { vector [
          # normals 56
          0.17922 -0.097408 0.978975, 0.622705 -0.025553 0.782039, 0.853612 0.110264 0.509106, 0.372361 0.398545 0.838158, 
          -0.69469 0.225697 0.682983, -0.821172 -0.291951 0.490349, -0.074335 -0.710148 0.700118, 0.592808 -0.543451 0.594339, 
          0.94489 0.012781 0.327138, 0.954551 0.089047 0.284434, 0.956697 0.019833 0.290409, 0.953485 0.171093 0.248181, 
          -0.641483 0.480562 0.597963, 0.504039 0.844443 0.181276, -0.902091 0.239272 0.359139, -0.967229 0.220657 -0.125609, 
          -0.993833 0.076592 -0.080182, -0.666683 -0.744575 -0.033796, 0.286417 -0.957273 -0.039927, 0.994253 -0.082259 0.068513, 
          0.938066 -0.31735 -0.138999, 0.980387 -0.048513 0.191017, 0.878619 0.199862 0.433686, 0.983131 0.136154 0.122126, 
          -0.687807 0.725255 0.030435, -0.918494 0.08896 0.385298, 0.78461 0.412774 -0.462606, -0.951848 0.21606 0.217492, 
          -0.914283 0.388075 -0.116119, -0.887225 0.288428 -0.360057, -0.907722 0.384487 -0.167962, -0.889762 0.188257 -0.415791, 
          -0.331893 -0.488306 -0.807096, 0.621171 -0.400621 -0.673535, 0.999159 -0.040547 0.00607, 0.939553 -0.223115 -0.259732, 
          0.992381 -0.12234 -0.014565, 0.965264 -0.244179 -0.092966, 0.974073 -0.043722 0.221971, 0.943002 -0.211053 -0.257301, 
          -0.971866 0.227695 -0.060267, -0.523203 0.350505 -0.776792, -0.977895 0.075331 0.195054, 0.671725 -0.205963 -0.711593, 
          -0.891931 0.397971 -0.214659, -0.748027 0.529681 -0.399867, -0.799756 0.391503 -0.455099, -0.327057 0.142716 -0.934166, 
          0.659068 -0.139525 -0.739028, 0.949053 -0.165215 -0.268333, -0.920778 0.219154 -0.322707, -0.97237 0.142916 -0.184584, 
          -0.376783 0.13415 -0.916536, -0.913077 0.133383 -0.385356, -0.853085 0.41909 -0.31082, -0.939933 0.255109 -0.226814]
        }
        coordIndex [
          0, 1, 2, -1,0, 2, 3, -1,4, 0, 3, -1,5, 6, 0, -1,5, 0, 4, -1,6, 1, 0, -1,6, 7, 1, -1,
          1, 8, 9, -1,1, 9, 2, -1,7, 8, 1, -1,2, 9, 10, -1,2, 10, 11, -1,3, 2, 11, -1,4, 3, 
          12, -1,3, 11, 13, -1,12, 3, 13, -1,14, 4, 12, -1,15, 5, 4, -1,15, 4, 14, -1,16, 17, 
          5, -1,16, 5, 15, -1,17, 6, 5, -1,17, 18, 6, -1,18, 7, 6, -1,7, 19, 8, -1,18, 20, 
          7, -1,20, 19, 7, -1,21, 9, 8, -1,21, 8, 19, -1,21, 10, 9, -1,11, 10, 22, -1,21, 22, 
          10, -1,11, 22, 23, -1,13, 11, 23, -1,12, 13, 24, -1,14, 12, 25, -1,25, 12, 24, -1,
          13, 23, 26, -1,24, 13, 26, -1,27, 14, 25, -1,28, 15, 14, -1,28, 14, 27, -1,29, 16, 
          15, -1,29, 15, 28, -1,30, 31, 16, -1,30, 16, 29, -1,31, 17, 16, -1,31, 32, 17, -1,
          32, 18, 17, -1,32, 33, 18, -1,33, 20, 18, -1,20, 34, 19, -1,21, 19, 34, -1,33, 35, 
          20, -1,35, 34, 20, -1,21, 34, 36, -1,21, 36, 37, -1,21, 37, 38, -1,21, 38, 22, -1,
          23, 22, 38, -1,23, 38, 39, -1,26, 23, 39, -1,25, 24, 40, -1,24, 26, 41, -1,40, 24, 
          41, -1,27, 25, 42, -1,42, 25, 40, -1,26, 39, 43, -1,41, 26, 43, -1,27, 42, 44, -1,
          28, 27, 44, -1,29, 28, 44, -1,30, 29, 44, -1,45, 31, 30, -1,45, 30, 44, -1,45, 46, 
          31, -1,46, 32, 31, -1,46, 47, 32, -1,47, 33, 32, -1,47, 48, 33, -1,48, 35, 33, -1,
          35, 36, 34, -1,48, 49, 35, -1,49, 36, 35, -1,49, 37, 36, -1,39, 38, 37, -1,39, 37, 
          49, -1,43, 39, 49, -1,40, 41, 50, -1,42, 40, 51, -1,51, 40, 50, -1,41, 43, 52, -1,
          50, 41, 52, -1,42, 51, 44, -1,43, 49, 48, -1,52, 43, 48, -1,51, 53, 44, -1,53, 54, 
          44, -1,54, 45, 44, -1,54, 46, 45, -1,55, 47, 46, -1,54, 55, 46, -1,52, 48, 47, -1,
          55, 52, 47, -1,51, 50, 53, -1,50, 52, 55, -1,53, 50, 55, -1,53, 55, 54, -1
        ]
        normalPerVertex TRUE
        normalIndex [
          0, 1, 2, -1,0, 2, 3, -1,4, 0, 3, -1,5, 6, 0, -1,5, 0, 4, -1,6, 1, 0, -1,6, 7, 1, -1,
          1, 8, 9, -1,1, 9, 2, -1,7, 8, 1, -1,2, 9, 10, -1,2, 10, 11, -1,3, 2, 11, -1,4, 3, 
          12, -1,3, 11, 13, -1,12, 3, 13, -1,14, 4, 12, -1,15, 5, 4, -1,15, 4, 14, -1,16, 17, 
          5, -1,16, 5, 15, -1,17, 6, 5, -1,17, 18, 6, -1,18, 7, 6, -1,7, 19, 8, -1,18, 20, 
          7, -1,20, 19, 7, -1,21, 9, 8, -1,21, 8, 19, -1,21, 10, 9, -1,11, 10, 22, -1,21, 22, 
          10, -1,11, 22, 23, -1,13, 11, 23, -1,12, 13, 24, -1,14, 12, 25, -1,25, 12, 24, -1,
          13, 23, 26, -1,24, 13, 26, -1,27, 14, 25, -1,28, 15, 14, -1,28, 14, 27, -1,29, 16, 
          15, -1,29, 15, 28, -1,30, 31, 16, -1,30, 16, 29, -1,31, 17, 16, -1,31, 32, 17, -1,
          32, 18, 17, -1,32, 33, 18, -1,33, 20, 18, -1,20, 34, 19, -1,21, 19, 34, -1,33, 35, 
          20, -1,35, 34, 20, -1,21, 34, 36, -1,21, 36, 37, -1,21, 37, 38, -1,21, 38, 22, -1,
          23, 22, 38, -1,23, 38, 39, -1,26, 23, 39, -1,25, 24, 40, -1,24, 26, 41, -1,40, 24, 
          41, -1,27, 25, 42, -1,42, 25, 40, -1,26, 39, 43, -1,41, 26, 43, -1,27, 42, 44, -1,
          28, 27, 44, -1,29, 28, 44, -1,30, 29, 44, -1,45, 31, 30, -1,45, 30, 44, -1,45, 46, 
          31, -1,46, 32, 31, -1,46, 47, 32, -1,47, 33, 32, -1,47, 48, 33, -1,48, 35, 33, -1,
          35, 36, 34, -1,48, 49, 35, -1,49, 36, 35, -1,49, 37, 36, -1,39, 38, 37, -1,39, 37, 
          49, -1,43, 39, 49, -1,40, 41, 50, -1,42, 40, 51, -1,51, 40, 50, -1,41, 43, 52, -1,
          50, 41, 52, -1,42, 51, 44, -1,43, 49, 48, -1,52, 43, 48, -1,51, 53, 44, -1,53, 54, 
          44, -1,54, 45, 44, -1,54, 46, 45, -1,55, 47, 46, -1,54, 55, 46, -1,52, 48, 47, -1,
          55, 52, 47, -1,51, 50, 53, -1,50, 52, 55, -1,53, 50, 55, -1,53, 55, 54, -1
        ]
      }
    }
  ]
}
DEF object2 Transform {
  children [
    Shape {
      appearance Appearance {
        material Material {
          diffuseColor 0.800000 0.800000 0.800000
          emissiveColor 0.000000 0.000000 0.000000
          specularColor 0.400000 0.400000 0.400000
          ambientIntensity 0.200000
          shininess 0.250000
        }
      }
      geometry IndexedFaceSet {
        coord Coordinate { point [
          # points 34
          0.002869 -0.003194 0.009323, 0.002 -0.002054 0.006929, 0.003007 0.000471 0.007115, 0.003297 -0.00231 0.009568, 
          0.002307 -0.004833 0.009648, 0.002549 -0.004326 0.010817, 0.001063 -0.007144 0.008105, -0.008883 -0.00109 0.006264, 
          -0.003988 0.002213 0.007834, 0.003648 -0.000546 0.010134, -0.005764 0.002535 0.011056, 0.003131 -0.002449 0.010663, 
          0.002358 -0.005802 0.011012, 0.002035 -0.005716 0.011847, 0.002535 -0.004451 0.011806, 0.00186 -0.005851 0.012673, 
          -0.011355 -0.00741 0.006465, 0.001211 -0.0081 0.010823, -0.011142 -0.002261 0.009408, -0.010397 -0.000854 0.00963, 
          -0.009193 0.000105 0.012535, 0.004098 -0.001648 0.013628, -0.0076 0.001595 0.016504, -0.008843 0.000258 0.014418, 
          -5.3e-005 -0.008332 0.013627, -0.001369 -0.006993 0.015889, -0.012819 -0.008144 0.011194, -0.012044 -0.004417 0.009479, 
          -0.010877 -0.002469 0.012014, -0.008805 -0.00303 0.017973, -0.01056 -0.003069 0.015365, -0.01193 -0.007091 0.014933, 
          -0.012928 -0.005354 0.011451, -0.011904 -0.004161 0.01383]
        }
        creaseAngle 0.610865
        normal Normal { vector [
          # normals 34
          0.885588 -0.347159 -0.308567, 0.521878 -0.146017 -0.84043, 0.814935 0.330942 -0.475771, 0.954789 -0.273635 -0.1162, 
          0.922374 -0.286963 -0.258608, 0.958082 -0.284483 0.033875, 0.607593 -0.465288 -0.64369, -0.387391 0.344315 -0.855205, 
          -0.273067 0.782424 -0.559684, 0.873723 0.477245 0.094049, -0.189538 0.981765 0.014611, 0.951545 -0.304587 -0.042287, 
          0.954991 -0.295315 0.027935, 0.89215 -0.363223 0.268584, 0.917609 -0.358432 0.171816, 0.885286 -0.323439 0.33415, 
          -0.617686 -0.340794 -0.708748, 0.524624 -0.851236 -0.012963, -0.883107 0.406598 -0.234095, -0.732906 0.67321 -0.098169, 
          -0.700519 0.712514 -0.039961, 0.862891 -0.020245 0.504985, -0.306406 0.829111 0.467644, -0.771031 0.630972 0.08594, 
          0.447311 -0.826677 0.341347, 0.462523 -0.428277 0.776306, -0.70055 -0.707151 -0.095751, -0.926353 0.287649 -0.243162, 
          -0.843644 0.525287 0.11108, -0.394115 0.117446 0.911526, -0.826174 0.45773 0.328511, -0.64181 -0.467686 0.607741, 
          -0.962922 0.267569 0.034457, -0.858101 0.375896 0.349806]
        }
        coordIndex [
          0, 1, 2, -1,0, 2, 3, -1,4, 1, 0, -1,5, 4, 0, -1,5, 0, 3, -1,4, 6, 1, -1,6, 7, 1, -1,
          1, 7, 8, -1,1, 8, 2, -1,3, 2, 9, -1,2, 8, 10, -1,2, 10, 9, -1,3, 9, 11, -1,5, 3, 
          11, -1,12, 6, 4, -1,5, 12, 4, -1,5, 13, 12, -1,5, 11, 14, -1,5, 14, 15, -1,5, 15, 
          13, -1,6, 16, 7, -1,12, 17, 6, -1,17, 16, 6, -1,16, 18, 7, -1,7, 18, 19, -1,7, 19, 
          8, -1,8, 19, 20, -1,8, 20, 10, -1,11, 9, 21, -1,9, 10, 22, -1,9, 22, 21, -1,10, 20, 
          23, -1,10, 23, 22, -1,11, 21, 14, -1,13, 17, 12, -1,13, 24, 17, -1,15, 24, 13, -1,
          14, 21, 25, -1,14, 25, 15, -1,15, 25, 24, -1,17, 26, 16, -1,26, 27, 16, -1,16, 27, 
          18, -1,24, 26, 17, -1,18, 27, 28, -1,19, 18, 28, -1,20, 19, 28, -1,23, 20, 28, -1,
          21, 22, 29, -1,21, 29, 25, -1,22, 23, 30, -1,22, 30, 29, -1,30, 23, 28, -1,24, 31, 
          26, -1,25, 31, 24, -1,25, 29, 31, -1,26, 32, 27, -1,31, 32, 26, -1,27, 32, 28, -1,
          32, 33, 28, -1,33, 30, 28, -1,29, 30, 33, -1,29, 33, 31, -1,31, 33, 32, -1
        ]
        normalPerVertex TRUE
        normalIndex [
          0, 1, 2, -1,0, 2, 3, -1,4, 1, 0, -1,5, 4, 0, -1,5, 0, 3, -1,4, 6, 1, -1,6, 7, 1, -1,
          1, 7, 8, -1,1, 8, 2, -1,3, 2, 9, -1,2, 8, 10, -1,2, 10, 9, -1,3, 9, 11, -1,5, 3, 
          11, -1,12, 6, 4, -1,5, 12, 4, -1,5, 13, 12, -1,5, 11, 14, -1,5, 14, 15, -1,5, 15, 
          13, -1,6, 16, 7, -1,12, 17, 6, -1,17, 16, 6, -1,16, 18, 7, -1,7, 18, 19, -1,7, 19, 
          8, -1,8, 19, 20, -1,8, 20, 10, -1,11, 9, 21, -1,9, 10, 22, -1,9, 22, 21, -1,10, 20, 
          23, -1,10, 23, 22, -1,11, 21, 14, -1,13, 17, 12, -1,13, 24, 17, -1,15, 24, 13, -1,
          14, 21, 25, -1,14, 25, 15, -1,15, 25, 24, -1,17, 26, 16, -1,26, 27, 16, -1,16, 27, 
          18, -1,24, 26, 17, -1,18, 27, 28, -1,19, 18, 28, -1,20, 19, 28, -1,23, 20, 28, -1,
          21, 22, 29, -1,21, 29, 25, -1,22, 23, 30, -1,22, 30, 29, -1,30, 23, 28, -1,24, 31, 
          26, -1,25, 31, 24, -1,25, 29, 31, -1,26, 32, 27, -1,31, 32, 26, -1,27, 32, 28, -1,
          32, 33, 28, -1,33, 30, 28, -1,29, 30, 33, -1,29, 33, 31, -1,31, 33, 32, -1
        ]
      }
    }
  ]
}
DEF object3 Transform {
  children [
    Shape {
      appearance Appearance {
        material Material {
          diffuseColor 0.800000 0.800000 0.800000
          emissiveColor 0.000000 0.000000 0.000000
          specularColor 0.400000 0.400000 0.400000
          ambientIntensity 0.200000
          shininess 0.250000
        }
      }
      geometry IndexedFaceSet {
        coord Coordinate { point [
          # points 47
          0.008651 -0.003654 0.013486, 0.003194 -0.004816 0.014902, 0.004714 -0.002639 0.013221, 0.008519 -0.002234 0.012494, 
          0.007812 -0.004233 0.013966, 0.009526 -0.000886 0.01309, 0.003378 -0.005259 0.015955, -0.001586 -0.010303 0.018955, 
          0.001598 -0.005798 0.013862, 0.005228 0.000989 0.012478, 0.002565 0.000164 0.009697, 0.008777 0.00067 0.011485, 
          0.009424 -0.004055 0.01438, 0.010129 0.003693 0.011317, 0.011108 0.004234 0.012773, 0.010921 0.000117 0.013682, 
          0.010394 -0.00251 0.014217, -0.000443 -0.010596 0.021722, 0.007036 -0.005017 0.015536, -0.007378 -0.007607 0.022133, 
          -0.008734 -0.003699 0.019655, -0.004564 0.002543 0.016396, 0.007573 0.004745 0.01152, 0.007175 0.006446 0.012876, 
          0.001211 0.006414 0.017896, 0.010631 0.005947 0.013874, 0.010505 0.001622 0.015874, 0.009455 -0.002457 0.0173, 
          0.005947 -0.006116 0.016316, -0.003445 -0.008625 0.023809, -0.00605 -0.002591 0.022948, -0.006303 -0.000753 0.021163, 
          -0.004049 0.001432 0.019848, -0.001079 0.003642 0.020304, 0.008431 0.006728 0.016217, 0.002958 0.007761 0.020606, 
          -1.4e-005 0.005553 0.02014, 0.009778 0.002816 0.017275, 0.009301 -0.00021 0.022569, 0.001263 -0.003095 0.023733, 
          -0.004316 -0.001649 0.023102, -0.002407 0.001262 0.021798, 0.002356 0.006147 0.023485, 0.000284 0.003298 0.022451, 
          0.005603 0.003526 0.024965, -0.001496 0.000393 0.022467, 0.001367 0.002032 0.023759]
        }
        creaseAngle 0.610865
        normal Normal { vector [
          # normals 47
          0.316139 -0.651947 -0.689218, 0.298793 -0.774541 -0.557502, 0.272832 -0.52959 -0.803179, 0.221933 -0.381047 -0.897524, 
          0.264364 -0.86244 -0.431636, 0.699084 -0.327982 -0.635382, 0.215297 -0.857637 -0.467018, 0.050278 -0.882167 -0.468246, 
          -0.004247 -0.637336 -0.770574, 0.002384 -0.143363 -0.989667, 0.098744 0.009279 -0.99507, 0.179538 -0.231876 -0.956033, 
          0.381921 -0.775465 -0.502783, 0.550916 0.147954 -0.821341, 0.936894 0.034749 -0.347882, 0.9588 -0.185569 -0.215099, 
          0.866847 -0.491218 -0.08533, -0.109733 -0.981016 -0.159892, 0.33463 -0.896154 -0.291429, -0.782748 -0.470625 0.407207, 
          -0.940557 0.092249 -0.326869, -0.788778 0.554499 -0.265255, -0.026188 0.505273 -0.862562, 0.040032 0.770068 -0.636704, 
          -0.562875 0.781711 -0.268515, 0.762863 0.637971 -0.105042, 0.968648 0.026566 0.247013, 0.858823 -0.463438 0.218286, 
          0.614424 -0.645876 0.45313, 0.050079 -0.247647 0.967555, -0.500727 0.312119 0.807375, -0.71393 0.537057 0.449303, 
          -0.632447 0.71115 0.307043, -0.735957 0.651285 0.184921, 0.575101 0.800502 0.168687, -0.324078 0.930462 0.170923, 
          -0.749135 0.629894 0.205013, 0.797359 0.443456 0.409348, 0.816441 -0.251649 0.519709, 0.147637 -0.224111 0.963316, 
          -0.161778 0.32273 0.932563, -0.520263 0.551404 0.652135, -0.005681 0.664527 0.747243, -0.638235 0.475724 0.605262, 
          0.205404 0.136835 0.969064, -0.227845 0.094733 0.969078, -0.426438 0.063732 0.902269]
        }
        coordIndex [
          0, 1, 2, -1,0, 2, 3, -1,4, 1, 0, -1,5, 0, 3, -1,5, 4, 0, -1,4, 6, 1, -1,1, 7, 8, -1,
          1, 8, 2, -1,6, 7, 1, -1,3, 2, 9, -1,2, 8, 10, -1,2, 10, 9, -1,3, 9, 11, -1,5, 3, 
          11, -1,12, 6, 4, -1,5, 12, 4, -1,5, 11, 13, -1,5, 13, 14, -1,5, 14, 15, -1,5, 15, 
          16, -1,5, 16, 12, -1,6, 17, 7, -1,12, 18, 6, -1,18, 17, 6, -1,7, 19, 20, -1,7, 20, 
          8, -1,17, 19, 7, -1,8, 20, 21, -1,8, 21, 10, -1,11, 9, 22, -1,9, 10, 23, -1,9, 23, 
          22, -1,10, 21, 24, -1,10, 24, 23, -1,11, 22, 13, -1,16, 18, 12, -1,13, 22, 25, -1,
          13, 25, 14, -1,14, 25, 26, -1,14, 26, 15, -1,15, 26, 27, -1,15, 27, 16, -1,16, 27, 
          18, -1,18, 28, 17, -1,17, 29, 19, -1,28, 29, 17, -1,27, 28, 18, -1,19, 30, 31, -1,
          19, 31, 20, -1,29, 30, 19, -1,20, 31, 32, -1,20, 32, 21, -1,21, 32, 33, -1,21, 33, 
          24, -1,22, 23, 34, -1,22, 34, 25, -1,23, 24, 35, -1,23, 35, 34, -1,24, 33, 36, -1,
          24, 36, 35, -1,25, 34, 37, -1,25, 37, 26, -1,26, 37, 38, -1,26, 38, 27, -1,27, 38, 
          28, -1,28, 39, 29, -1,38, 39, 28, -1,29, 40, 30, -1,39, 40, 29, -1,31, 30, 41, -1,
          30, 40, 41, -1,32, 31, 41, -1,33, 32, 41, -1,36, 33, 41, -1,34, 35, 42, -1,34, 42, 
          37, -1,35, 36, 43, -1,35, 43, 42, -1,43, 36, 41, -1,37, 42, 44, -1,37, 44, 38, -1,
          38, 44, 39, -1,39, 45, 40, -1,44, 45, 39, -1,40, 45, 41, -1,45, 46, 41, -1,46, 43, 
          41, -1,42, 43, 46, -1,42, 46, 44, -1,44, 46, 45, -1
        ]
        normalPerVertex TRUE
        normalIndex [
          0, 1, 2, -1,0, 2, 3, -1,4, 1, 0, -1,5, 0, 3, -1,5, 4, 0, -1,4, 6, 1, -1,1, 7, 8, -1,
          1, 8, 2, -1,6, 7, 1, -1,3, 2, 9, -1,2, 8, 10, -1,2, 10, 9, -1,3, 9, 11, -1,5, 3, 
          11, -1,12, 6, 4, -1,5, 12, 4, -1,5, 11, 13, -1,5, 13, 14, -1,5, 14, 15, -1,5, 15, 
          16, -1,5, 16, 12, -1,6, 17, 7, -1,12, 18, 6, -1,18, 17, 6, -1,7, 19, 20, -1,7, 20, 
          8, -1,17, 19, 7, -1,8, 20, 21, -1,8, 21, 10, -1,11, 9, 22, -1,9, 10, 23, -1,9, 23, 
          22, -1,10, 21, 24, -1,10, 24, 23, -1,11, 22, 13, -1,16, 18, 12, -1,13, 22, 25, -1,
          13, 25, 14, -1,14, 25, 26, -1,14, 26, 15, -1,15, 26, 27, -1,15, 27, 16, -1,16, 27, 
          18, -1,18, 28, 17, -1,17, 29, 19, -1,28, 29, 17, -1,27, 28, 18, -1,19, 30, 31, -1,
          19, 31, 20, -1,29, 30, 19, -1,20, 31, 32, -1,20, 32, 21, -1,21, 32, 33, -1,21, 33, 
          24, -1,22, 23, 34, -1,22, 34, 25, -1,23, 24, 35, -1,23, 35, 34, -1,24, 33, 36, -1,
          24, 36, 35, -1,25, 34, 37, -1,25, 37, 26, -1,26, 37, 38, -1,26, 38, 27, -1,27, 38, 
          28, -1,28, 39, 29, -1,38, 39, 28, -1,29, 40, 30, -1,39, 40, 29, -1,31, 30, 41, -1,
          30, 40, 41, -1,32, 31, 41, -1,33, 32, 41, -1,36, 33, 41, -1,34, 35, 42, -1,34, 42, 
          37, -1,35, 36, 43, -1,35, 43, 42, -1,43, 36, 41, -1,37, 42, 44, -1,37, 44, 38, -1,
          38, 44, 39, -1,39, 45, 40, -1,44, 45, 39, -1,40, 45, 41, -1,45, 46, 41, -1,46, 43, 
          41, -1,42, 43, 46, -1,42, 46, 44, -1,44, 46, 45, -1
        ]
      }
    }
  ]
}
