# 
# Wavefront OBJ file
# Converted by the DEEP Exploration 2.00.1211
# Right Hemisphere, LTD
# http://www.righthemisphere.com/
# 
mtllib femur_r_1f.mtl
# object Object #0
g Object__0
v -0.002485 0.0157887 0.0162622
v 0.002267 0.0203214 0.00774114
v -0.008353 0.0174063 0.0132615
v 0.005013 0.0154177 0.0161821
v -0.001938 0.0123602 0.0188875
v 0.010107 0.0120577 0.0160465
v -0.011733 0.0192437 0.00625692
v -0.008749 0.0218904 -0.00213354
v 1e-005 0.0225513 -0.00650841
v 0.008418 0.0220122 -0.000799517
v 0.012835 0.0178701 0.00427064
v 0.011158 0.0153384 0.0125211
v -0.008158 0.0136786 0.0164718
v -0.014097 0.0155329 0.0103092
v 0.016484 0.0116249 0.0105274
v -0.002308 0.00649566 0.0213063
v 0.00693 0.00699398 0.0197544
v 0.01431 0.00624971 0.0161423
v -0.0154 0.0179607 0.00165766
v -0.01047 0.0202701 -0.00547287
v -0.000161 0.0215929 -0.0094856
v 0.008717 0.0211724 -0.00666369
v 0.01447 0.0180686 -0.00299232
v 0.017318 0.0152066 0.0020581
v -0.009431 0.0079091 0.0191516
v -0.015531 0.00987717 0.013878
v -0.018798 0.0129579 0.00564364
v 0.01975 0.005477 0.00981312
v -0.003142 0.000781452 0.0223312
v 0.002942 -0.000371525 0.0222169
v 0.009514 -0.000864101 0.0201358
v 0.016752 -0.00130112 0.0153017
v -0.016558 0.0164879 -0.00446564
v -0.009495 0.0190282 -0.0105681
v 0.000788 0.0201815 -0.0123709
v 0.009865 0.0189211 -0.0104621
v 0.017219 0.0146852 -0.00577301
v 0.021712 0.0084107 0.00148271
v -0.010106 0.00216888 0.0202154
v -0.016733 0.00403785 0.0154438
v -0.021371 0.00721766 0.00656847
v -0.020732 0.0112015 -0.00232572
v 0.023186 0.00523006 -0.000305935
v 0.021279 -0.000273891 0.00928494
v -0.011544 -0.00424398 0.0195311
v -0.004899 -0.00489441 0.021667
v 0.001573 -0.00641543 0.0217557
v 0.00787 -0.00777207 0.0199714
v 0.016054 -0.00918177 0.0135891
v -0.015423 0.0147921 -0.01016
v -0.007474 0.0171609 -0.0141915
v 0.002291 0.0170733 -0.0163445
v 0.013029 0.0147326 -0.012807
v 0.019412 0.0104467 -0.00858987
v -0.017672 -0.00234901 0.0147895
v -0.022373 0.00138668 0.00649428
v -0.02246 0.00559978 -0.00385286
v -0.017314 0.0105904 -0.0118388
v 0.023141 -0.00101614 -0.00423521
v 0.021058 -0.00754918 0.00580546
v -0.013445 -0.0088354 0.0167082
v -0.019913 -0.00511326 0.011075
v -0.005972 -0.010711 0.0194358
v 0.00198 -0.0129058 0.0188494
v 0.009327 -0.0148171 0.015112
v 0.014706 -0.015471 0.00967785
v -0.008936 0.0145833 -0.016035
v 0.002108 0.0150467 -0.0182309
v 0.013393 0.0110332 -0.0156848
v 0.020966 0.00537706 -0.0101109
v -0.023301 -0.00162724 0.00118267
v -0.021882 0.00305161 -0.00792938
v -0.015668 0.011012 -0.0145078
v -0.006174 0.0137996 -0.0179102
v 0.020997 -0.00948003 -0.00477293
v 0.019198 -0.0136454 0.00191222
v -0.006443 -0.0148224 0.016765
v -0.013328 -0.012644 0.0146654
v -0.019447 -0.00958479 0.00880905
v -0.000481 -0.0177442 0.0155304
v 0.004317 -0.0189107 0.0134861
v 0.008703 -0.0200517 0.00830692
v 0.014092 -0.0190319 -0.000329876
v 0.005619 0.0123349 -0.0192635
v 0.014739 0.00427653 -0.0173191
v 0.019991 -0.00225147 -0.0124225
v -0.023245 -0.00599613 0.000617779
v -0.022616 -0.00138058 -0.00698828
v -0.016372 0.00468688 -0.014128
v -0.007745 0.00886359 -0.0176282
v 0.017246 -0.00579385 -0.0154642
v 0.017002 -0.0146885 -0.00728699
v -0.014142 -0.0155302 0.0106728
v -0.006853 -0.0185915 0.0121532
v -0.018719 -0.0121258 0.00391553
v -0.020368 -0.00998223 -0.00376103
v -0.000651 -0.021522 0.00994762
v 0.005654 -0.0220552 0.00568751
v 0.008514 -0.0220606 -0.00174349
v 0.011673 -0.0180451 -0.00922167
v 0.000618 0.00872803 -0.0197692
v 0.006686 0.00660816 -0.0204507
v 0.013604 0.0005988 -0.0186599
v -0.017821 -0.00245248 -0.0123605
v -0.010661 0.00189139 -0.0166306
v -0.00324 0.0029709 -0.0191424
v 0.012267 -0.0122888 -0.0155625
v -0.013258 -0.0164667 -0.00142435
v -0.006526 -0.0181108 0.00373331
v -0.017241 -0.0132761 -0.0095317
v -0.015091 -0.00739257 -0.0168235
v -0.000963 -0.0209863 0.00142573
v 0.005191 -0.0233956 -0.00206976
v 0.00821 -0.0208681 -0.00929225
v 0.003401 0.00105098 -0.0195208
v 0.009445 -0.00422717 -0.0188019
v -0.009402 -0.00414378 -0.0207228
v -0.000243 -0.00542656 -0.0217981
v 0.008817 -0.0160099 -0.0151003
v -0.012344 -0.0252645 -0.00743915
v -0.016792 -0.0211019 -0.0153053
v -0.004982 -0.0276014 -0.00315862
v -0.015739 -0.0149337 -0.021302
v -0.013535 -0.0116204 -0.0273324
v 0.001984 -0.0300717 -0.00643512
v 0.005033 -0.0296061 -0.014073
v 0.004745 -0.0271017 -0.0213255
v 0.007 -0.010569 -0.0194752
v -0.008431 -0.00997886 -0.030153
v -0.001414 -0.0129977 -0.0308516
v 0.00359 -0.0220173 -0.0280415
v -0.007116 -0.0340342 -0.00390993
v -0.013007 -0.0301082 -0.00897213
v -0.01695 -0.0256045 -0.0171962
v -0.017874 -0.0215539 -0.0251884
v -0.001184 -0.0372988 -0.0060116
v -0.016132 -0.0145502 -0.033304
v -0.013513 -0.0118687 -0.0357384
v 0.003743 -0.0382179 -0.0103798
v 0.006122 -0.0382226 -0.0165048
v 0.002471 -0.0306995 -0.0320652
v 0.003644 -0.0355854 -0.0225052
v -0.00369 -0.015646 -0.0390392
v 0.002085 -0.0219813 -0.0379735
v -0.007985 -0.0405515 -0.00262626
v -0.002429 -0.0428252 -0.00400972
v -0.015659 -0.0372835 -0.00718159
v -0.017491 -0.0369949 -0.0152375
v -0.019361 -0.0314632 -0.0237704
v -0.020722 -0.0230412 -0.0331887
v 0.001913 -0.0450115 -0.00759017
v -0.018872 -0.0175128 -0.0402076
v -0.016848 -0.0126529 -0.0445686
v 0.00307 -0.0459274 -0.0126494
v 0.000569 -0.0389532 -0.0285069
v 0.001374 -0.043883 -0.0194779
v 0.000989 -0.0230627 -0.0454297
v 0.001274 -0.0321243 -0.0375845
v -0.007933 -0.0163536 -0.0461983
v -0.011426 -0.0453779 -0.000732241
v -0.005572 -0.0497098 -0.000985124
v -0.0017 -0.0513385 -0.00721646
v -0.023433 -0.0347856 -0.00186508
v -0.024874 -0.0388007 -0.0110979
v -0.025779 -0.0373728 -0.0205036
v -0.027161 -0.0313534 -0.0275724
v -0.025479 -0.0275588 -0.0353096
v -0.001146 -0.0509056 -0.0166824
v -0.022926 -0.0209032 -0.0432793
v -0.021497 -0.0161713 -0.0476533
v -0.019536 -0.00990471 -0.050509
v -0.001981 -0.0442592 -0.033266
v -0.002531 -0.0479487 -0.0260908
v 0.001424 -0.0329753 -0.0475877
v -0.000447 -0.0384318 -0.0402788
v -0.014325 -0.0152753 -0.0525131
v -0.00344 -0.0208421 -0.0536382
v 0.002122 -0.0264585 -0.0513214
v -0.011591 -0.049971 0.000228823
v -0.004739 -0.0544822 -0.0090361
v -0.00358 -0.0533631 -0.0191449
v -0.02362 -0.0368813 0.00132649
v -0.030479 -0.0316715 -0.00243145
v -0.03236 -0.0348876 -0.0166451
v -0.032541 -0.0322344 -0.0274386
v -0.030797 -0.0305273 -0.0377532
v -0.02809 -0.0234498 -0.0452998
v -0.004648 -0.0489145 -0.036645
v -0.003984 -0.0533671 -0.0289849
v -0.028187 -0.0135757 -0.0503368
v -0.025042 -0.00831807 -0.0536817
v -0.019335 -0.00938962 -0.0558899
v 0.002156 -0.031947 -0.0538835
v -0.00014 -0.0387878 -0.0499799
v -0.002646 -0.0446662 -0.0434391
v 0.002109 -0.0257355 -0.0566662
v -0.016134 -0.0156634 -0.0570942
v -0.009042 -0.0196982 -0.058155
v -0.003205 -0.0214661 -0.0586314
v -0.015167 -0.0535257 -0.0016729
v -0.026389 -0.0430692 0.000901229
v -0.010708 -0.0572158 -0.0108627
v -0.008875 -0.0585389 -0.0201089
v -0.034061 -0.0355447 -0.00132024
v -0.036018 -0.0367994 -0.0175765
v -0.036939 -0.0370235 -0.0269875
v -0.035567 -0.0369616 -0.0364045
v -0.028678 -0.0311074 -0.0473693
v -0.030119 -0.016785 -0.0538154
v -0.008726 -0.0537622 -0.0381189
v -0.00736 -0.0584458 -0.0302469
v -0.026958 -0.0100454 -0.05701
v -0.020557 -0.0104749 -0.0596351
v -0.015958 -0.0181345 -0.0612197
v 0.002924 -0.0338558 -0.0599639
v -0.000767 -0.0427339 -0.0545217
v -0.006313 -0.0489371 -0.048847
v 0.003685 -0.0277242 -0.0627706
v -0.008757 -0.02049 -0.0638262
v -0.000899 -0.0224219 -0.0644226
v -0.018208 -0.0553837 -0.00618628
v -0.031239 -0.0484682 -0.00389987
v -0.035469 -0.0418865 -0.00749553
v -0.013727 -0.0619653 -0.0182726
v -0.036412 -0.0432288 -0.0155978
v -0.036057 -0.0451136 -0.0264662
v -0.033834 -0.0449348 -0.0351272
v -0.02949 -0.0392874 -0.051908
v -0.025523 -0.028018 -0.0589557
v -0.024148 -0.0355514 -0.0620482
v -0.029251 -0.0178387 -0.0606166
v -0.013466 -0.0554369 -0.0396003
v -0.011038 -0.061911 -0.0295546
v -0.025443 -0.0119153 -0.0622194
v -0.016938 -0.0205445 -0.0661692
v 0.003558 -0.0376183 -0.0672477
v 0.004376 -0.0276699 -0.0692406
v -0.001875 -0.0452277 -0.0655532
v -0.011372 -0.0530302 -0.0479968
v -0.006027 -0.0497369 -0.0644311
v -0.002154 -0.0221997 -0.0703535
v -0.010523 -0.021191 -0.0688423
v -0.020262 -0.0607441 -0.0190554
v -0.029105 -0.0564334 -0.0174685
v -0.033262 -0.051207 -0.0194824
v -0.018167 -0.0603094 -0.0324373
v -0.03192 -0.0525791 -0.0288567
v -0.024391 -0.0430931 -0.0632948
v -0.026538 -0.0460858 -0.0551704
v -0.029181 -0.0493665 -0.0419501
v -0.022525 -0.0250785 -0.0661781
v -0.020076 -0.0370051 -0.0733705
v -0.019857 -0.0538472 -0.043046
v 0.007852 -0.03564 -0.0834323
v 0.007774 -0.028213 -0.0834207
v 0.00167 -0.0231578 -0.0846057
v -0.018056 -0.0514812 -0.0532095
v -0.012102 -0.0514307 -0.0653865
v -0.000264 -0.045719 -0.0833893
v -0.007277 -0.0239536 -0.0852719
v -0.010418 -0.0239364 -0.0765209
v -0.025473 -0.0577656 -0.0315388
v -0.019742 -0.0482729 -0.0644578
v -0.013514 -0.031584 -0.0884864
v -0.014593 -0.0464504 -0.0863255
v 0.010395 -0.0422636 -0.11476
v 0.013557 -0.0304881 -0.107324
v 0.007304 -0.021097 -0.113004
v -0.008417 -0.0505556 -0.0854743
v -0.001975 -0.0485765 -0.115549
v -0.005871 -0.0281076 -0.114816
v -0.007908 -0.0451132 -0.11706
v 0.016288 -0.0421833 -0.145747
v 0.021585 -0.0309598 -0.143285
v 0.013413 -0.0179948 -0.143485
v 0.002221 -0.0249541 -0.14661
v 0.006723 -0.0449069 -0.147839
v -5.3e-005 -0.0391716 -0.149098
v 0.022357 -0.0397157 -0.178345
v 0.026764 -0.0292413 -0.175454
v 0.018745 -0.0160253 -0.175085
v 0.007044 -0.0225463 -0.175154
v 0.005728 -0.0343978 -0.177559
v 0.011849 -0.041901 -0.176923
v 0.025319 -0.036917 -0.206297
v 0.029398 -0.0228654 -0.204317
v 0.018726 -0.0140104 -0.204507
v 0.010333 -0.0198309 -0.206779
v 0.009502 -0.0314916 -0.20808
v 0.015473 -0.0386096 -0.207943
v 0.028845 -0.0324438 -0.241645
v 0.032097 -0.0196972 -0.239815
v 0.022526 -0.0102024 -0.238844
v 0.012784 -0.0153133 -0.239325
v 0.011708 -0.0271386 -0.242401
v 0.019081 -0.0346656 -0.242534
v 0.031172 -0.0270831 -0.274512
v 0.033931 -0.0162554 -0.272863
v 0.024257 -0.00615787 -0.270706
v 0.013304 -0.0116225 -0.272428
v 0.012871 -0.024814 -0.275035
v 0.020614 -0.0302927 -0.276351
v 0.020902 -0.0269285 -0.307015
v 0.028519 -0.0252285 -0.306671
v 0.033406 -0.0109179 -0.305005
v 0.026736 -0.00173616 -0.303639
v 0.017225 -0.00421119 -0.303518
v 0.011122 -0.0128049 -0.304831
v 0.013097 -0.0235415 -0.306879
v 0.018972 -0.0243577 -0.340124
v 0.029801 -0.0218887 -0.340457
v 0.033036 -0.00780953 -0.341128
v 0.025037 0.00414691 -0.338379
v 0.015455 0.00157163 -0.336998
v 0.010596 -0.00848722 -0.337753
v 0.010032 -0.0201639 -0.339155
v 0.016284 -0.0241773 -0.367014
v 0.030513 -0.0185007 -0.369856
v 0.02998 -0.00220702 -0.36815
v 0.025348 0.00829335 -0.365103
v 0.014551 0.0101498 -0.362328
v 0.008473 -0.00611815 -0.36752
v 0.007022 -0.0204133 -0.366644
v 0.002655 -0.0229316 -0.379986
v 0.015523 -0.0255393 -0.381399
v 0.029925 -0.0207063 -0.386395
v 0.029547 0.000525359 -0.384766
v 0.02203 0.013845 -0.377878
v 0.012115 0.0182724 -0.375262
v 0.008116 0.00932396 -0.377882
v 0.006616 -0.00318847 -0.380675
v -0.002897 -0.0284732 -0.386983
v 0.01198 -0.0313397 -0.394165
v -0.000454 -0.0144092 -0.386985
v 0.022959 -0.0285251 -0.397259
v 0.035306 -0.0210241 -0.397076
v 0.032968 -0.00836743 -0.395635
v 0.031145 0.00195759 -0.395746
v 0.027072 0.0132166 -0.390986
v 0.020784 0.020768 -0.387949
v 0.006791 0.033485 -0.387895
v 0.01116 0.0235368 -0.382112
v 0.004383 0.0135476 -0.38602
v 0.003587 -0.000143013 -0.387849
v -0.009434 -0.0290472 -0.391679
v -0.009795 -0.0143045 -0.390176
v 0.002353 -0.0359858 -0.398575
v 0.010398 -0.0340251 -0.402189
v -0.006731 -0.00902613 -0.392189
v 0.021525 -0.0292356 -0.404419
v 0.035446 -0.0212424 -0.405791
v 0.032663 -0.00870648 -0.405179
v 0.030062 0.000314737 -0.406264
v 0.032818 0.00791151 -0.405155
v 0.025956 0.0180824 -0.399814
v 0.019136 0.0275994 -0.394618
v 0.017446 0.0303969 -0.40215
v 0.01173 0.036958 -0.397792
v 0.002937 0.0376062 -0.393951
v -0.000852 0.0260747 -0.391267
v -0.001801 0.0166509 -0.392512
v -0.002039 0.00201834 -0.39448
v -0.016769 -0.0275961 -0.397153
v -0.009767 -0.035125 -0.40288
v -0.017997 -0.0219634 -0.395696
v -0.011068 -0.00626639 -0.400731
v -0.016787 -0.01197 -0.397568
v -0.002143 -0.0369503 -0.40631
v 0.007871 -0.0340378 -0.408466
v -0.002281 0.00163648 -0.400084
v 0.017481 -0.0295931 -0.411857
v 0.024589 -0.0276298 -0.413268
v 0.031195 -0.0224367 -0.414071
v 0.029754 -0.0105858 -0.413499
v 0.02546 5.10756e-005 -0.412837
v 0.029709 0.00619224 -0.413634
v 0.033345 0.0103114 -0.414182
v 0.029794 0.0163996 -0.410374
v 0.02465 0.021458 -0.407565
v 0.01514 0.0310024 -0.409287
v 0.00683 0.03838 -0.402533
v -0.007303 0.036135 -0.39754
v -0.015521 0.0280213 -0.394169
v -0.003647 0.0285051 -0.39352
v -0.010118 0.01902 -0.392987
v -0.008083 0.0130971 -0.398392
v -0.022408 -0.0232146 -0.404593
v -0.021165 -0.0297102 -0.406403
v -0.012553 -0.0305134 -0.410426
v -0.020512 -0.0139154 -0.405623
v -0.002882 -0.00614782 -0.408423
v -0.016366 -0.00870373 -0.408883
v -0.006449 -0.0322458 -0.41368
v 0.003243 -0.0318271 -0.416687
v -0.001044 0.00948827 -0.408859
v 0.004058 0.00192661 -0.410535
v 0.016771 -0.0283959 -0.417681
v 0.023161 -0.0255472 -0.421222
v 0.022884 -0.0142932 -0.421141
v 0.019261 -0.00429992 -0.417791
v 0.020794 0.00418028 -0.418747
v 0.029071 0.0116667 -0.420926
v 0.027465 0.0188739 -0.417046
v 0.021598 0.0230461 -0.41314
v 0.012713 0.0313364 -0.414196
v 0.002472 0.0365239 -0.411793
v -0.007632 0.0368133 -0.409198
v -0.020658 0.0338192 -0.408585
v -0.017667 0.0210136 -0.395895
v -0.016816 0.0132802 -0.403417
v -0.02182 -0.0195714 -0.41072
v -0.021244 -0.0279959 -0.413135
v -0.015779 -0.031752 -0.417379
v -0.014973 -0.0123784 -0.415513
v -0.005442 -0.00749821 -0.416333
v -0.007523 -0.03221 -0.422444
v 0.005837 -0.0298308 -0.423085
v -0.018287 0.0144865 -0.409919
v -0.013221 0.0143756 -0.415613
v -0.004487 0.0140129 -0.422009
v 0.007255 0.00120978 -0.41632
v 0.007211 -0.00555894 -0.417682
v 0.013777 -0.0256387 -0.423542
v 0.014433 -0.0176165 -0.424553
v 0.013143 0.000294197 -0.418346
v 0.012486 -0.00909124 -0.421129
v 0.014155 0.00547684 -0.421519
v 0.019347 0.0130617 -0.425497
v 0.022154 0.0223606 -0.425014
v 0.017173 0.0260223 -0.418748
v 0.009566 0.0300047 -0.420707
v 0.003233 0.0346391 -0.417776
v -0.007621 0.0361766 -0.415443
v -0.018097 0.0339684 -0.414528
v -0.022322 0.0211832 -0.403612
v -0.009423 -0.0127547 -0.419041
v -0.014324 -0.0184926 -0.419424
v -0.011563 -0.0244741 -0.421869
v 0.001318 -0.0108013 -0.420801
v -0.000728 -0.0232205 -0.424587
v -0.020977 0.0232087 -0.415894
v -0.014416 0.0184867 -0.420852
v -0.00373 0.0162338 -0.426429
v 0.006343 0.00769186 -0.421609
v 0.00628 -0.0170845 -0.42456
v 0.004537 0.0158944 -0.429126
v 0.009081 0.0213996 -0.430281
v 0.0119 0.0282722 -0.427956
v -0.004435 0.0343886 -0.425094
v -0.013769 0.0316571 -0.422727
v -0.015841 0.024485 -0.422237
v -0.00446 -0.0169499 -0.422903
v -0.008972 0.0212849 -0.42693
v -0.001631 0.0210125 -0.429474
v 0.001302 0.0317642 -0.428154
v -0.008172 0.027542 -0.427183
# 456 verticies
vn 0.001802 0.770265 -0.637722
vn 0.080536 0.341305 -0.936496
vn -0.261491 0.594688 -0.760242
vn 0.294673 0.734484 -0.611311
vn -0.021499 0.850627 -0.52533
vn 0.345921 0.819241 -0.457365
vn -0.363485 0.29092 -0.885011
vn -0.281156 0.020009 -0.959454
vn -0.049834 -0.1268 -0.990676
vn 0.294208 0.012871 -0.955655
vn 0.503436 0.221009 -0.835288
vn 0.485169 0.482857 -0.729013
vn -0.34577 0.791739 -0.50358
vn -0.589916 0.520509 -0.617308
vn 0.661767 0.55797 -0.500733
vn -0.06003 0.949097 -0.309212
vn 0.286543 0.909996 -0.299666
vn 0.603183 0.752306 -0.264964
vn -0.626172 0.08695 -0.774822
vn -0.393325 -0.236702 -0.888407
vn -0.019136 -0.320673 -0.946997
vn 0.384727 -0.209864 -0.898856
vn 0.600386 -0.073036 -0.796368
vn 0.740571 0.20202 -0.640892
vn -0.39088 0.848657 -0.356363
vn -0.641616 0.662844 -0.385962
vn -0.807183 0.285337 -0.516758
vn 0.843082 0.448514 -0.29673
vn -0.178313 0.981457 -0.070327
vn 0.129993 0.990705 -0.040078
vn 0.407588 0.913118 -0.009411
vn 0.686181 0.726973 0.025805
vn -0.692318 -0.167745 -0.701824
vn -0.374273 -0.430478 -0.821345
vn 0.018275 -0.517214 -0.855661
vn 0.451235 -0.446506 -0.77267
vn 0.741746 -0.213542 -0.635777
vn 0.881678 0.085763 -0.463992
vn -0.480568 0.867476 -0.128603
vn -0.752529 0.622662 -0.214456
vn -0.917293 0.266887 -0.295541
vn -0.8775 -0.126968 -0.462464
vn 0.98305 0.084345 -0.162783
vn 0.897923 0.438573 0.037247
vn -0.493977 0.854538 0.160471
vn -0.194235 0.95911 0.205868
vn 0.093216 0.965056 0.244904
vn 0.401454 0.864656 0.302002
vn 0.700688 0.623031 0.347662
vn -0.634975 -0.473762 -0.61021
vn -0.275622 -0.644378 -0.713308
vn 0.179437 -0.686019 -0.70511
vn 0.587405 -0.562527 -0.581824
vn 0.862532 -0.269802 -0.428071
vn -0.78231 0.61927 0.067043
vn -0.969261 0.243692 -0.03387
vn -0.961837 -0.196754 -0.19015
vn -0.724241 -0.498459 -0.476459
vn 0.992782 -0.104265 0.059262
vn 0.921349 0.265987 0.28349
vn -0.497417 0.792744 0.352326
vn -0.804969 0.552242 0.216918
vn -0.187639 0.881658 0.432979
vn 0.124675 0.847234 0.516382
vn 0.422327 0.684092 0.594692
vn 0.658318 0.411783 0.630121
vn -0.341981 -0.745995 -0.571437
vn 0.156828 -0.773496 -0.614092
vn 0.566156 -0.711792 -0.415715
vn 0.864394 -0.466003 -0.188852
vn -0.97673 0.213611 0.019218
vn -0.968529 -0.219517 -0.117318
vn -0.739264 -0.618277 -0.266876
vn -0.327919 -0.831465 -0.448482
vn 0.911563 -0.270542 0.309613
vn 0.855486 0.077182 0.512041
vn -0.32751 0.722976 0.608312
vn -0.648468 0.568321 0.50646
vn -0.857704 0.289576 0.424841
vn -0.064896 0.716154 0.694919
vn 0.224291 0.584408 0.779847
vn 0.42983 0.345194 0.834318
vn 0.597854 0.009791 0.801545
vn 0.101313 -0.868247 -0.485678
vn 0.621683 -0.703553 -0.344272
vn 0.82347 -0.566855 -0.023919
vn -0.982313 0.013515 0.186759
vn -0.858319 -0.502964 0.101563
vn -0.529784 -0.848132 0.00086
vn -0.2878 -0.952777 -0.096886
vn 0.706708 -0.609876 0.35863
vn 0.725456 -0.309117 0.614947
vn -0.574177 0.356622 0.736981
vn -0.330886 0.300884 0.894418
vn -0.756459 0.131916 0.640599
vn -0.880762 -0.226682 0.41578
vn -0.179531 0.242025 0.953516
vn 0.145543 0.213665 0.966004
vn 0.434603 -0.012704 0.900533
vn 0.578957 -0.346069 0.738272
vn -0.147174 -0.982971 -0.110037
vn 0.135287 -0.989377 -0.053198
vn 0.461124 -0.885561 0.056096
vn -0.723015 -0.690752 0.010505
vn -0.374884 -0.91124 -0.170597
vn -0.192345 -0.976353 -0.098681
vn 0.487159 -0.738418 0.466278
vn -0.663087 0.20208 0.720749
vn -0.421341 0.361998 0.831522
vn -0.947664 -0.069673 0.311575
vn -0.896954 -0.401038 -0.186122
vn -0.091893 0.464532 0.880776
vn 0.49009 0.209878 0.846028
vn 0.81755 -0.189365 0.543831
vn 0.057652 -0.997899 -0.029576
vn 0.277703 -0.944416 0.175954
vn -0.430022 -0.655687 -0.620609
vn 0.149734 -0.840469 -0.520761
vn 0.805859 -0.513081 0.295533
vn -0.720678 0.643725 0.257376
vn -0.969378 0.234888 0.071655
vn -0.043201 0.926581 0.373606
vn -0.961265 -0.056251 -0.269825
vn -0.700259 -0.195003 -0.686739
vn 0.57221 0.719875 0.392881
vn 0.961667 0.193115 0.194685
vn 0.974209 -0.193007 0.116898
vn 0.654379 -0.743833 -0.136018
vn 0.000231 -0.451309 -0.892368
vn 0.628216 -0.481259 -0.611338
vn 0.949493 -0.305467 -0.07178
vn -0.145851 0.987155 -0.065211
vn -0.728869 0.673207 -0.124668
vn -0.951319 0.295108 -0.088898
vn -0.961381 0.179371 -0.208742
vn 0.519013 0.854664 0.01326
vn -0.835227 0.069999 -0.545432
vn -0.40456 -0.0904691 -0.910025
vn 0.870007 0.487822 0.071541
vn 0.975375 -0.121857 0.183832
vn 0.982112 -0.169571 0.081867
vn 0.945732 -0.284516 0.156977
vn 0.439865 -0.374278 -0.816354
vn 0.874965 -0.264979 -0.405243
vn -0.060893 0.949572 -0.30758
vn 0.537617 0.84109 -0.059459
vn -0.380183 0.515798 -0.767732
vn -0.730638 0.302884 -0.611906
vn -0.632632 0.548764 -0.546475
vn -0.776521 0.314961 -0.545724
vn 0.806706 0.528515 0.264381
vn -0.763865 0.243333 -0.597746
vn -0.255549 0.193753 -0.947182
vn 0.912706 -0.033668 0.407228
vn 0.946079 -0.197739 0.256581
vn 0.921488 -0.250648 0.296708
vn 0.860115 -0.175777 -0.478858
vn 0.990518 -0.073659 0.115971
vn 0.547978 -0.281675 -0.787641
vn 0.164688 0.905633 -0.390778
vn 0.432818 0.876742 0.209741
vn 0.75638 0.345204 0.555629
vn 0.428279 0.337594 -0.838217
vn 0.196508 -0.127384 -0.972192
vn 0.142483 0.327131 -0.934175
vn -0.264765 0.414281 -0.870787
vn -0.647359 0.318294 -0.692542
vn 0.855553 -0.054539 0.514835
vn -0.539535 0.551969 -0.635792
vn -0.467636 0.645749 -0.603593
vn 0.19662 0.296361 -0.934618
vn 0.946419 -0.090577 0.309978
vn 0.894906 -0.176264 0.40997
vn 0.913786 -0.171753 0.368098
vn 0.933599 -0.1262 0.335361
vn 0.613672 -0.244079 -0.750888
vn 0.521684 -0.16301 -0.837421
vn 0.926475 -0.009818 -0.376229
vn 0.237521 0.955442 0.175256
vn 0.418938 0.358342 0.834315
vn 0.66455 0.023498 0.746874
vn 0.137739 0.899362 -0.414942
vn 0.072919 0.129094 -0.988948
vn -0.194807 0.103127 -0.975405
vn -0.550872 0.087722 -0.829967
vn -0.719332 0.067204 -0.691408
vn -0.836378 0.378026 -0.396949
vn 0.875704 -0.240341 0.418783
vn 0.835206 -0.096955 0.541323
vn -0.621842 0.558521 -0.548969
vn -0.222881 0.249142 -0.942471
vn 0.627229 -0.204259 -0.751573
vn 0.982376 0.13585 0.128386
vn 0.911286 0.040918 0.409737
vn 0.86048 -0.09989 0.499596
vn 0.985605 -0.003056 -0.169039
vn 0.543883 -0.314258 -0.778096
vn 0.345102 -0.14017 -0.928039
vn 0.557485 -0.000953 -0.830186
vn -0.016684 0.672416 0.739985
vn -0.346658 0.904564 0.248179
vn 0.250623 0.241522 0.937473
vn 0.582226 0.19064 0.790361
vn -0.79451 0.576462 -0.190905
vn -0.878558 0.016084 -0.477366
vn -0.938318 -0.037333 -0.343752
vn -0.929345 -0.219192 -0.297106
vn -0.96148 -0.230717 -0.149418
vn -0.997214 0.021301 -0.071484
vn 0.640973 -0.349335 0.683461
vn 0.741145 -0.158922 0.652264
vn -0.689605 -0.208449 -0.693537
vn 0.296046 -0.488756 -0.820655
vn 0.552984 -0.436744 -0.709551
vn 0.980419 0.168221 0.102373
vn 0.894099 0.157254 0.419354
vn 0.72821 -0.01843 0.685106
vn 0.862087 0.069851 -0.501923
vn 0.202459 -0.264249 -0.942965
vn 0.412245 -0.058501 -0.909193
vn -0.082868 0.428138 0.899906
vn -0.522019 0.567756 0.636514
vn -0.871786 0.364987 0.326761
vn 0.251348 0.206846 0.945536
vn -0.990566 0.077776 0.112823
vn -0.966066 -0.076525 0.246699
vn -0.913221 -0.267192 0.30763
vn -0.927941 -0.355117 0.113215
vn -0.933521 -0.313732 0.173524
vn -0.932024 -0.354171 -0.076771
vn -0.900257 -0.433552 -0.039627
vn 0.259064 -0.403444 0.877564
vn 0.337104 -0.336443 0.879299
vn -0.330357 -0.7735 -0.54089
vn 0.121825 -0.699179 -0.70449
vn 0.951214 0.176415 0.253119
vn 0.90418 0.142975 -0.402512
vn 0.780418 0.071036 0.62121
vn 0.223175 -0.129637 0.96612
vn 0.596928 0.005425 0.802276
vn 0.38781 -0.031418 -0.921204
vn -0.144283 -0.309167 -0.939999
vn -0.322818 0.186343 0.927936
vn -0.677547 0.146675 0.720706
vn -0.829877 0.053923 0.555335
vn -0.164727 -0.298401 0.940118
vn -0.817085 -0.207138 0.53802
vn -0.869764 -0.437579 0.228113
vn -0.749019 -0.307494 0.586871
vn -0.679926 -0.330564 0.654544
vn -0.618373 -0.740612 -0.262885
vn -0.907803 -0.417885 -0.035583
vn -0.21631 -0.38623 0.896681
vn 0.893157 0.16896 0.416801
vn 0.896556 0.210096 -0.389932
vn 0.361847 0.081016 -0.92871
vn -0.34082 -0.213472 0.915572
vn 0.020722 -0.098689 0.994903
vn 0.561636 0.058371 0.825323
vn -0.40899 -0.147235 -0.900583
vn -0.672134 -0.354247 -0.650189
vn -0.531189 -0.213584 0.81989
vn -0.631357 -0.285644 0.720969
vn -0.896757 -0.245071 -0.368466
vn -0.822669 -0.253891 0.50868
vn 0.766772 0.149214 0.624336
vn 0.958777 0.206553 -0.195145
vn 0.107671 0.067321 -0.991905
vn -0.10272 -0.084595 0.991107
vn 0.037034 -0.060121 0.997504
vn -0.827573 -0.182006 -0.531033
vn -0.866966 -0.260179 0.425061
vn 0.663038 0.081306 0.744157
vn 0.980104 0.190551 -0.055562
vn 0.200263 0.114725 -0.973002
vn -0.813169 -0.112362 -0.571079
vn -0.165647 -0.149629 0.974768
vn -0.917077 -0.251846 0.3091
vn 0.651453 0.008028 0.758647
vn 0.985762 0.132194 -0.103915
vn 0.23059 0.099625 -0.967938
vn -0.831552 -0.070904 -0.550902
vn -0.947629 -0.181463 0.262811
vn -0.293201 -0.156677 0.943125
vn 0.674489 -0.015846 0.738115
vn 0.960117 0.122492 -0.251338
vn 0.103919 0.126513 -0.986507
vn -0.858622 -0.011463 -0.512481
vn -0.943966 -0.126919 0.304663
vn -0.323975 -0.142214 0.935316
vn 0.694622 -0.04164 0.718168
vn 0.964716 0.094431 -0.245777
vn 0.133284 0.126939 -0.982915
vn -0.847722 0.019813 -0.530071
vn -0.930008 -0.0887629 0.356659
vn -0.273328 -0.143887 0.951099
vn 0.568713 -0.092715 0.817294
vn 0.989318 0.037496 -0.140871
vn 0.203006 0.148306 -0.967881
vn -0.786299 0.078151 -0.612884
vn -0.952218 -0.018988 0.304829
vn -0.307225 -0.101487 0.94621
vn 0.029685 -0.087777 0.995698
vn 0.813884 -0.065576 0.577315
vn 0.970754 0.016702 -0.239496
vn 0.323498 0.148454 -0.934511
vn -0.620309 0.120937 -0.774978
vn -0.987901 0.047387 -0.147672
vn -0.693128 -0.033588 0.720032
vn -0.079809 -0.053645 0.995366
vn 0.730497 -0.080354 0.678172
vn 0.991238 -0.011776 -0.131564
vn 0.44045 0.163378 -0.882786
vn -0.638088 0.1918 -0.745692
vn -0.957516 0.08818 -0.274568
vn -0.826526 0.046376 0.560984
vn -0.105123 0.088624 0.990502
vn 0.668166 0.003549 0.744004
vn 0.984896 -0.031217 -0.170307
vn 0.655447 0.165326 -0.736924
vn -0.526182 0.384298 -0.758583
vn -0.962664 0.168434 -0.211916
vn -0.940786 0.193792 0.27815
vn -0.603696 0.536008 0.590124
vn 0.197926 0.241797 0.949926
vn 0.874792 0.244276 0.418412
vn 0.965569 0.1405 -0.218945
vn 0.800542 0.161667 -0.577059
vn -0.029579 0.540891 -0.840572
vn -0.906211 0.367711 -0.208734
vn -0.926382 0.355536 -0.12414
vn -0.432913 0.790988 0.432347
vn 0.128323 0.407512 0.904139
vn -0.632234 0.738795 -0.233372
vn 0.412952 0.199877 0.888549
vn 0.819577 0.179284 0.544197
vn 0.980842 0.104924 -0.164133
vn 0.979576 0.142384 -0.141977
vn 0.822034 0.302923 -0.48218
vn 0.720475 0.424904 -0.548063
vn 0.142688 0.69541 -0.704305
vn -0.852438 0.51411 -0.095083
vn -0.798028 0.59938 -0.062415
vn -0.763295 0.632872 -0.129823
vn -0.393313 0.684931 0.613331
vn -0.517511 0.807998 -0.281642
vn 0.042985 0.344261 0.93789
vn 0.319129 0.040561 0.946843
vn -0.641808 0.600348 -0.477143
vn 0.417315 -0.050677 0.907348
vn 0.909884 -0.132893 0.393002
vn 0.919299 -0.317031 -0.233198
vn 0.955967 -0.275303 0.101667
vn 0.996729 0.066583 -0.045813
vn 0.824255 0.191117 -0.53299
vn 0.734795 0.230154 -0.638048
vn 0.704022 0.016597 -0.709985
vn 0.363191 0.150699 -0.919447
vn -0.255564 0.696544 -0.670458
vn -0.608865 0.776567 -0.161949
vn -0.586503 0.798479 0.135814
vn -0.874673 0.483055 -0.040062
vn -0.680934 0.522324 0.513329
vn -0.361709 0.129398 0.923267
vn -0.779029 0.626735 0.017786
vn -0.561192 0.200691 -0.802986
vn -0.71572 0.437285 -0.544543
vn -0.058361 -0.212455 0.975426
vn 0.22922 -0.27608 0.933401
vn -0.955854 -0.238729 -0.171322
vn 0.267904 -0.217028 0.938683
vn 0.405175 -0.183231 0.895689
vn 0.824168 -0.52838 0.203867
vn 0.736 -0.619969 -0.271924
vn 0.732861 -0.656691 0.177967
vn 0.748786 -0.379931 0.543113
vn 0.963385 -0.202814 -0.175372
vn 0.784645 -0.022985 -0.619519
vn 0.763106 0.03107 -0.645527
vn 0.61086 -0.202051 -0.765523
vn 0.256043 -0.121217 -0.959035
vn -0.27493 0.194311 -0.941624
vn -0.46458 0.744362 -0.479677
vn -0.257614 0.96247 -0.085358
vn -0.304962 0.86949 0.388569
vn -0.637838 0.389982 0.664137
vn -0.974788 0.213043 0.066334
vn -0.674651 0.042659 0.736903
vn -0.309275 -0.139096 0.940745
vn -0.917624 0.039633 -0.395469
vn -0.514602 -0.249746 -0.820251
vn -0.541898 -0.151019 -0.826764
vn -0.086289 -0.15791 0.983676
vn 0.149837 -0.21966 0.964001
vn -0.563968 -0.074166 0.822459
vn -0.911206 -0.401939 0.090271
vn 0.236271 -0.242893 0.94084
vn 0.429267 -0.672291 0.60312
vn 0.488615 -0.860537 -0.143988
vn 0.364479 -0.906345 -0.213761
vn 0.315225 -0.835102 0.450819
vn 0.667571 -0.696629 0.262787
vn 0.748279 -0.0992339 -0.655921
vn 0.682002 -0.136847 -0.718433
vn 0.525115 -0.270636 -0.806852
vn 0.242453 -0.255318 -0.935964
vn -0.180093 -0.022591 -0.98339
vn -0.695472 0.16033 -0.700437
vn -0.634308 0.762058 0.13008
vn -0.505313 0.342637 0.791997
vn -0.862147 -0.442858 -0.246129
vn -0.84773 -0.31927 0.42358
vn -0.557615 -0.405069 0.724558
vn -0.637459 -0.598751 -0.484916
vn -0.361615 -0.535886 -0.762929
vn -0.13363 -0.652197 0.746178
vn 0.171069 -0.674443 0.718235
vn -0.62939 -0.236008 0.740384
vn -0.486903 -0.234281 0.84145
vn -0.445025 -0.49266 0.747822
vn -0.569909 -0.775635 0.271282
vn -0.388133 -0.792595 -0.470262
vn 0.165249 -0.971204 0.171626
vn 0.170678 -0.967746 -0.185303
vn -0.042601 -0.972351 0.229604
vn -0.069554 -0.922807 -0.378933
vn 0.071385 -0.838464 0.540262
vn 0.27539 -0.890944 0.36108
vn 0.623353 -0.657996 -0.422459
vn 0.560971 -0.126073 -0.818179
vn 0.432441 -0.282113 -0.856392
vn 0.238002 -0.273281 -0.932026
vn -0.131094 -0.181175 -0.974674
vn -0.769722 -0.385874 -0.508556
vn -0.981272 0.07466 0.177568
vn -0.418906 -0.783823 -0.458409
vn -0.605701 -0.767033 -0.211628
vn -0.42641 -0.90452 -0.004301
vn -0.164714 -0.827014 -0.53751
vn -0.092421 -0.994825 0.042214
vn -0.860731 -0.470662 0.193955
vn -0.553066 -0.561434 0.615556
vn -0.37346 -0.687907 0.622344
vn -0.284494 -0.697075 0.658141
vn -0.051092 -0.975455 -0.214192
vn -0.114 -0.863752 0.490853
vn 0.148059 -0.985985 0.07689
vn 0.409762 -0.459286 -0.788132
vn 0.031087 -0.471463 -0.881338
vn -0.519429 -0.63068 -0.576572
vn -0.710903 -0.70247 -0.033951
vn -0.249898 -0.920025 -0.301837
vn -0.519729 -0.807178 0.279903
vn -0.217718 -0.969229 0.114864
vn -0.02434 -0.900412 -0.434357
vn -0.382915 -0.901852 -0.200099
# 456 normals
usemtl Material__1
f  1//1 2//2 3//3
f  4//4 2//2 1//1
f  3//3 5//5 1//1
f  1//1 6//6 4//4
f  1//1 5//5 6//6
f  3//3 2//2 7//7
f  7//7 2//2 8//8
f  8//8 2//2 9//9
f  9//9 2//2 10//10
f  10//10 2//2 11//11
f  11//11 2//2 12//12
f  12//12 2//2 4//4
f  3//3 13//13 5//5
f  3//3 14//14 13//13
f  7//7 14//14 3//3
f  4//4 15//15 12//12
f  4//4 6//6 15//15
f  13//13 16//16 5//5
f  5//5 17//17 6//6
f  5//5 16//16 17//17
f  6//6 18//18 15//15
f  6//6 17//17 18//18
f  7//7 19//19 14//14
f  8//8 19//19 7//7
f  8//8 20//20 19//19
f  9//9 20//20 8//8
f  9//9 21//21 20//20
f  10//10 21//21 9//9
f  10//10 22//22 21//21
f  11//11 22//22 10//10
f  11//11 23//23 22//22
f  11//11 24//24 23//23
f  12//12 24//24 11//11
f  12//12 15//15 24//24
f  13//13 25//25 16//16
f  14//14 25//25 13//13
f  14//14 26//26 25//25
f  14//14 27//27 26//26
f  19//19 27//27 14//14
f  15//15 28//28 24//24
f  15//15 18//18 28//28
f  25//25 29//29 16//16
f  16//16 30//30 17//17
f  16//16 29//29 30//30
f  17//17 31//31 18//18
f  17//17 30//30 31//31
f  18//18 32//32 28//28
f  18//18 31//31 32//32
f  19//19 33//33 27//27
f  20//20 33//33 19//19
f  20//20 34//34 33//33
f  21//21 34//34 20//20
f  21//21 35//35 34//34
f  22//22 35//35 21//21
f  22//22 36//36 35//35
f  23//23 36//36 22//22
f  23//23 37//37 36//36
f  24//24 37//37 23//23
f  24//24 38//38 37//37
f  24//24 28//28 38//38
f  25//25 39//39 29//29
f  26//26 39//39 25//25
f  26//26 40//40 39//39
f  27//27 40//40 26//26
f  27//27 41//41 40//40
f  27//27 42//42 41//41
f  33//33 42//42 27//27
f  28//28 43//43 38//38
f  28//28 44//44 43//43
f  28//28 32//32 44//44
f  45//45 46//46 29//29
f  39//39 45//45 29//29
f  29//29 46//46 30//30
f  30//30 47//47 31//31
f  46//46 47//47 30//30
f  31//31 48//48 32//32
f  47//47 48//48 31//31
f  32//32 49//49 44//44
f  48//48 49//49 32//32
f  33//33 50//50 42//42
f  34//34 50//50 33//33
f  34//34 51//51 50//50
f  35//35 51//51 34//34
f  35//35 52//52 51//51
f  36//36 52//52 35//35
f  36//36 53//53 52//52
f  37//37 53//53 36//36
f  37//37 54//54 53//53
f  38//38 54//54 37//37
f  38//38 43//43 54//54
f  55//55 45//45 39//39
f  40//40 55//55 39//39
f  56//56 55//55 40//40
f  41//41 56//56 40//40
f  57//57 56//56 41//41
f  42//42 57//57 41//41
f  58//58 57//57 42//42
f  50//50 58//58 42//42
f  43//43 59//59 54//54
f  60//60 59//59 43//43
f  44//44 60//60 43//43
f  49//49 60//60 44//44
f  45//45 61//61 46//46
f  62//62 61//61 45//45
f  55//55 62//62 45//45
f  61//61 63//63 46//46
f  46//46 63//63 47//47
f  47//47 64//64 48//48
f  63//63 64//64 47//47
f  48//48 65//65 49//49
f  64//64 65//65 48//48
f  49//49 66//66 60//60
f  65//65 66//66 49//49
f  67//67 58//58 50//50
f  51//51 67//67 50//50
f  68//68 67//67 51//51
f  52//52 68//68 51//51
f  69//69 68//68 52//52
f  53//53 69//69 52//52
f  70//70 69//69 53//53
f  54//54 70//70 53//53
f  59//59 70//70 54//54
f  71//71 62//62 55//55
f  56//56 71//71 55//55
f  72//72 71//71 56//56
f  57//57 72//72 56//56
f  73//73 72//72 57//57
f  58//58 73//73 57//57
f  74//74 73//73 58//58
f  67//67 74//74 58//58
f  59//59 75//75 70//70
f  76//76 75//75 59//59
f  60//60 76//76 59//59
f  66//66 76//76 60//60
f  61//61 77//77 63//63
f  61//61 78//78 77//77
f  62//62 78//78 61//61
f  62//62 79//79 78//78
f  71//71 79//79 62//62
f  63//63 80//80 64//64
f  63//63 77//77 80//80
f  64//64 81//81 65//65
f  64//64 80//80 81//81
f  65//65 82//82 66//66
f  65//65 81//81 82//82
f  66//66 83//83 76//76
f  66//66 82//82 83//83
f  84//84 74//74 67//67
f  68//68 84//84 67//67
f  85//85 84//84 68//68
f  69//69 85//85 68//68
f  86//86 85//85 69//69
f  70//70 86//86 69//69
f  75//75 86//86 70//70
f  71//71 87//87 79//79
f  72//72 87//87 71//71
f  72//72 88//88 87//87
f  73//73 88//88 72//72
f  73//73 89//89 88//88
f  74//74 89//89 73//73
f  74//74 90//90 89//89
f  84//84 90//90 74//74
f  75//75 91//91 86//86
f  75//75 92//92 91//91
f  76//76 92//92 75//75
f  76//76 83//83 92//92
f  93//93 94//94 77//77
f  78//78 93//93 77//77
f  77//77 94//94 80//80
f  95//95 93//93 78//78
f  79//79 95//95 78//78
f  96//96 95//95 79//79
f  87//87 96//96 79//79
f  80//80 97//97 81//81
f  94//94 97//97 80//80
f  81//81 98//98 82//82
f  97//97 98//98 81//81
f  82//82 99//99 83//83
f  98//98 99//99 82//82
f  83//83 100//100 92//92
f  99//99 100//100 83//83
f  84//84 101//101 90//90
f  84//84 102//102 101//101
f  85//85 102//102 84//84
f  85//85 103//103 102//102
f  86//86 103//103 85//85
f  86//86 91//91 103//103
f  88//88 96//96 87//87
f  104//104 96//96 88//88
f  89//89 104//104 88//88
f  105//105 104//104 89//89
f  90//90 105//105 89//89
f  106//106 105//105 90//90
f  101//101 106//106 90//90
f  91//91 107//107 103//103
f  100//100 107//107 91//91
f  92//92 100//100 91//91
f  93//93 108//108 94//94
f  95//95 108//108 93//93
f  108//108 109//109 94//94
f  94//94 109//109 97//97
f  110//110 108//108 95//95
f  96//96 110//110 95//95
f  111//111 110//110 96//96
f  104//104 111//111 96//96
f  97//97 112//112 98//98
f  109//109 112//112 97//97
f  98//98 113//113 99//99
f  112//112 113//113 98//98
f  99//99 113//113 100//100
f  100//100 114//114 107//107
f  113//113 114//114 100//100
f  115//115 106//106 101//101
f  102//102 115//115 101//101
f  116//116 115//115 102//102
f  103//103 116//116 102//102
f  107//107 116//116 103//103
f  117//117 111//111 104//104
f  105//105 117//117 104//104
f  118//118 117//117 105//105
f  106//106 118//118 105//105
f  115//115 118//118 106//106
f  107//107 119//119 116//116
f  114//114 119//119 107//107
f  108//108 120//120 109//109
f  121//121 120//120 108//108
f  110//110 121//121 108//108
f  120//120 122//122 109//109
f  109//109 122//122 112//112
f  123//123 121//121 110//110
f  111//111 123//123 110//110
f  124//124 123//123 111//111
f  117//117 124//124 111//111
f  112//112 125//125 113//113
f  122//122 125//125 112//112
f  113//113 126//126 114//114
f  125//125 126//126 113//113
f  114//114 127//127 119//119
f  126//126 127//127 114//114
f  128//128 118//118 115//115
f  116//116 128//128 115//115
f  119//119 128//128 116//116
f  129//129 124//124 117//117
f  118//118 129//129 117//117
f  130//130 129//129 118//118
f  128//128 130//130 118//118
f  119//119 131//131 128//128
f  127//127 131//131 119//119
f  120//120 132//132 122//122
f  120//120 133//133 132//132
f  121//121 133//133 120//120
f  121//121 134//134 133//133
f  121//121 135//135 134//134
f  123//123 135//135 121//121
f  122//122 136//136 125//125
f  122//122 132//132 136//136
f  123//123 137//137 135//135
f  124//124 137//137 123//123
f  124//124 138//138 137//137
f  129//129 138//138 124//124
f  125//125 139//139 126//126
f  125//125 136//136 139//139
f  126//126 140//140 127//127
f  126//126 139//139 140//140
f  127//127 141//141 131//131
f  127//127 142//142 141//141
f  127//127 140//140 142//142
f  131//131 130//130 128//128
f  129//129 143//143 138//138
f  130//130 143//143 129//129
f  130//130 144//144 143//143
f  131//131 144//144 130//130
f  131//131 141//141 144//144
f  133//133 145//145 132//132
f  132//132 146//146 136//136
f  132//132 145//145 146//146
f  133//133 147//147 145//145
f  134//134 147//147 133//133
f  134//134 148//148 147//147
f  135//135 148//148 134//134
f  135//135 149//149 148//148
f  135//135 150//150 149//149
f  137//137 150//150 135//135
f  136//136 151//151 139//139
f  136//136 146//146 151//151
f  137//137 152//152 150//150
f  138//138 152//152 137//137
f  138//138 153//153 152//152
f  143//143 153//153 138//138
f  139//139 154//154 140//140
f  139//139 151//151 154//154
f  140//140 155//155 142//142
f  140//140 156//156 155//155
f  140//140 154//154 156//156
f  141//141 157//157 144//144
f  141//141 158//158 157//157
f  142//142 158//158 141//141
f  142//142 155//155 158//158
f  143//143 159//159 153//153
f  144//144 159//159 143//143
f  144//144 157//157 159//159
f  147//147 160//160 145//145
f  145//145 161//161 146//146
f  145//145 160//160 161//161
f  146//146 162//162 151//151
f  146//146 161//161 162//162
f  147//147 163//163 160//160
f  147//147 164//164 163//163
f  148//148 164//164 147//147
f  148//148 165//165 164//164
f  149//149 165//165 148//148
f  149//149 166//166 165//165
f  150//150 166//166 149//149
f  150//150 167//167 166//166
f  152//152 167//167 150//150
f  151//151 168//168 154//154
f  151//151 162//162 168//168
f  152//152 169//169 167//167
f  152//152 170//170 169//169
f  153//153 170//170 152//152
f  153//153 171//171 170//170
f  159//159 171//171 153//153
f  154//154 172//172 156//156
f  154//154 173//173 172//172
f  168//168 173//173 154//154
f  155//155 174//174 158//158
f  155//155 175//175 174//174
f  156//156 175//175 155//155
f  156//156 172//172 175//175
f  157//157 176//176 159//159
f  157//157 177//177 176//176
f  178//178 157//157 158//158
f  178//178 177//177 157//157
f  158//158 174//174 178//178
f  159//159 176//176 171//171
f  163//163 179//179 160//160
f  160//160 179//179 161//161
f  161//161 180//180 162//162
f  161//161 179//179 180//180
f  162//162 181//181 168//168
f  162//162 180//180 181//181
f  163//163 182//182 179//179
f  164//164 183//183 163//163
f  163//163 183//183 182//182
f  165//165 183//183 164//164
f  165//165 184//184 183//183
f  166//166 184//184 165//165
f  166//166 185//185 184//184
f  166//166 186//186 185//185
f  167//167 186//186 166//166
f  167//167 187//187 186//186
f  169//169 187//187 167//167
f  168//168 188//188 173//173
f  168//168 189//189 188//188
f  168//168 181//181 189//189
f  169//169 190//190 187//187
f  170//170 190//190 169//169
f  170//170 191//191 190//190
f  171//171 191//191 170//170
f  171//171 192//192 191//191
f  176//176 192//192 171//171
f  172//172 193//193 175//175
f  172//172 194//194 193//193
f  172//172 195//195 194//194
f  173//173 195//195 172//172
f  173//173 188//188 195//195
f  174//174 196//196 178//178
f  175//175 196//196 174//174
f  175//175 193//193 196//196
f  176//176 197//197 192//192
f  177//177 197//197 176//176
f  177//177 198//198 197//197
f  199//199 198//198 177//177
f  178//178 199//199 177//177
f  196//196 199//199 178//178
f  179//179 200//200 180//180
f  201//201 200//200 179//179
f  182//182 201//201 179//179
f  180//180 202//202 181//181
f  200//200 202//202 180//180
f  181//181 203//203 189//189
f  202//202 203//203 181//181
f  204//204 201//201 182//182
f  183//183 204//204 182//182
f  205//205 204//204 183//183
f  184//184 205//205 183//183
f  206//206 205//205 184//184
f  185//185 206//206 184//184
f  207//207 206//206 185//185
f  186//186 207//207 185//185
f  208//208 207//207 186//186
f  187//187 208//208 186//186
f  209//209 208//208 187//187
f  190//190 209//209 187//187
f  188//188 210//210 195//195
f  211//211 210//210 188//188
f  189//189 211//211 188//188
f  203//203 211//211 189//189
f  212//212 209//209 190//190
f  191//191 212//212 190//190
f  213//213 212//212 191//191
f  192//192 213//213 191//191
f  214//214 213//213 192//192
f  197//197 214//214 192//192
f  193//193 215//215 196//196
f  216//216 215//215 193//193
f  194//194 216//216 193//193
f  217//217 216//216 194//194
f  195//195 217//217 194//194
f  210//210 217//217 195//195
f  196//196 218//218 199//199
f  215//215 218//218 196//196
f  219//219 214//214 197//197
f  198//198 219//219 197//197
f  220//220 219//219 198//198
f  199//199 220//220 198//198
f  218//218 220//220 199//199
f  200//200 221//221 202//202
f  222//222 221//221 200//200
f  201//201 222//222 200//200
f  223//223 222//222 201//201
f  204//204 223//223 201//201
f  202//202 221//221 203//203
f  203//203 224//224 211//211
f  221//221 224//224 203//203
f  225//225 223//223 204//204
f  205//205 225//225 204//204
f  226//226 225//225 205//205
f  206//206 226//226 205//205
f  227//227 226//226 206//206
f  207//207 227//227 206//206
f  228//228 227//227 207//207
f  208//208 228//228 207//207
f  208//208 229//229 230//230
f  208//208 230//230 228//228
f  229//229 208//208 209//209
f  229//229 209//209 231//231
f  231//231 209//209 212//212
f  210//210 232//232 217//217
f  233//233 232//232 210//210
f  211//211 233//233 210//210
f  224//224 233//233 211//211
f  231//231 212//212 234//234
f  234//234 212//212 213//213
f  234//234 213//213 235//235
f  235//235 213//213 214//214
f  219//219 235//235 214//214
f  216//216 236//236 215//215
f  215//215 236//236 237//237
f  215//215 237//237 218//218
f  217//217 238//238 216//216
f  216//216 238//238 236//236
f  239//239 240//240 217//217
f  217//217 240//240 238//238
f  232//232 239//239 217//217
f  218//218 237//237 241//241
f  218//218 241//241 220//220
f  220//220 242//242 219//219
f  219//219 242//242 235//235
f  220//220 241//241 242//242
f  221//221 243//243 224//224
f  222//222 243//243 221//221
f  244//244 243//243 222//222
f  223//223 244//244 222//222
f  245//245 244//244 223//223
f  225//225 245//245 223//223
f  224//224 246//246 233//233
f  243//243 246//246 224//224
f  226//226 245//245 225//225
f  247//247 245//245 226//226
f  227//227 247//247 226//226
f  228//228 247//247 227//227
f  228//228 230//230 248//248
f  228//228 248//248 249//249
f  250//250 247//247 228//228
f  249//249 250//250 228//228
f  251//251 229//229 231//231
f  251//251 252//252 229//229
f  229//229 252//252 230//230
f  230//230 252//252 248//248
f  251//251 231//231 234//234
f  232//232 253//253 239//239
f  246//246 253//253 232//232
f  233//233 246//246 232//232
f  251//251 234//234 235//235
f  242//242 251//251 235//235
f  238//238 254//254 236//236
f  236//236 254//254 255//255
f  236//236 255//255 237//237
f  237//237 255//255 256//256
f  237//237 256//256 241//241
f  240//240 254//254 238//238
f  257//257 258//258 239//239
f  239//239 258//258 240//240
f  239//239 253//253 257//257
f  258//258 259//259 240//240
f  240//240 259//259 254//254
f  241//241 256//256 260//260
f  241//241 260//260 242//242
f  260//260 261//261 242//242
f  261//261 251//251 242//242
f  243//243 262//262 246//246
f  244//244 262//262 243//243
f  245//245 262//262 244//244
f  247//247 262//262 245//245
f  246//246 262//262 253//253
f  250//250 262//262 247//247
f  249//249 248//248 263//263
f  248//248 252//252 263//263
f  249//249 263//263 257//257
f  257//257 250//250 249//249
f  253//253 262//262 250//250
f  253//253 250//250 257//257
f  261//261 252//252 251//251
f  264//264 252//252 261//261
f  265//265 252//252 264//264
f  263//263 252//252 265//265
f  259//259 266//266 254//254
f  254//254 266//266 267//267
f  254//254 267//267 255//255
f  255//255 267//267 268//268
f  255//255 268//268 256//256
f  256//256 268//268 260//260
f  257//257 263//263 258//258
f  263//263 269//269 258//258
f  258//258 269//269 259//259
f  269//269 270//270 259//259
f  259//259 270//270 266//266
f  260//260 268//268 271//271
f  260//260 271//271 264//264
f  260//260 264//264 261//261
f  263//263 265//265 269//269
f  264//264 271//271 272//272
f  264//264 272//272 265//265
f  265//265 272//272 270//270
f  265//265 270//270 269//269
f  270//270 273//273 266//266
f  266//266 273//273 274//274
f  266//266 274//274 267//267
f  267//267 274//274 275//275
f  267//267 275//275 268//268
f  268//268 275//275 276//276
f  268//268 276//276 271//271
f  272//272 277//277 270//270
f  270//270 277//277 273//273
f  271//271 276//276 278//278
f  271//271 278//278 272//272
f  272//272 278//278 277//277
f  277//277 279//279 273//273
f  273//273 279//279 280//280
f  273//273 280//280 274//274
f  274//274 280//280 281//281
f  274//274 281//281 275//275
f  275//275 281//281 282//282
f  275//275 282//282 276//276
f  276//276 282//282 283//283
f  276//276 283//283 278//278
f  278//278 284//284 277//277
f  277//277 284//284 279//279
f  278//278 283//283 284//284
f  284//284 285//285 279//279
f  279//279 285//285 286//286
f  279//279 286//286 280//280
f  280//280 286//286 287//287
f  280//280 287//287 281//281
f  281//281 287//287 288//288
f  281//281 288//288 282//282
f  282//282 288//288 289//289
f  282//282 289//289 283//283
f  283//283 289//289 290//290
f  283//283 290//290 284//284
f  284//284 290//290 285//285
f  290//290 291//291 285//285
f  285//285 291//291 292//292
f  285//285 292//292 286//286
f  286//286 292//292 293//293
f  286//286 293//293 287//287
f  287//287 293//293 294//294
f  287//287 294//294 288//288
f  288//288 294//294 295//295
f  288//288 295//295 289//289
f  289//289 295//295 296//296
f  289//289 296//296 290//290
f  290//290 296//296 291//291
f  296//296 297//297 291//291
f  291//291 297//297 298//298
f  291//291 298//298 292//292
f  292//292 298//298 299//299
f  292//292 299//299 293//293
f  293//293 299//299 300//300
f  293//293 300//300 294//294
f  294//294 300//300 301//301
f  294//294 301//301 295//295
f  295//295 301//301 302//302
f  295//295 302//302 296//296
f  296//296 302//302 297//297
f  302//302 303//303 297//297
f  303//303 304//304 297//297
f  297//297 304//304 298//298
f  304//304 305//305 298//298
f  305//305 306//306 298//298
f  298//298 306//306 299//299
f  306//306 307//307 299//299
f  299//299 307//307 300//300
f  307//307 308//308 300//300
f  300//300 308//308 301//301
f  301//301 309//309 302//302
f  308//308 309//309 301//301
f  309//309 303//303 302//302
f  309//309 310//310 303//303
f  303//303 310//310 311//311
f  303//303 311//311 304//304
f  304//304 311//311 312//312
f  304//304 312//312 305//305
f  305//305 312//312 313//313
f  305//305 313//313 306//306
f  306//306 313//313 314//314
f  306//306 314//314 307//307
f  307//307 314//314 315//315
f  307//307 315//315 308//308
f  308//308 315//315 316//316
f  308//308 316//316 309//309
f  309//309 316//316 310//310
f  316//316 317//317 310//310
f  310//310 317//317 318//318
f  310//310 318//318 311//311
f  311//311 318//318 319//319
f  311//311 319//319 312//312
f  312//312 319//319 320//320
f  312//312 320//320 313//313
f  313//313 320//320 321//321
f  313//313 321//321 314//314
f  314//314 321//321 322//322
f  314//314 322//322 315//315
f  315//315 322//322 323//323
f  315//315 323//323 316//316
f  316//316 323//323 317//317
f  323//323 324//324 317//317
f  324//324 325//325 317//317
f  317//317 325//325 318//318
f  325//325 326//326 318//318
f  318//318 326//326 319//319
f  326//326 327//327 319//319
f  327//327 328//328 319//319
f  319//319 328//328 320//320
f  328//328 329//329 320//320
f  320//320 329//329 321//321
f  329//329 330//330 321//321
f  321//321 330//330 322//322
f  330//330 331//331 322//322
f  322//322 331//331 323//323
f  331//331 324//324 323//323
f  332//332 333//333 324//324
f  324//324 333//333 325//325
f  331//331 334//334 324//324
f  334//334 332//332 324//324
f  333//333 335//335 325//325
f  325//325 335//335 326//326
f  335//335 336//336 326//326
f  336//336 337//337 326//326
f  326//326 337//337 327//327
f  337//337 338//338 327//327
f  327//327 338//338 328//328
f  338//338 339//339 328//328
f  328//328 339//339 329//329
f  340//340 341//341 329//329
f  339//339 340//340 329//329
f  341//341 342//342 329//329
f  329//329 342//342 330//330
f  342//342 343//343 330//330
f  330//330 343//343 331//331
f  343//343 344//344 331//331
f  344//344 334//334 331//331
f  332//332 345//345 333//333
f  334//334 346//346 332//332
f  346//346 345//345 332//332
f  345//345 347//347 333//333
f  347//347 348//348 333//333
f  333//333 348//348 335//335
f  344//344 349//349 334//334
f  349//349 346//346 334//334
f  348//348 350//350 335//335
f  335//335 350//350 336//336
f  350//350 351//351 336//336
f  336//336 351//351 337//337
f  351//351 352//352 337//337
f  352//352 353//353 337//337
f  337//337 353//353 338//338
f  353//353 354//354 338//338
f  338//338 354//354 339//339
f  354//354 355//355 339//339
f  339//339 355//355 340//340
f  355//355 356//356 340//340
f  356//356 341//341 340//340
f  356//356 357//357 341//341
f  357//357 358//358 341//341
f  358//358 359//359 341//341
f  341//341 359//359 360//360
f  341//341 360//360 342//342
f  342//342 360//360 343//343
f  360//360 361//361 343//343
f  343//343 361//361 344//344
f  361//361 362//362 344//344
f  362//362 349//349 344//344
f  363//363 364//364 345//345
f  345//345 364//364 347//347
f  346//346 365//365 345//345
f  365//365 363//363 345//345
f  349//349 366//366 346//346
f  366//366 367//367 346//346
f  367//367 365//365 346//346
f  364//364 368//368 347//347
f  347//347 368//368 348//348
f  368//368 369//369 348//348
f  348//348 369//369 350//350
f  362//362 370//370 349//349
f  370//370 366//366 349//349
f  369//369 371//371 350//350
f  371//371 372//372 350//350
f  350//350 372//372 351//351
f  372//372 373//373 351//351
f  351//351 373//373 352//352
f  373//373 374//374 352//352
f  374//374 375//375 352//352
f  352//352 375//375 353//353
f  375//375 376//376 353//353
f  353//353 376//376 354//354
f  376//376 377//377 354//354
f  377//377 378//378 354//354
f  354//354 378//378 355//355
f  378//378 379//379 355//355
f  355//355 379//379 356//356
f  379//379 357//357 356//356
f  379//379 380//380 357//357
f  357//357 380//380 381//381
f  357//357 381//381 358//358
f  358//358 381//381 382//382
f  358//358 382//382 359//359
f  359//359 382//382 383//383
f  359//359 383//383 384//384
f  359//359 384//384 360//360
f  360//360 384//384 361//361
f  384//384 385//385 361//361
f  385//385 386//386 361//361
f  361//361 386//386 362//362
f  386//386 370//370 362//362
f  365//365 387//387 363//363
f  363//363 387//387 388//388
f  363//363 388//388 364//364
f  364//364 388//388 389//389
f  364//364 389//389 368//368
f  367//367 390//390 365//365
f  365//365 390//390 387//387
f  370//370 391//391 366//366
f  366//366 391//391 392//392
f  366//366 392//392 367//367
f  367//367 392//392 390//390
f  368//368 389//389 393//393
f  368//368 393//393 369//369
f  369//369 393//393 394//394
f  369//369 394//394 371//371
f  395//395 396//396 370//370
f  386//386 395//395 370//370
f  370//370 396//396 391//391
f  371//371 394//394 397//397
f  371//371 397//397 372//372
f  372//372 397//397 398//398
f  372//372 398//398 373//373
f  373//373 398//398 399//399
f  373//373 399//399 374//374
f  374//374 399//399 400//400
f  374//374 400//400 375//375
f  401//401 375//375 400//400
f  375//375 401//401 402//402
f  375//375 402//402 376//376
f  376//376 402//402 377//377
f  377//377 402//402 403//403
f  377//377 403//403 404//404
f  377//377 404//404 378//378
f  378//378 404//404 380//380
f  378//378 380//380 379//379
f  404//404 405//405 380//380
f  380//380 405//405 406//406
f  380//380 406//406 381//381
f  381//381 406//406 407//407
f  381//381 407//407 382//382
f  382//382 407//407 383//383
f  383//383 407//407 408//408
f  383//383 408//408 409//409
f  384//384 383//383 409//409
f  384//384 409//409 385//385
f  385//385 409//409 410//410
f  385//385 410//410 386//386
f  386//386 410//410 395//395
f  390//390 411//411 387//387
f  387//387 411//411 412//412
f  387//387 412//412 388//388
f  388//388 412//412 389//389
f  389//389 412//412 413//413
f  389//389 413//413 393//393
f  392//392 414//414 390//390
f  390//390 414//414 411//411
f  396//396 415//415 391//391
f  391//391 415//415 392//392
f  392//392 415//415 414//414
f  393//393 413//413 416//416
f  393//393 416//416 394//394
f  394//394 416//416 417//417
f  394//394 417//417 397//397
f  410//410 418//418 395//395
f  395//395 418//418 419//419
f  395//395 419//419 396//396
f  396//396 419//419 420//420
f  396//396 420//420 421//421
f  396//396 422//422 415//415
f  421//421 422//422 396//396
f  397//397 417//417 398//398
f  398//398 417//417 423//423
f  398//398 423//423 399//399
f  399//399 423//423 424//424
f  399//399 424//424 400//400
f  401//401 400//400 425//425
f  400//400 424//424 426//426
f  400//400 426//426 425//425
f  401//401 427//427 428//428
f  401//401 428//428 402//402
f  425//425 427//427 401//401
f  402//402 428//428 429//429
f  402//402 429//429 403//403
f  403//403 429//429 430//430
f  403//403 430//430 404//404
f  404//404 430//430 405//405
f  430//430 431//431 405//405
f  405//405 431//431 432//432
f  405//405 432//432 406//406
f  406//406 432//432 407//407
f  407//407 432//432 433//433
f  407//407 433//433 408//408
f  408//408 433//433 434//434
f  408//408 434//434 435//435
f  409//409 408//408 435//435
f  409//409 435//435 410//410
f  410//410 435//435 418//418
f  414//414 436//436 411//411
f  411//411 436//436 437//437
f  411//411 437//437 412//412
f  412//412 437//437 413//413
f  413//413 437//437 438//438
f  413//413 438//438 416//416
f  415//415 436//436 414//414
f  422//422 439//439 415//415
f  415//415 439//439 436//436
f  416//416 438//438 440//440
f  416//416 440//440 417//417
f  417//417 440//440 423//423
f  435//435 441//441 418//418
f  418//418 441//441 442//442
f  418//418 442//442 419//419
f  419//419 442//442 420//420
f  420//420 442//442 443//443
f  420//420 443//443 444//444
f  421//421 420//420 444//444
f  421//421 444//444 425//425
f  425//425 426//426 421//421
f  421//421 426//426 422//422
f  426//426 439//439 422//422
f  423//423 440//440 445//445
f  423//423 445//445 424//424
f  424//424 445//445 426//426
f  425//425 444//444 427//427
f  426//426 445//445 439//439
f  427//427 446//446 447//447
f  427//427 447//447 428//428
f  444//444 446//446 427//427
f  428//428 447//447 429//429
f  429//429 447//447 448//448
f  429//429 448//448 430//430
f  430//430 448//448 431//431
f  448//448 449//449 431//431
f  431//431 449//449 432//432
f  433//433 432//432 449//449
f  433//433 450//450 434//434
f  433//433 449//449 450//450
f  434//434 450//450 451//451
f  434//434 451//451 441//441
f  435//435 434//434 441//441
f  439//439 452//452 436//436
f  436//436 452//452 437//437
f  437//437 452//452 438//438
f  438//438 452//452 440//440
f  445//445 452//452 439//439
f  440//440 452//452 445//445
f  441//441 451//451 453//453
f  441//441 453//453 442//442
f  442//442 453//453 443//443
f  443//443 453//453 454//454
f  443//443 454//454 446//446
f  444//444 443//443 446//446
f  446//446 454//454 447//447
f  447//447 454//454 455//455
f  447//447 455//455 448//448
f  448//448 455//455 449//449
f  455//455 456//456 449//449
f  449//449 456//456 450//450
f  450//450 456//456 451//451
f  451//451 456//456 453//453
f  453//453 456//456 454//454
f  454//454 456//456 455//455
