#VRML V2.0 utf8
Transform {
children [
Shape {
appearance Appearance {
              material DEF surface Material {
              diffuseColor 0.8 0.8 0.8
              ambientIntensity 0.2
              specularColor 0.4 0.4 0.4
              emissiveColor 0 0 0
              shininess 0.25
              transparency 0
            }
          }
geometry IndexedFaceSet {
solid FALSE
coord DEF bone Coordinate {
point [
 -0.009206	 -0.009752	 -0.019555,
 -0.007978	 -0.011558	 -0.018274,
 -0.011309	 -0.009490	 -0.013242,
 -0.011046	 -0.007900	 -0.016037,
 -0.006374	 -0.006689	 -0.022715,
 -0.010327	 -0.004271	 -0.019203,
 -0.004380	 -0.010251	 -0.023521,
  0.000553	 -0.011500	 -0.018244,
 -0.001104	 -0.008774	 -0.011892,
 -0.012205	 -0.008676	 -0.009569,
 -0.002941	 -0.007531	 -0.008647,
 -0.011638	 -0.006101	 -0.015157,
 -0.006775	 -0.002567	 -0.022158,
 -0.009859	 -0.002620	 -0.019549,
 -0.010879	 -0.001449	 -0.017504,
 -0.011478	 -0.001958	 -0.014946,
 -0.011607	 -0.003919	 -0.014906,
  0.000995	 -0.009122	 -0.020174,
 -0.001957	 -0.004243	 -0.021691,
  0.003426	 -0.009499	 -0.014137,
  0.002110	 -0.007254	 -0.012075,
 -0.000679	 -0.004965	 -0.008983,
 -0.012212	 -0.003680	 -0.009345,
 -0.003456	  0.000824	 -0.008639,
 -0.000477	 -0.002037	 -0.009044,
 -0.009760	  0.001162	 -0.019056,
 -0.009697	  0.006385	 -0.010149,
 -0.012709	  0.000786	 -0.010161,
  0.001698	 -0.003785	 -0.020821,
  0.004172	 -0.006300	 -0.018117,
  0.005574	 -0.009610	 -0.012787,
  0.004815	 -0.007582	 -0.012157,
  0.003726	 -0.005334	 -0.012856,
  0.003354	 -0.003656	 -0.013105,
 -0.002007	  0.002916	 -0.008978,
  0.000738	  0.000588	 -0.009779,
  0.003680	 -0.002174	 -0.013716,
  0.000491	  0.000302	 -0.017143,
 -0.001292	  0.007319	 -0.012559,
  0.004029	 -0.002295	 -0.018412,
  0.006900	 -0.005779	 -0.016852,
  0.005194	 -0.008596	 -0.012472,
  0.010283	 -0.006294	 -0.012912,
  0.009802	 -0.007055	 -0.012703,
  0.009320	 -0.007818	 -0.012494,
  0.008539	 -0.008341	 -0.011282,
  0.008674	 -0.007663	 -0.010899,
  0.008807	 -0.006982	 -0.010514,
  0.000940	  0.002778	 -0.012852,
  0.005105	 -0.001617	 -0.014736,
  0.009273	 -0.006103	 -0.010317,
  0.001604	  0.000245	 -0.016204,
  0.007727	 -0.002205	 -0.016455,
  0.010342	 -0.003738	 -0.013230,
  0.009483	 -0.006225	 -0.011684,
  0.005217	 -0.001124	 -0.016397,
  0.009641	 -0.004627	 -0.010654,
  0.010153	 -0.003629	 -0.011836,
]
}
coordIndex [
   0,	   1,	   2, -1
   0,	   2,	   3, -1
   4,	   1,	   0, -1
   0,	   3,	   5, -1
   4,	   0,	   5, -1
   4,	   6,	   1, -1
   1,	   7,	   8, -1
   1,	   8,	   2, -1
   6,	   7,	   1, -1
   3,	   2,	   9, -1
   2,	   8,	  10, -1
   2,	  10,	   9, -1
   3,	   9,	  11, -1
   3,	  11,	   5, -1
  12,	   6,	   4, -1
  12,	   4,	   5, -1
  13,	  12,	   5, -1
  14,	  13,	   5, -1
  15,	  14,	   5, -1
  16,	  15,	   5, -1
  11,	  16,	   5, -1
   6,	  17,	   7, -1
  12,	  18,	   6, -1
  18,	  17,	   6, -1
   7,	  19,	  20, -1
   7,	  20,	   8, -1
  17,	  19,	   7, -1
   8,	  20,	  21, -1
   8,	  21,	  10, -1
  11,	   9,	  22, -1
   9,	  10,	  23, -1
   9,	  23,	  22, -1
  10,	  21,	  24, -1
  10,	  24,	  23, -1
  11,	  22,	  16, -1
  13,	  18,	  12, -1
  13,	  25,	  18, -1
  14,	  25,	  13, -1
  14,	  26,	  25, -1
  15,	  26,	  14, -1
  15,	  27,	  26, -1
  16,	  27,	  15, -1
  16,	  22,	  27, -1
  18,	  28,	  17, -1
  17,	  29,	  19, -1
  28,	  29,	  17, -1
  25,	  28,	  18, -1
  29,	  30,	  19, -1
  30,	  20,	  19, -1
  30,	  31,	  20, -1
  20,	  31,	  32, -1
  20,	  32,	  21, -1
  21,	  32,	  33, -1
  21,	  33,	  24, -1
  22,	  23,	  34, -1
  22,	  34,	  27, -1
  23,	  24,	  35, -1
  23,	  35,	  34, -1
  24,	  33,	  36, -1
  24,	  36,	  35, -1
  25,	  37,	  28, -1
  26,	  37,	  25, -1
  26,	  38,	  37, -1
  27,	  38,	  26, -1
  27,	  34,	  38, -1
  28,	  39,	  29, -1
  37,	  39,	  28, -1
  29,	  40,	  30, -1
  39,	  40,	  29, -1
  30,	  41,	  31, -1
  40,	  42,	  30, -1
  30,	  42,	  43, -1
  30,	  43,	  41, -1
  41,	  44,	  31, -1
  31,	  44,	  45, -1
  31,	  45,	  32, -1
  32,	  45,	  46, -1
  32,	  46,	  33, -1
  33,	  46,	  47, -1
  33,	  47,	  36, -1
  34,	  35,	  48, -1
  34,	  48,	  38, -1
  35,	  36,	  49, -1
  35,	  49,	  48, -1
  36,	  47,	  50, -1
  36,	  50,	  49, -1
  37,	  51,	  39, -1
  38,	  51,	  37, -1
  38,	  48,	  51, -1
  39,	  52,	  40, -1
  51,	  52,	  39, -1
  40,	  53,	  42, -1
  52,	  53,	  40, -1
  41,	  43,	  44, -1
  54,	  42,	  53, -1
  54,	  43,	  42, -1
  54,	  44,	  43, -1
  54,	  45,	  44, -1
  54,	  46,	  45, -1
  54,	  47,	  46, -1
  54,	  50,	  47, -1
  48,	  49,	  55, -1
  48,	  55,	  51, -1
  49,	  50,	  56, -1
  49,	  56,	  55, -1
  54,	  56,	  50, -1
  51,	  55,	  52, -1
  52,	  57,	  53, -1
  55,	  57,	  52, -1
  54,	  53,	  57, -1
  54,	  57,	  56, -1
  55,	  56,	  57, -1
]
colorPerVertex FALSE
colorIndex [
1,
1,
1,
1,
1,
1,
1,
1,
1,
1,
1,
1,
1,
1,
1,
1,
1,
1,
1,
1,
1,
1,
1,
1,
1,
1,
1,
1,
1,
1,
1,
1,
1,
1,
1,
1,
1,
1,
1,
1,
1,
1,
1,
1,
1,
1,
1,
1,
1,
1,
1,
1,
1,
1,
1,
1,
1,
1,
]
normal Normal {
vector [
 -0.744683	 -0.417926	 -0.520370,
 -0.336565	 -0.917493	 -0.211968,
 -0.522786	 -0.850115	  0.063243,
 -0.934940	 -0.209361	 -0.286452,
 -0.531549	 -0.189611	 -0.825532,
 -0.868917	 -0.014985	 -0.494730,
  0.058525	 -0.327819	 -0.942926,
  0.302021	 -0.952153	  0.046775,
  0.249768	 -0.823002	  0.510180,
 -0.798514	 -0.380159	  0.466749,
  0.194007	 -0.489953	  0.849887,
 -0.975548	 -0.054698	 -0.212872,
 -0.294866	  0.367299	 -0.882126,
 -0.654486	  0.358113	 -0.665885,
 -0.934949	  0.157394	 -0.317957,
 -0.943698	  0.160740	 -0.289130,
 -0.976514	  0.011959	 -0.215119,
  0.627717	 -0.343347	 -0.698631,
  0.236235	  0.369033	 -0.898892,
  0.332164	 -0.942727	 -0.030548,
  0.119314	 -0.522348	  0.844344,
  0.562990	 -0.199476	  0.802030,
 -0.794408	  0.077186	  0.602460,
  0.047938	  0.066180	  0.996656,
  0.485059	  0.014008	  0.874369,
 -0.330398	  0.553410	 -0.764574,
 -0.711429	  0.619850	 -0.331141,
 -0.800895	  0.285730	  0.526238,
  0.410270	  0.300063	 -0.861186,
  0.588737	 -0.424203	 -0.688071,
  0.490775	 -0.871256	 -0.007314,
  0.237067	 -0.259105	  0.936303,
  0.067069	  0.051700	  0.996408,
  0.216107	  0.098411	  0.971397,
  0.208632	  0.391030	  0.896420,
  0.612318	  0.141172	  0.777906,
  0.335281	  0.179145	  0.924929,
  0.228314	  0.709923	 -0.666245,
  0.642225	  0.738726	  0.204524,
  0.482279	  0.402752	 -0.777944,
  0.588927	 -0.305338	 -0.748287,
  0.699712	 -0.462427	  0.544576,
  0.865857	 -0.420974	 -0.270321,
  0.770716	 -0.633336	  0.069873,
  0.606676	 -0.772484	  0.187650,
  0.354529	 -0.596307	  0.720227,
  0.118905	 -0.384764	  0.915324,
  0.167685	 -0.219264	  0.961148,
  0.761151	  0.621806	  0.184407,
  0.452265	  0.597845	  0.661844,
  0.340868	  0.154683	  0.927298,
  0.453813	  0.593892	 -0.664339,
  0.530142	  0.475094	 -0.702307,
  0.979677	  0.121976	 -0.159231,
  0.896401	 -0.286149	  0.338502,
  0.363155	  0.930356	 -0.050550,
  0.521314	  0.513831	  0.681329,
  0.750774	  0.591984	  0.293076,
]
}
normalIndex [
   0,	   1,	   2, -1
   0,	   2,	   3, -1
   4,	   1,	   0, -1
   0,	   3,	   5, -1
   4,	   0,	   5, -1
   4,	   6,	   1, -1
   1,	   7,	   8, -1
   1,	   8,	   2, -1
   6,	   7,	   1, -1
   3,	   2,	   9, -1
   2,	   8,	  10, -1
   2,	  10,	   9, -1
   3,	   9,	  11, -1
   3,	  11,	   5, -1
  12,	   6,	   4, -1
  12,	   4,	   5, -1
  13,	  12,	   5, -1
  14,	  13,	   5, -1
  15,	  14,	   5, -1
  16,	  15,	   5, -1
  11,	  16,	   5, -1
   6,	  17,	   7, -1
  12,	  18,	   6, -1
  18,	  17,	   6, -1
   7,	  19,	  20, -1
   7,	  20,	   8, -1
  17,	  19,	   7, -1
   8,	  20,	  21, -1
   8,	  21,	  10, -1
  11,	   9,	  22, -1
   9,	  10,	  23, -1
   9,	  23,	  22, -1
  10,	  21,	  24, -1
  10,	  24,	  23, -1
  11,	  22,	  16, -1
  13,	  18,	  12, -1
  13,	  25,	  18, -1
  14,	  25,	  13, -1
  14,	  26,	  25, -1
  15,	  26,	  14, -1
  15,	  27,	  26, -1
  16,	  27,	  15, -1
  16,	  22,	  27, -1
  18,	  28,	  17, -1
  17,	  29,	  19, -1
  28,	  29,	  17, -1
  25,	  28,	  18, -1
  29,	  30,	  19, -1
  30,	  20,	  19, -1
  30,	  31,	  20, -1
  20,	  31,	  32, -1
  20,	  32,	  21, -1
  21,	  32,	  33, -1
  21,	  33,	  24, -1
  22,	  23,	  34, -1
  22,	  34,	  27, -1
  23,	  24,	  35, -1
  23,	  35,	  34, -1
  24,	  33,	  36, -1
  24,	  36,	  35, -1
  25,	  37,	  28, -1
  26,	  37,	  25, -1
  26,	  38,	  37, -1
  27,	  38,	  26, -1
  27,	  34,	  38, -1
  28,	  39,	  29, -1
  37,	  39,	  28, -1
  29,	  40,	  30, -1
  39,	  40,	  29, -1
  30,	  41,	  31, -1
  40,	  42,	  30, -1
  30,	  42,	  43, -1
  30,	  43,	  41, -1
  41,	  44,	  31, -1
  31,	  44,	  45, -1
  31,	  45,	  32, -1
  32,	  45,	  46, -1
  32,	  46,	  33, -1
  33,	  46,	  47, -1
  33,	  47,	  36, -1
  34,	  35,	  48, -1
  34,	  48,	  38, -1
  35,	  36,	  49, -1
  35,	  49,	  48, -1
  36,	  47,	  50, -1
  36,	  50,	  49, -1
  37,	  51,	  39, -1
  38,	  51,	  37, -1
  38,	  48,	  51, -1
  39,	  52,	  40, -1
  51,	  52,	  39, -1
  40,	  53,	  42, -1
  52,	  53,	  40, -1
  41,	  43,	  44, -1
  54,	  42,	  53, -1
  54,	  43,	  42, -1
  54,	  44,	  43, -1
  54,	  45,	  44, -1
  54,	  46,	  45, -1
  54,	  47,	  46, -1
  54,	  50,	  47, -1
  48,	  49,	  55, -1
  48,	  55,	  51, -1
  49,	  50,	  56, -1
  49,	  56,	  55, -1
  54,	  56,	  50, -1
  51,	  55,	  52, -1
  52,	  57,	  53, -1
  55,	  57,	  52, -1
  54,	  53,	  57, -1
  54,	  57,	  56, -1
  55,	  56,	  57, -1
]
normalPerVertex TRUE
}
}
]
}
