# 
# Wavefront OBJ file
# Converted by the DEEP Exploration 2.00.1211
# Right Hemisphere, LTD
# http://www.righthemisphere.com/
# 
mtllib hamate_r.mtl
# object Object #0
g Object__0
v -0.009206 -0.009752 -0.019555
v -0.007978 -0.011558 -0.018274
v -0.011309 -0.00949 -0.013242
v -0.011046 -0.0079 -0.016037
v -0.006374 -0.006689 -0.022715
v -0.010327 -0.004271 -0.019203
v -0.00438 -0.010251 -0.023521
v 0.000553 -0.0115 -0.018244
v -0.001104 -0.008774 -0.011892
v -0.012205 -0.008676 -0.009569
v -0.002941 -0.007531 -0.008647
v -0.011638 -0.006101 -0.015157
v -0.006775 -0.002567 -0.022158
v -0.009859 -0.00262 -0.019549
v -0.010879 -0.001449 -0.017504
v -0.011478 -0.001958 -0.014946
v -0.011607 -0.003919 -0.014906
v 0.000995 -0.009122 -0.020174
v -0.001957 -0.004243 -0.021691
v 0.003426 -0.009499 -0.014137
v 0.00211 -0.007254 -0.012075
v -0.000679 -0.004965 -0.008983
v -0.012212 -0.00368 -0.009345
v -0.003456 0.000824 -0.008639
v -0.000477 -0.002037 -0.009044
v -0.00976 0.001162 -0.019056
v -0.009697 0.006385 -0.010149
v -0.012709 0.000786 -0.010161
v 0.001698 -0.003785 -0.020821
v 0.004172 -0.0063 -0.018117
v 0.005574 -0.00961 -0.012787
v 0.004815 -0.007582 -0.012157
v 0.003726 -0.005334 -0.012856
v 0.003354 -0.003656 -0.013105
v -0.002007 0.002916 -0.008978
v 0.000738 0.000588 -0.009779
v 0.00368 -0.002174 -0.013716
v 0.000491 0.000302 -0.017143
v -0.001292 0.007319 -0.012559
v 0.004029 -0.002295 -0.018412
v 0.0069 -0.005779 -0.016852
v 0.005194 -0.008596 -0.012472
v 0.010283 -0.006294 -0.012912
v 0.009802 -0.007055 -0.012703
v 0.00932 -0.007818 -0.012494
v 0.008539 -0.008341 -0.011282
v 0.008674 -0.007663 -0.010899
v 0.008807 -0.006982 -0.010514
v 0.00094 0.002778 -0.012852
v 0.005105 -0.001617 -0.014736
v 0.009273 -0.006103 -0.010317
v 0.001604 0.000245 -0.016204
v 0.007727 -0.002205 -0.016455
v 0.010342 -0.003738 -0.01323
v 0.009483 -0.006225 -0.011684
v 0.005217 -0.001124 -0.016397
v 0.009641 -0.004627 -0.010654
v 0.010153 -0.003629 -0.011836
# 58 verticies
vn -0.744683 -0.417926 -0.52037
vn -0.336565 -0.917493 -0.211968
vn -0.522786 -0.850115 0.063243
vn -0.93494 -0.209361 -0.286452
vn -0.531549 -0.189611 -0.825532
vn -0.868917 -0.014985 -0.49473
vn 0.058525 -0.327819 -0.942926
vn 0.302021 -0.952153 0.046775
vn 0.249768 -0.823002 0.51018
vn -0.798514 -0.380159 0.466749
vn 0.194007 -0.489953 0.849887
vn -0.975548 -0.054698 -0.212872
vn -0.294866 0.367299 -0.882126
vn -0.654486 0.358113 -0.665885
vn -0.934949 0.157394 -0.317957
vn -0.943698 0.16074 -0.28913
vn -0.976515 0.011959 -0.215119
vn 0.627717 -0.343347 -0.698631
vn 0.236235 0.369033 -0.898892
vn 0.332164 -0.942727 -0.030548
vn 0.119314 -0.522348 0.844344
vn 0.56299 -0.199476 0.80203
vn -0.794408 0.077186 0.60246
vn 0.047938 0.06618 0.996656
vn 0.485059 0.014008 0.874369
vn -0.330398 0.55341 -0.764574
vn -0.711429 0.61985 -0.331141
vn -0.800895 0.28573 0.526238
vn 0.41027 0.300063 -0.861186
vn 0.588737 -0.424203 -0.688071
vn 0.490775 -0.871256 -0.007314
vn 0.237067 -0.259105 0.936303
vn 0.067069 0.0517 0.996408
vn 0.216107 0.098411 0.971397
vn 0.208632 0.39103 0.89642
vn 0.612318 0.141172 0.777906
vn 0.335281 0.179145 0.924929
vn 0.228314 0.709923 -0.666245
vn 0.642225 0.738726 0.204524
vn 0.482279 0.402752 -0.777944
vn 0.588927 -0.305338 -0.748287
vn 0.699712 -0.462427 0.544576
vn 0.865857 -0.420974 -0.270321
vn 0.770716 -0.633336 0.069873
vn 0.606676 -0.772484 0.18765
vn 0.354529 -0.596307 0.720227
vn 0.118905 -0.384764 0.915324
vn 0.167685 -0.219264 0.961148
vn 0.761151 0.621806 0.184407
vn 0.452265 0.597845 0.661844
vn 0.340868 0.154683 0.927298
vn 0.453813 0.593892 -0.664339
vn 0.530142 0.475094 -0.702307
vn 0.979677 0.121976 -0.159231
vn 0.896401 -0.286149 0.338502
vn 0.363155 0.930356 -0.05055
vn 0.521314 0.513831 0.681329
vn 0.750774 0.591984 0.293076
# 58 normals
usemtl Material__1
f  1//1 2//2 3//3
f  1//1 3//3 4//4
f  5//5 2//2 1//1
f  1//1 4//4 6//6
f  5//5 1//1 6//6
f  5//5 7//7 2//2
f  2//2 8//8 9//9
f  2//2 9//9 3//3
f  7//7 8//8 2//2
f  4//4 3//3 10//10
f  3//3 9//9 11//11
f  3//3 11//11 10//10
f  4//4 10//10 12//12
f  4//4 12//12 6//6
f  13//13 7//7 5//5
f  13//13 5//5 6//6
f  14//14 13//13 6//6
f  15//15 14//14 6//6
f  16//16 15//15 6//6
f  17//17 16//16 6//6
f  12//12 17//17 6//6
f  7//7 18//18 8//8
f  13//13 19//19 7//7
f  19//19 18//18 7//7
f  8//8 20//20 21//21
f  8//8 21//21 9//9
f  18//18 20//20 8//8
f  9//9 21//21 22//22
f  9//9 22//22 11//11
f  12//12 10//10 23//23
f  10//10 11//11 24//24
f  10//10 24//24 23//23
f  11//11 22//22 25//25
f  11//11 25//25 24//24
f  12//12 23//23 17//17
f  14//14 19//19 13//13
f  14//14 26//26 19//19
f  15//15 26//26 14//14
f  15//15 27//27 26//26
f  16//16 27//27 15//15
f  16//16 28//28 27//27
f  17//17 28//28 16//16
f  17//17 23//23 28//28
f  19//19 29//29 18//18
f  18//18 30//30 20//20
f  29//29 30//30 18//18
f  26//26 29//29 19//19
f  30//30 31//31 20//20
f  31//31 21//21 20//20
f  31//31 32//32 21//21
f  21//21 32//32 33//33
f  21//21 33//33 22//22
f  22//22 33//33 34//34
f  22//22 34//34 25//25
f  23//23 24//24 35//35
f  23//23 35//35 28//28
f  24//24 25//25 36//36
f  24//24 36//36 35//35
f  25//25 34//34 37//37
f  25//25 37//37 36//36
f  26//26 38//38 29//29
f  27//27 38//38 26//26
f  27//27 39//39 38//38
f  28//28 39//39 27//27
f  28//28 35//35 39//39
f  29//29 40//40 30//30
f  38//38 40//40 29//29
f  30//30 41//41 31//31
f  40//40 41//41 30//30
f  31//31 42//42 32//32
f  41//41 43//43 31//31
f  31//31 43//43 44//44
f  31//31 44//44 42//42
f  42//42 45//45 32//32
f  32//32 45//45 46//46
f  32//32 46//46 33//33
f  33//33 46//46 47//47
f  33//33 47//47 34//34
f  34//34 47//47 48//48
f  34//34 48//48 37//37
f  35//35 36//36 49//49
f  35//35 49//49 39//39
f  36//36 37//37 50//50
f  36//36 50//50 49//49
f  37//37 48//48 51//51
f  37//37 51//51 50//50
f  38//38 52//52 40//40
f  39//39 52//52 38//38
f  39//39 49//49 52//52
f  40//40 53//53 41//41
f  52//52 53//53 40//40
f  41//41 54//54 43//43
f  53//53 54//54 41//41
f  42//42 44//44 45//45
f  55//55 43//43 54//54
f  55//55 44//44 43//43
f  55//55 45//45 44//44
f  55//55 46//46 45//45
f  55//55 47//47 46//46
f  55//55 48//48 47//47
f  55//55 51//51 48//48
f  49//49 50//50 56//56
f  49//49 56//56 52//52
f  50//50 51//51 57//57
f  50//50 57//57 56//56
f  55//55 57//57 51//51
f  52//52 56//56 53//53
f  53//53 58//58 54//54
f  56//56 58//58 53//53
f  55//55 54//54 58//58
f  55//55 58//58 57//57
f  56//56 57//57 58//58
