# 
# Wavefront OBJ file
# Converted by the DEEP Exploration 2.00.1211
# Right Hemisphere, LTD
# http://www.righthemisphere.com/
# 
mtllib humerus_r.mtl
# object Object #0
g Object__0
v 0.000775 0.000617 0.020975
v -0.009707 -0.000561 0.017529
v -0.004657 -0.009399 0.017403
v 0.00755 -0.010277 0.018154
v 0.007629 0.002432 0.01976
v -0.000288 0.007985 0.017007
v -0.009497 -0.013056 0.010405
v -0.013146 -0.00237 0.011169
v -0.007677 0.007032 0.012334
v -0.003385 -0.015617 0.015034
v 0.006443 -0.017173 0.016275
v -0.007875 -0.018174 0.009636
v 0.013479 -0.017075 0.012377
v 0.014931 -0.008301 0.013039
v 0.017523 0.002512 0.013259
v 0.018163 0.009946 0.010276
v 0.005028 0.009765 0.01738
v -0.001353 0.011255 0.012857
v -0.014243 -0.000891 0.004146
v -0.017805 -0.003513 -0.002078
v -0.014882 -0.007448 -0.002283
v -0.01132 0.006585 0.008647
v -0.001056 -0.026847 0.012973
v 0.005953 -0.027481 0.013997
v -0.006667 -0.027038 0.007541
v 0.011957 -0.027123 0.011146
v -0.010701 -0.017036 -0.002386
v 0.015783 -0.017636 0.005062
v 0.017598 -0.0068 0.005816
v 0.017238 0.00205 0.006469
v 0.017957 0.010459 0.003436
v 0.01465 0.013802 0.002409
v 0.011702 0.014748 0.006447
v 0.002428 0.014139 0.011419
v -0.004244 0.012725 0.01002
v -0.013458 0.008048 0.003606
v -0.015014 0.010233 -0.004435
v -0.018389 0.00162 -0.003302
v -0.017642 0.000245 -0.013855
v -0.018338 -0.006324 -0.013184
v -0.015376 -0.009446 -0.012638
v -0.005693 -0.037446 0.006597
v -0.00231 -0.036874 0.010963
v 0.004965 -0.037287 0.01251
v -0.008823 -0.028132 -0.0029
v -0.008393 -0.036981 -0.003048
v 0.01409 -0.025842 0.003657
v 0.011454 -0.037733 0.009891
v -0.010241 -0.019088 -0.00972
v 0.020448 -0.019302 -0.001507
v 0.02493 -0.009981 6.5e-005
v 0.027317 -0.003427 0.002053
v 0.02679 -0.000801 0.003581
v 0.021651 0.008614 -0.012751
v 0.02736 0.001385 -0.002388
v 0.008695 0.017902 -0.00013
v 0.016329 0.01455 -0.009688
v 0.003186 0.018109 0.004022
v -0.007345 0.015595 0.002672
v -0.008824 0.016472 -0.005576
v -0.008638 0.015111 -0.014479
v -0.014278 0.009392 -0.014753
v -0.007961 0.005914 -0.024385
v -0.009092 -0.002339 -0.025934
v -0.010035 -0.011262 -0.024588
v -0.009307 -0.014733 -0.021362
v -0.006141 -0.020848 -0.017281
v -0.008302 -0.060686 -0.000869
v -0.0061 -0.060791 0.005411
v -0.002382 -0.06026 0.009125
v 0.00413 -0.060348 0.010173
v -0.008233 -0.027011 -0.009339
v -0.007585 -0.036319 -0.008191
v 0.012967 -0.038511 0.002298
v 0.01781 -0.026066 -0.001609
v 0.01119 -0.059764 0.007077
v -0.004653 -0.026669 -0.015628
v 0.021401 -0.018924 -0.007699
v 0.024554 -0.011663 -0.009265
v 0.028593 -0.00548 -0.006954
v 0.019061 0.005517 -0.019869
v 0.013943 0.012182 -0.018711
v 0.023463 0.002159 -0.014786
v 0.019927 -0.003783 -0.01901
v 0.002136 0.019403 -0.000898
v 0.004549 0.018957 -0.004619
v 0.01047 0.017755 -0.008252
v -0.000652 0.019654 -0.001847
v -0.002609 0.019847 -0.006323
v -0.002424 0.019165 -0.011045
v 0.000869 0.018009 -0.014592
v -0.003499 0.014045 -0.019854
v 0.001892 0.014478 -0.020606
v 0.000363 0.006277 -0.026845
v -0.000773 -0.003586 -0.029361
v -0.000822 -0.011665 -0.028705
v 0.000792 -0.015581 -0.025049
v 0.00177 -0.020299 -0.02075
v 0.002837 -0.025602 -0.018009
v -0.008882 -0.081082 0.000197
v -0.006845 -0.060534 -0.007378
v -0.00747 -0.080953 -0.006575
v -0.006484 -0.080914 0.006178
v -0.00204 -0.080613 0.009003
v 0.003972 -0.080374 0.009019
v -0.003144 -0.036156 -0.014059
v -0.001735 -0.060011 -0.01204
v 0.014737 -0.039723 -0.003162
v 0.014288 -0.060536 0.000536
v 0.018123 -0.025977 -0.006915
v 0.011458 -0.081644 0.006097
v 0.004204 -0.037394 -0.014994
v 0.014751 -0.018671 -0.013643
v 0.019396 -0.010223 -0.01521
v 0.014778 -0.006819 -0.025535
v 0.012108 0.001536 -0.026623
v 0.010084 0.009594 -0.023322
v 0.007751 0.015875 -0.017523
v 0.014568 -0.010082 -0.021404
v 0.005035 0.019109 -0.008637
v 0.003765 0.018604 -0.012385
v 0.011885 -0.019057 -0.01745
v 0.01124 -0.025535 -0.014419
v 0.010534 -0.03937 -0.01234
v -0.00994 -0.110983 -5.7e-005
v -0.008 -0.110536 -0.006646
v -0.002338 -0.080686 -0.011228
v -0.002388 -0.110239 -0.011634
v -0.006992 -0.110762 0.006107
v -0.002678 -0.110807 0.008428
v 0.004371 -0.110338 0.007933
v 0.007451 -0.060292 -0.012484
v 0.006684 -0.082018 -0.011598
v 0.014752 -0.040123 -0.007089
v 0.012804 -0.060459 -0.008212
v 0.01471 -0.082727 0.000237
v 0.011115 -0.111027 0.004523
v 0.010859 -0.060455 -0.010836
v -0.00747 -0.138224 -0.00748
v -0.009158 -0.138652 -0.000925
v 0.005506 -0.110091 -0.011654
v 0.003836 -0.137194 -0.012747
v -0.002623 -0.137722 -0.012105
v -0.006384 -0.138492 0.00395
v -0.003685 -0.137497 0.005661
v 0.003907 -0.136844 0.00622
v 0.011154 -0.081751 -0.007744
v 0.013475 -0.110548 -9.3e-005
v 0.010909 -0.137303 0.003344
v -0.002244 -0.168861 -0.014077
v -0.006679 -0.170358 -0.008931
v -0.008973 -0.170597 -0.002822
v -0.003458 -0.171288 0.002844
v 0.010434 -0.11053 -0.006783
v 0.008421 -0.137423 -0.008357
v 0.004137 -0.167835 -0.014991
v 0.008446 -0.167819 -0.010575
v 0.00444 -0.169545 0.00215
v 0.010762 -0.167879 -0.000899
v 0.012744 -0.137339 -0.001855
v 0.002866 -0.203 -0.016005
v -0.001342 -0.202567 -0.015715
v -0.005728 -0.202974 -0.009584
v -0.007554 -0.20445 -0.002691
v -0.004195 -0.203486 0.006098
v 0.012999 -0.168726 -0.003001
v 0.007655 -0.202966 -0.011925
v 0.011606 -0.202873 -0.004307
v 0.001289 -0.203071 0.002726
v 0.004946 -0.202872 0.000399
v 0.00965 -0.202454 -0.002449
v 0.007088 -0.229961 -0.012644
v 0.001295 -0.231144 -0.017061
v -0.00242 -0.231403 -0.015489
v -0.005753 -0.230847 -0.006917
v -0.005489 -0.230347 -0.000932
v -0.002184 -0.227264 0.010757
v 0.011816 -0.228155 -0.00724
v 0.00898 -0.227743 -0.001758
v 0.00121 -0.226982 0.006865
v 0.004045 -0.227441 0.002425
v 0.013261 -0.247328 -0.00576
v 0.009966 -0.248519 -0.012136
v 0.002177 -0.249187 -0.019196
v -0.001163 -0.249911 -0.017134
v -0.002942 -0.250885 -0.003959
v -0.00319 -0.250548 0.005779
v -0.00023 -0.246636 0.016146
v -0.002455 -0.248807 0.015855
v 0.009075 -0.248003 0.002021
v 0.003174 -0.246156 0.013566
v 0.005424 -0.248157 0.009314
v 0.010853 -0.259928 0.004361
v 0.013726 -0.265578 -0.015764
v 0.014617 -0.265866 -0.011399
v 0.013838 -0.264727 -0.006877
v 0.014052 -0.263703 -0.002063
v 0.011147 -0.263797 -0.018131
v 0.005452 -0.25921 -0.022312
v 0.002506 -0.258941 -0.022453
v -0.000119 -0.259371 -0.020762
v 0.000199 -0.265768 -0.010766
v -0.000162 -0.263481 -0.004522
v -0.00048 -0.265179 -0.000184
v -0.000643 -0.261119 0.019661
v -0.001473 -0.269769 0.005162
v -0.003154 -0.265187 0.012798
v 0.002248 -0.260535 0.020993
v 0.008234 -0.260362 0.010852
v 0.005678 -0.259546 0.018701
v 0.007187 -0.260662 0.01292
v 0.012353 -0.266877 0.006388
v 0.014571 -0.269769 -0.017778
v 0.012609 -0.272085 -0.01241
v 0.011552 -0.2725 -0.006988
v 0.016429 -0.272362 -0.000286
v 0.007542 -0.267043 -0.026947
v 0.012104 -0.268016 -0.021213
v 0.003571 -0.267201 -0.029031
v 0.000466 -0.266849 -0.026525
v -0.000307 -0.268286 -0.013991
v 0.004854 -0.27005 -0.010143
v 0.005417 -0.26905 -0.005526
v 0.007534 -0.271926 -0.003314
v 0.007424 -0.27503 -0.002093
v -0.002356 -0.274523 0.013141
v -0.000367 -0.271776 0.018671
v 0.003019 -0.27182 0.02179
v -0.002313 -0.275522 0.007138
v 0.007452 -0.271832 0.023362
v 0.013064 -0.268505 0.01283
v 0.00936 -0.270038 0.021875
v 0.011722 -0.269441 0.017741
v 0.014798 -0.273499 0.008138
v 0.014278 -0.275013 -0.024844
v 0.017827 -0.276602 -0.019204
v 0.016322 -0.277024 -0.013192
v 0.016213 -0.27766 -0.008685
v 0.018827 -0.275817 -0.000184
v 0.009832 -0.273813 -0.031401
v 0.003437 -0.272663 -0.035064
v -0.000112 -0.272328 -0.031969
v -0.000394 -0.273991 -0.019759
v 0.005656 -0.275853 -0.013388
v 0.009026 -0.276627 -0.006706
v 0.00381 -0.282851 -0.000438
v 0.004425 -0.285585 -0.005121
v -0.001233 -0.285615 0.007211
v 0.000507 -0.285349 0.010389
v 0.002701 -0.283865 0.017342
v 0.005628 -0.277206 0.022854
v 0.003835 -0.286249 -0.000277
v 0.009394 -0.274863 0.024788
v 0.01809 -0.272473 0.014749
v 0.013779 -0.275802 0.023713
v 0.016518 -0.272839 0.018638
v 0.020387 -0.276667 0.008589
v 0.018587 -0.27748 0.004659
v 0.013994 -0.280313 -0.026134
v 0.011587 -0.279481 -0.033467
v 0.021926 -0.281273 -0.020848
v 0.021753 -0.282122 -0.014996
v 0.020431 -0.282025 -0.009304
v 0.022686 -0.28024 -0.001549
v 0.003458 -0.278795 -0.038455
v 0.001126 -0.280514 -0.037258
v -0.001041 -0.278038 -0.028678
v 0.00092 -0.280341 -0.017787
v 0.000317 -0.284207 -0.014889
v 0.004873 -0.281848 -0.011149
v 0.002822 -0.288545 -0.010806
v 0.005521 -0.294633 -0.011932
v 0.005759 -0.290522 -0.000332
v 0.006818 -0.291106 -0.004391
v 0.002591 -0.29185 0.006477
v 0.004327 -0.288772 0.009957
v 0.007689 -0.283324 0.02337
v 0.009813 -0.288061 0.022114
v 0.007908 -0.289609 0.017879
v 0.006056 -0.288963 0.014731
v 0.012064 -0.278917 0.025131
v 0.02298 -0.274914 0.014643
v 0.011893 -0.282525 0.024447
v 0.0179 -0.276648 0.020807
v 0.021788 -0.277029 0.019235
v 0.02445 -0.280217 0.009257
v 0.020892 -0.281506 0.003756
v 0.013384 -0.285324 -0.025809
v 0.009919 -0.285587 -0.0319
v 0.004784 -0.285401 -0.036472
v 0.022513 -0.286817 -0.023557
v 0.022924 -0.287056 -0.017028
v 0.02051 -0.286466 -0.009359
v 0.023666 -0.28517 -0.003016
v 2.8e-005 -0.284222 -0.035885
v -0.000232 -0.282697 -0.02935
v -0.001044 -0.289345 -0.016299
v 0.001751 -0.288199 -0.02015
v 0.002932 -0.29693 -0.018572
v 0.009963 -0.299334 -0.014937
v 0.01137 -0.29416 -0.005647
v 0.010737 -0.294303 -0.000823
v 0.00758 -0.295353 0.006229
v 0.009693 -0.292963 0.009512
v 0.010484 -0.290276 0.018364
v 0.01787 -0.288301 0.018983
v 0.011494 -0.293927 0.012735
v 0.023706 -0.280535 0.019859
v 0.026645 -0.280059 0.014929
v 0.019696 -0.282694 0.020015
v 0.024479 -0.285204 0.008448
v 0.021122 -0.284629 0.003616
v 0.021555 -0.292408 -0.024203
v 0.012969 -0.289527 -0.025549
v 0.008862 -0.29007 -0.030753
v 0.003127 -0.287106 -0.036165
v 0.001547 -0.286442 -0.035714
v 0.021624 -0.292637 -0.016313
v 0.019282 -0.290211 -0.009011
v 0.0223 -0.289976 -0.00234
v 0.001511 -0.286698 -0.028605
v 0.005824 -0.29128 -0.02108
v 0.009491 -0.300098 -0.020622
v 0.016669 -0.297452 -0.01488
v 0.01574 -0.293353 -0.007862
v 0.016083 -0.294616 -0.000477
v 0.015191 -0.293171 0.005351
v 0.016984 -0.294881 0.011505
v 0.016683 -0.295501 0.016576
v 0.020359 -0.290777 0.01914
v 0.023484 -0.28522 0.019905
v 0.026581 -0.286898 0.016377
v 0.022443 -0.290834 0.009514
v 0.019501 -0.289445 0.004328
v 0.015552 -0.297851 -0.023126
v 0.010635 -0.292523 -0.023246
v 0.005869 -0.290558 -0.029795
v 0.008627 -0.292932 -0.022695
v 0.021683 -0.292205 0.016526
# 339 verticies
vn -0.099631 0.062679 0.993048
vn -0.648128 0.10781 0.753861
vn -0.386322 -0.328729 0.861796
vn 0.29566 -0.21616 0.930516
vn 0.333071 0.160975 0.929059
vn -0.293157 0.531096 0.794982
vn -0.844298 -0.347548 0.407885
vn -0.944984 0.076209 0.318115
vn -0.694217 0.485059 0.531771
vn -0.425511 -0.297 0.854828
vn 0.169438 -0.268593 0.948234
vn -0.826781 -0.323307 0.460333
vn 0.722714 -0.21105 0.658136
vn 0.792342 -0.174398 0.584619
vn 0.907083 -0.035011 0.419494
vn 0.773546 0.493874 0.397134
vn 0.035629 0.672587 0.73916
vn -0.4022 0.662698 0.631717
vn -0.904124 0.067186 0.421954
vn -0.948726 -0.225262 0.221759
vn -0.849786 -0.501429 0.162583
vn -0.709456 0.377507 0.595115
vn -0.51972 -0.170079 0.837236
vn 0.030391 -0.193016 0.980725
vn -0.877881 -0.174013 0.446145
vn 0.710403 -0.185417 0.678931
vn -0.945721 -0.297507 0.130769
vn 0.851559 -0.237917 0.467165
vn 0.741261 -0.219406 0.634344
vn 0.901681 0.018992 0.431984
vn 0.797993 0.547291 0.252347
vn 0.627577 0.768693 0.123526
vn 0.339014 0.863699 0.372953
vn -0.119488 0.828217 0.547521
vn -0.484642 0.65763 0.576754
vn -0.796521 0.48055 0.366915
vn -0.844193 0.519004 0.134066
vn -0.964737 0.203454 0.167
vn -0.931393 0.138731 -0.336542
vn -0.90645 -0.372684 -0.198631
vn -0.826716 -0.560956 -0.043222
vn -0.876366 -0.045064 0.479533
vn -0.506198 -0.083484 0.858367
vn 0.100542 -0.123206 0.987275
vn -0.989612 -0.139167 0.036056
vn -0.997257 -0.050533 0.054088
vn 0.889634 -0.191143 0.414749
vn 0.759853 -0.107989 0.641063
vn -0.916416 -0.335751 -0.217839
vn 0.832092 -0.3733 0.410207
vn 0.807165 -0.42896 0.405558
vn 0.854345 -0.218275 0.471647
vn 0.667289 0.132946 0.732837
vn 0.779168 0.563052 -0.275446
vn 0.923741 0.382592 0.018034
vn 0.352913 0.925003 0.140793
vn 0.579783 0.812152 -0.065269
vn 0.024668 0.932712 0.359778
vn -0.448692 0.822237 0.350146
vn -0.607052 0.793162 0.048808
vn -0.518582 0.785736 -0.337183
vn -0.784646 0.494997 -0.373241
vn -0.492427 0.431661 -0.755767
vn -0.59833 0.11033 -0.793618
vn -0.5511 -0.378144 -0.743838
vn -0.567184 -0.665844 -0.48472
vn -0.598895 -0.51618 -0.612277
vn -0.999778 0.007091 0.019844
vn -0.853476 0.00764 0.521076
vn -0.429512 -0.035675 0.902356
vn 0.148283 -0.076515 0.985981
vn -0.926127 -0.165402 -0.339016
vn -0.899764 -0.072094 -0.430381
vn 0.93427 -0.079304 0.347635
vn 0.910765 -0.290996 0.292966
vn 0.720131 -0.043468 0.692475
vn -0.582361 -0.283398 -0.761933
vn 0.854887 -0.444044 -0.268316
vn 0.839384 -0.431013 -0.331153
vn 0.956886 -0.179329 -0.228495
vn 0.733324 0.2627 -0.627077
vn 0.502583 0.684005 -0.528723
vn 0.839228 0.122998 -0.529687
vn 0.812729 -0.136412 -0.566448
vn 0.131978 0.984967 0.111453
vn 0.079438 0.99638 -0.03028
vn 0.34744 0.92993 -0.120478
vn -0.088499 0.981878 0.167582
vn -0.22389 0.974405 0.0202
vn -0.190893 0.954311 -0.229893
vn -0.084894 0.926809 -0.365813
vn -0.340668 0.710557 -0.615673
vn -0.00905 0.749059 -0.662442
vn -0.049729 0.448995 -0.892149
vn -0.10396 0.109787 -0.988504
vn 0.092059 -0.414508 -0.905377
vn 0.036094 -0.654355 -0.755325
vn 0.019201 -0.565722 -0.824372
vn 0.045703 -0.318472 -0.94683
vn -0.997249 0.030915 0.067374
vn -0.830645 -0.016584 -0.556555
vn -0.86588 0.012779 -0.500089
vn -0.786316 0.018931 0.617534
vn -0.293846 -0.017002 0.955702
vn 0.202028 -0.039647 0.978577
vn -0.507278 -0.153994 -0.847912
vn -0.409752 -0.056805 -0.910427
vn 0.985447 -0.138764 0.098181
vn 0.973925 0.004374 0.226828
vn 0.887221 -0.305656 -0.345562
vn 0.675253 -0.027262 0.737082
vn 0.099644 -0.153082 -0.983177
vn 0.68691 -0.394437 -0.610388
vn 0.71714 -0.354705 -0.599912
vn 0.62224 -0.266965 -0.735899
vn 0.382982 0.225116 -0.895906
vn 0.250573 0.505848 -0.825428
vn 0.24781 0.824016 -0.509498
vn 0.598652 -0.526329 -0.603816
vn 0.121356 0.985917 -0.115069
vn 0.000616 0.967731 -0.251985
vn 0.526202 -0.47055 -0.708303
vn 0.595907 -0.275016 -0.754494
vn 0.542671 -0.120368 -0.831276
vn -0.997202 0.002128 0.074728
vn -0.881674 0.014185 -0.471646
vn -0.374351 -0.004814 -0.927275
vn -0.425525 0.019039 -0.904746
vn -0.695536 -0.034688 0.717654
vn -0.165968 -0.04975 0.984875
vn 0.226941 -0.059927 0.972063
vn 0.128401 -0.071197 -0.989163
vn 0.284206 -0.044488 -0.957731
vn 0.889548 -0.124231 -0.439625
vn 0.942015 -0.055842 -0.330892
vn 0.996382 -0.030246 0.07942
vn 0.689948 -0.047796 0.722279
vn 0.626581 -0.058931 -0.777125
vn -0.843858 0.005056 -0.536542
vn -0.9792 -0.039701 0.198973
vn 0.416208 -0.00519 -0.909254
vn 0.345574 0.041657 -0.937466
vn -0.365998 0.043294 -0.929608
vn -0.712524 -0.078458 0.697248
vn -0.268476 -0.082344 0.95976
vn 0.238099 -0.08933 0.967124
vn 0.805694 -0.057315 -0.589553
vn 0.999397 -0.034729 -0.000215
vn 0.763475 -0.064942 0.642564
vn -0.45749 0.035659 -0.888499
vn -0.876686 -0.001248 -0.481061
vn -0.994771 -0.027709 0.098303
vn -0.513944 -0.040947 0.856846
vn 0.822253 -0.023596 -0.568633
vn 0.773779 0.01071 -0.633365
vn 0.310592 0.043252 -0.949559
vn 0.794842 0.023969 -0.606342
vn 0.364857 -0.040263 0.930193
vn 0.604716 -0.067288 0.793594
vn 0.999443 -0.023355 -0.023846
vn 0.29364 0.022122 -0.95566
vn -0.52326 0.021668 -0.851898
vn -0.914302 -0.017793 -0.404642
vn -0.98554 -0.028939 0.166954
vn -0.425986 0.061816 0.902615
vn 0.990849 -0.017694 0.133808
vn 0.766657 0.01285 -0.641928
vn 0.995152 -0.011629 0.097656
vn 0.573668 0.079111 0.815258
vn 0.574423 0.013098 0.818454
vn 0.623903 -0.018149 0.781291
vn 0.713336 0.034233 -0.699986
vn 0.079635 0.060087 -0.995012
vn -0.740575 0.004983 -0.671956
vn -0.981916 -0.076972 -0.172965
vn -0.983129 -0.070935 0.168597
vn -0.32367 0.195129 0.925831
vn 0.996185 0.042182 -0.076399
vn 0.76521 0.038862 0.642607
vn 0.71511 0.18831 0.67317
vn 0.771863 0.127248 0.622925
vn 0.990576 0.12969 -0.044042
vn 0.729216 0.233287 -0.643289
vn 0.058644 0.278816 -0.958552
vn -0.861737 0.004014 -0.507339
vn -0.983396 -0.166831 -0.071407
vn -0.997944 -0.055199 0.032582
vn 0.128718 0.311572 0.941464
vn -0.797143 0.108629 0.593939
vn 0.851658 0.176588 0.493452
vn 0.716423 0.316961 0.62151
vn 0.894245 0.233439 0.38188
vn 0.89574 0.228821 0.38117
vn 0.870764 0.283181 -0.401967
vn 0.993826 -0.088697 0.066649
vn 0.987554 -0.127729 0.091772
vn 0.992623 0.103922 0.062451
vn 0.752892 0.409435 -0.515283
vn 0.455432 0.473171 -0.754116
vn -0.311859 0.411171 -0.856552
vn -0.877216 0.228621 -0.422166
vn -0.903772 -0.383642 0.189776
vn -0.884656 -0.453615 -0.107786
vn -0.868219 -0.335848 -0.365241
vn -0.782121 0.040146 0.621832
vn -0.903225 -0.150935 -0.401751
vn -0.998688 -0.00985 0.050253
vn 0.036969 0.269147 0.962389
vn 0.862703 0.351776 0.363314
vn 0.722573 0.365985 0.586467
vn 0.830768 0.43027 0.353118
vn 0.909918 0.361263 0.203812
vn 0.930966 0.316456 -0.182094
vn 0.946874 0.1723 0.271555
vn 0.980717 0.187923 -0.053652
vn 0.874628 0.470843 -0.115466
vn 0.564881 0.575154 -0.591699
vn 0.766625 0.483898 -0.422053
vn -0.122146 0.642331 -0.756632
vn -0.838548 0.380026 -0.390406
vn -0.943449 -0.226544 0.242038
vn -0.760557 -0.512142 0.399078
vn -0.745985 -0.655298 0.118707
vn -0.849449 -0.482256 -0.214163
vn -0.813524 -0.019069 -0.581218
vn -0.941675 -0.169177 0.290908
vn -0.819206 -0.203329 0.536245
vn -0.540339 -0.077152 0.837903
vn -0.902548 -0.037388 -0.428963
vn -0.041458 0.258778 0.965047
vn 0.790584 0.601428 0.115157
vn 0.541471 0.534885 0.64862
vn 0.589319 0.69538 0.411279
vn 0.776439 0.625456 -0.077118
vn 0.84938 0.321188 -0.418797
vn 0.859626 0.498914 -0.110131
vn 0.756151 0.631737 0.170717
vn 0.724982 0.676126 -0.131358
vn 0.775961 0.627956 -0.059623
vn 0.660785 0.497078 -0.562386
vn 0.054514 0.63229 -0.772812
vn -0.85302 0.310877 -0.419181
vn -0.947072 -0.113558 0.300264
vn -0.823619 0.065005 0.563406
vn -0.987398 0.084153 0.134025
vn -0.879252 0.120428 -0.460882
vn -0.996274 -0.062425 -0.059501
vn -0.933169 -0.34269 -0.108438
vn -0.741962 -0.469421 0.478681
vn -0.741439 -0.449902 0.497852
vn -0.517954 -0.087501 0.850921
vn -0.894817 -0.18558 -0.406033
vn -0.022151 0.263446 0.96442
vn 0.537326 0.840948 -0.063929
vn 0.542102 0.374635 0.752179
vn 0.472461 0.717617 0.51167
vn 0.562458 0.702267 -0.436419
vn 0.78457 0.620016 0.005499
vn 0.829573 0.028234 -0.557684
vn 0.750952 0.072141 -0.656404
vn 0.7816 0.485443 -0.391722
vn 0.887129 0.449031 0.106645
vn 0.911003 0.408668 -0.055358
vn 0.922637 0.384733 -0.026849
vn -0.107223 0.172764 -0.97911
vn -0.690889 -0.016454 -0.722773
vn -0.99859 -0.029251 -0.04431
vn -0.984717 0.052035 0.166208
vn -0.818894 0.250396 0.516444
vn -0.777745 0.227742 0.585873
vn -0.888425 -0.066775 0.454139
vn -0.659373 -0.604015 0.447653
vn -0.764118 -0.584313 -0.273317
vn -0.748594 -0.645728 0.150476
vn -0.691096 -0.710787 0.13103
vn -0.547441 -0.670259 0.50106
vn -0.4523 -0.250372 0.856001
vn -0.247634 -0.652221 0.716439
vn -0.53758 -0.743635 0.397512
vn -0.668332 -0.712305 0.214368
vn 0.031862 -0.059872 0.997697
vn 0.675749 0.733777 0.070252
vn 0.34597 -0.226554 0.910482
vn 0.493598 0.224315 0.840264
vn 0.438337 0.42514 0.791907
vn 0.80142 0.350743 -0.484464
vn 0.938633 0.333377 -0.088474
vn 0.578299 -0.038486 -0.814917
vn 0.735353 -0.355347 -0.577048
vn 0.127901 -0.294093 -0.94718
vn 0.865337 0.171339 -0.470993
vn 0.992454 -0.028525 0.11925
vn 0.996704 -0.076531 -0.026902
vn 0.99692 -0.071757 -0.031638
vn -0.799041 -0.26636 -0.53906
vn -0.94736 -0.316257 0.049904
vn -0.992568 -0.121685 -0.001429
vn -0.873238 -0.407336 -0.267458
vn -0.753653 -0.656766 -0.025803
vn -0.087723 -0.917813 0.387201
vn -0.261802 -0.951896 0.159226
vn -0.290767 -0.948274 -0.127401
vn -0.246893 -0.924789 0.289498
vn -0.433378 -0.865953 0.249616
vn -0.06603 -0.853574 0.516771
vn 0.07568 -0.479681 0.874173
vn -0.436281 -0.765402 0.473094
vn 0.543426 0.268482 0.795365
vn 0.966719 0.222591 0.126122
vn 0.21744 -0.048465 0.97487
vn 0.877968 -0.170986 -0.447143
vn 0.98833 -0.10595 -0.109447
vn 0.6772 -0.308463 -0.66802
vn 0.24394 -0.523203 -0.816549
vn 0.551407 -0.624229 -0.553433
vn 0.092455 -0.642504 -0.760685
vn -0.687438 -0.565314 -0.455905
vn 0.858399 -0.481679 0.176457
vn 0.850968 -0.523481 0.042667
vn 0.824815 -0.562953 0.052579
vn -0.775292 -0.628976 -0.057546
vn -0.635846 -0.560606 -0.53049
vn -0.236789 -0.74439 -0.624351
vn 0.512878 -0.820989 0.250864
vn 0.457588 -0.877701 0.142316
vn 0.330355 -0.940311 0.08174
vn 0.37458 -0.91901 -0.122929
vn 0.24114 -0.968828 -0.056786
vn 0.014564 -0.960752 0.277027
vn 0.092624 -0.415201 0.905002
vn 0.38851 -0.103689 0.915592
vn 0.888134 -0.383637 0.253063
vn 0.68201 -0.657643 -0.319951
vn 0.801625 -0.587159 -0.112436
vn 0.248382 -0.736695 -0.628957
vn -0.07444 -0.586005 -0.806881
vn -0.230791 -0.939392 -0.25353
vn -0.365378 -0.69446 -0.619858
vn 0.620306 -0.756479 0.207267
# 339 normals
usemtl Material__1
f  1//1 2//2 3//3
f  4//4 5//5 1//1
f  6//6 1//1 5//5
f  4//4 1//1 3//3
f  6//6 2//2 1//1
f  7//7 3//3 2//2
f  8//8 2//2 9//9
f  6//6 9//9 2//2
f  7//7 2//2 8//8
f  3//3 10//10 11//11
f  12//12 10//10 3//3
f  3//3 11//11 4//4
f  12//12 3//3 7//7
f  4//4 11//11 13//13
f  14//14 5//5 4//4
f  4//4 13//13 14//14
f  14//14 15//15 5//5
f  16//16 17//17 5//5
f  16//16 5//5 15//15
f  6//6 5//5 17//17
f  18//18 6//6 17//17
f  6//6 18//18 9//9
f  7//7 19//19 20//20
f  8//8 19//19 7//7
f  12//12 7//7 21//21
f  7//7 20//20 21//21
f  9//9 19//19 8//8
f  9//9 22//22 19//19
f  18//18 22//22 9//9
f  10//10 23//23 24//24
f  10//10 12//12 25//25
f  10//10 24//24 11//11
f  10//10 25//25 23//23
f  11//11 24//24 26//26
f  11//11 26//26 13//13
f  12//12 21//21 27//27
f  27//27 25//25 12//12
f  14//14 13//13 28//28
f  26//26 28//28 13//13
f  29//29 15//15 14//14
f  14//14 28//28 29//29
f  29//29 30//30 15//15
f  30//30 16//16 15//15
f  30//30 31//31 16//16
f  32//32 33//33 16//16
f  33//33 17//17 16//16
f  32//32 16//16 31//31
f  33//33 34//34 17//17
f  18//18 17//17 34//34
f  18//18 35//35 22//22
f  34//34 35//35 18//18
f  36//36 19//19 22//22
f  37//37 38//38 19//19
f  38//38 20//20 19//19
f  37//37 19//19 36//36
f  39//39 40//40 20//20
f  21//21 20//20 40//40
f  39//39 20//20 38//38
f  27//27 21//21 41//41
f  21//21 40//40 41//41
f  36//36 22//22 35//35
f  42//42 43//43 23//23
f  43//43 24//24 23//23
f  42//42 23//23 25//25
f  43//43 44//44 24//24
f  26//26 24//24 44//44
f  27//27 45//45 25//25
f  25//25 45//45 46//46
f  25//25 46//46 42//42
f  26//26 47//47 28//28
f  48//48 47//47 26//26
f  26//26 44//44 48//48
f  27//27 41//41 49//49
f  49//49 45//45 27//27
f  28//28 50//50 51//51
f  47//47 50//50 28//28
f  28//28 51//51 29//29
f  29//29 51//51 52//52
f  52//52 53//53 29//29
f  30//30 29//29 53//53
f  30//30 53//53 31//31
f  54//54 31//31 55//55
f  53//53 55//55 31//31
f  32//32 31//31 54//54
f  56//56 32//32 57//57
f  33//33 32//32 56//56
f  54//54 57//57 32//32
f  58//58 34//34 33//33
f  58//58 33//33 56//56
f  59//59 35//35 34//34
f  59//59 34//34 58//58
f  36//36 35//35 59//59
f  60//60 37//37 36//36
f  60//60 36//36 59//59
f  61//61 62//62 37//37
f  61//61 37//37 60//60
f  62//62 38//38 37//37
f  62//62 39//39 38//38
f  63//63 64//64 39//39
f  63//63 39//39 62//62
f  64//64 40//40 39//39
f  64//64 65//65 40//40
f  66//66 41//41 40//40
f  66//66 40//40 65//65
f  67//67 49//49 41//41
f  67//67 41//41 66//66
f  68//68 69//69 42//42
f  69//69 43//43 42//42
f  68//68 42//42 46//46
f  69//69 70//70 43//43
f  70//70 44//44 43//43
f  70//70 71//71 44//44
f  48//48 44//44 71//71
f  49//49 72//72 45//45
f  46//46 45//45 72//72
f  46//46 72//72 73//73
f  73//73 68//68 46//46
f  48//48 74//74 47//47
f  47//47 75//75 50//50
f  74//74 75//75 47//47
f  48//48 71//71 76//76
f  76//76 74//74 48//48
f  77//77 72//72 49//49
f  77//77 49//49 67//67
f  51//51 50//50 78//78
f  75//75 78//78 50//50
f  79//79 80//80 51//51
f  80//80 52//52 51//51
f  51//51 78//78 79//79
f  55//55 53//53 52//52
f  55//55 52//52 80//80
f  54//54 81//81 82//82
f  54//54 83//83 84//84
f  54//54 82//82 57//57
f  54//54 84//84 81//81
f  55//55 83//83 54//54
f  55//55 80//80 83//83
f  85//85 58//58 56//56
f  86//86 56//56 87//87
f  85//85 56//56 86//86
f  56//56 57//57 87//87
f  87//87 57//57 82//82
f  88//88 59//59 58//58
f  88//88 58//58 85//85
f  89//89 60//60 59//59
f  89//89 59//59 88//88
f  90//90 61//61 60//60
f  90//90 60//60 89//89
f  91//91 92//92 61//61
f  91//91 61//61 90//90
f  92//92 62//62 61//61
f  92//92 63//63 62//62
f  93//93 94//94 63//63
f  93//93 63//63 92//92
f  94//94 64//64 63//63
f  94//94 95//95 64//64
f  95//95 65//65 64//64
f  95//95 96//96 65//65
f  97//97 66//66 65//65
f  97//97 65//65 96//96
f  98//98 67//67 66//66
f  98//98 66//66 97//97
f  99//99 77//77 67//67
f  99//99 67//67 98//98
f  100//100 69//69 68//68
f  73//73 101//101 68//68
f  68//68 102//102 100//100
f  68//68 101//101 102//102
f  100//100 103//103 69//69
f  103//103 70//70 69//69
f  103//103 104//104 70//70
f  104//104 71//71 70//70
f  104//104 105//105 71//71
f  76//76 71//71 105//105
f  106//106 73//73 72//72
f  106//106 72//72 77//77
f  107//107 73//73 106//106
f  107//107 101//101 73//73
f  108//108 74//74 109//109
f  76//76 109//109 74//74
f  74//74 108//108 75//75
f  75//75 110//110 78//78
f  108//108 110//110 75//75
f  76//76 105//105 111//111
f  111//111 109//109 76//76
f  112//112 106//106 77//77
f  112//112 77//77 99//99
f  78//78 113//113 114//114
f  78//78 114//114 79//79
f  110//110 113//113 78//78
f  80//80 79//79 114//114
f  80//80 114//114 83//83
f  81//81 84//84 115//115
f  116//116 82//82 81//81
f  81//81 115//115 116//116
f  82//82 117//117 118//118
f  116//116 117//117 82//82
f  87//87 82//82 118//118
f  83//83 114//114 84//84
f  84//84 114//114 119//119
f  119//119 115//115 84//84
f  86//86 88//88 85//85
f  86//86 120//120 121//121
f  86//86 121//121 91//91
f  86//86 87//87 120//120
f  86//86 91//91 90//90
f  86//86 90//90 89//89
f  86//86 89//89 88//88
f  120//120 87//87 118//118
f  93//93 92//92 91//91
f  121//121 93//93 91//91
f  121//121 118//118 93//93
f  118//118 94//94 93//93
f  118//118 117//117 94//94
f  117//117 95//95 94//94
f  117//117 116//116 95//95
f  116//116 96//96 95//95
f  116//116 115//115 96//96
f  119//119 97//97 96//96
f  119//119 96//96 115//115
f  122//122 98//98 97//97
f  122//122 97//97 119//119
f  123//123 99//99 98//98
f  123//123 98//98 122//122
f  124//124 112//112 99//99
f  124//124 99//99 123//123
f  125//125 103//103 100//100
f  100//100 102//102 126//126
f  100//100 126//126 125//125
f  127//127 102//102 101//101
f  127//127 101//101 107//107
f  128//128 126//126 102//102
f  128//128 102//102 127//127
f  125//125 129//129 103//103
f  129//129 104//104 103//103
f  129//129 130//130 104//104
f  130//130 105//105 104//104
f  130//130 131//131 105//105
f  111//111 105//105 131//131
f  132//132 107//107 106//106
f  132//132 106//106 112//112
f  107//107 132//132 133//133
f  107//107 133//133 127//127
f  108//108 134//134 110//110
f  135//135 134//134 108//108
f  108//108 109//109 135//135
f  135//135 109//109 136//136
f  111//111 136//136 109//109
f  110//110 123//123 113//113
f  134//134 123//123 110//110
f  111//111 131//131 137//137
f  137//137 136//136 111//111
f  138//138 132//132 112//112
f  138//138 112//112 124//124
f  113//113 122//122 119//119
f  123//123 122//122 113//113
f  113//113 119//119 114//114
f  120//120 118//118 121//121
f  134//134 124//124 123//123
f  138//138 124//124 134//134
f  125//125 126//126 139//139
f  125//125 139//139 140//140
f  140//140 129//129 125//125
f  139//139 126//126 128//128
f  127//127 133//133 141//141
f  127//127 141//141 128//128
f  142//142 143//143 128//128
f  139//139 128//128 143//143
f  142//142 128//128 141//141
f  140//140 144//144 129//129
f  129//129 144//144 145//145
f  129//129 145//145 130//130
f  145//145 131//131 130//130
f  145//145 146//146 131//131
f  137//137 131//131 146//146
f  133//133 132//132 138//138
f  133//133 138//138 147//147
f  147//147 141//141 133//133
f  138//138 134//134 135//135
f  147//147 138//138 135//135
f  135//135 136//136 147//147
f  137//137 148//148 136//136
f  148//148 147//147 136//136
f  137//137 146//146 149//149
f  149//149 148//148 137//137
f  150//150 151//151 139//139
f  140//140 139//139 151//151
f  150//150 139//139 143//143
f  140//140 152//152 153//153
f  140//140 151//151 152//152
f  140//140 153//153 144//144
f  147//147 154//154 141//141
f  141//141 154//154 155//155
f  141//141 155//155 142//142
f  156//156 143//143 142//142
f  142//142 155//155 157//157
f  142//142 157//157 156//156
f  156//156 150//150 143//143
f  144//144 153//153 145//145
f  153//153 146//146 145//145
f  153//153 158//158 146//146
f  159//159 149//149 146//146
f  159//159 146//146 158//158
f  148//148 154//154 147//147
f  149//149 160//160 148//148
f  160//160 154//154 148//148
f  159//159 160//160 149//149
f  161//161 162//162 150//150
f  161//161 150//150 156//156
f  162//162 151//151 150//150
f  162//162 163//163 151//151
f  152//152 151//151 163//163
f  152//152 163//163 164//164
f  164//164 153//153 152//152
f  164//164 165//165 153//153
f  165//165 158//158 153//153
f  160//160 155//155 154//154
f  166//166 157//157 155//155
f  166//166 155//155 160//160
f  156//156 167//167 161//161
f  156//156 157//157 167//167
f  168//168 167//167 157//157
f  168//168 157//157 166//166
f  165//165 169//169 158//158
f  158//158 169//169 170//170
f  170//170 159//159 158//158
f  170//170 171//171 159//159
f  159//159 166//166 160//160
f  171//171 166//166 159//159
f  161//161 167//167 172//172
f  161//161 172//172 173//173
f  173//173 162//162 161//161
f  173//173 174//174 162//162
f  174//174 163//163 162//162
f  174//174 175//175 163//163
f  164//164 163//163 175//175
f  164//164 175//175 176//176
f  176//176 165//165 164//164
f  176//176 177//177 165//165
f  177//177 169//169 165//165
f  171//171 168//168 166//166
f  178//178 172//172 167//167
f  178//178 167//167 168//168
f  179//179 178//178 168//168
f  179//179 168//168 171//171
f  177//177 180//180 169//169
f  170//170 169//169 180//180
f  170//170 180//180 181//181
f  181//181 171//171 170//170
f  181//181 179//179 171//171
f  182//182 183//183 172//172
f  173//173 172//172 183//183
f  182//182 172//172 178//178
f  173//173 184//184 185//185
f  173//173 183//183 184//184
f  173//173 185//185 174//174
f  185//185 175//175 174//174
f  185//185 186//186 175//175
f  176//176 175//175 186//186
f  177//177 176//176 187//187
f  176//176 186//186 187//187
f  188//188 177//177 189//189
f  188//188 180//180 177//177
f  177//177 187//187 189//189
f  178//178 190//190 182//182
f  178//178 179//179 190//190
f  190//190 179//179 181//181
f  188//188 191//191 180//180
f  181//181 180//180 191//191
f  181//181 191//191 192//192
f  190//190 181//181 192//192
f  182//182 190//190 193//193
f  183//183 182//182 194//194
f  195//195 194//194 182//182
f  182//182 196//196 195//195
f  197//197 196//196 182//182
f  182//182 193//193 197//197
f  183//183 198//198 199//199
f  183//183 199//199 184//184
f  183//183 194//194 198//198
f  199//199 200//200 184//184
f  200//200 185//185 184//184
f  200//200 201//201 185//185
f  202//202 185//185 201//201
f  203//203 186//186 185//185
f  203//203 185//185 202//202
f  204//204 187//187 186//186
f  204//204 186//186 203//203
f  205//205 189//189 187//187
f  206//206 207//207 187//187
f  206//206 187//187 204//204
f  207//207 205//205 187//187
f  208//208 191//191 188//188
f  188//188 205//205 208//208
f  188//188 189//189 205//205
f  209//209 193//193 190//190
f  209//209 190//190 192//192
f  208//208 210//210 191//191
f  192//192 191//191 210//210
f  192//192 210//210 211//211
f  192//192 211//211 209//209
f  212//212 193//193 209//209
f  197//197 193//193 212//212
f  198//198 194//194 213//213
f  213//213 194//194 195//195
f  214//214 213//213 195//195
f  195//195 215//215 214//214
f  196//196 215//215 195//195
f  197//197 215//215 196//196
f  197//197 216//216 215//215
f  212//212 216//216 197//197
f  217//217 199//199 198//198
f  217//217 198//198 218//218
f  198//198 213//213 218//218
f  219//219 200//200 199//199
f  219//219 199//199 217//217
f  219//219 201//201 200//200
f  219//219 220//220 201//201
f  221//221 201//201 220//220
f  202//202 201//201 221//221
f  202//202 222//222 223//223
f  221//221 222//222 202//202
f  202//202 223//223 203//203
f  203//203 223//223 224//224
f  203//203 224//224 204//204
f  204//204 224//224 225//225
f  204//204 225//225 206//206
f  207//207 226//226 205//205
f  205//205 227//227 228//228
f  228//228 208//208 205//205
f  205//205 226//226 227//227
f  206//206 225//225 229//229
f  229//229 207//207 206//206
f  229//229 226//226 207//207
f  228//228 230//230 208//208
f  230//230 210//210 208//208
f  209//209 231//231 212//212
f  211//211 231//231 209//209
f  230//230 232//232 210//210
f  211//211 210//210 232//232
f  211//211 232//232 233//233
f  211//211 233//233 231//231
f  212//212 234//234 216//216
f  234//234 212//212 231//231
f  235//235 218//218 213//213
f  236//236 213//213 214//214
f  235//235 213//213 236//236
f  237//237 214//214 215//215
f  236//236 214//214 237//237
f  238//238 215//215 216//216
f  237//237 215//215 238//238
f  239//239 216//216 234//234
f  238//238 216//216 239//239
f  217//217 240//240 241//241
f  217//217 241//241 219//219
f  218//218 240//240 217//217
f  218//218 235//235 240//240
f  241//241 220//220 219//219
f  241//241 242//242 220//220
f  243//243 220//220 242//242
f  221//221 220//220 243//243
f  243//243 222//222 221//221
f  243//243 244//244 222//222
f  245//245 222//222 244//244
f  224//224 223//223 222//222
f  224//224 222//222 245//245
f  225//225 224//224 245//245
f  225//225 246//246 229//229
f  247//247 246//246 225//225
f  247//247 225//225 245//245
f  248//248 226//226 229//229
f  248//248 249//249 226//226
f  227//227 226//226 249//249
f  228//228 227//227 250//250
f  227//227 249//249 250//250
f  251//251 230//230 228//228
f  228//228 250//250 251//251
f  229//229 246//246 252//252
f  229//229 252//252 248//248
f  253//253 230//230 251//251
f  253//253 232//232 230//230
f  234//234 231//231 254//254
f  254//254 231//231 233//233
f  253//253 255//255 232//232
f  233//233 232//232 255//255
f  233//233 255//255 256//256
f  254//254 233//233 256//256
f  257//257 234//234 254//254
f  258//258 234//234 257//257
f  239//239 234//234 258//258
f  235//235 259//259 260//260
f  235//235 260//260 240//240
f  236//236 259//259 235//235
f  236//236 261//261 259//259
f  237//237 261//261 236//236
f  237//237 262//262 261//261
f  238//238 262//262 237//237
f  238//238 263//263 262//262
f  239//239 263//263 238//238
f  239//239 264//264 263//263
f  258//258 264//264 239//239
f  241//241 240//240 260//260
f  265//265 242//242 241//241
f  241//241 260//260 265//265
f  265//265 266//266 242//242
f  242//242 266//266 267//267
f  243//243 242//242 267//267
f  268//268 244//244 243//243
f  268//268 243//243 267//267
f  269//269 270//270 244//244
f  244//244 270//270 245//245
f  269//269 244//244 268//268
f  245//245 270//270 271//271
f  245//245 271//271 247//247
f  246//246 247//247 252//252
f  247//247 271//271 272//272
f  273//273 252//252 247//247
f  247//247 272//272 274//274
f  273//273 247//247 274//274
f  248//248 252//252 273//273
f  275//275 249//249 248//248
f  248//248 273//273 275//275
f  275//275 276//276 249//249
f  250//250 249//249 276//276
f  277//277 251//251 250//250
f  250//250 278//278 277//277
f  279//279 278//278 250//250
f  250//250 280//280 279//279
f  250//250 276//276 280//280
f  251//251 277//277 281//281
f  251//251 281//281 253//253
f  253//253 281//281 255//255
f  257//257 254//254 282//282
f  256//256 282//282 254//254
f  255//255 281//281 283//283
f  255//255 284//284 256//256
f  255//255 283//283 284//284
f  285//285 256//256 284//284
f  256//256 285//285 282//282
f  257//257 286//286 287//287
f  257//257 287//287 258//258
f  282//282 286//286 257//257
f  258//258 287//287 264//264
f  259//259 288//288 289//289
f  259//259 289//289 260//260
f  261//261 288//288 259//259
f  260//260 289//289 290//290
f  260//260 290//290 265//265
f  261//261 291//291 288//288
f  291//291 261//261 262//262
f  291//291 262//262 292//292
f  263//263 292//292 262//262
f  263//263 293//293 292//292
f  264//264 293//293 263//263
f  264//264 294//294 293//293
f  287//287 294//294 264//264
f  290//290 266//266 265//265
f  267//267 266//266 295//295
f  290//290 295//295 266//266
f  268//268 267//267 296//296
f  267//267 295//295 296//296
f  297//297 269//269 268//268
f  268//268 298//298 297//297
f  296//296 298//298 268//268
f  297//297 270//270 269//269
f  297//297 271//271 270//270
f  299//299 272//272 271//271
f  299//299 271//271 297//297
f  300//300 272//272 299//299
f  301//301 274//274 272//272
f  301//301 272//272 300//300
f  275//275 273//273 302//302
f  301//301 302//302 273//273
f  301//301 273//273 274//274
f  303//303 276//276 275//275
f  275//275 302//302 303//303
f  303//303 304//304 276//276
f  280//280 276//276 304//304
f  283//283 281//281 277//277
f  277//277 278//278 283//283
f  278//278 305//305 306//306
f  306//306 283//283 278//278
f  278//278 279//279 305//305
f  279//279 280//280 307//307
f  279//279 307//307 305//305
f  280//280 304//304 307//307
f  308//308 309//309 282//282
f  282//282 309//309 286//286
f  308//308 282//282 285//285
f  310//310 283//283 306//306
f  284//284 283//283 310//310
f  310//310 285//285 284//284
f  310//310 308//308 285//285
f  286//286 311//311 312//312
f  286//286 312//312 287//287
f  309//309 311//311 286//286
f  287//287 312//312 294//294
f  313//313 314//314 288//288
f  315//315 289//289 288//288
f  313//313 288//288 291//291
f  315//315 288//288 314//314
f  316//316 290//290 289//289
f  316//316 289//289 315//315
f  290//290 316//316 317//317
f  290//290 317//317 295//295
f  292//292 313//313 291//291
f  292//292 318//318 313//313
f  318//318 292//292 293//293
f  319//319 293//293 294//294
f  318//318 293//293 319//319
f  320//320 294//294 312//312
f  319//319 294//294 320//320
f  296//296 295//295 317//317
f  296//296 321//321 298//298
f  296//296 317//317 321//321
f  297//297 298//298 322//322
f  297//297 322//322 299//299
f  321//321 322//322 298//298
f  323//323 299//299 322//322
f  300//300 299//299 323//323
f  300//300 324//324 325//325
f  323//323 324//324 300//300
f  300//300 325//325 301//301
f  301//301 325//325 326//326
f  301//301 326//326 302//302
f  302//302 326//326 327//327
f  302//302 327//327 303//303
f  303//303 327//327 328//328
f  303//303 328//328 304//304
f  304//304 328//328 329//329
f  304//304 329//329 307//307
f  306//306 305//305 307//307
f  306//306 330//330 331//331
f  307//307 330//330 306//306
f  306//306 331//331 310//310
f  307//307 329//329 330//330
f  331//331 308//308 310//310
f  331//331 309//309 308//308
f  331//331 332//332 309//309
f  309//309 332//332 311//311
f  333//333 311//311 332//332
f  334//334 312//312 311//311
f  334//334 311//311 333//333
f  320//320 312//312 334//334
f  335//335 314//314 313//313
f  318//318 335//335 313//313
f  335//335 336//336 314//314
f  337//337 315//315 314//314
f  337//337 314//314 336//336
f  316//316 315//315 337//337
f  317//317 316//316 337//337
f  317//317 337//337 321//321
f  318//318 324//324 335//335
f  319//319 324//324 318//318
f  319//319 325//325 324//324
f  320//320 325//325 319//319
f  320//320 326//326 325//325
f  334//334 326//326 320//320
f  321//321 337//337 322//322
f  338//338 322//322 337//337
f  323//323 322//322 338//338
f  336//336 335//335 323//323
f  323//323 335//335 324//324
f  336//336 323//323 338//338
f  334//334 327//327 326//326
f  333//333 328//328 327//327
f  333//333 327//327 334//334
f  339//339 329//329 328//328
f  339//339 328//328 333//333
f  329//329 339//339 330//330
f  330//330 339//339 332//332
f  330//330 332//332 331//331
f  333//333 332//332 339//339
f  338//338 337//337 336//336
