#VRML V2.0 utf8 
Transform { 
 children [ 
    Shape { 
appearance Appearance {
              material DEF surface Material {
              diffuseColor 0.8 0.8 0.8
              ambientIntensity 0.2
              specularColor 0.4 0.4 0.4
              emissiveColor 0 0 0
              shininess 0.25
              transparency 0
            }
          }
   geometry IndexedFaceSet { 
   solid FALSE 
    coord DEF bone Coordinate{ 
     point [ 
	 -0.004657  -0.009399  -0.017403,
	 -0.009707  -0.000561  -0.017529,
	  0.000775   0.000617  -0.020975,
	  0.007550  -0.010277  -0.018154,
	 -0.009497  -0.013056  -0.010405,
	  0.006443  -0.017173  -0.016275,
	 -0.003385  -0.015617  -0.015034,
	 -0.007875  -0.018174  -0.009636,
	 -0.000288   0.007985  -0.017007,
	 -0.007677   0.007032  -0.012334,
	 -0.013146  -0.002370  -0.011169,
	  0.007629   0.002432  -0.019760,
	  0.013479  -0.017075  -0.012377,
	  0.014931  -0.008301  -0.013039,
	 -0.017805  -0.003513   0.002078,
	 -0.014243  -0.000891  -0.004146,
	 -0.014882  -0.007448   0.002283,
	  0.005953  -0.027481  -0.013997,
	  0.011957  -0.027123  -0.011146,
	 -0.001056  -0.026847  -0.012973,
	 -0.006667  -0.027038  -0.007541,
	 -0.010701  -0.017036   0.002386,
	  0.005028   0.009765  -0.017380,
	 -0.001353   0.011255  -0.012857,
	 -0.011320   0.006585  -0.008647,
	  0.017523   0.002512  -0.013259,
	  0.018163   0.009946  -0.010276,
	  0.015783  -0.017636  -0.005062,
	  0.017598  -0.006800  -0.005816,
	 -0.018389   0.001620   0.003302,
	 -0.018338  -0.006324   0.013184,
	 -0.017642   0.000245   0.013855,
	 -0.013458   0.008048  -0.003606,
	 -0.015014   0.010233   0.004435,
	 -0.015376  -0.009446   0.012638,
	 -0.002310  -0.036874  -0.010963,
	  0.004965  -0.037287  -0.012510,
	  0.014090  -0.025842  -0.003657,
	  0.011454  -0.037733  -0.009891,
	 -0.005693  -0.037446  -0.006597,
	 -0.008823  -0.028132   0.002900,
	 -0.008393  -0.036981   0.003048,
	 -0.010241  -0.019088   0.009720,
	  0.011702   0.014748  -0.006447,
	  0.002428   0.014139  -0.011419,
	 -0.004244   0.012725  -0.010020,
	  0.017238   0.002050  -0.006469,
	  0.017957   0.010459  -0.003436,
	  0.014650   0.013802  -0.002409,
	  0.024930  -0.009981  -0.000065,
	  0.020448  -0.019302   0.001507,
	  0.027317  -0.003427  -0.002053,
	  0.026790  -0.000801  -0.003581,
	 -0.014278   0.009392   0.014753,
	 -0.009092  -0.002339   0.025934,
	 -0.010035  -0.011262   0.024588,
	 -0.009307  -0.014733   0.021362,
	 -0.007961   0.005914   0.024385,
	 -0.007345   0.015595  -0.002672,
	 -0.008824   0.016472   0.005576,
	 -0.008638   0.015111   0.014479,
	 -0.006141  -0.020848   0.017281,
	 -0.006100  -0.060791  -0.005411,
	 -0.002382  -0.060260  -0.009125,
	  0.004130  -0.060348  -0.010173,
	  0.012967  -0.038511  -0.002298,
	  0.017810  -0.026066   0.001609,
	  0.011190  -0.059764  -0.007077,
	 -0.008302  -0.060686   0.000869,
	 -0.008233  -0.027011   0.009339,
	 -0.007585  -0.036319   0.008191,
	 -0.004653  -0.026669   0.015628,
	  0.008695   0.017902   0.000130,
	  0.003186   0.018109  -0.004022,
	  0.027360   0.001385   0.002388,
	  0.021651   0.008614   0.012751,
	  0.016329   0.014550   0.009688,
	  0.021401  -0.018924   0.007699,
	  0.028593  -0.005480   0.006954,
	  0.024554  -0.011663   0.009265,
	 -0.003499   0.014045   0.019854,
	  0.000363   0.006277   0.026845,
	 -0.000773  -0.003586   0.029361,
	 -0.000822  -0.011665   0.028705,
	  0.000792  -0.015581   0.025049,
	  0.001770  -0.020299   0.020750,
	  0.001892   0.014478   0.020606,
	 -0.000652   0.019654   0.001847,
	 -0.002609   0.019847   0.006323,
	 -0.002424   0.019165   0.011045,
	  0.000869   0.018009   0.014592,
	  0.002837  -0.025602   0.018009,
	 -0.008882  -0.081082  -0.000197,
	 -0.006484  -0.080914  -0.006178,
	 -0.002040  -0.080613  -0.009003,
	  0.003972  -0.080374  -0.009019,
	  0.014288  -0.060536  -0.000536,
	  0.014737  -0.039723   0.003162,
	  0.018123  -0.025977   0.006915,
	  0.011458  -0.081644  -0.006097,
	 -0.006845  -0.060534   0.007378,
	 -0.007470  -0.080953   0.006575,
	 -0.003144  -0.036156   0.014059,
	 -0.001735  -0.060011   0.012040,
	  0.004204  -0.037394   0.014994,
	  0.002136   0.019403   0.000898,
	  0.010470   0.017755   0.008252,
	  0.004549   0.018957   0.004619,
	  0.023463   0.002159   0.014786,
	  0.013943   0.012182   0.018711,
	  0.019061   0.005517   0.019869,
	  0.019927  -0.003783   0.019010,
	  0.019396  -0.010223   0.015210,
	  0.014751  -0.018671   0.013643,
	  0.007751   0.015875   0.017523,
	  0.010084   0.009594   0.023322,
	  0.012108   0.001536   0.026623,
	  0.014778  -0.006819   0.025535,
	  0.014568  -0.010082   0.021404,
	  0.011885  -0.019057   0.017450,
	  0.011240  -0.025535   0.014419,
	  0.003765   0.018604   0.012385,
	  0.010534  -0.039370   0.012340,
	 -0.009940  -0.110983   0.000057,
	 -0.008000  -0.110536   0.006646,
	 -0.006992  -0.110762  -0.006107,
	 -0.002678  -0.110807  -0.008428,
	  0.004371  -0.110338  -0.007933,
	  0.012804  -0.060459   0.008212,
	  0.014710  -0.082727  -0.000237,
	  0.014752  -0.040123   0.007089,
	  0.011115  -0.111027  -0.004523,
	 -0.002338  -0.080686   0.011228,
	 -0.002388  -0.110239   0.011634,
	  0.007451  -0.060292   0.012484,
	  0.006684  -0.082018   0.011598,
	  0.010859  -0.060455   0.010836,
	  0.005035   0.019109   0.008637,
	 -0.007470  -0.138224   0.007480,
	 -0.009158  -0.138652   0.000925,
	 -0.006384  -0.138492  -0.003950,
	 -0.003685  -0.137497  -0.005661,
	  0.003907  -0.136844  -0.006220,
	  0.011154  -0.081751   0.007744,
	  0.013475  -0.110548   0.000093,
	  0.010909  -0.137303  -0.003344,
	  0.005506  -0.110091   0.011654,
	 -0.002623  -0.137722   0.012105,
	  0.003836  -0.137194   0.012747,
	 -0.006679  -0.170358   0.008931,
	 -0.002244  -0.168861   0.014077,
	 -0.003458  -0.171288  -0.002844,
	 -0.008973  -0.170597   0.002822,
	  0.004440  -0.169545  -0.002150,
	  0.010762  -0.167879   0.000899,
	  0.010434  -0.110530   0.006783,
	  0.012744  -0.137339   0.001855,
	  0.008421  -0.137423   0.008357,
	  0.004137  -0.167835   0.014991,
	  0.008446  -0.167819   0.010575,
	 -0.001342  -0.202567   0.015715,
	 -0.005728  -0.202974   0.009584,
	  0.002866  -0.203000   0.016005,
	 -0.007554  -0.204450   0.002691,
	 -0.004195  -0.203486  -0.006098,
	  0.001289  -0.203071  -0.002726,
	  0.004946  -0.202872  -0.000399,
	  0.009650  -0.202454   0.002449,
	  0.012999  -0.168726   0.003001,
	  0.007655  -0.202966   0.011925,
	  0.011606  -0.202873   0.004307,
	  0.001295  -0.231144   0.017061,
	 -0.002420  -0.231403   0.015489,
	 -0.005753  -0.230847   0.006917,
	  0.007088  -0.229961   0.012644,
	 -0.005489  -0.230347   0.000932,
	 -0.002184  -0.227264  -0.010757,
	  0.001210  -0.226982  -0.006865,
	  0.004045  -0.227441  -0.002425,
	  0.008980  -0.227743   0.001758,
	  0.011816  -0.228155   0.007240,
	  0.009966  -0.248519   0.012136,
	 -0.001163  -0.249911   0.017134,
	  0.002177  -0.249187   0.019196,
	 -0.002942  -0.250885   0.003959,
	  0.013261  -0.247328   0.005760,
	 -0.003190  -0.250548  -0.005779,
	 -0.002455  -0.248807  -0.015855,
	 -0.000230  -0.246636  -0.016146,
	  0.003174  -0.246156  -0.013566,
	  0.009075  -0.248003  -0.002021,
	  0.005424  -0.248157  -0.009314,
	  0.013726  -0.265578   0.015764,
	  0.005452  -0.259210   0.022312,
	  0.011147  -0.263797   0.018131,
	  0.002506  -0.258941   0.022453,
	 -0.000119  -0.259371   0.020762,
	  0.000199  -0.265768   0.010766,
	 -0.000162  -0.263481   0.004522,
	 -0.000480  -0.265179   0.000184,
	  0.010853  -0.259928  -0.004361,
	  0.014617  -0.265866   0.011399,
	  0.013838  -0.264727   0.006877,
	  0.014052  -0.263703   0.002063,
	 -0.000643  -0.261119  -0.019661,
	 -0.003154  -0.265187  -0.012798,
	 -0.001473  -0.269769  -0.005162,
	  0.002248  -0.260535  -0.020993,
	  0.005678  -0.259546  -0.018701,
	  0.008234  -0.260362  -0.010852,
	  0.007187  -0.260662  -0.012920,
	  0.014571  -0.269769   0.017778,
	  0.007542  -0.267043   0.026947,
	  0.003571  -0.267201   0.029031,
	  0.012104  -0.268016   0.021213,
	  0.000466  -0.266849   0.026525,
	 -0.000307  -0.268286   0.013991,
	  0.005417  -0.269050   0.005526,
	  0.004854  -0.270050   0.010143,
	  0.007534  -0.271926   0.003314,
	  0.007424  -0.275030   0.002093,
	  0.012353  -0.266877  -0.006388,
	  0.012609  -0.272085   0.012410,
	  0.011552  -0.272500   0.006988,
	  0.016429  -0.272362   0.000286,
	 -0.002356  -0.274523  -0.013141,
	  0.003019  -0.271820  -0.021790,
	 -0.000367  -0.271776  -0.018671,
	 -0.002313  -0.275522  -0.007138,
	  0.007452  -0.271832  -0.023362,
	  0.009360  -0.270038  -0.021875,
	  0.013064  -0.268505  -0.012830,
	  0.011722  -0.269441  -0.017741,
	  0.014278  -0.275013   0.024844,
	  0.017827  -0.276602   0.019204,
	  0.003437  -0.272663   0.035064,
	  0.009832  -0.273813   0.031401,
	 -0.000112  -0.272328   0.031969,
	 -0.000394  -0.273991   0.019759,
	  0.005656  -0.275853   0.013388,
	  0.009026  -0.276627   0.006706,
	  0.003810  -0.282851   0.000438,
	  0.004425  -0.285585   0.005121,
	  0.014798  -0.273499  -0.008138,
	  0.016322  -0.277024   0.013192,
	  0.016213  -0.277660   0.008685,
	  0.018827  -0.275817   0.000184,
	 -0.001233  -0.285615  -0.007211,
	  0.000507  -0.285349  -0.010389,
	  0.002701  -0.283865  -0.017342,
	  0.005628  -0.277206  -0.022854,
	  0.003835  -0.286249   0.000277,
	  0.009394  -0.274863  -0.024788,
	  0.013779  -0.275802  -0.023713,
	  0.018090  -0.272473  -0.014749,
	  0.016518  -0.272839  -0.018638,
	  0.011587  -0.279481   0.033467,
	  0.013994  -0.280313   0.026134,
	  0.021926  -0.281273   0.020848,
	  0.003458  -0.278795   0.038455,
	  0.001126  -0.280514   0.037258,
	 -0.001041  -0.278038   0.028678,
	  0.000920  -0.280341   0.017787,
	  0.004873  -0.281848   0.011149,
	  0.000317  -0.284207   0.014889,
	  0.002822  -0.288545   0.010806,
	  0.005521  -0.294633   0.011932,
	  0.005759  -0.290522   0.000332,
	  0.006818  -0.291106   0.004391,
	  0.020387  -0.276667  -0.008589,
	  0.018587  -0.277480  -0.004659,
	  0.021753  -0.282122   0.014996,
	  0.020431  -0.282025   0.009304,
	  0.022686  -0.280240   0.001549,
	  0.002591  -0.291850  -0.006477,
	  0.004327  -0.288772  -0.009957,
	  0.007689  -0.283324  -0.023370,
	  0.009813  -0.288061  -0.022114,
	  0.007908  -0.289609  -0.017879,
	  0.006056  -0.288963  -0.014731,
	  0.012064  -0.278917  -0.025131,
	  0.011893  -0.282525  -0.024447,
	  0.017900  -0.276648  -0.020807,
	  0.022980  -0.274914  -0.014643,
	  0.021788  -0.277029  -0.019235,
	  0.009919  -0.285587   0.031900,
	  0.004784  -0.285401   0.036472,
	  0.013384  -0.285324   0.025809,
	  0.022513  -0.286817   0.023557,
	  0.000028  -0.284222   0.035885,
	 -0.000232  -0.282697   0.029350,
	 -0.001044  -0.289345   0.016299,
	  0.001751  -0.288199   0.020150,
	  0.002932  -0.296930   0.018572,
	  0.009963  -0.299334   0.014937,
	  0.011370  -0.294160   0.005647,
	  0.010737  -0.294303   0.000823,
	  0.020892  -0.281506  -0.003756,
	  0.024450  -0.280217  -0.009257,
	  0.022924  -0.287056   0.017028,
	  0.020510  -0.286466   0.009359,
	  0.023666  -0.285170   0.003016,
	  0.007580  -0.295353  -0.006229,
	  0.009693  -0.292963  -0.009512,
	  0.017870  -0.288301  -0.018983,
	  0.010484  -0.290276  -0.018364,
	  0.011494  -0.293927  -0.012735,
	  0.019696  -0.282694  -0.020015,
	  0.026645  -0.280059  -0.014929,
	  0.023706  -0.280535  -0.019859,
	  0.008862  -0.290070   0.030753,
	  0.003127  -0.287106   0.036165,
	  0.001547  -0.286442   0.035714,
	  0.012969  -0.289527   0.025549,
	  0.021555  -0.292408   0.024203,
	  0.001511  -0.286698   0.028605,
	  0.005824  -0.291280   0.021080,
	  0.009491  -0.300098   0.020622,
	  0.015740  -0.293353   0.007862,
	  0.016669  -0.297452   0.014880,
	  0.016083  -0.294616   0.000477,
	  0.015191  -0.293171  -0.005351,
	  0.021122  -0.284629  -0.003616,
	  0.024479  -0.285204  -0.008448,
	  0.021624  -0.292637   0.016313,
	  0.019282  -0.290211   0.009011,
	  0.022300  -0.289976   0.002340,
	  0.016984  -0.294881  -0.011505,
	  0.016683  -0.295501  -0.016576,
	  0.023484  -0.285220  -0.019905,
	  0.020359  -0.290777  -0.019140,
	  0.026581  -0.286898  -0.016377,
	  0.005869  -0.290558   0.029795,
	  0.015552  -0.297851   0.023126,
	  0.010635  -0.292523   0.023246,
	  0.008627  -0.292932   0.022695,
	  0.019501  -0.289445  -0.004328,
	  0.022443  -0.290834  -0.009514,
	  0.021683  -0.292205  -0.016526,
     ]    } 
    coordIndex [ 
	     0,      1,      2, -1 
	     0,      2,      3, -1 
	     1,      0,      4, -1 
	     5,      6,      0, -1 
	     0,      6,      7, -1 
	     3,      5,      0, -1 
	     4,      0,      7, -1 
	     2,      1,      8, -1 
	     9,      1,     10, -1 
	     1,      9,      8, -1 
	    10,      1,      4, -1 
	     2,     11,      3, -1 
	    11,      2,      8, -1 
	    12,      5,      3, -1 
	     3,     11,     13, -1 
	    13,     12,      3, -1 
	    14,     15,      4, -1 
	     4,     15,     10, -1 
	    16,      4,      7, -1 
	    16,     14,      4, -1 
	     5,     17,      6, -1 
	    18,     17,      5, -1 
	    12,     18,      5, -1 
	    17,     19,      6, -1 
	    20,      7,      6, -1 
	    19,     20,      6, -1 
	    21,     16,      7, -1 
	     7,     20,     21, -1 
	    22,     11,      8, -1 
	    22,      8,     23, -1 
	     9,     23,      8, -1 
	    10,     15,      9, -1 
	    15,     24,      9, -1 
	     9,     24,     23, -1 
	    11,     25,     13, -1 
	    11,     22,     26, -1 
	    25,     11,     26, -1 
	    27,     12,     13, -1 
	    12,     27,     18, -1 
	    13,     25,     28, -1 
	    28,     27,     13, -1 
	    15,     14,     29, -1 
	    14,     30,     31, -1 
	    30,     14,     16, -1 
	    29,     14,     31, -1 
	    24,     15,     32, -1 
	    15,     29,     33, -1 
	    32,     15,     33, -1 
	    34,     16,     21, -1 
	    34,     30,     16, -1 
	    19,     17,     35, -1 
	    17,     36,     35, -1 
	    36,     17,     18, -1 
	    27,     37,     18, -1 
	    18,     37,     38, -1 
	    38,     36,     18, -1 
	    19,     35,     39, -1 
	    20,     19,     39, -1 
	    20,     40,     21, -1 
	    41,     40,     20, -1 
	    39,     41,     20, -1 
	    42,     34,     21, -1 
	    21,     40,     42, -1 
	    26,     22,     43, -1 
	    22,     44,     43, -1 
	    44,     22,     23, -1 
	    24,     45,     23, -1 
	    23,     45,     44, -1 
	    45,     24,     32, -1 
	    25,     46,     28, -1 
	    25,     26,     46, -1 
	    26,     47,     46, -1 
	    26,     43,     48, -1 
	    47,     26,     48, -1 
	    49,     50,     27, -1 
	    27,     50,     37, -1 
	    28,     49,     27, -1 
	    51,     49,     28, -1 
	    28,     52,     51, -1 
	    52,     28,     46, -1 
	    33,     29,     53, -1 
	    29,     31,     53, -1 
	    31,     30,     54, -1 
	    30,     55,     54, -1 
	    30,     34,     56, -1 
	    55,     30,     56, -1 
	    31,     54,     57, -1 
	    53,     31,     57, -1 
	    58,     45,     32, -1 
	    32,     33,     59, -1 
	    58,     32,     59, -1 
	    33,     53,     60, -1 
	    59,     33,     60, -1 
	    34,     42,     61, -1 
	    56,     34,     61, -1 
	    39,     35,     62, -1 
	    35,     63,     62, -1 
	    35,     36,     63, -1 
	    36,     64,     63, -1 
	    64,     36,     38, -1 
	    37,     65,     38, -1 
	    50,     66,     37, -1 
	    37,     66,     65, -1 
	    67,     64,     38, -1 
	    38,     65,     67, -1 
	    39,     62,     68, -1 
	    41,     39,     68, -1 
	    40,     69,     42, -1 
	    69,     40,     41, -1 
	    70,     69,     41, -1 
	    41,     68,     70, -1 
	    42,     69,     71, -1 
	    61,     42,     71, -1 
	    72,     48,     43, -1 
	    43,     44,     73, -1 
	    72,     43,     73, -1 
	    44,     45,     58, -1 
	    73,     44,     58, -1 
	    47,     52,     46, -1 
	    74,     47,     75, -1 
	    47,     74,     52, -1 
	    75,     47,     48, -1 
	    76,     48,     72, -1 
	    48,     76,     75, -1 
	    77,     50,     49, -1 
	    49,     78,     79, -1 
	    49,     51,     78, -1 
	    79,     77,     49, -1 
	    50,     77,     66, -1 
	    51,     52,     74, -1 
	    78,     51,     74, -1 
	    60,     53,     80, -1 
	    53,     57,     80, -1 
	    57,     54,     81, -1 
	    54,     82,     81, -1 
	    54,     55,     82, -1 
	    55,     83,     82, -1 
	    55,     56,     84, -1 
	    83,     55,     84, -1 
	    56,     61,     85, -1 
	    84,     56,     85, -1 
	    57,     81,     86, -1 
	    80,     57,     86, -1 
	    73,     58,     87, -1 
	    58,     59,     88, -1 
	    87,     58,     88, -1 
	    59,     60,     89, -1 
	    88,     59,     89, -1 
	    60,     80,     90, -1 
	    89,     60,     90, -1 
	    61,     71,     91, -1 
	    85,     61,     91, -1 
	    68,     62,     92, -1 
	    62,     93,     92, -1 
	    62,     63,     93, -1 
	    63,     94,     93, -1 
	    63,     64,     94, -1 
	    64,     95,     94, -1 
	    95,     64,     67, -1 
	    96,     65,     97, -1 
	    65,     96,     67, -1 
	    66,     97,     65, -1 
	    77,     98,     66, -1 
	    66,     98,     97, -1 
	    99,     95,     67, -1 
	    67,     96,     99, -1 
	    68,    100,     70, -1 
	    92,    101,     68, -1 
	   101,    100,     68, -1 
	    69,     70,    102, -1 
	    71,     69,    102, -1 
	   102,     70,    103, -1 
	    70,    100,    103, -1 
	    71,    102,    104, -1 
	    91,     71,    104, -1 
	    72,     73,    105, -1 
	   106,     72,    107, -1 
	   107,     72,    105, -1 
	   106,     76,     72, -1 
	   105,     73,     87, -1 
	    75,    108,     74, -1 
	   108,     78,     74, -1 
	   109,    110,     75, -1 
	   111,    108,     75, -1 
	    76,    109,     75, -1 
	   110,    111,     75, -1 
	   109,     76,    106, -1 
	   112,    113,     77, -1 
	    79,    112,     77, -1 
	    77,    113,     98, -1 
	   112,     79,     78, -1 
	   108,    112,     78, -1 
	    90,     80,     86, -1 
	    86,     81,    114, -1 
	    81,    115,    114, -1 
	    81,     82,    115, -1 
	    82,    116,    115, -1 
	    82,     83,    116, -1 
	    83,    117,    116, -1 
	    83,     84,    118, -1 
	   117,     83,    118, -1 
	    84,     85,    119, -1 
	   118,     84,    119, -1 
	    85,     91,    120, -1 
	   119,     85,    120, -1 
	    90,     86,    121, -1 
	    86,    114,    121, -1 
	   105,     87,    107, -1 
	    87,     88,    107, -1 
	    88,     89,    107, -1 
	    89,     90,    107, -1 
	    90,    121,    107, -1 
	    91,    104,    122, -1 
	   120,     91,    122, -1 
	    92,     93,    123, -1 
	   124,    101,     92, -1 
	   123,    124,     92, -1 
	    93,    125,    123, -1 
	    93,     94,    125, -1 
	    94,    126,    125, -1 
	    94,     95,    126, -1 
	    95,    127,    126, -1 
	   127,     95,     99, -1 
	   128,     96,     97, -1 
	   129,     96,    128, -1 
	    96,    129,     99, -1 
	    98,    130,     97, -1 
	    97,    130,    128, -1 
	   113,    120,     98, -1 
	    98,    120,    130, -1 
	   131,    127,     99, -1 
	    99,    129,    131, -1 
	   100,    101,    132, -1 
	   103,    100,    132, -1 
	   101,    124,    133, -1 
	   132,    101,    133, -1 
	   102,    103,    134, -1 
	   104,    102,    134, -1 
	   135,    134,    103, -1 
	   132,    135,    103, -1 
	   104,    134,    136, -1 
	   122,    104,    136, -1 
	   114,    109,    106, -1 
	   137,    106,    107, -1 
	   114,    106,    137, -1 
	   121,    137,    107, -1 
	   111,    112,    108, -1 
	   110,    109,    116, -1 
	   114,    115,    109, -1 
	   109,    115,    116, -1 
	   117,    111,    110, -1 
	   116,    117,    110, -1 
	   118,    112,    111, -1 
	   111,    117,    118, -1 
	   112,    118,    113, -1 
	   118,    119,    113, -1 
	   113,    119,    120, -1 
	   121,    114,    137, -1 
	   120,    122,    130, -1 
	   130,    122,    136, -1 
	   138,    124,    123, -1 
	   139,    138,    123, -1 
	   123,    125,    139, -1 
	   133,    124,    138, -1 
	   125,    140,    139, -1 
	   141,    140,    125, -1 
	   126,    141,    125, -1 
	   126,    127,    141, -1 
	   127,    142,    141, -1 
	   142,    127,    131, -1 
	   128,    130,    136, -1 
	   128,    136,    143, -1 
	   143,    129,    128, -1 
	   129,    144,    131, -1 
	   129,    143,    144, -1 
	   145,    142,    131, -1 
	   131,    144,    145, -1 
	   146,    135,    132, -1 
	   133,    146,    132, -1 
	   133,    147,    148, -1 
	   147,    133,    138, -1 
	   146,    133,    148, -1 
	   136,    134,    135, -1 
	   143,    136,    135, -1 
	   135,    146,    143, -1 
	   138,    149,    150, -1 
	   149,    138,    139, -1 
	   147,    138,    150, -1 
	   151,    152,    139, -1 
	   152,    149,    139, -1 
	   140,    151,    139, -1 
	   141,    151,    140, -1 
	   141,    142,    151, -1 
	   142,    153,    151, -1 
	   142,    145,    154, -1 
	   153,    142,    154, -1 
	   146,    155,    143, -1 
	   143,    155,    144, -1 
	   144,    156,    145, -1 
	   144,    155,    156, -1 
	   145,    156,    154, -1 
	   157,    155,    146, -1 
	   148,    157,    146, -1 
	   148,    147,    158, -1 
	   147,    150,    158, -1 
	   159,    157,    148, -1 
	   158,    159,    148, -1 
	   150,    149,    160, -1 
	   149,    161,    160, -1 
	   161,    149,    152, -1 
	   150,    160,    162, -1 
	   158,    150,    162, -1 
	   152,    151,    163, -1 
	   151,    164,    163, -1 
	   151,    153,    164, -1 
	   163,    161,    152, -1 
	   153,    165,    164, -1 
	   166,    165,    153, -1 
	   153,    154,    166, -1 
	   154,    167,    166, -1 
	   156,    168,    154, -1 
	   154,    168,    167, -1 
	   155,    157,    156, -1 
	   156,    157,    168, -1 
	   157,    159,    168, -1 
	   162,    169,    158, -1 
	   169,    159,    158, -1 
	   159,    169,    170, -1 
	   168,    159,    170, -1 
	   162,    160,    171, -1 
	   160,    172,    171, -1 
	   160,    161,    172, -1 
	   161,    173,    172, -1 
	   173,    161,    163, -1 
	   174,    169,    162, -1 
	   171,    174,    162, -1 
	   175,    173,    163, -1 
	   163,    164,    175, -1 
	   164,    176,    175, -1 
	   164,    165,    176, -1 
	   165,    177,    176, -1 
	   177,    165,    166, -1 
	   178,    177,    166, -1 
	   166,    167,    178, -1 
	   168,    170,    167, -1 
	   167,    170,    179, -1 
	   167,    179,    178, -1 
	   169,    174,    180, -1 
	   170,    169,    180, -1 
	   170,    180,    179, -1 
	   181,    174,    171, -1 
	   182,    183,    171, -1 
	   183,    181,    171, -1 
	   172,    182,    171, -1 
	   172,    173,    182, -1 
	   173,    184,    182, -1 
	   184,    173,    175, -1 
	   174,    181,    185, -1 
	   180,    174,    185, -1 
	   186,    175,    176, -1 
	   186,    184,    175, -1 
	   187,    176,    188, -1 
	   176,    177,    188, -1 
	   187,    186,    176, -1 
	   177,    189,    188, -1 
	   189,    177,    178, -1 
	   178,    179,    190, -1 
	   191,    189,    178, -1 
	   191,    178,    190, -1 
	   190,    179,    180, -1 
	   185,    190,    180, -1 
	   192,    185,    181, -1 
	   193,    194,    181, -1 
	   183,    193,    181, -1 
	   194,    192,    181, -1 
	   183,    182,    195, -1 
	   182,    196,    195, -1 
	   196,    182,    197, -1 
	   182,    184,    198, -1 
	   197,    182,    198, -1 
	   183,    195,    193, -1 
	   184,    186,    199, -1 
	   198,    184,    199, -1 
	   200,    190,    185, -1 
	   185,    192,    201, -1 
	   201,    202,    185, -1 
	   185,    202,    203, -1 
	   203,    200,    185, -1 
	   186,    187,    204, -1 
	   186,    205,    206, -1 
	   199,    186,    206, -1 
	   186,    204,    205, -1 
	   204,    187,    188, -1 
	   188,    189,    207, -1 
	   207,    204,    188, -1 
	   189,    208,    207, -1 
	   208,    189,    191, -1 
	   190,    200,    209, -1 
	   191,    190,    209, -1 
	   210,    208,    191, -1 
	   209,    210,    191, -1 
	   211,    192,    194, -1 
	   201,    192,    211, -1 
	   194,    193,    212, -1 
	   193,    195,    213, -1 
	   212,    193,    213, -1 
	   214,    194,    212, -1 
	   214,    211,    194, -1 
	   195,    196,    213, -1 
	   196,    215,    213, -1 
	   215,    196,    216, -1 
	   216,    196,    197, -1 
	   217,    218,    197, -1 
	   197,    218,    216, -1 
	   198,    217,    197, -1 
	   219,    217,    198, -1 
	   199,    219,    198, -1 
	   220,    219,    199, -1 
	   206,    220,    199, -1 
	   209,    200,    221, -1 
	   221,    200,    203, -1 
	   201,    211,    222, -1 
	   222,    223,    201, -1 
	   201,    223,    202, -1 
	   202,    223,    203, -1 
	   223,    224,    203, -1 
	   203,    224,    221, -1 
	   204,    225,    205, -1 
	   226,    227,    204, -1 
	   204,    207,    226, -1 
	   227,    225,    204, -1 
	   206,    205,    228, -1 
	   205,    225,    228, -1 
	   228,    220,    206, -1 
	   207,    229,    226, -1 
	   207,    208,    229, -1 
	   208,    230,    229, -1 
	   230,    208,    210, -1 
	   221,    231,    209, -1 
	   209,    231,    210, -1 
	   232,    230,    210, -1 
	   231,    232,    210, -1 
	   211,    214,    233, -1 
	   222,    211,    234, -1 
	   234,    211,    233, -1 
	   235,    236,    212, -1 
	   213,    235,    212, -1 
	   212,    236,    214, -1 
	   213,    215,    235, -1 
	   236,    233,    214, -1 
	   215,    237,    235, -1 
	   237,    215,    238, -1 
	   238,    215,    216, -1 
	   216,    218,    238, -1 
	   218,    217,    219, -1 
	   218,    239,    238, -1 
	   239,    218,    240, -1 
	   240,    218,    219, -1 
	   240,    219,    220, -1 
	   228,    241,    220, -1 
	   220,    241,    242, -1 
	   240,    220,    242, -1 
	   224,    243,    221, -1 
	   231,    221,    243, -1 
	   223,    222,    244, -1 
	   244,    222,    234, -1 
	   224,    223,    245, -1 
	   245,    223,    244, -1 
	   243,    224,    246, -1 
	   246,    224,    245, -1 
	   228,    225,    247, -1 
	   225,    248,    247, -1 
	   248,    225,    227, -1 
	   249,    227,    226, -1 
	   226,    229,    250, -1 
	   250,    249,    226, -1 
	   249,    248,    227, -1 
	   251,    241,    228, -1 
	   247,    251,    228, -1 
	   250,    229,    252, -1 
	   229,    230,    252, -1 
	   230,    253,    252, -1 
	   253,    230,    232, -1 
	   254,    231,    243, -1 
	   232,    231,    254, -1 
	   255,    253,    232, -1 
	   255,    232,    254, -1 
	   256,    257,    233, -1 
	   236,    256,    233, -1 
	   233,    257,    234, -1 
	   257,    258,    234, -1 
	   234,    258,    244, -1 
	   256,    236,    235, -1 
	   235,    237,    259, -1 
	   259,    256,    235, -1 
	   237,    260,    259, -1 
	   261,    260,    237, -1 
	   261,    237,    238, -1 
	   238,    239,    262, -1 
	   261,    238,    262, -1 
	   239,    263,    264, -1 
	   240,    263,    239, -1 
	   262,    239,    264, -1 
	   265,    263,    240, -1 
	   242,    265,    240, -1 
	   251,    242,    241, -1 
	   266,    265,    242, -1 
	   242,    251,    267, -1 
	   268,    266,    242, -1 
	   268,    242,    267, -1 
	   254,    243,    269, -1 
	   269,    243,    270, -1 
	   270,    243,    246, -1 
	   258,    271,    244, -1 
	   244,    271,    245, -1 
	   271,    272,    245, -1 
	   245,    272,    246, -1 
	   272,    273,    246, -1 
	   246,    273,    270, -1 
	   267,    251,    247, -1 
	   247,    248,    274, -1 
	   274,    267,    247, -1 
	   248,    275,    274, -1 
	   275,    248,    249, -1 
	   249,    250,    276, -1 
	   276,    277,    249, -1 
	   249,    277,    278, -1 
	   278,    279,    249, -1 
	   279,    275,    249, -1 
	   280,    276,    250, -1 
	   252,    280,    250, -1 
	   253,    280,    252, -1 
	   281,    280,    253, -1 
	   255,    282,    253, -1 
	   282,    281,    253, -1 
	   283,    254,    269, -1 
	   254,    283,    255, -1 
	   282,    255,    284, -1 
	   283,    284,    255, -1 
	   256,    285,    257, -1 
	   286,    285,    256, -1 
	   259,    286,    256, -1 
	   285,    287,    257, -1 
	   257,    287,    258, -1 
	   287,    288,    258, -1 
	   271,    258,    288, -1 
	   259,    260,    286, -1 
	   289,    260,    261, -1 
	   260,    289,    286, -1 
	   290,    261,    262, -1 
	   290,    289,    261, -1 
	   262,    264,    291, -1 
	   291,    292,    262, -1 
	   262,    292,    290, -1 
	   264,    263,    291, -1 
	   263,    265,    291, -1 
	   265,    266,    293, -1 
	   291,    265,    293, -1 
	   293,    266,    294, -1 
	   266,    268,    295, -1 
	   294,    266,    295, -1 
	   296,    267,    274, -1 
	   267,    296,    295, -1 
	   268,    267,    295, -1 
	   297,    298,    269, -1 
	   270,    297,    269, -1 
	   269,    298,    283, -1 
	   273,    297,    270, -1 
	   299,    271,    288, -1 
	   271,    299,    272, -1 
	   299,    300,    272, -1 
	   272,    300,    273, -1 
	   300,    301,    273, -1 
	   273,    301,    297, -1 
	   274,    275,    302, -1 
	   302,    296,    274, -1 
	   275,    303,    302, -1 
	   303,    275,    279, -1 
	   276,    280,    281, -1 
	   281,    277,    276, -1 
	   304,    305,    277, -1 
	   277,    281,    304, -1 
	   305,    278,    277, -1 
	   306,    279,    278, -1 
	   305,    306,    278, -1 
	   306,    303,    279, -1 
	   304,    281,    307, -1 
	   307,    281,    282, -1 
	   282,    284,    307, -1 
	   283,    308,    309, -1 
	   298,    308,    283, -1 
	   284,    283,    309, -1 
	   284,    309,    307, -1 
	   287,    285,    310, -1 
	   285,    286,    311, -1 
	   310,    285,    311, -1 
	   312,    311,    286, -1 
	   289,    312,    286, -1 
	   287,    313,    314, -1 
	   288,    287,    314, -1 
	   313,    287,    310, -1 
	   288,    314,    299, -1 
	   312,    289,    290, -1 
	   292,    315,    290, -1 
	   315,    312,    290, -1 
	   316,    292,    291, -1 
	   293,    316,    291, -1 
	   292,    316,    315, -1 
	   316,    293,    317, -1 
	   317,    293,    294, -1 
	   318,    319,    294, -1 
	   294,    319,    317, -1 
	   295,    318,    294, -1 
	   320,    318,    295, -1 
	   296,    320,    295, -1 
	   321,    320,    296, -1 
	   302,    321,    296, -1 
	   297,    322,    298, -1 
	   301,    322,    297, -1 
	   322,    323,    298, -1 
	   298,    323,    308, -1 
	   314,    324,    299, -1 
	   300,    299,    324, -1 
	   301,    300,    325, -1 
	   325,    300,    324, -1 
	   322,    301,    326, -1 
	   326,    301,    325, -1 
	   327,    321,    302, -1 
	   303,    327,    302, -1 
	   328,    327,    303, -1 
	   306,    328,    303, -1 
	   306,    305,    304, -1 
	   329,    330,    304, -1 
	   304,    330,    306, -1 
	   307,    329,    304, -1 
	   330,    328,    306, -1 
	   307,    309,    329, -1 
	   309,    308,    329, -1 
	   308,    331,    329, -1 
	   323,    331,    308, -1 
	   313,    310,    332, -1 
	   332,    310,    311, -1 
	   332,    311,    312, -1 
	   315,    332,    312, -1 
	   314,    313,    333, -1 
	   313,    334,    333, -1 
	   334,    313,    332, -1 
	   314,    333,    324, -1 
	   316,    332,    315, -1 
	   332,    316,    335, -1 
	   335,    316,    317, -1 
	   317,    333,    334, -1 
	   319,    333,    317, -1 
	   335,    317,    334, -1 
	   319,    318,    325, -1 
	   325,    318,    326, -1 
	   318,    320,    326, -1 
	   333,    319,    324, -1 
	   324,    319,    325, -1 
	   326,    320,    336, -1 
	   320,    321,    336, -1 
	   321,    327,    337, -1 
	   336,    321,    337, -1 
	   323,    322,    336, -1 
	   336,    322,    326, -1 
	   331,    323,    337, -1 
	   337,    323,    336, -1 
	   327,    328,    338, -1 
	   337,    327,    338, -1 
	   330,    338,    328, -1 
	   329,    331,    330, -1 
	   331,    338,    330, -1 
	   338,    331,    337, -1 
	   334,    332,    335, -1 
    ] 
   colorPerVertex FALSE 
    colorIndex [ 
	  1, 
	  1, 
	  1, 
	  1, 
	  1, 
	  1, 
	  1, 
	  1, 
	  1, 
	  1, 
	  1, 
	  1, 
	  1, 
	  1, 
	  1, 
	  1, 
	  1, 
	  1, 
	  1, 
	  1, 
	  1, 
	  1, 
	  1, 
	  1, 
	  1, 
	  1, 
	  1, 
	  1, 
	  1, 
	  1, 
	  1, 
	  1, 
	  1, 
	  1, 
	  1, 
	  1, 
	  1, 
	  1, 
	  1, 
	  1, 
	  1, 
	  1, 
	  1, 
	  1, 
	  1, 
	  1, 
	  1, 
	  1, 
	  1, 
	  1, 
	  1, 
	  1, 
	  1, 
	  1, 
	  1, 
	  1, 
	  1, 
	  1, 
	  1, 
	  1, 
	  1, 
	  1, 
	  1, 
	  1, 
	  1, 
	  1, 
	  1, 
	  1, 
	  1, 
	  1, 
	  1, 
	  1, 
	  1, 
	  1, 
	  1, 
	  1, 
	  1, 
	  1, 
	  1, 
	  1, 
	  1, 
	  1, 
	  1, 
	  1, 
	  1, 
	  1, 
	  1, 
	  1, 
	  1, 
	  1, 
	  1, 
	  1, 
	  1, 
	  1, 
	  1, 
	  1, 
	  1, 
	  1, 
	  1, 
	  1, 
	  1, 
	  1, 
	  1, 
	  1, 
	  1, 
	  1, 
	  1, 
	  1, 
	  1, 
	  1, 
	  1, 
	  1, 
	  1, 
	  1, 
	  1, 
	  1, 
	  1, 
	  1, 
	  1, 
	  1, 
	  1, 
	  1, 
	  1, 
	  1, 
	  1, 
	  1, 
	  1, 
	  1, 
	  1, 
	  1, 
	  1, 
	  1, 
	  1, 
	  1, 
	  1, 
	  1, 
	  1, 
	  1, 
	  1, 
	  1, 
	  1, 
	  1, 
	  1, 
	  1, 
	  1, 
	  1, 
	  1, 
	  1, 
	  1, 
	  1, 
	  1, 
	  1, 
	  1, 
	  1, 
	  1, 
	  1, 
	  1, 
	  1, 
	  1, 
	  1, 
	  1, 
	  1, 
	  1, 
	  1, 
	  1, 
	  1, 
	  1, 
	  1, 
	  1, 
	  1, 
	  1, 
	  1, 
	  1, 
	  1, 
	  1, 
	  1, 
	  1, 
	  1, 
	  1, 
	  1, 
	  1, 
	  1, 
	  1, 
	  1, 
	  1, 
	  1, 
	  1, 
	  1, 
	  1, 
	  1, 
	  1, 
	  1, 
	  1, 
	  1, 
	  1, 
	  1, 
	  1, 
	  1, 
	  1, 
	  1, 
	  1, 
	  1, 
	  1, 
	  1, 
	  1, 
	  1, 
	  1, 
	  1, 
	  1, 
	  1, 
	  1, 
	  1, 
	  1, 
	  1, 
	  1, 
	  1, 
	  1, 
	  1, 
	  1, 
	  1, 
	  1, 
	  1, 
	  1, 
	  1, 
	  1, 
	  1, 
	  1, 
	  1, 
	  1, 
	  1, 
	  1, 
	  1, 
	  1, 
	  1, 
	  1, 
	  1, 
	  1, 
	  1, 
	  1, 
	  1, 
	  1, 
	  1, 
	  1, 
	  1, 
	  1, 
	  1, 
	  1, 
	  1, 
	  1, 
	  1, 
	  1, 
	  1, 
	  1, 
	  1, 
	  1, 
	  1, 
	  1, 
	  1, 
	  1, 
	  1, 
	  1, 
	  1, 
	  1, 
	  1, 
	  1, 
	  1, 
	  1, 
	  1, 
	  1, 
	  1, 
	  1, 
	  1, 
	  1, 
	  1, 
	  1, 
	  1, 
	  1, 
	  1, 
	  1, 
	  1, 
	  1, 
	  1, 
	  1, 
	  1, 
	  1, 
	  1, 
	  1, 
	  1, 
	  1, 
	  1, 
	  1, 
	  1, 
	  1, 
	  1, 
	  1, 
	  1, 
	  1, 
	  1, 
	  1, 
	  1, 
	  1, 
	  1, 
	  1, 
	  1, 
	  1, 
	  1, 
	  1, 
	  1, 
	  1, 
	  1, 
	  1, 
	  1, 
	  1, 
	  1, 
	  1, 
	  1, 
	  1, 
	  1, 
	  1, 
	  1, 
	  1, 
	  1, 
	  1, 
	  1, 
	  1, 
	  1, 
	  1, 
	  1, 
	  1, 
	  1, 
	  1, 
	  1, 
	  1, 
	  1, 
	  1, 
	  1, 
	  1, 
	  1, 
	  1, 
    ] 
normal Normal { 
vector [ 
	 -0.386322  -0.328729  -0.861796,
	 -0.648128   0.107810  -0.753861,
	 -0.099631   0.062679  -0.993048,
	  0.295660  -0.216160  -0.930516,
	 -0.844298  -0.347548  -0.407885,
	  0.169438  -0.268593  -0.948234,
	 -0.425511  -0.297000  -0.854828,
	 -0.826781  -0.323307  -0.460333,
	 -0.293157   0.531096  -0.794981,
	 -0.694217   0.485059  -0.531771,
	 -0.944984   0.076209  -0.318115,
	  0.333071   0.160975  -0.929059,
	  0.722714  -0.211050  -0.658136,
	  0.792342  -0.174398  -0.584619,
	 -0.948726  -0.225262  -0.221759,
	 -0.904124   0.067186  -0.421954,
	 -0.849786  -0.501429  -0.162583,
	  0.030391  -0.193016  -0.980725,
	  0.710403  -0.185417  -0.678931,
	 -0.519720  -0.170079  -0.837236,
	 -0.877881  -0.174013  -0.446145,
	 -0.945721  -0.297507  -0.130769,
	  0.035629   0.672587  -0.739160,
	 -0.402200   0.662698  -0.631717,
	 -0.709456   0.377507  -0.595115,
	  0.907083  -0.035011  -0.419494,
	  0.773546   0.493874  -0.397134,
	  0.851559  -0.237917  -0.467165,
	  0.741261  -0.219406  -0.634344,
	 -0.964737   0.203454  -0.167000,
	 -0.906450  -0.372684   0.198631,
	 -0.931393   0.138731   0.336542,
	 -0.796521   0.480550  -0.366915,
	 -0.844192   0.519004  -0.134066,
	 -0.826716  -0.560956   0.043222,
	 -0.506198  -0.083484  -0.858367,
	  0.100542  -0.123206  -0.987275,
	  0.889634  -0.191143  -0.414749,
	  0.759853  -0.107989  -0.641063,
	 -0.876366  -0.045064  -0.479533,
	 -0.989612  -0.139167  -0.036056,
	 -0.997257  -0.050533  -0.054088,
	 -0.916416  -0.335751   0.217839,
	  0.339014   0.863699  -0.372953,
	 -0.119488   0.828217  -0.547521,
	 -0.484642   0.657630  -0.576754,
	  0.901681   0.018992  -0.431984,
	  0.797993   0.547291  -0.252347,
	  0.627577   0.768693  -0.123526,
	  0.807165  -0.428960  -0.405558,
	  0.832093  -0.373300  -0.410207,
	  0.854345  -0.218275  -0.471647,
	  0.667289   0.132946  -0.732837,
	 -0.784646   0.494997   0.373241,
	 -0.598330   0.110330   0.793618,
	 -0.551100  -0.378144   0.743838,
	 -0.567184  -0.665844   0.484720,
	 -0.492427   0.431661   0.755767,
	 -0.448692   0.822237  -0.350146,
	 -0.607052   0.793161  -0.048808,
	 -0.518582   0.785736   0.337183,
	 -0.598895  -0.516180   0.612277,
	 -0.853476   0.007640  -0.521076,
	 -0.429512  -0.035675  -0.902356,
	  0.148283  -0.076515  -0.985981,
	  0.934270  -0.079304  -0.347635,
	  0.910765  -0.290996  -0.292966,
	  0.720131  -0.043468  -0.692475,
	 -0.999778   0.007091  -0.019844,
	 -0.926127  -0.165402   0.339016,
	 -0.899764  -0.072094   0.430381,
	 -0.582361  -0.283398   0.761933,
	  0.352913   0.925003  -0.140793,
	  0.024668   0.932712  -0.359778,
	  0.923741   0.382592  -0.018034,
	  0.779168   0.563052   0.275446,
	  0.579783   0.812152   0.065269,
	  0.854887  -0.444044   0.268316,
	  0.956886  -0.179329   0.228495,
	  0.839384  -0.431013   0.331153,
	 -0.340668   0.710557   0.615673,
	 -0.049729   0.448995   0.892149,
	 -0.103960   0.109787   0.988503,
	  0.092059  -0.414508   0.905377,
	  0.036094  -0.654355   0.755325,
	  0.019201  -0.565722   0.824372,
	 -0.009050   0.749059   0.662442,
	 -0.088499   0.981878  -0.167582,
	 -0.223890   0.974405  -0.020200,
	 -0.190893   0.954311   0.229893,
	 -0.084894   0.926809   0.365813,
	  0.045703  -0.318472   0.946830,
	 -0.997249   0.030915  -0.067374,
	 -0.786316   0.018931  -0.617534,
	 -0.293846  -0.017002  -0.955701,
	  0.202028  -0.039647  -0.978577,
	  0.973925   0.004374  -0.226828,
	  0.985447  -0.138764  -0.098181,
	  0.887221  -0.305656   0.345562,
	  0.675253  -0.027262  -0.737082,
	 -0.830645  -0.016584   0.556555,
	 -0.865880   0.012779   0.500089,
	 -0.507278  -0.153994   0.847912,
	 -0.409752  -0.056805   0.910427,
	  0.099644  -0.153082   0.983177,
	  0.131978   0.984967  -0.111453,
	  0.347440   0.929930   0.120478,
	  0.079438   0.996380   0.030280,
	  0.839228   0.122998   0.529687,
	  0.502583   0.684005   0.528723,
	  0.733324   0.262700   0.627077,
	  0.812729  -0.136412   0.566448,
	  0.717140  -0.354705   0.599912,
	  0.686910  -0.394437   0.610388,
	  0.247810   0.824015   0.509498,
	  0.250573   0.505848   0.825428,
	  0.382982   0.225116   0.895906,
	  0.622240  -0.266965   0.735899,
	  0.598652  -0.526329   0.603816,
	  0.526202  -0.470550   0.708303,
	  0.595907  -0.275016   0.754494,
	  0.000616   0.967731   0.251985,
	  0.542671  -0.120368   0.831276,
	 -0.997202   0.002128  -0.074728,
	 -0.881674   0.014185   0.471646,
	 -0.695536  -0.034688  -0.717654,
	 -0.165968  -0.049750  -0.984875,
	  0.226941  -0.059927  -0.972063,
	  0.942015  -0.055842   0.330892,
	  0.996382  -0.030246  -0.079420,
	  0.889548  -0.124231   0.439625,
	  0.689948  -0.047796  -0.722279,
	 -0.374351  -0.004814   0.927275,
	 -0.425525   0.019039   0.904746,
	  0.128401  -0.071197   0.989163,
	  0.284206  -0.044488   0.957731,
	  0.626581  -0.058931   0.777125,
	  0.121356   0.985917   0.115069,
	 -0.843858   0.005056   0.536542,
	 -0.979200  -0.039701  -0.198973,
	 -0.712524  -0.078458  -0.697248,
	 -0.268476  -0.082344  -0.959760,
	  0.238099  -0.089330  -0.967124,
	  0.805694  -0.057315   0.589553,
	  0.999397  -0.034729   0.000215,
	  0.763475  -0.064942  -0.642564,
	  0.416208  -0.005190   0.909254,
	 -0.365998   0.043294   0.929608,
	  0.345574   0.041657   0.937466,
	 -0.876686  -0.001248   0.481061,
	 -0.457490   0.035659   0.888499,
	 -0.513944  -0.040947  -0.856846,
	 -0.994771  -0.027709  -0.098303,
	  0.364857  -0.040263  -0.930193,
	  0.604716  -0.067288  -0.793594,
	  0.822253  -0.023596   0.568633,
	  0.999443  -0.023355   0.023846,
	  0.773779   0.010710   0.633365,
	  0.310592   0.043252   0.949559,
	  0.794842   0.023969   0.606342,
	 -0.523260   0.021668   0.851898,
	 -0.914302  -0.017793   0.404642,
	  0.293640   0.022122   0.955660,
	 -0.985540  -0.028939  -0.166954,
	 -0.425986   0.061816  -0.902615,
	  0.573668   0.079111  -0.815258,
	  0.574423   0.013098  -0.818453,
	  0.623903  -0.018149  -0.781291,
	  0.990849  -0.017694  -0.133808,
	  0.766657   0.012850   0.641928,
	  0.995152  -0.011629  -0.097656,
	  0.079635   0.060087   0.995011,
	 -0.740575   0.004983   0.671956,
	 -0.981916  -0.076972   0.172965,
	  0.713336   0.034233   0.699986,
	 -0.983129  -0.070935  -0.168597,
	 -0.323670   0.195129  -0.925831,
	  0.715110   0.188310  -0.673170,
	  0.771863   0.127248  -0.622925,
	  0.765210   0.038862  -0.642607,
	  0.996185   0.042182   0.076399,
	  0.729216   0.233287   0.643289,
	 -0.861737   0.004014   0.507339,
	  0.058644   0.278816   0.958552,
	 -0.983396  -0.166831   0.071407,
	  0.990576   0.129690   0.044042,
	 -0.997944  -0.055199  -0.032582,
	 -0.797143   0.108629  -0.593939,
	  0.128718   0.311572  -0.941464,
	  0.716423   0.316961  -0.621510,
	  0.851658   0.176588  -0.493452,
	  0.894245   0.233439  -0.381880,
	  0.870764   0.283181   0.401967,
	  0.455432   0.473171   0.754116,
	  0.752892   0.409435   0.515283,
	 -0.311859   0.411171   0.856552,
	 -0.877216   0.228621   0.422166,
	 -0.903772  -0.383642  -0.189776,
	 -0.884656  -0.453615   0.107786,
	 -0.868219  -0.335848   0.365241,
	  0.895740   0.228821  -0.381170,
	  0.993826  -0.088697  -0.066649,
	  0.987554  -0.127729  -0.091772,
	  0.992623   0.103922  -0.062451,
	 -0.782121   0.040146  -0.621832,
	 -0.998688  -0.009850  -0.050253,
	 -0.903225  -0.150935   0.401751,
	  0.036969   0.269147  -0.962389,
	  0.722573   0.365985  -0.586467,
	  0.862703   0.351776  -0.363314,
	  0.830768   0.430270  -0.353118,
	  0.930966   0.316456   0.182094,
	  0.564881   0.575154   0.591699,
	 -0.122146   0.642331   0.756632,
	  0.766625   0.483898   0.422053,
	 -0.838548   0.380026   0.390406,
	 -0.943449  -0.226544  -0.242038,
	 -0.745985  -0.655298  -0.118707,
	 -0.760557  -0.512142  -0.399078,
	 -0.849449  -0.482256   0.214163,
	 -0.813524  -0.019069   0.581218,
	  0.909918   0.361263  -0.203812,
	  0.946874   0.172300  -0.271555,
	  0.980717   0.187923   0.053652,
	  0.874629   0.470843   0.115466,
	 -0.941675  -0.169177  -0.290908,
	 -0.540339  -0.077152  -0.837903,
	 -0.819206  -0.203329  -0.536245,
	 -0.902548  -0.037388   0.428963,
	 -0.041458   0.258778  -0.965047,
	  0.541471   0.534885  -0.648620,
	  0.790584   0.601428  -0.115157,
	  0.589319   0.695380  -0.411279,
	  0.849380   0.321188   0.418797,
	  0.859626   0.498914   0.110131,
	  0.054514   0.632290   0.772812,
	  0.660785   0.497078   0.562386,
	 -0.853020   0.310877   0.419181,
	 -0.947072  -0.113558  -0.300264,
	 -0.823619   0.065005  -0.563406,
	 -0.987398   0.084153  -0.134025,
	 -0.879252   0.120428   0.460882,
	 -0.996274  -0.062425   0.059501,
	  0.776439   0.625456   0.077118,
	  0.756151   0.631737  -0.170717,
	  0.724982   0.676126   0.131358,
	  0.775961   0.627956   0.059623,
	 -0.933169  -0.342690   0.108438,
	 -0.741962  -0.469421  -0.478681,
	 -0.741439  -0.449902  -0.497852,
	 -0.517954  -0.087501  -0.850921,
	 -0.894817  -0.185580   0.406033,
	 -0.022151   0.263446  -0.964420,
	  0.542102   0.374635  -0.752179,
	  0.537326   0.840948   0.063929,
	  0.472461   0.717617  -0.511670,
	  0.750952   0.072141   0.656404,
	  0.829573   0.028234   0.557684,
	  0.781600   0.485443   0.391722,
	 -0.107223   0.172764   0.979110,
	 -0.690889  -0.016454   0.722773,
	 -0.998590  -0.029251   0.044310,
	 -0.984717   0.052035  -0.166208,
	 -0.777745   0.227742  -0.585873,
	 -0.818894   0.250396  -0.516444,
	 -0.888425  -0.066775  -0.454139,
	 -0.659373  -0.604015  -0.447653,
	 -0.764118  -0.584313   0.273317,
	 -0.748594  -0.645728  -0.150476,
	  0.562458   0.702267   0.436419,
	  0.784570   0.620016  -0.005499,
	  0.887129   0.449031  -0.106645,
	  0.911003   0.408668   0.055358,
	  0.922637   0.384733   0.026849,
	 -0.691096  -0.710787  -0.131030,
	 -0.547441  -0.670259  -0.501060,
	 -0.452300  -0.250372  -0.856001,
	 -0.247634  -0.652221  -0.716439,
	 -0.537580  -0.743635  -0.397512,
	 -0.668332  -0.712305  -0.214368,
	  0.031862  -0.059872  -0.997698,
	  0.345970  -0.226554  -0.910482,
	  0.493598   0.224315  -0.840264,
	  0.675749   0.733777  -0.070252,
	  0.438337   0.425140  -0.791907,
	  0.735353  -0.355347   0.577048,
	  0.127901  -0.294093   0.947180,
	  0.578299  -0.038486   0.814917,
	  0.865337   0.171339   0.470993,
	 -0.799041  -0.266360   0.539060,
	 -0.947360  -0.316257  -0.049904,
	 -0.992568  -0.121685   0.001429,
	 -0.873238  -0.407336   0.267458,
	 -0.753653  -0.656766   0.025803,
	 -0.087723  -0.917813  -0.387201,
	 -0.261802  -0.951896  -0.159226,
	 -0.290767  -0.948274   0.127401,
	  0.938633   0.333377   0.088474,
	  0.801420   0.350743   0.484464,
	  0.992454  -0.028525  -0.119250,
	  0.996704  -0.076531   0.026902,
	  0.996920  -0.071757   0.031638,
	 -0.246893  -0.924789  -0.289498,
	 -0.433378  -0.865953  -0.249616,
	  0.075680  -0.479681  -0.874173,
	 -0.066030  -0.853574  -0.516771,
	 -0.436281  -0.765402  -0.473094,
	  0.217440  -0.048465  -0.974870,
	  0.966719   0.222591  -0.126122,
	  0.543426   0.268482  -0.795365,
	  0.551407  -0.624229   0.553433,
	  0.092455  -0.642504   0.760685,
	 -0.687438  -0.565314   0.455905,
	  0.243940  -0.523203   0.816549,
	  0.677200  -0.308463   0.668020,
	 -0.775292  -0.628976   0.057546,
	 -0.635846  -0.560606   0.530490,
	 -0.236789  -0.744390   0.624351,
	  0.457588  -0.877701  -0.142316,
	  0.512878  -0.820989  -0.250864,
	  0.330355  -0.940311  -0.081740,
	  0.374580  -0.919010   0.122929,
	  0.988330  -0.105950   0.109447,
	  0.877968  -0.170986   0.447143,
	  0.858399  -0.481679  -0.176457,
	  0.850968  -0.523481  -0.042667,
	  0.824815  -0.562953  -0.052579,
	  0.241140  -0.968828   0.056786,
	  0.014564  -0.960752  -0.277027,
	  0.388510  -0.103689  -0.915592,
	  0.092624  -0.415201  -0.905002,
	  0.888134  -0.383637  -0.253063,
	 -0.230791  -0.939392   0.253530,
	  0.248382  -0.736695   0.628957,
	 -0.074440  -0.586005   0.806881,
	 -0.365378  -0.694460   0.619858,
	  0.801624  -0.587159   0.112436,
	  0.682010  -0.657643   0.319951,
	  0.620306  -0.756479  -0.207267,
     ]    } 
normalIndex      [ 
	     0,      1,      2, -1 
	     0,      2,      3, -1 
	     1,      0,      4, -1 
	     5,      6,      0, -1 
	     0,      6,      7, -1 
	     3,      5,      0, -1 
	     4,      0,      7, -1 
	     2,      1,      8, -1 
	     9,      1,     10, -1 
	     1,      9,      8, -1 
	    10,      1,      4, -1 
	     2,     11,      3, -1 
	    11,      2,      8, -1 
	    12,      5,      3, -1 
	     3,     11,     13, -1 
	    13,     12,      3, -1 
	    14,     15,      4, -1 
	     4,     15,     10, -1 
	    16,      4,      7, -1 
	    16,     14,      4, -1 
	     5,     17,      6, -1 
	    18,     17,      5, -1 
	    12,     18,      5, -1 
	    17,     19,      6, -1 
	    20,      7,      6, -1 
	    19,     20,      6, -1 
	    21,     16,      7, -1 
	     7,     20,     21, -1 
	    22,     11,      8, -1 
	    22,      8,     23, -1 
	     9,     23,      8, -1 
	    10,     15,      9, -1 
	    15,     24,      9, -1 
	     9,     24,     23, -1 
	    11,     25,     13, -1 
	    11,     22,     26, -1 
	    25,     11,     26, -1 
	    27,     12,     13, -1 
	    12,     27,     18, -1 
	    13,     25,     28, -1 
	    28,     27,     13, -1 
	    15,     14,     29, -1 
	    14,     30,     31, -1 
	    30,     14,     16, -1 
	    29,     14,     31, -1 
	    24,     15,     32, -1 
	    15,     29,     33, -1 
	    32,     15,     33, -1 
	    34,     16,     21, -1 
	    34,     30,     16, -1 
	    19,     17,     35, -1 
	    17,     36,     35, -1 
	    36,     17,     18, -1 
	    27,     37,     18, -1 
	    18,     37,     38, -1 
	    38,     36,     18, -1 
	    19,     35,     39, -1 
	    20,     19,     39, -1 
	    20,     40,     21, -1 
	    41,     40,     20, -1 
	    39,     41,     20, -1 
	    42,     34,     21, -1 
	    21,     40,     42, -1 
	    26,     22,     43, -1 
	    22,     44,     43, -1 
	    44,     22,     23, -1 
	    24,     45,     23, -1 
	    23,     45,     44, -1 
	    45,     24,     32, -1 
	    25,     46,     28, -1 
	    25,     26,     46, -1 
	    26,     47,     46, -1 
	    26,     43,     48, -1 
	    47,     26,     48, -1 
	    49,     50,     27, -1 
	    27,     50,     37, -1 
	    28,     49,     27, -1 
	    51,     49,     28, -1 
	    28,     52,     51, -1 
	    52,     28,     46, -1 
	    33,     29,     53, -1 
	    29,     31,     53, -1 
	    31,     30,     54, -1 
	    30,     55,     54, -1 
	    30,     34,     56, -1 
	    55,     30,     56, -1 
	    31,     54,     57, -1 
	    53,     31,     57, -1 
	    58,     45,     32, -1 
	    32,     33,     59, -1 
	    58,     32,     59, -1 
	    33,     53,     60, -1 
	    59,     33,     60, -1 
	    34,     42,     61, -1 
	    56,     34,     61, -1 
	    39,     35,     62, -1 
	    35,     63,     62, -1 
	    35,     36,     63, -1 
	    36,     64,     63, -1 
	    64,     36,     38, -1 
	    37,     65,     38, -1 
	    50,     66,     37, -1 
	    37,     66,     65, -1 
	    67,     64,     38, -1 
	    38,     65,     67, -1 
	    39,     62,     68, -1 
	    41,     39,     68, -1 
	    40,     69,     42, -1 
	    69,     40,     41, -1 
	    70,     69,     41, -1 
	    41,     68,     70, -1 
	    42,     69,     71, -1 
	    61,     42,     71, -1 
	    72,     48,     43, -1 
	    43,     44,     73, -1 
	    72,     43,     73, -1 
	    44,     45,     58, -1 
	    73,     44,     58, -1 
	    47,     52,     46, -1 
	    74,     47,     75, -1 
	    47,     74,     52, -1 
	    75,     47,     48, -1 
	    76,     48,     72, -1 
	    48,     76,     75, -1 
	    77,     50,     49, -1 
	    49,     78,     79, -1 
	    49,     51,     78, -1 
	    79,     77,     49, -1 
	    50,     77,     66, -1 
	    51,     52,     74, -1 
	    78,     51,     74, -1 
	    60,     53,     80, -1 
	    53,     57,     80, -1 
	    57,     54,     81, -1 
	    54,     82,     81, -1 
	    54,     55,     82, -1 
	    55,     83,     82, -1 
	    55,     56,     84, -1 
	    83,     55,     84, -1 
	    56,     61,     85, -1 
	    84,     56,     85, -1 
	    57,     81,     86, -1 
	    80,     57,     86, -1 
	    73,     58,     87, -1 
	    58,     59,     88, -1 
	    87,     58,     88, -1 
	    59,     60,     89, -1 
	    88,     59,     89, -1 
	    60,     80,     90, -1 
	    89,     60,     90, -1 
	    61,     71,     91, -1 
	    85,     61,     91, -1 
	    68,     62,     92, -1 
	    62,     93,     92, -1 
	    62,     63,     93, -1 
	    63,     94,     93, -1 
	    63,     64,     94, -1 
	    64,     95,     94, -1 
	    95,     64,     67, -1 
	    96,     65,     97, -1 
	    65,     96,     67, -1 
	    66,     97,     65, -1 
	    77,     98,     66, -1 
	    66,     98,     97, -1 
	    99,     95,     67, -1 
	    67,     96,     99, -1 
	    68,    100,     70, -1 
	    92,    101,     68, -1 
	   101,    100,     68, -1 
	    69,     70,    102, -1 
	    71,     69,    102, -1 
	   102,     70,    103, -1 
	    70,    100,    103, -1 
	    71,    102,    104, -1 
	    91,     71,    104, -1 
	    72,     73,    105, -1 
	   106,     72,    107, -1 
	   107,     72,    105, -1 
	   106,     76,     72, -1 
	   105,     73,     87, -1 
	    75,    108,     74, -1 
	   108,     78,     74, -1 
	   109,    110,     75, -1 
	   111,    108,     75, -1 
	    76,    109,     75, -1 
	   110,    111,     75, -1 
	   109,     76,    106, -1 
	   112,    113,     77, -1 
	    79,    112,     77, -1 
	    77,    113,     98, -1 
	   112,     79,     78, -1 
	   108,    112,     78, -1 
	    90,     80,     86, -1 
	    86,     81,    114, -1 
	    81,    115,    114, -1 
	    81,     82,    115, -1 
	    82,    116,    115, -1 
	    82,     83,    116, -1 
	    83,    117,    116, -1 
	    83,     84,    118, -1 
	   117,     83,    118, -1 
	    84,     85,    119, -1 
	   118,     84,    119, -1 
	    85,     91,    120, -1 
	   119,     85,    120, -1 
	    90,     86,    121, -1 
	    86,    114,    121, -1 
	   105,     87,    107, -1 
	    87,     88,    107, -1 
	    88,     89,    107, -1 
	    89,     90,    107, -1 
	    90,    121,    107, -1 
	    91,    104,    122, -1 
	   120,     91,    122, -1 
	    92,     93,    123, -1 
	   124,    101,     92, -1 
	   123,    124,     92, -1 
	    93,    125,    123, -1 
	    93,     94,    125, -1 
	    94,    126,    125, -1 
	    94,     95,    126, -1 
	    95,    127,    126, -1 
	   127,     95,     99, -1 
	   128,     96,     97, -1 
	   129,     96,    128, -1 
	    96,    129,     99, -1 
	    98,    130,     97, -1 
	    97,    130,    128, -1 
	   113,    120,     98, -1 
	    98,    120,    130, -1 
	   131,    127,     99, -1 
	    99,    129,    131, -1 
	   100,    101,    132, -1 
	   103,    100,    132, -1 
	   101,    124,    133, -1 
	   132,    101,    133, -1 
	   102,    103,    134, -1 
	   104,    102,    134, -1 
	   135,    134,    103, -1 
	   132,    135,    103, -1 
	   104,    134,    136, -1 
	   122,    104,    136, -1 
	   114,    109,    106, -1 
	   137,    106,    107, -1 
	   114,    106,    137, -1 
	   121,    137,    107, -1 
	   111,    112,    108, -1 
	   110,    109,    116, -1 
	   114,    115,    109, -1 
	   109,    115,    116, -1 
	   117,    111,    110, -1 
	   116,    117,    110, -1 
	   118,    112,    111, -1 
	   111,    117,    118, -1 
	   112,    118,    113, -1 
	   118,    119,    113, -1 
	   113,    119,    120, -1 
	   121,    114,    137, -1 
	   120,    122,    130, -1 
	   130,    122,    136, -1 
	   138,    124,    123, -1 
	   139,    138,    123, -1 
	   123,    125,    139, -1 
	   133,    124,    138, -1 
	   125,    140,    139, -1 
	   141,    140,    125, -1 
	   126,    141,    125, -1 
	   126,    127,    141, -1 
	   127,    142,    141, -1 
	   142,    127,    131, -1 
	   128,    130,    136, -1 
	   128,    136,    143, -1 
	   143,    129,    128, -1 
	   129,    144,    131, -1 
	   129,    143,    144, -1 
	   145,    142,    131, -1 
	   131,    144,    145, -1 
	   146,    135,    132, -1 
	   133,    146,    132, -1 
	   133,    147,    148, -1 
	   147,    133,    138, -1 
	   146,    133,    148, -1 
	   136,    134,    135, -1 
	   143,    136,    135, -1 
	   135,    146,    143, -1 
	   138,    149,    150, -1 
	   149,    138,    139, -1 
	   147,    138,    150, -1 
	   151,    152,    139, -1 
	   152,    149,    139, -1 
	   140,    151,    139, -1 
	   141,    151,    140, -1 
	   141,    142,    151, -1 
	   142,    153,    151, -1 
	   142,    145,    154, -1 
	   153,    142,    154, -1 
	   146,    155,    143, -1 
	   143,    155,    144, -1 
	   144,    156,    145, -1 
	   144,    155,    156, -1 
	   145,    156,    154, -1 
	   157,    155,    146, -1 
	   148,    157,    146, -1 
	   148,    147,    158, -1 
	   147,    150,    158, -1 
	   159,    157,    148, -1 
	   158,    159,    148, -1 
	   150,    149,    160, -1 
	   149,    161,    160, -1 
	   161,    149,    152, -1 
	   150,    160,    162, -1 
	   158,    150,    162, -1 
	   152,    151,    163, -1 
	   151,    164,    163, -1 
	   151,    153,    164, -1 
	   163,    161,    152, -1 
	   153,    165,    164, -1 
	   166,    165,    153, -1 
	   153,    154,    166, -1 
	   154,    167,    166, -1 
	   156,    168,    154, -1 
	   154,    168,    167, -1 
	   155,    157,    156, -1 
	   156,    157,    168, -1 
	   157,    159,    168, -1 
	   162,    169,    158, -1 
	   169,    159,    158, -1 
	   159,    169,    170, -1 
	   168,    159,    170, -1 
	   162,    160,    171, -1 
	   160,    172,    171, -1 
	   160,    161,    172, -1 
	   161,    173,    172, -1 
	   173,    161,    163, -1 
	   174,    169,    162, -1 
	   171,    174,    162, -1 
	   175,    173,    163, -1 
	   163,    164,    175, -1 
	   164,    176,    175, -1 
	   164,    165,    176, -1 
	   165,    177,    176, -1 
	   177,    165,    166, -1 
	   178,    177,    166, -1 
	   166,    167,    178, -1 
	   168,    170,    167, -1 
	   167,    170,    179, -1 
	   167,    179,    178, -1 
	   169,    174,    180, -1 
	   170,    169,    180, -1 
	   170,    180,    179, -1 
	   181,    174,    171, -1 
	   182,    183,    171, -1 
	   183,    181,    171, -1 
	   172,    182,    171, -1 
	   172,    173,    182, -1 
	   173,    184,    182, -1 
	   184,    173,    175, -1 
	   174,    181,    185, -1 
	   180,    174,    185, -1 
	   186,    175,    176, -1 
	   186,    184,    175, -1 
	   187,    176,    188, -1 
	   176,    177,    188, -1 
	   187,    186,    176, -1 
	   177,    189,    188, -1 
	   189,    177,    178, -1 
	   178,    179,    190, -1 
	   191,    189,    178, -1 
	   191,    178,    190, -1 
	   190,    179,    180, -1 
	   185,    190,    180, -1 
	   192,    185,    181, -1 
	   193,    194,    181, -1 
	   183,    193,    181, -1 
	   194,    192,    181, -1 
	   183,    182,    195, -1 
	   182,    196,    195, -1 
	   196,    182,    197, -1 
	   182,    184,    198, -1 
	   197,    182,    198, -1 
	   183,    195,    193, -1 
	   184,    186,    199, -1 
	   198,    184,    199, -1 
	   200,    190,    185, -1 
	   185,    192,    201, -1 
	   201,    202,    185, -1 
	   185,    202,    203, -1 
	   203,    200,    185, -1 
	   186,    187,    204, -1 
	   186,    205,    206, -1 
	   199,    186,    206, -1 
	   186,    204,    205, -1 
	   204,    187,    188, -1 
	   188,    189,    207, -1 
	   207,    204,    188, -1 
	   189,    208,    207, -1 
	   208,    189,    191, -1 
	   190,    200,    209, -1 
	   191,    190,    209, -1 
	   210,    208,    191, -1 
	   209,    210,    191, -1 
	   211,    192,    194, -1 
	   201,    192,    211, -1 
	   194,    193,    212, -1 
	   193,    195,    213, -1 
	   212,    193,    213, -1 
	   214,    194,    212, -1 
	   214,    211,    194, -1 
	   195,    196,    213, -1 
	   196,    215,    213, -1 
	   215,    196,    216, -1 
	   216,    196,    197, -1 
	   217,    218,    197, -1 
	   197,    218,    216, -1 
	   198,    217,    197, -1 
	   219,    217,    198, -1 
	   199,    219,    198, -1 
	   220,    219,    199, -1 
	   206,    220,    199, -1 
	   209,    200,    221, -1 
	   221,    200,    203, -1 
	   201,    211,    222, -1 
	   222,    223,    201, -1 
	   201,    223,    202, -1 
	   202,    223,    203, -1 
	   223,    224,    203, -1 
	   203,    224,    221, -1 
	   204,    225,    205, -1 
	   226,    227,    204, -1 
	   204,    207,    226, -1 
	   227,    225,    204, -1 
	   206,    205,    228, -1 
	   205,    225,    228, -1 
	   228,    220,    206, -1 
	   207,    229,    226, -1 
	   207,    208,    229, -1 
	   208,    230,    229, -1 
	   230,    208,    210, -1 
	   221,    231,    209, -1 
	   209,    231,    210, -1 
	   232,    230,    210, -1 
	   231,    232,    210, -1 
	   211,    214,    233, -1 
	   222,    211,    234, -1 
	   234,    211,    233, -1 
	   235,    236,    212, -1 
	   213,    235,    212, -1 
	   212,    236,    214, -1 
	   213,    215,    235, -1 
	   236,    233,    214, -1 
	   215,    237,    235, -1 
	   237,    215,    238, -1 
	   238,    215,    216, -1 
	   216,    218,    238, -1 
	   218,    217,    219, -1 
	   218,    239,    238, -1 
	   239,    218,    240, -1 
	   240,    218,    219, -1 
	   240,    219,    220, -1 
	   228,    241,    220, -1 
	   220,    241,    242, -1 
	   240,    220,    242, -1 
	   224,    243,    221, -1 
	   231,    221,    243, -1 
	   223,    222,    244, -1 
	   244,    222,    234, -1 
	   224,    223,    245, -1 
	   245,    223,    244, -1 
	   243,    224,    246, -1 
	   246,    224,    245, -1 
	   228,    225,    247, -1 
	   225,    248,    247, -1 
	   248,    225,    227, -1 
	   249,    227,    226, -1 
	   226,    229,    250, -1 
	   250,    249,    226, -1 
	   249,    248,    227, -1 
	   251,    241,    228, -1 
	   247,    251,    228, -1 
	   250,    229,    252, -1 
	   229,    230,    252, -1 
	   230,    253,    252, -1 
	   253,    230,    232, -1 
	   254,    231,    243, -1 
	   232,    231,    254, -1 
	   255,    253,    232, -1 
	   255,    232,    254, -1 
	   256,    257,    233, -1 
	   236,    256,    233, -1 
	   233,    257,    234, -1 
	   257,    258,    234, -1 
	   234,    258,    244, -1 
	   256,    236,    235, -1 
	   235,    237,    259, -1 
	   259,    256,    235, -1 
	   237,    260,    259, -1 
	   261,    260,    237, -1 
	   261,    237,    238, -1 
	   238,    239,    262, -1 
	   261,    238,    262, -1 
	   239,    263,    264, -1 
	   240,    263,    239, -1 
	   262,    239,    264, -1 
	   265,    263,    240, -1 
	   242,    265,    240, -1 
	   251,    242,    241, -1 
	   266,    265,    242, -1 
	   242,    251,    267, -1 
	   268,    266,    242, -1 
	   268,    242,    267, -1 
	   254,    243,    269, -1 
	   269,    243,    270, -1 
	   270,    243,    246, -1 
	   258,    271,    244, -1 
	   244,    271,    245, -1 
	   271,    272,    245, -1 
	   245,    272,    246, -1 
	   272,    273,    246, -1 
	   246,    273,    270, -1 
	   267,    251,    247, -1 
	   247,    248,    274, -1 
	   274,    267,    247, -1 
	   248,    275,    274, -1 
	   275,    248,    249, -1 
	   249,    250,    276, -1 
	   276,    277,    249, -1 
	   249,    277,    278, -1 
	   278,    279,    249, -1 
	   279,    275,    249, -1 
	   280,    276,    250, -1 
	   252,    280,    250, -1 
	   253,    280,    252, -1 
	   281,    280,    253, -1 
	   255,    282,    253, -1 
	   282,    281,    253, -1 
	   283,    254,    269, -1 
	   254,    283,    255, -1 
	   282,    255,    284, -1 
	   283,    284,    255, -1 
	   256,    285,    257, -1 
	   286,    285,    256, -1 
	   259,    286,    256, -1 
	   285,    287,    257, -1 
	   257,    287,    258, -1 
	   287,    288,    258, -1 
	   271,    258,    288, -1 
	   259,    260,    286, -1 
	   289,    260,    261, -1 
	   260,    289,    286, -1 
	   290,    261,    262, -1 
	   290,    289,    261, -1 
	   262,    264,    291, -1 
	   291,    292,    262, -1 
	   262,    292,    290, -1 
	   264,    263,    291, -1 
	   263,    265,    291, -1 
	   265,    266,    293, -1 
	   291,    265,    293, -1 
	   293,    266,    294, -1 
	   266,    268,    295, -1 
	   294,    266,    295, -1 
	   296,    267,    274, -1 
	   267,    296,    295, -1 
	   268,    267,    295, -1 
	   297,    298,    269, -1 
	   270,    297,    269, -1 
	   269,    298,    283, -1 
	   273,    297,    270, -1 
	   299,    271,    288, -1 
	   271,    299,    272, -1 
	   299,    300,    272, -1 
	   272,    300,    273, -1 
	   300,    301,    273, -1 
	   273,    301,    297, -1 
	   274,    275,    302, -1 
	   302,    296,    274, -1 
	   275,    303,    302, -1 
	   303,    275,    279, -1 
	   276,    280,    281, -1 
	   281,    277,    276, -1 
	   304,    305,    277, -1 
	   277,    281,    304, -1 
	   305,    278,    277, -1 
	   306,    279,    278, -1 
	   305,    306,    278, -1 
	   306,    303,    279, -1 
	   304,    281,    307, -1 
	   307,    281,    282, -1 
	   282,    284,    307, -1 
	   283,    308,    309, -1 
	   298,    308,    283, -1 
	   284,    283,    309, -1 
	   284,    309,    307, -1 
	   287,    285,    310, -1 
	   285,    286,    311, -1 
	   310,    285,    311, -1 
	   312,    311,    286, -1 
	   289,    312,    286, -1 
	   287,    313,    314, -1 
	   288,    287,    314, -1 
	   313,    287,    310, -1 
	   288,    314,    299, -1 
	   312,    289,    290, -1 
	   292,    315,    290, -1 
	   315,    312,    290, -1 
	   316,    292,    291, -1 
	   293,    316,    291, -1 
	   292,    316,    315, -1 
	   316,    293,    317, -1 
	   317,    293,    294, -1 
	   318,    319,    294, -1 
	   294,    319,    317, -1 
	   295,    318,    294, -1 
	   320,    318,    295, -1 
	   296,    320,    295, -1 
	   321,    320,    296, -1 
	   302,    321,    296, -1 
	   297,    322,    298, -1 
	   301,    322,    297, -1 
	   322,    323,    298, -1 
	   298,    323,    308, -1 
	   314,    324,    299, -1 
	   300,    299,    324, -1 
	   301,    300,    325, -1 
	   325,    300,    324, -1 
	   322,    301,    326, -1 
	   326,    301,    325, -1 
	   327,    321,    302, -1 
	   303,    327,    302, -1 
	   328,    327,    303, -1 
	   306,    328,    303, -1 
	   306,    305,    304, -1 
	   329,    330,    304, -1 
	   304,    330,    306, -1 
	   307,    329,    304, -1 
	   330,    328,    306, -1 
	   307,    309,    329, -1 
	   309,    308,    329, -1 
	   308,    331,    329, -1 
	   323,    331,    308, -1 
	   313,    310,    332, -1 
	   332,    310,    311, -1 
	   332,    311,    312, -1 
	   315,    332,    312, -1 
	   314,    313,    333, -1 
	   313,    334,    333, -1 
	   334,    313,    332, -1 
	   314,    333,    324, -1 
	   316,    332,    315, -1 
	   332,    316,    335, -1 
	   335,    316,    317, -1 
	   317,    333,    334, -1 
	   319,    333,    317, -1 
	   335,    317,    334, -1 
	   319,    318,    325, -1 
	   325,    318,    326, -1 
	   318,    320,    326, -1 
	   333,    319,    324, -1 
	   324,    319,    325, -1 
	   326,    320,    336, -1 
	   320,    321,    336, -1 
	   321,    327,    337, -1 
	   336,    321,    337, -1 
	   323,    322,    336, -1 
	   336,    322,    326, -1 
	   331,    323,    337, -1 
	   337,    323,    336, -1 
	   327,    328,    338, -1 
	   337,    327,    338, -1 
	   330,    338,    328, -1 
	   329,    331,    330, -1 
	   331,    338,    330, -1 
	   338,    331,    337, -1 
	   334,    332,    335, -1 
    ] 
normalPerVertex  TRUE 
   } 
  } 
 ] 
} 
