# 
# Wavefront OBJ file
# Converted by the DEEP Exploration 2.00.1211
# Right Hemisphere, LTD
# http://www.righthemisphere.com/
# 
mtllib index3_r.mtl
# object Object #0
g Object__0
v 0.00073 -0.004415 0.004998
v 0.003378 -0.003033 -0.000146
v 0.001347 -0.003318 -0.004536
v -0.002982 -0.003037 2.1e-005
v 0.000551 -0.006859 0.004286
v -0.002881 -0.006312 -0.000416
v 0.003242 -0.0061 -0.000209
v 0.001228 -0.006743 -0.00412
v 9.8e-005 -0.009357 0.004072
v -0.00203 -0.0094 0.000238
v 0.000324 -0.00946 -0.002056
v 0.002272 -0.008862 0.000524
v 3.7e-005 -0.011692 0.003647
v -0.001931 -0.012569 0.001002
v 6.7e-005 -0.012718 -0.001021
v 0.00208 -0.011898 0.00099
v 0.001113 -0.01407 0.004417
v -0.001706 -0.015766 0.001714
v 0.000538 -0.016472 -0.000392
v 0.002039 -0.014775 0.00202
v 0.001906 -0.016461 0.004961
v -0.000444 -0.0186 0.002789
v 0.001312 -0.019745 0.000922
v 0.002824 -0.017707 0.002715
v 0.00256 -0.018869 0.005418
v 0.001453 -0.020708 0.004472
v 0.001886 -0.020398 0.003751
# 27 verticies
vn -0.343122 0.610641 0.713712
vn 0.933824 0.27044 0.234171
vn 0.395901 0.728399 -0.559193
vn -0.867046 0.385714 -0.315366
vn 0.039671 -0.169662 0.984704
vn -0.977913 -0.191752 -0.083171
vn 0.983582 -0.174062 0.04764
vn 0.11333 -0.364188 -0.924404
vn 0.011709 -0.117787 0.99297
vn -0.986173 -0.123306 -0.110716
vn 0.06122 -0.428677 -0.901381
vn 0.963598 -0.26265 0.049941
vn 0.025801 0.092762 0.995354
vn -0.990427 -0.112568 -0.079898
vn 0.052447 -0.25881 -0.964503
vn 0.996509 -0.000221 -0.083485
vn 0.157159 0.234708 0.959277
vn -0.964919 -0.25039 0.078967
vn 0.094968 -0.202498 -0.974667
vn 0.976608 0.117533 -0.180066
vn 0.254395 0.272705 0.927855
vn -0.834729 -0.480258 0.269406
vn -0.129411 -0.736239 -0.664233
vn 0.979661 -0.024948 -0.199101
vn 0.835048 -0.272984 0.477676
vn -0.433888 -0.680709 0.590234
vn 0.480041 -0.851515 -0.210908
# 27 normals
usemtl Material__1
f  1//1 2//2 3//3
f  1//1 3//3 4//4
f  2//2 1//1 5//5
f  1//1 4//4 6//6
f  1//1 6//6 5//5
f  2//2 5//5 7//7
f  3//3 2//2 7//7
f  3//3 7//7 8//8
f  4//4 3//3 8//8
f  4//4 8//8 6//6
f  7//7 5//5 9//9
f  5//5 6//6 10//10
f  5//5 10//10 9//9
f  6//6 8//8 11//11
f  6//6 11//11 10//10
f  7//7 9//9 12//12
f  8//8 7//7 12//12
f  8//8 12//12 11//11
f  12//12 9//9 13//13
f  9//9 10//10 14//14
f  9//9 14//14 13//13
f  10//10 11//11 15//15
f  10//10 15//15 14//14
f  11//11 12//12 16//16
f  11//11 16//16 15//15
f  12//12 13//13 16//16
f  16//16 13//13 17//17
f  13//13 14//14 18//18
f  13//13 18//18 17//17
f  14//14 15//15 19//19
f  14//14 19//19 18//18
f  15//15 16//16 20//20
f  15//15 20//20 19//19
f  16//16 17//17 20//20
f  20//20 17//17 21//21
f  17//17 18//18 22//22
f  17//17 22//22 21//21
f  18//18 19//19 23//23
f  18//18 23//23 22//22
f  19//19 20//20 24//24
f  19//19 24//24 23//23
f  20//20 21//21 24//24
f  24//24 21//21 25//25
f  21//21 22//22 26//26
f  21//21 26//26 25//25
f  22//22 23//23 27//27
f  22//22 27//27 26//26
f  23//23 24//24 27//27
f  24//24 25//25 27//27
f  27//27 25//25 26//26
