# 
# Wavefront OBJ file
# Converted by the DEEP Exploration 2.00.1211
# Right Hemisphere, LTD
# http://www.righthemisphere.com/
# 
mtllib index2_l.mtl
# object Object #0
g Object__0
v -0.000748 -0.006842 0.005761
v 0.003996 -0.006821 0.001657
v 0.00481 -0.006646 -0.004013
v -0.004982 -0.006416 0.001385
v 0.0026 -0.010987 0.000581
v -0.00017 -0.011358 0.004739
v 0.002624 -0.010932 -0.004225
v -0.004599 -0.006315 -0.003222
v 0.000591 -0.006138 -0.006304
v 0.000233 -0.01018 -0.005912
v -0.004471 -0.010805 0.000909
v 0.001845 -0.015523 -0.004499
v 0.001314 -0.015174 -0.000666
v -0.000535 -0.015859 0.0029
v 6e-006 -0.014423 -0.005656
v -0.004109 -0.010554 -0.002976
v -0.003278 -0.014649 -0.004089
v -0.003913 -0.015192 0.000547
v 0.00187 -0.020536 -0.005527
v -0.000418 -0.01859 -0.005819
v 0.001096 -0.019635 -0.001375
v -0.000694 -0.02063 0.001819
v -0.00282 -0.01886 -0.004855
v -0.003784 -0.019554 -0.00046
v 0.003025 -0.025012 -0.006292
v 9.3e-005 -0.022775 -0.00639
v -0.002606 -0.023186 -0.004865
v 0.00182 -0.024035 -0.002168
v -2.9e-005 -0.02532 0.00042
v -0.003787 -0.023947 -0.001209
v 0.00545 -0.02892 -0.006489
v 0.000507 -0.026979 -0.006894
v -0.001933 -0.027422 -0.004692
v -0.003363 -0.028387 -0.001904
v 0.002934 -0.028499 -0.002959
v 0.000639 -0.030082 0.001209
v 0.001887 -0.031277 -0.007488
v 0.000533 -0.031204 -0.007205
v -0.000184 -0.03131 -0.005427
v -0.001431 -0.032337 -0.002048
v -0.001097 -0.032652 -0.001924
v 0.001906 -0.032081 -0.004622
# 42 verticies
vn 0.316381 0.532493 0.785082
vn 0.943976 -0.060522 0.324416
vn 0.504176 0.794913 -0.337521
vn -0.746532 0.488752 0.451455
vn 0.898187 -0.283627 0.33588
vn 0.119984 -0.335973 0.934198
vn 0.85146 -0.247201 -0.462501
vn -0.788066 0.543321 -0.289404
vn -0.213928 0.279276 -0.936077
vn -0.003097 -0.074826 -0.997192
vn -0.915813 -0.164521 0.366359
vn 0.871868 -0.079671 -0.483218
vn 0.928544 -0.200037 0.312716
vn 0.213586 -0.266226 0.939949
vn 0.067725 0.004201 -0.997695
vn -0.845788 -0.078493 -0.527713
vn -0.812974 -0.005169 -0.582278
vn -0.914064 -0.147446 0.377819
vn 0.828845 0.156504 -0.537142
vn -0.032784 0.082327 -0.996066
vn 0.941713 0.011234 0.336229
vn 0.185248 -0.200298 0.962062
vn -0.759656 0.018369 -0.650065
vn -0.924573 -0.13424 0.356574
vn 0.760758 0.314016 -0.568015
vn -0.192745 0.086455 -0.977433
vn -0.732861 -0.056117 -0.67806
vn 0.880476 0.142185 0.452267
vn 0.230518 -0.025217 0.972741
vn -0.928258 -0.059494 0.367147
vn 0.77374 0.202751 -0.600182
vn -0.361913 0.044545 -0.931147
vn -0.73674 -0.182783 -0.651003
vn -0.939678 -0.294243 0.174433
vn 0.875604 -0.197644 0.440744
vn 0.127958 -0.366254 0.921675
vn 0.572103 -0.726863 -0.379959
vn -0.421513 -0.389819 -0.81876
vn -0.658224 -0.578216 -0.482087
vn -0.83461 -0.520487 -0.180335
vn -0.412034 -0.868238 0.276387
vn 0.380512 -0.923675 -0.04512
# 42 normals
usemtl Material__1
f  1//1 2//2 3//3
f  4//4 1//1 3//3
f  5//5 2//2 1//1
f  6//6 5//5 1//1
f  6//6 1//1 4//4
f  7//7 3//3 2//2
f  5//5 7//7 2//2
f  8//8 4//4 3//3
f  9//9 8//8 3//3
f  10//10 9//9 3//3
f  7//7 10//10 3//3
f  11//11 6//6 4//4
f  11//11 4//4 8//8
f  12//12 7//7 5//5
f  13//13 12//12 5//5
f  13//13 5//5 6//6
f  14//14 13//13 6//6
f  14//14 6//6 11//11
f  15//15 10//10 7//7
f  12//12 15//15 7//7
f  16//16 11//11 8//8
f  16//16 8//8 9//9
f  10//10 16//16 9//9
f  17//17 16//16 10//10
f  15//15 17//17 10//10
f  18//18 14//14 11//11
f  18//18 11//11 16//16
f  19//19 12//12 13//13
f  20//20 15//15 12//12
f  19//19 20//20 12//12
f  21//21 19//19 13//13
f  21//21 13//13 14//14
f  22//22 21//21 14//14
f  22//22 14//14 18//18
f  23//23 17//17 15//15
f  20//20 23//23 15//15
f  17//17 18//18 16//16
f  24//24 18//18 17//17
f  23//23 24//24 17//17
f  24//24 22//22 18//18
f  25//25 19//19 21//21
f  26//26 20//20 19//19
f  25//25 26//26 19//19
f  27//27 23//23 20//20
f  26//26 27//27 20//20
f  28//28 25//25 21//21
f  28//28 21//21 22//22
f  29//29 22//22 24//24
f  29//29 28//28 22//22
f  30//30 24//24 23//23
f  27//27 30//30 23//23
f  30//30 29//29 24//24
f  31//31 25//25 28//28
f  32//32 26//26 25//25
f  31//31 32//32 25//25
f  33//33 27//27 26//26
f  32//32 33//33 26//26
f  34//34 30//30 27//27
f  33//33 34//34 27//27
f  35//35 28//28 29//29
f  35//35 31//31 28//28
f  36//36 29//29 30//30
f  36//36 35//35 29//29
f  34//34 36//36 30//30
f  37//37 31//31 35//35
f  38//38 32//32 31//31
f  37//37 38//38 31//31
f  39//39 33//33 32//32
f  38//38 39//39 32//32
f  40//40 34//34 33//33
f  39//39 40//40 33//33
f  41//41 36//36 34//34
f  40//40 41//41 34//34
f  42//42 35//35 36//36
f  42//42 37//37 35//35
f  41//41 42//42 36//36
f  38//38 37//37 42//42
f  39//39 38//38 42//42
f  39//39 42//42 41//41
f  40//40 39//39 41//41
