# 
# Wavefront OBJ file
# Converted by the DEEP Exploration 2.00.1211
# Right Hemisphere, LTD
# http://www.righthemisphere.com/
# 
mtllib index1_r.mtl
# object Object #0
g Object__0
v 0.003707 -0.041333 0.002218
v 0.004048 -0.040254 0.00515
v 0.006113 -0.046023 0.004915
v 0.006764 -0.046196 0.003603
v 0.001115 -0.036412 0.001445
v 0.000896 -0.038986 0.001297
v 0.000114 -0.033878 -0.00019
v 0.002836 -0.03471 0.004286
v 0.00195 -0.039368 0.006386
v 0.004202 -0.04434 0.007279
v 0.002146 -0.049132 0.007988
v 0.002307 -0.043948 0.002988
v 0.002459 -0.049384 0.00476
v 0.000947 -0.030449 6.2e-005
v 7.3e-005 -0.028637 -0.001564
v -0.00159 -0.038878 0.002339
v -0.002784 -0.033639 0.001181
v -0.003318 -0.028482 -0.000696
v 0.001528 -0.033724 0.005705
v 0.00153 -0.029163 0.002667
v 0.001767 -0.040309 0.011484
v 0.004911 -0.045096 0.012465
v 0.001694 -0.048819 0.010269
v 0.000665 -0.049544 0.005815
v 4.2e-005 -0.044096 0.00315
v -0.00167 -0.04458 0.005608
v 0.001485 -0.02437 -0.001531
v 6e-006 -0.02342 -0.003042
v -0.00321 -0.023261 -0.002521
v -0.002694 -0.03909 0.004993
v -0.004264 -0.033819 0.004105
v -0.005282 -0.028509 0.002884
v -0.005802 -0.023102 0.001598
v 0.000822 -0.028182 0.005023
v -0.000441 -0.035013 0.010045
v 0.001443 -0.023375 0.001625
v -0.000609 -0.038121 0.010502
v 0.000247 -0.043349 0.011436
v 0.000931 -0.04867 0.011721
v -0.002598 -0.04775 0.009995
v -0.002074 -0.042726 0.008841
v -0.002897 -0.037675 0.008435
v 0.002377 -0.018651 -0.002989
v 0.000328 -0.018347 -0.004895
v -0.003069 -0.018033 -0.004266
v -0.006376 -0.01771 0.000356
v -0.004144 -0.032658 0.007906
v -0.005057 -0.027683 0.006833
v -0.005479 -0.022655 0.005754
v -0.005929 -0.017609 0.004711
v -0.000131 -0.029052 0.009298
v 0.000661 -0.02262 0.004319
v -0.001387 -0.032898 0.009563
v 0.002388 -0.017745 -7.1e-005
v 0.004479 -0.013158 -0.003925
v 0.001556 -0.013351 -0.006483
v -0.003987 -0.013062 -0.006526
v -0.006764 -0.012387 -0.001229
v -0.006649 -0.012602 0.003665
v -0.002313 -0.027642 0.008624
v -0.002981 -0.022357 0.007803
v -0.002141 -0.01707 0.007636
v -0.002138 -0.011726 0.008067
v -0.000472 -0.023233 0.008255
v 0.001348 -0.017023 0.003453
v 0.005216 -0.01268 -0.001181
v 0.003513 -0.007616 -0.005914
v -0.003338 -0.007655 -0.0063
v -0.006113 -0.006863 -0.001312
v -0.006069 -0.007492 0.003237
v -0.001826 -0.006557 0.00702
v -9.3e-005 -0.017344 0.007007
v 0.002668 -0.012094 0.007352
v 0.003115 -0.006363 0.006296
v 0.004666 -0.01253 0.00338
v 0.005295 -0.007306 -0.002892
v 0.000273 -0.008124 -0.000376
v 0.004477 -0.007045 0.002272
# 78 verticies
vn 0.844094 0.3168 -0.432601
vn 0.917176 0.352601 0.185639
vn 0.914245 0.110293 0.38986
vn 0.663574 -0.45444 -0.594267
vn 0.898878 0.1136 -0.423219
vn -0.162167 -0.301085 -0.939707
vn 0.126656 -0.208148 -0.969862
vn 0.976934 0.175987 0.12095
vn 0.850116 0.332208 0.408584
vn 0.930994 -0.009753 0.364905
vn 0.601078 -0.728827 0.327896
vn -0.109274 -0.307169 -0.945361
vn -0.105398 -0.706688 -0.699631
vn 0.866453 -0.102007 -0.488727
vn 0.319809 -0.250563 -0.913751
vn -0.617366 -0.326352 -0.715789
vn -0.659969 -0.306997 -0.685707
vn -0.617197 -0.27194 -0.73832
vn 0.88842 0.225448 0.399853
vn 0.989989 0.101048 0.098545
vn 0.43506 0.339835 0.833808
vn 0.773358 -0.065146 0.630614
vn 0.547696 -0.821358 0.159373
vn -0.4263 -0.891914 -0.150859
vn -0.53995 -0.334637 -0.772316
vn -0.883714 -0.315149 -0.34602
vn 0.880692 -0.20226 -0.428337
vn 0.266048 -0.302819 -0.915161
vn -0.551298 -0.258211 -0.793346
vn -0.940856 -0.268783 -0.206265
vn -0.95109 -0.256091 -0.172756
vn -0.963491 -0.179473 -0.198683
vn -0.966223 -0.139486 -0.216697
vn 0.958101 0.079363 0.275216
vn 0.433272 0.221998 0.873494
vn 0.986884 -0.037649 0.156977
vn -0.481928 0.071412 0.873296
vn -0.443153 0.077191 0.893116
vn -0.084109 -0.715242 0.693797
vn -0.855251 -0.291913 0.428173
vn -0.94605 -0.090733 0.311058
vn -0.890828 -0.1181 0.438723
vn 0.883735 -0.30482 -0.355101
vn 0.252338 -0.367715 -0.895048
vn -0.547594 -0.32552 -0.770829
vn -0.956336 -0.153102 -0.248961
vn -0.845181 -0.105857 0.523892
vn -0.868371 -0.027424 0.495156
vn -0.886454 0.023058 0.462242
vn -0.884436 -0.033087 0.465486
vn 0.528844 0.13148 0.838473
vn 0.96177 0.001182 0.273857
vn -0.386688 0.081968 0.918561
vn 0.950775 -0.265312 0.160112
vn 0.881292 -0.280879 -0.380042
vn 0.350516 -0.191505 -0.916768
vn -0.545616 -0.159865 -0.822646
vn -0.969652 -0.053132 -0.238648
vn -0.910902 0.053007 0.409204
vn -0.363143 0.108409 0.925405
vn -0.31507 0.112467 0.942381
vn -0.217578 -0.023992 0.975748
vn -0.29333 0.082059 0.952483
vn 0.526737 0.122621 0.841138
vn 0.912495 -0.29255 0.28595
vn 0.957224 -0.283182 -0.059412
vn 0.615229 0.473906 -0.630005
vn -0.179668 0.660319 -0.729177
vn -0.693548 0.675047 -0.251601
vn -0.719617 0.665004 0.199803
vn -0.393717 0.720909 0.57033
vn 0.584737 -0.197747 0.786752
vn 0.610437 -0.086093 0.787372
vn 0.336557 0.733766 0.590184
vn 0.929961 -0.247543 0.271836
vn 0.791781 0.603101 -0.0967049
vn -0.027515 0.997105 -0.070884
vn 0.750253 0.634081 0.187249
# 78 normals
usemtl Material__1
f  1//1 2//2 3//3
f  1//1 3//3 4//4
f  5//5 2//2 1//1
f  6//6 1//1 4//4
f  7//7 5//5 1//1
f  7//7 1//1 6//6
f  5//5 8//8 2//2
f  2//2 9//9 10//10
f  2//2 10//10 3//3
f  8//8 9//9 2//2
f  3//3 10//10 11//11
f  4//4 3//3 11//11
f  6//6 4//4 12//12
f  11//11 13//13 4//4
f  13//13 12//12 4//4
f  14//14 8//8 5//5
f  15//15 14//14 5//5
f  15//15 5//5 7//7
f  16//16 6//6 12//12
f  17//17 7//7 6//6
f  17//17 6//6 16//16
f  18//18 15//15 7//7
f  18//18 7//7 17//17
f  8//8 19//19 9//9
f  14//14 20//20 8//8
f  20//20 19//19 8//8
f  9//9 21//21 22//22
f  9//9 22//22 10//10
f  19//19 21//21 9//9
f  10//10 22//22 23//23
f  10//10 23//23 11//11
f  24//24 11//11 23//23
f  11//11 24//24 13//13
f  16//16 12//12 25//25
f  12//12 13//13 25//25
f  26//26 25//25 13//13
f  26//26 13//13 24//24
f  27//27 20//20 14//14
f  28//28 27//27 14//14
f  28//28 14//14 15//15
f  29//29 28//28 15//15
f  29//29 15//15 18//18
f  30//30 16//16 25//25
f  31//31 17//17 16//16
f  31//31 16//16 30//30
f  32//32 18//18 17//17
f  32//32 17//17 31//31
f  33//33 29//29 18//18
f  33//33 18//18 32//32
f  20//20 34//34 19//19
f  19//19 35//35 21//21
f  34//34 35//35 19//19
f  27//27 36//36 20//20
f  36//36 34//34 20//20
f  21//21 37//37 38//38
f  21//21 38//38 22//22
f  35//35 37//37 21//21
f  22//22 39//39 23//23
f  22//22 38//38 39//39
f  24//24 23//23 39//39
f  24//24 39//39 40//40
f  41//41 26//26 24//24
f  41//41 24//24 40//40
f  30//30 25//25 26//26
f  42//42 30//30 26//26
f  42//42 26//26 41//41
f  43//43 36//36 27//27
f  44//44 43//43 27//27
f  44//44 27//27 28//28
f  45//45 44//44 28//28
f  45//45 28//28 29//29
f  46//46 45//45 29//29
f  46//46 29//29 33//33
f  47//47 31//31 30//30
f  47//47 30//30 42//42
f  48//48 32//32 31//31
f  48//48 31//31 47//47
f  49//49 33//33 32//32
f  49//49 32//32 48//48
f  50//50 46//46 33//33
f  50//50 33//33 49//49
f  34//34 51//51 35//35
f  36//36 52//52 34//34
f  52//52 51//51 34//34
f  35//35 53//53 37//37
f  51//51 53//53 35//35
f  43//43 54//54 36//36
f  54//54 52//52 36//36
f  37//37 42//42 41//41
f  37//37 41//41 38//38
f  53//53 42//42 37//37
f  38//38 41//41 40//40
f  38//38 40//40 39//39
f  53//53 47//47 42//42
f  55//55 54//54 43//43
f  56//56 55//55 43//43
f  56//56 43//43 44//44
f  57//57 56//56 44//44
f  57//57 44//44 45//45
f  58//58 57//57 45//45
f  58//58 45//45 46//46
f  59//59 58//58 46//46
f  59//59 46//46 50//50
f  60//60 48//48 47//47
f  60//60 47//47 53//53
f  61//61 49//49 48//48
f  61//61 48//48 60//60
f  62//62 50//50 49//49
f  62//62 49//49 61//61
f  63//63 59//59 50//50
f  63//63 50//50 62//62
f  52//52 64//64 51//51
f  51//51 60//60 53//53
f  64//64 60//60 51//51
f  54//54 65//65 52//52
f  65//65 64//64 52//52
f  55//55 66//66 54//54
f  66//66 65//65 54//54
f  67//67 66//66 55//55
f  67//67 55//55 56//56
f  68//68 67//67 56//56
f  68//68 56//56 57//57
f  69//69 68//68 57//57
f  69//69 57//57 58//58
f  70//70 69//69 58//58
f  70//70 58//58 59//59
f  71//71 70//70 59//59
f  71//71 59//59 63//63
f  64//64 61//61 60//60
f  72//72 62//62 61//61
f  72//72 61//61 64//64
f  73//73 63//63 62//62
f  73//73 62//62 72//72
f  74//74 71//71 63//63
f  74//74 63//63 73//73
f  65//65 72//72 64//64
f  66//66 75//75 65//65
f  75//75 72//72 65//65
f  67//67 76//76 66//66
f  76//76 75//75 66//66
f  67//67 68//68 77//77
f  76//76 67//67 77//77
f  68//68 69//69 77//77
f  69//69 70//70 77//77
f  70//70 71//71 77//77
f  71//71 74//74 77//77
f  75//75 73//73 72//72
f  78//78 74//74 73//73
f  78//78 73//73 75//75
f  74//74 78//78 77//77
f  76//76 78//78 75//75
f  78//78 76//76 77//77
