#VRML V2.0 utf8
Transform {
children [
Shape {
appearance Appearance {
              material DEF surface Material {
              diffuseColor 0.8 0.8 0.8
              ambientIntensity 0.2
              specularColor 0.4 0.4 0.4
              emissiveColor 0 0 0
              shininess 0.25
              transparency 0
            }
          }
geometry IndexedFaceSet {
solid FALSE
coord DEF bone Coordinate {
point [
  0.003707	 -0.041333	  0.002218,
  0.004048	 -0.040254	  0.005150,
  0.006113	 -0.046023	  0.004915,
  0.006764	 -0.046196	  0.003603,
  0.001115	 -0.036412	  0.001445,
  0.000896	 -0.038986	  0.001297,
  0.000114	 -0.033878	 -0.000190,
  0.002836	 -0.034710	  0.004286,
  0.001950	 -0.039368	  0.006386,
  0.004202	 -0.044340	  0.007279,
  0.002146	 -0.049132	  0.007988,
  0.002307	 -0.043948	  0.002988,
  0.002459	 -0.049384	  0.004760,
  0.000947	 -0.030449	  0.000062,
  0.000073	 -0.028637	 -0.001564,
 -0.001590	 -0.038878	  0.002339,
 -0.002784	 -0.033639	  0.001181,
 -0.003318	 -0.028482	 -0.000696,
  0.001528	 -0.033724	  0.005705,
  0.001530	 -0.029163	  0.002667,
  0.001767	 -0.040309	  0.011484,
  0.004911	 -0.045096	  0.012465,
  0.001694	 -0.048819	  0.010269,
  0.000665	 -0.049544	  0.005815,
  0.000042	 -0.044096	  0.003150,
 -0.001670	 -0.044580	  0.005608,
  0.001485	 -0.024370	 -0.001531,
  0.000006	 -0.023420	 -0.003042,
 -0.003210	 -0.023261	 -0.002521,
 -0.002694	 -0.039090	  0.004993,
 -0.004264	 -0.033819	  0.004105,
 -0.005282	 -0.028509	  0.002884,
 -0.005802	 -0.023102	  0.001598,
  0.000822	 -0.028182	  0.005023,
 -0.000441	 -0.035013	  0.010045,
  0.001443	 -0.023375	  0.001625,
 -0.000609	 -0.038121	  0.010502,
  0.000247	 -0.043349	  0.011436,
  0.000931	 -0.048670	  0.011721,
 -0.002598	 -0.047750	  0.009995,
 -0.002074	 -0.042726	  0.008841,
 -0.002897	 -0.037675	  0.008435,
  0.002377	 -0.018651	 -0.002989,
  0.000328	 -0.018347	 -0.004895,
 -0.003069	 -0.018033	 -0.004266,
 -0.006376	 -0.017710	  0.000356,
 -0.004144	 -0.032658	  0.007906,
 -0.005057	 -0.027683	  0.006833,
 -0.005479	 -0.022655	  0.005754,
 -0.005929	 -0.017609	  0.004711,
 -0.000131	 -0.029052	  0.009298,
  0.000661	 -0.022620	  0.004319,
 -0.001387	 -0.032898	  0.009563,
  0.002388	 -0.017745	 -0.000071,
  0.004479	 -0.013158	 -0.003925,
  0.001556	 -0.013351	 -0.006483,
 -0.003987	 -0.013062	 -0.006526,
 -0.006764	 -0.012387	 -0.001229,
 -0.006649	 -0.012602	  0.003665,
 -0.002313	 -0.027642	  0.008624,
 -0.002981	 -0.022357	  0.007803,
 -0.002141	 -0.017070	  0.007636,
 -0.002138	 -0.011726	  0.008067,
 -0.000472	 -0.023233	  0.008255,
  0.001348	 -0.017023	  0.003453,
  0.005216	 -0.012680	 -0.001181,
  0.003513	 -0.007616	 -0.005914,
 -0.003338	 -0.007655	 -0.006300,
 -0.006113	 -0.006863	 -0.001312,
 -0.006069	 -0.007492	  0.003237,
 -0.001826	 -0.006557	  0.007020,
 -0.000093	 -0.017344	  0.007007,
  0.002668	 -0.012094	  0.007352,
  0.003115	 -0.006363	  0.006296,
  0.004666	 -0.012530	  0.003380,
  0.005295	 -0.007306	 -0.002892,
  0.000273	 -0.008124	 -0.000376,
  0.004477	 -0.007045	  0.002272,
]
}
coordIndex [
   0,	   1,	   2, -1
   0,	   2,	   3, -1
   4,	   1,	   0, -1
   5,	   0,	   3, -1
   6,	   4,	   0, -1
   6,	   0,	   5, -1
   4,	   7,	   1, -1
   1,	   8,	   9, -1
   1,	   9,	   2, -1
   7,	   8,	   1, -1
   2,	   9,	  10, -1
   3,	   2,	  10, -1
   5,	   3,	  11, -1
  10,	  12,	   3, -1
  12,	  11,	   3, -1
  13,	   7,	   4, -1
  14,	  13,	   4, -1
  14,	   4,	   6, -1
  15,	   5,	  11, -1
  16,	   6,	   5, -1
  16,	   5,	  15, -1
  17,	  14,	   6, -1
  17,	   6,	  16, -1
   7,	  18,	   8, -1
  13,	  19,	   7, -1
  19,	  18,	   7, -1
   8,	  20,	  21, -1
   8,	  21,	   9, -1
  18,	  20,	   8, -1
   9,	  21,	  22, -1
   9,	  22,	  10, -1
  23,	  10,	  22, -1
  10,	  23,	  12, -1
  15,	  11,	  24, -1
  11,	  12,	  24, -1
  25,	  24,	  12, -1
  25,	  12,	  23, -1
  26,	  19,	  13, -1
  27,	  26,	  13, -1
  27,	  13,	  14, -1
  28,	  27,	  14, -1
  28,	  14,	  17, -1
  29,	  15,	  24, -1
  30,	  16,	  15, -1
  30,	  15,	  29, -1
  31,	  17,	  16, -1
  31,	  16,	  30, -1
  32,	  28,	  17, -1
  32,	  17,	  31, -1
  19,	  33,	  18, -1
  18,	  34,	  20, -1
  33,	  34,	  18, -1
  26,	  35,	  19, -1
  35,	  33,	  19, -1
  20,	  36,	  37, -1
  20,	  37,	  21, -1
  34,	  36,	  20, -1
  21,	  38,	  22, -1
  21,	  37,	  38, -1
  23,	  22,	  38, -1
  23,	  38,	  39, -1
  40,	  25,	  23, -1
  40,	  23,	  39, -1
  29,	  24,	  25, -1
  41,	  29,	  25, -1
  41,	  25,	  40, -1
  42,	  35,	  26, -1
  43,	  42,	  26, -1
  43,	  26,	  27, -1
  44,	  43,	  27, -1
  44,	  27,	  28, -1
  45,	  44,	  28, -1
  45,	  28,	  32, -1
  46,	  30,	  29, -1
  46,	  29,	  41, -1
  47,	  31,	  30, -1
  47,	  30,	  46, -1
  48,	  32,	  31, -1
  48,	  31,	  47, -1
  49,	  45,	  32, -1
  49,	  32,	  48, -1
  33,	  50,	  34, -1
  35,	  51,	  33, -1
  51,	  50,	  33, -1
  34,	  52,	  36, -1
  50,	  52,	  34, -1
  42,	  53,	  35, -1
  53,	  51,	  35, -1
  36,	  41,	  40, -1
  36,	  40,	  37, -1
  52,	  41,	  36, -1
  37,	  40,	  39, -1
  37,	  39,	  38, -1
  52,	  46,	  41, -1
  54,	  53,	  42, -1
  55,	  54,	  42, -1
  55,	  42,	  43, -1
  56,	  55,	  43, -1
  56,	  43,	  44, -1
  57,	  56,	  44, -1
  57,	  44,	  45, -1
  58,	  57,	  45, -1
  58,	  45,	  49, -1
  59,	  47,	  46, -1
  59,	  46,	  52, -1
  60,	  48,	  47, -1
  60,	  47,	  59, -1
  61,	  49,	  48, -1
  61,	  48,	  60, -1
  62,	  58,	  49, -1
  62,	  49,	  61, -1
  51,	  63,	  50, -1
  50,	  59,	  52, -1
  63,	  59,	  50, -1
  53,	  64,	  51, -1
  64,	  63,	  51, -1
  54,	  65,	  53, -1
  65,	  64,	  53, -1
  66,	  65,	  54, -1
  66,	  54,	  55, -1
  67,	  66,	  55, -1
  67,	  55,	  56, -1
  68,	  67,	  56, -1
  68,	  56,	  57, -1
  69,	  68,	  57, -1
  69,	  57,	  58, -1
  70,	  69,	  58, -1
  70,	  58,	  62, -1
  63,	  60,	  59, -1
  71,	  61,	  60, -1
  71,	  60,	  63, -1
  72,	  62,	  61, -1
  72,	  61,	  71, -1
  73,	  70,	  62, -1
  73,	  62,	  72, -1
  64,	  71,	  63, -1
  65,	  74,	  64, -1
  74,	  71,	  64, -1
  66,	  75,	  65, -1
  75,	  74,	  65, -1
  66,	  67,	  76, -1
  75,	  66,	  76, -1
  67,	  68,	  76, -1
  68,	  69,	  76, -1
  69,	  70,	  76, -1
  70,	  73,	  76, -1
  74,	  72,	  71, -1
  77,	  73,	  72, -1
  77,	  72,	  74, -1
  73,	  77,	  76, -1
  75,	  77,	  74, -1
  77,	  75,	  76, -1
]
colorPerVertex FALSE
colorIndex [
1,
1,
1,
1,
1,
1,
1,
1,
1,
1,
1,
1,
1,
1,
1,
1,
1,
1,
1,
1,
1,
1,
1,
1,
1,
1,
1,
1,
1,
1,
1,
1,
1,
1,
1,
1,
1,
1,
1,
1,
1,
1,
1,
1,
1,
1,
1,
1,
1,
1,
1,
1,
1,
1,
1,
1,
1,
1,
1,
1,
1,
1,
1,
1,
1,
1,
1,
1,
1,
1,
1,
1,
1,
1,
1,
1,
1,
1,
]
normal Normal {
vector [
  0.844094	  0.316800	 -0.432601,
  0.917176	  0.352601	  0.185639,
  0.914246	  0.110293	  0.389860,
  0.663574	 -0.454440	 -0.594267,
  0.898878	  0.113600	 -0.423219,
 -0.162167	 -0.301085	 -0.939707,
  0.126656	 -0.208148	 -0.969862,
  0.976934	  0.175987	  0.120950,
  0.850116	  0.332208	  0.408584,
  0.930994	 -0.009753	  0.364905,
  0.601078	 -0.728827	  0.327896,
 -0.109274	 -0.307169	 -0.945361,
 -0.105398	 -0.706688	 -0.699631,
  0.866452	 -0.102007	 -0.488727,
  0.319809	 -0.250563	 -0.913751,
 -0.617366	 -0.326352	 -0.715789,
 -0.659969	 -0.306997	 -0.685707,
 -0.617197	 -0.271940	 -0.738320,
  0.888420	  0.225448	  0.399853,
  0.989989	  0.101048	  0.098545,
  0.435060	  0.339835	  0.833808,
  0.773358	 -0.065146	  0.630614,
  0.547696	 -0.821358	  0.159373,
 -0.426300	 -0.891914	 -0.150859,
 -0.539950	 -0.334637	 -0.772316,
 -0.883714	 -0.315149	 -0.346020,
  0.880692	 -0.202260	 -0.428337,
  0.266048	 -0.302819	 -0.915161,
 -0.551298	 -0.258211	 -0.793346,
 -0.940856	 -0.268783	 -0.206265,
 -0.951090	 -0.256091	 -0.172756,
 -0.963491	 -0.179473	 -0.198683,
 -0.966222	 -0.139486	 -0.216697,
  0.958101	  0.079363	  0.275216,
  0.433272	  0.221998	  0.873494,
  0.986884	 -0.037649	  0.156977,
 -0.481928	  0.071412	  0.873296,
 -0.443153	  0.077191	  0.893116,
 -0.084109	 -0.715242	  0.693797,
 -0.855252	 -0.291913	  0.428173,
 -0.946050	 -0.090733	  0.311058,
 -0.890828	 -0.118100	  0.438723,
  0.883736	 -0.304820	 -0.355101,
  0.252338	 -0.367715	 -0.895048,
 -0.547594	 -0.325520	 -0.770829,
 -0.956336	 -0.153102	 -0.248961,
 -0.845181	 -0.105857	  0.523892,
 -0.868371	 -0.027424	  0.495156,
 -0.886454	  0.023058	  0.462242,
 -0.884436	 -0.033087	  0.465486,
  0.528844	  0.131480	  0.838473,
  0.961770	  0.001182	  0.273857,
 -0.386688	  0.081968	  0.918561,
  0.950775	 -0.265312	  0.160112,
  0.881292	 -0.280879	 -0.380042,
  0.350516	 -0.191505	 -0.916768,
 -0.545616	 -0.159865	 -0.822646,
 -0.969651	 -0.053132	 -0.238648,
 -0.910902	  0.053007	  0.409204,
 -0.363143	  0.108409	  0.925405,
 -0.315070	  0.112467	  0.942381,
 -0.217578	 -0.023992	  0.975748,
 -0.293330	  0.082059	  0.952483,
  0.526737	  0.122621	  0.841138,
  0.912495	 -0.292550	  0.285950,
  0.957224	 -0.283182	 -0.059412,
  0.615229	  0.473906	 -0.630005,
 -0.179668	  0.660319	 -0.729177,
 -0.693548	  0.675047	 -0.251601,
 -0.719617	  0.665004	  0.199803,
 -0.393717	  0.720909	  0.570330,
  0.584737	 -0.197747	  0.786752,
  0.610437	 -0.086093	  0.787372,
  0.336557	  0.733766	  0.590184,
  0.929961	 -0.247543	  0.271836,
  0.791782	  0.603101	 -0.096705,
 -0.027515	  0.997105	 -0.070884,
  0.750253	  0.634081	  0.187249,
]
}
normalIndex [
   0,	   1,	   2, -1
   0,	   2,	   3, -1
   4,	   1,	   0, -1
   5,	   0,	   3, -1
   6,	   4,	   0, -1
   6,	   0,	   5, -1
   4,	   7,	   1, -1
   1,	   8,	   9, -1
   1,	   9,	   2, -1
   7,	   8,	   1, -1
   2,	   9,	  10, -1
   3,	   2,	  10, -1
   5,	   3,	  11, -1
  10,	  12,	   3, -1
  12,	  11,	   3, -1
  13,	   7,	   4, -1
  14,	  13,	   4, -1
  14,	   4,	   6, -1
  15,	   5,	  11, -1
  16,	   6,	   5, -1
  16,	   5,	  15, -1
  17,	  14,	   6, -1
  17,	   6,	  16, -1
   7,	  18,	   8, -1
  13,	  19,	   7, -1
  19,	  18,	   7, -1
   8,	  20,	  21, -1
   8,	  21,	   9, -1
  18,	  20,	   8, -1
   9,	  21,	  22, -1
   9,	  22,	  10, -1
  23,	  10,	  22, -1
  10,	  23,	  12, -1
  15,	  11,	  24, -1
  11,	  12,	  24, -1
  25,	  24,	  12, -1
  25,	  12,	  23, -1
  26,	  19,	  13, -1
  27,	  26,	  13, -1
  27,	  13,	  14, -1
  28,	  27,	  14, -1
  28,	  14,	  17, -1
  29,	  15,	  24, -1
  30,	  16,	  15, -1
  30,	  15,	  29, -1
  31,	  17,	  16, -1
  31,	  16,	  30, -1
  32,	  28,	  17, -1
  32,	  17,	  31, -1
  19,	  33,	  18, -1
  18,	  34,	  20, -1
  33,	  34,	  18, -1
  26,	  35,	  19, -1
  35,	  33,	  19, -1
  20,	  36,	  37, -1
  20,	  37,	  21, -1
  34,	  36,	  20, -1
  21,	  38,	  22, -1
  21,	  37,	  38, -1
  23,	  22,	  38, -1
  23,	  38,	  39, -1
  40,	  25,	  23, -1
  40,	  23,	  39, -1
  29,	  24,	  25, -1
  41,	  29,	  25, -1
  41,	  25,	  40, -1
  42,	  35,	  26, -1
  43,	  42,	  26, -1
  43,	  26,	  27, -1
  44,	  43,	  27, -1
  44,	  27,	  28, -1
  45,	  44,	  28, -1
  45,	  28,	  32, -1
  46,	  30,	  29, -1
  46,	  29,	  41, -1
  47,	  31,	  30, -1
  47,	  30,	  46, -1
  48,	  32,	  31, -1
  48,	  31,	  47, -1
  49,	  45,	  32, -1
  49,	  32,	  48, -1
  33,	  50,	  34, -1
  35,	  51,	  33, -1
  51,	  50,	  33, -1
  34,	  52,	  36, -1
  50,	  52,	  34, -1
  42,	  53,	  35, -1
  53,	  51,	  35, -1
  36,	  41,	  40, -1
  36,	  40,	  37, -1
  52,	  41,	  36, -1
  37,	  40,	  39, -1
  37,	  39,	  38, -1
  52,	  46,	  41, -1
  54,	  53,	  42, -1
  55,	  54,	  42, -1
  55,	  42,	  43, -1
  56,	  55,	  43, -1
  56,	  43,	  44, -1
  57,	  56,	  44, -1
  57,	  44,	  45, -1
  58,	  57,	  45, -1
  58,	  45,	  49, -1
  59,	  47,	  46, -1
  59,	  46,	  52, -1
  60,	  48,	  47, -1
  60,	  47,	  59, -1
  61,	  49,	  48, -1
  61,	  48,	  60, -1
  62,	  58,	  49, -1
  62,	  49,	  61, -1
  51,	  63,	  50, -1
  50,	  59,	  52, -1
  63,	  59,	  50, -1
  53,	  64,	  51, -1
  64,	  63,	  51, -1
  54,	  65,	  53, -1
  65,	  64,	  53, -1
  66,	  65,	  54, -1
  66,	  54,	  55, -1
  67,	  66,	  55, -1
  67,	  55,	  56, -1
  68,	  67,	  56, -1
  68,	  56,	  57, -1
  69,	  68,	  57, -1
  69,	  57,	  58, -1
  70,	  69,	  58, -1
  70,	  58,	  62, -1
  63,	  60,	  59, -1
  71,	  61,	  60, -1
  71,	  60,	  63, -1
  72,	  62,	  61, -1
  72,	  61,	  71, -1
  73,	  70,	  62, -1
  73,	  62,	  72, -1
  64,	  71,	  63, -1
  65,	  74,	  64, -1
  74,	  71,	  64, -1
  66,	  75,	  65, -1
  75,	  74,	  65, -1
  66,	  67,	  76, -1
  75,	  66,	  76, -1
  67,	  68,	  76, -1
  68,	  69,	  76, -1
  69,	  70,	  76, -1
  70,	  73,	  76, -1
  74,	  72,	  71, -1
  77,	  73,	  72, -1
  77,	  72,	  74, -1
  73,	  77,	  76, -1
  75,	  77,	  74, -1
  77,	  75,	  76, -1
]
normalPerVertex TRUE
}
}
]
}
