#VRML V2.0 utf8
Transform {
children [
Shape {
appearance Appearance {
              material DEF surface Material {
              diffuseColor 0.8 0.8 0.8
              ambientIntensity 0.2
              specularColor 0.4 0.4 0.4
              emissiveColor 0 0 0
              shininess 0.25
              transparency 0
            }
          }
geometry IndexedFaceSet {
solid FALSE
coord DEF bone Coordinate {
point [
  0.000730	 -0.004415	  0.004998,
  0.003378	 -0.003033	 -0.000146,
  0.001347	 -0.003318	 -0.004536,
 -0.002982	 -0.003037	  0.000021,
  0.000551	 -0.006859	  0.004286,
 -0.002881	 -0.006312	 -0.000416,
  0.003242	 -0.006100	 -0.000209,
  0.001228	 -0.006743	 -0.004120,
  0.000098	 -0.009357	  0.004072,
 -0.002030	 -0.009400	  0.000238,
  0.000324	 -0.009460	 -0.002056,
  0.002272	 -0.008862	  0.000524,
  0.000037	 -0.011692	  0.003647,
 -0.001931	 -0.012569	  0.001002,
  0.000067	 -0.012718	 -0.001021,
  0.002080	 -0.011898	  0.000990,
  0.001113	 -0.014070	  0.004417,
 -0.001706	 -0.015766	  0.001714,
  0.000538	 -0.016472	 -0.000392,
  0.002039	 -0.014775	  0.002020,
  0.001906	 -0.016461	  0.004961,
 -0.000444	 -0.018600	  0.002789,
  0.001312	 -0.019745	  0.000922,
  0.002824	 -0.017707	  0.002715,
  0.002560	 -0.018869	  0.005418,
  0.001453	 -0.020708	  0.004472,
  0.001886	 -0.020398	  0.003751,
]
}
coordIndex [
   0,	   1,	   2, -1
   0,	   2,	   3, -1
   1,	   0,	   4, -1
   0,	   3,	   5, -1
   0,	   5,	   4, -1
   1,	   4,	   6, -1
   2,	   1,	   6, -1
   2,	   6,	   7, -1
   3,	   2,	   7, -1
   3,	   7,	   5, -1
   6,	   4,	   8, -1
   4,	   5,	   9, -1
   4,	   9,	   8, -1
   5,	   7,	  10, -1
   5,	  10,	   9, -1
   6,	   8,	  11, -1
   7,	   6,	  11, -1
   7,	  11,	  10, -1
  11,	   8,	  12, -1
   8,	   9,	  13, -1
   8,	  13,	  12, -1
   9,	  10,	  14, -1
   9,	  14,	  13, -1
  10,	  11,	  15, -1
  10,	  15,	  14, -1
  11,	  12,	  15, -1
  15,	  12,	  16, -1
  12,	  13,	  17, -1
  12,	  17,	  16, -1
  13,	  14,	  18, -1
  13,	  18,	  17, -1
  14,	  15,	  19, -1
  14,	  19,	  18, -1
  15,	  16,	  19, -1
  19,	  16,	  20, -1
  16,	  17,	  21, -1
  16,	  21,	  20, -1
  17,	  18,	  22, -1
  17,	  22,	  21, -1
  18,	  19,	  23, -1
  18,	  23,	  22, -1
  19,	  20,	  23, -1
  23,	  20,	  24, -1
  20,	  21,	  25, -1
  20,	  25,	  24, -1
  21,	  22,	  26, -1
  21,	  26,	  25, -1
  22,	  23,	  26, -1
  23,	  24,	  26, -1
  26,	  24,	  25, -1
]
colorPerVertex FALSE
colorIndex [
1,
1,
1,
1,
1,
1,
1,
1,
1,
1,
1,
1,
1,
1,
1,
1,
1,
1,
1,
1,
1,
1,
1,
1,
1,
1,
1,
]
normal Normal {
vector [
 -0.343122	  0.610641	  0.713712,
  0.933824	  0.270440	  0.234171,
  0.395901	  0.728399	 -0.559193,
 -0.867046	  0.385714	 -0.315366,
  0.039671	 -0.169662	  0.984704,
 -0.977913	 -0.191752	 -0.083171,
  0.983582	 -0.174062	  0.047640,
  0.113330	 -0.364188	 -0.924404,
  0.011709	 -0.117787	  0.992970,
 -0.986173	 -0.123306	 -0.110716,
  0.061220	 -0.428677	 -0.901381,
  0.963598	 -0.262650	  0.049941,
  0.025801	  0.092762	  0.995354,
 -0.990426	 -0.112568	 -0.079898,
  0.052447	 -0.258810	 -0.964503,
  0.996509	 -0.000221	 -0.083485,
  0.157159	  0.234708	  0.959277,
 -0.964919	 -0.250390	  0.078967,
  0.094968	 -0.202498	 -0.974667,
  0.976607	  0.117533	 -0.180066,
  0.254395	  0.272705	  0.927855,
 -0.834729	 -0.480258	  0.269406,
 -0.129411	 -0.736239	 -0.664233,
  0.979661	 -0.024948	 -0.199101,
  0.835048	 -0.272984	  0.477676,
 -0.433888	 -0.680709	  0.590234,
  0.480041	 -0.851515	 -0.210908,
]
}
normalIndex [
   0,	   1,	   2, -1
   0,	   2,	   3, -1
   1,	   0,	   4, -1
   0,	   3,	   5, -1
   0,	   5,	   4, -1
   1,	   4,	   6, -1
   2,	   1,	   6, -1
   2,	   6,	   7, -1
   3,	   2,	   7, -1
   3,	   7,	   5, -1
   6,	   4,	   8, -1
   4,	   5,	   9, -1
   4,	   9,	   8, -1
   5,	   7,	  10, -1
   5,	  10,	   9, -1
   6,	   8,	  11, -1
   7,	   6,	  11, -1
   7,	  11,	  10, -1
  11,	   8,	  12, -1
   8,	   9,	  13, -1
   8,	  13,	  12, -1
   9,	  10,	  14, -1
   9,	  14,	  13, -1
  10,	  11,	  15, -1
  10,	  15,	  14, -1
  11,	  12,	  15, -1
  15,	  12,	  16, -1
  12,	  13,	  17, -1
  12,	  17,	  16, -1
  13,	  14,	  18, -1
  13,	  18,	  17, -1
  14,	  15,	  19, -1
  14,	  19,	  18, -1
  15,	  16,	  19, -1
  19,	  16,	  20, -1
  16,	  17,	  21, -1
  16,	  21,	  20, -1
  17,	  18,	  22, -1
  17,	  22,	  21, -1
  18,	  19,	  23, -1
  18,	  23,	  22, -1
  19,	  20,	  23, -1
  23,	  20,	  24, -1
  20,	  21,	  25, -1
  20,	  25,	  24, -1
  21,	  22,	  26, -1
  21,	  26,	  25, -1
  22,	  23,	  26, -1
  23,	  24,	  26, -1
  26,	  24,	  25, -1
]
normalPerVertex TRUE
}
}
]
}
