#VRML V2.0 utf8
Transform {
children [
Shape {
appearance Appearance {
              material DEF surface Material {
              diffuseColor 0.8 0.8 0.8
              ambientIntensity 0.2
              specularColor 0.4 0.4 0.4
              emissiveColor 0 0 0
              shininess 0.25
              transparency 0
            }
          }
geometry IndexedFaceSet {
solid FALSE
coord DEF bone Coordinate {
point [
 -0.000748	 -0.006842	  0.005761,
  0.003996	 -0.006821	  0.001657,
  0.004810	 -0.006646	 -0.004013,
 -0.004982	 -0.006416	  0.001385,
  0.002600	 -0.010987	  0.000581,
 -0.000170	 -0.011358	  0.004739,
  0.002624	 -0.010932	 -0.004225,
 -0.004599	 -0.006315	 -0.003222,
  0.000591	 -0.006138	 -0.006304,
  0.000233	 -0.010180	 -0.005912,
 -0.004471	 -0.010805	  0.000909,
  0.001845	 -0.015523	 -0.004499,
  0.001314	 -0.015174	 -0.000666,
 -0.000535	 -0.015859	  0.002900,
  0.000006	 -0.014423	 -0.005656,
 -0.004109	 -0.010554	 -0.002976,
 -0.003278	 -0.014649	 -0.004089,
 -0.003913	 -0.015192	  0.000547,
  0.001870	 -0.020536	 -0.005527,
 -0.000418	 -0.018590	 -0.005819,
  0.001096	 -0.019635	 -0.001375,
 -0.000694	 -0.020630	  0.001819,
 -0.002820	 -0.018860	 -0.004855,
 -0.003784	 -0.019554	 -0.000460,
  0.003025	 -0.025012	 -0.006292,
  0.000093	 -0.022775	 -0.006390,
 -0.002606	 -0.023186	 -0.004865,
  0.001820	 -0.024035	 -0.002168,
 -0.000029	 -0.025320	  0.000420,
 -0.003787	 -0.023947	 -0.001209,
  0.005450	 -0.028920	 -0.006489,
  0.000507	 -0.026979	 -0.006894,
 -0.001933	 -0.027422	 -0.004692,
 -0.003363	 -0.028387	 -0.001904,
  0.002934	 -0.028499	 -0.002959,
  0.000639	 -0.030082	  0.001209,
  0.001887	 -0.031277	 -0.007488,
  0.000533	 -0.031204	 -0.007205,
 -0.000184	 -0.031310	 -0.005427,
 -0.001431	 -0.032337	 -0.002048,
 -0.001097	 -0.032652	 -0.001924,
  0.001906	 -0.032081	 -0.004622,
]
}
coordIndex [
   0,	   1,	   2, -1
   3,	   0,	   2, -1
   4,	   1,	   0, -1
   5,	   4,	   0, -1
   5,	   0,	   3, -1
   6,	   2,	   1, -1
   4,	   6,	   1, -1
   7,	   3,	   2, -1
   8,	   7,	   2, -1
   9,	   8,	   2, -1
   6,	   9,	   2, -1
  10,	   5,	   3, -1
  10,	   3,	   7, -1
  11,	   6,	   4, -1
  12,	  11,	   4, -1
  12,	   4,	   5, -1
  13,	  12,	   5, -1
  13,	   5,	  10, -1
  14,	   9,	   6, -1
  11,	  14,	   6, -1
  15,	  10,	   7, -1
  15,	   7,	   8, -1
   9,	  15,	   8, -1
  16,	  15,	   9, -1
  14,	  16,	   9, -1
  17,	  13,	  10, -1
  17,	  10,	  15, -1
  18,	  11,	  12, -1
  19,	  14,	  11, -1
  18,	  19,	  11, -1
  20,	  18,	  12, -1
  20,	  12,	  13, -1
  21,	  20,	  13, -1
  21,	  13,	  17, -1
  22,	  16,	  14, -1
  19,	  22,	  14, -1
  16,	  17,	  15, -1
  23,	  17,	  16, -1
  22,	  23,	  16, -1
  23,	  21,	  17, -1
  24,	  18,	  20, -1
  25,	  19,	  18, -1
  24,	  25,	  18, -1
  26,	  22,	  19, -1
  25,	  26,	  19, -1
  27,	  24,	  20, -1
  27,	  20,	  21, -1
  28,	  21,	  23, -1
  28,	  27,	  21, -1
  29,	  23,	  22, -1
  26,	  29,	  22, -1
  29,	  28,	  23, -1
  30,	  24,	  27, -1
  31,	  25,	  24, -1
  30,	  31,	  24, -1
  32,	  26,	  25, -1
  31,	  32,	  25, -1
  33,	  29,	  26, -1
  32,	  33,	  26, -1
  34,	  27,	  28, -1
  34,	  30,	  27, -1
  35,	  28,	  29, -1
  35,	  34,	  28, -1
  33,	  35,	  29, -1
  36,	  30,	  34, -1
  37,	  31,	  30, -1
  36,	  37,	  30, -1
  38,	  32,	  31, -1
  37,	  38,	  31, -1
  39,	  33,	  32, -1
  38,	  39,	  32, -1
  40,	  35,	  33, -1
  39,	  40,	  33, -1
  41,	  34,	  35, -1
  41,	  36,	  34, -1
  40,	  41,	  35, -1
  37,	  36,	  41, -1
  38,	  37,	  41, -1
  38,	  41,	  40, -1
  39,	  38,	  40, -1
]
colorPerVertex FALSE
colorIndex [
1,
1,
1,
1,
1,
1,
1,
1,
1,
1,
1,
1,
1,
1,
1,
1,
1,
1,
1,
1,
1,
1,
1,
1,
1,
1,
1,
1,
1,
1,
1,
1,
1,
1,
1,
1,
1,
1,
1,
1,
1,
1,
]
normal Normal {
vector [
  0.316381	  0.532493	  0.785082,
  0.943977	 -0.060522	  0.324416,
  0.504176	  0.794913	 -0.337521,
 -0.746532	  0.488752	  0.451455,
  0.898188	 -0.283627	  0.335880,
  0.119984	 -0.335973	  0.934198,
  0.851460	 -0.247201	 -0.462501,
 -0.788066	  0.543321	 -0.289404,
 -0.213928	  0.279276	 -0.936077,
 -0.003097	 -0.074826	 -0.997192,
 -0.915813	 -0.164521	  0.366359,
  0.871868	 -0.079671	 -0.483218,
  0.928544	 -0.200037	  0.312716,
  0.213586	 -0.266226	  0.939949,
  0.067725	  0.004201	 -0.997695,
 -0.845788	 -0.078493	 -0.527713,
 -0.812974	 -0.005169	 -0.582278,
 -0.914064	 -0.147446	  0.377819,
  0.828845	  0.156504	 -0.537142,
 -0.032784	  0.082327	 -0.996066,
  0.941713	  0.011234	  0.336229,
  0.185248	 -0.200298	  0.962062,
 -0.759656	  0.018369	 -0.650065,
 -0.924573	 -0.134240	  0.356574,
  0.760758	  0.314016	 -0.568015,
 -0.192745	  0.086455	 -0.977433,
 -0.732861	 -0.056117	 -0.678060,
  0.880476	  0.142185	  0.452267,
  0.230518	 -0.025217	  0.972741,
 -0.928258	 -0.059494	  0.367147,
  0.773740	  0.202751	 -0.600182,
 -0.361913	  0.044545	 -0.931147,
 -0.736740	 -0.182783	 -0.651003,
 -0.939678	 -0.294243	  0.174433,
  0.875604	 -0.197644	  0.440744,
  0.127958	 -0.366254	  0.921675,
  0.572103	 -0.726863	 -0.379959,
 -0.421513	 -0.389819	 -0.818760,
 -0.658224	 -0.578216	 -0.482087,
 -0.834610	 -0.520487	 -0.180335,
 -0.412034	 -0.868238	  0.276387,
  0.380512	 -0.923674	 -0.045120,
]
}
normalIndex [
   0,	   1,	   2, -1
   3,	   0,	   2, -1
   4,	   1,	   0, -1
   5,	   4,	   0, -1
   5,	   0,	   3, -1
   6,	   2,	   1, -1
   4,	   6,	   1, -1
   7,	   3,	   2, -1
   8,	   7,	   2, -1
   9,	   8,	   2, -1
   6,	   9,	   2, -1
  10,	   5,	   3, -1
  10,	   3,	   7, -1
  11,	   6,	   4, -1
  12,	  11,	   4, -1
  12,	   4,	   5, -1
  13,	  12,	   5, -1
  13,	   5,	  10, -1
  14,	   9,	   6, -1
  11,	  14,	   6, -1
  15,	  10,	   7, -1
  15,	   7,	   8, -1
   9,	  15,	   8, -1
  16,	  15,	   9, -1
  14,	  16,	   9, -1
  17,	  13,	  10, -1
  17,	  10,	  15, -1
  18,	  11,	  12, -1
  19,	  14,	  11, -1
  18,	  19,	  11, -1
  20,	  18,	  12, -1
  20,	  12,	  13, -1
  21,	  20,	  13, -1
  21,	  13,	  17, -1
  22,	  16,	  14, -1
  19,	  22,	  14, -1
  16,	  17,	  15, -1
  23,	  17,	  16, -1
  22,	  23,	  16, -1
  23,	  21,	  17, -1
  24,	  18,	  20, -1
  25,	  19,	  18, -1
  24,	  25,	  18, -1
  26,	  22,	  19, -1
  25,	  26,	  19, -1
  27,	  24,	  20, -1
  27,	  20,	  21, -1
  28,	  21,	  23, -1
  28,	  27,	  21, -1
  29,	  23,	  22, -1
  26,	  29,	  22, -1
  29,	  28,	  23, -1
  30,	  24,	  27, -1
  31,	  25,	  24, -1
  30,	  31,	  24, -1
  32,	  26,	  25, -1
  31,	  32,	  25, -1
  33,	  29,	  26, -1
  32,	  33,	  26, -1
  34,	  27,	  28, -1
  34,	  30,	  27, -1
  35,	  28,	  29, -1
  35,	  34,	  28, -1
  33,	  35,	  29, -1
  36,	  30,	  34, -1
  37,	  31,	  30, -1
  36,	  37,	  30, -1
  38,	  32,	  31, -1
  37,	  38,	  31, -1
  39,	  33,	  32, -1
  38,	  39,	  32, -1
  40,	  35,	  33, -1
  39,	  40,	  33, -1
  41,	  34,	  35, -1
  41,	  36,	  34, -1
  40,	  41,	  35, -1
  37,	  36,	  41, -1
  38,	  37,	  41, -1
  38,	  41,	  40, -1
  39,	  38,	  40, -1
]
normalPerVertex TRUE
}
}
]
}
