# 
# Wavefront OBJ file
# Converted by the DEEP Exploration 2.00.1211
# Right Hemisphere, LTD
# http://www.righthemisphere.com/
# 
mtllib little2_l.mtl
# object Object #0
g Object__0
v 0.002004 -0.003313 0.005244
v 0.005874 -0.003301 0.001846
v 0.006499 -0.003352 -0.002809
v -0.001513 -0.003257 0.001682
v 0.004724 -0.007147 0.001143
v 0.002479 -0.007404 0.004583
v 0.004707 -0.007296 -0.002793
v -0.001234 -0.003344 -0.002095
v 0.002725 -0.00677 -0.004182
v 0.00301 -0.003134 -0.004668
v -0.001089 -0.007213 0.001463
v 0.004072 -0.011469 -0.002827
v 0.003664 -0.011014 0.0003
v 0.002173 -0.011546 0.003262
v 0.002548 -0.010589 -0.003802
v -0.000822 -0.007136 -0.001728
v -0.00014 -0.010842 -0.002483
v -0.000625 -0.01116 0.001337
v 0.004092 -0.016026 -0.003469
v 0.002205 -0.014363 -0.003766
v 0.003487 -0.015069 -0.0001
v 0.002041 -0.015894 0.002569
v 0.000237 -0.01465 -0.002945
v -0.000519 -0.015126 0.000687
v 0.005044 -0.020049 -0.003926
v 0.002627 -0.01814 -0.004069
v 0.000419 -0.01854 -0.002783
v 0.004082 -0.01904 -0.000579
v 0.002586 -0.020153 0.001606
v -0.000522 -0.019114 0.000249
v 0.00297 -0.021933 -0.004317
v 0.007043 -0.023494 -0.003951
v 0.000982 -0.022325 -0.002479
v -0.00017 -0.023127 -0.000146
v 0.005 -0.023055 -0.001058
v 0.003149 -0.024386 0.002435
v 0.002421 -0.025797 -0.002938
v 0.002997 -0.02575 -0.004405
v 0.004109 -0.025781 -0.004644
v 0.001424 -0.026625 -0.000122
v 0.0017 -0.026891 -1.1e-005
v 0.004148 -0.026386 -0.002267
# 42 verticies
vn 0.297263 0.58434 0.755104
vn 0.947809 -0.005811 0.318785
vn 0.470301 0.797872 -0.377117
vn -0.746599 0.508872 0.428532
vn 0.90866 -0.241469 0.340631
vn 0.136578 -0.265144 0.954487
vn 0.854379 -0.243995 -0.458805
vn -0.796212 0.52597 -0.299001
vn -0.009114 -0.112133 -0.993651
vn -0.231993 0.245201 -0.941305
vn -0.912555 -0.135915 0.385709
vn 0.86804 -0.092399 -0.48782
vn 0.935223 -0.166332 0.312555
vn 0.227559 -0.200379 0.952924
vn 0.058505 -0.040176 -0.997478
vn -0.850313 -0.096786 -0.517301
vn -0.818147 -0.032065 -0.574114
vn -0.910458 -0.119672 0.39591
vn 0.822669 0.120825 -0.555533
vn -0.044047 0.030652 -0.998559
vn 0.944592 0.027135 0.327125
vn 0.19665 -0.139605 0.970484
vn -0.765488 -0.013102 -0.643317
vn -0.920383 -0.108588 0.375638
vn 0.759748 0.268633 -0.592131
vn -0.203517 0.034732 -0.978455
vn -0.737528 -0.08254 -0.670254
vn 0.885004 0.154302 0.439272
vn 0.239117 0.020328 0.970778
vn -0.924165 -0.039443 0.379953
vn -0.370987 -0.001608 -0.928637
vn 0.776057 0.157451 -0.610692
vn -0.741321 -0.199046 -0.640956
vn -0.942499 -0.267085 0.200901
vn 0.882016 -0.162282 0.442394
vn 0.153169 -0.298519 0.942033
vn -0.658228 -0.590738 -0.466652
vn -0.416105 -0.433902 -0.799115
vn 0.593025 -0.72124 -0.357957
vn -0.846358 -0.507713 -0.160954
vn -0.403023 -0.854331 0.328162
vn 0.41409 -0.910075 -0.017099
# 42 normals
usemtl Material__1
f  1//1 2//2 3//3
f  4//4 1//1 3//3
f  5//5 2//2 1//1
f  6//6 5//5 1//1
f  6//6 1//1 4//4
f  7//7 3//3 2//2
f  5//5 7//7 2//2
f  8//8 4//4 3//3
f  9//9 10//10 3//3
f  7//7 9//9 3//3
f  3//3 10//10 8//8
f  11//11 6//6 4//4
f  11//11 4//4 8//8
f  12//12 7//7 5//5
f  13//13 12//12 5//5
f  13//13 5//5 6//6
f  14//14 13//13 6//6
f  14//14 6//6 11//11
f  15//15 9//9 7//7
f  12//12 15//15 7//7
f  16//16 11//11 8//8
f  16//16 8//8 10//10
f  9//9 16//16 10//10
f  17//17 16//16 9//9
f  15//15 17//17 9//9
f  18//18 14//14 11//11
f  18//18 11//11 16//16
f  19//19 12//12 13//13
f  20//20 15//15 12//12
f  19//19 20//20 12//12
f  21//21 19//19 13//13
f  21//21 13//13 14//14
f  22//22 21//21 14//14
f  22//22 14//14 18//18
f  23//23 17//17 15//15
f  20//20 23//23 15//15
f  17//17 18//18 16//16
f  24//24 18//18 17//17
f  23//23 24//24 17//17
f  24//24 22//22 18//18
f  25//25 26//26 19//19
f  25//25 19//19 21//21
f  26//26 20//20 19//19
f  27//27 23//23 20//20
f  26//26 27//27 20//20
f  28//28 21//21 22//22
f  28//28 25//25 21//21
f  29//29 22//22 24//24
f  29//29 28//28 22//22
f  30//30 24//24 23//23
f  27//27 30//30 23//23
f  30//30 29//29 24//24
f  31//31 26//26 25//25
f  32//32 25//25 28//28
f  32//32 31//31 25//25
f  33//33 27//27 26//26
f  31//31 33//33 26//26
f  34//34 30//30 27//27
f  33//33 34//34 27//27
f  35//35 28//28 29//29
f  35//35 32//32 28//28
f  36//36 29//29 30//30
f  36//36 35//35 29//29
f  34//34 36//36 30//30
f  37//37 33//33 31//31
f  38//38 37//37 31//31
f  38//38 31//31 32//32
f  39//39 32//32 35//35
f  39//39 38//38 32//32
f  40//40 34//34 33//33
f  37//37 40//40 33//33
f  41//41 36//36 34//34
f  40//40 41//41 34//34
f  42//42 35//35 36//36
f  42//42 39//39 35//35
f  41//41 42//42 36//36
f  37//37 42//42 41//41
f  40//40 37//37 41//41
f  37//37 38//38 42//42
f  38//38 39//39 42//42
