# 
# Wavefront OBJ file
# Converted by the DEEP Exploration 2.00.1211
# Right Hemisphere, LTD
# http://www.righthemisphere.com/
# 
mtllib little1_r.mtl
# object Object #0
g Object__0
v 0.003993 -0.034963 -0.005949
v 0.004272 -0.034601 -0.003406
v 0.005963 -0.039529 -0.004681
v 0.006497 -0.039424 -0.005761
v 0.00187 -0.03057 -0.005637
v 0.00169 -0.032761 -0.00624
v 0.00105 -0.028068 -0.006462
v 0.00328 -0.029653 -0.003048
v 0.002554 -0.034075 -0.002253
v 0.004398 -0.038534 -0.002479
v 0.002713 -0.042802 -0.002817
v 0.002846 -0.037365 -0.005828
v 0.002968 -0.042395 -0.00544
v 0.001733 -0.025161 -0.005614
v 0.001018 -0.023285 -0.006569
v -0.000346 -0.032869 -0.005389
v -0.001324 -0.028128 -0.005323
v -0.00176 -0.023319 -0.005848
v 0.002209 -0.029077 -0.001731
v 0.002212 -0.024557 -0.003293
v 0.002403 -0.035873 0.001637
v 0.004979 -0.04019 0.001517
v 0.002342 -0.042974 -0.000939
v 0.001499 -0.042737 -0.004629
v 0.00099 -0.037524 -0.005726
v -0.000413 -0.038417 -0.003856
v 0.002176 -0.019613 -0.005737
v 0.000965 -0.0185 -0.006764
v -0.001671 -0.018463 -0.006319
v -0.001251 -0.033564 -0.003311
v -0.002536 -0.028849 -0.003025
v -0.00337 -0.024034 -0.002996
v -0.003794 -0.019124 -0.003002
v 0.001631 -0.024167 -0.001229
v 0.000596 -0.031027 0.001489
v 0.002142 -0.019365 -0.003032
v 0.000457 -0.033796 0.001266
v 0.001156 -0.038484 0.001025
v 0.001716 -0.043126 0.000248
v -0.001174 -0.041998 -0.000955
v -0.000744 -0.037444 -0.000927
v -0.001417 -0.033011 -0.000298
v 0.002908 -0.0144 -0.005821
v 0.001229 -0.013769 -0.007285
v -0.001554 -0.013619 -0.006724
v -0.004263 -0.014234 -0.002975
v -0.002438 -0.028583 0.000227
v -0.003185 -0.024086 0.00031
v -0.00353 -0.019542 0.000398
v -0.003898 -0.01499 0.000517
v 0.000851 -0.025744 0.002017
v 0.0015 -0.019235 -0.000742
v -0.000179 -0.029111 0.001503
v 0.002917 -0.014184 -0.003323
v 0.004631 -0.009484 -0.005531
v 0.002236 -0.009155 -0.007609
v -0.002305 -0.008896 -0.007589
v -0.004581 -0.009337 -0.003236
v -0.004487 -0.010471 0.000628
v -0.000938 -0.024398 0.001746
v -0.001483 -0.019682 0.002088
v -0.000794 -0.015093 0.002953
v -0.000791 -0.010569 0.004306
v 0.000572 -0.020525 0.002283
v 0.002066 -0.014243 -0.000375
v 0.005235 -0.009603 -0.003253
v 0.003841 -0.004321 -0.006073
v -0.001773 -0.004278 -0.006388
v -0.004046 -0.00456 -0.002259
v -0.00401 -0.005983 0.001251
v -0.000534 -0.005909 0.004445
v 0.000885 -0.015206 0.002399
v 0.003147 -0.010749 0.003665
v 0.003515 -0.005603 0.003904
v 0.004784 -0.010355 0.000414
v 0.005301 -0.004639 -0.003604
v 0.001185 -0.00583 -0.001751
v 0.00463 -0.005413 0.000565
# 78 verticies
vn 0.854616 0.383199 -0.350415
vn 0.9241 0.281012 0.258981
vn 0.914493 0.015329 0.404312
vn 0.678173 -0.294049 -0.673511
vn 0.901512 0.194467 -0.386598
vn -0.162901 -0.071362 -0.984058
vn 0.128574 0.020238 -0.991493
vn 0.978603 0.133097 0.156909
vn 0.854715 0.214956 0.4725
vn 0.931984 -0.087962 0.351664
vn 0.618681 -0.769154 0.160114
vn -0.109719 -0.075649 -0.99108
vn -0.099289 -0.517287 -0.850033
vn 0.866603 0.01208 -0.498853
vn 0.319787 -0.031213 -0.946975
vn -0.619946 -0.142269 -0.771639
vn -0.661988 -0.130915 -0.737993
vn -0.618249 -0.087892 -0.781053
vn 0.889914 0.118458 0.440478
vn 0.990477 0.070022 0.118543
vn 0.439874 0.131363 0.8884
vn 0.779921 -0.19839 0.593603
vn 0.565558 -0.824295 -0.026096
vn -0.431588 -0.831645 -0.349425
vn -0.542632 -0.138011 -0.828555
vn -0.888088 -0.211949 -0.407893
vn 0.881734 -0.091461 -0.462796
vn 0.266691 -0.078189 -0.960605
vn -0.551893 -0.063633 -0.831484
vn -0.944603 -0.199235 -0.260827
vn -0.9546 -0.194828 -0.225345
vn -0.964981 -0.119554 -0.233491
vn -0.966995 -0.079414 -0.242102
vn 0.958151 0.012727 0.28598
vn 0.434324 0.014336 0.900643
vn 0.98709 -0.06775 0.145133
vn -0.482481 -0.121926 0.867379
vn -0.44348 -0.120915 0.888091
vn -0.0830159 -0.846768 0.525446
vn -0.858177 -0.375243 0.350321
vn -0.947367 -0.148884 0.283423
vn -0.893064 -0.200541 0.402765
vn 0.887576 -0.200523 -0.414729
vn 0.253312 -0.141479 -0.956983
vn -0.54916 -0.129687 -0.825593
vn -0.957226 -0.084939 -0.276592
vn -0.847598 -0.207851 0.488237
vn -0.869156 -0.130397 0.477037
vn -0.886627 -0.077686 0.455914
vn -0.885197 -0.129197 0.446917
vn 0.529125 -0.060344 0.846396
vn 0.961855 -0.057728 0.267398
vn -0.386941 -0.122145 0.913979
vn 0.956045 -0.276385 0.097925
vn 0.884538 -0.174448 -0.43262
vn 0.350787 0.022692 -0.93618
vn -0.545692 0.031178 -0.837406
vn -0.969608 0.003062 -0.244646
vn -0.911007 -0.039298 0.410514
vn -0.363042 -0.099633 0.926431
vn -0.314782 -0.099672 0.943916
vn -0.217007 -0.230879 0.948474
vn -0.293357 -0.129389 0.947206
vn 0.527019 -0.069124 0.847038
vn 0.918934 -0.330498 0.215248
vn 0.961594 -0.246977 -0.119751
vn 0.617757 0.601796 -0.50618
vn -0.178661 0.803994 -0.567163
vn -0.697398 0.711175 -0.088696
vn -0.720824 0.598666 0.349301
vn -0.397244 0.573499 0.716447
vn 0.591026 -0.351343 0.726118
vn 0.612579 -0.247969 0.750506
vn 0.333626 0.584677 0.739491
vn 0.934394 -0.286707 0.211442
vn 0.789353 0.612193 0.046279
vn -0.02955 0.986598 0.160471
vn 0.748231 0.577338 0.32685
# 78 normals
usemtl Material__1
f  1//1 2//2 3//3
f  1//1 3//3 4//4
f  5//5 2//2 1//1
f  6//6 1//1 4//4
f  7//7 5//5 1//1
f  7//7 1//1 6//6
f  5//5 8//8 2//2
f  2//2 9//9 10//10
f  2//2 10//10 3//3
f  8//8 9//9 2//2
f  3//3 10//10 11//11
f  4//4 3//3 11//11
f  6//6 4//4 12//12
f  11//11 13//13 4//4
f  13//13 12//12 4//4
f  14//14 8//8 5//5
f  15//15 14//14 5//5
f  15//15 5//5 7//7
f  16//16 6//6 12//12
f  17//17 7//7 6//6
f  17//17 6//6 16//16
f  18//18 15//15 7//7
f  18//18 7//7 17//17
f  8//8 19//19 9//9
f  14//14 20//20 8//8
f  20//20 19//19 8//8
f  9//9 21//21 22//22
f  9//9 22//22 10//10
f  19//19 21//21 9//9
f  10//10 22//22 23//23
f  10//10 23//23 11//11
f  24//24 11//11 23//23
f  11//11 24//24 13//13
f  16//16 12//12 25//25
f  12//12 13//13 25//25
f  26//26 25//25 13//13
f  26//26 13//13 24//24
f  27//27 20//20 14//14
f  28//28 27//27 14//14
f  28//28 14//14 15//15
f  29//29 28//28 15//15
f  29//29 15//15 18//18
f  30//30 16//16 25//25
f  31//31 17//17 16//16
f  31//31 16//16 30//30
f  32//32 18//18 17//17
f  32//32 17//17 31//31
f  33//33 29//29 18//18
f  33//33 18//18 32//32
f  20//20 34//34 19//19
f  19//19 35//35 21//21
f  34//34 35//35 19//19
f  27//27 36//36 20//20
f  36//36 34//34 20//20
f  21//21 37//37 38//38
f  21//21 38//38 22//22
f  35//35 37//37 21//21
f  22//22 39//39 23//23
f  22//22 38//38 39//39
f  24//24 23//23 39//39
f  24//24 39//39 40//40
f  41//41 26//26 24//24
f  41//41 24//24 40//40
f  30//30 25//25 26//26
f  42//42 30//30 26//26
f  42//42 26//26 41//41
f  43//43 36//36 27//27
f  44//44 43//43 27//27
f  44//44 27//27 28//28
f  45//45 44//44 28//28
f  45//45 28//28 29//29
f  46//46 45//45 29//29
f  46//46 29//29 33//33
f  47//47 31//31 30//30
f  47//47 30//30 42//42
f  48//48 32//32 31//31
f  48//48 31//31 47//47
f  49//49 33//33 32//32
f  49//49 32//32 48//48
f  50//50 46//46 33//33
f  50//50 33//33 49//49
f  34//34 51//51 35//35
f  36//36 52//52 34//34
f  52//52 51//51 34//34
f  35//35 53//53 37//37
f  51//51 53//53 35//35
f  43//43 54//54 36//36
f  54//54 52//52 36//36
f  37//37 42//42 41//41
f  37//37 41//41 38//38
f  53//53 42//42 37//37
f  38//38 41//41 40//40
f  38//38 40//40 39//39
f  53//53 47//47 42//42
f  55//55 54//54 43//43
f  56//56 55//55 43//43
f  56//56 43//43 44//44
f  57//57 56//56 44//44
f  57//57 44//44 45//45
f  58//58 57//57 45//45
f  58//58 45//45 46//46
f  59//59 58//58 46//46
f  59//59 46//46 50//50
f  60//60 48//48 47//47
f  60//60 47//47 53//53
f  61//61 49//49 48//48
f  61//61 48//48 60//60
f  62//62 50//50 49//49
f  62//62 49//49 61//61
f  63//63 59//59 50//50
f  63//63 50//50 62//62
f  52//52 64//64 51//51
f  51//51 60//60 53//53
f  64//64 60//60 51//51
f  54//54 65//65 52//52
f  65//65 64//64 52//52
f  55//55 66//66 54//54
f  66//66 65//65 54//54
f  67//67 66//66 55//55
f  67//67 55//55 56//56
f  68//68 67//67 56//56
f  68//68 56//56 57//57
f  69//69 68//68 57//57
f  69//69 57//57 58//58
f  70//70 69//69 58//58
f  70//70 58//58 59//59
f  71//71 70//70 59//59
f  71//71 59//59 63//63
f  64//64 61//61 60//60
f  72//72 62//62 61//61
f  72//72 61//61 64//64
f  73//73 63//63 62//62
f  73//73 62//62 72//72
f  74//74 71//71 63//63
f  74//74 63//63 73//73
f  65//65 72//72 64//64
f  66//66 75//75 65//65
f  75//75 72//72 65//65
f  67//67 76//76 66//66
f  76//76 75//75 66//66
f  67//67 68//68 77//77
f  76//76 67//67 77//77
f  68//68 69//69 77//77
f  69//69 70//70 77//77
f  70//70 71//71 77//77
f  71//71 74//74 77//77
f  75//75 73//73 72//72
f  78//78 74//74 73//73
f  78//78 73//73 75//75
f  74//74 78//78 77//77
f  76//76 78//78 75//75
f  78//78 76//76 77//77
