#VRML V2.0 utf8
Transform {
children [
Shape {
appearance Appearance {
              material DEF surface Material {
              diffuseColor 0.8 0.8 0.8
              ambientIntensity 0.2
              specularColor 0.4 0.4 0.4
              emissiveColor 0 0 0
              shininess 0.25
              transparency 0
            }
          }
geometry IndexedFaceSet {
solid FALSE
coord DEF bone Coordinate {
point [
  0.003993	 -0.034963	 -0.005949,
  0.004272	 -0.034601	 -0.003406,
  0.005963	 -0.039529	 -0.004681,
  0.006497	 -0.039424	 -0.005761,
  0.001870	 -0.030570	 -0.005637,
  0.001690	 -0.032761	 -0.006240,
  0.001050	 -0.028068	 -0.006462,
  0.003280	 -0.029653	 -0.003048,
  0.002554	 -0.034075	 -0.002253,
  0.004398	 -0.038534	 -0.002479,
  0.002713	 -0.042802	 -0.002817,
  0.002846	 -0.037365	 -0.005828,
  0.002968	 -0.042395	 -0.005440,
  0.001733	 -0.025161	 -0.005614,
  0.001018	 -0.023285	 -0.006569,
 -0.000346	 -0.032869	 -0.005389,
 -0.001324	 -0.028128	 -0.005323,
 -0.001760	 -0.023319	 -0.005848,
  0.002209	 -0.029077	 -0.001731,
  0.002212	 -0.024557	 -0.003293,
  0.002403	 -0.035873	  0.001637,
  0.004979	 -0.040190	  0.001517,
  0.002342	 -0.042974	 -0.000939,
  0.001499	 -0.042737	 -0.004629,
  0.000990	 -0.037524	 -0.005726,
 -0.000413	 -0.038417	 -0.003856,
  0.002176	 -0.019613	 -0.005737,
  0.000965	 -0.018500	 -0.006764,
 -0.001671	 -0.018463	 -0.006319,
 -0.001251	 -0.033564	 -0.003311,
 -0.002536	 -0.028849	 -0.003025,
 -0.003370	 -0.024034	 -0.002996,
 -0.003794	 -0.019124	 -0.003002,
  0.001631	 -0.024167	 -0.001229,
  0.000596	 -0.031027	  0.001489,
  0.002142	 -0.019365	 -0.003032,
  0.000457	 -0.033796	  0.001266,
  0.001156	 -0.038484	  0.001025,
  0.001716	 -0.043126	  0.000248,
 -0.001174	 -0.041998	 -0.000955,
 -0.000744	 -0.037444	 -0.000927,
 -0.001417	 -0.033011	 -0.000298,
  0.002908	 -0.014400	 -0.005821,
  0.001229	 -0.013769	 -0.007285,
 -0.001554	 -0.013619	 -0.006724,
 -0.004263	 -0.014234	 -0.002975,
 -0.002438	 -0.028583	  0.000227,
 -0.003185	 -0.024086	  0.000310,
 -0.003530	 -0.019542	  0.000398,
 -0.003898	 -0.014990	  0.000517,
  0.000851	 -0.025744	  0.002017,
  0.001500	 -0.019235	 -0.000742,
 -0.000179	 -0.029111	  0.001503,
  0.002917	 -0.014184	 -0.003323,
  0.004631	 -0.009484	 -0.005531,
  0.002236	 -0.009155	 -0.007609,
 -0.002305	 -0.008896	 -0.007589,
 -0.004581	 -0.009337	 -0.003236,
 -0.004487	 -0.010471	  0.000628,
 -0.000938	 -0.024398	  0.001746,
 -0.001483	 -0.019682	  0.002088,
 -0.000794	 -0.015093	  0.002953,
 -0.000791	 -0.010569	  0.004306,
  0.000572	 -0.020525	  0.002283,
  0.002066	 -0.014243	 -0.000375,
  0.005235	 -0.009603	 -0.003253,
  0.003841	 -0.004321	 -0.006073,
 -0.001773	 -0.004278	 -0.006388,
 -0.004046	 -0.004560	 -0.002259,
 -0.004010	 -0.005983	  0.001251,
 -0.000534	 -0.005909	  0.004445,
  0.000885	 -0.015206	  0.002399,
  0.003147	 -0.010749	  0.003665,
  0.003515	 -0.005603	  0.003904,
  0.004784	 -0.010355	  0.000414,
  0.005301	 -0.004639	 -0.003604,
  0.001185	 -0.005830	 -0.001751,
  0.004630	 -0.005413	  0.000565,
]
}
coordIndex [
   0,	   1,	   2, -1
   0,	   2,	   3, -1
   4,	   1,	   0, -1
   5,	   0,	   3, -1
   6,	   4,	   0, -1
   6,	   0,	   5, -1
   4,	   7,	   1, -1
   1,	   8,	   9, -1
   1,	   9,	   2, -1
   7,	   8,	   1, -1
   2,	   9,	  10, -1
   3,	   2,	  10, -1
   5,	   3,	  11, -1
  10,	  12,	   3, -1
  12,	  11,	   3, -1
  13,	   7,	   4, -1
  14,	  13,	   4, -1
  14,	   4,	   6, -1
  15,	   5,	  11, -1
  16,	   6,	   5, -1
  16,	   5,	  15, -1
  17,	  14,	   6, -1
  17,	   6,	  16, -1
   7,	  18,	   8, -1
  13,	  19,	   7, -1
  19,	  18,	   7, -1
   8,	  20,	  21, -1
   8,	  21,	   9, -1
  18,	  20,	   8, -1
   9,	  21,	  22, -1
   9,	  22,	  10, -1
  23,	  10,	  22, -1
  10,	  23,	  12, -1
  15,	  11,	  24, -1
  11,	  12,	  24, -1
  25,	  24,	  12, -1
  25,	  12,	  23, -1
  26,	  19,	  13, -1
  27,	  26,	  13, -1
  27,	  13,	  14, -1
  28,	  27,	  14, -1
  28,	  14,	  17, -1
  29,	  15,	  24, -1
  30,	  16,	  15, -1
  30,	  15,	  29, -1
  31,	  17,	  16, -1
  31,	  16,	  30, -1
  32,	  28,	  17, -1
  32,	  17,	  31, -1
  19,	  33,	  18, -1
  18,	  34,	  20, -1
  33,	  34,	  18, -1
  26,	  35,	  19, -1
  35,	  33,	  19, -1
  20,	  36,	  37, -1
  20,	  37,	  21, -1
  34,	  36,	  20, -1
  21,	  38,	  22, -1
  21,	  37,	  38, -1
  23,	  22,	  38, -1
  23,	  38,	  39, -1
  40,	  25,	  23, -1
  40,	  23,	  39, -1
  29,	  24,	  25, -1
  41,	  29,	  25, -1
  41,	  25,	  40, -1
  42,	  35,	  26, -1
  43,	  42,	  26, -1
  43,	  26,	  27, -1
  44,	  43,	  27, -1
  44,	  27,	  28, -1
  45,	  44,	  28, -1
  45,	  28,	  32, -1
  46,	  30,	  29, -1
  46,	  29,	  41, -1
  47,	  31,	  30, -1
  47,	  30,	  46, -1
  48,	  32,	  31, -1
  48,	  31,	  47, -1
  49,	  45,	  32, -1
  49,	  32,	  48, -1
  33,	  50,	  34, -1
  35,	  51,	  33, -1
  51,	  50,	  33, -1
  34,	  52,	  36, -1
  50,	  52,	  34, -1
  42,	  53,	  35, -1
  53,	  51,	  35, -1
  36,	  41,	  40, -1
  36,	  40,	  37, -1
  52,	  41,	  36, -1
  37,	  40,	  39, -1
  37,	  39,	  38, -1
  52,	  46,	  41, -1
  54,	  53,	  42, -1
  55,	  54,	  42, -1
  55,	  42,	  43, -1
  56,	  55,	  43, -1
  56,	  43,	  44, -1
  57,	  56,	  44, -1
  57,	  44,	  45, -1
  58,	  57,	  45, -1
  58,	  45,	  49, -1
  59,	  47,	  46, -1
  59,	  46,	  52, -1
  60,	  48,	  47, -1
  60,	  47,	  59, -1
  61,	  49,	  48, -1
  61,	  48,	  60, -1
  62,	  58,	  49, -1
  62,	  49,	  61, -1
  51,	  63,	  50, -1
  50,	  59,	  52, -1
  63,	  59,	  50, -1
  53,	  64,	  51, -1
  64,	  63,	  51, -1
  54,	  65,	  53, -1
  65,	  64,	  53, -1
  66,	  65,	  54, -1
  66,	  54,	  55, -1
  67,	  66,	  55, -1
  67,	  55,	  56, -1
  68,	  67,	  56, -1
  68,	  56,	  57, -1
  69,	  68,	  57, -1
  69,	  57,	  58, -1
  70,	  69,	  58, -1
  70,	  58,	  62, -1
  63,	  60,	  59, -1
  71,	  61,	  60, -1
  71,	  60,	  63, -1
  72,	  62,	  61, -1
  72,	  61,	  71, -1
  73,	  70,	  62, -1
  73,	  62,	  72, -1
  64,	  71,	  63, -1
  65,	  74,	  64, -1
  74,	  71,	  64, -1
  66,	  75,	  65, -1
  75,	  74,	  65, -1
  66,	  67,	  76, -1
  75,	  66,	  76, -1
  67,	  68,	  76, -1
  68,	  69,	  76, -1
  69,	  70,	  76, -1
  70,	  73,	  76, -1
  74,	  72,	  71, -1
  77,	  73,	  72, -1
  77,	  72,	  74, -1
  73,	  77,	  76, -1
  75,	  77,	  74, -1
  77,	  75,	  76, -1
]
colorPerVertex FALSE
colorIndex [
1,
1,
1,
1,
1,
1,
1,
1,
1,
1,
1,
1,
1,
1,
1,
1,
1,
1,
1,
1,
1,
1,
1,
1,
1,
1,
1,
1,
1,
1,
1,
1,
1,
1,
1,
1,
1,
1,
1,
1,
1,
1,
1,
1,
1,
1,
1,
1,
1,
1,
1,
1,
1,
1,
1,
1,
1,
1,
1,
1,
1,
1,
1,
1,
1,
1,
1,
1,
1,
1,
1,
1,
1,
1,
1,
1,
1,
1,
]
normal Normal {
vector [
  0.854615	  0.383199	 -0.350415,
  0.924100	  0.281012	  0.258981,
  0.914493	  0.015329	  0.404312,
  0.678173	 -0.294049	 -0.673511,
  0.901512	  0.194467	 -0.386598,
 -0.162901	 -0.071362	 -0.984058,
  0.128574	  0.020238	 -0.991493,
  0.978603	  0.133097	  0.156909,
  0.854715	  0.214956	  0.472500,
  0.931984	 -0.087962	  0.351664,
  0.618681	 -0.769154	  0.160114,
 -0.109719	 -0.075649	 -0.991080,
 -0.099289	 -0.517287	 -0.850033,
  0.866603	  0.012080	 -0.498853,
  0.319787	 -0.031213	 -0.946975,
 -0.619946	 -0.142269	 -0.771639,
 -0.661988	 -0.130915	 -0.737993,
 -0.618249	 -0.087892	 -0.781053,
  0.889914	  0.118458	  0.440478,
  0.990477	  0.070022	  0.118543,
  0.439874	  0.131363	  0.888400,
  0.779921	 -0.198390	  0.593603,
  0.565558	 -0.824295	 -0.026096,
 -0.431588	 -0.831645	 -0.349425,
 -0.542632	 -0.138011	 -0.828555,
 -0.888088	 -0.211949	 -0.407893,
  0.881734	 -0.091461	 -0.462796,
  0.266691	 -0.078189	 -0.960605,
 -0.551893	 -0.063633	 -0.831484,
 -0.944603	 -0.199235	 -0.260827,
 -0.954600	 -0.194828	 -0.225345,
 -0.964981	 -0.119554	 -0.233491,
 -0.966995	 -0.079414	 -0.242102,
  0.958151	  0.012727	  0.285980,
  0.434324	  0.014336	  0.900643,
  0.987090	 -0.067750	  0.145133,
 -0.482481	 -0.121926	  0.867379,
 -0.443480	 -0.120915	  0.888091,
 -0.083016	 -0.846768	  0.525446,
 -0.858177	 -0.375243	  0.350321,
 -0.947367	 -0.148884	  0.283423,
 -0.893064	 -0.200541	  0.402765,
  0.887576	 -0.200523	 -0.414729,
  0.253312	 -0.141479	 -0.956983,
 -0.549160	 -0.129687	 -0.825593,
 -0.957226	 -0.084939	 -0.276592,
 -0.847598	 -0.207851	  0.488237,
 -0.869156	 -0.130397	  0.477037,
 -0.886627	 -0.077686	  0.455914,
 -0.885197	 -0.129197	  0.446917,
  0.529125	 -0.060344	  0.846396,
  0.961855	 -0.057728	  0.267398,
 -0.386941	 -0.122145	  0.913979,
  0.956045	 -0.276385	  0.097925,
  0.884538	 -0.174448	 -0.432620,
  0.350787	  0.022692	 -0.936180,
 -0.545692	  0.031178	 -0.837406,
 -0.969608	  0.003062	 -0.244646,
 -0.911007	 -0.039298	  0.410514,
 -0.363042	 -0.099633	  0.926431,
 -0.314782	 -0.099672	  0.943916,
 -0.217007	 -0.230879	  0.948474,
 -0.293357	 -0.129389	  0.947207,
  0.527019	 -0.069124	  0.847038,
  0.918934	 -0.330498	  0.215248,
  0.961593	 -0.246977	 -0.119751,
  0.617757	  0.601796	 -0.506180,
 -0.178661	  0.803994	 -0.567163,
 -0.697398	  0.711175	 -0.088696,
 -0.720824	  0.598666	  0.349301,
 -0.397244	  0.573499	  0.716447,
  0.591026	 -0.351343	  0.726118,
  0.612579	 -0.247969	  0.750506,
  0.333626	  0.584677	  0.739491,
  0.934393	 -0.286707	  0.211442,
  0.789353	  0.612193	  0.046279,
 -0.029550	  0.986598	  0.160471,
  0.748231	  0.577338	  0.326850,
]
}
normalIndex [
   0,	   1,	   2, -1
   0,	   2,	   3, -1
   4,	   1,	   0, -1
   5,	   0,	   3, -1
   6,	   4,	   0, -1
   6,	   0,	   5, -1
   4,	   7,	   1, -1
   1,	   8,	   9, -1
   1,	   9,	   2, -1
   7,	   8,	   1, -1
   2,	   9,	  10, -1
   3,	   2,	  10, -1
   5,	   3,	  11, -1
  10,	  12,	   3, -1
  12,	  11,	   3, -1
  13,	   7,	   4, -1
  14,	  13,	   4, -1
  14,	   4,	   6, -1
  15,	   5,	  11, -1
  16,	   6,	   5, -1
  16,	   5,	  15, -1
  17,	  14,	   6, -1
  17,	   6,	  16, -1
   7,	  18,	   8, -1
  13,	  19,	   7, -1
  19,	  18,	   7, -1
   8,	  20,	  21, -1
   8,	  21,	   9, -1
  18,	  20,	   8, -1
   9,	  21,	  22, -1
   9,	  22,	  10, -1
  23,	  10,	  22, -1
  10,	  23,	  12, -1
  15,	  11,	  24, -1
  11,	  12,	  24, -1
  25,	  24,	  12, -1
  25,	  12,	  23, -1
  26,	  19,	  13, -1
  27,	  26,	  13, -1
  27,	  13,	  14, -1
  28,	  27,	  14, -1
  28,	  14,	  17, -1
  29,	  15,	  24, -1
  30,	  16,	  15, -1
  30,	  15,	  29, -1
  31,	  17,	  16, -1
  31,	  16,	  30, -1
  32,	  28,	  17, -1
  32,	  17,	  31, -1
  19,	  33,	  18, -1
  18,	  34,	  20, -1
  33,	  34,	  18, -1
  26,	  35,	  19, -1
  35,	  33,	  19, -1
  20,	  36,	  37, -1
  20,	  37,	  21, -1
  34,	  36,	  20, -1
  21,	  38,	  22, -1
  21,	  37,	  38, -1
  23,	  22,	  38, -1
  23,	  38,	  39, -1
  40,	  25,	  23, -1
  40,	  23,	  39, -1
  29,	  24,	  25, -1
  41,	  29,	  25, -1
  41,	  25,	  40, -1
  42,	  35,	  26, -1
  43,	  42,	  26, -1
  43,	  26,	  27, -1
  44,	  43,	  27, -1
  44,	  27,	  28, -1
  45,	  44,	  28, -1
  45,	  28,	  32, -1
  46,	  30,	  29, -1
  46,	  29,	  41, -1
  47,	  31,	  30, -1
  47,	  30,	  46, -1
  48,	  32,	  31, -1
  48,	  31,	  47, -1
  49,	  45,	  32, -1
  49,	  32,	  48, -1
  33,	  50,	  34, -1
  35,	  51,	  33, -1
  51,	  50,	  33, -1
  34,	  52,	  36, -1
  50,	  52,	  34, -1
  42,	  53,	  35, -1
  53,	  51,	  35, -1
  36,	  41,	  40, -1
  36,	  40,	  37, -1
  52,	  41,	  36, -1
  37,	  40,	  39, -1
  37,	  39,	  38, -1
  52,	  46,	  41, -1
  54,	  53,	  42, -1
  55,	  54,	  42, -1
  55,	  42,	  43, -1
  56,	  55,	  43, -1
  56,	  43,	  44, -1
  57,	  56,	  44, -1
  57,	  44,	  45, -1
  58,	  57,	  45, -1
  58,	  45,	  49, -1
  59,	  47,	  46, -1
  59,	  46,	  52, -1
  60,	  48,	  47, -1
  60,	  47,	  59, -1
  61,	  49,	  48, -1
  61,	  48,	  60, -1
  62,	  58,	  49, -1
  62,	  49,	  61, -1
  51,	  63,	  50, -1
  50,	  59,	  52, -1
  63,	  59,	  50, -1
  53,	  64,	  51, -1
  64,	  63,	  51, -1
  54,	  65,	  53, -1
  65,	  64,	  53, -1
  66,	  65,	  54, -1
  66,	  54,	  55, -1
  67,	  66,	  55, -1
  67,	  55,	  56, -1
  68,	  67,	  56, -1
  68,	  56,	  57, -1
  69,	  68,	  57, -1
  69,	  57,	  58, -1
  70,	  69,	  58, -1
  70,	  58,	  62, -1
  63,	  60,	  59, -1
  71,	  61,	  60, -1
  71,	  60,	  63, -1
  72,	  62,	  61, -1
  72,	  61,	  71, -1
  73,	  70,	  62, -1
  73,	  62,	  72, -1
  64,	  71,	  63, -1
  65,	  74,	  64, -1
  74,	  71,	  64, -1
  66,	  75,	  65, -1
  75,	  74,	  65, -1
  66,	  67,	  76, -1
  75,	  66,	  76, -1
  67,	  68,	  76, -1
  68,	  69,	  76, -1
  69,	  70,	  76, -1
  70,	  73,	  76, -1
  74,	  72,	  71, -1
  77,	  73,	  72, -1
  77,	  72,	  74, -1
  73,	  77,	  76, -1
  75,	  77,	  74, -1
  77,	  75,	  76, -1
]
normalPerVertex TRUE
}
}
]
}
