#VRML V2.0 utf8
Transform {
children [
Shape {
appearance Appearance {
              material DEF surface Material {
              diffuseColor 0.8 0.8 0.8
              ambientIntensity 0.2
              specularColor 0.4 0.4 0.4
              emissiveColor 0 0 0
              shininess 0.25
              transparency 0
            }
          }
geometry IndexedFaceSet {
solid FALSE
coord DEF bone Coordinate {
point [
  0.005963	 -0.039529	  0.004681,
  0.004272	 -0.034601	  0.003406,
  0.003993	 -0.034963	  0.005949,
  0.006497	 -0.039424	  0.005761,
  0.004398	 -0.038534	  0.002479,
  0.002713	 -0.042802	  0.002817,
  0.001870	 -0.030570	  0.005637,
  0.003280	 -0.029653	  0.003048,
  0.002554	 -0.034075	  0.002253,
  0.001690	 -0.032761	  0.006240,
  0.001050	 -0.028068	  0.006462,
  0.002846	 -0.037365	  0.005828,
  0.002968	 -0.042395	  0.005440,
  0.004979	 -0.040190	 -0.001517,
  0.002342	 -0.042974	  0.000939,
  0.001499	 -0.042737	  0.004629,
  0.001733	 -0.025161	  0.005614,
  0.001018	 -0.023285	  0.006569,
  0.002209	 -0.029077	  0.001731,
  0.002212	 -0.024557	  0.003293,
  0.002403	 -0.035873	 -0.001637,
 -0.000346	 -0.032869	  0.005389,
 -0.001324	 -0.028128	  0.005323,
 -0.001760	 -0.023319	  0.005848,
  0.000990	 -0.037524	  0.005726,
 -0.000413	 -0.038417	  0.003856,
  0.001156	 -0.038484	 -0.001025,
  0.001716	 -0.043126	 -0.000248,
 -0.001174	 -0.041998	  0.000955,
 -0.000744	 -0.037444	  0.000927,
  0.002176	 -0.019613	  0.005737,
  0.000965	 -0.018500	  0.006764,
 -0.001671	 -0.018463	  0.006319,
  0.001631	 -0.024167	  0.001229,
  0.000596	 -0.031027	 -0.001489,
  0.002142	 -0.019365	  0.003032,
  0.000457	 -0.033796	 -0.001266,
 -0.001251	 -0.033564	  0.003311,
 -0.002536	 -0.028849	  0.003025,
 -0.003370	 -0.024034	  0.002996,
 -0.003794	 -0.019124	  0.003002,
 -0.001417	 -0.033011	  0.000298,
  0.002908	 -0.014400	  0.005821,
  0.001229	 -0.013769	  0.007285,
 -0.001554	 -0.013619	  0.006724,
 -0.004263	 -0.014234	  0.002975,
  0.000851	 -0.025744	 -0.002017,
  0.001500	 -0.019235	  0.000742,
 -0.000179	 -0.029111	 -0.001503,
  0.002917	 -0.014184	  0.003323,
 -0.002438	 -0.028583	 -0.000227,
 -0.003185	 -0.024086	 -0.000310,
 -0.003530	 -0.019542	 -0.000398,
 -0.003898	 -0.014990	 -0.000517,
  0.004631	 -0.009484	  0.005531,
  0.002236	 -0.009155	  0.007609,
 -0.002305	 -0.008896	  0.007589,
 -0.004581	 -0.009337	  0.003236,
 -0.004487	 -0.010471	 -0.000628,
  0.000572	 -0.020525	 -0.002283,
 -0.000938	 -0.024398	 -0.001746,
  0.002066	 -0.014243	  0.000375,
  0.005235	 -0.009603	  0.003253,
 -0.001483	 -0.019682	 -0.002088,
 -0.000794	 -0.015093	 -0.002953,
 -0.000791	 -0.010569	 -0.004306,
  0.003841	 -0.004321	  0.006073,
 -0.001773	 -0.004278	  0.006388,
 -0.004046	 -0.004560	  0.002259,
 -0.004010	 -0.005983	 -0.001251,
 -0.000534	 -0.005909	 -0.004445,
  0.000885	 -0.015206	 -0.002399,
  0.004784	 -0.010355	 -0.000414,
  0.005301	 -0.004639	  0.003604,
  0.003147	 -0.010749	 -0.003665,
  0.003515	 -0.005603	 -0.003904,
  0.001185	 -0.005830	  0.001751,
  0.004630	 -0.005413	 -0.000565,
]
}
coordIndex [
   0,	   1,	   2, -1
   3,	   0,	   2, -1
   0,	   4,	   1, -1
   5,	   4,	   0, -1
   5,	   0,	   3, -1
   2,	   1,	   6, -1
   1,	   7,	   6, -1
   4,	   8,	   1, -1
   1,	   8,	   7, -1
   3,	   2,	   9, -1
   2,	   6,	  10, -1
   9,	   2,	  10, -1
  11,	   3,	   9, -1
   3,	  12,	   5, -1
   3,	  11,	  12, -1
   4,	  13,	   8, -1
  14,	  13,	   4, -1
   5,	  14,	   4, -1
  14,	   5,	  15, -1
  12,	  15,	   5, -1
   6,	   7,	  16, -1
   6,	  16,	  17, -1
  10,	   6,	  17, -1
   8,	  18,	   7, -1
   7,	  19,	  16, -1
   7,	  18,	  19, -1
  13,	  20,	   8, -1
   8,	  20,	  18, -1
  11,	   9,	  21, -1
   9,	  10,	  22, -1
  21,	   9,	  22, -1
  10,	  17,	  23, -1
  22,	  10,	  23, -1
  24,	  11,	  21, -1
  24,	  12,	  11, -1
  12,	  24,	  25, -1
  15,	  12,	  25, -1
  13,	  26,	  20, -1
  14,	  27,	  13, -1
  27,	  26,	  13, -1
  27,	  14,	  15, -1
  28,	  27,	  15, -1
  15,	  25,	  29, -1
  28,	  15,	  29, -1
  16,	  19,	  30, -1
  16,	  30,	  31, -1
  17,	  16,	  31, -1
  17,	  31,	  32, -1
  23,	  17,	  32, -1
  18,	  33,	  19, -1
  20,	  34,	  18, -1
  18,	  34,	  33, -1
  19,	  35,	  30, -1
  19,	  33,	  35, -1
  26,	  36,	  20, -1
  20,	  36,	  34, -1
  24,	  21,	  37, -1
  21,	  22,	  38, -1
  37,	  21,	  38, -1
  22,	  23,	  39, -1
  38,	  22,	  39, -1
  23,	  32,	  40, -1
  39,	  23,	  40, -1
  25,	  24,	  37, -1
  25,	  37,	  41, -1
  29,	  25,	  41, -1
  26,	  29,	  36, -1
  28,	  29,	  26, -1
  27,	  28,	  26, -1
  29,	  41,	  36, -1
  30,	  35,	  42, -1
  30,	  42,	  43, -1
  31,	  30,	  43, -1
  31,	  43,	  44, -1
  32,	  31,	  44, -1
  32,	  44,	  45, -1
  40,	  32,	  45, -1
  34,	  46,	  33, -1
  33,	  47,	  35, -1
  33,	  46,	  47, -1
  36,	  48,	  34, -1
  34,	  48,	  46, -1
  35,	  49,	  42, -1
  35,	  47,	  49, -1
  36,	  41,	  48, -1
  37,	  38,	  50, -1
  41,	  37,	  50, -1
  38,	  39,	  51, -1
  50,	  38,	  51, -1
  39,	  40,	  52, -1
  51,	  39,	  52, -1
  40,	  45,	  53, -1
  52,	  40,	  53, -1
  41,	  50,	  48, -1
  42,	  49,	  54, -1
  42,	  54,	  55, -1
  43,	  42,	  55, -1
  43,	  55,	  56, -1
  44,	  43,	  56, -1
  44,	  56,	  57, -1
  45,	  44,	  57, -1
  45,	  57,	  58, -1
  53,	  45,	  58, -1
  46,	  59,	  47, -1
  48,	  60,	  46, -1
  46,	  60,	  59, -1
  47,	  61,	  49, -1
  47,	  59,	  61, -1
  48,	  50,	  60, -1
  49,	  62,	  54, -1
  49,	  61,	  62, -1
  50,	  51,	  60, -1
  51,	  52,	  63, -1
  60,	  51,	  63, -1
  52,	  53,	  64, -1
  63,	  52,	  64, -1
  53,	  58,	  65, -1
  64,	  53,	  65, -1
  54,	  62,	  66, -1
  55,	  54,	  66, -1
  55,	  66,	  67, -1
  56,	  55,	  67, -1
  56,	  67,	  68, -1
  57,	  56,	  68, -1
  57,	  68,	  69, -1
  58,	  57,	  69, -1
  58,	  69,	  70, -1
  65,	  58,	  70, -1
  60,	  63,	  59, -1
  59,	  63,	  71, -1
  59,	  71,	  61, -1
  61,	  72,	  62, -1
  61,	  71,	  72, -1
  62,	  73,	  66, -1
  62,	  72,	  73, -1
  63,	  64,	  71, -1
  64,	  65,	  74, -1
  71,	  64,	  74, -1
  65,	  70,	  75, -1
  74,	  65,	  75, -1
  76,	  67,	  66, -1
  76,	  66,	  73, -1
  76,	  68,	  67, -1
  76,	  69,	  68, -1
  76,	  70,	  69, -1
  76,	  75,	  70, -1
  71,	  74,	  72, -1
  72,	  74,	  77, -1
  72,	  77,	  73, -1
  76,	  73,	  77, -1
  74,	  75,	  77, -1
  76,	  77,	  75, -1
]
colorPerVertex FALSE
colorIndex [
1,
1,
1,
1,
1,
1,
1,
1,
1,
1,
1,
1,
1,
1,
1,
1,
1,
1,
1,
1,
1,
1,
1,
1,
1,
1,
1,
1,
1,
1,
1,
1,
1,
1,
1,
1,
1,
1,
1,
1,
1,
1,
1,
1,
1,
1,
1,
1,
1,
1,
1,
1,
1,
1,
1,
1,
1,
1,
1,
1,
1,
1,
1,
1,
1,
1,
1,
1,
1,
1,
1,
1,
1,
1,
1,
1,
1,
1,
]
normal Normal {
vector [
  0.914493	  0.015329	 -0.404312,
  0.924100	  0.281012	 -0.258981,
  0.854615	  0.383199	  0.350415,
  0.678173	 -0.294049	  0.673511,
  0.931984	 -0.087962	 -0.351664,
  0.618681	 -0.769154	 -0.160114,
  0.901512	  0.194467	  0.386598,
  0.978603	  0.133097	 -0.156909,
  0.854715	  0.214956	 -0.472500,
 -0.162901	 -0.071362	  0.984058,
  0.128574	  0.020238	  0.991493,
 -0.109719	 -0.075649	  0.991080,
 -0.099289	 -0.517287	  0.850033,
  0.779921	 -0.198390	 -0.593603,
  0.565558	 -0.824295	  0.026096,
 -0.431588	 -0.831645	  0.349425,
  0.866603	  0.012080	  0.498853,
  0.319787	 -0.031213	  0.946975,
  0.889914	  0.118458	 -0.440478,
  0.990477	  0.070022	 -0.118543,
  0.439874	  0.131363	 -0.888400,
 -0.619946	 -0.142269	  0.771639,
 -0.661988	 -0.130915	  0.737993,
 -0.618249	 -0.087892	  0.781053,
 -0.542632	 -0.138011	  0.828555,
 -0.888088	 -0.211949	  0.407893,
 -0.443480	 -0.120915	 -0.888091,
 -0.083016	 -0.846768	 -0.525446,
 -0.858177	 -0.375243	 -0.350321,
 -0.947367	 -0.148884	 -0.283423,
  0.881734	 -0.091461	  0.462796,
  0.266691	 -0.078189	  0.960605,
 -0.551893	 -0.063633	  0.831484,
  0.958151	  0.012727	 -0.285980,
  0.434324	  0.014336	 -0.900643,
  0.987090	 -0.067750	 -0.145133,
 -0.482481	 -0.121926	 -0.867379,
 -0.944603	 -0.199235	  0.260827,
 -0.954600	 -0.194828	  0.225345,
 -0.964981	 -0.119554	  0.233491,
 -0.966995	 -0.079414	  0.242102,
 -0.893064	 -0.200541	 -0.402765,
  0.887576	 -0.200523	  0.414729,
  0.253312	 -0.141479	  0.956983,
 -0.549160	 -0.129687	  0.825593,
 -0.957226	 -0.084939	  0.276592,
  0.529125	 -0.060344	 -0.846396,
  0.961855	 -0.057728	 -0.267398,
 -0.386941	 -0.122145	 -0.913979,
  0.956045	 -0.276385	 -0.097925,
 -0.847598	 -0.207851	 -0.488237,
 -0.869156	 -0.130397	 -0.477037,
 -0.886627	 -0.077686	 -0.455914,
 -0.885197	 -0.129197	 -0.446917,
  0.884538	 -0.174448	  0.432620,
  0.350787	  0.022692	  0.936180,
 -0.545692	  0.031178	  0.837406,
 -0.969608	  0.003062	  0.244646,
 -0.911007	 -0.039298	 -0.410514,
  0.527019	 -0.069124	 -0.847038,
 -0.363042	 -0.099633	 -0.926431,
  0.918934	 -0.330498	 -0.215248,
  0.961593	 -0.246977	  0.119751,
 -0.314782	 -0.099672	 -0.943916,
 -0.217007	 -0.230879	 -0.948474,
 -0.293357	 -0.129389	 -0.947207,
  0.617757	  0.601796	  0.506180,
 -0.178661	  0.803994	  0.567163,
 -0.697398	  0.711175	  0.088696,
 -0.720824	  0.598666	 -0.349301,
 -0.397244	  0.573499	 -0.716447,
  0.591026	 -0.351343	 -0.726118,
  0.934393	 -0.286707	 -0.211442,
  0.789353	  0.612193	 -0.046279,
  0.612579	 -0.247969	 -0.750506,
  0.333626	  0.584677	 -0.739491,
 -0.029550	  0.986598	 -0.160471,
  0.748231	  0.577338	 -0.326850,
]
}
normalIndex [
   0,	   1,	   2, -1
   3,	   0,	   2, -1
   0,	   4,	   1, -1
   5,	   4,	   0, -1
   5,	   0,	   3, -1
   2,	   1,	   6, -1
   1,	   7,	   6, -1
   4,	   8,	   1, -1
   1,	   8,	   7, -1
   3,	   2,	   9, -1
   2,	   6,	  10, -1
   9,	   2,	  10, -1
  11,	   3,	   9, -1
   3,	  12,	   5, -1
   3,	  11,	  12, -1
   4,	  13,	   8, -1
  14,	  13,	   4, -1
   5,	  14,	   4, -1
  14,	   5,	  15, -1
  12,	  15,	   5, -1
   6,	   7,	  16, -1
   6,	  16,	  17, -1
  10,	   6,	  17, -1
   8,	  18,	   7, -1
   7,	  19,	  16, -1
   7,	  18,	  19, -1
  13,	  20,	   8, -1
   8,	  20,	  18, -1
  11,	   9,	  21, -1
   9,	  10,	  22, -1
  21,	   9,	  22, -1
  10,	  17,	  23, -1
  22,	  10,	  23, -1
  24,	  11,	  21, -1
  24,	  12,	  11, -1
  12,	  24,	  25, -1
  15,	  12,	  25, -1
  13,	  26,	  20, -1
  14,	  27,	  13, -1
  27,	  26,	  13, -1
  27,	  14,	  15, -1
  28,	  27,	  15, -1
  15,	  25,	  29, -1
  28,	  15,	  29, -1
  16,	  19,	  30, -1
  16,	  30,	  31, -1
  17,	  16,	  31, -1
  17,	  31,	  32, -1
  23,	  17,	  32, -1
  18,	  33,	  19, -1
  20,	  34,	  18, -1
  18,	  34,	  33, -1
  19,	  35,	  30, -1
  19,	  33,	  35, -1
  26,	  36,	  20, -1
  20,	  36,	  34, -1
  24,	  21,	  37, -1
  21,	  22,	  38, -1
  37,	  21,	  38, -1
  22,	  23,	  39, -1
  38,	  22,	  39, -1
  23,	  32,	  40, -1
  39,	  23,	  40, -1
  25,	  24,	  37, -1
  25,	  37,	  41, -1
  29,	  25,	  41, -1
  26,	  29,	  36, -1
  28,	  29,	  26, -1
  27,	  28,	  26, -1
  29,	  41,	  36, -1
  30,	  35,	  42, -1
  30,	  42,	  43, -1
  31,	  30,	  43, -1
  31,	  43,	  44, -1
  32,	  31,	  44, -1
  32,	  44,	  45, -1
  40,	  32,	  45, -1
  34,	  46,	  33, -1
  33,	  47,	  35, -1
  33,	  46,	  47, -1
  36,	  48,	  34, -1
  34,	  48,	  46, -1
  35,	  49,	  42, -1
  35,	  47,	  49, -1
  36,	  41,	  48, -1
  37,	  38,	  50, -1
  41,	  37,	  50, -1
  38,	  39,	  51, -1
  50,	  38,	  51, -1
  39,	  40,	  52, -1
  51,	  39,	  52, -1
  40,	  45,	  53, -1
  52,	  40,	  53, -1
  41,	  50,	  48, -1
  42,	  49,	  54, -1
  42,	  54,	  55, -1
  43,	  42,	  55, -1
  43,	  55,	  56, -1
  44,	  43,	  56, -1
  44,	  56,	  57, -1
  45,	  44,	  57, -1
  45,	  57,	  58, -1
  53,	  45,	  58, -1
  46,	  59,	  47, -1
  48,	  60,	  46, -1
  46,	  60,	  59, -1
  47,	  61,	  49, -1
  47,	  59,	  61, -1
  48,	  50,	  60, -1
  49,	  62,	  54, -1
  49,	  61,	  62, -1
  50,	  51,	  60, -1
  51,	  52,	  63, -1
  60,	  51,	  63, -1
  52,	  53,	  64, -1
  63,	  52,	  64, -1
  53,	  58,	  65, -1
  64,	  53,	  65, -1
  54,	  62,	  66, -1
  55,	  54,	  66, -1
  55,	  66,	  67, -1
  56,	  55,	  67, -1
  56,	  67,	  68, -1
  57,	  56,	  68, -1
  57,	  68,	  69, -1
  58,	  57,	  69, -1
  58,	  69,	  70, -1
  65,	  58,	  70, -1
  60,	  63,	  59, -1
  59,	  63,	  71, -1
  59,	  71,	  61, -1
  61,	  72,	  62, -1
  61,	  71,	  72, -1
  62,	  73,	  66, -1
  62,	  72,	  73, -1
  63,	  64,	  71, -1
  64,	  65,	  74, -1
  71,	  64,	  74, -1
  65,	  70,	  75, -1
  74,	  65,	  75, -1
  76,	  67,	  66, -1
  76,	  66,	  73, -1
  76,	  68,	  67, -1
  76,	  69,	  68, -1
  76,	  70,	  69, -1
  76,	  75,	  70, -1
  71,	  74,	  72, -1
  72,	  74,	  77, -1
  72,	  77,	  73, -1
  76,	  73,	  77, -1
  74,	  75,	  77, -1
  76,	  77,	  75, -1
]
normalPerVertex TRUE
}
}
]
}
