# 
# Wavefront OBJ file
# Converted by the DEEP Exploration 2.00.1211
# Right Hemisphere, LTD
# http://www.righthemisphere.com/
# 
mtllib little2_r.mtl
# object Object #0
g Object__0
v 0.006499 -0.003352 0.002809
v 0.005874 -0.003301 -0.001846
v 0.002004 -0.003313 -0.005244
v -0.001513 -0.003257 -0.001682
v -0.001234 -0.003344 0.002095
v 0.004707 -0.007296 0.002793
v 0.00301 -0.003134 0.004668
v 0.002725 -0.00677 0.004182
v 0.004724 -0.007147 -0.001143
v 0.002479 -0.007404 -0.004583
v -0.001089 -0.007213 -0.001463
v -0.000822 -0.007136 0.001728
v 0.004072 -0.011469 0.002827
v 0.002548 -0.010589 0.003802
v -0.00014 -0.010842 0.002483
v 0.003664 -0.011014 -0.0003
v 0.002173 -0.011546 -0.003262
v -0.000625 -0.01116 -0.001337
v 0.004092 -0.016026 0.003469
v 0.002205 -0.014363 0.003766
v 0.000237 -0.01465 0.002945
v -0.000519 -0.015126 -0.000687
v 0.003487 -0.015069 0.0001
v 0.002041 -0.015894 -0.002569
v 0.002627 -0.01814 0.004069
v 0.005044 -0.020049 0.003926
v 0.000419 -0.01854 0.002783
v -0.000522 -0.019114 -0.000249
v 0.002586 -0.020153 -0.001606
v 0.004082 -0.01904 0.000579
v 0.00297 -0.021933 0.004317
v 0.000982 -0.022325 0.002479
v 0.007043 -0.023494 0.003951
v -0.00017 -0.023127 0.000146
v 0.003149 -0.024386 -0.002435
v 0.005 -0.023055 0.001058
v 0.002421 -0.025797 0.002938
v 0.002997 -0.02575 0.004405
v 0.001424 -0.026625 0.000122
v 0.004109 -0.025781 0.004644
v 0.0017 -0.026891 1.1e-005
v 0.004148 -0.026386 0.002267
# 42 verticies
vn 0.470301 0.797872 0.377117
vn 0.947809 -0.005811 -0.318785
vn 0.297263 0.58434 -0.755104
vn -0.746599 0.508872 -0.428532
vn -0.796212 0.52597 0.299001
vn 0.854379 -0.243995 0.458805
vn -0.231993 0.245201 0.941305
vn -0.009114 -0.112133 0.993651
vn 0.90866 -0.241469 -0.340631
vn 0.136578 -0.265144 -0.954487
vn -0.912555 -0.135915 -0.385709
vn -0.850313 -0.096786 0.517301
vn 0.86804 -0.092399 0.48782
vn 0.058505 -0.040176 0.997478
vn -0.818147 -0.032065 0.574114
vn 0.935223 -0.166332 -0.312555
vn 0.227559 -0.200379 -0.952924
vn -0.910458 -0.119672 -0.39591
vn 0.822669 0.120825 0.555533
vn -0.044047 0.030652 0.998559
vn -0.765488 -0.013102 0.643317
vn -0.920383 -0.108588 -0.375638
vn 0.944592 0.027135 -0.327125
vn 0.19665 -0.139605 -0.970484
vn -0.203517 0.034732 0.978455
vn 0.759748 0.268633 0.592131
vn -0.737528 -0.08254 0.670254
vn -0.924165 -0.039443 -0.379953
vn 0.239117 0.020328 -0.970778
vn 0.885004 0.154302 -0.439272
vn -0.370987 -0.001608 0.928637
vn -0.741321 -0.199046 0.640956
vn 0.776057 0.157451 0.610692
vn -0.942499 -0.267085 -0.200901
vn 0.153169 -0.298519 -0.942033
vn 0.882016 -0.162282 -0.442394
vn -0.658228 -0.590738 0.466652
vn -0.416105 -0.433902 0.799115
vn -0.846358 -0.507713 0.160954
vn 0.593025 -0.72124 0.357957
vn -0.403023 -0.854331 -0.328162
vn 0.41409 -0.910075 0.017099
# 42 normals
usemtl Material__1
f  1//1 2//2 3//3
f  1//1 3//3 4//4
f  1//1 4//4 5//5
f  2//2 1//1 6//6
f  1//1 7//7 8//8
f  1//1 8//8 6//6
f  5//5 7//7 1//1
f  2//2 6//6 9//9
f  3//3 2//2 9//9
f  3//3 9//9 10//10
f  4//4 3//3 10//10
f  4//4 10//10 11//11
f  5//5 4//4 11//11
f  5//5 11//11 12//12
f  7//7 5//5 12//12
f  9//9 6//6 13//13
f  6//6 8//8 14//14
f  6//6 14//14 13//13
f  7//7 12//12 8//8
f  8//8 12//12 15//15
f  8//8 15//15 14//14
f  9//9 13//13 16//16
f  10//10 9//9 16//16
f  10//10 16//16 17//17
f  11//11 10//10 17//17
f  11//11 17//17 18//18
f  12//12 11//11 18//18
f  12//12 18//18 15//15
f  16//16 13//13 19//19
f  13//13 14//14 20//20
f  13//13 20//20 19//19
f  14//14 15//15 21//21
f  14//14 21//21 20//20
f  15//15 18//18 22//22
f  15//15 22//22 21//21
f  16//16 19//19 23//23
f  17//17 16//16 23//23
f  17//17 23//23 24//24
f  18//18 17//17 24//24
f  18//18 24//24 22//22
f  19//19 25//25 26//26
f  23//23 19//19 26//26
f  19//19 20//20 25//25
f  20//20 21//21 27//27
f  20//20 27//27 25//25
f  21//21 22//22 28//28
f  21//21 28//28 27//27
f  22//22 24//24 29//29
f  22//22 29//29 28//28
f  24//24 23//23 30//30
f  23//23 26//26 30//30
f  24//24 30//30 29//29
f  26//26 25//25 31//31
f  25//25 27//27 32//32
f  25//25 32//32 31//31
f  30//30 26//26 33//33
f  26//26 31//31 33//33
f  27//27 28//28 34//34
f  27//27 34//34 32//32
f  28//28 29//29 35//35
f  28//28 35//35 34//34
f  29//29 30//30 36//36
f  29//29 36//36 35//35
f  30//30 33//33 36//36
f  31//31 32//32 37//37
f  31//31 37//37 38//38
f  33//33 31//31 38//38
f  32//32 34//34 39//39
f  32//32 39//39 37//37
f  36//36 33//33 40//40
f  33//33 38//38 40//40
f  34//34 35//35 41//41
f  34//34 41//41 39//39
f  35//35 36//36 42//42
f  35//35 42//42 41//41
f  36//36 40//40 42//42
f  41//41 42//42 37//37
f  41//41 37//37 39//39
f  42//42 38//38 37//37
f  42//42 40//40 38//38
