#VRML V2.0 utf8
Transform {
children [
Shape {
appearance Appearance {
              material DEF surface Material {
              diffuseColor 0.8 0.8 0.8
              ambientIntensity 0.2
              specularColor 0.4 0.4 0.4
              emissiveColor 0 0 0
              shininess 0.25
              transparency 0
            }
          }
geometry IndexedFaceSet {
solid FALSE
coord DEF bone Coordinate {
point [
 -0.001147	 -0.004890	  0.003160,
  0.001562	 -0.003285	 -0.000726,
  0.000186	 -0.003173	 -0.004458,
 -0.003738	 -0.003209	 -0.001039,
 -0.001445	 -0.007031	  0.002380,
 -0.003892	 -0.006124	 -0.001640,
  0.001200	 -0.006039	 -0.001025,
 -0.000230	 -0.006285	 -0.004394,
 -0.002012	 -0.009256	  0.001980,
 -0.003492	 -0.008967	 -0.001288,
 -0.001364	 -0.008877	 -0.002992,
  0.000107	 -0.008567	 -0.000711,
 -0.002225	 -0.011324	  0.001450,
 -0.003731	 -0.011879	 -0.000906,
 -0.001928	 -0.011885	 -0.002421,
 -0.000340	 -0.011334	 -0.000581,
 -0.001587	 -0.013539	  0.001966,
 -0.003865	 -0.014816	 -0.000560,
 -0.001896	 -0.015320	 -0.002167,
 -0.000691	 -0.014002	  0.000029,
 -0.001167	 -0.015746	  0.002279,
 -0.003133	 -0.017468	  0.000184,
 -0.001625	 -0.018379	 -0.001298,
 -0.000337	 -0.016706	  0.000422,
 -0.000860	 -0.017959	  0.002509,
 -0.001860	 -0.019524	  0.001520,
 -0.001418	 -0.019195	  0.000990,
]
}
coordIndex [
   0,	   1,	   2, -1
   0,	   2,	   3, -1
   1,	   0,	   4, -1
   0,	   3,	   5, -1
   0,	   5,	   4, -1
   1,	   4,	   6, -1
   2,	   1,	   6, -1
   2,	   6,	   7, -1
   3,	   2,	   7, -1
   3,	   7,	   5, -1
   6,	   4,	   8, -1
   4,	   5,	   9, -1
   4,	   9,	   8, -1
   5,	   7,	  10, -1
   5,	  10,	   9, -1
   6,	   8,	  11, -1
   7,	   6,	  11, -1
   7,	  11,	  10, -1
  11,	   8,	  12, -1
   8,	   9,	  13, -1
   8,	  13,	  12, -1
   9,	  10,	  14, -1
   9,	  14,	  13, -1
  10,	  11,	  15, -1
  10,	  15,	  14, -1
  11,	  12,	  15, -1
  15,	  12,	  16, -1
  12,	  13,	  17, -1
  12,	  17,	  16, -1
  13,	  14,	  18, -1
  13,	  18,	  17, -1
  14,	  15,	  19, -1
  14,	  19,	  18, -1
  15,	  16,	  19, -1
  19,	  16,	  20, -1
  16,	  17,	  21, -1
  16,	  21,	  20, -1
  17,	  18,	  22, -1
  17,	  22,	  21, -1
  18,	  19,	  23, -1
  18,	  23,	  22, -1
  19,	  20,	  23, -1
  23,	  20,	  24, -1
  20,	  21,	  25, -1
  20,	  25,	  24, -1
  21,	  22,	  26, -1
  21,	  26,	  25, -1
  22,	  23,	  26, -1
  23,	  24,	  26, -1
  26,	  24,	  25, -1
]
colorPerVertex FALSE
colorIndex [
1,
1,
1,
1,
1,
1,
1,
1,
1,
1,
1,
1,
1,
1,
1,
1,
1,
1,
1,
1,
1,
1,
1,
1,
1,
1,
1,
]
normal Normal {
vector [
 -0.388971	  0.565997	  0.726876,
  0.923489	  0.161410	  0.348017,
  0.464147	  0.752254	 -0.467634,
 -0.805113	  0.490494	 -0.333480,
 -0.057930	 -0.233132	  0.970718,
 -0.980083	 -0.074805	 -0.183959,
  0.959780	 -0.257083	  0.112832,
  0.183576	 -0.268857	 -0.945524,
 -0.082210	 -0.183981	  0.979486,
 -0.977801	 -0.007846	 -0.209389,
  0.125453	 -0.324683	 -0.937466,
  0.936185	 -0.334814	  0.107041,
 -0.055606	  0.007945	  0.998421,
 -0.984249	  0.000759	 -0.176784,
  0.126594	 -0.163157	 -0.978445,
  0.996112	 -0.087689	  0.008438,
  0.089792	  0.126529	  0.987891,
 -0.988536	 -0.147091	 -0.034083,
  0.169345	 -0.117380	 -0.978542,
  0.996049	  0.028112	 -0.084238,
  0.196032	  0.153068	  0.968577,
 -0.898740	 -0.414185	  0.143933,
 -0.117227	 -0.636131	 -0.762624,
  0.988178	 -0.099771	 -0.116400,
  0.774615	 -0.358507	  0.521003,
 -0.527099	 -0.682304	  0.506584,
  0.462249	 -0.845740	 -0.266550,
]
}
normalIndex [
   0,	   1,	   2, -1
   0,	   2,	   3, -1
   1,	   0,	   4, -1
   0,	   3,	   5, -1
   0,	   5,	   4, -1
   1,	   4,	   6, -1
   2,	   1,	   6, -1
   2,	   6,	   7, -1
   3,	   2,	   7, -1
   3,	   7,	   5, -1
   6,	   4,	   8, -1
   4,	   5,	   9, -1
   4,	   9,	   8, -1
   5,	   7,	  10, -1
   5,	  10,	   9, -1
   6,	   8,	  11, -1
   7,	   6,	  11, -1
   7,	  11,	  10, -1
  11,	   8,	  12, -1
   8,	   9,	  13, -1
   8,	  13,	  12, -1
   9,	  10,	  14, -1
   9,	  14,	  13, -1
  10,	  11,	  15, -1
  10,	  15,	  14, -1
  11,	  12,	  15, -1
  15,	  12,	  16, -1
  12,	  13,	  17, -1
  12,	  17,	  16, -1
  13,	  14,	  18, -1
  13,	  18,	  17, -1
  14,	  15,	  19, -1
  14,	  19,	  18, -1
  15,	  16,	  19, -1
  19,	  16,	  20, -1
  16,	  17,	  21, -1
  16,	  21,	  20, -1
  17,	  18,	  22, -1
  17,	  22,	  21, -1
  18,	  19,	  23, -1
  18,	  23,	  22, -1
  19,	  20,	  23, -1
  23,	  20,	  24, -1
  20,	  21,	  25, -1
  20,	  25,	  24, -1
  21,	  22,	  26, -1
  21,	  26,	  25, -1
  22,	  23,	  26, -1
  23,	  24,	  26, -1
  26,	  24,	  25, -1
]
normalPerVertex TRUE
}
}
]
}
