# 
# Wavefront OBJ file
# Converted by the DEEP Exploration 2.00.1211
# Right Hemisphere, LTD
# http://www.righthemisphere.com/
# 
mtllib little3_r.mtl
# object Object #0
g Object__0
v -0.001147 -0.00489 0.00316
v 0.001562 -0.003285 -0.000726
v 0.000186 -0.003173 -0.004458
v -0.003738 -0.003209 -0.001039
v -0.001445 -0.007031 0.00238
v -0.003892 -0.006124 -0.00164
v 0.0012 -0.006039 -0.001025
v -0.00023 -0.006285 -0.004394
v -0.002012 -0.009256 0.00198
v -0.003492 -0.008967 -0.001288
v -0.001364 -0.008877 -0.002992
v 0.000107 -0.008567 -0.000711
v -0.002225 -0.011324 0.00145
v -0.003731 -0.011879 -0.000906
v -0.001928 -0.011885 -0.002421
v -0.00034 -0.011334 -0.000581
v -0.001587 -0.013539 0.001966
v -0.003865 -0.014816 -0.00056
v -0.001896 -0.01532 -0.002167
v -0.000691 -0.014002 2.9e-005
v -0.001167 -0.015746 0.002279
v -0.003133 -0.017468 0.000184
v -0.001625 -0.018379 -0.001298
v -0.000337 -0.016706 0.000422
v -0.00086 -0.017959 0.002509
v -0.00186 -0.019524 0.00152
v -0.001418 -0.019195 0.00099
# 27 verticies
vn -0.388971 0.565997 0.726876
vn 0.923489 0.16141 0.348017
vn 0.464147 0.752254 -0.467634
vn -0.805113 0.490494 -0.33348
vn -0.05793 -0.233132 0.970718
vn -0.980083 -0.074805 -0.183959
vn 0.95978 -0.257083 0.112832
vn 0.183576 -0.268857 -0.945524
vn -0.08221 -0.183981 0.979486
vn -0.977801 -0.007846 -0.209389
vn 0.125453 -0.324683 -0.937466
vn 0.936185 -0.334814 0.107041
vn -0.055606 0.007945 0.998421
vn -0.984249 0.000759 -0.176784
vn 0.126594 -0.163157 -0.978445
vn 0.996112 -0.087689 0.008438
vn 0.089792 0.126529 0.987891
vn -0.988536 -0.147091 -0.034083
vn 0.169345 -0.11738 -0.978542
vn 0.996049 0.028112 -0.084238
vn 0.196032 0.153068 0.968577
vn -0.89874 -0.414185 0.143933
vn -0.117227 -0.636131 -0.762624
vn 0.988179 -0.0997711 -0.1164
vn 0.774615 -0.358507 0.521003
vn -0.527099 -0.682304 0.506584
vn 0.462249 -0.84574 -0.26655
# 27 normals
usemtl Material__1
f  1//1 2//2 3//3
f  1//1 3//3 4//4
f  2//2 1//1 5//5
f  1//1 4//4 6//6
f  1//1 6//6 5//5
f  2//2 5//5 7//7
f  3//3 2//2 7//7
f  3//3 7//7 8//8
f  4//4 3//3 8//8
f  4//4 8//8 6//6
f  7//7 5//5 9//9
f  5//5 6//6 10//10
f  5//5 10//10 9//9
f  6//6 8//8 11//11
f  6//6 11//11 10//10
f  7//7 9//9 12//12
f  8//8 7//7 12//12
f  8//8 12//12 11//11
f  12//12 9//9 13//13
f  9//9 10//10 14//14
f  9//9 14//14 13//13
f  10//10 11//11 15//15
f  10//10 15//15 14//14
f  11//11 12//12 16//16
f  11//11 16//16 15//15
f  12//12 13//13 16//16
f  16//16 13//13 17//17
f  13//13 14//14 18//18
f  13//13 18//18 17//17
f  14//14 15//15 19//19
f  14//14 19//19 18//18
f  15//15 16//16 20//20
f  15//15 20//20 19//19
f  16//16 17//17 20//20
f  20//20 17//17 21//21
f  17//17 18//18 22//22
f  17//17 22//22 21//21
f  18//18 19//19 23//23
f  18//18 23//23 22//22
f  19//19 20//20 24//24
f  19//19 24//24 23//23
f  20//20 21//21 24//24
f  24//24 21//21 25//25
f  21//21 22//22 26//26
f  21//21 26//26 25//25
f  22//22 23//23 27//27
f  22//22 27//27 26//26
f  23//23 24//24 27//27
f  24//24 25//25 27//27
f  27//27 25//25 26//26
