#VRML V2.0 utf8 
Transform { 
 children [ 
    Shape { 
   geometry IndexedFaceSet { 
   solid FALSE 
    coord DEF bone Coordinate{ 
     point [ 
	  0.003778  -0.026668   0.000000,
	  0.019715  -0.025185  -0.009271,
	  0.017169  -0.028992   0.000000,
	  0.014647  -0.024854  -0.018973,
	  0.005752  -0.025253  -0.023697,
	 -0.014219  -0.024321   0.000000,
	 -0.014120  -0.024709  -0.005568,
	 -0.014501  -0.024327  -0.016493,
	 -0.008859  -0.023113  -0.023835,
	  0.019715  -0.025185   0.009271,
	  0.014647  -0.024854   0.018973,
	  0.005752  -0.025253   0.023697,
	 -0.014120  -0.024709   0.005568,
	 -0.014501  -0.024327   0.016493,
	 -0.008859  -0.023113   0.023835,
	  0.020457  -0.024004  -0.011135,
	  0.020354  -0.023265   0.000000,
	  0.020457  -0.024004   0.011135,
	  0.013100  -0.021746  -0.018324,
	  0.004564  -0.019092  -0.022277,
	 -0.013674  -0.018611  -0.005208,
	 -0.013640  -0.018766   0.000000,
	 -0.013674  -0.018611   0.005208,
	 -0.013655  -0.016674  -0.016841,
	 -0.007266  -0.020000  -0.022444,
	 -0.014710  -0.016938  -0.009944,
	  0.013100  -0.021746   0.018324,
	  0.004564  -0.019092   0.022277,
	 -0.007266  -0.020000   0.022444,
	 -0.013655  -0.016674   0.016841,
	 -0.014710  -0.016938   0.009944,
	  0.017440  -0.017299  -0.010839,
	  0.018897  -0.017772   0.000000,
	  0.017440  -0.017299   0.010839,
	  0.011510  -0.016036  -0.017864,
	  0.004592  -0.014009  -0.020258,
	 -0.013526  -0.011400  -0.006689,
	 -0.012980  -0.011346   0.000000,
	 -0.013526  -0.011400   0.006689,
	 -0.012229  -0.012956  -0.020082,
	 -0.005983  -0.012485  -0.021237,
	 -0.015580  -0.010804  -0.010260,
	  0.011510  -0.016036   0.017864,
	  0.004592  -0.014009   0.020258,
	 -0.005983  -0.012485   0.021237,
	 -0.012229  -0.012956   0.020082,
	 -0.015580  -0.010804   0.010260,
	  0.017667  -0.007424  -0.010455,
	  0.019228  -0.006059   0.000000,
	  0.017667  -0.007424   0.010455,
	  0.011184  -0.007015  -0.018550,
	  0.005734  -0.007042  -0.020348,
	 -0.015475  -0.004184  -0.006911,
	 -0.017661  -0.003742  -0.010728,
	 -0.014671  -0.004037   0.000000,
	 -0.015475  -0.004184   0.006911,
	 -0.017661  -0.003742   0.010728,
	 -0.010762  -0.005959  -0.021807,
	 -0.005490  -0.006953  -0.021386,
	 -0.015818  -0.010259  -0.022188,
	 -0.019001  -0.013685  -0.018091,
	 -0.017995  -0.006383  -0.026540,
	 -0.024666  -0.008349  -0.003911,
	  0.011184  -0.007015   0.018550,
	  0.005734  -0.007042   0.020348,
	 -0.005490  -0.006953   0.021386,
	 -0.010762  -0.005959   0.021807,
	 -0.019001  -0.013685   0.018091,
	 -0.015818  -0.010259   0.022188,
	 -0.017995  -0.006383   0.026540,
	 -0.024666  -0.008349   0.003911,
	  0.019186  -0.001891  -0.011570,
	  0.019867  -0.001403   0.000000,
	  0.019186  -0.001891   0.011570,
	  0.013399  -0.002533  -0.019637,
	  0.006580  -0.003359  -0.022504,
	 -0.015957   0.004267  -0.008823,
	 -0.016821   0.002230  -0.011520,
	 -0.014136   0.003243   0.000000,
	 -0.015957   0.004267   0.008823,
	 -0.016821   0.002230   0.011520,
	 -0.011813  -0.000883  -0.021070,
	 -0.002977  -0.001863  -0.023599,
	 -0.018786   0.000356  -0.021124,
	 -0.026230  -0.008910  -0.018198,
	 -0.027888  -0.003914  -0.024502,
	 -0.022782  -0.011434  -0.026213,
	 -0.021241  -0.016899  -0.011135,
	 -0.023769  -0.008862  -0.030672,
	 -0.022106  -0.005428  -0.033740,
	 -0.024867  -0.021357  -0.005388,
	 -0.025024  -0.010006   0.000000,
	 -0.034022  -0.006625   0.000000,
	 -0.026669  -0.001270  -0.008145,
	  0.013399  -0.002533   0.019637,
	  0.006580  -0.003359   0.022504,
	 -0.002977  -0.001863   0.023599,
	 -0.011813  -0.000883   0.021070,
	 -0.018786   0.000356   0.021124,
	 -0.027888  -0.003914   0.024502,
	 -0.026230  -0.008910   0.018198,
	 -0.022782  -0.011434   0.026213,
	 -0.021241  -0.016899   0.011135,
	 -0.022106  -0.005428   0.033740,
	 -0.023769  -0.008862   0.030672,
	 -0.024867  -0.021357   0.005388,
	 -0.026669  -0.001270   0.008145,
	  0.017346   0.003397  -0.011782,
	  0.018267   0.003702   0.000000,
	  0.017346   0.003397   0.011782,
	  0.013273   0.003080  -0.019907,
	  0.005549   0.003084  -0.023593,
	 -0.004456   0.002298  -0.023745,
	 -0.018440   0.002481  -0.014915,
	 -0.024715   0.009348  -0.016931,
	 -0.024658   0.006205  -0.010630,
	  0.002814   0.003509   0.000000,
	 -0.013853   0.003763  -0.018112,
	 -0.024715   0.009348   0.016931,
	 -0.018440   0.002481   0.014915,
	 -0.024658   0.006205   0.010630,
	 -0.013853   0.003763   0.018112,
	 -0.024238   0.000999  -0.030109,
	 -0.022940   0.004579  -0.019473,
	 -0.029751  -0.016312  -0.016388,
	 -0.034679  -0.018000  -0.013384,
	 -0.033569  -0.002009  -0.022347,
	 -0.034182  -0.003459  -0.015006,
	 -0.031876  -0.005146  -0.013416,
	 -0.032778   0.007867  -0.020620,
	 -0.027333   0.002898  -0.022534,
	 -0.022581  -0.024044  -0.012693,
	 -0.034789  -0.022671  -0.018062,
	 -0.028240  -0.007426  -0.034038,
	 -0.026309  -0.004931  -0.037326,
	 -0.028868   0.000795  -0.034516,
	 -0.025381  -0.027271  -0.007075,
	 -0.028184  -0.020089   0.000000,
	 -0.035449  -0.010692  -0.005224,
	 -0.044582  -0.014469   0.000000,
	 -0.031262  -0.012027  -0.008771,
	 -0.030911  -0.007034  -0.011001,
	 -0.035449  -0.010692   0.005224,
	 -0.031262  -0.012027   0.008771,
	 -0.030911  -0.007034   0.011001,
	 -0.027821  -0.000637  -0.012003,
	  0.013273   0.003080   0.019907,
	  0.005549   0.003084   0.023593,
	 -0.004456   0.002298   0.023745,
	 -0.024238   0.000999   0.030109,
	 -0.022940   0.004579   0.019473,
	 -0.032778   0.007867   0.020620,
	 -0.033569  -0.002009   0.022347,
	 -0.027333   0.002898   0.022534,
	 -0.034679  -0.018000   0.013384,
	 -0.029751  -0.016312   0.016388,
	 -0.034182  -0.003459   0.015006,
	 -0.031876  -0.005146   0.013416,
	 -0.022581  -0.024044   0.012693,
	 -0.034789  -0.022671   0.018062,
	 -0.026309  -0.004931   0.037326,
	 -0.028240  -0.007426   0.034038,
	 -0.028868   0.000795   0.034516,
	 -0.025381  -0.027271   0.007075,
	 -0.027821  -0.000637   0.012003,
	 -0.039137   0.004405  -0.017281,
	 -0.032002   0.001571  -0.014735,
	 -0.039137   0.004405   0.017281,
	 -0.032002   0.001571   0.014735,
	 -0.038067  -0.026343  -0.010277,
	 -0.037529  -0.021171  -0.010861,
	 -0.035210  -0.030244  -0.017807,
	 -0.034371  -0.015626  -0.009358,
	 -0.037241   0.002657  -0.022856,
	 -0.039377   0.000073  -0.017753,
	 -0.027486  -0.036024  -0.014104,
	 -0.028445  -0.029809  -0.005620,
	 -0.031430  -0.025991   0.000000,
	 -0.028445  -0.029809   0.005620,
	 -0.039962  -0.015433  -0.004411,
	 -0.043620  -0.019665  -0.004293,
	 -0.054780  -0.017525   0.000000,
	 -0.039962  -0.015433   0.004411,
	 -0.043620  -0.019665   0.004293,
	 -0.034371  -0.015626   0.009358,
	 -0.037241   0.002657   0.022856,
	 -0.039377   0.000073   0.017753,
	 -0.037529  -0.021171   0.010861,
	 -0.038067  -0.026343   0.010277,
	 -0.035210  -0.030244   0.017807,
	 -0.027486  -0.036024   0.014104,
	 -0.044145  -0.024576  -0.004482,
	 -0.034072  -0.029611  -0.008077,
	 -0.039571  -0.027943  -0.005259,
	 -0.039770  -0.033586   0.000000,
	 -0.034072  -0.029611   0.008077,
	 -0.039571  -0.027943   0.005259,
	 -0.057319  -0.022766   0.000000,
	 -0.044145  -0.024576   0.004482,
	 -0.048260  -0.027925  -0.004884,
	 -0.044921  -0.030645  -0.004902,
	 -0.046617  -0.034909  -0.003805,
	 -0.048636  -0.035581   0.000000,
	 -0.046617  -0.034909   0.003805,
	 -0.044921  -0.030645   0.004902,
	 -0.055575  -0.028243  -0.004946,
	 -0.056633  -0.029844   0.000000,
	 -0.055575  -0.028243   0.004946,
	 -0.048260  -0.027925   0.004884,
	 -0.053900  -0.032338  -0.005763,
	 -0.052949  -0.034491   0.000000,
	 -0.053900  -0.032338   0.005763,
     ]    } 
    coordIndex [ 
	     0,      1,      2, -1 
	     0,      3,      1, -1 
	     0,      4,      3, -1 
	     0,      5,      6, -1 
	     6,      7,      0, -1 
	     0,      7,      8, -1 
	     8,      4,      0, -1 
	     2,      9,      0, -1 
	     9,     10,      0, -1 
	    10,     11,      0, -1 
	    12,      5,      0, -1 
	     0,     13,     12, -1 
	    14,     13,      0, -1 
	     0,     11,     14, -1 
	     2,      1,     15, -1 
	    15,      1,      3, -1 
	    16,      2,     15, -1 
	    17,      9,      2, -1 
	    17,      2,     16, -1 
	    18,     15,      3, -1 
	    18,      3,      4, -1 
	    19,     18,      4, -1 
	    19,      4,      8, -1 
	    20,      6,      5, -1 
	    21,     20,      5, -1 
	     5,     12,     22, -1 
	     5,     22,     21, -1 
	     6,     20,      7, -1 
	     7,     23,     24, -1 
	     8,      7,     24, -1 
	    25,     23,      7, -1 
	    20,     25,      7, -1 
	    24,     19,      8, -1 
	    10,      9,     17, -1 
	    10,     17,     26, -1 
	    11,     10,     26, -1 
	    11,     26,     27, -1 
	    14,     11,     27, -1 
	    13,     22,     12, -1 
	    28,     29,     13, -1 
	    28,     13,     14, -1 
	    13,     29,     30, -1 
	    13,     30,     22, -1 
	    14,     27,     28, -1 
	    15,     31,     32, -1 
	    16,     15,     32, -1 
	    31,     15,     18, -1 
	    32,     17,     16, -1 
	    32,     33,     17, -1 
	    26,     17,     33, -1 
	    34,     31,     18, -1 
	    34,     18,     19, -1 
	    35,     34,     19, -1 
	    35,     19,     24, -1 
	    20,     21,     36, -1 
	    25,     20,     36, -1 
	    37,     36,     21, -1 
	    21,     38,     37, -1 
	    38,     21,     22, -1 
	    38,     22,     30, -1 
	    23,     39,     40, -1 
	    24,     23,     40, -1 
	    41,     23,     25, -1 
	    41,     39,     23, -1 
	    40,     35,     24, -1 
	    41,     25,     36, -1 
	    26,     33,     42, -1 
	    27,     26,     42, -1 
	    27,     42,     43, -1 
	    28,     27,     43, -1 
	    28,     43,     44, -1 
	    44,     29,     28, -1 
	    44,     45,     29, -1 
	    30,     29,     46, -1 
	    29,     45,     46, -1 
	    38,     30,     46, -1 
	    31,     47,     48, -1 
	    32,     31,     48, -1 
	    47,     31,     34, -1 
	    48,     33,     32, -1 
	    48,     49,     33, -1 
	    42,     33,     49, -1 
	    50,     47,     34, -1 
	    50,     34,     35, -1 
	    51,     50,     35, -1 
	    51,     35,     40, -1 
	    52,     36,     37, -1 
	    52,     53,     36, -1 
	    53,     41,     36, -1 
	    54,     52,     37, -1 
	    37,     38,     55, -1 
	    37,     55,     54, -1 
	    38,     56,     55, -1 
	    38,     46,     56, -1 
	    39,     57,     58, -1 
	    40,     39,     58, -1 
	    59,     39,     60, -1 
	    39,     59,     61, -1 
	    57,     39,     61, -1 
	    41,     60,     39, -1 
	    58,     51,     40, -1 
	    41,     62,     60, -1 
	    62,     41,     53, -1 
	    42,     49,     63, -1 
	    43,     42,     63, -1 
	    43,     63,     64, -1 
	    44,     43,     64, -1 
	    44,     64,     65, -1 
	    65,     45,     44, -1 
	    65,     66,     45, -1 
	    67,     45,     68, -1 
	    69,     68,     45, -1 
	    69,     45,     66, -1 
	    45,     67,     46, -1 
	    67,     70,     46, -1 
	    56,     46,     70, -1 
	    47,     71,     72, -1 
	    48,     47,     72, -1 
	    71,     47,     50, -1 
	    72,     49,     48, -1 
	    72,     73,     49, -1 
	    63,     49,     73, -1 
	    74,     71,     50, -1 
	    74,     50,     51, -1 
	    75,     74,     51, -1 
	    75,     51,     58, -1 
	    76,     52,     54, -1 
	    77,     53,     52, -1 
	    76,     77,     52, -1 
	    53,     77,     62, -1 
	    78,     76,     54, -1 
	    54,     55,     79, -1 
	    54,     79,     78, -1 
	    55,     56,     80, -1 
	    55,     80,     79, -1 
	    70,     80,     56, -1 
	    57,     81,     82, -1 
	    58,     57,     82, -1 
	    57,     61,     83, -1 
	    81,     57,     83, -1 
	    82,     75,     58, -1 
	    61,     59,     60, -1 
	    60,     84,     85, -1 
	    86,     60,     85, -1 
	    86,     61,     60, -1 
	    87,     84,     60, -1 
	    62,     87,     60, -1 
	    88,     89,     61, -1 
	    86,     88,     61, -1 
	    61,     89,     83, -1 
	    90,     62,     91, -1 
	    92,     91,     62, -1 
	    93,     92,     62, -1 
	    62,     90,     87, -1 
	    77,     93,     62, -1 
	    63,     73,     94, -1 
	    64,     63,     94, -1 
	    64,     94,     95, -1 
	    65,     64,     95, -1 
	    65,     95,     96, -1 
	    96,     66,     65, -1 
	    96,     97,     66, -1 
	    98,     69,     66, -1 
	    98,     66,     97, -1 
	    99,    100,     67, -1 
	    99,     67,    101, -1 
	    67,     68,     69, -1 
	    67,     69,    101, -1 
	    67,    100,    102, -1 
	    67,    102,     70, -1 
	    69,    103,    104, -1 
	    69,    104,    101, -1 
	    98,    103,     69, -1 
	    91,     70,    105, -1 
	    70,     91,     92, -1 
	    70,     92,    106, -1 
	   102,    105,     70, -1 
	    70,    106,     80, -1 
	    71,    107,    108, -1 
	    72,     71,    108, -1 
	   107,     71,     74, -1 
	   108,     73,     72, -1 
	   108,    109,     73, -1 
	    94,     73,    109, -1 
	   110,    107,     74, -1 
	    74,     75,    111, -1 
	   110,     74,    111, -1 
	    75,     82,    112, -1 
	   111,     75,    112, -1 
	    76,    113,    114, -1 
	   114,    115,     76, -1 
	   115,     93,     76, -1 
	    77,     76,     93, -1 
	   116,     76,     78, -1 
	   116,    117,     76, -1 
	    76,    117,    113, -1 
	    78,     79,    116, -1 
	   118,    119,     79, -1 
	    79,    120,    118, -1 
	    79,    106,    120, -1 
	   106,     79,     80, -1 
	    79,    121,    116, -1 
	   119,    121,     79, -1 
	    82,     81,    112, -1 
	    81,     83,    117, -1 
	    81,    117,    112, -1 
	    83,    113,    117, -1 
	    89,    122,     83, -1 
	   123,     83,    122, -1 
	   113,     83,    123, -1 
	    84,    124,    125, -1 
	    85,     84,    126, -1 
	    84,    127,    126, -1 
	    87,    124,     84, -1 
	   125,    128,     84, -1 
	   128,    127,     84, -1 
	    85,    126,    129, -1 
	   122,     86,     85, -1 
	   122,     85,    130, -1 
	   130,     85,    129, -1 
	   122,     88,     86, -1 
	   131,     87,     90, -1 
	    87,    131,    132, -1 
	   124,     87,    132, -1 
	    88,    133,    134, -1 
	    89,     88,    134, -1 
	    88,    135,    133, -1 
	   122,    135,     88, -1 
	    89,    134,    122, -1 
	   136,     90,    137, -1 
	   137,     90,     91, -1 
	   136,    131,     90, -1 
	    91,    105,    137, -1 
	    92,    138,    139, -1 
	   140,    138,     92, -1 
	   141,    140,     92, -1 
	    92,     93,    141, -1 
	   139,    142,     92, -1 
	    92,    142,    143, -1 
	    92,    143,    144, -1 
	   144,    106,     92, -1 
	    93,    145,    141, -1 
	   115,    145,     93, -1 
	    94,    109,    146, -1 
	   147,     95,     94, -1 
	   147,     94,    146, -1 
	   148,     96,     95, -1 
	   148,     95,    147, -1 
	   148,     97,     96, -1 
	   121,     98,     97, -1 
	   148,    121,     97, -1 
	   121,    119,     98, -1 
	    98,    149,    103, -1 
	   149,     98,    150, -1 
	   150,     98,    119, -1 
	   151,    152,     99, -1 
	   152,    100,     99, -1 
	    99,    101,    149, -1 
	   153,     99,    149, -1 
	   151,     99,    153, -1 
	   154,    155,    100, -1 
	   152,    156,    100, -1 
	   100,    155,    102, -1 
	   100,    157,    154, -1 
	   100,    156,    157, -1 
	   101,    104,    149, -1 
	   105,    102,    158, -1 
	   159,    158,    102, -1 
	   159,    102,    155, -1 
	   149,    160,    103, -1 
	   160,    104,    103, -1 
	   160,    161,    104, -1 
	   161,    162,    104, -1 
	   104,    162,    149, -1 
	   137,    105,    163, -1 
	   105,    158,    163, -1 
	   144,    164,    106, -1 
	   106,    164,    120, -1 
	   116,    107,    110, -1 
	   116,    108,    107, -1 
	   109,    108,    116, -1 
	   146,    109,    116, -1 
	   116,    110,    111, -1 
	   116,    111,    112, -1 
	   116,    112,    117, -1 
	   123,    114,    113, -1 
	   114,    123,    129, -1 
	   114,    129,    165, -1 
	   166,    114,    165, -1 
	   166,    145,    114, -1 
	   115,    114,    145, -1 
	   147,    146,    116, -1 
	   148,    147,    116, -1 
	   121,    148,    116, -1 
	   119,    118,    150, -1 
	   151,    150,    118, -1 
	   167,    151,    118, -1 
	   167,    118,    168, -1 
	   118,    164,    168, -1 
	   164,    118,    120, -1 
	   134,    135,    122, -1 
	   130,    123,    122, -1 
	   123,    130,    129, -1 
	   125,    124,    132, -1 
	   169,    170,    125, -1 
	   171,    169,    125, -1 
	   132,    171,    125, -1 
	   172,    125,    170, -1 
	   125,    172,    128, -1 
	   126,    173,    129, -1 
	   174,    173,    126, -1 
	   174,    126,    127, -1 
	   165,    174,    127, -1 
	   166,    165,    127, -1 
	   127,    128,    145, -1 
	   166,    127,    145, -1 
	   145,    128,    141, -1 
	   140,    128,    172, -1 
	   141,    128,    140, -1 
	   165,    129,    173, -1 
	   131,    175,    132, -1 
	   136,    175,    131, -1 
	   175,    171,    132, -1 
	   133,    135,    134, -1 
	   176,    136,    137, -1 
	   176,    175,    136, -1 
	   177,    176,    137, -1 
	   137,    163,    178, -1 
	   137,    178,    177, -1 
	   139,    138,    179, -1 
	   138,    140,    179, -1 
	   180,    181,    139, -1 
	   179,    180,    139, -1 
	   182,    142,    139, -1 
	   139,    181,    183, -1 
	   139,    183,    182, -1 
	   140,    172,    179, -1 
	   182,    143,    142, -1 
	   182,    184,    143, -1 
	   184,    157,    143, -1 
	   143,    157,    144, -1 
	   144,    157,    164, -1 
	   149,    162,    160, -1 
	   149,    150,    153, -1 
	   151,    153,    150, -1 
	   151,    185,    152, -1 
	   185,    151,    167, -1 
	   152,    185,    186, -1 
	   156,    152,    186, -1 
	   159,    155,    154, -1 
	   154,    187,    188, -1 
	   154,    188,    189, -1 
	   154,    189,    159, -1 
	   187,    154,    184, -1 
	   157,    184,    154, -1 
	   156,    186,    167, -1 
	   156,    167,    168, -1 
	   164,    157,    156, -1 
	   164,    156,    168, -1 
	   159,    190,    158, -1 
	   158,    190,    163, -1 
	   159,    189,    190, -1 
	   160,    162,    161, -1 
	   163,    190,    178, -1 
	   174,    165,    173, -1 
	   185,    167,    186, -1 
	   170,    169,    191, -1 
	   169,    192,    193, -1 
	   191,    169,    193, -1 
	   169,    171,    192, -1 
	   172,    170,    180, -1 
	   180,    170,    191, -1 
	   171,    175,    192, -1 
	   179,    172,    180, -1 
	   192,    175,    176, -1 
	   193,    192,    176, -1 
	   194,    193,    176, -1 
	   194,    176,    177, -1 
	   177,    178,    194, -1 
	   178,    190,    195, -1 
	   178,    195,    196, -1 
	   178,    196,    194, -1 
	   180,    191,    181, -1 
	   191,    197,    181, -1 
	   181,    197,    198, -1 
	   181,    198,    183, -1 
	   183,    184,    182, -1 
	   183,    187,    184, -1 
	   198,    187,    183, -1 
	   198,    188,    187, -1 
	   196,    195,    188, -1 
	   196,    188,    198, -1 
	   195,    189,    188, -1 
	   195,    190,    189, -1 
	   191,    199,    197, -1 
	   191,    193,    200, -1 
	   199,    191,    200, -1 
	   193,    194,    201, -1 
	   200,    193,    201, -1 
	   202,    201,    194, -1 
	   194,    203,    202, -1 
	   203,    194,    196, -1 
	   204,    196,    198, -1 
	   203,    196,    204, -1 
	   199,    205,    197, -1 
	   197,    205,    206, -1 
	   197,    207,    208, -1 
	   197,    208,    198, -1 
	   206,    207,    197, -1 
	   204,    198,    208, -1 
	   199,    200,    201, -1 
	   209,    199,    201, -1 
	   199,    209,    205, -1 
	   209,    201,    202, -1 
	   210,    209,    202, -1 
	   202,    203,    211, -1 
	   202,    211,    210, -1 
	   203,    204,    208, -1 
	   203,    208,    211, -1 
	   205,    209,    210, -1 
	   206,    205,    210, -1 
	   210,    207,    206, -1 
	   210,    211,    207, -1 
	   207,    211,    208, -1 
    ] 
   colorPerVertex FALSE 
    colorIndex [ 
	  1, 
	  1, 
	  1, 
	  1, 
	  1, 
	  1, 
	  1, 
	  1, 
	  1, 
	  1, 
	  1, 
	  1, 
	  1, 
	  1, 
	  1, 
	  1, 
	  1, 
	  1, 
	  1, 
	  1, 
	  1, 
	  1, 
	  1, 
	  1, 
	  1, 
	  1, 
	  1, 
	  1, 
	  1, 
	  1, 
	  1, 
	  1, 
	  1, 
	  1, 
	  1, 
	  1, 
	  1, 
	  1, 
	  1, 
	  1, 
	  1, 
	  1, 
	  1, 
	  1, 
	  1, 
	  1, 
	  1, 
	  1, 
	  1, 
	  1, 
	  1, 
	  1, 
	  1, 
	  1, 
	  1, 
	  1, 
	  1, 
	  1, 
	  1, 
	  1, 
	  1, 
	  1, 
	  1, 
	  1, 
	  1, 
	  1, 
	  1, 
	  1, 
	  1, 
	  1, 
	  1, 
	  1, 
	  1, 
	  1, 
	  1, 
	  1, 
	  1, 
	  1, 
	  1, 
	  1, 
	  1, 
	  1, 
	  1, 
	  1, 
	  1, 
	  1, 
	  1, 
	  1, 
	  1, 
	  1, 
	  1, 
	  1, 
	  1, 
	  1, 
	  1, 
	  1, 
	  1, 
	  1, 
	  1, 
	  1, 
	  1, 
	  1, 
	  1, 
	  1, 
	  1, 
	  1, 
	  1, 
	  1, 
	  1, 
	  1, 
	  1, 
	  1, 
	  1, 
	  1, 
	  1, 
	  1, 
	  1, 
	  1, 
	  1, 
	  1, 
	  1, 
	  1, 
	  1, 
	  1, 
	  1, 
	  1, 
	  1, 
	  1, 
	  1, 
	  1, 
	  1, 
	  1, 
	  1, 
	  1, 
	  1, 
	  1, 
	  1, 
	  1, 
	  1, 
	  1, 
	  1, 
	  1, 
	  1, 
	  1, 
	  1, 
	  1, 
	  1, 
	  1, 
	  1, 
	  1, 
	  1, 
	  1, 
	  1, 
	  1, 
	  1, 
	  1, 
	  1, 
	  1, 
	  1, 
	  1, 
	  1, 
	  1, 
	  1, 
	  1, 
	  1, 
	  1, 
	  1, 
	  1, 
	  1, 
	  1, 
	  1, 
	  1, 
	  1, 
	  1, 
	  1, 
	  1, 
	  1, 
	  1, 
	  1, 
	  1, 
	  1, 
	  1, 
	  1, 
	  1, 
	  1, 
	  1, 
	  1, 
	  1, 
	  1, 
	  1, 
	  1, 
	  1, 
	  1, 
	  1, 
	  1, 
	  1, 
	  1, 
	  1, 
	  1, 
	  1, 
	  1, 
	  1, 
	  1, 
	  1, 
	  1, 
	  1, 
	  1, 
	  1, 
	  1, 
	  1, 
	  1, 
	  1, 
    ] 
normal Normal { 
vector [ 
	 -0.056348  -0.998411   0.000000,
	  0.368894  -0.905710  -0.208822,
	  0.648433  -0.761272   0.000000,
	  0.552321  -0.612731  -0.565246,
	  0.281054  -0.352190  -0.892732,
	 -0.933967  -0.357359   0.000000,
	 -0.770240  -0.637522   0.017194,
	 -0.915553  -0.287867  -0.280882,
	 -0.290013  -0.276359  -0.916252,
	  0.368894  -0.905710   0.208822,
	  0.552321  -0.612731   0.565246,
	  0.281054  -0.352190   0.892732,
	 -0.770240  -0.637522  -0.017194,
	 -0.915554  -0.287863   0.280884,
	 -0.290013  -0.276359   0.916252,
	  0.963664  -0.051477  -0.262110,
	  0.992327  -0.123641   0.000000,
	  0.963664  -0.051477   0.262110,
	  0.598247   0.328313  -0.730966,
	  0.230014   0.315247  -0.920713,
	 -0.997046   0.029321   0.070987,
	 -0.997442   0.071475   0.000000,
	 -0.997046   0.029321  -0.070987,
	 -0.817157  -0.067491  -0.572451,
	 -0.338893   0.320130  -0.884686,
	 -0.991647  -0.049696   0.119026,
	  0.598247   0.328313   0.730966,
	  0.230014   0.315247   0.920713,
	 -0.338894   0.320132   0.884684,
	 -0.817156  -0.067486   0.572452,
	 -0.991648  -0.049688  -0.119017,
	  0.902403   0.172755  -0.394747,
	  0.975878   0.218316   0.000000,
	  0.902403   0.172755   0.394747,
	  0.603301   0.125531  -0.787572,
	  0.206279   0.119055  -0.971223,
	 -0.959410  -0.091010   0.266927,
	 -0.991079  -0.133275   0.000002,
	 -0.959411  -0.091007  -0.266924,
	 -0.139934  -0.587442  -0.797076,
	 -0.100492  -0.061710  -0.993022,
	 -0.721962  -0.515990   0.461004,
	  0.603301   0.125531   0.787572,
	  0.206279   0.119055   0.971223,
	 -0.100491  -0.061709   0.993022,
	 -0.139932  -0.587444   0.797075,
	 -0.721970  -0.515989  -0.460994,
	  0.913558  -0.133008  -0.384344,
	  0.998162  -0.060594   0.000000,
	  0.913558  -0.133008   0.384344,
	  0.559445  -0.231047  -0.796014,
	  0.215195  -0.265220  -0.939867,
	 -0.958102  -0.091189   0.271524,
	 -0.398292  -0.009838   0.917206,
	 -0.998072  -0.062075   0.000005,
	 -0.958101  -0.091189  -0.271527,
	 -0.398289  -0.009836  -0.917207,
	  0.138972  -0.021462  -0.990064,
	  0.009220  -0.276620  -0.960935,
	 -0.138246  -0.753158  -0.643150,
	 -0.027796  -0.965171  -0.260141,
	  0.532971  -0.440059  -0.722697,
	  0.710543   0.176616   0.681128,
	  0.559445  -0.231047   0.796014,
	  0.215195  -0.265220   0.939867,
	  0.009221  -0.276621   0.960935,
	  0.138973  -0.021461   0.990063,
	 -0.027797  -0.965171   0.260141,
	 -0.138245  -0.753156   0.643151,
	  0.532968  -0.440058   0.722699,
	  0.710542   0.176617  -0.681128,
	  0.938628  -0.037474  -0.342889,
	  0.999288  -0.037719   0.000000,
	  0.938628  -0.037474   0.342889,
	  0.606107  -0.193813  -0.771408,
	  0.179264  -0.296297  -0.938122,
	 -0.428085   0.810492   0.399806,
	 -0.198152  -0.019080   0.979986,
	 -0.681299   0.732005   0.000000,
	 -0.428087   0.810491  -0.399807,
	 -0.198146  -0.019083  -0.979987,
	 -0.181025   0.211328  -0.960505,
	 -0.082918  -0.177759  -0.980575,
	  0.428269   0.663950  -0.612990,
	 -0.489930  -0.612603  -0.620231,
	 -0.662404  -0.312338  -0.680930,
	 -0.427948  -0.782475  -0.452320,
	  0.840972  -0.334894  -0.424985,
	 -0.166820  -0.979782  -0.110442,
	  0.790326   0.016629  -0.612460,
	  0.897232  -0.169965   0.407537,
	  0.963756   0.266786   0.000000,
	 -0.437750   0.899097   0.000000,
	 -0.378561   0.487685   0.786674,
	  0.606107  -0.193813   0.771408,
	  0.179264  -0.296297   0.938122,
	 -0.082918  -0.177759   0.980575,
	 -0.181025   0.211328   0.960505,
	  0.428267   0.663951   0.612989,
	 -0.662404  -0.312338   0.680930,
	 -0.489930  -0.612603   0.620231,
	 -0.427951  -0.782475   0.452318,
	  0.840972  -0.334894   0.424985,
	  0.790324   0.016632   0.612464,
	 -0.166824  -0.979781   0.110444,
	  0.897232  -0.169965  -0.407537,
	 -0.378561   0.487685  -0.786674,
	  0.675603   0.671658  -0.304034,
	  0.757366   0.652991   0.000000,
	  0.675603   0.671658   0.304034,
	  0.479174   0.715137  -0.508892,
	  0.229880   0.501022  -0.834346,
	 -0.127814   0.460662  -0.878325,
	  0.312485   0.866258  -0.389807,
	  0.033342   0.978231   0.204823,
	 -0.551492   0.599245   0.580313,
	  0.007170   0.999974   0.000000,
	 -0.181869   0.891923  -0.414001,
	  0.033342   0.978231  -0.204823,
	  0.312485   0.866258   0.389807,
	 -0.551492   0.599245  -0.580313,
	 -0.181869   0.891923   0.414001,
	 -0.215403   0.756877  -0.617041,
	  0.427651   0.732908  -0.529113,
	 -0.040058   0.015927  -0.999070,
	 -0.823302   0.239078  -0.514796,
	 -0.450757  -0.551670  -0.701768,
	 -0.674576  -0.415630   0.610081,
	 -0.920568   0.159454   0.356552,
	 -0.073681   0.594481  -0.800727,
	 -0.256203   0.620631  -0.741065,
	  0.949908  -0.204329  -0.236482,
	  0.037759   0.113890  -0.992776,
	 -0.797632  -0.573309  -0.187351,
	  0.282812  -0.176308  -0.942832,
	 -0.948106   0.234861   0.214323,
	  0.809767  -0.358745   0.464305,
	  0.919656  -0.392724   0.000000,
	 -0.484160   0.603814  -0.633244,
	 -0.640455   0.767996   0.000000,
	 -0.814448   0.536052  -0.222089,
	 -0.891988   0.396308   0.217479,
	 -0.484160   0.603814   0.633244,
	 -0.814448   0.536052   0.222089,
	 -0.891988   0.396308  -0.217479,
	 -0.697070   0.370676   0.613753,
	  0.479174   0.715137   0.508892,
	  0.229880   0.501022   0.834346,
	 -0.127814   0.460662   0.878325,
	 -0.215403   0.756877   0.617041,
	  0.427651   0.732908   0.529113,
	 -0.073681   0.594481   0.800727,
	 -0.450757  -0.551670   0.701768,
	 -0.256203   0.620631   0.741065,
	 -0.823305   0.239079   0.514791,
	 -0.040058   0.015927   0.999070,
	 -0.674576  -0.415630  -0.610081,
	 -0.920568   0.159454  -0.356552,
	  0.949908  -0.204329   0.236482,
	  0.037759   0.113890   0.992776,
	  0.282812  -0.176308   0.942832,
	 -0.797632  -0.573309   0.187351,
	 -0.948106   0.234861  -0.214323,
	  0.809767  -0.358745  -0.464305,
	 -0.697070   0.370676  -0.613753,
	 -0.672859   0.500224   0.545011,
	 -0.312795   0.291564   0.903963,
	 -0.672859   0.500224  -0.545011,
	 -0.312795   0.291564  -0.903963,
	 -0.764068  -0.404386  -0.502666,
	 -0.726208   0.233457  -0.646622,
	 -0.849694  -0.397929  -0.345938,
	 -0.794471   0.525871  -0.303769,
	 -0.630319   0.123586  -0.766436,
	 -0.874370  -0.478410  -0.081249,
	  0.486528  -0.860464  -0.151304,
	  0.367624  -0.803898   0.467548,
	  0.787043  -0.616898   0.000000,
	  0.367624  -0.803898  -0.467548,
	 -0.556097   0.462743  -0.690381,
	 -0.513544   0.387333  -0.765667,
	 -0.708563   0.705647   0.000000,
	 -0.556097   0.462743   0.690381,
	 -0.513543   0.387331   0.765668,
	 -0.794473   0.525868   0.303769,
	 -0.630319   0.123586   0.766436,
	 -0.874370  -0.478410   0.081249,
	 -0.726212   0.233458   0.646617,
	 -0.764073  -0.404380   0.502663,
	 -0.849694  -0.397929   0.345938,
	  0.486528  -0.860464   0.151304,
	 -0.409797   0.022081  -0.911909,
	 -0.466432  -0.872415   0.146056,
	 -0.157800  -0.707556  -0.688813,
	  0.353553  -0.935414   0.000000,
	 -0.466432  -0.872415  -0.146056,
	 -0.157800  -0.707556   0.688813,
	 -0.806784   0.590847   0.000000,
	 -0.409796   0.022083   0.911910,
	 -0.026844   0.185489  -0.982280,
	 -0.036375  -0.080912  -0.996057,
	  0.118171  -0.615436  -0.779278,
	 -0.092100  -0.995750   0.000000,
	  0.118171  -0.615436   0.779278,
	 -0.036375  -0.080912   0.996057,
	 -0.754139  -0.055617  -0.654356,
	 -0.929307  -0.369307   0.000000,
	 -0.754139  -0.055617   0.654356,
	 -0.026844   0.185489   0.982280,
	 -0.335115  -0.604969  -0.722296,
	 -0.708413  -0.705798   0.000000,
	 -0.335115  -0.604969   0.722296,
     ]    } 
normalIndex      [ 
	     0,      1,      2, -1 
	     0,      3,      1, -1 
	     0,      4,      3, -1 
	     0,      5,      6, -1 
	     6,      7,      0, -1 
	     0,      7,      8, -1 
	     8,      4,      0, -1 
	     2,      9,      0, -1 
	     9,     10,      0, -1 
	    10,     11,      0, -1 
	    12,      5,      0, -1 
	     0,     13,     12, -1 
	    14,     13,      0, -1 
	     0,     11,     14, -1 
	     2,      1,     15, -1 
	    15,      1,      3, -1 
	    16,      2,     15, -1 
	    17,      9,      2, -1 
	    17,      2,     16, -1 
	    18,     15,      3, -1 
	    18,      3,      4, -1 
	    19,     18,      4, -1 
	    19,      4,      8, -1 
	    20,      6,      5, -1 
	    21,     20,      5, -1 
	     5,     12,     22, -1 
	     5,     22,     21, -1 
	     6,     20,      7, -1 
	     7,     23,     24, -1 
	     8,      7,     24, -1 
	    25,     23,      7, -1 
	    20,     25,      7, -1 
	    24,     19,      8, -1 
	    10,      9,     17, -1 
	    10,     17,     26, -1 
	    11,     10,     26, -1 
	    11,     26,     27, -1 
	    14,     11,     27, -1 
	    13,     22,     12, -1 
	    28,     29,     13, -1 
	    28,     13,     14, -1 
	    13,     29,     30, -1 
	    13,     30,     22, -1 
	    14,     27,     28, -1 
	    15,     31,     32, -1 
	    16,     15,     32, -1 
	    31,     15,     18, -1 
	    32,     17,     16, -1 
	    32,     33,     17, -1 
	    26,     17,     33, -1 
	    34,     31,     18, -1 
	    34,     18,     19, -1 
	    35,     34,     19, -1 
	    35,     19,     24, -1 
	    20,     21,     36, -1 
	    25,     20,     36, -1 
	    37,     36,     21, -1 
	    21,     38,     37, -1 
	    38,     21,     22, -1 
	    38,     22,     30, -1 
	    23,     39,     40, -1 
	    24,     23,     40, -1 
	    41,     23,     25, -1 
	    41,     39,     23, -1 
	    40,     35,     24, -1 
	    41,     25,     36, -1 
	    26,     33,     42, -1 
	    27,     26,     42, -1 
	    27,     42,     43, -1 
	    28,     27,     43, -1 
	    28,     43,     44, -1 
	    44,     29,     28, -1 
	    44,     45,     29, -1 
	    30,     29,     46, -1 
	    29,     45,     46, -1 
	    38,     30,     46, -1 
	    31,     47,     48, -1 
	    32,     31,     48, -1 
	    47,     31,     34, -1 
	    48,     33,     32, -1 
	    48,     49,     33, -1 
	    42,     33,     49, -1 
	    50,     47,     34, -1 
	    50,     34,     35, -1 
	    51,     50,     35, -1 
	    51,     35,     40, -1 
	    52,     36,     37, -1 
	    52,     53,     36, -1 
	    53,     41,     36, -1 
	    54,     52,     37, -1 
	    37,     38,     55, -1 
	    37,     55,     54, -1 
	    38,     56,     55, -1 
	    38,     46,     56, -1 
	    39,     57,     58, -1 
	    40,     39,     58, -1 
	    59,     39,     60, -1 
	    39,     59,     61, -1 
	    57,     39,     61, -1 
	    41,     60,     39, -1 
	    58,     51,     40, -1 
	    41,     62,     60, -1 
	    62,     41,     53, -1 
	    42,     49,     63, -1 
	    43,     42,     63, -1 
	    43,     63,     64, -1 
	    44,     43,     64, -1 
	    44,     64,     65, -1 
	    65,     45,     44, -1 
	    65,     66,     45, -1 
	    67,     45,     68, -1 
	    69,     68,     45, -1 
	    69,     45,     66, -1 
	    45,     67,     46, -1 
	    67,     70,     46, -1 
	    56,     46,     70, -1 
	    47,     71,     72, -1 
	    48,     47,     72, -1 
	    71,     47,     50, -1 
	    72,     49,     48, -1 
	    72,     73,     49, -1 
	    63,     49,     73, -1 
	    74,     71,     50, -1 
	    74,     50,     51, -1 
	    75,     74,     51, -1 
	    75,     51,     58, -1 
	    76,     52,     54, -1 
	    77,     53,     52, -1 
	    76,     77,     52, -1 
	    53,     77,     62, -1 
	    78,     76,     54, -1 
	    54,     55,     79, -1 
	    54,     79,     78, -1 
	    55,     56,     80, -1 
	    55,     80,     79, -1 
	    70,     80,     56, -1 
	    57,     81,     82, -1 
	    58,     57,     82, -1 
	    57,     61,     83, -1 
	    81,     57,     83, -1 
	    82,     75,     58, -1 
	    61,     59,     60, -1 
	    60,     84,     85, -1 
	    86,     60,     85, -1 
	    86,     61,     60, -1 
	    87,     84,     60, -1 
	    62,     87,     60, -1 
	    88,     89,     61, -1 
	    86,     88,     61, -1 
	    61,     89,     83, -1 
	    90,     62,     91, -1 
	    92,     91,     62, -1 
	    93,     92,     62, -1 
	    62,     90,     87, -1 
	    77,     93,     62, -1 
	    63,     73,     94, -1 
	    64,     63,     94, -1 
	    64,     94,     95, -1 
	    65,     64,     95, -1 
	    65,     95,     96, -1 
	    96,     66,     65, -1 
	    96,     97,     66, -1 
	    98,     69,     66, -1 
	    98,     66,     97, -1 
	    99,    100,     67, -1 
	    99,     67,    101, -1 
	    67,     68,     69, -1 
	    67,     69,    101, -1 
	    67,    100,    102, -1 
	    67,    102,     70, -1 
	    69,    103,    104, -1 
	    69,    104,    101, -1 
	    98,    103,     69, -1 
	    91,     70,    105, -1 
	    70,     91,     92, -1 
	    70,     92,    106, -1 
	   102,    105,     70, -1 
	    70,    106,     80, -1 
	    71,    107,    108, -1 
	    72,     71,    108, -1 
	   107,     71,     74, -1 
	   108,     73,     72, -1 
	   108,    109,     73, -1 
	    94,     73,    109, -1 
	   110,    107,     74, -1 
	    74,     75,    111, -1 
	   110,     74,    111, -1 
	    75,     82,    112, -1 
	   111,     75,    112, -1 
	    76,    113,    114, -1 
	   114,    115,     76, -1 
	   115,     93,     76, -1 
	    77,     76,     93, -1 
	   116,     76,     78, -1 
	   116,    117,     76, -1 
	    76,    117,    113, -1 
	    78,     79,    116, -1 
	   118,    119,     79, -1 
	    79,    120,    118, -1 
	    79,    106,    120, -1 
	   106,     79,     80, -1 
	    79,    121,    116, -1 
	   119,    121,     79, -1 
	    82,     81,    112, -1 
	    81,     83,    117, -1 
	    81,    117,    112, -1 
	    83,    113,    117, -1 
	    89,    122,     83, -1 
	   123,     83,    122, -1 
	   113,     83,    123, -1 
	    84,    124,    125, -1 
	    85,     84,    126, -1 
	    84,    127,    126, -1 
	    87,    124,     84, -1 
	   125,    128,     84, -1 
	   128,    127,     84, -1 
	    85,    126,    129, -1 
	   122,     86,     85, -1 
	   122,     85,    130, -1 
	   130,     85,    129, -1 
	   122,     88,     86, -1 
	   131,     87,     90, -1 
	    87,    131,    132, -1 
	   124,     87,    132, -1 
	    88,    133,    134, -1 
	    89,     88,    134, -1 
	    88,    135,    133, -1 
	   122,    135,     88, -1 
	    89,    134,    122, -1 
	   136,     90,    137, -1 
	   137,     90,     91, -1 
	   136,    131,     90, -1 
	    91,    105,    137, -1 
	    92,    138,    139, -1 
	   140,    138,     92, -1 
	   141,    140,     92, -1 
	    92,     93,    141, -1 
	   139,    142,     92, -1 
	    92,    142,    143, -1 
	    92,    143,    144, -1 
	   144,    106,     92, -1 
	    93,    145,    141, -1 
	   115,    145,     93, -1 
	    94,    109,    146, -1 
	   147,     95,     94, -1 
	   147,     94,    146, -1 
	   148,     96,     95, -1 
	   148,     95,    147, -1 
	   148,     97,     96, -1 
	   121,     98,     97, -1 
	   148,    121,     97, -1 
	   121,    119,     98, -1 
	    98,    149,    103, -1 
	   149,     98,    150, -1 
	   150,     98,    119, -1 
	   151,    152,     99, -1 
	   152,    100,     99, -1 
	    99,    101,    149, -1 
	   153,     99,    149, -1 
	   151,     99,    153, -1 
	   154,    155,    100, -1 
	   152,    156,    100, -1 
	   100,    155,    102, -1 
	   100,    157,    154, -1 
	   100,    156,    157, -1 
	   101,    104,    149, -1 
	   105,    102,    158, -1 
	   159,    158,    102, -1 
	   159,    102,    155, -1 
	   149,    160,    103, -1 
	   160,    104,    103, -1 
	   160,    161,    104, -1 
	   161,    162,    104, -1 
	   104,    162,    149, -1 
	   137,    105,    163, -1 
	   105,    158,    163, -1 
	   144,    164,    106, -1 
	   106,    164,    120, -1 
	   116,    107,    110, -1 
	   116,    108,    107, -1 
	   109,    108,    116, -1 
	   146,    109,    116, -1 
	   116,    110,    111, -1 
	   116,    111,    112, -1 
	   116,    112,    117, -1 
	   123,    114,    113, -1 
	   114,    123,    129, -1 
	   114,    129,    165, -1 
	   166,    114,    165, -1 
	   166,    145,    114, -1 
	   115,    114,    145, -1 
	   147,    146,    116, -1 
	   148,    147,    116, -1 
	   121,    148,    116, -1 
	   119,    118,    150, -1 
	   151,    150,    118, -1 
	   167,    151,    118, -1 
	   167,    118,    168, -1 
	   118,    164,    168, -1 
	   164,    118,    120, -1 
	   134,    135,    122, -1 
	   130,    123,    122, -1 
	   123,    130,    129, -1 
	   125,    124,    132, -1 
	   169,    170,    125, -1 
	   171,    169,    125, -1 
	   132,    171,    125, -1 
	   172,    125,    170, -1 
	   125,    172,    128, -1 
	   126,    173,    129, -1 
	   174,    173,    126, -1 
	   174,    126,    127, -1 
	   165,    174,    127, -1 
	   166,    165,    127, -1 
	   127,    128,    145, -1 
	   166,    127,    145, -1 
	   145,    128,    141, -1 
	   140,    128,    172, -1 
	   141,    128,    140, -1 
	   165,    129,    173, -1 
	   131,    175,    132, -1 
	   136,    175,    131, -1 
	   175,    171,    132, -1 
	   133,    135,    134, -1 
	   176,    136,    137, -1 
	   176,    175,    136, -1 
	   177,    176,    137, -1 
	   137,    163,    178, -1 
	   137,    178,    177, -1 
	   139,    138,    179, -1 
	   138,    140,    179, -1 
	   180,    181,    139, -1 
	   179,    180,    139, -1 
	   182,    142,    139, -1 
	   139,    181,    183, -1 
	   139,    183,    182, -1 
	   140,    172,    179, -1 
	   182,    143,    142, -1 
	   182,    184,    143, -1 
	   184,    157,    143, -1 
	   143,    157,    144, -1 
	   144,    157,    164, -1 
	   149,    162,    160, -1 
	   149,    150,    153, -1 
	   151,    153,    150, -1 
	   151,    185,    152, -1 
	   185,    151,    167, -1 
	   152,    185,    186, -1 
	   156,    152,    186, -1 
	   159,    155,    154, -1 
	   154,    187,    188, -1 
	   154,    188,    189, -1 
	   154,    189,    159, -1 
	   187,    154,    184, -1 
	   157,    184,    154, -1 
	   156,    186,    167, -1 
	   156,    167,    168, -1 
	   164,    157,    156, -1 
	   164,    156,    168, -1 
	   159,    190,    158, -1 
	   158,    190,    163, -1 
	   159,    189,    190, -1 
	   160,    162,    161, -1 
	   163,    190,    178, -1 
	   174,    165,    173, -1 
	   185,    167,    186, -1 
	   170,    169,    191, -1 
	   169,    192,    193, -1 
	   191,    169,    193, -1 
	   169,    171,    192, -1 
	   172,    170,    180, -1 
	   180,    170,    191, -1 
	   171,    175,    192, -1 
	   179,    172,    180, -1 
	   192,    175,    176, -1 
	   193,    192,    176, -1 
	   194,    193,    176, -1 
	   194,    176,    177, -1 
	   177,    178,    194, -1 
	   178,    190,    195, -1 
	   178,    195,    196, -1 
	   178,    196,    194, -1 
	   180,    191,    181, -1 
	   191,    197,    181, -1 
	   181,    197,    198, -1 
	   181,    198,    183, -1 
	   183,    184,    182, -1 
	   183,    187,    184, -1 
	   198,    187,    183, -1 
	   198,    188,    187, -1 
	   196,    195,    188, -1 
	   196,    188,    198, -1 
	   195,    189,    188, -1 
	   195,    190,    189, -1 
	   191,    199,    197, -1 
	   191,    193,    200, -1 
	   199,    191,    200, -1 
	   193,    194,    201, -1 
	   200,    193,    201, -1 
	   202,    201,    194, -1 
	   194,    203,    202, -1 
	   203,    194,    196, -1 
	   204,    196,    198, -1 
	   203,    196,    204, -1 
	   199,    205,    197, -1 
	   197,    205,    206, -1 
	   197,    207,    208, -1 
	   197,    208,    198, -1 
	   206,    207,    197, -1 
	   204,    198,    208, -1 
	   199,    200,    201, -1 
	   209,    199,    201, -1 
	   199,    209,    205, -1 
	   209,    201,    202, -1 
	   210,    209,    202, -1 
	   202,    203,    211, -1 
	   202,    211,    210, -1 
	   203,    204,    208, -1 
	   203,    208,    211, -1 
	   205,    209,    210, -1 
	   206,    205,    210, -1 
	   210,    207,    206, -1 
	   210,    211,    207, -1 
	   207,    211,    208, -1 
    ] 
normalPerVertex  TRUE 
   } 
  } 
 ] 
} 
