# 
# Wavefront OBJ file
# Converted by the DEEP Exploration 2.00.1211
# Right Hemisphere, LTD
# http://www.righthemisphere.com/
# 
mtllib lumbar2b.mtl
# object Object #0
g Object__0
v 0.012962 -0.022757 0
v 0.025985 -0.015691 -0.008983
v 0.02503 -0.020084 0
v 0.021359 -0.017316 -0.018384
v 0.014232 -0.020734 -0.022961
v -0.003867 -0.027476 0
v -0.003646 -0.027788 -0.005395
v -0.004116 -0.027588 -0.015981
v 0.000488 -0.024354 -0.023095
v 0.025985 -0.015691 0.008983
v 0.021359 -0.017316 0.018384
v 0.014232 -0.020734 0.022961
v -0.003646 -0.027788 0.005395
v -0.004116 -0.027588 0.015981
v 0.000488 -0.024354 0.023095
v 0.026239 -0.014345 -0.010789
v 0.025892 -0.013719 0
v 0.026239 -0.014345 0.010789
v 0.019564 -0.014787 -0.017755
v 0.011051 -0.015638 -0.021586
v -0.002805 -0.021559 -0.005046
v -0.002721 -0.021685 0
v -0.002805 -0.021559 0.005046
v -0.003455 -0.019807 -0.016318
v 0.000833 -0.020946 -0.021747
v -0.004304 -0.020446 -0.009635
v 0.019564 -0.014787 0.017755
v 0.011051 -0.015638 0.021586
v 0.000833 -0.020946 0.021747
v -0.003455 -0.019807 0.016318
v -0.004304 -0.020446 0.009635
v 0.021895 -0.009137 -0.010502
v 0.023355 -0.00901 0
v 0.021895 -0.009137 0.010502
v 0.016181 -0.010251 -0.017309
v 0.009324 -0.011051 -0.019629
v -0.007704 -0.015579 -0.006481
v -0.007237 -0.015323 0
v -0.007704 -0.015579 0.006481
v -0.006013 -0.016487 -0.019459
v -0.000616 -0.013692 -0.020577
v -0.009738 -0.015822 -0.009942
v 0.016181 -0.010251 0.017309
v 0.009324 -0.011051 0.019629
v -0.000616 -0.013692 0.020577
v -0.006013 -0.016487 0.019459
v -0.009738 -0.015822 0.009942
v 0.018693 -0.00016 -0.01013
v 0.019612 0.001662 0
v 0.018693 -0.00016 0.01013
v 0.012781 -0.002252 -0.017974
v 0.007939 -0.004344 -0.019716
v -0.011926 -0.009821 -0.006696
v -0.014025 -0.010254 -0.010395
v -0.011261 -0.009384 0
v -0.011926 -0.009821 0.006696
v -0.014025 -0.010254 0.010395
v -0.007118 -0.009631 -0.02113
v -0.002083 -0.008525 -0.020722
v -0.010138 -0.015422 -0.021499
v -0.01179 -0.019714 -0.01753
v -0.013412 -0.012758 -0.025716
v -0.018672 -0.01706 -0.003789
v 0.012781 -0.002252 0.017974
v 0.007939 -0.004344 0.019716
v -0.002083 -0.008525 0.020722
v -0.007118 -0.009631 0.02113
v -0.01179 -0.019714 0.01753
v -0.010138 -0.015422 0.021499
v -0.013412 -0.012758 0.025716
v -0.018672 -0.01706 0.003789
v 0.018138 0.005399 -0.01121
v 0.018576 0.006097 0
v 0.018138 0.005399 0.01121
v 0.013208 0.002625 -0.019027
v 0.007423 -0.000708 -0.021805
v -0.015269 -0.002395 -0.008549
v -0.015336 -0.004558 -0.011162
v -0.013295 -0.002626 0
v -0.015269 -0.002395 0.008549
v -0.015336 -0.004558 0.011162
v -0.009804 -0.005459 -0.020416
v -0.001601 -0.002988 -0.022866
v -0.016439 -0.00699 -0.020468
v -0.019872 -0.018159 -0.017633
v -0.02307 -0.01429 -0.023741
v -0.015932 -0.019122 -0.025399
v -0.012676 -0.023458 -0.010789
v -0.017697 -0.017181 -0.02972
v -0.0174 -0.013459 -0.032692
v -0.014367 -0.028848 -0.005221
v -0.01842 -0.018688 0
v -0.027595 -0.019059 0
v -0.022896 -0.011447 -0.007892
v 0.013208 0.002625 0.019027
v 0.007423 -0.000708 0.021805
v -0.001601 -0.002988 0.022866
v -0.009804 -0.005459 0.020416
v -0.016439 -0.00699 0.020468
v -0.02307 -0.01429 0.023741
v -0.019872 -0.018159 0.017633
v -0.015932 -0.019122 0.025399
v -0.012676 -0.023458 0.010789
v -0.0174 -0.013459 0.032692
v -0.017697 -0.017181 0.02972
v -0.014367 -0.028848 0.005221
v -0.022896 -0.011447 0.007892
v 0.015984 0.010096 -0.011416
v 0.0167 0.01072 0
v 0.015984 0.010096 0.011416
v 0.011161 0.00763 -0.019289
v 0.004284 0.004702 -0.02286
v -0.004351 0.000197 -0.023008
v -0.016863 -0.004946 -0.014452
v -0.024816 -0.001145 -0.016406
v -0.023682 -0.003954 -0.0103
v 0.001703 0.004047 0
v -0.013222 -0.002051 -0.017549
v -0.024816 -0.001145 0.016406
v -0.016863 -0.004946 0.014452
v -0.023682 -0.003954 0.0103
v -0.013222 -0.002051 0.017549
v -0.021514 -0.008482 -0.029174
v -0.021592 -0.004765 -0.018869
v -0.020454 -0.02616 -0.015879
v -0.024259 -0.02955 -0.012968
v -0.028783 -0.014731 -0.021653
v -0.028829 -0.016269 -0.01454
v -0.026195 -0.016913 -0.013
v -0.031483 -0.005539 -0.019979
v -0.024923 -0.007945 -0.021835
v -0.011406 -0.0304 -0.012299
v -0.022747 -0.033797 -0.017501
v -0.022172 -0.017586 -0.032981
v -0.021313 -0.014606 -0.036167
v -0.025565 -0.010422 -0.033444
v -0.012787 -0.034368 -0.006855
v -0.017757 -0.028966 0
v -0.027463 -0.023263 -0.005062
v -0.034292 -0.03013 0
v -0.023277 -0.022875 -0.008498
v -0.024685 -0.018246 -0.010659
v -0.027463 -0.023263 0.005062
v -0.023277 -0.022875 0.008498
v -0.024685 -0.018246 0.010659
v -0.024139 -0.011314 -0.01163
v 0.011161 0.00763 0.019289
v 0.004284 0.004702 0.02286
v -0.004351 0.000197 0.023008
v -0.021514 -0.008482 0.029174
v -0.021592 -0.004765 0.018869
v -0.031483 -0.005539 0.019979
v -0.028783 -0.014731 0.021653
v -0.024923 -0.007945 0.021835
v -0.024259 -0.02955 0.012968
v -0.020454 -0.02616 0.015879
v -0.028829 -0.016269 0.01454
v -0.026195 -0.016913 0.013
v -0.011406 -0.0304 0.012299
v -0.022747 -0.033797 0.017501
v -0.021313 -0.014606 0.036167
v -0.022172 -0.017586 0.032981
v -0.025565 -0.010422 0.033444
v -0.012787 -0.034368 0.006855
v -0.024139 -0.011314 0.01163
v -0.035951 -0.01107 -0.016744
v -0.028622 -0.010913 -0.014277
v -0.035951 -0.01107 0.016744
v -0.028622 -0.010913 0.014277
v -0.024399 -0.038348 -0.009958
v -0.025703 -0.033487 -0.010524
v -0.020512 -0.040776 -0.017254
v -0.024803 -0.027296 -0.009067
v -0.03366 -0.011924 -0.022146
v -0.034671 -0.01506 -0.017202
v -0.011643 -0.043048 -0.013666
v -0.014639 -0.037817 -0.005445
v -0.018613 -0.035512 0
v -0.014639 -0.037817 0.005445
v -0.029847 -0.029244 -0.004274
v -0.031645 -0.034443 -0.00416
v -0.042317 -0.036752 0
v -0.029847 -0.029244 0.004274
v -0.031645 -0.034443 0.00416
v -0.024803 -0.027296 0.009067
v -0.03366 -0.011924 0.022146
v -0.034671 -0.01506 0.017202
v -0.025703 -0.033487 0.010524
v -0.024399 -0.038348 0.009958
v -0.020512 -0.040776 0.017254
v -0.011643 -0.043048 0.013666
v -0.030419 -0.039064 -0.004343
v -0.019716 -0.039774 -0.007826
v -0.025187 -0.04036 -0.005095
v -0.023419 -0.045516 0
v -0.019716 -0.039774 0.007826
v -0.025187 -0.04036 0.005095
v -0.04277 -0.042434 0
v -0.030419 -0.039064 0.004343
v -0.032928 -0.043641 -0.004733
v -0.029018 -0.044823 -0.004749
v -0.029058 -0.049305 -0.003687
v -0.030624 -0.050677 0
v -0.029058 -0.049305 0.003687
v -0.029018 -0.044823 0.004749
v -0.03933 -0.046704 -0.004792
v -0.03972 -0.048547 0
v -0.03933 -0.046704 0.004792
v -0.032928 -0.043641 0.004733
v -0.036427 -0.049755 -0.005584
v -0.034839 -0.051333 0
v -0.036427 -0.049755 0.005584
# 212 verticies
vn 0.338322 -0.94103 0
vn 0.685755 -0.697749 -0.20709
vn 0.883323 -0.468765 0
vn 0.753388 -0.384589 -0.533384
vn 0.418669 -0.236539 -0.876793
vn -0.937672 -0.347522 0
vn -0.650568 -0.759294 0.015326
vn -0.895403 -0.369406 -0.248583
vn -0.158849 -0.361598 -0.918702
vn 0.685756 -0.697748 0.20709
vn 0.753388 -0.384583 0.533387
vn 0.418664 -0.236535 0.876796
vn -0.650568 -0.759294 -0.015326
vn -0.895403 -0.369406 0.248583
vn -0.158849 -0.361598 0.918702
vn 0.937979 0.234184 -0.255645
vn 0.983852 0.178983 0
vn 0.937978 0.234187 0.255644
vn 0.476217 0.480497 -0.736437
vn 0.091564 0.374933 -0.922519
vn -0.980399 -0.185491 0.066412
vn -0.929691 -0.368341 0
vn -0.980399 -0.185491 -0.066412
vn -0.755735 -0.412787 -0.508401
vn -0.50658 0.208848 -0.836516
vn -0.866609 -0.487453 0.10667
vn 0.476212 0.480503 0.736437
vn 0.091564 0.374933 0.922519
vn -0.50658 0.208848 0.836516
vn -0.755736 -0.412785 0.5084
vn -0.86661 -0.487451 -0.106667
vn 0.796086 0.460944 -0.392144
vn 0.872518 0.488583 0
vn 0.796086 0.460944 0.392144
vn 0.515851 0.333314 -0.789176
vn 0.146224 0.184389 -0.971915
vn -0.762754 -0.603022 0.233603
vn -0.817127 -0.576458 0
vn -0.762755 -0.603024 -0.233598
vn 0.133301 -0.643472 -0.753773
vn -0.102893 -0.105615 -0.98907
vn -0.278996 -0.865241 0.416557
vn 0.515851 0.333314 0.789176
vn 0.146224 0.184389 0.971915
vn -0.102893 -0.105615 0.98907
vn 0.133301 -0.643472 0.753774
vn -0.279003 -0.865242 -0.416549
vn 0.901315 0.203417 -0.38243
vn 0.953834 0.300333 0
vn 0.901315 0.203417 0.38243
vn 0.610047 -0.01269 -0.792264
vn 0.30465 -0.167365 -0.937645
vn -0.861546 -0.429031 0.271423
vn -0.368344 -0.152538 0.91709
vn -0.909538 -0.415622 0
vn -0.861546 -0.429031 -0.271423
vn -0.368348 -0.152542 -0.917088
vn 0.137952 0.031081 -0.989951
vn 0.11758 -0.252337 -0.960469
vn 0.167643 -0.746892 -0.643466
vn 0.348219 -0.900797 -0.25944
vn 0.663947 -0.210651 -0.717496
vn 0.596022 0.421014 0.683743
vn 0.610047 -0.01269 0.792264
vn 0.30465 -0.167365 0.937645
vn 0.11758 -0.252337 0.960469
vn 0.137952 0.031081 0.989951
vn 0.348218 -0.900797 0.259441
vn 0.167643 -0.746892 0.643466
vn 0.663947 -0.210651 0.717496
vn 0.596021 0.421015 -0.683743
vn 0.928964 0.174108 -0.32667
vn 0.972446 0.233127 0
vn 0.928964 0.174108 0.32667
vn 0.635956 0.004296 -0.771714
vn 0.283404 -0.209022 -0.935944
vn -0.707521 0.588289 0.391575
vn -0.180019 -0.08522 0.979965
vn -0.906169 0.422915 0
vn -0.707521 0.588289 -0.391575
vn -0.180019 -0.08522 -0.979965
vn -0.251861 0.130387 -0.95894
vn -0.00756 -0.194181 -0.980937
vn 0.14416 0.773909 -0.616671
vn -0.219201 -0.751207 -0.622607
vn -0.498748 -0.533213 -0.683326
vn -0.10669 -0.886188 -0.450875
vn 0.90669 -0.010209 -0.421675
vn 0.219344 -0.970271 -0.102288
vn 0.729457 0.307214 -0.611156
vn 0.899945 0.163224 0.404297
vn 0.799954 0.600061 0
vn -0.746741 0.665115 2e-006
vn -0.536492 0.315742 0.782613
vn 0.635956 0.004296 0.771714
vn 0.283404 -0.209022 0.935944
vn -0.00756 -0.194181 0.980937
vn -0.251861 0.130387 0.95894
vn 0.14416 0.773909 0.616671
vn -0.49875 -0.533215 0.683323
vn -0.219201 -0.751207 0.622607
vn -0.10669 -0.886188 0.450875
vn 0.90669 -0.010209 0.421675
vn 0.729457 0.307214 0.611156
vn 0.219345 -0.97027 0.102293
vn 0.899945 0.163224 -0.404297
vn -0.536494 0.315743 -0.782611
vn 0.458988 0.809497 -0.366122
vn 0.6424 0.76637 0
vn 0.458988 0.809497 0.366122
vn 0.143872 0.820109 -0.553825
vn 0.019031 0.545153 -0.83812
vn -0.299235 0.377613 -0.87628
vn -0.039679 0.918555 -0.393296
vn -0.345945 0.917083 0.198194
vn -0.738792 0.353899 0.573535
vn -0.386598 0.922248 0
vn -0.514948 0.752481 -0.410611
vn -0.345943 0.917083 -0.198196
vn -0.039679 0.918555 0.393296
vn -0.738793 0.353898 -0.573533
vn -0.514948 0.752481 0.410611
vn -0.487676 0.620919 -0.613703
vn 0.114717 0.838182 -0.53319
vn -0.042496 -0.000675 -0.999096
vn -0.856283 -0.074255 -0.511142
vn -0.205828 -0.679481 -0.704231
vn -0.470559 -0.636649 0.610943
vn -0.917259 -0.185198 0.352614
vn -0.298364 0.520559 -0.799998
vn -0.478308 0.478687 -0.736261
vn 0.959291 0.150658 -0.238878
vn -0.006697 0.118364 -0.992948
vn -0.53153 -0.825818 -0.188418
vn 0.331272 -0.053312 -0.942028
vn -0.970891 -0.117724 0.208597
vn 0.887728 -0.040845 0.458554
vn 0.999449 -0.033199 0
vn -0.681775 0.379777 -0.625261
vn -0.882265 0.470753 2e-006
vn -0.955434 0.198921 -0.218118
vn -0.975879 0.044555 0.213719
vn -0.681777 0.379779 0.625259
vn -0.955435 0.198922 0.218115
vn -0.975879 0.044558 -0.213718
vn -0.788395 0.092128 0.608232
vn 0.143872 0.820109 0.553825
vn 0.019031 0.545153 0.83812
vn -0.299235 0.377613 0.87628
vn -0.487674 0.620919 0.613704
vn 0.114717 0.838183 0.533187
vn -0.298368 0.520558 0.799997
vn -0.205828 -0.679481 0.704231
vn -0.478313 0.478685 0.736259
vn -0.856283 -0.074255 0.511142
vn -0.042496 -0.000675 0.999096
vn -0.470556 -0.636648 -0.610947
vn -0.91726 -0.185194 -0.352616
vn 0.959291 0.150658 0.238878
vn -0.006697 0.118364 0.992948
vn 0.331276 -0.053305 0.942027
vn -0.531526 -0.825817 0.188432
vn -0.970893 -0.117728 -0.208585
vn 0.887728 -0.040845 -0.458554
vn -0.788393 0.092131 -0.608234
vn -0.813048 0.215575 0.540814
vn -0.405943 0.156776 0.900351
vn -0.813048 0.215575 -0.540814
vn -0.405936 0.156775 -0.900354
vn -0.558612 -0.657381 -0.50577
vn -0.764693 -0.045422 -0.642792
vn -0.641811 -0.684556 -0.345632
vn -0.933821 0.198074 -0.297901
vn -0.632931 -0.116258 -0.76543
vn -0.634935 -0.767993 -0.083933
vn 0.772399 -0.616974 -0.150808
vn 0.649172 -0.60654 0.459005
vn 0.959242 -0.282587 0
vn 0.649172 -0.60654 -0.459005
vn -0.69488 0.226206 -0.682622
vn -0.627347 0.172309 -0.759438
vn -0.92118 0.389138 0
vn -0.694881 0.226211 0.682619
vn -0.627347 0.172309 0.759438
vn -0.933821 0.198074 0.297901
vn -0.632931 -0.116258 0.76543
vn -0.634935 -0.767993 0.083933
vn -0.764693 -0.045422 0.642792
vn -0.558612 -0.657381 0.50577
vn -0.641811 -0.684556 0.345632
vn 0.772399 -0.616974 0.150808
vn -0.391775 -0.127919 -0.911125
vn -0.094607 -0.984624 0.146852
vn 0.129052 -0.713602 -0.688562
vn 0.686537 -0.727095 0
vn -0.094607 -0.984624 -0.146852
vn 0.129052 -0.713602 0.688562
vn -0.968078 0.250649 0
vn -0.391775 -0.127919 0.911125
vn -0.097941 0.161529 -0.981996
vn -0.002171 -0.087877 -0.996129
vn 0.349634 -0.523961 -0.776673
vn 0.304186 -0.952613 0
vn 0.349634 -0.523961 0.776673
vn -0.002171 -0.087877 0.996129
vn -0.684607 -0.325998 -0.65195
vn -0.730377 -0.683045 0
vn -0.684607 -0.325998 0.65195
vn -0.097941 0.161529 0.981996
vn -0.07714 -0.685265 -0.724197
vn -0.391815 -0.920044 0
vn -0.07714 -0.685265 0.724197
# 212 normals
usemtl Material__1
f  1//1 2//2 3//3
f  1//1 4//4 2//2
f  1//1 5//5 4//4
f  1//1 6//6 7//7
f  7//7 8//8 1//1
f  1//1 8//8 9//9
f  9//9 5//5 1//1
f  3//3 10//10 1//1
f  10//10 11//11 1//1
f  11//11 12//12 1//1
f  13//13 6//6 1//1
f  1//1 14//14 13//13
f  15//15 14//14 1//1
f  1//1 12//12 15//15
f  3//3 2//2 16//16
f  16//16 2//2 4//4
f  17//17 3//3 16//16
f  18//18 10//10 3//3
f  18//18 3//3 17//17
f  19//19 16//16 4//4
f  19//19 4//4 5//5
f  20//20 19//19 5//5
f  20//20 5//5 9//9
f  21//21 7//7 6//6
f  22//22 21//21 6//6
f  6//6 13//13 23//23
f  6//6 23//23 22//22
f  7//7 21//21 8//8
f  8//8 24//24 25//25
f  9//9 8//8 25//25
f  26//26 24//24 8//8
f  21//21 26//26 8//8
f  25//25 20//20 9//9
f  11//11 10//10 18//18
f  11//11 18//18 27//27
f  12//12 11//11 27//27
f  12//12 27//27 28//28
f  15//15 12//12 28//28
f  14//14 23//23 13//13
f  29//29 30//30 14//14
f  29//29 14//14 15//15
f  14//14 30//30 31//31
f  14//14 31//31 23//23
f  15//15 28//28 29//29
f  16//16 32//32 33//33
f  17//17 16//16 33//33
f  32//32 16//16 19//19
f  33//33 18//18 17//17
f  33//33 34//34 18//18
f  27//27 18//18 34//34
f  35//35 32//32 19//19
f  35//35 19//19 20//20
f  36//36 35//35 20//20
f  36//36 20//20 25//25
f  21//21 22//22 37//37
f  26//26 21//21 37//37
f  38//38 37//37 22//22
f  22//22 39//39 38//38
f  39//39 22//22 23//23
f  39//39 23//23 31//31
f  24//24 40//40 41//41
f  25//25 24//24 41//41
f  42//42 24//24 26//26
f  42//42 40//40 24//24
f  41//41 36//36 25//25
f  42//42 26//26 37//37
f  27//27 34//34 43//43
f  28//28 27//27 43//43
f  28//28 43//43 44//44
f  29//29 28//28 44//44
f  29//29 44//44 45//45
f  45//45 30//30 29//29
f  45//45 46//46 30//30
f  31//31 30//30 47//47
f  30//30 46//46 47//47
f  39//39 31//31 47//47
f  32//32 48//48 49//49
f  33//33 32//32 49//49
f  48//48 32//32 35//35
f  49//49 34//34 33//33
f  49//49 50//50 34//34
f  43//43 34//34 50//50
f  51//51 48//48 35//35
f  51//51 35//35 36//36
f  52//52 51//51 36//36
f  52//52 36//36 41//41
f  53//53 37//37 38//38
f  53//53 54//54 37//37
f  54//54 42//42 37//37
f  55//55 53//53 38//38
f  38//38 39//39 56//56
f  38//38 56//56 55//55
f  39//39 57//57 56//56
f  39//39 47//47 57//57
f  40//40 58//58 59//59
f  41//41 40//40 59//59
f  60//60 40//40 61//61
f  40//40 60//60 62//62
f  58//58 40//40 62//62
f  42//42 61//61 40//40
f  59//59 52//52 41//41
f  42//42 63//63 61//61
f  63//63 42//42 54//54
f  43//43 50//50 64//64
f  44//44 43//43 64//64
f  44//44 64//64 65//65
f  45//45 44//44 65//65
f  45//45 65//65 66//66
f  66//66 46//46 45//45
f  66//66 67//67 46//46
f  68//68 46//46 69//69
f  70//70 69//69 46//46
f  70//70 46//46 67//67
f  46//46 68//68 47//47
f  68//68 71//71 47//47
f  57//57 47//47 71//71
f  48//48 72//72 73//73
f  49//49 48//48 73//73
f  72//72 48//48 51//51
f  73//73 50//50 49//49
f  73//73 74//74 50//50
f  64//64 50//50 74//74
f  75//75 72//72 51//51
f  75//75 51//51 52//52
f  76//76 75//75 52//52
f  76//76 52//52 59//59
f  77//77 53//53 55//55
f  78//78 54//54 53//53
f  77//77 78//78 53//53
f  54//54 78//78 63//63
f  79//79 77//77 55//55
f  55//55 56//56 80//80
f  55//55 80//80 79//79
f  56//56 57//57 81//81
f  56//56 81//81 80//80
f  71//71 81//81 57//57
f  58//58 82//82 83//83
f  59//59 58//58 83//83
f  58//58 62//62 84//84
f  82//82 58//58 84//84
f  83//83 76//76 59//59
f  62//62 60//60 61//61
f  61//61 85//85 86//86
f  87//87 61//61 86//86
f  87//87 62//62 61//61
f  88//88 85//85 61//61
f  63//63 88//88 61//61
f  89//89 90//90 62//62
f  87//87 89//89 62//62
f  62//62 90//90 84//84
f  91//91 63//63 92//92
f  93//93 92//92 63//63
f  94//94 93//93 63//63
f  63//63 91//91 88//88
f  78//78 94//94 63//63
f  64//64 74//74 95//95
f  65//65 64//64 95//95
f  65//65 95//95 96//96
f  66//66 65//65 96//96
f  66//66 96//96 97//97
f  97//97 67//67 66//66
f  97//97 98//98 67//67
f  99//99 70//70 67//67
f  99//99 67//67 98//98
f  100//100 101//101 68//68
f  100//100 68//68 102//102
f  68//68 69//69 70//70
f  68//68 70//70 102//102
f  68//68 101//101 103//103
f  68//68 103//103 71//71
f  70//70 104//104 105//105
f  70//70 105//105 102//102
f  99//99 104//104 70//70
f  92//92 71//71 106//106
f  71//71 92//92 93//93
f  71//71 93//93 107//107
f  103//103 106//106 71//71
f  71//71 107//107 81//81
f  72//72 108//108 109//109
f  73//73 72//72 109//109
f  108//108 72//72 75//75
f  109//109 74//74 73//73
f  109//109 110//110 74//74
f  95//95 74//74 110//110
f  111//111 108//108 75//75
f  75//75 76//76 112//112
f  111//111 75//75 112//112
f  76//76 83//83 113//113
f  112//112 76//76 113//113
f  77//77 114//114 115//115
f  115//115 116//116 77//77
f  116//116 94//94 77//77
f  78//78 77//77 94//94
f  117//117 77//77 79//79
f  117//117 118//118 77//77
f  77//77 118//118 114//114
f  79//79 80//80 117//117
f  119//119 120//120 80//80
f  80//80 121//121 119//119
f  80//80 107//107 121//121
f  107//107 80//80 81//81
f  80//80 122//122 117//117
f  120//120 122//122 80//80
f  83//83 82//82 113//113
f  82//82 84//84 118//118
f  82//82 118//118 113//113
f  84//84 114//114 118//118
f  90//90 123//123 84//84
f  124//124 84//84 123//123
f  114//114 84//84 124//124
f  85//85 125//125 126//126
f  86//86 85//85 127//127
f  85//85 128//128 127//127
f  88//88 125//125 85//85
f  126//126 129//129 85//85
f  129//129 128//128 85//85
f  86//86 127//127 130//130
f  123//123 87//87 86//86
f  123//123 86//86 131//131
f  131//131 86//86 130//130
f  123//123 89//89 87//87
f  132//132 88//88 91//91
f  88//88 132//132 133//133
f  125//125 88//88 133//133
f  89//89 134//134 135//135
f  90//90 89//89 135//135
f  89//89 136//136 134//134
f  123//123 136//136 89//89
f  90//90 135//135 123//123
f  137//137 91//91 138//138
f  138//138 91//91 92//92
f  137//137 132//132 91//91
f  92//92 106//106 138//138
f  93//93 139//139 140//140
f  141//141 139//139 93//93
f  142//142 141//141 93//93
f  93//93 94//94 142//142
f  140//140 143//143 93//93
f  93//93 143//143 144//144
f  93//93 144//144 145//145
f  145//145 107//107 93//93
f  94//94 146//146 142//142
f  116//116 146//146 94//94
f  95//95 110//110 147//147
f  148//148 96//96 95//95
f  148//148 95//95 147//147
f  149//149 97//97 96//96
f  149//149 96//96 148//148
f  149//149 98//98 97//97
f  122//122 99//99 98//98
f  149//149 122//122 98//98
f  122//122 120//120 99//99
f  99//99 150//150 104//104
f  150//150 99//99 151//151
f  151//151 99//99 120//120
f  152//152 153//153 100//100
f  153//153 101//101 100//100
f  100//100 102//102 150//150
f  154//154 100//100 150//150
f  152//152 100//100 154//154
f  155//155 156//156 101//101
f  153//153 157//157 101//101
f  101//101 156//156 103//103
f  101//101 158//158 155//155
f  101//101 157//157 158//158
f  102//102 105//105 150//150
f  106//106 103//103 159//159
f  160//160 159//159 103//103
f  160//160 103//103 156//156
f  150//150 161//161 104//104
f  161//161 105//105 104//104
f  161//161 162//162 105//105
f  162//162 163//163 105//105
f  105//105 163//163 150//150
f  138//138 106//106 164//164
f  106//106 159//159 164//164
f  145//145 165//165 107//107
f  107//107 165//165 121//121
f  117//117 108//108 111//111
f  117//117 109//109 108//108
f  110//110 109//109 117//117
f  147//147 110//110 117//117
f  117//117 111//111 112//112
f  117//117 112//112 113//113
f  117//117 113//113 118//118
f  124//124 115//115 114//114
f  115//115 124//124 130//130
f  115//115 130//130 166//166
f  167//167 115//115 166//166
f  167//167 146//146 115//115
f  116//116 115//115 146//146
f  148//148 147//147 117//117
f  149//149 148//148 117//117
f  122//122 149//149 117//117
f  120//120 119//119 151//151
f  152//152 151//151 119//119
f  168//168 152//152 119//119
f  168//168 119//119 169//169
f  119//119 165//165 169//169
f  165//165 119//119 121//121
f  135//135 136//136 123//123
f  131//131 124//124 123//123
f  124//124 131//131 130//130
f  126//126 125//125 133//133
f  170//170 171//171 126//126
f  172//172 170//170 126//126
f  133//133 172//172 126//126
f  173//173 126//126 171//171
f  126//126 173//173 129//129
f  127//127 174//174 130//130
f  175//175 174//174 127//127
f  175//175 127//127 128//128
f  166//166 175//175 128//128
f  167//167 166//166 128//128
f  128//128 129//129 146//146
f  167//167 128//128 146//146
f  146//146 129//129 142//142
f  141//141 129//129 173//173
f  142//142 129//129 141//141
f  166//166 130//130 174//174
f  132//132 176//176 133//133
f  137//137 176//176 132//132
f  176//176 172//172 133//133
f  134//134 136//136 135//135
f  177//177 137//137 138//138
f  177//177 176//176 137//137
f  178//178 177//177 138//138
f  138//138 164//164 179//179
f  138//138 179//179 178//178
f  140//140 139//139 180//180
f  139//139 141//141 180//180
f  181//181 182//182 140//140
f  180//180 181//181 140//140
f  183//183 143//143 140//140
f  140//140 182//182 184//184
f  140//140 184//184 183//183
f  141//141 173//173 180//180
f  183//183 144//144 143//143
f  183//183 185//185 144//144
f  185//185 158//158 144//144
f  144//144 158//158 145//145
f  145//145 158//158 165//165
f  150//150 163//163 161//161
f  150//150 151//151 154//154
f  152//152 154//154 151//151
f  152//152 186//186 153//153
f  186//186 152//152 168//168
f  153//153 186//186 187//187
f  157//157 153//153 187//187
f  160//160 156//156 155//155
f  155//155 188//188 189//189
f  155//155 189//189 190//190
f  155//155 190//190 160//160
f  188//188 155//155 185//185
f  158//158 185//185 155//155
f  157//157 187//187 168//168
f  157//157 168//168 169//169
f  165//165 158//158 157//157
f  165//165 157//157 169//169
f  160//160 191//191 159//159
f  159//159 191//191 164//164
f  160//160 190//190 191//191
f  161//161 163//163 162//162
f  164//164 191//191 179//179
f  175//175 166//166 174//174
f  186//186 168//168 187//187
f  171//171 170//170 192//192
f  170//170 193//193 194//194
f  192//192 170//170 194//194
f  170//170 172//172 193//193
f  173//173 171//171 181//181
f  181//181 171//171 192//192
f  172//172 176//176 193//193
f  180//180 173//173 181//181
f  193//193 176//176 177//177
f  194//194 193//193 177//177
f  195//195 194//194 177//177
f  195//195 177//177 178//178
f  178//178 179//179 195//195
f  179//179 191//191 196//196
f  179//179 196//196 197//197
f  179//179 197//197 195//195
f  181//181 192//192 182//182
f  192//192 198//198 182//182
f  182//182 198//198 199//199
f  182//182 199//199 184//184
f  184//184 185//185 183//183
f  184//184 188//188 185//185
f  199//199 188//188 184//184
f  199//199 189//189 188//188
f  197//197 196//196 189//189
f  197//197 189//189 199//199
f  196//196 190//190 189//189
f  196//196 191//191 190//190
f  192//192 200//200 198//198
f  192//192 194//194 201//201
f  200//200 192//192 201//201
f  194//194 195//195 202//202
f  201//201 194//194 202//202
f  203//203 202//202 195//195
f  195//195 204//204 203//203
f  204//204 195//195 197//197
f  205//205 197//197 199//199
f  204//204 197//197 205//205
f  200//200 206//206 198//198
f  198//198 206//206 207//207
f  198//198 208//208 209//209
f  198//198 209//209 199//199
f  207//207 208//208 198//198
f  205//205 199//199 209//209
f  200//200 201//201 202//202
f  210//210 200//200 202//202
f  200//200 210//210 206//206
f  210//210 202//202 203//203
f  211//211 210//210 203//203
f  203//203 204//204 212//212
f  203//203 212//212 211//211
f  204//204 205//205 209//209
f  204//204 209//209 212//212
f  206//206 210//210 211//211
f  207//207 206//206 211//211
f  211//211 208//208 207//207
f  211//211 212//212 208//208
f  208//208 212//212 209//209
