#VRML V2.0 utf8 
Transform { 
 children [ 
    Shape { 
appearance Appearance {
              material DEF surface Material {
              diffuseColor 0.8 0.8 0.8
              ambientIntensity 0.2
              specularColor 0.4 0.4 0.4
              emissiveColor 0 0 0
              shininess 0.25
              transparency 0
            }
          }
   geometry IndexedFaceSet { 
   solid FALSE 
    coord DEF bone Coordinate{ 
     point [ 
	  0.010403   0.005803   0.000000,
	  0.024133   0.003806  -0.009271,
	  0.023094   0.000720   0.000000,
	  0.019226   0.005192  -0.018973,
	  0.015007   0.005053  -0.023697,
	 -0.003309   0.012044   0.000000,
	 -0.003286   0.011643  -0.005568,
	 -0.003586   0.012097  -0.016493,
	  0.002178   0.012102  -0.023835,
	  0.024133   0.003806   0.009271,
	  0.019226   0.005192   0.018973,
	  0.015007   0.005053   0.023697,
	 -0.003286   0.011643   0.005568,
	 -0.003586   0.012097   0.016493,
	  0.002178   0.012102   0.023835,
	  0.025086   0.004806  -0.011135,
	  0.025125   0.005552   0.000000,
	  0.025086   0.004806   0.011135,
	  0.018299   0.008560  -0.018324,
	  0.015013   0.011333  -0.022277,
	 -0.002783   0.015628  -0.005208,
	 -0.002779   0.015469   0.000000,
	 -0.002783   0.015628   0.005208,
	 -0.002396   0.017520  -0.016841,
	  0.003238   0.012924  -0.022444,
	 -0.003481   0.017482  -0.009944,
	  0.018299   0.008560   0.018324,
	  0.015013   0.011333   0.022277,
	  0.003238   0.012924   0.022444,
	 -0.002396   0.017520   0.016841,
	 -0.003481   0.017482   0.009944,
	  0.026472   0.011890  -0.010839,
	  0.024180   0.011207   0.000000,
	  0.026472   0.011890   0.010839,
	  0.022407   0.012868  -0.017864,
	  0.016008   0.016303  -0.020258,
	 -0.001266   0.022655  -0.006689,
	 -0.000721   0.022594   0.000000,
	 -0.001266   0.022655   0.006689,
	 -0.000289   0.020861  -0.020082,
	  0.005926   0.020012  -0.021237,
	 -0.003167   0.023670  -0.010260,
	  0.022407   0.012868   0.017864,
	  0.016008   0.016303   0.020258,
	  0.005926   0.020012   0.021237,
	 -0.000289   0.020861   0.020082,
	 -0.003167   0.023670   0.010260,
	  0.026454   0.020092  -0.010455,
	  0.028245   0.021101   0.000000,
	  0.026454   0.020092   0.010455,
	  0.023804   0.021767  -0.018550,
	  0.018454   0.022884  -0.020348,
	 -0.001804   0.030128  -0.006911,
	 -0.003865   0.031019  -0.010728,
	 -0.000988   0.030103   0.000000,
	 -0.001804   0.030128   0.006911,
	 -0.003865   0.031019   0.010728,
	  0.002481   0.027402  -0.021807,
	  0.007462   0.025323  -0.021386,
	 -0.003297   0.024253  -0.022188,
	 -0.007070   0.021567  -0.018091,
	 -0.004695   0.028504  -0.026540,
	 -0.011612   0.027977  -0.003911,
	  0.023804   0.021767   0.018550,
	  0.018454   0.022884   0.020348,
	  0.007462   0.025323   0.021386,
	  0.002481   0.027402   0.021807,
	 -0.007070   0.021567   0.018091,
	 -0.003297   0.024253   0.022188,
	 -0.004695   0.028504   0.026540,
	 -0.011612   0.027977   0.003911,
	  0.032627   0.025106  -0.011570,
	  0.033388   0.025440   0.000000,
	  0.032627   0.025106   0.011570,
	  0.026829   0.025690  -0.019637,
	  0.019984   0.026311  -0.022504,
	 -0.000670   0.038502  -0.008823,
	 -0.001905   0.036689  -0.011520,
	  0.000922   0.037118   0.000000,
	 -0.000670   0.038502   0.008823,
	 -0.001905   0.036689   0.011520,
	  0.002415   0.032592  -0.021070,
	  0.010895   0.029779  -0.023599,
	 -0.004188   0.035266  -0.021124,
	 -0.013253   0.027757  -0.018198,
	 -0.013928   0.032995  -0.024502,
	 -0.010350   0.024563  -0.026213,
	 -0.010013   0.021635  -0.011135,
	 -0.010829   0.027288  -0.030672,
	 -0.008545   0.030301  -0.033740,
	 -0.014419   0.018072  -0.005388,
	 -0.012278   0.026431   0.000000,
	 -0.020555   0.033571   0.000000,
	 -0.012230   0.035328  -0.008145,
	  0.026829   0.025690   0.019637,
	  0.019984   0.026311   0.022504,
	  0.010895   0.029779   0.023599,
	  0.002415   0.032592   0.021070,
	 -0.004188   0.035266   0.021124,
	 -0.013928   0.032995   0.024502,
	 -0.013253   0.027757   0.018198,
	 -0.010350   0.024563   0.026213,
	 -0.010013   0.021635   0.011135,
	 -0.008545   0.030301   0.033740,
	 -0.010829   0.027288   0.030672,
	 -0.014419   0.018072   0.005388,
	 -0.012230   0.035328   0.008145,
	  0.031829   0.030668  -0.011782,
	  0.032790   0.030773   0.000000,
	  0.031829   0.030668   0.011782,
	  0.027773   0.031211  -0.019907,
	  0.020198   0.032834  -0.023593,
	  0.010237   0.034163  -0.023745,
	 -0.003445   0.037274  -0.014915,
	 -0.008293   0.045312  -0.016931,
	 -0.008835   0.042223  -0.010630,
	  0.017597   0.033824   0.000000,
	  0.001298   0.037567  -0.018112,
	 -0.008293   0.045312   0.016931,
	 -0.003445   0.037274   0.014915,
	 -0.008835   0.042223   0.010630,
	  0.001298   0.037567   0.018112,
	 -0.009414   0.037038  -0.030109,
	 -0.007459   0.040271  -0.019473,
	 -0.018214   0.023287  -0.016388,
	 -0.023369   0.022672  -0.013384,
	 -0.019138   0.036050  -0.022347,
	 -0.020015   0.034760  -0.015006,
	 -0.018074   0.032625  -0.013416,
	 -0.016483   0.045552  -0.020620,
	 -0.012087   0.039547  -0.022534,
	 -0.012691   0.015000  -0.012693,
	 -0.024479   0.020448  -0.018062,
	 -0.014942   0.029631  -0.034038,
	 -0.012573   0.031668  -0.037326,
	 -0.013994   0.037810  -0.034516,
	 -0.016133   0.014103  -0.007075,
	 -0.017430   0.019983   0.000000,
	 -0.022730   0.029921  -0.005224,
	 -0.032407   0.028151   0.000000,
	 -0.018879   0.027758  -0.008771,
	 -0.017486   0.030574  -0.011001,
	 -0.022730   0.029921   0.005224,
	 -0.018879   0.027758   0.008771,
	 -0.017486   0.030574   0.011001,
	 -0.013239   0.036189  -0.012003,
	  0.027773   0.031211   0.019907,
	  0.020198   0.032834   0.023593,
	  0.010237   0.034163   0.023745,
	 -0.009414   0.037038   0.030109,
	 -0.007459   0.040271   0.019473,
	 -0.016483   0.045552   0.020620,
	 -0.019138   0.036050   0.022347,
	 -0.012087   0.039547   0.022534,
	 -0.023369   0.022672   0.013384,
	 -0.018214   0.023287   0.016388,
	 -0.020015   0.034760   0.015006,
	 -0.018074   0.032625   0.013416,
	 -0.012691   0.015000   0.012693,
	 -0.024479   0.020448   0.018062,
	 -0.012573   0.031668   0.037326,
	 -0.014942   0.029631   0.034038,
	 -0.013994   0.037810   0.034516,
	 -0.016133   0.014103   0.007075,
	 -0.013239   0.036189   0.012003,
	 -0.023378   0.043496  -0.017281,
	 -0.016920   0.039227  -0.014735,
	 -0.023378   0.043496   0.017281,
	 -0.016920   0.039227   0.014735,
	 -0.028441   0.018527  -0.010277,
	 -0.026879   0.022450  -0.010861,
	 -0.026399   0.014468  -0.017807,
	 -0.022614   0.024911  -0.009358,
	 -0.021851   0.041388  -0.022856,
	 -0.024438   0.039307  -0.017753,
	 -0.019870   0.006125  -0.014104,
	 -0.019622   0.012291  -0.005620,
	 -0.021740   0.014945   0.000000,
	 -0.019622   0.012291   0.005620,
	 -0.028060   0.026258  -0.004411,
	 -0.032454   0.022910  -0.004293,
	 -0.038871   0.027085   0.000000,
	 -0.028060   0.026258   0.004411,
	 -0.032454   0.022910   0.004293,
	 -0.022614   0.024911   0.009358,
	 -0.021851   0.041388   0.022856,
	 -0.024438   0.039307   0.017753,
	 -0.026879   0.022450   0.010861,
	 -0.028441   0.018527   0.010277,
	 -0.026399   0.014468   0.017807,
	 -0.019870   0.006125   0.014104,
	 -0.033252   0.022455  -0.004482,
	 -0.025102   0.013634  -0.008077,
	 -0.030876   0.020296  -0.005259,
	 -0.031698   0.017480   0.000000,
	 -0.025102   0.013634   0.008077,
	 -0.030876   0.020296   0.005259,
	 -0.041071   0.024710   0.000000,
	 -0.033252   0.022455   0.004482,
	 -0.036180   0.021192  -0.004884,
	 -0.034478   0.019484  -0.004902,
	 -0.036042   0.017514  -0.003805,
	 -0.037359   0.017382   0.000000,
	 -0.036042   0.017514   0.003805,
	 -0.034478   0.019484   0.004902,
	 -0.040686   0.021779  -0.004946,
	 -0.041531   0.021082   0.000000,
	 -0.040686   0.021779   0.004946,
	 -0.036180   0.021192   0.004884,
	 -0.040171   0.019549  -0.005763,
	 -0.039858   0.018370   0.000000,
	 -0.040171   0.019549   0.005763,
     ]    } 
    coordIndex [ 
	     0,      1,      2, -1 
	     0,      3,      1, -1 
	     0,      4,      3, -1 
	     0,      5,      6, -1 
	     6,      7,      0, -1 
	     0,      7,      8, -1 
	     8,      4,      0, -1 
	     2,      9,      0, -1 
	     9,     10,      0, -1 
	    10,     11,      0, -1 
	    12,      5,      0, -1 
	     0,     13,     12, -1 
	    14,     13,      0, -1 
	     0,     11,     14, -1 
	     2,      1,     15, -1 
	    15,      1,      3, -1 
	    16,      2,     15, -1 
	    17,      9,      2, -1 
	    17,      2,     16, -1 
	    18,     15,      3, -1 
	    18,      3,      4, -1 
	    19,     18,      4, -1 
	    19,      4,      8, -1 
	    20,      6,      5, -1 
	    21,     20,      5, -1 
	     5,     12,     22, -1 
	     5,     22,     21, -1 
	     6,     20,      7, -1 
	     7,     23,     24, -1 
	     8,      7,     24, -1 
	    25,     23,      7, -1 
	    20,     25,      7, -1 
	    24,     19,      8, -1 
	    10,      9,     17, -1 
	    10,     17,     26, -1 
	    11,     10,     26, -1 
	    11,     26,     27, -1 
	    14,     11,     27, -1 
	    13,     22,     12, -1 
	    28,     29,     13, -1 
	    28,     13,     14, -1 
	    13,     29,     30, -1 
	    13,     30,     22, -1 
	    14,     27,     28, -1 
	    15,     31,     32, -1 
	    16,     15,     32, -1 
	    31,     15,     18, -1 
	    32,     17,     16, -1 
	    32,     33,     17, -1 
	    26,     17,     33, -1 
	    34,     31,     18, -1 
	    34,     18,     19, -1 
	    35,     34,     19, -1 
	    35,     19,     24, -1 
	    20,     21,     36, -1 
	    25,     20,     36, -1 
	    37,     36,     21, -1 
	    21,     38,     37, -1 
	    38,     21,     22, -1 
	    38,     22,     30, -1 
	    23,     39,     40, -1 
	    24,     23,     40, -1 
	    41,     23,     25, -1 
	    41,     39,     23, -1 
	    40,     35,     24, -1 
	    41,     25,     36, -1 
	    26,     33,     42, -1 
	    27,     26,     42, -1 
	    27,     42,     43, -1 
	    28,     27,     43, -1 
	    28,     43,     44, -1 
	    44,     29,     28, -1 
	    44,     45,     29, -1 
	    30,     29,     46, -1 
	    29,     45,     46, -1 
	    38,     30,     46, -1 
	    31,     47,     48, -1 
	    32,     31,     48, -1 
	    47,     31,     34, -1 
	    48,     33,     32, -1 
	    48,     49,     33, -1 
	    42,     33,     49, -1 
	    50,     47,     34, -1 
	    50,     34,     35, -1 
	    51,     50,     35, -1 
	    51,     35,     40, -1 
	    52,     36,     37, -1 
	    52,     53,     36, -1 
	    53,     41,     36, -1 
	    54,     52,     37, -1 
	    37,     38,     55, -1 
	    37,     55,     54, -1 
	    38,     56,     55, -1 
	    38,     46,     56, -1 
	    39,     57,     58, -1 
	    40,     39,     58, -1 
	    59,     39,     60, -1 
	    39,     59,     61, -1 
	    57,     39,     61, -1 
	    41,     60,     39, -1 
	    58,     51,     40, -1 
	    41,     62,     60, -1 
	    62,     41,     53, -1 
	    42,     49,     63, -1 
	    43,     42,     63, -1 
	    43,     63,     64, -1 
	    44,     43,     64, -1 
	    44,     64,     65, -1 
	    65,     45,     44, -1 
	    65,     66,     45, -1 
	    67,     45,     68, -1 
	    69,     68,     45, -1 
	    69,     45,     66, -1 
	    45,     67,     46, -1 
	    67,     70,     46, -1 
	    56,     46,     70, -1 
	    47,     71,     72, -1 
	    48,     47,     72, -1 
	    71,     47,     50, -1 
	    72,     49,     48, -1 
	    72,     73,     49, -1 
	    63,     49,     73, -1 
	    74,     71,     50, -1 
	    74,     50,     51, -1 
	    75,     74,     51, -1 
	    75,     51,     58, -1 
	    76,     52,     54, -1 
	    77,     53,     52, -1 
	    76,     77,     52, -1 
	    53,     77,     62, -1 
	    78,     76,     54, -1 
	    54,     55,     79, -1 
	    54,     79,     78, -1 
	    55,     56,     80, -1 
	    55,     80,     79, -1 
	    70,     80,     56, -1 
	    57,     81,     82, -1 
	    58,     57,     82, -1 
	    57,     61,     83, -1 
	    81,     57,     83, -1 
	    82,     75,     58, -1 
	    61,     59,     60, -1 
	    60,     84,     85, -1 
	    86,     60,     85, -1 
	    86,     61,     60, -1 
	    87,     84,     60, -1 
	    62,     87,     60, -1 
	    88,     89,     61, -1 
	    86,     88,     61, -1 
	    61,     89,     83, -1 
	    90,     62,     91, -1 
	    92,     91,     62, -1 
	    93,     92,     62, -1 
	    62,     90,     87, -1 
	    77,     93,     62, -1 
	    63,     73,     94, -1 
	    64,     63,     94, -1 
	    64,     94,     95, -1 
	    65,     64,     95, -1 
	    65,     95,     96, -1 
	    96,     66,     65, -1 
	    96,     97,     66, -1 
	    98,     69,     66, -1 
	    98,     66,     97, -1 
	    99,    100,     67, -1 
	    99,     67,    101, -1 
	    67,     68,     69, -1 
	    67,     69,    101, -1 
	    67,    100,    102, -1 
	    67,    102,     70, -1 
	    69,    103,    104, -1 
	    69,    104,    101, -1 
	    98,    103,     69, -1 
	    91,     70,    105, -1 
	    70,     91,     92, -1 
	    70,     92,    106, -1 
	   102,    105,     70, -1 
	    70,    106,     80, -1 
	    71,    107,    108, -1 
	    72,     71,    108, -1 
	   107,     71,     74, -1 
	   108,     73,     72, -1 
	   108,    109,     73, -1 
	    94,     73,    109, -1 
	   110,    107,     74, -1 
	    74,     75,    111, -1 
	   110,     74,    111, -1 
	    75,     82,    112, -1 
	   111,     75,    112, -1 
	    76,    113,    114, -1 
	   114,    115,     76, -1 
	   115,     93,     76, -1 
	    77,     76,     93, -1 
	   116,     76,     78, -1 
	   116,    117,     76, -1 
	    76,    117,    113, -1 
	    78,     79,    116, -1 
	   118,    119,     79, -1 
	    79,    120,    118, -1 
	    79,    106,    120, -1 
	   106,     79,     80, -1 
	    79,    121,    116, -1 
	   119,    121,     79, -1 
	    82,     81,    112, -1 
	    81,     83,    117, -1 
	    81,    117,    112, -1 
	    83,    113,    117, -1 
	    89,    122,     83, -1 
	   123,     83,    122, -1 
	   113,     83,    123, -1 
	    84,    124,    125, -1 
	    85,     84,    126, -1 
	    84,    127,    126, -1 
	    87,    124,     84, -1 
	   125,    128,     84, -1 
	   128,    127,     84, -1 
	    85,    126,    129, -1 
	   122,     86,     85, -1 
	   122,     85,    130, -1 
	   130,     85,    129, -1 
	   122,     88,     86, -1 
	   131,     87,     90, -1 
	    87,    131,    132, -1 
	   124,     87,    132, -1 
	    88,    133,    134, -1 
	    89,     88,    134, -1 
	    88,    135,    133, -1 
	   122,    135,     88, -1 
	    89,    134,    122, -1 
	   136,     90,    137, -1 
	   137,     90,     91, -1 
	   136,    131,     90, -1 
	    91,    105,    137, -1 
	    92,    138,    139, -1 
	   140,    138,     92, -1 
	   141,    140,     92, -1 
	    92,     93,    141, -1 
	   139,    142,     92, -1 
	    92,    142,    143, -1 
	    92,    143,    144, -1 
	   144,    106,     92, -1 
	    93,    145,    141, -1 
	   115,    145,     93, -1 
	    94,    109,    146, -1 
	   147,     95,     94, -1 
	   147,     94,    146, -1 
	   148,     96,     95, -1 
	   148,     95,    147, -1 
	   148,     97,     96, -1 
	   121,     98,     97, -1 
	   148,    121,     97, -1 
	   121,    119,     98, -1 
	    98,    149,    103, -1 
	   149,     98,    150, -1 
	   150,     98,    119, -1 
	   151,    152,     99, -1 
	   152,    100,     99, -1 
	    99,    101,    149, -1 
	   153,     99,    149, -1 
	   151,     99,    153, -1 
	   154,    155,    100, -1 
	   152,    156,    100, -1 
	   100,    155,    102, -1 
	   100,    157,    154, -1 
	   100,    156,    157, -1 
	   101,    104,    149, -1 
	   105,    102,    158, -1 
	   159,    158,    102, -1 
	   159,    102,    155, -1 
	   149,    160,    103, -1 
	   160,    104,    103, -1 
	   160,    161,    104, -1 
	   161,    162,    104, -1 
	   104,    162,    149, -1 
	   137,    105,    163, -1 
	   105,    158,    163, -1 
	   144,    164,    106, -1 
	   106,    164,    120, -1 
	   116,    107,    110, -1 
	   116,    108,    107, -1 
	   109,    108,    116, -1 
	   146,    109,    116, -1 
	   116,    110,    111, -1 
	   116,    111,    112, -1 
	   116,    112,    117, -1 
	   123,    114,    113, -1 
	   114,    123,    129, -1 
	   114,    129,    165, -1 
	   166,    114,    165, -1 
	   166,    145,    114, -1 
	   115,    114,    145, -1 
	   147,    146,    116, -1 
	   148,    147,    116, -1 
	   121,    148,    116, -1 
	   119,    118,    150, -1 
	   151,    150,    118, -1 
	   167,    151,    118, -1 
	   167,    118,    168, -1 
	   118,    164,    168, -1 
	   164,    118,    120, -1 
	   134,    135,    122, -1 
	   130,    123,    122, -1 
	   123,    130,    129, -1 
	   125,    124,    132, -1 
	   169,    170,    125, -1 
	   171,    169,    125, -1 
	   132,    171,    125, -1 
	   172,    125,    170, -1 
	   125,    172,    128, -1 
	   126,    173,    129, -1 
	   174,    173,    126, -1 
	   174,    126,    127, -1 
	   165,    174,    127, -1 
	   166,    165,    127, -1 
	   127,    128,    145, -1 
	   166,    127,    145, -1 
	   145,    128,    141, -1 
	   140,    128,    172, -1 
	   141,    128,    140, -1 
	   165,    129,    173, -1 
	   131,    175,    132, -1 
	   136,    175,    131, -1 
	   175,    171,    132, -1 
	   133,    135,    134, -1 
	   176,    136,    137, -1 
	   176,    175,    136, -1 
	   177,    176,    137, -1 
	   137,    163,    178, -1 
	   137,    178,    177, -1 
	   139,    138,    179, -1 
	   138,    140,    179, -1 
	   180,    181,    139, -1 
	   179,    180,    139, -1 
	   182,    142,    139, -1 
	   139,    181,    183, -1 
	   139,    183,    182, -1 
	   140,    172,    179, -1 
	   182,    143,    142, -1 
	   182,    184,    143, -1 
	   184,    157,    143, -1 
	   143,    157,    144, -1 
	   144,    157,    164, -1 
	   149,    162,    160, -1 
	   149,    150,    153, -1 
	   151,    153,    150, -1 
	   151,    185,    152, -1 
	   185,    151,    167, -1 
	   152,    185,    186, -1 
	   156,    152,    186, -1 
	   159,    155,    154, -1 
	   154,    187,    188, -1 
	   154,    188,    189, -1 
	   154,    189,    159, -1 
	   187,    154,    184, -1 
	   157,    184,    154, -1 
	   156,    186,    167, -1 
	   156,    167,    168, -1 
	   164,    157,    156, -1 
	   164,    156,    168, -1 
	   159,    190,    158, -1 
	   158,    190,    163, -1 
	   159,    189,    190, -1 
	   160,    162,    161, -1 
	   163,    190,    178, -1 
	   174,    165,    173, -1 
	   185,    167,    186, -1 
	   170,    169,    191, -1 
	   169,    192,    193, -1 
	   191,    169,    193, -1 
	   169,    171,    192, -1 
	   172,    170,    180, -1 
	   180,    170,    191, -1 
	   171,    175,    192, -1 
	   179,    172,    180, -1 
	   192,    175,    176, -1 
	   193,    192,    176, -1 
	   194,    193,    176, -1 
	   194,    176,    177, -1 
	   177,    178,    194, -1 
	   178,    190,    195, -1 
	   178,    195,    196, -1 
	   178,    196,    194, -1 
	   180,    191,    181, -1 
	   191,    197,    181, -1 
	   181,    197,    198, -1 
	   181,    198,    183, -1 
	   183,    184,    182, -1 
	   183,    187,    184, -1 
	   198,    187,    183, -1 
	   198,    188,    187, -1 
	   196,    195,    188, -1 
	   196,    188,    198, -1 
	   195,    189,    188, -1 
	   195,    190,    189, -1 
	   191,    199,    197, -1 
	   191,    193,    200, -1 
	   199,    191,    200, -1 
	   193,    194,    201, -1 
	   200,    193,    201, -1 
	   202,    201,    194, -1 
	   194,    203,    202, -1 
	   203,    194,    196, -1 
	   204,    196,    198, -1 
	   203,    196,    204, -1 
	   199,    205,    197, -1 
	   197,    205,    206, -1 
	   197,    207,    208, -1 
	   197,    208,    198, -1 
	   206,    207,    197, -1 
	   204,    198,    208, -1 
	   199,    200,    201, -1 
	   209,    199,    201, -1 
	   199,    209,    205, -1 
	   209,    201,    202, -1 
	   210,    209,    202, -1 
	   202,    203,    211, -1 
	   202,    211,    210, -1 
	   203,    204,    208, -1 
	   203,    208,    211, -1 
	   205,    209,    210, -1 
	   206,    205,    210, -1 
	   210,    207,    206, -1 
	   210,    211,    207, -1 
	   207,    211,    208, -1 
    ] 
   colorPerVertex FALSE 
    colorIndex [ 
	  1, 
	  1, 
	  1, 
	  1, 
	  1, 
	  1, 
	  1, 
	  1, 
	  1, 
	  1, 
	  1, 
	  1, 
	  1, 
	  1, 
	  1, 
	  1, 
	  1, 
	  1, 
	  1, 
	  1, 
	  1, 
	  1, 
	  1, 
	  1, 
	  1, 
	  1, 
	  1, 
	  1, 
	  1, 
	  1, 
	  1, 
	  1, 
	  1, 
	  1, 
	  1, 
	  1, 
	  1, 
	  1, 
	  1, 
	  1, 
	  1, 
	  1, 
	  1, 
	  1, 
	  1, 
	  1, 
	  1, 
	  1, 
	  1, 
	  1, 
	  1, 
	  1, 
	  1, 
	  1, 
	  1, 
	  1, 
	  1, 
	  1, 
	  1, 
	  1, 
	  1, 
	  1, 
	  1, 
	  1, 
	  1, 
	  1, 
	  1, 
	  1, 
	  1, 
	  1, 
	  1, 
	  1, 
	  1, 
	  1, 
	  1, 
	  1, 
	  1, 
	  1, 
	  1, 
	  1, 
	  1, 
	  1, 
	  1, 
	  1, 
	  1, 
	  1, 
	  1, 
	  1, 
	  1, 
	  1, 
	  1, 
	  1, 
	  1, 
	  1, 
	  1, 
	  1, 
	  1, 
	  1, 
	  1, 
	  1, 
	  1, 
	  1, 
	  1, 
	  1, 
	  1, 
	  1, 
	  1, 
	  1, 
	  1, 
	  1, 
	  1, 
	  1, 
	  1, 
	  1, 
	  1, 
	  1, 
	  1, 
	  1, 
	  1, 
	  1, 
	  1, 
	  1, 
	  1, 
	  1, 
	  1, 
	  1, 
	  1, 
	  1, 
	  1, 
	  1, 
	  1, 
	  1, 
	  1, 
	  1, 
	  1, 
	  1, 
	  1, 
	  1, 
	  1, 
	  1, 
	  1, 
	  1, 
	  1, 
	  1, 
	  1, 
	  1, 
	  1, 
	  1, 
	  1, 
	  1, 
	  1, 
	  1, 
	  1, 
	  1, 
	  1, 
	  1, 
	  1, 
	  1, 
	  1, 
	  1, 
	  1, 
	  1, 
	  1, 
	  1, 
	  1, 
	  1, 
	  1, 
	  1, 
	  1, 
	  1, 
	  1, 
	  1, 
	  1, 
	  1, 
	  1, 
	  1, 
	  1, 
	  1, 
	  1, 
	  1, 
	  1, 
	  1, 
	  1, 
	  1, 
	  1, 
	  1, 
	  1, 
	  1, 
	  1, 
	  1, 
	  1, 
	  1, 
	  1, 
	  1, 
	  1, 
	  1, 
	  1, 
	  1, 
	  1, 
	  1, 
	  1, 
	  1, 
	  1, 
	  1, 
	  1, 
	  1, 
	  1, 
	  1, 
	  1, 
	  1, 
	  1, 
	  1, 
    ] 
normal Normal { 
vector [ 
	 -0.297086  -0.954851   0.000000,
	  0.069036  -0.966683  -0.246491,
	  0.429621  -0.903009   0.000000,
	  0.517627  -0.708372  -0.479866,
	  0.416427  -0.435535  -0.798059,
	 -0.967171  -0.254127   0.000000,
	 -0.868843  -0.494790   0.017174,
	 -0.955839  -0.139879  -0.258470,
	 -0.363070   0.044160  -0.930715,
	  0.069036  -0.966683   0.246491,
	  0.517627  -0.708372   0.479866,
	  0.416427  -0.435535   0.798059,
	 -0.868843  -0.494790  -0.017174,
	 -0.955839  -0.139879   0.258470,
	 -0.363070   0.044160   0.930715,
	  0.895971  -0.343282  -0.281769,
	  0.993271  -0.115817   0.000000,
	  0.895971  -0.343282   0.281769,
	  0.747101  -0.062899  -0.661728,
	  0.398804   0.257689  -0.880086,
	 -0.989785   0.127984   0.062812,
	 -0.976705   0.214587   0.000000,
	 -0.989785   0.127984  -0.062812,
	 -0.821460   0.061090  -0.566985,
	 -0.232828   0.507157  -0.829809,
	 -0.989544   0.095647   0.107954,
	  0.747101  -0.062899   0.661728,
	  0.398804   0.257689   0.880086,
	 -0.232828   0.507157   0.829809,
	 -0.821460   0.061090   0.566985,
	 -0.989544   0.095647  -0.107954,
	  0.935213  -0.225409  -0.273072,
	  0.990082  -0.140494   0.000000,
	  0.935213  -0.225409   0.273072,
	  0.684617  -0.186826  -0.704554,
	  0.226729   0.077359  -0.970881,
	 -0.959154   0.093747   0.266898,
	 -0.998297   0.058334   0.000000,
	 -0.959154   0.093747  -0.266898,
	 -0.259451  -0.547727  -0.795412,
	 -0.111494  -0.040967  -0.992920,
	 -0.810633  -0.365796   0.457238,
	  0.684617  -0.186826   0.704554,
	  0.226729   0.077359   0.970881,
	 -0.111494  -0.040967   0.992920,
	 -0.259451  -0.547727   0.795412,
	 -0.810633  -0.365796  -0.457238,
	  0.853607  -0.451630  -0.259585,
	  0.913986  -0.405746   0.000000,
	  0.853607  -0.451630   0.259585,
	  0.539673  -0.408757  -0.735983,
	  0.155303  -0.301564  -0.940713,
	 -0.957761   0.093357   0.271989,
	 -0.392285   0.066593   0.917430,
	 -0.991579   0.129503   0.000000,
	 -0.957761   0.093357  -0.271989,
	 -0.392285   0.066593  -0.917430,
	  0.131350  -0.048216  -0.990163,
	 -0.048959  -0.272996  -0.960769,
	 -0.292066  -0.709866  -0.640927,
	 -0.236878  -0.947588  -0.214396,
	  0.431641  -0.536878  -0.724878,
	  0.746939  -0.013062   0.664764,
	  0.539673  -0.408757   0.735983,
	  0.155303  -0.301564   0.940713,
	 -0.048959  -0.272996   0.960769,
	  0.131350  -0.048217   0.990163,
	 -0.236878  -0.947588   0.214396,
	 -0.292066  -0.709866   0.640927,
	  0.431641  -0.536879   0.724877,
	  0.746939  -0.013062  -0.664764,
	  0.886627  -0.348665  -0.303850,
	  0.845402  -0.534130   0.000000,
	  0.886627  -0.348665   0.303850,
	  0.554305  -0.306984  -0.773632,
	  0.113599  -0.325121  -0.938825,
	 -0.253806   0.879229   0.403162,
	 -0.199140   0.017848   0.979809,
	 -0.520744   0.853713   0.000000,
	 -0.253806   0.879229  -0.403162,
	 -0.199140   0.017848  -0.979809,
	 -0.133286   0.241875  -0.961109,
	 -0.118393  -0.158455  -0.980242,
	  0.553577   0.566972  -0.609997,
	 -0.623857  -0.523414  -0.580379,
	 -0.711351  -0.177436  -0.680071,
	 -0.573757  -0.683450  -0.451330,
	  0.708216  -0.618912  -0.339673,
	 -0.363451  -0.924859  -0.111977,
	  0.777296  -0.138162  -0.613776,
	  0.804051  -0.434969   0.405343,
	  0.998969  -0.045395   0.000000,
	 -0.177733   0.984079   0.000000,
	 -0.251850   0.571964   0.780659,
	  0.554305  -0.306984   0.773632,
	  0.113599  -0.325121   0.938825,
	 -0.118393  -0.158455   0.980242,
	 -0.133285   0.241875   0.961110,
	  0.553575   0.566972   0.609998,
	 -0.711351  -0.177436   0.680071,
	 -0.623857  -0.523414   0.580379,
	 -0.573757  -0.683450   0.451330,
	  0.708216  -0.618912   0.339673,
	  0.777295  -0.138164   0.613778,
	 -0.363451  -0.924859   0.111977,
	  0.804051  -0.434969  -0.405343,
	 -0.251850   0.571964  -0.780659,
	  0.795738   0.525058  -0.301852,
	  0.870510   0.492151   0.000000,
	  0.795738   0.525058   0.301852,
	  0.615450   0.604129  -0.506211,
	  0.329212   0.445155  -0.832740,
	 -0.029145   0.475388  -0.879293,
	  0.481059   0.786770  -0.386750,
	  0.232834   0.950292   0.206718,
	 -0.419582   0.696033   0.582657,
	  0.215958   0.976403   0.000000,
	  0.007844   0.909951  -0.414642,
	  0.232834   0.950292  -0.206718,
	  0.481057   0.786772   0.386748,
	 -0.419582   0.696033  -0.582657,
	  0.007844   0.909951   0.414643,
	 -0.058401   0.784836  -0.616945,
	  0.567591   0.633538  -0.525804,
	 -0.031322   0.010125  -0.999458,
	 -0.680523   0.515480  -0.520738,
	 -0.552970  -0.451448  -0.700299,
	 -0.742682  -0.274801   0.610662,
	 -0.824112   0.440146   0.356525,
	  0.051262   0.597849  -0.799968,
	 -0.122781   0.658703  -0.742318,
	  0.863896  -0.460745  -0.203464,
	  0.072939   0.127636  -0.989135,
	 -0.894270  -0.407249  -0.185553,
	  0.238146  -0.229985  -0.943607,
	 -0.885294   0.410856   0.217834,
	  0.654863  -0.588537   0.474109,
	  0.754592  -0.656194   0.000000,
	 -0.348314   0.690694  -0.633735,
	 -0.481756   0.876305   0.000000,
	 -0.597786   0.766804  -0.233802,
	 -0.718764   0.661344   0.214484,
	 -0.348314   0.690694   0.633735,
	 -0.597786   0.766804   0.233802,
	 -0.718764   0.661344  -0.214484,
	 -0.608738   0.499363   0.616502,
	  0.615450   0.604129   0.506211,
	  0.329212   0.445155   0.832740,
	 -0.029145   0.475388   0.879293,
	 -0.058403   0.784837   0.616945,
	  0.567588   0.633542   0.525803,
	  0.051262   0.597849   0.799968,
	 -0.552970  -0.451448   0.700299,
	 -0.122781   0.658703   0.742318,
	 -0.680523   0.515480   0.520738,
	 -0.031322   0.010125   0.999458,
	 -0.742682  -0.274801  -0.610662,
	 -0.824112   0.440146  -0.356525,
	  0.863896  -0.460745   0.203464,
	  0.072939   0.127636   0.989135,
	  0.238146  -0.229985   0.943607,
	 -0.894270  -0.407249   0.185553,
	 -0.885294   0.410856  -0.217834,
	  0.654863  -0.588537  -0.474109,
	 -0.608738   0.499363  -0.616502,
	 -0.558102   0.623917   0.547037,
	 -0.245521   0.346117   0.905496,
	 -0.558102   0.623917  -0.547037,
	 -0.245521   0.346117  -0.905496,
	 -0.873058  -0.217115  -0.436614,
	 -0.522164   0.620924  -0.584635,
	 -0.916688  -0.143941  -0.372779,
	 -0.570128   0.762782  -0.305153,
	 -0.592584   0.244617  -0.767468,
	 -0.951113  -0.298392  -0.079659,
	  0.241119  -0.959432  -0.146126,
	  0.026267  -0.878179   0.477610,
	  0.275857  -0.961199   0.000000,
	  0.026267  -0.878179  -0.477610,
	 -0.448482   0.566017  -0.691729,
	 -0.330002   0.700207  -0.633095,
	 -0.374630   0.927174   0.000000,
	 -0.448482   0.566017   0.691729,
	 -0.330002   0.700207   0.633095,
	 -0.570128   0.762782   0.305153,
	 -0.592584   0.244617   0.767468,
	 -0.951113  -0.298392   0.079659,
	 -0.522164   0.620924   0.584635,
	 -0.873058  -0.217115   0.436614,
	 -0.916688  -0.143941   0.372779,
	  0.241119  -0.959432   0.146126,
	 -0.396904   0.345087  -0.850518,
	 -0.702553  -0.669616   0.240902,
	 -0.438857  -0.769912  -0.463292,
	 -0.112523  -0.993649   0.000000,
	 -0.702553  -0.669616  -0.240902,
	 -0.438857  -0.769912   0.463292,
	 -0.581330   0.813668   0.000000,
	 -0.396904   0.345087   0.850518,
	  0.016737   0.283994  -0.958680,
	 -0.081909  -0.128292  -0.988348,
	  0.006583  -0.756498  -0.653963,
	 -0.246357  -0.969179   0.000001,
	  0.006583  -0.756498   0.653963,
	 -0.081909  -0.128292   0.988348,
	 -0.810156   0.185581  -0.556064,
	 -0.977763  -0.209714   0.000000,
	 -0.810153   0.185571   0.556072,
	  0.016739   0.283995   0.958680,
	 -0.417466  -0.608736  -0.674657,
	 -0.794453  -0.607325   0.000005,
	 -0.417459  -0.608738   0.674660,
     ]    } 
normalIndex      [ 
	     0,      1,      2, -1 
	     0,      3,      1, -1 
	     0,      4,      3, -1 
	     0,      5,      6, -1 
	     6,      7,      0, -1 
	     0,      7,      8, -1 
	     8,      4,      0, -1 
	     2,      9,      0, -1 
	     9,     10,      0, -1 
	    10,     11,      0, -1 
	    12,      5,      0, -1 
	     0,     13,     12, -1 
	    14,     13,      0, -1 
	     0,     11,     14, -1 
	     2,      1,     15, -1 
	    15,      1,      3, -1 
	    16,      2,     15, -1 
	    17,      9,      2, -1 
	    17,      2,     16, -1 
	    18,     15,      3, -1 
	    18,      3,      4, -1 
	    19,     18,      4, -1 
	    19,      4,      8, -1 
	    20,      6,      5, -1 
	    21,     20,      5, -1 
	     5,     12,     22, -1 
	     5,     22,     21, -1 
	     6,     20,      7, -1 
	     7,     23,     24, -1 
	     8,      7,     24, -1 
	    25,     23,      7, -1 
	    20,     25,      7, -1 
	    24,     19,      8, -1 
	    10,      9,     17, -1 
	    10,     17,     26, -1 
	    11,     10,     26, -1 
	    11,     26,     27, -1 
	    14,     11,     27, -1 
	    13,     22,     12, -1 
	    28,     29,     13, -1 
	    28,     13,     14, -1 
	    13,     29,     30, -1 
	    13,     30,     22, -1 
	    14,     27,     28, -1 
	    15,     31,     32, -1 
	    16,     15,     32, -1 
	    31,     15,     18, -1 
	    32,     17,     16, -1 
	    32,     33,     17, -1 
	    26,     17,     33, -1 
	    34,     31,     18, -1 
	    34,     18,     19, -1 
	    35,     34,     19, -1 
	    35,     19,     24, -1 
	    20,     21,     36, -1 
	    25,     20,     36, -1 
	    37,     36,     21, -1 
	    21,     38,     37, -1 
	    38,     21,     22, -1 
	    38,     22,     30, -1 
	    23,     39,     40, -1 
	    24,     23,     40, -1 
	    41,     23,     25, -1 
	    41,     39,     23, -1 
	    40,     35,     24, -1 
	    41,     25,     36, -1 
	    26,     33,     42, -1 
	    27,     26,     42, -1 
	    27,     42,     43, -1 
	    28,     27,     43, -1 
	    28,     43,     44, -1 
	    44,     29,     28, -1 
	    44,     45,     29, -1 
	    30,     29,     46, -1 
	    29,     45,     46, -1 
	    38,     30,     46, -1 
	    31,     47,     48, -1 
	    32,     31,     48, -1 
	    47,     31,     34, -1 
	    48,     33,     32, -1 
	    48,     49,     33, -1 
	    42,     33,     49, -1 
	    50,     47,     34, -1 
	    50,     34,     35, -1 
	    51,     50,     35, -1 
	    51,     35,     40, -1 
	    52,     36,     37, -1 
	    52,     53,     36, -1 
	    53,     41,     36, -1 
	    54,     52,     37, -1 
	    37,     38,     55, -1 
	    37,     55,     54, -1 
	    38,     56,     55, -1 
	    38,     46,     56, -1 
	    39,     57,     58, -1 
	    40,     39,     58, -1 
	    59,     39,     60, -1 
	    39,     59,     61, -1 
	    57,     39,     61, -1 
	    41,     60,     39, -1 
	    58,     51,     40, -1 
	    41,     62,     60, -1 
	    62,     41,     53, -1 
	    42,     49,     63, -1 
	    43,     42,     63, -1 
	    43,     63,     64, -1 
	    44,     43,     64, -1 
	    44,     64,     65, -1 
	    65,     45,     44, -1 
	    65,     66,     45, -1 
	    67,     45,     68, -1 
	    69,     68,     45, -1 
	    69,     45,     66, -1 
	    45,     67,     46, -1 
	    67,     70,     46, -1 
	    56,     46,     70, -1 
	    47,     71,     72, -1 
	    48,     47,     72, -1 
	    71,     47,     50, -1 
	    72,     49,     48, -1 
	    72,     73,     49, -1 
	    63,     49,     73, -1 
	    74,     71,     50, -1 
	    74,     50,     51, -1 
	    75,     74,     51, -1 
	    75,     51,     58, -1 
	    76,     52,     54, -1 
	    77,     53,     52, -1 
	    76,     77,     52, -1 
	    53,     77,     62, -1 
	    78,     76,     54, -1 
	    54,     55,     79, -1 
	    54,     79,     78, -1 
	    55,     56,     80, -1 
	    55,     80,     79, -1 
	    70,     80,     56, -1 
	    57,     81,     82, -1 
	    58,     57,     82, -1 
	    57,     61,     83, -1 
	    81,     57,     83, -1 
	    82,     75,     58, -1 
	    61,     59,     60, -1 
	    60,     84,     85, -1 
	    86,     60,     85, -1 
	    86,     61,     60, -1 
	    87,     84,     60, -1 
	    62,     87,     60, -1 
	    88,     89,     61, -1 
	    86,     88,     61, -1 
	    61,     89,     83, -1 
	    90,     62,     91, -1 
	    92,     91,     62, -1 
	    93,     92,     62, -1 
	    62,     90,     87, -1 
	    77,     93,     62, -1 
	    63,     73,     94, -1 
	    64,     63,     94, -1 
	    64,     94,     95, -1 
	    65,     64,     95, -1 
	    65,     95,     96, -1 
	    96,     66,     65, -1 
	    96,     97,     66, -1 
	    98,     69,     66, -1 
	    98,     66,     97, -1 
	    99,    100,     67, -1 
	    99,     67,    101, -1 
	    67,     68,     69, -1 
	    67,     69,    101, -1 
	    67,    100,    102, -1 
	    67,    102,     70, -1 
	    69,    103,    104, -1 
	    69,    104,    101, -1 
	    98,    103,     69, -1 
	    91,     70,    105, -1 
	    70,     91,     92, -1 
	    70,     92,    106, -1 
	   102,    105,     70, -1 
	    70,    106,     80, -1 
	    71,    107,    108, -1 
	    72,     71,    108, -1 
	   107,     71,     74, -1 
	   108,     73,     72, -1 
	   108,    109,     73, -1 
	    94,     73,    109, -1 
	   110,    107,     74, -1 
	    74,     75,    111, -1 
	   110,     74,    111, -1 
	    75,     82,    112, -1 
	   111,     75,    112, -1 
	    76,    113,    114, -1 
	   114,    115,     76, -1 
	   115,     93,     76, -1 
	    77,     76,     93, -1 
	   116,     76,     78, -1 
	   116,    117,     76, -1 
	    76,    117,    113, -1 
	    78,     79,    116, -1 
	   118,    119,     79, -1 
	    79,    120,    118, -1 
	    79,    106,    120, -1 
	   106,     79,     80, -1 
	    79,    121,    116, -1 
	   119,    121,     79, -1 
	    82,     81,    112, -1 
	    81,     83,    117, -1 
	    81,    117,    112, -1 
	    83,    113,    117, -1 
	    89,    122,     83, -1 
	   123,     83,    122, -1 
	   113,     83,    123, -1 
	    84,    124,    125, -1 
	    85,     84,    126, -1 
	    84,    127,    126, -1 
	    87,    124,     84, -1 
	   125,    128,     84, -1 
	   128,    127,     84, -1 
	    85,    126,    129, -1 
	   122,     86,     85, -1 
	   122,     85,    130, -1 
	   130,     85,    129, -1 
	   122,     88,     86, -1 
	   131,     87,     90, -1 
	    87,    131,    132, -1 
	   124,     87,    132, -1 
	    88,    133,    134, -1 
	    89,     88,    134, -1 
	    88,    135,    133, -1 
	   122,    135,     88, -1 
	    89,    134,    122, -1 
	   136,     90,    137, -1 
	   137,     90,     91, -1 
	   136,    131,     90, -1 
	    91,    105,    137, -1 
	    92,    138,    139, -1 
	   140,    138,     92, -1 
	   141,    140,     92, -1 
	    92,     93,    141, -1 
	   139,    142,     92, -1 
	    92,    142,    143, -1 
	    92,    143,    144, -1 
	   144,    106,     92, -1 
	    93,    145,    141, -1 
	   115,    145,     93, -1 
	    94,    109,    146, -1 
	   147,     95,     94, -1 
	   147,     94,    146, -1 
	   148,     96,     95, -1 
	   148,     95,    147, -1 
	   148,     97,     96, -1 
	   121,     98,     97, -1 
	   148,    121,     97, -1 
	   121,    119,     98, -1 
	    98,    149,    103, -1 
	   149,     98,    150, -1 
	   150,     98,    119, -1 
	   151,    152,     99, -1 
	   152,    100,     99, -1 
	    99,    101,    149, -1 
	   153,     99,    149, -1 
	   151,     99,    153, -1 
	   154,    155,    100, -1 
	   152,    156,    100, -1 
	   100,    155,    102, -1 
	   100,    157,    154, -1 
	   100,    156,    157, -1 
	   101,    104,    149, -1 
	   105,    102,    158, -1 
	   159,    158,    102, -1 
	   159,    102,    155, -1 
	   149,    160,    103, -1 
	   160,    104,    103, -1 
	   160,    161,    104, -1 
	   161,    162,    104, -1 
	   104,    162,    149, -1 
	   137,    105,    163, -1 
	   105,    158,    163, -1 
	   144,    164,    106, -1 
	   106,    164,    120, -1 
	   116,    107,    110, -1 
	   116,    108,    107, -1 
	   109,    108,    116, -1 
	   146,    109,    116, -1 
	   116,    110,    111, -1 
	   116,    111,    112, -1 
	   116,    112,    117, -1 
	   123,    114,    113, -1 
	   114,    123,    129, -1 
	   114,    129,    165, -1 
	   166,    114,    165, -1 
	   166,    145,    114, -1 
	   115,    114,    145, -1 
	   147,    146,    116, -1 
	   148,    147,    116, -1 
	   121,    148,    116, -1 
	   119,    118,    150, -1 
	   151,    150,    118, -1 
	   167,    151,    118, -1 
	   167,    118,    168, -1 
	   118,    164,    168, -1 
	   164,    118,    120, -1 
	   134,    135,    122, -1 
	   130,    123,    122, -1 
	   123,    130,    129, -1 
	   125,    124,    132, -1 
	   169,    170,    125, -1 
	   171,    169,    125, -1 
	   132,    171,    125, -1 
	   172,    125,    170, -1 
	   125,    172,    128, -1 
	   126,    173,    129, -1 
	   174,    173,    126, -1 
	   174,    126,    127, -1 
	   165,    174,    127, -1 
	   166,    165,    127, -1 
	   127,    128,    145, -1 
	   166,    127,    145, -1 
	   145,    128,    141, -1 
	   140,    128,    172, -1 
	   141,    128,    140, -1 
	   165,    129,    173, -1 
	   131,    175,    132, -1 
	   136,    175,    131, -1 
	   175,    171,    132, -1 
	   133,    135,    134, -1 
	   176,    136,    137, -1 
	   176,    175,    136, -1 
	   177,    176,    137, -1 
	   137,    163,    178, -1 
	   137,    178,    177, -1 
	   139,    138,    179, -1 
	   138,    140,    179, -1 
	   180,    181,    139, -1 
	   179,    180,    139, -1 
	   182,    142,    139, -1 
	   139,    181,    183, -1 
	   139,    183,    182, -1 
	   140,    172,    179, -1 
	   182,    143,    142, -1 
	   182,    184,    143, -1 
	   184,    157,    143, -1 
	   143,    157,    144, -1 
	   144,    157,    164, -1 
	   149,    162,    160, -1 
	   149,    150,    153, -1 
	   151,    153,    150, -1 
	   151,    185,    152, -1 
	   185,    151,    167, -1 
	   152,    185,    186, -1 
	   156,    152,    186, -1 
	   159,    155,    154, -1 
	   154,    187,    188, -1 
	   154,    188,    189, -1 
	   154,    189,    159, -1 
	   187,    154,    184, -1 
	   157,    184,    154, -1 
	   156,    186,    167, -1 
	   156,    167,    168, -1 
	   164,    157,    156, -1 
	   164,    156,    168, -1 
	   159,    190,    158, -1 
	   158,    190,    163, -1 
	   159,    189,    190, -1 
	   160,    162,    161, -1 
	   163,    190,    178, -1 
	   174,    165,    173, -1 
	   185,    167,    186, -1 
	   170,    169,    191, -1 
	   169,    192,    193, -1 
	   191,    169,    193, -1 
	   169,    171,    192, -1 
	   172,    170,    180, -1 
	   180,    170,    191, -1 
	   171,    175,    192, -1 
	   179,    172,    180, -1 
	   192,    175,    176, -1 
	   193,    192,    176, -1 
	   194,    193,    176, -1 
	   194,    176,    177, -1 
	   177,    178,    194, -1 
	   178,    190,    195, -1 
	   178,    195,    196, -1 
	   178,    196,    194, -1 
	   180,    191,    181, -1 
	   191,    197,    181, -1 
	   181,    197,    198, -1 
	   181,    198,    183, -1 
	   183,    184,    182, -1 
	   183,    187,    184, -1 
	   198,    187,    183, -1 
	   198,    188,    187, -1 
	   196,    195,    188, -1 
	   196,    188,    198, -1 
	   195,    189,    188, -1 
	   195,    190,    189, -1 
	   191,    199,    197, -1 
	   191,    193,    200, -1 
	   199,    191,    200, -1 
	   193,    194,    201, -1 
	   200,    193,    201, -1 
	   202,    201,    194, -1 
	   194,    203,    202, -1 
	   203,    194,    196, -1 
	   204,    196,    198, -1 
	   203,    196,    204, -1 
	   199,    205,    197, -1 
	   197,    205,    206, -1 
	   197,    207,    208, -1 
	   197,    208,    198, -1 
	   206,    207,    197, -1 
	   204,    198,    208, -1 
	   199,    200,    201, -1 
	   209,    199,    201, -1 
	   199,    209,    205, -1 
	   209,    201,    202, -1 
	   210,    209,    202, -1 
	   202,    203,    211, -1 
	   202,    211,    210, -1 
	   203,    204,    208, -1 
	   203,    208,    211, -1 
	   205,    209,    210, -1 
	   206,    205,    210, -1 
	   210,    207,    206, -1 
	   210,    211,    207, -1 
	   207,    211,    208, -1 
    ] 
normalPerVertex  TRUE 
   } 
  } 
 ] 
} 
