#VRML V2.0 utf8 
Transform { 
 children [ 
    Shape { 
   geometry IndexedFaceSet { 
   solid FALSE 
    coord DEF bone Coordinate{ 
     point [ 
	 -0.001897  -0.026697   0.000000,
	  0.011833  -0.028694  -0.009271,
	  0.010794  -0.031780   0.000000,
	  0.006926  -0.027308  -0.018973,
	  0.002707  -0.027447  -0.023697,
	 -0.015609  -0.020456   0.000000,
	 -0.015586  -0.020857  -0.005568,
	 -0.015886  -0.020403  -0.016493,
	 -0.010122  -0.020398  -0.023835,
	  0.011833  -0.028694   0.009271,
	  0.006926  -0.027308   0.018973,
	  0.002707  -0.027447   0.023697,
	 -0.015586  -0.020857   0.005568,
	 -0.015886  -0.020403   0.016493,
	 -0.010122  -0.020398   0.023835,
	  0.012786  -0.027694  -0.011135,
	  0.012825  -0.026948   0.000000,
	  0.012786  -0.027694   0.011135,
	  0.005999  -0.023940  -0.018324,
	  0.002713  -0.021167  -0.022277,
	 -0.015083  -0.016872  -0.005208,
	 -0.015079  -0.017031   0.000000,
	 -0.015083  -0.016872   0.005208,
	 -0.014696  -0.014980  -0.016841,
	 -0.009062  -0.019576  -0.022444,
	 -0.015781  -0.015018  -0.009944,
	  0.005999  -0.023940   0.018324,
	  0.002713  -0.021167   0.022277,
	 -0.009062  -0.019576   0.022444,
	 -0.014696  -0.014980   0.016841,
	 -0.015781  -0.015018   0.009944,
	  0.014172  -0.020610  -0.010839,
	  0.011879  -0.021293   0.000000,
	  0.014172  -0.020610   0.010839,
	  0.010107  -0.019632  -0.017864,
	  0.003708  -0.016197  -0.020258,
	 -0.013566  -0.009845  -0.006689,
	 -0.013021  -0.009906   0.000000,
	 -0.013566  -0.009845   0.006689,
	 -0.012589  -0.011639  -0.020082,
	 -0.006374  -0.012488  -0.021237,
	 -0.015467  -0.008830  -0.010260,
	  0.010107  -0.019632   0.017864,
	  0.003708  -0.016197   0.020258,
	 -0.006374  -0.012488   0.021237,
	 -0.012589  -0.011639   0.020082,
	 -0.015467  -0.008830   0.010260,
	  0.014154  -0.012408  -0.010455,
	  0.015945  -0.011399   0.000000,
	  0.014154  -0.012408   0.010455,
	  0.011504  -0.010733  -0.018550,
	  0.006154  -0.009616  -0.020348,
	 -0.014104  -0.002372  -0.006911,
	 -0.016165  -0.001482  -0.010728,
	 -0.013288  -0.002397   0.000000,
	 -0.014104  -0.002372   0.006911,
	 -0.016165  -0.001482   0.010728,
	 -0.009819  -0.005098  -0.021807,
	 -0.004838  -0.007177  -0.021386,
	 -0.015597  -0.008247  -0.022188,
	 -0.019370  -0.010933  -0.018091,
	 -0.016995  -0.003996  -0.026540,
	 -0.023912  -0.004523  -0.003911,
	  0.011504  -0.010733   0.018550,
	  0.006154  -0.009616   0.020348,
	 -0.004838  -0.007177   0.021386,
	 -0.009819  -0.005098   0.021807,
	 -0.019370  -0.010933   0.018091,
	 -0.015597  -0.008247   0.022188,
	 -0.016995  -0.003996   0.026540,
	 -0.023912  -0.004523   0.003911,
	  0.020327  -0.007394  -0.011570,
	  0.021088  -0.007060   0.000000,
	  0.020327  -0.007394   0.011570,
	  0.014529  -0.006810  -0.019637,
	  0.007684  -0.006189  -0.022504,
	 -0.012970   0.006002  -0.008823,
	 -0.014205   0.004189  -0.011520,
	 -0.011378   0.004618   0.000000,
	 -0.012970   0.006002   0.008823,
	 -0.014205   0.004189   0.011520,
	 -0.009885   0.000092  -0.021070,
	 -0.001405  -0.002721  -0.023599,
	 -0.016488   0.002766  -0.021124,
	 -0.025553  -0.004743  -0.018198,
	 -0.026228   0.000495  -0.024502,
	 -0.022650  -0.007937  -0.026213,
	 -0.022313  -0.010865  -0.011135,
	 -0.023129  -0.005212  -0.030672,
	 -0.020845  -0.002200  -0.033740,
	 -0.026719  -0.014428  -0.005388,
	 -0.024578  -0.006069   0.000000,
	 -0.032855   0.001071   0.000000,
	 -0.024529   0.002828  -0.008145,
	  0.014529  -0.006810   0.019637,
	  0.007684  -0.006189   0.022504,
	 -0.001405  -0.002721   0.023599,
	 -0.009885   0.000092   0.021070,
	 -0.016488   0.002766   0.021124,
	 -0.026228   0.000495   0.024502,
	 -0.025553  -0.004743   0.018198,
	 -0.022650  -0.007937   0.026213,
	 -0.022313  -0.010865   0.011135,
	 -0.020845  -0.002200   0.033740,
	 -0.023129  -0.005212   0.030672,
	 -0.026719  -0.014428   0.005388,
	 -0.024529   0.002828   0.008145,
	  0.019529  -0.001832  -0.011782,
	  0.020490  -0.001727   0.000000,
	  0.019529  -0.001832   0.011782,
	  0.015473  -0.001289  -0.019907,
	  0.007898   0.000334  -0.023593,
	 -0.002063   0.001663  -0.023745,
	 -0.015745   0.004774  -0.014915,
	 -0.020593   0.012812  -0.016931,
	 -0.021135   0.009723  -0.010630,
	  0.005297   0.001324   0.000000,
	 -0.011002   0.005068  -0.018112,
	 -0.020593   0.012812   0.016931,
	 -0.015745   0.004774   0.014915,
	 -0.021135   0.009723   0.010630,
	 -0.011002   0.005068   0.018112,
	 -0.021714   0.004538  -0.030109,
	 -0.019759   0.007771  -0.019473,
	 -0.030514  -0.009213  -0.016388,
	 -0.035668  -0.009828  -0.013384,
	 -0.031438   0.003550  -0.022347,
	 -0.032315   0.002260  -0.015006,
	 -0.030374   0.000125  -0.013416,
	 -0.028783   0.013052  -0.020620,
	 -0.024387   0.007047  -0.022534,
	 -0.024991  -0.017500  -0.012693,
	 -0.036779  -0.012052  -0.018062,
	 -0.027241  -0.002870  -0.034038,
	 -0.024872  -0.000832  -0.037326,
	 -0.026294   0.005310  -0.034516,
	 -0.028433  -0.018397  -0.007075,
	 -0.029730  -0.012517   0.000000,
	 -0.035030  -0.002579  -0.005224,
	 -0.044707  -0.004349   0.000000,
	 -0.031179  -0.004742  -0.008771,
	 -0.029786  -0.001926  -0.011001,
	 -0.035030  -0.002579   0.005224,
	 -0.031179  -0.004742   0.008771,
	 -0.029786  -0.001926   0.011001,
	 -0.025538   0.003689  -0.012003,
	  0.015473  -0.001289   0.019907,
	  0.007898   0.000334   0.023593,
	 -0.002063   0.001663   0.023745,
	 -0.021714   0.004538   0.030109,
	 -0.019759   0.007771   0.019473,
	 -0.028783   0.013052   0.020620,
	 -0.031438   0.003550   0.022347,
	 -0.024387   0.007047   0.022534,
	 -0.035668  -0.009828   0.013384,
	 -0.030514  -0.009213   0.016388,
	 -0.032315   0.002260   0.015006,
	 -0.030374   0.000125   0.013416,
	 -0.024991  -0.017500   0.012693,
	 -0.036779  -0.012052   0.018062,
	 -0.024872  -0.000832   0.037326,
	 -0.027241  -0.002870   0.034038,
	 -0.026294   0.005310   0.034516,
	 -0.028433  -0.018397   0.007075,
	 -0.025538   0.003689   0.012003,
	 -0.035678   0.010996  -0.017281,
	 -0.029219   0.006727  -0.014735,
	 -0.035678   0.010996   0.017281,
	 -0.029219   0.006727   0.014735,
	 -0.040740  -0.013974  -0.010277,
	 -0.039179  -0.010050  -0.010861,
	 -0.038699  -0.018032  -0.017807,
	 -0.034914  -0.007589  -0.009358,
	 -0.034152   0.008888  -0.022856,
	 -0.036738   0.006807  -0.017753,
	 -0.032170  -0.026375  -0.014104,
	 -0.031922  -0.020209  -0.005620,
	 -0.034040  -0.017555   0.000000,
	 -0.031922  -0.020209   0.005620,
	 -0.040361  -0.006242  -0.004411,
	 -0.044755  -0.009590  -0.004293,
	 -0.051171  -0.005415   0.000000,
	 -0.040361  -0.006242   0.004411,
	 -0.044755  -0.009590   0.004293,
	 -0.034914  -0.007589   0.009358,
	 -0.034152   0.008888   0.022856,
	 -0.036738   0.006807   0.017753,
	 -0.039179  -0.010050   0.010861,
	 -0.040740  -0.013974   0.010277,
	 -0.038699  -0.018032   0.017807,
	 -0.032170  -0.026375   0.014104,
	 -0.045552  -0.010045  -0.004482,
	 -0.037402  -0.018866  -0.008077,
	 -0.043176  -0.012204  -0.005259,
	 -0.043998  -0.015020   0.000000,
	 -0.037402  -0.018866   0.008077,
	 -0.043176  -0.012204   0.005259,
	 -0.053371  -0.007790   0.000000,
	 -0.045552  -0.010045   0.004482,
	 -0.048480  -0.011308  -0.004884,
	 -0.046778  -0.013016  -0.004902,
	 -0.048342  -0.014986  -0.003805,
	 -0.049659  -0.015118   0.000000,
	 -0.048342  -0.014986   0.003805,
	 -0.046778  -0.013016   0.004902,
	 -0.052986  -0.010721  -0.004946,
	 -0.053831  -0.011418   0.000000,
	 -0.052986  -0.010721   0.004946,
	 -0.048480  -0.011308   0.004884,
	 -0.052471  -0.012951  -0.005763,
	 -0.052158  -0.014130   0.000000,
	 -0.052471  -0.012951   0.005763,
     ]    } 
    coordIndex [ 
	     0,      1,      2, -1 
	     0,      3,      1, -1 
	     0,      4,      3, -1 
	     0,      5,      6, -1 
	     6,      7,      0, -1 
	     0,      7,      8, -1 
	     8,      4,      0, -1 
	     2,      9,      0, -1 
	     9,     10,      0, -1 
	    10,     11,      0, -1 
	    12,      5,      0, -1 
	     0,     13,     12, -1 
	    14,     13,      0, -1 
	     0,     11,     14, -1 
	     2,      1,     15, -1 
	    15,      1,      3, -1 
	    16,      2,     15, -1 
	    17,      9,      2, -1 
	    17,      2,     16, -1 
	    18,     15,      3, -1 
	    18,      3,      4, -1 
	    19,     18,      4, -1 
	    19,      4,      8, -1 
	    20,      6,      5, -1 
	    21,     20,      5, -1 
	     5,     12,     22, -1 
	     5,     22,     21, -1 
	     6,     20,      7, -1 
	     7,     23,     24, -1 
	     8,      7,     24, -1 
	    25,     23,      7, -1 
	    20,     25,      7, -1 
	    24,     19,      8, -1 
	    10,      9,     17, -1 
	    10,     17,     26, -1 
	    11,     10,     26, -1 
	    11,     26,     27, -1 
	    14,     11,     27, -1 
	    13,     22,     12, -1 
	    28,     29,     13, -1 
	    28,     13,     14, -1 
	    13,     29,     30, -1 
	    13,     30,     22, -1 
	    14,     27,     28, -1 
	    15,     31,     32, -1 
	    16,     15,     32, -1 
	    31,     15,     18, -1 
	    32,     17,     16, -1 
	    32,     33,     17, -1 
	    26,     17,     33, -1 
	    34,     31,     18, -1 
	    34,     18,     19, -1 
	    35,     34,     19, -1 
	    35,     19,     24, -1 
	    20,     21,     36, -1 
	    25,     20,     36, -1 
	    37,     36,     21, -1 
	    21,     38,     37, -1 
	    38,     21,     22, -1 
	    38,     22,     30, -1 
	    23,     39,     40, -1 
	    24,     23,     40, -1 
	    41,     23,     25, -1 
	    41,     39,     23, -1 
	    40,     35,     24, -1 
	    41,     25,     36, -1 
	    26,     33,     42, -1 
	    27,     26,     42, -1 
	    27,     42,     43, -1 
	    28,     27,     43, -1 
	    28,     43,     44, -1 
	    44,     29,     28, -1 
	    44,     45,     29, -1 
	    30,     29,     46, -1 
	    29,     45,     46, -1 
	    38,     30,     46, -1 
	    31,     47,     48, -1 
	    32,     31,     48, -1 
	    47,     31,     34, -1 
	    48,     33,     32, -1 
	    48,     49,     33, -1 
	    42,     33,     49, -1 
	    50,     47,     34, -1 
	    50,     34,     35, -1 
	    51,     50,     35, -1 
	    51,     35,     40, -1 
	    52,     36,     37, -1 
	    52,     53,     36, -1 
	    53,     41,     36, -1 
	    54,     52,     37, -1 
	    37,     38,     55, -1 
	    37,     55,     54, -1 
	    38,     56,     55, -1 
	    38,     46,     56, -1 
	    39,     57,     58, -1 
	    40,     39,     58, -1 
	    59,     39,     60, -1 
	    39,     59,     61, -1 
	    57,     39,     61, -1 
	    41,     60,     39, -1 
	    58,     51,     40, -1 
	    41,     62,     60, -1 
	    62,     41,     53, -1 
	    42,     49,     63, -1 
	    43,     42,     63, -1 
	    43,     63,     64, -1 
	    44,     43,     64, -1 
	    44,     64,     65, -1 
	    65,     45,     44, -1 
	    65,     66,     45, -1 
	    67,     45,     68, -1 
	    69,     68,     45, -1 
	    69,     45,     66, -1 
	    45,     67,     46, -1 
	    67,     70,     46, -1 
	    56,     46,     70, -1 
	    47,     71,     72, -1 
	    48,     47,     72, -1 
	    71,     47,     50, -1 
	    72,     49,     48, -1 
	    72,     73,     49, -1 
	    63,     49,     73, -1 
	    74,     71,     50, -1 
	    74,     50,     51, -1 
	    75,     74,     51, -1 
	    75,     51,     58, -1 
	    76,     52,     54, -1 
	    77,     53,     52, -1 
	    76,     77,     52, -1 
	    53,     77,     62, -1 
	    78,     76,     54, -1 
	    54,     55,     79, -1 
	    54,     79,     78, -1 
	    55,     56,     80, -1 
	    55,     80,     79, -1 
	    70,     80,     56, -1 
	    57,     81,     82, -1 
	    58,     57,     82, -1 
	    57,     61,     83, -1 
	    81,     57,     83, -1 
	    82,     75,     58, -1 
	    61,     59,     60, -1 
	    60,     84,     85, -1 
	    86,     60,     85, -1 
	    86,     61,     60, -1 
	    87,     84,     60, -1 
	    62,     87,     60, -1 
	    88,     89,     61, -1 
	    86,     88,     61, -1 
	    61,     89,     83, -1 
	    90,     62,     91, -1 
	    92,     91,     62, -1 
	    93,     92,     62, -1 
	    62,     90,     87, -1 
	    77,     93,     62, -1 
	    63,     73,     94, -1 
	    64,     63,     94, -1 
	    64,     94,     95, -1 
	    65,     64,     95, -1 
	    65,     95,     96, -1 
	    96,     66,     65, -1 
	    96,     97,     66, -1 
	    98,     69,     66, -1 
	    98,     66,     97, -1 
	    99,    100,     67, -1 
	    99,     67,    101, -1 
	    67,     68,     69, -1 
	    67,     69,    101, -1 
	    67,    100,    102, -1 
	    67,    102,     70, -1 
	    69,    103,    104, -1 
	    69,    104,    101, -1 
	    98,    103,     69, -1 
	    91,     70,    105, -1 
	    70,     91,     92, -1 
	    70,     92,    106, -1 
	   102,    105,     70, -1 
	    70,    106,     80, -1 
	    71,    107,    108, -1 
	    72,     71,    108, -1 
	   107,     71,     74, -1 
	   108,     73,     72, -1 
	   108,    109,     73, -1 
	    94,     73,    109, -1 
	   110,    107,     74, -1 
	    74,     75,    111, -1 
	   110,     74,    111, -1 
	    75,     82,    112, -1 
	   111,     75,    112, -1 
	    76,    113,    114, -1 
	   114,    115,     76, -1 
	   115,     93,     76, -1 
	    77,     76,     93, -1 
	   116,     76,     78, -1 
	   116,    117,     76, -1 
	    76,    117,    113, -1 
	    78,     79,    116, -1 
	   118,    119,     79, -1 
	    79,    120,    118, -1 
	    79,    106,    120, -1 
	   106,     79,     80, -1 
	    79,    121,    116, -1 
	   119,    121,     79, -1 
	    82,     81,    112, -1 
	    81,     83,    117, -1 
	    81,    117,    112, -1 
	    83,    113,    117, -1 
	    89,    122,     83, -1 
	   123,     83,    122, -1 
	   113,     83,    123, -1 
	    84,    124,    125, -1 
	    85,     84,    126, -1 
	    84,    127,    126, -1 
	    87,    124,     84, -1 
	   125,    128,     84, -1 
	   128,    127,     84, -1 
	    85,    126,    129, -1 
	   122,     86,     85, -1 
	   122,     85,    130, -1 
	   130,     85,    129, -1 
	   122,     88,     86, -1 
	   131,     87,     90, -1 
	    87,    131,    132, -1 
	   124,     87,    132, -1 
	    88,    133,    134, -1 
	    89,     88,    134, -1 
	    88,    135,    133, -1 
	   122,    135,     88, -1 
	    89,    134,    122, -1 
	   136,     90,    137, -1 
	   137,     90,     91, -1 
	   136,    131,     90, -1 
	    91,    105,    137, -1 
	    92,    138,    139, -1 
	   140,    138,     92, -1 
	   141,    140,     92, -1 
	    92,     93,    141, -1 
	   139,    142,     92, -1 
	    92,    142,    143, -1 
	    92,    143,    144, -1 
	   144,    106,     92, -1 
	    93,    145,    141, -1 
	   115,    145,     93, -1 
	    94,    109,    146, -1 
	   147,     95,     94, -1 
	   147,     94,    146, -1 
	   148,     96,     95, -1 
	   148,     95,    147, -1 
	   148,     97,     96, -1 
	   121,     98,     97, -1 
	   148,    121,     97, -1 
	   121,    119,     98, -1 
	    98,    149,    103, -1 
	   149,     98,    150, -1 
	   150,     98,    119, -1 
	   151,    152,     99, -1 
	   152,    100,     99, -1 
	    99,    101,    149, -1 
	   153,     99,    149, -1 
	   151,     99,    153, -1 
	   154,    155,    100, -1 
	   152,    156,    100, -1 
	   100,    155,    102, -1 
	   100,    157,    154, -1 
	   100,    156,    157, -1 
	   101,    104,    149, -1 
	   105,    102,    158, -1 
	   159,    158,    102, -1 
	   159,    102,    155, -1 
	   149,    160,    103, -1 
	   160,    104,    103, -1 
	   160,    161,    104, -1 
	   161,    162,    104, -1 
	   104,    162,    149, -1 
	   137,    105,    163, -1 
	   105,    158,    163, -1 
	   144,    164,    106, -1 
	   106,    164,    120, -1 
	   116,    107,    110, -1 
	   116,    108,    107, -1 
	   109,    108,    116, -1 
	   146,    109,    116, -1 
	   116,    110,    111, -1 
	   116,    111,    112, -1 
	   116,    112,    117, -1 
	   123,    114,    113, -1 
	   114,    123,    129, -1 
	   114,    129,    165, -1 
	   166,    114,    165, -1 
	   166,    145,    114, -1 
	   115,    114,    145, -1 
	   147,    146,    116, -1 
	   148,    147,    116, -1 
	   121,    148,    116, -1 
	   119,    118,    150, -1 
	   151,    150,    118, -1 
	   167,    151,    118, -1 
	   167,    118,    168, -1 
	   118,    164,    168, -1 
	   164,    118,    120, -1 
	   134,    135,    122, -1 
	   130,    123,    122, -1 
	   123,    130,    129, -1 
	   125,    124,    132, -1 
	   169,    170,    125, -1 
	   171,    169,    125, -1 
	   132,    171,    125, -1 
	   172,    125,    170, -1 
	   125,    172,    128, -1 
	   126,    173,    129, -1 
	   174,    173,    126, -1 
	   174,    126,    127, -1 
	   165,    174,    127, -1 
	   166,    165,    127, -1 
	   127,    128,    145, -1 
	   166,    127,    145, -1 
	   145,    128,    141, -1 
	   140,    128,    172, -1 
	   141,    128,    140, -1 
	   165,    129,    173, -1 
	   131,    175,    132, -1 
	   136,    175,    131, -1 
	   175,    171,    132, -1 
	   133,    135,    134, -1 
	   176,    136,    137, -1 
	   176,    175,    136, -1 
	   177,    176,    137, -1 
	   137,    163,    178, -1 
	   137,    178,    177, -1 
	   139,    138,    179, -1 
	   138,    140,    179, -1 
	   180,    181,    139, -1 
	   179,    180,    139, -1 
	   182,    142,    139, -1 
	   139,    181,    183, -1 
	   139,    183,    182, -1 
	   140,    172,    179, -1 
	   182,    143,    142, -1 
	   182,    184,    143, -1 
	   184,    157,    143, -1 
	   143,    157,    144, -1 
	   144,    157,    164, -1 
	   149,    162,    160, -1 
	   149,    150,    153, -1 
	   151,    153,    150, -1 
	   151,    185,    152, -1 
	   185,    151,    167, -1 
	   152,    185,    186, -1 
	   156,    152,    186, -1 
	   159,    155,    154, -1 
	   154,    187,    188, -1 
	   154,    188,    189, -1 
	   154,    189,    159, -1 
	   187,    154,    184, -1 
	   157,    184,    154, -1 
	   156,    186,    167, -1 
	   156,    167,    168, -1 
	   164,    157,    156, -1 
	   164,    156,    168, -1 
	   159,    190,    158, -1 
	   158,    190,    163, -1 
	   159,    189,    190, -1 
	   160,    162,    161, -1 
	   163,    190,    178, -1 
	   174,    165,    173, -1 
	   185,    167,    186, -1 
	   170,    169,    191, -1 
	   169,    192,    193, -1 
	   191,    169,    193, -1 
	   169,    171,    192, -1 
	   172,    170,    180, -1 
	   180,    170,    191, -1 
	   171,    175,    192, -1 
	   179,    172,    180, -1 
	   192,    175,    176, -1 
	   193,    192,    176, -1 
	   194,    193,    176, -1 
	   194,    176,    177, -1 
	   177,    178,    194, -1 
	   178,    190,    195, -1 
	   178,    195,    196, -1 
	   178,    196,    194, -1 
	   180,    191,    181, -1 
	   191,    197,    181, -1 
	   181,    197,    198, -1 
	   181,    198,    183, -1 
	   183,    184,    182, -1 
	   183,    187,    184, -1 
	   198,    187,    183, -1 
	   198,    188,    187, -1 
	   196,    195,    188, -1 
	   196,    188,    198, -1 
	   195,    189,    188, -1 
	   195,    190,    189, -1 
	   191,    199,    197, -1 
	   191,    193,    200, -1 
	   199,    191,    200, -1 
	   193,    194,    201, -1 
	   200,    193,    201, -1 
	   202,    201,    194, -1 
	   194,    203,    202, -1 
	   203,    194,    196, -1 
	   204,    196,    198, -1 
	   203,    196,    204, -1 
	   199,    205,    197, -1 
	   197,    205,    206, -1 
	   197,    207,    208, -1 
	   197,    208,    198, -1 
	   206,    207,    197, -1 
	   204,    198,    208, -1 
	   199,    200,    201, -1 
	   209,    199,    201, -1 
	   199,    209,    205, -1 
	   209,    201,    202, -1 
	   210,    209,    202, -1 
	   202,    203,    211, -1 
	   202,    211,    210, -1 
	   203,    204,    208, -1 
	   203,    208,    211, -1 
	   205,    209,    210, -1 
	   206,    205,    210, -1 
	   210,    207,    206, -1 
	   210,    211,    207, -1 
	   207,    211,    208, -1 
    ] 
   colorPerVertex FALSE 
    colorIndex [ 
	  1, 
	  1, 
	  1, 
	  1, 
	  1, 
	  1, 
	  1, 
	  1, 
	  1, 
	  1, 
	  1, 
	  1, 
	  1, 
	  1, 
	  1, 
	  1, 
	  1, 
	  1, 
	  1, 
	  1, 
	  1, 
	  1, 
	  1, 
	  1, 
	  1, 
	  1, 
	  1, 
	  1, 
	  1, 
	  1, 
	  1, 
	  1, 
	  1, 
	  1, 
	  1, 
	  1, 
	  1, 
	  1, 
	  1, 
	  1, 
	  1, 
	  1, 
	  1, 
	  1, 
	  1, 
	  1, 
	  1, 
	  1, 
	  1, 
	  1, 
	  1, 
	  1, 
	  1, 
	  1, 
	  1, 
	  1, 
	  1, 
	  1, 
	  1, 
	  1, 
	  1, 
	  1, 
	  1, 
	  1, 
	  1, 
	  1, 
	  1, 
	  1, 
	  1, 
	  1, 
	  1, 
	  1, 
	  1, 
	  1, 
	  1, 
	  1, 
	  1, 
	  1, 
	  1, 
	  1, 
	  1, 
	  1, 
	  1, 
	  1, 
	  1, 
	  1, 
	  1, 
	  1, 
	  1, 
	  1, 
	  1, 
	  1, 
	  1, 
	  1, 
	  1, 
	  1, 
	  1, 
	  1, 
	  1, 
	  1, 
	  1, 
	  1, 
	  1, 
	  1, 
	  1, 
	  1, 
	  1, 
	  1, 
	  1, 
	  1, 
	  1, 
	  1, 
	  1, 
	  1, 
	  1, 
	  1, 
	  1, 
	  1, 
	  1, 
	  1, 
	  1, 
	  1, 
	  1, 
	  1, 
	  1, 
	  1, 
	  1, 
	  1, 
	  1, 
	  1, 
	  1, 
	  1, 
	  1, 
	  1, 
	  1, 
	  1, 
	  1, 
	  1, 
	  1, 
	  1, 
	  1, 
	  1, 
	  1, 
	  1, 
	  1, 
	  1, 
	  1, 
	  1, 
	  1, 
	  1, 
	  1, 
	  1, 
	  1, 
	  1, 
	  1, 
	  1, 
	  1, 
	  1, 
	  1, 
	  1, 
	  1, 
	  1, 
	  1, 
	  1, 
	  1, 
	  1, 
	  1, 
	  1, 
	  1, 
	  1, 
	  1, 
	  1, 
	  1, 
	  1, 
	  1, 
	  1, 
	  1, 
	  1, 
	  1, 
	  1, 
	  1, 
	  1, 
	  1, 
	  1, 
	  1, 
	  1, 
	  1, 
	  1, 
	  1, 
	  1, 
	  1, 
	  1, 
	  1, 
	  1, 
	  1, 
	  1, 
	  1, 
	  1, 
	  1, 
	  1, 
	  1, 
	  1, 
	  1, 
	  1, 
	  1, 
	  1, 
	  1, 
	  1, 
	  1, 
	  1, 
	  1, 
	  1, 
    ] 
normal Normal { 
vector [ 
	 -0.297086  -0.954851   0.000000,
	  0.069036  -0.966683  -0.246491,
	  0.429621  -0.903009   0.000000,
	  0.517627  -0.708372  -0.479866,
	  0.416427  -0.435535  -0.798059,
	 -0.967171  -0.254127   0.000000,
	 -0.868843  -0.494790   0.017174,
	 -0.955839  -0.139879  -0.258470,
	 -0.363070   0.044160  -0.930715,
	  0.069036  -0.966683   0.246491,
	  0.517627  -0.708372   0.479866,
	  0.416427  -0.435535   0.798059,
	 -0.868843  -0.494790  -0.017174,
	 -0.955839  -0.139879   0.258470,
	 -0.363070   0.044160   0.930715,
	  0.895971  -0.343282  -0.281769,
	  0.993271  -0.115817   0.000000,
	  0.895971  -0.343282   0.281769,
	  0.747101  -0.062899  -0.661728,
	  0.398804   0.257689  -0.880086,
	 -0.989785   0.127984   0.062812,
	 -0.976705   0.214587   0.000000,
	 -0.989785   0.127984  -0.062812,
	 -0.821460   0.061090  -0.566985,
	 -0.232828   0.507157  -0.829809,
	 -0.989544   0.095647   0.107954,
	  0.747101  -0.062899   0.661728,
	  0.398804   0.257689   0.880086,
	 -0.232828   0.507157   0.829809,
	 -0.821460   0.061090   0.566985,
	 -0.989544   0.095647  -0.107954,
	  0.935213  -0.225409  -0.273072,
	  0.990082  -0.140494   0.000000,
	  0.935213  -0.225409   0.273072,
	  0.684617  -0.186826  -0.704554,
	  0.226729   0.077359  -0.970881,
	 -0.959154   0.093747   0.266898,
	 -0.998297   0.058334   0.000000,
	 -0.959154   0.093747  -0.266898,
	 -0.259451  -0.547727  -0.795412,
	 -0.111494  -0.040967  -0.992920,
	 -0.810633  -0.365796   0.457238,
	  0.684617  -0.186826   0.704554,
	  0.226729   0.077359   0.970881,
	 -0.111494  -0.040967   0.992920,
	 -0.259451  -0.547727   0.795412,
	 -0.810633  -0.365796  -0.457238,
	  0.853607  -0.451630  -0.259585,
	  0.913986  -0.405746   0.000000,
	  0.853607  -0.451630   0.259585,
	  0.539673  -0.408757  -0.735983,
	  0.155303  -0.301564  -0.940713,
	 -0.957761   0.093357   0.271989,
	 -0.392285   0.066593   0.917430,
	 -0.991579   0.129503   0.000000,
	 -0.957761   0.093357  -0.271989,
	 -0.392285   0.066593  -0.917430,
	  0.131350  -0.048216  -0.990163,
	 -0.048959  -0.272996  -0.960769,
	 -0.292066  -0.709866  -0.640927,
	 -0.236878  -0.947588  -0.214396,
	  0.431641  -0.536878  -0.724878,
	  0.746939  -0.013062   0.664764,
	  0.539673  -0.408757   0.735983,
	  0.155303  -0.301564   0.940713,
	 -0.048959  -0.272996   0.960769,
	  0.131350  -0.048217   0.990163,
	 -0.236878  -0.947588   0.214396,
	 -0.292066  -0.709866   0.640927,
	  0.431641  -0.536879   0.724877,
	  0.746939  -0.013062  -0.664764,
	  0.886627  -0.348665  -0.303850,
	  0.845402  -0.534130   0.000000,
	  0.886627  -0.348665   0.303850,
	  0.554305  -0.306984  -0.773632,
	  0.113599  -0.325121  -0.938825,
	 -0.253806   0.879229   0.403162,
	 -0.199140   0.017848   0.979809,
	 -0.520744   0.853713   0.000000,
	 -0.253806   0.879229  -0.403162,
	 -0.199140   0.017848  -0.979809,
	 -0.133286   0.241875  -0.961109,
	 -0.118393  -0.158455  -0.980242,
	  0.553577   0.566972  -0.609997,
	 -0.623857  -0.523414  -0.580379,
	 -0.711351  -0.177436  -0.680071,
	 -0.573757  -0.683450  -0.451330,
	  0.708216  -0.618912  -0.339673,
	 -0.363451  -0.924859  -0.111977,
	  0.777296  -0.138162  -0.613776,
	  0.804051  -0.434969   0.405343,
	  0.998969  -0.045395   0.000000,
	 -0.177733   0.984079   0.000000,
	 -0.251850   0.571964   0.780659,
	  0.554305  -0.306984   0.773632,
	  0.113599  -0.325121   0.938825,
	 -0.118393  -0.158455   0.980242,
	 -0.133285   0.241875   0.961110,
	  0.553575   0.566972   0.609998,
	 -0.711351  -0.177436   0.680071,
	 -0.623857  -0.523414   0.580379,
	 -0.573757  -0.683450   0.451330,
	  0.708216  -0.618912   0.339673,
	  0.777295  -0.138164   0.613778,
	 -0.363451  -0.924859   0.111977,
	  0.804051  -0.434969  -0.405343,
	 -0.251850   0.571964  -0.780659,
	  0.795738   0.525058  -0.301852,
	  0.870510   0.492151   0.000000,
	  0.795738   0.525058   0.301852,
	  0.615450   0.604129  -0.506211,
	  0.329212   0.445155  -0.832740,
	 -0.029145   0.475388  -0.879293,
	  0.481059   0.786770  -0.386750,
	  0.232834   0.950292   0.206718,
	 -0.419582   0.696033   0.582657,
	  0.215958   0.976403   0.000000,
	  0.007844   0.909951  -0.414642,
	  0.232834   0.950292  -0.206718,
	  0.481057   0.786772   0.386748,
	 -0.419582   0.696033  -0.582657,
	  0.007844   0.909951   0.414643,
	 -0.058401   0.784836  -0.616945,
	  0.567591   0.633538  -0.525804,
	 -0.031322   0.010125  -0.999458,
	 -0.680523   0.515480  -0.520738,
	 -0.552970  -0.451448  -0.700299,
	 -0.742682  -0.274801   0.610662,
	 -0.824112   0.440146   0.356525,
	  0.051262   0.597849  -0.799968,
	 -0.122781   0.658703  -0.742318,
	  0.863896  -0.460745  -0.203464,
	  0.072939   0.127636  -0.989135,
	 -0.894270  -0.407249  -0.185553,
	  0.238146  -0.229985  -0.943607,
	 -0.885294   0.410856   0.217834,
	  0.654863  -0.588537   0.474109,
	  0.754592  -0.656194   0.000000,
	 -0.348314   0.690694  -0.633735,
	 -0.481756   0.876305   0.000000,
	 -0.597786   0.766804  -0.233802,
	 -0.718764   0.661344   0.214484,
	 -0.348314   0.690694   0.633735,
	 -0.597786   0.766804   0.233802,
	 -0.718764   0.661344  -0.214484,
	 -0.608738   0.499363   0.616502,
	  0.615450   0.604129   0.506211,
	  0.329212   0.445155   0.832740,
	 -0.029145   0.475388   0.879293,
	 -0.058403   0.784837   0.616945,
	  0.567588   0.633542   0.525803,
	  0.051262   0.597849   0.799968,
	 -0.552970  -0.451448   0.700299,
	 -0.122781   0.658703   0.742318,
	 -0.680523   0.515480   0.520738,
	 -0.031322   0.010125   0.999458,
	 -0.742682  -0.274801  -0.610662,
	 -0.824112   0.440146  -0.356525,
	  0.863896  -0.460745   0.203464,
	  0.072939   0.127636   0.989135,
	  0.238146  -0.229985   0.943607,
	 -0.894270  -0.407249   0.185553,
	 -0.885294   0.410856  -0.217834,
	  0.654863  -0.588537  -0.474109,
	 -0.608738   0.499363  -0.616502,
	 -0.558102   0.623917   0.547037,
	 -0.245521   0.346117   0.905496,
	 -0.558102   0.623917  -0.547037,
	 -0.245521   0.346117  -0.905496,
	 -0.873058  -0.217115  -0.436614,
	 -0.522164   0.620924  -0.584635,
	 -0.916688  -0.143941  -0.372779,
	 -0.570128   0.762782  -0.305153,
	 -0.592584   0.244617  -0.767468,
	 -0.951113  -0.298392  -0.079659,
	  0.241119  -0.959432  -0.146126,
	  0.026267  -0.878179   0.477610,
	  0.275857  -0.961199   0.000000,
	  0.026267  -0.878179  -0.477610,
	 -0.448482   0.566017  -0.691729,
	 -0.330002   0.700207  -0.633095,
	 -0.374630   0.927174   0.000000,
	 -0.448482   0.566017   0.691729,
	 -0.330002   0.700207   0.633095,
	 -0.570128   0.762782   0.305153,
	 -0.592584   0.244617   0.767468,
	 -0.951113  -0.298392   0.079659,
	 -0.522164   0.620924   0.584635,
	 -0.873058  -0.217115   0.436614,
	 -0.916688  -0.143941   0.372779,
	  0.241119  -0.959432   0.146126,
	 -0.396904   0.345087  -0.850518,
	 -0.702553  -0.669616   0.240902,
	 -0.438857  -0.769912  -0.463292,
	 -0.112523  -0.993649   0.000000,
	 -0.702553  -0.669616  -0.240902,
	 -0.438857  -0.769912   0.463292,
	 -0.581330   0.813668   0.000000,
	 -0.396904   0.345087   0.850518,
	  0.016737   0.283994  -0.958680,
	 -0.081909  -0.128292  -0.988348,
	  0.006583  -0.756498  -0.653963,
	 -0.246357  -0.969179   0.000001,
	  0.006583  -0.756498   0.653963,
	 -0.081909  -0.128292   0.988348,
	 -0.810156   0.185581  -0.556064,
	 -0.977763  -0.209714   0.000000,
	 -0.810153   0.185571   0.556072,
	  0.016739   0.283995   0.958680,
	 -0.417466  -0.608736  -0.674657,
	 -0.794453  -0.607325   0.000005,
	 -0.417459  -0.608738   0.674660,
     ]    } 
normalIndex      [ 
	     0,      1,      2, -1 
	     0,      3,      1, -1 
	     0,      4,      3, -1 
	     0,      5,      6, -1 
	     6,      7,      0, -1 
	     0,      7,      8, -1 
	     8,      4,      0, -1 
	     2,      9,      0, -1 
	     9,     10,      0, -1 
	    10,     11,      0, -1 
	    12,      5,      0, -1 
	     0,     13,     12, -1 
	    14,     13,      0, -1 
	     0,     11,     14, -1 
	     2,      1,     15, -1 
	    15,      1,      3, -1 
	    16,      2,     15, -1 
	    17,      9,      2, -1 
	    17,      2,     16, -1 
	    18,     15,      3, -1 
	    18,      3,      4, -1 
	    19,     18,      4, -1 
	    19,      4,      8, -1 
	    20,      6,      5, -1 
	    21,     20,      5, -1 
	     5,     12,     22, -1 
	     5,     22,     21, -1 
	     6,     20,      7, -1 
	     7,     23,     24, -1 
	     8,      7,     24, -1 
	    25,     23,      7, -1 
	    20,     25,      7, -1 
	    24,     19,      8, -1 
	    10,      9,     17, -1 
	    10,     17,     26, -1 
	    11,     10,     26, -1 
	    11,     26,     27, -1 
	    14,     11,     27, -1 
	    13,     22,     12, -1 
	    28,     29,     13, -1 
	    28,     13,     14, -1 
	    13,     29,     30, -1 
	    13,     30,     22, -1 
	    14,     27,     28, -1 
	    15,     31,     32, -1 
	    16,     15,     32, -1 
	    31,     15,     18, -1 
	    32,     17,     16, -1 
	    32,     33,     17, -1 
	    26,     17,     33, -1 
	    34,     31,     18, -1 
	    34,     18,     19, -1 
	    35,     34,     19, -1 
	    35,     19,     24, -1 
	    20,     21,     36, -1 
	    25,     20,     36, -1 
	    37,     36,     21, -1 
	    21,     38,     37, -1 
	    38,     21,     22, -1 
	    38,     22,     30, -1 
	    23,     39,     40, -1 
	    24,     23,     40, -1 
	    41,     23,     25, -1 
	    41,     39,     23, -1 
	    40,     35,     24, -1 
	    41,     25,     36, -1 
	    26,     33,     42, -1 
	    27,     26,     42, -1 
	    27,     42,     43, -1 
	    28,     27,     43, -1 
	    28,     43,     44, -1 
	    44,     29,     28, -1 
	    44,     45,     29, -1 
	    30,     29,     46, -1 
	    29,     45,     46, -1 
	    38,     30,     46, -1 
	    31,     47,     48, -1 
	    32,     31,     48, -1 
	    47,     31,     34, -1 
	    48,     33,     32, -1 
	    48,     49,     33, -1 
	    42,     33,     49, -1 
	    50,     47,     34, -1 
	    50,     34,     35, -1 
	    51,     50,     35, -1 
	    51,     35,     40, -1 
	    52,     36,     37, -1 
	    52,     53,     36, -1 
	    53,     41,     36, -1 
	    54,     52,     37, -1 
	    37,     38,     55, -1 
	    37,     55,     54, -1 
	    38,     56,     55, -1 
	    38,     46,     56, -1 
	    39,     57,     58, -1 
	    40,     39,     58, -1 
	    59,     39,     60, -1 
	    39,     59,     61, -1 
	    57,     39,     61, -1 
	    41,     60,     39, -1 
	    58,     51,     40, -1 
	    41,     62,     60, -1 
	    62,     41,     53, -1 
	    42,     49,     63, -1 
	    43,     42,     63, -1 
	    43,     63,     64, -1 
	    44,     43,     64, -1 
	    44,     64,     65, -1 
	    65,     45,     44, -1 
	    65,     66,     45, -1 
	    67,     45,     68, -1 
	    69,     68,     45, -1 
	    69,     45,     66, -1 
	    45,     67,     46, -1 
	    67,     70,     46, -1 
	    56,     46,     70, -1 
	    47,     71,     72, -1 
	    48,     47,     72, -1 
	    71,     47,     50, -1 
	    72,     49,     48, -1 
	    72,     73,     49, -1 
	    63,     49,     73, -1 
	    74,     71,     50, -1 
	    74,     50,     51, -1 
	    75,     74,     51, -1 
	    75,     51,     58, -1 
	    76,     52,     54, -1 
	    77,     53,     52, -1 
	    76,     77,     52, -1 
	    53,     77,     62, -1 
	    78,     76,     54, -1 
	    54,     55,     79, -1 
	    54,     79,     78, -1 
	    55,     56,     80, -1 
	    55,     80,     79, -1 
	    70,     80,     56, -1 
	    57,     81,     82, -1 
	    58,     57,     82, -1 
	    57,     61,     83, -1 
	    81,     57,     83, -1 
	    82,     75,     58, -1 
	    61,     59,     60, -1 
	    60,     84,     85, -1 
	    86,     60,     85, -1 
	    86,     61,     60, -1 
	    87,     84,     60, -1 
	    62,     87,     60, -1 
	    88,     89,     61, -1 
	    86,     88,     61, -1 
	    61,     89,     83, -1 
	    90,     62,     91, -1 
	    92,     91,     62, -1 
	    93,     92,     62, -1 
	    62,     90,     87, -1 
	    77,     93,     62, -1 
	    63,     73,     94, -1 
	    64,     63,     94, -1 
	    64,     94,     95, -1 
	    65,     64,     95, -1 
	    65,     95,     96, -1 
	    96,     66,     65, -1 
	    96,     97,     66, -1 
	    98,     69,     66, -1 
	    98,     66,     97, -1 
	    99,    100,     67, -1 
	    99,     67,    101, -1 
	    67,     68,     69, -1 
	    67,     69,    101, -1 
	    67,    100,    102, -1 
	    67,    102,     70, -1 
	    69,    103,    104, -1 
	    69,    104,    101, -1 
	    98,    103,     69, -1 
	    91,     70,    105, -1 
	    70,     91,     92, -1 
	    70,     92,    106, -1 
	   102,    105,     70, -1 
	    70,    106,     80, -1 
	    71,    107,    108, -1 
	    72,     71,    108, -1 
	   107,     71,     74, -1 
	   108,     73,     72, -1 
	   108,    109,     73, -1 
	    94,     73,    109, -1 
	   110,    107,     74, -1 
	    74,     75,    111, -1 
	   110,     74,    111, -1 
	    75,     82,    112, -1 
	   111,     75,    112, -1 
	    76,    113,    114, -1 
	   114,    115,     76, -1 
	   115,     93,     76, -1 
	    77,     76,     93, -1 
	   116,     76,     78, -1 
	   116,    117,     76, -1 
	    76,    117,    113, -1 
	    78,     79,    116, -1 
	   118,    119,     79, -1 
	    79,    120,    118, -1 
	    79,    106,    120, -1 
	   106,     79,     80, -1 
	    79,    121,    116, -1 
	   119,    121,     79, -1 
	    82,     81,    112, -1 
	    81,     83,    117, -1 
	    81,    117,    112, -1 
	    83,    113,    117, -1 
	    89,    122,     83, -1 
	   123,     83,    122, -1 
	   113,     83,    123, -1 
	    84,    124,    125, -1 
	    85,     84,    126, -1 
	    84,    127,    126, -1 
	    87,    124,     84, -1 
	   125,    128,     84, -1 
	   128,    127,     84, -1 
	    85,    126,    129, -1 
	   122,     86,     85, -1 
	   122,     85,    130, -1 
	   130,     85,    129, -1 
	   122,     88,     86, -1 
	   131,     87,     90, -1 
	    87,    131,    132, -1 
	   124,     87,    132, -1 
	    88,    133,    134, -1 
	    89,     88,    134, -1 
	    88,    135,    133, -1 
	   122,    135,     88, -1 
	    89,    134,    122, -1 
	   136,     90,    137, -1 
	   137,     90,     91, -1 
	   136,    131,     90, -1 
	    91,    105,    137, -1 
	    92,    138,    139, -1 
	   140,    138,     92, -1 
	   141,    140,     92, -1 
	    92,     93,    141, -1 
	   139,    142,     92, -1 
	    92,    142,    143, -1 
	    92,    143,    144, -1 
	   144,    106,     92, -1 
	    93,    145,    141, -1 
	   115,    145,     93, -1 
	    94,    109,    146, -1 
	   147,     95,     94, -1 
	   147,     94,    146, -1 
	   148,     96,     95, -1 
	   148,     95,    147, -1 
	   148,     97,     96, -1 
	   121,     98,     97, -1 
	   148,    121,     97, -1 
	   121,    119,     98, -1 
	    98,    149,    103, -1 
	   149,     98,    150, -1 
	   150,     98,    119, -1 
	   151,    152,     99, -1 
	   152,    100,     99, -1 
	    99,    101,    149, -1 
	   153,     99,    149, -1 
	   151,     99,    153, -1 
	   154,    155,    100, -1 
	   152,    156,    100, -1 
	   100,    155,    102, -1 
	   100,    157,    154, -1 
	   100,    156,    157, -1 
	   101,    104,    149, -1 
	   105,    102,    158, -1 
	   159,    158,    102, -1 
	   159,    102,    155, -1 
	   149,    160,    103, -1 
	   160,    104,    103, -1 
	   160,    161,    104, -1 
	   161,    162,    104, -1 
	   104,    162,    149, -1 
	   137,    105,    163, -1 
	   105,    158,    163, -1 
	   144,    164,    106, -1 
	   106,    164,    120, -1 
	   116,    107,    110, -1 
	   116,    108,    107, -1 
	   109,    108,    116, -1 
	   146,    109,    116, -1 
	   116,    110,    111, -1 
	   116,    111,    112, -1 
	   116,    112,    117, -1 
	   123,    114,    113, -1 
	   114,    123,    129, -1 
	   114,    129,    165, -1 
	   166,    114,    165, -1 
	   166,    145,    114, -1 
	   115,    114,    145, -1 
	   147,    146,    116, -1 
	   148,    147,    116, -1 
	   121,    148,    116, -1 
	   119,    118,    150, -1 
	   151,    150,    118, -1 
	   167,    151,    118, -1 
	   167,    118,    168, -1 
	   118,    164,    168, -1 
	   164,    118,    120, -1 
	   134,    135,    122, -1 
	   130,    123,    122, -1 
	   123,    130,    129, -1 
	   125,    124,    132, -1 
	   169,    170,    125, -1 
	   171,    169,    125, -1 
	   132,    171,    125, -1 
	   172,    125,    170, -1 
	   125,    172,    128, -1 
	   126,    173,    129, -1 
	   174,    173,    126, -1 
	   174,    126,    127, -1 
	   165,    174,    127, -1 
	   166,    165,    127, -1 
	   127,    128,    145, -1 
	   166,    127,    145, -1 
	   145,    128,    141, -1 
	   140,    128,    172, -1 
	   141,    128,    140, -1 
	   165,    129,    173, -1 
	   131,    175,    132, -1 
	   136,    175,    131, -1 
	   175,    171,    132, -1 
	   133,    135,    134, -1 
	   176,    136,    137, -1 
	   176,    175,    136, -1 
	   177,    176,    137, -1 
	   137,    163,    178, -1 
	   137,    178,    177, -1 
	   139,    138,    179, -1 
	   138,    140,    179, -1 
	   180,    181,    139, -1 
	   179,    180,    139, -1 
	   182,    142,    139, -1 
	   139,    181,    183, -1 
	   139,    183,    182, -1 
	   140,    172,    179, -1 
	   182,    143,    142, -1 
	   182,    184,    143, -1 
	   184,    157,    143, -1 
	   143,    157,    144, -1 
	   144,    157,    164, -1 
	   149,    162,    160, -1 
	   149,    150,    153, -1 
	   151,    153,    150, -1 
	   151,    185,    152, -1 
	   185,    151,    167, -1 
	   152,    185,    186, -1 
	   156,    152,    186, -1 
	   159,    155,    154, -1 
	   154,    187,    188, -1 
	   154,    188,    189, -1 
	   154,    189,    159, -1 
	   187,    154,    184, -1 
	   157,    184,    154, -1 
	   156,    186,    167, -1 
	   156,    167,    168, -1 
	   164,    157,    156, -1 
	   164,    156,    168, -1 
	   159,    190,    158, -1 
	   158,    190,    163, -1 
	   159,    189,    190, -1 
	   160,    162,    161, -1 
	   163,    190,    178, -1 
	   174,    165,    173, -1 
	   185,    167,    186, -1 
	   170,    169,    191, -1 
	   169,    192,    193, -1 
	   191,    169,    193, -1 
	   169,    171,    192, -1 
	   172,    170,    180, -1 
	   180,    170,    191, -1 
	   171,    175,    192, -1 
	   179,    172,    180, -1 
	   192,    175,    176, -1 
	   193,    192,    176, -1 
	   194,    193,    176, -1 
	   194,    176,    177, -1 
	   177,    178,    194, -1 
	   178,    190,    195, -1 
	   178,    195,    196, -1 
	   178,    196,    194, -1 
	   180,    191,    181, -1 
	   191,    197,    181, -1 
	   181,    197,    198, -1 
	   181,    198,    183, -1 
	   183,    184,    182, -1 
	   183,    187,    184, -1 
	   198,    187,    183, -1 
	   198,    188,    187, -1 
	   196,    195,    188, -1 
	   196,    188,    198, -1 
	   195,    189,    188, -1 
	   195,    190,    189, -1 
	   191,    199,    197, -1 
	   191,    193,    200, -1 
	   199,    191,    200, -1 
	   193,    194,    201, -1 
	   200,    193,    201, -1 
	   202,    201,    194, -1 
	   194,    203,    202, -1 
	   203,    194,    196, -1 
	   204,    196,    198, -1 
	   203,    196,    204, -1 
	   199,    205,    197, -1 
	   197,    205,    206, -1 
	   197,    207,    208, -1 
	   197,    208,    198, -1 
	   206,    207,    197, -1 
	   204,    198,    208, -1 
	   199,    200,    201, -1 
	   209,    199,    201, -1 
	   199,    209,    205, -1 
	   209,    201,    202, -1 
	   210,    209,    202, -1 
	   202,    203,    211, -1 
	   202,    211,    210, -1 
	   203,    204,    208, -1 
	   203,    208,    211, -1 
	   205,    209,    210, -1 
	   206,    205,    210, -1 
	   210,    207,    206, -1 
	   210,    211,    207, -1 
	   207,    211,    208, -1 
    ] 
normalPerVertex  TRUE 
   } 
  } 
 ] 
} 
