#VRML V2.0 utf8 
Transform { 
 children [ 
    Shape { 
   geometry IndexedFaceSet { 
   solid FALSE 
    coord DEF bone Coordinate{ 
     point [ 
	 -0.013423  -0.316452   0.022000,
	  0.000388  -0.309234   0.013017,
	  0.001290  -0.309231   0.022000,
	 -0.004281  -0.310718   0.003616,
	 -0.011500  -0.313918  -0.000961,
	 -0.029375  -0.323774   0.022000,
	 -0.029111  -0.324047   0.016605,
	 -0.029604  -0.323923   0.006019,
	 -0.025518  -0.319998  -0.001095,
	  0.000388  -0.309234   0.030983,
	 -0.004281  -0.310718   0.040384,
	 -0.011500  -0.313918   0.044961,
	 -0.029111  -0.324047   0.027395,
	 -0.029604  -0.323923   0.037981,
	 -0.025518  -0.319998   0.045095,
	  0.000679  -0.307897   0.011211,
	  0.000349  -0.307260   0.022000,
	  0.000679  -0.307897   0.032789,
	 -0.006006  -0.308137   0.004245,
	 -0.014540  -0.308729   0.000414,
	 -0.030762  -0.316170   0.016954,
	 -0.030681  -0.316299   0.022000,
	 -0.030762  -0.316170   0.027047,
	 -0.031364  -0.314400   0.005682,
	 -0.024901  -0.313725   0.000253,
	 -0.032230  -0.315012   0.012365,
	 -0.006006  -0.308137   0.039755,
	 -0.014540  -0.308729   0.043585,
	 -0.024901  -0.313725   0.043747,
	 -0.031364  -0.314400   0.038318,
	 -0.032230  -0.315012   0.031635,
	 -0.003520  -0.302559   0.011498,
	 -0.002058  -0.302477   0.022000,
	 -0.003520  -0.302559   0.032502,
	 -0.009264  -0.303500   0.004691,
	 -0.016141  -0.304092   0.002371,
	 -0.033288  -0.308102   0.015519,
	 -0.032814  -0.307861   0.022000,
	 -0.033288  -0.308102   0.028481,
	 -0.031622  -0.309061   0.002541,
	 -0.026150  -0.306431   0.001423,
	 -0.035328  -0.308283   0.012059,
	 -0.009264  -0.303500   0.039309,
	 -0.016141  -0.304092   0.041629,
	 -0.026150  -0.306431   0.042577,
	 -0.031622  -0.309061   0.041459,
	 -0.035328  -0.308283   0.031941,
	 -0.006475  -0.293490   0.011870,
	 -0.005506  -0.291698   0.022000,
	 -0.006475  -0.293490   0.032130,
	 -0.012443  -0.295403   0.004026,
	 -0.017341  -0.297347   0.002284,
	 -0.037351  -0.302220   0.015304,
	 -0.039461  -0.302589   0.011605,
	 -0.036674  -0.301803   0.022000,
	 -0.037351  -0.302220   0.028696,
	 -0.039461  -0.302589   0.032395,
	 -0.032539  -0.302175   0.000870,
	 -0.027475  -0.301223   0.001278,
	 -0.035717  -0.307872   0.000501,
	 -0.037487  -0.312111   0.004470,
	 -0.038917  -0.305110  -0.003716,
	 -0.044294  -0.309251   0.018211,
	 -0.012443  -0.295403   0.039974,
	 -0.017341  -0.297347   0.041716,
	 -0.027475  -0.301223   0.042722,
	 -0.032539  -0.302175   0.043130,
	 -0.037487  -0.312111   0.039530,
	 -0.035717  -0.307872   0.043499,
	 -0.038917  -0.305110   0.047716,
	 -0.044294  -0.309251   0.025789,
	 -0.006878  -0.287918   0.010790,
	 -0.006420  -0.287234   0.022000,
	 -0.006878  -0.287918   0.033210,
	 -0.011883  -0.290542   0.002973,
	 -0.017757  -0.293697   0.000195,
	 -0.040489  -0.294697   0.013451,
	 -0.040615  -0.296856   0.010838,
	 -0.038521  -0.294987   0.022000,
	 -0.040489  -0.294697   0.030549,
	 -0.040615  -0.296856   0.033162,
	 -0.035110  -0.297925   0.001584,
	 -0.026841  -0.295703  -0.000866,
	 -0.041784  -0.299254   0.001532,
	 -0.045523  -0.310312   0.004367,
	 -0.048614  -0.306349  -0.001741,
	 -0.041611  -0.311395  -0.003399,
	 -0.038476  -0.315827   0.011211,
	 -0.043323  -0.309401  -0.007720,
	 -0.042924  -0.305690  -0.010692,
	 -0.040314  -0.321162   0.016779,
	 -0.044086  -0.310885   0.022000,
	 -0.053270  -0.310978   0.022000,
	 -0.048362  -0.303512   0.014108,
	 -0.011883  -0.290542   0.041027,
	 -0.017757  -0.293697   0.043805,
	 -0.026841  -0.295703   0.044866,
	 -0.035110  -0.297925   0.042416,
	 -0.041784  -0.299254   0.042468,
	 -0.048614  -0.306349   0.045741,
	 -0.045523  -0.310312   0.039633,
	 -0.041611  -0.311395   0.047399,
	 -0.038476  -0.315827   0.032789,
	 -0.042924  -0.305690   0.054692,
	 -0.043323  -0.309401   0.051720,
	 -0.040314  -0.321162   0.027221,
	 -0.048362  -0.303512   0.029892,
	 -0.008901  -0.283158   0.010584,
	 -0.008169  -0.282556   0.022000,
	 -0.008901  -0.283158   0.033416,
	 -0.013791  -0.285477   0.002711,
	 -0.020747  -0.288195  -0.000860,
	 -0.029503  -0.292436  -0.001008,
	 -0.042153  -0.297198   0.007548,
	 -0.049999  -0.293158   0.005594,
	 -0.048943  -0.296000   0.011700,
	 -0.023345  -0.288772   0.022000,
	 -0.038433  -0.294414   0.004451,
	 -0.049999  -0.293158   0.038406,
	 -0.042153  -0.297198   0.036452,
	 -0.048943  -0.296000   0.032300,
	 -0.038433  -0.294414   0.039549,
	 -0.046899  -0.300591  -0.007174,
	 -0.046876  -0.296874   0.003131,
	 -0.046325  -0.318292   0.006121,
	 -0.050223  -0.321564   0.009032,
	 -0.054338  -0.306617   0.000347,
	 -0.054427  -0.308153   0.007460,
	 -0.051811  -0.308876   0.009000,
	 -0.056785  -0.297348   0.002021,
	 -0.050293  -0.299952   0.000165,
	 -0.037397  -0.322803   0.009701,
	 -0.048828  -0.325855   0.004499,
	 -0.047808  -0.309670  -0.010981,
	 -0.046866  -0.306718  -0.014167,
	 -0.051003  -0.302408  -0.011444,
	 -0.038886  -0.326727   0.015145,
	 -0.043706  -0.321178   0.022000,
	 -0.053253  -0.315184   0.016938,
	 -0.060206  -0.324790   0.022000,
	 -0.049057  -0.314923   0.013502,
	 -0.050337  -0.310254   0.011341,
	 -0.053253  -0.315184   0.027062,
	 -0.049057  -0.314923   0.030498,
	 -0.050337  -0.310254   0.032659,
	 -0.049602  -0.303342   0.010370,
	 -0.013791  -0.285477   0.041289,
	 -0.020747  -0.288195   0.044860,
	 -0.029503  -0.292436   0.045008,
	 -0.046899  -0.300591   0.051174,
	 -0.046876  -0.296874   0.040869,
	 -0.056785  -0.297348   0.041979,
	 -0.054338  -0.306617   0.043653,
	 -0.050293  -0.299952   0.043835,
	 -0.050223  -0.321564   0.034968,
	 -0.046325  -0.318292   0.037879,
	 -0.054427  -0.308153   0.036540,
	 -0.051811  -0.308876   0.035000,
	 -0.037397  -0.322803   0.034299,
	 -0.048828  -0.325855   0.039501,
	 -0.046866  -0.306718   0.058167,
	 -0.047808  -0.309670   0.054981,
	 -0.051003  -0.302408   0.055444,
	 -0.038886  -0.326727   0.028855,
	 -0.049602  -0.303342   0.033630,
	 -0.061403  -0.302741   0.005256,
	 -0.054073  -0.302805   0.007723,
	 -0.061403  -0.302741   0.038744,
	 -0.054073  -0.302805   0.036277,
	 -0.050604  -0.330353   0.012042,
	 -0.051775  -0.325456   0.011476,
	 -0.046785  -0.332898   0.004746,
	 -0.050705  -0.319295   0.012933,
	 -0.059137  -0.303664  -0.000146,
	 -0.060234  -0.306768   0.004798,
	 -0.037981  -0.335437   0.008334,
	 -0.040832  -0.330118   0.016555,
	 -0.044741  -0.327694   0.022000,
	 -0.040832  -0.330118   0.027445,
	 -0.055801  -0.321090   0.017726,
	 -0.057741  -0.326231   0.017840,
	 -0.068473  -0.328216   0.022000,
	 -0.055801  -0.321090   0.026274,
	 -0.057741  -0.326231   0.026160,
	 -0.050705  -0.319295   0.031067,
	 -0.059137  -0.303664   0.044146,
	 -0.060234  -0.306768   0.039202,
	 -0.051775  -0.325456   0.032524,
	 -0.050604  -0.330353   0.031958,
	 -0.046785  -0.332898   0.039254,
	 -0.037981  -0.335437   0.035666,
	 -0.056642  -0.330887   0.017657,
	 -0.045962  -0.331920   0.014174,
	 -0.051447  -0.332340   0.016905,
	 -0.049821  -0.337547   0.022000,
	 -0.045962  -0.331920   0.029826,
	 -0.051447  -0.332340   0.027095,
	 -0.069082  -0.333881   0.022000,
	 -0.056642  -0.330887   0.026343,
	 -0.059276  -0.335386   0.017267,
	 -0.055399  -0.336685   0.017251,
	 -0.055563  -0.341164   0.018313,
	 -0.057166  -0.342487   0.022000,
	 -0.055563  -0.341164   0.025687,
	 -0.055399  -0.336685   0.026749,
	 -0.065760  -0.338253   0.017208,
	 -0.066201  -0.340083   0.022000,
	 -0.065760  -0.338253   0.026792,
	 -0.059276  -0.335386   0.026733,
	 -0.062942  -0.341390   0.016416,
	 -0.061398  -0.343015   0.022000,
	 -0.062942  -0.341390   0.027584,
     ]    } 
    coordIndex [ 
	     0,      1,      2, -1 
	     0,      3,      1, -1 
	     0,      4,      3, -1 
	     0,      5,      6, -1 
	     6,      7,      0, -1 
	     0,      7,      8, -1 
	     8,      4,      0, -1 
	     2,      9,      0, -1 
	     9,     10,      0, -1 
	    10,     11,      0, -1 
	    12,      5,      0, -1 
	     0,     13,     12, -1 
	    14,     13,      0, -1 
	     0,     11,     14, -1 
	     2,      1,     15, -1 
	    15,      1,      3, -1 
	    16,      2,     15, -1 
	    17,      9,      2, -1 
	    17,      2,     16, -1 
	    18,     15,      3, -1 
	    18,      3,      4, -1 
	    19,     18,      4, -1 
	    19,      4,      8, -1 
	    20,      6,      5, -1 
	    21,     20,      5, -1 
	     5,     12,     22, -1 
	     5,     22,     21, -1 
	     6,     20,      7, -1 
	     7,     23,     24, -1 
	     8,      7,     24, -1 
	    25,     23,      7, -1 
	    20,     25,      7, -1 
	    24,     19,      8, -1 
	    10,      9,     17, -1 
	    10,     17,     26, -1 
	    11,     10,     26, -1 
	    11,     26,     27, -1 
	    14,     11,     27, -1 
	    13,     22,     12, -1 
	    28,     29,     13, -1 
	    28,     13,     14, -1 
	    13,     29,     30, -1 
	    13,     30,     22, -1 
	    14,     27,     28, -1 
	    15,     31,     32, -1 
	    16,     15,     32, -1 
	    31,     15,     18, -1 
	    32,     17,     16, -1 
	    32,     33,     17, -1 
	    26,     17,     33, -1 
	    34,     31,     18, -1 
	    34,     18,     19, -1 
	    35,     34,     19, -1 
	    35,     19,     24, -1 
	    20,     21,     36, -1 
	    25,     20,     36, -1 
	    37,     36,     21, -1 
	    21,     38,     37, -1 
	    38,     21,     22, -1 
	    38,     22,     30, -1 
	    23,     39,     40, -1 
	    24,     23,     40, -1 
	    41,     23,     25, -1 
	    41,     39,     23, -1 
	    40,     35,     24, -1 
	    41,     25,     36, -1 
	    26,     33,     42, -1 
	    27,     26,     42, -1 
	    27,     42,     43, -1 
	    28,     27,     43, -1 
	    28,     43,     44, -1 
	    44,     29,     28, -1 
	    44,     45,     29, -1 
	    30,     29,     46, -1 
	    29,     45,     46, -1 
	    38,     30,     46, -1 
	    31,     47,     48, -1 
	    32,     31,     48, -1 
	    47,     31,     34, -1 
	    48,     33,     32, -1 
	    48,     49,     33, -1 
	    42,     33,     49, -1 
	    50,     47,     34, -1 
	    50,     34,     35, -1 
	    51,     50,     35, -1 
	    51,     35,     40, -1 
	    52,     36,     37, -1 
	    52,     53,     36, -1 
	    53,     41,     36, -1 
	    54,     52,     37, -1 
	    37,     38,     55, -1 
	    37,     55,     54, -1 
	    38,     56,     55, -1 
	    38,     46,     56, -1 
	    39,     57,     58, -1 
	    40,     39,     58, -1 
	    59,     39,     60, -1 
	    39,     59,     61, -1 
	    57,     39,     61, -1 
	    41,     60,     39, -1 
	    58,     51,     40, -1 
	    41,     62,     60, -1 
	    62,     41,     53, -1 
	    42,     49,     63, -1 
	    43,     42,     63, -1 
	    43,     63,     64, -1 
	    44,     43,     64, -1 
	    44,     64,     65, -1 
	    65,     45,     44, -1 
	    65,     66,     45, -1 
	    67,     45,     68, -1 
	    69,     68,     45, -1 
	    69,     45,     66, -1 
	    45,     67,     46, -1 
	    67,     70,     46, -1 
	    56,     46,     70, -1 
	    47,     71,     72, -1 
	    48,     47,     72, -1 
	    71,     47,     50, -1 
	    72,     49,     48, -1 
	    72,     73,     49, -1 
	    63,     49,     73, -1 
	    74,     71,     50, -1 
	    74,     50,     51, -1 
	    75,     74,     51, -1 
	    75,     51,     58, -1 
	    76,     52,     54, -1 
	    77,     53,     52, -1 
	    76,     77,     52, -1 
	    53,     77,     62, -1 
	    78,     76,     54, -1 
	    54,     55,     79, -1 
	    54,     79,     78, -1 
	    55,     56,     80, -1 
	    55,     80,     79, -1 
	    70,     80,     56, -1 
	    57,     81,     82, -1 
	    58,     57,     82, -1 
	    57,     61,     83, -1 
	    81,     57,     83, -1 
	    82,     75,     58, -1 
	    61,     59,     60, -1 
	    60,     84,     85, -1 
	    86,     60,     85, -1 
	    86,     61,     60, -1 
	    87,     84,     60, -1 
	    62,     87,     60, -1 
	    88,     89,     61, -1 
	    86,     88,     61, -1 
	    61,     89,     83, -1 
	    90,     62,     91, -1 
	    92,     91,     62, -1 
	    93,     92,     62, -1 
	    62,     90,     87, -1 
	    77,     93,     62, -1 
	    63,     73,     94, -1 
	    64,     63,     94, -1 
	    64,     94,     95, -1 
	    65,     64,     95, -1 
	    65,     95,     96, -1 
	    96,     66,     65, -1 
	    96,     97,     66, -1 
	    98,     69,     66, -1 
	    98,     66,     97, -1 
	    99,    100,     67, -1 
	    99,     67,    101, -1 
	    67,     68,     69, -1 
	    67,     69,    101, -1 
	    67,    100,    102, -1 
	    67,    102,     70, -1 
	    69,    103,    104, -1 
	    69,    104,    101, -1 
	    98,    103,     69, -1 
	    91,     70,    105, -1 
	    70,     91,     92, -1 
	    70,     92,    106, -1 
	   102,    105,     70, -1 
	    70,    106,     80, -1 
	    71,    107,    108, -1 
	    72,     71,    108, -1 
	   107,     71,     74, -1 
	   108,     73,     72, -1 
	   108,    109,     73, -1 
	    94,     73,    109, -1 
	   110,    107,     74, -1 
	    74,     75,    111, -1 
	   110,     74,    111, -1 
	    75,     82,    112, -1 
	   111,     75,    112, -1 
	    76,    113,    114, -1 
	   114,    115,     76, -1 
	   115,     93,     76, -1 
	    77,     76,     93, -1 
	   116,     76,     78, -1 
	   116,    117,     76, -1 
	    76,    117,    113, -1 
	    78,     79,    116, -1 
	   118,    119,     79, -1 
	    79,    120,    118, -1 
	    79,    106,    120, -1 
	   106,     79,     80, -1 
	    79,    121,    116, -1 
	   119,    121,     79, -1 
	    82,     81,    112, -1 
	    81,     83,    117, -1 
	    81,    117,    112, -1 
	    83,    113,    117, -1 
	    89,    122,     83, -1 
	   123,     83,    122, -1 
	   113,     83,    123, -1 
	    84,    124,    125, -1 
	    85,     84,    126, -1 
	    84,    127,    126, -1 
	    87,    124,     84, -1 
	   125,    128,     84, -1 
	   128,    127,     84, -1 
	    85,    126,    129, -1 
	   122,     86,     85, -1 
	   122,     85,    130, -1 
	   130,     85,    129, -1 
	   122,     88,     86, -1 
	   131,     87,     90, -1 
	    87,    131,    132, -1 
	   124,     87,    132, -1 
	    88,    133,    134, -1 
	    89,     88,    134, -1 
	    88,    135,    133, -1 
	   122,    135,     88, -1 
	    89,    134,    122, -1 
	   136,     90,    137, -1 
	   137,     90,     91, -1 
	   136,    131,     90, -1 
	    91,    105,    137, -1 
	    92,    138,    139, -1 
	   140,    138,     92, -1 
	   141,    140,     92, -1 
	    92,     93,    141, -1 
	   139,    142,     92, -1 
	    92,    142,    143, -1 
	    92,    143,    144, -1 
	   144,    106,     92, -1 
	    93,    145,    141, -1 
	   115,    145,     93, -1 
	    94,    109,    146, -1 
	   147,     95,     94, -1 
	   147,     94,    146, -1 
	   148,     96,     95, -1 
	   148,     95,    147, -1 
	   148,     97,     96, -1 
	   121,     98,     97, -1 
	   148,    121,     97, -1 
	   121,    119,     98, -1 
	    98,    149,    103, -1 
	   149,     98,    150, -1 
	   150,     98,    119, -1 
	   151,    152,     99, -1 
	   152,    100,     99, -1 
	    99,    101,    149, -1 
	   153,     99,    149, -1 
	   151,     99,    153, -1 
	   154,    155,    100, -1 
	   152,    156,    100, -1 
	   100,    155,    102, -1 
	   100,    157,    154, -1 
	   100,    156,    157, -1 
	   101,    104,    149, -1 
	   105,    102,    158, -1 
	   159,    158,    102, -1 
	   159,    102,    155, -1 
	   149,    160,    103, -1 
	   160,    104,    103, -1 
	   160,    161,    104, -1 
	   161,    162,    104, -1 
	   104,    162,    149, -1 
	   137,    105,    163, -1 
	   105,    158,    163, -1 
	   144,    164,    106, -1 
	   106,    164,    120, -1 
	   116,    107,    110, -1 
	   116,    108,    107, -1 
	   109,    108,    116, -1 
	   146,    109,    116, -1 
	   116,    110,    111, -1 
	   116,    111,    112, -1 
	   116,    112,    117, -1 
	   123,    114,    113, -1 
	   114,    123,    129, -1 
	   114,    129,    165, -1 
	   166,    114,    165, -1 
	   166,    145,    114, -1 
	   115,    114,    145, -1 
	   147,    146,    116, -1 
	   148,    147,    116, -1 
	   121,    148,    116, -1 
	   119,    118,    150, -1 
	   151,    150,    118, -1 
	   167,    151,    118, -1 
	   167,    118,    168, -1 
	   118,    164,    168, -1 
	   164,    118,    120, -1 
	   134,    135,    122, -1 
	   130,    123,    122, -1 
	   123,    130,    129, -1 
	   125,    124,    132, -1 
	   169,    170,    125, -1 
	   171,    169,    125, -1 
	   132,    171,    125, -1 
	   172,    125,    170, -1 
	   125,    172,    128, -1 
	   126,    173,    129, -1 
	   174,    173,    126, -1 
	   174,    126,    127, -1 
	   165,    174,    127, -1 
	   166,    165,    127, -1 
	   127,    128,    145, -1 
	   166,    127,    145, -1 
	   145,    128,    141, -1 
	   140,    128,    172, -1 
	   141,    128,    140, -1 
	   165,    129,    173, -1 
	   131,    175,    132, -1 
	   136,    175,    131, -1 
	   175,    171,    132, -1 
	   133,    135,    134, -1 
	   176,    136,    137, -1 
	   176,    175,    136, -1 
	   177,    176,    137, -1 
	   137,    163,    178, -1 
	   137,    178,    177, -1 
	   139,    138,    179, -1 
	   138,    140,    179, -1 
	   180,    181,    139, -1 
	   179,    180,    139, -1 
	   182,    142,    139, -1 
	   139,    181,    183, -1 
	   139,    183,    182, -1 
	   140,    172,    179, -1 
	   182,    143,    142, -1 
	   182,    184,    143, -1 
	   184,    157,    143, -1 
	   143,    157,    144, -1 
	   144,    157,    164, -1 
	   149,    162,    160, -1 
	   149,    150,    153, -1 
	   151,    153,    150, -1 
	   151,    185,    152, -1 
	   185,    151,    167, -1 
	   152,    185,    186, -1 
	   156,    152,    186, -1 
	   159,    155,    154, -1 
	   154,    187,    188, -1 
	   154,    188,    189, -1 
	   154,    189,    159, -1 
	   187,    154,    184, -1 
	   157,    184,    154, -1 
	   156,    186,    167, -1 
	   156,    167,    168, -1 
	   164,    157,    156, -1 
	   164,    156,    168, -1 
	   159,    190,    158, -1 
	   158,    190,    163, -1 
	   159,    189,    190, -1 
	   160,    162,    161, -1 
	   163,    190,    178, -1 
	   174,    165,    173, -1 
	   185,    167,    186, -1 
	   170,    169,    191, -1 
	   169,    192,    193, -1 
	   191,    169,    193, -1 
	   169,    171,    192, -1 
	   172,    170,    180, -1 
	   180,    170,    191, -1 
	   171,    175,    192, -1 
	   179,    172,    180, -1 
	   192,    175,    176, -1 
	   193,    192,    176, -1 
	   194,    193,    176, -1 
	   194,    176,    177, -1 
	   177,    178,    194, -1 
	   178,    190,    195, -1 
	   178,    195,    196, -1 
	   178,    196,    194, -1 
	   180,    191,    181, -1 
	   191,    197,    181, -1 
	   181,    197,    198, -1 
	   181,    198,    183, -1 
	   183,    184,    182, -1 
	   183,    187,    184, -1 
	   198,    187,    183, -1 
	   198,    188,    187, -1 
	   196,    195,    188, -1 
	   196,    188,    198, -1 
	   195,    189,    188, -1 
	   195,    190,    189, -1 
	   191,    199,    197, -1 
	   191,    193,    200, -1 
	   199,    191,    200, -1 
	   193,    194,    201, -1 
	   200,    193,    201, -1 
	   202,    201,    194, -1 
	   194,    203,    202, -1 
	   203,    194,    196, -1 
	   204,    196,    198, -1 
	   203,    196,    204, -1 
	   199,    205,    197, -1 
	   197,    205,    206, -1 
	   197,    207,    208, -1 
	   197,    208,    198, -1 
	   206,    207,    197, -1 
	   204,    198,    208, -1 
	   199,    200,    201, -1 
	   209,    199,    201, -1 
	   199,    209,    205, -1 
	   209,    201,    202, -1 
	   210,    209,    202, -1 
	   202,    203,    211, -1 
	   202,    211,    210, -1 
	   203,    204,    208, -1 
	   203,    208,    211, -1 
	   205,    209,    210, -1 
	   206,    205,    210, -1 
	   210,    207,    206, -1 
	   210,    211,    207, -1 
	   207,    211,    208, -1 
    ] 
   colorPerVertex FALSE 
    colorIndex [ 
	  1, 
	  1, 
	  1, 
	  1, 
	  1, 
	  1, 
	  1, 
	  1, 
	  1, 
	  1, 
	  1, 
	  1, 
	  1, 
	  1, 
	  1, 
	  1, 
	  1, 
	  1, 
	  1, 
	  1, 
	  1, 
	  1, 
	  1, 
	  1, 
	  1, 
	  1, 
	  1, 
	  1, 
	  1, 
	  1, 
	  1, 
	  1, 
	  1, 
	  1, 
	  1, 
	  1, 
	  1, 
	  1, 
	  1, 
	  1, 
	  1, 
	  1, 
	  1, 
	  1, 
	  1, 
	  1, 
	  1, 
	  1, 
	  1, 
	  1, 
	  1, 
	  1, 
	  1, 
	  1, 
	  1, 
	  1, 
	  1, 
	  1, 
	  1, 
	  1, 
	  1, 
	  1, 
	  1, 
	  1, 
	  1, 
	  1, 
	  1, 
	  1, 
	  1, 
	  1, 
	  1, 
	  1, 
	  1, 
	  1, 
	  1, 
	  1, 
	  1, 
	  1, 
	  1, 
	  1, 
	  1, 
	  1, 
	  1, 
	  1, 
	  1, 
	  1, 
	  1, 
	  1, 
	  1, 
	  1, 
	  1, 
	  1, 
	  1, 
	  1, 
	  1, 
	  1, 
	  1, 
	  1, 
	  1, 
	  1, 
	  1, 
	  1, 
	  1, 
	  1, 
	  1, 
	  1, 
	  1, 
	  1, 
	  1, 
	  1, 
	  1, 
	  1, 
	  1, 
	  1, 
	  1, 
	  1, 
	  1, 
	  1, 
	  1, 
	  1, 
	  1, 
	  1, 
	  1, 
	  1, 
	  1, 
	  1, 
	  1, 
	  1, 
	  1, 
	  1, 
	  1, 
	  1, 
	  1, 
	  1, 
	  1, 
	  1, 
	  1, 
	  1, 
	  1, 
	  1, 
	  1, 
	  1, 
	  1, 
	  1, 
	  1, 
	  1, 
	  1, 
	  1, 
	  1, 
	  1, 
	  1, 
	  1, 
	  1, 
	  1, 
	  1, 
	  1, 
	  1, 
	  1, 
	  1, 
	  1, 
	  1, 
	  1, 
	  1, 
	  1, 
	  1, 
	  1, 
	  1, 
	  1, 
	  1, 
	  1, 
	  1, 
	  1, 
	  1, 
	  1, 
	  1, 
	  1, 
	  1, 
	  1, 
	  1, 
	  1, 
	  1, 
	  1, 
	  1, 
	  1, 
	  1, 
	  1, 
	  1, 
	  1, 
	  1, 
	  1, 
	  1, 
	  1, 
	  1, 
	  1, 
	  1, 
	  1, 
	  1, 
	  1, 
	  1, 
	  1, 
	  1, 
	  1, 
	  1, 
	  1, 
	  1, 
	  1, 
	  1, 
	  1, 
	  1, 
	  1, 
	  1, 
	  1, 
    ] 
normal Normal { 
vector [ 
	  0.444162  -0.895946   0.000000,
	  0.684901  -0.716352  -0.133230,
	  0.943990  -0.329974   0.000000,
	  0.742867  -0.401784  -0.535461,
	  0.447295  -0.232276  -0.863699,
	 -0.769892  -0.638174   0.000000,
	 -0.443640  -0.896053   0.016525,
	 -0.771975  -0.565318  -0.290636,
	 -0.046853  -0.404187  -0.913476,
	  0.684902  -0.716351   0.133230,
	  0.742868  -0.401778   0.535464,
	  0.447290  -0.232272   0.863702,
	 -0.443640  -0.896053  -0.016525,
	 -0.771975  -0.565318   0.290636,
	 -0.046853  -0.404187   0.913476,
	  0.918152   0.277219  -0.283102,
	  0.897923   0.440152   0.000000,
	  0.918151   0.277222   0.283101,
	  0.490149   0.466971  -0.735997,
	  0.110146   0.340299  -0.933844,
	 -0.963450  -0.257075   0.075337,
	 -0.971114  -0.238617   0.000000,
	 -0.963450  -0.257075  -0.075337,
	 -0.763835  -0.283590  -0.579770,
	 -0.432952   0.142118  -0.890143,
	 -0.934607  -0.331908   0.127855,
	  0.490144   0.466977   0.735996,
	  0.110146   0.340299   0.933844,
	 -0.432952   0.142118   0.890143,
	 -0.763835  -0.283590   0.579770,
	 -0.934607  -0.331908  -0.127855,
	  0.808832   0.438501  -0.391800,
	  0.885865   0.463942   0.000000,
	  0.808832   0.438501   0.391800,
	  0.525385   0.318879  -0.788851,
	  0.151697   0.180298  -0.971844,
	 -0.877602  -0.396947   0.268792,
	 -0.890366  -0.455244   0.000000,
	 -0.877602  -0.396947  -0.268792,
	  0.069222  -0.575832  -0.814633,
	 -0.088624  -0.069828  -0.993614,
	 -0.515955  -0.714016   0.473256,
	  0.525385   0.318879   0.788851,
	  0.151697   0.180298   0.971844,
	 -0.088624  -0.069828   0.993614,
	  0.069223  -0.575831   0.814633,
	 -0.515954  -0.714016  -0.473258,
	  0.906634   0.178494  -0.382302,
	  0.961769   0.273863   0.000000,
	  0.906634   0.178494   0.382302,
	  0.609393  -0.029497  -0.792319,
	  0.299492  -0.175755  -0.937771,
	 -0.873252  -0.404814   0.271213,
	 -0.372606  -0.142237   0.917024,
	 -0.920762  -0.390125   0.000000,
	 -0.873252  -0.404814  -0.271213,
	 -0.372606  -0.142237  -0.917024,
	  0.138832   0.027212  -0.989942,
	  0.109900  -0.255533  -0.960534,
	  0.144987  -0.751471  -0.643638,
	  0.321210  -0.910722  -0.259634,
	  0.657521  -0.229251  -0.717711,
	  0.607969   0.404154   0.683399,
	  0.609393  -0.029497   0.792319,
	  0.299492  -0.175755   0.937771,
	  0.109900  -0.255533   0.960534,
	  0.138832   0.027212   0.989942,
	  0.321212  -0.910721   0.259632,
	  0.144989  -0.751470   0.643639,
	  0.657521  -0.229250   0.717712,
	  0.607968   0.404153  -0.683400,
	  0.933428   0.148368  -0.326648,
	  0.978507   0.206215   0.000000,
	  0.933428   0.148368   0.326648,
	  0.635759  -0.013288  -0.771774,
	  0.276994  -0.216822  -0.936089,
	 -0.689842   0.608580   0.392109,
	 -0.182048  -0.080407   0.979997,
	 -0.893625   0.448814   0.000000,
	 -0.689842   0.608580  -0.392109,
	 -0.182048  -0.080407  -0.979997,
	 -0.247814   0.137306  -0.959028,
	 -0.013415  -0.193928  -0.980924,
	  0.167091   0.769410  -0.616514,
	 -0.241631  -0.744469  -0.622399,
	 -0.514195  -0.518776  -0.682990,
	 -0.132261  -0.882594  -0.451148,
	  0.905953  -0.035163  -0.421916,
	  0.191054  -0.976147  -0.103123,
	  0.738142   0.286261  -0.610902,
	  0.904132   0.138396   0.404218,
	  0.816572   0.577244   0.000000,
	 -0.744596   0.667516   0.000000,
	 -0.527006   0.330416   0.783001,
	  0.635759  -0.013288   0.771774,
	  0.276994  -0.216822   0.936089,
	 -0.013415  -0.193928   0.980924,
	 -0.247814   0.137306   0.959028,
	  0.167091   0.769410   0.616514,
	 -0.514196  -0.518779   0.682987,
	 -0.241630  -0.744469   0.622399,
	 -0.132262  -0.882594   0.451149,
	  0.905953  -0.035167   0.421915,
	  0.738142   0.286261   0.610902,
	  0.191055  -0.976147   0.103127,
	  0.904132   0.138396  -0.404218,
	 -0.527008   0.330417  -0.782999,
	  0.482095   0.796198  -0.365586,
	  0.663763   0.747943   0.000000,
	  0.482095   0.796198   0.365586,
	  0.168085   0.815861  -0.553279,
	  0.035270   0.544804  -0.837822,
	 -0.287828   0.386123  -0.876393,
	 -0.012631   0.919382  -0.393164,
	 -0.318667   0.926786   0.198793,
	 -0.728226   0.374447   0.574000,
	 -0.358784   0.933421   0.000000,
	 -0.492467   0.767232  -0.410890,
	 -0.318665   0.926787  -0.198794,
	 -0.012631   0.919382   0.393164,
	 -0.728228   0.374446  -0.573998,
	 -0.492467   0.767232   0.410890,
	 -0.469195   0.634660  -0.614054,
	  0.139725   0.834491  -0.533012,
	 -0.042569   0.000569  -0.999093,
	 -0.858008  -0.050605  -0.511137,
	 -0.226151  -0.673195  -0.704035,
	 -0.489170  -0.622795   0.610606,
	 -0.922043  -0.159713   0.352603,
	 -0.282807   0.528934  -0.800156,
	 -0.463850   0.492149  -0.736636,
	  0.963097   0.124210  -0.238781,
	 -0.003124   0.118607  -0.992936,
	 -0.554928  -0.810284  -0.188400,
	  0.329815  -0.063004  -0.941941,
	 -0.973709  -0.091069   0.208801,
	  0.886206  -0.065279   0.458669,
	  0.998157  -0.060679   0.000000,
	 -0.711509   0.393680  -0.582041,
	 -0.838854   0.544356   0.000000,
	 -0.949460   0.225493  -0.218354,
	 -0.974249   0.071520   0.213830,
	 -0.711509   0.393680   0.582041,
	 -0.949460   0.225493   0.218354,
	 -0.974249   0.071523  -0.213829,
	 -0.785423   0.113810   0.608406,
	  0.168085   0.815861   0.553279,
	  0.035270   0.544804   0.837822,
	 -0.287828   0.386123   0.876393,
	 -0.469193   0.634660   0.614056,
	  0.139726   0.834493   0.533009,
	 -0.282812   0.528933   0.800154,
	 -0.226150  -0.673195   0.704034,
	 -0.463855   0.492147   0.736634,
	 -0.858008  -0.050604   0.511138,
	 -0.042571   0.000569   0.999093,
	 -0.489167  -0.622794  -0.610609,
	 -0.922043  -0.159709  -0.352604,
	  0.963097   0.124210   0.238781,
	 -0.003124   0.118607   0.992936,
	  0.329819  -0.062998   0.941940,
	 -0.554924  -0.810283   0.188414,
	 -0.973711  -0.091074  -0.208789,
	  0.886206  -0.065279  -0.458669,
	 -0.785421   0.113813  -0.608408,
	 -0.806557   0.238294   0.541000,
	 -0.401058   0.167950   0.900525,
	 -0.806557   0.238294  -0.541000,
	 -0.401050   0.167949  -0.900529,
	 -0.577635  -0.641084  -0.505321,
	 -0.765701  -0.024294  -0.642738,
	 -0.661378  -0.665758  -0.345464,
	 -0.927886   0.223874  -0.298173,
	 -0.636112  -0.098447  -0.765291,
	 -0.656943  -0.749281  -0.083689,
	  0.754599  -0.638609  -0.150859,
	  0.631197  -0.624830   0.459542,
	  0.951007  -0.309168   0.000000,
	  0.631197  -0.624830  -0.459542,
	 -0.723812   0.263292  -0.637788,
	 -0.650890   0.258429  -0.713833,
	 -0.788694   0.614786   0.000000,
	 -0.723812   0.263292   0.637788,
	 -0.650890   0.258429   0.713833,
	 -0.927886   0.223874   0.298173,
	 -0.636112  -0.098447   0.765291,
	 -0.656943  -0.749281   0.083689,
	 -0.765701  -0.024294   0.642738,
	 -0.577635  -0.641084   0.505321,
	 -0.661378  -0.665758   0.345464,
	  0.754599  -0.638609   0.150859,
	 -0.395352  -0.116991  -0.911049,
	 -0.124179  -0.981334   0.146844,
	  0.107565  -0.717024  -0.688699,
	  0.665101  -0.746753   0.000000,
	 -0.124179  -0.981334  -0.146844,
	  0.107565  -0.717024   0.688699,
	 -0.960628   0.277838   0.000000,
	 -0.395352  -0.116991   0.911049,
	 -0.093032   0.164230  -0.982025,
	 -0.004825  -0.087795  -0.996127,
	  0.333879  -0.533801  -0.776905,
	  0.275477  -0.961308   0.000000,
	  0.333879  -0.533801   0.776905,
	 -0.004825  -0.087795   0.996127,
	 -0.693554  -0.306439  -0.651980,
	 -0.749634  -0.661853   0.000000,
	 -0.693554  -0.306439   0.651980,
	 -0.093032   0.164230   0.982025,
	 -0.097518  -0.682709  -0.724154,
	 -0.418708  -0.908121   0.000000,
	 -0.097518  -0.682709   0.724154,
     ]    } 
normalIndex      [ 
	     0,      1,      2, -1 
	     0,      3,      1, -1 
	     0,      4,      3, -1 
	     0,      5,      6, -1 
	     6,      7,      0, -1 
	     0,      7,      8, -1 
	     8,      4,      0, -1 
	     2,      9,      0, -1 
	     9,     10,      0, -1 
	    10,     11,      0, -1 
	    12,      5,      0, -1 
	     0,     13,     12, -1 
	    14,     13,      0, -1 
	     0,     11,     14, -1 
	     2,      1,     15, -1 
	    15,      1,      3, -1 
	    16,      2,     15, -1 
	    17,      9,      2, -1 
	    17,      2,     16, -1 
	    18,     15,      3, -1 
	    18,      3,      4, -1 
	    19,     18,      4, -1 
	    19,      4,      8, -1 
	    20,      6,      5, -1 
	    21,     20,      5, -1 
	     5,     12,     22, -1 
	     5,     22,     21, -1 
	     6,     20,      7, -1 
	     7,     23,     24, -1 
	     8,      7,     24, -1 
	    25,     23,      7, -1 
	    20,     25,      7, -1 
	    24,     19,      8, -1 
	    10,      9,     17, -1 
	    10,     17,     26, -1 
	    11,     10,     26, -1 
	    11,     26,     27, -1 
	    14,     11,     27, -1 
	    13,     22,     12, -1 
	    28,     29,     13, -1 
	    28,     13,     14, -1 
	    13,     29,     30, -1 
	    13,     30,     22, -1 
	    14,     27,     28, -1 
	    15,     31,     32, -1 
	    16,     15,     32, -1 
	    31,     15,     18, -1 
	    32,     17,     16, -1 
	    32,     33,     17, -1 
	    26,     17,     33, -1 
	    34,     31,     18, -1 
	    34,     18,     19, -1 
	    35,     34,     19, -1 
	    35,     19,     24, -1 
	    20,     21,     36, -1 
	    25,     20,     36, -1 
	    37,     36,     21, -1 
	    21,     38,     37, -1 
	    38,     21,     22, -1 
	    38,     22,     30, -1 
	    23,     39,     40, -1 
	    24,     23,     40, -1 
	    41,     23,     25, -1 
	    41,     39,     23, -1 
	    40,     35,     24, -1 
	    41,     25,     36, -1 
	    26,     33,     42, -1 
	    27,     26,     42, -1 
	    27,     42,     43, -1 
	    28,     27,     43, -1 
	    28,     43,     44, -1 
	    44,     29,     28, -1 
	    44,     45,     29, -1 
	    30,     29,     46, -1 
	    29,     45,     46, -1 
	    38,     30,     46, -1 
	    31,     47,     48, -1 
	    32,     31,     48, -1 
	    47,     31,     34, -1 
	    48,     33,     32, -1 
	    48,     49,     33, -1 
	    42,     33,     49, -1 
	    50,     47,     34, -1 
	    50,     34,     35, -1 
	    51,     50,     35, -1 
	    51,     35,     40, -1 
	    52,     36,     37, -1 
	    52,     53,     36, -1 
	    53,     41,     36, -1 
	    54,     52,     37, -1 
	    37,     38,     55, -1 
	    37,     55,     54, -1 
	    38,     56,     55, -1 
	    38,     46,     56, -1 
	    39,     57,     58, -1 
	    40,     39,     58, -1 
	    59,     39,     60, -1 
	    39,     59,     61, -1 
	    57,     39,     61, -1 
	    41,     60,     39, -1 
	    58,     51,     40, -1 
	    41,     62,     60, -1 
	    62,     41,     53, -1 
	    42,     49,     63, -1 
	    43,     42,     63, -1 
	    43,     63,     64, -1 
	    44,     43,     64, -1 
	    44,     64,     65, -1 
	    65,     45,     44, -1 
	    65,     66,     45, -1 
	    67,     45,     68, -1 
	    69,     68,     45, -1 
	    69,     45,     66, -1 
	    45,     67,     46, -1 
	    67,     70,     46, -1 
	    56,     46,     70, -1 
	    47,     71,     72, -1 
	    48,     47,     72, -1 
	    71,     47,     50, -1 
	    72,     49,     48, -1 
	    72,     73,     49, -1 
	    63,     49,     73, -1 
	    74,     71,     50, -1 
	    74,     50,     51, -1 
	    75,     74,     51, -1 
	    75,     51,     58, -1 
	    76,     52,     54, -1 
	    77,     53,     52, -1 
	    76,     77,     52, -1 
	    53,     77,     62, -1 
	    78,     76,     54, -1 
	    54,     55,     79, -1 
	    54,     79,     78, -1 
	    55,     56,     80, -1 
	    55,     80,     79, -1 
	    70,     80,     56, -1 
	    57,     81,     82, -1 
	    58,     57,     82, -1 
	    57,     61,     83, -1 
	    81,     57,     83, -1 
	    82,     75,     58, -1 
	    61,     59,     60, -1 
	    60,     84,     85, -1 
	    86,     60,     85, -1 
	    86,     61,     60, -1 
	    87,     84,     60, -1 
	    62,     87,     60, -1 
	    88,     89,     61, -1 
	    86,     88,     61, -1 
	    61,     89,     83, -1 
	    90,     62,     91, -1 
	    92,     91,     62, -1 
	    93,     92,     62, -1 
	    62,     90,     87, -1 
	    77,     93,     62, -1 
	    63,     73,     94, -1 
	    64,     63,     94, -1 
	    64,     94,     95, -1 
	    65,     64,     95, -1 
	    65,     95,     96, -1 
	    96,     66,     65, -1 
	    96,     97,     66, -1 
	    98,     69,     66, -1 
	    98,     66,     97, -1 
	    99,    100,     67, -1 
	    99,     67,    101, -1 
	    67,     68,     69, -1 
	    67,     69,    101, -1 
	    67,    100,    102, -1 
	    67,    102,     70, -1 
	    69,    103,    104, -1 
	    69,    104,    101, -1 
	    98,    103,     69, -1 
	    91,     70,    105, -1 
	    70,     91,     92, -1 
	    70,     92,    106, -1 
	   102,    105,     70, -1 
	    70,    106,     80, -1 
	    71,    107,    108, -1 
	    72,     71,    108, -1 
	   107,     71,     74, -1 
	   108,     73,     72, -1 
	   108,    109,     73, -1 
	    94,     73,    109, -1 
	   110,    107,     74, -1 
	    74,     75,    111, -1 
	   110,     74,    111, -1 
	    75,     82,    112, -1 
	   111,     75,    112, -1 
	    76,    113,    114, -1 
	   114,    115,     76, -1 
	   115,     93,     76, -1 
	    77,     76,     93, -1 
	   116,     76,     78, -1 
	   116,    117,     76, -1 
	    76,    117,    113, -1 
	    78,     79,    116, -1 
	   118,    119,     79, -1 
	    79,    120,    118, -1 
	    79,    106,    120, -1 
	   106,     79,     80, -1 
	    79,    121,    116, -1 
	   119,    121,     79, -1 
	    82,     81,    112, -1 
	    81,     83,    117, -1 
	    81,    117,    112, -1 
	    83,    113,    117, -1 
	    89,    122,     83, -1 
	   123,     83,    122, -1 
	   113,     83,    123, -1 
	    84,    124,    125, -1 
	    85,     84,    126, -1 
	    84,    127,    126, -1 
	    87,    124,     84, -1 
	   125,    128,     84, -1 
	   128,    127,     84, -1 
	    85,    126,    129, -1 
	   122,     86,     85, -1 
	   122,     85,    130, -1 
	   130,     85,    129, -1 
	   122,     88,     86, -1 
	   131,     87,     90, -1 
	    87,    131,    132, -1 
	   124,     87,    132, -1 
	    88,    133,    134, -1 
	    89,     88,    134, -1 
	    88,    135,    133, -1 
	   122,    135,     88, -1 
	    89,    134,    122, -1 
	   136,     90,    137, -1 
	   137,     90,     91, -1 
	   136,    131,     90, -1 
	    91,    105,    137, -1 
	    92,    138,    139, -1 
	   140,    138,     92, -1 
	   141,    140,     92, -1 
	    92,     93,    141, -1 
	   139,    142,     92, -1 
	    92,    142,    143, -1 
	    92,    143,    144, -1 
	   144,    106,     92, -1 
	    93,    145,    141, -1 
	   115,    145,     93, -1 
	    94,    109,    146, -1 
	   147,     95,     94, -1 
	   147,     94,    146, -1 
	   148,     96,     95, -1 
	   148,     95,    147, -1 
	   148,     97,     96, -1 
	   121,     98,     97, -1 
	   148,    121,     97, -1 
	   121,    119,     98, -1 
	    98,    149,    103, -1 
	   149,     98,    150, -1 
	   150,     98,    119, -1 
	   151,    152,     99, -1 
	   152,    100,     99, -1 
	    99,    101,    149, -1 
	   153,     99,    149, -1 
	   151,     99,    153, -1 
	   154,    155,    100, -1 
	   152,    156,    100, -1 
	   100,    155,    102, -1 
	   100,    157,    154, -1 
	   100,    156,    157, -1 
	   101,    104,    149, -1 
	   105,    102,    158, -1 
	   159,    158,    102, -1 
	   159,    102,    155, -1 
	   149,    160,    103, -1 
	   160,    104,    103, -1 
	   160,    161,    104, -1 
	   161,    162,    104, -1 
	   104,    162,    149, -1 
	   137,    105,    163, -1 
	   105,    158,    163, -1 
	   144,    164,    106, -1 
	   106,    164,    120, -1 
	   116,    107,    110, -1 
	   116,    108,    107, -1 
	   109,    108,    116, -1 
	   146,    109,    116, -1 
	   116,    110,    111, -1 
	   116,    111,    112, -1 
	   116,    112,    117, -1 
	   123,    114,    113, -1 
	   114,    123,    129, -1 
	   114,    129,    165, -1 
	   166,    114,    165, -1 
	   166,    145,    114, -1 
	   115,    114,    145, -1 
	   147,    146,    116, -1 
	   148,    147,    116, -1 
	   121,    148,    116, -1 
	   119,    118,    150, -1 
	   151,    150,    118, -1 
	   167,    151,    118, -1 
	   167,    118,    168, -1 
	   118,    164,    168, -1 
	   164,    118,    120, -1 
	   134,    135,    122, -1 
	   130,    123,    122, -1 
	   123,    130,    129, -1 
	   125,    124,    132, -1 
	   169,    170,    125, -1 
	   171,    169,    125, -1 
	   132,    171,    125, -1 
	   172,    125,    170, -1 
	   125,    172,    128, -1 
	   126,    173,    129, -1 
	   174,    173,    126, -1 
	   174,    126,    127, -1 
	   165,    174,    127, -1 
	   166,    165,    127, -1 
	   127,    128,    145, -1 
	   166,    127,    145, -1 
	   145,    128,    141, -1 
	   140,    128,    172, -1 
	   141,    128,    140, -1 
	   165,    129,    173, -1 
	   131,    175,    132, -1 
	   136,    175,    131, -1 
	   175,    171,    132, -1 
	   133,    135,    134, -1 
	   176,    136,    137, -1 
	   176,    175,    136, -1 
	   177,    176,    137, -1 
	   137,    163,    178, -1 
	   137,    178,    177, -1 
	   139,    138,    179, -1 
	   138,    140,    179, -1 
	   180,    181,    139, -1 
	   179,    180,    139, -1 
	   182,    142,    139, -1 
	   139,    181,    183, -1 
	   139,    183,    182, -1 
	   140,    172,    179, -1 
	   182,    143,    142, -1 
	   182,    184,    143, -1 
	   184,    157,    143, -1 
	   143,    157,    144, -1 
	   144,    157,    164, -1 
	   149,    162,    160, -1 
	   149,    150,    153, -1 
	   151,    153,    150, -1 
	   151,    185,    152, -1 
	   185,    151,    167, -1 
	   152,    185,    186, -1 
	   156,    152,    186, -1 
	   159,    155,    154, -1 
	   154,    187,    188, -1 
	   154,    188,    189, -1 
	   154,    189,    159, -1 
	   187,    154,    184, -1 
	   157,    184,    154, -1 
	   156,    186,    167, -1 
	   156,    167,    168, -1 
	   164,    157,    156, -1 
	   164,    156,    168, -1 
	   159,    190,    158, -1 
	   158,    190,    163, -1 
	   159,    189,    190, -1 
	   160,    162,    161, -1 
	   163,    190,    178, -1 
	   174,    165,    173, -1 
	   185,    167,    186, -1 
	   170,    169,    191, -1 
	   169,    192,    193, -1 
	   191,    169,    193, -1 
	   169,    171,    192, -1 
	   172,    170,    180, -1 
	   180,    170,    191, -1 
	   171,    175,    192, -1 
	   179,    172,    180, -1 
	   192,    175,    176, -1 
	   193,    192,    176, -1 
	   194,    193,    176, -1 
	   194,    176,    177, -1 
	   177,    178,    194, -1 
	   178,    190,    195, -1 
	   178,    195,    196, -1 
	   178,    196,    194, -1 
	   180,    191,    181, -1 
	   191,    197,    181, -1 
	   181,    197,    198, -1 
	   181,    198,    183, -1 
	   183,    184,    182, -1 
	   183,    187,    184, -1 
	   198,    187,    183, -1 
	   198,    188,    187, -1 
	   196,    195,    188, -1 
	   196,    188,    198, -1 
	   195,    189,    188, -1 
	   195,    190,    189, -1 
	   191,    199,    197, -1 
	   191,    193,    200, -1 
	   199,    191,    200, -1 
	   193,    194,    201, -1 
	   200,    193,    201, -1 
	   202,    201,    194, -1 
	   194,    203,    202, -1 
	   203,    194,    196, -1 
	   204,    196,    198, -1 
	   203,    196,    204, -1 
	   199,    205,    197, -1 
	   197,    205,    206, -1 
	   197,    207,    208, -1 
	   197,    208,    198, -1 
	   206,    207,    197, -1 
	   204,    198,    208, -1 
	   199,    200,    201, -1 
	   209,    199,    201, -1 
	   199,    209,    205, -1 
	   209,    201,    202, -1 
	   210,    209,    202, -1 
	   202,    203,    211, -1 
	   202,    211,    210, -1 
	   203,    204,    208, -1 
	   203,    208,    211, -1 
	   205,    209,    210, -1 
	   206,    205,    210, -1 
	   210,    207,    206, -1 
	   210,    211,    207, -1 
	   207,    211,    208, -1 
    ] 
normalPerVertex  TRUE 
   } 
  } 
 ] 
} 
