# 
# Wavefront OBJ file
# Converted by the DEEP Exploration 2.00.1211
# Right Hemisphere, LTD
# http://www.righthemisphere.com/
# 
mtllib lumbar3.mtl
# object Object #0
g Object__0
v 0.001708 0.009111 0
v 0.016093 0.014009 -0.009262
v 0.01442 0.00971 0
v 0.011124 0.013168 -0.018954
v 0.003323 0.010945 -0.023673
v -0.016179 0.00727 0
v -0.016003 0.006914 -0.005562
v -0.01645 0.0072 -0.016477
v -0.011247 0.009679 -0.023811
v 0.016093 0.014009 0.009262
v 0.011124 0.013168 0.018954
v 0.003323 0.010945 0.023673
v -0.016003 0.006914 0.005562
v -0.01645 0.0072 0.016477
v -0.011247 0.009679 0.023811
v 0.016565 0.015332 -0.011124
v 0.016312 0.016029 0
v 0.016565 0.015332 0.011124
v 0.009699 0.016054 -0.018305
v 0.000896 0.016684 -0.022255
v -0.016837 0.012967 -0.005203
v -0.016772 0.012824 0
v -0.016837 0.012967 0.005203
v -0.01722 0.014862 -0.016825
v -0.010353 0.013083 -0.022422
v -0.018186 0.014361 -0.009934
v 0.009699 0.016054 0.018305
v 0.000896 0.016684 0.022255
v -0.010353 0.013083 0.022422
v -0.01722 0.014862 0.016825
v -0.018186 0.014361 0.009934
v 0.012973 0.021389 -0.010828
v 0.014479 0.021262 0
v 0.012973 0.021389 0.010828
v 0.006977 0.02126 -0.017846
v -0.000132 0.021651 -0.020238
v -0.01819 0.020038 -0.006682
v -0.017674 0.020215 0
v -0.01819 0.020038 0.006682
v -0.016613 0.018818 -0.020062
v -0.010673 0.020711 -0.021215
v -0.0203 0.020148 -0.01025
v 0.006977 0.02126 0.017846
v -0.000132 0.021651 0.020238
v -0.010673 0.020711 0.021215
v -0.016613 0.018818 0.020062
v -0.0203 0.020148 0.01025
v 0.011143 0.031077 -0.010444
v 0.012369 0.032768 0
v 0.011143 0.031077 0.010444
v 0.00479 0.029989 -0.018532
v -0.000473 0.028712 -0.020328
v -0.021571 0.026632 -0.006904
v -0.023777 0.026561 -0.010717
v -0.020825 0.02696 0
v -0.021571 0.026632 0.006904
v -0.023777 0.026561 0.010717
v -0.016646 0.025981 -0.021785
v -0.011343 0.026221 -0.021365
v -0.020643 0.020624 -0.022166
v -0.023009 0.016551 -0.018073
v -0.023552 0.023907 -0.026513
v -0.029594 0.020457 -0.003907
v 0.00479 0.029989 0.018532
v -0.000473 0.028712 0.020328
v -0.011343 0.026221 0.021365
v -0.016646 0.025981 0.021785
v -0.023009 0.016551 0.018073
v -0.020643 0.020624 0.022166
v -0.023552 0.023907 0.026513
v -0.029594 0.020457 0.003907
v 0.011463 0.036826 -0.011558
v 0.012021 0.037458 0
v 0.011463 0.036826 0.011558
v 0.006002 0.034871 -0.019617
v -0.000419 0.032499 -0.022482
v -0.023792 0.034768 -0.008814
v -0.024204 0.032581 -0.011508
v -0.021818 0.034186 0
v -0.023792 0.034768 0.008814
v -0.024204 0.032581 0.011508
v -0.018716 0.030693 -0.021049
v -0.00997 0.031765 -0.023575
v -0.025715 0.030302 -0.021103
v -0.03099 0.019551 -0.01818
v -0.033629 0.024046 -0.024478
v -0.027132 0.01788 -0.026187
v -0.024508 0.012901 -0.011124
v -0.02862 0.020163 -0.030642
v -0.027725 0.023896 -0.033706
v -0.027088 0.007718 -0.005383
v -0.029596 0.018759 0
v -0.038997 0.019992 0
v -0.032999 0.026906 -0.008137
v 0.006002 0.034871 0.019617
v -0.000419 0.032499 0.022482
v -0.00997 0.031765 0.023575
v -0.018716 0.030693 0.021049
v -0.025715 0.030302 0.021103
v -0.033629 0.024046 0.024478
v -0.03099 0.019551 0.01818
v -0.027132 0.01788 0.026187
v -0.024508 0.012901 0.011124
v -0.027725 0.023896 0.033706
v -0.02862 0.020163 0.030642
v -0.027088 0.007718 0.005383
v -0.032999 0.026906 0.008137
v 0.01002 0.041978 -0.01177
v 0.010847 0.042487 0
v 0.01002 0.041978 0.01177
v 0.004715 0.040319 -0.019887
v -0.002753 0.03855 -0.023569
v -0.012263 0.035486 -0.023722
v -0.025822 0.032455 -0.014901
v -0.033313 0.037715 -0.016914
v -0.032606 0.034661 -0.01062
v -0.005485 0.038337 0
v -0.021653 0.034759 -0.018094
v -0.033313 0.037715 0.016914
v -0.025822 0.032455 0.014901
v -0.032606 0.034661 0.01062
v -0.021653 0.034759 0.018094
v -0.03112 0.029677 -0.030079
v -0.030608 0.033469 -0.019454
v -0.032857 0.01152 -0.016372
v -0.037272 0.008742 -0.013371
v -0.039517 0.0246 -0.022325
v -0.039809 0.023045 -0.014991
v -0.037229 0.021928 -0.013403
v -0.040801 0.034419 -0.020599
v -0.034505 0.030821 -0.022512
v -0.024321 0.005621 -0.01268
v -0.036409 0.004159 -0.018044
v -0.033241 0.020538 -0.034004
v -0.031891 0.023416 -0.037289
v -0.035554 0.028416 -0.034481
v -0.026359 0.00183 -0.007068
v -0.030558 0.008194 0
v -0.039532 0.015696 -0.005219
v -0.047579 0.009914 0
v -0.035208 0.015355 -0.008762
v -0.035904 0.020307 -0.010989
v -0.039532 0.015696 0.005219
v -0.035208 0.015355 0.008762
v -0.035904 0.020307 0.010989
v -0.034244 0.027259 -0.011991
v 0.004715 0.040319 0.019887
v -0.002753 0.03855 0.023569
v -0.012263 0.035486 0.023722
v -0.03112 0.029677 0.030079
v -0.030608 0.033469 0.019454
v -0.040801 0.034419 0.020599
v -0.039517 0.0246 0.022325
v -0.034505 0.030821 0.022512
v -0.037272 0.008742 0.013371
v -0.032857 0.01152 0.016372
v -0.039809 0.023045 0.014991
v -0.037229 0.021928 0.013403
v -0.024321 0.005621 0.01268
v -0.036409 0.004159 0.018044
v -0.031891 0.023416 0.037289
v -0.033241 0.020538 0.034004
v -0.035554 0.028416 0.034481
v -0.026359 0.00183 0.007068
v -0.034244 0.027259 0.011991
v -0.046231 0.029581 -0.017263
v -0.038745 0.028454 -0.01472
v -0.046231 0.029581 0.017263
v -0.038745 0.028454 0.01472
v -0.038816 -0.000177 -0.010267
v -0.03937 0.004993 -0.01085
v -0.035245 -0.003328 -0.017789
v -0.037467 0.011129 -0.009348
v -0.044035 0.02831 -0.022833
v -0.045564 0.025299 -0.017736
v -0.026578 -0.007195 -0.01409
v -0.028794 -0.001351 -0.005614
v -0.032473 0.00169 0
v -0.028794 -0.001351 0.005614
v -0.042913 0.010034 -0.004406
v -0.045571 0.005065 -0.004289
v -0.056805 0.004591 0
v -0.042913 0.010034 0.004406
v -0.045571 0.005065 0.004289
v -0.037467 0.011129 0.009348
v -0.044035 0.02831 0.022833
v -0.045564 0.025299 0.017736
v -0.03937 0.004993 0.01085
v -0.038816 -0.000177 0.010267
v -0.035245 -0.003328 0.017789
v -0.026578 -0.007195 0.01409
v -0.04506 0.000152 -0.004478
v -0.034276 -0.002449 -0.008068
v -0.039938 -0.002084 -0.005253
v -0.03896 -0.007636 0
v -0.034276 -0.002449 0.008068
v -0.039938 -0.002084 0.005253
v -0.058172 -0.001105 0
v -0.04506 0.000152 0.004478
v -0.048343 -0.004061 -0.00488
v -0.044551 -0.005949 -0.004897
v -0.045305 -0.010498 -0.003802
v -0.047119 -0.011618 0
v -0.045305 -0.010498 0.003802
v -0.04455 -0.005949 0.004897
v -0.055349 -0.00605 -0.004941
v -0.05604 -0.007856 0
v -0.055349 -0.00605 0.004941
v -0.048343 -0.004061 0.00488
v -0.05288 -0.009661 -0.005757
v -0.051514 -0.011544 0
v -0.05288 -0.009661 0.005757
# 212 verticies
vn 0.174016 -0.984743 0
vn 0.561836 -0.800555 -0.208452
vn 0.797561 -0.603239 0
vn 0.679997 -0.502414 -0.534026
vn 0.373165 -0.301553 -0.87739
vn -0.836418 -0.548092 0
vn -0.611648 -0.790939 0.017372
vn -0.833697 -0.475407 -0.280958
vn -0.218555 -0.33287 -0.917296
vn 0.561836 -0.800555 0.208452
vn 0.679997 -0.502414 0.534026
vn 0.373165 -0.301553 0.87739
vn -0.611648 -0.790939 -0.017372
vn -0.833697 -0.475407 0.280958
vn -0.218555 -0.33287 0.917296
vn 0.963404 0.083495 -0.254719
vn 0.999731 0.023183 0
vn 0.963404 0.083495 0.254719
vn 0.549248 0.399444 -0.73401
vn 0.153705 0.355801 -0.921835
vn -0.981306 -0.179022 0.070633
vn -0.990435 -0.137983 0
vn -0.981306 -0.179022 -0.070633
vn -0.785566 -0.236771 -0.571686
vn -0.404613 0.240113 -0.882403
vn -0.959627 -0.255013 0.118679
vn 0.549248 0.399444 0.73401
vn 0.153705 0.355801 0.921835
vn -0.404612 0.240109 0.882404
vn -0.785566 -0.236773 0.571685
vn -0.959627 -0.255012 -0.118678
vn 0.859334 0.330368 -0.390387
vn 0.938408 0.345528 0
vn 0.859334 0.330368 0.390387
vn 0.563921 0.248699 -0.787491
vn 0.175421 0.159353 -0.971511
vn -0.919529 -0.288892 0.266474
vn -0.941538 -0.336908 0
vn -0.919529 -0.288893 -0.266471
vn -0.001662 -0.602402 -0.798191
vn -0.084066 -0.081376 -0.993132
vn -0.593585 -0.656961 0.464822
vn 0.563921 0.248699 0.787491
vn 0.175424 0.159351 0.971511
vn -0.08407 -0.081374 0.993132
vn -0.001668 -0.6024 0.798192
vn -0.593584 -0.656965 -0.464818
vn 0.922138 0.061277 -0.381977
vn 0.988879 0.148725 0
vn 0.922138 0.061277 0.381977
vn 0.599968 -0.107209 -0.792808
vn 0.272265 -0.212786 -0.9384
vn -0.918374 -0.28888 0.27044
vn -0.388391 -0.093077 0.916782
vn -0.963286 -0.268477 0
vn -0.918374 -0.28888 -0.27044
vn -0.388391 -0.093083 -0.916781
vn 0.141355 0.008922 -0.989919
vn 0.073038 -0.267547 -0.960773
vn 0.038211 -0.764065 -0.644007
vn 0.192127 -0.946223 -0.260287
vn 0.620545 -0.313287 -0.718871
vn 0.656839 0.321939 0.681849
vn 0.599968 -0.107209 0.792808
vn 0.272266 -0.212783 0.9384
vn 0.073034 -0.267542 0.960774
vn 0.141355 0.008922 0.989919
vn 0.192128 -0.946223 0.260286
vn 0.038211 -0.764065 0.644007
vn 0.620545 -0.313287 0.718871
vn 0.65684 0.321937 -0.681848
vn 0.94469 0.027643 -0.326797
vn 0.996829 0.079575 0
vn 0.94469 0.027643 0.326797
vn 0.628127 -0.094688 -0.772328
vn 0.244191 -0.250669 -0.936769
vn -0.600005 0.69585 0.394699
vn -0.189953 -0.057622 0.980101
vn -0.825665 0.564161 0
vn -0.600005 0.69585 -0.394699
vn -0.189953 -0.057622 -0.980101
vn -0.226348 0.167894 -0.959468
vn -0.040436 -0.190645 -0.980826
vn 0.271179 0.74003 -0.615482
vn -0.342411 -0.704756 -0.621348
vn -0.579909 -0.446346 -0.681528
vn -0.248871 -0.856556 -0.452079
vn 0.89355 -0.150443 -0.423008
vn 0.057293 -0.992638 -0.10671
vn 0.770156 0.186204 -0.610072
vn 0.914414 0.021949 0.404185
vn 0.884966 0.465655 0
vn -0.628171 0.778076 0
vn -0.477728 0.395149 0.784623
vn 0.628127 -0.094688 0.772328
vn 0.244191 -0.250669 0.936769
vn -0.040436 -0.190645 0.980826
vn -0.226348 0.167894 0.959468
vn 0.271179 0.74003 0.615482
vn -0.579906 -0.446345 0.681531
vn -0.34241 -0.704757 0.621348
vn -0.248871 -0.856556 0.452079
vn 0.89355 -0.150443 0.423008
vn 0.770156 0.186204 0.610072
vn 0.057293 -0.992638 0.10671
vn 0.914414 0.021949 -0.404185
vn -0.477728 0.395149 -0.784623
vn 0.584009 0.725993 -0.363136
vn 0.755709 0.654907 0
vn 0.584009 0.725993 0.363136
vn 0.278736 0.786787 -0.550702
vn 0.11061 0.536849 -0.836396
vn -0.231428 0.421118 -0.876984
vn 0.112823 0.912917 -0.392243
vn -0.188382 0.961211 0.201457
vn -0.671548 0.465912 0.576151
vn -0.225048 0.974348 0
vn -0.382062 0.827156 -0.412118
vn -0.188382 0.961211 -0.201457
vn 0.112823 0.912917 0.392243
vn -0.671548 0.465912 -0.576151
vn -0.382062 0.827156 0.412118
vn -0.378507 0.691345 -0.615447
vn 0.25379 0.807915 -0.531849
vn -0.042378 0.006378 -0.999081
vn -0.857277 0.059621 -0.511392
vn -0.317427 -0.636368 -0.703048
vn -0.569519 -0.551659 0.609361
vn -0.934799 -0.039785 0.352942
vn -0.207319 0.562073 -0.800683
vn -0.391576 0.549165 -0.7383
vn 0.971217 0.000315 -0.238197
vn 0.013346 0.118431 -0.992873
vn -0.657158 -0.729912 -0.188073
vn 0.318767 -0.10757 -0.941709
vn -0.977121 0.033107 0.210093
vn 0.870087 -0.178174 0.459567
vn 0.982202 -0.187828 0
vn -0.61034 0.482894 -0.627932
vn -0.795635 0.605776 0
vn -0.911888 0.34682 -0.219489
vn -0.956805 0.196196 0.214551
vn -0.61034 0.482894 0.627932
vn -0.911888 0.34682 0.219489
vn -0.956805 0.196196 -0.214551
vn -0.76355 0.213427 0.609459
vn 0.278736 0.786787 0.550702
vn 0.11061 0.536849 0.836396
vn -0.231428 0.421118 0.876984
vn -0.378507 0.691345 0.615447
vn 0.25379 0.807915 0.531849
vn -0.207318 0.562075 0.800682
vn -0.317428 -0.636365 0.70305
vn -0.391576 0.549165 0.7383
vn -0.857277 0.059621 0.511392
vn -0.042378 0.006378 0.999081
vn -0.569519 -0.551659 -0.609361
vn -0.934799 -0.039785 -0.352942
vn 0.971217 0.000315 0.238197
vn 0.013346 0.118431 0.992873
vn 0.318767 -0.10757 0.941709
vn -0.657158 -0.729912 0.188073
vn -0.977121 0.033107 -0.210093
vn 0.870087 -0.178174 -0.459567
vn -0.76355 0.213427 -0.609459
vn -0.767856 0.341497 0.542013
vn -0.374 0.218005 0.901442
vn -0.767856 0.341497 -0.542013
vn -0.374 0.218005 -0.901442
vn -0.659159 -0.558722 -0.503329
vn -0.762428 0.074055 -0.642821
vn -0.744464 -0.571656 -0.344939
vn -0.890778 0.341693 -0.2996
vn -0.644009 -0.014667 -0.764877
vn -0.751306 -0.654777 -0.082499
vn 0.663802 -0.732477 -0.151145
vn 0.540613 -0.702977 0.462126
vn 0.902857 -0.42994 0
vn 0.540613 -0.702977 -0.462126
vn -0.648734 0.331897 -0.684827
vn -0.59062 0.2681 -0.761111
vn -0.84744 0.530891 0
vn -0.648734 0.331897 0.684827
vn -0.59062 0.2681 0.761111
vn -0.890778 0.341693 0.2996
vn -0.644013 -0.014663 0.764874
vn -0.751309 -0.654775 0.0824969
vn -0.762428 0.074055 0.642821
vn -0.659159 -0.558722 0.503329
vn -0.744464 -0.571656 0.344939
vn 0.663802 -0.732477 0.151145
vn -0.407611 -0.06507 -0.910834
vn -0.259381 -0.954564 0.146726
vn 0.006776 -0.724665 -0.689068
vn 0.557572 -0.830129 0
vn -0.259381 -0.954564 -0.146726
vn 0.006777 -0.724666 0.689067
vn -0.915922 0.401357 -2e-006
vn -0.407609 -0.065067 0.910836
vn -0.069197 0.174937 -0.982145
vn -0.017087 -0.086456 -0.996109
vn 0.256827 -0.573484 -0.777918
vn 0.138749 -0.990328 0
vn 0.256832 -0.573486 0.777914
vn -0.017072 -0.086458 0.996109
vn -0.727419 -0.21303 -0.652288
vn -0.83038 -0.557198 0
vn -0.727421 -0.213032 0.652285
vn -0.069191 0.174936 0.982146
vn -0.190828 -0.663138 -0.723763
vn -0.538043 -0.842917 0
vn -0.190831 -0.663141 0.72376
# 212 normals
usemtl Material__1
f  1//1 2//2 3//3
f  1//1 4//4 2//2
f  1//1 5//5 4//4
f  1//1 6//6 7//7
f  7//7 8//8 1//1
f  1//1 8//8 9//9
f  9//9 5//5 1//1
f  3//3 10//10 1//1
f  10//10 11//11 1//1
f  11//11 12//12 1//1
f  13//13 6//6 1//1
f  1//1 14//14 13//13
f  15//15 14//14 1//1
f  1//1 12//12 15//15
f  3//3 2//2 16//16
f  16//16 2//2 4//4
f  17//17 3//3 16//16
f  18//18 10//10 3//3
f  18//18 3//3 17//17
f  19//19 16//16 4//4
f  19//19 4//4 5//5
f  20//20 19//19 5//5
f  20//20 5//5 9//9
f  21//21 7//7 6//6
f  22//22 21//21 6//6
f  6//6 13//13 23//23
f  6//6 23//23 22//22
f  7//7 21//21 8//8
f  8//8 24//24 25//25
f  9//9 8//8 25//25
f  26//26 24//24 8//8
f  21//21 26//26 8//8
f  25//25 20//20 9//9
f  11//11 10//10 18//18
f  11//11 18//18 27//27
f  12//12 11//11 27//27
f  12//12 27//27 28//28
f  15//15 12//12 28//28
f  14//14 23//23 13//13
f  29//29 30//30 14//14
f  29//29 14//14 15//15
f  14//14 30//30 31//31
f  14//14 31//31 23//23
f  15//15 28//28 29//29
f  16//16 32//32 33//33
f  17//17 16//16 33//33
f  32//32 16//16 19//19
f  33//33 18//18 17//17
f  33//33 34//34 18//18
f  27//27 18//18 34//34
f  35//35 32//32 19//19
f  35//35 19//19 20//20
f  36//36 35//35 20//20
f  36//36 20//20 25//25
f  21//21 22//22 37//37
f  26//26 21//21 37//37
f  38//38 37//37 22//22
f  22//22 39//39 38//38
f  39//39 22//22 23//23
f  39//39 23//23 31//31
f  24//24 40//40 41//41
f  25//25 24//24 41//41
f  42//42 24//24 26//26
f  42//42 40//40 24//24
f  41//41 36//36 25//25
f  42//42 26//26 37//37
f  27//27 34//34 43//43
f  28//28 27//27 43//43
f  28//28 43//43 44//44
f  29//29 28//28 44//44
f  29//29 44//44 45//45
f  45//45 30//30 29//29
f  45//45 46//46 30//30
f  31//31 30//30 47//47
f  30//30 46//46 47//47
f  39//39 31//31 47//47
f  32//32 48//48 49//49
f  33//33 32//32 49//49
f  48//48 32//32 35//35
f  49//49 34//34 33//33
f  49//49 50//50 34//34
f  43//43 34//34 50//50
f  51//51 48//48 35//35
f  51//51 35//35 36//36
f  52//52 51//51 36//36
f  52//52 36//36 41//41
f  53//53 37//37 38//38
f  53//53 54//54 37//37
f  54//54 42//42 37//37
f  55//55 53//53 38//38
f  38//38 39//39 56//56
f  38//38 56//56 55//55
f  39//39 57//57 56//56
f  39//39 47//47 57//57
f  40//40 58//58 59//59
f  41//41 40//40 59//59
f  60//60 40//40 61//61
f  40//40 60//60 62//62
f  58//58 40//40 62//62
f  42//42 61//61 40//40
f  59//59 52//52 41//41
f  42//42 63//63 61//61
f  63//63 42//42 54//54
f  43//43 50//50 64//64
f  44//44 43//43 64//64
f  44//44 64//64 65//65
f  45//45 44//44 65//65
f  45//45 65//65 66//66
f  66//66 46//46 45//45
f  66//66 67//67 46//46
f  68//68 46//46 69//69
f  70//70 69//69 46//46
f  70//70 46//46 67//67
f  46//46 68//68 47//47
f  68//68 71//71 47//47
f  57//57 47//47 71//71
f  48//48 72//72 73//73
f  49//49 48//48 73//73
f  72//72 48//48 51//51
f  73//73 50//50 49//49
f  73//73 74//74 50//50
f  64//64 50//50 74//74
f  75//75 72//72 51//51
f  75//75 51//51 52//52
f  76//76 75//75 52//52
f  76//76 52//52 59//59
f  77//77 53//53 55//55
f  78//78 54//54 53//53
f  77//77 78//78 53//53
f  54//54 78//78 63//63
f  79//79 77//77 55//55
f  55//55 56//56 80//80
f  55//55 80//80 79//79
f  56//56 57//57 81//81
f  56//56 81//81 80//80
f  71//71 81//81 57//57
f  58//58 82//82 83//83
f  59//59 58//58 83//83
f  58//58 62//62 84//84
f  82//82 58//58 84//84
f  83//83 76//76 59//59
f  62//62 60//60 61//61
f  61//61 85//85 86//86
f  87//87 61//61 86//86
f  87//87 62//62 61//61
f  88//88 85//85 61//61
f  63//63 88//88 61//61
f  89//89 90//90 62//62
f  87//87 89//89 62//62
f  62//62 90//90 84//84
f  91//91 63//63 92//92
f  93//93 92//92 63//63
f  94//94 93//93 63//63
f  63//63 91//91 88//88
f  78//78 94//94 63//63
f  64//64 74//74 95//95
f  65//65 64//64 95//95
f  65//65 95//95 96//96
f  66//66 65//65 96//96
f  66//66 96//96 97//97
f  97//97 67//67 66//66
f  97//97 98//98 67//67
f  99//99 70//70 67//67
f  99//99 67//67 98//98
f  100//100 101//101 68//68
f  100//100 68//68 102//102
f  68//68 69//69 70//70
f  68//68 70//70 102//102
f  68//68 101//101 103//103
f  68//68 103//103 71//71
f  70//70 104//104 105//105
f  70//70 105//105 102//102
f  99//99 104//104 70//70
f  92//92 71//71 106//106
f  71//71 92//92 93//93
f  71//71 93//93 107//107
f  103//103 106//106 71//71
f  71//71 107//107 81//81
f  72//72 108//108 109//109
f  73//73 72//72 109//109
f  108//108 72//72 75//75
f  109//109 74//74 73//73
f  109//109 110//110 74//74
f  95//95 74//74 110//110
f  111//111 108//108 75//75
f  75//75 76//76 112//112
f  111//111 75//75 112//112
f  76//76 83//83 113//113
f  112//112 76//76 113//113
f  77//77 114//114 115//115
f  115//115 116//116 77//77
f  116//116 94//94 77//77
f  78//78 77//77 94//94
f  117//117 77//77 79//79
f  117//117 118//118 77//77
f  77//77 118//118 114//114
f  79//79 80//80 117//117
f  119//119 120//120 80//80
f  80//80 121//121 119//119
f  80//80 107//107 121//121
f  107//107 80//80 81//81
f  80//80 122//122 117//117
f  120//120 122//122 80//80
f  83//83 82//82 113//113
f  82//82 84//84 118//118
f  82//82 118//118 113//113
f  84//84 114//114 118//118
f  90//90 123//123 84//84
f  124//124 84//84 123//123
f  114//114 84//84 124//124
f  85//85 125//125 126//126
f  86//86 85//85 127//127
f  85//85 128//128 127//127
f  88//88 125//125 85//85
f  126//126 129//129 85//85
f  129//129 128//128 85//85
f  86//86 127//127 130//130
f  123//123 87//87 86//86
f  123//123 86//86 131//131
f  131//131 86//86 130//130
f  123//123 89//89 87//87
f  132//132 88//88 91//91
f  88//88 132//132 133//133
f  125//125 88//88 133//133
f  89//89 134//134 135//135
f  90//90 89//89 135//135
f  89//89 136//136 134//134
f  123//123 136//136 89//89
f  90//90 135//135 123//123
f  137//137 91//91 138//138
f  138//138 91//91 92//92
f  137//137 132//132 91//91
f  92//92 106//106 138//138
f  93//93 139//139 140//140
f  141//141 139//139 93//93
f  142//142 141//141 93//93
f  93//93 94//94 142//142
f  140//140 143//143 93//93
f  93//93 143//143 144//144
f  93//93 144//144 145//145
f  145//145 107//107 93//93
f  94//94 146//146 142//142
f  116//116 146//146 94//94
f  95//95 110//110 147//147
f  148//148 96//96 95//95
f  148//148 95//95 147//147
f  149//149 97//97 96//96
f  149//149 96//96 148//148
f  149//149 98//98 97//97
f  122//122 99//99 98//98
f  149//149 122//122 98//98
f  122//122 120//120 99//99
f  99//99 150//150 104//104
f  150//150 99//99 151//151
f  151//151 99//99 120//120
f  152//152 153//153 100//100
f  153//153 101//101 100//100
f  100//100 102//102 150//150
f  154//154 100//100 150//150
f  152//152 100//100 154//154
f  155//155 156//156 101//101
f  153//153 157//157 101//101
f  101//101 156//156 103//103
f  101//101 158//158 155//155
f  101//101 157//157 158//158
f  102//102 105//105 150//150
f  106//106 103//103 159//159
f  160//160 159//159 103//103
f  160//160 103//103 156//156
f  150//150 161//161 104//104
f  161//161 105//105 104//104
f  161//161 162//162 105//105
f  162//162 163//163 105//105
f  105//105 163//163 150//150
f  138//138 106//106 164//164
f  106//106 159//159 164//164
f  145//145 165//165 107//107
f  107//107 165//165 121//121
f  117//117 108//108 111//111
f  117//117 109//109 108//108
f  110//110 109//109 117//117
f  147//147 110//110 117//117
f  117//117 111//111 112//112
f  117//117 112//112 113//113
f  117//117 113//113 118//118
f  124//124 115//115 114//114
f  115//115 124//124 130//130
f  115//115 130//130 166//166
f  167//167 115//115 166//166
f  167//167 146//146 115//115
f  116//116 115//115 146//146
f  148//148 147//147 117//117
f  149//149 148//148 117//117
f  122//122 149//149 117//117
f  120//120 119//119 151//151
f  152//152 151//151 119//119
f  168//168 152//152 119//119
f  168//168 119//119 169//169
f  119//119 165//165 169//169
f  165//165 119//119 121//121
f  135//135 136//136 123//123
f  131//131 124//124 123//123
f  124//124 131//131 130//130
f  126//126 125//125 133//133
f  170//170 171//171 126//126
f  172//172 170//170 126//126
f  133//133 172//172 126//126
f  173//173 126//126 171//171
f  126//126 173//173 129//129
f  127//127 174//174 130//130
f  175//175 174//174 127//127
f  175//175 127//127 128//128
f  166//166 175//175 128//128
f  167//167 166//166 128//128
f  128//128 129//129 146//146
f  167//167 128//128 146//146
f  146//146 129//129 142//142
f  141//141 129//129 173//173
f  142//142 129//129 141//141
f  166//166 130//130 174//174
f  132//132 176//176 133//133
f  137//137 176//176 132//132
f  176//176 172//172 133//133
f  134//134 136//136 135//135
f  177//177 137//137 138//138
f  177//177 176//176 137//137
f  178//178 177//177 138//138
f  138//138 164//164 179//179
f  138//138 179//179 178//178
f  140//140 139//139 180//180
f  139//139 141//141 180//180
f  181//181 182//182 140//140
f  180//180 181//181 140//140
f  183//183 143//143 140//140
f  140//140 182//182 184//184
f  140//140 184//184 183//183
f  141//141 173//173 180//180
f  183//183 144//144 143//143
f  183//183 185//185 144//144
f  185//185 158//158 144//144
f  144//144 158//158 145//145
f  145//145 158//158 165//165
f  150//150 163//163 161//161
f  150//150 151//151 154//154
f  152//152 154//154 151//151
f  152//152 186//186 153//153
f  186//186 152//152 168//168
f  153//153 186//186 187//187
f  157//157 153//153 187//187
f  160//160 156//156 155//155
f  155//155 188//188 189//189
f  155//155 189//189 190//190
f  155//155 190//190 160//160
f  188//188 155//155 185//185
f  158//158 185//185 155//155
f  157//157 187//187 168//168
f  157//157 168//168 169//169
f  165//165 158//158 157//157
f  165//165 157//157 169//169
f  160//160 191//191 159//159
f  159//159 191//191 164//164
f  160//160 190//190 191//191
f  161//161 163//163 162//162
f  164//164 191//191 179//179
f  175//175 166//166 174//174
f  186//186 168//168 187//187
f  171//171 170//170 192//192
f  170//170 193//193 194//194
f  192//192 170//170 194//194
f  170//170 172//172 193//193
f  173//173 171//171 181//181
f  181//181 171//171 192//192
f  172//172 176//176 193//193
f  180//180 173//173 181//181
f  193//193 176//176 177//177
f  194//194 193//193 177//177
f  195//195 194//194 177//177
f  195//195 177//177 178//178
f  178//178 179//179 195//195
f  179//179 191//191 196//196
f  179//179 196//196 197//197
f  179//179 197//197 195//195
f  181//181 192//192 182//182
f  192//192 198//198 182//182
f  182//182 198//198 199//199
f  182//182 199//199 184//184
f  184//184 185//185 183//183
f  184//184 188//188 185//185
f  199//199 188//188 184//184
f  199//199 189//189 188//188
f  197//197 196//196 189//189
f  197//197 189//189 199//199
f  196//196 190//190 189//189
f  196//196 191//191 190//190
f  192//192 200//200 198//198
f  192//192 194//194 201//201
f  200//200 192//192 201//201
f  194//194 195//195 202//202
f  201//201 194//194 202//202
f  203//203 202//202 195//195
f  195//195 204//204 203//203
f  204//204 195//195 197//197
f  205//205 197//197 199//199
f  204//204 197//197 205//205
f  200//200 206//206 198//198
f  198//198 206//206 207//207
f  198//198 208//208 209//209
f  198//198 209//209 199//199
f  207//207 208//208 198//198
f  205//205 199//199 209//209
f  200//200 201//201 202//202
f  210//210 200//200 202//202
f  200//200 210//210 206//206
f  210//210 202//202 203//203
f  211//211 210//210 203//203
f  203//203 204//204 212//212
f  203//203 212//212 211//211
f  204//204 205//205 209//209
f  204//204 209//209 212//212
f  206//206 210//210 211//211
f  207//207 206//206 211//211
f  211//211 208//208 207//207
f  211//211 212//212 208//208
f  208//208 212//212 209//209
