# 
# Wavefront OBJ file
# Converted by the DEEP Exploration 2.00.1211
# Right Hemisphere, LTD
# http://www.righthemisphere.com/
# 
mtllib lumbar5b.mtl
# object Object #0
g Object__0
v -0.001897 -0.026697 0
v 0.011833 -0.028694 -0.009271
v 0.010794 -0.03178 0
v 0.006926 -0.027308 -0.018973
v 0.002707 -0.027447 -0.023697
v -0.015609 -0.020456 0
v -0.015586 -0.020857 -0.005568
v -0.015886 -0.020403 -0.016493
v -0.010122 -0.020398 -0.023835
v 0.011833 -0.028694 0.009271
v 0.006926 -0.027308 0.018973
v 0.002707 -0.027447 0.023697
v -0.015586 -0.020857 0.005568
v -0.015886 -0.020403 0.016493
v -0.010122 -0.020398 0.023835
v 0.012786 -0.027694 -0.011135
v 0.012825 -0.026948 0
v 0.012786 -0.027694 0.011135
v 0.005999 -0.02394 -0.018324
v 0.002713 -0.021167 -0.022277
v -0.015083 -0.016872 -0.005208
v -0.015079 -0.017031 0
v -0.015083 -0.016872 0.005208
v -0.014696 -0.01498 -0.016841
v -0.009062 -0.019576 -0.022444
v -0.015781 -0.015018 -0.009944
v 0.005999 -0.02394 0.018324
v 0.002713 -0.021167 0.022277
v -0.009062 -0.019576 0.022444
v -0.014696 -0.01498 0.016841
v -0.015781 -0.015018 0.009944
v 0.014172 -0.02061 -0.010839
v 0.011879 -0.021293 0
v 0.014172 -0.02061 0.010839
v 0.010107 -0.019632 -0.017864
v 0.003708 -0.016197 -0.020258
v -0.013566 -0.009845 -0.006689
v -0.013021 -0.009906 0
v -0.013566 -0.009845 0.006689
v -0.012589 -0.011639 -0.020082
v -0.006374 -0.012488 -0.021237
v -0.015467 -0.00883 -0.01026
v 0.010107 -0.019632 0.017864
v 0.003708 -0.016197 0.020258
v -0.006374 -0.012488 0.021237
v -0.012589 -0.011639 0.020082
v -0.015467 -0.00883 0.01026
v 0.014154 -0.012408 -0.010455
v 0.015945 -0.011399 0
v 0.014154 -0.012408 0.010455
v 0.011504 -0.010733 -0.01855
v 0.006154 -0.009616 -0.020348
v -0.014104 -0.002372 -0.006911
v -0.016165 -0.001482 -0.010728
v -0.013288 -0.002397 0
v -0.014104 -0.002372 0.006911
v -0.016165 -0.001482 0.010728
v -0.009819 -0.005098 -0.021807
v -0.004838 -0.007177 -0.021386
v -0.015597 -0.008247 -0.022188
v -0.01937 -0.010933 -0.018091
v -0.016995 -0.003996 -0.02654
v -0.023912 -0.004523 -0.003911
v 0.011504 -0.010733 0.01855
v 0.006154 -0.009616 0.020348
v -0.004838 -0.007177 0.021386
v -0.009819 -0.005098 0.021807
v -0.01937 -0.010933 0.018091
v -0.015597 -0.008247 0.022188
v -0.016995 -0.003996 0.02654
v -0.023912 -0.004523 0.003911
v 0.020327 -0.007394 -0.01157
v 0.021088 -0.00706 0
v 0.020327 -0.007394 0.01157
v 0.014529 -0.00681 -0.019637
v 0.007684 -0.006189 -0.022504
v -0.01297 0.006002 -0.008823
v -0.014205 0.004189 -0.01152
v -0.011378 0.004618 0
v -0.01297 0.006002 0.008823
v -0.014205 0.004189 0.01152
v -0.009885 9.2e-005 -0.02107
v -0.001405 -0.002721 -0.023599
v -0.016488 0.002766 -0.021124
v -0.025553 -0.004743 -0.018198
v -0.026228 0.000495 -0.024502
v -0.02265 -0.007937 -0.026213
v -0.022313 -0.010865 -0.011135
v -0.023129 -0.005212 -0.030672
v -0.020845 -0.0022 -0.03374
v -0.026719 -0.014428 -0.005388
v -0.024578 -0.006069 0
v -0.032855 0.001071 0
v -0.024529 0.002828 -0.008145
v 0.014529 -0.00681 0.019637
v 0.007684 -0.006189 0.022504
v -0.001405 -0.002721 0.023599
v -0.009885 9.2e-005 0.02107
v -0.016488 0.002766 0.021124
v -0.026228 0.000495 0.024502
v -0.025553 -0.004743 0.018198
v -0.02265 -0.007937 0.026213
v -0.022313 -0.010865 0.011135
v -0.020845 -0.0022 0.03374
v -0.023129 -0.005212 0.030672
v -0.026719 -0.014428 0.005388
v -0.024529 0.002828 0.008145
v 0.019529 -0.001832 -0.011782
v 0.02049 -0.001727 0
v 0.019529 -0.001832 0.011782
v 0.015473 -0.001289 -0.019907
v 0.007898 0.000334 -0.023593
v -0.002063 0.001663 -0.023745
v -0.015745 0.004774 -0.014915
v -0.020593 0.012812 -0.016931
v -0.021135 0.009723 -0.01063
v 0.005297 0.001324 0
v -0.011002 0.005068 -0.018112
v -0.020593 0.012812 0.016931
v -0.015745 0.004774 0.014915
v -0.021135 0.009723 0.01063
v -0.011002 0.005068 0.018112
v -0.021714 0.004538 -0.030109
v -0.019759 0.007771 -0.019473
v -0.030514 -0.009213 -0.016388
v -0.035668 -0.009828 -0.013384
v -0.031438 0.00355 -0.022347
v -0.032315 0.00226 -0.015006
v -0.030374 0.000125 -0.013416
v -0.028783 0.013052 -0.02062
v -0.024387 0.007047 -0.022534
v -0.024991 -0.0175 -0.012693
v -0.036779 -0.012052 -0.018062
v -0.027241 -0.00287 -0.034038
v -0.024872 -0.000832 -0.037326
v -0.026294 0.00531 -0.034516
v -0.028433 -0.018397 -0.007075
v -0.02973 -0.012517 0
v -0.03503 -0.002579 -0.005224
v -0.044707 -0.004349 0
v -0.031179 -0.004742 -0.008771
v -0.029786 -0.001926 -0.011001
v -0.03503 -0.002579 0.005224
v -0.031179 -0.004742 0.008771
v -0.029786 -0.001926 0.011001
v -0.025538 0.003689 -0.012003
v 0.015473 -0.001289 0.019907
v 0.007898 0.000334 0.023593
v -0.002063 0.001663 0.023745
v -0.021714 0.004538 0.030109
v -0.019759 0.007771 0.019473
v -0.028783 0.013052 0.02062
v -0.031438 0.00355 0.022347
v -0.024387 0.007047 0.022534
v -0.035668 -0.009828 0.013384
v -0.030514 -0.009213 0.016388
v -0.032315 0.00226 0.015006
v -0.030374 0.000125 0.013416
v -0.024991 -0.0175 0.012693
v -0.036779 -0.012052 0.018062
v -0.024872 -0.000832 0.037326
v -0.027241 -0.00287 0.034038
v -0.026294 0.00531 0.034516
v -0.028433 -0.018397 0.007075
v -0.025538 0.003689 0.012003
v -0.035678 0.010996 -0.017281
v -0.029219 0.006727 -0.014735
v -0.035678 0.010996 0.017281
v -0.029219 0.006727 0.014735
v -0.04074 -0.013974 -0.010277
v -0.039179 -0.01005 -0.010861
v -0.038699 -0.018032 -0.017807
v -0.034914 -0.007589 -0.009358
v -0.034152 0.008888 -0.022856
v -0.036738 0.006807 -0.017753
v -0.03217 -0.026375 -0.014104
v -0.031922 -0.020209 -0.00562
v -0.03404 -0.017555 0
v -0.031922 -0.020209 0.00562
v -0.040361 -0.006242 -0.004411
v -0.044755 -0.00959 -0.004293
v -0.051171 -0.005415 0
v -0.040361 -0.006242 0.004411
v -0.044755 -0.00959 0.004293
v -0.034914 -0.007589 0.009358
v -0.034152 0.008888 0.022856
v -0.036738 0.006807 0.017753
v -0.039179 -0.01005 0.010861
v -0.04074 -0.013974 0.010277
v -0.038699 -0.018032 0.017807
v -0.03217 -0.026375 0.014104
v -0.045552 -0.010045 -0.004482
v -0.037402 -0.018866 -0.008077
v -0.043176 -0.012204 -0.005259
v -0.043998 -0.01502 0
v -0.037402 -0.018866 0.008077
v -0.043176 -0.012204 0.005259
v -0.053371 -0.00779 0
v -0.045552 -0.010045 0.004482
v -0.04848 -0.011308 -0.004884
v -0.046778 -0.013016 -0.004902
v -0.048342 -0.014986 -0.003805
v -0.049659 -0.015118 0
v -0.048342 -0.014986 0.003805
v -0.046778 -0.013016 0.004902
v -0.052986 -0.010721 -0.004946
v -0.053831 -0.011418 0
v -0.052986 -0.010721 0.004946
v -0.04848 -0.011308 0.004884
v -0.052471 -0.012951 -0.005763
v -0.052158 -0.01413 0
v -0.052471 -0.012951 0.005763
# 212 verticies
vn -0.297086 -0.954851 0
vn 0.069036 -0.966683 -0.246491
vn 0.429621 -0.903009 0
vn 0.517627 -0.708372 -0.479866
vn 0.416427 -0.435535 -0.798059
vn -0.967171 -0.254127 0
vn -0.868843 -0.49479 0.017174
vn -0.955839 -0.139879 -0.25847
vn -0.36307 0.04416 -0.930715
vn 0.069036 -0.966683 0.246491
vn 0.517627 -0.708372 0.479866
vn 0.416427 -0.435535 0.798059
vn -0.868843 -0.49479 -0.017174
vn -0.955839 -0.139879 0.25847
vn -0.36307 0.04416 0.930715
vn 0.895971 -0.343282 -0.281769
vn 0.993271 -0.115817 0
vn 0.895971 -0.343282 0.281769
vn 0.747101 -0.062899 -0.661728
vn 0.398804 0.257689 -0.880086
vn -0.989785 0.127984 0.062812
vn -0.976705 0.214587 0
vn -0.989785 0.127984 -0.062812
vn -0.82146 0.06109 -0.566985
vn -0.232828 0.507157 -0.829809
vn -0.989544 0.095647 0.107954
vn 0.747101 -0.062899 0.661728
vn 0.398804 0.257689 0.880086
vn -0.232828 0.507157 0.829809
vn -0.82146 0.06109 0.566985
vn -0.989544 0.095647 -0.107954
vn 0.935213 -0.225409 -0.273072
vn 0.990082 -0.140494 0
vn 0.935213 -0.225409 0.273072
vn 0.684617 -0.186826 -0.704554
vn 0.226729 0.077359 -0.970881
vn -0.959154 0.093747 0.266898
vn -0.998297 0.058334 0
vn -0.959154 0.093747 -0.266898
vn -0.259451 -0.547727 -0.795412
vn -0.111494 -0.040967 -0.99292
vn -0.810633 -0.365796 0.457238
vn 0.684617 -0.186826 0.704554
vn 0.226729 0.077359 0.970881
vn -0.111494 -0.040967 0.99292
vn -0.259451 -0.547727 0.795412
vn -0.810633 -0.365796 -0.457238
vn 0.853607 -0.45163 -0.259585
vn 0.913986 -0.405746 0
vn 0.853607 -0.45163 0.259585
vn 0.539673 -0.408757 -0.735983
vn 0.155303 -0.301564 -0.940713
vn -0.957761 0.093357 0.271989
vn -0.392285 0.066593 0.91743
vn -0.991579 0.129503 0
vn -0.957761 0.093357 -0.271989
vn -0.392285 0.066593 -0.91743
vn 0.13135 -0.048216 -0.990163
vn -0.048959 -0.272996 -0.960769
vn -0.292066 -0.709866 -0.640927
vn -0.236878 -0.947588 -0.214396
vn 0.431641 -0.536878 -0.724878
vn 0.746939 -0.013062 0.664764
vn 0.539673 -0.408757 0.735983
vn 0.155303 -0.301564 0.940713
vn -0.048959 -0.272996 0.960769
vn 0.13135 -0.048217 0.990163
vn -0.236878 -0.947588 0.214396
vn -0.292066 -0.709866 0.640927
vn 0.431641 -0.536879 0.724877
vn 0.746939 -0.013062 -0.664764
vn 0.886627 -0.348665 -0.30385
vn 0.845402 -0.53413 0
vn 0.886627 -0.348665 0.30385
vn 0.554305 -0.306984 -0.773632
vn 0.113599 -0.325121 -0.938825
vn -0.253806 0.879229 0.403162
vn -0.19914 0.017848 0.979809
vn -0.520744 0.853713 0
vn -0.253806 0.879229 -0.403162
vn -0.19914 0.017848 -0.979809
vn -0.133286 0.241875 -0.961109
vn -0.118393 -0.158455 -0.980242
vn 0.553577 0.566972 -0.609997
vn -0.623857 -0.523414 -0.580379
vn -0.711351 -0.177436 -0.680071
vn -0.573757 -0.68345 -0.45133
vn 0.708216 -0.618912 -0.339673
vn -0.363451 -0.924859 -0.111977
vn 0.777296 -0.138162 -0.613776
vn 0.804051 -0.434969 0.405343
vn 0.998969 -0.045395 0
vn -0.177733 0.984079 0
vn -0.25185 0.571964 0.780659
vn 0.554305 -0.306984 0.773632
vn 0.113599 -0.325121 0.938825
vn -0.118393 -0.158455 0.980242
vn -0.133285 0.241875 0.96111
vn 0.553575 0.566972 0.609998
vn -0.711351 -0.177436 0.680071
vn -0.623857 -0.523414 0.580379
vn -0.573757 -0.68345 0.45133
vn 0.708216 -0.618912 0.339673
vn 0.777295 -0.138164 0.613778
vn -0.363451 -0.924859 0.111977
vn 0.804051 -0.434969 -0.405343
vn -0.25185 0.571964 -0.780659
vn 0.795738 0.525058 -0.301852
vn 0.87051 0.492151 0
vn 0.795738 0.525058 0.301852
vn 0.61545 0.604129 -0.506211
vn 0.329212 0.445155 -0.83274
vn -0.029145 0.475388 -0.879293
vn 0.481059 0.78677 -0.38675
vn 0.232834 0.950293 0.206718
vn -0.419582 0.696033 0.582657
vn 0.215958 0.976403 0
vn 0.007844 0.909951 -0.414642
vn 0.232834 0.950293 -0.206718
vn 0.481057 0.786772 0.386748
vn -0.419582 0.696033 -0.582657
vn 0.007844 0.909951 0.414643
vn -0.058401 0.784836 -0.616945
vn 0.567591 0.633538 -0.525804
vn -0.031322 0.010125 -0.999458
vn -0.680523 0.51548 -0.520738
vn -0.55297 -0.451448 -0.700299
vn -0.742682 -0.274801 0.610662
vn -0.824112 0.440146 0.356525
vn 0.051262 0.597849 -0.799968
vn -0.122781 0.658703 -0.742318
vn 0.863896 -0.460745 -0.203464
vn 0.072939 0.127636 -0.989135
vn -0.89427 -0.407249 -0.185553
vn 0.238146 -0.229985 -0.943607
vn -0.885294 0.410856 0.217834
vn 0.654863 -0.588537 0.474109
vn 0.754592 -0.656194 0
vn -0.348314 0.690694 -0.633735
vn -0.481756 0.876305 0
vn -0.597786 0.766804 -0.233802
vn -0.718764 0.661344 0.214484
vn -0.348314 0.690694 0.633735
vn -0.597786 0.766804 0.233802
vn -0.718764 0.661344 -0.214484
vn -0.608738 0.499363 0.616502
vn 0.61545 0.604129 0.506211
vn 0.329212 0.445155 0.83274
vn -0.029145 0.475388 0.879293
vn -0.058403 0.784837 0.616945
vn 0.567588 0.633542 0.525803
vn 0.051262 0.597849 0.799968
vn -0.55297 -0.451448 0.700299
vn -0.122781 0.658703 0.742318
vn -0.680523 0.51548 0.520738
vn -0.031322 0.010125 0.999458
vn -0.742682 -0.274801 -0.610662
vn -0.824112 0.440146 -0.356525
vn 0.863896 -0.460745 0.203464
vn 0.072939 0.127636 0.989135
vn 0.238146 -0.229985 0.943607
vn -0.89427 -0.407249 0.185553
vn -0.885294 0.410856 -0.217834
vn 0.654863 -0.588537 -0.474109
vn -0.608738 0.499363 -0.616502
vn -0.558102 0.623917 0.547037
vn -0.245521 0.346117 0.905496
vn -0.558102 0.623917 -0.547037
vn -0.245521 0.346117 -0.905496
vn -0.873058 -0.217115 -0.436614
vn -0.522164 0.620924 -0.584635
vn -0.916688 -0.143941 -0.372779
vn -0.570128 0.762782 -0.305153
vn -0.592584 0.244617 -0.767468
vn -0.951113 -0.298392 -0.079659
vn 0.241119 -0.959432 -0.146126
vn 0.026267 -0.878179 0.47761
vn 0.275857 -0.961199 0
vn 0.026267 -0.878179 -0.47761
vn -0.448482 0.566017 -0.691729
vn -0.330002 0.700207 -0.633095
vn -0.37463 0.927174 0
vn -0.448482 0.566017 0.691729
vn -0.330002 0.700207 0.633095
vn -0.570128 0.762782 0.305153
vn -0.592584 0.244617 0.767468
vn -0.951113 -0.298392 0.079659
vn -0.522164 0.620924 0.584635
vn -0.873058 -0.217115 0.436614
vn -0.916688 -0.143941 0.372779
vn 0.241119 -0.959432 0.146126
vn -0.396904 0.345087 -0.850519
vn -0.702553 -0.669616 0.240902
vn -0.438857 -0.769912 -0.463292
vn -0.112523 -0.993649 0
vn -0.702553 -0.669616 -0.240902
vn -0.438857 -0.769912 0.463292
vn -0.58133 0.813668 0
vn -0.396904 0.345087 0.850519
vn 0.016737 0.283994 -0.95868
vn -0.081909 -0.128292 -0.988348
vn 0.006583 -0.756498 -0.653963
vn -0.246357 -0.969179 1e-006
vn 0.006583 -0.756498 0.653963
vn -0.081909 -0.128292 0.988348
vn -0.810156 0.185581 -0.556064
vn -0.977763 -0.209714 0
vn -0.810153 0.185571 0.556072
vn 0.016739 0.283995 0.95868
vn -0.417466 -0.608736 -0.674657
vn -0.794453 -0.607325 5e-006
vn -0.417459 -0.608738 0.67466
# 212 normals
usemtl Material__1
f  1//1 2//2 3//3
f  1//1 4//4 2//2
f  1//1 5//5 4//4
f  1//1 6//6 7//7
f  7//7 8//8 1//1
f  1//1 8//8 9//9
f  9//9 5//5 1//1
f  3//3 10//10 1//1
f  10//10 11//11 1//1
f  11//11 12//12 1//1
f  13//13 6//6 1//1
f  1//1 14//14 13//13
f  15//15 14//14 1//1
f  1//1 12//12 15//15
f  3//3 2//2 16//16
f  16//16 2//2 4//4
f  17//17 3//3 16//16
f  18//18 10//10 3//3
f  18//18 3//3 17//17
f  19//19 16//16 4//4
f  19//19 4//4 5//5
f  20//20 19//19 5//5
f  20//20 5//5 9//9
f  21//21 7//7 6//6
f  22//22 21//21 6//6
f  6//6 13//13 23//23
f  6//6 23//23 22//22
f  7//7 21//21 8//8
f  8//8 24//24 25//25
f  9//9 8//8 25//25
f  26//26 24//24 8//8
f  21//21 26//26 8//8
f  25//25 20//20 9//9
f  11//11 10//10 18//18
f  11//11 18//18 27//27
f  12//12 11//11 27//27
f  12//12 27//27 28//28
f  15//15 12//12 28//28
f  14//14 23//23 13//13
f  29//29 30//30 14//14
f  29//29 14//14 15//15
f  14//14 30//30 31//31
f  14//14 31//31 23//23
f  15//15 28//28 29//29
f  16//16 32//32 33//33
f  17//17 16//16 33//33
f  32//32 16//16 19//19
f  33//33 18//18 17//17
f  33//33 34//34 18//18
f  27//27 18//18 34//34
f  35//35 32//32 19//19
f  35//35 19//19 20//20
f  36//36 35//35 20//20
f  36//36 20//20 25//25
f  21//21 22//22 37//37
f  26//26 21//21 37//37
f  38//38 37//37 22//22
f  22//22 39//39 38//38
f  39//39 22//22 23//23
f  39//39 23//23 31//31
f  24//24 40//40 41//41
f  25//25 24//24 41//41
f  42//42 24//24 26//26
f  42//42 40//40 24//24
f  41//41 36//36 25//25
f  42//42 26//26 37//37
f  27//27 34//34 43//43
f  28//28 27//27 43//43
f  28//28 43//43 44//44
f  29//29 28//28 44//44
f  29//29 44//44 45//45
f  45//45 30//30 29//29
f  45//45 46//46 30//30
f  31//31 30//30 47//47
f  30//30 46//46 47//47
f  39//39 31//31 47//47
f  32//32 48//48 49//49
f  33//33 32//32 49//49
f  48//48 32//32 35//35
f  49//49 34//34 33//33
f  49//49 50//50 34//34
f  43//43 34//34 50//50
f  51//51 48//48 35//35
f  51//51 35//35 36//36
f  52//52 51//51 36//36
f  52//52 36//36 41//41
f  53//53 37//37 38//38
f  53//53 54//54 37//37
f  54//54 42//42 37//37
f  55//55 53//53 38//38
f  38//38 39//39 56//56
f  38//38 56//56 55//55
f  39//39 57//57 56//56
f  39//39 47//47 57//57
f  40//40 58//58 59//59
f  41//41 40//40 59//59
f  60//60 40//40 61//61
f  40//40 60//60 62//62
f  58//58 40//40 62//62
f  42//42 61//61 40//40
f  59//59 52//52 41//41
f  42//42 63//63 61//61
f  63//63 42//42 54//54
f  43//43 50//50 64//64
f  44//44 43//43 64//64
f  44//44 64//64 65//65
f  45//45 44//44 65//65
f  45//45 65//65 66//66
f  66//66 46//46 45//45
f  66//66 67//67 46//46
f  68//68 46//46 69//69
f  70//70 69//69 46//46
f  70//70 46//46 67//67
f  46//46 68//68 47//47
f  68//68 71//71 47//47
f  57//57 47//47 71//71
f  48//48 72//72 73//73
f  49//49 48//48 73//73
f  72//72 48//48 51//51
f  73//73 50//50 49//49
f  73//73 74//74 50//50
f  64//64 50//50 74//74
f  75//75 72//72 51//51
f  75//75 51//51 52//52
f  76//76 75//75 52//52
f  76//76 52//52 59//59
f  77//77 53//53 55//55
f  78//78 54//54 53//53
f  77//77 78//78 53//53
f  54//54 78//78 63//63
f  79//79 77//77 55//55
f  55//55 56//56 80//80
f  55//55 80//80 79//79
f  56//56 57//57 81//81
f  56//56 81//81 80//80
f  71//71 81//81 57//57
f  58//58 82//82 83//83
f  59//59 58//58 83//83
f  58//58 62//62 84//84
f  82//82 58//58 84//84
f  83//83 76//76 59//59
f  62//62 60//60 61//61
f  61//61 85//85 86//86
f  87//87 61//61 86//86
f  87//87 62//62 61//61
f  88//88 85//85 61//61
f  63//63 88//88 61//61
f  89//89 90//90 62//62
f  87//87 89//89 62//62
f  62//62 90//90 84//84
f  91//91 63//63 92//92
f  93//93 92//92 63//63
f  94//94 93//93 63//63
f  63//63 91//91 88//88
f  78//78 94//94 63//63
f  64//64 74//74 95//95
f  65//65 64//64 95//95
f  65//65 95//95 96//96
f  66//66 65//65 96//96
f  66//66 96//96 97//97
f  97//97 67//67 66//66
f  97//97 98//98 67//67
f  99//99 70//70 67//67
f  99//99 67//67 98//98
f  100//100 101//101 68//68
f  100//100 68//68 102//102
f  68//68 69//69 70//70
f  68//68 70//70 102//102
f  68//68 101//101 103//103
f  68//68 103//103 71//71
f  70//70 104//104 105//105
f  70//70 105//105 102//102
f  99//99 104//104 70//70
f  92//92 71//71 106//106
f  71//71 92//92 93//93
f  71//71 93//93 107//107
f  103//103 106//106 71//71
f  71//71 107//107 81//81
f  72//72 108//108 109//109
f  73//73 72//72 109//109
f  108//108 72//72 75//75
f  109//109 74//74 73//73
f  109//109 110//110 74//74
f  95//95 74//74 110//110
f  111//111 108//108 75//75
f  75//75 76//76 112//112
f  111//111 75//75 112//112
f  76//76 83//83 113//113
f  112//112 76//76 113//113
f  77//77 114//114 115//115
f  115//115 116//116 77//77
f  116//116 94//94 77//77
f  78//78 77//77 94//94
f  117//117 77//77 79//79
f  117//117 118//118 77//77
f  77//77 118//118 114//114
f  79//79 80//80 117//117
f  119//119 120//120 80//80
f  80//80 121//121 119//119
f  80//80 107//107 121//121
f  107//107 80//80 81//81
f  80//80 122//122 117//117
f  120//120 122//122 80//80
f  83//83 82//82 113//113
f  82//82 84//84 118//118
f  82//82 118//118 113//113
f  84//84 114//114 118//118
f  90//90 123//123 84//84
f  124//124 84//84 123//123
f  114//114 84//84 124//124
f  85//85 125//125 126//126
f  86//86 85//85 127//127
f  85//85 128//128 127//127
f  88//88 125//125 85//85
f  126//126 129//129 85//85
f  129//129 128//128 85//85
f  86//86 127//127 130//130
f  123//123 87//87 86//86
f  123//123 86//86 131//131
f  131//131 86//86 130//130
f  123//123 89//89 87//87
f  132//132 88//88 91//91
f  88//88 132//132 133//133
f  125//125 88//88 133//133
f  89//89 134//134 135//135
f  90//90 89//89 135//135
f  89//89 136//136 134//134
f  123//123 136//136 89//89
f  90//90 135//135 123//123
f  137//137 91//91 138//138
f  138//138 91//91 92//92
f  137//137 132//132 91//91
f  92//92 106//106 138//138
f  93//93 139//139 140//140
f  141//141 139//139 93//93
f  142//142 141//141 93//93
f  93//93 94//94 142//142
f  140//140 143//143 93//93
f  93//93 143//143 144//144
f  93//93 144//144 145//145
f  145//145 107//107 93//93
f  94//94 146//146 142//142
f  116//116 146//146 94//94
f  95//95 110//110 147//147
f  148//148 96//96 95//95
f  148//148 95//95 147//147
f  149//149 97//97 96//96
f  149//149 96//96 148//148
f  149//149 98//98 97//97
f  122//122 99//99 98//98
f  149//149 122//122 98//98
f  122//122 120//120 99//99
f  99//99 150//150 104//104
f  150//150 99//99 151//151
f  151//151 99//99 120//120
f  152//152 153//153 100//100
f  153//153 101//101 100//100
f  100//100 102//102 150//150
f  154//154 100//100 150//150
f  152//152 100//100 154//154
f  155//155 156//156 101//101
f  153//153 157//157 101//101
f  101//101 156//156 103//103
f  101//101 158//158 155//155
f  101//101 157//157 158//158
f  102//102 105//105 150//150
f  106//106 103//103 159//159
f  160//160 159//159 103//103
f  160//160 103//103 156//156
f  150//150 161//161 104//104
f  161//161 105//105 104//104
f  161//161 162//162 105//105
f  162//162 163//163 105//105
f  105//105 163//163 150//150
f  138//138 106//106 164//164
f  106//106 159//159 164//164
f  145//145 165//165 107//107
f  107//107 165//165 121//121
f  117//117 108//108 111//111
f  117//117 109//109 108//108
f  110//110 109//109 117//117
f  147//147 110//110 117//117
f  117//117 111//111 112//112
f  117//117 112//112 113//113
f  117//117 113//113 118//118
f  124//124 115//115 114//114
f  115//115 124//124 130//130
f  115//115 130//130 166//166
f  167//167 115//115 166//166
f  167//167 146//146 115//115
f  116//116 115//115 146//146
f  148//148 147//147 117//117
f  149//149 148//148 117//117
f  122//122 149//149 117//117
f  120//120 119//119 151//151
f  152//152 151//151 119//119
f  168//168 152//152 119//119
f  168//168 119//119 169//169
f  119//119 165//165 169//169
f  165//165 119//119 121//121
f  135//135 136//136 123//123
f  131//131 124//124 123//123
f  124//124 131//131 130//130
f  126//126 125//125 133//133
f  170//170 171//171 126//126
f  172//172 170//170 126//126
f  133//133 172//172 126//126
f  173//173 126//126 171//171
f  126//126 173//173 129//129
f  127//127 174//174 130//130
f  175//175 174//174 127//127
f  175//175 127//127 128//128
f  166//166 175//175 128//128
f  167//167 166//166 128//128
f  128//128 129//129 146//146
f  167//167 128//128 146//146
f  146//146 129//129 142//142
f  141//141 129//129 173//173
f  142//142 129//129 141//141
f  166//166 130//130 174//174
f  132//132 176//176 133//133
f  137//137 176//176 132//132
f  176//176 172//172 133//133
f  134//134 136//136 135//135
f  177//177 137//137 138//138
f  177//177 176//176 137//137
f  178//178 177//177 138//138
f  138//138 164//164 179//179
f  138//138 179//179 178//178
f  140//140 139//139 180//180
f  139//139 141//141 180//180
f  181//181 182//182 140//140
f  180//180 181//181 140//140
f  183//183 143//143 140//140
f  140//140 182//182 184//184
f  140//140 184//184 183//183
f  141//141 173//173 180//180
f  183//183 144//144 143//143
f  183//183 185//185 144//144
f  185//185 158//158 144//144
f  144//144 158//158 145//145
f  145//145 158//158 165//165
f  150//150 163//163 161//161
f  150//150 151//151 154//154
f  152//152 154//154 151//151
f  152//152 186//186 153//153
f  186//186 152//152 168//168
f  153//153 186//186 187//187
f  157//157 153//153 187//187
f  160//160 156//156 155//155
f  155//155 188//188 189//189
f  155//155 189//189 190//190
f  155//155 190//190 160//160
f  188//188 155//155 185//185
f  158//158 185//185 155//155
f  157//157 187//187 168//168
f  157//157 168//168 169//169
f  165//165 158//158 157//157
f  165//165 157//157 169//169
f  160//160 191//191 159//159
f  159//159 191//191 164//164
f  160//160 190//190 191//191
f  161//161 163//163 162//162
f  164//164 191//191 179//179
f  175//175 166//166 174//174
f  186//186 168//168 187//187
f  171//171 170//170 192//192
f  170//170 193//193 194//194
f  192//192 170//170 194//194
f  170//170 172//172 193//193
f  173//173 171//171 181//181
f  181//181 171//171 192//192
f  172//172 176//176 193//193
f  180//180 173//173 181//181
f  193//193 176//176 177//177
f  194//194 193//193 177//177
f  195//195 194//194 177//177
f  195//195 177//177 178//178
f  178//178 179//179 195//195
f  179//179 191//191 196//196
f  179//179 196//196 197//197
f  179//179 197//197 195//195
f  181//181 192//192 182//182
f  192//192 198//198 182//182
f  182//182 198//198 199//199
f  182//182 199//199 184//184
f  184//184 185//185 183//183
f  184//184 188//188 185//185
f  199//199 188//188 184//184
f  199//199 189//189 188//188
f  197//197 196//196 189//189
f  197//197 189//189 199//199
f  196//196 190//190 189//189
f  196//196 191//191 190//190
f  192//192 200//200 198//198
f  192//192 194//194 201//201
f  200//200 192//192 201//201
f  194//194 195//195 202//202
f  201//201 194//194 202//202
f  203//203 202//202 195//195
f  195//195 204//204 203//203
f  204//204 195//195 197//197
f  205//205 197//197 199//199
f  204//204 197//197 205//205
f  200//200 206//206 198//198
f  198//198 206//206 207//207
f  198//198 208//208 209//209
f  198//198 209//209 199//199
f  207//207 208//208 198//198
f  205//205 199//199 209//209
f  200//200 201//201 202//202
f  210//210 200//200 202//202
f  200//200 210//210 206//206
f  210//210 202//202 203//203
f  211//211 210//210 203//203
f  203//203 204//204 212//212
f  203//203 212//212 211//211
f  204//204 205//205 209//209
f  204//204 209//209 212//212
f  206//206 210//210 211//211
f  207//207 206//206 211//211
f  211//211 208//208 207//207
f  211//211 212//212 208//208
f  208//208 212//212 209//209
