#VRML V2.0 utf8 
Transform { 
 children [ 
    Shape { 
   geometry IndexedFaceSet { 
   solid FALSE 
    coord DEF bone Coordinate{ 
     point [ 
	  0.012962  -0.022757   0.000000,
	  0.025985  -0.015691  -0.008983,
	  0.025030  -0.020084   0.000000,
	  0.021359  -0.017316  -0.018384,
	  0.014232  -0.020734  -0.022961,
	 -0.003867  -0.027476   0.000000,
	 -0.003646  -0.027788  -0.005395,
	 -0.004116  -0.027588  -0.015981,
	  0.000488  -0.024354  -0.023095,
	  0.025985  -0.015691   0.008983,
	  0.021359  -0.017316   0.018384,
	  0.014232  -0.020734   0.022961,
	 -0.003646  -0.027788   0.005395,
	 -0.004116  -0.027588   0.015981,
	  0.000488  -0.024354   0.023095,
	  0.026239  -0.014345  -0.010789,
	  0.025892  -0.013719   0.000000,
	  0.026239  -0.014345   0.010789,
	  0.019564  -0.014787  -0.017755,
	  0.011051  -0.015638  -0.021586,
	 -0.002805  -0.021559  -0.005046,
	 -0.002721  -0.021685   0.000000,
	 -0.002805  -0.021559   0.005046,
	 -0.003455  -0.019807  -0.016318,
	  0.000833  -0.020946  -0.021747,
	 -0.004304  -0.020446  -0.009635,
	  0.019564  -0.014787   0.017755,
	  0.011051  -0.015638   0.021586,
	  0.000833  -0.020946   0.021747,
	 -0.003455  -0.019807   0.016318,
	 -0.004304  -0.020446   0.009635,
	  0.021895  -0.009137  -0.010502,
	  0.023355  -0.009010   0.000000,
	  0.021895  -0.009137   0.010502,
	  0.016181  -0.010251  -0.017309,
	  0.009324  -0.011051  -0.019629,
	 -0.007704  -0.015579  -0.006481,
	 -0.007237  -0.015323   0.000000,
	 -0.007704  -0.015579   0.006481,
	 -0.006013  -0.016487  -0.019459,
	 -0.000616  -0.013692  -0.020577,
	 -0.009738  -0.015822  -0.009942,
	  0.016181  -0.010251   0.017309,
	  0.009324  -0.011051   0.019629,
	 -0.000616  -0.013692   0.020577,
	 -0.006013  -0.016487   0.019459,
	 -0.009738  -0.015822   0.009942,
	  0.018693  -0.000160  -0.010130,
	  0.019612   0.001662   0.000000,
	  0.018693  -0.000160   0.010130,
	  0.012781  -0.002252  -0.017974,
	  0.007939  -0.004344  -0.019716,
	 -0.011926  -0.009821  -0.006696,
	 -0.014025  -0.010254  -0.010395,
	 -0.011261  -0.009384   0.000000,
	 -0.011926  -0.009821   0.006696,
	 -0.014025  -0.010254   0.010395,
	 -0.007118  -0.009631  -0.021130,
	 -0.002083  -0.008525  -0.020722,
	 -0.010138  -0.015422  -0.021499,
	 -0.011790  -0.019714  -0.017530,
	 -0.013412  -0.012758  -0.025716,
	 -0.018672  -0.017060  -0.003789,
	  0.012781  -0.002252   0.017974,
	  0.007939  -0.004344   0.019716,
	 -0.002083  -0.008525   0.020722,
	 -0.007118  -0.009631   0.021130,
	 -0.011790  -0.019714   0.017530,
	 -0.010138  -0.015422   0.021499,
	 -0.013412  -0.012758   0.025716,
	 -0.018672  -0.017060   0.003789,
	  0.018138   0.005399  -0.011210,
	  0.018576   0.006097   0.000000,
	  0.018138   0.005399   0.011210,
	  0.013208   0.002625  -0.019027,
	  0.007423  -0.000708  -0.021805,
	 -0.015269  -0.002395  -0.008549,
	 -0.015336  -0.004558  -0.011162,
	 -0.013295  -0.002626   0.000000,
	 -0.015269  -0.002395   0.008549,
	 -0.015336  -0.004558   0.011162,
	 -0.009804  -0.005459  -0.020416,
	 -0.001601  -0.002988  -0.022866,
	 -0.016439  -0.006990  -0.020468,
	 -0.019872  -0.018159  -0.017633,
	 -0.023070  -0.014290  -0.023741,
	 -0.015932  -0.019122  -0.025399,
	 -0.012676  -0.023458  -0.010789,
	 -0.017697  -0.017181  -0.029720,
	 -0.017400  -0.013459  -0.032692,
	 -0.014367  -0.028848  -0.005221,
	 -0.018420  -0.018688   0.000000,
	 -0.027595  -0.019059   0.000000,
	 -0.022896  -0.011447  -0.007892,
	  0.013208   0.002625   0.019027,
	  0.007423  -0.000708   0.021805,
	 -0.001601  -0.002988   0.022866,
	 -0.009804  -0.005459   0.020416,
	 -0.016439  -0.006990   0.020468,
	 -0.023070  -0.014290   0.023741,
	 -0.019872  -0.018159   0.017633,
	 -0.015932  -0.019122   0.025399,
	 -0.012676  -0.023458   0.010789,
	 -0.017400  -0.013459   0.032692,
	 -0.017697  -0.017181   0.029720,
	 -0.014367  -0.028848   0.005221,
	 -0.022896  -0.011447   0.007892,
	  0.015984   0.010096  -0.011416,
	  0.016700   0.010720   0.000000,
	  0.015984   0.010096   0.011416,
	  0.011161   0.007630  -0.019289,
	  0.004284   0.004702  -0.022860,
	 -0.004351   0.000197  -0.023008,
	 -0.016863  -0.004946  -0.014452,
	 -0.024816  -0.001145  -0.016406,
	 -0.023682  -0.003954  -0.010300,
	  0.001703   0.004047   0.000000,
	 -0.013222  -0.002051  -0.017549,
	 -0.024816  -0.001145   0.016406,
	 -0.016863  -0.004946   0.014452,
	 -0.023682  -0.003954   0.010300,
	 -0.013222  -0.002051   0.017549,
	 -0.021514  -0.008482  -0.029174,
	 -0.021592  -0.004765  -0.018869,
	 -0.020454  -0.026160  -0.015879,
	 -0.024259  -0.029550  -0.012968,
	 -0.028783  -0.014731  -0.021653,
	 -0.028829  -0.016269  -0.014540,
	 -0.026195  -0.016913  -0.013000,
	 -0.031483  -0.005539  -0.019979,
	 -0.024923  -0.007945  -0.021835,
	 -0.011406  -0.030400  -0.012299,
	 -0.022747  -0.033797  -0.017501,
	 -0.022172  -0.017586  -0.032981,
	 -0.021313  -0.014606  -0.036167,
	 -0.025565  -0.010422  -0.033444,
	 -0.012787  -0.034368  -0.006855,
	 -0.017757  -0.028966   0.000000,
	 -0.027463  -0.023263  -0.005062,
	 -0.034292  -0.030130   0.000000,
	 -0.023277  -0.022875  -0.008498,
	 -0.024685  -0.018246  -0.010659,
	 -0.027463  -0.023263   0.005062,
	 -0.023277  -0.022875   0.008498,
	 -0.024685  -0.018246   0.010659,
	 -0.024139  -0.011314  -0.011630,
	  0.011161   0.007630   0.019289,
	  0.004284   0.004702   0.022860,
	 -0.004351   0.000197   0.023008,
	 -0.021514  -0.008482   0.029174,
	 -0.021592  -0.004765   0.018869,
	 -0.031483  -0.005539   0.019979,
	 -0.028783  -0.014731   0.021653,
	 -0.024923  -0.007945   0.021835,
	 -0.024259  -0.029550   0.012968,
	 -0.020454  -0.026160   0.015879,
	 -0.028829  -0.016269   0.014540,
	 -0.026195  -0.016913   0.013000,
	 -0.011406  -0.030400   0.012299,
	 -0.022747  -0.033797   0.017501,
	 -0.021313  -0.014606   0.036167,
	 -0.022172  -0.017586   0.032981,
	 -0.025565  -0.010422   0.033444,
	 -0.012787  -0.034368   0.006855,
	 -0.024139  -0.011314   0.011630,
	 -0.035951  -0.011070  -0.016744,
	 -0.028622  -0.010913  -0.014277,
	 -0.035951  -0.011070   0.016744,
	 -0.028622  -0.010913   0.014277,
	 -0.024399  -0.038348  -0.009958,
	 -0.025703  -0.033487  -0.010524,
	 -0.020512  -0.040776  -0.017254,
	 -0.024803  -0.027296  -0.009067,
	 -0.033660  -0.011924  -0.022146,
	 -0.034671  -0.015060  -0.017202,
	 -0.011643  -0.043048  -0.013666,
	 -0.014639  -0.037817  -0.005445,
	 -0.018613  -0.035512   0.000000,
	 -0.014639  -0.037817   0.005445,
	 -0.029847  -0.029244  -0.004274,
	 -0.031645  -0.034443  -0.004160,
	 -0.042317  -0.036752   0.000000,
	 -0.029847  -0.029244   0.004274,
	 -0.031645  -0.034443   0.004160,
	 -0.024803  -0.027296   0.009067,
	 -0.033660  -0.011924   0.022146,
	 -0.034671  -0.015060   0.017202,
	 -0.025703  -0.033487   0.010524,
	 -0.024399  -0.038348   0.009958,
	 -0.020512  -0.040776   0.017254,
	 -0.011643  -0.043048   0.013666,
	 -0.030419  -0.039064  -0.004343,
	 -0.019716  -0.039774  -0.007826,
	 -0.025187  -0.040360  -0.005095,
	 -0.023419  -0.045516   0.000000,
	 -0.019716  -0.039774   0.007826,
	 -0.025187  -0.040360   0.005095,
	 -0.042770  -0.042434   0.000000,
	 -0.030419  -0.039064   0.004343,
	 -0.032928  -0.043641  -0.004733,
	 -0.029018  -0.044823  -0.004749,
	 -0.029058  -0.049305  -0.003687,
	 -0.030624  -0.050677   0.000000,
	 -0.029058  -0.049305   0.003687,
	 -0.029018  -0.044823   0.004749,
	 -0.039330  -0.046704  -0.004792,
	 -0.039720  -0.048547   0.000000,
	 -0.039330  -0.046704   0.004792,
	 -0.032928  -0.043641   0.004733,
	 -0.036427  -0.049755  -0.005584,
	 -0.034839  -0.051333   0.000000,
	 -0.036427  -0.049755   0.005584,
     ]    } 
    coordIndex [ 
	     0,      1,      2, -1 
	     0,      3,      1, -1 
	     0,      4,      3, -1 
	     0,      5,      6, -1 
	     6,      7,      0, -1 
	     0,      7,      8, -1 
	     8,      4,      0, -1 
	     2,      9,      0, -1 
	     9,     10,      0, -1 
	    10,     11,      0, -1 
	    12,      5,      0, -1 
	     0,     13,     12, -1 
	    14,     13,      0, -1 
	     0,     11,     14, -1 
	     2,      1,     15, -1 
	    15,      1,      3, -1 
	    16,      2,     15, -1 
	    17,      9,      2, -1 
	    17,      2,     16, -1 
	    18,     15,      3, -1 
	    18,      3,      4, -1 
	    19,     18,      4, -1 
	    19,      4,      8, -1 
	    20,      6,      5, -1 
	    21,     20,      5, -1 
	     5,     12,     22, -1 
	     5,     22,     21, -1 
	     6,     20,      7, -1 
	     7,     23,     24, -1 
	     8,      7,     24, -1 
	    25,     23,      7, -1 
	    20,     25,      7, -1 
	    24,     19,      8, -1 
	    10,      9,     17, -1 
	    10,     17,     26, -1 
	    11,     10,     26, -1 
	    11,     26,     27, -1 
	    14,     11,     27, -1 
	    13,     22,     12, -1 
	    28,     29,     13, -1 
	    28,     13,     14, -1 
	    13,     29,     30, -1 
	    13,     30,     22, -1 
	    14,     27,     28, -1 
	    15,     31,     32, -1 
	    16,     15,     32, -1 
	    31,     15,     18, -1 
	    32,     17,     16, -1 
	    32,     33,     17, -1 
	    26,     17,     33, -1 
	    34,     31,     18, -1 
	    34,     18,     19, -1 
	    35,     34,     19, -1 
	    35,     19,     24, -1 
	    20,     21,     36, -1 
	    25,     20,     36, -1 
	    37,     36,     21, -1 
	    21,     38,     37, -1 
	    38,     21,     22, -1 
	    38,     22,     30, -1 
	    23,     39,     40, -1 
	    24,     23,     40, -1 
	    41,     23,     25, -1 
	    41,     39,     23, -1 
	    40,     35,     24, -1 
	    41,     25,     36, -1 
	    26,     33,     42, -1 
	    27,     26,     42, -1 
	    27,     42,     43, -1 
	    28,     27,     43, -1 
	    28,     43,     44, -1 
	    44,     29,     28, -1 
	    44,     45,     29, -1 
	    30,     29,     46, -1 
	    29,     45,     46, -1 
	    38,     30,     46, -1 
	    31,     47,     48, -1 
	    32,     31,     48, -1 
	    47,     31,     34, -1 
	    48,     33,     32, -1 
	    48,     49,     33, -1 
	    42,     33,     49, -1 
	    50,     47,     34, -1 
	    50,     34,     35, -1 
	    51,     50,     35, -1 
	    51,     35,     40, -1 
	    52,     36,     37, -1 
	    52,     53,     36, -1 
	    53,     41,     36, -1 
	    54,     52,     37, -1 
	    37,     38,     55, -1 
	    37,     55,     54, -1 
	    38,     56,     55, -1 
	    38,     46,     56, -1 
	    39,     57,     58, -1 
	    40,     39,     58, -1 
	    59,     39,     60, -1 
	    39,     59,     61, -1 
	    57,     39,     61, -1 
	    41,     60,     39, -1 
	    58,     51,     40, -1 
	    41,     62,     60, -1 
	    62,     41,     53, -1 
	    42,     49,     63, -1 
	    43,     42,     63, -1 
	    43,     63,     64, -1 
	    44,     43,     64, -1 
	    44,     64,     65, -1 
	    65,     45,     44, -1 
	    65,     66,     45, -1 
	    67,     45,     68, -1 
	    69,     68,     45, -1 
	    69,     45,     66, -1 
	    45,     67,     46, -1 
	    67,     70,     46, -1 
	    56,     46,     70, -1 
	    47,     71,     72, -1 
	    48,     47,     72, -1 
	    71,     47,     50, -1 
	    72,     49,     48, -1 
	    72,     73,     49, -1 
	    63,     49,     73, -1 
	    74,     71,     50, -1 
	    74,     50,     51, -1 
	    75,     74,     51, -1 
	    75,     51,     58, -1 
	    76,     52,     54, -1 
	    77,     53,     52, -1 
	    76,     77,     52, -1 
	    53,     77,     62, -1 
	    78,     76,     54, -1 
	    54,     55,     79, -1 
	    54,     79,     78, -1 
	    55,     56,     80, -1 
	    55,     80,     79, -1 
	    70,     80,     56, -1 
	    57,     81,     82, -1 
	    58,     57,     82, -1 
	    57,     61,     83, -1 
	    81,     57,     83, -1 
	    82,     75,     58, -1 
	    61,     59,     60, -1 
	    60,     84,     85, -1 
	    86,     60,     85, -1 
	    86,     61,     60, -1 
	    87,     84,     60, -1 
	    62,     87,     60, -1 
	    88,     89,     61, -1 
	    86,     88,     61, -1 
	    61,     89,     83, -1 
	    90,     62,     91, -1 
	    92,     91,     62, -1 
	    93,     92,     62, -1 
	    62,     90,     87, -1 
	    77,     93,     62, -1 
	    63,     73,     94, -1 
	    64,     63,     94, -1 
	    64,     94,     95, -1 
	    65,     64,     95, -1 
	    65,     95,     96, -1 
	    96,     66,     65, -1 
	    96,     97,     66, -1 
	    98,     69,     66, -1 
	    98,     66,     97, -1 
	    99,    100,     67, -1 
	    99,     67,    101, -1 
	    67,     68,     69, -1 
	    67,     69,    101, -1 
	    67,    100,    102, -1 
	    67,    102,     70, -1 
	    69,    103,    104, -1 
	    69,    104,    101, -1 
	    98,    103,     69, -1 
	    91,     70,    105, -1 
	    70,     91,     92, -1 
	    70,     92,    106, -1 
	   102,    105,     70, -1 
	    70,    106,     80, -1 
	    71,    107,    108, -1 
	    72,     71,    108, -1 
	   107,     71,     74, -1 
	   108,     73,     72, -1 
	   108,    109,     73, -1 
	    94,     73,    109, -1 
	   110,    107,     74, -1 
	    74,     75,    111, -1 
	   110,     74,    111, -1 
	    75,     82,    112, -1 
	   111,     75,    112, -1 
	    76,    113,    114, -1 
	   114,    115,     76, -1 
	   115,     93,     76, -1 
	    77,     76,     93, -1 
	   116,     76,     78, -1 
	   116,    117,     76, -1 
	    76,    117,    113, -1 
	    78,     79,    116, -1 
	   118,    119,     79, -1 
	    79,    120,    118, -1 
	    79,    106,    120, -1 
	   106,     79,     80, -1 
	    79,    121,    116, -1 
	   119,    121,     79, -1 
	    82,     81,    112, -1 
	    81,     83,    117, -1 
	    81,    117,    112, -1 
	    83,    113,    117, -1 
	    89,    122,     83, -1 
	   123,     83,    122, -1 
	   113,     83,    123, -1 
	    84,    124,    125, -1 
	    85,     84,    126, -1 
	    84,    127,    126, -1 
	    87,    124,     84, -1 
	   125,    128,     84, -1 
	   128,    127,     84, -1 
	    85,    126,    129, -1 
	   122,     86,     85, -1 
	   122,     85,    130, -1 
	   130,     85,    129, -1 
	   122,     88,     86, -1 
	   131,     87,     90, -1 
	    87,    131,    132, -1 
	   124,     87,    132, -1 
	    88,    133,    134, -1 
	    89,     88,    134, -1 
	    88,    135,    133, -1 
	   122,    135,     88, -1 
	    89,    134,    122, -1 
	   136,     90,    137, -1 
	   137,     90,     91, -1 
	   136,    131,     90, -1 
	    91,    105,    137, -1 
	    92,    138,    139, -1 
	   140,    138,     92, -1 
	   141,    140,     92, -1 
	    92,     93,    141, -1 
	   139,    142,     92, -1 
	    92,    142,    143, -1 
	    92,    143,    144, -1 
	   144,    106,     92, -1 
	    93,    145,    141, -1 
	   115,    145,     93, -1 
	    94,    109,    146, -1 
	   147,     95,     94, -1 
	   147,     94,    146, -1 
	   148,     96,     95, -1 
	   148,     95,    147, -1 
	   148,     97,     96, -1 
	   121,     98,     97, -1 
	   148,    121,     97, -1 
	   121,    119,     98, -1 
	    98,    149,    103, -1 
	   149,     98,    150, -1 
	   150,     98,    119, -1 
	   151,    152,     99, -1 
	   152,    100,     99, -1 
	    99,    101,    149, -1 
	   153,     99,    149, -1 
	   151,     99,    153, -1 
	   154,    155,    100, -1 
	   152,    156,    100, -1 
	   100,    155,    102, -1 
	   100,    157,    154, -1 
	   100,    156,    157, -1 
	   101,    104,    149, -1 
	   105,    102,    158, -1 
	   159,    158,    102, -1 
	   159,    102,    155, -1 
	   149,    160,    103, -1 
	   160,    104,    103, -1 
	   160,    161,    104, -1 
	   161,    162,    104, -1 
	   104,    162,    149, -1 
	   137,    105,    163, -1 
	   105,    158,    163, -1 
	   144,    164,    106, -1 
	   106,    164,    120, -1 
	   116,    107,    110, -1 
	   116,    108,    107, -1 
	   109,    108,    116, -1 
	   146,    109,    116, -1 
	   116,    110,    111, -1 
	   116,    111,    112, -1 
	   116,    112,    117, -1 
	   123,    114,    113, -1 
	   114,    123,    129, -1 
	   114,    129,    165, -1 
	   166,    114,    165, -1 
	   166,    145,    114, -1 
	   115,    114,    145, -1 
	   147,    146,    116, -1 
	   148,    147,    116, -1 
	   121,    148,    116, -1 
	   119,    118,    150, -1 
	   151,    150,    118, -1 
	   167,    151,    118, -1 
	   167,    118,    168, -1 
	   118,    164,    168, -1 
	   164,    118,    120, -1 
	   134,    135,    122, -1 
	   130,    123,    122, -1 
	   123,    130,    129, -1 
	   125,    124,    132, -1 
	   169,    170,    125, -1 
	   171,    169,    125, -1 
	   132,    171,    125, -1 
	   172,    125,    170, -1 
	   125,    172,    128, -1 
	   126,    173,    129, -1 
	   174,    173,    126, -1 
	   174,    126,    127, -1 
	   165,    174,    127, -1 
	   166,    165,    127, -1 
	   127,    128,    145, -1 
	   166,    127,    145, -1 
	   145,    128,    141, -1 
	   140,    128,    172, -1 
	   141,    128,    140, -1 
	   165,    129,    173, -1 
	   131,    175,    132, -1 
	   136,    175,    131, -1 
	   175,    171,    132, -1 
	   133,    135,    134, -1 
	   176,    136,    137, -1 
	   176,    175,    136, -1 
	   177,    176,    137, -1 
	   137,    163,    178, -1 
	   137,    178,    177, -1 
	   139,    138,    179, -1 
	   138,    140,    179, -1 
	   180,    181,    139, -1 
	   179,    180,    139, -1 
	   182,    142,    139, -1 
	   139,    181,    183, -1 
	   139,    183,    182, -1 
	   140,    172,    179, -1 
	   182,    143,    142, -1 
	   182,    184,    143, -1 
	   184,    157,    143, -1 
	   143,    157,    144, -1 
	   144,    157,    164, -1 
	   149,    162,    160, -1 
	   149,    150,    153, -1 
	   151,    153,    150, -1 
	   151,    185,    152, -1 
	   185,    151,    167, -1 
	   152,    185,    186, -1 
	   156,    152,    186, -1 
	   159,    155,    154, -1 
	   154,    187,    188, -1 
	   154,    188,    189, -1 
	   154,    189,    159, -1 
	   187,    154,    184, -1 
	   157,    184,    154, -1 
	   156,    186,    167, -1 
	   156,    167,    168, -1 
	   164,    157,    156, -1 
	   164,    156,    168, -1 
	   159,    190,    158, -1 
	   158,    190,    163, -1 
	   159,    189,    190, -1 
	   160,    162,    161, -1 
	   163,    190,    178, -1 
	   174,    165,    173, -1 
	   185,    167,    186, -1 
	   170,    169,    191, -1 
	   169,    192,    193, -1 
	   191,    169,    193, -1 
	   169,    171,    192, -1 
	   172,    170,    180, -1 
	   180,    170,    191, -1 
	   171,    175,    192, -1 
	   179,    172,    180, -1 
	   192,    175,    176, -1 
	   193,    192,    176, -1 
	   194,    193,    176, -1 
	   194,    176,    177, -1 
	   177,    178,    194, -1 
	   178,    190,    195, -1 
	   178,    195,    196, -1 
	   178,    196,    194, -1 
	   180,    191,    181, -1 
	   191,    197,    181, -1 
	   181,    197,    198, -1 
	   181,    198,    183, -1 
	   183,    184,    182, -1 
	   183,    187,    184, -1 
	   198,    187,    183, -1 
	   198,    188,    187, -1 
	   196,    195,    188, -1 
	   196,    188,    198, -1 
	   195,    189,    188, -1 
	   195,    190,    189, -1 
	   191,    199,    197, -1 
	   191,    193,    200, -1 
	   199,    191,    200, -1 
	   193,    194,    201, -1 
	   200,    193,    201, -1 
	   202,    201,    194, -1 
	   194,    203,    202, -1 
	   203,    194,    196, -1 
	   204,    196,    198, -1 
	   203,    196,    204, -1 
	   199,    205,    197, -1 
	   197,    205,    206, -1 
	   197,    207,    208, -1 
	   197,    208,    198, -1 
	   206,    207,    197, -1 
	   204,    198,    208, -1 
	   199,    200,    201, -1 
	   209,    199,    201, -1 
	   199,    209,    205, -1 
	   209,    201,    202, -1 
	   210,    209,    202, -1 
	   202,    203,    211, -1 
	   202,    211,    210, -1 
	   203,    204,    208, -1 
	   203,    208,    211, -1 
	   205,    209,    210, -1 
	   206,    205,    210, -1 
	   210,    207,    206, -1 
	   210,    211,    207, -1 
	   207,    211,    208, -1 
    ] 
   colorPerVertex FALSE 
    colorIndex [ 
	  1, 
	  1, 
	  1, 
	  1, 
	  1, 
	  1, 
	  1, 
	  1, 
	  1, 
	  1, 
	  1, 
	  1, 
	  1, 
	  1, 
	  1, 
	  1, 
	  1, 
	  1, 
	  1, 
	  1, 
	  1, 
	  1, 
	  1, 
	  1, 
	  1, 
	  1, 
	  1, 
	  1, 
	  1, 
	  1, 
	  1, 
	  1, 
	  1, 
	  1, 
	  1, 
	  1, 
	  1, 
	  1, 
	  1, 
	  1, 
	  1, 
	  1, 
	  1, 
	  1, 
	  1, 
	  1, 
	  1, 
	  1, 
	  1, 
	  1, 
	  1, 
	  1, 
	  1, 
	  1, 
	  1, 
	  1, 
	  1, 
	  1, 
	  1, 
	  1, 
	  1, 
	  1, 
	  1, 
	  1, 
	  1, 
	  1, 
	  1, 
	  1, 
	  1, 
	  1, 
	  1, 
	  1, 
	  1, 
	  1, 
	  1, 
	  1, 
	  1, 
	  1, 
	  1, 
	  1, 
	  1, 
	  1, 
	  1, 
	  1, 
	  1, 
	  1, 
	  1, 
	  1, 
	  1, 
	  1, 
	  1, 
	  1, 
	  1, 
	  1, 
	  1, 
	  1, 
	  1, 
	  1, 
	  1, 
	  1, 
	  1, 
	  1, 
	  1, 
	  1, 
	  1, 
	  1, 
	  1, 
	  1, 
	  1, 
	  1, 
	  1, 
	  1, 
	  1, 
	  1, 
	  1, 
	  1, 
	  1, 
	  1, 
	  1, 
	  1, 
	  1, 
	  1, 
	  1, 
	  1, 
	  1, 
	  1, 
	  1, 
	  1, 
	  1, 
	  1, 
	  1, 
	  1, 
	  1, 
	  1, 
	  1, 
	  1, 
	  1, 
	  1, 
	  1, 
	  1, 
	  1, 
	  1, 
	  1, 
	  1, 
	  1, 
	  1, 
	  1, 
	  1, 
	  1, 
	  1, 
	  1, 
	  1, 
	  1, 
	  1, 
	  1, 
	  1, 
	  1, 
	  1, 
	  1, 
	  1, 
	  1, 
	  1, 
	  1, 
	  1, 
	  1, 
	  1, 
	  1, 
	  1, 
	  1, 
	  1, 
	  1, 
	  1, 
	  1, 
	  1, 
	  1, 
	  1, 
	  1, 
	  1, 
	  1, 
	  1, 
	  1, 
	  1, 
	  1, 
	  1, 
	  1, 
	  1, 
	  1, 
	  1, 
	  1, 
	  1, 
	  1, 
	  1, 
	  1, 
	  1, 
	  1, 
	  1, 
	  1, 
	  1, 
	  1, 
	  1, 
	  1, 
	  1, 
	  1, 
	  1, 
	  1, 
	  1, 
	  1, 
	  1, 
	  1, 
	  1, 
	  1, 
	  1, 
    ] 
normal Normal { 
vector [ 
	  0.338322  -0.941030   0.000000,
	  0.685755  -0.697749  -0.207090,
	  0.883323  -0.468765   0.000000,
	  0.753388  -0.384589  -0.533384,
	  0.418669  -0.236539  -0.876793,
	 -0.937672  -0.347522   0.000000,
	 -0.650568  -0.759294   0.015326,
	 -0.895403  -0.369406  -0.248583,
	 -0.158849  -0.361598  -0.918702,
	  0.685756  -0.697748   0.207090,
	  0.753388  -0.384583   0.533387,
	  0.418664  -0.236535   0.876796,
	 -0.650568  -0.759294  -0.015326,
	 -0.895403  -0.369406   0.248583,
	 -0.158849  -0.361598   0.918702,
	  0.937979   0.234184  -0.255645,
	  0.983852   0.178983   0.000000,
	  0.937978   0.234187   0.255644,
	  0.476217   0.480497  -0.736437,
	  0.091564   0.374933  -0.922519,
	 -0.980399  -0.185491   0.066412,
	 -0.929691  -0.368341   0.000000,
	 -0.980399  -0.185491  -0.066412,
	 -0.755735  -0.412787  -0.508401,
	 -0.506580   0.208848  -0.836516,
	 -0.866609  -0.487453   0.106670,
	  0.476212   0.480503   0.736437,
	  0.091564   0.374933   0.922519,
	 -0.506580   0.208848   0.836516,
	 -0.755736  -0.412785   0.508400,
	 -0.866610  -0.487451  -0.106667,
	  0.796086   0.460944  -0.392144,
	  0.872518   0.488583   0.000000,
	  0.796086   0.460944   0.392144,
	  0.515851   0.333314  -0.789176,
	  0.146224   0.184389  -0.971915,
	 -0.762754  -0.603022   0.233603,
	 -0.817127  -0.576458   0.000000,
	 -0.762755  -0.603024  -0.233598,
	  0.133301  -0.643472  -0.753773,
	 -0.102893  -0.105615  -0.989070,
	 -0.278996  -0.865241   0.416557,
	  0.515851   0.333314   0.789176,
	  0.146224   0.184389   0.971915,
	 -0.102893  -0.105615   0.989070,
	  0.133301  -0.643472   0.753774,
	 -0.279003  -0.865242  -0.416549,
	  0.901315   0.203417  -0.382430,
	  0.953834   0.300333   0.000000,
	  0.901315   0.203417   0.382430,
	  0.610047  -0.012690  -0.792264,
	  0.304650  -0.167365  -0.937645,
	 -0.861546  -0.429031   0.271423,
	 -0.368344  -0.152538   0.917090,
	 -0.909538  -0.415622   0.000000,
	 -0.861546  -0.429031  -0.271423,
	 -0.368348  -0.152542  -0.917088,
	  0.137952   0.031081  -0.989951,
	  0.117580  -0.252337  -0.960469,
	  0.167643  -0.746892  -0.643466,
	  0.348219  -0.900797  -0.259440,
	  0.663947  -0.210651  -0.717496,
	  0.596022   0.421014   0.683743,
	  0.610047  -0.012690   0.792264,
	  0.304650  -0.167365   0.937645,
	  0.117580  -0.252337   0.960469,
	  0.137952   0.031081   0.989951,
	  0.348218  -0.900797   0.259441,
	  0.167643  -0.746892   0.643466,
	  0.663947  -0.210651   0.717496,
	  0.596021   0.421015  -0.683743,
	  0.928964   0.174108  -0.326670,
	  0.972446   0.233127   0.000000,
	  0.928964   0.174108   0.326670,
	  0.635956   0.004296  -0.771714,
	  0.283404  -0.209022  -0.935944,
	 -0.707521   0.588289   0.391575,
	 -0.180019  -0.085220   0.979965,
	 -0.906169   0.422915   0.000000,
	 -0.707521   0.588289  -0.391575,
	 -0.180019  -0.085220  -0.979965,
	 -0.251861   0.130387  -0.958939,
	 -0.007560  -0.194181  -0.980936,
	  0.144160   0.773909  -0.616671,
	 -0.219201  -0.751207  -0.622607,
	 -0.498748  -0.533213  -0.683326,
	 -0.106690  -0.886188  -0.450875,
	  0.906690  -0.010209  -0.421675,
	  0.219344  -0.970271  -0.102288,
	  0.729457   0.307214  -0.611156,
	  0.899945   0.163224   0.404297,
	  0.799954   0.600061   0.000000,
	 -0.746741   0.665115   0.000002,
	 -0.536492   0.315742   0.782613,
	  0.635956   0.004296   0.771714,
	  0.283404  -0.209022   0.935944,
	 -0.007560  -0.194181   0.980936,
	 -0.251861   0.130387   0.958939,
	  0.144160   0.773909   0.616671,
	 -0.498750  -0.533215   0.683323,
	 -0.219201  -0.751207   0.622607,
	 -0.106690  -0.886188   0.450875,
	  0.906690  -0.010209   0.421675,
	  0.729457   0.307214   0.611156,
	  0.219345  -0.970270   0.102293,
	  0.899945   0.163224  -0.404297,
	 -0.536494   0.315743  -0.782611,
	  0.458988   0.809497  -0.366122,
	  0.642400   0.766370   0.000000,
	  0.458988   0.809497   0.366122,
	  0.143872   0.820109  -0.553825,
	  0.019031   0.545153  -0.838120,
	 -0.299235   0.377613  -0.876280,
	 -0.039679   0.918555  -0.393296,
	 -0.345945   0.917083   0.198194,
	 -0.738792   0.353899   0.573535,
	 -0.386598   0.922249   0.000000,
	 -0.514948   0.752481  -0.410611,
	 -0.345943   0.917083  -0.198196,
	 -0.039679   0.918555   0.393296,
	 -0.738793   0.353898  -0.573533,
	 -0.514948   0.752481   0.410611,
	 -0.487676   0.620919  -0.613703,
	  0.114717   0.838182  -0.533190,
	 -0.042496  -0.000675  -0.999096,
	 -0.856282  -0.074255  -0.511142,
	 -0.205828  -0.679481  -0.704231,
	 -0.470559  -0.636649   0.610943,
	 -0.917259  -0.185198   0.352614,
	 -0.298364   0.520559  -0.799998,
	 -0.478308   0.478687  -0.736261,
	  0.959291   0.150658  -0.238878,
	 -0.006697   0.118364  -0.992948,
	 -0.531530  -0.825818  -0.188418,
	  0.331272  -0.053312  -0.942028,
	 -0.970890  -0.117724   0.208597,
	  0.887728  -0.040845   0.458554,
	  0.999449  -0.033199   0.000000,
	 -0.681775   0.379777  -0.625261,
	 -0.882265   0.470753   0.000002,
	 -0.955434   0.198921  -0.218118,
	 -0.975878   0.044555   0.213719,
	 -0.681777   0.379779   0.625259,
	 -0.955435   0.198922   0.218115,
	 -0.975879   0.044558  -0.213718,
	 -0.788395   0.092128   0.608232,
	  0.143872   0.820109   0.553825,
	  0.019031   0.545153   0.838120,
	 -0.299235   0.377613   0.876280,
	 -0.487674   0.620919   0.613704,
	  0.114717   0.838183   0.533187,
	 -0.298368   0.520558   0.799997,
	 -0.205828  -0.679481   0.704231,
	 -0.478313   0.478685   0.736259,
	 -0.856282  -0.074255   0.511142,
	 -0.042496  -0.000675   0.999096,
	 -0.470556  -0.636648  -0.610947,
	 -0.917260  -0.185194  -0.352616,
	  0.959291   0.150658   0.238878,
	 -0.006697   0.118364   0.992948,
	  0.331276  -0.053305   0.942027,
	 -0.531526  -0.825817   0.188432,
	 -0.970893  -0.117728  -0.208585,
	  0.887728  -0.040845  -0.458554,
	 -0.788393   0.092131  -0.608234,
	 -0.813048   0.215575   0.540814,
	 -0.405943   0.156776   0.900351,
	 -0.813048   0.215575  -0.540814,
	 -0.405936   0.156775  -0.900354,
	 -0.558612  -0.657381  -0.505770,
	 -0.764693  -0.045422  -0.642792,
	 -0.641811  -0.684556  -0.345632,
	 -0.933821   0.198074  -0.297901,
	 -0.632931  -0.116258  -0.765430,
	 -0.634935  -0.767993  -0.083933,
	  0.772399  -0.616974  -0.150808,
	  0.649172  -0.606540   0.459005,
	  0.959241  -0.282587   0.000000,
	  0.649172  -0.606540  -0.459005,
	 -0.694880   0.226206  -0.682622,
	 -0.627347   0.172309  -0.759438,
	 -0.921180   0.389138   0.000000,
	 -0.694881   0.226211   0.682619,
	 -0.627347   0.172309   0.759438,
	 -0.933821   0.198074   0.297901,
	 -0.632931  -0.116258   0.765430,
	 -0.634935  -0.767993   0.083933,
	 -0.764693  -0.045422   0.642792,
	 -0.558612  -0.657381   0.505770,
	 -0.641811  -0.684556   0.345632,
	  0.772399  -0.616974   0.150808,
	 -0.391775  -0.127919  -0.911125,
	 -0.094607  -0.984624   0.146852,
	  0.129052  -0.713602  -0.688562,
	  0.686537  -0.727095   0.000000,
	 -0.094607  -0.984624  -0.146852,
	  0.129052  -0.713602   0.688562,
	 -0.968078   0.250649   0.000000,
	 -0.391775  -0.127919   0.911125,
	 -0.097941   0.161529  -0.981996,
	 -0.002171  -0.087877  -0.996129,
	  0.349634  -0.523961  -0.776673,
	  0.304186  -0.952613   0.000000,
	  0.349634  -0.523961   0.776673,
	 -0.002171  -0.087877   0.996129,
	 -0.684607  -0.325998  -0.651950,
	 -0.730377  -0.683045   0.000000,
	 -0.684607  -0.325998   0.651950,
	 -0.097941   0.161529   0.981996,
	 -0.077140  -0.685265  -0.724197,
	 -0.391815  -0.920044   0.000000,
	 -0.077140  -0.685265   0.724197,
     ]    } 
normalIndex      [ 
	     0,      1,      2, -1 
	     0,      3,      1, -1 
	     0,      4,      3, -1 
	     0,      5,      6, -1 
	     6,      7,      0, -1 
	     0,      7,      8, -1 
	     8,      4,      0, -1 
	     2,      9,      0, -1 
	     9,     10,      0, -1 
	    10,     11,      0, -1 
	    12,      5,      0, -1 
	     0,     13,     12, -1 
	    14,     13,      0, -1 
	     0,     11,     14, -1 
	     2,      1,     15, -1 
	    15,      1,      3, -1 
	    16,      2,     15, -1 
	    17,      9,      2, -1 
	    17,      2,     16, -1 
	    18,     15,      3, -1 
	    18,      3,      4, -1 
	    19,     18,      4, -1 
	    19,      4,      8, -1 
	    20,      6,      5, -1 
	    21,     20,      5, -1 
	     5,     12,     22, -1 
	     5,     22,     21, -1 
	     6,     20,      7, -1 
	     7,     23,     24, -1 
	     8,      7,     24, -1 
	    25,     23,      7, -1 
	    20,     25,      7, -1 
	    24,     19,      8, -1 
	    10,      9,     17, -1 
	    10,     17,     26, -1 
	    11,     10,     26, -1 
	    11,     26,     27, -1 
	    14,     11,     27, -1 
	    13,     22,     12, -1 
	    28,     29,     13, -1 
	    28,     13,     14, -1 
	    13,     29,     30, -1 
	    13,     30,     22, -1 
	    14,     27,     28, -1 
	    15,     31,     32, -1 
	    16,     15,     32, -1 
	    31,     15,     18, -1 
	    32,     17,     16, -1 
	    32,     33,     17, -1 
	    26,     17,     33, -1 
	    34,     31,     18, -1 
	    34,     18,     19, -1 
	    35,     34,     19, -1 
	    35,     19,     24, -1 
	    20,     21,     36, -1 
	    25,     20,     36, -1 
	    37,     36,     21, -1 
	    21,     38,     37, -1 
	    38,     21,     22, -1 
	    38,     22,     30, -1 
	    23,     39,     40, -1 
	    24,     23,     40, -1 
	    41,     23,     25, -1 
	    41,     39,     23, -1 
	    40,     35,     24, -1 
	    41,     25,     36, -1 
	    26,     33,     42, -1 
	    27,     26,     42, -1 
	    27,     42,     43, -1 
	    28,     27,     43, -1 
	    28,     43,     44, -1 
	    44,     29,     28, -1 
	    44,     45,     29, -1 
	    30,     29,     46, -1 
	    29,     45,     46, -1 
	    38,     30,     46, -1 
	    31,     47,     48, -1 
	    32,     31,     48, -1 
	    47,     31,     34, -1 
	    48,     33,     32, -1 
	    48,     49,     33, -1 
	    42,     33,     49, -1 
	    50,     47,     34, -1 
	    50,     34,     35, -1 
	    51,     50,     35, -1 
	    51,     35,     40, -1 
	    52,     36,     37, -1 
	    52,     53,     36, -1 
	    53,     41,     36, -1 
	    54,     52,     37, -1 
	    37,     38,     55, -1 
	    37,     55,     54, -1 
	    38,     56,     55, -1 
	    38,     46,     56, -1 
	    39,     57,     58, -1 
	    40,     39,     58, -1 
	    59,     39,     60, -1 
	    39,     59,     61, -1 
	    57,     39,     61, -1 
	    41,     60,     39, -1 
	    58,     51,     40, -1 
	    41,     62,     60, -1 
	    62,     41,     53, -1 
	    42,     49,     63, -1 
	    43,     42,     63, -1 
	    43,     63,     64, -1 
	    44,     43,     64, -1 
	    44,     64,     65, -1 
	    65,     45,     44, -1 
	    65,     66,     45, -1 
	    67,     45,     68, -1 
	    69,     68,     45, -1 
	    69,     45,     66, -1 
	    45,     67,     46, -1 
	    67,     70,     46, -1 
	    56,     46,     70, -1 
	    47,     71,     72, -1 
	    48,     47,     72, -1 
	    71,     47,     50, -1 
	    72,     49,     48, -1 
	    72,     73,     49, -1 
	    63,     49,     73, -1 
	    74,     71,     50, -1 
	    74,     50,     51, -1 
	    75,     74,     51, -1 
	    75,     51,     58, -1 
	    76,     52,     54, -1 
	    77,     53,     52, -1 
	    76,     77,     52, -1 
	    53,     77,     62, -1 
	    78,     76,     54, -1 
	    54,     55,     79, -1 
	    54,     79,     78, -1 
	    55,     56,     80, -1 
	    55,     80,     79, -1 
	    70,     80,     56, -1 
	    57,     81,     82, -1 
	    58,     57,     82, -1 
	    57,     61,     83, -1 
	    81,     57,     83, -1 
	    82,     75,     58, -1 
	    61,     59,     60, -1 
	    60,     84,     85, -1 
	    86,     60,     85, -1 
	    86,     61,     60, -1 
	    87,     84,     60, -1 
	    62,     87,     60, -1 
	    88,     89,     61, -1 
	    86,     88,     61, -1 
	    61,     89,     83, -1 
	    90,     62,     91, -1 
	    92,     91,     62, -1 
	    93,     92,     62, -1 
	    62,     90,     87, -1 
	    77,     93,     62, -1 
	    63,     73,     94, -1 
	    64,     63,     94, -1 
	    64,     94,     95, -1 
	    65,     64,     95, -1 
	    65,     95,     96, -1 
	    96,     66,     65, -1 
	    96,     97,     66, -1 
	    98,     69,     66, -1 
	    98,     66,     97, -1 
	    99,    100,     67, -1 
	    99,     67,    101, -1 
	    67,     68,     69, -1 
	    67,     69,    101, -1 
	    67,    100,    102, -1 
	    67,    102,     70, -1 
	    69,    103,    104, -1 
	    69,    104,    101, -1 
	    98,    103,     69, -1 
	    91,     70,    105, -1 
	    70,     91,     92, -1 
	    70,     92,    106, -1 
	   102,    105,     70, -1 
	    70,    106,     80, -1 
	    71,    107,    108, -1 
	    72,     71,    108, -1 
	   107,     71,     74, -1 
	   108,     73,     72, -1 
	   108,    109,     73, -1 
	    94,     73,    109, -1 
	   110,    107,     74, -1 
	    74,     75,    111, -1 
	   110,     74,    111, -1 
	    75,     82,    112, -1 
	   111,     75,    112, -1 
	    76,    113,    114, -1 
	   114,    115,     76, -1 
	   115,     93,     76, -1 
	    77,     76,     93, -1 
	   116,     76,     78, -1 
	   116,    117,     76, -1 
	    76,    117,    113, -1 
	    78,     79,    116, -1 
	   118,    119,     79, -1 
	    79,    120,    118, -1 
	    79,    106,    120, -1 
	   106,     79,     80, -1 
	    79,    121,    116, -1 
	   119,    121,     79, -1 
	    82,     81,    112, -1 
	    81,     83,    117, -1 
	    81,    117,    112, -1 
	    83,    113,    117, -1 
	    89,    122,     83, -1 
	   123,     83,    122, -1 
	   113,     83,    123, -1 
	    84,    124,    125, -1 
	    85,     84,    126, -1 
	    84,    127,    126, -1 
	    87,    124,     84, -1 
	   125,    128,     84, -1 
	   128,    127,     84, -1 
	    85,    126,    129, -1 
	   122,     86,     85, -1 
	   122,     85,    130, -1 
	   130,     85,    129, -1 
	   122,     88,     86, -1 
	   131,     87,     90, -1 
	    87,    131,    132, -1 
	   124,     87,    132, -1 
	    88,    133,    134, -1 
	    89,     88,    134, -1 
	    88,    135,    133, -1 
	   122,    135,     88, -1 
	    89,    134,    122, -1 
	   136,     90,    137, -1 
	   137,     90,     91, -1 
	   136,    131,     90, -1 
	    91,    105,    137, -1 
	    92,    138,    139, -1 
	   140,    138,     92, -1 
	   141,    140,     92, -1 
	    92,     93,    141, -1 
	   139,    142,     92, -1 
	    92,    142,    143, -1 
	    92,    143,    144, -1 
	   144,    106,     92, -1 
	    93,    145,    141, -1 
	   115,    145,     93, -1 
	    94,    109,    146, -1 
	   147,     95,     94, -1 
	   147,     94,    146, -1 
	   148,     96,     95, -1 
	   148,     95,    147, -1 
	   148,     97,     96, -1 
	   121,     98,     97, -1 
	   148,    121,     97, -1 
	   121,    119,     98, -1 
	    98,    149,    103, -1 
	   149,     98,    150, -1 
	   150,     98,    119, -1 
	   151,    152,     99, -1 
	   152,    100,     99, -1 
	    99,    101,    149, -1 
	   153,     99,    149, -1 
	   151,     99,    153, -1 
	   154,    155,    100, -1 
	   152,    156,    100, -1 
	   100,    155,    102, -1 
	   100,    157,    154, -1 
	   100,    156,    157, -1 
	   101,    104,    149, -1 
	   105,    102,    158, -1 
	   159,    158,    102, -1 
	   159,    102,    155, -1 
	   149,    160,    103, -1 
	   160,    104,    103, -1 
	   160,    161,    104, -1 
	   161,    162,    104, -1 
	   104,    162,    149, -1 
	   137,    105,    163, -1 
	   105,    158,    163, -1 
	   144,    164,    106, -1 
	   106,    164,    120, -1 
	   116,    107,    110, -1 
	   116,    108,    107, -1 
	   109,    108,    116, -1 
	   146,    109,    116, -1 
	   116,    110,    111, -1 
	   116,    111,    112, -1 
	   116,    112,    117, -1 
	   123,    114,    113, -1 
	   114,    123,    129, -1 
	   114,    129,    165, -1 
	   166,    114,    165, -1 
	   166,    145,    114, -1 
	   115,    114,    145, -1 
	   147,    146,    116, -1 
	   148,    147,    116, -1 
	   121,    148,    116, -1 
	   119,    118,    150, -1 
	   151,    150,    118, -1 
	   167,    151,    118, -1 
	   167,    118,    168, -1 
	   118,    164,    168, -1 
	   164,    118,    120, -1 
	   134,    135,    122, -1 
	   130,    123,    122, -1 
	   123,    130,    129, -1 
	   125,    124,    132, -1 
	   169,    170,    125, -1 
	   171,    169,    125, -1 
	   132,    171,    125, -1 
	   172,    125,    170, -1 
	   125,    172,    128, -1 
	   126,    173,    129, -1 
	   174,    173,    126, -1 
	   174,    126,    127, -1 
	   165,    174,    127, -1 
	   166,    165,    127, -1 
	   127,    128,    145, -1 
	   166,    127,    145, -1 
	   145,    128,    141, -1 
	   140,    128,    172, -1 
	   141,    128,    140, -1 
	   165,    129,    173, -1 
	   131,    175,    132, -1 
	   136,    175,    131, -1 
	   175,    171,    132, -1 
	   133,    135,    134, -1 
	   176,    136,    137, -1 
	   176,    175,    136, -1 
	   177,    176,    137, -1 
	   137,    163,    178, -1 
	   137,    178,    177, -1 
	   139,    138,    179, -1 
	   138,    140,    179, -1 
	   180,    181,    139, -1 
	   179,    180,    139, -1 
	   182,    142,    139, -1 
	   139,    181,    183, -1 
	   139,    183,    182, -1 
	   140,    172,    179, -1 
	   182,    143,    142, -1 
	   182,    184,    143, -1 
	   184,    157,    143, -1 
	   143,    157,    144, -1 
	   144,    157,    164, -1 
	   149,    162,    160, -1 
	   149,    150,    153, -1 
	   151,    153,    150, -1 
	   151,    185,    152, -1 
	   185,    151,    167, -1 
	   152,    185,    186, -1 
	   156,    152,    186, -1 
	   159,    155,    154, -1 
	   154,    187,    188, -1 
	   154,    188,    189, -1 
	   154,    189,    159, -1 
	   187,    154,    184, -1 
	   157,    184,    154, -1 
	   156,    186,    167, -1 
	   156,    167,    168, -1 
	   164,    157,    156, -1 
	   164,    156,    168, -1 
	   159,    190,    158, -1 
	   158,    190,    163, -1 
	   159,    189,    190, -1 
	   160,    162,    161, -1 
	   163,    190,    178, -1 
	   174,    165,    173, -1 
	   185,    167,    186, -1 
	   170,    169,    191, -1 
	   169,    192,    193, -1 
	   191,    169,    193, -1 
	   169,    171,    192, -1 
	   172,    170,    180, -1 
	   180,    170,    191, -1 
	   171,    175,    192, -1 
	   179,    172,    180, -1 
	   192,    175,    176, -1 
	   193,    192,    176, -1 
	   194,    193,    176, -1 
	   194,    176,    177, -1 
	   177,    178,    194, -1 
	   178,    190,    195, -1 
	   178,    195,    196, -1 
	   178,    196,    194, -1 
	   180,    191,    181, -1 
	   191,    197,    181, -1 
	   181,    197,    198, -1 
	   181,    198,    183, -1 
	   183,    184,    182, -1 
	   183,    187,    184, -1 
	   198,    187,    183, -1 
	   198,    188,    187, -1 
	   196,    195,    188, -1 
	   196,    188,    198, -1 
	   195,    189,    188, -1 
	   195,    190,    189, -1 
	   191,    199,    197, -1 
	   191,    193,    200, -1 
	   199,    191,    200, -1 
	   193,    194,    201, -1 
	   200,    193,    201, -1 
	   202,    201,    194, -1 
	   194,    203,    202, -1 
	   203,    194,    196, -1 
	   204,    196,    198, -1 
	   203,    196,    204, -1 
	   199,    205,    197, -1 
	   197,    205,    206, -1 
	   197,    207,    208, -1 
	   197,    208,    198, -1 
	   206,    207,    197, -1 
	   204,    198,    208, -1 
	   199,    200,    201, -1 
	   209,    199,    201, -1 
	   199,    209,    205, -1 
	   209,    201,    202, -1 
	   210,    209,    202, -1 
	   202,    203,    211, -1 
	   202,    211,    210, -1 
	   203,    204,    208, -1 
	   203,    208,    211, -1 
	   205,    209,    210, -1 
	   206,    205,    210, -1 
	   210,    207,    206, -1 
	   210,    211,    207, -1 
	   207,    211,    208, -1 
    ] 
normalPerVertex  TRUE 
   } 
  } 
 ] 
} 
