#VRML V2.0 utf8 
Transform { 
 children [ 
    Shape { 
   geometry IndexedFaceSet { 
   solid FALSE 
    coord DEF bone Coordinate{ 
     point [ 
	  0.007508  -0.026288   0.000000,
	  0.021893  -0.021391  -0.009262,
	  0.020220  -0.025690   0.000000,
	  0.016924  -0.022232  -0.018954,
	  0.009123  -0.024455  -0.023673,
	 -0.010379  -0.028130   0.000000,
	 -0.010203  -0.028486  -0.005562,
	 -0.010650  -0.028200  -0.016477,
	 -0.005447  -0.025721  -0.023811,
	  0.021893  -0.021391   0.009262,
	  0.016924  -0.022232   0.018954,
	  0.009123  -0.024455   0.023673,
	 -0.010203  -0.028486   0.005562,
	 -0.010650  -0.028200   0.016477,
	 -0.005447  -0.025721   0.023811,
	  0.022365  -0.020068  -0.011124,
	  0.022112  -0.019370   0.000000,
	  0.022365  -0.020068   0.011124,
	  0.015499  -0.019346  -0.018305,
	  0.006696  -0.018716  -0.022255,
	 -0.011037  -0.022433  -0.005203,
	 -0.010972  -0.022576   0.000000,
	 -0.011037  -0.022433   0.005203,
	 -0.011420  -0.020538  -0.016825,
	 -0.004553  -0.022317  -0.022422,
	 -0.012386  -0.021039  -0.009934,
	  0.015499  -0.019346   0.018305,
	  0.006696  -0.018716   0.022255,
	 -0.004553  -0.022317   0.022422,
	 -0.011420  -0.020538   0.016825,
	 -0.012386  -0.021039   0.009934,
	  0.018773  -0.014011  -0.010828,
	  0.020279  -0.014138   0.000000,
	  0.018773  -0.014011   0.010828,
	  0.012777  -0.014140  -0.017846,
	  0.005668  -0.013749  -0.020238,
	 -0.012390  -0.015362  -0.006682,
	 -0.011874  -0.015185   0.000000,
	 -0.012390  -0.015362   0.006682,
	 -0.010813  -0.016583  -0.020062,
	 -0.004873  -0.014689  -0.021215,
	 -0.014500  -0.015252  -0.010250,
	  0.012777  -0.014140   0.017846,
	  0.005668  -0.013749   0.020238,
	 -0.004873  -0.014689   0.021215,
	 -0.010813  -0.016583   0.020062,
	 -0.014500  -0.015252   0.010250,
	  0.016943  -0.004323  -0.010444,
	  0.018169  -0.002632   0.000000,
	  0.016943  -0.004323   0.010444,
	  0.010590  -0.005411  -0.018532,
	  0.005327  -0.006688  -0.020328,
	 -0.015771  -0.008768  -0.006904,
	 -0.017977  -0.008839  -0.010717,
	 -0.015025  -0.008441   0.000000,
	 -0.015771  -0.008768   0.006904,
	 -0.017977  -0.008839   0.010717,
	 -0.010846  -0.009419  -0.021785,
	 -0.005543  -0.009179  -0.021365,
	 -0.014843  -0.014776  -0.022166,
	 -0.017209  -0.018849  -0.018073,
	 -0.017752  -0.011493  -0.026513,
	 -0.023794  -0.014943  -0.003907,
	  0.010590  -0.005411   0.018532,
	  0.005327  -0.006688   0.020328,
	 -0.005543  -0.009179   0.021365,
	 -0.010846  -0.009419   0.021785,
	 -0.017209  -0.018849   0.018073,
	 -0.014843  -0.014776   0.022166,
	 -0.017752  -0.011493   0.026513,
	 -0.023794  -0.014943   0.003907,
	  0.017263   0.001426  -0.011558,
	  0.017821   0.002058   0.000000,
	  0.017263   0.001426   0.011558,
	  0.011802  -0.000529  -0.019617,
	  0.005381  -0.002901  -0.022482,
	 -0.017992  -0.000632  -0.008814,
	 -0.018404  -0.002819  -0.011508,
	 -0.016018  -0.001214   0.000000,
	 -0.017992  -0.000632   0.008814,
	 -0.018404  -0.002819   0.011508,
	 -0.012916  -0.004706  -0.021049,
	 -0.004170  -0.003635  -0.023575,
	 -0.019915  -0.005098  -0.021103,
	 -0.025190  -0.015849  -0.018180,
	 -0.027829  -0.011354  -0.024478,
	 -0.021332  -0.017520  -0.026187,
	 -0.018708  -0.022499  -0.011124,
	 -0.022820  -0.015237  -0.030642,
	 -0.021925  -0.011504  -0.033706,
	 -0.021288  -0.027682  -0.005383,
	 -0.023796  -0.016642   0.000000,
	 -0.033197  -0.015408   0.000000,
	 -0.027199  -0.008494  -0.008137,
	  0.011802  -0.000529   0.019617,
	  0.005381  -0.002901   0.022482,
	 -0.004170  -0.003635   0.023575,
	 -0.012916  -0.004706   0.021049,
	 -0.019915  -0.005098   0.021103,
	 -0.027829  -0.011354   0.024478,
	 -0.025190  -0.015849   0.018180,
	 -0.021332  -0.017520   0.026187,
	 -0.018708  -0.022499   0.011124,
	 -0.021925  -0.011504   0.033706,
	 -0.022820  -0.015237   0.030642,
	 -0.021288  -0.027682   0.005383,
	 -0.027199  -0.008494   0.008137,
	  0.015820   0.006578  -0.011770,
	  0.016647   0.007087   0.000000,
	  0.015820   0.006578   0.011770,
	  0.010515   0.004919  -0.019887,
	  0.003047   0.003150  -0.023569,
	 -0.006463   0.000086  -0.023722,
	 -0.020022  -0.002945  -0.014901,
	 -0.027513   0.002315  -0.016914,
	 -0.026806  -0.000739  -0.010620,
	  0.000315   0.002937   0.000000,
	 -0.015853  -0.000641  -0.018094,
	 -0.027513   0.002315   0.016914,
	 -0.020022  -0.002945   0.014901,
	 -0.026806  -0.000739   0.010620,
	 -0.015853  -0.000641   0.018094,
	 -0.025320  -0.005723  -0.030079,
	 -0.024808  -0.001931  -0.019454,
	 -0.027058  -0.023880  -0.016372,
	 -0.031472  -0.026658  -0.013371,
	 -0.033717  -0.010800  -0.022325,
	 -0.034009  -0.012355  -0.014991,
	 -0.031429  -0.013472  -0.013403,
	 -0.035001  -0.000981  -0.020599,
	 -0.028705  -0.004579  -0.022512,
	 -0.018521  -0.029779  -0.012680,
	 -0.030609  -0.031241  -0.018044,
	 -0.027441  -0.014862  -0.034004,
	 -0.026091  -0.011984  -0.037289,
	 -0.029754  -0.006984  -0.034481,
	 -0.020559  -0.033570  -0.007068,
	 -0.024758  -0.027206   0.000000,
	 -0.033732  -0.019704  -0.005219,
	 -0.041779  -0.025486   0.000000,
	 -0.029408  -0.020045  -0.008762,
	 -0.030104  -0.015093  -0.010989,
	 -0.033732  -0.019704   0.005219,
	 -0.029408  -0.020045   0.008762,
	 -0.030104  -0.015093   0.010989,
	 -0.028444  -0.008141  -0.011991,
	  0.010515   0.004919   0.019887,
	  0.003047   0.003150   0.023569,
	 -0.006463   0.000086   0.023722,
	 -0.025320  -0.005723   0.030079,
	 -0.024808  -0.001931   0.019454,
	 -0.035001  -0.000981   0.020599,
	 -0.033717  -0.010800   0.022325,
	 -0.028705  -0.004579   0.022512,
	 -0.031472  -0.026658   0.013371,
	 -0.027058  -0.023880   0.016372,
	 -0.034009  -0.012355   0.014991,
	 -0.031429  -0.013472   0.013403,
	 -0.018521  -0.029779   0.012680,
	 -0.030609  -0.031241   0.018044,
	 -0.026091  -0.011984   0.037289,
	 -0.027441  -0.014862   0.034004,
	 -0.029754  -0.006984   0.034481,
	 -0.020559  -0.033570   0.007068,
	 -0.028444  -0.008141   0.011991,
	 -0.040431  -0.005819  -0.017263,
	 -0.032945  -0.006946  -0.014720,
	 -0.040431  -0.005819   0.017263,
	 -0.032945  -0.006946   0.014720,
	 -0.033016  -0.035577  -0.010267,
	 -0.033570  -0.030407  -0.010850,
	 -0.029445  -0.038728  -0.017789,
	 -0.031667  -0.024271  -0.009348,
	 -0.038235  -0.007090  -0.022833,
	 -0.039764  -0.010101  -0.017736,
	 -0.020778  -0.042595  -0.014090,
	 -0.022994  -0.036751  -0.005614,
	 -0.026673  -0.033710   0.000000,
	 -0.022994  -0.036751   0.005614,
	 -0.037113  -0.025366  -0.004406,
	 -0.039771  -0.030335  -0.004289,
	 -0.051005  -0.030809   0.000000,
	 -0.037113  -0.025366   0.004406,
	 -0.039771  -0.030335   0.004289,
	 -0.031667  -0.024271   0.009348,
	 -0.038235  -0.007090   0.022833,
	 -0.039764  -0.010101   0.017736,
	 -0.033570  -0.030407   0.010850,
	 -0.033016  -0.035577   0.010267,
	 -0.029445  -0.038728   0.017789,
	 -0.020778  -0.042595   0.014090,
	 -0.039260  -0.035248  -0.004478,
	 -0.028476  -0.037849  -0.008068,
	 -0.034138  -0.037484  -0.005253,
	 -0.033160  -0.043036   0.000000,
	 -0.028476  -0.037849   0.008068,
	 -0.034138  -0.037484   0.005253,
	 -0.052372  -0.036505   0.000000,
	 -0.039260  -0.035248   0.004478,
	 -0.042543  -0.039461  -0.004880,
	 -0.038751  -0.041349  -0.004897,
	 -0.039505  -0.045898  -0.003802,
	 -0.041319  -0.047018   0.000000,
	 -0.039505  -0.045898   0.003802,
	 -0.038750  -0.041349   0.004897,
	 -0.049549  -0.041450  -0.004941,
	 -0.050240  -0.043256   0.000000,
	 -0.049549  -0.041450   0.004941,
	 -0.042543  -0.039461   0.004880,
	 -0.047080  -0.045061  -0.005757,
	 -0.045714  -0.046945   0.000000,
	 -0.047080  -0.045061   0.005757,
     ]    } 
    coordIndex [ 
	     0,      1,      2, -1 
	     0,      3,      1, -1 
	     0,      4,      3, -1 
	     0,      5,      6, -1 
	     6,      7,      0, -1 
	     0,      7,      8, -1 
	     8,      4,      0, -1 
	     2,      9,      0, -1 
	     9,     10,      0, -1 
	    10,     11,      0, -1 
	    12,      5,      0, -1 
	     0,     13,     12, -1 
	    14,     13,      0, -1 
	     0,     11,     14, -1 
	     2,      1,     15, -1 
	    15,      1,      3, -1 
	    16,      2,     15, -1 
	    17,      9,      2, -1 
	    17,      2,     16, -1 
	    18,     15,      3, -1 
	    18,      3,      4, -1 
	    19,     18,      4, -1 
	    19,      4,      8, -1 
	    20,      6,      5, -1 
	    21,     20,      5, -1 
	     5,     12,     22, -1 
	     5,     22,     21, -1 
	     6,     20,      7, -1 
	     7,     23,     24, -1 
	     8,      7,     24, -1 
	    25,     23,      7, -1 
	    20,     25,      7, -1 
	    24,     19,      8, -1 
	    10,      9,     17, -1 
	    10,     17,     26, -1 
	    11,     10,     26, -1 
	    11,     26,     27, -1 
	    14,     11,     27, -1 
	    13,     22,     12, -1 
	    28,     29,     13, -1 
	    28,     13,     14, -1 
	    13,     29,     30, -1 
	    13,     30,     22, -1 
	    14,     27,     28, -1 
	    15,     31,     32, -1 
	    16,     15,     32, -1 
	    31,     15,     18, -1 
	    32,     17,     16, -1 
	    32,     33,     17, -1 
	    26,     17,     33, -1 
	    34,     31,     18, -1 
	    34,     18,     19, -1 
	    35,     34,     19, -1 
	    35,     19,     24, -1 
	    20,     21,     36, -1 
	    25,     20,     36, -1 
	    37,     36,     21, -1 
	    21,     38,     37, -1 
	    38,     21,     22, -1 
	    38,     22,     30, -1 
	    23,     39,     40, -1 
	    24,     23,     40, -1 
	    41,     23,     25, -1 
	    41,     39,     23, -1 
	    40,     35,     24, -1 
	    41,     25,     36, -1 
	    26,     33,     42, -1 
	    27,     26,     42, -1 
	    27,     42,     43, -1 
	    28,     27,     43, -1 
	    28,     43,     44, -1 
	    44,     29,     28, -1 
	    44,     45,     29, -1 
	    30,     29,     46, -1 
	    29,     45,     46, -1 
	    38,     30,     46, -1 
	    31,     47,     48, -1 
	    32,     31,     48, -1 
	    47,     31,     34, -1 
	    48,     33,     32, -1 
	    48,     49,     33, -1 
	    42,     33,     49, -1 
	    50,     47,     34, -1 
	    50,     34,     35, -1 
	    51,     50,     35, -1 
	    51,     35,     40, -1 
	    52,     36,     37, -1 
	    52,     53,     36, -1 
	    53,     41,     36, -1 
	    54,     52,     37, -1 
	    37,     38,     55, -1 
	    37,     55,     54, -1 
	    38,     56,     55, -1 
	    38,     46,     56, -1 
	    39,     57,     58, -1 
	    40,     39,     58, -1 
	    59,     39,     60, -1 
	    39,     59,     61, -1 
	    57,     39,     61, -1 
	    41,     60,     39, -1 
	    58,     51,     40, -1 
	    41,     62,     60, -1 
	    62,     41,     53, -1 
	    42,     49,     63, -1 
	    43,     42,     63, -1 
	    43,     63,     64, -1 
	    44,     43,     64, -1 
	    44,     64,     65, -1 
	    65,     45,     44, -1 
	    65,     66,     45, -1 
	    67,     45,     68, -1 
	    69,     68,     45, -1 
	    69,     45,     66, -1 
	    45,     67,     46, -1 
	    67,     70,     46, -1 
	    56,     46,     70, -1 
	    47,     71,     72, -1 
	    48,     47,     72, -1 
	    71,     47,     50, -1 
	    72,     49,     48, -1 
	    72,     73,     49, -1 
	    63,     49,     73, -1 
	    74,     71,     50, -1 
	    74,     50,     51, -1 
	    75,     74,     51, -1 
	    75,     51,     58, -1 
	    76,     52,     54, -1 
	    77,     53,     52, -1 
	    76,     77,     52, -1 
	    53,     77,     62, -1 
	    78,     76,     54, -1 
	    54,     55,     79, -1 
	    54,     79,     78, -1 
	    55,     56,     80, -1 
	    55,     80,     79, -1 
	    70,     80,     56, -1 
	    57,     81,     82, -1 
	    58,     57,     82, -1 
	    57,     61,     83, -1 
	    81,     57,     83, -1 
	    82,     75,     58, -1 
	    61,     59,     60, -1 
	    60,     84,     85, -1 
	    86,     60,     85, -1 
	    86,     61,     60, -1 
	    87,     84,     60, -1 
	    62,     87,     60, -1 
	    88,     89,     61, -1 
	    86,     88,     61, -1 
	    61,     89,     83, -1 
	    90,     62,     91, -1 
	    92,     91,     62, -1 
	    93,     92,     62, -1 
	    62,     90,     87, -1 
	    77,     93,     62, -1 
	    63,     73,     94, -1 
	    64,     63,     94, -1 
	    64,     94,     95, -1 
	    65,     64,     95, -1 
	    65,     95,     96, -1 
	    96,     66,     65, -1 
	    96,     97,     66, -1 
	    98,     69,     66, -1 
	    98,     66,     97, -1 
	    99,    100,     67, -1 
	    99,     67,    101, -1 
	    67,     68,     69, -1 
	    67,     69,    101, -1 
	    67,    100,    102, -1 
	    67,    102,     70, -1 
	    69,    103,    104, -1 
	    69,    104,    101, -1 
	    98,    103,     69, -1 
	    91,     70,    105, -1 
	    70,     91,     92, -1 
	    70,     92,    106, -1 
	   102,    105,     70, -1 
	    70,    106,     80, -1 
	    71,    107,    108, -1 
	    72,     71,    108, -1 
	   107,     71,     74, -1 
	   108,     73,     72, -1 
	   108,    109,     73, -1 
	    94,     73,    109, -1 
	   110,    107,     74, -1 
	    74,     75,    111, -1 
	   110,     74,    111, -1 
	    75,     82,    112, -1 
	   111,     75,    112, -1 
	    76,    113,    114, -1 
	   114,    115,     76, -1 
	   115,     93,     76, -1 
	    77,     76,     93, -1 
	   116,     76,     78, -1 
	   116,    117,     76, -1 
	    76,    117,    113, -1 
	    78,     79,    116, -1 
	   118,    119,     79, -1 
	    79,    120,    118, -1 
	    79,    106,    120, -1 
	   106,     79,     80, -1 
	    79,    121,    116, -1 
	   119,    121,     79, -1 
	    82,     81,    112, -1 
	    81,     83,    117, -1 
	    81,    117,    112, -1 
	    83,    113,    117, -1 
	    89,    122,     83, -1 
	   123,     83,    122, -1 
	   113,     83,    123, -1 
	    84,    124,    125, -1 
	    85,     84,    126, -1 
	    84,    127,    126, -1 
	    87,    124,     84, -1 
	   125,    128,     84, -1 
	   128,    127,     84, -1 
	    85,    126,    129, -1 
	   122,     86,     85, -1 
	   122,     85,    130, -1 
	   130,     85,    129, -1 
	   122,     88,     86, -1 
	   131,     87,     90, -1 
	    87,    131,    132, -1 
	   124,     87,    132, -1 
	    88,    133,    134, -1 
	    89,     88,    134, -1 
	    88,    135,    133, -1 
	   122,    135,     88, -1 
	    89,    134,    122, -1 
	   136,     90,    137, -1 
	   137,     90,     91, -1 
	   136,    131,     90, -1 
	    91,    105,    137, -1 
	    92,    138,    139, -1 
	   140,    138,     92, -1 
	   141,    140,     92, -1 
	    92,     93,    141, -1 
	   139,    142,     92, -1 
	    92,    142,    143, -1 
	    92,    143,    144, -1 
	   144,    106,     92, -1 
	    93,    145,    141, -1 
	   115,    145,     93, -1 
	    94,    109,    146, -1 
	   147,     95,     94, -1 
	   147,     94,    146, -1 
	   148,     96,     95, -1 
	   148,     95,    147, -1 
	   148,     97,     96, -1 
	   121,     98,     97, -1 
	   148,    121,     97, -1 
	   121,    119,     98, -1 
	    98,    149,    103, -1 
	   149,     98,    150, -1 
	   150,     98,    119, -1 
	   151,    152,     99, -1 
	   152,    100,     99, -1 
	    99,    101,    149, -1 
	   153,     99,    149, -1 
	   151,     99,    153, -1 
	   154,    155,    100, -1 
	   152,    156,    100, -1 
	   100,    155,    102, -1 
	   100,    157,    154, -1 
	   100,    156,    157, -1 
	   101,    104,    149, -1 
	   105,    102,    158, -1 
	   159,    158,    102, -1 
	   159,    102,    155, -1 
	   149,    160,    103, -1 
	   160,    104,    103, -1 
	   160,    161,    104, -1 
	   161,    162,    104, -1 
	   104,    162,    149, -1 
	   137,    105,    163, -1 
	   105,    158,    163, -1 
	   144,    164,    106, -1 
	   106,    164,    120, -1 
	   116,    107,    110, -1 
	   116,    108,    107, -1 
	   109,    108,    116, -1 
	   146,    109,    116, -1 
	   116,    110,    111, -1 
	   116,    111,    112, -1 
	   116,    112,    117, -1 
	   123,    114,    113, -1 
	   114,    123,    129, -1 
	   114,    129,    165, -1 
	   166,    114,    165, -1 
	   166,    145,    114, -1 
	   115,    114,    145, -1 
	   147,    146,    116, -1 
	   148,    147,    116, -1 
	   121,    148,    116, -1 
	   119,    118,    150, -1 
	   151,    150,    118, -1 
	   167,    151,    118, -1 
	   167,    118,    168, -1 
	   118,    164,    168, -1 
	   164,    118,    120, -1 
	   134,    135,    122, -1 
	   130,    123,    122, -1 
	   123,    130,    129, -1 
	   125,    124,    132, -1 
	   169,    170,    125, -1 
	   171,    169,    125, -1 
	   132,    171,    125, -1 
	   172,    125,    170, -1 
	   125,    172,    128, -1 
	   126,    173,    129, -1 
	   174,    173,    126, -1 
	   174,    126,    127, -1 
	   165,    174,    127, -1 
	   166,    165,    127, -1 
	   127,    128,    145, -1 
	   166,    127,    145, -1 
	   145,    128,    141, -1 
	   140,    128,    172, -1 
	   141,    128,    140, -1 
	   165,    129,    173, -1 
	   131,    175,    132, -1 
	   136,    175,    131, -1 
	   175,    171,    132, -1 
	   133,    135,    134, -1 
	   176,    136,    137, -1 
	   176,    175,    136, -1 
	   177,    176,    137, -1 
	   137,    163,    178, -1 
	   137,    178,    177, -1 
	   139,    138,    179, -1 
	   138,    140,    179, -1 
	   180,    181,    139, -1 
	   179,    180,    139, -1 
	   182,    142,    139, -1 
	   139,    181,    183, -1 
	   139,    183,    182, -1 
	   140,    172,    179, -1 
	   182,    143,    142, -1 
	   182,    184,    143, -1 
	   184,    157,    143, -1 
	   143,    157,    144, -1 
	   144,    157,    164, -1 
	   149,    162,    160, -1 
	   149,    150,    153, -1 
	   151,    153,    150, -1 
	   151,    185,    152, -1 
	   185,    151,    167, -1 
	   152,    185,    186, -1 
	   156,    152,    186, -1 
	   159,    155,    154, -1 
	   154,    187,    188, -1 
	   154,    188,    189, -1 
	   154,    189,    159, -1 
	   187,    154,    184, -1 
	   157,    184,    154, -1 
	   156,    186,    167, -1 
	   156,    167,    168, -1 
	   164,    157,    156, -1 
	   164,    156,    168, -1 
	   159,    190,    158, -1 
	   158,    190,    163, -1 
	   159,    189,    190, -1 
	   160,    162,    161, -1 
	   163,    190,    178, -1 
	   174,    165,    173, -1 
	   185,    167,    186, -1 
	   170,    169,    191, -1 
	   169,    192,    193, -1 
	   191,    169,    193, -1 
	   169,    171,    192, -1 
	   172,    170,    180, -1 
	   180,    170,    191, -1 
	   171,    175,    192, -1 
	   179,    172,    180, -1 
	   192,    175,    176, -1 
	   193,    192,    176, -1 
	   194,    193,    176, -1 
	   194,    176,    177, -1 
	   177,    178,    194, -1 
	   178,    190,    195, -1 
	   178,    195,    196, -1 
	   178,    196,    194, -1 
	   180,    191,    181, -1 
	   191,    197,    181, -1 
	   181,    197,    198, -1 
	   181,    198,    183, -1 
	   183,    184,    182, -1 
	   183,    187,    184, -1 
	   198,    187,    183, -1 
	   198,    188,    187, -1 
	   196,    195,    188, -1 
	   196,    188,    198, -1 
	   195,    189,    188, -1 
	   195,    190,    189, -1 
	   191,    199,    197, -1 
	   191,    193,    200, -1 
	   199,    191,    200, -1 
	   193,    194,    201, -1 
	   200,    193,    201, -1 
	   202,    201,    194, -1 
	   194,    203,    202, -1 
	   203,    194,    196, -1 
	   204,    196,    198, -1 
	   203,    196,    204, -1 
	   199,    205,    197, -1 
	   197,    205,    206, -1 
	   197,    207,    208, -1 
	   197,    208,    198, -1 
	   206,    207,    197, -1 
	   204,    198,    208, -1 
	   199,    200,    201, -1 
	   209,    199,    201, -1 
	   199,    209,    205, -1 
	   209,    201,    202, -1 
	   210,    209,    202, -1 
	   202,    203,    211, -1 
	   202,    211,    210, -1 
	   203,    204,    208, -1 
	   203,    208,    211, -1 
	   205,    209,    210, -1 
	   206,    205,    210, -1 
	   210,    207,    206, -1 
	   210,    211,    207, -1 
	   207,    211,    208, -1 
    ] 
   colorPerVertex FALSE 
    colorIndex [ 
	  1, 
	  1, 
	  1, 
	  1, 
	  1, 
	  1, 
	  1, 
	  1, 
	  1, 
	  1, 
	  1, 
	  1, 
	  1, 
	  1, 
	  1, 
	  1, 
	  1, 
	  1, 
	  1, 
	  1, 
	  1, 
	  1, 
	  1, 
	  1, 
	  1, 
	  1, 
	  1, 
	  1, 
	  1, 
	  1, 
	  1, 
	  1, 
	  1, 
	  1, 
	  1, 
	  1, 
	  1, 
	  1, 
	  1, 
	  1, 
	  1, 
	  1, 
	  1, 
	  1, 
	  1, 
	  1, 
	  1, 
	  1, 
	  1, 
	  1, 
	  1, 
	  1, 
	  1, 
	  1, 
	  1, 
	  1, 
	  1, 
	  1, 
	  1, 
	  1, 
	  1, 
	  1, 
	  1, 
	  1, 
	  1, 
	  1, 
	  1, 
	  1, 
	  1, 
	  1, 
	  1, 
	  1, 
	  1, 
	  1, 
	  1, 
	  1, 
	  1, 
	  1, 
	  1, 
	  1, 
	  1, 
	  1, 
	  1, 
	  1, 
	  1, 
	  1, 
	  1, 
	  1, 
	  1, 
	  1, 
	  1, 
	  1, 
	  1, 
	  1, 
	  1, 
	  1, 
	  1, 
	  1, 
	  1, 
	  1, 
	  1, 
	  1, 
	  1, 
	  1, 
	  1, 
	  1, 
	  1, 
	  1, 
	  1, 
	  1, 
	  1, 
	  1, 
	  1, 
	  1, 
	  1, 
	  1, 
	  1, 
	  1, 
	  1, 
	  1, 
	  1, 
	  1, 
	  1, 
	  1, 
	  1, 
	  1, 
	  1, 
	  1, 
	  1, 
	  1, 
	  1, 
	  1, 
	  1, 
	  1, 
	  1, 
	  1, 
	  1, 
	  1, 
	  1, 
	  1, 
	  1, 
	  1, 
	  1, 
	  1, 
	  1, 
	  1, 
	  1, 
	  1, 
	  1, 
	  1, 
	  1, 
	  1, 
	  1, 
	  1, 
	  1, 
	  1, 
	  1, 
	  1, 
	  1, 
	  1, 
	  1, 
	  1, 
	  1, 
	  1, 
	  1, 
	  1, 
	  1, 
	  1, 
	  1, 
	  1, 
	  1, 
	  1, 
	  1, 
	  1, 
	  1, 
	  1, 
	  1, 
	  1, 
	  1, 
	  1, 
	  1, 
	  1, 
	  1, 
	  1, 
	  1, 
	  1, 
	  1, 
	  1, 
	  1, 
	  1, 
	  1, 
	  1, 
	  1, 
	  1, 
	  1, 
	  1, 
	  1, 
	  1, 
	  1, 
	  1, 
	  1, 
	  1, 
	  1, 
	  1, 
	  1, 
	  1, 
	  1, 
	  1, 
	  1, 
	  1, 
	  1, 
	  1, 
    ] 
normal Normal { 
vector [ 
	  0.174016  -0.984743   0.000000,
	  0.561836  -0.800555  -0.208452,
	  0.797561  -0.603239   0.000000,
	  0.679997  -0.502414  -0.534026,
	  0.373165  -0.301553  -0.877390,
	 -0.836418  -0.548092   0.000000,
	 -0.611648  -0.790939   0.017372,
	 -0.833697  -0.475407  -0.280958,
	 -0.218555  -0.332870  -0.917296,
	  0.561836  -0.800555   0.208452,
	  0.679997  -0.502414   0.534026,
	  0.373165  -0.301553   0.877390,
	 -0.611648  -0.790939  -0.017372,
	 -0.833697  -0.475407   0.280958,
	 -0.218555  -0.332870   0.917296,
	  0.963404   0.083495  -0.254719,
	  0.999731   0.023183   0.000000,
	  0.963404   0.083495   0.254719,
	  0.549248   0.399444  -0.734010,
	  0.153705   0.355801  -0.921835,
	 -0.981306  -0.179022   0.070633,
	 -0.990435  -0.137983   0.000000,
	 -0.981306  -0.179022  -0.070633,
	 -0.785566  -0.236771  -0.571686,
	 -0.404613   0.240113  -0.882403,
	 -0.959627  -0.255013   0.118679,
	  0.549248   0.399444   0.734010,
	  0.153705   0.355801   0.921835,
	 -0.404612   0.240109   0.882404,
	 -0.785566  -0.236773   0.571685,
	 -0.959627  -0.255012  -0.118678,
	  0.859334   0.330368  -0.390387,
	  0.938408   0.345528   0.000000,
	  0.859334   0.330368   0.390387,
	  0.563921   0.248699  -0.787491,
	  0.175421   0.159353  -0.971511,
	 -0.919529  -0.288892   0.266474,
	 -0.941538  -0.336908   0.000000,
	 -0.919529  -0.288893  -0.266471,
	 -0.001662  -0.602402  -0.798191,
	 -0.084066  -0.081376  -0.993132,
	 -0.593585  -0.656961   0.464822,
	  0.563921   0.248699   0.787491,
	  0.175424   0.159351   0.971511,
	 -0.084070  -0.081374   0.993132,
	 -0.001668  -0.602400   0.798192,
	 -0.593584  -0.656965  -0.464818,
	  0.922138   0.061277  -0.381977,
	  0.988879   0.148725   0.000000,
	  0.922138   0.061277   0.381977,
	  0.599968  -0.107209  -0.792808,
	  0.272265  -0.212786  -0.938400,
	 -0.918374  -0.288880   0.270440,
	 -0.388391  -0.093077   0.916782,
	 -0.963286  -0.268477   0.000000,
	 -0.918374  -0.288880  -0.270440,
	 -0.388391  -0.093083  -0.916781,
	  0.141355   0.008922  -0.989919,
	  0.073038  -0.267547  -0.960773,
	  0.038211  -0.764065  -0.644007,
	  0.192127  -0.946223  -0.260287,
	  0.620545  -0.313287  -0.718871,
	  0.656839   0.321939   0.681849,
	  0.599968  -0.107209   0.792808,
	  0.272266  -0.212783   0.938400,
	  0.073034  -0.267542   0.960774,
	  0.141355   0.008922   0.989919,
	  0.192128  -0.946223   0.260286,
	  0.038211  -0.764065   0.644007,
	  0.620545  -0.313287   0.718871,
	  0.656840   0.321937  -0.681848,
	  0.944690   0.027643  -0.326797,
	  0.996829   0.079575   0.000000,
	  0.944690   0.027643   0.326797,
	  0.628127  -0.094688  -0.772328,
	  0.244191  -0.250669  -0.936769,
	 -0.600005   0.695850   0.394699,
	 -0.189953  -0.057622   0.980101,
	 -0.825665   0.564161   0.000000,
	 -0.600005   0.695850  -0.394699,
	 -0.189953  -0.057622  -0.980101,
	 -0.226348   0.167894  -0.959468,
	 -0.040436  -0.190645  -0.980826,
	  0.271179   0.740030  -0.615482,
	 -0.342411  -0.704756  -0.621348,
	 -0.579909  -0.446346  -0.681528,
	 -0.248871  -0.856556  -0.452079,
	  0.893550  -0.150443  -0.423008,
	  0.057293  -0.992638  -0.106710,
	  0.770156   0.186204  -0.610072,
	  0.914414   0.021949   0.404185,
	  0.884967   0.465655   0.000000,
	 -0.628171   0.778076   0.000000,
	 -0.477728   0.395149   0.784623,
	  0.628127  -0.094688   0.772328,
	  0.244191  -0.250669   0.936769,
	 -0.040436  -0.190645   0.980826,
	 -0.226348   0.167894   0.959468,
	  0.271179   0.740030   0.615482,
	 -0.579906  -0.446345   0.681531,
	 -0.342410  -0.704757   0.621348,
	 -0.248871  -0.856556   0.452079,
	  0.893550  -0.150443   0.423008,
	  0.770156   0.186204   0.610072,
	  0.057293  -0.992638   0.106710,
	  0.914414   0.021949  -0.404185,
	 -0.477728   0.395149  -0.784623,
	  0.584009   0.725993  -0.363136,
	  0.755709   0.654907   0.000000,
	  0.584009   0.725993   0.363136,
	  0.278736   0.786787  -0.550702,
	  0.110610   0.536849  -0.836396,
	 -0.231428   0.421118  -0.876984,
	  0.112823   0.912917  -0.392243,
	 -0.188382   0.961212   0.201457,
	 -0.671548   0.465912   0.576151,
	 -0.225048   0.974348   0.000000,
	 -0.382062   0.827156  -0.412118,
	 -0.188382   0.961212  -0.201457,
	  0.112823   0.912917   0.392243,
	 -0.671548   0.465912  -0.576151,
	 -0.382062   0.827156   0.412118,
	 -0.378507   0.691345  -0.615447,
	  0.253790   0.807915  -0.531849,
	 -0.042378   0.006378  -0.999081,
	 -0.857277   0.059621  -0.511392,
	 -0.317427  -0.636368  -0.703048,
	 -0.569519  -0.551659   0.609361,
	 -0.934799  -0.039785   0.352942,
	 -0.207319   0.562073  -0.800683,
	 -0.391576   0.549165  -0.738300,
	  0.971217   0.000315  -0.238197,
	  0.013346   0.118431  -0.992873,
	 -0.657158  -0.729912  -0.188073,
	  0.318767  -0.107570  -0.941709,
	 -0.977121   0.033107   0.210093,
	  0.870087  -0.178174   0.459567,
	  0.982202  -0.187828   0.000000,
	 -0.610340   0.482894  -0.627932,
	 -0.795635   0.605776   0.000000,
	 -0.911888   0.346820  -0.219489,
	 -0.956805   0.196196   0.214551,
	 -0.610340   0.482894   0.627932,
	 -0.911888   0.346820   0.219489,
	 -0.956805   0.196196  -0.214551,
	 -0.763550   0.213427   0.609459,
	  0.278736   0.786787   0.550702,
	  0.110610   0.536849   0.836396,
	 -0.231428   0.421118   0.876984,
	 -0.378507   0.691345   0.615447,
	  0.253790   0.807915   0.531849,
	 -0.207318   0.562075   0.800682,
	 -0.317428  -0.636365   0.703050,
	 -0.391576   0.549165   0.738300,
	 -0.857277   0.059621   0.511392,
	 -0.042378   0.006378   0.999081,
	 -0.569519  -0.551659  -0.609361,
	 -0.934799  -0.039785  -0.352942,
	  0.971217   0.000315   0.238197,
	  0.013346   0.118431   0.992873,
	  0.318767  -0.107570   0.941709,
	 -0.657158  -0.729912   0.188073,
	 -0.977121   0.033107  -0.210093,
	  0.870087  -0.178174  -0.459567,
	 -0.763550   0.213427  -0.609459,
	 -0.767856   0.341497   0.542013,
	 -0.374000   0.218005   0.901442,
	 -0.767856   0.341497  -0.542013,
	 -0.374000   0.218005  -0.901442,
	 -0.659159  -0.558722  -0.503329,
	 -0.762428   0.074055  -0.642821,
	 -0.744464  -0.571656  -0.344939,
	 -0.890778   0.341693  -0.299600,
	 -0.644009  -0.014667  -0.764877,
	 -0.751306  -0.654777  -0.082499,
	  0.663802  -0.732477  -0.151145,
	  0.540613  -0.702977   0.462126,
	  0.902857  -0.429940   0.000000,
	  0.540613  -0.702977  -0.462126,
	 -0.648734   0.331897  -0.684827,
	 -0.590620   0.268100  -0.761111,
	 -0.847440   0.530891   0.000000,
	 -0.648734   0.331897   0.684827,
	 -0.590620   0.268100   0.761111,
	 -0.890778   0.341693   0.299600,
	 -0.644013  -0.014663   0.764874,
	 -0.751309  -0.654775   0.082497,
	 -0.762428   0.074055   0.642821,
	 -0.659159  -0.558722   0.503329,
	 -0.744464  -0.571656   0.344939,
	  0.663802  -0.732477   0.151145,
	 -0.407611  -0.065070  -0.910834,
	 -0.259381  -0.954564   0.146726,
	  0.006776  -0.724665  -0.689068,
	  0.557572  -0.830129   0.000000,
	 -0.259381  -0.954564  -0.146726,
	  0.006777  -0.724666   0.689067,
	 -0.915922   0.401357  -0.000002,
	 -0.407609  -0.065067   0.910836,
	 -0.069197   0.174937  -0.982145,
	 -0.017087  -0.086456  -0.996109,
	  0.256827  -0.573484  -0.777918,
	  0.138749  -0.990328   0.000000,
	  0.256832  -0.573486   0.777914,
	 -0.017072  -0.086458   0.996109,
	 -0.727419  -0.213030  -0.652288,
	 -0.830380  -0.557198   0.000000,
	 -0.727421  -0.213032   0.652285,
	 -0.069191   0.174936   0.982146,
	 -0.190828  -0.663138  -0.723763,
	 -0.538043  -0.842917   0.000000,
	 -0.190831  -0.663141   0.723760,
     ]    } 
normalIndex      [ 
	     0,      1,      2, -1 
	     0,      3,      1, -1 
	     0,      4,      3, -1 
	     0,      5,      6, -1 
	     6,      7,      0, -1 
	     0,      7,      8, -1 
	     8,      4,      0, -1 
	     2,      9,      0, -1 
	     9,     10,      0, -1 
	    10,     11,      0, -1 
	    12,      5,      0, -1 
	     0,     13,     12, -1 
	    14,     13,      0, -1 
	     0,     11,     14, -1 
	     2,      1,     15, -1 
	    15,      1,      3, -1 
	    16,      2,     15, -1 
	    17,      9,      2, -1 
	    17,      2,     16, -1 
	    18,     15,      3, -1 
	    18,      3,      4, -1 
	    19,     18,      4, -1 
	    19,      4,      8, -1 
	    20,      6,      5, -1 
	    21,     20,      5, -1 
	     5,     12,     22, -1 
	     5,     22,     21, -1 
	     6,     20,      7, -1 
	     7,     23,     24, -1 
	     8,      7,     24, -1 
	    25,     23,      7, -1 
	    20,     25,      7, -1 
	    24,     19,      8, -1 
	    10,      9,     17, -1 
	    10,     17,     26, -1 
	    11,     10,     26, -1 
	    11,     26,     27, -1 
	    14,     11,     27, -1 
	    13,     22,     12, -1 
	    28,     29,     13, -1 
	    28,     13,     14, -1 
	    13,     29,     30, -1 
	    13,     30,     22, -1 
	    14,     27,     28, -1 
	    15,     31,     32, -1 
	    16,     15,     32, -1 
	    31,     15,     18, -1 
	    32,     17,     16, -1 
	    32,     33,     17, -1 
	    26,     17,     33, -1 
	    34,     31,     18, -1 
	    34,     18,     19, -1 
	    35,     34,     19, -1 
	    35,     19,     24, -1 
	    20,     21,     36, -1 
	    25,     20,     36, -1 
	    37,     36,     21, -1 
	    21,     38,     37, -1 
	    38,     21,     22, -1 
	    38,     22,     30, -1 
	    23,     39,     40, -1 
	    24,     23,     40, -1 
	    41,     23,     25, -1 
	    41,     39,     23, -1 
	    40,     35,     24, -1 
	    41,     25,     36, -1 
	    26,     33,     42, -1 
	    27,     26,     42, -1 
	    27,     42,     43, -1 
	    28,     27,     43, -1 
	    28,     43,     44, -1 
	    44,     29,     28, -1 
	    44,     45,     29, -1 
	    30,     29,     46, -1 
	    29,     45,     46, -1 
	    38,     30,     46, -1 
	    31,     47,     48, -1 
	    32,     31,     48, -1 
	    47,     31,     34, -1 
	    48,     33,     32, -1 
	    48,     49,     33, -1 
	    42,     33,     49, -1 
	    50,     47,     34, -1 
	    50,     34,     35, -1 
	    51,     50,     35, -1 
	    51,     35,     40, -1 
	    52,     36,     37, -1 
	    52,     53,     36, -1 
	    53,     41,     36, -1 
	    54,     52,     37, -1 
	    37,     38,     55, -1 
	    37,     55,     54, -1 
	    38,     56,     55, -1 
	    38,     46,     56, -1 
	    39,     57,     58, -1 
	    40,     39,     58, -1 
	    59,     39,     60, -1 
	    39,     59,     61, -1 
	    57,     39,     61, -1 
	    41,     60,     39, -1 
	    58,     51,     40, -1 
	    41,     62,     60, -1 
	    62,     41,     53, -1 
	    42,     49,     63, -1 
	    43,     42,     63, -1 
	    43,     63,     64, -1 
	    44,     43,     64, -1 
	    44,     64,     65, -1 
	    65,     45,     44, -1 
	    65,     66,     45, -1 
	    67,     45,     68, -1 
	    69,     68,     45, -1 
	    69,     45,     66, -1 
	    45,     67,     46, -1 
	    67,     70,     46, -1 
	    56,     46,     70, -1 
	    47,     71,     72, -1 
	    48,     47,     72, -1 
	    71,     47,     50, -1 
	    72,     49,     48, -1 
	    72,     73,     49, -1 
	    63,     49,     73, -1 
	    74,     71,     50, -1 
	    74,     50,     51, -1 
	    75,     74,     51, -1 
	    75,     51,     58, -1 
	    76,     52,     54, -1 
	    77,     53,     52, -1 
	    76,     77,     52, -1 
	    53,     77,     62, -1 
	    78,     76,     54, -1 
	    54,     55,     79, -1 
	    54,     79,     78, -1 
	    55,     56,     80, -1 
	    55,     80,     79, -1 
	    70,     80,     56, -1 
	    57,     81,     82, -1 
	    58,     57,     82, -1 
	    57,     61,     83, -1 
	    81,     57,     83, -1 
	    82,     75,     58, -1 
	    61,     59,     60, -1 
	    60,     84,     85, -1 
	    86,     60,     85, -1 
	    86,     61,     60, -1 
	    87,     84,     60, -1 
	    62,     87,     60, -1 
	    88,     89,     61, -1 
	    86,     88,     61, -1 
	    61,     89,     83, -1 
	    90,     62,     91, -1 
	    92,     91,     62, -1 
	    93,     92,     62, -1 
	    62,     90,     87, -1 
	    77,     93,     62, -1 
	    63,     73,     94, -1 
	    64,     63,     94, -1 
	    64,     94,     95, -1 
	    65,     64,     95, -1 
	    65,     95,     96, -1 
	    96,     66,     65, -1 
	    96,     97,     66, -1 
	    98,     69,     66, -1 
	    98,     66,     97, -1 
	    99,    100,     67, -1 
	    99,     67,    101, -1 
	    67,     68,     69, -1 
	    67,     69,    101, -1 
	    67,    100,    102, -1 
	    67,    102,     70, -1 
	    69,    103,    104, -1 
	    69,    104,    101, -1 
	    98,    103,     69, -1 
	    91,     70,    105, -1 
	    70,     91,     92, -1 
	    70,     92,    106, -1 
	   102,    105,     70, -1 
	    70,    106,     80, -1 
	    71,    107,    108, -1 
	    72,     71,    108, -1 
	   107,     71,     74, -1 
	   108,     73,     72, -1 
	   108,    109,     73, -1 
	    94,     73,    109, -1 
	   110,    107,     74, -1 
	    74,     75,    111, -1 
	   110,     74,    111, -1 
	    75,     82,    112, -1 
	   111,     75,    112, -1 
	    76,    113,    114, -1 
	   114,    115,     76, -1 
	   115,     93,     76, -1 
	    77,     76,     93, -1 
	   116,     76,     78, -1 
	   116,    117,     76, -1 
	    76,    117,    113, -1 
	    78,     79,    116, -1 
	   118,    119,     79, -1 
	    79,    120,    118, -1 
	    79,    106,    120, -1 
	   106,     79,     80, -1 
	    79,    121,    116, -1 
	   119,    121,     79, -1 
	    82,     81,    112, -1 
	    81,     83,    117, -1 
	    81,    117,    112, -1 
	    83,    113,    117, -1 
	    89,    122,     83, -1 
	   123,     83,    122, -1 
	   113,     83,    123, -1 
	    84,    124,    125, -1 
	    85,     84,    126, -1 
	    84,    127,    126, -1 
	    87,    124,     84, -1 
	   125,    128,     84, -1 
	   128,    127,     84, -1 
	    85,    126,    129, -1 
	   122,     86,     85, -1 
	   122,     85,    130, -1 
	   130,     85,    129, -1 
	   122,     88,     86, -1 
	   131,     87,     90, -1 
	    87,    131,    132, -1 
	   124,     87,    132, -1 
	    88,    133,    134, -1 
	    89,     88,    134, -1 
	    88,    135,    133, -1 
	   122,    135,     88, -1 
	    89,    134,    122, -1 
	   136,     90,    137, -1 
	   137,     90,     91, -1 
	   136,    131,     90, -1 
	    91,    105,    137, -1 
	    92,    138,    139, -1 
	   140,    138,     92, -1 
	   141,    140,     92, -1 
	    92,     93,    141, -1 
	   139,    142,     92, -1 
	    92,    142,    143, -1 
	    92,    143,    144, -1 
	   144,    106,     92, -1 
	    93,    145,    141, -1 
	   115,    145,     93, -1 
	    94,    109,    146, -1 
	   147,     95,     94, -1 
	   147,     94,    146, -1 
	   148,     96,     95, -1 
	   148,     95,    147, -1 
	   148,     97,     96, -1 
	   121,     98,     97, -1 
	   148,    121,     97, -1 
	   121,    119,     98, -1 
	    98,    149,    103, -1 
	   149,     98,    150, -1 
	   150,     98,    119, -1 
	   151,    152,     99, -1 
	   152,    100,     99, -1 
	    99,    101,    149, -1 
	   153,     99,    149, -1 
	   151,     99,    153, -1 
	   154,    155,    100, -1 
	   152,    156,    100, -1 
	   100,    155,    102, -1 
	   100,    157,    154, -1 
	   100,    156,    157, -1 
	   101,    104,    149, -1 
	   105,    102,    158, -1 
	   159,    158,    102, -1 
	   159,    102,    155, -1 
	   149,    160,    103, -1 
	   160,    104,    103, -1 
	   160,    161,    104, -1 
	   161,    162,    104, -1 
	   104,    162,    149, -1 
	   137,    105,    163, -1 
	   105,    158,    163, -1 
	   144,    164,    106, -1 
	   106,    164,    120, -1 
	   116,    107,    110, -1 
	   116,    108,    107, -1 
	   109,    108,    116, -1 
	   146,    109,    116, -1 
	   116,    110,    111, -1 
	   116,    111,    112, -1 
	   116,    112,    117, -1 
	   123,    114,    113, -1 
	   114,    123,    129, -1 
	   114,    129,    165, -1 
	   166,    114,    165, -1 
	   166,    145,    114, -1 
	   115,    114,    145, -1 
	   147,    146,    116, -1 
	   148,    147,    116, -1 
	   121,    148,    116, -1 
	   119,    118,    150, -1 
	   151,    150,    118, -1 
	   167,    151,    118, -1 
	   167,    118,    168, -1 
	   118,    164,    168, -1 
	   164,    118,    120, -1 
	   134,    135,    122, -1 
	   130,    123,    122, -1 
	   123,    130,    129, -1 
	   125,    124,    132, -1 
	   169,    170,    125, -1 
	   171,    169,    125, -1 
	   132,    171,    125, -1 
	   172,    125,    170, -1 
	   125,    172,    128, -1 
	   126,    173,    129, -1 
	   174,    173,    126, -1 
	   174,    126,    127, -1 
	   165,    174,    127, -1 
	   166,    165,    127, -1 
	   127,    128,    145, -1 
	   166,    127,    145, -1 
	   145,    128,    141, -1 
	   140,    128,    172, -1 
	   141,    128,    140, -1 
	   165,    129,    173, -1 
	   131,    175,    132, -1 
	   136,    175,    131, -1 
	   175,    171,    132, -1 
	   133,    135,    134, -1 
	   176,    136,    137, -1 
	   176,    175,    136, -1 
	   177,    176,    137, -1 
	   137,    163,    178, -1 
	   137,    178,    177, -1 
	   139,    138,    179, -1 
	   138,    140,    179, -1 
	   180,    181,    139, -1 
	   179,    180,    139, -1 
	   182,    142,    139, -1 
	   139,    181,    183, -1 
	   139,    183,    182, -1 
	   140,    172,    179, -1 
	   182,    143,    142, -1 
	   182,    184,    143, -1 
	   184,    157,    143, -1 
	   143,    157,    144, -1 
	   144,    157,    164, -1 
	   149,    162,    160, -1 
	   149,    150,    153, -1 
	   151,    153,    150, -1 
	   151,    185,    152, -1 
	   185,    151,    167, -1 
	   152,    185,    186, -1 
	   156,    152,    186, -1 
	   159,    155,    154, -1 
	   154,    187,    188, -1 
	   154,    188,    189, -1 
	   154,    189,    159, -1 
	   187,    154,    184, -1 
	   157,    184,    154, -1 
	   156,    186,    167, -1 
	   156,    167,    168, -1 
	   164,    157,    156, -1 
	   164,    156,    168, -1 
	   159,    190,    158, -1 
	   158,    190,    163, -1 
	   159,    189,    190, -1 
	   160,    162,    161, -1 
	   163,    190,    178, -1 
	   174,    165,    173, -1 
	   185,    167,    186, -1 
	   170,    169,    191, -1 
	   169,    192,    193, -1 
	   191,    169,    193, -1 
	   169,    171,    192, -1 
	   172,    170,    180, -1 
	   180,    170,    191, -1 
	   171,    175,    192, -1 
	   179,    172,    180, -1 
	   192,    175,    176, -1 
	   193,    192,    176, -1 
	   194,    193,    176, -1 
	   194,    176,    177, -1 
	   177,    178,    194, -1 
	   178,    190,    195, -1 
	   178,    195,    196, -1 
	   178,    196,    194, -1 
	   180,    191,    181, -1 
	   191,    197,    181, -1 
	   181,    197,    198, -1 
	   181,    198,    183, -1 
	   183,    184,    182, -1 
	   183,    187,    184, -1 
	   198,    187,    183, -1 
	   198,    188,    187, -1 
	   196,    195,    188, -1 
	   196,    188,    198, -1 
	   195,    189,    188, -1 
	   195,    190,    189, -1 
	   191,    199,    197, -1 
	   191,    193,    200, -1 
	   199,    191,    200, -1 
	   193,    194,    201, -1 
	   200,    193,    201, -1 
	   202,    201,    194, -1 
	   194,    203,    202, -1 
	   203,    194,    196, -1 
	   204,    196,    198, -1 
	   203,    196,    204, -1 
	   199,    205,    197, -1 
	   197,    205,    206, -1 
	   197,    207,    208, -1 
	   197,    208,    198, -1 
	   206,    207,    197, -1 
	   204,    198,    208, -1 
	   199,    200,    201, -1 
	   209,    199,    201, -1 
	   199,    209,    205, -1 
	   209,    201,    202, -1 
	   210,    209,    202, -1 
	   202,    203,    211, -1 
	   202,    211,    210, -1 
	   203,    204,    208, -1 
	   203,    208,    211, -1 
	   205,    209,    210, -1 
	   206,    205,    210, -1 
	   210,    207,    206, -1 
	   210,    211,    207, -1 
	   207,    211,    208, -1 
    ] 
normalPerVertex  TRUE 
   } 
  } 
 ] 
} 
