# 
# Wavefront OBJ file
# Converted by the DEEP Exploration 2.00.1211
# Right Hemisphere, LTD
# http://www.righthemisphere.com/
# 
mtllib lumbar4.mtl
# object Object #0
g Object__0
v 0.005778 0.007432 0
v 0.021715 0.008915 -0.009271
v 0.019169 0.005108 0
v 0.016647 0.009246 -0.018973
v 0.007752 0.008847 -0.023697
v -0.012219 0.009779 0
v -0.01212 0.00939 -0.005568
v -0.012501 0.009773 -0.016493
v -0.006859 0.010987 -0.023835
v 0.021715 0.008915 0.009271
v 0.016647 0.009246 0.018973
v 0.007752 0.008847 0.023697
v -0.01212 0.00939 0.005568
v -0.012501 0.009773 0.016493
v -0.006859 0.010987 0.023835
v 0.022457 0.010096 -0.011135
v 0.022354 0.010835 0
v 0.022457 0.010096 0.011135
v 0.0151 0.012354 -0.018324
v 0.006564 0.015008 -0.022277
v -0.011674 0.015489 -0.005208
v -0.01164 0.015334 0
v -0.011674 0.015489 0.005208
v -0.011655 0.017426 -0.016841
v -0.005266 0.0141 -0.022444
v -0.01271 0.017162 -0.009944
v 0.0151 0.012354 0.018324
v 0.006564 0.015008 0.022277
v -0.005266 0.0141 0.022444
v -0.011655 0.017426 0.016841
v -0.01271 0.017162 0.009944
v 0.01944 0.016801 -0.010839
v 0.020897 0.016328 0
v 0.01944 0.016801 0.010839
v 0.01351 0.018064 -0.017864
v 0.006592 0.020091 -0.020258
v -0.011526 0.0227 -0.006689
v -0.01098 0.022754 0
v -0.011526 0.0227 0.006689
v -0.010229 0.021144 -0.020082
v -0.003983 0.021615 -0.021237
v -0.01358 0.023296 -0.01026
v 0.01351 0.018064 0.017864
v 0.006592 0.020091 0.020258
v -0.003983 0.021615 0.021237
v -0.010229 0.021144 0.020082
v -0.01358 0.023296 0.01026
v 0.019667 0.026676 -0.010455
v 0.021228 0.028041 0
v 0.019667 0.026676 0.010455
v 0.013184 0.027085 -0.01855
v 0.007734 0.027058 -0.020348
v -0.013475 0.029916 -0.006911
v -0.015661 0.030358 -0.010728
v -0.012671 0.030063 0
v -0.013475 0.029916 0.006911
v -0.015661 0.030358 0.010728
v -0.008762 0.028141 -0.021807
v -0.00349 0.027147 -0.021386
v -0.013818 0.023841 -0.022188
v -0.017001 0.020415 -0.018091
v -0.015995 0.027717 -0.02654
v -0.022666 0.025751 -0.003911
v 0.013184 0.027085 0.01855
v 0.007734 0.027058 0.020348
v -0.00349 0.027147 0.021386
v -0.008762 0.028141 0.021807
v -0.017001 0.020415 0.018091
v -0.013818 0.023841 0.022188
v -0.015995 0.027717 0.02654
v -0.022666 0.025751 0.003911
v 0.021185 0.03221 -0.01157
v 0.021867 0.032697 0
v 0.021185 0.03221 0.01157
v 0.015399 0.031567 -0.019637
v 0.00858 0.030741 -0.022504
v -0.013957 0.038367 -0.008823
v -0.014821 0.03633 -0.01152
v -0.012136 0.037343 0
v -0.013957 0.038367 0.008823
v -0.014821 0.03633 0.01152
v -0.009813 0.033217 -0.02107
v -0.000977 0.032237 -0.023599
v -0.016786 0.034456 -0.021124
v -0.02423 0.02519 -0.018198
v -0.025888 0.030186 -0.024502
v -0.020782 0.022666 -0.026213
v -0.019241 0.017201 -0.011135
v -0.021769 0.025238 -0.030672
v -0.020106 0.028672 -0.03374
v -0.022867 0.012743 -0.005388
v -0.023024 0.024094 0
v -0.032022 0.027475 0
v -0.024669 0.03283 -0.008145
v 0.015399 0.031567 0.019637
v 0.00858 0.030741 0.022504
v -0.000977 0.032237 0.023599
v -0.009813 0.033217 0.02107
v -0.016786 0.034456 0.021124
v -0.025888 0.030186 0.024502
v -0.02423 0.02519 0.018198
v -0.020782 0.022666 0.026213
v -0.019241 0.017201 0.011135
v -0.020106 0.028672 0.03374
v -0.021769 0.025238 0.030672
v -0.022867 0.012743 0.005388
v -0.024669 0.03283 0.008145
v 0.019346 0.037497 -0.011782
v 0.020267 0.037802 0
v 0.019346 0.037497 0.011782
v 0.015273 0.03718 -0.019907
v 0.007549 0.037184 -0.023593
v -0.002455 0.036398 -0.023745
v -0.01644 0.036581 -0.014915
v -0.022715 0.043448 -0.016931
v -0.022658 0.040305 -0.01063
v 0.004814 0.037609 0
v -0.011853 0.037863 -0.018112
v -0.022715 0.043448 0.016931
v -0.01644 0.036581 0.014915
v -0.022658 0.040305 0.01063
v -0.011853 0.037863 0.018112
v -0.022238 0.035098 -0.030109
v -0.02094 0.038679 -0.019473
v -0.027751 0.017788 -0.016388
v -0.032679 0.0161 -0.013384
v -0.031569 0.032091 -0.022347
v -0.032182 0.030641 -0.015006
v -0.029876 0.028954 -0.013416
v -0.030778 0.041967 -0.02062
v -0.025333 0.036998 -0.022534
v -0.020581 0.010056 -0.012693
v -0.032789 0.011429 -0.018062
v -0.02624 0.026674 -0.034038
v -0.024309 0.029169 -0.037326
v -0.026869 0.034895 -0.034516
v -0.023381 0.006829 -0.007075
v -0.026183 0.014011 0
v -0.033449 0.023408 -0.005224
v -0.042582 0.019631 0
v -0.029262 0.022073 -0.008771
v -0.028911 0.027066 -0.011001
v -0.033449 0.023408 0.005224
v -0.029262 0.022073 0.008771
v -0.028911 0.027066 0.011001
v -0.025821 0.033464 -0.012003
v 0.015273 0.03718 0.019907
v 0.007549 0.037184 0.023593
v -0.002455 0.036398 0.023745
v -0.022238 0.035098 0.030109
v -0.02094 0.038679 0.019473
v -0.030778 0.041967 0.02062
v -0.031569 0.032091 0.022347
v -0.025333 0.036998 0.022534
v -0.032679 0.0161 0.013384
v -0.027751 0.017788 0.016388
v -0.032182 0.030641 0.015006
v -0.029876 0.028954 0.013416
v -0.020581 0.010056 0.012693
v -0.032789 0.011429 0.018062
v -0.024309 0.029169 0.037326
v -0.02624 0.026674 0.034038
v -0.026869 0.034895 0.034516
v -0.023381 0.006829 0.007075
v -0.025821 0.033464 0.012003
v -0.037137 0.038505 -0.017281
v -0.030002 0.035671 -0.014735
v -0.037137 0.038505 0.017281
v -0.030002 0.035671 0.014735
v -0.036067 0.007757 -0.010277
v -0.035529 0.012929 -0.010861
v -0.03321 0.003856 -0.017807
v -0.032371 0.018474 -0.009358
v -0.035241 0.036757 -0.022856
v -0.037377 0.034174 -0.017753
v -0.025486 -0.001924 -0.014104
v -0.026444 0.004291 -0.00562
v -0.02943 0.008109 0
v -0.026444 0.004291 0.00562
v -0.037963 0.018667 -0.004411
v -0.04162 0.014435 -0.004293
v -0.05278 0.016575 0
v -0.037963 0.018667 0.004411
v -0.04162 0.014435 0.004293
v -0.032371 0.018474 0.009358
v -0.035241 0.036757 0.022856
v -0.037377 0.034174 0.017753
v -0.035529 0.012929 0.010861
v -0.036067 0.007757 0.010277
v -0.03321 0.003856 0.017807
v -0.025486 -0.001924 0.014104
v -0.042146 0.009524 -0.004482
v -0.032072 0.004489 -0.008077
v -0.037571 0.006157 -0.005259
v -0.03777 0.000514 0
v -0.032072 0.004489 0.008077
v -0.037571 0.006157 0.005259
v -0.055319 0.011335 0
v -0.042146 0.009524 0.004482
v -0.046261 0.006175 -0.004884
v -0.042921 0.003455 -0.004902
v -0.044617 -0.000808 -0.003805
v -0.046636 -0.001481 0
v -0.044617 -0.000808 0.003805
v -0.042921 0.003455 0.004902
v -0.053575 0.005857 -0.004946
v -0.054633 0.004256 0
v -0.053575 0.005857 0.004946
v -0.046261 0.006175 0.004884
v -0.0519 0.001762 -0.005763
v -0.05095 -0.000391 0
v -0.0519 0.001762 0.005763
# 212 verticies
vn -0.056348 -0.998411 0
vn 0.368894 -0.90571 -0.208822
vn 0.648433 -0.761272 0
vn 0.552321 -0.612731 -0.565246
vn 0.281054 -0.35219 -0.892732
vn -0.933967 -0.357359 0
vn -0.77024 -0.637522 0.017194
vn -0.915553 -0.287867 -0.280882
vn -0.290013 -0.276359 -0.916252
vn 0.368894 -0.90571 0.208822
vn 0.552321 -0.612731 0.565246
vn 0.281054 -0.35219 0.892732
vn -0.77024 -0.637522 -0.017194
vn -0.915554 -0.287863 0.280884
vn -0.290013 -0.276359 0.916252
vn 0.963664 -0.051477 -0.26211
vn 0.992327 -0.123641 0
vn 0.963664 -0.051477 0.26211
vn 0.598247 0.328313 -0.730966
vn 0.230014 0.315247 -0.920713
vn -0.997046 0.029321 0.070987
vn -0.997442 0.071475 0
vn -0.997046 0.029321 -0.070987
vn -0.817157 -0.067491 -0.572451
vn -0.338893 0.32013 -0.884686
vn -0.991647 -0.049696 0.119026
vn 0.598247 0.328313 0.730966
vn 0.230014 0.315247 0.920713
vn -0.338894 0.320132 0.884684
vn -0.817156 -0.067486 0.572452
vn -0.991648 -0.049688 -0.119017
vn 0.902403 0.172755 -0.394747
vn 0.975878 0.218316 0
vn 0.902403 0.172755 0.394747
vn 0.603301 0.125531 -0.787572
vn 0.206279 0.119055 -0.971223
vn -0.95941 -0.09101 0.266927
vn -0.991079 -0.133275 2e-006
vn -0.959411 -0.091007 -0.266924
vn -0.139934 -0.587442 -0.797076
vn -0.100492 -0.06171 -0.993022
vn -0.721962 -0.51599 0.461004
vn 0.603301 0.125531 0.787572
vn 0.206279 0.119055 0.971223
vn -0.100491 -0.061709 0.993022
vn -0.139932 -0.587444 0.797075
vn -0.72197 -0.515989 -0.460994
vn 0.913558 -0.133008 -0.384344
vn 0.998163 -0.060594 0
vn 0.913558 -0.133008 0.384344
vn 0.559445 -0.231047 -0.796014
vn 0.215195 -0.26522 -0.939867
vn -0.958102 -0.091189 0.271524
vn -0.398292 -0.009838 0.917206
vn -0.998072 -0.062075 5e-006
vn -0.958101 -0.091189 -0.271527
vn -0.398289 -0.009836 -0.917207
vn 0.138972 -0.021462 -0.990064
vn 0.00922 -0.27662 -0.960935
vn -0.138246 -0.753158 -0.64315
vn -0.027796 -0.965171 -0.260141
vn 0.532971 -0.440059 -0.722697
vn 0.710543 0.176616 0.681128
vn 0.559445 -0.231047 0.796014
vn 0.215195 -0.26522 0.939867
vn 0.009221 -0.276621 0.960935
vn 0.138973 -0.021461 0.990064
vn -0.027797 -0.965171 0.260141
vn -0.138245 -0.753156 0.643151
vn 0.532968 -0.440058 0.722699
vn 0.710542 0.176617 -0.681128
vn 0.938628 -0.037474 -0.342889
vn 0.999288 -0.037719 0
vn 0.938628 -0.037474 0.342889
vn 0.606107 -0.193813 -0.771408
vn 0.179264 -0.296297 -0.938122
vn -0.428085 0.810492 0.399806
vn -0.198152 -0.01908 0.979986
vn -0.681299 0.732005 0
vn -0.428087 0.810491 -0.399807
vn -0.198146 -0.019083 -0.979987
vn -0.181025 0.211328 -0.960505
vn -0.082918 -0.177759 -0.980575
vn 0.428269 0.66395 -0.61299
vn -0.48993 -0.612603 -0.620231
vn -0.662404 -0.312338 -0.68093
vn -0.427948 -0.782475 -0.45232
vn 0.840972 -0.334894 -0.424985
vn -0.16682 -0.979782 -0.110442
vn 0.790326 0.016629 -0.61246
vn 0.897232 -0.169965 0.407537
vn 0.963756 0.266786 0
vn -0.43775 0.899097 0
vn -0.378561 0.487685 0.786674
vn 0.606107 -0.193813 0.771408
vn 0.179264 -0.296297 0.938122
vn -0.082918 -0.177759 0.980575
vn -0.181025 0.211328 0.960505
vn 0.428267 0.663951 0.612989
vn -0.662404 -0.312338 0.68093
vn -0.48993 -0.612603 0.620231
vn -0.427951 -0.782475 0.452318
vn 0.840972 -0.334894 0.424985
vn 0.790324 0.016632 0.612464
vn -0.166824 -0.979782 0.110444
vn 0.897232 -0.169965 -0.407537
vn -0.378561 0.487685 -0.786674
vn 0.675603 0.671658 -0.304034
vn 0.757366 0.652991 0
vn 0.675603 0.671658 0.304034
vn 0.479174 0.715137 -0.508892
vn 0.22988 0.501022 -0.834346
vn -0.127814 0.460662 -0.878325
vn 0.312485 0.866258 -0.389807
vn 0.033342 0.978231 0.204823
vn -0.551492 0.599245 0.580313
vn 0.00717 0.999974 0
vn -0.181869 0.891923 -0.414001
vn 0.033342 0.978231 -0.204823
vn 0.312485 0.866258 0.389807
vn -0.551492 0.599245 -0.580313
vn -0.181869 0.891923 0.414001
vn -0.215403 0.756877 -0.617041
vn 0.427651 0.732908 -0.529113
vn -0.040058 0.015927 -0.99907
vn -0.823302 0.239078 -0.514796
vn -0.450757 -0.55167 -0.701768
vn -0.674576 -0.41563 0.610081
vn -0.920568 0.159454 0.356552
vn -0.073681 0.594481 -0.800727
vn -0.256203 0.620631 -0.741065
vn 0.949908 -0.204329 -0.236482
vn 0.037759 0.11389 -0.992776
vn -0.797632 -0.573309 -0.187351
vn 0.282812 -0.176308 -0.942832
vn -0.948107 0.234861 0.214323
vn 0.809767 -0.358745 0.464305
vn 0.919656 -0.392724 0
vn -0.48416 0.603814 -0.633244
vn -0.640455 0.767996 0
vn -0.814448 0.536052 -0.222089
vn -0.891988 0.396308 0.217479
vn -0.48416 0.603814 0.633244
vn -0.814448 0.536052 0.222089
vn -0.891988 0.396308 -0.217479
vn -0.69707 0.370676 0.613753
vn 0.479174 0.715137 0.508892
vn 0.22988 0.501022 0.834346
vn -0.127814 0.460662 0.878325
vn -0.215403 0.756877 0.617041
vn 0.427651 0.732908 0.529113
vn -0.073681 0.594481 0.800727
vn -0.450757 -0.55167 0.701768
vn -0.256203 0.620631 0.741065
vn -0.823305 0.239079 0.514791
vn -0.040058 0.015927 0.99907
vn -0.674576 -0.41563 -0.610081
vn -0.920568 0.159454 -0.356552
vn 0.949908 -0.204329 0.236482
vn 0.037759 0.11389 0.992776
vn 0.282812 -0.176308 0.942832
vn -0.797632 -0.573309 0.187351
vn -0.948107 0.234861 -0.214323
vn 0.809767 -0.358745 -0.464305
vn -0.69707 0.370676 -0.613753
vn -0.672859 0.500224 0.545011
vn -0.312795 0.291564 0.903963
vn -0.672859 0.500224 -0.545011
vn -0.312795 0.291564 -0.903963
vn -0.764068 -0.404386 -0.502666
vn -0.726208 0.233457 -0.646622
vn -0.849694 -0.397929 -0.345938
vn -0.794471 0.525871 -0.303769
vn -0.630319 0.123586 -0.766436
vn -0.87437 -0.47841 -0.081249
vn 0.486528 -0.860464 -0.151304
vn 0.367624 -0.803898 0.467548
vn 0.787043 -0.616898 0
vn 0.367624 -0.803898 -0.467548
vn -0.556097 0.462743 -0.690381
vn -0.513544 0.387333 -0.765667
vn -0.708563 0.705647 0
vn -0.556097 0.462743 0.690381
vn -0.513543 0.387331 0.765668
vn -0.794473 0.525868 0.303769
vn -0.630319 0.123586 0.766436
vn -0.87437 -0.47841 0.081249
vn -0.726212 0.233458 0.646617
vn -0.764073 -0.40438 0.502663
vn -0.849694 -0.397929 0.345938
vn 0.486528 -0.860464 0.151304
vn -0.409797 0.022081 -0.911909
vn -0.466432 -0.872415 0.146056
vn -0.1578 -0.707556 -0.688813
vn 0.353553 -0.935414 0
vn -0.466432 -0.872415 -0.146056
vn -0.1578 -0.707556 0.688813
vn -0.806784 0.590847 0
vn -0.409796 0.022083 0.91191
vn -0.026844 0.185489 -0.98228
vn -0.036375 -0.080912 -0.996057
vn 0.118171 -0.615436 -0.779278
vn -0.0921 -0.99575 0
vn 0.118171 -0.615436 0.779278
vn -0.036375 -0.080912 0.996057
vn -0.754139 -0.055617 -0.654356
vn -0.929307 -0.369307 0
vn -0.754139 -0.055617 0.654356
vn -0.026844 0.185489 0.98228
vn -0.335115 -0.604969 -0.722296
vn -0.708413 -0.705798 0
vn -0.335115 -0.604969 0.722296
# 212 normals
usemtl Material__1
f  1//1 2//2 3//3
f  1//1 4//4 2//2
f  1//1 5//5 4//4
f  1//1 6//6 7//7
f  7//7 8//8 1//1
f  1//1 8//8 9//9
f  9//9 5//5 1//1
f  3//3 10//10 1//1
f  10//10 11//11 1//1
f  11//11 12//12 1//1
f  13//13 6//6 1//1
f  1//1 14//14 13//13
f  15//15 14//14 1//1
f  1//1 12//12 15//15
f  3//3 2//2 16//16
f  16//16 2//2 4//4
f  17//17 3//3 16//16
f  18//18 10//10 3//3
f  18//18 3//3 17//17
f  19//19 16//16 4//4
f  19//19 4//4 5//5
f  20//20 19//19 5//5
f  20//20 5//5 9//9
f  21//21 7//7 6//6
f  22//22 21//21 6//6
f  6//6 13//13 23//23
f  6//6 23//23 22//22
f  7//7 21//21 8//8
f  8//8 24//24 25//25
f  9//9 8//8 25//25
f  26//26 24//24 8//8
f  21//21 26//26 8//8
f  25//25 20//20 9//9
f  11//11 10//10 18//18
f  11//11 18//18 27//27
f  12//12 11//11 27//27
f  12//12 27//27 28//28
f  15//15 12//12 28//28
f  14//14 23//23 13//13
f  29//29 30//30 14//14
f  29//29 14//14 15//15
f  14//14 30//30 31//31
f  14//14 31//31 23//23
f  15//15 28//28 29//29
f  16//16 32//32 33//33
f  17//17 16//16 33//33
f  32//32 16//16 19//19
f  33//33 18//18 17//17
f  33//33 34//34 18//18
f  27//27 18//18 34//34
f  35//35 32//32 19//19
f  35//35 19//19 20//20
f  36//36 35//35 20//20
f  36//36 20//20 25//25
f  21//21 22//22 37//37
f  26//26 21//21 37//37
f  38//38 37//37 22//22
f  22//22 39//39 38//38
f  39//39 22//22 23//23
f  39//39 23//23 31//31
f  24//24 40//40 41//41
f  25//25 24//24 41//41
f  42//42 24//24 26//26
f  42//42 40//40 24//24
f  41//41 36//36 25//25
f  42//42 26//26 37//37
f  27//27 34//34 43//43
f  28//28 27//27 43//43
f  28//28 43//43 44//44
f  29//29 28//28 44//44
f  29//29 44//44 45//45
f  45//45 30//30 29//29
f  45//45 46//46 30//30
f  31//31 30//30 47//47
f  30//30 46//46 47//47
f  39//39 31//31 47//47
f  32//32 48//48 49//49
f  33//33 32//32 49//49
f  48//48 32//32 35//35
f  49//49 34//34 33//33
f  49//49 50//50 34//34
f  43//43 34//34 50//50
f  51//51 48//48 35//35
f  51//51 35//35 36//36
f  52//52 51//51 36//36
f  52//52 36//36 41//41
f  53//53 37//37 38//38
f  53//53 54//54 37//37
f  54//54 42//42 37//37
f  55//55 53//53 38//38
f  38//38 39//39 56//56
f  38//38 56//56 55//55
f  39//39 57//57 56//56
f  39//39 47//47 57//57
f  40//40 58//58 59//59
f  41//41 40//40 59//59
f  60//60 40//40 61//61
f  40//40 60//60 62//62
f  58//58 40//40 62//62
f  42//42 61//61 40//40
f  59//59 52//52 41//41
f  42//42 63//63 61//61
f  63//63 42//42 54//54
f  43//43 50//50 64//64
f  44//44 43//43 64//64
f  44//44 64//64 65//65
f  45//45 44//44 65//65
f  45//45 65//65 66//66
f  66//66 46//46 45//45
f  66//66 67//67 46//46
f  68//68 46//46 69//69
f  70//70 69//69 46//46
f  70//70 46//46 67//67
f  46//46 68//68 47//47
f  68//68 71//71 47//47
f  57//57 47//47 71//71
f  48//48 72//72 73//73
f  49//49 48//48 73//73
f  72//72 48//48 51//51
f  73//73 50//50 49//49
f  73//73 74//74 50//50
f  64//64 50//50 74//74
f  75//75 72//72 51//51
f  75//75 51//51 52//52
f  76//76 75//75 52//52
f  76//76 52//52 59//59
f  77//77 53//53 55//55
f  78//78 54//54 53//53
f  77//77 78//78 53//53
f  54//54 78//78 63//63
f  79//79 77//77 55//55
f  55//55 56//56 80//80
f  55//55 80//80 79//79
f  56//56 57//57 81//81
f  56//56 81//81 80//80
f  71//71 81//81 57//57
f  58//58 82//82 83//83
f  59//59 58//58 83//83
f  58//58 62//62 84//84
f  82//82 58//58 84//84
f  83//83 76//76 59//59
f  62//62 60//60 61//61
f  61//61 85//85 86//86
f  87//87 61//61 86//86
f  87//87 62//62 61//61
f  88//88 85//85 61//61
f  63//63 88//88 61//61
f  89//89 90//90 62//62
f  87//87 89//89 62//62
f  62//62 90//90 84//84
f  91//91 63//63 92//92
f  93//93 92//92 63//63
f  94//94 93//93 63//63
f  63//63 91//91 88//88
f  78//78 94//94 63//63
f  64//64 74//74 95//95
f  65//65 64//64 95//95
f  65//65 95//95 96//96
f  66//66 65//65 96//96
f  66//66 96//96 97//97
f  97//97 67//67 66//66
f  97//97 98//98 67//67
f  99//99 70//70 67//67
f  99//99 67//67 98//98
f  100//100 101//101 68//68
f  100//100 68//68 102//102
f  68//68 69//69 70//70
f  68//68 70//70 102//102
f  68//68 101//101 103//103
f  68//68 103//103 71//71
f  70//70 104//104 105//105
f  70//70 105//105 102//102
f  99//99 104//104 70//70
f  92//92 71//71 106//106
f  71//71 92//92 93//93
f  71//71 93//93 107//107
f  103//103 106//106 71//71
f  71//71 107//107 81//81
f  72//72 108//108 109//109
f  73//73 72//72 109//109
f  108//108 72//72 75//75
f  109//109 74//74 73//73
f  109//109 110//110 74//74
f  95//95 74//74 110//110
f  111//111 108//108 75//75
f  75//75 76//76 112//112
f  111//111 75//75 112//112
f  76//76 83//83 113//113
f  112//112 76//76 113//113
f  77//77 114//114 115//115
f  115//115 116//116 77//77
f  116//116 94//94 77//77
f  78//78 77//77 94//94
f  117//117 77//77 79//79
f  117//117 118//118 77//77
f  77//77 118//118 114//114
f  79//79 80//80 117//117
f  119//119 120//120 80//80
f  80//80 121//121 119//119
f  80//80 107//107 121//121
f  107//107 80//80 81//81
f  80//80 122//122 117//117
f  120//120 122//122 80//80
f  83//83 82//82 113//113
f  82//82 84//84 118//118
f  82//82 118//118 113//113
f  84//84 114//114 118//118
f  90//90 123//123 84//84
f  124//124 84//84 123//123
f  114//114 84//84 124//124
f  85//85 125//125 126//126
f  86//86 85//85 127//127
f  85//85 128//128 127//127
f  88//88 125//125 85//85
f  126//126 129//129 85//85
f  129//129 128//128 85//85
f  86//86 127//127 130//130
f  123//123 87//87 86//86
f  123//123 86//86 131//131
f  131//131 86//86 130//130
f  123//123 89//89 87//87
f  132//132 88//88 91//91
f  88//88 132//132 133//133
f  125//125 88//88 133//133
f  89//89 134//134 135//135
f  90//90 89//89 135//135
f  89//89 136//136 134//134
f  123//123 136//136 89//89
f  90//90 135//135 123//123
f  137//137 91//91 138//138
f  138//138 91//91 92//92
f  137//137 132//132 91//91
f  92//92 106//106 138//138
f  93//93 139//139 140//140
f  141//141 139//139 93//93
f  142//142 141//141 93//93
f  93//93 94//94 142//142
f  140//140 143//143 93//93
f  93//93 143//143 144//144
f  93//93 144//144 145//145
f  145//145 107//107 93//93
f  94//94 146//146 142//142
f  116//116 146//146 94//94
f  95//95 110//110 147//147
f  148//148 96//96 95//95
f  148//148 95//95 147//147
f  149//149 97//97 96//96
f  149//149 96//96 148//148
f  149//149 98//98 97//97
f  122//122 99//99 98//98
f  149//149 122//122 98//98
f  122//122 120//120 99//99
f  99//99 150//150 104//104
f  150//150 99//99 151//151
f  151//151 99//99 120//120
f  152//152 153//153 100//100
f  153//153 101//101 100//100
f  100//100 102//102 150//150
f  154//154 100//100 150//150
f  152//152 100//100 154//154
f  155//155 156//156 101//101
f  153//153 157//157 101//101
f  101//101 156//156 103//103
f  101//101 158//158 155//155
f  101//101 157//157 158//158
f  102//102 105//105 150//150
f  106//106 103//103 159//159
f  160//160 159//159 103//103
f  160//160 103//103 156//156
f  150//150 161//161 104//104
f  161//161 105//105 104//104
f  161//161 162//162 105//105
f  162//162 163//163 105//105
f  105//105 163//163 150//150
f  138//138 106//106 164//164
f  106//106 159//159 164//164
f  145//145 165//165 107//107
f  107//107 165//165 121//121
f  117//117 108//108 111//111
f  117//117 109//109 108//108
f  110//110 109//109 117//117
f  147//147 110//110 117//117
f  117//117 111//111 112//112
f  117//117 112//112 113//113
f  117//117 113//113 118//118
f  124//124 115//115 114//114
f  115//115 124//124 130//130
f  115//115 130//130 166//166
f  167//167 115//115 166//166
f  167//167 146//146 115//115
f  116//116 115//115 146//146
f  148//148 147//147 117//117
f  149//149 148//148 117//117
f  122//122 149//149 117//117
f  120//120 119//119 151//151
f  152//152 151//151 119//119
f  168//168 152//152 119//119
f  168//168 119//119 169//169
f  119//119 165//165 169//169
f  165//165 119//119 121//121
f  135//135 136//136 123//123
f  131//131 124//124 123//123
f  124//124 131//131 130//130
f  126//126 125//125 133//133
f  170//170 171//171 126//126
f  172//172 170//170 126//126
f  133//133 172//172 126//126
f  173//173 126//126 171//171
f  126//126 173//173 129//129
f  127//127 174//174 130//130
f  175//175 174//174 127//127
f  175//175 127//127 128//128
f  166//166 175//175 128//128
f  167//167 166//166 128//128
f  128//128 129//129 146//146
f  167//167 128//128 146//146
f  146//146 129//129 142//142
f  141//141 129//129 173//173
f  142//142 129//129 141//141
f  166//166 130//130 174//174
f  132//132 176//176 133//133
f  137//137 176//176 132//132
f  176//176 172//172 133//133
f  134//134 136//136 135//135
f  177//177 137//137 138//138
f  177//177 176//176 137//137
f  178//178 177//177 138//138
f  138//138 164//164 179//179
f  138//138 179//179 178//178
f  140//140 139//139 180//180
f  139//139 141//141 180//180
f  181//181 182//182 140//140
f  180//180 181//181 140//140
f  183//183 143//143 140//140
f  140//140 182//182 184//184
f  140//140 184//184 183//183
f  141//141 173//173 180//180
f  183//183 144//144 143//143
f  183//183 185//185 144//144
f  185//185 158//158 144//144
f  144//144 158//158 145//145
f  145//145 158//158 165//165
f  150//150 163//163 161//161
f  150//150 151//151 154//154
f  152//152 154//154 151//151
f  152//152 186//186 153//153
f  186//186 152//152 168//168
f  153//153 186//186 187//187
f  157//157 153//153 187//187
f  160//160 156//156 155//155
f  155//155 188//188 189//189
f  155//155 189//189 190//190
f  155//155 190//190 160//160
f  188//188 155//155 185//185
f  158//158 185//185 155//155
f  157//157 187//187 168//168
f  157//157 168//168 169//169
f  165//165 158//158 157//157
f  165//165 157//157 169//169
f  160//160 191//191 159//159
f  159//159 191//191 164//164
f  160//160 190//190 191//191
f  161//161 163//163 162//162
f  164//164 191//191 179//179
f  175//175 166//166 174//174
f  186//186 168//168 187//187
f  171//171 170//170 192//192
f  170//170 193//193 194//194
f  192//192 170//170 194//194
f  170//170 172//172 193//193
f  173//173 171//171 181//181
f  181//181 171//171 192//192
f  172//172 176//176 193//193
f  180//180 173//173 181//181
f  193//193 176//176 177//177
f  194//194 193//193 177//177
f  195//195 194//194 177//177
f  195//195 177//177 178//178
f  178//178 179//179 195//195
f  179//179 191//191 196//196
f  179//179 196//196 197//197
f  179//179 197//197 195//195
f  181//181 192//192 182//182
f  192//192 198//198 182//182
f  182//182 198//198 199//199
f  182//182 199//199 184//184
f  184//184 185//185 183//183
f  184//184 188//188 185//185
f  199//199 188//188 184//184
f  199//199 189//189 188//188
f  197//197 196//196 189//189
f  197//197 189//189 199//199
f  196//196 190//190 189//189
f  196//196 191//191 190//190
f  192//192 200//200 198//198
f  192//192 194//194 201//201
f  200//200 192//192 201//201
f  194//194 195//195 202//202
f  201//201 194//194 202//202
f  203//203 202//202 195//195
f  195//195 204//204 203//203
f  204//204 195//195 197//197
f  205//205 197//197 199//199
f  204//204 197//197 205//205
f  200//200 206//206 198//198
f  198//198 206//206 207//207
f  198//198 208//208 209//209
f  198//198 209//209 199//199
f  207//207 208//208 198//198
f  205//205 199//199 209//209
f  200//200 201//201 202//202
f  210//210 200//200 202//202
f  200//200 210//210 206//206
f  210//210 202//202 203//203
f  211//211 210//210 203//203
f  203//203 204//204 212//212
f  203//203 212//212 211//211
f  204//204 205//205 209//209
f  204//204 209//209 212//212
f  206//206 210//210 211//211
f  207//207 206//206 211//211
f  211//211 208//208 207//207
f  211//211 212//212 208//208
f  208//208 212//212 209//209
