# 
# Wavefront OBJ file
# Converted by the DEEP Exploration 2.00.1211
# Right Hemisphere, LTD
# http://www.righthemisphere.com/
# 
mtllib lunate_l.mtl
# object Object #0
g Object__0
v 0.000867 -0.003635 0.012165
v -9.9e-005 -0.006316 0.005362
v 0.002602 -0.002676 0.005706
v 0.00268 -0.001475 0.009082
v -0.00936 -0.006808 0.009909
v -0.002364 -0.003356 0.018046
v -0.005442 -0.003785 0.013134
v 0.001575 -0.000491 0.001372
v 0.000235 -0.002883 -4.3e-005
v -0.012484 -0.00932 0.004495
v 0.002821 -0.000663 0.004136
v 0.002714 -0.000144 0.003614
v 0.002768 -0.000504 0.005373
v 0.002254 -0.000761 0.011719
v -0.011531 -0.00362 0.010419
v -0.010098 -0.002875 0.012352
v -0.002192 0.00054 0.01808
v -0.006957 -0.000601 0.010679
v -0.010554 -0.001282 0.012127
v 0.001186 0.001912 0.001156
v 0.002607 0.000375 0.003093
v -0.014539 -0.005345 0.001797
v -0.001057 0.002876 -4e-006
v -0.012865 -0.004807 0.00801
v 0.002751 0.000512 0.004432
v 0.002926 0.000467 0.006024
v 0.001696 0.000644 0.012598
v -0.012139 -0.002597 0.009506
v -0.000663 0.004132 0.012939
v -0.007461 0.00249 0.008703
v -0.011482 -0.000886 0.0103
v 0.000823 0.00409 0.003194
v 0.002521 0.001382 0.0032
v -0.013699 -0.000132 0.00521
v -0.01401 -0.004575 0.006135
v -0.00079 0.005758 0.004823
v 0.002984 0.00138 0.005786
v 0.002668 0.001805 0.004226
v 0.001878 0.002334 0.009149
v -0.013997 -0.001782 0.007511
v -0.012575 -0.000951 0.009191
v -0.008456 0.003832 0.005489
# 42 verticies
vn 0.56256 -0.75137 0.34492
vn 0.593047 -0.802069 -0.070574
vn 0.853313 -0.475056 -0.214891
vn 0.967079 -0.170192 0.189191
vn -0.170511 -0.776547 0.606549
vn 0.249588 -0.538511 0.804806
vn -0.220834 -0.379844 0.898304
vn 0.852147 -0.235206 -0.467465
vn 0.443499 -0.332225 -0.832427
vn -0.424731 -0.898774 0.10867
vn 0.982378 -0.106529 -0.153574
vn 0.906535 -0.211732 -0.365189
vn 0.999637 0.011377 0.024434
vn 0.945475 -0.068265 0.318461
vn -0.726896 -0.323139 0.605973
vn -0.572102 -0.233739 0.786171
vn 0.065869 0.399363 0.914423
vn -0.521734 0.486322 0.700917
vn -0.450568 0.435079 0.779548
vn 0.733692 0.259055 -0.628161
vn 0.935488 0.034356 -0.351685
vn -0.800471 -0.288547 -0.525344
vn 0.089693 0.570723 -0.816229
vn -0.808247 -0.379006 0.450656
vn 0.993504 0.027102 -0.110527
vn 0.998796 -0.026367 0.041369
vn 0.903191 0.261112 0.340687
vn -0.811359 -0.066956 0.580701
vn 0.228368 0.875636 0.42557
vn -0.496508 0.669741 0.552201
vn -0.534159 0.551945 0.640336
vn 0.699665 0.653149 -0.289596
vn 0.914081 0.260327 -0.310942
vn -0.761101 0.53473 -0.367136
vn -0.925167 -0.235007 0.298056
vn 0.222446 0.916559 -0.33232
vn 0.979098 0.201362 0.02863
vn 0.905925 0.405467 -0.12205
vn 0.788407 0.600295 0.134388
vn -0.868565 0.263201 0.419904
vn -0.685497 0.476904 0.550142
vn -0.511802 0.84375 0.161691
# 42 normals
usemtl Material__1
f  1//1 2//2 3//3
f  4//4 1//1 3//3
f  1//1 5//5 2//2
f  6//6 1//1 4//4
f  7//7 5//5 1//1
f  6//6 7//7 1//1
f  3//3 2//2 8//8
f  2//2 9//9 8//8
f  5//5 10//10 2//2
f  2//2 10//10 9//9
f  4//4 3//3 11//11
f  3//3 8//8 12//12
f  11//11 3//3 12//12
f  13//13 4//4 11//11
f  14//14 6//6 4//4
f  14//14 4//4 13//13
f  5//5 15//15 10//10
f  16//16 15//15 5//5
f  7//7 16//16 5//5
f  17//17 6//6 14//14
f  18//18 7//7 6//6
f  17//17 18//18 6//6
f  19//19 16//16 7//7
f  18//18 19//19 7//7
f  8//8 9//9 20//20
f  8//8 20//20 21//21
f  12//12 8//8 21//21
f  10//10 22//22 9//9
f  9//9 23//23 20//20
f  9//9 22//22 23//23
f  15//15 24//24 10//10
f  10//10 24//24 22//22
f  13//13 11//11 25//25
f  11//11 12//12 25//25
f  12//12 21//21 25//25
f  26//26 14//14 13//13
f  26//26 13//13 25//25
f  27//27 17//17 14//14
f  27//27 14//14 26//26
f  28//28 24//24 15//15
f  28//28 15//15 16//16
f  28//28 16//16 19//19
f  29//29 17//17 27//27
f  30//30 18//18 17//17
f  29//29 30//30 17//17
f  31//31 19//19 18//18
f  30//30 31//31 18//18
f  28//28 19//19 31//31
f  20//20 23//23 32//32
f  20//20 32//32 33//33
f  21//21 20//20 33//33
f  21//21 33//33 25//25
f  22//22 34//34 23//23
f  24//24 35//35 22//22
f  22//22 35//35 34//34
f  23//23 36//36 32//32
f  23//23 34//34 36//36
f  28//28 35//35 24//24
f  37//37 26//26 25//25
f  38//38 37//37 25//25
f  33//33 38//38 25//25
f  37//37 27//27 26//26
f  39//39 29//29 27//27
f  39//39 27//27 37//37
f  28//28 40//40 35//35
f  28//28 41//41 40//40
f  28//28 31//31 41//41
f  36//36 29//29 39//39
f  36//36 42//42 29//29
f  42//42 30//30 29//29
f  41//41 31//31 30//30
f  42//42 41//41 30//30
f  32//32 36//36 39//39
f  32//32 39//39 38//38
f  33//33 32//32 38//38
f  35//35 40//40 34//34
f  34//34 42//42 36//36
f  34//34 40//40 42//42
f  38//38 39//39 37//37
f  40//40 41//41 42//42
