#VRML V2.0 utf8
Transform {
children [
Shape {
appearance Appearance {
              material DEF surface Material {
              diffuseColor 0.8 0.8 0.8
              ambientIntensity 0.2
              specularColor 0.4 0.4 0.4
              emissiveColor 0 0 0
              shininess 0.25
              transparency 0
            }
          }
geometry IndexedFaceSet {
solid FALSE
coord DEF bone Coordinate {
point [
  0.002602	 -0.002676	 -0.005706,
 -0.000099	 -0.006316	 -0.005362,
  0.000867	 -0.003635	 -0.012165,
  0.002680	 -0.001475	 -0.009082,
  0.001575	 -0.000491	 -0.001372,
  0.002821	 -0.000663	 -0.004136,
  0.002714	 -0.000144	 -0.003614,
  0.000235	 -0.002883	  0.000043,
 -0.012484	 -0.009320	 -0.004495,
 -0.009360	 -0.006808	 -0.009909,
 -0.002364	 -0.003356	 -0.018046,
 -0.005442	 -0.003785	 -0.013134,
  0.002768	 -0.000504	 -0.005373,
  0.002254	 -0.000761	 -0.011719,
  0.001186	  0.001912	 -0.001156,
  0.002607	  0.000375	 -0.003093,
  0.002751	  0.000512	 -0.004432,
 -0.014539	 -0.005345	 -0.001797,
 -0.001057	  0.002876	  0.000004,
 -0.012865	 -0.004807	 -0.008010,
 -0.011531	 -0.003620	 -0.010419,
 -0.010098	 -0.002875	 -0.012352,
 -0.002192	  0.000540	 -0.018080,
 -0.006957	 -0.000601	 -0.010679,
 -0.010554	 -0.001282	 -0.012127,
  0.002926	  0.000467	 -0.006024,
  0.001696	  0.000644	 -0.012598,
  0.000823	  0.004090	 -0.003194,
  0.002521	  0.001382	 -0.003200,
  0.002984	  0.001380	 -0.005786,
  0.002668	  0.001805	 -0.004226,
 -0.013699	 -0.000132	 -0.005210,
 -0.014010	 -0.004575	 -0.006135,
 -0.000790	  0.005758	 -0.004823,
 -0.012139	 -0.002597	 -0.009506,
 -0.000663	  0.004132	 -0.012939,
 -0.007461	  0.002490	 -0.008703,
 -0.011482	 -0.000886	 -0.010300,
  0.001878	  0.002334	 -0.009149,
 -0.013997	 -0.001782	 -0.007511,
 -0.008456	  0.003832	 -0.005489,
 -0.012575	 -0.000951	 -0.009191,
]
}
coordIndex [
   0,	   1,	   2, -1
   0,	   2,	   3, -1
   4,	   1,	   0, -1
   5,	   0,	   3, -1
   6,	   4,	   0, -1
   6,	   0,	   5, -1
   4,	   7,	   1, -1
   1,	   8,	   9, -1
   1,	   9,	   2, -1
   7,	   8,	   1, -1
   3,	   2,	  10, -1
   2,	   9,	  11, -1
   2,	  11,	  10, -1
   5,	   3,	  12, -1
   3,	  10,	  13, -1
  12,	   3,	  13, -1
  14,	   7,	   4, -1
  15,	  14,	   4, -1
  15,	   4,	   6, -1
  16,	   5,	  12, -1
  16,	   6,	   5, -1
  16,	  15,	   6, -1
   7,	  17,	   8, -1
  14,	  18,	   7, -1
  18,	  17,	   7, -1
   8,	  19,	  20, -1
   8,	  20,	   9, -1
  17,	  19,	   8, -1
   9,	  20,	  21, -1
   9,	  21,	  11, -1
  13,	  10,	  22, -1
  10,	  11,	  23, -1
  10,	  23,	  22, -1
  11,	  21,	  24, -1
  11,	  24,	  23, -1
  12,	  13,	  25, -1
  16,	  12,	  25, -1
  13,	  22,	  26, -1
  25,	  13,	  26, -1
  27,	  18,	  14, -1
  28,	  27,	  14, -1
  28,	  14,	  15, -1
  16,	  28,	  15, -1
  16,	  25,	  29, -1
  16,	  29,	  30, -1
  16,	  30,	  28, -1
  18,	  31,	  17, -1
  17,	  32,	  19, -1
  31,	  32,	  17, -1
  27,	  33,	  18, -1
  33,	  31,	  18, -1
  20,	  19,	  34, -1
  19,	  32,	  34, -1
  21,	  20,	  34, -1
  24,	  21,	  34, -1
  26,	  22,	  35, -1
  22,	  23,	  36, -1
  22,	  36,	  35, -1
  23,	  24,	  37, -1
  23,	  37,	  36, -1
  37,	  24,	  34, -1
  25,	  26,	  29, -1
  26,	  35,	  38, -1
  29,	  26,	  38, -1
  38,	  33,	  27, -1
  30,	  38,	  27, -1
  30,	  27,	  28, -1
  29,	  38,	  30, -1
  31,	  39,	  32, -1
  33,	  40,	  31, -1
  40,	  39,	  31, -1
  32,	  39,	  34, -1
  38,	  35,	  33, -1
  35,	  40,	  33, -1
  39,	  41,	  34, -1
  41,	  37,	  34, -1
  35,	  36,	  40, -1
  36,	  37,	  41, -1
  36,	  41,	  40, -1
  40,	  41,	  39, -1
]
colorPerVertex FALSE
colorIndex [
1,
1,
1,
1,
1,
1,
1,
1,
1,
1,
1,
1,
1,
1,
1,
1,
1,
1,
1,
1,
1,
1,
1,
1,
1,
1,
1,
1,
1,
1,
1,
1,
1,
1,
1,
1,
1,
1,
1,
1,
1,
1,
]
normal Normal {
vector [
  0.853313	 -0.475056	  0.214891,
  0.593047	 -0.802069	  0.070574,
  0.562560	 -0.751370	 -0.344920,
  0.967079	 -0.170192	 -0.189191,
  0.852147	 -0.235206	  0.467465,
  0.982378	 -0.106529	  0.153574,
  0.906535	 -0.211732	  0.365189,
  0.443499	 -0.332225	  0.832427,
 -0.424731	 -0.898774	 -0.108670,
 -0.170511	 -0.776547	 -0.606549,
  0.249588	 -0.538511	 -0.804806,
 -0.220834	 -0.379844	 -0.898304,
  0.999637	  0.011377	 -0.024434,
  0.945475	 -0.068265	 -0.318461,
  0.733692	  0.259055	  0.628161,
  0.935488	  0.034356	  0.351685,
  0.993503	  0.027102	  0.110527,
 -0.800471	 -0.288547	  0.525344,
  0.089693	  0.570723	  0.816229,
 -0.808247	 -0.379006	 -0.450656,
 -0.726896	 -0.323139	 -0.605973,
 -0.572102	 -0.233739	 -0.786171,
  0.065869	  0.399363	 -0.914423,
 -0.521734	  0.486322	 -0.700917,
 -0.450568	  0.435079	 -0.779548,
  0.998796	 -0.026367	 -0.041369,
  0.903191	  0.261112	 -0.340687,
  0.699665	  0.653149	  0.289596,
  0.914081	  0.260327	  0.310942,
  0.979098	  0.201362	 -0.028630,
  0.905925	  0.405467	  0.122050,
 -0.761101	  0.534730	  0.367136,
 -0.925167	 -0.235007	 -0.298056,
  0.222446	  0.916559	  0.332320,
 -0.811359	 -0.066956	 -0.580701,
  0.228368	  0.875636	 -0.425570,
 -0.496508	  0.669741	 -0.552201,
 -0.534159	  0.551945	 -0.640336,
  0.788407	  0.600295	 -0.134388,
 -0.868565	  0.263201	 -0.419904,
 -0.511802	  0.843750	 -0.161691,
 -0.685497	  0.476904	 -0.550142,
]
}
normalIndex [
   0,	   1,	   2, -1
   0,	   2,	   3, -1
   4,	   1,	   0, -1
   5,	   0,	   3, -1
   6,	   4,	   0, -1
   6,	   0,	   5, -1
   4,	   7,	   1, -1
   1,	   8,	   9, -1
   1,	   9,	   2, -1
   7,	   8,	   1, -1
   3,	   2,	  10, -1
   2,	   9,	  11, -1
   2,	  11,	  10, -1
   5,	   3,	  12, -1
   3,	  10,	  13, -1
  12,	   3,	  13, -1
  14,	   7,	   4, -1
  15,	  14,	   4, -1
  15,	   4,	   6, -1
  16,	   5,	  12, -1
  16,	   6,	   5, -1
  16,	  15,	   6, -1
   7,	  17,	   8, -1
  14,	  18,	   7, -1
  18,	  17,	   7, -1
   8,	  19,	  20, -1
   8,	  20,	   9, -1
  17,	  19,	   8, -1
   9,	  20,	  21, -1
   9,	  21,	  11, -1
  13,	  10,	  22, -1
  10,	  11,	  23, -1
  10,	  23,	  22, -1
  11,	  21,	  24, -1
  11,	  24,	  23, -1
  12,	  13,	  25, -1
  16,	  12,	  25, -1
  13,	  22,	  26, -1
  25,	  13,	  26, -1
  27,	  18,	  14, -1
  28,	  27,	  14, -1
  28,	  14,	  15, -1
  16,	  28,	  15, -1
  16,	  25,	  29, -1
  16,	  29,	  30, -1
  16,	  30,	  28, -1
  18,	  31,	  17, -1
  17,	  32,	  19, -1
  31,	  32,	  17, -1
  27,	  33,	  18, -1
  33,	  31,	  18, -1
  20,	  19,	  34, -1
  19,	  32,	  34, -1
  21,	  20,	  34, -1
  24,	  21,	  34, -1
  26,	  22,	  35, -1
  22,	  23,	  36, -1
  22,	  36,	  35, -1
  23,	  24,	  37, -1
  23,	  37,	  36, -1
  37,	  24,	  34, -1
  25,	  26,	  29, -1
  26,	  35,	  38, -1
  29,	  26,	  38, -1
  38,	  33,	  27, -1
  30,	  38,	  27, -1
  30,	  27,	  28, -1
  29,	  38,	  30, -1
  31,	  39,	  32, -1
  33,	  40,	  31, -1
  40,	  39,	  31, -1
  32,	  39,	  34, -1
  38,	  35,	  33, -1
  35,	  40,	  33, -1
  39,	  41,	  34, -1
  41,	  37,	  34, -1
  35,	  36,	  40, -1
  36,	  37,	  41, -1
  36,	  41,	  40, -1
  40,	  41,	  39, -1
]
normalPerVertex TRUE
}
}
]
}
