#VRML V2.0 utf8
Transform {
children [
Shape {
appearance Appearance {
              material DEF surface Material {
              diffuseColor 0.8 0.8 0.8
              ambientIntensity 0.2
              specularColor 0.4 0.4 0.4
              emissiveColor 0 0 0
              shininess 0.25
              transparency 0
            }
          }
geometry IndexedFaceSet {
solid FALSE
coord DEF bone Coordinate {
point [
  0.000867	 -0.003635	  0.012165,
 -0.000099	 -0.006316	  0.005362,
  0.002602	 -0.002676	  0.005706,
  0.002680	 -0.001475	  0.009082,
 -0.009360	 -0.006808	  0.009909,
 -0.002364	 -0.003356	  0.018046,
 -0.005442	 -0.003785	  0.013134,
  0.001575	 -0.000491	  0.001372,
  0.000235	 -0.002883	 -0.000043,
 -0.012484	 -0.009320	  0.004495,
  0.002821	 -0.000663	  0.004136,
  0.002714	 -0.000144	  0.003614,
  0.002768	 -0.000504	  0.005373,
  0.002254	 -0.000761	  0.011719,
 -0.011531	 -0.003620	  0.010419,
 -0.010098	 -0.002875	  0.012352,
 -0.002192	  0.000540	  0.018080,
 -0.006957	 -0.000601	  0.010679,
 -0.010554	 -0.001282	  0.012127,
  0.001186	  0.001912	  0.001156,
  0.002607	  0.000375	  0.003093,
 -0.014539	 -0.005345	  0.001797,
 -0.001057	  0.002876	 -0.000004,
 -0.012865	 -0.004807	  0.008010,
  0.002751	  0.000512	  0.004432,
  0.002926	  0.000467	  0.006024,
  0.001696	  0.000644	  0.012598,
 -0.012139	 -0.002597	  0.009506,
 -0.000663	  0.004132	  0.012939,
 -0.007461	  0.002490	  0.008703,
 -0.011482	 -0.000886	  0.010300,
  0.000823	  0.004090	  0.003194,
  0.002521	  0.001382	  0.003200,
 -0.013699	 -0.000132	  0.005210,
 -0.014010	 -0.004575	  0.006135,
 -0.000790	  0.005758	  0.004823,
  0.002984	  0.001380	  0.005786,
  0.002668	  0.001805	  0.004226,
  0.001878	  0.002334	  0.009149,
 -0.013997	 -0.001782	  0.007511,
 -0.012575	 -0.000951	  0.009191,
 -0.008456	  0.003832	  0.005489,
]
}
coordIndex [
   0,	   1,	   2, -1
   3,	   0,	   2, -1
   0,	   4,	   1, -1
   5,	   0,	   3, -1
   6,	   4,	   0, -1
   5,	   6,	   0, -1
   2,	   1,	   7, -1
   1,	   8,	   7, -1
   4,	   9,	   1, -1
   1,	   9,	   8, -1
   3,	   2,	  10, -1
   2,	   7,	  11, -1
  10,	   2,	  11, -1
  12,	   3,	  10, -1
  13,	   5,	   3, -1
  13,	   3,	  12, -1
   4,	  14,	   9, -1
  15,	  14,	   4, -1
   6,	  15,	   4, -1
  16,	   5,	  13, -1
  17,	   6,	   5, -1
  16,	  17,	   5, -1
  18,	  15,	   6, -1
  17,	  18,	   6, -1
   7,	   8,	  19, -1
   7,	  19,	  20, -1
  11,	   7,	  20, -1
   9,	  21,	   8, -1
   8,	  22,	  19, -1
   8,	  21,	  22, -1
  14,	  23,	   9, -1
   9,	  23,	  21, -1
  12,	  10,	  24, -1
  10,	  11,	  24, -1
  11,	  20,	  24, -1
  25,	  13,	  12, -1
  25,	  12,	  24, -1
  26,	  16,	  13, -1
  26,	  13,	  25, -1
  27,	  23,	  14, -1
  27,	  14,	  15, -1
  27,	  15,	  18, -1
  28,	  16,	  26, -1
  29,	  17,	  16, -1
  28,	  29,	  16, -1
  30,	  18,	  17, -1
  29,	  30,	  17, -1
  27,	  18,	  30, -1
  19,	  22,	  31, -1
  19,	  31,	  32, -1
  20,	  19,	  32, -1
  20,	  32,	  24, -1
  21,	  33,	  22, -1
  23,	  34,	  21, -1
  21,	  34,	  33, -1
  22,	  35,	  31, -1
  22,	  33,	  35, -1
  27,	  34,	  23, -1
  36,	  25,	  24, -1
  37,	  36,	  24, -1
  32,	  37,	  24, -1
  36,	  26,	  25, -1
  38,	  28,	  26, -1
  38,	  26,	  36, -1
  27,	  39,	  34, -1
  27,	  40,	  39, -1
  27,	  30,	  40, -1
  35,	  28,	  38, -1
  35,	  41,	  28, -1
  41,	  29,	  28, -1
  40,	  30,	  29, -1
  41,	  40,	  29, -1
  31,	  35,	  38, -1
  31,	  38,	  37, -1
  32,	  31,	  37, -1
  34,	  39,	  33, -1
  33,	  41,	  35, -1
  33,	  39,	  41, -1
  37,	  38,	  36, -1
  39,	  40,	  41, -1
]
colorPerVertex FALSE
colorIndex [
1,
1,
1,
1,
1,
1,
1,
1,
1,
1,
1,
1,
1,
1,
1,
1,
1,
1,
1,
1,
1,
1,
1,
1,
1,
1,
1,
1,
1,
1,
1,
1,
1,
1,
1,
1,
1,
1,
1,
1,
1,
1,
]
normal Normal {
vector [
  0.562560	 -0.751370	  0.344920,
  0.593047	 -0.802069	 -0.070574,
  0.853313	 -0.475056	 -0.214891,
  0.967079	 -0.170192	  0.189191,
 -0.170511	 -0.776547	  0.606549,
  0.249588	 -0.538511	  0.804806,
 -0.220834	 -0.379844	  0.898304,
  0.852147	 -0.235206	 -0.467465,
  0.443499	 -0.332225	 -0.832427,
 -0.424731	 -0.898774	  0.108670,
  0.982378	 -0.106529	 -0.153574,
  0.906535	 -0.211732	 -0.365189,
  0.999637	  0.011377	  0.024434,
  0.945475	 -0.068265	  0.318461,
 -0.726896	 -0.323139	  0.605973,
 -0.572102	 -0.233739	  0.786171,
  0.065869	  0.399363	  0.914423,
 -0.521734	  0.486322	  0.700917,
 -0.450568	  0.435079	  0.779548,
  0.733692	  0.259055	 -0.628161,
  0.935488	  0.034356	 -0.351685,
 -0.800471	 -0.288547	 -0.525344,
  0.089693	  0.570723	 -0.816229,
 -0.808247	 -0.379006	  0.450656,
  0.993503	  0.027102	 -0.110527,
  0.998796	 -0.026367	  0.041369,
  0.903191	  0.261112	  0.340687,
 -0.811359	 -0.066956	  0.580701,
  0.228368	  0.875636	  0.425570,
 -0.496508	  0.669741	  0.552201,
 -0.534159	  0.551945	  0.640336,
  0.699665	  0.653149	 -0.289596,
  0.914081	  0.260327	 -0.310942,
 -0.761101	  0.534730	 -0.367136,
 -0.925167	 -0.235007	  0.298056,
  0.222446	  0.916559	 -0.332320,
  0.979098	  0.201362	  0.028630,
  0.905925	  0.405467	 -0.122050,
  0.788407	  0.600295	  0.134388,
 -0.868565	  0.263201	  0.419904,
 -0.685497	  0.476904	  0.550142,
 -0.511802	  0.843750	  0.161691,
]
}
normalIndex [
   0,	   1,	   2, -1
   3,	   0,	   2, -1
   0,	   4,	   1, -1
   5,	   0,	   3, -1
   6,	   4,	   0, -1
   5,	   6,	   0, -1
   2,	   1,	   7, -1
   1,	   8,	   7, -1
   4,	   9,	   1, -1
   1,	   9,	   8, -1
   3,	   2,	  10, -1
   2,	   7,	  11, -1
  10,	   2,	  11, -1
  12,	   3,	  10, -1
  13,	   5,	   3, -1
  13,	   3,	  12, -1
   4,	  14,	   9, -1
  15,	  14,	   4, -1
   6,	  15,	   4, -1
  16,	   5,	  13, -1
  17,	   6,	   5, -1
  16,	  17,	   5, -1
  18,	  15,	   6, -1
  17,	  18,	   6, -1
   7,	   8,	  19, -1
   7,	  19,	  20, -1
  11,	   7,	  20, -1
   9,	  21,	   8, -1
   8,	  22,	  19, -1
   8,	  21,	  22, -1
  14,	  23,	   9, -1
   9,	  23,	  21, -1
  12,	  10,	  24, -1
  10,	  11,	  24, -1
  11,	  20,	  24, -1
  25,	  13,	  12, -1
  25,	  12,	  24, -1
  26,	  16,	  13, -1
  26,	  13,	  25, -1
  27,	  23,	  14, -1
  27,	  14,	  15, -1
  27,	  15,	  18, -1
  28,	  16,	  26, -1
  29,	  17,	  16, -1
  28,	  29,	  16, -1
  30,	  18,	  17, -1
  29,	  30,	  17, -1
  27,	  18,	  30, -1
  19,	  22,	  31, -1
  19,	  31,	  32, -1
  20,	  19,	  32, -1
  20,	  32,	  24, -1
  21,	  33,	  22, -1
  23,	  34,	  21, -1
  21,	  34,	  33, -1
  22,	  35,	  31, -1
  22,	  33,	  35, -1
  27,	  34,	  23, -1
  36,	  25,	  24, -1
  37,	  36,	  24, -1
  32,	  37,	  24, -1
  36,	  26,	  25, -1
  38,	  28,	  26, -1
  38,	  26,	  36, -1
  27,	  39,	  34, -1
  27,	  40,	  39, -1
  27,	  30,	  40, -1
  35,	  28,	  38, -1
  35,	  41,	  28, -1
  41,	  29,	  28, -1
  40,	  30,	  29, -1
  41,	  40,	  29, -1
  31,	  35,	  38, -1
  31,	  38,	  37, -1
  32,	  31,	  37, -1
  34,	  39,	  33, -1
  33,	  41,	  35, -1
  33,	  39,	  41, -1
  37,	  38,	  36, -1
  39,	  40,	  41, -1
]
normalPerVertex TRUE
}
}
]
}
