#VRML V2.0 utf8
Transform {
children [
Shape {
appearance Appearance {
              material DEF surface Material {
              diffuseColor 0.8 0.8 0.8
              ambientIntensity 0.2
              specularColor 0.4 0.4 0.4
              emissiveColor 0 0 0
              shininess 0.25
              transparency 0
            }
          }
geometry IndexedFaceSet {
solid FALSE
coord DEF bone Coordinate {
point [
  0.001559	 -0.063028	 -0.030758,
 -0.001559	 -0.066522	 -0.030514,
  0.002158	 -0.068165	 -0.034492,
  0.002097	 -0.067671	 -0.032306,
  0.001033	 -0.058507	 -0.028936,
  0.007546	 -0.063836	 -0.031190,
  0.007373	 -0.058792	 -0.029747,
 -0.002002	 -0.061967	 -0.028411,
 -0.001211	 -0.062846	 -0.037589,
  0.001627	 -0.067064	 -0.036620,
  0.003450	 -0.066631	 -0.036418,
  0.005146	 -0.066794	 -0.034890,
 -0.000404	 -0.053906	 -0.027900,
  0.004465	 -0.054217	 -0.029691,
  0.007993	 -0.063922	 -0.033719,
  0.007652	 -0.058989	 -0.033239,
  0.004971	 -0.054426	 -0.031674,
 -0.003391	 -0.058268	 -0.037174,
 -0.003553	 -0.056921	 -0.028278,
  0.001281	 -0.061510	 -0.039575,
  0.001503	 -0.066471	 -0.038072,
  0.004734	 -0.067079	 -0.035898,
  0.004562	 -0.065229	 -0.039287,
  0.004491	 -0.064125	 -0.040292,
 -0.001905	 -0.049257	 -0.026972,
  0.001565	 -0.049735	 -0.028837,
  0.002779	 -0.049985	 -0.030316,
  0.007731	 -0.061101	 -0.038781,
  0.007869	 -0.056615	 -0.037327,
  0.004550	 -0.053230	 -0.034712,
  0.001429	 -0.049352	 -0.033690,
 -0.004434	 -0.053632	 -0.035413,
  0.000786	 -0.056500	 -0.039048,
 -0.004687	 -0.051831	 -0.027674,
  0.006728	 -0.059583	 -0.041656,
 -0.002822	 -0.044582	 -0.025703,
 -0.000091	 -0.044960	 -0.027153,
  0.001227	 -0.045062	 -0.029680,
 -0.000079	 -0.044682	 -0.032573,
  0.005868	 -0.054897	 -0.039825,
  0.002075	 -0.053578	 -0.036539,
  0.000065	 -0.048897	 -0.034591,
 -0.001476	 -0.043896	 -0.033276,
 -0.001099	 -0.052081	 -0.037124,
 -0.005258	 -0.049055	 -0.033233,
 -0.005990	 -0.046784	 -0.026985,
 -0.003229	 -0.039834	 -0.024462,
 -0.000653	 -0.039770	 -0.026159,
  0.000172	 -0.040073	 -0.028606,
 -0.000845	 -0.039718	 -0.031182,
 -0.002778	 -0.039140	 -0.032032,
 -0.003481	 -0.047895	 -0.035339,
 -0.005458	 -0.043841	 -0.032915,
 -0.006549	 -0.039427	 -0.030589,
 -0.006395	 -0.044526	 -0.031221,
 -0.006730	 -0.041733	 -0.025894,
 -0.003367	 -0.035051	 -0.023275,
 -0.000740	 -0.034635	 -0.024785,
 -0.000398	 -0.035238	 -0.026754,
 -0.001590	 -0.034880	 -0.029455,
 -0.003514	 -0.034214	 -0.030569,
 -0.007020	 -0.034630	 -0.028802,
 -0.007360	 -0.039875	 -0.029446,
 -0.007939	 -0.035084	 -0.027838,
 -0.006851	 -0.036681	 -0.024441,
 -0.003605	 -0.030367	 -0.021779,
 -0.001029	 -0.029918	 -0.022372,
 -0.000373	 -0.030394	 -0.024859,
 -0.001977	 -0.030118	 -0.027780,
 -0.003637	 -0.029173	 -0.029041,
 -0.007212	 -0.029720	 -0.027362,
 -0.008199	 -0.030261	 -0.026253,
 -0.006833	 -0.031669	 -0.022918,
 -0.003914	 -0.025818	 -0.019906,
 -0.001886	 -0.025411	 -0.019771,
 -0.000255	 -0.025374	 -0.023443,
 -0.001704	 -0.025183	 -0.026437,
 -0.003329	 -0.024166	 -0.027350,
 -0.007381	 -0.024790	 -0.025991,
 -0.008417	 -0.025475	 -0.024563,
 -0.006868	 -0.026685	 -0.021292,
 -0.004066	 -0.021379	 -0.017768,
 -0.002445	 -0.020112	 -0.017960,
  0.000074	 -0.020387	 -0.022012,
 -0.001692	 -0.020166	 -0.025175,
 -0.003873	 -0.019122	 -0.025849,
 -0.007758	 -0.019820	 -0.024820,
 -0.008865	 -0.020762	 -0.022718,
 -0.007421	 -0.021752	 -0.019680,
 -0.004567	 -0.016715	 -0.016156,
  0.000416	 -0.016398	 -0.017361,
  0.001062	 -0.015866	 -0.019432,
 -0.000972	 -0.015207	 -0.023411,
 -0.004531	 -0.014125	 -0.025004,
 -0.008151	 -0.014863	 -0.023716,
 -0.009023	 -0.015886	 -0.021242,
 -0.008995	 -0.016931	 -0.018062,
 -0.003643	 -0.013295	 -0.014990,
  0.000811	 -0.012996	 -0.016649,
  0.001836	 -0.011659	 -0.017370,
 -0.001252	 -0.011124	 -0.023337,
 -0.004120	 -0.010462	 -0.023892,
 -0.008642	 -0.010647	 -0.022703,
 -0.009641	 -0.011284	 -0.019882,
 -0.008805	 -0.013207	 -0.015348,
 -0.004145	 -0.012124	 -0.019234,
]
}
coordIndex [
   0,	   1,	   2, -1
   0,	   2,	   3, -1
   4,	   1,	   0, -1
   5,	   0,	   3, -1
   6,	   4,	   0, -1
   6,	   0,	   5, -1
   4,	   7,	   1, -1
   1,	   8,	   9, -1
   1,	   9,	   2, -1
   7,	   8,	   1, -1
   2,	   9,	  10, -1
   3,	   2,	  10, -1
   5,	   3,	  11, -1
  11,	   3,	  10, -1
  12,	   7,	   4, -1
  13,	  12,	   4, -1
  13,	   4,	   6, -1
  14,	   5,	  11, -1
  15,	   6,	   5, -1
  15,	   5,	  14, -1
  16,	  13,	   6, -1
  16,	   6,	  15, -1
   7,	  17,	   8, -1
  12,	  18,	   7, -1
  18,	  17,	   7, -1
   8,	  19,	  20, -1
   8,	  20,	   9, -1
  17,	  19,	   8, -1
   9,	  20,	  10, -1
  21,	  11,	  10, -1
  22,	  21,	  10, -1
  23,	  22,	  10, -1
  20,	  23,	  10, -1
  14,	  11,	  21, -1
  24,	  18,	  12, -1
  25,	  24,	  12, -1
  25,	  12,	  13, -1
  26,	  25,	  13, -1
  26,	  13,	  16, -1
  27,	  14,	  22, -1
  28,	  15,	  14, -1
  28,	  14,	  27, -1
  21,	  22,	  14, -1
  29,	  16,	  15, -1
  29,	  15,	  28, -1
  30,	  26,	  16, -1
  30,	  16,	  29, -1
  18,	  31,	  17, -1
  17,	  32,	  19, -1
  31,	  32,	  17, -1
  24,	  33,	  18, -1
  33,	  31,	  18, -1
  19,	  34,	  23, -1
  19,	  23,	  20, -1
  32,	  34,	  19, -1
  34,	  27,	  22, -1
  34,	  22,	  23, -1
  35,	  33,	  24, -1
  36,	  35,	  24, -1
  36,	  24,	  25, -1
  37,	  36,	  25, -1
  37,	  25,	  26, -1
  38,	  37,	  26, -1
  38,	  26,	  30, -1
  39,	  28,	  27, -1
  39,	  27,	  34, -1
  40,	  29,	  28, -1
  40,	  28,	  39, -1
  41,	  30,	  29, -1
  41,	  29,	  40, -1
  42,	  38,	  30, -1
  42,	  30,	  41, -1
  31,	  43,	  32, -1
  33,	  44,	  31, -1
  44,	  43,	  31, -1
  32,	  39,	  34, -1
  43,	  39,	  32, -1
  35,	  45,	  33, -1
  45,	  44,	  33, -1
  46,	  45,	  35, -1
  47,	  46,	  35, -1
  47,	  35,	  36, -1
  48,	  47,	  36, -1
  48,	  36,	  37, -1
  49,	  48,	  37, -1
  49,	  37,	  38, -1
  50,	  49,	  38, -1
  50,	  38,	  42, -1
  43,	  40,	  39, -1
  51,	  41,	  40, -1
  51,	  40,	  43, -1
  52,	  42,	  41, -1
  52,	  41,	  51, -1
  53,	  50,	  42, -1
  53,	  42,	  52, -1
  44,	  51,	  43, -1
  45,	  54,	  44, -1
  54,	  51,	  44, -1
  46,	  55,	  45, -1
  55,	  54,	  45, -1
  56,	  55,	  46, -1
  57,	  56,	  46, -1
  57,	  46,	  47, -1
  58,	  57,	  47, -1
  58,	  47,	  48, -1
  59,	  58,	  48, -1
  59,	  48,	  49, -1
  60,	  59,	  49, -1
  60,	  49,	  50, -1
  61,	  60,	  50, -1
  61,	  50,	  53, -1
  54,	  52,	  51, -1
  62,	  53,	  52, -1
  62,	  52,	  54, -1
  63,	  61,	  53, -1
  63,	  53,	  62, -1
  55,	  62,	  54, -1
  56,	  64,	  55, -1
  64,	  62,	  55, -1
  65,	  64,	  56, -1
  66,	  65,	  56, -1
  66,	  56,	  57, -1
  67,	  66,	  57, -1
  67,	  57,	  58, -1
  68,	  67,	  58, -1
  68,	  58,	  59, -1
  69,	  68,	  59, -1
  69,	  59,	  60, -1
  70,	  69,	  60, -1
  70,	  60,	  61, -1
  71,	  70,	  61, -1
  71,	  61,	  63, -1
  64,	  63,	  62, -1
  72,	  71,	  63, -1
  72,	  63,	  64, -1
  65,	  72,	  64, -1
  73,	  72,	  65, -1
  74,	  73,	  65, -1
  74,	  65,	  66, -1
  75,	  74,	  66, -1
  75,	  66,	  67, -1
  76,	  75,	  67, -1
  76,	  67,	  68, -1
  77,	  76,	  68, -1
  77,	  68,	  69, -1
  78,	  77,	  69, -1
  78,	  69,	  70, -1
  79,	  78,	  70, -1
  79,	  70,	  71, -1
  80,	  79,	  71, -1
  80,	  71,	  72, -1
  73,	  80,	  72, -1
  81,	  80,	  73, -1
  82,	  81,	  73, -1
  82,	  73,	  74, -1
  83,	  82,	  74, -1
  83,	  74,	  75, -1
  84,	  83,	  75, -1
  84,	  75,	  76, -1
  85,	  84,	  76, -1
  85,	  76,	  77, -1
  86,	  85,	  77, -1
  86,	  77,	  78, -1
  87,	  86,	  78, -1
  87,	  78,	  79, -1
  88,	  87,	  79, -1
  88,	  79,	  80, -1
  81,	  88,	  80, -1
  89,	  88,	  81, -1
  90,	  89,	  81, -1
  90,	  81,	  82, -1
  91,	  90,	  82, -1
  91,	  82,	  83, -1
  92,	  91,	  83, -1
  92,	  83,	  84, -1
  93,	  92,	  84, -1
  93,	  84,	  85, -1
  94,	  93,	  85, -1
  94,	  85,	  86, -1
  95,	  94,	  86, -1
  95,	  86,	  87, -1
  96,	  95,	  87, -1
  96,	  87,	  88, -1
  89,	  96,	  88, -1
  97,	  96,	  89, -1
  98,	  97,	  89, -1
  98,	  89,	  90, -1
  99,	  98,	  90, -1
  99,	  90,	  91, -1
 100,	  99,	  91, -1
 100,	  91,	  92, -1
 101,	 100,	  92, -1
 101,	  92,	  93, -1
 102,	 101,	  93, -1
 102,	  93,	  94, -1
 103,	 102,	  94, -1
 103,	  94,	  95, -1
 104,	 103,	  95, -1
 104,	  95,	  96, -1
  97,	 104,	  96, -1
 105,	 104,	  97, -1
 105,	  97,	  98, -1
 105,	  98,	  99, -1
 105,	  99,	 100, -1
 105,	 100,	 101, -1
 105,	 101,	 102, -1
 105,	 102,	 103, -1
 105,	 103,	 104, -1
]
colorPerVertex FALSE
colorIndex [
1,
1,
1,
1,
1,
1,
1,
1,
1,
1,
1,
1,
1,
1,
1,
1,
1,
1,
1,
1,
1,
1,
1,
1,
1,
1,
1,
1,
1,
1,
1,
1,
1,
1,
1,
1,
1,
1,
1,
1,
1,
1,
1,
1,
1,
1,
1,
1,
1,
1,
1,
1,
1,
1,
1,
1,
1,
1,
1,
1,
1,
1,
1,
1,
1,
1,
1,
1,
1,
1,
1,
1,
1,
1,
1,
1,
1,
1,
1,
1,
1,
1,
1,
1,
1,
1,
1,
1,
1,
1,
1,
1,
1,
1,
1,
1,
1,
1,
1,
1,
1,
1,
1,
1,
1,
1,
]
normal Normal {
vector [
 -0.189104	 -0.269488	  0.944254,
 -0.504328	 -0.661667	  0.554842,
 -0.174842	 -0.976326	  0.127353,
 -0.080323	 -0.866266	  0.493084,
  0.113222	 -0.133945	  0.984500,
  0.501806	 -0.487383	  0.714597,
  0.567941	  0.073284	  0.819800,
 -0.746687	 -0.157765	  0.646196,
 -0.808392	 -0.283551	 -0.515850,
 -0.468614	 -0.804927	 -0.363997,
 -0.055070	 -0.978036	 -0.201032,
  0.157263	 -0.950732	  0.267165,
  0.073288	 -0.001395	  0.997310,
  0.553667	  0.222399	  0.802491,
  0.836370	 -0.533814	  0.124611,
  0.953053	  0.126653	  0.275045,
  0.921301	  0.353048	  0.162978,
 -0.773522	 -0.081000	 -0.628572,
 -0.818746	 -0.048575	  0.572097,
 -0.310904	 -0.152742	 -0.938088,
 -0.303972	 -0.710343	 -0.634833,
  0.141770	 -0.989474	 -0.029020,
  0.367562	 -0.830332	 -0.418863,
 -0.085097	 -0.617055	 -0.782305,
  0.039643	 -0.081170	  0.995912,
  0.526886	  0.073414	  0.846760,
  0.950923	  0.227913	  0.209288,
  0.924578	 -0.335220	 -0.181060,
  0.956590	  0.291396	  0.004851,
  0.855628	  0.486903	 -0.175574,
  0.892797	  0.304999	 -0.331495,
 -0.773951	  0.098847	 -0.625483,
 -0.194047	  0.141679	 -0.970707,
 -0.850042	 -0.070117	  0.522027,
  0.433667	 -0.272045	 -0.859025,
 -0.017187	 -0.119112	  0.992732,
  0.590146	 -0.069847	  0.804269,
  0.969773	  0.067134	  0.234590,
  0.873085	  0.135833	 -0.468264,
  0.710608	  0.496443	 -0.498580,
  0.647484	  0.608939	 -0.458212,
  0.581398	  0.317629	 -0.749058,
  0.422971	  0.197432	 -0.884373,
 -0.039320	  0.388911	 -0.920436,
 -0.842083	  0.034766	 -0.538226,
 -0.881732	 -0.073399	  0.466006,
 -0.036422	 -0.149205	  0.988135,
  0.660989	 -0.153962	  0.734432,
  0.984969	 -0.012013	  0.172311,
  0.865354	  0.102308	 -0.490607,
  0.259468	  0.172463	 -0.950228,
 -0.083507	  0.258589	 -0.962371,
 -0.290809	  0.234429	 -0.927617,
 -0.390171	  0.219273	 -0.894251,
 -0.903953	  0.023253	 -0.426998,
 -0.865149	 -0.039171	  0.499982,
 -0.087438	 -0.198955	  0.976100,
  0.668202	 -0.244686	  0.702591,
  0.992697	 -0.092750	  0.077140,
  0.892843	  0.072878	 -0.444432,
  0.242990	  0.182403	 -0.952725,
 -0.431048	  0.215062	 -0.876325,
 -0.924159	  0.089766	 -0.371312,
 -0.921504	  0.144692	 -0.360409,
 -0.820068	 -0.035541	  0.571162,
 -0.211905	 -0.238528	  0.947734,
  0.549788	 -0.288847	  0.783773,
  0.984297	 -0.165882	  0.060357,
  0.883714	 -0.011589	 -0.467885,
  0.329598	  0.165633	 -0.929479,
 -0.465597	  0.217140	 -0.857945,
 -0.929856	  0.160301	 -0.331167,
 -0.808208	 -0.048141	  0.586927,
 -0.274802	 -0.251736	  0.927962,
  0.373220	 -0.281638	  0.883961,
  0.974569	 -0.184839	  0.126687,
  0.846538	 -0.034292	 -0.531223,
  0.356047	  0.127992	 -0.925661,
 -0.478814	  0.202431	 -0.854259,
 -0.950955	  0.121990	 -0.284258,
 -0.828330	 -0.079686	  0.554545,
 -0.228030	 -0.289505	  0.929618,
  0.394772	 -0.448143	  0.802074,
  0.945358	 -0.269598	  0.183343,
  0.801364	 -0.044428	 -0.596525,
  0.270218	  0.097222	 -0.957878,
 -0.506798	  0.165511	 -0.846027,
 -0.948653	  0.086307	 -0.304316,
 -0.840286	 -0.136675	  0.524633,
 -0.265231	 -0.200872	  0.943029,
  0.437929	 -0.416758	  0.796574,
  0.916341	 -0.391048	  0.086030,
  0.788503	 -0.084815	 -0.609155,
  0.248760	  0.098042	 -0.963590,
 -0.561887	  0.115801	 -0.819069,
 -0.933131	  0.134972	 -0.333241,
 -0.874294	 -0.117171	  0.471042,
 -0.127328	  0.347248	  0.929089,
  0.177020	  0.256462	  0.950206,
  0.761315	  0.328335	  0.559103,
  0.796387	  0.475251	 -0.374037,
  0.416913	  0.621749	 -0.663032,
 -0.208915	  0.747391	 -0.630683,
 -0.723921	  0.667731	 -0.173417,
 -0.691821	  0.600638	  0.400771,
  0.126955	  0.956066	  0.264235,
]
}
normalIndex [
   0,	   1,	   2, -1
   0,	   2,	   3, -1
   4,	   1,	   0, -1
   5,	   0,	   3, -1
   6,	   4,	   0, -1
   6,	   0,	   5, -1
   4,	   7,	   1, -1
   1,	   8,	   9, -1
   1,	   9,	   2, -1
   7,	   8,	   1, -1
   2,	   9,	  10, -1
   3,	   2,	  10, -1
   5,	   3,	  11, -1
  11,	   3,	  10, -1
  12,	   7,	   4, -1
  13,	  12,	   4, -1
  13,	   4,	   6, -1
  14,	   5,	  11, -1
  15,	   6,	   5, -1
  15,	   5,	  14, -1
  16,	  13,	   6, -1
  16,	   6,	  15, -1
   7,	  17,	   8, -1
  12,	  18,	   7, -1
  18,	  17,	   7, -1
   8,	  19,	  20, -1
   8,	  20,	   9, -1
  17,	  19,	   8, -1
   9,	  20,	  10, -1
  21,	  11,	  10, -1
  22,	  21,	  10, -1
  23,	  22,	  10, -1
  20,	  23,	  10, -1
  14,	  11,	  21, -1
  24,	  18,	  12, -1
  25,	  24,	  12, -1
  25,	  12,	  13, -1
  26,	  25,	  13, -1
  26,	  13,	  16, -1
  27,	  14,	  22, -1
  28,	  15,	  14, -1
  28,	  14,	  27, -1
  21,	  22,	  14, -1
  29,	  16,	  15, -1
  29,	  15,	  28, -1
  30,	  26,	  16, -1
  30,	  16,	  29, -1
  18,	  31,	  17, -1
  17,	  32,	  19, -1
  31,	  32,	  17, -1
  24,	  33,	  18, -1
  33,	  31,	  18, -1
  19,	  34,	  23, -1
  19,	  23,	  20, -1
  32,	  34,	  19, -1
  34,	  27,	  22, -1
  34,	  22,	  23, -1
  35,	  33,	  24, -1
  36,	  35,	  24, -1
  36,	  24,	  25, -1
  37,	  36,	  25, -1
  37,	  25,	  26, -1
  38,	  37,	  26, -1
  38,	  26,	  30, -1
  39,	  28,	  27, -1
  39,	  27,	  34, -1
  40,	  29,	  28, -1
  40,	  28,	  39, -1
  41,	  30,	  29, -1
  41,	  29,	  40, -1
  42,	  38,	  30, -1
  42,	  30,	  41, -1
  31,	  43,	  32, -1
  33,	  44,	  31, -1
  44,	  43,	  31, -1
  32,	  39,	  34, -1
  43,	  39,	  32, -1
  35,	  45,	  33, -1
  45,	  44,	  33, -1
  46,	  45,	  35, -1
  47,	  46,	  35, -1
  47,	  35,	  36, -1
  48,	  47,	  36, -1
  48,	  36,	  37, -1
  49,	  48,	  37, -1
  49,	  37,	  38, -1
  50,	  49,	  38, -1
  50,	  38,	  42, -1
  43,	  40,	  39, -1
  51,	  41,	  40, -1
  51,	  40,	  43, -1
  52,	  42,	  41, -1
  52,	  41,	  51, -1
  53,	  50,	  42, -1
  53,	  42,	  52, -1
  44,	  51,	  43, -1
  45,	  54,	  44, -1
  54,	  51,	  44, -1
  46,	  55,	  45, -1
  55,	  54,	  45, -1
  56,	  55,	  46, -1
  57,	  56,	  46, -1
  57,	  46,	  47, -1
  58,	  57,	  47, -1
  58,	  47,	  48, -1
  59,	  58,	  48, -1
  59,	  48,	  49, -1
  60,	  59,	  49, -1
  60,	  49,	  50, -1
  61,	  60,	  50, -1
  61,	  50,	  53, -1
  54,	  52,	  51, -1
  62,	  53,	  52, -1
  62,	  52,	  54, -1
  63,	  61,	  53, -1
  63,	  53,	  62, -1
  55,	  62,	  54, -1
  56,	  64,	  55, -1
  64,	  62,	  55, -1
  65,	  64,	  56, -1
  66,	  65,	  56, -1
  66,	  56,	  57, -1
  67,	  66,	  57, -1
  67,	  57,	  58, -1
  68,	  67,	  58, -1
  68,	  58,	  59, -1
  69,	  68,	  59, -1
  69,	  59,	  60, -1
  70,	  69,	  60, -1
  70,	  60,	  61, -1
  71,	  70,	  61, -1
  71,	  61,	  63, -1
  64,	  63,	  62, -1
  72,	  71,	  63, -1
  72,	  63,	  64, -1
  65,	  72,	  64, -1
  73,	  72,	  65, -1
  74,	  73,	  65, -1
  74,	  65,	  66, -1
  75,	  74,	  66, -1
  75,	  66,	  67, -1
  76,	  75,	  67, -1
  76,	  67,	  68, -1
  77,	  76,	  68, -1
  77,	  68,	  69, -1
  78,	  77,	  69, -1
  78,	  69,	  70, -1
  79,	  78,	  70, -1
  79,	  70,	  71, -1
  80,	  79,	  71, -1
  80,	  71,	  72, -1
  73,	  80,	  72, -1
  81,	  80,	  73, -1
  82,	  81,	  73, -1
  82,	  73,	  74, -1
  83,	  82,	  74, -1
  83,	  74,	  75, -1
  84,	  83,	  75, -1
  84,	  75,	  76, -1
  85,	  84,	  76, -1
  85,	  76,	  77, -1
  86,	  85,	  77, -1
  86,	  77,	  78, -1
  87,	  86,	  78, -1
  87,	  78,	  79, -1
  88,	  87,	  79, -1
  88,	  79,	  80, -1
  81,	  88,	  80, -1
  89,	  88,	  81, -1
  90,	  89,	  81, -1
  90,	  81,	  82, -1
  91,	  90,	  82, -1
  91,	  82,	  83, -1
  92,	  91,	  83, -1
  92,	  83,	  84, -1
  93,	  92,	  84, -1
  93,	  84,	  85, -1
  94,	  93,	  85, -1
  94,	  85,	  86, -1
  95,	  94,	  86, -1
  95,	  86,	  87, -1
  96,	  95,	  87, -1
  96,	  87,	  88, -1
  89,	  96,	  88, -1
  97,	  96,	  89, -1
  98,	  97,	  89, -1
  98,	  89,	  90, -1
  99,	  98,	  90, -1
  99,	  90,	  91, -1
 100,	  99,	  91, -1
 100,	  91,	  92, -1
 101,	 100,	  92, -1
 101,	  92,	  93, -1
 102,	 101,	  93, -1
 102,	  93,	  94, -1
 103,	 102,	  94, -1
 103,	  94,	  95, -1
 104,	 103,	  95, -1
 104,	  95,	  96, -1
  97,	 104,	  96, -1
 105,	 104,	  97, -1
 105,	  97,	  98, -1
 105,	  98,	  99, -1
 105,	  99,	 100, -1
 105,	 100,	 101, -1
 105,	 101,	 102, -1
 105,	 102,	 103, -1
 105,	 103,	 104, -1
]
normalPerVertex TRUE
}
}
]
}
