# 
# Wavefront OBJ file
# Converted by the DEEP Exploration 2.00.1211
# Right Hemisphere, LTD
# http://www.righthemisphere.com/
# 
mtllib metacarpal2_l.mtl
# object Object #0
g Object__0
v -0.005992 -0.064859 -0.04397
v -0.009422 -0.063729 -0.044793
v -0.004883 -0.060548 -0.043056
v -0.005017 -0.066529 -0.044897
v -0.004645 -0.068632 -0.043131
v -0.007106 -0.059055 -0.043249
v -0.006377 -0.06661 -0.040894
v -0.006826 -0.065084 -0.035499
v -0.009302 -0.057446 -0.043579
v -0.008497 -0.061529 -0.039
v -0.00213 -0.064259 -0.043884
v 0.002097 -0.062205 -0.044918
v -0.004818 -0.054498 -0.041567
v -0.001208 -0.058292 -0.043087
v -0.000719 -0.067753 -0.042665
v -0.002399 -0.068549 -0.040581
v -0.004618 -0.068992 -0.040156
v -0.004748 -0.067212 -0.036833
v -0.003195 -0.065351 -0.033372
v -0.008438 -0.059854 -0.032128
v -0.005298 -0.062505 -0.032825
v -0.007447 -0.053197 -0.040985
v -0.010006 -0.051989 -0.039794
v -0.009172 -0.055742 -0.036463
v 0.000846 -0.065718 -0.042999
v 0.003087 -0.064167 -0.042651
v 0.002921 -0.060242 -0.042502
v 0.002775 -0.055915 -0.042805
v -0.005661 -0.048856 -0.038999
v -0.001833 -0.052539 -0.040562
v -0.00108 -0.068746 -0.041764
v -0.000218 -0.069272 -0.037151
v 0.000141 -0.068853 -0.035398
v -0.004353 -0.069421 -0.038301
v -0.00083 -0.067236 -0.034667
v 0.00409 -0.065323 -0.031598
v -0.002733 -0.059733 -0.030298
v 0.00049 -0.062368 -0.031294
v -0.008944 -0.053683 -0.030353
v -0.006108 -0.056717 -0.030342
v -0.008128 -0.047565 -0.037906
v -0.010298 -0.046179 -0.036558
v -0.009633 -0.049784 -0.033949
v 0.004384 -0.064895 -0.035721
v 0.004123 -0.061735 -0.038023
v 0.003722 -0.058678 -0.039631
v 0.002041 -0.054517 -0.039639
v 0.00037 -0.050888 -0.038877
v -0.006547 -0.043236 -0.036274
v -0.003508 -0.04709 -0.037485
v 0.002099 -0.067086 -0.034967
v 0.004392 -0.062122 -0.03283
v 0.003796 -0.059065 -0.029909
v -0.004316 -0.053599 -0.028588
v -0.001066 -0.056848 -0.029974
v -0.009283 -0.047287 -0.029088
v -0.007265 -0.050584 -0.028696
v -0.008616 -0.041786 -0.035061
v -0.010813 -0.040338 -0.033384
v -0.010092 -0.04371 -0.031657
v 0.005298 -0.059201 -0.034092
v 0.002992 -0.055995 -0.036078
v 0.001297 -0.052585 -0.037241
v -0.000266 -0.048916 -0.036697
v -0.002196 -0.045379 -0.035791
v -0.006803 -0.037393 -0.034029
v -0.004732 -0.041269 -0.034941
v 0.002433 -0.056695 -0.032112
v -0.001014 -0.054995 -0.0311
v -0.006515 -0.047764 -0.026758
v -0.003633 -0.051229 -0.028911
v -0.009974 -0.041039 -0.027602
v -0.00854 -0.044432 -0.027301
v -0.008698 -0.035879 -0.032507
v -0.010741 -0.034249 -0.030761
v -0.010479 -0.037619 -0.0294
v 0.00165 -0.053517 -0.033349
v 0.000265 -0.050351 -0.034061
v -0.000537 -0.046813 -0.034878
v -0.001871 -0.043095 -0.034001
v -0.003383 -0.039068 -0.03367
v -0.006432 -0.031537 -0.031856
v -0.004917 -0.03523 -0.032615
v -0.000851 -0.051391 -0.031106
v -0.002689 -0.04856 -0.029197
v -0.008387 -0.041637 -0.025756
v -0.005302 -0.045063 -0.027076
v -0.010389 -0.034849 -0.025853
v -0.009464 -0.038201 -0.02597
v -0.008225 -0.02986 -0.030241
v -0.010002 -0.02795 -0.028666
v -0.010353 -0.031429 -0.02731
v -0.001351 -0.048492 -0.030776
v -0.001383 -0.044784 -0.031385
v -0.001367 -0.041119 -0.031666
v -0.002369 -0.037047 -0.031306
v -0.003048 -0.03292 -0.030907
v -0.005726 -0.025707 -0.029683
v -0.00436 -0.02919 -0.030283
v -0.002483 -0.045514 -0.028696
v -0.003617 -0.042292 -0.026593
v -0.009109 -0.035282 -0.02467
v -0.006355 -0.03889 -0.025294
v -0.010281 -0.028667 -0.023957
v -0.009671 -0.031943 -0.024364
v -0.007517 -0.023764 -0.028227
v -0.009121 -0.021652 -0.026707
v -0.009797 -0.025191 -0.025359
v -0.002277 -0.042714 -0.028219
v -0.001908 -0.038852 -0.028701
v -0.001677 -0.035079 -0.028977
v -0.002138 -0.030817 -0.028966
v -0.002235 -0.026594 -0.028688
v -0.005219 -0.019747 -0.02785
v -0.003784 -0.022994 -0.028482
v -0.003127 -0.039463 -0.026228
v -0.004305 -0.03635 -0.024159
v -0.008907 -0.028975 -0.022975
v -0.006662 -0.032682 -0.023447
v -0.009783 -0.022496 -0.022109
v -0.009313 -0.025741 -0.022496
v -0.006892 -0.017587 -0.026466
v -0.00833 -0.015303 -0.024853
v -0.009125 -0.018935 -0.023517
v -0.002311 -0.036496 -0.02594
v -0.001999 -0.032604 -0.026572
v -0.001594 -0.028676 -0.027291
v -0.001649 -0.02437 -0.027374
v -0.001954 -0.01993 -0.027708
v -0.004897 -0.013648 -0.026454
v -0.003625 -0.016655 -0.027226
v -0.003338 -0.033283 -0.02404
v -0.004325 -0.03012 -0.021983
v -0.008283 -0.022825 -0.020943
v -0.00628 -0.026424 -0.021468
v -0.009266 -0.016291 -0.020398
v -0.008736 -0.019579 -0.020572
v -0.006464 -0.011352 -0.024904
v -0.008159 -0.008973 -0.02287
v -0.008706 -0.012649 -0.021736
v -0.002412 -0.030165 -0.024078
v -0.00173 -0.026276 -0.024875
v -0.000814 -0.022282 -0.025809
v -0.001248 -0.017893 -0.026044
v -0.00243 -0.013298 -0.02689
v -0.004467 -0.007483 -0.025437
v -0.003448 -0.01022 -0.026092
v -0.00311 -0.027011 -0.022089
v -0.003606 -0.023777 -0.019969
v -0.007613 -0.016706 -0.01884
v -0.005459 -0.020218 -0.019404
v -0.009068 -0.01003 -0.018824
v -0.008272 -0.013424 -0.018629
v -0.006372 -0.005137 -0.023162
v -0.008365 -0.002737 -0.020183
v -0.008715 -0.006423 -0.01963
v -0.002099 -0.023981 -0.022323
v -0.00081 -0.0201 -0.023007
v 0.000205 -0.016063 -0.02377
v -0.000689 -0.011425 -0.024519
v -0.001997 -0.006454 -0.025586
v -0.004498 -0.001356 -0.024159
v -0.002379 -0.00405 -0.025146
v -0.002143 -0.020849 -0.020071
v -0.002335 -0.017564 -0.017866
v -0.007142 -0.010673 -0.016455
v -0.004695 -0.014176 -0.017022
v -0.009266 -0.003954 -0.016643
v -0.008176 -0.007401 -0.016322
v -0.005533 0.001397 -0.022349
v -0.005745 0.005239 -0.021033
v -0.007932 0.000116 -0.018175
v -0.000533 -0.018074 -0.020127
v 0.000483 -0.014064 -0.020842
v 0.001467 -0.009885 -0.02183
v 0.001246 -0.005267 -0.023631
v 0.001446 -0.000906 -0.025403
v -0.003524 0.004442 -0.024019
v -0.000694 0.001233 -0.024396
v -0.000941 -0.014909 -0.017641
v -0.00169 -0.011761 -0.014927
v -0.007231 -0.004946 -0.013367
v -0.004547 -0.008286 -0.014215
v -0.008352 0.001917 -0.014843
v -0.008098 -0.001401 -0.014397
v -0.002792 0.003486 -0.017742
v 0.000793 -0.012236 -0.017644
v 0.002209 -0.008157 -0.018985
v 0.004071 -0.003821 -0.021705
v 0.003497 0.000102 -0.022991
v 0.0038 0.002753 -0.024004
v -0.000128 -0.009112 -0.01486
v -0.002125 -0.005765 -0.01211
v -0.007545 0.001377 -0.012739
v -0.005049 -0.00193 -0.012311
v 0.004671 0.002382 -0.020849
v 0.003304 0.00237 -0.011457
v -0.003295 0.002926 -0.011038
v 0.002509 -0.006683 -0.014759
v 0.00354 -0.002154 -0.017613
v -0.000816 -0.002948 -0.011714
# 201 verticies
vn -0.250766 -0.035337 -0.967403
vn -0.580652 -0.280139 -0.764438
vn -0.014967 0.218473 -0.975728
vn -0.018858 -0.297439 -0.954555
vn -0.340434 -0.800201 -0.493744
vn 0.254467 0.203586 -0.94541
vn -0.775717 -0.628973 0.051533
vn -0.700704 -0.588328 0.403589
vn -0.71251 0.203073 -0.671633
vn -0.97403 -0.182178 0.13445
vn 0.058559 -0.045375 -0.997252
vn 0.368869 -0.116867 -0.922105
vn 0.04016 0.356105 -0.933583
vn -0.142436 0.284279 -0.948102
vn 0.188152 -0.58923 -0.785752
vn -0.055124 -0.951644 -0.302217
vn -0.561841 -0.826793 0.027339
vn -0.682464 -0.592267 0.428326
vn -0.335513 -0.566098 0.75297
vn -0.758436 -0.359743 0.54347
vn -0.352929 -0.504684 0.787867
vn -0.060465 0.48843 -0.870506
vn -0.807306 0.248145 -0.535427
vn -0.988704 -0.134704 0.065728
vn 0.570674 -0.573527 -0.587706
vn 0.859462 -0.334341 -0.386705
vn 0.948513 0.031668 -0.315151
vn 0.597401 0.431249 -0.676118
vn 0.016799 0.464448 -0.885441
vn 0.073042 0.535559 -0.841333
vn 0.267516 -0.820872 -0.504583
vn 0.385579 -0.922142 -0.03136
vn 0.042273 -0.927576 0.371236
vn -0.403886 -0.846447 0.346992
vn -0.270968 -0.634402 0.723955
vn 0.453589 -0.61193 0.647919
vn -0.152891 -0.34821 0.924864
vn -0.122256 -0.368658 0.92149
vn -0.791919 -0.217868 0.570437
vn -0.308427 -0.307267 0.900255
vn -0.211414 0.434696 -0.87541
vn -0.842809 0.202073 -0.498838
vn -0.990059 -0.090921 0.107315
vn 0.918177 -0.391465 -0.060877
vn 0.972334 -0.038691 -0.230368
vn 0.960063 0.219197 -0.17387
vn 0.917314 0.398163 -0.000471
vn 0.627243 0.583444 -0.515906
vn 0.017083 0.420469 -0.907146
vn 0.25866 0.509775 -0.820503
vn 0.67857 -0.734536 -0.000319
vn 0.972694 -0.109177 0.204811
vn 0.526696 0.167304 0.833427
vn 0.082308 -0.189486 0.978428
vn 0.278984 0.159707 0.946922
vn -0.866434 -0.197942 0.458378
vn -0.485394 -0.308489 0.818063
vn -0.325018 0.378827 -0.866518
vn -0.873929 0.173544 -0.454016
vn -0.982535 -0.143655 0.118276
vn 0.971314 0.225283 0.076131
vn 0.874079 0.476497 -0.09453
vn 0.916523 0.395502 -0.059706
vn 0.835539 0.46531 -0.292167
vn 0.547732 0.467152 -0.694088
vn -0.050471 0.366271 -0.929138
vn 0.270623 0.353756 -0.895332
vn 0.623357 0.568004 0.537399
vn 0.573352 0.240582 0.783191
vn -0.076287 -0.251548 0.964834
vn 0.554095 -0.076435 0.828937
vn -0.904855 -0.182347 0.384692
vn -0.705801 -0.277526 0.651786
vn -0.414422 0.352003 -0.839255
vn -0.856854 0.220304 -0.466119
vn -0.992811 -0.063782 0.101285
vn 0.833914 0.366716 0.41244
vn 0.92588 0.342131 0.160289
vn 0.937561 0.314201 -0.149188
vn 0.758468 0.366261 -0.539054
vn 0.573964 0.335403 -0.747041
vn -0.038128 0.353798 -0.934544
vn 0.323329 0.342931 -0.881962
vn 0.7004 0.008461 0.713701
vn 0.618238 -0.120825 0.776648
vn -0.3412 -0.247044 0.906947
vn 0.326073 -0.192371 0.925565
vn -0.908614 -0.123982 0.398809
vn -0.741726 -0.211064 0.636627
vn -0.407562 0.34616 -0.845024
vn -0.809307 0.26218 -0.525627
vn -0.99793 0.062386 0.015613
vn 0.878617 0.074594 0.471665
vn 0.971283 0.030111 0.236016
vn 0.97674 0.15835 -0.144586
vn 0.844174 0.217798 -0.489832
vn 0.649389 0.235716 -0.723002
vn -0.048427 0.314532 -0.948011
vn 0.345813 0.280505 -0.895394
vn 0.748465 -0.160565 0.643444
vn 0.454739 -0.261424 0.851393
vn -0.44036 -0.23282 0.867109
vn -0.016714 -0.276972 0.960733
vn -0.91052 -0.066002 0.408162
vn -0.65151 -0.194703 0.733229
vn -0.387704 0.312096 -0.867342
vn -0.792804 0.256652 -0.552804
vn -0.988096 0.132779 -0.077692
vn 0.87849 -0.111797 0.464496
vn 0.977006 -0.055971 0.205732
vn 0.988826 0.056649 -0.137891
vn 0.895502 0.072424 -0.439125
vn 0.657755 0.138222 -0.740441
vn -0.175402 0.256213 -0.950573
vn 0.18961 0.203505 -0.960538
vn 0.679337 -0.229446 0.697034
vn 0.282058 -0.30457 0.909769
vn -0.443361 -0.235496 0.864854
vn -0.217029 -0.285041 0.933622
vn -0.930049 -0.025179 0.366571
vn -0.613901 -0.185697 0.767231
vn -0.448159 0.262666 -0.854494
vn -0.81366 0.208895 -0.542513
vn -0.979219 0.142766 -0.14404
vn 0.864455 -0.149431 0.479988
vn 0.97798 -0.054735 0.201394
vn 0.99315 -0.036513 -0.110994
vn 0.88953 0.014077 -0.45666
vn 0.535579 0.125641 -0.835086
vn -0.332038 0.207523 -0.920155
vn -0.063498 0.171173 -0.983193
vn 0.681337 -0.218096 0.698723
vn 0.267497 -0.30662 0.913471
vn -0.452278 -0.23641 0.859974
vn -0.258515 -0.272417 0.9268
vn -0.955426 -0.026323 0.294054
vn -0.665142 -0.161551 0.729031
vn -0.560099 0.217773 -0.79929
vn -0.848985 0.166057 -0.501646
vn -0.977808 0.082979 -0.19237
vn 0.878279 -0.158543 0.451098
vn 0.962026 -0.143292 0.232323
vn 0.984377 -0.090448 -0.151066
vn 0.842383 0.084222 -0.532257
vn 0.380692 0.147501 -0.912862
vn -0.398499 0.190848 -0.897093
vn -0.16586 0.183541 -0.968919
vn 0.762895 -0.242762 0.599215
vn 0.309794 -0.342704 0.886895
vn -0.489339 -0.259293 0.832655
vn -0.233666 -0.280797 0.930889
vn -0.975343 -0.070826 0.209022
vn -0.747418 -0.166453 0.643163
vn -0.681315 0.210253 -0.701144
vn -0.875504 0.189055 -0.444691
vn -0.974742 0.053651 -0.216792
vn 0.879843 -0.26264 0.396103
vn 0.957142 -0.2533 0.140425
vn 0.956223 -0.087848 -0.279143
vn 0.772597 0.056969 -0.632336
vn 0.294723 0.030075 -0.955109
vn -0.476712 0.170353 -0.862395
vn -0.180376 0.172487 -0.968356
vn 0.725351 -0.374792 0.577406
vn 0.255426 -0.411671 0.874806
vn -0.571343 -0.325781 0.753282
vn -0.273643 -0.372949 0.886582
vn -0.988253 0.009936 0.152503
vn -0.82316 -0.248079 0.510749
vn -0.750868 0.161511 -0.6404
vn -0.712644 0.643383 -0.279637
vn -0.943255 0.254236 -0.213622
vn 0.865922 -0.343336 0.363729
vn 0.972503 -0.22761 0.049308
vn 0.899383 -0.219765 -0.377908
vn 0.603593 -0.294451 -0.740928
vn 0.311901 -0.012959 -0.950026
vn -0.230826 0.596901 -0.768393
vn -0.080501 0.203009 -0.975862
vn 0.651379 -0.408112 0.639648
vn 0.175845 -0.449531 0.875785
vn -0.619505 -0.245169 0.745725
vn -0.302075 -0.439646 0.84585
vn -0.834287 0.497717 0.237155
vn -0.894153 -0.044605 0.445534
vn 0.077603 0.984752 0.155697
vn 0.842442 -0.387873 0.37396
vn 0.935453 -0.353093 0.015925
vn 0.928597 -0.230303 -0.290979
vn 0.85954 -0.158755 -0.485786
vn 0.546684 0.512142 -0.662455
vn 0.503103 -0.425329 0.752318
vn 0.025531 -0.319824 0.947133
vn -0.655468 0.341938 0.673379
vn -0.290218 -0.134149 0.947511
vn 0.938611 0.336293 -0.07692
vn 0.718046 0.341976 0.606187
vn -0.19313 0.328555 0.924528
vn 0.775673 -0.360822 0.517822
vn 0.979254 -0.127866 0.157198
vn 0.216959 -0.226216 0.949608
# 201 normals
usemtl Material__1
f  1//1 2//2 3//3
f  1//1 3//3 4//4
f  1//1 5//5 2//2
f  1//1 4//4 5//5
f  6//6 3//3 2//2
f  7//7 8//8 2//2
f  6//6 2//2 9//9
f  7//7 2//2 5//5
f  10//10 2//2 8//8
f  10//10 9//9 2//2
f  11//11 3//3 12//12
f  6//6 13//13 3//3
f  11//11 4//4 3//3
f  14//14 3//3 13//13
f  14//14 12//12 3//3
f  11//11 15//15 4//4
f  16//16 5//5 4//4
f  16//16 4//4 15//15
f  7//7 5//5 17//17
f  16//16 17//17 5//5
f  6//6 9//9 13//13
f  7//7 17//17 8//8
f  18//18 19//19 8//8
f  10//10 8//8 20//20
f  18//18 8//8 17//17
f  21//21 8//8 19//19
f  21//21 20//20 8//8
f  22//22 13//13 9//9
f  10//10 20//20 9//9
f  22//22 9//9 23//23
f  24//24 9//9 20//20
f  24//24 23//23 9//9
f  11//11 12//12 15//15
f  25//25 12//12 26//26
f  25//25 15//15 12//12
f  27//27 12//12 28//28
f  27//27 26//26 12//12
f  14//14 28//28 12//12
f  14//14 13//13 28//28
f  22//22 29//29 13//13
f  30//30 13//13 29//29
f  30//30 28//28 13//13
f  25//25 31//31 15//15
f  16//16 15//15 31//31
f  16//16 31//31 32//32
f  16//16 32//32 33//33
f  16//16 33//33 34//34
f  16//16 34//34 17//17
f  18//18 17//17 34//34
f  18//18 34//34 19//19
f  35//35 36//36 19//19
f  21//21 19//19 37//37
f  35//35 19//19 34//34
f  38//38 19//19 36//36
f  38//38 37//37 19//19
f  21//21 37//37 20//20
f  24//24 20//20 39//39
f  40//40 20//20 37//37
f  40//40 39//39 20//20
f  22//22 23//23 29//29
f  41//41 29//29 23//23
f  24//24 39//39 23//23
f  41//41 23//23 42//42
f  43//43 23//23 39//39
f  43//43 42//42 23//23
f  25//25 26//26 31//31
f  32//32 26//26 44//44
f  26//26 32//32 31//31
f  45//45 26//26 46//46
f  45//45 44//44 26//26
f  27//27 46//46 26//26
f  27//27 28//28 46//46
f  47//47 28//28 48//48
f  47//47 46//46 28//28
f  30//30 48//48 28//28
f  30//30 29//29 48//48
f  41//41 49//49 29//29
f  50//50 29//29 49//49
f  50//50 48//48 29//29
f  51//51 32//32 44//44
f  51//51 33//33 32//32
f  35//35 33//33 36//36
f  35//35 34//34 33//33
f  51//51 36//36 33//33
f  51//51 44//44 36//36
f  52//52 36//36 44//44
f  38//38 36//36 53//53
f  52//52 53//53 36//36
f  38//38 53//53 37//37
f  40//40 37//37 54//54
f  55//55 37//37 53//53
f  55//55 54//54 37//37
f  40//40 54//54 39//39
f  43//43 39//39 56//56
f  57//57 39//39 54//54
f  57//57 56//56 39//39
f  41//41 42//42 49//49
f  58//58 49//49 42//42
f  43//43 56//56 42//42
f  58//58 42//42 59//59
f  60//60 42//42 56//56
f  60//60 59//59 42//42
f  52//52 44//44 61//61
f  45//45 61//61 44//44
f  45//45 46//46 61//61
f  62//62 46//46 63//63
f  62//62 61//61 46//46
f  47//47 63//63 46//46
f  47//47 48//48 63//63
f  64//64 48//48 65//65
f  64//64 63//63 48//48
f  50//50 65//65 48//48
f  50//50 49//49 65//65
f  58//58 66//66 49//49
f  67//67 49//49 66//66
f  67//67 65//65 49//49
f  52//52 61//61 53//53
f  68//68 53//53 61//61
f  55//55 53//53 69//69
f  68//68 69//69 53//53
f  55//55 69//69 54//54
f  57//57 54//54 70//70
f  71//71 54//54 69//69
f  71//71 70//70 54//54
f  57//57 70//70 56//56
f  60//60 56//56 72//72
f  73//73 56//56 70//70
f  73//73 72//72 56//56
f  58//58 59//59 66//66
f  74//74 66//66 59//59
f  60//60 72//72 59//59
f  74//74 59//59 75//75
f  76//76 59//59 72//72
f  76//76 75//75 59//59
f  68//68 61//61 77//77
f  62//62 77//77 61//61
f  62//62 63//63 77//77
f  78//78 63//63 79//79
f  78//78 77//77 63//63
f  64//64 79//79 63//63
f  64//64 65//65 79//79
f  80//80 65//65 81//81
f  80//80 79//79 65//65
f  67//67 81//81 65//65
f  67//67 66//66 81//81
f  74//74 82//82 66//66
f  83//83 66//66 82//82
f  83//83 81//81 66//66
f  68//68 77//77 69//69
f  84//84 69//69 77//77
f  71//71 69//69 85//85
f  84//84 85//85 69//69
f  71//71 85//85 70//70
f  73//73 70//70 86//86
f  87//87 70//70 85//85
f  87//87 86//86 70//70
f  73//73 86//86 72//72
f  76//76 72//72 88//88
f  89//89 72//72 86//86
f  89//89 88//88 72//72
f  74//74 75//75 82//82
f  90//90 82//82 75//75
f  76//76 88//88 75//75
f  90//90 75//75 91//91
f  92//92 75//75 88//88
f  92//92 91//91 75//75
f  84//84 77//77 93//93
f  78//78 93//93 77//77
f  78//78 79//79 93//93
f  94//94 79//79 95//95
f  94//94 93//93 79//79
f  80//80 95//95 79//79
f  80//80 81//81 95//95
f  96//96 81//81 97//97
f  96//96 95//95 81//81
f  83//83 97//97 81//81
f  83//83 82//82 97//97
f  90//90 98//98 82//82
f  99//99 82//82 98//98
f  99//99 97//97 82//82
f  84//84 93//93 85//85
f  100//100 85//85 93//93
f  87//87 85//85 101//101
f  100//100 101//101 85//85
f  87//87 101//101 86//86
f  89//89 86//86 102//102
f  103//103 86//86 101//101
f  103//103 102//102 86//86
f  89//89 102//102 88//88
f  92//92 88//88 104//104
f  105//105 88//88 102//102
f  105//105 104//104 88//88
f  90//90 91//91 98//98
f  106//106 98//98 91//91
f  92//92 104//104 91//91
f  106//106 91//91 107//107
f  108//108 91//91 104//104
f  108//108 107//107 91//91
f  100//100 93//93 109//109
f  94//94 109//109 93//93
f  94//94 95//95 109//109
f  110//110 95//95 111//111
f  110//110 109//109 95//95
f  96//96 111//111 95//95
f  96//96 97//97 111//111
f  112//112 97//97 113//113
f  112//112 111//111 97//97
f  99//99 113//113 97//97
f  99//99 98//98 113//113
f  106//106 114//114 98//98
f  115//115 98//98 114//114
f  115//115 113//113 98//98
f  100//100 109//109 101//101
f  116//116 101//101 109//109
f  103//103 101//101 117//117
f  116//116 117//117 101//101
f  103//103 117//117 102//102
f  105//105 102//102 118//118
f  119//119 102//102 117//117
f  119//119 118//118 102//102
f  105//105 118//118 104//104
f  108//108 104//104 120//120
f  121//121 104//104 118//118
f  121//121 120//120 104//104
f  106//106 107//107 114//114
f  122//122 114//114 107//107
f  108//108 120//120 107//107
f  122//122 107//107 123//123
f  124//124 107//107 120//120
f  124//124 123//123 107//107
f  116//116 109//109 125//125
f  110//110 125//125 109//109
f  110//110 111//111 125//125
f  126//126 111//111 127//127
f  126//126 125//125 111//111
f  112//112 127//127 111//111
f  112//112 113//113 127//127
f  128//128 113//113 129//129
f  128//128 127//127 113//113
f  115//115 129//129 113//113
f  115//115 114//114 129//129
f  122//122 130//130 114//114
f  131//131 114//114 130//130
f  131//131 129//129 114//114
f  116//116 125//125 117//117
f  132//132 117//117 125//125
f  119//119 117//117 133//133
f  132//132 133//133 117//117
f  119//119 133//133 118//118
f  121//121 118//118 134//134
f  135//135 118//118 133//133
f  135//135 134//134 118//118
f  121//121 134//134 120//120
f  124//124 120//120 136//136
f  137//137 120//120 134//134
f  137//137 136//136 120//120
f  122//122 123//123 130//130
f  138//138 130//130 123//123
f  124//124 136//136 123//123
f  138//138 123//123 139//139
f  140//140 123//123 136//136
f  140//140 139//139 123//123
f  132//132 125//125 141//141
f  126//126 141//141 125//125
f  126//126 127//127 141//141
f  142//142 127//127 143//143
f  142//142 141//141 127//127
f  128//128 143//143 127//127
f  128//128 129//129 143//143
f  144//144 129//129 145//145
f  144//144 143//143 129//129
f  131//131 145//145 129//129
f  131//131 130//130 145//145
f  138//138 146//146 130//130
f  147//147 130//130 146//146
f  147//147 145//145 130//130
f  132//132 141//141 133//133
f  148//148 133//133 141//141
f  135//135 133//133 149//149
f  148//148 149//149 133//133
f  135//135 149//149 134//134
f  137//137 134//134 150//150
f  151//151 134//134 149//149
f  151//151 150//150 134//134
f  137//137 150//150 136//136
f  140//140 136//136 152//152
f  153//153 136//136 150//150
f  153//153 152//152 136//136
f  138//138 139//139 146//146
f  154//154 146//146 139//139
f  140//140 152//152 139//139
f  154//154 139//139 155//155
f  156//156 139//139 152//152
f  156//156 155//155 139//139
f  148//148 141//141 157//157
f  142//142 157//157 141//141
f  142//142 143//143 157//157
f  158//158 143//143 159//159
f  158//158 157//157 143//143
f  144//144 159//159 143//143
f  144//144 145//145 159//159
f  160//160 145//145 161//161
f  160//160 159//159 145//145
f  147//147 161//161 145//145
f  147//147 146//146 161//161
f  154//154 162//162 146//146
f  163//163 146//146 162//162
f  163//163 161//161 146//146
f  148//148 157//157 149//149
f  164//164 149//149 157//157
f  151//151 149//149 165//165
f  164//164 165//165 149//149
f  151//151 165//165 150//150
f  153//153 150//150 166//166
f  167//167 150//150 165//165
f  167//167 166//166 150//150
f  153//153 166//166 152//152
f  156//156 152//152 168//168
f  169//169 152//152 166//166
f  169//169 168//168 152//152
f  154//154 155//155 162//162
f  170//170 162//162 155//155
f  156//156 168//168 155//155
f  170//170 155//155 171//171
f  172//172 155//155 168//168
f  172//172 171//171 155//155
f  164//164 157//157 173//173
f  158//158 173//173 157//157
f  158//158 159//159 173//173
f  174//174 159//159 175//175
f  174//174 173//173 159//159
f  160//160 175//175 159//159
f  160//160 161//161 175//175
f  176//176 161//161 177//177
f  176//176 175//175 161//161
f  163//163 177//177 161//161
f  163//163 162//162 177//177
f  170//170 178//178 162//162
f  179//179 162//162 178//178
f  179//179 177//177 162//162
f  164//164 173//173 165//165
f  180//180 165//165 173//173
f  167//167 165//165 181//181
f  180//180 181//181 165//165
f  167//167 181//181 166//166
f  169//169 166//166 182//182
f  183//183 166//166 181//181
f  183//183 182//182 166//166
f  169//169 182//182 168//168
f  172//172 168//168 184//184
f  185//185 168//168 182//182
f  185//185 184//184 168//168
f  170//170 171//171 178//178
f  178//178 171//171 186//186
f  172//172 184//184 171//171
f  171//171 184//184 186//186
f  180//180 173//173 187//187
f  174//174 187//187 173//173
f  174//174 175//175 187//187
f  188//188 175//175 189//189
f  188//188 187//187 175//175
f  176//176 189//189 175//175
f  176//176 177//177 189//189
f  190//190 177//177 191//191
f  190//190 189//189 177//177
f  179//179 191//191 177//177
f  179//179 178//178 191//191
f  191//191 178//178 186//186
f  180//180 187//187 181//181
f  192//192 181//181 187//187
f  183//183 181//181 193//193
f  192//192 193//193 181//181
f  183//183 193//193 182//182
f  185//185 182//182 194//194
f  195//195 182//182 193//193
f  195//195 194//194 182//182
f  184//184 194//194 186//186
f  185//185 194//194 184//184
f  196//196 191//191 186//186
f  197//197 196//196 186//186
f  198//198 197//197 186//186
f  194//194 198//198 186//186
f  192//192 187//187 199//199
f  188//188 199//199 187//187
f  188//188 189//189 199//199
f  200//200 189//189 196//196
f  200//200 199//199 189//189
f  190//190 196//196 189//189
f  190//190 191//191 196//196
f  192//192 199//199 193//193
f  201//201 193//193 199//199
f  195//195 193//193 198//198
f  201//201 198//198 193//193
f  195//195 198//198 194//194
f  200//200 196//196 197//197
f  201//201 199//199 197//197
f  200//200 197//197 199//199
f  201//201 197//197 198//198
