#VRML V2.0 utf8
Transform {
children [
Shape {
appearance Appearance {
              material DEF surface Material {
              diffuseColor 0.8 0.8 0.8
              ambientIntensity 0.2
              specularColor 0.4 0.4 0.4
              emissiveColor 0 0 0
              shininess 0.25
              transparency 0
            }
          }
geometry IndexedFaceSet {
solid FALSE
coord DEF bone Coordinate {
point [
 -0.001630	 -0.057366	 -0.028045,
 -0.005349	 -0.060223	 -0.028047,
 -0.001435	 -0.062927	 -0.031164,
 -0.001741	 -0.062180	 -0.029072,
 -0.001574	 -0.052642	 -0.026737,
  0.004091	 -0.059231	 -0.027360,
  0.004647	 -0.054098	 -0.026407,
 -0.005249	 -0.055447	 -0.026452,
 -0.003222	 -0.057506	 -0.035243,
 -0.001413	 -0.062006	 -0.033438,
  0.000405	 -0.061871	 -0.032960,
  0.001782	 -0.062143	 -0.031153,
 -0.002264	 -0.047774	 -0.026365,
  0.002678	 -0.049118	 -0.027250,
  0.004901	 -0.059684	 -0.029756,
  0.005423	 -0.054744	 -0.029768,
  0.003437	 -0.049639	 -0.029090,
 -0.004541	 -0.052606	 -0.035608,
 -0.005826	 -0.050229	 -0.027024,
 -0.000246	 -0.056855	 -0.036874,
 -0.001196	 -0.061573	 -0.034935,
  0.001486	 -0.062468	 -0.032189,
  0.002192	 -0.061021	 -0.035702,
  0.002487	 -0.060046	 -0.036795,
 -0.002990	 -0.042861	 -0.026114,
  0.000575	 -0.044138	 -0.027301,
  0.001935	 -0.044762	 -0.028519,
  0.005963	 -0.057466	 -0.035010,
  0.006714	 -0.052932	 -0.033944,
  0.003725	 -0.048749	 -0.032246,
  0.001268	 -0.044303	 -0.032118,
 -0.004955	 -0.047687	 -0.034459,
  0.000133	 -0.051807	 -0.036873,
 -0.006063	 -0.044985	 -0.027065,
  0.005722	 -0.056142	 -0.038135,
 -0.003198	 -0.037983	 -0.025430,
 -0.000395	 -0.038988	 -0.026346,
  0.001256	 -0.039606	 -0.028587,
  0.000510	 -0.039346	 -0.031685,
  0.005484	 -0.051198	 -0.036890,
  0.001543	 -0.048878	 -0.034438,
  0.000171	 -0.043729	 -0.033278,
 -0.000588	 -0.038420	 -0.032685,
 -0.001163	 -0.046938	 -0.035692,
 -0.005232	 -0.042815	 -0.032856,
 -0.006485	 -0.039744	 -0.027049,
 -0.002893	 -0.033124	 -0.024691,
 -0.000120	 -0.033699	 -0.025914,
  0.001003	 -0.034420	 -0.028145,
  0.000484	 -0.034197	 -0.030879,
 -0.001150	 -0.033399	 -0.032098,
 -0.002964	 -0.042228	 -0.034714,
 -0.004496	 -0.037643	 -0.033027,
 -0.005086	 -0.032868	 -0.031313,
 -0.005796	 -0.037957	 -0.031469,
 -0.006423	 -0.034549	 -0.026540,
 -0.002313	 -0.028283	 -0.023961,
  0.000548	 -0.028500	 -0.025022,
  0.001072	 -0.029377	 -0.026842,
  0.000402	 -0.029136	 -0.029730,
 -0.001166	 -0.028284	 -0.031214,
 -0.004919	 -0.027887	 -0.030053,
 -0.006134	 -0.033035	 -0.030294,
 -0.006045	 -0.028062	 -0.029228,
 -0.005817	 -0.029417	 -0.025570,
 -0.001896	 -0.023486	 -0.022936,
  0.000779	 -0.023556	 -0.023109,
  0.001712	 -0.024422	 -0.025394,
  0.000661	 -0.024216	 -0.028562,
 -0.000575	 -0.023154	 -0.030169,
 -0.004406	 -0.022883	 -0.029096,
 -0.005637	 -0.023115	 -0.028132,
 -0.005094	 -0.024340	 -0.024503,
 -0.001631	 -0.018765	 -0.021543,
  0.000391	 -0.018698	 -0.021093,
  0.002550	 -0.019366	 -0.024416,
  0.001645	 -0.019279	 -0.027621,
  0.000402	 -0.018112	 -0.028886,
 -0.003856	 -0.017872	 -0.028203,
 -0.005211	 -0.018199	 -0.026923,
 -0.004444	 -0.019269	 -0.023341,
 -0.001277	 -0.014148	 -0.019853,
  0.000563	 -0.013208	 -0.019868,
  0.003584	 -0.014378	 -0.023383,
  0.002403	 -0.014226	 -0.026811,
  0.000589	 -0.012909	 -0.027941,
 -0.003470	 -0.012809	 -0.027546,
 -0.005047	 -0.013297	 -0.025595,
 -0.004304	 -0.014161	 -0.022279,
 -0.001136	 -0.009313	 -0.018759,
  0.003943	 -0.009994	 -0.019103,
  0.004991	 -0.009824	 -0.021068,
  0.003760	 -0.009292	 -0.025381,
  0.000759	 -0.007810	 -0.027655,
 -0.003091	 -0.007763	 -0.026957,
 -0.004513	 -0.008329	 -0.024593,
 -0.005176	 -0.008987	 -0.021379,
  0.000221	 -0.005989	 -0.017748,
  0.004855	 -0.006651	 -0.018628,
  0.006212	 -0.005601	 -0.019272,
  0.004244	 -0.005241	 -0.025708,
  0.001673	 -0.004167	 -0.026807,
 -0.002932	 -0.003437	 -0.026410,
 -0.004459	 -0.003562	 -0.023761,
 -0.004713	 -0.005062	 -0.019003,
  0.000613	 -0.005249	 -0.022099,
]
}
coordIndex [
   0,	   1,	   2, -1
   0,	   2,	   3, -1
   4,	   1,	   0, -1
   5,	   0,	   3, -1
   6,	   4,	   0, -1
   6,	   0,	   5, -1
   4,	   7,	   1, -1
   1,	   8,	   9, -1
   1,	   9,	   2, -1
   7,	   8,	   1, -1
   2,	   9,	  10, -1
   3,	   2,	  10, -1
   5,	   3,	  11, -1
  11,	   3,	  10, -1
  12,	   7,	   4, -1
  13,	  12,	   4, -1
  13,	   4,	   6, -1
  14,	   5,	  11, -1
  15,	   6,	   5, -1
  15,	   5,	  14, -1
  16,	  13,	   6, -1
  16,	   6,	  15, -1
   7,	  17,	   8, -1
  12,	  18,	   7, -1
  18,	  17,	   7, -1
   8,	  19,	  20, -1
   8,	  20,	   9, -1
  17,	  19,	   8, -1
   9,	  20,	  10, -1
  21,	  11,	  10, -1
  22,	  21,	  10, -1
  23,	  22,	  10, -1
  20,	  23,	  10, -1
  14,	  11,	  21, -1
  24,	  18,	  12, -1
  25,	  24,	  12, -1
  25,	  12,	  13, -1
  26,	  25,	  13, -1
  26,	  13,	  16, -1
  27,	  14,	  22, -1
  28,	  15,	  14, -1
  28,	  14,	  27, -1
  21,	  22,	  14, -1
  29,	  16,	  15, -1
  29,	  15,	  28, -1
  30,	  26,	  16, -1
  30,	  16,	  29, -1
  18,	  31,	  17, -1
  17,	  32,	  19, -1
  31,	  32,	  17, -1
  24,	  33,	  18, -1
  33,	  31,	  18, -1
  19,	  34,	  23, -1
  19,	  23,	  20, -1
  32,	  34,	  19, -1
  34,	  27,	  22, -1
  34,	  22,	  23, -1
  35,	  33,	  24, -1
  36,	  35,	  24, -1
  36,	  24,	  25, -1
  37,	  36,	  25, -1
  37,	  25,	  26, -1
  38,	  37,	  26, -1
  38,	  26,	  30, -1
  39,	  28,	  27, -1
  39,	  27,	  34, -1
  40,	  29,	  28, -1
  40,	  28,	  39, -1
  41,	  30,	  29, -1
  41,	  29,	  40, -1
  42,	  38,	  30, -1
  42,	  30,	  41, -1
  31,	  43,	  32, -1
  33,	  44,	  31, -1
  44,	  43,	  31, -1
  32,	  39,	  34, -1
  43,	  39,	  32, -1
  35,	  45,	  33, -1
  45,	  44,	  33, -1
  46,	  45,	  35, -1
  47,	  46,	  35, -1
  47,	  35,	  36, -1
  48,	  47,	  36, -1
  48,	  36,	  37, -1
  49,	  48,	  37, -1
  49,	  37,	  38, -1
  50,	  49,	  38, -1
  50,	  38,	  42, -1
  43,	  40,	  39, -1
  51,	  41,	  40, -1
  51,	  40,	  43, -1
  52,	  42,	  41, -1
  52,	  41,	  51, -1
  53,	  50,	  42, -1
  53,	  42,	  52, -1
  44,	  51,	  43, -1
  45,	  54,	  44, -1
  54,	  51,	  44, -1
  46,	  55,	  45, -1
  55,	  54,	  45, -1
  56,	  55,	  46, -1
  57,	  56,	  46, -1
  57,	  46,	  47, -1
  58,	  57,	  47, -1
  58,	  47,	  48, -1
  59,	  58,	  48, -1
  59,	  48,	  49, -1
  60,	  59,	  49, -1
  60,	  49,	  50, -1
  61,	  60,	  50, -1
  61,	  50,	  53, -1
  54,	  52,	  51, -1
  62,	  53,	  52, -1
  62,	  52,	  54, -1
  63,	  61,	  53, -1
  63,	  53,	  62, -1
  55,	  62,	  54, -1
  56,	  64,	  55, -1
  64,	  62,	  55, -1
  65,	  64,	  56, -1
  66,	  65,	  56, -1
  66,	  56,	  57, -1
  67,	  66,	  57, -1
  67,	  57,	  58, -1
  68,	  67,	  58, -1
  68,	  58,	  59, -1
  69,	  68,	  59, -1
  69,	  59,	  60, -1
  70,	  69,	  60, -1
  70,	  60,	  61, -1
  71,	  70,	  61, -1
  71,	  61,	  63, -1
  64,	  63,	  62, -1
  72,	  71,	  63, -1
  72,	  63,	  64, -1
  65,	  72,	  64, -1
  73,	  72,	  65, -1
  74,	  73,	  65, -1
  74,	  65,	  66, -1
  75,	  74,	  66, -1
  75,	  66,	  67, -1
  76,	  75,	  67, -1
  76,	  67,	  68, -1
  77,	  76,	  68, -1
  77,	  68,	  69, -1
  78,	  77,	  69, -1
  78,	  69,	  70, -1
  79,	  78,	  70, -1
  79,	  70,	  71, -1
  80,	  79,	  71, -1
  80,	  71,	  72, -1
  73,	  80,	  72, -1
  81,	  80,	  73, -1
  82,	  81,	  73, -1
  82,	  73,	  74, -1
  83,	  82,	  74, -1
  83,	  74,	  75, -1
  84,	  83,	  75, -1
  84,	  75,	  76, -1
  85,	  84,	  76, -1
  85,	  76,	  77, -1
  86,	  85,	  77, -1
  86,	  77,	  78, -1
  87,	  86,	  78, -1
  87,	  78,	  79, -1
  88,	  87,	  79, -1
  88,	  79,	  80, -1
  81,	  88,	  80, -1
  89,	  88,	  81, -1
  90,	  89,	  81, -1
  90,	  81,	  82, -1
  91,	  90,	  82, -1
  91,	  82,	  83, -1
  92,	  91,	  83, -1
  92,	  83,	  84, -1
  93,	  92,	  84, -1
  93,	  84,	  85, -1
  94,	  93,	  85, -1
  94,	  85,	  86, -1
  95,	  94,	  86, -1
  95,	  86,	  87, -1
  96,	  95,	  87, -1
  96,	  87,	  88, -1
  89,	  96,	  88, -1
  97,	  96,	  89, -1
  98,	  97,	  89, -1
  98,	  89,	  90, -1
  99,	  98,	  90, -1
  99,	  90,	  91, -1
 100,	  99,	  91, -1
 100,	  91,	  92, -1
 101,	 100,	  92, -1
 101,	  92,	  93, -1
 102,	 101,	  93, -1
 102,	  93,	  94, -1
 103,	 102,	  94, -1
 103,	  94,	  95, -1
 104,	 103,	  95, -1
 104,	  95,	  96, -1
  97,	 104,	  96, -1
 105,	 104,	  97, -1
 105,	  97,	  98, -1
 105,	  98,	  99, -1
 105,	  99,	 100, -1
 105,	 100,	 101, -1
 105,	 101,	 102, -1
 105,	 102,	 103, -1
 105,	 103,	 104, -1
]
colorPerVertex FALSE
colorIndex [
1,
1,
1,
1,
1,
1,
1,
1,
1,
1,
1,
1,
1,
1,
1,
1,
1,
1,
1,
1,
1,
1,
1,
1,
1,
1,
1,
1,
1,
1,
1,
1,
1,
1,
1,
1,
1,
1,
1,
1,
1,
1,
1,
1,
1,
1,
1,
1,
1,
1,
1,
1,
1,
1,
1,
1,
1,
1,
1,
1,
1,
1,
1,
1,
1,
1,
1,
1,
1,
1,
1,
1,
1,
1,
1,
1,
1,
1,
1,
1,
1,
1,
1,
1,
1,
1,
1,
1,
1,
1,
1,
1,
1,
1,
1,
1,
1,
1,
1,
1,
1,
1,
1,
1,
1,
1,
]
normal Normal {
vector [
 -0.189104	 -0.269488	  0.944254,
 -0.504328	 -0.661667	  0.554842,
 -0.174842	 -0.976326	  0.127353,
 -0.080323	 -0.866266	  0.493084,
  0.113222	 -0.133945	  0.984500,
  0.501806	 -0.487383	  0.714597,
  0.567941	  0.073284	  0.819800,
 -0.746687	 -0.157765	  0.646196,
 -0.808392	 -0.283551	 -0.515850,
 -0.468614	 -0.804927	 -0.363997,
 -0.055070	 -0.978036	 -0.201032,
  0.157263	 -0.950732	  0.267165,
  0.073288	 -0.001395	  0.997310,
  0.553667	  0.222399	  0.802491,
  0.836370	 -0.533814	  0.124611,
  0.953053	  0.126653	  0.275045,
  0.921301	  0.353048	  0.162978,
 -0.773522	 -0.081000	 -0.628572,
 -0.818746	 -0.048575	  0.572097,
 -0.310904	 -0.152742	 -0.938088,
 -0.303972	 -0.710343	 -0.634833,
  0.141770	 -0.989474	 -0.029020,
  0.367562	 -0.830332	 -0.418863,
 -0.085097	 -0.617055	 -0.782305,
  0.039643	 -0.081170	  0.995912,
  0.526886	  0.073414	  0.846760,
  0.950923	  0.227913	  0.209288,
  0.924578	 -0.335220	 -0.181060,
  0.956590	  0.291396	  0.004851,
  0.855628	  0.486903	 -0.175574,
  0.892797	  0.304999	 -0.331495,
 -0.773951	  0.098847	 -0.625483,
 -0.194047	  0.141679	 -0.970707,
 -0.850042	 -0.070117	  0.522027,
  0.433667	 -0.272045	 -0.859025,
 -0.017187	 -0.119112	  0.992732,
  0.590146	 -0.069847	  0.804269,
  0.969773	  0.067134	  0.234590,
  0.873085	  0.135833	 -0.468264,
  0.710608	  0.496443	 -0.498580,
  0.647484	  0.608939	 -0.458212,
  0.581398	  0.317629	 -0.749058,
  0.422971	  0.197432	 -0.884373,
 -0.039320	  0.388911	 -0.920436,
 -0.842083	  0.034766	 -0.538226,
 -0.881732	 -0.073399	  0.466006,
 -0.036422	 -0.149205	  0.988135,
  0.660989	 -0.153962	  0.734432,
  0.984969	 -0.012013	  0.172311,
  0.865354	  0.102308	 -0.490607,
  0.259468	  0.172463	 -0.950228,
 -0.083507	  0.258589	 -0.962371,
 -0.290809	  0.234429	 -0.927617,
 -0.390171	  0.219273	 -0.894251,
 -0.903953	  0.023253	 -0.426998,
 -0.865149	 -0.039171	  0.499982,
 -0.087438	 -0.198955	  0.976100,
  0.668202	 -0.244686	  0.702591,
  0.992697	 -0.092750	  0.077140,
  0.892843	  0.072878	 -0.444432,
  0.242990	  0.182403	 -0.952725,
 -0.431048	  0.215062	 -0.876325,
 -0.924159	  0.089766	 -0.371312,
 -0.921504	  0.144692	 -0.360409,
 -0.820068	 -0.035541	  0.571162,
 -0.211905	 -0.238528	  0.947734,
  0.549788	 -0.288847	  0.783773,
  0.984297	 -0.165882	  0.060357,
  0.883714	 -0.011589	 -0.467885,
  0.329598	  0.165633	 -0.929479,
 -0.465597	  0.217140	 -0.857945,
 -0.929856	  0.160301	 -0.331167,
 -0.808208	 -0.048141	  0.586927,
 -0.274802	 -0.251736	  0.927962,
  0.373220	 -0.281638	  0.883961,
  0.974569	 -0.184839	  0.126687,
  0.846538	 -0.034292	 -0.531223,
  0.356047	  0.127992	 -0.925661,
 -0.478814	  0.202431	 -0.854259,
 -0.950955	  0.121990	 -0.284258,
 -0.828330	 -0.079686	  0.554545,
 -0.228030	 -0.289505	  0.929618,
  0.394772	 -0.448143	  0.802074,
  0.945358	 -0.269598	  0.183343,
  0.801364	 -0.044428	 -0.596525,
  0.270218	  0.097222	 -0.957878,
 -0.506798	  0.165511	 -0.846027,
 -0.948653	  0.086307	 -0.304316,
 -0.840286	 -0.136675	  0.524633,
 -0.265231	 -0.200872	  0.943029,
  0.437929	 -0.416758	  0.796574,
  0.916341	 -0.391048	  0.086030,
  0.788503	 -0.084815	 -0.609155,
  0.248760	  0.098042	 -0.963590,
 -0.561887	  0.115801	 -0.819069,
 -0.933131	  0.134972	 -0.333241,
 -0.874294	 -0.117171	  0.471042,
 -0.127328	  0.347248	  0.929089,
  0.177020	  0.256462	  0.950206,
  0.761315	  0.328335	  0.559103,
  0.796387	  0.475251	 -0.374037,
  0.416913	  0.621749	 -0.663032,
 -0.208915	  0.747391	 -0.630683,
 -0.723921	  0.667731	 -0.173417,
 -0.691821	  0.600638	  0.400771,
  0.126955	  0.956066	  0.264235,
]
}
normalIndex [
   0,	   1,	   2, -1
   0,	   2,	   3, -1
   4,	   1,	   0, -1
   5,	   0,	   3, -1
   6,	   4,	   0, -1
   6,	   0,	   5, -1
   4,	   7,	   1, -1
   1,	   8,	   9, -1
   1,	   9,	   2, -1
   7,	   8,	   1, -1
   2,	   9,	  10, -1
   3,	   2,	  10, -1
   5,	   3,	  11, -1
  11,	   3,	  10, -1
  12,	   7,	   4, -1
  13,	  12,	   4, -1
  13,	   4,	   6, -1
  14,	   5,	  11, -1
  15,	   6,	   5, -1
  15,	   5,	  14, -1
  16,	  13,	   6, -1
  16,	   6,	  15, -1
   7,	  17,	   8, -1
  12,	  18,	   7, -1
  18,	  17,	   7, -1
   8,	  19,	  20, -1
   8,	  20,	   9, -1
  17,	  19,	   8, -1
   9,	  20,	  10, -1
  21,	  11,	  10, -1
  22,	  21,	  10, -1
  23,	  22,	  10, -1
  20,	  23,	  10, -1
  14,	  11,	  21, -1
  24,	  18,	  12, -1
  25,	  24,	  12, -1
  25,	  12,	  13, -1
  26,	  25,	  13, -1
  26,	  13,	  16, -1
  27,	  14,	  22, -1
  28,	  15,	  14, -1
  28,	  14,	  27, -1
  21,	  22,	  14, -1
  29,	  16,	  15, -1
  29,	  15,	  28, -1
  30,	  26,	  16, -1
  30,	  16,	  29, -1
  18,	  31,	  17, -1
  17,	  32,	  19, -1
  31,	  32,	  17, -1
  24,	  33,	  18, -1
  33,	  31,	  18, -1
  19,	  34,	  23, -1
  19,	  23,	  20, -1
  32,	  34,	  19, -1
  34,	  27,	  22, -1
  34,	  22,	  23, -1
  35,	  33,	  24, -1
  36,	  35,	  24, -1
  36,	  24,	  25, -1
  37,	  36,	  25, -1
  37,	  25,	  26, -1
  38,	  37,	  26, -1
  38,	  26,	  30, -1
  39,	  28,	  27, -1
  39,	  27,	  34, -1
  40,	  29,	  28, -1
  40,	  28,	  39, -1
  41,	  30,	  29, -1
  41,	  29,	  40, -1
  42,	  38,	  30, -1
  42,	  30,	  41, -1
  31,	  43,	  32, -1
  33,	  44,	  31, -1
  44,	  43,	  31, -1
  32,	  39,	  34, -1
  43,	  39,	  32, -1
  35,	  45,	  33, -1
  45,	  44,	  33, -1
  46,	  45,	  35, -1
  47,	  46,	  35, -1
  47,	  35,	  36, -1
  48,	  47,	  36, -1
  48,	  36,	  37, -1
  49,	  48,	  37, -1
  49,	  37,	  38, -1
  50,	  49,	  38, -1
  50,	  38,	  42, -1
  43,	  40,	  39, -1
  51,	  41,	  40, -1
  51,	  40,	  43, -1
  52,	  42,	  41, -1
  52,	  41,	  51, -1
  53,	  50,	  42, -1
  53,	  42,	  52, -1
  44,	  51,	  43, -1
  45,	  54,	  44, -1
  54,	  51,	  44, -1
  46,	  55,	  45, -1
  55,	  54,	  45, -1
  56,	  55,	  46, -1
  57,	  56,	  46, -1
  57,	  46,	  47, -1
  58,	  57,	  47, -1
  58,	  47,	  48, -1
  59,	  58,	  48, -1
  59,	  48,	  49, -1
  60,	  59,	  49, -1
  60,	  49,	  50, -1
  61,	  60,	  50, -1
  61,	  50,	  53, -1
  54,	  52,	  51, -1
  62,	  53,	  52, -1
  62,	  52,	  54, -1
  63,	  61,	  53, -1
  63,	  53,	  62, -1
  55,	  62,	  54, -1
  56,	  64,	  55, -1
  64,	  62,	  55, -1
  65,	  64,	  56, -1
  66,	  65,	  56, -1
  66,	  56,	  57, -1
  67,	  66,	  57, -1
  67,	  57,	  58, -1
  68,	  67,	  58, -1
  68,	  58,	  59, -1
  69,	  68,	  59, -1
  69,	  59,	  60, -1
  70,	  69,	  60, -1
  70,	  60,	  61, -1
  71,	  70,	  61, -1
  71,	  61,	  63, -1
  64,	  63,	  62, -1
  72,	  71,	  63, -1
  72,	  63,	  64, -1
  65,	  72,	  64, -1
  73,	  72,	  65, -1
  74,	  73,	  65, -1
  74,	  65,	  66, -1
  75,	  74,	  66, -1
  75,	  66,	  67, -1
  76,	  75,	  67, -1
  76,	  67,	  68, -1
  77,	  76,	  68, -1
  77,	  68,	  69, -1
  78,	  77,	  69, -1
  78,	  69,	  70, -1
  79,	  78,	  70, -1
  79,	  70,	  71, -1
  80,	  79,	  71, -1
  80,	  71,	  72, -1
  73,	  80,	  72, -1
  81,	  80,	  73, -1
  82,	  81,	  73, -1
  82,	  73,	  74, -1
  83,	  82,	  74, -1
  83,	  74,	  75, -1
  84,	  83,	  75, -1
  84,	  75,	  76, -1
  85,	  84,	  76, -1
  85,	  76,	  77, -1
  86,	  85,	  77, -1
  86,	  77,	  78, -1
  87,	  86,	  78, -1
  87,	  78,	  79, -1
  88,	  87,	  79, -1
  88,	  79,	  80, -1
  81,	  88,	  80, -1
  89,	  88,	  81, -1
  90,	  89,	  81, -1
  90,	  81,	  82, -1
  91,	  90,	  82, -1
  91,	  82,	  83, -1
  92,	  91,	  83, -1
  92,	  83,	  84, -1
  93,	  92,	  84, -1
  93,	  84,	  85, -1
  94,	  93,	  85, -1
  94,	  85,	  86, -1
  95,	  94,	  86, -1
  95,	  86,	  87, -1
  96,	  95,	  87, -1
  96,	  87,	  88, -1
  89,	  96,	  88, -1
  97,	  96,	  89, -1
  98,	  97,	  89, -1
  98,	  89,	  90, -1
  99,	  98,	  90, -1
  99,	  90,	  91, -1
 100,	  99,	  91, -1
 100,	  91,	  92, -1
 101,	 100,	  92, -1
 101,	  92,	  93, -1
 102,	 101,	  93, -1
 102,	  93,	  94, -1
 103,	 102,	  94, -1
 103,	  94,	  95, -1
 104,	 103,	  95, -1
 104,	  95,	  96, -1
  97,	 104,	  96, -1
 105,	 104,	  97, -1
 105,	  97,	  98, -1
 105,	  98,	  99, -1
 105,	  99,	 100, -1
 105,	 100,	 101, -1
 105,	 101,	 102, -1
 105,	 102,	 103, -1
 105,	 103,	 104, -1
]
normalPerVertex TRUE
}
}
]
}
