# 
# Wavefront OBJ file
# Converted by the DEEP Exploration 2.00.1211
# Right Hemisphere, LTD
# http://www.righthemisphere.com/
# 
mtllib metacarpal2_r.mtl
# object Object #0
g Object__0
v -0.004883 -0.060548 0.043056
v -0.009422 -0.063729 0.044793
v -0.005992 -0.064859 0.04397
v 0.002097 -0.062205 0.044918
v -0.00213 -0.064259 0.043884
v -0.005017 -0.066529 0.044897
v -0.007106 -0.059055 0.043249
v -0.004818 -0.054498 0.041567
v -0.001208 -0.058292 0.043087
v -0.006826 -0.065084 0.035499
v -0.006377 -0.06661 0.040894
v -0.004645 -0.068632 0.043131
v -0.009302 -0.057446 0.043579
v -0.008497 -0.061529 0.039
v 0.003087 -0.064167 0.042651
v 0.000846 -0.065718 0.042999
v -0.000719 -0.067753 0.042665
v 0.002775 -0.055915 0.042805
v 0.002921 -0.060242 0.042502
v -0.002399 -0.068549 0.040581
v -0.007447 -0.053197 0.040985
v -0.005661 -0.048856 0.038999
v -0.001833 -0.052539 0.040562
v -0.003195 -0.065351 0.033372
v -0.004748 -0.067212 0.036833
v -0.004618 -0.068992 0.040156
v -0.008438 -0.059854 0.032128
v -0.005298 -0.062505 0.032825
v -0.010006 -0.051989 0.039794
v -0.009172 -0.055742 0.036463
v 0.004384 -0.064895 0.035721
v -0.000218 -0.069272 0.037151
v -0.00108 -0.068746 0.041764
v 0.003722 -0.058678 0.039631
v 0.004123 -0.061735 0.038023
v 0.00037 -0.050888 0.038877
v 0.002041 -0.054517 0.039639
v 0.000141 -0.068853 0.035398
v -0.004353 -0.069421 0.038301
v -0.008128 -0.047565 0.037906
v -0.006547 -0.043236 0.036274
v -0.003508 -0.04709 0.037485
v 0.00409 -0.065323 0.031598
v -0.00083 -0.067236 0.034667
v -0.002733 -0.059733 0.030298
v 0.00049 -0.062368 0.031294
v -0.008944 -0.053683 0.030353
v -0.006108 -0.056717 0.030342
v -0.010298 -0.046179 0.036558
v -0.009633 -0.049784 0.033949
v 0.002099 -0.067086 0.034967
v 0.005298 -0.059201 0.034092
v 0.004392 -0.062122 0.03283
v 0.001297 -0.052585 0.037241
v 0.002992 -0.055995 0.036078
v -0.002196 -0.045379 0.035791
v -0.000266 -0.048916 0.036697
v -0.008616 -0.041786 0.035061
v -0.006803 -0.037393 0.034029
v -0.004732 -0.041269 0.034941
v 0.003796 -0.059065 0.029909
v -0.004316 -0.053599 0.028588
v -0.001066 -0.056848 0.029974
v -0.009283 -0.047287 0.029088
v -0.007265 -0.050584 0.028696
v -0.010813 -0.040338 0.033384
v -0.010092 -0.04371 0.031657
v 0.00165 -0.053517 0.033349
v 0.002433 -0.056695 0.032112
v -0.000537 -0.046813 0.034878
v 0.000265 -0.050351 0.034061
v -0.003383 -0.039068 0.03367
v -0.001871 -0.043095 0.034001
v -0.008698 -0.035879 0.032507
v -0.006432 -0.031537 0.031856
v -0.004917 -0.03523 0.032615
v -0.001014 -0.054995 0.0311
v -0.006515 -0.047764 0.026758
v -0.003633 -0.051229 0.028911
v -0.009974 -0.041039 0.027602
v -0.00854 -0.044432 0.027301
v -0.010741 -0.034249 0.030761
v -0.010479 -0.037619 0.0294
v -0.001351 -0.048492 0.030776
v -0.000851 -0.051391 0.031106
v -0.001367 -0.041119 0.031666
v -0.001383 -0.044784 0.031385
v -0.003048 -0.03292 0.030907
v -0.002369 -0.037047 0.031306
v -0.008225 -0.02986 0.030241
v -0.005726 -0.025707 0.029683
v -0.00436 -0.02919 0.030283
v -0.002689 -0.04856 0.029197
v -0.008387 -0.041637 0.025756
v -0.005302 -0.045063 0.027076
v -0.010389 -0.034849 0.025853
v -0.009464 -0.038201 0.02597
v -0.010002 -0.02795 0.028666
v -0.010353 -0.031429 0.02731
v -0.002277 -0.042714 0.028219
v -0.002483 -0.045514 0.028696
v -0.001677 -0.035079 0.028977
v -0.001908 -0.038852 0.028701
v -0.002235 -0.026594 0.028688
v -0.002138 -0.030817 0.028966
v -0.007517 -0.023764 0.028227
v -0.005219 -0.019747 0.02785
v -0.003784 -0.022994 0.028482
v -0.003617 -0.042292 0.026593
v -0.009109 -0.035282 0.02467
v -0.006355 -0.03889 0.025294
v -0.010281 -0.028667 0.023957
v -0.009671 -0.031943 0.024364
v -0.009121 -0.021652 0.026707
v -0.009797 -0.025191 0.025359
v -0.002311 -0.036496 0.02594
v -0.003127 -0.039463 0.026228
v -0.001594 -0.028676 0.027291
v -0.001999 -0.032604 0.026572
v -0.001954 -0.01993 0.027708
v -0.001649 -0.02437 0.027374
v -0.006892 -0.017587 0.026466
v -0.004897 -0.013648 0.026454
v -0.003625 -0.016655 0.027226
v -0.004305 -0.03635 0.024159
v -0.008907 -0.028975 0.022975
v -0.006662 -0.032682 0.023447
v -0.009783 -0.022496 0.022109
v -0.009313 -0.025741 0.022496
v -0.00833 -0.015303 0.024853
v -0.009125 -0.018935 0.023517
v -0.002412 -0.030165 0.024078
v -0.003338 -0.033283 0.02404
v -0.000814 -0.022282 0.025809
v -0.00173 -0.026276 0.024875
v -0.00243 -0.013298 0.02689
v -0.001248 -0.017893 0.026044
v -0.006464 -0.011352 0.024904
v -0.004467 -0.007483 0.025437
v -0.003448 -0.01022 0.026092
v -0.004325 -0.03012 0.021983
v -0.008283 -0.022825 0.020943
v -0.00628 -0.026424 0.021468
v -0.009266 -0.016291 0.020398
v -0.008736 -0.019579 0.020572
v -0.008159 -0.008973 0.02287
v -0.008706 -0.012649 0.021736
v -0.002099 -0.023981 0.022323
v -0.00311 -0.027011 0.022089
v 0.000205 -0.016063 0.02377
v -0.00081 -0.0201 0.023007
v -0.001997 -0.006454 0.025586
v -0.000689 -0.011425 0.024519
v -0.006372 -0.005137 0.023162
v -0.004498 -0.001356 0.024159
v -0.002379 -0.00405 0.025146
v -0.003606 -0.023777 0.019969
v -0.007613 -0.016706 0.01884
v -0.005459 -0.020218 0.019404
v -0.009068 -0.01003 0.018824
v -0.008272 -0.013424 0.018629
v -0.008365 -0.002737 0.020183
v -0.008715 -0.006423 0.01963
v -0.000533 -0.018074 0.020127
v -0.002143 -0.020849 0.020071
v 0.001467 -0.009885 0.02183
v 0.000483 -0.014064 0.020842
v 0.001446 -0.000906 0.025403
v 0.001246 -0.005267 0.023631
v -0.005533 0.001397 0.022349
v -0.003524 0.004442 0.024019
v -0.000694 0.001233 0.024396
v -0.002335 -0.017564 0.017866
v -0.007142 -0.010673 0.016455
v -0.004695 -0.014176 0.017022
v -0.009266 -0.003954 0.016643
v -0.008176 -0.007401 0.016322
v -0.005745 0.005239 0.021033
v -0.007932 0.000116 0.018175
v 0.000793 -0.012236 0.017644
v -0.000941 -0.014909 0.017641
v 0.004071 -0.003821 0.021705
v 0.002209 -0.008157 0.018985
v 0.0038 0.002753 0.024004
v 0.003497 0.000102 0.022991
v -0.002792 0.003486 0.017742
v -0.00169 -0.011761 0.014927
v -0.007231 -0.004946 0.013367
v -0.004547 -0.008286 0.014215
v -0.008352 0.001917 0.014843
v -0.008098 -0.001401 0.014397
v 0.002509 -0.006683 0.014759
v -0.000128 -0.009112 0.01486
v 0.004671 0.002382 0.020849
v 0.00354 -0.002154 0.017613
v 0.003304 0.00237 0.011457
v -0.003295 0.002926 0.011038
v -0.007545 0.001377 0.012739
v -0.002125 -0.005765 0.01211
v -0.005049 -0.00193 0.012311
v -0.000816 -0.002948 0.011714
# 201 verticies
vn -0.014967 0.218473 0.975728
vn -0.580652 -0.280139 0.764438
vn -0.250766 -0.035337 0.967403
vn 0.368869 -0.116867 0.922105
vn 0.058559 -0.045375 0.997252
vn -0.018858 -0.297439 0.954555
vn 0.254467 0.203586 0.94541
vn 0.04016 0.356105 0.933583
vn -0.142436 0.284279 0.948102
vn -0.700704 -0.588328 -0.403589
vn -0.775717 -0.628973 -0.051533
vn -0.340434 -0.800201 0.493744
vn -0.71251 0.203073 0.671633
vn -0.97403 -0.182178 -0.13445
vn 0.859462 -0.334341 0.386705
vn 0.570674 -0.573527 0.587706
vn 0.188152 -0.58923 0.785752
vn 0.597401 0.431249 0.676118
vn 0.948513 0.031668 0.315151
vn -0.055124 -0.951644 0.302217
vn -0.060465 0.48843 0.870506
vn 0.016799 0.464448 0.885441
vn 0.073042 0.535559 0.841333
vn -0.335513 -0.566098 -0.75297
vn -0.682464 -0.592267 -0.428326
vn -0.561841 -0.826793 -0.027339
vn -0.758436 -0.359743 -0.54347
vn -0.352929 -0.504684 -0.787867
vn -0.807306 0.248145 0.535427
vn -0.988704 -0.134704 -0.065728
vn 0.918177 -0.391465 0.060877
vn 0.385579 -0.922142 0.03136
vn 0.267516 -0.820872 0.504583
vn 0.960063 0.219197 0.17387
vn 0.972334 -0.038691 0.230368
vn 0.627243 0.583444 0.515906
vn 0.917314 0.398163 0.000471
vn 0.042273 -0.927576 -0.371236
vn -0.403886 -0.846447 -0.346992
vn -0.211414 0.434696 0.87541
vn 0.017083 0.420469 0.907146
vn 0.25866 0.509775 0.820503
vn 0.453589 -0.61193 -0.647919
vn -0.270968 -0.634402 -0.723955
vn -0.152891 -0.34821 -0.924864
vn -0.122256 -0.368658 -0.92149
vn -0.791919 -0.217868 -0.570437
vn -0.308427 -0.307267 -0.900255
vn -0.842809 0.202073 0.498838
vn -0.990059 -0.090921 -0.107315
vn 0.67857 -0.734536 0.000319
vn 0.971314 0.225283 -0.076131
vn 0.972694 -0.109177 -0.204811
vn 0.916523 0.395502 0.059706
vn 0.874079 0.476497 0.09453
vn 0.547732 0.467152 0.694088
vn 0.835539 0.46531 0.292167
vn -0.325018 0.378827 0.866518
vn -0.050471 0.366271 0.929138
vn 0.270623 0.353756 0.895332
vn 0.526696 0.167304 -0.833427
vn 0.082308 -0.189486 -0.978428
vn 0.278984 0.159707 -0.946922
vn -0.866434 -0.197942 -0.458378
vn -0.485394 -0.308489 -0.818063
vn -0.873929 0.173544 0.454016
vn -0.982535 -0.143655 -0.118276
vn 0.833914 0.366716 -0.41244
vn 0.623357 0.568004 -0.537399
vn 0.937561 0.314201 0.149188
vn 0.92588 0.342131 -0.160289
vn 0.573964 0.335403 0.747041
vn 0.758468 0.366261 0.539054
vn -0.414422 0.352003 0.839255
vn -0.038128 0.353798 0.934544
vn 0.323329 0.342931 0.881962
vn 0.573352 0.240582 -0.783191
vn -0.076287 -0.251548 -0.964834
vn 0.554095 -0.076435 -0.828937
vn -0.904855 -0.182347 -0.384692
vn -0.705801 -0.277526 -0.651786
vn -0.856854 0.220304 0.466119
vn -0.992811 -0.063782 -0.101285
vn 0.878617 0.074594 -0.471665
vn 0.7004 0.008461 -0.713701
vn 0.97674 0.15835 0.144586
vn 0.971283 0.030111 -0.236016
vn 0.649389 0.235716 0.723002
vn 0.844174 0.217798 0.489832
vn -0.407562 0.34616 0.845024
vn -0.048427 0.314532 0.948011
vn 0.345813 0.280505 0.895394
vn 0.618238 -0.120825 -0.776648
vn -0.3412 -0.247044 -0.906947
vn 0.326073 -0.192371 -0.925565
vn -0.908614 -0.123982 -0.398809
vn -0.741726 -0.211064 -0.636627
vn -0.809307 0.26218 0.525627
vn -0.99793 0.062386 -0.015613
vn 0.87849 -0.111797 -0.464496
vn 0.748465 -0.160565 -0.643444
vn 0.988826 0.056649 0.137891
vn 0.977006 -0.055971 -0.205732
vn 0.657755 0.138222 0.740441
vn 0.895502 0.072424 0.439125
vn -0.387704 0.312096 0.867342
vn -0.175402 0.256213 0.950573
vn 0.18961 0.203505 0.960538
vn 0.454739 -0.261424 -0.851393
vn -0.44036 -0.23282 -0.867109
vn -0.016714 -0.276972 -0.960733
vn -0.91052 -0.066002 -0.408162
vn -0.65151 -0.194703 -0.733229
vn -0.792804 0.256652 0.552804
vn -0.988096 0.132779 0.077692
vn 0.864455 -0.149431 -0.479988
vn 0.679337 -0.229446 -0.697034
vn 0.99315 -0.036513 0.110994
vn 0.97798 -0.054735 -0.201394
vn 0.535579 0.125641 0.835086
vn 0.88953 0.014077 0.45666
vn -0.448159 0.262666 0.854494
vn -0.332038 0.207523 0.920155
vn -0.063498 0.171173 0.983193
vn 0.282058 -0.30457 -0.909769
vn -0.443361 -0.235496 -0.864854
vn -0.217029 -0.285041 -0.933622
vn -0.930049 -0.025179 -0.366571
vn -0.613901 -0.185697 -0.767231
vn -0.81366 0.208895 0.542513
vn -0.979219 0.142766 0.14404
vn 0.878279 -0.158543 -0.451098
vn 0.681337 -0.218096 -0.698723
vn 0.984377 -0.090448 0.151066
vn 0.962026 -0.143292 -0.232323
vn 0.380692 0.147501 0.912862
vn 0.842383 0.084222 0.532257
vn -0.560099 0.217773 0.79929
vn -0.398499 0.190848 0.897093
vn -0.16586 0.183541 0.968919
vn 0.267497 -0.30662 -0.913471
vn -0.452278 -0.23641 -0.859974
vn -0.258515 -0.272417 -0.9268
vn -0.955426 -0.026323 -0.294054
vn -0.665142 -0.161551 -0.729031
vn -0.848985 0.166057 0.501646
vn -0.977808 0.082979 0.19237
vn 0.879843 -0.26264 -0.396103
vn 0.762895 -0.242762 -0.599215
vn 0.956223 -0.087848 0.279143
vn 0.957142 -0.2533 -0.140425
vn 0.294723 0.030075 0.955109
vn 0.772597 0.056969 0.632336
vn -0.681315 0.210253 0.701144
vn -0.476712 0.170353 0.862395
vn -0.180376 0.172487 0.968356
vn 0.309794 -0.342704 -0.886895
vn -0.489339 -0.259293 -0.832655
vn -0.233666 -0.280797 -0.930889
vn -0.975343 -0.070826 -0.209022
vn -0.747418 -0.166453 -0.643163
vn -0.875504 0.189055 0.444691
vn -0.974742 0.053651 0.216792
vn 0.865922 -0.343336 -0.363729
vn 0.725351 -0.374792 -0.577406
vn 0.899383 -0.219765 0.377908
vn 0.972503 -0.22761 -0.049308
vn 0.311901 -0.012959 0.950026
vn 0.603593 -0.294451 0.740928
vn -0.750868 0.161511 0.6404
vn -0.230826 0.596901 0.768393
vn -0.080501 0.203009 0.975862
vn 0.255426 -0.411671 -0.874806
vn -0.571343 -0.325781 -0.753282
vn -0.273643 -0.372949 -0.886582
vn -0.988253 0.009936 -0.152503
vn -0.82316 -0.248079 -0.510749
vn -0.712644 0.643383 0.279637
vn -0.943255 0.254236 0.213622
vn 0.842442 -0.387873 -0.37396
vn 0.651379 -0.408112 -0.639648
vn 0.928597 -0.230303 0.290979
vn 0.935453 -0.353093 -0.015925
vn 0.546684 0.512142 0.662455
vn 0.85954 -0.158755 0.485786
vn 0.077603 0.984752 -0.155697
vn 0.175845 -0.449531 -0.875785
vn -0.619505 -0.245169 -0.745725
vn -0.302075 -0.439646 -0.84585
vn -0.834287 0.497717 -0.237155
vn -0.894153 -0.044605 -0.445534
vn 0.775673 -0.360822 -0.517822
vn 0.503103 -0.425329 -0.752318
vn 0.938611 0.336293 0.07692
vn 0.979254 -0.127866 -0.157198
vn 0.718046 0.341976 -0.606187
vn -0.19313 0.328555 -0.924528
vn -0.655468 0.341938 -0.673379
vn 0.025531 -0.319824 -0.947133
vn -0.290218 -0.134149 -0.947511
vn 0.216959 -0.226216 -0.949608
# 201 normals
usemtl Material__1
f  1//1 2//2 3//3
f  4//4 1//1 5//5
f  6//6 1//1 3//3
f  2//2 1//1 7//7
f  1//1 8//8 7//7
f  1//1 6//6 5//5
f  8//8 1//1 9//9
f  1//1 4//4 9//9
f  2//2 10//10 11//11
f  2//2 12//12 3//3
f  13//13 2//2 7//7
f  12//12 2//2 11//11
f  10//10 2//2 14//14
f  2//2 13//13 14//14
f  12//12 6//6 3//3
f  15//15 4//4 16//16
f  4//4 17//17 16//16
f  18//18 4//4 19//19
f  4//4 15//15 19//19
f  17//17 4//4 5//5
f  4//4 18//18 9//9
f  6//6 17//17 5//5
f  6//6 12//12 20//20
f  17//17 6//6 20//20
f  8//8 13//13 7//7
f  18//18 8//8 9//9
f  13//13 8//8 21//21
f  8//8 22//22 21//21
f  22//22 8//8 23//23
f  8//8 18//18 23//23
f  10//10 24//24 25//25
f  10//10 26//26 11//11
f  27//27 10//10 14//14
f  26//26 10//10 25//25
f  24//24 10//10 28//28
f  10//10 27//27 28//28
f  26//26 12//12 11//11
f  12//12 26//26 20//20
f  13//13 27//27 14//14
f  29//29 13//13 21//21
f  27//27 13//13 30//30
f  13//13 29//29 30//30
f  31//31 15//15 32//32
f  33//33 32//32 15//15
f  34//34 15//15 35//35
f  15//15 31//31 35//35
f  33//33 15//15 16//16
f  15//15 34//34 19//19
f  17//17 33//33 16//16
f  33//33 17//17 20//20
f  34//34 18//18 19//19
f  36//36 18//18 37//37
f  18//18 34//34 37//37
f  18//18 36//36 23//23
f  32//32 33//33 20//20
f  38//38 32//32 20//20
f  39//39 38//38 20//20
f  26//26 39//39 20//20
f  22//22 29//29 21//21
f  36//36 22//22 23//23
f  29//29 22//22 40//40
f  22//22 41//41 40//40
f  41//41 22//22 42//42
f  22//22 36//36 42//42
f  24//24 43//43 44//44
f  24//24 39//39 25//25
f  45//45 24//24 28//28
f  39//39 24//24 44//44
f  43//43 24//24 46//46
f  24//24 45//45 46//46
f  39//39 26//26 25//25
f  27//27 45//45 28//28
f  47//47 27//27 30//30
f  45//45 27//27 48//48
f  27//27 47//47 48//48
f  29//29 47//47 30//30
f  49//49 29//29 40//40
f  47//47 29//29 50//50
f  29//29 49//49 50//50
f  43//43 31//31 51//51
f  31//31 32//32 51//51
f  52//52 31//31 53//53
f  31//31 43//43 53//53
f  31//31 52//52 35//35
f  32//32 38//38 51//51
f  52//52 34//34 35//35
f  54//54 34//34 55//55
f  34//34 52//52 55//55
f  34//34 54//54 37//37
f  54//54 36//36 37//37
f  56//56 36//36 57//57
f  36//36 54//54 57//57
f  36//36 56//56 42//42
f  43//43 38//38 44//44
f  38//38 39//39 44//44
f  38//38 43//43 51//51
f  41//41 49//49 40//40
f  56//56 41//41 42//42
f  49//49 41//41 58//58
f  41//41 59//59 58//58
f  59//59 41//41 60//60
f  41//41 56//56 60//60
f  61//61 43//43 46//46
f  43//43 61//61 53//53
f  45//45 61//61 46//46
f  62//62 45//45 48//48
f  61//61 45//45 63//63
f  45//45 62//62 63//63
f  47//47 62//62 48//48
f  64//64 47//47 50//50
f  62//62 47//47 65//65
f  47//47 64//64 65//65
f  49//49 64//64 50//50
f  66//66 49//49 58//58
f  64//64 49//49 67//67
f  49//49 66//66 67//67
f  61//61 52//52 53//53
f  68//68 52//52 69//69
f  52//52 61//61 69//69
f  52//52 68//68 55//55
f  68//68 54//54 55//55
f  70//70 54//54 71//71
f  54//54 68//68 71//71
f  54//54 70//70 57//57
f  70//70 56//56 57//57
f  72//72 56//56 73//73
f  56//56 70//70 73//73
f  56//56 72//72 60//60
f  59//59 66//66 58//58
f  72//72 59//59 60//60
f  66//66 59//59 74//74
f  59//59 75//75 74//74
f  75//75 59//59 76//76
f  59//59 72//72 76//76
f  77//77 61//61 63//63
f  61//61 77//77 69//69
f  62//62 77//77 63//63
f  78//78 62//62 65//65
f  77//77 62//62 79//79
f  62//62 78//78 79//79
f  64//64 78//78 65//65
f  80//80 64//64 67//67
f  78//78 64//64 81//81
f  64//64 80//80 81//81
f  66//66 80//80 67//67
f  82//82 66//66 74//74
f  80//80 66//66 83//83
f  66//66 82//82 83//83
f  77//77 68//68 69//69
f  84//84 68//68 85//85
f  68//68 77//77 85//85
f  68//68 84//84 71//71
f  84//84 70//70 71//71
f  86//86 70//70 87//87
f  70//70 84//84 87//87
f  70//70 86//86 73//73
f  86//86 72//72 73//73
f  88//88 72//72 89//89
f  72//72 86//86 89//89
f  72//72 88//88 76//76
f  75//75 82//82 74//74
f  88//88 75//75 76//76
f  82//82 75//75 90//90
f  75//75 91//91 90//90
f  91//91 75//75 92//92
f  75//75 88//88 92//92
f  93//93 77//77 79//79
f  77//77 93//93 85//85
f  78//78 93//93 79//79
f  94//94 78//78 81//81
f  93//93 78//78 95//95
f  78//78 94//94 95//95
f  80//80 94//94 81//81
f  96//96 80//80 83//83
f  94//94 80//80 97//97
f  80//80 96//96 97//97
f  82//82 96//96 83//83
f  98//98 82//82 90//90
f  96//96 82//82 99//99
f  82//82 98//98 99//99
f  93//93 84//84 85//85
f  100//100 84//84 101//101
f  84//84 93//93 101//101
f  84//84 100//100 87//87
f  100//100 86//86 87//87
f  102//102 86//86 103//103
f  86//86 100//100 103//103
f  86//86 102//102 89//89
f  102//102 88//88 89//89
f  104//104 88//88 105//105
f  88//88 102//102 105//105
f  88//88 104//104 92//92
f  91//91 98//98 90//90
f  104//104 91//91 92//92
f  98//98 91//91 106//106
f  91//91 107//107 106//106
f  107//107 91//91 108//108
f  91//91 104//104 108//108
f  109//109 93//93 95//95
f  93//93 109//109 101//101
f  94//94 109//109 95//95
f  110//110 94//94 97//97
f  109//109 94//94 111//111
f  94//94 110//110 111//111
f  96//96 110//110 97//97
f  112//112 96//96 99//99
f  110//110 96//96 113//113
f  96//96 112//112 113//113
f  98//98 112//112 99//99
f  114//114 98//98 106//106
f  112//112 98//98 115//115
f  98//98 114//114 115//115
f  109//109 100//100 101//101
f  116//116 100//100 117//117
f  100//100 109//109 117//117
f  100//100 116//116 103//103
f  116//116 102//102 103//103
f  118//118 102//102 119//119
f  102//102 116//116 119//119
f  102//102 118//118 105//105
f  118//118 104//104 105//105
f  120//120 104//104 121//121
f  104//104 118//118 121//121
f  104//104 120//120 108//108
f  107//107 114//114 106//106
f  120//120 107//107 108//108
f  114//114 107//107 122//122
f  107//107 123//123 122//122
f  123//123 107//107 124//124
f  107//107 120//120 124//124
f  125//125 109//109 111//111
f  109//109 125//125 117//117
f  110//110 125//125 111//111
f  126//126 110//110 113//113
f  125//125 110//110 127//127
f  110//110 126//126 127//127
f  112//112 126//126 113//113
f  128//128 112//112 115//115
f  126//126 112//112 129//129
f  112//112 128//128 129//129
f  114//114 128//128 115//115
f  130//130 114//114 122//122
f  128//128 114//114 131//131
f  114//114 130//130 131//131
f  125//125 116//116 117//117
f  132//132 116//116 133//133
f  116//116 125//125 133//133
f  116//116 132//132 119//119
f  132//132 118//118 119//119
f  134//134 118//118 135//135
f  118//118 132//132 135//135
f  118//118 134//134 121//121
f  134//134 120//120 121//121
f  136//136 120//120 137//137
f  120//120 134//134 137//137
f  120//120 136//136 124//124
f  123//123 130//130 122//122
f  136//136 123//123 124//124
f  130//130 123//123 138//138
f  123//123 139//139 138//138
f  139//139 123//123 140//140
f  123//123 136//136 140//140
f  141//141 125//125 127//127
f  125//125 141//141 133//133
f  126//126 141//141 127//127
f  142//142 126//126 129//129
f  141//141 126//126 143//143
f  126//126 142//142 143//143
f  128//128 142//142 129//129
f  144//144 128//128 131//131
f  142//142 128//128 145//145
f  128//128 144//144 145//145
f  130//130 144//144 131//131
f  146//146 130//130 138//138
f  144//144 130//130 147//147
f  130//130 146//146 147//147
f  141//141 132//132 133//133
f  148//148 132//132 149//149
f  132//132 141//141 149//149
f  132//132 148//148 135//135
f  148//148 134//134 135//135
f  150//150 134//134 151//151
f  134//134 148//148 151//151
f  134//134 150//150 137//137
f  150//150 136//136 137//137
f  152//152 136//136 153//153
f  136//136 150//150 153//153
f  136//136 152//152 140//140
f  139//139 146//146 138//138
f  152//152 139//139 140//140
f  146//146 139//139 154//154
f  139//139 155//155 154//154
f  155//155 139//139 156//156
f  139//139 152//152 156//156
f  157//157 141//141 143//143
f  141//141 157//157 149//149
f  142//142 157//157 143//143
f  158//158 142//142 145//145
f  157//157 142//142 159//159
f  142//142 158//158 159//159
f  144//144 158//158 145//145
f  160//160 144//144 147//147
f  158//158 144//144 161//161
f  144//144 160//160 161//161
f  146//146 160//160 147//147
f  162//162 146//146 154//154
f  160//160 146//146 163//163
f  146//146 162//162 163//163
f  157//157 148//148 149//149
f  164//164 148//148 165//165
f  148//148 157//157 165//165
f  148//148 164//164 151//151
f  164//164 150//150 151//151
f  166//166 150//150 167//167
f  150//150 164//164 167//167
f  150//150 166//166 153//153
f  166//166 152//152 153//153
f  168//168 152//152 169//169
f  152//152 166//166 169//169
f  152//152 168//168 156//156
f  155//155 162//162 154//154
f  168//168 155//155 156//156
f  162//162 155//155 170//170
f  155//155 171//171 170//170
f  171//171 155//155 172//172
f  155//155 168//168 172//172
f  173//173 157//157 159//159
f  157//157 173//173 165//165
f  158//158 173//173 159//159
f  174//174 158//158 161//161
f  173//173 158//158 175//175
f  158//158 174//174 175//175
f  160//160 174//174 161//161
f  176//176 160//160 163//163
f  174//174 160//160 177//177
f  160//160 176//176 177//177
f  162//162 176//176 163//163
f  178//178 162//162 170//170
f  176//176 162//162 179//179
f  162//162 178//178 179//179
f  173//173 164//164 165//165
f  180//180 164//164 181//181
f  164//164 173//173 181//181
f  164//164 180//180 167//167
f  180//180 166//166 167//167
f  182//182 166//166 183//183
f  166//166 180//180 183//183
f  166//166 182//182 169//169
f  182//182 168//168 169//169
f  184//184 168//168 185//185
f  168//168 182//182 185//185
f  168//168 184//184 172//172
f  171//171 178//178 170//170
f  184//184 171//171 172//172
f  186//186 178//178 171//171
f  186//186 171//171 184//184
f  187//187 173//173 175//175
f  173//173 187//187 181//181
f  174//174 187//187 175//175
f  188//188 174//174 177//177
f  187//187 174//174 189//189
f  174//174 188//188 189//189
f  176//176 188//188 177//177
f  190//190 176//176 179//179
f  188//188 176//176 191//191
f  176//176 190//190 191//191
f  178//178 190//190 179//179
f  186//186 190//190 178//178
f  187//187 180//180 181//181
f  192//192 180//180 193//193
f  180//180 187//187 193//193
f  180//180 192//192 183//183
f  192//192 182//182 183//183
f  194//194 182//182 195//195
f  182//182 192//192 195//195
f  182//182 194//194 185//185
f  194//194 184//184 185//185
f  186//186 184//184 194//194
f  186//186 194//194 196//196
f  186//186 196//196 197//197
f  186//186 197//197 198//198
f  186//186 198//198 190//190
f  199//199 187//187 189//189
f  187//187 199//199 193//193
f  188//188 199//199 189//189
f  198//198 188//188 191//191
f  199//199 188//188 200//200
f  188//188 198//198 200//200
f  190//190 198//198 191//191
f  199//199 192//192 193//193
f  196//196 192//192 201//201
f  192//192 199//199 201//201
f  192//192 196//196 195//195
f  196//196 194//194 195//195
f  197//197 196//196 201//201
f  198//198 197//197 200//200
f  197//197 199//199 200//200
f  199//199 197//197 201//201
