#VRML V2.0 utf8
Transform {
children [
Shape {
appearance Appearance {
              material DEF surface Material {
              diffuseColor 0.8 0.8 0.8
              ambientIntensity 0.2
              specularColor 0.4 0.4 0.4
              emissiveColor 0 0 0
              shininess 0.25
              transparency 0
            }
          }
geometry IndexedFaceSet {
solid FALSE
coord DEF bone Coordinate {
point [
 -0.012641	 -0.068971	  0.031764,
 -0.015557	 -0.066549	  0.027524,
 -0.011899	 -0.063703	  0.028244,
 -0.012380	 -0.068410	  0.029609,
 -0.013185	 -0.067856	  0.033880,
 -0.011303	 -0.067763	  0.033879,
 -0.011402	 -0.059111	  0.026602,
 -0.014941	 -0.061931	  0.025613,
 -0.015296	 -0.063216	  0.034770,
 -0.006239	 -0.065621	  0.029222,
 -0.005340	 -0.060591	  0.028017,
 -0.009513	 -0.068191	  0.032520,
 -0.013352	 -0.067294	  0.035340,
 -0.010073	 -0.068425	  0.033467,
 -0.010264	 -0.066677	  0.036909,
 -0.010239	 -0.065611	  0.037955,
 -0.011862	 -0.054294	  0.025656,
 -0.007347	 -0.055556	  0.027899,
 -0.016554	 -0.058302	  0.034367,
 -0.015528	 -0.056683	  0.025575,
 -0.012828	 -0.062425	  0.037055,
 -0.006084	 -0.065863	  0.031776,
 -0.005472	 -0.060941	  0.031507,
 -0.007100	 -0.055915	  0.029910,
 -0.006363	 -0.063196	  0.036920,
 -0.007372	 -0.061605	  0.039753,
 -0.012388	 -0.049422	  0.024813,
 -0.009279	 -0.050591	  0.026985,
 -0.008294	 -0.051106	  0.028562,
 -0.016547	 -0.053502	  0.032740,
 -0.012347	 -0.057396	  0.036727,
 -0.015649	 -0.051455	  0.025111,
 -0.005261	 -0.058772	  0.035706,
 -0.007616	 -0.054753	  0.032947,
 -0.009856	 -0.050335	  0.031813,
 -0.007169	 -0.056788	  0.038077,
 -0.012303	 -0.044622	  0.023690,
 -0.009854	 -0.045543	  0.025381,
 -0.008851	 -0.045964	  0.028017,
 -0.010364	 -0.045435	  0.030783,
 -0.013185	 -0.052649	  0.034845,
 -0.016291	 -0.048788	  0.030716,
 -0.015935	 -0.046235	  0.024545,
 -0.010291	 -0.054691	  0.034502,
 -0.011201	 -0.049662	  0.032597,
 -0.011662	 -0.044425	  0.031383,
 -0.011708	 -0.039846	  0.022649,
 -0.009358	 -0.040312	  0.024592,
 -0.008864	 -0.040836	  0.027090,
 -0.010066	 -0.040376	  0.029568,
 -0.011940	 -0.039474	  0.030250,
 -0.014566	 -0.048042	  0.033041,
 -0.016369	 -0.044070	  0.028826,
 -0.015626	 -0.041104	  0.023634,
 -0.015507	 -0.043621	  0.030636,
 -0.015528	 -0.039014	  0.028432,
 -0.010850	 -0.035087	  0.021689,
 -0.008365	 -0.035211	  0.023469,
 -0.008348	 -0.035926	  0.025429,
 -0.009734	 -0.035434	  0.028015,
 -0.011612	 -0.034456	  0.028965,
 -0.014929	 -0.034162	  0.026843,
 -0.016281	 -0.039269	  0.027194,
 -0.014675	 -0.036076	  0.022426,
 -0.015808	 -0.034408	  0.025773,
 -0.010075	 -0.030398	  0.020407,
 -0.007537	 -0.030452	  0.021271,
 -0.007245	 -0.031116	  0.023784,
 -0.009072	 -0.030635	  0.026544,
 -0.010656	 -0.029436	  0.027681,
 -0.014074	 -0.029260	  0.025634,
 -0.015020	 -0.029575	  0.024407,
 -0.013587	 -0.031112	  0.021159,
 -0.009353	 -0.025816	  0.018737,
 -0.007283	 -0.025788	  0.018822,
 -0.006069	 -0.026164	  0.022635,
 -0.007768	 -0.025798	  0.025477,
 -0.009268	 -0.024525	  0.026274,
 -0.013199	 -0.024346	  0.024495,
 -0.014186	 -0.024783	  0.022940,
 -0.012545	 -0.026161	  0.019782,
 -0.008471	 -0.021364	  0.016814,
 -0.006677	 -0.020426	  0.017226,
 -0.004691	 -0.021285	  0.021488,
 -0.006713	 -0.020835	  0.024468,
 -0.008726	 -0.019425	  0.024975,
 -0.012543	 -0.019359	  0.023536,
 -0.013574	 -0.020016	  0.021292,
 -0.012021	 -0.021165	  0.018366,
 -0.007944	 -0.016643	  0.015391,
 -0.003142	 -0.017291	  0.017094,
 -0.002633	 -0.016950	  0.019241,
 -0.004922	 -0.016045	  0.023028,
 -0.008373	 -0.014370	  0.024315,
 -0.011911	 -0.014384	  0.022643,
 -0.012688	 -0.015154	  0.020048,
 -0.012515	 -0.016089	  0.016839,
 -0.006298	 -0.013419	  0.014489,
 -0.002063	 -0.014002	  0.016591,
 -0.000895	 -0.012900	  0.017474,
 -0.004447	 -0.011980	  0.023127,
 -0.007190	 -0.010815	  0.023429,
 -0.011519	 -0.010122	  0.021794,
 -0.012314	 -0.010478	  0.018860,
 -0.011366	 -0.012387	  0.014342,
 -0.007024	 -0.012303	  0.018715,
]
}
coordIndex [
   0,	   1,	   2, -1
   3,	   0,	   2, -1
   0,	   4,	   1, -1
   5,	   4,	   0, -1
   5,	   0,	   3, -1
   2,	   1,	   6, -1
   1,	   7,	   6, -1
   4,	   8,	   1, -1
   1,	   8,	   7, -1
   3,	   2,	   9, -1
   2,	   6,	  10, -1
   9,	   2,	  10, -1
  11,	   3,	   9, -1
   5,	   3,	  11, -1
   4,	  12,	   8, -1
   5,	  12,	   4, -1
   5,	  11,	  13, -1
   5,	  13,	  14, -1
   5,	  14,	  15, -1
   5,	  15,	  12, -1
   6,	   7,	  16, -1
   6,	  16,	  17, -1
  10,	   6,	  17, -1
   8,	  18,	   7, -1
   7,	  19,	  16, -1
   7,	  18,	  19, -1
  12,	  20,	   8, -1
   8,	  20,	  18, -1
  11,	   9,	  21, -1
   9,	  10,	  22, -1
  21,	   9,	  22, -1
  10,	  17,	  23, -1
  22,	  10,	  23, -1
  13,	  11,	  21, -1
  12,	  15,	  20, -1
  21,	  14,	  13, -1
  14,	  21,	  24, -1
  14,	  24,	  25, -1
  15,	  14,	  25, -1
  15,	  25,	  20, -1
  16,	  19,	  26, -1
  16,	  26,	  27, -1
  17,	  16,	  27, -1
  17,	  27,	  28, -1
  23,	  17,	  28, -1
  18,	  29,	  19, -1
  20,	  30,	  18, -1
  18,	  30,	  29, -1
  19,	  31,	  26, -1
  19,	  29,	  31, -1
  20,	  25,	  30, -1
  21,	  22,	  32, -1
  24,	  21,	  32, -1
  22,	  23,	  33, -1
  32,	  22,	  33, -1
  23,	  28,	  34, -1
  33,	  23,	  34, -1
  24,	  32,	  35, -1
  25,	  24,	  35, -1
  25,	  35,	  30, -1
  26,	  31,	  36, -1
  26,	  36,	  37, -1
  27,	  26,	  37, -1
  27,	  37,	  38, -1
  28,	  27,	  38, -1
  28,	  38,	  39, -1
  34,	  28,	  39, -1
  30,	  40,	  29, -1
  29,	  41,	  31, -1
  29,	  40,	  41, -1
  30,	  35,	  40, -1
  31,	  42,	  36, -1
  31,	  41,	  42, -1
  32,	  33,	  43, -1
  35,	  32,	  43, -1
  33,	  34,	  44, -1
  43,	  33,	  44, -1
  34,	  39,	  45, -1
  44,	  34,	  45, -1
  35,	  43,	  40, -1
  36,	  42,	  46, -1
  36,	  46,	  47, -1
  37,	  36,	  47, -1
  37,	  47,	  48, -1
  38,	  37,	  48, -1
  38,	  48,	  49, -1
  39,	  38,	  49, -1
  39,	  49,	  50, -1
  45,	  39,	  50, -1
  40,	  43,	  51, -1
  40,	  51,	  41, -1
  41,	  52,	  42, -1
  41,	  51,	  52, -1
  42,	  53,	  46, -1
  42,	  52,	  53, -1
  43,	  44,	  51, -1
  44,	  45,	  54, -1
  51,	  44,	  54, -1
  45,	  50,	  55, -1
  54,	  45,	  55, -1
  46,	  53,	  56, -1
  46,	  56,	  57, -1
  47,	  46,	  57, -1
  47,	  57,	  58, -1
  48,	  47,	  58, -1
  48,	  58,	  59, -1
  49,	  48,	  59, -1
  49,	  59,	  60, -1
  50,	  49,	  60, -1
  50,	  60,	  61, -1
  55,	  50,	  61, -1
  51,	  54,	  52, -1
  52,	  54,	  62, -1
  52,	  62,	  53, -1
  53,	  63,	  56, -1
  53,	  62,	  63, -1
  54,	  55,	  62, -1
  55,	  61,	  64, -1
  62,	  55,	  64, -1
  56,	  63,	  65, -1
  56,	  65,	  66, -1
  57,	  56,	  66, -1
  57,	  66,	  67, -1
  58,	  57,	  67, -1
  58,	  67,	  68, -1
  59,	  58,	  68, -1
  59,	  68,	  69, -1
  60,	  59,	  69, -1
  60,	  69,	  70, -1
  61,	  60,	  70, -1
  61,	  70,	  71, -1
  64,	  61,	  71, -1
  62,	  64,	  63, -1
  63,	  64,	  72, -1
  63,	  72,	  65, -1
  64,	  71,	  72, -1
  65,	  72,	  73, -1
  65,	  73,	  74, -1
  66,	  65,	  74, -1
  66,	  74,	  75, -1
  67,	  66,	  75, -1
  67,	  75,	  76, -1
  68,	  67,	  76, -1
  68,	  76,	  77, -1
  69,	  68,	  77, -1
  69,	  77,	  78, -1
  70,	  69,	  78, -1
  70,	  78,	  79, -1
  71,	  70,	  79, -1
  71,	  79,	  80, -1
  72,	  71,	  80, -1
  72,	  80,	  73, -1
  73,	  80,	  81, -1
  73,	  81,	  82, -1
  74,	  73,	  82, -1
  74,	  82,	  83, -1
  75,	  74,	  83, -1
  75,	  83,	  84, -1
  76,	  75,	  84, -1
  76,	  84,	  85, -1
  77,	  76,	  85, -1
  77,	  85,	  86, -1
  78,	  77,	  86, -1
  78,	  86,	  87, -1
  79,	  78,	  87, -1
  79,	  87,	  88, -1
  80,	  79,	  88, -1
  80,	  88,	  81, -1
  81,	  88,	  89, -1
  81,	  89,	  90, -1
  82,	  81,	  90, -1
  82,	  90,	  91, -1
  83,	  82,	  91, -1
  83,	  91,	  92, -1
  84,	  83,	  92, -1
  84,	  92,	  93, -1
  85,	  84,	  93, -1
  85,	  93,	  94, -1
  86,	  85,	  94, -1
  86,	  94,	  95, -1
  87,	  86,	  95, -1
  87,	  95,	  96, -1
  88,	  87,	  96, -1
  88,	  96,	  89, -1
  89,	  96,	  97, -1
  89,	  97,	  98, -1
  90,	  89,	  98, -1
  90,	  98,	  99, -1
  91,	  90,	  99, -1
  91,	  99,	 100, -1
  92,	  91,	 100, -1
  92,	 100,	 101, -1
  93,	  92,	 101, -1
  93,	 101,	 102, -1
  94,	  93,	 102, -1
  94,	 102,	 103, -1
  95,	  94,	 103, -1
  95,	 103,	 104, -1
  96,	  95,	 104, -1
  96,	 104,	  97, -1
  97,	 104,	 105, -1
  98,	  97,	 105, -1
  99,	  98,	 105, -1
 100,	  99,	 105, -1
 101,	 100,	 105, -1
 102,	 101,	 105, -1
 103,	 102,	 105, -1
 104,	 103,	 105, -1
]
colorPerVertex FALSE
colorIndex [
1,
1,
1,
1,
1,
1,
1,
1,
1,
1,
1,
1,
1,
1,
1,
1,
1,
1,
1,
1,
1,
1,
1,
1,
1,
1,
1,
1,
1,
1,
1,
1,
1,
1,
1,
1,
1,
1,
1,
1,
1,
1,
1,
1,
1,
1,
1,
1,
1,
1,
1,
1,
1,
1,
1,
1,
1,
1,
1,
1,
1,
1,
1,
1,
1,
1,
1,
1,
1,
1,
1,
1,
1,
1,
1,
1,
1,
1,
1,
1,
1,
1,
1,
1,
1,
1,
1,
1,
1,
1,
1,
1,
1,
1,
1,
1,
1,
1,
1,
1,
1,
1,
1,
1,
1,
1,
]
normal Normal {
vector [
 -0.174842	 -0.976326	 -0.127353,
 -0.504328	 -0.661667	 -0.554842,
 -0.189104	 -0.269488	 -0.944254,
 -0.080323	 -0.866266	 -0.493084,
 -0.468614	 -0.804927	  0.363997,
 -0.055070	 -0.978036	  0.201032,
  0.113222	 -0.133945	 -0.984500,
 -0.746687	 -0.157765	 -0.646196,
 -0.808392	 -0.283551	  0.515850,
  0.501806	 -0.487383	 -0.714597,
  0.567941	  0.073284	 -0.819800,
  0.157263	 -0.950732	 -0.267165,
 -0.303972	 -0.710343	  0.634833,
  0.141770	 -0.989474	  0.029020,
  0.367562	 -0.830332	  0.418863,
 -0.085097	 -0.617055	  0.782305,
  0.073288	 -0.001395	 -0.997310,
  0.553667	  0.222399	 -0.802491,
 -0.773522	 -0.081000	  0.628572,
 -0.818746	 -0.048575	 -0.572097,
 -0.310904	 -0.152742	  0.938088,
  0.836370	 -0.533814	 -0.124611,
  0.953053	  0.126653	 -0.275045,
  0.921301	  0.353048	 -0.162978,
  0.924578	 -0.335220	  0.181060,
  0.433667	 -0.272045	  0.859025,
  0.039643	 -0.081170	 -0.995912,
  0.526886	  0.073414	 -0.846760,
  0.950923	  0.227913	 -0.209288,
 -0.773951	  0.098847	  0.625483,
 -0.194047	  0.141679	  0.970707,
 -0.850042	 -0.070117	 -0.522027,
  0.956590	  0.291396	 -0.004851,
  0.855628	  0.486903	  0.175574,
  0.892797	  0.304999	  0.331495,
  0.710608	  0.496443	  0.498580,
 -0.017187	 -0.119112	 -0.992732,
  0.590146	 -0.069847	 -0.804269,
  0.969773	  0.067134	 -0.234590,
  0.873085	  0.135833	  0.468264,
 -0.039320	  0.388911	  0.920436,
 -0.842083	  0.034766	  0.538226,
 -0.881732	 -0.073399	 -0.466006,
  0.647484	  0.608939	  0.458212,
  0.581398	  0.317629	  0.749058,
  0.422971	  0.197432	  0.884373,
 -0.036422	 -0.149205	 -0.988135,
  0.660989	 -0.153962	 -0.734432,
  0.984969	 -0.012013	 -0.172311,
  0.865354	  0.102308	  0.490607,
  0.259468	  0.172463	  0.950228,
 -0.083507	  0.258589	  0.962371,
 -0.903953	  0.023253	  0.426998,
 -0.865149	 -0.039171	 -0.499982,
 -0.290809	  0.234429	  0.927617,
 -0.390171	  0.219273	  0.894251,
 -0.087438	 -0.198955	 -0.976100,
  0.668202	 -0.244686	 -0.702591,
  0.992697	 -0.092750	 -0.077140,
  0.892843	  0.072878	  0.444432,
  0.242990	  0.182403	  0.952725,
 -0.431048	  0.215062	  0.876325,
 -0.924159	  0.089766	  0.371312,
 -0.820068	 -0.035541	 -0.571162,
 -0.921504	  0.144692	  0.360409,
 -0.211905	 -0.238528	 -0.947734,
  0.549788	 -0.288847	 -0.783773,
  0.984297	 -0.165882	 -0.060357,
  0.883714	 -0.011589	  0.467885,
  0.329598	  0.165633	  0.929479,
 -0.465597	  0.217140	  0.857945,
 -0.929856	  0.160301	  0.331167,
 -0.808208	 -0.048141	 -0.586927,
 -0.274802	 -0.251736	 -0.927962,
  0.373220	 -0.281638	 -0.883961,
  0.974569	 -0.184839	 -0.126687,
  0.846538	 -0.034292	  0.531223,
  0.356047	  0.127992	  0.925661,
 -0.478814	  0.202431	  0.854259,
 -0.950955	  0.121990	  0.284258,
 -0.828330	 -0.079686	 -0.554545,
 -0.228030	 -0.289505	 -0.929618,
  0.394772	 -0.448143	 -0.802074,
  0.945358	 -0.269598	 -0.183343,
  0.801364	 -0.044428	  0.596525,
  0.270218	  0.097222	  0.957878,
 -0.506798	  0.165511	  0.846027,
 -0.948653	  0.086307	  0.304316,
 -0.840286	 -0.136675	 -0.524633,
 -0.265231	 -0.200872	 -0.943029,
  0.437929	 -0.416758	 -0.796574,
  0.916341	 -0.391048	 -0.086030,
  0.788503	 -0.084815	  0.609155,
  0.248760	  0.098042	  0.963590,
 -0.561887	  0.115801	  0.819069,
 -0.933131	  0.134972	  0.333241,
 -0.874294	 -0.117171	 -0.471042,
 -0.127328	  0.347248	 -0.929089,
  0.177020	  0.256462	 -0.950206,
  0.761315	  0.328335	 -0.559103,
  0.796387	  0.475251	  0.374037,
  0.416913	  0.621749	  0.663032,
 -0.208915	  0.747391	  0.630683,
 -0.723921	  0.667731	  0.173417,
 -0.691821	  0.600638	 -0.400771,
  0.126955	  0.956066	 -0.264235,
]
}
normalIndex [
   0,	   1,	   2, -1
   3,	   0,	   2, -1
   0,	   4,	   1, -1
   5,	   4,	   0, -1
   5,	   0,	   3, -1
   2,	   1,	   6, -1
   1,	   7,	   6, -1
   4,	   8,	   1, -1
   1,	   8,	   7, -1
   3,	   2,	   9, -1
   2,	   6,	  10, -1
   9,	   2,	  10, -1
  11,	   3,	   9, -1
   5,	   3,	  11, -1
   4,	  12,	   8, -1
   5,	  12,	   4, -1
   5,	  11,	  13, -1
   5,	  13,	  14, -1
   5,	  14,	  15, -1
   5,	  15,	  12, -1
   6,	   7,	  16, -1
   6,	  16,	  17, -1
  10,	   6,	  17, -1
   8,	  18,	   7, -1
   7,	  19,	  16, -1
   7,	  18,	  19, -1
  12,	  20,	   8, -1
   8,	  20,	  18, -1
  11,	   9,	  21, -1
   9,	  10,	  22, -1
  21,	   9,	  22, -1
  10,	  17,	  23, -1
  22,	  10,	  23, -1
  13,	  11,	  21, -1
  12,	  15,	  20, -1
  21,	  14,	  13, -1
  14,	  21,	  24, -1
  14,	  24,	  25, -1
  15,	  14,	  25, -1
  15,	  25,	  20, -1
  16,	  19,	  26, -1
  16,	  26,	  27, -1
  17,	  16,	  27, -1
  17,	  27,	  28, -1
  23,	  17,	  28, -1
  18,	  29,	  19, -1
  20,	  30,	  18, -1
  18,	  30,	  29, -1
  19,	  31,	  26, -1
  19,	  29,	  31, -1
  20,	  25,	  30, -1
  21,	  22,	  32, -1
  24,	  21,	  32, -1
  22,	  23,	  33, -1
  32,	  22,	  33, -1
  23,	  28,	  34, -1
  33,	  23,	  34, -1
  24,	  32,	  35, -1
  25,	  24,	  35, -1
  25,	  35,	  30, -1
  26,	  31,	  36, -1
  26,	  36,	  37, -1
  27,	  26,	  37, -1
  27,	  37,	  38, -1
  28,	  27,	  38, -1
  28,	  38,	  39, -1
  34,	  28,	  39, -1
  30,	  40,	  29, -1
  29,	  41,	  31, -1
  29,	  40,	  41, -1
  30,	  35,	  40, -1
  31,	  42,	  36, -1
  31,	  41,	  42, -1
  32,	  33,	  43, -1
  35,	  32,	  43, -1
  33,	  34,	  44, -1
  43,	  33,	  44, -1
  34,	  39,	  45, -1
  44,	  34,	  45, -1
  35,	  43,	  40, -1
  36,	  42,	  46, -1
  36,	  46,	  47, -1
  37,	  36,	  47, -1
  37,	  47,	  48, -1
  38,	  37,	  48, -1
  38,	  48,	  49, -1
  39,	  38,	  49, -1
  39,	  49,	  50, -1
  45,	  39,	  50, -1
  40,	  43,	  51, -1
  40,	  51,	  41, -1
  41,	  52,	  42, -1
  41,	  51,	  52, -1
  42,	  53,	  46, -1
  42,	  52,	  53, -1
  43,	  44,	  51, -1
  44,	  45,	  54, -1
  51,	  44,	  54, -1
  45,	  50,	  55, -1
  54,	  45,	  55, -1
  46,	  53,	  56, -1
  46,	  56,	  57, -1
  47,	  46,	  57, -1
  47,	  57,	  58, -1
  48,	  47,	  58, -1
  48,	  58,	  59, -1
  49,	  48,	  59, -1
  49,	  59,	  60, -1
  50,	  49,	  60, -1
  50,	  60,	  61, -1
  55,	  50,	  61, -1
  51,	  54,	  52, -1
  52,	  54,	  62, -1
  52,	  62,	  53, -1
  53,	  63,	  56, -1
  53,	  62,	  63, -1
  54,	  55,	  62, -1
  55,	  61,	  64, -1
  62,	  55,	  64, -1
  56,	  63,	  65, -1
  56,	  65,	  66, -1
  57,	  56,	  66, -1
  57,	  66,	  67, -1
  58,	  57,	  67, -1
  58,	  67,	  68, -1
  59,	  58,	  68, -1
  59,	  68,	  69, -1
  60,	  59,	  69, -1
  60,	  69,	  70, -1
  61,	  60,	  70, -1
  61,	  70,	  71, -1
  64,	  61,	  71, -1
  62,	  64,	  63, -1
  63,	  64,	  72, -1
  63,	  72,	  65, -1
  64,	  71,	  72, -1
  65,	  72,	  73, -1
  65,	  73,	  74, -1
  66,	  65,	  74, -1
  66,	  74,	  75, -1
  67,	  66,	  75, -1
  67,	  75,	  76, -1
  68,	  67,	  76, -1
  68,	  76,	  77, -1
  69,	  68,	  77, -1
  69,	  77,	  78, -1
  70,	  69,	  78, -1
  70,	  78,	  79, -1
  71,	  70,	  79, -1
  71,	  79,	  80, -1
  72,	  71,	  80, -1
  72,	  80,	  73, -1
  73,	  80,	  81, -1
  73,	  81,	  82, -1
  74,	  73,	  82, -1
  74,	  82,	  83, -1
  75,	  74,	  83, -1
  75,	  83,	  84, -1
  76,	  75,	  84, -1
  76,	  84,	  85, -1
  77,	  76,	  85, -1
  77,	  85,	  86, -1
  78,	  77,	  86, -1
  78,	  86,	  87, -1
  79,	  78,	  87, -1
  79,	  87,	  88, -1
  80,	  79,	  88, -1
  80,	  88,	  81, -1
  81,	  88,	  89, -1
  81,	  89,	  90, -1
  82,	  81,	  90, -1
  82,	  90,	  91, -1
  83,	  82,	  91, -1
  83,	  91,	  92, -1
  84,	  83,	  92, -1
  84,	  92,	  93, -1
  85,	  84,	  93, -1
  85,	  93,	  94, -1
  86,	  85,	  94, -1
  86,	  94,	  95, -1
  87,	  86,	  95, -1
  87,	  95,	  96, -1
  88,	  87,	  96, -1
  88,	  96,	  89, -1
  89,	  96,	  97, -1
  89,	  97,	  98, -1
  90,	  89,	  98, -1
  90,	  98,	  99, -1
  91,	  90,	  99, -1
  91,	  99,	 100, -1
  92,	  91,	 100, -1
  92,	 100,	 101, -1
  93,	  92,	 101, -1
  93,	 101,	 102, -1
  94,	  93,	 102, -1
  94,	 102,	 103, -1
  95,	  94,	 103, -1
  95,	 103,	 104, -1
  96,	  95,	 104, -1
  96,	 104,	  97, -1
  97,	 104,	 105, -1
  98,	  97,	 105, -1
  99,	  98,	 105, -1
 100,	  99,	 105, -1
 101,	 100,	 105, -1
 102,	 101,	 105, -1
 103,	 102,	 105, -1
 104,	 103,	 105, -1
]
normalPerVertex TRUE
}
}
]
}
