#VRML V2.0 utf8
Transform {
children [
Shape {
appearance Appearance {
              material DEF surface Material {
              diffuseColor 0.8 0.8 0.8
              ambientIntensity 0.2
              specularColor 0.4 0.4 0.4
              emissiveColor 0 0 0
              shininess 0.25
              transparency 0
            }
          }
geometry IndexedFaceSet {
solid FALSE
coord DEF bone Coordinate {
point [
 -0.006692	 -0.076635	 -0.016328,
 -0.011427	 -0.072103	 -0.018909,
 -0.006856	 -0.068687	 -0.017822,
 -0.007048	 -0.074911	 -0.018469,
 -0.006663	 -0.076411	 -0.013340,
 -0.004440	 -0.076080	 -0.013843,
 -0.006733	 -0.062464	 -0.017534,
 -0.011247	 -0.065705	 -0.018936,
 -0.008827	 -0.071654	 -0.009528,
  0.000105	 -0.070739	 -0.019327,
  0.000844	 -0.064165	 -0.018473,
 -0.002757	 -0.075718	 -0.016042,
 -0.006398	 -0.076474	 -0.011438,
 -0.003126	 -0.076513	 -0.014965,
 -0.002260	 -0.076144	 -0.010338,
 -0.001894	 -0.075397	 -0.008699,
 -0.007520	 -0.056423	 -0.016107,
 -0.001507	 -0.058450	 -0.015594,
 -0.010384	 -0.065856	 -0.007235,
 -0.011895	 -0.059611	 -0.016280,
 -0.005194	 -0.071536	 -0.007390,
  0.001082	 -0.072232	 -0.016723,
  0.001773	 -0.066269	 -0.014823,
 -0.000593	 -0.059806	 -0.013660,
  0.002384	 -0.071616	 -0.009783,
  0.002093	 -0.071234	 -0.005656,
 -0.008351	 -0.050375	 -0.014523,
 -0.004018	 -0.052423	 -0.013635,
 -0.002371	 -0.053668	 -0.012461,
 -0.010832	 -0.059454	 -0.006691,
 -0.004676	 -0.065435	 -0.005464,
 -0.012128	 -0.053281	 -0.014232,
  0.003353	 -0.065723	 -0.009289,
 -0.000242	 -0.059969	 -0.009661,
 -0.003192	 -0.054513	 -0.008111,
  0.001860	 -0.064765	 -0.005211,
 -0.008549	 -0.044205	 -0.013453,
 -0.005143	 -0.045810	 -0.012776,
 -0.003143	 -0.047452	 -0.010413,
 -0.004061	 -0.048341	 -0.006721,
 -0.006200	 -0.059071	 -0.004974,
 -0.011111	 -0.052931	 -0.006688,
 -0.012585	 -0.046931	 -0.012250,
 -0.002915	 -0.060958	 -0.007169,
 -0.004529	 -0.054261	 -0.006548,
 -0.005395	 -0.047599	 -0.005209,
 -0.008122	 -0.038042	 -0.012456,
 -0.004748	 -0.039246	 -0.011257,
 -0.003392	 -0.041004	 -0.008945,
 -0.004035	 -0.041799	 -0.005692,
 -0.006024	 -0.041292	 -0.003973,
 -0.008343	 -0.052972	 -0.004310,
 -0.011741	 -0.046507	 -0.006441,
 -0.012452	 -0.040451	 -0.010857,
 -0.010157	 -0.046750	 -0.004515,
 -0.010819	 -0.040298	 -0.004681,
 -0.007358	 -0.031909	 -0.011455,
 -0.003873	 -0.032619	 -0.010307,
 -0.003249	 -0.034396	 -0.008532,
 -0.004074	 -0.035227	 -0.005091,
 -0.005983	 -0.034759	 -0.003046,
 -0.010557	 -0.033784	 -0.004240,
 -0.012096	 -0.040091	 -0.005926,
 -0.011651	 -0.033872	 -0.010022,
 -0.011929	 -0.033660	 -0.005264,
 -0.006794	 -0.025711	 -0.010812,
 -0.003530	 -0.025893	 -0.010637,
 -0.002409	 -0.027844	 -0.008318,
 -0.003702	 -0.028823	 -0.004568,
 -0.005203	 -0.028153	 -0.002299,
 -0.009873	 -0.027364	 -0.003440,
 -0.011372	 -0.027253	 -0.004646,
 -0.010711	 -0.027322	 -0.009320,
 -0.006413	 -0.019460	 -0.010624,
 -0.003945	 -0.019225	 -0.011119,
 -0.001328	 -0.021357	 -0.007523,
 -0.002078	 -0.022617	 -0.003559,
 -0.003873	 -0.021662	 -0.001440,
 -0.009143	 -0.020959	 -0.002561,
 -0.010795	 -0.020839	 -0.004171,
 -0.009859	 -0.020741	 -0.008734,
 -0.005926	 -0.013220	 -0.010822,
 -0.003447	 -0.012262	 -0.011166,
 -0.000007	 -0.014932	 -0.006817,
 -0.000695	 -0.016421	 -0.002255,
 -0.003169	 -0.015406	  0.000319,
 -0.008614	 -0.014584	 -0.001390,
 -0.010537	 -0.014394	 -0.003839,
 -0.009627	 -0.014150	 -0.008014,
 -0.005899	 -0.006961	 -0.010755,
  0.000757	 -0.006961	 -0.012110,
  0.002651	 -0.008984	 -0.007870,
  0.001109	 -0.010430	 -0.000792,
 -0.003581	 -0.006448	  0.002578,
 -0.008644	 -0.008366	  0.000528,
 -0.010677	 -0.008008	 -0.002878,
 -0.010633	 -0.007532	 -0.007083,
 -0.004901	 -0.001320	 -0.009696,
  0.004209	 -0.001347	 -0.011173,
  0.003434	 -0.002540	 -0.007627,
  0.001003	 -0.003912	  0.000536,
 -0.004660	 -0.004174	  0.003365,
 -0.008208	 -0.000896	 -0.001720,
 -0.008115	 -0.000184	 -0.004455,
 -0.011042	 -0.001152	 -0.006906,
 -0.004769	 -0.001166	 -0.003392,
]
}
coordIndex [
   0,	   1,	   2, -1
   3,	   0,	   2, -1
   0,	   4,	   1, -1
   5,	   4,	   0, -1
   5,	   0,	   3, -1
   2,	   1,	   6, -1
   1,	   7,	   6, -1
   4,	   8,	   1, -1
   1,	   8,	   7, -1
   3,	   2,	   9, -1
   2,	   6,	  10, -1
   9,	   2,	  10, -1
  11,	   3,	   9, -1
   5,	   3,	  11, -1
   4,	  12,	   8, -1
   5,	  12,	   4, -1
   5,	  11,	  13, -1
   5,	  13,	  14, -1
   5,	  14,	  15, -1
   5,	  15,	  12, -1
   6,	   7,	  16, -1
   6,	  16,	  17, -1
  10,	   6,	  17, -1
   8,	  18,	   7, -1
   7,	  19,	  16, -1
   7,	  18,	  19, -1
  12,	  20,	   8, -1
   8,	  20,	  18, -1
  11,	   9,	  21, -1
   9,	  10,	  22, -1
  21,	   9,	  22, -1
  10,	  17,	  23, -1
  22,	  10,	  23, -1
  13,	  11,	  21, -1
  12,	  15,	  20, -1
  21,	  14,	  13, -1
  14,	  21,	  24, -1
  14,	  24,	  25, -1
  15,	  14,	  25, -1
  15,	  25,	  20, -1
  16,	  19,	  26, -1
  16,	  26,	  27, -1
  17,	  16,	  27, -1
  17,	  27,	  28, -1
  23,	  17,	  28, -1
  18,	  29,	  19, -1
  20,	  30,	  18, -1
  18,	  30,	  29, -1
  19,	  31,	  26, -1
  19,	  29,	  31, -1
  20,	  25,	  30, -1
  21,	  22,	  32, -1
  24,	  21,	  32, -1
  22,	  23,	  33, -1
  32,	  22,	  33, -1
  23,	  28,	  34, -1
  33,	  23,	  34, -1
  24,	  32,	  35, -1
  25,	  24,	  35, -1
  25,	  35,	  30, -1
  26,	  31,	  36, -1
  26,	  36,	  37, -1
  27,	  26,	  37, -1
  27,	  37,	  38, -1
  28,	  27,	  38, -1
  28,	  38,	  39, -1
  34,	  28,	  39, -1
  30,	  40,	  29, -1
  29,	  41,	  31, -1
  29,	  40,	  41, -1
  30,	  35,	  40, -1
  31,	  42,	  36, -1
  31,	  41,	  42, -1
  32,	  33,	  43, -1
  35,	  32,	  43, -1
  33,	  34,	  44, -1
  43,	  33,	  44, -1
  34,	  39,	  45, -1
  44,	  34,	  45, -1
  35,	  43,	  40, -1
  36,	  42,	  46, -1
  36,	  46,	  47, -1
  37,	  36,	  47, -1
  37,	  47,	  48, -1
  38,	  37,	  48, -1
  38,	  48,	  49, -1
  39,	  38,	  49, -1
  39,	  49,	  50, -1
  45,	  39,	  50, -1
  40,	  43,	  51, -1
  40,	  51,	  41, -1
  41,	  52,	  42, -1
  41,	  51,	  52, -1
  42,	  53,	  46, -1
  42,	  52,	  53, -1
  43,	  44,	  51, -1
  44,	  45,	  54, -1
  51,	  44,	  54, -1
  45,	  50,	  55, -1
  54,	  45,	  55, -1
  46,	  53,	  56, -1
  46,	  56,	  57, -1
  47,	  46,	  57, -1
  47,	  57,	  58, -1
  48,	  47,	  58, -1
  48,	  58,	  59, -1
  49,	  48,	  59, -1
  49,	  59,	  60, -1
  50,	  49,	  60, -1
  50,	  60,	  61, -1
  55,	  50,	  61, -1
  51,	  54,	  52, -1
  52,	  54,	  62, -1
  52,	  62,	  53, -1
  53,	  63,	  56, -1
  53,	  62,	  63, -1
  54,	  55,	  62, -1
  55,	  61,	  64, -1
  62,	  55,	  64, -1
  56,	  63,	  65, -1
  56,	  65,	  66, -1
  57,	  56,	  66, -1
  57,	  66,	  67, -1
  58,	  57,	  67, -1
  58,	  67,	  68, -1
  59,	  58,	  68, -1
  59,	  68,	  69, -1
  60,	  59,	  69, -1
  60,	  69,	  70, -1
  61,	  60,	  70, -1
  61,	  70,	  71, -1
  64,	  61,	  71, -1
  62,	  64,	  63, -1
  63,	  64,	  72, -1
  63,	  72,	  65, -1
  64,	  71,	  72, -1
  65,	  72,	  73, -1
  65,	  73,	  74, -1
  66,	  65,	  74, -1
  66,	  74,	  75, -1
  67,	  66,	  75, -1
  67,	  75,	  76, -1
  68,	  67,	  76, -1
  68,	  76,	  77, -1
  69,	  68,	  77, -1
  69,	  77,	  78, -1
  70,	  69,	  78, -1
  70,	  78,	  79, -1
  71,	  70,	  79, -1
  71,	  79,	  80, -1
  72,	  71,	  80, -1
  72,	  80,	  73, -1
  73,	  80,	  81, -1
  73,	  81,	  82, -1
  74,	  73,	  82, -1
  74,	  82,	  83, -1
  75,	  74,	  83, -1
  75,	  83,	  84, -1
  76,	  75,	  84, -1
  76,	  84,	  85, -1
  77,	  76,	  85, -1
  77,	  85,	  86, -1
  78,	  77,	  86, -1
  78,	  86,	  87, -1
  79,	  78,	  87, -1
  79,	  87,	  88, -1
  80,	  79,	  88, -1
  80,	  88,	  81, -1
  81,	  88,	  89, -1
  81,	  89,	  90, -1
  82,	  81,	  90, -1
  82,	  90,	  91, -1
  83,	  82,	  91, -1
  83,	  91,	  92, -1
  84,	  83,	  92, -1
  84,	  92,	  93, -1
  85,	  84,	  93, -1
  85,	  93,	  94, -1
  86,	  85,	  94, -1
  86,	  94,	  95, -1
  87,	  86,	  95, -1
  87,	  95,	  96, -1
  88,	  87,	  96, -1
  88,	  96,	  89, -1
  89,	  96,	  97, -1
  89,	  97,	  98, -1
  90,	  89,	  98, -1
  90,	  98,	  99, -1
  91,	  90,	  99, -1
  91,	  99,	 100, -1
  92,	  91,	 100, -1
  92,	 100,	 101, -1
  93,	  92,	 101, -1
  93,	 101,	 102, -1
  94,	  93,	 102, -1
  94,	 102,	 103, -1
  95,	  94,	 103, -1
  95,	 103,	 104, -1
  96,	  95,	 104, -1
  96,	 104,	  97, -1
  97,	 104,	 105, -1
  98,	  97,	 105, -1
  99,	  98,	 105, -1
 100,	  99,	 105, -1
 101,	 100,	 105, -1
 102,	 101,	 105, -1
 103,	 102,	 105, -1
 104,	 103,	 105, -1
]
colorPerVertex FALSE
colorIndex [
1,
1,
1,
1,
1,
1,
1,
1,
1,
1,
1,
1,
1,
1,
1,
1,
1,
1,
1,
1,
1,
1,
1,
1,
1,
1,
1,
1,
1,
1,
1,
1,
1,
1,
1,
1,
1,
1,
1,
1,
1,
1,
1,
1,
1,
1,
1,
1,
1,
1,
1,
1,
1,
1,
1,
1,
1,
1,
1,
1,
1,
1,
1,
1,
1,
1,
1,
1,
1,
1,
1,
1,
1,
1,
1,
1,
1,
1,
1,
1,
1,
1,
1,
1,
1,
1,
1,
1,
1,
1,
1,
1,
1,
1,
1,
1,
1,
1,
1,
1,
1,
1,
1,
1,
1,
1,
]
normal Normal {
vector [
 -0.185025	 -0.884212	 -0.428877,
 -0.517796	 -0.440717	 -0.733250,
 -0.188636	  0.039450	 -0.981254,
 -0.082699	 -0.660932	 -0.745875,
 -0.484394	 -0.869000	  0.100997,
 -0.064248	 -0.991639	 -0.111915,
  0.114719	  0.172898	 -0.978236,
 -0.746146	  0.057043	 -0.663334,
 -0.816738	 -0.409577	  0.406431,
  0.500895	 -0.238805	 -0.831911,
  0.573134	  0.309536	 -0.758752,
  0.155341	 -0.813025	 -0.561124,
 -0.314371	 -0.864457	  0.392282,
  0.139065	 -0.948623	 -0.284211,
  0.371286	 -0.916779	  0.147186,
 -0.090973	 -0.820320	  0.564622,
  0.076086	  0.298236	 -0.951455,
  0.561807	  0.441849	 -0.699387,
 -0.777309	 -0.256376	  0.574510,
 -0.817298	  0.135184	 -0.560133,
 -0.316580	 -0.420755	  0.850143,
  0.838129	 -0.464836	 -0.285425,
  0.955998	  0.190584	 -0.223038,
  0.929862	  0.364893	 -0.047015,
  0.924990	 -0.373635	  0.069207,
  0.435005	 -0.517755	  0.736682,
  0.041673	  0.224908	 -0.973488,
  0.531638	  0.317613	 -0.785164,
  0.955910	  0.263219	 -0.130199,
 -0.774979	 -0.090748	  0.625438,
 -0.195660	 -0.160696	  0.967416,
 -0.848965	  0.100634	 -0.518778,
  0.960948	  0.263151	  0.085624,
  0.865496	  0.386834	  0.318241,
  0.896091	  0.171432	  0.409429,
  0.717866	  0.305351	  0.625643,
 -0.015462	  0.189743	 -0.981712,
  0.592045	  0.172658	 -0.787192,
  0.971446	  0.123065	 -0.202850,
  0.872904	 -0.024542	  0.487274,
 -0.035401	  0.083155	  0.995908,
 -0.843519	 -0.122443	  0.522957,
 -0.880890	  0.080978	 -0.466343,
  0.657727	  0.420131	  0.625207,
  0.582257	  0.059554	  0.810820,
  0.421836	 -0.089347	  0.902259,
 -0.034930	  0.160923	 -0.986349,
  0.661556	  0.074174	 -0.746218,
  0.985355	  0.031796	 -0.167526,
  0.864789	 -0.061894	  0.498306,
  0.258345	 -0.130358	  0.957217,
 -0.083803	 -0.052420	  0.995103,
 -0.905129	 -0.098925	  0.413467,
 -0.864238	  0.122331	 -0.487984,
 -0.290992	 -0.061955	  0.954717,
 -0.390827	 -0.064976	  0.918168,
 -0.086401	  0.112470	 -0.989892,
  0.668215	 -0.018224	 -0.743745,
  0.992297	 -0.070292	 -0.102010,
  0.892227	 -0.075015	  0.445313,
  0.242085	 -0.121958	  0.962560,
 -0.431890	 -0.063042	  0.899720,
 -0.924420	 -0.021153	  0.380788,
 -0.819168	  0.146623	 -0.554495,
 -0.921504	  0.032124	  0.387039,
 -0.211275	  0.069049	 -0.974985,
  0.549737	 -0.032981	 -0.834686,
  0.980076	 -0.150990	 -0.129047,
  0.875217	 -0.189258	  0.445171,
  0.311859	 -0.150008	  0.938212,
 -0.466364	 -0.055382	  0.882857,
 -0.929719	  0.055192	  0.364110,
 -0.807342	  0.139611	 -0.573330,
 -0.321279	  0.038955	 -0.946183,
  0.385233	 -0.031203	 -0.922292,
  0.958677	 -0.141583	 -0.246765,
  0.848814	 -0.271644	  0.453568,
  0.260915	 -0.243551	  0.934134,
 -0.502220	 -0.073262	  0.861631,
 -0.950847	  0.034494	  0.307733,
 -0.827543	  0.101256	 -0.552195,
 -0.367244	  0.003576	 -0.930118,
  0.294254	 -0.217914	 -0.930553,
  0.911708	 -0.262844	 -0.315757,
  0.839124	 -0.277345	  0.467922,
  0.202738	 -0.280885	  0.938084,
 -0.582680	 -0.171743	  0.794348,
 -0.960102	 -0.046383	  0.275776,
 -0.846630	  0.022245	 -0.531717,
 -0.410948	  0.133544	 -0.901825,
  0.419648	 -0.227014	 -0.878841,
  0.930555	 -0.301293	 -0.208060,
  0.798867	 -0.229043	  0.556193,
  0.012330	 -0.204618	  0.978764,
 -0.710760	  0.001714	  0.703433,
 -0.913634	  0.064776	  0.401345,
 -0.862803	  0.012262	 -0.505391,
 -0.305830	  0.643846	 -0.701377,
  0.329020	  0.718800	 -0.612432,
  0.945397	  0.301294	  0.124283,
  0.748589	  0.400785	  0.528191,
  0.201572	  0.370066	  0.906874,
 -0.602752	  0.554424	  0.573850,
 -0.611980	  0.757337	  0.227863,
 -0.617131	  0.694017	 -0.370796,
  0.222709	  0.967318	  0.121229,
]
}
normalIndex [
   0,	   1,	   2, -1
   3,	   0,	   2, -1
   0,	   4,	   1, -1
   5,	   4,	   0, -1
   5,	   0,	   3, -1
   2,	   1,	   6, -1
   1,	   7,	   6, -1
   4,	   8,	   1, -1
   1,	   8,	   7, -1
   3,	   2,	   9, -1
   2,	   6,	  10, -1
   9,	   2,	  10, -1
  11,	   3,	   9, -1
   5,	   3,	  11, -1
   4,	  12,	   8, -1
   5,	  12,	   4, -1
   5,	  11,	  13, -1
   5,	  13,	  14, -1
   5,	  14,	  15, -1
   5,	  15,	  12, -1
   6,	   7,	  16, -1
   6,	  16,	  17, -1
  10,	   6,	  17, -1
   8,	  18,	   7, -1
   7,	  19,	  16, -1
   7,	  18,	  19, -1
  12,	  20,	   8, -1
   8,	  20,	  18, -1
  11,	   9,	  21, -1
   9,	  10,	  22, -1
  21,	   9,	  22, -1
  10,	  17,	  23, -1
  22,	  10,	  23, -1
  13,	  11,	  21, -1
  12,	  15,	  20, -1
  21,	  14,	  13, -1
  14,	  21,	  24, -1
  14,	  24,	  25, -1
  15,	  14,	  25, -1
  15,	  25,	  20, -1
  16,	  19,	  26, -1
  16,	  26,	  27, -1
  17,	  16,	  27, -1
  17,	  27,	  28, -1
  23,	  17,	  28, -1
  18,	  29,	  19, -1
  20,	  30,	  18, -1
  18,	  30,	  29, -1
  19,	  31,	  26, -1
  19,	  29,	  31, -1
  20,	  25,	  30, -1
  21,	  22,	  32, -1
  24,	  21,	  32, -1
  22,	  23,	  33, -1
  32,	  22,	  33, -1
  23,	  28,	  34, -1
  33,	  23,	  34, -1
  24,	  32,	  35, -1
  25,	  24,	  35, -1
  25,	  35,	  30, -1
  26,	  31,	  36, -1
  26,	  36,	  37, -1
  27,	  26,	  37, -1
  27,	  37,	  38, -1
  28,	  27,	  38, -1
  28,	  38,	  39, -1
  34,	  28,	  39, -1
  30,	  40,	  29, -1
  29,	  41,	  31, -1
  29,	  40,	  41, -1
  30,	  35,	  40, -1
  31,	  42,	  36, -1
  31,	  41,	  42, -1
  32,	  33,	  43, -1
  35,	  32,	  43, -1
  33,	  34,	  44, -1
  43,	  33,	  44, -1
  34,	  39,	  45, -1
  44,	  34,	  45, -1
  35,	  43,	  40, -1
  36,	  42,	  46, -1
  36,	  46,	  47, -1
  37,	  36,	  47, -1
  37,	  47,	  48, -1
  38,	  37,	  48, -1
  38,	  48,	  49, -1
  39,	  38,	  49, -1
  39,	  49,	  50, -1
  45,	  39,	  50, -1
  40,	  43,	  51, -1
  40,	  51,	  41, -1
  41,	  52,	  42, -1
  41,	  51,	  52, -1
  42,	  53,	  46, -1
  42,	  52,	  53, -1
  43,	  44,	  51, -1
  44,	  45,	  54, -1
  51,	  44,	  54, -1
  45,	  50,	  55, -1
  54,	  45,	  55, -1
  46,	  53,	  56, -1
  46,	  56,	  57, -1
  47,	  46,	  57, -1
  47,	  57,	  58, -1
  48,	  47,	  58, -1
  48,	  58,	  59, -1
  49,	  48,	  59, -1
  49,	  59,	  60, -1
  50,	  49,	  60, -1
  50,	  60,	  61, -1
  55,	  50,	  61, -1
  51,	  54,	  52, -1
  52,	  54,	  62, -1
  52,	  62,	  53, -1
  53,	  63,	  56, -1
  53,	  62,	  63, -1
  54,	  55,	  62, -1
  55,	  61,	  64, -1
  62,	  55,	  64, -1
  56,	  63,	  65, -1
  56,	  65,	  66, -1
  57,	  56,	  66, -1
  57,	  66,	  67, -1
  58,	  57,	  67, -1
  58,	  67,	  68, -1
  59,	  58,	  68, -1
  59,	  68,	  69, -1
  60,	  59,	  69, -1
  60,	  69,	  70, -1
  61,	  60,	  70, -1
  61,	  70,	  71, -1
  64,	  61,	  71, -1
  62,	  64,	  63, -1
  63,	  64,	  72, -1
  63,	  72,	  65, -1
  64,	  71,	  72, -1
  65,	  72,	  73, -1
  65,	  73,	  74, -1
  66,	  65,	  74, -1
  66,	  74,	  75, -1
  67,	  66,	  75, -1
  67,	  75,	  76, -1
  68,	  67,	  76, -1
  68,	  76,	  77, -1
  69,	  68,	  77, -1
  69,	  77,	  78, -1
  70,	  69,	  78, -1
  70,	  78,	  79, -1
  71,	  70,	  79, -1
  71,	  79,	  80, -1
  72,	  71,	  80, -1
  72,	  80,	  73, -1
  73,	  80,	  81, -1
  73,	  81,	  82, -1
  74,	  73,	  82, -1
  74,	  82,	  83, -1
  75,	  74,	  83, -1
  75,	  83,	  84, -1
  76,	  75,	  84, -1
  76,	  84,	  85, -1
  77,	  76,	  85, -1
  77,	  85,	  86, -1
  78,	  77,	  86, -1
  78,	  86,	  87, -1
  79,	  78,	  87, -1
  79,	  87,	  88, -1
  80,	  79,	  88, -1
  80,	  88,	  81, -1
  81,	  88,	  89, -1
  81,	  89,	  90, -1
  82,	  81,	  90, -1
  82,	  90,	  91, -1
  83,	  82,	  91, -1
  83,	  91,	  92, -1
  84,	  83,	  92, -1
  84,	  92,	  93, -1
  85,	  84,	  93, -1
  85,	  93,	  94, -1
  86,	  85,	  94, -1
  86,	  94,	  95, -1
  87,	  86,	  95, -1
  87,	  95,	  96, -1
  88,	  87,	  96, -1
  88,	  96,	  89, -1
  89,	  96,	  97, -1
  89,	  97,	  98, -1
  90,	  89,	  98, -1
  90,	  98,	  99, -1
  91,	  90,	  99, -1
  91,	  99,	 100, -1
  92,	  91,	 100, -1
  92,	 100,	 101, -1
  93,	  92,	 101, -1
  93,	 101,	 102, -1
  94,	  93,	 102, -1
  94,	 102,	 103, -1
  95,	  94,	 103, -1
  95,	 103,	 104, -1
  96,	  95,	 104, -1
  96,	 104,	  97, -1
  97,	 104,	 105, -1
  98,	  97,	 105, -1
  99,	  98,	 105, -1
 100,	  99,	 105, -1
 101,	 100,	 105, -1
 102,	 101,	 105, -1
 103,	 102,	 105, -1
 104,	 103,	 105, -1
]
normalPerVertex TRUE
}
}
]
}
