#VRML V2.0 utf8
Transform {
children [
Shape {
appearance Appearance {
              material DEF surface Material {
              diffuseColor 0.8 0.8 0.8
              ambientIntensity 0.2
              specularColor 0.4 0.4 0.4
              emissiveColor 0 0 0
              shininess 0.25
              transparency 0
            }
          }
geometry IndexedFaceSet {
solid FALSE
coord DEF bone Coordinate {
point [
  0.003962	 -0.077673	  0.006090,
  0.000301	 -0.081968	  0.007470,
  0.005220	 -0.085291	  0.003678,
  0.004952	 -0.083855	  0.006033,
  0.002967	 -0.071537	  0.006509,
  0.011325	 -0.078502	  0.006248,
  0.010769	 -0.071858	  0.006057,
 -0.000613	 -0.075676	  0.008210,
  0.001117	 -0.080235	 -0.002085,
  0.004691	 -0.084810	  0.000768,
  0.006878	 -0.084112	  0.000955,
  0.008830	 -0.083630	  0.002893,
  0.000923	 -0.065652	  0.005931,
  0.007012	 -0.066461	  0.004260,
  0.012076	 -0.079556	  0.003369,
  0.011396	 -0.073429	  0.002088,
  0.007794	 -0.067450	  0.002064,
 -0.001783	 -0.074658	 -0.003421,
 -0.002745	 -0.069608	  0.006411,
  0.004249	 -0.079253	 -0.004733,
  0.004629	 -0.084658	 -0.001147,
  0.008421	 -0.084385	  0.001801,
  0.008395	 -0.083464	 -0.002830,
  0.008337	 -0.082523	 -0.004408,
 -0.001193	 -0.059754	  0.005207,
  0.003206	 -0.060868	  0.003426,
  0.004812	 -0.061676	  0.001874,
  0.012028	 -0.078113	 -0.003571,
  0.011874	 -0.072123	 -0.003523,
  0.007468	 -0.067200	 -0.001933,
  0.003405	 -0.062283	 -0.002364,
 -0.003406	 -0.068431	 -0.003143,
  0.003374	 -0.073021	 -0.005996,
 -0.004409	 -0.063282	  0.005171,
  0.010964	 -0.077440	 -0.007530,
 -0.002626	 -0.053663	  0.004903,
  0.000835	 -0.054535	  0.003524,
  0.002645	 -0.055563	  0.000705,
  0.001265	 -0.056288	 -0.002877,
  0.009554	 -0.071116	 -0.007181,
  0.004612	 -0.068456	 -0.004078,
  0.001794	 -0.062154	 -0.003660,
 -0.000418	 -0.055683	 -0.004068,
  0.000722	 -0.067039	 -0.005502,
 -0.004793	 -0.062101	 -0.002347,
 -0.006283	 -0.056985	  0.004034,
 -0.003439	 -0.047467	  0.004573,
 -0.000169	 -0.047908	  0.002733,
  0.001046	 -0.049175	  0.000051,
 -0.000007	 -0.049794	 -0.003133,
 -0.002321	 -0.049524	 -0.004452,
 -0.002514	 -0.061417	 -0.005114,
 -0.005302	 -0.055688	 -0.003911,
 -0.007019	 -0.049513	 -0.002898,
 -0.006545	 -0.055913	 -0.001747,
 -0.007504	 -0.050500	  0.003397,
 -0.003920	 -0.041237	  0.004183,
 -0.000618	 -0.041178	  0.002433,
 -0.000017	 -0.042647	  0.000389,
 -0.001273	 -0.043320	 -0.002955,
 -0.003560	 -0.043045	 -0.004611,
 -0.007955	 -0.043053	 -0.002616,
 -0.008076	 -0.049658	 -0.001454,
 -0.009129	 -0.043277	 -0.001384,
 -0.007997	 -0.043841	  0.003216,
 -0.004545	 -0.035011	  0.004183,
 -0.001378	 -0.034561	  0.003483,
 -0.000360	 -0.036060	  0.000808,
 -0.002098	 -0.036939	 -0.002784,
 -0.004062	 -0.036371	 -0.004699,
 -0.008528	 -0.036574	 -0.002763,
 -0.009792	 -0.036851	 -0.001335,
 -0.008327	 -0.037195	  0.003140,
 -0.005277	 -0.028807	  0.004663,
 -0.002838	 -0.028156	  0.004793,
 -0.000559	 -0.029442	  0.000612,
 -0.001760	 -0.030475	 -0.003306,
 -0.004032	 -0.029696	 -0.004996,
 -0.009068	 -0.030095	 -0.002997,
 -0.010412	 -0.030426	 -0.001147,
 -0.008728	 -0.030546	  0.003196,
 -0.005837	 -0.022627	  0.005505,
 -0.003537	 -0.021254	  0.005569,
 -0.000500	 -0.022846	  0.000459,
 -0.001704	 -0.024041	 -0.004083,
 -0.004724	 -0.023292	 -0.006106,
 -0.009849	 -0.023657	 -0.003489,
 -0.011321	 -0.024043	 -0.000766,
 -0.009755	 -0.023992	  0.003217,
 -0.006893	 -0.016492	  0.006160,
 -0.000203	 -0.015358	  0.006457,
  0.001244	 -0.016618	  0.001768,
 -0.001233	 -0.017715	 -0.005104,
 -0.007048	 -0.014410	 -0.007220,
 -0.011274	 -0.017414	 -0.004646,
 -0.012716	 -0.017738	 -0.000947,
 -0.012024	 -0.017625	  0.003227,
 -0.007074	 -0.010695	  0.005620,
  0.002023	 -0.009136	  0.005652,
  0.000859	 -0.010145	  0.002155,
 -0.002681	 -0.011243	 -0.005635,
 -0.008620	 -0.012321	 -0.007562,
 -0.011739	 -0.010217	 -0.001642,
 -0.011295	 -0.009737	  0.001109,
 -0.013543	 -0.011445	  0.003856,
 -0.008067	 -0.009978	 -0.000567,
]
}
coordIndex [
   0,	   1,	   2, -1
   0,	   2,	   3, -1
   4,	   1,	   0, -1
   5,	   0,	   3, -1
   6,	   4,	   0, -1
   6,	   0,	   5, -1
   4,	   7,	   1, -1
   1,	   8,	   9, -1
   1,	   9,	   2, -1
   7,	   8,	   1, -1
   2,	   9,	  10, -1
   3,	   2,	  10, -1
   5,	   3,	  11, -1
  11,	   3,	  10, -1
  12,	   7,	   4, -1
  13,	  12,	   4, -1
  13,	   4,	   6, -1
  14,	   5,	  11, -1
  15,	   6,	   5, -1
  15,	   5,	  14, -1
  16,	  13,	   6, -1
  16,	   6,	  15, -1
   7,	  17,	   8, -1
  12,	  18,	   7, -1
  18,	  17,	   7, -1
   8,	  19,	  20, -1
   8,	  20,	   9, -1
  17,	  19,	   8, -1
   9,	  20,	  10, -1
  21,	  11,	  10, -1
  22,	  21,	  10, -1
  23,	  22,	  10, -1
  20,	  23,	  10, -1
  14,	  11,	  21, -1
  24,	  18,	  12, -1
  25,	  24,	  12, -1
  25,	  12,	  13, -1
  26,	  25,	  13, -1
  26,	  13,	  16, -1
  27,	  14,	  22, -1
  28,	  15,	  14, -1
  28,	  14,	  27, -1
  21,	  22,	  14, -1
  29,	  16,	  15, -1
  29,	  15,	  28, -1
  30,	  26,	  16, -1
  30,	  16,	  29, -1
  18,	  31,	  17, -1
  17,	  32,	  19, -1
  31,	  32,	  17, -1
  24,	  33,	  18, -1
  33,	  31,	  18, -1
  19,	  34,	  23, -1
  19,	  23,	  20, -1
  32,	  34,	  19, -1
  34,	  27,	  22, -1
  34,	  22,	  23, -1
  35,	  33,	  24, -1
  36,	  35,	  24, -1
  36,	  24,	  25, -1
  37,	  36,	  25, -1
  37,	  25,	  26, -1
  38,	  37,	  26, -1
  38,	  26,	  30, -1
  39,	  28,	  27, -1
  39,	  27,	  34, -1
  40,	  29,	  28, -1
  40,	  28,	  39, -1
  41,	  30,	  29, -1
  41,	  29,	  40, -1
  42,	  38,	  30, -1
  42,	  30,	  41, -1
  31,	  43,	  32, -1
  33,	  44,	  31, -1
  44,	  43,	  31, -1
  32,	  39,	  34, -1
  43,	  39,	  32, -1
  35,	  45,	  33, -1
  45,	  44,	  33, -1
  46,	  45,	  35, -1
  47,	  46,	  35, -1
  47,	  35,	  36, -1
  48,	  47,	  36, -1
  48,	  36,	  37, -1
  49,	  48,	  37, -1
  49,	  37,	  38, -1
  50,	  49,	  38, -1
  50,	  38,	  42, -1
  43,	  40,	  39, -1
  51,	  41,	  40, -1
  51,	  40,	  43, -1
  52,	  42,	  41, -1
  52,	  41,	  51, -1
  53,	  50,	  42, -1
  53,	  42,	  52, -1
  44,	  51,	  43, -1
  45,	  54,	  44, -1
  54,	  51,	  44, -1
  46,	  55,	  45, -1
  55,	  54,	  45, -1
  56,	  55,	  46, -1
  57,	  56,	  46, -1
  57,	  46,	  47, -1
  58,	  57,	  47, -1
  58,	  47,	  48, -1
  59,	  58,	  48, -1
  59,	  48,	  49, -1
  60,	  59,	  49, -1
  60,	  49,	  50, -1
  61,	  60,	  50, -1
  61,	  50,	  53, -1
  54,	  52,	  51, -1
  62,	  53,	  52, -1
  62,	  52,	  54, -1
  63,	  61,	  53, -1
  63,	  53,	  62, -1
  55,	  62,	  54, -1
  56,	  64,	  55, -1
  64,	  62,	  55, -1
  65,	  64,	  56, -1
  66,	  65,	  56, -1
  66,	  56,	  57, -1
  67,	  66,	  57, -1
  67,	  57,	  58, -1
  68,	  67,	  58, -1
  68,	  58,	  59, -1
  69,	  68,	  59, -1
  69,	  59,	  60, -1
  70,	  69,	  60, -1
  70,	  60,	  61, -1
  71,	  70,	  61, -1
  71,	  61,	  63, -1
  64,	  63,	  62, -1
  72,	  71,	  63, -1
  72,	  63,	  64, -1
  65,	  72,	  64, -1
  73,	  72,	  65, -1
  74,	  73,	  65, -1
  74,	  65,	  66, -1
  75,	  74,	  66, -1
  75,	  66,	  67, -1
  76,	  75,	  67, -1
  76,	  67,	  68, -1
  77,	  76,	  68, -1
  77,	  68,	  69, -1
  78,	  77,	  69, -1
  78,	  69,	  70, -1
  79,	  78,	  70, -1
  79,	  70,	  71, -1
  80,	  79,	  71, -1
  80,	  71,	  72, -1
  73,	  80,	  72, -1
  81,	  80,	  73, -1
  82,	  81,	  73, -1
  82,	  73,	  74, -1
  83,	  82,	  74, -1
  83,	  74,	  75, -1
  84,	  83,	  75, -1
  84,	  75,	  76, -1
  85,	  84,	  76, -1
  85,	  76,	  77, -1
  86,	  85,	  77, -1
  86,	  77,	  78, -1
  87,	  86,	  78, -1
  87,	  78,	  79, -1
  88,	  87,	  79, -1
  88,	  79,	  80, -1
  81,	  88,	  80, -1
  89,	  88,	  81, -1
  90,	  89,	  81, -1
  90,	  81,	  82, -1
  91,	  90,	  82, -1
  91,	  82,	  83, -1
  92,	  91,	  83, -1
  92,	  83,	  84, -1
  93,	  92,	  84, -1
  93,	  84,	  85, -1
  94,	  93,	  85, -1
  94,	  85,	  86, -1
  95,	  94,	  86, -1
  95,	  86,	  87, -1
  96,	  95,	  87, -1
  96,	  87,	  88, -1
  89,	  96,	  88, -1
  97,	  96,	  89, -1
  98,	  97,	  89, -1
  98,	  89,	  90, -1
  99,	  98,	  90, -1
  99,	  90,	  91, -1
 100,	  99,	  91, -1
 100,	  91,	  92, -1
 101,	 100,	  92, -1
 101,	  92,	  93, -1
 102,	 101,	  93, -1
 102,	  93,	  94, -1
 103,	 102,	  94, -1
 103,	  94,	  95, -1
 104,	 103,	  95, -1
 104,	  95,	  96, -1
  97,	 104,	  96, -1
 105,	 104,	  97, -1
 105,	  97,	  98, -1
 105,	  98,	  99, -1
 105,	  99,	 100, -1
 105,	 100,	 101, -1
 105,	 101,	 102, -1
 105,	 102,	 103, -1
 105,	 103,	 104, -1
]
colorPerVertex FALSE
colorIndex [
1,
1,
1,
1,
1,
1,
1,
1,
1,
1,
1,
1,
1,
1,
1,
1,
1,
1,
1,
1,
1,
1,
1,
1,
1,
1,
1,
1,
1,
1,
1,
1,
1,
1,
1,
1,
1,
1,
1,
1,
1,
1,
1,
1,
1,
1,
1,
1,
1,
1,
1,
1,
1,
1,
1,
1,
1,
1,
1,
1,
1,
1,
1,
1,
1,
1,
1,
1,
1,
1,
1,
1,
1,
1,
1,
1,
1,
1,
1,
1,
1,
1,
1,
1,
1,
1,
1,
1,
1,
1,
1,
1,
1,
1,
1,
1,
1,
1,
1,
1,
1,
1,
1,
1,
1,
1,
]
normal Normal {
vector [
 -0.188636	  0.039450	  0.981254,
 -0.517796	 -0.440717	  0.733250,
 -0.185025	 -0.884212	  0.428877,
 -0.082699	 -0.660932	  0.745875,
  0.114719	  0.172898	  0.978236,
  0.500895	 -0.238805	  0.831911,
  0.573134	  0.309536	  0.758752,
 -0.746146	  0.057043	  0.663334,
 -0.816738	 -0.409577	 -0.406431,
 -0.484394	 -0.869000	 -0.100997,
 -0.064248	 -0.991639	  0.111915,
  0.155341	 -0.813025	  0.561124,
  0.076086	  0.298236	  0.951455,
  0.561807	  0.441849	  0.699387,
  0.838129	 -0.464836	  0.285425,
  0.955998	  0.190584	  0.223038,
  0.929862	  0.364893	  0.047015,
 -0.777309	 -0.256376	 -0.574510,
 -0.817298	  0.135184	  0.560133,
 -0.316580	 -0.420755	 -0.850143,
 -0.314371	 -0.864457	 -0.392282,
  0.139065	 -0.948623	  0.284211,
  0.371286	 -0.916779	 -0.147186,
 -0.090973	 -0.820320	 -0.564622,
  0.041673	  0.224908	  0.973488,
  0.531638	  0.317613	  0.785164,
  0.955910	  0.263219	  0.130199,
  0.924990	 -0.373635	 -0.069207,
  0.960948	  0.263151	 -0.085624,
  0.865496	  0.386834	 -0.318241,
  0.896091	  0.171432	 -0.409429,
 -0.774979	 -0.090748	 -0.625438,
 -0.195660	 -0.160696	 -0.967416,
 -0.848965	  0.100634	  0.518778,
  0.435005	 -0.517755	 -0.736682,
 -0.015462	  0.189743	  0.981712,
  0.592045	  0.172658	  0.787192,
  0.971446	  0.123065	  0.202850,
  0.872904	 -0.024542	 -0.487274,
  0.717866	  0.305351	 -0.625643,
  0.657727	  0.420131	 -0.625207,
  0.582257	  0.059554	 -0.810820,
  0.421836	 -0.089347	 -0.902259,
 -0.035401	  0.083155	 -0.995908,
 -0.843519	 -0.122443	 -0.522957,
 -0.880890	  0.080978	  0.466343,
 -0.034930	  0.160923	  0.986349,
  0.661556	  0.074174	  0.746218,
  0.985355	  0.031796	  0.167526,
  0.864789	 -0.061894	 -0.498306,
  0.258345	 -0.130358	 -0.957217,
 -0.083803	 -0.052420	 -0.995103,
 -0.290992	 -0.061955	 -0.954717,
 -0.390827	 -0.064976	 -0.918168,
 -0.905129	 -0.098925	 -0.413467,
 -0.864238	  0.122331	  0.487984,
 -0.086401	  0.112470	  0.989892,
  0.668215	 -0.018224	  0.743745,
  0.992297	 -0.070292	  0.102010,
  0.892227	 -0.075015	 -0.445313,
  0.242085	 -0.121958	 -0.962560,
 -0.431890	 -0.063042	 -0.899720,
 -0.924420	 -0.021153	 -0.380788,
 -0.921504	  0.032124	 -0.387039,
 -0.819168	  0.146623	  0.554495,
 -0.211275	  0.069049	  0.974985,
  0.549737	 -0.032981	  0.834686,
  0.980076	 -0.150990	  0.129047,
  0.875217	 -0.189258	 -0.445171,
  0.311859	 -0.150008	 -0.938212,
 -0.466364	 -0.055382	 -0.882857,
 -0.929719	  0.055192	 -0.364110,
 -0.807342	  0.139611	  0.573330,
 -0.321279	  0.038955	  0.946183,
  0.385233	 -0.031203	  0.922292,
  0.958677	 -0.141583	  0.246765,
  0.848814	 -0.271644	 -0.453568,
  0.260915	 -0.243551	 -0.934134,
 -0.502220	 -0.073262	 -0.861631,
 -0.950847	  0.034494	 -0.307733,
 -0.827543	  0.101256	  0.552195,
 -0.367244	  0.003576	  0.930118,
  0.294254	 -0.217914	  0.930553,
  0.911708	 -0.262844	  0.315757,
  0.839124	 -0.277345	 -0.467922,
  0.202738	 -0.280885	 -0.938084,
 -0.582680	 -0.171743	 -0.794348,
 -0.960102	 -0.046383	 -0.275776,
 -0.846630	  0.022245	  0.531717,
 -0.410948	  0.133544	  0.901825,
  0.419648	 -0.227014	  0.878841,
  0.930555	 -0.301293	  0.208060,
  0.798867	 -0.229043	 -0.556193,
  0.012330	 -0.204618	 -0.978764,
 -0.710760	  0.001714	 -0.703433,
 -0.913634	  0.064776	 -0.401345,
 -0.862803	  0.012262	  0.505391,
 -0.305830	  0.643846	  0.701377,
  0.329020	  0.718800	  0.612432,
  0.945397	  0.301294	 -0.124283,
  0.748589	  0.400785	 -0.528191,
  0.201572	  0.370066	 -0.906874,
 -0.602752	  0.554424	 -0.573850,
 -0.611980	  0.757337	 -0.227863,
 -0.617131	  0.694017	  0.370796,
  0.222709	  0.967318	 -0.121229,
]
}
normalIndex [
   0,	   1,	   2, -1
   0,	   2,	   3, -1
   4,	   1,	   0, -1
   5,	   0,	   3, -1
   6,	   4,	   0, -1
   6,	   0,	   5, -1
   4,	   7,	   1, -1
   1,	   8,	   9, -1
   1,	   9,	   2, -1
   7,	   8,	   1, -1
   2,	   9,	  10, -1
   3,	   2,	  10, -1
   5,	   3,	  11, -1
  11,	   3,	  10, -1
  12,	   7,	   4, -1
  13,	  12,	   4, -1
  13,	   4,	   6, -1
  14,	   5,	  11, -1
  15,	   6,	   5, -1
  15,	   5,	  14, -1
  16,	  13,	   6, -1
  16,	   6,	  15, -1
   7,	  17,	   8, -1
  12,	  18,	   7, -1
  18,	  17,	   7, -1
   8,	  19,	  20, -1
   8,	  20,	   9, -1
  17,	  19,	   8, -1
   9,	  20,	  10, -1
  21,	  11,	  10, -1
  22,	  21,	  10, -1
  23,	  22,	  10, -1
  20,	  23,	  10, -1
  14,	  11,	  21, -1
  24,	  18,	  12, -1
  25,	  24,	  12, -1
  25,	  12,	  13, -1
  26,	  25,	  13, -1
  26,	  13,	  16, -1
  27,	  14,	  22, -1
  28,	  15,	  14, -1
  28,	  14,	  27, -1
  21,	  22,	  14, -1
  29,	  16,	  15, -1
  29,	  15,	  28, -1
  30,	  26,	  16, -1
  30,	  16,	  29, -1
  18,	  31,	  17, -1
  17,	  32,	  19, -1
  31,	  32,	  17, -1
  24,	  33,	  18, -1
  33,	  31,	  18, -1
  19,	  34,	  23, -1
  19,	  23,	  20, -1
  32,	  34,	  19, -1
  34,	  27,	  22, -1
  34,	  22,	  23, -1
  35,	  33,	  24, -1
  36,	  35,	  24, -1
  36,	  24,	  25, -1
  37,	  36,	  25, -1
  37,	  25,	  26, -1
  38,	  37,	  26, -1
  38,	  26,	  30, -1
  39,	  28,	  27, -1
  39,	  27,	  34, -1
  40,	  29,	  28, -1
  40,	  28,	  39, -1
  41,	  30,	  29, -1
  41,	  29,	  40, -1
  42,	  38,	  30, -1
  42,	  30,	  41, -1
  31,	  43,	  32, -1
  33,	  44,	  31, -1
  44,	  43,	  31, -1
  32,	  39,	  34, -1
  43,	  39,	  32, -1
  35,	  45,	  33, -1
  45,	  44,	  33, -1
  46,	  45,	  35, -1
  47,	  46,	  35, -1
  47,	  35,	  36, -1
  48,	  47,	  36, -1
  48,	  36,	  37, -1
  49,	  48,	  37, -1
  49,	  37,	  38, -1
  50,	  49,	  38, -1
  50,	  38,	  42, -1
  43,	  40,	  39, -1
  51,	  41,	  40, -1
  51,	  40,	  43, -1
  52,	  42,	  41, -1
  52,	  41,	  51, -1
  53,	  50,	  42, -1
  53,	  42,	  52, -1
  44,	  51,	  43, -1
  45,	  54,	  44, -1
  54,	  51,	  44, -1
  46,	  55,	  45, -1
  55,	  54,	  45, -1
  56,	  55,	  46, -1
  57,	  56,	  46, -1
  57,	  46,	  47, -1
  58,	  57,	  47, -1
  58,	  47,	  48, -1
  59,	  58,	  48, -1
  59,	  48,	  49, -1
  60,	  59,	  49, -1
  60,	  49,	  50, -1
  61,	  60,	  50, -1
  61,	  50,	  53, -1
  54,	  52,	  51, -1
  62,	  53,	  52, -1
  62,	  52,	  54, -1
  63,	  61,	  53, -1
  63,	  53,	  62, -1
  55,	  62,	  54, -1
  56,	  64,	  55, -1
  64,	  62,	  55, -1
  65,	  64,	  56, -1
  66,	  65,	  56, -1
  66,	  56,	  57, -1
  67,	  66,	  57, -1
  67,	  57,	  58, -1
  68,	  67,	  58, -1
  68,	  58,	  59, -1
  69,	  68,	  59, -1
  69,	  59,	  60, -1
  70,	  69,	  60, -1
  70,	  60,	  61, -1
  71,	  70,	  61, -1
  71,	  61,	  63, -1
  64,	  63,	  62, -1
  72,	  71,	  63, -1
  72,	  63,	  64, -1
  65,	  72,	  64, -1
  73,	  72,	  65, -1
  74,	  73,	  65, -1
  74,	  65,	  66, -1
  75,	  74,	  66, -1
  75,	  66,	  67, -1
  76,	  75,	  67, -1
  76,	  67,	  68, -1
  77,	  76,	  68, -1
  77,	  68,	  69, -1
  78,	  77,	  69, -1
  78,	  69,	  70, -1
  79,	  78,	  70, -1
  79,	  70,	  71, -1
  80,	  79,	  71, -1
  80,	  71,	  72, -1
  73,	  80,	  72, -1
  81,	  80,	  73, -1
  82,	  81,	  73, -1
  82,	  73,	  74, -1
  83,	  82,	  74, -1
  83,	  74,	  75, -1
  84,	  83,	  75, -1
  84,	  75,	  76, -1
  85,	  84,	  76, -1
  85,	  76,	  77, -1
  86,	  85,	  77, -1
  86,	  77,	  78, -1
  87,	  86,	  78, -1
  87,	  78,	  79, -1
  88,	  87,	  79, -1
  88,	  79,	  80, -1
  81,	  88,	  80, -1
  89,	  88,	  81, -1
  90,	  89,	  81, -1
  90,	  81,	  82, -1
  91,	  90,	  82, -1
  91,	  82,	  83, -1
  92,	  91,	  83, -1
  92,	  83,	  84, -1
  93,	  92,	  84, -1
  93,	  84,	  85, -1
  94,	  93,	  85, -1
  94,	  85,	  86, -1
  95,	  94,	  86, -1
  95,	  86,	  87, -1
  96,	  95,	  87, -1
  96,	  87,	  88, -1
  89,	  96,	  88, -1
  97,	  96,	  89, -1
  98,	  97,	  89, -1
  98,	  89,	  90, -1
  99,	  98,	  90, -1
  99,	  90,	  91, -1
 100,	  99,	  91, -1
 100,	  91,	  92, -1
 101,	 100,	  92, -1
 101,	  92,	  93, -1
 102,	 101,	  93, -1
 102,	  93,	  94, -1
 103,	 102,	  94, -1
 103,	  94,	  95, -1
 104,	 103,	  95, -1
 104,	  95,	  96, -1
  97,	 104,	  96, -1
 105,	 104,	  97, -1
 105,	  97,	  98, -1
 105,	  98,	  99, -1
 105,	  99,	 100, -1
 105,	 100,	 101, -1
 105,	 101,	 102, -1
 105,	 102,	 103, -1
 105,	 103,	 104, -1
]
normalPerVertex TRUE
}
}
]
}
