#VRML V2.0 utf8
Transform {
children [
Shape {
appearance Appearance {
              material DEF surface Material {
              diffuseColor 0.8 0.8 0.8
              ambientIntensity 0.2
              specularColor 0.4 0.4 0.4
              emissiveColor 0 0 0
              shininess 0.25
              transparency 0
            }
          }
geometry IndexedFaceSet {
solid FALSE
coord DEF bone Coordinate {
point [
 -0.008513	 -0.001120	 -0.003349,
 -0.010768	  0.001241	 -0.006719,
 -0.011947	 -0.003326	 -0.006437,
 -0.009808	 -0.005030	 -0.002163,
 -0.004972	  0.004442	 -0.004965,
 -0.004601	 -0.000384	 -0.002662,
 -0.011722	 -0.005728	 -0.009082,
 -0.010959	 -0.002298	 -0.011129,
 -0.009014	 -0.006841	 -0.005327,
 -0.006151	 -0.005009	  0.000970,
 -0.005501	 -0.007324	 -0.002501,
 -0.006720	  0.003370	 -0.009713,
  0.000185	  0.002593	 -0.006406,
 -0.001337	 -0.000011	 -0.003421,
 -0.001855	 -0.004282	  0.002209,
 -0.008172	 -0.008048	 -0.008761,
 -0.010694	 -0.006945	 -0.011171,
 -0.009824	 -0.005342	 -0.013205,
 -0.006460	 -0.001440	 -0.014204,
 -0.004611	 -0.009518	 -0.008153,
 -0.001799	 -0.007728	 -0.002236,
 -0.000500	 -0.009585	 -0.008162,
 -0.000821	  0.002048	 -0.010717,
  0.002155	 -0.000944	 -0.005980,
  0.001713	 -0.003394	 -0.001168,
  0.000265	 -0.007965	 -0.004746,
 -0.006799	 -0.012885	 -0.013748,
 -0.009234	 -0.011694	 -0.015405,
 -0.008845	 -0.010229	 -0.016984,
 -0.001418	 -0.002390	 -0.014205,
 -0.005117	 -0.007744	 -0.019202,
 -0.003875	 -0.013082	 -0.012270,
 -0.000680	 -0.013369	 -0.013132,
  0.002475	 -0.008330	 -0.016782,
  0.001876	 -0.005119	 -0.012637,
  0.002404	 -0.002436	 -0.010100,
 -0.005389	 -0.022092	 -0.021706,
 -0.002550	 -0.022386	 -0.020987,
 -0.007501	 -0.021500	 -0.022597,
 -0.008085	 -0.019605	 -0.024121,
 -0.001195	 -0.007005	 -0.018517,
 -0.003235	 -0.017372	 -0.026971,
  0.001013	 -0.021876	 -0.021401,
  0.003989	 -0.018191	 -0.025635,
  0.000453	 -0.017219	 -0.027355,
 -0.005115	 -0.029711	 -0.028072,
 -0.002877	 -0.029182	 -0.026692,
  0.002277	 -0.027694	 -0.026694,
 -0.006899	 -0.029396	 -0.030469,
 -0.006063	 -0.027275	 -0.032879,
 -0.001603	 -0.024161	 -0.034420,
  0.004905	 -0.023350	 -0.031787,
  0.002161	 -0.023144	 -0.033904,
 -0.004627	 -0.035863	 -0.030998,
 -0.002840	 -0.036170	 -0.028607,
  0.000421	 -0.033855	 -0.030398,
  0.004189	 -0.032277	 -0.029639,
  0.006326	 -0.031217	 -0.027638,
  0.006159	 -0.029012	 -0.031380,
 -0.006634	 -0.033106	 -0.034104,
 -0.006097	 -0.028922	 -0.035438,
 -0.001061	 -0.026798	 -0.037477,
  0.006511	 -0.025690	 -0.035283,
  0.002785	 -0.025583	 -0.037118,
 -0.003366	 -0.038359	 -0.034421,
 -0.004521	 -0.034312	 -0.037748,
 -0.001550	 -0.038858	 -0.030405,
  0.001894	 -0.036223	 -0.031712,
  0.005817	 -0.034798	 -0.031520,
  0.008024	 -0.033453	 -0.030481,
  0.007798	 -0.032820	 -0.033960,
  0.007208	 -0.029114	 -0.038345,
 -0.005838	 -0.030784	 -0.038132,
 -0.001394	 -0.028778	 -0.040160,
  0.004967	 -0.027153	 -0.039352,
  0.003352	 -0.027108	 -0.039676,
  0.001184	 -0.036890	 -0.035239,
 -0.001192	 -0.033545	 -0.039629,
  0.005325	 -0.034038	 -0.035883,
  0.004243	 -0.030344	 -0.039620,
]
}
coordIndex [
   0,	   1,	   2, -1
   2,	   3,	   0, -1
   1,	   0,	   4, -1
   0,	   5,	   4, -1
   5,	   0,	   3, -1
   6,	   2,	   1, -1
   7,	   6,	   1, -1
   7,	   1,	   4, -1
   8,	   3,	   2, -1
   6,	   8,	   2, -1
   9,	   5,	   3, -1
   3,	   8,	  10, -1
   9,	   3,	  10, -1
  11,	   7,	   4, -1
   4,	   5,	  12, -1
  11,	   4,	  12, -1
   5,	  13,	  12, -1
  14,	   5,	   9, -1
  13,	   5,	  14, -1
  15,	   8,	   6, -1
  16,	  15,	   6, -1
  17,	  16,	   6, -1
   7,	  17,	   6, -1
   7,	  11,	  18, -1
  17,	   7,	  18, -1
   8,	  15,	  19, -1
  10,	   8,	  19, -1
  20,	  14,	   9, -1
  10,	  20,	   9, -1
  21,	  20,	  10, -1
  19,	  21,	  10, -1
  22,	  11,	  12, -1
  18,	  11,	  22, -1
  12,	  13,	  23, -1
  22,	  12,	  23, -1
  24,	  13,	  14, -1
  23,	  13,	  24, -1
  25,	  24,	  14, -1
  20,	  25,	  14, -1
  26,	  15,	  16, -1
  15,	  26,	  19, -1
  27,	  26,	  16, -1
  16,	  17,	  28, -1
  27,	  16,	  28, -1
  28,	  17,	  18, -1
  29,	  18,	  22, -1
  30,	  28,	  18, -1
  30,	  18,	  29, -1
  26,	  31,	  19, -1
  32,	  21,	  19, -1
  31,	  32,	  19, -1
  20,	  21,	  25, -1
  21,	  32,	  33, -1
  34,	  21,	  33, -1
  35,	  25,	  21, -1
  34,	  35,	  21, -1
  35,	  22,	  23, -1
  34,	  29,	  22, -1
  35,	  34,	  22, -1
  23,	  24,	  35, -1
  24,	  25,	  35, -1
  36,	  26,	  27, -1
  26,	  36,	  37, -1
  31,	  26,	  37, -1
  38,	  36,	  27, -1
  27,	  28,	  39, -1
  38,	  27,	  39, -1
  39,	  28,	  30, -1
  40,	  30,	  29, -1
  40,	  29,	  34, -1
  41,	  39,	  30, -1
  41,	  30,	  40, -1
  42,	  32,	  31, -1
  37,	  42,	  31, -1
  32,	  42,	  43, -1
  33,	  32,	  43, -1
  33,	  40,	  34, -1
  44,	  40,	  33, -1
  43,	  44,	  33, -1
  36,	  45,	  46, -1
  37,	  36,	  46, -1
  36,	  38,	  45, -1
  37,	  46,	  47, -1
  42,	  37,	  47, -1
  38,	  48,	  45, -1
  48,	  38,	  39, -1
  49,	  48,	  39, -1
  39,	  41,	  49, -1
  44,	  41,	  40, -1
  41,	  50,	  49, -1
  50,	  41,	  44, -1
  42,	  47,	  51, -1
  43,	  42,	  51, -1
  43,	  51,	  52, -1
  44,	  43,	  52, -1
  52,	  50,	  44, -1
  45,	  53,	  46, -1
  45,	  48,	  53, -1
  46,	  53,	  54, -1
  54,	  55,	  46, -1
  46,	  55,	  56, -1
  47,	  46,	  56, -1
  56,	  57,	  47, -1
  58,	  47,	  57, -1
  51,	  47,	  58, -1
  48,	  59,	  53, -1
  59,	  48,	  49, -1
  60,	  59,	  49, -1
  49,	  50,	  60, -1
  61,	  50,	  52, -1
  50,	  61,	  60, -1
  62,	  51,	  58, -1
  51,	  62,	  63, -1
  52,	  51,	  63, -1
  63,	  61,	  52, -1
  53,	  64,	  54, -1
  59,	  65,	  53, -1
  53,	  65,	  64, -1
  54,	  66,	  55, -1
  64,	  66,	  54, -1
  66,	  67,	  55, -1
  55,	  67,	  68, -1
  56,	  55,	  68, -1
  69,	  57,	  56, -1
  68,	  69,	  56, -1
  57,	  69,	  70, -1
  58,	  57,	  70, -1
  58,	  70,	  71, -1
  62,	  58,	  71, -1
  60,	  72,	  59, -1
  72,	  65,	  59, -1
  60,	  61,	  72, -1
  73,	  61,	  63, -1
  61,	  73,	  72, -1
  62,	  71,	  74, -1
  62,	  74,	  63, -1
  75,	  73,	  63, -1
  74,	  75,	  63, -1
  67,	  66,	  64, -1
  76,	  67,	  64, -1
  64,	  65,	  76, -1
  65,	  77,	  76, -1
  65,	  72,	  77, -1
  68,	  67,	  76, -1
  78,	  68,	  76, -1
  69,	  68,	  78, -1
  70,	  69,	  78, -1
  79,	  71,	  70, -1
  78,	  79,	  70, -1
  74,	  71,	  79, -1
  72,	  73,	  77, -1
  77,	  73,	  75, -1
  75,	  74,	  79, -1
  79,	  77,	  75, -1
  76,	  77,	  78, -1
  77,	  79,	  78, -1
]
colorPerVertex FALSE
colorIndex [
1,
1,
1,
1,
1,
1,
1,
1,
1,
1,
1,
1,
1,
1,
1,
1,
1,
1,
1,
1,
1,
1,
1,
1,
1,
1,
1,
1,
1,
1,
1,
1,
1,
1,
1,
1,
1,
1,
1,
1,
1,
1,
1,
1,
1,
1,
1,
1,
1,
1,
1,
1,
1,
1,
1,
1,
1,
1,
1,
1,
1,
1,
1,
1,
1,
1,
1,
1,
1,
1,
1,
1,
1,
1,
1,
1,
1,
1,
1,
1,
]
normal Normal {
vector [
 -0.505479	  0.398126	  0.765498,
 -0.868052	  0.487338	  0.094805,
 -0.937175	 -0.060944	  0.343495,
 -0.699102	 -0.193317	  0.688393,
 -0.278387	  0.870570	  0.405721,
 -0.116837	  0.605291	  0.787383,
 -0.946610	 -0.312823	 -0.077916,
 -0.777455	  0.441881	 -0.447555,
 -0.561683	 -0.781652	  0.271167,
 -0.405734	 -0.336716	  0.849707,
 -0.241792	 -0.889430	  0.387879,
 -0.212962	  0.891695	 -0.399410,
  0.491544	  0.816334	  0.303287,
  0.336092	  0.710809	  0.617893,
  0.333940	  0.033760	  0.941990,
 -0.524727	 -0.788455	  0.320936,
 -0.914124	 -0.405297	  0.010561,
 -0.827647	  0.139772	 -0.543567,
 -0.330056	  0.546865	 -0.769416,
 -0.209254	 -0.846787	  0.489045,
  0.121437	 -0.868464	  0.480648,
  0.583231	 -0.736277	  0.343129,
  0.535195	  0.656234	 -0.531905,
  0.857505	  0.484486	  0.173084,
  0.896616	  0.132601	  0.422490,
  0.729057	 -0.615767	  0.298842,
 -0.478330	 -0.663891	  0.574847,
 -0.890078	 -0.379685	  0.252192,
 -0.846192	  0.225079	 -0.483010,
  0.328849	  0.602501	 -0.727221,
 -0.315898	  0.570018	 -0.758477,
 -0.059996	 -0.719522	  0.691874,
  0.552510	 -0.587447	  0.591303,
  0.950688	  0.258959	 -0.170685,
  0.880718	  0.309320	 -0.358687,
  0.995473	 -0.018739	 -0.093182,
 -0.394522	 -0.608725	  0.688336,
 -0.057147	 -0.664626	  0.744987,
 -0.771858	 -0.458049	  0.440937,
 -0.921599	  0.173254	 -0.347330,
  0.280224	  0.671489	 -0.685987,
 -0.342800	  0.607638	 -0.716425,
  0.597892	 -0.493932	  0.631314,
  0.946095	  0.304692	 -0.109854,
  0.197083	  0.707178	 -0.679012,
 -0.547533	 -0.507269	  0.665497,
 -0.107127	 -0.521771	  0.846333,
  0.472890	 -0.308016	  0.825531,
 -0.962617	 -0.213047	  0.167271,
 -0.844347	  0.365996	 -0.391313,
 -0.347760	  0.690563	 -0.634181,
  0.893070	  0.449288	  0.023784,
  0.166716	  0.772266	 -0.613035,
 -0.801844	 -0.477486	  0.359240,
 -0.280687	 -0.548895	  0.787355,
  0.332015	 -0.384756	  0.861237,
 -0.034406	 -0.626044	  0.779028,
  0.727271	  0.042471	  0.685035,
  0.906850	  0.310227	  0.285277,
 -0.973325	 -0.193059	 -0.123965,
 -0.790877	  0.473100	 -0.388188,
 -0.345577	  0.733859	 -0.584832,
  0.747676	  0.627421	 -0.217539,
  0.061347	  0.848418	 -0.525760,
 -0.328321	 -0.938208	 -0.109409,
 -0.577699	 -0.601595	 -0.551676,
  0.308473	 -0.710213	  0.632805,
  0.425322	 -0.808553	  0.406626,
  0.325800	 -0.833378	  0.446470,
  0.562226	 -0.763266	  0.318318,
  0.962485	 -0.144941	 -0.229379,
  0.899666	  0.076552	 -0.429814,
 -0.735623	  0.149469	 -0.660694,
 -0.282156	  0.497262	 -0.820438,
  0.378748	  0.539040	 -0.752320,
  0.054765	  0.370876	 -0.927066,
  0.272326	 -0.888081	 -0.370338,
 -0.011979	 -0.410141	 -0.911944,
  0.530605	 -0.717305	 -0.451588,
  0.391242	 -0.296818	 -0.871108,
]
}
normalIndex [
   0,	   1,	   2, -1
   2,	   3,	   0, -1
   1,	   0,	   4, -1
   0,	   5,	   4, -1
   5,	   0,	   3, -1
   6,	   2,	   1, -1
   7,	   6,	   1, -1
   7,	   1,	   4, -1
   8,	   3,	   2, -1
   6,	   8,	   2, -1
   9,	   5,	   3, -1
   3,	   8,	  10, -1
   9,	   3,	  10, -1
  11,	   7,	   4, -1
   4,	   5,	  12, -1
  11,	   4,	  12, -1
   5,	  13,	  12, -1
  14,	   5,	   9, -1
  13,	   5,	  14, -1
  15,	   8,	   6, -1
  16,	  15,	   6, -1
  17,	  16,	   6, -1
   7,	  17,	   6, -1
   7,	  11,	  18, -1
  17,	   7,	  18, -1
   8,	  15,	  19, -1
  10,	   8,	  19, -1
  20,	  14,	   9, -1
  10,	  20,	   9, -1
  21,	  20,	  10, -1
  19,	  21,	  10, -1
  22,	  11,	  12, -1
  18,	  11,	  22, -1
  12,	  13,	  23, -1
  22,	  12,	  23, -1
  24,	  13,	  14, -1
  23,	  13,	  24, -1
  25,	  24,	  14, -1
  20,	  25,	  14, -1
  26,	  15,	  16, -1
  15,	  26,	  19, -1
  27,	  26,	  16, -1
  16,	  17,	  28, -1
  27,	  16,	  28, -1
  28,	  17,	  18, -1
  29,	  18,	  22, -1
  30,	  28,	  18, -1
  30,	  18,	  29, -1
  26,	  31,	  19, -1
  32,	  21,	  19, -1
  31,	  32,	  19, -1
  20,	  21,	  25, -1
  21,	  32,	  33, -1
  34,	  21,	  33, -1
  35,	  25,	  21, -1
  34,	  35,	  21, -1
  35,	  22,	  23, -1
  34,	  29,	  22, -1
  35,	  34,	  22, -1
  23,	  24,	  35, -1
  24,	  25,	  35, -1
  36,	  26,	  27, -1
  26,	  36,	  37, -1
  31,	  26,	  37, -1
  38,	  36,	  27, -1
  27,	  28,	  39, -1
  38,	  27,	  39, -1
  39,	  28,	  30, -1
  40,	  30,	  29, -1
  40,	  29,	  34, -1
  41,	  39,	  30, -1
  41,	  30,	  40, -1
  42,	  32,	  31, -1
  37,	  42,	  31, -1
  32,	  42,	  43, -1
  33,	  32,	  43, -1
  33,	  40,	  34, -1
  44,	  40,	  33, -1
  43,	  44,	  33, -1
  36,	  45,	  46, -1
  37,	  36,	  46, -1
  36,	  38,	  45, -1
  37,	  46,	  47, -1
  42,	  37,	  47, -1
  38,	  48,	  45, -1
  48,	  38,	  39, -1
  49,	  48,	  39, -1
  39,	  41,	  49, -1
  44,	  41,	  40, -1
  41,	  50,	  49, -1
  50,	  41,	  44, -1
  42,	  47,	  51, -1
  43,	  42,	  51, -1
  43,	  51,	  52, -1
  44,	  43,	  52, -1
  52,	  50,	  44, -1
  45,	  53,	  46, -1
  45,	  48,	  53, -1
  46,	  53,	  54, -1
  54,	  55,	  46, -1
  46,	  55,	  56, -1
  47,	  46,	  56, -1
  56,	  57,	  47, -1
  58,	  47,	  57, -1
  51,	  47,	  58, -1
  48,	  59,	  53, -1
  59,	  48,	  49, -1
  60,	  59,	  49, -1
  49,	  50,	  60, -1
  61,	  50,	  52, -1
  50,	  61,	  60, -1
  62,	  51,	  58, -1
  51,	  62,	  63, -1
  52,	  51,	  63, -1
  63,	  61,	  52, -1
  53,	  64,	  54, -1
  59,	  65,	  53, -1
  53,	  65,	  64, -1
  54,	  66,	  55, -1
  64,	  66,	  54, -1
  66,	  67,	  55, -1
  55,	  67,	  68, -1
  56,	  55,	  68, -1
  69,	  57,	  56, -1
  68,	  69,	  56, -1
  57,	  69,	  70, -1
  58,	  57,	  70, -1
  58,	  70,	  71, -1
  62,	  58,	  71, -1
  60,	  72,	  59, -1
  72,	  65,	  59, -1
  60,	  61,	  72, -1
  73,	  61,	  63, -1
  61,	  73,	  72, -1
  62,	  71,	  74, -1
  62,	  74,	  63, -1
  75,	  73,	  63, -1
  74,	  75,	  63, -1
  67,	  66,	  64, -1
  76,	  67,	  64, -1
  64,	  65,	  76, -1
  65,	  77,	  76, -1
  65,	  72,	  77, -1
  68,	  67,	  76, -1
  78,	  68,	  76, -1
  69,	  68,	  78, -1
  70,	  69,	  78, -1
  79,	  71,	  70, -1
  78,	  79,	  70, -1
  74,	  71,	  79, -1
  72,	  73,	  77, -1
  77,	  73,	  75, -1
  75,	  74,	  79, -1
  79,	  77,	  75, -1
  76,	  77,	  78, -1
  77,	  79,	  78, -1
]
normalPerVertex TRUE
}
}
]
}
