# 
# Wavefront OBJ file
# Converted by the DEEP Exploration 2.00.1211
# Right Hemisphere, LTD
# http://www.righthemisphere.com/
# 
mtllib metacarpal3_l.mtl
# object Object #0
g Object__0
v -0.006692 -0.076635 -0.016328
v -0.011427 -0.072103 -0.018909
v -0.006856 -0.068687 -0.017822
v -0.007048 -0.074911 -0.018469
v -0.006663 -0.076411 -0.01334
v -0.00444 -0.07608 -0.013843
v -0.006733 -0.062464 -0.017534
v -0.011247 -0.065705 -0.018936
v -0.008827 -0.071654 -0.009528
v 0.000105 -0.070739 -0.019327
v 0.000844 -0.064165 -0.018473
v -0.002757 -0.075718 -0.016042
v -0.006398 -0.076474 -0.011438
v -0.003126 -0.076513 -0.014965
v -0.00226 -0.076144 -0.010338
v -0.001894 -0.075397 -0.008699
v -0.00752 -0.056423 -0.016107
v -0.001507 -0.05845 -0.015594
v -0.010384 -0.065856 -0.007235
v -0.011895 -0.059611 -0.01628
v -0.005194 -0.071536 -0.00739
v 0.001082 -0.072232 -0.016723
v 0.001773 -0.066269 -0.014823
v -0.000593 -0.059806 -0.01366
v 0.002384 -0.071616 -0.009783
v 0.002093 -0.071234 -0.005656
v -0.008351 -0.050375 -0.014523
v -0.004018 -0.052423 -0.013635
v -0.002371 -0.053668 -0.012461
v -0.010832 -0.059454 -0.006691
v -0.004676 -0.065435 -0.005464
v -0.012128 -0.053281 -0.014232
v 0.003353 -0.065723 -0.009289
v -0.000242 -0.059969 -0.009661
v -0.003192 -0.054513 -0.008111
v 0.00186 -0.064765 -0.005211
v -0.008549 -0.044205 -0.013453
v -0.005143 -0.04581 -0.012776
v -0.003143 -0.047452 -0.010413
v -0.004061 -0.048341 -0.006721
v -0.0062 -0.059071 -0.004974
v -0.011111 -0.052931 -0.006688
v -0.012585 -0.046931 -0.01225
v -0.002915 -0.060958 -0.007169
v -0.004529 -0.054261 -0.006548
v -0.005395 -0.047599 -0.005209
v -0.008122 -0.038042 -0.012456
v -0.004748 -0.039246 -0.011257
v -0.003392 -0.041004 -0.008945
v -0.004035 -0.041799 -0.005692
v -0.006024 -0.041292 -0.003973
v -0.008343 -0.052972 -0.00431
v -0.011741 -0.046507 -0.006441
v -0.012452 -0.040451 -0.010857
v -0.010157 -0.04675 -0.004515
v -0.010819 -0.040298 -0.004681
v -0.007358 -0.031909 -0.011455
v -0.003873 -0.032619 -0.010307
v -0.003249 -0.034396 -0.008532
v -0.004074 -0.035227 -0.005091
v -0.005983 -0.034759 -0.003046
v -0.010557 -0.033784 -0.00424
v -0.012096 -0.040091 -0.005926
v -0.011651 -0.033872 -0.010022
v -0.011929 -0.03366 -0.005264
v -0.006794 -0.025711 -0.010812
v -0.00353 -0.025893 -0.010637
v -0.002409 -0.027844 -0.008318
v -0.003702 -0.028823 -0.004568
v -0.005203 -0.028153 -0.002299
v -0.009873 -0.027364 -0.00344
v -0.011372 -0.027253 -0.004646
v -0.010711 -0.027322 -0.00932
v -0.006413 -0.01946 -0.010624
v -0.003945 -0.019225 -0.011119
v -0.001328 -0.021357 -0.007523
v -0.002078 -0.022617 -0.003559
v -0.003873 -0.021662 -0.00144
v -0.009143 -0.020959 -0.002561
v -0.010795 -0.020839 -0.004171
v -0.009859 -0.020741 -0.008734
v -0.005926 -0.01322 -0.010822
v -0.003447 -0.012262 -0.011166
v -7e-006 -0.014932 -0.006817
v -0.000695 -0.016421 -0.002255
v -0.003169 -0.015406 0.000319
v -0.008614 -0.014584 -0.00139
v -0.010537 -0.014394 -0.003839
v -0.009627 -0.01415 -0.008014
v -0.005899 -0.006961 -0.010755
v 0.000757 -0.006961 -0.01211
v 0.002651 -0.008984 -0.00787
v 0.001109 -0.01043 -0.000792
v -0.003581 -0.006448 0.002578
v -0.008644 -0.008366 0.000528
v -0.010677 -0.008008 -0.002878
v -0.010633 -0.007532 -0.007083
v -0.004901 -0.00132 -0.009696
v 0.004209 -0.001347 -0.011173
v 0.003434 -0.00254 -0.007627
v 0.001003 -0.003912 0.000536
v -0.00466 -0.004174 0.003365
v -0.008208 -0.000896 -0.00172
v -0.008115 -0.000184 -0.004455
v -0.011042 -0.001152 -0.006906
v -0.004769 -0.001166 -0.003392
# 106 verticies
vn -0.185025 -0.884212 -0.428877
vn -0.517796 -0.440717 -0.73325
vn -0.188636 0.03945 -0.981254
vn -0.082699 -0.660932 -0.745875
vn -0.484394 -0.869 0.100997
vn -0.064248 -0.991639 -0.111915
vn 0.114719 0.172898 -0.978236
vn -0.746146 0.057043 -0.663334
vn -0.816738 -0.409577 0.406431
vn 0.500895 -0.238805 -0.831911
vn 0.573134 0.309536 -0.758752
vn 0.155341 -0.813025 -0.561124
vn -0.314371 -0.864457 0.392282
vn 0.139065 -0.948623 -0.284211
vn 0.371286 -0.916779 0.147186
vn -0.090973 -0.82032 0.564622
vn 0.076086 0.298236 -0.951455
vn 0.561807 0.441849 -0.699387
vn -0.777309 -0.256376 0.57451
vn -0.817298 0.135184 -0.560133
vn -0.31658 -0.420755 0.850143
vn 0.838129 -0.464836 -0.285425
vn 0.955998 0.190584 -0.223038
vn 0.929862 0.364893 -0.047015
vn 0.92499 -0.373635 0.069207
vn 0.435005 -0.517755 0.736682
vn 0.041673 0.224908 -0.973488
vn 0.531638 0.317613 -0.785164
vn 0.95591 0.263219 -0.130199
vn -0.774979 -0.090748 0.625438
vn -0.19566 -0.160696 0.967416
vn -0.848965 0.100634 -0.518778
vn 0.960948 0.263151 0.085624
vn 0.865495 0.386834 0.318241
vn 0.896091 0.171432 0.409429
vn 0.717866 0.305351 0.625643
vn -0.015462 0.189743 -0.981712
vn 0.592045 0.172658 -0.787192
vn 0.971446 0.123065 -0.20285
vn 0.872904 -0.024542 0.487274
vn -0.035401 0.083155 0.995908
vn -0.843519 -0.122443 0.522957
vn -0.88089 0.080978 -0.466343
vn 0.657727 0.420131 0.625207
vn 0.582257 0.059554 0.81082
vn 0.421836 -0.089347 0.902259
vn -0.03493 0.160923 -0.986349
vn 0.661556 0.074174 -0.746218
vn 0.985355 0.031796 -0.167526
vn 0.864789 -0.061894 0.498306
vn 0.258345 -0.130358 0.957217
vn -0.083803 -0.05242 0.995103
vn -0.905129 -0.098925 0.413467
vn -0.864238 0.122331 -0.487984
vn -0.290992 -0.061955 0.954717
vn -0.390827 -0.064976 0.918168
vn -0.086401 0.11247 -0.989892
vn 0.668215 -0.018224 -0.743745
vn 0.992297 -0.070292 -0.10201
vn 0.892227 -0.075015 0.445313
vn 0.242085 -0.121958 0.96256
vn -0.43189 -0.063042 0.89972
vn -0.92442 -0.021153 0.380788
vn -0.819168 0.146623 -0.554495
vn -0.921504 0.032124 0.387039
vn -0.211275 0.069049 -0.974985
vn 0.549737 -0.032981 -0.834686
vn 0.980076 -0.15099 -0.129047
vn 0.875217 -0.189258 0.445171
vn 0.311859 -0.150008 0.938212
vn -0.466364 -0.055382 0.882857
vn -0.929719 0.055192 0.36411
vn -0.807342 0.139611 -0.57333
vn -0.321279 0.038955 -0.946183
vn 0.385233 -0.031203 -0.922292
vn 0.958677 -0.141583 -0.246765
vn 0.848814 -0.271644 0.453568
vn 0.260915 -0.243551 0.934134
vn -0.50222 -0.073262 0.861631
vn -0.950847 0.034494 0.307733
vn -0.827543 0.101256 -0.552195
vn -0.367244 0.003576 -0.930118
vn 0.294254 -0.217914 -0.930553
vn 0.911708 -0.262844 -0.315757
vn 0.839124 -0.277345 0.467922
vn 0.202738 -0.280885 0.938084
vn -0.58268 -0.171743 0.794348
vn -0.960102 -0.046383 0.275776
vn -0.84663 0.022245 -0.531717
vn -0.410948 0.133544 -0.901825
vn 0.419648 -0.227014 -0.87884
vn 0.930555 -0.301293 -0.20806
vn 0.798867 -0.229043 0.556193
vn 0.01233 -0.204618 0.978764
vn -0.71076 0.001714 0.703433
vn -0.913634 0.064776 0.401345
vn -0.862803 0.012262 -0.505391
vn -0.30583 0.643846 -0.701377
vn 0.32902 0.7188 -0.612432
vn 0.945397 0.301294 0.124283
vn 0.748589 0.400785 0.528191
vn 0.201572 0.370066 0.906874
vn -0.602752 0.554424 0.57385
vn -0.61198 0.757337 0.227863
vn -0.617131 0.694017 -0.370796
vn 0.222709 0.967318 0.121229
# 106 normals
usemtl Material__1
f  1//1 2//2 3//3
f  4//4 1//1 3//3
f  1//1 5//5 2//2
f  6//6 5//5 1//1
f  6//6 1//1 4//4
f  3//3 2//2 7//7
f  2//2 8//8 7//7
f  5//5 9//9 2//2
f  2//2 9//9 8//8
f  4//4 3//3 10//10
f  3//3 7//7 11//11
f  10//10 3//3 11//11
f  12//12 4//4 10//10
f  6//6 4//4 12//12
f  5//5 13//13 9//9
f  6//6 13//13 5//5
f  6//6 12//12 14//14
f  6//6 14//14 15//15
f  6//6 15//15 16//16
f  6//6 16//16 13//13
f  7//7 8//8 17//17
f  7//7 17//17 18//18
f  11//11 7//7 18//18
f  9//9 19//19 8//8
f  8//8 20//20 17//17
f  8//8 19//19 20//20
f  13//13 21//21 9//9
f  9//9 21//21 19//19
f  12//12 10//10 22//22
f  10//10 11//11 23//23
f  22//22 10//10 23//23
f  11//11 18//18 24//24
f  23//23 11//11 24//24
f  14//14 12//12 22//22
f  13//13 16//16 21//21
f  22//22 15//15 14//14
f  15//15 22//22 25//25
f  15//15 25//25 26//26
f  16//16 15//15 26//26
f  16//16 26//26 21//21
f  17//17 20//20 27//27
f  17//17 27//27 28//28
f  18//18 17//17 28//28
f  18//18 28//28 29//29
f  24//24 18//18 29//29
f  19//19 30//30 20//20
f  21//21 31//31 19//19
f  19//19 31//31 30//30
f  20//20 32//32 27//27
f  20//20 30//30 32//32
f  21//21 26//26 31//31
f  22//22 23//23 33//33
f  25//25 22//22 33//33
f  23//23 24//24 34//34
f  33//33 23//23 34//34
f  24//24 29//29 35//35
f  34//34 24//24 35//35
f  25//25 33//33 36//36
f  26//26 25//25 36//36
f  26//26 36//36 31//31
f  27//27 32//32 37//37
f  27//27 37//37 38//38
f  28//28 27//27 38//38
f  28//28 38//38 39//39
f  29//29 28//28 39//39
f  29//29 39//39 40//40
f  35//35 29//29 40//40
f  31//31 41//41 30//30
f  30//30 42//42 32//32
f  30//30 41//41 42//42
f  31//31 36//36 41//41
f  32//32 43//43 37//37
f  32//32 42//42 43//43
f  33//33 34//34 44//44
f  36//36 33//33 44//44
f  34//34 35//35 45//45
f  44//44 34//34 45//45
f  35//35 40//40 46//46
f  45//45 35//35 46//46
f  36//36 44//44 41//41
f  37//37 43//43 47//47
f  37//37 47//47 48//48
f  38//38 37//37 48//48
f  38//38 48//48 49//49
f  39//39 38//38 49//49
f  39//39 49//49 50//50
f  40//40 39//39 50//50
f  40//40 50//50 51//51
f  46//46 40//40 51//51
f  41//41 44//44 52//52
f  41//41 52//52 42//42
f  42//42 53//53 43//43
f  42//42 52//52 53//53
f  43//43 54//54 47//47
f  43//43 53//53 54//54
f  44//44 45//45 52//52
f  45//45 46//46 55//55
f  52//52 45//45 55//55
f  46//46 51//51 56//56
f  55//55 46//46 56//56
f  47//47 54//54 57//57
f  47//47 57//57 58//58
f  48//48 47//47 58//58
f  48//48 58//58 59//59
f  49//49 48//48 59//59
f  49//49 59//59 60//60
f  50//50 49//49 60//60
f  50//50 60//60 61//61
f  51//51 50//50 61//61
f  51//51 61//61 62//62
f  56//56 51//51 62//62
f  52//52 55//55 53//53
f  53//53 55//55 63//63
f  53//53 63//63 54//54
f  54//54 64//64 57//57
f  54//54 63//63 64//64
f  55//55 56//56 63//63
f  56//56 62//62 65//65
f  63//63 56//56 65//65
f  57//57 64//64 66//66
f  57//57 66//66 67//67
f  58//58 57//57 67//67
f  58//58 67//67 68//68
f  59//59 58//58 68//68
f  59//59 68//68 69//69
f  60//60 59//59 69//69
f  60//60 69//69 70//70
f  61//61 60//60 70//70
f  61//61 70//70 71//71
f  62//62 61//61 71//71
f  62//62 71//71 72//72
f  65//65 62//62 72//72
f  63//63 65//65 64//64
f  64//64 65//65 73//73
f  64//64 73//73 66//66
f  65//65 72//72 73//73
f  66//66 73//73 74//74
f  66//66 74//74 75//75
f  67//67 66//66 75//75
f  67//67 75//75 76//76
f  68//68 67//67 76//76
f  68//68 76//76 77//77
f  69//69 68//68 77//77
f  69//69 77//77 78//78
f  70//70 69//69 78//78
f  70//70 78//78 79//79
f  71//71 70//70 79//79
f  71//71 79//79 80//80
f  72//72 71//71 80//80
f  72//72 80//80 81//81
f  73//73 72//72 81//81
f  73//73 81//81 74//74
f  74//74 81//81 82//82
f  74//74 82//82 83//83
f  75//75 74//74 83//83
f  75//75 83//83 84//84
f  76//76 75//75 84//84
f  76//76 84//84 85//85
f  77//77 76//76 85//85
f  77//77 85//85 86//86
f  78//78 77//77 86//86
f  78//78 86//86 87//87
f  79//79 78//78 87//87
f  79//79 87//87 88//88
f  80//80 79//79 88//88
f  80//80 88//88 89//89
f  81//81 80//80 89//89
f  81//81 89//89 82//82
f  82//82 89//89 90//90
f  82//82 90//90 91//91
f  83//83 82//82 91//91
f  83//83 91//91 92//92
f  84//84 83//83 92//92
f  84//84 92//92 93//93
f  85//85 84//84 93//93
f  85//85 93//93 94//94
f  86//86 85//85 94//94
f  86//86 94//94 95//95
f  87//87 86//86 95//95
f  87//87 95//95 96//96
f  88//88 87//87 96//96
f  88//88 96//96 97//97
f  89//89 88//88 97//97
f  89//89 97//97 90//90
f  90//90 97//97 98//98
f  90//90 98//98 99//99
f  91//91 90//90 99//99
f  91//91 99//99 100//100
f  92//92 91//91 100//100
f  92//92 100//100 101//101
f  93//93 92//92 101//101
f  93//93 101//101 102//102
f  94//94 93//93 102//102
f  94//94 102//102 103//103
f  95//95 94//94 103//103
f  95//95 103//103 104//104
f  96//96 95//95 104//104
f  96//96 104//104 105//105
f  97//97 96//96 105//105
f  97//97 105//105 98//98
f  98//98 105//105 106//106
f  99//99 98//98 106//106
f  100//100 99//99 106//106
f  101//101 100//100 106//106
f  102//102 101//101 106//106
f  103//103 102//102 106//106
f  104//104 103//103 106//106
f  105//105 104//104 106//106
