# 
# Wavefront OBJ file
# Converted by the DEEP Exploration 2.00.1211
# Right Hemisphere, LTD
# http://www.righthemisphere.com/
# 
mtllib metacarpal1_l.mtl
# object Object #0
g Object__0
v -0.008513 -0.00112 -0.003349
v -0.010768 0.001241 -0.006719
v -0.011947 -0.003326 -0.006437
v -0.009808 -0.00503 -0.002163
v -0.004972 0.004442 -0.004965
v -0.004601 -0.000384 -0.002662
v -0.011722 -0.005728 -0.009082
v -0.010959 -0.002298 -0.011129
v -0.009014 -0.006841 -0.005327
v -0.006151 -0.005009 0.00097
v -0.005501 -0.007324 -0.002501
v -0.00672 0.00337 -0.009713
v 0.000185 0.002593 -0.006406
v -0.001337 -1.1e-005 -0.003421
v -0.001855 -0.004282 0.002209
v -0.008172 -0.008048 -0.008761
v -0.010694 -0.006945 -0.011171
v -0.009824 -0.005342 -0.013205
v -0.00646 -0.00144 -0.014204
v -0.004611 -0.009518 -0.008153
v -0.001799 -0.007728 -0.002236
v -0.0005 -0.009585 -0.008162
v -0.000821 0.002048 -0.010717
v 0.002155 -0.000944 -0.00598
v 0.001713 -0.003394 -0.001168
v 0.000265 -0.007965 -0.004746
v -0.006799 -0.012885 -0.013748
v -0.009234 -0.011694 -0.015405
v -0.008845 -0.010229 -0.016984
v -0.001418 -0.00239 -0.014205
v -0.005117 -0.007744 -0.019202
v -0.003875 -0.013082 -0.01227
v -0.00068 -0.013369 -0.013132
v 0.002475 -0.00833 -0.016782
v 0.001876 -0.005119 -0.012637
v 0.002404 -0.002436 -0.0101
v -0.005389 -0.022092 -0.021706
v -0.00255 -0.022386 -0.020987
v -0.007501 -0.0215 -0.022597
v -0.008085 -0.019605 -0.024121
v -0.001195 -0.007005 -0.018517
v -0.003235 -0.017372 -0.026971
v 0.001013 -0.021876 -0.021401
v 0.003989 -0.018191 -0.025635
v 0.000453 -0.017219 -0.027355
v -0.005115 -0.029711 -0.028072
v -0.002877 -0.029182 -0.026692
v 0.002277 -0.027694 -0.026694
v -0.006899 -0.029396 -0.030469
v -0.006063 -0.027275 -0.032879
v -0.001603 -0.024161 -0.03442
v 0.004905 -0.02335 -0.031787
v 0.002161 -0.023144 -0.033904
v -0.004627 -0.035863 -0.030998
v -0.00284 -0.03617 -0.028607
v 0.000421 -0.033855 -0.030398
v 0.004189 -0.032277 -0.029639
v 0.006326 -0.031217 -0.027638
v 0.006159 -0.029012 -0.03138
v -0.006634 -0.033106 -0.034104
v -0.006097 -0.028922 -0.035438
v -0.001061 -0.026798 -0.037477
v 0.006511 -0.02569 -0.035283
v 0.002785 -0.025583 -0.037118
v -0.003366 -0.038359 -0.034421
v -0.004521 -0.034312 -0.037748
v -0.00155 -0.038858 -0.030405
v 0.001894 -0.036223 -0.031712
v 0.005817 -0.034798 -0.03152
v 0.008024 -0.033453 -0.030481
v 0.007798 -0.03282 -0.03396
v 0.007208 -0.029114 -0.038345
v -0.005838 -0.030784 -0.038132
v -0.001394 -0.028778 -0.04016
v 0.004967 -0.027153 -0.039352
v 0.003352 -0.027108 -0.039676
v 0.001184 -0.03689 -0.035239
v -0.001192 -0.033545 -0.039629
v 0.005325 -0.034038 -0.035883
v 0.004243 -0.030344 -0.03962
# 80 verticies
vn -0.505479 0.398126 0.765498
vn -0.868052 0.487338 0.094805
vn -0.937175 -0.060944 0.343495
vn -0.699102 -0.193317 0.688393
vn -0.278387 0.87057 0.405721
vn -0.116837 0.605291 0.787383
vn -0.94661 -0.312823 -0.077916
vn -0.777455 0.441881 -0.447555
vn -0.561683 -0.781652 0.271167
vn -0.405734 -0.336716 0.849707
vn -0.241792 -0.88943 0.387879
vn -0.212962 0.891694 -0.39941
vn 0.491544 0.816334 0.303287
vn 0.336092 0.710809 0.617893
vn 0.33394 0.03376 0.94199
vn -0.524727 -0.788455 0.320936
vn -0.914124 -0.405297 0.010561
vn -0.827647 0.139772 -0.543567
vn -0.330056 0.546865 -0.769416
vn -0.209254 -0.846787 0.489045
vn 0.121437 -0.868464 0.480648
vn 0.583231 -0.736277 0.343129
vn 0.535195 0.656234 -0.531905
vn 0.857505 0.484486 0.173084
vn 0.896616 0.132601 0.42249
vn 0.729057 -0.615767 0.298842
vn -0.47833 -0.663891 0.574847
vn -0.890078 -0.379685 0.252192
vn -0.846192 0.225079 -0.48301
vn 0.328849 0.602501 -0.727221
vn -0.315898 0.570018 -0.758477
vn -0.059996 -0.719522 0.691874
vn 0.55251 -0.587447 0.591303
vn 0.950688 0.258959 -0.170685
vn 0.880718 0.30932 -0.358687
vn 0.995473 -0.018739 -0.093182
vn -0.394522 -0.608725 0.688336
vn -0.057147 -0.664626 0.744987
vn -0.771858 -0.458049 0.440937
vn -0.921599 0.173254 -0.34733
vn 0.280224 0.671489 -0.685987
vn -0.3428 0.607638 -0.716425
vn 0.597892 -0.493932 0.631314
vn 0.946095 0.304692 -0.109854
vn 0.197083 0.707178 -0.679012
vn -0.547533 -0.507269 0.665497
vn -0.107127 -0.521771 0.846333
vn 0.47289 -0.308016 0.825531
vn -0.962617 -0.213047 0.167271
vn -0.844347 0.365996 -0.391313
vn -0.34776 0.690563 -0.634181
vn 0.89307 0.449288 0.023784
vn 0.166716 0.772266 -0.613035
vn -0.801844 -0.477486 0.35924
vn -0.280687 -0.548895 0.787355
vn 0.332015 -0.384756 0.861237
vn -0.034406 -0.626044 0.779028
vn 0.727271 0.042471 0.685035
vn 0.90685 0.310227 0.285277
vn -0.973325 -0.193059 -0.123965
vn -0.790877 0.4731 -0.388188
vn -0.345577 0.733859 -0.584832
vn 0.747676 0.627421 -0.217539
vn 0.061347 0.848418 -0.52576
vn -0.328321 -0.938208 -0.109409
vn -0.577699 -0.601595 -0.551676
vn 0.308473 -0.710213 0.632805
vn 0.425322 -0.808552 0.406626
vn 0.3258 -0.833378 0.44647
vn 0.562226 -0.763266 0.318318
vn 0.962485 -0.144941 -0.229379
vn 0.899666 0.076552 -0.429814
vn -0.735623 0.149469 -0.660694
vn -0.282156 0.497262 -0.820438
vn 0.378748 0.53904 -0.75232
vn 0.054765 0.370876 -0.927066
vn 0.272326 -0.888081 -0.370338
vn -0.011979 -0.410141 -0.911944
vn 0.530605 -0.717305 -0.451588
vn 0.391242 -0.296818 -0.871108
# 80 normals
usemtl Material__1
f  1//1 2//2 3//3
f  3//3 4//4 1//1
f  2//2 1//1 5//5
f  1//1 6//6 5//5
f  6//6 1//1 4//4
f  7//7 3//3 2//2
f  8//8 7//7 2//2
f  8//8 2//2 5//5
f  9//9 4//4 3//3
f  7//7 9//9 3//3
f  10//10 6//6 4//4
f  4//4 9//9 11//11
f  10//10 4//4 11//11
f  12//12 8//8 5//5
f  5//5 6//6 13//13
f  12//12 5//5 13//13
f  6//6 14//14 13//13
f  15//15 6//6 10//10
f  14//14 6//6 15//15
f  16//16 9//9 7//7
f  17//17 16//16 7//7
f  18//18 17//17 7//7
f  8//8 18//18 7//7
f  8//8 12//12 19//19
f  18//18 8//8 19//19
f  9//9 16//16 20//20
f  11//11 9//9 20//20
f  21//21 15//15 10//10
f  11//11 21//21 10//10
f  22//22 21//21 11//11
f  20//20 22//22 11//11
f  23//23 12//12 13//13
f  19//19 12//12 23//23
f  13//13 14//14 24//24
f  23//23 13//13 24//24
f  25//25 14//14 15//15
f  24//24 14//14 25//25
f  26//26 25//25 15//15
f  21//21 26//26 15//15
f  27//27 16//16 17//17
f  16//16 27//27 20//20
f  28//28 27//27 17//17
f  17//17 18//18 29//29
f  28//28 17//17 29//29
f  29//29 18//18 19//19
f  30//30 19//19 23//23
f  31//31 29//29 19//19
f  31//31 19//19 30//30
f  27//27 32//32 20//20
f  33//33 22//22 20//20
f  32//32 33//33 20//20
f  21//21 22//22 26//26
f  22//22 33//33 34//34
f  35//35 22//22 34//34
f  36//36 26//26 22//22
f  35//35 36//36 22//22
f  36//36 23//23 24//24
f  35//35 30//30 23//23
f  36//36 35//35 23//23
f  24//24 25//25 36//36
f  25//25 26//26 36//36
f  37//37 27//27 28//28
f  27//27 37//37 38//38
f  32//32 27//27 38//38
f  39//39 37//37 28//28
f  28//28 29//29 40//40
f  39//39 28//28 40//40
f  40//40 29//29 31//31
f  41//41 31//31 30//30
f  41//41 30//30 35//35
f  42//42 40//40 31//31
f  42//42 31//31 41//41
f  43//43 33//33 32//32
f  38//38 43//43 32//32
f  33//33 43//43 44//44
f  34//34 33//33 44//44
f  34//34 41//41 35//35
f  45//45 41//41 34//34
f  44//44 45//45 34//34
f  37//37 46//46 47//47
f  38//38 37//37 47//47
f  37//37 39//39 46//46
f  38//38 47//47 48//48
f  43//43 38//38 48//48
f  39//39 49//49 46//46
f  49//49 39//39 40//40
f  50//50 49//49 40//40
f  40//40 42//42 50//50
f  45//45 42//42 41//41
f  42//42 51//51 50//50
f  51//51 42//42 45//45
f  43//43 48//48 52//52
f  44//44 43//43 52//52
f  44//44 52//52 53//53
f  45//45 44//44 53//53
f  53//53 51//51 45//45
f  46//46 54//54 47//47
f  46//46 49//49 54//54
f  47//47 54//54 55//55
f  55//55 56//56 47//47
f  47//47 56//56 57//57
f  48//48 47//47 57//57
f  57//57 58//58 48//48
f  59//59 48//48 58//58
f  52//52 48//48 59//59
f  49//49 60//60 54//54
f  60//60 49//49 50//50
f  61//61 60//60 50//50
f  50//50 51//51 61//61
f  62//62 51//51 53//53
f  51//51 62//62 61//61
f  63//63 52//52 59//59
f  52//52 63//63 64//64
f  53//53 52//52 64//64
f  64//64 62//62 53//53
f  54//54 65//65 55//55
f  60//60 66//66 54//54
f  54//54 66//66 65//65
f  55//55 67//67 56//56
f  65//65 67//67 55//55
f  67//67 68//68 56//56
f  56//56 68//68 69//69
f  57//57 56//56 69//69
f  70//70 58//58 57//57
f  69//69 70//70 57//57
f  58//58 70//70 71//71
f  59//59 58//58 71//71
f  59//59 71//71 72//72
f  63//63 59//59 72//72
f  61//61 73//73 60//60
f  73//73 66//66 60//60
f  61//61 62//62 73//73
f  74//74 62//62 64//64
f  62//62 74//74 73//73
f  63//63 72//72 75//75
f  63//63 75//75 64//64
f  76//76 74//74 64//64
f  75//75 76//76 64//64
f  68//68 67//67 65//65
f  77//77 68//68 65//65
f  65//65 66//66 77//77
f  66//66 78//78 77//77
f  66//66 73//73 78//78
f  69//69 68//68 77//77
f  79//79 69//69 77//77
f  70//70 69//69 79//79
f  71//71 70//70 79//79
f  80//80 72//72 71//71
f  79//79 80//80 71//71
f  75//75 72//72 80//80
f  73//73 74//74 78//78
f  78//78 74//74 76//76
f  76//76 75//75 80//80
f  80//80 78//78 76//76
f  77//77 78//78 79//79
f  78//78 80//80 79//79
