#VRML V2.0 utf8
Transform {
children [
Shape {
appearance Appearance {
              material DEF surface Material {
              diffuseColor 0.8 0.8 0.8
              ambientIntensity 0.2
              specularColor 0.4 0.4 0.4
              emissiveColor 0 0 0
              shininess 0.25
              transparency 0
            }
          }
geometry IndexedFaceSet {
solid FALSE
coord DEF bone Coordinate {
point [
 -0.009107	 -0.083265	  0.012653,
 -0.012830	 -0.079589	  0.008093,
 -0.008539	 -0.076120	  0.009613,
 -0.008835	 -0.082094	  0.010195,
 -0.009826	 -0.082434	  0.015439,
 -0.007537	 -0.082209	  0.015469,
 -0.008218	 -0.070222	  0.008673,
 -0.012368	 -0.073592	  0.006835,
 -0.012673	 -0.077199	  0.017534,
 -0.001520	 -0.078298	  0.010389,
 -0.000733	 -0.071947	  0.010073,
 -0.005338	 -0.082311	  0.013753,
 -0.010055	 -0.082097	  0.017316,
 -0.006001	 -0.082837	  0.014833,
 -0.006320	 -0.081523	  0.019353,
 -0.006348	 -0.080478	  0.020846,
 -0.009073	 -0.064266	  0.008612,
 -0.003482	 -0.066009	  0.011046,
 -0.014503	 -0.071297	  0.018141,
 -0.013398	 -0.067329	  0.007960,
 -0.009697	 -0.076614	  0.020465,
 -0.001302	 -0.079151	  0.013400,
 -0.000852	 -0.073155	  0.014180,
 -0.003147	 -0.066871	  0.013380,
 -0.001772	 -0.077121	  0.020167,
 -0.003082	 -0.075908	  0.023916,
 -0.010010	 -0.058270	  0.008688,
 -0.006139	 -0.059970	  0.011050,
 -0.004899	 -0.060879	  0.012830,
 -0.014790	 -0.065182	  0.017263,
 -0.009416	 -0.070485	  0.021198,
 -0.013862	 -0.060968	  0.008573,
 -0.000701	 -0.071481	  0.019706,
 -0.003828	 -0.066191	  0.017281,
 -0.006830	 -0.060777	  0.016897,
 -0.003134	 -0.069749	  0.022982,
 -0.010201	 -0.052261	  0.008414,
 -0.007152	 -0.053598	  0.010250,
 -0.005890	 -0.054630	  0.013325,
 -0.007750	 -0.054706	  0.016753,
 -0.010733	 -0.064428	  0.019998,
 -0.014772	 -0.059065	  0.015891,
 -0.014526	 -0.054604	  0.009059,
 -0.007086	 -0.066625	  0.019146,
 -0.008506	 -0.060227	  0.017980,
 -0.009389	 -0.053707	  0.017692,
 -0.009768	 -0.046269	  0.008236,
 -0.006865	 -0.047122	  0.010476,
 -0.006218	 -0.048279	  0.013359,
 -0.007696	 -0.048354	  0.016427,
 -0.010031	 -0.047540	  0.017438,
 -0.012702	 -0.058587	  0.018856,
 -0.015162	 -0.052992	  0.014677,
 -0.014464	 -0.048234	  0.009116,
 -0.014129	 -0.052807	  0.016955,
 -0.014443	 -0.046795	  0.015339,
 -0.009013	 -0.040302	  0.008152,
 -0.005968	 -0.040698	  0.010274,
 -0.005892	 -0.041992	  0.012466,
 -0.007598	 -0.042065	  0.015671,
 -0.009939	 -0.041218	  0.017020,
 -0.014014	 -0.040591	  0.014521,
 -0.015352	 -0.046870	  0.013792,
 -0.013612	 -0.041882	  0.008795,
 -0.015075	 -0.040699	  0.013177,
 -0.008357	 -0.034350	  0.007667,
 -0.005256	 -0.034456	  0.008708,
 -0.004845	 -0.035794	  0.011576,
 -0.007087	 -0.035947	  0.014981,
 -0.009083	 -0.034859	  0.016606,
 -0.013272	 -0.034395	  0.014172,
 -0.014411	 -0.034555	  0.012623,
 -0.012591	 -0.035584	  0.008392,
 -0.007762	 -0.028443	  0.006694,
 -0.005240	 -0.028305	  0.006813,
 -0.003717	 -0.029534	  0.011310,
 -0.005500	 -0.029900	  0.015113,
 -0.007730	 -0.028579	  0.016463,
 -0.012507	 -0.028199	  0.013909,
 -0.013691	 -0.028435	  0.011940,
 -0.011626	 -0.029282	  0.007851,
 -0.006966	 -0.022625	  0.005387,
 -0.004441	 -0.021777	  0.005506,
 -0.002335	 -0.023349	  0.011033,
 -0.004220	 -0.023807	  0.015464,
 -0.009137	 -0.022189	  0.015877,
 -0.012012	 -0.021971	  0.013878,
 -0.013241	 -0.022317	  0.011031,
 -0.011295	 -0.022946	  0.007273,
 -0.006848	 -0.016540	  0.005563,
  0.000562	 -0.016975	  0.005060,
  0.000761	 -0.017966	  0.009533,
 -0.001113	 -0.017955	  0.015045,
 -0.008882	 -0.015933	  0.015534,
 -0.012252	 -0.015740	  0.014441,
 -0.013338	 -0.016129	  0.010629,
 -0.011782	 -0.016564	  0.007037,
 -0.006178	 -0.012089	  0.005923,
  0.002411	 -0.012435	  0.005115,
  0.001767	 -0.012175	  0.008112,
 -0.002062	 -0.011734	  0.015593,
 -0.006754	 -0.011890	  0.015730,
 -0.012066	 -0.009932	  0.012536,
 -0.012290	 -0.010268	  0.010253,
 -0.010308	 -0.011481	  0.006974,
 -0.005369	 -0.008921	  0.008769,
]
}
coordIndex [
   0,	   1,	   2, -1
   3,	   0,	   2, -1
   0,	   4,	   1, -1
   5,	   4,	   0, -1
   5,	   0,	   3, -1
   2,	   1,	   6, -1
   1,	   7,	   6, -1
   4,	   8,	   1, -1
   1,	   8,	   7, -1
   3,	   2,	   9, -1
   2,	   6,	  10, -1
   9,	   2,	  10, -1
  11,	   3,	   9, -1
   5,	   3,	  11, -1
   4,	  12,	   8, -1
   5,	  12,	   4, -1
   5,	  11,	  13, -1
   5,	  13,	  14, -1
   5,	  14,	  15, -1
   5,	  15,	  12, -1
   6,	   7,	  16, -1
   6,	  16,	  17, -1
  10,	   6,	  17, -1
   8,	  18,	   7, -1
   7,	  19,	  16, -1
   7,	  18,	  19, -1
  12,	  20,	   8, -1
   8,	  20,	  18, -1
  11,	   9,	  21, -1
   9,	  10,	  22, -1
  21,	   9,	  22, -1
  10,	  17,	  23, -1
  22,	  10,	  23, -1
  13,	  11,	  21, -1
  12,	  15,	  20, -1
  21,	  14,	  13, -1
  14,	  21,	  24, -1
  14,	  24,	  25, -1
  15,	  14,	  25, -1
  15,	  25,	  20, -1
  16,	  19,	  26, -1
  16,	  26,	  27, -1
  17,	  16,	  27, -1
  17,	  27,	  28, -1
  23,	  17,	  28, -1
  18,	  29,	  19, -1
  20,	  30,	  18, -1
  18,	  30,	  29, -1
  19,	  31,	  26, -1
  19,	  29,	  31, -1
  20,	  25,	  30, -1
  21,	  22,	  32, -1
  24,	  21,	  32, -1
  22,	  23,	  33, -1
  32,	  22,	  33, -1
  23,	  28,	  34, -1
  33,	  23,	  34, -1
  24,	  32,	  35, -1
  25,	  24,	  35, -1
  25,	  35,	  30, -1
  26,	  31,	  36, -1
  26,	  36,	  37, -1
  27,	  26,	  37, -1
  27,	  37,	  38, -1
  28,	  27,	  38, -1
  28,	  38,	  39, -1
  34,	  28,	  39, -1
  30,	  40,	  29, -1
  29,	  41,	  31, -1
  29,	  40,	  41, -1
  30,	  35,	  40, -1
  31,	  42,	  36, -1
  31,	  41,	  42, -1
  32,	  33,	  43, -1
  35,	  32,	  43, -1
  33,	  34,	  44, -1
  43,	  33,	  44, -1
  34,	  39,	  45, -1
  44,	  34,	  45, -1
  35,	  43,	  40, -1
  36,	  42,	  46, -1
  36,	  46,	  47, -1
  37,	  36,	  47, -1
  37,	  47,	  48, -1
  38,	  37,	  48, -1
  38,	  48,	  49, -1
  39,	  38,	  49, -1
  39,	  49,	  50, -1
  45,	  39,	  50, -1
  40,	  43,	  51, -1
  40,	  51,	  41, -1
  41,	  52,	  42, -1
  41,	  51,	  52, -1
  42,	  53,	  46, -1
  42,	  52,	  53, -1
  43,	  44,	  51, -1
  44,	  45,	  54, -1
  51,	  44,	  54, -1
  45,	  50,	  55, -1
  54,	  45,	  55, -1
  46,	  53,	  56, -1
  46,	  56,	  57, -1
  47,	  46,	  57, -1
  47,	  57,	  58, -1
  48,	  47,	  58, -1
  48,	  58,	  59, -1
  49,	  48,	  59, -1
  49,	  59,	  60, -1
  50,	  49,	  60, -1
  50,	  60,	  61, -1
  55,	  50,	  61, -1
  51,	  54,	  52, -1
  52,	  54,	  62, -1
  52,	  62,	  53, -1
  53,	  63,	  56, -1
  53,	  62,	  63, -1
  54,	  55,	  62, -1
  55,	  61,	  64, -1
  62,	  55,	  64, -1
  56,	  63,	  65, -1
  56,	  65,	  66, -1
  57,	  56,	  66, -1
  57,	  66,	  67, -1
  58,	  57,	  67, -1
  58,	  67,	  68, -1
  59,	  58,	  68, -1
  59,	  68,	  69, -1
  60,	  59,	  69, -1
  60,	  69,	  70, -1
  61,	  60,	  70, -1
  61,	  70,	  71, -1
  64,	  61,	  71, -1
  62,	  64,	  63, -1
  63,	  64,	  72, -1
  63,	  72,	  65, -1
  64,	  71,	  72, -1
  65,	  72,	  73, -1
  65,	  73,	  74, -1
  66,	  65,	  74, -1
  66,	  74,	  75, -1
  67,	  66,	  75, -1
  67,	  75,	  76, -1
  68,	  67,	  76, -1
  68,	  76,	  77, -1
  69,	  68,	  77, -1
  69,	  77,	  78, -1
  70,	  69,	  78, -1
  70,	  78,	  79, -1
  71,	  70,	  79, -1
  71,	  79,	  80, -1
  72,	  71,	  80, -1
  72,	  80,	  73, -1
  73,	  80,	  81, -1
  73,	  81,	  82, -1
  74,	  73,	  82, -1
  74,	  82,	  83, -1
  75,	  74,	  83, -1
  75,	  83,	  84, -1
  76,	  75,	  84, -1
  76,	  84,	  85, -1
  77,	  76,	  85, -1
  77,	  85,	  86, -1
  78,	  77,	  86, -1
  78,	  86,	  87, -1
  79,	  78,	  87, -1
  79,	  87,	  88, -1
  80,	  79,	  88, -1
  80,	  88,	  81, -1
  81,	  88,	  89, -1
  81,	  89,	  90, -1
  82,	  81,	  90, -1
  82,	  90,	  91, -1
  83,	  82,	  91, -1
  83,	  91,	  92, -1
  84,	  83,	  92, -1
  84,	  92,	  93, -1
  85,	  84,	  93, -1
  85,	  93,	  94, -1
  86,	  85,	  94, -1
  86,	  94,	  95, -1
  87,	  86,	  95, -1
  87,	  95,	  96, -1
  88,	  87,	  96, -1
  88,	  96,	  89, -1
  89,	  96,	  97, -1
  89,	  97,	  98, -1
  90,	  89,	  98, -1
  90,	  98,	  99, -1
  91,	  90,	  99, -1
  91,	  99,	 100, -1
  92,	  91,	 100, -1
  92,	 100,	 101, -1
  93,	  92,	 101, -1
  93,	 101,	 102, -1
  94,	  93,	 102, -1
  94,	 102,	 103, -1
  95,	  94,	 103, -1
  95,	 103,	 104, -1
  96,	  95,	 104, -1
  96,	 104,	  97, -1
  97,	 104,	 105, -1
  98,	  97,	 105, -1
  99,	  98,	 105, -1
 100,	  99,	 105, -1
 101,	 100,	 105, -1
 102,	 101,	 105, -1
 103,	 102,	 105, -1
 104,	 103,	 105, -1
]
colorPerVertex FALSE
colorIndex [
1,
1,
1,
1,
1,
1,
1,
1,
1,
1,
1,
1,
1,
1,
1,
1,
1,
1,
1,
1,
1,
1,
1,
1,
1,
1,
1,
1,
1,
1,
1,
1,
1,
1,
1,
1,
1,
1,
1,
1,
1,
1,
1,
1,
1,
1,
1,
1,
1,
1,
1,
1,
1,
1,
1,
1,
1,
1,
1,
1,
1,
1,
1,
1,
1,
1,
1,
1,
1,
1,
1,
1,
1,
1,
1,
1,
1,
1,
1,
1,
1,
1,
1,
1,
1,
1,
1,
1,
1,
1,
1,
1,
1,
1,
1,
1,
1,
1,
1,
1,
1,
1,
1,
1,
1,
1,
]
normal Normal {
vector [
 -0.174620	 -0.934430	 -0.310402,
 -0.504221	 -0.544462	 -0.670315,
 -0.189133	 -0.085463	 -0.978225,
 -0.080275	 -0.757007	 -0.648457,
 -0.468366	 -0.859474	  0.204789,
 -0.055016	 -0.998416	  0.011782,
  0.113312	  0.055179	 -0.992026,
 -0.746629	 -0.032389	 -0.664451,
 -0.808313	 -0.376300	  0.452801,
  0.501677	 -0.342884	 -0.794198,
  0.567756	  0.227433	 -0.791156,
  0.156990	 -0.882657	 -0.443024,
 -0.303705	 -0.817893	  0.488687,
  0.141239	 -0.977014	 -0.159674,
  0.367308	 -0.894786	  0.253857,
 -0.085211	 -0.754247	  0.651038,
  0.073330	  0.187844	 -0.979458,
  0.553436	  0.370591	 -0.745903,
 -0.773458	 -0.198742	  0.601884,
 -0.818752	  0.060857	 -0.570913,
 -0.310839	 -0.327833	  0.892135,
  0.836295	 -0.500461	 -0.223940,
  0.952997	  0.176603	 -0.246188,
  0.921256	  0.377607	 -0.093279,
  0.924621	 -0.363350	  0.114249,
  0.433455	 -0.429966	  0.791989,
  0.039645	  0.109250	 -0.993223,
  0.526845	  0.232745	 -0.817474,
  0.950840	  0.263612	 -0.162516,
 -0.773942	 -0.021681	  0.632885,
 -0.194066	 -0.045058	  0.979953,
 -0.850035	  0.030151	 -0.525863,
  0.956523	  0.287247	  0.050514,
  0.855584	  0.444753	  0.264899,
  0.892765	  0.236654	  0.383360,
  0.710511	  0.393037	  0.583692,
 -0.017114	  0.071361	 -0.997304,
  0.590125	  0.084025	 -0.802927,
  0.969775	  0.110441	 -0.217576,
  0.873166	  0.044658	  0.485374,
 -0.039365	  0.207204	  0.977506,
 -0.842061	 -0.068034	  0.535075,
 -0.881676	  0.016198	 -0.471576,
  0.647396	  0.511061	  0.565416,
  0.581274	  0.169672	  0.795822,
  0.423079	  0.026190	  0.905714,
 -0.036265	  0.040860	 -0.998506,
  0.660943	 -0.011794	 -0.750343,
  0.984974	  0.020938	 -0.171431,
  0.865412	  0.007409	  0.501006,
  0.259567	 -0.010907	  0.965664,
 -0.083536	  0.071230	  0.993956,
 -0.903978	 -0.058342	  0.423581,
 -0.865159	  0.056283	 -0.498329,
 -0.290871	  0.054126	  0.955230,
 -0.390349	  0.045685	  0.919533,
 -0.087326	 -0.010212	 -0.996127,
  0.668239	 -0.106917	 -0.736223,
  0.992705	 -0.076300	 -0.093356,
  0.892969	 -0.012570	  0.449943,
  0.243251	 -0.001642	  0.969962,
 -0.431287	  0.044882	  0.901098,
 -0.924239	  0.017636	  0.381407,
 -0.820106	  0.073463	 -0.567477,
 -0.921612	  0.073646	  0.381061,
 -0.211991	 -0.054287	 -0.975763,
  0.549947	 -0.134805	 -0.824249,
  0.980454	 -0.163026	 -0.110146,
  0.876094	 -0.130774	  0.464066,
  0.313150	 -0.033021	  0.949130,
 -0.465836	  0.050374	  0.883436,
 -0.929999	  0.094444	  0.355221,
 -0.808202	  0.064016	 -0.585416,
 -0.322009	 -0.082665	 -0.943121,
  0.385368	 -0.145643	 -0.911197,
  0.958995	 -0.168462	 -0.227923,
  0.842737	 -0.152690	  0.516217,
  0.284216	 -0.070785	  0.956144,
 -0.501532	  0.028894	  0.864657,
 -0.951050	  0.065748	  0.301962,
 -0.828257	  0.026839	 -0.559705,
 -0.398480	 -0.027585	 -0.916762,
  0.289121	 -0.329116	 -0.898939,
  0.891298	 -0.331906	 -0.308910,
  0.759644	 -0.214766	  0.613854,
  0.131807	 -0.067881	  0.988949,
 -0.587134	 -0.084720	  0.805044,
 -0.966658	 -0.004550	  0.256030,
 -0.839616	  0.017348	 -0.542904,
 -0.447344	  0.121388	 -0.886086,
  0.398763	 -0.263743	 -0.878309,
  0.926526	 -0.314881	 -0.205913,
  0.760082	 -0.227084	  0.608858,
  0.118873	  0.013421	  0.992819,
 -0.584584	  0.017277	  0.811149,
 -0.979563	  0.067246	  0.189565,
 -0.820847	  0.094633	 -0.563254,
 -0.391006	  0.416151	 -0.820934,
  0.143583	  0.517623	 -0.843475,
  0.949751	  0.312274	 -0.021412,
  0.751013	  0.444970	  0.487833,
  0.158566	  0.376079	  0.912919,
 -0.327608	  0.590328	  0.737689,
 -0.839043	  0.540106	  0.065520,
 -0.698244	  0.494186	 -0.517915,
  0.001263	  0.996963	 -0.077867,
]
}
normalIndex [
   0,	   1,	   2, -1
   3,	   0,	   2, -1
   0,	   4,	   1, -1
   5,	   4,	   0, -1
   5,	   0,	   3, -1
   2,	   1,	   6, -1
   1,	   7,	   6, -1
   4,	   8,	   1, -1
   1,	   8,	   7, -1
   3,	   2,	   9, -1
   2,	   6,	  10, -1
   9,	   2,	  10, -1
  11,	   3,	   9, -1
   5,	   3,	  11, -1
   4,	  12,	   8, -1
   5,	  12,	   4, -1
   5,	  11,	  13, -1
   5,	  13,	  14, -1
   5,	  14,	  15, -1
   5,	  15,	  12, -1
   6,	   7,	  16, -1
   6,	  16,	  17, -1
  10,	   6,	  17, -1
   8,	  18,	   7, -1
   7,	  19,	  16, -1
   7,	  18,	  19, -1
  12,	  20,	   8, -1
   8,	  20,	  18, -1
  11,	   9,	  21, -1
   9,	  10,	  22, -1
  21,	   9,	  22, -1
  10,	  17,	  23, -1
  22,	  10,	  23, -1
  13,	  11,	  21, -1
  12,	  15,	  20, -1
  21,	  14,	  13, -1
  14,	  21,	  24, -1
  14,	  24,	  25, -1
  15,	  14,	  25, -1
  15,	  25,	  20, -1
  16,	  19,	  26, -1
  16,	  26,	  27, -1
  17,	  16,	  27, -1
  17,	  27,	  28, -1
  23,	  17,	  28, -1
  18,	  29,	  19, -1
  20,	  30,	  18, -1
  18,	  30,	  29, -1
  19,	  31,	  26, -1
  19,	  29,	  31, -1
  20,	  25,	  30, -1
  21,	  22,	  32, -1
  24,	  21,	  32, -1
  22,	  23,	  33, -1
  32,	  22,	  33, -1
  23,	  28,	  34, -1
  33,	  23,	  34, -1
  24,	  32,	  35, -1
  25,	  24,	  35, -1
  25,	  35,	  30, -1
  26,	  31,	  36, -1
  26,	  36,	  37, -1
  27,	  26,	  37, -1
  27,	  37,	  38, -1
  28,	  27,	  38, -1
  28,	  38,	  39, -1
  34,	  28,	  39, -1
  30,	  40,	  29, -1
  29,	  41,	  31, -1
  29,	  40,	  41, -1
  30,	  35,	  40, -1
  31,	  42,	  36, -1
  31,	  41,	  42, -1
  32,	  33,	  43, -1
  35,	  32,	  43, -1
  33,	  34,	  44, -1
  43,	  33,	  44, -1
  34,	  39,	  45, -1
  44,	  34,	  45, -1
  35,	  43,	  40, -1
  36,	  42,	  46, -1
  36,	  46,	  47, -1
  37,	  36,	  47, -1
  37,	  47,	  48, -1
  38,	  37,	  48, -1
  38,	  48,	  49, -1
  39,	  38,	  49, -1
  39,	  49,	  50, -1
  45,	  39,	  50, -1
  40,	  43,	  51, -1
  40,	  51,	  41, -1
  41,	  52,	  42, -1
  41,	  51,	  52, -1
  42,	  53,	  46, -1
  42,	  52,	  53, -1
  43,	  44,	  51, -1
  44,	  45,	  54, -1
  51,	  44,	  54, -1
  45,	  50,	  55, -1
  54,	  45,	  55, -1
  46,	  53,	  56, -1
  46,	  56,	  57, -1
  47,	  46,	  57, -1
  47,	  57,	  58, -1
  48,	  47,	  58, -1
  48,	  58,	  59, -1
  49,	  48,	  59, -1
  49,	  59,	  60, -1
  50,	  49,	  60, -1
  50,	  60,	  61, -1
  55,	  50,	  61, -1
  51,	  54,	  52, -1
  52,	  54,	  62, -1
  52,	  62,	  53, -1
  53,	  63,	  56, -1
  53,	  62,	  63, -1
  54,	  55,	  62, -1
  55,	  61,	  64, -1
  62,	  55,	  64, -1
  56,	  63,	  65, -1
  56,	  65,	  66, -1
  57,	  56,	  66, -1
  57,	  66,	  67, -1
  58,	  57,	  67, -1
  58,	  67,	  68, -1
  59,	  58,	  68, -1
  59,	  68,	  69, -1
  60,	  59,	  69, -1
  60,	  69,	  70, -1
  61,	  60,	  70, -1
  61,	  70,	  71, -1
  64,	  61,	  71, -1
  62,	  64,	  63, -1
  63,	  64,	  72, -1
  63,	  72,	  65, -1
  64,	  71,	  72, -1
  65,	  72,	  73, -1
  65,	  73,	  74, -1
  66,	  65,	  74, -1
  66,	  74,	  75, -1
  67,	  66,	  75, -1
  67,	  75,	  76, -1
  68,	  67,	  76, -1
  68,	  76,	  77, -1
  69,	  68,	  77, -1
  69,	  77,	  78, -1
  70,	  69,	  78, -1
  70,	  78,	  79, -1
  71,	  70,	  79, -1
  71,	  79,	  80, -1
  72,	  71,	  80, -1
  72,	  80,	  73, -1
  73,	  80,	  81, -1
  73,	  81,	  82, -1
  74,	  73,	  82, -1
  74,	  82,	  83, -1
  75,	  74,	  83, -1
  75,	  83,	  84, -1
  76,	  75,	  84, -1
  76,	  84,	  85, -1
  77,	  76,	  85, -1
  77,	  85,	  86, -1
  78,	  77,	  86, -1
  78,	  86,	  87, -1
  79,	  78,	  87, -1
  79,	  87,	  88, -1
  80,	  79,	  88, -1
  80,	  88,	  81, -1
  81,	  88,	  89, -1
  81,	  89,	  90, -1
  82,	  81,	  90, -1
  82,	  90,	  91, -1
  83,	  82,	  91, -1
  83,	  91,	  92, -1
  84,	  83,	  92, -1
  84,	  92,	  93, -1
  85,	  84,	  93, -1
  85,	  93,	  94, -1
  86,	  85,	  94, -1
  86,	  94,	  95, -1
  87,	  86,	  95, -1
  87,	  95,	  96, -1
  88,	  87,	  96, -1
  88,	  96,	  89, -1
  89,	  96,	  97, -1
  89,	  97,	  98, -1
  90,	  89,	  98, -1
  90,	  98,	  99, -1
  91,	  90,	  99, -1
  91,	  99,	 100, -1
  92,	  91,	 100, -1
  92,	 100,	 101, -1
  93,	  92,	 101, -1
  93,	 101,	 102, -1
  94,	  93,	 102, -1
  94,	 102,	 103, -1
  95,	  94,	 103, -1
  95,	 103,	 104, -1
  96,	  95,	 104, -1
  96,	 104,	  97, -1
  97,	 104,	 105, -1
  98,	  97,	 105, -1
  99,	  98,	 105, -1
 100,	  99,	 105, -1
 101,	 100,	 105, -1
 102,	 101,	 105, -1
 103,	 102,	 105, -1
 104,	 103,	 105, -1
]
normalPerVertex TRUE
}
}
]
}
