#VRML V2.0 utf8
Transform {
children [
Shape {
appearance Appearance {
              material DEF surface Material {
              diffuseColor 0.8 0.8 0.8
              ambientIntensity 0.2
              specularColor 0.4 0.4 0.4
              emissiveColor 0 0 0
              shininess 0.25
              transparency 0
            }
          }
geometry IndexedFaceSet {
solid FALSE
coord DEF bone Coordinate {
point [
 -0.001435	 -0.062927	  0.031164,
 -0.005349	 -0.060223	  0.028047,
 -0.001630	 -0.057366	  0.028045,
 -0.001741	 -0.062180	  0.029072,
 -0.001413	 -0.062006	  0.033438,
  0.000405	 -0.061871	  0.032960,
 -0.001574	 -0.052642	  0.026737,
 -0.005249	 -0.055447	  0.026452,
 -0.003222	 -0.057506	  0.035243,
  0.004091	 -0.059231	  0.027360,
  0.004647	 -0.054098	  0.026407,
  0.001782	 -0.062143	  0.031153,
 -0.001196	 -0.061573	  0.034935,
  0.001486	 -0.062468	  0.032189,
  0.002192	 -0.061021	  0.035702,
  0.002487	 -0.060046	  0.036795,
 -0.002264	 -0.047774	  0.026365,
  0.002678	 -0.049118	  0.027250,
 -0.004541	 -0.052606	  0.035608,
 -0.005826	 -0.050229	  0.027024,
 -0.000246	 -0.056855	  0.036874,
  0.004901	 -0.059684	  0.029756,
  0.005423	 -0.054744	  0.029768,
  0.003437	 -0.049639	  0.029090,
  0.005963	 -0.057466	  0.035010,
  0.005722	 -0.056142	  0.038135,
 -0.002990	 -0.042861	  0.026114,
  0.000575	 -0.044138	  0.027301,
  0.001935	 -0.044762	  0.028519,
 -0.004955	 -0.047687	  0.034459,
  0.000133	 -0.051807	  0.036873,
 -0.006063	 -0.044985	  0.027065,
  0.006714	 -0.052932	  0.033944,
  0.003725	 -0.048749	  0.032246,
  0.001268	 -0.044303	  0.032118,
  0.005484	 -0.051198	  0.036890,
 -0.003198	 -0.037983	  0.025430,
 -0.000395	 -0.038988	  0.026346,
  0.001256	 -0.039606	  0.028587,
  0.000510	 -0.039346	  0.031685,
 -0.001163	 -0.046938	  0.035692,
 -0.005232	 -0.042815	  0.032856,
 -0.006485	 -0.039744	  0.027049,
  0.001543	 -0.048878	  0.034438,
  0.000171	 -0.043729	  0.033278,
 -0.000588	 -0.038420	  0.032685,
 -0.002893	 -0.033124	  0.024691,
 -0.000120	 -0.033699	  0.025914,
  0.001003	 -0.034420	  0.028145,
  0.000484	 -0.034197	  0.030879,
 -0.001150	 -0.033399	  0.032098,
 -0.002964	 -0.042228	  0.034714,
 -0.005796	 -0.037957	  0.031469,
 -0.006423	 -0.034549	  0.026540,
 -0.004496	 -0.037643	  0.033027,
 -0.005086	 -0.032868	  0.031313,
 -0.002313	 -0.028283	  0.023961,
  0.000548	 -0.028500	  0.025022,
  0.001072	 -0.029377	  0.026842,
  0.000402	 -0.029136	  0.029730,
 -0.001166	 -0.028284	  0.031214,
 -0.004919	 -0.027887	  0.030053,
 -0.006134	 -0.033035	  0.030294,
 -0.005817	 -0.029417	  0.025570,
 -0.006045	 -0.028062	  0.029228,
 -0.001896	 -0.023486	  0.022936,
  0.000779	 -0.023556	  0.023109,
  0.001712	 -0.024422	  0.025394,
  0.000661	 -0.024216	  0.028562,
 -0.000575	 -0.023154	  0.030169,
 -0.004406	 -0.022883	  0.029096,
 -0.005637	 -0.023115	  0.028132,
 -0.005094	 -0.024340	  0.024503,
 -0.001631	 -0.018765	  0.021543,
  0.000391	 -0.018698	  0.021093,
  0.002550	 -0.019366	  0.024416,
  0.001645	 -0.019279	  0.027621,
  0.000402	 -0.018112	  0.028886,
 -0.003856	 -0.017872	  0.028203,
 -0.005211	 -0.018199	  0.026923,
 -0.004444	 -0.019269	  0.023341,
 -0.001277	 -0.014148	  0.019853,
  0.000563	 -0.013208	  0.019868,
  0.003584	 -0.014378	  0.023383,
  0.002403	 -0.014226	  0.026811,
  0.000589	 -0.012909	  0.027941,
 -0.003470	 -0.012809	  0.027546,
 -0.005047	 -0.013297	  0.025595,
 -0.004304	 -0.014161	  0.022279,
 -0.001136	 -0.009313	  0.018759,
  0.003943	 -0.009994	  0.019103,
  0.004991	 -0.009824	  0.021068,
  0.003760	 -0.009292	  0.025381,
  0.000759	 -0.007810	  0.027655,
 -0.003091	 -0.007763	  0.026957,
 -0.004513	 -0.008329	  0.024593,
 -0.005176	 -0.008987	  0.021379,
  0.000221	 -0.005989	  0.017748,
  0.004855	 -0.006651	  0.018628,
  0.006212	 -0.005601	  0.019272,
  0.004244	 -0.005241	  0.025708,
  0.001673	 -0.004167	  0.026807,
 -0.002932	 -0.003437	  0.026410,
 -0.004459	 -0.003562	  0.023761,
 -0.004713	 -0.005062	  0.019003,
  0.000613	 -0.005249	  0.022099,
]
}
coordIndex [
   0,	   1,	   2, -1
   3,	   0,	   2, -1
   0,	   4,	   1, -1
   5,	   4,	   0, -1
   5,	   0,	   3, -1
   2,	   1,	   6, -1
   1,	   7,	   6, -1
   4,	   8,	   1, -1
   1,	   8,	   7, -1
   3,	   2,	   9, -1
   2,	   6,	  10, -1
   9,	   2,	  10, -1
  11,	   3,	   9, -1
   5,	   3,	  11, -1
   4,	  12,	   8, -1
   5,	  12,	   4, -1
   5,	  11,	  13, -1
   5,	  13,	  14, -1
   5,	  14,	  15, -1
   5,	  15,	  12, -1
   6,	   7,	  16, -1
   6,	  16,	  17, -1
  10,	   6,	  17, -1
   8,	  18,	   7, -1
   7,	  19,	  16, -1
   7,	  18,	  19, -1
  12,	  20,	   8, -1
   8,	  20,	  18, -1
  11,	   9,	  21, -1
   9,	  10,	  22, -1
  21,	   9,	  22, -1
  10,	  17,	  23, -1
  22,	  10,	  23, -1
  13,	  11,	  21, -1
  12,	  15,	  20, -1
  21,	  14,	  13, -1
  14,	  21,	  24, -1
  14,	  24,	  25, -1
  15,	  14,	  25, -1
  15,	  25,	  20, -1
  16,	  19,	  26, -1
  16,	  26,	  27, -1
  17,	  16,	  27, -1
  17,	  27,	  28, -1
  23,	  17,	  28, -1
  18,	  29,	  19, -1
  20,	  30,	  18, -1
  18,	  30,	  29, -1
  19,	  31,	  26, -1
  19,	  29,	  31, -1
  20,	  25,	  30, -1
  21,	  22,	  32, -1
  24,	  21,	  32, -1
  22,	  23,	  33, -1
  32,	  22,	  33, -1
  23,	  28,	  34, -1
  33,	  23,	  34, -1
  24,	  32,	  35, -1
  25,	  24,	  35, -1
  25,	  35,	  30, -1
  26,	  31,	  36, -1
  26,	  36,	  37, -1
  27,	  26,	  37, -1
  27,	  37,	  38, -1
  28,	  27,	  38, -1
  28,	  38,	  39, -1
  34,	  28,	  39, -1
  30,	  40,	  29, -1
  29,	  41,	  31, -1
  29,	  40,	  41, -1
  30,	  35,	  40, -1
  31,	  42,	  36, -1
  31,	  41,	  42, -1
  32,	  33,	  43, -1
  35,	  32,	  43, -1
  33,	  34,	  44, -1
  43,	  33,	  44, -1
  34,	  39,	  45, -1
  44,	  34,	  45, -1
  35,	  43,	  40, -1
  36,	  42,	  46, -1
  36,	  46,	  47, -1
  37,	  36,	  47, -1
  37,	  47,	  48, -1
  38,	  37,	  48, -1
  38,	  48,	  49, -1
  39,	  38,	  49, -1
  39,	  49,	  50, -1
  45,	  39,	  50, -1
  40,	  43,	  51, -1
  40,	  51,	  41, -1
  41,	  52,	  42, -1
  41,	  51,	  52, -1
  42,	  53,	  46, -1
  42,	  52,	  53, -1
  43,	  44,	  51, -1
  44,	  45,	  54, -1
  51,	  44,	  54, -1
  45,	  50,	  55, -1
  54,	  45,	  55, -1
  46,	  53,	  56, -1
  46,	  56,	  57, -1
  47,	  46,	  57, -1
  47,	  57,	  58, -1
  48,	  47,	  58, -1
  48,	  58,	  59, -1
  49,	  48,	  59, -1
  49,	  59,	  60, -1
  50,	  49,	  60, -1
  50,	  60,	  61, -1
  55,	  50,	  61, -1
  51,	  54,	  52, -1
  52,	  54,	  62, -1
  52,	  62,	  53, -1
  53,	  63,	  56, -1
  53,	  62,	  63, -1
  54,	  55,	  62, -1
  55,	  61,	  64, -1
  62,	  55,	  64, -1
  56,	  63,	  65, -1
  56,	  65,	  66, -1
  57,	  56,	  66, -1
  57,	  66,	  67, -1
  58,	  57,	  67, -1
  58,	  67,	  68, -1
  59,	  58,	  68, -1
  59,	  68,	  69, -1
  60,	  59,	  69, -1
  60,	  69,	  70, -1
  61,	  60,	  70, -1
  61,	  70,	  71, -1
  64,	  61,	  71, -1
  62,	  64,	  63, -1
  63,	  64,	  72, -1
  63,	  72,	  65, -1
  64,	  71,	  72, -1
  65,	  72,	  73, -1
  65,	  73,	  74, -1
  66,	  65,	  74, -1
  66,	  74,	  75, -1
  67,	  66,	  75, -1
  67,	  75,	  76, -1
  68,	  67,	  76, -1
  68,	  76,	  77, -1
  69,	  68,	  77, -1
  69,	  77,	  78, -1
  70,	  69,	  78, -1
  70,	  78,	  79, -1
  71,	  70,	  79, -1
  71,	  79,	  80, -1
  72,	  71,	  80, -1
  72,	  80,	  73, -1
  73,	  80,	  81, -1
  73,	  81,	  82, -1
  74,	  73,	  82, -1
  74,	  82,	  83, -1
  75,	  74,	  83, -1
  75,	  83,	  84, -1
  76,	  75,	  84, -1
  76,	  84,	  85, -1
  77,	  76,	  85, -1
  77,	  85,	  86, -1
  78,	  77,	  86, -1
  78,	  86,	  87, -1
  79,	  78,	  87, -1
  79,	  87,	  88, -1
  80,	  79,	  88, -1
  80,	  88,	  81, -1
  81,	  88,	  89, -1
  81,	  89,	  90, -1
  82,	  81,	  90, -1
  82,	  90,	  91, -1
  83,	  82,	  91, -1
  83,	  91,	  92, -1
  84,	  83,	  92, -1
  84,	  92,	  93, -1
  85,	  84,	  93, -1
  85,	  93,	  94, -1
  86,	  85,	  94, -1
  86,	  94,	  95, -1
  87,	  86,	  95, -1
  87,	  95,	  96, -1
  88,	  87,	  96, -1
  88,	  96,	  89, -1
  89,	  96,	  97, -1
  89,	  97,	  98, -1
  90,	  89,	  98, -1
  90,	  98,	  99, -1
  91,	  90,	  99, -1
  91,	  99,	 100, -1
  92,	  91,	 100, -1
  92,	 100,	 101, -1
  93,	  92,	 101, -1
  93,	 101,	 102, -1
  94,	  93,	 102, -1
  94,	 102,	 103, -1
  95,	  94,	 103, -1
  95,	 103,	 104, -1
  96,	  95,	 104, -1
  96,	 104,	  97, -1
  97,	 104,	 105, -1
  98,	  97,	 105, -1
  99,	  98,	 105, -1
 100,	  99,	 105, -1
 101,	 100,	 105, -1
 102,	 101,	 105, -1
 103,	 102,	 105, -1
 104,	 103,	 105, -1
]
colorPerVertex FALSE
colorIndex [
1,
1,
1,
1,
1,
1,
1,
1,
1,
1,
1,
1,
1,
1,
1,
1,
1,
1,
1,
1,
1,
1,
1,
1,
1,
1,
1,
1,
1,
1,
1,
1,
1,
1,
1,
1,
1,
1,
1,
1,
1,
1,
1,
1,
1,
1,
1,
1,
1,
1,
1,
1,
1,
1,
1,
1,
1,
1,
1,
1,
1,
1,
1,
1,
1,
1,
1,
1,
1,
1,
1,
1,
1,
1,
1,
1,
1,
1,
1,
1,
1,
1,
1,
1,
1,
1,
1,
1,
1,
1,
1,
1,
1,
1,
1,
1,
1,
1,
1,
1,
1,
1,
1,
1,
1,
1,
]
normal Normal {
vector [
 -0.174842	 -0.976326	 -0.127353,
 -0.504328	 -0.661667	 -0.554842,
 -0.189104	 -0.269488	 -0.944254,
 -0.080323	 -0.866266	 -0.493084,
 -0.468614	 -0.804927	  0.363997,
 -0.055070	 -0.978036	  0.201032,
  0.113222	 -0.133945	 -0.984500,
 -0.746687	 -0.157765	 -0.646196,
 -0.808392	 -0.283551	  0.515850,
  0.501806	 -0.487383	 -0.714597,
  0.567941	  0.073284	 -0.819800,
  0.157263	 -0.950732	 -0.267165,
 -0.303972	 -0.710343	  0.634833,
  0.141770	 -0.989474	  0.029020,
  0.367562	 -0.830332	  0.418863,
 -0.085097	 -0.617055	  0.782305,
  0.073288	 -0.001395	 -0.997310,
  0.553667	  0.222399	 -0.802491,
 -0.773522	 -0.081000	  0.628572,
 -0.818746	 -0.048575	 -0.572097,
 -0.310904	 -0.152742	  0.938088,
  0.836370	 -0.533814	 -0.124611,
  0.953053	  0.126653	 -0.275045,
  0.921301	  0.353048	 -0.162978,
  0.924578	 -0.335220	  0.181060,
  0.433667	 -0.272045	  0.859025,
  0.039643	 -0.081170	 -0.995912,
  0.526886	  0.073414	 -0.846760,
  0.950923	  0.227913	 -0.209288,
 -0.773951	  0.098847	  0.625483,
 -0.194047	  0.141679	  0.970707,
 -0.850042	 -0.070117	 -0.522027,
  0.956590	  0.291396	 -0.004851,
  0.855628	  0.486903	  0.175574,
  0.892797	  0.304999	  0.331495,
  0.710608	  0.496443	  0.498580,
 -0.017187	 -0.119112	 -0.992732,
  0.590146	 -0.069847	 -0.804269,
  0.969773	  0.067134	 -0.234590,
  0.873085	  0.135833	  0.468264,
 -0.039320	  0.388911	  0.920436,
 -0.842083	  0.034766	  0.538226,
 -0.881732	 -0.073399	 -0.466006,
  0.647484	  0.608939	  0.458212,
  0.581398	  0.317629	  0.749058,
  0.422971	  0.197432	  0.884373,
 -0.036422	 -0.149205	 -0.988135,
  0.660989	 -0.153962	 -0.734432,
  0.984969	 -0.012013	 -0.172311,
  0.865354	  0.102308	  0.490607,
  0.259468	  0.172463	  0.950228,
 -0.083507	  0.258589	  0.962371,
 -0.903953	  0.023253	  0.426998,
 -0.865149	 -0.039171	 -0.499982,
 -0.290809	  0.234429	  0.927617,
 -0.390171	  0.219273	  0.894251,
 -0.087438	 -0.198955	 -0.976100,
  0.668202	 -0.244686	 -0.702591,
  0.992697	 -0.092750	 -0.077140,
  0.892843	  0.072878	  0.444432,
  0.242990	  0.182403	  0.952725,
 -0.431048	  0.215062	  0.876325,
 -0.924159	  0.089766	  0.371312,
 -0.820068	 -0.035541	 -0.571162,
 -0.921504	  0.144692	  0.360409,
 -0.211905	 -0.238528	 -0.947734,
  0.549788	 -0.288847	 -0.783773,
  0.984297	 -0.165882	 -0.060357,
  0.883714	 -0.011589	  0.467885,
  0.329598	  0.165633	  0.929479,
 -0.465597	  0.217140	  0.857945,
 -0.929856	  0.160301	  0.331167,
 -0.808208	 -0.048141	 -0.586927,
 -0.274802	 -0.251736	 -0.927962,
  0.373220	 -0.281638	 -0.883961,
  0.974569	 -0.184839	 -0.126687,
  0.846538	 -0.034292	  0.531223,
  0.356047	  0.127992	  0.925661,
 -0.478814	  0.202431	  0.854259,
 -0.950955	  0.121990	  0.284258,
 -0.828330	 -0.079686	 -0.554545,
 -0.228030	 -0.289505	 -0.929618,
  0.394772	 -0.448143	 -0.802074,
  0.945358	 -0.269598	 -0.183343,
  0.801364	 -0.044428	  0.596525,
  0.270218	  0.097222	  0.957878,
 -0.506798	  0.165511	  0.846027,
 -0.948653	  0.086307	  0.304316,
 -0.840286	 -0.136675	 -0.524633,
 -0.265231	 -0.200872	 -0.943029,
  0.437929	 -0.416758	 -0.796574,
  0.916341	 -0.391048	 -0.086030,
  0.788503	 -0.084815	  0.609155,
  0.248760	  0.098042	  0.963590,
 -0.561887	  0.115801	  0.819069,
 -0.933131	  0.134972	  0.333241,
 -0.874294	 -0.117171	 -0.471042,
 -0.127328	  0.347248	 -0.929089,
  0.177020	  0.256462	 -0.950206,
  0.761315	  0.328335	 -0.559103,
  0.796387	  0.475251	  0.374037,
  0.416913	  0.621749	  0.663032,
 -0.208915	  0.747391	  0.630683,
 -0.723921	  0.667731	  0.173417,
 -0.691821	  0.600638	 -0.400771,
  0.126955	  0.956066	 -0.264235,
]
}
normalIndex [
   0,	   1,	   2, -1
   3,	   0,	   2, -1
   0,	   4,	   1, -1
   5,	   4,	   0, -1
   5,	   0,	   3, -1
   2,	   1,	   6, -1
   1,	   7,	   6, -1
   4,	   8,	   1, -1
   1,	   8,	   7, -1
   3,	   2,	   9, -1
   2,	   6,	  10, -1
   9,	   2,	  10, -1
  11,	   3,	   9, -1
   5,	   3,	  11, -1
   4,	  12,	   8, -1
   5,	  12,	   4, -1
   5,	  11,	  13, -1
   5,	  13,	  14, -1
   5,	  14,	  15, -1
   5,	  15,	  12, -1
   6,	   7,	  16, -1
   6,	  16,	  17, -1
  10,	   6,	  17, -1
   8,	  18,	   7, -1
   7,	  19,	  16, -1
   7,	  18,	  19, -1
  12,	  20,	   8, -1
   8,	  20,	  18, -1
  11,	   9,	  21, -1
   9,	  10,	  22, -1
  21,	   9,	  22, -1
  10,	  17,	  23, -1
  22,	  10,	  23, -1
  13,	  11,	  21, -1
  12,	  15,	  20, -1
  21,	  14,	  13, -1
  14,	  21,	  24, -1
  14,	  24,	  25, -1
  15,	  14,	  25, -1
  15,	  25,	  20, -1
  16,	  19,	  26, -1
  16,	  26,	  27, -1
  17,	  16,	  27, -1
  17,	  27,	  28, -1
  23,	  17,	  28, -1
  18,	  29,	  19, -1
  20,	  30,	  18, -1
  18,	  30,	  29, -1
  19,	  31,	  26, -1
  19,	  29,	  31, -1
  20,	  25,	  30, -1
  21,	  22,	  32, -1
  24,	  21,	  32, -1
  22,	  23,	  33, -1
  32,	  22,	  33, -1
  23,	  28,	  34, -1
  33,	  23,	  34, -1
  24,	  32,	  35, -1
  25,	  24,	  35, -1
  25,	  35,	  30, -1
  26,	  31,	  36, -1
  26,	  36,	  37, -1
  27,	  26,	  37, -1
  27,	  37,	  38, -1
  28,	  27,	  38, -1
  28,	  38,	  39, -1
  34,	  28,	  39, -1
  30,	  40,	  29, -1
  29,	  41,	  31, -1
  29,	  40,	  41, -1
  30,	  35,	  40, -1
  31,	  42,	  36, -1
  31,	  41,	  42, -1
  32,	  33,	  43, -1
  35,	  32,	  43, -1
  33,	  34,	  44, -1
  43,	  33,	  44, -1
  34,	  39,	  45, -1
  44,	  34,	  45, -1
  35,	  43,	  40, -1
  36,	  42,	  46, -1
  36,	  46,	  47, -1
  37,	  36,	  47, -1
  37,	  47,	  48, -1
  38,	  37,	  48, -1
  38,	  48,	  49, -1
  39,	  38,	  49, -1
  39,	  49,	  50, -1
  45,	  39,	  50, -1
  40,	  43,	  51, -1
  40,	  51,	  41, -1
  41,	  52,	  42, -1
  41,	  51,	  52, -1
  42,	  53,	  46, -1
  42,	  52,	  53, -1
  43,	  44,	  51, -1
  44,	  45,	  54, -1
  51,	  44,	  54, -1
  45,	  50,	  55, -1
  54,	  45,	  55, -1
  46,	  53,	  56, -1
  46,	  56,	  57, -1
  47,	  46,	  57, -1
  47,	  57,	  58, -1
  48,	  47,	  58, -1
  48,	  58,	  59, -1
  49,	  48,	  59, -1
  49,	  59,	  60, -1
  50,	  49,	  60, -1
  50,	  60,	  61, -1
  55,	  50,	  61, -1
  51,	  54,	  52, -1
  52,	  54,	  62, -1
  52,	  62,	  53, -1
  53,	  63,	  56, -1
  53,	  62,	  63, -1
  54,	  55,	  62, -1
  55,	  61,	  64, -1
  62,	  55,	  64, -1
  56,	  63,	  65, -1
  56,	  65,	  66, -1
  57,	  56,	  66, -1
  57,	  66,	  67, -1
  58,	  57,	  67, -1
  58,	  67,	  68, -1
  59,	  58,	  68, -1
  59,	  68,	  69, -1
  60,	  59,	  69, -1
  60,	  69,	  70, -1
  61,	  60,	  70, -1
  61,	  70,	  71, -1
  64,	  61,	  71, -1
  62,	  64,	  63, -1
  63,	  64,	  72, -1
  63,	  72,	  65, -1
  64,	  71,	  72, -1
  65,	  72,	  73, -1
  65,	  73,	  74, -1
  66,	  65,	  74, -1
  66,	  74,	  75, -1
  67,	  66,	  75, -1
  67,	  75,	  76, -1
  68,	  67,	  76, -1
  68,	  76,	  77, -1
  69,	  68,	  77, -1
  69,	  77,	  78, -1
  70,	  69,	  78, -1
  70,	  78,	  79, -1
  71,	  70,	  79, -1
  71,	  79,	  80, -1
  72,	  71,	  80, -1
  72,	  80,	  73, -1
  73,	  80,	  81, -1
  73,	  81,	  82, -1
  74,	  73,	  82, -1
  74,	  82,	  83, -1
  75,	  74,	  83, -1
  75,	  83,	  84, -1
  76,	  75,	  84, -1
  76,	  84,	  85, -1
  77,	  76,	  85, -1
  77,	  85,	  86, -1
  78,	  77,	  86, -1
  78,	  86,	  87, -1
  79,	  78,	  87, -1
  79,	  87,	  88, -1
  80,	  79,	  88, -1
  80,	  88,	  81, -1
  81,	  88,	  89, -1
  81,	  89,	  90, -1
  82,	  81,	  90, -1
  82,	  90,	  91, -1
  83,	  82,	  91, -1
  83,	  91,	  92, -1
  84,	  83,	  92, -1
  84,	  92,	  93, -1
  85,	  84,	  93, -1
  85,	  93,	  94, -1
  86,	  85,	  94, -1
  86,	  94,	  95, -1
  87,	  86,	  95, -1
  87,	  95,	  96, -1
  88,	  87,	  96, -1
  88,	  96,	  89, -1
  89,	  96,	  97, -1
  89,	  97,	  98, -1
  90,	  89,	  98, -1
  90,	  98,	  99, -1
  91,	  90,	  99, -1
  91,	  99,	 100, -1
  92,	  91,	 100, -1
  92,	 100,	 101, -1
  93,	  92,	 101, -1
  93,	 101,	 102, -1
  94,	  93,	 102, -1
  94,	 102,	 103, -1
  95,	  94,	 103, -1
  95,	 103,	 104, -1
  96,	  95,	 104, -1
  96,	 104,	  97, -1
  97,	 104,	 105, -1
  98,	  97,	 105, -1
  99,	  98,	 105, -1
 100,	  99,	 105, -1
 101,	 100,	 105, -1
 102,	 101,	 105, -1
 103,	 102,	 105, -1
 104,	 103,	 105, -1
]
normalPerVertex TRUE
}
}
]
}
