#VRML V2.0 utf8
Transform {
children [
Shape {
appearance Appearance {
              material DEF surface Material {
              diffuseColor 0.8 0.8 0.8
              ambientIntensity 0.2
              specularColor 0.4 0.4 0.4
              emissiveColor 0 0 0
              shininess 0.25
              transparency 0
            }
          }
geometry IndexedFaceSet {
solid FALSE
coord DEF bone Coordinate {
point [
  0.004994	 -0.075350	 -0.012091,
  0.001293	 -0.079610	 -0.011137,
  0.006063	 -0.082322	 -0.015386,
  0.005870	 -0.081243	 -0.012879,
  0.004122	 -0.069544	 -0.010945,
  0.012337	 -0.076178	 -0.012186,
  0.011897	 -0.069813	 -0.011598,
  0.000509	 -0.073697	 -0.009658,
  0.001931	 -0.076773	 -0.020432,
  0.005480	 -0.081501	 -0.018206,
  0.007680	 -0.080862	 -0.017987,
  0.009680	 -0.080648	 -0.016052,
  0.002175	 -0.063853	 -0.010797,
  0.008204	 -0.064431	 -0.012678,
  0.013005	 -0.076829	 -0.015180,
  0.012409	 -0.070820	 -0.015730,
  0.008921	 -0.065103	 -0.014988,
 -0.000893	 -0.071278	 -0.021053,
 -0.001549	 -0.067678	 -0.010698,
  0.005021	 -0.075515	 -0.023014,
  0.005379	 -0.081119	 -0.020086,
  0.009235	 -0.081232	 -0.017212,
  0.009124	 -0.079778	 -0.021699,
  0.009049	 -0.078684	 -0.023155,
  0.000154	 -0.058129	 -0.010792,
  0.004486	 -0.058981	 -0.012782,
  0.006043	 -0.059563	 -0.014448,
  0.012834	 -0.074589	 -0.021896,
  0.012789	 -0.068879	 -0.021156,
  0.008512	 -0.064368	 -0.018918,
  0.004535	 -0.059614	 -0.018691,
 -0.002394	 -0.065367	 -0.020027,
  0.004230	 -0.069409	 -0.023529,
 -0.003123	 -0.061484	 -0.011166,
  0.011697	 -0.073453	 -0.025724,
 -0.001174	 -0.052276	 -0.010361,
  0.002236	 -0.052946	 -0.011903,
  0.003964	 -0.053581	 -0.014857,
  0.002495	 -0.053825	 -0.018463,
  0.010411	 -0.067459	 -0.024618,
  0.005591	 -0.065294	 -0.021129,
  0.002901	 -0.059325	 -0.019927,
  0.000800	 -0.053096	 -0.019540,
  0.001702	 -0.063756	 -0.022294,
 -0.003646	 -0.059423	 -0.018478,
 -0.004905	 -0.055330	 -0.011528,
 -0.001879	 -0.046321	 -0.009958,
  0.001337	 -0.046522	 -0.011904,
  0.002468	 -0.047400	 -0.014735,
  0.001338	 -0.047592	 -0.017943,
 -0.000997	 -0.047167	 -0.019171,
 -0.001420	 -0.058433	 -0.021193,
 -0.004073	 -0.053107	 -0.019280,
 -0.005655	 -0.047339	 -0.017527,
 -0.005273	 -0.053588	 -0.017132,
 -0.006020	 -0.049060	 -0.011387,
 -0.002257	 -0.040327	 -0.009617,
  0.001003	 -0.040060	 -0.011416,
  0.001532	 -0.041210	 -0.013626,
  0.000193	 -0.041435	 -0.016993,
 -0.002120	 -0.040961	 -0.018556,
 -0.006466	 -0.041207	 -0.016483,
 -0.006682	 -0.047653	 -0.016089,
 -0.007616	 -0.041571	 -0.015263,
 -0.006397	 -0.042682	 -0.010788,
 -0.002767	 -0.034386	 -0.008887,
  0.000387	 -0.033876	 -0.009597,
  0.001318	 -0.034976	 -0.012445,
 -0.000510	 -0.035366	 -0.016071,
 -0.002503	 -0.034580	 -0.017864,
 -0.006925	 -0.035004	 -0.015873,
 -0.008161	 -0.035443	 -0.014459,
 -0.006607	 -0.036331	 -0.010091,
 -0.003377	 -0.028523	 -0.007681,
 -0.000925	 -0.027925	 -0.007528,
  0.001234	 -0.028636	 -0.011873,
 -0.000067	 -0.029133	 -0.015853,
 -0.002359	 -0.028174	 -0.017391,
 -0.007352	 -0.028793	 -0.015346,
 -0.008659	 -0.029335	 -0.013521,
 -0.006885	 -0.029992	 -0.009263,
 -0.003806	 -0.022729	 -0.006123,
 -0.001483	 -0.021432	 -0.005949,
  0.001411	 -0.022324	 -0.011268,
  0.000088	 -0.022899	 -0.015884,
 -0.004978	 -0.022181	 -0.016766,
 -0.008026	 -0.022587	 -0.015076,
 -0.009444	 -0.023289	 -0.012387,
 -0.007793	 -0.023737	 -0.008465,
 -0.004802	 -0.016722	 -0.006103,
  0.002474	 -0.015830	 -0.004833,
  0.003293	 -0.016548	 -0.009288,
  0.002000	 -0.016608	 -0.014964,
 -0.005924	 -0.016007	 -0.016211,
 -0.009362	 -0.016483	 -0.015475,
 -0.010725	 -0.017248	 -0.011812,
 -0.009477	 -0.017569	 -0.008090,
 -0.004937	 -0.012211	 -0.006258,
  0.003445	 -0.011032	 -0.004557,
  0.003061	 -0.010748	 -0.007596,
 -0.000028	 -0.010643	 -0.015423,
 -0.004574	 -0.011641	 -0.016059,
 -0.010444	 -0.010838	 -0.013388,
 -0.010825	 -0.011320	 -0.011152,
 -0.008985	 -0.012312	 -0.007720,
 -0.004454	 -0.008813	 -0.008906,
]
}
coordIndex [
   0,	   1,	   2, -1
   0,	   2,	   3, -1
   4,	   1,	   0, -1
   5,	   0,	   3, -1
   6,	   4,	   0, -1
   6,	   0,	   5, -1
   4,	   7,	   1, -1
   1,	   8,	   9, -1
   1,	   9,	   2, -1
   7,	   8,	   1, -1
   2,	   9,	  10, -1
   3,	   2,	  10, -1
   5,	   3,	  11, -1
  11,	   3,	  10, -1
  12,	   7,	   4, -1
  13,	  12,	   4, -1
  13,	   4,	   6, -1
  14,	   5,	  11, -1
  15,	   6,	   5, -1
  15,	   5,	  14, -1
  16,	  13,	   6, -1
  16,	   6,	  15, -1
   7,	  17,	   8, -1
  12,	  18,	   7, -1
  18,	  17,	   7, -1
   8,	  19,	  20, -1
   8,	  20,	   9, -1
  17,	  19,	   8, -1
   9,	  20,	  10, -1
  21,	  11,	  10, -1
  22,	  21,	  10, -1
  23,	  22,	  10, -1
  20,	  23,	  10, -1
  14,	  11,	  21, -1
  24,	  18,	  12, -1
  25,	  24,	  12, -1
  25,	  12,	  13, -1
  26,	  25,	  13, -1
  26,	  13,	  16, -1
  27,	  14,	  22, -1
  28,	  15,	  14, -1
  28,	  14,	  27, -1
  21,	  22,	  14, -1
  29,	  16,	  15, -1
  29,	  15,	  28, -1
  30,	  26,	  16, -1
  30,	  16,	  29, -1
  18,	  31,	  17, -1
  17,	  32,	  19, -1
  31,	  32,	  17, -1
  24,	  33,	  18, -1
  33,	  31,	  18, -1
  19,	  34,	  23, -1
  19,	  23,	  20, -1
  32,	  34,	  19, -1
  34,	  27,	  22, -1
  34,	  22,	  23, -1
  35,	  33,	  24, -1
  36,	  35,	  24, -1
  36,	  24,	  25, -1
  37,	  36,	  25, -1
  37,	  25,	  26, -1
  38,	  37,	  26, -1
  38,	  26,	  30, -1
  39,	  28,	  27, -1
  39,	  27,	  34, -1
  40,	  29,	  28, -1
  40,	  28,	  39, -1
  41,	  30,	  29, -1
  41,	  29,	  40, -1
  42,	  38,	  30, -1
  42,	  30,	  41, -1
  31,	  43,	  32, -1
  33,	  44,	  31, -1
  44,	  43,	  31, -1
  32,	  39,	  34, -1
  43,	  39,	  32, -1
  35,	  45,	  33, -1
  45,	  44,	  33, -1
  46,	  45,	  35, -1
  47,	  46,	  35, -1
  47,	  35,	  36, -1
  48,	  47,	  36, -1
  48,	  36,	  37, -1
  49,	  48,	  37, -1
  49,	  37,	  38, -1
  50,	  49,	  38, -1
  50,	  38,	  42, -1
  43,	  40,	  39, -1
  51,	  41,	  40, -1
  51,	  40,	  43, -1
  52,	  42,	  41, -1
  52,	  41,	  51, -1
  53,	  50,	  42, -1
  53,	  42,	  52, -1
  44,	  51,	  43, -1
  45,	  54,	  44, -1
  54,	  51,	  44, -1
  46,	  55,	  45, -1
  55,	  54,	  45, -1
  56,	  55,	  46, -1
  57,	  56,	  46, -1
  57,	  46,	  47, -1
  58,	  57,	  47, -1
  58,	  47,	  48, -1
  59,	  58,	  48, -1
  59,	  48,	  49, -1
  60,	  59,	  49, -1
  60,	  49,	  50, -1
  61,	  60,	  50, -1
  61,	  50,	  53, -1
  54,	  52,	  51, -1
  62,	  53,	  52, -1
  62,	  52,	  54, -1
  63,	  61,	  53, -1
  63,	  53,	  62, -1
  55,	  62,	  54, -1
  56,	  64,	  55, -1
  64,	  62,	  55, -1
  65,	  64,	  56, -1
  66,	  65,	  56, -1
  66,	  56,	  57, -1
  67,	  66,	  57, -1
  67,	  57,	  58, -1
  68,	  67,	  58, -1
  68,	  58,	  59, -1
  69,	  68,	  59, -1
  69,	  59,	  60, -1
  70,	  69,	  60, -1
  70,	  60,	  61, -1
  71,	  70,	  61, -1
  71,	  61,	  63, -1
  64,	  63,	  62, -1
  72,	  71,	  63, -1
  72,	  63,	  64, -1
  65,	  72,	  64, -1
  73,	  72,	  65, -1
  74,	  73,	  65, -1
  74,	  65,	  66, -1
  75,	  74,	  66, -1
  75,	  66,	  67, -1
  76,	  75,	  67, -1
  76,	  67,	  68, -1
  77,	  76,	  68, -1
  77,	  68,	  69, -1
  78,	  77,	  69, -1
  78,	  69,	  70, -1
  79,	  78,	  70, -1
  79,	  70,	  71, -1
  80,	  79,	  71, -1
  80,	  71,	  72, -1
  73,	  80,	  72, -1
  81,	  80,	  73, -1
  82,	  81,	  73, -1
  82,	  73,	  74, -1
  83,	  82,	  74, -1
  83,	  74,	  75, -1
  84,	  83,	  75, -1
  84,	  75,	  76, -1
  85,	  84,	  76, -1
  85,	  76,	  77, -1
  86,	  85,	  77, -1
  86,	  77,	  78, -1
  87,	  86,	  78, -1
  87,	  78,	  79, -1
  88,	  87,	  79, -1
  88,	  79,	  80, -1
  81,	  88,	  80, -1
  89,	  88,	  81, -1
  90,	  89,	  81, -1
  90,	  81,	  82, -1
  91,	  90,	  82, -1
  91,	  82,	  83, -1
  92,	  91,	  83, -1
  92,	  83,	  84, -1
  93,	  92,	  84, -1
  93,	  84,	  85, -1
  94,	  93,	  85, -1
  94,	  85,	  86, -1
  95,	  94,	  86, -1
  95,	  86,	  87, -1
  96,	  95,	  87, -1
  96,	  87,	  88, -1
  89,	  96,	  88, -1
  97,	  96,	  89, -1
  98,	  97,	  89, -1
  98,	  89,	  90, -1
  99,	  98,	  90, -1
  99,	  90,	  91, -1
 100,	  99,	  91, -1
 100,	  91,	  92, -1
 101,	 100,	  92, -1
 101,	  92,	  93, -1
 102,	 101,	  93, -1
 102,	  93,	  94, -1
 103,	 102,	  94, -1
 103,	  94,	  95, -1
 104,	 103,	  95, -1
 104,	  95,	  96, -1
  97,	 104,	  96, -1
 105,	 104,	  97, -1
 105,	  97,	  98, -1
 105,	  98,	  99, -1
 105,	  99,	 100, -1
 105,	 100,	 101, -1
 105,	 101,	 102, -1
 105,	 102,	 103, -1
 105,	 103,	 104, -1
]
colorPerVertex FALSE
colorIndex [
1,
1,
1,
1,
1,
1,
1,
1,
1,
1,
1,
1,
1,
1,
1,
1,
1,
1,
1,
1,
1,
1,
1,
1,
1,
1,
1,
1,
1,
1,
1,
1,
1,
1,
1,
1,
1,
1,
1,
1,
1,
1,
1,
1,
1,
1,
1,
1,
1,
1,
1,
1,
1,
1,
1,
1,
1,
1,
1,
1,
1,
1,
1,
1,
1,
1,
1,
1,
1,
1,
1,
1,
1,
1,
1,
1,
1,
1,
1,
1,
1,
1,
1,
1,
1,
1,
1,
1,
1,
1,
1,
1,
1,
1,
1,
1,
1,
1,
1,
1,
1,
1,
1,
1,
1,
1,
]
normal Normal {
vector [
 -0.189133	 -0.085463	  0.978225,
 -0.504221	 -0.544462	  0.670315,
 -0.174620	 -0.934430	  0.310402,
 -0.080275	 -0.757007	  0.648457,
  0.113312	  0.055179	  0.992026,
  0.501677	 -0.342884	  0.794198,
  0.567756	  0.227433	  0.791156,
 -0.746629	 -0.032389	  0.664451,
 -0.808313	 -0.376300	 -0.452801,
 -0.468366	 -0.859474	 -0.204789,
 -0.055016	 -0.998416	 -0.011782,
  0.156990	 -0.882657	  0.443024,
  0.073330	  0.187844	  0.979458,
  0.553436	  0.370591	  0.745903,
  0.836295	 -0.500461	  0.223940,
  0.952997	  0.176603	  0.246188,
  0.921256	  0.377607	  0.093279,
 -0.773458	 -0.198742	 -0.601884,
 -0.818752	  0.060857	  0.570913,
 -0.310839	 -0.327833	 -0.892135,
 -0.303705	 -0.817893	 -0.488687,
  0.141239	 -0.977014	  0.159674,
  0.367308	 -0.894786	 -0.253857,
 -0.085211	 -0.754247	 -0.651038,
  0.039645	  0.109250	  0.993223,
  0.526845	  0.232745	  0.817474,
  0.950840	  0.263612	  0.162516,
  0.924621	 -0.363350	 -0.114249,
  0.956523	  0.287247	 -0.050514,
  0.855584	  0.444753	 -0.264899,
  0.892765	  0.236654	 -0.383360,
 -0.773942	 -0.021681	 -0.632885,
 -0.194066	 -0.045058	 -0.979953,
 -0.850035	  0.030151	  0.525863,
  0.433455	 -0.429966	 -0.791989,
 -0.017114	  0.071361	  0.997304,
  0.590125	  0.084025	  0.802927,
  0.969775	  0.110441	  0.217576,
  0.873166	  0.044658	 -0.485374,
  0.710511	  0.393037	 -0.583692,
  0.647396	  0.511061	 -0.565416,
  0.581274	  0.169672	 -0.795822,
  0.423079	  0.026190	 -0.905714,
 -0.039365	  0.207204	 -0.977506,
 -0.842061	 -0.068034	 -0.535075,
 -0.881676	  0.016198	  0.471576,
 -0.036265	  0.040860	  0.998506,
  0.660943	 -0.011794	  0.750343,
  0.984974	  0.020938	  0.171431,
  0.865412	  0.007409	 -0.501006,
  0.259567	 -0.010907	 -0.965664,
 -0.083536	  0.071230	 -0.993956,
 -0.290871	  0.054126	 -0.955230,
 -0.390349	  0.045685	 -0.919533,
 -0.903978	 -0.058342	 -0.423581,
 -0.865159	  0.056283	  0.498329,
 -0.087326	 -0.010212	  0.996127,
  0.668239	 -0.106917	  0.736223,
  0.992705	 -0.076300	  0.093356,
  0.892969	 -0.012570	 -0.449943,
  0.243251	 -0.001642	 -0.969962,
 -0.431287	  0.044882	 -0.901098,
 -0.924239	  0.017636	 -0.381407,
 -0.921612	  0.073646	 -0.381061,
 -0.820106	  0.073463	  0.567477,
 -0.211991	 -0.054287	  0.975763,
  0.549947	 -0.134805	  0.824249,
  0.980454	 -0.163026	  0.110146,
  0.876094	 -0.130774	 -0.464066,
  0.313150	 -0.033021	 -0.949130,
 -0.465836	  0.050374	 -0.883436,
 -0.929999	  0.094444	 -0.355221,
 -0.808202	  0.064016	  0.585416,
 -0.322009	 -0.082665	  0.943121,
  0.385368	 -0.145643	  0.911197,
  0.958995	 -0.168462	  0.227923,
  0.842737	 -0.152690	 -0.516217,
  0.284216	 -0.070785	 -0.956144,
 -0.501532	  0.028894	 -0.864657,
 -0.951050	  0.065748	 -0.301962,
 -0.828257	  0.026839	  0.559705,
 -0.398480	 -0.027585	  0.916762,
  0.289121	 -0.329116	  0.898939,
  0.891298	 -0.331906	  0.308910,
  0.759644	 -0.214766	 -0.613854,
  0.131807	 -0.067881	 -0.988949,
 -0.587134	 -0.084720	 -0.805044,
 -0.966658	 -0.004550	 -0.256030,
 -0.839616	  0.017348	  0.542904,
 -0.447344	  0.121388	  0.886086,
  0.398763	 -0.263743	  0.878309,
  0.926526	 -0.314881	  0.205913,
  0.760082	 -0.227084	 -0.608858,
  0.118873	  0.013421	 -0.992819,
 -0.584584	  0.017277	 -0.811149,
 -0.979563	  0.067246	 -0.189565,
 -0.820847	  0.094633	  0.563254,
 -0.391006	  0.416151	  0.820934,
  0.143583	  0.517623	  0.843475,
  0.949751	  0.312274	  0.021412,
  0.751013	  0.444970	 -0.487833,
  0.158566	  0.376079	 -0.912919,
 -0.327608	  0.590328	 -0.737689,
 -0.839043	  0.540106	 -0.065520,
 -0.698244	  0.494186	  0.517915,
  0.001263	  0.996963	  0.077867,
]
}
normalIndex [
   0,	   1,	   2, -1
   0,	   2,	   3, -1
   4,	   1,	   0, -1
   5,	   0,	   3, -1
   6,	   4,	   0, -1
   6,	   0,	   5, -1
   4,	   7,	   1, -1
   1,	   8,	   9, -1
   1,	   9,	   2, -1
   7,	   8,	   1, -1
   2,	   9,	  10, -1
   3,	   2,	  10, -1
   5,	   3,	  11, -1
  11,	   3,	  10, -1
  12,	   7,	   4, -1
  13,	  12,	   4, -1
  13,	   4,	   6, -1
  14,	   5,	  11, -1
  15,	   6,	   5, -1
  15,	   5,	  14, -1
  16,	  13,	   6, -1
  16,	   6,	  15, -1
   7,	  17,	   8, -1
  12,	  18,	   7, -1
  18,	  17,	   7, -1
   8,	  19,	  20, -1
   8,	  20,	   9, -1
  17,	  19,	   8, -1
   9,	  20,	  10, -1
  21,	  11,	  10, -1
  22,	  21,	  10, -1
  23,	  22,	  10, -1
  20,	  23,	  10, -1
  14,	  11,	  21, -1
  24,	  18,	  12, -1
  25,	  24,	  12, -1
  25,	  12,	  13, -1
  26,	  25,	  13, -1
  26,	  13,	  16, -1
  27,	  14,	  22, -1
  28,	  15,	  14, -1
  28,	  14,	  27, -1
  21,	  22,	  14, -1
  29,	  16,	  15, -1
  29,	  15,	  28, -1
  30,	  26,	  16, -1
  30,	  16,	  29, -1
  18,	  31,	  17, -1
  17,	  32,	  19, -1
  31,	  32,	  17, -1
  24,	  33,	  18, -1
  33,	  31,	  18, -1
  19,	  34,	  23, -1
  19,	  23,	  20, -1
  32,	  34,	  19, -1
  34,	  27,	  22, -1
  34,	  22,	  23, -1
  35,	  33,	  24, -1
  36,	  35,	  24, -1
  36,	  24,	  25, -1
  37,	  36,	  25, -1
  37,	  25,	  26, -1
  38,	  37,	  26, -1
  38,	  26,	  30, -1
  39,	  28,	  27, -1
  39,	  27,	  34, -1
  40,	  29,	  28, -1
  40,	  28,	  39, -1
  41,	  30,	  29, -1
  41,	  29,	  40, -1
  42,	  38,	  30, -1
  42,	  30,	  41, -1
  31,	  43,	  32, -1
  33,	  44,	  31, -1
  44,	  43,	  31, -1
  32,	  39,	  34, -1
  43,	  39,	  32, -1
  35,	  45,	  33, -1
  45,	  44,	  33, -1
  46,	  45,	  35, -1
  47,	  46,	  35, -1
  47,	  35,	  36, -1
  48,	  47,	  36, -1
  48,	  36,	  37, -1
  49,	  48,	  37, -1
  49,	  37,	  38, -1
  50,	  49,	  38, -1
  50,	  38,	  42, -1
  43,	  40,	  39, -1
  51,	  41,	  40, -1
  51,	  40,	  43, -1
  52,	  42,	  41, -1
  52,	  41,	  51, -1
  53,	  50,	  42, -1
  53,	  42,	  52, -1
  44,	  51,	  43, -1
  45,	  54,	  44, -1
  54,	  51,	  44, -1
  46,	  55,	  45, -1
  55,	  54,	  45, -1
  56,	  55,	  46, -1
  57,	  56,	  46, -1
  57,	  46,	  47, -1
  58,	  57,	  47, -1
  58,	  47,	  48, -1
  59,	  58,	  48, -1
  59,	  48,	  49, -1
  60,	  59,	  49, -1
  60,	  49,	  50, -1
  61,	  60,	  50, -1
  61,	  50,	  53, -1
  54,	  52,	  51, -1
  62,	  53,	  52, -1
  62,	  52,	  54, -1
  63,	  61,	  53, -1
  63,	  53,	  62, -1
  55,	  62,	  54, -1
  56,	  64,	  55, -1
  64,	  62,	  55, -1
  65,	  64,	  56, -1
  66,	  65,	  56, -1
  66,	  56,	  57, -1
  67,	  66,	  57, -1
  67,	  57,	  58, -1
  68,	  67,	  58, -1
  68,	  58,	  59, -1
  69,	  68,	  59, -1
  69,	  59,	  60, -1
  70,	  69,	  60, -1
  70,	  60,	  61, -1
  71,	  70,	  61, -1
  71,	  61,	  63, -1
  64,	  63,	  62, -1
  72,	  71,	  63, -1
  72,	  63,	  64, -1
  65,	  72,	  64, -1
  73,	  72,	  65, -1
  74,	  73,	  65, -1
  74,	  65,	  66, -1
  75,	  74,	  66, -1
  75,	  66,	  67, -1
  76,	  75,	  67, -1
  76,	  67,	  68, -1
  77,	  76,	  68, -1
  77,	  68,	  69, -1
  78,	  77,	  69, -1
  78,	  69,	  70, -1
  79,	  78,	  70, -1
  79,	  70,	  71, -1
  80,	  79,	  71, -1
  80,	  71,	  72, -1
  73,	  80,	  72, -1
  81,	  80,	  73, -1
  82,	  81,	  73, -1
  82,	  73,	  74, -1
  83,	  82,	  74, -1
  83,	  74,	  75, -1
  84,	  83,	  75, -1
  84,	  75,	  76, -1
  85,	  84,	  76, -1
  85,	  76,	  77, -1
  86,	  85,	  77, -1
  86,	  77,	  78, -1
  87,	  86,	  78, -1
  87,	  78,	  79, -1
  88,	  87,	  79, -1
  88,	  79,	  80, -1
  81,	  88,	  80, -1
  89,	  88,	  81, -1
  90,	  89,	  81, -1
  90,	  81,	  82, -1
  91,	  90,	  82, -1
  91,	  82,	  83, -1
  92,	  91,	  83, -1
  92,	  83,	  84, -1
  93,	  92,	  84, -1
  93,	  84,	  85, -1
  94,	  93,	  85, -1
  94,	  85,	  86, -1
  95,	  94,	  86, -1
  95,	  86,	  87, -1
  96,	  95,	  87, -1
  96,	  87,	  88, -1
  89,	  96,	  88, -1
  97,	  96,	  89, -1
  98,	  97,	  89, -1
  98,	  89,	  90, -1
  99,	  98,	  90, -1
  99,	  90,	  91, -1
 100,	  99,	  91, -1
 100,	  91,	  92, -1
 101,	 100,	  92, -1
 101,	  92,	  93, -1
 102,	 101,	  93, -1
 102,	  93,	  94, -1
 103,	 102,	  94, -1
 103,	  94,	  95, -1
 104,	 103,	  95, -1
 104,	  95,	  96, -1
  97,	 104,	  96, -1
 105,	 104,	  97, -1
 105,	  97,	  98, -1
 105,	  98,	  99, -1
 105,	  99,	 100, -1
 105,	 100,	 101, -1
 105,	 101,	 102, -1
 105,	 102,	 103, -1
 105,	 103,	 104, -1
]
normalPerVertex TRUE
}
}
]
}
