#VRML V2.0 utf8
Transform {
children [
Shape {
appearance Appearance {
              material DEF surface Material {
              diffuseColor 0.8 0.8 0.8
              ambientIntensity 0.2
              specularColor 0.4 0.4 0.4
              emissiveColor 0 0 0
              shininess 0.25
              transparency 0
            }
          }
geometry IndexedFaceSet {
solid FALSE
coord DEF bone Coordinate {
point [
 -0.002205	 -0.076701	  0.003946,
 -0.006981	 -0.072739	  0.000838,
 -0.002443	 -0.069314	  0.001497,
 -0.002578	 -0.075321	  0.001612,
 -0.002178	 -0.076124	  0.006884,
  0.000041	 -0.075850	  0.006342,
 -0.002376	 -0.063352	  0.001023,
 -0.006860	 -0.066648	  0.000031,
 -0.004386	 -0.071149	  0.010090,
  0.004538	 -0.071391	  0.000244,
  0.005216	 -0.065020	  0.000290,
  0.001721	 -0.075758	  0.004115,
 -0.001913	 -0.075951	  0.008779,
  0.001360	 -0.076388	  0.005280,
  0.002222	 -0.075467	  0.009826,
  0.002581	 -0.074552	  0.011361,
 -0.003218	 -0.057433	  0.001704,
  0.002813	 -0.059248	  0.002453,
 -0.005996	 -0.065362	  0.011661,
 -0.007564	 -0.060527	  0.001925,
 -0.000753	 -0.070746	  0.012194,
  0.005528	 -0.072489	  0.003010,
  0.006164	 -0.066572	  0.004168,
  0.003740	 -0.060296	  0.004537,
  0.006825	 -0.071047	  0.009820,
  0.006530	 -0.070184	  0.013871,
 -0.004103	 -0.051487	  0.002541,
  0.000247	 -0.053292	  0.003668,
  0.001906	 -0.054320	  0.004982,
 -0.006501	 -0.059203	  0.011423,
 -0.000292	 -0.064696	  0.013361,
 -0.007854	 -0.054252	  0.003189,
  0.007740	 -0.065366	  0.009592,
  0.004092	 -0.059962	  0.008526,
  0.001093	 -0.054604	  0.009402,
  0.006238	 -0.063971	  0.013523,
 -0.004358	 -0.045483	  0.002851,
 -0.000938	 -0.046900	  0.003715,
  0.001077	 -0.048159	  0.006258,
  0.000167	 -0.048565	  0.010030,
 -0.001874	 -0.058590	  0.013074,
 -0.006839	 -0.052993	  0.010631,
 -0.008369	 -0.047968	  0.004382,
  0.001428	 -0.060625	  0.011123,
 -0.000246	 -0.054185	  0.010924,
 -0.001173	 -0.047686	  0.011443,
 -0.003986	 -0.039489	  0.003090,
 -0.000602	 -0.040461	  0.004423,
  0.000769	 -0.041842	  0.006929,
  0.000135	 -0.042208	  0.010256,
 -0.001859	 -0.041535	  0.011902,
 -0.004072	 -0.052720	  0.012992,
 -0.007529	 -0.046850	  0.010093,
 -0.008295	 -0.041626	  0.004976,
 -0.005942	 -0.046834	  0.012034,
 -0.006664	 -0.040716	  0.011084,
 -0.003279	 -0.033520	  0.003335,
  0.000212	 -0.034025	  0.004557,
  0.000852	 -0.035497	  0.006534,
  0.000034	 -0.035878	  0.010051,
 -0.001878	 -0.035200	  0.012027,
 -0.006461	 -0.034457	  0.010727,
 -0.007942	 -0.040681	  0.009824,
 -0.007555	 -0.035252	  0.005001,
 -0.007834	 -0.034475	  0.009698,
 -0.002771	 -0.027535	  0.003218,
  0.000494	 -0.027658	  0.003410,
  0.001633	 -0.029224	  0.005948,
  0.000349	 -0.029713	  0.009789,
 -0.001158	 -0.028811	  0.011962,
 -0.005835	 -0.028239	  0.010740,
 -0.007336	 -0.028293	  0.009530,
 -0.006673	 -0.028921	  0.004899,
 -0.002448	 -0.021555	  0.002643,
  0.000019	 -0.021371	  0.002119,
  0.002654	 -0.022940	  0.005946,
  0.001916	 -0.023665	  0.010034,
  0.000112	 -0.022513	  0.012023,
 -0.005164	 -0.022027	  0.010830,
 -0.006817	 -0.022123	  0.009220,
 -0.005881	 -0.022576	  0.004679,
 -0.002017	 -0.015632	  0.001687,
  0.000453	 -0.014740	  0.001224,
  0.003917	 -0.016724	  0.005863,
  0.003243	 -0.017595	  0.010572,
 -0.001399	 -0.016129	  0.012379,
 -0.004694	 -0.015809	  0.011215,
 -0.006618	 -0.015941	  0.008763,
 -0.005710	 -0.016208	  0.004590,
 -0.001858	 -0.009582	  0.002356,
  0.005170	 -0.009806	 -0.000077,
  0.006520	 -0.011165	  0.004090,
  0.006136	 -0.011660	  0.009878,
 -0.001242	 -0.009862	  0.012528,
 -0.004780	 -0.009654	  0.012362,
 -0.006815	 -0.009745	  0.008940,
 -0.006242	 -0.009841	  0.005044,
 -0.001117	 -0.005163	  0.002918,
  0.006970	 -0.005246	 -0.000105,
  0.007123	 -0.005254	  0.002968,
  0.005361	 -0.005530	  0.011192,
  0.000864	 -0.005803	  0.012520,
 -0.005093	 -0.003704	  0.010987,
 -0.005900	 -0.003851	  0.008819,
 -0.004835	 -0.004739	  0.005047,
  0.000401	 -0.002228	  0.005724,
]
}
coordIndex [
   0,	   1,	   2, -1
   3,	   0,	   2, -1
   0,	   4,	   1, -1
   5,	   4,	   0, -1
   5,	   0,	   3, -1
   2,	   1,	   6, -1
   1,	   7,	   6, -1
   4,	   8,	   1, -1
   1,	   8,	   7, -1
   3,	   2,	   9, -1
   2,	   6,	  10, -1
   9,	   2,	  10, -1
  11,	   3,	   9, -1
   5,	   3,	  11, -1
   4,	  12,	   8, -1
   5,	  12,	   4, -1
   5,	  11,	  13, -1
   5,	  13,	  14, -1
   5,	  14,	  15, -1
   5,	  15,	  12, -1
   6,	   7,	  16, -1
   6,	  16,	  17, -1
  10,	   6,	  17, -1
   8,	  18,	   7, -1
   7,	  19,	  16, -1
   7,	  18,	  19, -1
  12,	  20,	   8, -1
   8,	  20,	  18, -1
  11,	   9,	  21, -1
   9,	  10,	  22, -1
  21,	   9,	  22, -1
  10,	  17,	  23, -1
  22,	  10,	  23, -1
  13,	  11,	  21, -1
  12,	  15,	  20, -1
  21,	  14,	  13, -1
  14,	  21,	  24, -1
  14,	  24,	  25, -1
  15,	  14,	  25, -1
  15,	  25,	  20, -1
  16,	  19,	  26, -1
  16,	  26,	  27, -1
  17,	  16,	  27, -1
  17,	  27,	  28, -1
  23,	  17,	  28, -1
  18,	  29,	  19, -1
  20,	  30,	  18, -1
  18,	  30,	  29, -1
  19,	  31,	  26, -1
  19,	  29,	  31, -1
  20,	  25,	  30, -1
  21,	  22,	  32, -1
  24,	  21,	  32, -1
  22,	  23,	  33, -1
  32,	  22,	  33, -1
  23,	  28,	  34, -1
  33,	  23,	  34, -1
  24,	  32,	  35, -1
  25,	  24,	  35, -1
  25,	  35,	  30, -1
  26,	  31,	  36, -1
  26,	  36,	  37, -1
  27,	  26,	  37, -1
  27,	  37,	  38, -1
  28,	  27,	  38, -1
  28,	  38,	  39, -1
  34,	  28,	  39, -1
  30,	  40,	  29, -1
  29,	  41,	  31, -1
  29,	  40,	  41, -1
  30,	  35,	  40, -1
  31,	  42,	  36, -1
  31,	  41,	  42, -1
  32,	  33,	  43, -1
  35,	  32,	  43, -1
  33,	  34,	  44, -1
  43,	  33,	  44, -1
  34,	  39,	  45, -1
  44,	  34,	  45, -1
  35,	  43,	  40, -1
  36,	  42,	  46, -1
  36,	  46,	  47, -1
  37,	  36,	  47, -1
  37,	  47,	  48, -1
  38,	  37,	  48, -1
  38,	  48,	  49, -1
  39,	  38,	  49, -1
  39,	  49,	  50, -1
  45,	  39,	  50, -1
  40,	  43,	  51, -1
  40,	  51,	  41, -1
  41,	  52,	  42, -1
  41,	  51,	  52, -1
  42,	  53,	  46, -1
  42,	  52,	  53, -1
  43,	  44,	  51, -1
  44,	  45,	  54, -1
  51,	  44,	  54, -1
  45,	  50,	  55, -1
  54,	  45,	  55, -1
  46,	  53,	  56, -1
  46,	  56,	  57, -1
  47,	  46,	  57, -1
  47,	  57,	  58, -1
  48,	  47,	  58, -1
  48,	  58,	  59, -1
  49,	  48,	  59, -1
  49,	  59,	  60, -1
  50,	  49,	  60, -1
  50,	  60,	  61, -1
  55,	  50,	  61, -1
  51,	  54,	  52, -1
  52,	  54,	  62, -1
  52,	  62,	  53, -1
  53,	  63,	  56, -1
  53,	  62,	  63, -1
  54,	  55,	  62, -1
  55,	  61,	  64, -1
  62,	  55,	  64, -1
  56,	  63,	  65, -1
  56,	  65,	  66, -1
  57,	  56,	  66, -1
  57,	  66,	  67, -1
  58,	  57,	  67, -1
  58,	  67,	  68, -1
  59,	  58,	  68, -1
  59,	  68,	  69, -1
  60,	  59,	  69, -1
  60,	  69,	  70, -1
  61,	  60,	  70, -1
  61,	  70,	  71, -1
  64,	  61,	  71, -1
  62,	  64,	  63, -1
  63,	  64,	  72, -1
  63,	  72,	  65, -1
  64,	  71,	  72, -1
  65,	  72,	  73, -1
  65,	  73,	  74, -1
  66,	  65,	  74, -1
  66,	  74,	  75, -1
  67,	  66,	  75, -1
  67,	  75,	  76, -1
  68,	  67,	  76, -1
  68,	  76,	  77, -1
  69,	  68,	  77, -1
  69,	  77,	  78, -1
  70,	  69,	  78, -1
  70,	  78,	  79, -1
  71,	  70,	  79, -1
  71,	  79,	  80, -1
  72,	  71,	  80, -1
  72,	  80,	  73, -1
  73,	  80,	  81, -1
  73,	  81,	  82, -1
  74,	  73,	  82, -1
  74,	  82,	  83, -1
  75,	  74,	  83, -1
  75,	  83,	  84, -1
  76,	  75,	  84, -1
  76,	  84,	  85, -1
  77,	  76,	  85, -1
  77,	  85,	  86, -1
  78,	  77,	  86, -1
  78,	  86,	  87, -1
  79,	  78,	  87, -1
  79,	  87,	  88, -1
  80,	  79,	  88, -1
  80,	  88,	  81, -1
  81,	  88,	  89, -1
  81,	  89,	  90, -1
  82,	  81,	  90, -1
  82,	  90,	  91, -1
  83,	  82,	  91, -1
  83,	  91,	  92, -1
  84,	  83,	  92, -1
  84,	  92,	  93, -1
  85,	  84,	  93, -1
  85,	  93,	  94, -1
  86,	  85,	  94, -1
  86,	  94,	  95, -1
  87,	  86,	  95, -1
  87,	  95,	  96, -1
  88,	  87,	  96, -1
  88,	  96,	  89, -1
  89,	  96,	  97, -1
  89,	  97,	  98, -1
  90,	  89,	  98, -1
  90,	  98,	  99, -1
  91,	  90,	  99, -1
  91,	  99,	 100, -1
  92,	  91,	 100, -1
  92,	 100,	 101, -1
  93,	  92,	 101, -1
  93,	 101,	 102, -1
  94,	  93,	 102, -1
  94,	 102,	 103, -1
  95,	  94,	 103, -1
  95,	 103,	 104, -1
  96,	  95,	 104, -1
  96,	 104,	  97, -1
  97,	 104,	 105, -1
  98,	  97,	 105, -1
  99,	  98,	 105, -1
 100,	  99,	 105, -1
 101,	 100,	 105, -1
 102,	 101,	 105, -1
 103,	 102,	 105, -1
 104,	 103,	 105, -1
]
colorPerVertex FALSE
colorIndex [
1,
1,
1,
1,
1,
1,
1,
1,
1,
1,
1,
1,
1,
1,
1,
1,
1,
1,
1,
1,
1,
1,
1,
1,
1,
1,
1,
1,
1,
1,
1,
1,
1,
1,
1,
1,
1,
1,
1,
1,
1,
1,
1,
1,
1,
1,
1,
1,
1,
1,
1,
1,
1,
1,
1,
1,
1,
1,
1,
1,
1,
1,
1,
1,
1,
1,
1,
1,
1,
1,
1,
1,
1,
1,
1,
1,
1,
1,
1,
1,
1,
1,
1,
1,
1,
1,
1,
1,
1,
1,
1,
1,
1,
1,
1,
1,
1,
1,
1,
1,
1,
1,
1,
1,
1,
1,
]
normal Normal {
vector [
 -0.174620	 -0.934430	 -0.310402,
 -0.504221	 -0.544462	 -0.670315,
 -0.189133	 -0.085463	 -0.978225,
 -0.080275	 -0.757007	 -0.648457,
 -0.468366	 -0.859474	  0.204789,
 -0.055016	 -0.998416	  0.011782,
  0.113312	  0.055179	 -0.992026,
 -0.746629	 -0.032389	 -0.664451,
 -0.808313	 -0.376300	  0.452801,
  0.501677	 -0.342884	 -0.794198,
  0.567756	  0.227433	 -0.791156,
  0.156990	 -0.882657	 -0.443024,
 -0.303705	 -0.817893	  0.488687,
  0.141239	 -0.977014	 -0.159674,
  0.367308	 -0.894786	  0.253857,
 -0.085211	 -0.754247	  0.651038,
  0.073330	  0.187844	 -0.979458,
  0.553436	  0.370591	 -0.745903,
 -0.773458	 -0.198742	  0.601884,
 -0.818752	  0.060857	 -0.570913,
 -0.310839	 -0.327833	  0.892135,
  0.836295	 -0.500461	 -0.223940,
  0.952997	  0.176603	 -0.246188,
  0.921256	  0.377607	 -0.093279,
  0.924621	 -0.363350	  0.114249,
  0.433455	 -0.429966	  0.791989,
  0.039645	  0.109250	 -0.993223,
  0.526845	  0.232745	 -0.817474,
  0.950840	  0.263612	 -0.162516,
 -0.773942	 -0.021681	  0.632885,
 -0.194066	 -0.045058	  0.979953,
 -0.850035	  0.030151	 -0.525863,
  0.956523	  0.287247	  0.050514,
  0.855584	  0.444753	  0.264899,
  0.892765	  0.236654	  0.383360,
  0.710511	  0.393037	  0.583692,
 -0.017114	  0.071361	 -0.997304,
  0.590125	  0.084025	 -0.802927,
  0.969775	  0.110441	 -0.217576,
  0.873166	  0.044658	  0.485374,
 -0.039365	  0.207204	  0.977506,
 -0.842061	 -0.068034	  0.535075,
 -0.881676	  0.016198	 -0.471576,
  0.647396	  0.511061	  0.565416,
  0.581274	  0.169672	  0.795822,
  0.423079	  0.026190	  0.905714,
 -0.036265	  0.040860	 -0.998506,
  0.660943	 -0.011794	 -0.750343,
  0.984974	  0.020938	 -0.171431,
  0.865412	  0.007409	  0.501006,
  0.259567	 -0.010907	  0.965664,
 -0.083536	  0.071230	  0.993956,
 -0.903978	 -0.058342	  0.423581,
 -0.865159	  0.056283	 -0.498329,
 -0.290871	  0.054126	  0.955230,
 -0.390349	  0.045685	  0.919533,
 -0.087326	 -0.010212	 -0.996127,
  0.668239	 -0.106917	 -0.736223,
  0.992705	 -0.076300	 -0.093356,
  0.892969	 -0.012570	  0.449943,
  0.243251	 -0.001642	  0.969962,
 -0.431287	  0.044882	  0.901098,
 -0.924239	  0.017636	  0.381407,
 -0.820106	  0.073463	 -0.567477,
 -0.921612	  0.073646	  0.381061,
 -0.211991	 -0.054287	 -0.975763,
  0.549947	 -0.134805	 -0.824249,
  0.980454	 -0.163026	 -0.110146,
  0.876094	 -0.130774	  0.464066,
  0.313150	 -0.033021	  0.949130,
 -0.465836	  0.050374	  0.883436,
 -0.929999	  0.094444	  0.355221,
 -0.808202	  0.064016	 -0.585416,
 -0.322009	 -0.082665	 -0.943121,
  0.385368	 -0.145643	 -0.911197,
  0.958995	 -0.168462	 -0.227923,
  0.842737	 -0.152690	  0.516217,
  0.284216	 -0.070785	  0.956144,
 -0.501532	  0.028894	  0.864657,
 -0.951050	  0.065748	  0.301962,
 -0.828257	  0.026839	 -0.559705,
 -0.398480	 -0.027585	 -0.916762,
  0.289121	 -0.329116	 -0.898939,
  0.891298	 -0.331906	 -0.308910,
  0.759644	 -0.214766	  0.613854,
  0.131807	 -0.067881	  0.988949,
 -0.587134	 -0.084720	  0.805044,
 -0.966658	 -0.004550	  0.256030,
 -0.839616	  0.017348	 -0.542904,
 -0.447344	  0.121388	 -0.886086,
  0.398763	 -0.263743	 -0.878309,
  0.926526	 -0.314881	 -0.205913,
  0.760082	 -0.227084	  0.608858,
  0.118873	  0.013421	  0.992819,
 -0.584584	  0.017277	  0.811149,
 -0.979563	  0.067246	  0.189565,
 -0.820847	  0.094633	 -0.563254,
 -0.391006	  0.416151	 -0.820934,
  0.143583	  0.517623	 -0.843475,
  0.949751	  0.312274	 -0.021412,
  0.751013	  0.444970	  0.487833,
  0.158566	  0.376079	  0.912919,
 -0.327608	  0.590328	  0.737689,
 -0.839043	  0.540106	  0.065520,
 -0.698244	  0.494186	 -0.517915,
  0.001263	  0.996963	 -0.077867,
]
}
normalIndex [
   0,	   1,	   2, -1
   3,	   0,	   2, -1
   0,	   4,	   1, -1
   5,	   4,	   0, -1
   5,	   0,	   3, -1
   2,	   1,	   6, -1
   1,	   7,	   6, -1
   4,	   8,	   1, -1
   1,	   8,	   7, -1
   3,	   2,	   9, -1
   2,	   6,	  10, -1
   9,	   2,	  10, -1
  11,	   3,	   9, -1
   5,	   3,	  11, -1
   4,	  12,	   8, -1
   5,	  12,	   4, -1
   5,	  11,	  13, -1
   5,	  13,	  14, -1
   5,	  14,	  15, -1
   5,	  15,	  12, -1
   6,	   7,	  16, -1
   6,	  16,	  17, -1
  10,	   6,	  17, -1
   8,	  18,	   7, -1
   7,	  19,	  16, -1
   7,	  18,	  19, -1
  12,	  20,	   8, -1
   8,	  20,	  18, -1
  11,	   9,	  21, -1
   9,	  10,	  22, -1
  21,	   9,	  22, -1
  10,	  17,	  23, -1
  22,	  10,	  23, -1
  13,	  11,	  21, -1
  12,	  15,	  20, -1
  21,	  14,	  13, -1
  14,	  21,	  24, -1
  14,	  24,	  25, -1
  15,	  14,	  25, -1
  15,	  25,	  20, -1
  16,	  19,	  26, -1
  16,	  26,	  27, -1
  17,	  16,	  27, -1
  17,	  27,	  28, -1
  23,	  17,	  28, -1
  18,	  29,	  19, -1
  20,	  30,	  18, -1
  18,	  30,	  29, -1
  19,	  31,	  26, -1
  19,	  29,	  31, -1
  20,	  25,	  30, -1
  21,	  22,	  32, -1
  24,	  21,	  32, -1
  22,	  23,	  33, -1
  32,	  22,	  33, -1
  23,	  28,	  34, -1
  33,	  23,	  34, -1
  24,	  32,	  35, -1
  25,	  24,	  35, -1
  25,	  35,	  30, -1
  26,	  31,	  36, -1
  26,	  36,	  37, -1
  27,	  26,	  37, -1
  27,	  37,	  38, -1
  28,	  27,	  38, -1
  28,	  38,	  39, -1
  34,	  28,	  39, -1
  30,	  40,	  29, -1
  29,	  41,	  31, -1
  29,	  40,	  41, -1
  30,	  35,	  40, -1
  31,	  42,	  36, -1
  31,	  41,	  42, -1
  32,	  33,	  43, -1
  35,	  32,	  43, -1
  33,	  34,	  44, -1
  43,	  33,	  44, -1
  34,	  39,	  45, -1
  44,	  34,	  45, -1
  35,	  43,	  40, -1
  36,	  42,	  46, -1
  36,	  46,	  47, -1
  37,	  36,	  47, -1
  37,	  47,	  48, -1
  38,	  37,	  48, -1
  38,	  48,	  49, -1
  39,	  38,	  49, -1
  39,	  49,	  50, -1
  45,	  39,	  50, -1
  40,	  43,	  51, -1
  40,	  51,	  41, -1
  41,	  52,	  42, -1
  41,	  51,	  52, -1
  42,	  53,	  46, -1
  42,	  52,	  53, -1
  43,	  44,	  51, -1
  44,	  45,	  54, -1
  51,	  44,	  54, -1
  45,	  50,	  55, -1
  54,	  45,	  55, -1
  46,	  53,	  56, -1
  46,	  56,	  57, -1
  47,	  46,	  57, -1
  47,	  57,	  58, -1
  48,	  47,	  58, -1
  48,	  58,	  59, -1
  49,	  48,	  59, -1
  49,	  59,	  60, -1
  50,	  49,	  60, -1
  50,	  60,	  61, -1
  55,	  50,	  61, -1
  51,	  54,	  52, -1
  52,	  54,	  62, -1
  52,	  62,	  53, -1
  53,	  63,	  56, -1
  53,	  62,	  63, -1
  54,	  55,	  62, -1
  55,	  61,	  64, -1
  62,	  55,	  64, -1
  56,	  63,	  65, -1
  56,	  65,	  66, -1
  57,	  56,	  66, -1
  57,	  66,	  67, -1
  58,	  57,	  67, -1
  58,	  67,	  68, -1
  59,	  58,	  68, -1
  59,	  68,	  69, -1
  60,	  59,	  69, -1
  60,	  69,	  70, -1
  61,	  60,	  70, -1
  61,	  70,	  71, -1
  64,	  61,	  71, -1
  62,	  64,	  63, -1
  63,	  64,	  72, -1
  63,	  72,	  65, -1
  64,	  71,	  72, -1
  65,	  72,	  73, -1
  65,	  73,	  74, -1
  66,	  65,	  74, -1
  66,	  74,	  75, -1
  67,	  66,	  75, -1
  67,	  75,	  76, -1
  68,	  67,	  76, -1
  68,	  76,	  77, -1
  69,	  68,	  77, -1
  69,	  77,	  78, -1
  70,	  69,	  78, -1
  70,	  78,	  79, -1
  71,	  70,	  79, -1
  71,	  79,	  80, -1
  72,	  71,	  80, -1
  72,	  80,	  73, -1
  73,	  80,	  81, -1
  73,	  81,	  82, -1
  74,	  73,	  82, -1
  74,	  82,	  83, -1
  75,	  74,	  83, -1
  75,	  83,	  84, -1
  76,	  75,	  84, -1
  76,	  84,	  85, -1
  77,	  76,	  85, -1
  77,	  85,	  86, -1
  78,	  77,	  86, -1
  78,	  86,	  87, -1
  79,	  78,	  87, -1
  79,	  87,	  88, -1
  80,	  79,	  88, -1
  80,	  88,	  81, -1
  81,	  88,	  89, -1
  81,	  89,	  90, -1
  82,	  81,	  90, -1
  82,	  90,	  91, -1
  83,	  82,	  91, -1
  83,	  91,	  92, -1
  84,	  83,	  92, -1
  84,	  92,	  93, -1
  85,	  84,	  93, -1
  85,	  93,	  94, -1
  86,	  85,	  94, -1
  86,	  94,	  95, -1
  87,	  86,	  95, -1
  87,	  95,	  96, -1
  88,	  87,	  96, -1
  88,	  96,	  89, -1
  89,	  96,	  97, -1
  89,	  97,	  98, -1
  90,	  89,	  98, -1
  90,	  98,	  99, -1
  91,	  90,	  99, -1
  91,	  99,	 100, -1
  92,	  91,	 100, -1
  92,	 100,	 101, -1
  93,	  92,	 101, -1
  93,	 101,	 102, -1
  94,	  93,	 102, -1
  94,	 102,	 103, -1
  95,	  94,	 103, -1
  95,	 103,	 104, -1
  96,	  95,	 104, -1
  96,	 104,	  97, -1
  97,	 104,	 105, -1
  98,	  97,	 105, -1
  99,	  98,	 105, -1
 100,	  99,	 105, -1
 101,	 100,	 105, -1
 102,	 101,	 105, -1
 103,	 102,	 105, -1
 104,	 103,	 105, -1
]
normalPerVertex TRUE
}
}
]
}
