#VRML V2.0 utf8
Transform {
children [
Shape {
appearance Appearance {
              material DEF surface Material {
              diffuseColor 0.8 0.8 0.8
              ambientIntensity 0.2
              specularColor 0.4 0.4 0.4
              emissiveColor 0 0 0
              shininess 0.25
              transparency 0
            }
          }
geometry IndexedFaceSet {
solid FALSE
coord DEF bone Coordinate {
point [
 -0.008213	 -0.085416	 -0.006492,
 -0.012019	 -0.081127	 -0.010583,
 -0.007807	 -0.077629	 -0.008641,
 -0.007966	 -0.083886	 -0.008789,
 -0.008950	 -0.084933	 -0.003628,
 -0.006666	 -0.084647	 -0.003565,
 -0.007622	 -0.071404	 -0.008856,
 -0.011694	 -0.074755	 -0.011101,
 -0.011916	 -0.079862	 -0.000921,
 -0.000741	 -0.079804	 -0.008115,
 -0.000099	 -0.073181	 -0.007655,
 -0.004465	 -0.084478	 -0.005276,
 -0.009186	 -0.084830	 -0.001724,
 -0.005117	 -0.085176	 -0.004268,
 -0.005465	 -0.084405	  0.000378,
 -0.005517	 -0.083518	  0.001987,
 -0.008614	 -0.065262	 -0.008195,
 -0.002983	 -0.067237	 -0.005975,
 -0.013880	 -0.073886	  0.000395,
 -0.012867	 -0.068453	 -0.009226,
 -0.008955	 -0.079558	  0.002067,
 -0.000502	 -0.081065	 -0.005231,
 -0.000190	 -0.074959	 -0.003726,
 -0.002630	 -0.068419	 -0.003763,
 -0.001020	 -0.079846	  0.001732,
 -0.002357	 -0.079106	  0.005596,
 -0.009688	 -0.059099	 -0.007395,
 -0.005778	 -0.061062	 -0.005247,
 -0.004518	 -0.062200	 -0.003586,
 -0.014309	 -0.067461	  0.000263,
 -0.008814	 -0.073312	  0.003541,
 -0.013477	 -0.061969	 -0.007848,
 -0.000079	 -0.073932	  0.001962,
 -0.003326	 -0.068233	  0.000190,
 -0.006452	 -0.062662	  0.000458,
 -0.002551	 -0.072623	  0.005419,
 -0.010016	 -0.052859	 -0.006936,
 -0.006937	 -0.054399	 -0.005268,
 -0.005651	 -0.055829	 -0.002339,
 -0.007510	 -0.056393	  0.001051,
 -0.010269	 -0.066930	  0.003082,
 -0.014432	 -0.060962	 -0.000355,
 -0.014286	 -0.055470	 -0.006594,
 -0.006572	 -0.069001	  0.001979,
 -0.008140	 -0.062275	  0.001595,
 -0.009172	 -0.055522	  0.002098,
 -0.009722	 -0.046633	 -0.006385,
 -0.006799	 -0.047728	 -0.004257,
 -0.006125	 -0.049278	 -0.001533,
 -0.007603	 -0.049786	  0.001497,
 -0.009956	 -0.049131	  0.002594,
 -0.012372	 -0.060796	  0.002653,
 -0.014959	 -0.054541	 -0.000821,
 -0.014371	 -0.048893	 -0.005765,
 -0.013931	 -0.054616	  0.001462,
 -0.014382	 -0.048203	  0.000588,
 -0.009104	 -0.040436	 -0.005741,
 -0.006049	 -0.041043	 -0.003674,
 -0.005944	 -0.042659	 -0.001655,
 -0.007647	 -0.043187	  0.001512,
 -0.010008	 -0.042542	  0.002947,
 -0.014096	 -0.041675	  0.000532,
 -0.015290	 -0.048105	 -0.000958,
 -0.013664	 -0.042267	 -0.005308,
 -0.015155	 -0.041641	 -0.000819,
 -0.008585	 -0.034205	 -0.005498,
 -0.005481	 -0.034372	 -0.004469,
 -0.005040	 -0.036113	 -0.001783,
 -0.007278	 -0.036761	  0.001573,
 -0.009298	 -0.035896	  0.003311,
 -0.013497	 -0.035210	  0.000938,
 -0.014631	 -0.035204	 -0.000620,
 -0.012789	 -0.035680	 -0.004940,
 -0.008124	 -0.027962	 -0.005744,
 -0.005607	 -0.027771	 -0.005602,
 -0.004055	 -0.029581	 -0.001285,
 -0.005830	 -0.030491	  0.002442,
 -0.008088	 -0.029355	  0.003936,
 -0.012874	 -0.028752	  0.001434,
 -0.014052	 -0.028773	 -0.000553,
 -0.011969	 -0.029073	 -0.004710,
 -0.007462	 -0.021763	 -0.006334,
 -0.004957	 -0.020839	 -0.006104,
 -0.002816	 -0.023119	 -0.000804,
 -0.004690	 -0.024205	  0.003533,
 -0.007721	 -0.022970	  0.005284,
 -0.012521	 -0.022300	  0.002161,
 -0.013743	 -0.022324	 -0.000709,
 -0.011782	 -0.022445	 -0.004512,
 -0.007312	 -0.015522	 -0.006790,
 -0.000533	 -0.015640	 -0.006371,
  0.000157	 -0.017286	 -0.001630,
 -0.003190	 -0.018109	  0.004903,
 -0.008499	 -0.013849	  0.006597,
 -0.012904	 -0.015938	  0.003475,
 -0.013982	 -0.015878	 -0.000359,
 -0.012844	 -0.015771	 -0.004434,
 -0.006494	 -0.009810	 -0.005987,
  0.002686	 -0.009966	 -0.005048,
  0.000996	 -0.010845	 -0.001736,
 -0.003488	 -0.011500	  0.005605,
 -0.009693	 -0.011515	  0.006883,
 -0.011735	 -0.008692	  0.000796,
 -0.010924	 -0.008222	 -0.001872,
 -0.013141	 -0.009400	 -0.004906,
 -0.007988	 -0.009107	  0.000100,
]
}
coordIndex [
   0,	   1,	   2, -1
   3,	   0,	   2, -1
   0,	   4,	   1, -1
   5,	   4,	   0, -1
   5,	   0,	   3, -1
   2,	   1,	   6, -1
   1,	   7,	   6, -1
   4,	   8,	   1, -1
   1,	   8,	   7, -1
   3,	   2,	   9, -1
   2,	   6,	  10, -1
   9,	   2,	  10, -1
  11,	   3,	   9, -1
   5,	   3,	  11, -1
   4,	  12,	   8, -1
   5,	  12,	   4, -1
   5,	  11,	  13, -1
   5,	  13,	  14, -1
   5,	  14,	  15, -1
   5,	  15,	  12, -1
   6,	   7,	  16, -1
   6,	  16,	  17, -1
  10,	   6,	  17, -1
   8,	  18,	   7, -1
   7,	  19,	  16, -1
   7,	  18,	  19, -1
  12,	  20,	   8, -1
   8,	  20,	  18, -1
  11,	   9,	  21, -1
   9,	  10,	  22, -1
  21,	   9,	  22, -1
  10,	  17,	  23, -1
  22,	  10,	  23, -1
  13,	  11,	  21, -1
  12,	  15,	  20, -1
  21,	  14,	  13, -1
  14,	  21,	  24, -1
  14,	  24,	  25, -1
  15,	  14,	  25, -1
  15,	  25,	  20, -1
  16,	  19,	  26, -1
  16,	  26,	  27, -1
  17,	  16,	  27, -1
  17,	  27,	  28, -1
  23,	  17,	  28, -1
  18,	  29,	  19, -1
  20,	  30,	  18, -1
  18,	  30,	  29, -1
  19,	  31,	  26, -1
  19,	  29,	  31, -1
  20,	  25,	  30, -1
  21,	  22,	  32, -1
  24,	  21,	  32, -1
  22,	  23,	  33, -1
  32,	  22,	  33, -1
  23,	  28,	  34, -1
  33,	  23,	  34, -1
  24,	  32,	  35, -1
  25,	  24,	  35, -1
  25,	  35,	  30, -1
  26,	  31,	  36, -1
  26,	  36,	  37, -1
  27,	  26,	  37, -1
  27,	  37,	  38, -1
  28,	  27,	  38, -1
  28,	  38,	  39, -1
  34,	  28,	  39, -1
  30,	  40,	  29, -1
  29,	  41,	  31, -1
  29,	  40,	  41, -1
  30,	  35,	  40, -1
  31,	  42,	  36, -1
  31,	  41,	  42, -1
  32,	  33,	  43, -1
  35,	  32,	  43, -1
  33,	  34,	  44, -1
  43,	  33,	  44, -1
  34,	  39,	  45, -1
  44,	  34,	  45, -1
  35,	  43,	  40, -1
  36,	  42,	  46, -1
  36,	  46,	  47, -1
  37,	  36,	  47, -1
  37,	  47,	  48, -1
  38,	  37,	  48, -1
  38,	  48,	  49, -1
  39,	  38,	  49, -1
  39,	  49,	  50, -1
  45,	  39,	  50, -1
  40,	  43,	  51, -1
  40,	  51,	  41, -1
  41,	  52,	  42, -1
  41,	  51,	  52, -1
  42,	  53,	  46, -1
  42,	  52,	  53, -1
  43,	  44,	  51, -1
  44,	  45,	  54, -1
  51,	  44,	  54, -1
  45,	  50,	  55, -1
  54,	  45,	  55, -1
  46,	  53,	  56, -1
  46,	  56,	  57, -1
  47,	  46,	  57, -1
  47,	  57,	  58, -1
  48,	  47,	  58, -1
  48,	  58,	  59, -1
  49,	  48,	  59, -1
  49,	  59,	  60, -1
  50,	  49,	  60, -1
  50,	  60,	  61, -1
  55,	  50,	  61, -1
  51,	  54,	  52, -1
  52,	  54,	  62, -1
  52,	  62,	  53, -1
  53,	  63,	  56, -1
  53,	  62,	  63, -1
  54,	  55,	  62, -1
  55,	  61,	  64, -1
  62,	  55,	  64, -1
  56,	  63,	  65, -1
  56,	  65,	  66, -1
  57,	  56,	  66, -1
  57,	  66,	  67, -1
  58,	  57,	  67, -1
  58,	  67,	  68, -1
  59,	  58,	  68, -1
  59,	  68,	  69, -1
  60,	  59,	  69, -1
  60,	  69,	  70, -1
  61,	  60,	  70, -1
  61,	  70,	  71, -1
  64,	  61,	  71, -1
  62,	  64,	  63, -1
  63,	  64,	  72, -1
  63,	  72,	  65, -1
  64,	  71,	  72, -1
  65,	  72,	  73, -1
  65,	  73,	  74, -1
  66,	  65,	  74, -1
  66,	  74,	  75, -1
  67,	  66,	  75, -1
  67,	  75,	  76, -1
  68,	  67,	  76, -1
  68,	  76,	  77, -1
  69,	  68,	  77, -1
  69,	  77,	  78, -1
  70,	  69,	  78, -1
  70,	  78,	  79, -1
  71,	  70,	  79, -1
  71,	  79,	  80, -1
  72,	  71,	  80, -1
  72,	  80,	  73, -1
  73,	  80,	  81, -1
  73,	  81,	  82, -1
  74,	  73,	  82, -1
  74,	  82,	  83, -1
  75,	  74,	  83, -1
  75,	  83,	  84, -1
  76,	  75,	  84, -1
  76,	  84,	  85, -1
  77,	  76,	  85, -1
  77,	  85,	  86, -1
  78,	  77,	  86, -1
  78,	  86,	  87, -1
  79,	  78,	  87, -1
  79,	  87,	  88, -1
  80,	  79,	  88, -1
  80,	  88,	  81, -1
  81,	  88,	  89, -1
  81,	  89,	  90, -1
  82,	  81,	  90, -1
  82,	  90,	  91, -1
  83,	  82,	  91, -1
  83,	  91,	  92, -1
  84,	  83,	  92, -1
  84,	  92,	  93, -1
  85,	  84,	  93, -1
  85,	  93,	  94, -1
  86,	  85,	  94, -1
  86,	  94,	  95, -1
  87,	  86,	  95, -1
  87,	  95,	  96, -1
  88,	  87,	  96, -1
  88,	  96,	  89, -1
  89,	  96,	  97, -1
  89,	  97,	  98, -1
  90,	  89,	  98, -1
  90,	  98,	  99, -1
  91,	  90,	  99, -1
  91,	  99,	 100, -1
  92,	  91,	 100, -1
  92,	 100,	 101, -1
  93,	  92,	 101, -1
  93,	 101,	 102, -1
  94,	  93,	 102, -1
  94,	 102,	 103, -1
  95,	  94,	 103, -1
  95,	 103,	 104, -1
  96,	  95,	 104, -1
  96,	 104,	  97, -1
  97,	 104,	 105, -1
  98,	  97,	 105, -1
  99,	  98,	 105, -1
 100,	  99,	 105, -1
 101,	 100,	 105, -1
 102,	 101,	 105, -1
 103,	 102,	 105, -1
 104,	 103,	 105, -1
]
colorPerVertex FALSE
colorIndex [
1,
1,
1,
1,
1,
1,
1,
1,
1,
1,
1,
1,
1,
1,
1,
1,
1,
1,
1,
1,
1,
1,
1,
1,
1,
1,
1,
1,
1,
1,
1,
1,
1,
1,
1,
1,
1,
1,
1,
1,
1,
1,
1,
1,
1,
1,
1,
1,
1,
1,
1,
1,
1,
1,
1,
1,
1,
1,
1,
1,
1,
1,
1,
1,
1,
1,
1,
1,
1,
1,
1,
1,
1,
1,
1,
1,
1,
1,
1,
1,
1,
1,
1,
1,
1,
1,
1,
1,
1,
1,
1,
1,
1,
1,
1,
1,
1,
1,
1,
1,
1,
1,
1,
1,
1,
1,
]
normal Normal {
vector [
 -0.185025	 -0.884212	 -0.428877,
 -0.517796	 -0.440717	 -0.733250,
 -0.188636	  0.039450	 -0.981254,
 -0.082699	 -0.660932	 -0.745875,
 -0.484394	 -0.869000	  0.100997,
 -0.064248	 -0.991639	 -0.111915,
  0.114719	  0.172898	 -0.978236,
 -0.746146	  0.057043	 -0.663334,
 -0.816738	 -0.409577	  0.406431,
  0.500895	 -0.238805	 -0.831911,
  0.573134	  0.309536	 -0.758752,
  0.155341	 -0.813025	 -0.561124,
 -0.314371	 -0.864457	  0.392282,
  0.139065	 -0.948623	 -0.284211,
  0.371286	 -0.916779	  0.147186,
 -0.090973	 -0.820320	  0.564622,
  0.076086	  0.298236	 -0.951455,
  0.561807	  0.441849	 -0.699387,
 -0.777309	 -0.256376	  0.574510,
 -0.817298	  0.135184	 -0.560133,
 -0.316580	 -0.420755	  0.850143,
  0.838129	 -0.464836	 -0.285425,
  0.955998	  0.190584	 -0.223038,
  0.929862	  0.364893	 -0.047015,
  0.924990	 -0.373635	  0.069207,
  0.435005	 -0.517755	  0.736682,
  0.041673	  0.224908	 -0.973488,
  0.531638	  0.317613	 -0.785164,
  0.955910	  0.263219	 -0.130199,
 -0.774979	 -0.090748	  0.625438,
 -0.195660	 -0.160696	  0.967416,
 -0.848965	  0.100634	 -0.518778,
  0.960948	  0.263151	  0.085624,
  0.865496	  0.386834	  0.318241,
  0.896091	  0.171432	  0.409429,
  0.717866	  0.305351	  0.625643,
 -0.015462	  0.189743	 -0.981712,
  0.592045	  0.172658	 -0.787192,
  0.971446	  0.123065	 -0.202850,
  0.872904	 -0.024542	  0.487274,
 -0.035401	  0.083155	  0.995908,
 -0.843519	 -0.122443	  0.522957,
 -0.880890	  0.080978	 -0.466343,
  0.657727	  0.420131	  0.625207,
  0.582257	  0.059554	  0.810820,
  0.421836	 -0.089347	  0.902259,
 -0.034930	  0.160923	 -0.986349,
  0.661556	  0.074174	 -0.746218,
  0.985355	  0.031796	 -0.167526,
  0.864789	 -0.061894	  0.498306,
  0.258345	 -0.130358	  0.957217,
 -0.083803	 -0.052420	  0.995103,
 -0.905129	 -0.098925	  0.413467,
 -0.864238	  0.122331	 -0.487984,
 -0.290992	 -0.061955	  0.954717,
 -0.390827	 -0.064976	  0.918168,
 -0.086401	  0.112470	 -0.989892,
  0.668215	 -0.018224	 -0.743745,
  0.992297	 -0.070292	 -0.102010,
  0.892227	 -0.075015	  0.445313,
  0.242085	 -0.121958	  0.962560,
 -0.431890	 -0.063042	  0.899720,
 -0.924420	 -0.021153	  0.380788,
 -0.819168	  0.146623	 -0.554495,
 -0.921504	  0.032124	  0.387039,
 -0.211275	  0.069049	 -0.974985,
  0.549737	 -0.032981	 -0.834686,
  0.980076	 -0.150990	 -0.129047,
  0.875217	 -0.189258	  0.445171,
  0.311859	 -0.150008	  0.938212,
 -0.466364	 -0.055382	  0.882857,
 -0.929719	  0.055192	  0.364110,
 -0.807342	  0.139611	 -0.573330,
 -0.321279	  0.038955	 -0.946183,
  0.385233	 -0.031203	 -0.922292,
  0.958677	 -0.141583	 -0.246765,
  0.848814	 -0.271644	  0.453568,
  0.260915	 -0.243551	  0.934134,
 -0.502220	 -0.073262	  0.861631,
 -0.950847	  0.034494	  0.307733,
 -0.827543	  0.101256	 -0.552195,
 -0.367244	  0.003576	 -0.930118,
  0.294254	 -0.217914	 -0.930553,
  0.911708	 -0.262844	 -0.315757,
  0.839124	 -0.277345	  0.467922,
  0.202738	 -0.280885	  0.938084,
 -0.582680	 -0.171743	  0.794348,
 -0.960102	 -0.046383	  0.275776,
 -0.846630	  0.022245	 -0.531717,
 -0.410948	  0.133544	 -0.901825,
  0.419648	 -0.227014	 -0.878841,
  0.930555	 -0.301293	 -0.208060,
  0.798867	 -0.229043	  0.556193,
  0.012330	 -0.204618	  0.978764,
 -0.710760	  0.001714	  0.703433,
 -0.913634	  0.064776	  0.401345,
 -0.862803	  0.012262	 -0.505391,
 -0.305830	  0.643846	 -0.701377,
  0.329020	  0.718800	 -0.612432,
  0.945397	  0.301294	  0.124283,
  0.748589	  0.400785	  0.528191,
  0.201572	  0.370066	  0.906874,
 -0.602752	  0.554424	  0.573850,
 -0.611980	  0.757337	  0.227863,
 -0.617131	  0.694017	 -0.370796,
  0.222709	  0.967318	  0.121229,
]
}
normalIndex [
   0,	   1,	   2, -1
   3,	   0,	   2, -1
   0,	   4,	   1, -1
   5,	   4,	   0, -1
   5,	   0,	   3, -1
   2,	   1,	   6, -1
   1,	   7,	   6, -1
   4,	   8,	   1, -1
   1,	   8,	   7, -1
   3,	   2,	   9, -1
   2,	   6,	  10, -1
   9,	   2,	  10, -1
  11,	   3,	   9, -1
   5,	   3,	  11, -1
   4,	  12,	   8, -1
   5,	  12,	   4, -1
   5,	  11,	  13, -1
   5,	  13,	  14, -1
   5,	  14,	  15, -1
   5,	  15,	  12, -1
   6,	   7,	  16, -1
   6,	  16,	  17, -1
  10,	   6,	  17, -1
   8,	  18,	   7, -1
   7,	  19,	  16, -1
   7,	  18,	  19, -1
  12,	  20,	   8, -1
   8,	  20,	  18, -1
  11,	   9,	  21, -1
   9,	  10,	  22, -1
  21,	   9,	  22, -1
  10,	  17,	  23, -1
  22,	  10,	  23, -1
  13,	  11,	  21, -1
  12,	  15,	  20, -1
  21,	  14,	  13, -1
  14,	  21,	  24, -1
  14,	  24,	  25, -1
  15,	  14,	  25, -1
  15,	  25,	  20, -1
  16,	  19,	  26, -1
  16,	  26,	  27, -1
  17,	  16,	  27, -1
  17,	  27,	  28, -1
  23,	  17,	  28, -1
  18,	  29,	  19, -1
  20,	  30,	  18, -1
  18,	  30,	  29, -1
  19,	  31,	  26, -1
  19,	  29,	  31, -1
  20,	  25,	  30, -1
  21,	  22,	  32, -1
  24,	  21,	  32, -1
  22,	  23,	  33, -1
  32,	  22,	  33, -1
  23,	  28,	  34, -1
  33,	  23,	  34, -1
  24,	  32,	  35, -1
  25,	  24,	  35, -1
  25,	  35,	  30, -1
  26,	  31,	  36, -1
  26,	  36,	  37, -1
  27,	  26,	  37, -1
  27,	  37,	  38, -1
  28,	  27,	  38, -1
  28,	  38,	  39, -1
  34,	  28,	  39, -1
  30,	  40,	  29, -1
  29,	  41,	  31, -1
  29,	  40,	  41, -1
  30,	  35,	  40, -1
  31,	  42,	  36, -1
  31,	  41,	  42, -1
  32,	  33,	  43, -1
  35,	  32,	  43, -1
  33,	  34,	  44, -1
  43,	  33,	  44, -1
  34,	  39,	  45, -1
  44,	  34,	  45, -1
  35,	  43,	  40, -1
  36,	  42,	  46, -1
  36,	  46,	  47, -1
  37,	  36,	  47, -1
  37,	  47,	  48, -1
  38,	  37,	  48, -1
  38,	  48,	  49, -1
  39,	  38,	  49, -1
  39,	  49,	  50, -1
  45,	  39,	  50, -1
  40,	  43,	  51, -1
  40,	  51,	  41, -1
  41,	  52,	  42, -1
  41,	  51,	  52, -1
  42,	  53,	  46, -1
  42,	  52,	  53, -1
  43,	  44,	  51, -1
  44,	  45,	  54, -1
  51,	  44,	  54, -1
  45,	  50,	  55, -1
  54,	  45,	  55, -1
  46,	  53,	  56, -1
  46,	  56,	  57, -1
  47,	  46,	  57, -1
  47,	  57,	  58, -1
  48,	  47,	  58, -1
  48,	  58,	  59, -1
  49,	  48,	  59, -1
  49,	  59,	  60, -1
  50,	  49,	  60, -1
  50,	  60,	  61, -1
  55,	  50,	  61, -1
  51,	  54,	  52, -1
  52,	  54,	  62, -1
  52,	  62,	  53, -1
  53,	  63,	  56, -1
  53,	  62,	  63, -1
  54,	  55,	  62, -1
  55,	  61,	  64, -1
  62,	  55,	  64, -1
  56,	  63,	  65, -1
  56,	  65,	  66, -1
  57,	  56,	  66, -1
  57,	  66,	  67, -1
  58,	  57,	  67, -1
  58,	  67,	  68, -1
  59,	  58,	  68, -1
  59,	  68,	  69, -1
  60,	  59,	  69, -1
  60,	  69,	  70, -1
  61,	  60,	  70, -1
  61,	  70,	  71, -1
  64,	  61,	  71, -1
  62,	  64,	  63, -1
  63,	  64,	  72, -1
  63,	  72,	  65, -1
  64,	  71,	  72, -1
  65,	  72,	  73, -1
  65,	  73,	  74, -1
  66,	  65,	  74, -1
  66,	  74,	  75, -1
  67,	  66,	  75, -1
  67,	  75,	  76, -1
  68,	  67,	  76, -1
  68,	  76,	  77, -1
  69,	  68,	  77, -1
  69,	  77,	  78, -1
  70,	  69,	  78, -1
  70,	  78,	  79, -1
  71,	  70,	  79, -1
  71,	  79,	  80, -1
  72,	  71,	  80, -1
  72,	  80,	  73, -1
  73,	  80,	  81, -1
  73,	  81,	  82, -1
  74,	  73,	  82, -1
  74,	  82,	  83, -1
  75,	  74,	  83, -1
  75,	  83,	  84, -1
  76,	  75,	  84, -1
  76,	  84,	  85, -1
  77,	  76,	  85, -1
  77,	  85,	  86, -1
  78,	  77,	  86, -1
  78,	  86,	  87, -1
  79,	  78,	  87, -1
  79,	  87,	  88, -1
  80,	  79,	  88, -1
  80,	  88,	  81, -1
  81,	  88,	  89, -1
  81,	  89,	  90, -1
  82,	  81,	  90, -1
  82,	  90,	  91, -1
  83,	  82,	  91, -1
  83,	  91,	  92, -1
  84,	  83,	  92, -1
  84,	  92,	  93, -1
  85,	  84,	  93, -1
  85,	  93,	  94, -1
  86,	  85,	  94, -1
  86,	  94,	  95, -1
  87,	  86,	  95, -1
  87,	  95,	  96, -1
  88,	  87,	  96, -1
  88,	  96,	  89, -1
  89,	  96,	  97, -1
  89,	  97,	  98, -1
  90,	  89,	  98, -1
  90,	  98,	  99, -1
  91,	  90,	  99, -1
  91,	  99,	 100, -1
  92,	  91,	 100, -1
  92,	 100,	 101, -1
  93,	  92,	 101, -1
  93,	 101,	 102, -1
  94,	  93,	 102, -1
  94,	 102,	 103, -1
  95,	  94,	 103, -1
  95,	 103,	 104, -1
  96,	  95,	 104, -1
  96,	 104,	  97, -1
  97,	 104,	 105, -1
  98,	  97,	 105, -1
  99,	  98,	 105, -1
 100,	  99,	 105, -1
 101,	 100,	 105, -1
 102,	 101,	 105, -1
 103,	 102,	 105, -1
 104,	 103,	 105, -1
]
normalPerVertex TRUE
}
}
]
}
