#VRML V2.0 utf8
Transform {
children [
Shape {
appearance Appearance {
              material DEF surface Material {
              diffuseColor 0.8 0.8 0.8
              ambientIntensity 0.2
              specularColor 0.4 0.4 0.4
              emissiveColor 0 0 0
              shininess 0.25
              transparency 0
            }
          }
geometry IndexedFaceSet {
solid FALSE
coord DEF bone Coordinate {
point [
  0.002197	 -0.075619	  0.027188,
 -0.001738	 -0.079247	  0.029445,
  0.001362	 -0.080068	  0.027591,
  0.009421	 -0.077250	  0.026892,
  0.005071	 -0.079289	  0.026629,
  0.002544	 -0.081824	  0.027934,
  0.000100	 -0.074281	  0.028197,
  0.001875	 -0.069409	  0.026805,
  0.005755	 -0.073238	  0.026672,
 -0.001636	 -0.078906	  0.019707,
  0.000194	 -0.081294	  0.024459,
  0.002446	 -0.083583	  0.025795,
 -0.001936	 -0.072851	  0.029350,
 -0.002344	 -0.076068	  0.024080,
  0.009791	 -0.078757	  0.024142,
  0.007716	 -0.080444	  0.024775,
  0.006118	 -0.082462	  0.024503,
  0.009529	 -0.070671	  0.025801,
  0.009592	 -0.074874	  0.024725,
  0.003956	 -0.082972	  0.022811,
 -0.000816	 -0.068148	  0.027148,
  0.000396	 -0.063460	  0.025557,
  0.004498	 -0.067177	  0.025429,
  0.001321	 -0.078649	  0.016711,
  0.000717	 -0.081132	  0.020076,
  0.001702	 -0.083437	  0.022895,
 -0.004065	 -0.073263	  0.017819,
 -0.000852	 -0.075849	  0.017221,
 -0.003596	 -0.066874	  0.026877,
 -0.003652	 -0.069973	  0.022844,
  0.009250	 -0.078254	  0.017093,
  0.005175	 -0.083011	  0.018867,
  0.005536	 -0.083305	  0.023566,
  0.009622	 -0.072817	  0.022061,
  0.009594	 -0.075539	  0.019898,
  0.006190	 -0.065169	  0.023551,
  0.008001	 -0.068796	  0.023220,
  0.005068	 -0.082288	  0.017180,
  0.001478	 -0.083536	  0.020989,
 -0.002270	 -0.062116	  0.025370,
 -0.001166	 -0.057508	  0.024167,
  0.002083	 -0.061370	  0.023875,
  0.007899	 -0.077997	  0.013172,
  0.003941	 -0.080617	  0.017013,
  0.000972	 -0.072580	  0.014645,
  0.004343	 -0.075197	  0.014313,
 -0.005013	 -0.066911	  0.017331,
 -0.002277	 -0.069769	  0.016071,
 -0.004715	 -0.060622	  0.024882,
 -0.004748	 -0.063705	  0.021604,
  0.006848	 -0.080388	  0.016578,
  0.009711	 -0.072332	  0.016300,
  0.008509	 -0.075037	  0.014823,
  0.006661	 -0.066524	  0.021464,
  0.007998	 -0.069611	  0.019333,
  0.002912	 -0.059342	  0.022226,
  0.005011	 -0.062890	  0.021982,
 -0.003478	 -0.055969	  0.023792,
 -0.001994	 -0.051388	  0.023111,
  0.000243	 -0.055265	  0.022778,
  0.007178	 -0.071564	  0.012727,
 -0.001000	 -0.066324	  0.014487,
  0.002498	 -0.069610	  0.014413,
 -0.005668	 -0.060415	  0.017325,
 -0.003820	 -0.063505	  0.015865,
 -0.006034	 -0.054361	  0.023008,
 -0.005785	 -0.057359	  0.020596,
  0.005995	 -0.066773	  0.017510,
  0.006431	 -0.069661	  0.015581,
  0.004278	 -0.060526	  0.020686,
  0.004842	 -0.063837	  0.019090,
  0.001217	 -0.052824	  0.021607,
  0.002763	 -0.056777	  0.020837,
 -0.004218	 -0.049727	  0.022409,
 -0.002198	 -0.045240	  0.021966,
 -0.000538	 -0.048936	  0.021661,
  0.002840	 -0.067972	  0.015793,
 -0.003598	 -0.060369	  0.014320,
 -0.000256	 -0.064013	  0.015032,
 -0.006720	 -0.054044	  0.017172,
 -0.005413	 -0.057270	  0.015931,
 -0.006643	 -0.047921	  0.021552,
 -0.006743	 -0.051000	  0.019605,
  0.002430	 -0.061528	  0.016700,
  0.002999	 -0.064416	  0.016383,
  0.002645	 -0.054417	  0.018831,
  0.002557	 -0.057980	  0.017931,
  0.000825	 -0.046291	  0.019961,
  0.001584	 -0.050392	  0.019451,
 -0.004348	 -0.043398	  0.021178,
 -0.002078	 -0.039103	  0.020732,
 -0.000604	 -0.042572	  0.020349,
  0.000729	 -0.061390	  0.015527,
 -0.005665	 -0.054251	  0.014908,
 -0.002344	 -0.057708	  0.014782,
 -0.007574	 -0.047673	  0.016689,
 -0.006650	 -0.050952	  0.015983,
 -0.006472	 -0.041333	  0.020464,
 -0.007162	 -0.044548	  0.018660,
  0.000874	 -0.055451	  0.015507,
  0.000799	 -0.058297	  0.015527,
  0.001650	 -0.048032	  0.017400,
  0.001355	 -0.051712	  0.016542,
  0.001036	 -0.039652	  0.018741,
  0.001202	 -0.043853	  0.018248,
 -0.004185	 -0.037025	  0.020140,
 -0.002063	 -0.032903	  0.019894,
 -0.000513	 -0.036142	  0.019565,
 -0.000841	 -0.054823	  0.014375,
 -0.006644	 -0.047843	  0.015162,
 -0.003822	 -0.051377	  0.014428,
 -0.007960	 -0.041262	  0.015932,
 -0.007266	 -0.044529	  0.015594,
 -0.006128	 -0.034763	  0.019470,
 -0.007130	 -0.038052	  0.017746,
  0.000252	 -0.048946	  0.014427,
 -0.000462	 -0.051953	  0.014394,
  0.001294	 -0.041440	  0.016887,
  0.000716	 -0.045205	  0.015625,
  0.001054	 -0.032913	  0.018895,
  0.001262	 -0.037215	  0.017728,
 -0.004037	 -0.030619	  0.019379,
 -0.002113	 -0.026648	  0.019543,
 -0.000685	 -0.029682	  0.019431,
 -0.002136	 -0.048593	  0.013266,
 -0.006887	 -0.041339	  0.014594,
 -0.004596	 -0.044968	  0.013827,
 -0.007957	 -0.034852	  0.015118,
 -0.007403	 -0.038092	  0.014803,
 -0.005844	 -0.028164	  0.018607,
 -0.006957	 -0.031552	  0.016908,
 -0.000328	 -0.042404	  0.013781,
 -0.001232	 -0.045510	  0.013439,
  0.001664	 -0.034859	  0.016389,
  0.000537	 -0.038677	  0.015041,
  0.000382	 -0.026265	  0.019389,
  0.001305	 -0.030596	  0.017485,
 -0.004028	 -0.024197	  0.018866,
 -0.001961	 -0.020387	  0.019536,
 -0.000807	 -0.023146	  0.019424,
 -0.002718	 -0.042094	  0.012283,
 -0.006810	 -0.034913	  0.013570,
 -0.004740	 -0.038456	  0.012934,
 -0.007901	 -0.028431	  0.014437,
 -0.007344	 -0.031675	  0.013896,
 -0.006192	 -0.021589	  0.017777,
 -0.007014	 -0.025044	  0.016199,
 -0.000480	 -0.036005	  0.013106,
 -0.001517	 -0.038995	  0.012614,
  0.002120	 -0.028347	  0.015270,
  0.000942	 -0.032240	  0.014102,
  0.000463	 -0.019287	  0.019227,
  0.001450	 -0.023945	  0.017015,
 -0.004390	 -0.017780	  0.018265,
 -0.002322	 -0.014140	  0.019392,
 -0.000020	 -0.016863	  0.019323,
 -0.002545	 -0.035477	  0.011286,
 -0.006707	 -0.028504	  0.012461,
 -0.004481	 -0.031961	  0.011839,
 -0.008117	 -0.021993	  0.013976,
 -0.007399	 -0.025266	  0.012998,
 -0.007086	 -0.015007	  0.016356,
 -0.007567	 -0.018560	  0.015279,
  0.000464	 -0.029749	  0.011643,
 -0.001105	 -0.032545	  0.011518,
  0.002837	 -0.021880	  0.014175,
  0.001631	 -0.025874	  0.012761,
  0.003742	 -0.013638	  0.019139,
  0.003090	 -0.017645	  0.016747,
 -0.003790	 -0.011172	  0.018412,
 -0.001417	 -0.008363	  0.020018,
  0.001414	 -0.011459	  0.019098,
 -0.001861	 -0.028949	  0.010040,
 -0.006870	 -0.022142	  0.011120,
 -0.004359	 -0.025577	  0.010427,
 -0.008873	 -0.015652	  0.013007,
 -0.007903	 -0.018944	  0.011825,
 -0.004336	 -0.007177	  0.017882,
 -0.007188	 -0.011841	  0.014831,
  0.001103	 -0.023524	  0.009957,
 -0.000573	 -0.026234	  0.009932,
  0.005320	 -0.015771	  0.014446,
  0.002817	 -0.019668	  0.011580,
  0.005653	 -0.009694	  0.017843,
  0.005098	 -0.012149	  0.016497,
 -0.002335	 -0.008218	  0.013694,
 -0.001999	 -0.022712	  0.008088,
 -0.007755	 -0.015988	  0.009200,
 -0.004943	 -0.019299	  0.008742,
 -0.008456	 -0.009527	  0.012081,
 -0.008326	 -0.012708	  0.011016,
  0.002013	 -0.017494	  0.007740,
 -0.000508	 -0.020022	  0.008086,
  0.005678	 -0.009491	  0.014556,
  0.003748	 -0.013466	  0.010978,
  0.001927	 -0.007989	  0.005968,
 -0.004556	 -0.007668	  0.007348,
 -0.008221	 -0.009670	  0.009780,
 -0.003148	 -0.016354	  0.006560,
 -0.005921	 -0.012743	  0.008163,
 -0.001986	 -0.013455	  0.006339,
]
}
coordIndex [
   0,	   1,	   2, -1
   3,	   0,	   4, -1
   5,	   0,	   2, -1
   1,	   0,	   6, -1
   0,	   7,	   6, -1
   0,	   5,	   4, -1
   7,	   0,	   8, -1
   0,	   3,	   8, -1
   1,	   9,	  10, -1
   1,	  11,	   2, -1
  12,	   1,	   6, -1
  11,	   1,	  10, -1
   9,	   1,	  13, -1
   1,	  12,	  13, -1
  11,	   5,	   2, -1
  14,	   3,	  15, -1
   3,	  16,	  15, -1
  17,	   3,	  18, -1
   3,	  14,	  18, -1
  16,	   3,	   4, -1
   3,	  17,	   8, -1
   5,	  16,	   4, -1
   5,	  11,	  19, -1
  16,	   5,	  19, -1
   7,	  12,	   6, -1
  17,	   7,	   8, -1
  12,	   7,	  20, -1
   7,	  21,	  20, -1
  21,	   7,	  22, -1
   7,	  17,	  22, -1
   9,	  23,	  24, -1
   9,	  25,	  10, -1
  26,	   9,	  13, -1
  25,	   9,	  24, -1
  23,	   9,	  27, -1
   9,	  26,	  27, -1
  25,	  11,	  10, -1
  11,	  25,	  19, -1
  12,	  26,	  13, -1
  28,	  12,	  20, -1
  26,	  12,	  29, -1
  12,	  28,	  29, -1
  30,	  14,	  31, -1
  32,	  31,	  14, -1
  33,	  14,	  34, -1
  14,	  30,	  34, -1
  32,	  14,	  15, -1
  14,	  33,	  18, -1
  16,	  32,	  15, -1
  32,	  16,	  19, -1
  33,	  17,	  18, -1
  35,	  17,	  36, -1
  17,	  33,	  36, -1
  17,	  35,	  22, -1
  31,	  32,	  19, -1
  37,	  31,	  19, -1
  38,	  37,	  19, -1
  25,	  38,	  19, -1
  21,	  28,	  20, -1
  35,	  21,	  22, -1
  28,	  21,	  39, -1
  21,	  40,	  39, -1
  40,	  21,	  41, -1
  21,	  35,	  41, -1
  23,	  42,	  43, -1
  23,	  38,	  24, -1
  44,	  23,	  27, -1
  38,	  23,	  43, -1
  42,	  23,	  45, -1
  23,	  44,	  45, -1
  38,	  25,	  24, -1
  26,	  44,	  27, -1
  46,	  26,	  29, -1
  44,	  26,	  47, -1
  26,	  46,	  47, -1
  28,	  46,	  29, -1
  48,	  28,	  39, -1
  46,	  28,	  49, -1
  28,	  48,	  49, -1
  42,	  30,	  50, -1
  30,	  31,	  50, -1
  51,	  30,	  52, -1
  30,	  42,	  52, -1
  30,	  51,	  34, -1
  31,	  37,	  50, -1
  51,	  33,	  34, -1
  53,	  33,	  54, -1
  33,	  51,	  54, -1
  33,	  53,	  36, -1
  53,	  35,	  36, -1
  55,	  35,	  56, -1
  35,	  53,	  56, -1
  35,	  55,	  41, -1
  42,	  37,	  43, -1
  37,	  38,	  43, -1
  37,	  42,	  50, -1
  40,	  48,	  39, -1
  55,	  40,	  41, -1
  48,	  40,	  57, -1
  40,	  58,	  57, -1
  58,	  40,	  59, -1
  40,	  55,	  59, -1
  60,	  42,	  45, -1
  42,	  60,	  52, -1
  44,	  60,	  45, -1
  61,	  44,	  47, -1
  60,	  44,	  62, -1
  44,	  61,	  62, -1
  46,	  61,	  47, -1
  63,	  46,	  49, -1
  61,	  46,	  64, -1
  46,	  63,	  64, -1
  48,	  63,	  49, -1
  65,	  48,	  57, -1
  63,	  48,	  66, -1
  48,	  65,	  66, -1
  60,	  51,	  52, -1
  67,	  51,	  68, -1
  51,	  60,	  68, -1
  51,	  67,	  54, -1
  67,	  53,	  54, -1
  69,	  53,	  70, -1
  53,	  67,	  70, -1
  53,	  69,	  56, -1
  69,	  55,	  56, -1
  71,	  55,	  72, -1
  55,	  69,	  72, -1
  55,	  71,	  59, -1
  58,	  65,	  57, -1
  71,	  58,	  59, -1
  65,	  58,	  73, -1
  58,	  74,	  73, -1
  74,	  58,	  75, -1
  58,	  71,	  75, -1
  76,	  60,	  62, -1
  60,	  76,	  68, -1
  61,	  76,	  62, -1
  77,	  61,	  64, -1
  76,	  61,	  78, -1
  61,	  77,	  78, -1
  63,	  77,	  64, -1
  79,	  63,	  66, -1
  77,	  63,	  80, -1
  63,	  79,	  80, -1
  65,	  79,	  66, -1
  81,	  65,	  73, -1
  79,	  65,	  82, -1
  65,	  81,	  82, -1
  76,	  67,	  68, -1
  83,	  67,	  84, -1
  67,	  76,	  84, -1
  67,	  83,	  70, -1
  83,	  69,	  70, -1
  85,	  69,	  86, -1
  69,	  83,	  86, -1
  69,	  85,	  72, -1
  85,	  71,	  72, -1
  87,	  71,	  88, -1
  71,	  85,	  88, -1
  71,	  87,	  75, -1
  74,	  81,	  73, -1
  87,	  74,	  75, -1
  81,	  74,	  89, -1
  74,	  90,	  89, -1
  90,	  74,	  91, -1
  74,	  87,	  91, -1
  92,	  76,	  78, -1
  76,	  92,	  84, -1
  77,	  92,	  78, -1
  93,	  77,	  80, -1
  92,	  77,	  94, -1
  77,	  93,	  94, -1
  79,	  93,	  80, -1
  95,	  79,	  82, -1
  93,	  79,	  96, -1
  79,	  95,	  96, -1
  81,	  95,	  82, -1
  97,	  81,	  89, -1
  95,	  81,	  98, -1
  81,	  97,	  98, -1
  92,	  83,	  84, -1
  99,	  83,	 100, -1
  83,	  92,	 100, -1
  83,	  99,	  86, -1
  99,	  85,	  86, -1
 101,	  85,	 102, -1
  85,	  99,	 102, -1
  85,	 101,	  88, -1
 101,	  87,	  88, -1
 103,	  87,	 104, -1
  87,	 101,	 104, -1
  87,	 103,	  91, -1
  90,	  97,	  89, -1
 103,	  90,	  91, -1
  97,	  90,	 105, -1
  90,	 106,	 105, -1
 106,	  90,	 107, -1
  90,	 103,	 107, -1
 108,	  92,	  94, -1
  92,	 108,	 100, -1
  93,	 108,	  94, -1
 109,	  93,	  96, -1
 108,	  93,	 110, -1
  93,	 109,	 110, -1
  95,	 109,	  96, -1
 111,	  95,	  98, -1
 109,	  95,	 112, -1
  95,	 111,	 112, -1
  97,	 111,	  98, -1
 113,	  97,	 105, -1
 111,	  97,	 114, -1
  97,	 113,	 114, -1
 108,	  99,	 100, -1
 115,	  99,	 116, -1
  99,	 108,	 116, -1
  99,	 115,	 102, -1
 115,	 101,	 102, -1
 117,	 101,	 118, -1
 101,	 115,	 118, -1
 101,	 117,	 104, -1
 117,	 103,	 104, -1
 119,	 103,	 120, -1
 103,	 117,	 120, -1
 103,	 119,	 107, -1
 106,	 113,	 105, -1
 119,	 106,	 107, -1
 113,	 106,	 121, -1
 106,	 122,	 121, -1
 122,	 106,	 123, -1
 106,	 119,	 123, -1
 124,	 108,	 110, -1
 108,	 124,	 116, -1
 109,	 124,	 110, -1
 125,	 109,	 112, -1
 124,	 109,	 126, -1
 109,	 125,	 126, -1
 111,	 125,	 112, -1
 127,	 111,	 114, -1
 125,	 111,	 128, -1
 111,	 127,	 128, -1
 113,	 127,	 114, -1
 129,	 113,	 121, -1
 127,	 113,	 130, -1
 113,	 129,	 130, -1
 124,	 115,	 116, -1
 131,	 115,	 132, -1
 115,	 124,	 132, -1
 115,	 131,	 118, -1
 131,	 117,	 118, -1
 133,	 117,	 134, -1
 117,	 131,	 134, -1
 117,	 133,	 120, -1
 133,	 119,	 120, -1
 135,	 119,	 136, -1
 119,	 133,	 136, -1
 119,	 135,	 123, -1
 122,	 129,	 121, -1
 135,	 122,	 123, -1
 129,	 122,	 137, -1
 122,	 138,	 137, -1
 138,	 122,	 139, -1
 122,	 135,	 139, -1
 140,	 124,	 126, -1
 124,	 140,	 132, -1
 125,	 140,	 126, -1
 141,	 125,	 128, -1
 140,	 125,	 142, -1
 125,	 141,	 142, -1
 127,	 141,	 128, -1
 143,	 127,	 130, -1
 141,	 127,	 144, -1
 127,	 143,	 144, -1
 129,	 143,	 130, -1
 145,	 129,	 137, -1
 143,	 129,	 146, -1
 129,	 145,	 146, -1
 140,	 131,	 132, -1
 147,	 131,	 148, -1
 131,	 140,	 148, -1
 131,	 147,	 134, -1
 147,	 133,	 134, -1
 149,	 133,	 150, -1
 133,	 147,	 150, -1
 133,	 149,	 136, -1
 149,	 135,	 136, -1
 151,	 135,	 152, -1
 135,	 149,	 152, -1
 135,	 151,	 139, -1
 138,	 145,	 137, -1
 151,	 138,	 139, -1
 145,	 138,	 153, -1
 138,	 154,	 153, -1
 154,	 138,	 155, -1
 138,	 151,	 155, -1
 156,	 140,	 142, -1
 140,	 156,	 148, -1
 141,	 156,	 142, -1
 157,	 141,	 144, -1
 156,	 141,	 158, -1
 141,	 157,	 158, -1
 143,	 157,	 144, -1
 159,	 143,	 146, -1
 157,	 143,	 160, -1
 143,	 159,	 160, -1
 145,	 159,	 146, -1
 161,	 145,	 153, -1
 159,	 145,	 162, -1
 145,	 161,	 162, -1
 156,	 147,	 148, -1
 163,	 147,	 164, -1
 147,	 156,	 164, -1
 147,	 163,	 150, -1
 163,	 149,	 150, -1
 165,	 149,	 166, -1
 149,	 163,	 166, -1
 149,	 165,	 152, -1
 165,	 151,	 152, -1
 167,	 151,	 168, -1
 151,	 165,	 168, -1
 151,	 167,	 155, -1
 154,	 161,	 153, -1
 167,	 154,	 155, -1
 161,	 154,	 169, -1
 154,	 170,	 169, -1
 170,	 154,	 171, -1
 154,	 167,	 171, -1
 172,	 156,	 158, -1
 156,	 172,	 164, -1
 157,	 172,	 158, -1
 173,	 157,	 160, -1
 172,	 157,	 174, -1
 157,	 173,	 174, -1
 159,	 173,	 160, -1
 175,	 159,	 162, -1
 173,	 159,	 176, -1
 159,	 175,	 176, -1
 161,	 175,	 162, -1
 177,	 161,	 169, -1
 175,	 161,	 178, -1
 161,	 177,	 178, -1
 172,	 163,	 164, -1
 179,	 163,	 180, -1
 163,	 172,	 180, -1
 163,	 179,	 166, -1
 179,	 165,	 166, -1
 181,	 165,	 182, -1
 165,	 179,	 182, -1
 165,	 181,	 168, -1
 181,	 167,	 168, -1
 183,	 167,	 184, -1
 167,	 181,	 184, -1
 167,	 183,	 171, -1
 170,	 177,	 169, -1
 183,	 170,	 171, -1
 185,	 177,	 170, -1
 185,	 170,	 183, -1
 186,	 172,	 174, -1
 172,	 186,	 180, -1
 173,	 186,	 174, -1
 187,	 173,	 176, -1
 186,	 173,	 188, -1
 173,	 187,	 188, -1
 175,	 187,	 176, -1
 189,	 175,	 178, -1
 187,	 175,	 190, -1
 175,	 189,	 190, -1
 177,	 189,	 178, -1
 185,	 189,	 177, -1
 186,	 179,	 180, -1
 191,	 179,	 192, -1
 179,	 186,	 192, -1
 179,	 191,	 182, -1
 191,	 181,	 182, -1
 193,	 181,	 194, -1
 181,	 191,	 194, -1
 181,	 193,	 184, -1
 193,	 183,	 184, -1
 185,	 183,	 193, -1
 185,	 193,	 195, -1
 185,	 195,	 196, -1
 185,	 196,	 197, -1
 185,	 197,	 189, -1
 198,	 186,	 188, -1
 186,	 198,	 192, -1
 187,	 198,	 188, -1
 197,	 187,	 190, -1
 198,	 187,	 199, -1
 187,	 197,	 199, -1
 189,	 197,	 190, -1
 198,	 191,	 192, -1
 195,	 191,	 200, -1
 191,	 198,	 200, -1
 191,	 195,	 194, -1
 195,	 193,	 194, -1
 196,	 195,	 200, -1
 197,	 196,	 199, -1
 196,	 198,	 199, -1
 198,	 196,	 200, -1
]
colorPerVertex FALSE
colorIndex [
1,
1,
1,
1,
1,
1,
1,
1,
1,
1,
1,
1,
1,
1,
1,
1,
1,
1,
1,
1,
1,
1,
1,
1,
1,
1,
1,
1,
1,
1,
1,
1,
1,
1,
1,
1,
1,
1,
1,
1,
1,
1,
1,
1,
1,
1,
1,
1,
1,
1,
1,
1,
1,
1,
1,
1,
1,
1,
1,
1,
1,
1,
1,
1,
1,
1,
1,
1,
1,
1,
1,
1,
1,
1,
1,
1,
1,
1,
1,
1,
1,
1,
1,
1,
1,
1,
1,
1,
1,
1,
1,
1,
1,
1,
1,
1,
1,
1,
1,
1,
1,
1,
1,
1,
1,
1,
1,
1,
1,
1,
1,
1,
1,
1,
1,
1,
1,
1,
1,
1,
1,
1,
1,
1,
1,
1,
1,
1,
1,
1,
1,
1,
1,
1,
1,
1,
1,
1,
1,
1,
1,
1,
1,
1,
1,
1,
1,
1,
1,
1,
1,
1,
1,
1,
1,
1,
1,
1,
1,
1,
1,
1,
1,
1,
1,
1,
1,
1,
1,
1,
1,
1,
1,
1,
1,
1,
1,
1,
1,
1,
1,
1,
1,
1,
1,
1,
1,
1,
1,
1,
1,
1,
1,
1,
1,
1,
1,
1,
1,
1,
1,
]
normal Normal {
vector [
 -0.014967	  0.218473	  0.975728,
 -0.580652	 -0.280139	  0.764438,
 -0.250766	 -0.035337	  0.967403,
  0.368869	 -0.116867	  0.922105,
  0.058559	 -0.045375	  0.997252,
 -0.018858	 -0.297439	  0.954555,
  0.254467	  0.203586	  0.945410,
  0.040160	  0.356105	  0.933583,
 -0.142436	  0.284279	  0.948102,
 -0.700704	 -0.588328	 -0.403589,
 -0.775717	 -0.628973	 -0.051533,
 -0.340434	 -0.800201	  0.493744,
 -0.712510	  0.203073	  0.671633,
 -0.974030	 -0.182178	 -0.134450,
  0.859462	 -0.334341	  0.386705,
  0.570674	 -0.573527	  0.587706,
  0.188152	 -0.589230	  0.785752,
  0.597401	  0.431249	  0.676118,
  0.948513	  0.031668	  0.315151,
 -0.055124	 -0.951644	  0.302217,
 -0.060465	  0.488430	  0.870506,
  0.016799	  0.464448	  0.885441,
  0.073042	  0.535559	  0.841333,
 -0.335513	 -0.566098	 -0.752970,
 -0.682464	 -0.592267	 -0.428326,
 -0.561841	 -0.826793	 -0.027339,
 -0.758436	 -0.359743	 -0.543470,
 -0.352929	 -0.504684	 -0.787867,
 -0.807306	  0.248145	  0.535427,
 -0.988703	 -0.134704	 -0.065728,
  0.918177	 -0.391465	  0.060877,
  0.385579	 -0.922142	  0.031360,
  0.267516	 -0.820872	  0.504583,
  0.960063	  0.219197	  0.173870,
  0.972334	 -0.038691	  0.230368,
  0.627243	  0.583444	  0.515906,
  0.917314	  0.398163	  0.000471,
  0.042273	 -0.927576	 -0.371236,
 -0.403886	 -0.846447	 -0.346992,
 -0.211414	  0.434696	  0.875410,
  0.017083	  0.420469	  0.907146,
  0.258660	  0.509775	  0.820503,
  0.453589	 -0.611930	 -0.647919,
 -0.270968	 -0.634402	 -0.723955,
 -0.152891	 -0.348210	 -0.924864,
 -0.122256	 -0.368658	 -0.921490,
 -0.791919	 -0.217868	 -0.570437,
 -0.308427	 -0.307267	 -0.900255,
 -0.842809	  0.202073	  0.498838,
 -0.990059	 -0.090921	 -0.107315,
  0.678570	 -0.734536	  0.000319,
  0.971314	  0.225283	 -0.076131,
  0.972694	 -0.109177	 -0.204811,
  0.916523	  0.395502	  0.059706,
  0.874079	  0.476497	  0.094530,
  0.547732	  0.467152	  0.694088,
  0.835538	  0.465310	  0.292167,
 -0.325018	  0.378827	  0.866518,
 -0.050471	  0.366271	  0.929138,
  0.270623	  0.353756	  0.895332,
  0.526696	  0.167304	 -0.833427,
  0.082308	 -0.189486	 -0.978428,
  0.278984	  0.159707	 -0.946922,
 -0.866434	 -0.197942	 -0.458378,
 -0.485394	 -0.308489	 -0.818063,
 -0.873929	  0.173544	  0.454016,
 -0.982534	 -0.143655	 -0.118276,
  0.833914	  0.366716	 -0.412440,
  0.623357	  0.568004	 -0.537399,
  0.937561	  0.314201	  0.149188,
  0.925880	  0.342131	 -0.160289,
  0.573964	  0.335403	  0.747041,
  0.758468	  0.366261	  0.539054,
 -0.414422	  0.352003	  0.839255,
 -0.038128	  0.353798	  0.934544,
  0.323329	  0.342931	  0.881962,
  0.573352	  0.240582	 -0.783191,
 -0.076287	 -0.251548	 -0.964834,
  0.554095	 -0.076435	 -0.828937,
 -0.904855	 -0.182347	 -0.384692,
 -0.705801	 -0.277526	 -0.651786,
 -0.856854	  0.220304	  0.466119,
 -0.992811	 -0.063782	 -0.101285,
  0.878617	  0.074594	 -0.471665,
  0.700400	  0.008461	 -0.713701,
  0.976740	  0.158350	  0.144586,
  0.971283	  0.030111	 -0.236016,
  0.649389	  0.235716	  0.723002,
  0.844174	  0.217798	  0.489832,
 -0.407562	  0.346160	  0.845024,
 -0.048427	  0.314532	  0.948011,
  0.345813	  0.280505	  0.895394,
  0.618238	 -0.120825	 -0.776648,
 -0.341200	 -0.247044	 -0.906947,
  0.326073	 -0.192371	 -0.925565,
 -0.908614	 -0.123982	 -0.398809,
 -0.741726	 -0.211064	 -0.636627,
 -0.809307	  0.262180	  0.525627,
 -0.997930	  0.062386	 -0.015613,
  0.878490	 -0.111797	 -0.464496,
  0.748465	 -0.160565	 -0.643444,
  0.988826	  0.056649	  0.137891,
  0.977006	 -0.055971	 -0.205732,
  0.657755	  0.138222	  0.740441,
  0.895502	  0.072424	  0.439125,
 -0.387704	  0.312096	  0.867342,
 -0.175402	  0.256213	  0.950573,
  0.189610	  0.203505	  0.960538,
  0.454739	 -0.261424	 -0.851393,
 -0.440360	 -0.232820	 -0.867109,
 -0.016714	 -0.276972	 -0.960732,
 -0.910520	 -0.066002	 -0.408162,
 -0.651510	 -0.194703	 -0.733229,
 -0.792804	  0.256652	  0.552804,
 -0.988096	  0.132779	  0.077692,
  0.864455	 -0.149431	 -0.479988,
  0.679337	 -0.229446	 -0.697034,
  0.993150	 -0.036513	  0.110994,
  0.977980	 -0.054735	 -0.201394,
  0.535579	  0.125641	  0.835086,
  0.889530	  0.014077	  0.456660,
 -0.448159	  0.262666	  0.854494,
 -0.332038	  0.207523	  0.920155,
 -0.063498	  0.171173	  0.983193,
  0.282058	 -0.304570	 -0.909769,
 -0.443361	 -0.235496	 -0.864854,
 -0.217029	 -0.285041	 -0.933622,
 -0.930049	 -0.025179	 -0.366571,
 -0.613901	 -0.185697	 -0.767231,
 -0.813660	  0.208895	  0.542513,
 -0.979219	  0.142766	  0.144040,
  0.878279	 -0.158543	 -0.451098,
  0.681337	 -0.218096	 -0.698723,
  0.984377	 -0.090448	  0.151066,
  0.962026	 -0.143292	 -0.232323,
  0.380692	  0.147501	  0.912862,
  0.842383	  0.084222	  0.532257,
 -0.560099	  0.217773	  0.799290,
 -0.398499	  0.190848	  0.897093,
 -0.165860	  0.183541	  0.968919,
  0.267497	 -0.306620	 -0.913471,
 -0.452278	 -0.236410	 -0.859974,
 -0.258515	 -0.272417	 -0.926800,
 -0.955426	 -0.026323	 -0.294054,
 -0.665142	 -0.161551	 -0.729031,
 -0.848985	  0.166057	  0.501646,
 -0.977808	  0.082979	  0.192370,
  0.879843	 -0.262640	 -0.396103,
  0.762895	 -0.242762	 -0.599215,
  0.956223	 -0.087848	  0.279143,
  0.957142	 -0.253300	 -0.140425,
  0.294723	  0.030075	  0.955109,
  0.772597	  0.056969	  0.632336,
 -0.681315	  0.210253	  0.701144,
 -0.476712	  0.170353	  0.862395,
 -0.180376	  0.172487	  0.968356,
  0.309794	 -0.342704	 -0.886895,
 -0.489339	 -0.259293	 -0.832655,
 -0.233666	 -0.280797	 -0.930889,
 -0.975343	 -0.070826	 -0.209022,
 -0.747418	 -0.166453	 -0.643163,
 -0.875504	  0.189055	  0.444691,
 -0.974742	  0.053651	  0.216792,
  0.865922	 -0.343336	 -0.363729,
  0.725351	 -0.374792	 -0.577406,
  0.899383	 -0.219765	  0.377908,
  0.972503	 -0.227610	 -0.049308,
  0.311901	 -0.012959	  0.950026,
  0.603593	 -0.294451	  0.740928,
 -0.750868	  0.161511	  0.640400,
 -0.230826	  0.596901	  0.768393,
 -0.080501	  0.203009	  0.975862,
  0.255426	 -0.411671	 -0.874806,
 -0.571343	 -0.325781	 -0.753282,
 -0.273643	 -0.372949	 -0.886582,
 -0.988253	  0.009936	 -0.152503,
 -0.823160	 -0.248079	 -0.510749,
 -0.712644	  0.643383	  0.279637,
 -0.943255	  0.254236	  0.213622,
  0.842442	 -0.387873	 -0.373960,
  0.651379	 -0.408112	 -0.639648,
  0.928597	 -0.230303	  0.290979,
  0.935453	 -0.353093	 -0.015925,
  0.546684	  0.512142	  0.662455,
  0.859540	 -0.158755	  0.485786,
  0.077603	  0.984752	 -0.155697,
  0.175845	 -0.449531	 -0.875785,
 -0.619505	 -0.245169	 -0.745725,
 -0.302075	 -0.439646	 -0.845850,
 -0.834287	  0.497717	 -0.237155,
 -0.894153	 -0.044605	 -0.445534,
  0.775673	 -0.360822	 -0.517822,
  0.503103	 -0.425329	 -0.752318,
  0.938611	  0.336293	  0.076920,
  0.979254	 -0.127866	 -0.157198,
  0.718046	  0.341976	 -0.606187,
 -0.193130	  0.328555	 -0.924528,
 -0.655468	  0.341938	 -0.673379,
  0.025531	 -0.319824	 -0.947133,
 -0.290218	 -0.134149	 -0.947511,
  0.216959	 -0.226216	 -0.949608,
]
}
normalIndex [
   0,	   1,	   2, -1
   3,	   0,	   4, -1
   5,	   0,	   2, -1
   1,	   0,	   6, -1
   0,	   7,	   6, -1
   0,	   5,	   4, -1
   7,	   0,	   8, -1
   0,	   3,	   8, -1
   1,	   9,	  10, -1
   1,	  11,	   2, -1
  12,	   1,	   6, -1
  11,	   1,	  10, -1
   9,	   1,	  13, -1
   1,	  12,	  13, -1
  11,	   5,	   2, -1
  14,	   3,	  15, -1
   3,	  16,	  15, -1
  17,	   3,	  18, -1
   3,	  14,	  18, -1
  16,	   3,	   4, -1
   3,	  17,	   8, -1
   5,	  16,	   4, -1
   5,	  11,	  19, -1
  16,	   5,	  19, -1
   7,	  12,	   6, -1
  17,	   7,	   8, -1
  12,	   7,	  20, -1
   7,	  21,	  20, -1
  21,	   7,	  22, -1
   7,	  17,	  22, -1
   9,	  23,	  24, -1
   9,	  25,	  10, -1
  26,	   9,	  13, -1
  25,	   9,	  24, -1
  23,	   9,	  27, -1
   9,	  26,	  27, -1
  25,	  11,	  10, -1
  11,	  25,	  19, -1
  12,	  26,	  13, -1
  28,	  12,	  20, -1
  26,	  12,	  29, -1
  12,	  28,	  29, -1
  30,	  14,	  31, -1
  32,	  31,	  14, -1
  33,	  14,	  34, -1
  14,	  30,	  34, -1
  32,	  14,	  15, -1
  14,	  33,	  18, -1
  16,	  32,	  15, -1
  32,	  16,	  19, -1
  33,	  17,	  18, -1
  35,	  17,	  36, -1
  17,	  33,	  36, -1
  17,	  35,	  22, -1
  31,	  32,	  19, -1
  37,	  31,	  19, -1
  38,	  37,	  19, -1
  25,	  38,	  19, -1
  21,	  28,	  20, -1
  35,	  21,	  22, -1
  28,	  21,	  39, -1
  21,	  40,	  39, -1
  40,	  21,	  41, -1
  21,	  35,	  41, -1
  23,	  42,	  43, -1
  23,	  38,	  24, -1
  44,	  23,	  27, -1
  38,	  23,	  43, -1
  42,	  23,	  45, -1
  23,	  44,	  45, -1
  38,	  25,	  24, -1
  26,	  44,	  27, -1
  46,	  26,	  29, -1
  44,	  26,	  47, -1
  26,	  46,	  47, -1
  28,	  46,	  29, -1
  48,	  28,	  39, -1
  46,	  28,	  49, -1
  28,	  48,	  49, -1
  42,	  30,	  50, -1
  30,	  31,	  50, -1
  51,	  30,	  52, -1
  30,	  42,	  52, -1
  30,	  51,	  34, -1
  31,	  37,	  50, -1
  51,	  33,	  34, -1
  53,	  33,	  54, -1
  33,	  51,	  54, -1
  33,	  53,	  36, -1
  53,	  35,	  36, -1
  55,	  35,	  56, -1
  35,	  53,	  56, -1
  35,	  55,	  41, -1
  42,	  37,	  43, -1
  37,	  38,	  43, -1
  37,	  42,	  50, -1
  40,	  48,	  39, -1
  55,	  40,	  41, -1
  48,	  40,	  57, -1
  40,	  58,	  57, -1
  58,	  40,	  59, -1
  40,	  55,	  59, -1
  60,	  42,	  45, -1
  42,	  60,	  52, -1
  44,	  60,	  45, -1
  61,	  44,	  47, -1
  60,	  44,	  62, -1
  44,	  61,	  62, -1
  46,	  61,	  47, -1
  63,	  46,	  49, -1
  61,	  46,	  64, -1
  46,	  63,	  64, -1
  48,	  63,	  49, -1
  65,	  48,	  57, -1
  63,	  48,	  66, -1
  48,	  65,	  66, -1
  60,	  51,	  52, -1
  67,	  51,	  68, -1
  51,	  60,	  68, -1
  51,	  67,	  54, -1
  67,	  53,	  54, -1
  69,	  53,	  70, -1
  53,	  67,	  70, -1
  53,	  69,	  56, -1
  69,	  55,	  56, -1
  71,	  55,	  72, -1
  55,	  69,	  72, -1
  55,	  71,	  59, -1
  58,	  65,	  57, -1
  71,	  58,	  59, -1
  65,	  58,	  73, -1
  58,	  74,	  73, -1
  74,	  58,	  75, -1
  58,	  71,	  75, -1
  76,	  60,	  62, -1
  60,	  76,	  68, -1
  61,	  76,	  62, -1
  77,	  61,	  64, -1
  76,	  61,	  78, -1
  61,	  77,	  78, -1
  63,	  77,	  64, -1
  79,	  63,	  66, -1
  77,	  63,	  80, -1
  63,	  79,	  80, -1
  65,	  79,	  66, -1
  81,	  65,	  73, -1
  79,	  65,	  82, -1
  65,	  81,	  82, -1
  76,	  67,	  68, -1
  83,	  67,	  84, -1
  67,	  76,	  84, -1
  67,	  83,	  70, -1
  83,	  69,	  70, -1
  85,	  69,	  86, -1
  69,	  83,	  86, -1
  69,	  85,	  72, -1
  85,	  71,	  72, -1
  87,	  71,	  88, -1
  71,	  85,	  88, -1
  71,	  87,	  75, -1
  74,	  81,	  73, -1
  87,	  74,	  75, -1
  81,	  74,	  89, -1
  74,	  90,	  89, -1
  90,	  74,	  91, -1
  74,	  87,	  91, -1
  92,	  76,	  78, -1
  76,	  92,	  84, -1
  77,	  92,	  78, -1
  93,	  77,	  80, -1
  92,	  77,	  94, -1
  77,	  93,	  94, -1
  79,	  93,	  80, -1
  95,	  79,	  82, -1
  93,	  79,	  96, -1
  79,	  95,	  96, -1
  81,	  95,	  82, -1
  97,	  81,	  89, -1
  95,	  81,	  98, -1
  81,	  97,	  98, -1
  92,	  83,	  84, -1
  99,	  83,	 100, -1
  83,	  92,	 100, -1
  83,	  99,	  86, -1
  99,	  85,	  86, -1
 101,	  85,	 102, -1
  85,	  99,	 102, -1
  85,	 101,	  88, -1
 101,	  87,	  88, -1
 103,	  87,	 104, -1
  87,	 101,	 104, -1
  87,	 103,	  91, -1
  90,	  97,	  89, -1
 103,	  90,	  91, -1
  97,	  90,	 105, -1
  90,	 106,	 105, -1
 106,	  90,	 107, -1
  90,	 103,	 107, -1
 108,	  92,	  94, -1
  92,	 108,	 100, -1
  93,	 108,	  94, -1
 109,	  93,	  96, -1
 108,	  93,	 110, -1
  93,	 109,	 110, -1
  95,	 109,	  96, -1
 111,	  95,	  98, -1
 109,	  95,	 112, -1
  95,	 111,	 112, -1
  97,	 111,	  98, -1
 113,	  97,	 105, -1
 111,	  97,	 114, -1
  97,	 113,	 114, -1
 108,	  99,	 100, -1
 115,	  99,	 116, -1
  99,	 108,	 116, -1
  99,	 115,	 102, -1
 115,	 101,	 102, -1
 117,	 101,	 118, -1
 101,	 115,	 118, -1
 101,	 117,	 104, -1
 117,	 103,	 104, -1
 119,	 103,	 120, -1
 103,	 117,	 120, -1
 103,	 119,	 107, -1
 106,	 113,	 105, -1
 119,	 106,	 107, -1
 113,	 106,	 121, -1
 106,	 122,	 121, -1
 122,	 106,	 123, -1
 106,	 119,	 123, -1
 124,	 108,	 110, -1
 108,	 124,	 116, -1
 109,	 124,	 110, -1
 125,	 109,	 112, -1
 124,	 109,	 126, -1
 109,	 125,	 126, -1
 111,	 125,	 112, -1
 127,	 111,	 114, -1
 125,	 111,	 128, -1
 111,	 127,	 128, -1
 113,	 127,	 114, -1
 129,	 113,	 121, -1
 127,	 113,	 130, -1
 113,	 129,	 130, -1
 124,	 115,	 116, -1
 131,	 115,	 132, -1
 115,	 124,	 132, -1
 115,	 131,	 118, -1
 131,	 117,	 118, -1
 133,	 117,	 134, -1
 117,	 131,	 134, -1
 117,	 133,	 120, -1
 133,	 119,	 120, -1
 135,	 119,	 136, -1
 119,	 133,	 136, -1
 119,	 135,	 123, -1
 122,	 129,	 121, -1
 135,	 122,	 123, -1
 129,	 122,	 137, -1
 122,	 138,	 137, -1
 138,	 122,	 139, -1
 122,	 135,	 139, -1
 140,	 124,	 126, -1
 124,	 140,	 132, -1
 125,	 140,	 126, -1
 141,	 125,	 128, -1
 140,	 125,	 142, -1
 125,	 141,	 142, -1
 127,	 141,	 128, -1
 143,	 127,	 130, -1
 141,	 127,	 144, -1
 127,	 143,	 144, -1
 129,	 143,	 130, -1
 145,	 129,	 137, -1
 143,	 129,	 146, -1
 129,	 145,	 146, -1
 140,	 131,	 132, -1
 147,	 131,	 148, -1
 131,	 140,	 148, -1
 131,	 147,	 134, -1
 147,	 133,	 134, -1
 149,	 133,	 150, -1
 133,	 147,	 150, -1
 133,	 149,	 136, -1
 149,	 135,	 136, -1
 151,	 135,	 152, -1
 135,	 149,	 152, -1
 135,	 151,	 139, -1
 138,	 145,	 137, -1
 151,	 138,	 139, -1
 145,	 138,	 153, -1
 138,	 154,	 153, -1
 154,	 138,	 155, -1
 138,	 151,	 155, -1
 156,	 140,	 142, -1
 140,	 156,	 148, -1
 141,	 156,	 142, -1
 157,	 141,	 144, -1
 156,	 141,	 158, -1
 141,	 157,	 158, -1
 143,	 157,	 144, -1
 159,	 143,	 146, -1
 157,	 143,	 160, -1
 143,	 159,	 160, -1
 145,	 159,	 146, -1
 161,	 145,	 153, -1
 159,	 145,	 162, -1
 145,	 161,	 162, -1
 156,	 147,	 148, -1
 163,	 147,	 164, -1
 147,	 156,	 164, -1
 147,	 163,	 150, -1
 163,	 149,	 150, -1
 165,	 149,	 166, -1
 149,	 163,	 166, -1
 149,	 165,	 152, -1
 165,	 151,	 152, -1
 167,	 151,	 168, -1
 151,	 165,	 168, -1
 151,	 167,	 155, -1
 154,	 161,	 153, -1
 167,	 154,	 155, -1
 161,	 154,	 169, -1
 154,	 170,	 169, -1
 170,	 154,	 171, -1
 154,	 167,	 171, -1
 172,	 156,	 158, -1
 156,	 172,	 164, -1
 157,	 172,	 158, -1
 173,	 157,	 160, -1
 172,	 157,	 174, -1
 157,	 173,	 174, -1
 159,	 173,	 160, -1
 175,	 159,	 162, -1
 173,	 159,	 176, -1
 159,	 175,	 176, -1
 161,	 175,	 162, -1
 177,	 161,	 169, -1
 175,	 161,	 178, -1
 161,	 177,	 178, -1
 172,	 163,	 164, -1
 179,	 163,	 180, -1
 163,	 172,	 180, -1
 163,	 179,	 166, -1
 179,	 165,	 166, -1
 181,	 165,	 182, -1
 165,	 179,	 182, -1
 165,	 181,	 168, -1
 181,	 167,	 168, -1
 183,	 167,	 184, -1
 167,	 181,	 184, -1
 167,	 183,	 171, -1
 170,	 177,	 169, -1
 183,	 170,	 171, -1
 185,	 177,	 170, -1
 185,	 170,	 183, -1
 186,	 172,	 174, -1
 172,	 186,	 180, -1
 173,	 186,	 174, -1
 187,	 173,	 176, -1
 186,	 173,	 188, -1
 173,	 187,	 188, -1
 175,	 187,	 176, -1
 189,	 175,	 178, -1
 187,	 175,	 190, -1
 175,	 189,	 190, -1
 177,	 189,	 178, -1
 185,	 189,	 177, -1
 186,	 179,	 180, -1
 191,	 179,	 192, -1
 179,	 186,	 192, -1
 179,	 191,	 182, -1
 191,	 181,	 182, -1
 193,	 181,	 194, -1
 181,	 191,	 194, -1
 181,	 193,	 184, -1
 193,	 183,	 184, -1
 185,	 183,	 193, -1
 185,	 193,	 195, -1
 185,	 195,	 196, -1
 185,	 196,	 197, -1
 185,	 197,	 189, -1
 198,	 186,	 188, -1
 186,	 198,	 192, -1
 187,	 198,	 188, -1
 197,	 187,	 190, -1
 198,	 187,	 199, -1
 187,	 197,	 199, -1
 189,	 197,	 190, -1
 198,	 191,	 192, -1
 195,	 191,	 200, -1
 191,	 198,	 200, -1
 191,	 195,	 194, -1
 195,	 193,	 194, -1
 196,	 195,	 200, -1
 197,	 196,	 199, -1
 196,	 198,	 199, -1
 198,	 196,	 200, -1
]
normalPerVertex TRUE
}
}
]
}
