#VRML V2.0 utf8
Transform {
children [
Shape {
appearance Appearance {
              material DEF surface Material {
              diffuseColor 0.8 0.8 0.8
              ambientIntensity 0.2
              specularColor 0.4 0.4 0.4
              emissiveColor 0 0 0
              shininess 0.25
              transparency 0
            }
          }
geometry IndexedFaceSet {
solid FALSE
coord DEF bone Coordinate {
point [
 -0.011947	 -0.003326	  0.006437,
 -0.010768	  0.001241	  0.006719,
 -0.008513	 -0.001120	  0.003349,
 -0.009808	 -0.005030	  0.002163,
 -0.011722	 -0.005728	  0.009082,
 -0.009014	 -0.006841	  0.005327,
 -0.010959	 -0.002298	  0.011129,
 -0.004972	  0.004442	  0.004965,
 -0.004601	 -0.000384	  0.002662,
 -0.006151	 -0.005009	 -0.000970,
 -0.005501	 -0.007324	  0.002501,
 -0.008172	 -0.008048	  0.008761,
 -0.010694	 -0.006945	  0.011171,
 -0.009824	 -0.005342	  0.013205,
 -0.004611	 -0.009518	  0.008153,
 -0.006720	  0.003370	  0.009713,
 -0.006460	 -0.001440	  0.014204,
  0.000185	  0.002593	  0.006406,
 -0.001337	 -0.000011	  0.003421,
 -0.001855	 -0.004282	 -0.002209,
 -0.001799	 -0.007728	  0.002236,
 -0.000500	 -0.009585	  0.008162,
 -0.006799	 -0.012885	  0.013748,
 -0.009234	 -0.011694	  0.015405,
 -0.008845	 -0.010229	  0.016984,
 -0.003875	 -0.013082	  0.012270,
 -0.000680	 -0.013369	  0.013132,
 -0.000821	  0.002048	  0.010717,
 -0.001418	 -0.002390	  0.014205,
 -0.005117	 -0.007744	  0.019202,
  0.002155	 -0.000944	  0.005980,
  0.001713	 -0.003394	  0.001168,
  0.000265	 -0.007965	  0.004746,
  0.002475	 -0.008330	  0.016782,
  0.001876	 -0.005119	  0.012637,
  0.002404	 -0.002436	  0.010100,
 -0.005389	 -0.022092	  0.021706,
 -0.002550	 -0.022386	  0.020987,
 -0.007501	 -0.021500	  0.022597,
 -0.008085	 -0.019605	  0.024121,
  0.001013	 -0.021876	  0.021401,
  0.003989	 -0.018191	  0.025635,
 -0.001195	 -0.007005	  0.018517,
 -0.003235	 -0.017372	  0.026971,
  0.000453	 -0.017219	  0.027355,
 -0.002877	 -0.029182	  0.026692,
 -0.005115	 -0.029711	  0.028072,
  0.002277	 -0.027694	  0.026694,
 -0.006899	 -0.029396	  0.030469,
 -0.006063	 -0.027275	  0.032879,
  0.004905	 -0.023350	  0.031787,
  0.002161	 -0.023144	  0.033904,
 -0.001603	 -0.024161	  0.034420,
 -0.002840	 -0.036170	  0.028607,
 -0.004627	 -0.035863	  0.030998,
  0.000421	 -0.033855	  0.030398,
  0.004189	 -0.032277	  0.029639,
  0.006326	 -0.031217	  0.027638,
  0.006159	 -0.029012	  0.031380,
 -0.006634	 -0.033106	  0.034104,
 -0.006097	 -0.028922	  0.035438,
  0.006511	 -0.025690	  0.035283,
  0.002785	 -0.025583	  0.037118,
 -0.001061	 -0.026798	  0.037477,
 -0.001550	 -0.038858	  0.030405,
 -0.003366	 -0.038359	  0.034421,
 -0.004521	 -0.034312	  0.037748,
  0.001894	 -0.036223	  0.031712,
  0.005817	 -0.034798	  0.031520,
  0.008024	 -0.033453	  0.030481,
  0.007798	 -0.032820	  0.033960,
  0.007208	 -0.029114	  0.038345,
 -0.005838	 -0.030784	  0.038132,
  0.004967	 -0.027153	  0.039352,
 -0.001394	 -0.028778	  0.040160,
  0.003352	 -0.027108	  0.039676,
  0.001184	 -0.036890	  0.035239,
 -0.001192	 -0.033545	  0.039629,
  0.005325	 -0.034038	  0.035883,
  0.004243	 -0.030344	  0.039620,
]
}
coordIndex [
   0,	   1,	   2, -1
   2,	   3,	   0, -1
   1,	   0,	   4, -1
   0,	   3,	   5, -1
   0,	   5,	   4, -1
   1,	   4,	   6, -1
   7,	   2,	   1, -1
   7,	   1,	   6, -1
   7,	   8,	   2, -1
   3,	   2,	   8, -1
   3,	   8,	   9, -1
  10,	   5,	   3, -1
  10,	   3,	   9, -1
   4,	   5,	  11, -1
   4,	  11,	  12, -1
   4,	  12,	  13, -1
   4,	  13,	   6, -1
  14,	  11,	   5, -1
  14,	   5,	  10, -1
   7,	   6,	  15, -1
  16,	  15,	   6, -1
  16,	   6,	  13, -1
  17,	   8,	   7, -1
  17,	   7,	  15, -1
  17,	  18,	   8, -1
   9,	   8,	  19, -1
  19,	   8,	  18, -1
   9,	  19,	  20, -1
   9,	  20,	  10, -1
  10,	  20,	  21, -1
  10,	  21,	  14, -1
  12,	  11,	  22, -1
  14,	  22,	  11, -1
  12,	  22,	  23, -1
  24,	  13,	  12, -1
  24,	  12,	  23, -1
  16,	  13,	  24, -1
  14,	  25,	  22, -1
  14,	  21,	  26, -1
  14,	  26,	  25, -1
  17,	  15,	  27, -1
  27,	  15,	  16, -1
  27,	  16,	  28, -1
  16,	  24,	  29, -1
  28,	  16,	  29, -1
  30,	  18,	  17, -1
  30,	  17,	  27, -1
  19,	  18,	  31, -1
  31,	  18,	  30, -1
  19,	  31,	  32, -1
  19,	  32,	  20, -1
  32,	  21,	  20, -1
  33,	  26,	  21, -1
  33,	  21,	  34, -1
  21,	  32,	  35, -1
  21,	  35,	  34, -1
  23,	  22,	  36, -1
  37,	  36,	  22, -1
  37,	  22,	  25, -1
  23,	  36,	  38, -1
  39,	  24,	  23, -1
  39,	  23,	  38, -1
  29,	  24,	  39, -1
  25,	  26,	  40, -1
  25,	  40,	  37, -1
  41,	  40,	  26, -1
  41,	  26,	  33, -1
  30,	  27,	  35, -1
  27,	  28,	  34, -1
  27,	  34,	  35, -1
  28,	  29,	  42, -1
  34,	  28,	  42, -1
  29,	  39,	  43, -1
  42,	  29,	  43, -1
  35,	  31,	  30, -1
  35,	  32,	  31, -1
  34,	  42,	  33, -1
  33,	  42,	  44, -1
  33,	  44,	  41, -1
  45,	  46,	  36, -1
  45,	  36,	  37, -1
  46,	  38,	  36, -1
  47,	  45,	  37, -1
  47,	  37,	  40, -1
  46,	  48,	  38, -1
  39,	  38,	  48, -1
  39,	  48,	  49, -1
  49,	  43,	  39, -1
  50,	  47,	  40, -1
  50,	  40,	  41, -1
  51,	  50,	  41, -1
  51,	  41,	  44, -1
  42,	  43,	  44, -1
  49,	  52,	  43, -1
  44,	  43,	  52, -1
  44,	  52,	  51, -1
  53,	  54,	  45, -1
  45,	  55,	  53, -1
  56,	  55,	  45, -1
  56,	  45,	  47, -1
  45,	  54,	  46, -1
  54,	  48,	  46, -1
  47,	  57,	  56, -1
  57,	  47,	  58, -1
  58,	  47,	  50, -1
  54,	  59,	  48, -1
  49,	  48,	  59, -1
  49,	  59,	  60, -1
  60,	  52,	  49, -1
  58,	  50,	  61, -1
  62,	  61,	  50, -1
  62,	  50,	  51, -1
  51,	  52,	  63, -1
  51,	  63,	  62, -1
  60,	  63,	  52, -1
  55,	  64,	  53, -1
  53,	  64,	  65, -1
  53,	  65,	  54, -1
  54,	  66,	  59, -1
  65,	  66,	  54, -1
  55,	  67,	  64, -1
  68,	  67,	  55, -1
  68,	  55,	  56, -1
  56,	  57,	  69, -1
  56,	  69,	  68, -1
  70,	  69,	  57, -1
  70,	  57,	  58, -1
  71,	  70,	  58, -1
  71,	  58,	  61, -1
  59,	  72,	  60, -1
  59,	  66,	  72, -1
  72,	  63,	  60, -1
  73,	  71,	  61, -1
  62,	  73,	  61, -1
  62,	  63,	  74, -1
  62,	  74,	  75, -1
  62,	  75,	  73, -1
  72,	  74,	  63, -1
  65,	  64,	  67, -1
  65,	  67,	  76, -1
  76,	  66,	  65, -1
  76,	  77,	  66, -1
  77,	  72,	  66, -1
  76,	  67,	  68, -1
  76,	  68,	  78, -1
  78,	  68,	  69, -1
  78,	  69,	  70, -1
  70,	  71,	  79, -1
  70,	  79,	  78, -1
  79,	  71,	  73, -1
  77,	  74,	  72, -1
  79,	  73,	  75, -1
  75,	  74,	  77, -1
  75,	  77,	  79, -1
  78,	  77,	  76, -1
  78,	  79,	  77, -1
]
colorPerVertex FALSE
colorIndex [
1,
1,
1,
1,
1,
1,
1,
1,
1,
1,
1,
1,
1,
1,
1,
1,
1,
1,
1,
1,
1,
1,
1,
1,
1,
1,
1,
1,
1,
1,
1,
1,
1,
1,
1,
1,
1,
1,
1,
1,
1,
1,
1,
1,
1,
1,
1,
1,
1,
1,
1,
1,
1,
1,
1,
1,
1,
1,
1,
1,
1,
1,
1,
1,
1,
1,
1,
1,
1,
1,
1,
1,
1,
1,
1,
1,
1,
1,
1,
1,
]
normal Normal {
vector [
 -0.937175	 -0.060944	 -0.343495,
 -0.868052	  0.487338	 -0.094805,
 -0.505479	  0.398126	 -0.765498,
 -0.699102	 -0.193317	 -0.688393,
 -0.946610	 -0.312823	  0.077916,
 -0.561683	 -0.781652	 -0.271167,
 -0.777455	  0.441881	  0.447555,
 -0.278387	  0.870570	 -0.405721,
 -0.116837	  0.605291	 -0.787383,
 -0.405734	 -0.336716	 -0.849707,
 -0.241792	 -0.889430	 -0.387879,
 -0.524727	 -0.788455	 -0.320936,
 -0.914124	 -0.405297	 -0.010561,
 -0.827647	  0.139772	  0.543567,
 -0.209254	 -0.846787	 -0.489045,
 -0.212962	  0.891695	  0.399410,
 -0.330056	  0.546865	  0.769416,
  0.491544	  0.816334	 -0.303287,
  0.336092	  0.710809	 -0.617893,
  0.333940	  0.033760	 -0.941990,
  0.121437	 -0.868464	 -0.480648,
  0.583231	 -0.736277	 -0.343129,
 -0.478330	 -0.663891	 -0.574847,
 -0.890078	 -0.379685	 -0.252192,
 -0.846192	  0.225079	  0.483010,
 -0.059996	 -0.719522	 -0.691874,
  0.552510	 -0.587447	 -0.591303,
  0.535195	  0.656234	  0.531905,
  0.328849	  0.602501	  0.727221,
 -0.315898	  0.570018	  0.758477,
  0.857505	  0.484486	 -0.173084,
  0.896616	  0.132601	 -0.422490,
  0.729057	 -0.615767	 -0.298842,
  0.950688	  0.258959	  0.170685,
  0.880718	  0.309320	  0.358687,
  0.995473	 -0.018739	  0.093182,
 -0.394522	 -0.608725	 -0.688336,
 -0.057147	 -0.664626	 -0.744987,
 -0.771858	 -0.458049	 -0.440937,
 -0.921599	  0.173254	  0.347330,
  0.597892	 -0.493932	 -0.631314,
  0.946095	  0.304692	  0.109854,
  0.280224	  0.671489	  0.685987,
 -0.342800	  0.607638	  0.716425,
  0.197083	  0.707178	  0.679012,
 -0.107127	 -0.521771	 -0.846333,
 -0.547533	 -0.507269	 -0.665497,
  0.472890	 -0.308016	 -0.825531,
 -0.962617	 -0.213047	 -0.167271,
 -0.844347	  0.365996	  0.391313,
  0.893070	  0.449288	 -0.023784,
  0.166716	  0.772266	  0.613035,
 -0.347760	  0.690563	  0.634181,
 -0.280687	 -0.548895	 -0.787355,
 -0.801844	 -0.477486	 -0.359240,
  0.332015	 -0.384756	 -0.861237,
 -0.034406	 -0.626044	 -0.779028,
  0.727271	  0.042471	 -0.685035,
  0.906850	  0.310227	 -0.285277,
 -0.973325	 -0.193059	  0.123965,
 -0.790877	  0.473100	  0.388188,
  0.747676	  0.627421	  0.217539,
  0.061347	  0.848418	  0.525760,
 -0.345577	  0.733859	  0.584832,
  0.308473	 -0.710213	 -0.632805,
 -0.328321	 -0.938208	  0.109409,
 -0.577699	 -0.601595	  0.551676,
  0.425322	 -0.808553	 -0.406626,
  0.325800	 -0.833378	 -0.446470,
  0.562226	 -0.763266	 -0.318318,
  0.962485	 -0.144941	  0.229379,
  0.899666	  0.076552	  0.429814,
 -0.735623	  0.149469	  0.660694,
  0.378748	  0.539040	  0.752320,
 -0.282156	  0.497262	  0.820438,
  0.054765	  0.370876	  0.927066,
  0.272326	 -0.888081	  0.370338,
 -0.011979	 -0.410141	  0.911944,
  0.530605	 -0.717305	  0.451588,
  0.391242	 -0.296818	  0.871108,
]
}
normalIndex [
   0,	   1,	   2, -1
   2,	   3,	   0, -1
   1,	   0,	   4, -1
   0,	   3,	   5, -1
   0,	   5,	   4, -1
   1,	   4,	   6, -1
   7,	   2,	   1, -1
   7,	   1,	   6, -1
   7,	   8,	   2, -1
   3,	   2,	   8, -1
   3,	   8,	   9, -1
  10,	   5,	   3, -1
  10,	   3,	   9, -1
   4,	   5,	  11, -1
   4,	  11,	  12, -1
   4,	  12,	  13, -1
   4,	  13,	   6, -1
  14,	  11,	   5, -1
  14,	   5,	  10, -1
   7,	   6,	  15, -1
  16,	  15,	   6, -1
  16,	   6,	  13, -1
  17,	   8,	   7, -1
  17,	   7,	  15, -1
  17,	  18,	   8, -1
   9,	   8,	  19, -1
  19,	   8,	  18, -1
   9,	  19,	  20, -1
   9,	  20,	  10, -1
  10,	  20,	  21, -1
  10,	  21,	  14, -1
  12,	  11,	  22, -1
  14,	  22,	  11, -1
  12,	  22,	  23, -1
  24,	  13,	  12, -1
  24,	  12,	  23, -1
  16,	  13,	  24, -1
  14,	  25,	  22, -1
  14,	  21,	  26, -1
  14,	  26,	  25, -1
  17,	  15,	  27, -1
  27,	  15,	  16, -1
  27,	  16,	  28, -1
  16,	  24,	  29, -1
  28,	  16,	  29, -1
  30,	  18,	  17, -1
  30,	  17,	  27, -1
  19,	  18,	  31, -1
  31,	  18,	  30, -1
  19,	  31,	  32, -1
  19,	  32,	  20, -1
  32,	  21,	  20, -1
  33,	  26,	  21, -1
  33,	  21,	  34, -1
  21,	  32,	  35, -1
  21,	  35,	  34, -1
  23,	  22,	  36, -1
  37,	  36,	  22, -1
  37,	  22,	  25, -1
  23,	  36,	  38, -1
  39,	  24,	  23, -1
  39,	  23,	  38, -1
  29,	  24,	  39, -1
  25,	  26,	  40, -1
  25,	  40,	  37, -1
  41,	  40,	  26, -1
  41,	  26,	  33, -1
  30,	  27,	  35, -1
  27,	  28,	  34, -1
  27,	  34,	  35, -1
  28,	  29,	  42, -1
  34,	  28,	  42, -1
  29,	  39,	  43, -1
  42,	  29,	  43, -1
  35,	  31,	  30, -1
  35,	  32,	  31, -1
  34,	  42,	  33, -1
  33,	  42,	  44, -1
  33,	  44,	  41, -1
  45,	  46,	  36, -1
  45,	  36,	  37, -1
  46,	  38,	  36, -1
  47,	  45,	  37, -1
  47,	  37,	  40, -1
  46,	  48,	  38, -1
  39,	  38,	  48, -1
  39,	  48,	  49, -1
  49,	  43,	  39, -1
  50,	  47,	  40, -1
  50,	  40,	  41, -1
  51,	  50,	  41, -1
  51,	  41,	  44, -1
  42,	  43,	  44, -1
  49,	  52,	  43, -1
  44,	  43,	  52, -1
  44,	  52,	  51, -1
  53,	  54,	  45, -1
  45,	  55,	  53, -1
  56,	  55,	  45, -1
  56,	  45,	  47, -1
  45,	  54,	  46, -1
  54,	  48,	  46, -1
  47,	  57,	  56, -1
  57,	  47,	  58, -1
  58,	  47,	  50, -1
  54,	  59,	  48, -1
  49,	  48,	  59, -1
  49,	  59,	  60, -1
  60,	  52,	  49, -1
  58,	  50,	  61, -1
  62,	  61,	  50, -1
  62,	  50,	  51, -1
  51,	  52,	  63, -1
  51,	  63,	  62, -1
  60,	  63,	  52, -1
  55,	  64,	  53, -1
  53,	  64,	  65, -1
  53,	  65,	  54, -1
  54,	  66,	  59, -1
  65,	  66,	  54, -1
  55,	  67,	  64, -1
  68,	  67,	  55, -1
  68,	  55,	  56, -1
  56,	  57,	  69, -1
  56,	  69,	  68, -1
  70,	  69,	  57, -1
  70,	  57,	  58, -1
  71,	  70,	  58, -1
  71,	  58,	  61, -1
  59,	  72,	  60, -1
  59,	  66,	  72, -1
  72,	  63,	  60, -1
  73,	  71,	  61, -1
  62,	  73,	  61, -1
  62,	  63,	  74, -1
  62,	  74,	  75, -1
  62,	  75,	  73, -1
  72,	  74,	  63, -1
  65,	  64,	  67, -1
  65,	  67,	  76, -1
  76,	  66,	  65, -1
  76,	  77,	  66, -1
  77,	  72,	  66, -1
  76,	  67,	  68, -1
  76,	  68,	  78, -1
  78,	  68,	  69, -1
  78,	  69,	  70, -1
  70,	  71,	  79, -1
  70,	  79,	  78, -1
  79,	  71,	  73, -1
  77,	  74,	  72, -1
  79,	  73,	  75, -1
  75,	  74,	  77, -1
  75,	  77,	  79, -1
  78,	  77,	  76, -1
  78,	  79,	  77, -1
]
normalPerVertex TRUE
}
}
]
}
