#VRML V2.0 utf8
Transform {
children [
Shape {
appearance Appearance {
              material DEF surface Material {
              diffuseColor 0.8 0.8 0.8
              ambientIntensity 0.2
              specularColor 0.4 0.4 0.4
              emissiveColor 0 0 0
              shininess 0.25
              transparency 0
            }
          }
geometry IndexedFaceSet {
solid FALSE
coord DEF bone Coordinate {
point [
 -0.004883	 -0.060548	  0.043056,
 -0.009422	 -0.063729	  0.044793,
 -0.005992	 -0.064859	  0.043970,
  0.002097	 -0.062205	  0.044918,
 -0.002130	 -0.064259	  0.043884,
 -0.005017	 -0.066529	  0.044897,
 -0.007106	 -0.059055	  0.043249,
 -0.004818	 -0.054498	  0.041567,
 -0.001208	 -0.058292	  0.043087,
 -0.006826	 -0.065084	  0.035499,
 -0.006377	 -0.066610	  0.040894,
 -0.004645	 -0.068632	  0.043131,
 -0.009302	 -0.057446	  0.043579,
 -0.008497	 -0.061529	  0.039000,
  0.003087	 -0.064167	  0.042651,
  0.000846	 -0.065718	  0.042999,
 -0.000719	 -0.067753	  0.042665,
  0.002775	 -0.055915	  0.042805,
  0.002921	 -0.060242	  0.042502,
 -0.002399	 -0.068549	  0.040581,
 -0.007447	 -0.053197	  0.040985,
 -0.005661	 -0.048856	  0.038999,
 -0.001833	 -0.052539	  0.040562,
 -0.003195	 -0.065351	  0.033372,
 -0.004748	 -0.067212	  0.036833,
 -0.004618	 -0.068992	  0.040156,
 -0.008438	 -0.059854	  0.032128,
 -0.005298	 -0.062505	  0.032825,
 -0.010006	 -0.051989	  0.039794,
 -0.009172	 -0.055742	  0.036463,
  0.004384	 -0.064895	  0.035721,
 -0.000218	 -0.069272	  0.037151,
 -0.001080	 -0.068746	  0.041764,
  0.003722	 -0.058678	  0.039631,
  0.004123	 -0.061735	  0.038023,
  0.000370	 -0.050888	  0.038877,
  0.002041	 -0.054517	  0.039639,
  0.000141	 -0.068853	  0.035398,
 -0.004353	 -0.069421	  0.038301,
 -0.008128	 -0.047565	  0.037906,
 -0.006547	 -0.043236	  0.036274,
 -0.003508	 -0.047090	  0.037485,
  0.004090	 -0.065323	  0.031598,
 -0.000830	 -0.067236	  0.034667,
 -0.002733	 -0.059733	  0.030298,
  0.000490	 -0.062368	  0.031294,
 -0.008944	 -0.053683	  0.030353,
 -0.006108	 -0.056717	  0.030342,
 -0.010298	 -0.046179	  0.036558,
 -0.009633	 -0.049784	  0.033949,
  0.002099	 -0.067086	  0.034967,
  0.005298	 -0.059201	  0.034092,
  0.004392	 -0.062122	  0.032830,
  0.001297	 -0.052585	  0.037241,
  0.002992	 -0.055995	  0.036078,
 -0.002196	 -0.045379	  0.035791,
 -0.000266	 -0.048916	  0.036697,
 -0.008616	 -0.041786	  0.035061,
 -0.006803	 -0.037393	  0.034029,
 -0.004732	 -0.041269	  0.034941,
  0.003796	 -0.059065	  0.029909,
 -0.004316	 -0.053599	  0.028588,
 -0.001066	 -0.056848	  0.029974,
 -0.009283	 -0.047287	  0.029088,
 -0.007265	 -0.050584	  0.028696,
 -0.010813	 -0.040338	  0.033384,
 -0.010092	 -0.043710	  0.031657,
  0.001650	 -0.053517	  0.033349,
  0.002433	 -0.056695	  0.032112,
 -0.000537	 -0.046813	  0.034878,
  0.000265	 -0.050351	  0.034061,
 -0.003383	 -0.039068	  0.033670,
 -0.001871	 -0.043095	  0.034001,
 -0.008698	 -0.035879	  0.032507,
 -0.006432	 -0.031537	  0.031856,
 -0.004917	 -0.035230	  0.032615,
 -0.001014	 -0.054995	  0.031100,
 -0.006515	 -0.047764	  0.026758,
 -0.003633	 -0.051229	  0.028911,
 -0.009974	 -0.041039	  0.027602,
 -0.008540	 -0.044432	  0.027301,
 -0.010741	 -0.034249	  0.030761,
 -0.010479	 -0.037619	  0.029400,
 -0.001351	 -0.048492	  0.030776,
 -0.000851	 -0.051391	  0.031106,
 -0.001367	 -0.041119	  0.031666,
 -0.001383	 -0.044784	  0.031385,
 -0.003048	 -0.032920	  0.030907,
 -0.002369	 -0.037047	  0.031306,
 -0.008225	 -0.029860	  0.030241,
 -0.005726	 -0.025707	  0.029683,
 -0.004360	 -0.029190	  0.030283,
 -0.002689	 -0.048560	  0.029197,
 -0.008387	 -0.041637	  0.025756,
 -0.005302	 -0.045063	  0.027076,
 -0.010389	 -0.034849	  0.025853,
 -0.009464	 -0.038201	  0.025970,
 -0.010002	 -0.027950	  0.028666,
 -0.010353	 -0.031429	  0.027310,
 -0.002277	 -0.042714	  0.028219,
 -0.002483	 -0.045514	  0.028696,
 -0.001677	 -0.035079	  0.028977,
 -0.001908	 -0.038852	  0.028701,
 -0.002235	 -0.026594	  0.028688,
 -0.002138	 -0.030817	  0.028966,
 -0.007517	 -0.023764	  0.028227,
 -0.005219	 -0.019747	  0.027850,
 -0.003784	 -0.022994	  0.028482,
 -0.003617	 -0.042292	  0.026593,
 -0.009109	 -0.035282	  0.024670,
 -0.006355	 -0.038890	  0.025294,
 -0.010281	 -0.028667	  0.023957,
 -0.009671	 -0.031943	  0.024364,
 -0.009121	 -0.021652	  0.026707,
 -0.009797	 -0.025191	  0.025359,
 -0.002311	 -0.036496	  0.025940,
 -0.003127	 -0.039463	  0.026228,
 -0.001594	 -0.028676	  0.027291,
 -0.001999	 -0.032604	  0.026572,
 -0.001954	 -0.019930	  0.027708,
 -0.001649	 -0.024370	  0.027374,
 -0.006892	 -0.017587	  0.026466,
 -0.004897	 -0.013648	  0.026454,
 -0.003625	 -0.016655	  0.027226,
 -0.004305	 -0.036350	  0.024159,
 -0.008907	 -0.028975	  0.022975,
 -0.006662	 -0.032682	  0.023447,
 -0.009783	 -0.022496	  0.022109,
 -0.009313	 -0.025741	  0.022496,
 -0.008330	 -0.015303	  0.024853,
 -0.009125	 -0.018935	  0.023517,
 -0.002412	 -0.030165	  0.024078,
 -0.003338	 -0.033283	  0.024040,
 -0.000814	 -0.022282	  0.025809,
 -0.001730	 -0.026276	  0.024875,
 -0.002430	 -0.013298	  0.026890,
 -0.001248	 -0.017893	  0.026044,
 -0.006464	 -0.011352	  0.024904,
 -0.004467	 -0.007483	  0.025437,
 -0.003448	 -0.010220	  0.026092,
 -0.004325	 -0.030120	  0.021983,
 -0.008283	 -0.022825	  0.020943,
 -0.006280	 -0.026424	  0.021468,
 -0.009266	 -0.016291	  0.020398,
 -0.008736	 -0.019579	  0.020572,
 -0.008159	 -0.008973	  0.022870,
 -0.008706	 -0.012649	  0.021736,
 -0.002099	 -0.023981	  0.022323,
 -0.003110	 -0.027011	  0.022089,
  0.000205	 -0.016063	  0.023770,
 -0.000810	 -0.020100	  0.023007,
 -0.001997	 -0.006454	  0.025586,
 -0.000689	 -0.011425	  0.024519,
 -0.006372	 -0.005137	  0.023162,
 -0.004498	 -0.001356	  0.024159,
 -0.002379	 -0.004050	  0.025146,
 -0.003606	 -0.023777	  0.019969,
 -0.007613	 -0.016706	  0.018840,
 -0.005459	 -0.020218	  0.019404,
 -0.009068	 -0.010030	  0.018824,
 -0.008272	 -0.013424	  0.018629,
 -0.008365	 -0.002737	  0.020183,
 -0.008715	 -0.006423	  0.019630,
 -0.000533	 -0.018074	  0.020127,
 -0.002143	 -0.020849	  0.020071,
  0.001467	 -0.009885	  0.021830,
  0.000483	 -0.014064	  0.020842,
  0.001446	 -0.000906	  0.025403,
  0.001246	 -0.005267	  0.023631,
 -0.005533	  0.001397	  0.022349,
 -0.003524	  0.004442	  0.024019,
 -0.000694	  0.001233	  0.024396,
 -0.002335	 -0.017564	  0.017866,
 -0.007142	 -0.010673	  0.016455,
 -0.004695	 -0.014176	  0.017022,
 -0.009266	 -0.003954	  0.016643,
 -0.008176	 -0.007401	  0.016322,
 -0.005745	  0.005239	  0.021033,
 -0.007932	  0.000116	  0.018175,
  0.000793	 -0.012236	  0.017644,
 -0.000941	 -0.014909	  0.017641,
  0.004071	 -0.003821	  0.021705,
  0.002209	 -0.008157	  0.018985,
  0.003800	  0.002753	  0.024004,
  0.003497	  0.000102	  0.022991,
 -0.002792	  0.003486	  0.017742,
 -0.001690	 -0.011761	  0.014927,
 -0.007231	 -0.004946	  0.013367,
 -0.004547	 -0.008286	  0.014215,
 -0.008352	  0.001917	  0.014843,
 -0.008098	 -0.001401	  0.014397,
  0.002509	 -0.006683	  0.014759,
 -0.000128	 -0.009112	  0.014860,
  0.004671	  0.002382	  0.020849,
  0.003540	 -0.002154	  0.017613,
  0.003304	  0.002370	  0.011457,
 -0.003295	  0.002926	  0.011038,
 -0.007545	  0.001377	  0.012739,
 -0.002125	 -0.005765	  0.012110,
 -0.005049	 -0.001930	  0.012311,
 -0.000816	 -0.002948	  0.011714,
]
}
coordIndex [
   0,	   1,	   2, -1
   3,	   0,	   4, -1
   5,	   0,	   2, -1
   1,	   0,	   6, -1
   0,	   7,	   6, -1
   0,	   5,	   4, -1
   7,	   0,	   8, -1
   0,	   3,	   8, -1
   1,	   9,	  10, -1
   1,	  11,	   2, -1
  12,	   1,	   6, -1
  11,	   1,	  10, -1
   9,	   1,	  13, -1
   1,	  12,	  13, -1
  11,	   5,	   2, -1
  14,	   3,	  15, -1
   3,	  16,	  15, -1
  17,	   3,	  18, -1
   3,	  14,	  18, -1
  16,	   3,	   4, -1
   3,	  17,	   8, -1
   5,	  16,	   4, -1
   5,	  11,	  19, -1
  16,	   5,	  19, -1
   7,	  12,	   6, -1
  17,	   7,	   8, -1
  12,	   7,	  20, -1
   7,	  21,	  20, -1
  21,	   7,	  22, -1
   7,	  17,	  22, -1
   9,	  23,	  24, -1
   9,	  25,	  10, -1
  26,	   9,	  13, -1
  25,	   9,	  24, -1
  23,	   9,	  27, -1
   9,	  26,	  27, -1
  25,	  11,	  10, -1
  11,	  25,	  19, -1
  12,	  26,	  13, -1
  28,	  12,	  20, -1
  26,	  12,	  29, -1
  12,	  28,	  29, -1
  30,	  14,	  31, -1
  32,	  31,	  14, -1
  33,	  14,	  34, -1
  14,	  30,	  34, -1
  32,	  14,	  15, -1
  14,	  33,	  18, -1
  16,	  32,	  15, -1
  32,	  16,	  19, -1
  33,	  17,	  18, -1
  35,	  17,	  36, -1
  17,	  33,	  36, -1
  17,	  35,	  22, -1
  31,	  32,	  19, -1
  37,	  31,	  19, -1
  38,	  37,	  19, -1
  25,	  38,	  19, -1
  21,	  28,	  20, -1
  35,	  21,	  22, -1
  28,	  21,	  39, -1
  21,	  40,	  39, -1
  40,	  21,	  41, -1
  21,	  35,	  41, -1
  23,	  42,	  43, -1
  23,	  38,	  24, -1
  44,	  23,	  27, -1
  38,	  23,	  43, -1
  42,	  23,	  45, -1
  23,	  44,	  45, -1
  38,	  25,	  24, -1
  26,	  44,	  27, -1
  46,	  26,	  29, -1
  44,	  26,	  47, -1
  26,	  46,	  47, -1
  28,	  46,	  29, -1
  48,	  28,	  39, -1
  46,	  28,	  49, -1
  28,	  48,	  49, -1
  42,	  30,	  50, -1
  30,	  31,	  50, -1
  51,	  30,	  52, -1
  30,	  42,	  52, -1
  30,	  51,	  34, -1
  31,	  37,	  50, -1
  51,	  33,	  34, -1
  53,	  33,	  54, -1
  33,	  51,	  54, -1
  33,	  53,	  36, -1
  53,	  35,	  36, -1
  55,	  35,	  56, -1
  35,	  53,	  56, -1
  35,	  55,	  41, -1
  42,	  37,	  43, -1
  37,	  38,	  43, -1
  37,	  42,	  50, -1
  40,	  48,	  39, -1
  55,	  40,	  41, -1
  48,	  40,	  57, -1
  40,	  58,	  57, -1
  58,	  40,	  59, -1
  40,	  55,	  59, -1
  60,	  42,	  45, -1
  42,	  60,	  52, -1
  44,	  60,	  45, -1
  61,	  44,	  47, -1
  60,	  44,	  62, -1
  44,	  61,	  62, -1
  46,	  61,	  47, -1
  63,	  46,	  49, -1
  61,	  46,	  64, -1
  46,	  63,	  64, -1
  48,	  63,	  49, -1
  65,	  48,	  57, -1
  63,	  48,	  66, -1
  48,	  65,	  66, -1
  60,	  51,	  52, -1
  67,	  51,	  68, -1
  51,	  60,	  68, -1
  51,	  67,	  54, -1
  67,	  53,	  54, -1
  69,	  53,	  70, -1
  53,	  67,	  70, -1
  53,	  69,	  56, -1
  69,	  55,	  56, -1
  71,	  55,	  72, -1
  55,	  69,	  72, -1
  55,	  71,	  59, -1
  58,	  65,	  57, -1
  71,	  58,	  59, -1
  65,	  58,	  73, -1
  58,	  74,	  73, -1
  74,	  58,	  75, -1
  58,	  71,	  75, -1
  76,	  60,	  62, -1
  60,	  76,	  68, -1
  61,	  76,	  62, -1
  77,	  61,	  64, -1
  76,	  61,	  78, -1
  61,	  77,	  78, -1
  63,	  77,	  64, -1
  79,	  63,	  66, -1
  77,	  63,	  80, -1
  63,	  79,	  80, -1
  65,	  79,	  66, -1
  81,	  65,	  73, -1
  79,	  65,	  82, -1
  65,	  81,	  82, -1
  76,	  67,	  68, -1
  83,	  67,	  84, -1
  67,	  76,	  84, -1
  67,	  83,	  70, -1
  83,	  69,	  70, -1
  85,	  69,	  86, -1
  69,	  83,	  86, -1
  69,	  85,	  72, -1
  85,	  71,	  72, -1
  87,	  71,	  88, -1
  71,	  85,	  88, -1
  71,	  87,	  75, -1
  74,	  81,	  73, -1
  87,	  74,	  75, -1
  81,	  74,	  89, -1
  74,	  90,	  89, -1
  90,	  74,	  91, -1
  74,	  87,	  91, -1
  92,	  76,	  78, -1
  76,	  92,	  84, -1
  77,	  92,	  78, -1
  93,	  77,	  80, -1
  92,	  77,	  94, -1
  77,	  93,	  94, -1
  79,	  93,	  80, -1
  95,	  79,	  82, -1
  93,	  79,	  96, -1
  79,	  95,	  96, -1
  81,	  95,	  82, -1
  97,	  81,	  89, -1
  95,	  81,	  98, -1
  81,	  97,	  98, -1
  92,	  83,	  84, -1
  99,	  83,	 100, -1
  83,	  92,	 100, -1
  83,	  99,	  86, -1
  99,	  85,	  86, -1
 101,	  85,	 102, -1
  85,	  99,	 102, -1
  85,	 101,	  88, -1
 101,	  87,	  88, -1
 103,	  87,	 104, -1
  87,	 101,	 104, -1
  87,	 103,	  91, -1
  90,	  97,	  89, -1
 103,	  90,	  91, -1
  97,	  90,	 105, -1
  90,	 106,	 105, -1
 106,	  90,	 107, -1
  90,	 103,	 107, -1
 108,	  92,	  94, -1
  92,	 108,	 100, -1
  93,	 108,	  94, -1
 109,	  93,	  96, -1
 108,	  93,	 110, -1
  93,	 109,	 110, -1
  95,	 109,	  96, -1
 111,	  95,	  98, -1
 109,	  95,	 112, -1
  95,	 111,	 112, -1
  97,	 111,	  98, -1
 113,	  97,	 105, -1
 111,	  97,	 114, -1
  97,	 113,	 114, -1
 108,	  99,	 100, -1
 115,	  99,	 116, -1
  99,	 108,	 116, -1
  99,	 115,	 102, -1
 115,	 101,	 102, -1
 117,	 101,	 118, -1
 101,	 115,	 118, -1
 101,	 117,	 104, -1
 117,	 103,	 104, -1
 119,	 103,	 120, -1
 103,	 117,	 120, -1
 103,	 119,	 107, -1
 106,	 113,	 105, -1
 119,	 106,	 107, -1
 113,	 106,	 121, -1
 106,	 122,	 121, -1
 122,	 106,	 123, -1
 106,	 119,	 123, -1
 124,	 108,	 110, -1
 108,	 124,	 116, -1
 109,	 124,	 110, -1
 125,	 109,	 112, -1
 124,	 109,	 126, -1
 109,	 125,	 126, -1
 111,	 125,	 112, -1
 127,	 111,	 114, -1
 125,	 111,	 128, -1
 111,	 127,	 128, -1
 113,	 127,	 114, -1
 129,	 113,	 121, -1
 127,	 113,	 130, -1
 113,	 129,	 130, -1
 124,	 115,	 116, -1
 131,	 115,	 132, -1
 115,	 124,	 132, -1
 115,	 131,	 118, -1
 131,	 117,	 118, -1
 133,	 117,	 134, -1
 117,	 131,	 134, -1
 117,	 133,	 120, -1
 133,	 119,	 120, -1
 135,	 119,	 136, -1
 119,	 133,	 136, -1
 119,	 135,	 123, -1
 122,	 129,	 121, -1
 135,	 122,	 123, -1
 129,	 122,	 137, -1
 122,	 138,	 137, -1
 138,	 122,	 139, -1
 122,	 135,	 139, -1
 140,	 124,	 126, -1
 124,	 140,	 132, -1
 125,	 140,	 126, -1
 141,	 125,	 128, -1
 140,	 125,	 142, -1
 125,	 141,	 142, -1
 127,	 141,	 128, -1
 143,	 127,	 130, -1
 141,	 127,	 144, -1
 127,	 143,	 144, -1
 129,	 143,	 130, -1
 145,	 129,	 137, -1
 143,	 129,	 146, -1
 129,	 145,	 146, -1
 140,	 131,	 132, -1
 147,	 131,	 148, -1
 131,	 140,	 148, -1
 131,	 147,	 134, -1
 147,	 133,	 134, -1
 149,	 133,	 150, -1
 133,	 147,	 150, -1
 133,	 149,	 136, -1
 149,	 135,	 136, -1
 151,	 135,	 152, -1
 135,	 149,	 152, -1
 135,	 151,	 139, -1
 138,	 145,	 137, -1
 151,	 138,	 139, -1
 145,	 138,	 153, -1
 138,	 154,	 153, -1
 154,	 138,	 155, -1
 138,	 151,	 155, -1
 156,	 140,	 142, -1
 140,	 156,	 148, -1
 141,	 156,	 142, -1
 157,	 141,	 144, -1
 156,	 141,	 158, -1
 141,	 157,	 158, -1
 143,	 157,	 144, -1
 159,	 143,	 146, -1
 157,	 143,	 160, -1
 143,	 159,	 160, -1
 145,	 159,	 146, -1
 161,	 145,	 153, -1
 159,	 145,	 162, -1
 145,	 161,	 162, -1
 156,	 147,	 148, -1
 163,	 147,	 164, -1
 147,	 156,	 164, -1
 147,	 163,	 150, -1
 163,	 149,	 150, -1
 165,	 149,	 166, -1
 149,	 163,	 166, -1
 149,	 165,	 152, -1
 165,	 151,	 152, -1
 167,	 151,	 168, -1
 151,	 165,	 168, -1
 151,	 167,	 155, -1
 154,	 161,	 153, -1
 167,	 154,	 155, -1
 161,	 154,	 169, -1
 154,	 170,	 169, -1
 170,	 154,	 171, -1
 154,	 167,	 171, -1
 172,	 156,	 158, -1
 156,	 172,	 164, -1
 157,	 172,	 158, -1
 173,	 157,	 160, -1
 172,	 157,	 174, -1
 157,	 173,	 174, -1
 159,	 173,	 160, -1
 175,	 159,	 162, -1
 173,	 159,	 176, -1
 159,	 175,	 176, -1
 161,	 175,	 162, -1
 177,	 161,	 169, -1
 175,	 161,	 178, -1
 161,	 177,	 178, -1
 172,	 163,	 164, -1
 179,	 163,	 180, -1
 163,	 172,	 180, -1
 163,	 179,	 166, -1
 179,	 165,	 166, -1
 181,	 165,	 182, -1
 165,	 179,	 182, -1
 165,	 181,	 168, -1
 181,	 167,	 168, -1
 183,	 167,	 184, -1
 167,	 181,	 184, -1
 167,	 183,	 171, -1
 170,	 177,	 169, -1
 183,	 170,	 171, -1
 185,	 177,	 170, -1
 185,	 170,	 183, -1
 186,	 172,	 174, -1
 172,	 186,	 180, -1
 173,	 186,	 174, -1
 187,	 173,	 176, -1
 186,	 173,	 188, -1
 173,	 187,	 188, -1
 175,	 187,	 176, -1
 189,	 175,	 178, -1
 187,	 175,	 190, -1
 175,	 189,	 190, -1
 177,	 189,	 178, -1
 185,	 189,	 177, -1
 186,	 179,	 180, -1
 191,	 179,	 192, -1
 179,	 186,	 192, -1
 179,	 191,	 182, -1
 191,	 181,	 182, -1
 193,	 181,	 194, -1
 181,	 191,	 194, -1
 181,	 193,	 184, -1
 193,	 183,	 184, -1
 185,	 183,	 193, -1
 185,	 193,	 195, -1
 185,	 195,	 196, -1
 185,	 196,	 197, -1
 185,	 197,	 189, -1
 198,	 186,	 188, -1
 186,	 198,	 192, -1
 187,	 198,	 188, -1
 197,	 187,	 190, -1
 198,	 187,	 199, -1
 187,	 197,	 199, -1
 189,	 197,	 190, -1
 198,	 191,	 192, -1
 195,	 191,	 200, -1
 191,	 198,	 200, -1
 191,	 195,	 194, -1
 195,	 193,	 194, -1
 196,	 195,	 200, -1
 197,	 196,	 199, -1
 196,	 198,	 199, -1
 198,	 196,	 200, -1
]
colorPerVertex FALSE
colorIndex [
1,
1,
1,
1,
1,
1,
1,
1,
1,
1,
1,
1,
1,
1,
1,
1,
1,
1,
1,
1,
1,
1,
1,
1,
1,
1,
1,
1,
1,
1,
1,
1,
1,
1,
1,
1,
1,
1,
1,
1,
1,
1,
1,
1,
1,
1,
1,
1,
1,
1,
1,
1,
1,
1,
1,
1,
1,
1,
1,
1,
1,
1,
1,
1,
1,
1,
1,
1,
1,
1,
1,
1,
1,
1,
1,
1,
1,
1,
1,
1,
1,
1,
1,
1,
1,
1,
1,
1,
1,
1,
1,
1,
1,
1,
1,
1,
1,
1,
1,
1,
1,
1,
1,
1,
1,
1,
1,
1,
1,
1,
1,
1,
1,
1,
1,
1,
1,
1,
1,
1,
1,
1,
1,
1,
1,
1,
1,
1,
1,
1,
1,
1,
1,
1,
1,
1,
1,
1,
1,
1,
1,
1,
1,
1,
1,
1,
1,
1,
1,
1,
1,
1,
1,
1,
1,
1,
1,
1,
1,
1,
1,
1,
1,
1,
1,
1,
1,
1,
1,
1,
1,
1,
1,
1,
1,
1,
1,
1,
1,
1,
1,
1,
1,
1,
1,
1,
1,
1,
1,
1,
1,
1,
1,
1,
1,
1,
1,
1,
1,
1,
1,
]
normal Normal {
vector [
 -0.014967	  0.218473	  0.975728,
 -0.580652	 -0.280139	  0.764438,
 -0.250766	 -0.035337	  0.967403,
  0.368869	 -0.116867	  0.922105,
  0.058559	 -0.045375	  0.997252,
 -0.018858	 -0.297439	  0.954555,
  0.254467	  0.203586	  0.945410,
  0.040160	  0.356105	  0.933583,
 -0.142436	  0.284279	  0.948102,
 -0.700704	 -0.588328	 -0.403589,
 -0.775717	 -0.628973	 -0.051533,
 -0.340434	 -0.800201	  0.493744,
 -0.712510	  0.203073	  0.671633,
 -0.974030	 -0.182178	 -0.134450,
  0.859462	 -0.334341	  0.386705,
  0.570674	 -0.573527	  0.587706,
  0.188152	 -0.589230	  0.785752,
  0.597401	  0.431249	  0.676118,
  0.948513	  0.031668	  0.315151,
 -0.055124	 -0.951644	  0.302217,
 -0.060465	  0.488430	  0.870506,
  0.016799	  0.464448	  0.885441,
  0.073042	  0.535559	  0.841333,
 -0.335513	 -0.566098	 -0.752970,
 -0.682464	 -0.592267	 -0.428326,
 -0.561841	 -0.826793	 -0.027339,
 -0.758436	 -0.359743	 -0.543470,
 -0.352929	 -0.504684	 -0.787867,
 -0.807306	  0.248145	  0.535427,
 -0.988703	 -0.134704	 -0.065728,
  0.918177	 -0.391465	  0.060877,
  0.385579	 -0.922142	  0.031360,
  0.267516	 -0.820872	  0.504583,
  0.960063	  0.219197	  0.173870,
  0.972334	 -0.038691	  0.230368,
  0.627243	  0.583444	  0.515906,
  0.917314	  0.398163	  0.000471,
  0.042273	 -0.927576	 -0.371236,
 -0.403886	 -0.846447	 -0.346992,
 -0.211414	  0.434696	  0.875410,
  0.017083	  0.420469	  0.907146,
  0.258660	  0.509775	  0.820503,
  0.453589	 -0.611930	 -0.647919,
 -0.270968	 -0.634402	 -0.723955,
 -0.152891	 -0.348210	 -0.924864,
 -0.122256	 -0.368658	 -0.921490,
 -0.791919	 -0.217868	 -0.570437,
 -0.308427	 -0.307267	 -0.900255,
 -0.842809	  0.202073	  0.498838,
 -0.990059	 -0.090921	 -0.107315,
  0.678570	 -0.734536	  0.000319,
  0.971314	  0.225283	 -0.076131,
  0.972694	 -0.109177	 -0.204811,
  0.916523	  0.395502	  0.059706,
  0.874079	  0.476497	  0.094530,
  0.547732	  0.467152	  0.694088,
  0.835538	  0.465310	  0.292167,
 -0.325018	  0.378827	  0.866518,
 -0.050471	  0.366271	  0.929138,
  0.270623	  0.353756	  0.895332,
  0.526696	  0.167304	 -0.833427,
  0.082308	 -0.189486	 -0.978428,
  0.278984	  0.159707	 -0.946922,
 -0.866434	 -0.197942	 -0.458378,
 -0.485394	 -0.308489	 -0.818063,
 -0.873929	  0.173544	  0.454016,
 -0.982534	 -0.143655	 -0.118276,
  0.833914	  0.366716	 -0.412440,
  0.623357	  0.568004	 -0.537399,
  0.937561	  0.314201	  0.149188,
  0.925880	  0.342131	 -0.160289,
  0.573964	  0.335403	  0.747041,
  0.758468	  0.366261	  0.539054,
 -0.414422	  0.352003	  0.839255,
 -0.038128	  0.353798	  0.934544,
  0.323329	  0.342931	  0.881962,
  0.573352	  0.240582	 -0.783191,
 -0.076287	 -0.251548	 -0.964834,
  0.554095	 -0.076435	 -0.828937,
 -0.904855	 -0.182347	 -0.384692,
 -0.705801	 -0.277526	 -0.651786,
 -0.856854	  0.220304	  0.466119,
 -0.992811	 -0.063782	 -0.101285,
  0.878617	  0.074594	 -0.471665,
  0.700400	  0.008461	 -0.713701,
  0.976740	  0.158350	  0.144586,
  0.971283	  0.030111	 -0.236016,
  0.649389	  0.235716	  0.723002,
  0.844174	  0.217798	  0.489832,
 -0.407562	  0.346160	  0.845024,
 -0.048427	  0.314532	  0.948011,
  0.345813	  0.280505	  0.895394,
  0.618238	 -0.120825	 -0.776648,
 -0.341200	 -0.247044	 -0.906947,
  0.326073	 -0.192371	 -0.925565,
 -0.908614	 -0.123982	 -0.398809,
 -0.741726	 -0.211064	 -0.636627,
 -0.809307	  0.262180	  0.525627,
 -0.997930	  0.062386	 -0.015613,
  0.878490	 -0.111797	 -0.464496,
  0.748465	 -0.160565	 -0.643444,
  0.988826	  0.056649	  0.137891,
  0.977006	 -0.055971	 -0.205732,
  0.657755	  0.138222	  0.740441,
  0.895502	  0.072424	  0.439125,
 -0.387704	  0.312096	  0.867342,
 -0.175402	  0.256213	  0.950573,
  0.189610	  0.203505	  0.960538,
  0.454739	 -0.261424	 -0.851393,
 -0.440360	 -0.232820	 -0.867109,
 -0.016714	 -0.276972	 -0.960732,
 -0.910520	 -0.066002	 -0.408162,
 -0.651510	 -0.194703	 -0.733229,
 -0.792804	  0.256652	  0.552804,
 -0.988096	  0.132779	  0.077692,
  0.864455	 -0.149431	 -0.479988,
  0.679337	 -0.229446	 -0.697034,
  0.993150	 -0.036513	  0.110994,
  0.977980	 -0.054735	 -0.201394,
  0.535579	  0.125641	  0.835086,
  0.889530	  0.014077	  0.456660,
 -0.448159	  0.262666	  0.854494,
 -0.332038	  0.207523	  0.920155,
 -0.063498	  0.171173	  0.983193,
  0.282058	 -0.304570	 -0.909769,
 -0.443361	 -0.235496	 -0.864854,
 -0.217029	 -0.285041	 -0.933622,
 -0.930049	 -0.025179	 -0.366571,
 -0.613901	 -0.185697	 -0.767231,
 -0.813660	  0.208895	  0.542513,
 -0.979219	  0.142766	  0.144040,
  0.878279	 -0.158543	 -0.451098,
  0.681337	 -0.218096	 -0.698723,
  0.984377	 -0.090448	  0.151066,
  0.962026	 -0.143292	 -0.232323,
  0.380692	  0.147501	  0.912862,
  0.842383	  0.084222	  0.532257,
 -0.560099	  0.217773	  0.799290,
 -0.398499	  0.190848	  0.897093,
 -0.165860	  0.183541	  0.968919,
  0.267497	 -0.306620	 -0.913471,
 -0.452278	 -0.236410	 -0.859974,
 -0.258515	 -0.272417	 -0.926800,
 -0.955426	 -0.026323	 -0.294054,
 -0.665142	 -0.161551	 -0.729031,
 -0.848985	  0.166057	  0.501646,
 -0.977808	  0.082979	  0.192370,
  0.879843	 -0.262640	 -0.396103,
  0.762895	 -0.242762	 -0.599215,
  0.956223	 -0.087848	  0.279143,
  0.957142	 -0.253300	 -0.140425,
  0.294723	  0.030075	  0.955109,
  0.772597	  0.056969	  0.632336,
 -0.681315	  0.210253	  0.701144,
 -0.476712	  0.170353	  0.862395,
 -0.180376	  0.172487	  0.968356,
  0.309794	 -0.342704	 -0.886895,
 -0.489339	 -0.259293	 -0.832655,
 -0.233666	 -0.280797	 -0.930889,
 -0.975343	 -0.070826	 -0.209022,
 -0.747418	 -0.166453	 -0.643163,
 -0.875504	  0.189055	  0.444691,
 -0.974742	  0.053651	  0.216792,
  0.865922	 -0.343336	 -0.363729,
  0.725351	 -0.374792	 -0.577406,
  0.899383	 -0.219765	  0.377908,
  0.972503	 -0.227610	 -0.049308,
  0.311901	 -0.012959	  0.950026,
  0.603593	 -0.294451	  0.740928,
 -0.750868	  0.161511	  0.640400,
 -0.230826	  0.596901	  0.768393,
 -0.080501	  0.203009	  0.975862,
  0.255426	 -0.411671	 -0.874806,
 -0.571343	 -0.325781	 -0.753282,
 -0.273643	 -0.372949	 -0.886582,
 -0.988253	  0.009936	 -0.152503,
 -0.823160	 -0.248079	 -0.510749,
 -0.712644	  0.643383	  0.279637,
 -0.943255	  0.254236	  0.213622,
  0.842442	 -0.387873	 -0.373960,
  0.651379	 -0.408112	 -0.639648,
  0.928597	 -0.230303	  0.290979,
  0.935453	 -0.353093	 -0.015925,
  0.546684	  0.512142	  0.662455,
  0.859540	 -0.158755	  0.485786,
  0.077603	  0.984752	 -0.155697,
  0.175845	 -0.449531	 -0.875785,
 -0.619505	 -0.245169	 -0.745725,
 -0.302075	 -0.439646	 -0.845850,
 -0.834287	  0.497717	 -0.237155,
 -0.894153	 -0.044605	 -0.445534,
  0.775673	 -0.360822	 -0.517822,
  0.503103	 -0.425329	 -0.752318,
  0.938611	  0.336293	  0.076920,
  0.979254	 -0.127866	 -0.157198,
  0.718046	  0.341976	 -0.606187,
 -0.193130	  0.328555	 -0.924528,
 -0.655468	  0.341938	 -0.673379,
  0.025531	 -0.319824	 -0.947133,
 -0.290218	 -0.134149	 -0.947511,
  0.216959	 -0.226216	 -0.949608,
]
}
normalIndex [
   0,	   1,	   2, -1
   3,	   0,	   4, -1
   5,	   0,	   2, -1
   1,	   0,	   6, -1
   0,	   7,	   6, -1
   0,	   5,	   4, -1
   7,	   0,	   8, -1
   0,	   3,	   8, -1
   1,	   9,	  10, -1
   1,	  11,	   2, -1
  12,	   1,	   6, -1
  11,	   1,	  10, -1
   9,	   1,	  13, -1
   1,	  12,	  13, -1
  11,	   5,	   2, -1
  14,	   3,	  15, -1
   3,	  16,	  15, -1
  17,	   3,	  18, -1
   3,	  14,	  18, -1
  16,	   3,	   4, -1
   3,	  17,	   8, -1
   5,	  16,	   4, -1
   5,	  11,	  19, -1
  16,	   5,	  19, -1
   7,	  12,	   6, -1
  17,	   7,	   8, -1
  12,	   7,	  20, -1
   7,	  21,	  20, -1
  21,	   7,	  22, -1
   7,	  17,	  22, -1
   9,	  23,	  24, -1
   9,	  25,	  10, -1
  26,	   9,	  13, -1
  25,	   9,	  24, -1
  23,	   9,	  27, -1
   9,	  26,	  27, -1
  25,	  11,	  10, -1
  11,	  25,	  19, -1
  12,	  26,	  13, -1
  28,	  12,	  20, -1
  26,	  12,	  29, -1
  12,	  28,	  29, -1
  30,	  14,	  31, -1
  32,	  31,	  14, -1
  33,	  14,	  34, -1
  14,	  30,	  34, -1
  32,	  14,	  15, -1
  14,	  33,	  18, -1
  16,	  32,	  15, -1
  32,	  16,	  19, -1
  33,	  17,	  18, -1
  35,	  17,	  36, -1
  17,	  33,	  36, -1
  17,	  35,	  22, -1
  31,	  32,	  19, -1
  37,	  31,	  19, -1
  38,	  37,	  19, -1
  25,	  38,	  19, -1
  21,	  28,	  20, -1
  35,	  21,	  22, -1
  28,	  21,	  39, -1
  21,	  40,	  39, -1
  40,	  21,	  41, -1
  21,	  35,	  41, -1
  23,	  42,	  43, -1
  23,	  38,	  24, -1
  44,	  23,	  27, -1
  38,	  23,	  43, -1
  42,	  23,	  45, -1
  23,	  44,	  45, -1
  38,	  25,	  24, -1
  26,	  44,	  27, -1
  46,	  26,	  29, -1
  44,	  26,	  47, -1
  26,	  46,	  47, -1
  28,	  46,	  29, -1
  48,	  28,	  39, -1
  46,	  28,	  49, -1
  28,	  48,	  49, -1
  42,	  30,	  50, -1
  30,	  31,	  50, -1
  51,	  30,	  52, -1
  30,	  42,	  52, -1
  30,	  51,	  34, -1
  31,	  37,	  50, -1
  51,	  33,	  34, -1
  53,	  33,	  54, -1
  33,	  51,	  54, -1
  33,	  53,	  36, -1
  53,	  35,	  36, -1
  55,	  35,	  56, -1
  35,	  53,	  56, -1
  35,	  55,	  41, -1
  42,	  37,	  43, -1
  37,	  38,	  43, -1
  37,	  42,	  50, -1
  40,	  48,	  39, -1
  55,	  40,	  41, -1
  48,	  40,	  57, -1
  40,	  58,	  57, -1
  58,	  40,	  59, -1
  40,	  55,	  59, -1
  60,	  42,	  45, -1
  42,	  60,	  52, -1
  44,	  60,	  45, -1
  61,	  44,	  47, -1
  60,	  44,	  62, -1
  44,	  61,	  62, -1
  46,	  61,	  47, -1
  63,	  46,	  49, -1
  61,	  46,	  64, -1
  46,	  63,	  64, -1
  48,	  63,	  49, -1
  65,	  48,	  57, -1
  63,	  48,	  66, -1
  48,	  65,	  66, -1
  60,	  51,	  52, -1
  67,	  51,	  68, -1
  51,	  60,	  68, -1
  51,	  67,	  54, -1
  67,	  53,	  54, -1
  69,	  53,	  70, -1
  53,	  67,	  70, -1
  53,	  69,	  56, -1
  69,	  55,	  56, -1
  71,	  55,	  72, -1
  55,	  69,	  72, -1
  55,	  71,	  59, -1
  58,	  65,	  57, -1
  71,	  58,	  59, -1
  65,	  58,	  73, -1
  58,	  74,	  73, -1
  74,	  58,	  75, -1
  58,	  71,	  75, -1
  76,	  60,	  62, -1
  60,	  76,	  68, -1
  61,	  76,	  62, -1
  77,	  61,	  64, -1
  76,	  61,	  78, -1
  61,	  77,	  78, -1
  63,	  77,	  64, -1
  79,	  63,	  66, -1
  77,	  63,	  80, -1
  63,	  79,	  80, -1
  65,	  79,	  66, -1
  81,	  65,	  73, -1
  79,	  65,	  82, -1
  65,	  81,	  82, -1
  76,	  67,	  68, -1
  83,	  67,	  84, -1
  67,	  76,	  84, -1
  67,	  83,	  70, -1
  83,	  69,	  70, -1
  85,	  69,	  86, -1
  69,	  83,	  86, -1
  69,	  85,	  72, -1
  85,	  71,	  72, -1
  87,	  71,	  88, -1
  71,	  85,	  88, -1
  71,	  87,	  75, -1
  74,	  81,	  73, -1
  87,	  74,	  75, -1
  81,	  74,	  89, -1
  74,	  90,	  89, -1
  90,	  74,	  91, -1
  74,	  87,	  91, -1
  92,	  76,	  78, -1
  76,	  92,	  84, -1
  77,	  92,	  78, -1
  93,	  77,	  80, -1
  92,	  77,	  94, -1
  77,	  93,	  94, -1
  79,	  93,	  80, -1
  95,	  79,	  82, -1
  93,	  79,	  96, -1
  79,	  95,	  96, -1
  81,	  95,	  82, -1
  97,	  81,	  89, -1
  95,	  81,	  98, -1
  81,	  97,	  98, -1
  92,	  83,	  84, -1
  99,	  83,	 100, -1
  83,	  92,	 100, -1
  83,	  99,	  86, -1
  99,	  85,	  86, -1
 101,	  85,	 102, -1
  85,	  99,	 102, -1
  85,	 101,	  88, -1
 101,	  87,	  88, -1
 103,	  87,	 104, -1
  87,	 101,	 104, -1
  87,	 103,	  91, -1
  90,	  97,	  89, -1
 103,	  90,	  91, -1
  97,	  90,	 105, -1
  90,	 106,	 105, -1
 106,	  90,	 107, -1
  90,	 103,	 107, -1
 108,	  92,	  94, -1
  92,	 108,	 100, -1
  93,	 108,	  94, -1
 109,	  93,	  96, -1
 108,	  93,	 110, -1
  93,	 109,	 110, -1
  95,	 109,	  96, -1
 111,	  95,	  98, -1
 109,	  95,	 112, -1
  95,	 111,	 112, -1
  97,	 111,	  98, -1
 113,	  97,	 105, -1
 111,	  97,	 114, -1
  97,	 113,	 114, -1
 108,	  99,	 100, -1
 115,	  99,	 116, -1
  99,	 108,	 116, -1
  99,	 115,	 102, -1
 115,	 101,	 102, -1
 117,	 101,	 118, -1
 101,	 115,	 118, -1
 101,	 117,	 104, -1
 117,	 103,	 104, -1
 119,	 103,	 120, -1
 103,	 117,	 120, -1
 103,	 119,	 107, -1
 106,	 113,	 105, -1
 119,	 106,	 107, -1
 113,	 106,	 121, -1
 106,	 122,	 121, -1
 122,	 106,	 123, -1
 106,	 119,	 123, -1
 124,	 108,	 110, -1
 108,	 124,	 116, -1
 109,	 124,	 110, -1
 125,	 109,	 112, -1
 124,	 109,	 126, -1
 109,	 125,	 126, -1
 111,	 125,	 112, -1
 127,	 111,	 114, -1
 125,	 111,	 128, -1
 111,	 127,	 128, -1
 113,	 127,	 114, -1
 129,	 113,	 121, -1
 127,	 113,	 130, -1
 113,	 129,	 130, -1
 124,	 115,	 116, -1
 131,	 115,	 132, -1
 115,	 124,	 132, -1
 115,	 131,	 118, -1
 131,	 117,	 118, -1
 133,	 117,	 134, -1
 117,	 131,	 134, -1
 117,	 133,	 120, -1
 133,	 119,	 120, -1
 135,	 119,	 136, -1
 119,	 133,	 136, -1
 119,	 135,	 123, -1
 122,	 129,	 121, -1
 135,	 122,	 123, -1
 129,	 122,	 137, -1
 122,	 138,	 137, -1
 138,	 122,	 139, -1
 122,	 135,	 139, -1
 140,	 124,	 126, -1
 124,	 140,	 132, -1
 125,	 140,	 126, -1
 141,	 125,	 128, -1
 140,	 125,	 142, -1
 125,	 141,	 142, -1
 127,	 141,	 128, -1
 143,	 127,	 130, -1
 141,	 127,	 144, -1
 127,	 143,	 144, -1
 129,	 143,	 130, -1
 145,	 129,	 137, -1
 143,	 129,	 146, -1
 129,	 145,	 146, -1
 140,	 131,	 132, -1
 147,	 131,	 148, -1
 131,	 140,	 148, -1
 131,	 147,	 134, -1
 147,	 133,	 134, -1
 149,	 133,	 150, -1
 133,	 147,	 150, -1
 133,	 149,	 136, -1
 149,	 135,	 136, -1
 151,	 135,	 152, -1
 135,	 149,	 152, -1
 135,	 151,	 139, -1
 138,	 145,	 137, -1
 151,	 138,	 139, -1
 145,	 138,	 153, -1
 138,	 154,	 153, -1
 154,	 138,	 155, -1
 138,	 151,	 155, -1
 156,	 140,	 142, -1
 140,	 156,	 148, -1
 141,	 156,	 142, -1
 157,	 141,	 144, -1
 156,	 141,	 158, -1
 141,	 157,	 158, -1
 143,	 157,	 144, -1
 159,	 143,	 146, -1
 157,	 143,	 160, -1
 143,	 159,	 160, -1
 145,	 159,	 146, -1
 161,	 145,	 153, -1
 159,	 145,	 162, -1
 145,	 161,	 162, -1
 156,	 147,	 148, -1
 163,	 147,	 164, -1
 147,	 156,	 164, -1
 147,	 163,	 150, -1
 163,	 149,	 150, -1
 165,	 149,	 166, -1
 149,	 163,	 166, -1
 149,	 165,	 152, -1
 165,	 151,	 152, -1
 167,	 151,	 168, -1
 151,	 165,	 168, -1
 151,	 167,	 155, -1
 154,	 161,	 153, -1
 167,	 154,	 155, -1
 161,	 154,	 169, -1
 154,	 170,	 169, -1
 170,	 154,	 171, -1
 154,	 167,	 171, -1
 172,	 156,	 158, -1
 156,	 172,	 164, -1
 157,	 172,	 158, -1
 173,	 157,	 160, -1
 172,	 157,	 174, -1
 157,	 173,	 174, -1
 159,	 173,	 160, -1
 175,	 159,	 162, -1
 173,	 159,	 176, -1
 159,	 175,	 176, -1
 161,	 175,	 162, -1
 177,	 161,	 169, -1
 175,	 161,	 178, -1
 161,	 177,	 178, -1
 172,	 163,	 164, -1
 179,	 163,	 180, -1
 163,	 172,	 180, -1
 163,	 179,	 166, -1
 179,	 165,	 166, -1
 181,	 165,	 182, -1
 165,	 179,	 182, -1
 165,	 181,	 168, -1
 181,	 167,	 168, -1
 183,	 167,	 184, -1
 167,	 181,	 184, -1
 167,	 183,	 171, -1
 170,	 177,	 169, -1
 183,	 170,	 171, -1
 185,	 177,	 170, -1
 185,	 170,	 183, -1
 186,	 172,	 174, -1
 172,	 186,	 180, -1
 173,	 186,	 174, -1
 187,	 173,	 176, -1
 186,	 173,	 188, -1
 173,	 187,	 188, -1
 175,	 187,	 176, -1
 189,	 175,	 178, -1
 187,	 175,	 190, -1
 175,	 189,	 190, -1
 177,	 189,	 178, -1
 185,	 189,	 177, -1
 186,	 179,	 180, -1
 191,	 179,	 192, -1
 179,	 186,	 192, -1
 179,	 191,	 182, -1
 191,	 181,	 182, -1
 193,	 181,	 194, -1
 181,	 191,	 194, -1
 181,	 193,	 184, -1
 193,	 183,	 184, -1
 185,	 183,	 193, -1
 185,	 193,	 195, -1
 185,	 195,	 196, -1
 185,	 196,	 197, -1
 185,	 197,	 189, -1
 198,	 186,	 188, -1
 186,	 198,	 192, -1
 187,	 198,	 188, -1
 197,	 187,	 190, -1
 198,	 187,	 199, -1
 187,	 197,	 199, -1
 189,	 197,	 190, -1
 198,	 191,	 192, -1
 195,	 191,	 200, -1
 191,	 198,	 200, -1
 191,	 195,	 194, -1
 195,	 193,	 194, -1
 196,	 195,	 200, -1
 197,	 196,	 199, -1
 196,	 198,	 199, -1
 198,	 196,	 200, -1
]
normalPerVertex TRUE
}
}
]
}
