# 
# Wavefront OBJ file
# Converted by the DEEP Exploration 2.00.1211
# Right Hemisphere, LTD
# http://www.righthemisphere.com/
# 
mtllib metacarpal5_r.mtl
# object Object #0
g Object__0
v -0.00163 -0.057366 -0.028045
v -0.005349 -0.060223 -0.028047
v -0.001435 -0.062927 -0.031164
v -0.001741 -0.06218 -0.029072
v -0.001574 -0.052642 -0.026737
v 0.004091 -0.059231 -0.02736
v 0.004647 -0.054098 -0.026407
v -0.005249 -0.055447 -0.026452
v -0.003222 -0.057506 -0.035243
v -0.001413 -0.062006 -0.033438
v 0.000405 -0.061871 -0.03296
v 0.001782 -0.062143 -0.031153
v -0.002264 -0.047774 -0.026365
v 0.002678 -0.049118 -0.02725
v 0.004901 -0.059684 -0.029756
v 0.005423 -0.054744 -0.029768
v 0.003437 -0.049639 -0.02909
v -0.004541 -0.052606 -0.035608
v -0.005826 -0.050229 -0.027024
v -0.000246 -0.056855 -0.036874
v -0.001196 -0.061573 -0.034935
v 0.001486 -0.062468 -0.032189
v 0.002192 -0.061021 -0.035702
v 0.002487 -0.060046 -0.036795
v -0.00299 -0.042861 -0.026114
v 0.000575 -0.044138 -0.027301
v 0.001935 -0.044762 -0.028519
v 0.005963 -0.057466 -0.03501
v 0.006714 -0.052932 -0.033944
v 0.003725 -0.048749 -0.032246
v 0.001268 -0.044303 -0.032118
v -0.004955 -0.047687 -0.034459
v 0.000133 -0.051807 -0.036873
v -0.006063 -0.044985 -0.027065
v 0.005722 -0.056142 -0.038135
v -0.003198 -0.037983 -0.02543
v -0.000395 -0.038988 -0.026346
v 0.001256 -0.039606 -0.028587
v 0.00051 -0.039346 -0.031685
v 0.005484 -0.051198 -0.03689
v 0.001543 -0.048878 -0.034438
v 0.000171 -0.043729 -0.033278
v -0.000588 -0.03842 -0.032685
v -0.001163 -0.046938 -0.035692
v -0.005232 -0.042815 -0.032856
v -0.006485 -0.039744 -0.027049
v -0.002893 -0.033124 -0.024691
v -0.00012 -0.033699 -0.025914
v 0.001003 -0.03442 -0.028145
v 0.000484 -0.034197 -0.030879
v -0.00115 -0.033399 -0.032098
v -0.002964 -0.042228 -0.034714
v -0.004496 -0.037643 -0.033027
v -0.005086 -0.032868 -0.031313
v -0.005796 -0.037957 -0.031469
v -0.006423 -0.034549 -0.02654
v -0.002313 -0.028283 -0.023961
v 0.000548 -0.0285 -0.025022
v 0.001072 -0.029377 -0.026842
v 0.000402 -0.029136 -0.02973
v -0.001166 -0.028284 -0.031214
v -0.004919 -0.027887 -0.030053
v -0.006134 -0.033035 -0.030294
v -0.006045 -0.028062 -0.029228
v -0.005817 -0.029417 -0.02557
v -0.001896 -0.023486 -0.022936
v 0.000779 -0.023556 -0.023109
v 0.001712 -0.024422 -0.025394
v 0.000661 -0.024216 -0.028562
v -0.000575 -0.023154 -0.030169
v -0.004406 -0.022883 -0.029096
v -0.005637 -0.023115 -0.028132
v -0.005094 -0.02434 -0.024503
v -0.001631 -0.018765 -0.021543
v 0.000391 -0.018698 -0.021093
v 0.00255 -0.019366 -0.024416
v 0.001645 -0.019279 -0.027621
v 0.000402 -0.018112 -0.028886
v -0.003856 -0.017872 -0.028203
v -0.005211 -0.018199 -0.026923
v -0.004444 -0.019269 -0.023341
v -0.001277 -0.014148 -0.019853
v 0.000563 -0.013208 -0.019868
v 0.003584 -0.014378 -0.023383
v 0.002403 -0.014226 -0.026811
v 0.000589 -0.012909 -0.027941
v -0.00347 -0.012809 -0.027546
v -0.005047 -0.013297 -0.025595
v -0.004304 -0.014161 -0.022279
v -0.001136 -0.009313 -0.018759
v 0.003943 -0.009994 -0.019103
v 0.004991 -0.009824 -0.021068
v 0.00376 -0.009292 -0.025381
v 0.000759 -0.00781 -0.027655
v -0.003091 -0.007763 -0.026957
v -0.004513 -0.008329 -0.024593
v -0.005176 -0.008987 -0.021379
v 0.000221 -0.005989 -0.017748
v 0.004855 -0.006651 -0.018628
v 0.006212 -0.005601 -0.019272
v 0.004244 -0.005241 -0.025708
v 0.001673 -0.004167 -0.026807
v -0.002932 -0.003437 -0.02641
v -0.004459 -0.003562 -0.023761
v -0.004713 -0.005062 -0.019003
v 0.000613 -0.005249 -0.022099
# 106 verticies
vn -0.189104 -0.269488 0.944254
vn -0.504328 -0.661667 0.554842
vn -0.174842 -0.976326 0.127353
vn -0.080323 -0.866266 0.493084
vn 0.113222 -0.133945 0.9845
vn 0.501806 -0.487383 0.714597
vn 0.567941 0.073284 0.8198
vn -0.746687 -0.157765 0.646196
vn -0.808392 -0.283551 -0.51585
vn -0.468614 -0.804927 -0.363997
vn -0.05507 -0.978036 -0.201032
vn 0.157263 -0.950732 0.267165
vn 0.073288 -0.001395 0.99731
vn 0.553667 0.222399 0.802491
vn 0.83637 -0.533814 0.124611
vn 0.953053 0.126653 0.275045
vn 0.921301 0.353048 0.162978
vn -0.773522 -0.081 -0.628572
vn -0.818746 -0.048575 0.572097
vn -0.310904 -0.152742 -0.938088
vn -0.303972 -0.710343 -0.634833
vn 0.14177 -0.989474 -0.02902
vn 0.367562 -0.830332 -0.418863
vn -0.085097 -0.617055 -0.782305
vn 0.039643 -0.08117 0.995912
vn 0.526886 0.073414 0.84676
vn 0.950923 0.227913 0.209288
vn 0.924578 -0.33522 -0.18106
vn 0.95659 0.291396 0.004851
vn 0.855628 0.486903 -0.175574
vn 0.892797 0.304999 -0.331495
vn -0.773951 0.098847 -0.625483
vn -0.194047 0.141679 -0.970707
vn -0.850042 -0.070117 0.522027
vn 0.433667 -0.272045 -0.859025
vn -0.017187 -0.119112 0.992732
vn 0.590146 -0.069847 0.804269
vn 0.969773 0.067134 0.23459
vn 0.873085 0.135833 -0.468264
vn 0.710607 0.496443 -0.49858
vn 0.647484 0.608939 -0.458212
vn 0.581398 0.317629 -0.749058
vn 0.422971 0.197432 -0.884373
vn -0.03932 0.388911 -0.920436
vn -0.842083 0.034766 -0.538226
vn -0.881732 -0.073399 0.466006
vn -0.036422 -0.149205 0.988135
vn 0.660989 -0.153962 0.734432
vn 0.984969 -0.012013 0.172311
vn 0.865354 0.102308 -0.490607
vn 0.259468 0.172463 -0.950228
vn -0.083507 0.258589 -0.962371
vn -0.290809 0.234429 -0.927617
vn -0.390171 0.219273 -0.894252
vn -0.903953 0.023253 -0.426998
vn -0.865149 -0.039171 0.499982
vn -0.087438 -0.198955 0.9761
vn 0.668202 -0.244686 0.702591
vn 0.992697 -0.09275 0.07714
vn 0.892843 0.072878 -0.444432
vn 0.24299 0.182403 -0.952725
vn -0.431048 0.215062 -0.876325
vn -0.924159 0.089766 -0.371312
vn -0.921504 0.144692 -0.360409
vn -0.820068 -0.035541 0.571162
vn -0.211905 -0.238528 0.947734
vn 0.549788 -0.288847 0.783773
vn 0.984297 -0.165882 0.060357
vn 0.883713 -0.011589 -0.467885
vn 0.329598 0.165633 -0.929479
vn -0.465597 0.21714 -0.857945
vn -0.929856 0.160301 -0.331167
vn -0.808208 -0.048141 0.586927
vn -0.274802 -0.251736 0.927962
vn 0.37322 -0.281638 0.883961
vn 0.974569 -0.184839 0.126687
vn 0.846538 -0.034292 -0.531223
vn 0.356047 0.127992 -0.925661
vn -0.478814 0.202431 -0.854259
vn -0.950955 0.12199 -0.284258
vn -0.82833 -0.079686 0.554545
vn -0.22803 -0.289505 0.929618
vn 0.394772 -0.448143 0.802074
vn 0.945358 -0.269598 0.183343
vn 0.801364 -0.044428 -0.596525
vn 0.270218 0.097222 -0.957878
vn -0.506798 0.165511 -0.846027
vn -0.948653 0.086307 -0.304316
vn -0.840286 -0.136675 0.524633
vn -0.265231 -0.200872 0.943029
vn 0.437929 -0.416758 0.796574
vn 0.916341 -0.391048 0.08603
vn 0.788503 -0.084815 -0.609155
vn 0.24876 0.098042 -0.96359
vn -0.561887 0.115801 -0.819069
vn -0.933131 0.134972 -0.333241
vn -0.874294 -0.117171 0.471042
vn -0.127328 0.347248 0.929089
vn 0.17702 0.256462 0.950206
vn 0.761315 0.328335 0.559103
vn 0.796387 0.475251 -0.374037
vn 0.416913 0.621749 -0.663032
vn -0.208915 0.747391 -0.630683
vn -0.723921 0.667731 -0.173417
vn -0.691821 0.600638 0.400771
vn 0.126955 0.956066 0.264235
# 106 normals
usemtl Material__1
f  1//1 2//2 3//3
f  1//1 3//3 4//4
f  5//5 2//2 1//1
f  6//6 1//1 4//4
f  7//7 5//5 1//1
f  7//7 1//1 6//6
f  5//5 8//8 2//2
f  2//2 9//9 10//10
f  2//2 10//10 3//3
f  8//8 9//9 2//2
f  3//3 10//10 11//11
f  4//4 3//3 11//11
f  6//6 4//4 12//12
f  12//12 4//4 11//11
f  13//13 8//8 5//5
f  14//14 13//13 5//5
f  14//14 5//5 7//7
f  15//15 6//6 12//12
f  16//16 7//7 6//6
f  16//16 6//6 15//15
f  17//17 14//14 7//7
f  17//17 7//7 16//16
f  8//8 18//18 9//9
f  13//13 19//19 8//8
f  19//19 18//18 8//8
f  9//9 20//20 21//21
f  9//9 21//21 10//10
f  18//18 20//20 9//9
f  10//10 21//21 11//11
f  22//22 12//12 11//11
f  23//23 22//22 11//11
f  24//24 23//23 11//11
f  21//21 24//24 11//11
f  15//15 12//12 22//22
f  25//25 19//19 13//13
f  26//26 25//25 13//13
f  26//26 13//13 14//14
f  27//27 26//26 14//14
f  27//27 14//14 17//17
f  28//28 15//15 23//23
f  29//29 16//16 15//15
f  29//29 15//15 28//28
f  22//22 23//23 15//15
f  30//30 17//17 16//16
f  30//30 16//16 29//29
f  31//31 27//27 17//17
f  31//31 17//17 30//30
f  19//19 32//32 18//18
f  18//18 33//33 20//20
f  32//32 33//33 18//18
f  25//25 34//34 19//19
f  34//34 32//32 19//19
f  20//20 35//35 24//24
f  20//20 24//24 21//21
f  33//33 35//35 20//20
f  35//35 28//28 23//23
f  35//35 23//23 24//24
f  36//36 34//34 25//25
f  37//37 36//36 25//25
f  37//37 25//25 26//26
f  38//38 37//37 26//26
f  38//38 26//26 27//27
f  39//39 38//38 27//27
f  39//39 27//27 31//31
f  40//40 29//29 28//28
f  40//40 28//28 35//35
f  41//41 30//30 29//29
f  41//41 29//29 40//40
f  42//42 31//31 30//30
f  42//42 30//30 41//41
f  43//43 39//39 31//31
f  43//43 31//31 42//42
f  32//32 44//44 33//33
f  34//34 45//45 32//32
f  45//45 44//44 32//32
f  33//33 40//40 35//35
f  44//44 40//40 33//33
f  36//36 46//46 34//34
f  46//46 45//45 34//34
f  47//47 46//46 36//36
f  48//48 47//47 36//36
f  48//48 36//36 37//37
f  49//49 48//48 37//37
f  49//49 37//37 38//38
f  50//50 49//49 38//38
f  50//50 38//38 39//39
f  51//51 50//50 39//39
f  51//51 39//39 43//43
f  44//44 41//41 40//40
f  52//52 42//42 41//41
f  52//52 41//41 44//44
f  53//53 43//43 42//42
f  53//53 42//42 52//52
f  54//54 51//51 43//43
f  54//54 43//43 53//53
f  45//45 52//52 44//44
f  46//46 55//55 45//45
f  55//55 52//52 45//45
f  47//47 56//56 46//46
f  56//56 55//55 46//46
f  57//57 56//56 47//47
f  58//58 57//57 47//47
f  58//58 47//47 48//48
f  59//59 58//58 48//48
f  59//59 48//48 49//49
f  60//60 59//59 49//49
f  60//60 49//49 50//50
f  61//61 60//60 50//50
f  61//61 50//50 51//51
f  62//62 61//61 51//51
f  62//62 51//51 54//54
f  55//55 53//53 52//52
f  63//63 54//54 53//53
f  63//63 53//53 55//55
f  64//64 62//62 54//54
f  64//64 54//54 63//63
f  56//56 63//63 55//55
f  57//57 65//65 56//56
f  65//65 63//63 56//56
f  66//66 65//65 57//57
f  67//67 66//66 57//57
f  67//67 57//57 58//58
f  68//68 67//67 58//58
f  68//68 58//58 59//59
f  69//69 68//68 59//59
f  69//69 59//59 60//60
f  70//70 69//69 60//60
f  70//70 60//60 61//61
f  71//71 70//70 61//61
f  71//71 61//61 62//62
f  72//72 71//71 62//62
f  72//72 62//62 64//64
f  65//65 64//64 63//63
f  73//73 72//72 64//64
f  73//73 64//64 65//65
f  66//66 73//73 65//65
f  74//74 73//73 66//66
f  75//75 74//74 66//66
f  75//75 66//66 67//67
f  76//76 75//75 67//67
f  76//76 67//67 68//68
f  77//77 76//76 68//68
f  77//77 68//68 69//69
f  78//78 77//77 69//69
f  78//78 69//69 70//70
f  79//79 78//78 70//70
f  79//79 70//70 71//71
f  80//80 79//79 71//71
f  80//80 71//71 72//72
f  81//81 80//80 72//72
f  81//81 72//72 73//73
f  74//74 81//81 73//73
f  82//82 81//81 74//74
f  83//83 82//82 74//74
f  83//83 74//74 75//75
f  84//84 83//83 75//75
f  84//84 75//75 76//76
f  85//85 84//84 76//76
f  85//85 76//76 77//77
f  86//86 85//85 77//77
f  86//86 77//77 78//78
f  87//87 86//86 78//78
f  87//87 78//78 79//79
f  88//88 87//87 79//79
f  88//88 79//79 80//80
f  89//89 88//88 80//80
f  89//89 80//80 81//81
f  82//82 89//89 81//81
f  90//90 89//89 82//82
f  91//91 90//90 82//82
f  91//91 82//82 83//83
f  92//92 91//91 83//83
f  92//92 83//83 84//84
f  93//93 92//92 84//84
f  93//93 84//84 85//85
f  94//94 93//93 85//85
f  94//94 85//85 86//86
f  95//95 94//94 86//86
f  95//95 86//86 87//87
f  96//96 95//95 87//87
f  96//96 87//87 88//88
f  97//97 96//96 88//88
f  97//97 88//88 89//89
f  90//90 97//97 89//89
f  98//98 97//97 90//90
f  99//99 98//98 90//90
f  99//99 90//90 91//91
f  100//100 99//99 91//91
f  100//100 91//91 92//92
f  101//101 100//100 92//92
f  101//101 92//92 93//93
f  102//102 101//101 93//93
f  102//102 93//93 94//94
f  103//103 102//102 94//94
f  103//103 94//94 95//95
f  104//104 103//103 95//95
f  104//104 95//95 96//96
f  105//105 104//104 96//96
f  105//105 96//96 97//97
f  98//98 105//105 97//97
f  106//106 105//105 98//98
f  106//106 98//98 99//99
f  106//106 99//99 100//100
f  106//106 100//100 101//101
f  106//106 101//101 102//102
f  106//106 102//102 103//103
f  106//106 103//103 104//104
f  106//106 104//104 105//105
