# 
# Wavefront OBJ file
# Converted by the DEEP Exploration 2.00.1211
# Right Hemisphere, LTD
# http://www.righthemisphere.com/
# 
mtllib middle3_l.mtl
# object Object #0
g Object__0
v 0.000954 -0.001996 0.005253
v 0.002758 -0.002192 0.000734
v -0.000195 -0.004983 -0.003876
v -0.003712 -0.003004 0.00104
v 0.002695 -0.005674 0.001366
v 0.000887 -0.005963 0.005477
v -0.000281 -0.007649 -0.002718
v -0.003508 -0.006627 0.002059
v -0.00067 -0.010499 -0.002018
v 0.00173 -0.00905 0.001219
v -8.7e-005 -0.009515 0.00401
v -0.002611 -0.010138 0.001917
v -0.000654 -0.013078 -0.00117
v -0.002481 -0.013849 0.001737
v 0.001579 -0.012596 0.001329
v -0.000332 -0.01342 0.003605
v 0.000449 -0.015775 -0.001573
v -0.00222 -0.01757 0.001603
v 0.000196 -0.017726 0.003636
v 0.001544 -0.016043 0.000844
v 0.001279 -0.018483 -0.001731
v -0.000935 -0.020815 0.000968
v 0.000983 -0.021571 0.002883
v 0.002368 -0.01939 0.000637
v 0.001971 -0.021213 -0.001789
v 0.000943 -0.023267 -0.000442
v 0.001418 -0.022737 0.000178
# 27 verticies
vn 0.345662 0.837671 0.422877
vn 0.90595 0.241303 -0.347889
vn -0.446605 0.457126 -0.769143
vn -0.865197 0.416251 0.279586
vn 0.986025 -0.146671 -0.079005
vn 0.196141 -0.164812 0.966626
vn -0.005978 -0.303559 -0.952794
vn -0.970003 -0.169507 0.174248
vn -0.035746 -0.259946 -0.964961
vn 0.972349 -0.223183 -0.068749
vn 0.144858 -0.225771 0.96335
vn -0.975228 -0.102377 0.196085
vn -0.031558 -0.073136 -0.996823
vn -0.981949 -0.097189 0.162268
vn 0.999523 0.028848 0.011014
vn 0.123745 -0.067074 0.990045
vn 0.099743 0.058441 -0.993296
vn -0.966952 -0.252939 0.032017
vn 0.158464 -0.019294 0.987176
vn 0.984327 0.146888 0.097592
vn 0.203299 0.097558 -0.974244
vn -0.842928 -0.523528 -0.12406
vn -0.059679 -0.578861 0.81324
vn 0.990052 0.02591 0.138298
vn 0.825667 -0.293247 -0.481955
vn -0.4275 -0.773196 -0.468414
vn 0.561513 -0.754668 0.339381
# 27 normals
usemtl Material__1
f  1//1 2//2 3//3
f  4//4 1//1 3//3
f  5//5 2//2 1//1
f  6//6 5//5 1//1
f  6//6 1//1 4//4
f  7//7 3//3 2//2
f  5//5 7//7 2//2
f  8//8 4//4 3//3
f  7//7 8//8 3//3
f  8//8 6//6 4//4
f  9//9 7//7 5//5
f  10//10 9//9 5//5
f  10//10 5//5 6//6
f  11//11 6//6 8//8
f  11//11 10//10 6//6
f  12//12 8//8 7//7
f  9//9 12//12 7//7
f  12//12 11//11 8//8
f  13//13 9//9 10//10
f  14//14 12//12 9//9
f  13//13 14//14 9//9
f  15//15 10//10 11//11
f  15//15 13//13 10//10
f  16//16 11//11 12//12
f  16//16 15//15 11//11
f  14//14 16//16 12//12
f  17//17 13//13 15//15
f  18//18 14//14 13//13
f  17//17 18//18 13//13
f  19//19 16//16 14//14
f  18//18 19//19 14//14
f  20//20 15//15 16//16
f  20//20 17//17 15//15
f  19//19 20//20 16//16
f  21//21 17//17 20//20
f  22//22 18//18 17//17
f  21//21 22//22 17//17
f  23//23 19//19 18//18
f  22//22 23//23 18//18
f  24//24 20//20 19//19
f  23//23 24//24 19//19
f  24//24 21//21 20//20
f  25//25 21//21 24//24
f  26//26 22//22 21//21
f  25//25 26//26 21//21
f  27//27 23//23 22//22
f  26//26 27//27 22//22
f  27//27 24//24 23//23
f  27//27 25//25 24//24
f  26//26 25//25 27//27
