#VRML V2.0 utf8
Transform {
children [
Shape {
appearance Appearance {
              material DEF surface Material {
              diffuseColor 0.8 0.8 0.8
              ambientIntensity 0.2
              specularColor 0.4 0.4 0.4
              emissiveColor 0 0 0
              shininess 0.25
              transparency 0
            }
          }
geometry IndexedFaceSet {
solid FALSE
coord DEF bone Coordinate {
point [
 -0.000195	 -0.004983	  0.003876,
  0.002758	 -0.002192	 -0.000734,
  0.000954	 -0.001996	 -0.005253,
 -0.003712	 -0.003004	 -0.001040,
 -0.000281	 -0.007649	  0.002718,
 -0.003508	 -0.006627	 -0.002059,
  0.002695	 -0.005674	 -0.001366,
  0.000887	 -0.005963	 -0.005477,
 -0.000670	 -0.010499	  0.002018,
 -0.002611	 -0.010138	 -0.001917,
 -0.000087	 -0.009515	 -0.004010,
  0.001730	 -0.009050	 -0.001219,
 -0.000654	 -0.013078	  0.001170,
 -0.002481	 -0.013849	 -0.001737,
 -0.000332	 -0.013420	 -0.003605,
  0.001579	 -0.012596	 -0.001329,
  0.000449	 -0.015775	  0.001573,
 -0.002220	 -0.017570	 -0.001603,
  0.000196	 -0.017726	 -0.003636,
  0.001544	 -0.016043	 -0.000844,
  0.001279	 -0.018483	  0.001731,
 -0.000935	 -0.020815	 -0.000968,
  0.000983	 -0.021571	 -0.002883,
  0.002368	 -0.019390	 -0.000637,
  0.001971	 -0.021213	  0.001789,
  0.000943	 -0.023267	  0.000442,
  0.001418	 -0.022737	 -0.000178,
]
}
coordIndex [
   0,	   1,	   2, -1
   0,	   2,	   3, -1
   1,	   0,	   4, -1
   0,	   3,	   5, -1
   0,	   5,	   4, -1
   1,	   4,	   6, -1
   2,	   1,	   6, -1
   2,	   6,	   7, -1
   3,	   2,	   7, -1
   3,	   7,	   5, -1
   6,	   4,	   8, -1
   4,	   5,	   9, -1
   4,	   9,	   8, -1
   5,	   7,	  10, -1
   5,	  10,	   9, -1
   6,	   8,	  11, -1
   7,	   6,	  11, -1
   7,	  11,	  10, -1
  11,	   8,	  12, -1
   8,	   9,	  13, -1
   8,	  13,	  12, -1
   9,	  10,	  14, -1
   9,	  14,	  13, -1
  10,	  11,	  15, -1
  10,	  15,	  14, -1
  11,	  12,	  15, -1
  15,	  12,	  16, -1
  12,	  13,	  17, -1
  12,	  17,	  16, -1
  13,	  14,	  18, -1
  13,	  18,	  17, -1
  14,	  15,	  19, -1
  14,	  19,	  18, -1
  15,	  16,	  19, -1
  19,	  16,	  20, -1
  16,	  17,	  21, -1
  16,	  21,	  20, -1
  17,	  18,	  22, -1
  17,	  22,	  21, -1
  18,	  19,	  23, -1
  18,	  23,	  22, -1
  19,	  20,	  23, -1
  23,	  20,	  24, -1
  20,	  21,	  25, -1
  20,	  25,	  24, -1
  21,	  22,	  26, -1
  21,	  26,	  25, -1
  22,	  23,	  26, -1
  23,	  24,	  26, -1
  26,	  24,	  25, -1
]
colorPerVertex FALSE
colorIndex [
1,
1,
1,
1,
1,
1,
1,
1,
1,
1,
1,
1,
1,
1,
1,
1,
1,
1,
1,
1,
1,
1,
1,
1,
1,
1,
1,
]
normal Normal {
vector [
 -0.446605	  0.457126	  0.769143,
  0.905951	  0.241303	  0.347889,
  0.345662	  0.837671	 -0.422877,
 -0.865197	  0.416251	 -0.279586,
 -0.005978	 -0.303559	  0.952794,
 -0.970003	 -0.169507	 -0.174248,
  0.986025	 -0.146671	  0.079005,
  0.196141	 -0.164812	 -0.966626,
 -0.035746	 -0.259946	  0.964961,
 -0.975228	 -0.102377	 -0.196085,
  0.144858	 -0.225771	 -0.963350,
  0.972349	 -0.223183	  0.068749,
 -0.031558	 -0.073136	  0.996823,
 -0.981949	 -0.097189	 -0.162268,
  0.123745	 -0.067074	 -0.990044,
  0.999523	  0.028848	 -0.011014,
  0.099743	  0.058441	  0.993296,
 -0.966952	 -0.252939	 -0.032017,
  0.158464	 -0.019294	 -0.987176,
  0.984327	  0.146888	 -0.097592,
  0.203299	  0.097558	  0.974244,
 -0.842928	 -0.523528	  0.124060,
 -0.059679	 -0.578861	 -0.813240,
  0.990052	  0.025910	 -0.138298,
  0.825667	 -0.293247	  0.481955,
 -0.427500	 -0.773196	  0.468414,
  0.561513	 -0.754668	 -0.339381,
]
}
normalIndex [
   0,	   1,	   2, -1
   0,	   2,	   3, -1
   1,	   0,	   4, -1
   0,	   3,	   5, -1
   0,	   5,	   4, -1
   1,	   4,	   6, -1
   2,	   1,	   6, -1
   2,	   6,	   7, -1
   3,	   2,	   7, -1
   3,	   7,	   5, -1
   6,	   4,	   8, -1
   4,	   5,	   9, -1
   4,	   9,	   8, -1
   5,	   7,	  10, -1
   5,	  10,	   9, -1
   6,	   8,	  11, -1
   7,	   6,	  11, -1
   7,	  11,	  10, -1
  11,	   8,	  12, -1
   8,	   9,	  13, -1
   8,	  13,	  12, -1
   9,	  10,	  14, -1
   9,	  14,	  13, -1
  10,	  11,	  15, -1
  10,	  15,	  14, -1
  11,	  12,	  15, -1
  15,	  12,	  16, -1
  12,	  13,	  17, -1
  12,	  17,	  16, -1
  13,	  14,	  18, -1
  13,	  18,	  17, -1
  14,	  15,	  19, -1
  14,	  19,	  18, -1
  15,	  16,	  19, -1
  19,	  16,	  20, -1
  16,	  17,	  21, -1
  16,	  21,	  20, -1
  17,	  18,	  22, -1
  17,	  22,	  21, -1
  18,	  19,	  23, -1
  18,	  23,	  22, -1
  19,	  20,	  23, -1
  23,	  20,	  24, -1
  20,	  21,	  25, -1
  20,	  25,	  24, -1
  21,	  22,	  26, -1
  21,	  26,	  25, -1
  22,	  23,	  26, -1
  23,	  24,	  26, -1
  26,	  24,	  25, -1
]
normalPerVertex TRUE
}
}
]
}
