#VRML V2.0 utf8
Transform {
children [
Shape {
appearance Appearance {
              material DEF surface Material {
              diffuseColor 0.8 0.8 0.8
              ambientIntensity 0.2
              specularColor 0.4 0.4 0.4
              emissiveColor 0 0 0
              shininess 0.25
              transparency 0
            }
          }
geometry IndexedFaceSet {
solid FALSE
coord DEF bone Coordinate {
point [
  0.000813	 -0.051853	 -0.000530,
 -0.000767	 -0.045300	 -0.001317,
 -0.001170	 -0.046125	  0.001706,
  0.001460	 -0.051936	  0.000793,
 -0.000973	 -0.050118	 -0.003045,
 -0.003431	 -0.055387	 -0.003290,
 -0.003337	 -0.040356	  0.002003,
 -0.001505	 -0.038930	 -0.000989,
 -0.002795	 -0.044304	 -0.002632,
 -0.003769	 -0.043189	  0.002398,
 -0.004109	 -0.037262	  0.003388,
 -0.002792	 -0.049024	  0.001191,
 -0.003110	 -0.055304	 -0.000052,
 -0.000376	 -0.051637	 -0.008136,
 -0.003876	 -0.055279	 -0.005592,
 -0.004922	 -0.055475	 -0.001087,
 -0.002994	 -0.033534	  0.002807,
 -0.003700	 -0.031256	  0.004252,
 -0.002740	 -0.037903	 -0.002497,
 -0.002328	 -0.032458	  0.000091,
 -0.003103	 -0.045951	 -0.007618,
 -0.006249	 -0.043008	  0.001350,
 -0.006991	 -0.036944	  0.002000,
 -0.007076	 -0.030934	  0.003373,
 -0.005063	 -0.049038	  0.001043,
 -0.006834	 -0.049746	 -0.001358,
 -0.004873	 -0.049218	 -0.007278,
 -0.004638	 -0.055230	 -0.007052,
 -0.008064	 -0.053734	 -0.005422,
 -0.007111	 -0.048038	 -0.004756,
 -0.001936	 -0.026613	  0.003809,
 -0.003316	 -0.025261	  0.005223,
 -0.006516	 -0.024906	  0.004690,
 -0.002974	 -0.031596	 -0.002350,
 -0.004849	 -0.039713	 -0.006694,
 -0.001922	 -0.025880	  0.000572,
 -0.005281	 -0.043219	 -0.006851,
 -0.007391	 -0.043479	 -0.001273,
 -0.008509	 -0.037385	 -0.000895,
 -0.009069	 -0.031247	 -0.000189,
 -0.009124	 -0.025031	  0.000572,
 -0.007506	 -0.042302	 -0.004836,
 -0.000555	 -0.020133	  0.004712,
 -0.002557	 -0.019413	  0.006581,
 -0.005923	 -0.018884	  0.005925,
 -0.009235	 -0.018832	  0.001292,
 -0.004036	 -0.033007	 -0.006522,
 -0.002664	 -0.025303	 -0.002182,
 -0.005611	 -0.037229	 -0.006418,
 -0.000495	 -0.019475	  0.001721,
 -0.008325	 -0.036557	 -0.004791,
 -0.008811	 -0.030818	 -0.004199,
 -0.008802	 -0.025055	 -0.003608,
 -0.008821	 -0.019276	 -0.003054,
  0.002008	 -0.014060	  0.005116,
 -0.000899	 -0.013748	  0.007682,
 -0.006403	 -0.013007	  0.007698,
 -0.009164	 -0.012683	  0.002359,
 -0.009111	 -0.013520	 -0.002494,
 -0.003880	 -0.026375	 -0.006043,
 -0.006088	 -0.031192	 -0.005988,
 -0.001503	 -0.019017	 -0.001858,
  0.002758	 -0.013912	  0.002339,
 -0.006305	 -0.025157	 -0.005676,
 -0.005024	 -0.019311	 -0.006019,
 -0.004579	 -0.013410	 -0.006961,
  0.001525	 -0.007575	  0.006566,
 -0.005306	 -0.007059	  0.006954,
 -0.008052	 -0.006569	  0.001911,
 -0.008102	 -0.007820	 -0.002558,
 -0.003827	 -0.007549	 -0.006414,
 -0.002999	 -0.019693	 -0.005366,
  0.002181	 -0.014251	 -0.002217,
  0.003301	 -0.007726	  0.003526,
  0.000190	 -0.014094	 -0.006213,
  0.001123	 -0.007617	 -0.005711,
 -0.001798	 -0.008563	  0.001100,
  0.002461	 -0.007995	 -0.001640,
]
}
coordIndex [
   0,	   1,	   2, -1
   3,	   0,	   2, -1
   0,	   4,	   1, -1
   5,	   4,	   0, -1
   5,	   0,	   3, -1
   2,	   1,	   6, -1
   1,	   7,	   6, -1
   4,	   8,	   1, -1
   1,	   8,	   7, -1
   3,	   2,	   9, -1
   2,	   6,	  10, -1
   9,	   2,	  10, -1
  11,	   3,	   9, -1
   3,	  12,	   5, -1
   3,	  11,	  12, -1
   4,	  13,	   8, -1
  14,	  13,	   4, -1
   5,	  14,	   4, -1
  14,	   5,	  15, -1
  12,	  15,	   5, -1
   6,	   7,	  16, -1
   6,	  16,	  17, -1
  10,	   6,	  17, -1
   8,	  18,	   7, -1
   7,	  19,	  16, -1
   7,	  18,	  19, -1
  13,	  20,	   8, -1
   8,	  20,	  18, -1
  11,	   9,	  21, -1
   9,	  10,	  22, -1
  21,	   9,	  22, -1
  10,	  17,	  23, -1
  22,	  10,	  23, -1
  24,	  11,	  21, -1
  24,	  12,	  11, -1
  12,	  24,	  25, -1
  15,	  12,	  25, -1
  13,	  26,	  20, -1
  14,	  27,	  13, -1
  27,	  26,	  13, -1
  27,	  14,	  15, -1
  28,	  27,	  15, -1
  15,	  25,	  29, -1
  28,	  15,	  29, -1
  16,	  19,	  30, -1
  16,	  30,	  31, -1
  17,	  16,	  31, -1
  17,	  31,	  32, -1
  23,	  17,	  32, -1
  18,	  33,	  19, -1
  20,	  34,	  18, -1
  18,	  34,	  33, -1
  19,	  35,	  30, -1
  19,	  33,	  35, -1
  26,	  36,	  20, -1
  20,	  36,	  34, -1
  24,	  21,	  37, -1
  21,	  22,	  38, -1
  37,	  21,	  38, -1
  22,	  23,	  39, -1
  38,	  22,	  39, -1
  23,	  32,	  40, -1
  39,	  23,	  40, -1
  25,	  24,	  37, -1
  25,	  37,	  41, -1
  29,	  25,	  41, -1
  26,	  29,	  36, -1
  28,	  29,	  26, -1
  27,	  28,	  26, -1
  29,	  41,	  36, -1
  30,	  35,	  42, -1
  30,	  42,	  43, -1
  31,	  30,	  43, -1
  31,	  43,	  44, -1
  32,	  31,	  44, -1
  32,	  44,	  45, -1
  40,	  32,	  45, -1
  34,	  46,	  33, -1
  33,	  47,	  35, -1
  33,	  46,	  47, -1
  36,	  48,	  34, -1
  34,	  48,	  46, -1
  35,	  49,	  42, -1
  35,	  47,	  49, -1
  36,	  41,	  48, -1
  37,	  38,	  50, -1
  41,	  37,	  50, -1
  38,	  39,	  51, -1
  50,	  38,	  51, -1
  39,	  40,	  52, -1
  51,	  39,	  52, -1
  40,	  45,	  53, -1
  52,	  40,	  53, -1
  41,	  50,	  48, -1
  42,	  49,	  54, -1
  42,	  54,	  55, -1
  43,	  42,	  55, -1
  43,	  55,	  56, -1
  44,	  43,	  56, -1
  44,	  56,	  57, -1
  45,	  44,	  57, -1
  45,	  57,	  58, -1
  53,	  45,	  58, -1
  46,	  59,	  47, -1
  48,	  60,	  46, -1
  46,	  60,	  59, -1
  47,	  61,	  49, -1
  47,	  59,	  61, -1
  48,	  50,	  60, -1
  49,	  62,	  54, -1
  49,	  61,	  62, -1
  50,	  51,	  60, -1
  51,	  52,	  63, -1
  60,	  51,	  63, -1
  52,	  53,	  64, -1
  63,	  52,	  64, -1
  53,	  58,	  65, -1
  64,	  53,	  65, -1
  54,	  62,	  66, -1
  55,	  54,	  66, -1
  55,	  66,	  67, -1
  56,	  55,	  67, -1
  56,	  67,	  68, -1
  57,	  56,	  68, -1
  57,	  68,	  69, -1
  58,	  57,	  69, -1
  58,	  69,	  70, -1
  65,	  58,	  70, -1
  60,	  63,	  59, -1
  59,	  63,	  71, -1
  59,	  71,	  61, -1
  61,	  72,	  62, -1
  61,	  71,	  72, -1
  62,	  73,	  66, -1
  62,	  72,	  73, -1
  63,	  64,	  71, -1
  64,	  65,	  74, -1
  71,	  64,	  74, -1
  65,	  70,	  75, -1
  74,	  65,	  75, -1
  76,	  67,	  66, -1
  76,	  66,	  73, -1
  76,	  68,	  67, -1
  76,	  69,	  68, -1
  76,	  70,	  69, -1
  76,	  75,	  70, -1
  71,	  74,	  72, -1
  72,	  74,	  77, -1
  72,	  77,	  73, -1
  76,	  73,	  77, -1
  74,	  75,	  77, -1
  76,	  77,	  75, -1
]
colorPerVertex FALSE
colorIndex [
1,
1,
1,
1,
1,
1,
1,
1,
1,
1,
1,
1,
1,
1,
1,
1,
1,
1,
1,
1,
1,
1,
1,
1,
1,
1,
1,
1,
1,
1,
1,
1,
1,
1,
1,
1,
1,
1,
1,
1,
1,
1,
1,
1,
1,
1,
1,
1,
1,
1,
1,
1,
1,
1,
1,
1,
1,
1,
1,
1,
1,
1,
1,
1,
1,
1,
1,
1,
1,
1,
1,
1,
1,
1,
1,
1,
1,
1,
]
normal Normal {
vector [
  0.916814	 -0.005507	 -0.399276,
  0.947280	  0.230295	 -0.222765,
  0.881619	  0.260182	  0.393767,
  0.656832	 -0.416337	  0.628677,
  0.926786	 -0.111542	 -0.358644,
  0.571318	 -0.780038	 -0.255219,
  0.910611	  0.071635	  0.407009,
  0.987563	  0.072482	 -0.139518,
  0.874188	  0.198542	 -0.443144,
 -0.176426	 -0.174399	  0.968741,
  0.122232	 -0.109317	  0.986463,
 -0.123939	 -0.183360	  0.975202,
 -0.140954	 -0.602820	  0.785328,
  0.772128	 -0.178180	 -0.609976,
  0.512779	 -0.855082	 -0.076766,
 -0.497545	 -0.832073	  0.245159,
  0.860471	 -0.113283	  0.496746,
  0.308094	 -0.167687	  0.936461,
  0.900577	  0.099512	 -0.423152,
  0.994011	  0.006996	 -0.109060,
  0.458638	  0.200210	 -0.865775,
 -0.636553	 -0.182314	  0.749375,
 -0.677002	 -0.164110	  0.717451,
 -0.630340	 -0.131615	  0.765081,
 -0.559540	 -0.191000	  0.806495,
 -0.906444	 -0.185006	  0.379646,
 -0.442681	  0.025281	 -0.896323,
 -0.139341	 -0.762908	 -0.631313,
 -0.881591	 -0.261062	 -0.393247,
 -0.953332	 -0.037018	 -0.299647,
  0.869054	 -0.208500	  0.448635,
  0.251873	 -0.210109	  0.944677,
 -0.562605	 -0.119666	  0.818019,
  0.959005	 -0.024939	 -0.282288,
  0.443380	  0.090034	 -0.891800,
  0.980998	 -0.120490	 -0.152071,
 -0.481575	  0.024709	 -0.876057,
 -0.960303	 -0.150598	  0.234815,
 -0.969535	 -0.141278	  0.200106,
 -0.973584	 -0.069764	  0.217412,
 -0.972492	 -0.032623	  0.230641,
 -0.902289	 -0.075390	 -0.424489,
  0.868871	 -0.307396	  0.388034,
  0.234220	 -0.269114	  0.934194,
 -0.564970	 -0.182106	  0.804764,
 -0.963499	 -0.042678	  0.264287,
  0.531118	  0.005163	 -0.847282,
  0.957543	 -0.094257	 -0.272446,
 -0.385935	  0.023025	 -0.922238,
  0.937172	 -0.323321	 -0.131039,
 -0.856755	 -0.075489	 -0.510168,
 -0.872132	 -0.001517	 -0.489267,
 -0.885645	  0.047178	 -0.461961,
 -0.888114	 -0.002887	 -0.459614,
  0.867367	 -0.284780	  0.408135,
  0.342990	 -0.117515	  0.931959,
 -0.549530	 -0.030786	  0.834907,
 -0.968878	  0.045625	  0.243296,
 -0.907532	  0.080054	 -0.412283,
  0.528257	 -0.002768	 -0.849080,
 -0.360921	  0.044162	 -0.931550,
  0.897939	 -0.359109	 -0.254454,
  0.942365	 -0.322715	  0.088337,
 -0.312674	  0.042576	 -0.948906,
 -0.224065	 -0.089021	 -0.970500,
 -0.293094	  0.013126	 -0.955994,
  0.657113	  0.486418	  0.575847,
 -0.123522	  0.736939	  0.664577,
 -0.645875	  0.743580	  0.173016,
 -0.672212	  0.687098	 -0.275729,
 -0.349046	  0.685011	 -0.639474,
  0.573838	 -0.292634	 -0.764903,
  0.915399	 -0.319242	 -0.245213,
  0.831620	  0.554678	  0.027215,
  0.600855	 -0.191500	 -0.776080,
  0.381037	  0.646272	 -0.661168,
  0.043634	  0.998231	 -0.040388,
  0.790685	  0.557021	 -0.254057,
]
}
normalIndex [
   0,	   1,	   2, -1
   3,	   0,	   2, -1
   0,	   4,	   1, -1
   5,	   4,	   0, -1
   5,	   0,	   3, -1
   2,	   1,	   6, -1
   1,	   7,	   6, -1
   4,	   8,	   1, -1
   1,	   8,	   7, -1
   3,	   2,	   9, -1
   2,	   6,	  10, -1
   9,	   2,	  10, -1
  11,	   3,	   9, -1
   3,	  12,	   5, -1
   3,	  11,	  12, -1
   4,	  13,	   8, -1
  14,	  13,	   4, -1
   5,	  14,	   4, -1
  14,	   5,	  15, -1
  12,	  15,	   5, -1
   6,	   7,	  16, -1
   6,	  16,	  17, -1
  10,	   6,	  17, -1
   8,	  18,	   7, -1
   7,	  19,	  16, -1
   7,	  18,	  19, -1
  13,	  20,	   8, -1
   8,	  20,	  18, -1
  11,	   9,	  21, -1
   9,	  10,	  22, -1
  21,	   9,	  22, -1
  10,	  17,	  23, -1
  22,	  10,	  23, -1
  24,	  11,	  21, -1
  24,	  12,	  11, -1
  12,	  24,	  25, -1
  15,	  12,	  25, -1
  13,	  26,	  20, -1
  14,	  27,	  13, -1
  27,	  26,	  13, -1
  27,	  14,	  15, -1
  28,	  27,	  15, -1
  15,	  25,	  29, -1
  28,	  15,	  29, -1
  16,	  19,	  30, -1
  16,	  30,	  31, -1
  17,	  16,	  31, -1
  17,	  31,	  32, -1
  23,	  17,	  32, -1
  18,	  33,	  19, -1
  20,	  34,	  18, -1
  18,	  34,	  33, -1
  19,	  35,	  30, -1
  19,	  33,	  35, -1
  26,	  36,	  20, -1
  20,	  36,	  34, -1
  24,	  21,	  37, -1
  21,	  22,	  38, -1
  37,	  21,	  38, -1
  22,	  23,	  39, -1
  38,	  22,	  39, -1
  23,	  32,	  40, -1
  39,	  23,	  40, -1
  25,	  24,	  37, -1
  25,	  37,	  41, -1
  29,	  25,	  41, -1
  26,	  29,	  36, -1
  28,	  29,	  26, -1
  27,	  28,	  26, -1
  29,	  41,	  36, -1
  30,	  35,	  42, -1
  30,	  42,	  43, -1
  31,	  30,	  43, -1
  31,	  43,	  44, -1
  32,	  31,	  44, -1
  32,	  44,	  45, -1
  40,	  32,	  45, -1
  34,	  46,	  33, -1
  33,	  47,	  35, -1
  33,	  46,	  47, -1
  36,	  48,	  34, -1
  34,	  48,	  46, -1
  35,	  49,	  42, -1
  35,	  47,	  49, -1
  36,	  41,	  48, -1
  37,	  38,	  50, -1
  41,	  37,	  50, -1
  38,	  39,	  51, -1
  50,	  38,	  51, -1
  39,	  40,	  52, -1
  51,	  39,	  52, -1
  40,	  45,	  53, -1
  52,	  40,	  53, -1
  41,	  50,	  48, -1
  42,	  49,	  54, -1
  42,	  54,	  55, -1
  43,	  42,	  55, -1
  43,	  55,	  56, -1
  44,	  43,	  56, -1
  44,	  56,	  57, -1
  45,	  44,	  57, -1
  45,	  57,	  58, -1
  53,	  45,	  58, -1
  46,	  59,	  47, -1
  48,	  60,	  46, -1
  46,	  60,	  59, -1
  47,	  61,	  49, -1
  47,	  59,	  61, -1
  48,	  50,	  60, -1
  49,	  62,	  54, -1
  49,	  61,	  62, -1
  50,	  51,	  60, -1
  51,	  52,	  63, -1
  60,	  51,	  63, -1
  52,	  53,	  64, -1
  63,	  52,	  64, -1
  53,	  58,	  65, -1
  64,	  53,	  65, -1
  54,	  62,	  66, -1
  55,	  54,	  66, -1
  55,	  66,	  67, -1
  56,	  55,	  67, -1
  56,	  67,	  68, -1
  57,	  56,	  68, -1
  57,	  68,	  69, -1
  58,	  57,	  69, -1
  58,	  69,	  70, -1
  65,	  58,	  70, -1
  60,	  63,	  59, -1
  59,	  63,	  71, -1
  59,	  71,	  61, -1
  61,	  72,	  62, -1
  61,	  71,	  72, -1
  62,	  73,	  66, -1
  62,	  72,	  73, -1
  63,	  64,	  71, -1
  64,	  65,	  74, -1
  71,	  64,	  74, -1
  65,	  70,	  75, -1
  74,	  65,	  75, -1
  76,	  67,	  66, -1
  76,	  66,	  73, -1
  76,	  68,	  67, -1
  76,	  69,	  68, -1
  76,	  70,	  69, -1
  76,	  75,	  70, -1
  71,	  74,	  72, -1
  72,	  74,	  77, -1
  72,	  77,	  73, -1
  76,	  73,	  77, -1
  74,	  75,	  77, -1
  76,	  77,	  75, -1
]
normalPerVertex TRUE
}
}
]
}
