#VRML V2.0 utf8
Transform {
children [
Shape {
appearance Appearance {
              material DEF surface Material {
              diffuseColor 0.8 0.8 0.8
              ambientIntensity 0.2
              specularColor 0.4 0.4 0.4
              emissiveColor 0 0 0
              shininess 0.25
              transparency 0
            }
          }
geometry IndexedFaceSet {
solid FALSE
coord DEF bone Coordinate {
point [
 -0.000311	 -0.007061	  0.005642,
  0.004391	 -0.006944	  0.001457,
  0.005127	 -0.007165	 -0.004224,
 -0.004629	 -0.007369	  0.001328,
  0.003168	 -0.011920	  0.000809,
  0.000462	 -0.012245	  0.005042,
  0.003130	 -0.012279	 -0.003983,
 -0.004307	 -0.007623	 -0.003279,
  0.000678	 -0.011799	 -0.005687,
  0.000847	 -0.007193	 -0.006469,
 -0.003921	 -0.012364	  0.001261,
  0.002555	 -0.017609	 -0.003804,
  0.002056	 -0.016926	 -0.000010,
  0.000279	 -0.017570	  0.003646,
  0.000647	 -0.016635	 -0.005024,
 -0.003619	 -0.012386	 -0.002640,
 -0.002614	 -0.017071	 -0.003376,
 -0.003167	 -0.017342	  0.001306,
  0.002795	 -0.023412	 -0.004352,
  0.000410	 -0.021438	 -0.004783,
  0.002031	 -0.022093	 -0.000286,
  0.000323	 -0.023118	  0.003026,
 -0.001973	 -0.021893	 -0.003748,
 -0.002851	 -0.022390	  0.000715,
  0.004147	 -0.028469	 -0.004712,
  0.001106	 -0.026210	 -0.004963,
 -0.001562	 -0.026804	 -0.003351,
  0.002947	 -0.027109	 -0.000672,
  0.001186	 -0.028522	  0.002065,
 -0.002664	 -0.027463	  0.000387,
  0.001705	 -0.031007	 -0.005073,
  0.006754	 -0.032707	 -0.004585,
 -0.000691	 -0.031551	 -0.002790,
 -0.002045	 -0.032543	  0.000109,
  0.004258	 -0.032159	 -0.001058,
  0.002083	 -0.033816	  0.003290,
  0.001229	 -0.035879	 -0.003187,
  0.001921	 -0.035846	 -0.004983,
  0.003279	 -0.035824	 -0.005285,
  0.000069	 -0.036872	  0.000301,
  0.000420	 -0.037188	  0.000448,
  0.003370	 -0.036486	 -0.002354,
]
}
coordIndex [
   0,	   1,	   2, -1
   3,	   0,	   2, -1
   4,	   1,	   0, -1
   5,	   4,	   0, -1
   5,	   0,	   3, -1
   6,	   2,	   1, -1
   4,	   6,	   1, -1
   7,	   3,	   2, -1
   8,	   9,	   2, -1
   6,	   8,	   2, -1
   2,	   9,	   7, -1
  10,	   5,	   3, -1
  10,	   3,	   7, -1
  11,	   6,	   4, -1
  12,	  11,	   4, -1
  12,	   4,	   5, -1
  13,	  12,	   5, -1
  13,	   5,	  10, -1
  14,	   8,	   6, -1
  11,	  14,	   6, -1
  15,	  10,	   7, -1
  15,	   7,	   9, -1
   8,	  15,	   9, -1
  16,	  15,	   8, -1
  14,	  16,	   8, -1
  17,	  13,	  10, -1
  17,	  10,	  15, -1
  18,	  11,	  12, -1
  19,	  14,	  11, -1
  18,	  19,	  11, -1
  20,	  18,	  12, -1
  20,	  12,	  13, -1
  21,	  20,	  13, -1
  21,	  13,	  17, -1
  22,	  16,	  14, -1
  19,	  22,	  14, -1
  16,	  17,	  15, -1
  23,	  17,	  16, -1
  22,	  23,	  16, -1
  23,	  21,	  17, -1
  24,	  25,	  18, -1
  24,	  18,	  20, -1
  25,	  19,	  18, -1
  26,	  22,	  19, -1
  25,	  26,	  19, -1
  27,	  20,	  21, -1
  27,	  24,	  20, -1
  28,	  21,	  23, -1
  28,	  27,	  21, -1
  29,	  23,	  22, -1
  26,	  29,	  22, -1
  29,	  28,	  23, -1
  30,	  25,	  24, -1
  31,	  24,	  27, -1
  31,	  30,	  24, -1
  32,	  26,	  25, -1
  30,	  32,	  25, -1
  33,	  29,	  26, -1
  32,	  33,	  26, -1
  34,	  27,	  28, -1
  34,	  31,	  27, -1
  35,	  28,	  29, -1
  35,	  34,	  28, -1
  33,	  35,	  29, -1
  36,	  32,	  30, -1
  37,	  36,	  30, -1
  37,	  30,	  31, -1
  38,	  31,	  34, -1
  38,	  37,	  31, -1
  39,	  33,	  32, -1
  36,	  39,	  32, -1
  40,	  35,	  33, -1
  39,	  40,	  33, -1
  41,	  34,	  35, -1
  41,	  38,	  34, -1
  40,	  41,	  35, -1
  36,	  41,	  40, -1
  39,	  36,	  40, -1
  36,	  37,	  41, -1
  37,	  38,	  41, -1
]
colorPerVertex FALSE
colorIndex [
1,
1,
1,
1,
1,
1,
1,
1,
1,
1,
1,
1,
1,
1,
1,
1,
1,
1,
1,
1,
1,
1,
1,
1,
1,
1,
1,
1,
1,
1,
1,
1,
1,
1,
1,
1,
1,
1,
1,
1,
1,
1,
]
normal Normal {
vector [
  0.267992	  0.628627	  0.730074,
  0.948181	  0.057070	  0.312563,
  0.426280	  0.807535	 -0.407642,
 -0.764122	  0.496244	  0.412141,
  0.921302	 -0.183710	  0.342716,
  0.153743	 -0.211259	  0.965263,
  0.862534	 -0.220901	 -0.455234,
 -0.819644	  0.482411	 -0.308971,
 -0.008999	 -0.148579	 -0.988860,
 -0.250370	  0.202575	 -0.946720,
 -0.905316	 -0.149710	  0.397479,
  0.868340	 -0.075823	 -0.490138,
  0.943577	 -0.111730	  0.311735,
  0.241344	 -0.145261	  0.959506,
  0.054877	 -0.077072	 -0.995514,
 -0.848573	 -0.146283	 -0.508453,
 -0.819116	 -0.085110	 -0.567279,
 -0.903619	 -0.133409	  0.407032,
  0.814869	  0.124894	 -0.566029,
 -0.050806	 -0.012896	 -0.998625,
  0.944415	  0.075257	  0.320025,
  0.207095	 -0.087399	  0.974409,
 -0.767497	 -0.067791	 -0.637458,
 -0.913741	 -0.124174	  0.386857,
  0.748667	  0.265653	 -0.607394,
 -0.210057	 -0.014145	 -0.977587,
 -0.736757	 -0.134604	 -0.662624,
  0.880879	  0.200990	  0.428550,
  0.242495	  0.067915	  0.967772,
 -0.919996	 -0.057335	  0.387712,
 -0.375520	 -0.053416	 -0.925274,
  0.769778	  0.155667	 -0.619039,
 -0.736140	 -0.246123	 -0.630493,
 -0.933141	 -0.286345	  0.217380,
  0.890446	 -0.106236	  0.442516,
  0.174933	 -0.245323	  0.953528,
 -0.636516	 -0.627678	 -0.448183,
 -0.398509	 -0.481097	 -0.780856,
  0.626108	 -0.702144	 -0.339089,
 -0.832260	 -0.535610	 -0.143061,
 -0.368691	 -0.855371	  0.363877,
  0.460785	 -0.887482	  0.007343,
]
}
normalIndex [
   0,	   1,	   2, -1
   3,	   0,	   2, -1
   4,	   1,	   0, -1
   5,	   4,	   0, -1
   5,	   0,	   3, -1
   6,	   2,	   1, -1
   4,	   6,	   1, -1
   7,	   3,	   2, -1
   8,	   9,	   2, -1
   6,	   8,	   2, -1
   2,	   9,	   7, -1
  10,	   5,	   3, -1
  10,	   3,	   7, -1
  11,	   6,	   4, -1
  12,	  11,	   4, -1
  12,	   4,	   5, -1
  13,	  12,	   5, -1
  13,	   5,	  10, -1
  14,	   8,	   6, -1
  11,	  14,	   6, -1
  15,	  10,	   7, -1
  15,	   7,	   9, -1
   8,	  15,	   9, -1
  16,	  15,	   8, -1
  14,	  16,	   8, -1
  17,	  13,	  10, -1
  17,	  10,	  15, -1
  18,	  11,	  12, -1
  19,	  14,	  11, -1
  18,	  19,	  11, -1
  20,	  18,	  12, -1
  20,	  12,	  13, -1
  21,	  20,	  13, -1
  21,	  13,	  17, -1
  22,	  16,	  14, -1
  19,	  22,	  14, -1
  16,	  17,	  15, -1
  23,	  17,	  16, -1
  22,	  23,	  16, -1
  23,	  21,	  17, -1
  24,	  25,	  18, -1
  24,	  18,	  20, -1
  25,	  19,	  18, -1
  26,	  22,	  19, -1
  25,	  26,	  19, -1
  27,	  20,	  21, -1
  27,	  24,	  20, -1
  28,	  21,	  23, -1
  28,	  27,	  21, -1
  29,	  23,	  22, -1
  26,	  29,	  22, -1
  29,	  28,	  23, -1
  30,	  25,	  24, -1
  31,	  24,	  27, -1
  31,	  30,	  24, -1
  32,	  26,	  25, -1
  30,	  32,	  25, -1
  33,	  29,	  26, -1
  32,	  33,	  26, -1
  34,	  27,	  28, -1
  34,	  31,	  27, -1
  35,	  28,	  29, -1
  35,	  34,	  28, -1
  33,	  35,	  29, -1
  36,	  32,	  30, -1
  37,	  36,	  30, -1
  37,	  30,	  31, -1
  38,	  31,	  34, -1
  38,	  37,	  31, -1
  39,	  33,	  32, -1
  36,	  39,	  32, -1
  40,	  35,	  33, -1
  39,	  40,	  33, -1
  41,	  34,	  35, -1
  41,	  38,	  34, -1
  40,	  41,	  35, -1
  36,	  41,	  40, -1
  39,	  36,	  40, -1
  36,	  37,	  41, -1
  37,	  38,	  41, -1
]
normalPerVertex TRUE
}
}
]
}
