# 
# Wavefront OBJ file
# Converted by the DEEP Exploration 2.00.1211
# Right Hemisphere, LTD
# http://www.righthemisphere.com/
# 
mtllib middle2_r.mtl
# object Object #0
g Object__0
v 0.005127 -0.007165 0.004224
v 0.004391 -0.006944 -0.001457
v -0.000311 -0.007061 -0.005642
v -0.004629 -0.007369 -0.001328
v -0.004307 -0.007623 0.003279
v 0.00313 -0.012279 0.003983
v 0.000847 -0.007193 0.006469
v 0.000678 -0.011799 0.005687
v 0.003168 -0.01192 -0.000809
v 0.000462 -0.012245 -0.005042
v -0.003921 -0.012364 -0.001261
v -0.003619 -0.012386 0.00264
v 0.002555 -0.017609 0.003804
v 0.000647 -0.016635 0.005024
v -0.002614 -0.017071 0.003376
v 0.002056 -0.016926 1e-005
v 0.000279 -0.01757 -0.003646
v -0.003167 -0.017342 -0.001306
v 0.002795 -0.023412 0.004352
v 0.00041 -0.021438 0.004783
v -0.001973 -0.021893 0.003748
v -0.002851 -0.02239 -0.000715
v 0.002031 -0.022093 0.000286
v 0.000323 -0.023118 -0.003026
v 0.001106 -0.02621 0.004963
v 0.004147 -0.028469 0.004712
v -0.001562 -0.026804 0.003351
v -0.002664 -0.027463 -0.000387
v 0.001186 -0.028522 -0.002065
v 0.002947 -0.027109 0.000672
v 0.001705 -0.031007 0.005073
v -0.000691 -0.031551 0.00279
v 0.006754 -0.032707 0.004585
v -0.002045 -0.032543 -0.000109
v 0.002083 -0.033816 -0.00329
v 0.004258 -0.032159 0.001058
v 0.001229 -0.035879 0.003187
v 0.001921 -0.035846 0.004983
v 6.9e-005 -0.036872 -0.000301
v 0.003279 -0.035824 0.005285
v 0.00042 -0.037188 -0.000448
v 0.00337 -0.036486 0.002354
# 42 verticies
vn 0.42628 0.807535 0.407642
vn 0.948181 0.05707 -0.312563
vn 0.267992 0.628627 -0.730074
vn -0.764122 0.496244 -0.412141
vn -0.819644 0.482411 0.308971
vn 0.862534 -0.220901 0.455234
vn -0.25037 0.202575 0.94672
vn -0.008999 -0.148579 0.98886
vn 0.921302 -0.18371 -0.342716
vn 0.153743 -0.211259 -0.965263
vn -0.905316 -0.14971 -0.397479
vn -0.848573 -0.146283 0.508453
vn 0.868341 -0.0758231 0.490138
vn 0.054877 -0.077072 0.995514
vn -0.819116 -0.08511 0.567279
vn 0.943577 -0.11173 -0.311735
vn 0.241344 -0.145261 -0.959506
vn -0.903619 -0.133409 -0.407032
vn 0.814869 0.124894 0.566029
vn -0.050806 -0.012896 0.998625
vn -0.767497 -0.067791 0.637458
vn -0.913741 -0.124174 -0.386857
vn 0.944415 0.075257 -0.320025
vn 0.207095 -0.087399 -0.974409
vn -0.210057 -0.014145 0.977587
vn 0.748667 0.265653 0.607394
vn -0.736757 -0.134604 0.662624
vn -0.919996 -0.057335 -0.387712
vn 0.242495 0.067915 -0.967773
vn 0.880879 0.20099 -0.42855
vn -0.37552 -0.053416 0.925274
vn -0.73614 -0.246123 0.630493
vn 0.769778 0.155667 0.619039
vn -0.933141 -0.286345 -0.21738
vn 0.174933 -0.245323 -0.953528
vn 0.890446 -0.106236 -0.442516
vn -0.636516 -0.627678 0.448183
vn -0.398509 -0.481097 0.780856
vn -0.83226 -0.53561 0.143061
vn 0.626108 -0.702144 0.339089
vn -0.368691 -0.855371 -0.363877
vn 0.460785 -0.887482 -0.007343
# 42 normals
usemtl Material__1
f  1//1 2//2 3//3
f  1//1 3//3 4//4
f  1//1 4//4 5//5
f  2//2 1//1 6//6
f  1//1 7//7 8//8
f  1//1 8//8 6//6
f  5//5 7//7 1//1
f  2//2 6//6 9//9
f  3//3 2//2 9//9
f  3//3 9//9 10//10
f  4//4 3//3 10//10
f  4//4 10//10 11//11
f  5//5 4//4 11//11
f  5//5 11//11 12//12
f  7//7 5//5 12//12
f  9//9 6//6 13//13
f  6//6 8//8 14//14
f  6//6 14//14 13//13
f  7//7 12//12 8//8
f  8//8 12//12 15//15
f  8//8 15//15 14//14
f  9//9 13//13 16//16
f  10//10 9//9 16//16
f  10//10 16//16 17//17
f  11//11 10//10 17//17
f  11//11 17//17 18//18
f  12//12 11//11 18//18
f  12//12 18//18 15//15
f  16//16 13//13 19//19
f  13//13 14//14 20//20
f  13//13 20//20 19//19
f  14//14 15//15 21//21
f  14//14 21//21 20//20
f  15//15 18//18 22//22
f  15//15 22//22 21//21
f  16//16 19//19 23//23
f  17//17 16//16 23//23
f  17//17 23//23 24//24
f  18//18 17//17 24//24
f  18//18 24//24 22//22
f  19//19 25//25 26//26
f  23//23 19//19 26//26
f  19//19 20//20 25//25
f  20//20 21//21 27//27
f  20//20 27//27 25//25
f  21//21 22//22 28//28
f  21//21 28//28 27//27
f  22//22 24//24 29//29
f  22//22 29//29 28//28
f  24//24 23//23 30//30
f  23//23 26//26 30//30
f  24//24 30//30 29//29
f  26//26 25//25 31//31
f  25//25 27//27 32//32
f  25//25 32//32 31//31
f  30//30 26//26 33//33
f  26//26 31//31 33//33
f  27//27 28//28 34//34
f  27//27 34//34 32//32
f  28//28 29//29 35//35
f  28//28 35//35 34//34
f  29//29 30//30 36//36
f  29//29 36//36 35//35
f  30//30 33//33 36//36
f  31//31 32//32 37//37
f  31//31 37//37 38//38
f  33//33 31//31 38//38
f  32//32 34//34 39//39
f  32//32 39//39 37//37
f  36//36 33//33 40//40
f  33//33 38//38 40//40
f  34//34 35//35 41//41
f  34//34 41//41 39//39
f  35//35 36//36 42//42
f  35//35 42//42 41//41
f  36//36 40//40 42//42
f  41//41 42//42 37//37
f  41//41 37//37 39//39
f  42//42 38//38 37//37
f  42//42 40//40 38//38
