#VRML V2.0 utf8
Transform {
children [
Shape {
appearance Appearance {
              material DEF surface Material {
              diffuseColor 0.8 0.8 0.8
              ambientIntensity 0.2
              specularColor 0.4 0.4 0.4
              emissiveColor 0 0 0
              shininess 0.25
              transparency 0
            }
          }
geometry IndexedFaceSet {
solid FALSE
coord DEF bone Coordinate {
point [
  0.008252	 -0.005801	 -0.057002,
  0.008283	  0.003147	 -0.055540,
  0.024781	 -0.003917	 -0.069408,
  0.017963	 -0.010723	 -0.059980,
 -0.006277	 -0.000899	 -0.055770,
 -0.014050	 -0.015251	 -0.070701,
 -0.009783	 -0.006544	 -0.062249,
  0.013018	  0.012216	 -0.064535,
 -0.000924	  0.007799	 -0.055727,
  0.003674	  0.012176	 -0.056784,
  0.023287	  0.015241	 -0.081192,
  0.021819	  0.017258	 -0.096234,
  0.028823	  0.020158	 -0.088833,
  0.028870	  0.000541	 -0.060295,
  0.039137	 -0.017450	 -0.016874,
  0.016059	 -0.008327	 -0.051754,
 -0.010088	 -0.009504	 -0.049913,
 -0.016629	  0.001133	 -0.065912,
 -0.008095	  0.007702	 -0.056620,
 -0.024084	 -0.012464	 -0.080703,
 -0.031857	 -0.013312	 -0.071675,
 -0.028198	 -0.024670	 -0.050130,
  0.009272	  0.019994	 -0.069411,
  0.005349	  0.016610	 -0.061383,
 -0.005025	  0.015299	 -0.059263,
  0.009002	  0.026019	 -0.089113,
 -0.000633	  0.023336	 -0.104575,
  0.010784	  0.038510	 -0.099000,
  0.041138	  0.034983	 -0.096830,
  0.027213	  0.018501	 -0.064706,
  0.025093	  0.028209	 -0.078833,
  0.034424	 -0.006649	 -0.036449,
  0.027342	  0.006361	 -0.041738,
  0.015037	 -0.031739	  0.000351,
  0.045638	 -0.012929	 -0.002221,
  0.048759	 -0.009441	 -0.023867,
  0.018075	 -0.001326	 -0.044255,
  0.015099	  0.001475	 -0.037258,
  0.016523	 -0.035926	 -0.005631,
  0.007943	 -0.024407	 -0.019243,
  0.008208	  0.010910	 -0.052861,
 -0.054653	  0.011695	 -0.052960,
 -0.056244	 -0.004328	 -0.061559,
 -0.018673	  0.035807	 -0.066890,
  0.011469	  0.034060	 -0.061986,
 -0.019162	  0.011883	 -0.072831,
 -0.014442	  0.012235	 -0.060240,
 -0.026961	  0.005160	 -0.092403,
 -0.020891	  0.015915	 -0.089785,
 -0.034644	  0.002285	 -0.075543,
 -0.041046	 -0.020524	 -0.072478,
 -0.040155	  0.006167	 -0.067604,
 -0.025603	 -0.036707	 -0.040325,
 -0.064911	 -0.018297	 -0.054166,
 -0.048491	 -0.035390	 -0.069475,
 -0.043608	 -0.048977	 -0.052030,
 -0.001728	  0.025720	 -0.077771,
  0.000498	  0.021269	 -0.065144,
 -0.013809	  0.017800	 -0.064622,
 -0.006990	  0.021825	 -0.065884,
 -0.017344	  0.017167	 -0.100261,
 -0.017458	  0.034903	 -0.092581,
  0.046865	  0.056800	 -0.106864,
  0.007652	  0.059530	 -0.099770,
  0.034685	  0.047903	 -0.095127,
  0.023822	 -0.006792	 -0.002407,
  0.015321	 -0.016750	 -0.001799,
 -0.002071	 -0.051247	 -0.025230,
 -0.036012	 -0.045691	 -0.036161,
  0.005653	 -0.029789	 -0.019016,
  0.044399	 -0.005531	 -0.004815,
 -0.047662	 -0.000596	 -0.067764,
 -0.024564	  0.053968	 -0.070120,
 -0.061118	 -0.009744	 -0.069124,
 -0.013012	  0.077809	 -0.060801,
 -0.030269	  0.017815	 -0.084058,
 -0.021429	 -0.054770	 -0.035677,
 -0.065038	 -0.030831	 -0.060259,
  0.013761	  0.097217	 -0.098576,
  0.061861	  0.052204	 -0.121746,
  0.070700	  0.066100	 -0.118718,
  0.042433	  0.056436	 -0.112591,
  0.025639	  0.109964	 -0.123584,
 -0.006814	  0.093134	 -0.079831,
 -0.031225	  0.060562	 -0.073290,
 -0.026472	  0.090395	 -0.055110,
 -0.033659	  0.076180	 -0.050771,
 -0.049559	  0.059412	 -0.063216,
 -0.011816	  0.110480	 -0.066276,
  0.002095	  0.157987	 -0.085194,
  0.044570	  0.112923	 -0.120518,
  0.062334	  0.088110	 -0.122779,
  0.069516	  0.077584	 -0.127749,
  0.052593	  0.085591	 -0.132935,
  0.028582	  0.117324	 -0.132586,
  0.004871	  0.149122	 -0.103489,
 -0.056364	  0.115944	 -0.068258,
 -0.026880	  0.138226	 -0.071741,
 -0.048196	  0.087791	 -0.059151,
 -0.040083	  0.107588	 -0.052254,
 -0.059639	  0.065109	 -0.057141,
 -0.063440	  0.075615	 -0.055856,
 -0.061489	  0.086669	 -0.063785,
 -0.013545	  0.132090	 -0.059553,
  0.028025	  0.138114	 -0.119140,
  0.006996	  0.156031	 -0.100713,
 -0.016110	  0.159932	 -0.076345,
 -0.009821	  0.155370	 -0.070947,
  0.054478	  0.104573	 -0.132645,
 -0.034418	  0.148513	 -0.073602,
 -0.069345	  0.113938	 -0.057869,
 -0.051131	  0.140897	 -0.061410,
 -0.065009	  0.091533	 -0.056811,
 -0.059742	  0.102193	 -0.043881,
 -0.050630	  0.121286	 -0.048853,
 -0.072056	  0.103953	 -0.055989,
 -0.029233	  0.146271	 -0.058907,
 -0.030484	  0.153429	 -0.067624,
 -0.071867	  0.102960	 -0.050538,
 -0.067064	  0.119055	 -0.051671,
 -0.069583	  0.093157	 -0.051667,
]
}
coordIndex [
   0,	   1,	   2, -1
   2,	   3,	   0, -1
   4,	   1,	   0, -1
   5,	   6,	   0, -1
   4,	   0,	   6, -1
   5,	   0,	   3, -1
   1,	   7,	   2, -1
   1,	   8,	   9, -1
   7,	   1,	   9, -1
   1,	   4,	   8, -1
   2,	   7,	  10, -1
  10,	  11,	   2, -1
  11,	  12,	   2, -1
  13,	   2,	  12, -1
  13,	   3,	   2, -1
  14,	   3,	  13, -1
   3,	  14,	  15, -1
   5,	   3,	  16, -1
  16,	   3,	  15, -1
   6,	  17,	   4, -1
   4,	  17,	  18, -1
   4,	  18,	   8, -1
   5,	  17,	   6, -1
  19,	  17,	   5, -1
   5,	  20,	  19, -1
   5,	  16,	  21, -1
  20,	   5,	  21, -1
  10,	   7,	  22, -1
   7,	   9,	  23, -1
  22,	   7,	  23, -1
   8,	  24,	   9, -1
  18,	  24,	   8, -1
   9,	  24,	  23, -1
  11,	  10,	  25, -1
  25,	  10,	  22, -1
  25,	  26,	  11, -1
  11,	  26,	  12, -1
  12,	  27,	  28, -1
  12,	  26,	  27, -1
  12,	  29,	  13, -1
  30,	  29,	  12, -1
  28,	  30,	  12, -1
  13,	  31,	  14, -1
  13,	  29,	  32, -1
  31,	  13,	  32, -1
  33,	  14,	  34, -1
  14,	  31,	  35, -1
  36,	  14,	  37, -1
  15,	  14,	  36, -1
  34,	  14,	  35, -1
  14,	  38,	  39, -1
  14,	  33,	  38, -1
  14,	  39,	  37, -1
  40,	  16,	  15, -1
  36,	  40,	  15, -1
  41,	  42,	  16, -1
  41,	  16,	  43, -1
  42,	  21,	  16, -1
  44,	  16,	  40, -1
  43,	  16,	  44, -1
  17,	  45,	  46, -1
  17,	  46,	  18, -1
  19,	  47,	  17, -1
  17,	  48,	  45, -1
  47,	  48,	  17, -1
  46,	  24,	  18, -1
  19,	  49,	  47, -1
  19,	  20,	  49, -1
  20,	  50,	  51, -1
  20,	  51,	  49, -1
  20,	  21,	  50, -1
  52,	  21,	  53, -1
  42,	  53,	  21, -1
  54,	  21,	  55, -1
  55,	  21,	  52, -1
  50,	  21,	  54, -1
  25,	  22,	  56, -1
  22,	  23,	  57, -1
  56,	  22,	  57, -1
  23,	  24,	  57, -1
  58,	  59,	  24, -1
  57,	  24,	  59, -1
  58,	  24,	  46, -1
  60,	  25,	  56, -1
  26,	  25,	  60, -1
  26,	  60,	  61, -1
  26,	  61,	  27, -1
  28,	  27,	  62, -1
  62,	  27,	  63, -1
  63,	  27,	  61, -1
  30,	  28,	  64, -1
  62,	  64,	  28, -1
  44,	  29,	  30, -1
  32,	  29,	  44, -1
  44,	  30,	  64, -1
  35,	  31,	  32, -1
  35,	  32,	  37, -1
  37,	  32,	  40, -1
  32,	  44,	  40, -1
  34,	  65,	  33, -1
  66,	  33,	  65, -1
  37,	  39,	  33, -1
  37,	  33,	  66, -1
  33,	  67,	  38, -1
  67,	  33,	  68, -1
  69,	  68,	  33, -1
  69,	  33,	  39, -1
  34,	  70,	  65, -1
  70,	  34,	  35, -1
  70,	  35,	  37, -1
  37,	  40,	  36, -1
  66,	  65,	  37, -1
  65,	  70,	  37, -1
  38,	  69,	  39, -1
  38,	  67,	  69, -1
  71,	  42,	  41, -1
  41,	  51,	  71, -1
  72,	  41,	  43, -1
  41,	  72,	  51, -1
  73,	  42,	  71, -1
  53,	  42,	  73, -1
  43,	  44,	  72, -1
  64,	  74,	  44, -1
  44,	  74,	  72, -1
  46,	  45,	  58, -1
  58,	  45,	  59, -1
  48,	  59,	  45, -1
  47,	  60,	  48, -1
  60,	  47,	  75, -1
  47,	  49,	  75, -1
  56,	  59,	  48, -1
  48,	  60,	  56, -1
  51,	  75,	  49, -1
  51,	  50,	  71, -1
  50,	  73,	  71, -1
  50,	  54,	  73, -1
  51,	  72,	  75, -1
  52,	  53,	  68, -1
  52,	  68,	  69, -1
  76,	  55,	  52, -1
  52,	  67,	  76, -1
  67,	  52,	  69, -1
  73,	  77,	  53, -1
  53,	  77,	  68, -1
  54,	  55,	  77, -1
  54,	  77,	  73, -1
  55,	  68,	  77, -1
  76,	  68,	  55, -1
  59,	  56,	  57, -1
  60,	  75,	  61, -1
  72,	  63,	  61, -1
  72,	  61,	  75, -1
  62,	  78,	  64, -1
  62,	  79,	  80, -1
  80,	  78,	  62, -1
  81,	  79,	  62, -1
  81,	  62,	  63, -1
  82,	  81,	  63, -1
  83,	  82,	  63, -1
  83,	  63,	  84, -1
  72,	  84,	  63, -1
  64,	  78,	  74, -1
  76,	  67,	  68, -1
  72,	  74,	  84, -1
  74,	  85,	  86, -1
  87,	  74,	  86, -1
  84,	  74,	  87, -1
  88,	  74,	  78, -1
  74,	  88,	  85, -1
  88,	  78,	  89, -1
  90,	  78,	  91, -1
  89,	  78,	  90, -1
  78,	  80,	  91, -1
  92,	  80,	  79, -1
  81,	  93,	  79, -1
  79,	  93,	  92, -1
  91,	  80,	  92, -1
  93,	  81,	  82, -1
  93,	  82,	  94, -1
  82,	  83,	  95, -1
  82,	  95,	  94, -1
  83,	  96,	  97, -1
  83,	  97,	  95, -1
  96,	  83,	  84, -1
  96,	  84,	  87, -1
  85,	  98,	  86, -1
  88,	  99,	  85, -1
  99,	  98,	  85, -1
 100,	  87,	  86, -1
 100,	  86,	 101, -1
  86,	  98,	 101, -1
 102,	  87,	 101, -1
 101,	  87,	 100, -1
  87,	 102,	  96, -1
  89,	 103,	  88, -1
  88,	 103,	  99, -1
  89,	  90,	 104, -1
 105,	  89,	 104, -1
 106,	  89,	 105, -1
  89,	 106,	 107, -1
 107,	 103,	  89, -1
  90,	  91,	 108, -1
  90,	 108,	 104, -1
 108,	  91,	  92, -1
 108,	  92,	  93, -1
 108,	  93,	  94, -1
 104,	 108,	  94, -1
 104,	  94,	  95, -1
 105,	 104,	  95, -1
 106,	  95,	 109, -1
  95,	  97,	 109, -1
 105,	  95,	 106, -1
  97,	  96,	 109, -1
  96,	 102,	 110, -1
 109,	  96,	 111, -1
  96,	 110,	 111, -1
 112,	 101,	  98, -1
 113,	  98,	  99, -1
 112,	  98,	 113, -1
 103,	 114,	  99, -1
  99,	 114,	 113, -1
 112,	 102,	 101, -1
 115,	 102,	 112, -1
 110,	 102,	 115, -1
 116,	 103,	 107, -1
 114,	 103,	 116, -1
 117,	 107,	 106, -1
 109,	 117,	 106, -1
 116,	 107,	 117, -1
 109,	 111,	 117, -1
 110,	 118,	 119, -1
 111,	 110,	 119, -1
 115,	 118,	 110, -1
 111,	 116,	 117, -1
 111,	 119,	 114, -1
 114,	 116,	 111, -1
 115,	 112,	 120, -1
 120,	 112,	 113, -1
 114,	 119,	 113, -1
 113,	 119,	 118, -1
 118,	 120,	 113, -1
 120,	 118,	 115, -1
]
colorPerVertex FALSE
colorIndex [
1,
1,
1,
1,
1,
1,
1,
1,
1,
1,
1,
1,
1,
1,
1,
1,
1,
1,
1,
1,
1,
1,
1,
1,
1,
1,
1,
1,
1,
1,
1,
1,
1,
1,
1,
1,
1,
1,
1,
1,
1,
1,
1,
1,
1,
1,
1,
1,
1,
1,
1,
1,
1,
1,
1,
1,
1,
1,
1,
1,
1,
1,
1,
1,
1,
1,
1,
1,
1,
1,
1,
1,
1,
1,
1,
1,
1,
1,
1,
1,
1,
1,
1,
1,
1,
1,
1,
1,
1,
1,
1,
1,
1,
1,
1,
1,
1,
1,
1,
1,
1,
1,
1,
1,
1,
1,
1,
1,
1,
1,
1,
1,
1,
1,
1,
1,
1,
1,
1,
1,
1,
]
normal Normal {
vector [
 -0.121229	  0.359878	 -0.925090,
 -0.354023	 -0.104927	 -0.929332,
 -0.267537	 -0.600731	 -0.753357,
  0.149599	 -0.948998	 -0.277531,
  0.310915	  0.215176	 -0.925760,
  0.545957	 -0.403891	 -0.734032,
  0.461437	  0.510762	 -0.725395,
 -0.637155	 -0.471716	 -0.609523,
  0.066755	 -0.198429	 -0.977839,
 -0.242120	 -0.455979	 -0.856423,
 -0.761351	 -0.588225	 -0.272647,
 -0.435040	 -0.819409	 -0.373243,
  0.902474	 -0.105892	 -0.417525,
  0.979260	 -0.156690	 -0.128446,
  0.298445	 -0.932280	 -0.204414,
 -0.524019	 -0.588970	  0.615238,
  0.004593	 -0.267670	  0.963500,
  0.836107	  0.113477	 -0.536701,
  0.384632	 -0.107701	 -0.916765,
  0.010792	 -0.549332	 -0.835535,
 -0.270876	 -0.652059	 -0.708128,
  0.806719	 -0.590347	  0.026366,
 -0.442443	 -0.802043	 -0.401211,
 -0.334209	 -0.676750	 -0.655983,
  0.114995	 -0.573523	 -0.811078,
 -0.210331	 -0.977590	 -0.008925,
  0.081692	 -0.106371	 -0.990965,
 -0.028317	 -0.102829	 -0.994296,
  0.928279	 -0.356060	  0.107331,
  0.904981	  0.383230	  0.184779,
  0.841450	  0.216414	  0.495103,
  0.874146	 -0.080398	 -0.478963,
  0.597962	  0.712441	  0.367245,
 -0.386977	 -0.146409	  0.910392,
  0.692764	 -0.301178	  0.655263,
  0.975002	  0.120513	 -0.186673,
 -0.808007	 -0.531388	  0.254465,
 -0.764908	  0.570408	  0.299248,
  0.676044	 -0.687131	 -0.266112,
 -0.316785	 -0.457139	 -0.831067,
 -0.522677	  0.163736	  0.836659,
 -0.762495	  0.574170	  0.298210,
 -0.660002	  0.551069	  0.510608,
  0.008816	  0.268014	  0.963375,
  0.217492	  0.385371	  0.896764,
  0.911922	 -0.377030	 -0.162007,
  0.670086	 -0.253985	 -0.697478,
  0.051261	 -0.506395	 -0.860777,
  0.800223	 -0.592796	 -0.090749,
 -0.836732	 -0.204561	 -0.507971,
  0.169056	 -0.132224	 -0.976697,
 -0.630911	  0.166530	 -0.757773,
  0.716507	  0.551027	 -0.427770,
 -0.571314	  0.439045	  0.693427,
  0.067810	 -0.515173	 -0.854399,
  0.102875	 -0.877018	 -0.469315,
  0.104531	 -0.986292	 -0.127675,
 -0.148657	 -0.834996	 -0.529795,
  0.558320	 -0.701964	 -0.442183,
  0.360558	 -0.870106	 -0.336025,
 -0.011922	 -0.828766	 -0.559468,
 -0.531323	  0.329204	 -0.780590,
  0.527607	 -0.708164	  0.469184,
 -0.502312	 -0.218437	 -0.836641,
  0.669137	  0.259446	  0.696379,
 -0.174760	  0.523640	  0.833823,
 -0.759849	  0.332307	  0.558749,
  0.489285	 -0.865157	 -0.110017,
 -0.603308	 -0.122417	  0.788057,
  0.122695	  0.849226	 -0.513576,
  0.442904	  0.801604	  0.401581,
 -0.407576	  0.479503	 -0.777148,
 -0.965919	  0.143339	  0.215533,
 -0.677614	  0.297518	 -0.672550,
  0.406231	 -0.117873	  0.906136,
 -0.837575	  0.175274	 -0.517443,
  0.150003	 -0.938292	 -0.311619,
 -0.875424	 -0.473345	 -0.097865,
  0.609002	  0.176478	  0.773287,
  0.283884	 -0.829958	 -0.480186,
  0.799383	  0.002763	  0.600815,
 -0.389343	 -0.745245	 -0.541315,
 -0.692890	 -0.244899	 -0.678180,
 -0.565430	  0.010556	 -0.824729,
 -0.613406	 -0.494181	 -0.616050,
  0.211799	  0.103396	  0.971828,
  0.064613	 -0.137611	  0.988377,
 -0.346567	 -0.838210	 -0.421063,
  0.664658	  0.016412	  0.746968,
  0.730417	  0.473330	  0.492392,
  0.746819	  0.379468	  0.546136,
  0.729546	  0.431836	  0.530358,
  0.831558	  0.071187	 -0.550858,
 -0.223933	 -0.273109	 -0.935556,
 -0.384453	  0.089694	 -0.918777,
 -0.639350	  0.144805	 -0.755158,
 -0.393668	  0.039438	 -0.918407,
 -0.365570	 -0.201200	 -0.908778,
  0.002264	 -0.112789	  0.993616,
  0.322325	 -0.128057	  0.937928,
 -0.436550	 -0.644182	  0.628055,
 -0.916588	 -0.078400	  0.392072,
 -0.716056	 -0.189967	 -0.671697,
  0.523558	  0.077652	  0.848444,
  0.470066	  0.780736	 -0.411691,
 -0.067001	  0.869315	 -0.489696,
 -0.266906	  0.953897	 -0.137267,
  0.313987	  0.651395	  0.690722,
  0.717767	  0.499860	 -0.484717,
 -0.563369	  0.380534	 -0.733355,
 -0.863398	  0.270420	 -0.425931,
 -0.662757	  0.743115	  0.092379,
 -0.620437	 -0.711445	  0.330006,
 -0.014581	 -0.280956	  0.959610,
  0.042422	  0.286621	  0.957104,
 -0.932626	 -0.184444	 -0.310143,
  0.028979	  0.551892	  0.833412,
 -0.301834	  0.901876	  0.309057,
 -0.892838	  0.076933	  0.443758,
 -0.639293	  0.454950	  0.619939,
 -0.721227	 -0.616301	  0.316234,
]
}
normalIndex [
   0,	   1,	   2, -1
   2,	   3,	   0, -1
   4,	   1,	   0, -1
   5,	   6,	   0, -1
   4,	   0,	   6, -1
   5,	   0,	   3, -1
   1,	   7,	   2, -1
   1,	   8,	   9, -1
   7,	   1,	   9, -1
   1,	   4,	   8, -1
   2,	   7,	  10, -1
  10,	  11,	   2, -1
  11,	  12,	   2, -1
  13,	   2,	  12, -1
  13,	   3,	   2, -1
  14,	   3,	  13, -1
   3,	  14,	  15, -1
   5,	   3,	  16, -1
  16,	   3,	  15, -1
   6,	  17,	   4, -1
   4,	  17,	  18, -1
   4,	  18,	   8, -1
   5,	  17,	   6, -1
  19,	  17,	   5, -1
   5,	  20,	  19, -1
   5,	  16,	  21, -1
  20,	   5,	  21, -1
  10,	   7,	  22, -1
   7,	   9,	  23, -1
  22,	   7,	  23, -1
   8,	  24,	   9, -1
  18,	  24,	   8, -1
   9,	  24,	  23, -1
  11,	  10,	  25, -1
  25,	  10,	  22, -1
  25,	  26,	  11, -1
  11,	  26,	  12, -1
  12,	  27,	  28, -1
  12,	  26,	  27, -1
  12,	  29,	  13, -1
  30,	  29,	  12, -1
  28,	  30,	  12, -1
  13,	  31,	  14, -1
  13,	  29,	  32, -1
  31,	  13,	  32, -1
  33,	  14,	  34, -1
  14,	  31,	  35, -1
  36,	  14,	  37, -1
  15,	  14,	  36, -1
  34,	  14,	  35, -1
  14,	  38,	  39, -1
  14,	  33,	  38, -1
  14,	  39,	  37, -1
  40,	  16,	  15, -1
  36,	  40,	  15, -1
  41,	  42,	  16, -1
  41,	  16,	  43, -1
  42,	  21,	  16, -1
  44,	  16,	  40, -1
  43,	  16,	  44, -1
  17,	  45,	  46, -1
  17,	  46,	  18, -1
  19,	  47,	  17, -1
  17,	  48,	  45, -1
  47,	  48,	  17, -1
  46,	  24,	  18, -1
  19,	  49,	  47, -1
  19,	  20,	  49, -1
  20,	  50,	  51, -1
  20,	  51,	  49, -1
  20,	  21,	  50, -1
  52,	  21,	  53, -1
  42,	  53,	  21, -1
  54,	  21,	  55, -1
  55,	  21,	  52, -1
  50,	  21,	  54, -1
  25,	  22,	  56, -1
  22,	  23,	  57, -1
  56,	  22,	  57, -1
  23,	  24,	  57, -1
  58,	  59,	  24, -1
  57,	  24,	  59, -1
  58,	  24,	  46, -1
  60,	  25,	  56, -1
  26,	  25,	  60, -1
  26,	  60,	  61, -1
  26,	  61,	  27, -1
  28,	  27,	  62, -1
  62,	  27,	  63, -1
  63,	  27,	  61, -1
  30,	  28,	  64, -1
  62,	  64,	  28, -1
  44,	  29,	  30, -1
  32,	  29,	  44, -1
  44,	  30,	  64, -1
  35,	  31,	  32, -1
  35,	  32,	  37, -1
  37,	  32,	  40, -1
  32,	  44,	  40, -1
  34,	  65,	  33, -1
  66,	  33,	  65, -1
  37,	  39,	  33, -1
  37,	  33,	  66, -1
  33,	  67,	  38, -1
  67,	  33,	  68, -1
  69,	  68,	  33, -1
  69,	  33,	  39, -1
  34,	  70,	  65, -1
  70,	  34,	  35, -1
  70,	  35,	  37, -1
  37,	  40,	  36, -1
  66,	  65,	  37, -1
  65,	  70,	  37, -1
  38,	  69,	  39, -1
  38,	  67,	  69, -1
  71,	  42,	  41, -1
  41,	  51,	  71, -1
  72,	  41,	  43, -1
  41,	  72,	  51, -1
  73,	  42,	  71, -1
  53,	  42,	  73, -1
  43,	  44,	  72, -1
  64,	  74,	  44, -1
  44,	  74,	  72, -1
  46,	  45,	  58, -1
  58,	  45,	  59, -1
  48,	  59,	  45, -1
  47,	  60,	  48, -1
  60,	  47,	  75, -1
  47,	  49,	  75, -1
  56,	  59,	  48, -1
  48,	  60,	  56, -1
  51,	  75,	  49, -1
  51,	  50,	  71, -1
  50,	  73,	  71, -1
  50,	  54,	  73, -1
  51,	  72,	  75, -1
  52,	  53,	  68, -1
  52,	  68,	  69, -1
  76,	  55,	  52, -1
  52,	  67,	  76, -1
  67,	  52,	  69, -1
  73,	  77,	  53, -1
  53,	  77,	  68, -1
  54,	  55,	  77, -1
  54,	  77,	  73, -1
  55,	  68,	  77, -1
  76,	  68,	  55, -1
  59,	  56,	  57, -1
  60,	  75,	  61, -1
  72,	  63,	  61, -1
  72,	  61,	  75, -1
  62,	  78,	  64, -1
  62,	  79,	  80, -1
  80,	  78,	  62, -1
  81,	  79,	  62, -1
  81,	  62,	  63, -1
  82,	  81,	  63, -1
  83,	  82,	  63, -1
  83,	  63,	  84, -1
  72,	  84,	  63, -1
  64,	  78,	  74, -1
  76,	  67,	  68, -1
  72,	  74,	  84, -1
  74,	  85,	  86, -1
  87,	  74,	  86, -1
  84,	  74,	  87, -1
  88,	  74,	  78, -1
  74,	  88,	  85, -1
  88,	  78,	  89, -1
  90,	  78,	  91, -1
  89,	  78,	  90, -1
  78,	  80,	  91, -1
  92,	  80,	  79, -1
  81,	  93,	  79, -1
  79,	  93,	  92, -1
  91,	  80,	  92, -1
  93,	  81,	  82, -1
  93,	  82,	  94, -1
  82,	  83,	  95, -1
  82,	  95,	  94, -1
  83,	  96,	  97, -1
  83,	  97,	  95, -1
  96,	  83,	  84, -1
  96,	  84,	  87, -1
  85,	  98,	  86, -1
  88,	  99,	  85, -1
  99,	  98,	  85, -1
 100,	  87,	  86, -1
 100,	  86,	 101, -1
  86,	  98,	 101, -1
 102,	  87,	 101, -1
 101,	  87,	 100, -1
  87,	 102,	  96, -1
  89,	 103,	  88, -1
  88,	 103,	  99, -1
  89,	  90,	 104, -1
 105,	  89,	 104, -1
 106,	  89,	 105, -1
  89,	 106,	 107, -1
 107,	 103,	  89, -1
  90,	  91,	 108, -1
  90,	 108,	 104, -1
 108,	  91,	  92, -1
 108,	  92,	  93, -1
 108,	  93,	  94, -1
 104,	 108,	  94, -1
 104,	  94,	  95, -1
 105,	 104,	  95, -1
 106,	  95,	 109, -1
  95,	  97,	 109, -1
 105,	  95,	 106, -1
  97,	  96,	 109, -1
  96,	 102,	 110, -1
 109,	  96,	 111, -1
  96,	 110,	 111, -1
 112,	 101,	  98, -1
 113,	  98,	  99, -1
 112,	  98,	 113, -1
 103,	 114,	  99, -1
  99,	 114,	 113, -1
 112,	 102,	 101, -1
 115,	 102,	 112, -1
 110,	 102,	 115, -1
 116,	 103,	 107, -1
 114,	 103,	 116, -1
 117,	 107,	 106, -1
 109,	 117,	 106, -1
 116,	 107,	 117, -1
 109,	 111,	 117, -1
 110,	 118,	 119, -1
 111,	 110,	 119, -1
 115,	 118,	 110, -1
 111,	 116,	 117, -1
 111,	 119,	 114, -1
 114,	 116,	 111, -1
 115,	 112,	 120, -1
 120,	 112,	 113, -1
 114,	 119,	 113, -1
 113,	 119,	 118, -1
 118,	 120,	 113, -1
 120,	 118,	 115, -1
]
normalPerVertex TRUE
}
}
]
}
