#VRML V2.0 utf8 
Transform { 
 children [ 
    Shape { 
   geometry IndexedFaceSet { 
   solid FALSE 
    coord DEF bone Coordinate{ 
     point [ 
	  0.024752  -0.105001  -0.057002,
	  0.024783  -0.096053  -0.055540,
	  0.041281  -0.103117  -0.069408,
	  0.034463  -0.109923  -0.059980,
	  0.010223  -0.100099  -0.055770,
	  0.002450  -0.114451  -0.070701,
	  0.006717  -0.105744  -0.062249,
	  0.029518  -0.086984  -0.064535,
	  0.015576  -0.091401  -0.055727,
	  0.020174  -0.087024  -0.056784,
	  0.039787  -0.083959  -0.081192,
	  0.038319  -0.081942  -0.096234,
	  0.045323  -0.079042  -0.088833,
	  0.045370  -0.098659  -0.060295,
	  0.055637  -0.116650  -0.016874,
	  0.032559  -0.107527  -0.051754,
	  0.006412  -0.108704  -0.049913,
	 -0.000129  -0.098067  -0.065912,
	  0.008405  -0.091498  -0.056620,
	 -0.007584  -0.111664  -0.080703,
	 -0.015357  -0.112512  -0.071675,
	 -0.011698  -0.123870  -0.050130,
	  0.025772  -0.079206  -0.069411,
	  0.021849  -0.082590  -0.061383,
	  0.011475  -0.083901  -0.059263,
	  0.025502  -0.073181  -0.089113,
	  0.015867  -0.075864  -0.104575,
	  0.027284  -0.060690  -0.099000,
	  0.057638  -0.064217  -0.096830,
	  0.043713  -0.080699  -0.064706,
	  0.041593  -0.070991  -0.078833,
	  0.050924  -0.105849  -0.036449,
	  0.043842  -0.092839  -0.041738,
	  0.031537  -0.130939   0.000351,
	  0.062138  -0.112129  -0.002221,
	  0.065259  -0.108641  -0.023867,
	  0.034575  -0.100526  -0.044255,
	  0.031599  -0.097725  -0.037258,
	  0.033023  -0.135126  -0.005631,
	  0.024443  -0.123607  -0.019243,
	  0.024708  -0.088290  -0.052861,
	 -0.038153  -0.087505  -0.052960,
	 -0.039744  -0.103528  -0.061559,
	 -0.002173  -0.063393  -0.066890,
	  0.027969  -0.065140  -0.061986,
	 -0.002662  -0.087317  -0.072831,
	  0.002058  -0.086965  -0.060240,
	 -0.010461  -0.094040  -0.092403,
	 -0.004391  -0.083285  -0.089785,
	 -0.018144  -0.096915  -0.075543,
	 -0.024546  -0.119724  -0.072478,
	 -0.023655  -0.093033  -0.067604,
	 -0.009103  -0.135907  -0.040325,
	 -0.048411  -0.117497  -0.054166,
	 -0.031991  -0.134590  -0.069475,
	 -0.027108  -0.148177  -0.052030,
	  0.014772  -0.073480  -0.077771,
	  0.016998  -0.077931  -0.065144,
	  0.002691  -0.081400  -0.064622,
	  0.009510  -0.077375  -0.065884,
	 -0.000844  -0.082033  -0.100261,
	 -0.000958  -0.064297  -0.092581,
	  0.063365  -0.042400  -0.106864,
	  0.024152  -0.039670  -0.099770,
	  0.051185  -0.051297  -0.095127,
	  0.040322  -0.105992  -0.002407,
	  0.031821  -0.115950  -0.001799,
	  0.014429  -0.150447  -0.025230,
	 -0.019512  -0.144891  -0.036161,
	  0.022153  -0.128989  -0.019016,
	  0.060899  -0.104731  -0.004815,
	 -0.031162  -0.099796  -0.067764,
	 -0.008064  -0.045232  -0.070120,
	 -0.044618  -0.108944  -0.069124,
	  0.003488  -0.021391  -0.060801,
	 -0.013769  -0.081385  -0.084058,
	 -0.004929  -0.153970  -0.035677,
	 -0.048538  -0.130031  -0.060259,
	  0.030261  -0.001983  -0.098576,
	  0.078361  -0.046996  -0.121746,
	  0.087200  -0.033100  -0.118718,
	  0.058933  -0.042764  -0.112591,
	  0.042139   0.010764  -0.123584,
	  0.009686  -0.006066  -0.079831,
	 -0.014725  -0.038638  -0.073290,
	 -0.009972  -0.008805  -0.055110,
	 -0.017159  -0.023020  -0.050771,
	 -0.033059  -0.039788  -0.063216,
	  0.004684   0.011280  -0.066276,
	  0.018595   0.058787  -0.085194,
	  0.061070   0.013723  -0.120518,
	  0.078834  -0.011090  -0.122779,
	  0.086016  -0.021616  -0.127749,
	  0.069093  -0.013609  -0.132935,
	  0.045082   0.018124  -0.132586,
	  0.021371   0.049922  -0.103489,
	 -0.039864   0.016744  -0.068258,
	 -0.010380   0.039026  -0.071741,
	 -0.031696  -0.011409  -0.059151,
	 -0.023583   0.008388  -0.052254,
	 -0.043139  -0.034091  -0.057141,
	 -0.046940  -0.023585  -0.055856,
	 -0.044989  -0.012531  -0.063785,
	  0.002955   0.032890  -0.059553,
	  0.044525   0.038914  -0.119140,
	  0.023496   0.056831  -0.100713,
	  0.000390   0.060732  -0.076345,
	  0.006679   0.056170  -0.070947,
	  0.070978   0.005373  -0.132645,
	 -0.017918   0.049313  -0.073602,
	 -0.052845   0.014738  -0.057869,
	 -0.034631   0.041697  -0.061410,
	 -0.048509  -0.007667  -0.056811,
	 -0.043242   0.002993  -0.043881,
	 -0.034130   0.022086  -0.048853,
	 -0.055556   0.004753  -0.055989,
	 -0.012733   0.047071  -0.058907,
	 -0.013984   0.054229  -0.067624,
	 -0.055367   0.003760  -0.050538,
	 -0.050564   0.019855  -0.051671,
	 -0.053083  -0.006043  -0.051667,
     ]    } 
    coordIndex [ 
	     0,      1,      2, -1 
	     2,      3,      0, -1 
	     4,      1,      0, -1 
	     5,      6,      0, -1 
	     4,      0,      6, -1 
	     5,      0,      3, -1 
	     1,      7,      2, -1 
	     1,      8,      9, -1 
	     7,      1,      9, -1 
	     1,      4,      8, -1 
	     2,      7,     10, -1 
	    10,     11,      2, -1 
	    11,     12,      2, -1 
	    13,      2,     12, -1 
	    13,      3,      2, -1 
	    14,      3,     13, -1 
	     3,     14,     15, -1 
	     5,      3,     16, -1 
	    16,      3,     15, -1 
	     6,     17,      4, -1 
	     4,     17,     18, -1 
	     4,     18,      8, -1 
	     5,     17,      6, -1 
	    19,     17,      5, -1 
	     5,     20,     19, -1 
	     5,     16,     21, -1 
	    20,      5,     21, -1 
	    10,      7,     22, -1 
	     7,      9,     23, -1 
	    22,      7,     23, -1 
	     8,     24,      9, -1 
	    18,     24,      8, -1 
	     9,     24,     23, -1 
	    11,     10,     25, -1 
	    25,     10,     22, -1 
	    25,     26,     11, -1 
	    11,     26,     12, -1 
	    12,     27,     28, -1 
	    12,     26,     27, -1 
	    12,     29,     13, -1 
	    30,     29,     12, -1 
	    28,     30,     12, -1 
	    13,     31,     14, -1 
	    13,     29,     32, -1 
	    31,     13,     32, -1 
	    33,     14,     34, -1 
	    14,     31,     35, -1 
	    36,     14,     37, -1 
	    15,     14,     36, -1 
	    34,     14,     35, -1 
	    14,     38,     39, -1 
	    14,     33,     38, -1 
	    14,     39,     37, -1 
	    40,     16,     15, -1 
	    36,     40,     15, -1 
	    41,     42,     16, -1 
	    41,     16,     43, -1 
	    42,     21,     16, -1 
	    44,     16,     40, -1 
	    43,     16,     44, -1 
	    17,     45,     46, -1 
	    17,     46,     18, -1 
	    19,     47,     17, -1 
	    17,     48,     45, -1 
	    47,     48,     17, -1 
	    46,     24,     18, -1 
	    19,     49,     47, -1 
	    19,     20,     49, -1 
	    20,     50,     51, -1 
	    20,     51,     49, -1 
	    20,     21,     50, -1 
	    52,     21,     53, -1 
	    42,     53,     21, -1 
	    54,     21,     55, -1 
	    55,     21,     52, -1 
	    50,     21,     54, -1 
	    25,     22,     56, -1 
	    22,     23,     57, -1 
	    56,     22,     57, -1 
	    23,     24,     57, -1 
	    58,     59,     24, -1 
	    57,     24,     59, -1 
	    58,     24,     46, -1 
	    60,     25,     56, -1 
	    26,     25,     60, -1 
	    26,     60,     61, -1 
	    26,     61,     27, -1 
	    28,     27,     62, -1 
	    62,     27,     63, -1 
	    63,     27,     61, -1 
	    30,     28,     64, -1 
	    62,     64,     28, -1 
	    44,     29,     30, -1 
	    32,     29,     44, -1 
	    44,     30,     64, -1 
	    35,     31,     32, -1 
	    35,     32,     37, -1 
	    37,     32,     40, -1 
	    32,     44,     40, -1 
	    34,     65,     33, -1 
	    66,     33,     65, -1 
	    37,     39,     33, -1 
	    37,     33,     66, -1 
	    33,     67,     38, -1 
	    67,     33,     68, -1 
	    69,     68,     33, -1 
	    69,     33,     39, -1 
	    34,     70,     65, -1 
	    70,     34,     35, -1 
	    70,     35,     37, -1 
	    37,     40,     36, -1 
	    66,     65,     37, -1 
	    65,     70,     37, -1 
	    38,     69,     39, -1 
	    38,     67,     69, -1 
	    71,     42,     41, -1 
	    41,     51,     71, -1 
	    72,     41,     43, -1 
	    41,     72,     51, -1 
	    73,     42,     71, -1 
	    53,     42,     73, -1 
	    43,     44,     72, -1 
	    64,     74,     44, -1 
	    44,     74,     72, -1 
	    46,     45,     58, -1 
	    58,     45,     59, -1 
	    48,     59,     45, -1 
	    47,     60,     48, -1 
	    60,     47,     75, -1 
	    47,     49,     75, -1 
	    56,     59,     48, -1 
	    48,     60,     56, -1 
	    51,     75,     49, -1 
	    51,     50,     71, -1 
	    50,     73,     71, -1 
	    50,     54,     73, -1 
	    51,     72,     75, -1 
	    52,     53,     68, -1 
	    52,     68,     69, -1 
	    76,     55,     52, -1 
	    52,     67,     76, -1 
	    67,     52,     69, -1 
	    73,     77,     53, -1 
	    53,     77,     68, -1 
	    54,     55,     77, -1 
	    54,     77,     73, -1 
	    55,     68,     77, -1 
	    76,     68,     55, -1 
	    59,     56,     57, -1 
	    60,     75,     61, -1 
	    72,     63,     61, -1 
	    72,     61,     75, -1 
	    62,     78,     64, -1 
	    62,     79,     80, -1 
	    80,     78,     62, -1 
	    81,     79,     62, -1 
	    81,     62,     63, -1 
	    82,     81,     63, -1 
	    83,     82,     63, -1 
	    83,     63,     84, -1 
	    72,     84,     63, -1 
	    64,     78,     74, -1 
	    76,     67,     68, -1 
	    72,     74,     84, -1 
	    74,     85,     86, -1 
	    87,     74,     86, -1 
	    84,     74,     87, -1 
	    88,     74,     78, -1 
	    74,     88,     85, -1 
	    88,     78,     89, -1 
	    90,     78,     91, -1 
	    89,     78,     90, -1 
	    78,     80,     91, -1 
	    92,     80,     79, -1 
	    81,     93,     79, -1 
	    79,     93,     92, -1 
	    91,     80,     92, -1 
	    93,     81,     82, -1 
	    93,     82,     94, -1 
	    82,     83,     95, -1 
	    82,     95,     94, -1 
	    83,     96,     97, -1 
	    83,     97,     95, -1 
	    96,     83,     84, -1 
	    96,     84,     87, -1 
	    85,     98,     86, -1 
	    88,     99,     85, -1 
	    99,     98,     85, -1 
	   100,     87,     86, -1 
	   100,     86,    101, -1 
	    86,     98,    101, -1 
	   102,     87,    101, -1 
	   101,     87,    100, -1 
	    87,    102,     96, -1 
	    89,    103,     88, -1 
	    88,    103,     99, -1 
	    89,     90,    104, -1 
	   105,     89,    104, -1 
	   106,     89,    105, -1 
	    89,    106,    107, -1 
	   107,    103,     89, -1 
	    90,     91,    108, -1 
	    90,    108,    104, -1 
	   108,     91,     92, -1 
	   108,     92,     93, -1 
	   108,     93,     94, -1 
	   104,    108,     94, -1 
	   104,     94,     95, -1 
	   105,    104,     95, -1 
	   106,     95,    109, -1 
	    95,     97,    109, -1 
	   105,     95,    106, -1 
	    97,     96,    109, -1 
	    96,    102,    110, -1 
	   109,     96,    111, -1 
	    96,    110,    111, -1 
	   112,    101,     98, -1 
	   113,     98,     99, -1 
	   112,     98,    113, -1 
	   103,    114,     99, -1 
	    99,    114,    113, -1 
	   112,    102,    101, -1 
	   115,    102,    112, -1 
	   110,    102,    115, -1 
	   116,    103,    107, -1 
	   114,    103,    116, -1 
	   117,    107,    106, -1 
	   109,    117,    106, -1 
	   116,    107,    117, -1 
	   109,    111,    117, -1 
	   110,    118,    119, -1 
	   111,    110,    119, -1 
	   115,    118,    110, -1 
	   111,    116,    117, -1 
	   111,    119,    114, -1 
	   114,    116,    111, -1 
	   115,    112,    120, -1 
	   120,    112,    113, -1 
	   114,    119,    113, -1 
	   113,    119,    118, -1 
	   118,    120,    113, -1 
	   120,    118,    115, -1 
    ] 
   colorPerVertex FALSE 
    colorIndex [ 
	  1, 
	  1, 
	  1, 
	  1, 
	  1, 
	  1, 
	  1, 
	  1, 
	  1, 
	  1, 
	  1, 
	  1, 
	  1, 
	  1, 
	  1, 
	  1, 
	  1, 
	  1, 
	  1, 
	  1, 
	  1, 
	  1, 
	  1, 
	  1, 
	  1, 
	  1, 
	  1, 
	  1, 
	  1, 
	  1, 
	  1, 
	  1, 
	  1, 
	  1, 
	  1, 
	  1, 
	  1, 
	  1, 
	  1, 
	  1, 
	  1, 
	  1, 
	  1, 
	  1, 
	  1, 
	  1, 
	  1, 
	  1, 
	  1, 
	  1, 
	  1, 
	  1, 
	  1, 
	  1, 
	  1, 
	  1, 
	  1, 
	  1, 
	  1, 
	  1, 
	  1, 
	  1, 
	  1, 
	  1, 
	  1, 
	  1, 
	  1, 
	  1, 
	  1, 
	  1, 
	  1, 
	  1, 
	  1, 
	  1, 
	  1, 
	  1, 
	  1, 
	  1, 
	  1, 
	  1, 
	  1, 
	  1, 
	  1, 
	  1, 
	  1, 
	  1, 
	  1, 
	  1, 
	  1, 
	  1, 
	  1, 
	  1, 
	  1, 
	  1, 
	  1, 
	  1, 
	  1, 
	  1, 
	  1, 
	  1, 
	  1, 
	  1, 
	  1, 
	  1, 
	  1, 
	  1, 
	  1, 
	  1, 
	  1, 
	  1, 
	  1, 
	  1, 
	  1, 
	  1, 
	  1, 
	  1, 
	  1, 
	  1, 
	  1, 
	  1, 
	  1, 
    ] 
normal Normal { 
vector [ 
	 -0.121229   0.359878  -0.925090,
	 -0.354023  -0.104927  -0.929332,
	 -0.267537  -0.600731  -0.753357,
	  0.149599  -0.948998  -0.277531,
	  0.310915   0.215176  -0.925760,
	  0.545957  -0.403891  -0.734032,
	  0.461437   0.510762  -0.725395,
	 -0.637155  -0.471716  -0.609523,
	  0.066755  -0.198429  -0.977839,
	 -0.242120  -0.455980  -0.856423,
	 -0.761350  -0.588225  -0.272647,
	 -0.435040  -0.819409  -0.373243,
	  0.902474  -0.105892  -0.417525,
	  0.979260  -0.156690  -0.128446,
	  0.298445  -0.932280  -0.204414,
	 -0.524019  -0.588970   0.615238,
	  0.004593  -0.267670   0.963500,
	  0.836107   0.113477  -0.536701,
	  0.384632  -0.107701  -0.916765,
	  0.010792  -0.549332  -0.835535,
	 -0.270876  -0.652059  -0.708128,
	  0.806719  -0.590347   0.026366,
	 -0.442444  -0.802043  -0.401211,
	 -0.334209  -0.676750  -0.655983,
	  0.114995  -0.573523  -0.811078,
	 -0.210331  -0.977590  -0.008925,
	  0.081692  -0.106371  -0.990965,
	 -0.028317  -0.102829  -0.994296,
	  0.928279  -0.356060   0.107331,
	  0.904981   0.383230   0.184779,
	  0.841450   0.216414   0.495104,
	  0.874146  -0.080398  -0.478963,
	  0.597962   0.712441   0.367245,
	 -0.386977  -0.146409   0.910392,
	  0.692764  -0.301178   0.655263,
	  0.975002   0.120513  -0.186673,
	 -0.808007  -0.531388   0.254465,
	 -0.764908   0.570408   0.299248,
	  0.676044  -0.687131  -0.266112,
	 -0.316785  -0.457139  -0.831067,
	 -0.522677   0.163736   0.836659,
	 -0.762496   0.574170   0.298210,
	 -0.660002   0.551070   0.510608,
	  0.008816   0.268014   0.963375,
	  0.217492   0.385372   0.896764,
	  0.911922  -0.377030  -0.162007,
	  0.670086  -0.253985  -0.697478,
	  0.051260  -0.506395  -0.860777,
	  0.800223  -0.592796  -0.090749,
	 -0.836732  -0.204561  -0.507971,
	  0.169056  -0.132224  -0.976697,
	 -0.630911   0.166530  -0.757773,
	  0.716507   0.551027  -0.427770,
	 -0.571314   0.439045   0.693427,
	  0.067810  -0.515173  -0.854399,
	  0.102875  -0.877018  -0.469315,
	  0.104531  -0.986292  -0.127675,
	 -0.148657  -0.834996  -0.529795,
	  0.558320  -0.701964  -0.442183,
	  0.360558  -0.870106  -0.336025,
	 -0.011922  -0.828766  -0.559468,
	 -0.531323   0.329204  -0.780590,
	  0.527607  -0.708164   0.469184,
	 -0.502312  -0.218437  -0.836641,
	  0.669137   0.259446   0.696379,
	 -0.174760   0.523640   0.833823,
	 -0.759849   0.332308   0.558749,
	  0.489285  -0.865157  -0.110017,
	 -0.603308  -0.122417   0.788057,
	  0.122695   0.849226  -0.513576,
	  0.442904   0.801604   0.401581,
	 -0.407576   0.479503  -0.777148,
	 -0.965919   0.143339   0.215533,
	 -0.677614   0.297518  -0.672550,
	  0.406231  -0.117872   0.906136,
	 -0.837575   0.175274  -0.517443,
	  0.150003  -0.938292  -0.311619,
	 -0.875424  -0.473345  -0.097865,
	  0.609002   0.176478   0.773287,
	  0.283884  -0.829958  -0.480186,
	  0.799383   0.002763   0.600815,
	 -0.389343  -0.745245  -0.541314,
	 -0.692890  -0.244899  -0.678180,
	 -0.565430   0.010556  -0.824729,
	 -0.613406  -0.494181  -0.616050,
	  0.211799   0.103396   0.971828,
	  0.064613  -0.137611   0.988377,
	 -0.346567  -0.838210  -0.421063,
	  0.664658   0.016412   0.746968,
	  0.730417   0.473330   0.492392,
	  0.746819   0.379468   0.546136,
	  0.729546   0.431836   0.530358,
	  0.831558   0.071187  -0.550858,
	 -0.223933  -0.273109  -0.935556,
	 -0.384453   0.089694  -0.918777,
	 -0.639350   0.144805  -0.755158,
	 -0.393668   0.039438  -0.918407,
	 -0.365570  -0.201200  -0.908778,
	  0.002264  -0.112789   0.993616,
	  0.322325  -0.128057   0.937928,
	 -0.436550  -0.644182   0.628055,
	 -0.916588  -0.078400   0.392072,
	 -0.716056  -0.189967  -0.671697,
	  0.523558   0.077652   0.848444,
	  0.470066   0.780736  -0.411691,
	 -0.067001   0.869315  -0.489696,
	 -0.266906   0.953897  -0.137268,
	  0.313987   0.651395   0.690722,
	  0.717767   0.499860  -0.484717,
	 -0.563369   0.380534  -0.733355,
	 -0.863398   0.270420  -0.425931,
	 -0.662757   0.743115   0.092379,
	 -0.620437  -0.711445   0.330006,
	 -0.014581  -0.280956   0.959610,
	  0.042422   0.286621   0.957104,
	 -0.932626  -0.184444  -0.310143,
	  0.028980   0.551892   0.833412,
	 -0.301834   0.901876   0.309056,
	 -0.892838   0.076933   0.443758,
	 -0.639294   0.454950   0.619939,
	 -0.721227  -0.616301   0.316234,
     ]    } 
normalIndex      [ 
	     3,      0,      1, -1 
	     3,      2,      3, -1 
	     3,      4,      1, -1 
	     3,      5,      6, -1 
	     3,      4,      0, -1 
	     3,      5,      0, -1 
	     3,      1,      7, -1 
	     3,      1,      8, -1 
	     3,      7,      1, -1 
	     3,      1,      4, -1 
	     3,      2,      7, -1 
	     3,     10,     11, -1 
	     3,     11,     12, -1 
	     3,     13,      2, -1 
	     3,     13,      3, -1 
	     3,     14,      3, -1 
	     3,      3,     14, -1 
	     3,      5,      3, -1 
	     3,     16,      3, -1 
	     3,      6,     17, -1 
	     3,      4,     17, -1 
	     3,      4,     18, -1 
	     3,      5,     17, -1 
	     3,     19,     17, -1 
	     3,      5,     20, -1 
	     3,      5,     16, -1 
	     3,     20,      5, -1 
	     3,     10,      7, -1 
	     3,      7,      9, -1 
	     3,     22,      7, -1 
	     3,      8,     24, -1 
	     3,     18,     24, -1 
	     3,      9,     24, -1 
	     3,     11,     10, -1 
	     3,     25,     10, -1 
	     3,     25,     26, -1 
	     3,     11,     26, -1 
	     3,     12,     27, -1 
	     3,     12,     26, -1 
	     3,     12,     29, -1 
	     3,     30,     29, -1 
	     3,     28,     30, -1 
	     3,     13,     31, -1 
	     3,     13,     29, -1 
	     3,     31,     13, -1 
	     3,     33,     14, -1 
	     3,     14,     31, -1 
	     3,     36,     14, -1 
	     3,     15,     14, -1 
	     3,     34,     14, -1 
	     3,     14,     38, -1 
	     3,     14,     33, -1 
	     3,     14,     39, -1 
	     3,     40,     16, -1 
	     3,     36,     40, -1 
	     3,     41,     42, -1 
	     3,     41,     16, -1 
	     3,     42,     21, -1 
	     3,     44,     16, -1 
	     3,     43,     16, -1 
	     3,     17,     45, -1 
	     3,     17,     46, -1 
	     3,     19,     47, -1 
	     3,     17,     48, -1 
	     3,     47,     48, -1 
	     3,     46,     24, -1 
	     3,     19,     49, -1 
	     3,     19,     20, -1 
	     3,     20,     50, -1 
	     3,     20,     51, -1 
	     3,     20,     21, -1 
	     3,     52,     21, -1 
	     3,     42,     53, -1 
	     3,     54,     21, -1 
	     3,     55,     21, -1 
	     3,     50,     21, -1 
	     3,     25,     22, -1 
	     3,     22,     23, -1 
	     3,     56,     22, -1 
	     3,     23,     24, -1 
	     3,     58,     59, -1 
	     3,     57,     24, -1 
	     3,     58,     24, -1 
	     3,     60,     25, -1 
	     3,     26,     25, -1 
	     3,     26,     60, -1 
	     3,     26,     61, -1 
	     3,     28,     27, -1 
	     3,     62,     27, -1 
	     3,     63,     27, -1 
	     3,     30,     28, -1 
	     3,     62,     64, -1 
	     3,     44,     29, -1 
	     3,     32,     29, -1 
	     3,     44,     30, -1 
	     3,     35,     31, -1 
	     3,     35,     32, -1 
	     3,     37,     32, -1 
	     3,     32,     44, -1 
	     3,     34,     65, -1 
	     3,     66,     33, -1 
	     3,     37,     39, -1 
	     3,     37,     33, -1 
	     3,     33,     67, -1 
	     3,     67,     33, -1 
	     3,     69,     68, -1 
	     3,     69,     33, -1 
	     3,     34,     70, -1 
	     3,     70,     34, -1 
	     3,     70,     35, -1 
	     3,     37,     40, -1 
	     3,     66,     65, -1 
	     3,     65,     70, -1 
	     3,     38,     69, -1 
	     3,     38,     67, -1 
	     3,     71,     42, -1 
	     3,     41,     51, -1 
	     3,     72,     41, -1 
	     3,     41,     72, -1 
	     3,     73,     42, -1 
	     3,     53,     42, -1 
	     3,     43,     44, -1 
	     3,     64,     74, -1 
	     3,     44,     74, -1 
	     3,     46,     45, -1 
	     3,     58,     45, -1 
	     3,     48,     59, -1 
	     3,     47,     60, -1 
	     3,     60,     47, -1 
	     3,     47,     49, -1 
	     3,     56,     59, -1 
	     3,     48,     60, -1 
	     3,     51,     75, -1 
	     3,     51,     50, -1 
	     3,     50,     73, -1 
	     3,     50,     54, -1 
	     3,     51,     72, -1 
	     3,     52,     53, -1 
	     3,     52,     68, -1 
	     3,     76,     55, -1 
	     3,     52,     67, -1 
	     3,     67,     52, -1 
	     3,     73,     77, -1 
	     3,     53,     77, -1 
	     3,     54,     55, -1 
	     3,     54,     77, -1 
	     3,     55,     68, -1 
	     3,     76,     68, -1 
	     3,     59,     56, -1 
	     3,     60,     75, -1 
	     3,     72,     63, -1 
	     3,     72,     61, -1 
	     3,     62,     78, -1 
	     3,     62,     79, -1 
	     3,     80,     78, -1 
	     3,     81,     79, -1 
	     3,     81,     62, -1 
	     3,     82,     81, -1 
	     3,     83,     82, -1 
	     3,     83,     63, -1 
	     3,     72,     84, -1 
	     3,     64,     78, -1 
	     3,     76,     67, -1 
	     3,     72,     74, -1 
	     3,     74,     85, -1 
	     3,     87,     74, -1 
	     3,     84,     74, -1 
	     3,     88,     74, -1 
	     3,     74,     88, -1 
	     3,     88,     78, -1 
	     3,     90,     78, -1 
	     3,     89,     78, -1 
	     3,     78,     80, -1 
	     3,     92,     80, -1 
	     3,     81,     93, -1 
	     3,     79,     93, -1 
	     3,     91,     80, -1 
	     3,     93,     81, -1 
	     3,     93,     82, -1 
	     3,     82,     83, -1 
	     3,     82,     95, -1 
	     3,     83,     96, -1 
	     3,     83,     97, -1 
	     3,     96,     83, -1 
	     3,     96,     84, -1 
	     3,     85,     98, -1 
	     3,     88,     99, -1 
	     3,     99,     98, -1 
	     3,    100,     87, -1 
	     3,    100,     86, -1 
	     3,     86,     98, -1 
	     3,    102,     87, -1 
	     3,    101,     87, -1 
	     3,     87,    102, -1 
	     3,     89,    103, -1 
	     3,     88,    103, -1 
	     3,     89,     90, -1 
	     3,    105,     89, -1 
	     3,    106,     89, -1 
	     3,     89,    106, -1 
	     3,    107,    103, -1 
	     3,     90,     91, -1 
	     3,     90,    108, -1 
	     3,    108,     91, -1 
	     3,    108,     92, -1 
	     3,    108,     93, -1 
	     3,    104,    108, -1 
	     3,    104,     94, -1 
	     3,    105,    104, -1 
	     3,    106,     95, -1 
	     3,     95,     97, -1 
	     3,    105,     95, -1 
	     3,     97,     96, -1 
	     3,     96,    102, -1 
	     3,    109,     96, -1 
	     3,     96,    110, -1 
	     3,    112,    101, -1 
	     3,    113,     98, -1 
	     3,    112,     98, -1 
	     3,    103,    114, -1 
	     3,     99,    114, -1 
	     3,    112,    102, -1 
	     3,    115,    102, -1 
	     3,    110,    102, -1 
	     3,    116,    103, -1 
	     3,    114,    103, -1 
	     3,    117,    107, -1 
	     3,    109,    117, -1 
	     3,    116,    107, -1 
	     3,    109,    111, -1 
	     3,    110,    118, -1 
	     3,    111,    110, -1 
	     3,    115,    118, -1 
	     3,    111,    116, -1 
	     3,    111,    119, -1 
	     3,    114,    116, -1 
	     3,    115,    112, -1 
	     3,    120,    112, -1 
	     3,    114,    119, -1 
	     3,    113,    119, -1 
	     3,    118,    120, -1 
	     3,    120,    118, -1 
    ] 
normalPerVertex  TRUE 
   } 
  } 
 ] 
} 
