# 
# Wavefront OBJ file
# Converted by the DEEP Exploration 2.00.1211
# Right Hemisphere, LTD
# http://www.righthemisphere.com/
# 
mtllib pelvis_r.mtl
# object Object #0
g Object__0
v 0.024781 -0.003917 0.069408
v 0.008283 0.003147 0.05554
v 0.008252 -0.005801 0.057002
v 0.023287 0.015241 0.081192
v 0.013018 0.012216 0.064535
v 0.021819 0.017258 0.096234
v 0.028823 0.020158 0.088833
v 0.02887 0.000541 0.060295
v 0.017963 -0.010723 0.05998
v -0.006277 -0.000899 0.05577
v 0.003674 0.012176 0.056784
v -0.000924 0.007799 0.055727
v -0.009783 -0.006544 0.062249
v -0.01405 -0.015251 0.070701
v 0.009002 0.026019 0.089113
v 0.009272 0.019994 0.069411
v 0.005349 0.01661 0.061383
v -0.000633 0.023336 0.104575
v 0.041138 0.034983 0.09683
v 0.010784 0.03851 0.099
v 0.027213 0.018501 0.064706
v 0.025093 0.028209 0.078833
v 0.039137 -0.01745 0.016874
v 0.034424 -0.006649 0.036449
v 0.027342 0.006361 0.041738
v 0.016059 -0.008327 0.051754
v -0.010088 -0.009504 0.049913
v -0.016629 0.001133 0.065912
v -0.008095 0.007702 0.05662
v -0.005025 0.015299 0.059263
v -0.024084 -0.012464 0.080703
v -0.031857 -0.013312 0.071675
v -0.028198 -0.02467 0.05013
v -0.001728 0.02572 0.077771
v -0.017344 0.017167 0.100261
v 0.000498 0.021269 0.065144
v -0.017458 0.034903 0.092581
v 0.034685 0.047903 0.095127
v 0.046865 0.0568 0.106864
v 0.007652 0.05953 0.09977
v 0.011469 0.03406 0.061986
v 0.045638 -0.012929 0.002221
v 0.015037 -0.031739 -0.000351
v 0.048759 -0.009441 0.023867
v 0.015099 0.001475 0.037258
v 0.018075 -0.001326 0.044255
v 0.007943 -0.024407 0.019243
v 0.016523 -0.035926 0.005631
v 0.008208 0.01091 0.052861
v -0.056244 -0.004328 0.061559
v -0.054653 0.011695 0.05296
v -0.018673 0.035807 0.06689
v -0.014442 0.012235 0.06024
v -0.019162 0.011883 0.072831
v -0.026961 0.00516 0.092403
v -0.020891 0.015915 0.089785
v -0.00699 0.021825 0.065884
v -0.013809 0.0178 0.064622
v -0.034644 0.002285 0.075543
v -0.040155 0.006167 0.067604
v -0.041046 -0.020524 0.072478
v -0.064911 -0.018297 0.054166
v -0.025603 -0.036707 0.040325
v -0.043608 -0.048977 0.05203
v -0.048491 -0.03539 0.069475
v -0.030269 0.017815 0.084058
v -0.024564 0.053968 0.07012
v -0.013012 0.077809 0.060801
v 0.013761 0.097217 0.098576
v 0.0707 0.0661 0.118718
v 0.061861 0.052204 0.121746
v 0.042433 0.056436 0.112591
v 0.025639 0.109964 0.123584
v -0.006814 0.093134 0.079831
v -0.031225 0.060562 0.07329
v 0.023822 -0.006792 0.002407
v 0.044399 -0.005531 0.004815
v 0.015321 -0.01675 0.001799
v -0.002071 -0.051247 0.02523
v -0.036012 -0.045691 0.036161
v 0.005653 -0.029789 0.019016
v -0.047662 -0.000596 0.067764
v -0.061118 -0.009744 0.069124
v -0.065038 -0.030831 0.060259
v -0.021429 -0.05477 0.035677
v -0.033659 0.07618 0.050771
v -0.026472 0.090395 0.05511
v -0.049559 0.059412 0.063216
v -0.011816 0.11048 0.066276
v 0.002095 0.157987 0.085194
v 0.062334 0.08811 0.122779
v 0.04457 0.112923 0.120518
v 0.069516 0.077584 0.127749
v 0.052593 0.085591 0.132935
v 0.028582 0.117324 0.132586
v 0.004871 0.149122 0.103489
v -0.02688 0.138226 0.071741
v -0.056364 0.115944 0.068258
v -0.059639 0.065109 0.057141
v -0.06344 0.075615 0.055856
v -0.048196 0.087791 0.059151
v -0.040083 0.107588 0.052254
v -0.061489 0.086669 0.063785
v -0.013545 0.13209 0.059553
v 0.028025 0.138114 0.11914
v 0.006996 0.156031 0.100713
v -0.01611 0.159932 0.076345
v -0.009821 0.15537 0.070947
v 0.054478 0.104573 0.132645
v -0.034418 0.148513 0.073602
v -0.069345 0.113938 0.057869
v -0.051131 0.140897 0.06141
v -0.065009 0.091533 0.056811
v -0.059742 0.102193 0.043881
v -0.05063 0.121286 0.048853
v -0.072056 0.103953 0.055989
v -0.029233 0.146271 0.058907
v -0.030484 0.153429 0.067624
v -0.067064 0.119055 0.051671
v -0.071867 0.10296 0.050538
v -0.069583 0.093157 0.051667
# 121 verticies
vn -0.267537 -0.600731 0.753357
vn -0.354023 -0.104927 0.929332
vn -0.121229 0.359878 0.92509
vn -0.761351 -0.588225 0.272647
vn -0.637155 -0.471716 0.609523
vn -0.43504 -0.819409 0.373243
vn 0.902474 -0.105892 0.417525
vn 0.97926 -0.15669 0.128446
vn 0.149599 -0.948998 0.277531
vn 0.310915 0.215176 0.92576
vn -0.24212 -0.455979 0.856423
vn 0.066755 -0.198429 0.977839
vn 0.461437 0.510762 0.725395
vn 0.545957 -0.403891 0.734032
vn -0.210331 -0.97759 0.008925
vn -0.442443 -0.802043 0.401211
vn -0.334209 -0.67675 0.655983
vn 0.081692 -0.106371 0.990965
vn 0.928279 -0.35606 -0.107331
vn -0.028317 -0.102829 0.994296
vn 0.904981 0.38323 -0.184779
vn 0.84145 0.216414 -0.495103
vn 0.298445 -0.93228 0.204414
vn 0.874146 -0.080398 0.478963
vn 0.597962 0.712441 -0.367245
vn -0.524019 -0.58897 -0.615238
vn 0.004593 -0.26767 -0.9635
vn 0.836107 0.113477 0.536701
vn 0.384632 -0.107701 0.916765
vn 0.114995 -0.573523 0.811078
vn 0.010792 -0.549332 0.835535
vn -0.270876 -0.652059 0.708128
vn 0.806719 -0.590347 -0.026366
vn 0.104531 -0.986292 0.127675
vn -0.011922 -0.828766 0.559468
vn -0.148657 -0.834996 0.529795
vn -0.531323 0.329204 0.78059
vn 0.669137 0.259446 -0.696379
vn 0.527607 -0.708164 -0.469184
vn -0.502312 -0.218437 0.836641
vn 0.217492 0.385371 -0.896764
vn 0.692764 -0.301178 -0.655263
vn -0.386977 -0.146409 -0.910392
vn 0.975002 0.120513 0.186673
vn -0.764908 0.570408 -0.299248
vn -0.808007 -0.531388 -0.254465
vn -0.316785 -0.457139 0.831067
vn 0.676044 -0.687131 0.266112
vn -0.522677 0.163736 -0.836659
vn -0.660002 0.551069 -0.510608
vn -0.762495 0.57417 -0.29821
vn 0.008816 0.268014 -0.963375
vn 0.670086 -0.253985 0.697478
vn 0.911922 -0.37703 0.162007
vn 0.051261 -0.506395 0.860777
vn 0.800223 -0.592796 0.090749
vn 0.360558 -0.870106 0.336025
vn 0.55832 -0.701964 0.442183
vn -0.836732 -0.204561 0.507971
vn -0.630911 0.16653 0.757773
vn 0.169056 -0.132224 0.976697
vn -0.571314 0.439045 -0.693427
vn 0.716507 0.551027 0.42777
vn 0.102875 -0.877018 0.469315
vn 0.06781 -0.515173 0.854399
vn -0.837575 0.175274 0.517443
vn -0.965919 0.143339 -0.215533
vn 0.406231 -0.117873 -0.906136
vn 0.609002 0.176478 -0.773287
vn 0.799383 0.002763 -0.600815
vn 0.283884 -0.829958 0.480186
vn -0.389343 -0.745245 0.541315
vn -0.69289 -0.244899 0.67818
vn -0.56543 0.010556 0.824729
vn -0.613406 -0.494181 0.61605
vn -0.17476 0.52364 -0.833823
vn 0.442904 0.801604 -0.401581
vn -0.759849 0.332307 -0.558749
vn 0.489285 -0.865157 0.110017
vn -0.603308 -0.122417 -0.788057
vn 0.122695 0.849226 0.513576
vn -0.407576 0.479503 0.777148
vn -0.677614 0.297518 0.67255
vn -0.875424 -0.473345 0.097865
vn 0.150003 -0.938292 0.311619
vn 0.064613 -0.137611 -0.988377
vn 0.211799 0.103396 -0.971828
vn -0.346567 -0.838211 0.421063
vn 0.664658 0.016412 -0.746968
vn 0.730417 0.47333 -0.492392
vn 0.729546 0.431836 -0.530358
vn 0.746819 0.379468 -0.546136
vn 0.831558 0.071187 0.550858
vn -0.223933 -0.273109 0.935556
vn -0.384453 0.089694 0.918777
vn -0.63935 0.144805 0.755158
vn -0.36557 -0.2012 0.908778
vn -0.393668 0.039438 0.918406
vn -0.43655 -0.644182 -0.628055
vn -0.916588 -0.0784 -0.392072
vn 0.002264 -0.112789 -0.993616
vn 0.322325 -0.128057 -0.937928
vn -0.716056 -0.189967 0.671697
vn 0.523558 0.077652 -0.848444
vn 0.470066 0.780736 0.411691
vn -0.067001 0.869315 0.489696
vn -0.266906 0.953897 0.137267
vn 0.313987 0.651395 -0.690722
vn 0.717767 0.49986 0.484717
vn -0.563369 0.380534 0.733355
vn -0.863398 0.27042 0.425931
vn -0.662757 0.743115 -0.092379
vn -0.620437 -0.711445 -0.330006
vn -0.014581 -0.280956 -0.95961
vn 0.042422 0.286621 -0.957104
vn -0.932626 -0.184444 0.310143
vn 0.028979 0.551892 -0.833412
vn -0.301834 0.901876 -0.309057
vn -0.639293 0.45495 -0.619939
vn -0.892838 0.076933 -0.443758
vn -0.721227 -0.616301 -0.316234
# 121 normals
usemtl Material__1
f  1//1 2//2 3//3
f  4//4 5//5 1//1
f  1//1 6//6 4//4
f  1//1 5//5 2//2
f  1//1 7//7 6//6
f  7//7 1//1 8//8
f  3//3 9//9 1//1
f  1//1 9//9 8//8
f  3//3 2//2 10//10
f  11//11 12//12 2//2
f  11//11 2//2 5//5
f  12//12 10//10 2//2
f  3//3 13//13 14//14
f  13//13 3//3 10//10
f  9//9 3//3 14//14
f  15//15 4//4 6//6
f  16//16 5//5 4//4
f  16//16 4//4 15//15
f  17//17 11//11 5//5
f  17//17 5//5 16//16
f  6//6 18//18 15//15
f  7//7 18//18 6//6
f  19//19 20//20 7//7
f  20//20 18//18 7//7
f  8//8 21//21 7//7
f  7//7 21//21 22//22
f  7//7 22//22 19//19
f  23//23 24//24 8//8
f  8//8 9//9 23//23
f  25//25 21//21 8//8
f  25//25 8//8 24//24
f  26//26 23//23 9//9
f  27//27 9//9 14//14
f  26//26 9//9 27//27
f  10//10 28//28 13//13
f  29//29 28//28 10//10
f  12//12 29//29 10//10
f  17//17 30//30 11//11
f  11//11 30//30 12//12
f  12//12 30//30 29//29
f  13//13 28//28 14//14
f  14//14 28//28 31//31
f  31//31 32//32 14//14
f  33//33 27//27 14//14
f  33//33 14//14 32//32
f  34//34 15//15 35//35
f  34//34 16//16 15//15
f  35//35 15//15 18//18
f  36//36 17//17 16//16
f  36//36 16//16 34//34
f  36//36 30//30 17//17
f  37//37 35//35 18//18
f  20//20 37//37 18//18
f  38//38 19//19 22//22
f  19//19 38//38 39//39
f  39//39 20//20 19//19
f  40//40 20//20 39//39
f  37//37 20//20 40//40
f  22//22 21//21 41//41
f  41//41 21//21 25//25
f  38//38 22//22 41//41
f  42//42 23//23 43//43
f  44//44 24//24 23//23
f  45//45 23//23 46//46
f  46//46 23//23 26//26
f  44//44 23//23 42//42
f  47//47 48//48 23//23
f  48//48 43//43 23//23
f  45//45 47//47 23//23
f  25//25 24//24 44//44
f  45//45 25//25 44//44
f  49//49 25//25 45//45
f  49//49 41//41 25//25
f  26//26 27//27 49//49
f  26//26 49//49 46//46
f  27//27 50//50 51//51
f  52//52 27//27 51//51
f  27//27 33//33 50//50
f  49//49 27//27 41//41
f  41//41 27//27 52//52
f  53//53 54//54 28//28
f  29//29 53//53 28//28
f  28//28 55//55 31//31
f  54//54 56//56 28//28
f  28//28 56//56 55//55
f  29//29 30//30 53//53
f  30//30 57//57 58//58
f  57//57 30//30 36//36
f  53//53 30//30 58//58
f  55//55 59//59 31//31
f  59//59 32//32 31//31
f  60//60 61//61 32//32
f  59//59 60//60 32//32
f  61//61 33//33 32//32
f  62//62 33//33 63//63
f  33//33 62//62 50//50
f  64//64 33//33 65//65
f  63//63 33//33 64//64
f  65//65 33//33 61//61
f  56//56 57//57 34//34
f  34//34 35//35 56//56
f  36//36 34//34 57//57
f  56//56 35//35 55//55
f  66//66 55//55 35//35
f  37//37 66//66 35//35
f  37//37 40//40 67//67
f  66//66 37//37 67//67
f  41//41 68//68 38//38
f  68//68 69//69 38//38
f  38//38 69//69 39//39
f  70//70 71//71 39//39
f  39//39 69//69 70//70
f  39//39 71//71 72//72
f  40//40 39//39 72//72
f  40//40 72//72 73//73
f  40//40 73//73 74//74
f  75//75 40//40 74//74
f  40//40 75//75 67//67
f  67//67 41//41 52//52
f  67//67 68//68 41//41
f  76//76 77//77 42//42
f  43//43 76//76 42//42
f  44//44 42//42 77//77
f  76//76 43//43 78//78
f  43//43 47//47 45//45
f  78//78 43//43 45//45
f  48//48 79//79 43//43
f  80//80 43//43 79//79
f  43//43 80//80 81//81
f  47//47 43//43 81//81
f  45//45 44//44 77//77
f  45//45 76//76 78//78
f  46//46 49//49 45//45
f  45//45 77//77 76//76
f  47//47 81//81 48//48
f  81//81 79//79 48//48
f  82//82 50//50 83//83
f  83//83 50//50 62//62
f  51//51 50//50 82//82
f  82//82 60//60 51//51
f  52//52 51//51 67//67
f  60//60 67//67 51//51
f  58//58 54//54 53//53
f  57//57 54//54 58//58
f  54//54 57//57 56//56
f  66//66 59//59 55//55
f  59//59 66//66 60//60
f  82//82 61//61 60//60
f  66//66 67//67 60//60
f  82//82 83//83 61//61
f  83//83 65//65 61//61
f  62//62 84//84 83//83
f  80//80 84//84 62//62
f  80//80 62//62 63//63
f  81//81 80//80 63//63
f  63//63 64//64 85//85
f  85//85 79//79 63//63
f  81//81 63//63 79//79
f  84//84 80//80 64//64
f  84//84 64//64 65//65
f  64//64 80//80 85//85
f  83//83 84//84 65//65
f  75//75 68//68 67//67
f  86//86 87//87 68//68
f  86//86 68//68 88//88
f  88//88 68//68 75//75
f  69//69 68//68 89//89
f  87//87 89//89 68//68
f  90//90 69//69 89//89
f  91//91 69//69 92//92
f  92//92 69//69 90//90
f  91//91 70//70 69//69
f  93//93 70//70 91//91
f  71//71 70//70 93//93
f  71//71 94//94 72//72
f  93//93 94//94 71//71
f  73//73 72//72 94//94
f  95//95 73//73 94//94
f  96//96 74//74 73//73
f  95//95 96//96 73//73
f  97//97 98//98 74//74
f  96//96 97//97 74//74
f  75//75 74//74 98//98
f  88//88 75//75 98//98
f  80//80 79//79 85//85
f  86//86 88//88 99//99
f  100//100 86//86 99//99
f  86//86 101//101 87//87
f  100//100 101//101 86//86
f  87//87 102//102 89//89
f  87//87 101//101 102//102
f  100//100 88//88 103//103
f  99//99 88//88 100//100
f  98//98 103//103 88//88
f  89//89 104//104 90//90
f  102//102 104//104 89//89
f  105//105 92//92 90//90
f  105//105 90//90 106//106
f  106//106 90//90 107//107
f  108//108 107//107 90//90
f  90//90 104//104 108//108
f  93//93 91//91 109//109
f  109//109 91//91 92//92
f  105//105 109//109 92//92
f  94//94 93//93 109//109
f  95//95 94//94 109//109
f  95//95 109//109 105//105
f  96//96 95//95 105//105
f  96//96 105//105 106//106
f  110//110 96//96 107//107
f  110//110 97//97 96//96
f  107//107 96//96 106//106
f  110//110 98//98 97//97
f  111//111 103//103 98//98
f  112//112 98//98 110//110
f  112//112 111//111 98//98
f  101//101 100//100 113//113
f  100//100 103//103 113//113
f  102//102 101//101 114//114
f  114//114 101//101 113//113
f  102//102 115//115 104//104
f  114//114 115//115 102//102
f  113//113 103//103 116//116
f  116//116 103//103 111//111
f  108//108 104//104 117//117
f  117//117 104//104 115//115
f  107//107 108//108 118//118
f  107//107 118//118 110//110
f  118//118 108//108 117//117
f  118//118 112//112 110//110
f  119//119 120//120 111//111
f  119//119 111//111 112//112
f  111//111 120//120 116//116
f  118//118 117//117 112//112
f  115//115 119//119 112//112
f  112//112 117//117 115//115
f  121//121 113//113 116//116
f  114//114 113//113 121//121
f  114//114 119//119 115//115
f  120//120 119//119 114//114
f  114//114 121//121 120//120
f  116//116 120//120 121//121
