# 
# Wavefront OBJ file
# Converted by the DEEP Exploration 2.00.1211
# Right Hemisphere, LTD
# http://www.righthemisphere.com/
# 
mtllib pelvis_rb.mtl
# object Object #0
g Object__0
v 0.041281 -0.103117 0.069408
v 0.024783 -0.096053 0.05554
v 0.024752 -0.105001 0.057002
v 0.039787 -0.083959 0.081192
v 0.029518 -0.086984 0.064535
v 0.038319 -0.081942 0.096234
v 0.045323 -0.079042 0.088833
v 0.04537 -0.098659 0.060295
v 0.034463 -0.109923 0.05998
v 0.010223 -0.100099 0.05577
v 0.020174 -0.087024 0.056784
v 0.015576 -0.091401 0.055727
v 0.006717 -0.105744 0.062249
v 0.00245 -0.114451 0.070701
v 0.025502 -0.073181 0.089113
v 0.025772 -0.079206 0.069411
v 0.021849 -0.08259 0.061383
v 0.015867 -0.075864 0.104575
v 0.057638 -0.064217 0.09683
v 0.027284 -0.06069 0.099
v 0.043713 -0.080699 0.064706
v 0.041593 -0.070991 0.078833
v 0.055637 -0.11665 0.016874
v 0.050924 -0.105849 0.036449
v 0.043842 -0.092839 0.041738
v 0.032559 -0.107527 0.051754
v 0.006412 -0.108704 0.049913
v -0.000129 -0.098067 0.065912
v 0.008405 -0.091498 0.05662
v 0.011475 -0.083901 0.059263
v -0.007584 -0.111664 0.080703
v -0.015357 -0.112512 0.071675
v -0.011698 -0.12387 0.05013
v 0.014772 -0.07348 0.077771
v -0.000844 -0.082033 0.100261
v 0.016998 -0.077931 0.065144
v -0.000958 -0.064297 0.092581
v 0.051185 -0.051297 0.095127
v 0.063365 -0.0424 0.106864
v 0.024152 -0.03967 0.09977
v 0.027969 -0.06514 0.061986
v 0.062138 -0.112129 0.002221
v 0.031537 -0.130939 -0.000351
v 0.065259 -0.108641 0.023867
v 0.031599 -0.097725 0.037258
v 0.034575 -0.100526 0.044255
v 0.024443 -0.123607 0.019243
v 0.033023 -0.135126 0.005631
v 0.024708 -0.08829 0.052861
v -0.039744 -0.103528 0.061559
v -0.038153 -0.087505 0.05296
v -0.002173 -0.063393 0.06689
v 0.002058 -0.086965 0.06024
v -0.002662 -0.087317 0.072831
v -0.010461 -0.09404 0.092403
v -0.004391 -0.083285 0.089785
v 0.00951 -0.077375 0.065884
v 0.002691 -0.0814 0.064622
v -0.018144 -0.096915 0.075543
v -0.023655 -0.093033 0.067604
v -0.024546 -0.119724 0.072478
v -0.048411 -0.117497 0.054166
v -0.009103 -0.135907 0.040325
v -0.027108 -0.148177 0.05203
v -0.031991 -0.13459 0.069475
v -0.013769 -0.081385 0.084058
v -0.008064 -0.045232 0.07012
v 0.003488 -0.021391 0.060801
v 0.030261 -0.001983 0.098576
v 0.0872 -0.0331 0.118718
v 0.078361 -0.046996 0.121746
v 0.058933 -0.042764 0.112591
v 0.042139 0.010764 0.123584
v 0.009686 -0.006066 0.079831
v -0.014725 -0.038638 0.07329
v 0.040322 -0.105992 0.002407
v 0.060899 -0.104731 0.004815
v 0.031821 -0.11595 0.001799
v 0.014429 -0.150447 0.02523
v -0.019512 -0.144891 0.036161
v 0.022153 -0.128989 0.019016
v -0.031162 -0.099796 0.067764
v -0.044618 -0.108944 0.069124
v -0.048538 -0.130031 0.060259
v -0.004929 -0.15397 0.035677
v -0.017159 -0.02302 0.050771
v -0.009972 -0.008805 0.05511
v -0.033059 -0.039788 0.063216
v 0.004684 0.01128 0.066276
v 0.018595 0.058787 0.085194
v 0.078834 -0.01109 0.122779
v 0.06107 0.013723 0.120518
v 0.086016 -0.021616 0.127749
v 0.069093 -0.013609 0.132935
v 0.045082 0.018124 0.132586
v 0.021371 0.049922 0.103489
v -0.01038 0.039026 0.071741
v -0.039864 0.016744 0.068258
v -0.043139 -0.034091 0.057141
v -0.04694 -0.023585 0.055856
v -0.031696 -0.011409 0.059151
v -0.023583 0.008388 0.052254
v -0.044989 -0.012531 0.063785
v 0.002955 0.03289 0.059553
v 0.044525 0.038914 0.11914
v 0.023496 0.056831 0.100713
v 0.00039 0.060732 0.076345
v 0.006679 0.05617 0.070947
v 0.070978 0.005373 0.132645
v -0.017918 0.049313 0.073602
v -0.052845 0.014738 0.057869
v -0.034631 0.041697 0.06141
v -0.048509 -0.007667 0.056811
v -0.043242 0.002993 0.043881
v -0.03413 0.022086 0.048853
v -0.055556 0.004753 0.055989
v -0.012733 0.047071 0.058907
v -0.013984 0.054229 0.067624
v -0.050564 0.019855 0.051671
v -0.055367 0.00376 0.050538
v -0.053083 -0.006043 0.051667
# 121 verticies
vn -0.76135 -0.588225 0.272647
vn -0.604625 0.130477 0.785751
vn -0.75187 -0.386972 0.533802
vn -0.995332 -0.0194765 -0.0945261
vn -0.685809 -0.299721 0.663199
vn 0.716393 -0.507003 0.479301
vn 0.907799 -0.344924 0.238596
vn -0.126783 0.114166 0.985339
vn -0.478038 -0.510865 0.71449
vn 0.718534 -0.695266 -0.0177116
vn -0.0292342 0.16128 0.986476
vn -0.0653424 -0.168856 0.983472
vn -0.585195 -0.396202 0.70751
vn 0.0173955 -0.00576318 0.999832
vn 0.310915 0.215176 0.92576
vn 0.191968 0.633512 0.74954
vn 0.174749 0.69358 0.698863
vn 0.137237 0.696751 0.704062
vn 0.149599 -0.948998 0.277531
vn -0.540654 -0.827575 0.151036
vn -0.583016 -0.810807 0.0518235
vn -0.490986 -0.854821 -0.16797
vn -0.565678 -0.733365 0.377073
vn -0.621282 -0.608621 0.493547
vn -0.442444 -0.802043 0.401211
vn -0.409757 -0.626758 0.662778
vn -0.556079 -0.487857 0.672883
vn -0.334209 -0.67675 0.655983
vn -0.574414 -0.615175 0.540007
vn -0.370128 -0.848644 -0.3779
vn 0.413461 0.644033 0.643639
vn 0.081692 -0.106371 0.990965
vn 0.897133 -0.414545 0.15266
vn 0.00705183 -0.479278 0.877635
vn 0.120998 0.260848 0.957767
vn 0.468768 -0.0283344 0.882867
vn 0.933263 -0.301129 0.195807
vn 0.991248 0.109547 -0.0736696
vn 0.940262 0.329573 -0.0853783
vn 0.76245 -0.334626 -0.553801
vn 0.975476 0.0306184 0.217967
vn 0.646971 -0.638138 0.417383
vn 0.932849 0.22644 0.28021
vn 0.993383 0.103748 -0.0492579
vn 0.597962 0.712441 -0.367245
vn 0.887782 0.454973 0.0695916
vn -0.522204 -0.843632 -0.124856
vn -0.177674 -0.482173 -0.85787
vn 0.0503652 -0.965046 -0.257195
vn -0.524019 -0.58897 -0.615238
vn 0.0635522 -0.954116 -0.292616
vn 0.695533 0.311263 0.647572
vn 0.70553 0.0795348 0.704203
vn 0.124211 -0.0715509 0.989673
vn 0.384632 -0.107701 0.916765
vn -0.0541146 -0.708927 0.703202
vn 0.132827 -0.362318 0.922542
vn 0.119766 -0.369045 0.921663
vn 0.689854 0.301036 0.658391
vn 0.714183 0.297602 0.633543
vn -0.0970707 -0.979665 0.175597
vn 0.395403 -0.841728 -0.367629
vn 0.638833 -0.764123 -0.0894918
vn 0.806719 -0.590347 -0.026366
vn -0.0716983 -0.8873 0.455586
vn 0.143651 -0.989523 0.0144227
vn 0.235856 -0.951393 -0.198049
vn -0.268509 -0.92219 0.278332
vn 0.335522 -0.940918 0.0458073
vn -0.011922 -0.828766 0.559468
vn -0.360079 -0.783605 0.506267
vn -0.148657 -0.834996 0.529795
vn -0.269046 -0.922237 0.277657
vn -0.0670255 -0.668043 0.741098
vn 0.114995 -0.573523 0.811078
vn -0.520179 0.274807 0.808638
vn -0.357707 0.369135 0.857779
vn -0.252203 0.495206 0.831363
vn -0.531323 0.329204 0.78059
vn 0.675701 0.245881 -0.694961
vn 0.601183 0.198226 -0.774135
vn 0.214077 -0.968376 -0.128139
vn 0.015883 -0.421229 0.906815
vn -0.028317 -0.102829 0.994296
vn -0.181914 -0.063052 0.981291
vn -0.212931 -0.0674335 0.974737
vn 0.690737 0.640165 -0.336261
vn 0.471404 0.505717 -0.722515
vn 0.217492 0.385372 -0.896764
vn 0.690987 0.640682 -0.334759
vn 0.669137 0.259446 -0.696379
vn 0.791322 0.111889 -0.601075
vn 0.52523 -0.850453 -0.0293711
vn 0.798813 -0.579841 0.160259
vn 0.295387 -0.804628 0.515093
vn -0.637361 -0.769676 -0.0370269
vn -0.8335 -0.273943 -0.479826
vn 0.623805 -0.780756 0.0358672
vn 0.205056 -0.679592 0.704349
vn 0.391795 -0.705203 -0.59092
vn 0.679364 -0.511124 -0.526514
vn 0.192111 -0.595867 0.779766
vn -0.316785 -0.457139 0.831067
vn 0.664999 0.0593349 0.744484
vn -0.0380906 0.725507 -0.68716
vn -0.280607 0.552497 -0.784861
vn -0.126023 0.823271 -0.553482
vn -0.393888 0.384555 -0.834847
vn 0.0662125 0.0842367 -0.994244
vn -0.811321 -0.302323 -0.500358
vn -0.265845 -0.43523 -0.860175
vn 0.111498 0.367126 -0.923464
vn -0.212149 0.239776 -0.947365
vn -0.28959 0.386027 -0.875854
vn -0.133437 0.325452 -0.936096
vn 0.695256 -0.354817 0.625079
vn 0.936404 -0.00519665 0.350885
vn 0.612077 0.260835 0.746544
vn 0.922014 -0.0981181 0.374518
vn 0.979062 0.19651 0.0531126
vn 0.840524 -0.380504 0.385663
vn 0.222189 -0.399249 0.889512
vn 0.251645 -0.650899 0.716244
vn 0.322768 -0.906072 0.273596
vn 0.0169265 -0.70958 0.704422
vn 0.670086 -0.253985 0.697478
vn 0.276422 -0.613757 0.739522
vn -0.797285 -0.418751 0.434724
vn -0.712664 -0.286181 0.640477
vn -0.270876 -0.652059 0.708128
vn -0.381937 0.19057 0.904327
vn -0.0563954 0.181173 0.981833
vn -0.847955 -0.265322 0.458886
vn 0.573774 -0.680281 0.456072
vn -0.71156 0.550913 -0.436093
vn 0.0252507 0.634625 -0.772408
vn -0.0143504 0.474664 -0.88005
vn 0.732303 -0.422516 0.534053
vn 0.635481 -0.229117 0.73734
vn 0.671346 -0.375677 0.638875
vn 0.726967 -0.465958 0.504382
vn 0.06781 -0.515173 0.854399
vn 0.685248 -0.724167 -0.0775714
vn 0.488311 -0.869946 0.0688942
vn 0.435218 -0.899442 -0.0398647
vn -0.0378898 -0.94452 0.326262
vn 0.826346 -0.519377 -0.217716
vn -0.760805 0.206776 0.615158
vn -0.750056 0.25874 0.608661
vn -0.837575 0.175274 0.517443
vn -0.638966 0.474833 0.605191
vn -0.78544 0.326629 0.525735
vn 0.683719 0.365486 -0.631624
vn 0.679521 0.334007 -0.653216
vn 0.547511 0.287278 -0.785941
vn 0.533895 -0.489791 -0.689246
vn 0.396941 0.139077 -0.907246
vn -0.134491 -0.976883 -0.166169
vn -0.502312 -0.218437 0.836641
vn -0.05065 -0.993459 -0.10234
vn -0.353519 -0.293332 0.888246
vn -0.804319 0.00630218 0.594165
vn -0.810016 0.083916 0.580373
vn -0.541458 0.244244 0.804468
vn -0.415074 -0.699154 0.582149
vn -0.241436 -0.0408521 -0.969557
vn -0.152265 0.124977 -0.980406
vn -0.322019 -0.205229 -0.924221
vn 0.406231 -0.117872 -0.906136
vn -0.0044231 0.245297 -0.969438
vn 0.0884431 0.342746 -0.935256
vn -0.4498 0.572728 -0.685319
vn 0.0204262 0.102753 -0.994497
vn 0.975002 0.120513 0.186673
vn 0.959449 0.221719 -0.174065
vn -0.097204 0.143117 -0.984921
vn -0.724165 0.517498 -0.45583
vn -0.999622 0.0214168 -0.0172661
vn 0.055443 -0.811476 -0.58175
vn -0.32943 -0.631511 -0.701904
vn -0.445593 0.843187 -0.300804
vn -0.821701 0.367984 -0.435195
vn -0.764908 0.570408 -0.299248
vn 0.34653 0.931348 0.111836
vn -0.709139 0.625274 -0.325814
vn -0.17476 0.52364 -0.833823
vn -0.808007 -0.531388 -0.254465
vn -0.755806 -0.651998 0.060459
vn 0.442904 0.801604 -0.401581
vn 0.663049 -0.310845 0.680986
vn 0.754587 -0.0831228 0.650914
vn 0.489285 -0.865157 0.110017
vn -0.528693 0.813624 0.241869
vn -0.814543 0.567934 -0.118196
vn -0.644743 0.410182 0.645025
vn -0.762496 0.57417 -0.29821
vn -0.480608 0.549646 0.683304
vn 0.208875 0.236521 -0.948909
vn -0.664674 0.178608 0.725471
vn -0.965919 0.143339 -0.215533
vn 0.879646 -0.351964 0.319914
vn 0.911922 -0.37703 0.162007
vn 0.526046 -0.814652 -0.244167
vn 0.360558 -0.870106 0.336025
vn -0.911555 0.0320363 0.409927
vn -0.836732 -0.204561 0.507971
vn -0.834359 -0.0650687 0.547368
vn -0.143603 0.182413 0.972679
vn -0.897576 0.274604 0.344891
vn -0.0475501 0.214961 0.975464
vn -0.211352 -0.0907413 0.973189
vn -0.976603 0.101943 0.189353
vn -0.696109 -0.308162 -0.648435
vn -0.603308 -0.122417 -0.788057
vn -0.0759968 0.490434 -0.868158
vn -0.473921 0.757329 -0.449279
vn 0.578986 -0.0751193 0.81187
vn 0.487494 -0.110227 0.866141
vn 0.122695 0.849226 0.513576
vn 0.556822 0.0398322 0.829677
vn -0.644259 -0.764759 0.00860778
vn -0.672135 -0.592259 -0.44437
vn -0.464518 -0.756988 0.459556
vn -0.494573 -0.773243 -0.396853
vn -0.677614 0.297518 0.67255
vn -0.875424 -0.473345 0.097865
vn -0.501555 -0.0931695 -0.860094
vn 0.194127 -0.286396 -0.938239
vn 0.432701 0.055886 -0.899803
vn 0.337647 -0.746095 -0.573879
vn -0.127827 -0.932049 0.339035
vn 0.347706 -0.762388 -0.545771
vn 0.796057 0.0715698 -0.600976
vn 0.484846 0.127257 -0.865292
vn 0.664658 0.016412 -0.746968
vn 0.786915 0.0152238 -0.616874
vn 0.469867 0.294546 -0.832146
vn 0.469229 0.259 -0.844241
vn 0.599385 -0.0606962 -0.798157
vn 0.469843 0.329676 -0.818878
vn 0.799383 0.002763 -0.600815
vn 0.92879 0.31107 0.201456
vn 0.836817 0.389131 -0.385117
vn 0.18546 -0.478591 0.858228
vn 0.283884 -0.829958 0.480186
vn 0.752069 -0.35776 0.553534
vn -0.460615 -0.394354 0.795185
vn 0.161452 -0.273008 0.948367
vn -0.223933 -0.273109 0.935556
vn -0.562846 -0.33204 0.756937
vn -0.69289 -0.244899 0.67818
vn -0.395418 -0.0491337 0.917186
vn -0.640806 -0.478266 0.600525
vn -0.56665 0.185597 0.802784
vn -0.780996 -0.0976566 0.616854
vn -0.859937 -0.219648 0.46072
vn -0.63935 0.144805 0.755158
vn -0.185728 0.0928514 0.978204
vn -0.667873 -0.167081 0.725279
vn -0.613406 -0.494181 0.61605
vn -0.235522 -0.0186205 0.971691
vn -0.346567 -0.838211 0.421063
vn -0.470701 -0.134432 0.871991
vn 0.0902794 -0.647328 -0.756846
vn -0.162367 -0.177463 -0.970641
vn -0.213074 0.382196 -0.899181
vn -0.159325 0.438789 -0.884353
vn 0.002264 -0.112789 -0.993616
vn 0.421282 0.186062 -0.887639
vn -0.144324 -0.272285 -0.951331
vn -0.709632 -0.32366 0.625833
vn -0.554252 -0.0994485 0.826387
vn -0.209145 -0.11182 0.97147
vn -0.716056 -0.189967 0.671697
vn 0.882765 -0.0737219 -0.463994
vn 0.404076 -0.240411 -0.882567
vn 0.451205 -0.231991 -0.861739
vn 0.523558 0.077652 -0.848444
vn 0.777595 0.575242 -0.253854
vn 0.801346 0.50913 -0.314056
vn 0.709157 0.691656 -0.13678
vn 0.0534451 0.992687 0.108239
vn 0.346305 0.65622 -0.670409
vn 0.287548 0.870089 -0.400326
vn 0.732967 0.200851 -0.649937
vn 0.8491 0.502598 -0.162553
vn 0.793558 0.543117 -0.274391
vn 0.717767 0.49986 0.484717
vn 0.803673 0.511173 -0.304651
vn 0.286968 -0.0138635 0.95784
vn -0.384453 0.089694 0.918777
vn 0.00499956 0.0147796 0.999878
vn 0.258852 0.529441 0.807891
vn -0.300289 0.512321 0.804583
vn -0.349902 0.439928 0.827062
vn -0.394749 -0.0210249 0.918548
vn -0.480373 0.621528 0.618826
vn -0.517798 -0.504428 0.690968
vn -0.266906 0.953897 0.137268
vn 0.0117876 -0.169636 0.985436
vn -0.393668 0.039438 0.918406
vn -0.623857 -0.0101883 0.781472
vn -0.649525 0.324873 0.687441
vn -0.620927 0.325869 0.712923
vn -0.863398 0.27042 0.425931
vn 0.153664 0.0742612 -0.985329
vn -0.916538 -0.113352 0.383549
vn 0.451679 -0.4529 -0.76868
vn -0.014581 -0.280956 -0.95961
vn -0.0769052 -0.753698 -0.652705
vn 0.28266 -0.0204666 -0.959002
vn 0.376963 0.0607761 -0.924232
vn 0.042422 0.286621 -0.957104
vn -0.868264 -0.486078 0.0992265
vn -0.932626 -0.184444 0.310143
vn -0.586501 0.00674549 0.809921
vn 0.362765 0.362202 -0.85861
vn 0.218122 0.197766 -0.955673
vn 0.02898 0.551892 -0.833412
vn 0.0275421 0.779073 -0.626328
vn -0.537027 0.789874 0.296145
vn -0.301834 0.901876 -0.309056
vn 0.0288598 0.774536 -0.631871
vn -0.558066 0.782475 0.276216
vn -0.662757 0.743115 -0.092379
vn -0.905603 0.4238 0.0166024
vn -0.950372 0.291298 -0.109266
vn -0.828773 0.541299 0.141883
vn -0.957614 0.275707 -0.0834278
vn -0.251765 0.729904 -0.635495
vn -0.212537 0.523059 -0.825371
vn -0.222185 0.521725 -0.823673
vn -0.746247 -0.387596 0.541189
vn 0.310623 -0.791644 -0.526131
vn -0.203345 0.336484 -0.919472
vn -0.639294 0.45495 -0.619939
vn -0.461981 0.198707 -0.864343
vn -0.892838 0.076933 -0.443758
vn -0.480706 -0.210049 -0.851352
# 339 normals
usemtl Material__1
f  1//1 2//2 3//2
f  4//3 5//3 1//3
f  1//1 6//4 4//4
f  1//1 5//5 2//5
f  1//1 7//6 6//6
f  7//1 1//7 8//7
f  3//8 9//9 1//9
f  1//1 9//10 8//10
f  3//8 2//11 10//11
f  11//1 12//12 2//12
f  11//1 2//13 5//13
f  12//1 10//14 2//15
f  3//8 13//16 14//16
f  13//1 3//17 10//17
f  9//18 3//19 14//18
f  15//20 4//21 6//22
f  16//23 5//24 4//24
f  16//23 4//25 15//20
f  17//26 11//27 5//27
f  17//26 5//28 16//29
f  6//22 18//30 15//30
f  7//1 18//31 6//32
f  19//33 20//34 7//34
f  20//35 18//36 7//36
f  8//37 21//38 7//38
f  7//1 21//39 22//39
f  7//1 22//40 19//40
f  23//41 24//41 8//41
f  8//37 9//42 23//42
f  25//43 21//44 8//44
f  25//43 8//45 24//46
f  26//1 23//47 9//47
f  27//48 9//49 14//49
f  26//1 9//50 27//51
f  10//52 28//52 13//52
f  29//1 28//53 10//53
f  12//1 29//54 10//55
f  17//26 30//56 11//56
f  11//1 30//57 12//57
f  12//1 30//58 29//58
f  13//1 28//59 14//59
f  14//60 28//60 31//60
f  31//61 32//61 14//61
f  33//62 27//63 14//63
f  33//62 14//64 32//65
f  34//66 15//67 35//67
f  34//66 16//68 15//68
f  35//69 15//70 18//69
f  36//1 17//71 16//71
f  36//1 16//72 34//73
f  36//1 30//74 17//75
f  37//76 35//77 18//77
f  20//35 37//78 18//79
f  38//1 19//80 22//80
f  19//33 38//81 39//81
f  39//82 20//83 19//84
f  40//1 20//85 39//85
f  37//76 20//79 40//86
f  22//87 21//87 41//87
f  41//88 21//89 25//90
f  38//1 22//91 41//92
f  42//93 23//93 43//93
f  44//94 24//95 23//95
f  45//1 23//96 46//96
f  46//1 23//97 26//97
f  44//94 23//98 42//98
f  47//1 48//99 23//99
f  48//100 43//101 23//101
f  45//1 47//102 23//103
f  25//43 24//45 44//104
f  45//1 25//105 44//105
f  49//106 25//107 45//107
f  49//106 41//108 25//89
f  26//1 27//109 49//109
f  26//1 49//110 46//110
f  27//48 50//111 51//111
f  52//1 27//112 51//112
f  27//48 33//113 50//113
f  49//106 27//114 41//114
f  41//88 27//89 52//115
f  53//116 54//117 28//117
f  29//1 53//118 28//118
f  28//1 55//119 31//119
f  54//1 56//120 28//120
f  28//1 56//121 55//121
f  29//1 30//122 53//122
f  30//123 57//123 58//123
f  57//124 30//125 36//125
f  53//116 30//126 58//127
f  55//128 59//128 31//128
f  59//1 32//129 31//130
f  60//131 61//132 32//132
f  59//1 60//133 32//133
f  61//134 33//134 32//64
f  62//135 33//136 63//136
f  33//62 62//137 50//137
f  64//1 33//138 65//138
f  63//139 33//140 64//140
f  65//141 33//142 61//141
f  56//143 57//144 34//144
f  34//66 35//145 56//145
f  36//1 34//72 57//146
f  56//143 35//147 55//147
f  66//1 55//148 35//148
f  37//76 66//149 35//150
f  37//76 40//151 67//151
f  66//1 37//150 67//152
f  41//88 68//153 38//153
f  68//154 69//154 38//154
f  38//1 69//155 39//155
f  70//156 71//156 39//156
f  39//82 69//157 70//157
f  39//82 71//158 72//158
f  40//1 39//159 72//160
f  40//1 72//161 73//161
f  40//1 73//162 74//162
f  75//163 40//164 74//164
f  40//1 75//165 67//165
f  67//166 41//167 52//167
f  67//166 68//168 41//169
f  76//170 77//171 42//171
f  43//172 76//173 42//173
f  44//94 42//174 77//175
f  76//170 43//176 78//176
f  43//172 47//177 45//177
f  78//178 43//178 45//178
f  48//100 79//179 43//179
f  80//1 43//180 79//180
f  43//172 80//181 81//181
f  47//1 43//103 81//182
f  45//1 44//183 77//184
f  45//1 76//185 78//186
f  46//1 49//187 45//188
f  45//1 77//183 76//189
f  47//1 81//190 48//190
f  81//1 79//191 48//192
f  82//1 50//193 83//193
f  83//1 50//194 62//194
f  51//195 50//196 82//195
f  82//1 60//197 51//197
f  52//1 51//198 67//198
f  60//131 67//199 51//200
f  58//201 54//201 53//202
f  57//124 54//203 58//202
f  54//1 57//202 56//204
f  66//1 59//205 55//206
f  59//1 66//207 60//207
f  82//1 61//208 60//208
f  66//1 67//209 60//200
f  82//1 83//210 61//210
f  83//1 65//211 61//142
f  62//135 84//212 83//212
f  80//1 84//213 62//213
f  80//1 62//214 63//215
f  81//1 80//216 63//216
f  63//139 64//217 85//217
f  85//218 79//218 63//218
f  81//1 63//219 79//220
f  84//221 80//222 64//222
f  84//221 64//223 65//223
f  64//1 80//224 85//224
f  83//1 84//225 65//226
f  75//163 68//227 67//169
f  86//228 87//229 68//229
f  86//228 68//230 88//230
f  88//231 68//232 75//232
f  69//233 68//233 89//233
f  87//1 89//234 68//235
f  90//1 69//236 89//236
f  91//237 69//238 92//238
f  92//239 69//239 90//239
f  91//237 70//240 69//241
f  93//242 70//243 91//243
f  71//244 70//245 93//246
f  71//244 94//247 72//247
f  93//242 94//248 71//249
f  73//250 72//251 94//250
f  95//252 73//253 94//253
f  96//254 74//255 73//255
f  95//252 96//256 73//257
f  97//258 98//258 74//258
f  96//254 97//259 74//259
f  75//163 74//260 98//261
f  88//231 75//262 98//263
f  80//1 79//214 85//192
f  86//228 88//264 99//264
f  100//1 86//265 99//265
f  86//228 101//266 87//266
f  100//1 101//267 86//268
f  87//1 102//269 89//269
f  87//1 101//270 102//270
f  100//1 88//271 103//271
f  99//1 88//272 100//272
f  98//273 103//273 88//274
f  89//275 104//275 90//275
f  102//276 104//277 89//278
f  105//279 92//280 90//280
f  105//279 90//281 106//281
f  106//282 90//282 107//282
f  108//283 107//284 90//284
f  90//1 104//285 108//285
f  93//242 91//286 109//286
f  109//287 91//288 92//287
f  105//279 109//289 92//288
f  94//290 93//249 109//290
f  95//252 94//291 109//292
f  95//252 109//291 105//293
f  96//254 95//257 105//294
f  96//254 105//257 106//295
f  110//296 96//297 107//297
f  110//296 97//298 96//298
f  107//1 96//299 106//257
f  110//296 98//300 97//301
f  111//1 103//302 98//302
f  112//1 98//303 110//303
f  112//1 111//304 98//305
f  101//306 100//306 113//306
f  100//1 103//307 113//307
f  102//276 101//308 114//308
f  114//1 101//309 113//310
f  102//276 115//311 104//311
f  114//1 115//312 102//313
f  113//314 103//314 116//314
f  116//1 103//315 111//316
f  108//283 104//317 117//317
f  117//318 104//319 115//318
f  107//1 108//320 118//320
f  107//1 118//321 110//321
f  118//1 108//322 117//323
f  118//1 112//324 110//325
f  119//326 120//327 111//327
f  119//326 111//328 112//328
f  111//1 120//329 116//329
f  118//1 117//330 112//330
f  115//331 119//331 112//331
f  112//1 117//325 115//332
f  121//333 113//333 116//333
f  114//1 113//309 121//334
f  114//1 119//335 115//336
f  120//337 119//338 114//337
f  114//1 121//339 120//339
f  116//1 120//315 121//338
