# 
# Wavefront OBJ file
# Converted by the DEEP Exploration 2.00.1211
# Right Hemisphere, LTD
# http://www.righthemisphere.com/
# 
mtllib pelvis_lb.mtl
# object Object #0
g Object__0
v 0.024752 -0.105001 -0.057002
v 0.024783 -0.096053 -0.05554
v 0.041281 -0.103117 -0.069408
v 0.034463 -0.109923 -0.05998
v 0.010223 -0.100099 -0.05577
v 0.00245 -0.114451 -0.070701
v 0.006717 -0.105744 -0.062249
v 0.029518 -0.086984 -0.064535
v 0.015576 -0.091401 -0.055727
v 0.020174 -0.087024 -0.056784
v 0.039787 -0.083959 -0.081192
v 0.038319 -0.081942 -0.096234
v 0.045323 -0.079042 -0.088833
v 0.04537 -0.098659 -0.060295
v 0.055637 -0.11665 -0.016874
v 0.032559 -0.107527 -0.051754
v 0.006412 -0.108704 -0.049913
v -0.000129 -0.098067 -0.065912
v 0.008405 -0.091498 -0.05662
v -0.007584 -0.111664 -0.080703
v -0.015357 -0.112512 -0.071675
v -0.011698 -0.12387 -0.05013
v 0.025772 -0.079206 -0.069411
v 0.021849 -0.08259 -0.061383
v 0.011475 -0.083901 -0.059263
v 0.025502 -0.073181 -0.089113
v 0.015867 -0.075864 -0.104575
v 0.027284 -0.06069 -0.099
v 0.057638 -0.064217 -0.09683
v 0.043713 -0.080699 -0.064706
v 0.041593 -0.070991 -0.078833
v 0.050924 -0.105849 -0.036449
v 0.043842 -0.092839 -0.041738
v 0.031537 -0.130939 0.000351
v 0.062138 -0.112129 -0.002221
v 0.065259 -0.108641 -0.023867
v 0.034575 -0.100526 -0.044255
v 0.031599 -0.097725 -0.037258
v 0.033023 -0.135126 -0.005631
v 0.024443 -0.123607 -0.019243
v 0.024708 -0.08829 -0.052861
v -0.038153 -0.087505 -0.05296
v -0.039744 -0.103528 -0.061559
v -0.002173 -0.063393 -0.06689
v 0.027969 -0.06514 -0.061986
v -0.002662 -0.087317 -0.072831
v 0.002058 -0.086965 -0.06024
v -0.010461 -0.09404 -0.092403
v -0.004391 -0.083285 -0.089785
v -0.018144 -0.096915 -0.075543
v -0.024546 -0.119724 -0.072478
v -0.023655 -0.093033 -0.067604
v -0.009103 -0.135907 -0.040325
v -0.048411 -0.117497 -0.054166
v -0.031991 -0.13459 -0.069475
v -0.027108 -0.148177 -0.05203
v 0.014772 -0.07348 -0.077771
v 0.016998 -0.077931 -0.065144
v 0.002691 -0.0814 -0.064622
v 0.00951 -0.077375 -0.065884
v -0.000844 -0.082033 -0.100261
v -0.000958 -0.064297 -0.092581
v 0.063365 -0.0424 -0.106864
v 0.024152 -0.03967 -0.09977
v 0.051185 -0.051297 -0.095127
v 0.040322 -0.105992 -0.002407
v 0.031821 -0.11595 -0.001799
v 0.014429 -0.150447 -0.02523
v -0.019512 -0.144891 -0.036161
v 0.022153 -0.128989 -0.019016
v 0.060899 -0.104731 -0.004815
v -0.031162 -0.099796 -0.067764
v -0.008064 -0.045232 -0.07012
v -0.044618 -0.108944 -0.069124
v 0.003488 -0.021391 -0.060801
v -0.013769 -0.081385 -0.084058
v -0.004929 -0.15397 -0.035677
v -0.048538 -0.130031 -0.060259
v 0.030261 -0.001983 -0.098576
v 0.078361 -0.046996 -0.121746
v 0.0872 -0.0331 -0.118718
v 0.058933 -0.042764 -0.112591
v 0.042139 0.010764 -0.123584
v 0.009686 -0.006066 -0.079831
v -0.014725 -0.038638 -0.07329
v -0.009972 -0.008805 -0.05511
v -0.017159 -0.02302 -0.050771
v -0.033059 -0.039788 -0.063216
v 0.004684 0.01128 -0.066276
v 0.018595 0.058787 -0.085194
v 0.06107 0.013723 -0.120518
v 0.078834 -0.01109 -0.122779
v 0.086016 -0.021616 -0.127749
v 0.069093 -0.013609 -0.132935
v 0.045082 0.018124 -0.132586
v 0.021371 0.049922 -0.103489
v -0.039864 0.016744 -0.068258
v -0.01038 0.039026 -0.071741
v -0.031696 -0.011409 -0.059151
v -0.023583 0.008388 -0.052254
v -0.043139 -0.034091 -0.057141
v -0.04694 -0.023585 -0.055856
v -0.044989 -0.012531 -0.063785
v 0.002955 0.03289 -0.059553
v 0.044525 0.038914 -0.11914
v 0.023496 0.056831 -0.100713
v 0.00039 0.060732 -0.076345
v 0.006679 0.05617 -0.070947
v 0.070978 0.005373 -0.132645
v -0.017918 0.049313 -0.073602
v -0.052845 0.014738 -0.057869
v -0.034631 0.041697 -0.06141
v -0.048509 -0.007667 -0.056811
v -0.043242 0.002993 -0.043881
v -0.03413 0.022086 -0.048853
v -0.055556 0.004753 -0.055989
v -0.012733 0.047071 -0.058907
v -0.013984 0.054229 -0.067624
v -0.055367 0.00376 -0.050538
v -0.050564 0.019855 -0.051671
v -0.053083 -0.006043 -0.051667
# 121 verticies
vn -0.573201 -0.201391 -0.794281
vn -0.604625 0.130477 -0.785751
vn 0.149599 -0.948998 -0.277531
vn -0.478038 -0.510865 -0.71449
vn -0.0292342 0.16128 -0.986476
vn 0.587379 -0.392829 -0.707582
vn 0.191968 0.633512 -0.74954
vn 0.174749 0.69358 -0.698863
vn 0.545957 -0.403891 -0.734032
vn 0.137237 0.696751 -0.704062
vn -0.685809 -0.299721 -0.663199
vn -0.0653424 -0.168856 -0.983472
vn -0.571384 -0.442608 -0.6911
vn -0.585195 -0.396202 -0.70751
vn 0.0173955 -0.00576318 -0.999832
vn -0.75187 -0.386972 -0.533802
vn -0.908387 -0.352933 -0.224213
vn -0.995332 -0.0194765 0.0945261
vn 0.716393 -0.507003 -0.479301
vn 0.925034 -0.336672 -0.175967
vn 0.907799 -0.344924 -0.238596
vn 0.718534 -0.695266 0.0177116
vn 0.646971 -0.638138 -0.417383
vn -0.522204 -0.843632 0.124856
vn 0.0503652 -0.965046 0.257195
vn 0.0569697 -0.959767 0.274959
vn 0.004593 -0.26767 0.9635
vn -0.468782 -0.747703 0.470301
vn 0.695533 0.311263 -0.647572
vn 0.70553 0.0795348 -0.704203
vn 0.124211 -0.0715509 -0.989673
vn 0.689854 0.301036 -0.658391
vn 0.836107 0.113477 -0.536701
vn 0.714183 0.297602 -0.633543
vn -0.0970707 -0.979665 -0.175597
vn 0.638833 -0.764123 0.0894918
vn -0.270876 -0.652059 -0.708128
vn -0.0716983 -0.8873 -0.455586
vn -0.621282 -0.608621 -0.493547
vn -0.556079 -0.487857 -0.672883
vn -0.471717 -0.706081 -0.528142
vn -0.442444 -0.802043 -0.401211
vn -0.574414 -0.615175 -0.540007
vn 0.132827 -0.362318 -0.922542
vn 0.119766 -0.369045 -0.921663
vn 0.114995 -0.573523 -0.811078
vn -0.0541146 -0.708927 -0.703202
vn -0.583016 -0.810807 -0.0518235
vn -0.397511 -0.916103 -0.0523506
vn -0.210331 -0.97759 -0.008925
vn -0.491849 -0.83448 -0.248449
vn -0.370128 -0.848644 0.3779
vn 0.413461 0.644033 -0.643639
vn 0.646082 -0.175304 -0.742864
vn 0.00705183 -0.479278 -0.877635
vn 0.468768 -0.0283344 -0.882867
vn 0.991248 0.109547 0.0736696
vn 0.857493 0.305358 0.414079
vn 0.940262 0.329573 0.0853783
vn 0.682188 -0.662485 -0.309408
vn 0.76245 -0.334626 0.553801
vn 0.84145 0.216414 0.495104
vn 0.975476 0.0306184 -0.217967
vn 0.993383 0.103748 0.0492579
vn 0.887782 0.454973 -0.0695916
vn 0.874146 -0.080398 -0.478963
vn 0.311602 -0.891829 0.327941
vn 0.52523 -0.850453 0.0293711
vn 0.295387 -0.804628 -0.515093
vn -0.770331 -0.570031 0.285753
vn -0.637361 -0.769676 0.0370269
vn -0.8335 -0.273943 0.479826
vn 0.355986 -0.162892 0.920185
vn 0.623805 -0.780756 -0.0358672
vn 0.205056 -0.679592 -0.704349
vn 0.679364 -0.511124 0.526514
vn 0.192111 -0.595867 -0.779766
vn 0.0662125 0.0842367 0.994244
vn -0.811321 -0.302323 0.500358
vn -0.522677 0.163736 0.836659
vn -0.265845 -0.43523 0.860175
vn 0.111498 0.367126 0.923464
vn -0.114675 0.361716 0.925209
vn -0.212149 0.239776 0.947365
vn -0.28959 0.386027 0.875854
vn 0.008816 0.268014 0.963375
vn -0.133437 0.325452 0.936096
vn 0.898313 0.160698 -0.408913
vn 0.936404 -0.00519665 -0.350885
vn 0.612077 0.260835 -0.746544
vn 0.922014 -0.0981181 -0.374518
vn 0.979062 0.19651 -0.0531126
vn 0.840524 -0.380504 -0.385663
vn 0.800223 -0.592796 -0.090749
vn 0.222189 -0.399249 -0.889512
vn -0.797285 -0.418751 -0.434724
vn -0.712664 -0.286181 -0.640477
vn -0.0563954 0.181173 -0.981833
vn -0.847955 -0.265322 -0.458886
vn 0.573774 -0.680281 -0.456072
vn -0.0172586 0.82276 0.568128
vn 0.0252507 0.634625 0.772408
vn -0.0143504 0.474664 0.88005
vn 0.732303 -0.422516 -0.534053
vn -0.000798604 -0.980401 -0.19701
vn 0.671346 -0.375677 -0.638875
vn 0.169056 -0.132224 -0.976697
vn 0.726967 -0.465958 -0.504382
vn -0.268509 -0.92219 -0.278332
vn -0.360079 -0.783605 -0.506267
vn 0.119263 -0.974805 -0.188497
vn 0.104531 -0.986292 -0.127675
vn -0.269046 -0.922237 -0.277657
vn -0.0670255 -0.668043 -0.741098
vn 0.251645 -0.650899 -0.716244
vn 0.0169265 -0.70958 -0.704422
vn 0.55832 -0.701964 -0.442183
vn 0.276422 -0.613757 -0.739522
vn 0.235856 -0.951393 0.198049
vn 0.081692 -0.106371 -0.990965
vn 0.335522 -0.940918 -0.0458073
vn -0.357707 0.369135 -0.857779
vn -0.252203 0.495206 -0.831363
vn 0.015883 -0.421229 -0.906815
vn 0.763382 -0.0342551 0.645039
vn -0.181914 -0.063052 -0.981291
vn -0.212931 -0.0674335 -0.974737
vn -0.502312 -0.218437 -0.836641
vn 0.675701 0.245881 0.694961
vn 0.601183 0.198226 0.774135
vn 0.669137 0.259446 0.696379
vn 0.690737 0.640165 0.336261
vn 0.597962 0.712441 0.367245
vn 0.690987 0.640682 0.334759
vn 0.217492 0.385372 0.896764
vn 0.791322 0.111889 0.601075
vn 0.623095 0.780068 -0.0569749
vn 0.975002 0.120513 -0.186673
vn 0.664999 0.0593349 -0.744484
vn -0.0380906 0.725507 0.68716
vn -0.908427 0.247601 0.33683
vn -0.126023 0.823271 0.553482
vn -0.393888 0.384555 0.834847
vn 0.0204262 0.102753 0.994497
vn -0.097204 0.143117 0.984921
vn -0.724165 0.517498 0.45583
vn -0.999622 0.0214168 0.0172661
vn 0.055443 -0.811476 0.58175
vn 0.351662 -0.915034 -0.197601
vn -0.32943 -0.631511 0.701904
vn -0.666567 0.637047 0.387118
vn -0.445593 0.843187 0.300804
vn 0.122695 0.849226 -0.513576
vn -0.821701 0.367984 0.435195
vn 0.0884431 0.342746 0.935256
vn 0.749151 0.661436 0.0356963
vn 0.442904 0.801604 0.401581
vn 0.959449 0.221719 0.174065
vn 0.34653 0.931348 -0.111836
vn -0.764908 0.570408 0.299248
vn -0.709139 0.625274 0.325814
vn -0.17476 0.52364 0.833823
vn 0.663049 -0.310845 -0.680986
vn 0.754587 -0.0831228 -0.650914
vn -0.644743 0.410182 -0.645025
vn -0.480608 0.549646 -0.683304
vn 0.208875 0.236521 0.948909
vn -0.664674 0.178608 -0.725471
vn -0.82988 0.504758 -0.237735
vn -0.528693 0.813624 -0.241869
vn -0.571314 0.439045 0.693427
vn -0.814543 0.567934 0.118196
vn -0.152265 0.124977 0.980406
vn 0.683719 0.365486 0.631624
vn -0.322019 -0.205229 0.924221
vn 0.879646 -0.351964 -0.319914
vn 0.526046 -0.814652 0.244167
vn 0.691508 -0.683718 -0.233123
vn 0.360558 -0.870106 -0.336025
vn 0.826346 -0.519377 0.217716
vn -0.760805 0.206776 -0.615158
vn -0.911555 0.0320363 -0.409927
vn 0.488311 -0.869946 -0.0688942
vn 0.435218 -0.899442 0.0398647
vn -0.834359 -0.0650687 -0.547368
vn -0.837575 0.175274 -0.517443
vn -0.143603 0.182413 -0.972679
vn -0.0475501 0.214961 -0.975464
vn -0.677614 0.297518 -0.67255
vn -0.211352 -0.0907413 -0.973189
vn -0.897576 0.274604 -0.344891
vn -0.0759968 0.490434 0.868158
vn -0.473921 0.757329 0.449279
vn 0.578986 -0.0751193 -0.81187
vn 0.487494 -0.110227 -0.866141
vn 0.489285 -0.865157 -0.110017
vn 0.716507 0.551027 -0.42777
vn -0.976603 0.101943 -0.189353
vn -0.696109 -0.308162 0.648435
vn -0.464518 -0.756988 -0.459556
vn -0.522483 -0.246075 -0.816369
vn -0.875424 -0.473345 -0.097865
vn -0.672135 -0.592259 0.44437
vn -0.603308 -0.122417 0.788057
vn -0.494573 -0.773243 0.396853
vn -0.750056 0.25874 -0.608661
vn -0.638966 0.474833 -0.605191
vn -0.965919 0.143339 0.215533
vn -0.531323 0.329204 -0.78059
vn 0.547511 0.287278 0.785941
vn 0.533895 -0.489791 0.689246
vn 0.396941 0.139077 0.907246
vn -0.257558 -0.943153 -0.210063
vn -0.134491 -0.976883 0.166169
vn -0.389343 -0.745245 -0.541314
vn -0.05065 -0.993459 0.10234
vn -0.353519 -0.293332 -0.888246
vn -0.577755 0.0463164 -0.814895
vn -0.804319 0.00630218 -0.594165
vn -0.541458 0.244244 -0.804468
vn -0.415074 -0.699154 -0.582149
vn -0.613406 -0.494181 -0.61605
vn 0.679521 0.334007 0.653216
vn 0.150003 -0.938292 -0.311619
vn -0.501555 -0.0931695 0.860094
vn 0.432701 0.055886 0.899803
vn 0.337647 -0.746095 0.573879
vn 0.347706 -0.762388 0.545771
vn 0.796057 0.0715698 0.600976
vn 0.484846 0.127257 0.865292
vn 0.786915 0.0152238 0.616874
vn 0.469229 0.259 0.844241
vn 0.740149 0.358352 0.569002
vn 0.599385 -0.0606962 0.798157
vn 0.469843 0.329676 0.818878
vn 0.752069 -0.35776 -0.553534
vn -0.460615 -0.394354 -0.795185
vn 0.161452 -0.273008 -0.948367
vn 0.836817 0.389131 0.385117
vn 0.729546 0.431836 0.530358
vn -0.60577 -0.407808 -0.68318
vn -0.223933 -0.273109 -0.935556
vn -0.562846 -0.33204 -0.756937
vn -0.640806 -0.478266 -0.600525
vn -0.780996 -0.0976566 -0.616854
vn -0.859937 -0.219648 -0.46072
vn -0.185728 0.0928514 -0.978204
vn -0.667873 -0.167081 -0.725279
vn -0.393668 0.039438 -0.918406
vn -0.235522 -0.0186205 -0.971691
vn -0.470701 -0.134432 -0.871991
vn -0.213074 0.382196 0.899181
vn 0.421282 0.186062 0.887639
vn -0.144324 -0.272285 0.951331
vn 0.002264 -0.112789 0.993616
vn -0.0376309 -0.430556 0.901779
vn 0.0902794 -0.647328 0.756846
vn -0.162367 -0.177463 0.970641
vn -0.159325 0.438789 0.884353
vn -0.709632 -0.32366 -0.625833
vn -0.554252 -0.0994485 -0.826387
vn -0.346567 -0.838211 -0.421063
vn -0.209145 -0.11182 -0.97147
vn 0.882765 -0.0737219 0.463994
vn 0.451205 -0.231991 0.861739
vn 0.801346 0.50913 0.314056
vn 0.709157 0.691656 0.13678
vn -0.234428 0.886372 -0.399234
vn 0.0534451 0.992687 -0.108239
vn 0.287548 0.870089 0.400326
vn 0.732967 0.200851 0.649937
vn 0.523558 0.077652 0.848444
vn 0.793558 0.543117 0.274391
vn 0.803673 0.511173 0.304651
vn 0.522012 0.230346 -0.821246
vn 0.717767 0.49986 -0.484717
vn 0.8491 0.502598 0.162553
vn 0.286968 -0.0138635 -0.95784
vn 0.00499956 0.0147796 -0.999878
vn -0.0215796 0.542536 -0.839755
vn 0.470066 0.780736 -0.411691
vn 0.258852 0.529441 -0.807891
vn -0.300289 0.512321 -0.804583
vn -0.067001 0.869315 -0.489696
vn -0.349902 0.439928 -0.827062
vn -0.480373 0.621528 -0.618826
vn -0.517798 -0.504428 -0.690968
vn -0.611084 0.44969 -0.651426
vn 0.0117876 -0.169636 -0.985436
vn -0.623857 -0.0101883 -0.781472
vn -0.649525 0.324873 -0.687441
vn -0.620927 0.325869 -0.712923
vn -0.492501 -0.464943 0.735711
vn 0.153664 0.0742612 0.985329
vn -0.0062338 -0.153802 0.988082
vn 0.451679 -0.4529 0.76868
vn -0.620437 -0.711445 0.330006
vn -0.0769052 -0.753698 0.652705
vn 0.28266 -0.0204666 0.959002
vn 0.376963 0.0607761 0.924232
vn -0.916538 -0.113352 -0.383549
vn -0.716056 -0.189967 -0.671697
vn -0.953056 -0.221566 -0.206382
vn -0.868264 -0.486078 -0.0992265
vn -0.89606 0.173771 -0.40851
vn -0.863398 0.27042 -0.425931
vn -0.586501 0.00674549 -0.809921
vn 0.204508 0.593609 0.778335
vn 0.362765 0.362202 0.85861
vn 0.042422 0.286621 0.957104
vn 0.218122 0.197766 0.955673
vn 0.0275421 0.779073 0.626328
vn -0.537027 0.789874 -0.296145
vn -0.301834 0.901876 0.309056
vn 0.02898 0.551892 0.833412
vn 0.0288598 0.774536 0.631871
vn -0.558066 0.782475 -0.276216
vn -0.950372 0.291298 0.109266
vn -0.502146 0.696774 0.512207
vn -0.828773 0.541299 -0.141883
vn -0.957614 0.275707 0.0834278
vn -0.892838 0.076933 0.443758
vn -0.251765 0.729904 0.635495
vn -0.212537 0.523059 0.825371
vn -0.746247 -0.387596 -0.541189
vn -0.721227 -0.616301 0.316234
vn 0.310623 -0.791644 0.526131
vn -0.203345 0.336484 0.919472
vn -0.014581 -0.280956 0.95961
vn -0.461981 0.198707 0.864343
vn -0.480706 -0.210049 0.851352
# 331 normals
usemtl Material__1
f  1//1 2//2 3//2
f  3//3 4//4 1//1
f  5//3 2//5 1//5
f  6//6 7//7 1//7
f  5//3 1//8 7//8
f  6//6 1//9 4//10
f  2//3 8//11 3//11
f  2//3 9//12 10//12
f  8//13 2//14 10//14
f  2//3 5//15 9//15
f  3//3 8//16 11//16
f  11//17 12//18 3//18
f  12//3 13//19 3//19
f  14//20 3//21 13//21
f  14//20 4//22 3//3
f  15//3 4//23 14//20
f  4//24 15//3 16//24
f  6//6 4//25 17//26
f  17//26 4//27 16//28
f  7//29 18//29 5//29
f  5//3 18//30 19//30
f  5//3 19//31 9//31
f  6//6 18//32 7//33
f  20//3 18//34 6//34
f  6//6 21//35 20//35
f  6//6 17//36 22//36
f  21//3 6//37 22//38
f  11//17 8//39 23//39
f  8//13 10//40 24//40
f  23//41 8//42 24//43
f  9//44 25//44 10//44
f  19//45 25//45 9//46
f  10//3 25//47 24//47
f  12//3 11//48 26//48
f  26//49 11//50 23//51
f  26//49 27//52 12//52
f  12//3 27//53 13//53
f  13//54 28//55 29//55
f  13//54 27//56 28//56
f  13//54 30//57 14//57
f  31//58 30//59 13//59
f  29//60 31//61 13//62
f  14//20 32//63 15//63
f  14//20 30//64 33//64
f  32//65 14//66 33//65
f  34//67 15//68 35//68
f  15//3 32//69 36//69
f  37//70 15//71 38//71
f  16//28 15//72 37//72
f  35//73 15//74 36//74
f  15//3 39//75 40//75
f  15//3 34//76 39//76
f  15//3 40//77 38//77
f  41//78 17//78 16//78
f  37//70 41//79 16//80
f  42//3 43//81 17//81
f  42//3 17//82 44//82
f  43//83 22//84 17//84
f  45//3 17//85 41//85
f  44//3 17//86 45//87
f  18//88 46//89 47//89
f  18//88 47//90 19//90
f  20//3 48//91 18//91
f  18//88 49//92 46//92
f  48//3 49//93 18//94
f  47//3 25//95 19//46
f  20//3 50//96 48//96
f  20//3 21//97 50//97
f  21//3 51//98 52//98
f  21//3 52//99 50//99
f  21//3 22//100 51//100
f  53//101 22//102 54//102
f  43//83 54//103 22//103
f  55//3 22//104 56//104
f  56//105 22//106 53//106
f  51//3 22//107 55//108
f  26//49 23//109 57//109
f  23//41 24//110 58//110
f  57//111 23//112 58//113
f  24//3 25//114 58//114
f  59//3 60//115 25//115
f  58//116 25//116 60//116
f  59//3 25//117 47//118
f  61//3 26//119 57//119
f  27//3 26//120 61//121
f  27//3 61//122 62//122
f  27//3 62//123 28//123
f  29//60 28//124 63//124
f  63//125 28//126 64//126
f  64//127 28//128 62//127
f  31//58 29//129 65//129
f  63//125 65//130 29//131
f  45//3 30//132 31//132
f  33//3 30//133 45//134
f  45//3 31//135 65//136
f  36//137 32//138 33//139
f  36//137 33//140 38//140
f  38//141 33//142 41//142
f  33//3 45//143 41//143
f  35//73 66//144 34//144
f  67//3 34//145 66//145
f  38//141 40//146 34//146
f  38//141 34//147 67//147
f  34//67 68//148 39//148
f  68//149 34//150 69//150
f  70//151 69//152 34//152
f  70//151 34//153 40//154
f  35//73 71//155 66//155
f  71//156 35//157 36//158
f  71//156 36//157 38//159
f  38//141 41//160 37//80
f  67//3 66//161 38//161
f  66//3 71//162 38//157
f  39//3 70//163 40//153
f  39//3 68//164 70//164
f  72//165 43//165 42//165
f  42//3 52//166 72//166
f  73//3 42//167 44//167
f  42//3 73//168 52//168
f  74//169 43//170 72//170
f  54//3 43//171 74//172
f  44//3 45//173 73//173
f  65//3 75//174 45//174
f  45//3 75//175 73//175
f  47//3 46//176 59//176
f  59//3 46//177 60//177
f  49//3 60//178 46//179
f  48//3 61//180 49//180
f  61//3 48//181 76//181
f  48//3 50//182 76//182
f  57//111 60//183 49//183
f  49//3 61//184 57//184
f  52//3 76//185 50//186
f  52//3 51//187 72//187
f  51//3 74//188 72//189
f  51//3 55//190 74//190
f  52//3 73//191 76//191
f  53//101 54//192 69//192
f  53//101 69//193 70//193
f  77//3 56//194 53//194
f  53//101 68//195 77//195
f  68//149 53//196 70//197
f  74//169 78//198 54//198
f  54//3 78//199 69//199
f  55//3 56//200 78//200
f  55//3 78//201 74//202
f  56//105 69//203 78//204
f  77//3 69//205 56//204
f  60//3 57//179 58//112
f  61//3 76//206 62//206
f  73//3 64//207 62//207
f  73//3 62//208 76//209
f  63//125 79//210 65//210
f  63//125 80//211 81//211
f  81//212 79//212 63//212
f  82//213 80//214 63//214
f  82//213 63//215 64//216
f  83//3 82//217 64//217
f  84//218 83//219 64//219
f  84//218 64//220 85//220
f  73//3 85//221 64//222
f  65//3 79//223 75//223
f  77//3 68//224 69//196
f  73//3 75//225 85//225
f  75//3 86//226 87//226
f  88//3 75//227 87//227
f  85//228 75//228 88//228
f  89//3 75//229 79//229
f  75//3 89//230 86//230
f  89//3 79//231 90//231
f  91//3 79//232 92//232
f  90//233 79//234 91//234
f  79//3 81//235 92//235
f  93//236 81//236 80//236
f  82//213 94//237 80//237
f  80//3 94//238 93//238
f  92//239 81//240 93//239
f  94//241 82//242 83//243
f  94//241 83//244 95//244
f  83//3 84//245 96//245
f  83//3 96//246 95//246
f  84//218 97//247 98//247
f  84//218 98//248 96//248
f  97//3 84//249 85//250
f  97//3 85//249 88//251
f  86//252 99//252 87//252
f  89//3 100//253 86//253
f  100//3 99//254 86//255
f  101//256 88//257 87//257
f  101//256 87//258 102//258
f  87//3 99//259 102//259
f  103//260 88//260 102//260
f  102//261 88//261 101//262
f  88//3 103//263 97//263
f  90//233 104//264 89//264
f  89//3 104//265 100//265
f  90//233 91//266 105//266
f  106//3 90//267 105//267
f  107//268 90//269 106//269
f  90//233 107//270 108//270
f  108//271 104//271 90//272
f  91//3 92//273 109//273
f  91//3 109//274 105//274
f  109//275 92//276 93//277
f  109//275 93//276 94//278
f  109//275 94//276 95//279
f  105//280 109//281 95//282
f  105//280 95//281 96//283
f  106//3 105//284 96//285
f  107//268 96//286 110//286
f  96//287 98//287 110//287
f  106//3 96//284 107//288
f  98//3 97//289 110//289
f  97//3 103//290 111//290
f  110//3 97//291 112//291
f  97//3 111//292 112//292
f  113//293 102//294 99//294
f  114//295 99//296 100//296
f  113//293 99//297 114//298
f  104//299 115//299 100//299
f  100//3 115//300 114//300
f  113//293 103//301 102//302
f  116//303 103//304 113//304
f  111//305 103//306 116//307
f  117//308 104//309 108//309
f  115//3 104//310 117//311
f  118//312 108//312 107//312
f  110//3 118//313 107//314
f  117//308 108//315 118//316
f  110//3 112//317 118//317
f  111//305 119//318 120//318
f  112//319 111//320 120//320
f  116//303 119//321 111//322
f  112//319 117//323 118//315
f  112//319 120//324 115//324
f  115//3 117//310 112//315
f  116//303 113//325 121//325
f  121//3 113//326 114//327
f  115//3 120//328 114//328
f  114//295 120//329 119//330
f  119//331 121//331 114//326
f  121//3 119//326 116//322
