# 
# Wavefront OBJ file
# Converted by the DEEP Exploration 2.00.1211
# Right Hemisphere, LTD
# http://www.righthemisphere.com/
# 
mtllib pelvis_l_UG.mtl
# object Object #0
g Object__0
v -0.062448 -0.071901 -0.057002
v -0.062417 -0.062953 -0.05554
v -0.045919 -0.070017 -0.069408
v -0.052737 -0.076823 -0.05998
v -0.076977 -0.066999 -0.05577
v -0.08475 -0.081351 -0.070701
v -0.080483 -0.072644 -0.062249
v -0.057682 -0.053884 -0.064535
v -0.071624 -0.058301 -0.055727
v -0.067026 -0.053924 -0.056784
v -0.047413 -0.050859 -0.081192
v -0.048881 -0.048842 -0.096234
v -0.041877 -0.045942 -0.088833
v -0.04183 -0.065559 -0.060295
v -0.031563 -0.08355 -0.016874
v -0.054641 -0.074427 -0.051754
v -0.080788 -0.075604 -0.049913
v -0.087329 -0.064967 -0.065912
v -0.078795 -0.058398 -0.05662
v -0.094784 -0.078564 -0.080703
v -0.102557 -0.079412 -0.071675
v -0.098898 -0.09077 -0.05013
v -0.061428 -0.046106 -0.069411
v -0.065351 -0.04949 -0.061383
v -0.075725 -0.050801 -0.059263
v -0.061698 -0.040081 -0.089113
v -0.071333 -0.042764 -0.104575
v -0.059916 -0.02759 -0.099
v -0.029562 -0.031117 -0.09683
v -0.043487 -0.047599 -0.064706
v -0.045607 -0.037891 -0.078833
v -0.036276 -0.072749 -0.036449
v -0.043358 -0.059739 -0.041738
v -0.055663 -0.097839 0.000351
v -0.025062 -0.079029 -0.002221
v -0.021941 -0.075541 -0.023867
v -0.052625 -0.067426 -0.044255
v -0.055601 -0.064625 -0.037258
v -0.054177 -0.102026 -0.005631
v -0.062757 -0.090507 -0.019243
v -0.062492 -0.05519 -0.052861
v -0.125353 -0.054405 -0.05296
v -0.126944 -0.070428 -0.061559
v -0.089373 -0.030293 -0.06689
v -0.059231 -0.03204 -0.061986
v -0.089862 -0.054217 -0.072831
v -0.085142 -0.053865 -0.06024
v -0.097661 -0.06094 -0.092403
v -0.091591 -0.050185 -0.089785
v -0.105344 -0.063815 -0.075543
v -0.111746 -0.086624 -0.072478
v -0.110855 -0.059933 -0.067604
v -0.096303 -0.102807 -0.040325
v -0.135611 -0.084397 -0.054166
v -0.119191 -0.10149 -0.069475
v -0.114308 -0.115077 -0.05203
v -0.072428 -0.04038 -0.077771
v -0.070202 -0.044831 -0.065144
v -0.084509 -0.0483 -0.064622
v -0.07769 -0.044275 -0.065884
v -0.088044 -0.048933 -0.100261
v -0.088158 -0.031197 -0.092581
v -0.023835 -0.0093 -0.106864
v -0.063048 -0.00657 -0.09977
v -0.036015 -0.018197 -0.095127
v -0.046878 -0.072892 -0.002407
v -0.055379 -0.08285 -0.001799
v -0.072771 -0.117347 -0.02523
v -0.106712 -0.111791 -0.036161
v -0.065047 -0.095889 -0.019016
v -0.026301 -0.071631 -0.004815
v -0.118362 -0.066696 -0.067764
v -0.095264 -0.012132 -0.07012
v -0.131818 -0.075844 -0.069124
v -0.083712 0.011709 -0.060801
v -0.100969 -0.048285 -0.084058
v -0.092129 -0.12087 -0.035677
v -0.135738 -0.096931 -0.060259
v -0.056939 0.031117 -0.098576
v -0.008839 -0.013896 -0.121746
v 0 0 -0.118718
v -0.028267 -0.009664 -0.112591
v -0.045061 0.043864 -0.123584
v -0.077514 0.027034 -0.079831
v -0.101925 -0.005538 -0.07329
v -0.097172 0.024295 -0.05511
v -0.104359 0.01008 -0.050771
v -0.120259 -0.006688 -0.063216
v -0.082516 0.04438 -0.066276
v -0.068605 0.091887 -0.085194
v -0.02613 0.046823 -0.120518
v -0.008366 0.02201 -0.122779
v -0.001184 0.011484 -0.127749
v -0.018107 0.019491 -0.132935
v -0.042118 0.051224 -0.132586
v -0.065829 0.083022 -0.103489
v -0.127064 0.049844 -0.068258
v -0.09758 0.072126 -0.071741
v -0.118896 0.021691 -0.059151
v -0.110783 0.041488 -0.052254
v -0.130339 -0.000991 -0.057141
v -0.13414 0.009515 -0.055856
v -0.132189 0.020569 -0.063785
v -0.084245 0.06599 -0.059553
v -0.042675 0.072014 -0.11914
v -0.063704 0.089931 -0.100713
v -0.08681 0.093832 -0.076345
v -0.080521 0.08927 -0.070947
v -0.016222 0.038473 -0.132645
v -0.105118 0.082413 -0.073602
v -0.140045 0.047838 -0.057869
v -0.121831 0.074797 -0.06141
v -0.135709 0.025433 -0.056811
v -0.130442 0.036093 -0.043881
v -0.12133 0.055186 -0.048853
v -0.142756 0.037853 -0.055989
v -0.099933 0.080171 -0.058907
v -0.101184 0.087329 -0.067624
v -0.142567 0.03686 -0.050538
v -0.137764 0.052955 -0.051671
v -0.140283 0.027057 -0.051667
# 121 verticies
vn -0.121229 0.359878 -0.92509
vn -0.354023 -0.104927 -0.929332
vn -0.267537 -0.600731 -0.753357
vn 0.149599 -0.948998 -0.277531
vn 0.310915 0.215176 -0.92576
vn 0.545957 -0.403891 -0.734032
vn 0.461437 0.510762 -0.725395
vn -0.637155 -0.471716 -0.609523
vn 0.066755 -0.198429 -0.977839
vn -0.24212 -0.455979 -0.856423
vn -0.761351 -0.588225 -0.272647
vn -0.43504 -0.819409 -0.373243
vn 0.902474 -0.105892 -0.417525
vn 0.97926 -0.15669 -0.128446
vn 0.298445 -0.93228 -0.204414
vn -0.524019 -0.58897 0.615238
vn 0.004593 -0.26767 0.9635
vn 0.836107 0.113477 -0.536701
vn 0.384632 -0.107701 -0.916765
vn 0.010792 -0.549332 -0.835535
vn -0.270876 -0.652059 -0.708128
vn 0.806719 -0.590347 0.026366
vn -0.442443 -0.802043 -0.401211
vn -0.334209 -0.67675 -0.655983
vn 0.114995 -0.573523 -0.811078
vn -0.210331 -0.97759 -0.008925
vn 0.081692 -0.106371 -0.990965
vn -0.028317 -0.102829 -0.994296
vn 0.928279 -0.35606 0.107331
vn 0.904981 0.38323 0.184779
vn 0.84145 0.216414 0.495103
vn 0.874146 -0.080398 -0.478963
vn 0.597962 0.712441 0.367245
vn -0.386977 -0.146409 0.910392
vn 0.692764 -0.301178 0.655263
vn 0.975002 0.120513 -0.186673
vn -0.808007 -0.531388 0.254465
vn -0.764908 0.570408 0.299248
vn 0.676044 -0.687131 -0.266112
vn -0.316785 -0.457139 -0.831067
vn -0.522677 0.163736 0.836659
vn -0.762495 0.57417 0.29821
vn -0.660002 0.551069 0.510608
vn 0.008816 0.268014 0.963375
vn 0.217492 0.385371 0.896764
vn 0.911922 -0.37703 -0.162007
vn 0.670086 -0.253985 -0.697478
vn 0.051261 -0.506395 -0.860777
vn 0.800223 -0.592796 -0.090749
vn -0.836732 -0.204561 -0.507971
vn 0.169056 -0.132224 -0.976697
vn -0.630911 0.16653 -0.757773
vn 0.716507 0.551027 -0.42777
vn -0.571314 0.439045 0.693427
vn 0.06781 -0.515173 -0.854399
vn 0.102875 -0.877018 -0.469315
vn 0.104531 -0.986292 -0.127675
vn -0.148657 -0.834996 -0.529795
vn 0.55832 -0.701964 -0.442183
vn 0.360558 -0.870106 -0.336025
vn -0.011922 -0.828766 -0.559468
vn -0.531323 0.329204 -0.78059
vn 0.527607 -0.708164 0.469184
vn -0.502312 -0.218437 -0.836641
vn 0.669137 0.259446 0.696379
vn -0.17476 0.52364 0.833823
vn -0.759849 0.332307 0.558749
vn 0.489285 -0.865157 -0.110017
vn -0.603308 -0.122417 0.788057
vn 0.122695 0.849226 -0.513576
vn 0.442904 0.801604 0.401581
vn -0.407576 0.479503 -0.777148
vn -0.965919 0.143339 0.215533
vn -0.677614 0.297518 -0.67255
vn 0.406231 -0.117873 0.906136
vn -0.837575 0.175274 -0.517443
vn 0.150003 -0.938292 -0.311619
vn -0.875424 -0.473345 -0.097865
vn 0.609002 0.176478 0.773287
vn 0.283884 -0.829958 -0.480186
vn 0.799383 0.002763 0.600815
vn -0.389343 -0.745245 -0.541315
vn -0.69289 -0.244899 -0.67818
vn -0.56543 0.010556 -0.824729
vn -0.613406 -0.494181 -0.61605
vn 0.211799 0.103396 0.971828
vn 0.064613 -0.137611 0.988377
vn -0.346567 -0.838211 -0.421063
vn 0.664658 0.016412 0.746968
vn 0.730417 0.47333 0.492392
vn 0.746819 0.379468 0.546136
vn 0.729546 0.431836 0.530358
vn 0.831558 0.071187 -0.550858
vn -0.223933 -0.273109 -0.935556
vn -0.384453 0.089694 -0.918777
vn -0.63935 0.144805 -0.755158
vn -0.393668 0.039438 -0.918406
vn -0.36557 -0.2012 -0.908778
vn 0.002264 -0.112789 0.993616
vn 0.322325 -0.128057 0.937928
vn -0.43655 -0.644182 0.628055
vn -0.916588 -0.0784 0.392072
vn -0.716056 -0.189967 -0.671697
vn 0.523558 0.077652 0.848444
vn 0.470066 0.780736 -0.411691
vn -0.067001 0.869315 -0.489696
vn -0.266906 0.953897 -0.137267
vn 0.313987 0.651395 0.690722
vn 0.717767 0.49986 -0.484717
vn -0.563369 0.380534 -0.733355
vn -0.863398 0.27042 -0.425931
vn -0.662757 0.743115 0.092379
vn -0.620437 -0.711445 0.330006
vn -0.014581 -0.280956 0.95961
vn 0.042422 0.286621 0.957104
vn -0.932626 -0.184444 -0.310143
vn 0.028979 0.551892 0.833412
vn -0.301834 0.901876 0.309057
vn -0.892838 0.076933 0.443758
vn -0.639293 0.45495 0.619939
vn -0.721227 -0.616301 0.316234
# 121 normals
usemtl Material__1
f  1//1 2//2 3//3
f  3//3 4//4 1//1
f  5//5 2//2 1//1
f  6//6 7//7 1//1
f  5//5 1//1 7//7
f  6//6 1//1 4//4
f  2//2 8//8 3//3
f  2//2 9//9 10//10
f  8//8 2//2 10//10
f  2//2 5//5 9//9
f  3//3 8//8 11//11
f  11//11 12//12 3//3
f  12//12 13//13 3//3
f  14//14 3//3 13//13
f  14//14 4//4 3//3
f  15//15 4//4 14//14
f  4//4 15//15 16//16
f  6//6 4//4 17//17
f  17//17 4//4 16//16
f  7//7 18//18 5//5
f  5//5 18//18 19//19
f  5//5 19//19 9//9
f  6//6 18//18 7//7
f  20//20 18//18 6//6
f  6//6 21//21 20//20
f  6//6 17//17 22//22
f  21//21 6//6 22//22
f  11//11 8//8 23//23
f  8//8 10//10 24//24
f  23//23 8//8 24//24
f  9//9 25//25 10//10
f  19//19 25//25 9//9
f  10//10 25//25 24//24
f  12//12 11//11 26//26
f  26//26 11//11 23//23
f  26//26 27//27 12//12
f  12//12 27//27 13//13
f  13//13 28//28 29//29
f  13//13 27//27 28//28
f  13//13 30//30 14//14
f  31//31 30//30 13//13
f  29//29 31//31 13//13
f  14//14 32//32 15//15
f  14//14 30//30 33//33
f  32//32 14//14 33//33
f  34//34 15//15 35//35
f  15//15 32//32 36//36
f  37//37 15//15 38//38
f  16//16 15//15 37//37
f  35//35 15//15 36//36
f  15//15 39//39 40//40
f  15//15 34//34 39//39
f  15//15 40//40 38//38
f  41//41 17//17 16//16
f  37//37 41//41 16//16
f  42//42 43//43 17//17
f  42//42 17//17 44//44
f  43//43 22//22 17//17
f  45//45 17//17 41//41
f  44//44 17//17 45//45
f  18//18 46//46 47//47
f  18//18 47//47 19//19
f  20//20 48//48 18//18
f  18//18 49//49 46//46
f  48//48 49//49 18//18
f  47//47 25//25 19//19
f  20//20 50//50 48//48
f  20//20 21//21 50//50
f  21//21 51//51 52//52
f  21//21 52//52 50//50
f  21//21 22//22 51//51
f  53//53 22//22 54//54
f  43//43 54//54 22//22
f  55//55 22//22 56//56
f  56//56 22//22 53//53
f  51//51 22//22 55//55
f  26//26 23//23 57//57
f  23//23 24//24 58//58
f  57//57 23//23 58//58
f  24//24 25//25 58//58
f  59//59 60//60 25//25
f  58//58 25//25 60//60
f  59//59 25//25 47//47
f  61//61 26//26 57//57
f  27//27 26//26 61//61
f  27//27 61//61 62//62
f  27//27 62//62 28//28
f  29//29 28//28 63//63
f  63//63 28//28 64//64
f  64//64 28//28 62//62
f  31//31 29//29 65//65
f  63//63 65//65 29//29
f  45//45 30//30 31//31
f  33//33 30//30 45//45
f  45//45 31//31 65//65
f  36//36 32//32 33//33
f  36//36 33//33 38//38
f  38//38 33//33 41//41
f  33//33 45//45 41//41
f  35//35 66//66 34//34
f  67//67 34//34 66//66
f  38//38 40//40 34//34
f  38//38 34//34 67//67
f  34//34 68//68 39//39
f  68//68 34//34 69//69
f  70//70 69//69 34//34
f  70//70 34//34 40//40
f  35//35 71//71 66//66
f  71//71 35//35 36//36
f  71//71 36//36 38//38
f  38//38 41//41 37//37
f  67//67 66//66 38//38
f  66//66 71//71 38//38
f  39//39 70//70 40//40
f  39//39 68//68 70//70
f  72//72 43//43 42//42
f  42//42 52//52 72//72
f  73//73 42//42 44//44
f  42//42 73//73 52//52
f  74//74 43//43 72//72
f  54//54 43//43 74//74
f  44//44 45//45 73//73
f  65//65 75//75 45//45
f  45//45 75//75 73//73
f  47//47 46//46 59//59
f  59//59 46//46 60//60
f  49//49 60//60 46//46
f  48//48 61//61 49//49
f  61//61 48//48 76//76
f  48//48 50//50 76//76
f  57//57 60//60 49//49
f  49//49 61//61 57//57
f  52//52 76//76 50//50
f  52//52 51//51 72//72
f  51//51 74//74 72//72
f  51//51 55//55 74//74
f  52//52 73//73 76//76
f  53//53 54//54 69//69
f  53//53 69//69 70//70
f  77//77 56//56 53//53
f  53//53 68//68 77//77
f  68//68 53//53 70//70
f  74//74 78//78 54//54
f  54//54 78//78 69//69
f  55//55 56//56 78//78
f  55//55 78//78 74//74
f  56//56 69//69 78//78
f  77//77 69//69 56//56
f  60//60 57//57 58//58
f  61//61 76//76 62//62
f  73//73 64//64 62//62
f  73//73 62//62 76//76
f  63//63 79//79 65//65
f  63//63 80//80 81//81
f  81//81 79//79 63//63
f  82//82 80//80 63//63
f  82//82 63//63 64//64
f  83//83 82//82 64//64
f  84//84 83//83 64//64
f  84//84 64//64 85//85
f  73//73 85//85 64//64
f  65//65 79//79 75//75
f  77//77 68//68 69//69
f  73//73 75//75 85//85
f  75//75 86//86 87//87
f  88//88 75//75 87//87
f  85//85 75//75 88//88
f  89//89 75//75 79//79
f  75//75 89//89 86//86
f  89//89 79//79 90//90
f  91//91 79//79 92//92
f  90//90 79//79 91//91
f  79//79 81//81 92//92
f  93//93 81//81 80//80
f  82//82 94//94 80//80
f  80//80 94//94 93//93
f  92//92 81//81 93//93
f  94//94 82//82 83//83
f  94//94 83//83 95//95
f  83//83 84//84 96//96
f  83//83 96//96 95//95
f  84//84 97//97 98//98
f  84//84 98//98 96//96
f  97//97 84//84 85//85
f  97//97 85//85 88//88
f  86//86 99//99 87//87
f  89//89 100//100 86//86
f  100//100 99//99 86//86
f  101//101 88//88 87//87
f  101//101 87//87 102//102
f  87//87 99//99 102//102
f  103//103 88//88 102//102
f  102//102 88//88 101//101
f  88//88 103//103 97//97
f  90//90 104//104 89//89
f  89//89 104//104 100//100
f  90//90 91//91 105//105
f  106//106 90//90 105//105
f  107//107 90//90 106//106
f  90//90 107//107 108//108
f  108//108 104//104 90//90
f  91//91 92//92 109//109
f  91//91 109//109 105//105
f  109//109 92//92 93//93
f  109//109 93//93 94//94
f  109//109 94//94 95//95
f  105//105 109//109 95//95
f  105//105 95//95 96//96
f  106//106 105//105 96//96
f  107//107 96//96 110//110
f  96//96 98//98 110//110
f  106//106 96//96 107//107
f  98//98 97//97 110//110
f  97//97 103//103 111//111
f  110//110 97//97 112//112
f  97//97 111//111 112//112
f  113//113 102//102 99//99
f  114//114 99//99 100//100
f  113//113 99//99 114//114
f  104//104 115//115 100//100
f  100//100 115//115 114//114
f  113//113 103//103 102//102
f  116//116 103//103 113//113
f  111//111 103//103 116//116
f  117//117 104//104 108//108
f  115//115 104//104 117//117
f  118//118 108//108 107//107
f  110//110 118//118 107//107
f  117//117 108//108 118//118
f  110//110 112//112 118//118
f  111//111 119//119 120//120
f  112//112 111//111 120//120
f  116//116 119//119 111//111
f  112//112 117//117 118//118
f  112//112 120//120 115//115
f  115//115 117//117 112//112
f  116//116 113//113 121//121
f  121//121 113//113 114//114
f  115//115 120//120 114//114
f  114//114 120//120 119//119
f  119//119 121//121 114//114
f  121//121 119//119 116//116
