# 
# Wavefront OBJ file
# Converted by the DEEP Exploration 2.00.1211
# Right Hemisphere, LTD
# http://www.righthemisphere.com/
# 
mtllib pelvis_12_20_ls.mtl
# object Object #0
g Object__0
v -0.045177 1.31258e-005 0.016484
v -0.046096 -0.00527893 0.0151662
v -0.041152 -0.00241719 0.0135759
v -0.042827 1.17833e-005 0.014798
v -0.048788 -0.00639746 0.0182631
v -0.049959 1.76064e-005 0.022111
v -0.046096 0.00530307 0.0151578
v -0.048788 0.00642654 0.0182529
v -0.051185 0.0079708 0.0210927
v -0.04574 -0.00718274 0.0128827
v -0.041809 -0.00252574 0.010379
v -0.049876 -0.00809789 0.0139505
v -0.048438 -0.00439252 0.0119075
v -0.051655 -0.00888174 0.0166571
v -0.05351 -0.0050806 0.0155711
v -0.041808 8.26373e-006 0.010378
v -0.041151 1.08094e-005 0.013575
v -0.041152 0.00243881 0.0135721
v -0.051185 -0.0079372 0.0211053
v -0.053097 -0.00548553 0.0194364
v -0.053243 -0.00798772 0.0267324
v -0.057432 2.73441e-005 0.03434
v -0.053243 0.00803028 0.0267196
v -0.04574 0.00720325 0.0128713
v -0.049876 0.0081201 0.0139375
v -0.051655 0.00890826 0.0166429
v -0.053097 0.00551647 0.0194276
v -0.05351 0.00510539 0.0155629
v -0.052399 0.0132106 0.0220675
v -0.05248 0.0126177 0.019688
v -0.048485 -0.00653976 0.00909121
v -0.043792 -0.00248693 0.00636698
v -0.050392 8.30355e-006 0.010428
v -0.043577 4.33173e-006 0.00544
v -0.05244 -0.00184066 0.0129825
v -0.054576 1.16519e-005 0.014633
v -0.041809 0.00254226 0.010375
v -0.052399 -0.0131754 0.0220885
v -0.05248 -0.0125863 0.019708
v -0.055068 1.39372e-005 0.017503
v -0.057732 1.81566e-005 0.022802
v -0.063315 -0.0105163 0.0260154
v -0.054357 -0.0154164 0.0258863
v -0.056439 -0.0148186 0.0281808
v -0.058421 -0.011047 0.0314288
v -0.056349 -0.00822896 0.0339656
v -0.059075 -0.0112069 0.0453729
v -0.059124 3.66899e-005 0.046077
v -0.056349 0.00828304 0.0339524
v -0.059075 0.0112791 0.045355
v -0.054357 0.0154576 0.0258617
v -0.056439 0.0148634 0.0281572
v -0.058421 0.011097 0.0314112
v -0.048438 0.00441148 0.0119005
v -0.048485 0.00655423 0.00908078
v -0.05244 0.00186134 0.0129795
v -0.063315 0.0105577 0.0259986
v -0.04771 6.92679e-006 0.008699
v -0.043792 0.00249707 0.00636301
v -0.061858 2.36e-005 0.029638
v -0.060786 -0.0073323 0.0310198
v -0.053492 -0.0230885 0.0408754
v -0.058598 -0.0126035 0.038313
v -0.056775 -0.018807 0.045266
v -0.059845 -0.0134769 0.0516767
v -0.061098 -0.0065782 0.0537553
v -0.062767 -0.0167611 0.0451004
v -0.067811 -0.0142855 0.0457954
v -0.060316 4.16205e-005 0.052269
v -0.061098 0.0066638 0.0537447
v -0.053492 0.0231535 0.0408386
v -0.056775 0.018879 0.045236
v -0.059845 0.0135591 0.0516552
v -0.062767 0.0168329 0.0450736
v -0.068563 0.0156657 0.0498585
v -0.067811 0.0143585 0.0457726
v -0.060786 0.00738169 0.0310081
v -0.062883 0.00550075 0.0348496
v -0.058598 0.0126645 0.0382929
v -0.062883 -0.00544524 0.0348583
v -0.063912 2.77095e-005 0.034799
v -0.052053 -0.0295333 0.0472965
v -0.054646 -0.0291842 0.0449413
v -0.059898 -0.0202885 0.0458782
v -0.062885 -0.0128999 0.0403733
v -0.056288 -0.0223577 0.0518158
v -0.062494 -0.0199519 0.0490849
v -0.068563 -0.0155863 0.0498834
v -0.05925 -0.0138301 0.058944
v -0.057344 -0.0213334 0.05229
v -0.065474 -0.019136 0.0526933
v -0.058102 -0.00808833 0.0611295
v -0.057873 4.69714e-005 0.058989
v -0.071336 -0.0118251 0.0438964
v -0.05925 0.0139239 0.0589219
v -0.058102 0.00818567 0.0611165
v -0.052053 0.0296086 0.0472494
v -0.056288 0.0224402 0.0517801
v -0.054646 0.0292558 0.0448947
v -0.062494 0.0200301 0.0490531
v -0.057344 0.0214166 0.052256
v -0.058605 0.023768 0.0589881
v -0.065474 0.0192199 0.0526627
v -0.062885 0.0129641 0.0403527
v -0.059898 0.0203615 0.0458458
v -0.068838 0.0179311 0.0566767
v -0.071336 0.0118949 0.0438775
v -0.066651 0.0075309 0.043825
v -0.063871 0.00959907 0.0402704
v -0.063871 -0.00953492 0.0402856
v -0.066651 -0.0074611 0.043837
v -0.068306 3.402e-005 0.042724
v -0.055296 -0.0334794 0.0547347
v -0.0556 -0.0356911 0.0526254
v -0.062067 -0.0224723 0.0523259
v -0.06019 -0.0326238 0.05176
v -0.062607 -0.0229286 0.0594973
v -0.058605 -0.023674 0.0590259
v -0.068838 -0.0178409 0.0567052
v -0.055147 -0.0154314 0.0697823
v -0.067373 -0.0152905 0.0671452
v -0.054333 5.47693e-005 0.068782
v -0.056972 -0.007599 0.0665671
v -0.070396 -0.007168 0.0527507
v -0.073164 -0.0104654 0.0535104
v -0.072064 -0.0147276 0.0532967
v -0.055147 0.0155426 0.0697576
v -0.064655 0.019486 0.0665545
v -0.067373 0.0153975 0.0671208
v -0.062753 0.0161948 0.0763641
v -0.056972 0.007705 0.0665549
v -0.055296 0.0335666 0.0546813
v -0.0556 0.0357749 0.0525685
v -0.062067 0.0225556 0.0522901
v -0.06019 0.0327062 0.051708
v -0.062607 0.0230234 0.0594607
v -0.054708 0.0362252 0.0617832
v -0.057269 0.0272948 0.0663323
v -0.063169 0.022946 0.0690848
v -0.072064 0.0148124 0.0532732
v -0.074345 0.0127086 0.0648389
v -0.066063 0.017252 0.0615363
v -0.075716 0.0127219 0.0589299
v -0.070396 0.007252 0.0527392
v -0.073164 0.0105506 0.0534936
v -0.072435 3.98217e-005 0.05001
v -0.054708 -0.0361268 0.0618408
v -0.0548 -0.037269 0.0615157
v -0.060403 -0.0356877 0.0607034
v -0.066063 -0.017154 0.0615637
v -0.063579 -0.0327197 0.0681481
v -0.063169 -0.022836 0.0691212
v -0.064655 -0.01938 0.0665855
v -0.057269 -0.0271892 0.0663757
v -0.051695 -0.0387586 0.0645439
v -0.074345 -0.0126054 0.0648591
v -0.075716 -0.0126281 0.0589501
v -0.062753 -0.0160732 0.0763898
v -0.049547 -0.0109083 0.0724677
v -0.052408 -0.026119 0.0677908
v -0.059366 -0.0168612 0.0838445
v -0.070235 -0.0134645 0.0747807
v -0.049239 5.70013e-005 0.071585
v -0.049547 0.0110237 0.0724502
v -0.071768 -0.0065789 0.0604063
v -0.075139 -0.00808442 0.0610065
v -0.052408 0.026227 0.0677491
v -0.059366 0.0169947 0.0838175
v -0.057859 0.0144964 0.0908765
v -0.05603 0.0250722 0.0856661
v -0.070235 0.0135835 0.0747592
v -0.060508 0.0231117 0.0762796
v -0.064537 0.0140754 0.0845838
v -0.0548 0.0373669 0.0614563
v -0.060403 0.0357843 0.0606465
v -0.051695 0.0388614 0.0644821
v -0.063579 0.0328282 0.0680959
v -0.075139 0.00818157 0.0609935
v -0.072885 0.0107442 0.0730635
v -0.07325 0.00683446 0.0646236
v -0.073306 0.00706352 0.0684644
v -0.071768 0.00667509 0.0603957
v -0.072965 4.38962e-005 0.055127
v -0.051889 -0.0418838 0.0705944
v -0.057292 -0.0397255 0.0722547
v -0.0607 -0.0361995 0.0734439
v -0.060508 -0.0229902 0.0763163
v -0.046627 -0.0313182 0.06764
v -0.044962 -0.0364908 0.0642681
v -0.046316 -0.0439543 0.063639
v -0.046182 -0.039513 0.0627535
v -0.072885 -0.0106278 0.0730805
v -0.07325 -0.00673154 0.0646344
v -0.073306 -0.00695448 0.0684756
v -0.05603 -0.0249358 0.0857059
v -0.057859 -0.0143516 0.0908995
v -0.043249 -0.00475645 0.0760448
v -0.04166 -0.0185825 0.0747228
v -0.046087 -0.00517961 0.0745862
v -0.052182 -0.0171097 0.0921187
v -0.064537 -0.0139406 0.0846061
v -0.071363 -0.00786456 0.0796693
v -0.045738 6.03369e-005 0.075774
v -0.046087 0.00529839 0.0745778
v -0.04166 0.0187015 0.0746931
v -0.043249 0.00487755 0.0760371
v -0.071086 5.00044e-005 0.062798
v -0.044962 0.0365931 0.0642099
v -0.046627 0.0314258 0.06759
v -0.052182 0.0172563 0.0920913
v -0.058263 0.0131211 0.0943286
v -0.060099 0.00904869 0.0925378
v -0.0607 0.0363164 0.0733861
v -0.055859 0.0372653 0.0857734
v -0.054622 0.0300885 0.0909791
v -0.052134 0.0245545 0.0910855
v -0.04009 0.0272892 0.0705753
v -0.071363 0.00799143 0.0796567
v -0.066645 0.00900671 0.0850309
v -0.051889 0.0419962 0.0705276
v -0.057292 0.0398405 0.0721913
v -0.046182 0.0396129 0.0626905
v -0.046316 0.0440556 0.0635689
v -0.075646 0.00711868 0.0774544
v -0.073303 5.67353e-005 0.071251
v -0.048861 -0.0418966 0.0758984
v -0.053095 -0.0405946 0.0783214
v -0.055859 -0.0371287 0.0858326
v -0.04009 -0.0271768 0.0706187
v -0.038301 -0.0363238 0.0643159
v -0.040054 -0.0397099 0.0641786
v -0.042263 -0.0426276 0.063326
v -0.039621 -0.041682 0.0754272
v -0.075646 -0.00699532 0.0774656
v -0.054622 -0.0299435 0.0910269
v -0.052134 -0.0244094 0.0911245
v -0.058263 -0.0129709 0.0943494
v -0.060099 -0.00890131 0.0925521
v -0.066645 -0.00887128 0.0850451
v -0.04245 -0.00933969 0.0769935
v -0.040233 -0.00918097 0.0779093
v -0.038592 6.26063e-005 0.078624
v -0.035374 -0.0180703 0.0762094
v -0.046315 -0.0256697 0.0946285
v -0.049289 -0.0203258 0.0969492
v -0.050142 -0.0111522 0.10018
v -0.066036 -0.00437315 0.0839535
v -0.07057 6.47307e-005 0.081292
v -0.033568 0.0254554 0.0733848
v -0.035374 0.0181917 0.0761805
v -0.040233 0.00930503 0.0778946
v -0.04245 0.0094623 0.0769785
v -0.038301 0.0364262 0.064258
v -0.040054 0.0398121 0.0641153
v -0.049289 0.0204802 0.0969167
v -0.050142 0.0113118 0.100162
v -0.064186 0.00572516 0.0881115
v -0.056142 0.00340834 0.0971223
v -0.064666 7.52065e-005 0.094448
v -0.053095 0.0407193 0.0782566
v -0.047725 0.0338309 0.0953481
v -0.041519 0.0431202 0.0830877
v -0.040296 0.0349376 0.0987492
v -0.046315 0.0258203 0.0945875
v -0.03165 0.0362744 0.0645501
v -0.066036 0.00450685 0.0839464
v -0.048861 0.0420174 0.0758316
v -0.042263 0.0427284 0.063258
v -0.074289 6.18681e-005 0.077697
v -0.041519 -0.0429878 0.0831563
v -0.040296 -0.0347803 0.0988047
v -0.047725 -0.033679 0.0954018
v -0.033568 -0.0253385 0.0734252
v -0.03165 -0.0361716 0.0646078
v -0.032381 -0.0401112 0.063789
v -0.03096 -0.0410946 0.0645537
v -0.023829 -0.0450769 0.0805299
v -0.064186 -0.00558483 0.0881205
v -0.056142 -0.00325366 0.0971276
v -0.031471 -0.012793 0.0790622
v -0.031926 6.41391e-005 0.080549
v -0.037531 -0.0229922 0.102748
v -0.045658 -0.0193715 0.102367
v -0.05255 -0.00313455 0.10104
v -0.052215 -0.00590383 0.105702
v -0.041924 -0.0146478 0.110722
v -0.041807 -0.0176489 0.106898
v -0.064823 6.96453e-005 0.087464
v -0.021162 0.0370222 0.0667615
v -0.023819 0.0296532 0.0743294
v -0.031471 0.0129189 0.0790417
v -0.037531 0.0231558 0.102712
v -0.032381 0.0402128 0.063725
v -0.039621 0.041802 0.0753607
v -0.045658 0.0195345 0.102336
v -0.05255 0.00329545 0.101034
v -0.052215 0.00607216 0.105692
v -0.041924 0.0148242 0.110698
v -0.041807 0.0178191 0.10687
v -0.055997 7.80309e-005 0.097995
v -0.052335 8.12869e-005 0.102084
v -0.023829 0.0452051 0.080458
v -0.030164 0.0447406 0.0898964
v -0.03154 0.0406549 0.0966067
v -0.038022 0.0362031 0.100528
v -0.033752 0.0294162 0.105696
v -0.018472 0.0410305 0.0608823
v -0.038022 -0.0360429 0.100586
v -0.030164 -0.0445974 0.0899675
v -0.03154 -0.040501 0.0966713
v -0.023819 -0.0295348 0.0743765
v -0.032084 -0.0320731 0.105437
v -0.033752 -0.0292478 0.105742
v -0.021162 -0.0369158 0.0668204
v -0.018472 -0.0409335 0.0609476
v -0.01865 -0.0417852 0.0613583
v -0.010745 -0.0452277 0.064397
v -0.020299 -0.0505097 0.0970932
v -0.009599 -0.0524323 0.0837778
v -0.009989 -0.0474852 0.0688808
v -0.023187 6.48924e-005 0.081495
v -0.021726 -0.0179704 0.0811523
v -0.03519 -0.0264967 0.103408
v -0.021726 0.0180996 0.0811236
v -0.033613 -0.0199171 0.107863
v -0.034441 -0.0262269 0.108078
v -0.053838 8.38063e-005 0.105248
v -0.05411 -0.00531661 0.108495
v -0.031804 -0.0158585 0.112388
v -0.043489 -0.00889765 0.112211
v -0.011842 0.0401142 0.0718601
v -0.009139 0.0458987 0.0648845
v -0.013441 0.0332673 0.0782655
v -0.03519 0.0266613 0.103366
v -0.033613 0.0200889 0.107831
v -0.034441 0.026399 0.108036
v -0.03096 0.0411974 0.0644882
v -0.055671 8.58129e-005 0.107768
v -0.05411 0.00548939 0.108487
v -0.031804 0.0160375 0.112362
v -0.043489 0.00907634 0.112197
v -0.010745 0.0453302 0.0643249
v -0.01865 0.0418828 0.0612917
v -0.020299 0.0506643 0.0970127
v -0.009599 0.0525657 0.0836942
v -0.009989 0.0475948 0.0688051
v -0.02631 0.0419037 0.0988557
v -0.030111 0.0391006 0.0999679
v -0.032084 0.0322409 0.105385
v -0.032932 0.0268215 0.109817
v -0.030111 -0.0389414 0.10003
v -0.02631 -0.0417462 0.0989223
v -0.013441 -0.0331426 0.0783184
v -0.0298 -0.0410163 0.112718
v -0.026363 -0.0442918 0.119516
v -0.032932 -0.0266465 0.109859
v -0.011842 -0.0399997 0.0719239
v -0.009139 -0.0457953 0.0649575
v -0.00456 -0.0499441 0.0727548
v -0.027278 -0.0472878 0.105704
v -0.006654 -0.0536486 0.0858617
v -0.012299 -0.0547465 0.0998356
v -0.018396 -0.0533425 0.113703
v -0.012825 -0.00596178 0.0831668
v 7.7e-005 7.05045e-005 0.088543
v -0.012825 0.00609422 0.0831572
v -0.010035 -0.0124378 0.0843839
v -0.013071 -0.0232272 0.0826665
v -0.010035 0.0125722 0.084364
v -0.013071 0.0233588 0.0826294
v -0.032035 -0.0240373 0.110112
v -0.027579 -0.0220751 0.115429
v -0.055595 8.71729e-005 0.109476
v -0.053289 9.0022e-005 0.113054
v -0.031632 -0.0145699 0.114432
v -0.042256 9.14091e-005 0.114796
v -0.03817 9.03317e-005 0.113443
v -0.007553 0.0431938 0.0763196
v -0.00456 0.0500599 0.0726752
v -0.009729 0.0248232 0.0856763
v -0.010476 0.0390801 0.0879799
v -0.027579 0.0222589 0.115393
v -0.032035 0.0242127 0.110074
v -0.031632 0.0147521 0.114408
v -0.027278 0.0474561 0.105628
v -0.012299 0.0549054 0.0997483
v -0.006654 0.0537853 0.0857762
v -0.0298 0.0411957 0.112652
v -0.026363 0.0444821 0.119446
v -0.031226 0.0266121 0.116964
v -0.02802 0.0322669 0.120431
v -0.009729 -0.0246868 0.0857157
v -0.010462 -0.028163 0.0929075
v -0.010476 -0.0389399 0.088042
v -0.007553 -0.0430722 0.0763883
v -0.026294 -0.0473996 0.113503
v -0.021236 -0.0500239 0.119514
v -0.02802 -0.0320751 0.120483
v -0.031226 -0.0264258 0.117006
v -0.008252 -0.0470103 0.0837885
v -0.015238 -0.0491104 0.101209
v -0.016946 -0.0480694 0.112493
v -0.022156 -0.045357 0.11687
v 0.000528 -0.00872387 0.089331
v 0.002272 7.2328e-005 0.090833
v 0.000528 0.00886612 0.089317
v 0.002907 0.00947816 0.0918745
v -2e-006 0.0162428 0.0926161
v -0.028934 -0.0245769 0.120701
v -0.025098 -0.0202486 0.119849
v -0.025569 -0.0158423 0.106363
v -0.021203 8.4538e-005 0.106167
v -0.021979 -0.0188422 0.116568
v -0.008252 0.0471437 0.0837135
v -0.010462 0.028311 0.0928625
v -0.009574 0.0235331 0.0993143
v -0.015238 0.0492715 0.101131
v -0.016188 0.0403206 0.100007
v -0.025098 0.0204394 0.119817
v -0.028934 0.0247691 0.120661
v -0.025569 0.0160117 0.106337
v -0.021979 0.0190278 0.116538
v -0.018396 0.0535235 0.113617
v -0.026294 0.0475803 0.113427
v -0.021236 0.0502141 0.119434
v -0.024992 0.0314071 0.110582
v -0.022526 0.0344752 0.11201
v -0.022156 0.045543 0.116798
v -2e-006 -0.0160952 0.0926418
v -0.009574 -0.0233749 0.0993516
v -0.016677 -0.0290446 0.102259
v -0.016188 -0.0401613 0.100071
v -0.022526 -0.0342968 0.112064
v -0.024992 -0.0312309 0.110632
v -0.018947 -0.0394 0.11053
v 0.002907 -0.00933183 0.0918895
v -0.018003 8.3475e-005 0.104832
v -0.01448 -0.00268742 0.0999362
v -0.01448 0.00284657 0.0999318
v -0.021402 -0.0254008 0.119538
v -0.021063 -0.0202849 0.106877
v -0.017149 -0.0206948 0.104502
v -0.016677 0.0292074 0.102213
v -0.018531 0.028033 0.106746
v -0.017149 0.0208612 0.104468
v -0.016946 0.0482485 0.112417
v -0.018947 0.039576 0.110468
v -0.021402 0.0255912 0.119498
v -0.021063 0.0204551 0.106845
v -0.020903 0.0272672 0.109516
v -0.018531 -0.027863 0.10679
v -0.020903 -0.0270928 0.10956
# 452 verticies
vn 0.710686 0.702683 -0.034085
vn 0.513333 0.311389 0.799704
vn 0.868411 0.427816 0.250672
vn 0.548973 0.830521 -0.094148
vn 0.434797 0.501416 0.74802
vn 0.854189 0.518755 0.035418
vn 0.574938 0.589894 -0.566985
vn 0.312145 0.40529 -0.859247
vn 0.935886 0.068273 -0.345624
vn 0.109584 -0.116001 0.987186
vn 0.890225 -0.170164 0.422545
vn -0.190272 -0.588684 0.785652
vn -0.278984 -0.749048 0.600911
vn 0.015562 0.115431 0.993194
vn -0.765277 -0.129529 0.630534
vn 0.966599 -0.256293 6.4e-005
vn 0.971115 0.238612 -7.2e-005
vn 0.795919 0.485553 -0.361595
vn 0.939322 -0.054434 0.338691
vn -0.628355 -0.626386 0.461314
vn 0.8618 0.464874 0.202961
vn 0.942416 0.334444 0
vn 0.8618 0.464874 -0.202961
vn 0.298691 -0.179873 -0.937246
vn -0.239101 -0.569882 -0.786172
vn -0.00828 0.292378 -0.956267
vn -0.536082 -0.693941 -0.480689
vn -0.847677 -0.223616 -0.481082
vn 0.916378 0.106929 -0.38577
vn 0.37349 -0.728606 -0.574142
vn -0.546393 -0.485946 0.682137
vn 0.064159 -0.87516 0.479561
vn -0.660914 -0.740345 0.12281
vn 0.466351 -0.862903 0.194717
vn -0.59848 -0.734003 0.321033
vn -0.890088 -0.452681 0.053133
vn 0.867632 -0.32299 -0.378011
vn 0.916378 0.106929 0.38577
vn 0.37349 -0.728606 0.574142
vn -0.971732 -0.233297 -0.036195
vn -0.783325 -0.621612 0
vn -0.867989 -0.237118 0.436315
vn 0.401417 0.046147 0.914732
vn 0.150321 0.630849 0.761205
vn -0.232638 0.337274 0.912209
vn 0.986356 0.150597 0.066501
vn 0.882384 0.469199 0.035367
vn 0.981627 0.19081 0
vn 0.982262 0.187512 0.000459
vn 0.879902 0.412223 -0.236313
vn 0.401417 0.046147 -0.914732
vn 0.150321 0.630849 -0.761205
vn -0.390123 0.233365 -0.890699
vn -0.264136 -0.881988 -0.390293
vn -0.196322 -0.661039 -0.724214
vn -0.59848 -0.734003 -0.321033
vn -0.867989 -0.237118 -0.436315
vn -0.484985 -0.679973 0.549933
vn 0.478161 -0.673749 -0.563404
vn -0.981969 -0.186853 0.028698
vn -0.918615 0.08235 0.386478
vn 0.898749 -0.401118 0.17707
vn -0.673225 -0.492503 0.551552
vn 0.602743 0.577925 -0.550185
vn 0.783492 -0.499056 0.370248
vn 0.995956 -0.088319 0.016477
vn -0.604207 0.272293 0.748859
vn -0.053113 -0.041525 0.997725
vn 0.997018 -0.077167 0
vn 0.995956 -0.088319 -0.016477
vn 0.879768 -0.462816 -0.108673
vn 0.606878 0.58179 0.541497
vn 0.908961 -0.386661 -0.155829
vn -0.635239 0.491986 -0.595333
vn 0.139388 -0.539763 -0.830197
vn -0.263714 -0.117723 -0.95739
vn -0.952724 0.027049 -0.302631
vn -0.822223 -0.406728 -0.398149
vn -0.637366 -0.545028 -0.54471
vn -0.842104 -0.414812 0.344663
vn -0.907435 -0.420033 0.01156
vn 0.992483 -0.047335 0.112857
vn -0.248602 -0.721776 0.645938
vn -0.725035 -0.484848 0.489128
vn -0.510712 -0.67938 0.526893
vn 0.719762 0.178273 -0.670941
vn -0.937205 0.193261 -0.290338
vn -0.215893 -0.458956 0.861829
vn 0.99626 -0.021479 0.083696
vn 0.811467 -0.416466 -0.409972
vn -0.275882 -0.881352 0.383547
vn 0.946123 -0.313956 0.079265
vn 0.932746 -0.360533 0
vn -0.747402 -0.556808 0.362431
vn 0.965494 0.028351 -0.258879
vn 0.946123 -0.313956 -0.079265
vn 0.960581 -0.084412 -0.264876
vn 0.745877 0.186869 0.639333
vn -0.379072 -0.729457 -0.569383
vn -0.937205 0.193261 0.290338
vn 0.677939 -0.507001 0.532304
vn 0.9021 0.236443 0.360985
vn -0.275882 -0.881352 -0.383547
vn -0.497236 -0.652661 -0.571655
vn -0.725035 -0.484848 -0.489128
vn -0.586157 0.030945 -0.809606
vn -0.785758 -0.590428 -0.184332
vn -0.865371 -0.500019 -0.033377
vn -0.734293 -0.675004 -0.072001
vn -0.787185 -0.611924 0.076737
vn -0.852859 -0.522048 -0.00986
vn -0.872298 -0.488975 0
vn 0.993896 0.074552 0.081325
vn 0.724295 -0.320064 0.610701
vn -0.957956 -0.283482 0.04426
vn -0.654134 -0.415739 0.631878
vn -0.897761 -0.089309 0.431333
vn 0.918139 0.186213 -0.34978
vn -0.573737 -0.034012 0.818333
vn 0.67308 -0.699556 0.239968
vn -0.088819 0.241735 0.966269
vn 0.781027 -0.624497 0
vn 0.931975 -0.354428 0.076181
vn -0.865053 -0.301898 -0.400676
vn -0.918562 -0.335633 -0.208792
vn -0.788395 -0.279618 0.547948
vn 0.816334 -0.56611 -0.114538
vn -0.227385 0.917645 -0.325919
vn -0.286075 0.24093 -0.927423
vn -0.595953 0.045506 -0.801729
vn 0.931975 -0.354428 -0.076181
vn 0.987486 0.151764 0.042895
vn 0.303296 -0.371017 -0.877701
vn -0.941095 -0.338101 -0.005269
vn -0.802581 -0.396676 -0.445547
vn -0.890867 -0.06022 -0.450256
vn 0.936104 -0.257719 0.239353
vn 0.567141 -0.66197 0.490048
vn -0.925065 -0.187185 0.330479
vn -0.788395 -0.279618 -0.547948
vn -0.88824 0.227199 -0.399263
vn -0.694903 0.194637 -0.692262
vn -0.92649 -0.131445 -0.352616
vn -0.865053 -0.301898 0.400676
vn -0.918562 -0.335633 0.208792
vn -0.958633 -0.284646 0
vn 0.938138 -0.335354 -0.086228
vn 0.192349 -0.500201 0.844276
vn -0.727819 -0.236673 0.643634
vn -0.660979 0.209381 0.720602
vn -0.942091 -0.000571 0.335356
vn -0.985708 -0.001032 -0.168459
vn -0.393869 0.88522 -0.247492
vn 0.606229 -0.5163 -0.604914
vn 0.198422 -0.978209 -0.061116
vn -0.844448 0.238474 0.479622
vn -0.92649 -0.131445 0.352616
vn -0.776352 0.112087 0.620253
vn 0.422504 -0.749678 0.509385
vn 0.713684 -0.519146 -0.470259
vn 0.222471 0.394876 0.891392
vn -0.575473 0.227957 0.785408
vn 0.628987 -0.777416 0
vn 0.445901 -0.84768 -0.28742
vn -0.948128 -0.118628 -0.294926
vn -0.840557 -0.062686 -0.538084
vn 0.52886 -0.694614 0.487666
vn -0.347153 0.505866 -0.789674
vn -0.350899 0.166237 -0.92154
vn -0.52534 0.440439 0.728033
vn -0.62514 0.292349 -0.723693
vn -0.909108 0.379374 -0.172041
vn -0.603451 0.421928 -0.676627
vn 0.404038 -0.45241 -0.795033
vn -0.758187 -0.194138 -0.622465
vn 0.073778 -0.997031 -0.022067
vn -0.977745 0.089677 -0.189663
vn -0.840557 -0.062686 0.538084
vn -0.845645 0.224296 -0.484331
vn -0.920111 -0.006843 0.391597
vn -0.99281 -0.100469 0.065073
vn -0.948128 -0.118628 0.294926
vn -0.997454 0.071307 0
vn -0.310472 -0.160735 0.936894
vn -0.588265 0.02775 0.808192
vn -0.854304 0.294797 0.428088
vn -0.918685 0.367176 0.1456
vn 0.09226 -0.719398 -0.688443
vn -0.026425 -0.901386 -0.43221
vn -0.198221 -0.440396 0.875648
vn -0.019495 -0.99122 -0.130778
vn -0.845645 0.224296 0.484331
vn -0.920111 -0.006843 -0.391597
vn -0.99281 -0.100469 -0.065073
vn -0.70544 0.360111 -0.610471
vn -0.509088 0.317966 0.79983
vn 0.529582 -0.844998 -0.074304
vn -0.045201 -0.990285 -0.131501
vn 0.575121 -0.815656 -0.06278
vn -0.759715 0.175213 0.626206
vn -0.633852 0.477402 0.608539
vn -0.685822 0.645426 0.336263
vn 0.538109 -0.842875 0
vn 0.575121 -0.815656 0.06278
vn -0.055444 -0.997997 0.030475
vn 0.529582 -0.844998 0.074304
vn -0.996339 -0.085487 0
vn 0.070644 -0.91355 0.400544
vn 0.200046 -0.620309 0.758419
vn -0.791551 0.225506 -0.567974
vn -0.660024 0.5103 -0.551327
vn -0.721667 0.627088 -0.293185
vn -0.88107 0.240984 -0.406991
vn -0.652054 0.428874 -0.625214
vn -0.773107 0.633176 0.037316
vn -0.883072 0.412932 0.222871
vn -0.118923 -0.717829 0.685987
vn -0.66012 0.669568 -0.34047
vn -0.795929 0.586346 -0.15065
vn -0.34821 -0.174735 -0.920987
vn -0.465432 0.005406 -0.885067
vn -0.019495 -0.99122 0.130778
vn -0.252954 -0.534843 -0.806199
vn -0.934024 0.295417 -0.200819
vn -0.97565 -0.219331 0
vn -0.128197 0.070645 0.989229
vn -0.370019 0.239305 0.897674
vn -0.746616 0.461809 0.47885
vn -0.073193 -0.761886 -0.643563
vn 0.050054 -0.921062 -0.386186
vn 0.226083 -0.962157 0.152119
vn 0.453795 -0.704392 0.545804
vn 0.056649 -0.139413 0.988613
vn -0.934024 0.295417 0.200819
vn -0.773107 0.633176 -0.037316
vn -0.833085 0.414284 -0.366523
vn -0.660024 0.5103 0.551327
vn -0.730397 0.620676 0.2851
vn -0.766101 0.630543 0.124519
vn 0.646361 -0.756635 -0.098591
vn 0.312182 -0.941818 -0.124581
vn 0.385295 -0.922793 0
vn 0.798879 -0.577677 -0.167575
vn -0.054695 0.743686 0.666288
vn -0.717681 0.469212 0.514562
vn -0.754918 0.552679 0.353051
vn -0.785723 0.618577 0.001333
vn -0.625805 0.779979 0
vn 0.533878 -0.347791 0.770724
vn 0.738609 -0.661326 -0.130786
vn 0.312182 -0.941818 0.124581
vn 0.646361 -0.756635 0.098591
vn 0.004628 -0.939632 0.342154
vn 0.260946 -0.939844 -0.220457
vn -0.76409 0.539375 -0.353893
vn -0.754918 0.552679 -0.353051
vn -0.911655 0.398516 -0.100346
vn -0.606037 0.760316 -0.233749
vn -0.770522 0.637413 0
vn -0.239265 0.189178 -0.952347
vn -0.276199 0.960862 0.021409
vn -0.309006 0.206499 -0.928371
vn -0.617425 0.783006 0.075413
vn 0.032391 0.795747 -0.604763
vn 0.068833 -0.833258 0.548583
vn -0.785723 0.618577 -0.001333
vn -0.070335 0.202922 -0.976666
vn 0.400449 -0.522594 -0.752686
vn -0.946504 0.322692 0
vn -0.295829 0.183129 0.937523
vn -0.639989 0.6875 0.343158
vn 0.023292 0.981266 -0.191246
vn 0.463574 -0.501043 -0.730791
vn 0.135847 -0.895877 -0.423024
vn -0.152379 -0.919124 0.363307
vn -0.21874 -0.344313 0.913018
vn -0.276342 -0.212916 0.937178
vn -0.911655 0.398516 0.100346
vn -0.577566 0.778202 0.246617
vn 0.17511 -0.892222 0.416266
vn 0.200412 -0.979702 0.004379
vn -0.585293 0.343225 0.734594
vn -0.529825 0.607892 0.591399
vn -0.886545 0.42659 0.179051
vn -0.903162 -0.147689 0.403097
vn -0.495879 0.576514 0.649412
vn -0.533938 0.585667 0.609839
vn -0.926454 0.376408 0
vn 0.387402 -0.521359 0.760332
vn 0.13089 -0.486978 0.863551
vn 0.320548 -0.917684 -0.234745
vn -0.393632 0.222061 -0.892044
vn -0.175082 -0.877851 -0.445784
vn 0.001682 -0.087165 -0.996193
vn -0.587337 0.617722 -0.522928
vn -0.96928 0.164222 -0.183103
vn -0.865722 -0.204327 -0.45692
vn -0.495879 0.576514 -0.649412
vn -0.495451 0.606629 -0.621716
vn -0.611684 0.790324 0.035084
vn -0.968204 0.24399 0.055218
vn -0.276342 -0.212916 -0.937178
vn -0.392806 0.280248 -0.875879
vn -0.32745 0.519861 -0.789
vn -0.471527 0.658725 -0.586297
vn -0.92728 0.286725 -0.24071
vn 0.077971 -0.996604 -0.02648
vn -0.451082 0.613095 0.648568
vn -0.392806 0.280248 0.875879
vn -0.29527 0.453502 0.840923
vn 0.057074 -0.406379 -0.91192
vn -0.777063 0.553052 0.300511
vn -0.951284 0.173607 0.254793
vn 0.3148 -0.649721 -0.691928
vn 0.245783 -0.870968 -0.425448
vn -0.092769 -0.689132 0.718673
vn -0.183639 -0.495003 0.849263
vn -0.517627 -0.125733 0.846318
vn -0.301506 -0.241523 0.922367
vn -0.284548 -0.346015 0.894039
vn 0.196965 -0.980236 -0.018507
vn 0.008359 -0.998958 0.044877
vn -0.718898 -0.252068 0.647802
vn -0.052555 -0.994683 -0.088561
vn -0.59028 0.696005 0.408836
vn -0.852629 0.492363 0.174936
vn -0.890179 -0.447122 0.087543
vn -0.851491 0.150486 0.502312
vn -0.539095 0.659075 0.524402
vn -0.233331 0.894943 0.380308
vn 0.645973 -0.41712 0.63932
vn 0.545193 -0.837663 -0.032947
vn 0.715084 -0.566009 0.41023
vn -0.785245 -0.219447 -0.578994
vn -0.619342 0.704762 -0.346015
vn -0.852629 0.492363 -0.174936
vn -0.231864 -0.486266 -0.842487
vn -0.940075 -0.336247 -0.056546
vn -0.806761 0.286568 -0.516736
vn -0.539095 0.659075 -0.524402
vn -0.233331 0.894943 -0.380308
vn -0.135115 -0.613663 -0.777922
vn -0.148113 -0.623141 -0.767957
vn -0.559439 -0.116434 -0.820653
vn -0.330159 -0.235942 -0.913962
vn -0.250142 -0.347993 -0.90351
vn -0.725785 -0.033119 -0.687124
vn -0.652793 0.216304 -0.725998
vn -0.796537 0.449786 -0.404006
vn -0.899594 0.424191 -0.103891
vn -0.619019 0.26729 0.738493
vn -0.725785 -0.033119 0.687124
vn 0.760745 -0.511757 -0.399214
vn -0.946197 0.167736 0.276722
vn -0.833403 0.485538 0.263991
vn -0.899594 0.424191 0.103891
vn 0.61468 -0.392197 -0.684361
vn 0.593977 -0.803907 -0.030409
vn 0.578299 -0.333994 0.744324
vn -0.764642 -0.174603 0.620352
vn 0.693976 0.139286 0.706397
vn 0.820807 0.247219 0.514935
vn 0.088687 0.418303 0.903967
vn 0.319007 -0.947206 -0.032165
vn 0.52547 -0.850803 -0.004042
vn 0.319007 -0.947206 0.032165
vn 0.414763 -0.909702 0.020334
vn 0.511482 -0.842399 -0.169555
vn 0.464717 -0.881814 -0.080264
vn 0.511482 -0.842399 0.169555
vn -0.749927 0.646307 -0.141052
vn -0.88024 0.439555 -0.178798
vn -0.953335 0.301914 0
vn -0.534204 0.845356 0
vn -0.106345 0.993056 -0.05031
vn 0.079765 0.996814 0
vn 0.173525 0.984829 0
vn 0.914053 -0.008056 0.405515
vn 0.890217 -0.417009 -0.183351
vn 0.906658 -0.390071 -0.160675
vn 0.980412 0.178366 0.083535
vn -0.88024 0.439555 0.178798
vn -0.749927 0.646307 0.141052
vn -0.106345 0.993056 0.05031
vn -0.766909 -0.142832 -0.625659
vn 0.350664 0.201431 -0.914582
vn 0.736511 0.023193 -0.676028
vn -0.940711 0.206593 -0.26904
vn -0.833403 0.485538 -0.263991
vn -0.91939 0.309202 0.243139
vn 0.178624 0.968626 0.172794
vn 0.774748 -0.592277 0.221298
vn 0.890086 0.132157 0.436212
vn 0.965608 0.243041 -0.092368
vn 0.88749 -0.069803 -0.455509
vn -0.746481 0.176907 0.641459
vn 0.186319 0.902009 0.389442
vn 0.178624 0.968626 -0.172794
vn -0.91939 0.309202 -0.243139
vn 0.926896 0.311831 -0.208868
vn 0.920985 0.271393 -0.279523
vn 0.855429 0.475989 -0.204145
vn 0.828942 0.501623 -0.247447
vn 0.600719 -0.789384 0.126533
vn 0.969019 0.246922 0.005595
vn 0.555449 -0.814794 -0.166093
vn 0.989427 -0.087763 -0.115465
vn 0.900295 -0.111623 -0.420725
vn -0.400014 0.897991 -0.183306
vn -0.151547 0.873953 -0.461778
vn 0.682015 0.613686 -0.3978
vn 0.579355 0.815075 0
vn 0.54788 0.30342 -0.779592
vn 0.91684 0.316854 0.242917
vn 0.923446 0.301105 -0.237872
vn 0.772437 0.554564 -0.309516
vn 0.938175 0.316435 0.140343
vn 0.938202 0.342917 0.046744
vn -0.200062 0.965701 0.165522
vn -0.333029 0.84345 0.421526
vn 0.682015 0.613686 0.3978
vn 0.54788 0.30342 0.779592
vn 0.353078 0.384589 -0.852893
vn -0.746481 0.176907 -0.641459
vn 0.343598 0.897259 -0.277247
vn 0.781471 0.618414 -0.082864
vn 0.806449 0.343202 0.481511
vn 0.78337 0.526314 0.330643
vn 0.882365 0.139996 0.449258
vn 0.653811 0.706932 0.269776
vn 0.82967 0.516542 0.211736
vn 0.93357 0.355612 -0.04458
vn 0.79355 0.409646 -0.449965
vn 0.836856 0.543945 0.061609
vn 0.87973 0.373356 -0.294416
vn 0.972243 0.187828 0.139517
vn 0.488503 0.872562 0
vn 0.48238 0.870643 0.096389
vn 0.48238 0.870643 -0.096389
vn 0.722583 0.630404 0.283664
vn 0.473639 0.527261 -0.705452
vn 0.794918 0.592445 -0.130823
vn 0.866838 0.421515 -0.266303
vn 0.72135 0.686451 -0.091865
vn 0.766133 0.603746 0.220297
vn 0.908874 0.392577 0.140824
vn 0.845457 0.452879 0.283023
vn 0.755494 0.580146 -0.3044
vn 0.473639 0.527261 0.705452
vn 0.81181 0.421851 -0.40374
vn 0.818869 0.573299 0.027953
vn 0.81181 0.421851 0.40374
# 452 normals
usemtl Material__1
f  1//1 2//2 3//3
f  1//1 3//3 4//4
f  5//5 2//2 1//1
f  6//6 5//5 1//1
f  4//4 7//7 1//1
f  1//1 7//7 8//8
f  1//1 8//8 9//9
f  1//1 9//9 6//6
f  2//2 10//10 11//11
f  2//2 11//11 3//3
f  2//2 12//12 13//13
f  2//2 13//13 10//10
f  5//5 14//14 2//2
f  2//2 14//14 15//15
f  2//2 15//15 12//12
f  16//16 17//17 3//3
f  16//16 3//3 11//11
f  17//17 4//4 3//3
f  4//4 18//18 7//7
f  18//18 4//4 17//17
f  6//6 19//19 5//5
f  19//19 20//20 5//5
f  5//5 20//20 15//15
f  5//5 15//15 14//14
f  19//19 6//6 21//21
f  6//6 22//22 21//21
f  23//23 6//6 9//9
f  23//23 22//22 6//6
f  18//18 24//24 7//7
f  24//24 25//25 7//7
f  7//7 26//26 8//8
f  25//25 26//26 7//7
f  8//8 27//27 9//9
f  28//28 27//27 8//8
f  26//26 28//28 8//8
f  23//23 9//9 29//29
f  27//27 30//30 9//9
f  30//30 29//29 9//9
f  10//10 31//31 32//32
f  10//10 32//32 11//11
f  10//10 33//33 31//31
f  10//10 13//13 33//33
f  11//11 32//32 34//34
f  34//34 16//16 11//11
f  12//12 15//15 35//35
f  13//13 12//12 35//35
f  33//33 13//13 35//35
f  15//15 36//36 35//35
f  20//20 36//36 15//15
f  37//37 17//17 16//16
f  37//37 16//16 34//34
f  37//37 18//18 17//17
f  18//18 37//37 24//24
f  38//38 19//19 21//21
f  19//19 39//39 20//20
f  19//19 38//38 39//39
f  20//20 40//40 36//36
f  41//41 20//20 42//42
f  20//20 39//39 42//42
f  41//41 40//40 20//20
f  43//43 38//38 21//21
f  44//44 43//43 21//21
f  45//45 44//44 21//21
f  46//46 45//45 21//21
f  22//22 46//46 21//21
f  47//47 46//46 22//22
f  48//48 47//47 22//22
f  23//23 49//49 22//22
f  22//22 49//49 50//50
f  22//22 50//50 48//48
f  23//23 29//29 51//51
f  23//23 51//51 52//52
f  23//23 52//52 53//53
f  23//23 53//53 49//49
f  24//24 54//54 25//25
f  37//37 55//55 24//24
f  55//55 33//33 24//24
f  33//33 54//54 24//24
f  25//25 28//28 26//26
f  56//56 25//25 54//54
f  56//56 28//28 25//25
f  28//28 40//40 27//27
f  57//57 27//27 41//41
f  57//57 30//30 27//27
f  27//27 40//40 41//41
f  56//56 36//36 28//28
f  28//28 36//36 40//40
f  30//30 51//51 29//29
f  57//57 51//51 30//30
f  32//32 31//31 33//33
f  32//32 33//33 58//58
f  32//32 58//58 34//34
f  56//56 54//54 33//33
f  36//36 33//33 35//35
f  56//56 33//33 36//36
f  34//34 58//58 33//33
f  34//34 33//33 55//55
f  34//34 59//59 37//37
f  34//34 55//55 59//59
f  37//37 59//59 55//55
f  38//38 43//43 39//39
f  39//39 43//43 42//42
f  60//60 41//41 42//42
f  57//57 41//41 60//60
f  61//61 60//60 42//42
f  45//45 61//61 42//42
f  42//42 44//44 45//45
f  42//42 43//43 44//44
f  46//46 62//62 45//45
f  63//63 61//61 45//45
f  62//62 63//63 45//45
f  47//47 62//62 46//46
f  47//47 64//64 62//62
f  65//65 47//47 66//66
f  47//47 48//48 66//66
f  64//64 47//47 67//67
f  68//68 47//47 65//65
f  47//47 68//68 67//67
f  48//48 69//69 66//66
f  70//70 69//69 48//48
f  70//70 48//48 50//50
f  49//49 71//71 72//72
f  49//49 72//72 50//50
f  53//53 71//71 49//49
f  70//70 50//50 73//73
f  74//74 50//50 72//72
f  75//75 73//73 50//50
f  75//75 50//50 76//76
f  74//74 76//76 50//50
f  52//52 51//51 57//57
f  53//53 52//52 57//57
f  57//57 77//77 53//53
f  53//53 77//77 78//78
f  53//53 78//78 79//79
f  53//53 79//79 71//71
f  57//57 60//60 77//77
f  80//80 81//81 60//60
f  80//80 60//60 61//61
f  77//77 60//60 81//81
f  63//63 80//80 61//61
f  64//64 82//82 62//62
f  82//82 83//83 62//62
f  62//62 83//83 63//63
f  63//63 83//83 84//84
f  85//85 63//63 84//84
f  80//80 63//63 85//85
f  64//64 86//86 82//82
f  64//64 87//87 86//86
f  64//64 67//67 87//87
f  68//68 65//65 88//88
f  89//89 65//65 66//66
f  89//89 90//90 65//65
f  88//88 65//65 91//91
f  90//90 91//91 65//65
f  92//92 89//89 66//66
f  93//93 92//92 66//66
f  69//69 93//93 66//66
f  94//94 85//85 67//67
f  94//94 67//67 68//68
f  85//85 84//84 67//67
f  67//67 84//84 87//87
f  94//94 68//68 88//88
f  70//70 93//93 69//69
f  70//70 73//73 95//95
f  70//70 95//95 96//96
f  70//70 96//96 93//93
f  71//71 97//97 98//98
f  71//71 98//98 72//72
f  71//71 99//99 97//97
f  79//79 99//99 71//71
f  98//98 100//100 72//72
f  100//100 74//74 72//72
f  73//73 101//101 102//102
f  73//73 102//102 95//95
f  103//103 73//73 75//75
f  73//73 103//103 101//101
f  76//76 74//74 104//104
f  74//74 105//105 104//104
f  100//100 105//105 74//74
f  106//106 75//75 76//76
f  103//103 75//75 106//106
f  76//76 104//104 107//107
f  106//106 76//76 107//107
f  77//77 81//81 78//78
f  78//78 81//81 108//108
f  78//78 108//108 109//109
f  104//104 79//79 78//78
f  104//104 78//78 109//109
f  105//105 99//99 79//79
f  105//105 79//79 104//104
f  110//110 81//81 80//80
f  110//110 80//80 85//85
f  110//110 111//111 81//81
f  111//111 112//112 81//81
f  81//81 112//112 108//108
f  113//113 82//82 86//86
f  113//113 83//83 82//82
f  113//113 114//114 83//83
f  83//83 115//115 84//84
f  116//116 115//115 83//83
f  114//114 116//116 83//83
f  87//87 84//84 117//117
f  115//115 117//117 84//84
f  110//110 85//85 94//94
f  118//118 113//113 86//86
f  86//86 90//90 118//118
f  86//86 87//87 91//91
f  90//90 86//86 91//91
f  87//87 117//117 91//91
f  94//94 88//88 119//119
f  119//119 88//88 91//91
f  89//89 118//118 90//90
f  89//89 92//92 120//120
f  121//121 118//118 89//89
f  120//120 121//121 89//89
f  119//119 91//91 117//117
f  122//122 92//92 93//93
f  92//92 122//122 123//123
f  120//120 92//92 123//123
f  93//93 96//96 122//122
f  111//111 110//110 94//94
f  124//124 111//111 94//94
f  125//125 124//124 94//94
f  126//126 125//125 94//94
f  119//119 126//126 94//94
f  127//127 96//96 95//95
f  95//95 102//102 128//128
f  95//95 128//128 129//129
f  95//95 129//129 130//130
f  95//95 130//130 127//127
f  131//131 122//122 96//96
f  131//131 96//96 127//127
f  98//98 97//97 132//132
f  97//97 99//99 133//133
f  97//97 133//133 132//132
f  98//98 132//132 102//102
f  102//102 101//101 98//98
f  103//103 100//100 98//98
f  103//103 98//98 101//101
f  105//105 134//134 99//99
f  99//99 134//134 135//135
f  99//99 135//135 133//133
f  136//136 105//105 100//100
f  103//103 136//136 100//100
f  102//102 132//132 137//137
f  137//137 138//138 102//102
f  102//102 138//138 139//139
f  102//102 139//139 128//128
f  136//136 103//103 106//106
f  107//107 104//104 109//109
f  105//105 136//136 134//134
f  107//107 140//140 106//106
f  106//106 141//141 129//129
f  106//106 129//129 142//142
f  143//143 141//141 106//106
f  143//143 106//106 140//140
f  136//136 106//106 142//142
f  107//107 109//109 108//108
f  107//107 108//108 144//144
f  107//107 144//144 145//145
f  107//107 145//145 140//140
f  108//108 112//112 146//146
f  108//108 146//146 144//144
f  146//146 112//112 111//111
f  124//124 146//146 111//111
f  147//147 113//113 118//118
f  147//147 114//114 113//113
f  147//147 148//148 114//114
f  148//148 116//116 114//114
f  149//149 117//117 115//115
f  149//149 115//115 116//116
f  148//148 149//149 116//116
f  150//150 119//119 117//117
f  151//151 152//152 117//117
f  151//151 117//117 149//149
f  152//152 153//153 117//117
f  153//153 150//150 117//117
f  121//121 153//153 118//118
f  118//118 154//154 155//155
f  118//118 155//155 147//147
f  153//153 154//154 118//118
f  150//150 156//156 119//119
f  119//119 156//156 157//157
f  126//126 119//119 157//157
f  120//120 158//158 121//121
f  159//159 120//120 122//122
f  122//122 120//120 123//123
f  160//160 154//154 120//120
f  159//159 161//161 120//120
f  152//152 120//120 154//154
f  160//160 120//120 161//161
f  152//152 158//158 120//120
f  150//150 121//121 156//156
f  162//162 156//156 121//121
f  162//162 121//121 158//158
f  153//153 121//121 150//150
f  163//163 159//159 122//122
f  122//122 164//164 163//163
f  122//122 127//127 164//164
f  131//131 127//127 122//122
f  165//165 146//146 124//124
f  166//166 124//124 125//125
f  166//166 165//165 124//124
f  125//125 126//126 157//157
f  166//166 125//125 157//157
f  127//127 138//138 167//167
f  127//127 168//168 169//169
f  127//127 169//169 164//164
f  138//138 127//127 139//139
f  170//170 168//168 127//127
f  170//170 127//127 167//167
f  127//127 130//130 139//139
f  136//136 128//128 139//139
f  142//142 129//129 128//128
f  136//136 142//142 128//128
f  129//129 141//141 171//171
f  130//130 129//129 171//171
f  139//139 130//130 172//172
f  172//172 130//130 168//168
f  130//130 171//171 173//173
f  130//130 173//173 168//168
f  132//132 133//133 174//174
f  132//132 174//174 137//137
f  133//133 135//135 175//175
f  133//133 175//175 174//174
f  135//135 134//134 136//136
f  135//135 136//136 175//175
f  175//175 136//136 139//139
f  137//137 176//176 138//138
f  137//137 174//174 176//176
f  138//138 176//176 167//167
f  175//175 139//139 177//177
f  177//177 139//139 172//172
f  143//143 140//140 145//145
f  143//143 178//178 141//141
f  141//141 179//179 171//171
f  141//141 178//178 180//180
f  141//141 180//180 181//181
f  141//141 181//181 179//179
f  143//143 145//145 178//178
f  144//144 146//146 182//182
f  145//145 144//144 178//178
f  144//144 182//182 178//178
f  165//165 183//183 146//146
f  146//146 183//183 182//182
f  155//155 148//148 147//147
f  155//155 184//184 148//148
f  184//184 149//149 148//148
f  184//184 185//185 149//149
f  185//185 151//151 149//149
f  186//186 152//152 151//151
f  185//185 186//186 151//151
f  153//153 152//152 154//154
f  187//187 158//158 152//152
f  186//186 187//187 152//152
f  160//160 155//155 154//154
f  188//188 189//189 155//155
f  188//188 155//155 160//160
f  190//190 155//155 191//191
f  155//155 189//189 191//191
f  190//190 184//184 155//155
f  156//156 166//166 157//157
f  162//162 192//192 156//156
f  193//193 166//166 156//156
f  194//194 193//193 156//156
f  192//192 194//194 156//156
f  195//195 161//161 158//158
f  195//195 158//158 187//187
f  161//161 162//162 158//158
f  159//159 196//196 161//161
f  197//197 198//198 159//159
f  159//159 163//163 199//199
f  197//197 159//159 199//199
f  200//200 196//196 159//159
f  200//200 159//159 198//198
f  160//160 161//161 195//195
f  188//188 160//160 195//195
f  161//161 201//201 162//162
f  196//196 201//201 161//161
f  202//202 192//192 162//162
f  201//201 202//202 162//162
f  163//163 203//203 199//199
f  204//204 203//203 163//163
f  204//204 163//163 164//164
f  164//164 205//205 206//206
f  204//204 164//164 206//206
f  205//205 164//164 169//169
f  207//207 183//183 165//165
f  193//193 207//207 165//165
f  193//193 165//165 166//166
f  167//167 176//176 208//208
f  167//167 208//208 209//209
f  170//170 167//167 209//209
f  172//172 168//168 170//170
f  168//168 173//173 169//169
f  205//205 169//169 210//210
f  210//210 169//169 211//211
f  173//173 212//212 169//169
f  169//169 212//212 211//211
f  213//213 172//172 170//170
f  213//213 170//170 214//214
f  215//215 214//214 170//170
f  215//215 170//170 216//216
f  216//216 170//170 217//217
f  170//170 209//209 217//217
f  171//171 179//179 218//218
f  171//171 218//218 219//219
f  171//171 219//219 173//173
f  177//177 172//172 213//213
f  173//173 219//219 212//212
f  174//174 220//220 176//176
f  174//174 175//175 221//221
f  174//174 221//221 220//220
f  175//175 177//177 213//213
f  175//175 213//213 221//221
f  222//222 176//176 223//223
f  222//222 208//208 176//176
f  176//176 220//220 223//223
f  178//178 182//182 180//180
f  224//224 218//218 179//179
f  224//224 179//179 181//181
f  182//182 207//207 180//180
f  180//180 207//207 181//181
f  207//207 225//225 181//181
f  224//224 181//181 225//225
f  182//182 183//183 207//207
f  190//190 226//226 184//184
f  227//227 185//185 184//184
f  227//227 184//184 226//226
f  227//227 186//186 185//185
f  228//228 187//187 186//186
f  227//227 228//228 186//186
f  228//228 195//195 187//187
f  229//229 188//188 195//195
f  229//229 189//189 188//188
f  229//229 230//230 189//189
f  189//189 231//231 191//191
f  230//230 231//231 189//189
f  232//232 190//190 191//191
f  233//233 226//226 190//190
f  233//233 190//190 232//232
f  231//231 232//232 191//191
f  192//192 202//202 234//234
f  194//194 192//192 234//234
f  194//194 207//207 193//193
f  194//194 225//225 207//207
f  225//225 194//194 234//234
f  195//195 228//228 235//235
f  236//236 195//195 235//235
f  229//229 195//195 236//236
f  237//237 196//196 200//200
f  196//196 238//238 239//239
f  196//196 239//239 201//201
f  237//237 238//238 196//196
f  203//203 197//197 199//199
f  240//240 197//197 241//241
f  197//197 242//242 241//241
f  240//240 198//198 197//197
f  242//242 197//197 203//203
f  243//243 229//229 198//198
f  198//198 240//240 241//241
f  243//243 198//198 241//241
f  198//198 236//236 200//200
f  229//229 236//236 198//198
f  244//244 245//245 200//200
f  244//244 200//200 236//236
f  237//237 200//200 246//246
f  200//200 245//245 246//246
f  201//201 239//239 202//202
f  247//247 202//202 239//239
f  202//202 248//248 234//234
f  247//247 248//248 202//202
f  204//204 206//206 203//203
f  203//203 206//206 242//242
f  205//205 217//217 249//249
f  205//205 249//249 250//250
f  251//251 252//252 205//205
f  251//251 205//205 250//250
f  206//206 205//205 252//252
f  210//210 216//216 205//205
f  205//205 216//216 217//217
f  251//251 206//206 252//252
f  251//251 242//242 206//206
f  209//209 208//208 253//253
f  222//222 254//254 208//208
f  208//208 254//254 253//253
f  209//209 253//253 217//217
f  216//216 210//210 255//255
f  256//256 210//210 211//211
f  256//256 255//255 210//210
f  256//256 211//211 212//212
f  219//219 257//257 212//212
f  256//256 212//212 258//258
f  259//259 258//258 212//212
f  259//259 212//212 257//257
f  221//221 213//213 214//214
f  221//221 214//214 260//260
f  215//215 261//261 214//214
f  262//262 260//260 214//214
f  262//262 214//214 263//263
f  214//214 261//261 263//263
f  215//215 216//216 261//261
f  216//216 255//255 264//264
f  261//261 216//216 264//264
f  217//217 253//253 265//265
f  217//217 265//265 249//249
f  219//219 218//218 266//266
f  224//224 248//248 218//218
f  218//218 248//248 266//266
f  219//219 266//266 257//257
f  220//220 267//267 223//223
f  267//267 220//220 221//221
f  267//267 221//221 260//260
f  222//222 223//223 268//268
f  222//222 268//268 254//254
f  268//268 223//223 267//267
f  224//224 225//225 269//269
f  224//224 269//269 248//248
f  269//269 225//225 234//234
f  270//270 227//227 226//226
f  270//270 226//226 233//233
f  271//271 228//228 227//227
f  271//271 227//227 270//270
f  228//228 272//272 235//235
f  271//271 272//272 228//228
f  243//243 273//273 229//229
f  273//273 230//230 229//229
f  273//273 274//274 230//230
f  274//274 231//231 230//230
f  274//274 275//275 231//231
f  275//275 233//233 231//231
f  233//233 232//232 231//231
f  233//233 276//276 277//277
f  270//270 233//233 277//277
f  276//276 233//233 275//275
f  248//248 269//269 234//234
f  272//272 236//236 235//235
f  244//244 236//236 272//272
f  238//238 237//237 246//246
f  238//238 278//278 239//239
f  279//279 238//238 246//246
f  238//238 279//279 259//259
f  278//278 238//238 259//259
f  278//278 247//247 239//239
f  280//280 243//243 241//241
f  281//281 280//280 241//241
f  242//242 281//281 241//241
f  251//251 281//281 242//242
f  280//280 244//244 243//243
f  243//243 244//244 272//272
f  243//243 272//272 273//273
f  280//280 282//282 244//244
f  282//282 245//245 244//244
f  282//282 283//283 245//245
f  245//245 283//283 246//246
f  284//284 279//279 246//246
f  285//285 284//284 246//246
f  286//286 285//285 246//246
f  287//287 286//286 246//246
f  283//283 287//287 246//246
f  278//278 288//288 247//247
f  247//247 288//288 248//248
f  248//248 288//288 266//266
f  249//249 265//265 289//289
f  249//249 289//289 290//290
f  249//249 261//261 264//264
f  249//249 264//264 250//250
f  263//263 261//261 249//249
f  263//263 249//249 290//290
f  251//251 250//250 291//291
f  250//250 264//264 292//292
f  250//250 292//292 291//291
f  251//251 291//291 281//281
f  253//253 254//254 293//293
f  253//253 293//293 265//265
f  254//254 294//294 293//293
f  254//254 268//268 294//294
f  256//256 295//295 255//255
f  264//264 255//255 295//295
f  256//256 258//258 296//296
f  256//256 296//296 297//297
f  256//256 297//297 298//298
f  256//256 298//298 299//299
f  256//256 299//299 295//295
f  259//259 257//257 288//288
f  266//266 288//288 257//257
f  259//259 300//300 258//258
f  258//258 300//300 301//301
f  258//258 301//301 296//296
f  288//288 278//278 259//259
f  279//279 300//300 259//259
f  294//294 267//267 260//260
f  294//294 260//260 262//262
f  302//302 294//294 262//262
f  302//302 262//262 303//303
f  262//262 304//304 303//303
f  262//262 305//305 304//304
f  262//262 263//263 305//305
f  305//305 263//263 306//306
f  306//306 263//263 290//290
f  264//264 295//295 292//292
f  265//265 293//293 307//307
f  265//265 307//307 289//289
f  268//268 267//267 294//294
f  308//308 271//271 270//270
f  309//309 270//270 277//277
f  309//309 310//310 270//270
f  310//310 308//308 270//270
f  311//311 272//272 271//271
f  312//312 313//313 271//271
f  312//312 271//271 308//308
f  311//311 271//271 313//313
f  311//311 273//273 272//272
f  311//311 274//274 273//273
f  311//311 314//314 274//274
f  314//314 275//275 274//274
f  314//314 315//315 275//275
f  316//316 276//276 275//275
f  316//316 275//275 315//315
f  276//276 316//316 277//277
f  316//316 317//317 277//277
f  318//318 309//309 277//277
f  319//319 318//318 277//277
f  320//320 319//319 277//277
f  317//317 320//320 277//277
f  284//284 300//300 279//279
f  321//321 322//322 280//280
f  321//321 280//280 281//281
f  323//323 282//282 280//280
f  323//323 280//280 322//322
f  281//281 291//291 324//324
f  281//281 324//324 321//321
f  325//325 283//283 282//282
f  325//325 282//282 326//326
f  326//326 282//282 323//323
f  325//325 287//287 283//283
f  284//284 301//301 300//300
f  285//285 301//301 284//284
f  285//285 327//327 301//301
f  328//328 327//327 285//285
f  328//328 285//285 286//286
f  329//329 286//286 325//325
f  286//286 329//329 330//330
f  328//328 286//286 330//330
f  325//325 286//286 287//287
f  290//290 289//289 331//331
f  289//289 307//307 332//332
f  289//289 332//332 331//331
f  290//290 331//331 333//333
f  324//324 290//290 333//333
f  324//324 306//306 290//290
f  324//324 291//291 292//292
f  324//324 292//292 334//334
f  292//292 295//295 299//299
f  292//292 299//299 335//335
f  336//336 292//292 335//335
f  334//334 292//292 336//336
f  293//293 294//294 337//337
f  307//307 293//293 337//337
f  302//302 337//337 294//294
f  296//296 301//301 327//327
f  296//296 327//327 297//297
f  297//297 327//327 338//338
f  297//297 338//338 339//339
f  298//298 297//297 339//339
f  335//335 298//298 340//340
f  341//341 340//340 298//298
f  341//341 298//298 339//339
f  299//299 298//298 335//335
f  302//302 342//342 343//343
f  302//302 343//343 337//337
f  302//302 303//303 344//344
f  302//302 344//344 345//345
f  302//302 345//345 346//346
f  302//302 346//346 342//342
f  347//347 344//344 303//303
f  347//347 303//303 348//348
f  304//304 348//348 303//303
f  304//304 305//305 349//349
f  304//304 349//349 348//348
f  305//305 306//306 349//349
f  306//306 336//336 350//350
f  349//349 306//306 350//350
f  306//306 334//334 336//336
f  324//324 334//334 306//306
f  307//307 337//337 343//343
f  342//342 332//332 307//307
f  342//342 307//307 343//343
f  351//351 312//312 308//308
f  351//351 308//308 310//310
f  309//309 318//318 352//352
f  351//351 309//309 352//352
f  309//309 351//351 310//310
f  353//353 314//314 311//311
f  353//353 311//311 322//322
f  311//311 313//313 322//322
f  354//354 312//312 351//351
f  355//355 312//312 354//354
f  355//355 356//356 312//312
f  356//356 313//313 312//312
f  356//356 326//326 313//313
f  326//326 323//323 313//313
f  313//313 323//323 322//322
f  353//353 357//357 314//314
f  357//357 315//315 314//314
f  357//357 358//358 315//315
f  316//316 315//315 358//358
f  316//316 358//358 317//317
f  317//317 358//358 359//359
f  317//317 359//359 320//320
f  318//318 360//360 352//352
f  361//361 362//362 318//318
f  361//361 318//318 319//319
f  363//363 360//360 318//318
f  363//363 318//318 362//362
f  319//319 320//320 359//359
f  319//319 359//359 361//361
f  322//322 321//321 364//364
f  321//321 365//365 364//364
f  366//366 321//321 324//324
f  366//366 365//365 321//321
f  367//367 322//322 364//364
f  353//353 322//322 368//368
f  322//322 367//367 368//368
f  366//366 324//324 369//369
f  370//370 324//324 333//333
f  370//370 369//369 324//324
f  325//325 371//371 372//372
f  329//329 325//325 372//372
f  325//325 326//326 371//371
f  356//356 371//371 326//326
f  328//328 338//338 327//327
f  338//338 328//328 373//373
f  328//328 374//374 373//373
f  374//374 328//328 330//330
f  375//375 329//329 372//372
f  329//329 375//375 330//330
f  376//376 374//374 330//330
f  377//377 376//376 330//330
f  375//375 377//377 330//330
f  333//333 331//331 378//378
f  379//379 378//378 331//331
f  379//379 331//331 332//332
f  346//346 379//379 332//332
f  346//346 332//332 342//342
f  370//370 333//333 380//380
f  380//380 333//333 381//381
f  381//381 333//333 378//378
f  382//382 383//383 335//335
f  382//382 335//335 340//340
f  383//383 336//336 335//335
f  336//336 383//383 350//350
f  373//373 339//339 338//338
f  373//373 374//374 339//339
f  341//341 339//339 374//374
f  382//382 340//340 384//384
f  341//341 384//384 340//340
f  341//341 374//374 376//376
f  341//341 376//376 377//377
f  341//341 377//377 384//384
f  347//347 385//385 344//344
f  345//345 344//344 386//386
f  386//386 344//344 385//385
f  345//345 386//386 387//387
f  387//387 346//346 345//345
f  387//387 379//379 346//346
f  347//347 348//348 385//385
f  385//385 348//348 349//349
f  385//385 349//349 388//388
f  388//388 349//349 389//389
f  349//349 350//350 389//389
f  382//382 390//390 350//350
f  382//382 350//350 383//383
f  350//350 390//390 391//391
f  389//389 350//350 391//391
f  354//354 351//351 360//360
f  360//360 351//351 352//352
f  392//392 353//353 368//368
f  393//393 394//394 353//353
f  393//393 353//353 392//392
f  395//395 357//357 353//353
f  395//395 353//353 394//394
f  354//354 360//360 396//396
f  355//355 354//354 396//396
f  397//397 355//355 396//396
f  398//398 356//356 355//355
f  397//397 398//398 355//355
f  356//356 399//399 372//372
f  371//371 356//356 372//372
f  398//398 399//399 356//356
f  358//358 357//357 395//395
f  358//358 395//395 359//359
f  359//359 395//395 400//400
f  359//359 400//400 361//361
f  360//360 363//363 396//396
f  361//361 400//400 401//401
f  361//361 401//401 362//362
f  362//362 401//401 402//402
f  362//362 402//402 363//363
f  363//363 397//397 396//396
f  363//363 402//402 403//403
f  363//363 403//403 397//397
f  404//404 367//367 364//364
f  365//365 404//404 364//364
f  405//405 404//404 365//365
f  366//366 406//406 365//365
f  365//365 406//406 407//407
f  365//365 407//407 405//405
f  366//366 369//369 406//406
f  367//367 392//392 368//368
f  404//404 392//392 367//367
f  370//370 380//380 369//369
f  369//369 380//380 408//408
f  369//369 408//408 406//406
f  409//409 410//410 372//372
f  399//399 409//409 372//372
f  375//375 372//372 410//410
f  411//411 412//412 375//375
f  412//412 377//377 375//375
f  413//413 411//411 375//375
f  413//413 375//375 410//410
f  384//384 377//377 412//412
f  387//387 414//414 378//378
f  387//387 378//378 379//379
f  381//381 378//378 414//414
f  380//380 381//381 415//415
f  380//380 415//415 416//416
f  380//380 416//416 408//408
f  381//381 414//414 417//417
f  381//381 417//417 418//418
f  415//415 381//381 418//418
f  382//382 419//419 420//420
f  382//382 420//420 390//390
f  419//419 382//382 384//384
f  384//384 412//412 421//421
f  384//384 421//421 422//422
f  419//419 384//384 422//422
f  386//386 385//385 423//423
f  424//424 423//423 385//385
f  424//424 385//385 388//388
f  423//423 417//417 386//386
f  386//386 417//417 414//414
f  386//386 414//414 387//387
f  424//424 388//388 389//389
f  424//424 389//389 425//425
f  389//389 391//391 425//425
f  391//391 390//390 420//420
f  426//426 427//427 391//391
f  427//427 428//428 391//391
f  391//391 428//428 425//425
f  426//426 391//391 420//420
f  404//404 429//429 392//392
f  429//429 393//393 392//392
f  429//429 430//430 393//393
f  431//431 394//394 393//393
f  431//431 393//393 430//430
f  431//431 432//432 394//394
f  432//432 400//400 394//394
f  400//400 395//395 394//394
f  397//397 403//403 398//398
f  398//398 433//433 434//434
f  398//398 403//403 433//433
f  409//409 399//399 398//398
f  409//409 398//398 434//434
f  432//432 401//401 400//400
f  435//435 402//402 401//401
f  435//435 401//401 432//432
f  433//433 403//403 402//402
f  433//433 402//402 435//435
f  405//405 436//436 404//404
f  436//436 429//429 404//404
f  405//405 437//437 438//438
f  436//436 405//405 438//438
f  439//439 437//437 405//405
f  439//439 405//405 407//407
f  406//406 408//408 407//407
f  439//439 407//407 408//408
f  439//439 408//408 416//416
f  440//440 410//410 409//409
f  440//440 409//409 434//434
f  413//413 410//410 440//440
f  411//411 441//441 438//438
f  412//412 411//411 438//438
f  413//413 441//441 411//411
f  437//437 412//412 438//438
f  439//439 421//421 412//412
f  439//439 412//412 437//437
f  442//442 413//413 440//440
f  413//413 442//442 441//441
f  415//415 418//418 443//443
f  416//416 415//415 443//443
f  416//416 443//443 444//444
f  416//416 444//444 445//445
f  439//439 416//416 445//445
f  423//423 446//446 417//417
f  418//418 417//417 446//446
f  418//418 446//446 447//447
f  443//443 418//418 447//447
f  426//426 420//420 419//419
f  426//426 419//419 448//448
f  448//448 419//419 422//422
f  439//439 449//449 421//421
f  421//421 449//449 422//422
f  448//448 422//422 445//445
f  449//449 445//445 422//422
f  424//424 425//425 423//423
f  425//425 446//446 423//423
f  425//425 428//428 446//446
f  444//444 426//426 450//450
f  447//447 427//427 426//426
f  444//444 447//447 426//426
f  450//450 426//426 448//448
f  447//447 428//428 427//427
f  447//447 446//446 428//428
f  429//429 436//436 438//438
f  430//430 429//429 438//438
f  442//442 431//431 430//430
f  442//442 430//430 438//438
f  442//442 451//451 431//431
f  451//451 432//432 431//431
f  451//451 435//435 432//432
f  434//434 433//433 435//435
f  452//452 434//434 451//451
f  434//434 435//435 451//451
f  440//440 434//434 452//452
f  441//441 442//442 438//438
f  439//439 445//445 449//449
f  442//442 440//440 452//452
f  442//442 452//452 451//451
f  443//443 447//447 444//444
f  444//444 450//450 445//445
f  450//450 448//448 445//445
# object Object #2
g Object__2
v 0.008252 0.0569974 -0.00584639
v 0.008283 0.0555425 0.00310277
v 0.024781 0.0694049 -0.00397227
v 0.017963 0.0599714 -0.0107708
v -0.006277 0.0557693 -0.000943408
v -0.01405 0.0706888 -0.0153073
v -0.009783 0.0622438 -0.00659356
v 0.013018 0.0645447 0.0121646
v -0.000924 0.0557332 0.00775462
v 0.003674 0.0567937 0.0121308
v 0.023287 0.0812041 0.0151763
v 0.021819 0.0962477 0.0171814
v 0.028823 0.088849 0.0200873
v 0.02887 0.0602954 0.000492988
v 0.039137 0.0168601 -0.0174634
v 0.016059 0.0517474 -0.00836821
v -0.010088 0.0499054 -0.00954374
v -0.016629 0.0659129 0.00108052
v -0.008095 0.0566261 0.00765691
v -0.024084 0.080693 -0.0125283
v -0.031857 0.0716644 -0.0133691
v -0.028198 0.0501103 -0.0247099
v 0.009272 0.0694269 0.0199387
v 0.005349 0.0613962 0.0165611
v -0.005025 0.0592752 0.0152518
v 0.009002 0.0891337 0.025948
v -0.000633 0.104594 0.0232527
v 0.010784 0.0990306 0.0384312
v 0.041138 0.0968578 0.0349059
v 0.027213 0.0647207 0.0184495
v 0.025093 0.0788554 0.0281462
v 0.034424 0.0364437 -0.00667802
v 0.027342 0.0417431 0.00632776
v 0.015037 -0.000376273 -0.0317387
v 0.045638 0.0022107 -0.0129308
v 0.048759 0.0238595 -0.00946
v 0.018075 0.0442539 -0.00136124
v 0.015099 0.0372592 0.00144533
v 0.016523 0.00560239 -0.0359305
v 0.007943 0.0192236 -0.0244223
v 0.008208 0.0528697 0.0108679
v -0.054653 0.0529693 0.0116528
v -0.056244 0.0615555 -0.00437702
v -0.018673 0.0669185 0.0357537
v 0.011469 0.0620131 0.0340106
v -0.019162 0.0728404 0.011825
v -0.014442 0.0602497 0.012187
v -0.026961 0.0924071 0.00508642
v -0.020891 0.0897976 0.0158435
v -0.034644 0.0755448 0.00222485
v -0.041046 0.0724616 -0.0205817
v -0.040155 0.0676089 0.00611317
v -0.025603 0.0402958 -0.0367391
v -0.064911 0.0541514 -0.0183401
v -0.048491 0.0694468 -0.0354453
v -0.043608 0.051991 -0.0490184
v -0.001728 0.0777915 0.0256581
v 0.000498 0.0651609 0.0212171
v -0.013809 0.0646362 0.0177485
v -0.00699 0.0659014 0.0217725
v -0.017344 0.100275 0.0170872
v -0.017458 0.0926088 0.0348293
v 0.046865 0.106909 0.0567149
v 0.007652 0.0998174 0.0594505
v 0.034685 0.0951651 0.0478272
v 0.023822 0.00240159 -0.00679391
v 0.015321 0.00178566 -0.0167514
v -0.002071 0.0251892 -0.0512671
v -0.036012 0.0361246 -0.0457198
v 0.005653 0.0189923 -0.0298041
v 0.044399 0.00481059 -0.00553483
v -0.047662 0.0677635 -0.000649959
v -0.024564 0.070163 0.0539121
v -0.061118 0.0691162 -0.00979904
v -0.013012 0.0608629 0.0777606
v -0.030269 0.0840722 0.0177481
v -0.021429 0.0356334 -0.0547984
v -0.065038 0.0602344 -0.030879
v 0.013761 0.0986534 0.0971385
v 0.061861 0.121788 0.052107
v 0.0707 0.118771 0.0660054
v 0.042433 0.112636 0.0563463
v 0.025639 0.123672 0.109866
v -0.006814 0.0799051 0.0930704
v -0.031225 0.0733382 0.0605036
v -0.026472 0.055182 0.0903511
v -0.033659 0.0508316 0.0761396
v -0.049559 0.0632633 0.0593616
v -0.011816 0.066364 0.110427
v 0.002095 0.0853198 0.157919
v 0.04457 0.120608 0.112827
v 0.062334 0.122849 0.0880122
v 0.069516 0.127811 0.0774823
v 0.052593 0.133003 0.0854851
v 0.028582 0.132679 0.117218
v 0.004871 0.103608 0.14904
v -0.056364 0.0683503 0.11589
v -0.02688 0.071851 0.138169
v -0.048196 0.0592209 0.0877439
v -0.040083 0.0523397 0.107546
v -0.059639 0.0571928 0.0650635
v -0.06344 0.0559162 0.0755705
v -0.061489 0.063854 0.0866182
v -0.013545 0.0596582 0.132043
v 0.028025 0.11925 0.138019
v 0.006996 0.100837 0.155951
v -0.01611 0.0764723 0.159871
v -0.009821 0.0710707 0.155313
v 0.054478 0.132728 0.104467
v -0.034418 0.0737202 0.148454
v -0.069345 0.0579597 0.113892
v -0.051131 0.0615222 0.140848
v -0.065009 0.0568839 0.0914877
v -0.059742 0.0439624 0.102158
v -0.05063 0.0489496 0.121247
v -0.072056 0.0560718 0.103908
v -0.029233 0.0590235 0.146224
v -0.030484 0.0677462 0.153375
v -0.071867 0.05062 0.10292
v -0.067064 0.0517658 0.119014
v -0.069583 0.0517412 0.0931158
# 121 verticies
vn -0.121229 0.359878 -0.92509
vn -0.354023 -0.104927 -0.929332
vn -0.267537 -0.600731 -0.753357
vn 0.149599 -0.948998 -0.277531
vn 0.310915 0.215176 -0.92576
vn 0.545957 -0.403891 -0.734032
vn 0.461437 0.510762 -0.725395
vn -0.637155 -0.471716 -0.609523
vn 0.066755 -0.198429 -0.977839
vn -0.24212 -0.455979 -0.856423
vn -0.761351 -0.588225 -0.272647
vn -0.43504 -0.819409 -0.373243
vn 0.902474 -0.105892 -0.417525
vn 0.97926 -0.15669 -0.128446
vn 0.298445 -0.93228 -0.204414
vn -0.524019 -0.58897 0.615238
vn 0.004593 -0.26767 0.9635
vn 0.836107 0.113477 -0.536701
vn 0.384632 -0.107701 -0.916765
vn 0.010792 -0.549332 -0.835535
vn -0.270876 -0.652059 -0.708128
vn 0.806719 -0.590347 0.026366
vn -0.442443 -0.802043 -0.401211
vn -0.334209 -0.67675 -0.655983
vn 0.114995 -0.573523 -0.811078
vn -0.210331 -0.97759 -0.008925
vn 0.081692 -0.106371 -0.990965
vn -0.028317 -0.102829 -0.994296
vn 0.928279 -0.35606 0.107331
vn 0.904981 0.38323 0.184779
vn 0.84145 0.216414 0.495103
vn 0.874146 -0.080398 -0.478963
vn 0.597962 0.712441 0.367245
vn -0.386977 -0.146409 0.910392
vn 0.692764 -0.301178 0.655263
vn 0.975002 0.120513 -0.186673
vn -0.808007 -0.531388 0.254465
vn -0.764908 0.570408 0.299248
vn 0.676044 -0.687131 -0.266112
vn -0.316785 -0.457139 -0.831067
vn -0.522677 0.163736 0.836659
vn -0.762495 0.57417 0.29821
vn -0.660002 0.551069 0.510608
vn 0.008816 0.268014 0.963375
vn 0.217492 0.385371 0.896764
vn 0.911922 -0.37703 -0.162007
vn 0.670086 -0.253985 -0.697478
vn 0.051261 -0.506395 -0.860777
vn 0.800223 -0.592796 -0.090749
vn -0.836732 -0.204561 -0.507971
vn 0.169056 -0.132224 -0.976697
vn -0.630911 0.16653 -0.757773
vn 0.716507 0.551027 -0.42777
vn -0.571314 0.439045 0.693427
vn 0.06781 -0.515173 -0.854399
vn 0.102875 -0.877018 -0.469315
vn 0.104531 -0.986292 -0.127675
vn -0.148657 -0.834996 -0.529795
vn 0.55832 -0.701964 -0.442183
vn 0.360558 -0.870106 -0.336025
vn -0.011922 -0.828766 -0.559468
vn -0.531323 0.329204 -0.78059
vn 0.527607 -0.708164 0.469184
vn -0.502312 -0.218437 -0.836641
vn 0.669137 0.259446 0.696379
vn -0.17476 0.52364 0.833823
vn -0.759849 0.332307 0.558749
vn 0.489285 -0.865157 -0.110017
vn -0.603308 -0.122417 0.788057
vn 0.122695 0.849226 -0.513576
vn 0.442904 0.801604 0.401581
vn -0.407576 0.479503 -0.777148
vn -0.965919 0.143339 0.215533
vn -0.677614 0.297518 -0.67255
vn 0.406231 -0.117873 0.906136
vn -0.837575 0.175274 -0.517443
vn 0.150003 -0.938292 -0.311619
vn -0.875424 -0.473345 -0.097865
vn 0.609002 0.176478 0.773287
vn 0.283884 -0.829958 -0.480186
vn 0.799383 0.002763 0.600815
vn -0.389343 -0.745245 -0.541315
vn -0.69289 -0.244899 -0.67818
vn -0.56543 0.010556 -0.824729
vn -0.613406 -0.494181 -0.61605
vn 0.211799 0.103396 0.971828
vn 0.064613 -0.137611 0.988377
vn -0.346567 -0.838211 -0.421063
vn 0.664658 0.016412 0.746968
vn 0.730417 0.47333 0.492392
vn 0.746819 0.379468 0.546136
vn 0.729546 0.431836 0.530358
vn 0.831558 0.071187 -0.550858
vn -0.223933 -0.273109 -0.935556
vn -0.384453 0.089694 -0.918777
vn -0.63935 0.144805 -0.755158
vn -0.393668 0.039438 -0.918406
vn -0.36557 -0.2012 -0.908778
vn 0.002264 -0.112789 0.993616
vn 0.322325 -0.128057 0.937928
vn -0.43655 -0.644182 0.628055
vn -0.916588 -0.0784 0.392072
vn -0.716056 -0.189967 -0.671697
vn 0.523558 0.077652 0.848444
vn 0.470066 0.780736 -0.411691
vn -0.067001 0.869315 -0.489696
vn -0.266906 0.953897 -0.137267
vn 0.313987 0.651395 0.690722
vn 0.717767 0.49986 -0.484717
vn -0.563369 0.380534 -0.733355
vn -0.863398 0.27042 -0.425931
vn -0.662757 0.743115 0.092379
vn -0.620437 -0.711445 0.330006
vn -0.014581 -0.280956 0.95961
vn 0.042422 0.286621 0.957104
vn -0.932626 -0.184444 -0.310143
vn 0.028979 0.551892 0.833412
vn -0.301834 0.901876 0.309057
vn -0.892838 0.076933 0.443758
vn -0.639293 0.45495 0.619939
vn -0.721227 -0.616301 0.316234
# 121 normals
f  453//453 454//454 455//455
f  455//455 456//456 453//453
f  457//457 454//454 453//453
f  458//458 459//459 453//453
f  457//457 453//453 459//459
f  458//458 453//453 456//456
f  454//454 460//460 455//455
f  454//454 461//461 462//462
f  460//460 454//454 462//462
f  454//454 457//457 461//461
f  455//455 460//460 463//463
f  463//463 464//464 455//455
f  464//464 465//465 455//455
f  466//466 455//455 465//465
f  466//466 456//456 455//455
f  467//467 456//456 466//466
f  456//456 467//467 468//468
f  458//458 456//456 469//469
f  469//469 456//456 468//468
f  459//459 470//470 457//457
f  457//457 470//470 471//471
f  457//457 471//471 461//461
f  458//458 470//470 459//459
f  472//472 470//470 458//458
f  458//458 473//473 472//472
f  458//458 469//469 474//474
f  473//473 458//458 474//474
f  463//463 460//460 475//475
f  460//460 462//462 476//476
f  475//475 460//460 476//476
f  461//461 477//477 462//462
f  471//471 477//477 461//461
f  462//462 477//477 476//476
f  464//464 463//463 478//478
f  478//478 463//463 475//475
f  478//478 479//479 464//464
f  464//464 479//479 465//465
f  465//465 480//480 481//481
f  465//465 479//479 480//480
f  465//465 482//482 466//466
f  483//483 482//482 465//465
f  481//481 483//483 465//465
f  466//466 484//484 467//467
f  466//466 482//482 485//485
f  484//484 466//466 485//485
f  486//486 467//467 487//487
f  467//467 484//484 488//488
f  489//489 467//467 490//490
f  468//468 467//467 489//489
f  487//487 467//467 488//488
f  467//467 491//491 492//492
f  467//467 486//486 491//491
f  467//467 492//492 490//490
f  493//493 469//469 468//468
f  489//489 493//493 468//468
f  494//494 495//495 469//469
f  494//494 469//469 496//496
f  495//495 474//474 469//469
f  497//497 469//469 493//493
f  496//496 469//469 497//497
f  470//470 498//498 499//499
f  470//470 499//499 471//471
f  472//472 500//500 470//470
f  470//470 501//501 498//498
f  500//500 501//501 470//470
f  499//499 477//477 471//471
f  472//472 502//502 500//500
f  472//472 473//473 502//502
f  473//473 503//503 504//504
f  473//473 504//504 502//502
f  473//473 474//474 503//503
f  505//505 474//474 506//506
f  495//495 506//506 474//474
f  507//507 474//474 508//508
f  508//508 474//474 505//505
f  503//503 474//474 507//507
f  478//478 475//475 509//509
f  475//475 476//476 510//510
f  509//509 475//475 510//510
f  476//476 477//477 510//510
f  511//511 512//512 477//477
f  510//510 477//477 512//512
f  511//511 477//477 499//499
f  513//513 478//478 509//509
f  479//479 478//478 513//513
f  479//479 513//513 514//514
f  479//479 514//514 480//480
f  481//481 480//480 515//515
f  515//515 480//480 516//516
f  516//516 480//480 514//514
f  483//483 481//481 517//517
f  515//515 517//517 481//481
f  497//497 482//482 483//483
f  485//485 482//482 497//497
f  497//497 483//483 517//517
f  488//488 484//484 485//485
f  488//488 485//485 490//490
f  490//490 485//485 493//493
f  485//485 497//497 493//493
f  487//487 518//518 486//486
f  519//519 486//486 518//518
f  490//490 492//492 486//486
f  490//490 486//486 519//519
f  486//486 520//520 491//491
f  520//520 486//486 521//521
f  522//522 521//521 486//486
f  522//522 486//486 492//492
f  487//487 523//523 518//518
f  523//523 487//487 488//488
f  523//523 488//488 490//490
f  490//490 493//493 489//489
f  519//519 518//518 490//490
f  518//518 523//523 490//490
f  491//491 522//522 492//492
f  491//491 520//520 522//522
f  524//524 495//495 494//494
f  494//494 504//504 524//524
f  525//525 494//494 496//496
f  494//494 525//525 504//504
f  526//526 495//495 524//524
f  506//506 495//495 526//526
f  496//496 497//497 525//525
f  517//517 527//527 497//497
f  497//497 527//527 525//525
f  499//499 498//498 511//511
f  511//511 498//498 512//512
f  501//501 512//512 498//498
f  500//500 513//513 501//501
f  513//513 500//500 528//528
f  500//500 502//502 528//528
f  509//509 512//512 501//501
f  501//501 513//513 509//509
f  504//504 528//528 502//502
f  504//504 503//503 524//524
f  503//503 526//526 524//524
f  503//503 507//507 526//526
f  504//504 525//525 528//528
f  505//505 506//506 521//521
f  505//505 521//521 522//522
f  529//529 508//508 505//505
f  505//505 520//520 529//529
f  520//520 505//505 522//522
f  526//526 530//530 506//506
f  506//506 530//530 521//521
f  507//507 508//508 530//530
f  507//507 530//530 526//526
f  508//508 521//521 530//530
f  529//529 521//521 508//508
f  512//512 509//509 510//510
f  513//513 528//528 514//514
f  525//525 516//516 514//514
f  525//525 514//514 528//528
f  515//515 531//531 517//517
f  515//515 532//532 533//533
f  533//533 531//531 515//515
f  534//534 532//532 515//515
f  534//534 515//515 516//516
f  535//535 534//534 516//516
f  536//536 535//535 516//516
f  536//536 516//516 537//537
f  525//525 537//537 516//516
f  517//517 531//531 527//527
f  529//529 520//520 521//521
f  525//525 527//527 537//537
f  527//527 538//538 539//539
f  540//540 527//527 539//539
f  537//537 527//527 540//540
f  541//541 527//527 531//531
f  527//527 541//541 538//538
f  541//541 531//531 542//542
f  543//543 531//531 544//544
f  542//542 531//531 543//543
f  531//531 533//533 544//544
f  545//545 533//533 532//532
f  534//534 546//546 532//532
f  532//532 546//546 545//545
f  544//544 533//533 545//545
f  546//546 534//534 535//535
f  546//546 535//535 547//547
f  535//535 536//536 548//548
f  535//535 548//548 547//547
f  536//536 549//549 550//550
f  536//536 550//550 548//548
f  549//549 536//536 537//537
f  549//549 537//537 540//540
f  538//538 551//551 539//539
f  541//541 552//552 538//538
f  552//552 551//551 538//538
f  553//553 540//540 539//539
f  553//553 539//539 554//554
f  539//539 551//551 554//554
f  555//555 540//540 554//554
f  554//554 540//540 553//553
f  540//540 555//555 549//549
f  542//542 556//556 541//541
f  541//541 556//556 552//552
f  542//542 543//543 557//557
f  558//558 542//542 557//557
f  559//559 542//542 558//558
f  542//542 559//559 560//560
f  560//560 556//556 542//542
f  543//543 544//544 561//561
f  543//543 561//561 557//557
f  561//561 544//544 545//545
f  561//561 545//545 546//546
f  561//561 546//546 547//547
f  557//557 561//561 547//547
f  557//557 547//547 548//548
f  558//558 557//557 548//548
f  559//559 548//548 562//562
f  548//548 550//550 562//562
f  558//558 548//548 559//559
f  550//550 549//549 562//562
f  549//549 555//555 563//563
f  562//562 549//549 564//564
f  549//549 563//563 564//564
f  565//565 554//554 551//551
f  566//566 551//551 552//552
f  565//565 551//551 566//566
f  556//556 567//567 552//552
f  552//552 567//567 566//566
f  565//565 555//555 554//554
f  568//568 555//555 565//565
f  563//563 555//555 568//568
f  569//569 556//556 560//560
f  567//567 556//556 569//569
f  570//570 560//560 559//559
f  562//562 570//570 559//559
f  569//569 560//560 570//570
f  562//562 564//564 570//570
f  563//563 571//571 572//572
f  564//564 563//563 572//572
f  568//568 571//571 563//563
f  564//564 569//569 570//570
f  564//564 572//572 567//567
f  567//567 569//569 564//564
f  568//568 565//565 573//573
f  573//573 565//565 566//566
f  567//567 572//572 566//566
f  566//566 572//572 571//571
f  571//571 573//573 566//566
f  573//573 571//571 568//568
# object Object #4
g Object__4
v 0.024781 -0.0694111 -0.00386173
v 0.008283 -0.0555375 0.00319122
v 0.008252 -0.0570066 -0.00575561
v 0.023287 -0.0811798 0.0153056
v 0.013018 -0.0645253 0.0122674
v 0.021819 -0.0962202 0.0173346
v 0.028823 -0.0888169 0.0202287
v 0.02887 -0.0602945 0.000589011
v 0.017963 -0.0599885 -0.0106752
v -0.006277 -0.0557707 -0.000854591
v 0.003674 -0.0567743 0.0122212
v -0.000924 -0.0557208 0.00784337
v -0.009783 -0.0622542 -0.00649443
v -0.01405 -0.0707131 -0.0151947
v 0.009002 -0.0890922 0.0260899
v 0.009272 -0.0693951 0.0200493
v 0.005349 -0.0613698 0.0166589
v -0.000633 -0.104556 0.0234193
v 0.041138 -0.0968021 0.0350601
v 0.010784 -0.0989693 0.0385888
v 0.027213 -0.0646912 0.0185525
v 0.025093 -0.0788105 0.0282718
v 0.039137 -0.0168879 -0.0174366
v 0.034424 -0.0364543 -0.00661997
v 0.027342 -0.0417329 0.00639423
v 0.016059 -0.0517606 -0.00828579
v -0.010088 -0.0499206 -0.00946425
v -0.016629 -0.0659111 0.00118548
v -0.008095 -0.0566139 0.00774708
v -0.005025 -0.0592508 0.0153462
v -0.024084 -0.0807129 -0.0123997
v -0.031857 -0.0716856 -0.0132549
v -0.028198 -0.0501496 -0.0246301
v -0.001728 -0.0777505 0.0257819
v -0.017344 -0.100247 0.0172468
v 0.000498 -0.065127 0.0213209
v -0.017458 -0.0925532 0.0349767
v 0.034685 -0.0950888 0.0479787
v 0.046865 -0.106819 0.0568851
v 0.007652 -0.0997226 0.0596094
v 0.011469 -0.0619589 0.0341093
v 0.045638 -0.00223129 -0.0129272
v 0.015037 0.000325727 -0.0317393
v 0.048759 -0.0238745 -0.00942199
v 0.015099 -0.0372568 0.00150467
v 0.018075 -0.044256 -0.00129076
v 0.007943 -0.0192624 -0.0243917
v 0.016523 -0.0056596 -0.0359215
v 0.008208 -0.0528523 0.0109521
v -0.056244 -0.0615624 -0.00427898
v -0.054653 -0.0529507 0.0117372
v -0.018673 -0.0668615 0.0358603
v -0.014442 -0.0602302 0.012283
v -0.019162 -0.0728215 0.011941
v -0.026961 -0.0923989 0.00523358
v -0.020891 -0.0897723 0.0159865
v -0.00699 -0.0658666 0.0218775
v -0.013809 -0.0646078 0.0178515
v -0.034644 -0.0755412 0.00234515
v -0.040155 -0.0675991 0.00622083
v -0.041046 -0.0724943 -0.0204663
v -0.064911 -0.0541806 -0.0182539
v -0.025603 -0.0403542 -0.0366749
v -0.043608 -0.052069 -0.0489356
v -0.048491 -0.0695032 -0.0353347
v -0.030269 -0.0840438 0.0178819
v -0.024564 -0.070077 0.0540238
v -0.013012 -0.060739 0.0778574
v 0.013761 -0.0984986 0.0972955
v 0.0707 -0.118665 0.0661945
v 0.061861 -0.121704 0.0523009
v 0.042433 -0.112546 0.0565256
v 0.025639 -0.123496 0.110062
v -0.006814 -0.0797568 0.0931975
v -0.031225 -0.0732417 0.0606203
v 0.023822 -0.00241241 -0.00679008
v 0.044399 -0.0048194 -0.00552716
v 0.015321 -0.00181234 -0.0167486
v -0.002071 -0.0252708 -0.0512269
v -0.036012 -0.0361974 -0.0456622
v 0.005653 -0.0190397 -0.0297738
v -0.047662 -0.0677645 -0.000542041
v -0.061118 -0.0691317 -0.00968895
v -0.065038 -0.0602835 -0.030783
v -0.021429 -0.0357206 -0.0547416
v -0.033659 -0.0507103 0.0762204
v -0.026472 -0.055038 0.0904389
v -0.049559 -0.0631687 0.0594623
v -0.011816 -0.066188 0.110533
v 0.002095 -0.0850682 0.158055
v 0.062334 -0.122709 0.0882077
v 0.04457 -0.120428 0.113019
v 0.069516 -0.127687 0.0776857
v 0.052593 -0.132867 0.0856968
v 0.028582 -0.132493 0.11743
v 0.004871 -0.10337 0.149204
v -0.02688 -0.0716309 0.138283
v -0.056364 -0.0681657 0.115998
v -0.059639 -0.0570891 0.0651545
v -0.06344 -0.0557958 0.0756595
v -0.048196 -0.0590811 0.0878381
v -0.040083 -0.0521683 0.10763
v -0.061489 -0.063716 0.0867198
v -0.013545 -0.0594478 0.132137
v 0.028025 -0.11903 0.138209
v 0.006996 -0.100589 0.156111
v -0.01611 -0.0762176 0.159993
v -0.009821 -0.0708233 0.155426
v 0.054478 -0.132562 0.104679
v -0.034418 -0.0734837 0.148572
v -0.069345 -0.0577783 0.113984
v -0.051131 -0.0612978 0.140946
v -0.065009 -0.0567381 0.0915782
v -0.059742 -0.0437996 0.102228
v -0.05063 -0.0487564 0.121325
v -0.072056 -0.0559062 0.103998
v -0.029233 -0.0587905 0.146318
v -0.030484 -0.0675018 0.153483
v -0.067064 -0.0515762 0.119096
v -0.071867 -0.050456 0.103
v -0.069583 -0.0515928 0.0931981
# 121 verticies
vn -0.267537 -0.600731 0.753357
vn -0.354023 -0.104927 0.929332
vn -0.121229 0.359878 0.92509
vn -0.761351 -0.588225 0.272647
vn -0.637155 -0.471716 0.609523
vn -0.43504 -0.819409 0.373243
vn 0.902474 -0.105892 0.417525
vn 0.97926 -0.15669 0.128446
vn 0.149599 -0.948998 0.277531
vn 0.310915 0.215176 0.92576
vn -0.24212 -0.455979 0.856423
vn 0.066755 -0.198429 0.977839
vn 0.461437 0.510762 0.725395
vn 0.545957 -0.403891 0.734032
vn -0.210331 -0.97759 0.008925
vn -0.442443 -0.802043 0.401211
vn -0.334209 -0.67675 0.655983
vn 0.081692 -0.106371 0.990965
vn 0.928279 -0.35606 -0.107331
vn -0.028317 -0.102829 0.994296
vn 0.904981 0.38323 -0.184779
vn 0.84145 0.216414 -0.495103
vn 0.298445 -0.93228 0.204414
vn 0.874146 -0.080398 0.478963
vn 0.597962 0.712441 -0.367245
vn -0.524019 -0.58897 -0.615238
vn 0.004593 -0.26767 -0.9635
vn 0.836107 0.113477 0.536701
vn 0.384632 -0.107701 0.916765
vn 0.114995 -0.573523 0.811078
vn 0.010792 -0.549332 0.835535
vn -0.270876 -0.652059 0.708128
vn 0.806719 -0.590347 -0.026366
vn 0.104531 -0.986292 0.127675
vn -0.011922 -0.828766 0.559468
vn -0.148657 -0.834996 0.529795
vn -0.531323 0.329204 0.78059
vn 0.669137 0.259446 -0.696379
vn 0.527607 -0.708164 -0.469184
vn -0.502312 -0.218437 0.836641
vn 0.217492 0.385371 -0.896764
vn 0.692764 -0.301178 -0.655263
vn -0.386977 -0.146409 -0.910392
vn 0.975002 0.120513 0.186673
vn -0.764908 0.570408 -0.299248
vn -0.808007 -0.531388 -0.254465
vn -0.316785 -0.457139 0.831067
vn 0.676044 -0.687131 0.266112
vn -0.522677 0.163736 -0.836659
vn -0.660002 0.551069 -0.510608
vn -0.762495 0.57417 -0.29821
vn 0.008816 0.268014 -0.963375
vn 0.670086 -0.253985 0.697478
vn 0.911922 -0.37703 0.162007
vn 0.051261 -0.506395 0.860777
vn 0.800223 -0.592796 0.090749
vn 0.360558 -0.870106 0.336025
vn 0.55832 -0.701964 0.442183
vn -0.836732 -0.204561 0.507971
vn -0.630911 0.16653 0.757773
vn 0.169056 -0.132224 0.976697
vn -0.571314 0.439045 -0.693427
vn 0.716507 0.551027 0.42777
vn 0.102875 -0.877018 0.469315
vn 0.06781 -0.515173 0.854399
vn -0.837575 0.175274 0.517443
vn -0.965919 0.143339 -0.215533
vn 0.406231 -0.117873 -0.906136
vn 0.609002 0.176478 -0.773287
vn 0.799383 0.002763 -0.600815
vn 0.283884 -0.829958 0.480186
vn -0.389343 -0.745245 0.541315
vn -0.69289 -0.244899 0.67818
vn -0.56543 0.010556 0.824729
vn -0.613406 -0.494181 0.61605
vn -0.17476 0.52364 -0.833823
vn 0.442904 0.801604 -0.401581
vn -0.759849 0.332307 -0.558749
vn 0.489285 -0.865157 0.110017
vn -0.603308 -0.122417 -0.788057
vn 0.122695 0.849226 0.513576
vn -0.407576 0.479503 0.777148
vn -0.677614 0.297518 0.67255
vn -0.875424 -0.473345 0.097865
vn 0.150003 -0.938292 0.311619
vn 0.064613 -0.137611 -0.988377
vn 0.211799 0.103396 -0.971828
vn -0.346567 -0.838211 0.421063
vn 0.664658 0.016412 -0.746968
vn 0.730417 0.47333 -0.492392
vn 0.729546 0.431836 -0.530358
vn 0.746819 0.379468 -0.546136
vn 0.831558 0.071187 0.550858
vn -0.223933 -0.273109 0.935556
vn -0.384453 0.089694 0.918777
vn -0.63935 0.144805 0.755158
vn -0.36557 -0.2012 0.908778
vn -0.393668 0.039438 0.918406
vn -0.43655 -0.644182 -0.628055
vn -0.916588 -0.0784 -0.392072
vn 0.002264 -0.112789 -0.993616
vn 0.322325 -0.128057 -0.937928
vn -0.716056 -0.189967 0.671697
vn 0.523558 0.077652 -0.848444
vn 0.470066 0.780736 0.411691
vn -0.067001 0.869315 0.489696
vn -0.266906 0.953897 0.137267
vn 0.313987 0.651395 -0.690722
vn 0.717767 0.49986 0.484717
vn -0.563369 0.380534 0.733355
vn -0.863398 0.27042 0.425931
vn -0.662757 0.743115 -0.092379
vn -0.620437 -0.711445 -0.330006
vn -0.014581 -0.280956 -0.95961
vn 0.042422 0.286621 -0.957104
vn -0.932626 -0.184444 0.310143
vn 0.028979 0.551892 -0.833412
vn -0.301834 0.901876 -0.309057
vn -0.639293 0.45495 -0.619939
vn -0.892838 0.076933 -0.443758
vn -0.721227 -0.616301 -0.316234
# 121 normals
f  574//574 575//575 576//576
f  577//577 578//578 574//574
f  574//574 579//579 577//577
f  574//574 578//578 575//575
f  574//574 580//580 579//579
f  580//580 574//574 581//581
f  576//576 582//582 574//574
f  574//574 582//582 581//581
f  576//576 575//575 583//583
f  584//584 585//585 575//575
f  584//584 575//575 578//578
f  585//585 583//583 575//575
f  576//576 586//586 587//587
f  586//586 576//576 583//583
f  582//582 576//576 587//587
f  588//588 577//577 579//579
f  589//589 578//578 577//577
f  589//589 577//577 588//588
f  590//590 584//584 578//578
f  590//590 578//578 589//589
f  579//579 591//591 588//588
f  580//580 591//591 579//579
f  592//592 593//593 580//580
f  593//593 591//591 580//580
f  581//581 594//594 580//580
f  580//580 594//594 595//595
f  580//580 595//595 592//592
f  596//596 597//597 581//581
f  581//581 582//582 596//596
f  598//598 594//594 581//581
f  598//598 581//581 597//597
f  599//599 596//596 582//582
f  600//600 582//582 587//587
f  599//599 582//582 600//600
f  583//583 601//601 586//586
f  602//602 601//601 583//583
f  585//585 602//602 583//583
f  590//590 603//603 584//584
f  584//584 603//603 585//585
f  585//585 603//603 602//602
f  586//586 601//601 587//587
f  587//587 601//601 604//604
f  604//604 605//605 587//587
f  606//606 600//600 587//587
f  606//606 587//587 605//605
f  607//607 588//588 608//608
f  607//607 589//589 588//588
f  608//608 588//588 591//591
f  609//609 590//590 589//589
f  609//609 589//589 607//607
f  609//609 603//603 590//590
f  610//610 608//608 591//591
f  593//593 610//610 591//591
f  611//611 592//592 595//595
f  592//592 611//611 612//612
f  612//612 593//593 592//592
f  613//613 593//593 612//612
f  610//610 593//593 613//613
f  595//595 594//594 614//614
f  614//614 594//594 598//598
f  611//611 595//595 614//614
f  615//615 596//596 616//616
f  617//617 597//597 596//596
f  618//618 596//596 619//619
f  619//619 596//596 599//599
f  617//617 596//596 615//615
f  620//620 621//621 596//596
f  621//621 616//616 596//596
f  618//618 620//620 596//596
f  598//598 597//597 617//617
f  618//618 598//598 617//617
f  622//622 598//598 618//618
f  622//622 614//614 598//598
f  599//599 600//600 622//622
f  599//599 622//622 619//619
f  600//600 623//623 624//624
f  625//625 600//600 624//624
f  600//600 606//606 623//623
f  622//622 600//600 614//614
f  614//614 600//600 625//625
f  626//626 627//627 601//601
f  602//602 626//626 601//601
f  601//601 628//628 604//604
f  627//627 629//629 601//601
f  601//601 629//629 628//628
f  602//602 603//603 626//626
f  603//603 630//630 631//631
f  630//630 603//603 609//609
f  626//626 603//603 631//631
f  628//628 632//632 604//604
f  632//632 605//605 604//604
f  633//633 634//634 605//605
f  632//632 633//633 605//605
f  634//634 606//606 605//605
f  635//635 606//606 636//636
f  606//606 635//635 623//623
f  637//637 606//606 638//638
f  636//636 606//606 637//637
f  638//638 606//606 634//634
f  629//629 630//630 607//607
f  607//607 608//608 629//629
f  609//609 607//607 630//630
f  629//629 608//608 628//628
f  639//639 628//628 608//608
f  610//610 639//639 608//608
f  610//610 613//613 640//640
f  639//639 610//610 640//640
f  614//614 641//641 611//611
f  641//641 642//642 611//611
f  611//611 642//642 612//612
f  643//643 644//644 612//612
f  612//612 642//642 643//643
f  612//612 644//644 645//645
f  613//613 612//612 645//645
f  613//613 645//645 646//646
f  613//613 646//646 647//647
f  648//648 613//613 647//647
f  613//613 648//648 640//640
f  640//640 614//614 625//625
f  640//640 641//641 614//614
f  649//649 650//650 615//615
f  616//616 649//649 615//615
f  617//617 615//615 650//650
f  649//649 616//616 651//651
f  616//616 620//620 618//618
f  651//651 616//616 618//618
f  621//621 652//652 616//616
f  653//653 616//616 652//652
f  616//616 653//653 654//654
f  620//620 616//616 654//654
f  618//618 617//617 650//650
f  618//618 649//649 651//651
f  619//619 622//622 618//618
f  618//618 650//650 649//649
f  620//620 654//654 621//621
f  654//654 652//652 621//621
f  655//655 623//623 656//656
f  656//656 623//623 635//635
f  624//624 623//623 655//655
f  655//655 633//633 624//624
f  625//625 624//624 640//640
f  633//633 640//640 624//624
f  631//631 627//627 626//626
f  630//630 627//627 631//631
f  627//627 630//630 629//629
f  639//639 632//632 628//628
f  632//632 639//639 633//633
f  655//655 634//634 633//633
f  639//639 640//640 633//633
f  655//655 656//656 634//634
f  656//656 638//638 634//634
f  635//635 657//657 656//656
f  653//653 657//657 635//635
f  653//653 635//635 636//636
f  654//654 653//653 636//636
f  636//636 637//637 658//658
f  658//658 652//652 636//636
f  654//654 636//636 652//652
f  657//657 653//653 637//637
f  657//657 637//637 638//638
f  637//637 653//653 658//658
f  656//656 657//657 638//638
f  648//648 641//641 640//640
f  659//659 660//660 641//641
f  659//659 641//641 661//661
f  661//661 641//641 648//648
f  642//642 641//641 662//662
f  660//660 662//662 641//641
f  663//663 642//642 662//662
f  664//664 642//642 665//665
f  665//665 642//642 663//663
f  664//664 643//643 642//642
f  666//666 643//643 664//664
f  644//644 643//643 666//666
f  644//644 667//667 645//645
f  666//666 667//667 644//644
f  646//646 645//645 667//667
f  668//668 646//646 667//667
f  669//669 647//647 646//646
f  668//668 669//669 646//646
f  670//670 671//671 647//647
f  669//669 670//670 647//647
f  648//648 647//647 671//671
f  661//661 648//648 671//671
f  653//653 652//652 658//658
f  659//659 661//661 672//672
f  673//673 659//659 672//672
f  659//659 674//674 660//660
f  673//673 674//674 659//659
f  660//660 675//675 662//662
f  660//660 674//674 675//675
f  673//673 661//661 676//676
f  672//672 661//661 673//673
f  671//671 676//676 661//661
f  662//662 677//677 663//663
f  675//675 677//677 662//662
f  678//678 665//665 663//663
f  678//678 663//663 679//679
f  679//679 663//663 680//680
f  681//681 680//680 663//663
f  663//663 677//677 681//681
f  666//666 664//664 682//682
f  682//682 664//664 665//665
f  678//678 682//682 665//665
f  667//667 666//666 682//682
f  668//668 667//667 682//682
f  668//668 682//682 678//678
f  669//669 668//668 678//678
f  669//669 678//678 679//679
f  683//683 669//669 680//680
f  683//683 670//670 669//669
f  680//680 669//669 679//679
f  683//683 671//671 670//670
f  684//684 676//676 671//671
f  685//685 671//671 683//683
f  685//685 684//684 671//671
f  674//674 673//673 686//686
f  673//673 676//676 686//686
f  675//675 674//674 687//687
f  687//687 674//674 686//686
f  675//675 688//688 677//677
f  687//687 688//688 675//675
f  686//686 676//676 689//689
f  689//689 676//676 684//684
f  681//681 677//677 690//690
f  690//690 677//677 688//688
f  680//680 681//681 691//691
f  680//680 691//691 683//683
f  691//691 681//681 690//690
f  691//691 685//685 683//683
f  692//692 693//693 684//684
f  692//692 684//684 685//685
f  684//684 693//693 689//689
f  691//691 690//690 685//685
f  688//688 692//692 685//685
f  685//685 690//690 688//688
f  694//694 686//686 689//689
f  687//687 686//686 694//694
f  687//687 692//692 688//688
f  693//693 692//692 687//687
f  687//687 694//694 693//693
f  689//689 693//693 694//694
