# 
# Wavefront OBJ file
# Converted by the DEEP Exploration 2.00.1211
# Right Hemisphere, LTD
# http://www.righthemisphere.com/
# 
mtllib pisiform_l.mtl
# object Object #0
g Object__0
v -0.001598 -0.013863 0.020015
v 0.001389 -0.020089 0.018524
v 0.00499 -0.017777 0.020707
v 0.005957 -0.017407 0.021585
v -0.00024 -0.011955 0.015197
v 0.001778 -0.009847 0.018798
v 0.00088 -0.009039 0.014417
v 0.005564 -0.019833 0.020529
v 0.003077 -0.020337 0.018869
v 0.000445 -0.01438 0.015052
v 0.007679 -0.015485 0.020354
v 0.006104 -0.01415 0.021322
v 0.002632 -0.012239 0.014533
v 0.00629 -0.007898 0.017632
v 0.003783 -0.006016 0.0154
v 0.00952 -0.017643 0.019444
v 0.001387 -0.016515 0.014917
v 0.008257 -0.018193 0.01728
v 0.008244 -0.012134 0.020211
v 0.00989 -0.011019 0.020027
v 0.011157 -0.013918 0.01901
v 0.004002 -0.015726 0.014214
v 0.006868 -0.013402 0.014273
v 0.006124 -0.008733 0.012278
v 0.008357 -0.008919 0.016628
v 0.011029 -0.01393 0.016624
# 26 verticies
vn -0.819378 0.01292 0.573107
vn -0.716706 -0.648203 0.257227
vn -0.10542 -0.517771 0.848999
vn 0.076144 -0.270247 0.959775
vn -0.772783 -0.103843 -0.626117
vn -0.381446 0.547751 0.744626
vn -0.738423 0.478079 -0.475575
vn 0.061979 -0.542195 0.837964
vn -0.045823 -0.954247 -0.295488
vn -0.564625 -0.308886 -0.765368
vn 0.435623 -0.15568 0.886564
vn 0.129337 0.245695 0.96068
vn -0.207253 -0.030304 -0.977818
vn 0.293263 0.789303 0.539443
vn -0.243556 0.915372 -0.320584
vn 0.657715 -0.675986 0.332347
vn -0.312505 -0.470419 -0.825256
vn 0.489916 -0.711346 -0.503953
vn 0.167193 0.410569 0.89637
vn 0.564635 0.436494 0.700471
vn 0.909348 -0.200288 0.364652
vn 0.115444 -0.334485 -0.935303
vn 0.364277 -0.13548 -0.921383
vn 0.369929 0.477143 -0.797174
vn 0.694698 0.713198 -0.093505
vn 0.824793 -0.051128 -0.563119
# 26 normals
usemtl Material__1
f  1//1 2//2 3//3
f  4//4 1//1 3//3
f  1//1 5//5 2//2
f  6//6 1//1 4//4
f  7//7 5//5 1//1
f  6//6 7//7 1//1
f  3//3 2//2 8//8
f  2//2 9//9 8//8
f  5//5 10//10 2//2
f  2//2 10//10 9//9
f  4//4 3//3 11//11
f  3//3 8//8 11//11
f  12//12 6//6 4//4
f  12//12 4//4 11//11
f  10//10 5//5 13//13
f  5//5 7//7 13//13
f  14//14 6//6 12//12
f  15//15 7//7 6//6
f  14//14 15//15 6//6
f  7//7 15//15 13//13
f  8//8 9//9 16//16
f  8//8 16//16 11//11
f  10//10 17//17 9//9
f  9//9 18//18 16//16
f  9//9 17//17 18//18
f  17//17 10//10 13//13
f  19//19 12//12 11//11
f  20//20 19//19 11//11
f  21//21 20//20 11//11
f  16//16 21//21 11//11
f  19//19 14//14 12//12
f  22//22 17//17 13//13
f  23//23 22//22 13//13
f  24//24 23//23 13//13
f  15//15 24//24 13//13
f  25//25 14//14 19//19
f  24//24 15//15 14//14
f  25//25 24//24 14//14
f  16//16 18//18 21//21
f  17//17 22//22 18//18
f  18//18 26//26 21//21
f  18//18 22//22 26//26
f  20//20 25//25 19//19
f  26//26 25//25 20//20
f  21//21 26//26 20//20
f  22//22 23//23 26//26
f  23//23 24//24 25//25
f  26//26 23//23 25//25
