#VRML V2.0 utf8
Transform {
children [
Shape {
appearance Appearance {
              material DEF surface Material {
              diffuseColor 0.8 0.8 0.8
              ambientIntensity 0.2
              specularColor 0.4 0.4 0.4
              emissiveColor 0 0 0
              shininess 0.25
              transparency 0
            }
          }
geometry IndexedFaceSet {
solid FALSE
coord DEF bone Coordinate {
point [
  0.004990	 -0.017777	 -0.020707,
  0.001389	 -0.020089	 -0.018524,
 -0.001598	 -0.013863	 -0.020015,
  0.005957	 -0.017407	 -0.021585,
  0.005564	 -0.019833	 -0.020529,
  0.007679	 -0.015485	 -0.020354,
  0.003077	 -0.020337	 -0.018869,
  0.000445	 -0.014380	 -0.015052,
 -0.000240	 -0.011955	 -0.015197,
  0.001778	 -0.009847	 -0.018798,
  0.000880	 -0.009039	 -0.014417,
  0.006104	 -0.014150	 -0.021322,
  0.009520	 -0.017643	 -0.019444,
  0.008244	 -0.012134	 -0.020211,
  0.009890	 -0.011019	 -0.020027,
  0.011157	 -0.013918	 -0.019010,
  0.001387	 -0.016515	 -0.014917,
  0.008257	 -0.018193	 -0.017280,
  0.002632	 -0.012239	 -0.014533,
  0.006290	 -0.007898	 -0.017632,
  0.003783	 -0.006016	 -0.015400,
  0.008357	 -0.008919	 -0.016628,
  0.011029	 -0.013930	 -0.016624,
  0.004002	 -0.015726	 -0.014214,
  0.006868	 -0.013402	 -0.014273,
  0.006124	 -0.008733	 -0.012278,
]
}
coordIndex [
   0,	   1,	   2, -1
   0,	   2,	   3, -1
   4,	   1,	   0, -1
   5,	   0,	   3, -1
   5,	   4,	   0, -1
   4,	   6,	   1, -1
   1,	   7,	   8, -1
   1,	   8,	   2, -1
   6,	   7,	   1, -1
   3,	   2,	   9, -1
   2,	   8,	  10, -1
   2,	  10,	   9, -1
   3,	   9,	  11, -1
   5,	   3,	  11, -1
  12,	   6,	   4, -1
   5,	  12,	   4, -1
   5,	  11,	  13, -1
   5,	  13,	  14, -1
   5,	  14,	  15, -1
   5,	  15,	  12, -1
   6,	  16,	   7, -1
  12,	  17,	   6, -1
  17,	  16,	   6, -1
  18,	   7,	  16, -1
  18,	   8,	   7, -1
  18,	  10,	   8, -1
  11,	   9,	  19, -1
   9,	  10,	  20, -1
   9,	  20,	  19, -1
  18,	  20,	  10, -1
  11,	  19,	  13, -1
  15,	  17,	  12, -1
  13,	  19,	  21, -1
  13,	  21,	  14, -1
  14,	  21,	  22, -1
  14,	  22,	  15, -1
  15,	  22,	  17, -1
  17,	  23,	  16, -1
  18,	  16,	  23, -1
  22,	  23,	  17, -1
  18,	  23,	  24, -1
  18,	  24,	  25, -1
  18,	  25,	  20, -1
  19,	  20,	  25, -1
  19,	  25,	  21, -1
  21,	  25,	  24, -1
  21,	  24,	  22, -1
  22,	  24,	  23, -1
]
colorPerVertex FALSE
colorIndex [
1,
1,
1,
1,
1,
1,
1,
1,
1,
1,
1,
1,
1,
1,
1,
1,
1,
1,
1,
1,
1,
1,
1,
1,
1,
1,
]
normal Normal {
vector [
 -0.105420	 -0.517771	 -0.848999,
 -0.716706	 -0.648203	 -0.257227,
 -0.819378	  0.012920	 -0.573107,
  0.076144	 -0.270247	 -0.959775,
  0.061979	 -0.542195	 -0.837964,
  0.435623	 -0.155680	 -0.886564,
 -0.045823	 -0.954247	  0.295488,
 -0.564625	 -0.308886	  0.765368,
 -0.772783	 -0.103843	  0.626117,
 -0.381446	  0.547751	 -0.744626,
 -0.738423	  0.478079	  0.475575,
  0.129337	  0.245695	 -0.960680,
  0.657715	 -0.675986	 -0.332347,
  0.167193	  0.410569	 -0.896370,
  0.564635	  0.436494	 -0.700471,
  0.909348	 -0.200288	 -0.364652,
 -0.312505	 -0.470419	  0.825256,
  0.489916	 -0.711346	  0.503953,
 -0.207253	 -0.030304	  0.977818,
  0.293263	  0.789303	 -0.539443,
 -0.243556	  0.915372	  0.320584,
  0.694698	  0.713198	  0.093505,
  0.824793	 -0.051128	  0.563119,
  0.115444	 -0.334485	  0.935303,
  0.364277	 -0.135480	  0.921383,
  0.369929	  0.477143	  0.797174,
]
}
normalIndex [
   0,	   1,	   2, -1
   0,	   2,	   3, -1
   4,	   1,	   0, -1
   5,	   0,	   3, -1
   5,	   4,	   0, -1
   4,	   6,	   1, -1
   1,	   7,	   8, -1
   1,	   8,	   2, -1
   6,	   7,	   1, -1
   3,	   2,	   9, -1
   2,	   8,	  10, -1
   2,	  10,	   9, -1
   3,	   9,	  11, -1
   5,	   3,	  11, -1
  12,	   6,	   4, -1
   5,	  12,	   4, -1
   5,	  11,	  13, -1
   5,	  13,	  14, -1
   5,	  14,	  15, -1
   5,	  15,	  12, -1
   6,	  16,	   7, -1
  12,	  17,	   6, -1
  17,	  16,	   6, -1
  18,	   7,	  16, -1
  18,	   8,	   7, -1
  18,	  10,	   8, -1
  11,	   9,	  19, -1
   9,	  10,	  20, -1
   9,	  20,	  19, -1
  18,	  20,	  10, -1
  11,	  19,	  13, -1
  15,	  17,	  12, -1
  13,	  19,	  21, -1
  13,	  21,	  14, -1
  14,	  21,	  22, -1
  14,	  22,	  15, -1
  15,	  22,	  17, -1
  17,	  23,	  16, -1
  18,	  16,	  23, -1
  22,	  23,	  17, -1
  18,	  23,	  24, -1
  18,	  24,	  25, -1
  18,	  25,	  20, -1
  19,	  20,	  25, -1
  19,	  25,	  21, -1
  21,	  25,	  24, -1
  21,	  24,	  22, -1
  22,	  24,	  23, -1
]
normalPerVertex TRUE
}
}
]
}
