# 
# Wavefront OBJ file
# Converted by the DEEP Exploration 2.00.1211
# Right Hemisphere, LTD
# http://www.righthemisphere.com/
# 
mtllib prox_carpals_l.mtl
# object Object #0
g Object__0
v -0.001598 -0.013863 0.020015
v 0.001389 -0.020089 0.018524
v 0.00499 -0.017777 0.020707
v 0.005957 -0.017407 0.021585
v -0.00024 -0.011955 0.015197
v 0.001778 -0.009847 0.018798
v 0.00088 -0.009039 0.014417
v 0.005564 -0.019833 0.020529
v 0.003077 -0.020337 0.018869
v 0.000445 -0.01438 0.015052
v 0.007679 -0.015485 0.020354
v 0.006104 -0.01415 0.021322
v 0.002632 -0.012239 0.014533
v 0.00629 -0.007898 0.017632
v 0.003783 -0.006016 0.0154
v 0.00952 -0.017643 0.019444
v 0.001387 -0.016515 0.014917
v 0.008257 -0.018193 0.01728
v 0.008244 -0.012134 0.020211
v 0.00989 -0.011019 0.020027
v 0.011157 -0.013918 0.01901
v 0.004002 -0.015726 0.014214
v 0.006868 -0.013402 0.014273
v 0.006124 -0.008733 0.012278
v 0.008357 -0.008919 0.016628
v 0.011029 -0.01393 0.016624
# 26 verticies
vn -0.819378 0.01292 0.573107
vn -0.716706 -0.648203 0.257227
vn -0.10542 -0.517771 0.848999
vn 0.076144 -0.270247 0.959775
vn -0.772783 -0.103843 -0.626117
vn -0.381446 0.547751 0.744626
vn -0.738423 0.478079 -0.475575
vn 0.061979 -0.542195 0.837964
vn -0.045823 -0.954247 -0.295488
vn -0.564625 -0.308886 -0.765368
vn 0.435623 -0.15568 0.886564
vn 0.129337 0.245695 0.96068
vn -0.207253 -0.030304 -0.977818
vn 0.293263 0.789303 0.539443
vn -0.243556 0.915372 -0.320584
vn 0.657715 -0.675986 0.332347
vn -0.312505 -0.470419 -0.825256
vn 0.489916 -0.711346 -0.503953
vn 0.167193 0.410569 0.89637
vn 0.564635 0.436494 0.700471
vn 0.909348 -0.200288 0.364652
vn 0.115444 -0.334485 -0.935303
vn 0.364277 -0.13548 -0.921383
vn 0.369929 0.477143 -0.797174
vn 0.694698 0.713198 -0.093505
vn 0.824793 -0.051128 -0.563119
# 26 normals
usemtl Material__2
f  1//1 2//2 3//3
f  4//4 1//1 3//3
f  1//1 5//5 2//2
f  6//6 1//1 4//4
f  7//7 5//5 1//1
f  6//6 7//7 1//1
f  3//3 2//2 8//8
f  2//2 9//9 8//8
f  5//5 10//10 2//2
f  2//2 10//10 9//9
f  4//4 3//3 11//11
f  3//3 8//8 11//11
f  12//12 6//6 4//4
f  12//12 4//4 11//11
f  10//10 5//5 13//13
f  5//5 7//7 13//13
f  14//14 6//6 12//12
f  15//15 7//7 6//6
f  14//14 15//15 6//6
f  7//7 15//15 13//13
f  8//8 9//9 16//16
f  8//8 16//16 11//11
f  10//10 17//17 9//9
f  9//9 18//18 16//16
f  9//9 17//17 18//18
f  17//17 10//10 13//13
f  19//19 12//12 11//11
f  20//20 19//19 11//11
f  21//21 20//20 11//11
f  16//16 21//21 11//11
f  19//19 14//14 12//12
f  22//22 17//17 13//13
f  23//23 22//22 13//13
f  24//24 23//23 13//13
f  15//15 24//24 13//13
f  25//25 14//14 19//19
f  24//24 15//15 14//14
f  25//25 24//24 14//14
f  16//16 18//18 21//21
f  17//17 22//22 18//18
f  18//18 26//26 21//21
f  18//18 22//22 26//26
f  20//20 25//25 19//19
f  26//26 25//25 20//20
f  21//21 26//26 20//20
f  22//22 23//23 26//26
f  23//23 24//24 25//25
f  26//26 23//23 25//25
# object Object #1
g Object__1
v 0.000867 -0.003635 0.012165
v -9.9e-005 -0.006316 0.005362
v 0.002602 -0.002676 0.005706
v 0.00268 -0.001475 0.009082
v -0.00936 -0.006808 0.009909
v -0.002364 -0.003356 0.018046
v -0.005442 -0.003785 0.013134
v 0.001575 -0.000491 0.001372
v 0.000235 -0.002883 -4.3e-005
v -0.012484 -0.00932 0.004495
v 0.002821 -0.000663 0.004136
v 0.002714 -0.000144 0.003614
v 0.002768 -0.000504 0.005373
v 0.002254 -0.000761 0.011719
v -0.011531 -0.00362 0.010419
v -0.010098 -0.002875 0.012352
v -0.002192 0.00054 0.01808
v -0.006957 -0.000601 0.010679
v -0.010554 -0.001282 0.012127
v 0.001186 0.001912 0.001156
v 0.002607 0.000375 0.003093
v -0.014539 -0.005345 0.001797
v -0.001057 0.002876 -4e-006
v -0.012865 -0.004807 0.00801
v 0.002751 0.000512 0.004432
v 0.002926 0.000467 0.006024
v 0.001696 0.000644 0.012598
v -0.012139 -0.002597 0.009506
v -0.000663 0.004132 0.012939
v -0.007461 0.00249 0.008703
v -0.011482 -0.000886 0.0103
v 0.000823 0.00409 0.003194
v 0.002521 0.001382 0.0032
v -0.013699 -0.000132 0.00521
v -0.01401 -0.004575 0.006135
v -0.00079 0.005758 0.004823
v 0.002984 0.00138 0.005786
v 0.002668 0.001805 0.004226
v 0.001878 0.002334 0.009149
v -0.013997 -0.001782 0.007511
v -0.012575 -0.000951 0.009191
v -0.008456 0.003832 0.005489
# 42 verticies
vn 0.56256 -0.75137 0.34492
vn 0.593047 -0.802069 -0.070574
vn 0.853313 -0.475056 -0.214891
vn 0.967079 -0.170192 0.189191
vn -0.170511 -0.776547 0.606549
vn 0.249588 -0.538511 0.804806
vn -0.220834 -0.379844 0.898304
vn 0.852147 -0.235206 -0.467465
vn 0.443499 -0.332225 -0.832427
vn -0.424731 -0.898774 0.10867
vn 0.982378 -0.106529 -0.153574
vn 0.906535 -0.211732 -0.365189
vn 0.999637 0.011377 0.024434
vn 0.945475 -0.068265 0.318461
vn -0.726896 -0.323139 0.605973
vn -0.572102 -0.233739 0.786171
vn 0.065869 0.399363 0.914423
vn -0.521734 0.486322 0.700917
vn -0.450568 0.435079 0.779548
vn 0.733692 0.259055 -0.628161
vn 0.935488 0.034356 -0.351685
vn -0.800471 -0.288547 -0.525344
vn 0.089693 0.570723 -0.816229
vn -0.808247 -0.379006 0.450656
vn 0.993504 0.027102 -0.110527
vn 0.998796 -0.026367 0.041369
vn 0.903191 0.261112 0.340687
vn -0.811359 -0.066956 0.580701
vn 0.228368 0.875636 0.42557
vn -0.496508 0.669741 0.552201
vn -0.534159 0.551945 0.640336
vn 0.699665 0.653149 -0.289596
vn 0.914081 0.260327 -0.310942
vn -0.761101 0.53473 -0.367136
vn -0.925167 -0.235007 0.298056
vn 0.222446 0.916559 -0.33232
vn 0.979098 0.201362 0.02863
vn 0.905925 0.405467 -0.12205
vn 0.788407 0.600295 0.134388
vn -0.868565 0.263201 0.419904
vn -0.685497 0.476904 0.550142
vn -0.511802 0.84375 0.161691
# 42 normals
usemtl Material__3
f  27//27 28//28 29//29
f  30//30 27//27 29//29
f  27//27 31//31 28//28
f  32//32 27//27 30//30
f  33//33 31//31 27//27
f  32//32 33//33 27//27
f  29//29 28//28 34//34
f  28//28 35//35 34//34
f  31//31 36//36 28//28
f  28//28 36//36 35//35
f  30//30 29//29 37//37
f  29//29 34//34 38//38
f  37//37 29//29 38//38
f  39//39 30//30 37//37
f  40//40 32//32 30//30
f  40//40 30//30 39//39
f  31//31 41//41 36//36
f  42//42 41//41 31//31
f  33//33 42//42 31//31
f  43//43 32//32 40//40
f  44//44 33//33 32//32
f  43//43 44//44 32//32
f  45//45 42//42 33//33
f  44//44 45//45 33//33
f  34//34 35//35 46//46
f  34//34 46//46 47//47
f  38//38 34//34 47//47
f  36//36 48//48 35//35
f  35//35 49//49 46//46
f  35//35 48//48 49//49
f  41//41 50//50 36//36
f  36//36 50//50 48//48
f  39//39 37//37 51//51
f  37//37 38//38 51//51
f  38//38 47//47 51//51
f  52//52 40//40 39//39
f  52//52 39//39 51//51
f  53//53 43//43 40//40
f  53//53 40//40 52//52
f  54//54 50//50 41//41
f  54//54 41//41 42//42
f  54//54 42//42 45//45
f  55//55 43//43 53//53
f  56//56 44//44 43//43
f  55//55 56//56 43//43
f  57//57 45//45 44//44
f  56//56 57//57 44//44
f  54//54 45//45 57//57
f  46//46 49//49 58//58
f  46//46 58//58 59//59
f  47//47 46//46 59//59
f  47//47 59//59 51//51
f  48//48 60//60 49//49
f  50//50 61//61 48//48
f  48//48 61//61 60//60
f  49//49 62//62 58//58
f  49//49 60//60 62//62
f  54//54 61//61 50//50
f  63//63 52//52 51//51
f  64//64 63//63 51//51
f  59//59 64//64 51//51
f  63//63 53//53 52//52
f  65//65 55//55 53//53
f  65//65 53//53 63//63
f  54//54 66//66 61//61
f  54//54 67//67 66//66
f  54//54 57//57 67//67
f  62//62 55//55 65//65
f  62//62 68//68 55//55
f  68//68 56//56 55//55
f  67//67 57//57 56//56
f  68//68 67//67 56//56
f  58//58 62//62 65//65
f  58//58 65//65 64//64
f  59//59 58//58 64//64
f  61//61 66//66 60//60
f  60//60 68//68 62//62
f  60//60 66//66 68//68
f  64//64 65//65 63//63
f  66//66 67//67 68//68
# object Object #2
g Object__2
v -0.010368 -0.004687 -0.002672
v -0.009717 -0.006354 -0.007261
v -0.008361 -0.00742 -0.005205
v -0.008849 -0.00594 -0.000489
v -0.009353 -0.006419 -0.009349
v -0.009393 2e-006 -0.000148
v -0.007801 -0.009324 -0.007573
v -0.009091 -0.007781 -0.009644
v -0.000414 -0.009429 -0.008767
v 0.001577 -0.003172 -0.007169
v 0.00058 0.0003 -0.001869
v -0.003507 0.006369 0.001747
v -0.008809 -0.010246 -0.011221
v -0.010366 -0.000986 -0.005784
v -0.009998 -0.003629 -0.012687
v -0.009284 -0.008532 -0.014169
v -0.008141 -0.010324 -0.015971
v -0.008364 -0.011657 -0.013934
v -0.002362 -0.013591 -0.008553
v -0.006969 -0.013265 -0.008422
v 0.000775 -0.01093 -0.010805
v 0.001282 -0.0088 -0.011427
v 0.001714 -0.002442 -0.008746
v 0.001229 0.004957 -0.002015
v 0.001702 0.001018 -0.004202
v -0.007549 0.004479 -0.007057
v -0.006264 -0.014827 -0.014795
v -0.009762 -0.002114 -0.013843
v -0.00633 -0.006054 -0.018306
v -0.002353 -0.011454 -0.021383
v 0.000922 -0.011455 -0.01179
v -0.000783 -0.015146 -0.010582
v -4.9e-005 -0.006336 -0.014521
v 0.000615 -0.002372 -0.011428
v 0.002162 0.001027 -0.0073
v 0.002097 0.002381 -0.004573
v 0.002196 0.002574 -0.008128
v 0.000288 -0.010558 -0.021253
v -0.000711 -0.001157 -0.013934
v -0.001428 -0.005423 -0.016795
v 0.001826 -0.009822 -0.016144
# 41 verticies
vn -0.967362 -0.236171 0.091837
vn -0.921613 -0.386684 0.033233
vn -0.305478 -0.810302 0.500094
vn -0.122977 -0.617034 0.777268
vn -0.987508 -0.157467 -0.005596
vn -0.918394 0.123346 0.375949
vn -0.486052 -0.505641 0.712798
vn -0.939641 -0.303527 0.157946
vn 0.547249 -0.341132 0.764295
vn 0.783331 -0.426909 0.45182
vn 0.782042 -0.267659 0.562822
vn -0.232555 0.517611 0.823406
vn -0.932244 -0.344242 0.111439
vn -0.968895 0.237248 0.070391
vn -0.997009 0.045685 -0.062332
vn -0.948344 -0.206345 -0.240968
vn -0.862226 -0.341728 -0.373883
vn -0.893023 -0.368176 -0.258759
vn 0.442859 -0.381634 0.811315
vn -0.599454 -0.622073 0.503667
vn 0.941106 -0.241037 0.237107
vn 0.990827 -0.124278 -0.053073
vn 0.996729 -0.077134 -0.0241
vn 0.85778 0.444119 0.258787
vn 0.932547 -0.216202 0.28916
vn -0.523289 0.815702 -0.246574
vn -0.437385 -0.881776 -0.176537
vn -0.620863 0.525987 -0.581263
vn -0.410473 0.347912 -0.842893
vn -0.411377 -0.191669 -0.891085
vn 0.940331 -0.117185 0.319445
vn 0.529898 -0.821074 0.21224
vn 0.936141 0.245248 -0.251977
vn 0.911767 0.111433 -0.395301
vn 0.986113 -0.084589 -0.142918
vn 0.985335 -0.026707 0.168527
vn 0.688927 0.592222 -0.417914
vn 0.772402 -0.191961 -0.60543
vn 0.578978 0.452031 -0.678567
vn 0.535042 0.495206 -0.684472
vn 0.99899 -0.024263 -0.037827
# 41 normals
usemtl Material__1
f  69//69 70//70 71//71
f  72//72 69//69 71//71
f  73//73 70//70 69//69
f  74//74 69//69 72//72
f  73//73 69//69 74//74
f  71//71 70//70 75//75
f  70//70 76//76 75//75
f  73//73 76//76 70//70
f  71//71 75//75 77//77
f  78//78 71//71 77//77
f  72//72 71//71 78//78
f  79//79 72//72 78//78
f  80//80 74//74 72//72
f  80//80 72//72 79//79
f  73//73 81//81 76//76
f  73//73 74//74 82//82
f  73//73 82//82 83//83
f  73//73 83//83 84//84
f  73//73 84//84 85//85
f  73//73 85//85 86//86
f  73//73 86//86 81//81
f  82//82 74//74 80//80
f  77//77 75//75 87//87
f  75//75 88//88 87//87
f  75//75 76//76 88//88
f  76//76 81//81 88//88
f  77//77 87//87 89//89
f  90//90 77//77 89//89
f  78//78 77//77 90//90
f  91//91 78//78 90//90
f  79//79 78//78 91//91
f  92//92 80//80 79//79
f  93//93 79//79 91//91
f  92//92 79//79 93//93
f  94//94 82//82 80//80
f  94//94 80//80 92//92
f  88//88 81//81 95//95
f  81//81 86//86 95//95
f  83//83 82//82 94//94
f  96//96 83//83 94//94
f  84//84 83//83 96//96
f  97//97 84//84 96//96
f  85//85 84//84 97//97
f  98//98 85//85 97//97
f  86//86 85//85 98//98
f  95//95 86//86 98//98
f  89//89 87//87 99//99
f  87//87 100//100 99//99
f  87//87 88//88 100//100
f  88//88 95//95 100//100
f  90//90 89//89 101//101
f  101//101 89//89 99//99
f  102//102 91//91 90//90
f  102//102 90//90 101//101
f  103//103 93//93 91//91
f  103//103 91//91 102//102
f  104//104 92//92 93//93
f  105//105 94//94 92//92
f  105//105 92//92 104//104
f  104//104 93//93 103//103
f  96//96 94//94 105//105
f  100//100 95//95 106//106
f  95//95 98//98 106//106
f  107//107 96//96 105//105
f  97//97 96//96 107//107
f  108//108 97//97 107//107
f  98//98 97//97 108//108
f  106//106 98//98 108//108
f  99//99 100//100 109//109
f  101//101 99//99 109//109
f  100//100 106//106 109//109
f  101//101 108//108 102//102
f  106//106 108//108 101//101
f  109//109 106//106 101//101
f  102//102 107//107 103//103
f  108//108 107//107 102//102
f  103//103 105//105 104//104
f  107//107 105//105 103//103
# object Object__0
g Object__01
v -0.001721 -0.015703 0.021701
v -0.000732 -0.012534 0.021612
v -0.002966 -0.012634 0.020903
v -0.004485 -0.016957 0.021567
v -0.00098 -0.01712 0.019031
v -0.002465 -0.018203 0.018471
v -0.001041 -0.017808 0.016834
v -0.00215 -0.009472 0.021174
v -0.000195 -0.008613 0.021316
v -0.000778 -0.012704 0.018779
v -0.005244 -0.0091 0.021548
v -0.004721 -0.006312 0.020791
v -0.00518 -0.010712 0.021981
v -0.006461 -0.017649 0.019688
v 5.6e-005 -0.011341 0.016867
v -0.000149 -0.013406 0.014355
v -0.003018 -0.012784 0.013772
v -0.001718 -0.004845 0.019111
v -0.007672 -0.005706 0.019953
v -0.000546 -0.009675 0.018101
v 0.001683 -0.004715 0.020707
v -0.00724 -0.009285 0.021181
v -0.006584 -0.011742 0.022111
v -0.010698 -0.006286 0.013243
v -0.009369 -0.013369 0.020454
v 0.001746 -0.005936 0.019553
v 0.001912 -0.00586 0.015758
v 0.000285 -0.008223 0.012524
v -0.001481 -0.007476 0.011001
v -0.005254 -0.002747 0.01715
v -0.010306 -0.006689 0.019466
v 0.001757 -0.004276 0.015074
v -0.007988 -0.012773 0.02224
v -0.010214 -0.011246 0.021355
# 34 verticies
vn 0.199843 -0.523132 0.82849
vn 0.551224 -0.06131 0.832102
vn -0.02465 0.080913 0.996416
vn 0.195148 -0.365945 0.909946
vn 0.889698 -0.35393 0.288393
vn -0.014739 -0.976889 -0.21324
vn 0.547623 -0.836412 0.022895
vn -0.123008 0.252361 0.959783
vn 0.620143 0.051756 0.78278
vn 0.987971 -0.056099 0.144104
vn 0.324744 0.192646 0.925975
vn 0.060638 0.284357 0.956799
vn 0.082812 0.049385 0.995341
vn -0.515143 -0.816313 0.261267
vn 0.953692 -0.216793 0.208499
vn 0.455076 -0.480636 -0.749597
vn -0.077636 -0.545561 -0.834467
vn -0.271046 0.554516 0.786795
vn -0.13427 0.827556 0.545089
vn 0.833649 -0.359539 0.419239
vn 0.581716 0.146538 0.800083
vn -0.189492 0.305159 0.933258
vn 0.087088 -0.247924 0.964857
vn -0.778151 0.063699 -0.624838
vn -0.649648 -0.632922 0.421149
vn 0.885799 -0.288839 0.363226
vn 0.957203 -0.071797 -0.280371
vn 0.7617 -0.222399 -0.608566
vn 0.435672 0.032929 -0.899503
vn -0.378962 0.901289 0.20992
vn -0.398221 0.755084 0.520834
vn 0.703151 0.596112 -0.387593
vn -0.435669 -0.303433 0.84742
vn -0.866851 0.060487 0.494884
# 34 normals
usemtl Material__10
f  110//110 111//111 112//112
f  113//113 110//110 112//112
f  110//110 114//114 111//111
f  115//115 110//110 113//113
f  116//116 114//114 110//110
f  115//115 116//116 110//110
f  112//112 111//111 117//117
f  111//111 118//118 117//117
f  114//114 119//119 111//111
f  111//111 119//119 118//118
f  112//112 120//120 113//113
f  121//121 120//120 112//112
f  117//117 121//121 112//112
f  120//120 122//122 113//113
f  123//123 115//115 113//113
f  113//113 122//122 123//123
f  119//119 114//114 124//124
f  114//114 116//116 124//124
f  125//125 116//116 115//115
f  126//126 125//125 115//115
f  126//126 115//115 123//123
f  116//116 125//125 124//124
f  117//117 118//118 127//127
f  128//128 121//121 117//117
f  127//127 128//128 117//117
f  119//119 129//129 118//118
f  118//118 130//130 127//127
f  118//118 129//129 130//130
f  129//129 119//119 124//124
f  131//131 122//122 120//120
f  131//131 120//120 121//121
f  131//131 121//121 128//128
f  122//122 132//132 123//123
f  131//131 132//132 122//122
f  133//133 126//126 123//123
f  123//123 132//132 134//134
f  134//134 133//133 123//123
f  135//135 129//129 124//124
f  136//136 135//135 124//124
f  137//137 136//136 124//124
f  125//125 137//137 124//124
f  137//137 125//125 126//126
f  138//138 137//137 126//126
f  126//126 133//133 138//138
f  127//127 130//130 139//139
f  140//140 128//128 127//127
f  139//139 140//140 127//127
f  131//131 128//128 140//140
f  129//129 135//135 130//130
f  130//130 141//141 139//139
f  130//130 135//135 141//141
f  131//131 142//142 132//132
f  131//131 140//140 143//143
f  131//131 143//143 142//142
f  132//132 142//142 134//134
f  141//141 138//138 133//133
f  139//139 141//141 133//133
f  133//133 143//143 139//139
f  142//142 143//143 133//133
f  134//134 142//142 133//133
f  135//135 136//136 141//141
f  141//141 136//136 138//138
f  136//136 137//137 138//138
f  143//143 140//140 139//139
