# 
# Wavefront OBJ file
# Converted by the DEEP Exploration 2.00.1211
# Right Hemisphere, LTD
# http://www.righthemisphere.com/
# 
mtllib prox_carpals.mtl
# object Object #0
g Object__0
v 0.00499 -0.017777 -0.020707
v 0.001389 -0.020089 -0.018524
v -0.001598 -0.013863 -0.020015
v 0.005957 -0.017407 -0.021585
v 0.005564 -0.019833 -0.020529
v 0.007679 -0.015485 -0.020354
v 0.003077 -0.020337 -0.018869
v 0.000445 -0.01438 -0.015052
v -0.00024 -0.011955 -0.015197
v 0.001778 -0.009847 -0.018798
v 0.00088 -0.009039 -0.014417
v 0.006104 -0.01415 -0.021322
v 0.00952 -0.017643 -0.019444
v 0.008244 -0.012134 -0.020211
v 0.00989 -0.011019 -0.020027
v 0.011157 -0.013918 -0.01901
v 0.001387 -0.016515 -0.014917
v 0.008257 -0.018193 -0.01728
v 0.002632 -0.012239 -0.014533
v 0.00629 -0.007898 -0.017632
v 0.003783 -0.006016 -0.0154
v 0.008357 -0.008919 -0.016628
v 0.011029 -0.01393 -0.016624
v 0.004002 -0.015726 -0.014214
v 0.006868 -0.013402 -0.014273
v 0.006124 -0.008733 -0.012278
# 26 verticies
vn -0.10542 -0.517771 -0.848999
vn -0.716706 -0.648203 -0.257227
vn -0.819378 0.01292 -0.573107
vn 0.076144 -0.270247 -0.959775
vn 0.061979 -0.542195 -0.837964
vn 0.435623 -0.15568 -0.886564
vn -0.045823 -0.954247 0.295488
vn -0.564625 -0.308886 0.765368
vn -0.772783 -0.103843 0.626117
vn -0.381446 0.547751 -0.744626
vn -0.738423 0.478079 0.475575
vn 0.129337 0.245695 -0.96068
vn 0.657715 -0.675986 -0.332347
vn 0.167193 0.410569 -0.89637
vn 0.564635 0.436494 -0.700471
vn 0.909348 -0.200288 -0.364652
vn -0.312505 -0.470419 0.825256
vn 0.489916 -0.711346 0.503953
vn -0.207253 -0.030304 0.977818
vn 0.293263 0.789303 -0.539443
vn -0.243556 0.915372 0.320584
vn 0.694698 0.713198 0.093505
vn 0.824793 -0.051128 0.563119
vn 0.115444 -0.334485 0.935303
vn 0.364277 -0.13548 0.921383
vn 0.369929 0.477143 0.797174
# 26 normals
usemtl Material__2
f  1//1 2//2 3//3
f  1//1 3//3 4//4
f  5//5 2//2 1//1
f  6//6 1//1 4//4
f  6//6 5//5 1//1
f  5//5 7//7 2//2
f  2//2 8//8 9//9
f  2//2 9//9 3//3
f  7//7 8//8 2//2
f  4//4 3//3 10//10
f  3//3 9//9 11//11
f  3//3 11//11 10//10
f  4//4 10//10 12//12
f  6//6 4//4 12//12
f  13//13 7//7 5//5
f  6//6 13//13 5//5
f  6//6 12//12 14//14
f  6//6 14//14 15//15
f  6//6 15//15 16//16
f  6//6 16//16 13//13
f  7//7 17//17 8//8
f  13//13 18//18 7//7
f  18//18 17//17 7//7
f  19//19 8//8 17//17
f  19//19 9//9 8//8
f  19//19 11//11 9//9
f  12//12 10//10 20//20
f  10//10 11//11 21//21
f  10//10 21//21 20//20
f  19//19 21//21 11//11
f  12//12 20//20 14//14
f  16//16 18//18 13//13
f  14//14 20//20 22//22
f  14//14 22//22 15//15
f  15//15 22//22 23//23
f  15//15 23//23 16//16
f  16//16 23//23 18//18
f  18//18 24//24 17//17
f  19//19 17//17 24//24
f  23//23 24//24 18//18
f  19//19 24//24 25//25
f  19//19 25//25 26//26
f  19//19 26//26 21//21
f  20//20 21//21 26//26
f  20//20 26//26 22//22
f  22//22 26//26 25//25
f  22//22 25//25 23//23
f  23//23 25//25 24//24
# object Object #1
g Object__1
v 0.002602 -0.002676 -0.005706
v -9.9e-005 -0.006316 -0.005362
v 0.000867 -0.003635 -0.012165
v 0.00268 -0.001475 -0.009082
v 0.001575 -0.000491 -0.001372
v 0.002821 -0.000663 -0.004136
v 0.002714 -0.000144 -0.003614
v 0.000235 -0.002883 4.3e-005
v -0.012484 -0.00932 -0.004495
v -0.00936 -0.006808 -0.009909
v -0.002364 -0.003356 -0.018046
v -0.005442 -0.003785 -0.013134
v 0.002768 -0.000504 -0.005373
v 0.002254 -0.000761 -0.011719
v 0.001186 0.001912 -0.001156
v 0.002607 0.000375 -0.003093
v 0.002751 0.000512 -0.004432
v -0.014539 -0.005345 -0.001797
v -0.001057 0.002876 4e-006
v -0.012865 -0.004807 -0.00801
v -0.011531 -0.00362 -0.010419
v -0.010098 -0.002875 -0.012352
v -0.002192 0.00054 -0.01808
v -0.006957 -0.000601 -0.010679
v -0.010554 -0.001282 -0.012127
v 0.002926 0.000467 -0.006024
v 0.001696 0.000644 -0.012598
v 0.000823 0.00409 -0.003194
v 0.002521 0.001382 -0.0032
v 0.002984 0.00138 -0.005786
v 0.002668 0.001805 -0.004226
v -0.013699 -0.000132 -0.00521
v -0.01401 -0.004575 -0.006135
v -0.00079 0.005758 -0.004823
v -0.012139 -0.002597 -0.009506
v -0.000663 0.004132 -0.012939
v -0.007461 0.00249 -0.008703
v -0.011482 -0.000886 -0.0103
v 0.001878 0.002334 -0.009149
v -0.013997 -0.001782 -0.007511
v -0.008456 0.003832 -0.005489
v -0.012575 -0.000951 -0.009191
# 42 verticies
vn 0.853313 -0.475056 0.214891
vn 0.593047 -0.802069 0.070574
vn 0.56256 -0.75137 -0.34492
vn 0.967079 -0.170192 -0.189191
vn 0.852147 -0.235206 0.467465
vn 0.982378 -0.106529 0.153574
vn 0.906535 -0.211732 0.365189
vn 0.443499 -0.332225 0.832427
vn -0.424731 -0.898774 -0.10867
vn -0.170511 -0.776547 -0.606549
vn 0.249588 -0.538511 -0.804806
vn -0.220834 -0.379844 -0.898304
vn 0.999637 0.011377 -0.024434
vn 0.945475 -0.068265 -0.318461
vn 0.733692 0.259055 0.628161
vn 0.935488 0.034356 0.351685
vn 0.993504 0.027102 0.110527
vn -0.800471 -0.288547 0.525344
vn 0.089693 0.570723 0.816229
vn -0.808247 -0.379006 -0.450656
vn -0.726896 -0.323139 -0.605973
vn -0.572102 -0.233739 -0.786171
vn 0.065869 0.399363 -0.914423
vn -0.521734 0.486322 -0.700917
vn -0.450568 0.435079 -0.779548
vn 0.998796 -0.026367 -0.041369
vn 0.903191 0.261112 -0.340687
vn 0.699665 0.653149 0.289596
vn 0.914081 0.260327 0.310942
vn 0.979098 0.201362 -0.02863
vn 0.905925 0.405467 0.12205
vn -0.761101 0.53473 0.367136
vn -0.925167 -0.235007 -0.298056
vn 0.222446 0.916559 0.33232
vn -0.811359 -0.066956 -0.580701
vn 0.228368 0.875636 -0.42557
vn -0.496508 0.669741 -0.552201
vn -0.534159 0.551945 -0.640336
vn 0.788407 0.600295 -0.134388
vn -0.868565 0.263201 -0.419904
vn -0.511802 0.84375 -0.161691
vn -0.685497 0.476904 -0.550142
# 42 normals
usemtl Material__3
f  27//27 28//28 29//29
f  27//27 29//29 30//30
f  31//31 28//28 27//27
f  32//32 27//27 30//30
f  33//33 31//31 27//27
f  33//33 27//27 32//32
f  31//31 34//34 28//28
f  28//28 35//35 36//36
f  28//28 36//36 29//29
f  34//34 35//35 28//28
f  30//30 29//29 37//37
f  29//29 36//36 38//38
f  29//29 38//38 37//37
f  32//32 30//30 39//39
f  30//30 37//37 40//40
f  39//39 30//30 40//40
f  41//41 34//34 31//31
f  42//42 41//41 31//31
f  42//42 31//31 33//33
f  43//43 32//32 39//39
f  43//43 33//33 32//32
f  43//43 42//42 33//33
f  34//34 44//44 35//35
f  41//41 45//45 34//34
f  45//45 44//44 34//34
f  35//35 46//46 47//47
f  35//35 47//47 36//36
f  44//44 46//46 35//35
f  36//36 47//47 48//48
f  36//36 48//48 38//38
f  40//40 37//37 49//49
f  37//37 38//38 50//50
f  37//37 50//50 49//49
f  38//38 48//48 51//51
f  38//38 51//51 50//50
f  39//39 40//40 52//52
f  43//43 39//39 52//52
f  40//40 49//49 53//53
f  52//52 40//40 53//53
f  54//54 45//45 41//41
f  55//55 54//54 41//41
f  55//55 41//41 42//42
f  43//43 55//55 42//42
f  43//43 52//52 56//56
f  43//43 56//56 57//57
f  43//43 57//57 55//55
f  45//45 58//58 44//44
f  44//44 59//59 46//46
f  58//58 59//59 44//44
f  54//54 60//60 45//45
f  60//60 58//58 45//45
f  47//47 46//46 61//61
f  46//46 59//59 61//61
f  48//48 47//47 61//61
f  51//51 48//48 61//61
f  53//53 49//49 62//62
f  49//49 50//50 63//63
f  49//49 63//63 62//62
f  50//50 51//51 64//64
f  50//50 64//64 63//63
f  64//64 51//51 61//61
f  52//52 53//53 56//56
f  53//53 62//62 65//65
f  56//56 53//53 65//65
f  65//65 60//60 54//54
f  57//57 65//65 54//54
f  57//57 54//54 55//55
f  56//56 65//65 57//57
f  58//58 66//66 59//59
f  60//60 67//67 58//58
f  67//67 66//66 58//58
f  59//59 66//66 61//61
f  65//65 62//62 60//60
f  62//62 67//67 60//60
f  66//66 68//68 61//61
f  68//68 64//64 61//61
f  62//62 63//63 67//67
f  63//63 64//64 68//68
f  63//63 68//68 67//67
f  67//67 68//68 66//66
# object Object #2
g Object__2
v -0.008361 -0.00742 0.005205
v -0.009717 -0.006354 0.007261
v -0.010368 -0.004687 0.002672
v -0.008849 -0.00594 0.000489
v -0.000414 -0.009429 0.008767
v -0.007801 -0.009324 0.007573
v 0.001577 -0.003172 0.007169
v -0.009091 -0.007781 0.009644
v -0.009353 -0.006419 0.009349
v -0.009393 2e-006 0.000148
v 0.00058 0.0003 0.001869
v -0.003507 0.006369 -0.001747
v 0.000775 -0.01093 0.010805
v -0.002362 -0.013591 0.008553
v 0.001282 -0.0088 0.011427
v -0.006969 -0.013265 0.008422
v 0.001714 -0.002442 0.008746
v -0.008809 -0.010246 0.011221
v -0.010366 -0.000986 0.005784
v -0.009998 -0.003629 0.012687
v -0.009284 -0.008532 0.014169
v -0.008141 -0.010324 0.015971
v -0.008364 -0.011657 0.013934
v 0.001229 0.004957 0.002015
v 0.001702 0.001018 0.004202
v -0.007549 0.004479 0.007057
v 0.000922 -0.011455 0.01179
v -4.9e-005 -0.006336 0.014521
v -0.000783 -0.015146 0.010582
v 0.000615 -0.002372 0.011428
v -0.006264 -0.014827 0.014795
v 0.002162 0.001027 0.0073
v -0.009762 -0.002114 0.013843
v -0.00633 -0.006054 0.018306
v -0.002353 -0.011454 0.021383
v 0.002097 0.002381 0.004573
v 0.002196 0.002574 0.008128
v 0.001826 -0.009822 0.016144
v -0.001428 -0.005423 0.016795
v 0.000288 -0.010558 0.021253
v -0.000711 -0.001157 0.013934
# 41 verticies
vn -0.305478 -0.810302 -0.500094
vn -0.921613 -0.386684 -0.033233
vn -0.967362 -0.236171 -0.091837
vn -0.122977 -0.617034 -0.777268
vn 0.547249 -0.341132 -0.764295
vn -0.486052 -0.505641 -0.712798
vn 0.783331 -0.426909 -0.45182
vn -0.939641 -0.303527 -0.157946
vn -0.987508 -0.157467 0.005596
vn -0.918394 0.123346 -0.375949
vn 0.782042 -0.267659 -0.562822
vn -0.232555 0.517611 -0.823406
vn 0.941106 -0.241037 -0.237107
vn 0.442859 -0.381634 -0.811315
vn 0.990827 -0.124278 0.053073
vn -0.599454 -0.622073 -0.503667
vn 0.996729 -0.077134 0.0241
vn -0.932244 -0.344242 -0.111439
vn -0.968895 0.237248 -0.070391
vn -0.997009 0.045685 0.062332
vn -0.948344 -0.206345 0.240968
vn -0.862226 -0.341728 0.373883
vn -0.893023 -0.368176 0.258759
vn 0.85778 0.444119 -0.258787
vn 0.932547 -0.216202 -0.28916
vn -0.523289 0.815702 0.246574
vn 0.940331 -0.117185 -0.319445
vn 0.936141 0.245248 0.251977
vn 0.529898 -0.821074 -0.21224
vn 0.911767 0.111433 0.395301
vn -0.437385 -0.881776 0.176537
vn 0.986113 -0.084589 0.142918
vn -0.620863 0.525987 0.581263
vn -0.410473 0.347912 0.842893
vn -0.411377 -0.191669 0.891085
vn 0.985335 -0.026707 -0.168527
vn 0.688927 0.592222 0.417914
vn 0.99899 -0.024263 0.037827
vn 0.535042 0.495206 0.684472
vn 0.772402 -0.191961 0.60543
vn 0.578978 0.452031 0.678567
# 41 normals
usemtl Material__1
f  69//69 70//70 71//71
f  69//69 71//71 72//72
f  73//73 74//74 69//69
f  73//73 69//69 75//75
f  75//75 69//69 72//72
f  74//74 70//70 69//69
f  74//74 76//76 70//70
f  70//70 76//76 77//77
f  71//71 70//70 77//77
f  72//72 71//71 78//78
f  78//78 71//71 77//77
f  75//75 72//72 79//79
f  72//72 78//78 80//80
f  79//79 72//72 80//80
f  81//81 82//82 73//73
f  81//81 73//73 83//83
f  83//83 73//73 75//75
f  82//82 74//74 73//73
f  82//82 84//84 74//74
f  84//84 76//76 74//74
f  83//83 75//75 85//85
f  85//85 75//75 79//79
f  84//84 86//86 76//76
f  76//76 86//86 77//77
f  87//87 78//78 77//77
f  88//88 87//87 77//77
f  89//89 88//88 77//77
f  90//90 89//89 77//77
f  91//91 90//90 77//77
f  86//86 91//91 77//77
f  80//80 78//78 87//87
f  79//79 80//80 92//92
f  85//85 79//79 93//93
f  93//93 79//79 92//92
f  80//80 87//87 94//94
f  92//92 80//80 94//94
f  95//95 82//82 81//81
f  96//96 81//81 83//83
f  95//95 81//81 96//96
f  95//95 97//97 82//82
f  97//97 84//84 82//82
f  83//83 85//85 98//98
f  96//96 83//83 98//98
f  97//97 99//99 84//84
f  99//99 86//86 84//84
f  85//85 93//93 100//100
f  98//98 85//85 100//100
f  99//99 91//91 86//86
f  94//94 87//87 88//88
f  94//94 88//88 101//101
f  101//101 88//88 89//89
f  101//101 89//89 102//102
f  102//102 89//89 90//90
f  102//102 90//90 103//103
f  103//103 90//90 91//91
f  103//103 91//91 99//99
f  93//93 92//92 104//104
f  92//92 94//94 105//105
f  104//104 92//92 105//105
f  100//100 93//93 104//104
f  105//105 94//94 101//101
f  106//106 97//97 95//95
f  106//106 95//95 96//96
f  98//98 107//107 96//96
f  96//96 107//107 108//108
f  96//96 108//108 106//106
f  106//106 108//108 97//97
f  108//108 99//99 97//97
f  100//100 109//109 98//98
f  98//98 109//109 107//107
f  108//108 103//103 99//99
f  104//104 105//105 100//100
f  100//100 105//105 109//109
f  105//105 101//101 109//109
f  109//109 101//101 102//102
f  109//109 102//102 107//107
f  107//107 102//102 103//103
f  107//107 103//103 108//108
# object Object #3
g Object__3
v -0.002966 -0.012634 -0.020903
v -0.000732 -0.012534 -0.021612
v -0.001721 -0.015703 -0.021701
v -0.004485 -0.016957 -0.021567
v -0.00215 -0.009472 -0.021174
v -0.005244 -0.0091 -0.021548
v -0.004721 -0.006312 -0.020791
v -0.000195 -0.008613 -0.021316
v -0.000778 -0.012704 -0.018779
v -0.00098 -0.01712 -0.019031
v -0.002465 -0.018203 -0.018471
v -0.001041 -0.017808 -0.016834
v -0.00518 -0.010712 -0.021981
v -0.006461 -0.017649 -0.019688
v -0.001718 -0.004845 -0.019111
v -0.007672 -0.005706 -0.019953
v -0.00724 -0.009285 -0.021181
v -0.000546 -0.009675 -0.018101
v 0.001683 -0.004715 -0.020707
v 5.6e-005 -0.011341 -0.016867
v -0.000149 -0.013406 -0.014355
v -0.003018 -0.012784 -0.013772
v -0.006584 -0.011742 -0.022111
v -0.010698 -0.006286 -0.013243
v -0.009369 -0.013369 -0.020454
v -0.005254 -0.002747 -0.01715
v -0.010306 -0.006689 -0.019466
v -0.007988 -0.012773 -0.02224
v -0.010214 -0.011246 -0.021355
v 0.001746 -0.005936 -0.019553
v 0.001757 -0.004276 -0.015074
v 0.001912 -0.00586 -0.015758
v 0.000285 -0.008223 -0.012524
v -0.001481 -0.007476 -0.011001
# 34 verticies
vn -0.02465 0.080913 -0.996416
vn 0.551224 -0.06131 -0.832102
vn 0.199843 -0.523132 -0.82849
vn 0.195148 -0.365945 -0.909946
vn -0.123008 0.252361 -0.959783
vn 0.324744 0.192646 -0.925975
vn 0.060638 0.284357 -0.956799
vn 0.620143 0.051756 -0.78278
vn 0.987971 -0.056099 -0.144104
vn 0.889698 -0.35393 -0.288393
vn -0.014739 -0.976889 0.21324
vn 0.547623 -0.836412 -0.022895
vn 0.082812 0.049385 -0.995341
vn -0.515143 -0.816313 -0.261267
vn -0.271046 0.554516 -0.786795
vn -0.13427 0.827556 -0.545089
vn -0.189492 0.305159 -0.933258
vn 0.833649 -0.359539 -0.419239
vn 0.581716 0.146538 -0.800083
vn 0.953692 -0.216793 -0.208499
vn 0.455076 -0.480636 0.749597
vn -0.077636 -0.545561 0.834467
vn 0.087088 -0.247924 -0.964857
vn -0.778151 0.063699 0.624838
vn -0.649648 -0.632922 -0.421149
vn -0.378962 0.901289 -0.20992
vn -0.398221 0.755084 -0.520834
vn -0.435669 -0.303433 -0.84742
vn -0.866851 0.060487 -0.494884
vn 0.885799 -0.288839 -0.363226
vn 0.703151 0.596112 0.387593
vn 0.957203 -0.071797 0.280371
vn 0.7617 -0.222399 0.608566
vn 0.435672 0.032929 0.899503
# 34 normals
usemtl Material__4
f  110//110 111//111 112//112
f  110//110 112//112 113//113
f  114//114 111//111 110//110
f  113//113 115//115 110//110
f  110//110 115//115 116//116
f  110//110 116//116 114//114
f  114//114 117//117 111//111
f  111//111 118//118 119//119
f  111//111 119//119 112//112
f  117//117 118//118 111//111
f  113//113 112//112 120//120
f  112//112 119//119 121//121
f  112//112 121//121 120//120
f  113//113 122//122 115//115
f  113//113 120//120 123//123
f  123//123 122//122 113//113
f  124//124 117//117 114//114
f  114//114 116//116 125//125
f  114//114 125//125 124//124
f  115//115 122//122 126//126
f  116//116 115//115 126//126
f  125//125 116//116 126//126
f  117//117 127//127 118//118
f  124//124 128//128 117//117
f  128//128 127//127 117//117
f  129//129 119//119 118//118
f  129//129 118//118 127//127
f  129//129 121//121 119//119
f  120//120 121//121 130//130
f  120//120 130//130 131//131
f  123//123 120//120 131//131
f  129//129 130//130 121//121
f  123//123 132//132 122//122
f  122//122 132//132 126//126
f  123//123 131//131 133//133
f  134//134 132//132 123//123
f  123//123 133//133 134//134
f  135//135 128//128 124//124
f  124//124 125//125 136//136
f  124//124 136//136 135//135
f  136//136 125//125 126//126
f  132//132 137//137 126//126
f  138//138 136//136 126//126
f  137//137 138//138 126//126
f  128//128 139//139 127//127
f  129//129 127//127 139//139
f  135//135 140//140 128//128
f  140//140 139//139 128//128
f  129//129 139//139 141//141
f  129//129 141//141 142//142
f  129//129 142//142 130//130
f  131//131 130//130 142//142
f  131//131 142//142 143//143
f  143//143 133//133 131//131
f  134//134 137//137 132//132
f  133//133 143//143 140//140
f  133//133 140//140 135//135
f  135//135 138//138 133//133
f  133//133 138//138 137//137
f  133//133 137//137 134//134
f  135//135 136//136 138//138
f  140//140 141//141 139//139
f  143//143 141//141 140//140
f  143//143 142//142 141//141
