#VRML V2.0 utf8

# Produced by 3D Exploration VRML exporter
# http://www.xdsoft.com/explorer/

DEF object0 Transform {
  children [
    Shape {
      appearance Appearance {
        material Material {
          diffuseColor 0.800000 0.800000 0.800000
          emissiveColor 0.000000 0.000000 0.000000
          specularColor 0.400000 0.400000 0.400000
          ambientIntensity 0.200000
          shininess 0.250000
        }
      }
      geometry IndexedFaceSet {
        coord Coordinate { point [
          # points 26
          -0.001598 -0.013863 0.020015, 0.001389 -0.020089 0.018524, 0.00499 -0.017777 0.020707, 0.005957 -0.017407 0.021585, 
          -0.00024 -0.011955 0.015197, 0.001778 -0.009847 0.018798, 0.00088 -0.009039 0.014417, 0.005564 -0.019833 0.020529, 
          0.003077 -0.020337 0.018869, 0.000445 -0.01438 0.015052, 0.007679 -0.015485 0.020354, 0.006104 -0.01415 0.021322, 
          0.002632 -0.012239 0.014533, 0.00629 -0.007898 0.017632, 0.003783 -0.006016 0.0154, 0.00952 -0.017643 0.019444, 
          0.001387 -0.016515 0.014917, 0.008257 -0.018193 0.01728, 0.008244 -0.012134 0.020211, 0.00989 -0.011019 0.020027, 
          0.011157 -0.013918 0.01901, 0.004002 -0.015726 0.014214, 0.006868 -0.013402 0.014273, 0.006124 -0.008733 0.012278, 
          0.008357 -0.008919 0.016628, 0.011029 -0.01393 0.016624]
        }
        creaseAngle 0.610865
        normal Normal { vector [
          # normals 26
          -0.819378 0.01292 0.573107, -0.716706 -0.648203 0.257227, -0.10542 -0.517771 0.848999, 0.076144 -0.270247 0.959775, 
          -0.772783 -0.103843 -0.626117, -0.381446 0.547751 0.744626, -0.738423 0.478079 -0.475575, 0.061979 -0.542195 0.837964, 
          -0.045823 -0.954247 -0.295488, -0.564625 -0.308886 -0.765368, 0.435623 -0.15568 0.886564, 0.129337 0.245695 0.96068, 
          -0.207253 -0.030304 -0.977818, 0.293263 0.789303 0.539443, -0.243556 0.915372 -0.320584, 0.657715 -0.675986 0.332347, 
          -0.312505 -0.470419 -0.825256, 0.489916 -0.711346 -0.503953, 0.167193 0.410569 0.89637, 0.564635 0.436494 0.700471, 
          0.909348 -0.200288 0.364652, 0.115444 -0.334485 -0.935303, 0.364277 -0.13548 -0.921383, 0.369929 0.477143 -0.797174, 
          0.694698 0.713198 -0.093505, 0.824793 -0.051128 -0.563119]
        }
        coordIndex [
          0, 1, 2, -1,3, 0, 2, -1,0, 4, 1, -1,5, 0, 3, -1,6, 4, 0, -1,5, 6, 0, -1,2, 1, 7, -1,
          1, 8, 7, -1,4, 9, 1, -1,1, 9, 8, -1,3, 2, 10, -1,2, 7, 10, -1,11, 5, 3, -1,11, 3, 
          10, -1,9, 4, 12, -1,4, 6, 12, -1,13, 5, 11, -1,14, 6, 5, -1,13, 14, 5, -1,6, 14, 
          12, -1,7, 8, 15, -1,7, 15, 10, -1,9, 16, 8, -1,8, 17, 15, -1,8, 16, 17, -1,16, 9, 
          12, -1,18, 11, 10, -1,19, 18, 10, -1,20, 19, 10, -1,15, 20, 10, -1,18, 13, 11, -1,
          21, 16, 12, -1,22, 21, 12, -1,23, 22, 12, -1,14, 23, 12, -1,24, 13, 18, -1,23, 14, 
          13, -1,24, 23, 13, -1,15, 17, 20, -1,16, 21, 17, -1,17, 25, 20, -1,17, 21, 25, -1,
          19, 24, 18, -1,25, 24, 19, -1,20, 25, 19, -1,21, 22, 25, -1,22, 23, 24, -1,25, 22, 
          24, -1
        ]
        normalPerVertex TRUE
        normalIndex [
          0, 1, 2, -1,3, 0, 2, -1,0, 4, 1, -1,5, 0, 3, -1,6, 4, 0, -1,5, 6, 0, -1,2, 1, 7, -1,
          1, 8, 7, -1,4, 9, 1, -1,1, 9, 8, -1,3, 2, 10, -1,2, 7, 10, -1,11, 5, 3, -1,11, 3, 
          10, -1,9, 4, 12, -1,4, 6, 12, -1,13, 5, 11, -1,14, 6, 5, -1,13, 14, 5, -1,6, 14, 
          12, -1,7, 8, 15, -1,7, 15, 10, -1,9, 16, 8, -1,8, 17, 15, -1,8, 16, 17, -1,16, 9, 
          12, -1,18, 11, 10, -1,19, 18, 10, -1,20, 19, 10, -1,15, 20, 10, -1,18, 13, 11, -1,
          21, 16, 12, -1,22, 21, 12, -1,23, 22, 12, -1,14, 23, 12, -1,24, 13, 18, -1,23, 14, 
          13, -1,24, 23, 13, -1,15, 17, 20, -1,16, 21, 17, -1,17, 25, 20, -1,17, 21, 25, -1,
          19, 24, 18, -1,25, 24, 19, -1,20, 25, 19, -1,21, 22, 25, -1,22, 23, 24, -1,25, 22, 
          24, -1
        ]
      }
    }
  ]
}
DEF object1 Transform {
  children [
    Shape {
      appearance Appearance {
        material Material {
          diffuseColor 0.800000 0.800000 0.800000
          emissiveColor 0.000000 0.000000 0.000000
          specularColor 0.400000 0.400000 0.400000
          ambientIntensity 0.200000
          shininess 0.250000
        }
      }
      geometry IndexedFaceSet {
        coord Coordinate { point [
          # points 42
          0.000867 -0.003635 0.012165, -9.9e-005 -0.006316 0.005362, 0.002602 -0.002676 0.005706, 0.00268 -0.001475 0.009082, 
          -0.00936 -0.006808 0.009909, -0.002364 -0.003356 0.018046, -0.005442 -0.003785 0.013134, 0.001575 -0.000491 0.001372, 
          0.000235 -0.002883 -4.3e-005, -0.012484 -0.00932 0.004495, 0.002821 -0.000663 0.004136, 0.002714 -0.000144 0.003614, 
          0.002768 -0.000504 0.005373, 0.002254 -0.000761 0.011719, -0.011531 -0.00362 0.010419, -0.010098 -0.002875 0.012352, 
          -0.002192 0.00054 0.01808, -0.006957 -0.000601 0.010679, -0.010554 -0.001282 0.012127, 0.001186 0.001912 0.001156, 
          0.002607 0.000375 0.003093, -0.014539 -0.005345 0.001797, -0.001057 0.002876 -4e-006, -0.012865 -0.004807 0.00801, 
          0.002751 0.000512 0.004432, 0.002926 0.000467 0.006024, 0.001696 0.000644 0.012598, -0.012139 -0.002597 0.009506, 
          -0.000663 0.004132 0.012939, -0.007461 0.00249 0.008703, -0.011482 -0.000886 0.0103, 0.000823 0.00409 0.003194, 
          0.002521 0.001382 0.0032, -0.013699 -0.000132 0.00521, -0.01401 -0.004575 0.006135, -0.00079 0.005758 0.004823, 
          0.002984 0.00138 0.005786, 0.002668 0.001805 0.004226, 0.001878 0.002334 0.009149, -0.013997 -0.001782 0.007511, 
          -0.012575 -0.000951 0.009191, -0.008456 0.003832 0.005489]
        }
        creaseAngle 0.610865
        normal Normal { vector [
          # normals 42
          0.56256 -0.75137 0.34492, 0.593047 -0.802069 -0.070574, 0.853313 -0.475056 -0.214891, 0.967079 -0.170192 0.189191, 
          -0.170511 -0.776547 0.606549, 0.249588 -0.538511 0.804806, -0.220834 -0.379844 0.898304, 0.852147 -0.235206 -0.467465, 
          0.443499 -0.332225 -0.832427, -0.424731 -0.898774 0.10867, 0.982378 -0.106529 -0.153574, 0.906535 -0.211732 -0.365189, 
          0.999637 0.011377 0.024434, 0.945475 -0.068265 0.318461, -0.726896 -0.323139 0.605973, -0.572102 -0.233739 0.786171, 
          0.065869 0.399363 0.914423, -0.521734 0.486322 0.700917, -0.450568 0.435079 0.779548, 0.733692 0.259055 -0.628161, 
          0.935488 0.034356 -0.351685, -0.800471 -0.288547 -0.525344, 0.089693 0.570723 -0.816229, -0.808247 -0.379006 0.450656, 
          0.993504 0.027102 -0.110527, 0.998796 -0.026367 0.041369, 0.903191 0.261112 0.340687, -0.811359 -0.066956 0.580701, 
          0.228368 0.875636 0.42557, -0.496508 0.669741 0.552201, -0.534159 0.551945 0.640336, 0.699665 0.653149 -0.289596, 
          0.914081 0.260327 -0.310942, -0.761101 0.53473 -0.367136, -0.925167 -0.235007 0.298056, 0.222446 0.916559 -0.33232, 
          0.979098 0.201362 0.02863, 0.905925 0.405467 -0.12205, 0.788407 0.600295 0.134388, -0.868565 0.263201 0.419904, 
          -0.685497 0.476904 0.550142, -0.511802 0.84375 0.161691]
        }
        coordIndex [
          0, 1, 2, -1,3, 0, 2, -1,0, 4, 1, -1,5, 0, 3, -1,6, 4, 0, -1,5, 6, 0, -1,2, 1, 7, -1,
          1, 8, 7, -1,4, 9, 1, -1,1, 9, 8, -1,3, 2, 10, -1,2, 7, 11, -1,10, 2, 11, -1,12, 3, 
          10, -1,13, 5, 3, -1,13, 3, 12, -1,4, 14, 9, -1,15, 14, 4, -1,6, 15, 4, -1,16, 5, 
          13, -1,17, 6, 5, -1,16, 17, 5, -1,18, 15, 6, -1,17, 18, 6, -1,7, 8, 19, -1,7, 19, 
          20, -1,11, 7, 20, -1,9, 21, 8, -1,8, 22, 19, -1,8, 21, 22, -1,14, 23, 9, -1,9, 23, 
          21, -1,12, 10, 24, -1,10, 11, 24, -1,11, 20, 24, -1,25, 13, 12, -1,25, 12, 24, -1,
          26, 16, 13, -1,26, 13, 25, -1,27, 23, 14, -1,27, 14, 15, -1,27, 15, 18, -1,28, 16, 
          26, -1,29, 17, 16, -1,28, 29, 16, -1,30, 18, 17, -1,29, 30, 17, -1,27, 18, 30, -1,
          19, 22, 31, -1,19, 31, 32, -1,20, 19, 32, -1,20, 32, 24, -1,21, 33, 22, -1,23, 34, 
          21, -1,21, 34, 33, -1,22, 35, 31, -1,22, 33, 35, -1,27, 34, 23, -1,36, 25, 24, -1,
          37, 36, 24, -1,32, 37, 24, -1,36, 26, 25, -1,38, 28, 26, -1,38, 26, 36, -1,27, 39, 
          34, -1,27, 40, 39, -1,27, 30, 40, -1,35, 28, 38, -1,35, 41, 28, -1,41, 29, 28, -1,
          40, 30, 29, -1,41, 40, 29, -1,31, 35, 38, -1,31, 38, 37, -1,32, 31, 37, -1,34, 39, 
          33, -1,33, 41, 35, -1,33, 39, 41, -1,37, 38, 36, -1,39, 40, 41, -1
        ]
        normalPerVertex TRUE
        normalIndex [
          0, 1, 2, -1,3, 0, 2, -1,0, 4, 1, -1,5, 0, 3, -1,6, 4, 0, -1,5, 6, 0, -1,2, 1, 7, -1,
          1, 8, 7, -1,4, 9, 1, -1,1, 9, 8, -1,3, 2, 10, -1,2, 7, 11, -1,10, 2, 11, -1,12, 3, 
          10, -1,13, 5, 3, -1,13, 3, 12, -1,4, 14, 9, -1,15, 14, 4, -1,6, 15, 4, -1,16, 5, 
          13, -1,17, 6, 5, -1,16, 17, 5, -1,18, 15, 6, -1,17, 18, 6, -1,7, 8, 19, -1,7, 19, 
          20, -1,11, 7, 20, -1,9, 21, 8, -1,8, 22, 19, -1,8, 21, 22, -1,14, 23, 9, -1,9, 23, 
          21, -1,12, 10, 24, -1,10, 11, 24, -1,11, 20, 24, -1,25, 13, 12, -1,25, 12, 24, -1,
          26, 16, 13, -1,26, 13, 25, -1,27, 23, 14, -1,27, 14, 15, -1,27, 15, 18, -1,28, 16, 
          26, -1,29, 17, 16, -1,28, 29, 16, -1,30, 18, 17, -1,29, 30, 17, -1,27, 18, 30, -1,
          19, 22, 31, -1,19, 31, 32, -1,20, 19, 32, -1,20, 32, 24, -1,21, 33, 22, -1,23, 34, 
          21, -1,21, 34, 33, -1,22, 35, 31, -1,22, 33, 35, -1,27, 34, 23, -1,36, 25, 24, -1,
          37, 36, 24, -1,32, 37, 24, -1,36, 26, 25, -1,38, 28, 26, -1,38, 26, 36, -1,27, 39, 
          34, -1,27, 40, 39, -1,27, 30, 40, -1,35, 28, 38, -1,35, 41, 28, -1,41, 29, 28, -1,
          40, 30, 29, -1,41, 40, 29, -1,31, 35, 38, -1,31, 38, 37, -1,32, 31, 37, -1,34, 39, 
          33, -1,33, 41, 35, -1,33, 39, 41, -1,37, 38, 36, -1,39, 40, 41, -1
        ]
      }
    }
  ]
}
DEF object2 Transform {
  children [
    Shape {
      appearance Appearance {
        material Material {
          diffuseColor 0.800000 0.800000 0.800000
          emissiveColor 0.000000 0.000000 0.000000
          specularColor 0.400000 0.400000 0.400000
          ambientIntensity 0.200000
          shininess 0.250000
        }
      }
      geometry IndexedFaceSet {
        coord Coordinate { point [
          # points 41
          -0.010368 -0.004687 -0.002672, -0.009717 -0.006354 -0.007261, -0.008361 -0.00742 -0.005205, -0.008849 -0.00594 -0.000489, 
          -0.009353 -0.006419 -0.009349, -0.009393 2e-006 -0.000148, -0.007801 -0.009324 -0.007573, -0.009091 -0.007781 -0.009644, 
          -0.000414 -0.009429 -0.008767, 0.001577 -0.003172 -0.007169, 0.00058 0.0003 -0.001869, -0.003507 0.006369 0.001747, 
          -0.008809 -0.010246 -0.011221, -0.010366 -0.000986 -0.005784, -0.009998 -0.003629 -0.012687, -0.009284 -0.008532 -0.014169, 
          -0.008141 -0.010324 -0.015971, -0.008364 -0.011657 -0.013934, -0.002362 -0.013591 -0.008553, -0.006969 -0.013265 -0.008422, 
          0.000775 -0.01093 -0.010805, 0.001282 -0.0088 -0.011427, 0.001714 -0.002442 -0.008746, 0.001229 0.004957 -0.002015, 
          0.001702 0.001018 -0.004202, -0.007549 0.004479 -0.007057, -0.006264 -0.014827 -0.014795, -0.009762 -0.002114 -0.013843, 
          -0.00633 -0.006054 -0.018306, -0.002353 -0.011454 -0.021383, 0.000922 -0.011455 -0.01179, -0.000783 -0.015146 -0.010582, 
          -4.9e-005 -0.006336 -0.014521, 0.000615 -0.002372 -0.011428, 0.002162 0.001027 -0.0073, 0.002097 0.002381 -0.004573, 
          0.002196 0.002574 -0.008128, 0.000288 -0.010558 -0.021253, -0.000711 -0.001157 -0.013934, -0.001428 -0.005423 -0.016795, 
          0.001826 -0.009822 -0.016144]
        }
        creaseAngle 0.610865
        normal Normal { vector [
          # normals 41
          -0.967362 -0.236171 0.091837, -0.921613 -0.386684 0.033233, -0.305478 -0.810302 0.500094, -0.122977 -0.617034 0.777268, 
          -0.987508 -0.157467 -0.005596, -0.918394 0.123346 0.375949, -0.486052 -0.505641 0.712798, -0.939641 -0.303527 0.157946, 
          0.547249 -0.341132 0.764295, 0.783331 -0.426909 0.45182, 0.782042 -0.267659 0.562822, -0.232555 0.517611 0.823406, 
          -0.932244 -0.344242 0.111439, -0.968895 0.237248 0.070391, -0.997009 0.045685 -0.062332, -0.948344 -0.206345 -0.240968, 
          -0.862226 -0.341728 -0.373883, -0.893023 -0.368176 -0.258759, 0.442859 -0.381634 0.811315, -0.599454 -0.622073 0.503667, 
          0.941106 -0.241037 0.237107, 0.990827 -0.124278 -0.053073, 0.996729 -0.077134 -0.0241, 0.85778 0.444119 0.258787, 
          0.932547 -0.216202 0.28916, -0.523289 0.815702 -0.246574, -0.437385 -0.881776 -0.176537, -0.620863 0.525987 -0.581263, 
          -0.410473 0.347912 -0.842893, -0.411377 -0.191669 -0.891085, 0.940331 -0.117185 0.319445, 0.529898 -0.821074 0.21224, 
          0.936141 0.245248 -0.251977, 0.911767 0.111433 -0.395301, 0.986113 -0.084589 -0.142918, 0.985335 -0.026707 0.168527, 
          0.688927 0.592222 -0.417914, 0.772402 -0.191961 -0.60543, 0.578978 0.452031 -0.678567, 0.535042 0.495206 -0.684472, 
          0.99899 -0.024263 -0.037827]
        }
        coordIndex [
          0, 1, 2, -1,3, 0, 2, -1,4, 1, 0, -1,5, 0, 3, -1,4, 0, 5, -1,2, 1, 6, -1,1, 7, 6, -1,
          4, 7, 1, -1,2, 6, 8, -1,9, 2, 8, -1,3, 2, 9, -1,10, 3, 9, -1,11, 5, 3, -1,11, 3, 
          10, -1,4, 12, 7, -1,4, 5, 13, -1,4, 13, 14, -1,4, 14, 15, -1,4, 15, 16, -1,4, 16, 
          17, -1,4, 17, 12, -1,13, 5, 11, -1,8, 6, 18, -1,6, 19, 18, -1,6, 7, 19, -1,7, 12, 
          19, -1,8, 18, 20, -1,21, 8, 20, -1,9, 8, 21, -1,22, 9, 21, -1,10, 9, 22, -1,23, 11, 
          10, -1,24, 10, 22, -1,23, 10, 24, -1,25, 13, 11, -1,25, 11, 23, -1,19, 12, 26, -1,
          12, 17, 26, -1,14, 13, 25, -1,27, 14, 25, -1,15, 14, 27, -1,28, 15, 27, -1,16, 15, 
          28, -1,29, 16, 28, -1,17, 16, 29, -1,26, 17, 29, -1,20, 18, 30, -1,18, 31, 30, -1,
          18, 19, 31, -1,19, 26, 31, -1,21, 20, 32, -1,32, 20, 30, -1,33, 22, 21, -1,33, 21, 
          32, -1,34, 24, 22, -1,34, 22, 33, -1,35, 23, 24, -1,36, 25, 23, -1,36, 23, 35, -1,
          35, 24, 34, -1,27, 25, 36, -1,31, 26, 37, -1,26, 29, 37, -1,38, 27, 36, -1,28, 27, 
          38, -1,39, 28, 38, -1,29, 28, 39, -1,37, 29, 39, -1,30, 31, 40, -1,32, 30, 40, -1,
          31, 37, 40, -1,32, 39, 33, -1,37, 39, 32, -1,40, 37, 32, -1,33, 38, 34, -1,39, 38, 
          33, -1,34, 36, 35, -1,38, 36, 34, -1
        ]
        normalPerVertex TRUE
        normalIndex [
          0, 1, 2, -1,3, 0, 2, -1,4, 1, 0, -1,5, 0, 3, -1,4, 0, 5, -1,2, 1, 6, -1,1, 7, 6, -1,
          4, 7, 1, -1,2, 6, 8, -1,9, 2, 8, -1,3, 2, 9, -1,10, 3, 9, -1,11, 5, 3, -1,11, 3, 
          10, -1,4, 12, 7, -1,4, 5, 13, -1,4, 13, 14, -1,4, 14, 15, -1,4, 15, 16, -1,4, 16, 
          17, -1,4, 17, 12, -1,13, 5, 11, -1,8, 6, 18, -1,6, 19, 18, -1,6, 7, 19, -1,7, 12, 
          19, -1,8, 18, 20, -1,21, 8, 20, -1,9, 8, 21, -1,22, 9, 21, -1,10, 9, 22, -1,23, 11, 
          10, -1,24, 10, 22, -1,23, 10, 24, -1,25, 13, 11, -1,25, 11, 23, -1,19, 12, 26, -1,
          12, 17, 26, -1,14, 13, 25, -1,27, 14, 25, -1,15, 14, 27, -1,28, 15, 27, -1,16, 15, 
          28, -1,29, 16, 28, -1,17, 16, 29, -1,26, 17, 29, -1,20, 18, 30, -1,18, 31, 30, -1,
          18, 19, 31, -1,19, 26, 31, -1,21, 20, 32, -1,32, 20, 30, -1,33, 22, 21, -1,33, 21, 
          32, -1,34, 24, 22, -1,34, 22, 33, -1,35, 23, 24, -1,36, 25, 23, -1,36, 23, 35, -1,
          35, 24, 34, -1,27, 25, 36, -1,31, 26, 37, -1,26, 29, 37, -1,38, 27, 36, -1,28, 27, 
          38, -1,39, 28, 38, -1,29, 28, 39, -1,37, 29, 39, -1,30, 31, 40, -1,32, 30, 40, -1,
          31, 37, 40, -1,32, 39, 33, -1,37, 39, 32, -1,40, 37, 32, -1,33, 38, 34, -1,39, 38, 
          33, -1,34, 36, 35, -1,38, 36, 34, -1
        ]
      }
    }
  ]
}
DEF Object__0 Transform {
  children [
    Shape {
      appearance Appearance {
        material Material {
          diffuseColor 0.800000 0.800000 0.800000
          emissiveColor 0.000000 0.000000 0.000000
          specularColor 0.400000 0.400000 0.400000
          ambientIntensity 0.200000
          shininess 0.250000
        }
      }
      geometry IndexedFaceSet {
        coord Coordinate { point [
          # points 34
          -0.001721 -0.015703 0.021701, -0.000732 -0.012534 0.021612, -0.002966 -0.012634 0.020903, -0.004485 -0.016957 0.021567, 
          -0.00098 -0.01712 0.019031, -0.002465 -0.018203 0.018471, -0.001041 -0.017808 0.016834, -0.00215 -0.009472 0.021174, 
          -0.000195 -0.008613 0.021316, -0.000778 -0.012704 0.018779, -0.005244 -0.0091 0.021548, -0.004721 -0.006312 0.020791, 
          -0.00518 -0.010712 0.021981, -0.006461 -0.017649 0.019688, 5.6e-005 -0.011341 0.016867, -0.000149 -0.013406 0.014355, 
          -0.003018 -0.012784 0.013772, -0.001718 -0.004845 0.019111, -0.007672 -0.005706 0.019953, -0.000546 -0.009675 0.018101, 
          0.001683 -0.004715 0.020707, -0.00724 -0.009285 0.021181, -0.006584 -0.011742 0.022111, -0.010698 -0.006286 0.013243, 
          -0.009369 -0.013369 0.020454, 0.001746 -0.005936 0.019553, 0.001912 -0.00586 0.015758, 0.000285 -0.008223 0.012524, 
          -0.001481 -0.007476 0.011001, -0.005254 -0.002747 0.01715, -0.010306 -0.006689 0.019466, 0.001757 -0.004276 0.015074, 
          -0.007988 -0.012773 0.02224, -0.010214 -0.011246 0.021355]
        }
        creaseAngle 0.610865
        normal Normal { vector [
          # normals 34
          0.199843 -0.523132 0.82849, 0.551224 -0.06131 0.832102, -0.02465 0.080913 0.996416, 0.195148 -0.365945 0.909946, 
          0.889698 -0.35393 0.288393, -0.014739 -0.976889 -0.21324, 0.547623 -0.836412 0.022895, -0.123008 0.252361 0.959783, 
          0.620143 0.051756 0.78278, 0.987971 -0.056099 0.144104, 0.324744 0.192646 0.925975, 0.060638 0.284357 0.956799, 
          0.082812 0.049385 0.995341, -0.515143 -0.816313 0.261267, 0.953692 -0.216793 0.208499, 0.455076 -0.480636 -0.749597, 
          -0.077636 -0.545561 -0.834467, -0.271046 0.554516 0.786795, -0.13427 0.827556 0.545089, 0.833649 -0.359539 0.419239, 
          0.581716 0.146538 0.800083, -0.189492 0.305159 0.933258, 0.087088 -0.247924 0.964857, -0.778151 0.063699 -0.624838, 
          -0.649648 -0.632922 0.421149, 0.885799 -0.288839 0.363226, 0.957203 -0.071797 -0.280371, 0.7617 -0.222399 -0.608566, 
          0.435672 0.032929 -0.899503, -0.378962 0.901289 0.20992, -0.398221 0.755084 0.520834, 0.703151 0.596112 -0.387593, 
          -0.435669 -0.303433 0.84742, -0.866851 0.060487 0.494884]
        }
        coordIndex [
          0, 1, 2, -1,3, 0, 2, -1,0, 4, 1, -1,5, 0, 3, -1,6, 4, 0, -1,5, 6, 0, -1,2, 1, 7, -1,
          1, 8, 7, -1,4, 9, 1, -1,1, 9, 8, -1,2, 10, 3, -1,11, 10, 2, -1,7, 11, 2, -1,10, 12, 
          3, -1,13, 5, 3, -1,3, 12, 13, -1,9, 4, 14, -1,4, 6, 14, -1,15, 6, 5, -1,16, 15, 5, -1,
          16, 5, 13, -1,6, 15, 14, -1,7, 8, 17, -1,18, 11, 7, -1,17, 18, 7, -1,9, 19, 8, -1,
          8, 20, 17, -1,8, 19, 20, -1,19, 9, 14, -1,21, 12, 10, -1,21, 10, 11, -1,21, 11, 18, -1,
          12, 22, 13, -1,21, 22, 12, -1,23, 16, 13, -1,13, 22, 24, -1,24, 23, 13, -1,25, 19, 
          14, -1,26, 25, 14, -1,27, 26, 14, -1,15, 27, 14, -1,27, 15, 16, -1,28, 27, 16, -1,
          16, 23, 28, -1,17, 20, 29, -1,30, 18, 17, -1,29, 30, 17, -1,21, 18, 30, -1,19, 25, 
          20, -1,20, 31, 29, -1,20, 25, 31, -1,21, 32, 22, -1,21, 30, 33, -1,21, 33, 32, -1,
          22, 32, 24, -1,31, 28, 23, -1,29, 31, 23, -1,23, 33, 29, -1,32, 33, 23, -1,24, 32, 
          23, -1,25, 26, 31, -1,31, 26, 28, -1,26, 27, 28, -1,33, 30, 29, -1
        ]
        normalPerVertex TRUE
        normalIndex [
          0, 1, 2, -1,3, 0, 2, -1,0, 4, 1, -1,5, 0, 3, -1,6, 4, 0, -1,5, 6, 0, -1,2, 1, 7, -1,
          1, 8, 7, -1,4, 9, 1, -1,1, 9, 8, -1,2, 10, 3, -1,11, 10, 2, -1,7, 11, 2, -1,10, 12, 
          3, -1,13, 5, 3, -1,3, 12, 13, -1,9, 4, 14, -1,4, 6, 14, -1,15, 6, 5, -1,16, 15, 5, -1,
          16, 5, 13, -1,6, 15, 14, -1,7, 8, 17, -1,18, 11, 7, -1,17, 18, 7, -1,9, 19, 8, -1,
          8, 20, 17, -1,8, 19, 20, -1,19, 9, 14, -1,21, 12, 10, -1,21, 10, 11, -1,21, 11, 18, -1,
          12, 22, 13, -1,21, 22, 12, -1,23, 16, 13, -1,13, 22, 24, -1,24, 23, 13, -1,25, 19, 
          14, -1,26, 25, 14, -1,27, 26, 14, -1,15, 27, 14, -1,27, 15, 16, -1,28, 27, 16, -1,
          16, 23, 28, -1,17, 20, 29, -1,30, 18, 17, -1,29, 30, 17, -1,21, 18, 30, -1,19, 25, 
          20, -1,20, 31, 29, -1,20, 25, 31, -1,21, 32, 22, -1,21, 30, 33, -1,21, 33, 32, -1,
          22, 32, 24, -1,31, 28, 23, -1,29, 31, 23, -1,23, 33, 29, -1,32, 33, 23, -1,24, 32, 
          23, -1,25, 26, 31, -1,31, 26, 28, -1,26, 27, 28, -1,33, 30, 29, -1
        ]
      }
    }
  ]
}
