#VRML V2.0 utf8 
Transform { 
 children [ 
    Shape { 
appearance Appearance {
              material DEF surface Material {
              diffuseColor 0.8 0.8 0.8
              ambientIntensity 0.2
              specularColor 0.4 0.4 0.4
              emissiveColor 0 0 0
              shininess 0.25
              transparency 0
            }
          }
   geometry IndexedFaceSet { 
   solid FALSE 
    coord DEF bone Coordinate{ 
     point [ 
	  0.003098  -0.223577   0.014145,
	  0.003580  -0.228361   0.011922,
	 -0.000773  -0.227913   0.008387,
	 -0.002402  -0.221244   0.008769,
	  0.007112  -0.225604   0.025287,
	 -0.000010  -0.207573   0.019142,
	  0.005304  -0.228987   0.023202,
	 -0.003244  -0.229724   0.023613,
	 -0.003084  -0.224747   0.008038,
	 -0.008269  -0.225715   0.013303,
	 -0.005106  -0.228079   0.017935,
	 -0.012608  -0.210546   0.015748,
	 -0.005549  -0.208550   0.012849,
	 -0.015059  -0.218536   0.014414,
	  0.002743  -0.209180   0.027303,
	  0.007911  -0.221042   0.035869,
	  0.008336  -0.225253   0.030066,
	 -0.005807  -0.200648   0.014621,
	 -0.000787  -0.199996   0.020542,
	  0.004474  -0.230598   0.036356,
	  0.004742  -0.231211   0.027971,
	 -0.000508  -0.231650   0.027490,
	  0.007379  -0.228054   0.034467,
	 -0.010233  -0.231452   0.025091,
	 -0.012258  -0.228236   0.015202,
	 -0.009691  -0.199679   0.017125,
	 -0.012755  -0.211442   0.022929,
	 -0.016655  -0.219611   0.015552,
	 -0.015468  -0.222710   0.019044,
	  0.001944  -0.199981   0.027150,
	  0.004264  -0.209815   0.034571,
	  0.004173  -0.222428   0.036725,
	 -0.006523  -0.180183   0.016262,
	 -0.001212  -0.180430   0.021412,
	 -0.000981  -0.222889   0.038339,
	  0.002599  -0.236383   0.037847,
	  0.001930  -0.237253   0.033256,
	  0.003256  -0.237156   0.034256,
	 -0.004297  -0.233823   0.032359,
	 -0.011311  -0.229883   0.030183,
	 -0.011420  -0.230805   0.026054,
	 -0.015417  -0.228319   0.017926,
	 -0.017964  -0.225608   0.015280,
	 -0.016943  -0.223046   0.015080,
	 -0.011001  -0.201060   0.025338,
	 -0.008555  -0.180614   0.023809,
	 -0.012714  -0.212590   0.027258,
	 -0.013306  -0.225792   0.023147,
	  0.001398  -0.180470   0.027513,
	  0.002324  -0.200759   0.033112,
	  0.000423  -0.200942   0.035249,
	  0.001829  -0.210846   0.036642,
	 -0.005555  -0.145832   0.022050,
	 -0.003795  -0.145769   0.017548,
	 -0.002274  -0.146014   0.019200,
	 -0.002353  -0.212809   0.036562,
	 -0.004188  -0.224249   0.036729,
	 -0.000329  -0.235988   0.038359,
	 -0.001301  -0.237550   0.035410,
	  0.000897  -0.238377   0.035675,
	 -0.005248  -0.232265   0.034630,
	 -0.009078  -0.231030   0.032584,
	 -0.012136  -0.224989   0.029079,
	 -0.012823  -0.228036   0.032471,
	 -0.011005  -0.201862   0.030566,
	 -0.008623  -0.180870   0.029346,
	 -0.006780  -0.144536   0.026953,
	 -0.014202  -0.222354   0.031339,
	 -0.012546  -0.212481   0.031104,
	  0.001802  -0.145409   0.024571,
	  0.001466  -0.180634   0.032124,
	 -0.001450  -0.181272   0.034582,
	 -0.003491  -0.201018   0.035739,
	 -0.006928  -0.118673   0.023821,
	 -0.005555  -0.119686   0.019121,
	 -0.003522  -0.119847   0.014237,
	 -0.001750  -0.119931   0.017906,
	 -0.008433  -0.225948   0.033925,
	 -0.008821  -0.201932   0.033225,
	 -0.007778  -0.213861   0.034729,
	 -0.012162  -0.228216   0.033609,
	 -0.011619  -0.223761   0.033849,
	 -0.010306  -0.213375   0.033480,
	 -0.006909  -0.181276   0.033822,
	 -0.005560  -0.143569   0.031920,
	 -0.006573  -0.118346   0.029981,
	  0.001824  -0.118919   0.022268,
	  0.002077  -0.145105   0.028792,
	 -0.001406  -0.143679   0.032766,
	 -0.006423  -0.086447   0.024384,
	 -0.007464  -0.087526   0.015651,
	 -0.006782  -0.087615   0.012205,
	 -0.004129  -0.086703   0.008602,
	 -0.000702  -0.086274   0.012533,
	 -0.001394  -0.117454   0.030499,
	  0.002185  -0.085437   0.017364,
	  0.002478  -0.118833   0.026962,
	 -0.001432  -0.084536   0.025237,
	  0.000424  -0.061986   0.019439,
	 -0.006446  -0.064007   0.018398,
	 -0.007870  -0.065966   0.011187,
	 -0.006937  -0.066284   0.008218,
	 -0.003263  -0.065456   0.004582,
	  0.000998  -0.064820   0.006383,
	  0.002711  -0.085158   0.021533,
	  0.005175  -0.064803   0.011250,
	  0.005968  -0.063913   0.014185,
	  0.009217  -0.045843   0.008608,
	  0.001049  -0.040612   0.014388,
	 -0.006519  -0.041873   0.011868,
	 -0.007574  -0.043180   0.006206,
	 -0.006247  -0.044904   0.002471,
	 -0.001381  -0.046455  -0.000224,
	  0.003472  -0.046958   0.001023,
	  0.008273  -0.047206   0.004141,
	  0.010471  -0.039430   0.007731,
	 -0.006321  -0.030441   0.008422,
	  0.002529  -0.030819   0.011403,
	  0.011922  -0.033066   0.006545,
	 -0.007467  -0.031709   0.003123,
	 -0.006666  -0.033023  -0.001099,
	 -0.002150  -0.035891  -0.003802,
	  0.004808  -0.031506  -0.002912,
	  0.009847  -0.040809   0.001296,
	  0.011764  -0.040307   0.003445,
	  0.013149  -0.033972   0.002012,
	  0.002303  -0.021391   0.009171,
	 -0.005140  -0.021458   0.007018,
	  0.009690  -0.023111   0.005853,
	  0.012242  -0.028388   0.002346,
	 -0.007225  -0.023211   0.001721,
	 -0.001421  -0.030614  -0.005476,
	 -0.005600  -0.024678  -0.003260,
	  0.009797  -0.031683  -0.001208,
	 -0.000945  -0.025298  -0.004922,
	  0.003534  -0.025331  -0.004190,
	  0.009003  -0.024511  -0.000828,
	  0.008013  -0.017874   0.005356,
	  0.001116  -0.016703   0.008615,
	 -0.005025  -0.016854   0.005993,
	  0.007838  -0.018909  -0.000429,
	 -0.007564  -0.018311   0.000936,
	 -0.005858  -0.018421  -0.003714,
	 -0.000577  -0.019275  -0.004974,
	  0.003206  -0.019482  -0.003764,
	  0.007352  -0.009837  -0.001458,
	  0.006582  -0.008818   0.005926,
	  0.000620  -0.007887   0.007619,
	 -0.005627  -0.007712   0.005650,
	  0.003793  -0.010332  -0.005891,
	 -0.008773  -0.006056   0.000104,
	 -0.006626  -0.006402  -0.005425,
	 -0.000300  -0.009624  -0.007363,
	  0.005138  -0.007206  -0.007727,
	  0.009854  -0.006194  -0.003115,
	  0.008422  -0.004291   0.006761,
	  0.001256  -0.003619   0.010166,
	 -0.007525  -0.001141   0.008104,
	 -0.010950  -0.001560  -0.000156,
	 -0.000269  -0.006185  -0.009164,
	 -0.008107  -0.001338  -0.007657,
	  0.000194  -0.001157  -0.010735,
	  0.006813  -0.001627  -0.008872,
	  0.011437  -0.001794  -0.003276,
	  0.008462   0.001320   0.005502,
	  0.000995   0.002482   0.008645,
	 -0.006362   0.003201   0.007369,
	 -0.009217   0.002030  -0.000841,
	 -0.007427   0.001748  -0.008004,
	  0.000410   0.001398  -0.007320,
	  0.004947   0.001144  -0.006299,
	  0.008152   0.002096  -0.002377,
	  0.007100   0.002216   0.004108,
	  0.000011   0.000030  -0.000004,
	 -0.002987   0.001938  -0.005976,
     ]    } 
    coordIndex [ 
	     0,      1,      2, -1 
	     0,      2,      3, -1 
	     4,      1,      0, -1 
	     5,      4,      0, -1 
	     0,      3,      5, -1 
	     4,      6,      1, -1 
	     7,      1,      6, -1 
	     2,      1,      7, -1 
	     2,      8,      3, -1 
	     2,      9,      8, -1 
	     9,      2,     10, -1 
	     2,      7,     10, -1 
	     3,     11,     12, -1 
	     3,     13,     11, -1 
	     8,     13,      3, -1 
	     3,     12,      5, -1 
	     5,     14,      4, -1 
	    15,     16,      4, -1 
	     6,      4,     16, -1 
	    15,      4,     14, -1 
	    17,      5,     12, -1 
	    17,     18,      5, -1 
	    18,     14,      5, -1 
	    19,     20,      6, -1 
	    20,     21,      6, -1 
	    16,     22,      6, -1 
	    19,      6,     22, -1 
	     7,      6,     21, -1 
	     7,     23,     24, -1 
	     7,     24,     10, -1 
	    21,     23,      7, -1 
	     8,      9,     13, -1 
	    24,     13,      9, -1 
	     9,     10,     24, -1 
	    12,     11,     25, -1 
	    25,     11,     26, -1 
	    11,     27,     28, -1 
	    13,     27,     11, -1 
	    11,     28,     26, -1 
	    12,     25,     17, -1 
	    24,     27,     13, -1 
	    18,     29,     14, -1 
	    30,     14,     29, -1 
	    15,     14,     30, -1 
	    16,     15,     22, -1 
	    19,     22,     15, -1 
	    30,     31,     15, -1 
	    19,     15,     31, -1 
	    17,     25,     32, -1 
	    32,     18,     17, -1 
	    32,     33,     18, -1 
	    33,     29,     18, -1 
	    19,     31,     34, -1 
	    34,     35,     19, -1 
	    20,     19,     35, -1 
	    36,     21,     20, -1 
	    37,     20,     35, -1 
	    36,     20,     37, -1 
	    21,     38,     23, -1 
	    21,     36,     38, -1 
	    39,     23,     38, -1 
	    23,     40,     41, -1 
	    23,     39,     40, -1 
	    23,     41,     24, -1 
	    24,     41,     42, -1 
	    24,     43,     27, -1 
	    42,     43,     24, -1 
	    25,     44,     45, -1 
	    25,     26,     44, -1 
	    25,     45,     32, -1 
	    26,     46,     44, -1 
	    28,     47,     26, -1 
	    47,     46,     26, -1 
	    27,     43,     41, -1 
	    27,     41,     28, -1 
	    41,     47,     28, -1 
	    33,     48,     29, -1 
	    49,     29,     48, -1 
	    30,     29,     49, -1 
	    30,     49,     50, -1 
	    30,     51,     31, -1 
	    30,     50,     51, -1 
	    34,     31,     51, -1 
	    32,     45,     52, -1 
	    53,     33,     32, -1 
	    32,     52,     53, -1 
	    53,     54,     33, -1 
	    54,     48,     33, -1 
	    55,     56,     34, -1 
	    34,     57,     35, -1 
	    34,     51,     55, -1 
	    56,     57,     34, -1 
	    35,     57,     58, -1 
	    35,     58,     59, -1 
	    36,     35,     59, -1 
	    36,     37,     35, -1 
	    36,     58,     38, -1 
	    36,     59,     58, -1 
	    38,     58,     57, -1 
	    38,     60,     61, -1 
	    38,     57,     60, -1 
	    39,     38,     61, -1 
	    62,     39,     63, -1 
	    40,     39,     62, -1 
	    61,     63,     39, -1 
	    41,     40,     47, -1 
	    40,     62,     47, -1 
	    43,     42,     41, -1 
	    45,     44,     64, -1 
	    46,     64,     44, -1 
	    45,     65,     66, -1 
	    45,     64,     65, -1 
	    45,     66,     52, -1 
	    67,     46,     62, -1 
	    68,     46,     67, -1 
	    46,     68,     64, -1 
	    47,     62,     46, -1 
	    54,     69,     48, -1 
	    70,     48,     69, -1 
	    49,     48,     70, -1 
	    70,     50,     49, -1 
	    70,     71,     50, -1 
	    72,     50,     71, -1 
	    51,     50,     72, -1 
	    51,     72,     55, -1 
	    52,     66,     73, -1 
	    74,     53,     52, -1 
	    52,     73,     74, -1 
	    74,     75,     53, -1 
	    75,     54,     53, -1 
	    75,     76,     54, -1 
	    76,     69,     54, -1 
	    77,     56,     55, -1 
	    55,     72,     78, -1 
	    77,     55,     79, -1 
	    55,     78,     79, -1 
	    56,     60,     57, -1 
	    61,     60,     56, -1 
	    61,     56,     77, -1 
	    61,     80,     63, -1 
	    77,     80,     61, -1 
	    62,     63,     67, -1 
	    63,     80,     81, -1 
	    63,     81,     67, -1 
	    64,     68,     82, -1 
	    83,     65,     64, -1 
	    64,     82,     78, -1 
	    83,     64,     78, -1 
	    84,     66,     65, -1 
	    84,     65,     83, -1 
	    85,     73,     66, -1 
	    85,     66,     84, -1 
	    67,     81,     82, -1 
	    67,     82,     68, -1 
	    76,     86,     69, -1 
	    87,     69,     86, -1 
	    70,     69,     87, -1 
	    87,     71,     70, -1 
	    83,     71,     88, -1 
	    78,     71,     83, -1 
	    78,     72,     71, -1 
	    87,     88,     71, -1 
	    89,     90,     73, -1 
	    91,     74,     73, -1 
	    89,     73,     85, -1 
	    91,     73,     90, -1 
	    91,     75,     74, -1 
	    91,     92,     75, -1 
	    92,     76,     75, -1 
	    92,     93,     76, -1 
	    93,     86,     76, -1 
	    77,     81,     80, -1 
	    79,     81,     77, -1 
	    78,     82,     79, -1 
	    79,     82,     81, -1 
	    83,     88,     84, -1 
	    94,     85,     84, -1 
	    94,     84,     88, -1 
	    89,     85,     94, -1 
	    93,     95,     86, -1 
	    96,     86,     95, -1 
	    87,     86,     96, -1 
	    96,     88,     87, -1 
	    96,     94,     88, -1 
	    89,     97,     98, -1 
	    99,     90,     89, -1 
	    89,     98,     99, -1 
	    89,     94,     97, -1 
	    91,     90,    100, -1 
	    99,    100,     90, -1 
	   101,     92,     91, -1 
	    91,    100,    101, -1 
	    92,    101,    102, -1 
	   102,     93,     92, -1 
	   102,    103,     93, -1 
	   103,     95,     93, -1 
	   104,     97,     94, -1 
	   104,     94,     96, -1 
	    96,     95,    104, -1 
	   104,     95,    105, -1 
	   103,    105,     95, -1 
	   106,     98,     97, -1 
	   106,     97,    104, -1 
	   107,    108,     98, -1 
	    99,     98,    108, -1 
	    98,    106,    107, -1 
	   109,    100,     99, -1 
	    99,    108,    109, -1 
	   101,    100,    110, -1 
	   109,    110,    100, -1 
	   101,    110,    111, -1 
	   101,    111,    102, -1 
	   112,    103,    102, -1 
	   102,    111,    112, -1 
	   112,    113,    103, -1 
	   113,    105,    103, -1 
	   104,    105,    106, -1 
	   106,    105,    114, -1 
	   113,    114,    105, -1 
	   106,    114,    107, -1 
	   115,    108,    107, -1 
	   107,    114,    115, -1 
	   116,    108,    117, -1 
	   118,    117,    108, -1 
	   116,    109,    108, -1 
	   118,    108,    115, -1 
	   116,    110,    109, -1 
	   111,    110,    119, -1 
	   116,    119,    110, -1 
	   112,    111,    120, -1 
	   111,    119,    120, -1 
	   121,    113,    112, -1 
	   112,    120,    121, -1 
	   121,    122,    113, -1 
	   123,    114,    113, -1 
	   122,    123,    113, -1 
	   114,    123,    124, -1 
	   124,    115,    114, -1 
	   125,    118,    115, -1 
	   125,    115,    124, -1 
	   116,    117,    126, -1 
	   127,    119,    116, -1 
	   116,    126,    127, -1 
	   128,    117,    118, -1 
	   128,    126,    117, -1 
	   129,    128,    118, -1 
	   129,    118,    125, -1 
	   120,    119,    130, -1 
	   127,    130,    119, -1 
	   131,    120,    132, -1 
	   121,    120,    131, -1 
	   120,    130,    132, -1 
	   131,    122,    121, -1 
	   122,    133,    123, -1 
	   131,    134,    122, -1 
	   122,    134,    135, -1 
	   135,    133,    122, -1 
	   123,    133,    125, -1 
	   124,    123,    125, -1 
	   125,    133,    136, -1 
	   125,    136,    129, -1 
	   137,    126,    128, -1 
	   137,    138,    126, -1 
	   127,    126,    138, -1 
	   139,    130,    127, -1 
	   127,    138,    139, -1 
	   128,    136,    140, -1 
	   129,    136,    128, -1 
	   128,    140,    137, -1 
	   132,    130,    141, -1 
	   139,    141,    130, -1 
	   131,    132,    134, -1 
	   134,    132,    142, -1 
	   132,    141,    142, -1 
	   135,    136,    133, -1 
	   134,    143,    144, -1 
	   134,    144,    135, -1 
	   134,    142,    143, -1 
	   144,    136,    135, -1 
	   144,    140,    136, -1 
	   137,    140,    145, -1 
	   137,    145,    146, -1 
	   146,    138,    137, -1 
	   146,    147,    138, -1 
	   139,    138,    147, -1 
	   148,    141,    139, -1 
	   139,    147,    148, -1 
	   149,    145,    140, -1 
	   149,    140,    144, -1 
	   142,    141,    150, -1 
	   148,    150,    141, -1 
	   151,    143,    142, -1 
	   142,    150,    151, -1 
	   151,    152,    143, -1 
	   152,    144,    143, -1 
	   152,    149,    144, -1 
	   153,    145,    149, -1 
	   153,    154,    145, -1 
	   146,    145,    154, -1 
	   146,    154,    155, -1 
	   155,    147,    146, -1 
	   155,    156,    147, -1 
	   148,    147,    156, -1 
	   148,    157,    158, -1 
	   148,    156,    157, -1 
	   148,    158,    150, -1 
	   159,    153,    149, -1 
	   159,    149,    152, -1 
	   151,    150,    158, -1 
	   160,    152,    151, -1 
	   151,    158,    160, -1 
	   160,    159,    152, -1 
	   161,    153,    159, -1 
	   161,    162,    153, -1 
	   162,    154,    153, -1 
	   162,    163,    154, -1 
	   155,    154,    163, -1 
	   155,    163,    164, -1 
	   164,    156,    155, -1 
	   164,    165,    156, -1 
	   157,    156,    165, -1 
	   166,    158,    157, -1 
	   157,    165,    166, -1 
	   158,    167,    168, -1 
	   166,    167,    158, -1 
	   158,    168,    160, -1 
	   161,    159,    160, -1 
	   160,    168,    161, -1 
	   169,    162,    161, -1 
	   168,    169,    161, -1 
	   169,    170,    162, -1 
	   170,    163,    162, -1 
	   164,    163,    171, -1 
	   170,    171,    163, -1 
	   172,    165,    164, -1 
	   164,    171,    172, -1 
	   173,    165,    172, -1 
	   166,    165,    173, -1 
	   167,    166,    173, -1 
	   174,    168,    167, -1 
	   174,    167,    173, -1 
	   168,    174,    169, -1 
	   174,    170,    169, -1 
	   173,    171,    170, -1 
	   174,    173,    170, -1 
	   173,    172,    171, -1 
    ] 
   colorPerVertex FALSE 
    colorIndex [ 
	  1, 
	  1, 
	  1, 
	  1, 
	  1, 
	  1, 
	  1, 
	  1, 
	  1, 
	  1, 
	  1, 
	  1, 
	  1, 
	  1, 
	  1, 
	  1, 
	  1, 
	  1, 
	  1, 
	  1, 
	  1, 
	  1, 
	  1, 
	  1, 
	  1, 
	  1, 
	  1, 
	  1, 
	  1, 
	  1, 
	  1, 
	  1, 
	  1, 
	  1, 
	  1, 
	  1, 
	  1, 
	  1, 
	  1, 
	  1, 
	  1, 
	  1, 
	  1, 
	  1, 
	  1, 
	  1, 
	  1, 
	  1, 
	  1, 
	  1, 
	  1, 
	  1, 
	  1, 
	  1, 
	  1, 
	  1, 
	  1, 
	  1, 
	  1, 
	  1, 
	  1, 
	  1, 
	  1, 
	  1, 
	  1, 
	  1, 
	  1, 
	  1, 
	  1, 
	  1, 
	  1, 
	  1, 
	  1, 
	  1, 
	  1, 
	  1, 
	  1, 
	  1, 
	  1, 
	  1, 
	  1, 
	  1, 
	  1, 
	  1, 
	  1, 
	  1, 
	  1, 
	  1, 
	  1, 
	  1, 
	  1, 
	  1, 
	  1, 
	  1, 
	  1, 
	  1, 
	  1, 
	  1, 
	  1, 
	  1, 
	  1, 
	  1, 
	  1, 
	  1, 
	  1, 
	  1, 
	  1, 
	  1, 
	  1, 
	  1, 
	  1, 
	  1, 
	  1, 
	  1, 
	  1, 
	  1, 
	  1, 
	  1, 
	  1, 
	  1, 
	  1, 
	  1, 
	  1, 
	  1, 
	  1, 
	  1, 
	  1, 
	  1, 
	  1, 
	  1, 
	  1, 
	  1, 
	  1, 
	  1, 
	  1, 
	  1, 
	  1, 
	  1, 
	  1, 
	  1, 
	  1, 
	  1, 
	  1, 
	  1, 
	  1, 
	  1, 
	  1, 
	  1, 
	  1, 
	  1, 
	  1, 
	  1, 
	  1, 
	  1, 
	  1, 
	  1, 
	  1, 
	  1, 
	  1, 
	  1, 
	  1, 
	  1, 
	  1, 
	  1, 
	  1, 
	  1, 
	  1, 
	  1, 
	  1, 
	  1, 
	  1, 
	  1, 
	  1, 
	  1, 
	  1, 
    ] 
normal Normal { 
vector [ 
	  0.803193   0.292875  -0.518754,
	  0.751754  -0.525137  -0.398871,
	  0.084231  -0.601086  -0.794733,
	  0.224182   0.293350  -0.929348,
	  0.962587   0.111177  -0.247114,
	  0.828330   0.258831  -0.496866,
	  0.663365  -0.718005  -0.210750,
	  0.031183  -0.956476  -0.290142,
	 -0.347445  -0.163166  -0.923395,
	 -0.373239  -0.633858  -0.677433,
	 -0.089825  -0.940757  -0.326969,
	 -0.811944   0.319849  -0.488307,
	  0.012020   0.275912  -0.961108,
	 -0.491889  -0.000192  -0.870658,
	  0.949142   0.191983  -0.249545,
	  0.896572   0.154943   0.414911,
	  0.983377  -0.138685  -0.117200,
	  0.303713   0.171653  -0.937173,
	  0.847506   0.098996  -0.521472,
	  0.737530  -0.245088   0.629270,
	  0.758452  -0.583046  -0.291219,
	  0.023954  -0.853707  -0.520202,
	  0.878445  -0.434690   0.198441,
	 -0.185807  -0.967337  -0.172438,
	 -0.098590  -0.634665  -0.766472,
	 -0.852363   0.183575  -0.489671,
	 -0.984592   0.156401   0.078214,
	 -0.941195   0.133050  -0.310565,
	 -0.928545   0.093116   0.359352,
	  0.966454   0.077457  -0.244881,
	  0.849462   0.225285   0.477139,
	  0.326111   0.059677   0.943446,
	 -0.307390   0.111599  -0.945017,
	  0.830199   0.012038  -0.557336,
	  0.030551   0.054792   0.998030,
	  0.509204  -0.587085   0.629319,
	  0.060176  -0.889113  -0.453714,
	  0.621314  -0.780076  -0.073822,
	 -0.515028  -0.855903  -0.046660,
	 -0.711629  -0.700466   0.054151,
	 -0.832235  -0.516778   0.200811,
	 -0.864599  -0.425278   0.267594,
	 -0.733190  -0.452749  -0.507396,
	 -0.857522   0.227339  -0.461489,
	 -0.988727   0.145725  -0.034396,
	 -0.986756   0.097108  -0.129937,
	 -0.996543   0.076324  -0.032829,
	 -0.952977  -0.060783   0.296883,
	  0.967429   0.005980  -0.253073,
	  0.956491   0.128910   0.261740,
	  0.509961   0.140419   0.848659,
	  0.255985   0.134327   0.957302,
	 -0.956095   0.020381  -0.292348,
	 -0.192849  -0.042094  -0.980325,
	  0.820291  -0.043347  -0.570302,
	 -0.331340   0.070443   0.940878,
	 -0.529969  -0.042838   0.846935,
	 -0.503094  -0.409330   0.761147,
	 -0.460766  -0.873485   0.157221,
	  0.092341  -0.986426   0.135785,
	 -0.633759  -0.491832   0.597035,
	 -0.515645  -0.625930   0.585083,
	 -0.967938  -0.187300  -0.167374,
	 -0.901914  -0.398807   0.165842,
	 -0.939580   0.126388   0.318144,
	 -0.978370   0.082031   0.189905,
	 -0.999743   0.022333   0.003909,
	 -0.970235  -0.007674   0.242045,
	 -0.903152   0.156161   0.399912,
	  0.938354  -0.035406  -0.343857,
	  0.920400   0.040068   0.388920,
	  0.229823   0.056651   0.971582,
	 -0.139654   0.079598   0.986996,
	 -0.993995  -0.028297  -0.105702,
	 -0.940804  -0.064224  -0.332812,
	 -0.034860  -0.157281  -0.986939,
	  0.823589  -0.074862  -0.562225,
	 -0.248077  -0.082669   0.965206,
	 -0.488465   0.064224   0.870217,
	 -0.317879   0.028763   0.947695,
	 -0.448562  -0.307070   0.839345,
	 -0.496032   0.023887   0.867976,
	 -0.621539   0.110838   0.775503,
	 -0.581834   0.059903   0.811098,
	 -0.665595   0.060685   0.743842,
	 -0.808077   0.060320   0.585980,
	  0.931889  -0.055495  -0.358474,
	  0.943136   0.013131   0.332149,
	  0.317248   0.060083   0.946437,
	 -0.672148   0.157909   0.723383,
	 -0.999895  -0.012561   0.007173,
	 -0.925125  -0.092200  -0.368298,
	  0.040123  -0.182997  -0.982294,
	  0.752528  -0.165019  -0.637550,
	  0.221141   0.122919   0.967464,
	  0.930274  -0.139269  -0.339403,
	  0.948925   0.023105   0.314655,
	  0.354652   0.181589   0.917195,
	  0.256513   0.211194   0.943185,
	 -0.740520   0.168109   0.650668,
	 -0.999121  -0.008757  -0.040992,
	 -0.857584  -0.097044  -0.505105,
	 -0.063728  -0.236247  -0.969601,
	  0.579672  -0.283765  -0.763844,
	  0.943487  -0.007456   0.331326,
	  0.850607  -0.283348  -0.442923,
	  0.949041  -0.059469   0.309490,
	  0.886767  -0.040187   0.460466,
	  0.152066   0.204421   0.966999,
	 -0.832259   0.162149   0.530145,
	 -0.997922   0.000309  -0.064436,
	 -0.817292  -0.142658  -0.558285,
	 -0.155916  -0.292390  -0.943503,
	  0.390592  -0.331913  -0.858645,
	  0.859903  -0.371133  -0.350468,
	  0.882659  -0.160379   0.441805,
	 -0.686075   0.211048   0.696247,
	  0.176953   0.238648   0.954848,
	  0.787085   0.105454   0.607764,
	 -0.999648   0.024367   0.010491,
	 -0.803377  -0.137677  -0.579336,
	 -0.088000  -0.300335  -0.949766,
	  0.296750  -0.192230  -0.935407,
	  0.539179  -0.325367  -0.776802,
	  0.924512  -0.354667  -0.139603,
	  0.951109  -0.063597  -0.302235,
	  0.085164   0.196891   0.976719,
	 -0.712196   0.145329   0.686772,
	  0.849370   0.316613   0.422288,
	  0.954512   0.290886  -0.065512,
	 -0.997993   0.020411   0.059951,
	 -0.179755  -0.098880  -0.978729,
	 -0.750492  -0.040167  -0.659658,
	  0.507314  -0.076382  -0.858369,
	  0.017247  -0.000541  -0.999851,
	  0.338570  -0.005052  -0.940928,
	  0.746202   0.211828  -0.631119,
	  0.838073   0.186728   0.512607,
	  0.018986   0.123668   0.992142,
	 -0.686605   0.067454   0.723895,
	  0.886973   0.088559  -0.453251,
	 -0.994718  -0.067979   0.076913,
	 -0.678004  -0.096588  -0.728684,
	 -0.058790  -0.130897  -0.989651,
	  0.397060  -0.054657  -0.916164,
	  0.920995  -0.290388  -0.259698,
	  0.737483  -0.178899   0.651241,
	 -0.023949  -0.186731   0.982119,
	 -0.682940  -0.270351   0.678604,
	  0.477257  -0.363431  -0.800090,
	 -0.970210  -0.239958  -0.033357,
	 -0.681928  -0.322599  -0.656433,
	 -0.082062  -0.363030  -0.928157,
	  0.447424  -0.470747  -0.760400,
	  0.862553  -0.458188  -0.214629,
	  0.727667  -0.243271   0.641342,
	  0.078754  -0.138060   0.987288,
	 -0.558084  -0.014289   0.829662,
	 -0.999016  -0.042067   0.014050,
	 -0.043143  -0.413591  -0.909440,
	 -0.611637  -0.256822  -0.748293,
	  0.013035   0.143872  -0.989510,
	  0.539201   0.280487  -0.794097,
	  0.927485   0.297128  -0.226907,
	  0.658421   0.572770   0.488279,
	  0.084809   0.800231   0.593665,
	 -0.447758   0.838855   0.309573,
	 -0.340232   0.940250  -0.013101,
	 -0.447267   0.722686  -0.526951,
	  0.134546   0.876894  -0.461469,
	  0.224687   0.928034  -0.297099,
	  0.303638   0.943084  -0.135633,
	  0.098652   0.994960   0.017945,
	 -0.000015   0.998434  -0.055942,
	  0.087509   0.996148   0.005648,
     ]    } 
normalIndex      [ 
	     0,      1,      2, -1 
	     0,      2,      3, -1 
	     4,      1,      0, -1 
	     5,      4,      0, -1 
	     0,      3,      5, -1 
	     4,      6,      1, -1 
	     7,      1,      6, -1 
	     2,      1,      7, -1 
	     2,      8,      3, -1 
	     2,      9,      8, -1 
	     9,      2,     10, -1 
	     2,      7,     10, -1 
	     3,     11,     12, -1 
	     3,     13,     11, -1 
	     8,     13,      3, -1 
	     3,     12,      5, -1 
	     5,     14,      4, -1 
	    15,     16,      4, -1 
	     6,      4,     16, -1 
	    15,      4,     14, -1 
	    17,      5,     12, -1 
	    17,     18,      5, -1 
	    18,     14,      5, -1 
	    19,     20,      6, -1 
	    20,     21,      6, -1 
	    16,     22,      6, -1 
	    19,      6,     22, -1 
	     7,      6,     21, -1 
	     7,     23,     24, -1 
	     7,     24,     10, -1 
	    21,     23,      7, -1 
	     8,      9,     13, -1 
	    24,     13,      9, -1 
	     9,     10,     24, -1 
	    12,     11,     25, -1 
	    25,     11,     26, -1 
	    11,     27,     28, -1 
	    13,     27,     11, -1 
	    11,     28,     26, -1 
	    12,     25,     17, -1 
	    24,     27,     13, -1 
	    18,     29,     14, -1 
	    30,     14,     29, -1 
	    15,     14,     30, -1 
	    16,     15,     22, -1 
	    19,     22,     15, -1 
	    30,     31,     15, -1 
	    19,     15,     31, -1 
	    17,     25,     32, -1 
	    32,     18,     17, -1 
	    32,     33,     18, -1 
	    33,     29,     18, -1 
	    19,     31,     34, -1 
	    34,     35,     19, -1 
	    20,     19,     35, -1 
	    36,     21,     20, -1 
	    37,     20,     35, -1 
	    36,     20,     37, -1 
	    21,     38,     23, -1 
	    21,     36,     38, -1 
	    39,     23,     38, -1 
	    23,     40,     41, -1 
	    23,     39,     40, -1 
	    23,     41,     24, -1 
	    24,     41,     42, -1 
	    24,     43,     27, -1 
	    42,     43,     24, -1 
	    25,     44,     45, -1 
	    25,     26,     44, -1 
	    25,     45,     32, -1 
	    26,     46,     44, -1 
	    28,     47,     26, -1 
	    47,     46,     26, -1 
	    27,     43,     41, -1 
	    27,     41,     28, -1 
	    41,     47,     28, -1 
	    33,     48,     29, -1 
	    49,     29,     48, -1 
	    30,     29,     49, -1 
	    30,     49,     50, -1 
	    30,     51,     31, -1 
	    30,     50,     51, -1 
	    34,     31,     51, -1 
	    32,     45,     52, -1 
	    53,     33,     32, -1 
	    32,     52,     53, -1 
	    53,     54,     33, -1 
	    54,     48,     33, -1 
	    55,     56,     34, -1 
	    34,     57,     35, -1 
	    34,     51,     55, -1 
	    56,     57,     34, -1 
	    35,     57,     58, -1 
	    35,     58,     59, -1 
	    36,     35,     59, -1 
	    36,     37,     35, -1 
	    36,     58,     38, -1 
	    36,     59,     58, -1 
	    38,     58,     57, -1 
	    38,     60,     61, -1 
	    38,     57,     60, -1 
	    39,     38,     61, -1 
	    62,     39,     63, -1 
	    40,     39,     62, -1 
	    61,     63,     39, -1 
	    41,     40,     47, -1 
	    40,     62,     47, -1 
	    43,     42,     41, -1 
	    45,     44,     64, -1 
	    46,     64,     44, -1 
	    45,     65,     66, -1 
	    45,     64,     65, -1 
	    45,     66,     52, -1 
	    67,     46,     62, -1 
	    68,     46,     67, -1 
	    46,     68,     64, -1 
	    47,     62,     46, -1 
	    54,     69,     48, -1 
	    70,     48,     69, -1 
	    49,     48,     70, -1 
	    70,     50,     49, -1 
	    70,     71,     50, -1 
	    72,     50,     71, -1 
	    51,     50,     72, -1 
	    51,     72,     55, -1 
	    52,     66,     73, -1 
	    74,     53,     52, -1 
	    52,     73,     74, -1 
	    74,     75,     53, -1 
	    75,     54,     53, -1 
	    75,     76,     54, -1 
	    76,     69,     54, -1 
	    77,     56,     55, -1 
	    55,     72,     78, -1 
	    77,     55,     79, -1 
	    55,     78,     79, -1 
	    56,     60,     57, -1 
	    61,     60,     56, -1 
	    61,     56,     77, -1 
	    61,     80,     63, -1 
	    77,     80,     61, -1 
	    62,     63,     67, -1 
	    63,     80,     81, -1 
	    63,     81,     67, -1 
	    64,     68,     82, -1 
	    83,     65,     64, -1 
	    64,     82,     78, -1 
	    83,     64,     78, -1 
	    84,     66,     65, -1 
	    84,     65,     83, -1 
	    85,     73,     66, -1 
	    85,     66,     84, -1 
	    67,     81,     82, -1 
	    67,     82,     68, -1 
	    76,     86,     69, -1 
	    87,     69,     86, -1 
	    70,     69,     87, -1 
	    87,     71,     70, -1 
	    83,     71,     88, -1 
	    78,     71,     83, -1 
	    78,     72,     71, -1 
	    87,     88,     71, -1 
	    89,     90,     73, -1 
	    91,     74,     73, -1 
	    89,     73,     85, -1 
	    91,     73,     90, -1 
	    91,     75,     74, -1 
	    91,     92,     75, -1 
	    92,     76,     75, -1 
	    92,     93,     76, -1 
	    93,     86,     76, -1 
	    77,     81,     80, -1 
	    79,     81,     77, -1 
	    78,     82,     79, -1 
	    79,     82,     81, -1 
	    83,     88,     84, -1 
	    94,     85,     84, -1 
	    94,     84,     88, -1 
	    89,     85,     94, -1 
	    93,     95,     86, -1 
	    96,     86,     95, -1 
	    87,     86,     96, -1 
	    96,     88,     87, -1 
	    96,     94,     88, -1 
	    89,     97,     98, -1 
	    99,     90,     89, -1 
	    89,     98,     99, -1 
	    89,     94,     97, -1 
	    91,     90,    100, -1 
	    99,    100,     90, -1 
	   101,     92,     91, -1 
	    91,    100,    101, -1 
	    92,    101,    102, -1 
	   102,     93,     92, -1 
	   102,    103,     93, -1 
	   103,     95,     93, -1 
	   104,     97,     94, -1 
	   104,     94,     96, -1 
	    96,     95,    104, -1 
	   104,     95,    105, -1 
	   103,    105,     95, -1 
	   106,     98,     97, -1 
	   106,     97,    104, -1 
	   107,    108,     98, -1 
	    99,     98,    108, -1 
	    98,    106,    107, -1 
	   109,    100,     99, -1 
	    99,    108,    109, -1 
	   101,    100,    110, -1 
	   109,    110,    100, -1 
	   101,    110,    111, -1 
	   101,    111,    102, -1 
	   112,    103,    102, -1 
	   102,    111,    112, -1 
	   112,    113,    103, -1 
	   113,    105,    103, -1 
	   104,    105,    106, -1 
	   106,    105,    114, -1 
	   113,    114,    105, -1 
	   106,    114,    107, -1 
	   115,    108,    107, -1 
	   107,    114,    115, -1 
	   116,    108,    117, -1 
	   118,    117,    108, -1 
	   116,    109,    108, -1 
	   118,    108,    115, -1 
	   116,    110,    109, -1 
	   111,    110,    119, -1 
	   116,    119,    110, -1 
	   112,    111,    120, -1 
	   111,    119,    120, -1 
	   121,    113,    112, -1 
	   112,    120,    121, -1 
	   121,    122,    113, -1 
	   123,    114,    113, -1 
	   122,    123,    113, -1 
	   114,    123,    124, -1 
	   124,    115,    114, -1 
	   125,    118,    115, -1 
	   125,    115,    124, -1 
	   116,    117,    126, -1 
	   127,    119,    116, -1 
	   116,    126,    127, -1 
	   128,    117,    118, -1 
	   128,    126,    117, -1 
	   129,    128,    118, -1 
	   129,    118,    125, -1 
	   120,    119,    130, -1 
	   127,    130,    119, -1 
	   131,    120,    132, -1 
	   121,    120,    131, -1 
	   120,    130,    132, -1 
	   131,    122,    121, -1 
	   122,    133,    123, -1 
	   131,    134,    122, -1 
	   122,    134,    135, -1 
	   135,    133,    122, -1 
	   123,    133,    125, -1 
	   124,    123,    125, -1 
	   125,    133,    136, -1 
	   125,    136,    129, -1 
	   137,    126,    128, -1 
	   137,    138,    126, -1 
	   127,    126,    138, -1 
	   139,    130,    127, -1 
	   127,    138,    139, -1 
	   128,    136,    140, -1 
	   129,    136,    128, -1 
	   128,    140,    137, -1 
	   132,    130,    141, -1 
	   139,    141,    130, -1 
	   131,    132,    134, -1 
	   134,    132,    142, -1 
	   132,    141,    142, -1 
	   135,    136,    133, -1 
	   134,    143,    144, -1 
	   134,    144,    135, -1 
	   134,    142,    143, -1 
	   144,    136,    135, -1 
	   144,    140,    136, -1 
	   137,    140,    145, -1 
	   137,    145,    146, -1 
	   146,    138,    137, -1 
	   146,    147,    138, -1 
	   139,    138,    147, -1 
	   148,    141,    139, -1 
	   139,    147,    148, -1 
	   149,    145,    140, -1 
	   149,    140,    144, -1 
	   142,    141,    150, -1 
	   148,    150,    141, -1 
	   151,    143,    142, -1 
	   142,    150,    151, -1 
	   151,    152,    143, -1 
	   152,    144,    143, -1 
	   152,    149,    144, -1 
	   153,    145,    149, -1 
	   153,    154,    145, -1 
	   146,    145,    154, -1 
	   146,    154,    155, -1 
	   155,    147,    146, -1 
	   155,    156,    147, -1 
	   148,    147,    156, -1 
	   148,    157,    158, -1 
	   148,    156,    157, -1 
	   148,    158,    150, -1 
	   159,    153,    149, -1 
	   159,    149,    152, -1 
	   151,    150,    158, -1 
	   160,    152,    151, -1 
	   151,    158,    160, -1 
	   160,    159,    152, -1 
	   161,    153,    159, -1 
	   161,    162,    153, -1 
	   162,    154,    153, -1 
	   162,    163,    154, -1 
	   155,    154,    163, -1 
	   155,    163,    164, -1 
	   164,    156,    155, -1 
	   164,    165,    156, -1 
	   157,    156,    165, -1 
	   166,    158,    157, -1 
	   157,    165,    166, -1 
	   158,    167,    168, -1 
	   166,    167,    158, -1 
	   158,    168,    160, -1 
	   161,    159,    160, -1 
	   160,    168,    161, -1 
	   169,    162,    161, -1 
	   168,    169,    161, -1 
	   169,    170,    162, -1 
	   170,    163,    162, -1 
	   164,    163,    171, -1 
	   170,    171,    163, -1 
	   172,    165,    164, -1 
	   164,    171,    172, -1 
	   173,    165,    172, -1 
	   166,    165,    173, -1 
	   167,    166,    173, -1 
	   174,    168,    167, -1 
	   174,    167,    173, -1 
	   168,    174,    169, -1 
	   174,    170,    169, -1 
	   173,    171,    170, -1 
	   174,    173,    170, -1 
	   173,    172,    171, -1 
    ] 
normalPerVertex  TRUE 
   } 
  } 
 ] 
} 
