#VRML V2.0 utf8 
Transform { 
 children [ 
    Shape { 
appearance Appearance {
              material DEF surface Material {
              diffuseColor 0.8 0.8 0.8
              ambientIntensity 0.2
              specularColor 0.4 0.4 0.4
              emissiveColor 0 0 0
              shininess 0.25
              transparency 0
            }
          }
   geometry IndexedFaceSet { 
   solid FALSE 
    coord DEF bone Coordinate{ 
     point [ 
	 -0.000773  -0.227913  -0.008387,
	  0.003580  -0.228361  -0.011922,
	  0.003098  -0.223577  -0.014145,
	 -0.002402  -0.221244  -0.008769,
	 -0.003244  -0.229724  -0.023613,
	 -0.003084  -0.224747  -0.008038,
	 -0.008269  -0.225715  -0.013303,
	 -0.005106  -0.228079  -0.017935,
	  0.007112  -0.225604  -0.025287,
	  0.005304  -0.228987  -0.023202,
	 -0.000010  -0.207573  -0.019142,
	 -0.005549  -0.208550  -0.012849,
	 -0.012608  -0.210546  -0.015748,
	 -0.015059  -0.218536  -0.014414,
	 -0.000508  -0.231650  -0.027490,
	 -0.012258  -0.228236  -0.015202,
	 -0.010233  -0.231452  -0.025091,
	  0.002743  -0.209180  -0.027303,
	  0.008336  -0.225253  -0.030066,
	  0.007911  -0.221042  -0.035869,
	  0.004742  -0.231211  -0.027971,
	  0.004474  -0.230598  -0.036356,
	  0.007379  -0.228054  -0.034467,
	 -0.005807  -0.200648  -0.014621,
	 -0.000787  -0.199996  -0.020542,
	 -0.009691  -0.199679  -0.017125,
	 -0.012755  -0.211442  -0.022929,
	 -0.015468  -0.222710  -0.019044,
	 -0.016655  -0.219611  -0.015552,
	  0.001930  -0.237253  -0.033256,
	 -0.004297  -0.233823  -0.032359,
	 -0.015417  -0.228319  -0.017926,
	 -0.017964  -0.225608  -0.015280,
	 -0.016943  -0.223046  -0.015080,
	 -0.011311  -0.229883  -0.030183,
	 -0.011420  -0.230805  -0.026054,
	  0.001944  -0.199981  -0.027150,
	  0.004264  -0.209815  -0.034571,
	  0.004173  -0.222428  -0.036725,
	  0.002599  -0.236383  -0.037847,
	  0.003256  -0.237156  -0.034256,
	 -0.000981  -0.222889  -0.038339,
	 -0.006523  -0.180183  -0.016262,
	 -0.001212  -0.180430  -0.021412,
	 -0.008555  -0.180614  -0.023809,
	 -0.011001  -0.201060  -0.025338,
	 -0.012714  -0.212590  -0.027258,
	 -0.013306  -0.225792  -0.023147,
	  0.000897  -0.238377  -0.035675,
	 -0.001301  -0.237550  -0.035410,
	 -0.000329  -0.235988  -0.038359,
	 -0.009078  -0.231030  -0.032584,
	 -0.005248  -0.232265  -0.034630,
	 -0.012823  -0.228036  -0.032471,
	 -0.012136  -0.224989  -0.029079,
	  0.001398  -0.180470  -0.027513,
	  0.002324  -0.200759  -0.033112,
	  0.000423  -0.200942  -0.035249,
	  0.001829  -0.210846  -0.036642,
	 -0.004188  -0.224249  -0.036729,
	 -0.002353  -0.212809  -0.036562,
	 -0.005555  -0.145832  -0.022050,
	 -0.003795  -0.145769  -0.017548,
	 -0.002274  -0.146014  -0.019200,
	 -0.011005  -0.201862  -0.030566,
	 -0.006780  -0.144536  -0.026953,
	 -0.008623  -0.180870  -0.029346,
	 -0.014202  -0.222354  -0.031339,
	 -0.012546  -0.212481  -0.031104,
	 -0.008433  -0.225948  -0.033925,
	 -0.012162  -0.228216  -0.033609,
	 -0.011619  -0.223761  -0.033849,
	  0.001802  -0.145409  -0.024571,
	  0.001466  -0.180634  -0.032124,
	 -0.001450  -0.181272  -0.034582,
	 -0.003491  -0.201018  -0.035739,
	 -0.008821  -0.201932  -0.033225,
	 -0.007778  -0.213861  -0.034729,
	 -0.006928  -0.118673  -0.023821,
	 -0.005555  -0.119686  -0.019121,
	 -0.003522  -0.119847  -0.014237,
	 -0.001750  -0.119931  -0.017906,
	 -0.010306  -0.213375  -0.033480,
	 -0.006909  -0.181276  -0.033822,
	 -0.005560  -0.143569  -0.031920,
	 -0.006573  -0.118346  -0.029981,
	  0.001824  -0.118919  -0.022268,
	  0.002077  -0.145105  -0.028792,
	 -0.001406  -0.143679  -0.032766,
	 -0.007464  -0.087526  -0.015651,
	 -0.006423  -0.086447  -0.024384,
	 -0.006782  -0.087615  -0.012205,
	 -0.004129  -0.086703  -0.008602,
	 -0.000702  -0.086274  -0.012533,
	 -0.001394  -0.117454  -0.030499,
	  0.002185  -0.085437  -0.017364,
	  0.002478  -0.118833  -0.026962,
	 -0.006446  -0.064007  -0.018398,
	 -0.007870  -0.065966  -0.011187,
	  0.000424  -0.061986  -0.019439,
	 -0.001432  -0.084536  -0.025237,
	 -0.006937  -0.066284  -0.008218,
	 -0.003263  -0.065456  -0.004582,
	  0.000998  -0.064820  -0.006383,
	  0.002711  -0.085158  -0.021533,
	  0.005175  -0.064803  -0.011250,
	  0.001049  -0.040612  -0.014388,
	 -0.006519  -0.041873  -0.011868,
	 -0.007574  -0.043180  -0.006206,
	  0.005968  -0.063913  -0.014185,
	  0.009217  -0.045843  -0.008608,
	 -0.006247  -0.044904  -0.002471,
	 -0.001381  -0.046455   0.000224,
	  0.003472  -0.046958  -0.001023,
	  0.008273  -0.047206  -0.004141,
	  0.010471  -0.039430  -0.007731,
	  0.002529  -0.030819  -0.011403,
	 -0.006321  -0.030441  -0.008422,
	  0.011922  -0.033066  -0.006545,
	 -0.007467  -0.031709  -0.003123,
	 -0.006666  -0.033023   0.001099,
	 -0.002150  -0.035891   0.003802,
	  0.004808  -0.031506   0.002912,
	  0.009847  -0.040809  -0.001296,
	  0.011764  -0.040307  -0.003445,
	  0.013149  -0.033972  -0.002012,
	  0.002303  -0.021391  -0.009171,
	  0.009690  -0.023111  -0.005853,
	 -0.005140  -0.021458  -0.007018,
	  0.012242  -0.028388  -0.002346,
	 -0.007225  -0.023211  -0.001721,
	 -0.005600  -0.024678   0.003260,
	 -0.001421  -0.030614   0.005476,
	  0.009797  -0.031683   0.001208,
	 -0.000945  -0.025298   0.004922,
	  0.003534  -0.025331   0.004190,
	  0.009003  -0.024511   0.000828,
	  0.008013  -0.017874  -0.005356,
	  0.001116  -0.016703  -0.008615,
	  0.007838  -0.018909   0.000429,
	 -0.005025  -0.016854  -0.005993,
	 -0.007564  -0.018311  -0.000936,
	 -0.005858  -0.018421   0.003714,
	  0.003206  -0.019482   0.003764,
	 -0.000577  -0.019275   0.004974,
	  0.007352  -0.009837   0.001458,
	  0.006582  -0.008818  -0.005926,
	  0.000620  -0.007887  -0.007619,
	  0.003793  -0.010332   0.005891,
	 -0.005627  -0.007712  -0.005650,
	 -0.008773  -0.006056  -0.000104,
	 -0.006626  -0.006402   0.005425,
	 -0.000300  -0.009624   0.007363,
	  0.005138  -0.007206   0.007727,
	  0.009854  -0.006194   0.003115,
	  0.008422  -0.004291  -0.006761,
	  0.001256  -0.003619  -0.010166,
	 -0.000269  -0.006185   0.009164,
	 -0.010950  -0.001560   0.000156,
	 -0.007525  -0.001141  -0.008104,
	 -0.008107  -0.001338   0.007657,
	  0.000194  -0.001157   0.010735,
	  0.006813  -0.001627   0.008872,
	  0.011437  -0.001794   0.003276,
	  0.008462   0.001320  -0.005502,
	  0.000995   0.002482  -0.008645,
	 -0.006362   0.003201  -0.007369,
	 -0.007427   0.001748   0.008004,
	 -0.009217   0.002030   0.000841,
	  0.000410   0.001398   0.007320,
	  0.004947   0.001144   0.006299,
	  0.008152   0.002096   0.002377,
	  0.007100   0.002216  -0.004108,
	  0.000011   0.000030   0.000004,
	 -0.002987   0.001938   0.005976,
     ]    } 
    coordIndex [ 
	     0,      1,      2, -1 
	     3,      0,      2, -1 
	     4,      1,      0, -1 
	     3,      5,      0, -1 
	     5,      6,      0, -1 
	     7,      0,      6, -1 
	     7,      4,      0, -1 
	     2,      1,      8, -1 
	     1,      9,      8, -1 
	     9,      1,      4, -1 
	     2,      8,     10, -1 
	    10,      3,      2, -1 
	    11,     12,      3, -1 
	    12,     13,      3, -1 
	     3,     13,      5, -1 
	    10,     11,      3, -1 
	    14,      9,      4, -1 
	    15,     16,      4, -1 
	     7,     15,      4, -1 
	     4,     16,     14, -1 
	    13,      6,      5, -1 
	     6,     13,     15, -1 
	    15,      7,      6, -1 
	     8,     17,     10, -1 
	     8,     18,     19, -1 
	    18,      8,      9, -1 
	    17,      8,     19, -1 
	     9,     20,     21, -1 
	     9,     14,     20, -1 
	     9,     22,     18, -1 
	    22,      9,     21, -1 
	    11,     10,     23, -1 
	    10,     24,     23, -1 
	    10,     17,     24, -1 
	    25,     12,     11, -1 
	    23,     25,     11, -1 
	    26,     12,     25, -1 
	    27,     28,     12, -1 
	    12,     28,     13, -1 
	    26,     27,     12, -1 
	    13,     28,     15, -1 
	    20,     14,     29, -1 
	    16,     30,     14, -1 
	    30,     29,     14, -1 
	    15,     31,     16, -1 
	    32,     31,     15, -1 
	    28,     33,     15, -1 
	    15,     33,     32, -1 
	    30,     16,     34, -1 
	    31,     35,     16, -1 
	    35,     34,     16, -1 
	    17,     36,     24, -1 
	    36,     17,     37, -1 
	    37,     17,     19, -1 
	    22,     19,     18, -1 
	    19,     22,     21, -1 
	    19,     38,     37, -1 
	    38,     19,     21, -1 
	    39,     21,     20, -1 
	    39,     20,     40, -1 
	    40,     20,     29, -1 
	    41,     38,     21, -1 
	    21,     39,     41, -1 
	    42,     25,     23, -1 
	    23,     24,     42, -1 
	    24,     43,     42, -1 
	    24,     36,     43, -1 
	    44,     45,     25, -1 
	    45,     26,     25, -1 
	    42,     44,     25, -1 
	    45,     46,     26, -1 
	    26,     47,     27, -1 
	    26,     46,     47, -1 
	    27,     31,     28, -1 
	    27,     47,     31, -1 
	    31,     33,     28, -1 
	    48,     39,     29, -1 
	    39,     40,     29, -1 
	    30,     49,     29, -1 
	    49,     48,     29, -1 
	    50,     49,     30, -1 
	    51,     52,     30, -1 
	    52,     50,     30, -1 
	    51,     30,     34, -1 
	    47,     35,     31, -1 
	    31,     32,     33, -1 
	    53,     34,     54, -1 
	    54,     34,     35, -1 
	    34,     53,     51, -1 
	    47,     54,     35, -1 
	    36,     55,     43, -1 
	    55,     36,     56, -1 
	    56,     36,     37, -1 
	    57,     56,     37, -1 
	    38,     58,     37, -1 
	    58,     57,     37, -1 
	    58,     38,     41, -1 
	    39,     50,     41, -1 
	    49,     50,     39, -1 
	    48,     49,     39, -1 
	    41,     59,     60, -1 
	    60,     58,     41, -1 
	    41,     50,     59, -1 
	    61,     44,     42, -1 
	    42,     43,     62, -1 
	    62,     61,     42, -1 
	    43,     63,     62, -1 
	    43,     55,     63, -1 
	    64,     45,     44, -1 
	    65,     66,     44, -1 
	    66,     64,     44, -1 
	    61,     65,     44, -1 
	    45,     64,     46, -1 
	    54,     46,     67, -1 
	    67,     46,     68, -1 
	    64,     68,     46, -1 
	    46,     54,     47, -1 
	    50,     52,     59, -1 
	    59,     52,     51, -1 
	    69,     59,     51, -1 
	    53,     70,     51, -1 
	    51,     70,     69, -1 
	    67,     53,     54, -1 
	    71,     70,     53, -1 
	    67,     71,     53, -1 
	    55,     72,     63, -1 
	    72,     55,     73, -1 
	    73,     55,     56, -1 
	    56,     57,     73, -1 
	    57,     74,     73, -1 
	    74,     57,     75, -1 
	    75,     57,     58, -1 
	    60,     75,     58, -1 
	    60,     59,     69, -1 
	    76,     75,     60, -1 
	    77,     60,     69, -1 
	    77,     76,     60, -1 
	    78,     65,     61, -1 
	    61,     62,     79, -1 
	    79,     78,     61, -1 
	    62,     80,     79, -1 
	    62,     63,     80, -1 
	    63,     81,     80, -1 
	    63,     72,     81, -1 
	    82,     68,     64, -1 
	    64,     66,     83, -1 
	    76,     82,     64, -1 
	    76,     64,     83, -1 
	    66,     65,     84, -1 
	    65,     78,     85, -1 
	    84,     65,     85, -1 
	    83,     66,     84, -1 
	    82,     71,     67, -1 
	    68,     82,     67, -1 
	    70,     71,     69, -1 
	    69,     71,     77, -1 
	    71,     82,     77, -1 
	    72,     86,     81, -1 
	    86,     72,     87, -1 
	    87,     72,     73, -1 
	    73,     74,     87, -1 
	    88,     74,     83, -1 
	    83,     74,     76, -1 
	    74,     75,     76, -1 
	    74,     88,     87, -1 
	    77,     82,     76, -1 
	    78,     89,     90, -1 
	    78,     79,     91, -1 
	    85,     78,     90, -1 
	    89,     78,     91, -1 
	    79,     80,     91, -1 
	    80,     92,     91, -1 
	    80,     81,     92, -1 
	    81,     93,     92, -1 
	    81,     86,     93, -1 
	    84,     88,     83, -1 
	    84,     85,     94, -1 
	    88,     84,     94, -1 
	    94,     85,     90, -1 
	    86,     95,     93, -1 
	    95,     86,     96, -1 
	    96,     86,     87, -1 
	    87,     88,     96, -1 
	    88,     94,     96, -1 
	    90,     89,     97, -1 
	    98,     89,     91, -1 
	    89,     98,     97, -1 
	    99,    100,     90, -1 
	    97,     99,     90, -1 
	   100,     94,     90, -1 
	    91,     92,    101, -1 
	   101,     98,     91, -1 
	   102,    101,     92, -1 
	    92,     93,    102, -1 
	    93,    103,    102, -1 
	    93,     95,    103, -1 
	    94,    100,    104, -1 
	    96,     94,    104, -1 
	   104,     95,     96, -1 
	   105,     95,    104, -1 
	    95,    105,    103, -1 
	   106,     99,     97, -1 
	    97,     98,    107, -1 
	   107,    106,     97, -1 
	   108,     98,    101, -1 
	    98,    108,    107, -1 
	   100,     99,    109, -1 
	    99,    106,    110, -1 
	   110,    109,     99, -1 
	   104,    100,    109, -1 
	   111,    108,    101, -1 
	   102,    111,    101, -1 
	   102,    103,    112, -1 
	   112,    111,    102, -1 
	   103,    113,    112, -1 
	   103,    105,    113, -1 
	   109,    105,    104, -1 
	   114,    105,    109, -1 
	   105,    114,    113, -1 
	   110,    106,    115, -1 
	   116,    106,    117, -1 
	   106,    116,    118, -1 
	   106,    107,    117, -1 
	   115,    106,    118, -1 
	   107,    108,    117, -1 
	   119,    108,    111, -1 
	   108,    119,    117, -1 
	   110,    114,    109, -1 
	   115,    114,    110, -1 
	   120,    111,    112, -1 
	   120,    119,    111, -1 
	   112,    113,    121, -1 
	   121,    120,    112, -1 
	   113,    122,    121, -1 
	   113,    114,    123, -1 
	   113,    123,    122, -1 
	   124,    123,    114, -1 
	   114,    115,    124, -1 
	   115,    118,    125, -1 
	   124,    115,    125, -1 
	   126,    116,    117, -1 
	   118,    116,    127, -1 
	   116,    126,    127, -1 
	   117,    119,    128, -1 
	   128,    126,    117, -1 
	   118,    127,    129, -1 
	   125,    118,    129, -1 
	   130,    119,    120, -1 
	   119,    130,    128, -1 
	   131,    120,    132, -1 
	   132,    120,    121, -1 
	   131,    130,    120, -1 
	   121,    122,    132, -1 
	   123,    133,    122, -1 
	   122,    134,    132, -1 
	   135,    134,    122, -1 
	   122,    133,    135, -1 
	   125,    133,    123, -1 
	   125,    123,    124, -1 
	   136,    133,    125, -1 
	   129,    136,    125, -1 
	   127,    126,    137, -1 
	   126,    138,    137, -1 
	   138,    126,    128, -1 
	   139,    136,    127, -1 
	   127,    136,    129, -1 
	   137,    139,    127, -1 
	   128,    130,    140, -1 
	   140,    138,    128, -1 
	   141,    130,    131, -1 
	   130,    141,    140, -1 
	   134,    131,    132, -1 
	   142,    131,    134, -1 
	   142,    141,    131, -1 
	   133,    136,    135, -1 
	   143,    144,    134, -1 
	   135,    143,    134, -1 
	   144,    142,    134, -1 
	   135,    136,    143, -1 
	   136,    139,    143, -1 
	   145,    139,    137, -1 
	   146,    145,    137, -1 
	   137,    138,    146, -1 
	   138,    147,    146, -1 
	   147,    138,    140, -1 
	   139,    145,    148, -1 
	   143,    139,    148, -1 
	   140,    141,    149, -1 
	   149,    147,    140, -1 
	   150,    141,    142, -1 
	   141,    150,    149, -1 
	   142,    144,    151, -1 
	   151,    150,    142, -1 
	   144,    143,    152, -1 
	   143,    148,    152, -1 
	   144,    152,    151, -1 
	   148,    145,    153, -1 
	   145,    154,    153, -1 
	   154,    145,    146, -1 
	   155,    154,    146, -1 
	   146,    147,    155, -1 
	   147,    156,    155, -1 
	   156,    147,    149, -1 
	   148,    153,    157, -1 
	   152,    148,    157, -1 
	   158,    159,    149, -1 
	   159,    156,    149, -1 
	   150,    158,    149, -1 
	   158,    150,    151, -1 
	   151,    152,    160, -1 
	   160,    158,    151, -1 
	   152,    157,    160, -1 
	   157,    153,    161, -1 
	   153,    162,    161, -1 
	   153,    154,    162, -1 
	   154,    163,    162, -1 
	   163,    154,    155, -1 
	   164,    163,    155, -1 
	   155,    156,    164, -1 
	   156,    165,    164, -1 
	   165,    156,    159, -1 
	   160,    157,    161, -1 
	   159,    158,    166, -1 
	   167,    168,    158, -1 
	   158,    168,    166, -1 
	   160,    167,    158, -1 
	   166,    165,    159, -1 
	   161,    167,    160, -1 
	   161,    162,    169, -1 
	   161,    169,    167, -1 
	   162,    170,    169, -1 
	   162,    163,    170, -1 
	   171,    163,    164, -1 
	   163,    171,    170, -1 
	   164,    165,    172, -1 
	   172,    171,    164, -1 
	   172,    165,    173, -1 
	   173,    165,    166, -1 
	   173,    166,    168, -1 
	   168,    167,    174, -1 
	   169,    174,    167, -1 
	   173,    168,    174, -1 
	   169,    170,    174, -1 
	   170,    171,    173, -1 
	   170,    173,    174, -1 
	   171,    172,    173, -1 
    ] 
   colorPerVertex FALSE 
    colorIndex [ 
	  1, 
	  1, 
	  1, 
	  1, 
	  1, 
	  1, 
	  1, 
	  1, 
	  1, 
	  1, 
	  1, 
	  1, 
	  1, 
	  1, 
	  1, 
	  1, 
	  1, 
	  1, 
	  1, 
	  1, 
	  1, 
	  1, 
	  1, 
	  1, 
	  1, 
	  1, 
	  1, 
	  1, 
	  1, 
	  1, 
	  1, 
	  1, 
	  1, 
	  1, 
	  1, 
	  1, 
	  1, 
	  1, 
	  1, 
	  1, 
	  1, 
	  1, 
	  1, 
	  1, 
	  1, 
	  1, 
	  1, 
	  1, 
	  1, 
	  1, 
	  1, 
	  1, 
	  1, 
	  1, 
	  1, 
	  1, 
	  1, 
	  1, 
	  1, 
	  1, 
	  1, 
	  1, 
	  1, 
	  1, 
	  1, 
	  1, 
	  1, 
	  1, 
	  1, 
	  1, 
	  1, 
	  1, 
	  1, 
	  1, 
	  1, 
	  1, 
	  1, 
	  1, 
	  1, 
	  1, 
	  1, 
	  1, 
	  1, 
	  1, 
	  1, 
	  1, 
	  1, 
	  1, 
	  1, 
	  1, 
	  1, 
	  1, 
	  1, 
	  1, 
	  1, 
	  1, 
	  1, 
	  1, 
	  1, 
	  1, 
	  1, 
	  1, 
	  1, 
	  1, 
	  1, 
	  1, 
	  1, 
	  1, 
	  1, 
	  1, 
	  1, 
	  1, 
	  1, 
	  1, 
	  1, 
	  1, 
	  1, 
	  1, 
	  1, 
	  1, 
	  1, 
	  1, 
	  1, 
	  1, 
	  1, 
	  1, 
	  1, 
	  1, 
	  1, 
	  1, 
	  1, 
	  1, 
	  1, 
	  1, 
	  1, 
	  1, 
	  1, 
	  1, 
	  1, 
	  1, 
	  1, 
	  1, 
	  1, 
	  1, 
	  1, 
	  1, 
	  1, 
	  1, 
	  1, 
	  1, 
	  1, 
	  1, 
	  1, 
	  1, 
	  1, 
	  1, 
	  1, 
	  1, 
	  1, 
	  1, 
	  1, 
	  1, 
	  1, 
	  1, 
	  1, 
	  1, 
	  1, 
	  1, 
	  1, 
	  1, 
	  1, 
	  1, 
	  1, 
	  1, 
	  1, 
    ] 
normal Normal { 
vector [ 
	  0.084231  -0.601086   0.794733,
	  0.751754  -0.525137   0.398871,
	  0.803193   0.292875   0.518754,
	  0.224182   0.293350   0.929348,
	  0.031183  -0.956476   0.290142,
	 -0.347445  -0.163166   0.923395,
	 -0.373239  -0.633858   0.677433,
	 -0.089825  -0.940757   0.326969,
	  0.962587   0.111177   0.247114,
	  0.663365  -0.718005   0.210750,
	  0.828330   0.258831   0.496866,
	  0.012020   0.275912   0.961108,
	 -0.811944   0.319849   0.488307,
	 -0.491889  -0.000192   0.870658,
	  0.023954  -0.853707   0.520202,
	 -0.098590  -0.634665   0.766472,
	 -0.185807  -0.967337   0.172438,
	  0.949142   0.191983   0.249545,
	  0.983377  -0.138685   0.117200,
	  0.896572   0.154943  -0.414911,
	  0.758452  -0.583046   0.291219,
	  0.737530  -0.245088  -0.629270,
	  0.878445  -0.434690  -0.198441,
	  0.303713   0.171653   0.937173,
	  0.847506   0.098996   0.521472,
	 -0.852363   0.183575   0.489671,
	 -0.984592   0.156401  -0.078214,
	 -0.928545   0.093116  -0.359352,
	 -0.941195   0.133050   0.310565,
	  0.060176  -0.889113   0.453714,
	 -0.515028  -0.855903   0.046660,
	 -0.864599  -0.425278  -0.267594,
	 -0.733190  -0.452749   0.507396,
	 -0.857522   0.227339   0.461489,
	 -0.711629  -0.700466  -0.054151,
	 -0.832235  -0.516778  -0.200811,
	  0.966454   0.077457   0.244881,
	  0.849462   0.225285  -0.477139,
	  0.326111   0.059677  -0.943446,
	  0.509204  -0.587085  -0.629319,
	  0.621314  -0.780076   0.073822,
	  0.030551   0.054792  -0.998030,
	 -0.307390   0.111599   0.945017,
	  0.830199   0.012038   0.557336,
	 -0.986756   0.097108   0.129937,
	 -0.988727   0.145725   0.034396,
	 -0.996543   0.076324   0.032829,
	 -0.952977  -0.060783  -0.296883,
	  0.092341  -0.986426  -0.135785,
	 -0.460766  -0.873485  -0.157221,
	 -0.503094  -0.409330  -0.761147,
	 -0.515645  -0.625930  -0.585083,
	 -0.633759  -0.491832  -0.597035,
	 -0.901914  -0.398807  -0.165842,
	 -0.967938  -0.187300   0.167374,
	  0.967429   0.005980   0.253073,
	  0.956491   0.128910  -0.261740,
	  0.509961   0.140419  -0.848659,
	  0.255985   0.134327  -0.957302,
	 -0.529969  -0.042838  -0.846935,
	 -0.331340   0.070443  -0.940878,
	 -0.956095   0.020381   0.292348,
	 -0.192849  -0.042094   0.980325,
	  0.820291  -0.043347   0.570302,
	 -0.939580   0.126388  -0.318144,
	 -0.999743   0.022333  -0.003909,
	 -0.978370   0.082031  -0.189905,
	 -0.970235  -0.007674  -0.242045,
	 -0.903152   0.156161  -0.399912,
	 -0.248077  -0.082669  -0.965206,
	 -0.448562  -0.307070  -0.839345,
	 -0.496032   0.023887  -0.867976,
	  0.938354  -0.035406   0.343857,
	  0.920400   0.040068  -0.388920,
	  0.229823   0.056651  -0.971582,
	 -0.139654   0.079598  -0.986996,
	 -0.488465   0.064224  -0.870217,
	 -0.317879   0.028763  -0.947695,
	 -0.993995  -0.028297   0.105702,
	 -0.940804  -0.064224   0.332812,
	 -0.034860  -0.157281   0.986939,
	  0.823589  -0.074862   0.562225,
	 -0.621539   0.110838  -0.775503,
	 -0.581834   0.059903  -0.811098,
	 -0.665595   0.060685  -0.743842,
	 -0.808077   0.060320  -0.585980,
	  0.931889  -0.055495   0.358474,
	  0.943136   0.013131  -0.332149,
	  0.317248   0.060083  -0.946437,
	 -0.999895  -0.012561  -0.007173,
	 -0.672148   0.157909  -0.723383,
	 -0.925125  -0.092200   0.368298,
	  0.040123  -0.182997   0.982294,
	  0.752528  -0.165019   0.637550,
	  0.221141   0.122919  -0.967464,
	  0.930274  -0.139269   0.339403,
	  0.948925   0.023105  -0.314655,
	 -0.740520   0.168109  -0.650668,
	 -0.999121  -0.008757   0.040992,
	  0.256513   0.211194  -0.943185,
	  0.354652   0.181589  -0.917195,
	 -0.857584  -0.097044   0.505105,
	 -0.063728  -0.236247   0.969601,
	  0.579672  -0.283765   0.763844,
	  0.943487  -0.007456  -0.331326,
	  0.850607  -0.283348   0.442923,
	  0.152066   0.204421  -0.966999,
	 -0.832259   0.162149  -0.530145,
	 -0.997922   0.000309   0.064436,
	  0.949041  -0.059469  -0.309490,
	  0.886767  -0.040187  -0.460466,
	 -0.817292  -0.142658   0.558285,
	 -0.155916  -0.292390   0.943503,
	  0.390592  -0.331913   0.858645,
	  0.859903  -0.371133   0.350468,
	  0.882659  -0.160379  -0.441805,
	  0.176953   0.238648  -0.954848,
	 -0.686075   0.211048  -0.696247,
	  0.787085   0.105454  -0.607764,
	 -0.999648   0.024367  -0.010491,
	 -0.803377  -0.137677   0.579336,
	 -0.088000  -0.300335   0.949766,
	  0.296750  -0.192230   0.935407,
	  0.539179  -0.325367   0.776802,
	  0.924512  -0.354667   0.139603,
	  0.951109  -0.063597   0.302235,
	  0.085164   0.196891  -0.976719,
	  0.849370   0.316613  -0.422288,
	 -0.712196   0.145329  -0.686772,
	  0.954512   0.290886   0.065512,
	 -0.997993   0.020411  -0.059951,
	 -0.750492  -0.040167   0.659658,
	 -0.179755  -0.098880   0.978729,
	  0.507314  -0.076382   0.858369,
	  0.017247  -0.000541   0.999851,
	  0.338570  -0.005052   0.940928,
	  0.746202   0.211828   0.631119,
	  0.838073   0.186728  -0.512607,
	  0.018986   0.123668  -0.992142,
	  0.886973   0.088559   0.453251,
	 -0.686605   0.067454  -0.723895,
	 -0.994718  -0.067979  -0.076913,
	 -0.678004  -0.096588   0.728684,
	  0.397060  -0.054657   0.916164,
	 -0.058790  -0.130897   0.989651,
	  0.920995  -0.290388   0.259698,
	  0.737483  -0.178899  -0.651241,
	 -0.023949  -0.186731  -0.982119,
	  0.477257  -0.363431   0.800090,
	 -0.682940  -0.270351  -0.678604,
	 -0.970210  -0.239958   0.033357,
	 -0.681928  -0.322599   0.656433,
	 -0.082062  -0.363030   0.928157,
	  0.447424  -0.470747   0.760400,
	  0.862553  -0.458188   0.214629,
	  0.727667  -0.243271  -0.641342,
	  0.078754  -0.138060  -0.987288,
	 -0.043143  -0.413591   0.909440,
	 -0.999016  -0.042067  -0.014050,
	 -0.558084  -0.014289  -0.829662,
	 -0.611637  -0.256822   0.748293,
	  0.013035   0.143872   0.989510,
	  0.539201   0.280487   0.794097,
	  0.927485   0.297128   0.226907,
	  0.658421   0.572770  -0.488279,
	  0.084809   0.800231  -0.593665,
	 -0.447758   0.838855  -0.309573,
	 -0.447267   0.722686   0.526951,
	 -0.340232   0.940250   0.013101,
	  0.134546   0.876894   0.461469,
	  0.224687   0.928034   0.297099,
	  0.303638   0.943084   0.135633,
	  0.098652   0.994960  -0.017945,
	 -0.000015   0.998434   0.055942,
	  0.087509   0.996148  -0.005648,
     ]    } 
normalIndex      [ 
	     0,      1,      2, -1 
	     3,      0,      2, -1 
	     4,      1,      0, -1 
	     3,      5,      0, -1 
	     5,      6,      0, -1 
	     7,      0,      6, -1 
	     7,      4,      0, -1 
	     2,      1,      8, -1 
	     1,      9,      8, -1 
	     9,      1,      4, -1 
	     2,      8,     10, -1 
	    10,      3,      2, -1 
	    11,     12,      3, -1 
	    12,     13,      3, -1 
	     3,     13,      5, -1 
	    10,     11,      3, -1 
	    14,      9,      4, -1 
	    15,     16,      4, -1 
	     7,     15,      4, -1 
	     4,     16,     14, -1 
	    13,      6,      5, -1 
	     6,     13,     15, -1 
	    15,      7,      6, -1 
	     8,     17,     10, -1 
	     8,     18,     19, -1 
	    18,      8,      9, -1 
	    17,      8,     19, -1 
	     9,     20,     21, -1 
	     9,     14,     20, -1 
	     9,     22,     18, -1 
	    22,      9,     21, -1 
	    11,     10,     23, -1 
	    10,     24,     23, -1 
	    10,     17,     24, -1 
	    25,     12,     11, -1 
	    23,     25,     11, -1 
	    26,     12,     25, -1 
	    27,     28,     12, -1 
	    12,     28,     13, -1 
	    26,     27,     12, -1 
	    13,     28,     15, -1 
	    20,     14,     29, -1 
	    16,     30,     14, -1 
	    30,     29,     14, -1 
	    15,     31,     16, -1 
	    32,     31,     15, -1 
	    28,     33,     15, -1 
	    15,     33,     32, -1 
	    30,     16,     34, -1 
	    31,     35,     16, -1 
	    35,     34,     16, -1 
	    17,     36,     24, -1 
	    36,     17,     37, -1 
	    37,     17,     19, -1 
	    22,     19,     18, -1 
	    19,     22,     21, -1 
	    19,     38,     37, -1 
	    38,     19,     21, -1 
	    39,     21,     20, -1 
	    39,     20,     40, -1 
	    40,     20,     29, -1 
	    41,     38,     21, -1 
	    21,     39,     41, -1 
	    42,     25,     23, -1 
	    23,     24,     42, -1 
	    24,     43,     42, -1 
	    24,     36,     43, -1 
	    44,     45,     25, -1 
	    45,     26,     25, -1 
	    42,     44,     25, -1 
	    45,     46,     26, -1 
	    26,     47,     27, -1 
	    26,     46,     47, -1 
	    27,     31,     28, -1 
	    27,     47,     31, -1 
	    31,     33,     28, -1 
	    48,     39,     29, -1 
	    39,     40,     29, -1 
	    30,     49,     29, -1 
	    49,     48,     29, -1 
	    50,     49,     30, -1 
	    51,     52,     30, -1 
	    52,     50,     30, -1 
	    51,     30,     34, -1 
	    47,     35,     31, -1 
	    31,     32,     33, -1 
	    53,     34,     54, -1 
	    54,     34,     35, -1 
	    34,     53,     51, -1 
	    47,     54,     35, -1 
	    36,     55,     43, -1 
	    55,     36,     56, -1 
	    56,     36,     37, -1 
	    57,     56,     37, -1 
	    38,     58,     37, -1 
	    58,     57,     37, -1 
	    58,     38,     41, -1 
	    39,     50,     41, -1 
	    49,     50,     39, -1 
	    48,     49,     39, -1 
	    41,     59,     60, -1 
	    60,     58,     41, -1 
	    41,     50,     59, -1 
	    61,     44,     42, -1 
	    42,     43,     62, -1 
	    62,     61,     42, -1 
	    43,     63,     62, -1 
	    43,     55,     63, -1 
	    64,     45,     44, -1 
	    65,     66,     44, -1 
	    66,     64,     44, -1 
	    61,     65,     44, -1 
	    45,     64,     46, -1 
	    54,     46,     67, -1 
	    67,     46,     68, -1 
	    64,     68,     46, -1 
	    46,     54,     47, -1 
	    50,     52,     59, -1 
	    59,     52,     51, -1 
	    69,     59,     51, -1 
	    53,     70,     51, -1 
	    51,     70,     69, -1 
	    67,     53,     54, -1 
	    71,     70,     53, -1 
	    67,     71,     53, -1 
	    55,     72,     63, -1 
	    72,     55,     73, -1 
	    73,     55,     56, -1 
	    56,     57,     73, -1 
	    57,     74,     73, -1 
	    74,     57,     75, -1 
	    75,     57,     58, -1 
	    60,     75,     58, -1 
	    60,     59,     69, -1 
	    76,     75,     60, -1 
	    77,     60,     69, -1 
	    77,     76,     60, -1 
	    78,     65,     61, -1 
	    61,     62,     79, -1 
	    79,     78,     61, -1 
	    62,     80,     79, -1 
	    62,     63,     80, -1 
	    63,     81,     80, -1 
	    63,     72,     81, -1 
	    82,     68,     64, -1 
	    64,     66,     83, -1 
	    76,     82,     64, -1 
	    76,     64,     83, -1 
	    66,     65,     84, -1 
	    65,     78,     85, -1 
	    84,     65,     85, -1 
	    83,     66,     84, -1 
	    82,     71,     67, -1 
	    68,     82,     67, -1 
	    70,     71,     69, -1 
	    69,     71,     77, -1 
	    71,     82,     77, -1 
	    72,     86,     81, -1 
	    86,     72,     87, -1 
	    87,     72,     73, -1 
	    73,     74,     87, -1 
	    88,     74,     83, -1 
	    83,     74,     76, -1 
	    74,     75,     76, -1 
	    74,     88,     87, -1 
	    77,     82,     76, -1 
	    78,     89,     90, -1 
	    78,     79,     91, -1 
	    85,     78,     90, -1 
	    89,     78,     91, -1 
	    79,     80,     91, -1 
	    80,     92,     91, -1 
	    80,     81,     92, -1 
	    81,     93,     92, -1 
	    81,     86,     93, -1 
	    84,     88,     83, -1 
	    84,     85,     94, -1 
	    88,     84,     94, -1 
	    94,     85,     90, -1 
	    86,     95,     93, -1 
	    95,     86,     96, -1 
	    96,     86,     87, -1 
	    87,     88,     96, -1 
	    88,     94,     96, -1 
	    90,     89,     97, -1 
	    98,     89,     91, -1 
	    89,     98,     97, -1 
	    99,    100,     90, -1 
	    97,     99,     90, -1 
	   100,     94,     90, -1 
	    91,     92,    101, -1 
	   101,     98,     91, -1 
	   102,    101,     92, -1 
	    92,     93,    102, -1 
	    93,    103,    102, -1 
	    93,     95,    103, -1 
	    94,    100,    104, -1 
	    96,     94,    104, -1 
	   104,     95,     96, -1 
	   105,     95,    104, -1 
	    95,    105,    103, -1 
	   106,     99,     97, -1 
	    97,     98,    107, -1 
	   107,    106,     97, -1 
	   108,     98,    101, -1 
	    98,    108,    107, -1 
	   100,     99,    109, -1 
	    99,    106,    110, -1 
	   110,    109,     99, -1 
	   104,    100,    109, -1 
	   111,    108,    101, -1 
	   102,    111,    101, -1 
	   102,    103,    112, -1 
	   112,    111,    102, -1 
	   103,    113,    112, -1 
	   103,    105,    113, -1 
	   109,    105,    104, -1 
	   114,    105,    109, -1 
	   105,    114,    113, -1 
	   110,    106,    115, -1 
	   116,    106,    117, -1 
	   106,    116,    118, -1 
	   106,    107,    117, -1 
	   115,    106,    118, -1 
	   107,    108,    117, -1 
	   119,    108,    111, -1 
	   108,    119,    117, -1 
	   110,    114,    109, -1 
	   115,    114,    110, -1 
	   120,    111,    112, -1 
	   120,    119,    111, -1 
	   112,    113,    121, -1 
	   121,    120,    112, -1 
	   113,    122,    121, -1 
	   113,    114,    123, -1 
	   113,    123,    122, -1 
	   124,    123,    114, -1 
	   114,    115,    124, -1 
	   115,    118,    125, -1 
	   124,    115,    125, -1 
	   126,    116,    117, -1 
	   118,    116,    127, -1 
	   116,    126,    127, -1 
	   117,    119,    128, -1 
	   128,    126,    117, -1 
	   118,    127,    129, -1 
	   125,    118,    129, -1 
	   130,    119,    120, -1 
	   119,    130,    128, -1 
	   131,    120,    132, -1 
	   132,    120,    121, -1 
	   131,    130,    120, -1 
	   121,    122,    132, -1 
	   123,    133,    122, -1 
	   122,    134,    132, -1 
	   135,    134,    122, -1 
	   122,    133,    135, -1 
	   125,    133,    123, -1 
	   125,    123,    124, -1 
	   136,    133,    125, -1 
	   129,    136,    125, -1 
	   127,    126,    137, -1 
	   126,    138,    137, -1 
	   138,    126,    128, -1 
	   139,    136,    127, -1 
	   127,    136,    129, -1 
	   137,    139,    127, -1 
	   128,    130,    140, -1 
	   140,    138,    128, -1 
	   141,    130,    131, -1 
	   130,    141,    140, -1 
	   134,    131,    132, -1 
	   142,    131,    134, -1 
	   142,    141,    131, -1 
	   133,    136,    135, -1 
	   143,    144,    134, -1 
	   135,    143,    134, -1 
	   144,    142,    134, -1 
	   135,    136,    143, -1 
	   136,    139,    143, -1 
	   145,    139,    137, -1 
	   146,    145,    137, -1 
	   137,    138,    146, -1 
	   138,    147,    146, -1 
	   147,    138,    140, -1 
	   139,    145,    148, -1 
	   143,    139,    148, -1 
	   140,    141,    149, -1 
	   149,    147,    140, -1 
	   150,    141,    142, -1 
	   141,    150,    149, -1 
	   142,    144,    151, -1 
	   151,    150,    142, -1 
	   144,    143,    152, -1 
	   143,    148,    152, -1 
	   144,    152,    151, -1 
	   148,    145,    153, -1 
	   145,    154,    153, -1 
	   154,    145,    146, -1 
	   155,    154,    146, -1 
	   146,    147,    155, -1 
	   147,    156,    155, -1 
	   156,    147,    149, -1 
	   148,    153,    157, -1 
	   152,    148,    157, -1 
	   158,    159,    149, -1 
	   159,    156,    149, -1 
	   150,    158,    149, -1 
	   158,    150,    151, -1 
	   151,    152,    160, -1 
	   160,    158,    151, -1 
	   152,    157,    160, -1 
	   157,    153,    161, -1 
	   153,    162,    161, -1 
	   153,    154,    162, -1 
	   154,    163,    162, -1 
	   163,    154,    155, -1 
	   164,    163,    155, -1 
	   155,    156,    164, -1 
	   156,    165,    164, -1 
	   165,    156,    159, -1 
	   160,    157,    161, -1 
	   159,    158,    166, -1 
	   167,    168,    158, -1 
	   158,    168,    166, -1 
	   160,    167,    158, -1 
	   166,    165,    159, -1 
	   161,    167,    160, -1 
	   161,    162,    169, -1 
	   161,    169,    167, -1 
	   162,    170,    169, -1 
	   162,    163,    170, -1 
	   171,    163,    164, -1 
	   163,    171,    170, -1 
	   164,    165,    172, -1 
	   172,    171,    164, -1 
	   172,    165,    173, -1 
	   173,    165,    166, -1 
	   173,    166,    168, -1 
	   168,    167,    174, -1 
	   169,    174,    167, -1 
	   173,    168,    174, -1 
	   169,    170,    174, -1 
	   170,    171,    173, -1 
	   170,    173,    174, -1 
	   171,    172,    173, -1 
    ] 
normalPerVertex  TRUE 
   } 
  } 
 ] 
} 
