# 
# Wavefront OBJ file
# Converted by the DEEP Exploration 2.00.1211
# Right Hemisphere, LTD
# http://www.righthemisphere.com/
# 
mtllib ring1_r.mtl
# object Object #0
g Object__0
v 0.004346 -0.044116 -0.003662
v 0.004687 -0.043497 -0.00059
v 0.006751 -0.049591 -0.001801
v 0.007403 -0.049538 -0.003123
v 0.001755 -0.038742 -0.003587
v 0.001535 -0.041453 -0.004171
v 0.000754 -0.035751 -0.004768
v 0.003476 -0.037444 -0.000499
v 0.00259 -0.042776 0.000779
v 0.004841 -0.048226 0.000814
v 0.002784 -0.05345 0.000699
v 0.002946 -0.047035 -0.003348
v 0.003096 -0.053137 -0.002525
v 0.001587 -0.03215 -0.003937
v 0.000714 -0.02993 -0.005231
v -0.000951 -0.041526 -0.003126
v -0.002144 -0.035744 -0.003377
v -0.002677 -0.029921 -0.00435
v 0.002168 -0.036651 0.001067
v 0.002171 -0.031252 -0.001152
v 0.002406 -0.044697 0.005644
v 0.005549 -0.049965 0.005797
v 0.002331 -0.053528 0.003
v 0.001303 -0.053497 -0.001513
v 0.00068 -0.047221 -0.003212
v -0.001031 -0.048179 -0.000873
v 0.002127 -0.025398 -0.004473
v 0.000648 -0.024114 -0.005801
v -0.002569 -0.024038 -0.005261
v -0.002055 -0.042228 -0.000546
v -0.003623 -0.036463 -0.000526
v -0.004641 -0.030595 -0.000826
v -0.00516 -0.024611 -0.001174
v 0.001462 -0.030633 0.001337
v 0.000199 -0.038803 0.005125
v 0.002084 -0.024908 -0.001195
v 3e-005 -0.042192 0.005047
v 0.000885 -0.047921 0.00508
v 0.001568 -0.053631 0.004456
v -0.00196 -0.052341 0.002912
v -0.001435 -0.046789 0.002629
v -0.002258 -0.041344 0.003087
v 0.00302 -0.019052 -0.004938
v 0.00097 -0.018385 -0.006765
v -0.002426 -0.018164 -0.006092
v -0.005733 -0.018653 -0.001482
v -0.003503 -0.035914 0.003418
v -0.004416 -0.030427 0.003206
v -0.004837 -0.024885 0.002997
v -0.005288 -0.019331 0.002826
v 0.00051 -0.032329 0.005402
v 0.001302 -0.02459 0.001588
v -0.000747 -0.036467 0.00501
v 0.00303 -0.018615 -0.00191
v 0.005123 -0.013041 -0.004928
v 0.0022 -0.012785 -0.007482
v -0.003343 -0.01247 -0.007475
v -0.006121 -0.012704 -0.00214
v -0.006006 -0.013817 0.002647
v -0.001672 -0.030707 0.004978
v -0.002339 -0.024938 0.005066
v -0.001499 -0.019286 0.005801
v -0.001496 -0.013679 0.007134
v 0.00017 -0.025952 0.005363
v 0.001991 -0.018482 0.001686
v 0.005859 -0.013028 -0.002143
v 0.004157 -0.006789 -0.005946
v -0.002694 -0.006758 -0.006333
v -0.005468 -0.006815 -0.001282
v -0.005424 -0.008305 0.003093
v -0.001182 -0.007993 0.006979
v 0.00055 -0.019463 0.005134
v 0.003311 -0.013943 0.006366
v 0.003759 -0.007657 0.006299
v 0.005309 -0.01369 0.002378
v 0.005939 -0.007004 -0.002915
v 0.000916 -0.008327 -0.000575
v 0.005121 -0.007657 0.002218
# 78 verticies
vn 0.854582 0.36269 -0.371679
vn 0.924149 0.2954 0.242254
vn 0.914466 0.038429 0.402834
vn 0.678601 -0.331697 -0.655346
vn 0.901435 0.172114 -0.397231
vn -0.162589 -0.127278 -0.97845
vn 0.129039 -0.0362 -0.990979
vn 0.978613 0.141979 0.148857
vn 0.854732 0.241619 0.459405
vn 0.931989 -0.067816 0.356087
vn 0.618646 -0.758743 0.203926
vn -0.109811 -0.13212 -0.985132
vn -0.0993011 -0.564997 -0.819095
vn 0.866507 -0.016288 -0.498899
vn 0.31991 -0.085062 -0.943622
vn -0.620002 -0.186147 -0.762199
vn -0.661942 -0.172812 -0.729362
vn -0.618209 -0.132273 -0.774804
vn 0.889874 0.143546 0.433034
vn 0.99046 0.07686 0.114374
vn 0.439835 0.181889 0.879467
vn 0.779975 -0.164269 0.603867
vn 0.565639 -0.824385 0.02103
vn -0.431476 -0.850309 -0.301336
vn -0.54269 -0.185146 -0.819273
vn -0.888048 -0.235041 -0.395129
vn 0.881701 -0.117613 -0.456913
vn 0.266487 -0.132767 -0.954651
vn -0.551876 -0.110969 -0.82651
vn -0.944595 -0.213828 -0.249033
vn -0.954603 -0.207403 -0.213816
vn -0.964973 -0.132754 -0.22628
vn -0.966984 -0.09327 -0.237156
vn 0.95819 0.029076 0.284653
vn 0.434634 0.065748 0.898204
vn 0.987104 -0.059279 0.148699
vn -0.482129 -0.072297 0.873112
vn -0.44336 -0.070138 0.893595
vn -0.082576 -0.815453 0.572903
vn -0.858079 -0.35474 0.371296
vn -0.947312 -0.132632 0.291562
vn -0.893026 -0.177362 0.413579
vn 0.887573 -0.223894 -0.4026
vn 0.253086 -0.195857 -0.947411
vn -0.549101 -0.176583 -0.816888
vn -0.957197 -0.10059 -0.271397
vn -0.847631 -0.179646 0.499248
vn -0.869153 -0.103063 0.483685
vn -0.886603 -0.051751 0.459626
vn -0.88516 -0.103604 0.453605
vn 0.529197 -0.012052 0.848414
vn 0.96192 -0.042301 0.270039
vn -0.386616 -0.069825 0.919594
vn 0.956053 -0.270287 0.113608
vn 0.884642 -0.198689 -0.42182
vn 0.350632 -0.030717 -0.93601
vn -0.545727 -0.016719 -0.837796
vn -0.969605 -0.010898 -0.244433
vn -0.910995 -0.015759 0.412115
vn -0.363131 -0.046646 0.93057
vn -0.314875 -0.045724 0.948031
vn -0.217016 -0.176428 0.960092
vn -0.29336 -0.075091 0.953048
vn 0.526965 -0.020589 0.849637
vn 0.918988 -0.317576 0.233682
vn 0.961634 -0.253296 -0.105362
vn 0.617675 0.572199 -0.539505
vn -0.178712 0.770378 -0.612029
vn -0.697439 0.704935 -0.129017
vn -0.720798 0.617594 0.314688
vn -0.397257 0.613404 0.682585
vn 0.590985 -0.309321 0.745021
vn 0.612467 -0.204649 0.763547
vn 0.333386 0.62591 0.705047
vn 0.934405 -0.274215 0.227363
vn 0.78929 0.613919 0.011207
vn -0.029642 0.994133 0.10402
vn 0.748131 0.595105 0.293512
# 78 normals
usemtl Material__1
f  1//1 2//2 3//3
f  1//1 3//3 4//4
f  5//5 2//2 1//1
f  6//6 1//1 4//4
f  7//7 5//5 1//1
f  7//7 1//1 6//6
f  5//5 8//8 2//2
f  2//2 9//9 10//10
f  2//2 10//10 3//3
f  8//8 9//9 2//2
f  3//3 10//10 11//11
f  4//4 3//3 11//11
f  6//6 4//4 12//12
f  11//11 13//13 4//4
f  13//13 12//12 4//4
f  14//14 8//8 5//5
f  15//15 14//14 5//5
f  15//15 5//5 7//7
f  16//16 6//6 12//12
f  17//17 7//7 6//6
f  17//17 6//6 16//16
f  18//18 15//15 7//7
f  18//18 7//7 17//17
f  8//8 19//19 9//9
f  14//14 20//20 8//8
f  20//20 19//19 8//8
f  9//9 21//21 22//22
f  9//9 22//22 10//10
f  19//19 21//21 9//9
f  10//10 22//22 23//23
f  10//10 23//23 11//11
f  24//24 11//11 23//23
f  11//11 24//24 13//13
f  16//16 12//12 25//25
f  12//12 13//13 25//25
f  26//26 25//25 13//13
f  26//26 13//13 24//24
f  27//27 20//20 14//14
f  28//28 27//27 14//14
f  28//28 14//14 15//15
f  29//29 28//28 15//15
f  29//29 15//15 18//18
f  30//30 16//16 25//25
f  31//31 17//17 16//16
f  31//31 16//16 30//30
f  32//32 18//18 17//17
f  32//32 17//17 31//31
f  33//33 29//29 18//18
f  33//33 18//18 32//32
f  20//20 34//34 19//19
f  19//19 35//35 21//21
f  34//34 35//35 19//19
f  27//27 36//36 20//20
f  36//36 34//34 20//20
f  21//21 37//37 38//38
f  21//21 38//38 22//22
f  35//35 37//37 21//21
f  22//22 39//39 23//23
f  22//22 38//38 39//39
f  24//24 23//23 39//39
f  24//24 39//39 40//40
f  41//41 26//26 24//24
f  41//41 24//24 40//40
f  30//30 25//25 26//26
f  42//42 30//30 26//26
f  42//42 26//26 41//41
f  43//43 36//36 27//27
f  44//44 43//43 27//27
f  44//44 27//27 28//28
f  45//45 44//44 28//28
f  45//45 28//28 29//29
f  46//46 45//45 29//29
f  46//46 29//29 33//33
f  47//47 31//31 30//30
f  47//47 30//30 42//42
f  48//48 32//32 31//31
f  48//48 31//31 47//47
f  49//49 33//33 32//32
f  49//49 32//32 48//48
f  50//50 46//46 33//33
f  50//50 33//33 49//49
f  34//34 51//51 35//35
f  36//36 52//52 34//34
f  52//52 51//51 34//34
f  35//35 53//53 37//37
f  51//51 53//53 35//35
f  43//43 54//54 36//36
f  54//54 52//52 36//36
f  37//37 42//42 41//41
f  37//37 41//41 38//38
f  53//53 42//42 37//37
f  38//38 41//41 40//40
f  38//38 40//40 39//39
f  53//53 47//47 42//42
f  55//55 54//54 43//43
f  56//56 55//55 43//43
f  56//56 43//43 44//44
f  57//57 56//56 44//44
f  57//57 44//44 45//45
f  58//58 57//57 45//45
f  58//58 45//45 46//46
f  59//59 58//58 46//46
f  59//59 46//46 50//50
f  60//60 48//48 47//47
f  60//60 47//47 53//53
f  61//61 49//49 48//48
f  61//61 48//48 60//60
f  62//62 50//50 49//49
f  62//62 49//49 61//61
f  63//63 59//59 50//50
f  63//63 50//50 62//62
f  52//52 64//64 51//51
f  51//51 60//60 53//53
f  64//64 60//60 51//51
f  54//54 65//65 52//52
f  65//65 64//64 52//52
f  55//55 66//66 54//54
f  66//66 65//65 54//54
f  67//67 66//66 55//55
f  67//67 55//55 56//56
f  68//68 67//67 56//56
f  68//68 56//56 57//57
f  69//69 68//68 57//57
f  69//69 57//57 58//58
f  70//70 69//69 58//58
f  70//70 58//58 59//59
f  71//71 70//70 59//59
f  71//71 59//59 63//63
f  64//64 61//61 60//60
f  72//72 62//62 61//61
f  72//72 61//61 64//64
f  73//73 63//63 62//62
f  73//73 62//62 72//72
f  74//74 71//71 63//63
f  74//74 63//63 73//73
f  65//65 72//72 64//64
f  66//66 75//75 65//65
f  75//75 72//72 65//65
f  67//67 76//76 66//66
f  76//76 75//75 66//66
f  67//67 68//68 77//77
f  76//76 67//67 77//77
f  68//68 69//69 77//77
f  69//69 70//70 77//77
f  70//70 71//71 77//77
f  71//71 74//74 77//77
f  75//75 73//73 72//72
f  78//78 74//74 73//73
f  78//78 73//73 75//75
f  74//74 78//78 77//77
f  76//76 78//78 75//75
f  78//78 76//76 77//77
