# 
# Wavefront OBJ file
# Converted by the DEEP Exploration 2.00.1211
# Right Hemisphere, LTD
# http://www.righthemisphere.com/
# 
mtllib ring3_l.mtl
# object Object #0
g Object__0
v 0.00032 -0.002613 0.004731
v 0.002259 -0.002326 0.000288
v -0.000434 -0.004577 -0.004705
v -0.004159 -0.003218 0.000268
v 0.002313 -0.005725 0.000528
v 0.000402 -0.006438 0.004513
v -0.00045 -0.00725 -0.003852
v -0.003846 -0.00679 0.000887
v -0.000747 -0.010056 -0.003486
v 0.001489 -0.00896 -2.4e-005
v -0.000385 -0.009707 0.00263
v -0.002812 -0.010128 0.000391
v -0.000657 -0.012612 -0.002929
v -0.002532 -0.013666 -0.000194
v 0.001473 -0.01237 -0.000312
v -0.000465 -0.013413 0.001787
v 0.00056 -0.015142 -0.003586
v -0.002123 -0.017214 -0.000728
v 0.000229 -0.017536 0.001361
v 0.001588 -0.015625 -0.001175
v 0.001496 -0.017711 -0.004011
v -0.000698 -0.020245 -0.00167
v 0.001184 -0.021135 0.000217
v 0.002545 -0.018802 -0.001722
v 0.002293 -0.020312 -0.004346
v 0.00131 -0.022428 -0.003272
v 0.001744 -0.021975 -0.002581
# 27 verticies
vn 0.317003 0.795263 0.516783
vn 0.906595 0.311143 -0.285087
vn -0.427995 0.528249 -0.73333
vn -0.888093 0.351255 0.296497
vn 0.992596 -0.105497 -0.060189
vn 0.167904 -0.27344 0.947121
vn 0.033891 -0.2025 -0.978696
vn -0.966223 -0.227863 0.120379
vn 0.002955 -0.157195 -0.987563
vn 0.980803 -0.186212 -0.057887
vn 0.119465 -0.337069 0.93387
vn -0.975566 -0.162534 0.147829
vn 0.001093 0.036973 -0.999316
vn -0.981378 -0.153789 0.115094
vn 0.996679 0.063217 0.051335
vn 0.093843 -0.178989 0.979365
vn 0.126092 0.175571 -0.976358
vn -0.954957 -0.295041 -0.031761
vn 0.12892 -0.127374 0.983441
vn 0.973696 0.174116 0.146968
vn 0.225494 0.217294 -0.949703
vn -0.815548 -0.538681 -0.211432
vn -0.062532 -0.674723 0.735417
vn 0.983578 0.045518 0.17465
vn 0.848609 -0.218225 -0.481914
vn -0.387444 -0.734055 -0.557719
vn 0.569409 -0.776348 0.27029
# 27 normals
usemtl Material__1
f  1//1 2//2 3//3
f  4//4 1//1 3//3
f  5//5 2//2 1//1
f  6//6 5//5 1//1
f  6//6 1//1 4//4
f  7//7 3//3 2//2
f  5//5 7//7 2//2
f  8//8 4//4 3//3
f  7//7 8//8 3//3
f  8//8 6//6 4//4
f  9//9 7//7 5//5
f  10//10 9//9 5//5
f  10//10 5//5 6//6
f  11//11 6//6 8//8
f  11//11 10//10 6//6
f  12//12 8//8 7//7
f  9//9 12//12 7//7
f  12//12 11//11 8//8
f  13//13 9//9 10//10
f  14//14 12//12 9//9
f  13//13 14//14 9//9
f  15//15 10//10 11//11
f  15//15 13//13 10//10
f  16//16 11//11 12//12
f  16//16 15//15 11//11
f  14//14 16//16 12//12
f  17//17 13//13 15//15
f  18//18 14//14 13//13
f  17//17 18//18 13//13
f  19//19 16//16 14//14
f  18//18 19//19 14//14
f  20//20 15//15 16//16
f  20//20 17//17 15//15
f  19//19 20//20 16//16
f  21//21 17//17 20//20
f  22//22 18//18 17//17
f  21//21 22//22 17//17
f  23//23 19//19 18//18
f  22//22 23//23 18//18
f  24//24 20//20 19//19
f  23//23 24//24 19//19
f  24//24 21//21 20//20
f  25//25 21//21 24//24
f  26//26 22//22 21//21
f  25//25 26//26 21//21
f  27//27 23//23 22//22
f  26//26 27//27 22//22
f  27//27 24//24 23//23
f  27//27 25//25 24//24
f  26//26 25//25 27//27
