#VRML V2.0 utf8
Transform {
children [
Shape {
appearance Appearance {
              material DEF surface Material {
              diffuseColor 0.8 0.8 0.8
              ambientIntensity 0.2
              specularColor 0.4 0.4 0.4
              emissiveColor 0 0 0
              shininess 0.25
              transparency 0
            }
          }
geometry IndexedFaceSet {
solid FALSE
coord DEF bone Coordinate {
point [
  0.000320	 -0.002613	  0.004731,
  0.002259	 -0.002326	  0.000288,
 -0.000434	 -0.004577	 -0.004705,
 -0.004159	 -0.003218	  0.000268,
  0.002313	 -0.005725	  0.000528,
  0.000402	 -0.006438	  0.004513,
 -0.000450	 -0.007250	 -0.003852,
 -0.003846	 -0.006790	  0.000887,
 -0.000747	 -0.010056	 -0.003486,
  0.001489	 -0.008960	 -0.000024,
 -0.000385	 -0.009707	  0.002630,
 -0.002812	 -0.010128	  0.000391,
 -0.000657	 -0.012612	 -0.002929,
 -0.002532	 -0.013666	 -0.000194,
  0.001473	 -0.012370	 -0.000312,
 -0.000465	 -0.013413	  0.001787,
  0.000560	 -0.015142	 -0.003586,
 -0.002123	 -0.017214	 -0.000728,
  0.000229	 -0.017536	  0.001361,
  0.001588	 -0.015625	 -0.001175,
  0.001496	 -0.017711	 -0.004011,
 -0.000698	 -0.020245	 -0.001670,
  0.001184	 -0.021135	  0.000217,
  0.002545	 -0.018802	 -0.001722,
  0.002293	 -0.020312	 -0.004346,
  0.001310	 -0.022428	 -0.003272,
  0.001744	 -0.021975	 -0.002581,
]
}
coordIndex [
   0,	   1,	   2, -1
   3,	   0,	   2, -1
   4,	   1,	   0, -1
   5,	   4,	   0, -1
   5,	   0,	   3, -1
   6,	   2,	   1, -1
   4,	   6,	   1, -1
   7,	   3,	   2, -1
   6,	   7,	   2, -1
   7,	   5,	   3, -1
   8,	   6,	   4, -1
   9,	   8,	   4, -1
   9,	   4,	   5, -1
  10,	   5,	   7, -1
  10,	   9,	   5, -1
  11,	   7,	   6, -1
   8,	  11,	   6, -1
  11,	  10,	   7, -1
  12,	   8,	   9, -1
  13,	  11,	   8, -1
  12,	  13,	   8, -1
  14,	   9,	  10, -1
  14,	  12,	   9, -1
  15,	  10,	  11, -1
  15,	  14,	  10, -1
  13,	  15,	  11, -1
  16,	  12,	  14, -1
  17,	  13,	  12, -1
  16,	  17,	  12, -1
  18,	  15,	  13, -1
  17,	  18,	  13, -1
  19,	  14,	  15, -1
  19,	  16,	  14, -1
  18,	  19,	  15, -1
  20,	  16,	  19, -1
  21,	  17,	  16, -1
  20,	  21,	  16, -1
  22,	  18,	  17, -1
  21,	  22,	  17, -1
  23,	  19,	  18, -1
  22,	  23,	  18, -1
  23,	  20,	  19, -1
  24,	  20,	  23, -1
  25,	  21,	  20, -1
  24,	  25,	  20, -1
  26,	  22,	  21, -1
  25,	  26,	  21, -1
  26,	  23,	  22, -1
  26,	  24,	  23, -1
  25,	  24,	  26, -1
]
colorPerVertex FALSE
colorIndex [
1,
1,
1,
1,
1,
1,
1,
1,
1,
1,
1,
1,
1,
1,
1,
1,
1,
1,
1,
1,
1,
1,
1,
1,
1,
1,
1,
]
normal Normal {
vector [
  0.317003	  0.795263	  0.516783,
  0.906595	  0.311143	 -0.285087,
 -0.427995	  0.528249	 -0.733330,
 -0.888093	  0.351255	  0.296497,
  0.992596	 -0.105497	 -0.060189,
  0.167904	 -0.273440	  0.947121,
  0.033891	 -0.202500	 -0.978696,
 -0.966223	 -0.227863	  0.120379,
  0.002955	 -0.157195	 -0.987563,
  0.980803	 -0.186212	 -0.057887,
  0.119465	 -0.337069	  0.933870,
 -0.975566	 -0.162534	  0.147829,
  0.001093	  0.036973	 -0.999316,
 -0.981378	 -0.153789	  0.115094,
  0.996679	  0.063217	  0.051335,
  0.093843	 -0.178989	  0.979365,
  0.126092	  0.175571	 -0.976358,
 -0.954956	 -0.295041	 -0.031761,
  0.128920	 -0.127374	  0.983441,
  0.973696	  0.174116	  0.146968,
  0.225494	  0.217294	 -0.949703,
 -0.815548	 -0.538681	 -0.211432,
 -0.062532	 -0.674723	  0.735417,
  0.983578	  0.045518	  0.174650,
  0.848609	 -0.218225	 -0.481914,
 -0.387444	 -0.734055	 -0.557719,
  0.569409	 -0.776348	  0.270290,
]
}
normalIndex [
   0,	   1,	   2, -1
   3,	   0,	   2, -1
   4,	   1,	   0, -1
   5,	   4,	   0, -1
   5,	   0,	   3, -1
   6,	   2,	   1, -1
   4,	   6,	   1, -1
   7,	   3,	   2, -1
   6,	   7,	   2, -1
   7,	   5,	   3, -1
   8,	   6,	   4, -1
   9,	   8,	   4, -1
   9,	   4,	   5, -1
  10,	   5,	   7, -1
  10,	   9,	   5, -1
  11,	   7,	   6, -1
   8,	  11,	   6, -1
  11,	  10,	   7, -1
  12,	   8,	   9, -1
  13,	  11,	   8, -1
  12,	  13,	   8, -1
  14,	   9,	  10, -1
  14,	  12,	   9, -1
  15,	  10,	  11, -1
  15,	  14,	  10, -1
  13,	  15,	  11, -1
  16,	  12,	  14, -1
  17,	  13,	  12, -1
  16,	  17,	  12, -1
  18,	  15,	  13, -1
  17,	  18,	  13, -1
  19,	  14,	  15, -1
  19,	  16,	  14, -1
  18,	  19,	  15, -1
  20,	  16,	  19, -1
  21,	  17,	  16, -1
  20,	  21,	  16, -1
  22,	  18,	  17, -1
  21,	  22,	  17, -1
  23,	  19,	  18, -1
  22,	  23,	  18, -1
  23,	  20,	  19, -1
  24,	  20,	  23, -1
  25,	  21,	  20, -1
  24,	  25,	  20, -1
  26,	  22,	  21, -1
  25,	  26,	  21, -1
  26,	  23,	  22, -1
  26,	  24,	  23, -1
  25,	  24,	  26, -1
]
normalPerVertex TRUE
}
}
]
}
