#VRML V2.0 utf8
Transform {
children [
Shape {
appearance Appearance {
              material DEF surface Material {
              diffuseColor 0.8 0.8 0.8
              ambientIntensity 0.2
              specularColor 0.4 0.4 0.4
              emissiveColor 0 0 0
              shininess 0.25
              transparency 0
            }
          }
geometry IndexedFaceSet {
solid FALSE
coord DEF bone Coordinate {
point [
  0.006751	 -0.049591	  0.001801,
  0.004687	 -0.043497	  0.000590,
  0.004346	 -0.044116	  0.003662,
  0.007403	 -0.049538	  0.003123,
  0.004841	 -0.048226	 -0.000814,
  0.002784	 -0.053450	 -0.000699,
  0.001755	 -0.038742	  0.003587,
  0.003476	 -0.037444	  0.000499,
  0.002590	 -0.042776	 -0.000779,
  0.001535	 -0.041453	  0.004171,
  0.000754	 -0.035751	  0.004768,
  0.002946	 -0.047035	  0.003348,
  0.003096	 -0.053137	  0.002525,
  0.005549	 -0.049965	 -0.005797,
  0.002331	 -0.053528	 -0.003000,
  0.001303	 -0.053497	  0.001513,
  0.001587	 -0.032150	  0.003937,
  0.000714	 -0.029930	  0.005231,
  0.002168	 -0.036651	 -0.001067,
  0.002171	 -0.031252	  0.001152,
  0.002406	 -0.044697	 -0.005644,
 -0.000951	 -0.041526	  0.003126,
 -0.002144	 -0.035744	  0.003377,
 -0.002677	 -0.029921	  0.004350,
  0.000680	 -0.047221	  0.003212,
 -0.001031	 -0.048179	  0.000873,
  0.000885	 -0.047921	 -0.005080,
  0.001568	 -0.053631	 -0.004456,
 -0.001960	 -0.052341	 -0.002912,
 -0.001435	 -0.046789	 -0.002629,
  0.002127	 -0.025398	  0.004473,
  0.000648	 -0.024114	  0.005801,
 -0.002569	 -0.024038	  0.005261,
  0.001462	 -0.030633	 -0.001337,
  0.000199	 -0.038803	 -0.005125,
  0.002084	 -0.024908	  0.001195,
  0.000030	 -0.042192	 -0.005047,
 -0.002055	 -0.042228	  0.000546,
 -0.003623	 -0.036463	  0.000526,
 -0.004641	 -0.030595	  0.000826,
 -0.005160	 -0.024611	  0.001174,
 -0.002258	 -0.041344	 -0.003087,
  0.003020	 -0.019052	  0.004938,
  0.000970	 -0.018385	  0.006765,
 -0.002426	 -0.018164	  0.006092,
 -0.005733	 -0.018653	  0.001482,
  0.000510	 -0.032329	 -0.005402,
  0.001302	 -0.024590	 -0.001588,
 -0.000747	 -0.036467	 -0.005010,
  0.003030	 -0.018615	  0.001910,
 -0.003503	 -0.035914	 -0.003418,
 -0.004416	 -0.030427	 -0.003206,
 -0.004837	 -0.024885	 -0.002997,
 -0.005288	 -0.019331	 -0.002826,
  0.005123	 -0.013041	  0.004928,
  0.002200	 -0.012785	  0.007482,
 -0.003343	 -0.012470	  0.007475,
 -0.006121	 -0.012704	  0.002140,
 -0.006006	 -0.013817	 -0.002647,
  0.000170	 -0.025952	 -0.005363,
 -0.001672	 -0.030707	 -0.004978,
  0.001991	 -0.018482	 -0.001686,
  0.005859	 -0.013028	  0.002143,
 -0.002339	 -0.024938	 -0.005066,
 -0.001499	 -0.019286	 -0.005801,
 -0.001496	 -0.013679	 -0.007134,
  0.004157	 -0.006789	  0.005946,
 -0.002694	 -0.006758	  0.006333,
 -0.005468	 -0.006815	  0.001282,
 -0.005424	 -0.008305	 -0.003093,
 -0.001182	 -0.007993	 -0.006979,
  0.000550	 -0.019463	 -0.005134,
  0.005309	 -0.013690	 -0.002378,
  0.005939	 -0.007004	  0.002915,
  0.003311	 -0.013943	 -0.006366,
  0.003759	 -0.007657	 -0.006299,
  0.000916	 -0.008327	  0.000575,
  0.005121	 -0.007657	 -0.002218,
]
}
coordIndex [
   0,	   1,	   2, -1
   3,	   0,	   2, -1
   0,	   4,	   1, -1
   5,	   4,	   0, -1
   5,	   0,	   3, -1
   2,	   1,	   6, -1
   1,	   7,	   6, -1
   4,	   8,	   1, -1
   1,	   8,	   7, -1
   3,	   2,	   9, -1
   2,	   6,	  10, -1
   9,	   2,	  10, -1
  11,	   3,	   9, -1
   3,	  12,	   5, -1
   3,	  11,	  12, -1
   4,	  13,	   8, -1
  14,	  13,	   4, -1
   5,	  14,	   4, -1
  14,	   5,	  15, -1
  12,	  15,	   5, -1
   6,	   7,	  16, -1
   6,	  16,	  17, -1
  10,	   6,	  17, -1
   8,	  18,	   7, -1
   7,	  19,	  16, -1
   7,	  18,	  19, -1
  13,	  20,	   8, -1
   8,	  20,	  18, -1
  11,	   9,	  21, -1
   9,	  10,	  22, -1
  21,	   9,	  22, -1
  10,	  17,	  23, -1
  22,	  10,	  23, -1
  24,	  11,	  21, -1
  24,	  12,	  11, -1
  12,	  24,	  25, -1
  15,	  12,	  25, -1
  13,	  26,	  20, -1
  14,	  27,	  13, -1
  27,	  26,	  13, -1
  27,	  14,	  15, -1
  28,	  27,	  15, -1
  15,	  25,	  29, -1
  28,	  15,	  29, -1
  16,	  19,	  30, -1
  16,	  30,	  31, -1
  17,	  16,	  31, -1
  17,	  31,	  32, -1
  23,	  17,	  32, -1
  18,	  33,	  19, -1
  20,	  34,	  18, -1
  18,	  34,	  33, -1
  19,	  35,	  30, -1
  19,	  33,	  35, -1
  26,	  36,	  20, -1
  20,	  36,	  34, -1
  24,	  21,	  37, -1
  21,	  22,	  38, -1
  37,	  21,	  38, -1
  22,	  23,	  39, -1
  38,	  22,	  39, -1
  23,	  32,	  40, -1
  39,	  23,	  40, -1
  25,	  24,	  37, -1
  25,	  37,	  41, -1
  29,	  25,	  41, -1
  26,	  29,	  36, -1
  28,	  29,	  26, -1
  27,	  28,	  26, -1
  29,	  41,	  36, -1
  30,	  35,	  42, -1
  30,	  42,	  43, -1
  31,	  30,	  43, -1
  31,	  43,	  44, -1
  32,	  31,	  44, -1
  32,	  44,	  45, -1
  40,	  32,	  45, -1
  34,	  46,	  33, -1
  33,	  47,	  35, -1
  33,	  46,	  47, -1
  36,	  48,	  34, -1
  34,	  48,	  46, -1
  35,	  49,	  42, -1
  35,	  47,	  49, -1
  36,	  41,	  48, -1
  37,	  38,	  50, -1
  41,	  37,	  50, -1
  38,	  39,	  51, -1
  50,	  38,	  51, -1
  39,	  40,	  52, -1
  51,	  39,	  52, -1
  40,	  45,	  53, -1
  52,	  40,	  53, -1
  41,	  50,	  48, -1
  42,	  49,	  54, -1
  42,	  54,	  55, -1
  43,	  42,	  55, -1
  43,	  55,	  56, -1
  44,	  43,	  56, -1
  44,	  56,	  57, -1
  45,	  44,	  57, -1
  45,	  57,	  58, -1
  53,	  45,	  58, -1
  46,	  59,	  47, -1
  48,	  60,	  46, -1
  46,	  60,	  59, -1
  47,	  61,	  49, -1
  47,	  59,	  61, -1
  48,	  50,	  60, -1
  49,	  62,	  54, -1
  49,	  61,	  62, -1
  50,	  51,	  60, -1
  51,	  52,	  63, -1
  60,	  51,	  63, -1
  52,	  53,	  64, -1
  63,	  52,	  64, -1
  53,	  58,	  65, -1
  64,	  53,	  65, -1
  54,	  62,	  66, -1
  55,	  54,	  66, -1
  55,	  66,	  67, -1
  56,	  55,	  67, -1
  56,	  67,	  68, -1
  57,	  56,	  68, -1
  57,	  68,	  69, -1
  58,	  57,	  69, -1
  58,	  69,	  70, -1
  65,	  58,	  70, -1
  60,	  63,	  59, -1
  59,	  63,	  71, -1
  59,	  71,	  61, -1
  61,	  72,	  62, -1
  61,	  71,	  72, -1
  62,	  73,	  66, -1
  62,	  72,	  73, -1
  63,	  64,	  71, -1
  64,	  65,	  74, -1
  71,	  64,	  74, -1
  65,	  70,	  75, -1
  74,	  65,	  75, -1
  76,	  67,	  66, -1
  76,	  66,	  73, -1
  76,	  68,	  67, -1
  76,	  69,	  68, -1
  76,	  70,	  69, -1
  76,	  75,	  70, -1
  71,	  74,	  72, -1
  72,	  74,	  77, -1
  72,	  77,	  73, -1
  76,	  73,	  77, -1
  74,	  75,	  77, -1
  76,	  77,	  75, -1
]
colorPerVertex FALSE
colorIndex [
1,
1,
1,
1,
1,
1,
1,
1,
1,
1,
1,
1,
1,
1,
1,
1,
1,
1,
1,
1,
1,
1,
1,
1,
1,
1,
1,
1,
1,
1,
1,
1,
1,
1,
1,
1,
1,
1,
1,
1,
1,
1,
1,
1,
1,
1,
1,
1,
1,
1,
1,
1,
1,
1,
1,
1,
1,
1,
1,
1,
1,
1,
1,
1,
1,
1,
1,
1,
1,
1,
1,
1,
1,
1,
1,
1,
1,
1,
]
normal Normal {
vector [
  0.914466	  0.038429	 -0.402834,
  0.924149	  0.295400	 -0.242254,
  0.854583	  0.362690	  0.371679,
  0.678601	 -0.331697	  0.655346,
  0.931989	 -0.067816	 -0.356087,
  0.618646	 -0.758743	 -0.203926,
  0.901435	  0.172114	  0.397231,
  0.978613	  0.141979	 -0.148857,
  0.854732	  0.241619	 -0.459405,
 -0.162589	 -0.127278	  0.978450,
  0.129039	 -0.036200	  0.990979,
 -0.109811	 -0.132120	  0.985132,
 -0.099301	 -0.564997	  0.819095,
  0.779975	 -0.164269	 -0.603867,
  0.565639	 -0.824385	 -0.021030,
 -0.431476	 -0.850309	  0.301336,
  0.866507	 -0.016288	  0.498899,
  0.319910	 -0.085062	  0.943622,
  0.889874	  0.143546	 -0.433034,
  0.990460	  0.076860	 -0.114374,
  0.439835	  0.181889	 -0.879466,
 -0.620002	 -0.186147	  0.762199,
 -0.661942	 -0.172812	  0.729362,
 -0.618209	 -0.132273	  0.774804,
 -0.542690	 -0.185146	  0.819273,
 -0.888048	 -0.235041	  0.395129,
 -0.443360	 -0.070138	 -0.893596,
 -0.082576	 -0.815453	 -0.572903,
 -0.858079	 -0.354740	 -0.371296,
 -0.947312	 -0.132632	 -0.291562,
  0.881701	 -0.117613	  0.456913,
  0.266487	 -0.132767	  0.954651,
 -0.551876	 -0.110969	  0.826510,
  0.958190	  0.029076	 -0.284653,
  0.434634	  0.065748	 -0.898204,
  0.987104	 -0.059279	 -0.148699,
 -0.482129	 -0.072297	 -0.873112,
 -0.944595	 -0.213828	  0.249033,
 -0.954603	 -0.207403	  0.213816,
 -0.964973	 -0.132754	  0.226280,
 -0.966984	 -0.093270	  0.237156,
 -0.893026	 -0.177362	 -0.413579,
  0.887573	 -0.223894	  0.402600,
  0.253086	 -0.195857	  0.947411,
 -0.549101	 -0.176583	  0.816888,
 -0.957196	 -0.100590	  0.271397,
  0.529197	 -0.012052	 -0.848414,
  0.961920	 -0.042301	 -0.270039,
 -0.386616	 -0.069825	 -0.919594,
  0.956053	 -0.270287	 -0.113608,
 -0.847631	 -0.179646	 -0.499248,
 -0.869153	 -0.103063	 -0.483685,
 -0.886603	 -0.051751	 -0.459626,
 -0.885160	 -0.103604	 -0.453605,
  0.884642	 -0.198689	  0.421820,
  0.350632	 -0.030717	  0.936010,
 -0.545727	 -0.016719	  0.837796,
 -0.969605	 -0.010898	  0.244433,
 -0.910995	 -0.015759	 -0.412115,
  0.526965	 -0.020589	 -0.849637,
 -0.363131	 -0.046646	 -0.930570,
  0.918988	 -0.317576	 -0.233682,
  0.961634	 -0.253296	  0.105362,
 -0.314875	 -0.045724	 -0.948031,
 -0.217016	 -0.176428	 -0.960092,
 -0.293360	 -0.075091	 -0.953048,
  0.617675	  0.572199	  0.539505,
 -0.178712	  0.770378	  0.612029,
 -0.697439	  0.704935	  0.129017,
 -0.720798	  0.617594	 -0.314688,
 -0.397257	  0.613404	 -0.682585,
  0.590985	 -0.309321	 -0.745021,
  0.934404	 -0.274215	 -0.227363,
  0.789290	  0.613919	 -0.011207,
  0.612467	 -0.204649	 -0.763547,
  0.333386	  0.625910	 -0.705047,
 -0.029642	  0.994133	 -0.104020,
  0.748131	  0.595105	 -0.293512,
]
}
normalIndex [
   0,	   1,	   2, -1
   3,	   0,	   2, -1
   0,	   4,	   1, -1
   5,	   4,	   0, -1
   5,	   0,	   3, -1
   2,	   1,	   6, -1
   1,	   7,	   6, -1
   4,	   8,	   1, -1
   1,	   8,	   7, -1
   3,	   2,	   9, -1
   2,	   6,	  10, -1
   9,	   2,	  10, -1
  11,	   3,	   9, -1
   3,	  12,	   5, -1
   3,	  11,	  12, -1
   4,	  13,	   8, -1
  14,	  13,	   4, -1
   5,	  14,	   4, -1
  14,	   5,	  15, -1
  12,	  15,	   5, -1
   6,	   7,	  16, -1
   6,	  16,	  17, -1
  10,	   6,	  17, -1
   8,	  18,	   7, -1
   7,	  19,	  16, -1
   7,	  18,	  19, -1
  13,	  20,	   8, -1
   8,	  20,	  18, -1
  11,	   9,	  21, -1
   9,	  10,	  22, -1
  21,	   9,	  22, -1
  10,	  17,	  23, -1
  22,	  10,	  23, -1
  24,	  11,	  21, -1
  24,	  12,	  11, -1
  12,	  24,	  25, -1
  15,	  12,	  25, -1
  13,	  26,	  20, -1
  14,	  27,	  13, -1
  27,	  26,	  13, -1
  27,	  14,	  15, -1
  28,	  27,	  15, -1
  15,	  25,	  29, -1
  28,	  15,	  29, -1
  16,	  19,	  30, -1
  16,	  30,	  31, -1
  17,	  16,	  31, -1
  17,	  31,	  32, -1
  23,	  17,	  32, -1
  18,	  33,	  19, -1
  20,	  34,	  18, -1
  18,	  34,	  33, -1
  19,	  35,	  30, -1
  19,	  33,	  35, -1
  26,	  36,	  20, -1
  20,	  36,	  34, -1
  24,	  21,	  37, -1
  21,	  22,	  38, -1
  37,	  21,	  38, -1
  22,	  23,	  39, -1
  38,	  22,	  39, -1
  23,	  32,	  40, -1
  39,	  23,	  40, -1
  25,	  24,	  37, -1
  25,	  37,	  41, -1
  29,	  25,	  41, -1
  26,	  29,	  36, -1
  28,	  29,	  26, -1
  27,	  28,	  26, -1
  29,	  41,	  36, -1
  30,	  35,	  42, -1
  30,	  42,	  43, -1
  31,	  30,	  43, -1
  31,	  43,	  44, -1
  32,	  31,	  44, -1
  32,	  44,	  45, -1
  40,	  32,	  45, -1
  34,	  46,	  33, -1
  33,	  47,	  35, -1
  33,	  46,	  47, -1
  36,	  48,	  34, -1
  34,	  48,	  46, -1
  35,	  49,	  42, -1
  35,	  47,	  49, -1
  36,	  41,	  48, -1
  37,	  38,	  50, -1
  41,	  37,	  50, -1
  38,	  39,	  51, -1
  50,	  38,	  51, -1
  39,	  40,	  52, -1
  51,	  39,	  52, -1
  40,	  45,	  53, -1
  52,	  40,	  53, -1
  41,	  50,	  48, -1
  42,	  49,	  54, -1
  42,	  54,	  55, -1
  43,	  42,	  55, -1
  43,	  55,	  56, -1
  44,	  43,	  56, -1
  44,	  56,	  57, -1
  45,	  44,	  57, -1
  45,	  57,	  58, -1
  53,	  45,	  58, -1
  46,	  59,	  47, -1
  48,	  60,	  46, -1
  46,	  60,	  59, -1
  47,	  61,	  49, -1
  47,	  59,	  61, -1
  48,	  50,	  60, -1
  49,	  62,	  54, -1
  49,	  61,	  62, -1
  50,	  51,	  60, -1
  51,	  52,	  63, -1
  60,	  51,	  63, -1
  52,	  53,	  64, -1
  63,	  52,	  64, -1
  53,	  58,	  65, -1
  64,	  53,	  65, -1
  54,	  62,	  66, -1
  55,	  54,	  66, -1
  55,	  66,	  67, -1
  56,	  55,	  67, -1
  56,	  67,	  68, -1
  57,	  56,	  68, -1
  57,	  68,	  69, -1
  58,	  57,	  69, -1
  58,	  69,	  70, -1
  65,	  58,	  70, -1
  60,	  63,	  59, -1
  59,	  63,	  71, -1
  59,	  71,	  61, -1
  61,	  72,	  62, -1
  61,	  71,	  72, -1
  62,	  73,	  66, -1
  62,	  72,	  73, -1
  63,	  64,	  71, -1
  64,	  65,	  74, -1
  71,	  64,	  74, -1
  65,	  70,	  75, -1
  74,	  65,	  75, -1
  76,	  67,	  66, -1
  76,	  66,	  73, -1
  76,	  68,	  67, -1
  76,	  69,	  68, -1
  76,	  70,	  69, -1
  76,	  75,	  70, -1
  71,	  74,	  72, -1
  72,	  74,	  77, -1
  72,	  77,	  73, -1
  76,	  73,	  77, -1
  74,	  75,	  77, -1
  76,	  77,	  75, -1
]
normalPerVertex TRUE
}
}
]
}
