#VRML V2.0 utf8
Transform {
children [
Shape {
appearance Appearance {
              material DEF surface Material {
              diffuseColor 0.8 0.8 0.8
              ambientIntensity 0.2
              specularColor 0.4 0.4 0.4
              emissiveColor 0 0 0
              shininess 0.25
              transparency 0
            }
          }
geometry IndexedFaceSet {
solid FALSE
coord DEF bone Coordinate {
point [
  0.005339	 -0.001145	  0.004101,
  0.004536	 -0.001437	 -0.001566,
 -0.000204	 -0.001971	 -0.005659,
 -0.004464	 -0.001941	 -0.001279,
 -0.004086	 -0.001778	  0.003326,
  0.003462	 -0.006081	  0.004360,
  0.001087	 -0.001027	  0.006395,
  0.001019	 -0.005503	  0.006043,
  0.003440	 -0.006156	 -0.000446,
  0.000697	 -0.006867	 -0.004595,
 -0.003639	 -0.006705	 -0.000761,
 -0.003293	 -0.006382	  0.003120,
  0.003011	 -0.011203	  0.004679,
  0.001096	 -0.010187	  0.005829,
 -0.002170	 -0.010787	  0.004272,
  0.002455	 -0.010886	  0.000845,
  0.000655	 -0.011842	 -0.002712,
 -0.002768	 -0.011462	 -0.000357,
  0.003396	 -0.016702	  0.005756,
  0.000971	 -0.014806	  0.006034,
 -0.001410	 -0.015360	  0.005078,
 -0.002325	 -0.016235	  0.000692,
  0.002557	 -0.015805	  0.001597,
  0.000839	 -0.017095	 -0.001584,
  0.001780	 -0.019345	  0.006644,
  0.004870	 -0.021493	  0.006563,
 -0.000888	 -0.020087	  0.005129,
 -0.002014	 -0.021057	  0.001483,
  0.001839	 -0.022170	 -0.000140,
  0.003595	 -0.020558	  0.002431,
  0.002495	 -0.023917	  0.007188,
  0.000088	 -0.024666	  0.004997,
  0.007573	 -0.025526	  0.006792,
 -0.001273	 -0.025884	  0.002220,
  0.002847	 -0.027330	 -0.000884,
  0.005027	 -0.025339	  0.003263,
  0.002114	 -0.028749	  0.005765,
  0.002823	 -0.028553	  0.007542,
  0.000941	 -0.030017	  0.002398,
  0.004182	 -0.028489	  0.007822,
  0.001297	 -0.030327	  0.002277,
  0.004258	 -0.029377	  0.004963,
]
}
coordIndex [
   0,	   1,	   2, -1
   0,	   2,	   3, -1
   0,	   3,	   4, -1
   1,	   0,	   5, -1
   0,	   6,	   7, -1
   0,	   7,	   5, -1
   4,	   6,	   0, -1
   1,	   5,	   8, -1
   2,	   1,	   8, -1
   2,	   8,	   9, -1
   3,	   2,	   9, -1
   3,	   9,	  10, -1
   4,	   3,	  10, -1
   4,	  10,	  11, -1
   6,	   4,	  11, -1
   8,	   5,	  12, -1
   5,	   7,	  13, -1
   5,	  13,	  12, -1
   6,	  11,	   7, -1
   7,	  11,	  14, -1
   7,	  14,	  13, -1
   8,	  12,	  15, -1
   9,	   8,	  15, -1
   9,	  15,	  16, -1
  10,	   9,	  16, -1
  10,	  16,	  17, -1
  11,	  10,	  17, -1
  11,	  17,	  14, -1
  15,	  12,	  18, -1
  12,	  13,	  19, -1
  12,	  19,	  18, -1
  13,	  14,	  20, -1
  13,	  20,	  19, -1
  14,	  17,	  21, -1
  14,	  21,	  20, -1
  15,	  18,	  22, -1
  16,	  15,	  22, -1
  16,	  22,	  23, -1
  17,	  16,	  23, -1
  17,	  23,	  21, -1
  18,	  24,	  25, -1
  22,	  18,	  25, -1
  18,	  19,	  24, -1
  19,	  20,	  26, -1
  19,	  26,	  24, -1
  20,	  21,	  27, -1
  20,	  27,	  26, -1
  21,	  23,	  28, -1
  21,	  28,	  27, -1
  23,	  22,	  29, -1
  22,	  25,	  29, -1
  23,	  29,	  28, -1
  25,	  24,	  30, -1
  24,	  26,	  31, -1
  24,	  31,	  30, -1
  29,	  25,	  32, -1
  25,	  30,	  32, -1
  26,	  27,	  33, -1
  26,	  33,	  31, -1
  27,	  28,	  34, -1
  27,	  34,	  33, -1
  28,	  29,	  35, -1
  28,	  35,	  34, -1
  29,	  32,	  35, -1
  30,	  31,	  36, -1
  30,	  36,	  37, -1
  32,	  30,	  37, -1
  31,	  33,	  38, -1
  31,	  38,	  36, -1
  35,	  32,	  39, -1
  32,	  37,	  39, -1
  33,	  34,	  40, -1
  33,	  40,	  38, -1
  34,	  35,	  41, -1
  34,	  41,	  40, -1
  35,	  39,	  41, -1
  40,	  41,	  36, -1
  40,	  36,	  38, -1
  41,	  37,	  36, -1
  41,	  39,	  37, -1
]
colorPerVertex FALSE
colorIndex [
1,
1,
1,
1,
1,
1,
1,
1,
1,
1,
1,
1,
1,
1,
1,
1,
1,
1,
1,
1,
1,
1,
1,
1,
1,
1,
1,
1,
1,
1,
1,
1,
1,
1,
1,
1,
1,
1,
1,
1,
1,
1,
]
normal Normal {
vector [
  0.421194	  0.845051	  0.329369,
  0.944127	  0.036951	 -0.327505,
  0.254621	  0.560549	 -0.788006,
 -0.780246	  0.437064	 -0.447427,
 -0.825987	  0.489956	  0.278728,
  0.871185	 -0.164735	  0.462493,
 -0.240805	  0.280365	  0.929198,
  0.004764	 -0.058936	  0.998250,
  0.919911	 -0.201621	 -0.336321,
  0.146778	 -0.306840	 -0.940375,
 -0.904653	 -0.213656	 -0.368721,
 -0.838932	 -0.122193	  0.530341,
  0.875381	 -0.011167	  0.483304,
  0.067942	  0.017068	  0.997543,
 -0.810458	 -0.052764	  0.583416,
  0.941807	 -0.123537	 -0.312630,
  0.233474	 -0.236440	 -0.943179,
 -0.903648	 -0.197954	 -0.379782,
  0.817137	  0.202230	  0.539805,
 -0.038920	  0.081394	  0.995922,
 -0.758532	 -0.027016	  0.651076,
 -0.914112	 -0.186635	 -0.359954,
  0.938753	  0.069189	 -0.337573,
  0.198636	 -0.178871	 -0.963612,
 -0.198623	  0.074410	  0.977247,
  0.745105	  0.347487	  0.569272,
 -0.726294	 -0.092780	  0.681093,
 -0.922297	 -0.117917	 -0.368054,
  0.230680	 -0.016818	 -0.972884,
  0.870448	  0.186053	 -0.455746,
 -0.363827	  0.024904	  0.931134,
 -0.722852	 -0.210728	  0.658087,
  0.768466	  0.238864	  0.593636,
 -0.924937	 -0.336405	 -0.176985,
  0.165536	 -0.338229	 -0.926390,
  0.887501	 -0.129810	 -0.442144,
 -0.616580	 -0.605045	  0.503736,
 -0.382632	 -0.415823	  0.825035,
 -0.811394	 -0.550616	  0.196116,
  0.640187	 -0.662031	  0.389711,
 -0.350219	 -0.894340	 -0.278391,
  0.471142	 -0.879941	  0.061059,
]
}
normalIndex [
   0,	   1,	   2, -1
   0,	   2,	   3, -1
   0,	   3,	   4, -1
   1,	   0,	   5, -1
   0,	   6,	   7, -1
   0,	   7,	   5, -1
   4,	   6,	   0, -1
   1,	   5,	   8, -1
   2,	   1,	   8, -1
   2,	   8,	   9, -1
   3,	   2,	   9, -1
   3,	   9,	  10, -1
   4,	   3,	  10, -1
   4,	  10,	  11, -1
   6,	   4,	  11, -1
   8,	   5,	  12, -1
   5,	   7,	  13, -1
   5,	  13,	  12, -1
   6,	  11,	   7, -1
   7,	  11,	  14, -1
   7,	  14,	  13, -1
   8,	  12,	  15, -1
   9,	   8,	  15, -1
   9,	  15,	  16, -1
  10,	   9,	  16, -1
  10,	  16,	  17, -1
  11,	  10,	  17, -1
  11,	  17,	  14, -1
  15,	  12,	  18, -1
  12,	  13,	  19, -1
  12,	  19,	  18, -1
  13,	  14,	  20, -1
  13,	  20,	  19, -1
  14,	  17,	  21, -1
  14,	  21,	  20, -1
  15,	  18,	  22, -1
  16,	  15,	  22, -1
  16,	  22,	  23, -1
  17,	  16,	  23, -1
  17,	  23,	  21, -1
  18,	  24,	  25, -1
  22,	  18,	  25, -1
  18,	  19,	  24, -1
  19,	  20,	  26, -1
  19,	  26,	  24, -1
  20,	  21,	  27, -1
  20,	  27,	  26, -1
  21,	  23,	  28, -1
  21,	  28,	  27, -1
  23,	  22,	  29, -1
  22,	  25,	  29, -1
  23,	  29,	  28, -1
  25,	  24,	  30, -1
  24,	  26,	  31, -1
  24,	  31,	  30, -1
  29,	  25,	  32, -1
  25,	  30,	  32, -1
  26,	  27,	  33, -1
  26,	  33,	  31, -1
  27,	  28,	  34, -1
  27,	  34,	  33, -1
  28,	  29,	  35, -1
  28,	  35,	  34, -1
  29,	  32,	  35, -1
  30,	  31,	  36, -1
  30,	  36,	  37, -1
  32,	  30,	  37, -1
  31,	  33,	  38, -1
  31,	  38,	  36, -1
  35,	  32,	  39, -1
  32,	  37,	  39, -1
  33,	  34,	  40, -1
  33,	  40,	  38, -1
  34,	  35,	  41, -1
  34,	  41,	  40, -1
  35,	  39,	  41, -1
  40,	  41,	  36, -1
  40,	  36,	  38, -1
  41,	  37,	  36, -1
  41,	  39,	  37, -1
]
normalPerVertex TRUE
}
}
]
}
