#VRML V2.0 utf8
Transform {
children [
Shape {
appearance Appearance {
              material DEF surface Material {
              diffuseColor 0.8 0.8 0.8
              ambientIntensity 0.2
              specularColor 0.4 0.4 0.4
              emissiveColor 0 0 0
              shininess 0.25
              transparency 0
            }
          }
geometry IndexedFaceSet {
solid FALSE
coord DEF bone Coordinate {
point [
 -0.000204	 -0.001971	  0.005659,
  0.004536	 -0.001437	  0.001566,
  0.005339	 -0.001145	 -0.004101,
 -0.004464	 -0.001941	  0.001279,
  0.003440	 -0.006156	  0.000446,
  0.000697	 -0.006867	  0.004595,
  0.003462	 -0.006081	 -0.004360,
 -0.004086	 -0.001778	 -0.003326,
  0.001019	 -0.005503	 -0.006043,
  0.001087	 -0.001027	 -0.006395,
 -0.003639	 -0.006705	  0.000761,
  0.003011	 -0.011203	 -0.004679,
  0.002455	 -0.010886	 -0.000845,
  0.000655	 -0.011842	  0.002712,
  0.001096	 -0.010187	 -0.005829,
 -0.003293	 -0.006382	 -0.003120,
 -0.002170	 -0.010787	 -0.004272,
 -0.002768	 -0.011462	  0.000357,
  0.003396	 -0.016702	 -0.005756,
  0.000971	 -0.014806	 -0.006034,
  0.002557	 -0.015805	 -0.001597,
  0.000839	 -0.017095	  0.001584,
 -0.001410	 -0.015360	 -0.005078,
 -0.002325	 -0.016235	 -0.000692,
  0.004870	 -0.021493	 -0.006563,
  0.001780	 -0.019345	 -0.006644,
 -0.000888	 -0.020087	 -0.005129,
  0.003595	 -0.020558	 -0.002431,
  0.001839	 -0.022170	  0.000140,
 -0.002014	 -0.021057	 -0.001483,
  0.002495	 -0.023917	 -0.007188,
  0.007573	 -0.025526	 -0.006792,
  0.000088	 -0.024666	 -0.004997,
 -0.001273	 -0.025884	 -0.002220,
  0.005027	 -0.025339	 -0.003263,
  0.002847	 -0.027330	  0.000884,
  0.002114	 -0.028749	 -0.005765,
  0.002823	 -0.028553	 -0.007542,
  0.004182	 -0.028489	 -0.007822,
  0.000941	 -0.030017	 -0.002398,
  0.001297	 -0.030327	 -0.002277,
  0.004258	 -0.029377	 -0.004963,
]
}
coordIndex [
   0,	   1,	   2, -1
   3,	   0,	   2, -1
   4,	   1,	   0, -1
   5,	   4,	   0, -1
   5,	   0,	   3, -1
   6,	   2,	   1, -1
   4,	   6,	   1, -1
   7,	   3,	   2, -1
   8,	   9,	   2, -1
   6,	   8,	   2, -1
   2,	   9,	   7, -1
  10,	   5,	   3, -1
  10,	   3,	   7, -1
  11,	   6,	   4, -1
  12,	  11,	   4, -1
  12,	   4,	   5, -1
  13,	  12,	   5, -1
  13,	   5,	  10, -1
  14,	   8,	   6, -1
  11,	  14,	   6, -1
  15,	  10,	   7, -1
  15,	   7,	   9, -1
   8,	  15,	   9, -1
  16,	  15,	   8, -1
  14,	  16,	   8, -1
  17,	  13,	  10, -1
  17,	  10,	  15, -1
  18,	  11,	  12, -1
  19,	  14,	  11, -1
  18,	  19,	  11, -1
  20,	  18,	  12, -1
  20,	  12,	  13, -1
  21,	  20,	  13, -1
  21,	  13,	  17, -1
  22,	  16,	  14, -1
  19,	  22,	  14, -1
  16,	  17,	  15, -1
  23,	  17,	  16, -1
  22,	  23,	  16, -1
  23,	  21,	  17, -1
  24,	  25,	  18, -1
  24,	  18,	  20, -1
  25,	  19,	  18, -1
  26,	  22,	  19, -1
  25,	  26,	  19, -1
  27,	  20,	  21, -1
  27,	  24,	  20, -1
  28,	  21,	  23, -1
  28,	  27,	  21, -1
  29,	  23,	  22, -1
  26,	  29,	  22, -1
  29,	  28,	  23, -1
  30,	  25,	  24, -1
  31,	  24,	  27, -1
  31,	  30,	  24, -1
  32,	  26,	  25, -1
  30,	  32,	  25, -1
  33,	  29,	  26, -1
  32,	  33,	  26, -1
  34,	  27,	  28, -1
  34,	  31,	  27, -1
  35,	  28,	  29, -1
  35,	  34,	  28, -1
  33,	  35,	  29, -1
  36,	  32,	  30, -1
  37,	  36,	  30, -1
  37,	  30,	  31, -1
  38,	  31,	  34, -1
  38,	  37,	  31, -1
  39,	  33,	  32, -1
  36,	  39,	  32, -1
  40,	  35,	  33, -1
  39,	  40,	  33, -1
  41,	  34,	  35, -1
  41,	  38,	  34, -1
  40,	  41,	  35, -1
  36,	  41,	  40, -1
  39,	  36,	  40, -1
  36,	  37,	  41, -1
  37,	  38,	  41, -1
]
colorPerVertex FALSE
colorIndex [
1,
1,
1,
1,
1,
1,
1,
1,
1,
1,
1,
1,
1,
1,
1,
1,
1,
1,
1,
1,
1,
1,
1,
1,
1,
1,
1,
1,
1,
1,
1,
1,
1,
1,
1,
1,
1,
1,
1,
1,
1,
1,
]
normal Normal {
vector [
  0.254621	  0.560549	  0.788006,
  0.944127	  0.036951	  0.327505,
  0.421194	  0.845051	 -0.329369,
 -0.780246	  0.437064	  0.447427,
  0.919911	 -0.201621	  0.336321,
  0.146778	 -0.306840	  0.940375,
  0.871185	 -0.164735	 -0.462493,
 -0.825987	  0.489956	 -0.278728,
  0.004764	 -0.058936	 -0.998250,
 -0.240805	  0.280365	 -0.929198,
 -0.904653	 -0.213656	  0.368721,
  0.875381	 -0.011167	 -0.483304,
  0.941807	 -0.123537	  0.312630,
  0.233474	 -0.236440	  0.943179,
  0.067942	  0.017068	 -0.997543,
 -0.838932	 -0.122193	 -0.530341,
 -0.810458	 -0.052764	 -0.583416,
 -0.903648	 -0.197954	  0.379782,
  0.817137	  0.202230	 -0.539805,
 -0.038920	  0.081394	 -0.995922,
  0.938753	  0.069189	  0.337573,
  0.198636	 -0.178871	  0.963612,
 -0.758532	 -0.027016	 -0.651076,
 -0.914112	 -0.186635	  0.359954,
  0.745105	  0.347487	 -0.569272,
 -0.198623	  0.074410	 -0.977247,
 -0.726294	 -0.092780	 -0.681093,
  0.870448	  0.186053	  0.455746,
  0.230680	 -0.016818	  0.972884,
 -0.922297	 -0.117917	  0.368054,
 -0.363827	  0.024904	 -0.931134,
  0.768466	  0.238864	 -0.593636,
 -0.722852	 -0.210728	 -0.658087,
 -0.924937	 -0.336405	  0.176985,
  0.887501	 -0.129810	  0.442144,
  0.165536	 -0.338229	  0.926390,
 -0.616580	 -0.605045	 -0.503736,
 -0.382632	 -0.415823	 -0.825035,
  0.640187	 -0.662031	 -0.389711,
 -0.811394	 -0.550616	 -0.196116,
 -0.350219	 -0.894340	  0.278391,
  0.471142	 -0.879941	 -0.061059,
]
}
normalIndex [
   0,	   1,	   2, -1
   3,	   0,	   2, -1
   4,	   1,	   0, -1
   5,	   4,	   0, -1
   5,	   0,	   3, -1
   6,	   2,	   1, -1
   4,	   6,	   1, -1
   7,	   3,	   2, -1
   8,	   9,	   2, -1
   6,	   8,	   2, -1
   2,	   9,	   7, -1
  10,	   5,	   3, -1
  10,	   3,	   7, -1
  11,	   6,	   4, -1
  12,	  11,	   4, -1
  12,	   4,	   5, -1
  13,	  12,	   5, -1
  13,	   5,	  10, -1
  14,	   8,	   6, -1
  11,	  14,	   6, -1
  15,	  10,	   7, -1
  15,	   7,	   9, -1
   8,	  15,	   9, -1
  16,	  15,	   8, -1
  14,	  16,	   8, -1
  17,	  13,	  10, -1
  17,	  10,	  15, -1
  18,	  11,	  12, -1
  19,	  14,	  11, -1
  18,	  19,	  11, -1
  20,	  18,	  12, -1
  20,	  12,	  13, -1
  21,	  20,	  13, -1
  21,	  13,	  17, -1
  22,	  16,	  14, -1
  19,	  22,	  14, -1
  16,	  17,	  15, -1
  23,	  17,	  16, -1
  22,	  23,	  16, -1
  23,	  21,	  17, -1
  24,	  25,	  18, -1
  24,	  18,	  20, -1
  25,	  19,	  18, -1
  26,	  22,	  19, -1
  25,	  26,	  19, -1
  27,	  20,	  21, -1
  27,	  24,	  20, -1
  28,	  21,	  23, -1
  28,	  27,	  21, -1
  29,	  23,	  22, -1
  26,	  29,	  22, -1
  29,	  28,	  23, -1
  30,	  25,	  24, -1
  31,	  24,	  27, -1
  31,	  30,	  24, -1
  32,	  26,	  25, -1
  30,	  32,	  25, -1
  33,	  29,	  26, -1
  32,	  33,	  26, -1
  34,	  27,	  28, -1
  34,	  31,	  27, -1
  35,	  28,	  29, -1
  35,	  34,	  28, -1
  33,	  35,	  29, -1
  36,	  32,	  30, -1
  37,	  36,	  30, -1
  37,	  30,	  31, -1
  38,	  31,	  34, -1
  38,	  37,	  31, -1
  39,	  33,	  32, -1
  36,	  39,	  32, -1
  40,	  35,	  33, -1
  39,	  40,	  33, -1
  41,	  34,	  35, -1
  41,	  38,	  34, -1
  40,	  41,	  35, -1
  36,	  41,	  40, -1
  39,	  36,	  40, -1
  36,	  37,	  41, -1
  37,	  38,	  41, -1
]
normalPerVertex TRUE
}
}
]
}
