# 
# Wavefront OBJ file
# Converted by the DEEP Exploration 2.00.1211
# Right Hemisphere, LTD
# http://www.righthemisphere.com/
# 
mtllib ring2_r.mtl
# object Object #0
g Object__0
v 0.005339 -0.001145 0.004101
v 0.004536 -0.001437 -0.001566
v -0.000204 -0.001971 -0.005659
v -0.004464 -0.001941 -0.001279
v -0.004086 -0.001778 0.003326
v 0.003462 -0.006081 0.00436
v 0.001087 -0.001027 0.006395
v 0.001019 -0.005503 0.006043
v 0.00344 -0.006156 -0.000446
v 0.000697 -0.006867 -0.004595
v -0.003639 -0.006705 -0.000761
v -0.003293 -0.006382 0.00312
v 0.003011 -0.011203 0.004679
v 0.001096 -0.010187 0.005829
v -0.00217 -0.010787 0.004272
v 0.002455 -0.010886 0.000845
v 0.000655 -0.011842 -0.002712
v -0.002768 -0.011462 -0.000357
v 0.003396 -0.016702 0.005756
v 0.000971 -0.014806 0.006034
v -0.00141 -0.01536 0.005078
v -0.002325 -0.016235 0.000692
v 0.002557 -0.015805 0.001597
v 0.000839 -0.017095 -0.001584
v 0.00178 -0.019345 0.006644
v 0.00487 -0.021493 0.006563
v -0.000888 -0.020087 0.005129
v -0.002014 -0.021057 0.001483
v 0.001839 -0.02217 -0.00014
v 0.003595 -0.020558 0.002431
v 0.002495 -0.023917 0.007188
v 8.8e-005 -0.024666 0.004997
v 0.007573 -0.025526 0.006792
v -0.001273 -0.025884 0.00222
v 0.002847 -0.02733 -0.000884
v 0.005027 -0.025339 0.003263
v 0.002114 -0.028749 0.005765
v 0.002823 -0.028553 0.007542
v 0.000941 -0.030017 0.002398
v 0.004182 -0.028489 0.007822
v 0.001297 -0.030327 0.002277
v 0.004258 -0.029377 0.004963
# 42 verticies
vn 0.421194 0.845051 0.329369
vn 0.944127 0.036951 -0.327505
vn 0.254621 0.560549 -0.788006
vn -0.780246 0.437064 -0.447427
vn -0.825987 0.489956 0.278728
vn 0.871185 -0.164735 0.462493
vn -0.240805 0.280365 0.929198
vn 0.004764 -0.058936 0.99825
vn 0.919911 -0.201621 -0.336321
vn 0.146778 -0.30684 -0.940375
vn -0.904652 -0.213656 -0.368721
vn -0.838932 -0.122193 0.530341
vn 0.875381 -0.011167 0.483304
vn 0.067942 0.017068 0.997543
vn -0.810458 -0.052764 0.583416
vn 0.941807 -0.123537 -0.31263
vn 0.233474 -0.23644 -0.943179
vn -0.903648 -0.197954 -0.379782
vn 0.817137 0.20223 0.539805
vn -0.03892 0.081394 0.995922
vn -0.758532 -0.027016 0.651076
vn -0.914112 -0.186635 -0.359954
vn 0.938753 0.069189 -0.337573
vn 0.198636 -0.178871 -0.963612
vn -0.198623 0.07441 0.977247
vn 0.745105 0.347487 0.569272
vn -0.726294 -0.0927801 0.681093
vn -0.922297 -0.117917 -0.368054
vn 0.23068 -0.016818 -0.972884
vn 0.870448 0.186053 -0.455746
vn -0.363827 0.024904 0.931134
vn -0.722852 -0.210728 0.658087
vn 0.768466 0.238864 0.593636
vn -0.924937 -0.336405 -0.176985
vn 0.165536 -0.338229 -0.92639
vn 0.887501 -0.12981 -0.442144
vn -0.61658 -0.605045 0.503736
vn -0.382632 -0.415823 0.825036
vn -0.811394 -0.550616 0.196116
vn 0.640187 -0.662031 0.389711
vn -0.350219 -0.89434 -0.278391
vn 0.471142 -0.879941 0.061059
# 42 normals
usemtl Material__1
f  1//1 2//2 3//3
f  1//1 3//3 4//4
f  1//1 4//4 5//5
f  2//2 1//1 6//6
f  1//1 7//7 8//8
f  1//1 8//8 6//6
f  5//5 7//7 1//1
f  2//2 6//6 9//9
f  3//3 2//2 9//9
f  3//3 9//9 10//10
f  4//4 3//3 10//10
f  4//4 10//10 11//11
f  5//5 4//4 11//11
f  5//5 11//11 12//12
f  7//7 5//5 12//12
f  9//9 6//6 13//13
f  6//6 8//8 14//14
f  6//6 14//14 13//13
f  7//7 12//12 8//8
f  8//8 12//12 15//15
f  8//8 15//15 14//14
f  9//9 13//13 16//16
f  10//10 9//9 16//16
f  10//10 16//16 17//17
f  11//11 10//10 17//17
f  11//11 17//17 18//18
f  12//12 11//11 18//18
f  12//12 18//18 15//15
f  16//16 13//13 19//19
f  13//13 14//14 20//20
f  13//13 20//20 19//19
f  14//14 15//15 21//21
f  14//14 21//21 20//20
f  15//15 18//18 22//22
f  15//15 22//22 21//21
f  16//16 19//19 23//23
f  17//17 16//16 23//23
f  17//17 23//23 24//24
f  18//18 17//17 24//24
f  18//18 24//24 22//22
f  19//19 25//25 26//26
f  23//23 19//19 26//26
f  19//19 20//20 25//25
f  20//20 21//21 27//27
f  20//20 27//27 25//25
f  21//21 22//22 28//28
f  21//21 28//28 27//27
f  22//22 24//24 29//29
f  22//22 29//29 28//28
f  24//24 23//23 30//30
f  23//23 26//26 30//30
f  24//24 30//30 29//29
f  26//26 25//25 31//31
f  25//25 27//27 32//32
f  25//25 32//32 31//31
f  30//30 26//26 33//33
f  26//26 31//31 33//33
f  27//27 28//28 34//34
f  27//27 34//34 32//32
f  28//28 29//29 35//35
f  28//28 35//35 34//34
f  29//29 30//30 36//36
f  29//29 36//36 35//35
f  30//30 33//33 36//36
f  31//31 32//32 37//37
f  31//31 37//37 38//38
f  33//33 31//31 38//38
f  32//32 34//34 39//39
f  32//32 39//39 37//37
f  36//36 33//33 40//40
f  33//33 38//38 40//40
f  34//34 35//35 41//41
f  34//34 41//41 39//39
f  35//35 36//36 42//42
f  35//35 42//42 41//41
f  36//36 40//40 42//42
f  41//41 42//42 37//37
f  41//41 37//37 39//39
f  42//42 38//38 37//37
f  42//42 40//40 38//38
