#VRML V2.0 utf8 
Transform { 
 children [ 
    Shape { 
appearance Appearance {
              material DEF surface Material {
              diffuseColor 0.8 0.8 0.8
              ambientIntensity 0.2
              specularColor 0.4 0.4 0.4
              emissiveColor 0 0 0
              shininess 0.25
              transparency 0
            }
          }
   geometry IndexedFaceSet { 
   solid FALSE 
    coord DEF bone Coordinate{ 
     point [ 
	 -0.028677  -0.082716   0.000000,
	 -0.029596  -0.084038   0.005291,
	 -0.024652  -0.085626   0.002428,
	 -0.026327  -0.084402   0.000000,
	 -0.032288  -0.080942   0.006412,
	 -0.033459  -0.077089   0.000000,
	 -0.029596  -0.084038  -0.005291,
	 -0.032288  -0.080942  -0.006412,
	 -0.034685  -0.078101  -0.007954,
	 -0.029240  -0.086323   0.007193,
	 -0.025309  -0.088823   0.002534,
	 -0.033376  -0.085256   0.008109,
	 -0.031938  -0.087296   0.004402,
	 -0.035155  -0.082550   0.008895,
	 -0.037010  -0.083633   0.005093,
	 -0.025308  -0.088822   0.000000,
	 -0.024651  -0.085625   0.000000,
	 -0.024652  -0.085626  -0.002428,
	 -0.034685  -0.078101   0.007954,
	 -0.036597  -0.079768   0.005501,
	 -0.036743  -0.072474   0.008009,
	 -0.040932  -0.064860   0.000000,
	 -0.036743  -0.072474  -0.008009,
	 -0.029240  -0.086323  -0.007193,
	 -0.033376  -0.085256  -0.008109,
	 -0.035155  -0.082550  -0.008895,
	 -0.036597  -0.079768  -0.005501,
	 -0.037010  -0.083633  -0.005093,
	 -0.035899  -0.077122  -0.013193,
	 -0.035980  -0.079502  -0.012602,
	 -0.031985  -0.090114   0.006547,
	 -0.027292  -0.092835   0.002492,
	 -0.033892  -0.088772   0.000000,
	 -0.027077  -0.093760   0.000000,
	 -0.035940  -0.086219   0.001851,
	 -0.038076  -0.084567   0.000000,
	 -0.025309  -0.088823  -0.002534,
	 -0.035899  -0.077122   0.013193,
	 -0.035980  -0.079502   0.012602,
	 -0.038568  -0.081697   0.000000,
	 -0.041232  -0.076398   0.000000,
	 -0.046815  -0.073193   0.010537,
	 -0.037857  -0.073326   0.015437,
	 -0.039939  -0.071031   0.014841,
	 -0.041921  -0.067780   0.011072,
	 -0.039849  -0.065241   0.008256,
	 -0.042575  -0.053836   0.011243,
	 -0.042624  -0.053123   0.000000,
	 -0.039849  -0.065241  -0.008256,
	 -0.042575  -0.053836  -0.011243,
	 -0.037857  -0.073326  -0.015437,
	 -0.039939  -0.071031  -0.014841,
	 -0.041921  -0.067780  -0.011072,
	 -0.031938  -0.087296  -0.004402,
	 -0.031985  -0.090114  -0.006547,
	 -0.035940  -0.086219  -0.001851,
	 -0.046815  -0.073193  -0.010537,
	 -0.031210  -0.090501   0.000000,
	 -0.027292  -0.092835  -0.002492,
	 -0.045358  -0.069562   0.000000,
	 -0.044286  -0.068186   0.007357,
	 -0.036992  -0.058343   0.023121,
	 -0.042098  -0.060897   0.012634,
	 -0.040275  -0.053949   0.018843,
	 -0.043345  -0.047534   0.013518,
	 -0.044598  -0.045450   0.006621,
	 -0.046267  -0.054113   0.016797,
	 -0.051311  -0.053416   0.014322,
	 -0.043816  -0.046931   0.000000,
	 -0.044598  -0.045450  -0.006621,
	 -0.036992  -0.058343  -0.023121,
	 -0.040275  -0.053949  -0.018843,
	 -0.043345  -0.047534  -0.013518,
	 -0.046267  -0.054113  -0.016797,
	 -0.052063  -0.049329  -0.015626,
	 -0.051311  -0.053416  -0.014322,
	 -0.044286  -0.068186  -0.007357,
	 -0.046383  -0.064346  -0.005473,
	 -0.042098  -0.060897  -0.012634,
	 -0.046383  -0.064346   0.005473,
	 -0.047412  -0.064401   0.000000,
	 -0.035553  -0.051927   0.029571,
	 -0.038146  -0.054282   0.029220,
	 -0.043398  -0.053338   0.020325,
	 -0.046385  -0.058837   0.012932,
	 -0.039788  -0.047402   0.022399,
	 -0.045994  -0.050131   0.019991,
	 -0.052063  -0.049329   0.015626,
	 -0.042750  -0.040267   0.013877,
	 -0.040844  -0.046927   0.021375,
	 -0.048974  -0.046522   0.019178,
	 -0.041602  -0.038077   0.008137,
	 -0.041373  -0.040211   0.000000,
	 -0.054836  -0.055313   0.011860,
	 -0.042750  -0.040267  -0.013877,
	 -0.041602  -0.038077  -0.008137,
	 -0.035553  -0.051927  -0.029571,
	 -0.039788  -0.047402  -0.022399,
	 -0.038146  -0.054282  -0.029220,
	 -0.045994  -0.050131  -0.019991,
	 -0.040844  -0.046927  -0.021375,
	 -0.042105  -0.040193  -0.023721,
	 -0.048974  -0.046522  -0.019178,
	 -0.046385  -0.058837  -0.012932,
	 -0.043398  -0.053338  -0.020325,
	 -0.052338  -0.042509  -0.017886,
	 -0.054836  -0.055313  -0.011860,
	 -0.050151  -0.055369  -0.007496,
	 -0.047371  -0.058922  -0.009567,
	 -0.047371  -0.058922   0.009567,
	 -0.050151  -0.055369   0.007496,
	 -0.051806  -0.056476   0.000000,
	 -0.038796  -0.044492   0.033523,
	 -0.039100  -0.046603   0.035733,
	 -0.045567  -0.046892   0.022514,
	 -0.043690  -0.047466   0.032665,
	 -0.046107  -0.039721   0.022976,
	 -0.042105  -0.040193   0.023721,
	 -0.052338  -0.042509   0.017886,
	 -0.038647  -0.029430   0.015487,
	 -0.050873  -0.032067   0.015344,
	 -0.037833  -0.030418   0.000000,
	 -0.040472  -0.032639   0.007652,
	 -0.053896  -0.046455   0.007210,
	 -0.056664  -0.045698   0.010508,
	 -0.055564  -0.045915   0.014770,
	 -0.038647  -0.029430  -0.015487,
	 -0.048155  -0.032630  -0.019433,
	 -0.050873  -0.032067  -0.015344,
	 -0.046253  -0.022823  -0.016134,
	 -0.040472  -0.032639  -0.007652,
	 -0.038796  -0.044492  -0.033523,
	 -0.039100  -0.046603  -0.035733,
	 -0.045567  -0.046892  -0.022514,
	 -0.043690  -0.047466  -0.032665,
	 -0.046107  -0.039721  -0.022976,
	 -0.038208  -0.037388  -0.036176,
	 -0.040769  -0.032846  -0.027242,
	 -0.046669  -0.030097  -0.022891,
	 -0.055564  -0.045915  -0.014770,
	 -0.057845  -0.034351  -0.012657,
	 -0.049563  -0.037650  -0.017203,
	 -0.059216  -0.040260  -0.012675,
	 -0.053896  -0.046455  -0.007210,
	 -0.056664  -0.045698  -0.010508,
	 -0.055935  -0.049190   0.000000,
	 -0.038208  -0.037388   0.036176,
	 -0.038300  -0.037714   0.037318,
	 -0.043903  -0.038525   0.035736,
	 -0.049563  -0.037650   0.017203,
	 -0.047079  -0.031078   0.032774,
	 -0.046669  -0.030097   0.022891,
	 -0.048155  -0.032630   0.019433,
	 -0.040769  -0.032846   0.027242,
	 -0.035195  -0.034687   0.038810,
	 -0.057845  -0.034351   0.012657,
	 -0.059216  -0.040260   0.012675,
	 -0.046253  -0.022823   0.016134,
	 -0.033047  -0.026741   0.010966,
	 -0.035908  -0.031430   0.026173,
	 -0.042866  -0.015369   0.016928,
	 -0.053735  -0.024430   0.013524,
	 -0.032739  -0.027615   0.000000,
	 -0.033047  -0.026741  -0.010966,
	 -0.055268  -0.038799   0.006627,
	 -0.058639  -0.038200   0.008133,
	 -0.035908  -0.031430  -0.026173,
	 -0.042866  -0.015369  -0.016928,
	 -0.041359  -0.008312  -0.014424,
	 -0.039530  -0.013514  -0.025004,
	 -0.053735  -0.024430  -0.013524,
	 -0.044008  -0.022902  -0.023051,
	 -0.048037  -0.014605  -0.014008,
	 -0.038300  -0.037714  -0.037318,
	 -0.043903  -0.038525  -0.035736,
	 -0.035195  -0.034687  -0.038810,
	 -0.047079  -0.031078  -0.032774,
	 -0.058639  -0.038200  -0.008133,
	 -0.056385  -0.026128  -0.010686,
	 -0.056750  -0.034571  -0.006783,
	 -0.056806  -0.030730  -0.007009,
	 -0.055268  -0.038799  -0.006627,
	 -0.056465  -0.044073   0.000000,
	 -0.035389  -0.028639   0.041940,
	 -0.040792  -0.026977   0.039783,
	 -0.044200  -0.025785   0.036258,
	 -0.044008  -0.022902   0.023051,
	 -0.030127  -0.031585   0.031372,
	 -0.028462  -0.034961   0.036542,
	 -0.029816  -0.035596   0.044005,
	 -0.029682  -0.036478   0.039563,
	 -0.056385  -0.026128   0.010686,
	 -0.056750  -0.034571   0.006783,
	 -0.056806  -0.030730   0.007009,
	 -0.039530  -0.013514   0.025004,
	 -0.041359  -0.008312   0.014424,
	 -0.026749  -0.023159   0.004817,
	 -0.025160  -0.024492   0.018642,
	 -0.029587  -0.024618   0.005239,
	 -0.035682  -0.007095   0.017183,
	 -0.048037  -0.014605   0.014008,
	 -0.054863  -0.019537   0.007928,
	 -0.029238  -0.023426   0.000000,
	 -0.029587  -0.024618  -0.005239,
	 -0.025160  -0.024492  -0.018642,
	 -0.026749  -0.023159  -0.004817,
	 -0.054586  -0.036402   0.000000,
	 -0.028462  -0.034961  -0.036542,
	 -0.030127  -0.031585  -0.031372,
	 -0.035682  -0.007095  -0.017183,
	 -0.041763  -0.004861  -0.013046,
	 -0.043599  -0.006655  -0.008975,
	 -0.044200  -0.025785  -0.036258,
	 -0.039359  -0.013397  -0.037197,
	 -0.038122  -0.008197  -0.030016,
	 -0.035634  -0.008095  -0.024482,
	 -0.023590  -0.028603  -0.027233,
	 -0.054863  -0.019537  -0.007928,
	 -0.050145  -0.014162  -0.008939,
	 -0.035389  -0.028639  -0.041940,
	 -0.040792  -0.026977  -0.039783,
	 -0.029682  -0.036478  -0.039563,
	 -0.029816  -0.035596  -0.044005,
	 -0.059146  -0.021740  -0.007057,
	 -0.056803  -0.027949   0.000000,
	 -0.032361  -0.023335   0.041957,
	 -0.036595  -0.020911   0.040657,
	 -0.039359  -0.013397   0.037197,
	 -0.023590  -0.028603   0.027233,
	 -0.021801  -0.034913   0.036375,
	 -0.023554  -0.035053   0.039761,
	 -0.025763  -0.035908   0.042678,
	 -0.023121  -0.023806   0.041742,
	 -0.059146  -0.021740   0.007057,
	 -0.038122  -0.008197   0.030016,
	 -0.035634  -0.008095   0.024482,
	 -0.041763  -0.004861   0.013046,
	 -0.043599  -0.006655   0.008975,
	 -0.050145  -0.014162   0.008939,
	 -0.025950  -0.022214   0.009401,
	 -0.023733  -0.021298   0.009243,
	 -0.022092  -0.020576   0.000000,
	 -0.018874  -0.023005   0.018131,
	 -0.029815  -0.004592   0.025745,
	 -0.032789  -0.002267   0.020403,
	 -0.033642   0.000971   0.011232,
	 -0.049536  -0.015250   0.004440,
	 -0.054070  -0.017908   0.000000,
	 -0.017068  -0.025795  -0.025397,
	 -0.018874  -0.023005  -0.018131,
	 -0.023733  -0.021298  -0.009243,
	 -0.025950  -0.022214  -0.009401,
	 -0.021801  -0.034913  -0.036375,
	 -0.023554  -0.035053  -0.039761,
	 -0.032789  -0.002267  -0.020403,
	 -0.033642   0.000971  -0.011232,
	 -0.047686  -0.011084  -0.005655,
	 -0.039642  -0.002075  -0.003331,
	 -0.048166  -0.004752   0.000000,
	 -0.036595  -0.020911  -0.040657,
	 -0.031225  -0.003825  -0.033755,
	 -0.025019  -0.016078  -0.043054,
	 -0.023796  -0.000423  -0.034859,
	 -0.029815  -0.004592  -0.025745,
	 -0.015150  -0.034621  -0.036223,
	 -0.049536  -0.015250  -0.004440,
	 -0.032361  -0.023335  -0.041957,
	 -0.025763  -0.035908  -0.042678,
	 -0.057789  -0.021503   0.000000,
	 -0.025019  -0.016078   0.043054,
	 -0.023796  -0.000423   0.034859,
	 -0.031225  -0.003825   0.033755,
	 -0.017068  -0.025795   0.025397,
	 -0.015150  -0.034621   0.036223,
	 -0.015881  -0.035443   0.040162,
	 -0.014460  -0.034679   0.041146,
	 -0.007329  -0.018706   0.045141,
	 -0.047686  -0.011084   0.005655,
	 -0.039642  -0.002075   0.003331,
	 -0.014971  -0.020148   0.012856,
	 -0.015426  -0.018651   0.000000,
	 -0.021031   0.003530   0.023074,
	 -0.029158   0.003152   0.019453,
	 -0.036050   0.001837   0.003215,
	 -0.035715   0.006497   0.005988,
	 -0.025424   0.011510   0.014736,
	 -0.025307   0.007684   0.017734,
	 -0.048323  -0.011736   0.000000,
	 -0.004662  -0.032409  -0.036969,
	 -0.007319  -0.024847  -0.029594,
	 -0.014971  -0.020148  -0.012856,
	 -0.021031   0.003530  -0.023074,
	 -0.015881  -0.035443  -0.040162,
	 -0.023121  -0.023806  -0.041742,
	 -0.029158   0.003152  -0.019453,
	 -0.036050   0.001837  -0.003215,
	 -0.035715   0.006497  -0.005988,
	 -0.025424   0.011510  -0.014736,
	 -0.025307   0.007684  -0.017734,
	 -0.039497  -0.001205   0.000000,
	 -0.035835   0.002884   0.000000,
	 -0.007329  -0.018706  -0.045141,
	 -0.013664  -0.009268  -0.044669,
	 -0.015040  -0.002561  -0.040578,
	 -0.021522   0.001357  -0.036123,
	 -0.017252   0.006519  -0.029332,
	 -0.001972  -0.038285  -0.040982,
	 -0.021522   0.001357   0.036123,
	 -0.013664  -0.009268   0.044669,
	 -0.015040  -0.002561   0.040578,
	 -0.007319  -0.024847   0.029594,
	 -0.015584   0.006211   0.032157,
	 -0.017252   0.006519   0.029332,
	 -0.004662  -0.032409   0.036969,
	 -0.001972  -0.038285   0.040982,
	 -0.002150  -0.037875   0.041834,
	  0.005755  -0.034839   0.045279,
	 -0.003799  -0.002147   0.050587,
	  0.006901  -0.015464   0.052499,
	  0.006511  -0.030357   0.047540,
	 -0.006687  -0.017705   0.000000,
	 -0.005226  -0.018062   0.018035,
	 -0.018690   0.004187   0.026579,
	 -0.005226  -0.018062  -0.018035,
	 -0.017113   0.008647   0.020003,
	 -0.017941   0.008857   0.026313,
	 -0.037338   0.006048   0.000000,
	 -0.037610   0.009291   0.005403,
	 -0.015304   0.013175   0.015948,
	 -0.026989   0.013004   0.008987,
	  0.004658  -0.027308  -0.040057,
	  0.007361  -0.034279  -0.045847,
	  0.003059  -0.020908  -0.033205,
	 -0.018690   0.004187  -0.026579,
	 -0.017113   0.008647  -0.020003,
	 -0.017941   0.008857  -0.026313,
	 -0.014460  -0.034679  -0.041146,
	 -0.039171   0.008568   0.000000,
	 -0.037610   0.009291  -0.005403,
	 -0.015304   0.013175  -0.015948,
	 -0.026989   0.013004  -0.008987,
	  0.005755  -0.034839  -0.045279,
	 -0.002150  -0.037875  -0.041834,
	 -0.003799  -0.002147  -0.050587,
	  0.006901  -0.015464  -0.052499,
	  0.006511  -0.030357  -0.047540,
	 -0.009810  -0.000311  -0.041825,
	 -0.013611   0.000799  -0.039021,
	 -0.015584   0.006211  -0.032157,
	 -0.016432   0.010638  -0.026734,
	 -0.013611   0.000799   0.039021,
	 -0.009810  -0.000311   0.041825,
	  0.003059  -0.020908   0.033205,
	 -0.013300   0.013485   0.041106,
	 -0.009863   0.020281   0.044387,
	 -0.016432   0.010638   0.026734,
	  0.004658  -0.027308   0.040057,
	  0.007361  -0.034279   0.045847,
	  0.011940  -0.026485   0.050002,
	 -0.010778   0.006466   0.047372,
	  0.009846  -0.013381   0.053717,
	  0.004201   0.000592   0.054826,
	 -0.001896   0.014460   0.053433,
	  0.003675  -0.016038   0.006028,
	  0.016577  -0.010657   0.000000,
	  0.003675  -0.016038  -0.006028,
	  0.006465  -0.014826   0.012505,
	  0.003429  -0.016552   0.023293,
	  0.006465  -0.014826  -0.012505,
	  0.003429  -0.016552  -0.023293,
	 -0.015535   0.010893   0.024125,
	 -0.011079   0.016211   0.022167,
	 -0.039095   0.010276   0.000000,
	 -0.036789   0.013854   0.000000,
	 -0.015132   0.015220   0.014661,
	 -0.025756   0.015596   0.000000,
	 -0.021670   0.014243   0.000000,
	  0.008947  -0.022846  -0.043133,
	  0.011940  -0.026485  -0.050002,
	  0.006771  -0.013504  -0.024755,
	  0.006024  -0.011189  -0.039010,
	 -0.011079   0.016211  -0.022167,
	 -0.015535   0.010893  -0.024125,
	 -0.015132   0.015220  -0.014661,
	 -0.010778   0.006466  -0.047372,
	  0.004201   0.000592  -0.054826,
	  0.009846  -0.013381  -0.053717,
	 -0.013300   0.013485  -0.041106,
	 -0.009863   0.020281  -0.044387,
	 -0.014726   0.017785  -0.026519,
	 -0.011520   0.021257  -0.032171,
	  0.006771  -0.013504   0.024755,
	  0.006038  -0.006315   0.028237,
	  0.006024  -0.011189   0.039010,
	  0.008947  -0.022846   0.043133,
	 -0.009794   0.014265   0.047490,
	 -0.004736   0.020274   0.050119,
	 -0.011520   0.021257   0.032171,
	 -0.014726   0.017785   0.026519,
	  0.008248  -0.015449   0.047077,
	  0.001262   0.001970   0.049191,
	 -0.000446   0.013255   0.048159,
	 -0.005656   0.017634   0.045450,
	  0.017028  -0.009876   0.008795,
	  0.018772  -0.008367   0.000000,
	  0.017028  -0.009876  -0.008795,
	  0.019407  -0.007318  -0.009405,
	  0.016498  -0.006571  -0.016169,
	 -0.012434   0.021481   0.024673,
	 -0.008598   0.020633   0.020344,
	 -0.009069   0.007150   0.015927,
	 -0.004703   0.006967   0.000000,
	 -0.005479   0.017353   0.018935,
	  0.008248  -0.015449  -0.047077,
	  0.006038  -0.006315  -0.028237,
	  0.006926   0.000133  -0.023454,
	  0.001262   0.001970  -0.049191,
	  0.000312   0.000839  -0.040241,
	 -0.008598   0.020633  -0.020344,
	 -0.012434   0.021481  -0.024673,
	 -0.009069   0.007150  -0.015927,
	 -0.005479   0.017353  -0.018935,
	 -0.001896   0.014460  -0.053433,
	 -0.009794   0.014265  -0.047490,
	 -0.004736   0.020274  -0.050119,
	 -0.008492   0.011407  -0.031319,
	 -0.006026   0.012837  -0.034386,
	 -0.005656   0.017634  -0.045450,
	  0.016498  -0.006571   0.016169,
	  0.006926   0.000133   0.023454,
	 -0.000177   0.003036   0.029126,
	  0.000312   0.000839   0.040241,
	 -0.006026   0.012837   0.034386,
	 -0.008492   0.011407   0.031319,
	 -0.002447   0.011299   0.039488,
	  0.019407  -0.007318   0.009405,
	 -0.001503   0.005632   0.000000,
	  0.002020   0.000734   0.002767,
	  0.002020   0.000734  -0.002767,
	 -0.004902   0.020318   0.025496,
	 -0.004563   0.007661   0.020370,
	 -0.000649   0.005285   0.020778,
	 -0.000177   0.003036  -0.029126,
	 -0.002031   0.007568  -0.027948,
	 -0.000649   0.005285  -0.020778,
	 -0.000446   0.013255  -0.048159,
	 -0.002447   0.011299  -0.039488,
	 -0.004902   0.020318  -0.025496,
	 -0.004563   0.007661  -0.020370,
	 -0.004403   0.010338  -0.027180,
	 -0.002031   0.007568   0.027948,
	 -0.004403   0.010338   0.027180,
     ]    } 
    coordIndex [ 
	     0,      1,      2, -1 
	     0,      2,      3, -1 
	     4,      1,      0, -1 
	     5,      4,      0, -1 
	     3,      6,      0, -1 
	     0,      6,      7, -1 
	     0,      7,      8, -1 
	     0,      8,      5, -1 
	     1,      9,     10, -1 
	     1,     10,      2, -1 
	     1,     11,     12, -1 
	     1,     12,      9, -1 
	     4,     13,      1, -1 
	     1,     13,     14, -1 
	     1,     14,     11, -1 
	    15,     16,      2, -1 
	    15,      2,     10, -1 
	    16,      3,      2, -1 
	     3,     17,      6, -1 
	    17,      3,     16, -1 
	     5,     18,      4, -1 
	    18,     19,      4, -1 
	     4,     19,     14, -1 
	     4,     14,     13, -1 
	    18,      5,     20, -1 
	     5,     21,     20, -1 
	    22,      5,      8, -1 
	    22,     21,      5, -1 
	    17,     23,      6, -1 
	    23,     24,      6, -1 
	     6,     25,      7, -1 
	    24,     25,      6, -1 
	     7,     26,      8, -1 
	    27,     26,      7, -1 
	    25,     27,      7, -1 
	    22,      8,     28, -1 
	    26,     29,      8, -1 
	    29,     28,      8, -1 
	     9,     30,     31, -1 
	     9,     31,     10, -1 
	     9,     32,     30, -1 
	     9,     12,     32, -1 
	    10,     31,     33, -1 
	    33,     15,     10, -1 
	    11,     14,     34, -1 
	    12,     11,     34, -1 
	    32,     12,     34, -1 
	    14,     35,     34, -1 
	    19,     35,     14, -1 
	    36,     16,     15, -1 
	    36,     15,     33, -1 
	    36,     17,     16, -1 
	    17,     36,     23, -1 
	    37,     18,     20, -1 
	    18,     38,     19, -1 
	    18,     37,     38, -1 
	    19,     39,     35, -1 
	    40,     19,     41, -1 
	    19,     38,     41, -1 
	    40,     39,     19, -1 
	    42,     37,     20, -1 
	    43,     42,     20, -1 
	    44,     43,     20, -1 
	    45,     44,     20, -1 
	    21,     45,     20, -1 
	    46,     45,     21, -1 
	    47,     46,     21, -1 
	    22,     48,     21, -1 
	    21,     48,     49, -1 
	    21,     49,     47, -1 
	    22,     28,     50, -1 
	    22,     50,     51, -1 
	    22,     51,     52, -1 
	    22,     52,     48, -1 
	    23,     53,     24, -1 
	    36,     54,     23, -1 
	    54,     32,     23, -1 
	    32,     53,     23, -1 
	    24,     27,     25, -1 
	    55,     24,     53, -1 
	    55,     27,     24, -1 
	    27,     39,     26, -1 
	    56,     26,     40, -1 
	    56,     29,     26, -1 
	    26,     39,     40, -1 
	    55,     35,     27, -1 
	    27,     35,     39, -1 
	    29,     50,     28, -1 
	    56,     50,     29, -1 
	    31,     30,     32, -1 
	    31,     32,     57, -1 
	    31,     57,     33, -1 
	    55,     53,     32, -1 
	    35,     32,     34, -1 
	    55,     32,     35, -1 
	    33,     57,     32, -1 
	    33,     32,     54, -1 
	    33,     58,     36, -1 
	    33,     54,     58, -1 
	    36,     58,     54, -1 
	    37,     42,     38, -1 
	    38,     42,     41, -1 
	    59,     40,     41, -1 
	    56,     40,     59, -1 
	    60,     59,     41, -1 
	    44,     60,     41, -1 
	    41,     43,     44, -1 
	    41,     42,     43, -1 
	    45,     61,     44, -1 
	    62,     60,     44, -1 
	    61,     62,     44, -1 
	    46,     61,     45, -1 
	    46,     63,     61, -1 
	    64,     46,     65, -1 
	    46,     47,     65, -1 
	    63,     46,     66, -1 
	    67,     46,     64, -1 
	    46,     67,     66, -1 
	    47,     68,     65, -1 
	    69,     68,     47, -1 
	    69,     47,     49, -1 
	    48,     70,     71, -1 
	    48,     71,     49, -1 
	    52,     70,     48, -1 
	    69,     49,     72, -1 
	    73,     49,     71, -1 
	    74,     72,     49, -1 
	    74,     49,     75, -1 
	    73,     75,     49, -1 
	    51,     50,     56, -1 
	    52,     51,     56, -1 
	    56,     76,     52, -1 
	    52,     76,     77, -1 
	    52,     77,     78, -1 
	    52,     78,     70, -1 
	    56,     59,     76, -1 
	    79,     80,     59, -1 
	    79,     59,     60, -1 
	    76,     59,     80, -1 
	    62,     79,     60, -1 
	    63,     81,     61, -1 
	    81,     82,     61, -1 
	    61,     82,     62, -1 
	    62,     82,     83, -1 
	    84,     62,     83, -1 
	    79,     62,     84, -1 
	    63,     85,     81, -1 
	    63,     86,     85, -1 
	    63,     66,     86, -1 
	    67,     64,     87, -1 
	    88,     64,     65, -1 
	    88,     89,     64, -1 
	    87,     64,     90, -1 
	    89,     90,     64, -1 
	    91,     88,     65, -1 
	    92,     91,     65, -1 
	    68,     92,     65, -1 
	    93,     84,     66, -1 
	    93,     66,     67, -1 
	    84,     83,     66, -1 
	    66,     83,     86, -1 
	    93,     67,     87, -1 
	    69,     92,     68, -1 
	    69,     72,     94, -1 
	    69,     94,     95, -1 
	    69,     95,     92, -1 
	    70,     96,     97, -1 
	    70,     97,     71, -1 
	    70,     98,     96, -1 
	    78,     98,     70, -1 
	    97,     99,     71, -1 
	    99,     73,     71, -1 
	    72,    100,    101, -1 
	    72,    101,     94, -1 
	   102,     72,     74, -1 
	    72,    102,    100, -1 
	    75,     73,    103, -1 
	    73,    104,    103, -1 
	    99,    104,     73, -1 
	   105,     74,     75, -1 
	   102,     74,    105, -1 
	    75,    103,    106, -1 
	   105,     75,    106, -1 
	    76,     80,     77, -1 
	    77,     80,    107, -1 
	    77,    107,    108, -1 
	   103,     78,     77, -1 
	   103,     77,    108, -1 
	   104,     98,     78, -1 
	   104,     78,    103, -1 
	   109,     80,     79, -1 
	   109,     79,     84, -1 
	   109,    110,     80, -1 
	   110,    111,     80, -1 
	    80,    111,    107, -1 
	   112,     81,     85, -1 
	   112,     82,     81, -1 
	   112,    113,     82, -1 
	    82,    114,     83, -1 
	   115,    114,     82, -1 
	   113,    115,     82, -1 
	    86,     83,    116, -1 
	   114,    116,     83, -1 
	   109,     84,     93, -1 
	   117,    112,     85, -1 
	    85,     89,    117, -1 
	    85,     86,     90, -1 
	    89,     85,     90, -1 
	    86,    116,     90, -1 
	    93,     87,    118, -1 
	   118,     87,     90, -1 
	    88,    117,     89, -1 
	    88,     91,    119, -1 
	   120,    117,     88, -1 
	   119,    120,     88, -1 
	   118,     90,    116, -1 
	   121,     91,     92, -1 
	    91,    121,    122, -1 
	   119,     91,    122, -1 
	    92,     95,    121, -1 
	   110,    109,     93, -1 
	   123,    110,     93, -1 
	   124,    123,     93, -1 
	   125,    124,     93, -1 
	   118,    125,     93, -1 
	   126,     95,     94, -1 
	    94,    101,    127, -1 
	    94,    127,    128, -1 
	    94,    128,    129, -1 
	    94,    129,    126, -1 
	   130,    121,     95, -1 
	   130,     95,    126, -1 
	    97,     96,    131, -1 
	    96,     98,    132, -1 
	    96,    132,    131, -1 
	    97,    131,    101, -1 
	   101,    100,     97, -1 
	   102,     99,     97, -1 
	   102,     97,    100, -1 
	   104,    133,     98, -1 
	    98,    133,    134, -1 
	    98,    134,    132, -1 
	   135,    104,     99, -1 
	   102,    135,     99, -1 
	   101,    131,    136, -1 
	   136,    137,    101, -1 
	   101,    137,    138, -1 
	   101,    138,    127, -1 
	   135,    102,    105, -1 
	   106,    103,    108, -1 
	   104,    135,    133, -1 
	   106,    139,    105, -1 
	   105,    140,    128, -1 
	   105,    128,    141, -1 
	   142,    140,    105, -1 
	   142,    105,    139, -1 
	   135,    105,    141, -1 
	   106,    108,    107, -1 
	   106,    107,    143, -1 
	   106,    143,    144, -1 
	   106,    144,    139, -1 
	   107,    111,    145, -1 
	   107,    145,    143, -1 
	   145,    111,    110, -1 
	   123,    145,    110, -1 
	   146,    112,    117, -1 
	   146,    113,    112, -1 
	   146,    147,    113, -1 
	   147,    115,    113, -1 
	   148,    116,    114, -1 
	   148,    114,    115, -1 
	   147,    148,    115, -1 
	   149,    118,    116, -1 
	   150,    151,    116, -1 
	   150,    116,    148, -1 
	   151,    152,    116, -1 
	   152,    149,    116, -1 
	   120,    152,    117, -1 
	   117,    153,    154, -1 
	   117,    154,    146, -1 
	   152,    153,    117, -1 
	   149,    155,    118, -1 
	   118,    155,    156, -1 
	   125,    118,    156, -1 
	   119,    157,    120, -1 
	   158,    119,    121, -1 
	   121,    119,    122, -1 
	   159,    153,    119, -1 
	   158,    160,    119, -1 
	   151,    119,    153, -1 
	   159,    119,    160, -1 
	   151,    157,    119, -1 
	   149,    120,    155, -1 
	   161,    155,    120, -1 
	   161,    120,    157, -1 
	   152,    120,    149, -1 
	   162,    158,    121, -1 
	   121,    163,    162, -1 
	   121,    126,    163, -1 
	   130,    126,    121, -1 
	   164,    145,    123, -1 
	   165,    123,    124, -1 
	   165,    164,    123, -1 
	   124,    125,    156, -1 
	   165,    124,    156, -1 
	   126,    137,    166, -1 
	   126,    167,    168, -1 
	   126,    168,    163, -1 
	   137,    126,    138, -1 
	   169,    167,    126, -1 
	   169,    126,    166, -1 
	   126,    129,    138, -1 
	   135,    127,    138, -1 
	   141,    128,    127, -1 
	   135,    141,    127, -1 
	   128,    140,    170, -1 
	   129,    128,    170, -1 
	   138,    129,    171, -1 
	   171,    129,    167, -1 
	   129,    170,    172, -1 
	   129,    172,    167, -1 
	   131,    132,    173, -1 
	   131,    173,    136, -1 
	   132,    134,    174, -1 
	   132,    174,    173, -1 
	   134,    133,    135, -1 
	   134,    135,    174, -1 
	   174,    135,    138, -1 
	   136,    175,    137, -1 
	   136,    173,    175, -1 
	   137,    175,    166, -1 
	   174,    138,    176, -1 
	   176,    138,    171, -1 
	   142,    139,    144, -1 
	   142,    177,    140, -1 
	   140,    178,    170, -1 
	   140,    177,    179, -1 
	   140,    179,    180, -1 
	   140,    180,    178, -1 
	   142,    144,    177, -1 
	   143,    145,    181, -1 
	   144,    143,    177, -1 
	   143,    181,    177, -1 
	   164,    182,    145, -1 
	   145,    182,    181, -1 
	   154,    147,    146, -1 
	   154,    183,    147, -1 
	   183,    148,    147, -1 
	   183,    184,    148, -1 
	   184,    150,    148, -1 
	   185,    151,    150, -1 
	   184,    185,    150, -1 
	   152,    151,    153, -1 
	   186,    157,    151, -1 
	   185,    186,    151, -1 
	   159,    154,    153, -1 
	   187,    188,    154, -1 
	   187,    154,    159, -1 
	   189,    154,    190, -1 
	   154,    188,    190, -1 
	   189,    183,    154, -1 
	   155,    165,    156, -1 
	   161,    191,    155, -1 
	   192,    165,    155, -1 
	   193,    192,    155, -1 
	   191,    193,    155, -1 
	   194,    160,    157, -1 
	   194,    157,    186, -1 
	   160,    161,    157, -1 
	   158,    195,    160, -1 
	   196,    197,    158, -1 
	   158,    162,    198, -1 
	   196,    158,    198, -1 
	   199,    195,    158, -1 
	   199,    158,    197, -1 
	   159,    160,    194, -1 
	   187,    159,    194, -1 
	   160,    200,    161, -1 
	   195,    200,    160, -1 
	   201,    191,    161, -1 
	   200,    201,    161, -1 
	   162,    202,    198, -1 
	   203,    202,    162, -1 
	   203,    162,    163, -1 
	   163,    204,    205, -1 
	   203,    163,    205, -1 
	   204,    163,    168, -1 
	   206,    182,    164, -1 
	   192,    206,    164, -1 
	   192,    164,    165, -1 
	   166,    175,    207, -1 
	   166,    207,    208, -1 
	   169,    166,    208, -1 
	   171,    167,    169, -1 
	   167,    172,    168, -1 
	   204,    168,    209, -1 
	   209,    168,    210, -1 
	   172,    211,    168, -1 
	   168,    211,    210, -1 
	   212,    171,    169, -1 
	   212,    169,    213, -1 
	   214,    213,    169, -1 
	   214,    169,    215, -1 
	   215,    169,    216, -1 
	   169,    208,    216, -1 
	   170,    178,    217, -1 
	   170,    217,    218, -1 
	   170,    218,    172, -1 
	   176,    171,    212, -1 
	   172,    218,    211, -1 
	   173,    219,    175, -1 
	   173,    174,    220, -1 
	   173,    220,    219, -1 
	   174,    176,    212, -1 
	   174,    212,    220, -1 
	   221,    175,    222, -1 
	   221,    207,    175, -1 
	   175,    219,    222, -1 
	   177,    181,    179, -1 
	   223,    217,    178, -1 
	   223,    178,    180, -1 
	   181,    206,    179, -1 
	   179,    206,    180, -1 
	   206,    224,    180, -1 
	   223,    180,    224, -1 
	   181,    182,    206, -1 
	   189,    225,    183, -1 
	   226,    184,    183, -1 
	   226,    183,    225, -1 
	   226,    185,    184, -1 
	   227,    186,    185, -1 
	   226,    227,    185, -1 
	   227,    194,    186, -1 
	   228,    187,    194, -1 
	   228,    188,    187, -1 
	   228,    229,    188, -1 
	   188,    230,    190, -1 
	   229,    230,    188, -1 
	   231,    189,    190, -1 
	   232,    225,    189, -1 
	   232,    189,    231, -1 
	   230,    231,    190, -1 
	   191,    201,    233, -1 
	   193,    191,    233, -1 
	   193,    206,    192, -1 
	   193,    224,    206, -1 
	   224,    193,    233, -1 
	   194,    227,    234, -1 
	   235,    194,    234, -1 
	   228,    194,    235, -1 
	   236,    195,    199, -1 
	   195,    237,    238, -1 
	   195,    238,    200, -1 
	   236,    237,    195, -1 
	   202,    196,    198, -1 
	   239,    196,    240, -1 
	   196,    241,    240, -1 
	   239,    197,    196, -1 
	   241,    196,    202, -1 
	   242,    228,    197, -1 
	   197,    239,    240, -1 
	   242,    197,    240, -1 
	   197,    235,    199, -1 
	   228,    235,    197, -1 
	   243,    244,    199, -1 
	   243,    199,    235, -1 
	   236,    199,    245, -1 
	   199,    244,    245, -1 
	   200,    238,    201, -1 
	   246,    201,    238, -1 
	   201,    247,    233, -1 
	   246,    247,    201, -1 
	   203,    205,    202, -1 
	   202,    205,    241, -1 
	   204,    216,    248, -1 
	   204,    248,    249, -1 
	   250,    251,    204, -1 
	   250,    204,    249, -1 
	   205,    204,    251, -1 
	   209,    215,    204, -1 
	   204,    215,    216, -1 
	   250,    205,    251, -1 
	   250,    241,    205, -1 
	   208,    207,    252, -1 
	   221,    253,    207, -1 
	   207,    253,    252, -1 
	   208,    252,    216, -1 
	   215,    209,    254, -1 
	   255,    209,    210, -1 
	   255,    254,    209, -1 
	   255,    210,    211, -1 
	   218,    256,    211, -1 
	   255,    211,    257, -1 
	   258,    257,    211, -1 
	   258,    211,    256, -1 
	   220,    212,    213, -1 
	   220,    213,    259, -1 
	   214,    260,    213, -1 
	   261,    259,    213, -1 
	   261,    213,    262, -1 
	   213,    260,    262, -1 
	   214,    215,    260, -1 
	   215,    254,    263, -1 
	   260,    215,    263, -1 
	   216,    252,    264, -1 
	   216,    264,    248, -1 
	   218,    217,    265, -1 
	   223,    247,    217, -1 
	   217,    247,    265, -1 
	   218,    265,    256, -1 
	   219,    266,    222, -1 
	   266,    219,    220, -1 
	   266,    220,    259, -1 
	   221,    222,    267, -1 
	   221,    267,    253, -1 
	   267,    222,    266, -1 
	   223,    224,    268, -1 
	   223,    268,    247, -1 
	   268,    224,    233, -1 
	   269,    226,    225, -1 
	   269,    225,    232, -1 
	   270,    227,    226, -1 
	   270,    226,    269, -1 
	   227,    271,    234, -1 
	   270,    271,    227, -1 
	   242,    272,    228, -1 
	   272,    229,    228, -1 
	   272,    273,    229, -1 
	   273,    230,    229, -1 
	   273,    274,    230, -1 
	   274,    232,    230, -1 
	   232,    231,    230, -1 
	   232,    275,    276, -1 
	   269,    232,    276, -1 
	   275,    232,    274, -1 
	   247,    268,    233, -1 
	   271,    235,    234, -1 
	   243,    235,    271, -1 
	   237,    236,    245, -1 
	   237,    277,    238, -1 
	   278,    237,    245, -1 
	   237,    278,    258, -1 
	   277,    237,    258, -1 
	   277,    246,    238, -1 
	   279,    242,    240, -1 
	   280,    279,    240, -1 
	   241,    280,    240, -1 
	   250,    280,    241, -1 
	   279,    243,    242, -1 
	   242,    243,    271, -1 
	   242,    271,    272, -1 
	   279,    281,    243, -1 
	   281,    244,    243, -1 
	   281,    282,    244, -1 
	   244,    282,    245, -1 
	   283,    278,    245, -1 
	   284,    283,    245, -1 
	   285,    284,    245, -1 
	   286,    285,    245, -1 
	   282,    286,    245, -1 
	   277,    287,    246, -1 
	   246,    287,    247, -1 
	   247,    287,    265, -1 
	   248,    264,    288, -1 
	   248,    288,    289, -1 
	   248,    260,    263, -1 
	   248,    263,    249, -1 
	   262,    260,    248, -1 
	   262,    248,    289, -1 
	   250,    249,    290, -1 
	   249,    263,    291, -1 
	   249,    291,    290, -1 
	   250,    290,    280, -1 
	   252,    253,    292, -1 
	   252,    292,    264, -1 
	   253,    293,    292, -1 
	   253,    267,    293, -1 
	   255,    294,    254, -1 
	   263,    254,    294, -1 
	   255,    257,    295, -1 
	   255,    295,    296, -1 
	   255,    296,    297, -1 
	   255,    297,    298, -1 
	   255,    298,    294, -1 
	   258,    256,    287, -1 
	   265,    287,    256, -1 
	   258,    299,    257, -1 
	   257,    299,    300, -1 
	   257,    300,    295, -1 
	   287,    277,    258, -1 
	   278,    299,    258, -1 
	   293,    266,    259, -1 
	   293,    259,    261, -1 
	   301,    293,    261, -1 
	   301,    261,    302, -1 
	   261,    303,    302, -1 
	   261,    304,    303, -1 
	   261,    262,    304, -1 
	   304,    262,    305, -1 
	   305,    262,    289, -1 
	   263,    294,    291, -1 
	   264,    292,    306, -1 
	   264,    306,    288, -1 
	   267,    266,    293, -1 
	   307,    270,    269, -1 
	   308,    269,    276, -1 
	   308,    309,    269, -1 
	   309,    307,    269, -1 
	   310,    271,    270, -1 
	   311,    312,    270, -1 
	   311,    270,    307, -1 
	   310,    270,    312, -1 
	   310,    272,    271, -1 
	   310,    273,    272, -1 
	   310,    313,    273, -1 
	   313,    274,    273, -1 
	   313,    314,    274, -1 
	   315,    275,    274, -1 
	   315,    274,    314, -1 
	   275,    315,    276, -1 
	   315,    316,    276, -1 
	   317,    308,    276, -1 
	   318,    317,    276, -1 
	   319,    318,    276, -1 
	   316,    319,    276, -1 
	   283,    299,    278, -1 
	   320,    321,    279, -1 
	   320,    279,    280, -1 
	   322,    281,    279, -1 
	   322,    279,    321, -1 
	   280,    290,    323, -1 
	   280,    323,    320, -1 
	   324,    282,    281, -1 
	   324,    281,    325, -1 
	   325,    281,    322, -1 
	   324,    286,    282, -1 
	   283,    300,    299, -1 
	   284,    300,    283, -1 
	   284,    326,    300, -1 
	   327,    326,    284, -1 
	   327,    284,    285, -1 
	   328,    285,    324, -1 
	   285,    328,    329, -1 
	   327,    285,    329, -1 
	   324,    285,    286, -1 
	   289,    288,    330, -1 
	   288,    306,    331, -1 
	   288,    331,    330, -1 
	   289,    330,    332, -1 
	   323,    289,    332, -1 
	   323,    305,    289, -1 
	   323,    290,    291, -1 
	   323,    291,    333, -1 
	   291,    294,    298, -1 
	   291,    298,    334, -1 
	   335,    291,    334, -1 
	   333,    291,    335, -1 
	   292,    293,    336, -1 
	   306,    292,    336, -1 
	   301,    336,    293, -1 
	   295,    300,    326, -1 
	   295,    326,    296, -1 
	   296,    326,    337, -1 
	   296,    337,    338, -1 
	   297,    296,    338, -1 
	   334,    297,    339, -1 
	   340,    339,    297, -1 
	   340,    297,    338, -1 
	   298,    297,    334, -1 
	   301,    341,    342, -1 
	   301,    342,    336, -1 
	   301,    302,    343, -1 
	   301,    343,    344, -1 
	   301,    344,    345, -1 
	   301,    345,    341, -1 
	   346,    343,    302, -1 
	   346,    302,    347, -1 
	   303,    347,    302, -1 
	   303,    304,    348, -1 
	   303,    348,    347, -1 
	   304,    305,    348, -1 
	   305,    335,    349, -1 
	   348,    305,    349, -1 
	   305,    333,    335, -1 
	   323,    333,    305, -1 
	   306,    336,    342, -1 
	   341,    331,    306, -1 
	   341,    306,    342, -1 
	   350,    311,    307, -1 
	   350,    307,    309, -1 
	   308,    317,    351, -1 
	   350,    308,    351, -1 
	   308,    350,    309, -1 
	   352,    313,    310, -1 
	   352,    310,    321, -1 
	   310,    312,    321, -1 
	   353,    311,    350, -1 
	   354,    311,    353, -1 
	   354,    355,    311, -1 
	   355,    312,    311, -1 
	   355,    325,    312, -1 
	   325,    322,    312, -1 
	   312,    322,    321, -1 
	   352,    356,    313, -1 
	   356,    314,    313, -1 
	   356,    357,    314, -1 
	   315,    314,    357, -1 
	   315,    357,    316, -1 
	   316,    357,    358, -1 
	   316,    358,    319, -1 
	   317,    359,    351, -1 
	   360,    361,    317, -1 
	   360,    317,    318, -1 
	   362,    359,    317, -1 
	   362,    317,    361, -1 
	   318,    319,    358, -1 
	   318,    358,    360, -1 
	   321,    320,    363, -1 
	   320,    364,    363, -1 
	   365,    320,    323, -1 
	   365,    364,    320, -1 
	   366,    321,    363, -1 
	   352,    321,    367, -1 
	   321,    366,    367, -1 
	   365,    323,    368, -1 
	   369,    323,    332, -1 
	   369,    368,    323, -1 
	   324,    370,    371, -1 
	   328,    324,    371, -1 
	   324,    325,    370, -1 
	   355,    370,    325, -1 
	   327,    337,    326, -1 
	   337,    327,    372, -1 
	   327,    373,    372, -1 
	   373,    327,    329, -1 
	   374,    328,    371, -1 
	   328,    374,    329, -1 
	   375,    373,    329, -1 
	   376,    375,    329, -1 
	   374,    376,    329, -1 
	   332,    330,    377, -1 
	   378,    377,    330, -1 
	   378,    330,    331, -1 
	   345,    378,    331, -1 
	   345,    331,    341, -1 
	   369,    332,    379, -1 
	   379,    332,    380, -1 
	   380,    332,    377, -1 
	   381,    382,    334, -1 
	   381,    334,    339, -1 
	   382,    335,    334, -1 
	   335,    382,    349, -1 
	   372,    338,    337, -1 
	   372,    373,    338, -1 
	   340,    338,    373, -1 
	   381,    339,    383, -1 
	   340,    383,    339, -1 
	   340,    373,    375, -1 
	   340,    375,    376, -1 
	   340,    376,    383, -1 
	   346,    384,    343, -1 
	   344,    343,    385, -1 
	   385,    343,    384, -1 
	   344,    385,    386, -1 
	   386,    345,    344, -1 
	   386,    378,    345, -1 
	   346,    347,    384, -1 
	   384,    347,    348, -1 
	   384,    348,    387, -1 
	   387,    348,    388, -1 
	   348,    349,    388, -1 
	   381,    389,    349, -1 
	   381,    349,    382, -1 
	   349,    389,    390, -1 
	   388,    349,    390, -1 
	   353,    350,    359, -1 
	   359,    350,    351, -1 
	   391,    352,    367, -1 
	   392,    393,    352, -1 
	   392,    352,    391, -1 
	   394,    356,    352, -1 
	   394,    352,    393, -1 
	   353,    359,    395, -1 
	   354,    353,    395, -1 
	   396,    354,    395, -1 
	   397,    355,    354, -1 
	   396,    397,    354, -1 
	   355,    398,    371, -1 
	   370,    355,    371, -1 
	   397,    398,    355, -1 
	   357,    356,    394, -1 
	   357,    394,    358, -1 
	   358,    394,    399, -1 
	   358,    399,    360, -1 
	   359,    362,    395, -1 
	   360,    399,    400, -1 
	   360,    400,    361, -1 
	   361,    400,    401, -1 
	   361,    401,    362, -1 
	   362,    396,    395, -1 
	   362,    401,    402, -1 
	   362,    402,    396, -1 
	   403,    366,    363, -1 
	   364,    403,    363, -1 
	   404,    403,    364, -1 
	   365,    405,    364, -1 
	   364,    405,    406, -1 
	   364,    406,    404, -1 
	   365,    368,    405, -1 
	   366,    391,    367, -1 
	   403,    391,    366, -1 
	   369,    379,    368, -1 
	   368,    379,    407, -1 
	   368,    407,    405, -1 
	   408,    409,    371, -1 
	   398,    408,    371, -1 
	   374,    371,    409, -1 
	   410,    411,    374, -1 
	   411,    376,    374, -1 
	   412,    410,    374, -1 
	   412,    374,    409, -1 
	   383,    376,    411, -1 
	   386,    413,    377, -1 
	   386,    377,    378, -1 
	   380,    377,    413, -1 
	   379,    380,    414, -1 
	   379,    414,    415, -1 
	   379,    415,    407, -1 
	   380,    413,    416, -1 
	   380,    416,    417, -1 
	   414,    380,    417, -1 
	   381,    418,    419, -1 
	   381,    419,    389, -1 
	   418,    381,    383, -1 
	   383,    411,    420, -1 
	   383,    420,    421, -1 
	   418,    383,    421, -1 
	   385,    384,    422, -1 
	   423,    422,    384, -1 
	   423,    384,    387, -1 
	   422,    416,    385, -1 
	   385,    416,    413, -1 
	   385,    413,    386, -1 
	   423,    387,    388, -1 
	   423,    388,    424, -1 
	   388,    390,    424, -1 
	   390,    389,    419, -1 
	   425,    426,    390, -1 
	   426,    427,    390, -1 
	   390,    427,    424, -1 
	   425,    390,    419, -1 
	   403,    428,    391, -1 
	   428,    392,    391, -1 
	   428,    429,    392, -1 
	   430,    393,    392, -1 
	   430,    392,    429, -1 
	   430,    431,    393, -1 
	   431,    399,    393, -1 
	   399,    394,    393, -1 
	   396,    402,    397, -1 
	   397,    432,    433, -1 
	   397,    402,    432, -1 
	   408,    398,    397, -1 
	   408,    397,    433, -1 
	   431,    400,    399, -1 
	   434,    401,    400, -1 
	   434,    400,    431, -1 
	   432,    402,    401, -1 
	   432,    401,    434, -1 
	   404,    435,    403, -1 
	   435,    428,    403, -1 
	   404,    436,    437, -1 
	   435,    404,    437, -1 
	   438,    436,    404, -1 
	   438,    404,    406, -1 
	   405,    407,    406, -1 
	   438,    406,    407, -1 
	   438,    407,    415, -1 
	   439,    409,    408, -1 
	   439,    408,    433, -1 
	   412,    409,    439, -1 
	   410,    440,    437, -1 
	   411,    410,    437, -1 
	   412,    440,    410, -1 
	   436,    411,    437, -1 
	   438,    420,    411, -1 
	   438,    411,    436, -1 
	   441,    412,    439, -1 
	   412,    441,    440, -1 
	   414,    417,    442, -1 
	   415,    414,    442, -1 
	   415,    442,    443, -1 
	   415,    443,    444, -1 
	   438,    415,    444, -1 
	   422,    445,    416, -1 
	   417,    416,    445, -1 
	   417,    445,    446, -1 
	   442,    417,    446, -1 
	   425,    419,    418, -1 
	   425,    418,    447, -1 
	   447,    418,    421, -1 
	   438,    448,    420, -1 
	   420,    448,    421, -1 
	   447,    421,    444, -1 
	   448,    444,    421, -1 
	   423,    424,    422, -1 
	   424,    445,    422, -1 
	   424,    427,    445, -1 
	   443,    425,    449, -1 
	   446,    426,    425, -1 
	   443,    446,    425, -1 
	   449,    425,    447, -1 
	   446,    427,    426, -1 
	   446,    445,    427, -1 
	   428,    435,    437, -1 
	   429,    428,    437, -1 
	   441,    430,    429, -1 
	   441,    429,    437, -1 
	   441,    450,    430, -1 
	   450,    431,    430, -1 
	   450,    434,    431, -1 
	   433,    432,    434, -1 
	   451,    433,    450, -1 
	   433,    434,    450, -1 
	   439,    433,    451, -1 
	   440,    441,    437, -1 
	   438,    444,    448, -1 
	   441,    439,    451, -1 
	   441,    451,    450, -1 
	   442,    446,    443, -1 
	   443,    449,    444, -1 
	   449,    447,    444, -1 
    ] 
   colorPerVertex FALSE 
    colorIndex [ 
	  1, 
	  1, 
	  1, 
	  1, 
	  1, 
	  1, 
	  1, 
	  1, 
	  1, 
	  1, 
	  1, 
	  1, 
	  1, 
	  1, 
	  1, 
	  1, 
	  1, 
	  1, 
	  1, 
	  1, 
	  1, 
	  1, 
	  1, 
	  1, 
	  1, 
	  1, 
	  1, 
	  1, 
	  1, 
	  1, 
	  1, 
	  1, 
	  1, 
	  1, 
	  1, 
	  1, 
	  1, 
	  1, 
	  1, 
	  1, 
	  1, 
	  1, 
	  1, 
	  1, 
	  1, 
	  1, 
	  1, 
	  1, 
	  1, 
	  1, 
	  1, 
	  1, 
	  1, 
	  1, 
	  1, 
	  1, 
	  1, 
	  1, 
	  1, 
	  1, 
	  1, 
	  1, 
	  1, 
	  1, 
	  1, 
	  1, 
	  1, 
	  1, 
	  1, 
	  1, 
	  1, 
	  1, 
	  1, 
	  1, 
	  1, 
	  1, 
	  1, 
	  1, 
	  1, 
	  1, 
	  1, 
	  1, 
	  1, 
	  1, 
	  1, 
	  1, 
	  1, 
	  1, 
	  1, 
	  1, 
	  1, 
	  1, 
	  1, 
	  1, 
	  1, 
	  1, 
	  1, 
	  1, 
	  1, 
	  1, 
	  1, 
	  1, 
	  1, 
	  1, 
	  1, 
	  1, 
	  1, 
	  1, 
	  1, 
	  1, 
	  1, 
	  1, 
	  1, 
	  1, 
	  1, 
	  1, 
	  1, 
	  1, 
	  1, 
	  1, 
	  1, 
	  1, 
	  1, 
	  1, 
	  1, 
	  1, 
	  1, 
	  1, 
	  1, 
	  1, 
	  1, 
	  1, 
	  1, 
	  1, 
	  1, 
	  1, 
	  1, 
	  1, 
	  1, 
	  1, 
	  1, 
	  1, 
	  1, 
	  1, 
	  1, 
	  1, 
	  1, 
	  1, 
	  1, 
	  1, 
	  1, 
	  1, 
	  1, 
	  1, 
	  1, 
	  1, 
	  1, 
	  1, 
	  1, 
	  1, 
	  1, 
	  1, 
	  1, 
	  1, 
	  1, 
	  1, 
	  1, 
	  1, 
	  1, 
	  1, 
	  1, 
	  1, 
	  1, 
	  1, 
	  1, 
	  1, 
	  1, 
	  1, 
	  1, 
	  1, 
	  1, 
	  1, 
	  1, 
	  1, 
	  1, 
	  1, 
	  1, 
	  1, 
	  1, 
	  1, 
	  1, 
	  1, 
	  1, 
	  1, 
	  1, 
	  1, 
	  1, 
	  1, 
	  1, 
	  1, 
	  1, 
	  1, 
	  1, 
	  1, 
	  1, 
	  1, 
	  1, 
	  1, 
	  1, 
	  1, 
	  1, 
	  1, 
	  1, 
	  1, 
	  1, 
	  1, 
	  1, 
	  1, 
	  1, 
	  1, 
	  1, 
	  1, 
	  1, 
	  1, 
	  1, 
	  1, 
	  1, 
	  1, 
	  1, 
	  1, 
	  1, 
	  1, 
	  1, 
	  1, 
	  1, 
	  1, 
	  1, 
	  1, 
	  1, 
	  1, 
	  1, 
	  1, 
	  1, 
	  1, 
	  1, 
	  1, 
	  1, 
	  1, 
	  1, 
	  1, 
	  1, 
	  1, 
	  1, 
	  1, 
	  1, 
	  1, 
	  1, 
	  1, 
	  1, 
	  1, 
	  1, 
	  1, 
	  1, 
	  1, 
	  1, 
	  1, 
	  1, 
	  1, 
	  1, 
	  1, 
	  1, 
	  1, 
	  1, 
	  1, 
	  1, 
	  1, 
	  1, 
	  1, 
	  1, 
	  1, 
	  1, 
	  1, 
	  1, 
	  1, 
	  1, 
	  1, 
	  1, 
	  1, 
	  1, 
	  1, 
	  1, 
	  1, 
	  1, 
	  1, 
	  1, 
	  1, 
	  1, 
	  1, 
	  1, 
	  1, 
	  1, 
	  1, 
	  1, 
	  1, 
	  1, 
	  1, 
	  1, 
	  1, 
	  1, 
	  1, 
	  1, 
	  1, 
	  1, 
	  1, 
	  1, 
	  1, 
	  1, 
	  1, 
	  1, 
	  1, 
	  1, 
	  1, 
	  1, 
	  1, 
	  1, 
	  1, 
	  1, 
	  1, 
	  1, 
	  1, 
	  1, 
	  1, 
	  1, 
	  1, 
	  1, 
	  1, 
	  1, 
	  1, 
	  1, 
	  1, 
	  1, 
	  1, 
	  1, 
	  1, 
	  1, 
	  1, 
	  1, 
	  1, 
	  1, 
	  1, 
	  1, 
	  1, 
	  1, 
	  1, 
	  1, 
	  1, 
	  1, 
	  1, 
	  1, 
	  1, 
	  1, 
	  1, 
	  1, 
	  1, 
	  1, 
	  1, 
	  1, 
	  1, 
	  1, 
	  1, 
	  1, 
	  1, 
	  1, 
	  1, 
	  1, 
	  1, 
	  1, 
	  1, 
	  1, 
	  1, 
	  1, 
	  1, 
	  1, 
	  1, 
	  1, 
	  1, 
	  1, 
	  1, 
	  1, 
	  1, 
	  1, 
	  1, 
	  1, 
	  1, 
	  1, 
	  1, 
	  1, 
	  1, 
	  1, 
	  1, 
	  1, 
	  1, 
	  1, 
	  1, 
	  1, 
	  1, 
	  1, 
	  1, 
	  1, 
	  1, 
	  1, 
	  1, 
	  1, 
	  1, 
	  1, 
	  1, 
	  1, 
	  1, 
	  1, 
	  1, 
	  1, 
	  1, 
	  1, 
	  1, 
	  1, 
	  1, 
	  1, 
	  1, 
	  1, 
	  1, 
	  1, 
	  1, 
	  1, 
	  1, 
	  1, 
	  1, 
	  1, 
	  1, 
	  1, 
	  1, 
	  1, 
	  1, 
	  1, 
	  1, 
	  1, 
	  1, 
	  1, 
	  1, 
	  1, 
	  1, 
	  1, 
	  1, 
    ] 
normal Normal { 
vector [ 
	  0.710686   0.702683  -0.034085,
	  0.513333   0.311388   0.799704,
	  0.868411   0.427816   0.250672,
	  0.548973   0.830521  -0.094148,
	  0.434797   0.501416   0.748020,
	  0.854189   0.518755   0.035418,
	  0.574938   0.589894  -0.566985,
	  0.312145   0.405290  -0.859247,
	  0.935886   0.068273  -0.345624,
	  0.109584  -0.116000   0.987186,
	  0.890225  -0.170164   0.422545,
	 -0.190272  -0.588684   0.785652,
	 -0.278984  -0.749048   0.600911,
	  0.015562   0.115431   0.993194,
	 -0.765277  -0.129529   0.630534,
	  0.966599  -0.256293   0.000064,
	  0.971115   0.238612  -0.000072,
	  0.795919   0.485553  -0.361595,
	  0.939322  -0.054434   0.338691,
	 -0.628355  -0.626386   0.461314,
	  0.861800   0.464874   0.202961,
	  0.942416   0.334444   0.000000,
	  0.861800   0.464874  -0.202961,
	  0.298691  -0.179873  -0.937246,
	 -0.239101  -0.569882  -0.786172,
	 -0.008280   0.292378  -0.956267,
	 -0.536082  -0.693941  -0.480689,
	 -0.847677  -0.223616  -0.481082,
	  0.916378   0.106929  -0.385770,
	  0.373490  -0.728606  -0.574142,
	 -0.546393  -0.485946   0.682137,
	  0.064159  -0.875160   0.479561,
	 -0.660914  -0.740345   0.122810,
	  0.466351  -0.862903   0.194717,
	 -0.598480  -0.734002   0.321033,
	 -0.890088  -0.452681   0.053133,
	  0.867632  -0.322990  -0.378011,
	  0.916378   0.106929   0.385770,
	  0.373490  -0.728606   0.574142,
	 -0.971732  -0.233298  -0.036195,
	 -0.783325  -0.621612   0.000000,
	 -0.867989  -0.237118   0.436315,
	  0.401417   0.046147   0.914732,
	  0.150321   0.630850   0.761205,
	 -0.232638   0.337274   0.912209,
	  0.986356   0.150597   0.066501,
	  0.882384   0.469199   0.035367,
	  0.981627   0.190810   0.000000,
	  0.982262   0.187512   0.000459,
	  0.879902   0.412223  -0.236313,
	  0.401417   0.046147  -0.914732,
	  0.150321   0.630850  -0.761205,
	 -0.390123   0.233365  -0.890699,
	 -0.264136  -0.881988  -0.390293,
	 -0.196322  -0.661039  -0.724214,
	 -0.598480  -0.734002  -0.321033,
	 -0.867989  -0.237118  -0.436315,
	 -0.484985  -0.679973   0.549933,
	  0.478161  -0.673749  -0.563404,
	 -0.981969  -0.186853   0.028698,
	 -0.918615   0.082350   0.386478,
	  0.898749  -0.401118   0.177070,
	 -0.673225  -0.492503   0.551552,
	  0.602743   0.577925  -0.550185,
	  0.783492  -0.499056   0.370248,
	  0.995956  -0.088319   0.016477,
	 -0.604207   0.272293   0.748859,
	 -0.053113  -0.041525   0.997725,
	  0.997018  -0.077167   0.000000,
	  0.995956  -0.088319  -0.016477,
	  0.879768  -0.462816  -0.108673,
	  0.606878   0.581790   0.541498,
	  0.908961  -0.386661  -0.155829,
	 -0.635239   0.491986  -0.595333,
	  0.139388  -0.539764  -0.830196,
	 -0.263714  -0.117723  -0.957390,
	 -0.952724   0.027049  -0.302631,
	 -0.822223  -0.406728  -0.398149,
	 -0.637366  -0.545028  -0.544710,
	 -0.842104  -0.414812   0.344663,
	 -0.907435  -0.420033   0.011560,
	  0.992483  -0.047334   0.112857,
	 -0.248602  -0.721776   0.645938,
	 -0.725035  -0.484848   0.489128,
	 -0.510712  -0.679380   0.526893,
	  0.719762   0.178273  -0.670941,
	 -0.937205   0.193261  -0.290338,
	 -0.215893  -0.458956   0.861829,
	  0.996260  -0.021478   0.083696,
	  0.811467  -0.416466  -0.409972,
	 -0.275882  -0.881352   0.383547,
	  0.946123  -0.313956   0.079265,
	  0.932746  -0.360533   0.000000,
	 -0.747402  -0.556808   0.362431,
	  0.965494   0.028351  -0.258879,
	  0.946123  -0.313956  -0.079265,
	  0.960581  -0.084412  -0.264876,
	  0.745877   0.186869   0.639333,
	 -0.379072  -0.729457  -0.569382,
	 -0.937205   0.193261   0.290338,
	  0.677939  -0.507002   0.532304,
	  0.902100   0.236443   0.360985,
	 -0.275882  -0.881352  -0.383547,
	 -0.497236  -0.652661  -0.571655,
	 -0.725035  -0.484848  -0.489128,
	 -0.586157   0.030945  -0.809606,
	 -0.785758  -0.590428  -0.184332,
	 -0.865371  -0.500019  -0.033377,
	 -0.734293  -0.675004  -0.072001,
	 -0.787185  -0.611924   0.076737,
	 -0.852859  -0.522048  -0.009860,
	 -0.872298  -0.488975   0.000000,
	  0.993896   0.074552   0.081326,
	  0.724295  -0.320064   0.610701,
	 -0.957956  -0.283482   0.044260,
	 -0.654134  -0.415739   0.631878,
	 -0.897761  -0.089309   0.431333,
	  0.918139   0.186213  -0.349780,
	 -0.573737  -0.034012   0.818333,
	  0.673080  -0.699556   0.239968,
	 -0.088820   0.241735   0.966269,
	  0.781027  -0.624497   0.000000,
	  0.931975  -0.354428   0.076181,
	 -0.865053  -0.301898  -0.400676,
	 -0.918562  -0.335634  -0.208792,
	 -0.788395  -0.279618   0.547948,
	  0.816334  -0.566110  -0.114538,
	 -0.227385   0.917646  -0.325919,
	 -0.286075   0.240930  -0.927423,
	 -0.595953   0.045506  -0.801729,
	  0.931975  -0.354428  -0.076181,
	  0.987486   0.151764   0.042895,
	  0.303296  -0.371017  -0.877701,
	 -0.941095  -0.338101  -0.005269,
	 -0.802581  -0.396676  -0.445548,
	 -0.890866  -0.060220  -0.450256,
	  0.936104  -0.257719   0.239353,
	  0.567141  -0.661970   0.490048,
	 -0.925065  -0.187185   0.330479,
	 -0.788395  -0.279618  -0.547948,
	 -0.888240   0.227199  -0.399263,
	 -0.694903   0.194637  -0.692262,
	 -0.926490  -0.131445  -0.352616,
	 -0.865053  -0.301898   0.400676,
	 -0.918562  -0.335634   0.208792,
	 -0.958633  -0.284646   0.000000,
	  0.938138  -0.335354  -0.086228,
	  0.192348  -0.500201   0.844276,
	 -0.727819  -0.236673   0.643634,
	 -0.660979   0.209381   0.720602,
	 -0.942092  -0.000571   0.335356,
	 -0.985708  -0.001032  -0.168459,
	 -0.393868   0.885220  -0.247492,
	  0.606229  -0.516300  -0.604914,
	  0.198422  -0.978209  -0.061116,
	 -0.844448   0.238474   0.479622,
	 -0.926490  -0.131445   0.352616,
	 -0.776352   0.112087   0.620253,
	  0.422504  -0.749678   0.509385,
	  0.713684  -0.519146  -0.470259,
	  0.222471   0.394876   0.891392,
	 -0.575473   0.227957   0.785408,
	  0.628987  -0.777416   0.000000,
	  0.445901  -0.847680  -0.287420,
	 -0.948128  -0.118628  -0.294926,
	 -0.840557  -0.062686  -0.538084,
	  0.528860  -0.694614   0.487666,
	 -0.347153   0.505866  -0.789674,
	 -0.350899   0.166237  -0.921540,
	 -0.525340   0.440439   0.728033,
	 -0.625140   0.292349  -0.723693,
	 -0.909108   0.379374  -0.172041,
	 -0.603451   0.421928  -0.676627,
	  0.404038  -0.452410  -0.795033,
	 -0.758187  -0.194138  -0.622465,
	  0.073778  -0.997030  -0.022067,
	 -0.977745   0.089677  -0.189663,
	 -0.840557  -0.062686   0.538084,
	 -0.845645   0.224296  -0.484330,
	 -0.920111  -0.006843   0.391597,
	 -0.992810  -0.100469   0.065073,
	 -0.948128  -0.118628   0.294926,
	 -0.997454   0.071307   0.000000,
	 -0.310472  -0.160735   0.936894,
	 -0.588265   0.027750   0.808192,
	 -0.854304   0.294797   0.428088,
	 -0.918685   0.367176   0.145600,
	  0.092260  -0.719398  -0.688443,
	 -0.026425  -0.901386  -0.432210,
	 -0.198221  -0.440396   0.875648,
	 -0.019495  -0.991220  -0.130778,
	 -0.845645   0.224296   0.484330,
	 -0.920111  -0.006843  -0.391597,
	 -0.992810  -0.100469  -0.065073,
	 -0.705440   0.360111  -0.610471,
	 -0.509088   0.317966   0.799830,
	  0.529582  -0.844998  -0.074304,
	 -0.045201  -0.990285  -0.131502,
	  0.575121  -0.815656  -0.062780,
	 -0.759715   0.175213   0.626206,
	 -0.633852   0.477402   0.608539,
	 -0.685822   0.645426   0.336263,
	  0.538109  -0.842875   0.000000,
	  0.575121  -0.815656   0.062780,
	 -0.055444  -0.997997   0.030475,
	  0.529582  -0.844998   0.074304,
	 -0.996339  -0.085487   0.000000,
	  0.070644  -0.913550   0.400544,
	  0.200046  -0.620309   0.758418,
	 -0.791551   0.225506  -0.567974,
	 -0.660024   0.510300  -0.551327,
	 -0.721667   0.627088  -0.293186,
	 -0.881070   0.240984  -0.406991,
	 -0.652054   0.428874  -0.625214,
	 -0.773108   0.633176   0.037316,
	 -0.883072   0.412932   0.222871,
	 -0.118923  -0.717829   0.685987,
	 -0.660120   0.669568  -0.340470,
	 -0.795929   0.586346  -0.150650,
	 -0.348210  -0.174735  -0.920987,
	 -0.465432   0.005406  -0.885067,
	 -0.019495  -0.991220   0.130778,
	 -0.252954  -0.534843  -0.806199,
	 -0.934024   0.295417  -0.200819,
	 -0.975650  -0.219331   0.000000,
	 -0.128197   0.070645   0.989229,
	 -0.370019   0.239305   0.897674,
	 -0.746616   0.461809   0.478850,
	 -0.073193  -0.761886  -0.643563,
	  0.050054  -0.921062  -0.386186,
	  0.226083  -0.962157   0.152119,
	  0.453795  -0.704392   0.545804,
	  0.056649  -0.139413   0.988613,
	 -0.934024   0.295417   0.200819,
	 -0.773108   0.633176  -0.037316,
	 -0.833085   0.414284  -0.366523,
	 -0.660024   0.510300   0.551327,
	 -0.730397   0.620676   0.285100,
	 -0.766101   0.630543   0.124519,
	  0.646361  -0.756635  -0.098591,
	  0.312182  -0.941818  -0.124581,
	  0.385295  -0.922793   0.000000,
	  0.798879  -0.577677  -0.167575,
	 -0.054695   0.743686   0.666288,
	 -0.717681   0.469212   0.514562,
	 -0.754918   0.552679   0.353051,
	 -0.785723   0.618577   0.001333,
	 -0.625805   0.779979   0.000000,
	  0.533878  -0.347791   0.770724,
	  0.738608  -0.661326  -0.130786,
	  0.312182  -0.941818   0.124581,
	  0.646361  -0.756635   0.098591,
	  0.004628  -0.939632   0.342154,
	  0.260946  -0.939844  -0.220457,
	 -0.764090   0.539375  -0.353893,
	 -0.754918   0.552679  -0.353051,
	 -0.911655   0.398516  -0.100346,
	 -0.606037   0.760316  -0.233749,
	 -0.770522   0.637414   0.000000,
	 -0.239265   0.189178  -0.952346,
	 -0.276199   0.960862   0.021409,
	 -0.309006   0.206499  -0.928371,
	 -0.617425   0.783006   0.075413,
	  0.032391   0.795747  -0.604763,
	  0.068833  -0.833258   0.548583,
	 -0.785723   0.618577  -0.001333,
	 -0.070335   0.202922  -0.976666,
	  0.400449  -0.522594  -0.752686,
	 -0.946504   0.322692   0.000000,
	 -0.295829   0.183129   0.937523,
	 -0.639989   0.687500   0.343158,
	  0.023292   0.981266  -0.191246,
	  0.463574  -0.501043  -0.730791,
	  0.135847  -0.895877  -0.423024,
	 -0.152379  -0.919124   0.363307,
	 -0.218740  -0.344314   0.913018,
	 -0.276342  -0.212916   0.937178,
	 -0.911655   0.398516   0.100346,
	 -0.577566   0.778202   0.246617,
	  0.175110  -0.892222   0.416266,
	  0.200412  -0.979702   0.004379,
	 -0.585293   0.343225   0.734594,
	 -0.529825   0.607892   0.591399,
	 -0.886545   0.426590   0.179051,
	 -0.903162  -0.147689   0.403097,
	 -0.495878   0.576514   0.649412,
	 -0.533938   0.585667   0.609839,
	 -0.926454   0.376408   0.000000,
	  0.387402  -0.521359   0.760332,
	  0.130890  -0.486978   0.863551,
	  0.320548  -0.917684  -0.234745,
	 -0.393632   0.222061  -0.892044,
	 -0.175082  -0.877852  -0.445784,
	  0.001682  -0.087165  -0.996192,
	 -0.587338   0.617722  -0.522928,
	 -0.969280   0.164222  -0.183103,
	 -0.865722  -0.204327  -0.456920,
	 -0.495878   0.576514  -0.649412,
	 -0.495451   0.606629  -0.621716,
	 -0.611684   0.790324   0.035084,
	 -0.968205   0.243990   0.055218,
	 -0.276342  -0.212916  -0.937178,
	 -0.392806   0.280248  -0.875879,
	 -0.327450   0.519861  -0.789000,
	 -0.471527   0.658725  -0.586297,
	 -0.927280   0.286725  -0.240710,
	  0.077971  -0.996604  -0.026480,
	 -0.451082   0.613095   0.648568,
	 -0.392806   0.280248   0.875879,
	 -0.295270   0.453502   0.840924,
	  0.057074  -0.406379  -0.911920,
	 -0.777063   0.553052   0.300511,
	 -0.951284   0.173607   0.254793,
	  0.314800  -0.649721  -0.691928,
	  0.245783  -0.870968  -0.425448,
	 -0.092769  -0.689132   0.718674,
	 -0.183639  -0.495003   0.849263,
	 -0.517627  -0.125733   0.846318,
	 -0.301506  -0.241522   0.922367,
	 -0.284548  -0.346015   0.894039,
	  0.196965  -0.980236  -0.018507,
	  0.008359  -0.998958   0.044877,
	 -0.718897  -0.252068   0.647802,
	 -0.052555  -0.994683  -0.088561,
	 -0.590280   0.696004   0.408836,
	 -0.852629   0.492363   0.174936,
	 -0.890179  -0.447122   0.087543,
	 -0.851491   0.150486   0.502312,
	 -0.539095   0.659075   0.524402,
	 -0.233331   0.894943   0.380308,
	  0.645973  -0.417120   0.639320,
	  0.545193  -0.837663  -0.032947,
	  0.715084  -0.566009   0.410230,
	 -0.785245  -0.219447  -0.578994,
	 -0.619342   0.704762  -0.346015,
	 -0.852629   0.492363  -0.174936,
	 -0.231864  -0.486266  -0.842487,
	 -0.940075  -0.336247  -0.056546,
	 -0.806761   0.286568  -0.516736,
	 -0.539095   0.659075  -0.524402,
	 -0.233331   0.894943  -0.380308,
	 -0.135115  -0.613662  -0.777922,
	 -0.148113  -0.623141  -0.767957,
	 -0.559439  -0.116434  -0.820653,
	 -0.330159  -0.235942  -0.913962,
	 -0.250142  -0.347993  -0.903510,
	 -0.725784  -0.033119  -0.687124,
	 -0.652793   0.216304  -0.725998,
	 -0.796537   0.449786  -0.404006,
	 -0.899594   0.424191  -0.103891,
	 -0.619019   0.267290   0.738493,
	 -0.725784  -0.033119   0.687124,
	  0.760745  -0.511757  -0.399214,
	 -0.946197   0.167736   0.276722,
	 -0.833403   0.485538   0.263991,
	 -0.899594   0.424191   0.103891,
	  0.614680  -0.392198  -0.684360,
	  0.593977  -0.803907  -0.030409,
	  0.578299  -0.333994   0.744324,
	 -0.764642  -0.174603   0.620352,
	  0.693976   0.139286   0.706397,
	  0.820807   0.247219   0.514935,
	  0.088687   0.418303   0.903967,
	  0.319007  -0.947206  -0.032165,
	  0.525470  -0.850803  -0.004042,
	  0.319007  -0.947206   0.032165,
	  0.414763  -0.909702   0.020334,
	  0.511482  -0.842399  -0.169555,
	  0.464717  -0.881814  -0.080264,
	  0.511482  -0.842399   0.169555,
	 -0.749928   0.646307  -0.141052,
	 -0.880240   0.439555  -0.178798,
	 -0.953335   0.301914   0.000000,
	 -0.534204   0.845356   0.000000,
	 -0.106345   0.993056  -0.050310,
	  0.079765   0.996814   0.000000,
	  0.173525   0.984829   0.000000,
	  0.914053  -0.008056   0.405515,
	  0.890217  -0.417009  -0.183351,
	  0.906658  -0.390071  -0.160675,
	  0.980412   0.178366   0.083535,
	 -0.880240   0.439555   0.178798,
	 -0.749928   0.646307   0.141052,
	 -0.106345   0.993056   0.050310,
	 -0.766909  -0.142832  -0.625659,
	  0.350664   0.201431  -0.914582,
	  0.736511   0.023193  -0.676028,
	 -0.940711   0.206593  -0.269040,
	 -0.833403   0.485538  -0.263991,
	 -0.919390   0.309202   0.243139,
	  0.178624   0.968626   0.172794,
	  0.774748  -0.592277   0.221298,
	  0.890086   0.132157   0.436212,
	  0.965608   0.243041  -0.092368,
	  0.887490  -0.069803  -0.455509,
	 -0.746481   0.176907   0.641459,
	  0.186319   0.902009   0.389442,
	  0.178624   0.968626  -0.172794,
	 -0.919390   0.309202  -0.243139,
	  0.926896   0.311831  -0.208868,
	  0.920985   0.271393  -0.279522,
	  0.855429   0.475989  -0.204145,
	  0.828942   0.501623  -0.247447,
	  0.600719  -0.789384   0.126533,
	  0.969019   0.246922   0.005595,
	  0.555448  -0.814795  -0.166093,
	  0.989427  -0.087763  -0.115465,
	  0.900295  -0.111623  -0.420725,
	 -0.400014   0.897991  -0.183306,
	 -0.151547   0.873953  -0.461778,
	  0.682015   0.613686  -0.397800,
	  0.579355   0.815075   0.000000,
	  0.547880   0.303420  -0.779592,
	  0.916840   0.316854   0.242917,
	  0.923446   0.301105  -0.237872,
	  0.772437   0.554564  -0.309516,
	  0.938175   0.316435   0.140342,
	  0.938202   0.342917   0.046744,
	 -0.200062   0.965701   0.165522,
	 -0.333029   0.843450   0.421526,
	  0.682015   0.613686   0.397800,
	  0.547880   0.303420   0.779592,
	  0.353078   0.384589  -0.852893,
	 -0.746481   0.176907  -0.641459,
	  0.343598   0.897260  -0.277247,
	  0.781471   0.618414  -0.082864,
	  0.806449   0.343202   0.481510,
	  0.783370   0.526314   0.330642,
	  0.882365   0.139996   0.449258,
	  0.653811   0.706932   0.269776,
	  0.829670   0.516542   0.211736,
	  0.933570   0.355612  -0.044580,
	  0.793550   0.409646  -0.449965,
	  0.836856   0.543945   0.061610,
	  0.879730   0.373356  -0.294416,
	  0.972243   0.187828   0.139517,
	  0.488502   0.872562   0.000000,
	  0.482380   0.870643   0.096388,
	  0.482380   0.870643  -0.096388,
	  0.722583   0.630404   0.283664,
	  0.473639   0.527261  -0.705452,
	  0.794918   0.592445  -0.130823,
	  0.866838   0.421514  -0.266302,
	  0.721350   0.686452  -0.091865,
	  0.766133   0.603746   0.220297,
	  0.908874   0.392577   0.140824,
	  0.845457   0.452879   0.283023,
	  0.755494   0.580146  -0.304400,
	  0.473639   0.527261   0.705452,
	  0.811810   0.421852  -0.403740,
	  0.818869   0.573299   0.027953,
	  0.811810   0.421852   0.403740,
     ]    } 
normalIndex      [ 
	     0,      1,      2, -1 
	     0,      2,      3, -1 
	     4,      1,      0, -1 
	     5,      4,      0, -1 
	     3,      6,      0, -1 
	     0,      6,      7, -1 
	     0,      7,      8, -1 
	     0,      8,      5, -1 
	     1,      9,     10, -1 
	     1,     10,      2, -1 
	     1,     11,     12, -1 
	     1,     12,      9, -1 
	     4,     13,      1, -1 
	     1,     13,     14, -1 
	     1,     14,     11, -1 
	    15,     16,      2, -1 
	    15,      2,     10, -1 
	    16,      3,      2, -1 
	     3,     17,      6, -1 
	    17,      3,     16, -1 
	     5,     18,      4, -1 
	    18,     19,      4, -1 
	     4,     19,     14, -1 
	     4,     14,     13, -1 
	    18,      5,     20, -1 
	     5,     21,     20, -1 
	    22,      5,      8, -1 
	    22,     21,      5, -1 
	    17,     23,      6, -1 
	    23,     24,      6, -1 
	     6,     25,      7, -1 
	    24,     25,      6, -1 
	     7,     26,      8, -1 
	    27,     26,      7, -1 
	    25,     27,      7, -1 
	    22,      8,     28, -1 
	    26,     29,      8, -1 
	    29,     28,      8, -1 
	     9,     30,     31, -1 
	     9,     31,     10, -1 
	     9,     32,     30, -1 
	     9,     12,     32, -1 
	    10,     31,     33, -1 
	    33,     15,     10, -1 
	    11,     14,     34, -1 
	    12,     11,     34, -1 
	    32,     12,     34, -1 
	    14,     35,     34, -1 
	    19,     35,     14, -1 
	    36,     16,     15, -1 
	    36,     15,     33, -1 
	    36,     17,     16, -1 
	    17,     36,     23, -1 
	    37,     18,     20, -1 
	    18,     38,     19, -1 
	    18,     37,     38, -1 
	    19,     39,     35, -1 
	    40,     19,     41, -1 
	    19,     38,     41, -1 
	    40,     39,     19, -1 
	    42,     37,     20, -1 
	    43,     42,     20, -1 
	    44,     43,     20, -1 
	    45,     44,     20, -1 
	    21,     45,     20, -1 
	    46,     45,     21, -1 
	    47,     46,     21, -1 
	    22,     48,     21, -1 
	    21,     48,     49, -1 
	    21,     49,     47, -1 
	    22,     28,     50, -1 
	    22,     50,     51, -1 
	    22,     51,     52, -1 
	    22,     52,     48, -1 
	    23,     53,     24, -1 
	    36,     54,     23, -1 
	    54,     32,     23, -1 
	    32,     53,     23, -1 
	    24,     27,     25, -1 
	    55,     24,     53, -1 
	    55,     27,     24, -1 
	    27,     39,     26, -1 
	    56,     26,     40, -1 
	    56,     29,     26, -1 
	    26,     39,     40, -1 
	    55,     35,     27, -1 
	    27,     35,     39, -1 
	    29,     50,     28, -1 
	    56,     50,     29, -1 
	    31,     30,     32, -1 
	    31,     32,     57, -1 
	    31,     57,     33, -1 
	    55,     53,     32, -1 
	    35,     32,     34, -1 
	    55,     32,     35, -1 
	    33,     57,     32, -1 
	    33,     32,     54, -1 
	    33,     58,     36, -1 
	    33,     54,     58, -1 
	    36,     58,     54, -1 
	    37,     42,     38, -1 
	    38,     42,     41, -1 
	    59,     40,     41, -1 
	    56,     40,     59, -1 
	    60,     59,     41, -1 
	    44,     60,     41, -1 
	    41,     43,     44, -1 
	    41,     42,     43, -1 
	    45,     61,     44, -1 
	    62,     60,     44, -1 
	    61,     62,     44, -1 
	    46,     61,     45, -1 
	    46,     63,     61, -1 
	    64,     46,     65, -1 
	    46,     47,     65, -1 
	    63,     46,     66, -1 
	    67,     46,     64, -1 
	    46,     67,     66, -1 
	    47,     68,     65, -1 
	    69,     68,     47, -1 
	    69,     47,     49, -1 
	    48,     70,     71, -1 
	    48,     71,     49, -1 
	    52,     70,     48, -1 
	    69,     49,     72, -1 
	    73,     49,     71, -1 
	    74,     72,     49, -1 
	    74,     49,     75, -1 
	    73,     75,     49, -1 
	    51,     50,     56, -1 
	    52,     51,     56, -1 
	    56,     76,     52, -1 
	    52,     76,     77, -1 
	    52,     77,     78, -1 
	    52,     78,     70, -1 
	    56,     59,     76, -1 
	    79,     80,     59, -1 
	    79,     59,     60, -1 
	    76,     59,     80, -1 
	    62,     79,     60, -1 
	    63,     81,     61, -1 
	    81,     82,     61, -1 
	    61,     82,     62, -1 
	    62,     82,     83, -1 
	    84,     62,     83, -1 
	    79,     62,     84, -1 
	    63,     85,     81, -1 
	    63,     86,     85, -1 
	    63,     66,     86, -1 
	    67,     64,     87, -1 
	    88,     64,     65, -1 
	    88,     89,     64, -1 
	    87,     64,     90, -1 
	    89,     90,     64, -1 
	    91,     88,     65, -1 
	    92,     91,     65, -1 
	    68,     92,     65, -1 
	    93,     84,     66, -1 
	    93,     66,     67, -1 
	    84,     83,     66, -1 
	    66,     83,     86, -1 
	    93,     67,     87, -1 
	    69,     92,     68, -1 
	    69,     72,     94, -1 
	    69,     94,     95, -1 
	    69,     95,     92, -1 
	    70,     96,     97, -1 
	    70,     97,     71, -1 
	    70,     98,     96, -1 
	    78,     98,     70, -1 
	    97,     99,     71, -1 
	    99,     73,     71, -1 
	    72,    100,    101, -1 
	    72,    101,     94, -1 
	   102,     72,     74, -1 
	    72,    102,    100, -1 
	    75,     73,    103, -1 
	    73,    104,    103, -1 
	    99,    104,     73, -1 
	   105,     74,     75, -1 
	   102,     74,    105, -1 
	    75,    103,    106, -1 
	   105,     75,    106, -1 
	    76,     80,     77, -1 
	    77,     80,    107, -1 
	    77,    107,    108, -1 
	   103,     78,     77, -1 
	   103,     77,    108, -1 
	   104,     98,     78, -1 
	   104,     78,    103, -1 
	   109,     80,     79, -1 
	   109,     79,     84, -1 
	   109,    110,     80, -1 
	   110,    111,     80, -1 
	    80,    111,    107, -1 
	   112,     81,     85, -1 
	   112,     82,     81, -1 
	   112,    113,     82, -1 
	    82,    114,     83, -1 
	   115,    114,     82, -1 
	   113,    115,     82, -1 
	    86,     83,    116, -1 
	   114,    116,     83, -1 
	   109,     84,     93, -1 
	   117,    112,     85, -1 
	    85,     89,    117, -1 
	    85,     86,     90, -1 
	    89,     85,     90, -1 
	    86,    116,     90, -1 
	    93,     87,    118, -1 
	   118,     87,     90, -1 
	    88,    117,     89, -1 
	    88,     91,    119, -1 
	   120,    117,     88, -1 
	   119,    120,     88, -1 
	   118,     90,    116, -1 
	   121,     91,     92, -1 
	    91,    121,    122, -1 
	   119,     91,    122, -1 
	    92,     95,    121, -1 
	   110,    109,     93, -1 
	   123,    110,     93, -1 
	   124,    123,     93, -1 
	   125,    124,     93, -1 
	   118,    125,     93, -1 
	   126,     95,     94, -1 
	    94,    101,    127, -1 
	    94,    127,    128, -1 
	    94,    128,    129, -1 
	    94,    129,    126, -1 
	   130,    121,     95, -1 
	   130,     95,    126, -1 
	    97,     96,    131, -1 
	    96,     98,    132, -1 
	    96,    132,    131, -1 
	    97,    131,    101, -1 
	   101,    100,     97, -1 
	   102,     99,     97, -1 
	   102,     97,    100, -1 
	   104,    133,     98, -1 
	    98,    133,    134, -1 
	    98,    134,    132, -1 
	   135,    104,     99, -1 
	   102,    135,     99, -1 
	   101,    131,    136, -1 
	   136,    137,    101, -1 
	   101,    137,    138, -1 
	   101,    138,    127, -1 
	   135,    102,    105, -1 
	   106,    103,    108, -1 
	   104,    135,    133, -1 
	   106,    139,    105, -1 
	   105,    140,    128, -1 
	   105,    128,    141, -1 
	   142,    140,    105, -1 
	   142,    105,    139, -1 
	   135,    105,    141, -1 
	   106,    108,    107, -1 
	   106,    107,    143, -1 
	   106,    143,    144, -1 
	   106,    144,    139, -1 
	   107,    111,    145, -1 
	   107,    145,    143, -1 
	   145,    111,    110, -1 
	   123,    145,    110, -1 
	   146,    112,    117, -1 
	   146,    113,    112, -1 
	   146,    147,    113, -1 
	   147,    115,    113, -1 
	   148,    116,    114, -1 
	   148,    114,    115, -1 
	   147,    148,    115, -1 
	   149,    118,    116, -1 
	   150,    151,    116, -1 
	   150,    116,    148, -1 
	   151,    152,    116, -1 
	   152,    149,    116, -1 
	   120,    152,    117, -1 
	   117,    153,    154, -1 
	   117,    154,    146, -1 
	   152,    153,    117, -1 
	   149,    155,    118, -1 
	   118,    155,    156, -1 
	   125,    118,    156, -1 
	   119,    157,    120, -1 
	   158,    119,    121, -1 
	   121,    119,    122, -1 
	   159,    153,    119, -1 
	   158,    160,    119, -1 
	   151,    119,    153, -1 
	   159,    119,    160, -1 
	   151,    157,    119, -1 
	   149,    120,    155, -1 
	   161,    155,    120, -1 
	   161,    120,    157, -1 
	   152,    120,    149, -1 
	   162,    158,    121, -1 
	   121,    163,    162, -1 
	   121,    126,    163, -1 
	   130,    126,    121, -1 
	   164,    145,    123, -1 
	   165,    123,    124, -1 
	   165,    164,    123, -1 
	   124,    125,    156, -1 
	   165,    124,    156, -1 
	   126,    137,    166, -1 
	   126,    167,    168, -1 
	   126,    168,    163, -1 
	   137,    126,    138, -1 
	   169,    167,    126, -1 
	   169,    126,    166, -1 
	   126,    129,    138, -1 
	   135,    127,    138, -1 
	   141,    128,    127, -1 
	   135,    141,    127, -1 
	   128,    140,    170, -1 
	   129,    128,    170, -1 
	   138,    129,    171, -1 
	   171,    129,    167, -1 
	   129,    170,    172, -1 
	   129,    172,    167, -1 
	   131,    132,    173, -1 
	   131,    173,    136, -1 
	   132,    134,    174, -1 
	   132,    174,    173, -1 
	   134,    133,    135, -1 
	   134,    135,    174, -1 
	   174,    135,    138, -1 
	   136,    175,    137, -1 
	   136,    173,    175, -1 
	   137,    175,    166, -1 
	   174,    138,    176, -1 
	   176,    138,    171, -1 
	   142,    139,    144, -1 
	   142,    177,    140, -1 
	   140,    178,    170, -1 
	   140,    177,    179, -1 
	   140,    179,    180, -1 
	   140,    180,    178, -1 
	   142,    144,    177, -1 
	   143,    145,    181, -1 
	   144,    143,    177, -1 
	   143,    181,    177, -1 
	   164,    182,    145, -1 
	   145,    182,    181, -1 
	   154,    147,    146, -1 
	   154,    183,    147, -1 
	   183,    148,    147, -1 
	   183,    184,    148, -1 
	   184,    150,    148, -1 
	   185,    151,    150, -1 
	   184,    185,    150, -1 
	   152,    151,    153, -1 
	   186,    157,    151, -1 
	   185,    186,    151, -1 
	   159,    154,    153, -1 
	   187,    188,    154, -1 
	   187,    154,    159, -1 
	   189,    154,    190, -1 
	   154,    188,    190, -1 
	   189,    183,    154, -1 
	   155,    165,    156, -1 
	   161,    191,    155, -1 
	   192,    165,    155, -1 
	   193,    192,    155, -1 
	   191,    193,    155, -1 
	   194,    160,    157, -1 
	   194,    157,    186, -1 
	   160,    161,    157, -1 
	   158,    195,    160, -1 
	   196,    197,    158, -1 
	   158,    162,    198, -1 
	   196,    158,    198, -1 
	   199,    195,    158, -1 
	   199,    158,    197, -1 
	   159,    160,    194, -1 
	   187,    159,    194, -1 
	   160,    200,    161, -1 
	   195,    200,    160, -1 
	   201,    191,    161, -1 
	   200,    201,    161, -1 
	   162,    202,    198, -1 
	   203,    202,    162, -1 
	   203,    162,    163, -1 
	   163,    204,    205, -1 
	   203,    163,    205, -1 
	   204,    163,    168, -1 
	   206,    182,    164, -1 
	   192,    206,    164, -1 
	   192,    164,    165, -1 
	   166,    175,    207, -1 
	   166,    207,    208, -1 
	   169,    166,    208, -1 
	   171,    167,    169, -1 
	   167,    172,    168, -1 
	   204,    168,    209, -1 
	   209,    168,    210, -1 
	   172,    211,    168, -1 
	   168,    211,    210, -1 
	   212,    171,    169, -1 
	   212,    169,    213, -1 
	   214,    213,    169, -1 
	   214,    169,    215, -1 
	   215,    169,    216, -1 
	   169,    208,    216, -1 
	   170,    178,    217, -1 
	   170,    217,    218, -1 
	   170,    218,    172, -1 
	   176,    171,    212, -1 
	   172,    218,    211, -1 
	   173,    219,    175, -1 
	   173,    174,    220, -1 
	   173,    220,    219, -1 
	   174,    176,    212, -1 
	   174,    212,    220, -1 
	   221,    175,    222, -1 
	   221,    207,    175, -1 
	   175,    219,    222, -1 
	   177,    181,    179, -1 
	   223,    217,    178, -1 
	   223,    178,    180, -1 
	   181,    206,    179, -1 
	   179,    206,    180, -1 
	   206,    224,    180, -1 
	   223,    180,    224, -1 
	   181,    182,    206, -1 
	   189,    225,    183, -1 
	   226,    184,    183, -1 
	   226,    183,    225, -1 
	   226,    185,    184, -1 
	   227,    186,    185, -1 
	   226,    227,    185, -1 
	   227,    194,    186, -1 
	   228,    187,    194, -1 
	   228,    188,    187, -1 
	   228,    229,    188, -1 
	   188,    230,    190, -1 
	   229,    230,    188, -1 
	   231,    189,    190, -1 
	   232,    225,    189, -1 
	   232,    189,    231, -1 
	   230,    231,    190, -1 
	   191,    201,    233, -1 
	   193,    191,    233, -1 
	   193,    206,    192, -1 
	   193,    224,    206, -1 
	   224,    193,    233, -1 
	   194,    227,    234, -1 
	   235,    194,    234, -1 
	   228,    194,    235, -1 
	   236,    195,    199, -1 
	   195,    237,    238, -1 
	   195,    238,    200, -1 
	   236,    237,    195, -1 
	   202,    196,    198, -1 
	   239,    196,    240, -1 
	   196,    241,    240, -1 
	   239,    197,    196, -1 
	   241,    196,    202, -1 
	   242,    228,    197, -1 
	   197,    239,    240, -1 
	   242,    197,    240, -1 
	   197,    235,    199, -1 
	   228,    235,    197, -1 
	   243,    244,    199, -1 
	   243,    199,    235, -1 
	   236,    199,    245, -1 
	   199,    244,    245, -1 
	   200,    238,    201, -1 
	   246,    201,    238, -1 
	   201,    247,    233, -1 
	   246,    247,    201, -1 
	   203,    205,    202, -1 
	   202,    205,    241, -1 
	   204,    216,    248, -1 
	   204,    248,    249, -1 
	   250,    251,    204, -1 
	   250,    204,    249, -1 
	   205,    204,    251, -1 
	   209,    215,    204, -1 
	   204,    215,    216, -1 
	   250,    205,    251, -1 
	   250,    241,    205, -1 
	   208,    207,    252, -1 
	   221,    253,    207, -1 
	   207,    253,    252, -1 
	   208,    252,    216, -1 
	   215,    209,    254, -1 
	   255,    209,    210, -1 
	   255,    254,    209, -1 
	   255,    210,    211, -1 
	   218,    256,    211, -1 
	   255,    211,    257, -1 
	   258,    257,    211, -1 
	   258,    211,    256, -1 
	   220,    212,    213, -1 
	   220,    213,    259, -1 
	   214,    260,    213, -1 
	   261,    259,    213, -1 
	   261,    213,    262, -1 
	   213,    260,    262, -1 
	   214,    215,    260, -1 
	   215,    254,    263, -1 
	   260,    215,    263, -1 
	   216,    252,    264, -1 
	   216,    264,    248, -1 
	   218,    217,    265, -1 
	   223,    247,    217, -1 
	   217,    247,    265, -1 
	   218,    265,    256, -1 
	   219,    266,    222, -1 
	   266,    219,    220, -1 
	   266,    220,    259, -1 
	   221,    222,    267, -1 
	   221,    267,    253, -1 
	   267,    222,    266, -1 
	   223,    224,    268, -1 
	   223,    268,    247, -1 
	   268,    224,    233, -1 
	   269,    226,    225, -1 
	   269,    225,    232, -1 
	   270,    227,    226, -1 
	   270,    226,    269, -1 
	   227,    271,    234, -1 
	   270,    271,    227, -1 
	   242,    272,    228, -1 
	   272,    229,    228, -1 
	   272,    273,    229, -1 
	   273,    230,    229, -1 
	   273,    274,    230, -1 
	   274,    232,    230, -1 
	   232,    231,    230, -1 
	   232,    275,    276, -1 
	   269,    232,    276, -1 
	   275,    232,    274, -1 
	   247,    268,    233, -1 
	   271,    235,    234, -1 
	   243,    235,    271, -1 
	   237,    236,    245, -1 
	   237,    277,    238, -1 
	   278,    237,    245, -1 
	   237,    278,    258, -1 
	   277,    237,    258, -1 
	   277,    246,    238, -1 
	   279,    242,    240, -1 
	   280,    279,    240, -1 
	   241,    280,    240, -1 
	   250,    280,    241, -1 
	   279,    243,    242, -1 
	   242,    243,    271, -1 
	   242,    271,    272, -1 
	   279,    281,    243, -1 
	   281,    244,    243, -1 
	   281,    282,    244, -1 
	   244,    282,    245, -1 
	   283,    278,    245, -1 
	   284,    283,    245, -1 
	   285,    284,    245, -1 
	   286,    285,    245, -1 
	   282,    286,    245, -1 
	   277,    287,    246, -1 
	   246,    287,    247, -1 
	   247,    287,    265, -1 
	   248,    264,    288, -1 
	   248,    288,    289, -1 
	   248,    260,    263, -1 
	   248,    263,    249, -1 
	   262,    260,    248, -1 
	   262,    248,    289, -1 
	   250,    249,    290, -1 
	   249,    263,    291, -1 
	   249,    291,    290, -1 
	   250,    290,    280, -1 
	   252,    253,    292, -1 
	   252,    292,    264, -1 
	   253,    293,    292, -1 
	   253,    267,    293, -1 
	   255,    294,    254, -1 
	   263,    254,    294, -1 
	   255,    257,    295, -1 
	   255,    295,    296, -1 
	   255,    296,    297, -1 
	   255,    297,    298, -1 
	   255,    298,    294, -1 
	   258,    256,    287, -1 
	   265,    287,    256, -1 
	   258,    299,    257, -1 
	   257,    299,    300, -1 
	   257,    300,    295, -1 
	   287,    277,    258, -1 
	   278,    299,    258, -1 
	   293,    266,    259, -1 
	   293,    259,    261, -1 
	   301,    293,    261, -1 
	   301,    261,    302, -1 
	   261,    303,    302, -1 
	   261,    304,    303, -1 
	   261,    262,    304, -1 
	   304,    262,    305, -1 
	   305,    262,    289, -1 
	   263,    294,    291, -1 
	   264,    292,    306, -1 
	   264,    306,    288, -1 
	   267,    266,    293, -1 
	   307,    270,    269, -1 
	   308,    269,    276, -1 
	   308,    309,    269, -1 
	   309,    307,    269, -1 
	   310,    271,    270, -1 
	   311,    312,    270, -1 
	   311,    270,    307, -1 
	   310,    270,    312, -1 
	   310,    272,    271, -1 
	   310,    273,    272, -1 
	   310,    313,    273, -1 
	   313,    274,    273, -1 
	   313,    314,    274, -1 
	   315,    275,    274, -1 
	   315,    274,    314, -1 
	   275,    315,    276, -1 
	   315,    316,    276, -1 
	   317,    308,    276, -1 
	   318,    317,    276, -1 
	   319,    318,    276, -1 
	   316,    319,    276, -1 
	   283,    299,    278, -1 
	   320,    321,    279, -1 
	   320,    279,    280, -1 
	   322,    281,    279, -1 
	   322,    279,    321, -1 
	   280,    290,    323, -1 
	   280,    323,    320, -1 
	   324,    282,    281, -1 
	   324,    281,    325, -1 
	   325,    281,    322, -1 
	   324,    286,    282, -1 
	   283,    300,    299, -1 
	   284,    300,    283, -1 
	   284,    326,    300, -1 
	   327,    326,    284, -1 
	   327,    284,    285, -1 
	   328,    285,    324, -1 
	   285,    328,    329, -1 
	   327,    285,    329, -1 
	   324,    285,    286, -1 
	   289,    288,    330, -1 
	   288,    306,    331, -1 
	   288,    331,    330, -1 
	   289,    330,    332, -1 
	   323,    289,    332, -1 
	   323,    305,    289, -1 
	   323,    290,    291, -1 
	   323,    291,    333, -1 
	   291,    294,    298, -1 
	   291,    298,    334, -1 
	   335,    291,    334, -1 
	   333,    291,    335, -1 
	   292,    293,    336, -1 
	   306,    292,    336, -1 
	   301,    336,    293, -1 
	   295,    300,    326, -1 
	   295,    326,    296, -1 
	   296,    326,    337, -1 
	   296,    337,    338, -1 
	   297,    296,    338, -1 
	   334,    297,    339, -1 
	   340,    339,    297, -1 
	   340,    297,    338, -1 
	   298,    297,    334, -1 
	   301,    341,    342, -1 
	   301,    342,    336, -1 
	   301,    302,    343, -1 
	   301,    343,    344, -1 
	   301,    344,    345, -1 
	   301,    345,    341, -1 
	   346,    343,    302, -1 
	   346,    302,    347, -1 
	   303,    347,    302, -1 
	   303,    304,    348, -1 
	   303,    348,    347, -1 
	   304,    305,    348, -1 
	   305,    335,    349, -1 
	   348,    305,    349, -1 
	   305,    333,    335, -1 
	   323,    333,    305, -1 
	   306,    336,    342, -1 
	   341,    331,    306, -1 
	   341,    306,    342, -1 
	   350,    311,    307, -1 
	   350,    307,    309, -1 
	   308,    317,    351, -1 
	   350,    308,    351, -1 
	   308,    350,    309, -1 
	   352,    313,    310, -1 
	   352,    310,    321, -1 
	   310,    312,    321, -1 
	   353,    311,    350, -1 
	   354,    311,    353, -1 
	   354,    355,    311, -1 
	   355,    312,    311, -1 
	   355,    325,    312, -1 
	   325,    322,    312, -1 
	   312,    322,    321, -1 
	   352,    356,    313, -1 
	   356,    314,    313, -1 
	   356,    357,    314, -1 
	   315,    314,    357, -1 
	   315,    357,    316, -1 
	   316,    357,    358, -1 
	   316,    358,    319, -1 
	   317,    359,    351, -1 
	   360,    361,    317, -1 
	   360,    317,    318, -1 
	   362,    359,    317, -1 
	   362,    317,    361, -1 
	   318,    319,    358, -1 
	   318,    358,    360, -1 
	   321,    320,    363, -1 
	   320,    364,    363, -1 
	   365,    320,    323, -1 
	   365,    364,    320, -1 
	   366,    321,    363, -1 
	   352,    321,    367, -1 
	   321,    366,    367, -1 
	   365,    323,    368, -1 
	   369,    323,    332, -1 
	   369,    368,    323, -1 
	   324,    370,    371, -1 
	   328,    324,    371, -1 
	   324,    325,    370, -1 
	   355,    370,    325, -1 
	   327,    337,    326, -1 
	   337,    327,    372, -1 
	   327,    373,    372, -1 
	   373,    327,    329, -1 
	   374,    328,    371, -1 
	   328,    374,    329, -1 
	   375,    373,    329, -1 
	   376,    375,    329, -1 
	   374,    376,    329, -1 
	   332,    330,    377, -1 
	   378,    377,    330, -1 
	   378,    330,    331, -1 
	   345,    378,    331, -1 
	   345,    331,    341, -1 
	   369,    332,    379, -1 
	   379,    332,    380, -1 
	   380,    332,    377, -1 
	   381,    382,    334, -1 
	   381,    334,    339, -1 
	   382,    335,    334, -1 
	   335,    382,    349, -1 
	   372,    338,    337, -1 
	   372,    373,    338, -1 
	   340,    338,    373, -1 
	   381,    339,    383, -1 
	   340,    383,    339, -1 
	   340,    373,    375, -1 
	   340,    375,    376, -1 
	   340,    376,    383, -1 
	   346,    384,    343, -1 
	   344,    343,    385, -1 
	   385,    343,    384, -1 
	   344,    385,    386, -1 
	   386,    345,    344, -1 
	   386,    378,    345, -1 
	   346,    347,    384, -1 
	   384,    347,    348, -1 
	   384,    348,    387, -1 
	   387,    348,    388, -1 
	   348,    349,    388, -1 
	   381,    389,    349, -1 
	   381,    349,    382, -1 
	   349,    389,    390, -1 
	   388,    349,    390, -1 
	   353,    350,    359, -1 
	   359,    350,    351, -1 
	   391,    352,    367, -1 
	   392,    393,    352, -1 
	   392,    352,    391, -1 
	   394,    356,    352, -1 
	   394,    352,    393, -1 
	   353,    359,    395, -1 
	   354,    353,    395, -1 
	   396,    354,    395, -1 
	   397,    355,    354, -1 
	   396,    397,    354, -1 
	   355,    398,    371, -1 
	   370,    355,    371, -1 
	   397,    398,    355, -1 
	   357,    356,    394, -1 
	   357,    394,    358, -1 
	   358,    394,    399, -1 
	   358,    399,    360, -1 
	   359,    362,    395, -1 
	   360,    399,    400, -1 
	   360,    400,    361, -1 
	   361,    400,    401, -1 
	   361,    401,    362, -1 
	   362,    396,    395, -1 
	   362,    401,    402, -1 
	   362,    402,    396, -1 
	   403,    366,    363, -1 
	   364,    403,    363, -1 
	   404,    403,    364, -1 
	   365,    405,    364, -1 
	   364,    405,    406, -1 
	   364,    406,    404, -1 
	   365,    368,    405, -1 
	   366,    391,    367, -1 
	   403,    391,    366, -1 
	   369,    379,    368, -1 
	   368,    379,    407, -1 
	   368,    407,    405, -1 
	   408,    409,    371, -1 
	   398,    408,    371, -1 
	   374,    371,    409, -1 
	   410,    411,    374, -1 
	   411,    376,    374, -1 
	   412,    410,    374, -1 
	   412,    374,    409, -1 
	   383,    376,    411, -1 
	   386,    413,    377, -1 
	   386,    377,    378, -1 
	   380,    377,    413, -1 
	   379,    380,    414, -1 
	   379,    414,    415, -1 
	   379,    415,    407, -1 
	   380,    413,    416, -1 
	   380,    416,    417, -1 
	   414,    380,    417, -1 
	   381,    418,    419, -1 
	   381,    419,    389, -1 
	   418,    381,    383, -1 
	   383,    411,    420, -1 
	   383,    420,    421, -1 
	   418,    383,    421, -1 
	   385,    384,    422, -1 
	   423,    422,    384, -1 
	   423,    384,    387, -1 
	   422,    416,    385, -1 
	   385,    416,    413, -1 
	   385,    413,    386, -1 
	   423,    387,    388, -1 
	   423,    388,    424, -1 
	   388,    390,    424, -1 
	   390,    389,    419, -1 
	   425,    426,    390, -1 
	   426,    427,    390, -1 
	   390,    427,    424, -1 
	   425,    390,    419, -1 
	   403,    428,    391, -1 
	   428,    392,    391, -1 
	   428,    429,    392, -1 
	   430,    393,    392, -1 
	   430,    392,    429, -1 
	   430,    431,    393, -1 
	   431,    399,    393, -1 
	   399,    394,    393, -1 
	   396,    402,    397, -1 
	   397,    432,    433, -1 
	   397,    402,    432, -1 
	   408,    398,    397, -1 
	   408,    397,    433, -1 
	   431,    400,    399, -1 
	   434,    401,    400, -1 
	   434,    400,    431, -1 
	   432,    402,    401, -1 
	   432,    401,    434, -1 
	   404,    435,    403, -1 
	   435,    428,    403, -1 
	   404,    436,    437, -1 
	   435,    404,    437, -1 
	   438,    436,    404, -1 
	   438,    404,    406, -1 
	   405,    407,    406, -1 
	   438,    406,    407, -1 
	   438,    407,    415, -1 
	   439,    409,    408, -1 
	   439,    408,    433, -1 
	   412,    409,    439, -1 
	   410,    440,    437, -1 
	   411,    410,    437, -1 
	   412,    440,    410, -1 
	   436,    411,    437, -1 
	   438,    420,    411, -1 
	   438,    411,    436, -1 
	   441,    412,    439, -1 
	   412,    441,    440, -1 
	   414,    417,    442, -1 
	   415,    414,    442, -1 
	   415,    442,    443, -1 
	   415,    443,    444, -1 
	   438,    415,    444, -1 
	   422,    445,    416, -1 
	   417,    416,    445, -1 
	   417,    445,    446, -1 
	   442,    417,    446, -1 
	   425,    419,    418, -1 
	   425,    418,    447, -1 
	   447,    418,    421, -1 
	   438,    448,    420, -1 
	   420,    448,    421, -1 
	   447,    421,    444, -1 
	   448,    444,    421, -1 
	   423,    424,    422, -1 
	   424,    445,    422, -1 
	   424,    427,    445, -1 
	   443,    425,    449, -1 
	   446,    426,    425, -1 
	   443,    446,    425, -1 
	   449,    425,    447, -1 
	   446,    427,    426, -1 
	   446,    445,    427, -1 
	   428,    435,    437, -1 
	   429,    428,    437, -1 
	   441,    430,    429, -1 
	   441,    429,    437, -1 
	   441,    450,    430, -1 
	   450,    431,    430, -1 
	   450,    434,    431, -1 
	   433,    432,    434, -1 
	   451,    433,    450, -1 
	   433,    434,    450, -1 
	   439,    433,    451, -1 
	   440,    441,    437, -1 
	   438,    444,    448, -1 
	   441,    439,    451, -1 
	   441,    451,    450, -1 
	   442,    446,    443, -1 
	   443,    449,    444, -1 
	   449,    447,    444, -1 
    ] 
normalPerVertex  TRUE 
   } 
  } 
 ] 
} 
