# 
# Wavefront OBJ file
# Converted by the DEEP Exploration 2.00.1211
# Right Hemisphere, LTD
# http://www.righthemisphere.com/
# 
mtllib scapula_r.mtl
# object Object #0
g Object__0
v -0.072428 -0.180405 -0.041622
v -0.074672 -0.177178 -0.043939
v -0.076916 -0.173952 -0.046256
v -0.073823 -0.173458 -0.047553
v -0.072122 -0.178564 -0.043895
v -0.067497 -0.180244 -0.028972
v -0.069389 -0.180525 -0.029564
v -0.073432 -0.174734 -0.032092
v -0.077392 -0.168572 -0.038291
v -0.080093 -0.159393 -0.04403
v -0.080326 -0.165558 -0.051948
v -0.075461 -0.170344 -0.049416
v -0.077099 -0.16723 -0.051279
v -0.066248 -0.172481 -0.035901
v -0.066089 -0.176652 -0.031515
v -0.062292 -0.164987 -0.017275
v -0.065391 -0.164522 -0.01699
v -0.068136 -0.161452 -0.019215
v -0.072163 -0.1563 -0.02315
v -0.074814 -0.146341 -0.029128
v -0.073774 -0.141904 -0.0331
v -0.081153 -0.153597 -0.048809
v -0.083402 -0.156814 -0.055692
v -0.080653 -0.160033 -0.055369
v -0.068694 -0.167587 -0.040403
v -0.072 -0.160621 -0.043115
v -0.065225 -0.156637 -0.022995
v -0.063777 -0.161992 -0.02021
v -0.063094 -0.154242 -0.014642
v -0.065997 -0.153717 -0.01415
v -0.067528 -0.151825 -0.014435
v -0.072353 -0.145578 -0.019101
v -0.073733 -0.13969 -0.023635
v -0.072256 -0.134465 -0.027033
v -0.074827 -0.136048 -0.035583
v -0.072294 -0.129264 -0.02869
v -0.082218 -0.146161 -0.050902
v -0.085355 -0.150296 -0.057548
v -0.090948 -0.130188 -0.06465
v -0.088375 -0.138474 -0.063671
v -0.075734 -0.151992 -0.046645
v -0.065679 -0.151829 -0.025347
v -0.067279 -0.145272 -0.029078
v -0.063594 -0.146303 -0.018519
v -0.062712 -0.150709 -0.015473
v -0.062868 -0.131059 -0.009071
v -0.067666 -0.130183 -0.007759
v -0.069429 -0.128632 -0.008531
v -0.070433 -0.126543 -0.010884
v -0.069159 -0.12175 -0.014374
v -0.068205 -0.118371 -0.018399
v -0.0681 -0.115493 -0.019995
v -0.08028 -0.117135 -0.041745
v -0.076594 -0.109263 -0.033811
v -0.070959 -0.098979 -0.026665
v -0.087901 -0.125457 -0.055376
v -0.091508 -0.103132 -0.062471
v -0.094331 -0.107852 -0.06885
v -0.093092 -0.109324 -0.07073
v -0.082775 -0.131375 -0.053757
v -0.07072 -0.137592 -0.032232
v -0.063914 -0.142696 -0.019923
v -0.065243 -0.137483 -0.023159
v -0.059879 -0.129615 -0.012833
v -0.060793 -0.130779 -0.010576
v -0.060876 -0.115943 -0.002629
v -0.062297 -0.114994 -0.000456
v -0.064018 -0.113156 -0.000957
v -0.064433 -0.111625 -0.003673
v -0.064166 -0.109128 -0.007251
v -0.063034 -0.106233 -0.012851
v -0.062881 -0.104165 -0.015061
v -0.065916 -0.092245 -0.021577
v -0.084342 -0.095351 -0.047906
v -0.08008 -0.089546 -0.041132
v -0.073414 -0.08406 -0.032909
v -0.067695 -0.080252 -0.026902
v -0.092571 -0.092674 -0.06436
v -0.086368 -0.071901 -0.059391
v -0.093634 -0.082216 -0.066249
v -0.095356 -0.090506 -0.069606
v -0.096373 -0.0808 -0.071155
v -0.095772 -0.077406 -0.071001
v -0.086598 -0.103365 -0.060935
v -0.076043 -0.120889 -0.038728
v -0.068809 -0.128215 -0.02738
v -0.060377 -0.128134 -0.014322
v -0.061365 -0.125657 -0.016787
v -0.055582 -0.11396 -0.007019
v -0.058532 -0.11352 -0.002593
v -0.052458 -0.103152 0.001431
v -0.05431 -0.102514 0.002523
v -0.056073 -0.100962 0.001751
v -0.056507 -0.098326 -8.5e-005
v -0.05629 -0.095646 -0.004442
v -0.05452 -0.094467 -0.008617
v -0.054754 -0.092407 -0.011643
v -0.058632 -0.084551 -0.016391
v -0.060013 -0.07413 -0.02129
v -0.08148 -0.064834 -0.054631
v -0.075736 -0.058659 -0.048481
v -0.068871 -0.053765 -0.041442
v -0.061099 -0.050422 -0.031718
v -0.087912 -0.062444 -0.061175
v -0.083699 -0.056981 -0.056985
v -0.093508 -0.0703 -0.065873
v -0.097378 -0.075074 -0.070555
v -0.087155 -0.071981 -0.06331
v -0.095965 -0.062359 -0.071514
v -0.079569 -0.094957 -0.046407
v -0.072544 -0.115053 -0.031275
v -0.066165 -0.117042 -0.02131
v -0.054173 -0.112837 -0.009322
v -0.055247 -0.111421 -0.011826
v -0.049532 -0.101586 -0.005415
v -0.05212 -0.103014 -0.000837
v -0.043896 -0.092266 0.002751
v -0.04612 -0.091734 0.00342
v -0.048405 -0.089408 0.00369
v -0.048838 -0.087736 0.002873
v -0.0487 -0.086112 -0.001529
v -0.046797 -0.084697 -0.006277
v -0.047375 -0.082834 -0.00933
v -0.049481 -0.077107 -0.012407
v -0.050568 -0.069087 -0.015406
v -0.05354 -0.051479 -0.022633
v -0.077631 -0.052429 -0.049158
v -0.071929 -0.047992 -0.041755
v -0.064275 -0.044508 -0.031582
v -0.056027 -0.045159 -0.022429
v -0.08961 -0.057602 -0.060136
v -0.085233 -0.054452 -0.055874
v -0.081212 -0.049794 -0.046663
v -0.092692 -0.06188 -0.063686
v -0.097498 -0.068893 -0.069689
v -0.078646 -0.066991 -0.05427
v -0.08737 -0.057326 -0.06372
v -0.092514 -0.046672 -0.072706
v -0.096748 -0.058754 -0.070194
v -0.075262 -0.090831 -0.039632
v -0.068665 -0.10776 -0.024539
v -0.059875 -0.101648 -0.015252
v -0.048172 -0.100265 -0.008502
v -0.048621 -0.09753 -0.010731
v -0.042958 -0.09092 -0.003842
v -0.044281 -0.091946 -0.000481
v -0.041532 -0.089951 0.003177
v -0.04332 -0.088143 0.003916
v -0.045816 -0.086267 0.00409
v -0.047176 -0.08486 0.002222
v -0.045948 -0.083301 -0.000793
v -0.04453 -0.081372 -0.00602
v -0.044678 -0.078728 -0.008492
v -0.045943 -0.072833 -0.011575
v -0.047319 -0.066794 -0.0142
v -0.049336 -0.053488 -0.01733
v -0.051046 -0.045619 -0.017409
v -0.076204 -0.04623 -0.03881
v -0.069479 -0.041033 -0.029408
v -0.063393 -0.035952 -0.019794
v -0.056489 -0.035822 -0.01392
v -0.090866 -0.054525 -0.057868
v -0.08686 -0.053678 -0.052897
v -0.086288 -0.051268 -0.03988
v -0.083624 -0.048622 -0.031283
v -0.093745 -0.057407 -0.062346
v -0.073563 -0.063868 -0.047149
v -0.078991 -0.053208 -0.055504
v -0.082874 -0.044608 -0.06548
v -0.094096 -0.048965 -0.07151
v -0.08766 -0.034167 -0.071634
v -0.090302 -0.036489 -0.071416
v -0.092121 -0.041584 -0.070463
v -0.096146 -0.056116 -0.070422
v -0.095544 -0.053477 -0.07065
v -0.09495 -0.054582 -0.061598
v -0.069932 -0.086013 -0.033156
v -0.061504 -0.096822 -0.01773
v -0.05143 -0.091572 -0.012453
v -0.040669 -0.089879 -0.007661
v -0.041804 -0.087645 -0.009556
v -0.040383 -0.088172 -0.003315
v -0.041846 -0.088947 0.000106
v -0.039285 -0.087483 0.004063
v -0.040956 -0.085828 0.004342
v -0.043387 -0.083274 0.004683
v -0.043259 -0.080474 0.003469
v -0.043499 -0.079925 -0.000329
v -0.04168 -0.077493 -0.005244
v -0.041345 -0.075373 -0.007247
v -0.042968 -0.070065 -0.010247
v -0.043116 -0.063851 -0.012064
v -0.045282 -0.054213 -0.013361
v -0.047347 -0.047497 -0.012455
v -0.050392 -0.039055 -0.008804
v -0.076888 -0.041504 -0.023914
v -0.068855 -0.032573 -0.016606
v -0.059759 -0.031302 -0.011398
v -0.052306 -0.032524 -0.005668
v -0.092946 -0.052731 -0.056486
v -0.088486 -0.052905 -0.04992
v -0.088137 -0.051739 -0.039686
v -0.084196 -0.048152 -0.030516
v -0.078564 -0.040327 -0.023128
v -0.067908 -0.062175 -0.039791
v -0.072421 -0.051787 -0.048884
v -0.074147 -0.043223 -0.056486
v -0.077658 -0.033552 -0.06706
v -0.092222 -0.050239 -0.062782
v -0.088684 -0.045546 -0.064753
v -0.088493 -0.031236 -0.070464
v -0.079808 -0.02001 -0.070117
v -0.086263 -0.041103 -0.065691
v -0.084612 -0.036632 -0.065958
v -0.093498 -0.052143 -0.062335
v -0.092013 -0.051988 -0.055942
v -0.062157 -0.078774 -0.025193
v -0.05363 -0.086749 -0.013664
v -0.043897 -0.081856 -0.010328
v -0.037875 -0.086782 -0.006654
v -0.037931 -0.083561 -0.008575
v -0.038109 -0.085318 -0.002549
v -0.039417 -0.085954 0.0007
v -0.036221 -0.084766 0.004547
v -0.038731 -0.083755 0.005348
v -0.039804 -0.081167 0.006022
v -0.040889 -0.078645 0.004408
v -0.040676 -0.076431 0.000568
v -0.038471 -0.073515 -0.004047
v -0.038801 -0.07141 -0.006222
v -0.039262 -0.066604 -0.008581
v -0.040402 -0.062298 -0.010597
v -0.042204 -0.055004 -0.011228
v -0.043633 -0.049528 -0.009412
v -0.046645 -0.042777 -0.005745
v -0.047625 -0.035975 -0.001565
v -0.070219 -0.029513 -0.015793
v -0.063272 -0.025529 -0.008978
v -0.054607 -0.026001 -0.003348
v -0.047308 -0.030935 0.001914
v -0.089993 -0.052545 -0.048285
v -0.088376 -0.047553 -0.04053
v -0.085248 -0.042772 -0.032484
v -0.07995 -0.037227 -0.025004
v -0.069381 -0.026944 -0.018338
v -0.066572 -0.05164 -0.041689
v -0.061752 -0.06157 -0.031046
v -0.069409 -0.042917 -0.051063
v -0.068597 -0.03449 -0.060091
v -0.071687 -0.021274 -0.066505
v -0.090845 -0.050576 -0.057328
v -0.086851 -0.046779 -0.058713
v -0.082823 -0.042605 -0.060223
v -0.084827 -0.025126 -0.069826
v -0.079206 -0.01758 -0.068944
v -0.076151 -0.015878 -0.069734
v -0.081143 -0.030967 -0.0654
v -0.08062 -0.039475 -0.060623
v -0.078586 -0.036492 -0.060852
v -0.089807 -0.049546 -0.048825
v -0.054812 -0.073822 -0.018593
v -0.046441 -0.07723 -0.011567
v -0.040396 -0.078351 -0.009269
v -0.035797 -0.083501 -0.006601
v -0.035993 -0.080045 -0.008458
v -0.035848 -0.082473 -0.001785
v -0.037544 -0.083604 0.001154
v -0.034471 -0.082741 0.005968
v -0.035532 -0.081752 0.006274
v -0.037235 -0.078409 0.006552
v -0.038131 -0.075356 0.004637
v -0.037455 -0.072457 0.001755
v -0.036279 -0.069751 -0.003058
v -0.036033 -0.06662 -0.005222
v -0.036467 -0.063984 -0.007058
v -0.037138 -0.060103 -0.008999
v -0.039451 -0.054118 -0.008468
v -0.041041 -0.048788 -0.006473
v -0.04208 -0.045271 -0.004112
v -0.042894 -0.037792 0.001686
v -0.043218 -0.033495 0.003982
v -0.063474 -0.023025 -0.009828
v -0.056278 -0.020236 -0.000614
v -0.047201 -0.025855 0.004792
v -0.042458 -0.030285 0.006374
v -0.086458 -0.045449 -0.041578
v -0.08371 -0.039813 -0.034982
v -0.078336 -0.034697 -0.028224
v -0.06839 -0.0271 -0.019363
v -0.062635 -0.021908 -0.010849
v -0.060976 -0.052214 -0.034865
v -0.064293 -0.044563 -0.045101
v -0.055721 -0.060407 -0.024662
v -0.062296 -0.036804 -0.055386
v -0.062935 -0.024257 -0.061476
v -0.065302 -0.011627 -0.064127
v -0.088858 -0.048954 -0.050192
v -0.085592 -0.046974 -0.052809
v -0.081602 -0.044673 -0.054972
v -0.074974 -0.022777 -0.064401
v -0.067853 -0.012339 -0.062079
v -0.076572 -0.015105 -0.067242
v -0.070816 -0.028074 -0.060926
v -0.078902 -0.04206 -0.054902
v -0.065388 -0.031791 -0.057902
v -0.083491 -0.044328 -0.042937
v -0.048003 -0.068313 -0.015149
v -0.0427 -0.072524 -0.010642
v -0.037799 -0.075208 -0.008861
v -0.032844 -0.079676 -0.006679
v -0.033607 -0.077335 -0.008151
v -0.03266 -0.078874 -0.000474
v -0.034166 -0.079952 0.00268
v -0.029865 -0.079942 0.007008
v -0.031863 -0.078587 0.007666
v -0.033286 -0.076202 0.00832
v -0.034335 -0.072419 0.00596
v -0.033519 -0.069282 0.002514
v -0.032071 -0.065311 -0.000145
v -0.03263 -0.062052 -0.002028
v -0.033218 -0.059558 -0.003678
v -0.03315 -0.055944 -0.004267
v -0.033027 -0.052035 -0.004585
v -0.035007 -0.047827 -0.004295
v -0.035539 -0.044985 -0.003369
v -0.038315 -0.039489 0.000392
v -0.038163 -0.035617 0.002773
v -0.037043 -0.032838 0.003797
v -0.054875 -0.017721 -0.006738
v -0.046899 -0.023813 0.006723
v -0.054484 -0.0184 0.001593
v -0.052419 -0.015249 -0.002958
v -0.041423 -0.029055 0.007864
v -0.081444 -0.039098 -0.036384
v -0.076189 -0.033363 -0.029691
v -0.067399 -0.027255 -0.020389
v -0.060447 -0.022249 -0.012296
v -0.052397 -0.02467 -0.008345
v -0.059069 -0.046207 -0.03768
v -0.055418 -0.053085 -0.028315
v -0.058161 -0.038382 -0.049353
v -0.048558 -0.058589 -0.019428
v -0.054645 -0.027573 -0.056766
v -0.052373 -0.029208 -0.053532
v -0.058217 -0.015413 -0.058569
v -0.080017 -0.044358 -0.045216
v -0.07655 -0.044395 -0.047488
v -0.073012 -0.043271 -0.050114
v -0.059326 -0.016149 -0.057024
v -0.053462 -0.020459 -0.053959
v -0.061473 -0.035044 -0.055017
v -0.050765 -0.0241 -0.051733
v -0.075609 -0.042843 -0.038649
v -0.043506 -0.065938 -0.012749
v -0.039263 -0.069701 -0.009736
v -0.03502 -0.072012 -0.008246
v -0.030029 -0.076672 -0.005285
v -0.029691 -0.072477 -0.007403
v -0.02723 -0.074319 0.000951
v -0.028122 -0.07558 0.003609
v -0.024069 -0.075759 0.009362
v -0.026492 -0.074163 0.010716
v -0.028596 -0.070836 0.010177
v -0.030445 -0.066355 0.007204
v -0.029577 -0.06302 0.004424
v -0.029675 -0.060086 0.002232
v -0.030082 -0.057064 0.000274
v -0.029997 -0.055043 -0.000691
v -0.030198 -0.052538 -0.001541
v -0.030699 -0.049948 -0.002133
v -0.031061 -0.047592 -0.002789
v -0.03214 -0.04501 -0.002107
v -0.033545 -0.041609 -0.000171
v -0.033583 -0.037791 0.001994
v -0.032071 -0.036658 0.001152
v -0.037706 -0.030339 0.005687
v -0.031673 -0.037334 -0.001741
v -0.035165 -0.031654 0.001065
v -0.034675 -0.027575 0.003476
v -0.045547 -0.026396 -0.005812
v -0.046901 -0.018752 -0.00307
v -0.044632 -0.016854 -0.001282
v -0.044975 -0.0185 0.01143
v -0.04656 -0.014823 0.010743
v -0.040661 -0.01117 0.001526
v -0.038561 -0.012042 0.001829
v -0.03855 -0.024046 0.014523
v -0.068419 -0.040586 -0.031233
v -0.059605 -0.039645 -0.02298
v -0.053576 -0.040127 -0.019275
v -0.046323 -0.039336 -0.013876
v -0.040573 -0.03886 -0.010547
v -0.054431 -0.047824 -0.031685
v -0.053355 -0.041281 -0.043227
v -0.048961 -0.052635 -0.022127
v -0.04685 -0.031241 -0.049515
v -0.044103 -0.057477 -0.016291
v -0.052831 -0.020535 -0.054286
v -0.050318 -0.023947 -0.052547
v -0.071013 -0.045169 -0.041339
v -0.067407 -0.044963 -0.04419
v -0.055285 -0.036196 -0.04857
v -0.045525 -0.028506 -0.047883
v -0.044809 -0.028744 -0.049231
v -0.065085 -0.043951 -0.034102
v -0.039902 -0.063451 -0.011525
v -0.035336 -0.066909 -0.008873
v -0.030582 -0.068876 -0.007525
v -0.025697 -0.071896 -0.003329
v -0.024283 -0.068789 -0.005359
v -0.023452 -0.071626 0.004302
v -0.023761 -0.073693 0.006832
v -0.018018 -0.069617 0.006348
v -0.019568 -0.070993 0.00922
v -0.022438 -0.069551 0.011388
v -0.025601 -0.066183 0.012171
v -0.027245 -0.062219 0.010304
v -0.027373 -0.058718 0.007203
v -0.026485 -0.055861 0.004938
v -0.026246 -0.053696 0.003785
v -0.026329 -0.051333 0.002485
v -0.026091 -0.04955 0.001445
v -0.026524 -0.047878 0.000628
v -0.027375 -0.045963 0.000515
v -0.027526 -0.044133 0.000964
v -0.028222 -0.042552 0.001179
v -0.028827 -0.04039 0.00193
v -0.027018 -0.038234 0.001726
v -0.025634 -0.038446 0.00056
v -0.036003 -0.024829 0.011697
v -0.024369 -0.038043 -0.000657
v -0.029504 -0.039178 -0.003967
v -0.035807 -0.034043 -0.002796
v -0.040116 -0.024238 -0.001864
v -0.038376 -0.02111 0.000461
v -0.032241 -0.021915 0.008026
v -0.040633 -0.028702 -0.004154
v -0.037404 -0.038111 -0.008882
v -0.033299 -0.017082 0.004266
v -0.038467 -0.016524 0.02339
v -0.038479 -0.013981 0.02276
v -0.02951 -0.006049 0.005886
v -0.027534 -0.007311 0.004843
v -0.025408 -0.011694 0.006785
v -0.032148 -0.021812 0.020309
v -0.055362 -0.043761 -0.026081
v -0.049325 -0.044729 -0.021864
v -0.042525 -0.044135 -0.017951
v -0.037809 -0.042772 -0.013934
v -0.034199 -0.042348 -0.012576
v -0.04885 -0.041463 -0.038972
v -0.048059 -0.048912 -0.02502
v -0.04424 -0.052857 -0.018492
v -0.041698 -0.03315 -0.045058
v -0.040562 -0.056621 -0.014204
v -0.060308 -0.044788 -0.038104
v -0.049162 -0.037538 -0.042795
v -0.041117 -0.031101 -0.04377
v -0.040335 -0.03066 -0.044951
v -0.050703 -0.04446 -0.029617
v -0.035204 -0.061653 -0.010314
v -0.030955 -0.06445 -0.008312
v -0.024463 -0.065417 -0.006828
v -0.022281 -0.070835 0.001514
v -0.020915 -0.069035 -0.00208
v -0.016731 -0.068888 0.002714
v -0.013346 -0.0671 0.00856
v -0.015133 -0.066744 0.010823
v -0.018214 -0.06574 0.012905
v -0.022351 -0.061758 0.015551
v -0.02445 -0.056989 0.013486
v -0.024761 -0.053541 0.010178
v -0.024675 -0.051519 0.009212
v -0.024487 -0.049536 0.007389
v -0.024496 -0.048102 0.005861
v -0.024271 -0.046314 0.004831
v -0.024858 -0.044782 0.004186
v -0.025123 -0.043923 0.004203
v -0.02503 -0.042859 0.004249
v -0.025413 -0.041371 0.004212
v -0.025539 -0.040271 0.003649
v -0.023364 -0.037999 0.003871
v -0.023116 -0.03781 0.002446
v -0.0221 -0.036632 0.001634
v -0.029947 -0.019851 0.016716
v -0.022958 -0.037397 -0.002446
v -0.021583 -0.035806 0.00097
v -0.027263 -0.039863 -0.006547
v -0.033933 -0.038415 -0.006441
v -0.025974 -0.016502 0.013145
v -0.031047 -0.04097 -0.009516
v -0.034612 -0.016673 0.028548
v -0.035546 -0.012883 0.027639
v -0.024085 -0.00395 0.007538
v -0.02207 -0.005461 0.004984
v -0.020866 -0.009577 0.007673
v -0.022251 -0.014158 0.01392
v -0.029561 -0.018999 0.023125
v -0.045281 -0.044753 -0.025425
v -0.039794 -0.044382 -0.021059
v -0.034443 -0.043295 -0.017152
v -0.030936 -0.04234 -0.015456
v -0.027315 -0.040901 -0.012824
v -0.043481 -0.042875 -0.032133
v -0.043193 -0.048415 -0.022471
v -0.040392 -0.052101 -0.016651
v -0.036441 -0.035994 -0.038141
v -0.03539 -0.055259 -0.01292
v -0.042213 -0.038561 -0.035116
v -0.03552 -0.03318 -0.037727
v -0.035052 -0.032646 -0.038655
v -0.040075 -0.039801 -0.029709
v -0.030986 -0.058389 -0.010589
v -0.024439 -0.061613 -0.008204
v -0.020616 -0.067212 -0.004357
v -0.015392 -0.067474 -0.000759
v -0.009453 -0.067904 0.003789
v -0.009078 -0.067048 0.010208
v -0.010829 -0.065923 0.012246
v -0.014535 -0.063137 0.015193
v -0.018624 -0.05839 0.017603
v -0.020451 -0.054424 0.017833
v -0.02226 -0.047674 0.015395
v -0.022321 -0.045408 0.014496
v -0.022126 -0.044399 0.01369
v -0.02228 -0.042721 0.012229
v -0.021727 -0.041125 0.011339
v -0.021909 -0.04069 0.010627
v -0.021582 -0.039918 0.009748
v -0.021399 -0.038905 0.008951
v -0.019122 -0.036688 0.008319
v -0.018423 -0.034845 0.006843
v -0.026913 -0.016883 0.018718
v -0.021623 -0.035346 -0.004521
v -0.020787 -0.0345 -0.000838
v -0.024048 -0.038556 -0.009316
v -0.021676 -0.034948 -0.012317
v -0.029397 -0.015012 0.030114
v -0.030977 -0.010312 0.030704
v -0.015969 -0.000413 0.006073
v -0.014784 -0.004158 0.00364
v -0.014166 -0.007219 0.006199
v -0.017877 -0.012664 0.015492
v -0.021381 -0.012855 0.019789
v -0.024659 -0.013675 0.025599
v -0.034003 -0.039508 -0.026237
v -0.029561 -0.039734 -0.021973
v -0.026882 -0.038953 -0.020265
v -0.024162 -0.03734 -0.016502
v -0.018157 -0.030795 -0.016086
v -0.039104 -0.043768 -0.028026
v -0.038957 -0.048123 -0.019315
v -0.034891 -0.051392 -0.014716
v -0.034416 -0.038679 -0.032665
v -0.030759 -0.053665 -0.012377
v -0.033866 -0.036447 -0.032159
v -0.033975 -0.035975 -0.034117
v -0.031526 -0.038843 -0.027049
v -0.023505 -0.056009 -0.01044
v -0.019831 -0.063824 -0.006285
v -0.014064 -0.065425 -0.002843
v -0.00693 -0.066613 0.000843
v -0.005055 -0.066979 0.006262
v -0.009359 -0.063429 0.013796
v -0.006358 -0.065016 0.011168
v -0.012142 -0.060913 0.016013
v -0.01753 -0.057502 0.017968
v -0.019364 -0.053538 0.018191
v -0.020345 -0.047962 0.016888
v -0.020722 -0.04465 0.015212
v -0.020884 -0.043359 0.013871
v -0.020653 -0.042053 0.013338
v -0.020631 -0.041186 0.012719
v -0.020143 -0.040269 0.011661
v -0.019708 -0.038044 0.010717
v -0.018822 -0.036755 0.009878
v -0.019162 -0.035733 0.010401
v -0.016868 -0.032938 0.005767
v -0.018035 -0.034525 0.009254
v -0.017196 -0.034159 0.008507
v -0.019845 -0.030699 -0.007657
v -0.017321 -0.030003 -0.003474
v -0.015204 -0.032043 0.004851
v -0.014415 -0.028329 -0.01071
v -0.026694 -0.010899 0.030946
v -0.025231 -0.006959 0.030979
v -0.004066 0.003546 0.003861
v -0.000851 0.001283 0.000437
v -0.001021 -0.003252 0.002888
v -0.010221 -0.010078 0.017767
v -0.017367 -0.01093 0.022729
v -0.023291 -0.011126 0.028002
v -0.028991 -0.038767 -0.024259
v -0.0241 -0.036447 -0.023351
v -0.021093 -0.034353 -0.020723
v -0.014744 -0.028083 -0.019779
v -0.008036 -0.025948 -0.014239
v -0.035379 -0.043824 -0.024713
v -0.033198 -0.047805 -0.01789
v -0.030177 -0.050709 -0.014397
v -0.032882 -0.041327 -0.027163
v -0.023194 -0.0522 -0.012436
v -0.031655 -0.039227 -0.028378
v -0.027834 -0.039329 -0.025915
v -0.019558 -0.060307 -0.00857
v -0.013329 -0.061853 -0.00555
v -0.006086 -0.064054 -0.001705
v -0.002528 -0.064733 0.002294
v -0.00302 -0.065449 0.007557
v -0.001046 -0.063822 0.00347
v 0.001098 -0.058164 -0.00256
v -6.2e-005 -0.061986 0.001362
v 0.001004 -0.054221 -0.00347
v 0.000766 -0.047956 -0.004444
v -0.000217 -0.045419 -0.004612
v -0.000944 -0.043026 -0.004666
v -0.000196 -0.040019 -0.005595
v -0.014611 -0.032552 0.006773
v 0.000658 -0.035417 -0.005573
v -0.011226 -0.027619 -0.006356
v -0.011834 -0.030106 0.001391
v -0.010627 -0.030798 0.002818
v -0.003519 -0.02709 -0.010192
v -0.023037 -0.006767 0.031329
v -0.021184 -0.008423 0.028953
v 0.00149 0.005549 0.007372
v 0.005971 0.003216 0.003231
v 0.008266 -0.000216 0.002072
v -0.008358 -0.006609 0.019121
v -0.013645 -0.008045 0.025303
v -0.022206 -0.034874 -0.026194
v -0.018947 -0.031567 -0.023714
v -0.012759 -0.025934 -0.022072
v -0.016903 -0.028255 -0.026352
v -0.005709 -0.025087 -0.017269
v -0.001872 -0.027265 -0.014694
v -0.030212 -0.043416 -0.022407
v -0.027989 -0.047164 -0.017616
v -0.021473 -0.049665 -0.014212
v -0.029374 -0.041335 -0.024448
v -0.018469 -0.055036 -0.010478
v -0.019574 -0.037204 -0.030641
v -0.012502 -0.058178 -0.007206
v -0.00484 -0.060134 -0.004569
v -0.000891 -0.062772 -2.5e-005
v 1.9e-005 -0.054675 -0.005185
v 0.000236 -0.058238 -0.002939
v -0.00015 -0.049328 -0.006384
v -0.001413 -0.046322 -0.006424
v -0.001963 -0.044497 -0.00678
v -0.001281 -0.041065 -0.007865
v 0.00023 -0.035871 -0.008572
v -8.6e-005 -0.032061 -0.005763
v -0.007381 -0.029254 -0.001973
v -0.00654 -0.030047 -0.000975
v -0.00038 -0.030623 -0.006644
v 0.000326 -0.032836 -0.008263
v -0.002007 -0.034441 -0.011211
v -0.012035 -0.001728 0.02694
v 0.002641 0.00493 0.014636
v -0.012631 -0.004098 0.028063
v 0.008996 0.004959 0.01096
v 0.011773 0.001161 0.012182
v 2.4e-005 -0.002286 0.020317
v -0.009496 -0.006414 0.025882
v -0.019753 -0.0317 -0.029935
v -0.018117 -0.033323 -0.032904
v -0.007868 -0.022162 -0.022687
v -0.015522 -0.022984 -0.028898
v -0.0196 -0.026063 -0.031491
v 0.000317 -0.023232 -0.018418
v 0.002791 -0.025435 -0.016174
v 1.3e-005 -0.029595 -0.015769
v -0.025023 -0.043646 -0.021499
v -0.02049 -0.046864 -0.01734
v -0.01751 -0.051507 -0.012594
v -0.011685 -0.052435 -0.008977
v -0.011584 -0.037482 -0.032191
v -0.018079 -0.043505 -0.021852
v -0.006867 -0.034339 -0.032114
v -0.004809 -0.056328 -0.005937
v -0.00535 -0.051088 -0.007557
v -0.005684 -0.048347 -0.008335
v -0.004508 -0.04249 -0.009689
v -0.005433 -0.045156 -0.008202
v -0.002819 -0.038268 -0.011466
v -0.004568 -0.038037 -0.017343
v -0.002297 -0.035879 -0.020271
v 0.008533 0.002229 0.01864
v -0.006255 -6.6e-005 0.027231
v -0.006167 -0.004556 0.026349
v 0.008319 -0.000193 0.018282
v -0.016789 -0.027705 -0.034333
v -0.003195 -0.030847 -0.033138
v -0.002515 -0.019311 -0.022715
v -0.009262 -0.020777 -0.029549
v -0.009958 -0.022834 -0.032288
v -0.007928 -0.024916 -0.03395
v 0.005273 -0.022367 -0.019516
v 0.008115 -0.026919 -0.016623
v 0.003261 -0.029976 -0.018537
v -0.016446 -0.049076 -0.014146
v -0.011768 -0.050073 -0.010277
v -0.012665 -0.042908 -0.02097
v -0.014957 -0.046409 -0.016908
v -0.008968 -0.039711 -0.025813
v -0.003276 -0.03767 -0.027095
v 0.002031 -0.037078 -0.027657
v -0.010589 -0.046671 -0.011397
v -0.006006 -0.040574 -0.016213
v -0.008561 -0.044235 -0.013419
v 0.002339 -0.035464 -0.022924
v 0.002726 -0.031398 -0.033191
v 0.007681 -0.037249 -0.027186
v 0.003967 -0.021833 -0.024306
v 0.000636 -0.020803 -0.027815
v -0.000104 -0.02267 -0.031341
v 0.004622 -0.028169 -0.033346
v 0.009688 -0.033269 -0.031117
v 0.010465 -0.023706 -0.019506
v 0.013104 -0.028218 -0.017205
v 0.00826 -0.028808 -0.019368
v 0.007393 -0.037098 -0.024638
v 0.011351 -0.037654 -0.026449
v 0.010727 -0.037313 -0.024049
v 0.011214 -0.023695 -0.022867
v 0.00762 -0.024272 -0.026135
v 0.007101 -0.026267 -0.028665
v 0.009094 -0.028645 -0.0306
v 0.012706 -0.034259 -0.029658
v 0.014187 -0.038697 -0.025197
v 0.016059 -0.025029 -0.018679
v 0.011697 -0.029554 -0.019117
v 0.016165 -0.028921 -0.015475
v 0.013454 -0.03783 -0.022452
v 0.014193 -0.032394 -0.018272
v 0.021076 -0.025942 -0.019383
v 0.020465 -0.026449 -0.022588
v 0.020831 -0.029007 -0.026137
v 0.020787 -0.031914 -0.028078
v 0.023354 -0.037163 -0.028242
v 0.022221 -0.040546 -0.022138
v 0.020713 -0.039642 -0.018719
v 0.021622 -0.026589 -0.01583
v 0.021554 -0.030623 -0.012438
v 0.020177 -0.036652 -0.015891
v 0.02725 -0.029272 -0.01742
v 0.028106 -0.029272 -0.019333
v 0.027572 -0.031168 -0.022255
v 0.026902 -0.034971 -0.02729
v 0.02759 -0.04044 -0.025741
v 0.024933 -0.040965 -0.020933
v 0.023841 -0.040685 -0.018105
v 0.023511 -0.039963 -0.016457
v 0.026276 -0.029622 -0.014537
v 0.025438 -0.031702 -0.012496
v 0.030831 -0.033199 -0.016478
v 0.030846 -0.033351 -0.01839
v 0.03079 -0.034187 -0.020461
v 0.031146 -0.036114 -0.022606
v 0.029904 -0.040183 -0.021643
v 0.02809 -0.041173 -0.018255
v 0.028124 -0.040732 -0.016064
v 0.028274 -0.039952 -0.014854
v 0.029992 -0.03624 -0.013434
v 0.03081 -0.03503 -0.01484
v 0.03143 -0.038304 -0.016498
v 0.031586 -0.038691 -0.018473
v 0.030428 -0.040261 -0.018992
v 0.030687 -0.039954 -0.015823
# 770 verticies
vn -0.131646 -0.93976 -0.31547
vn -0.751679 -0.59816 0.277819
vn -0.52788 -0.676888 -0.512997
vn 0.337532 -0.500055 -0.797507
vn 0.640151 -0.549606 -0.536787
vn 0.56393 -0.797215 0.215479
vn -0.57614 -0.633147 0.516902
vn -0.866124 -0.340678 0.365742
vn -0.934271 -0.218379 0.281867
vn -0.977852 -0.032939 0.206691
vn -0.799032 -0.470113 -0.374889
vn 0.49302 -0.28407 -0.822335
vn 0.396871 -0.298344 -0.868035
vn 0.920794 -0.03801 -0.388193
vn 0.931687 -0.226284 -0.284175
vn 0.777739 -0.304463 0.549931
vn -0.385408 -0.399543 0.831761
vn -0.78704 -0.239344 0.568579
vn -0.908765 -0.132056 0.395863
vn -0.980644 0.097481 0.169807
vn -0.965757 0.114594 0.232771
vn -0.94055 -0.029325 0.338388
vn -0.936778 -0.327813 -0.12242
vn 0.323869 -0.265933 -0.907958
vn 0.88237 0.085071 -0.462802
vn 0.85331 0.131975 -0.504425
vn 0.958656 0.05465 -0.27927
vn 0.972033 0.049246 -0.229625
vn 0.760892 -0.163365 0.627977
vn -0.212525 -0.260774 0.941716
vn -0.735515 -0.223485 0.639587
vn -0.92791 -0.084971 0.362992
vn -0.986982 0.106058 0.120904
vn -0.981663 0.165178 0.095155
vn -0.899158 -0.04661 0.435134
vn -0.920467 0.007526 0.390747
vn -0.883092 -0.085086 0.46142
vn -0.940104 -0.192879 0.281073
vn -0.973475 -0.219007 -0.0662
vn 0.156865 -0.248836 -0.955758
vn 0.847512 0.135188 -0.513272
vn 0.948844 0.04051 -0.313137
vn 0.900167 0.102006 -0.423432
vn 0.971635 -0.077497 -0.223428
vn 0.997529 -0.070092 0.004749
vn 0.583297 -0.31623 0.748173
vn -0.199174 -0.29503 0.934498
vn -0.778909 -0.09708 0.619577
vn -0.962023 0.102773 0.252881
vn -0.964303 0.256911 0.064159
vn -0.954765 0.262421 0.139856
vn -0.897186 0.122014 0.424464
vn -0.86682 -0.054569 0.495627
vn -0.854949 -0.003528 0.518701
vn -0.814282 0.082556 0.574569
vn -0.891707 -0.074091 0.446508
vn -0.845186 0.008186 0.53441
vn -0.99504 -0.09573 -0.027056
vn 0.048169 -0.153139 -0.98703
vn 0.870783 0.059208 -0.488089
vn 0.863498 0.128955 -0.487588
vn 0.929879 -0.027812 -0.366812
vn 0.879372 0.036449 -0.474738
vn 0.976357 -0.214226 -0.028881
vn 0.831945 -0.30125 0.465957
vn 0.540352 -0.4612 0.703785
vn 0.054013 -0.310249 0.94912
vn -0.701556 0.086612 0.707331
vn -0.898938 0.327321 0.291155
vn -0.901486 0.427255 0.069109
vn -0.886006 0.420372 0.195656
vn -0.81429 0.256836 0.520545
vn -0.74596 0.168062 0.644437
vn -0.877371 0.075913 0.473769
vn -0.854868 0.121494 0.50442
vn -0.80029 0.183565 0.570823
vn -0.753543 0.217294 0.620449
vn -0.781726 -0.025765 0.62309
vn -0.772091 0.068698 0.631788
vn -0.713597 0.00525 0.700537
vn -0.895474 -0.022876 0.444526
vn -0.995306 -0.071372 0.065358
vn 0.232229 -0.013814 -0.972563
vn 0.849777 -0.001584 -0.52714
vn 0.889282 0.048828 -0.454746
vn 0.840726 0.090428 -0.533856
vn 0.931505 -0.158409 -0.327422
vn 0.823561 -0.047893 -0.565202
vn 0.864483 -0.417953 0.279258
vn 0.737851 -0.467561 0.486788
vn 0.57741 -0.525208 0.625103
vn 0.108502 -0.253334 0.961275
vn -0.51651 0.167138 0.839811
vn -0.80489 0.441643 0.396362
vn -0.830712 0.554053 0.054245
vn -0.820659 0.545426 0.170379
vn -0.706002 0.353905 0.613443
vn -0.617126 0.221914 0.754924
vn -0.672293 0.238303 0.70088
vn -0.793721 0.079596 0.603051
vn -0.760251 0.036103 0.648625
vn -0.754617 -0.027718 0.65558
vn -0.759858 -0.052456 0.647969
vn -0.536309 -0.196713 0.820778
vn -0.57888 -0.345988 0.73837
vn -0.659497 -0.129976 0.740385
vn -0.991239 -0.093932 -0.092855
vn 0.74671 -0.049374 -0.663314
vn -0.127761 -0.016719 -0.991664
vn 0.87436 -0.07646 -0.479216
vn 0.872395 0.015832 -0.488545
vn 0.762695 0.039998 -0.645521
vn 0.919264 -0.371251 -0.130866
vn 0.709522 -0.167368 -0.68452
vn 0.836296 -0.496018 0.233614
vn 0.809875 -0.554018 0.192787
vn 0.599146 -0.58153 0.550315
vn 0.134835 -0.215856 0.967071
vn -0.309973 0.14921 0.938964
vn -0.731776 0.482429 0.481421
vn -0.78402 0.615503 0.080429
vn -0.807468 0.564737 0.170491
vn -0.686852 0.372723 0.623949
vn -0.519057 0.239861 0.820394
vn -0.574181 0.209736 0.791408
vn -0.744122 -0.02987 0.667376
vn -0.49135 -0.526784 0.693595
vn -0.436646 -0.608047 0.663038
vn -0.561249 -0.567706 0.602254
vn -0.654432 -0.465295 0.596002
vn -0.344086 -0.539969 0.768139
vn -0.124743 -0.807784 0.576128
vn 0.073384 -0.911576 0.404529
vn -0.576017 -0.290905 0.763924
vn -0.978302 -0.0749 0.193173
vn 0.796511 -0.106733 -0.595128
vn 0.706461 -0.157087 -0.690099
vn -0.241803 0.03419 -0.969723
vn -0.928941 0.039971 -0.368064
vn 0.853193 -0.142829 -0.501659
vn 0.813997 -0.080406 -0.575277
vn 0.591154 -0.087361 -0.801814
vn 0.855139 -0.479434 -0.197183
vn 0.541365 -0.237304 -0.806605
vn 0.768302 -0.614064 0.180659
vn 0.793646 -0.608346 -0.00642
vn 0.562822 -0.642364 0.520192
vn 0.055132 -0.217182 0.974573
vn -0.340325 0.123587 0.932151
vn -0.732021 0.524638 0.434626
vn -0.796798 0.603803 0.023111
vn -0.787084 0.56884 0.23858
vn -0.67451 0.366528 0.640853
vn -0.556222 0.245664 0.793893
vn -0.526294 0.158106 0.835474
vn -0.719922 -0.050812 0.692193
vn -0.748791 -0.372437 0.548272
vn 0.173506 -0.902736 0.393653
vn -0.017488 -0.860112 0.509806
vn -0.381225 -0.72772 0.570168
vn -0.590965 -0.585686 0.554737
vn -0.369592 -0.738138 0.564407
vn -0.079794 -0.954756 0.286487
vn 0.190252 -0.955405 0.225843
vn 0.226161 -0.883203 0.410857
vn -0.698618 -0.406717 0.588655
vn 0.802551 -0.162872 -0.573921
vn 0.738644 -0.231961 -0.632929
vn 0.633542 -0.329505 -0.700036
vn -0.93217 0.32113 -0.167137
vn 0.109289 0.017406 -0.993858
vn -0.920705 0.388508 -0.036923
vn -0.897806 0.358736 0.255447
vn -0.865226 0.477451 0.153051
vn -0.886661 0.460627 -0.04069
vn -0.948268 0.233878 0.214682
vn 0.80478 -0.200998 -0.558506
vn 0.686021 -0.164447 -0.708754
vn 0.400889 -0.088228 -0.911868
vn 0.770633 -0.580915 -0.262035
vn 0.46418 -0.206362 -0.861366
vn 0.716461 -0.66737 0.203226
vn 0.771247 -0.632831 -0.068578
vn 0.530643 -0.692616 0.488571
vn -0.080051 -0.26841 0.959973
vn -0.342833 0.071443 0.936676
vn -0.699106 0.517694 0.493197
vn -0.789208 0.612269 0.047728
vn -0.81086 0.543681 0.216605
vn -0.706012 0.377538 0.599177
vn -0.570825 0.243283 0.784201
vn -0.53352 0.104409 0.839318
vn -0.633192 -0.158971 0.757493
vn -0.756923 -0.381989 0.530238
vn -0.752371 -0.466534 0.465063
vn 0.140269 -0.75199 0.644077
vn -0.2114 -0.673361 0.708445
vn -0.44307 -0.630427 0.637378
vn -0.67574 -0.475384 0.563369
vn -0.794011 -0.408644 0.450063
vn -0.324658 -0.913708 0.244407
vn -0.625798 -0.709199 0.324675
vn -0.521432 -0.576344 0.629235
vn -0.478463 -0.285376 0.830442
vn 0.794438 -0.204226 -0.571979
vn 0.737991 -0.28503 -0.611659
vn 0.647987 -0.464077 -0.603941
vn 0.501344 -0.311576 -0.807202
vn -0.767283 0.597296 0.233481
vn -0.703108 0.533509 0.470114
vn -0.85087 0.508107 -0.133597
vn 0.138641 0.029116 -0.989915
vn -0.647551 0.402639 0.646962
vn -0.635811 0.285905 0.71694
vn -0.83206 0.534058 0.149863
vn -0.784258 0.605669 0.13455
vn 0.756085 -0.221053 -0.616012
vn 0.534971 -0.142005 -0.832851
vn 0.31756 -0.039091 -0.947432
vn 0.779834 -0.568608 -0.26181
vn 0.453394 -0.210133 -0.866186
vn 0.75768 -0.621891 0.197919
vn 0.765608 -0.636111 -0.095956
vn 0.57484 -0.733728 0.362218
vn -0.031098 -0.314612 0.948711
vn -0.31371 0.026409 0.949152
vn -0.639691 0.485473 0.595913
vn -0.785507 0.60209 0.143059
vn -0.826896 0.507399 0.242464
vn -0.74898 0.353004 0.56073
vn -0.613436 0.252919 0.74815
vn -0.535506 0.055639 0.842697
vn -0.598609 -0.233295 0.766317
vn -0.621498 -0.469399 0.62722
vn -0.66508 -0.510524 0.545008
vn -0.692708 -0.420395 0.586023
vn -0.664423 -0.033251 0.746617
vn -0.598829 -0.306245 0.740012
vn -0.60396 -0.464161 0.647909
vn -0.659681 -0.390029 0.642416
vn -0.934643 -0.087759 0.344588
vn -0.97257 0.200504 0.117924
vn -0.906931 0.303552 0.292118
vn -0.826163 0.453196 0.334765
vn -0.710864 0.694939 0.108314
vn 0.715556 -0.352583 -0.603047
vn 0.754061 -0.252468 -0.606343
vn 0.551213 -0.579664 -0.600128
vn 0.468781 -0.487606 -0.736535
vn 0.447736 -0.195418 -0.87255
vn -0.693484 0.713566 0.099516
vn -0.62977 0.75017 0.201579
vn -0.622136 0.664833 0.413453
vn -0.668559 0.392745 0.631491
vn -0.824155 0.556311 0.106235
vn -0.229207 0.633765 -0.738787
vn -0.525933 0.295266 0.797629
vn -0.672499 0.503925 0.542038
vn -0.526822 0.461434 0.713818
vn -0.78454 0.618219 0.047988
vn 0.65811 -0.238254 -0.714231
vn 0.451634 -0.154142 -0.878787
vn 0.265667 -0.054368 -0.962531
vn 0.780277 -0.544754 -0.307264
vn 0.367316 -0.202221 -0.907847
vn 0.741676 -0.658141 0.129487
vn 0.789936 -0.597103 -0.139533
vn 0.518611 -0.767504 0.376803
vn -0.121046 -0.341947 0.931891
vn -0.358206 0.067732 0.931183
vn -0.596538 0.487268 0.63774
vn -0.718708 0.603322 0.345631
vn -0.831881 0.468472 0.297503
vn -0.810381 0.299545 0.503543
vn -0.748715 0.220477 0.625152
vn -0.619804 0.043434 0.783554
vn -0.458939 -0.282276 0.842434
vn -0.401674 -0.466323 0.788163
vn -0.300951 -0.599593 0.741564
vn -0.301645 -0.537018 0.787795
vn -0.294739 -0.475119 0.82909
vn -0.73883 0.544456 0.397112
vn -0.826273 0.084658 0.556871
vn -0.646976 -0.430642 0.629261
vn -0.413318 -0.533833 0.737692
vn -0.710831 0.668022 -0.220149
vn -0.695092 0.703245 -0.14931
vn -0.644651 0.764269 -0.017859
vn -0.355641 0.873054 -0.33361
vn -0.241296 0.943476 -0.22722
vn 0.683581 -0.405406 -0.606929
vn 0.530082 -0.639701 -0.556593
vn 0.663238 -0.310339 -0.681032
vn 0.426189 -0.613703 -0.664629
vn 0.465877 -0.208479 -0.859939
vn 0.322665 0.678626 -0.659814
vn -0.515034 0.855813 -0.048209
vn -0.417256 0.899364 0.130543
vn -0.480186 0.774886 0.411064
vn -0.500086 0.221759 0.837101
vn -0.332248 0.61648 0.713837
vn -0.499408 0.864061 0.063166
vn -0.421691 0.226583 0.877973
vn -0.46677 0.6184 0.632224
vn -0.383811 0.342133 0.857691
vn -0.294585 0.88821 -0.352566
vn 0.570079 -0.257226 -0.780285
vn 0.403756 -0.157198 -0.90126
vn 0.233832 -0.044195 -0.971272
vn 0.729922 -0.563126 -0.387432
vn 0.3917 -0.167828 -0.904657
vn 0.679731 -0.733191 0.019928
vn 0.67271 -0.709383 -0.210326
vn 0.4413 -0.856653 0.267207
vn -0.108266 -0.33532 0.935863
vn -0.397674 0.006 0.917507
vn -0.702329 0.437186 0.561785
vn -0.755104 0.525363 0.392189
vn -0.816924 0.385264 0.429193
vn -0.81324 0.234235 0.532706
vn -0.790243 0.164147 0.5904
vn -0.767164 0.092816 0.634701
vn -0.608598 -0.089097 0.788461
vn -0.323858 -0.325172 0.88847
vn -0.204054 -0.510939 0.835047
vn -0.071271 -0.560823 0.824862
vn 0.085531 -0.349671 0.93296
vn 0.495567 -0.329821 0.803512
vn -0.011859 0.772323 -0.635119
vn -0.649258 -0.365011 0.667256
vn -0.745362 0.458335 0.484111
vn -0.288046 0.828918 -0.479505
vn -0.267569 -0.613137 0.743283
vn -0.106614 0.807827 -0.579698
vn -0.056984 0.843345 -0.534343
vn 0.079559 0.795466 -0.600753
vn 0.255615 0.798696 -0.544744
vn 0.414533 0.556404 -0.720123
vn 0.486353 -0.670982 -0.559683
vn 0.643209 -0.41519 -0.64335
vn 0.401489 -0.706737 -0.58252
vn 0.611045 -0.301026 -0.732125
vn 0.60156 -0.177685 -0.778815
vn 0.591279 -0.322639 -0.739117
vn 0.639154 0.726397 -0.252645
vn -0.116823 0.977212 -0.177228
vn -0.124735 0.98656 0.10555
vn -0.310281 0.819936 0.481072
vn -0.12309 0.559365 0.819732
vn 0.008511 0.513632 0.857969
vn -0.405517 0.537295 0.739506
vn 0.041246 0.625874 0.778833
vn 0.209571 0.869706 -0.446869
vn 0.511416 -0.253588 -0.821065
vn 0.351627 -0.150762 -0.923921
vn 0.218008 -0.036279 -0.975272
vn 0.734123 -0.567132 -0.373397
vn 0.461815 -0.234096 -0.855527
vn 0.671797 -0.721685 -0.166913
vn 0.607709 -0.731678 -0.308766
vn 0.7132 -0.673298 0.194974
vn -0.089326 -0.327309 0.940686
vn -0.505657 -0.011677 0.862655
vn -0.795385 0.314 0.518427
vn -0.866319 0.398809 0.300736
vn -0.846503 0.312659 0.430903
vn -0.815493 0.243156 0.525211
vn -0.787122 0.24397 0.566496
vn -0.690362 0.125169 0.712554
vn -0.666366 0.029977 0.745022
vn -0.541795 -0.183492 0.820237
vn -0.363912 -0.429843 0.826319
vn -0.239486 -0.519089 0.820483
vn -0.011525 -0.114278 0.993382
vn 0.374972 0.723424 0.579701
vn 0.474482 -0.627336 0.617508
vn 0.543647 0.824717 0.155853
vn 0.956577 0.275123 -0.096265
vn 0.951173 -0.288578 0.109515
vn 0.417807 0.420334 -0.805454
vn 0.431962 0.343936 -0.833737
vn 0.39686 0.327635 -0.857413
vn -0.754073 -0.303443 0.582491
vn -0.77593 0.419623 0.471008
vn -0.200248 0.845301 -0.495346
vn 0.315338 0.071749 -0.946263
vn -0.215909 -0.780699 0.586424
vn 0.375455 0.728621 -0.572839
vn 0.454749 0.648815 -0.610117
vn 0.431863 0.597673 -0.675486
vn 0.395225 0.618077 -0.679542
vn 0.304897 0.600577 -0.739152
vn 0.470681 -0.698482 -0.539057
vn 0.355036 -0.772126 -0.52704
vn 0.582798 -0.442109 -0.681826
vn 0.447869 -0.479404 -0.754709
vn 0.554631 -0.30574 -0.773891
vn 0.798669 0.589242 -0.122155
vn 0.809088 0.504381 -0.301623
vn 0.094 0.988138 -0.121441
vn -0.199461 0.919241 0.339427
vn -0.413909 0.68205 0.6029
vn -0.072142 0.807106 0.585982
vn 0.755985 0.443487 -0.481463
vn 0.190123 0.932517 -0.307026
vn 0.418951 -0.262656 -0.86919
vn 0.280677 -0.184 -0.942
vn 0.240602 -0.122505 -0.962862
vn 0.669678 -0.667784 -0.324955
vn 0.531352 -0.490758 -0.690522
vn 0.67074 -0.704624 -0.231546
vn 0.781305 -0.555574 -0.284429
vn 0.506211 -0.861642 -0.036365
vn 0.533308 -0.659208 0.53012
vn 0.146051 -0.42236 0.894584
vn -0.489412 -0.120072 0.863747
vn -0.820719 0.181908 0.5416
vn -0.912449 0.323623 0.25041
vn -0.916791 0.310825 0.250765
vn -0.880088 0.252074 0.402372
vn -0.867019 0.279492 0.412508
vn -0.825626 0.157176 0.541884
vn -0.713812 -0.080728 0.695669
vn -0.700492 -0.130616 0.701606
vn -0.609959 -0.290196 0.737385
vn -0.499043 -0.316831 0.806582
vn -0.335432 -0.073062 0.939227
vn -0.055673 0.833421 0.549827
vn -0.078134 0.99466 0.067435
vn 0.571869 -0.776297 0.265194
vn -0.327697 0.944686 -0.013517
vn 0.349659 0.93389 -0.074758
vn 0.63505 0.633598 -0.441888
vn 0.579886 0.328786 -0.745408
vn 0.673871 0.146191 -0.724242
vn 0.820172 -0.496408 -0.284424
vn 0.547727 0.459269 -0.699334
vn 0.365452 0.651432 -0.664892
vn 0.59075 -0.192357 -0.78359
vn -0.752863 -0.352352 0.555918
vn -0.756698 0.519004 0.397546
vn -0.294685 0.894967 -0.334955
vn 0.168636 0.053509 -0.984225
vn 0.462851 -0.483827 -0.742752
vn 0.164562 -0.917219 0.362807
vn 0.256018 0.930561 -0.261748
vn 0.216078 0.92512 -0.312192
vn 0.135477 0.901786 -0.4104
vn 0.084043 0.894639 -0.438815
vn 0.022477 0.89644 -0.442595
vn 0.386242 -0.769071 -0.509262
vn 0.409484 -0.727517 -0.550493
vn 0.481152 -0.516712 -0.708168
vn 0.490243 -0.55904 -0.668683
vn 0.42257 -0.365034 -0.829569
vn -0.182243 0.969487 0.163961
vn -0.400293 0.751511 0.524401
vn -0.239153 0.791026 0.563102
vn 0.73748 0.546008 -0.397491
vn -0.147847 0.975193 0.164741
vn 0.28142 -0.315432 -0.906259
vn 0.202087 -0.267211 -0.94221
vn 0.309673 -0.38931 -0.867491
vn 0.427105 -0.877103 -0.21971
vn 0.354807 -0.795706 -0.49088
vn 0.305069 -0.944838 -0.119226
vn 0.137313 -0.962418 0.2343
vn 0.302872 -0.868882 0.391552
vn 0.093221 -0.635583 0.766384
vn -0.31044 -0.299003 0.902344
vn -0.749793 0.076847 0.657195
vn -0.864044 0.284922 0.415027
vn -0.932003 0.213505 0.292891
vn -0.957813 0.202625 0.203807
vn -0.948426 0.226672 0.221605
vn -0.947768 0.094887 0.304521
vn -0.891424 -0.073157 0.447226
vn -0.837263 -0.140551 0.528428
vn -0.854118 -0.044955 0.518132
vn -0.806161 0.054464 0.589185
vn -0.70186 0.337762 0.627143
vn -0.458985 0.739956 0.491729
vn -0.355219 0.924829 0.136057
vn -0.636062 0.729105 0.252647
vn 0.664701 -0.746511 0.029907
vn -0.587881 0.808924 -0.006129
vn -0.699962 0.700043 0.141395
vn -0.092141 0.995179 -0.033593
vn 0.346277 0.819698 -0.456275
vn 0.660203 -0.707956 -0.250859
vn -0.123756 0.913338 -0.387942
vn -0.351311 -0.537643 0.766499
vn -0.7124 0.54415 0.443156
vn -0.375902 0.879375 -0.292227
vn -0.077551 0.074623 -0.994192
vn 0.281249 -0.656572 -0.699866
vn 0.488329 -0.850568 -0.19511
vn 0.536684 -0.792324 0.290159
vn -0.155597 0.956731 0.245875
vn -0.215667 0.967357 0.133073
vn -0.253542 0.967064 0.022466
vn -0.335874 0.941827 0.012276
vn -0.536128 0.835738 -0.118783
vn 0.342033 -0.796832 -0.498068
vn 0.390535 -0.739166 -0.54874
vn 0.403259 -0.536877 -0.741044
vn 0.536041 -0.604481 -0.58929
vn 0.281883 -0.399874 -0.872148
vn -0.374391 0.825682 0.421995
vn -0.07655 0.84673 0.526486
vn 0.824762 0.554884 -0.108952
vn -0.306251 0.859578 0.409067
vn 0.182607 -0.358566 -0.91547
vn 0.196829 -0.383519 -0.902314
vn 0.268564 -0.630305 -0.728416
vn 0.257726 -0.861919 -0.436661
vn 0.138462 -0.989314 -0.045667
vn 0.1817 -0.882885 0.433011
vn 0.114183 -0.782768 0.611749
vn 0.051466 -0.530653 0.846025
vn -0.246291 -0.303162 0.920562
vn -0.668082 0.057521 0.741861
vn -0.797219 0.180209 0.576166
vn -0.807852 0.362279 0.464897
vn -0.808532 0.373356 0.454842
vn -0.83378 0.317367 0.451763
vn -0.804195 0.374079 0.461882
vn -0.759622 0.429733 0.488164
vn -0.76556 0.494693 0.411335
vn -0.696725 0.630102 0.34285
vn -0.780337 0.581998 0.228807
vn -0.726487 0.670772 0.149266
vn 0.623251 -0.776849 0.0898
vn -0.765535 0.634527 0.106447
vn -0.703778 0.695149 0.146505
vn -0.553466 0.8305 0.062812
vn -0.683929 0.727768 -0.050946
vn 0.127418 -0.467802 0.8746
vn -0.476378 0.554961 0.68197
vn -0.427059 0.820407 -0.380202
vn -0.205221 -0.034103 -0.978121
vn 0.138688 -0.786142 -0.602284
vn 0.326683 -0.937971 -0.116145
vn 0.450224 -0.868248 0.20843
vn 0.614919 -0.706895 0.349535
vn -0.285144 0.895819 0.340882
vn -0.3821 0.87474 0.298044
vn -0.512092 0.83893 0.184278
vn -0.658378 0.750598 0.056048
vn -0.637065 0.770343 0.02681
vn 0.348895 -0.810172 -0.471056
vn 0.332097 -0.744992 -0.578531
vn 0.240403 -0.580557 -0.77792
vn 0.613085 -0.616816 -0.493625
vn 0.157423 -0.46412 -0.871671
vn 0.304013 0.90234 0.305545
vn 0.968179 0.186159 -0.167254
vn 0.126601 0.991152 0.039881
vn 0.048309 -0.435753 -0.898769
vn 0.164281 -0.527272 -0.833664
vn 0.261971 -0.674438 -0.690294
vn 0.305176 -0.851073 -0.42725
vn 0.399691 -0.911437 0.097621
vn 0.395124 -0.474044 0.786867
vn 0.581256 -0.442378 0.682967
vn 0.510695 -0.067345 0.857121
vn 0.294626 0.01982 0.955407
vn 0.24724 0.174033 0.953197
vn 0.232765 0.36061 0.903206
vn 0.099861 0.505972 0.85675
vn -0.061053 0.584434 0.809141
vn 0.154102 0.462168 0.8733
vn -0.351124 0.653929 0.670141
vn 0.181836 0.576555 0.796567
vn -0.152422 0.545458 0.824162
vn -0.402951 0.332089 0.852847
vn -0.28378 0.207657 0.936134
vn -0.498469 0.830822 0.247516
vn 0.064569 0.761948 0.644411
vn 0.11756 0.619264 0.776332
vn -0.680013 0.732759 0.025417
vn -0.526029 0.816517 0.237892
vn -0.308865 0.901748 0.302412
vn -0.395918 0.918286 0.000356
vn 0.273856 -0.43299 0.858791
vn -0.345602 0.510882 0.787121
vn -0.293046 0.946226 -0.137041
vn -0.071027 0.392393 -0.917051
vn 0.276815 -0.803625 -0.526839
vn 0.501826 -0.855919 0.124793
vn 0.342237 -0.86575 0.365173
vn 0.494573 -0.729725 0.472121
vn -0.311854 0.94978 0.025776
vn -0.560043 0.812956 0.159544
vn -0.663561 0.74101 0.102912
vn -0.648446 0.750006 0.130419
vn -0.192234 0.959017 0.208167
vn 0.314166 -0.808547 -0.497545
vn 0.182926 -0.746471 -0.63978
vn 0.117751 -0.646598 -0.753688
vn 0.497363 -0.67864 -0.540442
vn 0.060032 -0.512313 -0.856698
vn 0.825296 0.025208 -0.564137
vn -0.17692 0.547293 -0.818028
vn 0.125856 -0.46185 -0.877983
vn 0.241233 -0.549415 -0.799969
vn 0.311668 -0.693122 -0.649958
vn 0.523395 -0.812119 -0.257917
vn 0.861007 -0.130457 0.491577
vn 0.916343 -0.242386 0.318693
vn 0.995702 -0.092614 0.001082
vn 0.958947 -0.279638 0.047159
vn 0.960042 0.15807 0.230938
vn 0.948025 0.300676 0.104132
vn 0.953022 0.289002 0.090704
vn 0.935 -0.040596 0.352317
vn 0.909321 -0.116294 0.399514
vn 0.249069 0.658724 0.709963
vn 0.881575 -0.009945 0.471939
vn -0.154367 0.974555 0.162522
vn -0.01769 0.929667 0.367976
vn 0.284021 0.756114 0.589596
vn 0.47331 0.878151 0.06948
vn -0.108558 0.689579 0.716028
vn 0.407726 -0.505451 0.760446
vn -0.083428 0.978775 -0.187187
vn 0.428262 0.727034 -0.536669
vn 0.570674 -0.60985 -0.549921
vn 0.53288 -0.829848 0.1655
vn 0.387346 -0.760565 0.52106
vn -0.747821 0.578633 -0.325495
vn -0.730387 0.673656 0.112794
vn -0.527041 0.761468 0.37735
vn -0.772606 0.524512 0.357726
vn -0.143857 0.859879 0.48981
vn 0.407399 0.624154 0.666677
vn 0.222804 -0.763235 -0.606491
vn 0.089307 -0.741098 -0.665431
vn 0.045749 -0.655568 -0.753749
vn 0.163481 -0.697353 -0.697835
vn 0.208974 -0.459837 -0.863064
vn -0.331923 -0.369492 -0.86793
vn 0.259262 -0.372899 -0.890915
vn 0.311862 -0.489163 -0.814531
vn 0.608517 -0.662607 -0.436646
vn 0.529801 -0.288682 -0.79748
vn 0.473866 -0.519023 -0.711383
vn 0.630088 -0.017264 -0.776332
vn 0.640213 0.160455 -0.751254
vn 0.669919 -0.131366 -0.73072
vn 0.810081 -0.314292 -0.494964
vn 0.905553 -0.156425 -0.394341
vn 0.819511 0.345703 0.457047
vn 0.309313 0.851396 0.423616
vn 0.388518 0.77833 0.49321
vn 0.781757 0.571977 0.24839
vn 0.933834 0.207354 -0.291477
vn 0.978988 -0.0917559 -0.182106
vn 0.063865 0.610554 0.789395
vn -0.078704 0.955506 0.284279
vn 0.187043 -0.211226 0.959374
vn 0.571511 0.799331 0.185592
vn 0.988032 -0.098497 -0.118706
vn 0.313589 -0.947093 -0.068395
vn 0.313613 -0.894906 0.317474
vn -0.944004 0.26946 -0.190391
vn -0.491905 -0.181846 -0.851447
vn -0.372446 0.790509 0.486189
vn -0.564492 0.809933 0.159242
vn -0.719388 0.58972 -0.367029
vn -0.092654 0.724324 0.683206
vn 0.223271 0.223262 0.948844
vn 0.694079 -0.263185 0.670066
vn 0.027208 -0.779219 -0.626161
vn 0.054027 -0.748837 -0.660549
vn 0.260529 -0.58846 -0.765402
vn 0.319845 -0.391149 -0.862961
vn 0.202461 -0.747799 -0.632302
vn 0.016935 -0.816038 -0.57775
vn 0.128022 -0.539718 -0.832055
vn 0.276543 -0.332195 -0.90176
vn 0.285478 -0.272176 -0.918925
vn 0.393038 -0.110518 -0.912857
vn 0.657432 -0.493597 -0.569337
vn 0.538208 -0.395465 -0.744271
vn 0.835884 -0.371302 -0.404269
vn 0.794724 -0.577863 -0.185712
vn 0.582962 -0.769443 0.260985
vn 0.532535 0.720503 0.444165
vn 0.295752 0.162947 0.941265
vn 0.322599 -0.316706 0.891979
vn 0.731811 -0.537089 0.41951
vn -0.364161 -0.040121 -0.930472
vn 0.039102 -0.519621 -0.853502
vn 0.002875 0.964759 0.26312
vn -0.166341 0.9548 -0.24635
vn -0.092446 0.703183 -0.704974
vn 0.02543 0.378699 -0.92517
vn 0.188386 0.827496 0.528924
vn 0.158479 -0.068937 0.984953
vn 0.342819 -0.59393 0.727821
vn 0.342007 -0.677214 -0.65147
vn 0.40337 -0.427959 -0.808792
vn 0.47231 -0.806792 -0.354978
vn 0.398066 -0.795257 -0.457285
vn 0.461079 -0.837205 -0.294099
vn 0.196845 -0.974991 -0.103171
vn 0.048701 -0.955934 -0.289514
vn 0.516822 -0.548521 -0.657282
vn 0.683158 -0.657755 -0.317259
vn 0.559101 -0.711656 -0.425385
vn 0.172957 -0.817322 0.54961
vn 0.070321 -0.432588 -0.898845
vn -0.036683 -0.932507 -0.359284
vn 0.337835 0.934922 -0.108577
vn 0.340225 0.867921 -0.361885
vn 0.301873 0.728047 -0.615484
vn 0.312614 0.292626 -0.903683
vn 0.177659 -0.392519 -0.902422
vn 0.201104 0.844918 0.495651
vn -0.2094 -0.095527 0.973153
vn 0.021561 -0.693233 0.720391
vn -0.100601 -0.831638 0.546129
vn -0.121653 -0.936892 -0.32777
vn -0.334419 -0.816816 0.470081
vn 0.25997 0.952252 -0.160101
vn 0.349362 0.79736 -0.492101
vn 0.401846 0.698447 -0.592191
vn 0.403187 0.437733 -0.803635
vn 0.222196 -0.394586 -0.891589
vn -0.141004 -0.93906 -0.313502
vn 0.016056 0.862479 0.505838
vn -0.394502 -0.49448 0.774505
vn -0.457879 0.149693 0.876321
vn -0.452167 -0.777896 0.436375
vn -0.567588 -0.369091 0.735946
vn 0.3335 0.94261 0.016266
vn 0.380836 0.828658 -0.410231
vn 0.371865 0.669587 -0.642938
vn 0.336277 0.368394 -0.86672
vn 0.106298 -0.4797 -0.87097
vn -0.134531 -0.956719 -0.258052
vn -0.395037 -0.857305 0.330111
vn 0.163856 0.845073 0.508924
vn -0.212056 0.163168 0.96354
vn -0.424352 -0.49854 0.755899
vn 0.598536 0.777141 0.194437
vn 0.658092 0.734115 -0.167302
vn 0.618198 0.615937 -0.488318
vn 0.60164 0.201375 -0.772967
vn 0.343782 -0.671757 -0.656169
vn -0.139037 -0.984741 -0.104661
vn -0.221915 -0.942935 0.248249
vn -0.315793 -0.616299 0.721422
vn 0.481294 0.655886 0.581524
vn 0.163365 0.057778 0.984872
vn 0.868261 0.44947 0.21
vn 0.92691 0.375254 0.00471
vn 0.888519 0.392108 -0.238298
vn 0.914622 0.022282 -0.403695
vn 0.713255 -0.600515 -0.361454
vn 0.185871 -0.982301 0.023172
vn -0.01504 -0.94787 0.318301
vn -0.0376 -0.711067 0.702118
vn 0.433364 -0.177953 0.883475
vn 0.780005 0.304535 0.546673
vn 0.969959 -0.138963 0.199673
vn 0.989062 -0.139444 -0.048082
vn 0.740675 -0.666835 -0.0820539
vn 0.564514 -0.724363 0.395755
# 770 normals
usemtl Material__1
f  1//1 2//2 3//3
f  1//1 3//3 4//4
f  1//1 4//4 5//5
f  5//5 6//6 1//1
f  7//7 1//1 6//6
f  8//8 2//2 1//1
f  8//8 1//1 7//7
f  2//2 8//8 9//9
f  2//2 9//9 3//3
f  3//3 9//9 10//10
f  3//3 10//10 11//11
f  4//4 3//3 12//12
f  3//3 11//11 13//13
f  3//3 13//13 12//12
f  12//12 14//14 4//4
f  4//4 14//14 15//15
f  4//4 15//15 5//5
f  5//5 15//15 6//6
f  15//15 16//16 6//6
f  6//6 16//16 17//17
f  6//6 17//17 7//7
f  7//7 17//17 18//18
f  7//7 18//18 8//8
f  8//8 18//18 19//19
f  8//8 19//19 9//9
f  9//9 19//19 20//20
f  9//9 20//20 10//10
f  10//10 20//20 21//21
f  10//10 21//21 22//22
f  11//11 10//10 22//22
f  11//11 22//22 23//23
f  11//11 23//23 24//24
f  11//11 24//24 13//13
f  12//12 25//25 14//14
f  13//13 25//25 12//12
f  13//13 26//26 25//25
f  24//24 26//26 13//13
f  14//14 27//27 28//28
f  14//14 28//28 15//15
f  25//25 27//27 14//14
f  15//15 28//28 16//16
f  28//28 29//29 16//16
f  16//16 29//29 30//30
f  16//16 30//30 17//17
f  17//17 30//30 31//31
f  17//17 31//31 18//18
f  18//18 31//31 32//32
f  18//18 32//32 19//19
f  19//19 32//32 33//33
f  19//19 33//33 20//20
f  20//20 33//33 34//34
f  20//20 34//34 21//21
f  22//22 21//21 35//35
f  21//21 34//34 36//36
f  21//21 36//36 35//35
f  22//22 35//35 37//37
f  23//23 22//22 37//37
f  23//23 37//37 38//38
f  23//23 38//38 39//39
f  23//23 39//39 40//40
f  23//23 40//40 24//24
f  24//24 41//41 26//26
f  40//40 41//41 24//24
f  26//26 42//42 25//25
f  25//25 42//42 27//27
f  26//26 43//43 42//42
f  41//41 43//43 26//26
f  42//42 44//44 27//27
f  27//27 44//44 45//45
f  27//27 45//45 28//28
f  28//28 45//45 29//29
f  45//45 46//46 29//29
f  29//29 46//46 47//47
f  29//29 47//47 30//30
f  30//30 47//47 48//48
f  30//30 48//48 31//31
f  31//31 48//48 49//49
f  31//31 49//49 32//32
f  32//32 49//49 50//50
f  32//32 50//50 33//33
f  33//33 50//50 51//51
f  33//33 51//51 34//34
f  34//34 51//51 52//52
f  34//34 52//52 36//36
f  37//37 35//35 53//53
f  35//35 36//36 54//54
f  35//35 54//54 53//53
f  36//36 52//52 55//55
f  36//36 55//55 54//54
f  37//37 53//53 56//56
f  38//38 37//37 56//56
f  38//38 56//56 39//39
f  39//39 56//56 57//57
f  39//39 57//57 58//58
f  39//39 58//58 59//59
f  39//39 59//59 40//40
f  40//40 60//60 41//41
f  59//59 60//60 40//40
f  41//41 61//61 43//43
f  60//60 61//61 41//41
f  42//42 62//62 44//44
f  43//43 62//62 42//42
f  61//61 63//63 43//43
f  43//43 63//63 62//62
f  62//62 64//64 44//44
f  44//44 64//64 65//65
f  44//44 65//65 45//45
f  45//45 65//65 46//46
f  65//65 66//66 46//46
f  46//46 66//66 67//67
f  46//46 67//67 47//47
f  47//47 67//67 68//68
f  47//47 68//68 48//48
f  48//48 68//68 69//69
f  48//48 69//69 49//49
f  49//49 69//69 70//70
f  49//49 70//70 50//50
f  50//50 70//70 71//71
f  50//50 71//71 51//51
f  51//51 71//71 72//72
f  51//51 72//72 52//52
f  52//52 72//72 73//73
f  52//52 73//73 55//55
f  56//56 53//53 74//74
f  53//53 54//54 75//75
f  53//53 75//75 74//74
f  54//54 55//55 76//76
f  54//54 76//76 75//75
f  55//55 73//73 77//77
f  55//55 77//77 76//76
f  56//56 74//74 57//57
f  58//58 57//57 78//78
f  57//57 74//74 79//79
f  57//57 79//79 80//80
f  57//57 80//80 78//78
f  58//58 78//78 81//81
f  58//58 81//81 82//82
f  58//58 82//82 83//83
f  58//58 83//83 59//59
f  59//59 84//84 60//60
f  83//83 84//84 59//59
f  60//60 85//85 61//61
f  84//84 85//85 60//60
f  61//61 86//86 63//63
f  85//85 86//86 61//61
f  63//63 87//87 62//62
f  62//62 87//87 64//64
f  63//63 88//88 87//87
f  86//86 88//88 63//63
f  87//87 89//89 64//64
f  64//64 89//89 90//90
f  64//64 90//90 65//65
f  65//65 90//90 66//66
f  90//90 91//91 66//66
f  66//66 91//91 92//92
f  66//66 92//92 67//67
f  67//67 92//92 93//93
f  67//67 93//93 68//68
f  68//68 93//93 94//94
f  68//68 94//94 69//69
f  69//69 94//94 95//95
f  69//69 95//95 70//70
f  70//70 95//95 96//96
f  70//70 96//96 71//71
f  71//71 96//96 97//97
f  71//71 97//97 72//72
f  72//72 97//97 98//98
f  72//72 98//98 73//73
f  73//73 98//98 99//99
f  73//73 99//99 77//77
f  74//74 75//75 100//100
f  74//74 100//100 79//79
f  75//75 76//76 101//101
f  75//75 101//101 100//100
f  76//76 77//77 102//102
f  76//76 102//102 101//101
f  77//77 99//99 103//103
f  77//77 103//103 102//102
f  81//81 78//78 80//80
f  80//80 79//79 104//104
f  79//79 100//100 105//105
f  79//79 105//105 104//104
f  81//81 80//80 82//82
f  80//80 104//104 106//106
f  82//82 80//80 106//106
f  82//82 106//106 107//107
f  82//82 107//107 83//83
f  83//83 108//108 84//84
f  109//109 108//108 83//83
f  107//107 109//109 83//83
f  84//84 110//110 85//85
f  108//108 110//110 84//84
f  85//85 111//111 86//86
f  110//110 111//111 85//85
f  111//111 112//112 86//86
f  86//86 112//112 88//88
f  88//88 113//113 87//87
f  87//87 113//113 89//89
f  112//112 114//114 88//88
f  88//88 114//114 113//113
f  113//113 115//115 89//89
f  89//89 115//115 116//116
f  89//89 116//116 90//90
f  90//90 116//116 91//91
f  116//116 117//117 91//91
f  91//91 117//117 118//118
f  91//91 118//118 92//92
f  92//92 118//118 119//119
f  92//92 119//119 93//93
f  93//93 119//119 120//120
f  93//93 120//120 94//94
f  94//94 120//120 121//121
f  94//94 121//121 95//95
f  95//95 121//121 122//122
f  95//95 122//122 96//96
f  96//96 122//122 123//123
f  96//96 123//123 97//97
f  97//97 123//123 124//124
f  97//97 124//124 98//98
f  98//98 124//124 125//125
f  98//98 125//125 99//99
f  99//99 125//125 126//126
f  99//99 126//126 103//103
f  100//100 101//101 127//127
f  100//100 127//127 105//105
f  101//101 102//102 128//128
f  101//101 128//128 127//127
f  102//102 103//103 129//129
f  102//102 129//129 128//128
f  103//103 126//126 130//130
f  103//103 130//130 129//129
f  106//106 104//104 131//131
f  104//104 105//105 132//132
f  104//104 132//132 131//131
f  105//105 127//127 133//133
f  105//105 133//133 132//132
f  106//106 131//131 134//134
f  107//107 106//106 134//134
f  107//107 135//135 109//109
f  107//107 134//134 135//135
f  108//108 136//136 110//110
f  109//109 137//137 108//108
f  137//137 136//136 108//108
f  138//138 137//137 109//109
f  139//139 138//138 109//109
f  135//135 139//139 109//109
f  110//110 140//140 111//111
f  136//136 140//140 110//110
f  111//111 141//141 112//112
f  140//140 141//141 111//111
f  112//112 142//142 114//114
f  141//141 142//142 112//112
f  114//114 143//143 113//113
f  113//113 143//143 115//115
f  142//142 144//144 114//114
f  114//114 144//144 143//143
f  143//143 145//145 115//115
f  115//115 145//145 146//146
f  115//115 146//146 116//116
f  116//116 146//146 117//117
f  146//146 147//147 117//117
f  117//117 147//147 148//148
f  117//117 148//148 118//118
f  118//118 148//148 149//149
f  118//118 149//149 119//119
f  119//119 149//149 150//150
f  119//119 150//150 120//120
f  120//120 150//150 151//151
f  120//120 151//151 121//121
f  121//121 151//151 152//152
f  121//121 152//152 122//122
f  122//122 152//152 153//153
f  122//122 153//153 123//123
f  123//123 153//153 154//154
f  123//123 154//154 124//124
f  124//124 154//154 155//155
f  124//124 155//155 125//125
f  125//125 155//155 156//156
f  125//125 156//156 126//126
f  126//126 156//156 157//157
f  126//126 157//157 130//130
f  127//127 128//128 158//158
f  127//127 158//158 133//133
f  128//128 129//129 159//159
f  128//128 159//159 158//158
f  129//129 130//130 160//160
f  129//129 160//160 159//159
f  130//130 157//157 161//161
f  130//130 161//161 160//160
f  134//134 131//131 162//162
f  131//131 132//132 163//163
f  131//131 163//163 162//162
f  132//132 133//133 164//164
f  132//132 164//164 163//163
f  133//133 158//158 165//165
f  133//133 165//165 164//164
f  135//135 134//134 166//166
f  134//134 162//162 166//166
f  135//135 166//166 139//139
f  136//136 167//167 140//140
f  137//137 168//168 136//136
f  168//168 167//167 136//136
f  138//138 169//169 137//137
f  169//169 168//168 137//137
f  139//139 170//170 138//138
f  171//171 169//169 138//138
f  172//172 171//171 138//138
f  173//173 172//172 138//138
f  170//170 173//173 138//138
f  139//139 174//174 175//175
f  139//139 175//175 170//170
f  139//139 166//166 176//176
f  139//139 176//176 174//174
f  140//140 177//177 141//141
f  167//167 177//177 140//140
f  177//177 178//178 141//141
f  141//141 178//178 142//142
f  178//178 179//179 142//142
f  142//142 179//179 144//144
f  144//144 180//180 143//143
f  143//143 180//180 145//145
f  179//179 181//181 144//144
f  144//144 181//181 180//180
f  180//180 182//182 145//145
f  145//145 182//182 183//183
f  145//145 183//183 146//146
f  146//146 183//183 147//147
f  183//183 184//184 147//147
f  147//147 184//184 185//185
f  147//147 185//185 148//148
f  148//148 185//185 186//186
f  148//148 186//186 149//149
f  149//149 186//186 187//187
f  149//149 187//187 150//150
f  150//150 187//187 188//188
f  150//150 188//188 151//151
f  151//151 188//188 189//189
f  151//151 189//189 152//152
f  152//152 189//189 190//190
f  152//152 190//190 153//153
f  153//153 190//190 191//191
f  153//153 191//191 154//154
f  154//154 191//191 192//192
f  154//154 192//192 155//155
f  155//155 192//192 193//193
f  155//155 193//193 156//156
f  156//156 193//193 194//194
f  156//156 194//194 157//157
f  157//157 194//194 195//195
f  157//157 195//195 161//161
f  158//158 159//159 196//196
f  158//158 196//196 165//165
f  159//159 160//160 197//197
f  159//159 197//197 196//196
f  160//160 161//161 198//198
f  160//160 198//198 197//197
f  161//161 195//195 199//199
f  161//161 199//199 198//198
f  166//166 162//162 200//200
f  162//162 163//163 201//201
f  162//162 201//201 200//200
f  163//163 164//164 202//202
f  163//163 202//202 201//201
f  164//164 165//165 203//203
f  164//164 203//203 202//202
f  165//165 196//196 204//204
f  165//165 204//204 203//203
f  166//166 200//200 176//176
f  167//167 205//205 177//177
f  168//168 206//206 167//167
f  206//206 205//205 167//167
f  169//169 207//207 168//168
f  207//207 206//206 168//168
f  171//171 208//208 169//169
f  208//208 207//207 169//169
f  175//175 209//209 170//170
f  170//170 209//209 210//210
f  170//170 210//210 173//173
f  172//172 211//211 171//171
f  212//212 208//208 171//171
f  211//211 212//212 171//171
f  173//173 213//213 172//172
f  172//172 213//213 214//214
f  172//172 214//214 211//211
f  173//173 210//210 213//213
f  174//174 176//176 215//215
f  174//174 215//215 175//175
f  175//175 215//215 209//209
f  176//176 200//200 216//216
f  176//176 216//216 215//215
f  177//177 217//217 178//178
f  205//205 217//217 177//177
f  178//178 218//218 179//179
f  217//217 218//218 178//178
f  218//218 219//219 179//179
f  179//179 219//219 181//181
f  181//181 220//220 180//180
f  180//180 220//220 182//182
f  219//219 221//221 181//181
f  181//181 221//221 220//220
f  220//220 222//222 182//182
f  182//182 222//222 223//223
f  182//182 223//223 183//183
f  183//183 223//223 184//184
f  224//224 184//184 223//223
f  225//225 185//185 184//184
f  225//225 184//184 224//224
f  226//226 186//186 185//185
f  226//226 185//185 225//225
f  227//227 187//187 186//186
f  227//227 186//186 226//226
f  228//228 188//188 187//187
f  228//228 187//187 227//227
f  229//229 189//189 188//188
f  229//229 188//188 228//228
f  230//230 190//190 189//189
f  230//230 189//189 229//229
f  231//231 191//191 190//190
f  231//231 190//190 230//230
f  232//232 192//192 191//191
f  232//232 191//191 231//231
f  233//233 193//193 192//192
f  233//233 192//192 232//232
f  234//234 194//194 193//193
f  234//234 193//193 233//233
f  235//235 195//195 194//194
f  235//235 194//194 234//234
f  236//236 199//199 195//195
f  236//236 195//195 235//235
f  196//196 197//197 237//237
f  196//196 237//237 204//204
f  197//197 198//198 238//238
f  197//197 238//238 237//237
f  198//198 199//199 239//239
f  198//198 239//239 238//238
f  240//240 239//239 199//199
f  240//240 199//199 236//236
f  200//200 201//201 241//241
f  200//200 241//241 216//216
f  201//201 202//202 242//242
f  201//201 242//242 241//241
f  202//202 203//203 243//243
f  202//202 243//243 242//242
f  203//203 204//204 244//244
f  203//203 244//244 243//243
f  204//204 237//237 245//245
f  204//204 245//245 244//244
f  206//206 246//246 205//205
f  205//205 247//247 217//217
f  246//246 247//247 205//205
f  207//207 248//248 206//206
f  248//248 246//246 206//206
f  208//208 249//249 207//207
f  249//249 248//248 207//207
f  212//212 250//250 208//208
f  250//250 249//249 208//208
f  215//215 251//251 209//209
f  209//209 251//251 252//252
f  209//209 252//252 210//210
f  210//210 252//252 253//253
f  210//210 253//253 213//213
f  211//211 254//254 255//255
f  211//211 255//255 256//256
f  211//211 256//256 212//212
f  211//211 214//214 257//257
f  211//211 257//257 254//254
f  256//256 250//250 212//212
f  213//213 253//253 258//258
f  213//213 258//258 214//214
f  214//214 258//258 259//259
f  214//214 259//259 257//257
f  215//215 216//216 251//251
f  216//216 241//241 260//260
f  216//216 260//260 251//251
f  247//247 261//261 217//217
f  217//217 261//261 218//218
f  261//261 262//262 218//218
f  218//218 262//262 219//219
f  262//262 263//263 219//219
f  219//219 263//263 221//221
f  221//221 264//264 220//220
f  220//220 264//264 222//222
f  263//263 265//265 221//221
f  221//221 265//265 264//264
f  266//266 222//222 264//264
f  267//267 223//223 222//222
f  267//267 222//222 266//266
f  224//224 223//223 267//267
f  267//267 268//268 224//224
f  224//224 268//268 269//269
f  224//224 269//269 225//225
f  225//225 269//269 270//270
f  225//225 270//270 226//226
f  226//226 270//270 271//271
f  226//226 271//271 227//227
f  227//227 271//271 272//272
f  227//227 272//272 228//228
f  228//228 272//272 273//273
f  228//228 273//273 229//229
f  229//229 273//273 274//274
f  229//229 274//274 230//230
f  230//230 274//274 275//275
f  230//230 275//275 231//231
f  231//231 275//275 276//276
f  231//231 276//276 232//232
f  232//232 276//276 277//277
f  232//232 277//277 233//233
f  233//233 277//277 278//278
f  233//233 278//278 234//234
f  234//234 278//278 279//279
f  234//234 279//279 235//235
f  235//235 279//279 280//280
f  235//235 280//280 236//236
f  236//236 280//280 281//281
f  236//236 281//281 240//240
f  237//237 238//238 282//282
f  237//237 282//282 245//245
f  238//238 239//239 283//283
f  238//238 283//283 282//282
f  284//284 283//283 239//239
f  284//284 239//239 240//240
f  240//240 281//281 285//285
f  240//240 285//285 284//284
f  241//241 242//242 286//286
f  241//241 286//286 260//260
f  242//242 243//243 287//287
f  242//242 287//287 286//286
f  243//243 244//244 288//288
f  243//243 288//288 287//287
f  244//244 245//245 289//289
f  244//244 289//289 288//288
f  245//245 282//282 290//290
f  245//245 290//290 289//289
f  246//246 291//291 247//247
f  248//248 292//292 246//246
f  292//292 291//291 246//246
f  247//247 293//293 261//261
f  291//291 293//293 247//247
f  249//249 294//294 248//248
f  294//294 292//292 248//248
f  250//250 295//295 249//249
f  295//295 294//294 249//249
f  256//256 296//296 250//250
f  296//296 295//295 250//250
f  251//251 260//260 297//297
f  251//251 297//297 252//252
f  252//252 297//297 298//298
f  252//252 298//298 253//253
f  253//253 298//298 299//299
f  253//253 299//299 258//258
f  254//254 257//257 300//300
f  254//254 300//300 255//255
f  255//255 300//300 301//301
f  255//255 301//301 302//302
f  255//255 302//302 256//256
f  302//302 296//296 256//256
f  257//257 259//259 303//303
f  257//257 303//303 300//300
f  258//258 299//299 304//304
f  258//258 304//304 259//259
f  259//259 304//304 305//305
f  259//259 305//305 303//303
f  260//260 286//286 306//306
f  260//260 306//306 297//297
f  261//261 307//307 262//262
f  293//293 307//307 261//261
f  307//307 308//308 262//262
f  262//262 308//308 263//263
f  308//308 309//309 263//263
f  263//263 309//309 265//265
f  310//310 264//264 265//265
f  266//266 264//264 310//310
f  311//311 265//265 309//309
f  310//310 265//265 311//311
f  310//310 312//312 266//266
f  266//266 312//312 313//313
f  266//266 313//313 267//267
f  267//267 313//313 268//268
f  313//313 314//314 268//268
f  268//268 314//314 315//315
f  268//268 315//315 269//269
f  269//269 315//315 316//316
f  269//269 316//316 270//270
f  270//270 316//316 317//317
f  270//270 317//317 271//271
f  271//271 317//317 318//318
f  271//271 318//318 272//272
f  272//272 318//318 319//319
f  272//272 319//319 273//273
f  273//273 319//319 320//320
f  273//273 320//320 274//274
f  274//274 320//320 321//321
f  274//274 321//321 275//275
f  275//275 321//321 322//322
f  275//275 322//322 276//276
f  276//276 322//322 323//323
f  276//276 323//323 277//277
f  277//277 323//323 324//324
f  277//277 324//324 278//278
f  278//278 324//324 325//325
f  278//278 325//325 279//279
f  279//279 325//325 326//326
f  279//279 326//326 280//280
f  280//280 326//326 327//327
f  280//280 327//327 281//281
f  281//281 327//327 328//328
f  281//281 328//328 285//285
f  282//282 283//283 329//329
f  282//282 329//329 290//290
f  330//330 331//331 283//283
f  330//330 283//283 284//284
f  283//283 331//331 332//332
f  283//283 332//332 329//329
f  330//330 284//284 285//285
f  330//330 285//285 333//333
f  328//328 333//333 285//285
f  286//286 287//287 334//334
f  286//286 334//334 306//306
f  287//287 288//288 335//335
f  287//287 335//335 334//334
f  288//288 289//289 336//336
f  288//288 336//336 335//335
f  289//289 290//290 337//337
f  289//289 337//337 336//336
f  290//290 329//329 338//338
f  290//290 338//338 337//337
f  292//292 339//339 291//291
f  291//291 340//340 293//293
f  339//339 340//340 291//291
f  294//294 341//341 292//292
f  341//341 339//339 292//292
f  340//340 342//342 293//293
f  293//293 342//342 307//307
f  295//295 343//343 294//294
f  344//344 341//341 294//294
f  343//343 344//344 294//294
f  296//296 345//345 295//295
f  345//345 343//343 295//295
f  302//302 301//301 296//296
f  301//301 345//345 296//296
f  297//297 306//306 346//346
f  297//297 346//346 298//298
f  298//298 346//346 347//347
f  298//298 347//347 299//299
f  299//299 347//347 348//348
f  299//299 348//348 304//304
f  300//300 303//303 349//349
f  300//300 349//349 301//301
f  301//301 349//349 345//345
f  303//303 305//305 350//350
f  303//303 350//350 349//349
f  304//304 348//348 351//351
f  304//304 351//351 305//305
f  305//305 351//351 352//352
f  305//305 352//352 350//350
f  306//306 334//334 353//353
f  306//306 353//353 346//346
f  342//342 354//354 307//307
f  307//307 354//354 308//308
f  354//354 355//355 308//308
f  308//308 355//355 309//309
f  356//356 309//309 355//355
f  311//311 309//309 356//356
f  311//311 357//357 310//310
f  310//310 357//357 312//312
f  356//356 358//358 311//311
f  311//311 358//358 357//357
f  357//357 359//359 312//312
f  312//312 359//359 360//360
f  312//312 360//360 313//313
f  313//313 360//360 314//314
f  360//360 361//361 314//314
f  314//314 361//361 362//362
f  314//314 362//362 315//315
f  315//315 362//362 363//363
f  315//315 363//363 316//316
f  316//316 363//363 364//364
f  316//316 364//364 317//317
f  317//317 364//364 365//365
f  317//317 365//365 318//318
f  318//318 365//365 366//366
f  318//318 366//366 319//319
f  319//319 366//366 367//367
f  319//319 367//367 320//320
f  320//320 367//367 368//368
f  320//320 368//368 321//321
f  321//321 368//368 369//369
f  321//321 369//369 322//322
f  322//322 369//369 370//370
f  322//322 370//370 323//323
f  323//323 370//370 371//371
f  323//323 371//371 324//324
f  324//324 371//371 372//372
f  324//324 372//372 325//325
f  325//325 372//372 373//373
f  325//325 373//373 326//326
f  326//326 373//373 374//374
f  326//326 374//374 327//327
f  327//327 374//374 375//375
f  327//327 375//375 328//328
f  328//328 376//376 333//333
f  328//328 375//375 377//377
f  328//328 377//377 378//378
f  379//379 376//376 328//328
f  379//379 328//328 378//378
f  380//380 338//338 329//329
f  380//380 329//329 381//381
f  382//382 381//381 329//329
f  382//382 329//329 332//332
f  383//383 330//330 333//333
f  384//384 331//331 330//330
f  384//384 330//330 383//383
f  385//385 332//332 331//331
f  385//385 331//331 384//384
f  386//386 382//382 332//332
f  386//386 332//332 385//385
f  383//383 333//333 387//387
f  387//387 333//333 376//376
f  334//334 335//335 388//388
f  334//334 388//388 353//353
f  335//335 336//336 389//389
f  335//335 389//389 388//388
f  336//336 337//337 390//390
f  336//336 390//390 389//389
f  337//337 338//338 391//391
f  337//337 391//391 390//390
f  392//392 391//391 338//338
f  392//392 338//338 380//380
f  339//339 393//393 340//340
f  341//341 394//394 339//339
f  394//394 393//393 339//339
f  340//340 395//395 342//342
f  393//393 395//395 340//340
f  394//394 341//341 396//396
f  341//341 344//344 396//396
f  342//342 397//397 354//354
f  395//395 397//397 342//342
f  345//345 398//398 343//343
f  398//398 344//344 343//343
f  398//398 399//399 344//344
f  399//399 396//396 344//344
f  349//349 398//398 345//345
f  346//346 353//353 400//400
f  346//346 400//400 347//347
f  347//347 400//400 401//401
f  347//347 401//401 348//348
f  348//348 401//401 402//402
f  348//348 402//402 351//351
f  349//349 350//350 398//398
f  350//350 352//352 399//399
f  350//350 399//399 398//398
f  351//351 402//402 403//403
f  351//351 403//403 352//352
f  352//352 403//403 404//404
f  352//352 404//404 399//399
f  353//353 388//388 405//405
f  353//353 405//405 400//400
f  397//397 406//406 354//354
f  354//354 406//406 355//355
f  407//407 355//355 406//406
f  356//356 355//355 407//407
f  407//407 408//408 356//356
f  356//356 408//408 358//358
f  358//358 409//409 357//357
f  357//357 409//409 359//359
f  408//408 410//410 358//358
f  358//358 410//410 409//409
f  409//409 411//411 359//359
f  359//359 411//411 412//412
f  359//359 412//412 360//360
f  360//360 412//412 361//361
f  361//361 412//412 411//411
f  361//361 411//411 413//413
f  361//361 413//413 414//414
f  361//361 414//414 415//415
f  361//361 415//415 362//362
f  362//362 415//415 416//416
f  362//362 416//416 363//363
f  363//363 416//416 417//417
f  363//363 417//417 364//364
f  364//364 417//417 418//418
f  364//364 418//418 365//365
f  365//365 418//418 419//419
f  365//365 419//419 366//366
f  366//366 419//419 420//420
f  366//366 420//420 367//367
f  367//367 420//420 421//421
f  367//367 421//421 368//368
f  368//368 421//421 422//422
f  368//368 422//422 369//369
f  369//369 422//422 423//423
f  369//369 423//423 370//370
f  370//370 423//423 424//424
f  370//370 424//424 371//371
f  371//371 424//424 425//425
f  371//371 425//425 372//372
f  372//372 425//425 426//426
f  372//372 426//426 373//373
f  373//373 426//426 427//427
f  373//373 427//427 374//374
f  374//374 427//427 428//428
f  374//374 428//428 375//375
f  375//375 428//428 429//429
f  375//375 429//429 377//377
f  387//387 376//376 430//430
f  430//430 376//376 379//379
f  377//377 429//429 431//431
f  377//377 431//431 432//432
f  378//378 377//377 432//432
f  378//378 432//432 433//433
f  434//434 378//378 433//433
f  435//435 379//379 378//378
f  435//435 378//378 434//434
f  430//430 379//379 436//436
f  436//436 379//379 435//435
f  381//381 437//437 380//380
f  380//380 437//437 438//438
f  380//380 438//438 392//392
f  381//381 434//434 437//437
f  382//382 434//434 381//381
f  382//382 435//435 434//434
f  439//439 435//435 382//382
f  439//439 382//382 386//386
f  440//440 383//383 387//387
f  441//441 384//384 383//383
f  441//441 383//383 440//440
f  442//442 385//385 384//384
f  442//442 384//384 441//441
f  443//443 386//386 385//385
f  443//443 385//385 442//442
f  444//444 439//439 386//386
f  444//444 386//386 443//443
f  440//440 387//387 445//445
f  445//445 387//387 430//430
f  388//388 389//389 446//446
f  388//388 446//446 405//405
f  389//389 390//390 447//447
f  389//389 447//447 446//446
f  390//390 391//391 448//448
f  390//390 448//448 447//447
f  449//449 448//448 391//391
f  449//449 391//391 392//392
f  392//392 438//438 450//450
f  392//392 450//450 449//449
f  394//394 451//451 393//393
f  393//393 452//452 395//395
f  451//451 452//452 393//393
f  396//396 451//451 394//394
f  452//452 453//453 395//395
f  395//395 453//453 397//397
f  396//396 454//454 451//451
f  399//399 404//404 396//396
f  404//404 454//454 396//396
f  453//453 455//455 397//397
f  397//397 455//455 406//406
f  400//400 405//405 456//456
f  400//400 456//456 401//401
f  401//401 456//456 457//457
f  401//401 457//457 402//402
f  402//402 457//457 458//458
f  402//402 458//458 403//403
f  403//403 458//458 459//459
f  403//403 459//459 404//404
f  404//404 459//459 454//454
f  405//405 446//446 460//460
f  405//405 460//460 456//456
f  461//461 406//406 455//455
f  407//407 406//406 461//461
f  461//461 462//462 407//407
f  407//407 462//462 408//408
f  462//462 463//463 408//408
f  408//408 463//463 410//410
f  410//410 464//464 409//409
f  409//409 464//464 411//411
f  463//463 465//465 410//410
f  410//410 465//465 464//464
f  464//464 413//413 411//411
f  464//464 466//466 413//413
f  466//466 467//467 413//413
f  413//413 467//467 468//468
f  413//413 468//468 414//414
f  414//414 468//468 469//469
f  414//414 469//469 415//415
f  415//415 469//469 470//470
f  415//415 470//470 416//416
f  416//416 470//470 471//471
f  416//416 471//471 417//417
f  417//417 471//471 472//472
f  417//417 472//472 418//418
f  418//418 472//472 473//473
f  418//418 473//473 419//419
f  419//419 473//473 474//474
f  419//419 474//474 420//420
f  420//420 474//474 475//475
f  420//420 475//475 421//421
f  421//421 475//475 476//476
f  421//421 476//476 422//422
f  422//422 476//476 477//477
f  422//422 477//477 423//423
f  423//423 477//477 478//478
f  423//423 478//478 424//424
f  424//424 478//478 479//479
f  424//424 479//479 425//425
f  425//425 479//479 480//480
f  425//425 480//480 426//426
f  426//426 480//480 481//481
f  426//426 481//481 427//427
f  427//427 481//481 482//482
f  427//427 482//482 428//428
f  428//428 482//482 483//483
f  428//428 483//483 429//429
f  429//429 483//483 484//484
f  429//429 484//484 431//431
f  445//445 430//430 485//485
f  485//485 430//430 436//436
f  432//432 431//431 486//486
f  431//431 484//484 487//487
f  431//431 487//487 486//486
f  432//432 486//486 488//488
f  433//433 432//432 488//488
f  434//434 433//433 437//437
f  433//433 488//488 489//489
f  437//437 433//433 489//489
f  436//436 435//435 439//439
f  485//485 436//436 490//490
f  490//490 436//436 439//439
f  437//437 489//489 438//438
f  438//438 489//489 491//491
f  438//438 491//491 450//450
f  490//490 439//439 444//444
f  492//492 440//440 445//445
f  493//493 441//441 440//440
f  493//493 440//440 492//492
f  494//494 442//442 441//441
f  494//494 441//441 493//493
f  495//495 443//443 442//442
f  495//495 442//442 494//494
f  496//496 444//444 443//443
f  496//496 443//443 495//495
f  497//497 490//490 444//444
f  497//497 444//444 496//496
f  492//492 445//445 498//498
f  498//498 445//445 485//485
f  446//446 447//447 499//499
f  446//446 499//499 460//460
f  447//447 448//448 500//500
f  447//447 500//500 499//499
f  501//501 500//500 448//448
f  501//501 448//448 449//449
f  449//449 450//450 502//502
f  449//449 502//502 501//501
f  450//450 491//491 503//503
f  450//450 503//503 502//502
f  451//451 504//504 452//452
f  454//454 504//504 451//451
f  452//452 505//505 453//453
f  504//504 505//505 452//452
f  453//453 506//506 455//455
f  505//505 506//506 453//453
f  454//454 507//507 504//504
f  459//459 507//507 454//454
f  508//508 455//455 506//506
f  461//461 455//455 508//508
f  456//456 460//460 509//509
f  456//456 509//509 457//457
f  457//457 509//509 510//510
f  457//457 510//510 458//458
f  458//458 510//510 511//511
f  458//458 511//511 459//459
f  459//459 511//511 507//507
f  460//460 499//499 512//512
f  460//460 512//512 509//509
f  508//508 513//513 461//461
f  461//461 513//513 462//462
f  513//513 514//514 462//462
f  462//462 514//514 463//463
f  514//514 515//515 463//463
f  463//463 515//515 465//465
f  465//465 466//466 464//464
f  515//515 516//516 465//465
f  465//465 516//516 466//466
f  516//516 517//517 466//466
f  466//466 517//517 467//467
f  518//518 467//467 517//517
f  519//519 468//468 467//467
f  519//519 467//467 518//518
f  469//469 468//468 519//519
f  469//469 519//519 520//520
f  521//521 470//470 469//469
f  521//521 469//469 520//520
f  471//471 470//470 521//521
f  471//471 521//521 522//522
f  472//472 471//471 522//522
f  473//473 472//472 522//522
f  473//473 522//522 523//523
f  473//473 523//523 474//474
f  474//474 523//523 524//524
f  474//474 524//524 475//475
f  475//475 524//524 525//525
f  475//475 525//525 476//476
f  476//476 525//525 526//526
f  476//476 526//526 477//477
f  477//477 526//526 527//527
f  477//477 527//527 478//478
f  479//479 478//478 527//527
f  479//479 527//527 528//528
f  528//528 480//480 479//479
f  528//528 529//529 480//480
f  481//481 480//480 529//529
f  481//481 529//529 530//530
f  481//481 530//530 531//531
f  481//481 531//531 482//482
f  483//483 482//482 531//531
f  484//484 483//483 531//531
f  484//484 531//531 532//532
f  532//532 487//487 484//484
f  498//498 485//485 533//533
f  533//533 485//485 490//490
f  488//488 486//486 534//534
f  486//486 487//487 535//535
f  486//486 535//535 534//534
f  535//535 487//487 532//532
f  489//489 488//488 536//536
f  488//488 534//534 536//536
f  489//489 536//536 491//491
f  533//533 490//490 497//497
f  491//491 536//536 537//537
f  491//491 537//537 503//503
f  538//538 492//492 498//498
f  539//539 493//493 492//492
f  539//539 492//492 538//538
f  540//540 494//494 493//493
f  540//540 493//493 539//539
f  541//541 495//495 494//494
f  541//541 494//494 540//540
f  542//542 496//496 495//495
f  542//542 495//495 541//541
f  543//543 497//497 496//496
f  543//543 496//496 542//542
f  544//544 533//533 497//497
f  544//544 497//497 543//543
f  538//538 498//498 545//545
f  545//545 498//498 533//533
f  499//499 500//500 546//546
f  499//499 546//546 512//512
f  547//547 546//546 500//500
f  547//547 500//500 501//501
f  501//501 502//502 548//548
f  501//501 548//548 547//547
f  502//502 503//503 549//549
f  502//502 549//549 548//548
f  503//503 537//537 550//550
f  503//503 550//550 549//549
f  504//504 551//551 505//505
f  507//507 551//551 504//504
f  551//551 552//552 505//505
f  505//505 552//552 506//506
f  553//553 506//506 552//552
f  508//508 506//506 553//553
f  507//507 554//554 551//551
f  511//511 554//554 507//507
f  553//553 555//555 508//508
f  508//508 555//555 513//513
f  509//509 512//512 556//556
f  509//509 556//556 510//510
f  510//510 556//556 557//557
f  510//510 557//557 511//511
f  511//511 557//557 554//554
f  512//512 546//546 558//558
f  512//512 558//558 556//556
f  555//555 559//559 513//513
f  513//513 559//559 514//514
f  559//559 560//560 514//514
f  514//514 560//560 515//515
f  560//560 561//561 515//515
f  515//515 561//561 516//516
f  561//561 562//562 516//516
f  516//516 562//562 517//517
f  562//562 563//563 517//517
f  518//518 517//517 563//563
f  518//518 564//564 519//519
f  565//565 518//518 563//563
f  518//518 565//565 564//564
f  519//519 564//564 566//566
f  519//519 566//566 520//520
f  520//520 566//566 567//567
f  520//520 567//567 521//521
f  521//521 567//567 568//568
f  521//521 568//568 522//522
f  522//522 568//568 569//569
f  522//522 569//569 523//523
f  570//570 524//524 523//523
f  570//570 523//523 569//569
f  571//571 525//525 524//524
f  571//571 524//524 570//570
f  572//572 526//526 525//525
f  572//572 525//525 571//571
f  573//573 527//527 526//526
f  573//573 526//526 572//572
f  574//574 528//528 527//527
f  574//574 527//527 573//573
f  575//575 529//529 528//528
f  575//575 528//528 574//574
f  530//530 529//529 575//575
f  576//576 531//531 530//530
f  576//576 530//530 575//575
f  577//577 532//532 531//531
f  577//577 531//531 576//576
f  535//535 532//532 578//578
f  579//579 532//532 577//577
f  580//580 578//578 532//532
f  580//580 532//532 579//579
f  545//545 533//533 544//544
f  536//536 534//534 581//581
f  534//534 535//535 582//582
f  534//534 582//582 581//581
f  535//535 578//578 583//583
f  535//535 583//583 582//582
f  536//536 581//581 537//537
f  537//537 581//581 584//584
f  537//537 584//584 550//550
f  585//585 538//538 545//545
f  586//586 539//539 538//538
f  586//586 538//538 585//585
f  587//587 540//540 539//539
f  587//587 539//539 586//586
f  588//588 541//541 540//540
f  588//588 540//540 587//587
f  589//589 542//542 541//541
f  589//589 541//541 588//588
f  590//590 543//543 542//542
f  590//590 542//542 589//589
f  591//591 544//544 543//543
f  591//591 543//543 590//590
f  592//592 545//545 544//544
f  592//592 544//544 591//591
f  585//585 545//545 592//592
f  593//593 558//558 546//546
f  593//593 546//546 547//547
f  547//547 548//548 594//594
f  547//547 594//594 593//593
f  548//548 549//549 595//595
f  548//548 595//595 594//594
f  549//549 550//550 596//596
f  549//549 596//596 595//595
f  550//550 584//584 597//597
f  550//550 597//597 596//596
f  551//551 598//598 552//552
f  554//554 598//598 551//551
f  553//553 552//552 599//599
f  599//599 552//552 598//598
f  599//599 600//600 553//553
f  553//553 600//600 555//555
f  554//554 601//601 598//598
f  557//557 601//601 554//554
f  600//600 602//602 555//555
f  555//555 602//602 559//559
f  556//556 558//558 603//603
f  556//556 603//603 557//557
f  557//557 603//603 601//601
f  604//604 603//603 558//558
f  604//604 558//558 593//593
f  602//602 605//605 559//559
f  559//559 605//605 560//560
f  605//605 606//606 560//560
f  560//560 606//606 561//561
f  606//606 607//607 561//561
f  561//561 607//607 562//562
f  607//607 608//608 562//562
f  562//562 608//608 563//563
f  608//608 609//609 563//563
f  563//563 609//609 565//565
f  566//566 564//564 565//565
f  566//566 565//565 609//609
f  567//567 566//566 609//609
f  568//568 567//567 609//609
f  569//569 568//568 610//610
f  568//568 609//609 610//610
f  570//570 569//569 611//611
f  569//569 610//610 612//612
f  569//569 612//612 611//611
f  570//570 611//611 613//613
f  571//571 570//570 613//613
f  572//572 571//571 613//613
f  574//574 573//573 572//572
f  574//574 572//572 614//614
f  572//572 613//613 614//614
f  575//575 574//574 615//615
f  574//574 614//614 615//615
f  575//575 615//615 616//616
f  576//576 575//575 616//616
f  577//577 576//576 616//616
f  617//617 579//579 577//577
f  577//577 616//616 617//617
f  618//618 583//583 578//578
f  618//618 578//578 580//580
f  617//617 580//580 579//579
f  619//619 618//618 580//580
f  617//617 619//619 580//580
f  581//581 582//582 620//620
f  581//581 620//620 584//584
f  582//582 583//583 621//621
f  582//582 621//621 620//620
f  622//622 621//621 583//583
f  622//622 583//583 618//618
f  584//584 620//620 623//623
f  584//584 623//623 597//597
f  586//586 585//585 624//624
f  625//625 585//585 592//592
f  585//585 625//625 624//624
f  624//624 587//587 586//586
f  624//624 626//626 587//587
f  626//626 588//588 587//587
f  626//626 627//627 588//588
f  588//588 627//627 628//628
f  588//588 628//628 589//589
f  589//589 628//628 629//629
f  589//589 629//629 590//590
f  590//590 629//629 630//630
f  590//590 630//630 591//591
f  625//625 592//592 591//591
f  625//625 591//591 630//630
f  593//593 594//594 631//631
f  593//593 631//631 604//604
f  594//594 595//595 632//632
f  594//594 632//632 631//631
f  595//595 596//596 632//632
f  596//596 633//633 634//634
f  596//596 634//634 632//632
f  597//597 633//633 596//596
f  597//597 635//635 633//633
f  597//597 623//623 636//636
f  597//597 636//636 635//635
f  637//637 598//598 601//601
f  599//599 598//598 637//637
f  599//599 638//638 600//600
f  637//637 638//638 599//599
f  638//638 639//639 600//600
f  600//600 639//639 602//602
f  637//637 601//601 640//640
f  640//640 601//601 603//603
f  639//639 641//641 602//602
f  602//602 641//641 605//605
f  640//640 603//603 604//604
f  604//604 631//631 642//642
f  604//604 642//642 640//640
f  641//641 643//643 605//605
f  605//605 643//643 606//606
f  643//643 644//644 606//606
f  606//606 644//644 607//607
f  644//644 645//645 607//607
f  607//607 645//645 608//608
f  645//645 610//610 608//608
f  608//608 610//610 609//609
f  645//645 612//612 610//610
f  646//646 613//613 611//611
f  646//646 611//611 647//647
f  647//647 611//611 612//612
f  647//647 612//612 645//645
f  648//648 614//614 613//613
f  648//648 613//613 646//646
f  649//649 615//615 614//614
f  649//649 614//614 648//648
f  650//650 616//616 615//615
f  650//650 615//615 649//649
f  651//651 617//617 616//616
f  651//651 616//616 650//650
f  652//652 619//619 617//617
f  652//652 617//617 651//651
f  653//653 622//622 618//618
f  619//619 653//653 618//618
f  653//653 619//619 652//652
f  620//620 621//621 654//654
f  620//620 654//654 623//623
f  655//655 654//654 621//621
f  655//655 621//621 622//622
f  653//653 655//655 622//622
f  623//623 656//656 657//657
f  623//623 657//657 658//658
f  636//636 623//623 658//658
f  623//623 654//654 656//656
f  659//659 624//624 625//625
f  660//660 626//626 624//624
f  660//660 624//624 659//659
f  659//659 625//625 661//661
f  661//661 625//625 630//630
f  662//662 627//627 626//626
f  662//662 626//626 660//660
f  663//663 628//628 627//627
f  663//663 627//627 662//662
f  664//664 629//629 628//628
f  664//664 628//628 663//663
f  665//665 630//630 629//629
f  665//665 629//629 664//664
f  661//661 630//630 665//665
f  631//631 666//666 667//667
f  631//631 667//667 642//642
f  632//632 666//666 631//631
f  632//632 634//634 666//666
f  633//633 668//668 669//669
f  633//633 669//669 634//634
f  635//635 668//668 633//633
f  634//634 669//669 670//670
f  634//634 670//670 666//666
f  635//635 671//671 668//668
f  636//636 671//671 635//635
f  636//636 672//672 671//671
f  636//636 658//658 673//673
f  673//673 672//672 636//636
f  637//637 674//674 638//638
f  640//640 674//674 637//637
f  674//674 675//675 638//638
f  638//638 675//675 639//639
f  675//675 676//676 639//639
f  639//639 676//676 641//641
f  640//640 642//642 674//674
f  676//676 677//677 641//641
f  641//641 677//677 643//643
f  642//642 678//678 679//679
f  642//642 679//679 674//674
f  680//680 678//678 642//642
f  680//680 642//642 667//667
f  677//677 681//681 643//643
f  643//643 681//681 644//644
f  681//681 647//647 644//644
f  644//644 647//647 645//645
f  682//682 648//648 646//646
f  682//682 646//646 681//681
f  681//681 646//646 647//647
f  683//683 649//649 648//648
f  683//683 648//648 682//682
f  683//683 650//650 649//649
f  684//684 651//651 650//650
f  684//684 650//650 685//685
f  683//683 685//685 650//650
f  684//684 652//652 651//651
f  658//658 657//657 652//652
f  658//658 652//652 686//686
f  684//684 686//686 652//652
f  653//653 652//652 657//657
f  653//653 656//656 654//654
f  653//653 654//654 655//655
f  657//657 656//656 653//653
f  687//687 658//658 686//686
f  688//688 673//673 658//658
f  688//688 658//658 687//687
f  662//662 660//660 659//659
f  689//689 662//662 659//659
f  689//689 659//659 690//690
f  691//691 690//690 659//659
f  691//691 659//659 661//661
f  665//665 691//691 661//661
f  662//662 689//689 692//692
f  662//662 692//692 663//663
f  663//663 692//692 664//664
f  692//692 665//665 664//664
f  692//692 691//691 665//665
f  666//666 670//670 693//693
f  666//666 693//693 667//667
f  667//667 693//693 694//694
f  667//667 694//694 680//680
f  668//668 695//695 696//696
f  668//668 696//696 669//669
f  671//671 695//695 668//668
f  669//669 696//696 697//697
f  669//669 697//697 670//670
f  670//670 697//697 698//698
f  670//670 698//698 693//693
f  671//671 699//699 695//695
f  672//672 699//699 671//671
f  672//672 700//700 699//699
f  673//673 701//701 672//672
f  701//701 700//700 672//672
f  688//688 701//701 673//673
f  674//674 679//679 675//675
f  679//679 702//702 675//675
f  675//675 702//702 676//676
f  702//702 703//703 676//676
f  676//676 703//703 677//677
f  703//703 682//682 677//677
f  677//677 682//682 681//681
f  678//678 704//704 705//705
f  678//678 705//705 679//679
f  680//680 706//706 678//678
f  678//678 706//706 704//704
f  679//679 705//705 702//702
f  680//680 707//707 706//706
f  680//680 694//694 708//708
f  680//680 708//708 707//707
f  703//703 683//683 682//682
f  709//709 685//685 683//683
f  709//709 683//683 703//703
f  710//710 686//686 684//684
f  710//710 684//684 711//711
f  711//711 684//684 685//685
f  711//711 685//685 709//709
f  687//687 686//686 710//710
f  706//706 687//687 710//710
f  688//688 687//687 706//706
f  707//707 712//712 688//688
f  688//688 706//706 707//707
f  688//688 712//712 701//701
f  692//692 689//689 690//690
f  692//692 690//690 691//691
f  693//693 698//698 713//713
f  693//693 713//713 694//694
f  694//694 713//713 714//714
f  694//694 714//714 708//708
f  695//695 715//715 716//716
f  695//695 716//716 696//696
f  699//699 715//715 695//695
f  696//696 716//716 717//717
f  696//696 717//717 697//697
f  697//697 717//717 718//718
f  697//697 718//718 698//698
f  698//698 718//718 719//719
f  698//698 719//719 713//713
f  699//699 720//720 715//715
f  700//700 720//720 699//699
f  700//700 721//721 720//720
f  701//701 722//722 700//700
f  722//722 721//721 700//700
f  712//712 722//722 701//701
f  705//705 709//709 702//702
f  702//702 709//709 703//703
f  706//706 710//710 704//704
f  704//704 710//710 711//711
f  704//704 711//711 705//705
f  705//705 711//711 709//709
f  707//707 708//708 712//712
f  708//708 714//714 723//723
f  708//708 723//723 712//712
f  712//712 723//723 722//722
f  713//713 719//719 724//724
f  713//713 724//724 714//714
f  714//714 724//724 725//725
f  714//714 725//725 723//723
f  715//715 726//726 727//727
f  715//715 727//727 716//716
f  720//720 726//726 715//715
f  716//716 727//727 728//728
f  716//716 728//728 717//717
f  717//717 728//728 729//729
f  717//717 729//729 718//718
f  718//718 729//729 730//730
f  718//718 730//730 719//719
f  719//719 730//730 731//731
f  719//719 731//731 724//724
f  720//720 732//732 726//726
f  721//721 732//732 720//720
f  722//722 733//733 721//721
f  733//733 734//734 721//721
f  721//721 734//734 732//732
f  723//723 733//733 722//722
f  723//723 725//725 733//733
f  724//724 731//731 735//735
f  724//724 735//735 725//725
f  725//725 735//735 736//736
f  725//725 736//736 733//733
f  726//726 737//737 738//738
f  726//726 738//738 727//727
f  732//732 737//737 726//726
f  727//727 738//738 739//739
f  727//727 739//739 728//728
f  728//728 739//739 740//740
f  728//728 740//740 729//729
f  729//729 740//740 741//741
f  729//729 741//741 730//730
f  730//730 741//741 742//742
f  730//730 742//742 731//731
f  731//731 742//742 743//743
f  731//731 743//743 735//735
f  734//734 744//744 732//732
f  732//732 744//744 737//737
f  733//733 736//736 734//734
f  736//736 745//745 734//734
f  734//734 745//745 744//744
f  735//735 743//743 746//746
f  735//735 746//746 736//736
f  736//736 746//746 745//745
f  737//737 747//747 748//748
f  737//737 748//748 738//738
f  744//744 747//747 737//737
f  738//738 748//748 749//749
f  738//738 749//749 739//739
f  739//739 749//749 750//750
f  739//739 750//750 740//740
f  740//740 750//750 751//751
f  740//740 751//751 741//741
f  741//741 751//751 752//752
f  741//741 752//752 742//742
f  742//742 752//752 753//753
f  742//742 753//753 743//743
f  743//743 753//753 754//754
f  743//743 754//754 746//746
f  745//745 755//755 744//744
f  744//744 755//755 747//747
f  746//746 756//756 745//745
f  745//745 756//756 755//755
f  746//746 754//754 756//756
f  747//747 757//757 758//758
f  747//747 758//758 748//748
f  755//755 757//757 747//747
f  748//748 758//758 759//759
f  748//748 759//759 749//749
f  749//749 759//759 760//760
f  749//749 760//760 750//750
f  750//750 760//760 761//761
f  750//750 761//761 751//751
f  751//751 761//761 762//762
f  751//751 762//762 752//752
f  752//752 762//762 763//763
f  752//752 763//763 753//753
f  753//753 763//763 764//764
f  753//753 764//764 754//754
f  754//754 764//764 765//765
f  754//754 765//765 756//756
f  756//756 766//766 755//755
f  755//755 766//766 757//757
f  756//756 765//765 766//766
f  758//758 757//757 767//767
f  767//767 757//757 766//766
f  758//758 767//767 768//768
f  758//758 768//768 759//759
f  768//768 760//760 759//759
f  769//769 761//761 760//760
f  769//769 760//760 768//768
f  769//769 762//762 761//761
f  770//770 763//763 762//762
f  770//770 762//762 769//769
f  770//770 764//764 763//763
f  765//765 764//764 770//770
f  767//767 766//766 765//765
f  765//765 770//770 767//767
f  769//769 767//767 770//770
f  769//769 768//768 767//767
