#VRML V2.0 utf8
Transform {
children [
Shape {
appearance Appearance {
              material DEF surface Material {
              diffuseColor 0.8 0.8 0.8
              ambientIntensity 0.2
              specularColor 0.4 0.4 0.4
              emissiveColor 0 0 0
              shininess 0.25
              transparency 0
            }
          }
geometry IndexedFaceSet {
solid FALSE
coord DEF bone Coordinate {
point [
 -0.008361	 -0.007420	  0.005205,
 -0.009717	 -0.006354	  0.007261,
 -0.010368	 -0.004687	  0.002672,
 -0.008849	 -0.005940	  0.000489,
 -0.000414	 -0.009429	  0.008767,
 -0.007801	 -0.009324	  0.007573,
  0.001577	 -0.003172	  0.007169,
 -0.009091	 -0.007781	  0.009644,
 -0.009353	 -0.006419	  0.009349,
 -0.009393	  0.000002	  0.000148,
  0.000580	  0.000300	  0.001869,
 -0.003507	  0.006369	 -0.001747,
  0.000775	 -0.010930	  0.010805,
 -0.002362	 -0.013591	  0.008553,
  0.001282	 -0.008800	  0.011427,
 -0.006969	 -0.013265	  0.008422,
  0.001714	 -0.002442	  0.008746,
 -0.008809	 -0.010246	  0.011221,
 -0.010366	 -0.000986	  0.005784,
 -0.009998	 -0.003629	  0.012687,
 -0.009284	 -0.008532	  0.014169,
 -0.008141	 -0.010324	  0.015971,
 -0.008364	 -0.011657	  0.013934,
  0.001229	  0.004957	  0.002015,
  0.001702	  0.001018	  0.004202,
 -0.007549	  0.004479	  0.007057,
  0.000922	 -0.011455	  0.011790,
 -0.000049	 -0.006336	  0.014521,
 -0.000783	 -0.015146	  0.010582,
  0.000615	 -0.002372	  0.011428,
 -0.006264	 -0.014827	  0.014795,
  0.002162	  0.001027	  0.007300,
 -0.009762	 -0.002114	  0.013843,
 -0.006330	 -0.006054	  0.018306,
 -0.002353	 -0.011454	  0.021383,
  0.002097	  0.002381	  0.004573,
  0.002196	  0.002574	  0.008128,
  0.001826	 -0.009822	  0.016144,
 -0.001428	 -0.005423	  0.016795,
  0.000288	 -0.010558	  0.021253,
 -0.000711	 -0.001157	  0.013934,
]
}
coordIndex [
   0,	   1,	   2, -1
   0,	   2,	   3, -1
   4,	   5,	   0, -1
   4,	   0,	   6, -1
   6,	   0,	   3, -1
   5,	   1,	   0, -1
   5,	   7,	   1, -1
   1,	   7,	   8, -1
   2,	   1,	   8, -1
   3,	   2,	   9, -1
   9,	   2,	   8, -1
   6,	   3,	  10, -1
   3,	   9,	  11, -1
  10,	   3,	  11, -1
  12,	  13,	   4, -1
  12,	   4,	  14, -1
  14,	   4,	   6, -1
  13,	   5,	   4, -1
  13,	  15,	   5, -1
  15,	   7,	   5, -1
  14,	   6,	  16, -1
  16,	   6,	  10, -1
  15,	  17,	   7, -1
   7,	  17,	   8, -1
  18,	   9,	   8, -1
  19,	  18,	   8, -1
  20,	  19,	   8, -1
  21,	  20,	   8, -1
  22,	  21,	   8, -1
  17,	  22,	   8, -1
  11,	   9,	  18, -1
  10,	  11,	  23, -1
  16,	  10,	  24, -1
  24,	  10,	  23, -1
  11,	  18,	  25, -1
  23,	  11,	  25, -1
  26,	  13,	  12, -1
  27,	  12,	  14, -1
  26,	  12,	  27, -1
  26,	  28,	  13, -1
  28,	  15,	  13, -1
  14,	  16,	  29, -1
  27,	  14,	  29, -1
  28,	  30,	  15, -1
  30,	  17,	  15, -1
  16,	  24,	  31, -1
  29,	  16,	  31, -1
  30,	  22,	  17, -1
  25,	  18,	  19, -1
  25,	  19,	  32, -1
  32,	  19,	  20, -1
  32,	  20,	  33, -1
  33,	  20,	  21, -1
  33,	  21,	  34, -1
  34,	  21,	  22, -1
  34,	  22,	  30, -1
  24,	  23,	  35, -1
  23,	  25,	  36, -1
  35,	  23,	  36, -1
  31,	  24,	  35, -1
  36,	  25,	  32, -1
  37,	  28,	  26, -1
  37,	  26,	  27, -1
  29,	  38,	  27, -1
  27,	  38,	  39, -1
  27,	  39,	  37, -1
  37,	  39,	  28, -1
  39,	  30,	  28, -1
  31,	  40,	  29, -1
  29,	  40,	  38, -1
  39,	  34,	  30, -1
  35,	  36,	  31, -1
  31,	  36,	  40, -1
  36,	  32,	  40, -1
  40,	  32,	  33, -1
  40,	  33,	  38, -1
  38,	  33,	  34, -1
  38,	  34,	  39, -1
]
colorPerVertex FALSE
colorIndex [
1,
1,
1,
1,
1,
1,
1,
1,
1,
1,
1,
1,
1,
1,
1,
1,
1,
1,
1,
1,
1,
1,
1,
1,
1,
1,
1,
1,
1,
1,
1,
1,
1,
1,
1,
1,
1,
1,
1,
1,
1,
]
normal Normal {
vector [
 -0.305478	 -0.810302	 -0.500094,
 -0.921613	 -0.386684	 -0.033233,
 -0.967362	 -0.236171	 -0.091837,
 -0.122977	 -0.617034	 -0.777268,
  0.547249	 -0.341132	 -0.764295,
 -0.486052	 -0.505641	 -0.712798,
  0.783331	 -0.426909	 -0.451820,
 -0.939641	 -0.303527	 -0.157946,
 -0.987508	 -0.157467	  0.005596,
 -0.918394	  0.123346	 -0.375949,
  0.782042	 -0.267659	 -0.562822,
 -0.232555	  0.517611	 -0.823406,
  0.941106	 -0.241037	 -0.237107,
  0.442859	 -0.381634	 -0.811315,
  0.990827	 -0.124278	  0.053073,
 -0.599454	 -0.622073	 -0.503667,
  0.996729	 -0.077134	  0.024100,
 -0.932244	 -0.344242	 -0.111439,
 -0.968896	  0.237248	 -0.070391,
 -0.997009	  0.045685	  0.062332,
 -0.948344	 -0.206345	  0.240968,
 -0.862226	 -0.341728	  0.373883,
 -0.893023	 -0.368176	  0.258759,
  0.857780	  0.444119	 -0.258787,
  0.932547	 -0.216202	 -0.289160,
 -0.523289	  0.815702	  0.246574,
  0.940331	 -0.117185	 -0.319445,
  0.936141	  0.245248	  0.251977,
  0.529898	 -0.821074	 -0.212240,
  0.911767	  0.111433	  0.395301,
 -0.437385	 -0.881776	  0.176537,
  0.986113	 -0.084589	  0.142918,
 -0.620863	  0.525987	  0.581263,
 -0.410473	  0.347912	  0.842893,
 -0.411377	 -0.191669	  0.891085,
  0.985335	 -0.026707	 -0.168527,
  0.688927	  0.592222	  0.417914,
  0.998990	 -0.024263	  0.037827,
  0.535042	  0.495206	  0.684472,
  0.772402	 -0.191961	  0.605430,
  0.578978	  0.452031	  0.678567,
]
}
normalIndex [
   0,	   1,	   2, -1
   0,	   2,	   3, -1
   4,	   5,	   0, -1
   4,	   0,	   6, -1
   6,	   0,	   3, -1
   5,	   1,	   0, -1
   5,	   7,	   1, -1
   1,	   7,	   8, -1
   2,	   1,	   8, -1
   3,	   2,	   9, -1
   9,	   2,	   8, -1
   6,	   3,	  10, -1
   3,	   9,	  11, -1
  10,	   3,	  11, -1
  12,	  13,	   4, -1
  12,	   4,	  14, -1
  14,	   4,	   6, -1
  13,	   5,	   4, -1
  13,	  15,	   5, -1
  15,	   7,	   5, -1
  14,	   6,	  16, -1
  16,	   6,	  10, -1
  15,	  17,	   7, -1
   7,	  17,	   8, -1
  18,	   9,	   8, -1
  19,	  18,	   8, -1
  20,	  19,	   8, -1
  21,	  20,	   8, -1
  22,	  21,	   8, -1
  17,	  22,	   8, -1
  11,	   9,	  18, -1
  10,	  11,	  23, -1
  16,	  10,	  24, -1
  24,	  10,	  23, -1
  11,	  18,	  25, -1
  23,	  11,	  25, -1
  26,	  13,	  12, -1
  27,	  12,	  14, -1
  26,	  12,	  27, -1
  26,	  28,	  13, -1
  28,	  15,	  13, -1
  14,	  16,	  29, -1
  27,	  14,	  29, -1
  28,	  30,	  15, -1
  30,	  17,	  15, -1
  16,	  24,	  31, -1
  29,	  16,	  31, -1
  30,	  22,	  17, -1
  25,	  18,	  19, -1
  25,	  19,	  32, -1
  32,	  19,	  20, -1
  32,	  20,	  33, -1
  33,	  20,	  21, -1
  33,	  21,	  34, -1
  34,	  21,	  22, -1
  34,	  22,	  30, -1
  24,	  23,	  35, -1
  23,	  25,	  36, -1
  35,	  23,	  36, -1
  31,	  24,	  35, -1
  36,	  25,	  32, -1
  37,	  28,	  26, -1
  37,	  26,	  27, -1
  29,	  38,	  27, -1
  27,	  38,	  39, -1
  27,	  39,	  37, -1
  37,	  39,	  28, -1
  39,	  30,	  28, -1
  31,	  40,	  29, -1
  29,	  40,	  38, -1
  39,	  34,	  30, -1
  35,	  36,	  31, -1
  31,	  36,	  40, -1
  36,	  32,	  40, -1
  40,	  32,	  33, -1
  40,	  33,	  38, -1
  38,	  33,	  34, -1
  38,	  34,	  39, -1
]
normalPerVertex TRUE
}
}
]
}
