# 
# Wavefront OBJ file
# Converted by the DEEP Exploration 2.00.1211
# Right Hemisphere, LTD
# http://www.righthemisphere.com/
# 
mtllib scaphoid_l.mtl
# object Object #0
g Object__0
v -0.010368 -0.004687 -0.002672
v -0.009717 -0.006354 -0.007261
v -0.008361 -0.00742 -0.005205
v -0.008849 -0.00594 -0.000489
v -0.009353 -0.006419 -0.009349
v -0.009393 2e-006 -0.000148
v -0.007801 -0.009324 -0.007573
v -0.009091 -0.007781 -0.009644
v -0.000414 -0.009429 -0.008767
v 0.001577 -0.003172 -0.007169
v 0.00058 0.0003 -0.001869
v -0.003507 0.006369 0.001747
v -0.008809 -0.010246 -0.011221
v -0.010366 -0.000986 -0.005784
v -0.009998 -0.003629 -0.012687
v -0.009284 -0.008532 -0.014169
v -0.008141 -0.010324 -0.015971
v -0.008364 -0.011657 -0.013934
v -0.002362 -0.013591 -0.008553
v -0.006969 -0.013265 -0.008422
v 0.000775 -0.01093 -0.010805
v 0.001282 -0.0088 -0.011427
v 0.001714 -0.002442 -0.008746
v 0.001229 0.004957 -0.002015
v 0.001702 0.001018 -0.004202
v -0.007549 0.004479 -0.007057
v -0.006264 -0.014827 -0.014795
v -0.009762 -0.002114 -0.013843
v -0.00633 -0.006054 -0.018306
v -0.002353 -0.011454 -0.021383
v 0.000922 -0.011455 -0.01179
v -0.000783 -0.015146 -0.010582
v -4.9e-005 -0.006336 -0.014521
v 0.000615 -0.002372 -0.011428
v 0.002162 0.001027 -0.0073
v 0.002097 0.002381 -0.004573
v 0.002196 0.002574 -0.008128
v 0.000288 -0.010558 -0.021253
v -0.000711 -0.001157 -0.013934
v -0.001428 -0.005423 -0.016795
v 0.001826 -0.009822 -0.016144
# 41 verticies
vn -0.967362 -0.236171 0.091837
vn -0.921613 -0.386684 0.033233
vn -0.305478 -0.810302 0.500094
vn -0.122977 -0.617034 0.777268
vn -0.987508 -0.157467 -0.005596
vn -0.918394 0.123346 0.375949
vn -0.486052 -0.505641 0.712798
vn -0.939641 -0.303527 0.157946
vn 0.547249 -0.341132 0.764295
vn 0.783331 -0.426909 0.45182
vn 0.782042 -0.267659 0.562822
vn -0.232555 0.517611 0.823406
vn -0.932244 -0.344242 0.111439
vn -0.968895 0.237248 0.070391
vn -0.997009 0.045685 -0.062332
vn -0.948344 -0.206345 -0.240968
vn -0.862226 -0.341728 -0.373883
vn -0.893023 -0.368176 -0.258759
vn 0.442859 -0.381634 0.811315
vn -0.599454 -0.622073 0.503667
vn 0.941106 -0.241037 0.237107
vn 0.990827 -0.124278 -0.053073
vn 0.996729 -0.077134 -0.0241
vn 0.85778 0.444119 0.258787
vn 0.932547 -0.216202 0.28916
vn -0.523289 0.815702 -0.246574
vn -0.437385 -0.881776 -0.176537
vn -0.620863 0.525987 -0.581263
vn -0.410473 0.347912 -0.842893
vn -0.411377 -0.191669 -0.891085
vn 0.940331 -0.117185 0.319445
vn 0.529898 -0.821074 0.21224
vn 0.936141 0.245248 -0.251977
vn 0.911767 0.111433 -0.395301
vn 0.986113 -0.084589 -0.142918
vn 0.985335 -0.026707 0.168527
vn 0.688927 0.592222 -0.417914
vn 0.772402 -0.191961 -0.60543
vn 0.578978 0.452031 -0.678567
vn 0.535042 0.495206 -0.684472
vn 0.99899 -0.024263 -0.037827
# 41 normals
usemtl Material__1
f  1//1 2//2 3//3
f  4//4 1//1 3//3
f  5//5 2//2 1//1
f  6//6 1//1 4//4
f  5//5 1//1 6//6
f  3//3 2//2 7//7
f  2//2 8//8 7//7
f  5//5 8//8 2//2
f  3//3 7//7 9//9
f  10//10 3//3 9//9
f  4//4 3//3 10//10
f  11//11 4//4 10//10
f  12//12 6//6 4//4
f  12//12 4//4 11//11
f  5//5 13//13 8//8
f  5//5 6//6 14//14
f  5//5 14//14 15//15
f  5//5 15//15 16//16
f  5//5 16//16 17//17
f  5//5 17//17 18//18
f  5//5 18//18 13//13
f  14//14 6//6 12//12
f  9//9 7//7 19//19
f  7//7 20//20 19//19
f  7//7 8//8 20//20
f  8//8 13//13 20//20
f  9//9 19//19 21//21
f  22//22 9//9 21//21
f  10//10 9//9 22//22
f  23//23 10//10 22//22
f  11//11 10//10 23//23
f  24//24 12//12 11//11
f  25//25 11//11 23//23
f  24//24 11//11 25//25
f  26//26 14//14 12//12
f  26//26 12//12 24//24
f  20//20 13//13 27//27
f  13//13 18//18 27//27
f  15//15 14//14 26//26
f  28//28 15//15 26//26
f  16//16 15//15 28//28
f  29//29 16//16 28//28
f  17//17 16//16 29//29
f  30//30 17//17 29//29
f  18//18 17//17 30//30
f  27//27 18//18 30//30
f  21//21 19//19 31//31
f  19//19 32//32 31//31
f  19//19 20//20 32//32
f  20//20 27//27 32//32
f  22//22 21//21 33//33
f  33//33 21//21 31//31
f  34//34 23//23 22//22
f  34//34 22//22 33//33
f  35//35 25//25 23//23
f  35//35 23//23 34//34
f  36//36 24//24 25//25
f  37//37 26//26 24//24
f  37//37 24//24 36//36
f  36//36 25//25 35//35
f  28//28 26//26 37//37
f  32//32 27//27 38//38
f  27//27 30//30 38//38
f  39//39 28//28 37//37
f  29//29 28//28 39//39
f  40//40 29//29 39//39
f  30//30 29//29 40//40
f  38//38 30//30 40//40
f  31//31 32//32 41//41
f  33//33 31//31 41//41
f  32//32 38//38 41//41
f  33//33 40//40 34//34
f  38//38 40//40 33//33
f  41//41 38//38 33//33
f  34//34 39//39 35//35
f  40//40 39//39 34//34
f  35//35 37//37 36//36
f  39//39 37//37 35//35
