# 
# Wavefront OBJ file
# Converted by the DEEP Exploration 2.00.1211
# Right Hemisphere, LTD
# http://www.righthemisphere.com/
# 
mtllib scapula_l_ls.mtl
# object Object #0
g Object__0
v -0.076916 -0.0463945 -0.173915
v -0.074672 -0.0440801 -0.177143
v -0.072428 -0.0417656 -0.180372
v -0.073823 -0.0476911 -0.17342
v -0.077392 -0.0384252 -0.168541
v -0.080093 -0.0441569 -0.159358
v -0.080326 -0.0520798 -0.165517
v -0.075461 -0.0495516 -0.170305
v -0.077099 -0.0514121 -0.167189
v -0.073432 -0.0322311 -0.174708
v -0.072122 -0.0440372 -0.178529
v -0.067497 -0.0291155 -0.180221
v -0.069389 -0.0297077 -0.180501
v -0.066248 -0.0360383 -0.172452
v -0.066089 -0.0316557 -0.176627
v -0.072163 -0.0232745 -0.156282
v -0.074814 -0.0292445 -0.146318
v -0.073774 -0.033213 -0.141878
v -0.081153 -0.0489313 -0.153558
v -0.083402 -0.0558168 -0.15677
v -0.080653 -0.0554964 -0.159989
v -0.068694 -0.0405364 -0.167555
v -0.072 -0.0432429 -0.160587
v -0.068136 -0.0193436 -0.161437
v -0.062292 -0.0174064 -0.164973
v -0.065391 -0.017121 -0.164508
v -0.063777 -0.020339 -0.161976
v -0.065225 -0.0231197 -0.156619
v -0.072353 -0.0192169 -0.145563
v -0.073733 -0.0237462 -0.139671
v -0.072256 -0.0271401 -0.134443
v -0.074827 -0.0356913 -0.13602
v -0.072294 -0.0287929 -0.129241
v -0.082218 -0.0510184 -0.14612
v -0.085355 -0.0576677 -0.15025
v -0.090948 -0.0647536 -0.130136
v -0.088375 -0.0637812 -0.138423
v -0.075734 -0.046766 -0.151955
v -0.065679 -0.0254679 -0.151809
v -0.067279 -0.0291937 -0.145249
v -0.067528 -0.0145559 -0.151813
v -0.063094 -0.0147648 -0.15423
v -0.065997 -0.0142724 -0.153706
v -0.062712 -0.015593 -0.150697
v -0.063594 -0.0186355 -0.146288
v -0.070433 -0.0109848 -0.126534
v -0.069159 -0.0144709 -0.121739
v -0.068205 -0.0184933 -0.118356
v -0.0681 -0.020087 -0.115477
v -0.08028 -0.0418383 -0.117102
v -0.076594 -0.033898 -0.109236
v -0.070959 -0.0267438 -0.0989577
v -0.087901 -0.0554759 -0.125413
v -0.091508 -0.0625531 -0.103082
v -0.094331 -0.0689359 -0.107797
v -0.093092 -0.070817 -0.109268
v -0.082775 -0.0538616 -0.131332
v -0.07072 -0.0323416 -0.137566
v -0.063914 -0.0200366 -0.14268
v -0.065243 -0.0232685 -0.137465
v -0.069429 -0.00863342 -0.128625
v -0.062868 -0.00917536 -0.131052
v -0.067666 -0.00786266 -0.130177
v -0.060793 -0.0106801 -0.130771
v -0.059879 -0.0129362 -0.129605
v -0.064433 -0.00376188 -0.111622
v -0.064166 -0.00733789 -0.109122
v -0.063034 -0.0129356 -0.106223
v -0.062881 -0.0151439 -0.104153
v -0.065916 -0.0216504 -0.0922278
v -0.084342 -0.0479819 -0.0953128
v -0.08008 -0.0412033 -0.0895132
v -0.073414 -0.0329759 -0.0840338
v -0.067695 -0.0269659 -0.0802305
v -0.092571 -0.0644338 -0.0926227
v -0.086368 -0.0594482 -0.0718537
v -0.093634 -0.0663144 -0.0821632
v -0.095356 -0.069678 -0.0904505
v -0.096373 -0.0712193 -0.0807433
v -0.095772 -0.0710626 -0.0773494
v -0.086598 -0.0610173 -0.103316
v -0.076043 -0.0388242 -0.120858
v -0.068809 -0.0274821 -0.128193
v -0.060377 -0.014424 -0.128123
v -0.061365 -0.0168871 -0.125644
v -0.064018 -0.0010471 -0.113155
v -0.060876 -0.00272132 -0.115941
v -0.062297 -0.000547567 -0.114994
v -0.058532 -0.00268339 -0.113518
v -0.055582 -0.00710974 -0.113954
v -0.056507 -0.000163294 -0.0983259
v -0.05629 -0.00451816 -0.0956424
v -0.05452 -0.00869222 -0.0944601
v -0.054754 -0.0117166 -0.0923977
v -0.058632 -0.0164583 -0.0845379
v -0.060013 -0.021349 -0.074113
v -0.08148 -0.0546826 -0.0647905
v -0.075736 -0.0485277 -0.0586204
v -0.068871 -0.0414848 -0.053732
v -0.061099 -0.0317581 -0.0503967
v -0.087912 -0.0612247 -0.0623953
v -0.083699 -0.0570304 -0.0569356
v -0.093508 -0.065929 -0.0702475
v -0.097378 -0.0706148 -0.0750178
v -0.087155 -0.0633673 -0.0719306
v -0.095965 -0.0715636 -0.062302
v -0.079569 -0.0464826 -0.09492
v -0.072544 -0.0313666 -0.115028
v -0.066165 -0.0214032 -0.117025
v -0.054173 -0.00941185 -0.11283
v -0.055247 -0.0119147 -0.111412
v -0.056073 0.00167061 -0.100963
v -0.052458 0.00134886 -0.103153
v -0.05431 0.00244137 -0.102516
v -0.05212 -0.000919027 -0.103013
v -0.049532 -0.00549589 -0.101582
v -0.048838 0.00280314 -0.0877383
v -0.0487 -0.00159757 -0.0861108
v -0.046797 -0.00634444 -0.084692
v -0.047375 -0.00939596 -0.0828265
v -0.049481 -0.0124684 -0.0770971
v -0.050568 -0.015461 -0.0690747
v -0.05354 -0.022674 -0.051461
v -0.077631 -0.0491997 -0.0523898
v -0.071929 -0.0417932 -0.0479587
v -0.064275 -0.0316174 -0.0444828
v -0.056027 -0.022465 -0.0451411
v -0.08961 -0.0601818 -0.0575541
v -0.085233 -0.0559173 -0.0544075
v -0.081212 -0.0467026 -0.0497568
v -0.092692 -0.0637353 -0.0618293
v -0.097498 -0.0697438 -0.0688375
v -0.078646 -0.0543233 -0.0669478
v -0.08737 -0.0637656 -0.0572752
v -0.092514 -0.0727431 -0.0466141
v -0.096748 -0.0702408 -0.0586981
v -0.075262 -0.0397043 -0.0907994
v -0.068665 -0.0246248 -0.10774
v -0.059875 -0.0153329 -0.101636
v -0.048172 -0.00858184 -0.100258
v -0.048621 -0.0108087 -0.0975214
v -0.048405 0.00361881 -0.0894109
v -0.043896 0.00267753 -0.0922682
v -0.04612 0.00334695 -0.0917367
v -0.044281 -0.000554214 -0.0919456
v -0.042958 -0.0039144 -0.0909169
v -0.047176 0.00215443 -0.0848617
v -0.045948 -0.00085933 -0.0833003
v -0.04453 -0.00608479 -0.0813672
v -0.044678 -0.00855469 -0.0787212
v -0.045943 -0.011633 -0.0728238
v -0.047319 -0.0142532 -0.0667827
v -0.049336 -0.0173726 -0.0534742
v -0.051046 -0.0174453 -0.0456051
v -0.076204 -0.0388468 -0.0461991
v -0.069479 -0.0294407 -0.0410096
v -0.063393 -0.0198226 -0.0359362
v -0.056489 -0.0139485 -0.0358109
v -0.090866 -0.0579114 -0.0544789
v -0.08686 -0.0529397 -0.0536359
v -0.086288 -0.0399208 -0.0512362
v -0.083624 -0.0313217 -0.0485971
v -0.093745 -0.0623917 -0.0573573
v -0.073563 -0.0471998 -0.0638304
v -0.078991 -0.0555464 -0.0531638
v -0.082874 -0.0655155 -0.0445558
v -0.094096 -0.071549 -0.048908
v -0.08766 -0.0716612 -0.0341099
v -0.090302 -0.071445 -0.0364321
v -0.092121 -0.0704961 -0.0415279
v -0.095544 -0.0706926 -0.0534207
v -0.096146 -0.0704667 -0.0560599
v -0.09495 -0.0616414 -0.0545329
v -0.069932 -0.0332245 -0.0859866
v -0.061504 -0.0178071 -0.0968079
v -0.05143 -0.0125259 -0.0915621
v -0.040669 -0.00773257 -0.0898729
v -0.041804 -0.00962579 -0.0876374
v -0.045816 0.00402131 -0.0862702
v -0.041532 0.00310537 -0.0899535
v -0.04332 0.00384581 -0.0881461
v -0.041846 3.51738e-005 -0.0889471
v -0.040383 -0.00338521 -0.0881693
v -0.043259 0.00340492 -0.0804767
v -0.043499 -0.000392642 -0.0799247
v -0.04168 -0.0053057 -0.0774888
v -0.041345 -0.00730702 -0.0753672
v -0.042968 -0.0103028 -0.0700568
v -0.043116 -0.0121148 -0.0638414
v -0.045282 -0.0134042 -0.0542023
v -0.047347 -0.0124928 -0.0474871
v -0.050392 -0.0088351 -0.039048
v -0.076888 -0.023947 -0.0414849
v -0.068855 -0.0166319 -0.0325598
v -0.059759 -0.0114229 -0.0312929
v -0.052306 -0.0056939 -0.0325195
v -0.092946 -0.056528 -0.052686
v -0.088486 -0.0499621 -0.0528652
v -0.088137 -0.0397272 -0.0517074
v -0.084196 -0.0305543 -0.0481277
v -0.078564 -0.0231601 -0.0403086
v -0.067908 -0.0398405 -0.0621433
v -0.072421 -0.0489252 -0.0517481
v -0.074147 -0.0565204 -0.043178
v -0.077658 -0.0670867 -0.0334986
v -0.092222 -0.062822 -0.050189
v -0.088684 -0.0647893 -0.0454944
v -0.088493 -0.0704888 -0.0311799
v -0.079808 -0.0701329 -0.0199542
v -0.086263 -0.0657237 -0.0410507
v -0.084612 -0.0659871 -0.0365795
v -0.093498 -0.0623765 -0.0520933
v -0.092013 -0.0559834 -0.0519434
v -0.062157 -0.0252557 -0.0787539
v -0.05363 -0.0137331 -0.0867381
v -0.043897 -0.0103932 -0.0818477
v -0.037875 -0.0067231 -0.0867767
v -0.037931 -0.00864153 -0.0835541
v -0.043387 0.00461669 -0.0832777
v -0.039285 0.00399334 -0.0874862
v -0.040956 0.00427366 -0.0858314
v -0.039417 0.000631557 -0.0859545
v -0.038109 -0.00261694 -0.0853159
v -0.040889 0.00434538 -0.0786485
v -0.040676 0.00050714 -0.0764314
v -0.038471 -0.00410554 -0.0735117
v -0.038801 -0.00627886 -0.071405
v -0.039262 -0.00863403 -0.0665971
v -0.040402 -0.0106466 -0.0622895
v -0.042204 -0.0112718 -0.054995
v -0.043633 -0.00945143 -0.0495205
v -0.046645 -0.00577906 -0.0427724
v -0.047625 -0.00159365 -0.0359737
v -0.070219 -0.0158165 -0.0295004
v -0.063272 -0.00899833 -0.0255218
v -0.054607 -0.0033687 -0.0259983
v -0.047308 0.00188937 -0.0309365
v -0.089993 -0.0483268 -0.0525065
v -0.088376 -0.0405679 -0.0475207
v -0.085248 -0.032518 -0.0427461
v -0.07995 -0.0250336 -0.0372071
v -0.069381 -0.0183594 -0.0269294
v -0.066572 -0.0417301 -0.0516068
v -0.061752 -0.031095 -0.0615453
v -0.069409 -0.0510972 -0.0428763
v -0.068597 -0.0601184 -0.0344421
v -0.071687 -0.0665219 -0.021221
v -0.090845 -0.0573683 -0.0505303
v -0.086851 -0.0587502 -0.0467322
v -0.082823 -0.0602569 -0.042557
v -0.079206 -0.068958 -0.0175251
v -0.084827 -0.069846 -0.0250704
v -0.076151 -0.0697466 -0.0158225
v -0.081143 -0.0654246 -0.0309149
v -0.08062 -0.0606544 -0.0394267
v -0.078586 -0.060881 -0.0364435
v -0.089807 -0.0488644 -0.0495071
v -0.054812 -0.0186518 -0.0738072
v -0.046441 -0.0116285 -0.0772208
v -0.040396 -0.00933139 -0.0783436
v -0.035797 -0.00666749 -0.0834957
v -0.035993 -0.00852173 -0.0800382
v -0.039804 0.00595737 -0.0811718
v -0.036221 0.0044795 -0.0847696
v -0.038731 0.00528131 -0.0837592
v -0.037544 0.00108743 -0.0836049
v -0.035848 -0.00185067 -0.0824716
v -0.038131 0.00457699 -0.0753597
v -0.037455 0.0016973 -0.0724584
v -0.036279 -0.00311354 -0.0697485
v -0.036033 -0.00527505 -0.0666158
v -0.036467 -0.00710895 -0.0639784
v -0.037138 -0.00904686 -0.0600958
v -0.039451 -0.00851109 -0.0541112
v -0.041041 -0.00651185 -0.0487828
v -0.04208 -0.00414805 -0.0452677
v -0.042894 0.00165591 -0.0377933
v -0.043218 0.00395533 -0.0334982
v -0.063474 -0.00984633 -0.0230172
v -0.056278 -0.000630113 -0.0202355
v -0.047201 0.00477141 -0.0258588
v -0.042458 0.00634988 -0.0302901
v -0.086458 -0.0416142 -0.0454159
v -0.08371 -0.0350137 -0.0397851
v -0.078336 -0.0282516 -0.0346745
v -0.06839 -0.0193846 -0.0270846
v -0.062635 -0.0108664 -0.0218994
v -0.060976 -0.0349066 -0.0521862
v -0.064293 -0.0451365 -0.0445271
v -0.055721 -0.0247101 -0.0603873
v -0.062296 -0.0554153 -0.0367599
v -0.062935 -0.0614953 -0.024208
v -0.065302 -0.0641362 -0.0115759
v -0.088858 -0.050231 -0.048914
v -0.085592 -0.0528464 -0.0469319
v -0.081602 -0.0550076 -0.0446292
v -0.074974 -0.0644191 -0.0227257
v -0.067853 -0.0620888 -0.0122896
v -0.076572 -0.067254 -0.0150515
v -0.070816 -0.0609483 -0.0280255
v -0.078902 -0.0549355 -0.0420163
v -0.065388 -0.0579273 -0.0317449
v -0.083491 -0.0429723 -0.0442938
v -0.048003 -0.0152034 -0.0683009
v -0.0427 -0.0106997 -0.0725155
v -0.037799 -0.00892088 -0.0752009
v -0.032844 -0.00674244 -0.0796707
v -0.033607 -0.00821258 -0.0773285
v -0.037235 0.00648956 -0.0784142
v -0.034471 0.00590211 -0.0827457
v -0.035532 0.0062089 -0.081757
v -0.034166 0.00261634 -0.0799541
v -0.03266 -0.000536805 -0.0788736
v -0.034335 0.00590233 -0.0724237
v -0.033519 0.00245883 -0.069284
v -0.032071 -0.000197005 -0.0653109
v -0.03263 -0.00207741 -0.0620504
v -0.033218 -0.00372542 -0.0595551
v -0.03315 -0.00431155 -0.0559406
v -0.033027 -0.00462643 -0.0520313
v -0.035007 -0.00433308 -0.0478236
v -0.035539 -0.00340482 -0.0449823
v -0.038315 0.000360556 -0.0394893
v -0.038163 0.00274464 -0.0356192
v -0.037043 0.00377085 -0.032841
v -0.054875 -0.00675211 -0.0177156
v -0.054484 0.00157835 -0.0184013
v -0.046899 0.00670404 -0.0238183
v -0.052419 -0.00297014 -0.0152466
v -0.041423 0.00784086 -0.0290613
v -0.081444 -0.0364151 -0.039069
v -0.076189 -0.0297176 -0.0333393
v -0.067399 -0.0204107 -0.0272388
v -0.060447 -0.0123137 -0.0222392
v -0.052397 -0.00836464 -0.0246633
v -0.059069 -0.0377168 -0.046177
v -0.055418 -0.0283573 -0.0530624
v -0.058161 -0.0493835 -0.0383427
v -0.048558 -0.0194746 -0.0585735
v -0.054645 -0.0567879 -0.0275278
v -0.052373 -0.0535552 -0.0291654
v -0.058217 -0.0585813 -0.0153664
v -0.080017 -0.0452513 -0.044322
v -0.07655 -0.0475233 -0.0443572
v -0.073012 -0.0501484 -0.0432311
v -0.059326 -0.0570368 -0.0161036
v -0.053462 -0.0539753 -0.020416
v -0.061473 -0.0550449 -0.0350002
v -0.050765 -0.0517522 -0.0240588
v -0.075609 -0.0386831 -0.0428122
v -0.043506 -0.0128015 -0.0659278
v -0.039263 -0.0097915 -0.0696932
v -0.03502 -0.00830334 -0.0720054
v -0.030029 -0.00534605 -0.0766678
v -0.029691 -0.00746071 -0.0724711
v -0.033286 0.00825932 -0.0762086
v -0.029865 0.00694434 -0.0799476
v -0.031863 0.00760342 -0.0785931
v -0.028122 0.00354882 -0.0755828
v -0.02723 0.000891821 -0.0743197
v -0.030445 0.00715116 -0.0663607
v -0.029577 0.00437382 -0.0630235
v -0.029675 0.00218415 -0.0600878
v -0.030082 0.000228561 -0.0570642
v -0.029997 -0.000734829 -0.0550424
v -0.030198 -0.00158283 -0.0525368
v -0.030699 -0.00217277 -0.0499463
v -0.031061 -0.0028269 -0.0475898
v -0.03214 -0.00214284 -0.0450083
v -0.033545 -0.000204132 -0.0416089
v -0.033583 0.00196391 -0.0377926
v -0.032071 0.00112281 -0.0366589
v -0.037706 0.00566284 -0.0303435
v -0.031673 -0.00177073 -0.0373326
v -0.035165 0.00103979 -0.0316548
v -0.034675 0.00345404 -0.0275778
v -0.045547 -0.00583302 -0.0263914
v -0.046901 -0.00308493 -0.0187495
v -0.044632 -0.00129542 -0.016853
v -0.04656 0.0107312 -0.0148315
v -0.040661 0.00151711 -0.0111712
v -0.044975 0.0114153 -0.0185091
v -0.038561 0.00181941 -0.0120435
v -0.03855 0.0145038 -0.0240576
v -0.068419 -0.0312653 -0.0405611
v -0.059605 -0.0230116 -0.0396267
v -0.053576 -0.0193069 -0.0401116
v -0.046323 -0.0139073 -0.0393249
v -0.040573 -0.0105779 -0.0388516
v -0.054431 -0.0317231 -0.0477988
v -0.053355 -0.0432599 -0.0412466
v -0.048961 -0.0221689 -0.0526174
v -0.04685 -0.0495399 -0.0312016
v -0.044103 -0.0163368 -0.057464
v -0.052831 -0.0543023 -0.0204918
v -0.050318 -0.0525661 -0.0239052
v -0.071013 -0.041375 -0.0451361
v -0.067407 -0.0442258 -0.0449278
v -0.055285 -0.0485988 -0.0361573
v -0.045525 -0.0479057 -0.0284679
v -0.044809 -0.0492539 -0.0287048
v -0.065085 -0.034137 -0.0439238
v -0.039902 -0.0115755 -0.0634418
v -0.035336 -0.00892628 -0.0669019
v -0.030582 -0.00757984 -0.06887
v -0.025697 -0.00338625 -0.0718933
v -0.024283 -0.00541377 -0.0687847
v -0.028596 0.0101206 -0.0708441
v -0.024069 0.00930167 -0.0757664
v -0.026492 0.0106569 -0.0741715
v -0.023761 0.00677332 -0.0736984
v -0.023452 0.00424497 -0.0716294
v -0.027245 0.0102545 -0.0622272
v -0.027373 0.00715624 -0.0587237
v -0.026485 0.00489352 -0.0558649
v -0.026246 0.00374224 -0.053699
v -0.026329 0.00244412 -0.051335
v -0.026091 0.00140554 -0.0495511
v -0.026524 0.000589876 -0.0478785
v -0.027375 0.000478401 -0.0459634
v -0.027526 0.000928858 -0.0441338
v -0.028222 0.00114512 -0.0425529
v -0.028827 0.00189784 -0.0403915
v -0.027018 0.00169555 -0.0382354
v -0.025634 0.000529386 -0.0384464
v -0.036003 0.0116772 -0.0248383
v -0.024369 -0.000687292 -0.0380425
v -0.029504 -0.0039982 -0.0391748
v -0.035807 -0.00282311 -0.0340408
v -0.040116 -0.0018833 -0.0242365
v -0.038376 0.00044419 -0.0211104
v -0.032241 0.00800855 -0.0219214
v -0.040633 -0.00417685 -0.0286987
v -0.037404 -0.00891234 -0.0381039
v -0.033299 0.0042524 -0.0170854
v -0.038479 0.0227489 -0.0139991
v -0.02951 0.00588118 -0.00605369
v -0.027534 0.00483718 -0.00731485
v -0.038467 0.0233768 -0.0165426
v -0.025408 0.00677569 -0.0116994
v -0.032148 0.0202916 -0.0218282
v -0.055362 -0.0261158 -0.0437402
v -0.049325 -0.0218996 -0.0447116
v -0.042525 -0.0179861 -0.0441207
v -0.037809 -0.0139681 -0.0427609
v -0.034199 -0.0126097 -0.042338
v -0.04885 -0.039005 -0.041432
v -0.048059 -0.0250589 -0.0488921
v -0.04424 -0.0185341 -0.0528423
v -0.041698 -0.0450844 -0.0331141
v -0.040562 -0.0142491 -0.0566097
v -0.060308 -0.0381397 -0.0447576
v -0.049162 -0.0428249 -0.0375039
v -0.041117 -0.0437948 -0.0310661
v -0.040335 -0.0449754 -0.0306242
v -0.050703 -0.0296524 -0.0444364
v -0.035204 -0.0103631 -0.0616448
v -0.030955 -0.00836332 -0.0644434
v -0.024463 -0.00688009 -0.0654115
v -0.022281 0.0014576 -0.0708362
v -0.020915 -0.00213497 -0.0690333
v -0.025601 0.0121183 -0.0661927
v -0.018018 0.00629256 -0.069622
v -0.019568 0.00916347 -0.0710003
v -0.022438 0.0113326 -0.06956
v -0.02445 0.0134406 -0.0569997
v -0.024761 0.0101354 -0.0535491
v -0.024675 0.00917097 -0.0515263
v -0.024487 0.00734955 -0.0495419
v -0.024496 0.0058227 -0.0481067
v -0.024271 0.00479412 -0.0463178
v -0.024858 0.00415034 -0.0447853
v -0.025123 0.00416802 -0.0439263
v -0.02503 0.00421487 -0.0428624
v -0.025413 0.00417906 -0.0413743
v -0.025539 0.00361693 -0.0402739
v -0.023364 0.00384074 -0.0380021
v -0.023116 0.00241589 -0.0378119
v -0.0221 0.00160483 -0.0366333
v -0.029947 0.0167002 -0.0198643
v -0.022958 -0.00247578 -0.037395
v -0.021583 0.000941488 -0.0358068
v -0.027263 -0.00657874 -0.0398578
v -0.033933 -0.00647159 -0.0384099
v -0.025974 0.0131319 -0.0165125
v -0.031047 -0.00954862 -0.0409624
v -0.035546 0.0276287 -0.012905
v -0.024085 0.00753485 -0.003956
v -0.02207 0.00497965 -0.00546497
v -0.020866 0.00766537 -0.00958311
v -0.034612 0.0285347 -0.0166957
v -0.022251 0.0139087 -0.0141691
v -0.029561 0.0231099 -0.0190174
v -0.045281 -0.0254606 -0.0447327
v -0.039794 -0.0210943 -0.0443652
v -0.034443 -0.0171865 -0.0432813
v -0.030936 -0.0154897 -0.0423277
v -0.027315 -0.0128566 -0.0408908
v -0.043481 -0.0321671 -0.0428494
v -0.043193 -0.0225095 -0.0483971
v -0.040392 -0.0166925 -0.0520877
v -0.036441 -0.0381696 -0.0359636
v -0.03539 -0.012964 -0.0552487
v -0.042213 -0.0351467 -0.038533
v -0.03552 -0.0377534 -0.0331499
v -0.035052 -0.038681 -0.0326152
v -0.040075 -0.0297407 -0.0397773
v -0.030986 -0.0106355 -0.0583806
v -0.024439 -0.00825306 -0.0616064
v -0.020616 -0.00441052 -0.0672085
v -0.016731 0.00265915 -0.0688901
v -0.015392 -0.000812728 -0.0674734
v -0.022351 0.0155018 -0.0617704
v -0.013346 0.00850657 -0.0671068
v -0.015133 0.0107699 -0.0667526
v -0.018214 0.0128526 -0.0657502
v -0.018624 0.0175565 -0.058404
v -0.020451 0.0177897 -0.0544382
v -0.02226 0.015357 -0.0476862
v -0.022321 0.0144598 -0.0454195
v -0.022126 0.0136546 -0.0444099
v -0.02228 0.012195 -0.0427307
v -0.021727 0.0113063 -0.041134
v -0.021909 0.0105946 -0.0406985
v -0.021582 0.00971621 -0.0399258
v -0.021399 0.00892002 -0.0389121
v -0.019122 0.00828978 -0.0366946
v -0.018423 0.00681525 -0.0348504
v -0.026913 0.0187046 -0.0168979
v -0.021623 -0.00454914 -0.0353424
v -0.020787 -0.000865471 -0.0344993
v -0.024048 -0.0093467 -0.0385486
v -0.021676 -0.0123448 -0.0349382
v -0.030977 0.0306958 -0.0103364
v -0.015969 0.00607267 -0.000417836
v -0.014784 0.00363669 -0.0041609
v -0.014166 0.00619325 -0.00722393
v -0.017877 0.0154819 -0.0126763
v -0.029397 0.030102 -0.015036
v -0.021381 0.0197788 -0.0128708
v -0.024659 0.0255881 -0.0136954
v -0.034003 -0.0262685 -0.0394871
v -0.029561 -0.0220046 -0.0397165
v -0.026882 -0.020296 -0.0389368
v -0.024162 -0.0165317 -0.0373268
v -0.018157 -0.0161105 -0.0307822
v -0.039104 -0.0280608 -0.0437457
v -0.038957 -0.0193533 -0.0481076
v -0.034891 -0.0147569 -0.0513803
v -0.034416 -0.0326958 -0.038653
v -0.030759 -0.0124197 -0.0536551
v -0.033866 -0.032188 -0.0364214
v -0.033975 -0.0341456 -0.0359478
v -0.031526 -0.0270799 -0.0388214
v -0.023505 -0.0104846 -0.0560007
v -0.019831 -0.00633582 -0.063819
v -0.014064 -0.0028951 -0.0654227
v -0.009453 0.00373493 -0.067907
v -0.00693 0.000789958 -0.0666137
v -0.009078 0.0101546 -0.0670561
v -0.010829 0.0121935 -0.0659327
v -0.014535 0.0151427 -0.0631491
v -0.01753 0.0179222 -0.0575163
v -0.019364 0.0181484 -0.0535525
v -0.020345 0.0168498 -0.0479754
v -0.020722 0.0151764 -0.0446621
v -0.020884 0.0138365 -0.04337
v -0.020653 0.0133045 -0.0420636
v -0.020631 0.0126862 -0.0411961
v -0.020143 0.0116289 -0.0402783
v -0.019708 0.0106867 -0.0380525
v -0.018822 0.00984873 -0.0367629
v -0.019162 0.0103725 -0.0357413
v -0.016868 0.00574077 -0.0329426
v -0.018035 0.00922651 -0.0345324
v -0.017196 0.0084798 -0.0341658
v -0.019845 -0.00768144 -0.0306929
v -0.017321 -0.00349789 -0.0300002
v -0.015204 0.00482548 -0.0320469
v -0.014415 -0.0107326 -0.0283205
v -0.025231 0.0309734 -0.00698367
v -0.004066 0.00386382 0.00354292
v -0.000851 0.000438021 0.00128265
v -0.001021 0.00288541 -0.0032543
v -0.010221 0.017759 -0.0100921
v -0.017367 0.0227203 -0.0109481
v -0.026694 0.0309373 -0.0109236
v -0.023291 0.0279931 -0.0111483
v -0.028991 -0.0242899 -0.0387477
v -0.0241 -0.02338 -0.0364284
v -0.021093 -0.0207503 -0.0343365
v -0.014744 -0.0198014 -0.0280672
v -0.008036 -0.0142597 -0.0259367
v -0.035379 -0.0247479 -0.0438043
v -0.033198 -0.0179281 -0.0477907
v -0.030177 -0.0144374 -0.0506975
v -0.032882 -0.0271959 -0.0413054
v -0.023194 -0.0124776 -0.0521901
v -0.031655 -0.0284092 -0.0392044
v -0.027834 -0.0259463 -0.0393084
v -0.019558 -0.00861802 -0.0603002
v -0.013329 -0.00559925 -0.0618486
v -0.006086 -0.001756 -0.0640526
v -0.005055 0.00620866 -0.066984
v -0.002528 0.00224245 -0.0647348
v -0.009359 0.0137455 -0.06344
v -0.006358 0.0111162 -0.0650249
v -0.012142 0.0159645 -0.0609257
v -0.00302 0.00750488 -0.065455
v -0.001046 0.00341918 -0.0638247
v 0.001098 -0.00260631 -0.0581619
v -6.2e-005 0.00131264 -0.0619871
v 0.001004 -0.00351317 -0.0542182
v 0.000766 -0.00448218 -0.0479524
v -0.000217 -0.00464816 -0.0454153
v -0.000944 -0.00470026 -0.0430223
v -0.000196 -0.00562686 -0.0400145
v -0.014611 0.00674708 -0.0325574
v 0.000658 -0.0056012 -0.0354126
v -0.011226 -0.00637799 -0.0276139
v -0.011834 0.00136703 -0.0301071
v -0.010627 0.00279348 -0.0308002
v -0.003519 -0.0102136 -0.0270819
v -0.023037 0.0313236 -0.00679194
v 0.00149 0.00737642 0.00554313
v 0.005971 0.00323356 0.00321343
v 0.008266 0.00207183 -0.00021765
v -0.008358 0.0191157 -0.00662422
v -0.013645 0.0252966 -0.00806515
v -0.021184 0.0289463 -0.00844605
v -0.022206 -0.0262218 -0.0348531
v -0.018947 -0.0237391 -0.0315481
v -0.016903 -0.0263745 -0.028234
v -0.012759 -0.0220926 -0.0259164
v -0.005709 -0.017289 -0.0250732
v -0.001872 -0.0147157 -0.0272533
v -0.030212 -0.0224416 -0.0433981
v -0.027989 -0.0176535 -0.04715
v -0.021473 -0.0142515 -0.0496537
v -0.029374 -0.0244809 -0.0413155
v -0.018469 -0.0105218 -0.0550276
v -0.019574 -0.0306706 -0.0371796
v -0.012502 -0.00725232 -0.0581722
v -0.00484 -0.00461688 -0.0601303
v -0.000891 -7.49837e-005 -0.062772
v 1.9e-005 -0.00522853 -0.0546709
v 0.000236 -0.00298537 -0.0582356
v -0.00015 -0.00642328 -0.0493229
v -0.001413 -0.00646088 -0.0463169
v -0.001963 -0.00681543 -0.0444916
v -0.001281 -0.0078977 -0.0410587
v 0.00023 -0.00860056 -0.0358642
v -8.6e-005 -0.00578853 -0.0320564
v -0.007381 -0.00199629 -0.0292524
v -0.00654 -0.000998925 -0.0300462
v 0.000326 -0.00828914 -0.0328294
v -0.00038 -0.00666838 -0.0306177
v -0.002007 -0.0112384 -0.0344321
v -0.012035 0.0269386 -0.00174945
v 0.002641 0.0146399 0.00491834
v 0.008996 0.0109639 0.00495027
v 0.011773 0.0121829 0.0011513
v 2.4e-005 0.0203152 -0.00230218
v -0.009496 0.0258769 -0.00643461
v -0.012631 0.0280597 -0.00412034
v -0.018117 -0.0329305 -0.0332968
v -0.019753 -0.0299602 -0.0316762
v -0.015522 -0.0289163 -0.022961
v -0.0196 -0.0315117 -0.0260379
v -0.007868 -0.0227046 -0.0221439
v 0.000317 -0.0184365 -0.0232173
v 0.002791 -0.0161942 -0.0254221
v 1.3e-005 -0.0157926 -0.0295824
v -0.025023 -0.0215337 -0.0436289
v -0.02049 -0.0173773 -0.0468502
v -0.01751 -0.012635 -0.051497
v -0.011685 -0.00901875 -0.0524278
v -0.018079 -0.0218866 -0.0434876
v -0.011584 -0.0322208 -0.0374564
v -0.006867 -0.0321413 -0.0343134
v -0.004809 -0.00598185 -0.0563233
v -0.00535 -0.00759768 -0.051082
v -0.005684 -0.0083735 -0.0483403
v -0.004508 -0.00972283 -0.0424823
v -0.005433 -0.00823795 -0.0451495
v -0.002819 -0.0114965 -0.0382589
v -0.004568 -0.0173733 -0.0380232
v -0.002297 -0.0202996 -0.0358628
v 0.008533 0.0186418 0.00221416
v -0.006255 0.0272309 -8.76833e-005
v -0.006167 0.0263454 -0.00457698
v 0.008319 0.0182818 -0.000207557
v -0.016789 -0.0343551 -0.0276777
v -0.003195 -0.0331626 -0.0308206
v -0.009262 -0.0295655 -0.0207535
v -0.009958 -0.0323062 -0.0228083
v -0.007928 -0.0339698 -0.024889
v -0.002515 -0.0227304 -0.0192929
v 0.005273 -0.0195338 -0.0223515
v 0.008115 -0.0166444 -0.0269058
v 0.003261 -0.0185609 -0.0299612
v -0.016446 -0.0141851 -0.0490647
v -0.011768 -0.0103169 -0.0500648
v -0.014957 -0.0169449 -0.0463955
v -0.012665 -0.0210042 -0.0428913
v -0.008968 -0.0258446 -0.0396904
v -0.003276 -0.027125 -0.0376484
v 0.002031 -0.0276865 -0.037056
v -0.010589 -0.0114342 -0.0466619
v -0.006006 -0.0162453 -0.0405611
v -0.008561 -0.0134542 -0.0442243
v 0.002339 -0.0229522 -0.0354457
v 0.002726 -0.033216 -0.0313716
v 0.007681 -0.0272157 -0.0372273
v 0.000636 -0.0278316 -0.0207808
v -0.000104 -0.031359 -0.022645
v 0.004622 -0.0333684 -0.0281424
v 0.009688 -0.0311435 -0.0332442
v 0.003967 -0.0243234 -0.0218136
v 0.010465 -0.0195249 -0.0236905
v 0.013104 -0.0172275 -0.0282043
v 0.00826 -0.0193909 -0.0287926
v 0.007393 -0.0246675 -0.0370784
v 0.011351 -0.026479 -0.0376329
v 0.010727 -0.0240787 -0.0372938
v 0.00762 -0.0261543 -0.0242512
v 0.007101 -0.0286859 -0.0262442
v 0.009094 -0.0306228 -0.0286206
v 0.012706 -0.0296853 -0.0342354
v 0.014187 -0.0252278 -0.0386769
v 0.011214 -0.0228859 -0.0236768
v 0.016059 -0.0186989 -0.0250141
v 0.011697 -0.0191405 -0.0295388
v 0.016165 -0.015498 -0.0289087
v 0.013454 -0.0224821 -0.0378121
v 0.014193 -0.0182978 -0.0323794
v 0.020465 -0.0226091 -0.026431
v 0.020831 -0.0261601 -0.0289862
v 0.020787 -0.0281034 -0.0318916
v 0.023354 -0.0282716 -0.0371405
v 0.022221 -0.0221703 -0.0405284
v 0.020713 -0.0187506 -0.0396271
v 0.021076 -0.0194037 -0.0259266
v 0.021622 -0.0158512 -0.0265764
v 0.021554 -0.0124624 -0.0306131
v 0.020177 -0.0159202 -0.0366393
v 0.028106 -0.0193563 -0.0292566
v 0.027572 -0.0222798 -0.0311503
v 0.026902 -0.0273178 -0.0349493
v 0.02759 -0.0257732 -0.0404195
v 0.024933 -0.0209656 -0.0409483
v 0.023841 -0.0181374 -0.0406706
v 0.023511 -0.0164888 -0.0399499
v 0.02725 -0.0174433 -0.0292581
v 0.026276 -0.0145606 -0.0296104
v 0.025438 -0.0125212 -0.031692
v 0.030846 -0.0184166 -0.0333363
v 0.03079 -0.0204882 -0.0341707
v 0.031146 -0.0226348 -0.036096
v 0.029904 -0.021675 -0.0401658
v 0.02809 -0.0182878 -0.0411585
v 0.028124 -0.0160964 -0.0407192
v 0.028274 -0.0148858 -0.0399402
v 0.029992 -0.0134629 -0.0362293
v 0.030831 -0.0165044 -0.0331859
v 0.03081 -0.0148679 -0.0350182
v 0.03143 -0.0165285 -0.0382909
v 0.031586 -0.0185038 -0.0386763
v 0.030428 -0.0190241 -0.0402459
v 0.030687 -0.0158548 -0.0399414
# 770 verticies
vn -0.52788 -0.676888 0.512997
vn -0.751679 -0.59816 -0.277819
vn -0.131646 -0.93976 0.31547
vn 0.337532 -0.500055 0.797507
vn -0.934271 -0.218379 -0.281867
vn -0.977852 -0.032939 -0.206691
vn -0.799032 -0.470113 0.374889
vn 0.49302 -0.28407 0.822335
vn 0.396871 -0.298344 0.868035
vn -0.866124 -0.340678 -0.365742
vn 0.640151 -0.549606 0.536787
vn 0.56393 -0.797215 -0.215479
vn -0.57614 -0.633147 -0.516902
vn 0.920794 -0.03801 0.388193
vn 0.931687 -0.226284 0.284175
vn -0.908765 -0.132056 -0.395863
vn -0.980644 0.097481 -0.169807
vn -0.965757 0.114594 -0.232771
vn -0.94055 -0.029325 -0.338388
vn -0.936778 -0.327813 0.12242
vn 0.323869 -0.265933 0.907958
vn 0.88237 0.085071 0.462802
vn 0.85331 0.131975 0.504425
vn -0.78704 -0.239344 -0.568579
vn 0.777739 -0.304463 -0.549931
vn -0.385408 -0.399543 -0.831761
vn 0.972033 0.049246 0.229625
vn 0.958656 0.05465 0.27927
vn -0.92791 -0.084971 -0.362992
vn -0.986982 0.106058 -0.120904
vn -0.981663 0.165178 -0.095155
vn -0.899158 -0.04661 -0.435134
vn -0.920467 0.007526 -0.390747
vn -0.883092 -0.085086 -0.46142
vn -0.940104 -0.192879 -0.281073
vn -0.973475 -0.219007 0.0662
vn 0.156865 -0.248836 0.955758
vn 0.847512 0.135188 0.513272
vn 0.948844 0.04051 0.313137
vn 0.900167 0.102006 0.423432
vn -0.735515 -0.223485 -0.639587
vn 0.760892 -0.163365 -0.627977
vn -0.212525 -0.260774 -0.941716
vn 0.997529 -0.070092 -0.004749
vn 0.971635 -0.077497 0.223428
vn -0.962023 0.102773 -0.252881
vn -0.964303 0.256911 -0.064159
vn -0.954765 0.262421 -0.139856
vn -0.897186 0.122014 -0.424464
vn -0.86682 -0.054569 -0.495627
vn -0.854949 -0.003528 -0.518701
vn -0.814282 0.082556 -0.574569
vn -0.891707 -0.074091 -0.446508
vn -0.845186 0.008186 -0.53441
vn -0.99504 -0.09573 0.027056
vn 0.048169 -0.153139 0.98703
vn 0.870783 0.059208 0.488089
vn 0.863498 0.128955 0.487588
vn 0.929879 -0.027812 0.366812
vn 0.879372 0.036449 0.474738
vn -0.778909 -0.09708 -0.619577
vn 0.583297 -0.31623 -0.748173
vn -0.199174 -0.29503 -0.934498
vn 0.831945 -0.30125 -0.465957
vn 0.976357 -0.214226 0.028881
vn -0.898938 0.327321 -0.291155
vn -0.901486 0.427255 -0.069109
vn -0.886006 0.420372 -0.195656
vn -0.81429 0.256836 -0.520545
vn -0.74596 0.168062 -0.644437
vn -0.877371 0.075913 -0.473769
vn -0.854868 0.121494 -0.50442
vn -0.80029 0.183565 -0.570823
vn -0.753543 0.217294 -0.620449
vn -0.781726 -0.025765 -0.62309
vn -0.772091 0.068698 -0.631788
vn -0.713597 0.00525 -0.700537
vn -0.895474 -0.022876 -0.444526
vn -0.995306 -0.071372 -0.065358
vn 0.232229 -0.013814 0.972563
vn 0.849777 -0.001584 0.52714
vn 0.889282 0.048828 0.454746
vn 0.840726 0.090428 0.533856
vn 0.931505 -0.158409 0.327422
vn 0.823561 -0.047893 0.565202
vn -0.701556 0.086612 -0.707331
vn 0.540352 -0.4612 -0.703785
vn 0.054013 -0.310249 -0.94912
vn 0.737851 -0.467561 -0.486788
vn 0.864483 -0.417953 -0.279258
vn -0.80489 0.441643 -0.396362
vn -0.830712 0.554053 -0.054245
vn -0.820659 0.545426 -0.170379
vn -0.706002 0.353905 -0.613443
vn -0.617126 0.221914 -0.754924
vn -0.672293 0.238303 -0.70088
vn -0.793721 0.079596 -0.603051
vn -0.760251 0.036103 -0.648625
vn -0.754617 -0.027718 -0.65558
vn -0.759858 -0.052456 -0.647969
vn -0.536309 -0.196713 -0.820778
vn -0.57888 -0.345988 -0.73837
vn -0.659497 -0.129976 -0.740385
vn -0.991239 -0.093932 0.092855
vn 0.74671 -0.049374 0.663314
vn -0.127761 -0.016719 0.991664
vn 0.87436 -0.07646 0.479216
vn 0.872395 0.015832 0.488545
vn 0.762695 0.039998 0.645521
vn 0.919264 -0.371251 0.130866
vn 0.709522 -0.167368 0.68452
vn -0.51651 0.167138 -0.839811
vn 0.57741 -0.525208 -0.625103
vn 0.108502 -0.253334 -0.961275
vn 0.809875 -0.554018 -0.192787
vn 0.836296 -0.496018 -0.233614
vn -0.731776 0.482429 -0.481421
vn -0.78402 0.615503 -0.080429
vn -0.807468 0.564737 -0.170491
vn -0.686852 0.372723 -0.623949
vn -0.519057 0.239861 -0.820394
vn -0.574181 0.209736 -0.791408
vn -0.744122 -0.02987 -0.667376
vn -0.49135 -0.526784 -0.693595
vn -0.436646 -0.608047 -0.663038
vn -0.561249 -0.567706 -0.602254
vn -0.654432 -0.465295 -0.596002
vn -0.344086 -0.539969 -0.768139
vn -0.124743 -0.807784 -0.576128
vn 0.073384 -0.911576 -0.404529
vn -0.576017 -0.290905 -0.763924
vn -0.978302 -0.0749 -0.193173
vn 0.796511 -0.106733 0.595128
vn 0.706461 -0.157087 0.690099
vn -0.241803 0.03419 0.969723
vn -0.928941 0.039971 0.368064
vn 0.853193 -0.142829 0.501659
vn 0.813997 -0.080406 0.575277
vn 0.591154 -0.087361 0.801814
vn 0.855139 -0.479434 0.197183
vn 0.541365 -0.237304 0.806605
vn -0.309973 0.14921 -0.938964
vn 0.599146 -0.58153 -0.550315
vn 0.134835 -0.215856 -0.967071
vn 0.793646 -0.608346 0.00642
vn 0.768302 -0.614064 -0.180659
vn -0.732021 0.524638 -0.434626
vn -0.796798 0.603803 -0.023111
vn -0.787084 0.56884 -0.23858
vn -0.67451 0.366528 -0.640853
vn -0.556222 0.245664 -0.793893
vn -0.526294 0.158106 -0.835474
vn -0.719922 -0.050812 -0.692193
vn -0.748791 -0.372437 -0.548272
vn 0.173506 -0.902736 -0.393653
vn -0.017488 -0.860112 -0.509806
vn -0.381225 -0.72772 -0.570168
vn -0.590965 -0.585686 -0.554737
vn -0.369592 -0.738138 -0.564407
vn -0.079794 -0.954756 -0.286487
vn 0.190252 -0.955405 -0.225843
vn 0.226161 -0.883203 -0.410857
vn -0.698618 -0.406717 -0.588655
vn 0.802551 -0.162872 0.573921
vn 0.738644 -0.231961 0.632929
vn 0.633542 -0.329505 0.700036
vn -0.93217 0.32113 0.167137
vn 0.109289 0.017406 0.993858
vn -0.920705 0.388508 0.036923
vn -0.897806 0.358736 -0.255447
vn -0.886661 0.460627 0.04069
vn -0.865226 0.477451 -0.153051
vn -0.948268 0.233878 -0.214682
vn 0.80478 -0.200998 0.558506
vn 0.686021 -0.164447 0.708754
vn 0.400889 -0.088228 0.911868
vn 0.770633 -0.580915 0.262035
vn 0.46418 -0.206362 0.861366
vn -0.340325 0.123587 -0.932151
vn 0.562822 -0.642364 -0.520192
vn 0.055132 -0.217182 -0.974573
vn 0.771247 -0.632831 0.068578
vn 0.716461 -0.66737 -0.203226
vn -0.699106 0.517694 -0.493197
vn -0.789208 0.612269 -0.047728
vn -0.81086 0.543681 -0.216605
vn -0.706012 0.377538 -0.599177
vn -0.570825 0.243283 -0.784201
vn -0.53352 0.104409 -0.839318
vn -0.633192 -0.158971 -0.757493
vn -0.756923 -0.381989 -0.530238
vn -0.752371 -0.466534 -0.465063
vn 0.140269 -0.75199 -0.644077
vn -0.2114 -0.673361 -0.708445
vn -0.44307 -0.630427 -0.637378
vn -0.67574 -0.475384 -0.563369
vn -0.794011 -0.408644 -0.450063
vn -0.324658 -0.913708 -0.244407
vn -0.625798 -0.709199 -0.324675
vn -0.521432 -0.576344 -0.629235
vn -0.478463 -0.285376 -0.830442
vn 0.794438 -0.204226 0.571979
vn 0.737991 -0.28503 0.611659
vn 0.647987 -0.464077 0.603941
vn 0.501344 -0.311576 0.807202
vn -0.767283 0.597296 -0.233481
vn -0.703108 0.533509 -0.470114
vn -0.85087 0.508107 0.133597
vn 0.138641 0.029116 0.989915
vn -0.647551 0.402639 -0.646962
vn -0.635811 0.285905 -0.71694
vn -0.83206 0.534058 -0.149863
vn -0.784258 0.605669 -0.13455
vn 0.756085 -0.221053 0.616012
vn 0.534971 -0.142005 0.832851
vn 0.31756 -0.039091 0.947432
vn 0.779834 -0.568608 0.26181
vn 0.453394 -0.210133 0.866186
vn -0.342833 0.071443 -0.936676
vn 0.530643 -0.692616 -0.488571
vn -0.080051 -0.26841 -0.959973
vn 0.765608 -0.636111 0.095956
vn 0.75768 -0.621891 -0.197919
vn -0.639691 0.485473 -0.595913
vn -0.785507 0.60209 -0.143059
vn -0.826896 0.507399 -0.242464
vn -0.74898 0.353004 -0.56073
vn -0.613436 0.252919 -0.74815
vn -0.535506 0.055639 -0.842697
vn -0.598609 -0.233295 -0.766317
vn -0.621498 -0.469399 -0.62722
vn -0.66508 -0.510524 -0.545008
vn -0.692708 -0.420395 -0.586023
vn -0.664423 -0.033251 -0.746617
vn -0.598829 -0.306245 -0.740012
vn -0.60396 -0.464161 -0.647909
vn -0.659681 -0.390029 -0.642416
vn -0.934643 -0.087759 -0.344588
vn -0.97257 0.200504 -0.117924
vn -0.906931 0.303552 -0.292118
vn -0.826163 0.453196 -0.334765
vn -0.710864 0.694939 -0.108314
vn 0.715556 -0.352583 0.603047
vn 0.754061 -0.252468 0.606343
vn 0.551213 -0.579664 0.600128
vn 0.468781 -0.487606 0.736535
vn 0.447736 -0.195418 0.87255
vn -0.693484 0.713566 -0.099516
vn -0.62977 0.75017 -0.201579
vn -0.622136 0.664833 -0.413453
vn -0.824155 0.556311 -0.106235
vn -0.668559 0.392745 -0.631491
vn -0.229207 0.633765 0.738787
vn -0.525933 0.295266 -0.797629
vn -0.672499 0.503925 -0.542038
vn -0.526822 0.461434 -0.713818
vn -0.78454 0.618219 -0.047988
vn 0.65811 -0.238254 0.714231
vn 0.451634 -0.154142 0.878787
vn 0.265667 -0.054368 0.962531
vn 0.780277 -0.544754 0.307264
vn 0.367316 -0.202221 0.907847
vn -0.31371 0.026409 -0.949152
vn 0.57484 -0.733728 -0.362218
vn -0.031098 -0.314612 -0.948711
vn 0.789936 -0.597103 0.139533
vn 0.741676 -0.658141 -0.129487
vn -0.596538 0.487268 -0.63774
vn -0.718708 0.603322 -0.345631
vn -0.831881 0.468472 -0.297503
vn -0.810381 0.299545 -0.503543
vn -0.748715 0.220477 -0.625152
vn -0.619804 0.043434 -0.783554
vn -0.458939 -0.282276 -0.842434
vn -0.401674 -0.466323 -0.788163
vn -0.300951 -0.599593 -0.741564
vn -0.301645 -0.537018 -0.787795
vn -0.294739 -0.475119 -0.82909
vn -0.73883 0.544456 -0.397112
vn -0.826273 0.084658 -0.556871
vn -0.646976 -0.430642 -0.629261
vn -0.413318 -0.533833 -0.737692
vn -0.710831 0.668022 0.220149
vn -0.695092 0.703245 0.14931
vn -0.644651 0.764269 0.017859
vn -0.355641 0.873054 0.33361
vn -0.241296 0.943476 0.22722
vn 0.683581 -0.405406 0.606929
vn 0.530082 -0.639701 0.556593
vn 0.663238 -0.310339 0.681032
vn 0.426189 -0.613703 0.664629
vn 0.465877 -0.208479 0.859939
vn 0.322665 0.678626 0.659814
vn -0.515034 0.855813 0.048209
vn -0.417256 0.899364 -0.130543
vn -0.480186 0.774886 -0.411064
vn -0.500086 0.221759 -0.837101
vn -0.332248 0.61648 -0.713837
vn -0.499408 0.864061 -0.063166
vn -0.421691 0.226583 -0.877973
vn -0.46677 0.6184 -0.632224
vn -0.383811 0.342133 -0.857691
vn -0.294585 0.88821 0.352566
vn 0.570079 -0.257226 0.780285
vn 0.403756 -0.157198 0.90126
vn 0.233832 -0.044195 0.971272
vn 0.729922 -0.563126 0.387432
vn 0.3917 -0.167828 0.904657
vn -0.358206 0.067732 -0.931183
vn 0.518611 -0.767504 -0.376803
vn -0.121046 -0.341947 -0.931891
vn 0.67271 -0.709383 0.210326
vn 0.679731 -0.733191 -0.019928
vn -0.702329 0.437186 -0.561785
vn -0.755104 0.525363 -0.392189
vn -0.816924 0.385264 -0.429193
vn -0.81324 0.234235 -0.532706
vn -0.790243 0.164147 -0.5904
vn -0.767164 0.092816 -0.634701
vn -0.608598 -0.089097 -0.788461
vn -0.323858 -0.325172 -0.88847
vn -0.204054 -0.510939 -0.835047
vn -0.071271 -0.560823 -0.824862
vn 0.085531 -0.349671 -0.93296
vn 0.495567 -0.329821 -0.803512
vn -0.011859 0.772323 0.635119
vn -0.745362 0.458335 -0.484111
vn -0.649258 -0.365011 -0.667256
vn -0.288046 0.828918 0.479505
vn -0.267569 -0.613137 -0.743283
vn -0.106614 0.807827 0.579698
vn -0.056984 0.843345 0.534343
vn 0.079559 0.795466 0.600753
vn 0.255615 0.798696 0.544744
vn 0.414533 0.556404 0.720123
vn 0.486353 -0.670982 0.559683
vn 0.643209 -0.41519 0.64335
vn 0.401489 -0.706737 0.58252
vn 0.611045 -0.301026 0.732125
vn 0.60156 -0.177685 0.778815
vn 0.591279 -0.322639 0.739117
vn 0.639154 0.726397 0.252645
vn -0.116823 0.977212 0.177228
vn -0.124735 0.98656 -0.10555
vn -0.310281 0.819936 -0.481072
vn -0.12309 0.559365 -0.819732
vn 0.008511 0.513632 -0.857969
vn -0.405517 0.537295 -0.739506
vn 0.041246 0.625874 -0.778833
vn 0.209571 0.869706 0.446869
vn 0.511416 -0.253588 0.821065
vn 0.351627 -0.150762 0.923921
vn 0.218008 -0.036279 0.975272
vn 0.734123 -0.567132 0.373397
vn 0.461815 -0.234096 0.855527
vn -0.397674 0.006 -0.917507
vn 0.4413 -0.856653 -0.267207
vn -0.108266 -0.33532 -0.935863
vn 0.607709 -0.731678 0.308766
vn 0.671797 -0.721685 0.166913
vn -0.795385 0.314 -0.518427
vn -0.866319 0.398809 -0.300736
vn -0.846503 0.312659 -0.430903
vn -0.815493 0.243156 -0.525211
vn -0.787122 0.24397 -0.566496
vn -0.690362 0.125169 -0.712554
vn -0.666366 0.029977 -0.745022
vn -0.541795 -0.183492 -0.820237
vn -0.363912 -0.429843 -0.826319
vn -0.239486 -0.519089 -0.820483
vn -0.011525 -0.114278 -0.993382
vn 0.374972 0.723424 -0.579701
vn 0.474482 -0.627336 -0.617508
vn 0.543647 0.824717 -0.155853
vn 0.956577 0.275123 0.096265
vn 0.951173 -0.288578 -0.109515
vn 0.417807 0.420334 0.805454
vn 0.431962 0.343936 0.833737
vn 0.39686 0.327635 0.857413
vn -0.77593 0.419623 -0.471008
vn -0.200248 0.845301 0.495346
vn -0.754073 -0.303443 -0.582491
vn 0.315338 0.071749 0.946263
vn -0.215909 -0.780699 -0.586424
vn 0.375455 0.728621 0.572839
vn 0.454749 0.648815 0.610117
vn 0.431863 0.597673 0.675486
vn 0.395225 0.618077 0.679542
vn 0.304897 0.600577 0.739152
vn 0.470681 -0.698482 0.539057
vn 0.355036 -0.772126 0.52704
vn 0.582798 -0.442109 0.681826
vn 0.447869 -0.479404 0.754709
vn 0.554631 -0.30574 0.773891
vn 0.798669 0.589242 0.122155
vn 0.809088 0.504381 0.301623
vn 0.094 0.988138 0.121441
vn -0.199461 0.919241 -0.339427
vn -0.413909 0.68205 -0.6029
vn -0.072142 0.807106 -0.585982
vn 0.755985 0.443487 0.481463
vn 0.190123 0.932517 0.307026
vn 0.418951 -0.262656 0.86919
vn 0.280677 -0.184 0.942
vn 0.240602 -0.122505 0.962862
vn 0.669678 -0.667784 0.324955
vn 0.531352 -0.490758 0.690522
vn -0.505657 -0.011677 -0.862655
vn 0.7132 -0.673298 -0.194974
vn -0.089326 -0.327309 -0.940686
vn 0.781305 -0.555574 0.284429
vn 0.67074 -0.704624 0.231546
vn -0.820719 0.181908 -0.5416
vn -0.912449 0.323623 -0.25041
vn -0.916791 0.310825 -0.250765
vn -0.880088 0.252074 -0.402372
vn -0.867019 0.279492 -0.412508
vn -0.825626 0.157176 -0.541884
vn -0.713812 -0.080728 -0.695669
vn -0.700492 -0.130616 -0.701606
vn -0.609959 -0.290196 -0.737385
vn -0.499043 -0.316831 -0.806582
vn -0.335432 -0.073062 -0.939227
vn -0.055673 0.833421 -0.549827
vn -0.078134 0.99466 -0.067435
vn 0.571869 -0.776297 -0.265194
vn -0.327697 0.944686 0.013517
vn 0.349659 0.93389 0.074758
vn 0.63505 0.633598 0.441888
vn 0.579886 0.328786 0.745408
vn 0.673871 0.146191 0.724242
vn 0.820172 -0.496408 0.284424
vn 0.547727 0.459269 0.699334
vn 0.365452 0.651432 0.664892
vn 0.59075 -0.192357 0.78359
vn -0.756698 0.519004 -0.397546
vn -0.294685 0.894967 0.334955
vn 0.168636 0.053509 0.984225
vn -0.752863 -0.352352 -0.555918
vn 0.462851 -0.483827 0.742752
vn 0.164562 -0.917219 -0.362807
vn 0.256018 0.930561 0.261748
vn 0.216078 0.92512 0.312192
vn 0.135477 0.901786 0.4104
vn 0.084043 0.894639 0.438815
vn 0.022477 0.89644 0.442595
vn 0.386242 -0.769071 0.509262
vn 0.409484 -0.727517 0.550493
vn 0.481152 -0.516712 0.708168
vn 0.490243 -0.55904 0.668683
vn 0.42257 -0.365034 0.829569
vn -0.182243 0.969487 -0.163961
vn -0.400293 0.751511 -0.524401
vn -0.239153 0.791026 -0.563102
vn 0.73748 0.546008 0.397491
vn -0.147847 0.975193 -0.164741
vn 0.28142 -0.315432 0.906259
vn 0.202087 -0.267211 0.94221
vn 0.309673 -0.38931 0.867491
vn 0.427105 -0.877103 0.21971
vn 0.354807 -0.795706 0.49088
vn -0.489412 -0.120072 -0.863747
vn 0.506211 -0.861642 0.036365
vn 0.533308 -0.659208 -0.53012
vn 0.146051 -0.42236 -0.894584
vn -0.749793 0.076847 -0.657195
vn -0.864044 0.284922 -0.415027
vn -0.932003 0.213505 -0.292891
vn -0.957813 0.202625 -0.203807
vn -0.948426 0.226672 -0.221605
vn -0.947768 0.094887 -0.304521
vn -0.891424 -0.073157 -0.447226
vn -0.837263 -0.140551 -0.528428
vn -0.854118 -0.044955 -0.518132
vn -0.806161 0.054464 -0.589185
vn -0.70186 0.337762 -0.627143
vn -0.458985 0.739956 -0.491729
vn -0.355219 0.924829 -0.136057
vn -0.636062 0.729105 -0.252647
vn 0.664701 -0.746511 -0.029907
vn -0.587881 0.808924 0.006129
vn -0.699962 0.700043 -0.141395
vn -0.092141 0.995179 0.033593
vn 0.346277 0.819698 0.456275
vn 0.660203 -0.707956 0.250859
vn -0.123756 0.913338 0.387942
vn -0.7124 0.54415 -0.443156
vn -0.375902 0.879375 0.292227
vn -0.077551 0.074623 0.994192
vn 0.281249 -0.656572 0.699866
vn -0.351311 -0.537643 -0.766499
vn 0.488329 -0.850568 0.19511
vn 0.536684 -0.792324 -0.290159
vn -0.155597 0.956731 -0.245875
vn -0.215667 0.967357 -0.133073
vn -0.253542 0.967064 -0.022466
vn -0.335874 0.941827 -0.012276
vn -0.536128 0.835738 0.118783
vn 0.342033 -0.796832 0.498068
vn 0.390535 -0.739166 0.54874
vn 0.403259 -0.536877 0.741044
vn 0.536041 -0.604481 0.58929
vn 0.281883 -0.399874 0.872148
vn -0.374391 0.825682 -0.421995
vn -0.07655 0.84673 -0.526486
vn 0.824762 0.554884 0.108952
vn -0.306251 0.859578 -0.409067
vn 0.182607 -0.358566 0.91547
vn 0.196829 -0.383519 0.902314
vn 0.268564 -0.630305 0.728416
vn 0.305069 -0.944838 0.119226
vn 0.257726 -0.861919 0.436661
vn -0.31044 -0.299003 -0.902344
vn 0.137313 -0.962418 -0.2343
vn 0.302872 -0.868882 -0.391552
vn 0.093221 -0.635583 -0.766384
vn -0.246291 -0.303162 -0.920562
vn -0.668082 0.057521 -0.741861
vn -0.797219 0.180209 -0.576166
vn -0.807852 0.362279 -0.464897
vn -0.808532 0.373356 -0.454842
vn -0.83378 0.317367 -0.451763
vn -0.804195 0.374079 -0.461882
vn -0.759622 0.429733 -0.488164
vn -0.76556 0.494693 -0.411335
vn -0.696725 0.630102 -0.34285
vn -0.780337 0.581998 -0.228807
vn -0.726487 0.670772 -0.149266
vn 0.623251 -0.776849 -0.0898
vn -0.765535 0.634527 -0.106447
vn -0.703778 0.695149 -0.146505
vn -0.553466 0.8305 -0.062812
vn -0.683929 0.727768 0.050946
vn -0.476378 0.554961 -0.68197
vn -0.427059 0.820407 0.380202
vn -0.205221 -0.034103 0.978121
vn 0.138688 -0.786142 0.602284
vn 0.326683 -0.937971 0.116145
vn 0.127418 -0.467802 -0.8746
vn 0.450224 -0.868248 -0.20843
vn 0.614919 -0.706895 -0.349535
vn -0.285144 0.895819 -0.340882
vn -0.3821 0.87474 -0.298044
vn -0.512092 0.83893 -0.184278
vn -0.658378 0.750598 -0.056048
vn -0.637065 0.770343 -0.02681
vn 0.348895 -0.810172 0.471056
vn 0.332097 -0.744992 0.578531
vn 0.240403 -0.580557 0.77792
vn 0.613085 -0.616816 0.493625
vn 0.157423 -0.46412 0.871671
vn 0.304013 0.90234 -0.305545
vn 0.968179 0.186159 0.167254
vn 0.126601 0.991152 -0.039881
vn 0.048309 -0.435753 0.898769
vn 0.164281 -0.527272 0.833664
vn 0.261971 -0.674438 0.690294
vn 0.138462 -0.989314 0.045667
vn 0.305176 -0.851073 0.42725
vn 0.1817 -0.882885 -0.433011
vn 0.114183 -0.782768 -0.611749
vn 0.051466 -0.530653 -0.846025
vn 0.294626 0.01982 -0.955407
vn 0.24724 0.174033 -0.953197
vn 0.232765 0.36061 -0.903206
vn 0.099861 0.505972 -0.85675
vn -0.061053 0.584434 -0.809141
vn 0.154102 0.462168 -0.8733
vn -0.351124 0.653929 -0.670141
vn 0.181836 0.576555 -0.796567
vn -0.152422 0.545458 -0.824162
vn -0.402951 0.332089 -0.852847
vn -0.28378 0.207657 -0.936134
vn -0.498469 0.830822 -0.247516
vn 0.064569 0.761948 -0.644411
vn 0.11756 0.619264 -0.776332
vn -0.680013 0.732759 -0.025417
vn -0.526029 0.816517 -0.237892
vn -0.308865 0.901748 -0.302412
vn -0.395918 0.918286 -0.000356
vn -0.345602 0.510882 -0.787121
vn -0.293046 0.946226 0.137041
vn -0.071027 0.392393 0.917051
vn 0.276815 -0.803625 0.526839
vn 0.501826 -0.855919 -0.124793
vn 0.342237 -0.86575 -0.365173
vn 0.273856 -0.43299 -0.858791
vn 0.494573 -0.729725 -0.472121
vn -0.311854 0.94978 -0.025776
vn -0.560043 0.812956 -0.159544
vn -0.663561 0.74101 -0.102912
vn -0.648446 0.750006 -0.130419
vn -0.192234 0.959017 -0.208167
vn 0.314166 -0.808547 0.497545
vn 0.182926 -0.746471 0.63978
vn 0.117751 -0.646598 0.753688
vn 0.497363 -0.67864 0.540442
vn 0.060032 -0.512313 0.856698
vn 0.825296 0.025208 0.564137
vn -0.17692 0.547293 0.818028
vn 0.125856 -0.46185 0.877983
vn 0.241233 -0.549415 0.799969
vn 0.311668 -0.693122 0.649958
vn 0.399691 -0.911437 -0.097621
vn 0.523395 -0.812119 0.257917
vn 0.395124 -0.474044 -0.786867
vn 0.581256 -0.442378 -0.682967
vn 0.510695 -0.067345 -0.857121
vn 0.861007 -0.130457 -0.491577
vn 0.916343 -0.242386 -0.318693
vn 0.995702 -0.092614 -0.001082
vn 0.958947 -0.279638 -0.047159
vn 0.960042 0.15807 -0.230938
vn 0.948025 0.300676 -0.104132
vn 0.953022 0.289002 -0.090704
vn 0.935 -0.040596 -0.352317
vn 0.909321 -0.116294 -0.399514
vn 0.249069 0.658724 -0.709963
vn 0.881575 -0.009945 -0.471939
vn -0.154367 0.974555 -0.162522
vn -0.01769 0.929667 -0.367976
vn 0.284021 0.756114 -0.589596
vn 0.47331 0.878151 -0.06948
vn -0.108558 0.689579 -0.716028
vn -0.083428 0.978775 0.187187
vn 0.428262 0.727034 0.536669
vn 0.570674 -0.60985 0.549921
vn 0.53288 -0.829848 -0.1655
vn 0.387346 -0.760565 -0.52106
vn 0.407726 -0.505451 -0.760446
vn -0.747821 0.578633 0.325495
vn -0.730387 0.673656 -0.112794
vn -0.772606 0.524512 -0.357726
vn -0.527041 0.761468 -0.37735
vn -0.143857 0.859879 -0.48981
vn 0.407399 0.624154 -0.666677
vn 0.222804 -0.763235 0.606491
vn 0.089307 -0.741098 0.665431
vn 0.045749 -0.655568 0.753749
vn 0.163481 -0.697353 0.697835
vn 0.208974 -0.459837 0.863064
vn -0.331923 -0.369492 0.86793
vn 0.259262 -0.372899 0.890915
vn 0.311862 -0.489163 0.814531
vn 0.608517 -0.662607 0.436646
vn 0.529801 -0.288682 0.79748
vn 0.473866 -0.519023 0.711383
vn 0.630088 -0.017264 0.776332
vn 0.640213 0.160455 0.751254
vn 0.669919 -0.131366 0.73072
vn 0.810081 -0.314292 0.494964
vn 0.905553 -0.156425 0.394341
vn 0.819511 0.345703 -0.457047
vn 0.309313 0.851396 -0.423616
vn 0.388518 0.77833 -0.49321
vn 0.933834 0.207354 0.291477
vn 0.781757 0.571977 -0.24839
vn 0.978988 -0.0917559 0.182106
vn 0.063865 0.610554 -0.789395
vn -0.078704 0.955506 -0.284279
vn 0.571511 0.799331 -0.185592
vn 0.988032 -0.098497 0.118706
vn 0.313589 -0.947093 0.068395
vn 0.313613 -0.894906 -0.317474
vn 0.187043 -0.211226 -0.959374
vn -0.491905 -0.181846 0.851447
vn -0.944004 0.26946 0.190391
vn -0.564492 0.809933 -0.159242
vn -0.719388 0.58972 0.367029
vn -0.372446 0.790509 -0.486189
vn -0.092654 0.724324 -0.683206
vn 0.223271 0.223262 -0.948844
vn 0.694079 -0.263185 -0.670066
vn 0.027208 -0.779219 0.626161
vn 0.054027 -0.748837 0.660549
vn 0.260529 -0.58846 0.765402
vn 0.319845 -0.391149 0.862961
vn 0.016935 -0.816038 0.57775
vn 0.202461 -0.747799 0.632302
vn 0.128022 -0.539718 0.832055
vn 0.276543 -0.332195 0.90176
vn 0.285478 -0.272176 0.918925
vn 0.393038 -0.110518 0.912857
vn 0.657432 -0.493597 0.569337
vn 0.538208 -0.395465 0.744271
vn 0.835884 -0.371302 0.404269
vn 0.794724 -0.577863 0.185712
vn 0.582962 -0.769443 -0.260985
vn 0.532535 0.720503 -0.444165
vn 0.295752 0.162947 -0.941265
vn 0.322599 -0.316706 -0.891979
vn 0.731811 -0.537089 -0.41951
vn -0.364161 -0.040121 0.930472
vn 0.039102 -0.519621 0.853502
vn -0.166341 0.9548 0.24635
vn -0.092446 0.703183 0.704974
vn 0.02543 0.378699 0.92517
vn 0.002875 0.964759 -0.26312
vn 0.188386 0.827496 -0.528924
vn 0.158479 -0.068937 -0.984953
vn 0.342819 -0.59393 -0.727821
vn 0.342007 -0.677214 0.65147
vn 0.40337 -0.427959 0.808792
vn 0.398066 -0.795257 0.457285
vn 0.47231 -0.806792 0.354978
vn 0.461079 -0.837205 0.294099
vn 0.196845 -0.974991 0.103171
vn 0.048701 -0.955934 0.289514
vn 0.516822 -0.548521 0.657282
vn 0.683158 -0.657755 0.317259
vn 0.559101 -0.711656 0.425385
vn 0.172957 -0.817322 -0.54961
vn 0.070321 -0.432588 0.898845
vn -0.036683 -0.932507 0.359284
vn 0.340225 0.867921 0.361885
vn 0.301873 0.728047 0.615484
vn 0.312614 0.292626 0.903683
vn 0.177659 -0.392519 0.902422
vn 0.337835 0.934922 0.108577
vn 0.201104 0.844918 -0.495651
vn -0.2094 -0.095527 -0.973153
vn 0.021561 -0.693233 -0.720391
vn -0.100601 -0.831638 -0.546129
vn -0.121653 -0.936892 0.32777
vn -0.334419 -0.816816 -0.470081
vn 0.349362 0.79736 0.492101
vn 0.401846 0.698447 0.592191
vn 0.403187 0.437733 0.803635
vn 0.222196 -0.394586 0.891589
vn -0.141004 -0.93906 0.313502
vn 0.25997 0.952252 0.160101
vn 0.016056 0.862479 -0.505838
vn -0.394502 -0.49448 -0.774505
vn -0.457879 0.149693 -0.876321
vn -0.452167 -0.777896 -0.436375
vn -0.567588 -0.369091 -0.735946
vn 0.380836 0.828658 0.410231
vn 0.371865 0.669587 0.642938
vn 0.336277 0.368394 0.86672
vn 0.106298 -0.4797 0.87097
vn -0.134531 -0.956719 0.258052
vn -0.395037 -0.857305 -0.330111
vn 0.3335 0.94261 -0.016266
vn 0.163856 0.845073 -0.508924
vn -0.212056 0.163168 -0.96354
vn -0.424352 -0.49854 -0.755899
vn 0.658092 0.734115 0.167302
vn 0.618198 0.615937 0.488318
vn 0.60164 0.201375 0.772967
vn 0.343782 -0.671757 0.656169
vn -0.139037 -0.984741 0.104661
vn -0.221915 -0.942935 -0.248249
vn -0.315793 -0.616299 -0.721422
vn 0.598536 0.777141 -0.194437
vn 0.481294 0.655886 -0.581524
vn 0.163365 0.057778 -0.984872
vn 0.92691 0.375254 -0.00471
vn 0.888519 0.392108 0.238298
vn 0.914622 0.022282 0.403695
vn 0.713255 -0.600515 0.361454
vn 0.185871 -0.982301 -0.023172
vn -0.01504 -0.94787 -0.318301
vn -0.0376 -0.711067 -0.702118
vn 0.433364 -0.177953 -0.883475
vn 0.868261 0.44947 -0.21
vn 0.780005 0.304535 -0.546673
vn 0.969959 -0.138963 -0.199673
vn 0.989062 -0.139444 0.048082
vn 0.740675 -0.666835 0.0820539
vn 0.564514 -0.724363 -0.395755
# 770 normals
usemtl Material__1
f  1//1 2//2 3//3
f  4//4 1//1 3//3
f  1//1 5//5 2//2
f  6//6 5//5 1//1
f  7//7 6//6 1//1
f  8//8 1//1 4//4
f  9//9 7//7 1//1
f  8//8 9//9 1//1
f  3//3 2//2 10//10
f  5//5 10//10 2//2
f  11//11 4//4 3//3
f  3//3 12//12 11//11
f  12//12 3//3 13//13
f  13//13 3//3 10//10
f  4//4 14//14 8//8
f  15//15 14//14 4//4
f  11//11 15//15 4//4
f  5//5 16//16 10//10
f  17//17 16//16 5//5
f  6//6 17//17 5//5
f  18//18 17//17 6//6
f  19//19 18//18 6//6
f  19//19 6//6 7//7
f  20//20 19//19 7//7
f  21//21 20//20 7//7
f  9//9 21//21 7//7
f  14//14 22//22 8//8
f  8//8 22//22 9//9
f  22//22 23//23 9//9
f  9//9 23//23 21//21
f  10//10 24//24 13//13
f  16//16 24//24 10//10
f  12//12 15//15 11//11
f  12//12 25//25 15//15
f  26//26 25//25 12//12
f  13//13 26//26 12//12
f  24//24 26//26 13//13
f  27//27 28//28 14//14
f  15//15 27//27 14//14
f  14//14 28//28 22//22
f  25//25 27//27 15//15
f  16//16 29//29 24//24
f  30//30 29//29 16//16
f  17//17 30//30 16//16
f  31//31 30//30 17//17
f  18//18 31//31 17//17
f  32//32 18//18 19//19
f  33//33 31//31 18//18
f  32//32 33//33 18//18
f  34//34 32//32 19//19
f  34//34 19//19 20//20
f  35//35 34//34 20//20
f  36//36 35//35 20//20
f  37//37 36//36 20//20
f  21//21 37//37 20//20
f  23//23 38//38 21//21
f  21//21 38//38 37//37
f  22//22 39//39 23//23
f  28//28 39//39 22//22
f  39//39 40//40 23//23
f  23//23 40//40 38//38
f  24//24 41//41 26//26
f  29//29 41//41 24//24
f  25//25 42//42 27//27
f  43//43 42//42 25//25
f  26//26 43//43 25//25
f  41//41 43//43 26//26
f  27//27 44//44 28//28
f  42//42 44//44 27//27
f  28//28 45//45 39//39
f  44//44 45//45 28//28
f  29//29 46//46 41//41
f  47//47 46//46 29//29
f  30//30 47//47 29//29
f  48//48 47//47 30//30
f  31//31 48//48 30//30
f  49//49 48//48 31//31
f  33//33 49//49 31//31
f  50//50 32//32 34//34
f  51//51 33//33 32//32
f  50//50 51//51 32//32
f  52//52 49//49 33//33
f  51//51 52//52 33//33
f  53//53 50//50 34//34
f  53//53 34//34 35//35
f  36//36 53//53 35//35
f  54//54 53//53 36//36
f  55//55 54//54 36//36
f  56//56 55//55 36//36
f  37//37 56//56 36//36
f  38//38 57//57 37//37
f  37//37 57//57 56//56
f  40//40 58//58 38//38
f  38//38 58//58 57//57
f  45//45 59//59 39//39
f  39//39 59//59 40//40
f  40//40 60//60 58//58
f  59//59 60//60 40//40
f  41//41 61//61 43//43
f  46//46 61//61 41//41
f  42//42 62//62 44//44
f  63//63 62//62 42//42
f  43//43 63//63 42//42
f  61//61 63//63 43//43
f  44//44 64//64 45//45
f  62//62 64//64 44//44
f  45//45 65//65 59//59
f  64//64 65//65 45//45
f  46//46 66//66 61//61
f  67//67 66//66 46//46
f  47//47 67//67 46//46
f  68//68 67//67 47//47
f  48//48 68//68 47//47
f  69//69 68//68 48//48
f  49//49 69//69 48//48
f  70//70 69//69 49//49
f  52//52 70//70 49//49
f  71//71 50//50 53//53
f  72//72 51//51 50//50
f  71//71 72//72 50//50
f  73//73 52//52 51//51
f  72//72 73//73 51//51
f  74//74 70//70 52//52
f  73//73 74//74 52//52
f  54//54 71//71 53//53
f  75//75 54//54 55//55
f  76//76 71//71 54//54
f  77//77 76//76 54//54
f  75//75 77//77 54//54
f  78//78 75//75 55//55
f  79//79 78//78 55//55
f  80//80 79//79 55//55
f  56//56 80//80 55//55
f  57//57 81//81 56//56
f  56//56 81//81 80//80
f  58//58 82//82 57//57
f  57//57 82//82 81//81
f  60//60 83//83 58//58
f  58//58 83//83 82//82
f  59//59 84//84 60//60
f  65//65 84//84 59//59
f  84//84 85//85 60//60
f  60//60 85//85 83//83
f  61//61 86//86 63//63
f  66//66 86//86 61//61
f  62//62 87//87 64//64
f  88//88 87//87 62//62
f  63//63 88//88 62//62
f  86//86 88//88 63//63
f  64//64 89//89 65//65
f  87//87 89//89 64//64
f  65//65 90//90 84//84
f  89//89 90//90 65//65
f  66//66 91//91 86//86
f  92//92 91//91 66//66
f  67//67 92//92 66//66
f  93//93 92//92 67//67
f  68//68 93//93 67//67
f  94//94 93//93 68//68
f  69//69 94//94 68//68
f  95//95 94//94 69//69
f  70//70 95//95 69//69
f  96//96 95//95 70//70
f  74//74 96//96 70//70
f  97//97 72//72 71//71
f  76//76 97//97 71//71
f  98//98 73//73 72//72
f  97//97 98//98 72//72
f  99//99 74//74 73//73
f  98//98 99//99 73//73
f  100//100 96//96 74//74
f  99//99 100//100 74//74
f  77//77 75//75 78//78
f  101//101 76//76 77//77
f  102//102 97//97 76//76
f  101//101 102//102 76//76
f  79//79 77//77 78//78
f  103//103 101//101 77//77
f  103//103 77//77 79//79
f  104//104 103//103 79//79
f  80//80 104//104 79//79
f  81//81 105//105 80//80
f  80//80 105//105 106//106
f  80//80 106//106 104//104
f  82//82 107//107 81//81
f  81//81 107//107 105//105
f  83//83 108//108 82//82
f  82//82 108//108 107//107
f  83//83 109//109 108//108
f  85//85 109//109 83//83
f  84//84 110//110 85//85
f  90//90 110//110 84//84
f  85//85 111//111 109//109
f  110//110 111//111 85//85
f  86//86 112//112 88//88
f  91//91 112//112 86//86
f  87//87 113//113 89//89
f  114//114 113//113 87//87
f  88//88 114//114 87//87
f  112//112 114//114 88//88
f  89//89 115//115 90//90
f  113//113 115//115 89//89
f  90//90 116//116 110//110
f  115//115 116//116 90//90
f  91//91 117//117 112//112
f  118//118 117//117 91//91
f  92//92 118//118 91//91
f  119//119 118//118 92//92
f  93//93 119//119 92//92
f  120//120 119//119 93//93
f  94//94 120//120 93//93
f  121//121 120//120 94//94
f  95//95 121//121 94//94
f  122//122 121//121 95//95
f  96//96 122//122 95//95
f  123//123 122//122 96//96
f  100//100 123//123 96//96
f  124//124 98//98 97//97
f  102//102 124//124 97//97
f  125//125 99//99 98//98
f  124//124 125//125 98//98
f  126//126 100//100 99//99
f  125//125 126//126 99//99
f  127//127 123//123 100//100
f  126//126 127//127 100//100
f  128//128 101//101 103//103
f  129//129 102//102 101//101
f  128//128 129//129 101//101
f  130//130 124//124 102//102
f  129//129 130//130 102//102
f  131//131 128//128 103//103
f  131//131 103//103 104//104
f  106//106 132//132 104//104
f  132//132 131//131 104//104
f  107//107 133//133 105//105
f  105//105 134//134 106//106
f  105//105 133//133 134//134
f  106//106 134//134 135//135
f  106//106 135//135 136//136
f  106//106 136//136 132//132
f  108//108 137//137 107//107
f  107//107 137//137 133//133
f  109//109 138//138 108//108
f  108//108 138//138 137//137
f  111//111 139//139 109//109
f  109//109 139//139 138//138
f  110//110 140//140 111//111
f  116//116 140//140 110//110
f  111//111 141//141 139//139
f  140//140 141//141 111//111
f  112//112 142//142 114//114
f  117//117 142//142 112//112
f  113//113 143//143 115//115
f  144//144 143//143 113//113
f  114//114 144//144 113//113
f  142//142 144//144 114//114
f  115//115 145//145 116//116
f  143//143 145//145 115//115
f  116//116 146//146 140//140
f  145//145 146//146 116//116
f  117//117 147//147 142//142
f  148//148 147//147 117//117
f  118//118 148//148 117//117
f  149//149 148//148 118//118
f  119//119 149//149 118//118
f  150//150 149//149 119//119
f  120//120 150//150 119//119
f  151//151 150//150 120//120
f  121//121 151//151 120//120
f  152//152 151//151 121//121
f  122//122 152//152 121//121
f  153//153 152//152 122//122
f  123//123 153//153 122//122
f  154//154 153//153 123//123
f  127//127 154//154 123//123
f  155//155 125//125 124//124
f  130//130 155//155 124//124
f  156//156 126//126 125//125
f  155//155 156//156 125//125
f  157//157 127//127 126//126
f  156//156 157//157 126//126
f  158//158 154//154 127//127
f  157//157 158//158 127//127
f  159//159 128//128 131//131
f  160//160 129//129 128//128
f  159//159 160//160 128//128
f  161//161 130//130 129//129
f  160//160 161//161 129//129
f  162//162 155//155 130//130
f  161//161 162//162 130//130
f  163//163 131//131 132//132
f  163//163 159//159 131//131
f  136//136 163//163 132//132
f  137//137 164//164 133//133
f  133//133 165//165 134//134
f  133//133 164//164 165//165
f  134//134 166//166 135//135
f  134//134 165//165 166//166
f  135//135 167//167 136//136
f  135//135 166//166 168//168
f  135//135 168//168 169//169
f  135//135 169//169 170//170
f  135//135 170//170 167//167
f  171//171 172//172 136//136
f  167//167 171//171 136//136
f  173//173 163//163 136//136
f  172//172 173//173 136//136
f  138//138 174//174 137//137
f  137//137 174//174 164//164
f  138//138 175//175 174//174
f  139//139 175//175 138//138
f  139//139 176//176 175//175
f  141//141 176//176 139//139
f  140//140 177//177 141//141
f  146//146 177//177 140//140
f  141//141 178//178 176//176
f  177//177 178//178 141//141
f  142//142 179//179 144//144
f  147//147 179//179 142//142
f  143//143 180//180 145//145
f  181//181 180//180 143//143
f  144//144 181//181 143//143
f  179//179 181//181 144//144
f  145//145 182//182 146//146
f  180//180 182//182 145//145
f  146//146 183//183 177//177
f  182//182 183//183 146//146
f  147//147 184//184 179//179
f  185//185 184//184 147//147
f  148//148 185//185 147//147
f  186//186 185//185 148//148
f  149//149 186//186 148//148
f  187//187 186//186 149//149
f  150//150 187//187 149//149
f  188//188 187//187 150//150
f  151//151 188//188 150//150
f  189//189 188//188 151//151
f  152//152 189//189 151//151
f  190//190 189//189 152//152
f  153//153 190//190 152//152
f  191//191 190//190 153//153
f  154//154 191//191 153//153
f  192//192 191//191 154//154
f  158//158 192//192 154//154
f  193//193 156//156 155//155
f  162//162 193//193 155//155
f  194//194 157//157 156//156
f  193//193 194//194 156//156
f  195//195 158//158 157//157
f  194//194 195//195 157//157
f  196//196 192//192 158//158
f  195//195 196//196 158//158
f  197//197 159//159 163//163
f  198//198 160//160 159//159
f  197//197 198//198 159//159
f  199//199 161//161 160//160
f  198//198 199//199 160//160
f  200//200 162//162 161//161
f  199//199 200//200 161//161
f  201//201 193//193 162//162
f  200//200 201//201 162//162
f  173//173 197//197 163//163
f  174//174 202//202 164//164
f  164//164 203//203 165//165
f  164//164 202//202 203//203
f  165//165 204//204 166//166
f  165//165 203//203 204//204
f  166//166 205//205 168//168
f  166//166 204//204 205//205
f  167//167 206//206 171//171
f  207//207 206//206 167//167
f  170//170 207//207 167//167
f  168//168 208//208 169//169
f  168//168 205//205 209//209
f  168//168 209//209 208//208
f  169//169 210//210 170//170
f  211//211 210//210 169//169
f  208//208 211//211 169//169
f  210//210 207//207 170//170
f  171//171 212//212 172//172
f  206//206 212//212 171//171
f  212//212 173//173 172//172
f  213//213 197//197 173//173
f  212//212 213//213 173//173
f  175//175 214//214 174//174
f  174//174 214//214 202//202
f  176//176 215//215 175//175
f  175//175 215//215 214//214
f  176//176 216//216 215//215
f  178//178 216//216 176//176
f  177//177 217//217 178//178
f  183//183 217//217 177//177
f  178//178 218//218 216//216
f  217//217 218//218 178//178
f  179//179 219//219 181//181
f  184//184 219//219 179//179
f  180//180 220//220 182//182
f  221//221 220//220 180//180
f  181//181 221//221 180//180
f  219//219 221//221 181//181
f  182//182 222//222 183//183
f  220//220 222//222 182//182
f  183//183 223//223 217//217
f  222//222 223//223 183//183
f  219//219 184//184 224//224
f  184//184 185//185 225//225
f  224//224 184//184 225//225
f  185//185 186//186 226//226
f  225//225 185//185 226//226
f  186//186 187//187 227//227
f  226//226 186//186 227//227
f  187//187 188//188 228//228
f  227//227 187//187 228//228
f  188//188 189//189 229//229
f  228//228 188//188 229//229
f  189//189 190//190 230//230
f  229//229 189//189 230//230
f  190//190 191//191 231//231
f  230//230 190//190 231//231
f  191//191 192//192 232//232
f  231//231 191//191 232//232
f  192//192 196//196 233//233
f  232//232 192//192 233//233
f  234//234 194//194 193//193
f  201//201 234//234 193//193
f  235//235 195//195 194//194
f  234//234 235//235 194//194
f  236//236 196//196 195//195
f  235//235 236//236 195//195
f  196//196 236//236 237//237
f  233//233 196//196 237//237
f  238//238 198//198 197//197
f  213//213 238//238 197//197
f  239//239 199//199 198//198
f  238//238 239//239 198//198
f  240//240 200//200 199//199
f  239//239 240//240 199//199
f  241//241 201//201 200//200
f  240//240 241//241 200//200
f  242//242 234//234 201//201
f  241//241 242//242 201//201
f  202//202 243//243 203//203
f  214//214 244//244 202//202
f  202//202 244//244 243//243
f  203//203 245//245 204//204
f  203//203 243//243 245//245
f  204//204 246//246 205//205
f  204//204 245//245 246//246
f  205//205 247//247 209//209
f  205//205 246//246 247//247
f  206//206 248//248 212//212
f  249//249 248//248 206//206
f  207//207 249//249 206//206
f  250//250 249//249 207//207
f  210//210 250//250 207//207
f  251//251 252//252 208//208
f  253//253 251//251 208//208
f  209//209 253//253 208//208
f  254//254 211//211 208//208
f  252//252 254//254 208//208
f  209//209 247//247 253//253
f  255//255 250//250 210//210
f  211//211 255//255 210//210
f  256//256 255//255 211//211
f  254//254 256//256 211//211
f  248//248 213//213 212//212
f  257//257 238//238 213//213
f  248//248 257//257 213//213
f  214//214 258//258 244//244
f  215//215 258//258 214//214
f  215//215 259//259 258//258
f  216//216 259//259 215//215
f  216//216 260//260 259//259
f  218//218 260//260 216//216
f  217//217 261//261 218//218
f  223//223 261//261 217//217
f  218//218 262//262 260//260
f  261//261 262//262 218//218
f  221//221 219//219 263//263
f  263//263 219//219 224//224
f  222//222 220//220 264//264
f  220//220 221//221 265//265
f  264//264 220//220 265//265
f  265//265 221//221 263//263
f  223//223 222//222 266//266
f  266//266 222//222 264//264
f  261//261 223//223 267//267
f  267//267 223//223 266//266
f  224//224 268//268 263//263
f  269//269 268//268 224//224
f  225//225 269//269 224//224
f  270//270 269//269 225//225
f  226//226 270//270 225//225
f  271//271 270//270 226//226
f  227//227 271//271 226//226
f  272//272 271//271 227//227
f  228//228 272//272 227//227
f  273//273 272//272 228//228
f  229//229 273//273 228//228
f  274//274 273//273 229//229
f  230//230 274//274 229//229
f  275//275 274//274 230//230
f  231//231 275//275 230//230
f  276//276 275//275 231//231
f  232//232 276//276 231//231
f  277//277 276//276 232//232
f  233//233 277//277 232//232
f  278//278 277//277 233//233
f  237//237 278//278 233//233
f  279//279 235//235 234//234
f  242//242 279//279 234//234
f  280//280 236//236 235//235
f  279//279 280//280 235//235
f  236//236 280//280 281//281
f  237//237 236//236 281//281
f  282//282 278//278 237//237
f  281//281 282//282 237//237
f  283//283 239//239 238//238
f  257//257 283//283 238//238
f  284//284 240//240 239//239
f  283//283 284//284 239//239
f  285//285 241//241 240//240
f  284//284 285//285 240//240
f  286//286 242//242 241//241
f  285//285 286//286 241//241
f  287//287 279//279 242//242
f  286//286 287//287 242//242
f  244//244 288//288 243//243
f  243//243 289//289 245//245
f  243//243 288//288 289//289
f  258//258 290//290 244//244
f  244//244 290//290 288//288
f  245//245 291//291 246//246
f  245//245 289//289 291//291
f  246//246 292//292 247//247
f  246//246 291//291 292//292
f  247//247 293//293 253//253
f  247//247 292//292 293//293
f  294//294 257//257 248//248
f  249//249 294//294 248//248
f  295//295 294//294 249//249
f  250//250 295//295 249//249
f  296//296 295//295 250//250
f  255//255 296//296 250//250
f  251//251 297//297 252//252
f  298//298 297//297 251//251
f  299//299 298//298 251//251
f  253//253 299//299 251//251
f  297//297 254//254 252//252
f  253//253 293//293 299//299
f  300//300 256//256 254//254
f  297//297 300//300 254//254
f  301//301 296//296 255//255
f  256//256 301//301 255//255
f  302//302 301//301 256//256
f  300//300 302//302 256//256
f  303//303 283//283 257//257
f  294//294 303//303 257//257
f  259//259 304//304 258//258
f  258//258 304//304 290//290
f  259//259 305//305 304//304
f  260//260 305//305 259//259
f  260//260 306//306 305//305
f  262//262 306//306 260//260
f  262//262 261//261 307//307
f  307//307 261//261 267//267
f  306//306 262//262 308//308
f  308//308 262//262 307//307
f  263//263 309//309 265//265
f  268//268 309//309 263//263
f  264//264 310//310 266//266
f  311//311 310//310 264//264
f  265//265 311//311 264//264
f  309//309 311//311 265//265
f  266//266 312//312 267//267
f  310//310 312//312 266//266
f  267//267 313//313 307//307
f  312//312 313//313 267//267
f  268//268 314//314 309//309
f  315//315 314//314 268//268
f  269//269 315//315 268//268
f  316//316 315//315 269//269
f  270//270 316//316 269//269
f  317//317 316//316 270//270
f  271//271 317//317 270//270
f  318//318 317//317 271//271
f  272//272 318//318 271//271
f  319//319 318//318 272//272
f  273//273 319//319 272//272
f  320//320 319//319 273//273
f  274//274 320//320 273//273
f  321//321 320//320 274//274
f  275//275 321//321 274//274
f  322//322 321//321 275//275
f  276//276 322//322 275//275
f  323//323 322//322 276//276
f  277//277 323//323 276//276
f  324//324 323//323 277//277
f  278//278 324//324 277//277
f  325//325 324//324 278//278
f  282//282 325//325 278//278
f  326//326 280//280 279//279
f  287//287 326//326 279//279
f  280//280 327//327 328//328
f  281//281 280//280 328//328
f  329//329 327//327 280//280
f  326//326 329//329 280//280
f  282//282 281//281 328//328
f  330//330 282//282 328//328
f  282//282 330//330 325//325
f  331//331 284//284 283//283
f  303//303 331//331 283//283
f  332//332 285//285 284//284
f  331//331 332//332 284//284
f  333//333 286//286 285//285
f  332//332 333//333 285//285
f  334//334 287//287 286//286
f  333//333 334//334 286//286
f  335//335 326//326 287//287
f  334//334 335//335 287//287
f  288//288 336//336 289//289
f  290//290 337//337 288//288
f  288//288 337//337 336//336
f  289//289 338//338 291//291
f  289//289 336//336 338//338
f  290//290 339//339 337//337
f  304//304 339//339 290//290
f  291//291 340//340 292//292
f  291//291 338//338 341//341
f  291//291 341//341 340//340
f  292//292 342//342 293//293
f  292//292 340//340 342//342
f  293//293 298//298 299//299
f  293//293 342//342 298//298
f  343//343 303//303 294//294
f  295//295 343//343 294//294
f  344//344 343//343 295//295
f  296//296 344//344 295//295
f  345//345 344//344 296//296
f  301//301 345//345 296//296
f  346//346 300//300 297//297
f  298//298 346//346 297//297
f  342//342 346//346 298//298
f  347//347 302//302 300//300
f  346//346 347//347 300//300
f  348//348 345//345 301//301
f  302//302 348//348 301//301
f  349//349 348//348 302//302
f  347//347 349//349 302//302
f  350//350 331//331 303//303
f  343//343 350//350 303//303
f  304//304 351//351 339//339
f  305//305 351//351 304//304
f  305//305 352//352 351//351
f  306//306 352//352 305//305
f  352//352 306//306 353//353
f  353//353 306//306 308//308
f  307//307 354//354 308//308
f  313//313 354//354 307//307
f  308//308 355//355 353//353
f  354//354 355//355 308//308
f  309//309 356//356 311//311
f  314//314 356//356 309//309
f  310//310 357//357 312//312
f  358//358 357//357 310//310
f  311//311 358//358 310//310
f  356//356 358//358 311//311
f  312//312 359//359 313//313
f  357//357 359//359 312//312
f  313//313 360//360 354//354
f  359//359 360//360 313//313
f  314//314 361//361 356//356
f  362//362 361//361 314//314
f  315//315 362//362 314//314
f  363//363 362//362 315//315
f  316//316 363//363 315//315
f  364//364 363//363 316//316
f  317//317 364//364 316//316
f  365//365 364//364 317//317
f  318//318 365//365 317//317
f  366//366 365//365 318//318
f  319//319 366//366 318//318
f  367//367 366//366 319//319
f  320//320 367//367 319//319
f  368//368 367//367 320//320
f  321//321 368//368 320//320
f  369//369 368//368 321//321
f  322//322 369//369 321//321
f  370//370 369//369 322//322
f  323//323 370//370 322//322
f  371//371 370//370 323//323
f  324//324 371//371 323//323
f  372//372 371//371 324//324
f  325//325 372//372 324//324
f  330//330 373//373 325//325
f  374//374 372//372 325//325
f  375//375 374//374 325//325
f  325//325 373//373 376//376
f  375//375 325//325 376//376
f  326//326 335//335 377//377
f  378//378 326//326 377//377
f  326//326 378//378 379//379
f  329//329 326//326 379//379
f  328//328 327//327 380//380
f  327//327 329//329 381//381
f  380//380 327//327 381//381
f  330//330 328//328 382//382
f  382//382 328//328 380//380
f  329//329 379//379 383//383
f  381//381 329//329 383//383
f  384//384 330//330 382//382
f  373//373 330//330 384//384
f  385//385 332//332 331//331
f  350//350 385//385 331//331
f  386//386 333//333 332//332
f  385//385 386//386 332//332
f  387//387 334//334 333//333
f  386//386 387//387 333//333
f  388//388 335//335 334//334
f  387//387 388//388 334//334
f  335//335 388//388 389//389
f  377//377 335//335 389//389
f  337//337 390//390 336//336
f  336//336 391//391 338//338
f  336//336 390//390 391//391
f  339//339 392//392 337//337
f  337//337 392//392 390//390
f  393//393 338//338 391//391
f  393//393 341//341 338//338
f  351//351 394//394 339//339
f  339//339 394//394 392//392
f  340//340 395//395 342//342
f  340//340 341//341 395//395
f  341//341 396//396 395//395
f  341//341 393//393 396//396
f  342//342 395//395 346//346
f  397//397 350//350 343//343
f  344//344 397//397 343//343
f  398//398 397//397 344//344
f  345//345 398//398 344//344
f  399//399 398//398 345//345
f  348//348 399//399 345//345
f  395//395 347//347 346//346
f  396//396 349//349 347//347
f  395//395 396//396 347//347
f  400//400 399//399 348//348
f  349//349 400//400 348//348
f  401//401 400//400 349//349
f  396//396 401//401 349//349
f  402//402 385//385 350//350
f  397//397 402//402 350//350
f  351//351 403//403 394//394
f  352//352 403//403 351//351
f  403//403 352//352 404//404
f  404//404 352//352 353//353
f  353//353 405//405 404//404
f  355//355 405//405 353//353
f  354//354 406//406 355//355
f  360//360 406//406 354//354
f  355//355 407//407 405//405
f  406//406 407//407 355//355
f  356//356 408//408 358//358
f  361//361 408//408 356//356
f  357//357 409//409 359//359
f  410//410 409//409 357//357
f  358//358 410//410 357//357
f  408//408 410//410 358//358
f  359//359 411//411 360//360
f  409//409 411//411 359//359
f  360//360 412//412 406//406
f  411//411 412//412 360//360
f  361//361 413//413 408//408
f  414//414 413//413 361//361
f  362//362 414//414 361//361
f  415//415 414//414 362//362
f  363//363 415//415 362//362
f  416//416 415//415 363//363
f  364//364 416//416 363//363
f  417//417 416//416 364//364
f  365//365 417//417 364//364
f  418//418 417//417 365//365
f  366//366 418//418 365//365
f  419//419 418//418 366//366
f  367//367 419//419 366//366
f  420//420 419//419 367//367
f  368//368 420//420 367//367
f  421//421 420//420 368//368
f  369//369 421//421 368//368
f  422//422 421//421 369//369
f  370//370 422//422 369//369
f  423//423 422//422 370//370
f  371//371 423//423 370//370
f  424//424 423//423 371//371
f  372//372 424//424 371//371
f  425//425 424//424 372//372
f  374//374 425//425 372//372
f  426//426 373//373 384//384
f  376//376 373//373 426//426
f  427//427 425//425 374//374
f  428//428 427//427 374//374
f  428//428 374//374 375//375
f  429//429 428//428 375//375
f  429//429 375//375 430//430
f  375//375 376//376 431//431
f  430//430 375//375 431//431
f  432//432 376//376 426//426
f  431//431 376//376 432//432
f  377//377 433//433 378//378
f  434//434 433//433 377//377
f  389//389 434//434 377//377
f  433//433 430//430 378//378
f  378//378 430//430 379//379
f  430//430 431//431 379//379
f  379//379 431//431 435//435
f  383//383 379//379 435//435
f  382//382 380//380 436//436
f  380//380 381//381 437//437
f  436//436 380//380 437//437
f  381//381 383//383 438//438
f  437//437 381//381 438//438
f  384//384 382//382 439//439
f  439//439 382//382 436//436
f  383//383 435//435 440//440
f  438//438 383//383 440//440
f  441//441 384//384 439//439
f  426//426 384//384 441//441
f  442//442 386//386 385//385
f  402//402 442//442 385//385
f  443//443 387//387 386//386
f  442//442 443//443 386//386
f  444//444 388//388 387//387
f  443//443 444//444 387//387
f  388//388 444//444 445//445
f  389//389 388//388 445//445
f  446//446 434//434 389//389
f  445//445 446//446 389//389
f  390//390 447//447 391//391
f  392//392 448//448 390//390
f  390//390 448//448 447//447
f  391//391 447//447 393//393
f  392//392 449//449 448//448
f  394//394 449//449 392//392
f  447//447 450//450 393//393
f  393//393 401//401 396//396
f  393//393 450//450 401//401
f  394//394 451//451 449//449
f  403//403 451//451 394//394
f  452//452 402//402 397//397
f  398//398 452//452 397//397
f  453//453 452//452 398//398
f  399//399 453//453 398//398
f  454//454 453//453 399//399
f  400//400 454//454 399//399
f  455//455 454//454 400//400
f  401//401 455//455 400//400
f  450//450 455//455 401//401
f  456//456 442//442 402//402
f  452//452 456//456 402//402
f  451//451 403//403 457//457
f  457//457 403//403 404//404
f  404//404 458//458 457//457
f  405//405 458//458 404//404
f  405//405 459//459 458//458
f  407//407 459//459 405//405
f  406//406 460//460 407//407
f  412//412 460//460 406//406
f  407//407 461//461 459//459
f  460//460 461//461 407//407
f  408//408 462//462 410//410
f  413//413 462//462 408//408
f  412//412 411//411 409//409
f  463//463 412//412 409//409
f  464//464 463//463 409//409
f  465//465 464//464 409//409
f  410//410 465//465 409//409
f  462//462 465//465 410//410
f  412//412 463//463 460//460
f  413//413 466//466 462//462
f  467//467 466//466 413//413
f  414//414 467//467 413//413
f  468//468 467//467 414//414
f  415//415 468//468 414//414
f  469//469 468//468 415//415
f  416//416 469//469 415//415
f  470//470 469//469 416//416
f  417//417 470//470 416//416
f  471//471 470//470 417//417
f  418//418 471//471 417//417
f  472//472 471//471 418//418
f  419//419 472//472 418//418
f  473//473 472//472 419//419
f  420//420 473//473 419//419
f  474//474 473//473 420//420
f  421//421 474//474 420//420
f  475//475 474//474 421//421
f  422//422 475//475 421//421
f  476//476 475//475 422//422
f  423//423 476//476 422//422
f  477//477 476//476 423//423
f  424//424 477//477 423//423
f  478//478 477//477 424//424
f  425//425 478//478 424//424
f  479//479 478//478 425//425
f  427//427 479//479 425//425
f  480//480 426//426 441//441
f  432//432 426//426 480//480
f  481//481 427//427 428//428
f  482//482 479//479 427//427
f  481//481 482//482 427//427
f  483//483 481//481 428//428
f  483//483 428//428 429//429
f  433//433 429//429 430//430
f  484//484 483//483 429//429
f  484//484 429//429 433//433
f  435//435 431//431 432//432
f  485//485 432//432 480//480
f  435//435 432//432 485//485
f  434//434 484//484 433//433
f  486//486 484//484 434//434
f  446//446 486//486 434//434
f  440//440 435//435 485//485
f  439//439 436//436 487//487
f  436//436 437//437 488//488
f  487//487 436//436 488//488
f  437//437 438//438 489//489
f  488//488 437//437 489//489
f  438//438 440//440 490//490
f  489//489 438//438 490//490
f  441//441 439//439 491//491
f  491//491 439//439 487//487
f  440//440 485//485 492//492
f  490//490 440//440 492//492
f  493//493 441//441 491//491
f  480//480 441//441 493//493
f  494//494 443//443 442//442
f  456//456 494//494 442//442
f  495//495 444//444 443//443
f  494//494 495//495 443//443
f  444//444 495//495 496//496
f  445//445 444//444 496//496
f  497//497 446//446 445//445
f  496//496 497//497 445//445
f  498//498 486//486 446//446
f  497//497 498//498 446//446
f  448//448 499//499 447//447
f  447//447 499//499 450//450
f  449//449 500//500 448//448
f  448//448 500//500 499//499
f  451//451 501//501 449//449
f  449//449 501//501 500//500
f  499//499 502//502 450//450
f  450//450 502//502 455//455
f  501//501 451//451 503//503
f  503//503 451//451 457//457
f  504//504 456//456 452//452
f  453//453 504//504 452//452
f  505//505 504//504 453//453
f  454//454 505//505 453//453
f  506//506 505//505 454//454
f  455//455 506//506 454//454
f  502//502 506//506 455//455
f  507//507 494//494 456//456
f  504//504 507//507 456//456
f  457//457 508//508 503//503
f  458//458 508//508 457//457
f  458//458 509//509 508//508
f  459//459 509//509 458//458
f  459//459 510//510 509//509
f  461//461 510//510 459//459
f  463//463 511//511 460//460
f  460//460 511//511 461//461
f  461//461 512//512 510//510
f  511//511 512//512 461//461
f  462//462 513//513 465//465
f  466//466 513//513 462//462
f  463//463 514//514 511//511
f  515//515 514//514 463//463
f  464//464 515//515 463//463
f  516//516 515//515 464//464
f  465//465 516//516 464//464
f  513//513 516//516 465//465
f  517//517 513//513 466//466
f  518//518 517//517 466//466
f  518//518 466//466 467//467
f  518//518 467//467 468//468
f  519//519 518//518 468//468
f  469//469 519//519 468//468
f  520//520 519//519 469//469
f  470//470 520//520 469//469
f  521//521 520//520 470//470
f  471//471 521//521 470//470
f  522//522 521//521 471//471
f  472//472 522//522 471//471
f  523//523 522//522 472//472
f  473//473 523//523 472//472
f  523//523 473//473 474//474
f  524//524 523//523 474//474
f  474//474 475//475 524//524
f  475//475 525//525 524//524
f  525//525 475//475 476//476
f  526//526 525//525 476//476
f  527//527 526//526 476//476
f  477//477 527//527 476//476
f  527//527 477//477 478//478
f  527//527 478//478 479//479
f  528//528 527//527 479//479
f  479//479 482//482 528//528
f  529//529 480//480 493//493
f  485//485 480//480 529//529
f  530//530 481//481 483//483
f  531//531 482//482 481//481
f  530//530 531//531 481//481
f  528//528 482//482 531//531
f  532//532 483//483 484//484
f  532//532 530//530 483//483
f  486//486 532//532 484//484
f  492//492 485//485 529//529
f  533//533 532//532 486//486
f  498//498 533//533 486//486
f  491//491 487//487 534//534
f  487//487 488//488 535//535
f  534//534 487//487 535//535
f  488//488 489//489 536//536
f  535//535 488//488 536//536
f  489//489 490//490 537//537
f  536//536 489//489 537//537
f  490//490 492//492 538//538
f  537//537 490//490 538//538
f  493//493 491//491 539//539
f  539//539 491//491 534//534
f  492//492 529//529 540//540
f  538//538 492//492 540//540
f  541//541 493//493 539//539
f  529//529 493//493 541//541
f  542//542 495//495 494//494
f  507//507 542//542 494//494
f  495//495 542//542 543//543
f  496//496 495//495 543//543
f  544//544 497//497 496//496
f  543//543 544//544 496//496
f  545//545 498//498 497//497
f  544//544 545//545 497//497
f  546//546 533//533 498//498
f  545//545 546//546 498//498
f  500//500 547//547 499//499
f  499//499 547//547 502//502
f  500//500 548//548 547//547
f  501//501 548//548 500//500
f  548//548 501//501 549//549
f  549//549 501//501 503//503
f  547//547 550//550 502//502
f  502//502 550//550 506//506
f  503//503 551//551 549//549
f  508//508 551//551 503//503
f  552//552 507//507 504//504
f  505//505 552//552 504//504
f  553//553 552//552 505//505
f  506//506 553//553 505//505
f  550//550 553//553 506//506
f  554//554 542//542 507//507
f  552//552 554//554 507//507
f  508//508 555//555 551//551
f  509//509 555//555 508//508
f  509//509 556//556 555//555
f  510//510 556//556 509//509
f  510//510 557//557 556//556
f  512//512 557//557 510//510
f  511//511 558//558 512//512
f  514//514 558//558 511//511
f  512//512 559//559 557//557
f  558//558 559//559 512//512
f  516//516 513//513 517//517
f  558//558 514//514 560//560
f  514//514 515//515 561//561
f  560//560 514//514 561//561
f  561//561 515//515 516//516
f  562//562 561//561 516//516
f  562//562 516//516 517//517
f  517//517 563//563 562//562
f  564//564 563//563 517//517
f  518//518 564//564 517//517
f  565//565 564//564 518//518
f  519//519 565//565 518//518
f  519//519 520//520 566//566
f  565//565 519//519 566//566
f  520//520 521//521 567//567
f  566//566 520//520 567//567
f  521//521 522//522 568//568
f  567//567 521//521 568//568
f  522//522 523//523 569//569
f  568//568 522//522 569//569
f  523//523 524//524 570//570
f  569//569 523//523 570//570
f  524//524 525//525 571//571
f  570//570 524//524 571//571
f  571//571 525//525 526//526
f  526//526 527//527 572//572
f  571//571 526//526 572//572
f  527//527 528//528 573//573
f  572//572 527//527 573//573
f  574//574 528//528 531//531
f  573//573 528//528 575//575
f  528//528 574//574 576//576
f  575//575 528//528 576//576
f  540//540 529//529 541//541
f  577//577 530//530 532//532
f  578//578 531//531 530//530
f  577//577 578//578 530//530
f  579//579 574//574 531//531
f  578//578 579//579 531//531
f  533//533 577//577 532//532
f  580//580 577//577 533//533
f  546//546 580//580 533//533
f  539//539 534//534 581//581
f  534//534 535//535 582//582
f  581//581 534//534 582//582
f  535//535 536//536 583//583
f  582//582 535//535 583//583
f  536//536 537//537 584//584
f  583//583 536//536 584//584
f  537//537 538//538 585//585
f  584//584 537//537 585//585
f  538//538 540//540 586//586
f  585//585 538//538 586//586
f  541//541 539//539 587//587
f  587//587 539//539 581//581
f  540//540 541//541 588//588
f  586//586 540//540 588//588
f  588//588 541//541 587//587
f  542//542 554//554 589//589
f  543//543 542//542 589//589
f  590//590 544//544 543//543
f  589//589 590//590 543//543
f  591//591 545//545 544//544
f  590//590 591//591 544//544
f  592//592 546//546 545//545
f  591//591 592//592 545//545
f  593//593 580//580 546//546
f  592//592 593//593 546//546
f  548//548 594//594 547//547
f  547//547 594//594 550//550
f  595//595 548//548 549//549
f  594//594 548//548 595//595
f  549//549 596//596 595//595
f  551//551 596//596 549//549
f  594//594 597//597 550//550
f  550//550 597//597 553//553
f  551//551 598//598 596//596
f  555//555 598//598 551//551
f  599//599 554//554 552//552
f  553//553 599//599 552//552
f  597//597 599//599 553//553
f  554//554 599//599 600//600
f  589//589 554//554 600//600
f  555//555 601//601 598//598
f  556//556 601//601 555//555
f  556//556 602//602 601//601
f  557//557 602//602 556//556
f  557//557 603//603 602//602
f  559//559 603//603 557//557
f  558//558 604//604 559//559
f  604//604 558//558 560//560
f  559//559 605//605 603//603
f  604//604 605//605 559//559
f  561//561 606//606 560//560
f  604//604 560//560 607//607
f  606//606 607//607 560//560
f  608//608 606//606 561//561
f  562//562 608//608 561//561
f  563//563 608//608 562//562
f  609//609 608//608 563//563
f  609//609 563//563 564//564
f  610//610 564//564 565//565
f  610//610 609//609 564//564
f  611//611 565//565 566//566
f  612//612 610//610 565//565
f  611//611 612//612 565//565
f  613//613 611//611 566//566
f  613//613 566//566 567//567
f  613//613 567//567 568//568
f  568//568 569//569 570//570
f  614//614 568//568 570//570
f  614//614 613//613 568//568
f  615//615 570//570 571//571
f  615//615 614//614 570//570
f  616//616 615//615 571//571
f  616//616 571//571 572//572
f  616//616 572//572 573//573
f  573//573 575//575 617//617
f  617//617 616//616 573//573
f  574//574 579//579 618//618
f  576//576 574//574 618//618
f  575//575 576//576 617//617
f  576//576 618//618 619//619
f  576//576 619//619 617//617
f  620//620 578//578 577//577
f  580//580 620//620 577//577
f  621//621 579//579 578//578
f  620//620 621//621 578//578
f  579//579 621//621 622//622
f  618//618 579//579 622//622
f  623//623 620//620 580//580
f  593//593 623//623 580//580
f  624//624 587//587 581//581
f  581//581 582//582 624//624
f  582//582 625//625 624//624
f  582//582 583//583 625//625
f  583//583 626//626 625//625
f  627//627 626//626 583//583
f  584//584 627//627 583//583
f  628//628 627//627 584//584
f  585//585 628//628 584//584
f  629//629 628//628 585//585
f  586//586 629//629 585//585
f  586//586 588//588 630//630
f  629//629 586//586 630//630
f  588//588 587//587 630//630
f  624//624 630//630 587//587
f  631//631 590//590 589//589
f  600//600 631//631 589//589
f  632//632 591//591 590//590
f  631//631 632//632 590//590
f  632//632 592//592 591//591
f  633//633 634//634 592//592
f  632//632 633//633 592//592
f  592//592 634//634 593//593
f  634//634 635//635 593//593
f  636//636 623//623 593//593
f  635//635 636//636 593//593
f  597//597 594//594 637//637
f  637//637 594//594 595//595
f  596//596 638//638 595//595
f  595//595 638//638 637//637
f  596//596 639//639 638//638
f  598//598 639//639 596//596
f  640//640 597//597 637//637
f  599//599 597//597 640//640
f  598//598 641//641 639//639
f  601//601 641//641 598//598
f  600//600 599//599 640//640
f  642//642 631//631 600//600
f  640//640 642//642 600//600
f  601//601 643//643 641//641
f  602//602 643//643 601//601
f  602//602 644//644 643//643
f  603//603 644//644 602//602
f  603//603 645//645 644//644
f  605//605 645//645 603//603
f  604//604 609//609 605//605
f  607//607 609//609 604//604
f  605//605 610//610 645//645
f  609//609 610//610 605//605
f  607//607 606//606 608//608
f  609//609 607//607 608//608
f  610//610 612//612 645//645
f  611//611 613//613 646//646
f  647//647 611//611 646//646
f  612//612 611//611 647//647
f  645//645 612//612 647//647
f  613//613 614//614 648//648
f  646//646 613//613 648//648
f  614//614 615//615 649//649
f  648//648 614//614 649//649
f  615//615 616//616 650//650
f  649//649 615//615 650//650
f  616//616 617//617 651//651
f  650//650 616//616 651//651
f  617//617 619//619 652//652
f  651//651 617//617 652//652
f  618//618 622//622 653//653
f  618//618 653//653 619//619
f  652//652 619//619 653//653
f  654//654 621//621 620//620
f  623//623 654//654 620//620
f  621//621 654//654 655//655
f  622//622 621//621 655//655
f  622//622 655//655 653//653
f  656//656 657//657 623//623
f  658//658 656//656 623//623
f  658//658 623//623 636//636
f  657//657 654//654 623//623
f  630//630 624//624 659//659
f  624//624 625//625 660//660
f  659//659 624//624 660//660
f  625//625 626//626 661//661
f  660//660 625//625 661//661
f  626//626 627//627 662//662
f  661//661 626//626 662//662
f  627//627 628//628 663//663
f  662//662 627//627 663//663
f  628//628 629//629 664//664
f  663//663 628//628 664//664
f  629//629 630//630 665//665
f  664//664 629//629 665//665
f  665//665 630//630 659//659
f  666//666 667//667 631//631
f  642//642 666//666 631//631
f  631//631 667//667 632//632
f  667//667 633//633 632//632
f  633//633 668//668 634//634
f  669//669 668//668 633//633
f  667//667 669//669 633//633
f  668//668 670//670 634//634
f  634//634 670//670 635//635
f  670//670 671//671 635//635
f  635//635 671//671 636//636
f  671//671 672//672 636//636
f  673//673 658//658 636//636
f  636//636 672//672 673//673
f  638//638 674//674 637//637
f  637//637 674//674 640//640
f  638//638 675//675 674//674
f  639//639 675//675 638//638
f  639//639 676//676 675//675
f  641//641 676//676 639//639
f  674//674 642//642 640//640
f  641//641 677//677 676//676
f  643//643 677//677 641//641
f  678//678 679//679 642//642
f  674//674 678//678 642//642
f  642//642 679//679 680//680
f  666//666 642//642 680//680
f  643//643 681//681 677//677
f  644//644 681//681 643//643
f  644//644 647//647 681//681
f  645//645 647//647 644//644
f  646//646 648//648 682//682
f  681//681 646//646 682//682
f  647//647 646//646 681//681
f  648//648 649//649 683//683
f  682//682 648//648 683//683
f  649//649 650//650 683//683
f  650//650 651//651 684//684
f  685//685 650//650 684//684
f  650//650 685//685 683//683
f  651//651 652//652 684//684
f  652//652 656//656 658//658
f  686//686 652//652 658//658
f  652//652 686//686 684//684
f  656//656 652//652 653//653
f  654//654 657//657 653//653
f  655//655 654//654 653//653
f  653//653 657//657 656//656
f  686//686 658//658 687//687
f  658//658 673//673 688//688
f  687//687 658//658 688//688
f  659//659 660//660 661//661
f  659//659 661//661 689//689
f  690//690 659//659 689//689
f  659//659 690//690 691//691
f  665//665 659//659 691//691
f  692//692 689//689 661//661
f  662//662 692//692 661//661
f  663//663 692//692 662//662
f  663//663 664//664 692//692
f  665//665 691//691 664//664
f  664//664 691//691 692//692
f  666//666 693//693 667//667
f  694//694 693//693 666//666
f  680//680 694//694 666//666
f  693//693 669//669 667//667
f  668//668 695//695 670//670
f  696//696 695//695 668//668
f  669//669 696//696 668//668
f  697//697 696//696 669//669
f  693//693 697//697 669//669
f  695//695 698//698 670//670
f  670//670 698//698 671//671
f  698//698 699//699 671//671
f  671//671 699//699 672//672
f  699//699 700//700 672//672
f  672//672 701//701 673//673
f  672//672 700//700 701//701
f  673//673 701//701 688//688
f  675//675 678//678 674//674
f  675//675 702//702 678//678
f  676//676 702//702 675//675
f  676//676 703//703 702//702
f  677//677 703//703 676//676
f  677//677 682//682 703//703
f  681//681 682//682 677//677
f  678//678 704//704 679//679
f  702//702 704//704 678//678
f  704//704 705//705 679//679
f  679//679 706//706 680//680
f  705//705 706//706 679//679
f  706//706 707//707 680//680
f  708//708 694//694 680//680
f  707//707 708//708 680//680
f  682//682 683//683 703//703
f  683//683 685//685 709//709
f  703//703 683//683 709//709
f  684//684 686//686 710//710
f  711//711 684//684 710//710
f  685//685 684//684 711//711
f  709//709 685//685 711//711
f  710//710 686//686 687//687
f  710//710 687//687 706//706
f  706//706 687//687 688//688
f  688//688 712//712 707//707
f  707//707 706//706 688//688
f  701//701 712//712 688//688
f  690//690 689//689 692//692
f  691//691 690//690 692//692
f  713//713 697//697 693//693
f  694//694 713//713 693//693
f  714//714 713//713 694//694
f  708//708 714//714 694//694
f  695//695 715//715 698//698
f  716//716 715//715 695//695
f  696//696 716//716 695//695
f  717//717 716//716 696//696
f  697//697 717//717 696//696
f  718//718 717//717 697//697
f  713//713 718//718 697//697
f  715//715 719//719 698//698
f  698//698 719//719 699//699
f  719//719 720//720 699//699
f  699//699 720//720 700//700
f  720//720 721//721 700//700
f  700//700 722//722 701//701
f  700//700 721//721 722//722
f  701//701 722//722 712//712
f  702//702 709//709 704//704
f  703//703 709//709 702//702
f  704//704 711//711 705//705
f  709//709 711//711 704//704
f  705//705 710//710 706//706
f  711//711 710//710 705//705
f  712//712 708//708 707//707
f  723//723 714//714 708//708
f  712//712 723//723 708//708
f  722//722 723//723 712//712
f  724//724 718//718 713//713
f  714//714 724//724 713//713
f  725//725 724//724 714//714
f  723//723 725//725 714//714
f  715//715 726//726 719//719
f  727//727 726//726 715//715
f  716//716 727//727 715//715
f  728//728 727//727 716//716
f  717//717 728//728 716//716
f  729//729 728//728 717//717
f  718//718 729//729 717//717
f  730//730 729//729 718//718
f  724//724 730//730 718//718
f  726//726 731//731 719//719
f  719//719 731//731 720//720
f  731//731 732//732 720//720
f  720//720 732//732 721//721
f  721//721 733//733 722//722
f  721//721 734//734 733//733
f  732//732 734//734 721//721
f  722//722 733//733 723//723
f  733//733 725//725 723//723
f  735//735 730//730 724//724
f  725//725 735//735 724//724
f  736//736 735//735 725//725
f  733//733 736//736 725//725
f  726//726 737//737 731//731
f  738//738 737//737 726//726
f  727//727 738//738 726//726
f  739//739 738//738 727//727
f  728//728 739//739 727//727
f  740//740 739//739 728//728
f  729//729 740//740 728//728
f  741//741 740//740 729//729
f  730//730 741//741 729//729
f  742//742 741//741 730//730
f  735//735 742//742 730//730
f  737//737 743//743 731//731
f  731//731 743//743 732//732
f  732//732 744//744 734//734
f  743//743 744//744 732//732
f  734//734 736//736 733//733
f  734//734 745//745 736//736
f  744//744 745//745 734//734
f  746//746 742//742 735//735
f  736//736 746//746 735//735
f  745//745 746//746 736//736
f  737//737 747//747 743//743
f  748//748 747//747 737//737
f  738//738 748//748 737//737
f  749//749 748//748 738//738
f  739//739 749//749 738//738
f  750//750 749//749 739//739
f  740//740 750//750 739//739
f  751//751 750//750 740//740
f  741//741 751//751 740//740
f  752//752 751//751 741//741
f  742//742 752//752 741//741
f  753//753 752//752 742//742
f  746//746 753//753 742//742
f  747//747 754//754 743//743
f  743//743 754//754 744//744
f  744//744 755//755 745//745
f  754//754 755//755 744//744
f  745//745 756//756 746//746
f  755//755 756//756 745//745
f  756//756 753//753 746//746
f  747//747 757//757 754//754
f  758//758 757//757 747//747
f  748//748 758//758 747//747
f  759//759 758//758 748//748
f  749//749 759//759 748//748
f  760//760 759//759 749//749
f  750//750 760//760 749//749
f  761//761 760//760 750//750
f  751//751 761//761 750//750
f  762//762 761//761 751//751
f  752//752 762//762 751//751
f  763//763 762//762 752//752
f  753//753 763//763 752//752
f  764//764 763//763 753//753
f  756//756 764//764 753//753
f  757//757 765//765 754//754
f  754//754 765//765 755//755
f  755//755 766//766 756//756
f  765//765 766//766 755//755
f  766//766 764//764 756//756
f  767//767 765//765 757//757
f  768//768 767//767 757//757
f  758//758 768//768 757//757
f  758//758 759//759 768//768
f  759//759 760//760 769//769
f  768//768 759//759 769//769
f  760//760 761//761 769//769
f  761//761 762//762 770//770
f  769//769 761//761 770//770
f  762//762 763//763 770//770
f  770//770 763//763 764//764
f  764//764 766//766 767//767
f  767//767 770//770 764//764
f  766//766 765//765 767//767
f  770//770 767//767 769//769
f  767//767 768//768 769//769
