# 
# Wavefront OBJ file
# Converted by the DEEP Exploration 2.00.1211
# Right Hemisphere, LTD
# http://www.righthemisphere.com/
# 
mtllib talus_l.mtl
# object Object #0
g Object__0
v -0.017534 -0.005246 0.001672
v -0.014889 -0.003873 0.007677
v -0.015336 -0.001551 0.00502
v -0.016408 -0.00083 -0.00114
v -0.015134 -0.008536 0.006469
v -0.016145 -0.010144 0.00075
v -0.016894 -0.007941 -0.003632
v -0.017213 -0.003912 -0.005621
v -0.008588 0.000332 0.016332
v -0.008109 -0.002159 0.019176
v -0.009812 0.007641 0.009034
v -0.011834 0.005902 -0.002472
v -0.008156 -0.009375 0.01921
v -0.009509 -0.01258 0.011591
v -0.011753 -0.010061 -0.00135
v -0.01279 -0.004056 -0.007535
v -0.0132 0.000823 -0.010083
v -0.001819 0.005419 0.018558
v -0.001849 0.000647 0.01858
v -0.002403 0.00825 0.015098
v -0.00404 0.007768 0.005741
v -0.006053 0.005974 -0.005703
v -0.001458 -0.007187 0.021141
v -0.002952 -0.008916 0.012653
v -0.003984 -0.008991 0.006743
v -0.005343 -0.005775 -0.001153
v -0.006902 -0.002506 -0.010219
v -0.007451 -0.00081 -0.013429
v -0.007312 0.002544 -0.012766
v 0.004224 0.009586 0.016663
v 0.004404 0.007373 0.017781
v 0.004365 0.001236 0.01781
v 0.004701 -0.003588 0.019925
v 0.002786 0.008425 0.00848
v 0.001097 0.00851 -0.001186
v -0.001113 0.005804 -0.013734
v -0.000964 0.010692 -0.01308
v -0.000284 0.011101 -0.009203
v 0.004377 -0.007229 0.018219
v 0.00249 -0.006067 0.007377
v 0.001319 -0.004212 0.000596
v 2e-005 -0.007415 -0.006716
v -0.001083 -0.008286 -0.012991
v -0.00132 -0.006472 -0.014416
v -0.000879 -0.001465 -0.0121
v 0.011067 0.007573 0.019597
v 0.010816 0.012 0.017977
v 0.009372 0.011465 0.009729
v 0.01082 0.000922 0.018459
v 0.009053 -0.001794 0.014086
v 0.008875 -0.005986 0.007593
v 0.007844 0.009961 0.001054
v 0.006297 0.011924 -0.007881
v 0.004587 -0.001967 -0.017112
v 0.004393 0.00479 -0.018499
v 0.004559 0.012634 -0.01786
v 0.008122 -0.007476 0.003352
v 0.006425 -0.008924 -0.006307
v 0.006094 -0.010033 -0.013227
v 0.005313 -0.007488 -0.017794
v 0.005255 -0.006007 -0.018306
v 0.016815 0.009007 0.016115
v 0.017353 0.005721 0.019331
v 0.017451 -0.000811 0.020162
v 0.016136 -0.006458 0.012861
v 0.01356 0.00969 -0.002543
v 0.011494 0.011417 -0.014434
v 0.011431 -0.001992 -0.014249
v 0.011223 0.000789 -0.015554
v 0.010979 0.006466 -0.017182
v 0.011171 0.011412 -0.016281
v 0.01559 -0.009308 0.009858
v 0.014124 -0.006605 0.00135
v 0.012082 -0.006072 -0.010352
v 0.011014 -0.007055 -0.016441
v 0.011147 -0.004553 -0.015775
v 0.022744 0.005558 0.013885
v 0.020859 0.006719 0.003044
v 0.022406 0.006518 0.011911
v 0.023483 -0.001929 0.018414
v 0.023415 -0.005737 0.018186
v 0.02278 -0.007622 0.014624
v 0.022242 -0.007858 0.011547
v 0.018882 0.006971 -0.008285
v 0.018275 0.006335 -0.01173
v 0.017952 -0.004124 -0.013159
v 0.018189 -0.002245 -0.011876
v 0.018252 0.002869 -0.011715
v 0.021713 -0.009799 0.0086
v 0.020847 -0.008734 0.003608
v 0.018541 -0.005932 -0.009704
v 0.01814 -0.006563 -0.011979
v 0.028566 0.003528 0.010972
v 0.026307 0.005194 -0.002026
v 0.027208 -0.00388 0.003496
v 0.025728 0.002231 -0.005214
v 0.024665 -0.000969 -0.011172
v 0.028607 -0.002131 0.002356
v 0.027173 -0.000849 -0.005899
# 99 verticies
vn -0.984265 0.011936 0.176293
vn -0.884378 0.155129 0.440239
vn -0.881134 0.337451 0.331255
vn -0.898502 0.435855 0.052204
vn -0.869961 -0.282957 0.40386
vn -0.679513 -0.733648 -0.004715
vn -0.622549 -0.607217 -0.493681
vn -0.899095 0.059706 -0.433663
vn -0.658053 0.399097 0.638504
vn -0.642919 0.229425 0.730766
vn -0.624447 0.726816 0.286013
vn -0.545305 0.812575 -0.205826
vn -0.451074 -0.320908 0.832797
vn 0.00186 -0.994146 0.108034
vn 0.161968 -0.875632 -0.45501
vn -0.238574 -0.634941 -0.734801
vn -0.609178 0.316905 -0.726962
vn -0.300423 0.4212 0.855767
vn -0.066092 0.22686 0.971682
vn -0.246636 0.942233 0.226643
vn -0.11655 0.990628 -0.071219
vn -0.490913 0.844728 -0.213165
vn 0.191785 -0.608722 0.769854
vn 0.368169 -0.929754 -0.003059
vn 0.426912 -0.868884 -0.250574
vn 0.223523 -0.947137 -0.23015
vn -0.282551 -0.79361 -0.538839
vn -0.210187 -0.403423 -0.890545
vn -0.44274 0.573721 -0.689076
vn -0.301471 0.794507 0.527138
vn -0.067669 0.126459 0.989661
vn 0.185939 -0.236174 0.953755
vn 0.574257 0.059589 0.816503
vn -0.235551 0.971189 -0.036159
vn -0.268194 0.951036 0.153633
vn -0.559984 0.111464 -0.820971
vn -0.744623 0.466683 -0.477225
vn -0.380108 0.91116 0.159076
vn 0.423532 -0.866679 0.263605
vn 0.145938 -0.985449 -0.087131
vn -0.046851 -0.998635 0.02308
vn -0.30016 -0.932608 0.200366
vn -0.503841 -0.818145 -0.277096
vn -0.555042 -0.126821 -0.822098
vn -0.402041 -0.070554 -0.912899
vn -0.027108 0.2658 0.963647
vn 0.066705 0.837196 0.542819
vn -0.059167 0.992021 -0.111326
vn -0.187314 -0.322444 0.92787
vn -0.209881 -0.803791 0.55666
vn 0.113172 -0.867602 0.484209
vn -0.036964 0.998731 0.034212
vn -0.011992 0.984959 0.172373
vn -0.197653 -0.097234 -0.975438
vn -0.236761 -0.06435 -0.969435
vn -0.079123 0.847 -0.525672
vn -0.252674 -0.951218 0.177033
vn 0.020684 -0.985686 0.167317
vn 0.100825 -0.99129 -0.084725
vn -0.060611 -0.526594 -0.847953
vn -0.114802 0.144096 -0.982882
vn 0.43496 0.868448 0.237924
vn 0.285738 0.346577 0.893442
vn -0.189359 -0.453221 0.871053
vn -0.343368 -0.785723 0.514527
vn 0.296184 0.954067 0.045069
vn 0.400338 0.915672 -0.035695
vn 0.336647 0.183101 -0.923657
vn 0.370229 -0.236454 -0.898343
vn 0.41258 -0.02039 -0.910693
vn 0.51388 0.628708 -0.583656
vn -0.175726 -0.962266 0.207763
vn 0.017787 -0.993046 -0.116377
vn 0.171084 -0.984368 0.041834
vn 0.417308 -0.665306 -0.619049
vn 0.364284 0.127392 -0.922534
vn 0.564402 0.648555 0.510713
vn 0.33887 0.940167 -0.035414
vn 0.4248 0.897499 0.118491
vn 0.550944 0.20055 0.810087
vn 0.492145 -0.57083 0.657226
vn 0.277121 -0.938083 0.207857
vn 0.278494 -0.894529 0.349657
vn 0.529929 0.825351 -0.194864
vn 0.703943 0.441703 -0.556204
vn 0.303156 0.177885 -0.936191
vn 0.308717 0.314791 -0.897552
vn 0.584963 -0.038911 -0.810126
vn 0.384346 -0.918649 0.091442
vn 0.178094 -0.958369 -0.223184
vn 0.336884 -0.941086 -0.029443
vn 0.441195 -0.766797 -0.46623
vn 0.918489 0.274843 0.284321
vn 0.607451 0.756845 -0.241223
vn 0.758284 -0.651892 0.006469
vn 0.631597 0.491223 -0.59982
vn 0.700681 -0.402369 -0.589191
vn 0.852495 -0.515648 -0.085786
vn 0.932887 0.121457 -0.339072
# 99 normals
usemtl Material__1
f  1//1 2//2 3//3
f  1//1 3//3 4//4
f  1//1 5//5 2//2
f  1//1 6//6 5//5
f  1//1 7//7 6//6
f  1//1 8//8 7//7
f  1//1 4//4 8//8
f  3//3 2//2 9//9
f  2//2 10//10 9//9
f  2//2 5//5 10//10
f  3//3 9//9 11//11
f  4//4 3//3 11//11
f  8//8 4//4 12//12
f  4//4 11//11 12//12
f  5//5 13//13 10//10
f  5//5 14//14 13//13
f  5//5 6//6 14//14
f  6//6 15//15 14//14
f  6//6 7//7 15//15
f  7//7 16//16 15//15
f  7//7 8//8 16//16
f  8//8 17//17 16//16
f  8//8 12//12 17//17
f  11//11 9//9 18//18
f  9//9 19//19 18//18
f  9//9 10//10 19//19
f  10//10 13//13 19//19
f  11//11 18//18 20//20
f  12//12 11//11 21//21
f  11//11 20//20 21//21
f  17//17 12//12 22//22
f  12//12 21//21 22//22
f  13//13 23//23 19//19
f  13//13 14//14 23//23
f  14//14 24//24 23//23
f  14//14 25//25 24//24
f  14//14 15//15 25//25
f  15//15 26//26 25//25
f  15//15 27//27 26//26
f  15//15 16//16 27//27
f  16//16 28//28 27//27
f  16//16 17//17 28//28
f  17//17 29//29 28//28
f  17//17 22//22 29//29
f  20//20 18//18 30//30
f  18//18 31//31 30//30
f  18//18 19//19 31//31
f  19//19 32//32 31//31
f  19//19 33//33 32//32
f  19//19 23//23 33//33
f  21//21 20//20 34//34
f  20//20 30//30 34//34
f  22//22 21//21 35//35
f  21//21 34//34 35//35
f  29//29 22//22 36//36
f  22//22 37//37 36//36
f  22//22 38//38 37//37
f  22//22 35//35 38//38
f  23//23 39//39 33//33
f  23//23 24//24 39//39
f  24//24 40//40 39//39
f  24//24 25//25 40//40
f  25//25 41//41 40//40
f  25//25 26//26 41//41
f  26//26 42//42 41//41
f  26//26 27//27 42//42
f  27//27 43//43 42//42
f  27//27 44//44 43//43
f  27//27 45//45 44//44
f  27//27 28//28 45//45
f  28//28 36//36 45//45
f  28//28 29//29 36//36
f  30//30 46//46 47//47
f  30//30 31//31 46//46
f  34//34 30//30 48//48
f  30//30 47//47 48//48
f  31//31 49//49 46//46
f  31//31 32//32 49//49
f  32//32 50//50 49//49
f  32//32 51//51 50//50
f  32//32 33//33 51//51
f  33//33 39//39 51//51
f  35//35 34//34 52//52
f  34//34 48//48 52//52
f  38//38 35//35 53//53
f  35//35 52//52 53//53
f  45//45 36//36 54//54
f  36//36 55//55 54//54
f  36//36 37//37 55//55
f  37//37 56//56 55//55
f  37//37 38//38 56//56
f  38//38 53//53 56//56
f  39//39 40//40 51//51
f  40//40 57//57 51//51
f  40//40 41//41 57//57
f  41//41 58//58 57//57
f  41//41 42//42 58//58
f  42//42 59//59 58//58
f  42//42 43//43 59//59
f  43//43 60//60 59//59
f  43//43 44//44 60//60
f  44//44 61//61 60//60
f  44//44 45//45 61//61
f  45//45 54//54 61//61
f  47//47 46//46 62//62
f  46//46 63//63 62//62
f  46//46 49//49 63//63
f  48//48 47//47 62//62
f  52//52 48//48 62//62
f  49//49 64//64 63//63
f  49//49 50//50 64//64
f  50//50 51//51 64//64
f  51//51 65//65 64//64
f  51//51 57//57 65//65
f  53//53 52//52 66//66
f  52//52 62//62 66//66
f  56//56 53//53 67//67
f  53//53 66//66 67//67
f  61//61 54//54 68//68
f  54//54 69//69 68//68
f  54//54 55//55 69//69
f  55//55 70//70 69//69
f  55//55 56//56 70//70
f  56//56 71//71 70//70
f  56//56 67//67 71//71
f  57//57 72//72 65//65
f  57//57 73//73 72//72
f  57//57 58//58 73//73
f  58//58 74//74 73//73
f  58//58 59//59 74//74
f  59//59 75//75 74//74
f  59//59 60//60 75//75
f  60//60 76//76 75//75
f  60//60 61//61 76//76
f  61//61 68//68 76//76
f  62//62 63//63 77//77
f  66//66 62//62 78//78
f  62//62 79//79 78//78
f  62//62 77//77 79//79
f  63//63 80//80 77//77
f  63//63 64//64 80//80
f  64//64 81//81 80//80
f  64//64 65//65 81//81
f  65//65 82//82 81//81
f  65//65 83//83 82//82
f  65//65 72//72 83//83
f  67//67 66//66 84//84
f  66//66 78//78 84//84
f  71//71 67//67 85//85
f  67//67 84//84 85//85
f  76//76 68//68 86//86
f  68//68 87//87 86//86
f  68//68 69//69 87//87
f  69//69 88//88 87//87
f  69//69 70//70 88//88
f  70//70 85//85 88//88
f  70//70 71//71 85//85
f  72//72 89//89 83//83
f  72//72 90//90 89//89
f  72//72 73//73 90//90
f  73//73 74//74 90//90
f  74//74 91//91 90//90
f  74//74 92//92 91//91
f  74//74 75//75 92//92
f  75//75 76//76 92//92
f  76//76 86//86 92//92
f  77//77 80//80 93//93
f  79//79 77//77 93//93
f  84//84 78//78 94//94
f  78//78 79//79 94//94
f  79//79 93//93 94//94
f  80//80 81//81 93//93
f  81//81 95//95 93//93
f  81//81 82//82 95//95
f  82//82 83//83 95//95
f  83//83 89//89 95//95
f  85//85 84//84 96//96
f  84//84 94//94 96//96
f  88//88 85//85 96//96
f  92//92 86//86 97//97
f  86//86 87//87 97//97
f  87//87 96//96 97//97
f  87//87 88//88 96//96
f  89//89 90//90 95//95
f  90//90 97//97 95//95
f  90//90 91//91 97//97
f  91//91 92//92 97//97
f  93//93 95//95 98//98
f  94//94 93//93 99//99
f  93//93 98//98 99//99
f  96//96 94//94 99//99
f  95//95 97//97 98//98
f  97//97 96//96 99//99
f  97//97 99//99 98//98
