# 
# Wavefront OBJ file
# Converted by the DEEP Exploration 2.00.1211
# Right Hemisphere, LTD
# http://www.righthemisphere.com/
# 
mtllib talus.mtl
# object Object #0
g Object__0
v 0.033434 0.040399 0.07848
v 0.033881 0.038077 0.075823
v 0.031236 0.036704 0.081828
v 0.032362 0.04112 0.08464
v 0.038958 0.049591 0.074466
v 0.040182 0.042282 0.067168
v 0.033636 0.033414 0.077031
v 0.040661 0.039791 0.064324
v 0.032625 0.031806 0.08275
v 0.031876 0.034009 0.087132
v 0.031557 0.038038 0.089121
v 0.036936 0.047852 0.085972
v 0.046367 0.0502 0.068402
v 0.046951 0.047369 0.064942
v 0.04473 0.049718 0.077759
v 0.046921 0.042597 0.06492
v 0.040614 0.032575 0.06429
v 0.039261 0.02937 0.071909
v 0.037017 0.031889 0.08485
v 0.03598 0.037894 0.091035
v 0.03557 0.042773 0.093583
v 0.042717 0.047924 0.089203
v 0.052994 0.051536 0.066837
v 0.051556 0.050375 0.07502
v 0.053174 0.049323 0.065719
v 0.049867 0.05046 0.084686
v 0.047312 0.034763 0.062359
v 0.053135 0.043186 0.06569
v 0.053471 0.038362 0.063575
v 0.045818 0.033034 0.070847
v 0.044786 0.032959 0.076757
v 0.043427 0.036175 0.084653
v 0.041868 0.039444 0.093719
v 0.041319 0.04114 0.096929
v 0.041458 0.044494 0.096266
v 0.047657 0.047754 0.097234
v 0.047806 0.052642 0.09658
v 0.048486 0.053051 0.092703
v 0.059586 0.05395 0.065523
v 0.059837 0.049523 0.063903
v 0.058142 0.053415 0.073771
v 0.056614 0.051911 0.082446
v 0.05959 0.042872 0.065041
v 0.055067 0.053874 0.091381
v 0.053147 0.034721 0.065281
v 0.057823 0.040156 0.069414
v 0.057645 0.035964 0.075907
v 0.05126 0.035883 0.076123
v 0.050089 0.037738 0.082904
v 0.04879 0.034535 0.090216
v 0.047687 0.033664 0.096491
v 0.04745 0.035478 0.097916
v 0.047891 0.040485 0.0956
v 0.053357 0.039983 0.100612
v 0.053163 0.04674 0.101999
v 0.053329 0.054584 0.10136
v 0.065585 0.050957 0.067385
v 0.066123 0.047671 0.064169
v 0.06233 0.05164 0.086043
v 0.066221 0.041139 0.063338
v 0.060264 0.053367 0.097934
v 0.056892 0.034474 0.080148
v 0.064906 0.035492 0.070639
v 0.055195 0.033026 0.089807
v 0.054864 0.031917 0.096727
v 0.054083 0.034462 0.101294
v 0.054025 0.035943 0.101806
v 0.060201 0.039958 0.097749
v 0.059993 0.042739 0.099054
v 0.059749 0.048416 0.100682
v 0.059941 0.053362 0.099781
v 0.071514 0.047508 0.069615
v 0.069629 0.048669 0.080456
v 0.071176 0.048468 0.071589
v 0.072253 0.040021 0.065086
v 0.067652 0.048921 0.091785
v 0.072185 0.036213 0.065314
v 0.067045 0.048285 0.09523
v 0.06436 0.032642 0.073642
v 0.062894 0.035345 0.08215
v 0.07155 0.034328 0.068876
v 0.071012 0.034092 0.071953
v 0.060852 0.035878 0.093852
v 0.059784 0.034895 0.099941
v 0.059917 0.037397 0.099275
v 0.066722 0.037826 0.096659
v 0.066959 0.039705 0.095376
v 0.067022 0.044819 0.095215
v 0.077336 0.045478 0.072528
v 0.075077 0.047144 0.085526
v 0.074498 0.044181 0.088714
v 0.075978 0.03807 0.080004
v 0.070483 0.032151 0.0749
v 0.069617 0.033216 0.079892
v 0.067311 0.036018 0.093204
v 0.06691 0.035387 0.095479
v 0.073435 0.040981 0.094672
v 0.077377 0.039819 0.081144
v 0.075943 0.041101 0.089399
v 0.031236 0.036704 -0.081828
v 0.033881 0.038077 -0.075823
v 0.033434 0.040399 -0.07848
v 0.032362 0.04112 -0.08464
v 0.033636 0.033414 -0.077031
v 0.032625 0.031806 -0.08275
v 0.031876 0.034009 -0.087132
v 0.031557 0.038038 -0.089121
v 0.040182 0.042282 -0.067168
v 0.040661 0.039791 -0.064324
v 0.038958 0.049591 -0.074466
v 0.036936 0.047852 -0.085972
v 0.040614 0.032575 -0.06429
v 0.039261 0.02937 -0.071909
v 0.037017 0.031889 -0.08485
v 0.03598 0.037894 -0.091035
v 0.03557 0.042773 -0.093583
v 0.046951 0.047369 -0.064942
v 0.046921 0.042597 -0.06492
v 0.046367 0.0502 -0.068402
v 0.04473 0.049718 -0.077759
v 0.042717 0.047924 -0.089203
v 0.047312 0.034763 -0.062359
v 0.045818 0.033034 -0.070847
v 0.044786 0.032959 -0.076757
v 0.043427 0.036175 -0.084653
v 0.041868 0.039444 -0.093719
v 0.041319 0.04114 -0.096929
v 0.041458 0.044494 -0.096266
v 0.052994 0.051536 -0.066837
v 0.053174 0.049323 -0.065719
v 0.053135 0.043186 -0.06569
v 0.053471 0.038362 -0.063575
v 0.051556 0.050375 -0.07502
v 0.049867 0.05046 -0.084686
v 0.047657 0.047754 -0.097234
v 0.047806 0.052642 -0.09658
v 0.048486 0.053051 -0.092703
v 0.053147 0.034721 -0.065281
v 0.05126 0.035883 -0.076123
v 0.050089 0.037738 -0.082904
v 0.04879 0.034535 -0.090216
v 0.047687 0.033664 -0.096491
v 0.04745 0.035478 -0.097916
v 0.047891 0.040485 -0.0956
v 0.059837 0.049523 -0.063903
v 0.059586 0.05395 -0.065523
v 0.058142 0.053415 -0.073771
v 0.05959 0.042872 -0.065041
v 0.057823 0.040156 -0.069414
v 0.057645 0.035964 -0.075907
v 0.056614 0.051911 -0.082446
v 0.055067 0.053874 -0.091381
v 0.053357 0.039983 -0.100612
v 0.053163 0.04674 -0.101999
v 0.053329 0.054584 -0.10136
v 0.056892 0.034474 -0.080148
v 0.055195 0.033026 -0.089807
v 0.054864 0.031917 -0.096727
v 0.054083 0.034462 -0.101294
v 0.054025 0.035943 -0.101806
v 0.065585 0.050957 -0.067385
v 0.066123 0.047671 -0.064169
v 0.066221 0.041139 -0.063338
v 0.064906 0.035492 -0.070639
v 0.06233 0.05164 -0.086043
v 0.060264 0.053367 -0.097934
v 0.060201 0.039958 -0.097749
v 0.059993 0.042739 -0.099054
v 0.059749 0.048416 -0.100682
v 0.059941 0.053362 -0.099781
v 0.06436 0.032642 -0.073642
v 0.062894 0.035345 -0.08215
v 0.060852 0.035878 -0.093852
v 0.059784 0.034895 -0.099941
v 0.059917 0.037397 -0.099275
v 0.071514 0.047508 -0.069615
v 0.069629 0.048669 -0.080456
v 0.071176 0.048468 -0.071589
v 0.072253 0.040021 -0.065086
v 0.072185 0.036213 -0.065314
v 0.07155 0.034328 -0.068876
v 0.071012 0.034092 -0.071953
v 0.067652 0.048921 -0.091785
v 0.067045 0.048285 -0.09523
v 0.066722 0.037826 -0.096659
v 0.066959 0.039705 -0.095376
v 0.067022 0.044819 -0.095215
v 0.070483 0.032151 -0.0749
v 0.069617 0.033216 -0.079892
v 0.067311 0.036018 -0.093204
v 0.06691 0.035387 -0.095479
v 0.077336 0.045478 -0.072528
v 0.075077 0.047144 -0.085526
v 0.075978 0.03807 -0.080004
v 0.074498 0.044181 -0.088714
v 0.073435 0.040981 -0.094672
v 0.077377 0.039819 -0.081144
v 0.075943 0.041101 -0.089399
# 198 verticies
vn -0.881134 0.337451 -0.331255
vn -0.884378 0.155129 -0.440239
vn -0.984265 0.011936 -0.176293
vn -0.898502 0.435855 -0.052204
vn -0.624447 0.726816 -0.286013
vn -0.658053 0.399097 -0.638504
vn -0.869961 -0.282957 -0.40386
vn -0.642919 0.229425 -0.730766
vn -0.679513 -0.733648 0.004715
vn -0.622549 -0.607217 0.493681
vn -0.899095 0.059706 0.433663
vn -0.545305 0.812575 0.205826
vn -0.246636 0.942233 -0.226643
vn -0.300423 0.4212 -0.855767
vn -0.11655 0.990628 0.071219
vn -0.066092 0.22686 -0.971682
vn -0.451074 -0.320908 -0.832797
vn 0.00186 -0.994146 -0.108034
vn 0.161968 -0.875632 0.45501
vn -0.238574 -0.634941 0.734801
vn -0.609178 0.316905 0.726962
vn -0.490913 0.844728 0.213165
vn -0.301471 0.794507 -0.527138
vn -0.235551 0.971189 0.036159
vn -0.067669 0.126459 -0.989661
vn -0.268194 0.951036 -0.153633
vn 0.191785 -0.608722 -0.769854
vn 0.185939 -0.236174 -0.953755
vn 0.574257 0.059589 -0.816503
vn 0.368169 -0.929754 0.003059
vn 0.426912 -0.868884 0.250574
vn 0.223523 -0.947137 0.23015
vn -0.282551 -0.79361 0.538839
vn -0.210187 -0.403423 0.890545
vn -0.44274 0.573721 0.689076
vn -0.559984 0.111464 0.820971
vn -0.744623 0.466683 0.477225
vn -0.380108 0.91116 -0.159076
vn 0.066705 0.837196 -0.542819
vn -0.027108 0.2658 -0.963647
vn -0.059167 0.992021 0.111326
vn -0.036964 0.998731 -0.034212
vn -0.187314 -0.322444 -0.92787
vn -0.011992 0.984959 -0.172373
vn 0.423532 -0.866679 -0.263605
vn -0.209881 -0.803791 -0.55666
vn 0.113172 -0.867602 -0.484209
vn 0.145938 -0.985449 0.087131
vn -0.046851 -0.998635 -0.02308
vn -0.30016 -0.932608 -0.200366
vn -0.503841 -0.818145 0.277096
vn -0.555042 -0.126821 0.822098
vn -0.402041 -0.070554 0.912899
vn -0.197653 -0.097234 0.975438
vn -0.236761 -0.06435 0.969435
vn -0.079123 0.847 0.525672
vn 0.43496 0.868448 -0.237924
vn 0.285738 0.346577 -0.893442
vn 0.296184 0.954067 -0.045069
vn -0.189359 -0.453221 -0.871053
vn 0.400338 0.915672 0.035695
vn -0.252674 -0.951218 -0.177033
vn -0.343368 -0.785723 -0.514527
vn 0.020684 -0.985686 -0.167317
vn 0.100825 -0.99129 0.084725
vn -0.060611 -0.526594 0.847953
vn -0.114802 0.144096 0.982882
vn 0.336647 0.183101 0.923657
vn 0.370229 -0.236454 0.898343
vn 0.41258 -0.02039 0.910693
vn 0.51388 0.628708 0.583656
vn 0.564402 0.648555 -0.510713
vn 0.33887 0.940167 0.035414
vn 0.4248 0.897499 -0.118491
vn 0.550944 0.20055 -0.810087
vn 0.529929 0.825351 0.194864
vn 0.492145 -0.57083 -0.657226
vn 0.703943 0.441703 0.556204
vn -0.175726 -0.962266 -0.207763
vn 0.017787 -0.993046 0.116377
vn 0.277121 -0.938083 -0.207857
vn 0.278494 -0.894529 -0.349657
vn 0.171084 -0.984368 -0.041834
vn 0.417308 -0.665306 0.619049
vn 0.364284 0.127392 0.922534
vn 0.303156 0.177885 0.936191
vn 0.308717 0.314791 0.897552
vn 0.584963 -0.038911 0.810126
vn 0.918489 0.274843 -0.284321
vn 0.607451 0.756845 0.241223
vn 0.631597 0.491223 0.59982
vn 0.758284 -0.651892 -0.006469
vn 0.384346 -0.918649 -0.091442
vn 0.178094 -0.958369 0.223184
vn 0.336884 -0.941086 0.029443
vn 0.441195 -0.766797 0.46623
vn 0.700681 -0.402369 0.589191
vn 0.852495 -0.515648 0.085786
vn 0.932887 0.121457 0.339072
vn -0.984265 0.011936 0.176293
vn -0.884378 0.155129 0.440239
vn -0.881134 0.337451 0.331255
vn -0.898502 0.435855 0.052204
vn -0.869961 -0.282957 0.40386
vn -0.679513 -0.733648 -0.004715
vn -0.622549 -0.607217 -0.493681
vn -0.899095 0.059706 -0.433663
vn -0.658053 0.399097 0.638504
vn -0.642919 0.229425 0.730766
vn -0.624447 0.726816 0.286013
vn -0.545305 0.812575 -0.205826
vn -0.451074 -0.320908 0.832797
vn 0.00186 -0.994146 0.108034
vn 0.161968 -0.875632 -0.45501
vn -0.238574 -0.634941 -0.734801
vn -0.609178 0.316905 -0.726962
vn -0.300423 0.4212 0.855767
vn -0.066092 0.22686 0.971682
vn -0.246636 0.942233 0.226643
vn -0.11655 0.990628 -0.071219
vn -0.490913 0.844728 -0.213165
vn 0.191785 -0.608722 0.769854
vn 0.368169 -0.929754 -0.003059
vn 0.426912 -0.868884 -0.250574
vn 0.223523 -0.947137 -0.23015
vn -0.282551 -0.79361 -0.538839
vn -0.210187 -0.403423 -0.890545
vn -0.44274 0.573721 -0.689076
vn -0.301471 0.794507 0.527138
vn -0.067669 0.126459 0.989661
vn 0.185939 -0.236174 0.953755
vn 0.574257 0.059589 0.816503
vn -0.235551 0.971189 -0.036159
vn -0.268194 0.951036 0.153633
vn -0.559984 0.111464 -0.820971
vn -0.744623 0.466683 -0.477225
vn -0.380108 0.91116 0.159076
vn 0.423532 -0.866679 0.263605
vn 0.145938 -0.985449 -0.087131
vn -0.046851 -0.998635 0.02308
vn -0.30016 -0.932608 0.200366
vn -0.503841 -0.818145 -0.277096
vn -0.555042 -0.126821 -0.822098
vn -0.402041 -0.070554 -0.912899
vn -0.027108 0.2658 0.963647
vn 0.066705 0.837196 0.542819
vn -0.059167 0.992021 -0.111326
vn -0.187314 -0.322444 0.92787
vn -0.209881 -0.803791 0.55666
vn 0.113172 -0.867602 0.484209
vn -0.036964 0.998731 0.034212
vn -0.011992 0.984959 0.172373
vn -0.197653 -0.097234 -0.975438
vn -0.236761 -0.06435 -0.969435
vn -0.079123 0.847 -0.525672
vn -0.252674 -0.951218 0.177033
vn 0.020684 -0.985686 0.167317
vn 0.100825 -0.99129 -0.084725
vn -0.060611 -0.526594 -0.847953
vn -0.114802 0.144096 -0.982882
vn 0.43496 0.868448 0.237924
vn 0.285738 0.346577 0.893442
vn -0.189359 -0.453221 0.871053
vn -0.343368 -0.785723 0.514527
vn 0.296184 0.954067 0.045069
vn 0.400338 0.915672 -0.035695
vn 0.336647 0.183101 -0.923657
vn 0.370229 -0.236454 -0.898343
vn 0.41258 -0.02039 -0.910693
vn 0.51388 0.628708 -0.583656
vn -0.175726 -0.962266 0.207763
vn 0.017787 -0.993046 -0.116377
vn 0.171084 -0.984368 0.041834
vn 0.417308 -0.665306 -0.619049
vn 0.364284 0.127392 -0.922534
vn 0.564402 0.648555 0.510713
vn 0.33887 0.940167 -0.035414
vn 0.4248 0.897499 0.118491
vn 0.550944 0.20055 0.810087
vn 0.492145 -0.57083 0.657226
vn 0.277121 -0.938083 0.207857
vn 0.278494 -0.894529 0.349657
vn 0.529929 0.825351 -0.194864
vn 0.703943 0.441703 -0.556204
vn 0.303156 0.177885 -0.936191
vn 0.308717 0.314791 -0.897552
vn 0.584963 -0.038911 -0.810126
vn 0.384346 -0.918649 0.091442
vn 0.178094 -0.958369 -0.223184
vn 0.336884 -0.941086 -0.029443
vn 0.441195 -0.766797 -0.46623
vn 0.918489 0.274843 0.284321
vn 0.607451 0.756845 -0.241223
vn 0.758284 -0.651892 0.006469
vn 0.631597 0.491223 -0.59982
vn 0.700681 -0.402369 -0.589191
vn 0.852495 -0.515648 -0.085786
vn 0.932887 0.121457 -0.339072
# 198 normals
usemtl Material__1
f  1//1 2//2 3//3
f  4//4 1//1 3//3
f  5//5 6//6 1//1
f  6//6 2//2 1//1
f  5//5 1//1 4//4
f  2//2 7//7 3//3
f  6//6 8//8 2//2
f  8//8 7//7 2//2
f  7//7 9//9 3//3
f  9//9 10//10 3//3
f  10//10 11//11 3//3
f  11//11 4//4 3//3
f  12//12 4//4 11//11
f  12//12 5//5 4//4
f  13//13 14//14 5//5
f  14//14 6//6 5//5
f  15//15 5//5 12//12
f  15//15 13//13 5//5
f  14//14 16//16 6//6
f  16//16 8//8 6//6
f  8//8 17//17 7//7
f  17//17 18//18 7//7
f  18//18 9//9 7//7
f  16//16 17//17 8//8
f  18//18 19//19 9//9
f  19//19 10//10 9//9
f  19//19 20//20 10//10
f  20//20 11//11 10//10
f  20//20 21//21 11//11
f  21//21 12//12 11//11
f  22//22 12//12 21//21
f  22//22 15//15 12//12
f  23//23 14//14 13//13
f  24//24 13//13 15//15
f  24//24 23//23 13//13
f  23//23 25//25 14//14
f  25//25 16//16 14//14
f  26//26 15//15 22//22
f  26//26 24//24 15//15
f  16//16 27//27 17//17
f  25//25 28//28 16//16
f  28//28 29//29 16//16
f  29//29 27//27 16//16
f  27//27 18//18 17//17
f  27//27 30//30 18//18
f  30//30 31//31 18//18
f  31//31 19//19 18//18
f  31//31 32//32 19//19
f  32//32 33//33 19//19
f  33//33 20//20 19//19
f  33//33 34//34 20//20
f  34//34 21//21 20//20
f  34//34 35//35 21//21
f  35//35 22//22 21//21
f  36//36 22//22 35//35
f  36//36 37//37 22//22
f  37//37 38//38 22//22
f  38//38 26//26 22//22
f  39//39 40//40 23//23
f  40//40 25//25 23//23
f  41//41 23//23 24//24
f  41//41 39//39 23//23
f  42//42 24//24 26//26
f  42//42 41//41 24//24
f  40//40 43//43 25//25
f  43//43 28//28 25//25
f  44//44 26//26 38//38
f  44//44 42//42 26//26
f  29//29 45//45 27//27
f  45//45 30//30 27//27
f  43//43 46//46 28//28
f  46//46 47//47 28//28
f  47//47 29//29 28//28
f  47//47 45//45 29//29
f  45//45 48//48 30//30
f  48//48 31//31 30//30
f  48//48 49//49 31//31
f  49//49 32//32 31//31
f  49//49 50//50 32//32
f  50//50 33//33 32//32
f  50//50 51//51 33//33
f  51//51 52//52 33//33
f  52//52 53//53 33//33
f  53//53 34//34 33//33
f  53//53 36//36 34//34
f  36//36 35//35 34//34
f  54//54 36//36 53//53
f  54//54 55//55 36//36
f  55//55 37//37 36//36
f  55//55 56//56 37//37
f  56//56 38//38 37//37
f  56//56 44//44 38//38
f  57//57 40//40 39//39
f  57//57 39//39 41//41
f  57//57 58//58 40//40
f  58//58 43//43 40//40
f  57//57 41//41 42//42
f  59//59 42//42 44//44
f  59//59 57//57 42//42
f  58//58 60//60 43//43
f  60//60 46//46 43//43
f  61//61 44//44 56//56
f  61//61 59//59 44//44
f  47//47 48//48 45//45
f  60//60 47//47 46//46
f  47//47 62//62 48//48
f  60//60 63//63 47//47
f  63//63 62//62 47//47
f  62//62 49//49 48//48
f  62//62 64//64 49//49
f  64//64 50//50 49//49
f  64//64 65//65 50//50
f  65//65 51//51 50//50
f  65//65 66//66 51//51
f  66//66 52//52 51//51
f  66//66 67//67 52//52
f  67//67 53//53 52//52
f  67//67 54//54 53//53
f  68//68 54//54 67//67
f  68//68 69//69 54//54
f  69//69 55//55 54//54
f  69//69 70//70 55//55
f  70//70 56//56 55//55
f  70//70 71//71 56//56
f  71//71 61//61 56//56
f  72//72 58//58 57//57
f  73//73 57//57 59//59
f  73//73 74//74 57//57
f  74//74 72//72 57//57
f  72//72 75//75 58//58
f  75//75 60//60 58//58
f  76//76 59//59 61//61
f  76//76 73//73 59//59
f  75//75 77//77 60//60
f  77//77 63//63 60//60
f  78//78 61//61 71//71
f  78//78 76//76 61//61
f  63//63 79//79 62//62
f  79//79 80//80 62//62
f  80//80 64//64 62//62
f  77//77 81//81 63//63
f  81//81 82//82 63//63
f  82//82 79//79 63//63
f  80//80 83//83 64//64
f  83//83 65//65 64//64
f  83//83 84//84 65//65
f  84//84 66//66 65//65
f  84//84 85//85 66//66
f  85//85 67//67 66//66
f  85//85 68//68 67//67
f  86//86 68//68 85//85
f  86//86 87//87 68//68
f  87//87 69//69 68//68
f  87//87 88//88 69//69
f  88//88 70//70 69//69
f  88//88 78//78 70//70
f  78//78 71//71 70//70
f  89//89 75//75 72//72
f  89//89 72//72 74//74
f  90//90 73//73 76//76
f  90//90 74//74 73//73
f  90//90 89//89 74//74
f  89//89 77//77 75//75
f  91//91 76//76 78//78
f  91//91 90//90 76//76
f  89//89 92//92 77//77
f  92//92 81//81 77//77
f  91//91 78//78 88//88
f  82//82 93//93 79//79
f  93//93 94//94 79//79
f  94//94 80//80 79//79
f  94//94 83//83 80//80
f  92//92 82//82 81//81
f  92//92 93//93 82//82
f  94//94 95//95 83//83
f  95//95 96//96 83//83
f  96//96 84//84 83//83
f  96//96 85//85 84//84
f  96//96 86//86 85//85
f  97//97 86//86 96//96
f  97//97 87//87 86//86
f  97//97 91//91 87//87
f  91//91 88//88 87//87
f  98//98 92//92 89//89
f  99//99 89//89 90//90
f  99//99 98//98 89//89
f  99//99 90//90 91//91
f  99//99 91//91 97//97
f  92//92 94//94 93//93
f  92//92 97//97 94//94
f  98//98 97//97 92//92
f  97//97 95//95 94//94
f  97//97 96//96 95//95
f  98//98 99//99 97//97
f  100//100 101//101 102//102
f  100//100 102//102 103//103
f  100//100 104//104 101//101
f  100//100 105//105 104//104
f  100//100 106//106 105//105
f  100//100 107//107 106//106
f  100//100 103//103 107//107
f  102//102 101//101 108//108
f  101//101 109//109 108//108
f  101//101 104//104 109//109
f  102//102 108//108 110//110
f  103//103 102//102 110//110
f  107//107 103//103 111//111
f  103//103 110//110 111//111
f  104//104 112//112 109//109
f  104//104 113//113 112//112
f  104//104 105//105 113//113
f  105//105 114//114 113//113
f  105//105 106//106 114//114
f  106//106 115//115 114//114
f  106//106 107//107 115//115
f  107//107 116//116 115//115
f  107//107 111//111 116//116
f  110//110 108//108 117//117
f  108//108 118//118 117//117
f  108//108 109//109 118//118
f  109//109 112//112 118//118
f  110//110 117//117 119//119
f  111//111 110//110 120//120
f  110//110 119//119 120//120
f  116//116 111//111 121//121
f  111//111 120//120 121//121
f  112//112 122//122 118//118
f  112//112 113//113 122//122
f  113//113 123//123 122//122
f  113//113 124//124 123//123
f  113//113 114//114 124//124
f  114//114 125//125 124//124
f  114//114 126//126 125//125
f  114//114 115//115 126//126
f  115//115 127//127 126//126
f  115//115 116//116 127//127
f  116//116 128//128 127//127
f  116//116 121//121 128//128
f  119//119 117//117 129//129
f  117//117 130//130 129//129
f  117//117 118//118 130//130
f  118//118 131//131 130//130
f  118//118 132//132 131//131
f  118//118 122//122 132//132
f  120//120 119//119 133//133
f  119//119 129//129 133//133
f  121//121 120//120 134//134
f  120//120 133//133 134//134
f  128//128 121//121 135//135
f  121//121 136//136 135//135
f  121//121 137//137 136//136
f  121//121 134//134 137//137
f  122//122 138//138 132//132
f  122//122 123//123 138//138
f  123//123 139//139 138//138
f  123//123 124//124 139//139
f  124//124 140//140 139//139
f  124//124 125//125 140//140
f  125//125 141//141 140//140
f  125//125 126//126 141//141
f  126//126 142//142 141//141
f  126//126 143//143 142//142
f  126//126 144//144 143//143
f  126//126 127//127 144//144
f  127//127 135//135 144//144
f  127//127 128//128 135//135
f  129//129 145//145 146//146
f  129//129 130//130 145//145
f  133//133 129//129 147//147
f  129//129 146//146 147//147
f  130//130 148//148 145//145
f  130//130 131//131 148//148
f  131//131 149//149 148//148
f  131//131 150//150 149//149
f  131//131 132//132 150//150
f  132//132 138//138 150//150
f  134//134 133//133 151//151
f  133//133 147//147 151//151
f  137//137 134//134 152//152
f  134//134 151//151 152//152
f  144//144 135//135 153//153
f  135//135 154//154 153//153
f  135//135 136//136 154//154
f  136//136 155//155 154//154
f  136//136 137//137 155//155
f  137//137 152//152 155//155
f  138//138 139//139 150//150
f  139//139 156//156 150//150
f  139//139 140//140 156//156
f  140//140 157//157 156//156
f  140//140 141//141 157//157
f  141//141 158//158 157//157
f  141//141 142//142 158//158
f  142//142 159//159 158//158
f  142//142 143//143 159//159
f  143//143 160//160 159//159
f  143//143 144//144 160//160
f  144//144 153//153 160//160
f  146//146 145//145 161//161
f  145//145 162//162 161//161
f  145//145 148//148 162//162
f  147//147 146//146 161//161
f  151//151 147//147 161//161
f  148//148 163//163 162//162
f  148//148 149//149 163//163
f  149//149 150//150 163//163
f  150//150 164//164 163//163
f  150//150 156//156 164//164
f  152//152 151//151 165//165
f  151//151 161//161 165//165
f  155//155 152//152 166//166
f  152//152 165//165 166//166
f  160//160 153//153 167//167
f  153//153 168//168 167//167
f  153//153 154//154 168//168
f  154//154 169//169 168//168
f  154//154 155//155 169//169
f  155//155 170//170 169//169
f  155//155 166//166 170//170
f  156//156 171//171 164//164
f  156//156 172//172 171//171
f  156//156 157//157 172//172
f  157//157 173//173 172//172
f  157//157 158//158 173//173
f  158//158 174//174 173//173
f  158//158 159//159 174//174
f  159//159 175//175 174//174
f  159//159 160//160 175//175
f  160//160 167//167 175//175
f  161//161 162//162 176//176
f  165//165 161//161 177//177
f  161//161 178//178 177//177
f  161//161 176//176 178//178
f  162//162 179//179 176//176
f  162//162 163//163 179//179
f  163//163 180//180 179//179
f  163//163 164//164 180//180
f  164//164 181//181 180//180
f  164//164 182//182 181//181
f  164//164 171//171 182//182
f  166//166 165//165 183//183
f  165//165 177//177 183//183
f  170//170 166//166 184//184
f  166//166 183//183 184//184
f  175//175 167//167 185//185
f  167//167 186//186 185//185
f  167//167 168//168 186//186
f  168//168 187//187 186//186
f  168//168 169//169 187//187
f  169//169 184//184 187//187
f  169//169 170//170 184//184
f  171//171 188//188 182//182
f  171//171 189//189 188//188
f  171//171 172//172 189//189
f  172//172 173//173 189//189
f  173//173 190//190 189//189
f  173//173 191//191 190//190
f  173//173 174//174 191//191
f  174//174 175//175 191//191
f  175//175 185//185 191//191
f  176//176 179//179 192//192
f  178//178 176//176 192//192
f  183//183 177//177 193//193
f  177//177 178//178 193//193
f  178//178 192//192 193//193
f  179//179 180//180 192//192
f  180//180 194//194 192//192
f  180//180 181//181 194//194
f  181//181 182//182 194//194
f  182//182 188//188 194//194
f  184//184 183//183 195//195
f  183//183 193//193 195//195
f  187//187 184//184 195//195
f  191//191 185//185 196//196
f  185//185 186//186 196//196
f  186//186 195//195 196//196
f  186//186 187//187 195//195
f  188//188 189//189 194//194
f  189//189 196//196 194//194
f  189//189 190//190 196//196
f  190//190 191//191 196//196
f  192//192 194//194 197//197
f  193//193 192//192 198//198
f  192//192 197//197 198//198
f  195//195 193//193 198//198
f  194//194 196//196 197//197
f  196//196 195//195 198//198
f  196//196 198//198 197//197
