#VRML V2.0 utf8 
Transform { 
 children [ 
    Shape { 
appearance Appearance {
              material DEF surface Material {
              diffuseColor 0.8 0.8 0.8
              ambientIntensity 0.2
              specularColor 0.4 0.4 0.4
              emissiveColor 0 0 0
              shininess 0.25
              transparency 0
            }
          }
   geometry IndexedFaceSet { 
   solid FALSE 
    coord DEF bone Coordinate{ 
     point [ 
0.033434	0.040399	0.07848	,
0.033881	0.038077	0.075823	,
0.031236	0.036704	0.081828	,
0.032362	0.04112	0.08464	,
0.038958	0.049591	0.074466	,
0.040182	0.042282	0.067168	,
0.033636	0.033414	0.077031	,
0.040661	0.039791	0.064324	,
0.032625	0.031806	0.08275	,
0.031876	0.034009	0.087132	,
0.031557	0.038038	0.089121	,
0.036936	0.047852	0.085972	,
0.046367	0.0502	0.068402	,
0.046951	0.047369	0.064942	,
0.04473	0.049718	0.077759	,
0.046921	0.042597	0.06492	,
0.040614	0.032575	0.06429	,
0.039261	0.02937	0.071909	,
0.037017	0.031889	0.08485	,
0.03598	0.037894	0.091035	,
0.03557	0.042773	0.093583	,
0.042717	0.047924	0.089203	,
0.052994	0.051536	0.066837	,
0.051556	0.050375	0.07502	,
0.053174	0.049323	0.065719	,
0.049867	0.05046	0.084686	,
0.047312	0.034763	0.062359	,
0.053135	0.043186	0.06569	,
0.053471	0.038362	0.063575	,
0.045818	0.033034	0.070847	,
0.044786	0.032959	0.076757	,
0.043427	0.036175	0.084653	,
0.041868	0.039444	0.093719	,
0.041319	0.04114	0.096929	,
0.041458	0.044494	0.096266	,
0.047657	0.047754	0.097234	,
0.047806	0.052642	0.09658	,
0.048486	0.053051	0.092703	,
0.059586	0.05395	0.065523	,
0.059837	0.049523	0.063903	,
0.058142	0.053415	0.073771	,
0.056614	0.051911	0.082446	,
0.05959	0.042872	0.065041	,
0.055067	0.053874	0.091381	,
0.053147	0.034721	0.065281	,
0.057823	0.040156	0.069414	,
0.057645	0.035964	0.075907	,
0.05126	0.035883	0.076123	,
0.050089	0.037738	0.082904	,
0.04879	0.034535	0.090216	,
0.047687	0.033664	0.096491	,
0.04745	0.035478	0.097916	,
0.047891	0.040485	0.0956	,
0.053357	0.039983	0.100612	,
0.053163	0.04674	0.101999	,
0.053329	0.054584	0.10136	,
0.065585	0.050957	0.067385	,
0.066123	0.047671	0.064169	,
0.06233	0.05164	0.086043	,
0.066221	0.041139	0.063338	,
0.060264	0.053367	0.097934	,
0.056892	0.034474	0.080148	,
0.064906	0.035492	0.070639	,
0.055195	0.033026	0.089807	,
0.054864	0.031917	0.096727	,
0.054083	0.034462	0.101294	,
0.054025	0.035943	0.101806	,
0.060201	0.039958	0.097749	,
0.059993	0.042739	0.099054	,
0.059749	0.048416	0.100682	,
0.059941	0.053362	0.099781	,
0.071514	0.047508	0.069615	,
0.069629	0.048669	0.080456	,
0.071176	0.048468	0.071589	,
0.072253	0.040021	0.065086	,
0.067652	0.048921	0.091785	,
0.072185	0.036213	0.065314	,
0.067045	0.048285	0.09523	,
0.06436	0.032642	0.073642	,
0.062894	0.035345	0.08215	,
0.07155	0.034328	0.068876	,
0.071012	0.034092	0.071953	,
0.060852	0.035878	0.093852	,
0.059784	0.034895	0.099941	,
0.059917	0.037397	0.099275	,
0.066722	0.037826	0.096659	,
0.066959	0.039705	0.095376	,
0.067022	0.044819	0.095215	,
0.077336	0.045478	0.072528	,
0.075077	0.047144	0.085526	,
0.074498	0.044181	0.088714	,
0.075978	0.03807	0.080004	,
0.070483	0.032151	0.0749	,
0.069617	0.033216	0.079892	,
0.067311	0.036018	0.093204	,
0.06691	0.035387	0.095479	,
0.073435	0.040981	0.094672	,
0.077377	0.039819	0.081144	,
0.075943	0.041101	0.089399	,
0.031236	0.036704	-0.081828	,
0.033881	0.038077	-0.075823	,
0.033434	0.040399	-0.07848	,
0.032362	0.04112	-0.08464	,
0.033636	0.033414	-0.077031	,
0.032625	0.031806	-0.08275	,
0.031876	0.034009	-0.087132	,
0.031557	0.038038	-0.089121	,
0.040182	0.042282	-0.067168	,
0.040661	0.039791	-0.064324	,
0.038958	0.049591	-0.074466	,
0.036936	0.047852	-0.085972	,
0.040614	0.032575	-0.06429	,
0.039261	0.02937	-0.071909	,
0.037017	0.031889	-0.08485	,
0.03598	0.037894	-0.091035	,
0.03557	0.042773	-0.093583	,
0.046951	0.047369	-0.064942	,
0.046921	0.042597	-0.06492	,
0.046367	0.0502	-0.068402	,
0.04473	0.049718	-0.077759	,
0.042717	0.047924	-0.089203	,
0.047312	0.034763	-0.062359	,
0.045818	0.033034	-0.070847	,
0.044786	0.032959	-0.076757	,
0.043427	0.036175	-0.084653	,
0.041868	0.039444	-0.093719	,
0.041319	0.04114	-0.096929	,
0.041458	0.044494	-0.096266	,
0.052994	0.051536	-0.066837	,
0.053174	0.049323	-0.065719	,
0.053135	0.043186	-0.06569	,
0.053471	0.038362	-0.063575	,
0.051556	0.050375	-0.07502	,
0.049867	0.05046	-0.084686	,
0.047657	0.047754	-0.097234	,
0.047806	0.052642	-0.09658	,
0.048486	0.053051	-0.092703	,
0.053147	0.034721	-0.065281	,
0.05126	0.035883	-0.076123	,
0.050089	0.037738	-0.082904	,
0.04879	0.034535	-0.090216	,
0.047687	0.033664	-0.096491	,
0.04745	0.035478	-0.097916	,
0.047891	0.040485	-0.0956	,
0.059837	0.049523	-0.063903	,
0.059586	0.05395	-0.065523	,
0.058142	0.053415	-0.073771	,
0.05959	0.042872	-0.065041	,
0.057823	0.040156	-0.069414	,
0.057645	0.035964	-0.075907	,
0.056614	0.051911	-0.082446	,
0.055067	0.053874	-0.091381	,
0.053357	0.039983	-0.100612	,
0.053163	0.04674	-0.101999	,
0.053329	0.054584	-0.10136	,
0.056892	0.034474	-0.080148	,
0.055195	0.033026	-0.089807	,
0.054864	0.031917	-0.096727	,
0.054083	0.034462	-0.101294	,
0.054025	0.035943	-0.101806	,
0.065585	0.050957	-0.067385	,
0.066123	0.047671	-0.064169	,
0.066221	0.041139	-0.063338	,
0.064906	0.035492	-0.070639	,
0.06233	0.05164	-0.086043	,
0.060264	0.053367	-0.097934	,
0.060201	0.039958	-0.097749	,
0.059993	0.042739	-0.099054	,
0.059749	0.048416	-0.100682	,
0.059941	0.053362	-0.099781	,
0.06436	0.032642	-0.073642	,
0.062894	0.035345	-0.08215	,
0.060852	0.035878	-0.093852	,
0.059784	0.034895	-0.099941	,
0.059917	0.037397	-0.099275	,
0.071514	0.047508	-0.069615	,
0.069629	0.048669	-0.080456	,
0.071176	0.048468	-0.071589	,
0.072253	0.040021	-0.065086	,
0.072185	0.036213	-0.065314	,
0.07155	0.034328	-0.068876	,
0.071012	0.034092	-0.071953	,
0.067652	0.048921	-0.091785	,
0.067045	0.048285	-0.09523	,
0.066722	0.037826	-0.096659	,
0.066959	0.039705	-0.095376	,
0.067022	0.044819	-0.095215	,
0.070483	0.032151	-0.0749	,
0.069617	0.033216	-0.079892	,
0.067311	0.036018	-0.093204	,
0.06691	0.035387	-0.095479	,
0.077336	0.045478	-0.072528	,
0.075077	0.047144	-0.085526	,
0.075978	0.03807	-0.080004	,
0.074498	0.044181	-0.088714	,
0.073435	0.040981	-0.094672	,
0.077377	0.039819	-0.081144	,
0.075943	0.041101	-0.089399	,     ]    } 
    coordIndex [ 
	     0,      1,      2, -1 
	     3,      0,      2, -1 
	     4,      5,      0, -1 
	     5,      1,      0, -1 
	     4,      0,      3, -1 
	     1,      6,      2, -1 
	     5,      7,      1, -1 
	     7,      6,      1, -1 
	     6,      8,      2, -1 
	     8,      9,      2, -1 
	     9,     10,      2, -1 
	    10,      3,      2, -1 
	    11,      3,     10, -1 
	    11,      4,      3, -1 
	    12,     13,      4, -1 
	    13,      5,      4, -1 
	    14,      4,     11, -1 
	    14,     12,      4, -1 
	    13,     15,      5, -1 
	    15,      7,      5, -1 
	     7,     16,      6, -1 
	    16,     17,      6, -1 
	    17,      8,      6, -1 
	    15,     16,      7, -1 
	    17,     18,      8, -1 
	    18,      9,      8, -1 
	    18,     19,      9, -1 
	    19,     10,      9, -1 
	    19,     20,     10, -1 
	    20,     11,     10, -1 
	    21,     11,     20, -1 
	    21,     14,     11, -1 
	    22,     13,     12, -1 
	    23,     12,     14, -1 
	    23,     22,     12, -1 
	    22,     24,     13, -1 
	    24,     15,     13, -1 
	    25,     14,     21, -1 
	    25,     23,     14, -1 
	    15,     26,     16, -1 
	    24,     27,     15, -1 
	    27,     28,     15, -1 
	    28,     26,     15, -1 
	    26,     17,     16, -1 
	    26,     29,     17, -1 
	    29,     30,     17, -1 
	    30,     18,     17, -1 
	    30,     31,     18, -1 
	    31,     32,     18, -1 
	    32,     19,     18, -1 
	    32,     33,     19, -1 
	    33,     20,     19, -1 
	    33,     34,     20, -1 
	    34,     21,     20, -1 
	    35,     21,     34, -1 
	    35,     36,     21, -1 
	    36,     37,     21, -1 
	    37,     25,     21, -1 
	    38,     39,     22, -1 
	    39,     24,     22, -1 
	    40,     22,     23, -1 
	    40,     38,     22, -1 
	    41,     23,     25, -1 
	    41,     40,     23, -1 
	    39,     42,     24, -1 
	    42,     27,     24, -1 
	    43,     25,     37, -1 
	    43,     41,     25, -1 
	    28,     44,     26, -1 
	    44,     29,     26, -1 
	    42,     45,     27, -1 
	    45,     46,     27, -1 
	    46,     28,     27, -1 
	    46,     44,     28, -1 
	    44,     47,     29, -1 
	    47,     30,     29, -1 
	    47,     48,     30, -1 
	    48,     31,     30, -1 
	    48,     49,     31, -1 
	    49,     32,     31, -1 
	    49,     50,     32, -1 
	    50,     51,     32, -1 
	    51,     52,     32, -1 
	    52,     33,     32, -1 
	    52,     35,     33, -1 
	    35,     34,     33, -1 
	    53,     35,     52, -1 
	    53,     54,     35, -1 
	    54,     36,     35, -1 
	    54,     55,     36, -1 
	    55,     37,     36, -1 
	    55,     43,     37, -1 
	    56,     39,     38, -1 
	    56,     38,     40, -1 
	    56,     57,     39, -1 
	    57,     42,     39, -1 
	    56,     40,     41, -1 
	    58,     41,     43, -1 
	    58,     56,     41, -1 
	    57,     59,     42, -1 
	    59,     45,     42, -1 
	    60,     43,     55, -1 
	    60,     58,     43, -1 
	    46,     47,     44, -1 
	    59,     46,     45, -1 
	    46,     61,     47, -1 
	    59,     62,     46, -1 
	    62,     61,     46, -1 
	    61,     48,     47, -1 
	    61,     63,     48, -1 
	    63,     49,     48, -1 
	    63,     64,     49, -1 
	    64,     50,     49, -1 
	    64,     65,     50, -1 
	    65,     51,     50, -1 
	    65,     66,     51, -1 
	    66,     52,     51, -1 
	    66,     53,     52, -1 
	    67,     53,     66, -1 
	    67,     68,     53, -1 
	    68,     54,     53, -1 
	    68,     69,     54, -1 
	    69,     55,     54, -1 
	    69,     70,     55, -1 
	    70,     60,     55, -1 
	    71,     57,     56, -1 
	    72,     56,     58, -1 
	    72,     73,     56, -1 
	    73,     71,     56, -1 
	    71,     74,     57, -1 
	    74,     59,     57, -1 
	    75,     58,     60, -1 
	    75,     72,     58, -1 
	    74,     76,     59, -1 
	    76,     62,     59, -1 
	    77,     60,     70, -1 
	    77,     75,     60, -1 
	    62,     78,     61, -1 
	    78,     79,     61, -1 
	    79,     63,     61, -1 
	    76,     80,     62, -1 
	    80,     81,     62, -1 
	    81,     78,     62, -1 
	    79,     82,     63, -1 
	    82,     64,     63, -1 
	    82,     83,     64, -1 
	    83,     65,     64, -1 
	    83,     84,     65, -1 
	    84,     66,     65, -1 
	    84,     67,     66, -1 
	    85,     67,     84, -1 
	    85,     86,     67, -1 
	    86,     68,     67, -1 
	    86,     87,     68, -1 
	    87,     69,     68, -1 
	    87,     77,     69, -1 
	    77,     70,     69, -1 
	    88,     74,     71, -1 
	    88,     71,     73, -1 
	    89,     72,     75, -1 
	    89,     73,     72, -1 
	    89,     88,     73, -1 
	    88,     76,     74, -1 
	    90,     75,     77, -1 
	    90,     89,     75, -1 
	    88,     91,     76, -1 
	    91,     80,     76, -1 
	    90,     77,     87, -1 
	    81,     92,     78, -1 
	    92,     93,     78, -1 
	    93,     79,     78, -1 
	    93,     82,     79, -1 
	    91,     81,     80, -1 
	    91,     92,     81, -1 
	    93,     94,     82, -1 
	    94,     95,     82, -1 
	    95,     83,     82, -1 
	    95,     84,     83, -1 
	    95,     85,     84, -1 
	    96,     85,     95, -1 
	    96,     86,     85, -1 
	    96,     90,     86, -1 
	    90,     87,     86, -1 
	    97,     91,     88, -1 
	    98,     88,     89, -1 
	    98,     97,     88, -1 
	    98,     89,     90, -1 
	    98,     90,     96, -1 
	    91,     93,     92, -1 
	    91,     96,     93, -1 
	    97,     96,     91, -1 
	    96,     94,     93, -1 
	    96,     95,     94, -1 
	    97,     98,     96, -1 
	    99,    100,    101, -1 
	    99,    101,    102, -1 
	    99,    103,    100, -1 
	    99,    104,    103, -1 
	    99,    105,    104, -1 
	    99,    106,    105, -1 
	    99,    102,    106, -1 
	   101,    100,    107, -1 
	   100,    108,    107, -1 
	   100,    103,    108, -1 
	   101,    107,    109, -1 
	   102,    101,    109, -1 
	   106,    102,    110, -1 
	   102,    109,    110, -1 
	   103,    111,    108, -1 
	   103,    112,    111, -1 
	   103,    104,    112, -1 
	   104,    113,    112, -1 
	   104,    105,    113, -1 
	   105,    114,    113, -1 
	   105,    106,    114, -1 
	   106,    115,    114, -1 
	   106,    110,    115, -1 
	   109,    107,    116, -1 
	   107,    117,    116, -1 
	   107,    108,    117, -1 
	   108,    111,    117, -1 
	   109,    116,    118, -1 
	   110,    109,    119, -1 
	   109,    118,    119, -1 
	   115,    110,    120, -1 
	   110,    119,    120, -1 
	   111,    121,    117, -1 
	   111,    112,    121, -1 
	   112,    122,    121, -1 
	   112,    123,    122, -1 
	   112,    113,    123, -1 
	   113,    124,    123, -1 
	   113,    125,    124, -1 
	   113,    114,    125, -1 
	   114,    126,    125, -1 
	   114,    115,    126, -1 
	   115,    127,    126, -1 
	   115,    120,    127, -1 
	   118,    116,    128, -1 
	   116,    129,    128, -1 
	   116,    117,    129, -1 
	   117,    130,    129, -1 
	   117,    131,    130, -1 
	   117,    121,    131, -1 
	   119,    118,    132, -1 
	   118,    128,    132, -1 
	   120,    119,    133, -1 
	   119,    132,    133, -1 
	   127,    120,    134, -1 
	   120,    135,    134, -1 
	   120,    136,    135, -1 
	   120,    133,    136, -1 
	   121,    137,    131, -1 
	   121,    122,    137, -1 
	   122,    138,    137, -1 
	   122,    123,    138, -1 
	   123,    139,    138, -1 
	   123,    124,    139, -1 
	   124,    140,    139, -1 
	   124,    125,    140, -1 
	   125,    141,    140, -1 
	   125,    142,    141, -1 
	   125,    143,    142, -1 
	   125,    126,    143, -1 
	   126,    134,    143, -1 
	   126,    127,    134, -1 
	   128,    144,    145, -1 
	   128,    129,    144, -1 
	   132,    128,    146, -1 
	   128,    145,    146, -1 
	   129,    147,    144, -1 
	   129,    130,    147, -1 
	   130,    148,    147, -1 
	   130,    149,    148, -1 
	   130,    131,    149, -1 
	   131,    137,    149, -1 
	   133,    132,    150, -1 
	   132,    146,    150, -1 
	   136,    133,    151, -1 
	   133,    150,    151, -1 
	   143,    134,    152, -1 
	   134,    153,    152, -1 
	   134,    135,    153, -1 
	   135,    154,    153, -1 
	   135,    136,    154, -1 
	   136,    151,    154, -1 
	   137,    138,    149, -1 
	   138,    155,    149, -1 
	   138,    139,    155, -1 
	   139,    156,    155, -1 
	   139,    140,    156, -1 
	   140,    157,    156, -1 
	   140,    141,    157, -1 
	   141,    158,    157, -1 
	   141,    142,    158, -1 
	   142,    159,    158, -1 
	   142,    143,    159, -1 
	   143,    152,    159, -1 
	   145,    144,    160, -1 
	   144,    161,    160, -1 
	   144,    147,    161, -1 
	   146,    145,    160, -1 
	   150,    146,    160, -1 
	   147,    162,    161, -1 
	   147,    148,    162, -1 
	   148,    149,    162, -1 
	   149,    163,    162, -1 
	   149,    155,    163, -1 
	   151,    150,    164, -1 
	   150,    160,    164, -1 
	   154,    151,    165, -1 
	   151,    164,    165, -1 
	   159,    152,    166, -1 
	   152,    167,    166, -1 
	   152,    153,    167, -1 
	   153,    168,    167, -1 
	   153,    154,    168, -1 
	   154,    169,    168, -1 
	   154,    165,    169, -1 
	   155,    170,    163, -1 
	   155,    171,    170, -1 
	   155,    156,    171, -1 
	   156,    172,    171, -1 
	   156,    157,    172, -1 
	   157,    173,    172, -1 
	   157,    158,    173, -1 
	   158,    174,    173, -1 
	   158,    159,    174, -1 
	   159,    166,    174, -1 
	   160,    161,    175, -1 
	   164,    160,    176, -1 
	   160,    177,    176, -1 
	   160,    175,    177, -1 
	   161,    178,    175, -1 
	   161,    162,    178, -1 
	   162,    179,    178, -1 
	   162,    163,    179, -1 
	   163,    180,    179, -1 
	   163,    181,    180, -1 
	   163,    170,    181, -1 
	   165,    164,    182, -1 
	   164,    176,    182, -1 
	   169,    165,    183, -1 
	   165,    182,    183, -1 
	   174,    166,    184, -1 
	   166,    185,    184, -1 
	   166,    167,    185, -1 
	   167,    186,    185, -1 
	   167,    168,    186, -1 
	   168,    183,    186, -1 
	   168,    169,    183, -1 
	   170,    187,    181, -1 
	   170,    188,    187, -1 
	   170,    171,    188, -1 
	   171,    172,    188, -1 
	   172,    189,    188, -1 
	   172,    190,    189, -1 
	   172,    173,    190, -1 
	   173,    174,    190, -1 
	   174,    184,    190, -1 
	   175,    178,    191, -1 
	   177,    175,    191, -1 
	   182,    176,    192, -1 
	   176,    177,    192, -1 
	   177,    191,    192, -1 
	   178,    179,    191, -1 
	   179,    193,    191, -1 
	   179,    180,    193, -1 
	   180,    181,    193, -1 
	   181,    187,    193, -1 
	   183,    182,    194, -1 
	   182,    192,    194, -1 
	   186,    183,    194, -1 
	   190,    184,    195, -1 
	   184,    185,    195, -1 
	   185,    194,    195, -1 
	   185,    186,    194, -1 
	   187,    188,    193, -1 
	   188,    195,    193, -1 
	   188,    189,    195, -1 
	   189,    190,    195, -1 
	   191,    193,    196, -1 
	   192,    191,    197, -1 
	   191,    196,    197, -1 
	   194,    192,    197, -1 
	   193,    195,    196, -1 
	   195,    194,    197, -1 
	   195,    197,    196, -1 
    ] 
   colorPerVertex FALSE 
    colorIndex [ 
	  1, 
	  1, 
	  1, 
	  1, 
	  1, 
	  1, 
	  1, 
	  1, 
	  1, 
	  1, 
	  1, 
	  1, 
	  1, 
	  1, 
	  1, 
	  1, 
	  1, 
	  1, 
	  1, 
	  1, 
	  1, 
	  1, 
	  1, 
	  1, 
	  1, 
	  1, 
	  1, 
	  1, 
	  1, 
	  1, 
	  1, 
	  1, 
	  1, 
	  1, 
	  1, 
	  1, 
	  1, 
	  1, 
	  1, 
	  1, 
	  1, 
	  1, 
	  1, 
	  1, 
	  1, 
	  1, 
	  1, 
	  1, 
	  1, 
	  1, 
	  1, 
	  1, 
	  1, 
	  1, 
	  1, 
	  1, 
	  1, 
	  1, 
	  1, 
	  1, 
	  1, 
	  1, 
	  1, 
	  1, 
	  1, 
	  1, 
	  1, 
	  1, 
	  1, 
	  1, 
	  1, 
	  1, 
	  1, 
	  1, 
	  1, 
	  1, 
	  1, 
	  1, 
	  1, 
	  1, 
	  1, 
	  1, 
	  1, 
	  1, 
	  1, 
	  1, 
	  1, 
	  1, 
	  1, 
	  1, 
	  1, 
	  1, 
	  1, 
	  1, 
	  1, 
	  1, 
	  1, 
	  1, 
	  1, 
	  1, 
	  1, 
	  1, 
	  1, 
	  1, 
	  1, 
	  1, 
	  1, 
	  1, 
	  1, 
	  1, 
	  1, 
	  1, 
	  1, 
	  1, 
	  1, 
	  1, 
	  1, 
	  1, 
	  1, 
	  1, 
	  1, 
	  1, 
	  1, 
	  1, 
	  1, 
	  1, 
	  1, 
	  1, 
	  1, 
	  1, 
	  1, 
	  1, 
	  1, 
	  1, 
	  1, 
	  1, 
	  1, 
	  1, 
	  1, 
	  1, 
	  1, 
	  1, 
	  1, 
	  1, 
	  1, 
	  1, 
	  1, 
	  1, 
	  1, 
	  1, 
	  1, 
	  1, 
	  1, 
	  1, 
	  1, 
	  1, 
	  1, 
	  1, 
	  1, 
	  1, 
	  1, 
	  1, 
	  1, 
	  1, 
	  1, 
	  1, 
	  1, 
	  1, 
	  1, 
	  1, 
	  1, 
	  1, 
	  1, 
	  1, 
	  1, 
	  1, 
	  1, 
	  1, 
	  1, 
	  1, 
	  1, 
	  1, 
	  1, 
	  1, 
	  1, 
	  1, 
	  1, 
	  1, 
	  1, 
	  1, 
	  1, 
	  1, 
	  1, 
	  1, 
	  1, 
	  1, 
	  1, 
	  1, 
    ] 
normal Normal { 
vector [ 
	 -0.881134   0.337451  -0.331255,
	 -0.884378   0.155129  -0.440239,
	 -0.984265   0.011936  -0.176293,
	 -0.898501   0.435855  -0.052204,
	 -0.624447   0.726816  -0.286013,
	 -0.658053   0.399097  -0.638504,
	 -0.869961  -0.282957  -0.403860,
	 -0.642919   0.229425  -0.730766,
	 -0.679513  -0.733648   0.004715,
	 -0.622549  -0.607217   0.493681,
	 -0.899095   0.059706   0.433663,
	 -0.545305   0.812575   0.205826,
	 -0.246636   0.942233  -0.226643,
	 -0.300423   0.421200  -0.855767,
	 -0.116550   0.990628   0.071219,
	 -0.066092   0.226860  -0.971682,
	 -0.451074  -0.320908  -0.832797,
	  0.001860  -0.994146  -0.108034,
	  0.161968  -0.875632   0.455010,
	 -0.238574  -0.634941   0.734801,
	 -0.609178   0.316905   0.726962,
	 -0.490913   0.844728   0.213165,
	 -0.301471   0.794507  -0.527138,
	 -0.235551   0.971189   0.036159,
	 -0.067669   0.126459  -0.989661,
	 -0.268194   0.951036  -0.153633,
	  0.191785  -0.608722  -0.769854,
	  0.185939  -0.236174  -0.953755,
	  0.574257   0.059589  -0.816503,
	  0.368169  -0.929754   0.003059,
	  0.426912  -0.868883   0.250574,
	  0.223523  -0.947137   0.230150,
	 -0.282551  -0.793610   0.538839,
	 -0.210187  -0.403423   0.890545,
	 -0.442740   0.573721   0.689076,
	 -0.559984   0.111464   0.820971,
	 -0.744623   0.466683   0.477225,
	 -0.380108   0.911160  -0.159076,
	  0.066705   0.837196  -0.542819,
	 -0.027108   0.265800  -0.963647,
	 -0.059167   0.992021   0.111326,
	 -0.036964   0.998731  -0.034212,
	 -0.187314  -0.322444  -0.927870,
	 -0.011992   0.984959  -0.172373,
	  0.423532  -0.866680  -0.263605,
	 -0.209881  -0.803791  -0.556660,
	  0.113172  -0.867602  -0.484209,
	  0.145938  -0.985449   0.087131,
	 -0.046851  -0.998635  -0.023080,
	 -0.300160  -0.932608  -0.200366,
	 -0.503841  -0.818145   0.277096,
	 -0.555042  -0.126821   0.822098,
	 -0.402041  -0.070554   0.912899,
	 -0.197653  -0.097234   0.975438,
	 -0.236761  -0.064350   0.969435,
	 -0.079123   0.847000   0.525672,
	  0.434960   0.868448  -0.237924,
	  0.285738   0.346577  -0.893442,
	  0.296184   0.954067  -0.045069,
	 -0.189359  -0.453221  -0.871054,
	  0.400338   0.915672   0.035695,
	 -0.252674  -0.951218  -0.177033,
	 -0.343368  -0.785723  -0.514527,
	  0.020684  -0.985686  -0.167317,
	  0.100825  -0.991290   0.084725,
	 -0.060611  -0.526594   0.847953,
	 -0.114802   0.144096   0.982882,
	  0.336647   0.183101   0.923657,
	  0.370229  -0.236454   0.898343,
	  0.412580  -0.020390   0.910693,
	  0.513880   0.628708   0.583656,
	  0.564402   0.648555  -0.510713,
	  0.338870   0.940167   0.035414,
	  0.424800   0.897499  -0.118491,
	  0.550944   0.200550  -0.810087,
	  0.529929   0.825351   0.194864,
	  0.492145  -0.570830  -0.657226,
	  0.703943   0.441703   0.556204,
	 -0.175726  -0.962266  -0.207763,
	  0.017787  -0.993046   0.116377,
	  0.277121  -0.938083  -0.207857,
	  0.278494  -0.894529  -0.349657,
	  0.171084  -0.984368  -0.041834,
	  0.417308  -0.665306   0.619049,
	  0.364284   0.127392   0.922534,
	  0.303156   0.177885   0.936191,
	  0.308717   0.314791   0.897552,
	  0.584963  -0.038911   0.810126,
	  0.918489   0.274843  -0.284321,
	  0.607451   0.756845   0.241223,
	  0.631597   0.491223   0.599820,
	  0.758284  -0.651892  -0.006469,
	  0.384346  -0.918649  -0.091442,
	  0.178094  -0.958369   0.223184,
	  0.336884  -0.941086   0.029443,
	  0.441195  -0.766797   0.466230,
	  0.700681  -0.402369   0.589191,
	  0.852495  -0.515648   0.085786,
	  0.932887   0.121457   0.339072,
	 -0.984265   0.011936   0.176293,
	 -0.884378   0.155129   0.440239,
	 -0.881134   0.337451   0.331255,
	 -0.898501   0.435855   0.052204,
	 -0.869961  -0.282957   0.403860,
	 -0.679513  -0.733648  -0.004715,
	 -0.622549  -0.607217  -0.493681,
	 -0.899095   0.059706  -0.433663,
	 -0.658053   0.399097   0.638504,
	 -0.642919   0.229425   0.730766,
	 -0.624447   0.726816   0.286013,
	 -0.545305   0.812575  -0.205826,
	 -0.451074  -0.320908   0.832797,
	  0.001860  -0.994146   0.108034,
	  0.161968  -0.875632  -0.455010,
	 -0.238574  -0.634941  -0.734801,
	 -0.609178   0.316905  -0.726962,
	 -0.300423   0.421200   0.855767,
	 -0.066092   0.226860   0.971682,
	 -0.246636   0.942233   0.226643,
	 -0.116550   0.990628  -0.071219,
	 -0.490913   0.844728  -0.213165,
	  0.191785  -0.608722   0.769854,
	  0.368169  -0.929754  -0.003059,
	  0.426912  -0.868883  -0.250574,
	  0.223523  -0.947137  -0.230150,
	 -0.282551  -0.793610  -0.538839,
	 -0.210187  -0.403423  -0.890545,
	 -0.442740   0.573721  -0.689076,
	 -0.301471   0.794507   0.527138,
	 -0.067669   0.126459   0.989661,
	  0.185939  -0.236174   0.953755,
	  0.574257   0.059589   0.816503,
	 -0.235551   0.971189  -0.036159,
	 -0.268194   0.951036   0.153633,
	 -0.559984   0.111464  -0.820971,
	 -0.744623   0.466683  -0.477225,
	 -0.380108   0.911160   0.159076,
	  0.423532  -0.866680   0.263605,
	  0.145938  -0.985449  -0.087131,
	 -0.046851  -0.998635   0.023080,
	 -0.300160  -0.932608   0.200366,
	 -0.503841  -0.818145  -0.277096,
	 -0.555042  -0.126821  -0.822098,
	 -0.402041  -0.070554  -0.912899,
	 -0.027108   0.265800   0.963647,
	  0.066705   0.837196   0.542819,
	 -0.059167   0.992021  -0.111326,
	 -0.187314  -0.322444   0.927870,
	 -0.209881  -0.803791   0.556660,
	  0.113172  -0.867602   0.484209,
	 -0.036964   0.998731   0.034212,
	 -0.011992   0.984959   0.172373,
	 -0.197653  -0.097234  -0.975438,
	 -0.236761  -0.064350  -0.969435,
	 -0.079123   0.847000  -0.525672,
	 -0.252674  -0.951218   0.177033,
	  0.020684  -0.985686   0.167317,
	  0.100825  -0.991290  -0.084725,
	 -0.060611  -0.526594  -0.847953,
	 -0.114802   0.144096  -0.982882,
	  0.434960   0.868448   0.237924,
	  0.285738   0.346577   0.893442,
	 -0.189359  -0.453221   0.871054,
	 -0.343368  -0.785723   0.514527,
	  0.296184   0.954067   0.045069,
	  0.400338   0.915672  -0.035695,
	  0.336647   0.183101  -0.923657,
	  0.370229  -0.236454  -0.898343,
	  0.412580  -0.020390  -0.910693,
	  0.513880   0.628708  -0.583656,
	 -0.175726  -0.962266   0.207763,
	  0.017787  -0.993046  -0.116377,
	  0.171084  -0.984368   0.041834,
	  0.417308  -0.665306  -0.619049,
	  0.364284   0.127392  -0.922534,
	  0.564402   0.648555   0.510713,
	  0.338870   0.940167  -0.035414,
	  0.424800   0.897499   0.118491,
	  0.550944   0.200550   0.810087,
	  0.492145  -0.570830   0.657226,
	  0.277121  -0.938083   0.207857,
	  0.278494  -0.894529   0.349657,
	  0.529929   0.825351  -0.194864,
	  0.703943   0.441703  -0.556204,
	  0.303156   0.177885  -0.936191,
	  0.308717   0.314791  -0.897552,
	  0.584963  -0.038911  -0.810126,
	  0.384346  -0.918649   0.091442,
	  0.178094  -0.958369  -0.223184,
	  0.336884  -0.941086  -0.029443,
	  0.441195  -0.766797  -0.466230,
	  0.918489   0.274843   0.284321,
	  0.607451   0.756845  -0.241223,
	  0.758284  -0.651892   0.006469,
	  0.631597   0.491223  -0.599820,
	  0.700681  -0.402369  -0.589191,
	  0.852495  -0.515648  -0.085786,
	  0.932887   0.121457  -0.339072,
     ]    } 
normalIndex      [ 
	     0,      1,      2, -1 
	     3,      0,      2, -1 
	     4,      5,      0, -1 
	     5,      1,      0, -1 
	     4,      0,      3, -1 
	     1,      6,      2, -1 
	     5,      7,      1, -1 
	     7,      6,      1, -1 
	     6,      8,      2, -1 
	     8,      9,      2, -1 
	     9,     10,      2, -1 
	    10,      3,      2, -1 
	    11,      3,     10, -1 
	    11,      4,      3, -1 
	    12,     13,      4, -1 
	    13,      5,      4, -1 
	    14,      4,     11, -1 
	    14,     12,      4, -1 
	    13,     15,      5, -1 
	    15,      7,      5, -1 
	     7,     16,      6, -1 
	    16,     17,      6, -1 
	    17,      8,      6, -1 
	    15,     16,      7, -1 
	    17,     18,      8, -1 
	    18,      9,      8, -1 
	    18,     19,      9, -1 
	    19,     10,      9, -1 
	    19,     20,     10, -1 
	    20,     11,     10, -1 
	    21,     11,     20, -1 
	    21,     14,     11, -1 
	    22,     13,     12, -1 
	    23,     12,     14, -1 
	    23,     22,     12, -1 
	    22,     24,     13, -1 
	    24,     15,     13, -1 
	    25,     14,     21, -1 
	    25,     23,     14, -1 
	    15,     26,     16, -1 
	    24,     27,     15, -1 
	    27,     28,     15, -1 
	    28,     26,     15, -1 
	    26,     17,     16, -1 
	    26,     29,     17, -1 
	    29,     30,     17, -1 
	    30,     18,     17, -1 
	    30,     31,     18, -1 
	    31,     32,     18, -1 
	    32,     19,     18, -1 
	    32,     33,     19, -1 
	    33,     20,     19, -1 
	    33,     34,     20, -1 
	    34,     21,     20, -1 
	    35,     21,     34, -1 
	    35,     36,     21, -1 
	    36,     37,     21, -1 
	    37,     25,     21, -1 
	    38,     39,     22, -1 
	    39,     24,     22, -1 
	    40,     22,     23, -1 
	    40,     38,     22, -1 
	    41,     23,     25, -1 
	    41,     40,     23, -1 
	    39,     42,     24, -1 
	    42,     27,     24, -1 
	    43,     25,     37, -1 
	    43,     41,     25, -1 
	    28,     44,     26, -1 
	    44,     29,     26, -1 
	    42,     45,     27, -1 
	    45,     46,     27, -1 
	    46,     28,     27, -1 
	    46,     44,     28, -1 
	    44,     47,     29, -1 
	    47,     30,     29, -1 
	    47,     48,     30, -1 
	    48,     31,     30, -1 
	    48,     49,     31, -1 
	    49,     32,     31, -1 
	    49,     50,     32, -1 
	    50,     51,     32, -1 
	    51,     52,     32, -1 
	    52,     33,     32, -1 
	    52,     35,     33, -1 
	    35,     34,     33, -1 
	    53,     35,     52, -1 
	    53,     54,     35, -1 
	    54,     36,     35, -1 
	    54,     55,     36, -1 
	    55,     37,     36, -1 
	    55,     43,     37, -1 
	    56,     39,     38, -1 
	    56,     38,     40, -1 
	    56,     57,     39, -1 
	    57,     42,     39, -1 
	    56,     40,     41, -1 
	    58,     41,     43, -1 
	    58,     56,     41, -1 
	    57,     59,     42, -1 
	    59,     45,     42, -1 
	    60,     43,     55, -1 
	    60,     58,     43, -1 
	    46,     47,     44, -1 
	    59,     46,     45, -1 
	    46,     61,     47, -1 
	    59,     62,     46, -1 
	    62,     61,     46, -1 
	    61,     48,     47, -1 
	    61,     63,     48, -1 
	    63,     49,     48, -1 
	    63,     64,     49, -1 
	    64,     50,     49, -1 
	    64,     65,     50, -1 
	    65,     51,     50, -1 
	    65,     66,     51, -1 
	    66,     52,     51, -1 
	    66,     53,     52, -1 
	    67,     53,     66, -1 
	    67,     68,     53, -1 
	    68,     54,     53, -1 
	    68,     69,     54, -1 
	    69,     55,     54, -1 
	    69,     70,     55, -1 
	    70,     60,     55, -1 
	    71,     57,     56, -1 
	    72,     56,     58, -1 
	    72,     73,     56, -1 
	    73,     71,     56, -1 
	    71,     74,     57, -1 
	    74,     59,     57, -1 
	    75,     58,     60, -1 
	    75,     72,     58, -1 
	    74,     76,     59, -1 
	    76,     62,     59, -1 
	    77,     60,     70, -1 
	    77,     75,     60, -1 
	    62,     78,     61, -1 
	    78,     79,     61, -1 
	    79,     63,     61, -1 
	    76,     80,     62, -1 
	    80,     81,     62, -1 
	    81,     78,     62, -1 
	    79,     82,     63, -1 
	    82,     64,     63, -1 
	    82,     83,     64, -1 
	    83,     65,     64, -1 
	    83,     84,     65, -1 
	    84,     66,     65, -1 
	    84,     67,     66, -1 
	    85,     67,     84, -1 
	    85,     86,     67, -1 
	    86,     68,     67, -1 
	    86,     87,     68, -1 
	    87,     69,     68, -1 
	    87,     77,     69, -1 
	    77,     70,     69, -1 
	    88,     74,     71, -1 
	    88,     71,     73, -1 
	    89,     72,     75, -1 
	    89,     73,     72, -1 
	    89,     88,     73, -1 
	    88,     76,     74, -1 
	    90,     75,     77, -1 
	    90,     89,     75, -1 
	    88,     91,     76, -1 
	    91,     80,     76, -1 
	    90,     77,     87, -1 
	    81,     92,     78, -1 
	    92,     93,     78, -1 
	    93,     79,     78, -1 
	    93,     82,     79, -1 
	    91,     81,     80, -1 
	    91,     92,     81, -1 
	    93,     94,     82, -1 
	    94,     95,     82, -1 
	    95,     83,     82, -1 
	    95,     84,     83, -1 
	    95,     85,     84, -1 
	    96,     85,     95, -1 
	    96,     86,     85, -1 
	    96,     90,     86, -1 
	    90,     87,     86, -1 
	    97,     91,     88, -1 
	    98,     88,     89, -1 
	    98,     97,     88, -1 
	    98,     89,     90, -1 
	    98,     90,     96, -1 
	    91,     93,     92, -1 
	    91,     96,     93, -1 
	    97,     96,     91, -1 
	    96,     94,     93, -1 
	    96,     95,     94, -1 
	    97,     98,     96, -1 
	    99,    100,    101, -1 
	    99,    101,    102, -1 
	    99,    103,    100, -1 
	    99,    104,    103, -1 
	    99,    105,    104, -1 
	    99,    106,    105, -1 
	    99,    102,    106, -1 
	   101,    100,    107, -1 
	   100,    108,    107, -1 
	   100,    103,    108, -1 
	   101,    107,    109, -1 
	   102,    101,    109, -1 
	   106,    102,    110, -1 
	   102,    109,    110, -1 
	   103,    111,    108, -1 
	   103,    112,    111, -1 
	   103,    104,    112, -1 
	   104,    113,    112, -1 
	   104,    105,    113, -1 
	   105,    114,    113, -1 
	   105,    106,    114, -1 
	   106,    115,    114, -1 
	   106,    110,    115, -1 
	   109,    107,    116, -1 
	   107,    117,    116, -1 
	   107,    108,    117, -1 
	   108,    111,    117, -1 
	   109,    116,    118, -1 
	   110,    109,    119, -1 
	   109,    118,    119, -1 
	   115,    110,    120, -1 
	   110,    119,    120, -1 
	   111,    121,    117, -1 
	   111,    112,    121, -1 
	   112,    122,    121, -1 
	   112,    123,    122, -1 
	   112,    113,    123, -1 
	   113,    124,    123, -1 
	   113,    125,    124, -1 
	   113,    114,    125, -1 
	   114,    126,    125, -1 
	   114,    115,    126, -1 
	   115,    127,    126, -1 
	   115,    120,    127, -1 
	   118,    116,    128, -1 
	   116,    129,    128, -1 
	   116,    117,    129, -1 
	   117,    130,    129, -1 
	   117,    131,    130, -1 
	   117,    121,    131, -1 
	   119,    118,    132, -1 
	   118,    128,    132, -1 
	   120,    119,    133, -1 
	   119,    132,    133, -1 
	   127,    120,    134, -1 
	   120,    135,    134, -1 
	   120,    136,    135, -1 
	   120,    133,    136, -1 
	   121,    137,    131, -1 
	   121,    122,    137, -1 
	   122,    138,    137, -1 
	   122,    123,    138, -1 
	   123,    139,    138, -1 
	   123,    124,    139, -1 
	   124,    140,    139, -1 
	   124,    125,    140, -1 
	   125,    141,    140, -1 
	   125,    142,    141, -1 
	   125,    143,    142, -1 
	   125,    126,    143, -1 
	   126,    134,    143, -1 
	   126,    127,    134, -1 
	   128,    144,    145, -1 
	   128,    129,    144, -1 
	   132,    128,    146, -1 
	   128,    145,    146, -1 
	   129,    147,    144, -1 
	   129,    130,    147, -1 
	   130,    148,    147, -1 
	   130,    149,    148, -1 
	   130,    131,    149, -1 
	   131,    137,    149, -1 
	   133,    132,    150, -1 
	   132,    146,    150, -1 
	   136,    133,    151, -1 
	   133,    150,    151, -1 
	   143,    134,    152, -1 
	   134,    153,    152, -1 
	   134,    135,    153, -1 
	   135,    154,    153, -1 
	   135,    136,    154, -1 
	   136,    151,    154, -1 
	   137,    138,    149, -1 
	   138,    155,    149, -1 
	   138,    139,    155, -1 
	   139,    156,    155, -1 
	   139,    140,    156, -1 
	   140,    157,    156, -1 
	   140,    141,    157, -1 
	   141,    158,    157, -1 
	   141,    142,    158, -1 
	   142,    159,    158, -1 
	   142,    143,    159, -1 
	   143,    152,    159, -1 
	   145,    144,    160, -1 
	   144,    161,    160, -1 
	   144,    147,    161, -1 
	   146,    145,    160, -1 
	   150,    146,    160, -1 
	   147,    162,    161, -1 
	   147,    148,    162, -1 
	   148,    149,    162, -1 
	   149,    163,    162, -1 
	   149,    155,    163, -1 
	   151,    150,    164, -1 
	   150,    160,    164, -1 
	   154,    151,    165, -1 
	   151,    164,    165, -1 
	   159,    152,    166, -1 
	   152,    167,    166, -1 
	   152,    153,    167, -1 
	   153,    168,    167, -1 
	   153,    154,    168, -1 
	   154,    169,    168, -1 
	   154,    165,    169, -1 
	   155,    170,    163, -1 
	   155,    171,    170, -1 
	   155,    156,    171, -1 
	   156,    172,    171, -1 
	   156,    157,    172, -1 
	   157,    173,    172, -1 
	   157,    158,    173, -1 
	   158,    174,    173, -1 
	   158,    159,    174, -1 
	   159,    166,    174, -1 
	   160,    161,    175, -1 
	   164,    160,    176, -1 
	   160,    177,    176, -1 
	   160,    175,    177, -1 
	   161,    178,    175, -1 
	   161,    162,    178, -1 
	   162,    179,    178, -1 
	   162,    163,    179, -1 
	   163,    180,    179, -1 
	   163,    181,    180, -1 
	   163,    170,    181, -1 
	   165,    164,    182, -1 
	   164,    176,    182, -1 
	   169,    165,    183, -1 
	   165,    182,    183, -1 
	   174,    166,    184, -1 
	   166,    185,    184, -1 
	   166,    167,    185, -1 
	   167,    186,    185, -1 
	   167,    168,    186, -1 
	   168,    183,    186, -1 
	   168,    169,    183, -1 
	   170,    187,    181, -1 
	   170,    188,    187, -1 
	   170,    171,    188, -1 
	   171,    172,    188, -1 
	   172,    189,    188, -1 
	   172,    190,    189, -1 
	   172,    173,    190, -1 
	   173,    174,    190, -1 
	   174,    184,    190, -1 
	   175,    178,    191, -1 
	   177,    175,    191, -1 
	   182,    176,    192, -1 
	   176,    177,    192, -1 
	   177,    191,    192, -1 
	   178,    179,    191, -1 
	   179,    193,    191, -1 
	   179,    180,    193, -1 
	   180,    181,    193, -1 
	   181,    187,    193, -1 
	   183,    182,    194, -1 
	   182,    192,    194, -1 
	   186,    183,    194, -1 
	   190,    184,    195, -1 
	   184,    185,    195, -1 
	   185,    194,    195, -1 
	   185,    186,    194, -1 
	   187,    188,    193, -1 
	   188,    195,    193, -1 
	   188,    189,    195, -1 
	   189,    190,    195, -1 
	   191,    193,    196, -1 
	   192,    191,    197, -1 
	   191,    196,    197, -1 
	   194,    192,    197, -1 
	   193,    195,    196, -1 
	   195,    194,    197, -1 
	   195,    197,    196, -1 
    ] 
normalPerVertex  TRUE 
   } 
  } 
 ] 
} 
