# 
# Wavefront OBJ file
# Converted by the DEEP Exploration 2.00.1211
# Right Hemisphere, LTD
# http://www.righthemisphere.com/
# 
mtllib talus_r.mtl
# object Object #0
g Object__0
v -0.015336 -0.001551 -0.00502
v -0.014889 -0.003873 -0.007677
v -0.017534 -0.005246 -0.001672
v -0.016408 -0.00083 0.00114
v -0.009812 0.007641 -0.009034
v -0.008588 0.000332 -0.016332
v -0.015134 -0.008536 -0.006469
v -0.008109 -0.002159 -0.019176
v -0.016145 -0.010144 -0.00075
v -0.016894 -0.007941 0.003632
v -0.017213 -0.003912 0.005621
v -0.011834 0.005902 0.002472
v -0.002403 0.00825 -0.015098
v -0.001819 0.005419 -0.018558
v -0.00404 0.007768 -0.005741
v -0.001849 0.000647 -0.01858
v -0.008156 -0.009375 -0.01921
v -0.009509 -0.01258 -0.011591
v -0.011753 -0.010061 0.00135
v -0.01279 -0.004056 0.007535
v -0.0132 0.000823 0.010083
v -0.006053 0.005974 0.005703
v 0.004224 0.009586 -0.016663
v 0.002786 0.008425 -0.00848
v 0.004404 0.007373 -0.017781
v 0.001097 0.00851 0.001186
v -0.001458 -0.007187 -0.021141
v 0.004365 0.001236 -0.01781
v 0.004701 -0.003588 -0.019925
v -0.002952 -0.008916 -0.012653
v -0.003984 -0.008991 -0.006743
v -0.005343 -0.005775 0.001153
v -0.006902 -0.002506 0.010219
v -0.007451 -0.00081 0.013429
v -0.007312 0.002544 0.012766
v -0.001113 0.005804 0.013734
v -0.000964 0.010692 0.01308
v -0.000284 0.011101 0.009203
v 0.010816 0.012 -0.017977
v 0.011067 0.007573 -0.019597
v 0.009372 0.011465 -0.009729
v 0.007844 0.009961 -0.001054
v 0.01082 0.000922 -0.018459
v 0.006297 0.011924 0.007881
v 0.004377 -0.007229 -0.018219
v 0.009053 -0.001794 -0.014086
v 0.008875 -0.005986 -0.007593
v 0.00249 -0.006067 -0.007377
v 0.001319 -0.004212 -0.000596
v 2e-005 -0.007415 0.006716
v -0.001083 -0.008286 0.012991
v -0.00132 -0.006472 0.014416
v -0.000879 -0.001465 0.0121
v 0.004587 -0.001967 0.017112
v 0.004393 0.00479 0.018499
v 0.004559 0.012634 0.01786
v 0.016815 0.009007 -0.016115
v 0.017353 0.005721 -0.019331
v 0.01356 0.00969 0.002543
v 0.017451 -0.000811 -0.020162
v 0.011494 0.011417 0.014434
v 0.008122 -0.007476 -0.003352
v 0.016136 -0.006458 -0.012861
v 0.006425 -0.008924 0.006307
v 0.006094 -0.010033 0.013227
v 0.005313 -0.007488 0.017794
v 0.005255 -0.006007 0.018306
v 0.011431 -0.001992 0.014249
v 0.011223 0.000789 0.015554
v 0.010979 0.006466 0.017182
v 0.011171 0.011412 0.016281
v 0.022744 0.005558 -0.013885
v 0.020859 0.006719 -0.003044
v 0.022406 0.006518 -0.011911
v 0.023483 -0.001929 -0.018414
v 0.018882 0.006971 0.008285
v 0.023415 -0.005737 -0.018186
v 0.018275 0.006335 0.01173
v 0.01559 -0.009308 -0.009858
v 0.014124 -0.006605 -0.00135
v 0.02278 -0.007622 -0.014624
v 0.022242 -0.007858 -0.011547
v 0.012082 -0.006072 0.010352
v 0.011014 -0.007055 0.016441
v 0.011147 -0.004553 0.015775
v 0.017952 -0.004124 0.013159
v 0.018189 -0.002245 0.011876
v 0.018252 0.002869 0.011715
v 0.028566 0.003528 -0.010972
v 0.026307 0.005194 0.002026
v 0.025728 0.002231 0.005214
v 0.027208 -0.00388 -0.003496
v 0.021713 -0.009799 -0.0086
v 0.020847 -0.008734 -0.003608
v 0.018541 -0.005932 0.009704
v 0.01814 -0.006563 0.011979
v 0.024665 -0.000969 0.011172
v 0.028607 -0.002131 -0.002356
v 0.027173 -0.000849 0.005899
# 99 verticies
vn -0.881134 0.337451 -0.331255
vn -0.884378 0.155129 -0.440239
vn -0.984265 0.011936 -0.176293
vn -0.898502 0.435855 -0.052204
vn -0.624447 0.726816 -0.286013
vn -0.658053 0.399097 -0.638504
vn -0.869961 -0.282957 -0.40386
vn -0.642919 0.229425 -0.730766
vn -0.679513 -0.733648 0.004715
vn -0.622549 -0.607217 0.493681
vn -0.899095 0.059706 0.433663
vn -0.545305 0.812575 0.205826
vn -0.246636 0.942233 -0.226643
vn -0.300423 0.4212 -0.855767
vn -0.11655 0.990628 0.071219
vn -0.066092 0.22686 -0.971682
vn -0.451074 -0.320908 -0.832797
vn 0.00186 -0.994146 -0.108034
vn 0.161968 -0.875632 0.45501
vn -0.238574 -0.634941 0.734801
vn -0.609178 0.316905 0.726962
vn -0.490913 0.844728 0.213165
vn -0.301471 0.794507 -0.527138
vn -0.235551 0.971189 0.036159
vn -0.067669 0.126459 -0.989661
vn -0.268194 0.951036 -0.153633
vn 0.191785 -0.608722 -0.769854
vn 0.185939 -0.236174 -0.953755
vn 0.574257 0.059589 -0.816503
vn 0.368169 -0.929754 0.003059
vn 0.426912 -0.868884 0.250574
vn 0.223523 -0.947137 0.23015
vn -0.282551 -0.79361 0.538839
vn -0.210187 -0.403423 0.890545
vn -0.44274 0.573721 0.689076
vn -0.559984 0.111464 0.820971
vn -0.744623 0.466683 0.477225
vn -0.380108 0.91116 -0.159076
vn 0.066705 0.837196 -0.542819
vn -0.027108 0.2658 -0.963647
vn -0.059167 0.992021 0.111326
vn -0.036964 0.998731 -0.034212
vn -0.187314 -0.322444 -0.92787
vn -0.011992 0.984959 -0.172373
vn 0.423532 -0.866679 -0.263605
vn -0.209881 -0.803791 -0.55666
vn 0.113172 -0.867602 -0.484209
vn 0.145938 -0.985449 0.087131
vn -0.046851 -0.998635 -0.02308
vn -0.30016 -0.932608 -0.200366
vn -0.503841 -0.818145 0.277096
vn -0.555042 -0.126821 0.822098
vn -0.402041 -0.070554 0.912899
vn -0.197653 -0.097234 0.975438
vn -0.236761 -0.06435 0.969435
vn -0.079123 0.847 0.525672
vn 0.43496 0.868448 -0.237924
vn 0.285738 0.346577 -0.893442
vn 0.296184 0.954067 -0.045069
vn -0.189359 -0.453221 -0.871053
vn 0.400338 0.915672 0.035695
vn -0.252674 -0.951218 -0.177033
vn -0.343368 -0.785723 -0.514527
vn 0.020684 -0.985686 -0.167317
vn 0.100825 -0.99129 0.084725
vn -0.060611 -0.526594 0.847953
vn -0.114802 0.144096 0.982882
vn 0.336647 0.183101 0.923657
vn 0.370229 -0.236454 0.898343
vn 0.41258 -0.02039 0.910693
vn 0.51388 0.628708 0.583656
vn 0.564402 0.648555 -0.510713
vn 0.33887 0.940167 0.035414
vn 0.4248 0.897499 -0.118491
vn 0.550944 0.20055 -0.810087
vn 0.529929 0.825351 0.194864
vn 0.492145 -0.57083 -0.657226
vn 0.703943 0.441703 0.556204
vn -0.175726 -0.962266 -0.207763
vn 0.017787 -0.993046 0.116377
vn 0.277121 -0.938083 -0.207857
vn 0.278494 -0.894529 -0.349657
vn 0.171084 -0.984368 -0.041834
vn 0.417308 -0.665306 0.619049
vn 0.364284 0.127392 0.922534
vn 0.303156 0.177885 0.936191
vn 0.308717 0.314791 0.897552
vn 0.584963 -0.038911 0.810126
vn 0.918489 0.274843 -0.284321
vn 0.607451 0.756845 0.241223
vn 0.631597 0.491223 0.59982
vn 0.758284 -0.651892 -0.006469
vn 0.384346 -0.918649 -0.091442
vn 0.178094 -0.958369 0.223184
vn 0.336884 -0.941086 0.029443
vn 0.441195 -0.766797 0.46623
vn 0.700681 -0.402369 0.589191
vn 0.852495 -0.515648 0.085786
vn 0.932887 0.121457 0.339072
# 99 normals
usemtl Material__1
f  1//1 2//2 3//3
f  4//4 1//1 3//3
f  5//5 6//6 1//1
f  6//6 2//2 1//1
f  5//5 1//1 4//4
f  2//2 7//7 3//3
f  6//6 8//8 2//2
f  8//8 7//7 2//2
f  7//7 9//9 3//3
f  9//9 10//10 3//3
f  10//10 11//11 3//3
f  11//11 4//4 3//3
f  12//12 4//4 11//11
f  12//12 5//5 4//4
f  13//13 14//14 5//5
f  14//14 6//6 5//5
f  15//15 5//5 12//12
f  15//15 13//13 5//5
f  14//14 16//16 6//6
f  16//16 8//8 6//6
f  8//8 17//17 7//7
f  17//17 18//18 7//7
f  18//18 9//9 7//7
f  16//16 17//17 8//8
f  18//18 19//19 9//9
f  19//19 10//10 9//9
f  19//19 20//20 10//10
f  20//20 11//11 10//10
f  20//20 21//21 11//11
f  21//21 12//12 11//11
f  22//22 12//12 21//21
f  22//22 15//15 12//12
f  23//23 14//14 13//13
f  24//24 13//13 15//15
f  24//24 23//23 13//13
f  23//23 25//25 14//14
f  25//25 16//16 14//14
f  26//26 15//15 22//22
f  26//26 24//24 15//15
f  16//16 27//27 17//17
f  25//25 28//28 16//16
f  28//28 29//29 16//16
f  29//29 27//27 16//16
f  27//27 18//18 17//17
f  27//27 30//30 18//18
f  30//30 31//31 18//18
f  31//31 19//19 18//18
f  31//31 32//32 19//19
f  32//32 33//33 19//19
f  33//33 20//20 19//19
f  33//33 34//34 20//20
f  34//34 21//21 20//20
f  34//34 35//35 21//21
f  35//35 22//22 21//21
f  36//36 22//22 35//35
f  36//36 37//37 22//22
f  37//37 38//38 22//22
f  38//38 26//26 22//22
f  39//39 40//40 23//23
f  40//40 25//25 23//23
f  41//41 23//23 24//24
f  41//41 39//39 23//23
f  42//42 24//24 26//26
f  42//42 41//41 24//24
f  40//40 43//43 25//25
f  43//43 28//28 25//25
f  44//44 26//26 38//38
f  44//44 42//42 26//26
f  29//29 45//45 27//27
f  45//45 30//30 27//27
f  43//43 46//46 28//28
f  46//46 47//47 28//28
f  47//47 29//29 28//28
f  47//47 45//45 29//29
f  45//45 48//48 30//30
f  48//48 31//31 30//30
f  48//48 49//49 31//31
f  49//49 32//32 31//31
f  49//49 50//50 32//32
f  50//50 33//33 32//32
f  50//50 51//51 33//33
f  51//51 52//52 33//33
f  52//52 53//53 33//33
f  53//53 34//34 33//33
f  53//53 36//36 34//34
f  36//36 35//35 34//34
f  54//54 36//36 53//53
f  54//54 55//55 36//36
f  55//55 37//37 36//36
f  55//55 56//56 37//37
f  56//56 38//38 37//37
f  56//56 44//44 38//38
f  57//57 40//40 39//39
f  57//57 39//39 41//41
f  57//57 58//58 40//40
f  58//58 43//43 40//40
f  57//57 41//41 42//42
f  59//59 42//42 44//44
f  59//59 57//57 42//42
f  58//58 60//60 43//43
f  60//60 46//46 43//43
f  61//61 44//44 56//56
f  61//61 59//59 44//44
f  47//47 48//48 45//45
f  60//60 47//47 46//46
f  47//47 62//62 48//48
f  60//60 63//63 47//47
f  63//63 62//62 47//47
f  62//62 49//49 48//48
f  62//62 64//64 49//49
f  64//64 50//50 49//49
f  64//64 65//65 50//50
f  65//65 51//51 50//50
f  65//65 66//66 51//51
f  66//66 52//52 51//51
f  66//66 67//67 52//52
f  67//67 53//53 52//52
f  67//67 54//54 53//53
f  68//68 54//54 67//67
f  68//68 69//69 54//54
f  69//69 55//55 54//54
f  69//69 70//70 55//55
f  70//70 56//56 55//55
f  70//70 71//71 56//56
f  71//71 61//61 56//56
f  72//72 58//58 57//57
f  73//73 57//57 59//59
f  73//73 74//74 57//57
f  74//74 72//72 57//57
f  72//72 75//75 58//58
f  75//75 60//60 58//58
f  76//76 59//59 61//61
f  76//76 73//73 59//59
f  75//75 77//77 60//60
f  77//77 63//63 60//60
f  78//78 61//61 71//71
f  78//78 76//76 61//61
f  63//63 79//79 62//62
f  79//79 80//80 62//62
f  80//80 64//64 62//62
f  77//77 81//81 63//63
f  81//81 82//82 63//63
f  82//82 79//79 63//63
f  80//80 83//83 64//64
f  83//83 65//65 64//64
f  83//83 84//84 65//65
f  84//84 66//66 65//65
f  84//84 85//85 66//66
f  85//85 67//67 66//66
f  85//85 68//68 67//67
f  86//86 68//68 85//85
f  86//86 87//87 68//68
f  87//87 69//69 68//68
f  87//87 88//88 69//69
f  88//88 70//70 69//69
f  88//88 78//78 70//70
f  78//78 71//71 70//70
f  89//89 75//75 72//72
f  89//89 72//72 74//74
f  90//90 73//73 76//76
f  90//90 74//74 73//73
f  90//90 89//89 74//74
f  89//89 77//77 75//75
f  91//91 76//76 78//78
f  91//91 90//90 76//76
f  89//89 92//92 77//77
f  92//92 81//81 77//77
f  91//91 78//78 88//88
f  82//82 93//93 79//79
f  93//93 94//94 79//79
f  94//94 80//80 79//79
f  94//94 83//83 80//80
f  92//92 82//82 81//81
f  92//92 93//93 82//82
f  94//94 95//95 83//83
f  95//95 96//96 83//83
f  96//96 84//84 83//83
f  96//96 85//85 84//84
f  96//96 86//86 85//85
f  97//97 86//86 96//96
f  97//97 87//87 86//86
f  97//97 91//91 87//87
f  91//91 88//88 87//87
f  98//98 92//92 89//89
f  99//99 89//89 90//90
f  99//99 98//98 89//89
f  99//99 90//90 91//91
f  99//99 91//91 97//97
f  92//92 94//94 93//93
f  92//92 97//97 94//94
f  98//98 97//97 92//92
f  97//97 95//95 94//94
f  97//97 96//96 95//95
f  98//98 99//99 97//97
