#VRML V2.0 utf8
Transform {
children [
Shape {
appearance Appearance {
              material DEF surface Material {
              diffuseColor 0.8 0.8 0.8
              ambientIntensity 0.2
              specularColor 0.4 0.4 0.4
              emissiveColor 0 0 0
              shininess 0.25
              transparency 0
            }
          }
geometry IndexedFaceSet {
solid FALSE
coord DEF bone Coordinate {
point [
 -0.017534	 -0.005246	 -0.081828,
 -0.014889	 -0.003873	 -0.075823,
 -0.015336	 -0.001551	 -0.078480,
 -0.016408	 -0.000830	 -0.084640,
 -0.015134	 -0.008536	 -0.077031,
 -0.016145	 -0.010144	 -0.082750,
 -0.016894	 -0.007941	 -0.087132,
 -0.017213	 -0.003912	 -0.089121,
 -0.008588	  0.000332	 -0.067168,
 -0.008109	 -0.002159	 -0.064324,
 -0.009812	  0.007641	 -0.074466,
 -0.011834	  0.005902	 -0.085972,
 -0.008156	 -0.009375	 -0.064290,
 -0.009509	 -0.012580	 -0.071909,
 -0.011753	 -0.010061	 -0.084850,
 -0.012790	 -0.004056	 -0.091035,
 -0.013200	  0.000823	 -0.093583,
 -0.001819	  0.005419	 -0.064942,
 -0.001849	  0.000647	 -0.064920,
 -0.002403	  0.008250	 -0.068402,
 -0.004040	  0.007768	 -0.077759,
 -0.006053	  0.005974	 -0.089203,
 -0.001458	 -0.007187	 -0.062359,
 -0.002952	 -0.008916	 -0.070847,
 -0.003984	 -0.008991	 -0.076757,
 -0.005343	 -0.005775	 -0.084653,
 -0.006902	 -0.002506	 -0.093719,
 -0.007451	 -0.000810	 -0.096929,
 -0.007312	  0.002544	 -0.096266,
  0.004224	  0.009586	 -0.066837,
  0.004404	  0.007373	 -0.065719,
  0.004365	  0.001236	 -0.065690,
  0.004701	 -0.003588	 -0.063575,
  0.002786	  0.008425	 -0.075020,
  0.001097	  0.008510	 -0.084686,
 -0.001113	  0.005804	 -0.097234,
 -0.000964	  0.010692	 -0.096580,
 -0.000284	  0.011101	 -0.092703,
  0.004377	 -0.007229	 -0.065281,
  0.002490	 -0.006067	 -0.076123,
  0.001319	 -0.004212	 -0.082904,
  0.000020	 -0.007415	 -0.090216,
 -0.001083	 -0.008286	 -0.096491,
 -0.001320	 -0.006472	 -0.097916,
 -0.000879	 -0.001465	 -0.095600,
  0.011067	  0.007573	 -0.063903,
  0.010816	  0.012000	 -0.065523,
  0.009372	  0.011465	 -0.073771,
  0.010820	  0.000922	 -0.065041,
  0.009053	 -0.001794	 -0.069414,
  0.008875	 -0.005986	 -0.075907,
  0.007844	  0.009961	 -0.082446,
  0.006297	  0.011924	 -0.091381,
  0.004587	 -0.001967	 -0.100612,
  0.004393	  0.004790	 -0.101999,
  0.004559	  0.012634	 -0.101360,
  0.008122	 -0.007476	 -0.080148,
  0.006425	 -0.008924	 -0.089807,
  0.006094	 -0.010033	 -0.096727,
  0.005313	 -0.007488	 -0.101294,
  0.005255	 -0.006007	 -0.101806,
  0.016815	  0.009007	 -0.067385,
  0.017353	  0.005721	 -0.064169,
  0.017451	 -0.000811	 -0.063338,
  0.016136	 -0.006458	 -0.070639,
  0.013560	  0.009690	 -0.086043,
  0.011494	  0.011417	 -0.097934,
  0.011431	 -0.001992	 -0.097749,
  0.011223	  0.000789	 -0.099054,
  0.010979	  0.006466	 -0.100682,
  0.011171	  0.011412	 -0.099781,
  0.015590	 -0.009308	 -0.073642,
  0.014124	 -0.006605	 -0.082150,
  0.012082	 -0.006072	 -0.093852,
  0.011014	 -0.007055	 -0.099941,
  0.011147	 -0.004553	 -0.099275,
  0.022744	  0.005558	 -0.069615,
  0.020859	  0.006719	 -0.080456,
  0.022406	  0.006518	 -0.071589,
  0.023483	 -0.001929	 -0.065086,
  0.023415	 -0.005737	 -0.065314,
  0.022780	 -0.007622	 -0.068876,
  0.022242	 -0.007858	 -0.071953,
  0.018882	  0.006971	 -0.091785,
  0.018275	  0.006335	 -0.095230,
  0.017952	 -0.004124	 -0.096659,
  0.018189	 -0.002245	 -0.095376,
  0.018252	  0.002869	 -0.095215,
  0.021713	 -0.009799	 -0.074900,
  0.020847	 -0.008734	 -0.079892,
  0.018541	 -0.005932	 -0.093204,
  0.018140	 -0.006563	 -0.095479,
  0.028566	  0.003528	 -0.072528,
  0.026307	  0.005194	 -0.085526,
  0.027208	 -0.003880	 -0.080004,
  0.025728	  0.002231	 -0.088714,
  0.024665	 -0.000969	 -0.094672,
  0.028607	 -0.002131	 -0.081144,
  0.027173	 -0.000849	 -0.089399,
]
}
coordIndex [
   0,	   1,	   2, -1
   0,	   2,	   3, -1
   0,	   4,	   1, -1
   0,	   5,	   4, -1
   0,	   6,	   5, -1
   0,	   7,	   6, -1
   0,	   3,	   7, -1
   2,	   1,	   8, -1
   1,	   9,	   8, -1
   1,	   4,	   9, -1
   2,	   8,	  10, -1
   3,	   2,	  10, -1
   7,	   3,	  11, -1
   3,	  10,	  11, -1
   4,	  12,	   9, -1
   4,	  13,	  12, -1
   4,	   5,	  13, -1
   5,	  14,	  13, -1
   5,	   6,	  14, -1
   6,	  15,	  14, -1
   6,	   7,	  15, -1
   7,	  16,	  15, -1
   7,	  11,	  16, -1
  10,	   8,	  17, -1
   8,	  18,	  17, -1
   8,	   9,	  18, -1
   9,	  12,	  18, -1
  10,	  17,	  19, -1
  11,	  10,	  20, -1
  10,	  19,	  20, -1
  16,	  11,	  21, -1
  11,	  20,	  21, -1
  12,	  22,	  18, -1
  12,	  13,	  22, -1
  13,	  23,	  22, -1
  13,	  24,	  23, -1
  13,	  14,	  24, -1
  14,	  25,	  24, -1
  14,	  26,	  25, -1
  14,	  15,	  26, -1
  15,	  27,	  26, -1
  15,	  16,	  27, -1
  16,	  28,	  27, -1
  16,	  21,	  28, -1
  19,	  17,	  29, -1
  17,	  30,	  29, -1
  17,	  18,	  30, -1
  18,	  31,	  30, -1
  18,	  32,	  31, -1
  18,	  22,	  32, -1
  20,	  19,	  33, -1
  19,	  29,	  33, -1
  21,	  20,	  34, -1
  20,	  33,	  34, -1
  28,	  21,	  35, -1
  21,	  36,	  35, -1
  21,	  37,	  36, -1
  21,	  34,	  37, -1
  22,	  38,	  32, -1
  22,	  23,	  38, -1
  23,	  39,	  38, -1
  23,	  24,	  39, -1
  24,	  40,	  39, -1
  24,	  25,	  40, -1
  25,	  41,	  40, -1
  25,	  26,	  41, -1
  26,	  42,	  41, -1
  26,	  43,	  42, -1
  26,	  44,	  43, -1
  26,	  27,	  44, -1
  27,	  35,	  44, -1
  27,	  28,	  35, -1
  29,	  45,	  46, -1
  29,	  30,	  45, -1
  33,	  29,	  47, -1
  29,	  46,	  47, -1
  30,	  48,	  45, -1
  30,	  31,	  48, -1
  31,	  49,	  48, -1
  31,	  50,	  49, -1
  31,	  32,	  50, -1
  32,	  38,	  50, -1
  34,	  33,	  51, -1
  33,	  47,	  51, -1
  37,	  34,	  52, -1
  34,	  51,	  52, -1
  44,	  35,	  53, -1
  35,	  54,	  53, -1
  35,	  36,	  54, -1
  36,	  55,	  54, -1
  36,	  37,	  55, -1
  37,	  52,	  55, -1
  38,	  39,	  50, -1
  39,	  56,	  50, -1
  39,	  40,	  56, -1
  40,	  57,	  56, -1
  40,	  41,	  57, -1
  41,	  58,	  57, -1
  41,	  42,	  58, -1
  42,	  59,	  58, -1
  42,	  43,	  59, -1
  43,	  60,	  59, -1
  43,	  44,	  60, -1
  44,	  53,	  60, -1
  46,	  45,	  61, -1
  45,	  62,	  61, -1
  45,	  48,	  62, -1
  47,	  46,	  61, -1
  51,	  47,	  61, -1
  48,	  63,	  62, -1
  48,	  49,	  63, -1
  49,	  50,	  63, -1
  50,	  64,	  63, -1
  50,	  56,	  64, -1
  52,	  51,	  65, -1
  51,	  61,	  65, -1
  55,	  52,	  66, -1
  52,	  65,	  66, -1
  60,	  53,	  67, -1
  53,	  68,	  67, -1
  53,	  54,	  68, -1
  54,	  69,	  68, -1
  54,	  55,	  69, -1
  55,	  70,	  69, -1
  55,	  66,	  70, -1
  56,	  71,	  64, -1
  56,	  72,	  71, -1
  56,	  57,	  72, -1
  57,	  73,	  72, -1
  57,	  58,	  73, -1
  58,	  74,	  73, -1
  58,	  59,	  74, -1
  59,	  75,	  74, -1
  59,	  60,	  75, -1
  60,	  67,	  75, -1
  61,	  62,	  76, -1
  65,	  61,	  77, -1
  61,	  78,	  77, -1
  61,	  76,	  78, -1
  62,	  79,	  76, -1
  62,	  63,	  79, -1
  63,	  80,	  79, -1
  63,	  64,	  80, -1
  64,	  81,	  80, -1
  64,	  82,	  81, -1
  64,	  71,	  82, -1
  66,	  65,	  83, -1
  65,	  77,	  83, -1
  70,	  66,	  84, -1
  66,	  83,	  84, -1
  75,	  67,	  85, -1
  67,	  86,	  85, -1
  67,	  68,	  86, -1
  68,	  87,	  86, -1
  68,	  69,	  87, -1
  69,	  84,	  87, -1
  69,	  70,	  84, -1
  71,	  88,	  82, -1
  71,	  89,	  88, -1
  71,	  72,	  89, -1
  72,	  73,	  89, -1
  73,	  90,	  89, -1
  73,	  91,	  90, -1
  73,	  74,	  91, -1
  74,	  75,	  91, -1
  75,	  85,	  91, -1
  76,	  79,	  92, -1
  78,	  76,	  92, -1
  83,	  77,	  93, -1
  77,	  78,	  93, -1
  78,	  92,	  93, -1
  79,	  80,	  92, -1
  80,	  94,	  92, -1
  80,	  81,	  94, -1
  81,	  82,	  94, -1
  82,	  88,	  94, -1
  84,	  83,	  95, -1
  83,	  93,	  95, -1
  87,	  84,	  95, -1
  91,	  85,	  96, -1
  85,	  86,	  96, -1
  86,	  95,	  96, -1
  86,	  87,	  95, -1
  88,	  89,	  94, -1
  89,	  96,	  94, -1
  89,	  90,	  96, -1
  90,	  91,	  96, -1
  92,	  94,	  97, -1
  93,	  92,	  98, -1
  92,	  97,	  98, -1
  95,	  93,	  98, -1
  94,	  96,	  97, -1
  96,	  95,	  98, -1
  96,	  98,	  97, -1
]
colorPerVertex FALSE
colorIndex [
1,
1,
1,
1,
1,
1,
1,
1,
1,
1,
1,
1,
1,
1,
1,
1,
1,
1,
1,
1,
1,
1,
1,
1,
1,
1,
1,
1,
1,
1,
1,
1,
1,
1,
1,
1,
1,
1,
1,
1,
1,
1,
1,
1,
1,
1,
1,
1,
1,
1,
1,
1,
1,
1,
1,
1,
1,
1,
1,
1,
1,
1,
1,
1,
1,
1,
1,
1,
1,
1,
1,
1,
1,
1,
1,
1,
1,
1,
1,
1,
1,
1,
1,
1,
1,
1,
1,
1,
1,
1,
1,
1,
1,
1,
1,
1,
1,
1,
1,
]
normal Normal {
vector [
 -0.984265	  0.011936	  0.176293,
 -0.884378	  0.155129	  0.440239,
 -0.881134	  0.337451	  0.331255,
 -0.898501	  0.435855	  0.052204,
 -0.869961	 -0.282957	  0.403860,
 -0.679513	 -0.733648	 -0.004715,
 -0.622549	 -0.607217	 -0.493681,
 -0.899095	  0.059706	 -0.433663,
 -0.658053	  0.399097	  0.638504,
 -0.642919	  0.229425	  0.730766,
 -0.624447	  0.726816	  0.286013,
 -0.545305	  0.812575	 -0.205826,
 -0.451074	 -0.320908	  0.832797,
  0.001860	 -0.994146	  0.108034,
  0.161968	 -0.875632	 -0.455010,
 -0.238574	 -0.634941	 -0.734801,
 -0.609178	  0.316905	 -0.726962,
 -0.300423	  0.421200	  0.855767,
 -0.066092	  0.226860	  0.971682,
 -0.246636	  0.942233	  0.226643,
 -0.116550	  0.990628	 -0.071219,
 -0.490913	  0.844728	 -0.213165,
  0.191785	 -0.608722	  0.769854,
  0.368169	 -0.929754	 -0.003059,
  0.426912	 -0.868883	 -0.250574,
  0.223523	 -0.947137	 -0.230150,
 -0.282551	 -0.793610	 -0.538839,
 -0.210187	 -0.403423	 -0.890545,
 -0.442740	  0.573721	 -0.689076,
 -0.301471	  0.794507	  0.527138,
 -0.067669	  0.126459	  0.989661,
  0.185939	 -0.236174	  0.953755,
  0.574257	  0.059589	  0.816503,
 -0.235551	  0.971189	 -0.036159,
 -0.268194	  0.951036	  0.153633,
 -0.559984	  0.111464	 -0.820971,
 -0.744623	  0.466683	 -0.477225,
 -0.380108	  0.911160	  0.159076,
  0.423532	 -0.866680	  0.263605,
  0.145938	 -0.985449	 -0.087131,
 -0.046851	 -0.998635	  0.023080,
 -0.300160	 -0.932608	  0.200366,
 -0.503841	 -0.818145	 -0.277096,
 -0.555042	 -0.126821	 -0.822098,
 -0.402041	 -0.070554	 -0.912899,
 -0.027108	  0.265800	  0.963647,
  0.066705	  0.837196	  0.542819,
 -0.059167	  0.992021	 -0.111326,
 -0.187314	 -0.322444	  0.927870,
 -0.209881	 -0.803791	  0.556660,
  0.113172	 -0.867602	  0.484209,
 -0.036964	  0.998731	  0.034212,
 -0.011992	  0.984959	  0.172373,
 -0.197653	 -0.097234	 -0.975438,
 -0.236761	 -0.064350	 -0.969435,
 -0.079123	  0.847000	 -0.525672,
 -0.252674	 -0.951218	  0.177033,
  0.020684	 -0.985686	  0.167317,
  0.100825	 -0.991290	 -0.084725,
 -0.060611	 -0.526594	 -0.847953,
 -0.114802	  0.144096	 -0.982882,
  0.434960	  0.868448	  0.237924,
  0.285738	  0.346577	  0.893442,
 -0.189359	 -0.453221	  0.871054,
 -0.343368	 -0.785723	  0.514527,
  0.296184	  0.954067	  0.045069,
  0.400338	  0.915672	 -0.035695,
  0.336647	  0.183101	 -0.923657,
  0.370229	 -0.236454	 -0.898343,
  0.412580	 -0.020390	 -0.910693,
  0.513880	  0.628708	 -0.583656,
 -0.175726	 -0.962266	  0.207763,
  0.017787	 -0.993046	 -0.116377,
  0.171084	 -0.984368	  0.041834,
  0.417308	 -0.665306	 -0.619049,
  0.364284	  0.127392	 -0.922534,
  0.564402	  0.648555	  0.510713,
  0.338870	  0.940167	 -0.035414,
  0.424800	  0.897499	  0.118491,
  0.550944	  0.200550	  0.810087,
  0.492145	 -0.570830	  0.657226,
  0.277121	 -0.938083	  0.207857,
  0.278494	 -0.894529	  0.349657,
  0.529929	  0.825351	 -0.194864,
  0.703943	  0.441703	 -0.556204,
  0.303156	  0.177885	 -0.936191,
  0.308717	  0.314791	 -0.897552,
  0.584963	 -0.038911	 -0.810126,
  0.384346	 -0.918649	  0.091442,
  0.178094	 -0.958369	 -0.223184,
  0.336884	 -0.941086	 -0.029443,
  0.441195	 -0.766797	 -0.466230,
  0.918489	  0.274843	  0.284321,
  0.607451	  0.756845	 -0.241223,
  0.758284	 -0.651892	  0.006469,
  0.631597	  0.491223	 -0.599820,
  0.700681	 -0.402369	 -0.589191,
  0.852495	 -0.515648	 -0.085786,
  0.932887	  0.121457	 -0.339072,
]
}
normalIndex [
   0,	   1,	   2, -1
   0,	   2,	   3, -1
   0,	   4,	   1, -1
   0,	   5,	   4, -1
   0,	   6,	   5, -1
   0,	   7,	   6, -1
   0,	   3,	   7, -1
   2,	   1,	   8, -1
   1,	   9,	   8, -1
   1,	   4,	   9, -1
   2,	   8,	  10, -1
   3,	   2,	  10, -1
   7,	   3,	  11, -1
   3,	  10,	  11, -1
   4,	  12,	   9, -1
   4,	  13,	  12, -1
   4,	   5,	  13, -1
   5,	  14,	  13, -1
   5,	   6,	  14, -1
   6,	  15,	  14, -1
   6,	   7,	  15, -1
   7,	  16,	  15, -1
   7,	  11,	  16, -1
  10,	   8,	  17, -1
   8,	  18,	  17, -1
   8,	   9,	  18, -1
   9,	  12,	  18, -1
  10,	  17,	  19, -1
  11,	  10,	  20, -1
  10,	  19,	  20, -1
  16,	  11,	  21, -1
  11,	  20,	  21, -1
  12,	  22,	  18, -1
  12,	  13,	  22, -1
  13,	  23,	  22, -1
  13,	  24,	  23, -1
  13,	  14,	  24, -1
  14,	  25,	  24, -1
  14,	  26,	  25, -1
  14,	  15,	  26, -1
  15,	  27,	  26, -1
  15,	  16,	  27, -1
  16,	  28,	  27, -1
  16,	  21,	  28, -1
  19,	  17,	  29, -1
  17,	  30,	  29, -1
  17,	  18,	  30, -1
  18,	  31,	  30, -1
  18,	  32,	  31, -1
  18,	  22,	  32, -1
  20,	  19,	  33, -1
  19,	  29,	  33, -1
  21,	  20,	  34, -1
  20,	  33,	  34, -1
  28,	  21,	  35, -1
  21,	  36,	  35, -1
  21,	  37,	  36, -1
  21,	  34,	  37, -1
  22,	  38,	  32, -1
  22,	  23,	  38, -1
  23,	  39,	  38, -1
  23,	  24,	  39, -1
  24,	  40,	  39, -1
  24,	  25,	  40, -1
  25,	  41,	  40, -1
  25,	  26,	  41, -1
  26,	  42,	  41, -1
  26,	  43,	  42, -1
  26,	  44,	  43, -1
  26,	  27,	  44, -1
  27,	  35,	  44, -1
  27,	  28,	  35, -1
  29,	  45,	  46, -1
  29,	  30,	  45, -1
  33,	  29,	  47, -1
  29,	  46,	  47, -1
  30,	  48,	  45, -1
  30,	  31,	  48, -1
  31,	  49,	  48, -1
  31,	  50,	  49, -1
  31,	  32,	  50, -1
  32,	  38,	  50, -1
  34,	  33,	  51, -1
  33,	  47,	  51, -1
  37,	  34,	  52, -1
  34,	  51,	  52, -1
  44,	  35,	  53, -1
  35,	  54,	  53, -1
  35,	  36,	  54, -1
  36,	  55,	  54, -1
  36,	  37,	  55, -1
  37,	  52,	  55, -1
  38,	  39,	  50, -1
  39,	  56,	  50, -1
  39,	  40,	  56, -1
  40,	  57,	  56, -1
  40,	  41,	  57, -1
  41,	  58,	  57, -1
  41,	  42,	  58, -1
  42,	  59,	  58, -1
  42,	  43,	  59, -1
  43,	  60,	  59, -1
  43,	  44,	  60, -1
  44,	  53,	  60, -1
  46,	  45,	  61, -1
  45,	  62,	  61, -1
  45,	  48,	  62, -1
  47,	  46,	  61, -1
  51,	  47,	  61, -1
  48,	  63,	  62, -1
  48,	  49,	  63, -1
  49,	  50,	  63, -1
  50,	  64,	  63, -1
  50,	  56,	  64, -1
  52,	  51,	  65, -1
  51,	  61,	  65, -1
  55,	  52,	  66, -1
  52,	  65,	  66, -1
  60,	  53,	  67, -1
  53,	  68,	  67, -1
  53,	  54,	  68, -1
  54,	  69,	  68, -1
  54,	  55,	  69, -1
  55,	  70,	  69, -1
  55,	  66,	  70, -1
  56,	  71,	  64, -1
  56,	  72,	  71, -1
  56,	  57,	  72, -1
  57,	  73,	  72, -1
  57,	  58,	  73, -1
  58,	  74,	  73, -1
  58,	  59,	  74, -1
  59,	  75,	  74, -1
  59,	  60,	  75, -1
  60,	  67,	  75, -1
  61,	  62,	  76, -1
  65,	  61,	  77, -1
  61,	  78,	  77, -1
  61,	  76,	  78, -1
  62,	  79,	  76, -1
  62,	  63,	  79, -1
  63,	  80,	  79, -1
  63,	  64,	  80, -1
  64,	  81,	  80, -1
  64,	  82,	  81, -1
  64,	  71,	  82, -1
  66,	  65,	  83, -1
  65,	  77,	  83, -1
  70,	  66,	  84, -1
  66,	  83,	  84, -1
  75,	  67,	  85, -1
  67,	  86,	  85, -1
  67,	  68,	  86, -1
  68,	  87,	  86, -1
  68,	  69,	  87, -1
  69,	  84,	  87, -1
  69,	  70,	  84, -1
  71,	  88,	  82, -1
  71,	  89,	  88, -1
  71,	  72,	  89, -1
  72,	  73,	  89, -1
  73,	  90,	  89, -1
  73,	  91,	  90, -1
  73,	  74,	  91, -1
  74,	  75,	  91, -1
  75,	  85,	  91, -1
  76,	  79,	  92, -1
  78,	  76,	  92, -1
  83,	  77,	  93, -1
  77,	  78,	  93, -1
  78,	  92,	  93, -1
  79,	  80,	  92, -1
  80,	  94,	  92, -1
  80,	  81,	  94, -1
  81,	  82,	  94, -1
  82,	  88,	  94, -1
  84,	  83,	  95, -1
  83,	  93,	  95, -1
  87,	  84,	  95, -1
  91,	  85,	  96, -1
  85,	  86,	  96, -1
  86,	  95,	  96, -1
  86,	  87,	  95, -1
  88,	  89,	  94, -1
  89,	  96,	  94, -1
  89,	  90,	  96, -1
  90,	  91,	  96, -1
  92,	  94,	  97, -1
  93,	  92,	  98, -1
  92,	  97,	  98, -1
  95,	  93,	  98, -1
  94,	  96,	  97, -1
  96,	  95,	  98, -1
  96,	  98,	  97, -1
]
normalPerVertex TRUE
}
}
]
}
