#VRML V2.0 utf8
Transform {
children [
Shape {
appearance Appearance {
              material DEF surface Material {
              diffuseColor 0.8 0.8 0.8
              ambientIntensity 0.2
              specularColor 0.4 0.4 0.4
              emissiveColor 0 0 0
              shininess 0.25
              transparency 0
            }
          }
geometry IndexedFaceSet {
solid FALSE
coord DEF bone Coordinate {
point [
 -0.015336	 -0.001551	  0.078480,
 -0.014889	 -0.003873	  0.075823,
 -0.017534	 -0.005246	  0.081828,
 -0.016408	 -0.000830	  0.084640,
 -0.009812	  0.007641	  0.074466,
 -0.008588	  0.000332	  0.067168,
 -0.015134	 -0.008536	  0.077031,
 -0.008109	 -0.002159	  0.064324,
 -0.016145	 -0.010144	  0.082750,
 -0.016894	 -0.007941	  0.087132,
 -0.017213	 -0.003912	  0.089121,
 -0.011834	  0.005902	  0.085972,
 -0.002403	  0.008250	  0.068402,
 -0.001819	  0.005419	  0.064942,
 -0.004040	  0.007768	  0.077759,
 -0.001849	  0.000647	  0.064920,
 -0.008156	 -0.009375	  0.064290,
 -0.009509	 -0.012580	  0.071909,
 -0.011753	 -0.010061	  0.084850,
 -0.012790	 -0.004056	  0.091035,
 -0.013200	  0.000823	  0.093583,
 -0.006053	  0.005974	  0.089203,
  0.004224	  0.009586	  0.066837,
  0.002786	  0.008425	  0.075020,
  0.004404	  0.007373	  0.065719,
  0.001097	  0.008510	  0.084686,
 -0.001458	 -0.007187	  0.062359,
  0.004365	  0.001236	  0.065690,
  0.004701	 -0.003588	  0.063575,
 -0.002952	 -0.008916	  0.070847,
 -0.003984	 -0.008991	  0.076757,
 -0.005343	 -0.005775	  0.084653,
 -0.006902	 -0.002506	  0.093719,
 -0.007451	 -0.000810	  0.096929,
 -0.007312	  0.002544	  0.096266,
 -0.001113	  0.005804	  0.097234,
 -0.000964	  0.010692	  0.096580,
 -0.000284	  0.011101	  0.092703,
  0.010816	  0.012000	  0.065523,
  0.011067	  0.007573	  0.063903,
  0.009372	  0.011465	  0.073771,
  0.007844	  0.009961	  0.082446,
  0.010820	  0.000922	  0.065041,
  0.006297	  0.011924	  0.091381,
  0.004377	 -0.007229	  0.065281,
  0.009053	 -0.001794	  0.069414,
  0.008875	 -0.005986	  0.075907,
  0.002490	 -0.006067	  0.076123,
  0.001319	 -0.004212	  0.082904,
  0.000020	 -0.007415	  0.090216,
 -0.001083	 -0.008286	  0.096491,
 -0.001320	 -0.006472	  0.097916,
 -0.000879	 -0.001465	  0.095600,
  0.004587	 -0.001967	  0.100612,
  0.004393	  0.004790	  0.101999,
  0.004559	  0.012634	  0.101360,
  0.016815	  0.009007	  0.067385,
  0.017353	  0.005721	  0.064169,
  0.013560	  0.009690	  0.086043,
  0.017451	 -0.000811	  0.063338,
  0.011494	  0.011417	  0.097934,
  0.008122	 -0.007476	  0.080148,
  0.016136	 -0.006458	  0.070639,
  0.006425	 -0.008924	  0.089807,
  0.006094	 -0.010033	  0.096727,
  0.005313	 -0.007488	  0.101294,
  0.005255	 -0.006007	  0.101806,
  0.011431	 -0.001992	  0.097749,
  0.011223	  0.000789	  0.099054,
  0.010979	  0.006466	  0.100682,
  0.011171	  0.011412	  0.099781,
  0.022744	  0.005558	  0.069615,
  0.020859	  0.006719	  0.080456,
  0.022406	  0.006518	  0.071589,
  0.023483	 -0.001929	  0.065086,
  0.018882	  0.006971	  0.091785,
  0.023415	 -0.005737	  0.065314,
  0.018275	  0.006335	  0.095230,
  0.015590	 -0.009308	  0.073642,
  0.014124	 -0.006605	  0.082150,
  0.022780	 -0.007622	  0.068876,
  0.022242	 -0.007858	  0.071953,
  0.012082	 -0.006072	  0.093852,
  0.011014	 -0.007055	  0.099941,
  0.011147	 -0.004553	  0.099275,
  0.017952	 -0.004124	  0.096659,
  0.018189	 -0.002245	  0.095376,
  0.018252	  0.002869	  0.095215,
  0.028566	  0.003528	  0.072528,
  0.026307	  0.005194	  0.085526,
  0.025728	  0.002231	  0.088714,
  0.027208	 -0.003880	  0.080004,
  0.021713	 -0.009799	  0.074900,
  0.020847	 -0.008734	  0.079892,
  0.018541	 -0.005932	  0.093204,
  0.018140	 -0.006563	  0.095479,
  0.024665	 -0.000969	  0.094672,
  0.028607	 -0.002131	  0.081144,
  0.027173	 -0.000849	  0.089399,
]
}
coordIndex [
   0,	   1,	   2, -1
   3,	   0,	   2, -1
   4,	   5,	   0, -1
   5,	   1,	   0, -1
   4,	   0,	   3, -1
   1,	   6,	   2, -1
   5,	   7,	   1, -1
   7,	   6,	   1, -1
   6,	   8,	   2, -1
   8,	   9,	   2, -1
   9,	  10,	   2, -1
  10,	   3,	   2, -1
  11,	   3,	  10, -1
  11,	   4,	   3, -1
  12,	  13,	   4, -1
  13,	   5,	   4, -1
  14,	   4,	  11, -1
  14,	  12,	   4, -1
  13,	  15,	   5, -1
  15,	   7,	   5, -1
   7,	  16,	   6, -1
  16,	  17,	   6, -1
  17,	   8,	   6, -1
  15,	  16,	   7, -1
  17,	  18,	   8, -1
  18,	   9,	   8, -1
  18,	  19,	   9, -1
  19,	  10,	   9, -1
  19,	  20,	  10, -1
  20,	  11,	  10, -1
  21,	  11,	  20, -1
  21,	  14,	  11, -1
  22,	  13,	  12, -1
  23,	  12,	  14, -1
  23,	  22,	  12, -1
  22,	  24,	  13, -1
  24,	  15,	  13, -1
  25,	  14,	  21, -1
  25,	  23,	  14, -1
  15,	  26,	  16, -1
  24,	  27,	  15, -1
  27,	  28,	  15, -1
  28,	  26,	  15, -1
  26,	  17,	  16, -1
  26,	  29,	  17, -1
  29,	  30,	  17, -1
  30,	  18,	  17, -1
  30,	  31,	  18, -1
  31,	  32,	  18, -1
  32,	  19,	  18, -1
  32,	  33,	  19, -1
  33,	  20,	  19, -1
  33,	  34,	  20, -1
  34,	  21,	  20, -1
  35,	  21,	  34, -1
  35,	  36,	  21, -1
  36,	  37,	  21, -1
  37,	  25,	  21, -1
  38,	  39,	  22, -1
  39,	  24,	  22, -1
  40,	  22,	  23, -1
  40,	  38,	  22, -1
  41,	  23,	  25, -1
  41,	  40,	  23, -1
  39,	  42,	  24, -1
  42,	  27,	  24, -1
  43,	  25,	  37, -1
  43,	  41,	  25, -1
  28,	  44,	  26, -1
  44,	  29,	  26, -1
  42,	  45,	  27, -1
  45,	  46,	  27, -1
  46,	  28,	  27, -1
  46,	  44,	  28, -1
  44,	  47,	  29, -1
  47,	  30,	  29, -1
  47,	  48,	  30, -1
  48,	  31,	  30, -1
  48,	  49,	  31, -1
  49,	  32,	  31, -1
  49,	  50,	  32, -1
  50,	  51,	  32, -1
  51,	  52,	  32, -1
  52,	  33,	  32, -1
  52,	  35,	  33, -1
  35,	  34,	  33, -1
  53,	  35,	  52, -1
  53,	  54,	  35, -1
  54,	  36,	  35, -1
  54,	  55,	  36, -1
  55,	  37,	  36, -1
  55,	  43,	  37, -1
  56,	  39,	  38, -1
  56,	  38,	  40, -1
  56,	  57,	  39, -1
  57,	  42,	  39, -1
  56,	  40,	  41, -1
  58,	  41,	  43, -1
  58,	  56,	  41, -1
  57,	  59,	  42, -1
  59,	  45,	  42, -1
  60,	  43,	  55, -1
  60,	  58,	  43, -1
  46,	  47,	  44, -1
  59,	  46,	  45, -1
  46,	  61,	  47, -1
  59,	  62,	  46, -1
  62,	  61,	  46, -1
  61,	  48,	  47, -1
  61,	  63,	  48, -1
  63,	  49,	  48, -1
  63,	  64,	  49, -1
  64,	  50,	  49, -1
  64,	  65,	  50, -1
  65,	  51,	  50, -1
  65,	  66,	  51, -1
  66,	  52,	  51, -1
  66,	  53,	  52, -1
  67,	  53,	  66, -1
  67,	  68,	  53, -1
  68,	  54,	  53, -1
  68,	  69,	  54, -1
  69,	  55,	  54, -1
  69,	  70,	  55, -1
  70,	  60,	  55, -1
  71,	  57,	  56, -1
  72,	  56,	  58, -1
  72,	  73,	  56, -1
  73,	  71,	  56, -1
  71,	  74,	  57, -1
  74,	  59,	  57, -1
  75,	  58,	  60, -1
  75,	  72,	  58, -1
  74,	  76,	  59, -1
  76,	  62,	  59, -1
  77,	  60,	  70, -1
  77,	  75,	  60, -1
  62,	  78,	  61, -1
  78,	  79,	  61, -1
  79,	  63,	  61, -1
  76,	  80,	  62, -1
  80,	  81,	  62, -1
  81,	  78,	  62, -1
  79,	  82,	  63, -1
  82,	  64,	  63, -1
  82,	  83,	  64, -1
  83,	  65,	  64, -1
  83,	  84,	  65, -1
  84,	  66,	  65, -1
  84,	  67,	  66, -1
  85,	  67,	  84, -1
  85,	  86,	  67, -1
  86,	  68,	  67, -1
  86,	  87,	  68, -1
  87,	  69,	  68, -1
  87,	  77,	  69, -1
  77,	  70,	  69, -1
  88,	  74,	  71, -1
  88,	  71,	  73, -1
  89,	  72,	  75, -1
  89,	  73,	  72, -1
  89,	  88,	  73, -1
  88,	  76,	  74, -1
  90,	  75,	  77, -1
  90,	  89,	  75, -1
  88,	  91,	  76, -1
  91,	  80,	  76, -1
  90,	  77,	  87, -1
  81,	  92,	  78, -1
  92,	  93,	  78, -1
  93,	  79,	  78, -1
  93,	  82,	  79, -1
  91,	  81,	  80, -1
  91,	  92,	  81, -1
  93,	  94,	  82, -1
  94,	  95,	  82, -1
  95,	  83,	  82, -1
  95,	  84,	  83, -1
  95,	  85,	  84, -1
  96,	  85,	  95, -1
  96,	  86,	  85, -1
  96,	  90,	  86, -1
  90,	  87,	  86, -1
  97,	  91,	  88, -1
  98,	  88,	  89, -1
  98,	  97,	  88, -1
  98,	  89,	  90, -1
  98,	  90,	  96, -1
  91,	  93,	  92, -1
  91,	  96,	  93, -1
  97,	  96,	  91, -1
  96,	  94,	  93, -1
  96,	  95,	  94, -1
  97,	  98,	  96, -1
]
colorPerVertex FALSE
colorIndex [
1,
1,
1,
1,
1,
1,
1,
1,
1,
1,
1,
1,
1,
1,
1,
1,
1,
1,
1,
1,
1,
1,
1,
1,
1,
1,
1,
1,
1,
1,
1,
1,
1,
1,
1,
1,
1,
1,
1,
1,
1,
1,
1,
1,
1,
1,
1,
1,
1,
1,
1,
1,
1,
1,
1,
1,
1,
1,
1,
1,
1,
1,
1,
1,
1,
1,
1,
1,
1,
1,
1,
1,
1,
1,
1,
1,
1,
1,
1,
1,
1,
1,
1,
1,
1,
1,
1,
1,
1,
1,
1,
1,
1,
1,
1,
1,
1,
1,
1,
]
normal Normal {
vector [
 -0.881134	  0.337451	 -0.331255,
 -0.884378	  0.155129	 -0.440239,
 -0.984265	  0.011936	 -0.176293,
 -0.898501	  0.435855	 -0.052204,
 -0.624447	  0.726816	 -0.286013,
 -0.658053	  0.399097	 -0.638504,
 -0.869961	 -0.282957	 -0.403860,
 -0.642919	  0.229425	 -0.730766,
 -0.679513	 -0.733648	  0.004715,
 -0.622549	 -0.607217	  0.493681,
 -0.899095	  0.059706	  0.433663,
 -0.545305	  0.812575	  0.205826,
 -0.246636	  0.942233	 -0.226643,
 -0.300423	  0.421200	 -0.855767,
 -0.116550	  0.990628	  0.071219,
 -0.066092	  0.226860	 -0.971682,
 -0.451074	 -0.320908	 -0.832797,
  0.001860	 -0.994146	 -0.108034,
  0.161968	 -0.875632	  0.455010,
 -0.238574	 -0.634941	  0.734801,
 -0.609178	  0.316905	  0.726962,
 -0.490913	  0.844728	  0.213165,
 -0.301471	  0.794507	 -0.527138,
 -0.235551	  0.971189	  0.036159,
 -0.067669	  0.126459	 -0.989661,
 -0.268194	  0.951036	 -0.153633,
  0.191785	 -0.608722	 -0.769854,
  0.185939	 -0.236174	 -0.953755,
  0.574257	  0.059589	 -0.816503,
  0.368169	 -0.929754	  0.003059,
  0.426912	 -0.868883	  0.250574,
  0.223523	 -0.947137	  0.230150,
 -0.282551	 -0.793610	  0.538839,
 -0.210187	 -0.403423	  0.890545,
 -0.442740	  0.573721	  0.689076,
 -0.559984	  0.111464	  0.820971,
 -0.744623	  0.466683	  0.477225,
 -0.380108	  0.911160	 -0.159076,
  0.066705	  0.837196	 -0.542819,
 -0.027108	  0.265800	 -0.963647,
 -0.059167	  0.992021	  0.111326,
 -0.036964	  0.998731	 -0.034212,
 -0.187314	 -0.322444	 -0.927870,
 -0.011992	  0.984959	 -0.172373,
  0.423532	 -0.866680	 -0.263605,
 -0.209881	 -0.803791	 -0.556660,
  0.113172	 -0.867602	 -0.484209,
  0.145938	 -0.985449	  0.087131,
 -0.046851	 -0.998635	 -0.023080,
 -0.300160	 -0.932608	 -0.200366,
 -0.503841	 -0.818145	  0.277096,
 -0.555042	 -0.126821	  0.822098,
 -0.402041	 -0.070554	  0.912899,
 -0.197653	 -0.097234	  0.975438,
 -0.236761	 -0.064350	  0.969435,
 -0.079123	  0.847000	  0.525672,
  0.434960	  0.868448	 -0.237924,
  0.285738	  0.346577	 -0.893442,
  0.296184	  0.954067	 -0.045069,
 -0.189359	 -0.453221	 -0.871054,
  0.400338	  0.915672	  0.035695,
 -0.252674	 -0.951218	 -0.177033,
 -0.343368	 -0.785723	 -0.514527,
  0.020684	 -0.985686	 -0.167317,
  0.100825	 -0.991290	  0.084725,
 -0.060611	 -0.526594	  0.847953,
 -0.114802	  0.144096	  0.982882,
  0.336647	  0.183101	  0.923657,
  0.370229	 -0.236454	  0.898343,
  0.412580	 -0.020390	  0.910693,
  0.513880	  0.628708	  0.583656,
  0.564402	  0.648555	 -0.510713,
  0.338870	  0.940167	  0.035414,
  0.424800	  0.897499	 -0.118491,
  0.550944	  0.200550	 -0.810087,
  0.529929	  0.825351	  0.194864,
  0.492145	 -0.570830	 -0.657226,
  0.703943	  0.441703	  0.556204,
 -0.175726	 -0.962266	 -0.207763,
  0.017787	 -0.993046	  0.116377,
  0.277121	 -0.938083	 -0.207857,
  0.278494	 -0.894529	 -0.349657,
  0.171084	 -0.984368	 -0.041834,
  0.417308	 -0.665306	  0.619049,
  0.364284	  0.127392	  0.922534,
  0.303156	  0.177885	  0.936191,
  0.308717	  0.314791	  0.897552,
  0.584963	 -0.038911	  0.810126,
  0.918489	  0.274843	 -0.284321,
  0.607451	  0.756845	  0.241223,
  0.631597	  0.491223	  0.599820,
  0.758284	 -0.651892	 -0.006469,
  0.384346	 -0.918649	 -0.091442,
  0.178094	 -0.958369	  0.223184,
  0.336884	 -0.941086	  0.029443,
  0.441195	 -0.766797	  0.466230,
  0.700681	 -0.402369	  0.589191,
  0.852495	 -0.515648	  0.085786,
  0.932887	  0.121457	  0.339072,
]
}
normalIndex [
   0,	   1,	   2, -1
   3,	   0,	   2, -1
   4,	   5,	   0, -1
   5,	   1,	   0, -1
   4,	   0,	   3, -1
   1,	   6,	   2, -1
   5,	   7,	   1, -1
   7,	   6,	   1, -1
   6,	   8,	   2, -1
   8,	   9,	   2, -1
   9,	  10,	   2, -1
  10,	   3,	   2, -1
  11,	   3,	  10, -1
  11,	   4,	   3, -1
  12,	  13,	   4, -1
  13,	   5,	   4, -1
  14,	   4,	  11, -1
  14,	  12,	   4, -1
  13,	  15,	   5, -1
  15,	   7,	   5, -1
   7,	  16,	   6, -1
  16,	  17,	   6, -1
  17,	   8,	   6, -1
  15,	  16,	   7, -1
  17,	  18,	   8, -1
  18,	   9,	   8, -1
  18,	  19,	   9, -1
  19,	  10,	   9, -1
  19,	  20,	  10, -1
  20,	  11,	  10, -1
  21,	  11,	  20, -1
  21,	  14,	  11, -1
  22,	  13,	  12, -1
  23,	  12,	  14, -1
  23,	  22,	  12, -1
  22,	  24,	  13, -1
  24,	  15,	  13, -1
  25,	  14,	  21, -1
  25,	  23,	  14, -1
  15,	  26,	  16, -1
  24,	  27,	  15, -1
  27,	  28,	  15, -1
  28,	  26,	  15, -1
  26,	  17,	  16, -1
  26,	  29,	  17, -1
  29,	  30,	  17, -1
  30,	  18,	  17, -1
  30,	  31,	  18, -1
  31,	  32,	  18, -1
  32,	  19,	  18, -1
  32,	  33,	  19, -1
  33,	  20,	  19, -1
  33,	  34,	  20, -1
  34,	  21,	  20, -1
  35,	  21,	  34, -1
  35,	  36,	  21, -1
  36,	  37,	  21, -1
  37,	  25,	  21, -1
  38,	  39,	  22, -1
  39,	  24,	  22, -1
  40,	  22,	  23, -1
  40,	  38,	  22, -1
  41,	  23,	  25, -1
  41,	  40,	  23, -1
  39,	  42,	  24, -1
  42,	  27,	  24, -1
  43,	  25,	  37, -1
  43,	  41,	  25, -1
  28,	  44,	  26, -1
  44,	  29,	  26, -1
  42,	  45,	  27, -1
  45,	  46,	  27, -1
  46,	  28,	  27, -1
  46,	  44,	  28, -1
  44,	  47,	  29, -1
  47,	  30,	  29, -1
  47,	  48,	  30, -1
  48,	  31,	  30, -1
  48,	  49,	  31, -1
  49,	  32,	  31, -1
  49,	  50,	  32, -1
  50,	  51,	  32, -1
  51,	  52,	  32, -1
  52,	  33,	  32, -1
  52,	  35,	  33, -1
  35,	  34,	  33, -1
  53,	  35,	  52, -1
  53,	  54,	  35, -1
  54,	  36,	  35, -1
  54,	  55,	  36, -1
  55,	  37,	  36, -1
  55,	  43,	  37, -1
  56,	  39,	  38, -1
  56,	  38,	  40, -1
  56,	  57,	  39, -1
  57,	  42,	  39, -1
  56,	  40,	  41, -1
  58,	  41,	  43, -1
  58,	  56,	  41, -1
  57,	  59,	  42, -1
  59,	  45,	  42, -1
  60,	  43,	  55, -1
  60,	  58,	  43, -1
  46,	  47,	  44, -1
  59,	  46,	  45, -1
  46,	  61,	  47, -1
  59,	  62,	  46, -1
  62,	  61,	  46, -1
  61,	  48,	  47, -1
  61,	  63,	  48, -1
  63,	  49,	  48, -1
  63,	  64,	  49, -1
  64,	  50,	  49, -1
  64,	  65,	  50, -1
  65,	  51,	  50, -1
  65,	  66,	  51, -1
  66,	  52,	  51, -1
  66,	  53,	  52, -1
  67,	  53,	  66, -1
  67,	  68,	  53, -1
  68,	  54,	  53, -1
  68,	  69,	  54, -1
  69,	  55,	  54, -1
  69,	  70,	  55, -1
  70,	  60,	  55, -1
  71,	  57,	  56, -1
  72,	  56,	  58, -1
  72,	  73,	  56, -1
  73,	  71,	  56, -1
  71,	  74,	  57, -1
  74,	  59,	  57, -1
  75,	  58,	  60, -1
  75,	  72,	  58, -1
  74,	  76,	  59, -1
  76,	  62,	  59, -1
  77,	  60,	  70, -1
  77,	  75,	  60, -1
  62,	  78,	  61, -1
  78,	  79,	  61, -1
  79,	  63,	  61, -1
  76,	  80,	  62, -1
  80,	  81,	  62, -1
  81,	  78,	  62, -1
  79,	  82,	  63, -1
  82,	  64,	  63, -1
  82,	  83,	  64, -1
  83,	  65,	  64, -1
  83,	  84,	  65, -1
  84,	  66,	  65, -1
  84,	  67,	  66, -1
  85,	  67,	  84, -1
  85,	  86,	  67, -1
  86,	  68,	  67, -1
  86,	  87,	  68, -1
  87,	  69,	  68, -1
  87,	  77,	  69, -1
  77,	  70,	  69, -1
  88,	  74,	  71, -1
  88,	  71,	  73, -1
  89,	  72,	  75, -1
  89,	  73,	  72, -1
  89,	  88,	  73, -1
  88,	  76,	  74, -1
  90,	  75,	  77, -1
  90,	  89,	  75, -1
  88,	  91,	  76, -1
  91,	  80,	  76, -1
  90,	  77,	  87, -1
  81,	  92,	  78, -1
  92,	  93,	  78, -1
  93,	  79,	  78, -1
  93,	  82,	  79, -1
  91,	  81,	  80, -1
  91,	  92,	  81, -1
  93,	  94,	  82, -1
  94,	  95,	  82, -1
  95,	  83,	  82, -1
  95,	  84,	  83, -1
  95,	  85,	  84, -1
  96,	  85,	  95, -1
  96,	  86,	  85, -1
  96,	  90,	  86, -1
  90,	  87,	  86, -1
  97,	  91,	  88, -1
  98,	  88,	  89, -1
  98,	  97,	  88, -1
  98,	  89,	  90, -1
  98,	  90,	  96, -1
  91,	  93,	  92, -1
  91,	  96,	  93, -1
  97,	  96,	  91, -1
  96,	  94,	  93, -1
  96,	  95,	  94, -1
  97,	  98,	  96, -1
]
normalPerVertex TRUE
}
}
]
}
