# 
# Wavefront OBJ file
# Converted by the DEEP Exploration 2.00.1211
# Right Hemisphere, LTD
# http://www.righthemisphere.com/
# 
mtllib thoracic5.mtl
# object Object #0
g Object__0
v -0.061873 0.245994 2.3e-005
v -0.062489 0.246384 0.007643
v -0.074215 0.248192 3e-006
v -0.060842 0.24976 0.009168
v -0.060936 0.247245 2.5e-005
v -0.062489 0.246384 -0.007643
v -0.060842 0.24976 -0.009168
v -0.066144 0.247549 0.015572
v -0.072089 0.248827 0.019429
v -0.085347 0.249419 0.004596
v -0.085432 0.249696 3e-006
v -0.085646 0.249704 0.013528
v -0.081587 0.250213 0.019533
v -0.066144 0.247549 -0.015572
v -0.072089 0.248827 -0.019429
v -0.085347 0.249419 -0.004596
v -0.085646 0.249704 -0.013528
v -0.081587 0.250213 -0.019533
v -0.060983 0.251472 2.5e-005
v -0.062108 0.252117 0.009816
v -0.065396 0.251385 0.016543
v -0.062108 0.252117 -0.009816
v -0.065396 0.251385 -0.016543
v -0.072467 0.253409 0.020094
v -0.088369 0.253105 0.00473
v -0.088353 0.252985 3e-006
v -0.088369 0.253105 -0.00473
v -0.082091 0.255196 0.020237
v -0.088203 0.250739 0.015192
v -0.089042 0.254551 0.008989
v -0.072467 0.253409 -0.020094
v -0.088203 0.250739 -0.015192
v -0.082091 0.255196 -0.020237
v -0.089042 0.254551 -0.008989
v -0.059617 0.260049 2.8e-005
v -0.060999 0.259359 0.009473
v -0.066727 0.254265 0.016131
v -0.060999 0.259359 -0.009473
v -0.066727 0.254265 -0.016131
v -0.072061 0.257183 0.01828
v -0.087308 0.259498 0.006064
v -0.086863 0.259427 5e-006
v -0.087308 0.259498 -0.006064
v -0.081557 0.258459 0.019153
v -0.086427 0.25808 0.01811
v -0.088894 0.260359 0.009275
v -0.072061 0.257183 -0.01828
v -0.086427 0.25808 -0.01811
v -0.081557 0.258459 -0.019153
v -0.088894 0.260359 -0.009275
v -0.05867 0.263354 2.9e-005
v -0.059267 0.263132 0.010479
v -0.06614 0.260991 0.016751
v -0.059267 0.263132 -0.010479
v -0.06614 0.260991 -0.016751
v -0.070494 0.26209 0.018364
v -0.087147 0.26856 0.006267
v -0.086265 0.267556 0.009698
v -0.086487 0.268505 7e-006
v -0.087147 0.26856 -0.006267
v -0.086265 0.267556 -0.009698
v -0.079446 0.264461 0.019291
v -0.083561 0.266277 0.019666
v -0.0919 0.258933 0.016315
v -0.089041 0.260807 0.020003
v -0.089379 0.267449 0.023918
v -0.096117 0.263554 0.00356
v -0.070494 0.26209 -0.018364
v -0.083561 0.266277 -0.019666
v -0.079446 0.264461 -0.019291
v -0.089041 0.260807 -0.020003
v -0.0919 0.258933 -0.016315
v -0.089379 0.267449 -0.023918
v -0.096117 0.263554 -0.00356
v -0.058265 0.267197 2.9e-005
v -0.059037 0.267159 0.010672
v -0.063952 0.263844 0.017731
v -0.059037 0.267159 -0.010672
v -0.063952 0.263844 -0.017731
v -0.069474 0.264634 0.020305
v -0.084152 0.273118 0.007989
v -0.085034 0.271791 0.010413
v -0.082788 0.271991 9e-006
v -0.084152 0.273118 -0.007989
v -0.085034 0.271791 -0.010413
v -0.076964 0.267701 0.021284
v -0.083923 0.27024 0.019004
v -0.086785 0.270809 0.019049
v -0.098529 0.267298 0.022079
v -0.097418 0.263352 0.016409
v -0.095577 0.257579 0.023617
v -0.093986 0.257023 0.010056
v -0.093923 0.265361 0.022714
v -0.096255 0.25963 0.020649
v -0.097307 0.258962 3e-006
v -0.101695 0.249191 0.004883
v -0.103605 0.266147 5e-006
v -0.097407 0.269098 0.007369
v -0.069474 0.264634 -0.020305
v -0.083923 0.27024 -0.019004
v -0.076964 0.267701 -0.021284
v -0.086785 0.270809 -0.019049
v -0.097418 0.263352 -0.016409
v -0.098529 0.267298 -0.022079
v -0.095577 0.257579 -0.023617
v -0.093986 0.257023 -0.010056
v -0.096255 0.25963 -0.020649
v -0.093923 0.265361 -0.022714
v -0.101695 0.249191 -0.004883
v -0.097407 0.269098 -0.007369
v -0.071821 0.270483 9e-006
v -0.063525 0.268013 0.017976
v -0.069693 0.269601 0.021286
v -0.063525 0.268013 -0.017976
v -0.069693 0.269601 -0.021286
v -0.077753 0.271076 0.021416
v -0.09533 0.276718 0.015276
v -0.086305 0.272308 0.013466
v -0.095428 0.274374 0.009608
v -0.082525 0.272312 0.016344
v -0.086305 0.272308 -0.013466
v -0.09533 0.276718 -0.015276
v -0.095428 0.274374 -0.009608
v -0.082525 0.272312 -0.016344
v -0.095344 0.27044 0.020274
v -0.09412 0.272922 0.017562
v -0.107034 0.278353 0.033211
v -0.103035 0.26951 0.020137
v -0.097756 0.272286 0.020312
v -0.108658 0.25647 0.01207
v -0.104592 0.257034 0.014776
v -0.1087 0.270129 0.024182
v -0.101807 0.266943 0.012105
v -0.09469 0.255359 0.011456
v -0.10897 0.25301 0.016275
v -0.097303 0.266318 0.025123
v -0.098982 0.264734 0.022911
v -0.099103 0.270936 0.023234
v -0.103491 0.25401 3e-006
v -0.101567 0.248275 0.006399
v -0.114473 0.25729 4e-006
v -0.104955 0.263321 0.004733
v -0.101632 0.261741 0.007925
v -0.101113 0.265404 0.009933
v -0.104955 0.263321 -0.004733
v -0.101632 0.261741 -0.007925
v -0.101113 0.265404 -0.009933
v -0.098311 0.269729 0.010838
v -0.077753 0.271076 -0.021416
v -0.095344 0.27044 -0.020274
v -0.09412 0.272922 -0.017562
v -0.104592 0.257034 -0.014776
v -0.108658 0.25647 -0.01207
v -0.103035 0.26951 -0.020137
v -0.1087 0.270129 -0.024182
v -0.101807 0.266943 -0.012105
v -0.107034 0.278353 -0.033211
v -0.097756 0.272286 -0.020312
v -0.09469 0.255359 -0.011456
v -0.10897 0.25301 -0.016275
v -0.098982 0.264734 -0.022911
v -0.097303 0.266318 -0.025123
v -0.099103 0.270936 -0.023234
v -0.101567 0.248275 -0.006399
v -0.098311 0.269729 -0.010838
v -0.112341 0.27667 0.027837
v -0.101593 0.271956 0.013293
v -0.112341 0.27667 -0.027837
v -0.101593 0.271956 -0.013293
v -0.110894 0.275102 0.036798
v -0.11274 0.273482 0.028594
v -0.111113 0.254512 0.009798
v -0.111792 0.250741 0.009271
v -0.109669 0.247437 0.016043
v -0.108294 0.258193 0.00845
v -0.102859 0.246581 0.012717
v -0.103337 0.251339 0.005089
v -0.106397 0.250076 1e-006
v -0.103337 0.251339 -0.005089
v -0.112807 0.259122 0.003997
v -0.12203 0.248123 -1.5e-005
v -0.113038 0.255293 0.003889
v -0.112807 0.259122 -0.003997
v -0.113038 0.255293 -0.003889
v -0.108294 0.258193 -0.00845
v -0.111792 0.250741 -0.009271
v -0.111113 0.254512 -0.009798
v -0.109669 0.247437 -0.016043
v -0.110894 0.275102 -0.036798
v -0.11274 0.273482 -0.028594
v -0.102859 0.246581 -0.012717
v -0.113695 0.251714 0.004057
v -0.113081 0.249763 0.004756
v -0.108711 0.247751 0.007293
v -0.113505 0.245596 0
v -0.108711 0.247751 -0.007293
v -0.113081 0.249763 -0.004756
v -0.128829 0.242895 -1.9e-005
v -0.113695 0.251714 -0.004057
v -0.122949 0.241252 0.002876
v -0.116335 0.243991 0.00443
v -0.124522 0.233953 0.002242
v -0.125188 0.233785 -3e-006
v -0.124522 0.233953 -0.002242
v -0.116335 0.243991 -0.00443
v -0.131459 0.240164 0.002908
v -0.132387 0.239122 -1.4e-005
v -0.122949 0.241252 -0.002876
v -0.131459 0.240164 -0.002908
v -0.130296 0.236884 0.003387
v -0.128627 0.2352 -2e-005
v -0.130296 0.236884 -0.003387
# 212 verticies
vn -0.175332 -0.984509 0.000103429
vn -0.181867 -0.982214 0.046692
vn -0.133772 -0.991012 1.36721e-005
vn 0.815966 -0.487028 0.311453
vn 0.816483 -0.51565 0.259732
vn 0.843297 -0.537448 0.000372978
vn 0.800383 -0.599489 0.00045997
vn -0.181822 -0.982227 -0.0465834
vn 0.816609 -0.515588 -0.259459
vn 0.816148 -0.486953 -0.311094
vn -0.183114 -0.981586 0.0543873
vn 0.683107 -0.391196 0.616709
vn -0.160777 -0.985733 0.0498172
vn -0.115414 -0.993213 -0.0143936
vn -0.132893 -0.99113 -3.72655e-005
vn -0.0140337 -0.96694 0.254618
vn -0.0808849 -0.994095 0.0723391
vn -0.18313 -0.981584 -0.0543745
vn -0.160781 -0.985733 -0.0498024
vn -0.115406 -0.993215 0.0143561
vn -0.0140186 -0.966942 -0.254612
vn -0.0808711 -0.994097 -0.0723223
vn 0.994143 0.108071 0.000159422
vn 0.935388 0.145621 0.322248
vn 0.945259 0.275829 0.174365
vn 0.999938 0.0111179 -3.62675e-005
vn 0.691966 0.0745142 0.718074
vn 0.945267 0.275865 -0.174263
vn 0.683107 -0.391196 -0.616709
vn 0.935483 0.145652 -0.321957
vn 0.691966 0.0745142 -0.718074
vn 0.304798 -0.186201 0.934038
vn 0.265855 0.127332 0.955567
vn -0.01086 -0.142734 0.989702
vn -0.760875 -0.648899 -3.23297e-006
vn -0.773501 -0.633623 -0.0147723
vn -0.785164 -0.619223 0.00893387
vn -0.743196 -0.658972 -0.115825
vn -0.747698 -0.664039 9.0804e-006
vn -0.785164 -0.619223 -0.00893711
vn -0.773501 -0.633623 0.0147568
vn 0.0752319 -0.790775 0.607466
vn -0.795266 0.081709 0.60073
vn -0.811216 -0.161451 0.562016
vn -0.549476 -0.742943 -0.382246
vn -0.953787 -0.229541 -0.19391
vn 0.0713252 0.198459 0.977511
vn 0.304798 -0.186201 -0.934038
vn 0.265855 0.127332 -0.955567
vn -0.01086 -0.142734 -0.989702
vn -0.743196 -0.658972 0.115825
vn 0.0752319 -0.790775 -0.607466
vn -0.811216 -0.161451 -0.562016
vn -0.795266 0.081709 -0.60073
vn -0.953787 -0.229541 0.19391
vn -0.549476 -0.742943 0.382246
vn 0.0713252 0.198459 -0.977511
vn 0.981195 -0.193017 0.000350065
vn 0.892787 -0.266663 0.363074
vn 0.657027 0.137258 0.741266
vn 0.892893 -0.266675 -0.362805
vn 0.657027 0.137258 -0.741266
vn 0.250268 0.133756 0.958893
vn -0.976384 0.147667 -0.157701
vn -0.980734 0.195349 -3.27159e-005
vn -0.975886 0.18585 -0.114485
vn -0.995396 0.0958459 -7.95717e-005
vn -0.976391 0.147661 0.157664
vn -0.975886 0.185849 0.11448
vn -0.0176905 -0.0163451 0.99971
vn -0.7309 0.319895 0.602871
vn -0.92024 0.155374 0.359189
vn -0.014839 -0.365137 0.930836
vn -0.173468 -0.327256 0.928877
vn -0.973195 0.065664 0.22041
vn -0.949107 0.112715 0.294094
vn -0.859985 0.186865 -0.474877
vn 0.250268 0.133756 -0.958893
vn -0.173468 -0.327256 -0.928877
vn -0.014839 -0.365137 -0.930836
vn -0.0176905 -0.0163451 -0.99971
vn -0.92024 0.155374 -0.359189
vn -0.7309 0.319895 -0.602871
vn -0.973195 0.065664 -0.22041
vn -0.949107 0.112715 -0.294094
vn -0.859985 0.186865 0.474877
vn 0.96244 -0.271496 0.000205895
vn 0.895956 -0.314542 0.31357
vn 0.522784 -0.340523 0.781499
vn 0.896008 -0.314545 -0.313419
vn 0.522784 -0.340523 -0.781499
vn 0.152132 -0.333167 0.930514
vn -0.967847 0.246662 0.0493031
vn -0.953307 0.115757 0.278938
vn -0.810538 0.32473 -0.48742
vn -0.882335 0.470621 -0.000157859
vn -0.967847 0.246642 -0.0493986
vn -0.953307 0.115757 -0.278938
vn -0.810538 0.32473 0.48742
vn -0.067336 -0.294674 0.953222
vn 0.0399076 -0.143319 0.988872
vn -0.523364 -0.663674 0.534441
vn -0.285422 -0.585109 0.759066
vn -0.215102 -0.431985 0.875854
vn 0.687958 -0.44098 0.576412
vn -0.0761199 -0.97043 -0.229067
vn -0.137538 -0.957715 -0.252716
vn 0.551805 -0.0861689 -0.82951
vn 0.567989 -0.160031 -0.807328
vn 0.82292 -0.19125 -0.535002
vn -0.198339 -0.940697 -0.27523
vn 0.152132 -0.333167 -0.930514
vn 0.0399076 -0.143319 -0.988872
vn -0.067336 -0.294674 -0.953222
vn -0.285422 -0.585109 -0.759066
vn -0.523364 -0.663674 -0.534441
vn -0.215102 -0.431985 -0.875854
vn 0.687958 -0.44098 -0.576412
vn -0.137538 -0.957715 0.252716
vn -0.0761199 -0.97043 0.229067
vn 0.8229 -0.19125 0.535032
vn 0.567989 -0.160031 0.807328
vn 0.551805 -0.0861689 0.82951
vn -0.198339 -0.940697 0.27523
vn 0.996577 -0.0826657 0.00017241
vn 0.915249 -0.0861519 0.393569
vn 0.555194 -0.338135 0.759884
vn 0.9153 -0.0861498 -0.393453
vn 0.555194 -0.338135 -0.759884
vn 0.104315 -0.363982 0.925546
vn -0.780814 0.616068 -0.103877
vn -0.905766 0.394837 0.153922
vn 0.532194 -0.0117719 -0.846541
vn -0.685843 0.727749 -0.000233893
vn -0.780877 0.616025 0.103654
vn -0.905766 0.394837 -0.153922
vn 0.532194 -0.0117719 0.846541
vn -0.143459 -0.19274 0.970706
vn -0.191839 0.0637267 0.979355
vn 0.0736573 0.74605 0.661804
vn 0.574954 0.497451 0.649592
vn -0.547141 -0.74303 0.385413
vn -0.574906 -0.76809 0.281993
vn -0.819578 -0.323744 -0.472739
vn 0.801309 -0.5126 0.308457
vn -0.566625 -0.716211 0.407404
vn 0.949038 -0.00378864 -0.315139
vn 0.853977 -0.317074 -0.412537
vn 0.163116 -0.392522 0.905163
vn -0.0424617 -0.467995 0.882711
vn -0.625203 0.660203 0.416237
vn -0.747287 0.454486 0.484773
vn -0.464407 0.825039 0.321928
vn 0.936441 -0.350826 0.000103528
vn 0.780675 -0.491781 -0.385613
vn 0.370936 0.541771 -0.754248
vn 0.505062 0.442919 -0.740767
vn 0.50663 0.505633 -0.698327
vn 0.172317 0.540816 -0.823301
vn 0.0747248 0.576446 -0.813711
vn 0.104315 -0.363982 -0.925546
vn -0.191839 0.0637267 -0.979355
vn -0.143459 -0.19274 -0.970706
vn 0.574954 0.497451 -0.649592
vn 0.0736573 0.74605 -0.661804
vn -0.574906 -0.76809 -0.281993
vn -0.547141 -0.74303 -0.385413
vn -0.819578 -0.323744 0.472739
vn 0.801309 -0.5126 -0.308457
vn -0.566625 -0.716211 -0.407404
vn 0.853977 -0.317074 0.412537
vn 0.949038 -0.00378864 0.315139
vn -0.0424617 -0.467995 -0.882711
vn 0.163116 -0.392522 -0.905163
vn -0.747287 0.454486 -0.484773
vn -0.625203 0.660203 -0.416237
vn -0.464407 0.825039 -0.321928
vn 0.780684 -0.491826 0.385538
vn 0.507323 0.505691 0.697782
vn 0.50582 0.443171 0.740098
vn 0.371442 0.541855 0.753939
vn 0.172556 0.540826 0.823245
vn 0.0747248 0.576446 0.813711
vn 0.232732 0.972243 0.0240548
vn 0.235578 0.971856 5.36536e-005
vn 0.213727 0.976893 -4.96505e-006
vn 0.232749 0.972241 -0.0239934
vn 0.66919 -0.111714 0.734646
vn 0.243278 0.96973 0.0209819
vn 0.28315 -0.154966 0.946473
vn 0.66919 -0.111714 -0.734646
vn 0.243264 0.969734 -0.0209683
vn 0.28315 -0.154966 -0.946473
vn -0.0824603 -0.109741 0.990534
vn 0.563014 0.654734 0.504319
vn 0.17835 0.918486 0.352952
vn 0.168184 0.985732 -0.00680952
vn 0.0478749 0.922745 -0.382426
vn -0.177931 0.850135 -0.495592
vn -0.0837218 0.415729 -0.905627
vn 0.284802 -0.880698 -0.378495
vn 0.136224 0.990678 -0.000129478
vn 0.00732511 0.960749 0.277322
vn 0.168196 0.98573 0.00675815
vn 0.17835 0.918486 -0.352952
vn 0.563014 0.654734 -0.504319
vn -0.177931 0.850135 0.495592
vn 0.0478749 0.922745 0.382426
vn -0.0837218 0.415729 0.905627
vn 0.284802 -0.880698 0.378495
vn 0.00733923 0.96075 -0.277318
vn -0.0739678 0.805221 0.588343
vn -0.300243 0.822573 0.482937
vn 0.344108 0.479635 0.80718
vn 0.365063 0.484153 0.795189
vn 0.399035 0.695303 0.597767
vn -0.531119 -0.768315 0.357218
vn -0.428362 -0.837551 0.339136
vn 0.265415 0.263704 0.92737
vn 0.292785 0.235576 0.926704
vn 0.344235 0.432631 0.833267
vn 0.803901 -0.0832502 0.588908
vn 0.825234 0.0706187 0.560359
vn -0.763356 0.41679 0.493532
vn -0.507625 0.573144 0.64329
vn -0.526176 0.37961 0.760944
vn 0.646975 -0.256483 0.71808
vn 0.557622 -0.184898 0.809241
vn 0.583594 0.0413562 0.810992
vn 0.333032 -0.571917 0.749667
vn 0.380904 -0.347778 0.856716
vn -0.509091 0.330369 0.794785
vn -0.769374 -0.39752 -0.500042
vn -0.564934 -0.818223 -0.106586
vn 0.955554 -0.0902638 -0.280658
vn 0.771819 -0.591571 -0.233109
vn 0.168649 0.591818 0.788231
vn 0.391831 -0.126156 0.911347
vn 0.586782 0.484426 0.64886
vn 0.427622 -0.45537 0.780882
vn -0.429393 -0.547671 0.718108
vn -0.60469 0.0296538 -0.795908
vn -0.610596 0.0271531 -0.791477
vn -0.616464 0.0246506 -0.786997
vn 0.441798 -0.551711 -0.70741
vn 0.622205 -0.57597 -0.530207
vn 0.622268 -0.576249 0.52983
vn 0.44207 -0.55205 0.706976
vn -0.806032 -0.591872 -1.08552e-007
vn -0.77174 -0.571041 -0.279876
vn -0.770008 -0.56959 -0.287498
vn 0.771329 -0.602579 -0.204818
vn -0.767716 0.64079 0.000190634
vn -0.412511 0.843494 0.344023
vn -0.477034 0.878885 0.000239731
vn -0.278898 0.759163 0.588122
vn -0.999992 0.0039941 0.000114308
vn -0.969838 0.00380908 0.243722
vn -0.737235 0.597256 -0.315863
vn -0.77586 0.615891 -0.136819
vn -0.412338 0.843655 -0.343836
vn -0.278663 0.759366 -0.587971
vn -0.969893 0.00393845 -0.2435
vn -0.775872 0.615862 0.136881
vn -0.737239 0.59723 0.315904
vn -0.68859 0.55481 -0.466937
vn -0.851684 0.464215 -0.243186
vn -0.0824603 -0.109741 -0.990534
vn -0.0739678 0.805221 -0.588343
vn -0.300243 0.822573 -0.482937
vn 0.365063 0.484153 -0.795189
vn 0.344108 0.479635 -0.80718
vn 0.399035 0.695303 -0.597767
vn -0.526176 0.37961 -0.760944
vn -0.507625 0.573144 -0.64329
vn -0.763356 0.41679 -0.493532
vn -0.428362 -0.837551 -0.339136
vn 0.583594 0.0413562 -0.810992
vn 0.557622 -0.184898 -0.809241
vn 0.646975 -0.256483 -0.71808
vn 0.380904 -0.347778 -0.856716
vn 0.333032 -0.571917 -0.749667
vn -0.509091 0.330369 -0.794785
vn -0.564934 -0.818223 0.106586
vn -0.769374 -0.39752 0.500042
vn -0.531119 -0.768315 -0.357218
vn 0.292785 0.235576 -0.926704
vn 0.265415 0.263704 -0.92737
vn 0.344235 0.432631 -0.833267
vn 0.825234 0.0706187 -0.560359
vn 0.803901 -0.0832502 -0.588908
vn 0.955554 -0.0902638 0.280658
vn 0.771819 -0.591571 0.233109
vn 0.168649 0.591818 -0.788231
vn 0.391831 -0.126156 -0.911347
vn -0.429393 -0.547671 -0.718108
vn 0.427622 -0.45537 -0.780882
vn -0.610596 0.0271531 0.791477
vn -0.60469 0.0296538 0.795908
vn -0.616464 0.0246506 0.786997
vn 0.586782 0.484426 -0.64886
vn -0.769893 -0.569745 0.287498
vn -0.771226 -0.571559 0.280233
vn 0.771329 -0.602579 0.204818
vn -0.68859 0.55481 0.466937
vn -0.851684 0.464215 0.243186
vn 0.2186 0.975638 0.0185802
vn 0.198885 0.979624 0.027975
vn 0.218597 0.975639 -0.0185649
vn 0.198896 0.979622 -0.0279546
vn -0.366132 0.914384 -0.172769
vn -0.326807 0.944709 0.0268742
vn -0.300634 0.675689 -0.6731
vn -0.856197 0.482495 -0.184731
vn -0.326807 0.944709 -0.0268742
vn -0.366132 0.914384 0.172769
vn -0.300634 0.675689 0.6731
vn -0.856197 0.482495 0.184731
vn 0.577835 0.49169 0.65142
vn 0.577301 -0.49607 0.648566
vn 0.780844 -0.380001 0.495865
vn -0.495505 0.838491 0.226734
vn -0.189265 -0.954359 0.231038
vn 0.502726 -0.401562 0.765515
vn -0.459343 0.702331 0.543815
vn -0.842423 0.34311 0.415451
vn -0.883402 0.0599112 0.46477
vn -0.953083 0.20474 0.222966
vn -0.991984 0.123262 0.0278208
vn -0.672267 0.667048 0.321098
vn -0.824422 0.538722 0.173515
vn -0.758245 -0.0592708 -0.64927
vn -0.789783 -0.101612 -0.604912
vn -0.774381 -0.301865 -0.556068
vn -0.607969 0.525029 -0.595582
vn -0.640438 0.569139 -0.515675
vn -0.710322 -0.452123 -0.53947
vn -0.364355 0.57584 -0.731884
vn -0.578355 0.499076 -0.645312
vn 0.385417 -0.138532 0.912284
vn 0.341448 -0.185391 0.921436
vn 0.729166 -0.683484 -0.0341463
vn 0.427763 -0.0910892 0.89929
vn -0.778853 -0.047765 0.625385
vn -0.769124 -0.568851 -0.291303
vn 0.465276 -0.761633 -0.451036
vn 0.677245 -0.735757 -7.91815e-005
vn -0.76921 -0.568825 0.291125
vn 0.465244 -0.761702 0.450952
vn -0.760483 -0.571293 -0.308691
vn -0.445095 0.869704 -0.213317
vn -0.585428 0.477878 0.65491
vn -0.78333 0.280339 0.554801
vn -0.832827 0.0346626 0.552447
vn -0.445171 0.869771 0.21289
vn -0.783051 0.280642 -0.555042
vn -0.583979 0.47813 -0.656018
vn -0.833018 0.0346822 -0.552158
vn -0.378866 0.687616 0.61939
vn -0.378866 0.687616 -0.61939
vn -0.672267 0.667048 -0.321098
vn -0.578355 0.499076 0.645312
vn -0.60797 0.525029 0.595582
vn -0.364355 0.57584 0.731884
vn 0.577835 0.49169 -0.65142
vn 0.577301 -0.49607 -0.648566
vn -0.459343 0.702331 -0.543815
vn -0.883402 0.0599112 -0.46477
vn -0.842423 0.34311 -0.415451
vn -0.953083 0.20474 -0.222966
vn -0.991984 0.123262 -0.0278208
vn -0.824422 0.538722 -0.173515
vn 0.780844 -0.380001 -0.495865
vn -0.189265 -0.954359 -0.231038
vn 0.502726 -0.401562 -0.765515
vn -0.789783 -0.101612 0.604912
vn -0.758245 -0.0592708 0.64927
vn -0.774381 -0.301865 0.556068
vn -0.640438 0.569139 0.515675
vn -0.710322 -0.452123 0.53947
vn -0.495505 0.838491 -0.226734
vn 0.341448 -0.185391 -0.921436
vn 0.385417 -0.138532 -0.912284
vn 0.729166 -0.683484 0.0341463
vn 0.427763 -0.0910892 -0.89929
vn -0.778853 -0.047765 -0.625385
vn -0.760483 -0.571293 0.308691
vn -0.968682 0.165245 0.185335
vn -0.968682 0.165245 -0.185335
vn -0.941275 0.0397942 0.335288
vn -0.544073 -0.774348 0.323063
vn -0.501821 -0.862946 0.059162
vn -0.653747 -0.748259 0.112793
vn -0.933898 -0.184097 0.3065
vn -0.726209 -0.679578 -0.103897
vn -0.149411 -0.987418 -0.0517923
vn -0.699881 0.0220875 0.713918
vn 0.319201 -0.794976 -0.515871
vn 0.228322 -0.734513 -0.63903
vn 0.341093 -0.470818 -0.813625
vn 0.0995192 -0.752793 0.650691
vn 0.674601 -0.738182 5.86703e-005
vn 0.228322 -0.734513 0.63903
vn 0.319201 -0.794976 0.515871
vn 0.341093 -0.470818 0.813625
vn 0.0995192 -0.752793 -0.650691
vn -0.534181 0.845369 -0.0013417
vn -0.534473 0.694713 0.481366
vn -0.390899 0.172975 0.904034
vn -0.533449 0.694119 -0.483354
vn -0.389296 0.171977 -0.904916
vn -0.699881 0.0220875 -0.713918
vn -0.941275 0.0397942 -0.335288
vn -0.653747 -0.748259 -0.112793
vn -0.501821 -0.862946 -0.059162
vn -0.544073 -0.774348 -0.323063
vn -0.933898 -0.184097 -0.3065
vn -0.726209 -0.679578 0.103897
vn -0.149411 -0.987418 0.0517923
vn -0.376719 0.231985 0.896809
vn -0.153917 0.073954 0.985312
vn -0.307668 0.0974343 0.946492
vn -0.41947 0.186299 0.888447
vn 0.693324 -0.571524 0.438934
vn 0.522832 -0.248699 -0.81535
vn 0.702226 -0.694576 -0.156344
vn 0.710949 -0.703244 0.000199565
vn 0.702142 -0.694572 0.156738
vn 0.693324 -0.571524 -0.438934
vn -0.41947 0.186299 -0.888447
vn -0.307668 0.0974343 -0.946492
vn 0.522832 -0.248699 0.81535
vn -0.0959861 0.769344 0.631583
vn -0.727532 0.686073 7.20878e-005
vn -0.727474 0.686 -0.0135907
vn -0.0954505 0.765301 -0.636556
vn -0.153119 0.0732122 -0.985492
vn -0.373075 0.228489 -0.899226
vn -0.727455 0.686018 0.0137349
vn -0.0388896 -0.0781485 0.996183
vn 0.0620048 0.0124603 0.997998
vn -0.0141229 0.139585 0.990109
vn -0.401483 -0.915866 -0.00123338
vn -0.414297 -0.890192 0.189518
vn -0.39173 -0.892082 0.22525
vn -0.714816 -0.699312 -0.00093627
vn -0.390374 -0.89206 -0.227675
vn -0.41418 -0.890146 -0.189987
vn -0.0388896 -0.0781485 -0.996183
vn 0.0620048 0.0124603 -0.997998
vn -0.896563 -0.356315 -0.263086
vn -0.651442 -0.625191 0.429837
vn -0.650944 -0.623393 -0.433189
vn -0.0141229 0.139585 -0.990109
vn -0.895737 -0.356412 0.265754
# 455 normals
usemtl Material__1
f  1//1 2//2 3//3
f  4//4 2//5 1//6
f  4//4 1//6 5//7
f  3//3 6//8 1//1
f  1//6 6//9 7//10
f  5//7 1//6 7//10
f  2//2 8//11 3//3
f  8//12 2//5 4//4
f  8//11 9//13 3//3
f  10//14 11//15 3//3
f  3//3 12//16 10//14
f  13//17 12//16 3//3
f  3//3 9//13 13//17
f  3//3 14//18 6//8
f  3//3 15//19 14//18
f  3//3 11//15 16//20
f  16//20 17//21 3//3
f  3//3 17//21 18//22
f  18//22 15//19 3//3
f  19//23 20//24 4//25
f  19//23 4//25 5//26
f  21//27 4//25 20//24
f  8//12 4//4 21//27
f  5//26 7//28 19//23
f  7//10 6//9 14//29
f  7//28 22//30 19//23
f  22//30 7//28 23//31
f  23//31 7//10 14//29
f  9//32 8//12 21//27
f  9//32 21//27 24//33
f  13//34 9//32 24//33
f  11//35 10//36 25//37
f  12//38 25//37 10//36
f  11//35 25//37 26//39
f  27//40 16//41 11//35
f  26//39 27//40 11//35
f  28//42 29//42 12//16
f  28//43 12//44 13//44
f  12//38 29//45 30//46
f  12//38 30//46 25//37
f  13//34 24//33 28//47
f  23//31 14//29 15//48
f  31//49 23//31 15//48
f  31//49 15//48 18//50
f  16//41 27//40 17//51
f  17//21 32//52 33//52
f  18//53 17//53 33//54
f  34//55 32//56 17//51
f  27//40 34//55 17//51
f  33//57 31//49 18//50
f  35//58 20//24 19//23
f  19//23 22//30 35//58
f  35//58 36//59 20//24
f  37//60 20//24 36//59
f  21//27 20//24 37//60
f  24//33 21//27 37//60
f  22//30 38//61 35//58
f  38//61 22//30 39//62
f  39//62 22//30 23//31
f  39//62 23//31 31//49
f  24//33 37//60 40//63
f  28//47 24//33 40//63
f  41//64 26//65 25//66
f  41//64 25//66 30//46
f  26//65 41//64 42//67
f  42//67 43//68 26//65
f  27//69 26//65 43//68
f  34//55 27//69 43//68
f  28//47 40//63 44//70
f  44//71 29//72 28//43
f  44//70 45//73 29//74
f  30//46 29//72 46//75
f  29//72 45//76 46//75
f  41//64 30//46 46//77
f  47//78 39//62 31//49
f  47//78 31//49 33//57
f  32//79 48//80 49//81
f  33//54 32//82 49//83
f  50//84 32//82 34//55
f  50//84 48//85 32//82
f  49//81 47//78 33//57
f  50//86 34//55 43//68
f  51//87 36//59 35//58
f  35//58 38//61 51//87
f  51//87 52//88 36//59
f  53//89 36//59 52//88
f  37//60 36//59 53//89
f  40//63 37//60 53//89
f  38//61 54//90 51//87
f  54//90 38//61 55//91
f  55//91 38//61 39//62
f  55//91 39//62 47//78
f  40//63 53//89 56//92
f  44//70 40//63 56//92
f  42//67 41//64 57//93
f  41//64 58//94 57//93
f  41//64 46//77 58//95
f  42//67 57//93 59//96
f  60//97 43//68 42//67
f  59//96 60//97 42//67
f  60//97 61//98 43//68
f  61//99 50//86 43//68
f  44//70 56//92 62//100
f  62//100 45//73 44//70
f  62//100 63//101 45//73
f  64//102 45//73 65//103
f  66//104 65//103 45//73
f  66//105 45//73 63//101
f  45//106 64//107 46//107
f  58//108 46//109 67//110
f  67//111 46//107 64//107
f  68//112 55//91 47//78
f  68//112 47//78 49//81
f  48//80 69//113 70//114
f  49//81 48//80 70//114
f  71//115 48//80 72//116
f  48//80 71//115 73//117
f  69//113 48//80 73//118
f  50//119 72//119 48//120
f  70//114 68//112 49//81
f  74//121 50//122 61//123
f  72//119 50//119 74//124
f  75//125 52//88 51//87
f  51//87 54//90 75//125
f  75//125 76//126 52//88
f  77//127 52//88 76//126
f  53//89 52//88 77//127
f  56//92 53//89 77//127
f  54//90 78//128 75//125
f  78//128 54//90 79//129
f  79//129 54//90 55//91
f  79//129 55//91 68//112
f  56//92 77//127 80//130
f  62//100 56//92 80//130
f  59//96 57//93 81//131
f  57//93 58//94 82//132
f  57//93 82//132 81//131
f  67//110 82//133 58//108
f  59//96 81//131 83//134
f  84//135 60//97 59//96
f  83//134 84//135 59//96
f  85//136 61//98 60//97
f  84//135 85//136 60//97
f  61//123 85//137 74//121
f  62//100 80//130 86//138
f  86//138 63//101 62//100
f  86//138 87//139 63//101
f  88//140 66//141 63//141
f  88//140 63//101 87//139
f  89//142 90//143 64//102
f  89//144 64//144 91//144
f  64//102 65//103 66//104
f  64//145 66//105 91//145
f  64//102 90//143 92//146
f  64//147 92//148 67//110
f  66//104 93//149 94//150
f  66//151 94//152 91//152
f  88//140 93//153 66//151
f  95//154 67//110 96//155
f  67//156 95//157 97//158
f  67//156 97//158 98//159
f  92//148 96//155 67//110
f  67//156 98//159 82//160
f  99//161 79//129 68//112
f  99//161 68//112 70//114
f  69//113 100//162 101//163
f  70//114 69//113 101//163
f  69//164 73//164 102//165
f  100//162 69//113 102//165
f  101//163 99//161 70//114
f  73//117 71//115 72//116
f  72//116 103//166 104//167
f  105//168 72//168 104//168
f  105//169 73//118 72//169
f  106//170 103//166 72//116
f  74//121 106//171 72//172
f  107//173 108//174 73//117
f  105//175 107//175 73//176
f  73//176 108//177 102//165
f  109//178 74//121 95//154
f  97//179 95//180 74//181
f  110//182 97//179 74//181
f  74//121 109//178 106//171
f  85//183 110//182 74//181
f  76//184 75//185 111//186
f  111//186 75//185 78//187
f  77//127 76//126 112//188
f  112//189 76//184 111//186
f  113//190 80//130 77//127
f  113//190 77//127 112//188
f  114//191 78//128 79//129
f  111//186 78//187 114//192
f  79//129 99//161 115//193
f  114//191 79//129 115//193
f  116//194 86//138 80//130
f  116//194 80//130 113//190
f  117//195 118//196 81//197
f  81//197 119//198 117//199
f  81//200 98//159 119//200
f  98//201 81//201 82//201
f  83//202 81//197 111//186
f  81//197 120//203 111//186
f  118//196 120//203 81//197
f  111//186 84//204 83//202
f  84//204 121//205 122//206
f  122//207 123//208 84//204
f  123//209 110//182 84//209
f  85//210 84//210 110//210
f  111//186 124//211 84//204
f  84//204 124//211 121//205
f  116//194 87//139 86//138
f  120//203 88//140 87//212
f  116//213 120//203 87//212
f  120//203 118//196 88//140
f  88//140 125//214 93//215
f  125//214 88//140 126//216
f  126//216 88//140 118//196
f  127//217 128//218 89//142
f  128//218 90//143 89//142
f  89//219 91//220 125//214
f  129//221 89//219 125//214
f  127//222 89//223 129//223
f  130//224 131//225 90//226
f  128//227 132//228 90//229
f  90//230 131//231 92//231
f  90//226 133//232 130//224
f  90//143 132//233 133//234
f  91//235 94//235 125//235
f  96//155 92//148 134//236
f  135//237 134//237 92//237
f  135//238 92//231 131//231
f  125//214 136//239 93//215
f  136//240 94//150 93//149
f  136//241 137//241 94//150
f  137//242 138//243 94//243
f  94//243 138//243 125//244
f  95//245 96//155 139//246
f  139//247 109//178 95//248
f  139//249 96//250 140//251
f  96//155 134//236 140//252
f  141//253 142//254 97//255
f  97//255 142//254 143//256
f  97//257 143//258 144//258
f  144//259 98//260 97//255
f  97//255 145//261 141//253
f  146//262 145//261 97//255
f  147//263 146//263 97//257
f  97//255 110//264 147//265
f  144//259 148//266 98//260
f  98//260 148//266 119//267
f  99//161 101//163 149//268
f  115//193 99//161 149//268
f  101//163 100//162 149//268
f  100//269 102//165 124//211
f  100//269 124//211 149//270
f  102//165 121//205 124//211
f  108//271 150//272 102//165
f  151//273 102//165 150//272
f  121//205 102//165 151//273
f  103//274 152//275 153//276
f  104//167 103//166 154//277
f  103//278 155//279 154//280
f  106//281 152//281 103//282
f  153//276 156//283 103//274
f  156//284 155//285 103//166
f  104//167 154//277 157//286
f  150//272 105//287 104//288
f  150//272 104//288 158//289
f  158//290 104//290 157//291
f  150//292 107//292 105//292
f  159//293 106//171 109//178
f  106//294 159//294 160//294
f  152//281 106//281 160//295
f  107//173 161//296 162//296
f  108//174 107//173 162//297
f  107//298 163//298 161//299
f  150//300 163//298 107//298
f  108//271 162//301 150//272
f  164//302 109//303 139//249
f  164//304 159//293 109//178
f  110//264 165//305 147//265
f  123//306 165//305 110//264
f  113//307 112//189 111//186
f  116//308 113//307 111//186
f  120//203 116//308 111//186
f  111//186 114//192 115//309
f  111//186 115//309 149//310
f  111//186 149//310 124//211
f  118//196 117//195 126//216
f  127//222 126//216 117//195
f  166//311 127//312 117//199
f  166//311 117//199 167//313
f  117//199 148//266 167//313
f  148//266 117//314 119//267
f  151//273 122//206 121//205
f  122//206 151//273 157//291
f  122//207 157//315 168//316
f  169//317 122//207 168//316
f  169//317 165//305 122//207
f  123//306 122//318 165//305
f  125//214 138//319 136//239
f  125//214 126//216 129//221
f  127//222 129//320 126//320
f  127//222 170//321 128//227
f  170//322 127//312 166//311
f  128//218 170//323 171//323
f  132//228 128//227 171//324
f  135//325 131//225 130//224
f  130//224 172//326 173//327
f  130//224 173//327 174//328
f  130//224 174//328 135//329
f  172//326 130//224 175//330
f  133//331 175//330 130//224
f  132//233 171//332 166//333
f  132//233 166//333 167//334
f  148//266 133//335 132//336
f  148//337 132//233 167//334
f  144//259 133//335 148//266
f  175//338 133//335 143//339
f  143//339 133//335 144//259
f  135//238 176//340 134//341
f  134//236 176//342 140//252
f  135//238 174//343 176//340
f  136//344 138//344 137//344
f  139//249 140//251 177//345
f  139//246 177//346 178//347
f  179//348 164//302 139//249
f  178//347 179//349 139//247
f  140//251 176//350 177//345
f  180//351 142//254 141//253
f  141//253 181//352 182//353
f  141//253 182//353 180//354
f  141//253 145//261 183//355
f  184//356 181//357 141//253
f  183//358 184//356 141//253
f  180//359 143//256 142//254
f  180//359 175//330 143//256
f  145//261 146//262 183//360
f  146//262 185//361 183//360
f  146//362 156//363 185//364
f  147//265 156//363 146//362
f  165//305 156//363 147//265
f  162//301 163//365 150//272
f  158//289 151//273 150//272
f  151//366 158//366 157//291
f  153//276 152//275 160//367
f  186//368 187//369 153//276
f  188//370 186//368 153//276
f  160//371 188//370 153//276
f  185//361 153//276 187//369
f  153//276 185//361 156//372
f  154//280 189//373 157//291
f  190//374 189//374 154//277
f  190//375 154//280 155//279
f  168//376 190//377 155//285
f  169//378 168//376 155//285
f  155//379 156//363 165//305
f  169//378 155//285 165//380
f  168//316 157//315 189//381
f  159//382 191//383 160//295
f  164//304 191//384 159//293
f  191//383 188//385 160//295
f  161//386 163//386 162//386
f  179//348 191//387 164//302
f  170//388 166//388 171//388
f  190//389 168//389 189//389
f  182//353 172//326 175//330
f  192//390 173//327 172//326
f  192//390 172//326 182//353
f  193//391 194//392 173//393
f  193//394 173//327 192//390
f  194//392 174//395 173//393
f  194//392 176//396 174//396
f  182//353 175//397 180//354
f  177//346 176//398 194//399
f  177//346 194//399 193//400
f  177//401 193//401 195//401
f  178//347 177//346 195//402
f  195//402 179//349 178//347
f  196//403 191//404 179//349
f  197//405 196//403 179//349
f  195//406 197//406 179//406
f  181//352 198//407 192//408
f  181//352 192//409 182//353
f  199//410 198//407 181//357
f  184//356 199//411 181//357
f  183//358 185//412 184//356
f  185//361 187//369 184//356
f  184//356 187//369 199//413
f  187//369 186//368 199//413
f  186//414 196//415 197//416
f  199//413 186//368 197//417
f  186//414 188//418 196//415
f  188//419 191//419 196//415
f  198//420 200//421 192//409
f  201//422 193//423 192//409
f  201//422 192//409 200//421
f  202//424 195//402 193//424
f  202//425 193//400 201//425
f  195//402 202//426 203//427
f  203//427 204//428 195//402
f  197//429 195//402 204//429
f  199//411 197//430 205//431
f  205//432 197//405 204//432
f  198//407 206//433 200//433
f  207//434 206//435 198//407
f  208//436 209//436 198//407
f  199//411 208//437 198//438
f  198//407 209//439 207//434
f  208//437 199//411 205//431
f  202//440 201//422 200//421
f  202//440 200//421 210//441
f  206//442 210//441 200//421
f  203//443 202//444 210//445
f  203//443 210//445 211//446
f  212//447 204//448 203//443
f  211//446 212//447 203//443
f  208//437 205//431 204//449
f  212//450 208//437 204//449
f  211//446 210//451 206//451
f  211//446 206//452 207//452
f  207//453 209//453 211//446
f  208//437 212//450 209//454
f  209//455 212//455 211//446
