# 
# Wavefront OBJ file
# Converted by the DEEP Exploration 2.00.1211
# Right Hemisphere, LTD
# http://www.righthemisphere.com/
# 
mtllib thoracic7.mtl
# object Object #0
g Object__0
v -0.060479 0.198082 2.3e-005
v -0.061207 0.198327 0.007643
v -0.073975 0.197496 3e-006
v -0.060115 0.202003 0.009168
v -0.059728 0.199516 2.5e-005
v -0.061207 0.198327 -0.007643
v -0.060115 0.202003 -0.009168
v -0.065303 0.198658 0.015572
v -0.071846 0.198591 0.019429
v -0.086002 0.196228 0.004596
v -0.086145 0.19648 3e-006
v -0.086374 0.196441 0.013528
v -0.082173 0.197841 0.019533
v -0.065303 0.198658 -0.015572
v -0.071846 0.198591 -0.019429
v -0.086002 0.196228 -0.004596
v -0.086374 0.196441 -0.013528
v -0.082173 0.197841 -0.019533
v -0.060595 0.20365 2.5e-005
v -0.061912 0.204032 0.009816
v -0.065253 0.202585 0.016543
v -0.061912 0.204032 -0.009816
v -0.065253 0.202585 -0.016543
v -0.073133 0.202999 0.020094
v -0.089915 0.19917 0.00473
v -0.089875 0.199056 3e-006
v -0.089915 0.19917 -0.00473
v -0.08367 0.202614 0.020237
v -0.089281 0.196888 0.015192
v -0.090908 0.200438 0.008989
v -0.073133 0.202999 -0.020094
v -0.089281 0.196888 -0.015192
v -0.08367 0.202614 -0.020237
v -0.090908 0.200438 -0.008989
v -0.060808 0.212361 2.8e-005
v -0.062138 0.211378 0.009473
v -0.06722 0.205113 0.016131
v -0.062138 0.211378 -0.009473
v -0.06722 0.205113 -0.016131
v -0.073432 0.206788 0.01828
v -0.090028 0.205673 0.006064
v -0.089543 0.205703 5e-006
v -0.090028 0.205673 -0.006064
v -0.083737 0.205931 0.019153
v -0.088821 0.204478 0.01811
v -0.091874 0.206165 0.009275
v -0.073432 0.206788 -0.01828
v -0.088821 0.204478 -0.01811
v -0.083737 0.205931 -0.019153
v -0.091874 0.206165 -0.009275
v -0.060444 0.215812 2.9e-005
v -0.061034 0.215461 0.010479
v -0.067899 0.211836 0.016751
v -0.061034 0.215461 -0.010479
v -0.067899 0.211836 -0.016751
v -0.072723 0.211947 0.018364
v -0.09161 0.214592 0.006267
v -0.093567 0.214972 0.009698
v -0.090901 0.214685 7e-006
v -0.09161 0.214592 -0.006267
v -0.093567 0.214972 -0.009698
v -0.082662 0.212284 0.019291
v -0.087371 0.213151 0.019666
v -0.094782 0.2041 0.016315
v -0.092116 0.206571 0.020003
v -0.093759 0.213008 0.023918
v -0.100141 0.207694 0.00356
v -0.072723 0.211947 -0.018364
v -0.087371 0.213151 -0.019666
v -0.082662 0.212284 -0.019291
v -0.092116 0.206571 -0.020003
v -0.094782 0.2041 -0.016315
v -0.093759 0.213008 -0.023918
v -0.100141 0.207694 -0.00356
v -0.060759 0.219669 2.9e-005
v -0.061569 0.21946 0.010672
v -0.066133 0.215119 0.017731
v -0.061569 0.21946 -0.010672
v -0.066133 0.215119 -0.017731
v -0.072135 0.214667 0.020305
v -0.092404 0.220895 0.007989
v -0.093083 0.219398 0.010413
v -0.090742 0.220092 9e-006
v -0.092404 0.220895 -0.007989
v -0.093083 0.219398 -0.010413
v -0.08066 0.216011 0.021284
v -0.088521 0.216956 0.019004
v -0.094747 0.218046 0.019049
v -0.10342 0.210828 0.022079
v -0.101481 0.207206 0.016409
v -0.098414 0.201956 0.023617
v -0.096622 0.201764 0.010056
v -0.098168 0.209952 0.022714
v -0.099529 0.203816 0.020649
v -0.100514 0.202928 3e-006
v -0.103271 0.192375 0.004883
v -0.108574 0.208574 5e-006
v -0.10258 0.212842 0.007369
v -0.072135 0.214667 -0.020305
v -0.088521 0.216956 -0.019004
v -0.08066 0.216011 -0.021284
v -0.094747 0.218046 -0.019049
v -0.101481 0.207206 -0.016409
v -0.10342 0.210828 -0.022079
v -0.098414 0.201956 -0.023617
v -0.096622 0.201764 -0.010056
v -0.099529 0.203816 -0.020649
v -0.098168 0.209952 -0.022714
v -0.103271 0.192375 -0.004883
v -0.10258 0.212842 -0.007369
v -0.075751 0.21988 9e-006
v -0.066488 0.2193 0.017976
v -0.073327 0.219488 0.021286
v -0.066488 0.2193 -0.017976
v -0.073327 0.219488 -0.021286
v -0.082148 0.219145 0.021416
v -0.101854 0.220774 0.015276
v -0.094529 0.219622 0.013466
v -0.101505 0.218454 0.009608
v -0.090526 0.220465 0.016344
v -0.094529 0.219622 -0.013466
v -0.101854 0.220774 -0.015276
v -0.101505 0.218454 -0.009608
v -0.090526 0.220465 -0.016344
v -0.100655 0.214615 0.020274
v -0.099839 0.217321 0.017562
v -0.114566 0.219777 0.033211
v -0.10862 0.211997 0.020137
v -0.103567 0.21589 0.020312
v -0.112053 0.197965 0.01207
v -0.107856 0.199421 0.014776
v -0.11474 0.211346 0.024182
v -0.106823 0.209753 0.012105
v -0.097045 0.199977 0.011456
v -0.111715 0.194504 0.016275
v -0.101933 0.21014 0.025123
v -0.103405 0.208214 0.022911
v -0.104732 0.214267 0.023234
v -0.106106 0.196701 3e-006
v -0.102958 0.191506 0.006399
v -0.118371 0.197477 4e-006
v -0.109457 0.205503 0.004733
v -0.105632 0.204692 0.007925
v -0.105791 0.208398 0.009933
v -0.109457 0.205503 -0.004733
v -0.105632 0.204692 -0.007925
v -0.105791 0.208398 -0.009933
v -0.10366 0.21326 0.010838
v -0.082148 0.219145 -0.021416
v -0.100655 0.214615 -0.020274
v -0.099839 0.217321 -0.017562
v -0.107856 0.199421 -0.014776
v -0.112053 0.197965 -0.01207
v -0.10862 0.211997 -0.020137
v -0.11474 0.211346 -0.024182
v -0.106823 0.209753 -0.012105
v -0.114566 0.219777 -0.033211
v -0.103567 0.21589 -0.020312
v -0.097045 0.199977 -0.011456
v -0.111715 0.194504 -0.016275
v -0.103405 0.208214 -0.022911
v -0.101933 0.21014 -0.025123
v -0.104732 0.214267 -0.023234
v -0.102958 0.191506 -0.006399
v -0.10366 0.21326 -0.010838
v -0.119861 0.216949 0.027837
v -0.107566 0.214714 0.013293
v -0.119861 0.216949 -0.027837
v -0.107566 0.214714 -0.013293
v -0.118025 0.215733 0.036798
v -0.119667 0.213736 0.028594
v -0.114274 0.1955 0.009798
v -0.114264 0.191652 0.009271
v -0.111377 0.188885 0.016043
v -0.112002 0.199735 0.00845
v -0.103999 0.189557 0.012717
v -0.105425 0.194116 0.005089
v -0.108422 0.192198 1e-006
v -0.105425 0.194116 -0.005089
v -0.116961 0.199643 0.003997
v -0.1246 0.186813 -1.5e-005
v -0.116464 0.195838 0.003889
v -0.116961 0.199643 -0.003997
v -0.116464 0.195838 -0.003889
v -0.112002 0.199735 -0.00845
v -0.114264 0.191652 -0.009271
v -0.114274 0.1955 -0.009798
v -0.111377 0.188885 -0.016043
v -0.118025 0.215733 -0.036798
v -0.119667 0.213736 -0.028594
v -0.103999 0.189557 -0.012717
v -0.116468 0.192184 0.004057
v -0.11544 0.190407 0.004756
v -0.110423 0.189406 0.007293
v -0.115083 0.186228 0
v -0.110423 0.189406 -0.007293
v -0.11544 0.190407 -0.004756
v -0.13079 0.180178 -1.9e-005
v -0.116468 0.192184 -0.004057
v -0.123198 0.180142 0.004413
v -0.11777 0.184027 0.00443
v -0.123452 0.172638 0.00344
v -0.125172 0.172056 -3e-006
v -0.123452 0.172638 -0.00344
v -0.11777 0.184027 -0.00443
v -0.131999 0.177187 0.004462
v -0.132781 0.17596 -2.1e-005
v -0.123198 0.180142 -0.004413
v -0.131999 0.177187 -0.004462
v -0.130133 0.174229 0.005196
v -0.129088 0.172679 -2e-005
v -0.130133 0.174229 -0.005196
# 212 verticies
vn 0.722898 -0.690955 0.000335
vn 0.543506 -0.818301 0.18704
vn 0.082281 -0.996609 1.5e-005
vn 0.956446 0.00018 0.291909
vn 0.990844 -0.135011 0.000222
vn 0.543606 -0.818289 -0.186804
vn 0.956535 0.000261 -0.291619
vn 0.539214 -0.688936 0.484372
vn 0.270974 -0.61645 0.739298
vn -0.269531 -0.962858 -0.016062
vn -0.383509 -0.923537 -1.4e-005
vn -0.318755 -0.932733 0.168538
vn -0.116744 -0.683519 0.720536
vn 0.53921 -0.688941 -0.484368
vn 0.270974 -0.616455 -0.739295
vn -0.269528 -0.962859 0.016038
vn -0.31875 -0.932735 -0.168535
vn -0.116736 -0.683523 -0.720534
vn 0.952062 0.305905 0.000173
vn 0.878688 0.33163 0.343408
vn 0.637901 0.207838 0.741542
vn 0.87879 0.331683 -0.343095
vn 0.637901 0.207842 -0.741541
vn 0.217847 0.174836 0.960195
vn -0.816579 -0.575985 -0.037956
vn -0.955795 -0.294034 -2e-005
vn -0.816579 -0.575984 0.037954
vn -0.2479 -0.059695 0.966945
vn -0.692554 -0.481051 0.537548
vn -0.883909 -0.419961 -0.20576
vn 0.217847 0.174836 -0.960195
vn -0.692555 -0.481051 -0.537548
vn -0.247898 -0.059695 -0.966945
vn -0.88391 -0.419959 0.20576
vn 0.999896 -0.014393 0.000371
vn 0.918068 -0.106641 0.38181
vn 0.590231 0.261397 0.76374
vn 0.918186 -0.106635 -0.381527
vn 0.590233 0.261396 -0.763739
vn 0.201432 0.177065 0.963366
vn -0.960062 -0.075627 -0.269371
vn -0.995828 -0.091254 -8.2e-005
vn -0.960071 -0.075635 0.269337
vn -0.147768 0.017325 0.98887
vn -0.07697 -0.498051 0.863725
vn -0.71114 -0.552645 -0.434585
vn 0.201432 0.177065 -0.963366
vn -0.07697 -0.498051 -0.863725
vn -0.147768 0.017325 -0.98887
vn -0.71114 -0.552645 0.434585
vn 0.995044 -0.099438 0.000217
vn 0.932344 -0.151935 0.328101
vn 0.557522 -0.243918 0.793519
vn 0.932403 -0.151924 -0.32794
vn 0.557522 -0.243918 -0.793519
vn 0.206793 -0.299339 0.931468
vn -0.960216 -0.072397 -0.269711
vn -0.408372 0.02674 -0.912424
vn -0.997393 -0.072167 -0.000159
vn -0.960242 -0.072425 0.269611
vn -0.40837 0.026731 0.912425
vn -0.000633 -0.300711 0.953715
vn 0.139949 0.011612 0.990091
vn -0.023853 -0.9803 0.196067
vn -0.143099 -0.628913 0.764193
vn 0.027483 -0.075627 0.996757
vn 0.674619 0.115268 -0.729111
vn 0.206793 -0.299339 -0.931468
vn 0.139949 0.011612 -0.990091
vn -0.000633 -0.300711 -0.953715
vn -0.143099 -0.628913 -0.764193
vn -0.023854 -0.980301 -0.196064
vn 0.027483 -0.075627 -0.996757
vn 0.674777 0.115336 0.728954
vn 0.85544 0.517902 0.000183
vn 0.717485 0.607448 0.340914
vn 0.589428 -0.233024 0.773482
vn 0.717524 0.607479 -0.340777
vn 0.58943 -0.233018 -0.773482
vn 0.169857 -0.337626 0.925828
vn -0.521773 0.78657 -0.330243
vn -0.242088 -0.001328 -0.970253
vn -0.68551 0.728063 -0.000228
vn -0.521822 0.786594 0.330109
vn -0.242085 -0.001339 0.970254
vn -0.091126 -0.214589 0.972444
vn -0.180385 0.236063 0.954848
vn -0.127346 0.700175 0.702523
vn -0.160808 -0.564042 0.809937
vn -0.291764 -0.576286 0.763393
vn 0.472326 -0.151664 0.868278
vn 0.827838 -0.333527 0.451048
vn 0.070919 0.213764 0.974308
vn -0.49109 -0.62183 0.610047
vn 0.998043 -0.062526 -0.000207
vn 0.720285 -0.515884 -0.463739
vn -0.520319 0.853972 5.9e-005
vn -0.446789 0.52848 -0.721865
vn 0.169857 -0.337626 -0.925828
vn -0.180385 0.236063 -0.954848
vn -0.091126 -0.214589 -0.972444
vn -0.127346 0.700175 -0.702523
vn -0.29176 -0.576289 -0.763392
vn -0.16081 -0.564044 -0.809935
vn 0.472326 -0.151664 -0.868278
vn 0.827842 -0.33352 -0.451046
vn -0.49109 -0.62183 -0.610047
vn 0.070919 0.213764 -0.974308
vn 0.720287 -0.515923 0.463692
vn -0.446703 0.528518 0.72189
vn 0.032158 0.999483 0
vn 0.460812 0.712414 0.529262
vn 0.249597 0.498694 0.830063
vn 0.460805 0.712426 -0.529253
vn 0.2496 0.498704 -0.830057
vn -0.118918 0.46041 0.879705
vn -0.219604 0.97006 -0.103718
vn -0.07609 0.93404 0.348969
vn -0.676104 0.541267 -0.499914
vn -0.145037 0.912703 0.382018
vn -0.07609 0.93404 -0.348969
vn -0.219604 0.97006 0.103716
vn -0.676104 0.541264 0.499916
vn -0.145027 0.912708 -0.38201
vn 0.268088 0.614853 0.741677
vn 0.267363 0.655095 0.706659
vn 0.477322 0.324436 0.816643
vn 0.272865 -0.673637 0.686847
vn 0.524545 0.226463 0.820712
vn -0.813689 0.279791 0.509537
vn -0.113952 0.136284 0.984094
vn -0.722366 -0.619756 -0.30674
vn -0.910708 0.273195 -0.3098
vn 0.910198 -0.271228 0.313009
vn -0.088813 0.234797 0.967979
vn 0.103663 0.00024 0.994613
vn -0.829727 -0.472175 0.297664
vn -0.966427 0.158398 -0.202311
vn 0.053264 -0.99858 -0.00012
vn -0.045933 -0.919225 -0.391045
vn -0.86482 0.502082 0.000208
vn -0.553133 0.757869 0.345945
vn -0.781321 0.601891 0.16512
vn -0.908795 0.355295 -0.218761
vn -0.553012 0.75804 -0.345765
vn -0.781238 0.602046 -0.16495
vn -0.908783 0.355286 0.218827
vn -0.793819 0.300905 -0.528496
vn -0.118913 0.460417 -0.879702
vn 0.268088 0.614853 -0.741677
vn 0.267363 0.655095 -0.706659
vn -0.113947 0.13629 -0.984094
vn -0.813689 0.279789 -0.509538
vn 0.272865 -0.673639 -0.686844
vn -0.722363 -0.61976 0.30674
vn -0.910713 0.273189 0.309789
vn 0.477322 0.324436 -0.816643
vn 0.524545 0.226463 -0.820712
vn 0.910203 -0.271221 -0.313001
vn -0.088815 0.2348 -0.967978
vn -0.829727 -0.472175 -0.297664
vn 0.103663 0.00024 -0.994613
vn -0.966427 0.158398 0.202311
vn -0.045812 -0.919245 0.391012
vn -0.79382 0.300907 0.528493
vn -0.852582 0.397664 -0.339067
vn -0.65036 0.09279 -0.753937
vn -0.852582 0.397664 0.339067
vn -0.65036 0.09279 0.753937
vn -0.514524 -0.326454 0.792902
vn -0.574646 -0.771332 0.273549
vn -0.87895 0.191954 0.436578
vn -0.815367 -0.409755 0.408997
vn -0.672157 -0.612266 0.416336
vn -0.823827 0.505383 0.256706
vn 0.419563 -0.871915 0.25245
vn 0.240564 -0.914575 -0.325086
vn 0.78851 -0.615022 -8.2e-005
vn 0.240533 -0.914628 0.32496
vn -0.747869 0.418835 0.515043
vn -0.865479 0.500945 -0.000649
vn -0.805064 0.137906 0.576935
vn -0.747929 0.418827 -0.514962
vn -0.804851 0.138255 -0.577149
vn -0.823828 0.505381 -0.256707
vn -0.81537 -0.40975 -0.408994
vn -0.878953 0.19195 -0.436575
vn -0.672155 -0.61227 -0.416333
vn -0.514524 -0.326454 -0.792902
vn -0.574646 -0.771332 -0.273549
vn 0.419559 -0.871917 -0.252451
vn -0.676614 0.096195 0.730027
vn -0.019484 -0.954364 0.298009
vn -0.026455 -0.965204 -0.260157
vn 0.720212 -0.693754 3.3e-005
vn -0.026457 -0.965205 0.260153
vn -0.019516 -0.95435 -0.298052
vn -0.730873 0.682513 -0.001253
vn -0.675729 0.095928 -0.730882
vn -0.101807 0.207515 0.97292
vn -0.059812 -0.007914 0.998178
vn 0.611154 -0.676359 0.411132
vn 0.184451 -0.982842 -0.000439
vn 0.611151 -0.676356 -0.411141
vn -0.059841 -0.007898 -0.998177
vn -0.833011 0.065641 0.549349
vn -0.983193 -0.182565 -0.000956
vn -0.101078 0.206751 -0.973158
vn -0.832048 0.065244 -0.550854
vn -0.282786 -0.670755 0.685653
vn -0.594628 -0.804 -0.00088
vn -0.282061 -0.670496 -0.686204
# 212 normals
usemtl Material__1
f  1//1 2//2 3//3
f  4//4 2//2 1//1
f  4//4 1//1 5//5
f  3//3 6//6 1//1
f  1//1 6//6 7//7
f  5//5 1//1 7//7
f  2//2 8//8 3//3
f  8//8 2//2 4//4
f  8//8 9//9 3//3
f  10//10 11//11 3//3
f  3//3 12//12 10//10
f  13//13 12//12 3//3
f  3//3 9//9 13//13
f  3//3 14//14 6//6
f  3//3 15//15 14//14
f  3//3 11//11 16//16
f  16//16 17//17 3//3
f  3//3 17//17 18//18
f  18//18 15//15 3//3
f  19//19 20//20 4//4
f  19//19 4//4 5//5
f  21//21 4//4 20//20
f  8//8 4//4 21//21
f  5//5 7//7 19//19
f  7//7 6//6 14//14
f  7//7 22//22 19//19
f  22//22 7//7 23//23
f  23//23 7//7 14//14
f  9//9 8//8 21//21
f  9//9 21//21 24//24
f  13//13 9//9 24//24
f  11//11 10//10 25//25
f  12//12 25//25 10//10
f  11//11 25//25 26//26
f  27//27 16//16 11//11
f  26//26 27//27 11//11
f  28//28 29//29 12//12
f  28//28 12//12 13//13
f  12//12 29//29 30//30
f  12//12 30//30 25//25
f  13//13 24//24 28//28
f  23//23 14//14 15//15
f  31//31 23//23 15//15
f  31//31 15//15 18//18
f  16//16 27//27 17//17
f  17//17 32//32 33//33
f  18//18 17//17 33//33
f  34//34 32//32 17//17
f  27//27 34//34 17//17
f  33//33 31//31 18//18
f  35//35 20//20 19//19
f  19//19 22//22 35//35
f  35//35 36//36 20//20
f  37//37 20//20 36//36
f  21//21 20//20 37//37
f  24//24 21//21 37//37
f  22//22 38//38 35//35
f  38//38 22//22 39//39
f  39//39 22//22 23//23
f  39//39 23//23 31//31
f  24//24 37//37 40//40
f  28//28 24//24 40//40
f  41//41 26//26 25//25
f  41//41 25//25 30//30
f  26//26 41//41 42//42
f  42//42 43//43 26//26
f  27//27 26//26 43//43
f  34//34 27//27 43//43
f  28//28 40//40 44//44
f  44//44 29//29 28//28
f  44//44 45//45 29//29
f  30//30 29//29 46//46
f  29//29 45//45 46//46
f  41//41 30//30 46//46
f  47//47 39//39 31//31
f  47//47 31//31 33//33
f  32//32 48//48 49//49
f  33//33 32//32 49//49
f  50//50 32//32 34//34
f  50//50 48//48 32//32
f  49//49 47//47 33//33
f  50//50 34//34 43//43
f  51//51 36//36 35//35
f  35//35 38//38 51//51
f  51//51 52//52 36//36
f  53//53 36//36 52//52
f  37//37 36//36 53//53
f  40//40 37//37 53//53
f  38//38 54//54 51//51
f  54//54 38//38 55//55
f  55//55 38//38 39//39
f  55//55 39//39 47//47
f  40//40 53//53 56//56
f  44//44 40//40 56//56
f  42//42 41//41 57//57
f  41//41 58//58 57//57
f  41//41 46//46 58//58
f  42//42 57//57 59//59
f  60//60 43//43 42//42
f  59//59 60//60 42//42
f  60//60 61//61 43//43
f  61//61 50//50 43//43
f  44//44 56//56 62//62
f  62//62 45//45 44//44
f  62//62 63//63 45//45
f  64//64 45//45 65//65
f  66//66 65//65 45//45
f  66//66 45//45 63//63
f  45//45 64//64 46//46
f  58//58 46//46 67//67
f  67//67 46//46 64//64
f  68//68 55//55 47//47
f  68//68 47//47 49//49
f  48//48 69//69 70//70
f  49//49 48//48 70//70
f  71//71 48//48 72//72
f  48//48 71//71 73//73
f  69//69 48//48 73//73
f  50//50 72//72 48//48
f  70//70 68//68 49//49
f  74//74 50//50 61//61
f  72//72 50//50 74//74
f  75//75 52//52 51//51
f  51//51 54//54 75//75
f  75//75 76//76 52//52
f  77//77 52//52 76//76
f  53//53 52//52 77//77
f  56//56 53//53 77//77
f  54//54 78//78 75//75
f  78//78 54//54 79//79
f  79//79 54//54 55//55
f  79//79 55//55 68//68
f  56//56 77//77 80//80
f  62//62 56//56 80//80
f  59//59 57//57 81//81
f  57//57 58//58 82//82
f  57//57 82//82 81//81
f  67//67 82//82 58//58
f  59//59 81//81 83//83
f  84//84 60//60 59//59
f  83//83 84//84 59//59
f  85//85 61//61 60//60
f  84//84 85//85 60//60
f  61//61 85//85 74//74
f  62//62 80//80 86//86
f  86//86 63//63 62//62
f  86//86 87//87 63//63
f  88//88 66//66 63//63
f  88//88 63//63 87//87
f  89//89 90//90 64//64
f  89//89 64//64 91//91
f  64//64 65//65 66//66
f  64//64 66//66 91//91
f  64//64 90//90 92//92
f  64//64 92//92 67//67
f  66//66 93//93 94//94
f  66//66 94//94 91//91
f  88//88 93//93 66//66
f  95//95 67//67 96//96
f  67//67 95//95 97//97
f  67//67 97//97 98//98
f  92//92 96//96 67//67
f  67//67 98//98 82//82
f  99//99 79//79 68//68
f  99//99 68//68 70//70
f  69//69 100//100 101//101
f  70//70 69//69 101//101
f  69//69 73//73 102//102
f  100//100 69//69 102//102
f  101//101 99//99 70//70
f  73//73 71//71 72//72
f  72//72 103//103 104//104
f  105//105 72//72 104//104
f  105//105 73//73 72//72
f  106//106 103//103 72//72
f  74//74 106//106 72//72
f  107//107 108//108 73//73
f  105//105 107//107 73//73
f  73//73 108//108 102//102
f  109//109 74//74 95//95
f  97//97 95//95 74//74
f  110//110 97//97 74//74
f  74//74 109//109 106//106
f  85//85 110//110 74//74
f  76//76 75//75 111//111
f  111//111 75//75 78//78
f  77//77 76//76 112//112
f  112//112 76//76 111//111
f  113//113 80//80 77//77
f  113//113 77//77 112//112
f  114//114 78//78 79//79
f  111//111 78//78 114//114
f  79//79 99//99 115//115
f  114//114 79//79 115//115
f  116//116 86//86 80//80
f  116//116 80//80 113//113
f  117//117 118//118 81//81
f  81//81 119//119 117//117
f  81//81 98//98 119//119
f  98//98 81//81 82//82
f  83//83 81//81 111//111
f  81//81 120//120 111//111
f  118//118 120//120 81//81
f  111//111 84//84 83//83
f  84//84 121//121 122//122
f  122//122 123//123 84//84
f  123//123 110//110 84//84
f  85//85 84//84 110//110
f  111//111 124//124 84//84
f  84//84 124//124 121//121
f  116//116 87//87 86//86
f  120//120 88//88 87//87
f  116//116 120//120 87//87
f  120//120 118//118 88//88
f  88//88 125//125 93//93
f  125//125 88//88 126//126
f  126//126 88//88 118//118
f  127//127 128//128 89//89
f  128//128 90//90 89//89
f  89//89 91//91 125//125
f  129//129 89//89 125//125
f  127//127 89//89 129//129
f  130//130 131//131 90//90
f  128//128 132//132 90//90
f  90//90 131//131 92//92
f  90//90 133//133 130//130
f  90//90 132//132 133//133
f  91//91 94//94 125//125
f  96//96 92//92 134//134
f  135//135 134//134 92//92
f  135//135 92//92 131//131
f  125//125 136//136 93//93
f  136//136 94//94 93//93
f  136//136 137//137 94//94
f  137//137 138//138 94//94
f  94//94 138//138 125//125
f  95//95 96//96 139//139
f  139//139 109//109 95//95
f  139//139 96//96 140//140
f  96//96 134//134 140//140
f  141//141 142//142 97//97
f  97//97 142//142 143//143
f  97//97 143//143 144//144
f  144//144 98//98 97//97
f  97//97 145//145 141//141
f  146//146 145//145 97//97
f  147//147 146//146 97//97
f  97//97 110//110 147//147
f  144//144 148//148 98//98
f  98//98 148//148 119//119
f  99//99 101//101 149//149
f  115//115 99//99 149//149
f  101//101 100//100 149//149
f  100//100 102//102 124//124
f  100//100 124//124 149//149
f  102//102 121//121 124//124
f  108//108 150//150 102//102
f  151//151 102//102 150//150
f  121//121 102//102 151//151
f  103//103 152//152 153//153
f  104//104 103//103 154//154
f  103//103 155//155 154//154
f  106//106 152//152 103//103
f  153//153 156//156 103//103
f  156//156 155//155 103//103
f  104//104 154//154 157//157
f  150//150 105//105 104//104
f  150//150 104//104 158//158
f  158//158 104//104 157//157
f  150//150 107//107 105//105
f  159//159 106//106 109//109
f  106//106 159//159 160//160
f  152//152 106//106 160//160
f  107//107 161//161 162//162
f  108//108 107//107 162//162
f  107//107 163//163 161//161
f  150//150 163//163 107//107
f  108//108 162//162 150//150
f  164//164 109//109 139//139
f  164//164 159//159 109//109
f  110//110 165//165 147//147
f  123//123 165//165 110//110
f  113//113 112//112 111//111
f  116//116 113//113 111//111
f  120//120 116//116 111//111
f  111//111 114//114 115//115
f  111//111 115//115 149//149
f  111//111 149//149 124//124
f  118//118 117//117 126//126
f  127//127 126//126 117//117
f  166//166 127//127 117//117
f  166//166 117//117 167//167
f  117//117 148//148 167//167
f  148//148 117//117 119//119
f  151//151 122//122 121//121
f  122//122 151//151 157//157
f  122//122 157//157 168//168
f  169//169 122//122 168//168
f  169//169 165//165 122//122
f  123//123 122//122 165//165
f  125//125 138//138 136//136
f  125//125 126//126 129//129
f  127//127 129//129 126//126
f  127//127 170//170 128//128
f  170//170 127//127 166//166
f  128//128 170//170 171//171
f  132//132 128//128 171//171
f  135//135 131//131 130//130
f  130//130 172//172 173//173
f  130//130 173//173 174//174
f  130//130 174//174 135//135
f  172//172 130//130 175//175
f  133//133 175//175 130//130
f  132//132 171//171 166//166
f  132//132 166//166 167//167
f  148//148 133//133 132//132
f  148//148 132//132 167//167
f  144//144 133//133 148//148
f  175//175 133//133 143//143
f  143//143 133//133 144//144
f  135//135 176//176 134//134
f  134//134 176//176 140//140
f  135//135 174//174 176//176
f  136//136 138//138 137//137
f  139//139 140//140 177//177
f  139//139 177//177 178//178
f  179//179 164//164 139//139
f  178//178 179//179 139//139
f  140//140 176//176 177//177
f  180//180 142//142 141//141
f  141//141 181//181 182//182
f  141//141 182//182 180//180
f  141//141 145//145 183//183
f  184//184 181//181 141//141
f  183//183 184//184 141//141
f  180//180 143//143 142//142
f  180//180 175//175 143//143
f  145//145 146//146 183//183
f  146//146 185//185 183//183
f  146//146 156//156 185//185
f  147//147 156//156 146//146
f  165//165 156//156 147//147
f  162//162 163//163 150//150
f  158//158 151//151 150//150
f  151//151 158//158 157//157
f  153//153 152//152 160//160
f  186//186 187//187 153//153
f  188//188 186//186 153//153
f  160//160 188//188 153//153
f  185//185 153//153 187//187
f  153//153 185//185 156//156
f  154//154 189//189 157//157
f  190//190 189//189 154//154
f  190//190 154//154 155//155
f  168//168 190//190 155//155
f  169//169 168//168 155//155
f  155//155 156//156 165//165
f  169//169 155//155 165//165
f  168//168 157//157 189//189
f  159//159 191//191 160//160
f  164//164 191//191 159//159
f  191//191 188//188 160//160
f  161//161 163//163 162//162
f  179//179 191//191 164//164
f  170//170 166//166 171//171
f  190//190 168//168 189//189
f  182//182 172//172 175//175
f  192//192 173//173 172//172
f  192//192 172//172 182//182
f  193//193 194//194 173//173
f  193//193 173//173 192//192
f  194//194 174//174 173//173
f  194//194 176//176 174//174
f  182//182 175//175 180//180
f  177//177 176//176 194//194
f  177//177 194//194 193//193
f  177//177 193//193 195//195
f  178//178 177//177 195//195
f  195//195 179//179 178//178
f  196//196 191//191 179//179
f  197//197 196//196 179//179
f  195//195 197//197 179//179
f  181//181 198//198 192//192
f  181//181 192//192 182//182
f  199//199 198//198 181//181
f  184//184 199//199 181//181
f  183//183 185//185 184//184
f  185//185 187//187 184//184
f  184//184 187//187 199//199
f  187//187 186//186 199//199
f  186//186 196//196 197//197
f  199//199 186//186 197//197
f  186//186 188//188 196//196
f  188//188 191//191 196//196
f  198//198 200//200 192//192
f  201//201 193//193 192//192
f  201//201 192//192 200//200
f  202//202 195//195 193//193
f  202//202 193//193 201//201
f  195//195 202//202 203//203
f  203//203 204//204 195//195
f  197//197 195//195 204//204
f  199//199 197//197 205//205
f  205//205 197//197 204//204
f  198//198 206//206 200//200
f  207//207 206//206 198//198
f  208//208 209//209 198//198
f  199//199 208//208 198//198
f  198//198 209//209 207//207
f  208//208 199//199 205//205
f  202//202 201//201 200//200
f  202//202 200//200 210//210
f  206//206 210//210 200//200
f  203//203 202//202 210//210
f  203//203 210//210 211//211
f  212//212 204//204 203//203
f  211//211 212//212 203//203
f  208//208 205//205 204//204
f  212//212 208//208 204//204
f  211//211 210//210 206//206
f  211//211 206//206 207//207
f  207//207 209//209 211//211
f  208//208 212//212 209//209
f  209//209 212//212 211//211
