#VRML V2.0 utf8 
Transform { 
 children [ 
    Shape { 
appearance Appearance {
              material DEF surface Material {
              diffuseColor 0.8 0.8 0.8
              ambientIntensity 0.2
              specularColor 0.4 0.4 0.4
              emissiveColor 0 0 0
              shininess 0.25
              transparency 0
            }
          }
   geometry IndexedFaceSet { 
   solid FALSE 
    coord DEF bone Coordinate{ 
     point [ 
	 -0.033750   0.089754   0.000025,
	 -0.034651   0.089708   0.008244,
	 -0.048303   0.082801   0.000003,
	 -0.035008   0.094589   0.009890,
	 -0.033533   0.091809   0.000027,
	 -0.034651   0.089708  -0.008244,
	 -0.035008   0.094589  -0.009890,
	 -0.039284   0.088204   0.016798,
	 -0.046431   0.085090   0.020958,
	 -0.060395   0.076992   0.004957,
	 -0.060658   0.077225   0.000003,
	 -0.060892   0.077072   0.014592,
	 -0.057439   0.079411   0.021071,
	 -0.039284   0.088204  -0.016798,
	 -0.046431   0.085090  -0.020958,
	 -0.060395   0.076992  -0.004957,
	 -0.060892   0.077072  -0.014592,
	 -0.057439   0.079411  -0.021071,
	 -0.036230   0.096325   0.000027,
	 -0.037836   0.096171   0.010588,
	 -0.040888   0.092900   0.017846,
	 -0.037836   0.096171  -0.010588,
	 -0.040888   0.092900  -0.017846,
	 -0.049705   0.089739   0.021676,
	 -0.063840   0.080494   0.005102,
	 -0.065837   0.078561   0.000003,
	 -0.063840   0.080494  -0.005102,
	 -0.061099   0.084396   0.021829,
	 -0.064269   0.076256   0.016388,
	 -0.065318   0.081662   0.009696,
	 -0.049705   0.089739  -0.021676,
	 -0.064269   0.076256  -0.016388,
	 -0.061099   0.084396  -0.021829,
	 -0.065318   0.081662  -0.009696,
	 -0.039752   0.106427   0.000030,
	 -0.040738   0.104748   0.010219,
	 -0.044114   0.094995   0.017400,
	 -0.040738   0.104748  -0.010219,
	 -0.044114   0.094995  -0.017400,
	 -0.051635   0.094109   0.019719,
	 -0.068424   0.088219   0.006542,
	 -0.067942   0.088434   0.000005,
	 -0.068424   0.088219  -0.006542,
	 -0.060070   0.090951   0.020660,
	 -0.066754   0.087219   0.019536,
	 -0.070481   0.088134   0.010005,
	 -0.051635   0.094109  -0.019719,
	 -0.066754   0.087219  -0.019536,
	 -0.060070   0.090951  -0.020660,
	 -0.070481   0.088134  -0.010005,
	 -0.040661   0.110737   0.000031,
	 -0.041130   0.110094   0.011304,
	 -0.046760   0.103180   0.018069,
	 -0.041130   0.110094  -0.011304,
	 -0.046760   0.103180  -0.018069,
	 -0.051701   0.101537   0.019809,
	 -0.071842   0.097253   0.006760,
	 -0.073971   0.096992   0.010461,
	 -0.071156   0.097627   0.000008,
	 -0.071842   0.097253  -0.006760,
	 -0.073971   0.096992  -0.010461,
	 -0.061896   0.097757   0.020809,
	 -0.067002   0.097071   0.021214,
	 -0.072670   0.084564   0.017599,
	 -0.070878   0.088536   0.021577,
	 -0.073437   0.094545   0.025800,
	 -0.078921   0.090787   0.003840,
	 -0.051701   0.101537  -0.019809,
	 -0.067002   0.097071  -0.021214,
	 -0.061896   0.097757  -0.020809,
	 -0.070878   0.088536  -0.021577,
	 -0.072670   0.084564  -0.017599,
	 -0.073437   0.094545  -0.025800,
	 -0.078921   0.090787  -0.003840,
	 -0.042411   0.115287   0.000032,
	 -0.043156   0.114736   0.011511,
	 -0.046183   0.107802   0.019126,
	 -0.043156   0.114736  -0.011511,
	 -0.046183   0.107802  -0.019126,
	 -0.052112   0.105044   0.021903,
	 -0.074985   0.104585   0.008618,
	 -0.075119   0.102524   0.011233,
	 -0.072999   0.104226   0.000009,
	 -0.074985   0.104585  -0.008618,
	 -0.075119   0.102524  -0.011233,
	 -0.061244   0.103005   0.022959,
	 -0.069580   0.101251   0.020500,
	 -0.076308   0.100276   0.020548,
	 -0.083369   0.093502   0.023816,
	 -0.080126   0.089743   0.017700,
	 -0.077221   0.084280   0.025475,
	 -0.073078   0.081089   0.010848,
	 -0.077681   0.094203   0.024502,
	 -0.079008   0.086170   0.022274,
	 -0.079711   0.084757   0.000004,
	 -0.073504   0.067494   0.005268,
	 -0.088316   0.090762   0.000005,
	 -0.083206   0.096238   0.007949,
	 -0.052112   0.105044  -0.021903,
	 -0.069580   0.101251  -0.020500,
	 -0.061244   0.103005  -0.022959,
	 -0.076308   0.100276  -0.020548,
	 -0.080126   0.089743  -0.017700,
	 -0.083369   0.093502  -0.023816,
	 -0.077221   0.084280  -0.025475,
	 -0.073078   0.081089  -0.010848,
	 -0.079008   0.086170  -0.022274,
	 -0.077681   0.094203  -0.024502,
	 -0.073504   0.067494  -0.005268,
	 -0.083206   0.096238  -0.007949,
	 -0.057718   0.110019   0.000010,
	 -0.048093   0.112730   0.019390,
	 -0.055110   0.110437   0.022961,
	 -0.048093   0.112730  -0.019390,
	 -0.055110   0.110437  -0.022961,
	 -0.063918   0.106248   0.023101,
	 -0.085210   0.106143   0.016478,
	 -0.076671   0.102263   0.014526,
	 -0.084048   0.103435   0.010364,
	 -0.072918   0.104757   0.017631,
	 -0.076671   0.102263  -0.014526,
	 -0.085210   0.106143  -0.016478,
	 -0.084048   0.103435  -0.010364,
	 -0.072918   0.104757  -0.017631,
	 -0.081846   0.099046   0.021870,
	 -0.081947   0.102616   0.018944,
	 -0.091174   0.103844   0.019845,
	 -0.089088   0.094739   0.014623,
	 -0.085274   0.099618   0.021910,
	 -0.087121   0.078763   0.013020,
	 -0.082955   0.081968   0.015939,
	 -0.095136   0.091884   0.017561,
	 -0.086929   0.092788   0.013058,
	 -0.074667   0.082353   0.012357,
	 -0.085450   0.074667   0.017556,
	 -0.081606   0.093164   0.027100,
	 -0.082447   0.090323   0.024714,
	 -0.085906   0.097248   0.025062,
	 -0.078378   0.073427   0.000003,
	 -0.072828   0.066544   0.006903,
	 -0.094027   0.076012   0.000004,
	 -0.089771   0.084881   0.005106,
	 -0.085569   0.085182   0.008549,
	 -0.085402   0.091486   0.010714,
	 -0.089771   0.084881  -0.005106,
	 -0.085569   0.085182  -0.008549,
	 -0.085402   0.091486  -0.010714,
	 -0.084458   0.096383   0.011691,
	 -0.063918   0.106248  -0.023101,
	 -0.081846   0.099046  -0.021870,
	 -0.081947   0.102616  -0.018944,
	 -0.082955   0.081968  -0.015939,
	 -0.087121   0.078763  -0.013020,
	 -0.089088   0.094739  -0.014623,
	 -0.095136   0.091884  -0.017561,
	 -0.086929   0.092788  -0.013058,
	 -0.091174   0.103844  -0.019844,
	 -0.085274   0.099618  -0.021910,
	 -0.074667   0.082353  -0.012357,
	 -0.085450   0.074667  -0.017556,
	 -0.082447   0.090323  -0.024714,
	 -0.081606   0.093164  -0.027100,
	 -0.085906   0.097248  -0.025062,
	 -0.072828   0.066544  -0.006903,
	 -0.084458   0.096383  -0.011691,
	 -0.095622   0.098616   0.016633,
	 -0.089411   0.098581   0.014339,
	 -0.095622   0.098616  -0.016633,
	 -0.089411   0.098581  -0.014339,
	 -0.093319   0.097754   0.021988,
	 -0.094310   0.094768   0.017086,
	 -0.088693   0.075005   0.010569,
	 -0.088442   0.069218   0.010001,
	 -0.082049   0.066941   0.017306,
	 -0.087723   0.080934   0.009115,
	 -0.073269   0.063817   0.013718,
	 -0.076570   0.068877   0.005489,
	 -0.080895   0.072987   0.000001,
	 -0.076570   0.068877  -0.005489,
	 -0.093253   0.079129   0.004312,
	 -0.097891   0.067560  -0.000016,
	 -0.091276   0.074669   0.004195,
	 -0.093253   0.079129  -0.004312,
	 -0.091276   0.074669  -0.004195,
	 -0.087723   0.080934  -0.009115,
	 -0.088442   0.069218  -0.010001,
	 -0.088693   0.075005  -0.010569,
	 -0.082049   0.066941  -0.017306,
	 -0.093319   0.097754  -0.021988,
	 -0.094310   0.094768  -0.017086,
	 -0.073269   0.063817  -0.013718,
	 -0.091113   0.069112   0.004376,
	 -0.089297   0.067302   0.005130,
	 -0.081174   0.067901   0.007867,
	 -0.085217   0.062442  -0.000000,
	 -0.081174   0.067901  -0.007867,
	 -0.089297   0.067302  -0.005130,
	 -0.103435   0.061457  -0.000021,
	 -0.091113   0.069112  -0.004376,
	 -0.094903   0.064006   0.004761,
	 -0.090606   0.062826   0.004779,
	 -0.092388   0.054788   0.003711,
	 -0.094101   0.053493  -0.000003,
	 -0.092388   0.054788  -0.003711,
	 -0.090606   0.062826  -0.004779,
	 -0.103675   0.057403   0.004814,
	 -0.104095   0.055643  -0.000023,
	 -0.094903   0.064006  -0.004761,
	 -0.103675   0.057403  -0.004814,
	 -0.100479   0.054442   0.005606,
	 -0.098727   0.052914  -0.000021,
	 -0.100479   0.054442  -0.005606,
     ]    } 
    coordIndex [ 
	     0,      1,      2, -1 
	     3,      1,      0, -1 
	     3,      0,      4, -1 
	     2,      5,      0, -1 
	     0,      5,      6, -1 
	     4,      0,      6, -1 
	     1,      7,      2, -1 
	     7,      1,      3, -1 
	     7,      8,      2, -1 
	     9,     10,      2, -1 
	     2,     11,      9, -1 
	    12,     11,      2, -1 
	     2,      8,     12, -1 
	     2,     13,      5, -1 
	     2,     14,     13, -1 
	     2,     10,     15, -1 
	    15,     16,      2, -1 
	     2,     16,     17, -1 
	    17,     14,      2, -1 
	    18,     19,      3, -1 
	    18,      3,      4, -1 
	    20,      3,     19, -1 
	     7,      3,     20, -1 
	     4,      6,     18, -1 
	     6,      5,     13, -1 
	     6,     21,     18, -1 
	    21,      6,     22, -1 
	    22,      6,     13, -1 
	     8,      7,     20, -1 
	     8,     20,     23, -1 
	    12,      8,     23, -1 
	    10,      9,     24, -1 
	    11,     24,      9, -1 
	    10,     24,     25, -1 
	    26,     15,     10, -1 
	    25,     26,     10, -1 
	    27,     28,     11, -1 
	    27,     11,     12, -1 
	    11,     28,     29, -1 
	    11,     29,     24, -1 
	    12,     23,     27, -1 
	    22,     13,     14, -1 
	    30,     22,     14, -1 
	    30,     14,     17, -1 
	    15,     26,     16, -1 
	    16,     31,     32, -1 
	    17,     16,     32, -1 
	    33,     31,     16, -1 
	    26,     33,     16, -1 
	    32,     30,     17, -1 
	    34,     19,     18, -1 
	    18,     21,     34, -1 
	    34,     35,     19, -1 
	    36,     19,     35, -1 
	    20,     19,     36, -1 
	    23,     20,     36, -1 
	    21,     37,     34, -1 
	    37,     21,     38, -1 
	    38,     21,     22, -1 
	    38,     22,     30, -1 
	    23,     36,     39, -1 
	    27,     23,     39, -1 
	    40,     25,     24, -1 
	    40,     24,     29, -1 
	    25,     40,     41, -1 
	    41,     42,     25, -1 
	    26,     25,     42, -1 
	    33,     26,     42, -1 
	    27,     39,     43, -1 
	    43,     28,     27, -1 
	    43,     44,     28, -1 
	    29,     28,     45, -1 
	    28,     44,     45, -1 
	    40,     29,     45, -1 
	    46,     38,     30, -1 
	    46,     30,     32, -1 
	    31,     47,     48, -1 
	    32,     31,     48, -1 
	    49,     31,     33, -1 
	    49,     47,     31, -1 
	    48,     46,     32, -1 
	    49,     33,     42, -1 
	    50,     35,     34, -1 
	    34,     37,     50, -1 
	    50,     51,     35, -1 
	    52,     35,     51, -1 
	    36,     35,     52, -1 
	    39,     36,     52, -1 
	    37,     53,     50, -1 
	    53,     37,     54, -1 
	    54,     37,     38, -1 
	    54,     38,     46, -1 
	    39,     52,     55, -1 
	    43,     39,     55, -1 
	    41,     40,     56, -1 
	    40,     57,     56, -1 
	    40,     45,     57, -1 
	    41,     56,     58, -1 
	    59,     42,     41, -1 
	    58,     59,     41, -1 
	    59,     60,     42, -1 
	    60,     49,     42, -1 
	    43,     55,     61, -1 
	    61,     44,     43, -1 
	    61,     62,     44, -1 
	    63,     44,     64, -1 
	    65,     64,     44, -1 
	    65,     44,     62, -1 
	    44,     63,     45, -1 
	    57,     45,     66, -1 
	    66,     45,     63, -1 
	    67,     54,     46, -1 
	    67,     46,     48, -1 
	    47,     68,     69, -1 
	    48,     47,     69, -1 
	    70,     47,     71, -1 
	    47,     70,     72, -1 
	    68,     47,     72, -1 
	    49,     71,     47, -1 
	    69,     67,     48, -1 
	    73,     49,     60, -1 
	    71,     49,     73, -1 
	    74,     51,     50, -1 
	    50,     53,     74, -1 
	    74,     75,     51, -1 
	    76,     51,     75, -1 
	    52,     51,     76, -1 
	    55,     52,     76, -1 
	    53,     77,     74, -1 
	    77,     53,     78, -1 
	    78,     53,     54, -1 
	    78,     54,     67, -1 
	    55,     76,     79, -1 
	    61,     55,     79, -1 
	    58,     56,     80, -1 
	    56,     57,     81, -1 
	    56,     81,     80, -1 
	    66,     81,     57, -1 
	    58,     80,     82, -1 
	    83,     59,     58, -1 
	    82,     83,     58, -1 
	    84,     60,     59, -1 
	    83,     84,     59, -1 
	    60,     84,     73, -1 
	    61,     79,     85, -1 
	    85,     62,     61, -1 
	    85,     86,     62, -1 
	    87,     65,     62, -1 
	    87,     62,     86, -1 
	    88,     89,     63, -1 
	    88,     63,     90, -1 
	    63,     64,     65, -1 
	    63,     65,     90, -1 
	    63,     89,     91, -1 
	    63,     91,     66, -1 
	    65,     92,     93, -1 
	    65,     93,     90, -1 
	    87,     92,     65, -1 
	    94,     66,     95, -1 
	    66,     94,     96, -1 
	    66,     96,     97, -1 
	    91,     95,     66, -1 
	    66,     97,     81, -1 
	    98,     78,     67, -1 
	    98,     67,     69, -1 
	    68,     99,    100, -1 
	    69,     68,    100, -1 
	    68,     72,    101, -1 
	    99,     68,    101, -1 
	   100,     98,     69, -1 
	    72,     70,     71, -1 
	    71,    102,    103, -1 
	   104,     71,    103, -1 
	   104,     72,     71, -1 
	   105,    102,     71, -1 
	    73,    105,     71, -1 
	   106,    107,     72, -1 
	   104,    106,     72, -1 
	    72,    107,    101, -1 
	   108,     73,     94, -1 
	    96,     94,     73, -1 
	   109,     96,     73, -1 
	    73,    108,    105, -1 
	    84,    109,     73, -1 
	    75,     74,    110, -1 
	   110,     74,     77, -1 
	    76,     75,    111, -1 
	   111,     75,    110, -1 
	   112,     79,     76, -1 
	   112,     76,    111, -1 
	   113,     77,     78, -1 
	   110,     77,    113, -1 
	    78,     98,    114, -1 
	   113,     78,    114, -1 
	   115,     85,     79, -1 
	   115,     79,    112, -1 
	   116,    117,     80, -1 
	    80,    118,    116, -1 
	    80,     97,    118, -1 
	    97,     80,     81, -1 
	    82,     80,    110, -1 
	    80,    119,    110, -1 
	   117,    119,     80, -1 
	   110,     83,     82, -1 
	    83,    120,    121, -1 
	   121,    122,     83, -1 
	   122,    109,     83, -1 
	    84,     83,    109, -1 
	   110,    123,     83, -1 
	    83,    123,    120, -1 
	   115,     86,     85, -1 
	   119,     87,     86, -1 
	   115,    119,     86, -1 
	   119,    117,     87, -1 
	    87,    124,     92, -1 
	   124,     87,    125, -1 
	   125,     87,    117, -1 
	   126,    127,     88, -1 
	   127,     89,     88, -1 
	    88,     90,    124, -1 
	   128,     88,    124, -1 
	   126,     88,    128, -1 
	   129,    130,     89, -1 
	   127,    131,     89, -1 
	    89,    130,     91, -1 
	    89,    132,    129, -1 
	    89,    131,    132, -1 
	    90,     93,    124, -1 
	    95,     91,    133, -1 
	   134,    133,     91, -1 
	   134,     91,    130, -1 
	   124,    135,     92, -1 
	   135,     93,     92, -1 
	   135,    136,     93, -1 
	   136,    137,     93, -1 
	    93,    137,    124, -1 
	    94,     95,    138, -1 
	   138,    108,     94, -1 
	   138,     95,    139, -1 
	    95,    133,    139, -1 
	   140,    141,     96, -1 
	    96,    141,    142, -1 
	    96,    142,    143, -1 
	   143,     97,     96, -1 
	    96,    144,    140, -1 
	   145,    144,     96, -1 
	   146,    145,     96, -1 
	    96,    109,    146, -1 
	   143,    147,     97, -1 
	    97,    147,    118, -1 
	    98,    100,    148, -1 
	   114,     98,    148, -1 
	   100,     99,    148, -1 
	    99,    101,    123, -1 
	    99,    123,    148, -1 
	   101,    120,    123, -1 
	   107,    149,    101, -1 
	   150,    101,    149, -1 
	   120,    101,    150, -1 
	   102,    151,    152, -1 
	   103,    102,    153, -1 
	   102,    154,    153, -1 
	   105,    151,    102, -1 
	   152,    155,    102, -1 
	   155,    154,    102, -1 
	   103,    153,    156, -1 
	   149,    104,    103, -1 
	   149,    103,    157, -1 
	   157,    103,    156, -1 
	   149,    106,    104, -1 
	   158,    105,    108, -1 
	   105,    158,    159, -1 
	   151,    105,    159, -1 
	   106,    160,    161, -1 
	   107,    106,    161, -1 
	   106,    162,    160, -1 
	   149,    162,    106, -1 
	   107,    161,    149, -1 
	   163,    108,    138, -1 
	   163,    158,    108, -1 
	   109,    164,    146, -1 
	   122,    164,    109, -1 
	   112,    111,    110, -1 
	   115,    112,    110, -1 
	   119,    115,    110, -1 
	   110,    113,    114, -1 
	   110,    114,    148, -1 
	   110,    148,    123, -1 
	   117,    116,    125, -1 
	   126,    125,    116, -1 
	   165,    126,    116, -1 
	   165,    116,    166, -1 
	   116,    147,    166, -1 
	   147,    116,    118, -1 
	   150,    121,    120, -1 
	   121,    150,    156, -1 
	   121,    156,    167, -1 
	   168,    121,    167, -1 
	   168,    164,    121, -1 
	   122,    121,    164, -1 
	   124,    137,    135, -1 
	   124,    125,    128, -1 
	   126,    128,    125, -1 
	   126,    169,    127, -1 
	   169,    126,    165, -1 
	   127,    169,    170, -1 
	   131,    127,    170, -1 
	   134,    130,    129, -1 
	   129,    171,    172, -1 
	   129,    172,    173, -1 
	   129,    173,    134, -1 
	   171,    129,    174, -1 
	   132,    174,    129, -1 
	   131,    170,    165, -1 
	   131,    165,    166, -1 
	   147,    132,    131, -1 
	   147,    131,    166, -1 
	   143,    132,    147, -1 
	   174,    132,    142, -1 
	   142,    132,    143, -1 
	   134,    175,    133, -1 
	   133,    175,    139, -1 
	   134,    173,    175, -1 
	   135,    137,    136, -1 
	   138,    139,    176, -1 
	   138,    176,    177, -1 
	   178,    163,    138, -1 
	   177,    178,    138, -1 
	   139,    175,    176, -1 
	   179,    141,    140, -1 
	   140,    180,    181, -1 
	   140,    181,    179, -1 
	   140,    144,    182, -1 
	   183,    180,    140, -1 
	   182,    183,    140, -1 
	   179,    142,    141, -1 
	   179,    174,    142, -1 
	   144,    145,    182, -1 
	   145,    184,    182, -1 
	   145,    155,    184, -1 
	   146,    155,    145, -1 
	   164,    155,    146, -1 
	   161,    162,    149, -1 
	   157,    150,    149, -1 
	   150,    157,    156, -1 
	   152,    151,    159, -1 
	   185,    186,    152, -1 
	   187,    185,    152, -1 
	   159,    187,    152, -1 
	   184,    152,    186, -1 
	   152,    184,    155, -1 
	   153,    188,    156, -1 
	   189,    188,    153, -1 
	   189,    153,    154, -1 
	   167,    189,    154, -1 
	   168,    167,    154, -1 
	   154,    155,    164, -1 
	   168,    154,    164, -1 
	   167,    156,    188, -1 
	   158,    190,    159, -1 
	   163,    190,    158, -1 
	   190,    187,    159, -1 
	   160,    162,    161, -1 
	   178,    190,    163, -1 
	   169,    165,    170, -1 
	   189,    167,    188, -1 
	   181,    171,    174, -1 
	   191,    172,    171, -1 
	   191,    171,    181, -1 
	   192,    193,    172, -1 
	   192,    172,    191, -1 
	   193,    173,    172, -1 
	   193,    175,    173, -1 
	   181,    174,    179, -1 
	   176,    175,    193, -1 
	   176,    193,    192, -1 
	   176,    192,    194, -1 
	   177,    176,    194, -1 
	   194,    178,    177, -1 
	   195,    190,    178, -1 
	   196,    195,    178, -1 
	   194,    196,    178, -1 
	   180,    197,    191, -1 
	   180,    191,    181, -1 
	   198,    197,    180, -1 
	   183,    198,    180, -1 
	   182,    184,    183, -1 
	   184,    186,    183, -1 
	   183,    186,    198, -1 
	   186,    185,    198, -1 
	   185,    195,    196, -1 
	   198,    185,    196, -1 
	   185,    187,    195, -1 
	   187,    190,    195, -1 
	   197,    199,    191, -1 
	   200,    192,    191, -1 
	   200,    191,    199, -1 
	   201,    194,    192, -1 
	   201,    192,    200, -1 
	   194,    201,    202, -1 
	   202,    203,    194, -1 
	   196,    194,    203, -1 
	   198,    196,    204, -1 
	   204,    196,    203, -1 
	   197,    205,    199, -1 
	   206,    205,    197, -1 
	   207,    208,    197, -1 
	   198,    207,    197, -1 
	   197,    208,    206, -1 
	   207,    198,    204, -1 
	   201,    200,    199, -1 
	   201,    199,    209, -1 
	   205,    209,    199, -1 
	   202,    201,    209, -1 
	   202,    209,    210, -1 
	   211,    203,    202, -1 
	   210,    211,    202, -1 
	   207,    204,    203, -1 
	   211,    207,    203, -1 
	   210,    209,    205, -1 
	   210,    205,    206, -1 
	   206,    208,    210, -1 
	   207,    211,    208, -1 
	   208,    211,    210, -1 
    ] 
   colorPerVertex FALSE 
    colorIndex [ 
	  1, 
	  1, 
	  1, 
	  1, 
	  1, 
	  1, 
	  1, 
	  1, 
	  1, 
	  1, 
	  1, 
	  1, 
	  1, 
	  1, 
	  1, 
	  1, 
	  1, 
	  1, 
	  1, 
	  1, 
	  1, 
	  1, 
	  1, 
	  1, 
	  1, 
	  1, 
	  1, 
	  1, 
	  1, 
	  1, 
	  1, 
	  1, 
	  1, 
	  1, 
	  1, 
	  1, 
	  1, 
	  1, 
	  1, 
	  1, 
	  1, 
	  1, 
	  1, 
	  1, 
	  1, 
	  1, 
	  1, 
	  1, 
	  1, 
	  1, 
	  1, 
	  1, 
	  1, 
	  1, 
	  1, 
	  1, 
	  1, 
	  1, 
	  1, 
	  1, 
	  1, 
	  1, 
	  1, 
	  1, 
	  1, 
	  1, 
	  1, 
	  1, 
	  1, 
	  1, 
	  1, 
	  1, 
	  1, 
	  1, 
	  1, 
	  1, 
	  1, 
	  1, 
	  1, 
	  1, 
	  1, 
	  1, 
	  1, 
	  1, 
	  1, 
	  1, 
	  1, 
	  1, 
	  1, 
	  1, 
	  1, 
	  1, 
	  1, 
	  1, 
	  1, 
	  1, 
	  1, 
	  1, 
	  1, 
	  1, 
	  1, 
	  1, 
	  1, 
	  1, 
	  1, 
	  1, 
	  1, 
	  1, 
	  1, 
	  1, 
	  1, 
	  1, 
	  1, 
	  1, 
	  1, 
	  1, 
	  1, 
	  1, 
	  1, 
	  1, 
	  1, 
	  1, 
	  1, 
	  1, 
	  1, 
	  1, 
	  1, 
	  1, 
	  1, 
	  1, 
	  1, 
	  1, 
	  1, 
	  1, 
	  1, 
	  1, 
	  1, 
	  1, 
	  1, 
	  1, 
	  1, 
	  1, 
	  1, 
	  1, 
	  1, 
	  1, 
	  1, 
	  1, 
	  1, 
	  1, 
	  1, 
	  1, 
	  1, 
	  1, 
	  1, 
	  1, 
	  1, 
	  1, 
	  1, 
	  1, 
	  1, 
	  1, 
	  1, 
	  1, 
	  1, 
	  1, 
	  1, 
	  1, 
	  1, 
	  1, 
	  1, 
	  1, 
	  1, 
	  1, 
	  1, 
	  1, 
	  1, 
	  1, 
	  1, 
	  1, 
	  1, 
	  1, 
	  1, 
	  1, 
	  1, 
	  1, 
	  1, 
	  1, 
	  1, 
	  1, 
	  1, 
	  1, 
	  1, 
	  1, 
	  1, 
	  1, 
	  1, 
	  1, 
	  1, 
	  1, 
	  1, 
	  1, 
	  1, 
	  1, 
	  1, 
	  1, 
	  1, 
	  1, 
	  1, 
	  1, 
	  1, 
	  1, 
    ] 
normal Normal { 
vector [ 
	  0.927432  -0.373991   0.000364,
	  0.808456  -0.552860   0.201854,
	  0.438307  -0.898825   0.000017,
	  0.890661   0.327813   0.315059,
	  0.976085   0.217390   0.000238,
	  0.808549  -0.552818  -0.201595,
	  0.890733   0.327916  -0.314747,
	  0.742699  -0.438897   0.505734,
	  0.471358  -0.466135   0.748692,
	 -0.175688  -0.984271  -0.018565,
	 -0.207802  -0.978171   0.000062,
	 -0.150093  -0.982397   0.111213,
	  0.114732  -0.686511   0.718010,
	  0.742698  -0.438904  -0.505730,
	  0.471356  -0.466136  -0.748693,
	 -0.175684  -0.984272   0.018544,
	 -0.150087  -0.982398  -0.111211,
	  0.114737  -0.686511  -0.718010,
	  0.803930   0.594724   0.000195,
	  0.721500   0.579563   0.378873,
	  0.501903   0.387129   0.773449,
	  0.721597   0.579656  -0.378545,
	  0.501900   0.387130  -0.773451,
	  0.129989   0.210871   0.968832,
	 -0.696239  -0.707808   0.119412,
	 -0.767924  -0.640541   0.000136,
	 -0.696254  -0.707818  -0.119265,
	 -0.253214  -0.122630   0.959607,
	 -0.647929  -0.676147   0.350733,
	 -0.670134  -0.660435  -0.338741,
	  0.129988   0.210870  -0.968833,
	 -0.647929  -0.676147  -0.350733,
	 -0.253209  -0.122632  -0.959607,
	 -0.670134  -0.660435   0.338741,
	  0.957724   0.287689   0.000384,
	  0.904667   0.173041   0.389402,
	  0.457146   0.389666   0.799486,
	  0.904780   0.173080  -0.389122,
	  0.457145   0.389662  -0.799488,
	  0.145853   0.170145   0.974565,
	 -0.890733  -0.411772  -0.192453,
	 -0.954712  -0.297532  -0.000081,
	 -0.890731  -0.411769   0.192472,
	 -0.157899   0.003977   0.987447,
	  0.081890  -0.486865   0.869630,
	 -0.460833  -0.712161  -0.529585,
	  0.145856   0.170140  -0.974566,
	  0.081892  -0.486864  -0.869631,
	 -0.157903   0.003981  -0.987447,
	 -0.460833  -0.712161   0.529585,
	  0.977402   0.211390   0.000216,
	  0.932735   0.149876   0.327937,
	  0.605988  -0.058097   0.793349,
	  0.932786   0.149904  -0.327779,
	  0.605986  -0.058092  -0.793351,
	  0.298955  -0.194572   0.934220,
	 -0.914482  -0.300309  -0.271177,
	 -0.381997  -0.057890  -0.922349,
	 -0.946284  -0.323337  -0.000160,
	 -0.914502  -0.300340   0.271075,
	 -0.381997  -0.057890   0.922349,
	  0.108783  -0.251937   0.961610,
	  0.136833   0.035674   0.989952,
	  0.052694  -0.975084   0.215486,
	  0.039612  -0.629558   0.775943,
	  0.055462  -0.036301   0.997801,
	  0.612741   0.283698  -0.737607,
	  0.298953  -0.194567  -0.934222,
	  0.136840   0.035672  -0.989951,
	  0.108785  -0.251939  -0.961610,
	  0.039612  -0.629558  -0.775943,
	  0.052694  -0.975084  -0.215486,
	  0.055462  -0.036301  -0.997801,
	  0.612955   0.283810   0.737386,
	  0.666965   0.745089   0.000192,
	  0.497718   0.792468   0.352521,
	  0.632348  -0.017689   0.774483,
	  0.497754   0.792509  -0.352377,
	  0.632349  -0.017687  -0.774482,
	  0.273819  -0.227000   0.934609,
	 -0.676429   0.622572  -0.393506,
	 -0.189895  -0.085153  -0.978105,
	 -0.889439   0.457055  -0.000237,
	 -0.676497   0.622597   0.393351,
	 -0.189895  -0.085153   0.978105,
	 -0.018630  -0.203534   0.978891,
	 -0.241312   0.143016   0.959851,
	 -0.059625   0.661904   0.747213,
	 -0.560682  -0.392269   0.729220,
	 -0.451687  -0.557977   0.696161,
	  0.334498  -0.110059   0.935948,
	  0.794184  -0.238245   0.559027,
	  0.097261   0.288713   0.952463,
	 -0.514760  -0.563377   0.646241,
	  0.936653   0.350258  -0.000359,
	  0.938419  -0.112396  -0.326705,
	 -0.712694   0.701475   0.000015,
	 -0.492443   0.393269  -0.776427,
	  0.273821  -0.227001  -0.934608,
	 -0.241312   0.143016  -0.959851,
	 -0.018625  -0.203541  -0.978889,
	 -0.059625   0.661904  -0.747213,
	 -0.451687  -0.557977  -0.696161,
	 -0.560685  -0.392268  -0.729218,
	  0.334498  -0.110059  -0.935948,
	  0.794183  -0.238246  -0.559028,
	 -0.514755  -0.563372  -0.646251,
	  0.097255   0.288711  -0.952464,
	  0.938515  -0.112416   0.326425,
	 -0.492370   0.393324   0.776446,
	 -0.321303   0.946977   0.000001,
	  0.203466   0.816840   0.539790,
	  0.052701   0.548337   0.834595,
	  0.203462   0.816843  -0.539789,
	  0.052704   0.548341  -0.834592,
	 -0.276624   0.387224   0.879509,
	 -0.251035   0.939881  -0.231527,
	 -0.022350   0.925727   0.377532,
	 -0.725846   0.367963  -0.581163,
	 -0.457315   0.787513   0.413141,
	 -0.022350   0.925727  -0.377532,
	 -0.251038   0.939881   0.231527,
	 -0.725845   0.367964   0.581164,
	 -0.457303   0.787526  -0.413130,
	  0.230584   0.620327   0.749683,
	  0.210895   0.722691   0.658211,
	 -0.269191   0.509256   0.817432,
	  0.066716  -0.422136   0.904074,
	  0.045819   0.461228   0.886098,
	 -0.847005   0.006755   0.531542,
	 -0.135633   0.033230   0.990202,
	 -0.856044  -0.285493  -0.430909,
	 -0.891177  -0.025192  -0.452957,
	  0.940665   0.118619   0.317928,
	 -0.342344   0.189013   0.920366,
	  0.088817   0.004752   0.996037,
	 -0.703143  -0.578082   0.414018,
	 -0.989737  -0.135200   0.046277,
	 -0.043923  -0.999035  -0.000247,
	  0.223975  -0.840001  -0.494199,
	 -0.968874   0.247553   0.000190,
	 -0.798781   0.496186   0.340219,
	 -0.905332   0.377191   0.195192,
	 -0.933958   0.261008  -0.244124,
	 -0.798712   0.496343  -0.340152,
	 -0.905298   0.377344  -0.195056,
	 -0.933941   0.260995   0.244203,
	 -0.755721   0.142274  -0.639253,
	 -0.276621   0.387235  -0.879505,
	  0.230584   0.620325  -0.749685,
	  0.210893   0.722691  -0.658211,
	 -0.135633   0.033230  -0.990202,
	 -0.847005   0.006755  -0.531542,
	  0.066717  -0.422134  -0.904075,
	 -0.856044  -0.285506   0.430901,
	 -0.891177  -0.025200   0.452956,
	 -0.269198   0.509258  -0.817428,
	  0.045811   0.461228  -0.886098,
	  0.940663   0.118606  -0.317941,
	 -0.342344   0.189013  -0.920366,
	 -0.703135  -0.578080  -0.414035,
	  0.088821   0.004752  -0.996036,
	 -0.989736  -0.135203  -0.046290,
	  0.223893  -0.840120   0.494035,
	 -0.755722   0.142270   0.639252,
	 -0.898437   0.411635  -0.152864,
	 -0.367528   0.168991  -0.914530,
	 -0.898436   0.411636   0.152867,
	 -0.367534   0.168996   0.914527,
	 -0.314942  -0.392558   0.864124,
	 -0.062736  -0.330385   0.941759,
	 -0.905380   0.053453   0.421225,
	 -0.689615  -0.553843   0.466572,
	 -0.585135  -0.705991   0.398992,
	 -0.939771   0.172875   0.294863,
	  0.357339  -0.866683   0.348094,
	  0.040666  -0.917206  -0.396332,
	  0.611764  -0.791040  -0.000223,
	  0.040504  -0.917310   0.396109,
	 -0.828685   0.134493   0.543316,
	 -0.907609   0.419816  -0.000818,
	 -0.803164  -0.015493   0.595556,
	 -0.828746   0.134466  -0.543230,
	 -0.802944  -0.015025  -0.595865,
	 -0.939770   0.172878  -0.294865,
	 -0.689615  -0.553843  -0.466572,
	 -0.905377   0.053450  -0.421230,
	 -0.585135  -0.705991  -0.398992,
	 -0.314941  -0.392553  -0.864126,
	 -0.062736  -0.330385  -0.941759,
	  0.357337  -0.866685  -0.348092,
	 -0.647471   0.053999   0.760175,
	  0.052925  -0.696785   0.715324,
	 -0.126377  -0.985591  -0.112422,
	  0.733863  -0.679298  -0.000027,
	 -0.126377  -0.985591   0.112422,
	  0.052908  -0.696765  -0.715345,
	 -0.829756   0.558125  -0.001416,
	 -0.646394   0.053666  -0.761114,
	 -0.173674   0.215744   0.960881,
	  0.056880  -0.070360   0.995899,
	  0.458466  -0.472066   0.752969,
	  0.337441  -0.941347  -0.000522,
	  0.458440  -0.472020  -0.753014,
	  0.056868  -0.070359  -0.995899,
	 -0.803840  -0.189251   0.563937,
	 -0.890553  -0.454878  -0.001023,
	 -0.172846   0.214955  -0.961207,
	 -0.802719  -0.189371  -0.565492,
	 -0.091774  -0.706188   0.702052,
	 -0.364043  -0.931381  -0.000992,
	 -0.091120  -0.705654  -0.702673,
     ]    } 
normalIndex      [ 
	     0,      1,      2, -1 
	     3,      1,      0, -1 
	     3,      0,      4, -1 
	     2,      5,      0, -1 
	     0,      5,      6, -1 
	     4,      0,      6, -1 
	     1,      7,      2, -1 
	     7,      1,      3, -1 
	     7,      8,      2, -1 
	     9,     10,      2, -1 
	     2,     11,      9, -1 
	    12,     11,      2, -1 
	     2,      8,     12, -1 
	     2,     13,      5, -1 
	     2,     14,     13, -1 
	     2,     10,     15, -1 
	    15,     16,      2, -1 
	     2,     16,     17, -1 
	    17,     14,      2, -1 
	    18,     19,      3, -1 
	    18,      3,      4, -1 
	    20,      3,     19, -1 
	     7,      3,     20, -1 
	     4,      6,     18, -1 
	     6,      5,     13, -1 
	     6,     21,     18, -1 
	    21,      6,     22, -1 
	    22,      6,     13, -1 
	     8,      7,     20, -1 
	     8,     20,     23, -1 
	    12,      8,     23, -1 
	    10,      9,     24, -1 
	    11,     24,      9, -1 
	    10,     24,     25, -1 
	    26,     15,     10, -1 
	    25,     26,     10, -1 
	    27,     28,     11, -1 
	    27,     11,     12, -1 
	    11,     28,     29, -1 
	    11,     29,     24, -1 
	    12,     23,     27, -1 
	    22,     13,     14, -1 
	    30,     22,     14, -1 
	    30,     14,     17, -1 
	    15,     26,     16, -1 
	    16,     31,     32, -1 
	    17,     16,     32, -1 
	    33,     31,     16, -1 
	    26,     33,     16, -1 
	    32,     30,     17, -1 
	    34,     19,     18, -1 
	    18,     21,     34, -1 
	    34,     35,     19, -1 
	    36,     19,     35, -1 
	    20,     19,     36, -1 
	    23,     20,     36, -1 
	    21,     37,     34, -1 
	    37,     21,     38, -1 
	    38,     21,     22, -1 
	    38,     22,     30, -1 
	    23,     36,     39, -1 
	    27,     23,     39, -1 
	    40,     25,     24, -1 
	    40,     24,     29, -1 
	    25,     40,     41, -1 
	    41,     42,     25, -1 
	    26,     25,     42, -1 
	    33,     26,     42, -1 
	    27,     39,     43, -1 
	    43,     28,     27, -1 
	    43,     44,     28, -1 
	    29,     28,     45, -1 
	    28,     44,     45, -1 
	    40,     29,     45, -1 
	    46,     38,     30, -1 
	    46,     30,     32, -1 
	    31,     47,     48, -1 
	    32,     31,     48, -1 
	    49,     31,     33, -1 
	    49,     47,     31, -1 
	    48,     46,     32, -1 
	    49,     33,     42, -1 
	    50,     35,     34, -1 
	    34,     37,     50, -1 
	    50,     51,     35, -1 
	    52,     35,     51, -1 
	    36,     35,     52, -1 
	    39,     36,     52, -1 
	    37,     53,     50, -1 
	    53,     37,     54, -1 
	    54,     37,     38, -1 
	    54,     38,     46, -1 
	    39,     52,     55, -1 
	    43,     39,     55, -1 
	    41,     40,     56, -1 
	    40,     57,     56, -1 
	    40,     45,     57, -1 
	    41,     56,     58, -1 
	    59,     42,     41, -1 
	    58,     59,     41, -1 
	    59,     60,     42, -1 
	    60,     49,     42, -1 
	    43,     55,     61, -1 
	    61,     44,     43, -1 
	    61,     62,     44, -1 
	    63,     44,     64, -1 
	    65,     64,     44, -1 
	    65,     44,     62, -1 
	    44,     63,     45, -1 
	    57,     45,     66, -1 
	    66,     45,     63, -1 
	    67,     54,     46, -1 
	    67,     46,     48, -1 
	    47,     68,     69, -1 
	    48,     47,     69, -1 
	    70,     47,     71, -1 
	    47,     70,     72, -1 
	    68,     47,     72, -1 
	    49,     71,     47, -1 
	    69,     67,     48, -1 
	    73,     49,     60, -1 
	    71,     49,     73, -1 
	    74,     51,     50, -1 
	    50,     53,     74, -1 
	    74,     75,     51, -1 
	    76,     51,     75, -1 
	    52,     51,     76, -1 
	    55,     52,     76, -1 
	    53,     77,     74, -1 
	    77,     53,     78, -1 
	    78,     53,     54, -1 
	    78,     54,     67, -1 
	    55,     76,     79, -1 
	    61,     55,     79, -1 
	    58,     56,     80, -1 
	    56,     57,     81, -1 
	    56,     81,     80, -1 
	    66,     81,     57, -1 
	    58,     80,     82, -1 
	    83,     59,     58, -1 
	    82,     83,     58, -1 
	    84,     60,     59, -1 
	    83,     84,     59, -1 
	    60,     84,     73, -1 
	    61,     79,     85, -1 
	    85,     62,     61, -1 
	    85,     86,     62, -1 
	    87,     65,     62, -1 
	    87,     62,     86, -1 
	    88,     89,     63, -1 
	    88,     63,     90, -1 
	    63,     64,     65, -1 
	    63,     65,     90, -1 
	    63,     89,     91, -1 
	    63,     91,     66, -1 
	    65,     92,     93, -1 
	    65,     93,     90, -1 
	    87,     92,     65, -1 
	    94,     66,     95, -1 
	    66,     94,     96, -1 
	    66,     96,     97, -1 
	    91,     95,     66, -1 
	    66,     97,     81, -1 
	    98,     78,     67, -1 
	    98,     67,     69, -1 
	    68,     99,    100, -1 
	    69,     68,    100, -1 
	    68,     72,    101, -1 
	    99,     68,    101, -1 
	   100,     98,     69, -1 
	    72,     70,     71, -1 
	    71,    102,    103, -1 
	   104,     71,    103, -1 
	   104,     72,     71, -1 
	   105,    102,     71, -1 
	    73,    105,     71, -1 
	   106,    107,     72, -1 
	   104,    106,     72, -1 
	    72,    107,    101, -1 
	   108,     73,     94, -1 
	    96,     94,     73, -1 
	   109,     96,     73, -1 
	    73,    108,    105, -1 
	    84,    109,     73, -1 
	    75,     74,    110, -1 
	   110,     74,     77, -1 
	    76,     75,    111, -1 
	   111,     75,    110, -1 
	   112,     79,     76, -1 
	   112,     76,    111, -1 
	   113,     77,     78, -1 
	   110,     77,    113, -1 
	    78,     98,    114, -1 
	   113,     78,    114, -1 
	   115,     85,     79, -1 
	   115,     79,    112, -1 
	   116,    117,     80, -1 
	    80,    118,    116, -1 
	    80,     97,    118, -1 
	    97,     80,     81, -1 
	    82,     80,    110, -1 
	    80,    119,    110, -1 
	   117,    119,     80, -1 
	   110,     83,     82, -1 
	    83,    120,    121, -1 
	   121,    122,     83, -1 
	   122,    109,     83, -1 
	    84,     83,    109, -1 
	   110,    123,     83, -1 
	    83,    123,    120, -1 
	   115,     86,     85, -1 
	   119,     87,     86, -1 
	   115,    119,     86, -1 
	   119,    117,     87, -1 
	    87,    124,     92, -1 
	   124,     87,    125, -1 
	   125,     87,    117, -1 
	   126,    127,     88, -1 
	   127,     89,     88, -1 
	    88,     90,    124, -1 
	   128,     88,    124, -1 
	   126,     88,    128, -1 
	   129,    130,     89, -1 
	   127,    131,     89, -1 
	    89,    130,     91, -1 
	    89,    132,    129, -1 
	    89,    131,    132, -1 
	    90,     93,    124, -1 
	    95,     91,    133, -1 
	   134,    133,     91, -1 
	   134,     91,    130, -1 
	   124,    135,     92, -1 
	   135,     93,     92, -1 
	   135,    136,     93, -1 
	   136,    137,     93, -1 
	    93,    137,    124, -1 
	    94,     95,    138, -1 
	   138,    108,     94, -1 
	   138,     95,    139, -1 
	    95,    133,    139, -1 
	   140,    141,     96, -1 
	    96,    141,    142, -1 
	    96,    142,    143, -1 
	   143,     97,     96, -1 
	    96,    144,    140, -1 
	   145,    144,     96, -1 
	   146,    145,     96, -1 
	    96,    109,    146, -1 
	   143,    147,     97, -1 
	    97,    147,    118, -1 
	    98,    100,    148, -1 
	   114,     98,    148, -1 
	   100,     99,    148, -1 
	    99,    101,    123, -1 
	    99,    123,    148, -1 
	   101,    120,    123, -1 
	   107,    149,    101, -1 
	   150,    101,    149, -1 
	   120,    101,    150, -1 
	   102,    151,    152, -1 
	   103,    102,    153, -1 
	   102,    154,    153, -1 
	   105,    151,    102, -1 
	   152,    155,    102, -1 
	   155,    154,    102, -1 
	   103,    153,    156, -1 
	   149,    104,    103, -1 
	   149,    103,    157, -1 
	   157,    103,    156, -1 
	   149,    106,    104, -1 
	   158,    105,    108, -1 
	   105,    158,    159, -1 
	   151,    105,    159, -1 
	   106,    160,    161, -1 
	   107,    106,    161, -1 
	   106,    162,    160, -1 
	   149,    162,    106, -1 
	   107,    161,    149, -1 
	   163,    108,    138, -1 
	   163,    158,    108, -1 
	   109,    164,    146, -1 
	   122,    164,    109, -1 
	   112,    111,    110, -1 
	   115,    112,    110, -1 
	   119,    115,    110, -1 
	   110,    113,    114, -1 
	   110,    114,    148, -1 
	   110,    148,    123, -1 
	   117,    116,    125, -1 
	   126,    125,    116, -1 
	   165,    126,    116, -1 
	   165,    116,    166, -1 
	   116,    147,    166, -1 
	   147,    116,    118, -1 
	   150,    121,    120, -1 
	   121,    150,    156, -1 
	   121,    156,    167, -1 
	   168,    121,    167, -1 
	   168,    164,    121, -1 
	   122,    121,    164, -1 
	   124,    137,    135, -1 
	   124,    125,    128, -1 
	   126,    128,    125, -1 
	   126,    169,    127, -1 
	   169,    126,    165, -1 
	   127,    169,    170, -1 
	   131,    127,    170, -1 
	   134,    130,    129, -1 
	   129,    171,    172, -1 
	   129,    172,    173, -1 
	   129,    173,    134, -1 
	   171,    129,    174, -1 
	   132,    174,    129, -1 
	   131,    170,    165, -1 
	   131,    165,    166, -1 
	   147,    132,    131, -1 
	   147,    131,    166, -1 
	   143,    132,    147, -1 
	   174,    132,    142, -1 
	   142,    132,    143, -1 
	   134,    175,    133, -1 
	   133,    175,    139, -1 
	   134,    173,    175, -1 
	   135,    137,    136, -1 
	   138,    139,    176, -1 
	   138,    176,    177, -1 
	   178,    163,    138, -1 
	   177,    178,    138, -1 
	   139,    175,    176, -1 
	   179,    141,    140, -1 
	   140,    180,    181, -1 
	   140,    181,    179, -1 
	   140,    144,    182, -1 
	   183,    180,    140, -1 
	   182,    183,    140, -1 
	   179,    142,    141, -1 
	   179,    174,    142, -1 
	   144,    145,    182, -1 
	   145,    184,    182, -1 
	   145,    155,    184, -1 
	   146,    155,    145, -1 
	   164,    155,    146, -1 
	   161,    162,    149, -1 
	   157,    150,    149, -1 
	   150,    157,    156, -1 
	   152,    151,    159, -1 
	   185,    186,    152, -1 
	   187,    185,    152, -1 
	   159,    187,    152, -1 
	   184,    152,    186, -1 
	   152,    184,    155, -1 
	   153,    188,    156, -1 
	   189,    188,    153, -1 
	   189,    153,    154, -1 
	   167,    189,    154, -1 
	   168,    167,    154, -1 
	   154,    155,    164, -1 
	   168,    154,    164, -1 
	   167,    156,    188, -1 
	   158,    190,    159, -1 
	   163,    190,    158, -1 
	   190,    187,    159, -1 
	   160,    162,    161, -1 
	   178,    190,    163, -1 
	   169,    165,    170, -1 
	   189,    167,    188, -1 
	   181,    171,    174, -1 
	   191,    172,    171, -1 
	   191,    171,    181, -1 
	   192,    193,    172, -1 
	   192,    172,    191, -1 
	   193,    173,    172, -1 
	   193,    175,    173, -1 
	   181,    174,    179, -1 
	   176,    175,    193, -1 
	   176,    193,    192, -1 
	   176,    192,    194, -1 
	   177,    176,    194, -1 
	   194,    178,    177, -1 
	   195,    190,    178, -1 
	   196,    195,    178, -1 
	   194,    196,    178, -1 
	   180,    197,    191, -1 
	   180,    191,    181, -1 
	   198,    197,    180, -1 
	   183,    198,    180, -1 
	   182,    184,    183, -1 
	   184,    186,    183, -1 
	   183,    186,    198, -1 
	   186,    185,    198, -1 
	   185,    195,    196, -1 
	   198,    185,    196, -1 
	   185,    187,    195, -1 
	   187,    190,    195, -1 
	   197,    199,    191, -1 
	   200,    192,    191, -1 
	   200,    191,    199, -1 
	   201,    194,    192, -1 
	   201,    192,    200, -1 
	   194,    201,    202, -1 
	   202,    203,    194, -1 
	   196,    194,    203, -1 
	   198,    196,    204, -1 
	   204,    196,    203, -1 
	   197,    205,    199, -1 
	   206,    205,    197, -1 
	   207,    208,    197, -1 
	   198,    207,    197, -1 
	   197,    208,    206, -1 
	   207,    198,    204, -1 
	   201,    200,    199, -1 
	   201,    199,    209, -1 
	   205,    209,    199, -1 
	   202,    201,    209, -1 
	   202,    209,    210, -1 
	   211,    203,    202, -1 
	   210,    211,    202, -1 
	   207,    204,    203, -1 
	   211,    207,    203, -1 
	   210,    209,    205, -1 
	   210,    205,    206, -1 
	   206,    208,    210, -1 
	   207,    211,    208, -1 
	   208,    211,    210, -1 
    ] 
normalPerVertex  TRUE 
   } 
  } 
 ] 
} 
