# 
# Wavefront OBJ file
# Converted by the DEEP Exploration 2.00.1211
# Right Hemisphere, LTD
# http://www.righthemisphere.com/
# 
mtllib thoracic12.mtl
# object Object #0
g Object__0
v -0.022928 0.060343 2.5e-005
v -0.023828 0.060264 0.008244
v -0.037238 0.052857 3e-006
v -0.024347 0.065129 0.00989
v -0.02278 0.062405 2.7e-005
v -0.023828 0.060264 -0.008244
v -0.024347 0.065129 -0.00989
v -0.028406 0.05859 0.016798
v -0.035444 0.055214 0.020958
v -0.049126 0.046604 0.004957
v -0.049396 0.046828 3e-006
v -0.049625 0.046667 0.014592
v -0.046254 0.049132 0.021071
v -0.028406 0.05859 -0.016798
v -0.035444 0.055214 -0.020958
v -0.049126 0.046604 -0.004957
v -0.049625 0.046667 -0.014592
v -0.046254 0.049132 -0.021071
v -0.025627 0.06682 2.7e-005
v -0.027226 0.066606 0.010588
v -0.030166 0.063224 0.017846
v -0.027226 0.066606 -0.010588
v -0.030166 0.063224 -0.017846
v -0.038871 0.05974 0.021676
v -0.052685 0.049978 0.005102
v -0.054616 0.047973 3e-006
v -0.052685 0.049978 -0.005102
v -0.050077 0.053979 0.021829
v -0.052973 0.045727 0.016388
v -0.054201 0.051092 0.009696
v -0.038871 0.05974 -0.021676
v -0.052973 0.045727 -0.016388
v -0.050077 0.053979 -0.021829
v -0.054201 0.051092 -0.009696
v -0.029483 0.076788 3e-005
v -0.030412 0.075073 0.010219
v -0.03346 0.0652 0.0174
v -0.030412 0.075073 -0.010219
v -0.03346 0.0652 -0.0174
v -0.040946 0.064037 0.019719
v -0.057524 0.057531 0.006542
v -0.05705 0.057763 5e-006
v -0.057524 0.057531 -0.006542
v -0.049268 0.060569 0.02066
v -0.055822 0.056592 0.019536
v -0.059577 0.05737 0.010005
v -0.040946 0.064037 -0.019719
v -0.055822 0.056592 -0.019536
v -0.049268 0.060569 -0.02066
v -0.059577 0.05737 -0.010005
v -0.030536 0.081061 3.1e-005
v -0.030983 0.080402 0.011304
v -0.036377 0.073283 0.018069
v -0.030983 0.080402 -0.011304
v -0.036377 0.073283 -0.018069
v -0.04126 0.071459 0.019809
v -0.061242 0.066435 0.00676
v -0.06336 0.066095 0.010461
v -0.060568 0.066834 8e-006
v -0.061242 0.066435 -0.00676
v -0.06336 0.066095 -0.010461
v -0.051321 0.067305 0.020809
v -0.056399 0.066431 0.021214
v -0.061644 0.053721 0.017599
v -0.059986 0.057758 0.021577
v -0.062745 0.063669 0.0258
v -0.068099 0.059711 0.00384
v -0.04126 0.071459 -0.019809
v -0.056399 0.066431 -0.021214
v -0.051321 0.067305 -0.020809
v -0.059986 0.057758 -0.021577
v -0.061644 0.053721 -0.017599
v -0.062745 0.063669 -0.0258
v -0.068099 0.059711 -0.00384
v -0.032437 0.085545 3.2e-005
v -0.033163 0.084967 0.011511
v -0.035955 0.077925 0.019126
v -0.033163 0.084967 -0.011511
v -0.035955 0.077925 -0.019126
v -0.041787 0.074949 0.021903
v -0.064627 0.073648 0.008618
v -0.064692 0.071583 0.011233
v -0.062631 0.073362 9e-006
v -0.064627 0.073648 -0.008618
v -0.064692 0.071583 -0.011233
v -0.050844 0.072575 0.022959
v -0.059115 0.070514 0.0205
v -0.065806 0.069292 0.020548
v -0.072634 0.06226 0.023816
v -0.069268 0.058623 0.0177
v -0.066182 0.05327 0.025475
v -0.061936 0.050233 0.010848
v -0.066974 0.063171 0.024502
v -0.068032 0.055093 0.022274
v -0.068686 0.053654 4e-006
v -0.061907 0.036628 0.005268
v -0.077485 0.05934 5e-006
v -0.072562 0.065001 0.007949
v -0.041787 0.074949 -0.021903
v -0.059115 0.070514 -0.0205
v -0.050844 0.072575 -0.022959
v -0.065806 0.069292 -0.020548
v -0.069268 0.058623 -0.0177
v -0.072634 0.06226 -0.023816
v -0.066182 0.05327 -0.025475
v -0.061936 0.050233 -0.010848
v -0.068032 0.055093 -0.022274
v -0.066974 0.063171 -0.024502
v -0.061907 0.036628 -0.005268
v -0.072562 0.065001 -0.007949
v -0.047555 0.079715 1e-005
v -0.038029 0.08278 0.01939
v -0.044964 0.08023 0.022961
v -0.038029 0.08278 -0.01939
v -0.044964 0.08023 -0.022961
v -0.053624 0.075717 0.023101
v -0.074896 0.074828 0.016478
v -0.066235 0.071265 0.014526
v -0.073645 0.072164 0.010364
v -0.062567 0.073896 0.017631
v -0.066235 0.071265 -0.014526
v -0.074896 0.074828 -0.016478
v -0.073645 0.072164 -0.010364
v -0.062567 0.073896 -0.017631
v -0.071298 0.067858 0.02187
v -0.071518 0.071423 0.018944
v -0.080778 0.072311 0.019845
v -0.07839 0.063286 0.014623
v -0.074742 0.068304 0.02191
v -0.07589 0.04739 0.01302
v -0.071835 0.050747 0.015939
v -0.084338 0.06021 0.017561
v -0.076168 0.061415 0.013058
v -0.063566 0.051438 0.012357
v -0.074083 0.043358 0.017556
v -0.070861 0.061988 0.0271
v -0.071607 0.059117 0.024714
v -0.075294 0.065912 0.025062
v -0.066976 0.042379 3e-006
v -0.0612 0.035703 0.006903
v -0.082699 0.044386 4e-006
v -0.078743 0.053408 0.005106
v -0.074554 0.053863 0.008549
v -0.074598 0.060171 0.010714
v -0.078743 0.053408 -0.005106
v -0.074554 0.053863 -0.008549
v -0.074598 0.060171 -0.010714
v -0.073818 0.0651 0.011691
v -0.053624 0.075717 -0.023101
v -0.071298 0.067858 -0.02187
v -0.071518 0.071423 -0.018944
v -0.071835 0.050747 -0.015939
v -0.07589 0.04739 -0.01302
v -0.07839 0.063286 -0.014623
v -0.084338 0.06021 -0.017561
v -0.076168 0.061415 -0.013058
v -0.080778 0.072311 -0.019844
v -0.074742 0.068304 -0.02191
v -0.063566 0.051438 -0.012357
v -0.074083 0.043358 -0.017556
v -0.071607 0.059117 -0.024714
v -0.070861 0.061988 -0.0271
v -0.075294 0.065912 -0.025062
v -0.0612 0.035703 -0.006903
v -0.073818 0.0651 -0.011691
v -0.085049 0.066921 0.016633
v -0.078841 0.067115 0.014339
v -0.085049 0.066921 -0.016633
v -0.078841 0.067115 -0.014339
v -0.082718 0.066144 0.021988
v -0.083609 0.063123 0.017086
v -0.077335 0.043576 0.010569
v -0.076891 0.037801 0.010001
v -0.070427 0.035761 0.017306
v -0.076565 0.049538 0.009115
v -0.06155 0.032962 0.013718
v -0.065017 0.037897 0.005489
v -0.069476 0.041846 1e-006
v -0.065017 0.037897 -0.005489
v -0.08203 0.04753 0.004312
v -0.086277 0.035795 -1.6e-005
v -0.079905 0.043145 0.004195
v -0.08203 0.04753 -0.004312
v -0.079905 0.043145 -0.004195
v -0.076565 0.049538 -0.009115
v -0.076891 0.037801 -0.010001
v -0.077335 0.043576 -0.010569
v -0.070427 0.035761 -0.017306
v -0.082718 0.066144 -0.021988
v -0.083609 0.063123 -0.017086
v -0.06155 0.032962 -0.013718
v -0.079556 0.037596 0.004376
v -0.077682 0.035854 0.00513
v -0.069585 0.036752 0.007867
v -0.073442 0.031147 0
v -0.069585 0.036752 -0.007867
v -0.077682 0.035854 -0.00513
v -0.091613 0.02949 -2.1e-005
v -0.079556 0.037596 -0.004376
v -0.083173 0.032353 0.004761
v -0.078839 0.031332 0.004779
v -0.080351 0.023232 0.003711
v -0.08202 0.021874 -3e-006
v -0.080351 0.023232 -0.003711
v -0.078839 0.031332 -0.004779
v -0.091717 0.02543 0.004814
v -0.092078 0.023655 -2.3e-005
v -0.083173 0.032353 -0.004761
v -0.091717 0.02543 -0.004814
v -0.088424 0.022588 0.005606
v -0.086623 0.021125 -2.1e-005
v -0.088424 0.022588 -0.005606
# 212 verticies
vn 0.939705 -0.341985 0.000363
vn 0.827331 -0.52429 0.201601
vn 0.470626 -0.882333 1.7e-005
vn 0.878876 0.357995 0.315304
vn 0.968158 0.25034 0.000237
vn 0.827423 -0.524244 -0.201342
vn 0.878945 0.3581 -0.314992
vn 0.757722 -0.412893 0.505348
vn 0.487856 -0.449279 0.748429
vn -0.140464 -0.989912 -0.018572
vn -0.172448 -0.985019 6.2e-005
vn -0.114804 -0.987148 0.111169
vn 0.139427 -0.68174 0.718185
vn 0.75772 -0.412901 -0.505344
vn 0.487854 -0.449279 -0.74843
vn -0.14046 -0.989913 0.01855
vn -0.114799 -0.987149 -0.111167
vn 0.139432 -0.68174 -0.718185
vn 0.78286 0.622197 0.000196
vn 0.700764 0.60416 0.379368
vn 0.487724 0.404019 0.773883
vn 0.700858 0.604257 -0.37904
vn 0.487721 0.404019 -0.773884
vn 0.122193 0.215105 0.968916
vn -0.671017 -0.731741 0.119546
vn -0.745208 -0.666832 0.000136
vn -0.671032 -0.731752 -0.119399
vn -0.248725 -0.131081 0.959663
vn -0.623893 -0.698371 0.350765
vn -0.646566 -0.683319 -0.339159
vn 0.122192 0.215104 -0.968917
vn -0.623893 -0.698371 -0.350765
vn -0.248721 -0.131082 -0.959664
vn -0.646566 -0.683319 0.339159
vn 0.947494 0.319774 0.000384
vn 0.898289 0.203298 0.389547
vn 0.442867 0.404965 0.79992
vn 0.898401 0.203342 -0.389266
vn 0.442867 0.404961 -0.799922
vn 0.13954 0.174919 0.974645
vn -0.876186 -0.441793 -0.192655
vn -0.944145 -0.32953 -8.1e-005
vn -0.876184 -0.44179 0.192674
vn -0.157848 -0.001332 0.987463
vn 0.099509 -0.483567 0.869633
vn -0.435404 -0.727581 -0.53014
vn 0.139543 0.174914 -0.974645
vn 0.099511 -0.483565 -0.869633
vn -0.157852 -0.001327 -0.987462
vn -0.435404 -0.727581 0.53014
vn 0.96975 0.244101 0.000216
vn 0.927154 0.181182 0.32796
vn 0.607739 -0.037733 0.79324
vn 0.927205 0.181211 -0.327801
vn 0.607737 -0.037728 -0.793242
vn 0.305893 -0.184341 0.934049
vn -0.903785 -0.330962 -0.271363
vn -0.379735 -0.070654 -0.922393
vn -0.93484 -0.35507 -0.00016
vn -0.903804 -0.330993 0.271261
vn -0.379735 -0.070654 0.922393
vn 0.117988 -0.248053 0.961535
vn 0.135436 0.040316 0.989965
vn 0.08799 -0.97254 0.215461
vn 0.062692 -0.627732 0.775901
vn 0.056708 -0.034424 0.997797
vn 0.602414 0.30419 -0.737947
vn 0.30589 -0.184336 -0.934051
vn 0.135443 0.040313 -0.989965
vn 0.117991 -0.248054 -0.961534
vn 0.062692 -0.627732 -0.775901
vn 0.08799 -0.97254 -0.215461
vn 0.056708 -0.034424 -0.997797
vn 0.602624 0.30431 0.737726
vn 0.640917 0.76761 0.000193
vn 0.469605 0.809169 0.353153
vn 0.632679 0.003615 0.774405
vn 0.46964 0.809211 -0.353009
vn 0.63268 0.003617 -0.774405
vn 0.281969 -0.217572 0.934428
vn -0.698434 0.598215 -0.392848
vn -0.187224 -0.091252 -0.97807
vn -0.904913 0.425596 -0.000237
vn -0.698502 0.598237 0.392692
vn -0.187224 -0.091252 0.97807
vn -0.011147 -0.203983 0.978911
vn -0.246427 0.13479 0.959742
vn -0.083752 0.659354 0.747153
vn -0.546645 -0.411504 0.729276
vn -0.431456 -0.573456 0.696415
vn 0.338238 -0.099307 0.935806
vn 0.802134 -0.211459 0.55845
vn 0.086575 0.291856 0.952536
vn -0.494511 -0.581091 0.646368
vn 0.924273 0.381733 -0.000359
vn 0.941572 -0.081092 -0.326905
vn -0.736703 0.676217 1.5e-005
vn -0.506161 0.376389 -0.775972
vn 0.281972 -0.217572 -0.934427
vn -0.246427 0.13479 -0.959742
vn -0.011143 -0.203989 -0.97891
vn -0.083752 0.659354 -0.747153
vn -0.431456 -0.573456 -0.696415
vn -0.546648 -0.411503 -0.729274
vn 0.338238 -0.099307 -0.935806
vn 0.802133 -0.211461 -0.558451
vn -0.494506 -0.581085 -0.646377
vn 0.086569 0.291854 -0.952537
vn 0.941671 -0.081095 0.326619
vn -0.506089 0.376446 0.775991
vn -0.355703 0.934599 1e-006
vn 0.173877 0.823214 0.540449
vn 0.032765 0.54933 0.834963
vn 0.173873 0.823216 -0.540447
vn 0.032765 0.549335 -0.83496
vn -0.29054 0.377222 0.879369
vn -0.284926 0.930349 -0.2308
vn -0.055623 0.924268 0.377671
vn -0.738422 0.343002 -0.580589
vn -0.485458 0.77066 0.412811
vn -0.055623 0.924268 -0.377671
vn -0.284929 0.930348 0.2308
vn -0.73842 0.343003 0.580591
vn -0.485447 0.770673 -0.4128
vn 0.207784 0.627904 0.750042
vn 0.18433 0.729637 0.658523
vn -0.287569 0.49932 0.817303
vn 0.081655 -0.419758 0.903956
vn 0.028824 0.462476 0.886163
vn -0.846824 -0.021713 0.531431
vn -0.136671 0.028624 0.990203
vn -0.845677 -0.314387 -0.431267
vn -0.88985 -0.055181 -0.452903
vn 0.936177 0.150077 0.317882
vn -0.349075 0.177039 0.920219
vn 0.0884 0.007846 0.996054
vn -0.682564 -0.601947 0.414447
vn -0.984639 -0.168312 0.046442
vn -0.007701 -0.99997 -0.000266
vn 0.253944 -0.831618 -0.493887
vn -0.976749 0.214386 0.000188
vn -0.815532 0.468397 0.33987
vn -0.917735 0.346081 0.194911
vn -0.942319 0.229256 -0.243878
vn -0.815469 0.468555 -0.339803
vn -0.917706 0.346234 -0.194775
vn -0.942302 0.229244 0.243956
vn -0.760286 0.116798 -0.639002
vn -0.290538 0.377233 -0.879365
vn 0.207783 0.627902 -0.750044
vn 0.184327 0.729637 -0.658523
vn -0.136671 0.028624 -0.990203
vn -0.846824 -0.021713 -0.531431
vn 0.081655 -0.419755 -0.903957
vn -0.845677 -0.3144 0.431259
vn -0.88985 -0.055188 0.452902
vn -0.287576 0.499321 -0.817299
vn 0.028816 0.462476 -0.886163
vn 0.936176 0.150072 -0.317887
vn -0.349075 0.177039 -0.920219
vn -0.682555 -0.601945 -0.414464
vn 0.088403 0.007847 -0.996054
vn -0.984638 -0.168314 -0.046455
vn 0.253856 -0.831745 0.493719
vn -0.760287 0.116794 0.639001
vn -0.912147 0.380409 -0.152569
vn -0.373517 0.156468 -0.914332
vn -0.912146 0.38041 0.152572
vn -0.373523 0.156472 0.914329
vn -0.300605 -0.403147 0.864355
vn -0.050808 -0.332151 0.941857
vn -0.906692 0.023067 0.421162
vn -0.669732 -0.577302 0.4671
vn -0.559708 -0.726189 0.39922
vn -0.945094 0.141094 0.29477
vn 0.388258 -0.853574 0.347371
vn 0.07421 -0.915116 -0.396302
vn 0.639515 -0.768779 -0.000223
vn 0.074055 -0.915224 0.396081
vn -0.832827 0.106214 0.543248
vn -0.921443 0.388513 -0.000819
vn -0.802186 -0.042511 0.595559
vn -0.832885 0.106179 -0.543165
vn -0.801982 -0.042038 -0.595867
vn -0.945094 0.141094 -0.29477
vn -0.669732 -0.577302 -0.4671
vn -0.906692 0.023067 -0.421162
vn -0.559708 -0.726189 -0.39922
vn -0.300604 -0.403143 -0.864357
vn -0.050808 -0.332151 -0.941857
vn 0.388258 -0.853574 -0.347371
vn -0.649126 0.032062 0.760005
vn 0.078218 -0.694498 0.71523
vn -0.09014 -0.989557 -0.112478
vn 0.757222 -0.653158 -2.7e-005
vn -0.09014 -0.989557 0.112478
vn 0.0782 -0.694479 -0.715251
vn -0.848614 0.529011 -0.001416
vn -0.648041 0.03177 -0.760943
vn -0.181384 0.209598 0.960817
vn 0.059348 -0.068375 0.995893
vn 0.4751 -0.455902 0.752617
vn 0.371402 -0.928472 -0.000521
vn 0.475073 -0.455857 -0.752662
vn 0.059335 -0.068375 -0.995894
vn -0.796798 -0.216957 0.563953
vn -0.874251 -0.485474 -0.001024
vn -0.180529 0.20884 -0.961143
vn -0.795674 -0.217036 -0.565508
vn -0.066056 -0.709027 0.702081
vn -0.330275 -0.943884 -0.000992
vn -0.065422 -0.708471 -0.702702
# 212 normals
usemtl Material__1
f  1//1 2//2 3//3
f  4//4 2//2 1//1
f  4//4 1//1 5//5
f  3//3 6//6 1//1
f  1//1 6//6 7//7
f  5//5 1//1 7//7
f  2//2 8//8 3//3
f  8//8 2//2 4//4
f  8//8 9//9 3//3
f  10//10 11//11 3//3
f  3//3 12//12 10//10
f  13//13 12//12 3//3
f  3//3 9//9 13//13
f  3//3 14//14 6//6
f  3//3 15//15 14//14
f  3//3 11//11 16//16
f  16//16 17//17 3//3
f  3//3 17//17 18//18
f  18//18 15//15 3//3
f  19//19 20//20 4//4
f  19//19 4//4 5//5
f  21//21 4//4 20//20
f  8//8 4//4 21//21
f  5//5 7//7 19//19
f  7//7 6//6 14//14
f  7//7 22//22 19//19
f  22//22 7//7 23//23
f  23//23 7//7 14//14
f  9//9 8//8 21//21
f  9//9 21//21 24//24
f  13//13 9//9 24//24
f  11//11 10//10 25//25
f  12//12 25//25 10//10
f  11//11 25//25 26//26
f  27//27 16//16 11//11
f  26//26 27//27 11//11
f  28//28 29//29 12//12
f  28//28 12//12 13//13
f  12//12 29//29 30//30
f  12//12 30//30 25//25
f  13//13 24//24 28//28
f  23//23 14//14 15//15
f  31//31 23//23 15//15
f  31//31 15//15 18//18
f  16//16 27//27 17//17
f  17//17 32//32 33//33
f  18//18 17//17 33//33
f  34//34 32//32 17//17
f  27//27 34//34 17//17
f  33//33 31//31 18//18
f  35//35 20//20 19//19
f  19//19 22//22 35//35
f  35//35 36//36 20//20
f  37//37 20//20 36//36
f  21//21 20//20 37//37
f  24//24 21//21 37//37
f  22//22 38//38 35//35
f  38//38 22//22 39//39
f  39//39 22//22 23//23
f  39//39 23//23 31//31
f  24//24 37//37 40//40
f  28//28 24//24 40//40
f  41//41 26//26 25//25
f  41//41 25//25 30//30
f  26//26 41//41 42//42
f  42//42 43//43 26//26
f  27//27 26//26 43//43
f  34//34 27//27 43//43
f  28//28 40//40 44//44
f  44//44 29//29 28//28
f  44//44 45//45 29//29
f  30//30 29//29 46//46
f  29//29 45//45 46//46
f  41//41 30//30 46//46
f  47//47 39//39 31//31
f  47//47 31//31 33//33
f  32//32 48//48 49//49
f  33//33 32//32 49//49
f  50//50 32//32 34//34
f  50//50 48//48 32//32
f  49//49 47//47 33//33
f  50//50 34//34 43//43
f  51//51 36//36 35//35
f  35//35 38//38 51//51
f  51//51 52//52 36//36
f  53//53 36//36 52//52
f  37//37 36//36 53//53
f  40//40 37//37 53//53
f  38//38 54//54 51//51
f  54//54 38//38 55//55
f  55//55 38//38 39//39
f  55//55 39//39 47//47
f  40//40 53//53 56//56
f  44//44 40//40 56//56
f  42//42 41//41 57//57
f  41//41 58//58 57//57
f  41//41 46//46 58//58
f  42//42 57//57 59//59
f  60//60 43//43 42//42
f  59//59 60//60 42//42
f  60//60 61//61 43//43
f  61//61 50//50 43//43
f  44//44 56//56 62//62
f  62//62 45//45 44//44
f  62//62 63//63 45//45
f  64//64 45//45 65//65
f  66//66 65//65 45//45
f  66//66 45//45 63//63
f  45//45 64//64 46//46
f  58//58 46//46 67//67
f  67//67 46//46 64//64
f  68//68 55//55 47//47
f  68//68 47//47 49//49
f  48//48 69//69 70//70
f  49//49 48//48 70//70
f  71//71 48//48 72//72
f  48//48 71//71 73//73
f  69//69 48//48 73//73
f  50//50 72//72 48//48
f  70//70 68//68 49//49
f  74//74 50//50 61//61
f  72//72 50//50 74//74
f  75//75 52//52 51//51
f  51//51 54//54 75//75
f  75//75 76//76 52//52
f  77//77 52//52 76//76
f  53//53 52//52 77//77
f  56//56 53//53 77//77
f  54//54 78//78 75//75
f  78//78 54//54 79//79
f  79//79 54//54 55//55
f  79//79 55//55 68//68
f  56//56 77//77 80//80
f  62//62 56//56 80//80
f  59//59 57//57 81//81
f  57//57 58//58 82//82
f  57//57 82//82 81//81
f  67//67 82//82 58//58
f  59//59 81//81 83//83
f  84//84 60//60 59//59
f  83//83 84//84 59//59
f  85//85 61//61 60//60
f  84//84 85//85 60//60
f  61//61 85//85 74//74
f  62//62 80//80 86//86
f  86//86 63//63 62//62
f  86//86 87//87 63//63
f  88//88 66//66 63//63
f  88//88 63//63 87//87
f  89//89 90//90 64//64
f  89//89 64//64 91//91
f  64//64 65//65 66//66
f  64//64 66//66 91//91
f  64//64 90//90 92//92
f  64//64 92//92 67//67
f  66//66 93//93 94//94
f  66//66 94//94 91//91
f  88//88 93//93 66//66
f  95//95 67//67 96//96
f  67//67 95//95 97//97
f  67//67 97//97 98//98
f  92//92 96//96 67//67
f  67//67 98//98 82//82
f  99//99 79//79 68//68
f  99//99 68//68 70//70
f  69//69 100//100 101//101
f  70//70 69//69 101//101
f  69//69 73//73 102//102
f  100//100 69//69 102//102
f  101//101 99//99 70//70
f  73//73 71//71 72//72
f  72//72 103//103 104//104
f  105//105 72//72 104//104
f  105//105 73//73 72//72
f  106//106 103//103 72//72
f  74//74 106//106 72//72
f  107//107 108//108 73//73
f  105//105 107//107 73//73
f  73//73 108//108 102//102
f  109//109 74//74 95//95
f  97//97 95//95 74//74
f  110//110 97//97 74//74
f  74//74 109//109 106//106
f  85//85 110//110 74//74
f  76//76 75//75 111//111
f  111//111 75//75 78//78
f  77//77 76//76 112//112
f  112//112 76//76 111//111
f  113//113 80//80 77//77
f  113//113 77//77 112//112
f  114//114 78//78 79//79
f  111//111 78//78 114//114
f  79//79 99//99 115//115
f  114//114 79//79 115//115
f  116//116 86//86 80//80
f  116//116 80//80 113//113
f  117//117 118//118 81//81
f  81//81 119//119 117//117
f  81//81 98//98 119//119
f  98//98 81//81 82//82
f  83//83 81//81 111//111
f  81//81 120//120 111//111
f  118//118 120//120 81//81
f  111//111 84//84 83//83
f  84//84 121//121 122//122
f  122//122 123//123 84//84
f  123//123 110//110 84//84
f  85//85 84//84 110//110
f  111//111 124//124 84//84
f  84//84 124//124 121//121
f  116//116 87//87 86//86
f  120//120 88//88 87//87
f  116//116 120//120 87//87
f  120//120 118//118 88//88
f  88//88 125//125 93//93
f  125//125 88//88 126//126
f  126//126 88//88 118//118
f  127//127 128//128 89//89
f  128//128 90//90 89//89
f  89//89 91//91 125//125
f  129//129 89//89 125//125
f  127//127 89//89 129//129
f  130//130 131//131 90//90
f  128//128 132//132 90//90
f  90//90 131//131 92//92
f  90//90 133//133 130//130
f  90//90 132//132 133//133
f  91//91 94//94 125//125
f  96//96 92//92 134//134
f  135//135 134//134 92//92
f  135//135 92//92 131//131
f  125//125 136//136 93//93
f  136//136 94//94 93//93
f  136//136 137//137 94//94
f  137//137 138//138 94//94
f  94//94 138//138 125//125
f  95//95 96//96 139//139
f  139//139 109//109 95//95
f  139//139 96//96 140//140
f  96//96 134//134 140//140
f  141//141 142//142 97//97
f  97//97 142//142 143//143
f  97//97 143//143 144//144
f  144//144 98//98 97//97
f  97//97 145//145 141//141
f  146//146 145//145 97//97
f  147//147 146//146 97//97
f  97//97 110//110 147//147
f  144//144 148//148 98//98
f  98//98 148//148 119//119
f  99//99 101//101 149//149
f  115//115 99//99 149//149
f  101//101 100//100 149//149
f  100//100 102//102 124//124
f  100//100 124//124 149//149
f  102//102 121//121 124//124
f  108//108 150//150 102//102
f  151//151 102//102 150//150
f  121//121 102//102 151//151
f  103//103 152//152 153//153
f  104//104 103//103 154//154
f  103//103 155//155 154//154
f  106//106 152//152 103//103
f  153//153 156//156 103//103
f  156//156 155//155 103//103
f  104//104 154//154 157//157
f  150//150 105//105 104//104
f  150//150 104//104 158//158
f  158//158 104//104 157//157
f  150//150 107//107 105//105
f  159//159 106//106 109//109
f  106//106 159//159 160//160
f  152//152 106//106 160//160
f  107//107 161//161 162//162
f  108//108 107//107 162//162
f  107//107 163//163 161//161
f  150//150 163//163 107//107
f  108//108 162//162 150//150
f  164//164 109//109 139//139
f  164//164 159//159 109//109
f  110//110 165//165 147//147
f  123//123 165//165 110//110
f  113//113 112//112 111//111
f  116//116 113//113 111//111
f  120//120 116//116 111//111
f  111//111 114//114 115//115
f  111//111 115//115 149//149
f  111//111 149//149 124//124
f  118//118 117//117 126//126
f  127//127 126//126 117//117
f  166//166 127//127 117//117
f  166//166 117//117 167//167
f  117//117 148//148 167//167
f  148//148 117//117 119//119
f  151//151 122//122 121//121
f  122//122 151//151 157//157
f  122//122 157//157 168//168
f  169//169 122//122 168//168
f  169//169 165//165 122//122
f  123//123 122//122 165//165
f  125//125 138//138 136//136
f  125//125 126//126 129//129
f  127//127 129//129 126//126
f  127//127 170//170 128//128
f  170//170 127//127 166//166
f  128//128 170//170 171//171
f  132//132 128//128 171//171
f  135//135 131//131 130//130
f  130//130 172//172 173//173
f  130//130 173//173 174//174
f  130//130 174//174 135//135
f  172//172 130//130 175//175
f  133//133 175//175 130//130
f  132//132 171//171 166//166
f  132//132 166//166 167//167
f  148//148 133//133 132//132
f  148//148 132//132 167//167
f  144//144 133//133 148//148
f  175//175 133//133 143//143
f  143//143 133//133 144//144
f  135//135 176//176 134//134
f  134//134 176//176 140//140
f  135//135 174//174 176//176
f  136//136 138//138 137//137
f  139//139 140//140 177//177
f  139//139 177//177 178//178
f  179//179 164//164 139//139
f  178//178 179//179 139//139
f  140//140 176//176 177//177
f  180//180 142//142 141//141
f  141//141 181//181 182//182
f  141//141 182//182 180//180
f  141//141 145//145 183//183
f  184//184 181//181 141//141
f  183//183 184//184 141//141
f  180//180 143//143 142//142
f  180//180 175//175 143//143
f  145//145 146//146 183//183
f  146//146 185//185 183//183
f  146//146 156//156 185//185
f  147//147 156//156 146//146
f  165//165 156//156 147//147
f  162//162 163//163 150//150
f  158//158 151//151 150//150
f  151//151 158//158 157//157
f  153//153 152//152 160//160
f  186//186 187//187 153//153
f  188//188 186//186 153//153
f  160//160 188//188 153//153
f  185//185 153//153 187//187
f  153//153 185//185 156//156
f  154//154 189//189 157//157
f  190//190 189//189 154//154
f  190//190 154//154 155//155
f  168//168 190//190 155//155
f  169//169 168//168 155//155
f  155//155 156//156 165//165
f  169//169 155//155 165//165
f  168//168 157//157 189//189
f  159//159 191//191 160//160
f  164//164 191//191 159//159
f  191//191 188//188 160//160
f  161//161 163//163 162//162
f  179//179 191//191 164//164
f  170//170 166//166 171//171
f  190//190 168//168 189//189
f  182//182 172//172 175//175
f  192//192 173//173 172//172
f  192//192 172//172 182//182
f  193//193 194//194 173//173
f  193//193 173//173 192//192
f  194//194 174//174 173//173
f  194//194 176//176 174//174
f  182//182 175//175 180//180
f  177//177 176//176 194//194
f  177//177 194//194 193//193
f  177//177 193//193 195//195
f  178//178 177//177 195//195
f  195//195 179//179 178//178
f  196//196 191//191 179//179
f  197//197 196//196 179//179
f  195//195 197//197 179//179
f  181//181 198//198 192//192
f  181//181 192//192 182//182
f  199//199 198//198 181//181
f  184//184 199//199 181//181
f  183//183 185//185 184//184
f  185//185 187//187 184//184
f  184//184 187//187 199//199
f  187//187 186//186 199//199
f  186//186 196//196 197//197
f  199//199 186//186 197//197
f  186//186 188//188 196//196
f  188//188 191//191 196//196
f  198//198 200//200 192//192
f  201//201 193//193 192//192
f  201//201 192//192 200//200
f  202//202 195//195 193//193
f  202//202 193//193 201//201
f  195//195 202//202 203//203
f  203//203 204//204 195//195
f  197//197 195//195 204//204
f  199//199 197//197 205//205
f  205//205 197//197 204//204
f  198//198 206//206 200//200
f  207//207 206//206 198//198
f  208//208 209//209 198//198
f  199//199 208//208 198//198
f  198//198 209//209 207//207
f  208//208 199//199 205//205
f  202//202 201//201 200//200
f  202//202 200//200 210//210
f  206//206 210//210 200//200
f  203//203 202//202 210//210
f  203//203 210//210 211//211
f  212//212 204//204 203//203
f  211//211 212//212 203//203
f  208//208 205//205 204//204
f  212//212 208//208 204//204
f  211//211 210//210 206//206
f  211//211 206//206 207//207
f  207//207 209//209 211//211
f  208//208 212//212 209//209
f  209//209 212//212 211//211
