#VRML V2.0 utf8 
Transform { 
 children [ 
    Shape { appearance Appearance {
              material DEF surface Material {
              diffuseColor 0.8 0.8 0.8
              ambientIntensity 0.2
              specularColor 0.4 0.4 0.4
              emissiveColor 0 0 0
              shininess 0.25
              transparency 0
            }
          }
   geometry IndexedFaceSet { 
   solid FALSE 
    coord DEF bone Coordinate{ 
     point [ 
	 -0.022928   0.060343   0.000025,
	 -0.023828   0.060264   0.008244,
	 -0.037238   0.052857   0.000003,
	 -0.024347   0.065129   0.009890,
	 -0.022780   0.062405   0.000027,
	 -0.023828   0.060264  -0.008244,
	 -0.024347   0.065129  -0.009890,
	 -0.028406   0.058590   0.016798,
	 -0.035444   0.055214   0.020958,
	 -0.049126   0.046604   0.004957,
	 -0.049396   0.046828   0.000003,
	 -0.049625   0.046667   0.014592,
	 -0.046254   0.049132   0.021071,
	 -0.028406   0.058590  -0.016798,
	 -0.035444   0.055214  -0.020958,
	 -0.049126   0.046604  -0.004957,
	 -0.049625   0.046667  -0.014592,
	 -0.046254   0.049132  -0.021071,
	 -0.025627   0.066820   0.000027,
	 -0.027226   0.066606   0.010588,
	 -0.030166   0.063224   0.017846,
	 -0.027226   0.066606  -0.010588,
	 -0.030166   0.063224  -0.017846,
	 -0.038871   0.059740   0.021676,
	 -0.052685   0.049978   0.005102,
	 -0.054616   0.047973   0.000003,
	 -0.052685   0.049978  -0.005102,
	 -0.050077   0.053979   0.021829,
	 -0.052973   0.045727   0.016388,
	 -0.054201   0.051092   0.009696,
	 -0.038871   0.059740  -0.021676,
	 -0.052973   0.045727  -0.016388,
	 -0.050077   0.053979  -0.021829,
	 -0.054201   0.051092  -0.009696,
	 -0.029483   0.076788   0.000030,
	 -0.030412   0.075073   0.010219,
	 -0.033460   0.065200   0.017400,
	 -0.030412   0.075073  -0.010219,
	 -0.033460   0.065200  -0.017400,
	 -0.040946   0.064037   0.019719,
	 -0.057524   0.057531   0.006542,
	 -0.057050   0.057763   0.000005,
	 -0.057524   0.057531  -0.006542,
	 -0.049268   0.060569   0.020660,
	 -0.055822   0.056592   0.019536,
	 -0.059577   0.057370   0.010005,
	 -0.040946   0.064037  -0.019719,
	 -0.055822   0.056592  -0.019536,
	 -0.049268   0.060569  -0.020660,
	 -0.059577   0.057370  -0.010005,
	 -0.030536   0.081061   0.000031,
	 -0.030983   0.080402   0.011304,
	 -0.036377   0.073283   0.018069,
	 -0.030983   0.080402  -0.011304,
	 -0.036377   0.073283  -0.018069,
	 -0.041260   0.071459   0.019809,
	 -0.061242   0.066435   0.006760,
	 -0.063360   0.066095   0.010461,
	 -0.060568   0.066834   0.000008,
	 -0.061242   0.066435  -0.006760,
	 -0.063360   0.066095  -0.010461,
	 -0.051321   0.067305   0.020809,
	 -0.056399   0.066431   0.021214,
	 -0.061644   0.053721   0.017599,
	 -0.059986   0.057758   0.021577,
	 -0.062745   0.063669   0.025800,
	 -0.068099   0.059711   0.003840,
	 -0.041260   0.071459  -0.019809,
	 -0.056399   0.066431  -0.021214,
	 -0.051321   0.067305  -0.020809,
	 -0.059986   0.057758  -0.021577,
	 -0.061644   0.053721  -0.017599,
	 -0.062745   0.063669  -0.025800,
	 -0.068099   0.059711  -0.003840,
	 -0.032437   0.085545   0.000032,
	 -0.033163   0.084967   0.011511,
	 -0.035955   0.077925   0.019126,
	 -0.033163   0.084967  -0.011511,
	 -0.035955   0.077925  -0.019126,
	 -0.041787   0.074949   0.021903,
	 -0.064627   0.073648   0.008618,
	 -0.064692   0.071583   0.011233,
	 -0.062631   0.073362   0.000009,
	 -0.064627   0.073648  -0.008618,
	 -0.064692   0.071583  -0.011233,
	 -0.050844   0.072575   0.022959,
	 -0.059115   0.070514   0.020500,
	 -0.065806   0.069292   0.020548,
	 -0.072634   0.062260   0.023816,
	 -0.069268   0.058623   0.017700,
	 -0.066182   0.053270   0.025475,
	 -0.061936   0.050233   0.010848,
	 -0.066974   0.063171   0.024502,
	 -0.068032   0.055093   0.022274,
	 -0.068686   0.053654   0.000004,
	 -0.061907   0.036628   0.005268,
	 -0.077485   0.059340   0.000005,
	 -0.072562   0.065001   0.007949,
	 -0.041787   0.074949  -0.021903,
	 -0.059115   0.070514  -0.020500,
	 -0.050844   0.072575  -0.022959,
	 -0.065806   0.069292  -0.020548,
	 -0.069268   0.058623  -0.017700,
	 -0.072634   0.062260  -0.023816,
	 -0.066182   0.053270  -0.025475,
	 -0.061936   0.050233  -0.010848,
	 -0.068032   0.055093  -0.022274,
	 -0.066974   0.063171  -0.024502,
	 -0.061907   0.036628  -0.005268,
	 -0.072562   0.065001  -0.007949,
	 -0.047555   0.079715   0.000010,
	 -0.038029   0.082780   0.019390,
	 -0.044964   0.080230   0.022961,
	 -0.038029   0.082780  -0.019390,
	 -0.044964   0.080230  -0.022961,
	 -0.053624   0.075717   0.023101,
	 -0.074896   0.074828   0.016478,
	 -0.066235   0.071265   0.014526,
	 -0.073645   0.072164   0.010364,
	 -0.062567   0.073896   0.017631,
	 -0.066235   0.071265  -0.014526,
	 -0.074896   0.074828  -0.016478,
	 -0.073645   0.072164  -0.010364,
	 -0.062567   0.073896  -0.017631,
	 -0.071298   0.067858   0.021870,
	 -0.071518   0.071423   0.018944,
	 -0.080778   0.072311   0.019845,
	 -0.078390   0.063286   0.014623,
	 -0.074742   0.068304   0.021910,
	 -0.075890   0.047390   0.013020,
	 -0.071835   0.050747   0.015939,
	 -0.084338   0.060210   0.017561,
	 -0.076168   0.061415   0.013058,
	 -0.063566   0.051438   0.012357,
	 -0.074083   0.043358   0.017556,
	 -0.070861   0.061988   0.027100,
	 -0.071607   0.059117   0.024714,
	 -0.075294   0.065912   0.025062,
	 -0.066976   0.042379   0.000003,
	 -0.061200   0.035703   0.006903,
	 -0.082699   0.044386   0.000004,
	 -0.078743   0.053408   0.005106,
	 -0.074554   0.053863   0.008549,
	 -0.074598   0.060171   0.010714,
	 -0.078743   0.053408  -0.005106,
	 -0.074554   0.053863  -0.008549,
	 -0.074598   0.060171  -0.010714,
	 -0.073818   0.065100   0.011691,
	 -0.053624   0.075717  -0.023101,
	 -0.071298   0.067858  -0.021870,
	 -0.071518   0.071423  -0.018944,
	 -0.071835   0.050747  -0.015939,
	 -0.075890   0.047390  -0.013020,
	 -0.078390   0.063286  -0.014623,
	 -0.084338   0.060210  -0.017561,
	 -0.076168   0.061415  -0.013058,
	 -0.080778   0.072311  -0.019844,
	 -0.074742   0.068304  -0.021910,
	 -0.063566   0.051438  -0.012357,
	 -0.074083   0.043358  -0.017556,
	 -0.071607   0.059117  -0.024714,
	 -0.070861   0.061988  -0.027100,
	 -0.075294   0.065912  -0.025062,
	 -0.061200   0.035703  -0.006903,
	 -0.073818   0.065100  -0.011691,
	 -0.085049   0.066921   0.016633,
	 -0.078841   0.067115   0.014339,
	 -0.085049   0.066921  -0.016633,
	 -0.078841   0.067115  -0.014339,
	 -0.082718   0.066144   0.021988,
	 -0.083609   0.063123   0.017086,
	 -0.077335   0.043576   0.010569,
	 -0.076891   0.037801   0.010001,
	 -0.070427   0.035761   0.017306,
	 -0.076565   0.049538   0.009115,
	 -0.061550   0.032962   0.013718,
	 -0.065017   0.037897   0.005489,
	 -0.069476   0.041846   0.000001,
	 -0.065017   0.037897  -0.005489,
	 -0.082030   0.047530   0.004312,
	 -0.086277   0.035795  -0.000016,
	 -0.079905   0.043145   0.004195,
	 -0.082030   0.047530  -0.004312,
	 -0.079905   0.043145  -0.004195,
	 -0.076565   0.049538  -0.009115,
	 -0.076891   0.037801  -0.010001,
	 -0.077335   0.043576  -0.010569,
	 -0.070427   0.035761  -0.017306,
	 -0.082718   0.066144  -0.021988,
	 -0.083609   0.063123  -0.017086,
	 -0.061550   0.032962  -0.013718,
	 -0.079556   0.037596   0.004376,
	 -0.077682   0.035854   0.005130,
	 -0.069585   0.036752   0.007867,
	 -0.073442   0.031147  -0.000000,
	 -0.069585   0.036752  -0.007867,
	 -0.077682   0.035854  -0.005130,
	 -0.091613   0.029490  -0.000021,
	 -0.079556   0.037596  -0.004376,
	 -0.083173   0.032353   0.004761,
	 -0.078839   0.031332   0.004779,
	 -0.080351   0.023232   0.003711,
	 -0.082020   0.021874  -0.000003,
	 -0.080351   0.023232  -0.003711,
	 -0.078839   0.031332  -0.004779,
	 -0.091717   0.025430   0.004814,
	 -0.092078   0.023655  -0.000023,
	 -0.083173   0.032353  -0.004761,
	 -0.091717   0.025430  -0.004814,
	 -0.088424   0.022588   0.005606,
	 -0.086623   0.021125  -0.000021,
	 -0.088424   0.022588  -0.005606,
     ]    } 
    coordIndex [ 
	     0,      1,      2, -1 
	     3,      1,      0, -1 
	     3,      0,      4, -1 
	     2,      5,      0, -1 
	     0,      5,      6, -1 
	     4,      0,      6, -1 
	     1,      7,      2, -1 
	     7,      1,      3, -1 
	     7,      8,      2, -1 
	     9,     10,      2, -1 
	     2,     11,      9, -1 
	    12,     11,      2, -1 
	     2,      8,     12, -1 
	     2,     13,      5, -1 
	     2,     14,     13, -1 
	     2,     10,     15, -1 
	    15,     16,      2, -1 
	     2,     16,     17, -1 
	    17,     14,      2, -1 
	    18,     19,      3, -1 
	    18,      3,      4, -1 
	    20,      3,     19, -1 
	     7,      3,     20, -1 
	     4,      6,     18, -1 
	     6,      5,     13, -1 
	     6,     21,     18, -1 
	    21,      6,     22, -1 
	    22,      6,     13, -1 
	     8,      7,     20, -1 
	     8,     20,     23, -1 
	    12,      8,     23, -1 
	    10,      9,     24, -1 
	    11,     24,      9, -1 
	    10,     24,     25, -1 
	    26,     15,     10, -1 
	    25,     26,     10, -1 
	    27,     28,     11, -1 
	    27,     11,     12, -1 
	    11,     28,     29, -1 
	    11,     29,     24, -1 
	    12,     23,     27, -1 
	    22,     13,     14, -1 
	    30,     22,     14, -1 
	    30,     14,     17, -1 
	    15,     26,     16, -1 
	    16,     31,     32, -1 
	    17,     16,     32, -1 
	    33,     31,     16, -1 
	    26,     33,     16, -1 
	    32,     30,     17, -1 
	    34,     19,     18, -1 
	    18,     21,     34, -1 
	    34,     35,     19, -1 
	    36,     19,     35, -1 
	    20,     19,     36, -1 
	    23,     20,     36, -1 
	    21,     37,     34, -1 
	    37,     21,     38, -1 
	    38,     21,     22, -1 
	    38,     22,     30, -1 
	    23,     36,     39, -1 
	    27,     23,     39, -1 
	    40,     25,     24, -1 
	    40,     24,     29, -1 
	    25,     40,     41, -1 
	    41,     42,     25, -1 
	    26,     25,     42, -1 
	    33,     26,     42, -1 
	    27,     39,     43, -1 
	    43,     28,     27, -1 
	    43,     44,     28, -1 
	    29,     28,     45, -1 
	    28,     44,     45, -1 
	    40,     29,     45, -1 
	    46,     38,     30, -1 
	    46,     30,     32, -1 
	    31,     47,     48, -1 
	    32,     31,     48, -1 
	    49,     31,     33, -1 
	    49,     47,     31, -1 
	    48,     46,     32, -1 
	    49,     33,     42, -1 
	    50,     35,     34, -1 
	    34,     37,     50, -1 
	    50,     51,     35, -1 
	    52,     35,     51, -1 
	    36,     35,     52, -1 
	    39,     36,     52, -1 
	    37,     53,     50, -1 
	    53,     37,     54, -1 
	    54,     37,     38, -1 
	    54,     38,     46, -1 
	    39,     52,     55, -1 
	    43,     39,     55, -1 
	    41,     40,     56, -1 
	    40,     57,     56, -1 
	    40,     45,     57, -1 
	    41,     56,     58, -1 
	    59,     42,     41, -1 
	    58,     59,     41, -1 
	    59,     60,     42, -1 
	    60,     49,     42, -1 
	    43,     55,     61, -1 
	    61,     44,     43, -1 
	    61,     62,     44, -1 
	    63,     44,     64, -1 
	    65,     64,     44, -1 
	    65,     44,     62, -1 
	    44,     63,     45, -1 
	    57,     45,     66, -1 
	    66,     45,     63, -1 
	    67,     54,     46, -1 
	    67,     46,     48, -1 
	    47,     68,     69, -1 
	    48,     47,     69, -1 
	    70,     47,     71, -1 
	    47,     70,     72, -1 
	    68,     47,     72, -1 
	    49,     71,     47, -1 
	    69,     67,     48, -1 
	    73,     49,     60, -1 
	    71,     49,     73, -1 
	    74,     51,     50, -1 
	    50,     53,     74, -1 
	    74,     75,     51, -1 
	    76,     51,     75, -1 
	    52,     51,     76, -1 
	    55,     52,     76, -1 
	    53,     77,     74, -1 
	    77,     53,     78, -1 
	    78,     53,     54, -1 
	    78,     54,     67, -1 
	    55,     76,     79, -1 
	    61,     55,     79, -1 
	    58,     56,     80, -1 
	    56,     57,     81, -1 
	    56,     81,     80, -1 
	    66,     81,     57, -1 
	    58,     80,     82, -1 
	    83,     59,     58, -1 
	    82,     83,     58, -1 
	    84,     60,     59, -1 
	    83,     84,     59, -1 
	    60,     84,     73, -1 
	    61,     79,     85, -1 
	    85,     62,     61, -1 
	    85,     86,     62, -1 
	    87,     65,     62, -1 
	    87,     62,     86, -1 
	    88,     89,     63, -1 
	    88,     63,     90, -1 
	    63,     64,     65, -1 
	    63,     65,     90, -1 
	    63,     89,     91, -1 
	    63,     91,     66, -1 
	    65,     92,     93, -1 
	    65,     93,     90, -1 
	    87,     92,     65, -1 
	    94,     66,     95, -1 
	    66,     94,     96, -1 
	    66,     96,     97, -1 
	    91,     95,     66, -1 
	    66,     97,     81, -1 
	    98,     78,     67, -1 
	    98,     67,     69, -1 
	    68,     99,    100, -1 
	    69,     68,    100, -1 
	    68,     72,    101, -1 
	    99,     68,    101, -1 
	   100,     98,     69, -1 
	    72,     70,     71, -1 
	    71,    102,    103, -1 
	   104,     71,    103, -1 
	   104,     72,     71, -1 
	   105,    102,     71, -1 
	    73,    105,     71, -1 
	   106,    107,     72, -1 
	   104,    106,     72, -1 
	    72,    107,    101, -1 
	   108,     73,     94, -1 
	    96,     94,     73, -1 
	   109,     96,     73, -1 
	    73,    108,    105, -1 
	    84,    109,     73, -1 
	    75,     74,    110, -1 
	   110,     74,     77, -1 
	    76,     75,    111, -1 
	   111,     75,    110, -1 
	   112,     79,     76, -1 
	   112,     76,    111, -1 
	   113,     77,     78, -1 
	   110,     77,    113, -1 
	    78,     98,    114, -1 
	   113,     78,    114, -1 
	   115,     85,     79, -1 
	   115,     79,    112, -1 
	   116,    117,     80, -1 
	    80,    118,    116, -1 
	    80,     97,    118, -1 
	    97,     80,     81, -1 
	    82,     80,    110, -1 
	    80,    119,    110, -1 
	   117,    119,     80, -1 
	   110,     83,     82, -1 
	    83,    120,    121, -1 
	   121,    122,     83, -1 
	   122,    109,     83, -1 
	    84,     83,    109, -1 
	   110,    123,     83, -1 
	    83,    123,    120, -1 
	   115,     86,     85, -1 
	   119,     87,     86, -1 
	   115,    119,     86, -1 
	   119,    117,     87, -1 
	    87,    124,     92, -1 
	   124,     87,    125, -1 
	   125,     87,    117, -1 
	   126,    127,     88, -1 
	   127,     89,     88, -1 
	    88,     90,    124, -1 
	   128,     88,    124, -1 
	   126,     88,    128, -1 
	   129,    130,     89, -1 
	   127,    131,     89, -1 
	    89,    130,     91, -1 
	    89,    132,    129, -1 
	    89,    131,    132, -1 
	    90,     93,    124, -1 
	    95,     91,    133, -1 
	   134,    133,     91, -1 
	   134,     91,    130, -1 
	   124,    135,     92, -1 
	   135,     93,     92, -1 
	   135,    136,     93, -1 
	   136,    137,     93, -1 
	    93,    137,    124, -1 
	    94,     95,    138, -1 
	   138,    108,     94, -1 
	   138,     95,    139, -1 
	    95,    133,    139, -1 
	   140,    141,     96, -1 
	    96,    141,    142, -1 
	    96,    142,    143, -1 
	   143,     97,     96, -1 
	    96,    144,    140, -1 
	   145,    144,     96, -1 
	   146,    145,     96, -1 
	    96,    109,    146, -1 
	   143,    147,     97, -1 
	    97,    147,    118, -1 
	    98,    100,    148, -1 
	   114,     98,    148, -1 
	   100,     99,    148, -1 
	    99,    101,    123, -1 
	    99,    123,    148, -1 
	   101,    120,    123, -1 
	   107,    149,    101, -1 
	   150,    101,    149, -1 
	   120,    101,    150, -1 
	   102,    151,    152, -1 
	   103,    102,    153, -1 
	   102,    154,    153, -1 
	   105,    151,    102, -1 
	   152,    155,    102, -1 
	   155,    154,    102, -1 
	   103,    153,    156, -1 
	   149,    104,    103, -1 
	   149,    103,    157, -1 
	   157,    103,    156, -1 
	   149,    106,    104, -1 
	   158,    105,    108, -1 
	   105,    158,    159, -1 
	   151,    105,    159, -1 
	   106,    160,    161, -1 
	   107,    106,    161, -1 
	   106,    162,    160, -1 
	   149,    162,    106, -1 
	   107,    161,    149, -1 
	   163,    108,    138, -1 
	   163,    158,    108, -1 
	   109,    164,    146, -1 
	   122,    164,    109, -1 
	   112,    111,    110, -1 
	   115,    112,    110, -1 
	   119,    115,    110, -1 
	   110,    113,    114, -1 
	   110,    114,    148, -1 
	   110,    148,    123, -1 
	   117,    116,    125, -1 
	   126,    125,    116, -1 
	   165,    126,    116, -1 
	   165,    116,    166, -1 
	   116,    147,    166, -1 
	   147,    116,    118, -1 
	   150,    121,    120, -1 
	   121,    150,    156, -1 
	   121,    156,    167, -1 
	   168,    121,    167, -1 
	   168,    164,    121, -1 
	   122,    121,    164, -1 
	   124,    137,    135, -1 
	   124,    125,    128, -1 
	   126,    128,    125, -1 
	   126,    169,    127, -1 
	   169,    126,    165, -1 
	   127,    169,    170, -1 
	   131,    127,    170, -1 
	   134,    130,    129, -1 
	   129,    171,    172, -1 
	   129,    172,    173, -1 
	   129,    173,    134, -1 
	   171,    129,    174, -1 
	   132,    174,    129, -1 
	   131,    170,    165, -1 
	   131,    165,    166, -1 
	   147,    132,    131, -1 
	   147,    131,    166, -1 
	   143,    132,    147, -1 
	   174,    132,    142, -1 
	   142,    132,    143, -1 
	   134,    175,    133, -1 
	   133,    175,    139, -1 
	   134,    173,    175, -1 
	   135,    137,    136, -1 
	   138,    139,    176, -1 
	   138,    176,    177, -1 
	   178,    163,    138, -1 
	   177,    178,    138, -1 
	   139,    175,    176, -1 
	   179,    141,    140, -1 
	   140,    180,    181, -1 
	   140,    181,    179, -1 
	   140,    144,    182, -1 
	   183,    180,    140, -1 
	   182,    183,    140, -1 
	   179,    142,    141, -1 
	   179,    174,    142, -1 
	   144,    145,    182, -1 
	   145,    184,    182, -1 
	   145,    155,    184, -1 
	   146,    155,    145, -1 
	   164,    155,    146, -1 
	   161,    162,    149, -1 
	   157,    150,    149, -1 
	   150,    157,    156, -1 
	   152,    151,    159, -1 
	   185,    186,    152, -1 
	   187,    185,    152, -1 
	   159,    187,    152, -1 
	   184,    152,    186, -1 
	   152,    184,    155, -1 
	   153,    188,    156, -1 
	   189,    188,    153, -1 
	   189,    153,    154, -1 
	   167,    189,    154, -1 
	   168,    167,    154, -1 
	   154,    155,    164, -1 
	   168,    154,    164, -1 
	   167,    156,    188, -1 
	   158,    190,    159, -1 
	   163,    190,    158, -1 
	   190,    187,    159, -1 
	   160,    162,    161, -1 
	   178,    190,    163, -1 
	   169,    165,    170, -1 
	   189,    167,    188, -1 
	   181,    171,    174, -1 
	   191,    172,    171, -1 
	   191,    171,    181, -1 
	   192,    193,    172, -1 
	   192,    172,    191, -1 
	   193,    173,    172, -1 
	   193,    175,    173, -1 
	   181,    174,    179, -1 
	   176,    175,    193, -1 
	   176,    193,    192, -1 
	   176,    192,    194, -1 
	   177,    176,    194, -1 
	   194,    178,    177, -1 
	   195,    190,    178, -1 
	   196,    195,    178, -1 
	   194,    196,    178, -1 
	   180,    197,    191, -1 
	   180,    191,    181, -1 
	   198,    197,    180, -1 
	   183,    198,    180, -1 
	   182,    184,    183, -1 
	   184,    186,    183, -1 
	   183,    186,    198, -1 
	   186,    185,    198, -1 
	   185,    195,    196, -1 
	   198,    185,    196, -1 
	   185,    187,    195, -1 
	   187,    190,    195, -1 
	   197,    199,    191, -1 
	   200,    192,    191, -1 
	   200,    191,    199, -1 
	   201,    194,    192, -1 
	   201,    192,    200, -1 
	   194,    201,    202, -1 
	   202,    203,    194, -1 
	   196,    194,    203, -1 
	   198,    196,    204, -1 
	   204,    196,    203, -1 
	   197,    205,    199, -1 
	   206,    205,    197, -1 
	   207,    208,    197, -1 
	   198,    207,    197, -1 
	   197,    208,    206, -1 
	   207,    198,    204, -1 
	   201,    200,    199, -1 
	   201,    199,    209, -1 
	   205,    209,    199, -1 
	   202,    201,    209, -1 
	   202,    209,    210, -1 
	   211,    203,    202, -1 
	   210,    211,    202, -1 
	   207,    204,    203, -1 
	   211,    207,    203, -1 
	   210,    209,    205, -1 
	   210,    205,    206, -1 
	   206,    208,    210, -1 
	   207,    211,    208, -1 
	   208,    211,    210, -1 
    ] 
   colorPerVertex FALSE 
    colorIndex [ 
	  1, 
	  1, 
	  1, 
	  1, 
	  1, 
	  1, 
	  1, 
	  1, 
	  1, 
	  1, 
	  1, 
	  1, 
	  1, 
	  1, 
	  1, 
	  1, 
	  1, 
	  1, 
	  1, 
	  1, 
	  1, 
	  1, 
	  1, 
	  1, 
	  1, 
	  1, 
	  1, 
	  1, 
	  1, 
	  1, 
	  1, 
	  1, 
	  1, 
	  1, 
	  1, 
	  1, 
	  1, 
	  1, 
	  1, 
	  1, 
	  1, 
	  1, 
	  1, 
	  1, 
	  1, 
	  1, 
	  1, 
	  1, 
	  1, 
	  1, 
	  1, 
	  1, 
	  1, 
	  1, 
	  1, 
	  1, 
	  1, 
	  1, 
	  1, 
	  1, 
	  1, 
	  1, 
	  1, 
	  1, 
	  1, 
	  1, 
	  1, 
	  1, 
	  1, 
	  1, 
	  1, 
	  1, 
	  1, 
	  1, 
	  1, 
	  1, 
	  1, 
	  1, 
	  1, 
	  1, 
	  1, 
	  1, 
	  1, 
	  1, 
	  1, 
	  1, 
	  1, 
	  1, 
	  1, 
	  1, 
	  1, 
	  1, 
	  1, 
	  1, 
	  1, 
	  1, 
	  1, 
	  1, 
	  1, 
	  1, 
	  1, 
	  1, 
	  1, 
	  1, 
	  1, 
	  1, 
	  1, 
	  1, 
	  1, 
	  1, 
	  1, 
	  1, 
	  1, 
	  1, 
	  1, 
	  1, 
	  1, 
	  1, 
	  1, 
	  1, 
	  1, 
	  1, 
	  1, 
	  1, 
	  1, 
	  1, 
	  1, 
	  1, 
	  1, 
	  1, 
	  1, 
	  1, 
	  1, 
	  1, 
	  1, 
	  1, 
	  1, 
	  1, 
	  1, 
	  1, 
	  1, 
	  1, 
	  1, 
	  1, 
	  1, 
	  1, 
	  1, 
	  1, 
	  1, 
	  1, 
	  1, 
	  1, 
	  1, 
	  1, 
	  1, 
	  1, 
	  1, 
	  1, 
	  1, 
	  1, 
	  1, 
	  1, 
	  1, 
	  1, 
	  1, 
	  1, 
	  1, 
	  1, 
	  1, 
	  1, 
	  1, 
	  1, 
	  1, 
	  1, 
	  1, 
	  1, 
	  1, 
	  1, 
	  1, 
	  1, 
	  1, 
	  1, 
	  1, 
	  1, 
	  1, 
	  1, 
	  1, 
	  1, 
	  1, 
	  1, 
	  1, 
	  1, 
	  1, 
	  1, 
	  1, 
	  1, 
	  1, 
	  1, 
	  1, 
	  1, 
	  1, 
	  1, 
	  1, 
	  1, 
	  1, 
	  1, 
	  1, 
	  1, 
	  1, 
	  1, 
	  1, 
	  1, 
    ] 
normal Normal { 
vector [ 
	  0.939705  -0.341985   0.000363,
	  0.827331  -0.524290   0.201601,
	  0.470626  -0.882333   0.000017,
	  0.878876   0.357995   0.315304,
	  0.968158   0.250340   0.000237,
	  0.827423  -0.524244  -0.201342,
	  0.878945   0.358100  -0.314992,
	  0.757722  -0.412893   0.505348,
	  0.487856  -0.449279   0.748429,
	 -0.140464  -0.989912  -0.018572,
	 -0.172448  -0.985019   0.000062,
	 -0.114804  -0.987148   0.111169,
	  0.139427  -0.681740   0.718185,
	  0.757720  -0.412901  -0.505344,
	  0.487854  -0.449279  -0.748430,
	 -0.140460  -0.989912   0.018550,
	 -0.114799  -0.987149  -0.111167,
	  0.139432  -0.681740  -0.718185,
	  0.782860   0.622197   0.000196,
	  0.700764   0.604160   0.379368,
	  0.487724   0.404019   0.773883,
	  0.700858   0.604257  -0.379040,
	  0.487721   0.404019  -0.773884,
	  0.122193   0.215105   0.968916,
	 -0.671017  -0.731741   0.119546,
	 -0.745208  -0.666832   0.000136,
	 -0.671032  -0.731752  -0.119399,
	 -0.248725  -0.131081   0.959663,
	 -0.623893  -0.698371   0.350765,
	 -0.646566  -0.683319  -0.339159,
	  0.122192   0.215104  -0.968917,
	 -0.623893  -0.698371  -0.350765,
	 -0.248721  -0.131082  -0.959664,
	 -0.646566  -0.683319   0.339159,
	  0.947494   0.319774   0.000384,
	  0.898289   0.203298   0.389547,
	  0.442867   0.404965   0.799920,
	  0.898401   0.203342  -0.389266,
	  0.442867   0.404961  -0.799922,
	  0.139540   0.174919   0.974645,
	 -0.876186  -0.441793  -0.192655,
	 -0.944145  -0.329530  -0.000081,
	 -0.876184  -0.441790   0.192674,
	 -0.157848  -0.001332   0.987463,
	  0.099509  -0.483567   0.869633,
	 -0.435404  -0.727581  -0.530140,
	  0.139543   0.174914  -0.974645,
	  0.099511  -0.483565  -0.869633,
	 -0.157852  -0.001327  -0.987462,
	 -0.435404  -0.727581   0.530140,
	  0.969750   0.244101   0.000216,
	  0.927154   0.181182   0.327960,
	  0.607739  -0.037733   0.793240,
	  0.927205   0.181211  -0.327801,
	  0.607737  -0.037728  -0.793242,
	  0.305893  -0.184341   0.934049,
	 -0.903785  -0.330962  -0.271363,
	 -0.379735  -0.070654  -0.922393,
	 -0.934840  -0.355070  -0.000160,
	 -0.903804  -0.330993   0.271261,
	 -0.379735  -0.070654   0.922393,
	  0.117988  -0.248053   0.961535,
	  0.135436   0.040316   0.989966,
	  0.087990  -0.972540   0.215461,
	  0.062692  -0.627732   0.775901,
	  0.056708  -0.034424   0.997797,
	  0.602414   0.304190  -0.737947,
	  0.305890  -0.184336  -0.934051,
	  0.135443   0.040313  -0.989965,
	  0.117991  -0.248054  -0.961534,
	  0.062692  -0.627732  -0.775901,
	  0.087990  -0.972540  -0.215461,
	  0.056708  -0.034424  -0.997797,
	  0.602624   0.304310   0.737726,
	  0.640917   0.767610   0.000193,
	  0.469605   0.809169   0.353153,
	  0.632679   0.003615   0.774405,
	  0.469640   0.809211  -0.353009,
	  0.632680   0.003617  -0.774405,
	  0.281969  -0.217572   0.934428,
	 -0.698434   0.598215  -0.392848,
	 -0.187224  -0.091252  -0.978070,
	 -0.904914   0.425596  -0.000237,
	 -0.698502   0.598237   0.392692,
	 -0.187224  -0.091252   0.978070,
	 -0.011147  -0.203983   0.978911,
	 -0.246427   0.134790   0.959742,
	 -0.083752   0.659354   0.747153,
	 -0.546645  -0.411504   0.729276,
	 -0.431456  -0.573456   0.696415,
	  0.338238  -0.099307   0.935806,
	  0.802134  -0.211459   0.558450,
	  0.086575   0.291856   0.952536,
	 -0.494511  -0.581091   0.646368,
	  0.924273   0.381733  -0.000359,
	  0.941572  -0.081092  -0.326905,
	 -0.736703   0.676217   0.000015,
	 -0.506161   0.376389  -0.775972,
	  0.281972  -0.217572  -0.934427,
	 -0.246427   0.134790  -0.959742,
	 -0.011143  -0.203989  -0.978910,
	 -0.083752   0.659354  -0.747153,
	 -0.431456  -0.573456  -0.696415,
	 -0.546648  -0.411503  -0.729274,
	  0.338238  -0.099307  -0.935806,
	  0.802133  -0.211461  -0.558451,
	 -0.494506  -0.581085  -0.646377,
	  0.086569   0.291854  -0.952537,
	  0.941671  -0.081095   0.326619,
	 -0.506089   0.376446   0.775991,
	 -0.355703   0.934599   0.000001,
	  0.173877   0.823214   0.540449,
	  0.032765   0.549330   0.834963,
	  0.173873   0.823216  -0.540447,
	  0.032765   0.549335  -0.834960,
	 -0.290540   0.377222   0.879369,
	 -0.284926   0.930349  -0.230800,
	 -0.055623   0.924268   0.377671,
	 -0.738422   0.343002  -0.580589,
	 -0.485458   0.770660   0.412811,
	 -0.055623   0.924268  -0.377671,
	 -0.284929   0.930348   0.230800,
	 -0.738420   0.343003   0.580591,
	 -0.485447   0.770673  -0.412800,
	  0.207784   0.627904   0.750042,
	  0.184330   0.729637   0.658523,
	 -0.287569   0.499320   0.817303,
	  0.081655  -0.419758   0.903956,
	  0.028824   0.462476   0.886163,
	 -0.846824  -0.021713   0.531431,
	 -0.136671   0.028624   0.990203,
	 -0.845677  -0.314387  -0.431267,
	 -0.889850  -0.055181  -0.452903,
	  0.936178   0.150077   0.317882,
	 -0.349075   0.177039   0.920219,
	  0.088400   0.007846   0.996054,
	 -0.682564  -0.601947   0.414447,
	 -0.984639  -0.168312   0.046442,
	 -0.007701  -0.999970  -0.000266,
	  0.253944  -0.831617  -0.493887,
	 -0.976749   0.214386   0.000188,
	 -0.815532   0.468397   0.339870,
	 -0.917735   0.346081   0.194911,
	 -0.942319   0.229256  -0.243878,
	 -0.815469   0.468555  -0.339803,
	 -0.917706   0.346234  -0.194775,
	 -0.942302   0.229244   0.243956,
	 -0.760286   0.116798  -0.639002,
	 -0.290538   0.377233  -0.879365,
	  0.207783   0.627902  -0.750044,
	  0.184327   0.729637  -0.658523,
	 -0.136671   0.028624  -0.990203,
	 -0.846824  -0.021713  -0.531431,
	  0.081655  -0.419755  -0.903957,
	 -0.845677  -0.314400   0.431259,
	 -0.889850  -0.055188   0.452902,
	 -0.287576   0.499321  -0.817299,
	  0.028816   0.462476  -0.886163,
	  0.936176   0.150072  -0.317887,
	 -0.349075   0.177039  -0.920219,
	 -0.682555  -0.601945  -0.414464,
	  0.088403   0.007847  -0.996054,
	 -0.984638  -0.168314  -0.046455,
	  0.253856  -0.831745   0.493719,
	 -0.760287   0.116794   0.639001,
	 -0.912147   0.380409  -0.152569,
	 -0.373517   0.156468  -0.914332,
	 -0.912146   0.380410   0.152572,
	 -0.373523   0.156472   0.914329,
	 -0.300605  -0.403147   0.864355,
	 -0.050808  -0.332151   0.941857,
	 -0.906692   0.023067   0.421162,
	 -0.669732  -0.577302   0.467100,
	 -0.559708  -0.726189   0.399220,
	 -0.945094   0.141094   0.294770,
	  0.388258  -0.853574   0.347371,
	  0.074210  -0.915116  -0.396302,
	  0.639515  -0.768779  -0.000223,
	  0.074055  -0.915225   0.396081,
	 -0.832827   0.106214   0.543248,
	 -0.921443   0.388513  -0.000819,
	 -0.802186  -0.042511   0.595559,
	 -0.832885   0.106179  -0.543165,
	 -0.801982  -0.042038  -0.595867,
	 -0.945094   0.141094  -0.294770,
	 -0.669732  -0.577302  -0.467100,
	 -0.906692   0.023067  -0.421162,
	 -0.559708  -0.726189  -0.399220,
	 -0.300604  -0.403143  -0.864357,
	 -0.050808  -0.332151  -0.941857,
	  0.388258  -0.853574  -0.347371,
	 -0.649126   0.032062   0.760005,
	  0.078218  -0.694498   0.715230,
	 -0.090140  -0.989557  -0.112478,
	  0.757222  -0.653158  -0.000027,
	 -0.090140  -0.989557   0.112478,
	  0.078200  -0.694479  -0.715251,
	 -0.848614   0.529011  -0.001416,
	 -0.648041   0.031770  -0.760943,
	 -0.181384   0.209598   0.960817,
	  0.059348  -0.068375   0.995893,
	  0.475100  -0.455902   0.752617,
	  0.371402  -0.928472  -0.000521,
	  0.475073  -0.455857  -0.752662,
	  0.059335  -0.068375  -0.995894,
	 -0.796798  -0.216957   0.563953,
	 -0.874251  -0.485474  -0.001024,
	 -0.180529   0.208840  -0.961143,
	 -0.795674  -0.217036  -0.565508,
	 -0.066056  -0.709027   0.702081,
	 -0.330275  -0.943884  -0.000992,
	 -0.065422  -0.708471  -0.702702,
     ]    } 
normalIndex      [ 
	     0,      1,      2, -1 
	     3,      1,      0, -1 
	     3,      0,      4, -1 
	     2,      5,      0, -1 
	     0,      5,      6, -1 
	     4,      0,      6, -1 
	     1,      7,      2, -1 
	     7,      1,      3, -1 
	     7,      8,      2, -1 
	     9,     10,      2, -1 
	     2,     11,      9, -1 
	    12,     11,      2, -1 
	     2,      8,     12, -1 
	     2,     13,      5, -1 
	     2,     14,     13, -1 
	     2,     10,     15, -1 
	    15,     16,      2, -1 
	     2,     16,     17, -1 
	    17,     14,      2, -1 
	    18,     19,      3, -1 
	    18,      3,      4, -1 
	    20,      3,     19, -1 
	     7,      3,     20, -1 
	     4,      6,     18, -1 
	     6,      5,     13, -1 
	     6,     21,     18, -1 
	    21,      6,     22, -1 
	    22,      6,     13, -1 
	     8,      7,     20, -1 
	     8,     20,     23, -1 
	    12,      8,     23, -1 
	    10,      9,     24, -1 
	    11,     24,      9, -1 
	    10,     24,     25, -1 
	    26,     15,     10, -1 
	    25,     26,     10, -1 
	    27,     28,     11, -1 
	    27,     11,     12, -1 
	    11,     28,     29, -1 
	    11,     29,     24, -1 
	    12,     23,     27, -1 
	    22,     13,     14, -1 
	    30,     22,     14, -1 
	    30,     14,     17, -1 
	    15,     26,     16, -1 
	    16,     31,     32, -1 
	    17,     16,     32, -1 
	    33,     31,     16, -1 
	    26,     33,     16, -1 
	    32,     30,     17, -1 
	    34,     19,     18, -1 
	    18,     21,     34, -1 
	    34,     35,     19, -1 
	    36,     19,     35, -1 
	    20,     19,     36, -1 
	    23,     20,     36, -1 
	    21,     37,     34, -1 
	    37,     21,     38, -1 
	    38,     21,     22, -1 
	    38,     22,     30, -1 
	    23,     36,     39, -1 
	    27,     23,     39, -1 
	    40,     25,     24, -1 
	    40,     24,     29, -1 
	    25,     40,     41, -1 
	    41,     42,     25, -1 
	    26,     25,     42, -1 
	    33,     26,     42, -1 
	    27,     39,     43, -1 
	    43,     28,     27, -1 
	    43,     44,     28, -1 
	    29,     28,     45, -1 
	    28,     44,     45, -1 
	    40,     29,     45, -1 
	    46,     38,     30, -1 
	    46,     30,     32, -1 
	    31,     47,     48, -1 
	    32,     31,     48, -1 
	    49,     31,     33, -1 
	    49,     47,     31, -1 
	    48,     46,     32, -1 
	    49,     33,     42, -1 
	    50,     35,     34, -1 
	    34,     37,     50, -1 
	    50,     51,     35, -1 
	    52,     35,     51, -1 
	    36,     35,     52, -1 
	    39,     36,     52, -1 
	    37,     53,     50, -1 
	    53,     37,     54, -1 
	    54,     37,     38, -1 
	    54,     38,     46, -1 
	    39,     52,     55, -1 
	    43,     39,     55, -1 
	    41,     40,     56, -1 
	    40,     57,     56, -1 
	    40,     45,     57, -1 
	    41,     56,     58, -1 
	    59,     42,     41, -1 
	    58,     59,     41, -1 
	    59,     60,     42, -1 
	    60,     49,     42, -1 
	    43,     55,     61, -1 
	    61,     44,     43, -1 
	    61,     62,     44, -1 
	    63,     44,     64, -1 
	    65,     64,     44, -1 
	    65,     44,     62, -1 
	    44,     63,     45, -1 
	    57,     45,     66, -1 
	    66,     45,     63, -1 
	    67,     54,     46, -1 
	    67,     46,     48, -1 
	    47,     68,     69, -1 
	    48,     47,     69, -1 
	    70,     47,     71, -1 
	    47,     70,     72, -1 
	    68,     47,     72, -1 
	    49,     71,     47, -1 
	    69,     67,     48, -1 
	    73,     49,     60, -1 
	    71,     49,     73, -1 
	    74,     51,     50, -1 
	    50,     53,     74, -1 
	    74,     75,     51, -1 
	    76,     51,     75, -1 
	    52,     51,     76, -1 
	    55,     52,     76, -1 
	    53,     77,     74, -1 
	    77,     53,     78, -1 
	    78,     53,     54, -1 
	    78,     54,     67, -1 
	    55,     76,     79, -1 
	    61,     55,     79, -1 
	    58,     56,     80, -1 
	    56,     57,     81, -1 
	    56,     81,     80, -1 
	    66,     81,     57, -1 
	    58,     80,     82, -1 
	    83,     59,     58, -1 
	    82,     83,     58, -1 
	    84,     60,     59, -1 
	    83,     84,     59, -1 
	    60,     84,     73, -1 
	    61,     79,     85, -1 
	    85,     62,     61, -1 
	    85,     86,     62, -1 
	    87,     65,     62, -1 
	    87,     62,     86, -1 
	    88,     89,     63, -1 
	    88,     63,     90, -1 
	    63,     64,     65, -1 
	    63,     65,     90, -1 
	    63,     89,     91, -1 
	    63,     91,     66, -1 
	    65,     92,     93, -1 
	    65,     93,     90, -1 
	    87,     92,     65, -1 
	    94,     66,     95, -1 
	    66,     94,     96, -1 
	    66,     96,     97, -1 
	    91,     95,     66, -1 
	    66,     97,     81, -1 
	    98,     78,     67, -1 
	    98,     67,     69, -1 
	    68,     99,    100, -1 
	    69,     68,    100, -1 
	    68,     72,    101, -1 
	    99,     68,    101, -1 
	   100,     98,     69, -1 
	    72,     70,     71, -1 
	    71,    102,    103, -1 
	   104,     71,    103, -1 
	   104,     72,     71, -1 
	   105,    102,     71, -1 
	    73,    105,     71, -1 
	   106,    107,     72, -1 
	   104,    106,     72, -1 
	    72,    107,    101, -1 
	   108,     73,     94, -1 
	    96,     94,     73, -1 
	   109,     96,     73, -1 
	    73,    108,    105, -1 
	    84,    109,     73, -1 
	    75,     74,    110, -1 
	   110,     74,     77, -1 
	    76,     75,    111, -1 
	   111,     75,    110, -1 
	   112,     79,     76, -1 
	   112,     76,    111, -1 
	   113,     77,     78, -1 
	   110,     77,    113, -1 
	    78,     98,    114, -1 
	   113,     78,    114, -1 
	   115,     85,     79, -1 
	   115,     79,    112, -1 
	   116,    117,     80, -1 
	    80,    118,    116, -1 
	    80,     97,    118, -1 
	    97,     80,     81, -1 
	    82,     80,    110, -1 
	    80,    119,    110, -1 
	   117,    119,     80, -1 
	   110,     83,     82, -1 
	    83,    120,    121, -1 
	   121,    122,     83, -1 
	   122,    109,     83, -1 
	    84,     83,    109, -1 
	   110,    123,     83, -1 
	    83,    123,    120, -1 
	   115,     86,     85, -1 
	   119,     87,     86, -1 
	   115,    119,     86, -1 
	   119,    117,     87, -1 
	    87,    124,     92, -1 
	   124,     87,    125, -1 
	   125,     87,    117, -1 
	   126,    127,     88, -1 
	   127,     89,     88, -1 
	    88,     90,    124, -1 
	   128,     88,    124, -1 
	   126,     88,    128, -1 
	   129,    130,     89, -1 
	   127,    131,     89, -1 
	    89,    130,     91, -1 
	    89,    132,    129, -1 
	    89,    131,    132, -1 
	    90,     93,    124, -1 
	    95,     91,    133, -1 
	   134,    133,     91, -1 
	   134,     91,    130, -1 
	   124,    135,     92, -1 
	   135,     93,     92, -1 
	   135,    136,     93, -1 
	   136,    137,     93, -1 
	    93,    137,    124, -1 
	    94,     95,    138, -1 
	   138,    108,     94, -1 
	   138,     95,    139, -1 
	    95,    133,    139, -1 
	   140,    141,     96, -1 
	    96,    141,    142, -1 
	    96,    142,    143, -1 
	   143,     97,     96, -1 
	    96,    144,    140, -1 
	   145,    144,     96, -1 
	   146,    145,     96, -1 
	    96,    109,    146, -1 
	   143,    147,     97, -1 
	    97,    147,    118, -1 
	    98,    100,    148, -1 
	   114,     98,    148, -1 
	   100,     99,    148, -1 
	    99,    101,    123, -1 
	    99,    123,    148, -1 
	   101,    120,    123, -1 
	   107,    149,    101, -1 
	   150,    101,    149, -1 
	   120,    101,    150, -1 
	   102,    151,    152, -1 
	   103,    102,    153, -1 
	   102,    154,    153, -1 
	   105,    151,    102, -1 
	   152,    155,    102, -1 
	   155,    154,    102, -1 
	   103,    153,    156, -1 
	   149,    104,    103, -1 
	   149,    103,    157, -1 
	   157,    103,    156, -1 
	   149,    106,    104, -1 
	   158,    105,    108, -1 
	   105,    158,    159, -1 
	   151,    105,    159, -1 
	   106,    160,    161, -1 
	   107,    106,    161, -1 
	   106,    162,    160, -1 
	   149,    162,    106, -1 
	   107,    161,    149, -1 
	   163,    108,    138, -1 
	   163,    158,    108, -1 
	   109,    164,    146, -1 
	   122,    164,    109, -1 
	   112,    111,    110, -1 
	   115,    112,    110, -1 
	   119,    115,    110, -1 
	   110,    113,    114, -1 
	   110,    114,    148, -1 
	   110,    148,    123, -1 
	   117,    116,    125, -1 
	   126,    125,    116, -1 
	   165,    126,    116, -1 
	   165,    116,    166, -1 
	   116,    147,    166, -1 
	   147,    116,    118, -1 
	   150,    121,    120, -1 
	   121,    150,    156, -1 
	   121,    156,    167, -1 
	   168,    121,    167, -1 
	   168,    164,    121, -1 
	   122,    121,    164, -1 
	   124,    137,    135, -1 
	   124,    125,    128, -1 
	   126,    128,    125, -1 
	   126,    169,    127, -1 
	   169,    126,    165, -1 
	   127,    169,    170, -1 
	   131,    127,    170, -1 
	   134,    130,    129, -1 
	   129,    171,    172, -1 
	   129,    172,    173, -1 
	   129,    173,    134, -1 
	   171,    129,    174, -1 
	   132,    174,    129, -1 
	   131,    170,    165, -1 
	   131,    165,    166, -1 
	   147,    132,    131, -1 
	   147,    131,    166, -1 
	   143,    132,    147, -1 
	   174,    132,    142, -1 
	   142,    132,    143, -1 
	   134,    175,    133, -1 
	   133,    175,    139, -1 
	   134,    173,    175, -1 
	   135,    137,    136, -1 
	   138,    139,    176, -1 
	   138,    176,    177, -1 
	   178,    163,    138, -1 
	   177,    178,    138, -1 
	   139,    175,    176, -1 
	   179,    141,    140, -1 
	   140,    180,    181, -1 
	   140,    181,    179, -1 
	   140,    144,    182, -1 
	   183,    180,    140, -1 
	   182,    183,    140, -1 
	   179,    142,    141, -1 
	   179,    174,    142, -1 
	   144,    145,    182, -1 
	   145,    184,    182, -1 
	   145,    155,    184, -1 
	   146,    155,    145, -1 
	   164,    155,    146, -1 
	   161,    162,    149, -1 
	   157,    150,    149, -1 
	   150,    157,    156, -1 
	   152,    151,    159, -1 
	   185,    186,    152, -1 
	   187,    185,    152, -1 
	   159,    187,    152, -1 
	   184,    152,    186, -1 
	   152,    184,    155, -1 
	   153,    188,    156, -1 
	   189,    188,    153, -1 
	   189,    153,    154, -1 
	   167,    189,    154, -1 
	   168,    167,    154, -1 
	   154,    155,    164, -1 
	   168,    154,    164, -1 
	   167,    156,    188, -1 
	   158,    190,    159, -1 
	   163,    190,    158, -1 
	   190,    187,    159, -1 
	   160,    162,    161, -1 
	   178,    190,    163, -1 
	   169,    165,    170, -1 
	   189,    167,    188, -1 
	   181,    171,    174, -1 
	   191,    172,    171, -1 
	   191,    171,    181, -1 
	   192,    193,    172, -1 
	   192,    172,    191, -1 
	   193,    173,    172, -1 
	   193,    175,    173, -1 
	   181,    174,    179, -1 
	   176,    175,    193, -1 
	   176,    193,    192, -1 
	   176,    192,    194, -1 
	   177,    176,    194, -1 
	   194,    178,    177, -1 
	   195,    190,    178, -1 
	   196,    195,    178, -1 
	   194,    196,    178, -1 
	   180,    197,    191, -1 
	   180,    191,    181, -1 
	   198,    197,    180, -1 
	   183,    198,    180, -1 
	   182,    184,    183, -1 
	   184,    186,    183, -1 
	   183,    186,    198, -1 
	   186,    185,    198, -1 
	   185,    195,    196, -1 
	   198,    185,    196, -1 
	   185,    187,    195, -1 
	   187,    190,    195, -1 
	   197,    199,    191, -1 
	   200,    192,    191, -1 
	   200,    191,    199, -1 
	   201,    194,    192, -1 
	   201,    192,    200, -1 
	   194,    201,    202, -1 
	   202,    203,    194, -1 
	   196,    194,    203, -1 
	   198,    196,    204, -1 
	   204,    196,    203, -1 
	   197,    205,    199, -1 
	   206,    205,    197, -1 
	   207,    208,    197, -1 
	   198,    207,    197, -1 
	   197,    208,    206, -1 
	   207,    198,    204, -1 
	   201,    200,    199, -1 
	   201,    199,    209, -1 
	   205,    209,    199, -1 
	   202,    201,    209, -1 
	   202,    209,    210, -1 
	   211,    203,    202, -1 
	   210,    211,    202, -1 
	   207,    204,    203, -1 
	   211,    207,    203, -1 
	   210,    209,    205, -1 
	   210,    205,    206, -1 
	   206,    208,    210, -1 
	   207,    211,    208, -1 
	   208,    211,    210, -1 
    ] 
normalPerVertex  TRUE 
   } 
  } 
 ] 
} 
