#VRML V2.0 utf8 
Transform { 
 children [ 
    Shape { 
appearance Appearance {
              material DEF surface Material {
              diffuseColor 0.8 0.8 0.8
              ambientIntensity 0.2
              specularColor 0.4 0.4 0.4
              emissiveColor 0 0 0
              shininess 0.25
              transparency 0
            }
          }
   geometry IndexedFaceSet { 
   solid FALSE 
    coord DEF bone Coordinate{ 
     point [ 
	 -0.057064   0.172236   0.000024,
	 -0.057841   0.172429   0.007987,
	 -0.071072   0.170462   0.000003,
	 -0.056992   0.176354   0.009581,
	 -0.056394   0.173796   0.000026,
	 -0.057841   0.172429  -0.007987,
	 -0.056992   0.176354  -0.009581,
	 -0.062133   0.172421   0.016272,
	 -0.068941   0.171786   0.020303,
	 -0.083497   0.168103   0.004802,
	 -0.083666   0.168354   0.000003,
	 -0.083901   0.168293   0.014136,
	 -0.079636   0.170115   0.020412,
	 -0.062133   0.172421  -0.016272,
	 -0.068941   0.171786  -0.020303,
	 -0.083497   0.168103  -0.004802,
	 -0.083901   0.168293  -0.014136,
	 -0.079636   0.170115  -0.020412,
	 -0.057620   0.178029   0.000026,
	 -0.059021   0.178314   0.010257,
	 -0.062387   0.176518   0.017288,
	 -0.059021   0.178314  -0.010257,
	 -0.062387   0.176518  -0.017288,
	 -0.070626   0.176269   0.020998,
	 -0.087802   0.170832   0.004942,
	 -0.087751   0.170716   0.000003,
	 -0.087802   0.170832  -0.004942,
	 -0.081569   0.174959   0.021147,
	 -0.086963   0.168508   0.015875,
	 -0.088935   0.172068   0.009393,
	 -0.070626   0.176269  -0.020998,
	 -0.086963   0.168508  -0.015875,
	 -0.081569   0.174959  -0.021147,
	 -0.088935   0.172068  -0.009393,
	 -0.058524   0.187089   0.000029,
	 -0.059832   0.185950   0.009900,
	 -0.064634   0.178982   0.016856,
	 -0.059832   0.185950  -0.009899,
	 -0.064634   0.178982  -0.016856,
	 -0.071234   0.180193   0.019102,
	 -0.088428   0.177599   0.006337,
	 -0.087926   0.177671   0.000005,
	 -0.088428   0.177599  -0.006337,
	 -0.081897   0.178411   0.020014,
	 -0.087078   0.176458   0.018925,
	 -0.090389   0.177952   0.009692,
	 -0.071234   0.180193  -0.019102,
	 -0.087078   0.176458  -0.018925,
	 -0.081897   0.178411  -0.020014,
	 -0.090389   0.177952  -0.009692,
	 -0.058415   0.190716   0.000030,
	 -0.059001   0.190299   0.010950,
	 -0.065867   0.185930   0.017504,
	 -0.059001   0.190299  -0.010950,
	 -0.065867   0.185930  -0.017504,
	 -0.070899   0.185630   0.019190,
	 -0.090774   0.186757   0.006548,
	 -0.092842   0.186985   0.010134,
	 -0.090043   0.186915   0.000007,
	 -0.090774   0.186757  -0.006548,
	 -0.092842   0.186985  -0.010134,
	 -0.081275   0.185123   0.020158,
	 -0.086247   0.185621   0.020550,
	 -0.093256   0.175549   0.017049,
	 -0.090673   0.178355   0.020902,
	 -0.092888   0.184921   0.024994,
	 -0.099118   0.178832   0.003720,
	 -0.070899   0.185630  -0.019190,
	 -0.086247   0.185621  -0.020550,
	 -0.081275   0.185123  -0.020158,
	 -0.090673   0.178355  -0.020902,
	 -0.093256   0.175549  -0.017049,
	 -0.092888   0.184921  -0.024994,
	 -0.099118   0.178832  -0.003720,
	 -0.059045   0.194709   0.000031,
	 -0.059872   0.194421   0.011151,
	 -0.064285   0.189504   0.018528,
	 -0.059872   0.194421  -0.011151,
	 -0.064285   0.189504  -0.018528,
	 -0.070499   0.188515   0.021218,
	 -0.092094   0.193257   0.008348,
	 -0.092684   0.191638   0.010881,
	 -0.090301   0.192563   0.000009,
	 -0.092094   0.193257  -0.008348,
	 -0.092684   0.191638  -0.010881,
	 -0.079482   0.189181   0.022241,
	 -0.087742   0.189487   0.019859,
	 -0.094311   0.190086   0.019906,
	 -0.102777   0.181816   0.023072,
	 -0.100475   0.178209   0.017146,
	 -0.096870   0.173002   0.024679,
	 -0.094989   0.172956   0.010508,
	 -0.097240   0.181356   0.023736,
	 -0.098177   0.174844   0.021578,
	 -0.099134   0.173834   0.000004,
	 -0.097226   0.165194   0.005103,
	 -0.107968   0.179022   0.000005,
	 -0.102061   0.183987   0.007700,
	 -0.070499   0.188515  -0.021218,
	 -0.087742   0.189487  -0.019859,
	 -0.079482   0.189181  -0.022241,
	 -0.094311   0.190086  -0.019906,
	 -0.100475   0.178209  -0.017146,
	 -0.102777   0.181816  -0.023072,
	 -0.096870   0.173002  -0.024679,
	 -0.094989   0.172956  -0.010508,
	 -0.098177   0.174844  -0.021578,
	 -0.097240   0.181356  -0.023736,
	 -0.097226   0.165194  -0.005103,
	 -0.102061   0.183987  -0.007700,
	 -0.074673   0.193636   0.000009,
	 -0.064981   0.193830   0.018784,
	 -0.072118   0.193436   0.022243,
	 -0.064981   0.193830  -0.018784,
	 -0.072118   0.193436  -0.022243,
	 -0.081277   0.192318   0.022379,
	 -0.101926   0.192316   0.015963,
	 -0.094207   0.191748   0.014072,
	 -0.101381   0.189928   0.010040,
	 -0.090105   0.192971   0.017079,
	 -0.094207   0.191748  -0.014072,
	 -0.101926   0.192316  -0.015963,
	 -0.101381   0.189928  -0.010040,
	 -0.090105   0.192971  -0.017079,
	 -0.100195   0.186001   0.021186,
	 -0.099557   0.188891   0.018352,
	 -0.115085   0.190181   0.034704,
	 -0.108284   0.182585   0.021043,
	 -0.103327   0.187079   0.021225,
	 -0.106808   0.170262   0.012613,
	 -0.102552   0.172141   0.015440,
	 -0.114606   0.181379   0.025270,
	 -0.106237   0.180401   0.012650,
	 -0.095290   0.171058   0.011971,
	 -0.106185   0.166684   0.017007,
	 -0.101175   0.181227   0.026253,
	 -0.102557   0.179093   0.023941,
	 -0.104413   0.185287   0.024279,
	 -0.100516   0.169458   0.000003,
	 -0.096831   0.164315   0.006687,
	 -0.113349   0.169209   0.000004,
	 -0.108647   0.175746   0.004946,
	 -0.104601   0.175231   0.008282,
	 -0.105056   0.179079   0.010379,
	 -0.108647   0.175746  -0.004946,
	 -0.104601   0.175231  -0.008282,
	 -0.105056   0.179079  -0.010379,
	 -0.103218   0.184330   0.011325,
	 -0.081277   0.192318  -0.022379,
	 -0.100195   0.186001  -0.021186,
	 -0.099557   0.188891  -0.018352,
	 -0.102552   0.172141  -0.015440,
	 -0.106808   0.170262  -0.012613,
	 -0.108284   0.182585  -0.021043,
	 -0.114606   0.181379  -0.025270,
	 -0.106237   0.180401  -0.012650,
	 -0.115085   0.190181  -0.034704,
	 -0.103327   0.187079  -0.021225,
	 -0.095290   0.171058  -0.011971,
	 -0.106185   0.166684  -0.017007,
	 -0.102557   0.179093  -0.023941,
	 -0.101175   0.181227  -0.026253,
	 -0.104413   0.185287  -0.024279,
	 -0.096831   0.164315  -0.006687,
	 -0.103218   0.184330  -0.011325,
	 -0.120377   0.186777   0.029089,
	 -0.107399   0.185508   0.013891,
	 -0.120377   0.186777  -0.029089,
	 -0.107399   0.185508  -0.013891,
	 -0.118371   0.185668   0.038453,
	 -0.119924   0.183445   0.029880,
	 -0.108928   0.167502   0.010239,
	 -0.108616   0.163493   0.009688,
	 -0.105393   0.160858   0.016765,
	 -0.106893   0.172111   0.008830,
	 -0.097763   0.162195   0.013289,
	 -0.099605   0.166822   0.005318,
	 -0.102576   0.164566   0.000001,
	 -0.099605   0.166822  -0.005318,
	 -0.112050   0.171587   0.004177,
	 -0.117140   0.163747  -0.000016,
	 -0.111235   0.167665   0.004063,
	 -0.112050   0.171587  -0.004177,
	 -0.111235   0.167665  -0.004063,
	 -0.106893   0.172111  -0.008830,
	 -0.108616   0.163493  -0.009688,
	 -0.108928   0.167502  -0.010239,
	 -0.105393   0.160858  -0.016765,
	 -0.118371   0.185668  -0.038453,
	 -0.119924   0.183445  -0.029880,
	 -0.097763   0.162195  -0.013289,
	 -0.110953   0.163857   0.004239,
	 -0.109744   0.162094   0.004970,
	 -0.104441   0.161483   0.007621,
	 -0.109045   0.157770  -0.000000,
	 -0.104441   0.161483  -0.007621,
	 -0.109744   0.162094  -0.004970,
	 -0.123066   0.156299  -0.000020,
	 -0.110953   0.163857  -0.004239,
	 -0.115157   0.156916   0.004612,
	 -0.111670   0.155244   0.004629,
	 -0.114835   0.149074   0.003595,
	 -0.116580   0.148319  -0.000003,
	 -0.114835   0.149074  -0.003595,
	 -0.111670   0.155244  -0.004629,
	 -0.124091   0.153077   0.004663,
	 -0.124810   0.151731  -0.000022,
	 -0.115157   0.156916  -0.004612,
	 -0.124091   0.153077  -0.004663,
	 -0.121917   0.150156   0.005430,
	 -0.120707   0.148631  -0.000021,
	 -0.121917   0.150156  -0.005430,
     ]    } 
    coordIndex [ 
	     0,      1,      2, -1 
	     3,      1,      0, -1 
	     3,      0,      4, -1 
	     2,      5,      0, -1 
	     0,      5,      6, -1 
	     4,      0,      6, -1 
	     1,      7,      2, -1 
	     7,      1,      3, -1 
	     7,      8,      2, -1 
	     9,     10,      2, -1 
	     2,     11,      9, -1 
	    12,     11,      2, -1 
	     2,      8,     12, -1 
	     2,     13,      5, -1 
	     2,     14,     13, -1 
	     2,     10,     15, -1 
	    15,     16,      2, -1 
	     2,     16,     17, -1 
	    17,     14,      2, -1 
	    18,     19,      3, -1 
	    18,      3,      4, -1 
	    20,      3,     19, -1 
	     7,      3,     20, -1 
	     4,      6,     18, -1 
	     6,      5,     13, -1 
	     6,     21,     18, -1 
	    21,      6,     22, -1 
	    22,      6,     13, -1 
	     8,      7,     20, -1 
	     8,     20,     23, -1 
	    12,      8,     23, -1 
	    10,      9,     24, -1 
	    11,     24,      9, -1 
	    10,     24,     25, -1 
	    26,     15,     10, -1 
	    25,     26,     10, -1 
	    27,     28,     11, -1 
	    27,     11,     12, -1 
	    11,     28,     29, -1 
	    11,     29,     24, -1 
	    12,     23,     27, -1 
	    22,     13,     14, -1 
	    30,     22,     14, -1 
	    30,     14,     17, -1 
	    15,     26,     16, -1 
	    16,     31,     32, -1 
	    17,     16,     32, -1 
	    33,     31,     16, -1 
	    26,     33,     16, -1 
	    32,     30,     17, -1 
	    34,     19,     18, -1 
	    18,     21,     34, -1 
	    34,     35,     19, -1 
	    36,     19,     35, -1 
	    20,     19,     36, -1 
	    23,     20,     36, -1 
	    21,     37,     34, -1 
	    37,     21,     38, -1 
	    38,     21,     22, -1 
	    38,     22,     30, -1 
	    23,     36,     39, -1 
	    27,     23,     39, -1 
	    40,     25,     24, -1 
	    40,     24,     29, -1 
	    25,     40,     41, -1 
	    41,     42,     25, -1 
	    26,     25,     42, -1 
	    33,     26,     42, -1 
	    27,     39,     43, -1 
	    43,     28,     27, -1 
	    43,     44,     28, -1 
	    29,     28,     45, -1 
	    28,     44,     45, -1 
	    40,     29,     45, -1 
	    46,     38,     30, -1 
	    46,     30,     32, -1 
	    31,     47,     48, -1 
	    32,     31,     48, -1 
	    49,     31,     33, -1 
	    49,     47,     31, -1 
	    48,     46,     32, -1 
	    49,     33,     42, -1 
	    50,     35,     34, -1 
	    34,     37,     50, -1 
	    50,     51,     35, -1 
	    52,     35,     51, -1 
	    36,     35,     52, -1 
	    39,     36,     52, -1 
	    37,     53,     50, -1 
	    53,     37,     54, -1 
	    54,     37,     38, -1 
	    54,     38,     46, -1 
	    39,     52,     55, -1 
	    43,     39,     55, -1 
	    41,     40,     56, -1 
	    40,     57,     56, -1 
	    40,     45,     57, -1 
	    41,     56,     58, -1 
	    59,     42,     41, -1 
	    58,     59,     41, -1 
	    59,     60,     42, -1 
	    60,     49,     42, -1 
	    43,     55,     61, -1 
	    61,     44,     43, -1 
	    61,     62,     44, -1 
	    63,     44,     64, -1 
	    65,     64,     44, -1 
	    65,     44,     62, -1 
	    44,     63,     45, -1 
	    57,     45,     66, -1 
	    66,     45,     63, -1 
	    67,     54,     46, -1 
	    67,     46,     48, -1 
	    47,     68,     69, -1 
	    48,     47,     69, -1 
	    70,     47,     71, -1 
	    47,     70,     72, -1 
	    68,     47,     72, -1 
	    49,     71,     47, -1 
	    69,     67,     48, -1 
	    73,     49,     60, -1 
	    71,     49,     73, -1 
	    74,     51,     50, -1 
	    50,     53,     74, -1 
	    74,     75,     51, -1 
	    76,     51,     75, -1 
	    52,     51,     76, -1 
	    55,     52,     76, -1 
	    53,     77,     74, -1 
	    77,     53,     78, -1 
	    78,     53,     54, -1 
	    78,     54,     67, -1 
	    55,     76,     79, -1 
	    61,     55,     79, -1 
	    58,     56,     80, -1 
	    56,     57,     81, -1 
	    56,     81,     80, -1 
	    66,     81,     57, -1 
	    58,     80,     82, -1 
	    83,     59,     58, -1 
	    82,     83,     58, -1 
	    84,     60,     59, -1 
	    83,     84,     59, -1 
	    60,     84,     73, -1 
	    61,     79,     85, -1 
	    85,     62,     61, -1 
	    85,     86,     62, -1 
	    87,     65,     62, -1 
	    87,     62,     86, -1 
	    88,     89,     63, -1 
	    88,     63,     90, -1 
	    63,     64,     65, -1 
	    63,     65,     90, -1 
	    63,     89,     91, -1 
	    63,     91,     66, -1 
	    65,     92,     93, -1 
	    65,     93,     90, -1 
	    87,     92,     65, -1 
	    94,     66,     95, -1 
	    66,     94,     96, -1 
	    66,     96,     97, -1 
	    91,     95,     66, -1 
	    66,     97,     81, -1 
	    98,     78,     67, -1 
	    98,     67,     69, -1 
	    68,     99,    100, -1 
	    69,     68,    100, -1 
	    68,     72,    101, -1 
	    99,     68,    101, -1 
	   100,     98,     69, -1 
	    72,     70,     71, -1 
	    71,    102,    103, -1 
	   104,     71,    103, -1 
	   104,     72,     71, -1 
	   105,    102,     71, -1 
	    73,    105,     71, -1 
	   106,    107,     72, -1 
	   104,    106,     72, -1 
	    72,    107,    101, -1 
	   108,     73,     94, -1 
	    96,     94,     73, -1 
	   109,     96,     73, -1 
	    73,    108,    105, -1 
	    84,    109,     73, -1 
	    75,     74,    110, -1 
	   110,     74,     77, -1 
	    76,     75,    111, -1 
	   111,     75,    110, -1 
	   112,     79,     76, -1 
	   112,     76,    111, -1 
	   113,     77,     78, -1 
	   110,     77,    113, -1 
	    78,     98,    114, -1 
	   113,     78,    114, -1 
	   115,     85,     79, -1 
	   115,     79,    112, -1 
	   116,    117,     80, -1 
	    80,    118,    116, -1 
	    80,     97,    118, -1 
	    97,     80,     81, -1 
	    82,     80,    110, -1 
	    80,    119,    110, -1 
	   117,    119,     80, -1 
	   110,     83,     82, -1 
	    83,    120,    121, -1 
	   121,    122,     83, -1 
	   122,    109,     83, -1 
	    84,     83,    109, -1 
	   110,    123,     83, -1 
	    83,    123,    120, -1 
	   115,     86,     85, -1 
	   119,     87,     86, -1 
	   115,    119,     86, -1 
	   119,    117,     87, -1 
	    87,    124,     92, -1 
	   124,     87,    125, -1 
	   125,     87,    117, -1 
	   126,    127,     88, -1 
	   127,     89,     88, -1 
	    88,     90,    124, -1 
	   128,     88,    124, -1 
	   126,     88,    128, -1 
	   129,    130,     89, -1 
	   127,    131,     89, -1 
	    89,    130,     91, -1 
	    89,    132,    129, -1 
	    89,    131,    132, -1 
	    90,     93,    124, -1 
	    95,     91,    133, -1 
	   134,    133,     91, -1 
	   134,     91,    130, -1 
	   124,    135,     92, -1 
	   135,     93,     92, -1 
	   135,    136,     93, -1 
	   136,    137,     93, -1 
	    93,    137,    124, -1 
	    94,     95,    138, -1 
	   138,    108,     94, -1 
	   138,     95,    139, -1 
	    95,    133,    139, -1 
	   140,    141,     96, -1 
	    96,    141,    142, -1 
	    96,    142,    143, -1 
	   143,     97,     96, -1 
	    96,    144,    140, -1 
	   145,    144,     96, -1 
	   146,    145,     96, -1 
	    96,    109,    146, -1 
	   143,    147,     97, -1 
	    97,    147,    118, -1 
	    98,    100,    148, -1 
	   114,     98,    148, -1 
	   100,     99,    148, -1 
	    99,    101,    123, -1 
	    99,    123,    148, -1 
	   101,    120,    123, -1 
	   107,    149,    101, -1 
	   150,    101,    149, -1 
	   120,    101,    150, -1 
	   102,    151,    152, -1 
	   103,    102,    153, -1 
	   102,    154,    153, -1 
	   105,    151,    102, -1 
	   152,    155,    102, -1 
	   155,    154,    102, -1 
	   103,    153,    156, -1 
	   149,    104,    103, -1 
	   149,    103,    157, -1 
	   157,    103,    156, -1 
	   149,    106,    104, -1 
	   158,    105,    108, -1 
	   105,    158,    159, -1 
	   151,    105,    159, -1 
	   106,    160,    161, -1 
	   107,    106,    161, -1 
	   106,    162,    160, -1 
	   149,    162,    106, -1 
	   107,    161,    149, -1 
	   163,    108,    138, -1 
	   163,    158,    108, -1 
	   109,    164,    146, -1 
	   122,    164,    109, -1 
	   112,    111,    110, -1 
	   115,    112,    110, -1 
	   119,    115,    110, -1 
	   110,    113,    114, -1 
	   110,    114,    148, -1 
	   110,    148,    123, -1 
	   117,    116,    125, -1 
	   126,    125,    116, -1 
	   165,    126,    116, -1 
	   165,    116,    166, -1 
	   116,    147,    166, -1 
	   147,    116,    118, -1 
	   150,    121,    120, -1 
	   121,    150,    156, -1 
	   121,    156,    167, -1 
	   168,    121,    167, -1 
	   168,    164,    121, -1 
	   122,    121,    164, -1 
	   124,    137,    135, -1 
	   124,    125,    128, -1 
	   126,    128,    125, -1 
	   126,    169,    127, -1 
	   169,    126,    165, -1 
	   127,    169,    170, -1 
	   131,    127,    170, -1 
	   134,    130,    129, -1 
	   129,    171,    172, -1 
	   129,    172,    173, -1 
	   129,    173,    134, -1 
	   171,    129,    174, -1 
	   132,    174,    129, -1 
	   131,    170,    165, -1 
	   131,    165,    166, -1 
	   147,    132,    131, -1 
	   147,    131,    166, -1 
	   143,    132,    147, -1 
	   174,    132,    142, -1 
	   142,    132,    143, -1 
	   134,    175,    133, -1 
	   133,    175,    139, -1 
	   134,    173,    175, -1 
	   135,    137,    136, -1 
	   138,    139,    176, -1 
	   138,    176,    177, -1 
	   178,    163,    138, -1 
	   177,    178,    138, -1 
	   139,    175,    176, -1 
	   179,    141,    140, -1 
	   140,    180,    181, -1 
	   140,    181,    179, -1 
	   140,    144,    182, -1 
	   183,    180,    140, -1 
	   182,    183,    140, -1 
	   179,    142,    141, -1 
	   179,    174,    142, -1 
	   144,    145,    182, -1 
	   145,    184,    182, -1 
	   145,    155,    184, -1 
	   146,    155,    145, -1 
	   164,    155,    146, -1 
	   161,    162,    149, -1 
	   157,    150,    149, -1 
	   150,    157,    156, -1 
	   152,    151,    159, -1 
	   185,    186,    152, -1 
	   187,    185,    152, -1 
	   159,    187,    152, -1 
	   184,    152,    186, -1 
	   152,    184,    155, -1 
	   153,    188,    156, -1 
	   189,    188,    153, -1 
	   189,    153,    154, -1 
	   167,    189,    154, -1 
	   168,    167,    154, -1 
	   154,    155,    164, -1 
	   168,    154,    164, -1 
	   167,    156,    188, -1 
	   158,    190,    159, -1 
	   163,    190,    158, -1 
	   190,    187,    159, -1 
	   160,    162,    161, -1 
	   178,    190,    163, -1 
	   169,    165,    170, -1 
	   189,    167,    188, -1 
	   181,    171,    174, -1 
	   191,    172,    171, -1 
	   191,    171,    181, -1 
	   192,    193,    172, -1 
	   192,    172,    191, -1 
	   193,    173,    172, -1 
	   193,    175,    173, -1 
	   181,    174,    179, -1 
	   176,    175,    193, -1 
	   176,    193,    192, -1 
	   176,    192,    194, -1 
	   177,    176,    194, -1 
	   194,    178,    177, -1 
	   195,    190,    178, -1 
	   196,    195,    178, -1 
	   194,    196,    178, -1 
	   180,    197,    191, -1 
	   180,    191,    181, -1 
	   198,    197,    180, -1 
	   183,    198,    180, -1 
	   182,    184,    183, -1 
	   184,    186,    183, -1 
	   183,    186,    198, -1 
	   186,    185,    198, -1 
	   185,    195,    196, -1 
	   198,    185,    196, -1 
	   185,    187,    195, -1 
	   187,    190,    195, -1 
	   197,    199,    191, -1 
	   200,    192,    191, -1 
	   200,    191,    199, -1 
	   201,    194,    192, -1 
	   201,    192,    200, -1 
	   194,    201,    202, -1 
	   202,    203,    194, -1 
	   196,    194,    203, -1 
	   198,    196,    204, -1 
	   204,    196,    203, -1 
	   197,    205,    199, -1 
	   206,    205,    197, -1 
	   207,    208,    197, -1 
	   198,    207,    197, -1 
	   197,    208,    206, -1 
	   207,    198,    204, -1 
	   201,    200,    199, -1 
	   201,    199,    209, -1 
	   205,    209,    199, -1 
	   202,    201,    209, -1 
	   202,    209,    210, -1 
	   211,    203,    202, -1 
	   210,    211,    202, -1 
	   207,    204,    203, -1 
	   211,    207,    203, -1 
	   210,    209,    205, -1 
	   210,    205,    206, -1 
	   206,    208,    210, -1 
	   207,    211,    208, -1 
	   208,    211,    210, -1 
    ] 
   colorPerVertex FALSE 
    colorIndex [ 
	  1, 
	  1, 
	  1, 
	  1, 
	  1, 
	  1, 
	  1, 
	  1, 
	  1, 
	  1, 
	  1, 
	  1, 
	  1, 
	  1, 
	  1, 
	  1, 
	  1, 
	  1, 
	  1, 
	  1, 
	  1, 
	  1, 
	  1, 
	  1, 
	  1, 
	  1, 
	  1, 
	  1, 
	  1, 
	  1, 
	  1, 
	  1, 
	  1, 
	  1, 
	  1, 
	  1, 
	  1, 
	  1, 
	  1, 
	  1, 
	  1, 
	  1, 
	  1, 
	  1, 
	  1, 
	  1, 
	  1, 
	  1, 
	  1, 
	  1, 
	  1, 
	  1, 
	  1, 
	  1, 
	  1, 
	  1, 
	  1, 
	  1, 
	  1, 
	  1, 
	  1, 
	  1, 
	  1, 
	  1, 
	  1, 
	  1, 
	  1, 
	  1, 
	  1, 
	  1, 
	  1, 
	  1, 
	  1, 
	  1, 
	  1, 
	  1, 
	  1, 
	  1, 
	  1, 
	  1, 
	  1, 
	  1, 
	  1, 
	  1, 
	  1, 
	  1, 
	  1, 
	  1, 
	  1, 
	  1, 
	  1, 
	  1, 
	  1, 
	  1, 
	  1, 
	  1, 
	  1, 
	  1, 
	  1, 
	  1, 
	  1, 
	  1, 
	  1, 
	  1, 
	  1, 
	  1, 
	  1, 
	  1, 
	  1, 
	  1, 
	  1, 
	  1, 
	  1, 
	  1, 
	  1, 
	  1, 
	  1, 
	  1, 
	  1, 
	  1, 
	  1, 
	  1, 
	  1, 
	  1, 
	  1, 
	  1, 
	  1, 
	  1, 
	  1, 
	  1, 
	  1, 
	  1, 
	  1, 
	  1, 
	  1, 
	  1, 
	  1, 
	  1, 
	  1, 
	  1, 
	  1, 
	  1, 
	  1, 
	  1, 
	  1, 
	  1, 
	  1, 
	  1, 
	  1, 
	  1, 
	  1, 
	  1, 
	  1, 
	  1, 
	  1, 
	  1, 
	  1, 
	  1, 
	  1, 
	  1, 
	  1, 
	  1, 
	  1, 
	  1, 
	  1, 
	  1, 
	  1, 
	  1, 
	  1, 
	  1, 
	  1, 
	  1, 
	  1, 
	  1, 
	  1, 
	  1, 
	  1, 
	  1, 
	  1, 
	  1, 
	  1, 
	  1, 
	  1, 
	  1, 
	  1, 
	  1, 
	  1, 
	  1, 
	  1, 
	  1, 
	  1, 
	  1, 
	  1, 
	  1, 
	  1, 
	  1, 
	  1, 
	  1, 
	  1, 
	  1, 
	  1, 
	  1, 
	  1, 
	  1, 
	  1, 
	  1, 
	  1, 
	  1, 
	  1, 
	  1, 
	  1, 
	  1, 
    ] 
normal Normal { 
vector [ 
	  0.774588  -0.632466   0.000334,
	  0.606978  -0.772585   0.186254,
	  0.164198  -0.986427   0.000015,
	  0.953679   0.073030   0.291827,
	  0.998232  -0.059440   0.000221,
	  0.607076  -0.772565  -0.186019,
	  0.953761   0.073116  -0.291538,
	  0.592688  -0.644613   0.482902,
	  0.320673  -0.593241   0.738399,
	 -0.190553  -0.981545  -0.016097,
	 -0.307728  -0.951474  -0.000014,
	 -0.242406  -0.955411   0.168612,
	 -0.060506  -0.690041   0.721236,
	  0.592685  -0.644619  -0.482899,
	  0.320672  -0.593244  -0.738397,
	 -0.190550  -0.981546   0.016071,
	 -0.242400  -0.955413  -0.168609,
	 -0.060499  -0.690046  -0.721233,
	  0.926066   0.377362   0.000174,
	  0.850579   0.397591   0.344148,
	  0.619628   0.255712   0.742073,
	  0.850676   0.397651  -0.343837,
	  0.619627   0.255713  -0.742074,
	  0.202954   0.190747   0.960430,
	 -0.769041  -0.638072  -0.037951,
	 -0.930538  -0.366196  -0.000020,
	 -0.769041  -0.638073   0.037947,
	 -0.242492  -0.078019   0.967011,
	 -0.652872  -0.532873   0.538335,
	 -0.848961  -0.486566  -0.206202,
	  0.202953   0.190746  -0.960430,
	 -0.652872  -0.532873  -0.538335,
	 -0.242492  -0.078019  -0.967011,
	 -0.848961  -0.486566   0.206202,
	  0.998164   0.060571   0.000371,
	  0.923584  -0.037319   0.381576,
	  0.567695   0.305324   0.764526,
	  0.923701  -0.037302  -0.381293,
	  0.567695   0.305323  -0.764526,
	  0.186350   0.191666   0.963607,
	 -0.951637  -0.147392  -0.269559,
	 -0.986177  -0.165696  -0.000082,
	 -0.951646  -0.147400   0.269525,
	 -0.148653   0.006164   0.988870,
	 -0.035886  -0.502194   0.864010,
	 -0.665939  -0.605432  -0.435864,
	  0.186350   0.191665  -0.963607,
	 -0.035888  -0.502192  -0.864011,
	 -0.148653   0.006164  -0.988870,
	 -0.665938  -0.605432   0.435866,
	  0.999703  -0.024377   0.000216,
	  0.941336  -0.081063   0.327591,
	  0.575384  -0.200901   0.792825,
	  0.941393  -0.081046  -0.327431,
	  0.575385  -0.200897  -0.792825,
	  0.230762  -0.282581   0.931073,
	 -0.952070  -0.144230  -0.269740,
	 -0.409326  -0.004055  -0.912379,
	 -0.989176  -0.146731  -0.000159,
	 -0.952095  -0.144258   0.269639,
	 -0.409326  -0.004055   0.912379,
	  0.024187  -0.299717   0.953721,
	  0.138634   0.022362   0.990091,
	  0.056109  -0.978957   0.196202,
	 -0.091152  -0.637967   0.764650,
	  0.033629  -0.073329   0.996741,
	  0.650378   0.224670  -0.725626,
	  0.230764  -0.282577  -0.931074,
	  0.138630   0.022358  -0.990092,
	  0.024181  -0.299714  -0.953723,
	 -0.091160  -0.637970  -0.764646,
	  0.056108  -0.978957  -0.196200,
	  0.033629  -0.073328  -0.996741,
	  0.650553   0.224768   0.725438,
	  0.813205   0.581977   0.000183,
	  0.667719   0.661183   0.342036,
	  0.606418  -0.187581   0.772703,
	  0.667758   0.661214  -0.341898,
	  0.606421  -0.187578  -0.772702,
	  0.197111  -0.323518   0.925464,
	 -0.583585   0.742541  -0.328728,
	 -0.241900  -0.018746  -0.970120,
	 -0.740744   0.671787  -0.000228,
	 -0.583638   0.742560   0.328589,
	 -0.241900  -0.018746   0.970120,
	 -0.073189  -0.220695   0.972593,
	 -0.199219   0.221671   0.954554,
	 -0.184223   0.687663   0.702269,
	 -0.114398  -0.575319   0.809890,
	 -0.214658  -0.638581   0.739010,
	  0.483088  -0.116915   0.867731,
	  0.876245  -0.163562   0.453258,
	  0.053443   0.218558   0.974359,
	 -0.439201  -0.658865   0.610737,
	  0.975858   0.218408  -0.000298,
	  0.874941  -0.233019  -0.424477,
	 -0.616807   0.787114   0.000044,
	 -0.487432   0.492636  -0.720916,
	  0.197115  -0.323517  -0.925463,
	 -0.199220   0.221661  -0.954557,
	 -0.073193  -0.220698  -0.972592,
	 -0.184223   0.687661  -0.702271,
	 -0.214656  -0.638581  -0.739011,
	 -0.114398  -0.575317  -0.809891,
	  0.483087  -0.116916  -0.867731,
	  0.876245  -0.163562  -0.453257,
	 -0.439201  -0.658865  -0.610737,
	  0.053443   0.218558  -0.974359,
	  0.874974  -0.233115   0.424355,
	 -0.487347   0.492689   0.720937,
	 -0.050421   0.998728   0.000000,
	  0.401749   0.746407   0.530542,
	  0.207936   0.516232   0.830823,
	  0.401748   0.746409  -0.530540,
	  0.207940   0.516233  -0.830822,
	 -0.156426   0.449842   0.879303,
	 -0.297463   0.949221  -0.102447,
	 -0.152413   0.924613   0.349085,
	 -0.716759   0.487393  -0.498704,
	 -0.219446   0.897887   0.381632,
	 -0.152413   0.924613  -0.349085,
	 -0.297464   0.949221   0.102447,
	 -0.716759   0.487393   0.498704,
	 -0.219436   0.897893  -0.381624,
	  0.217224   0.633576   0.742560,
	  0.213155   0.673869   0.707436,
	  0.450558   0.358475   0.817614,
	  0.326519  -0.650458   0.685777,
	  0.504704   0.265698   0.821388,
	 -0.852057   0.113468   0.511002,
	 -0.022759  -0.003428   0.999735,
	 -0.670948  -0.674488  -0.308049,
	 -0.945984   0.087943  -0.312058,
	  0.924268   0.029042   0.380637,
	 -0.023912   0.225504   0.973949,
	  0.103237   0.008543   0.994620,
	 -0.790634  -0.534310   0.299016,
	 -0.975805   0.085983  -0.201027,
	  0.216940  -0.976185  -0.000120,
	  0.097191  -0.916143  -0.388890,
	 -0.916850   0.399232   0.000216,
	 -0.691184   0.625300   0.362304,
	 -0.871335   0.447560   0.201159,
	 -0.933473   0.284762  -0.218034,
	 -0.691094   0.625493  -0.362142,
	 -0.871291   0.447717  -0.200999,
	 -0.933461   0.284751   0.218102,
	 -0.814942   0.239380  -0.527794,
	 -0.156422   0.449849  -0.879300,
	  0.217224   0.633576  -0.742560,
	  0.213154   0.673870  -0.707436,
	 -0.022759  -0.003428  -0.999735,
	 -0.852057   0.113468  -0.511002,
	  0.326520  -0.650456  -0.685778,
	 -0.670948  -0.674488   0.308049,
	 -0.945989   0.087935   0.312044,
	  0.450556   0.358480  -0.817613,
	  0.504703   0.265700  -0.821388,
	  0.924268   0.029042  -0.380637,
	 -0.023912   0.225504  -0.973949,
	 -0.790634  -0.534310  -0.299016,
	  0.103237   0.008543  -0.994620,
	 -0.975805   0.085983   0.201027,
	  0.097321  -0.916148   0.388846,
	 -0.814943   0.239385   0.527791,
	 -0.881007   0.330349  -0.338668,
	 -0.656065   0.042355  -0.753515,
	 -0.881007   0.330350   0.338668,
	 -0.656065   0.042355   0.753515,
	 -0.486400  -0.366004   0.793383,
	 -0.511894  -0.814330   0.273553,
	 -0.891161   0.124786   0.436190,
	 -0.781075  -0.471208   0.409738,
	 -0.621708  -0.662988   0.417044,
	 -0.905951   0.339379   0.253131,
	  0.557009  -0.779759   0.285862,
	  0.313053  -0.892483  -0.324764,
	  0.834047  -0.551694  -0.000083,
	  0.313025  -0.892538   0.324640,
	 -0.798599   0.266579   0.539607,
	 -0.894157   0.447753  -0.000860,
	 -0.818183   0.094605   0.567121,
	 -0.798669   0.266565  -0.539511,
	 -0.817852   0.095229  -0.567493,
	 -0.905951   0.339379  -0.253131,
	 -0.781074  -0.471209  -0.409739,
	 -0.891161   0.124786  -0.436190,
	 -0.621709  -0.662988  -0.417044,
	 -0.486399  -0.365997  -0.793386,
	 -0.511894  -0.814330  -0.273553,
	  0.557011  -0.779758  -0.285862,
	 -0.659822   0.036413   0.750539,
	  0.107088  -0.942167   0.317575,
	  0.052325  -0.964319  -0.259520,
	  0.741621  -0.670819   0.000016,
	  0.052326  -0.964318   0.259524,
	  0.107068  -0.942153  -0.317622,
	 -0.766669   0.642041  -0.001369,
	 -0.658732   0.036096  -0.751512,
	 -0.136896   0.212529   0.967518,
	 -0.015552  -0.046701   0.998788,
	  0.613300  -0.658278   0.436501,
	  0.230825  -0.972995  -0.000440,
	  0.613290  -0.658268  -0.436531,
	 -0.015551  -0.046701  -0.998788,
	 -0.835885   0.000808   0.548903,
	 -0.966072  -0.258270  -0.000957,
	 -0.136135   0.211771  -0.967791,
	 -0.834898   0.000493  -0.550404,
	 -0.227579  -0.691111   0.685983,
	 -0.528901  -0.848683  -0.000881,
	 -0.226875  -0.690794  -0.686536,
     ]    } 
normalIndex      [ 
	     0,      1,      2, -1 
	     3,      1,      0, -1 
	     3,      0,      4, -1 
	     2,      5,      0, -1 
	     0,      5,      6, -1 
	     4,      0,      6, -1 
	     1,      7,      2, -1 
	     7,      1,      3, -1 
	     7,      8,      2, -1 
	     9,     10,      2, -1 
	     2,     11,      9, -1 
	    12,     11,      2, -1 
	     2,      8,     12, -1 
	     2,     13,      5, -1 
	     2,     14,     13, -1 
	     2,     10,     15, -1 
	    15,     16,      2, -1 
	     2,     16,     17, -1 
	    17,     14,      2, -1 
	    18,     19,      3, -1 
	    18,      3,      4, -1 
	    20,      3,     19, -1 
	     7,      3,     20, -1 
	     4,      6,     18, -1 
	     6,      5,     13, -1 
	     6,     21,     18, -1 
	    21,      6,     22, -1 
	    22,      6,     13, -1 
	     8,      7,     20, -1 
	     8,     20,     23, -1 
	    12,      8,     23, -1 
	    10,      9,     24, -1 
	    11,     24,      9, -1 
	    10,     24,     25, -1 
	    26,     15,     10, -1 
	    25,     26,     10, -1 
	    27,     28,     11, -1 
	    27,     11,     12, -1 
	    11,     28,     29, -1 
	    11,     29,     24, -1 
	    12,     23,     27, -1 
	    22,     13,     14, -1 
	    30,     22,     14, -1 
	    30,     14,     17, -1 
	    15,     26,     16, -1 
	    16,     31,     32, -1 
	    17,     16,     32, -1 
	    33,     31,     16, -1 
	    26,     33,     16, -1 
	    32,     30,     17, -1 
	    34,     19,     18, -1 
	    18,     21,     34, -1 
	    34,     35,     19, -1 
	    36,     19,     35, -1 
	    20,     19,     36, -1 
	    23,     20,     36, -1 
	    21,     37,     34, -1 
	    37,     21,     38, -1 
	    38,     21,     22, -1 
	    38,     22,     30, -1 
	    23,     36,     39, -1 
	    27,     23,     39, -1 
	    40,     25,     24, -1 
	    40,     24,     29, -1 
	    25,     40,     41, -1 
	    41,     42,     25, -1 
	    26,     25,     42, -1 
	    33,     26,     42, -1 
	    27,     39,     43, -1 
	    43,     28,     27, -1 
	    43,     44,     28, -1 
	    29,     28,     45, -1 
	    28,     44,     45, -1 
	    40,     29,     45, -1 
	    46,     38,     30, -1 
	    46,     30,     32, -1 
	    31,     47,     48, -1 
	    32,     31,     48, -1 
	    49,     31,     33, -1 
	    49,     47,     31, -1 
	    48,     46,     32, -1 
	    49,     33,     42, -1 
	    50,     35,     34, -1 
	    34,     37,     50, -1 
	    50,     51,     35, -1 
	    52,     35,     51, -1 
	    36,     35,     52, -1 
	    39,     36,     52, -1 
	    37,     53,     50, -1 
	    53,     37,     54, -1 
	    54,     37,     38, -1 
	    54,     38,     46, -1 
	    39,     52,     55, -1 
	    43,     39,     55, -1 
	    41,     40,     56, -1 
	    40,     57,     56, -1 
	    40,     45,     57, -1 
	    41,     56,     58, -1 
	    59,     42,     41, -1 
	    58,     59,     41, -1 
	    59,     60,     42, -1 
	    60,     49,     42, -1 
	    43,     55,     61, -1 
	    61,     44,     43, -1 
	    61,     62,     44, -1 
	    63,     44,     64, -1 
	    65,     64,     44, -1 
	    65,     44,     62, -1 
	    44,     63,     45, -1 
	    57,     45,     66, -1 
	    66,     45,     63, -1 
	    67,     54,     46, -1 
	    67,     46,     48, -1 
	    47,     68,     69, -1 
	    48,     47,     69, -1 
	    70,     47,     71, -1 
	    47,     70,     72, -1 
	    68,     47,     72, -1 
	    49,     71,     47, -1 
	    69,     67,     48, -1 
	    73,     49,     60, -1 
	    71,     49,     73, -1 
	    74,     51,     50, -1 
	    50,     53,     74, -1 
	    74,     75,     51, -1 
	    76,     51,     75, -1 
	    52,     51,     76, -1 
	    55,     52,     76, -1 
	    53,     77,     74, -1 
	    77,     53,     78, -1 
	    78,     53,     54, -1 
	    78,     54,     67, -1 
	    55,     76,     79, -1 
	    61,     55,     79, -1 
	    58,     56,     80, -1 
	    56,     57,     81, -1 
	    56,     81,     80, -1 
	    66,     81,     57, -1 
	    58,     80,     82, -1 
	    83,     59,     58, -1 
	    82,     83,     58, -1 
	    84,     60,     59, -1 
	    83,     84,     59, -1 
	    60,     84,     73, -1 
	    61,     79,     85, -1 
	    85,     62,     61, -1 
	    85,     86,     62, -1 
	    87,     65,     62, -1 
	    87,     62,     86, -1 
	    88,     89,     63, -1 
	    88,     63,     90, -1 
	    63,     64,     65, -1 
	    63,     65,     90, -1 
	    63,     89,     91, -1 
	    63,     91,     66, -1 
	    65,     92,     93, -1 
	    65,     93,     90, -1 
	    87,     92,     65, -1 
	    94,     66,     95, -1 
	    66,     94,     96, -1 
	    66,     96,     97, -1 
	    91,     95,     66, -1 
	    66,     97,     81, -1 
	    98,     78,     67, -1 
	    98,     67,     69, -1 
	    68,     99,    100, -1 
	    69,     68,    100, -1 
	    68,     72,    101, -1 
	    99,     68,    101, -1 
	   100,     98,     69, -1 
	    72,     70,     71, -1 
	    71,    102,    103, -1 
	   104,     71,    103, -1 
	   104,     72,     71, -1 
	   105,    102,     71, -1 
	    73,    105,     71, -1 
	   106,    107,     72, -1 
	   104,    106,     72, -1 
	    72,    107,    101, -1 
	   108,     73,     94, -1 
	    96,     94,     73, -1 
	   109,     96,     73, -1 
	    73,    108,    105, -1 
	    84,    109,     73, -1 
	    75,     74,    110, -1 
	   110,     74,     77, -1 
	    76,     75,    111, -1 
	   111,     75,    110, -1 
	   112,     79,     76, -1 
	   112,     76,    111, -1 
	   113,     77,     78, -1 
	   110,     77,    113, -1 
	    78,     98,    114, -1 
	   113,     78,    114, -1 
	   115,     85,     79, -1 
	   115,     79,    112, -1 
	   116,    117,     80, -1 
	    80,    118,    116, -1 
	    80,     97,    118, -1 
	    97,     80,     81, -1 
	    82,     80,    110, -1 
	    80,    119,    110, -1 
	   117,    119,     80, -1 
	   110,     83,     82, -1 
	    83,    120,    121, -1 
	   121,    122,     83, -1 
	   122,    109,     83, -1 
	    84,     83,    109, -1 
	   110,    123,     83, -1 
	    83,    123,    120, -1 
	   115,     86,     85, -1 
	   119,     87,     86, -1 
	   115,    119,     86, -1 
	   119,    117,     87, -1 
	    87,    124,     92, -1 
	   124,     87,    125, -1 
	   125,     87,    117, -1 
	   126,    127,     88, -1 
	   127,     89,     88, -1 
	    88,     90,    124, -1 
	   128,     88,    124, -1 
	   126,     88,    128, -1 
	   129,    130,     89, -1 
	   127,    131,     89, -1 
	    89,    130,     91, -1 
	    89,    132,    129, -1 
	    89,    131,    132, -1 
	    90,     93,    124, -1 
	    95,     91,    133, -1 
	   134,    133,     91, -1 
	   134,     91,    130, -1 
	   124,    135,     92, -1 
	   135,     93,     92, -1 
	   135,    136,     93, -1 
	   136,    137,     93, -1 
	    93,    137,    124, -1 
	    94,     95,    138, -1 
	   138,    108,     94, -1 
	   138,     95,    139, -1 
	    95,    133,    139, -1 
	   140,    141,     96, -1 
	    96,    141,    142, -1 
	    96,    142,    143, -1 
	   143,     97,     96, -1 
	    96,    144,    140, -1 
	   145,    144,     96, -1 
	   146,    145,     96, -1 
	    96,    109,    146, -1 
	   143,    147,     97, -1 
	    97,    147,    118, -1 
	    98,    100,    148, -1 
	   114,     98,    148, -1 
	   100,     99,    148, -1 
	    99,    101,    123, -1 
	    99,    123,    148, -1 
	   101,    120,    123, -1 
	   107,    149,    101, -1 
	   150,    101,    149, -1 
	   120,    101,    150, -1 
	   102,    151,    152, -1 
	   103,    102,    153, -1 
	   102,    154,    153, -1 
	   105,    151,    102, -1 
	   152,    155,    102, -1 
	   155,    154,    102, -1 
	   103,    153,    156, -1 
	   149,    104,    103, -1 
	   149,    103,    157, -1 
	   157,    103,    156, -1 
	   149,    106,    104, -1 
	   158,    105,    108, -1 
	   105,    158,    159, -1 
	   151,    105,    159, -1 
	   106,    160,    161, -1 
	   107,    106,    161, -1 
	   106,    162,    160, -1 
	   149,    162,    106, -1 
	   107,    161,    149, -1 
	   163,    108,    138, -1 
	   163,    158,    108, -1 
	   109,    164,    146, -1 
	   122,    164,    109, -1 
	   112,    111,    110, -1 
	   115,    112,    110, -1 
	   119,    115,    110, -1 
	   110,    113,    114, -1 
	   110,    114,    148, -1 
	   110,    148,    123, -1 
	   117,    116,    125, -1 
	   126,    125,    116, -1 
	   165,    126,    116, -1 
	   165,    116,    166, -1 
	   116,    147,    166, -1 
	   147,    116,    118, -1 
	   150,    121,    120, -1 
	   121,    150,    156, -1 
	   121,    156,    167, -1 
	   168,    121,    167, -1 
	   168,    164,    121, -1 
	   122,    121,    164, -1 
	   124,    137,    135, -1 
	   124,    125,    128, -1 
	   126,    128,    125, -1 
	   126,    169,    127, -1 
	   169,    126,    165, -1 
	   127,    169,    170, -1 
	   131,    127,    170, -1 
	   134,    130,    129, -1 
	   129,    171,    172, -1 
	   129,    172,    173, -1 
	   129,    173,    134, -1 
	   171,    129,    174, -1 
	   132,    174,    129, -1 
	   131,    170,    165, -1 
	   131,    165,    166, -1 
	   147,    132,    131, -1 
	   147,    131,    166, -1 
	   143,    132,    147, -1 
	   174,    132,    142, -1 
	   142,    132,    143, -1 
	   134,    175,    133, -1 
	   133,    175,    139, -1 
	   134,    173,    175, -1 
	   135,    137,    136, -1 
	   138,    139,    176, -1 
	   138,    176,    177, -1 
	   178,    163,    138, -1 
	   177,    178,    138, -1 
	   139,    175,    176, -1 
	   179,    141,    140, -1 
	   140,    180,    181, -1 
	   140,    181,    179, -1 
	   140,    144,    182, -1 
	   183,    180,    140, -1 
	   182,    183,    140, -1 
	   179,    142,    141, -1 
	   179,    174,    142, -1 
	   144,    145,    182, -1 
	   145,    184,    182, -1 
	   145,    155,    184, -1 
	   146,    155,    145, -1 
	   164,    155,    146, -1 
	   161,    162,    149, -1 
	   157,    150,    149, -1 
	   150,    157,    156, -1 
	   152,    151,    159, -1 
	   185,    186,    152, -1 
	   187,    185,    152, -1 
	   159,    187,    152, -1 
	   184,    152,    186, -1 
	   152,    184,    155, -1 
	   153,    188,    156, -1 
	   189,    188,    153, -1 
	   189,    153,    154, -1 
	   167,    189,    154, -1 
	   168,    167,    154, -1 
	   154,    155,    164, -1 
	   168,    154,    164, -1 
	   167,    156,    188, -1 
	   158,    190,    159, -1 
	   163,    190,    158, -1 
	   190,    187,    159, -1 
	   160,    162,    161, -1 
	   178,    190,    163, -1 
	   169,    165,    170, -1 
	   189,    167,    188, -1 
	   181,    171,    174, -1 
	   191,    172,    171, -1 
	   191,    171,    181, -1 
	   192,    193,    172, -1 
	   192,    172,    191, -1 
	   193,    173,    172, -1 
	   193,    175,    173, -1 
	   181,    174,    179, -1 
	   176,    175,    193, -1 
	   176,    193,    192, -1 
	   176,    192,    194, -1 
	   177,    176,    194, -1 
	   194,    178,    177, -1 
	   195,    190,    178, -1 
	   196,    195,    178, -1 
	   194,    196,    178, -1 
	   180,    197,    191, -1 
	   180,    191,    181, -1 
	   198,    197,    180, -1 
	   183,    198,    180, -1 
	   182,    184,    183, -1 
	   184,    186,    183, -1 
	   183,    186,    198, -1 
	   186,    185,    198, -1 
	   185,    195,    196, -1 
	   198,    185,    196, -1 
	   185,    187,    195, -1 
	   187,    190,    195, -1 
	   197,    199,    191, -1 
	   200,    192,    191, -1 
	   200,    191,    199, -1 
	   201,    194,    192, -1 
	   201,    192,    200, -1 
	   194,    201,    202, -1 
	   202,    203,    194, -1 
	   196,    194,    203, -1 
	   198,    196,    204, -1 
	   204,    196,    203, -1 
	   197,    205,    199, -1 
	   206,    205,    197, -1 
	   207,    208,    197, -1 
	   198,    207,    197, -1 
	   197,    208,    206, -1 
	   207,    198,    204, -1 
	   201,    200,    199, -1 
	   201,    199,    209, -1 
	   205,    209,    199, -1 
	   202,    201,    209, -1 
	   202,    209,    210, -1 
	   211,    203,    202, -1 
	   210,    211,    202, -1 
	   207,    204,    203, -1 
	   211,    207,    203, -1 
	   210,    209,    205, -1 
	   210,    205,    206, -1 
	   206,    208,    210, -1 
	   207,    211,    208, -1 
	   208,    211,    210, -1 
    ] 
normalPerVertex  TRUE 
   } 
  } 
 ] 
} 
