#VRML V2.0 utf8 
Transform { 
 children [ 
    Shape { 
appearance Appearance {
              material DEF surface Material {
              diffuseColor 0.8 0.8 0.8
              ambientIntensity 0.2
              specularColor 0.4 0.4 0.4
              emissiveColor 0 0 0
              shininess 0.25
              transparency 0
            }
          }
   geometry IndexedFaceSet { 
   solid FALSE 
    coord DEF bone Coordinate{ 
     point [ 
	 -0.042232   0.338949   0.000106,
	 -0.042708   0.339371   0.007257,
	 -0.052495   0.342628   0.000087,
	 -0.040851   0.342014   0.008689,
	 -0.041265   0.339880   0.000108,
	 -0.042708   0.339371  -0.007088,
	 -0.040851   0.342014  -0.008520,
	 -0.045678   0.340901   0.014698,
	 -0.050592   0.342860   0.018318,
	 -0.061851   0.345303   0.004397,
	 -0.061886   0.345551   0.000087,
	 -0.062069   0.345590   0.012780,
	 -0.058530   0.345431   0.018416,
	 -0.045678   0.340901  -0.014529,
	 -0.050592   0.342860  -0.018149,
	 -0.061851   0.345303  -0.004228,
	 -0.062069   0.345590  -0.012611,
	 -0.058530   0.345431  -0.018247,
	 -0.040744   0.343496   0.000108,
	 -0.041621   0.344211   0.009296,
	 -0.044530   0.344067   0.015610,
	 -0.041621   0.344211  -0.009127,
	 -0.044530   0.344067  -0.015441,
	 -0.050308   0.346827   0.018942,
	 -0.063946   0.348891   0.004523,
	 -0.063948   0.348786   0.000087,
	 -0.063946   0.348891  -0.004354,
	 -0.058300   0.349759   0.019076,
	 -0.064117   0.346847   0.014342,
	 -0.064330   0.350224   0.008520,
	 -0.050308   0.346827  -0.018773,
	 -0.064117   0.346847  -0.014173,
	 -0.058300   0.349759  -0.018907,
	 -0.064330   0.350224  -0.008351,
	 -0.038440   0.350619   0.000110,
	 -0.039712   0.350232   0.008975,
	 -0.045286   0.346720   0.015223,
	 -0.039712   0.350232  -0.008806,
	 -0.045286   0.346720  -0.015053,
	 -0.049460   0.349990   0.017240,
	 -0.062191   0.354194   0.005776,
	 -0.061820   0.354069   0.000089,
	 -0.062191   0.354194  -0.005607,
	 -0.057411   0.352467   0.018059,
	 -0.061626   0.352855   0.017080,
	 -0.063433   0.355161   0.008789,
	 -0.049460   0.349990  -0.017071,
	 -0.061626   0.352855  -0.016911,
	 -0.057411   0.352467  -0.017890,
	 -0.063433   0.355161  -0.008620,
	 -0.037191   0.353303   0.000111,
	 -0.037732   0.353200   0.009919,
	 -0.043893   0.352376   0.015804,
	 -0.037732   0.353200  -0.009750,
	 -0.043893   0.352376  -0.015635,
	 -0.047470   0.353951   0.017319,
	 -0.058799   0.360103   0.005965,
	 -0.060155   0.361013   0.009186,
	 -0.058242   0.359960   0.000091,
	 -0.058799   0.360103  -0.005796,
	 -0.060155   0.361013  -0.009017,
	 -0.054811   0.357283   0.018188,
	 -0.058088   0.359435   0.018540,
	 -0.065517   0.354026   0.015396,
	 -0.063499   0.355565   0.018856,
	 -0.060854   0.359481   0.022531,
	 -0.068269   0.358595   0.003425,
	 -0.047470   0.353951  -0.017150,
	 -0.058088   0.359435  -0.018371,
	 -0.054811   0.357283  -0.018019,
	 -0.063499   0.355565  -0.018687,
	 -0.065517   0.354026  -0.015227,
	 -0.060854   0.359481  -0.022362,
	 -0.068269   0.358595  -0.003256,
	 -0.036336   0.356525   0.000112,
	 -0.037001   0.356604   0.010099,
	 -0.041643   0.354492   0.016724,
	 -0.037001   0.356604  -0.009930,
	 -0.041643   0.354492  -0.016555,
	 -0.046261   0.355974   0.019140,
	 -0.057610   0.365453   0.007582,
	 -0.058541   0.364449   0.009857,
	 -0.056594   0.364291   0.000093,
	 -0.057610   0.365453  -0.007413,
	 -0.058541   0.364449  -0.009688,
	 -0.052258   0.359687   0.020059,
	 -0.055819   0.361067   0.017919,
	 -0.060168   0.363867   0.017961,
	 -0.069835   0.362144   0.020805,
	 -0.069409   0.358613   0.015483,
	 -0.068840   0.353407   0.022248,
	 -0.067554   0.352700   0.009522,
	 -0.066154   0.359818   0.021401,
	 -0.068907   0.355266   0.019463,
	 -0.070137   0.354841   0.000088,
	 -0.075184   0.347140   0.004667,
	 -0.074328   0.361904   0.000089,
	 -0.068637   0.363517   0.007000,
	 -0.046261   0.355974  -0.018971,
	 -0.055819   0.361067  -0.017750,
	 -0.052258   0.359687  -0.019890,
	 -0.060168   0.363867  -0.017792,
	 -0.069409   0.358613  -0.015314,
	 -0.069835   0.362144  -0.020636,
	 -0.068840   0.353407  -0.022079,
	 -0.067554   0.352700  -0.009353,
	 -0.068907   0.355266  -0.019294,
	 -0.066154   0.359818  -0.021232,
	 -0.075184   0.347140  -0.004498,
	 -0.068637   0.363517  -0.006831,
	 -0.047491   0.361310   0.000093,
	 -0.040726   0.357989   0.016954,
	 -0.045789   0.360247   0.020060,
	 -0.040726   0.357989  -0.016785,
	 -0.045789   0.360247  -0.019891,
	 -0.052485   0.362683   0.020183,
	 -0.065851   0.369720   0.014420,
	 -0.059559   0.365077   0.012722,
	 -0.066245   0.367733   0.009102,
	 -0.056326   0.364527   0.015423,
	 -0.059559   0.365077  -0.012553,
	 -0.065851   0.369720  -0.014252,
	 -0.066245   0.367733  -0.008932,
	 -0.056326   0.364527  -0.015254,
	 -0.066695   0.364362   0.019111,
	 -0.065319   0.366302   0.016566,
	 -0.080633   0.377983   0.041375,
	 -0.073395   0.364692   0.018983,
	 -0.068513   0.366291   0.019146,
	 -0.079912   0.353811   0.011412,
	 -0.076621   0.354259   0.013951,
	 -0.078144   0.367377   0.022779,
	 -0.072685   0.362320   0.011445,
	 -0.068376   0.351382   0.010835,
	 -0.080638   0.350902   0.015358,
	 -0.068917   0.361129   0.023661,
	 -0.070563   0.360022   0.021585,
	 -0.069844   0.365334   0.021889,
	 -0.076081   0.351517   0.000087,
	 -0.075195   0.346339   0.006090,
	 -0.084776   0.355360   0.000088,
	 -0.075857   0.359688   0.004527,
	 -0.073225   0.357854   0.007522,
	 -0.072296   0.360905   0.009406,
	 -0.075857   0.359688  -0.004358,
	 -0.073225   0.357854  -0.007353,
	 -0.072296   0.360905  -0.009237,
	 -0.069327   0.364188   0.010256,
	 -0.052485   0.362683  -0.020014,
	 -0.066695   0.364362  -0.018942,
	 -0.065319   0.366302  -0.016397,
	 -0.076621   0.354259  -0.013782,
	 -0.079912   0.353811  -0.011243,
	 -0.073395   0.364692  -0.018814,
	 -0.078144   0.367377  -0.022610,
	 -0.072685   0.362320  -0.011276,
	 -0.080633   0.377983  -0.041060,
	 -0.068513   0.366291  -0.018977,
	 -0.068376   0.351382  -0.010666,
	 -0.080638   0.350902  -0.015189,
	 -0.070563   0.360022  -0.021416,
	 -0.068917   0.361129  -0.023492,
	 -0.069844   0.365334  -0.021720,
	 -0.075195   0.346339  -0.005921,
	 -0.069327   0.364188  -0.010087,
	 -0.085393   0.377321   0.034705,
	 -0.071838   0.366569   0.012560,
	 -0.085393   0.377321  -0.034390,
	 -0.071838   0.366569  -0.012391,
	 -0.084364   0.375771   0.045827,
	 -0.086157   0.374658   0.035645,
	 -0.082271   0.352497   0.009280,
	 -0.083351   0.349377   0.008785,
	 -0.081974   0.346246   0.015140,
	 -0.079373   0.355229   0.008015,
	 -0.076526   0.345081   0.012019,
	 -0.076303   0.349213   0.004860,
	 -0.078826   0.348021   0.000086,
	 -0.076303   0.349213  -0.004691,
	 -0.083109   0.356681   0.003836,
	 -0.092453   0.348637   0.000070,
	 -0.083813   0.353445   0.003734,
	 -0.083109   0.356681  -0.003667,
	 -0.083813   0.353445  -0.003565,
	 -0.079373   0.355229  -0.007846,
	 -0.083351   0.349377  -0.008616,
	 -0.082271   0.352497  -0.009111,
	 -0.081974   0.346246  -0.014972,
	 -0.084364   0.375771  -0.045512,
	 -0.086157   0.374658  -0.035330,
	 -0.076526   0.345081  -0.011850,
	 -0.084850   0.350486   0.003892,
	 -0.084584   0.348730   0.004548,
	 -0.081113   0.346374   0.006929,
	 -0.085499   0.345235   0.000084,
	 -0.081113   0.346374  -0.006760,
	 -0.084584   0.348730  -0.004379,
	 -0.098535   0.342809   0.000108,
	 -0.084850   0.350486  -0.003723,
	 -0.094174   0.340581   0.003010,
	 -0.088131   0.344278   0.004242,
	 -0.096269   0.335246   0.002374,
	 -0.096807   0.335196   0.000124,
	 -0.096269   0.335246  -0.002120,
	 -0.088131   0.344278  -0.004073,
	 -0.100920   0.340845   0.003042,
	 -0.101772   0.340086   0.000113,
	 -0.094174   0.340581  -0.002756,
	 -0.100920   0.340845  -0.002788,
	 -0.100429   0.337880   0.003521,
	 -0.099344   0.336207   0.000108,
	 -0.100429   0.337880  -0.003267,
     ]    } 
    coordIndex [ 
	     0,      1,      2, -1 
	     3,      1,      0, -1 
	     3,      0,      4, -1 
	     2,      5,      0, -1 
	     0,      5,      6, -1 
	     4,      0,      6, -1 
	     1,      7,      2, -1 
	     7,      1,      3, -1 
	     7,      8,      2, -1 
	     9,     10,      2, -1 
	     2,     11,      9, -1 
	    12,     11,      2, -1 
	     2,      8,     12, -1 
	     2,     13,      5, -1 
	     2,     14,     13, -1 
	     2,     10,     15, -1 
	    15,     16,      2, -1 
	     2,     16,     17, -1 
	    17,     14,      2, -1 
	    18,     19,      3, -1 
	    18,      3,      4, -1 
	    20,      3,     19, -1 
	     7,      3,     20, -1 
	     4,      6,     18, -1 
	     6,      5,     13, -1 
	     6,     21,     18, -1 
	    21,      6,     22, -1 
	    22,      6,     13, -1 
	     8,      7,     20, -1 
	     8,     20,     23, -1 
	    12,      8,     23, -1 
	    10,      9,     24, -1 
	    11,     24,      9, -1 
	    10,     24,     25, -1 
	    26,     15,     10, -1 
	    25,     26,     10, -1 
	    27,     28,     11, -1 
	    27,     11,     12, -1 
	    11,     28,     29, -1 
	    11,     29,     24, -1 
	    12,     23,     27, -1 
	    22,     13,     14, -1 
	    30,     22,     14, -1 
	    30,     14,     17, -1 
	    15,     26,     16, -1 
	    16,     31,     32, -1 
	    17,     16,     32, -1 
	    33,     31,     16, -1 
	    26,     33,     16, -1 
	    32,     30,     17, -1 
	    34,     19,     18, -1 
	    18,     21,     34, -1 
	    34,     35,     19, -1 
	    36,     19,     35, -1 
	    20,     19,     36, -1 
	    23,     20,     36, -1 
	    21,     37,     34, -1 
	    37,     21,     38, -1 
	    38,     21,     22, -1 
	    38,     22,     30, -1 
	    23,     36,     39, -1 
	    27,     23,     39, -1 
	    40,     25,     24, -1 
	    40,     24,     29, -1 
	    25,     40,     41, -1 
	    41,     42,     25, -1 
	    26,     25,     42, -1 
	    33,     26,     42, -1 
	    27,     39,     43, -1 
	    43,     28,     27, -1 
	    43,     44,     28, -1 
	    29,     28,     45, -1 
	    28,     44,     45, -1 
	    40,     29,     45, -1 
	    46,     38,     30, -1 
	    46,     30,     32, -1 
	    31,     47,     48, -1 
	    32,     31,     48, -1 
	    49,     31,     33, -1 
	    49,     47,     31, -1 
	    48,     46,     32, -1 
	    49,     33,     42, -1 
	    50,     35,     34, -1 
	    34,     37,     50, -1 
	    50,     51,     35, -1 
	    52,     35,     51, -1 
	    36,     35,     52, -1 
	    39,     36,     52, -1 
	    37,     53,     50, -1 
	    53,     37,     54, -1 
	    54,     37,     38, -1 
	    54,     38,     46, -1 
	    39,     52,     55, -1 
	    43,     39,     55, -1 
	    41,     40,     56, -1 
	    40,     57,     56, -1 
	    40,     45,     57, -1 
	    41,     56,     58, -1 
	    59,     42,     41, -1 
	    58,     59,     41, -1 
	    59,     60,     42, -1 
	    60,     49,     42, -1 
	    43,     55,     61, -1 
	    61,     44,     43, -1 
	    61,     62,     44, -1 
	    63,     44,     64, -1 
	    65,     64,     44, -1 
	    65,     44,     62, -1 
	    44,     63,     45, -1 
	    57,     45,     66, -1 
	    66,     45,     63, -1 
	    67,     54,     46, -1 
	    67,     46,     48, -1 
	    47,     68,     69, -1 
	    48,     47,     69, -1 
	    70,     47,     71, -1 
	    47,     70,     72, -1 
	    68,     47,     72, -1 
	    49,     71,     47, -1 
	    69,     67,     48, -1 
	    73,     49,     60, -1 
	    71,     49,     73, -1 
	    74,     51,     50, -1 
	    50,     53,     74, -1 
	    74,     75,     51, -1 
	    76,     51,     75, -1 
	    52,     51,     76, -1 
	    55,     52,     76, -1 
	    53,     77,     74, -1 
	    77,     53,     78, -1 
	    78,     53,     54, -1 
	    78,     54,     67, -1 
	    55,     76,     79, -1 
	    61,     55,     79, -1 
	    58,     56,     80, -1 
	    56,     57,     81, -1 
	    56,     81,     80, -1 
	    66,     81,     57, -1 
	    58,     80,     82, -1 
	    83,     59,     58, -1 
	    82,     83,     58, -1 
	    84,     60,     59, -1 
	    83,     84,     59, -1 
	    60,     84,     73, -1 
	    61,     79,     85, -1 
	    85,     62,     61, -1 
	    85,     86,     62, -1 
	    87,     65,     62, -1 
	    87,     62,     86, -1 
	    88,     89,     63, -1 
	    88,     63,     90, -1 
	    63,     64,     65, -1 
	    63,     65,     90, -1 
	    63,     89,     91, -1 
	    63,     91,     66, -1 
	    65,     92,     93, -1 
	    65,     93,     90, -1 
	    87,     92,     65, -1 
	    94,     66,     95, -1 
	    66,     94,     96, -1 
	    66,     96,     97, -1 
	    91,     95,     66, -1 
	    66,     97,     81, -1 
	    98,     78,     67, -1 
	    98,     67,     69, -1 
	    68,     99,    100, -1 
	    69,     68,    100, -1 
	    68,     72,    101, -1 
	    99,     68,    101, -1 
	   100,     98,     69, -1 
	    72,     70,     71, -1 
	    71,    102,    103, -1 
	   104,     71,    103, -1 
	   104,     72,     71, -1 
	   105,    102,     71, -1 
	    73,    105,     71, -1 
	   106,    107,     72, -1 
	   104,    106,     72, -1 
	    72,    107,    101, -1 
	   108,     73,     94, -1 
	    96,     94,     73, -1 
	   109,     96,     73, -1 
	    73,    108,    105, -1 
	    84,    109,     73, -1 
	    75,     74,    110, -1 
	   110,     74,     77, -1 
	    76,     75,    111, -1 
	   111,     75,    110, -1 
	   112,     79,     76, -1 
	   112,     76,    111, -1 
	   113,     77,     78, -1 
	   110,     77,    113, -1 
	    78,     98,    114, -1 
	   113,     78,    114, -1 
	   115,     85,     79, -1 
	   115,     79,    112, -1 
	   116,    117,     80, -1 
	    80,    118,    116, -1 
	    80,     97,    118, -1 
	    97,     80,     81, -1 
	    82,     80,    110, -1 
	    80,    119,    110, -1 
	   117,    119,     80, -1 
	   110,     83,     82, -1 
	    83,    120,    121, -1 
	   121,    122,     83, -1 
	   122,    109,     83, -1 
	    84,     83,    109, -1 
	   110,    123,     83, -1 
	    83,    123,    120, -1 
	   115,     86,     85, -1 
	   119,     87,     86, -1 
	   115,    119,     86, -1 
	   119,    117,     87, -1 
	    87,    124,     92, -1 
	   124,     87,    125, -1 
	   125,     87,    117, -1 
	   126,    127,     88, -1 
	   127,     89,     88, -1 
	    88,     90,    124, -1 
	   128,     88,    124, -1 
	   126,     88,    128, -1 
	   129,    130,     89, -1 
	   127,    131,     89, -1 
	    89,    130,     91, -1 
	    89,    132,    129, -1 
	    89,    131,    132, -1 
	    90,     93,    124, -1 
	    95,     91,    133, -1 
	   134,    133,     91, -1 
	   134,     91,    130, -1 
	   124,    135,     92, -1 
	   135,     93,     92, -1 
	   135,    136,     93, -1 
	   136,    137,     93, -1 
	    93,    137,    124, -1 
	    94,     95,    138, -1 
	   138,    108,     94, -1 
	   138,     95,    139, -1 
	    95,    133,    139, -1 
	   140,    141,     96, -1 
	    96,    141,    142, -1 
	    96,    142,    143, -1 
	   143,     97,     96, -1 
	    96,    144,    140, -1 
	   145,    144,     96, -1 
	   146,    145,     96, -1 
	    96,    109,    146, -1 
	   143,    147,     97, -1 
	    97,    147,    118, -1 
	    98,    100,    148, -1 
	   114,     98,    148, -1 
	   100,     99,    148, -1 
	    99,    101,    123, -1 
	    99,    123,    148, -1 
	   101,    120,    123, -1 
	   107,    149,    101, -1 
	   150,    101,    149, -1 
	   120,    101,    150, -1 
	   102,    151,    152, -1 
	   103,    102,    153, -1 
	   102,    154,    153, -1 
	   105,    151,    102, -1 
	   152,    155,    102, -1 
	   155,    154,    102, -1 
	   103,    153,    156, -1 
	   149,    104,    103, -1 
	   149,    103,    157, -1 
	   157,    103,    156, -1 
	   149,    106,    104, -1 
	   158,    105,    108, -1 
	   105,    158,    159, -1 
	   151,    105,    159, -1 
	   106,    160,    161, -1 
	   107,    106,    161, -1 
	   106,    162,    160, -1 
	   149,    162,    106, -1 
	   107,    161,    149, -1 
	   163,    108,    138, -1 
	   163,    158,    108, -1 
	   109,    164,    146, -1 
	   122,    164,    109, -1 
	   112,    111,    110, -1 
	   115,    112,    110, -1 
	   119,    115,    110, -1 
	   110,    113,    114, -1 
	   110,    114,    148, -1 
	   110,    148,    123, -1 
	   117,    116,    125, -1 
	   126,    125,    116, -1 
	   165,    126,    116, -1 
	   165,    116,    166, -1 
	   116,    147,    166, -1 
	   147,    116,    118, -1 
	   150,    121,    120, -1 
	   121,    150,    156, -1 
	   121,    156,    167, -1 
	   168,    121,    167, -1 
	   168,    164,    121, -1 
	   122,    121,    164, -1 
	   124,    137,    135, -1 
	   124,    125,    128, -1 
	   126,    128,    125, -1 
	   126,    169,    127, -1 
	   169,    126,    165, -1 
	   127,    169,    170, -1 
	   131,    127,    170, -1 
	   134,    130,    129, -1 
	   129,    171,    172, -1 
	   129,    172,    173, -1 
	   129,    173,    134, -1 
	   171,    129,    174, -1 
	   132,    174,    129, -1 
	   131,    170,    165, -1 
	   131,    165,    166, -1 
	   147,    132,    131, -1 
	   147,    131,    166, -1 
	   143,    132,    147, -1 
	   174,    132,    142, -1 
	   142,    132,    143, -1 
	   134,    175,    133, -1 
	   133,    175,    139, -1 
	   134,    173,    175, -1 
	   135,    137,    136, -1 
	   138,    139,    176, -1 
	   138,    176,    177, -1 
	   178,    163,    138, -1 
	   177,    178,    138, -1 
	   139,    175,    176, -1 
	   179,    141,    140, -1 
	   140,    180,    181, -1 
	   140,    181,    179, -1 
	   140,    144,    182, -1 
	   183,    180,    140, -1 
	   182,    183,    140, -1 
	   179,    142,    141, -1 
	   179,    174,    142, -1 
	   144,    145,    182, -1 
	   145,    184,    182, -1 
	   145,    155,    184, -1 
	   146,    155,    145, -1 
	   164,    155,    146, -1 
	   161,    162,    149, -1 
	   157,    150,    149, -1 
	   150,    157,    156, -1 
	   152,    151,    159, -1 
	   185,    186,    152, -1 
	   187,    185,    152, -1 
	   159,    187,    152, -1 
	   184,    152,    186, -1 
	   152,    184,    155, -1 
	   153,    188,    156, -1 
	   189,    188,    153, -1 
	   189,    153,    154, -1 
	   167,    189,    154, -1 
	   168,    167,    154, -1 
	   154,    155,    164, -1 
	   168,    154,    164, -1 
	   167,    156,    188, -1 
	   158,    190,    159, -1 
	   163,    190,    158, -1 
	   190,    187,    159, -1 
	   160,    162,    161, -1 
	   178,    190,    163, -1 
	   169,    165,    170, -1 
	   189,    167,    188, -1 
	   181,    171,    174, -1 
	   191,    172,    171, -1 
	   191,    171,    181, -1 
	   192,    193,    172, -1 
	   192,    172,    191, -1 
	   193,    173,    172, -1 
	   193,    175,    173, -1 
	   181,    174,    179, -1 
	   176,    175,    193, -1 
	   176,    193,    192, -1 
	   176,    192,    194, -1 
	   177,    176,    194, -1 
	   194,    178,    177, -1 
	   195,    190,    178, -1 
	   196,    195,    178, -1 
	   194,    196,    178, -1 
	   180,    197,    191, -1 
	   180,    191,    181, -1 
	   198,    197,    180, -1 
	   183,    198,    180, -1 
	   182,    184,    183, -1 
	   184,    186,    183, -1 
	   183,    186,    198, -1 
	   186,    185,    198, -1 
	   185,    195,    196, -1 
	   198,    185,    196, -1 
	   185,    187,    195, -1 
	   187,    190,    195, -1 
	   197,    199,    191, -1 
	   200,    192,    191, -1 
	   200,    191,    199, -1 
	   201,    194,    192, -1 
	   201,    192,    200, -1 
	   194,    201,    202, -1 
	   202,    203,    194, -1 
	   196,    194,    203, -1 
	   198,    196,    204, -1 
	   204,    196,    203, -1 
	   197,    205,    199, -1 
	   206,    205,    197, -1 
	   207,    208,    197, -1 
	   198,    207,    197, -1 
	   197,    208,    206, -1 
	   207,    198,    204, -1 
	   201,    200,    199, -1 
	   201,    199,    209, -1 
	   205,    209,    199, -1 
	   202,    201,    209, -1 
	   202,    209,    210, -1 
	   211,    203,    202, -1 
	   210,    211,    202, -1 
	   207,    204,    203, -1 
	   211,    207,    203, -1 
	   210,    209,    205, -1 
	   210,    205,    206, -1 
	   206,    208,    210, -1 
	   207,    211,    208, -1 
	   208,    211,    210, -1 
    ] 
   colorPerVertex FALSE 
    colorIndex [ 
	  1, 
	  1, 
	  1, 
	  1, 
	  1, 
	  1, 
	  1, 
	  1, 
	  1, 
	  1, 
	  1, 
	  1, 
	  1, 
	  1, 
	  1, 
	  1, 
	  1, 
	  1, 
	  1, 
	  1, 
	  1, 
	  1, 
	  1, 
	  1, 
	  1, 
	  1, 
	  1, 
	  1, 
	  1, 
	  1, 
	  1, 
	  1, 
	  1, 
	  1, 
	  1, 
	  1, 
	  1, 
	  1, 
	  1, 
	  1, 
	  1, 
	  1, 
	  1, 
	  1, 
	  1, 
	  1, 
	  1, 
	  1, 
	  1, 
	  1, 
	  1, 
	  1, 
	  1, 
	  1, 
	  1, 
	  1, 
	  1, 
	  1, 
	  1, 
	  1, 
	  1, 
	  1, 
	  1, 
	  1, 
	  1, 
	  1, 
	  1, 
	  1, 
	  1, 
	  1, 
	  1, 
	  1, 
	  1, 
	  1, 
	  1, 
	  1, 
	  1, 
	  1, 
	  1, 
	  1, 
	  1, 
	  1, 
	  1, 
	  1, 
	  1, 
	  1, 
	  1, 
	  1, 
	  1, 
	  1, 
	  1, 
	  1, 
	  1, 
	  1, 
	  1, 
	  1, 
	  1, 
	  1, 
	  1, 
	  1, 
	  1, 
	  1, 
	  1, 
	  1, 
	  1, 
	  1, 
	  1, 
	  1, 
	  1, 
	  1, 
	  1, 
	  1, 
	  1, 
	  1, 
	  1, 
	  1, 
	  1, 
	  1, 
	  1, 
	  1, 
	  1, 
	  1, 
	  1, 
	  1, 
	  1, 
	  1, 
	  1, 
	  1, 
	  1, 
	  1, 
	  1, 
	  1, 
	  1, 
	  1, 
	  1, 
	  1, 
	  1, 
	  1, 
	  1, 
	  1, 
	  1, 
	  1, 
	  1, 
	  1, 
	  1, 
	  1, 
	  1, 
	  1, 
	  1, 
	  1, 
	  1, 
	  1, 
	  1, 
	  1, 
	  1, 
	  1, 
	  1, 
	  1, 
	  1, 
	  1, 
	  1, 
	  1, 
	  1, 
	  1, 
	  1, 
	  1, 
	  1, 
	  1, 
	  1, 
	  1, 
	  1, 
	  1, 
	  1, 
	  1, 
	  1, 
	  1, 
	  1, 
	  1, 
	  1, 
	  1, 
	  1, 
	  1, 
	  1, 
	  1, 
	  1, 
	  1, 
	  1, 
	  1, 
	  1, 
	  1, 
	  1, 
	  1, 
	  1, 
	  1, 
	  1, 
	  1, 
	  1, 
	  1, 
	  1, 
	  1, 
	  1, 
	  1, 
	  1, 
	  1, 
	  1, 
	  1, 
	  1, 
	  1, 
	  1, 
	  1, 
	  1, 
	  1, 
    ] 
normal Normal { 
vector [ 
	  0.450958  -0.892545   0.000305,
	  0.227088  -0.958477   0.172493,
	 -0.297959  -0.954579   0.000013,
	  0.909953  -0.324840   0.257809,
	  0.890657  -0.454675   0.000199,
	  0.227186  -0.958492  -0.172278,
	  0.910044  -0.324789  -0.257552,
	  0.285100  -0.842157   0.457700,
	  0.048490  -0.683731   0.728121,
	 -0.615915  -0.787682  -0.014367,
	 -0.708712  -0.705498  -0.000010,
	 -0.649994  -0.743891   0.155349,
	 -0.376666  -0.603529   0.702763,
	  0.285097  -0.842160  -0.457697,
	  0.048488  -0.683735  -0.728118,
	 -0.615904  -0.787690   0.014342,
	 -0.649986  -0.743900  -0.155345,
	 -0.376663  -0.603536  -0.702758,
	  0.998912  -0.046644   0.000149,
	  0.953494  -0.000398   0.301412,
	  0.719051  -0.037126   0.693965,
	  0.953580  -0.000386  -0.301141,
	  0.719052  -0.037129  -0.693964,
	  0.301665   0.089105   0.949241,
	 -0.971938  -0.232974  -0.032545,
	 -0.998458   0.055520  -0.000010,
	 -0.971937  -0.232979   0.032549,
	 -0.272675   0.034997   0.961469,
	 -0.839146  -0.215148   0.499545,
	 -0.980443  -0.078787  -0.180343,
	  0.301666   0.089113  -0.949240,
	 -0.839145  -0.215153  -0.499545,
	 -0.272676   0.035001  -0.961469,
	 -0.980445  -0.078780   0.180338,
	  0.939492  -0.342571   0.000321,
	  0.847124  -0.405856   0.343019,
	  0.696388   0.035467   0.716789,
	  0.847215  -0.405878  -0.342769,
	  0.696387   0.035473  -0.716789,
	  0.288454   0.099441   0.952316,
	 -0.888904   0.385953  -0.246756,
	 -0.885157   0.465293  -0.000068,
	 -0.888910   0.385956   0.246733,
	 -0.145181   0.068165   0.987054,
	 -0.260185  -0.505206   0.822843,
	 -0.865353  -0.268003  -0.423483,
	  0.288452   0.099449  -0.952316,
	 -0.260186  -0.505209  -0.822841,
	 -0.145175   0.068159  -0.987056,
	 -0.865355  -0.268001   0.423480,
	  0.908392  -0.418119   0.000188,
	  0.839977  -0.454932   0.295764,
	  0.478288  -0.434956   0.762925,
	  0.840023  -0.454939  -0.295622,
	  0.478281  -0.434955  -0.762929,
	  0.101331  -0.373914   0.921911,
	 -0.876366   0.416900  -0.241200,
	 -0.337249   0.292135  -0.894942,
	 -0.926553   0.376164  -0.000138,
	 -0.876393   0.416890   0.241118,
	 -0.337245   0.292138   0.894942,
	 -0.124022  -0.299078   0.946135,
	  0.239290   0.012621   0.970866,
	 -0.485453  -0.864090   0.132983,
	 -0.582396  -0.431434   0.688970,
	  0.032166  -0.028380   0.999080,
	  0.702956  -0.156350  -0.693836,
	  0.101327  -0.373920  -0.921910,
	  0.239287   0.012619  -0.970867,
	 -0.124020  -0.299083  -0.946133,
	 -0.582399  -0.431422  -0.688974,
	 -0.485457  -0.864088  -0.132982,
	  0.032171  -0.028382  -0.999079,
	  0.703130  -0.156346   0.693660,
	  0.981939   0.189196   0.000156,
	  0.902989   0.309391   0.298141,
	  0.511252  -0.438564   0.739110,
	  0.903026   0.309398  -0.298021,
	  0.511249  -0.438565  -0.739111,
	  0.044899  -0.398849   0.915917,
	 -0.200727   0.921082  -0.333641,
	 -0.272538   0.097699  -0.957172,
	 -0.426155   0.904650  -0.000212,
	 -0.200758   0.921123   0.333511,
	 -0.272534   0.097713   0.957171,
	 -0.225074  -0.099651   0.969233,
	 -0.202151   0.381955   0.901801,
	  0.256979   0.689874   0.676783,
	 -0.378266  -0.490276   0.785203,
	 -0.551083  -0.409545   0.727035,
	  0.419857  -0.273801   0.865305,
	  0.682397  -0.575829   0.450283,
	  0.227980   0.189448   0.955058,
	 -0.692369  -0.334464   0.639342,
	  0.915159  -0.403093  -0.000233,
	  0.524923  -0.732192  -0.433993,
	 -0.186296   0.982494   0.000034,
	 -0.238460   0.653910  -0.718010,
	  0.044897  -0.398857  -0.915914,
	 -0.202151   0.381955  -0.901801,
	 -0.225074  -0.099651  -0.969233,
	  0.256976   0.689875  -0.676783,
	 -0.551083  -0.409547  -0.727034,
	 -0.378400  -0.489507  -0.785619,
	  0.419882  -0.273792  -0.865296,
	  0.682401  -0.575829  -0.450278,
	 -0.692365  -0.334478  -0.639339,
	  0.227982   0.189443  -0.955058,
	  0.524894  -0.732251   0.433931,
	 -0.238369   0.653918   0.718033,
	  0.379232   0.925301  -0.000003,
	  0.723695   0.486667   0.489307,
	  0.453850   0.362064   0.814205,
	  0.723692   0.486675  -0.489302,
	  0.453852   0.362067  -0.814203,
	 -0.088922   0.478123   0.873780,
	  0.218082   0.967530  -0.127775,
	  0.341102   0.880784   0.328435,
	 -0.412369   0.760210  -0.502029,
	  0.117553   0.929374   0.349921,
	  0.341102   0.880783  -0.328438,
	  0.218322   0.967440   0.128047,
	 -0.412369   0.760210   0.502029,
	  0.117567   0.929375  -0.349915,
	  0.531573   0.466208   0.707163,
	  0.597849   0.476001   0.644980,
	  0.706155   0.141037   0.693869,
	 -0.128278  -0.820643   0.556857,
	  0.631049   0.017823   0.775538,
	 -0.716350   0.542862   0.438342,
	 -0.117051   0.232556   0.965514,
	 -0.897372  -0.362544  -0.251565,
	 -0.794588   0.543099  -0.271429,
	  0.783329  -0.540472   0.307061,
	  0.013246   0.259274   0.965713,
	  0.117066  -0.048847   0.991922,
	 -0.958012  -0.141919   0.249141,
	 -0.865018   0.459583  -0.201314,
	 -0.272515  -0.962152  -0.000125,
	 -0.387572  -0.848031  -0.361430,
	 -0.676449   0.736489   0.000185,
	 -0.308800   0.890277   0.334736,
	 -0.565227   0.808419   0.164246,
	 -0.748260   0.632569  -0.199910,
	 -0.308612   0.890409  -0.334561,
	 -0.565089   0.808549  -0.164082,
	 -0.748247   0.632560   0.199983,
	 -0.677464   0.546227  -0.492623,
	 -0.088917   0.478126  -0.873779,
	  0.531574   0.466215  -0.707158,
	  0.597421   0.476460  -0.645038,
	 -0.117048   0.232552  -0.965515,
	 -0.716351   0.542860  -0.438343,
	 -0.126823  -0.819222  -0.559278,
	 -0.896413  -0.365496   0.250710,
	 -0.794588   0.543099   0.271429,
	  0.704724   0.143702  -0.694777,
	  0.630540   0.019432  -0.775913,
	  0.783327  -0.540473  -0.307064,
	  0.013251   0.259272  -0.965713,
	 -0.958010  -0.141923  -0.249147,
	  0.117070  -0.048851  -0.991921,
	 -0.865023   0.459581   0.201300,
	 -0.387489  -0.848088   0.361386,
	 -0.677464   0.546227   0.492623,
	 -0.668252   0.665143  -0.333203,
	 -0.620389   0.327470  -0.712658,
	 -0.668608   0.663807   0.335148,
	 -0.620566   0.324725   0.713758,
	 -0.709542  -0.008609   0.704610,
	 -0.863632  -0.501567   0.050692,
	 -0.787581   0.474934   0.392624,
	 -0.928075  -0.089256   0.361540,
	 -0.841624  -0.358117   0.404253,
	 -0.644879   0.727882   0.233063,
	  0.169791  -0.951581   0.256252,
	 -0.037693  -0.959119  -0.280482,
	  0.602053  -0.798456  -0.000042,
	 -0.037724  -0.959144   0.280391,
	 -0.611791   0.623071   0.487334,
	 -0.745681   0.666299  -0.002241,
	 -0.743980   0.406339   0.530454,
	 -0.611843   0.623083  -0.487254,
	 -0.743637   0.406606  -0.530731,
	 -0.644880   0.727882  -0.233058,
	 -0.928073  -0.089260  -0.361542,
	 -0.787584   0.474928  -0.392625,
	 -0.841625  -0.358118  -0.404252,
	 -0.709257  -0.006058  -0.704924,
	 -0.862873  -0.502694  -0.052436,
	  0.169795  -0.951580  -0.256252,
	 -0.659459   0.280863   0.697302,
	 -0.175571  -0.919618   0.351394,
	 -0.334796  -0.906082  -0.258702,
	  0.489644  -0.871922  -0.000111,
	 -0.334794  -0.906082   0.258705,
	 -0.171907  -0.917978  -0.357441,
	 -0.532021   0.846726  -0.002957,
	 -0.660302   0.278965  -0.697266,
	 -0.128032   0.233936   0.963785,
	 -0.094717  -0.032530   0.994973,
	  0.396170  -0.785417   0.475572,
	 -0.078771  -0.996892  -0.000980,
	  0.392929  -0.784096  -0.480418,
	 -0.104168  -0.030049  -0.994106,
	 -0.761112   0.342143   0.551041,
	 -0.982727   0.185056  -0.000947,
	 -0.133987   0.234390  -0.962865,
	 -0.760418   0.341148  -0.552614,
	 -0.488744  -0.576372   0.654923,
	 -0.801291  -0.598274  -0.001099,
	 -0.487323  -0.576441  -0.655921,
     ]    } 
normalIndex      [ 
	     0,      1,      2, -1 
	     3,      1,      0, -1 
	     3,      0,      4, -1 
	     2,      5,      0, -1 
	     0,      5,      6, -1 
	     4,      0,      6, -1 
	     1,      7,      2, -1 
	     7,      1,      3, -1 
	     7,      8,      2, -1 
	     9,     10,      2, -1 
	     2,     11,      9, -1 
	    12,     11,      2, -1 
	     2,      8,     12, -1 
	     2,     13,      5, -1 
	     2,     14,     13, -1 
	     2,     10,     15, -1 
	    15,     16,      2, -1 
	     2,     16,     17, -1 
	    17,     14,      2, -1 
	    18,     19,      3, -1 
	    18,      3,      4, -1 
	    20,      3,     19, -1 
	     7,      3,     20, -1 
	     4,      6,     18, -1 
	     6,      5,     13, -1 
	     6,     21,     18, -1 
	    21,      6,     22, -1 
	    22,      6,     13, -1 
	     8,      7,     20, -1 
	     8,     20,     23, -1 
	    12,      8,     23, -1 
	    10,      9,     24, -1 
	    11,     24,      9, -1 
	    10,     24,     25, -1 
	    26,     15,     10, -1 
	    25,     26,     10, -1 
	    27,     28,     11, -1 
	    27,     11,     12, -1 
	    11,     28,     29, -1 
	    11,     29,     24, -1 
	    12,     23,     27, -1 
	    22,     13,     14, -1 
	    30,     22,     14, -1 
	    30,     14,     17, -1 
	    15,     26,     16, -1 
	    16,     31,     32, -1 
	    17,     16,     32, -1 
	    33,     31,     16, -1 
	    26,     33,     16, -1 
	    32,     30,     17, -1 
	    34,     19,     18, -1 
	    18,     21,     34, -1 
	    34,     35,     19, -1 
	    36,     19,     35, -1 
	    20,     19,     36, -1 
	    23,     20,     36, -1 
	    21,     37,     34, -1 
	    37,     21,     38, -1 
	    38,     21,     22, -1 
	    38,     22,     30, -1 
	    23,     36,     39, -1 
	    27,     23,     39, -1 
	    40,     25,     24, -1 
	    40,     24,     29, -1 
	    25,     40,     41, -1 
	    41,     42,     25, -1 
	    26,     25,     42, -1 
	    33,     26,     42, -1 
	    27,     39,     43, -1 
	    43,     28,     27, -1 
	    43,     44,     28, -1 
	    29,     28,     45, -1 
	    28,     44,     45, -1 
	    40,     29,     45, -1 
	    46,     38,     30, -1 
	    46,     30,     32, -1 
	    31,     47,     48, -1 
	    32,     31,     48, -1 
	    49,     31,     33, -1 
	    49,     47,     31, -1 
	    48,     46,     32, -1 
	    49,     33,     42, -1 
	    50,     35,     34, -1 
	    34,     37,     50, -1 
	    50,     51,     35, -1 
	    52,     35,     51, -1 
	    36,     35,     52, -1 
	    39,     36,     52, -1 
	    37,     53,     50, -1 
	    53,     37,     54, -1 
	    54,     37,     38, -1 
	    54,     38,     46, -1 
	    39,     52,     55, -1 
	    43,     39,     55, -1 
	    41,     40,     56, -1 
	    40,     57,     56, -1 
	    40,     45,     57, -1 
	    41,     56,     58, -1 
	    59,     42,     41, -1 
	    58,     59,     41, -1 
	    59,     60,     42, -1 
	    60,     49,     42, -1 
	    43,     55,     61, -1 
	    61,     44,     43, -1 
	    61,     62,     44, -1 
	    63,     44,     64, -1 
	    65,     64,     44, -1 
	    65,     44,     62, -1 
	    44,     63,     45, -1 
	    57,     45,     66, -1 
	    66,     45,     63, -1 
	    67,     54,     46, -1 
	    67,     46,     48, -1 
	    47,     68,     69, -1 
	    48,     47,     69, -1 
	    70,     47,     71, -1 
	    47,     70,     72, -1 
	    68,     47,     72, -1 
	    49,     71,     47, -1 
	    69,     67,     48, -1 
	    73,     49,     60, -1 
	    71,     49,     73, -1 
	    74,     51,     50, -1 
	    50,     53,     74, -1 
	    74,     75,     51, -1 
	    76,     51,     75, -1 
	    52,     51,     76, -1 
	    55,     52,     76, -1 
	    53,     77,     74, -1 
	    77,     53,     78, -1 
	    78,     53,     54, -1 
	    78,     54,     67, -1 
	    55,     76,     79, -1 
	    61,     55,     79, -1 
	    58,     56,     80, -1 
	    56,     57,     81, -1 
	    56,     81,     80, -1 
	    66,     81,     57, -1 
	    58,     80,     82, -1 
	    83,     59,     58, -1 
	    82,     83,     58, -1 
	    84,     60,     59, -1 
	    83,     84,     59, -1 
	    60,     84,     73, -1 
	    61,     79,     85, -1 
	    85,     62,     61, -1 
	    85,     86,     62, -1 
	    87,     65,     62, -1 
	    87,     62,     86, -1 
	    88,     89,     63, -1 
	    88,     63,     90, -1 
	    63,     64,     65, -1 
	    63,     65,     90, -1 
	    63,     89,     91, -1 
	    63,     91,     66, -1 
	    65,     92,     93, -1 
	    65,     93,     90, -1 
	    87,     92,     65, -1 
	    94,     66,     95, -1 
	    66,     94,     96, -1 
	    66,     96,     97, -1 
	    91,     95,     66, -1 
	    66,     97,     81, -1 
	    98,     78,     67, -1 
	    98,     67,     69, -1 
	    68,     99,    100, -1 
	    69,     68,    100, -1 
	    68,     72,    101, -1 
	    99,     68,    101, -1 
	   100,     98,     69, -1 
	    72,     70,     71, -1 
	    71,    102,    103, -1 
	   104,     71,    103, -1 
	   104,     72,     71, -1 
	   105,    102,     71, -1 
	    73,    105,     71, -1 
	   106,    107,     72, -1 
	   104,    106,     72, -1 
	    72,    107,    101, -1 
	   108,     73,     94, -1 
	    96,     94,     73, -1 
	   109,     96,     73, -1 
	    73,    108,    105, -1 
	    84,    109,     73, -1 
	    75,     74,    110, -1 
	   110,     74,     77, -1 
	    76,     75,    111, -1 
	   111,     75,    110, -1 
	   112,     79,     76, -1 
	   112,     76,    111, -1 
	   113,     77,     78, -1 
	   110,     77,    113, -1 
	    78,     98,    114, -1 
	   113,     78,    114, -1 
	   115,     85,     79, -1 
	   115,     79,    112, -1 
	   116,    117,     80, -1 
	    80,    118,    116, -1 
	    80,     97,    118, -1 
	    97,     80,     81, -1 
	    82,     80,    110, -1 
	    80,    119,    110, -1 
	   117,    119,     80, -1 
	   110,     83,     82, -1 
	    83,    120,    121, -1 
	   121,    122,     83, -1 
	   122,    109,     83, -1 
	    84,     83,    109, -1 
	   110,    123,     83, -1 
	    83,    123,    120, -1 
	   115,     86,     85, -1 
	   119,     87,     86, -1 
	   115,    119,     86, -1 
	   119,    117,     87, -1 
	    87,    124,     92, -1 
	   124,     87,    125, -1 
	   125,     87,    117, -1 
	   126,    127,     88, -1 
	   127,     89,     88, -1 
	    88,     90,    124, -1 
	   128,     88,    124, -1 
	   126,     88,    128, -1 
	   129,    130,     89, -1 
	   127,    131,     89, -1 
	    89,    130,     91, -1 
	    89,    132,    129, -1 
	    89,    131,    132, -1 
	    90,     93,    124, -1 
	    95,     91,    133, -1 
	   134,    133,     91, -1 
	   134,     91,    130, -1 
	   124,    135,     92, -1 
	   135,     93,     92, -1 
	   135,    136,     93, -1 
	   136,    137,     93, -1 
	    93,    137,    124, -1 
	    94,     95,    138, -1 
	   138,    108,     94, -1 
	   138,     95,    139, -1 
	    95,    133,    139, -1 
	   140,    141,     96, -1 
	    96,    141,    142, -1 
	    96,    142,    143, -1 
	   143,     97,     96, -1 
	    96,    144,    140, -1 
	   145,    144,     96, -1 
	   146,    145,     96, -1 
	    96,    109,    146, -1 
	   143,    147,     97, -1 
	    97,    147,    118, -1 
	    98,    100,    148, -1 
	   114,     98,    148, -1 
	   100,     99,    148, -1 
	    99,    101,    123, -1 
	    99,    123,    148, -1 
	   101,    120,    123, -1 
	   107,    149,    101, -1 
	   150,    101,    149, -1 
	   120,    101,    150, -1 
	   102,    151,    152, -1 
	   103,    102,    153, -1 
	   102,    154,    153, -1 
	   105,    151,    102, -1 
	   152,    155,    102, -1 
	   155,    154,    102, -1 
	   103,    153,    156, -1 
	   149,    104,    103, -1 
	   149,    103,    157, -1 
	   157,    103,    156, -1 
	   149,    106,    104, -1 
	   158,    105,    108, -1 
	   105,    158,    159, -1 
	   151,    105,    159, -1 
	   106,    160,    161, -1 
	   107,    106,    161, -1 
	   106,    162,    160, -1 
	   149,    162,    106, -1 
	   107,    161,    149, -1 
	   163,    108,    138, -1 
	   163,    158,    108, -1 
	   109,    164,    146, -1 
	   122,    164,    109, -1 
	   112,    111,    110, -1 
	   115,    112,    110, -1 
	   119,    115,    110, -1 
	   110,    113,    114, -1 
	   110,    114,    148, -1 
	   110,    148,    123, -1 
	   117,    116,    125, -1 
	   126,    125,    116, -1 
	   165,    126,    116, -1 
	   165,    116,    166, -1 
	   116,    147,    166, -1 
	   147,    116,    118, -1 
	   150,    121,    120, -1 
	   121,    150,    156, -1 
	   121,    156,    167, -1 
	   168,    121,    167, -1 
	   168,    164,    121, -1 
	   122,    121,    164, -1 
	   124,    137,    135, -1 
	   124,    125,    128, -1 
	   126,    128,    125, -1 
	   126,    169,    127, -1 
	   169,    126,    165, -1 
	   127,    169,    170, -1 
	   131,    127,    170, -1 
	   134,    130,    129, -1 
	   129,    171,    172, -1 
	   129,    172,    173, -1 
	   129,    173,    134, -1 
	   171,    129,    174, -1 
	   132,    174,    129, -1 
	   131,    170,    165, -1 
	   131,    165,    166, -1 
	   147,    132,    131, -1 
	   147,    131,    166, -1 
	   143,    132,    147, -1 
	   174,    132,    142, -1 
	   142,    132,    143, -1 
	   134,    175,    133, -1 
	   133,    175,    139, -1 
	   134,    173,    175, -1 
	   135,    137,    136, -1 
	   138,    139,    176, -1 
	   138,    176,    177, -1 
	   178,    163,    138, -1 
	   177,    178,    138, -1 
	   139,    175,    176, -1 
	   179,    141,    140, -1 
	   140,    180,    181, -1 
	   140,    181,    179, -1 
	   140,    144,    182, -1 
	   183,    180,    140, -1 
	   182,    183,    140, -1 
	   179,    142,    141, -1 
	   179,    174,    142, -1 
	   144,    145,    182, -1 
	   145,    184,    182, -1 
	   145,    155,    184, -1 
	   146,    155,    145, -1 
	   164,    155,    146, -1 
	   161,    162,    149, -1 
	   157,    150,    149, -1 
	   150,    157,    156, -1 
	   152,    151,    159, -1 
	   185,    186,    152, -1 
	   187,    185,    152, -1 
	   159,    187,    152, -1 
	   184,    152,    186, -1 
	   152,    184,    155, -1 
	   153,    188,    156, -1 
	   189,    188,    153, -1 
	   189,    153,    154, -1 
	   167,    189,    154, -1 
	   168,    167,    154, -1 
	   154,    155,    164, -1 
	   168,    154,    164, -1 
	   167,    156,    188, -1 
	   158,    190,    159, -1 
	   163,    190,    158, -1 
	   190,    187,    159, -1 
	   160,    162,    161, -1 
	   178,    190,    163, -1 
	   169,    165,    170, -1 
	   189,    167,    188, -1 
	   181,    171,    174, -1 
	   191,    172,    171, -1 
	   191,    171,    181, -1 
	   192,    193,    172, -1 
	   192,    172,    191, -1 
	   193,    173,    172, -1 
	   193,    175,    173, -1 
	   181,    174,    179, -1 
	   176,    175,    193, -1 
	   176,    193,    192, -1 
	   176,    192,    194, -1 
	   177,    176,    194, -1 
	   194,    178,    177, -1 
	   195,    190,    178, -1 
	   196,    195,    178, -1 
	   194,    196,    178, -1 
	   180,    197,    191, -1 
	   180,    191,    181, -1 
	   198,    197,    180, -1 
	   183,    198,    180, -1 
	   182,    184,    183, -1 
	   184,    186,    183, -1 
	   183,    186,    198, -1 
	   186,    185,    198, -1 
	   185,    195,    196, -1 
	   198,    185,    196, -1 
	   185,    187,    195, -1 
	   187,    190,    195, -1 
	   197,    199,    191, -1 
	   200,    192,    191, -1 
	   200,    191,    199, -1 
	   201,    194,    192, -1 
	   201,    192,    200, -1 
	   194,    201,    202, -1 
	   202,    203,    194, -1 
	   196,    194,    203, -1 
	   198,    196,    204, -1 
	   204,    196,    203, -1 
	   197,    205,    199, -1 
	   206,    205,    197, -1 
	   207,    208,    197, -1 
	   198,    207,    197, -1 
	   197,    208,    206, -1 
	   207,    198,    204, -1 
	   201,    200,    199, -1 
	   201,    199,    209, -1 
	   205,    209,    199, -1 
	   202,    201,    209, -1 
	   202,    209,    210, -1 
	   211,    203,    202, -1 
	   210,    211,    202, -1 
	   207,    204,    203, -1 
	   211,    207,    203, -1 
	   210,    209,    205, -1 
	   210,    205,    206, -1 
	   206,    208,    210, -1 
	   207,    211,    208, -1 
	   208,    211,    210, -1 
    ] 
normalPerVertex  TRUE 
   } 
  } 
 ] 
} 
