#VRML V2.0 utf8 
Transform { 
 children [ 
    Shape { 
appearance Appearance {
              material DEF surface Material {
              diffuseColor 0.8 0.8 0.8
              ambientIntensity 0.2
              specularColor 0.4 0.4 0.4
              emissiveColor 0 0 0
              shininess 0.25
              transparency 0
            }
          }
   geometry IndexedFaceSet { 
   solid FALSE 
    coord DEF bone Coordinate{ 
     point [ 
	 -0.062459   0.222164   0.000023,
	 -0.063159   0.222486   0.007643,
	 -0.075947   0.223046   0.000003,
	 -0.061711   0.226023   0.009168,
	 -0.061571   0.223508   0.000025,
	 -0.063159   0.222486  -0.007643,
	 -0.061711   0.226023  -0.009168,
	 -0.067203   0.223261   0.015572,
	 -0.073721   0.223903   0.019429,
	 -0.088041   0.223091   0.004596,
	 -0.088158   0.223357   0.000003,
	 -0.088389   0.223343   0.013528,
	 -0.084071   0.224279   0.019533,
	 -0.067203   0.223261  -0.015572,
	 -0.073721   0.223903  -0.019429,
	 -0.088041   0.223091  -0.004596,
	 -0.088389   0.223343  -0.013528,
	 -0.084071   0.224279  -0.019533,
	 -0.062026   0.227712   0.000025,
	 -0.063298   0.228235   0.009816,
	 -0.066766   0.227159   0.016543,
	 -0.063298   0.228235  -0.009816,
	 -0.066766   0.227159  -0.016543,
	 -0.074567   0.228425   0.020094,
	 -0.091645   0.226441   0.004730,
	 -0.091616   0.226323   0.000003,
	 -0.091645   0.226441  -0.004730,
	 -0.085091   0.229186   0.020237,
	 -0.091239   0.224103   0.015192,
	 -0.092507   0.227809   0.008989,
	 -0.074567   0.228425  -0.020094,
	 -0.091239   0.224103  -0.015192,
	 -0.085091   0.229186  -0.020237,
	 -0.092507   0.227809  -0.008989,
	 -0.061380   0.236395   0.000028,
	 -0.062800   0.235563   0.009473,
	 -0.068474   0.229885   0.016131,
	 -0.062800   0.235563  -0.009473,
	 -0.068474   0.229885  -0.016131,
	 -0.074492   0.232225   0.018280,
	 -0.091117   0.232918   0.006064,
	 -0.090631   0.232895   0.000005,
	 -0.091117   0.232918  -0.006064,
	 -0.084830   0.232492   0.019153,
	 -0.090033   0.231599   0.018110,
	 -0.092905   0.233607   0.009275,
	 -0.074492   0.232225  -0.018280,
	 -0.090033   0.231599  -0.018110,
	 -0.084830   0.232492  -0.019153,
	 -0.092905   0.233607  -0.009275,
	 -0.060678   0.239786   0.000029,
	 -0.061299   0.239501   0.010479,
	 -0.068488   0.236643   0.016751,
	 -0.061299   0.239501  -0.010479,
	 -0.068488   0.236643  -0.016751,
	 -0.073278   0.237277   0.018364,
	 -0.089225   0.240179   0.006267,
	 -0.091134   0.240769   0.009698,
	 -0.088510   0.240194   0.000007,
	 -0.089225   0.240179  -0.006267,
	 -0.091135   0.240769  -0.009698,
	 -0.083135   0.238690   0.019291,
	 -0.087736   0.240064   0.019666,
	 -0.096003   0.231870   0.016315,
	 -0.093106   0.234037   0.020003,
	 -0.091519   0.238837   0.023918,
	 -0.100982   0.236024   0.003560,
	 -0.073278   0.237277  -0.018364,
	 -0.087736   0.240064  -0.019666,
	 -0.083135   0.238690  -0.019291,
	 -0.093106   0.234037  -0.020003,
	 -0.096003   0.231870  -0.016315,
	 -0.091519   0.238837  -0.023918,
	 -0.100982   0.236024  -0.003560,
	 -0.060611   0.243655   0.000029,
	 -0.061438   0.243535   0.010672,
	 -0.066407   0.239715   0.017731,
	 -0.061438   0.243535  -0.010672,
	 -0.066407   0.239715  -0.017731,
	 -0.072424   0.239917   0.020305,
	 -0.089394   0.246530   0.007989,
	 -0.090216   0.245116   0.010413,
	 -0.087819   0.245552   0.000009,
	 -0.089394   0.246530  -0.007989,
	 -0.090216   0.245116  -0.010413,
	 -0.080775   0.242179   0.021284,
	 -0.085917   0.242193   0.019004,
	 -0.094593   0.245731   0.019049,
	 -0.103935   0.239496   0.022079,
	 -0.102363   0.235685   0.016409,
	 -0.099828   0.230133   0.023617,
	 -0.098063   0.229747   0.010056,
	 -0.098796   0.238055   0.022714,
	 -0.100754   0.232103   0.020649,
	 -0.101822   0.231327   0.000003,
	 -0.105605   0.221135   0.004883,
	 -0.109286   0.237814   0.000005,
	 -0.102901   0.241407   0.007369,
	 -0.072424   0.239917  -0.020305,
	 -0.085917   0.242193  -0.019004,
	 -0.080775   0.242179  -0.021284,
	 -0.094593   0.245731  -0.019049,
	 -0.102363   0.235685  -0.016409,
	 -0.103935   0.239496  -0.022079,
	 -0.099828   0.230133  -0.023617,
	 -0.098063   0.229747  -0.010056,
	 -0.100754   0.232103  -0.020649,
	 -0.098796   0.238055  -0.022714,
	 -0.105605   0.221135  -0.004883,
	 -0.102901   0.241407  -0.007369,
	 -0.075509   0.245492   0.000009,
	 -0.066349   0.243910   0.017976,
	 -0.073136   0.244839   0.021286,
	 -0.066349   0.243910  -0.017976,
	 -0.073136   0.244839  -0.021286,
	 -0.081948   0.245455   0.021416,
	 -0.101398   0.249214   0.015276,
	 -0.091633   0.245496   0.013466,
	 -0.101279   0.246869   0.009608,
	 -0.087567   0.245899   0.016344,
	 -0.091633   0.245496  -0.013466,
	 -0.101398   0.249214  -0.015276,
	 -0.101279   0.246869  -0.009608,
	 -0.087567   0.245899  -0.016344,
	 -0.100811   0.242961   0.020274,
	 -0.099732   0.245562   0.017562,
	 -0.114146   0.249603   0.033211,
	 -0.108995   0.241222   0.020137,
	 -0.103583   0.244545   0.020312,
	 -0.113794   0.227645   0.012070,
	 -0.109474   0.228637   0.014776,
	 -0.115149   0.241239   0.024182,
	 -0.107428   0.238796   0.012105,
	 -0.098661   0.228017   0.011456,
	 -0.113798   0.224168   0.016275,
	 -0.102523   0.238650   0.025123,
	 -0.104178   0.236896   0.022911,
	 -0.104903   0.243058   0.023234,
	 -0.107999   0.225743   0.000003,
	 -0.105379   0.220237   0.006399,
	 -0.120128   0.227846   0.000004,
	 -0.110467   0.234857   0.004733,
	 -0.106741   0.233636   0.007925,
	 -0.106534   0.237338   0.009933,
	 -0.110467   0.234857  -0.004733,
	 -0.106741   0.233636  -0.007925,
	 -0.106534   0.237338  -0.009933,
	 -0.103935   0.241940   0.010838,
	 -0.081948   0.245455  -0.021416,
	 -0.100811   0.242961  -0.020274,
	 -0.099732   0.245562  -0.017562,
	 -0.109474   0.228637  -0.014776,
	 -0.113794   0.227645  -0.012070,
	 -0.108995   0.241222  -0.020137,
	 -0.115149   0.241239  -0.024182,
	 -0.107428   0.238796  -0.012105,
	 -0.114146   0.249603  -0.033211,
	 -0.103583   0.244545  -0.020312,
	 -0.098661   0.228017  -0.011456,
	 -0.113798   0.224168  -0.016275,
	 -0.104178   0.236896  -0.022911,
	 -0.102523   0.238650  -0.025123,
	 -0.104903   0.243058  -0.023234,
	 -0.105379   0.220237  -0.006399,
	 -0.103935   0.241940  -0.010838,
	 -0.119693   0.247366   0.027837,
	 -0.107679   0.243810   0.013293,
	 -0.119693   0.247366  -0.027837,
	 -0.107679   0.243810  -0.013293,
	 -0.117986   0.245958   0.036798,
	 -0.119817   0.244150   0.028594,
	 -0.116247   0.225436   0.009798,
	 -0.116615   0.221610   0.009271,
	 -0.114015   0.218545   0.016043,
	 -0.113568   0.229399   0.008450,
	 -0.106607   0.218413   0.012717,
	 -0.107577   0.223099   0.005089,
	 -0.110748   0.221519   0.000001,
	 -0.107577   0.223099  -0.005089,
	 -0.118512   0.229846   0.003997,
	 -0.127378   0.217920  -0.000015,
	 -0.118393   0.226010   0.003889,
	 -0.118512   0.229846  -0.003997,
	 -0.118393   0.226010  -0.003889,
	 -0.113568   0.229399  -0.008450,
	 -0.116615   0.221610  -0.009271,
	 -0.116247   0.225436  -0.009798,
	 -0.114015   0.218545  -0.016043,
	 -0.117986   0.245958  -0.036798,
	 -0.119817   0.244150  -0.028594,
	 -0.106607   0.218413  -0.012717,
	 -0.118756   0.222377   0.004057,
	 -0.117909   0.220499   0.004756,
	 -0.113014   0.218960   0.007293,
	 -0.117965   0.216306  -0.000000,
	 -0.113014   0.218960  -0.007293,
	 -0.117909   0.220499  -0.004756,
	 -0.134191   0.211996  -0.000019,
	 -0.118756   0.222377  -0.004057,
	 -0.126639   0.211137   0.004413,
	 -0.120855   0.214410   0.004430,
	 -0.127631   0.203704   0.003440,
	 -0.129400   0.203312  -0.000003,
	 -0.127631   0.203704  -0.003440,
	 -0.120855   0.214410  -0.004430,
	 -0.135689   0.209153   0.004462,
	 -0.136588   0.208019  -0.000021,
	 -0.126639   0.211137  -0.004413,
	 -0.135689   0.209153  -0.004462,
	 -0.134124   0.206011   0.005196,
	 -0.133236   0.204357  -0.000020,
	 -0.134124   0.206011  -0.005196,
     ]    } 
    coordIndex [ 
	     0,      1,      2, -1 
	     3,      1,      0, -1 
	     3,      0,      4, -1 
	     2,      5,      0, -1 
	     0,      5,      6, -1 
	     4,      0,      6, -1 
	     1,      7,      2, -1 
	     7,      1,      3, -1 
	     7,      8,      2, -1 
	     9,     10,      2, -1 
	     2,     11,      9, -1 
	    12,     11,      2, -1 
	     2,      8,     12, -1 
	     2,     13,      5, -1 
	     2,     14,     13, -1 
	     2,     10,     15, -1 
	    15,     16,      2, -1 
	     2,     16,     17, -1 
	    17,     14,      2, -1 
	    18,     19,      3, -1 
	    18,      3,      4, -1 
	    20,      3,     19, -1 
	     7,      3,     20, -1 
	     4,      6,     18, -1 
	     6,      5,     13, -1 
	     6,     21,     18, -1 
	    21,      6,     22, -1 
	    22,      6,     13, -1 
	     8,      7,     20, -1 
	     8,     20,     23, -1 
	    12,      8,     23, -1 
	    10,      9,     24, -1 
	    11,     24,      9, -1 
	    10,     24,     25, -1 
	    26,     15,     10, -1 
	    25,     26,     10, -1 
	    27,     28,     11, -1 
	    27,     11,     12, -1 
	    11,     28,     29, -1 
	    11,     29,     24, -1 
	    12,     23,     27, -1 
	    22,     13,     14, -1 
	    30,     22,     14, -1 
	    30,     14,     17, -1 
	    15,     26,     16, -1 
	    16,     31,     32, -1 
	    17,     16,     32, -1 
	    33,     31,     16, -1 
	    26,     33,     16, -1 
	    32,     30,     17, -1 
	    34,     19,     18, -1 
	    18,     21,     34, -1 
	    34,     35,     19, -1 
	    36,     19,     35, -1 
	    20,     19,     36, -1 
	    23,     20,     36, -1 
	    21,     37,     34, -1 
	    37,     21,     38, -1 
	    38,     21,     22, -1 
	    38,     22,     30, -1 
	    23,     36,     39, -1 
	    27,     23,     39, -1 
	    40,     25,     24, -1 
	    40,     24,     29, -1 
	    25,     40,     41, -1 
	    41,     42,     25, -1 
	    26,     25,     42, -1 
	    33,     26,     42, -1 
	    27,     39,     43, -1 
	    43,     28,     27, -1 
	    43,     44,     28, -1 
	    29,     28,     45, -1 
	    28,     44,     45, -1 
	    40,     29,     45, -1 
	    46,     38,     30, -1 
	    46,     30,     32, -1 
	    31,     47,     48, -1 
	    32,     31,     48, -1 
	    49,     31,     33, -1 
	    49,     47,     31, -1 
	    48,     46,     32, -1 
	    49,     33,     42, -1 
	    50,     35,     34, -1 
	    34,     37,     50, -1 
	    50,     51,     35, -1 
	    52,     35,     51, -1 
	    36,     35,     52, -1 
	    39,     36,     52, -1 
	    37,     53,     50, -1 
	    53,     37,     54, -1 
	    54,     37,     38, -1 
	    54,     38,     46, -1 
	    39,     52,     55, -1 
	    43,     39,     55, -1 
	    41,     40,     56, -1 
	    40,     57,     56, -1 
	    40,     45,     57, -1 
	    41,     56,     58, -1 
	    59,     42,     41, -1 
	    58,     59,     41, -1 
	    59,     60,     42, -1 
	    60,     49,     42, -1 
	    43,     55,     61, -1 
	    61,     44,     43, -1 
	    61,     62,     44, -1 
	    63,     44,     64, -1 
	    65,     64,     44, -1 
	    65,     44,     62, -1 
	    44,     63,     45, -1 
	    57,     45,     66, -1 
	    66,     45,     63, -1 
	    67,     54,     46, -1 
	    67,     46,     48, -1 
	    47,     68,     69, -1 
	    48,     47,     69, -1 
	    70,     47,     71, -1 
	    47,     70,     72, -1 
	    68,     47,     72, -1 
	    49,     71,     47, -1 
	    69,     67,     48, -1 
	    73,     49,     60, -1 
	    71,     49,     73, -1 
	    74,     51,     50, -1 
	    50,     53,     74, -1 
	    74,     75,     51, -1 
	    76,     51,     75, -1 
	    52,     51,     76, -1 
	    55,     52,     76, -1 
	    53,     77,     74, -1 
	    77,     53,     78, -1 
	    78,     53,     54, -1 
	    78,     54,     67, -1 
	    55,     76,     79, -1 
	    61,     55,     79, -1 
	    58,     56,     80, -1 
	    56,     57,     81, -1 
	    56,     81,     80, -1 
	    66,     81,     57, -1 
	    58,     80,     82, -1 
	    83,     59,     58, -1 
	    82,     83,     58, -1 
	    84,     60,     59, -1 
	    83,     84,     59, -1 
	    60,     84,     73, -1 
	    61,     79,     85, -1 
	    85,     62,     61, -1 
	    85,     86,     62, -1 
	    87,     65,     62, -1 
	    87,     62,     86, -1 
	    88,     89,     63, -1 
	    88,     63,     90, -1 
	    63,     64,     65, -1 
	    63,     65,     90, -1 
	    63,     89,     91, -1 
	    63,     91,     66, -1 
	    65,     92,     93, -1 
	    65,     93,     90, -1 
	    87,     92,     65, -1 
	    94,     66,     95, -1 
	    66,     94,     96, -1 
	    66,     96,     97, -1 
	    91,     95,     66, -1 
	    66,     97,     81, -1 
	    98,     78,     67, -1 
	    98,     67,     69, -1 
	    68,     99,    100, -1 
	    69,     68,    100, -1 
	    68,     72,    101, -1 
	    99,     68,    101, -1 
	   100,     98,     69, -1 
	    72,     70,     71, -1 
	    71,    102,    103, -1 
	   104,     71,    103, -1 
	   104,     72,     71, -1 
	   105,    102,     71, -1 
	    73,    105,     71, -1 
	   106,    107,     72, -1 
	   104,    106,     72, -1 
	    72,    107,    101, -1 
	   108,     73,     94, -1 
	    96,     94,     73, -1 
	   109,     96,     73, -1 
	    73,    108,    105, -1 
	    84,    109,     73, -1 
	    75,     74,    110, -1 
	   110,     74,     77, -1 
	    76,     75,    111, -1 
	   111,     75,    110, -1 
	   112,     79,     76, -1 
	   112,     76,    111, -1 
	   113,     77,     78, -1 
	   110,     77,    113, -1 
	    78,     98,    114, -1 
	   113,     78,    114, -1 
	   115,     85,     79, -1 
	   115,     79,    112, -1 
	   116,    117,     80, -1 
	    80,    118,    116, -1 
	    80,     97,    118, -1 
	    97,     80,     81, -1 
	    82,     80,    110, -1 
	    80,    119,    110, -1 
	   117,    119,     80, -1 
	   110,     83,     82, -1 
	    83,    120,    121, -1 
	   121,    122,     83, -1 
	   122,    109,     83, -1 
	    84,     83,    109, -1 
	   110,    123,     83, -1 
	    83,    123,    120, -1 
	   115,     86,     85, -1 
	   119,     87,     86, -1 
	   115,    119,     86, -1 
	   119,    117,     87, -1 
	    87,    124,     92, -1 
	   124,     87,    125, -1 
	   125,     87,    117, -1 
	   126,    127,     88, -1 
	   127,     89,     88, -1 
	    88,     90,    124, -1 
	   128,     88,    124, -1 
	   126,     88,    128, -1 
	   129,    130,     89, -1 
	   127,    131,     89, -1 
	    89,    130,     91, -1 
	    89,    132,    129, -1 
	    89,    131,    132, -1 
	    90,     93,    124, -1 
	    95,     91,    133, -1 
	   134,    133,     91, -1 
	   134,     91,    130, -1 
	   124,    135,     92, -1 
	   135,     93,     92, -1 
	   135,    136,     93, -1 
	   136,    137,     93, -1 
	    93,    137,    124, -1 
	    94,     95,    138, -1 
	   138,    108,     94, -1 
	   138,     95,    139, -1 
	    95,    133,    139, -1 
	   140,    141,     96, -1 
	    96,    141,    142, -1 
	    96,    142,    143, -1 
	   143,     97,     96, -1 
	    96,    144,    140, -1 
	   145,    144,     96, -1 
	   146,    145,     96, -1 
	    96,    109,    146, -1 
	   143,    147,     97, -1 
	    97,    147,    118, -1 
	    98,    100,    148, -1 
	   114,     98,    148, -1 
	   100,     99,    148, -1 
	    99,    101,    123, -1 
	    99,    123,    148, -1 
	   101,    120,    123, -1 
	   107,    149,    101, -1 
	   150,    101,    149, -1 
	   120,    101,    150, -1 
	   102,    151,    152, -1 
	   103,    102,    153, -1 
	   102,    154,    153, -1 
	   105,    151,    102, -1 
	   152,    155,    102, -1 
	   155,    154,    102, -1 
	   103,    153,    156, -1 
	   149,    104,    103, -1 
	   149,    103,    157, -1 
	   157,    103,    156, -1 
	   149,    106,    104, -1 
	   158,    105,    108, -1 
	   105,    158,    159, -1 
	   151,    105,    159, -1 
	   106,    160,    161, -1 
	   107,    106,    161, -1 
	   106,    162,    160, -1 
	   149,    162,    106, -1 
	   107,    161,    149, -1 
	   163,    108,    138, -1 
	   163,    158,    108, -1 
	   109,    164,    146, -1 
	   122,    164,    109, -1 
	   112,    111,    110, -1 
	   115,    112,    110, -1 
	   119,    115,    110, -1 
	   110,    113,    114, -1 
	   110,    114,    148, -1 
	   110,    148,    123, -1 
	   117,    116,    125, -1 
	   126,    125,    116, -1 
	   165,    126,    116, -1 
	   165,    116,    166, -1 
	   116,    147,    166, -1 
	   147,    116,    118, -1 
	   150,    121,    120, -1 
	   121,    150,    156, -1 
	   121,    156,    167, -1 
	   168,    121,    167, -1 
	   168,    164,    121, -1 
	   122,    121,    164, -1 
	   124,    137,    135, -1 
	   124,    125,    128, -1 
	   126,    128,    125, -1 
	   126,    169,    127, -1 
	   169,    126,    165, -1 
	   127,    169,    170, -1 
	   131,    127,    170, -1 
	   134,    130,    129, -1 
	   129,    171,    172, -1 
	   129,    172,    173, -1 
	   129,    173,    134, -1 
	   171,    129,    174, -1 
	   132,    174,    129, -1 
	   131,    170,    165, -1 
	   131,    165,    166, -1 
	   147,    132,    131, -1 
	   147,    131,    166, -1 
	   143,    132,    147, -1 
	   174,    132,    142, -1 
	   142,    132,    143, -1 
	   134,    175,    133, -1 
	   133,    175,    139, -1 
	   134,    173,    175, -1 
	   135,    137,    136, -1 
	   138,    139,    176, -1 
	   138,    176,    177, -1 
	   178,    163,    138, -1 
	   177,    178,    138, -1 
	   139,    175,    176, -1 
	   179,    141,    140, -1 
	   140,    180,    181, -1 
	   140,    181,    179, -1 
	   140,    144,    182, -1 
	   183,    180,    140, -1 
	   182,    183,    140, -1 
	   179,    142,    141, -1 
	   179,    174,    142, -1 
	   144,    145,    182, -1 
	   145,    184,    182, -1 
	   145,    155,    184, -1 
	   146,    155,    145, -1 
	   164,    155,    146, -1 
	   161,    162,    149, -1 
	   157,    150,    149, -1 
	   150,    157,    156, -1 
	   152,    151,    159, -1 
	   185,    186,    152, -1 
	   187,    185,    152, -1 
	   159,    187,    152, -1 
	   184,    152,    186, -1 
	   152,    184,    155, -1 
	   153,    188,    156, -1 
	   189,    188,    153, -1 
	   189,    153,    154, -1 
	   167,    189,    154, -1 
	   168,    167,    154, -1 
	   154,    155,    164, -1 
	   168,    154,    164, -1 
	   167,    156,    188, -1 
	   158,    190,    159, -1 
	   163,    190,    158, -1 
	   190,    187,    159, -1 
	   160,    162,    161, -1 
	   178,    190,    163, -1 
	   169,    165,    170, -1 
	   189,    167,    188, -1 
	   181,    171,    174, -1 
	   191,    172,    171, -1 
	   191,    171,    181, -1 
	   192,    193,    172, -1 
	   192,    172,    191, -1 
	   193,    173,    172, -1 
	   193,    175,    173, -1 
	   181,    174,    179, -1 
	   176,    175,    193, -1 
	   176,    193,    192, -1 
	   176,    192,    194, -1 
	   177,    176,    194, -1 
	   194,    178,    177, -1 
	   195,    190,    178, -1 
	   196,    195,    178, -1 
	   194,    196,    178, -1 
	   180,    197,    191, -1 
	   180,    191,    181, -1 
	   198,    197,    180, -1 
	   183,    198,    180, -1 
	   182,    184,    183, -1 
	   184,    186,    183, -1 
	   183,    186,    198, -1 
	   186,    185,    198, -1 
	   185,    195,    196, -1 
	   198,    185,    196, -1 
	   185,    187,    195, -1 
	   187,    190,    195, -1 
	   197,    199,    191, -1 
	   200,    192,    191, -1 
	   200,    191,    199, -1 
	   201,    194,    192, -1 
	   201,    192,    200, -1 
	   194,    201,    202, -1 
	   202,    203,    194, -1 
	   196,    194,    203, -1 
	   198,    196,    204, -1 
	   204,    196,    203, -1 
	   197,    205,    199, -1 
	   206,    205,    197, -1 
	   207,    208,    197, -1 
	   198,    207,    197, -1 
	   197,    208,    206, -1 
	   207,    198,    204, -1 
	   201,    200,    199, -1 
	   201,    199,    209, -1 
	   205,    209,    199, -1 
	   202,    201,    209, -1 
	   202,    209,    210, -1 
	   211,    203,    202, -1 
	   210,    211,    202, -1 
	   207,    204,    203, -1 
	   211,    207,    203, -1 
	   210,    209,    205, -1 
	   210,    205,    206, -1 
	   206,    208,    210, -1 
	   207,    211,    208, -1 
	   208,    211,    210, -1 
    ] 
   colorPerVertex FALSE 
    colorIndex [ 
	  1, 
	  1, 
	  1, 
	  1, 
	  1, 
	  1, 
	  1, 
	  1, 
	  1, 
	  1, 
	  1, 
	  1, 
	  1, 
	  1, 
	  1, 
	  1, 
	  1, 
	  1, 
	  1, 
	  1, 
	  1, 
	  1, 
	  1, 
	  1, 
	  1, 
	  1, 
	  1, 
	  1, 
	  1, 
	  1, 
	  1, 
	  1, 
	  1, 
	  1, 
	  1, 
	  1, 
	  1, 
	  1, 
	  1, 
	  1, 
	  1, 
	  1, 
	  1, 
	  1, 
	  1, 
	  1, 
	  1, 
	  1, 
	  1, 
	  1, 
	  1, 
	  1, 
	  1, 
	  1, 
	  1, 
	  1, 
	  1, 
	  1, 
	  1, 
	  1, 
	  1, 
	  1, 
	  1, 
	  1, 
	  1, 
	  1, 
	  1, 
	  1, 
	  1, 
	  1, 
	  1, 
	  1, 
	  1, 
	  1, 
	  1, 
	  1, 
	  1, 
	  1, 
	  1, 
	  1, 
	  1, 
	  1, 
	  1, 
	  1, 
	  1, 
	  1, 
	  1, 
	  1, 
	  1, 
	  1, 
	  1, 
	  1, 
	  1, 
	  1, 
	  1, 
	  1, 
	  1, 
	  1, 
	  1, 
	  1, 
	  1, 
	  1, 
	  1, 
	  1, 
	  1, 
	  1, 
	  1, 
	  1, 
	  1, 
	  1, 
	  1, 
	  1, 
	  1, 
	  1, 
	  1, 
	  1, 
	  1, 
	  1, 
	  1, 
	  1, 
	  1, 
	  1, 
	  1, 
	  1, 
	  1, 
	  1, 
	  1, 
	  1, 
	  1, 
	  1, 
	  1, 
	  1, 
	  1, 
	  1, 
	  1, 
	  1, 
	  1, 
	  1, 
	  1, 
	  1, 
	  1, 
	  1, 
	  1, 
	  1, 
	  1, 
	  1, 
	  1, 
	  1, 
	  1, 
	  1, 
	  1, 
	  1, 
	  1, 
	  1, 
	  1, 
	  1, 
	  1, 
	  1, 
	  1, 
	  1, 
	  1, 
	  1, 
	  1, 
	  1, 
	  1, 
	  1, 
	  1, 
	  1, 
	  1, 
	  1, 
	  1, 
	  1, 
	  1, 
	  1, 
	  1, 
	  1, 
	  1, 
	  1, 
	  1, 
	  1, 
	  1, 
	  1, 
	  1, 
	  1, 
	  1, 
	  1, 
	  1, 
	  1, 
	  1, 
	  1, 
	  1, 
	  1, 
	  1, 
	  1, 
	  1, 
	  1, 
	  1, 
	  1, 
	  1, 
	  1, 
	  1, 
	  1, 
	  1, 
	  1, 
	  1, 
	  1, 
	  1, 
	  1, 
	  1, 
	  1, 
	  1, 
	  1, 
    ] 
normal Normal { 
vector [ 
	  0.647858  -0.761761   0.000337,
	  0.454535  -0.870644   0.188087,
	 -0.026340  -0.999653   0.000015,
	  0.951545  -0.095730   0.292230,
	  0.972366  -0.233461   0.000223,
	  0.454637  -0.870642  -0.187850,
	  0.951641  -0.095658  -0.291939,
	  0.463545  -0.740659   0.486365,
	  0.202906  -0.640726   0.740472,
	 -0.370267  -0.928788  -0.015999,
	 -0.478783  -0.877933  -0.000014,
	 -0.415591  -0.893828   0.168390,
	 -0.189650  -0.668053   0.719541,
	  0.463540  -0.740664  -0.486362,
	  0.202905  -0.640730  -0.740469,
	 -0.370264  -0.928789   0.015973,
	 -0.415586  -0.893831  -0.168388,
	 -0.189644  -0.668058  -0.719537,
	  0.977797   0.209555   0.000173,
	  0.907698   0.242243   0.342640,
	  0.655983   0.143100   0.741086,
	  0.907805   0.242285  -0.342327,
	  0.655984   0.143104  -0.741085,
	  0.235346   0.152308   0.959904,
	 -0.871160  -0.489527  -0.037997,
	 -0.980467  -0.196686  -0.000020,
	 -0.871159  -0.489528   0.037993,
	 -0.252847  -0.035003   0.966873,
	 -0.738281  -0.408625   0.536626,
	 -0.921779  -0.328925  -0.205261,
	  0.235346   0.152308  -0.959904,
	 -0.738281  -0.408625  -0.536626,
	 -0.252847  -0.035003  -0.966873,
	 -0.921779  -0.328925   0.205261,
	  0.993599  -0.112965   0.000372,
	  0.902752  -0.197091   0.382352,
	  0.614369   0.201344   0.762896,
	  0.902871  -0.197097  -0.382068,
	  0.614371   0.201343  -0.762895,
	  0.219345   0.156205   0.963062,
	 -0.948043   0.153044  -0.278912,
	 -0.973782   0.227484  -0.000079,
	 -0.948053   0.153036   0.278881,
	 -0.145260   0.031898   0.988879,
	 -0.121195  -0.530709   0.838844,
	 -0.767383  -0.455286  -0.451484,
	  0.219345   0.156205  -0.963062,
	 -0.121195  -0.530709  -0.838844,
	 -0.145260   0.031898  -0.988879,
	 -0.767383  -0.455286   0.451484,
	  0.980297  -0.197531   0.000217,
	  0.912276  -0.244014   0.328954,
	  0.528795  -0.298403   0.794564,
	  0.912335  -0.244008  -0.328792,
	  0.528795  -0.298403  -0.794564,
	  0.173250  -0.318544   0.931941,
	 -0.944167   0.184058  -0.273261,
	 -0.396207   0.186875  -0.898943,
	 -0.990428   0.138031  -0.000158,
	 -0.944196   0.184040   0.273171,
	 -0.396195   0.186865   0.898950,
	 -0.033265  -0.299134   0.953631,
	  0.191221   0.088253   0.977571,
	 -0.163996  -0.971277   0.172414,
	 -0.298725  -0.612167   0.732131,
	  0.070088  -0.107402   0.991742,
	  0.668328   0.030304  -0.743249,
	  0.173250  -0.318544  -0.931941,
	  0.191221   0.088253  -0.977571,
	 -0.033265  -0.299134  -0.953631,
	 -0.298725  -0.612167  -0.732131,
	 -0.163998  -0.971277  -0.172412,
	  0.070088  -0.107402  -0.991742,
	  0.668496   0.030359   0.743096,
	  0.903267   0.429078   0.000182,
	  0.776187   0.531196   0.339654,
	  0.561591  -0.290714   0.774662,
	  0.776229   0.531222  -0.339518,
	  0.561593  -0.290709  -0.774662,
	  0.132361  -0.352955   0.926231,
	 -0.440520   0.825150  -0.353652,
	 -0.299773   0.022783  -0.953739,
	 -0.653744   0.756716  -0.000234,
	 -0.440567   0.825185   0.353512,
	 -0.299761   0.022775   0.953742,
	 -0.158557  -0.129917   0.978765,
	 -0.228932   0.324688   0.917697,
	  0.049887   0.750487   0.659000,
	 -0.219868  -0.543788   0.809909,
	 -0.351533  -0.542349   0.763074,
	  0.493785  -0.255432   0.831222,
	  0.790196  -0.414666   0.451269,
	  0.145845   0.182953   0.972244,
	 -0.526839  -0.499247   0.687890,
	  0.986767  -0.162142  -0.000208,
	  0.663910  -0.585625  -0.465045,
	 -0.427380   0.904072   0.000060,
	 -0.383013   0.551896  -0.740751,
	  0.132361  -0.352955  -0.926231,
	 -0.228932   0.324688  -0.917697,
	 -0.158557  -0.129917  -0.978765,
	  0.049887   0.750487  -0.659000,
	 -0.351531  -0.542352  -0.763073,
	 -0.219870  -0.543790  -0.809907,
	  0.493785  -0.255432  -0.831222,
	  0.790196  -0.414658  -0.451275,
	 -0.526839  -0.499247  -0.687890,
	  0.145845   0.182953  -0.972244,
	  0.663906  -0.585670   0.464994,
	 -0.382925   0.551922   0.740777,
	  0.089052   0.996027  -0.000005,
	  0.533835   0.660659   0.527778,
	  0.301889   0.470462   0.829173,
	  0.533829   0.660672  -0.527768,
	  0.301893   0.470471  -0.829167,
	 -0.189636   0.446476   0.874470,
	 -0.068723   0.992112  -0.104835,
	  0.110316   0.968657   0.222562,
	 -0.558693   0.634736  -0.533828,
	 -0.085803   0.947696   0.307425,
	  0.110315   0.968658  -0.222560,
	 -0.068725   0.992112   0.104838,
	 -0.558693   0.634732   0.533834,
	 -0.085789   0.947699  -0.307421,
	  0.332329   0.584437   0.740264,
	  0.369415   0.653058   0.661096,
	  0.508546   0.276652   0.815380,
	  0.199810  -0.697565   0.688098,
	  0.545692   0.172787   0.819978,
	 -0.780712   0.359966   0.510796,
	 -0.099002   0.147243   0.984133,
	 -0.782772  -0.542342  -0.305177,
	 -0.878007   0.364015  -0.310800,
	  0.878470  -0.361800   0.312077,
	 -0.063192   0.242711   0.968038,
	  0.103044  -0.010700   0.994619,
	 -0.873455  -0.386616   0.295982,
	 -0.945836   0.252386  -0.204195,
	 -0.050932  -0.998702  -0.000120,
	 -0.140788  -0.909722  -0.390620,
	 -0.808659   0.588277   0.000208,
	 -0.469703   0.811794   0.346944,
	 -0.714635   0.679565   0.165797,
	 -0.867962   0.445324  -0.219839,
	 -0.469564   0.811952  -0.346763,
	 -0.714535   0.679712  -0.165626,
	 -0.867950   0.445314   0.219906,
	 -0.758635   0.379483  -0.529590,
	 -0.189635   0.446479  -0.874468,
	  0.332329   0.584437  -0.740264,
	  0.369413   0.653061  -0.661094,
	 -0.098999   0.147250  -0.984132,
	 -0.780711   0.359966  -0.510797,
	  0.199810  -0.697567  -0.688096,
	 -0.782770  -0.542346   0.305176,
	 -0.878013   0.364010   0.310789,
	  0.508545   0.276656  -0.815379,
	  0.545692   0.172787  -0.819978,
	  0.878470  -0.361800  -0.312077,
	 -0.063195   0.242716  -0.968037,
	 -0.873455  -0.386616  -0.295982,
	  0.103044  -0.010700  -0.994619,
	 -0.945836   0.252386   0.204195,
	 -0.140671  -0.909754   0.390587,
	 -0.758636   0.379483   0.529588,
	 -0.807143   0.482787  -0.339759,
	 -0.636658   0.158187  -0.754747,
	 -0.807144   0.482786   0.339759,
	 -0.636659   0.158185   0.754747,
	 -0.546322  -0.271124   0.792480,
	 -0.651549  -0.707632   0.273390,
	 -0.854960   0.278892   0.437337,
	 -0.852873  -0.325455   0.408272,
	 -0.732001  -0.539864   0.415598,
	 -0.767528   0.586963   0.257635,
	  0.325304  -0.911135   0.253001,
	  0.142613  -0.934794  -0.325302,
	  0.720725  -0.693221  -0.000082,
	  0.142577  -0.934844   0.325176,
	 -0.700160   0.493030   0.516427,
	 -0.809727   0.586807  -0.000651,
	 -0.786721   0.217409   0.577757,
	 -0.700221   0.493028  -0.516347,
	 -0.786472   0.217738  -0.577972,
	 -0.767529   0.586961  -0.257636,
	 -0.852878  -0.325449  -0.408267,
	 -0.854962   0.278888  -0.437334,
	 -0.732003  -0.539862  -0.415596,
	 -0.546322  -0.271124  -0.792480,
	 -0.651549  -0.707632  -0.273390,
	  0.325298  -0.911137  -0.253002,
	 -0.662794   0.163003   0.730845,
	 -0.120573  -0.947007   0.297725,
	 -0.129593  -0.956650  -0.260819,
	  0.644094  -0.764946   0.000033,
	 -0.129595  -0.956650   0.260817,
	 -0.120604  -0.946990  -0.297768,
	 -0.655999   0.754761  -0.001255,
	 -0.661939   0.162647  -0.731699,
	 -0.078831   0.216801   0.973028,
	 -0.060424  -0.001943   0.998171,
	  0.537529  -0.735719   0.412043,
	  0.078609  -0.996905  -0.000440,
	  0.537526  -0.735717  -0.412052,
	 -0.060451  -0.001924  -0.998169,
	 -0.821469   0.150193   0.550120,
	 -0.996679  -0.081428  -0.000952,
	 -0.078187   0.215966  -0.973265,
	 -0.820551   0.149694  -0.551622,
	 -0.352361  -0.637553   0.685104,
	 -0.674790  -0.738009  -0.000877,
	 -0.351615  -0.637373  -0.685655,
     ]    } 
normalIndex      [ 
	     0,      1,      2, -1 
	     3,      1,      0, -1 
	     3,      0,      4, -1 
	     2,      5,      0, -1 
	     0,      5,      6, -1 
	     4,      0,      6, -1 
	     1,      7,      2, -1 
	     7,      1,      3, -1 
	     7,      8,      2, -1 
	     9,     10,      2, -1 
	     2,     11,      9, -1 
	    12,     11,      2, -1 
	     2,      8,     12, -1 
	     2,     13,      5, -1 
	     2,     14,     13, -1 
	     2,     10,     15, -1 
	    15,     16,      2, -1 
	     2,     16,     17, -1 
	    17,     14,      2, -1 
	    18,     19,      3, -1 
	    18,      3,      4, -1 
	    20,      3,     19, -1 
	     7,      3,     20, -1 
	     4,      6,     18, -1 
	     6,      5,     13, -1 
	     6,     21,     18, -1 
	    21,      6,     22, -1 
	    22,      6,     13, -1 
	     8,      7,     20, -1 
	     8,     20,     23, -1 
	    12,      8,     23, -1 
	    10,      9,     24, -1 
	    11,     24,      9, -1 
	    10,     24,     25, -1 
	    26,     15,     10, -1 
	    25,     26,     10, -1 
	    27,     28,     11, -1 
	    27,     11,     12, -1 
	    11,     28,     29, -1 
	    11,     29,     24, -1 
	    12,     23,     27, -1 
	    22,     13,     14, -1 
	    30,     22,     14, -1 
	    30,     14,     17, -1 
	    15,     26,     16, -1 
	    16,     31,     32, -1 
	    17,     16,     32, -1 
	    33,     31,     16, -1 
	    26,     33,     16, -1 
	    32,     30,     17, -1 
	    34,     19,     18, -1 
	    18,     21,     34, -1 
	    34,     35,     19, -1 
	    36,     19,     35, -1 
	    20,     19,     36, -1 
	    23,     20,     36, -1 
	    21,     37,     34, -1 
	    37,     21,     38, -1 
	    38,     21,     22, -1 
	    38,     22,     30, -1 
	    23,     36,     39, -1 
	    27,     23,     39, -1 
	    40,     25,     24, -1 
	    40,     24,     29, -1 
	    25,     40,     41, -1 
	    41,     42,     25, -1 
	    26,     25,     42, -1 
	    33,     26,     42, -1 
	    27,     39,     43, -1 
	    43,     28,     27, -1 
	    43,     44,     28, -1 
	    29,     28,     45, -1 
	    28,     44,     45, -1 
	    40,     29,     45, -1 
	    46,     38,     30, -1 
	    46,     30,     32, -1 
	    31,     47,     48, -1 
	    32,     31,     48, -1 
	    49,     31,     33, -1 
	    49,     47,     31, -1 
	    48,     46,     32, -1 
	    49,     33,     42, -1 
	    50,     35,     34, -1 
	    34,     37,     50, -1 
	    50,     51,     35, -1 
	    52,     35,     51, -1 
	    36,     35,     52, -1 
	    39,     36,     52, -1 
	    37,     53,     50, -1 
	    53,     37,     54, -1 
	    54,     37,     38, -1 
	    54,     38,     46, -1 
	    39,     52,     55, -1 
	    43,     39,     55, -1 
	    41,     40,     56, -1 
	    40,     57,     56, -1 
	    40,     45,     57, -1 
	    41,     56,     58, -1 
	    59,     42,     41, -1 
	    58,     59,     41, -1 
	    59,     60,     42, -1 
	    60,     49,     42, -1 
	    43,     55,     61, -1 
	    61,     44,     43, -1 
	    61,     62,     44, -1 
	    63,     44,     64, -1 
	    65,     64,     44, -1 
	    65,     44,     62, -1 
	    44,     63,     45, -1 
	    57,     45,     66, -1 
	    66,     45,     63, -1 
	    67,     54,     46, -1 
	    67,     46,     48, -1 
	    47,     68,     69, -1 
	    48,     47,     69, -1 
	    70,     47,     71, -1 
	    47,     70,     72, -1 
	    68,     47,     72, -1 
	    49,     71,     47, -1 
	    69,     67,     48, -1 
	    73,     49,     60, -1 
	    71,     49,     73, -1 
	    74,     51,     50, -1 
	    50,     53,     74, -1 
	    74,     75,     51, -1 
	    76,     51,     75, -1 
	    52,     51,     76, -1 
	    55,     52,     76, -1 
	    53,     77,     74, -1 
	    77,     53,     78, -1 
	    78,     53,     54, -1 
	    78,     54,     67, -1 
	    55,     76,     79, -1 
	    61,     55,     79, -1 
	    58,     56,     80, -1 
	    56,     57,     81, -1 
	    56,     81,     80, -1 
	    66,     81,     57, -1 
	    58,     80,     82, -1 
	    83,     59,     58, -1 
	    82,     83,     58, -1 
	    84,     60,     59, -1 
	    83,     84,     59, -1 
	    60,     84,     73, -1 
	    61,     79,     85, -1 
	    85,     62,     61, -1 
	    85,     86,     62, -1 
	    87,     65,     62, -1 
	    87,     62,     86, -1 
	    88,     89,     63, -1 
	    88,     63,     90, -1 
	    63,     64,     65, -1 
	    63,     65,     90, -1 
	    63,     89,     91, -1 
	    63,     91,     66, -1 
	    65,     92,     93, -1 
	    65,     93,     90, -1 
	    87,     92,     65, -1 
	    94,     66,     95, -1 
	    66,     94,     96, -1 
	    66,     96,     97, -1 
	    91,     95,     66, -1 
	    66,     97,     81, -1 
	    98,     78,     67, -1 
	    98,     67,     69, -1 
	    68,     99,    100, -1 
	    69,     68,    100, -1 
	    68,     72,    101, -1 
	    99,     68,    101, -1 
	   100,     98,     69, -1 
	    72,     70,     71, -1 
	    71,    102,    103, -1 
	   104,     71,    103, -1 
	   104,     72,     71, -1 
	   105,    102,     71, -1 
	    73,    105,     71, -1 
	   106,    107,     72, -1 
	   104,    106,     72, -1 
	    72,    107,    101, -1 
	   108,     73,     94, -1 
	    96,     94,     73, -1 
	   109,     96,     73, -1 
	    73,    108,    105, -1 
	    84,    109,     73, -1 
	    75,     74,    110, -1 
	   110,     74,     77, -1 
	    76,     75,    111, -1 
	   111,     75,    110, -1 
	   112,     79,     76, -1 
	   112,     76,    111, -1 
	   113,     77,     78, -1 
	   110,     77,    113, -1 
	    78,     98,    114, -1 
	   113,     78,    114, -1 
	   115,     85,     79, -1 
	   115,     79,    112, -1 
	   116,    117,     80, -1 
	    80,    118,    116, -1 
	    80,     97,    118, -1 
	    97,     80,     81, -1 
	    82,     80,    110, -1 
	    80,    119,    110, -1 
	   117,    119,     80, -1 
	   110,     83,     82, -1 
	    83,    120,    121, -1 
	   121,    122,     83, -1 
	   122,    109,     83, -1 
	    84,     83,    109, -1 
	   110,    123,     83, -1 
	    83,    123,    120, -1 
	   115,     86,     85, -1 
	   119,     87,     86, -1 
	   115,    119,     86, -1 
	   119,    117,     87, -1 
	    87,    124,     92, -1 
	   124,     87,    125, -1 
	   125,     87,    117, -1 
	   126,    127,     88, -1 
	   127,     89,     88, -1 
	    88,     90,    124, -1 
	   128,     88,    124, -1 
	   126,     88,    128, -1 
	   129,    130,     89, -1 
	   127,    131,     89, -1 
	    89,    130,     91, -1 
	    89,    132,    129, -1 
	    89,    131,    132, -1 
	    90,     93,    124, -1 
	    95,     91,    133, -1 
	   134,    133,     91, -1 
	   134,     91,    130, -1 
	   124,    135,     92, -1 
	   135,     93,     92, -1 
	   135,    136,     93, -1 
	   136,    137,     93, -1 
	    93,    137,    124, -1 
	    94,     95,    138, -1 
	   138,    108,     94, -1 
	   138,     95,    139, -1 
	    95,    133,    139, -1 
	   140,    141,     96, -1 
	    96,    141,    142, -1 
	    96,    142,    143, -1 
	   143,     97,     96, -1 
	    96,    144,    140, -1 
	   145,    144,     96, -1 
	   146,    145,     96, -1 
	    96,    109,    146, -1 
	   143,    147,     97, -1 
	    97,    147,    118, -1 
	    98,    100,    148, -1 
	   114,     98,    148, -1 
	   100,     99,    148, -1 
	    99,    101,    123, -1 
	    99,    123,    148, -1 
	   101,    120,    123, -1 
	   107,    149,    101, -1 
	   150,    101,    149, -1 
	   120,    101,    150, -1 
	   102,    151,    152, -1 
	   103,    102,    153, -1 
	   102,    154,    153, -1 
	   105,    151,    102, -1 
	   152,    155,    102, -1 
	   155,    154,    102, -1 
	   103,    153,    156, -1 
	   149,    104,    103, -1 
	   149,    103,    157, -1 
	   157,    103,    156, -1 
	   149,    106,    104, -1 
	   158,    105,    108, -1 
	   105,    158,    159, -1 
	   151,    105,    159, -1 
	   106,    160,    161, -1 
	   107,    106,    161, -1 
	   106,    162,    160, -1 
	   149,    162,    106, -1 
	   107,    161,    149, -1 
	   163,    108,    138, -1 
	   163,    158,    108, -1 
	   109,    164,    146, -1 
	   122,    164,    109, -1 
	   112,    111,    110, -1 
	   115,    112,    110, -1 
	   119,    115,    110, -1 
	   110,    113,    114, -1 
	   110,    114,    148, -1 
	   110,    148,    123, -1 
	   117,    116,    125, -1 
	   126,    125,    116, -1 
	   165,    126,    116, -1 
	   165,    116,    166, -1 
	   116,    147,    166, -1 
	   147,    116,    118, -1 
	   150,    121,    120, -1 
	   121,    150,    156, -1 
	   121,    156,    167, -1 
	   168,    121,    167, -1 
	   168,    164,    121, -1 
	   122,    121,    164, -1 
	   124,    137,    135, -1 
	   124,    125,    128, -1 
	   126,    128,    125, -1 
	   126,    169,    127, -1 
	   169,    126,    165, -1 
	   127,    169,    170, -1 
	   131,    127,    170, -1 
	   134,    130,    129, -1 
	   129,    171,    172, -1 
	   129,    172,    173, -1 
	   129,    173,    134, -1 
	   171,    129,    174, -1 
	   132,    174,    129, -1 
	   131,    170,    165, -1 
	   131,    165,    166, -1 
	   147,    132,    131, -1 
	   147,    131,    166, -1 
	   143,    132,    147, -1 
	   174,    132,    142, -1 
	   142,    132,    143, -1 
	   134,    175,    133, -1 
	   133,    175,    139, -1 
	   134,    173,    175, -1 
	   135,    137,    136, -1 
	   138,    139,    176, -1 
	   138,    176,    177, -1 
	   178,    163,    138, -1 
	   177,    178,    138, -1 
	   139,    175,    176, -1 
	   179,    141,    140, -1 
	   140,    180,    181, -1 
	   140,    181,    179, -1 
	   140,    144,    182, -1 
	   183,    180,    140, -1 
	   182,    183,    140, -1 
	   179,    142,    141, -1 
	   179,    174,    142, -1 
	   144,    145,    182, -1 
	   145,    184,    182, -1 
	   145,    155,    184, -1 
	   146,    155,    145, -1 
	   164,    155,    146, -1 
	   161,    162,    149, -1 
	   157,    150,    149, -1 
	   150,    157,    156, -1 
	   152,    151,    159, -1 
	   185,    186,    152, -1 
	   187,    185,    152, -1 
	   159,    187,    152, -1 
	   184,    152,    186, -1 
	   152,    184,    155, -1 
	   153,    188,    156, -1 
	   189,    188,    153, -1 
	   189,    153,    154, -1 
	   167,    189,    154, -1 
	   168,    167,    154, -1 
	   154,    155,    164, -1 
	   168,    154,    164, -1 
	   167,    156,    188, -1 
	   158,    190,    159, -1 
	   163,    190,    158, -1 
	   190,    187,    159, -1 
	   160,    162,    161, -1 
	   178,    190,    163, -1 
	   169,    165,    170, -1 
	   189,    167,    188, -1 
	   181,    171,    174, -1 
	   191,    172,    171, -1 
	   191,    171,    181, -1 
	   192,    193,    172, -1 
	   192,    172,    191, -1 
	   193,    173,    172, -1 
	   193,    175,    173, -1 
	   181,    174,    179, -1 
	   176,    175,    193, -1 
	   176,    193,    192, -1 
	   176,    192,    194, -1 
	   177,    176,    194, -1 
	   194,    178,    177, -1 
	   195,    190,    178, -1 
	   196,    195,    178, -1 
	   194,    196,    178, -1 
	   180,    197,    191, -1 
	   180,    191,    181, -1 
	   198,    197,    180, -1 
	   183,    198,    180, -1 
	   182,    184,    183, -1 
	   184,    186,    183, -1 
	   183,    186,    198, -1 
	   186,    185,    198, -1 
	   185,    195,    196, -1 
	   198,    185,    196, -1 
	   185,    187,    195, -1 
	   187,    190,    195, -1 
	   197,    199,    191, -1 
	   200,    192,    191, -1 
	   200,    191,    199, -1 
	   201,    194,    192, -1 
	   201,    192,    200, -1 
	   194,    201,    202, -1 
	   202,    203,    194, -1 
	   196,    194,    203, -1 
	   198,    196,    204, -1 
	   204,    196,    203, -1 
	   197,    205,    199, -1 
	   206,    205,    197, -1 
	   207,    208,    197, -1 
	   198,    207,    197, -1 
	   197,    208,    206, -1 
	   207,    198,    204, -1 
	   201,    200,    199, -1 
	   201,    199,    209, -1 
	   205,    209,    199, -1 
	   202,    201,    209, -1 
	   202,    209,    210, -1 
	   211,    203,    202, -1 
	   210,    211,    202, -1 
	   207,    204,    203, -1 
	   211,    207,    203, -1 
	   210,    209,    205, -1 
	   210,    205,    206, -1 
	   206,    208,    210, -1 
	   207,    211,    208, -1 
	   208,    211,    210, -1 
    ] 
normalPerVertex  TRUE 
   } 
  } 
 ] 
} 
