# 
# Wavefront OBJ file
# Converted by the DEEP Exploration 2.00.1211
# Right Hemisphere, LTD
# http://www.righthemisphere.com/
# 
mtllib thoracic6.mtl
# object Object #0
g Object__0
v -0.062459 0.222164 2.3e-005
v -0.063159 0.222486 0.007643
v -0.075947 0.223046 3e-006
v -0.061711 0.226023 0.009168
v -0.061571 0.223508 2.5e-005
v -0.063159 0.222486 -0.007643
v -0.061711 0.226023 -0.009168
v -0.067203 0.223261 0.015572
v -0.073721 0.223903 0.019429
v -0.088041 0.223091 0.004596
v -0.088158 0.223357 3e-006
v -0.088389 0.223343 0.013528
v -0.084071 0.224279 0.019533
v -0.067203 0.223261 -0.015572
v -0.073721 0.223903 -0.019429
v -0.088041 0.223091 -0.004596
v -0.088389 0.223343 -0.013528
v -0.084071 0.224279 -0.019533
v -0.062026 0.227712 2.5e-005
v -0.063298 0.228235 0.009816
v -0.066766 0.227159 0.016543
v -0.063298 0.228235 -0.009816
v -0.066766 0.227159 -0.016543
v -0.074567 0.228425 0.020094
v -0.091645 0.226441 0.00473
v -0.091616 0.226323 3e-006
v -0.091645 0.226441 -0.00473
v -0.085091 0.229186 0.020237
v -0.091239 0.224103 0.015192
v -0.092507 0.227809 0.008989
v -0.074567 0.228425 -0.020094
v -0.091239 0.224103 -0.015192
v -0.085091 0.229186 -0.020237
v -0.092507 0.227809 -0.008989
v -0.06138 0.236395 2.8e-005
v -0.0628 0.235563 0.009473
v -0.068474 0.229885 0.016131
v -0.0628 0.235563 -0.009473
v -0.068474 0.229885 -0.016131
v -0.074492 0.232225 0.01828
v -0.091117 0.232918 0.006064
v -0.090631 0.232895 5e-006
v -0.091117 0.232918 -0.006064
v -0.08483 0.232492 0.019153
v -0.090033 0.231599 0.01811
v -0.092905 0.233607 0.009275
v -0.074492 0.232225 -0.01828
v -0.090033 0.231599 -0.01811
v -0.08483 0.232492 -0.019153
v -0.092905 0.233607 -0.009275
v -0.060678 0.239786 2.9e-005
v -0.061299 0.239501 0.010479
v -0.068488 0.236643 0.016751
v -0.061299 0.239501 -0.010479
v -0.068488 0.236643 -0.016751
v -0.073278 0.237277 0.018364
v -0.089225 0.240179 0.006267
v -0.091134 0.240769 0.009698
v -0.08851 0.240194 7e-006
v -0.089225 0.240179 -0.006267
v -0.091135 0.240769 -0.009698
v -0.083135 0.23869 0.019291
v -0.087736 0.240064 0.019666
v -0.096003 0.23187 0.016315
v -0.093106 0.234037 0.020003
v -0.091519 0.238837 0.023918
v -0.100982 0.236024 0.00356
v -0.073278 0.237277 -0.018364
v -0.087736 0.240064 -0.019666
v -0.083135 0.23869 -0.019291
v -0.093106 0.234037 -0.020003
v -0.096003 0.23187 -0.016315
v -0.091519 0.238837 -0.023918
v -0.100982 0.236024 -0.00356
v -0.060611 0.243655 2.9e-005
v -0.061438 0.243535 0.010672
v -0.066407 0.239715 0.017731
v -0.061438 0.243535 -0.010672
v -0.066407 0.239715 -0.017731
v -0.072424 0.239917 0.020305
v -0.089394 0.24653 0.007989
v -0.090216 0.245116 0.010413
v -0.087819 0.245552 9e-006
v -0.089394 0.24653 -0.007989
v -0.090216 0.245116 -0.010413
v -0.080775 0.242179 0.021284
v -0.085917 0.242193 0.019004
v -0.094593 0.245731 0.019049
v -0.103935 0.239496 0.022079
v -0.102363 0.235685 0.016409
v -0.099828 0.230133 0.023617
v -0.098063 0.229747 0.010056
v -0.098796 0.238055 0.022714
v -0.100754 0.232103 0.020649
v -0.101822 0.231327 3e-006
v -0.105605 0.221135 0.004883
v -0.109286 0.237814 5e-006
v -0.102901 0.241407 0.007369
v -0.072424 0.239917 -0.020305
v -0.085917 0.242193 -0.019004
v -0.080775 0.242179 -0.021284
v -0.094593 0.245731 -0.019049
v -0.102363 0.235685 -0.016409
v -0.103935 0.239496 -0.022079
v -0.099828 0.230133 -0.023617
v -0.098063 0.229747 -0.010056
v -0.100754 0.232103 -0.020649
v -0.098796 0.238055 -0.022714
v -0.105605 0.221135 -0.004883
v -0.102901 0.241407 -0.007369
v -0.075509 0.245492 9e-006
v -0.066349 0.24391 0.017976
v -0.073136 0.244839 0.021286
v -0.066349 0.24391 -0.017976
v -0.073136 0.244839 -0.021286
v -0.081948 0.245455 0.021416
v -0.101398 0.249214 0.015276
v -0.091633 0.245496 0.013466
v -0.101279 0.246869 0.009608
v -0.087567 0.245899 0.016344
v -0.091633 0.245496 -0.013466
v -0.101398 0.249214 -0.015276
v -0.101279 0.246869 -0.009608
v -0.087567 0.245899 -0.016344
v -0.100811 0.242961 0.020274
v -0.099732 0.245562 0.017562
v -0.114146 0.249603 0.033211
v -0.108995 0.241222 0.020137
v -0.103583 0.244545 0.020312
v -0.113794 0.227645 0.01207
v -0.109474 0.228637 0.014776
v -0.115149 0.241239 0.024182
v -0.107428 0.238796 0.012105
v -0.098661 0.228017 0.011456
v -0.113798 0.224168 0.016275
v -0.102523 0.23865 0.025123
v -0.104178 0.236896 0.022911
v -0.104903 0.243058 0.023234
v -0.107999 0.225743 3e-006
v -0.105379 0.220237 0.006399
v -0.120128 0.227846 4e-006
v -0.110467 0.234857 0.004733
v -0.106741 0.233636 0.007925
v -0.106534 0.237338 0.009933
v -0.110467 0.234857 -0.004733
v -0.106741 0.233636 -0.007925
v -0.106534 0.237338 -0.009933
v -0.103935 0.24194 0.010838
v -0.081948 0.245455 -0.021416
v -0.100811 0.242961 -0.020274
v -0.099732 0.245562 -0.017562
v -0.109474 0.228637 -0.014776
v -0.113794 0.227645 -0.01207
v -0.108995 0.241222 -0.020137
v -0.115149 0.241239 -0.024182
v -0.107428 0.238796 -0.012105
v -0.114146 0.249603 -0.033211
v -0.103583 0.244545 -0.020312
v -0.098661 0.228017 -0.011456
v -0.113798 0.224168 -0.016275
v -0.104178 0.236896 -0.022911
v -0.102523 0.23865 -0.025123
v -0.104903 0.243058 -0.023234
v -0.105379 0.220237 -0.006399
v -0.103935 0.24194 -0.010838
v -0.119693 0.247366 0.027837
v -0.107679 0.24381 0.013293
v -0.119693 0.247366 -0.027837
v -0.107679 0.24381 -0.013293
v -0.117986 0.245958 0.036798
v -0.119817 0.24415 0.028594
v -0.116247 0.225436 0.009798
v -0.116615 0.22161 0.009271
v -0.114015 0.218545 0.016043
v -0.113568 0.229399 0.00845
v -0.106607 0.218413 0.012717
v -0.107577 0.223099 0.005089
v -0.110748 0.221519 1e-006
v -0.107577 0.223099 -0.005089
v -0.118512 0.229846 0.003997
v -0.127378 0.21792 -1.5e-005
v -0.118393 0.22601 0.003889
v -0.118512 0.229846 -0.003997
v -0.118393 0.22601 -0.003889
v -0.113568 0.229399 -0.00845
v -0.116615 0.22161 -0.009271
v -0.116247 0.225436 -0.009798
v -0.114015 0.218545 -0.016043
v -0.117986 0.245958 -0.036798
v -0.119817 0.24415 -0.028594
v -0.106607 0.218413 -0.012717
v -0.118756 0.222377 0.004057
v -0.117909 0.220499 0.004756
v -0.113014 0.21896 0.007293
v -0.117965 0.216306 0
v -0.113014 0.21896 -0.007293
v -0.117909 0.220499 -0.004756
v -0.134191 0.211996 -1.9e-005
v -0.118756 0.222377 -0.004057
v -0.126639 0.211137 0.004413
v -0.120855 0.21441 0.00443
v -0.127631 0.203704 0.00344
v -0.1294 0.203312 -3e-006
v -0.127631 0.203704 -0.00344
v -0.120855 0.21441 -0.00443
v -0.135689 0.209153 0.004462
v -0.136588 0.208019 -2.1e-005
v -0.126639 0.211137 -0.004413
v -0.135689 0.209153 -0.004462
v -0.134124 0.206011 0.005196
v -0.133236 0.204357 -2e-005
v -0.134124 0.206011 -0.005196
# 212 verticies
vn 0.647858 -0.761761 0.000337
vn 0.454535 -0.870644 0.188087
vn -0.02634 -0.999653 1.5e-005
vn 0.951545 -0.09573 0.29223
vn 0.972366 -0.233461 0.000223
vn 0.454637 -0.870642 -0.18785
vn 0.951641 -0.095658 -0.291939
vn 0.463545 -0.740659 0.486365
vn 0.202906 -0.640726 0.740472
vn -0.370267 -0.928788 -0.015999
vn -0.478783 -0.877933 -1.4e-005
vn -0.415591 -0.893828 0.16839
vn -0.18965 -0.668053 0.719541
vn 0.46354 -0.740664 -0.486362
vn 0.202905 -0.64073 -0.740469
vn -0.370264 -0.928789 0.015973
vn -0.415586 -0.893831 -0.168388
vn -0.189644 -0.668058 -0.719537
vn 0.977797 0.209555 0.000173
vn 0.907698 0.242243 0.34264
vn 0.655983 0.1431 0.741086
vn 0.907805 0.242285 -0.342327
vn 0.655984 0.143104 -0.741085
vn 0.235346 0.152308 0.959903
vn -0.87116 -0.489527 -0.037997
vn -0.980467 -0.196686 -2e-005
vn -0.871159 -0.489528 0.037993
vn -0.252847 -0.035003 0.966873
vn -0.738281 -0.408625 0.536626
vn -0.921779 -0.328925 -0.205261
vn 0.235346 0.152308 -0.959903
vn -0.738281 -0.408625 -0.536626
vn -0.252847 -0.035003 -0.966873
vn -0.921779 -0.328925 0.205261
vn 0.993599 -0.112965 0.000372
vn 0.902752 -0.197091 0.382352
vn 0.614369 0.201344 0.762896
vn 0.902871 -0.197097 -0.382068
vn 0.614371 0.201343 -0.762895
vn 0.219345 0.156205 0.963062
vn -0.948043 0.153044 -0.278912
vn -0.973782 0.227484 -7.9e-005
vn -0.948053 0.153036 0.278881
vn -0.14526 0.031898 0.988879
vn -0.121195 -0.530709 0.838844
vn -0.767383 -0.455286 -0.451484
vn 0.219345 0.156205 -0.963062
vn -0.121195 -0.530709 -0.838844
vn -0.14526 0.031898 -0.988879
vn -0.767383 -0.455286 0.451484
vn 0.980297 -0.197531 0.000217
vn 0.912276 -0.244014 0.328954
vn 0.528795 -0.298403 0.794564
vn 0.912335 -0.244008 -0.328792
vn 0.528795 -0.298403 -0.794564
vn 0.17325 -0.318544 0.931941
vn -0.944167 0.184058 -0.273261
vn -0.396207 0.186875 -0.898943
vn -0.990428 0.138031 -0.000158
vn -0.944196 0.18404 0.273171
vn -0.396195 0.186865 0.89895
vn -0.033265 -0.299134 0.953631
vn 0.191221 0.088253 0.977571
vn -0.163996 -0.971277 0.172414
vn -0.298725 -0.612167 0.732131
vn 0.070088 -0.107402 0.991742
vn 0.668328 0.030304 -0.743249
vn 0.17325 -0.318544 -0.931941
vn 0.191221 0.088253 -0.977571
vn -0.033265 -0.299134 -0.953631
vn -0.298725 -0.612167 -0.732131
vn -0.163998 -0.971277 -0.172412
vn 0.070088 -0.107402 -0.991742
vn 0.668496 0.030359 0.743096
vn 0.903267 0.429078 0.000182
vn 0.776187 0.531196 0.339654
vn 0.561591 -0.290714 0.774662
vn 0.776229 0.531222 -0.339518
vn 0.561593 -0.290709 -0.774662
vn 0.132361 -0.352955 0.926231
vn -0.44052 0.82515 -0.353652
vn -0.299773 0.022783 -0.953739
vn -0.653744 0.756716 -0.000234
vn -0.440567 0.825185 0.353512
vn -0.299761 0.022775 0.953742
vn -0.158557 -0.129917 0.978765
vn -0.228932 0.324688 0.917697
vn 0.049887 0.750487 0.659
vn -0.219868 -0.543788 0.809909
vn -0.351533 -0.542349 0.763074
vn 0.493785 -0.255432 0.831222
vn 0.790196 -0.414666 0.451269
vn 0.145845 0.182953 0.972244
vn -0.526839 -0.499247 0.68789
vn 0.986767 -0.162142 -0.000208
vn 0.66391 -0.585625 -0.465045
vn -0.42738 0.904072 6e-005
vn -0.383013 0.551896 -0.740751
vn 0.132361 -0.352955 -0.926231
vn -0.228932 0.324688 -0.917697
vn -0.158557 -0.129917 -0.978765
vn 0.049887 0.750487 -0.659
vn -0.351531 -0.542352 -0.763073
vn -0.21987 -0.54379 -0.809907
vn 0.493785 -0.255432 -0.831222
vn 0.790196 -0.414658 -0.451275
vn -0.526839 -0.499247 -0.68789
vn 0.145845 0.182953 -0.972244
vn 0.663906 -0.58567 0.464994
vn -0.382925 0.551922 0.740777
vn 0.089052 0.996027 -5e-006
vn 0.533835 0.660659 0.527778
vn 0.301889 0.470462 0.829173
vn 0.533829 0.660672 -0.527768
vn 0.301893 0.470471 -0.829167
vn -0.189636 0.446476 0.87447
vn -0.068723 0.992112 -0.104835
vn 0.110316 0.968657 0.222562
vn -0.558693 0.634736 -0.533828
vn -0.085803 0.947696 0.307425
vn 0.110315 0.968658 -0.22256
vn -0.068725 0.992112 0.104838
vn -0.558693 0.634732 0.533834
vn -0.085789 0.947699 -0.307421
vn 0.332329 0.584437 0.740264
vn 0.369415 0.653058 0.661096
vn 0.508546 0.276652 0.81538
vn 0.19981 -0.697565 0.688098
vn 0.545692 0.172787 0.819978
vn -0.780712 0.359966 0.510796
vn -0.099002 0.147243 0.984133
vn -0.782772 -0.542342 -0.305177
vn -0.878007 0.364015 -0.3108
vn 0.87847 -0.3618 0.312077
vn -0.063192 0.242711 0.968038
vn 0.103044 -0.0107 0.994619
vn -0.873455 -0.386616 0.295982
vn -0.945836 0.252386 -0.204195
vn -0.050932 -0.998702 -0.00012
vn -0.140788 -0.909722 -0.39062
vn -0.808659 0.588277 0.000208
vn -0.469703 0.811794 0.346944
vn -0.714635 0.679565 0.165797
vn -0.867962 0.445324 -0.219839
vn -0.469564 0.811952 -0.346763
vn -0.714535 0.679712 -0.165626
vn -0.86795 0.445314 0.219906
vn -0.758635 0.379483 -0.52959
vn -0.189635 0.446479 -0.874468
vn 0.332329 0.584437 -0.740264
vn 0.369413 0.653061 -0.661094
vn -0.098999 0.14725 -0.984132
vn -0.780711 0.359966 -0.510797
vn 0.19981 -0.697567 -0.688096
vn -0.78277 -0.542346 0.305176
vn -0.878013 0.36401 0.310789
vn 0.508545 0.276656 -0.815379
vn 0.545692 0.172787 -0.819978
vn 0.87847 -0.3618 -0.312077
vn -0.063195 0.242716 -0.968037
vn -0.873455 -0.386616 -0.295982
vn 0.103044 -0.0107 -0.994619
vn -0.945836 0.252386 0.204195
vn -0.140671 -0.909755 0.390587
vn -0.758636 0.379483 0.529588
vn -0.807143 0.482787 -0.339759
vn -0.636658 0.158187 -0.754747
vn -0.807144 0.482786 0.339759
vn -0.636659 0.158185 0.754747
vn -0.546322 -0.271124 0.79248
vn -0.651549 -0.707632 0.27339
vn -0.85496 0.278892 0.437337
vn -0.852873 -0.325455 0.408272
vn -0.732001 -0.539864 0.415598
vn -0.767528 0.586963 0.257635
vn 0.325304 -0.911135 0.253001
vn 0.142613 -0.934794 -0.325302
vn 0.720725 -0.693221 -8.2e-005
vn 0.142577 -0.934844 0.325176
vn -0.70016 0.49303 0.516427
vn -0.809727 0.586807 -0.000651
vn -0.786721 0.217409 0.577757
vn -0.700221 0.493028 -0.516347
vn -0.786472 0.217738 -0.577972
vn -0.767529 0.586961 -0.257636
vn -0.852878 -0.325449 -0.408267
vn -0.854962 0.278888 -0.437334
vn -0.732003 -0.539862 -0.415596
vn -0.546322 -0.271124 -0.79248
vn -0.651549 -0.707632 -0.27339
vn 0.325298 -0.911137 -0.253002
vn -0.662794 0.163003 0.730845
vn -0.120573 -0.947007 0.297725
vn -0.129593 -0.95665 -0.260819
vn 0.644094 -0.764946 3.3e-005
vn -0.129595 -0.95665 0.260817
vn -0.120604 -0.946989 -0.297768
vn -0.655999 0.754761 -0.001255
vn -0.661939 0.162647 -0.731699
vn -0.078831 0.216801 0.973028
vn -0.060424 -0.001943 0.998171
vn 0.537529 -0.735719 0.412043
vn 0.078609 -0.996905 -0.00044
vn 0.537526 -0.735717 -0.412052
vn -0.060451 -0.001924 -0.998169
vn -0.821469 0.150193 0.55012
vn -0.996679 -0.081428 -0.000952
vn -0.078187 0.215966 -0.973265
vn -0.820551 0.149694 -0.551622
vn -0.352361 -0.637553 0.685104
vn -0.67479 -0.738009 -0.000877
vn -0.351615 -0.637373 -0.685655
# 212 normals
usemtl Material__1
f  1//1 2//2 3//3
f  4//4 2//2 1//1
f  4//4 1//1 5//5
f  3//3 6//6 1//1
f  1//1 6//6 7//7
f  5//5 1//1 7//7
f  2//2 8//8 3//3
f  8//8 2//2 4//4
f  8//8 9//9 3//3
f  10//10 11//11 3//3
f  3//3 12//12 10//10
f  13//13 12//12 3//3
f  3//3 9//9 13//13
f  3//3 14//14 6//6
f  3//3 15//15 14//14
f  3//3 11//11 16//16
f  16//16 17//17 3//3
f  3//3 17//17 18//18
f  18//18 15//15 3//3
f  19//19 20//20 4//4
f  19//19 4//4 5//5
f  21//21 4//4 20//20
f  8//8 4//4 21//21
f  5//5 7//7 19//19
f  7//7 6//6 14//14
f  7//7 22//22 19//19
f  22//22 7//7 23//23
f  23//23 7//7 14//14
f  9//9 8//8 21//21
f  9//9 21//21 24//24
f  13//13 9//9 24//24
f  11//11 10//10 25//25
f  12//12 25//25 10//10
f  11//11 25//25 26//26
f  27//27 16//16 11//11
f  26//26 27//27 11//11
f  28//28 29//29 12//12
f  28//28 12//12 13//13
f  12//12 29//29 30//30
f  12//12 30//30 25//25
f  13//13 24//24 28//28
f  23//23 14//14 15//15
f  31//31 23//23 15//15
f  31//31 15//15 18//18
f  16//16 27//27 17//17
f  17//17 32//32 33//33
f  18//18 17//17 33//33
f  34//34 32//32 17//17
f  27//27 34//34 17//17
f  33//33 31//31 18//18
f  35//35 20//20 19//19
f  19//19 22//22 35//35
f  35//35 36//36 20//20
f  37//37 20//20 36//36
f  21//21 20//20 37//37
f  24//24 21//21 37//37
f  22//22 38//38 35//35
f  38//38 22//22 39//39
f  39//39 22//22 23//23
f  39//39 23//23 31//31
f  24//24 37//37 40//40
f  28//28 24//24 40//40
f  41//41 26//26 25//25
f  41//41 25//25 30//30
f  26//26 41//41 42//42
f  42//42 43//43 26//26
f  27//27 26//26 43//43
f  34//34 27//27 43//43
f  28//28 40//40 44//44
f  44//44 29//29 28//28
f  44//44 45//45 29//29
f  30//30 29//29 46//46
f  29//29 45//45 46//46
f  41//41 30//30 46//46
f  47//47 39//39 31//31
f  47//47 31//31 33//33
f  32//32 48//48 49//49
f  33//33 32//32 49//49
f  50//50 32//32 34//34
f  50//50 48//48 32//32
f  49//49 47//47 33//33
f  50//50 34//34 43//43
f  51//51 36//36 35//35
f  35//35 38//38 51//51
f  51//51 52//52 36//36
f  53//53 36//36 52//52
f  37//37 36//36 53//53
f  40//40 37//37 53//53
f  38//38 54//54 51//51
f  54//54 38//38 55//55
f  55//55 38//38 39//39
f  55//55 39//39 47//47
f  40//40 53//53 56//56
f  44//44 40//40 56//56
f  42//42 41//41 57//57
f  41//41 58//58 57//57
f  41//41 46//46 58//58
f  42//42 57//57 59//59
f  60//60 43//43 42//42
f  59//59 60//60 42//42
f  60//60 61//61 43//43
f  61//61 50//50 43//43
f  44//44 56//56 62//62
f  62//62 45//45 44//44
f  62//62 63//63 45//45
f  64//64 45//45 65//65
f  66//66 65//65 45//45
f  66//66 45//45 63//63
f  45//45 64//64 46//46
f  58//58 46//46 67//67
f  67//67 46//46 64//64
f  68//68 55//55 47//47
f  68//68 47//47 49//49
f  48//48 69//69 70//70
f  49//49 48//48 70//70
f  71//71 48//48 72//72
f  48//48 71//71 73//73
f  69//69 48//48 73//73
f  50//50 72//72 48//48
f  70//70 68//68 49//49
f  74//74 50//50 61//61
f  72//72 50//50 74//74
f  75//75 52//52 51//51
f  51//51 54//54 75//75
f  75//75 76//76 52//52
f  77//77 52//52 76//76
f  53//53 52//52 77//77
f  56//56 53//53 77//77
f  54//54 78//78 75//75
f  78//78 54//54 79//79
f  79//79 54//54 55//55
f  79//79 55//55 68//68
f  56//56 77//77 80//80
f  62//62 56//56 80//80
f  59//59 57//57 81//81
f  57//57 58//58 82//82
f  57//57 82//82 81//81
f  67//67 82//82 58//58
f  59//59 81//81 83//83
f  84//84 60//60 59//59
f  83//83 84//84 59//59
f  85//85 61//61 60//60
f  84//84 85//85 60//60
f  61//61 85//85 74//74
f  62//62 80//80 86//86
f  86//86 63//63 62//62
f  86//86 87//87 63//63
f  88//88 66//66 63//63
f  88//88 63//63 87//87
f  89//89 90//90 64//64
f  89//89 64//64 91//91
f  64//64 65//65 66//66
f  64//64 66//66 91//91
f  64//64 90//90 92//92
f  64//64 92//92 67//67
f  66//66 93//93 94//94
f  66//66 94//94 91//91
f  88//88 93//93 66//66
f  95//95 67//67 96//96
f  67//67 95//95 97//97
f  67//67 97//97 98//98
f  92//92 96//96 67//67
f  67//67 98//98 82//82
f  99//99 79//79 68//68
f  99//99 68//68 70//70
f  69//69 100//100 101//101
f  70//70 69//69 101//101
f  69//69 73//73 102//102
f  100//100 69//69 102//102
f  101//101 99//99 70//70
f  73//73 71//71 72//72
f  72//72 103//103 104//104
f  105//105 72//72 104//104
f  105//105 73//73 72//72
f  106//106 103//103 72//72
f  74//74 106//106 72//72
f  107//107 108//108 73//73
f  105//105 107//107 73//73
f  73//73 108//108 102//102
f  109//109 74//74 95//95
f  97//97 95//95 74//74
f  110//110 97//97 74//74
f  74//74 109//109 106//106
f  85//85 110//110 74//74
f  76//76 75//75 111//111
f  111//111 75//75 78//78
f  77//77 76//76 112//112
f  112//112 76//76 111//111
f  113//113 80//80 77//77
f  113//113 77//77 112//112
f  114//114 78//78 79//79
f  111//111 78//78 114//114
f  79//79 99//99 115//115
f  114//114 79//79 115//115
f  116//116 86//86 80//80
f  116//116 80//80 113//113
f  117//117 118//118 81//81
f  81//81 119//119 117//117
f  81//81 98//98 119//119
f  98//98 81//81 82//82
f  83//83 81//81 111//111
f  81//81 120//120 111//111
f  118//118 120//120 81//81
f  111//111 84//84 83//83
f  84//84 121//121 122//122
f  122//122 123//123 84//84
f  123//123 110//110 84//84
f  85//85 84//84 110//110
f  111//111 124//124 84//84
f  84//84 124//124 121//121
f  116//116 87//87 86//86
f  120//120 88//88 87//87
f  116//116 120//120 87//87
f  120//120 118//118 88//88
f  88//88 125//125 93//93
f  125//125 88//88 126//126
f  126//126 88//88 118//118
f  127//127 128//128 89//89
f  128//128 90//90 89//89
f  89//89 91//91 125//125
f  129//129 89//89 125//125
f  127//127 89//89 129//129
f  130//130 131//131 90//90
f  128//128 132//132 90//90
f  90//90 131//131 92//92
f  90//90 133//133 130//130
f  90//90 132//132 133//133
f  91//91 94//94 125//125
f  96//96 92//92 134//134
f  135//135 134//134 92//92
f  135//135 92//92 131//131
f  125//125 136//136 93//93
f  136//136 94//94 93//93
f  136//136 137//137 94//94
f  137//137 138//138 94//94
f  94//94 138//138 125//125
f  95//95 96//96 139//139
f  139//139 109//109 95//95
f  139//139 96//96 140//140
f  96//96 134//134 140//140
f  141//141 142//142 97//97
f  97//97 142//142 143//143
f  97//97 143//143 144//144
f  144//144 98//98 97//97
f  97//97 145//145 141//141
f  146//146 145//145 97//97
f  147//147 146//146 97//97
f  97//97 110//110 147//147
f  144//144 148//148 98//98
f  98//98 148//148 119//119
f  99//99 101//101 149//149
f  115//115 99//99 149//149
f  101//101 100//100 149//149
f  100//100 102//102 124//124
f  100//100 124//124 149//149
f  102//102 121//121 124//124
f  108//108 150//150 102//102
f  151//151 102//102 150//150
f  121//121 102//102 151//151
f  103//103 152//152 153//153
f  104//104 103//103 154//154
f  103//103 155//155 154//154
f  106//106 152//152 103//103
f  153//153 156//156 103//103
f  156//156 155//155 103//103
f  104//104 154//154 157//157
f  150//150 105//105 104//104
f  150//150 104//104 158//158
f  158//158 104//104 157//157
f  150//150 107//107 105//105
f  159//159 106//106 109//109
f  106//106 159//159 160//160
f  152//152 106//106 160//160
f  107//107 161//161 162//162
f  108//108 107//107 162//162
f  107//107 163//163 161//161
f  150//150 163//163 107//107
f  108//108 162//162 150//150
f  164//164 109//109 139//139
f  164//164 159//159 109//109
f  110//110 165//165 147//147
f  123//123 165//165 110//110
f  113//113 112//112 111//111
f  116//116 113//113 111//111
f  120//120 116//116 111//111
f  111//111 114//114 115//115
f  111//111 115//115 149//149
f  111//111 149//149 124//124
f  118//118 117//117 126//126
f  127//127 126//126 117//117
f  166//166 127//127 117//117
f  166//166 117//117 167//167
f  117//117 148//148 167//167
f  148//148 117//117 119//119
f  151//151 122//122 121//121
f  122//122 151//151 157//157
f  122//122 157//157 168//168
f  169//169 122//122 168//168
f  169//169 165//165 122//122
f  123//123 122//122 165//165
f  125//125 138//138 136//136
f  125//125 126//126 129//129
f  127//127 129//129 126//126
f  127//127 170//170 128//128
f  170//170 127//127 166//166
f  128//128 170//170 171//171
f  132//132 128//128 171//171
f  135//135 131//131 130//130
f  130//130 172//172 173//173
f  130//130 173//173 174//174
f  130//130 174//174 135//135
f  172//172 130//130 175//175
f  133//133 175//175 130//130
f  132//132 171//171 166//166
f  132//132 166//166 167//167
f  148//148 133//133 132//132
f  148//148 132//132 167//167
f  144//144 133//133 148//148
f  175//175 133//133 143//143
f  143//143 133//133 144//144
f  135//135 176//176 134//134
f  134//134 176//176 140//140
f  135//135 174//174 176//176
f  136//136 138//138 137//137
f  139//139 140//140 177//177
f  139//139 177//177 178//178
f  179//179 164//164 139//139
f  178//178 179//179 139//139
f  140//140 176//176 177//177
f  180//180 142//142 141//141
f  141//141 181//181 182//182
f  141//141 182//182 180//180
f  141//141 145//145 183//183
f  184//184 181//181 141//141
f  183//183 184//184 141//141
f  180//180 143//143 142//142
f  180//180 175//175 143//143
f  145//145 146//146 183//183
f  146//146 185//185 183//183
f  146//146 156//156 185//185
f  147//147 156//156 146//146
f  165//165 156//156 147//147
f  162//162 163//163 150//150
f  158//158 151//151 150//150
f  151//151 158//158 157//157
f  153//153 152//152 160//160
f  186//186 187//187 153//153
f  188//188 186//186 153//153
f  160//160 188//188 153//153
f  185//185 153//153 187//187
f  153//153 185//185 156//156
f  154//154 189//189 157//157
f  190//190 189//189 154//154
f  190//190 154//154 155//155
f  168//168 190//190 155//155
f  169//169 168//168 155//155
f  155//155 156//156 165//165
f  169//169 155//155 165//165
f  168//168 157//157 189//189
f  159//159 191//191 160//160
f  164//164 191//191 159//159
f  191//191 188//188 160//160
f  161//161 163//163 162//162
f  179//179 191//191 164//164
f  170//170 166//166 171//171
f  190//190 168//168 189//189
f  182//182 172//172 175//175
f  192//192 173//173 172//172
f  192//192 172//172 182//182
f  193//193 194//194 173//173
f  193//193 173//173 192//192
f  194//194 174//174 173//173
f  194//194 176//176 174//174
f  182//182 175//175 180//180
f  177//177 176//176 194//194
f  177//177 194//194 193//193
f  177//177 193//193 195//195
f  178//178 177//177 195//195
f  195//195 179//179 178//178
f  196//196 191//191 179//179
f  197//197 196//196 179//179
f  195//195 197//197 179//179
f  181//181 198//198 192//192
f  181//181 192//192 182//182
f  199//199 198//198 181//181
f  184//184 199//199 181//181
f  183//183 185//185 184//184
f  185//185 187//187 184//184
f  184//184 187//187 199//199
f  187//187 186//186 199//199
f  186//186 196//196 197//197
f  199//199 186//186 197//197
f  186//186 188//188 196//196
f  188//188 191//191 196//196
f  198//198 200//200 192//192
f  201//201 193//193 192//192
f  201//201 192//192 200//200
f  202//202 195//195 193//193
f  202//202 193//193 201//201
f  195//195 202//202 203//203
f  203//203 204//204 195//195
f  197//197 195//195 204//204
f  199//199 197//197 205//205
f  205//205 197//197 204//204
f  198//198 206//206 200//200
f  207//207 206//206 198//198
f  208//208 209//209 198//198
f  199//199 208//208 198//198
f  198//198 209//209 207//207
f  208//208 199//199 205//205
f  202//202 201//201 200//200
f  202//202 200//200 210//210
f  206//206 210//210 200//200
f  203//203 202//202 210//210
f  203//203 210//210 211//211
f  212//212 204//204 203//203
f  211//211 212//212 203//203
f  208//208 205//205 204//204
f  212//212 208//208 204//204
f  211//211 210//210 206//206
f  211//211 206//206 207//207
f  207//207 209//209 211//211
f  208//208 212//212 209//209
f  209//209 212//212 211//211
