#VRML V2.0 utf8 
Transform { 
 children [ 
    Shape { 
appearance Appearance {
              material DEF surface Material {
              diffuseColor 0.8 0.8 0.8
              ambientIntensity 0.2
              specularColor 0.4 0.4 0.4
              emissiveColor 0 0 0
              shininess 0.25
              transparency 0
            }
          }
   geometry IndexedFaceSet { 
   solid FALSE 
    coord DEF bone Coordinate{ 
     point [ 
	 -0.051704   0.147763   0.000025,
	 -0.052584   0.147885   0.008122,
	 -0.067170   0.144630   0.000003,
	 -0.051935   0.151947   0.009744,
	 -0.051076   0.149409   0.000026,
	 -0.052584   0.147885  -0.008122,
	 -0.051935   0.151947  -0.009744,
	 -0.057363   0.147469   0.016549,
	 -0.064897   0.146176   0.020648,
	 -0.080829   0.141055   0.004884,
	 -0.081036   0.141293   0.000003,
	 -0.081293   0.141209   0.014377,
	 -0.076681   0.143463   0.020759,
	 -0.057363   0.147469  -0.016549,
	 -0.064897   0.146176  -0.020648,
	 -0.080829   0.141055  -0.004884,
	 -0.081293   0.141209  -0.014377,
	 -0.076681   0.143463  -0.020759,
	 -0.052761   0.153586   0.000027,
	 -0.054342   0.153742   0.010432,
	 -0.057955   0.151600   0.017582,
	 -0.054342   0.153742  -0.010432,
	 -0.057955   0.151600  -0.017582,
	 -0.067111   0.150563   0.021355,
	 -0.083443   0.144533   0.005026,
	 -0.085764   0.143301   0.000003,
	 -0.083443   0.144533  -0.005026,
	 -0.079199   0.148193   0.021506,
	 -0.084720   0.141136   0.016145,
	 -0.084631   0.145751   0.009553,
	 -0.067111   0.150563  -0.021355,
	 -0.084720   0.141136  -0.016145,
	 -0.079199   0.148193  -0.021506,
	 -0.084631   0.145751  -0.009553,
	 -0.054185   0.162051   0.000029,
	 -0.055479   0.160849   0.010068,
	 -0.060643   0.153886   0.017143,
	 -0.055479   0.160849  -0.010068,
	 -0.060643   0.153886  -0.017143,
	 -0.068085   0.154485   0.019427,
	 -0.084287   0.151391   0.006445,
	 -0.083778   0.151482   0.000005,
	 -0.084287   0.151391  -0.006445,
	 -0.077674   0.152438   0.020355,
	 -0.082879   0.150277   0.019247,
	 -0.086291   0.151684   0.009857,
	 -0.068085   0.154485  -0.019427,
	 -0.082879   0.150277  -0.019247,
	 -0.077674   0.152438  -0.020355,
	 -0.086291   0.151684  -0.009857,
	 -0.054186   0.165743   0.000030,
	 -0.054769   0.165299   0.011137,
	 -0.061613   0.160625   0.017802,
	 -0.054769   0.165299  -0.011137,
	 -0.061613   0.160625  -0.017802,
	 -0.066717   0.160150   0.019516,
	 -0.086953   0.160623   0.006660,
	 -0.089061   0.160784   0.010307,
	 -0.086214   0.160808   0.000008,
	 -0.086953   0.160623  -0.006660,
	 -0.089061   0.160784  -0.010307,
	 -0.077248   0.159283   0.020501,
	 -0.082316   0.159621   0.020900,
	 -0.089130   0.149144   0.017339,
	 -0.086591   0.152084   0.021258,
	 -0.089044   0.158685   0.025419,
	 -0.095906   0.155627   0.003783,
	 -0.066717   0.160150  -0.019516,
	 -0.082316   0.159621  -0.020900,
	 -0.077248   0.159283  -0.020501,
	 -0.086591   0.152084  -0.021258,
	 -0.089130   0.149144  -0.017339,
	 -0.089044   0.158685  -0.025419,
	 -0.095906   0.155627  -0.003783,
	 -0.054948   0.169781   0.000031,
	 -0.055780   0.169460   0.011341,
	 -0.060114   0.164312   0.018843,
	 -0.055780   0.169460  -0.011341,
	 -0.060114   0.164312  -0.018843,
	 -0.066400   0.163096   0.021579,
	 -0.088494   0.167186   0.008490,
	 -0.089043   0.165520   0.011066,
	 -0.086650   0.166542   0.000009,
	 -0.088494   0.167186  -0.008490,
	 -0.089043   0.165520  -0.011066,
	 -0.075550   0.163469   0.022619,
	 -0.083954   0.163500   0.020197,
	 -0.090649   0.163888   0.020244,
	 -0.099647   0.158635   0.023464,
	 -0.097282   0.154983   0.017438,
	 -0.093582   0.149714   0.025099,
	 -0.090812   0.146449   0.010687,
	 -0.094013   0.158207   0.024139,
	 -0.094923   0.151578   0.021945,
	 -0.095889   0.150543   0.000004,
	 -0.093645   0.136727   0.005190,
	 -0.104981   0.157262   0.000005,
	 -0.098933   0.160848   0.007831,
	 -0.066400   0.163096  -0.021579,
	 -0.083954   0.163500  -0.020197,
	 -0.075550   0.163469  -0.022619,
	 -0.090649   0.163888  -0.020244,
	 -0.097282   0.154983  -0.017438,
	 -0.099647   0.158635  -0.023464,
	 -0.093582   0.149714  -0.025098,
	 -0.090812   0.146449  -0.010687,
	 -0.094923   0.151578  -0.021945,
	 -0.094013   0.158207  -0.024139,
	 -0.093645   0.136727  -0.005190,
	 -0.098933   0.160848  -0.007831,
	 -0.070799   0.168161   0.000009,
	 -0.060955   0.168687   0.019104,
	 -0.068196   0.168045   0.022621,
	 -0.060955   0.168687  -0.019104,
	 -0.068196   0.168045  -0.022621,
	 -0.077471   0.166597   0.022760,
	 -0.098851   0.169319   0.016235,
	 -0.090594   0.165580   0.014311,
	 -0.098280   0.166895   0.010211,
	 -0.086463   0.166962   0.017370,
	 -0.090594   0.165580  -0.014311,
	 -0.098851   0.169319  -0.016235,
	 -0.098280   0.166895  -0.010211,
	 -0.086463   0.166962  -0.017370,
	 -0.097048   0.162910   0.021546,
	 -0.096419   0.165854   0.018664,
	 -0.107232   0.168628   0.029042,
	 -0.107073   0.160798   0.021401,
	 -0.100241   0.163983   0.021586,
	 -0.103670   0.146855   0.012827,
	 -0.099353   0.148797   0.015703,
	 -0.113493   0.159525   0.025700,
	 -0.103230   0.158677   0.012865,
	 -0.091962   0.147748   0.012174,
	 -0.103013   0.143221   0.017297,
	 -0.098014   0.158047   0.026699,
	 -0.099405   0.155867   0.024348,
	 -0.101334   0.162153   0.024692,
	 -0.097019   0.141039   0.000003,
	 -0.093238   0.135836   0.006801,
	 -0.110314   0.145736   0.000004,
	 -0.105576   0.152418   0.005031,
	 -0.101458   0.151924   0.008422,
	 -0.102020   0.157341   0.010556,
	 -0.105576   0.152418  -0.005031,
	 -0.101458   0.151924  -0.008422,
	 -0.102020   0.157341  -0.010556,
	 -0.100112   0.161188   0.011518,
	 -0.077471   0.166597  -0.022760,
	 -0.097048   0.162910  -0.021546,
	 -0.096419   0.165854  -0.018664,
	 -0.099353   0.148797  -0.015703,
	 -0.103670   0.146855  -0.012827,
	 -0.107073   0.160798  -0.021401,
	 -0.113493   0.159525  -0.025700,
	 -0.103230   0.158677  -0.012865,
	 -0.107232   0.168628  -0.029042,
	 -0.100241   0.163983  -0.021586,
	 -0.091962   0.147748  -0.012174,
	 -0.103013   0.143221  -0.017297,
	 -0.099405   0.155867  -0.024348,
	 -0.098014   0.158047  -0.026699,
	 -0.101334   0.162153  -0.024692,
	 -0.093238   0.135836  -0.006801,
	 -0.100112   0.161188  -0.011518,
	 -0.112592   0.165128   0.024342,
	 -0.104446   0.163863   0.014127,
	 -0.112592   0.165128  -0.024342,
	 -0.104446   0.163863  -0.014127,
	 -0.110544   0.164015   0.032179,
	 -0.112108   0.161742   0.025005,
	 -0.105807   0.144032   0.010413,
	 -0.105463   0.139957   0.009853,
	 -0.102168   0.137301   0.017050,
	 -0.103768   0.148734   0.008980,
	 -0.094172   0.133673   0.013515,
	 -0.096075   0.138366   0.005408,
	 -0.099328   0.141093   0.000001,
	 -0.096075   0.138366  -0.005408,
	 -0.109009   0.148164   0.004248,
	 -0.114134   0.140153  -0.000016,
	 -0.108154   0.144181   0.004132,
	 -0.109009   0.148164  -0.004248,
	 -0.108154   0.144181  -0.004132,
	 -0.103768   0.148734  -0.008980,
	 -0.105463   0.139957  -0.009853,
	 -0.105807   0.144032  -0.010413,
	 -0.102168   0.137301  -0.017050,
	 -0.110544   0.164015  -0.032179,
	 -0.112108   0.161742  -0.025005,
	 -0.094172   0.133673  -0.013515,
	 -0.107842   0.140310   0.004311,
	 -0.106601   0.138526   0.005054,
	 -0.101204   0.137944   0.007751,
	 -0.105862   0.134133  -0.000000,
	 -0.101204   0.137944  -0.007751,
	 -0.106601   0.138526  -0.005054,
	 -0.120111   0.132535  -0.000021,
	 -0.107842   0.140310  -0.004311,
	 -0.112072   0.133221   0.004690,
	 -0.108515   0.131546   0.004708,
	 -0.111692   0.125247   0.003656,
	 -0.113462   0.124467  -0.000003,
	 -0.111692   0.125247  -0.003656,
	 -0.108515   0.131546  -0.004708,
	 -0.121132   0.129251   0.004742,
	 -0.121854   0.127877  -0.000022,
	 -0.112072   0.133221  -0.004690,
	 -0.121132   0.129251  -0.004742,
	 -0.118902   0.126296   0.005523,
	 -0.117661   0.124754  -0.000021,
	 -0.118902   0.126296  -0.005523,
     ]    } 
    coordIndex [ 
	     0,      1,      2, -1 
	     3,      1,      0, -1 
	     3,      0,      4, -1 
	     2,      5,      0, -1 
	     0,      5,      6, -1 
	     4,      0,      6, -1 
	     1,      7,      2, -1 
	     7,      1,      3, -1 
	     7,      8,      2, -1 
	     9,     10,      2, -1 
	     2,     11,      9, -1 
	    12,     11,      2, -1 
	     2,      8,     12, -1 
	     2,     13,      5, -1 
	     2,     14,     13, -1 
	     2,     10,     15, -1 
	    15,     16,      2, -1 
	     2,     16,     17, -1 
	    17,     14,      2, -1 
	    18,     19,      3, -1 
	    18,      3,      4, -1 
	    20,      3,     19, -1 
	     7,      3,     20, -1 
	     4,      6,     18, -1 
	     6,      5,     13, -1 
	     6,     21,     18, -1 
	    21,      6,     22, -1 
	    22,      6,     13, -1 
	     8,      7,     20, -1 
	     8,     20,     23, -1 
	    12,      8,     23, -1 
	    10,      9,     24, -1 
	    11,     24,      9, -1 
	    10,     24,     25, -1 
	    26,     15,     10, -1 
	    25,     26,     10, -1 
	    27,     28,     11, -1 
	    27,     11,     12, -1 
	    11,     28,     29, -1 
	    11,     29,     24, -1 
	    12,     23,     27, -1 
	    22,     13,     14, -1 
	    30,     22,     14, -1 
	    30,     14,     17, -1 
	    15,     26,     16, -1 
	    16,     31,     32, -1 
	    17,     16,     32, -1 
	    33,     31,     16, -1 
	    26,     33,     16, -1 
	    32,     30,     17, -1 
	    34,     19,     18, -1 
	    18,     21,     34, -1 
	    34,     35,     19, -1 
	    36,     19,     35, -1 
	    20,     19,     36, -1 
	    23,     20,     36, -1 
	    21,     37,     34, -1 
	    37,     21,     38, -1 
	    38,     21,     22, -1 
	    38,     22,     30, -1 
	    23,     36,     39, -1 
	    27,     23,     39, -1 
	    40,     25,     24, -1 
	    40,     24,     29, -1 
	    25,     40,     41, -1 
	    41,     42,     25, -1 
	    26,     25,     42, -1 
	    33,     26,     42, -1 
	    27,     39,     43, -1 
	    43,     28,     27, -1 
	    43,     44,     28, -1 
	    29,     28,     45, -1 
	    28,     44,     45, -1 
	    40,     29,     45, -1 
	    46,     38,     30, -1 
	    46,     30,     32, -1 
	    31,     47,     48, -1 
	    32,     31,     48, -1 
	    49,     31,     33, -1 
	    49,     47,     31, -1 
	    48,     46,     32, -1 
	    49,     33,     42, -1 
	    50,     35,     34, -1 
	    34,     37,     50, -1 
	    50,     51,     35, -1 
	    52,     35,     51, -1 
	    36,     35,     52, -1 
	    39,     36,     52, -1 
	    37,     53,     50, -1 
	    53,     37,     54, -1 
	    54,     37,     38, -1 
	    54,     38,     46, -1 
	    39,     52,     55, -1 
	    43,     39,     55, -1 
	    41,     40,     56, -1 
	    40,     57,     56, -1 
	    40,     45,     57, -1 
	    41,     56,     58, -1 
	    59,     42,     41, -1 
	    58,     59,     41, -1 
	    59,     60,     42, -1 
	    60,     49,     42, -1 
	    43,     55,     61, -1 
	    61,     44,     43, -1 
	    61,     62,     44, -1 
	    63,     44,     64, -1 
	    65,     64,     44, -1 
	    65,     44,     62, -1 
	    44,     63,     45, -1 
	    57,     45,     66, -1 
	    66,     45,     63, -1 
	    67,     54,     46, -1 
	    67,     46,     48, -1 
	    47,     68,     69, -1 
	    48,     47,     69, -1 
	    70,     47,     71, -1 
	    47,     70,     72, -1 
	    68,     47,     72, -1 
	    49,     71,     47, -1 
	    69,     67,     48, -1 
	    73,     49,     60, -1 
	    71,     49,     73, -1 
	    74,     51,     50, -1 
	    50,     53,     74, -1 
	    74,     75,     51, -1 
	    76,     51,     75, -1 
	    52,     51,     76, -1 
	    55,     52,     76, -1 
	    53,     77,     74, -1 
	    77,     53,     78, -1 
	    78,     53,     54, -1 
	    78,     54,     67, -1 
	    55,     76,     79, -1 
	    61,     55,     79, -1 
	    58,     56,     80, -1 
	    56,     57,     81, -1 
	    56,     81,     80, -1 
	    66,     81,     57, -1 
	    58,     80,     82, -1 
	    83,     59,     58, -1 
	    82,     83,     58, -1 
	    84,     60,     59, -1 
	    83,     84,     59, -1 
	    60,     84,     73, -1 
	    61,     79,     85, -1 
	    85,     62,     61, -1 
	    85,     86,     62, -1 
	    87,     65,     62, -1 
	    87,     62,     86, -1 
	    88,     89,     63, -1 
	    88,     63,     90, -1 
	    63,     64,     65, -1 
	    63,     65,     90, -1 
	    63,     89,     91, -1 
	    63,     91,     66, -1 
	    65,     92,     93, -1 
	    65,     93,     90, -1 
	    87,     92,     65, -1 
	    94,     66,     95, -1 
	    66,     94,     96, -1 
	    66,     96,     97, -1 
	    91,     95,     66, -1 
	    66,     97,     81, -1 
	    98,     78,     67, -1 
	    98,     67,     69, -1 
	    68,     99,    100, -1 
	    69,     68,    100, -1 
	    68,     72,    101, -1 
	    99,     68,    101, -1 
	   100,     98,     69, -1 
	    72,     70,     71, -1 
	    71,    102,    103, -1 
	   104,     71,    103, -1 
	   104,     72,     71, -1 
	   105,    102,     71, -1 
	    73,    105,     71, -1 
	   106,    107,     72, -1 
	   104,    106,     72, -1 
	    72,    107,    101, -1 
	   108,     73,     94, -1 
	    96,     94,     73, -1 
	   109,     96,     73, -1 
	    73,    108,    105, -1 
	    84,    109,     73, -1 
	    75,     74,    110, -1 
	   110,     74,     77, -1 
	    76,     75,    111, -1 
	   111,     75,    110, -1 
	   112,     79,     76, -1 
	   112,     76,    111, -1 
	   113,     77,     78, -1 
	   110,     77,    113, -1 
	    78,     98,    114, -1 
	   113,     78,    114, -1 
	   115,     85,     79, -1 
	   115,     79,    112, -1 
	   116,    117,     80, -1 
	    80,    118,    116, -1 
	    80,     97,    118, -1 
	    97,     80,     81, -1 
	    82,     80,    110, -1 
	    80,    119,    110, -1 
	   117,    119,     80, -1 
	   110,     83,     82, -1 
	    83,    120,    121, -1 
	   121,    122,     83, -1 
	   122,    109,     83, -1 
	    84,     83,    109, -1 
	   110,    123,     83, -1 
	    83,    123,    120, -1 
	   115,     86,     85, -1 
	   119,     87,     86, -1 
	   115,    119,     86, -1 
	   119,    117,     87, -1 
	    87,    124,     92, -1 
	   124,     87,    125, -1 
	   125,     87,    117, -1 
	   126,    127,     88, -1 
	   127,     89,     88, -1 
	    88,     90,    124, -1 
	   128,     88,    124, -1 
	   126,     88,    128, -1 
	   129,    130,     89, -1 
	   127,    131,     89, -1 
	    89,    130,     91, -1 
	    89,    132,    129, -1 
	    89,    131,    132, -1 
	    90,     93,    124, -1 
	    95,     91,    133, -1 
	   134,    133,     91, -1 
	   134,     91,    130, -1 
	   124,    135,     92, -1 
	   135,     93,     92, -1 
	   135,    136,     93, -1 
	   136,    137,     93, -1 
	    93,    137,    124, -1 
	    94,     95,    138, -1 
	   138,    108,     94, -1 
	   138,     95,    139, -1 
	    95,    133,    139, -1 
	   140,    141,     96, -1 
	    96,    141,    142, -1 
	    96,    142,    143, -1 
	   143,     97,     96, -1 
	    96,    144,    140, -1 
	   145,    144,     96, -1 
	   146,    145,     96, -1 
	    96,    109,    146, -1 
	   143,    147,     97, -1 
	    97,    147,    118, -1 
	    98,    100,    148, -1 
	   114,     98,    148, -1 
	   100,     99,    148, -1 
	    99,    101,    123, -1 
	    99,    123,    148, -1 
	   101,    120,    123, -1 
	   107,    149,    101, -1 
	   150,    101,    149, -1 
	   120,    101,    150, -1 
	   102,    151,    152, -1 
	   103,    102,    153, -1 
	   102,    154,    153, -1 
	   105,    151,    102, -1 
	   152,    155,    102, -1 
	   155,    154,    102, -1 
	   103,    153,    156, -1 
	   149,    104,    103, -1 
	   149,    103,    157, -1 
	   157,    103,    156, -1 
	   149,    106,    104, -1 
	   158,    105,    108, -1 
	   105,    158,    159, -1 
	   151,    105,    159, -1 
	   106,    160,    161, -1 
	   107,    106,    161, -1 
	   106,    162,    160, -1 
	   149,    162,    106, -1 
	   107,    161,    149, -1 
	   163,    108,    138, -1 
	   163,    158,    108, -1 
	   109,    164,    146, -1 
	   122,    164,    109, -1 
	   112,    111,    110, -1 
	   115,    112,    110, -1 
	   119,    115,    110, -1 
	   110,    113,    114, -1 
	   110,    114,    148, -1 
	   110,    148,    123, -1 
	   117,    116,    125, -1 
	   126,    125,    116, -1 
	   165,    126,    116, -1 
	   165,    116,    166, -1 
	   116,    147,    166, -1 
	   147,    116,    118, -1 
	   150,    121,    120, -1 
	   121,    150,    156, -1 
	   121,    156,    167, -1 
	   168,    121,    167, -1 
	   168,    164,    121, -1 
	   122,    121,    164, -1 
	   124,    137,    135, -1 
	   124,    125,    128, -1 
	   126,    128,    125, -1 
	   126,    169,    127, -1 
	   169,    126,    165, -1 
	   127,    169,    170, -1 
	   131,    127,    170, -1 
	   134,    130,    129, -1 
	   129,    171,    172, -1 
	   129,    172,    173, -1 
	   129,    173,    134, -1 
	   171,    129,    174, -1 
	   132,    174,    129, -1 
	   131,    170,    165, -1 
	   131,    165,    166, -1 
	   147,    132,    131, -1 
	   147,    131,    166, -1 
	   143,    132,    147, -1 
	   174,    132,    142, -1 
	   142,    132,    143, -1 
	   134,    175,    133, -1 
	   133,    175,    139, -1 
	   134,    173,    175, -1 
	   135,    137,    136, -1 
	   138,    139,    176, -1 
	   138,    176,    177, -1 
	   178,    163,    138, -1 
	   177,    178,    138, -1 
	   139,    175,    176, -1 
	   179,    141,    140, -1 
	   140,    180,    181, -1 
	   140,    181,    179, -1 
	   140,    144,    182, -1 
	   183,    180,    140, -1 
	   182,    183,    140, -1 
	   179,    142,    141, -1 
	   179,    174,    142, -1 
	   144,    145,    182, -1 
	   145,    184,    182, -1 
	   145,    155,    184, -1 
	   146,    155,    145, -1 
	   164,    155,    146, -1 
	   161,    162,    149, -1 
	   157,    150,    149, -1 
	   150,    157,    156, -1 
	   152,    151,    159, -1 
	   185,    186,    152, -1 
	   187,    185,    152, -1 
	   159,    187,    152, -1 
	   184,    152,    186, -1 
	   152,    184,    155, -1 
	   153,    188,    156, -1 
	   189,    188,    153, -1 
	   189,    153,    154, -1 
	   167,    189,    154, -1 
	   168,    167,    154, -1 
	   154,    155,    164, -1 
	   168,    154,    164, -1 
	   167,    156,    188, -1 
	   158,    190,    159, -1 
	   163,    190,    158, -1 
	   190,    187,    159, -1 
	   160,    162,    161, -1 
	   178,    190,    163, -1 
	   169,    165,    170, -1 
	   189,    167,    188, -1 
	   181,    171,    174, -1 
	   191,    172,    171, -1 
	   191,    171,    181, -1 
	   192,    193,    172, -1 
	   192,    172,    191, -1 
	   193,    173,    172, -1 
	   193,    175,    173, -1 
	   181,    174,    179, -1 
	   176,    175,    193, -1 
	   176,    193,    192, -1 
	   176,    192,    194, -1 
	   177,    176,    194, -1 
	   194,    178,    177, -1 
	   195,    190,    178, -1 
	   196,    195,    178, -1 
	   194,    196,    178, -1 
	   180,    197,    191, -1 
	   180,    191,    181, -1 
	   198,    197,    180, -1 
	   183,    198,    180, -1 
	   182,    184,    183, -1 
	   184,    186,    183, -1 
	   183,    186,    198, -1 
	   186,    185,    198, -1 
	   185,    195,    196, -1 
	   198,    185,    196, -1 
	   185,    187,    195, -1 
	   187,    190,    195, -1 
	   197,    199,    191, -1 
	   200,    192,    191, -1 
	   200,    191,    199, -1 
	   201,    194,    192, -1 
	   201,    192,    200, -1 
	   194,    201,    202, -1 
	   202,    203,    194, -1 
	   196,    194,    203, -1 
	   198,    196,    204, -1 
	   204,    196,    203, -1 
	   197,    205,    199, -1 
	   206,    205,    197, -1 
	   207,    208,    197, -1 
	   198,    207,    197, -1 
	   197,    208,    206, -1 
	   207,    198,    204, -1 
	   201,    200,    199, -1 
	   201,    199,    209, -1 
	   205,    209,    199, -1 
	   202,    201,    209, -1 
	   202,    209,    210, -1 
	   211,    203,    202, -1 
	   210,    211,    202, -1 
	   207,    204,    203, -1 
	   211,    207,    203, -1 
	   210,    209,    205, -1 
	   210,    205,    206, -1 
	   206,    208,    210, -1 
	   207,    211,    208, -1 
	   208,    211,    210, -1 
    ] 
   colorPerVertex FALSE 
    colorIndex [ 
	  1, 
	  1, 
	  1, 
	  1, 
	  1, 
	  1, 
	  1, 
	  1, 
	  1, 
	  1, 
	  1, 
	  1, 
	  1, 
	  1, 
	  1, 
	  1, 
	  1, 
	  1, 
	  1, 
	  1, 
	  1, 
	  1, 
	  1, 
	  1, 
	  1, 
	  1, 
	  1, 
	  1, 
	  1, 
	  1, 
	  1, 
	  1, 
	  1, 
	  1, 
	  1, 
	  1, 
	  1, 
	  1, 
	  1, 
	  1, 
	  1, 
	  1, 
	  1, 
	  1, 
	  1, 
	  1, 
	  1, 
	  1, 
	  1, 
	  1, 
	  1, 
	  1, 
	  1, 
	  1, 
	  1, 
	  1, 
	  1, 
	  1, 
	  1, 
	  1, 
	  1, 
	  1, 
	  1, 
	  1, 
	  1, 
	  1, 
	  1, 
	  1, 
	  1, 
	  1, 
	  1, 
	  1, 
	  1, 
	  1, 
	  1, 
	  1, 
	  1, 
	  1, 
	  1, 
	  1, 
	  1, 
	  1, 
	  1, 
	  1, 
	  1, 
	  1, 
	  1, 
	  1, 
	  1, 
	  1, 
	  1, 
	  1, 
	  1, 
	  1, 
	  1, 
	  1, 
	  1, 
	  1, 
	  1, 
	  1, 
	  1, 
	  1, 
	  1, 
	  1, 
	  1, 
	  1, 
	  1, 
	  1, 
	  1, 
	  1, 
	  1, 
	  1, 
	  1, 
	  1, 
	  1, 
	  1, 
	  1, 
	  1, 
	  1, 
	  1, 
	  1, 
	  1, 
	  1, 
	  1, 
	  1, 
	  1, 
	  1, 
	  1, 
	  1, 
	  1, 
	  1, 
	  1, 
	  1, 
	  1, 
	  1, 
	  1, 
	  1, 
	  1, 
	  1, 
	  1, 
	  1, 
	  1, 
	  1, 
	  1, 
	  1, 
	  1, 
	  1, 
	  1, 
	  1, 
	  1, 
	  1, 
	  1, 
	  1, 
	  1, 
	  1, 
	  1, 
	  1, 
	  1, 
	  1, 
	  1, 
	  1, 
	  1, 
	  1, 
	  1, 
	  1, 
	  1, 
	  1, 
	  1, 
	  1, 
	  1, 
	  1, 
	  1, 
	  1, 
	  1, 
	  1, 
	  1, 
	  1, 
	  1, 
	  1, 
	  1, 
	  1, 
	  1, 
	  1, 
	  1, 
	  1, 
	  1, 
	  1, 
	  1, 
	  1, 
	  1, 
	  1, 
	  1, 
	  1, 
	  1, 
	  1, 
	  1, 
	  1, 
	  1, 
	  1, 
	  1, 
	  1, 
	  1, 
	  1, 
	  1, 
	  1, 
	  1, 
	  1, 
	  1, 
	  1, 
	  1, 
	  1, 
	  1, 
    ] 
normal Normal { 
vector [ 
	  0.807313  -0.590123   0.000352,
	  0.650161  -0.734217   0.195488,
	  0.233230  -0.972422   0.000015,
	  0.937686   0.146079   0.315287,
	  0.999923   0.012366   0.000238,
	  0.650262  -0.734194  -0.195240,
	  0.937777   0.146172  -0.314974,
	  0.617047  -0.606450   0.501469,
	  0.345362  -0.569528   0.745897,
	 -0.331718  -0.943241  -0.016107,
	 -0.357438  -0.933937   0.000058,
	 -0.294668  -0.945772   0.136697,
	 -0.003900  -0.691582   0.722288,
	  0.617044  -0.606458  -0.501464,
	  0.345362  -0.569533  -0.745893,
	 -0.331716  -0.943242   0.016088,
	 -0.294662  -0.945774  -0.136693,
	 -0.003893  -0.691586  -0.722284,
	  0.884436   0.466662   0.000189,
	  0.801975   0.471781   0.366415,
	  0.563361   0.308026   0.766645,
	  0.802080   0.471855  -0.366088,
	  0.563361   0.308026  -0.766645,
	  0.169726   0.205438   0.963840,
	 -0.837627  -0.537676   0.096362,
	 -0.937381  -0.348306   0.000142,
	 -0.837646  -0.537672  -0.096216,
	 -0.251723  -0.049201   0.966548,
	 -0.780079  -0.455266   0.429198,
	 -0.841107  -0.428036  -0.330643,
	  0.169726   0.205438  -0.963840,
	 -0.780078  -0.455270  -0.429194,
	 -0.251726  -0.049201  -0.966547,
	 -0.841105  -0.428036   0.330646,
	  0.993853   0.110703   0.000385,
	  0.920744  -0.011755   0.389991,
	  0.520545   0.328849   0.787966,
	  0.920863  -0.011735  -0.389709,
	  0.520545   0.328849  -0.787966,
	  0.170298   0.167992   0.970967,
	 -0.965781  -0.151693  -0.210373,
	 -0.994976  -0.100113  -0.000082,
	 -0.965778  -0.151683   0.210392,
	 -0.166903   0.049659   0.984722,
	 -0.023731  -0.463104   0.885986,
	 -0.677020  -0.531990  -0.508558,
	  0.170298   0.167992  -0.970967,
	 -0.023730  -0.463107  -0.885985,
	 -0.166903   0.049657  -0.984722,
	 -0.677019  -0.531990   0.508558,
	  0.999983   0.005885   0.000216,
	  0.943425  -0.052395   0.327422,
	  0.575892  -0.209157   0.790317,
	  0.943481  -0.052377  -0.327260,
	  0.575892  -0.209157  -0.790317,
	  0.242503  -0.289886   0.925829,
	 -0.947256  -0.172987  -0.269780,
	 -0.406221  -0.014523  -0.913659,
	 -0.984285  -0.176588  -0.000159,
	 -0.947280  -0.173017   0.269678,
	 -0.406221  -0.014523   0.913659,
	  0.034147  -0.298773   0.953713,
	  0.137842   0.026655   0.990096,
	 -0.085041  -0.974187   0.209110,
	 -0.070023  -0.640465   0.764789,
	  0.050527  -0.032261   0.998201,
	  0.649979   0.239645  -0.721178,
	  0.242500  -0.289880  -0.925831,
	  0.137844   0.026664  -0.990095,
	  0.034149  -0.298771  -0.953714,
	 -0.070023  -0.640465  -0.764789,
	 -0.085042  -0.974187  -0.209109,
	  0.050527  -0.032263  -0.998201,
	  0.650156   0.239729   0.720990,
	  0.794809   0.606859   0.000184,
	  0.646488   0.681711   0.342526,
	  0.612227  -0.168951   0.772420,
	  0.646527   0.681743  -0.342388,
	  0.612224  -0.168952  -0.772423,
	  0.207747  -0.317250   0.925307,
	 -0.542094   0.755210  -0.368499,
	 -0.246849  -0.037852  -0.968314,
	 -0.761711   0.647917  -0.000228,
	 -0.542157   0.755237   0.368352,
	 -0.246851  -0.037857   0.968314,
	 -0.065831  -0.222777   0.972644,
	 -0.206460   0.215460   0.954438,
	  0.005934   0.710077   0.704099,
	 -0.231922  -0.487741   0.841618,
	 -0.358604  -0.593487   0.720539,
	  0.310889  -0.107854   0.944307,
	  0.772906  -0.390493   0.500131,
	  0.131677   0.283864   0.949780,
	 -0.514913  -0.583725   0.627798,
	  0.968740   0.248077  -0.000288,
	  0.902561  -0.327941  -0.278996,
	 -0.595452   0.803391   0.000039,
	 -0.402898   0.544134  -0.735928,
	  0.207747  -0.317249  -0.925308,
	 -0.206459   0.215463  -0.954437,
	 -0.065831  -0.222774  -0.972645,
	  0.005937   0.710078  -0.704098,
	 -0.358604  -0.593488  -0.720538,
	 -0.231921  -0.487743  -0.841618,
	  0.310892  -0.107864  -0.944305,
	  0.772906  -0.390493  -0.500131,
	 -0.514911  -0.583728  -0.627796,
	  0.131677   0.283864  -0.949780,
	  0.902585  -0.327984   0.278866,
	 -0.402826   0.544174   0.735939,
	 -0.083636   0.996496   0.000000,
	  0.377190   0.758730   0.531090,
	  0.190765   0.522309   0.831145,
	  0.377184   0.758737  -0.531085,
	  0.190765   0.522305  -0.831148,
	 -0.171271   0.444705   0.879150,
	 -0.116151   0.983968  -0.135336,
	  0.065257   0.935667   0.346798,
	 -0.644527   0.537762  -0.543504,
	 -0.248993   0.890222   0.381454,
	  0.065258   0.935667  -0.346797,
	 -0.116154   0.983968   0.135335,
	 -0.644527   0.537762   0.543504,
	 -0.248983   0.890227  -0.381450,
	  0.300782   0.626443   0.719097,
	  0.410018   0.652654   0.637125,
	  0.413234   0.395299   0.820352,
	  0.275287  -0.594131   0.755795,
	  0.495945   0.301215   0.814437,
	 -0.852930   0.105212   0.511313,
	 -0.086909   0.020662   0.996002,
	 -0.875398  -0.298990   0.379847,
	 -0.928867   0.112426  -0.352939,
	  0.940928  -0.105288   0.321822,
	 -0.293203   0.288644   0.911437,
	  0.103150   0.009262   0.994623,
	 -0.787018  -0.539574   0.299102,
	 -0.976359   0.079658  -0.200943,
	 -0.126439  -0.991974  -0.000141,
	  0.116972  -0.913217  -0.390324,
	 -0.926240   0.376935   0.000239,
	 -0.718226   0.560280   0.412598,
	 -0.892237   0.395190   0.218491,
	 -0.902848   0.366060  -0.225535,
	 -0.718151   0.560514  -0.412410,
	 -0.892186   0.395390  -0.218338,
	 -0.902835   0.366044   0.225613,
	 -0.766103   0.328197  -0.552606,
	 -0.171268   0.444705  -0.879150,
	  0.300783   0.626443  -0.719096,
	  0.410018   0.652654  -0.637125,
	 -0.086909   0.020662  -0.996002,
	 -0.852929   0.105209  -0.511315,
	  0.275282  -0.594137  -0.755792,
	 -0.875402  -0.299003  -0.379827,
	 -0.928868   0.112420   0.352940,
	  0.413234   0.395299  -0.820352,
	  0.495945   0.301215  -0.814437,
	  0.940928  -0.105288  -0.321822,
	 -0.293203   0.288644  -0.911437,
	 -0.787018  -0.539574  -0.299102,
	  0.103150   0.009262  -0.994623,
	 -0.976359   0.079658   0.200943,
	  0.117111  -0.913218   0.390279,
	 -0.766103   0.328195   0.552606,
	 -0.801520   0.596681   0.039211,
	 -0.614057   0.230783  -0.754767,
	 -0.801524   0.596676  -0.039213,
	 -0.614059   0.230793   0.754763,
	 -0.480394  -0.455367   0.749575,
	 -0.087280  -0.371997   0.924122,
	 -0.891971   0.118911   0.436175,
	 -0.777863  -0.476425   0.409815,
	 -0.741494  -0.568048   0.357083,
	 -0.912717   0.327593   0.244195,
	  0.234581  -0.908222   0.346560,
	 -0.122276  -0.950479  -0.285725,
	  0.359290  -0.933226  -0.000195,
	 -0.122383  -0.950518   0.285550,
	 -0.800393   0.261257   0.539551,
	 -0.897136   0.441754  -0.000861,
	 -0.818812   0.089219   0.567087,
	 -0.800463   0.261243  -0.539454,
	 -0.818485   0.089847  -0.567458,
	 -0.912717   0.327593  -0.244195,
	 -0.777859  -0.476429  -0.409818,
	 -0.891969   0.118906  -0.436179,
	 -0.741494  -0.568049  -0.357081,
	 -0.480394  -0.455367  -0.749575,
	 -0.087304  -0.372008  -0.924115,
	  0.234581  -0.908222  -0.346561,
	 -0.660093   0.032080   0.750499,
	 -0.077421  -0.908027   0.411696,
	 -0.281117  -0.952651  -0.115888,
	  0.685905  -0.727691  -0.000001,
	 -0.281119  -0.952651   0.115884,
	 -0.077431  -0.908006  -0.411739,
	 -0.771020   0.636810  -0.001373,
	 -0.658996   0.031767  -0.751475,
	 -0.138406   0.211606   0.967506,
	 -0.015214  -0.046803   0.998788,
	  0.617812  -0.654088   0.436436,
	  0.237697  -0.971339  -0.000439,
	  0.617801  -0.654080  -0.436465,
	 -0.015214  -0.046803  -0.998788,
	 -0.835902  -0.004809   0.548858,
	 -0.964313  -0.264763  -0.000959,
	 -0.137637   0.210848  -0.967781,
	 -0.834909  -0.005119  -0.550364,
	 -0.222706  -0.692668   0.686012,
	 -0.523027  -0.852316  -0.000881,
	 -0.222005  -0.692349  -0.686562,
     ]    } 
normalIndex      [ 
	     0,      1,      2, -1 
	     3,      1,      0, -1 
	     3,      0,      4, -1 
	     2,      5,      0, -1 
	     0,      5,      6, -1 
	     4,      0,      6, -1 
	     1,      7,      2, -1 
	     7,      1,      3, -1 
	     7,      8,      2, -1 
	     9,     10,      2, -1 
	     2,     11,      9, -1 
	    12,     11,      2, -1 
	     2,      8,     12, -1 
	     2,     13,      5, -1 
	     2,     14,     13, -1 
	     2,     10,     15, -1 
	    15,     16,      2, -1 
	     2,     16,     17, -1 
	    17,     14,      2, -1 
	    18,     19,      3, -1 
	    18,      3,      4, -1 
	    20,      3,     19, -1 
	     7,      3,     20, -1 
	     4,      6,     18, -1 
	     6,      5,     13, -1 
	     6,     21,     18, -1 
	    21,      6,     22, -1 
	    22,      6,     13, -1 
	     8,      7,     20, -1 
	     8,     20,     23, -1 
	    12,      8,     23, -1 
	    10,      9,     24, -1 
	    11,     24,      9, -1 
	    10,     24,     25, -1 
	    26,     15,     10, -1 
	    25,     26,     10, -1 
	    27,     28,     11, -1 
	    27,     11,     12, -1 
	    11,     28,     29, -1 
	    11,     29,     24, -1 
	    12,     23,     27, -1 
	    22,     13,     14, -1 
	    30,     22,     14, -1 
	    30,     14,     17, -1 
	    15,     26,     16, -1 
	    16,     31,     32, -1 
	    17,     16,     32, -1 
	    33,     31,     16, -1 
	    26,     33,     16, -1 
	    32,     30,     17, -1 
	    34,     19,     18, -1 
	    18,     21,     34, -1 
	    34,     35,     19, -1 
	    36,     19,     35, -1 
	    20,     19,     36, -1 
	    23,     20,     36, -1 
	    21,     37,     34, -1 
	    37,     21,     38, -1 
	    38,     21,     22, -1 
	    38,     22,     30, -1 
	    23,     36,     39, -1 
	    27,     23,     39, -1 
	    40,     25,     24, -1 
	    40,     24,     29, -1 
	    25,     40,     41, -1 
	    41,     42,     25, -1 
	    26,     25,     42, -1 
	    33,     26,     42, -1 
	    27,     39,     43, -1 
	    43,     28,     27, -1 
	    43,     44,     28, -1 
	    29,     28,     45, -1 
	    28,     44,     45, -1 
	    40,     29,     45, -1 
	    46,     38,     30, -1 
	    46,     30,     32, -1 
	    31,     47,     48, -1 
	    32,     31,     48, -1 
	    49,     31,     33, -1 
	    49,     47,     31, -1 
	    48,     46,     32, -1 
	    49,     33,     42, -1 
	    50,     35,     34, -1 
	    34,     37,     50, -1 
	    50,     51,     35, -1 
	    52,     35,     51, -1 
	    36,     35,     52, -1 
	    39,     36,     52, -1 
	    37,     53,     50, -1 
	    53,     37,     54, -1 
	    54,     37,     38, -1 
	    54,     38,     46, -1 
	    39,     52,     55, -1 
	    43,     39,     55, -1 
	    41,     40,     56, -1 
	    40,     57,     56, -1 
	    40,     45,     57, -1 
	    41,     56,     58, -1 
	    59,     42,     41, -1 
	    58,     59,     41, -1 
	    59,     60,     42, -1 
	    60,     49,     42, -1 
	    43,     55,     61, -1 
	    61,     44,     43, -1 
	    61,     62,     44, -1 
	    63,     44,     64, -1 
	    65,     64,     44, -1 
	    65,     44,     62, -1 
	    44,     63,     45, -1 
	    57,     45,     66, -1 
	    66,     45,     63, -1 
	    67,     54,     46, -1 
	    67,     46,     48, -1 
	    47,     68,     69, -1 
	    48,     47,     69, -1 
	    70,     47,     71, -1 
	    47,     70,     72, -1 
	    68,     47,     72, -1 
	    49,     71,     47, -1 
	    69,     67,     48, -1 
	    73,     49,     60, -1 
	    71,     49,     73, -1 
	    74,     51,     50, -1 
	    50,     53,     74, -1 
	    74,     75,     51, -1 
	    76,     51,     75, -1 
	    52,     51,     76, -1 
	    55,     52,     76, -1 
	    53,     77,     74, -1 
	    77,     53,     78, -1 
	    78,     53,     54, -1 
	    78,     54,     67, -1 
	    55,     76,     79, -1 
	    61,     55,     79, -1 
	    58,     56,     80, -1 
	    56,     57,     81, -1 
	    56,     81,     80, -1 
	    66,     81,     57, -1 
	    58,     80,     82, -1 
	    83,     59,     58, -1 
	    82,     83,     58, -1 
	    84,     60,     59, -1 
	    83,     84,     59, -1 
	    60,     84,     73, -1 
	    61,     79,     85, -1 
	    85,     62,     61, -1 
	    85,     86,     62, -1 
	    87,     65,     62, -1 
	    87,     62,     86, -1 
	    88,     89,     63, -1 
	    88,     63,     90, -1 
	    63,     64,     65, -1 
	    63,     65,     90, -1 
	    63,     89,     91, -1 
	    63,     91,     66, -1 
	    65,     92,     93, -1 
	    65,     93,     90, -1 
	    87,     92,     65, -1 
	    94,     66,     95, -1 
	    66,     94,     96, -1 
	    66,     96,     97, -1 
	    91,     95,     66, -1 
	    66,     97,     81, -1 
	    98,     78,     67, -1 
	    98,     67,     69, -1 
	    68,     99,    100, -1 
	    69,     68,    100, -1 
	    68,     72,    101, -1 
	    99,     68,    101, -1 
	   100,     98,     69, -1 
	    72,     70,     71, -1 
	    71,    102,    103, -1 
	   104,     71,    103, -1 
	   104,     72,     71, -1 
	   105,    102,     71, -1 
	    73,    105,     71, -1 
	   106,    107,     72, -1 
	   104,    106,     72, -1 
	    72,    107,    101, -1 
	   108,     73,     94, -1 
	    96,     94,     73, -1 
	   109,     96,     73, -1 
	    73,    108,    105, -1 
	    84,    109,     73, -1 
	    75,     74,    110, -1 
	   110,     74,     77, -1 
	    76,     75,    111, -1 
	   111,     75,    110, -1 
	   112,     79,     76, -1 
	   112,     76,    111, -1 
	   113,     77,     78, -1 
	   110,     77,    113, -1 
	    78,     98,    114, -1 
	   113,     78,    114, -1 
	   115,     85,     79, -1 
	   115,     79,    112, -1 
	   116,    117,     80, -1 
	    80,    118,    116, -1 
	    80,     97,    118, -1 
	    97,     80,     81, -1 
	    82,     80,    110, -1 
	    80,    119,    110, -1 
	   117,    119,     80, -1 
	   110,     83,     82, -1 
	    83,    120,    121, -1 
	   121,    122,     83, -1 
	   122,    109,     83, -1 
	    84,     83,    109, -1 
	   110,    123,     83, -1 
	    83,    123,    120, -1 
	   115,     86,     85, -1 
	   119,     87,     86, -1 
	   115,    119,     86, -1 
	   119,    117,     87, -1 
	    87,    124,     92, -1 
	   124,     87,    125, -1 
	   125,     87,    117, -1 
	   126,    127,     88, -1 
	   127,     89,     88, -1 
	    88,     90,    124, -1 
	   128,     88,    124, -1 
	   126,     88,    128, -1 
	   129,    130,     89, -1 
	   127,    131,     89, -1 
	    89,    130,     91, -1 
	    89,    132,    129, -1 
	    89,    131,    132, -1 
	    90,     93,    124, -1 
	    95,     91,    133, -1 
	   134,    133,     91, -1 
	   134,     91,    130, -1 
	   124,    135,     92, -1 
	   135,     93,     92, -1 
	   135,    136,     93, -1 
	   136,    137,     93, -1 
	    93,    137,    124, -1 
	    94,     95,    138, -1 
	   138,    108,     94, -1 
	   138,     95,    139, -1 
	    95,    133,    139, -1 
	   140,    141,     96, -1 
	    96,    141,    142, -1 
	    96,    142,    143, -1 
	   143,     97,     96, -1 
	    96,    144,    140, -1 
	   145,    144,     96, -1 
	   146,    145,     96, -1 
	    96,    109,    146, -1 
	   143,    147,     97, -1 
	    97,    147,    118, -1 
	    98,    100,    148, -1 
	   114,     98,    148, -1 
	   100,     99,    148, -1 
	    99,    101,    123, -1 
	    99,    123,    148, -1 
	   101,    120,    123, -1 
	   107,    149,    101, -1 
	   150,    101,    149, -1 
	   120,    101,    150, -1 
	   102,    151,    152, -1 
	   103,    102,    153, -1 
	   102,    154,    153, -1 
	   105,    151,    102, -1 
	   152,    155,    102, -1 
	   155,    154,    102, -1 
	   103,    153,    156, -1 
	   149,    104,    103, -1 
	   149,    103,    157, -1 
	   157,    103,    156, -1 
	   149,    106,    104, -1 
	   158,    105,    108, -1 
	   105,    158,    159, -1 
	   151,    105,    159, -1 
	   106,    160,    161, -1 
	   107,    106,    161, -1 
	   106,    162,    160, -1 
	   149,    162,    106, -1 
	   107,    161,    149, -1 
	   163,    108,    138, -1 
	   163,    158,    108, -1 
	   109,    164,    146, -1 
	   122,    164,    109, -1 
	   112,    111,    110, -1 
	   115,    112,    110, -1 
	   119,    115,    110, -1 
	   110,    113,    114, -1 
	   110,    114,    148, -1 
	   110,    148,    123, -1 
	   117,    116,    125, -1 
	   126,    125,    116, -1 
	   165,    126,    116, -1 
	   165,    116,    166, -1 
	   116,    147,    166, -1 
	   147,    116,    118, -1 
	   150,    121,    120, -1 
	   121,    150,    156, -1 
	   121,    156,    167, -1 
	   168,    121,    167, -1 
	   168,    164,    121, -1 
	   122,    121,    164, -1 
	   124,    137,    135, -1 
	   124,    125,    128, -1 
	   126,    128,    125, -1 
	   126,    169,    127, -1 
	   169,    126,    165, -1 
	   127,    169,    170, -1 
	   131,    127,    170, -1 
	   134,    130,    129, -1 
	   129,    171,    172, -1 
	   129,    172,    173, -1 
	   129,    173,    134, -1 
	   171,    129,    174, -1 
	   132,    174,    129, -1 
	   131,    170,    165, -1 
	   131,    165,    166, -1 
	   147,    132,    131, -1 
	   147,    131,    166, -1 
	   143,    132,    147, -1 
	   174,    132,    142, -1 
	   142,    132,    143, -1 
	   134,    175,    133, -1 
	   133,    175,    139, -1 
	   134,    173,    175, -1 
	   135,    137,    136, -1 
	   138,    139,    176, -1 
	   138,    176,    177, -1 
	   178,    163,    138, -1 
	   177,    178,    138, -1 
	   139,    175,    176, -1 
	   179,    141,    140, -1 
	   140,    180,    181, -1 
	   140,    181,    179, -1 
	   140,    144,    182, -1 
	   183,    180,    140, -1 
	   182,    183,    140, -1 
	   179,    142,    141, -1 
	   179,    174,    142, -1 
	   144,    145,    182, -1 
	   145,    184,    182, -1 
	   145,    155,    184, -1 
	   146,    155,    145, -1 
	   164,    155,    146, -1 
	   161,    162,    149, -1 
	   157,    150,    149, -1 
	   150,    157,    156, -1 
	   152,    151,    159, -1 
	   185,    186,    152, -1 
	   187,    185,    152, -1 
	   159,    187,    152, -1 
	   184,    152,    186, -1 
	   152,    184,    155, -1 
	   153,    188,    156, -1 
	   189,    188,    153, -1 
	   189,    153,    154, -1 
	   167,    189,    154, -1 
	   168,    167,    154, -1 
	   154,    155,    164, -1 
	   168,    154,    164, -1 
	   167,    156,    188, -1 
	   158,    190,    159, -1 
	   163,    190,    158, -1 
	   190,    187,    159, -1 
	   160,    162,    161, -1 
	   178,    190,    163, -1 
	   169,    165,    170, -1 
	   189,    167,    188, -1 
	   181,    171,    174, -1 
	   191,    172,    171, -1 
	   191,    171,    181, -1 
	   192,    193,    172, -1 
	   192,    172,    191, -1 
	   193,    173,    172, -1 
	   193,    175,    173, -1 
	   181,    174,    179, -1 
	   176,    175,    193, -1 
	   176,    193,    192, -1 
	   176,    192,    194, -1 
	   177,    176,    194, -1 
	   194,    178,    177, -1 
	   195,    190,    178, -1 
	   196,    195,    178, -1 
	   194,    196,    178, -1 
	   180,    197,    191, -1 
	   180,    191,    181, -1 
	   198,    197,    180, -1 
	   183,    198,    180, -1 
	   182,    184,    183, -1 
	   184,    186,    183, -1 
	   183,    186,    198, -1 
	   186,    185,    198, -1 
	   185,    195,    196, -1 
	   198,    185,    196, -1 
	   185,    187,    195, -1 
	   187,    190,    195, -1 
	   197,    199,    191, -1 
	   200,    192,    191, -1 
	   200,    191,    199, -1 
	   201,    194,    192, -1 
	   201,    192,    200, -1 
	   194,    201,    202, -1 
	   202,    203,    194, -1 
	   196,    194,    203, -1 
	   198,    196,    204, -1 
	   204,    196,    203, -1 
	   197,    205,    199, -1 
	   206,    205,    197, -1 
	   207,    208,    197, -1 
	   198,    207,    197, -1 
	   197,    208,    206, -1 
	   207,    198,    204, -1 
	   201,    200,    199, -1 
	   201,    199,    209, -1 
	   205,    209,    199, -1 
	   202,    201,    209, -1 
	   202,    209,    210, -1 
	   211,    203,    202, -1 
	   210,    211,    202, -1 
	   207,    204,    203, -1 
	   211,    207,    203, -1 
	   210,    209,    205, -1 
	   210,    205,    206, -1 
	   206,    208,    210, -1 
	   207,    211,    208, -1 
	   208,    211,    210, -1 
    ] 
normalPerVertex  TRUE 
   } 
  } 
 ] 
} 
