# 
# Wavefront OBJ file
# Converted by the DEEP Exploration 2.00.1211
# Right Hemisphere, LTD
# http://www.righthemisphere.com/
# 
mtllib thoracic11.mtl
# object Object #0
g Object__0
v -0.03375 0.089754 2.5e-005
v -0.034651 0.089708 0.008244
v -0.048303 0.082801 3e-006
v -0.035008 0.094589 0.00989
v -0.033533 0.091809 2.7e-005
v -0.034651 0.089708 -0.008244
v -0.035008 0.094589 -0.00989
v -0.039284 0.088204 0.016798
v -0.046431 0.08509 0.020958
v -0.060395 0.076992 0.004957
v -0.060658 0.077225 3e-006
v -0.060892 0.077072 0.014592
v -0.057439 0.079411 0.021071
v -0.039284 0.088204 -0.016798
v -0.046431 0.08509 -0.020958
v -0.060395 0.076992 -0.004957
v -0.060892 0.077072 -0.014592
v -0.057439 0.079411 -0.021071
v -0.03623 0.096325 2.7e-005
v -0.037836 0.096171 0.010588
v -0.040888 0.0929 0.017846
v -0.037836 0.096171 -0.010588
v -0.040888 0.0929 -0.017846
v -0.049705 0.089739 0.021676
v -0.06384 0.080494 0.005102
v -0.065837 0.078561 3e-006
v -0.06384 0.080494 -0.005102
v -0.061099 0.084396 0.021829
v -0.064269 0.076256 0.016388
v -0.065318 0.081662 0.009696
v -0.049705 0.089739 -0.021676
v -0.064269 0.076256 -0.016388
v -0.061099 0.084396 -0.021829
v -0.065318 0.081662 -0.009696
v -0.039752 0.106427 3e-005
v -0.040738 0.104748 0.010219
v -0.044114 0.094995 0.0174
v -0.040738 0.104748 -0.010219
v -0.044114 0.094995 -0.0174
v -0.051635 0.094109 0.019719
v -0.068424 0.088219 0.006542
v -0.067942 0.088434 5e-006
v -0.068424 0.088219 -0.006542
v -0.06007 0.090951 0.02066
v -0.066754 0.087219 0.019536
v -0.070481 0.088134 0.010005
v -0.051635 0.094109 -0.019719
v -0.066754 0.087219 -0.019536
v -0.06007 0.090951 -0.02066
v -0.070481 0.088134 -0.010005
v -0.040661 0.110737 3.1e-005
v -0.04113 0.110094 0.011304
v -0.04676 0.10318 0.018069
v -0.04113 0.110094 -0.011304
v -0.04676 0.10318 -0.018069
v -0.051701 0.101537 0.019809
v -0.071842 0.097253 0.00676
v -0.073971 0.096992 0.010461
v -0.071156 0.097627 8e-006
v -0.071842 0.097253 -0.00676
v -0.073971 0.096992 -0.010461
v -0.061896 0.097757 0.020809
v -0.067002 0.097071 0.021214
v -0.07267 0.084564 0.017599
v -0.070878 0.088536 0.021577
v -0.073437 0.094545 0.0258
v -0.078921 0.090787 0.00384
v -0.051701 0.101537 -0.019809
v -0.067002 0.097071 -0.021214
v -0.061896 0.097757 -0.020809
v -0.070878 0.088536 -0.021577
v -0.07267 0.084564 -0.017599
v -0.073437 0.094545 -0.0258
v -0.078921 0.090787 -0.00384
v -0.042411 0.115287 3.2e-005
v -0.043156 0.114736 0.011511
v -0.046183 0.107802 0.019126
v -0.043156 0.114736 -0.011511
v -0.046183 0.107802 -0.019126
v -0.052112 0.105044 0.021903
v -0.074985 0.104585 0.008618
v -0.075119 0.102524 0.011233
v -0.072999 0.104226 9e-006
v -0.074985 0.104585 -0.008618
v -0.075119 0.102524 -0.011233
v -0.061244 0.103005 0.022959
v -0.06958 0.101251 0.0205
v -0.076308 0.100276 0.020548
v -0.083369 0.093502 0.023816
v -0.080126 0.089743 0.0177
v -0.077221 0.08428 0.025475
v -0.073078 0.081089 0.010848
v -0.077681 0.094203 0.024502
v -0.079008 0.08617 0.022274
v -0.079711 0.084757 4e-006
v -0.073504 0.067494 0.005268
v -0.088316 0.090762 5e-006
v -0.083206 0.096238 0.007949
v -0.052112 0.105044 -0.021903
v -0.06958 0.101251 -0.0205
v -0.061244 0.103005 -0.022959
v -0.076308 0.100276 -0.020548
v -0.080126 0.089743 -0.0177
v -0.083369 0.093502 -0.023816
v -0.077221 0.08428 -0.025475
v -0.073078 0.081089 -0.010848
v -0.079008 0.08617 -0.022274
v -0.077681 0.094203 -0.024502
v -0.073504 0.067494 -0.005268
v -0.083206 0.096238 -0.007949
v -0.057718 0.110019 1e-005
v -0.048093 0.11273 0.01939
v -0.05511 0.110437 0.022961
v -0.048093 0.11273 -0.01939
v -0.05511 0.110437 -0.022961
v -0.063918 0.106248 0.023101
v -0.08521 0.106143 0.016478
v -0.076671 0.102263 0.014526
v -0.084048 0.103435 0.010364
v -0.072918 0.104757 0.017631
v -0.076671 0.102263 -0.014526
v -0.08521 0.106143 -0.016478
v -0.084048 0.103435 -0.010364
v -0.072918 0.104757 -0.017631
v -0.081846 0.099046 0.02187
v -0.081947 0.102616 0.018944
v -0.091174 0.103844 0.019845
v -0.089088 0.094739 0.014623
v -0.085274 0.099618 0.02191
v -0.087121 0.078763 0.01302
v -0.082955 0.081968 0.015939
v -0.095136 0.091884 0.017561
v -0.086929 0.092788 0.013058
v -0.074667 0.082353 0.012357
v -0.08545 0.074667 0.017556
v -0.081606 0.093164 0.0271
v -0.082447 0.090323 0.024714
v -0.085906 0.097248 0.025062
v -0.078378 0.073427 3e-006
v -0.072828 0.066544 0.006903
v -0.094027 0.076012 4e-006
v -0.089771 0.084881 0.005106
v -0.085569 0.085182 0.008549
v -0.085402 0.091486 0.010714
v -0.089771 0.084881 -0.005106
v -0.085569 0.085182 -0.008549
v -0.085402 0.091486 -0.010714
v -0.084458 0.096383 0.011691
v -0.063918 0.106248 -0.023101
v -0.081846 0.099046 -0.02187
v -0.081947 0.102616 -0.018944
v -0.082955 0.081968 -0.015939
v -0.087121 0.078763 -0.01302
v -0.089088 0.094739 -0.014623
v -0.095136 0.091884 -0.017561
v -0.086929 0.092788 -0.013058
v -0.091174 0.103844 -0.019844
v -0.085274 0.099618 -0.02191
v -0.074667 0.082353 -0.012357
v -0.08545 0.074667 -0.017556
v -0.082447 0.090323 -0.024714
v -0.081606 0.093164 -0.0271
v -0.085906 0.097248 -0.025062
v -0.072828 0.066544 -0.006903
v -0.084458 0.096383 -0.011691
v -0.095622 0.098616 0.016633
v -0.089411 0.098581 0.014339
v -0.095622 0.098616 -0.016633
v -0.089411 0.098581 -0.014339
v -0.093319 0.097754 0.021988
v -0.09431 0.094768 0.017086
v -0.088693 0.075005 0.010569
v -0.088442 0.069218 0.010001
v -0.082049 0.066941 0.017306
v -0.087723 0.080934 0.009115
v -0.073269 0.063817 0.013718
v -0.07657 0.068877 0.005489
v -0.080895 0.072987 1e-006
v -0.07657 0.068877 -0.005489
v -0.093253 0.079129 0.004312
v -0.097891 0.06756 -1.6e-005
v -0.091276 0.074669 0.004195
v -0.093253 0.079129 -0.004312
v -0.091276 0.074669 -0.004195
v -0.087723 0.080934 -0.009115
v -0.088442 0.069218 -0.010001
v -0.088693 0.075005 -0.010569
v -0.082049 0.066941 -0.017306
v -0.093319 0.097754 -0.021988
v -0.09431 0.094768 -0.017086
v -0.073269 0.063817 -0.013718
v -0.091113 0.069112 0.004376
v -0.089297 0.067302 0.00513
v -0.081174 0.067901 0.007867
v -0.085217 0.062442 0
v -0.081174 0.067901 -0.007867
v -0.089297 0.067302 -0.00513
v -0.103435 0.061457 -2.1e-005
v -0.091113 0.069112 -0.004376
v -0.094903 0.064006 0.004761
v -0.090606 0.062826 0.004779
v -0.092388 0.054788 0.003711
v -0.094101 0.053493 -3e-006
v -0.092388 0.054788 -0.003711
v -0.090606 0.062826 -0.004779
v -0.103675 0.057403 0.004814
v -0.104095 0.055643 -2.3e-005
v -0.094903 0.064006 -0.004761
v -0.103675 0.057403 -0.004814
v -0.100479 0.054442 0.005606
v -0.098727 0.052914 -2.1e-005
v -0.100479 0.054442 -0.005606
# 212 verticies
vn 0.927432 -0.373991 0.000364
vn 0.808456 -0.55286 0.201854
vn 0.438307 -0.898825 1.7e-005
vn 0.890661 0.327813 0.315059
vn 0.976085 0.21739 0.000238
vn 0.808549 -0.552818 -0.201595
vn 0.890733 0.327916 -0.314747
vn 0.742699 -0.438897 0.505734
vn 0.471358 -0.466135 0.748692
vn -0.175688 -0.984271 -0.018565
vn -0.207802 -0.978171 6.2e-005
vn -0.150093 -0.982397 0.111213
vn 0.114732 -0.686511 0.71801
vn 0.742698 -0.438904 -0.50573
vn 0.471356 -0.466136 -0.748693
vn -0.175684 -0.984272 0.018544
vn -0.150087 -0.982398 -0.111211
vn 0.114737 -0.686511 -0.71801
vn 0.80393 0.594724 0.000195
vn 0.7215 0.579563 0.378873
vn 0.501903 0.387129 0.773449
vn 0.721597 0.579656 -0.378545
vn 0.5019 0.38713 -0.773451
vn 0.129989 0.210871 0.968832
vn -0.696239 -0.707808 0.119412
vn -0.767924 -0.640541 0.000136
vn -0.696254 -0.707818 -0.119265
vn -0.253214 -0.12263 0.959607
vn -0.647929 -0.676147 0.350733
vn -0.670134 -0.660435 -0.338741
vn 0.129988 0.21087 -0.968833
vn -0.647929 -0.676147 -0.350733
vn -0.253209 -0.122632 -0.959608
vn -0.670134 -0.660435 0.338741
vn 0.957724 0.287689 0.000384
vn 0.904667 0.173041 0.389402
vn 0.457146 0.389666 0.799486
vn 0.90478 0.17308 -0.389122
vn 0.457145 0.389662 -0.799488
vn 0.145853 0.170145 0.974565
vn -0.890733 -0.411772 -0.192453
vn -0.954712 -0.297532 -8.1e-005
vn -0.890731 -0.411769 0.192472
vn -0.157899 0.003977 0.987447
vn 0.08189 -0.486865 0.86963
vn -0.460833 -0.712161 -0.529585
vn 0.145856 0.17014 -0.974566
vn 0.081892 -0.486864 -0.869631
vn -0.157903 0.003981 -0.987447
vn -0.460833 -0.712161 0.529585
vn 0.977402 0.21139 0.000216
vn 0.932735 0.149876 0.327937
vn 0.605988 -0.058097 0.793349
vn 0.932786 0.149904 -0.327779
vn 0.605986 -0.058092 -0.793351
vn 0.298955 -0.194572 0.93422
vn -0.914482 -0.300309 -0.271177
vn -0.381997 -0.05789 -0.922349
vn -0.946284 -0.323337 -0.00016
vn -0.914502 -0.30034 0.271075
vn -0.381997 -0.05789 0.922349
vn 0.108783 -0.251937 0.96161
vn 0.136833 0.035674 0.989952
vn 0.052694 -0.975084 0.215486
vn 0.039612 -0.629558 0.775943
vn 0.055462 -0.036301 0.997801
vn 0.612741 0.283698 -0.737607
vn 0.298953 -0.194567 -0.934222
vn 0.13684 0.035672 -0.989951
vn 0.108785 -0.251939 -0.961609
vn 0.039612 -0.629558 -0.775943
vn 0.052694 -0.975084 -0.215486
vn 0.055462 -0.036301 -0.997801
vn 0.612955 0.28381 0.737386
vn 0.666965 0.745089 0.000192
vn 0.497718 0.792468 0.352521
vn 0.632348 -0.017689 0.774483
vn 0.497754 0.792509 -0.352377
vn 0.632349 -0.017687 -0.774482
vn 0.273819 -0.227 0.934609
vn -0.676429 0.622572 -0.393506
vn -0.189895 -0.085153 -0.978105
vn -0.889439 0.457055 -0.000237
vn -0.676497 0.622597 0.393351
vn -0.189895 -0.085153 0.978105
vn -0.01863 -0.203534 0.978891
vn -0.241312 0.143016 0.959852
vn -0.059625 0.661904 0.747213
vn -0.560682 -0.392269 0.72922
vn -0.451687 -0.557977 0.696161
vn 0.334498 -0.110059 0.935948
vn 0.794184 -0.238245 0.559027
vn 0.097261 0.288713 0.952463
vn -0.51476 -0.563377 0.646241
vn 0.936653 0.350258 -0.000359
vn 0.938419 -0.112396 -0.326705
vn -0.712694 0.701475 1.5e-005
vn -0.492443 0.393269 -0.776427
vn 0.273821 -0.227001 -0.934608
vn -0.241312 0.143016 -0.959852
vn -0.018625 -0.203541 -0.978889
vn -0.059625 0.661904 -0.747213
vn -0.451687 -0.557977 -0.696161
vn -0.560685 -0.392268 -0.729218
vn 0.334498 -0.110059 -0.935948
vn 0.794183 -0.238246 -0.559028
vn -0.514755 -0.563372 -0.646251
vn 0.097255 0.288711 -0.952464
vn 0.938515 -0.112416 0.326425
vn -0.49237 0.393324 0.776446
vn -0.321303 0.946977 1e-006
vn 0.203466 0.81684 0.53979
vn 0.052701 0.548337 0.834595
vn 0.203462 0.816842 -0.539789
vn 0.052704 0.548341 -0.834592
vn -0.276624 0.387224 0.879509
vn -0.251035 0.939881 -0.231527
vn -0.02235 0.925727 0.377532
vn -0.725846 0.367963 -0.581163
vn -0.457315 0.787513 0.413141
vn -0.02235 0.925727 -0.377532
vn -0.251038 0.93988 0.231527
vn -0.725845 0.367964 0.581164
vn -0.457303 0.787526 -0.41313
vn 0.230584 0.620327 0.749683
vn 0.210895 0.722691 0.658211
vn -0.269191 0.509256 0.817432
vn 0.066716 -0.422136 0.904074
vn 0.045819 0.461228 0.886098
vn -0.847005 0.006755 0.531542
vn -0.135633 0.03323 0.990202
vn -0.856044 -0.285493 -0.430909
vn -0.891177 -0.025192 -0.452957
vn 0.940665 0.118619 0.317928
vn -0.342344 0.189013 0.920367
vn 0.088817 0.004752 0.996037
vn -0.703143 -0.578082 0.414018
vn -0.989737 -0.1352 0.046277
vn -0.043923 -0.999035 -0.000247
vn 0.223975 -0.840001 -0.494199
vn -0.968874 0.247553 0.00019
vn -0.798781 0.496186 0.340219
vn -0.905332 0.377191 0.195192
vn -0.933958 0.261008 -0.244124
vn -0.798712 0.496343 -0.340152
vn -0.905298 0.377344 -0.195056
vn -0.933941 0.260995 0.244203
vn -0.755721 0.142274 -0.639253
vn -0.276621 0.387235 -0.879505
vn 0.230584 0.620325 -0.749685
vn 0.210893 0.722691 -0.658211
vn -0.135633 0.03323 -0.990202
vn -0.847005 0.006755 -0.531542
vn 0.066717 -0.422134 -0.904075
vn -0.856044 -0.285506 0.430901
vn -0.891177 -0.0252 0.452956
vn -0.269198 0.509258 -0.817428
vn 0.045811 0.461228 -0.886098
vn 0.940663 0.118606 -0.317941
vn -0.342344 0.189013 -0.920367
vn -0.703135 -0.57808 -0.414035
vn 0.088821 0.004752 -0.996036
vn -0.989736 -0.135203 -0.04629
vn 0.223893 -0.84012 0.494035
vn -0.755722 0.14227 0.639252
vn -0.898437 0.411635 -0.152864
vn -0.367528 0.168991 -0.91453
vn -0.898436 0.411636 0.152867
vn -0.367534 0.168996 0.914527
vn -0.314942 -0.392558 0.864124
vn -0.062736 -0.330385 0.941759
vn -0.90538 0.053453 0.421225
vn -0.689615 -0.553843 0.466572
vn -0.585135 -0.705991 0.398992
vn -0.939771 0.172875 0.294863
vn 0.357339 -0.866683 0.348094
vn 0.040666 -0.917206 -0.396332
vn 0.611764 -0.79104 -0.000223
vn 0.040504 -0.91731 0.396109
vn -0.828685 0.134493 0.543316
vn -0.907609 0.419816 -0.000818
vn -0.803164 -0.015493 0.595556
vn -0.828746 0.134466 -0.54323
vn -0.802944 -0.015025 -0.595865
vn -0.93977 0.172878 -0.294865
vn -0.689615 -0.553843 -0.466572
vn -0.905377 0.05345 -0.42123
vn -0.585135 -0.705991 -0.398992
vn -0.314941 -0.392553 -0.864126
vn -0.062736 -0.330385 -0.941759
vn 0.357337 -0.866685 -0.348092
vn -0.647471 0.053999 0.760175
vn 0.052925 -0.696785 0.715324
vn -0.126377 -0.985591 -0.112422
vn 0.733863 -0.679298 -2.7e-005
vn -0.126377 -0.985591 0.112422
vn 0.052908 -0.696765 -0.715345
vn -0.829756 0.558125 -0.001416
vn -0.646394 0.053666 -0.761114
vn -0.173674 0.215744 0.960881
vn 0.05688 -0.07036 0.995899
vn 0.458466 -0.472066 0.752969
vn 0.337441 -0.941347 -0.000522
vn 0.45844 -0.47202 -0.753014
vn 0.056868 -0.070359 -0.995899
vn -0.80384 -0.189251 0.563937
vn -0.890553 -0.454878 -0.001023
vn -0.172846 0.214955 -0.961207
vn -0.802719 -0.189371 -0.565492
vn -0.091774 -0.706188 0.702052
vn -0.364043 -0.931382 -0.000992001
vn -0.09112 -0.705654 -0.702673
# 212 normals
usemtl Material__1
f  1//1 2//2 3//3
f  4//4 2//2 1//1
f  4//4 1//1 5//5
f  3//3 6//6 1//1
f  1//1 6//6 7//7
f  5//5 1//1 7//7
f  2//2 8//8 3//3
f  8//8 2//2 4//4
f  8//8 9//9 3//3
f  10//10 11//11 3//3
f  3//3 12//12 10//10
f  13//13 12//12 3//3
f  3//3 9//9 13//13
f  3//3 14//14 6//6
f  3//3 15//15 14//14
f  3//3 11//11 16//16
f  16//16 17//17 3//3
f  3//3 17//17 18//18
f  18//18 15//15 3//3
f  19//19 20//20 4//4
f  19//19 4//4 5//5
f  21//21 4//4 20//20
f  8//8 4//4 21//21
f  5//5 7//7 19//19
f  7//7 6//6 14//14
f  7//7 22//22 19//19
f  22//22 7//7 23//23
f  23//23 7//7 14//14
f  9//9 8//8 21//21
f  9//9 21//21 24//24
f  13//13 9//9 24//24
f  11//11 10//10 25//25
f  12//12 25//25 10//10
f  11//11 25//25 26//26
f  27//27 16//16 11//11
f  26//26 27//27 11//11
f  28//28 29//29 12//12
f  28//28 12//12 13//13
f  12//12 29//29 30//30
f  12//12 30//30 25//25
f  13//13 24//24 28//28
f  23//23 14//14 15//15
f  31//31 23//23 15//15
f  31//31 15//15 18//18
f  16//16 27//27 17//17
f  17//17 32//32 33//33
f  18//18 17//17 33//33
f  34//34 32//32 17//17
f  27//27 34//34 17//17
f  33//33 31//31 18//18
f  35//35 20//20 19//19
f  19//19 22//22 35//35
f  35//35 36//36 20//20
f  37//37 20//20 36//36
f  21//21 20//20 37//37
f  24//24 21//21 37//37
f  22//22 38//38 35//35
f  38//38 22//22 39//39
f  39//39 22//22 23//23
f  39//39 23//23 31//31
f  24//24 37//37 40//40
f  28//28 24//24 40//40
f  41//41 26//26 25//25
f  41//41 25//25 30//30
f  26//26 41//41 42//42
f  42//42 43//43 26//26
f  27//27 26//26 43//43
f  34//34 27//27 43//43
f  28//28 40//40 44//44
f  44//44 29//29 28//28
f  44//44 45//45 29//29
f  30//30 29//29 46//46
f  29//29 45//45 46//46
f  41//41 30//30 46//46
f  47//47 39//39 31//31
f  47//47 31//31 33//33
f  32//32 48//48 49//49
f  33//33 32//32 49//49
f  50//50 32//32 34//34
f  50//50 48//48 32//32
f  49//49 47//47 33//33
f  50//50 34//34 43//43
f  51//51 36//36 35//35
f  35//35 38//38 51//51
f  51//51 52//52 36//36
f  53//53 36//36 52//52
f  37//37 36//36 53//53
f  40//40 37//37 53//53
f  38//38 54//54 51//51
f  54//54 38//38 55//55
f  55//55 38//38 39//39
f  55//55 39//39 47//47
f  40//40 53//53 56//56
f  44//44 40//40 56//56
f  42//42 41//41 57//57
f  41//41 58//58 57//57
f  41//41 46//46 58//58
f  42//42 57//57 59//59
f  60//60 43//43 42//42
f  59//59 60//60 42//42
f  60//60 61//61 43//43
f  61//61 50//50 43//43
f  44//44 56//56 62//62
f  62//62 45//45 44//44
f  62//62 63//63 45//45
f  64//64 45//45 65//65
f  66//66 65//65 45//45
f  66//66 45//45 63//63
f  45//45 64//64 46//46
f  58//58 46//46 67//67
f  67//67 46//46 64//64
f  68//68 55//55 47//47
f  68//68 47//47 49//49
f  48//48 69//69 70//70
f  49//49 48//48 70//70
f  71//71 48//48 72//72
f  48//48 71//71 73//73
f  69//69 48//48 73//73
f  50//50 72//72 48//48
f  70//70 68//68 49//49
f  74//74 50//50 61//61
f  72//72 50//50 74//74
f  75//75 52//52 51//51
f  51//51 54//54 75//75
f  75//75 76//76 52//52
f  77//77 52//52 76//76
f  53//53 52//52 77//77
f  56//56 53//53 77//77
f  54//54 78//78 75//75
f  78//78 54//54 79//79
f  79//79 54//54 55//55
f  79//79 55//55 68//68
f  56//56 77//77 80//80
f  62//62 56//56 80//80
f  59//59 57//57 81//81
f  57//57 58//58 82//82
f  57//57 82//82 81//81
f  67//67 82//82 58//58
f  59//59 81//81 83//83
f  84//84 60//60 59//59
f  83//83 84//84 59//59
f  85//85 61//61 60//60
f  84//84 85//85 60//60
f  61//61 85//85 74//74
f  62//62 80//80 86//86
f  86//86 63//63 62//62
f  86//86 87//87 63//63
f  88//88 66//66 63//63
f  88//88 63//63 87//87
f  89//89 90//90 64//64
f  89//89 64//64 91//91
f  64//64 65//65 66//66
f  64//64 66//66 91//91
f  64//64 90//90 92//92
f  64//64 92//92 67//67
f  66//66 93//93 94//94
f  66//66 94//94 91//91
f  88//88 93//93 66//66
f  95//95 67//67 96//96
f  67//67 95//95 97//97
f  67//67 97//97 98//98
f  92//92 96//96 67//67
f  67//67 98//98 82//82
f  99//99 79//79 68//68
f  99//99 68//68 70//70
f  69//69 100//100 101//101
f  70//70 69//69 101//101
f  69//69 73//73 102//102
f  100//100 69//69 102//102
f  101//101 99//99 70//70
f  73//73 71//71 72//72
f  72//72 103//103 104//104
f  105//105 72//72 104//104
f  105//105 73//73 72//72
f  106//106 103//103 72//72
f  74//74 106//106 72//72
f  107//107 108//108 73//73
f  105//105 107//107 73//73
f  73//73 108//108 102//102
f  109//109 74//74 95//95
f  97//97 95//95 74//74
f  110//110 97//97 74//74
f  74//74 109//109 106//106
f  85//85 110//110 74//74
f  76//76 75//75 111//111
f  111//111 75//75 78//78
f  77//77 76//76 112//112
f  112//112 76//76 111//111
f  113//113 80//80 77//77
f  113//113 77//77 112//112
f  114//114 78//78 79//79
f  111//111 78//78 114//114
f  79//79 99//99 115//115
f  114//114 79//79 115//115
f  116//116 86//86 80//80
f  116//116 80//80 113//113
f  117//117 118//118 81//81
f  81//81 119//119 117//117
f  81//81 98//98 119//119
f  98//98 81//81 82//82
f  83//83 81//81 111//111
f  81//81 120//120 111//111
f  118//118 120//120 81//81
f  111//111 84//84 83//83
f  84//84 121//121 122//122
f  122//122 123//123 84//84
f  123//123 110//110 84//84
f  85//85 84//84 110//110
f  111//111 124//124 84//84
f  84//84 124//124 121//121
f  116//116 87//87 86//86
f  120//120 88//88 87//87
f  116//116 120//120 87//87
f  120//120 118//118 88//88
f  88//88 125//125 93//93
f  125//125 88//88 126//126
f  126//126 88//88 118//118
f  127//127 128//128 89//89
f  128//128 90//90 89//89
f  89//89 91//91 125//125
f  129//129 89//89 125//125
f  127//127 89//89 129//129
f  130//130 131//131 90//90
f  128//128 132//132 90//90
f  90//90 131//131 92//92
f  90//90 133//133 130//130
f  90//90 132//132 133//133
f  91//91 94//94 125//125
f  96//96 92//92 134//134
f  135//135 134//134 92//92
f  135//135 92//92 131//131
f  125//125 136//136 93//93
f  136//136 94//94 93//93
f  136//136 137//137 94//94
f  137//137 138//138 94//94
f  94//94 138//138 125//125
f  95//95 96//96 139//139
f  139//139 109//109 95//95
f  139//139 96//96 140//140
f  96//96 134//134 140//140
f  141//141 142//142 97//97
f  97//97 142//142 143//143
f  97//97 143//143 144//144
f  144//144 98//98 97//97
f  97//97 145//145 141//141
f  146//146 145//145 97//97
f  147//147 146//146 97//97
f  97//97 110//110 147//147
f  144//144 148//148 98//98
f  98//98 148//148 119//119
f  99//99 101//101 149//149
f  115//115 99//99 149//149
f  101//101 100//100 149//149
f  100//100 102//102 124//124
f  100//100 124//124 149//149
f  102//102 121//121 124//124
f  108//108 150//150 102//102
f  151//151 102//102 150//150
f  121//121 102//102 151//151
f  103//103 152//152 153//153
f  104//104 103//103 154//154
f  103//103 155//155 154//154
f  106//106 152//152 103//103
f  153//153 156//156 103//103
f  156//156 155//155 103//103
f  104//104 154//154 157//157
f  150//150 105//105 104//104
f  150//150 104//104 158//158
f  158//158 104//104 157//157
f  150//150 107//107 105//105
f  159//159 106//106 109//109
f  106//106 159//159 160//160
f  152//152 106//106 160//160
f  107//107 161//161 162//162
f  108//108 107//107 162//162
f  107//107 163//163 161//161
f  150//150 163//163 107//107
f  108//108 162//162 150//150
f  164//164 109//109 139//139
f  164//164 159//159 109//109
f  110//110 165//165 147//147
f  123//123 165//165 110//110
f  113//113 112//112 111//111
f  116//116 113//113 111//111
f  120//120 116//116 111//111
f  111//111 114//114 115//115
f  111//111 115//115 149//149
f  111//111 149//149 124//124
f  118//118 117//117 126//126
f  127//127 126//126 117//117
f  166//166 127//127 117//117
f  166//166 117//117 167//167
f  117//117 148//148 167//167
f  148//148 117//117 119//119
f  151//151 122//122 121//121
f  122//122 151//151 157//157
f  122//122 157//157 168//168
f  169//169 122//122 168//168
f  169//169 165//165 122//122
f  123//123 122//122 165//165
f  125//125 138//138 136//136
f  125//125 126//126 129//129
f  127//127 129//129 126//126
f  127//127 170//170 128//128
f  170//170 127//127 166//166
f  128//128 170//170 171//171
f  132//132 128//128 171//171
f  135//135 131//131 130//130
f  130//130 172//172 173//173
f  130//130 173//173 174//174
f  130//130 174//174 135//135
f  172//172 130//130 175//175
f  133//133 175//175 130//130
f  132//132 171//171 166//166
f  132//132 166//166 167//167
f  148//148 133//133 132//132
f  148//148 132//132 167//167
f  144//144 133//133 148//148
f  175//175 133//133 143//143
f  143//143 133//133 144//144
f  135//135 176//176 134//134
f  134//134 176//176 140//140
f  135//135 174//174 176//176
f  136//136 138//138 137//137
f  139//139 140//140 177//177
f  139//139 177//177 178//178
f  179//179 164//164 139//139
f  178//178 179//179 139//139
f  140//140 176//176 177//177
f  180//180 142//142 141//141
f  141//141 181//181 182//182
f  141//141 182//182 180//180
f  141//141 145//145 183//183
f  184//184 181//181 141//141
f  183//183 184//184 141//141
f  180//180 143//143 142//142
f  180//180 175//175 143//143
f  145//145 146//146 183//183
f  146//146 185//185 183//183
f  146//146 156//156 185//185
f  147//147 156//156 146//146
f  165//165 156//156 147//147
f  162//162 163//163 150//150
f  158//158 151//151 150//150
f  151//151 158//158 157//157
f  153//153 152//152 160//160
f  186//186 187//187 153//153
f  188//188 186//186 153//153
f  160//160 188//188 153//153
f  185//185 153//153 187//187
f  153//153 185//185 156//156
f  154//154 189//189 157//157
f  190//190 189//189 154//154
f  190//190 154//154 155//155
f  168//168 190//190 155//155
f  169//169 168//168 155//155
f  155//155 156//156 165//165
f  169//169 155//155 165//165
f  168//168 157//157 189//189
f  159//159 191//191 160//160
f  164//164 191//191 159//159
f  191//191 188//188 160//160
f  161//161 163//163 162//162
f  179//179 191//191 164//164
f  170//170 166//166 171//171
f  190//190 168//168 189//189
f  182//182 172//172 175//175
f  192//192 173//173 172//172
f  192//192 172//172 182//182
f  193//193 194//194 173//173
f  193//193 173//173 192//192
f  194//194 174//174 173//173
f  194//194 176//176 174//174
f  182//182 175//175 180//180
f  177//177 176//176 194//194
f  177//177 194//194 193//193
f  177//177 193//193 195//195
f  178//178 177//177 195//195
f  195//195 179//179 178//178
f  196//196 191//191 179//179
f  197//197 196//196 179//179
f  195//195 197//197 179//179
f  181//181 198//198 192//192
f  181//181 192//192 182//182
f  199//199 198//198 181//181
f  184//184 199//199 181//181
f  183//183 185//185 184//184
f  185//185 187//187 184//184
f  184//184 187//187 199//199
f  187//187 186//186 199//199
f  186//186 196//196 197//197
f  199//199 186//186 197//197
f  186//186 188//188 196//196
f  188//188 191//191 196//196
f  198//198 200//200 192//192
f  201//201 193//193 192//192
f  201//201 192//192 200//200
f  202//202 195//195 193//193
f  202//202 193//193 201//201
f  195//195 202//202 203//203
f  203//203 204//204 195//195
f  197//197 195//195 204//204
f  199//199 197//197 205//205
f  205//205 197//197 204//204
f  198//198 206//206 200//200
f  207//207 206//206 198//198
f  208//208 209//209 198//198
f  199//199 208//208 198//198
f  198//198 209//209 207//207
f  208//208 199//199 205//205
f  202//202 201//201 200//200
f  202//202 200//200 210//210
f  206//206 210//210 200//200
f  203//203 202//202 210//210
f  203//203 210//210 211//211
f  212//212 204//204 203//203
f  211//211 212//212 203//203
f  208//208 205//205 204//204
f  212//212 208//208 204//204
f  211//211 210//210 206//206
f  211//211 206//206 207//207
f  207//207 209//209 211//211
f  208//208 212//212 209//209
f  209//209 212//212 211//211
