# 
# Wavefront OBJ file
# Converted by the DEEP Exploration 2.00.1211
# Right Hemisphere, LTD
# http://www.righthemisphere.com/
# 
mtllib thoracic2.mtl
# object Object #0
g Object__0
v -0.048416 0.317398 0.00062
v -0.048914 0.317829 0.007455
v -0.059101 0.321052 0.000601
v -0.047028 0.320596 0.008824
v -0.047427 0.318378 0.000621
v -0.048914 0.317829 -0.006258
v -0.047028 0.320596 -0.007627
v -0.052014 0.319367 0.014569
v -0.057133 0.321321 0.018029
v -0.068833 0.323678 0.004721
v -0.068873 0.323934 0.000601
v -0.069063 0.323972 0.012734
v -0.065394 0.323862 0.018122
v -0.052014 0.319367 -0.013372
v -0.057133 0.321321 -0.016832
v -0.068833 0.323678 -0.003524
v -0.069063 0.323972 -0.011537
v -0.065394 0.323862 -0.016925
v -0.046938 0.322133 0.000621
v -0.047857 0.32286 0.009404
v -0.050868 0.322666 0.01544
v -0.047857 0.32286 -0.008207
v -0.050868 0.322666 -0.014243
v -0.056895 0.325437 0.018625
v -0.071055 0.327363 0.004842
v -0.071055 0.327255 0.000601
v -0.071055 0.327363 -0.003645
v -0.065217 0.32835 0.018753
v -0.071203 0.325242 0.014228
v -0.071471 0.328738 0.008663
v -0.056895 0.325437 -0.017428
v -0.071203 0.325242 -0.013031
v -0.065217 0.32835 -0.017556
v -0.071471 0.328738 -0.007466
v -0.044651 0.32955 0.000623
v -0.045964 0.32913 0.009097
v -0.05169 0.325404 0.01507
v -0.045964 0.32913 -0.0079
v -0.05169 0.325404 -0.013873
v -0.05606 0.328727 0.016998
v -0.069311 0.332886 0.006039
v -0.068925 0.332762 0.000602
v -0.069311 0.332886 -0.004842
v -0.064334 0.331171 0.017781
v -0.068706 0.331507 0.016846
v -0.070611 0.333869 0.00892
v -0.056061 0.328727 -0.015801
v -0.068706 0.331507 -0.015649
v -0.064334 0.331171 -0.016584
v -0.070611 0.333869 -0.007723
v -0.043395 0.332351 0.000624
v -0.043954 0.332236 0.009999
v -0.050326 0.331287 0.015626
v -0.043954 0.332236 -0.008802
v -0.050326 0.331287 -0.014429
v -0.054055 0.332863 0.017073
v -0.065879 0.339062 0.00622
v -0.067297 0.339984 0.009299
v -0.0653 0.338922 0.000605
v -0.065879 0.339062 -0.005023
v -0.067297 0.339984 -0.008102
v -0.061707 0.336201 0.017905
v -0.065134 0.338381 0.018241
v -0.072755 0.33266 0.015235
v -0.070685 0.334286 0.018543
v -0.068 0.338385 0.022056
v -0.07567 0.337352 0.003792
v -0.054055 0.332863 -0.015876
v -0.065134 0.338381 -0.017044
v -0.061707 0.336201 -0.016708
v -0.070685 0.334286 -0.017346
v -0.072755 0.33266 -0.014038
v -0.068 0.338385 -0.020859
v -0.07567 0.337352 -0.002595
v -0.042554 0.335703 0.000625
v -0.043245 0.335775 0.010172
v -0.048025 0.333514 0.016505
v -0.043245 0.335775 -0.008975
v -0.048025 0.333514 -0.015308
v -0.05283 0.334978 0.018814
v -0.064723 0.344625 0.007766
v -0.065673 0.34357 0.00994
v -0.063654 0.343436 0.000606
v -0.064723 0.344625 -0.006569
v -0.065673 0.34357 -0.008743
v -0.059097 0.338732 0.019693
v -0.062805 0.340107 0.017648
v -0.067351 0.342941 0.017688
v -0.077343 0.341006 0.020406
v -0.076852 0.337353 0.015319
v -0.076189 0.331967 0.021786
v -0.074846 0.331254 0.00962
v -0.073496 0.338652 0.020976
v -0.076285 0.333892 0.019123
v -0.077553 0.333433 0.000602
v -0.082674 0.325374 0.00498
v -0.081995 0.340686 0.000603
v -0.076121 0.342447 0.007209
v -0.05283 0.334978 -0.017617
v -0.062805 0.340107 -0.016451
v -0.059097 0.338732 -0.018496
v -0.067351 0.342941 -0.016491
v -0.076852 0.337353 -0.014122
v -0.077343 0.341006 -0.019209
v -0.076189 0.331967 -0.020588
v -0.074846 0.331254 -0.008423
v -0.076285 0.333892 -0.017926
v -0.073496 0.338652 -0.019779
v -0.082674 0.325374 -0.003782
v -0.076121 0.342447 -0.006012
v -0.054181 0.340489 0.000607
v -0.047123 0.337152 0.016725
v -0.052402 0.339413 0.019694
v -0.047123 0.337152 -0.015528
v -0.052402 0.339413 -0.018497
v -0.059374 0.341834 0.019811
v -0.073322 0.348918 0.014303
v -0.066737 0.344204 0.012679
v -0.073703 0.346853 0.009218
v -0.06338 0.343685 0.015261
v -0.066737 0.344204 -0.011482
v -0.073322 0.348918 -0.013106
v -0.073703 0.346853 -0.008021
v -0.06338 0.343685 -0.014064
v -0.074121 0.343352 0.018787
v -0.072723 0.345384 0.016354
v -0.083516 0.353362 0.032461
v -0.081067 0.34359 0.018664
v -0.076032 0.345323 0.01882
v -0.087667 0.332213 0.011427
v -0.084263 0.332729 0.013854
v -0.086026 0.346299 0.022293
v -0.080299 0.341143 0.011459
v -0.07568 0.329876 0.010875
v -0.088377 0.329188 0.015199
v -0.076378 0.339967 0.023137
v -0.078067 0.338795 0.021152
v -0.077397 0.344311 0.021442
v -0.083665 0.329896 0.000601
v -0.082674 0.324544 0.006339
v -0.092728 0.333743 0.000602
v -0.083548 0.338366 0.004845
v -0.080795 0.336507 0.007708
v -0.079875 0.339683 0.009509
v -0.083548 0.338366 -0.003648
v -0.080795 0.336507 -0.006511
v -0.079875 0.339683 -0.008312
v -0.076845 0.343132 0.010321
v -0.059374 0.341834 -0.018614
v -0.074121 0.343352 -0.01759
v -0.072723 0.345384 -0.015157
v -0.084263 0.332729 -0.012657
v -0.087667 0.332213 -0.01023
v -0.081067 0.34359 -0.017467
v -0.086026 0.346299 -0.021096
v -0.080299 0.341143 -0.010262
v -0.083516 0.353362 -0.031182
v -0.076032 0.345323 -0.017623
v -0.07568 0.329876 -0.009678
v -0.088377 0.329188 -0.014002
v -0.078067 0.338795 -0.019955
v -0.076378 0.339967 -0.02194
v -0.077397 0.344311 -0.020245
v -0.082674 0.324544 -0.005142
v -0.076845 0.343132 -0.009124
v -0.088439 0.352602 0.027311
v -0.07948 0.34556 0.012524
v -0.088439 0.352602 -0.026033
v -0.07948 0.34556 -0.011327
v -0.087351 0.351012 0.035898
v -0.089193 0.349831 0.028037
v -0.090092 0.330815 0.009388
v -0.091167 0.327565 0.008916
v -0.089696 0.324342 0.014991
v -0.087128 0.333691 0.008179
v -0.084035 0.323219 0.012008
v -0.083862 0.327505 0.005164
v -0.08646 0.32623 0.0006
v -0.083862 0.327505 -0.003967
v -0.091019 0.335137 0.004184
v -0.100588 0.326657 0.000585
v -0.091704 0.331774 0.004087
v -0.091019 0.335137 -0.002987
v -0.091704 0.331774 -0.00289
v -0.087128 0.333691 -0.006982
v -0.091167 0.327565 -0.007719
v -0.090092 0.330815 -0.008192
v -0.089696 0.324342 -0.013794
v -0.087351 0.351012 -0.03462
v -0.089193 0.349831 -0.026759
v -0.084035 0.323219 -0.010811
v -0.092735 0.328691 0.004238
v -0.092435 0.326876 0.004865
v -0.088806 0.324489 0.007142
v -0.093334 0.323239 0.000598
v -0.088806 0.324489 -0.005945
v -0.092435 0.326876 -0.003668
v -0.106807 0.320523 0.000621
v -0.092735 0.328691 -0.003041
v -0.102257 0.318282 0.003395
v -0.096048 0.322207 0.004573
v -0.104352 0.31272 0.002787
v -0.104909 0.312661 0.000636
v -0.104352 0.31272 -0.001509
v -0.096048 0.322207 -0.003376
v -0.109251 0.318451 0.003426
v -0.110123 0.317651 0.000626
v -0.102257 0.318282 -0.002116
v -0.109251 0.318451 -0.002147
v -0.1087 0.315385 0.003884
v -0.107552 0.313669 0.00062
v -0.1087 0.315385 -0.002606
# 212 verticies
vn 0.463554 -0.886069 0.000329
vn 0.238564 -0.953274 0.185353
vn -0.283762 -0.958895 1.5e-005
vn 0.9098 -0.310106 0.275859
vn 0.897086 -0.441855 0.000214
vn 0.238664 -0.953294 -0.185122
vn 0.909898 -0.31006 -0.275586
vn 0.285428 -0.829383 0.480265
vn 0.046071 -0.671527 0.739547
vn -0.604515 -0.796441 -0.015577
vn -0.698625 -0.715488 -1.4e-005
vn -0.638073 -0.752134 0.164796
vn -0.360123 -0.600972 0.713543
vn 0.285426 -0.829385 -0.480262
vn 0.046076 -0.671525 -0.739548
vn -0.604513 -0.796443 0.015551
vn -0.63807 -0.752137 -0.164792
vn -0.360119 -0.60097 -0.713547
vn 0.999459 -0.032886 0.000161
vn 0.946653 0.012533 0.32201
vn 0.695248 -0.023727 0.718378
vn 0.946751 0.01254 -0.321722
vn 0.695248 -0.023735 -0.718378
vn 0.282111 0.088732 0.95527
vn -0.96844 -0.246759 -0.035131
vn -0.999133 0.041631 -1.9e-005
vn -0.96844 -0.24676 0.035127
vn -0.262726 0.025497 0.964534
vn -0.825988 -0.218541 0.5196
vn -0.976778 -0.091941 -0.193525
vn 0.282109 0.088735 -0.95527
vn -0.825988 -0.218541 -0.519599
vn -0.262726 0.025491 -0.964534
vn -0.976778 -0.09194 0.193526
vn 0.944138 -0.329551 0.000348
vn 0.845289 -0.390695 0.364477
vn 0.670197 0.043566 0.740904
vn 0.845392 -0.39072 -0.364212
vn 0.670193 0.043563 -0.740907
vn 0.267836 0.097193 0.95855
vn -0.88995 0.371636 -0.264341
vn -0.891577 0.452869 -7.4e-005
vn -0.88996 0.371632 0.264312
vn -0.140165 0.064194 0.988045
vn -0.243579 -0.490257 0.83685
vn -0.852928 -0.275821 -0.443211
vn 0.267834 0.097193 -0.95855
vn -0.243582 -0.49026 -0.836847
vn -0.14017 0.064192 -0.988044
vn -0.852929 -0.275824 0.443208
vn 0.914123 -0.405438 0.000204
vn 0.841344 -0.4391 0.315169
vn 0.465886 -0.411649 0.78326
vn 0.841397 -0.439106 -0.315019
vn 0.465884 -0.411648 -0.783261
vn 0.099253 -0.351308 0.930984
vn -0.878127 0.402478 -0.258658
vn -0.333403 0.274962 -0.901797
vn -0.931671 0.363304 -0.000148
vn -0.878158 0.402467 0.258571
vn -0.333402 0.274955 0.9018
vn -0.111824 -0.282007 0.952873
vn 0.230624 0.015701 0.972916
vn -0.468771 -0.871845 0.141916
vn -0.558576 -0.418313 0.716245
vn 0.034745 -0.024869 0.999087
vn 0.680252 -0.149162 -0.717641
vn 0.099252 -0.351316 -0.930981
vn 0.230626 0.015699 -0.972916
vn -0.111825 -0.282005 -0.952874
vn -0.558566 -0.418324 -0.716247
vn -0.468771 -0.871845 -0.141915
vn 0.03475 -0.024876 -0.999086
vn 0.680425 -0.149156 0.717477
vn 0.979184 0.202975 0.000169
vn 0.890717 0.325273 0.317523
vn 0.498354 -0.4137 0.761903
vn 0.890759 0.325286 -0.317392
vn 0.498352 -0.413707 -0.7619
vn 0.04725 -0.374998 0.925821
vn -0.213949 0.912229 -0.349376
vn -0.270031 0.0816149 -0.959386
vn -0.438301 0.898828 -0.000227
vn -0.21398 0.912274 0.349241
vn -0.270023 0.081613 0.959389
vn -0.208827 -0.09372 0.973451
vn -0.196161 0.356924 0.913305
vn 0.238605 0.673098 0.700005
vn -0.364532 -0.466311 0.806021
vn -0.530129 -0.405491 0.744675
vn 0.414629 -0.28091 0.865547
vn 0.682221 -0.566279 0.462497
vn 0.212651 0.182368 0.959959
vn -0.658642 -0.331694 0.675404
vn 0.919277 -0.393611 -0.00022
vn 0.527388 -0.714444 -0.459817
vn -0.213742 0.97689 5e-005
vn -0.249011 0.625576 -0.739356
vn 0.047243 -0.375001 -0.92582
vn -0.196151 0.356928 -0.913306
vn -0.20882 -0.093713 -0.973454
vn 0.238606 0.673103 -0.7
vn -0.530126 -0.405495 -0.744674
vn -0.364624 -0.465517 -0.806439
vn 0.414608 -0.280919 -0.865554
vn 0.682223 -0.56627 -0.462504
vn -0.658646 -0.331698 -0.675397
vn 0.212658 0.182363 -0.959958
vn 0.527367 -0.7145 0.459753
vn -0.248918 0.625582 0.739383
vn 0.365539 0.930796 -3e-006
vn 0.700784 0.50226 0.506593
vn 0.431332 0.377696 0.819328
vn 0.700783 0.502269 -0.506586
vn 0.43133 0.377701 -0.819327
vn -0.083106 0.473145 0.877056
vn 0.185857 0.974334 -0.127007
vn 0.322864 0.879385 0.349917
vn -0.42071 0.740596 -0.523946
vn 0.105417 0.923846 0.367961
vn 0.322864 0.879385 -0.349916
vn 0.186025 0.974271 0.127242
vn -0.42071 0.740596 0.523946
vn 0.105436 0.923848 -0.367951
vn 0.511238 0.453325 0.730159
vn 0.572315 0.46884 0.672789
vn 0.632815 0.126966 0.763822
vn -0.116941 -0.790862 0.600718
vn 0.609675 0.015652 0.792497
vn -0.714087 0.525496 0.46253
vn -0.121575 0.224217 0.966926
vn -0.908749 -0.330825 -0.254422
vn -0.799975 0.523453 -0.29332
vn 0.786412 -0.535633 0.307656
vn -0.00994499 0.251707 0.967752
vn 0.108435 -0.040322 0.993286
vn -0.948961 -0.154093 0.275189
vn -0.869577 0.450552 -0.202087
vn -0.266278 -0.963896 -0.00012
vn -0.371034 -0.844128 -0.387017
vn -0.686296 0.727322 0.000195
vn -0.3199 0.878646 0.354464
vn -0.578102 0.796109 0.17891
vn -0.755372 0.619822 -0.212684
vn -0.31972 0.878783 -0.354287
vn -0.577974 0.796238 -0.178749
vn -0.755364 0.61981 0.212745
vn -0.674277 0.524995 -0.519356
vn -0.083101 0.47315 -0.877054
vn 0.511231 0.453334 -0.730159
vn 0.571931 0.469255 -0.672826
vn -0.12157 0.224223 -0.966925
vn -0.714086 0.525491 -0.462537
vn -0.115297 -0.789129 -0.603309
vn -0.908023 -0.333284 0.253804
vn -0.799982 0.523449 0.293308
vn 0.631495 0.12923 -0.764535
vn 0.60918 0.017037 -0.792849
vn 0.786409 -0.535635 -0.307662
vn -0.009943 0.251714 -0.967751
vn -0.94897 -0.154088 -0.275161
vn 0.10843 -0.040326 -0.993286
vn -0.869567 0.450558 0.202118
vn -0.370929 -0.844193 0.386977
vn -0.674279 0.524995 0.519354
vn -0.671229 0.675827 -0.304481
vn -0.598891 0.343593 -0.723377
vn -0.671538 0.674608 0.306497
vn -0.599145 0.341164 0.724316
vn -0.66471 -0.111602 0.738719
vn -0.857052 -0.49991 0.124709
vn -0.78374 0.460121 0.417182
vn -0.917331 -0.103507 0.384435
vn -0.834757 -0.364694 0.412527
vn -0.651778 0.715314 0.252014
vn 0.172982 -0.951983 0.252599
vn -0.024711 -0.953331 -0.300915
vn 0.613027 -0.790062 -4.9e-005
vn -0.024733 -0.953362 0.300814
vn -0.609681 0.604545 0.512654
vn -0.75355 0.657387 -0.002183
vn -0.734049 0.388866 0.556736
vn -0.609741 0.604553 -0.512574
vn -0.733723 0.389136 -0.556978
vn -0.651781 0.715312 -0.252013
vn -0.917329 -0.103514 -0.384438
vn -0.783741 0.460117 -0.417184
vn -0.834758 -0.364695 -0.412525
vn -0.66471 -0.109702 -0.739003
vn -0.856251 -0.500737 -0.126876
vn 0.172985 -0.951983 -0.252596
vn -0.644414 0.260221 0.719038
vn -0.161397 -0.913313 0.373912
vn -0.32508 -0.905778 -0.271825
vn 0.504339 -0.863506 -0.000115
vn -0.325082 -0.905779 0.271821
vn -0.157265 -0.911545 -0.379938
vn -0.543142 0.839636 -0.002898
vn -0.645145 0.25836 -0.719054
vn -0.122075 0.221019 0.967599
vn -0.075238 -0.040373 0.996348
vn 0.405553 -0.77739 0.480824
vn -0.063362 -0.99799 -0.001036
vn 0.402646 -0.775926 -0.485608
vn -0.083386 -0.038725 -0.995765
vn -0.761121 0.321575 0.56328
vn -0.984413 0.175869 -0.000997
vn -0.127607 0.221249 -0.966833
vn -0.760387 0.32055 -0.564853
vn -0.480029 -0.578022 0.659896
vn -0.793233 -0.608918 -0.001157
vn -0.478586 -0.578013 -0.660951
# 212 normals
usemtl Material__1
f  1//1 2//2 3//3
f  4//4 2//2 1//1
f  4//4 1//1 5//5
f  3//3 6//6 1//1
f  1//1 6//6 7//7
f  5//5 1//1 7//7
f  2//2 8//8 3//3
f  8//8 2//2 4//4
f  8//8 9//9 3//3
f  10//10 11//11 3//3
f  3//3 12//12 10//10
f  13//13 12//12 3//3
f  3//3 9//9 13//13
f  3//3 14//14 6//6
f  3//3 15//15 14//14
f  3//3 11//11 16//16
f  16//16 17//17 3//3
f  3//3 17//17 18//18
f  18//18 15//15 3//3
f  19//19 20//20 4//4
f  19//19 4//4 5//5
f  21//21 4//4 20//20
f  8//8 4//4 21//21
f  5//5 7//7 19//19
f  7//7 6//6 14//14
f  7//7 22//22 19//19
f  22//22 7//7 23//23
f  23//23 7//7 14//14
f  9//9 8//8 21//21
f  9//9 21//21 24//24
f  13//13 9//9 24//24
f  11//11 10//10 25//25
f  12//12 25//25 10//10
f  11//11 25//25 26//26
f  27//27 16//16 11//11
f  26//26 27//27 11//11
f  28//28 29//29 12//12
f  28//28 12//12 13//13
f  12//12 29//29 30//30
f  12//12 30//30 25//25
f  13//13 24//24 28//28
f  23//23 14//14 15//15
f  31//31 23//23 15//15
f  31//31 15//15 18//18
f  16//16 27//27 17//17
f  17//17 32//32 33//33
f  18//18 17//17 33//33
f  34//34 32//32 17//17
f  27//27 34//34 17//17
f  33//33 31//31 18//18
f  35//35 20//20 19//19
f  19//19 22//22 35//35
f  35//35 36//36 20//20
f  37//37 20//20 36//36
f  21//21 20//20 37//37
f  24//24 21//21 37//37
f  22//22 38//38 35//35
f  38//38 22//22 39//39
f  39//39 22//22 23//23
f  39//39 23//23 31//31
f  24//24 37//37 40//40
f  28//28 24//24 40//40
f  41//41 26//26 25//25
f  41//41 25//25 30//30
f  26//26 41//41 42//42
f  42//42 43//43 26//26
f  27//27 26//26 43//43
f  34//34 27//27 43//43
f  28//28 40//40 44//44
f  44//44 29//29 28//28
f  44//44 45//45 29//29
f  30//30 29//29 46//46
f  29//29 45//45 46//46
f  41//41 30//30 46//46
f  47//47 39//39 31//31
f  47//47 31//31 33//33
f  32//32 48//48 49//49
f  33//33 32//32 49//49
f  50//50 32//32 34//34
f  50//50 48//48 32//32
f  49//49 47//47 33//33
f  50//50 34//34 43//43
f  51//51 36//36 35//35
f  35//35 38//38 51//51
f  51//51 52//52 36//36
f  53//53 36//36 52//52
f  37//37 36//36 53//53
f  40//40 37//37 53//53
f  38//38 54//54 51//51
f  54//54 38//38 55//55
f  55//55 38//38 39//39
f  55//55 39//39 47//47
f  40//40 53//53 56//56
f  44//44 40//40 56//56
f  42//42 41//41 57//57
f  41//41 58//58 57//57
f  41//41 46//46 58//58
f  42//42 57//57 59//59
f  60//60 43//43 42//42
f  59//59 60//60 42//42
f  60//60 61//61 43//43
f  61//61 50//50 43//43
f  44//44 56//56 62//62
f  62//62 45//45 44//44
f  62//62 63//63 45//45
f  64//64 45//45 65//65
f  66//66 65//65 45//45
f  66//66 45//45 63//63
f  45//45 64//64 46//46
f  58//58 46//46 67//67
f  67//67 46//46 64//64
f  68//68 55//55 47//47
f  68//68 47//47 49//49
f  48//48 69//69 70//70
f  49//49 48//48 70//70
f  71//71 48//48 72//72
f  48//48 71//71 73//73
f  69//69 48//48 73//73
f  50//50 72//72 48//48
f  70//70 68//68 49//49
f  74//74 50//50 61//61
f  72//72 50//50 74//74
f  75//75 52//52 51//51
f  51//51 54//54 75//75
f  75//75 76//76 52//52
f  77//77 52//52 76//76
f  53//53 52//52 77//77
f  56//56 53//53 77//77
f  54//54 78//78 75//75
f  78//78 54//54 79//79
f  79//79 54//54 55//55
f  79//79 55//55 68//68
f  56//56 77//77 80//80
f  62//62 56//56 80//80
f  59//59 57//57 81//81
f  57//57 58//58 82//82
f  57//57 82//82 81//81
f  67//67 82//82 58//58
f  59//59 81//81 83//83
f  84//84 60//60 59//59
f  83//83 84//84 59//59
f  85//85 61//61 60//60
f  84//84 85//85 60//60
f  61//61 85//85 74//74
f  62//62 80//80 86//86
f  86//86 63//63 62//62
f  86//86 87//87 63//63
f  88//88 66//66 63//63
f  88//88 63//63 87//87
f  89//89 90//90 64//64
f  89//89 64//64 91//91
f  64//64 65//65 66//66
f  64//64 66//66 91//91
f  64//64 90//90 92//92
f  64//64 92//92 67//67
f  66//66 93//93 94//94
f  66//66 94//94 91//91
f  88//88 93//93 66//66
f  95//95 67//67 96//96
f  67//67 95//95 97//97
f  67//67 97//97 98//98
f  92//92 96//96 67//67
f  67//67 98//98 82//82
f  99//99 79//79 68//68
f  99//99 68//68 70//70
f  69//69 100//100 101//101
f  70//70 69//69 101//101
f  69//69 73//73 102//102
f  100//100 69//69 102//102
f  101//101 99//99 70//70
f  73//73 71//71 72//72
f  72//72 103//103 104//104
f  105//105 72//72 104//104
f  105//105 73//73 72//72
f  106//106 103//103 72//72
f  74//74 106//106 72//72
f  107//107 108//108 73//73
f  105//105 107//107 73//73
f  73//73 108//108 102//102
f  109//109 74//74 95//95
f  97//97 95//95 74//74
f  110//110 97//97 74//74
f  74//74 109//109 106//106
f  85//85 110//110 74//74
f  76//76 75//75 111//111
f  111//111 75//75 78//78
f  77//77 76//76 112//112
f  112//112 76//76 111//111
f  113//113 80//80 77//77
f  113//113 77//77 112//112
f  114//114 78//78 79//79
f  111//111 78//78 114//114
f  79//79 99//99 115//115
f  114//114 79//79 115//115
f  116//116 86//86 80//80
f  116//116 80//80 113//113
f  117//117 118//118 81//81
f  81//81 119//119 117//117
f  81//81 98//98 119//119
f  98//98 81//81 82//82
f  83//83 81//81 111//111
f  81//81 120//120 111//111
f  118//118 120//120 81//81
f  111//111 84//84 83//83
f  84//84 121//121 122//122
f  122//122 123//123 84//84
f  123//123 110//110 84//84
f  85//85 84//84 110//110
f  111//111 124//124 84//84
f  84//84 124//124 121//121
f  116//116 87//87 86//86
f  120//120 88//88 87//87
f  116//116 120//120 87//87
f  120//120 118//118 88//88
f  88//88 125//125 93//93
f  125//125 88//88 126//126
f  126//126 88//88 118//118
f  127//127 128//128 89//89
f  128//128 90//90 89//89
f  89//89 91//91 125//125
f  129//129 89//89 125//125
f  127//127 89//89 129//129
f  130//130 131//131 90//90
f  128//128 132//132 90//90
f  90//90 131//131 92//92
f  90//90 133//133 130//130
f  90//90 132//132 133//133
f  91//91 94//94 125//125
f  96//96 92//92 134//134
f  135//135 134//134 92//92
f  135//135 92//92 131//131
f  125//125 136//136 93//93
f  136//136 94//94 93//93
f  136//136 137//137 94//94
f  137//137 138//138 94//94
f  94//94 138//138 125//125
f  95//95 96//96 139//139
f  139//139 109//109 95//95
f  139//139 96//96 140//140
f  96//96 134//134 140//140
f  141//141 142//142 97//97
f  97//97 142//142 143//143
f  97//97 143//143 144//144
f  144//144 98//98 97//97
f  97//97 145//145 141//141
f  146//146 145//145 97//97
f  147//147 146//146 97//97
f  97//97 110//110 147//147
f  144//144 148//148 98//98
f  98//98 148//148 119//119
f  99//99 101//101 149//149
f  115//115 99//99 149//149
f  101//101 100//100 149//149
f  100//100 102//102 124//124
f  100//100 124//124 149//149
f  102//102 121//121 124//124
f  108//108 150//150 102//102
f  151//151 102//102 150//150
f  121//121 102//102 151//151
f  103//103 152//152 153//153
f  104//104 103//103 154//154
f  103//103 155//155 154//154
f  106//106 152//152 103//103
f  153//153 156//156 103//103
f  156//156 155//155 103//103
f  104//104 154//154 157//157
f  150//150 105//105 104//104
f  150//150 104//104 158//158
f  158//158 104//104 157//157
f  150//150 107//107 105//105
f  159//159 106//106 109//109
f  106//106 159//159 160//160
f  152//152 106//106 160//160
f  107//107 161//161 162//162
f  108//108 107//107 162//162
f  107//107 163//163 161//161
f  150//150 163//163 107//107
f  108//108 162//162 150//150
f  164//164 109//109 139//139
f  164//164 159//159 109//109
f  110//110 165//165 147//147
f  123//123 165//165 110//110
f  113//113 112//112 111//111
f  116//116 113//113 111//111
f  120//120 116//116 111//111
f  111//111 114//114 115//115
f  111//111 115//115 149//149
f  111//111 149//149 124//124
f  118//118 117//117 126//126
f  127//127 126//126 117//117
f  166//166 127//127 117//117
f  166//166 117//117 167//167
f  117//117 148//148 167//167
f  148//148 117//117 119//119
f  151//151 122//122 121//121
f  122//122 151//151 157//157
f  122//122 157//157 168//168
f  169//169 122//122 168//168
f  169//169 165//165 122//122
f  123//123 122//122 165//165
f  125//125 138//138 136//136
f  125//125 126//126 129//129
f  127//127 129//129 126//126
f  127//127 170//170 128//128
f  170//170 127//127 166//166
f  128//128 170//170 171//171
f  132//132 128//128 171//171
f  135//135 131//131 130//130
f  130//130 172//172 173//173
f  130//130 173//173 174//174
f  130//130 174//174 135//135
f  172//172 130//130 175//175
f  133//133 175//175 130//130
f  132//132 171//171 166//166
f  132//132 166//166 167//167
f  148//148 133//133 132//132
f  148//148 132//132 167//167
f  144//144 133//133 148//148
f  175//175 133//133 143//143
f  143//143 133//133 144//144
f  135//135 176//176 134//134
f  134//134 176//176 140//140
f  135//135 174//174 176//176
f  136//136 138//138 137//137
f  139//139 140//140 177//177
f  139//139 177//177 178//178
f  179//179 164//164 139//139
f  178//178 179//179 139//139
f  140//140 176//176 177//177
f  180//180 142//142 141//141
f  141//141 181//181 182//182
f  141//141 182//182 180//180
f  141//141 145//145 183//183
f  184//184 181//181 141//141
f  183//183 184//184 141//141
f  180//180 143//143 142//142
f  180//180 175//175 143//143
f  145//145 146//146 183//183
f  146//146 185//185 183//183
f  146//146 156//156 185//185
f  147//147 156//156 146//146
f  165//165 156//156 147//147
f  162//162 163//163 150//150
f  158//158 151//151 150//150
f  151//151 158//158 157//157
f  153//153 152//152 160//160
f  186//186 187//187 153//153
f  188//188 186//186 153//153
f  160//160 188//188 153//153
f  185//185 153//153 187//187
f  153//153 185//185 156//156
f  154//154 189//189 157//157
f  190//190 189//189 154//154
f  190//190 154//154 155//155
f  168//168 190//190 155//155
f  169//169 168//168 155//155
f  155//155 156//156 165//165
f  169//169 155//155 165//165
f  168//168 157//157 189//189
f  159//159 191//191 160//160
f  164//164 191//191 159//159
f  191//191 188//188 160//160
f  161//161 163//163 162//162
f  179//179 191//191 164//164
f  170//170 166//166 171//171
f  190//190 168//168 189//189
f  182//182 172//172 175//175
f  192//192 173//173 172//172
f  192//192 172//172 182//182
f  193//193 194//194 173//173
f  193//193 173//173 192//192
f  194//194 174//174 173//173
f  194//194 176//176 174//174
f  182//182 175//175 180//180
f  177//177 176//176 194//194
f  177//177 194//194 193//193
f  177//177 193//193 195//195
f  178//178 177//177 195//195
f  195//195 179//179 178//178
f  196//196 191//191 179//179
f  197//197 196//196 179//179
f  195//195 197//197 179//179
f  181//181 198//198 192//192
f  181//181 192//192 182//182
f  199//199 198//198 181//181
f  184//184 199//199 181//181
f  183//183 185//185 184//184
f  185//185 187//187 184//184
f  184//184 187//187 199//199
f  187//187 186//186 199//199
f  186//186 196//196 197//197
f  199//199 186//186 197//197
f  186//186 188//188 196//196
f  188//188 191//191 196//196
f  198//198 200//200 192//192
f  201//201 193//193 192//192
f  201//201 192//192 200//200
f  202//202 195//195 193//193
f  202//202 193//193 201//201
f  195//195 202//202 203//203
f  203//203 204//204 195//195
f  197//197 195//195 204//204
f  199//199 197//197 205//205
f  205//205 197//197 204//204
f  198//198 206//206 200//200
f  207//207 206//206 198//198
f  208//208 209//209 198//198
f  199//199 208//208 198//198
f  198//198 209//209 207//207
f  208//208 199//199 205//205
f  202//202 201//201 200//200
f  202//202 200//200 210//210
f  206//206 210//210 200//200
f  203//203 202//202 210//210
f  203//203 210//210 211//211
f  212//212 204//204 203//203
f  211//211 212//212 203//203
f  208//208 205//205 204//204
f  212//212 208//208 204//204
f  211//211 210//210 206//206
f  211//211 206//206 207//207
f  207//207 209//209 211//211
f  208//208 212//212 209//209
f  209//209 212//212 211//211
