# 
# Wavefront OBJ file
# Converted by the DEEP Exploration 2.00.1211
# Right Hemisphere, LTD
# http://www.righthemisphere.com/
# 
mtllib thoracic8.mtl
# object Object #0
g Object__0
v -0.057064 0.172236 2.4e-005
v -0.057841 0.172429 0.007987
v -0.071072 0.170462 3e-006
v -0.056992 0.176354 0.009581
v -0.056394 0.173796 2.6e-005
v -0.057841 0.172429 -0.007987
v -0.056992 0.176354 -0.009581
v -0.062133 0.172421 0.016272
v -0.068941 0.171786 0.020303
v -0.083497 0.168103 0.004802
v -0.083666 0.168354 3e-006
v -0.083901 0.168293 0.014136
v -0.079636 0.170115 0.020412
v -0.062133 0.172421 -0.016272
v -0.068941 0.171786 -0.020303
v -0.083497 0.168103 -0.004802
v -0.083901 0.168293 -0.014136
v -0.079636 0.170115 -0.020412
v -0.05762 0.178029 2.6e-005
v -0.059021 0.178314 0.010257
v -0.062387 0.176518 0.017288
v -0.059021 0.178314 -0.010257
v -0.062387 0.176518 -0.017288
v -0.070626 0.176269 0.020998
v -0.087802 0.170832 0.004942
v -0.087751 0.170716 3e-006
v -0.087802 0.170832 -0.004942
v -0.081569 0.174959 0.021147
v -0.086963 0.168508 0.015875
v -0.088935 0.172068 0.009393
v -0.070626 0.176269 -0.020998
v -0.086963 0.168508 -0.015875
v -0.081569 0.174959 -0.021147
v -0.088935 0.172068 -0.009393
v -0.058524 0.187089 2.9e-005
v -0.059832 0.18595 0.0099
v -0.064634 0.178982 0.016856
v -0.059832 0.18595 -0.009899
v -0.064634 0.178982 -0.016856
v -0.071234 0.180193 0.019102
v -0.088428 0.177599 0.006337
v -0.087926 0.177671 5e-006
v -0.088428 0.177599 -0.006337
v -0.081897 0.178411 0.020014
v -0.087078 0.176458 0.018925
v -0.090389 0.177952 0.009692
v -0.071234 0.180193 -0.019102
v -0.087078 0.176458 -0.018925
v -0.081897 0.178411 -0.020014
v -0.090389 0.177952 -0.009692
v -0.058415 0.190716 3e-005
v -0.059001 0.190299 0.01095
v -0.065867 0.18593 0.017504
v -0.059001 0.190299 -0.01095
v -0.065867 0.18593 -0.017504
v -0.070899 0.18563 0.01919
v -0.090774 0.186757 0.006548
v -0.092842 0.186985 0.010134
v -0.090043 0.186915 7e-006
v -0.090774 0.186757 -0.006548
v -0.092842 0.186985 -0.010134
v -0.081275 0.185123 0.020158
v -0.086247 0.185621 0.02055
v -0.093256 0.175549 0.017049
v -0.090673 0.178355 0.020902
v -0.092888 0.184921 0.024994
v -0.099118 0.178832 0.00372
v -0.070899 0.18563 -0.01919
v -0.086247 0.185621 -0.02055
v -0.081275 0.185123 -0.020158
v -0.090673 0.178355 -0.020902
v -0.093256 0.175549 -0.017049
v -0.092888 0.184921 -0.024994
v -0.099118 0.178832 -0.00372
v -0.059045 0.194709 3.1e-005
v -0.059872 0.194421 0.011151
v -0.064285 0.189504 0.018528
v -0.059872 0.194421 -0.011151
v -0.064285 0.189504 -0.018528
v -0.070499 0.188515 0.021218
v -0.092094 0.193257 0.008348
v -0.092684 0.191638 0.010881
v -0.090301 0.192563 9e-006
v -0.092094 0.193257 -0.008348
v -0.092684 0.191638 -0.010881
v -0.079482 0.189181 0.022241
v -0.087742 0.189487 0.019859
v -0.094311 0.190086 0.019906
v -0.102777 0.181816 0.023072
v -0.100475 0.178209 0.017146
v -0.09687 0.173002 0.024679
v -0.094989 0.172956 0.010508
v -0.09724 0.181356 0.023736
v -0.098177 0.174844 0.021578
v -0.099134 0.173834 4e-006
v -0.097226 0.165194 0.005103
v -0.107968 0.179022 5e-006
v -0.102061 0.183987 0.0077
v -0.070499 0.188515 -0.021218
v -0.087742 0.189487 -0.019859
v -0.079482 0.189181 -0.022241
v -0.094311 0.190086 -0.019906
v -0.100475 0.178209 -0.017146
v -0.102777 0.181816 -0.023072
v -0.09687 0.173002 -0.024679
v -0.094989 0.172956 -0.010508
v -0.098177 0.174844 -0.021578
v -0.09724 0.181356 -0.023736
v -0.097226 0.165194 -0.005103
v -0.102061 0.183987 -0.0077
v -0.074673 0.193636 9e-006
v -0.064981 0.19383 0.018784
v -0.072118 0.193436 0.022243
v -0.064981 0.19383 -0.018784
v -0.072118 0.193436 -0.022243
v -0.081277 0.192318 0.022379
v -0.101926 0.192316 0.015963
v -0.094207 0.191748 0.014072
v -0.101381 0.189928 0.01004
v -0.090105 0.192971 0.017079
v -0.094207 0.191748 -0.014072
v -0.101926 0.192316 -0.015963
v -0.101381 0.189928 -0.01004
v -0.090105 0.192971 -0.017079
v -0.100195 0.186001 0.021186
v -0.099557 0.188891 0.018352
v -0.115085 0.190181 0.034704
v -0.108284 0.182585 0.021043
v -0.103327 0.187079 0.021225
v -0.106808 0.170262 0.012613
v -0.102552 0.172141 0.01544
v -0.114606 0.181379 0.02527
v -0.106237 0.180401 0.01265
v -0.09529 0.171058 0.011971
v -0.106185 0.166684 0.017007
v -0.101175 0.181227 0.026253
v -0.102557 0.179093 0.023941
v -0.104413 0.185287 0.024279
v -0.100516 0.169458 3e-006
v -0.096831 0.164315 0.006687
v -0.113349 0.169209 4e-006
v -0.108647 0.175746 0.004946
v -0.104601 0.175231 0.008282
v -0.105056 0.179079 0.010379
v -0.108647 0.175746 -0.004946
v -0.104601 0.175231 -0.008282
v -0.105056 0.179079 -0.010379
v -0.103218 0.18433 0.011325
v -0.081277 0.192318 -0.022379
v -0.100195 0.186001 -0.021186
v -0.099557 0.188891 -0.018352
v -0.102552 0.172141 -0.01544
v -0.106808 0.170262 -0.012613
v -0.108284 0.182585 -0.021043
v -0.114606 0.181379 -0.02527
v -0.106237 0.180401 -0.01265
v -0.115085 0.190181 -0.034704
v -0.103327 0.187079 -0.021225
v -0.09529 0.171058 -0.011971
v -0.106185 0.166684 -0.017007
v -0.102557 0.179093 -0.023941
v -0.101175 0.181227 -0.026253
v -0.104413 0.185287 -0.024279
v -0.096831 0.164315 -0.006687
v -0.103218 0.18433 -0.011325
v -0.120377 0.186777 0.029089
v -0.107399 0.185508 0.013891
v -0.120377 0.186777 -0.029089
v -0.107399 0.185508 -0.013891
v -0.118371 0.185668 0.038453
v -0.119924 0.183445 0.02988
v -0.108928 0.167502 0.010239
v -0.108616 0.163493 0.009688
v -0.105393 0.160858 0.016765
v -0.106893 0.172111 0.00883
v -0.097763 0.162195 0.013289
v -0.099605 0.166822 0.005318
v -0.102576 0.164566 1e-006
v -0.099605 0.166822 -0.005318
v -0.11205 0.171587 0.004177
v -0.11714 0.163747 -1.6e-005
v -0.111235 0.167665 0.004063
v -0.11205 0.171587 -0.004177
v -0.111235 0.167665 -0.004063
v -0.106893 0.172111 -0.00883
v -0.108616 0.163493 -0.009688
v -0.108928 0.167502 -0.010239
v -0.105393 0.160858 -0.016765
v -0.118371 0.185668 -0.038453
v -0.119924 0.183445 -0.02988
v -0.097763 0.162195 -0.013289
v -0.110953 0.163857 0.004239
v -0.109744 0.162094 0.00497
v -0.104441 0.161483 0.007621
v -0.109045 0.15777 0
v -0.104441 0.161483 -0.007621
v -0.109744 0.162094 -0.00497
v -0.123066 0.156299 -2e-005
v -0.110953 0.163857 -0.004239
v -0.115157 0.156916 0.004612
v -0.11167 0.155244 0.004629
v -0.114835 0.149074 0.003595
v -0.11658 0.148319 -3e-006
v -0.114835 0.149074 -0.003595
v -0.11167 0.155244 -0.004629
v -0.124091 0.153077 0.004663
v -0.12481 0.151731 -2.2e-005
v -0.115157 0.156916 -0.004612
v -0.124091 0.153077 -0.004663
v -0.121917 0.150156 0.00543
v -0.120707 0.148631 -2.1e-005
v -0.121917 0.150156 -0.00543
# 212 verticies
vn 0.774588 -0.632466 0.000334
vn 0.606978 -0.772585 0.186254
vn 0.164198 -0.986427 1.5e-005
vn 0.953679 0.07303 0.291827
vn 0.998232 -0.05944 0.000221
vn 0.607076 -0.772565 -0.186019
vn 0.953761 0.073116 -0.291538
vn 0.592688 -0.644613 0.482902
vn 0.320673 -0.593241 0.738399
vn -0.190553 -0.981545 -0.016097
vn -0.307728 -0.951474 -1.4e-005
vn -0.242406 -0.955411 0.168612
vn -0.060506 -0.690041 0.721236
vn 0.592685 -0.644619 -0.482899
vn 0.320672 -0.593244 -0.738397
vn -0.19055 -0.981546 0.016071
vn -0.2424 -0.955413 -0.168609
vn -0.060499 -0.690046 -0.721233
vn 0.926066 0.377362 0.000174
vn 0.850579 0.397591 0.344148
vn 0.619628 0.255712 0.742073
vn 0.850676 0.397651 -0.343837
vn 0.619627 0.255713 -0.742074
vn 0.202954 0.190747 0.96043
vn -0.769041 -0.638072 -0.037951
vn -0.930538 -0.366196 -2e-005
vn -0.769041 -0.638073 0.037947
vn -0.242492 -0.078019 0.967011
vn -0.652872 -0.532873 0.538335
vn -0.848961 -0.486566 -0.206202
vn 0.202953 0.190746 -0.96043
vn -0.652872 -0.532873 -0.538335
vn -0.242492 -0.078019 -0.967011
vn -0.848961 -0.486566 0.206202
vn 0.998164 0.060571 0.000371
vn 0.923584 -0.037319 0.381576
vn 0.567695 0.305324 0.764526
vn 0.923701 -0.037302 -0.381293
vn 0.567695 0.305323 -0.764526
vn 0.18635 0.191666 0.963607
vn -0.951637 -0.147392 -0.269559
vn -0.986177 -0.165696 -8.2e-005
vn -0.951646 -0.1474 0.269525
vn -0.148653 0.006164 0.98887
vn -0.035886 -0.502194 0.86401
vn -0.665939 -0.605432 -0.435864
vn 0.18635 0.191665 -0.963607
vn -0.035888 -0.502192 -0.864011
vn -0.148653 0.006164 -0.98887
vn -0.665938 -0.605432 0.435866
vn 0.999703 -0.024377 0.000216
vn 0.941336 -0.081063 0.327591
vn 0.575384 -0.200901 0.792825
vn 0.941393 -0.081046 -0.327431
vn 0.575385 -0.200897 -0.792825
vn 0.230762 -0.282581 0.931073
vn -0.95207 -0.14423 -0.26974
vn -0.409326 -0.004055 -0.912379
vn -0.989176 -0.146731 -0.000159
vn -0.952095 -0.144258 0.269639
vn -0.409326 -0.004055 0.912379
vn 0.024187 -0.299717 0.953721
vn 0.138634 0.022362 0.990091
vn 0.056109 -0.978957 0.196202
vn -0.091152 -0.637967 0.76465
vn 0.033629 -0.073329 0.996741
vn 0.650378 0.22467 -0.725626
vn 0.230764 -0.282577 -0.931074
vn 0.13863 0.022358 -0.990092
vn 0.024181 -0.299714 -0.953723
vn -0.09116 -0.63797 -0.764646
vn 0.056108 -0.978957 -0.1962
vn 0.033629 -0.073328 -0.996741
vn 0.650553 0.224768 0.725438
vn 0.813205 0.581977 0.000183
vn 0.667719 0.661183 0.342036
vn 0.606418 -0.187581 0.772703
vn 0.667758 0.661214 -0.341898
vn 0.606421 -0.187578 -0.772702
vn 0.197111 -0.323518 0.925464
vn -0.583585 0.742541 -0.328728
vn -0.2419 -0.018746 -0.97012
vn -0.740744 0.671787 -0.000228
vn -0.583638 0.74256 0.328589
vn -0.2419 -0.018746 0.97012
vn -0.073189 -0.220695 0.972593
vn -0.199219 0.221671 0.954554
vn -0.184223 0.687663 0.702269
vn -0.114398 -0.575319 0.80989
vn -0.214658 -0.638581 0.73901
vn 0.483088 -0.116915 0.867731
vn 0.876245 -0.163562 0.453258
vn 0.053443 0.218558 0.974359
vn -0.439201 -0.658865 0.610737
vn 0.975857 0.218408 -0.000298
vn 0.874941 -0.233019 -0.424477
vn -0.616807 0.787114 4.4e-005
vn -0.487432 0.492636 -0.720916
vn 0.197115 -0.323517 -0.925463
vn -0.19922 0.221661 -0.954556
vn -0.073193 -0.220698 -0.972592
vn -0.184223 0.687661 -0.702271
vn -0.214656 -0.638581 -0.739011
vn -0.114398 -0.575317 -0.809891
vn 0.483087 -0.116916 -0.867731
vn 0.876245 -0.163562 -0.453257
vn -0.439201 -0.658865 -0.610737
vn 0.053443 0.218558 -0.974359
vn 0.874974 -0.233115 0.424355
vn -0.487347 0.492689 0.720937
vn -0.050421 0.998728 0
vn 0.401749 0.746407 0.530542
vn 0.207936 0.516232 0.830823
vn 0.401748 0.746409 -0.53054
vn 0.20794 0.516233 -0.830822
vn -0.156426 0.449842 0.879303
vn -0.297463 0.949221 -0.102447
vn -0.152413 0.924613 0.349085
vn -0.716759 0.487393 -0.498704
vn -0.219446 0.897887 0.381632
vn -0.152413 0.924613 -0.349085
vn -0.297464 0.949221 0.102447
vn -0.716759 0.487393 0.498704
vn -0.219436 0.897893 -0.381624
vn 0.217224 0.633576 0.74256
vn 0.213155 0.673869 0.707436
vn 0.450558 0.358475 0.817614
vn 0.326519 -0.650458 0.685777
vn 0.504704 0.265698 0.821388
vn -0.852057 0.113468 0.511002
vn -0.022759 -0.003428 0.999735
vn -0.670948 -0.674488 -0.308049
vn -0.945984 0.087943 -0.312058
vn 0.924268 0.029042 0.380637
vn -0.023912 0.225504 0.973949
vn 0.103237 0.008543 0.99462
vn -0.790634 -0.53431 0.299016
vn -0.975805 0.085983 -0.201027
vn 0.21694 -0.976185 -0.00012
vn 0.097191 -0.916143 -0.38889
vn -0.91685 0.399232 0.000216
vn -0.691184 0.6253 0.362304
vn -0.871335 0.44756 0.201159
vn -0.933473 0.284762 -0.218034
vn -0.691094 0.625493 -0.362142
vn -0.871291 0.447717 -0.200999
vn -0.933461 0.284751 0.218102
vn -0.814942 0.23938 -0.527794
vn -0.156422 0.449849 -0.8793
vn 0.217224 0.633576 -0.74256
vn 0.213154 0.67387 -0.707436
vn -0.022759 -0.003428 -0.999735
vn -0.852057 0.113468 -0.511002
vn 0.32652 -0.650456 -0.685778
vn -0.670948 -0.674488 0.308049
vn -0.945989 0.087935 0.312044
vn 0.450556 0.35848 -0.817613
vn 0.504703 0.2657 -0.821388
vn 0.924268 0.029042 -0.380637
vn -0.023912 0.225504 -0.973949
vn -0.790634 -0.53431 -0.299016
vn 0.103237 0.008543 -0.99462
vn -0.975805 0.085983 0.201027
vn 0.097321 -0.916148 0.388846
vn -0.814943 0.239385 0.527791
vn -0.881007 0.330349 -0.338668
vn -0.656065 0.042355 -0.753515
vn -0.881007 0.33035 0.338668
vn -0.656065 0.042355 0.753515
vn -0.4864 -0.366004 0.793383
vn -0.511894 -0.81433 0.273553
vn -0.89116 0.124786 0.43619
vn -0.781075 -0.471208 0.409738
vn -0.621708 -0.662988 0.417044
vn -0.905951 0.339379 0.253131
vn 0.557009 -0.779759 0.285862
vn 0.313053 -0.892483 -0.324764
vn 0.834047 -0.551694 -8.3e-005
vn 0.313025 -0.892538 0.32464
vn -0.798599 0.266579 0.539607
vn -0.894157 0.447753 -0.00086
vn -0.818183 0.094605 0.567121
vn -0.798669 0.266565 -0.539511
vn -0.817852 0.0952291 -0.567493
vn -0.905951 0.339379 -0.253131
vn -0.781074 -0.471209 -0.409739
vn -0.89116 0.124786 -0.43619
vn -0.621709 -0.662988 -0.417044
vn -0.486399 -0.365997 -0.793386
vn -0.511894 -0.81433 -0.273553
vn 0.557011 -0.779758 -0.285862
vn -0.659822 0.036413 0.750539
vn 0.107088 -0.942167 0.317575
vn 0.052325 -0.964319 -0.25952
vn 0.741621 -0.670819 1.6e-005
vn 0.052326 -0.964318 0.259524
vn 0.107068 -0.942153 -0.317622
vn -0.766669 0.642041 -0.001369
vn -0.658732 0.036096 -0.751512
vn -0.136896 0.212529 0.967518
vn -0.015552 -0.046701 0.998788
vn 0.6133 -0.658278 0.436501
vn 0.230825 -0.972995 -0.00044
vn 0.61329 -0.658268 -0.436531
vn -0.015551 -0.046701 -0.998788
vn -0.835885 0.000808 0.548903
vn -0.966072 -0.25827 -0.000957
vn -0.136135 0.211771 -0.967791
vn -0.834898 0.000493 -0.550404
vn -0.227579 -0.691111 0.685983
vn -0.528901 -0.848683 -0.000881
vn -0.226875 -0.690794 -0.686536
# 212 normals
usemtl Material__1
f  1//1 2//2 3//3
f  4//4 2//2 1//1
f  4//4 1//1 5//5
f  3//3 6//6 1//1
f  1//1 6//6 7//7
f  5//5 1//1 7//7
f  2//2 8//8 3//3
f  8//8 2//2 4//4
f  8//8 9//9 3//3
f  10//10 11//11 3//3
f  3//3 12//12 10//10
f  13//13 12//12 3//3
f  3//3 9//9 13//13
f  3//3 14//14 6//6
f  3//3 15//15 14//14
f  3//3 11//11 16//16
f  16//16 17//17 3//3
f  3//3 17//17 18//18
f  18//18 15//15 3//3
f  19//19 20//20 4//4
f  19//19 4//4 5//5
f  21//21 4//4 20//20
f  8//8 4//4 21//21
f  5//5 7//7 19//19
f  7//7 6//6 14//14
f  7//7 22//22 19//19
f  22//22 7//7 23//23
f  23//23 7//7 14//14
f  9//9 8//8 21//21
f  9//9 21//21 24//24
f  13//13 9//9 24//24
f  11//11 10//10 25//25
f  12//12 25//25 10//10
f  11//11 25//25 26//26
f  27//27 16//16 11//11
f  26//26 27//27 11//11
f  28//28 29//29 12//12
f  28//28 12//12 13//13
f  12//12 29//29 30//30
f  12//12 30//30 25//25
f  13//13 24//24 28//28
f  23//23 14//14 15//15
f  31//31 23//23 15//15
f  31//31 15//15 18//18
f  16//16 27//27 17//17
f  17//17 32//32 33//33
f  18//18 17//17 33//33
f  34//34 32//32 17//17
f  27//27 34//34 17//17
f  33//33 31//31 18//18
f  35//35 20//20 19//19
f  19//19 22//22 35//35
f  35//35 36//36 20//20
f  37//37 20//20 36//36
f  21//21 20//20 37//37
f  24//24 21//21 37//37
f  22//22 38//38 35//35
f  38//38 22//22 39//39
f  39//39 22//22 23//23
f  39//39 23//23 31//31
f  24//24 37//37 40//40
f  28//28 24//24 40//40
f  41//41 26//26 25//25
f  41//41 25//25 30//30
f  26//26 41//41 42//42
f  42//42 43//43 26//26
f  27//27 26//26 43//43
f  34//34 27//27 43//43
f  28//28 40//40 44//44
f  44//44 29//29 28//28
f  44//44 45//45 29//29
f  30//30 29//29 46//46
f  29//29 45//45 46//46
f  41//41 30//30 46//46
f  47//47 39//39 31//31
f  47//47 31//31 33//33
f  32//32 48//48 49//49
f  33//33 32//32 49//49
f  50//50 32//32 34//34
f  50//50 48//48 32//32
f  49//49 47//47 33//33
f  50//50 34//34 43//43
f  51//51 36//36 35//35
f  35//35 38//38 51//51
f  51//51 52//52 36//36
f  53//53 36//36 52//52
f  37//37 36//36 53//53
f  40//40 37//37 53//53
f  38//38 54//54 51//51
f  54//54 38//38 55//55
f  55//55 38//38 39//39
f  55//55 39//39 47//47
f  40//40 53//53 56//56
f  44//44 40//40 56//56
f  42//42 41//41 57//57
f  41//41 58//58 57//57
f  41//41 46//46 58//58
f  42//42 57//57 59//59
f  60//60 43//43 42//42
f  59//59 60//60 42//42
f  60//60 61//61 43//43
f  61//61 50//50 43//43
f  44//44 56//56 62//62
f  62//62 45//45 44//44
f  62//62 63//63 45//45
f  64//64 45//45 65//65
f  66//66 65//65 45//45
f  66//66 45//45 63//63
f  45//45 64//64 46//46
f  58//58 46//46 67//67
f  67//67 46//46 64//64
f  68//68 55//55 47//47
f  68//68 47//47 49//49
f  48//48 69//69 70//70
f  49//49 48//48 70//70
f  71//71 48//48 72//72
f  48//48 71//71 73//73
f  69//69 48//48 73//73
f  50//50 72//72 48//48
f  70//70 68//68 49//49
f  74//74 50//50 61//61
f  72//72 50//50 74//74
f  75//75 52//52 51//51
f  51//51 54//54 75//75
f  75//75 76//76 52//52
f  77//77 52//52 76//76
f  53//53 52//52 77//77
f  56//56 53//53 77//77
f  54//54 78//78 75//75
f  78//78 54//54 79//79
f  79//79 54//54 55//55
f  79//79 55//55 68//68
f  56//56 77//77 80//80
f  62//62 56//56 80//80
f  59//59 57//57 81//81
f  57//57 58//58 82//82
f  57//57 82//82 81//81
f  67//67 82//82 58//58
f  59//59 81//81 83//83
f  84//84 60//60 59//59
f  83//83 84//84 59//59
f  85//85 61//61 60//60
f  84//84 85//85 60//60
f  61//61 85//85 74//74
f  62//62 80//80 86//86
f  86//86 63//63 62//62
f  86//86 87//87 63//63
f  88//88 66//66 63//63
f  88//88 63//63 87//87
f  89//89 90//90 64//64
f  89//89 64//64 91//91
f  64//64 65//65 66//66
f  64//64 66//66 91//91
f  64//64 90//90 92//92
f  64//64 92//92 67//67
f  66//66 93//93 94//94
f  66//66 94//94 91//91
f  88//88 93//93 66//66
f  95//95 67//67 96//96
f  67//67 95//95 97//97
f  67//67 97//97 98//98
f  92//92 96//96 67//67
f  67//67 98//98 82//82
f  99//99 79//79 68//68
f  99//99 68//68 70//70
f  69//69 100//100 101//101
f  70//70 69//69 101//101
f  69//69 73//73 102//102
f  100//100 69//69 102//102
f  101//101 99//99 70//70
f  73//73 71//71 72//72
f  72//72 103//103 104//104
f  105//105 72//72 104//104
f  105//105 73//73 72//72
f  106//106 103//103 72//72
f  74//74 106//106 72//72
f  107//107 108//108 73//73
f  105//105 107//107 73//73
f  73//73 108//108 102//102
f  109//109 74//74 95//95
f  97//97 95//95 74//74
f  110//110 97//97 74//74
f  74//74 109//109 106//106
f  85//85 110//110 74//74
f  76//76 75//75 111//111
f  111//111 75//75 78//78
f  77//77 76//76 112//112
f  112//112 76//76 111//111
f  113//113 80//80 77//77
f  113//113 77//77 112//112
f  114//114 78//78 79//79
f  111//111 78//78 114//114
f  79//79 99//99 115//115
f  114//114 79//79 115//115
f  116//116 86//86 80//80
f  116//116 80//80 113//113
f  117//117 118//118 81//81
f  81//81 119//119 117//117
f  81//81 98//98 119//119
f  98//98 81//81 82//82
f  83//83 81//81 111//111
f  81//81 120//120 111//111
f  118//118 120//120 81//81
f  111//111 84//84 83//83
f  84//84 121//121 122//122
f  122//122 123//123 84//84
f  123//123 110//110 84//84
f  85//85 84//84 110//110
f  111//111 124//124 84//84
f  84//84 124//124 121//121
f  116//116 87//87 86//86
f  120//120 88//88 87//87
f  116//116 120//120 87//87
f  120//120 118//118 88//88
f  88//88 125//125 93//93
f  125//125 88//88 126//126
f  126//126 88//88 118//118
f  127//127 128//128 89//89
f  128//128 90//90 89//89
f  89//89 91//91 125//125
f  129//129 89//89 125//125
f  127//127 89//89 129//129
f  130//130 131//131 90//90
f  128//128 132//132 90//90
f  90//90 131//131 92//92
f  90//90 133//133 130//130
f  90//90 132//132 133//133
f  91//91 94//94 125//125
f  96//96 92//92 134//134
f  135//135 134//134 92//92
f  135//135 92//92 131//131
f  125//125 136//136 93//93
f  136//136 94//94 93//93
f  136//136 137//137 94//94
f  137//137 138//138 94//94
f  94//94 138//138 125//125
f  95//95 96//96 139//139
f  139//139 109//109 95//95
f  139//139 96//96 140//140
f  96//96 134//134 140//140
f  141//141 142//142 97//97
f  97//97 142//142 143//143
f  97//97 143//143 144//144
f  144//144 98//98 97//97
f  97//97 145//145 141//141
f  146//146 145//145 97//97
f  147//147 146//146 97//97
f  97//97 110//110 147//147
f  144//144 148//148 98//98
f  98//98 148//148 119//119
f  99//99 101//101 149//149
f  115//115 99//99 149//149
f  101//101 100//100 149//149
f  100//100 102//102 124//124
f  100//100 124//124 149//149
f  102//102 121//121 124//124
f  108//108 150//150 102//102
f  151//151 102//102 150//150
f  121//121 102//102 151//151
f  103//103 152//152 153//153
f  104//104 103//103 154//154
f  103//103 155//155 154//154
f  106//106 152//152 103//103
f  153//153 156//156 103//103
f  156//156 155//155 103//103
f  104//104 154//154 157//157
f  150//150 105//105 104//104
f  150//150 104//104 158//158
f  158//158 104//104 157//157
f  150//150 107//107 105//105
f  159//159 106//106 109//109
f  106//106 159//159 160//160
f  152//152 106//106 160//160
f  107//107 161//161 162//162
f  108//108 107//107 162//162
f  107//107 163//163 161//161
f  150//150 163//163 107//107
f  108//108 162//162 150//150
f  164//164 109//109 139//139
f  164//164 159//159 109//109
f  110//110 165//165 147//147
f  123//123 165//165 110//110
f  113//113 112//112 111//111
f  116//116 113//113 111//111
f  120//120 116//116 111//111
f  111//111 114//114 115//115
f  111//111 115//115 149//149
f  111//111 149//149 124//124
f  118//118 117//117 126//126
f  127//127 126//126 117//117
f  166//166 127//127 117//117
f  166//166 117//117 167//167
f  117//117 148//148 167//167
f  148//148 117//117 119//119
f  151//151 122//122 121//121
f  122//122 151//151 157//157
f  122//122 157//157 168//168
f  169//169 122//122 168//168
f  169//169 165//165 122//122
f  123//123 122//122 165//165
f  125//125 138//138 136//136
f  125//125 126//126 129//129
f  127//127 129//129 126//126
f  127//127 170//170 128//128
f  170//170 127//127 166//166
f  128//128 170//170 171//171
f  132//132 128//128 171//171
f  135//135 131//131 130//130
f  130//130 172//172 173//173
f  130//130 173//173 174//174
f  130//130 174//174 135//135
f  172//172 130//130 175//175
f  133//133 175//175 130//130
f  132//132 171//171 166//166
f  132//132 166//166 167//167
f  148//148 133//133 132//132
f  148//148 132//132 167//167
f  144//144 133//133 148//148
f  175//175 133//133 143//143
f  143//143 133//133 144//144
f  135//135 176//176 134//134
f  134//134 176//176 140//140
f  135//135 174//174 176//176
f  136//136 138//138 137//137
f  139//139 140//140 177//177
f  139//139 177//177 178//178
f  179//179 164//164 139//139
f  178//178 179//179 139//139
f  140//140 176//176 177//177
f  180//180 142//142 141//141
f  141//141 181//181 182//182
f  141//141 182//182 180//180
f  141//141 145//145 183//183
f  184//184 181//181 141//141
f  183//183 184//184 141//141
f  180//180 143//143 142//142
f  180//180 175//175 143//143
f  145//145 146//146 183//183
f  146//146 185//185 183//183
f  146//146 156//156 185//185
f  147//147 156//156 146//146
f  165//165 156//156 147//147
f  162//162 163//163 150//150
f  158//158 151//151 150//150
f  151//151 158//158 157//157
f  153//153 152//152 160//160
f  186//186 187//187 153//153
f  188//188 186//186 153//153
f  160//160 188//188 153//153
f  185//185 153//153 187//187
f  153//153 185//185 156//156
f  154//154 189//189 157//157
f  190//190 189//189 154//154
f  190//190 154//154 155//155
f  168//168 190//190 155//155
f  169//169 168//168 155//155
f  155//155 156//156 165//165
f  169//169 155//155 165//165
f  168//168 157//157 189//189
f  159//159 191//191 160//160
f  164//164 191//191 159//159
f  191//191 188//188 160//160
f  161//161 163//163 162//162
f  179//179 191//191 164//164
f  170//170 166//166 171//171
f  190//190 168//168 189//189
f  182//182 172//172 175//175
f  192//192 173//173 172//172
f  192//192 172//172 182//182
f  193//193 194//194 173//173
f  193//193 173//173 192//192
f  194//194 174//174 173//173
f  194//194 176//176 174//174
f  182//182 175//175 180//180
f  177//177 176//176 194//194
f  177//177 194//194 193//193
f  177//177 193//193 195//195
f  178//178 177//177 195//195
f  195//195 179//179 178//178
f  196//196 191//191 179//179
f  197//197 196//196 179//179
f  195//195 197//197 179//179
f  181//181 198//198 192//192
f  181//181 192//192 182//182
f  199//199 198//198 181//181
f  184//184 199//199 181//181
f  183//183 185//185 184//184
f  185//185 187//187 184//184
f  184//184 187//187 199//199
f  187//187 186//186 199//199
f  186//186 196//196 197//197
f  199//199 186//186 197//197
f  186//186 188//188 196//196
f  188//188 191//191 196//196
f  198//198 200//200 192//192
f  201//201 193//193 192//192
f  201//201 192//192 200//200
f  202//202 195//195 193//193
f  202//202 193//193 201//201
f  195//195 202//202 203//203
f  203//203 204//204 195//195
f  197//197 195//195 204//204
f  199//199 197//197 205//205
f  205//205 197//197 204//204
f  198//198 206//206 200//200
f  207//207 206//206 198//198
f  208//208 209//209 198//198
f  199//199 208//208 198//198
f  198//198 209//209 207//207
f  208//208 199//199 205//205
f  202//202 201//201 200//200
f  202//202 200//200 210//210
f  206//206 210//210 200//200
f  203//203 202//202 210//210
f  203//203 210//210 211//211
f  212//212 204//204 203//203
f  211//211 212//212 203//203
f  208//208 205//205 204//204
f  212//212 208//208 204//204
f  211//211 210//210 206//206
f  211//211 206//206 207//207
f  207//207 209//209 211//211
f  208//208 212//212 209//209
f  209//209 212//212 211//211
