# 
# Wavefront OBJ file
# Converted by the DEEP Exploration 2.00.1211
# Right Hemisphere, LTD
# http://www.righthemisphere.com/
# 
mtllib thoracic3.mtl
# object Object #0
g Object__0
v -0.053274 0.294582 0.000658
v -0.053828 0.295007 0.007916
v -0.06481 0.29777 0.000638
v -0.05199 0.298062 0.009369
v -0.052283 0.295685 0.000659
v -0.053828 0.295007 -0.006645
v -0.05199 0.298062 -0.008098
v -0.057202 0.296439 0.015469
v -0.062741 0.298182 0.019143
v -0.075276 0.29993 0.005013
v -0.075334 0.3002 0.000638
v -0.075537 0.300227 0.013521
v -0.071642 0.300347 0.019242
v -0.057202 0.296439 -0.014198
v -0.062741 0.298182 -0.017871
v -0.075276 0.29993 -0.003742
v -0.075537 0.300227 -0.01225
v -0.071642 0.300347 -0.017971
v -0.051984 0.299697 0.00066
v -0.053 0.30041 0.009985
v -0.05618 0.30001 0.016394
v -0.053 0.30041 -0.008714
v -0.05618 0.30001 -0.015123
v -0.062728 0.302561 0.019776
v -0.077845 0.303695 0.005141
v -0.077839 0.30358 0.000638
v -0.077845 0.303695 -0.00387
v -0.071716 0.305117 0.019912
v -0.077879 0.301437 0.015107
v -0.078366 0.305127 0.009198
v -0.062728 0.302561 -0.018505
v -0.077879 0.301437 -0.013836
v -0.071716 0.305117 -0.018641
v -0.078366 0.305127 -0.007927
v -0.049992 0.307709 0.000662
v -0.051359 0.307179 0.009659
v -0.05721 0.30286 0.016001
v -0.051359 0.307179 -0.008388
v -0.05721 0.30286 -0.01473
v -0.062035 0.306104 0.018048
v -0.076319 0.309663 0.006412
v -0.075902 0.309557 0.00064
v -0.076319 0.309663 -0.005141
v -0.070945 0.308164 0.018879
v -0.075598 0.308239 0.017886
v -0.077754 0.310621 0.009471
v -0.062035 0.306104 -0.016777
v -0.075598 0.308239 -0.016615
v -0.070945 0.308164 -0.017608
v -0.077754 0.310621 -0.0082
v -0.048825 0.310759 0.000663
v -0.04941 0.310601 0.010617
v -0.056107 0.309186 0.016591
v -0.04941 0.310601 -0.009346
v -0.056107 0.309186 -0.01532
v -0.06015 0.310618 0.018128
v -0.073042 0.316432 0.006605
v -0.074599 0.317318 0.009873
v -0.07242 0.316321 0.000642
v -0.073042 0.316432 -0.005334
v -0.074599 0.317318 -0.008602
v -0.068455 0.313666 0.019011
v -0.072213 0.315757 0.019368
v -0.080724 0.309538 0.016176
v -0.077857 0.311059 0.019689
v -0.07525 0.315578 0.023418
v -0.08435 0.314297 0.004026
v -0.06015 0.310618 -0.016857
v -0.072213 0.315757 -0.018097
v -0.068455 0.313666 -0.01774
v -0.077857 0.311059 -0.018418
v -0.080724 0.309538 -0.014905
v -0.07525 0.315578 -0.022147
v -0.08435 0.314297 -0.002756
v -0.048129 0.314367 0.000664
v -0.048864 0.3144 0.0108
v -0.053798 0.311696 0.017525
v -0.048864 0.3144 -0.009529
v -0.053798 0.311696 -0.016254
v -0.058976 0.312939 0.019977
v -0.072141 0.322404 0.008245
v -0.073086 0.321225 0.010554
v -0.070939 0.321213 0.000644
v -0.072141 0.322404 -0.006974
v -0.073086 0.321225 -0.009283
v -0.065835 0.316517 0.020909
v -0.069846 0.317737 0.018738
v -0.074828 0.32045 0.01878
v -0.086336 0.318064 0.021666
v -0.085602 0.314222 0.016265
v -0.084323 0.308583 0.023131
v -0.082858 0.307913 0.010214
v -0.082122 0.315815 0.022272
v -0.0848 0.310589 0.020305
v -0.085853 0.31005 0.000639
v -0.090811 0.301176 0.005287
v -0.091247 0.317427 0.00064
v -0.085125 0.319671 0.007655
v -0.058976 0.312939 -0.018706
v -0.069846 0.317737 -0.017467
v -0.065835 0.316517 -0.019638
v -0.074828 0.32045 -0.01751
v -0.085602 0.314222 -0.014994
v -0.086336 0.318064 -0.020395
v -0.084323 0.308583 -0.02186
v -0.082858 0.307913 -0.008943
v -0.0848 0.310589 -0.019034
v -0.082122 0.315815 -0.021
v -0.090811 0.301176 -0.004016
v -0.085125 0.319671 -0.006384
v -0.060728 0.318695 0.000644
v -0.053055 0.315611 0.017758
v -0.05878 0.317669 0.020911
v -0.053055 0.315611 -0.016487
v -0.05878 0.317669 -0.01964
v -0.06631 0.319788 0.021035
v -0.082535 0.326711 0.015187
v -0.074251 0.321829 0.013463
v -0.082819 0.324497 0.009788
v -0.070663 0.321494 0.016204
v -0.074251 0.321829 -0.012192
v -0.082535 0.326711 -0.013916
v -0.082819 0.324497 -0.008517
v -0.070663 0.321494 -0.014933
v -0.083058 0.320758 0.019948
v -0.081695 0.323003 0.017364
v -0.093511 0.329308 0.034466
v -0.090433 0.320565 0.019817
v -0.085198 0.322725 0.019983
v -0.096829 0.308702 0.012133
v -0.092924 0.308873 0.01471
v -0.09576 0.321658 0.02367
v -0.089476 0.31802 0.012166
v -0.083661 0.306399 0.011547
v -0.097406 0.305449 0.016138
v -0.085252 0.317025 0.024566
v -0.086974 0.315673 0.022459
v -0.086586 0.321565 0.022767
v -0.092124 0.305907 0.000638
v -0.090763 0.300296 0.006731
v -0.102282 0.309999 0.000639
v -0.092758 0.314867 0.005144
v -0.089732 0.313072 0.008185
v -0.088942 0.316499 0.010097
v -0.092758 0.314867 -0.003873
v -0.089732 0.313072 -0.006914
v -0.088942 0.316499 -0.008826
v -0.085932 0.32035 0.010959
v -0.06631 0.319788 -0.019764
v -0.083058 0.320758 -0.018677
v -0.081695 0.323003 -0.016093
v -0.092924 0.308873 -0.013439
v -0.096829 0.308702 -0.010862
v -0.090433 0.320565 -0.018546
v -0.09576 0.321658 -0.022399
v -0.089476 0.31802 -0.010895
v -0.093511 0.329308 -0.033108
v -0.085198 0.322725 -0.018712
v -0.083661 0.306399 -0.010276
v -0.097406 0.305449 -0.014867
v -0.086974 0.315673 -0.021188
v -0.085252 0.317025 -0.023295
v -0.086586 0.321565 -0.021496
v -0.090763 0.300296 -0.00546
v -0.085932 0.32035 -0.009688
v -0.098685 0.328187 0.028999
v -0.088866 0.322755 0.013298
v -0.098685 0.328187 -0.027641
v -0.088866 0.322755 -0.012027
v -0.097439 0.32657 0.038116
v -0.099322 0.325199 0.029769
v -0.099317 0.307064 0.009968
v -0.100268 0.303548 0.009466
v -0.098521 0.300226 0.015917
v -0.096344 0.310303 0.008684
v -0.092128 0.298804 0.012749
v -0.092194 0.303359 0.005483
v -0.095202 0.302436 0.000637
v -0.092194 0.303359 -0.004212
v -0.100552 0.311587 0.004443
v -0.110198 0.301981 0.000621
v -0.101081 0.307977 0.004339
v -0.100552 0.311587 -0.003172
v -0.101081 0.307977 -0.003069
v -0.096344 0.310303 -0.007413
v -0.100268 0.303548 -0.008195
v -0.099317 0.307064 -0.008698
v -0.098521 0.300226 -0.014646
v -0.097439 0.32657 -0.036758
v -0.099322 0.325199 -0.028412
v -0.092128 0.298804 -0.011478
v -0.101995 0.304641 0.0045
v -0.101571 0.302736 0.005166
v -0.097586 0.300438 0.007583
v -0.102312 0.298823 0.000635
v -0.097587 0.300438 -0.006312
v -0.101571 0.302736 -0.003895
v -0.116431 0.295079 0.000659
v -0.101995 0.304641 -0.003229
v -0.111479 0.292994 0.003605
v -0.105128 0.297554 0.004855
v -0.113375 0.286963 0.002959
v -0.113962 0.286863 0.000676
v -0.113375 0.286963 -0.001602
v -0.105128 0.297554 -0.003584
v -0.1189 0.292724 0.003637
v -0.119778 0.29182 0.000665
v -0.111479 0.292994 -0.002247
v -0.1189 0.292724 -0.00228
v -0.118138 0.289509 0.004124
v -0.116821 0.287763 0.000659
v -0.118138 0.289509 -0.002766
# 212 verticies
vn 0.514174 -0.857686 0.000329
vn 0.294122 -0.937719 0.184866
vn -0.225785 -0.974177 1.5e-005
vn 0.92592 -0.258506 0.275403
vn 0.920551 -0.390621 0.000214
vn 0.294222 -0.937734 -0.184632
vn 0.926017 -0.25845 -0.275128
vn 0.333812 -0.811726 0.47924
vn 0.086198 -0.66818 0.738989
vn -0.55721 -0.830225 -0.015628
vn -0.656355 -0.754452 -1.3e-005
vn -0.593447 -0.787796 0.164916
vn -0.323687 -0.62069 0.714122
vn 0.333807 -0.811726 -0.479243
vn 0.086191 -0.668186 -0.738985
vn -0.557208 -0.830227 0.015603
vn -0.59344 -0.787802 -0.164916
vn -0.323677 -0.620701 -0.714117
vn 0.99975 0.022368 0.000161
vn 0.944506 0.064815 0.322035
vn 0.695694 0.014789 0.718186
vn 0.944604 0.064834 -0.321745
vn 0.695692 0.014792 -0.718188
vn 0.276449 0.104148 0.955369
vn -0.953116 -0.30057 -0.035045
vn -0.999899 -0.014202 -1.9e-005
vn -0.953116 -0.30057 0.035041
vn -0.26368 0.010908 0.964549
vn -0.812285 -0.264492 0.519843
vn -0.97013 -0.146147 -0.19362
vn 0.276449 0.104133 -0.95537
vn -0.812284 -0.264489 -0.519847
vn -0.263676 0.010895 -0.96455
vn -0.97013 -0.146147 0.19362
vn 0.960983 -0.276607 0.000347
vn 0.866053 -0.342834 0.363892
vn 0.666691 0.080478 0.740977
vn 0.866157 -0.342853 -0.363626
vn 0.666693 0.080474 -0.740975
vn 0.261645 0.111795 0.958668
vn -0.909426 0.321436 -0.263861
vn -0.915579 0.402139 -7.4e-005
vn -0.909437 0.321433 0.26383
vn -0.143661 0.056253 0.988027
vn -0.219619 -0.500076 0.83767
vn -0.843608 -0.308914 -0.4392
vn 0.261647 0.111789 -0.958668
vn -0.219626 -0.500069 -0.837673
vn -0.143665 0.056259 -0.988026
vn -0.843608 -0.308913 0.439201
vn 0.935367 -0.353678 0.000203
vn 0.864914 -0.391152 0.314521
vn 0.489463 -0.384747 0.782558
vn 0.864968 -0.391155 -0.31437
vn 0.489467 -0.384744 -0.782556
vn 0.120284 -0.345139 0.930812
vn -0.899397 0.352763 -0.258155
vn -0.365873 0.261961 -0.893036
vn -0.950469 0.310819 -0.000148
vn -0.899428 0.35275 0.258062
vn -0.365873 0.261961 0.893036
vn -0.094651 -0.287705 0.953031
vn 0.229348 0.028551 0.972926
vn -0.380093 -0.908764 0.172273
vn -0.442984 -0.503726 0.741637
vn 0.078089 -0.077982 0.993892
vn 0.678156 -0.091533 -0.729195
vn 0.120289 -0.345123 -0.930817
vn 0.229338 0.028541 -0.972928
vn -0.094653 -0.287704 -0.953031
vn -0.442984 -0.503726 -0.741637
vn -0.380091 -0.908764 -0.172273
vn 0.078089 -0.077982 -0.993892
vn 0.678333 -0.0915149 0.729034
vn 0.966227 0.257691 0.000169
vn 0.870765 0.375256 0.317728
vn 0.521972 -0.385065 0.761098
vn 0.870807 0.375268 -0.317599
vn 0.521968 -0.385065 -0.761101
vn 0.069773 -0.371668 0.92574
vn -0.272232 0.895485 -0.352132
vn -0.295987 0.072819 -0.952412
vn -0.489536 0.871983 -0.000227
vn -0.272269 0.895528 0.351994
vn -0.295987 0.072819 0.952412
vn -0.202884 -0.105152 0.973541
vn -0.217109 0.345362 0.913011
vn 0.205967 0.683553 0.700238
vn -0.329379 -0.504131 0.798349
vn -0.471515 -0.458465 0.753315
vn 0.442642 -0.310043 0.841393
vn 0.716853 -0.529814 0.453232
vn 0.216333 0.191503 0.957354
vn -0.629022 -0.378229 0.679172
vn 0.947268 -0.320442 -0.000214
vn 0.572185 -0.681132 -0.456798
vn -0.258096 0.966119 5.1e-005
vn -0.288456 0.605673 -0.741589
vn 0.069778 -0.371667 -0.92574
vn -0.217117 0.345369 -0.913006
vn -0.20288 -0.105151 -0.973541
vn 0.205963 0.683553 -0.70024
vn -0.471512 -0.458468 -0.753315
vn -0.329523 -0.503372 -0.798768
vn 0.442664 -0.310042 -0.841381
vn 0.716852 -0.529816 -0.45323
vn -0.62903 -0.378229 -0.679165
vn 0.21634 0.191502 -0.957353
vn 0.572166 -0.681182 0.456747
vn -0.288366 0.605692 0.741608
vn 0.309388 0.950936 -3e-006
vn 0.670379 0.541864 0.506927
vn 0.408367 0.40197 0.819546
vn 0.670376 0.541873 -0.506922
vn 0.408364 0.401966 -0.81955
vn -0.111093 0.46827 0.876574
vn 0.102541 0.989313 -0.103655
vn 0.254968 0.900555 0.352126
vn -0.456341 0.71662 -0.527455
vn 0.049929 0.92852 0.367909
vn 0.254967 0.900554 -0.352127
vn 0.102648 0.989282 0.103848
vn -0.456342 0.716622 0.527451
vn 0.049945 0.928523 -0.367901
vn 0.486144 0.486969 0.725621
vn 0.537957 0.495196 0.68219
vn 0.620795 0.128174 0.773424
vn 0.036199 -0.790723 0.611103
vn 0.610649 0.02931 0.791359
vn -0.723086 0.481982 0.494814
vn -0.07403 0.160926 0.984186
vn -0.890032 -0.372987 -0.262151
vn -0.815602 0.496876 -0.296492
vn 0.816507 -0.4861 0.311487
vn -0.003138 0.24781 0.968804
vn 0.110942 -0.033973 0.993246
vn -0.938799 -0.206304 0.275855
vn -0.89339 0.401836 -0.200955
vn -0.239422 -0.970916 -0.000123
vn -0.322476 -0.863576 -0.387615
vn -0.707018 0.707195 0.000188
vn -0.332664 0.877814 0.344641
vn -0.59476 0.786932 0.164312
vn -0.789803 0.575537 -0.212058
vn -0.332485 0.877952 -0.344462
vn -0.594626 0.787068 -0.164146
vn -0.789791 0.575529 0.212123
vn -0.69947 0.497458 -0.513105
vn -0.111077 0.468289 -0.876566
vn 0.486152 0.486969 -0.725615
vn 0.537552 0.495528 -0.682268
vn -0.074027 0.160912 -0.984189
vn -0.723088 0.481978 -0.494814
vn 0.037519 -0.788528 -0.613853
vn -0.889568 -0.374001 0.262283
vn -0.815606 0.496876 0.296482
vn 0.619272 0.130446 -0.774265
vn 0.610083 0.030659 -0.791744
vn 0.816508 -0.486097 -0.311488
vn -0.003139 0.247811 -0.968803
vn -0.938805 -0.206303 -0.275833
vn 0.110946 -0.033979 -0.993245
vn -0.893385 0.401838 0.200971
vn -0.322373 -0.86363 0.387581
vn -0.699471 0.497456 0.513107
vn -0.72128 0.633885 -0.279187
vn -0.622652 0.324163 -0.712196
vn -0.721401 0.632849 0.281216
vn -0.622574 0.322037 0.713228
vn -0.625312 -0.212117 0.750993
vn -0.770012 -0.605915 0.19987
vn -0.808829 0.415166 0.416453
vn -0.910165 -0.154502 0.384354
vn -0.827197 -0.392149 0.402447
vn -0.672136 0.6984 0.245908
vn 0.168798 -0.951683 0.256529
vn -0.026163 -0.946135 -0.322715
vn 0.607769 -0.794114 -8e-005
vn -0.02621 -0.946177 0.322588
vn -0.61952 0.605088 0.500064
vn -0.79009 0.612987 -0.002193
vn -0.755289 0.347103 0.555931
vn -0.619571 0.605094 -0.499993
vn -0.754973 0.347386 -0.556182
vn -0.672136 0.6984 -0.245907
vn -0.910168 -0.154497 -0.38435
vn -0.808832 0.415167 -0.416447
vn -0.827198 -0.392144 -0.40245
vn -0.625465 -0.210186 -0.751409
vn -0.769809 -0.605402 -0.202195
vn 0.168795 -0.951681 -0.256536
vn -0.658575 0.224095 0.718373
vn -0.133317 -0.915956 0.378485
vn -0.318225 -0.910733 -0.263244
vn 0.544457 -0.838789 -0.000129
vn -0.318231 -0.910732 0.26324
vn -0.129245 -0.914078 -0.384391
vn -0.591438 0.806345 -0.002903
vn -0.659192 0.222198 -0.718397
vn -0.135212 0.213882 0.967457
vn -0.073164 -0.044105 0.996344
vn 0.450057 -0.752579 0.480701
vn -0.00435 -0.99999 -0.001038
vn 0.447066 -0.751289 -0.485486
vn -0.081411 -0.042892 -0.995757
vn -0.778582 0.277745 0.562732
vn -0.992858 0.119299 -0.000997
vn -0.140744 0.213803 -0.966685
vn -0.777794 0.276764 -0.564304
vn -0.445347 -0.604643 0.660358
vn -0.757286 -0.653082 -0.001159
vn -0.443909 -0.604546 -0.661415
# 212 normals
usemtl Material__1
f  1//1 2//2 3//3
f  4//4 2//2 1//1
f  4//4 1//1 5//5
f  3//3 6//6 1//1
f  1//1 6//6 7//7
f  5//5 1//1 7//7
f  2//2 8//8 3//3
f  8//8 2//2 4//4
f  8//8 9//9 3//3
f  10//10 11//11 3//3
f  3//3 12//12 10//10
f  13//13 12//12 3//3
f  3//3 9//9 13//13
f  3//3 14//14 6//6
f  3//3 15//15 14//14
f  3//3 11//11 16//16
f  16//16 17//17 3//3
f  3//3 17//17 18//18
f  18//18 15//15 3//3
f  19//19 20//20 4//4
f  19//19 4//4 5//5
f  21//21 4//4 20//20
f  8//8 4//4 21//21
f  5//5 7//7 19//19
f  7//7 6//6 14//14
f  7//7 22//22 19//19
f  22//22 7//7 23//23
f  23//23 7//7 14//14
f  9//9 8//8 21//21
f  9//9 21//21 24//24
f  13//13 9//9 24//24
f  11//11 10//10 25//25
f  12//12 25//25 10//10
f  11//11 25//25 26//26
f  27//27 16//16 11//11
f  26//26 27//27 11//11
f  28//28 29//29 12//12
f  28//28 12//12 13//13
f  12//12 29//29 30//30
f  12//12 30//30 25//25
f  13//13 24//24 28//28
f  23//23 14//14 15//15
f  31//31 23//23 15//15
f  31//31 15//15 18//18
f  16//16 27//27 17//17
f  17//17 32//32 33//33
f  18//18 17//17 33//33
f  34//34 32//32 17//17
f  27//27 34//34 17//17
f  33//33 31//31 18//18
f  35//35 20//20 19//19
f  19//19 22//22 35//35
f  35//35 36//36 20//20
f  37//37 20//20 36//36
f  21//21 20//20 37//37
f  24//24 21//21 37//37
f  22//22 38//38 35//35
f  38//38 22//22 39//39
f  39//39 22//22 23//23
f  39//39 23//23 31//31
f  24//24 37//37 40//40
f  28//28 24//24 40//40
f  41//41 26//26 25//25
f  41//41 25//25 30//30
f  26//26 41//41 42//42
f  42//42 43//43 26//26
f  27//27 26//26 43//43
f  34//34 27//27 43//43
f  28//28 40//40 44//44
f  44//44 29//29 28//28
f  44//44 45//45 29//29
f  30//30 29//29 46//46
f  29//29 45//45 46//46
f  41//41 30//30 46//46
f  47//47 39//39 31//31
f  47//47 31//31 33//33
f  32//32 48//48 49//49
f  33//33 32//32 49//49
f  50//50 32//32 34//34
f  50//50 48//48 32//32
f  49//49 47//47 33//33
f  50//50 34//34 43//43
f  51//51 36//36 35//35
f  35//35 38//38 51//51
f  51//51 52//52 36//36
f  53//53 36//36 52//52
f  37//37 36//36 53//53
f  40//40 37//37 53//53
f  38//38 54//54 51//51
f  54//54 38//38 55//55
f  55//55 38//38 39//39
f  55//55 39//39 47//47
f  40//40 53//53 56//56
f  44//44 40//40 56//56
f  42//42 41//41 57//57
f  41//41 58//58 57//57
f  41//41 46//46 58//58
f  42//42 57//57 59//59
f  60//60 43//43 42//42
f  59//59 60//60 42//42
f  60//60 61//61 43//43
f  61//61 50//50 43//43
f  44//44 56//56 62//62
f  62//62 45//45 44//44
f  62//62 63//63 45//45
f  64//64 45//45 65//65
f  66//66 65//65 45//45
f  66//66 45//45 63//63
f  45//45 64//64 46//46
f  58//58 46//46 67//67
f  67//67 46//46 64//64
f  68//68 55//55 47//47
f  68//68 47//47 49//49
f  48//48 69//69 70//70
f  49//49 48//48 70//70
f  71//71 48//48 72//72
f  48//48 71//71 73//73
f  69//69 48//48 73//73
f  50//50 72//72 48//48
f  70//70 68//68 49//49
f  74//74 50//50 61//61
f  72//72 50//50 74//74
f  75//75 52//52 51//51
f  51//51 54//54 75//75
f  75//75 76//76 52//52
f  77//77 52//52 76//76
f  53//53 52//52 77//77
f  56//56 53//53 77//77
f  54//54 78//78 75//75
f  78//78 54//54 79//79
f  79//79 54//54 55//55
f  79//79 55//55 68//68
f  56//56 77//77 80//80
f  62//62 56//56 80//80
f  59//59 57//57 81//81
f  57//57 58//58 82//82
f  57//57 82//82 81//81
f  67//67 82//82 58//58
f  59//59 81//81 83//83
f  84//84 60//60 59//59
f  83//83 84//84 59//59
f  85//85 61//61 60//60
f  84//84 85//85 60//60
f  61//61 85//85 74//74
f  62//62 80//80 86//86
f  86//86 63//63 62//62
f  86//86 87//87 63//63
f  88//88 66//66 63//63
f  88//88 63//63 87//87
f  89//89 90//90 64//64
f  89//89 64//64 91//91
f  64//64 65//65 66//66
f  64//64 66//66 91//91
f  64//64 90//90 92//92
f  64//64 92//92 67//67
f  66//66 93//93 94//94
f  66//66 94//94 91//91
f  88//88 93//93 66//66
f  95//95 67//67 96//96
f  67//67 95//95 97//97
f  67//67 97//97 98//98
f  92//92 96//96 67//67
f  67//67 98//98 82//82
f  99//99 79//79 68//68
f  99//99 68//68 70//70
f  69//69 100//100 101//101
f  70//70 69//69 101//101
f  69//69 73//73 102//102
f  100//100 69//69 102//102
f  101//101 99//99 70//70
f  73//73 71//71 72//72
f  72//72 103//103 104//104
f  105//105 72//72 104//104
f  105//105 73//73 72//72
f  106//106 103//103 72//72
f  74//74 106//106 72//72
f  107//107 108//108 73//73
f  105//105 107//107 73//73
f  73//73 108//108 102//102
f  109//109 74//74 95//95
f  97//97 95//95 74//74
f  110//110 97//97 74//74
f  74//74 109//109 106//106
f  85//85 110//110 74//74
f  76//76 75//75 111//111
f  111//111 75//75 78//78
f  77//77 76//76 112//112
f  112//112 76//76 111//111
f  113//113 80//80 77//77
f  113//113 77//77 112//112
f  114//114 78//78 79//79
f  111//111 78//78 114//114
f  79//79 99//99 115//115
f  114//114 79//79 115//115
f  116//116 86//86 80//80
f  116//116 80//80 113//113
f  117//117 118//118 81//81
f  81//81 119//119 117//117
f  81//81 98//98 119//119
f  98//98 81//81 82//82
f  83//83 81//81 111//111
f  81//81 120//120 111//111
f  118//118 120//120 81//81
f  111//111 84//84 83//83
f  84//84 121//121 122//122
f  122//122 123//123 84//84
f  123//123 110//110 84//84
f  85//85 84//84 110//110
f  111//111 124//124 84//84
f  84//84 124//124 121//121
f  116//116 87//87 86//86
f  120//120 88//88 87//87
f  116//116 120//120 87//87
f  120//120 118//118 88//88
f  88//88 125//125 93//93
f  125//125 88//88 126//126
f  126//126 88//88 118//118
f  127//127 128//128 89//89
f  128//128 90//90 89//89
f  89//89 91//91 125//125
f  129//129 89//89 125//125
f  127//127 89//89 129//129
f  130//130 131//131 90//90
f  128//128 132//132 90//90
f  90//90 131//131 92//92
f  90//90 133//133 130//130
f  90//90 132//132 133//133
f  91//91 94//94 125//125
f  96//96 92//92 134//134
f  135//135 134//134 92//92
f  135//135 92//92 131//131
f  125//125 136//136 93//93
f  136//136 94//94 93//93
f  136//136 137//137 94//94
f  137//137 138//138 94//94
f  94//94 138//138 125//125
f  95//95 96//96 139//139
f  139//139 109//109 95//95
f  139//139 96//96 140//140
f  96//96 134//134 140//140
f  141//141 142//142 97//97
f  97//97 142//142 143//143
f  97//97 143//143 144//144
f  144//144 98//98 97//97
f  97//97 145//145 141//141
f  146//146 145//145 97//97
f  147//147 146//146 97//97
f  97//97 110//110 147//147
f  144//144 148//148 98//98
f  98//98 148//148 119//119
f  99//99 101//101 149//149
f  115//115 99//99 149//149
f  101//101 100//100 149//149
f  100//100 102//102 124//124
f  100//100 124//124 149//149
f  102//102 121//121 124//124
f  108//108 150//150 102//102
f  151//151 102//102 150//150
f  121//121 102//102 151//151
f  103//103 152//152 153//153
f  104//104 103//103 154//154
f  103//103 155//155 154//154
f  106//106 152//152 103//103
f  153//153 156//156 103//103
f  156//156 155//155 103//103
f  104//104 154//154 157//157
f  150//150 105//105 104//104
f  150//150 104//104 158//158
f  158//158 104//104 157//157
f  150//150 107//107 105//105
f  159//159 106//106 109//109
f  106//106 159//159 160//160
f  152//152 106//106 160//160
f  107//107 161//161 162//162
f  108//108 107//107 162//162
f  107//107 163//163 161//161
f  150//150 163//163 107//107
f  108//108 162//162 150//150
f  164//164 109//109 139//139
f  164//164 159//159 109//109
f  110//110 165//165 147//147
f  123//123 165//165 110//110
f  113//113 112//112 111//111
f  116//116 113//113 111//111
f  120//120 116//116 111//111
f  111//111 114//114 115//115
f  111//111 115//115 149//149
f  111//111 149//149 124//124
f  118//118 117//117 126//126
f  127//127 126//126 117//117
f  166//166 127//127 117//117
f  166//166 117//117 167//167
f  117//117 148//148 167//167
f  148//148 117//117 119//119
f  151//151 122//122 121//121
f  122//122 151//151 157//157
f  122//122 157//157 168//168
f  169//169 122//122 168//168
f  169//169 165//165 122//122
f  123//123 122//122 165//165
f  125//125 138//138 136//136
f  125//125 126//126 129//129
f  127//127 129//129 126//126
f  127//127 170//170 128//128
f  170//170 127//127 166//166
f  128//128 170//170 171//171
f  132//132 128//128 171//171
f  135//135 131//131 130//130
f  130//130 172//172 173//173
f  130//130 173//173 174//174
f  130//130 174//174 135//135
f  172//172 130//130 175//175
f  133//133 175//175 130//130
f  132//132 171//171 166//166
f  132//132 166//166 167//167
f  148//148 133//133 132//132
f  148//148 132//132 167//167
f  144//144 133//133 148//148
f  175//175 133//133 143//143
f  143//143 133//133 144//144
f  135//135 176//176 134//134
f  134//134 176//176 140//140
f  135//135 174//174 176//176
f  136//136 138//138 137//137
f  139//139 140//140 177//177
f  139//139 177//177 178//178
f  179//179 164//164 139//139
f  178//178 179//179 139//139
f  140//140 176//176 177//177
f  180//180 142//142 141//141
f  141//141 181//181 182//182
f  141//141 182//182 180//180
f  141//141 145//145 183//183
f  184//184 181//181 141//141
f  183//183 184//184 141//141
f  180//180 143//143 142//142
f  180//180 175//175 143//143
f  145//145 146//146 183//183
f  146//146 185//185 183//183
f  146//146 156//156 185//185
f  147//147 156//156 146//146
f  165//165 156//156 147//147
f  162//162 163//163 150//150
f  158//158 151//151 150//150
f  151//151 158//158 157//157
f  153//153 152//152 160//160
f  186//186 187//187 153//153
f  188//188 186//186 153//153
f  160//160 188//188 153//153
f  185//185 153//153 187//187
f  153//153 185//185 156//156
f  154//154 189//189 157//157
f  190//190 189//189 154//154
f  190//190 154//154 155//155
f  168//168 190//190 155//155
f  169//169 168//168 155//155
f  155//155 156//156 165//165
f  169//169 155//155 165//165
f  168//168 157//157 189//189
f  159//159 191//191 160//160
f  164//164 191//191 159//159
f  191//191 188//188 160//160
f  161//161 163//163 162//162
f  179//179 191//191 164//164
f  170//170 166//166 171//171
f  190//190 168//168 189//189
f  182//182 172//172 175//175
f  192//192 173//173 172//172
f  192//192 172//172 182//182
f  193//193 194//194 173//173
f  193//193 173//173 192//192
f  194//194 174//174 173//173
f  194//194 176//176 174//174
f  182//182 175//175 180//180
f  177//177 176//176 194//194
f  177//177 194//194 193//193
f  177//177 193//193 195//195
f  178//178 177//177 195//195
f  195//195 179//179 178//178
f  196//196 191//191 179//179
f  197//197 196//196 179//179
f  195//195 197//197 179//179
f  181//181 198//198 192//192
f  181//181 192//192 182//182
f  199//199 198//198 181//181
f  184//184 199//199 181//181
f  183//183 185//185 184//184
f  185//185 187//187 184//184
f  184//184 187//187 199//199
f  187//187 186//186 199//199
f  186//186 196//196 197//197
f  199//199 186//186 197//197
f  186//186 188//188 196//196
f  188//188 191//191 196//196
f  198//198 200//200 192//192
f  201//201 193//193 192//192
f  201//201 192//192 200//200
f  202//202 195//195 193//193
f  202//202 193//193 201//201
f  195//195 202//202 203//203
f  203//203 204//204 195//195
f  197//197 195//195 204//204
f  199//199 197//197 205//205
f  205//205 197//197 204//204
f  198//198 206//206 200//200
f  207//207 206//206 198//198
f  208//208 209//209 198//198
f  199//199 208//208 198//198
f  198//198 209//209 207//207
f  208//208 199//199 205//205
f  202//202 201//201 200//200
f  202//202 200//200 210//210
f  206//206 210//210 200//200
f  203//203 202//202 210//210
f  203//203 210//210 211//211
f  212//212 204//204 203//203
f  211//211 212//212 203//203
f  208//208 205//205 204//204
f  212//212 208//208 204//204
f  211//211 210//210 206//206
f  211//211 206//206 207//207
f  207//207 209//209 211//211
f  208//208 212//212 209//209
f  209//209 212//212 211//211
