# 
# Wavefront OBJ file
# Converted by the DEEP Exploration 2.00.1211
# Right Hemisphere, LTD
# http://www.righthemisphere.com/
# 
mtllib thoracic10.mtl
# object Object #0
g Object__0
v -0.043488 0.119036 2.5e-005
v -0.044391 0.119068 0.008244
v -0.05854 0.113359 3e-006
v -0.044366 0.123961 0.00989
v -0.043111 0.121065 2.7e-005
v -0.044391 0.119068 -0.008244
v -0.044366 0.123961 -0.00989
v -0.049127 0.117967 0.016798
v -0.056495 0.115479 0.020958
v -0.071709 0.107388 0.004957
v -0.071953 0.107643 3e-006
v -0.072198 0.107511 0.014592
v -0.067913 0.110766 0.021071
v -0.049127 0.117967 -0.016798
v -0.056495 0.115479 -0.020958
v -0.071709 0.107388 -0.004957
v -0.072198 0.107511 -0.014592
v -0.067913 0.110766 -0.021071
v -0.045449 0.125796 2.7e-005
v -0.047062 0.12578 0.010588
v -0.05036 0.122783 0.017846
v -0.047062 0.12578 -0.010588
v -0.05036 0.122783 -0.017846
v -0.059398 0.120391 0.021676
v -0.074871 0.111172 0.005102
v -0.077013 0.109419 3e-006
v -0.074871 0.111172 -0.005102
v -0.071174 0.116046 0.021829
v -0.075629 0.106988 0.016388
v -0.076254 0.112463 0.009696
v -0.059398 0.120391 -0.021676
v -0.075629 0.106988 -0.016388
v -0.071174 0.116046 -0.021829
v -0.076254 0.112463 -0.009696
v -0.048189 0.135639 3e-005
v -0.049303 0.13405 0.010219
v -0.053413 0.125148 0.0174
v -0.049303 0.13405 -0.010219
v -0.053413 0.125148 -0.0174
v -0.060981 0.124911 0.019719
v -0.076779 0.119186 0.006542
v -0.076282 0.119358 5e-006
v -0.076779 0.119186 -0.006542
v -0.070298 0.121267 0.02066
v -0.075193 0.118046 0.019536
v -0.078837 0.119278 0.010005
v -0.060981 0.124911 -0.019719
v -0.075193 0.118046 -0.019536
v -0.070298 0.121267 -0.02066
v -0.078837 0.119278 -0.010005
v -0.04876 0.14001 3.1e-005
v -0.049277 0.13941 0.011304
v -0.055429 0.133005 0.018069
v -0.049277 0.13941 -0.011304
v -0.055429 0.133005 -0.018069
v -0.060484 0.131792 0.019809
v -0.080884 0.129778 0.00676
v -0.083026 0.1297 0.010461
v -0.08017 0.130091 8e-006
v -0.080884 0.129778 -0.00676
v -0.083026 0.1297 -0.010461
v -0.070928 0.129426 0.020809
v -0.076071 0.129181 0.021214
v -0.081297 0.115909 0.017599
v -0.079201 0.119713 0.021577
v -0.082685 0.127217 0.0258
v -0.089106 0.122723 0.00384
v -0.060484 0.131792 -0.019809
v -0.076071 0.129181 -0.021214
v -0.070928 0.129426 -0.020809
v -0.079201 0.119713 -0.021577
v -0.081297 0.115909 -0.017599
v -0.082685 0.127217 -0.0258
v -0.089106 0.122723 -0.00384
v -0.05015 0.144693 3.2e-005
v -0.050936 0.144208 0.011511
v -0.054494 0.13756 0.019126
v -0.050936 0.144208 -0.011511
v -0.054494 0.13756 -0.019126
v -0.06062 0.135322 0.021903
v -0.083446 0.137352 0.008618
v -0.08374 0.13531 0.011233
v -0.081494 0.136824 9e-006
v -0.083446 0.137352 -0.008618
v -0.08374 0.13531 -0.011233
v -0.069869 0.134598 0.022959
v -0.078317 0.133566 0.0205
v -0.085101 0.133173 0.020548
v -0.093329 0.125808 0.023816
v -0.090388 0.121785 0.0177
v -0.085857 0.116017 0.025475
v -0.08257 0.112504 0.010848
v -0.087603 0.126019 0.024502
v -0.087492 0.118054 0.022274
v -0.088303 0.116706 4e-006
v -0.083913 0.100632 0.005268
v -0.098474 0.123504 5e-006
v -0.092953 0.12852 0.007949
v -0.06062 0.135322 -0.021903
v -0.078317 0.133566 -0.0205
v -0.069869 0.134598 -0.022959
v -0.085101 0.133173 -0.020548
v -0.090388 0.121785 -0.0177
v -0.093329 0.125808 -0.023816
v -0.085857 0.116017 -0.025475
v -0.08257 0.112504 -0.010848
v -0.087492 0.118054 -0.022274
v -0.087603 0.126019 -0.024502
v -0.083913 0.100632 -0.005268
v -0.092953 0.12852 -0.007949
v -0.065822 0.140759 1e-005
v -0.056014 0.142634 0.01939
v -0.063189 0.140952 0.022961
v -0.056014 0.142634 -0.01939
v -0.063189 0.140952 -0.022961
v -0.072282 0.138058 0.023101
v -0.09418 0.138561 0.016478
v -0.085308 0.135184 0.014526
v -0.093232 0.135763 0.010364
v -0.081371 0.137346 0.017631
v -0.085308 0.135184 -0.014526
v -0.09418 0.138561 -0.016478
v -0.093232 0.135763 -0.010364
v -0.081371 0.137346 -0.017631
v -0.091379 0.131201 0.02187
v -0.091201 0.134767 0.018944
v -0.100305 0.136782 0.019845
v -0.098934 0.127531 0.014623
v -0.094751 0.132065 0.02191
v -0.095549 0.111348 0.01302
v -0.091513 0.114197 0.015939
v -0.105187 0.125207 0.017561
v -0.096934 0.125403 0.013058
v -0.083926 0.113896 0.012357
v -0.094327 0.107129 0.017556
v -0.091597 0.125321 0.0271
v -0.092658 0.122562 0.024714
v -0.095566 0.129759 0.025062
v -0.087969 0.105308 3e-006
v -0.083367 0.099629 0.006903
v -0.102051 0.109178 4e-006
v -0.098324 0.117693 0.005106
v -0.09411 0.117632 0.008549
v -0.095513 0.123975 0.010714
v -0.098324 0.117693 -0.005106
v -0.09411 0.117632 -0.008549
v -0.095513 0.123975 -0.010714
v -0.09419 0.128772 0.011691
v -0.072282 0.138058 -0.023101
v -0.091379 0.131201 -0.02187
v -0.091201 0.134767 -0.018944
v -0.091513 0.114197 -0.015939
v -0.095549 0.111348 -0.01302
v -0.098934 0.127531 -0.014623
v -0.105187 0.125207 -0.017561
v -0.096934 0.125403 -0.013058
v -0.100305 0.136782 -0.019844
v -0.094751 0.132065 -0.02191
v -0.083926 0.113896 -0.012357
v -0.094327 0.107129 -0.017556
v -0.092658 0.122562 -0.024714
v -0.091597 0.125321 -0.0271
v -0.095566 0.129759 -0.025062
v -0.083367 0.099629 -0.006903
v -0.09419 0.128772 -0.011691
v -0.105147 0.131956 0.016633
v -0.098957 0.131388 0.014339
v -0.105147 0.131956 -0.016633
v -0.098957 0.131388 -0.014339
v -0.102918 0.130899 0.021988
v -0.104138 0.128009 0.017086
v -0.09726 0.107734 0.010569
v -0.096285 0.102953 0.010001
v -0.092564 0.100227 0.017306
v -0.095938 0.113561 0.009115
v -0.083971 0.096949 0.013718
v -0.086608 0.102263 0.005489
v -0.090297 0.105078 1e-006
v -0.086608 0.102263 -0.005489
v -0.101115 0.112219 0.004312
v -0.105025 0.102082 -1.6e-005
v -0.099641 0.107612 0.004195
v -0.101115 0.112219 -0.004312
v -0.099641 0.107612 -0.004195
v -0.095938 0.113561 -0.009115
v -0.096285 0.102953 -0.010001
v -0.09726 0.107734 -0.010569
v -0.092564 0.100227 -0.017306
v -0.102918 0.130899 -0.021988
v -0.104138 0.128009 -0.017086
v -0.083971 0.096949 -0.013718
v -0.098729 0.103068 0.004376
v -0.097206 0.101114 0.00513
v -0.091695 0.101111 0.007867
v -0.095785 0.096006 0
v -0.091695 0.101111 -0.007867
v -0.097206 0.101114 -0.00513
v -0.109852 0.092301 -2.1e-005
v -0.098729 0.103068 -0.004376
v -0.101882 0.094136 0.004761
v -0.09805 0.092605 0.004779
v -0.100268 0.084743 0.003711
v -0.101926 0.083594 -3e-006
v -0.100268 0.084743 -0.003711
v -0.09805 0.092605 -0.004779
v -0.11037 0.088282 0.004814
v -0.110883 0.086563 -2.3e-005
v -0.101882 0.094136 -0.004761
v -0.11037 0.088282 -0.004814
v -0.107673 0.085067 0.005606
v -0.106188 0.083399 -2.1e-005
v -0.107673 0.085067 -0.005606
# 212 verticies
vn 0.894539 -0.44699 0.000365
vn 0.760484 -0.616964 0.202534
vn 0.390963 -0.920406 1.7e-005
vn 0.914015 0.25614 0.314593
vn 0.990177 0.139821 0.000238
vn 0.760581 -0.616929 -0.202274
vn 0.914095 0.256237 -0.314281
vn 0.704034 -0.497507 0.506777
vn 0.430427 -0.503163 0.749373
vn -0.226073 -0.973931 -0.018689
vn -0.26974 -0.962933 6.2e-005
vn -0.193626 -0.96953 0.150072
vn 0.0985971 -0.660667 0.744175
vn 0.704032 -0.497514 -0.506773
vn 0.430425 -0.503163 -0.749374
vn -0.22607 -0.973932 0.018666
vn -0.193619 -0.969531 -0.150068
vn 0.0986061 -0.660667 -0.744174
vn 0.846533 0.532336 0.000194
vn 0.762241 0.526323 0.376792
vn 0.532474 0.345999 0.7725
vn 0.762345 0.526409 -0.376463
vn 0.532471 0.346 -0.772502
vn 0.147513 0.199998 0.968628
vn -0.798161 -0.593451 0.103702
vn -0.895222 -0.445621 0.000143
vn -0.798178 -0.593455 -0.103553
vn -0.240356 -0.081449 0.967262
vn -0.733914 -0.520957 0.435861
vn -0.801038 -0.491145 -0.34222
vn 0.147512 0.199996 -0.968629
vn -0.733914 -0.520957 -0.435861
vn -0.240352 -0.081451 -0.967262
vn -0.801038 -0.491145 0.34222
vn 0.975011 0.222157 0.000385
vn 0.914532 0.108961 0.389563
vn 0.486923 0.35616 0.797531
vn 0.914648 0.108993 -0.389281
vn 0.486922 0.356156 -0.797533
vn 0.151147 0.166955 0.97431
vn -0.944188 -0.253361 -0.210515
vn -0.976993 -0.21327 -8.2e-005
vn -0.944186 -0.253353 0.210535
vn -0.173985 0.020729 0.98453
vn 0.037358 -0.428804 0.902625
vn -0.607431 -0.590708 -0.531123
vn 0.15115 0.16695 -0.974311
vn 0.037359 -0.428802 -0.902626
vn -0.173988 0.020733 -0.984529
vn -0.607431 -0.590708 0.531122
vn 0.990932 0.134366 0.000216
vn 0.941594 0.076337 0.327985
vn 0.59907 -0.103895 0.793928
vn 0.941647 0.07636 -0.327827
vn 0.599068 -0.10389 -0.793929
vn 0.276835 -0.219808 0.935439
vn -0.924429 -0.269418 -0.269897
vn -0.40219 -0.065223 -0.91323
vn -0.960817 -0.277185 -0.00016
vn -0.924451 -0.269446 0.269795
vn -0.40219 -0.065223 0.91323
vn 0.068273 -0.254302 0.964712
vn 0.136332 0.046804 0.989557
vn 0.01043 -0.972394 0.23311
vn -0.002841 -0.587052 0.809544
vn 0.051182 -0.013218 0.998602
vn 0.616224 0.280467 -0.735939
vn 0.276833 -0.219803 -0.935441
vn 0.136339 0.046801 -0.989556
vn 0.068274 -0.254304 -0.964711
vn -0.002839 -0.587051 -0.809545
vn 0.010429 -0.972394 -0.233111
vn 0.051184 -0.013218 -0.998602
vn 0.616398 0.280568 0.735754
vn 0.724479 0.689297 0.000192
vn 0.560815 0.749827 0.351063
vn 0.628636 -0.067248 0.774786
vn 0.560855 0.749865 -0.35092
vn 0.628638 -0.067247 -0.774786
vn 0.244789 -0.248536 0.937181
vn -0.63458 0.671635 -0.38238
vn -0.217953 -0.072255 -0.973281
vn -0.840529 0.541767 -0.000237
vn -0.634644 0.671661 0.382229
vn -0.217953 -0.072255 0.973281
vn -0.040193 -0.200483 0.978872
vn -0.228248 0.161496 0.960116
vn -0.077247 0.656086 0.750723
vn -0.553917 -0.371762 0.744963
vn -0.432471 -0.560329 0.706399
vn 0.302444 -0.067941 0.950743
vn 0.808083 -0.258551 0.529295
vn 0.099677 0.268128 0.958213
vn -0.459732 -0.581051 0.671584
vn 0.9392 0.34337 -0.000278
vn 0.941093 -0.185897 -0.282465
vn -0.736618 0.67631 3.5e-005
vn -0.467817 0.427249 -0.773696
vn 0.244791 -0.248537 -0.93718
vn -0.228248 0.161496 -0.960116
vn -0.040189 -0.20049 -0.978871
vn -0.077247 0.656086 -0.750723
vn -0.432473 -0.560329 -0.706398
vn -0.553921 -0.37176 -0.744961
vn 0.302445 -0.067942 -0.950742
vn 0.808081 -0.25855 -0.529298
vn -0.459729 -0.581043 -0.671594
vn 0.09967 0.268126 -0.958214
vn 0.941123 -0.185943 0.282333
vn -0.467741 0.427298 0.773715
vn -0.222749 0.974876 0
vn 0.271496 0.797868 0.538234
vn 0.110672 0.546042 0.830415
vn 0.271492 0.797871 -0.538233
vn 0.110675 0.546045 -0.830413
vn -0.232041 0.41517 0.879654
vn -0.234334 0.94944 -0.208931
vn -0.0475 0.91771 0.394402
vn -0.714641 0.406908 -0.568959
vn -0.383603 0.827218 0.41056
vn -0.047502 0.91771 -0.3944
vn -0.23434 0.949437 0.208936
vn -0.714638 0.406908 0.568962
vn -0.383593 0.827227 -0.410551
vn 0.241762 0.599889 0.762683
vn 0.191484 0.708264 0.679482
vn -0.22492 0.529892 0.817695
vn 0.031665 -0.425736 0.904293
vn 0.085154 0.456068 0.885861
vn -0.859153 -0.018153 0.511397
vn -0.094698 0.010381 0.995452
vn -0.876235 -0.216796 -0.430363
vn -0.884108 -0.1017 -0.456082
vn 0.944634 0.02848 0.326888
vn -0.339287 0.214861 0.915816
vn 0.106214 0.027857 0.993953
vn -0.741769 -0.584368 0.329077
vn -0.983875 -0.038343 -0.174697
vn -0.052603 -0.998616 -0.000165
vn 0.17501 -0.878004 -0.445511
vn -0.978279 0.207291 0.000204
vn -0.809306 0.401064 0.429152
vn -0.944837 0.229708 0.233489
vn -0.952501 0.203775 -0.226315
vn -0.809274 0.401305 -0.428987
vn -0.944821 0.229911 -0.233355
vn -0.952485 0.20376 0.226395
vn -0.741674 0.201059 -0.639918
vn -0.232037 0.415179 -0.879651
vn 0.241761 0.599886 -0.762685
vn 0.191481 0.708268 -0.679479
vn -0.094698 0.010381 -0.995452
vn -0.859153 -0.018153 -0.511397
vn 0.031666 -0.425733 -0.904294
vn -0.876235 -0.216809 0.430355
vn -0.884107 -0.101708 0.456081
vn -0.224928 0.529897 -0.81769
vn 0.085147 0.456069 -0.885862
vn 0.944633 0.028476 -0.326892
vn -0.339287 0.214861 -0.915816
vn -0.741762 -0.584367 -0.329096
vn 0.106215 0.027857 -0.993953
vn -0.983877 -0.038346 0.174685
vn 0.175143 -0.878011 0.445446
vn -0.741676 0.201054 0.639918
vn -0.862206 0.482742 -0.153498
vn -0.351807 0.197371 -0.915028
vn -0.862207 0.482739 0.153501
vn -0.351814 0.197371 0.915026
vn -0.346832 -0.365906 0.863609
vn -0.090349 -0.324647 0.94151
vn -0.900318 -0.011969 0.435068
vn -0.732594 -0.540383 0.413875
vn -0.695847 -0.630391 0.344098
vn -0.954432 0.163768 0.249478
vn 0.319899 -0.886837 0.333445
vn -0.02686 -0.944459 -0.327529
vn 0.507085 -0.861896 -0.000215
vn -0.026982 -0.944523 0.327335
vn -0.832866 0.12499 0.539176
vn -0.963875 0.266353 -0.00091
vn -0.823863 -0.027598 0.566117
vn -0.832931 0.124963 -0.539083
vn -0.823624 -0.02699 -0.566494
vn -0.954433 0.163765 -0.249477
vn -0.732594 -0.540383 -0.413875
vn -0.900319 -0.011968 -0.435066
vn -0.695847 -0.630391 -0.344098
vn -0.346831 -0.365902 -0.863611
vn -0.090349 -0.324647 -0.94151
vn 0.319899 -0.886837 -0.333445
vn -0.659478 -0.058272 0.749462
vn 0.019052 -0.892359 0.450923
vn -0.20284 -0.970069 -0.133498
vn 0.816973 -0.576676 7e-006
vn -0.20284 -0.970069 0.133498
vn 0.019039 -0.89234 -0.450962
vn -0.8808 0.473486 -0.001401
vn -0.658358 -0.058404 -0.750436
vn -0.168466 0.171732 0.970632
vn -0.010137 -0.041538 0.999085
vn 0.716499 -0.527795 0.456138
vn 0.372808 -0.927908 -0.000522
vn 0.716486 -0.527777 -0.456179
vn -0.010162 -0.041536 -0.999085
vn -0.830222 -0.114266 0.545595
vn -0.928345 -0.371718 -0.000977
vn -0.167548 0.171102 -0.970903
vn -0.829175 -0.114478 -0.547142
vn -0.153992 -0.691792 0.705486
vn -0.464339 -0.885657 -0.00099
vn -0.153232 -0.691315 -0.706119
# 212 normals
usemtl Material__1
f  1//1 2//2 3//3
f  4//4 2//2 1//1
f  4//4 1//1 5//5
f  3//3 6//6 1//1
f  1//1 6//6 7//7
f  5//5 1//1 7//7
f  2//2 8//8 3//3
f  8//8 2//2 4//4
f  8//8 9//9 3//3
f  10//10 11//11 3//3
f  3//3 12//12 10//10
f  13//13 12//12 3//3
f  3//3 9//9 13//13
f  3//3 14//14 6//6
f  3//3 15//15 14//14
f  3//3 11//11 16//16
f  16//16 17//17 3//3
f  3//3 17//17 18//18
f  18//18 15//15 3//3
f  19//19 20//20 4//4
f  19//19 4//4 5//5
f  21//21 4//4 20//20
f  8//8 4//4 21//21
f  5//5 7//7 19//19
f  7//7 6//6 14//14
f  7//7 22//22 19//19
f  22//22 7//7 23//23
f  23//23 7//7 14//14
f  9//9 8//8 21//21
f  9//9 21//21 24//24
f  13//13 9//9 24//24
f  11//11 10//10 25//25
f  12//12 25//25 10//10
f  11//11 25//25 26//26
f  27//27 16//16 11//11
f  26//26 27//27 11//11
f  28//28 29//29 12//12
f  28//28 12//12 13//13
f  12//12 29//29 30//30
f  12//12 30//30 25//25
f  13//13 24//24 28//28
f  23//23 14//14 15//15
f  31//31 23//23 15//15
f  31//31 15//15 18//18
f  16//16 27//27 17//17
f  17//17 32//32 33//33
f  18//18 17//17 33//33
f  34//34 32//32 17//17
f  27//27 34//34 17//17
f  33//33 31//31 18//18
f  35//35 20//20 19//19
f  19//19 22//22 35//35
f  35//35 36//36 20//20
f  37//37 20//20 36//36
f  21//21 20//20 37//37
f  24//24 21//21 37//37
f  22//22 38//38 35//35
f  38//38 22//22 39//39
f  39//39 22//22 23//23
f  39//39 23//23 31//31
f  24//24 37//37 40//40
f  28//28 24//24 40//40
f  41//41 26//26 25//25
f  41//41 25//25 30//30
f  26//26 41//41 42//42
f  42//42 43//43 26//26
f  27//27 26//26 43//43
f  34//34 27//27 43//43
f  28//28 40//40 44//44
f  44//44 29//29 28//28
f  44//44 45//45 29//29
f  30//30 29//29 46//46
f  29//29 45//45 46//46
f  41//41 30//30 46//46
f  47//47 39//39 31//31
f  47//47 31//31 33//33
f  32//32 48//48 49//49
f  33//33 32//32 49//49
f  50//50 32//32 34//34
f  50//50 48//48 32//32
f  49//49 47//47 33//33
f  50//50 34//34 43//43
f  51//51 36//36 35//35
f  35//35 38//38 51//51
f  51//51 52//52 36//36
f  53//53 36//36 52//52
f  37//37 36//36 53//53
f  40//40 37//37 53//53
f  38//38 54//54 51//51
f  54//54 38//38 55//55
f  55//55 38//38 39//39
f  55//55 39//39 47//47
f  40//40 53//53 56//56
f  44//44 40//40 56//56
f  42//42 41//41 57//57
f  41//41 58//58 57//57
f  41//41 46//46 58//58
f  42//42 57//57 59//59
f  60//60 43//43 42//42
f  59//59 60//60 42//42
f  60//60 61//61 43//43
f  61//61 50//50 43//43
f  44//44 56//56 62//62
f  62//62 45//45 44//44
f  62//62 63//63 45//45
f  64//64 45//45 65//65
f  66//66 65//65 45//45
f  66//66 45//45 63//63
f  45//45 64//64 46//46
f  58//58 46//46 67//67
f  67//67 46//46 64//64
f  68//68 55//55 47//47
f  68//68 47//47 49//49
f  48//48 69//69 70//70
f  49//49 48//48 70//70
f  71//71 48//48 72//72
f  48//48 71//71 73//73
f  69//69 48//48 73//73
f  50//50 72//72 48//48
f  70//70 68//68 49//49
f  74//74 50//50 61//61
f  72//72 50//50 74//74
f  75//75 52//52 51//51
f  51//51 54//54 75//75
f  75//75 76//76 52//52
f  77//77 52//52 76//76
f  53//53 52//52 77//77
f  56//56 53//53 77//77
f  54//54 78//78 75//75
f  78//78 54//54 79//79
f  79//79 54//54 55//55
f  79//79 55//55 68//68
f  56//56 77//77 80//80
f  62//62 56//56 80//80
f  59//59 57//57 81//81
f  57//57 58//58 82//82
f  57//57 82//82 81//81
f  67//67 82//82 58//58
f  59//59 81//81 83//83
f  84//84 60//60 59//59
f  83//83 84//84 59//59
f  85//85 61//61 60//60
f  84//84 85//85 60//60
f  61//61 85//85 74//74
f  62//62 80//80 86//86
f  86//86 63//63 62//62
f  86//86 87//87 63//63
f  88//88 66//66 63//63
f  88//88 63//63 87//87
f  89//89 90//90 64//64
f  89//89 64//64 91//91
f  64//64 65//65 66//66
f  64//64 66//66 91//91
f  64//64 90//90 92//92
f  64//64 92//92 67//67
f  66//66 93//93 94//94
f  66//66 94//94 91//91
f  88//88 93//93 66//66
f  95//95 67//67 96//96
f  67//67 95//95 97//97
f  67//67 97//97 98//98
f  92//92 96//96 67//67
f  67//67 98//98 82//82
f  99//99 79//79 68//68
f  99//99 68//68 70//70
f  69//69 100//100 101//101
f  70//70 69//69 101//101
f  69//69 73//73 102//102
f  100//100 69//69 102//102
f  101//101 99//99 70//70
f  73//73 71//71 72//72
f  72//72 103//103 104//104
f  105//105 72//72 104//104
f  105//105 73//73 72//72
f  106//106 103//103 72//72
f  74//74 106//106 72//72
f  107//107 108//108 73//73
f  105//105 107//107 73//73
f  73//73 108//108 102//102
f  109//109 74//74 95//95
f  97//97 95//95 74//74
f  110//110 97//97 74//74
f  74//74 109//109 106//106
f  85//85 110//110 74//74
f  76//76 75//75 111//111
f  111//111 75//75 78//78
f  77//77 76//76 112//112
f  112//112 76//76 111//111
f  113//113 80//80 77//77
f  113//113 77//77 112//112
f  114//114 78//78 79//79
f  111//111 78//78 114//114
f  79//79 99//99 115//115
f  114//114 79//79 115//115
f  116//116 86//86 80//80
f  116//116 80//80 113//113
f  117//117 118//118 81//81
f  81//81 119//119 117//117
f  81//81 98//98 119//119
f  98//98 81//81 82//82
f  83//83 81//81 111//111
f  81//81 120//120 111//111
f  118//118 120//120 81//81
f  111//111 84//84 83//83
f  84//84 121//121 122//122
f  122//122 123//123 84//84
f  123//123 110//110 84//84
f  85//85 84//84 110//110
f  111//111 124//124 84//84
f  84//84 124//124 121//121
f  116//116 87//87 86//86
f  120//120 88//88 87//87
f  116//116 120//120 87//87
f  120//120 118//118 88//88
f  88//88 125//125 93//93
f  125//125 88//88 126//126
f  126//126 88//88 118//118
f  127//127 128//128 89//89
f  128//128 90//90 89//89
f  89//89 91//91 125//125
f  129//129 89//89 125//125
f  127//127 89//89 129//129
f  130//130 131//131 90//90
f  128//128 132//132 90//90
f  90//90 131//131 92//92
f  90//90 133//133 130//130
f  90//90 132//132 133//133
f  91//91 94//94 125//125
f  96//96 92//92 134//134
f  135//135 134//134 92//92
f  135//135 92//92 131//131
f  125//125 136//136 93//93
f  136//136 94//94 93//93
f  136//136 137//137 94//94
f  137//137 138//138 94//94
f  94//94 138//138 125//125
f  95//95 96//96 139//139
f  139//139 109//109 95//95
f  139//139 96//96 140//140
f  96//96 134//134 140//140
f  141//141 142//142 97//97
f  97//97 142//142 143//143
f  97//97 143//143 144//144
f  144//144 98//98 97//97
f  97//97 145//145 141//141
f  146//146 145//145 97//97
f  147//147 146//146 97//97
f  97//97 110//110 147//147
f  144//144 148//148 98//98
f  98//98 148//148 119//119
f  99//99 101//101 149//149
f  115//115 99//99 149//149
f  101//101 100//100 149//149
f  100//100 102//102 124//124
f  100//100 124//124 149//149
f  102//102 121//121 124//124
f  108//108 150//150 102//102
f  151//151 102//102 150//150
f  121//121 102//102 151//151
f  103//103 152//152 153//153
f  104//104 103//103 154//154
f  103//103 155//155 154//154
f  106//106 152//152 103//103
f  153//153 156//156 103//103
f  156//156 155//155 103//103
f  104//104 154//154 157//157
f  150//150 105//105 104//104
f  150//150 104//104 158//158
f  158//158 104//104 157//157
f  150//150 107//107 105//105
f  159//159 106//106 109//109
f  106//106 159//159 160//160
f  152//152 106//106 160//160
f  107//107 161//161 162//162
f  108//108 107//107 162//162
f  107//107 163//163 161//161
f  150//150 163//163 107//107
f  108//108 162//162 150//150
f  164//164 109//109 139//139
f  164//164 159//159 109//109
f  110//110 165//165 147//147
f  123//123 165//165 110//110
f  113//113 112//112 111//111
f  116//116 113//113 111//111
f  120//120 116//116 111//111
f  111//111 114//114 115//115
f  111//111 115//115 149//149
f  111//111 149//149 124//124
f  118//118 117//117 126//126
f  127//127 126//126 117//117
f  166//166 127//127 117//117
f  166//166 117//117 167//167
f  117//117 148//148 167//167
f  148//148 117//117 119//119
f  151//151 122//122 121//121
f  122//122 151//151 157//157
f  122//122 157//157 168//168
f  169//169 122//122 168//168
f  169//169 165//165 122//122
f  123//123 122//122 165//165
f  125//125 138//138 136//136
f  125//125 126//126 129//129
f  127//127 129//129 126//126
f  127//127 170//170 128//128
f  170//170 127//127 166//166
f  128//128 170//170 171//171
f  132//132 128//128 171//171
f  135//135 131//131 130//130
f  130//130 172//172 173//173
f  130//130 173//173 174//174
f  130//130 174//174 135//135
f  172//172 130//130 175//175
f  133//133 175//175 130//130
f  132//132 171//171 166//166
f  132//132 166//166 167//167
f  148//148 133//133 132//132
f  148//148 132//132 167//167
f  144//144 133//133 148//148
f  175//175 133//133 143//143
f  143//143 133//133 144//144
f  135//135 176//176 134//134
f  134//134 176//176 140//140
f  135//135 174//174 176//176
f  136//136 138//138 137//137
f  139//139 140//140 177//177
f  139//139 177//177 178//178
f  179//179 164//164 139//139
f  178//178 179//179 139//139
f  140//140 176//176 177//177
f  180//180 142//142 141//141
f  141//141 181//181 182//182
f  141//141 182//182 180//180
f  141//141 145//145 183//183
f  184//184 181//181 141//141
f  183//183 184//184 141//141
f  180//180 143//143 142//142
f  180//180 175//175 143//143
f  145//145 146//146 183//183
f  146//146 185//185 183//183
f  146//146 156//156 185//185
f  147//147 156//156 146//146
f  165//165 156//156 147//147
f  162//162 163//163 150//150
f  158//158 151//151 150//150
f  151//151 158//158 157//157
f  153//153 152//152 160//160
f  186//186 187//187 153//153
f  188//188 186//186 153//153
f  160//160 188//188 153//153
f  185//185 153//153 187//187
f  153//153 185//185 156//156
f  154//154 189//189 157//157
f  190//190 189//189 154//154
f  190//190 154//154 155//155
f  168//168 190//190 155//155
f  169//169 168//168 155//155
f  155//155 156//156 165//165
f  169//169 155//155 165//165
f  168//168 157//157 189//189
f  159//159 191//191 160//160
f  164//164 191//191 159//159
f  191//191 188//188 160//160
f  161//161 163//163 162//162
f  179//179 191//191 164//164
f  170//170 166//166 171//171
f  190//190 168//168 189//189
f  182//182 172//172 175//175
f  192//192 173//173 172//172
f  192//192 172//172 182//182
f  193//193 194//194 173//173
f  193//193 173//173 192//192
f  194//194 174//174 173//173
f  194//194 176//176 174//174
f  182//182 175//175 180//180
f  177//177 176//176 194//194
f  177//177 194//194 193//193
f  177//177 193//193 195//195
f  178//178 177//177 195//195
f  195//195 179//179 178//178
f  196//196 191//191 179//179
f  197//197 196//196 179//179
f  195//195 197//197 179//179
f  181//181 198//198 192//192
f  181//181 192//192 182//182
f  199//199 198//198 181//181
f  184//184 199//199 181//181
f  183//183 185//185 184//184
f  185//185 187//187 184//184
f  184//184 187//187 199//199
f  187//187 186//186 199//199
f  186//186 196//196 197//197
f  199//199 186//186 197//197
f  186//186 188//188 196//196
f  188//188 191//191 196//196
f  198//198 200//200 192//192
f  201//201 193//193 192//192
f  201//201 192//192 200//200
f  202//202 195//195 193//193
f  202//202 193//193 201//201
f  195//195 202//202 203//203
f  203//203 204//204 195//195
f  197//197 195//195 204//204
f  199//199 197//197 205//205
f  205//205 197//197 204//204
f  198//198 206//206 200//200
f  207//207 206//206 198//198
f  208//208 209//209 198//198
f  199//199 208//208 198//198
f  198//198 209//209 207//207
f  208//208 199//199 205//205
f  202//202 201//201 200//200
f  202//202 200//200 210//210
f  206//206 210//210 200//200
f  203//203 202//202 210//210
f  203//203 210//210 211//211
f  212//212 204//204 203//203
f  211//211 212//212 203//203
f  208//208 205//205 204//204
f  212//212 208//208 204//204
f  211//211 210//210 206//206
f  211//211 206//206 207//207
f  207//207 209//209 211//211
f  208//208 212//212 209//209
f  209//209 212//212 211//211
