# 
# Wavefront OBJ file
# Converted by the DEEP Exploration 2.00.1211
# Right Hemisphere, LTD
# http://www.righthemisphere.com/
# 
mtllib thoracic4.mtl
# object Object #0
g Object__0
v -0.05823 0.270628 0.001522
v -0.05883 0.271045 0.009142
v -0.070472 0.273386 0.001502
v -0.057043 0.274343 0.010667
v -0.057242 0.271834 0.001524
v -0.05883 0.271045 -0.006144
v -0.057043 0.274343 -0.00767
v -0.062434 0.272376 0.017071
v -0.068321 0.273923 0.020928
v -0.081545 0.27512 0.006095
v -0.081618 0.2754 0.001502
v -0.081832 0.275418 0.015027
v -0.077754 0.275741 0.021032
v -0.062434 0.272376 -0.014073
v -0.068321 0.273923 -0.01793
v -0.081545 0.27512 -0.003097
v -0.081832 0.275418 -0.012029
v -0.077754 0.275741 -0.018034
v -0.057113 0.276058 0.001524
v -0.058211 0.276754 0.011315
v -0.061527 0.276174 0.018042
v -0.058211 0.276754 -0.008317
v -0.061527 0.276174 -0.015045
v -0.068509 0.278517 0.021593
v -0.084412 0.278939 0.006229
v -0.084401 0.278818 0.001502
v -0.084412 0.278939 -0.003231
v -0.078052 0.280741 0.021736
v -0.084344 0.276568 0.016691
v -0.085025 0.280414 0.010488
v -0.068509 0.278517 -0.018595
v -0.084344 0.276568 -0.013693
v -0.078052 0.280741 -0.018738
v -0.085025 0.280414 -0.00749
v -0.055394 0.284564 0.001526
v -0.056803 0.283938 0.010972
v -0.062738 0.279111 0.017629
v -0.056803 0.283938 -0.007975
v -0.062738 0.279111 -0.014632
v -0.067947 0.282268 0.019779
v -0.083087 0.285276 0.007563
v -0.082645 0.285185 0.001503
v -0.083087 0.285276 -0.004566
v -0.077383 0.283976 0.020652
v -0.082266 0.283819 0.019609
v -0.084636 0.286208 0.010774
v -0.067947 0.282268 -0.016781
v -0.082266 0.283819 -0.016612
v -0.077383 0.283976 -0.017654
v -0.084636 0.286208 -0.007777
v -0.05431 0.287822 0.001528
v -0.054916 0.287627 0.011978
v -0.061873 0.285802 0.018249
v -0.054916 0.287627 -0.00898
v -0.061873 0.285802 -0.015252
v -0.066179 0.287099 0.019863
v -0.079963 0.292542 0.007765
v -0.081636 0.293393 0.011197
v -0.079306 0.292457 0.001506
v -0.079963 0.292542 -0.004768
v -0.081636 0.293393 -0.008199
v -0.075026 0.289875 0.02079
v -0.079063 0.291877 0.021165
v -0.0877 0.284921 0.017814
v -0.084764 0.286662 0.021502
v -0.082239 0.291535 0.025417
v -0.091721 0.289729 0.005059
v -0.066179 0.287099 -0.016865
v -0.079063 0.291877 -0.018167
v -0.075026 0.289875 -0.017792
v -0.084764 0.286662 -0.018504
v -0.0877 0.284921 -0.014816
v -0.082239 0.291535 -0.022419
v -0.091721 0.289729 -0.002061
v -0.053747 0.291642 0.001528
v -0.05452 0.291639 0.01217
v -0.059568 0.288552 0.01923
v -0.05452 0.291639 -0.009173
v -0.059568 0.288552 -0.016232
v -0.065054 0.289593 0.021804
v -0.079294 0.298853 0.009488
v -0.080231 0.297568 0.011912
v -0.077978 0.297664 0.001507
v -0.079294 0.298853 -0.00649
v -0.080231 0.297568 -0.008914
v -0.072411 0.292998 0.022783
v -0.076672 0.294074 0.020503
v -0.082021 0.296667 0.020548
v -0.093977 0.293579 0.023578
v -0.093031 0.289587 0.017908
v -0.091429 0.283737 0.025116
v -0.089863 0.283108 0.011555
v -0.089455 0.291434 0.024213
v -0.092022 0.285816 0.022148
v -0.093101 0.285197 0.001502
v -0.09789 0.275637 0.006382
v -0.099097 0.292661 0.001504
v -0.092781 0.295326 0.008868
v -0.065054 0.289593 -0.018806
v -0.076672 0.294074 -0.017506
v -0.072411 0.292998 -0.019785
v -0.082021 0.296667 -0.01755
v -0.093031 0.289587 -0.01491
v -0.093977 0.293579 -0.02058
v -0.091429 0.283737 -0.022118
v -0.089863 0.283108 -0.008557
v -0.092022 0.285816 -0.019151
v -0.089455 0.291434 -0.021215
v -0.09789 0.275637 -0.003384
v -0.092781 0.295326 -0.00587
v -0.067156 0.295542 0.001508
v -0.05897 0.292696 0.019475
v -0.065067 0.294564 0.022785
v -0.05897 0.292696 -0.016477
v -0.065067 0.294564 -0.019787
v -0.07306 0.296405 0.022915
v -0.09039 0.302843 0.016775
v -0.081479 0.298142 0.014965
v -0.090586 0.300506 0.011107
v -0.077702 0.297973 0.017843
v -0.081479 0.298142 -0.011967
v -0.09039 0.302843 -0.013777
v -0.090586 0.300506 -0.008109
v -0.077702 0.297973 -0.014845
v -0.090664 0.296572 0.021773
v -0.089339 0.298996 0.019061
v -0.102019 0.305009 0.03471
v -0.098388 0.295994 0.021636
v -0.092998 0.298527 0.02181
v -0.104547 0.283226 0.013569
v -0.10046 0.283604 0.016275
v -0.104023 0.296871 0.025681
v -0.097267 0.293374 0.013604
v -0.090635 0.281479 0.012954
v -0.105002 0.279784 0.017774
v -0.092793 0.292544 0.026622
v -0.094536 0.291039 0.02441
v -0.0944 0.297239 0.024733
v -0.099485 0.280533 0.001501
v -0.0978 0.274717 0.007898
v -0.110324 0.284309 0.001503
v -0.100563 0.2899 0.006232
v -0.097308 0.28817 0.009424
v -0.096638 0.291805 0.011431
v -0.100563 0.2899 -0.003235
v -0.097308 0.28817 -0.006426
v -0.096638 0.291805 -0.008434
v -0.093659 0.295998 0.012337
v -0.07306 0.296405 -0.019917
v -0.090664 0.296572 -0.018776
v -0.089339 0.298996 -0.016063
v -0.10046 0.283604 -0.013277
v -0.104547 0.283226 -0.010571
v -0.098388 0.295994 -0.018639
v -0.104023 0.296871 -0.022683
v -0.097267 0.293374 -0.010607
v -0.102019 0.305009 -0.031712
v -0.092998 0.298527 -0.018813
v -0.090635 0.281479 -0.009957
v -0.105002 0.279784 -0.014777
v -0.094536 0.291039 -0.021412
v -0.092793 0.292544 -0.023624
v -0.0944 0.297239 -0.021735
v -0.0978 0.274717 -0.0049
v -0.093659 0.295998 -0.009339
v -0.107391 0.30357 0.029336
v -0.096846 0.298371 0.014792
v -0.107391 0.30357 -0.026338
v -0.096846 0.298371 -0.011794
v -0.10601 0.301938 0.038297
v -0.107921 0.300404 0.030093
v -0.107081 0.281381 0.011297
v -0.107915 0.277646 0.01077
v -0.105931 0.274249 0.017542
v -0.104112 0.28493 0.009949
v -0.099162 0.273083 0.014216
v -0.099442 0.277857 0.006588
v -0.102552 0.276736 0.0015
v -0.099442 0.277857 -0.00359
v -0.108583 0.286063 0.005496
v -0.118254 0.275498 0.001484
v -0.108972 0.282249 0.005387
v -0.108583 0.286063 -0.002498
v -0.108972 0.282249 -0.00239
v -0.104112 0.28493 -0.006951
v -0.107915 0.277646 -0.007772
v -0.107081 0.281381 -0.008299
v -0.105931 0.274249 -0.014544
v -0.10601 0.301938 -0.0353
v -0.107922 0.300404 -0.027095
v -0.099162 0.273083 -0.011218
v -0.109777 0.278704 0.005555
v -0.109244 0.276728 0.006255
v -0.104961 0.274519 0.008792
v -0.10984 0.272585 0.001498
v -0.104961 0.274519 -0.005795
v -0.109244 0.276728 -0.003257
v -0.125041 0.266986 0.001479
v -0.109777 0.278704 -0.002558
v -0.119753 0.265051 0.004375
v -0.112734 0.271111 0.005929
v -0.121463 0.258628 0.003741
v -0.122074 0.258494 0.001496
v -0.121463 0.258628 -0.000743
v -0.112734 0.271111 -0.002931
v -0.127522 0.26439 0.004407
v -0.1284 0.263397 0.001485
v -0.119753 0.265051 -0.001377
v -0.127522 0.26439 -0.001409
v -0.126574 0.261057 0.004885
v -0.125113 0.259292 0.001479
v -0.126574 0.261057 -0.001888
# 212 verticies
vn 0.553381 -0.832928 0.000328
vn 0.337855 -0.922946 0.18446
vn -0.178667 -0.98391 1.5e-005
vn 0.93669 -0.21667 0.275073
vn 0.937186 -0.348829 0.000212
vn 0.337953 -0.922956 -0.184227
vn 0.936783 -0.216615 -0.274799
vn 0.371718 -0.795595 0.478387
vn 0.118166 -0.663813 0.738505
vn -0.517849 -0.855329 -0.015667
vn -0.620821 -0.783952 -1.4e-005
vn -0.556182 -0.814513 0.165016
vn -0.293665 -0.63492 0.714589
vn 0.371713 -0.795599 -0.478384
vn 0.118162 -0.66381 -0.738508
vn -0.517846 -0.855331 0.015641
vn -0.556175 -0.814519 -0.165012
vn -0.293659 -0.634928 -0.714584
vn 0.997784 0.06653 0.000161
vn 0.940687 0.106537 0.322114
vn 0.694444 0.045611 0.718099
vn 0.940783 0.106565 -0.321825
vn 0.694442 0.045614 -0.718101
vn 0.271258 0.116237 0.955462
vn -0.938671 -0.343034 -0.034992
vn -0.998269 -0.058812 -1.8e-005
vn -0.938671 -0.343035 0.034987
vn -0.263842 -0.000764 0.964566
vn -0.799454 -0.300658 0.520075
vn -0.962638 -0.189208 -0.193724
vn 0.271254 0.116234 -0.955464
vn -0.799456 -0.300653 -0.520074
vn -0.26384 -0.000767 -0.964566
vn -0.962639 -0.189207 0.193719
vn 0.972298 -0.233746 0.000344
vn 0.880654 -0.303881 0.363463
vn 0.66235 0.10985 0.741098
vn 0.880757 -0.303897 -0.3632
vn 0.662349 0.109852 -0.741098
vn 0.256067 0.123208 0.958775
vn -0.92292 0.280668 -0.263523
vn -0.932652 0.360778 -7.3e-005
vn -0.922932 0.280664 0.263486
vn -0.146109 0.04979 0.988015
vn -0.195455 -0.509517 0.837968
vn -0.828542 -0.346676 -0.439697
vn 0.256066 0.123216 -0.958774
vn -0.195452 -0.509518 -0.837968
vn -0.14611 0.049798 -0.988014
vn -0.828545 -0.346676 0.439691
vn 0.950208 -0.311617 0.000201
vn 0.881749 -0.352005 0.314025
vn 0.507132 -0.362345 0.782
vn 0.8818 -0.352011 -0.313875
vn 0.507133 -0.362341 -0.782001
vn 0.136827 -0.33934 0.930659
vn -0.914339 0.312309 -0.257773
vn -0.377615 0.245324 -0.892873
vn -0.963348 0.268256 -0.000147
vn -0.914371 0.312294 0.257677
vn -0.377622 0.245317 0.892872
vn -0.080663 -0.29157 0.953142
vn 0.227785 0.038748 0.97294
vn -0.337018 -0.925544 0.172588
vn -0.418645 -0.523126 0.742345
vn 0.08164 -0.074196 0.993896
vn 0.681524 -0.061407 -0.729215
vn 0.13683 -0.339337 -0.93066
vn 0.227773 0.038738 -0.972943
vn -0.080666 -0.291574 -0.953141
vn -0.418636 -0.523127 -0.742349
vn -0.337021 -0.925544 -0.172585
vn 0.081651 -0.074195 -0.993896
vn 0.681701 -0.061386 0.729051
vn 0.953667 0.300865 0.000169
vn 0.852746 0.414392 0.317967
vn 0.539614 -0.361251 0.76047
vn 0.852788 0.414404 -0.31784
vn 0.53961 -0.361258 -0.76047
vn 0.087638 -0.368083 0.925654
vn -0.314033 0.881995 -0.35138
vn -0.298763 0.059847 -0.952449
vn -0.529356 0.8484 -0.000227
vn -0.314072 0.882036 0.351243
vn -0.298765 0.059836 0.952449
vn -0.197628 -0.114062 0.973619
vn -0.233371 0.335288 0.912754
vn 0.172986 0.692187 0.700681
vn -0.311036 -0.497788 0.809607
vn -0.449702 -0.47973 0.753411
vn 0.456085 -0.290111 0.841321
vn 0.740014 -0.496847 0.453345
vn 0.207007 0.200958 0.957478
vn -0.610831 -0.406253 0.679591
vn 0.960738 -0.277457 -0.000209
vn 0.602967 -0.654391 -0.456294
vn -0.303489 0.952835 5.4e-005
vn -0.316369 0.591687 -0.741497
vn 0.0876419 -0.36809 -0.92565
vn -0.23337 0.335277 -0.912758
vn -0.197626 -0.114067 -0.973618
vn 0.172987 0.692183 -0.700684
vn -0.449703 -0.479733 -0.753408
vn -0.311038 -0.497789 -0.809606
vn 0.456089 -0.290107 -0.841321
vn 0.740014 -0.496848 -0.453344
vn -0.610816 -0.406257 -0.679603
vn 0.207004 0.200955 -0.957479
vn 0.602946 -0.654443 0.456246
vn -0.316281 0.591706 0.741519
vn 0.263498 0.96466 -3e-006
vn 0.644335 0.572287 0.507268
vn 0.388889 0.420399 0.819774
vn 0.644333 0.572289 -0.507268
vn 0.38889 0.42039 -0.819778
vn -0.133299 0.463209 0.876167
vn 0.056272 0.992599 -0.107618
vn 0.211611 0.91154 0.352585
vn -0.489382 0.694865 -0.526943
vn 0.005306 0.929877 0.367832
vn 0.211613 0.91154 -0.352583
vn 0.056277 0.992598 0.107617
vn -0.489384 0.694866 0.526939
vn 0.005322 0.929879 -0.367826
vn 0.462561 0.508229 0.726458
vn 0.501917 0.529323 0.68403
vn 0.56365 0.209564 0.798988
vn 0.104164 -0.720098 0.68601
vn 0.590523 0.094474 0.801472
vn -0.744581 0.448797 0.494146
vn -0.081547 0.157268 0.984183
vn -0.868182 -0.410123 -0.279389
vn -0.837714 0.458961 -0.295957
vn 0.837744 -0.44822 0.311903
vn -0.014807 0.247274 0.968832
vn 0.112655 -0.028785 0.993217
vn -0.928577 -0.247667 0.276417
vn -0.910421 0.362099 -0.200047
vn -0.194406 -0.980921 -0.00012
vn -0.282747 -0.877185 -0.388074
vn -0.739077 0.67362 0.000191
vn -0.374231 0.861031 0.344351
vn -0.630934 0.758276 0.164136
vn -0.815387 0.538883 -0.21154
vn -0.374057 0.861178 -0.344172
vn -0.630802 0.758422 -0.163965
vn -0.815373 0.538875 0.211616
vn -0.721828 0.465078 -0.512511
vn -0.133288 0.463214 -0.876166
vn 0.462559 0.508229 -0.726459
vn 0.501918 0.529323 -0.684029
vn -0.081547 0.157268 -0.984183
vn -0.744578 0.448797 -0.49415
vn 0.104168 -0.720094 -0.686013
vn -0.868182 -0.410119 0.279398
vn -0.837714 0.458961 0.295957
vn 0.563647 0.209566 -0.798989
vn 0.590522 0.094475 -0.801473
vn 0.837745 -0.448219 -0.311903
vn -0.014806 0.24728 -0.968831
vn -0.92857 -0.247668 -0.276437
vn 0.112651 -0.02878 -0.993218
vn -0.910425 0.362096 0.200031
vn -0.282644 -0.877232 0.388042
vn -0.721829 0.465076 0.51251
vn -0.747753 0.578425 -0.32602
vn -0.631573 0.249301 -0.734142
vn -0.747744 0.578436 0.326023
vn -0.631571 0.249296 0.734146
vn -0.601925 -0.198294 0.773541
vn -0.747914 -0.605742 0.271478
vn -0.82697 0.378346 0.415902
vn -0.90236 -0.194994 0.384349
vn -0.808374 -0.42952 0.402547
vn -0.703887 0.66656 0.24544
vn 0.213617 -0.942703 0.256278
vn 0.018571 -0.946276 -0.322826
vn 0.64428 -0.76479 -7.9e-005
vn 0.01853 -0.946319 0.322703
vn -0.647235 0.575992 0.49932
vn -0.820455 0.571711 -0.000732
vn -0.770492 0.312948 0.555343
vn -0.647285 0.575994 -0.499252
vn -0.770192 0.313246 -0.555591
vn -0.703885 0.666561 -0.245444
vn -0.902358 -0.194998 -0.384352
vn -0.826967 0.378347 -0.415908
vn -0.808375 -0.429515 -0.40255
vn -0.601919 -0.198276 -0.77355
vn -0.747926 -0.605725 -0.271485
vn 0.213622 -0.942701 -0.256281
vn -0.669896 0.189966 0.717741
vn -0.081636 -0.917415 0.389467
vn -0.274807 -0.924786 -0.263156
vn 0.586222 -0.810151 2.6e-005
vn -0.274803 -0.924787 0.263159
vn -0.081618 -0.917389 -0.389533
vn -0.634916 0.772579 -0.00176
vn -0.668926 0.189398 -0.718795
vn -0.154358 0.20297 0.966942
vn -0.086238 -0.042497 0.995368
vn 0.482907 -0.724805 0.491383
vn 0.046703 -0.998908 -0.001121
vn 0.482904 -0.724791 -0.491409
vn -0.086188 -0.042528 -0.995371
vn -0.785703 0.23466 0.572369
vn -0.996931 0.078274 -0.001035
vn -0.153436 0.201469 -0.967403
vn -0.784849 0.233696 -0.573932
vn -0.416376 -0.620081 0.664929
vn -0.727117 -0.686513 -0.001206
vn -0.414926 -0.619866 -0.666036
# 212 normals
usemtl Material__1
f  1//1 2//2 3//3
f  4//4 2//2 1//1
f  4//4 1//1 5//5
f  3//3 6//6 1//1
f  1//1 6//6 7//7
f  5//5 1//1 7//7
f  2//2 8//8 3//3
f  8//8 2//2 4//4
f  8//8 9//9 3//3
f  10//10 11//11 3//3
f  3//3 12//12 10//10
f  13//13 12//12 3//3
f  3//3 9//9 13//13
f  3//3 14//14 6//6
f  3//3 15//15 14//14
f  3//3 11//11 16//16
f  16//16 17//17 3//3
f  3//3 17//17 18//18
f  18//18 15//15 3//3
f  19//19 20//20 4//4
f  19//19 4//4 5//5
f  21//21 4//4 20//20
f  8//8 4//4 21//21
f  5//5 7//7 19//19
f  7//7 6//6 14//14
f  7//7 22//22 19//19
f  22//22 7//7 23//23
f  23//23 7//7 14//14
f  9//9 8//8 21//21
f  9//9 21//21 24//24
f  13//13 9//9 24//24
f  11//11 10//10 25//25
f  12//12 25//25 10//10
f  11//11 25//25 26//26
f  27//27 16//16 11//11
f  26//26 27//27 11//11
f  28//28 29//29 12//12
f  28//28 12//12 13//13
f  12//12 29//29 30//30
f  12//12 30//30 25//25
f  13//13 24//24 28//28
f  23//23 14//14 15//15
f  31//31 23//23 15//15
f  31//31 15//15 18//18
f  16//16 27//27 17//17
f  17//17 32//32 33//33
f  18//18 17//17 33//33
f  34//34 32//32 17//17
f  27//27 34//34 17//17
f  33//33 31//31 18//18
f  35//35 20//20 19//19
f  19//19 22//22 35//35
f  35//35 36//36 20//20
f  37//37 20//20 36//36
f  21//21 20//20 37//37
f  24//24 21//21 37//37
f  22//22 38//38 35//35
f  38//38 22//22 39//39
f  39//39 22//22 23//23
f  39//39 23//23 31//31
f  24//24 37//37 40//40
f  28//28 24//24 40//40
f  41//41 26//26 25//25
f  41//41 25//25 30//30
f  26//26 41//41 42//42
f  42//42 43//43 26//26
f  27//27 26//26 43//43
f  34//34 27//27 43//43
f  28//28 40//40 44//44
f  44//44 29//29 28//28
f  44//44 45//45 29//29
f  30//30 29//29 46//46
f  29//29 45//45 46//46
f  41//41 30//30 46//46
f  47//47 39//39 31//31
f  47//47 31//31 33//33
f  32//32 48//48 49//49
f  33//33 32//32 49//49
f  50//50 32//32 34//34
f  50//50 48//48 32//32
f  49//49 47//47 33//33
f  50//50 34//34 43//43
f  51//51 36//36 35//35
f  35//35 38//38 51//51
f  51//51 52//52 36//36
f  53//53 36//36 52//52
f  37//37 36//36 53//53
f  40//40 37//37 53//53
f  38//38 54//54 51//51
f  54//54 38//38 55//55
f  55//55 38//38 39//39
f  55//55 39//39 47//47
f  40//40 53//53 56//56
f  44//44 40//40 56//56
f  42//42 41//41 57//57
f  41//41 58//58 57//57
f  41//41 46//46 58//58
f  42//42 57//57 59//59
f  60//60 43//43 42//42
f  59//59 60//60 42//42
f  60//60 61//61 43//43
f  61//61 50//50 43//43
f  44//44 56//56 62//62
f  62//62 45//45 44//44
f  62//62 63//63 45//45
f  64//64 45//45 65//65
f  66//66 65//65 45//45
f  66//66 45//45 63//63
f  45//45 64//64 46//46
f  58//58 46//46 67//67
f  67//67 46//46 64//64
f  68//68 55//55 47//47
f  68//68 47//47 49//49
f  48//48 69//69 70//70
f  49//49 48//48 70//70
f  71//71 48//48 72//72
f  48//48 71//71 73//73
f  69//69 48//48 73//73
f  50//50 72//72 48//48
f  70//70 68//68 49//49
f  74//74 50//50 61//61
f  72//72 50//50 74//74
f  75//75 52//52 51//51
f  51//51 54//54 75//75
f  75//75 76//76 52//52
f  77//77 52//52 76//76
f  53//53 52//52 77//77
f  56//56 53//53 77//77
f  54//54 78//78 75//75
f  78//78 54//54 79//79
f  79//79 54//54 55//55
f  79//79 55//55 68//68
f  56//56 77//77 80//80
f  62//62 56//56 80//80
f  59//59 57//57 81//81
f  57//57 58//58 82//82
f  57//57 82//82 81//81
f  67//67 82//82 58//58
f  59//59 81//81 83//83
f  84//84 60//60 59//59
f  83//83 84//84 59//59
f  85//85 61//61 60//60
f  84//84 85//85 60//60
f  61//61 85//85 74//74
f  62//62 80//80 86//86
f  86//86 63//63 62//62
f  86//86 87//87 63//63
f  88//88 66//66 63//63
f  88//88 63//63 87//87
f  89//89 90//90 64//64
f  89//89 64//64 91//91
f  64//64 65//65 66//66
f  64//64 66//66 91//91
f  64//64 90//90 92//92
f  64//64 92//92 67//67
f  66//66 93//93 94//94
f  66//66 94//94 91//91
f  88//88 93//93 66//66
f  95//95 67//67 96//96
f  67//67 95//95 97//97
f  67//67 97//97 98//98
f  92//92 96//96 67//67
f  67//67 98//98 82//82
f  99//99 79//79 68//68
f  99//99 68//68 70//70
f  69//69 100//100 101//101
f  70//70 69//69 101//101
f  69//69 73//73 102//102
f  100//100 69//69 102//102
f  101//101 99//99 70//70
f  73//73 71//71 72//72
f  72//72 103//103 104//104
f  105//105 72//72 104//104
f  105//105 73//73 72//72
f  106//106 103//103 72//72
f  74//74 106//106 72//72
f  107//107 108//108 73//73
f  105//105 107//107 73//73
f  73//73 108//108 102//102
f  109//109 74//74 95//95
f  97//97 95//95 74//74
f  110//110 97//97 74//74
f  74//74 109//109 106//106
f  85//85 110//110 74//74
f  76//76 75//75 111//111
f  111//111 75//75 78//78
f  77//77 76//76 112//112
f  112//112 76//76 111//111
f  113//113 80//80 77//77
f  113//113 77//77 112//112
f  114//114 78//78 79//79
f  111//111 78//78 114//114
f  79//79 99//99 115//115
f  114//114 79//79 115//115
f  116//116 86//86 80//80
f  116//116 80//80 113//113
f  117//117 118//118 81//81
f  81//81 119//119 117//117
f  81//81 98//98 119//119
f  98//98 81//81 82//82
f  83//83 81//81 111//111
f  81//81 120//120 111//111
f  118//118 120//120 81//81
f  111//111 84//84 83//83
f  84//84 121//121 122//122
f  122//122 123//123 84//84
f  123//123 110//110 84//84
f  85//85 84//84 110//110
f  111//111 124//124 84//84
f  84//84 124//124 121//121
f  116//116 87//87 86//86
f  120//120 88//88 87//87
f  116//116 120//120 87//87
f  120//120 118//118 88//88
f  88//88 125//125 93//93
f  125//125 88//88 126//126
f  126//126 88//88 118//118
f  127//127 128//128 89//89
f  128//128 90//90 89//89
f  89//89 91//91 125//125
f  129//129 89//89 125//125
f  127//127 89//89 129//129
f  130//130 131//131 90//90
f  128//128 132//132 90//90
f  90//90 131//131 92//92
f  90//90 133//133 130//130
f  90//90 132//132 133//133
f  91//91 94//94 125//125
f  96//96 92//92 134//134
f  135//135 134//134 92//92
f  135//135 92//92 131//131
f  125//125 136//136 93//93
f  136//136 94//94 93//93
f  136//136 137//137 94//94
f  137//137 138//138 94//94
f  94//94 138//138 125//125
f  95//95 96//96 139//139
f  139//139 109//109 95//95
f  139//139 96//96 140//140
f  96//96 134//134 140//140
f  141//141 142//142 97//97
f  97//97 142//142 143//143
f  97//97 143//143 144//144
f  144//144 98//98 97//97
f  97//97 145//145 141//141
f  146//146 145//145 97//97
f  147//147 146//146 97//97
f  97//97 110//110 147//147
f  144//144 148//148 98//98
f  98//98 148//148 119//119
f  99//99 101//101 149//149
f  115//115 99//99 149//149
f  101//101 100//100 149//149
f  100//100 102//102 124//124
f  100//100 124//124 149//149
f  102//102 121//121 124//124
f  108//108 150//150 102//102
f  151//151 102//102 150//150
f  121//121 102//102 151//151
f  103//103 152//152 153//153
f  104//104 103//103 154//154
f  103//103 155//155 154//154
f  106//106 152//152 103//103
f  153//153 156//156 103//103
f  156//156 155//155 103//103
f  104//104 154//154 157//157
f  150//150 105//105 104//104
f  150//150 104//104 158//158
f  158//158 104//104 157//157
f  150//150 107//107 105//105
f  159//159 106//106 109//109
f  106//106 159//159 160//160
f  152//152 106//106 160//160
f  107//107 161//161 162//162
f  108//108 107//107 162//162
f  107//107 163//163 161//161
f  150//150 163//163 107//107
f  108//108 162//162 150//150
f  164//164 109//109 139//139
f  164//164 159//159 109//109
f  110//110 165//165 147//147
f  123//123 165//165 110//110
f  113//113 112//112 111//111
f  116//116 113//113 111//111
f  120//120 116//116 111//111
f  111//111 114//114 115//115
f  111//111 115//115 149//149
f  111//111 149//149 124//124
f  118//118 117//117 126//126
f  127//127 126//126 117//117
f  166//166 127//127 117//117
f  166//166 117//117 167//167
f  117//117 148//148 167//167
f  148//148 117//117 119//119
f  151//151 122//122 121//121
f  122//122 151//151 157//157
f  122//122 157//157 168//168
f  169//169 122//122 168//168
f  169//169 165//165 122//122
f  123//123 122//122 165//165
f  125//125 138//138 136//136
f  125//125 126//126 129//129
f  127//127 129//129 126//126
f  127//127 170//170 128//128
f  170//170 127//127 166//166
f  128//128 170//170 171//171
f  132//132 128//128 171//171
f  135//135 131//131 130//130
f  130//130 172//172 173//173
f  130//130 173//173 174//174
f  130//130 174//174 135//135
f  172//172 130//130 175//175
f  133//133 175//175 130//130
f  132//132 171//171 166//166
f  132//132 166//166 167//167
f  148//148 133//133 132//132
f  148//148 132//132 167//167
f  144//144 133//133 148//148
f  175//175 133//133 143//143
f  143//143 133//133 144//144
f  135//135 176//176 134//134
f  134//134 176//176 140//140
f  135//135 174//174 176//176
f  136//136 138//138 137//137
f  139//139 140//140 177//177
f  139//139 177//177 178//178
f  179//179 164//164 139//139
f  178//178 179//179 139//139
f  140//140 176//176 177//177
f  180//180 142//142 141//141
f  141//141 181//181 182//182
f  141//141 182//182 180//180
f  141//141 145//145 183//183
f  184//184 181//181 141//141
f  183//183 184//184 141//141
f  180//180 143//143 142//142
f  180//180 175//175 143//143
f  145//145 146//146 183//183
f  146//146 185//185 183//183
f  146//146 156//156 185//185
f  147//147 156//156 146//146
f  165//165 156//156 147//147
f  162//162 163//163 150//150
f  158//158 151//151 150//150
f  151//151 158//158 157//157
f  153//153 152//152 160//160
f  186//186 187//187 153//153
f  188//188 186//186 153//153
f  160//160 188//188 153//153
f  185//185 153//153 187//187
f  153//153 185//185 156//156
f  154//154 189//189 157//157
f  190//190 189//189 154//154
f  190//190 154//154 155//155
f  168//168 190//190 155//155
f  169//169 168//168 155//155
f  155//155 156//156 165//165
f  169//169 155//155 165//165
f  168//168 157//157 189//189
f  159//159 191//191 160//160
f  164//164 191//191 159//159
f  191//191 188//188 160//160
f  161//161 163//163 162//162
f  179//179 191//191 164//164
f  170//170 166//166 171//171
f  190//190 168//168 189//189
f  182//182 172//172 175//175
f  192//192 173//173 172//172
f  192//192 172//172 182//182
f  193//193 194//194 173//173
f  193//193 173//173 192//192
f  194//194 174//174 173//173
f  194//194 176//176 174//174
f  182//182 175//175 180//180
f  177//177 176//176 194//194
f  177//177 194//194 193//193
f  177//177 193//193 195//195
f  178//178 177//177 195//195
f  195//195 179//179 178//178
f  196//196 191//191 179//179
f  197//197 196//196 179//179
f  195//195 197//197 179//179
f  181//181 198//198 192//192
f  181//181 192//192 182//182
f  199//199 198//198 181//181
f  184//184 199//199 181//181
f  183//183 185//185 184//184
f  185//185 187//187 184//184
f  184//184 187//187 199//199
f  187//187 186//186 199//199
f  186//186 196//196 197//197
f  199//199 186//186 197//197
f  186//186 188//188 196//196
f  188//188 191//191 196//196
f  198//198 200//200 192//192
f  201//201 193//193 192//192
f  201//201 192//192 200//200
f  202//202 195//195 193//193
f  202//202 193//193 201//201
f  195//195 202//202 203//203
f  203//203 204//204 195//195
f  197//197 195//195 204//204
f  199//199 197//197 205//205
f  205//205 197//197 204//204
f  198//198 206//206 200//200
f  207//207 206//206 198//198
f  208//208 209//209 198//198
f  199//199 208//208 198//198
f  198//198 209//209 207//207
f  208//208 199//199 205//205
f  202//202 201//201 200//200
f  202//202 200//200 210//210
f  206//206 210//210 200//200
f  203//203 202//202 210//210
f  203//203 210//210 211//211
f  212//212 204//204 203//203
f  211//211 212//212 203//203
f  208//208 205//205 204//204
f  212//212 208//208 204//204
f  211//211 210//210 206//206
f  211//211 206//206 207//207
f  207//207 209//209 211//211
f  208//208 212//212 209//209
f  209//209 212//212 211//211
