#VRML V2.0 utf8 
Transform { 
 children [ 
    Shape { 
appearance Appearance {
              material DEF surface Material {
              diffuseColor 0.8 0.8 0.8
              ambientIntensity 0.2
              specularColor 0.4 0.4 0.4
              emissiveColor 0 0 0
              shininess 0.25
              transparency 0
            }
          }
   geometry IndexedFaceSet { 
   solid FALSE 
    coord DEF bone Coordinate{ 
     point [ 
	 -0.048416   0.317398   0.000620,
	 -0.048914   0.317829   0.007455,
	 -0.059101   0.321052   0.000601,
	 -0.047028   0.320596   0.008824,
	 -0.047427   0.318378   0.000621,
	 -0.048914   0.317829  -0.006258,
	 -0.047028   0.320596  -0.007627,
	 -0.052014   0.319367   0.014569,
	 -0.057133   0.321321   0.018029,
	 -0.068833   0.323678   0.004721,
	 -0.068873   0.323934   0.000601,
	 -0.069063   0.323972   0.012734,
	 -0.065394   0.323862   0.018122,
	 -0.052014   0.319367  -0.013372,
	 -0.057133   0.321321  -0.016832,
	 -0.068833   0.323678  -0.003524,
	 -0.069063   0.323972  -0.011537,
	 -0.065394   0.323862  -0.016925,
	 -0.046938   0.322133   0.000621,
	 -0.047857   0.322860   0.009404,
	 -0.050868   0.322666   0.015440,
	 -0.047857   0.322860  -0.008207,
	 -0.050868   0.322666  -0.014243,
	 -0.056895   0.325437   0.018625,
	 -0.071055   0.327363   0.004842,
	 -0.071055   0.327255   0.000601,
	 -0.071055   0.327363  -0.003645,
	 -0.065217   0.328350   0.018753,
	 -0.071203   0.325242   0.014228,
	 -0.071471   0.328738   0.008663,
	 -0.056895   0.325437  -0.017428,
	 -0.071203   0.325242  -0.013031,
	 -0.065217   0.328350  -0.017556,
	 -0.071471   0.328738  -0.007466,
	 -0.044651   0.329550   0.000623,
	 -0.045964   0.329130   0.009097,
	 -0.051690   0.325404   0.015070,
	 -0.045964   0.329130  -0.007900,
	 -0.051690   0.325404  -0.013873,
	 -0.056060   0.328727   0.016998,
	 -0.069311   0.332886   0.006039,
	 -0.068925   0.332762   0.000602,
	 -0.069311   0.332886  -0.004842,
	 -0.064334   0.331171   0.017781,
	 -0.068706   0.331507   0.016846,
	 -0.070611   0.333869   0.008920,
	 -0.056061   0.328727  -0.015801,
	 -0.068706   0.331507  -0.015649,
	 -0.064334   0.331171  -0.016584,
	 -0.070611   0.333869  -0.007723,
	 -0.043395   0.332351   0.000624,
	 -0.043954   0.332236   0.009999,
	 -0.050326   0.331287   0.015626,
	 -0.043954   0.332236  -0.008802,
	 -0.050326   0.331287  -0.014429,
	 -0.054055   0.332863   0.017073,
	 -0.065879   0.339062   0.006220,
	 -0.067297   0.339984   0.009299,
	 -0.065300   0.338922   0.000605,
	 -0.065879   0.339062  -0.005023,
	 -0.067297   0.339984  -0.008102,
	 -0.061707   0.336201   0.017905,
	 -0.065134   0.338381   0.018241,
	 -0.072755   0.332660   0.015235,
	 -0.070685   0.334286   0.018543,
	 -0.068000   0.338385   0.022056,
	 -0.075670   0.337352   0.003792,
	 -0.054055   0.332863  -0.015876,
	 -0.065134   0.338381  -0.017044,
	 -0.061707   0.336201  -0.016708,
	 -0.070685   0.334286  -0.017346,
	 -0.072755   0.332660  -0.014038,
	 -0.068000   0.338385  -0.020859,
	 -0.075670   0.337352  -0.002595,
	 -0.042554   0.335703   0.000625,
	 -0.043245   0.335775   0.010172,
	 -0.048025   0.333514   0.016505,
	 -0.043245   0.335775  -0.008975,
	 -0.048025   0.333514  -0.015308,
	 -0.052830   0.334978   0.018814,
	 -0.064723   0.344625   0.007766,
	 -0.065673   0.343570   0.009940,
	 -0.063654   0.343436   0.000606,
	 -0.064723   0.344625  -0.006569,
	 -0.065673   0.343570  -0.008743,
	 -0.059097   0.338732   0.019693,
	 -0.062805   0.340107   0.017648,
	 -0.067351   0.342941   0.017688,
	 -0.077343   0.341006   0.020406,
	 -0.076852   0.337353   0.015319,
	 -0.076189   0.331967   0.021786,
	 -0.074846   0.331254   0.009620,
	 -0.073496   0.338652   0.020976,
	 -0.076285   0.333892   0.019123,
	 -0.077553   0.333433   0.000602,
	 -0.082674   0.325374   0.004980,
	 -0.081995   0.340686   0.000603,
	 -0.076121   0.342447   0.007209,
	 -0.052830   0.334978  -0.017617,
	 -0.062805   0.340107  -0.016451,
	 -0.059097   0.338732  -0.018496,
	 -0.067351   0.342941  -0.016491,
	 -0.076852   0.337353  -0.014122,
	 -0.077343   0.341006  -0.019209,
	 -0.076189   0.331967  -0.020588,
	 -0.074846   0.331254  -0.008423,
	 -0.076285   0.333892  -0.017926,
	 -0.073496   0.338652  -0.019779,
	 -0.082674   0.325374  -0.003782,
	 -0.076121   0.342447  -0.006012,
	 -0.054181   0.340489   0.000607,
	 -0.047123   0.337152   0.016725,
	 -0.052402   0.339413   0.019694,
	 -0.047123   0.337152  -0.015528,
	 -0.052402   0.339413  -0.018497,
	 -0.059374   0.341834   0.019811,
	 -0.073322   0.348918   0.014303,
	 -0.066737   0.344204   0.012679,
	 -0.073703   0.346853   0.009218,
	 -0.063380   0.343685   0.015261,
	 -0.066737   0.344204  -0.011482,
	 -0.073322   0.348918  -0.013106,
	 -0.073703   0.346853  -0.008021,
	 -0.063380   0.343685  -0.014064,
	 -0.074121   0.343352   0.018787,
	 -0.072723   0.345384   0.016354,
	 -0.083516   0.353362   0.032461,
	 -0.081067   0.343590   0.018664,
	 -0.076032   0.345323   0.018820,
	 -0.087667   0.332213   0.011427,
	 -0.084263   0.332729   0.013854,
	 -0.086026   0.346299   0.022293,
	 -0.080299   0.341143   0.011459,
	 -0.075680   0.329876   0.010875,
	 -0.088377   0.329188   0.015199,
	 -0.076378   0.339967   0.023137,
	 -0.078067   0.338795   0.021152,
	 -0.077397   0.344311   0.021442,
	 -0.083665   0.329896   0.000601,
	 -0.082674   0.324544   0.006339,
	 -0.092728   0.333743   0.000602,
	 -0.083548   0.338366   0.004845,
	 -0.080795   0.336507   0.007708,
	 -0.079875   0.339683   0.009509,
	 -0.083548   0.338366  -0.003648,
	 -0.080795   0.336507  -0.006511,
	 -0.079875   0.339683  -0.008312,
	 -0.076845   0.343132   0.010321,
	 -0.059374   0.341834  -0.018614,
	 -0.074121   0.343352  -0.017590,
	 -0.072723   0.345384  -0.015157,
	 -0.084263   0.332729  -0.012657,
	 -0.087667   0.332213  -0.010230,
	 -0.081067   0.343590  -0.017467,
	 -0.086026   0.346299  -0.021096,
	 -0.080299   0.341143  -0.010262,
	 -0.083516   0.353362  -0.031182,
	 -0.076032   0.345323  -0.017623,
	 -0.075680   0.329876  -0.009678,
	 -0.088377   0.329188  -0.014002,
	 -0.078067   0.338795  -0.019955,
	 -0.076378   0.339967  -0.021940,
	 -0.077397   0.344311  -0.020245,
	 -0.082674   0.324544  -0.005142,
	 -0.076845   0.343132  -0.009124,
	 -0.088439   0.352602   0.027311,
	 -0.079480   0.345560   0.012524,
	 -0.088439   0.352602  -0.026033,
	 -0.079480   0.345560  -0.011327,
	 -0.087351   0.351012   0.035898,
	 -0.089193   0.349831   0.028037,
	 -0.090092   0.330815   0.009388,
	 -0.091167   0.327565   0.008916,
	 -0.089696   0.324342   0.014991,
	 -0.087128   0.333691   0.008179,
	 -0.084035   0.323219   0.012008,
	 -0.083862   0.327505   0.005164,
	 -0.086460   0.326230   0.000600,
	 -0.083862   0.327505  -0.003967,
	 -0.091019   0.335137   0.004184,
	 -0.100588   0.326657   0.000585,
	 -0.091704   0.331774   0.004087,
	 -0.091019   0.335137  -0.002987,
	 -0.091704   0.331774  -0.002890,
	 -0.087128   0.333691  -0.006982,
	 -0.091167   0.327565  -0.007719,
	 -0.090092   0.330815  -0.008192,
	 -0.089696   0.324342  -0.013794,
	 -0.087351   0.351012  -0.034620,
	 -0.089193   0.349831  -0.026759,
	 -0.084035   0.323219  -0.010811,
	 -0.092735   0.328691   0.004238,
	 -0.092435   0.326876   0.004865,
	 -0.088806   0.324489   0.007142,
	 -0.093334   0.323239   0.000598,
	 -0.088806   0.324489  -0.005945,
	 -0.092435   0.326876  -0.003668,
	 -0.106807   0.320523   0.000621,
	 -0.092735   0.328691  -0.003041,
	 -0.102257   0.318282   0.003395,
	 -0.096048   0.322207   0.004573,
	 -0.104352   0.312720   0.002787,
	 -0.104909   0.312661   0.000636,
	 -0.104352   0.312720  -0.001509,
	 -0.096048   0.322207  -0.003376,
	 -0.109251   0.318451   0.003426,
	 -0.110123   0.317651   0.000626,
	 -0.102257   0.318282  -0.002116,
	 -0.109251   0.318451  -0.002147,
	 -0.108700   0.315385   0.003884,
	 -0.107552   0.313669   0.000620,
	 -0.108700   0.315385  -0.002606,
     ]    } 
    coordIndex [ 
	     0,      1,      2, -1 
	     3,      1,      0, -1 
	     3,      0,      4, -1 
	     2,      5,      0, -1 
	     0,      5,      6, -1 
	     4,      0,      6, -1 
	     1,      7,      2, -1 
	     7,      1,      3, -1 
	     7,      8,      2, -1 
	     9,     10,      2, -1 
	     2,     11,      9, -1 
	    12,     11,      2, -1 
	     2,      8,     12, -1 
	     2,     13,      5, -1 
	     2,     14,     13, -1 
	     2,     10,     15, -1 
	    15,     16,      2, -1 
	     2,     16,     17, -1 
	    17,     14,      2, -1 
	    18,     19,      3, -1 
	    18,      3,      4, -1 
	    20,      3,     19, -1 
	     7,      3,     20, -1 
	     4,      6,     18, -1 
	     6,      5,     13, -1 
	     6,     21,     18, -1 
	    21,      6,     22, -1 
	    22,      6,     13, -1 
	     8,      7,     20, -1 
	     8,     20,     23, -1 
	    12,      8,     23, -1 
	    10,      9,     24, -1 
	    11,     24,      9, -1 
	    10,     24,     25, -1 
	    26,     15,     10, -1 
	    25,     26,     10, -1 
	    27,     28,     11, -1 
	    27,     11,     12, -1 
	    11,     28,     29, -1 
	    11,     29,     24, -1 
	    12,     23,     27, -1 
	    22,     13,     14, -1 
	    30,     22,     14, -1 
	    30,     14,     17, -1 
	    15,     26,     16, -1 
	    16,     31,     32, -1 
	    17,     16,     32, -1 
	    33,     31,     16, -1 
	    26,     33,     16, -1 
	    32,     30,     17, -1 
	    34,     19,     18, -1 
	    18,     21,     34, -1 
	    34,     35,     19, -1 
	    36,     19,     35, -1 
	    20,     19,     36, -1 
	    23,     20,     36, -1 
	    21,     37,     34, -1 
	    37,     21,     38, -1 
	    38,     21,     22, -1 
	    38,     22,     30, -1 
	    23,     36,     39, -1 
	    27,     23,     39, -1 
	    40,     25,     24, -1 
	    40,     24,     29, -1 
	    25,     40,     41, -1 
	    41,     42,     25, -1 
	    26,     25,     42, -1 
	    33,     26,     42, -1 
	    27,     39,     43, -1 
	    43,     28,     27, -1 
	    43,     44,     28, -1 
	    29,     28,     45, -1 
	    28,     44,     45, -1 
	    40,     29,     45, -1 
	    46,     38,     30, -1 
	    46,     30,     32, -1 
	    31,     47,     48, -1 
	    32,     31,     48, -1 
	    49,     31,     33, -1 
	    49,     47,     31, -1 
	    48,     46,     32, -1 
	    49,     33,     42, -1 
	    50,     35,     34, -1 
	    34,     37,     50, -1 
	    50,     51,     35, -1 
	    52,     35,     51, -1 
	    36,     35,     52, -1 
	    39,     36,     52, -1 
	    37,     53,     50, -1 
	    53,     37,     54, -1 
	    54,     37,     38, -1 
	    54,     38,     46, -1 
	    39,     52,     55, -1 
	    43,     39,     55, -1 
	    41,     40,     56, -1 
	    40,     57,     56, -1 
	    40,     45,     57, -1 
	    41,     56,     58, -1 
	    59,     42,     41, -1 
	    58,     59,     41, -1 
	    59,     60,     42, -1 
	    60,     49,     42, -1 
	    43,     55,     61, -1 
	    61,     44,     43, -1 
	    61,     62,     44, -1 
	    63,     44,     64, -1 
	    65,     64,     44, -1 
	    65,     44,     62, -1 
	    44,     63,     45, -1 
	    57,     45,     66, -1 
	    66,     45,     63, -1 
	    67,     54,     46, -1 
	    67,     46,     48, -1 
	    47,     68,     69, -1 
	    48,     47,     69, -1 
	    70,     47,     71, -1 
	    47,     70,     72, -1 
	    68,     47,     72, -1 
	    49,     71,     47, -1 
	    69,     67,     48, -1 
	    73,     49,     60, -1 
	    71,     49,     73, -1 
	    74,     51,     50, -1 
	    50,     53,     74, -1 
	    74,     75,     51, -1 
	    76,     51,     75, -1 
	    52,     51,     76, -1 
	    55,     52,     76, -1 
	    53,     77,     74, -1 
	    77,     53,     78, -1 
	    78,     53,     54, -1 
	    78,     54,     67, -1 
	    55,     76,     79, -1 
	    61,     55,     79, -1 
	    58,     56,     80, -1 
	    56,     57,     81, -1 
	    56,     81,     80, -1 
	    66,     81,     57, -1 
	    58,     80,     82, -1 
	    83,     59,     58, -1 
	    82,     83,     58, -1 
	    84,     60,     59, -1 
	    83,     84,     59, -1 
	    60,     84,     73, -1 
	    61,     79,     85, -1 
	    85,     62,     61, -1 
	    85,     86,     62, -1 
	    87,     65,     62, -1 
	    87,     62,     86, -1 
	    88,     89,     63, -1 
	    88,     63,     90, -1 
	    63,     64,     65, -1 
	    63,     65,     90, -1 
	    63,     89,     91, -1 
	    63,     91,     66, -1 
	    65,     92,     93, -1 
	    65,     93,     90, -1 
	    87,     92,     65, -1 
	    94,     66,     95, -1 
	    66,     94,     96, -1 
	    66,     96,     97, -1 
	    91,     95,     66, -1 
	    66,     97,     81, -1 
	    98,     78,     67, -1 
	    98,     67,     69, -1 
	    68,     99,    100, -1 
	    69,     68,    100, -1 
	    68,     72,    101, -1 
	    99,     68,    101, -1 
	   100,     98,     69, -1 
	    72,     70,     71, -1 
	    71,    102,    103, -1 
	   104,     71,    103, -1 
	   104,     72,     71, -1 
	   105,    102,     71, -1 
	    73,    105,     71, -1 
	   106,    107,     72, -1 
	   104,    106,     72, -1 
	    72,    107,    101, -1 
	   108,     73,     94, -1 
	    96,     94,     73, -1 
	   109,     96,     73, -1 
	    73,    108,    105, -1 
	    84,    109,     73, -1 
	    75,     74,    110, -1 
	   110,     74,     77, -1 
	    76,     75,    111, -1 
	   111,     75,    110, -1 
	   112,     79,     76, -1 
	   112,     76,    111, -1 
	   113,     77,     78, -1 
	   110,     77,    113, -1 
	    78,     98,    114, -1 
	   113,     78,    114, -1 
	   115,     85,     79, -1 
	   115,     79,    112, -1 
	   116,    117,     80, -1 
	    80,    118,    116, -1 
	    80,     97,    118, -1 
	    97,     80,     81, -1 
	    82,     80,    110, -1 
	    80,    119,    110, -1 
	   117,    119,     80, -1 
	   110,     83,     82, -1 
	    83,    120,    121, -1 
	   121,    122,     83, -1 
	   122,    109,     83, -1 
	    84,     83,    109, -1 
	   110,    123,     83, -1 
	    83,    123,    120, -1 
	   115,     86,     85, -1 
	   119,     87,     86, -1 
	   115,    119,     86, -1 
	   119,    117,     87, -1 
	    87,    124,     92, -1 
	   124,     87,    125, -1 
	   125,     87,    117, -1 
	   126,    127,     88, -1 
	   127,     89,     88, -1 
	    88,     90,    124, -1 
	   128,     88,    124, -1 
	   126,     88,    128, -1 
	   129,    130,     89, -1 
	   127,    131,     89, -1 
	    89,    130,     91, -1 
	    89,    132,    129, -1 
	    89,    131,    132, -1 
	    90,     93,    124, -1 
	    95,     91,    133, -1 
	   134,    133,     91, -1 
	   134,     91,    130, -1 
	   124,    135,     92, -1 
	   135,     93,     92, -1 
	   135,    136,     93, -1 
	   136,    137,     93, -1 
	    93,    137,    124, -1 
	    94,     95,    138, -1 
	   138,    108,     94, -1 
	   138,     95,    139, -1 
	    95,    133,    139, -1 
	   140,    141,     96, -1 
	    96,    141,    142, -1 
	    96,    142,    143, -1 
	   143,     97,     96, -1 
	    96,    144,    140, -1 
	   145,    144,     96, -1 
	   146,    145,     96, -1 
	    96,    109,    146, -1 
	   143,    147,     97, -1 
	    97,    147,    118, -1 
	    98,    100,    148, -1 
	   114,     98,    148, -1 
	   100,     99,    148, -1 
	    99,    101,    123, -1 
	    99,    123,    148, -1 
	   101,    120,    123, -1 
	   107,    149,    101, -1 
	   150,    101,    149, -1 
	   120,    101,    150, -1 
	   102,    151,    152, -1 
	   103,    102,    153, -1 
	   102,    154,    153, -1 
	   105,    151,    102, -1 
	   152,    155,    102, -1 
	   155,    154,    102, -1 
	   103,    153,    156, -1 
	   149,    104,    103, -1 
	   149,    103,    157, -1 
	   157,    103,    156, -1 
	   149,    106,    104, -1 
	   158,    105,    108, -1 
	   105,    158,    159, -1 
	   151,    105,    159, -1 
	   106,    160,    161, -1 
	   107,    106,    161, -1 
	   106,    162,    160, -1 
	   149,    162,    106, -1 
	   107,    161,    149, -1 
	   163,    108,    138, -1 
	   163,    158,    108, -1 
	   109,    164,    146, -1 
	   122,    164,    109, -1 
	   112,    111,    110, -1 
	   115,    112,    110, -1 
	   119,    115,    110, -1 
	   110,    113,    114, -1 
	   110,    114,    148, -1 
	   110,    148,    123, -1 
	   117,    116,    125, -1 
	   126,    125,    116, -1 
	   165,    126,    116, -1 
	   165,    116,    166, -1 
	   116,    147,    166, -1 
	   147,    116,    118, -1 
	   150,    121,    120, -1 
	   121,    150,    156, -1 
	   121,    156,    167, -1 
	   168,    121,    167, -1 
	   168,    164,    121, -1 
	   122,    121,    164, -1 
	   124,    137,    135, -1 
	   124,    125,    128, -1 
	   126,    128,    125, -1 
	   126,    169,    127, -1 
	   169,    126,    165, -1 
	   127,    169,    170, -1 
	   131,    127,    170, -1 
	   134,    130,    129, -1 
	   129,    171,    172, -1 
	   129,    172,    173, -1 
	   129,    173,    134, -1 
	   171,    129,    174, -1 
	   132,    174,    129, -1 
	   131,    170,    165, -1 
	   131,    165,    166, -1 
	   147,    132,    131, -1 
	   147,    131,    166, -1 
	   143,    132,    147, -1 
	   174,    132,    142, -1 
	   142,    132,    143, -1 
	   134,    175,    133, -1 
	   133,    175,    139, -1 
	   134,    173,    175, -1 
	   135,    137,    136, -1 
	   138,    139,    176, -1 
	   138,    176,    177, -1 
	   178,    163,    138, -1 
	   177,    178,    138, -1 
	   139,    175,    176, -1 
	   179,    141,    140, -1 
	   140,    180,    181, -1 
	   140,    181,    179, -1 
	   140,    144,    182, -1 
	   183,    180,    140, -1 
	   182,    183,    140, -1 
	   179,    142,    141, -1 
	   179,    174,    142, -1 
	   144,    145,    182, -1 
	   145,    184,    182, -1 
	   145,    155,    184, -1 
	   146,    155,    145, -1 
	   164,    155,    146, -1 
	   161,    162,    149, -1 
	   157,    150,    149, -1 
	   150,    157,    156, -1 
	   152,    151,    159, -1 
	   185,    186,    152, -1 
	   187,    185,    152, -1 
	   159,    187,    152, -1 
	   184,    152,    186, -1 
	   152,    184,    155, -1 
	   153,    188,    156, -1 
	   189,    188,    153, -1 
	   189,    153,    154, -1 
	   167,    189,    154, -1 
	   168,    167,    154, -1 
	   154,    155,    164, -1 
	   168,    154,    164, -1 
	   167,    156,    188, -1 
	   158,    190,    159, -1 
	   163,    190,    158, -1 
	   190,    187,    159, -1 
	   160,    162,    161, -1 
	   178,    190,    163, -1 
	   169,    165,    170, -1 
	   189,    167,    188, -1 
	   181,    171,    174, -1 
	   191,    172,    171, -1 
	   191,    171,    181, -1 
	   192,    193,    172, -1 
	   192,    172,    191, -1 
	   193,    173,    172, -1 
	   193,    175,    173, -1 
	   181,    174,    179, -1 
	   176,    175,    193, -1 
	   176,    193,    192, -1 
	   176,    192,    194, -1 
	   177,    176,    194, -1 
	   194,    178,    177, -1 
	   195,    190,    178, -1 
	   196,    195,    178, -1 
	   194,    196,    178, -1 
	   180,    197,    191, -1 
	   180,    191,    181, -1 
	   198,    197,    180, -1 
	   183,    198,    180, -1 
	   182,    184,    183, -1 
	   184,    186,    183, -1 
	   183,    186,    198, -1 
	   186,    185,    198, -1 
	   185,    195,    196, -1 
	   198,    185,    196, -1 
	   185,    187,    195, -1 
	   187,    190,    195, -1 
	   197,    199,    191, -1 
	   200,    192,    191, -1 
	   200,    191,    199, -1 
	   201,    194,    192, -1 
	   201,    192,    200, -1 
	   194,    201,    202, -1 
	   202,    203,    194, -1 
	   196,    194,    203, -1 
	   198,    196,    204, -1 
	   204,    196,    203, -1 
	   197,    205,    199, -1 
	   206,    205,    197, -1 
	   207,    208,    197, -1 
	   198,    207,    197, -1 
	   197,    208,    206, -1 
	   207,    198,    204, -1 
	   201,    200,    199, -1 
	   201,    199,    209, -1 
	   205,    209,    199, -1 
	   202,    201,    209, -1 
	   202,    209,    210, -1 
	   211,    203,    202, -1 
	   210,    211,    202, -1 
	   207,    204,    203, -1 
	   211,    207,    203, -1 
	   210,    209,    205, -1 
	   210,    205,    206, -1 
	   206,    208,    210, -1 
	   207,    211,    208, -1 
	   208,    211,    210, -1 
    ] 
   colorPerVertex FALSE 
    colorIndex [ 
	  1, 
	  1, 
	  1, 
	  1, 
	  1, 
	  1, 
	  1, 
	  1, 
	  1, 
	  1, 
	  1, 
	  1, 
	  1, 
	  1, 
	  1, 
	  1, 
	  1, 
	  1, 
	  1, 
	  1, 
	  1, 
	  1, 
	  1, 
	  1, 
	  1, 
	  1, 
	  1, 
	  1, 
	  1, 
	  1, 
	  1, 
	  1, 
	  1, 
	  1, 
	  1, 
	  1, 
	  1, 
	  1, 
	  1, 
	  1, 
	  1, 
	  1, 
	  1, 
	  1, 
	  1, 
	  1, 
	  1, 
	  1, 
	  1, 
	  1, 
	  1, 
	  1, 
	  1, 
	  1, 
	  1, 
	  1, 
	  1, 
	  1, 
	  1, 
	  1, 
	  1, 
	  1, 
	  1, 
	  1, 
	  1, 
	  1, 
	  1, 
	  1, 
	  1, 
	  1, 
	  1, 
	  1, 
	  1, 
	  1, 
	  1, 
	  1, 
	  1, 
	  1, 
	  1, 
	  1, 
	  1, 
	  1, 
	  1, 
	  1, 
	  1, 
	  1, 
	  1, 
	  1, 
	  1, 
	  1, 
	  1, 
	  1, 
	  1, 
	  1, 
	  1, 
	  1, 
	  1, 
	  1, 
	  1, 
	  1, 
	  1, 
	  1, 
	  1, 
	  1, 
	  1, 
	  1, 
	  1, 
	  1, 
	  1, 
	  1, 
	  1, 
	  1, 
	  1, 
	  1, 
	  1, 
	  1, 
	  1, 
	  1, 
	  1, 
	  1, 
	  1, 
	  1, 
	  1, 
	  1, 
	  1, 
	  1, 
	  1, 
	  1, 
	  1, 
	  1, 
	  1, 
	  1, 
	  1, 
	  1, 
	  1, 
	  1, 
	  1, 
	  1, 
	  1, 
	  1, 
	  1, 
	  1, 
	  1, 
	  1, 
	  1, 
	  1, 
	  1, 
	  1, 
	  1, 
	  1, 
	  1, 
	  1, 
	  1, 
	  1, 
	  1, 
	  1, 
	  1, 
	  1, 
	  1, 
	  1, 
	  1, 
	  1, 
	  1, 
	  1, 
	  1, 
	  1, 
	  1, 
	  1, 
	  1, 
	  1, 
	  1, 
	  1, 
	  1, 
	  1, 
	  1, 
	  1, 
	  1, 
	  1, 
	  1, 
	  1, 
	  1, 
	  1, 
	  1, 
	  1, 
	  1, 
	  1, 
	  1, 
	  1, 
	  1, 
	  1, 
	  1, 
	  1, 
	  1, 
	  1, 
	  1, 
	  1, 
	  1, 
	  1, 
	  1, 
	  1, 
	  1, 
	  1, 
	  1, 
	  1, 
	  1, 
	  1, 
	  1, 
	  1, 
	  1, 
	  1, 
	  1, 
	  1, 
    ] 
normal Normal { 
vector [ 
	  0.463554  -0.886069   0.000329,
	  0.238564  -0.953274   0.185353,
	 -0.283762  -0.958895   0.000015,
	  0.909800  -0.310106   0.275859,
	  0.897086  -0.441855   0.000214,
	  0.238664  -0.953294  -0.185122,
	  0.909898  -0.310060  -0.275586,
	  0.285428  -0.829383   0.480265,
	  0.046071  -0.671527   0.739547,
	 -0.604515  -0.796441  -0.015577,
	 -0.698625  -0.715488  -0.000014,
	 -0.638073  -0.752134   0.164796,
	 -0.360123  -0.600972   0.713543,
	  0.285426  -0.829385  -0.480262,
	  0.046076  -0.671525  -0.739548,
	 -0.604513  -0.796443   0.015551,
	 -0.638070  -0.752137  -0.164792,
	 -0.360119  -0.600970  -0.713547,
	  0.999459  -0.032886   0.000161,
	  0.946653   0.012533   0.322010,
	  0.695248  -0.023727   0.718378,
	  0.946751   0.012540  -0.321722,
	  0.695248  -0.023735  -0.718378,
	  0.282111   0.088732   0.955270,
	 -0.968440  -0.246759  -0.035131,
	 -0.999133   0.041631  -0.000019,
	 -0.968440  -0.246760   0.035127,
	 -0.262726   0.025497   0.964534,
	 -0.825988  -0.218541   0.519600,
	 -0.976778  -0.091941  -0.193525,
	  0.282109   0.088735  -0.955270,
	 -0.825988  -0.218541  -0.519599,
	 -0.262726   0.025491  -0.964534,
	 -0.976778  -0.091940   0.193526,
	  0.944138  -0.329551   0.000348,
	  0.845289  -0.390695   0.364477,
	  0.670197   0.043566   0.740904,
	  0.845392  -0.390720  -0.364212,
	  0.670193   0.043563  -0.740907,
	  0.267836   0.097193   0.958550,
	 -0.889950   0.371636  -0.264341,
	 -0.891577   0.452869  -0.000074,
	 -0.889960   0.371632   0.264312,
	 -0.140165   0.064194   0.988045,
	 -0.243579  -0.490257   0.836850,
	 -0.852928  -0.275821  -0.443211,
	  0.267834   0.097193  -0.958550,
	 -0.243582  -0.490260  -0.836847,
	 -0.140170   0.064192  -0.988044,
	 -0.852929  -0.275824   0.443208,
	  0.914123  -0.405438   0.000204,
	  0.841344  -0.439100   0.315169,
	  0.465886  -0.411649   0.783260,
	  0.841397  -0.439106  -0.315019,
	  0.465884  -0.411648  -0.783261,
	  0.099253  -0.351308   0.930984,
	 -0.878127   0.402478  -0.258658,
	 -0.333403   0.274962  -0.901798,
	 -0.931671   0.363304  -0.000148,
	 -0.878158   0.402467   0.258571,
	 -0.333402   0.274955   0.901800,
	 -0.111824  -0.282007   0.952873,
	  0.230624   0.015701   0.972916,
	 -0.468771  -0.871845   0.141916,
	 -0.558576  -0.418313   0.716245,
	  0.034745  -0.024869   0.999087,
	  0.680252  -0.149162  -0.717641,
	  0.099252  -0.351316  -0.930981,
	  0.230626   0.015699  -0.972916,
	 -0.111825  -0.282005  -0.952874,
	 -0.558566  -0.418324  -0.716247,
	 -0.468771  -0.871845  -0.141915,
	  0.034750  -0.024876  -0.999086,
	  0.680425  -0.149156   0.717477,
	  0.979184   0.202975   0.000169,
	  0.890717   0.325273   0.317523,
	  0.498354  -0.413700   0.761903,
	  0.890759   0.325286  -0.317392,
	  0.498352  -0.413707  -0.761900,
	  0.047250  -0.374998   0.925821,
	 -0.213949   0.912229  -0.349376,
	 -0.270031   0.081615  -0.959387,
	 -0.438301   0.898828  -0.000227,
	 -0.213980   0.912274   0.349241,
	 -0.270023   0.081613   0.959389,
	 -0.208827  -0.093720   0.973452,
	 -0.196161   0.356924   0.913305,
	  0.238605   0.673098   0.700005,
	 -0.364532  -0.466311   0.806021,
	 -0.530129  -0.405491   0.744675,
	  0.414629  -0.280910   0.865547,
	  0.682221  -0.566279   0.462497,
	  0.212651   0.182368   0.959959,
	 -0.658642  -0.331694   0.675404,
	  0.919277  -0.393611  -0.000220,
	  0.527388  -0.714444  -0.459817,
	 -0.213742   0.976890   0.000050,
	 -0.249011   0.625576  -0.739356,
	  0.047243  -0.375001  -0.925820,
	 -0.196151   0.356928  -0.913306,
	 -0.208820  -0.093713  -0.973454,
	  0.238606   0.673103  -0.700000,
	 -0.530126  -0.405495  -0.744674,
	 -0.364624  -0.465517  -0.806439,
	  0.414608  -0.280919  -0.865554,
	  0.682223  -0.566270  -0.462504,
	 -0.658646  -0.331698  -0.675397,
	  0.212658   0.182363  -0.959959,
	  0.527367  -0.714500   0.459753,
	 -0.248918   0.625582   0.739383,
	  0.365539   0.930796  -0.000003,
	  0.700784   0.502260   0.506593,
	  0.431332   0.377696   0.819328,
	  0.700783   0.502269  -0.506586,
	  0.431330   0.377701  -0.819327,
	 -0.083106   0.473145   0.877056,
	  0.185857   0.974334  -0.127007,
	  0.322864   0.879385   0.349917,
	 -0.420710   0.740596  -0.523946,
	  0.105417   0.923846   0.367961,
	  0.322864   0.879385  -0.349916,
	  0.186025   0.974271   0.127242,
	 -0.420710   0.740596   0.523946,
	  0.105436   0.923848  -0.367951,
	  0.511238   0.453325   0.730159,
	  0.572315   0.468840   0.672789,
	  0.632815   0.126966   0.763822,
	 -0.116941  -0.790862   0.600718,
	  0.609675   0.015652   0.792497,
	 -0.714087   0.525496   0.462530,
	 -0.121575   0.224217   0.966926,
	 -0.908749  -0.330825  -0.254422,
	 -0.799975   0.523453  -0.293320,
	  0.786412  -0.535633   0.307656,
	 -0.009945   0.251707   0.967753,
	  0.108435  -0.040322   0.993286,
	 -0.948961  -0.154093   0.275189,
	 -0.869577   0.450552  -0.202087,
	 -0.266278  -0.963896  -0.000120,
	 -0.371034  -0.844128  -0.387017,
	 -0.686296   0.727322   0.000195,
	 -0.319900   0.878646   0.354464,
	 -0.578102   0.796109   0.178910,
	 -0.755372   0.619822  -0.212684,
	 -0.319720   0.878783  -0.354287,
	 -0.577974   0.796238  -0.178749,
	 -0.755364   0.619810   0.212745,
	 -0.674277   0.524995  -0.519356,
	 -0.083101   0.473150  -0.877054,
	  0.511231   0.453334  -0.730159,
	  0.571931   0.469255  -0.672826,
	 -0.121570   0.224223  -0.966925,
	 -0.714086   0.525491  -0.462537,
	 -0.115297  -0.789130  -0.603309,
	 -0.908023  -0.333284   0.253804,
	 -0.799982   0.523449   0.293308,
	  0.631495   0.129230  -0.764535,
	  0.609180   0.017037  -0.792849,
	  0.786409  -0.535635  -0.307662,
	 -0.009943   0.251714  -0.967751,
	 -0.948970  -0.154088  -0.275161,
	  0.108430  -0.040326  -0.993286,
	 -0.869567   0.450558   0.202118,
	 -0.370929  -0.844193   0.386977,
	 -0.674279   0.524995   0.519354,
	 -0.671229   0.675827  -0.304481,
	 -0.598891   0.343593  -0.723377,
	 -0.671538   0.674608   0.306497,
	 -0.599145   0.341164   0.724316,
	 -0.664710  -0.111602   0.738719,
	 -0.857052  -0.499910   0.124709,
	 -0.783740   0.460121   0.417182,
	 -0.917331  -0.103507   0.384435,
	 -0.834757  -0.364694   0.412527,
	 -0.651778   0.715314   0.252014,
	  0.172982  -0.951983   0.252599,
	 -0.024711  -0.953331  -0.300915,
	  0.613027  -0.790062  -0.000049,
	 -0.024733  -0.953362   0.300814,
	 -0.609681   0.604545   0.512654,
	 -0.753550   0.657387  -0.002183,
	 -0.734049   0.388866   0.556736,
	 -0.609741   0.604553  -0.512574,
	 -0.733723   0.389136  -0.556978,
	 -0.651781   0.715312  -0.252013,
	 -0.917329  -0.103514  -0.384438,
	 -0.783741   0.460117  -0.417184,
	 -0.834758  -0.364695  -0.412525,
	 -0.664710  -0.109702  -0.739003,
	 -0.856251  -0.500737  -0.126876,
	  0.172985  -0.951983  -0.252596,
	 -0.644414   0.260221   0.719038,
	 -0.161397  -0.913313   0.373912,
	 -0.325080  -0.905778  -0.271825,
	  0.504339  -0.863506  -0.000115,
	 -0.325082  -0.905779   0.271821,
	 -0.157265  -0.911545  -0.379938,
	 -0.543142   0.839636  -0.002898,
	 -0.645145   0.258360  -0.719054,
	 -0.122075   0.221019   0.967599,
	 -0.075238  -0.040373   0.996348,
	  0.405553  -0.777390   0.480824,
	 -0.063362  -0.997990  -0.001036,
	  0.402646  -0.775926  -0.485608,
	 -0.083386  -0.038725  -0.995765,
	 -0.761121   0.321575   0.563280,
	 -0.984413   0.175869  -0.000997,
	 -0.127607   0.221249  -0.966833,
	 -0.760387   0.320550  -0.564853,
	 -0.480029  -0.578022   0.659896,
	 -0.793233  -0.608918  -0.001157,
	 -0.478586  -0.578013  -0.660951,
     ]    } 
normalIndex      [ 
	     0,      1,      2, -1 
	     3,      1,      0, -1 
	     3,      0,      4, -1 
	     2,      5,      0, -1 
	     0,      5,      6, -1 
	     4,      0,      6, -1 
	     1,      7,      2, -1 
	     7,      1,      3, -1 
	     7,      8,      2, -1 
	     9,     10,      2, -1 
	     2,     11,      9, -1 
	    12,     11,      2, -1 
	     2,      8,     12, -1 
	     2,     13,      5, -1 
	     2,     14,     13, -1 
	     2,     10,     15, -1 
	    15,     16,      2, -1 
	     2,     16,     17, -1 
	    17,     14,      2, -1 
	    18,     19,      3, -1 
	    18,      3,      4, -1 
	    20,      3,     19, -1 
	     7,      3,     20, -1 
	     4,      6,     18, -1 
	     6,      5,     13, -1 
	     6,     21,     18, -1 
	    21,      6,     22, -1 
	    22,      6,     13, -1 
	     8,      7,     20, -1 
	     8,     20,     23, -1 
	    12,      8,     23, -1 
	    10,      9,     24, -1 
	    11,     24,      9, -1 
	    10,     24,     25, -1 
	    26,     15,     10, -1 
	    25,     26,     10, -1 
	    27,     28,     11, -1 
	    27,     11,     12, -1 
	    11,     28,     29, -1 
	    11,     29,     24, -1 
	    12,     23,     27, -1 
	    22,     13,     14, -1 
	    30,     22,     14, -1 
	    30,     14,     17, -1 
	    15,     26,     16, -1 
	    16,     31,     32, -1 
	    17,     16,     32, -1 
	    33,     31,     16, -1 
	    26,     33,     16, -1 
	    32,     30,     17, -1 
	    34,     19,     18, -1 
	    18,     21,     34, -1 
	    34,     35,     19, -1 
	    36,     19,     35, -1 
	    20,     19,     36, -1 
	    23,     20,     36, -1 
	    21,     37,     34, -1 
	    37,     21,     38, -1 
	    38,     21,     22, -1 
	    38,     22,     30, -1 
	    23,     36,     39, -1 
	    27,     23,     39, -1 
	    40,     25,     24, -1 
	    40,     24,     29, -1 
	    25,     40,     41, -1 
	    41,     42,     25, -1 
	    26,     25,     42, -1 
	    33,     26,     42, -1 
	    27,     39,     43, -1 
	    43,     28,     27, -1 
	    43,     44,     28, -1 
	    29,     28,     45, -1 
	    28,     44,     45, -1 
	    40,     29,     45, -1 
	    46,     38,     30, -1 
	    46,     30,     32, -1 
	    31,     47,     48, -1 
	    32,     31,     48, -1 
	    49,     31,     33, -1 
	    49,     47,     31, -1 
	    48,     46,     32, -1 
	    49,     33,     42, -1 
	    50,     35,     34, -1 
	    34,     37,     50, -1 
	    50,     51,     35, -1 
	    52,     35,     51, -1 
	    36,     35,     52, -1 
	    39,     36,     52, -1 
	    37,     53,     50, -1 
	    53,     37,     54, -1 
	    54,     37,     38, -1 
	    54,     38,     46, -1 
	    39,     52,     55, -1 
	    43,     39,     55, -1 
	    41,     40,     56, -1 
	    40,     57,     56, -1 
	    40,     45,     57, -1 
	    41,     56,     58, -1 
	    59,     42,     41, -1 
	    58,     59,     41, -1 
	    59,     60,     42, -1 
	    60,     49,     42, -1 
	    43,     55,     61, -1 
	    61,     44,     43, -1 
	    61,     62,     44, -1 
	    63,     44,     64, -1 
	    65,     64,     44, -1 
	    65,     44,     62, -1 
	    44,     63,     45, -1 
	    57,     45,     66, -1 
	    66,     45,     63, -1 
	    67,     54,     46, -1 
	    67,     46,     48, -1 
	    47,     68,     69, -1 
	    48,     47,     69, -1 
	    70,     47,     71, -1 
	    47,     70,     72, -1 
	    68,     47,     72, -1 
	    49,     71,     47, -1 
	    69,     67,     48, -1 
	    73,     49,     60, -1 
	    71,     49,     73, -1 
	    74,     51,     50, -1 
	    50,     53,     74, -1 
	    74,     75,     51, -1 
	    76,     51,     75, -1 
	    52,     51,     76, -1 
	    55,     52,     76, -1 
	    53,     77,     74, -1 
	    77,     53,     78, -1 
	    78,     53,     54, -1 
	    78,     54,     67, -1 
	    55,     76,     79, -1 
	    61,     55,     79, -1 
	    58,     56,     80, -1 
	    56,     57,     81, -1 
	    56,     81,     80, -1 
	    66,     81,     57, -1 
	    58,     80,     82, -1 
	    83,     59,     58, -1 
	    82,     83,     58, -1 
	    84,     60,     59, -1 
	    83,     84,     59, -1 
	    60,     84,     73, -1 
	    61,     79,     85, -1 
	    85,     62,     61, -1 
	    85,     86,     62, -1 
	    87,     65,     62, -1 
	    87,     62,     86, -1 
	    88,     89,     63, -1 
	    88,     63,     90, -1 
	    63,     64,     65, -1 
	    63,     65,     90, -1 
	    63,     89,     91, -1 
	    63,     91,     66, -1 
	    65,     92,     93, -1 
	    65,     93,     90, -1 
	    87,     92,     65, -1 
	    94,     66,     95, -1 
	    66,     94,     96, -1 
	    66,     96,     97, -1 
	    91,     95,     66, -1 
	    66,     97,     81, -1 
	    98,     78,     67, -1 
	    98,     67,     69, -1 
	    68,     99,    100, -1 
	    69,     68,    100, -1 
	    68,     72,    101, -1 
	    99,     68,    101, -1 
	   100,     98,     69, -1 
	    72,     70,     71, -1 
	    71,    102,    103, -1 
	   104,     71,    103, -1 
	   104,     72,     71, -1 
	   105,    102,     71, -1 
	    73,    105,     71, -1 
	   106,    107,     72, -1 
	   104,    106,     72, -1 
	    72,    107,    101, -1 
	   108,     73,     94, -1 
	    96,     94,     73, -1 
	   109,     96,     73, -1 
	    73,    108,    105, -1 
	    84,    109,     73, -1 
	    75,     74,    110, -1 
	   110,     74,     77, -1 
	    76,     75,    111, -1 
	   111,     75,    110, -1 
	   112,     79,     76, -1 
	   112,     76,    111, -1 
	   113,     77,     78, -1 
	   110,     77,    113, -1 
	    78,     98,    114, -1 
	   113,     78,    114, -1 
	   115,     85,     79, -1 
	   115,     79,    112, -1 
	   116,    117,     80, -1 
	    80,    118,    116, -1 
	    80,     97,    118, -1 
	    97,     80,     81, -1 
	    82,     80,    110, -1 
	    80,    119,    110, -1 
	   117,    119,     80, -1 
	   110,     83,     82, -1 
	    83,    120,    121, -1 
	   121,    122,     83, -1 
	   122,    109,     83, -1 
	    84,     83,    109, -1 
	   110,    123,     83, -1 
	    83,    123,    120, -1 
	   115,     86,     85, -1 
	   119,     87,     86, -1 
	   115,    119,     86, -1 
	   119,    117,     87, -1 
	    87,    124,     92, -1 
	   124,     87,    125, -1 
	   125,     87,    117, -1 
	   126,    127,     88, -1 
	   127,     89,     88, -1 
	    88,     90,    124, -1 
	   128,     88,    124, -1 
	   126,     88,    128, -1 
	   129,    130,     89, -1 
	   127,    131,     89, -1 
	    89,    130,     91, -1 
	    89,    132,    129, -1 
	    89,    131,    132, -1 
	    90,     93,    124, -1 
	    95,     91,    133, -1 
	   134,    133,     91, -1 
	   134,     91,    130, -1 
	   124,    135,     92, -1 
	   135,     93,     92, -1 
	   135,    136,     93, -1 
	   136,    137,     93, -1 
	    93,    137,    124, -1 
	    94,     95,    138, -1 
	   138,    108,     94, -1 
	   138,     95,    139, -1 
	    95,    133,    139, -1 
	   140,    141,     96, -1 
	    96,    141,    142, -1 
	    96,    142,    143, -1 
	   143,     97,     96, -1 
	    96,    144,    140, -1 
	   145,    144,     96, -1 
	   146,    145,     96, -1 
	    96,    109,    146, -1 
	   143,    147,     97, -1 
	    97,    147,    118, -1 
	    98,    100,    148, -1 
	   114,     98,    148, -1 
	   100,     99,    148, -1 
	    99,    101,    123, -1 
	    99,    123,    148, -1 
	   101,    120,    123, -1 
	   107,    149,    101, -1 
	   150,    101,    149, -1 
	   120,    101,    150, -1 
	   102,    151,    152, -1 
	   103,    102,    153, -1 
	   102,    154,    153, -1 
	   105,    151,    102, -1 
	   152,    155,    102, -1 
	   155,    154,    102, -1 
	   103,    153,    156, -1 
	   149,    104,    103, -1 
	   149,    103,    157, -1 
	   157,    103,    156, -1 
	   149,    106,    104, -1 
	   158,    105,    108, -1 
	   105,    158,    159, -1 
	   151,    105,    159, -1 
	   106,    160,    161, -1 
	   107,    106,    161, -1 
	   106,    162,    160, -1 
	   149,    162,    106, -1 
	   107,    161,    149, -1 
	   163,    108,    138, -1 
	   163,    158,    108, -1 
	   109,    164,    146, -1 
	   122,    164,    109, -1 
	   112,    111,    110, -1 
	   115,    112,    110, -1 
	   119,    115,    110, -1 
	   110,    113,    114, -1 
	   110,    114,    148, -1 
	   110,    148,    123, -1 
	   117,    116,    125, -1 
	   126,    125,    116, -1 
	   165,    126,    116, -1 
	   165,    116,    166, -1 
	   116,    147,    166, -1 
	   147,    116,    118, -1 
	   150,    121,    120, -1 
	   121,    150,    156, -1 
	   121,    156,    167, -1 
	   168,    121,    167, -1 
	   168,    164,    121, -1 
	   122,    121,    164, -1 
	   124,    137,    135, -1 
	   124,    125,    128, -1 
	   126,    128,    125, -1 
	   126,    169,    127, -1 
	   169,    126,    165, -1 
	   127,    169,    170, -1 
	   131,    127,    170, -1 
	   134,    130,    129, -1 
	   129,    171,    172, -1 
	   129,    172,    173, -1 
	   129,    173,    134, -1 
	   171,    129,    174, -1 
	   132,    174,    129, -1 
	   131,    170,    165, -1 
	   131,    165,    166, -1 
	   147,    132,    131, -1 
	   147,    131,    166, -1 
	   143,    132,    147, -1 
	   174,    132,    142, -1 
	   142,    132,    143, -1 
	   134,    175,    133, -1 
	   133,    175,    139, -1 
	   134,    173,    175, -1 
	   135,    137,    136, -1 
	   138,    139,    176, -1 
	   138,    176,    177, -1 
	   178,    163,    138, -1 
	   177,    178,    138, -1 
	   139,    175,    176, -1 
	   179,    141,    140, -1 
	   140,    180,    181, -1 
	   140,    181,    179, -1 
	   140,    144,    182, -1 
	   183,    180,    140, -1 
	   182,    183,    140, -1 
	   179,    142,    141, -1 
	   179,    174,    142, -1 
	   144,    145,    182, -1 
	   145,    184,    182, -1 
	   145,    155,    184, -1 
	   146,    155,    145, -1 
	   164,    155,    146, -1 
	   161,    162,    149, -1 
	   157,    150,    149, -1 
	   150,    157,    156, -1 
	   152,    151,    159, -1 
	   185,    186,    152, -1 
	   187,    185,    152, -1 
	   159,    187,    152, -1 
	   184,    152,    186, -1 
	   152,    184,    155, -1 
	   153,    188,    156, -1 
	   189,    188,    153, -1 
	   189,    153,    154, -1 
	   167,    189,    154, -1 
	   168,    167,    154, -1 
	   154,    155,    164, -1 
	   168,    154,    164, -1 
	   167,    156,    188, -1 
	   158,    190,    159, -1 
	   163,    190,    158, -1 
	   190,    187,    159, -1 
	   160,    162,    161, -1 
	   178,    190,    163, -1 
	   169,    165,    170, -1 
	   189,    167,    188, -1 
	   181,    171,    174, -1 
	   191,    172,    171, -1 
	   191,    171,    181, -1 
	   192,    193,    172, -1 
	   192,    172,    191, -1 
	   193,    173,    172, -1 
	   193,    175,    173, -1 
	   181,    174,    179, -1 
	   176,    175,    193, -1 
	   176,    193,    192, -1 
	   176,    192,    194, -1 
	   177,    176,    194, -1 
	   194,    178,    177, -1 
	   195,    190,    178, -1 
	   196,    195,    178, -1 
	   194,    196,    178, -1 
	   180,    197,    191, -1 
	   180,    191,    181, -1 
	   198,    197,    180, -1 
	   183,    198,    180, -1 
	   182,    184,    183, -1 
	   184,    186,    183, -1 
	   183,    186,    198, -1 
	   186,    185,    198, -1 
	   185,    195,    196, -1 
	   198,    185,    196, -1 
	   185,    187,    195, -1 
	   187,    190,    195, -1 
	   197,    199,    191, -1 
	   200,    192,    191, -1 
	   200,    191,    199, -1 
	   201,    194,    192, -1 
	   201,    192,    200, -1 
	   194,    201,    202, -1 
	   202,    203,    194, -1 
	   196,    194,    203, -1 
	   198,    196,    204, -1 
	   204,    196,    203, -1 
	   197,    205,    199, -1 
	   206,    205,    197, -1 
	   207,    208,    197, -1 
	   198,    207,    197, -1 
	   197,    208,    206, -1 
	   207,    198,    204, -1 
	   201,    200,    199, -1 
	   201,    199,    209, -1 
	   205,    209,    199, -1 
	   202,    201,    209, -1 
	   202,    209,    210, -1 
	   211,    203,    202, -1 
	   210,    211,    202, -1 
	   207,    204,    203, -1 
	   211,    207,    203, -1 
	   210,    209,    205, -1 
	   210,    205,    206, -1 
	   206,    208,    210, -1 
	   207,    211,    208, -1 
	   208,    211,    210, -1 
    ] 
normalPerVertex  TRUE 
   } 
  } 
 ] 
} 
