# 
# Wavefront OBJ file
# Converted by the DEEP Exploration 2.00.1211
# Right Hemisphere, LTD
# http://www.righthemisphere.com/
# 
mtllib thoracic1.mtl
# object Object #0
g Object__0
v -0.042232 0.338949 0.000106
v -0.042708 0.339371 0.007257
v -0.052495 0.342628 8.7e-005
v -0.040851 0.342014 0.008689
v -0.041265 0.33988 0.000108
v -0.042708 0.339371 -0.007088
v -0.040851 0.342014 -0.00852
v -0.045678 0.340901 0.014698
v -0.050592 0.34286 0.018318
v -0.061851 0.345303 0.004397
v -0.061886 0.345551 8.7e-005
v -0.062069 0.34559 0.01278
v -0.05853 0.345431 0.018416
v -0.045678 0.340901 -0.014529
v -0.050592 0.34286 -0.018149
v -0.061851 0.345303 -0.004228
v -0.062069 0.34559 -0.012611
v -0.05853 0.345431 -0.018247
v -0.040744 0.343496 0.000108
v -0.041621 0.344211 0.009296
v -0.04453 0.344067 0.01561
v -0.041621 0.344211 -0.009127
v -0.04453 0.344067 -0.015441
v -0.050308 0.346827 0.018942
v -0.063946 0.348891 0.004523
v -0.063948 0.348786 8.7e-005
v -0.063946 0.348891 -0.004354
v -0.0583 0.349759 0.019076
v -0.064117 0.346847 0.014342
v -0.06433 0.350224 0.00852
v -0.050308 0.346827 -0.018773
v -0.064117 0.346847 -0.014173
v -0.0583 0.349759 -0.018907
v -0.06433 0.350224 -0.008351
v -0.03844 0.350619 0.00011
v -0.039712 0.350232 0.008975
v -0.045286 0.34672 0.015223
v -0.039712 0.350232 -0.008806
v -0.045286 0.34672 -0.015053
v -0.04946 0.34999 0.01724
v -0.062191 0.354194 0.005776
v -0.06182 0.354069 8.9e-005
v -0.062191 0.354194 -0.005607
v -0.057411 0.352467 0.018059
v -0.061626 0.352855 0.01708
v -0.063433 0.355161 0.008789
v -0.04946 0.34999 -0.017071
v -0.061626 0.352855 -0.016911
v -0.057411 0.352467 -0.01789
v -0.063433 0.355161 -0.00862
v -0.037191 0.353303 0.000111
v -0.037732 0.3532 0.009919
v -0.043893 0.352376 0.015804
v -0.037732 0.3532 -0.00975
v -0.043893 0.352376 -0.015635
v -0.04747 0.353951 0.017319
v -0.058799 0.360103 0.005965
v -0.060155 0.361013 0.009186
v -0.058242 0.35996 9.1e-005
v -0.058799 0.360103 -0.005796
v -0.060155 0.361013 -0.009017
v -0.054811 0.357283 0.018188
v -0.058088 0.359435 0.01854
v -0.065517 0.354026 0.015396
v -0.063499 0.355565 0.018856
v -0.060854 0.359481 0.022531
v -0.068269 0.358595 0.003425
v -0.04747 0.353951 -0.01715
v -0.058088 0.359435 -0.018371
v -0.054811 0.357283 -0.018019
v -0.063499 0.355565 -0.018687
v -0.065517 0.354026 -0.015227
v -0.060854 0.359481 -0.022362
v -0.068269 0.358595 -0.003256
v -0.036336 0.356525 0.000112
v -0.037001 0.356604 0.010099
v -0.041643 0.354492 0.016724
v -0.037001 0.356604 -0.00993
v -0.041643 0.354492 -0.016555
v -0.046261 0.355974 0.01914
v -0.05761 0.365453 0.007582
v -0.058541 0.364449 0.009857
v -0.056594 0.364291 9.3e-005
v -0.05761 0.365453 -0.007413
v -0.058541 0.364449 -0.009688
v -0.052258 0.359687 0.020059
v -0.055819 0.361067 0.017919
v -0.060168 0.363867 0.017961
v -0.069835 0.362144 0.020805
v -0.069409 0.358613 0.015483
v -0.06884 0.353407 0.022248
v -0.067554 0.3527 0.009522
v -0.066154 0.359818 0.021401
v -0.068907 0.355266 0.019463
v -0.070137 0.354841 8.8e-005
v -0.075184 0.34714 0.004667
v -0.074328 0.361904 8.9e-005
v -0.068637 0.363517 0.007
v -0.046261 0.355974 -0.018971
v -0.055819 0.361067 -0.01775
v -0.052258 0.359687 -0.01989
v -0.060168 0.363867 -0.017792
v -0.069409 0.358613 -0.015314
v -0.069835 0.362144 -0.020636
v -0.06884 0.353407 -0.022079
v -0.067554 0.3527 -0.009353
v -0.068907 0.355266 -0.019294
v -0.066154 0.359818 -0.021232
v -0.075184 0.34714 -0.004498
v -0.068637 0.363517 -0.006831
v -0.047491 0.36131 9.3e-005
v -0.040726 0.357989 0.016954
v -0.045789 0.360247 0.02006
v -0.040726 0.357989 -0.016785
v -0.045789 0.360247 -0.019891
v -0.052485 0.362683 0.020183
v -0.065851 0.36972 0.01442
v -0.059559 0.365077 0.012722
v -0.066245 0.367733 0.009102
v -0.056326 0.364527 0.015423
v -0.059559 0.365077 -0.012553
v -0.065851 0.36972 -0.014252
v -0.066245 0.367733 -0.008932
v -0.056326 0.364527 -0.015254
v -0.066695 0.364362 0.019111
v -0.065319 0.366302 0.016566
v -0.080633 0.377983 0.041375
v -0.073395 0.364692 0.018983
v -0.068513 0.366291 0.019146
v -0.079912 0.353811 0.011412
v -0.076621 0.354259 0.013951
v -0.078144 0.367377 0.022779
v -0.072685 0.36232 0.011445
v -0.068376 0.351382 0.010835
v -0.080638 0.350902 0.015358
v -0.068917 0.361129 0.023661
v -0.070563 0.360022 0.021585
v -0.069844 0.365334 0.021889
v -0.076081 0.351517 8.7e-005
v -0.075195 0.346339 0.00609
v -0.084776 0.35536 8.8e-005
v -0.075857 0.359688 0.004527
v -0.073225 0.357854 0.007522
v -0.072296 0.360905 0.009406
v -0.075857 0.359688 -0.004358
v -0.073225 0.357854 -0.007353
v -0.072296 0.360905 -0.009237
v -0.069327 0.364188 0.010256
v -0.052485 0.362683 -0.020014
v -0.066695 0.364362 -0.018942
v -0.065319 0.366302 -0.016397
v -0.076621 0.354259 -0.013782
v -0.079912 0.353811 -0.011243
v -0.073395 0.364692 -0.018814
v -0.078144 0.367377 -0.02261
v -0.072685 0.36232 -0.011276
v -0.080633 0.377983 -0.04106
v -0.068513 0.366291 -0.018977
v -0.068376 0.351382 -0.010666
v -0.080638 0.350902 -0.015189
v -0.070563 0.360022 -0.021416
v -0.068917 0.361129 -0.023492
v -0.069844 0.365334 -0.02172
v -0.075195 0.346339 -0.005921
v -0.069327 0.364188 -0.010087
v -0.085393 0.377321 0.034705
v -0.071838 0.366569 0.01256
v -0.085393 0.377321 -0.03439
v -0.071838 0.366569 -0.012391
v -0.084364 0.375771 0.045827
v -0.086157 0.374658 0.035645
v -0.082271 0.352497 0.00928
v -0.083351 0.349377 0.008785
v -0.081974 0.346246 0.01514
v -0.079373 0.355229 0.008015
v -0.076526 0.345081 0.012019
v -0.076303 0.349213 0.00486
v -0.078826 0.348021 8.6e-005
v -0.076303 0.349213 -0.004691
v -0.083109 0.356681 0.003836
v -0.092453 0.348637 7e-005
v -0.083813 0.353445 0.003734
v -0.083109 0.356681 -0.003667
v -0.083813 0.353445 -0.003565
v -0.079373 0.355229 -0.007846
v -0.083351 0.349377 -0.008616
v -0.082271 0.352497 -0.009111
v -0.081974 0.346246 -0.014972
v -0.084364 0.375771 -0.045512
v -0.086157 0.374658 -0.03533
v -0.076526 0.345081 -0.01185
v -0.08485 0.350486 0.003892
v -0.084584 0.34873 0.004548
v -0.081113 0.346374 0.006929
v -0.085499 0.345235 8.4e-005
v -0.081113 0.346374 -0.00676
v -0.084584 0.34873 -0.004379
v -0.098535 0.342809 0.000108
v -0.08485 0.350486 -0.003723
v -0.094174 0.340581 0.00301
v -0.088131 0.344278 0.004242
v -0.096269 0.335246 0.002374
v -0.096807 0.335196 0.000124
v -0.096269 0.335246 -0.00212
v -0.088131 0.344278 -0.004073
v -0.10092 0.340845 0.003042
v -0.101772 0.340086 0.000113
v -0.094174 0.340581 -0.002756
v -0.10092 0.340845 -0.002788
v -0.100429 0.33788 0.003521
v -0.099344 0.336207 0.000108
v -0.100429 0.33788 -0.003267
# 212 verticies
vn 0.450958 -0.892545 0.000305
vn 0.227088 -0.958477 0.172493
vn -0.297959 -0.954579 1.3e-005
vn 0.909953 -0.32484 0.257809
vn 0.890657 -0.454675 0.000199
vn 0.227186 -0.958492 -0.172278
vn 0.910044 -0.324789 -0.257552
vn 0.2851 -0.842157 0.4577
vn 0.04849 -0.683731 0.728121
vn -0.615915 -0.787682 -0.014367
vn -0.708712 -0.705498 -1e-005
vn -0.649994 -0.743891 0.155349
vn -0.376666 -0.603529 0.702763
vn 0.285097 -0.84216 -0.457697
vn 0.048488 -0.683735 -0.728118
vn -0.615904 -0.78769 0.014342
vn -0.649986 -0.7439 -0.155345
vn -0.376663 -0.603536 -0.702758
vn 0.998912 -0.046644 0.000149
vn 0.953494 -0.000398 0.301412
vn 0.719051 -0.037126 0.693965
vn 0.95358 -0.000386 -0.301141
vn 0.719052 -0.037129 -0.693964
vn 0.301665 0.089105 0.949241
vn -0.971938 -0.232974 -0.032545
vn -0.998458 0.05552 -1e-005
vn -0.971937 -0.232979 0.032549
vn -0.272675 0.034997 0.961469
vn -0.839146 -0.215148 0.499545
vn -0.980443 -0.078787 -0.180343
vn 0.301666 0.089113 -0.94924
vn -0.839145 -0.215153 -0.499545
vn -0.272676 0.035001 -0.961469
vn -0.980445 -0.07878 0.180338
vn 0.939492 -0.342571 0.000321
vn 0.847124 -0.405856 0.343019
vn 0.696388 0.035467 0.716789
vn 0.847215 -0.405878 -0.342769
vn 0.696387 0.035473 -0.716789
vn 0.288454 0.099441 0.952316
vn -0.888905 0.385953 -0.246756
vn -0.885157 0.465293 -6.8e-005
vn -0.88891 0.385956 0.246733
vn -0.145181 0.068165 0.987054
vn -0.260185 -0.505206 0.822843
vn -0.865353 -0.268003 -0.423483
vn 0.288452 0.099449 -0.952316
vn -0.260186 -0.505209 -0.822841
vn -0.145175 0.068159 -0.987056
vn -0.865355 -0.268001 0.42348
vn 0.908392 -0.418119 0.000188
vn 0.839977 -0.454932 0.295764
vn 0.478288 -0.434956 0.762925
vn 0.840023 -0.454939 -0.295622
vn 0.478281 -0.434955 -0.762929
vn 0.101331 -0.373914 0.921911
vn -0.876366 0.4169 -0.2412
vn -0.337249 0.292135 -0.894942
vn -0.926553 0.376164 -0.000138
vn -0.876393 0.41689 0.241118
vn -0.337245 0.292138 0.894942
vn -0.124022 -0.299078 0.946135
vn 0.23929 0.012621 0.970866
vn -0.485453 -0.86409 0.132983
vn -0.582396 -0.431434 0.68897
vn 0.032166 -0.02838 0.99908
vn 0.702956 -0.15635 -0.693836
vn 0.101327 -0.37392 -0.921909
vn 0.239287 0.012619 -0.970867
vn -0.12402 -0.299083 -0.946133
vn -0.582399 -0.431422 -0.688974
vn -0.485457 -0.864088 -0.132982
vn 0.032171 -0.028382 -0.999079
vn 0.70313 -0.156346 0.69366
vn 0.981939 0.189196 0.000156
vn 0.902989 0.309391 0.298141
vn 0.511252 -0.438564 0.73911
vn 0.903026 0.309398 -0.298021
vn 0.511249 -0.438565 -0.739111
vn 0.044899 -0.398849 0.915917
vn -0.200727 0.921082 -0.333641
vn -0.272538 0.097699 -0.957172
vn -0.426155 0.90465 -0.000212
vn -0.200758 0.921123 0.333511
vn -0.272534 0.0977131 0.957172
vn -0.225074 -0.0996509 0.969232
vn -0.202151 0.381955 0.901801
vn 0.256979 0.689874 0.676783
vn -0.378266 -0.490276 0.785203
vn -0.551083 -0.409545 0.727035
vn 0.419857 -0.273801 0.865305
vn 0.682397 -0.575829 0.450283
vn 0.22798 0.189448 0.955057
vn -0.692369 -0.334464 0.639342
vn 0.915159 -0.403093 -0.000233
vn 0.524923 -0.732192 -0.433993
vn -0.186296 0.982494 3.4e-005
vn -0.23846 0.65391 -0.71801
vn 0.044897 -0.398857 -0.915914
vn -0.202151 0.381955 -0.901801
vn -0.225074 -0.0996509 -0.969232
vn 0.256976 0.689875 -0.676783
vn -0.551083 -0.409547 -0.727034
vn -0.3784 -0.489507 -0.785619
vn 0.419882 -0.273792 -0.865296
vn 0.682401 -0.575829 -0.450278
vn -0.692365 -0.334478 -0.639339
vn 0.227982 0.189443 -0.955058
vn 0.524894 -0.732251 0.433931
vn -0.238369 0.653918 0.718033
vn 0.379232 0.925302 -3e-006
vn 0.723695 0.486667 0.489307
vn 0.45385 0.362064 0.814205
vn 0.723692 0.486675 -0.489302
vn 0.453852 0.362067 -0.814203
vn -0.088922 0.478123 0.87378
vn 0.218082 0.96753 -0.127775
vn 0.341102 0.880784 0.328435
vn -0.412369 0.76021 -0.502029
vn 0.117553 0.929374 0.349921
vn 0.341102 0.880783 -0.328438
vn 0.218322 0.96744 0.128047
vn -0.412369 0.76021 0.502029
vn 0.117567 0.929375 -0.349915
vn 0.531573 0.466208 0.707163
vn 0.597849 0.476001 0.64498
vn 0.706155 0.141037 0.693869
vn -0.128278 -0.820643 0.556857
vn 0.631049 0.017823 0.775538
vn -0.71635 0.542862 0.438342
vn -0.117051 0.232556 0.965514
vn -0.897372 -0.362544 -0.251565
vn -0.794588 0.543099 -0.271429
vn 0.783329 -0.540472 0.307061
vn 0.013246 0.259274 0.965713
vn 0.117066 -0.048847 0.991922
vn -0.958012 -0.141919 0.249141
vn -0.865018 0.459583 -0.201314
vn -0.272515 -0.962152 -0.000125
vn -0.387572 -0.848031 -0.36143
vn -0.676449 0.736489 0.000185
vn -0.3088 0.890278 0.334736
vn -0.565227 0.808419 0.164246
vn -0.74826 0.632569 -0.19991
vn -0.308612 0.890409 -0.334561
vn -0.565089 0.808549 -0.164082
vn -0.748247 0.63256 0.199983
vn -0.677464 0.546227 -0.492623
vn -0.088917 0.478126 -0.873779
vn 0.531574 0.466215 -0.707158
vn 0.597421 0.47646 -0.645038
vn -0.117048 0.232552 -0.965515
vn -0.716351 0.54286 -0.438343
vn -0.126823 -0.819222 -0.559278
vn -0.896413 -0.365496 0.25071
vn -0.794588 0.543099 0.271429
vn 0.704724 0.143702 -0.694777
vn 0.63054 0.019432 -0.775913
vn 0.783327 -0.540473 -0.307064
vn 0.013251 0.259272 -0.965713
vn -0.95801 -0.141923 -0.249147
vn 0.11707 -0.048851 -0.991921
vn -0.865022 0.459581 0.2013
vn -0.387489 -0.848088 0.361386
vn -0.677464 0.546227 0.492623
vn -0.668252 0.665143 -0.333203
vn -0.620389 0.32747 -0.712658
vn -0.668608 0.663807 0.335148
vn -0.620566 0.324725 0.713758
vn -0.709542 -0.008609 0.70461
vn -0.863632 -0.501567 0.050692
vn -0.787581 0.474934 0.392624
vn -0.928075 -0.089256 0.36154
vn -0.841624 -0.358117 0.404253
vn -0.644879 0.727882 0.233063
vn 0.169791 -0.951581 0.256252
vn -0.037693 -0.959119 -0.280482
vn 0.602053 -0.798456 -4.2e-005
vn -0.037724 -0.959144 0.280391
vn -0.611791 0.623071 0.487334
vn -0.745681 0.666299 -0.002241
vn -0.74398 0.406339 0.530454
vn -0.611843 0.623083 -0.487254
vn -0.743637 0.406606 -0.530731
vn -0.64488 0.727883 -0.233058
vn -0.928073 -0.08926 -0.361542
vn -0.787584 0.474928 -0.392625
vn -0.841625 -0.358118 -0.404252
vn -0.709257 -0.006058 -0.704924
vn -0.862873 -0.502694 -0.052436
vn 0.169795 -0.95158 -0.256252
vn -0.659459 0.280863 0.697302
vn -0.175571 -0.919618 0.351394
vn -0.334796 -0.906082 -0.258702
vn 0.489644 -0.871922 -0.000111
vn -0.334794 -0.906082 0.258705
vn -0.171907 -0.917978 -0.357441
vn -0.532021 0.846726 -0.002957
vn -0.660302 0.278965 -0.697266
vn -0.128032 0.233936 0.963785
vn -0.094717 -0.03253 0.994973
vn 0.39617 -0.785417 0.475572
vn -0.078771 -0.996892 -0.00098
vn 0.392929 -0.784096 -0.480418
vn -0.104168 -0.030049 -0.994106
vn -0.761112 0.342143 0.551041
vn -0.982728 0.185056 -0.000947001
vn -0.133987 0.23439 -0.962865
vn -0.760418 0.341148 -0.552614
vn -0.488744 -0.576372 0.654923
vn -0.801291 -0.598274 -0.001099
vn -0.487323 -0.576441 -0.655921
# 212 normals
usemtl Material__1
f  1//1 2//2 3//3
f  4//4 2//2 1//1
f  4//4 1//1 5//5
f  3//3 6//6 1//1
f  1//1 6//6 7//7
f  5//5 1//1 7//7
f  2//2 8//8 3//3
f  8//8 2//2 4//4
f  8//8 9//9 3//3
f  10//10 11//11 3//3
f  3//3 12//12 10//10
f  13//13 12//12 3//3
f  3//3 9//9 13//13
f  3//3 14//14 6//6
f  3//3 15//15 14//14
f  3//3 11//11 16//16
f  16//16 17//17 3//3
f  3//3 17//17 18//18
f  18//18 15//15 3//3
f  19//19 20//20 4//4
f  19//19 4//4 5//5
f  21//21 4//4 20//20
f  8//8 4//4 21//21
f  5//5 7//7 19//19
f  7//7 6//6 14//14
f  7//7 22//22 19//19
f  22//22 7//7 23//23
f  23//23 7//7 14//14
f  9//9 8//8 21//21
f  9//9 21//21 24//24
f  13//13 9//9 24//24
f  11//11 10//10 25//25
f  12//12 25//25 10//10
f  11//11 25//25 26//26
f  27//27 16//16 11//11
f  26//26 27//27 11//11
f  28//28 29//29 12//12
f  28//28 12//12 13//13
f  12//12 29//29 30//30
f  12//12 30//30 25//25
f  13//13 24//24 28//28
f  23//23 14//14 15//15
f  31//31 23//23 15//15
f  31//31 15//15 18//18
f  16//16 27//27 17//17
f  17//17 32//32 33//33
f  18//18 17//17 33//33
f  34//34 32//32 17//17
f  27//27 34//34 17//17
f  33//33 31//31 18//18
f  35//35 20//20 19//19
f  19//19 22//22 35//35
f  35//35 36//36 20//20
f  37//37 20//20 36//36
f  21//21 20//20 37//37
f  24//24 21//21 37//37
f  22//22 38//38 35//35
f  38//38 22//22 39//39
f  39//39 22//22 23//23
f  39//39 23//23 31//31
f  24//24 37//37 40//40
f  28//28 24//24 40//40
f  41//41 26//26 25//25
f  41//41 25//25 30//30
f  26//26 41//41 42//42
f  42//42 43//43 26//26
f  27//27 26//26 43//43
f  34//34 27//27 43//43
f  28//28 40//40 44//44
f  44//44 29//29 28//28
f  44//44 45//45 29//29
f  30//30 29//29 46//46
f  29//29 45//45 46//46
f  41//41 30//30 46//46
f  47//47 39//39 31//31
f  47//47 31//31 33//33
f  32//32 48//48 49//49
f  33//33 32//32 49//49
f  50//50 32//32 34//34
f  50//50 48//48 32//32
f  49//49 47//47 33//33
f  50//50 34//34 43//43
f  51//51 36//36 35//35
f  35//35 38//38 51//51
f  51//51 52//52 36//36
f  53//53 36//36 52//52
f  37//37 36//36 53//53
f  40//40 37//37 53//53
f  38//38 54//54 51//51
f  54//54 38//38 55//55
f  55//55 38//38 39//39
f  55//55 39//39 47//47
f  40//40 53//53 56//56
f  44//44 40//40 56//56
f  42//42 41//41 57//57
f  41//41 58//58 57//57
f  41//41 46//46 58//58
f  42//42 57//57 59//59
f  60//60 43//43 42//42
f  59//59 60//60 42//42
f  60//60 61//61 43//43
f  61//61 50//50 43//43
f  44//44 56//56 62//62
f  62//62 45//45 44//44
f  62//62 63//63 45//45
f  64//64 45//45 65//65
f  66//66 65//65 45//45
f  66//66 45//45 63//63
f  45//45 64//64 46//46
f  58//58 46//46 67//67
f  67//67 46//46 64//64
f  68//68 55//55 47//47
f  68//68 47//47 49//49
f  48//48 69//69 70//70
f  49//49 48//48 70//70
f  71//71 48//48 72//72
f  48//48 71//71 73//73
f  69//69 48//48 73//73
f  50//50 72//72 48//48
f  70//70 68//68 49//49
f  74//74 50//50 61//61
f  72//72 50//50 74//74
f  75//75 52//52 51//51
f  51//51 54//54 75//75
f  75//75 76//76 52//52
f  77//77 52//52 76//76
f  53//53 52//52 77//77
f  56//56 53//53 77//77
f  54//54 78//78 75//75
f  78//78 54//54 79//79
f  79//79 54//54 55//55
f  79//79 55//55 68//68
f  56//56 77//77 80//80
f  62//62 56//56 80//80
f  59//59 57//57 81//81
f  57//57 58//58 82//82
f  57//57 82//82 81//81
f  67//67 82//82 58//58
f  59//59 81//81 83//83
f  84//84 60//60 59//59
f  83//83 84//84 59//59
f  85//85 61//61 60//60
f  84//84 85//85 60//60
f  61//61 85//85 74//74
f  62//62 80//80 86//86
f  86//86 63//63 62//62
f  86//86 87//87 63//63
f  88//88 66//66 63//63
f  88//88 63//63 87//87
f  89//89 90//90 64//64
f  89//89 64//64 91//91
f  64//64 65//65 66//66
f  64//64 66//66 91//91
f  64//64 90//90 92//92
f  64//64 92//92 67//67
f  66//66 93//93 94//94
f  66//66 94//94 91//91
f  88//88 93//93 66//66
f  95//95 67//67 96//96
f  67//67 95//95 97//97
f  67//67 97//97 98//98
f  92//92 96//96 67//67
f  67//67 98//98 82//82
f  99//99 79//79 68//68
f  99//99 68//68 70//70
f  69//69 100//100 101//101
f  70//70 69//69 101//101
f  69//69 73//73 102//102
f  100//100 69//69 102//102
f  101//101 99//99 70//70
f  73//73 71//71 72//72
f  72//72 103//103 104//104
f  105//105 72//72 104//104
f  105//105 73//73 72//72
f  106//106 103//103 72//72
f  74//74 106//106 72//72
f  107//107 108//108 73//73
f  105//105 107//107 73//73
f  73//73 108//108 102//102
f  109//109 74//74 95//95
f  97//97 95//95 74//74
f  110//110 97//97 74//74
f  74//74 109//109 106//106
f  85//85 110//110 74//74
f  76//76 75//75 111//111
f  111//111 75//75 78//78
f  77//77 76//76 112//112
f  112//112 76//76 111//111
f  113//113 80//80 77//77
f  113//113 77//77 112//112
f  114//114 78//78 79//79
f  111//111 78//78 114//114
f  79//79 99//99 115//115
f  114//114 79//79 115//115
f  116//116 86//86 80//80
f  116//116 80//80 113//113
f  117//117 118//118 81//81
f  81//81 119//119 117//117
f  81//81 98//98 119//119
f  98//98 81//81 82//82
f  83//83 81//81 111//111
f  81//81 120//120 111//111
f  118//118 120//120 81//81
f  111//111 84//84 83//83
f  84//84 121//121 122//122
f  122//122 123//123 84//84
f  123//123 110//110 84//84
f  85//85 84//84 110//110
f  111//111 124//124 84//84
f  84//84 124//124 121//121
f  116//116 87//87 86//86
f  120//120 88//88 87//87
f  116//116 120//120 87//87
f  120//120 118//118 88//88
f  88//88 125//125 93//93
f  125//125 88//88 126//126
f  126//126 88//88 118//118
f  127//127 128//128 89//89
f  128//128 90//90 89//89
f  89//89 91//91 125//125
f  129//129 89//89 125//125
f  127//127 89//89 129//129
f  130//130 131//131 90//90
f  128//128 132//132 90//90
f  90//90 131//131 92//92
f  90//90 133//133 130//130
f  90//90 132//132 133//133
f  91//91 94//94 125//125
f  96//96 92//92 134//134
f  135//135 134//134 92//92
f  135//135 92//92 131//131
f  125//125 136//136 93//93
f  136//136 94//94 93//93
f  136//136 137//137 94//94
f  137//137 138//138 94//94
f  94//94 138//138 125//125
f  95//95 96//96 139//139
f  139//139 109//109 95//95
f  139//139 96//96 140//140
f  96//96 134//134 140//140
f  141//141 142//142 97//97
f  97//97 142//142 143//143
f  97//97 143//143 144//144
f  144//144 98//98 97//97
f  97//97 145//145 141//141
f  146//146 145//145 97//97
f  147//147 146//146 97//97
f  97//97 110//110 147//147
f  144//144 148//148 98//98
f  98//98 148//148 119//119
f  99//99 101//101 149//149
f  115//115 99//99 149//149
f  101//101 100//100 149//149
f  100//100 102//102 124//124
f  100//100 124//124 149//149
f  102//102 121//121 124//124
f  108//108 150//150 102//102
f  151//151 102//102 150//150
f  121//121 102//102 151//151
f  103//103 152//152 153//153
f  104//104 103//103 154//154
f  103//103 155//155 154//154
f  106//106 152//152 103//103
f  153//153 156//156 103//103
f  156//156 155//155 103//103
f  104//104 154//154 157//157
f  150//150 105//105 104//104
f  150//150 104//104 158//158
f  158//158 104//104 157//157
f  150//150 107//107 105//105
f  159//159 106//106 109//109
f  106//106 159//159 160//160
f  152//152 106//106 160//160
f  107//107 161//161 162//162
f  108//108 107//107 162//162
f  107//107 163//163 161//161
f  150//150 163//163 107//107
f  108//108 162//162 150//150
f  164//164 109//109 139//139
f  164//164 159//159 109//109
f  110//110 165//165 147//147
f  123//123 165//165 110//110
f  113//113 112//112 111//111
f  116//116 113//113 111//111
f  120//120 116//116 111//111
f  111//111 114//114 115//115
f  111//111 115//115 149//149
f  111//111 149//149 124//124
f  118//118 117//117 126//126
f  127//127 126//126 117//117
f  166//166 127//127 117//117
f  166//166 117//117 167//167
f  117//117 148//148 167//167
f  148//148 117//117 119//119
f  151//151 122//122 121//121
f  122//122 151//151 157//157
f  122//122 157//157 168//168
f  169//169 122//122 168//168
f  169//169 165//165 122//122
f  123//123 122//122 165//165
f  125//125 138//138 136//136
f  125//125 126//126 129//129
f  127//127 129//129 126//126
f  127//127 170//170 128//128
f  170//170 127//127 166//166
f  128//128 170//170 171//171
f  132//132 128//128 171//171
f  135//135 131//131 130//130
f  130//130 172//172 173//173
f  130//130 173//173 174//174
f  130//130 174//174 135//135
f  172//172 130//130 175//175
f  133//133 175//175 130//130
f  132//132 171//171 166//166
f  132//132 166//166 167//167
f  148//148 133//133 132//132
f  148//148 132//132 167//167
f  144//144 133//133 148//148
f  175//175 133//133 143//143
f  143//143 133//133 144//144
f  135//135 176//176 134//134
f  134//134 176//176 140//140
f  135//135 174//174 176//176
f  136//136 138//138 137//137
f  139//139 140//140 177//177
f  139//139 177//177 178//178
f  179//179 164//164 139//139
f  178//178 179//179 139//139
f  140//140 176//176 177//177
f  180//180 142//142 141//141
f  141//141 181//181 182//182
f  141//141 182//182 180//180
f  141//141 145//145 183//183
f  184//184 181//181 141//141
f  183//183 184//184 141//141
f  180//180 143//143 142//142
f  180//180 175//175 143//143
f  145//145 146//146 183//183
f  146//146 185//185 183//183
f  146//146 156//156 185//185
f  147//147 156//156 146//146
f  165//165 156//156 147//147
f  162//162 163//163 150//150
f  158//158 151//151 150//150
f  151//151 158//158 157//157
f  153//153 152//152 160//160
f  186//186 187//187 153//153
f  188//188 186//186 153//153
f  160//160 188//188 153//153
f  185//185 153//153 187//187
f  153//153 185//185 156//156
f  154//154 189//189 157//157
f  190//190 189//189 154//154
f  190//190 154//154 155//155
f  168//168 190//190 155//155
f  169//169 168//168 155//155
f  155//155 156//156 165//165
f  169//169 155//155 165//165
f  168//168 157//157 189//189
f  159//159 191//191 160//160
f  164//164 191//191 159//159
f  191//191 188//188 160//160
f  161//161 163//163 162//162
f  179//179 191//191 164//164
f  170//170 166//166 171//171
f  190//190 168//168 189//189
f  182//182 172//172 175//175
f  192//192 173//173 172//172
f  192//192 172//172 182//182
f  193//193 194//194 173//173
f  193//193 173//173 192//192
f  194//194 174//174 173//173
f  194//194 176//176 174//174
f  182//182 175//175 180//180
f  177//177 176//176 194//194
f  177//177 194//194 193//193
f  177//177 193//193 195//195
f  178//178 177//177 195//195
f  195//195 179//179 178//178
f  196//196 191//191 179//179
f  197//197 196//196 179//179
f  195//195 197//197 179//179
f  181//181 198//198 192//192
f  181//181 192//192 182//182
f  199//199 198//198 181//181
f  184//184 199//199 181//181
f  183//183 185//185 184//184
f  185//185 187//187 184//184
f  184//184 187//187 199//199
f  187//187 186//186 199//199
f  186//186 196//196 197//197
f  199//199 186//186 197//197
f  186//186 188//188 196//196
f  188//188 191//191 196//196
f  198//198 200//200 192//192
f  201//201 193//193 192//192
f  201//201 192//192 200//200
f  202//202 195//195 193//193
f  202//202 193//193 201//201
f  195//195 202//202 203//203
f  203//203 204//204 195//195
f  197//197 195//195 204//204
f  199//199 197//197 205//205
f  205//205 197//197 204//204
f  198//198 206//206 200//200
f  207//207 206//206 198//198
f  208//208 209//209 198//198
f  199//199 208//208 198//198
f  198//198 209//209 207//207
f  208//208 199//199 205//205
f  202//202 201//201 200//200
f  202//202 200//200 210//210
f  206//206 210//210 200//200
f  203//203 202//202 210//210
f  203//203 210//210 211//211
f  212//212 204//204 203//203
f  211//211 212//212 203//203
f  208//208 205//205 204//204
f  212//212 208//208 204//204
f  211//211 210//210 206//206
f  211//211 206//206 207//207
f  207//207 209//209 211//211
f  208//208 212//212 209//209
f  209//209 212//212 211//211
