#VRML V2.0 utf8
Transform {
children [
Shape {
appearance Appearance {
              material DEF surface Material {
              diffuseColor 0.8 0.8 0.8
              ambientIntensity 0.2
              specularColor 0.4 0.4 0.4
              emissiveColor 0 0 0
              shininess 0.25
              transparency 0
            }
          }
geometry IndexedFaceSet {
solid FALSE
coord DEF bone Coordinate {
point [
 -0.001221	 -0.006891	  0.003859,
 -0.003785	 -0.009283	  0.002804,
 -0.001452	 -0.011243	  0.004421,
  0.000407	 -0.009958	  0.004568,
  0.003311	 -0.004774	  0.005170,
 -0.002352	 -0.003640	  0.002146,
 -0.004427	 -0.005521	  0.001150,
 -0.002403	 -0.009417	 -0.000073,
 -0.001329	 -0.010735	  0.001532,
  0.000525	 -0.015319	  0.006497,
  0.001077	 -0.016376	  0.004604,
  0.002950	 -0.009019	  0.005953,
  0.002292	 -0.014176	  0.008013,
  0.002744	 -0.001045	  0.002938,
  0.005745	 -0.008283	  0.006911,
  0.006066	 -0.004818	  0.006474,
 -0.000642	 -0.004612	 -0.000301,
 -0.003452	 -0.006433	 -0.000617,
  0.001886	 -0.008230	 -0.002189,
  0.001834	 -0.010048	 -0.000338,
  0.003303	 -0.016172	  0.003430,
  0.001535	 -0.018543	  0.008272,
  0.003406	 -0.018263	  0.008904,
  0.001922	 -0.019933	  0.006440,
  0.004029	 -0.020630	  0.005972,
  0.005774	 -0.013513	  0.008042,
  0.007478	 -0.017812	  0.009382,
  0.005437	 -0.000754	  0.003586,
  0.003460	 -0.003175	  0.000151,
  0.006730	 -0.008856	  0.004010,
  0.006902	 -0.006056	  0.003131,
  0.000917	 -0.005830	 -0.003002,
  0.004555	 -0.007392	 -0.001018,
  0.004704	 -0.009529	  0.000754,
  0.005431	 -0.004869	 -0.002369,
  0.005345	 -0.015562	  0.003992,
  0.006135	 -0.019902	  0.006180,
  0.002424	 -0.024514	  0.008907,
  0.005109	 -0.020791	  0.010421,
  0.003916	 -0.023990	  0.007499,
  0.008002	 -0.022032	  0.010325,
  0.006613	 -0.023474	  0.008156,
  0.006331	 -0.014229	  0.005640,
  0.007315	 -0.018555	  0.007253,
  0.007132	 -0.002808	  0.001555,
  0.008423	 -0.023321	  0.009147,
  0.004464	 -0.026015	  0.009800,
  0.006486	 -0.025830	  0.009199,
  0.007605	 -0.026372	  0.010448,
]
}
coordIndex [
   0,	   1,	   2, -1
   0,	   2,	   3, -1
   3,	   4,	   0, -1
   4,	   5,	   0, -1
   0,	   5,	   6, -1
   0,	   6,	   1, -1
   2,	   1,	   7, -1
   7,	   1,	   6, -1
   2,	   7,	   8, -1
   3,	   2,	   9, -1
   2,	   8,	  10, -1
   2,	  10,	   9, -1
   3,	  11,	   4, -1
   3,	   9,	  12, -1
   3,	  12,	  11, -1
   4,	  13,	   5, -1
   4,	  11,	  14, -1
   4,	  14,	  15, -1
  13,	   4,	  15, -1
  13,	  16,	   5, -1
   5,	  16,	   6, -1
   7,	   6,	  17, -1
   6,	  16,	  17, -1
   7,	  18,	  19, -1
   7,	  19,	   8, -1
  17,	  18,	   7, -1
   8,	  19,	  20, -1
   8,	  20,	  10, -1
   9,	  21,	  22, -1
   9,	  22,	  12, -1
   9,	  10,	  23, -1
   9,	  23,	  21, -1
  10,	  20,	  24, -1
  10,	  24,	  23, -1
  11,	  12,	  25, -1
  11,	  25,	  14, -1
  12,	  22,	  26, -1
  12,	  26,	  25, -1
  13,	  15,	  27, -1
  28,	  13,	  27, -1
  13,	  28,	  16, -1
  15,	  14,	  29, -1
  29,	  14,	  25, -1
  15,	  29,	  30, -1
  30,	  27,	  15, -1
  17,	  16,	  31, -1
  28,	  31,	  16, -1
  17,	  31,	  18, -1
  18,	  32,	  33, -1
  18,	  33,	  19, -1
  18,	  31,	  34, -1
  18,	  34,	  32, -1
  19,	  33,	  35, -1
  19,	  35,	  20, -1
  20,	  35,	  36, -1
  20,	  36,	  24, -1
  21,	  37,	  38, -1
  21,	  38,	  22, -1
  21,	  23,	  39, -1
  21,	  39,	  37, -1
  22,	  38,	  40, -1
  22,	  40,	  26, -1
  23,	  24,	  39, -1
  24,	  36,	  41, -1
  24,	  41,	  39, -1
  29,	  25,	  42, -1
  42,	  25,	  26, -1
  42,	  26,	  43, -1
  43,	  26,	  40, -1
  30,	  44,	  27, -1
  28,	  27,	  44, -1
  44,	  34,	  28, -1
  28,	  34,	  31, -1
  42,	  33,	  29, -1
  29,	  33,	  32, -1
  29,	  32,	  30, -1
  32,	  44,	  30, -1
  32,	  34,	  44, -1
  42,	  35,	  33, -1
  43,	  36,	  35, -1
  43,	  35,	  42, -1
  45,	  41,	  36, -1
  45,	  36,	  43, -1
  37,	  46,	  38, -1
  47,	  46,	  37, -1
  47,	  37,	  39, -1
  48,	  40,	  38, -1
  38,	  46,	  48, -1
  39,	  41,	  47, -1
  43,	  40,	  45, -1
  48,	  45,	  40, -1
  47,	  41,	  45, -1
  48,	  47,	  45, -1
  48,	  46,	  47, -1
]
colorPerVertex FALSE
colorIndex [
1,
1,
1,
1,
1,
1,
1,
1,
1,
1,
1,
1,
1,
1,
1,
1,
1,
1,
1,
1,
1,
1,
1,
1,
1,
1,
1,
1,
1,
1,
1,
1,
1,
1,
1,
1,
1,
1,
1,
1,
1,
1,
1,
1,
1,
1,
1,
1,
1,
]
normal Normal {
vector [
 -0.421737	  0.189007	  0.886800,
 -0.885369	 -0.272129	  0.376918,
 -0.804824	 -0.377305	  0.458149,
 -0.437517	  0.223672	  0.870948,
 -0.396490	  0.259637	  0.880559,
 -0.581285	  0.711276	  0.395214,
 -0.946487	  0.315458	 -0.068184,
 -0.572181	 -0.641388	 -0.511107,
 -0.523330	 -0.678232	 -0.515875,
 -0.841817	 -0.021184	  0.539347,
 -0.710220	 -0.511258	 -0.483946,
 -0.383194	  0.273397	  0.882279,
 -0.384992	  0.249321	  0.888606,
 -0.353475	  0.919804	  0.170341,
  0.213492	  0.164197	  0.963047,
  0.461174	  0.339583	  0.819757,
 -0.324326	  0.758509	 -0.565223,
 -0.608304	  0.087297	 -0.788889,
  0.095144	 -0.533472	 -0.840450,
  0.084241	 -0.633367	 -0.769253,
 -0.017833	 -0.507934	 -0.861212,
 -0.878163	 -0.045864	  0.476158,
 -0.235008	  0.297146	  0.925460,
 -0.812923	 -0.436887	 -0.385079,
 -0.045074	 -0.469494	 -0.881785,
  0.537177	  0.301371	  0.787792,
  0.641014	  0.330252	  0.692845,
  0.570215	  0.817948	  0.076255,
 -0.031777	  0.810656	 -0.584660,
  0.993495	 -0.105745	 -0.042264,
  0.999945	  0.000649	  0.010453,
 -0.235184	  0.424291	 -0.874452,
  0.772295	 -0.392852	 -0.499228,
  0.671285	 -0.401375	 -0.623117,
  0.470291	  0.138867	 -0.871517,
  0.638083	 -0.266339	 -0.722436,
  0.482945	 -0.332287	 -0.810154,
 -0.756579	 -0.646058	 -0.100984,
 -0.209805	  0.149708	  0.966214,
 -0.314033	 -0.537295	 -0.782750,
  0.685802	  0.253100	  0.682360,
  0.352853	 -0.403749	 -0.844086,
  0.974495	  0.039110	 -0.220974,
  0.934894	  0.044456	 -0.352132,
  0.866487	  0.343609	 -0.362123,
  0.831984	 -0.227848	 -0.505853,
 -0.403603	 -0.837616	  0.368109,
  0.165442	 -0.659986	 -0.732835,
  0.539379	 -0.637625	  0.550005,
]
}
normalIndex [
   0,	   1,	   2, -1
   0,	   2,	   3, -1
   3,	   4,	   0, -1
   4,	   5,	   0, -1
   0,	   5,	   6, -1
   0,	   6,	   1, -1
   2,	   1,	   7, -1
   7,	   1,	   6, -1
   2,	   7,	   8, -1
   3,	   2,	   9, -1
   2,	   8,	  10, -1
   2,	  10,	   9, -1
   3,	  11,	   4, -1
   3,	   9,	  12, -1
   3,	  12,	  11, -1
   4,	  13,	   5, -1
   4,	  11,	  14, -1
   4,	  14,	  15, -1
  13,	   4,	  15, -1
  13,	  16,	   5, -1
   5,	  16,	   6, -1
   7,	   6,	  17, -1
   6,	  16,	  17, -1
   7,	  18,	  19, -1
   7,	  19,	   8, -1
  17,	  18,	   7, -1
   8,	  19,	  20, -1
   8,	  20,	  10, -1
   9,	  21,	  22, -1
   9,	  22,	  12, -1
   9,	  10,	  23, -1
   9,	  23,	  21, -1
  10,	  20,	  24, -1
  10,	  24,	  23, -1
  11,	  12,	  25, -1
  11,	  25,	  14, -1
  12,	  22,	  26, -1
  12,	  26,	  25, -1
  13,	  15,	  27, -1
  28,	  13,	  27, -1
  13,	  28,	  16, -1
  15,	  14,	  29, -1
  29,	  14,	  25, -1
  15,	  29,	  30, -1
  30,	  27,	  15, -1
  17,	  16,	  31, -1
  28,	  31,	  16, -1
  17,	  31,	  18, -1
  18,	  32,	  33, -1
  18,	  33,	  19, -1
  18,	  31,	  34, -1
  18,	  34,	  32, -1
  19,	  33,	  35, -1
  19,	  35,	  20, -1
  20,	  35,	  36, -1
  20,	  36,	  24, -1
  21,	  37,	  38, -1
  21,	  38,	  22, -1
  21,	  23,	  39, -1
  21,	  39,	  37, -1
  22,	  38,	  40, -1
  22,	  40,	  26, -1
  23,	  24,	  39, -1
  24,	  36,	  41, -1
  24,	  41,	  39, -1
  29,	  25,	  42, -1
  42,	  25,	  26, -1
  42,	  26,	  43, -1
  43,	  26,	  40, -1
  30,	  44,	  27, -1
  28,	  27,	  44, -1
  44,	  34,	  28, -1
  28,	  34,	  31, -1
  42,	  33,	  29, -1
  29,	  33,	  32, -1
  29,	  32,	  30, -1
  32,	  44,	  30, -1
  32,	  34,	  44, -1
  42,	  35,	  33, -1
  43,	  36,	  35, -1
  43,	  35,	  42, -1
  45,	  41,	  36, -1
  45,	  36,	  43, -1
  37,	  46,	  38, -1
  47,	  46,	  37, -1
  47,	  37,	  39, -1
  48,	  40,	  38, -1
  38,	  46,	  48, -1
  39,	  41,	  47, -1
  43,	  40,	  45, -1
  48,	  45,	  40, -1
  47,	  41,	  45, -1
  48,	  47,	  45, -1
  48,	  46,	  47, -1
]
normalPerVertex TRUE
}
}
]
}
