#VRML V2.0 utf8
Transform {
children [
Shape {
appearance Appearance {
              material DEF surface Material {
              diffuseColor 0.8 0.8 0.8
              ambientIntensity 0.2
              specularColor 0.4 0.4 0.4
              emissiveColor 0 0 0
              shininess 0.25
              transparency 0
            }
          }
geometry IndexedFaceSet {
solid FALSE
coord DEF bone Coordinate {
point [
  0.008142	 -0.005977	  0.002884,
  0.004687	 -0.008959	  0.001226,
  0.004419	 -0.006306	 -0.002444,
  0.006418	 -0.001782	  0.001819,
  0.007077	 -0.010472	  0.005449,
  0.004315	 -0.006195	  0.009268,
  0.004663	 -0.011107	  0.010479,
  0.005035	 -0.012990	  0.003690,
  0.002349	 -0.009532	  0.000264,
  0.001653	 -0.005873	 -0.002506,
  0.000725	 -0.004174	  0.001588,
  0.003846	 -0.001636	  0.007204,
  0.006840	 -0.015052	  0.007894,
  0.005572	 -0.015780	  0.012262,
  0.000440	 -0.006460	  0.009555,
  0.001039	 -0.011319	  0.010984,
  0.001920	 -0.016066	  0.012676,
  0.002904	 -0.012971	  0.003344,
  0.006080	 -0.016951	  0.005869,
 -0.001368	 -0.010833	 -0.001183,
 -0.003026	 -0.006921	 -0.003590,
 -0.000301	 -0.002204	  0.007016,
 -0.005782	 -0.003989	  0.005320,
 -0.007118	 -0.007077	 -0.000345,
  0.007613	 -0.019543	  0.009994,
  0.006665	 -0.020360	  0.014193,
  0.003177	 -0.020659	  0.014435,
 -0.005545	 -0.008267	  0.007162,
 -0.003340	 -0.012483	  0.008199,
 -0.001485	 -0.016661	  0.009788,
 -0.000028	 -0.020820	  0.011709,
  0.003620	 -0.016775	  0.005941,
 -0.000265	 -0.013566	  0.002869,
  0.007178	 -0.020902	  0.008005,
 -0.005176	 -0.011460	  0.000685,
  0.009749	 -0.023736	  0.011485,
  0.007596	 -0.024999	  0.015794,
  0.005089	 -0.025073	  0.015835,
  0.001155	 -0.024971	  0.013630,
 -0.003703	 -0.015019	  0.003712,
 -0.002122	 -0.018791	  0.007156,
 -0.000493	 -0.022946	  0.009724,
  0.000724	 -0.027267	  0.009793,
  0.000791	 -0.017346	  0.006033,
  0.004378	 -0.020885	  0.008055,
  0.007632	 -0.024975	  0.010287,
  0.011773	 -0.027844	  0.013014,
  0.008395	 -0.029735	  0.018106,
  0.006616	 -0.029531	  0.017941,
  0.002148	 -0.029139	  0.015710,
  0.002382	 -0.031943	  0.008409,
  0.001969	 -0.021838	  0.008185,
  0.003443	 -0.026459	  0.009175,
  0.004595	 -0.031513	  0.008516,
  0.004978	 -0.025285	  0.009563,
  0.008537	 -0.029271	  0.011177,
  0.011418	 -0.032327	  0.015648,
  0.009696	 -0.033520	  0.016069,
  0.007458	 -0.033803	  0.016078,
  0.002422	 -0.032898	  0.014897,
  0.002226	 -0.035266	  0.011121,
  0.004928	 -0.034251	  0.011917,
  0.006493	 -0.029574	  0.010186,
  0.006410	 -0.033181	  0.012934,
  0.009037	 -0.032256	  0.014324,
  0.006960	 -0.033306	  0.014146,
]
}
coordIndex [
   0,	   1,	   2, -1
   0,	   2,	   3, -1
   4,	   1,	   0, -1
   5,	   0,	   3, -1
   6,	   4,	   0, -1
   6,	   0,	   5, -1
   4,	   7,	   1, -1
   1,	   8,	   9, -1
   1,	   9,	   2, -1
   7,	   8,	   1, -1
   2,	   9,	  10, -1
   3,	   2,	  10, -1
   5,	   3,	  11, -1
  11,	   3,	  10, -1
  12,	   7,	   4, -1
  13,	  12,	   4, -1
  13,	   4,	   6, -1
  14,	   5,	  11, -1
  15,	   6,	   5, -1
  15,	   5,	  14, -1
  16,	  13,	   6, -1
  16,	   6,	  15, -1
   7,	  17,	   8, -1
  12,	  18,	   7, -1
  18,	  17,	   7, -1
   8,	  19,	  20, -1
   8,	  20,	   9, -1
  17,	  19,	   8, -1
   9,	  20,	  10, -1
  21,	  11,	  10, -1
  22,	  21,	  10, -1
  23,	  22,	  10, -1
  20,	  23,	  10, -1
  14,	  11,	  21, -1
  24,	  18,	  12, -1
  25,	  24,	  12, -1
  25,	  12,	  13, -1
  26,	  25,	  13, -1
  26,	  13,	  16, -1
  27,	  14,	  21, -1
  28,	  15,	  14, -1
  28,	  14,	  27, -1
  29,	  16,	  15, -1
  29,	  15,	  28, -1
  30,	  26,	  16, -1
  30,	  16,	  29, -1
  18,	  31,	  17, -1
  17,	  32,	  19, -1
  31,	  32,	  17, -1
  24,	  33,	  18, -1
  33,	  31,	  18, -1
  19,	  34,	  23, -1
  19,	  23,	  20, -1
  32,	  34,	  19, -1
  27,	  21,	  22, -1
  34,	  27,	  22, -1
  34,	  22,	  23, -1
  35,	  33,	  24, -1
  36,	  35,	  24, -1
  36,	  24,	  25, -1
  37,	  36,	  25, -1
  37,	  25,	  26, -1
  38,	  37,	  26, -1
  38,	  26,	  30, -1
  39,	  28,	  27, -1
  39,	  27,	  34, -1
  40,	  29,	  28, -1
  40,	  28,	  39, -1
  41,	  30,	  29, -1
  41,	  29,	  40, -1
  42,	  38,	  30, -1
  42,	  30,	  41, -1
  31,	  43,	  32, -1
  33,	  44,	  31, -1
  44,	  43,	  31, -1
  32,	  39,	  34, -1
  43,	  39,	  32, -1
  35,	  45,	  33, -1
  45,	  44,	  33, -1
  46,	  45,	  35, -1
  47,	  46,	  35, -1
  47,	  35,	  36, -1
  48,	  47,	  36, -1
  48,	  36,	  37, -1
  49,	  48,	  37, -1
  49,	  37,	  38, -1
  50,	  49,	  38, -1
  50,	  38,	  42, -1
  43,	  40,	  39, -1
  51,	  41,	  40, -1
  51,	  40,	  43, -1
  52,	  42,	  41, -1
  52,	  41,	  51, -1
  53,	  50,	  42, -1
  53,	  42,	  52, -1
  44,	  51,	  43, -1
  45,	  54,	  44, -1
  54,	  51,	  44, -1
  46,	  55,	  45, -1
  55,	  54,	  45, -1
  56,	  55,	  46, -1
  57,	  56,	  46, -1
  57,	  46,	  47, -1
  58,	  57,	  47, -1
  58,	  47,	  48, -1
  59,	  58,	  48, -1
  59,	  48,	  49, -1
  60,	  59,	  49, -1
  60,	  49,	  50, -1
  61,	  60,	  50, -1
  61,	  50,	  53, -1
  54,	  52,	  51, -1
  62,	  53,	  52, -1
  62,	  52,	  54, -1
  63,	  61,	  53, -1
  63,	  53,	  62, -1
  55,	  62,	  54, -1
  56,	  64,	  55, -1
  64,	  62,	  55, -1
  56,	  57,	  65, -1
  64,	  56,	  65, -1
  57,	  58,	  65, -1
  58,	  59,	  65, -1
  59,	  60,	  65, -1
  60,	  61,	  65, -1
  61,	  63,	  65, -1
  64,	  63,	  62, -1
  63,	  64,	  65, -1
]
colorPerVertex FALSE
colorIndex [
1,
1,
1,
1,
1,
1,
1,
1,
1,
1,
1,
1,
1,
1,
1,
1,
1,
1,
1,
1,
1,
1,
1,
1,
1,
1,
1,
1,
1,
1,
1,
1,
1,
1,
1,
1,
1,
1,
1,
1,
1,
1,
1,
1,
1,
1,
1,
1,
1,
1,
1,
1,
1,
1,
1,
1,
1,
1,
1,
1,
1,
1,
1,
1,
1,
1,
]
normal Normal {
vector [
  0.998561	 -0.041427	 -0.034041,
  0.522480	 -0.543831	 -0.656705,
  0.432396	  0.159541	 -0.887457,
  0.570239	  0.804155	 -0.167816,
  0.989703	 -0.114919	 -0.085338,
  0.503899	  0.345797	  0.791524,
  0.541207	  0.285362	  0.790989,
  0.592916	 -0.383695	 -0.707975,
  0.369204	 -0.506931	 -0.778915,
  0.224939	 -0.001505	 -0.974372,
 -0.177196	  0.905009	 -0.386730,
  0.092833	  0.877415	  0.470664,
  0.994330	  0.083823	 -0.065439,
  0.554800	  0.373619	  0.743375,
 -0.243718	  0.313578	  0.917753,
 -0.265693	  0.227371	  0.936862,
 -0.308150	  0.266372	  0.913285,
  0.189049	 -0.599967	 -0.777368,
  0.593365	 -0.286124	 -0.752364,
  0.031169	 -0.639142	 -0.768457,
 -0.039839	  0.121697	 -0.991767,
 -0.323869	  0.817385	  0.476435,
 -0.825408	  0.549827	  0.128031,
 -0.754755	  0.182060	 -0.630237,
  0.962298	  0.271995	 -0.000970,
  0.561635	  0.388342	  0.730587,
 -0.291749	  0.254622	  0.921982,
 -0.806344	  0.003709	  0.591435,
 -0.767412	 -0.104132	  0.632641,
 -0.798651	 -0.035469	  0.600749,
 -0.817968	 -0.029436	  0.574510,
  0.040182	 -0.522357	 -0.851779,
  0.099015	 -0.681466	 -0.725121,
  0.479909	 -0.280879	 -0.831141,
 -0.728574	 -0.564534	 -0.387920,
  0.947002	  0.309223	 -0.086993,
  0.453080	  0.453349	  0.767589,
 -0.226353	  0.296226	  0.927909,
 -0.819725	 -0.046933	  0.570831,
 -0.615787	 -0.674661	 -0.406987,
 -0.747921	 -0.559939	 -0.356486,
 -0.861489	 -0.363977	 -0.354059,
 -0.845135	 -0.143869	 -0.514829,
  0.046198	 -0.542356	 -0.838878,
  0.082657	 -0.402430	 -0.911712,
  0.377315	 -0.237634	 -0.895077,
  0.979861	  0.150258	 -0.131509,
  0.437426	  0.092447	  0.894490,
 -0.238939	  0.011860	  0.970962,
 -0.846815	  0.013496	  0.531716,
 -0.659899	 -0.488820	 -0.570604,
 -0.042571	 -0.375725	 -0.925753,
  0.045990	 -0.041881	 -0.998064,
  0.397269	 -0.220440	 -0.890833,
  0.279737	 -0.143715	 -0.949259,
  0.451346	 -0.334392	 -0.827326,
  0.500277	 -0.633463	 -0.590294,
  0.493202	 -0.656580	  0.570661,
 -0.090443	 -0.828481	  0.552666,
 -0.480164	 -0.671990	  0.563801,
 -0.448359	 -0.893832	  0.006288,
  0.503825	 -0.737316	 -0.450029,
  0.534469	 -0.238228	 -0.810920,
  0.656193	 -0.589026	 -0.471656,
  0.433378	 -0.663641	 -0.609725,
  0.311023	 -0.915303	 -0.255902,
]
}
normalIndex [
   0,	   1,	   2, -1
   0,	   2,	   3, -1
   4,	   1,	   0, -1
   5,	   0,	   3, -1
   6,	   4,	   0, -1
   6,	   0,	   5, -1
   4,	   7,	   1, -1
   1,	   8,	   9, -1
   1,	   9,	   2, -1
   7,	   8,	   1, -1
   2,	   9,	  10, -1
   3,	   2,	  10, -1
   5,	   3,	  11, -1
  11,	   3,	  10, -1
  12,	   7,	   4, -1
  13,	  12,	   4, -1
  13,	   4,	   6, -1
  14,	   5,	  11, -1
  15,	   6,	   5, -1
  15,	   5,	  14, -1
  16,	  13,	   6, -1
  16,	   6,	  15, -1
   7,	  17,	   8, -1
  12,	  18,	   7, -1
  18,	  17,	   7, -1
   8,	  19,	  20, -1
   8,	  20,	   9, -1
  17,	  19,	   8, -1
   9,	  20,	  10, -1
  21,	  11,	  10, -1
  22,	  21,	  10, -1
  23,	  22,	  10, -1
  20,	  23,	  10, -1
  14,	  11,	  21, -1
  24,	  18,	  12, -1
  25,	  24,	  12, -1
  25,	  12,	  13, -1
  26,	  25,	  13, -1
  26,	  13,	  16, -1
  27,	  14,	  21, -1
  28,	  15,	  14, -1
  28,	  14,	  27, -1
  29,	  16,	  15, -1
  29,	  15,	  28, -1
  30,	  26,	  16, -1
  30,	  16,	  29, -1
  18,	  31,	  17, -1
  17,	  32,	  19, -1
  31,	  32,	  17, -1
  24,	  33,	  18, -1
  33,	  31,	  18, -1
  19,	  34,	  23, -1
  19,	  23,	  20, -1
  32,	  34,	  19, -1
  27,	  21,	  22, -1
  34,	  27,	  22, -1
  34,	  22,	  23, -1
  35,	  33,	  24, -1
  36,	  35,	  24, -1
  36,	  24,	  25, -1
  37,	  36,	  25, -1
  37,	  25,	  26, -1
  38,	  37,	  26, -1
  38,	  26,	  30, -1
  39,	  28,	  27, -1
  39,	  27,	  34, -1
  40,	  29,	  28, -1
  40,	  28,	  39, -1
  41,	  30,	  29, -1
  41,	  29,	  40, -1
  42,	  38,	  30, -1
  42,	  30,	  41, -1
  31,	  43,	  32, -1
  33,	  44,	  31, -1
  44,	  43,	  31, -1
  32,	  39,	  34, -1
  43,	  39,	  32, -1
  35,	  45,	  33, -1
  45,	  44,	  33, -1
  46,	  45,	  35, -1
  47,	  46,	  35, -1
  47,	  35,	  36, -1
  48,	  47,	  36, -1
  48,	  36,	  37, -1
  49,	  48,	  37, -1
  49,	  37,	  38, -1
  50,	  49,	  38, -1
  50,	  38,	  42, -1
  43,	  40,	  39, -1
  51,	  41,	  40, -1
  51,	  40,	  43, -1
  52,	  42,	  41, -1
  52,	  41,	  51, -1
  53,	  50,	  42, -1
  53,	  42,	  52, -1
  44,	  51,	  43, -1
  45,	  54,	  44, -1
  54,	  51,	  44, -1
  46,	  55,	  45, -1
  55,	  54,	  45, -1
  56,	  55,	  46, -1
  57,	  56,	  46, -1
  57,	  46,	  47, -1
  58,	  57,	  47, -1
  58,	  47,	  48, -1
  59,	  58,	  48, -1
  59,	  48,	  49, -1
  60,	  59,	  49, -1
  60,	  49,	  50, -1
  61,	  60,	  50, -1
  61,	  50,	  53, -1
  54,	  52,	  51, -1
  62,	  53,	  52, -1
  62,	  52,	  54, -1
  63,	  61,	  53, -1
  63,	  53,	  62, -1
  55,	  62,	  54, -1
  56,	  64,	  55, -1
  64,	  62,	  55, -1
  56,	  57,	  65, -1
  64,	  56,	  65, -1
  57,	  58,	  65, -1
  58,	  59,	  65, -1
  59,	  60,	  65, -1
  60,	  61,	  65, -1
  61,	  63,	  65, -1
  64,	  63,	  62, -1
  63,	  64,	  65, -1
]
normalPerVertex TRUE
}
}
]
}
