# 
# Wavefront OBJ file
# Converted by the DEEP Exploration 2.00.1211
# Right Hemisphere, LTD
# http://www.righthemisphere.com/
# 
mtllib thumb2_l.mtl
# object Object #0
g Object__0
v 0.004419 -0.006306 0.002444
v 0.004687 -0.008959 -0.001226
v 0.008142 -0.005977 -0.002884
v 0.006418 -0.001782 -0.001819
v 0.001653 -0.005873 0.002506
v 0.000725 -0.004174 -0.001588
v 0.007077 -0.010472 -0.005449
v 0.005035 -0.01299 -0.00369
v 0.002349 -0.009532 -0.000264
v 0.004315 -0.006195 -0.009268
v 0.004663 -0.011107 -0.010479
v 0.003846 -0.001636 -0.007204
v -0.003026 -0.006921 0.00359
v -0.000301 -0.002204 -0.007016
v -0.005782 -0.003989 -0.00532
v -0.007118 -0.007077 0.000345
v 0.00684 -0.015052 -0.007894
v 0.005572 -0.01578 -0.012262
v 0.002904 -0.012971 -0.003344
v 0.00608 -0.016951 -0.005869
v -0.001368 -0.010833 0.001183
v 0.00044 -0.00646 -0.009555
v 0.001039 -0.011319 -0.010984
v 0.00192 -0.016066 -0.012676
v -0.005545 -0.008267 -0.007162
v -0.005176 -0.01146 -0.000685
v 0.007613 -0.019543 -0.009994
v 0.006665 -0.02036 -0.014193
v 0.003177 -0.020659 -0.014435
v 0.00362 -0.016775 -0.005941
v -0.000265 -0.013566 -0.002869
v 0.007178 -0.020902 -0.008005
v -0.00334 -0.012483 -0.008199
v -0.001485 -0.016661 -0.009788
v -2.8e-005 -0.02082 -0.011709
v -0.003703 -0.015019 -0.003712
v 0.009749 -0.023736 -0.011485
v 0.007596 -0.024999 -0.015794
v 0.005089 -0.025073 -0.015835
v 0.001155 -0.024971 -0.01363
v 0.000791 -0.017346 -0.006033
v 0.004378 -0.020885 -0.008055
v 0.007632 -0.024975 -0.010287
v -0.002122 -0.018791 -0.007156
v -0.000493 -0.022946 -0.009724
v 0.000724 -0.027267 -0.009793
v 0.011773 -0.027844 -0.013014
v 0.008395 -0.029735 -0.018106
v 0.006616 -0.029531 -0.017941
v 0.002148 -0.029139 -0.01571
v 0.002382 -0.031943 -0.008409
v 0.001969 -0.021838 -0.008185
v 0.004978 -0.025285 -0.009563
v 0.008537 -0.029271 -0.011177
v 0.003443 -0.026459 -0.009175
v 0.004595 -0.031513 -0.008516
v 0.011418 -0.032327 -0.015648
v 0.009696 -0.03352 -0.016069
v 0.007458 -0.033803 -0.016078
v 0.002422 -0.032898 -0.014897
v 0.002226 -0.035266 -0.011121
v 0.004928 -0.034251 -0.011917
v 0.006493 -0.029574 -0.010186
v 0.009037 -0.032256 -0.014324
v 0.00641 -0.033181 -0.012934
v 0.00696 -0.033306 -0.014146
# 66 verticies
vn 0.432396 0.159541 0.887457
vn 0.52248 -0.543831 0.656705
vn 0.998562 -0.041427 0.034041
vn 0.570239 0.804155 0.167816
vn 0.224939 -0.001505 0.974372
vn -0.177196 0.905009 0.38673
vn 0.989703 -0.114919 0.085338
vn 0.592916 -0.383695 0.707975
vn 0.369204 -0.506931 0.778915
vn 0.503899 0.345797 -0.791524
vn 0.541207 0.285362 -0.790989
vn 0.092833 0.877415 -0.470664
vn -0.039839 0.121697 0.991767
vn -0.323869 0.817385 -0.476435
vn -0.825408 0.549827 -0.128031
vn -0.754755 0.18206 0.630237
vn 0.99433 0.083823 0.065439
vn 0.5548 0.373619 -0.743375
vn 0.189049 -0.599967 0.777368
vn 0.593365 -0.286124 0.752364
vn 0.031169 -0.639142 0.768457
vn -0.243718 0.313578 -0.917753
vn -0.265693 0.227371 -0.936862
vn -0.30815 0.266372 -0.913285
vn -0.806344 0.003709 -0.591435
vn -0.728574 -0.564534 0.38792
vn 0.962298 0.271995 0.00097
vn 0.561635 0.388342 -0.730587
vn -0.291749 0.254622 -0.921982
vn 0.040182 -0.522357 0.85178
vn 0.099015 -0.681466 0.725121
vn 0.479909 -0.280879 0.831141
vn -0.767412 -0.104132 -0.632641
vn -0.798651 -0.035469 -0.600749
vn -0.817968 -0.029436 -0.57451
vn -0.615787 -0.674661 0.406987
vn 0.947002 0.309223 0.086993
vn 0.45308 0.453349 -0.767589
vn -0.226353 0.296226 -0.927909
vn -0.819725 -0.046933 -0.570831
vn 0.046198 -0.542356 0.838878
vn 0.082657 -0.40243 0.911712
vn 0.377315 -0.237634 0.895077
vn -0.747921 -0.559939 0.356486
vn -0.861489 -0.363977 0.354059
vn -0.845135 -0.143869 0.514829
vn 0.979861 0.150258 0.131509
vn 0.437426 0.092447 -0.89449
vn -0.238939 0.01186 -0.970962
vn -0.846815 0.013496 -0.531716
vn -0.659899 -0.48882 0.570604
vn -0.042571 -0.375725 0.925753
vn 0.279737 -0.143715 0.949259
vn 0.451346 -0.334392 0.827326
vn 0.04599 -0.041881 0.998064
vn 0.397269 -0.22044 0.890833
vn 0.500277 -0.633463 0.590294
vn 0.493202 -0.65658 -0.570661
vn -0.090443 -0.828481 -0.552666
vn -0.480164 -0.67199 -0.563801
vn -0.448359 -0.893832 -0.006288
vn 0.503825 -0.737316 0.450029
vn 0.534469 -0.238228 0.81092
vn 0.433378 -0.663641 0.609725
vn 0.656193 -0.589026 0.471656
vn 0.311023 -0.915303 0.255902
# 66 normals
usemtl Material__1
f  1//1 2//2 3//3
f  4//4 1//1 3//3
f  1//1 5//5 2//2
f  6//6 5//5 1//1
f  6//6 1//1 4//4
f  3//3 2//2 7//7
f  2//2 8//8 7//7
f  5//5 9//9 2//2
f  2//2 9//9 8//8
f  4//4 3//3 10//10
f  3//3 7//7 11//11
f  10//10 3//3 11//11
f  12//12 4//4 10//10
f  6//6 4//4 12//12
f  5//5 13//13 9//9
f  6//6 13//13 5//5
f  6//6 12//12 14//14
f  6//6 14//14 15//15
f  6//6 15//15 16//16
f  6//6 16//16 13//13
f  7//7 8//8 17//17
f  7//7 17//17 18//18
f  11//11 7//7 18//18
f  9//9 19//19 8//8
f  8//8 20//20 17//17
f  8//8 19//19 20//20
f  13//13 21//21 9//9
f  9//9 21//21 19//19
f  12//12 10//10 22//22
f  10//10 11//11 23//23
f  22//22 10//10 23//23
f  11//11 18//18 24//24
f  23//23 11//11 24//24
f  14//14 12//12 22//22
f  13//13 16//16 21//21
f  14//14 22//22 25//25
f  15//15 14//14 25//25
f  15//15 25//25 26//26
f  16//16 15//15 26//26
f  16//16 26//26 21//21
f  17//17 20//20 27//27
f  17//17 27//27 28//28
f  18//18 17//17 28//28
f  18//18 28//28 29//29
f  24//24 18//18 29//29
f  19//19 30//30 20//20
f  21//21 31//31 19//19
f  19//19 31//31 30//30
f  20//20 32//32 27//27
f  20//20 30//30 32//32
f  21//21 26//26 31//31
f  22//22 23//23 33//33
f  25//25 22//22 33//33
f  23//23 24//24 34//34
f  33//33 23//23 34//34
f  24//24 29//29 35//35
f  34//34 24//24 35//35
f  25//25 33//33 36//36
f  26//26 25//25 36//36
f  26//26 36//36 31//31
f  27//27 32//32 37//37
f  27//27 37//37 38//38
f  28//28 27//27 38//38
f  28//28 38//38 39//39
f  29//29 28//28 39//39
f  29//29 39//39 40//40
f  35//35 29//29 40//40
f  31//31 41//41 30//30
f  30//30 42//42 32//32
f  30//30 41//41 42//42
f  31//31 36//36 41//41
f  32//32 43//43 37//37
f  32//32 42//42 43//43
f  33//33 34//34 44//44
f  36//36 33//33 44//44
f  34//34 35//35 45//45
f  44//44 34//34 45//45
f  35//35 40//40 46//46
f  45//45 35//35 46//46
f  36//36 44//44 41//41
f  37//37 43//43 47//47
f  37//37 47//47 48//48
f  38//38 37//37 48//48
f  38//38 48//48 49//49
f  39//39 38//38 49//49
f  39//39 49//49 50//50
f  40//40 39//39 50//50
f  40//40 50//50 51//51
f  46//46 40//40 51//51
f  41//41 44//44 52//52
f  41//41 52//52 42//42
f  42//42 53//53 43//43
f  42//42 52//52 53//53
f  43//43 54//54 47//47
f  43//43 53//53 54//54
f  44//44 45//45 52//52
f  45//45 46//46 55//55
f  52//52 45//45 55//55
f  46//46 51//51 56//56
f  55//55 46//46 56//56
f  47//47 54//54 57//57
f  47//47 57//57 58//58
f  48//48 47//47 58//58
f  48//48 58//58 59//59
f  49//49 48//48 59//59
f  49//49 59//59 60//60
f  50//50 49//49 60//60
f  50//50 60//60 61//61
f  51//51 50//50 61//61
f  51//51 61//61 62//62
f  56//56 51//51 62//62
f  52//52 55//55 53//53
f  53//53 55//55 63//63
f  53//53 63//63 54//54
f  54//54 64//64 57//57
f  54//54 63//63 64//64
f  55//55 56//56 63//63
f  56//56 62//62 65//65
f  63//63 56//56 65//65
f  66//66 58//58 57//57
f  66//66 57//57 64//64
f  66//66 59//59 58//58
f  66//66 60//60 59//59
f  66//66 61//61 60//60
f  66//66 62//62 61//61
f  66//66 65//65 62//62
f  63//63 65//65 64//64
f  66//66 64//64 65//65
