# 
# Wavefront OBJ file
# Converted by the DEEP Exploration 2.00.1211
# Right Hemisphere, LTD
# http://www.righthemisphere.com/
# 
mtllib thumb3_r.mtl
# object Object #0
g Object__0
v -0.001221 -0.006891 0.003859
v -0.003785 -0.009283 0.002804
v -0.001452 -0.011243 0.004421
v 0.000407 -0.009958 0.004568
v 0.003311 -0.004774 0.00517
v -0.002352 -0.00364 0.002146
v -0.004427 -0.005521 0.00115
v -0.002403 -0.009417 -7.3e-005
v -0.001329 -0.010735 0.001532
v 0.000525 -0.015319 0.006497
v 0.001077 -0.016376 0.004604
v 0.00295 -0.009019 0.005953
v 0.002292 -0.014176 0.008013
v 0.002744 -0.001045 0.002938
v 0.005745 -0.008283 0.006911
v 0.006066 -0.004818 0.006474
v -0.000642 -0.004612 -0.000301
v -0.003452 -0.006433 -0.000617
v 0.001886 -0.00823 -0.002189
v 0.001834 -0.010048 -0.000338
v 0.003303 -0.016172 0.00343
v 0.001535 -0.018543 0.008272
v 0.003406 -0.018263 0.008904
v 0.001922 -0.019933 0.00644
v 0.004029 -0.02063 0.005972
v 0.005774 -0.013513 0.008042
v 0.007478 -0.017812 0.009382
v 0.005437 -0.000754 0.003586
v 0.00346 -0.003175 0.000151
v 0.00673 -0.008856 0.00401
v 0.006902 -0.006056 0.003131
v 0.000917 -0.00583 -0.003002
v 0.004555 -0.007392 -0.001018
v 0.004704 -0.009529 0.000754
v 0.005431 -0.004869 -0.002369
v 0.005345 -0.015562 0.003992
v 0.006135 -0.019902 0.00618
v 0.002424 -0.024514 0.008907
v 0.005109 -0.020791 0.010421
v 0.003916 -0.02399 0.007499
v 0.008002 -0.022032 0.010325
v 0.006613 -0.023474 0.008156
v 0.006331 -0.014229 0.00564
v 0.007315 -0.018555 0.007253
v 0.007132 -0.002808 0.001555
v 0.008423 -0.023321 0.009147
v 0.004464 -0.026015 0.0098
v 0.006486 -0.02583 0.009199
v 0.007605 -0.026372 0.010448
# 49 verticies
vn -0.421737 0.189007 0.8868
vn -0.885369 -0.272129 0.376918
vn -0.804824 -0.377305 0.458149
vn -0.437517 0.223672 0.870948
vn -0.39649 0.259637 0.880559
vn -0.581285 0.711276 0.395214
vn -0.946487 0.315458 -0.068184
vn -0.572181 -0.641388 -0.511107
vn -0.52333 -0.678232 -0.515875
vn -0.841817 -0.021184 0.539347
vn -0.71022 -0.511258 -0.483946
vn -0.383194 0.273397 0.882279
vn -0.384992 0.249321 0.888606
vn -0.353475 0.919804 0.170341
vn 0.213492 0.164197 0.963048
vn 0.461174 0.339583 0.819757
vn -0.324326 0.758509 -0.565223
vn -0.608304 0.087297 -0.788889
vn 0.095144 -0.533472 -0.84045
vn 0.084241 -0.633367 -0.769253
vn -0.017833 -0.507934 -0.861212
vn -0.878163 -0.045864 0.476158
vn -0.235008 0.297146 0.92546
vn -0.812923 -0.436887 -0.385079
vn -0.045074 -0.469494 -0.881785
vn 0.537177 0.301371 0.787792
vn 0.641014 0.330252 0.692845
vn 0.570215 0.817948 0.076255
vn -0.031777 0.810656 -0.58466
vn 0.993495 -0.105745 -0.042264
vn 0.999945 0.000649 0.010453
vn -0.235184 0.424291 -0.874452
vn 0.772295 -0.392852 -0.499228
vn 0.671285 -0.401375 -0.623117
vn 0.470291 0.138867 -0.871517
vn 0.638083 -0.266339 -0.722436
vn 0.482945 -0.332287 -0.810154
vn -0.756579 -0.646058 -0.100984
vn -0.209805 0.149708 0.966214
vn -0.314033 -0.537295 -0.78275
vn 0.685802 0.2531 0.68236
vn 0.352853 -0.403749 -0.844086
vn 0.974495 0.03911 -0.220974
vn 0.934894 0.044456 -0.352132
vn 0.866487 0.343609 -0.362123
vn 0.831984 -0.227848 -0.505853
vn -0.403603 -0.837616 0.368109
vn 0.165442 -0.659986 -0.732835
vn 0.539379 -0.637625 0.550005
# 49 normals
usemtl Material__1
f  1//1 2//2 3//3
f  1//1 3//3 4//4
f  4//4 5//5 1//1
f  5//5 6//6 1//1
f  1//1 6//6 7//7
f  1//1 7//7 2//2
f  3//3 2//2 8//8
f  8//8 2//2 7//7
f  3//3 8//8 9//9
f  4//4 3//3 10//10
f  3//3 9//9 11//11
f  3//3 11//11 10//10
f  4//4 12//12 5//5
f  4//4 10//10 13//13
f  4//4 13//13 12//12
f  5//5 14//14 6//6
f  5//5 12//12 15//15
f  5//5 15//15 16//16
f  14//14 5//5 16//16
f  14//14 17//17 6//6
f  6//6 17//17 7//7
f  8//8 7//7 18//18
f  7//7 17//17 18//18
f  8//8 19//19 20//20
f  8//8 20//20 9//9
f  18//18 19//19 8//8
f  9//9 20//20 21//21
f  9//9 21//21 11//11
f  10//10 22//22 23//23
f  10//10 23//23 13//13
f  10//10 11//11 24//24
f  10//10 24//24 22//22
f  11//11 21//21 25//25
f  11//11 25//25 24//24
f  12//12 13//13 26//26
f  12//12 26//26 15//15
f  13//13 23//23 27//27
f  13//13 27//27 26//26
f  14//14 16//16 28//28
f  29//29 14//14 28//28
f  14//14 29//29 17//17
f  16//16 15//15 30//30
f  30//30 15//15 26//26
f  16//16 30//30 31//31
f  31//31 28//28 16//16
f  18//18 17//17 32//32
f  29//29 32//32 17//17
f  18//18 32//32 19//19
f  19//19 33//33 34//34
f  19//19 34//34 20//20
f  19//19 32//32 35//35
f  19//19 35//35 33//33
f  20//20 34//34 36//36
f  20//20 36//36 21//21
f  21//21 36//36 37//37
f  21//21 37//37 25//25
f  22//22 38//38 39//39
f  22//22 39//39 23//23
f  22//22 24//24 40//40
f  22//22 40//40 38//38
f  23//23 39//39 41//41
f  23//23 41//41 27//27
f  24//24 25//25 40//40
f  25//25 37//37 42//42
f  25//25 42//42 40//40
f  30//30 26//26 43//43
f  43//43 26//26 27//27
f  43//43 27//27 44//44
f  44//44 27//27 41//41
f  31//31 45//45 28//28
f  29//29 28//28 45//45
f  45//45 35//35 29//29
f  29//29 35//35 32//32
f  43//43 34//34 30//30
f  30//30 34//34 33//33
f  30//30 33//33 31//31
f  33//33 45//45 31//31
f  33//33 35//35 45//45
f  43//43 36//36 34//34
f  44//44 37//37 36//36
f  44//44 36//36 43//43
f  46//46 42//42 37//37
f  46//46 37//37 44//44
f  38//38 47//47 39//39
f  48//48 47//47 38//38
f  48//48 38//38 40//40
f  49//49 41//41 39//39
f  39//39 47//47 49//49
f  40//40 42//42 48//48
f  44//44 41//41 46//46
f  49//49 46//46 41//41
f  48//48 42//42 46//46
f  49//49 48//48 46//46
f  49//49 47//47 48//48
