#VRML V2.0 utf8
Transform {
children [
Shape {
appearance Appearance {
              material DEF surface Material {
              diffuseColor 0.8 0.8 0.8
              ambientIntensity 0.2
              specularColor 0.4 0.4 0.4
              emissiveColor 0 0 0
              shininess 0.25
              transparency 0
            }
          }
geometry IndexedFaceSet {
solid FALSE
coord DEF bone Coordinate {
point [
  0.004419	 -0.006306	  0.002444,
  0.004687	 -0.008959	 -0.001226,
  0.008142	 -0.005977	 -0.002884,
  0.006418	 -0.001782	 -0.001819,
  0.001653	 -0.005873	  0.002506,
  0.000725	 -0.004174	 -0.001588,
  0.007077	 -0.010472	 -0.005449,
  0.005035	 -0.012990	 -0.003690,
  0.002349	 -0.009532	 -0.000264,
  0.004315	 -0.006195	 -0.009268,
  0.004663	 -0.011107	 -0.010479,
  0.003846	 -0.001636	 -0.007204,
 -0.003026	 -0.006921	  0.003590,
 -0.000301	 -0.002204	 -0.007016,
 -0.005782	 -0.003989	 -0.005320,
 -0.007118	 -0.007077	  0.000345,
  0.006840	 -0.015052	 -0.007894,
  0.005572	 -0.015780	 -0.012262,
  0.002904	 -0.012971	 -0.003344,
  0.006080	 -0.016951	 -0.005869,
 -0.001368	 -0.010833	  0.001183,
  0.000440	 -0.006460	 -0.009555,
  0.001039	 -0.011319	 -0.010984,
  0.001920	 -0.016066	 -0.012676,
 -0.005545	 -0.008267	 -0.007162,
 -0.005176	 -0.011460	 -0.000685,
  0.007613	 -0.019543	 -0.009994,
  0.006665	 -0.020360	 -0.014193,
  0.003177	 -0.020659	 -0.014435,
  0.003620	 -0.016775	 -0.005941,
 -0.000265	 -0.013566	 -0.002869,
  0.007178	 -0.020902	 -0.008005,
 -0.003340	 -0.012483	 -0.008199,
 -0.001485	 -0.016661	 -0.009788,
 -0.000028	 -0.020820	 -0.011709,
 -0.003703	 -0.015019	 -0.003712,
  0.009749	 -0.023736	 -0.011485,
  0.007596	 -0.024999	 -0.015794,
  0.005089	 -0.025073	 -0.015835,
  0.001155	 -0.024971	 -0.013630,
  0.000791	 -0.017346	 -0.006033,
  0.004378	 -0.020885	 -0.008055,
  0.007632	 -0.024975	 -0.010287,
 -0.002122	 -0.018791	 -0.007156,
 -0.000493	 -0.022946	 -0.009724,
  0.000724	 -0.027267	 -0.009793,
  0.011773	 -0.027844	 -0.013014,
  0.008395	 -0.029735	 -0.018106,
  0.006616	 -0.029531	 -0.017941,
  0.002148	 -0.029139	 -0.015710,
  0.002382	 -0.031943	 -0.008409,
  0.001969	 -0.021838	 -0.008185,
  0.004978	 -0.025285	 -0.009563,
  0.008537	 -0.029271	 -0.011177,
  0.003443	 -0.026459	 -0.009175,
  0.004595	 -0.031513	 -0.008516,
  0.011418	 -0.032327	 -0.015648,
  0.009696	 -0.033520	 -0.016069,
  0.007458	 -0.033803	 -0.016078,
  0.002422	 -0.032898	 -0.014897,
  0.002226	 -0.035266	 -0.011121,
  0.004928	 -0.034251	 -0.011917,
  0.006493	 -0.029574	 -0.010186,
  0.009037	 -0.032256	 -0.014324,
  0.006410	 -0.033181	 -0.012934,
  0.006960	 -0.033306	 -0.014146,
]
}
coordIndex [
   0,	   1,	   2, -1
   3,	   0,	   2, -1
   0,	   4,	   1, -1
   5,	   4,	   0, -1
   5,	   0,	   3, -1
   2,	   1,	   6, -1
   1,	   7,	   6, -1
   4,	   8,	   1, -1
   1,	   8,	   7, -1
   3,	   2,	   9, -1
   2,	   6,	  10, -1
   9,	   2,	  10, -1
  11,	   3,	   9, -1
   5,	   3,	  11, -1
   4,	  12,	   8, -1
   5,	  12,	   4, -1
   5,	  11,	  13, -1
   5,	  13,	  14, -1
   5,	  14,	  15, -1
   5,	  15,	  12, -1
   6,	   7,	  16, -1
   6,	  16,	  17, -1
  10,	   6,	  17, -1
   8,	  18,	   7, -1
   7,	  19,	  16, -1
   7,	  18,	  19, -1
  12,	  20,	   8, -1
   8,	  20,	  18, -1
  11,	   9,	  21, -1
   9,	  10,	  22, -1
  21,	   9,	  22, -1
  10,	  17,	  23, -1
  22,	  10,	  23, -1
  13,	  11,	  21, -1
  12,	  15,	  20, -1
  13,	  21,	  24, -1
  14,	  13,	  24, -1
  14,	  24,	  25, -1
  15,	  14,	  25, -1
  15,	  25,	  20, -1
  16,	  19,	  26, -1
  16,	  26,	  27, -1
  17,	  16,	  27, -1
  17,	  27,	  28, -1
  23,	  17,	  28, -1
  18,	  29,	  19, -1
  20,	  30,	  18, -1
  18,	  30,	  29, -1
  19,	  31,	  26, -1
  19,	  29,	  31, -1
  20,	  25,	  30, -1
  21,	  22,	  32, -1
  24,	  21,	  32, -1
  22,	  23,	  33, -1
  32,	  22,	  33, -1
  23,	  28,	  34, -1
  33,	  23,	  34, -1
  24,	  32,	  35, -1
  25,	  24,	  35, -1
  25,	  35,	  30, -1
  26,	  31,	  36, -1
  26,	  36,	  37, -1
  27,	  26,	  37, -1
  27,	  37,	  38, -1
  28,	  27,	  38, -1
  28,	  38,	  39, -1
  34,	  28,	  39, -1
  30,	  40,	  29, -1
  29,	  41,	  31, -1
  29,	  40,	  41, -1
  30,	  35,	  40, -1
  31,	  42,	  36, -1
  31,	  41,	  42, -1
  32,	  33,	  43, -1
  35,	  32,	  43, -1
  33,	  34,	  44, -1
  43,	  33,	  44, -1
  34,	  39,	  45, -1
  44,	  34,	  45, -1
  35,	  43,	  40, -1
  36,	  42,	  46, -1
  36,	  46,	  47, -1
  37,	  36,	  47, -1
  37,	  47,	  48, -1
  38,	  37,	  48, -1
  38,	  48,	  49, -1
  39,	  38,	  49, -1
  39,	  49,	  50, -1
  45,	  39,	  50, -1
  40,	  43,	  51, -1
  40,	  51,	  41, -1
  41,	  52,	  42, -1
  41,	  51,	  52, -1
  42,	  53,	  46, -1
  42,	  52,	  53, -1
  43,	  44,	  51, -1
  44,	  45,	  54, -1
  51,	  44,	  54, -1
  45,	  50,	  55, -1
  54,	  45,	  55, -1
  46,	  53,	  56, -1
  46,	  56,	  57, -1
  47,	  46,	  57, -1
  47,	  57,	  58, -1
  48,	  47,	  58, -1
  48,	  58,	  59, -1
  49,	  48,	  59, -1
  49,	  59,	  60, -1
  50,	  49,	  60, -1
  50,	  60,	  61, -1
  55,	  50,	  61, -1
  51,	  54,	  52, -1
  52,	  54,	  62, -1
  52,	  62,	  53, -1
  53,	  63,	  56, -1
  53,	  62,	  63, -1
  54,	  55,	  62, -1
  55,	  61,	  64, -1
  62,	  55,	  64, -1
  65,	  57,	  56, -1
  65,	  56,	  63, -1
  65,	  58,	  57, -1
  65,	  59,	  58, -1
  65,	  60,	  59, -1
  65,	  61,	  60, -1
  65,	  64,	  61, -1
  62,	  64,	  63, -1
  65,	  63,	  64, -1
]
colorPerVertex FALSE
colorIndex [
1,
1,
1,
1,
1,
1,
1,
1,
1,
1,
1,
1,
1,
1,
1,
1,
1,
1,
1,
1,
1,
1,
1,
1,
1,
1,
1,
1,
1,
1,
1,
1,
1,
1,
1,
1,
1,
1,
1,
1,
1,
1,
1,
1,
1,
1,
1,
1,
1,
1,
1,
1,
1,
1,
1,
1,
1,
1,
1,
1,
1,
1,
1,
1,
1,
1,
]
normal Normal {
vector [
  0.432396	  0.159541	  0.887457,
  0.522480	 -0.543831	  0.656705,
  0.998561	 -0.041427	  0.034041,
  0.570239	  0.804155	  0.167816,
  0.224939	 -0.001505	  0.974372,
 -0.177196	  0.905009	  0.386730,
  0.989703	 -0.114919	  0.085338,
  0.592916	 -0.383695	  0.707975,
  0.369204	 -0.506931	  0.778915,
  0.503899	  0.345797	 -0.791524,
  0.541207	  0.285362	 -0.790989,
  0.092833	  0.877415	 -0.470664,
 -0.039839	  0.121697	  0.991767,
 -0.323869	  0.817385	 -0.476435,
 -0.825408	  0.549827	 -0.128031,
 -0.754755	  0.182060	  0.630237,
  0.994330	  0.083823	  0.065439,
  0.554800	  0.373619	 -0.743375,
  0.189049	 -0.599967	  0.777368,
  0.593365	 -0.286124	  0.752364,
  0.031169	 -0.639142	  0.768457,
 -0.243718	  0.313578	 -0.917753,
 -0.265693	  0.227371	 -0.936862,
 -0.308150	  0.266372	 -0.913285,
 -0.806344	  0.003709	 -0.591435,
 -0.728574	 -0.564534	  0.387920,
  0.962298	  0.271995	  0.000970,
  0.561635	  0.388342	 -0.730587,
 -0.291749	  0.254622	 -0.921982,
  0.040182	 -0.522357	  0.851779,
  0.099015	 -0.681466	  0.725121,
  0.479909	 -0.280879	  0.831141,
 -0.767412	 -0.104132	 -0.632641,
 -0.798651	 -0.035469	 -0.600749,
 -0.817968	 -0.029436	 -0.574510,
 -0.615787	 -0.674661	  0.406987,
  0.947002	  0.309223	  0.086993,
  0.453080	  0.453349	 -0.767589,
 -0.226353	  0.296226	 -0.927909,
 -0.819725	 -0.046933	 -0.570831,
  0.046198	 -0.542356	  0.838878,
  0.082657	 -0.402430	  0.911712,
  0.377315	 -0.237634	  0.895077,
 -0.747921	 -0.559939	  0.356486,
 -0.861489	 -0.363977	  0.354059,
 -0.845135	 -0.143869	  0.514829,
  0.979861	  0.150258	  0.131509,
  0.437426	  0.092447	 -0.894490,
 -0.238939	  0.011860	 -0.970962,
 -0.846815	  0.013496	 -0.531716,
 -0.659899	 -0.488820	  0.570604,
 -0.042571	 -0.375725	  0.925753,
  0.279737	 -0.143715	  0.949259,
  0.451346	 -0.334392	  0.827326,
  0.045990	 -0.041881	  0.998064,
  0.397269	 -0.220440	  0.890833,
  0.500277	 -0.633463	  0.590294,
  0.493202	 -0.656580	 -0.570661,
 -0.090443	 -0.828481	 -0.552666,
 -0.480164	 -0.671990	 -0.563801,
 -0.448359	 -0.893832	 -0.006288,
  0.503825	 -0.737316	  0.450029,
  0.534469	 -0.238228	  0.810920,
  0.433378	 -0.663641	  0.609725,
  0.656193	 -0.589026	  0.471656,
  0.311023	 -0.915303	  0.255902,
]
}
normalIndex [
   0,	   1,	   2, -1
   3,	   0,	   2, -1
   0,	   4,	   1, -1
   5,	   4,	   0, -1
   5,	   0,	   3, -1
   2,	   1,	   6, -1
   1,	   7,	   6, -1
   4,	   8,	   1, -1
   1,	   8,	   7, -1
   3,	   2,	   9, -1
   2,	   6,	  10, -1
   9,	   2,	  10, -1
  11,	   3,	   9, -1
   5,	   3,	  11, -1
   4,	  12,	   8, -1
   5,	  12,	   4, -1
   5,	  11,	  13, -1
   5,	  13,	  14, -1
   5,	  14,	  15, -1
   5,	  15,	  12, -1
   6,	   7,	  16, -1
   6,	  16,	  17, -1
  10,	   6,	  17, -1
   8,	  18,	   7, -1
   7,	  19,	  16, -1
   7,	  18,	  19, -1
  12,	  20,	   8, -1
   8,	  20,	  18, -1
  11,	   9,	  21, -1
   9,	  10,	  22, -1
  21,	   9,	  22, -1
  10,	  17,	  23, -1
  22,	  10,	  23, -1
  13,	  11,	  21, -1
  12,	  15,	  20, -1
  13,	  21,	  24, -1
  14,	  13,	  24, -1
  14,	  24,	  25, -1
  15,	  14,	  25, -1
  15,	  25,	  20, -1
  16,	  19,	  26, -1
  16,	  26,	  27, -1
  17,	  16,	  27, -1
  17,	  27,	  28, -1
  23,	  17,	  28, -1
  18,	  29,	  19, -1
  20,	  30,	  18, -1
  18,	  30,	  29, -1
  19,	  31,	  26, -1
  19,	  29,	  31, -1
  20,	  25,	  30, -1
  21,	  22,	  32, -1
  24,	  21,	  32, -1
  22,	  23,	  33, -1
  32,	  22,	  33, -1
  23,	  28,	  34, -1
  33,	  23,	  34, -1
  24,	  32,	  35, -1
  25,	  24,	  35, -1
  25,	  35,	  30, -1
  26,	  31,	  36, -1
  26,	  36,	  37, -1
  27,	  26,	  37, -1
  27,	  37,	  38, -1
  28,	  27,	  38, -1
  28,	  38,	  39, -1
  34,	  28,	  39, -1
  30,	  40,	  29, -1
  29,	  41,	  31, -1
  29,	  40,	  41, -1
  30,	  35,	  40, -1
  31,	  42,	  36, -1
  31,	  41,	  42, -1
  32,	  33,	  43, -1
  35,	  32,	  43, -1
  33,	  34,	  44, -1
  43,	  33,	  44, -1
  34,	  39,	  45, -1
  44,	  34,	  45, -1
  35,	  43,	  40, -1
  36,	  42,	  46, -1
  36,	  46,	  47, -1
  37,	  36,	  47, -1
  37,	  47,	  48, -1
  38,	  37,	  48, -1
  38,	  48,	  49, -1
  39,	  38,	  49, -1
  39,	  49,	  50, -1
  45,	  39,	  50, -1
  40,	  43,	  51, -1
  40,	  51,	  41, -1
  41,	  52,	  42, -1
  41,	  51,	  52, -1
  42,	  53,	  46, -1
  42,	  52,	  53, -1
  43,	  44,	  51, -1
  44,	  45,	  54, -1
  51,	  44,	  54, -1
  45,	  50,	  55, -1
  54,	  45,	  55, -1
  46,	  53,	  56, -1
  46,	  56,	  57, -1
  47,	  46,	  57, -1
  47,	  57,	  58, -1
  48,	  47,	  58, -1
  48,	  58,	  59, -1
  49,	  48,	  59, -1
  49,	  59,	  60, -1
  50,	  49,	  60, -1
  50,	  60,	  61, -1
  55,	  50,	  61, -1
  51,	  54,	  52, -1
  52,	  54,	  62, -1
  52,	  62,	  53, -1
  53,	  63,	  56, -1
  53,	  62,	  63, -1
  54,	  55,	  62, -1
  55,	  61,	  64, -1
  62,	  55,	  64, -1
  65,	  57,	  56, -1
  65,	  56,	  63, -1
  65,	  58,	  57, -1
  65,	  59,	  58, -1
  65,	  60,	  59, -1
  65,	  61,	  60, -1
  65,	  64,	  61, -1
  62,	  64,	  63, -1
  65,	  63,	  64, -1
]
normalPerVertex TRUE
}
}
]
}
