# 
# Wavefront OBJ file
# Converted by the DEEP Exploration 2.00.1211
# Right Hemisphere, LTD
# http://www.righthemisphere.com/
# 
mtllib tibia_ls.mtl
# object Object #0
g Object__0
v 0.006 -0.0800015 0.398809
v 0.006 -0.0915153 0.401553
v 0.01646 -0.0928655 0.398819
v 0.027593 -0.0862726 0.396079
v 0.027593 -0.0737356 0.396069
v 0.016009 -0.0676942 0.395379
v 0.006 -0.0698617 0.394697
v -0.007525 -0.0633701 0.395548
v -0.026973 -0.0704304 0.396407
v -0.026973 -0.0895774 0.396422
v -0.007977 -0.0971913 0.398995
v 0.006 -0.111262 0.391312
v 0.023854 -0.101967 0.389764
v 0.030512 -0.0871279 0.388214
v 0.030512 -0.0728929 0.388203
v 0.019165 -0.0638147 0.393496
v 0.006 -0.0630045 0.398795
v -0.011132 -0.0589397 0.387166
v -0.031351 -0.069176 0.375548
v -0.031351 -0.090865 0.375565
v -0.015821 -0.106852 0.383443
v 0.006 -0.112915 0.381396
v 0.024485 -0.102753 0.377455
v 0.030804 -0.0872236 0.373511
v 0.030804 -0.0728206 0.373499
v 0.024576 -0.0571682 0.384087
v 0.006 -0.0468317 0.394678
v -0.015371 -0.0537324 0.382546
v -0.02785 -0.0701971 0.37042
v -0.02785 -0.0898521 0.370436
v -0.01528 -0.106193 0.37592
v 0.006 -0.106899 0.361899
v 0.024937 -0.10332 0.361725
v 0.038683 -0.0895201 0.361542
v 0.038683 -0.0705431 0.361527
v 0.027371 -0.0537441 0.367841
v 0.006 -0.0457521 0.374162
v -0.013477 -0.0560708 0.370751
v -0.020554 -0.0723175 0.367343
v -0.020554 -0.0877355 0.367355
v -0.011042 -0.10099 0.364631
v 0.006 -0.0970386 0.350948
v 0.022682 -0.100558 0.349413
v 0.039 -0.090464 0.347867
v 0.039 -0.06962 0.347851
v 0.028633 -0.0521968 0.359462
v 0.006 -0.0449315 0.371083
v -0.011312 -0.05874 0.360493
v -0.012676 -0.0746194 0.349905
v -0.012676 -0.0854634 0.349913
v -0.005362 -0.094014 0.350433
v 0.006 -0.0910489 0.296574
v 0.019616 -0.0968159 0.312821
v 0.038389 -0.089462 0.329057
v 0.038389 -0.070653 0.329042
v 0.024304 -0.0575325 0.345959
v 0.006 -0.0548081 0.362885
v -0.007256 -0.063756 0.329037
v -0.010049 -0.075424 0.295193
v -0.010049 -0.084745 0.295201
v -0.002566 -0.0906194 0.295889
v 0.006 -0.0892107 0.195012
v 0.017092 -0.0937658 0.243914
v 0.032262 -0.0877119 0.292809
v 0.032262 -0.0724609 0.292797
v 0.019797 -0.0630975 0.319632
v 0.006 -0.0627721 0.346475
v -0.004641 -0.0669914 0.303393
v -0.010049 -0.0754517 0.260314
v -0.010049 -0.0847727 0.260322
v -0.001935 -0.0898967 0.227669
v 0.006 -0.090089 0.125596
v 0.014837 -0.0910483 0.175523
v 0.024092 -0.0853925 0.225443
v 0.024092 -0.0748875 0.225435
v 0.015558 -0.0683575 0.260651
v 0.006 -0.0680214 0.295871
v -0.001394 -0.0710446 0.227826
v -0.005088 -0.0769718 0.159778
v -0.007569 -0.0762118 0.210046
v -0.007569 -0.0840928 0.210052
v -0.000673 -0.0884134 0.142693
v 0.006641 -0.0940436 0.0620709
v 0.014927 -0.0912104 0.110037
v 0.019423 -0.0840902 0.158077
v 0.019423 -0.0762962 0.158071
v 0.013754 -0.0706413 0.1767
v 0.006 -0.0691975 0.195337
v -0.002747 -0.0694477 0.143532
v -0.010632 -0.075418 0.0917301
v -0.005088 -0.0834128 0.159783
v -0.010632 -0.085075 0.0917378
v -0.003919 -0.0924578 0.0768686
v 0.006 -0.104413 0.0397772
v 0.018624 -0.0957943 0.0649033
v 0.021174 -0.0846533 0.0900284
v 0.021174 -0.0758423 0.0900214
v 0.014566 -0.069696 0.109336
v 0.006 -0.0684276 0.128656
v -0.003198 -0.0689339 0.0930919
v -0.011216 -0.0752762 0.057534
v -0.011216 -0.0852712 0.0575419
v -0.007256 -0.0965823 0.0486619
v 0.006 -0.106894 0.0247331
v 0.020879 -0.098591 0.0339575
v 0.025842 -0.0860456 0.0431825
v 0.025842 -0.0745236 0.0431734
v 0.017812 -0.065752 0.0515434
v 0.006 -0.0630003 0.0599192
v -0.008879 -0.0619893 0.0411114
v -0.012391 -0.0695509 0.0528884
v -0.023764 -0.0716613 0.0223111
v -0.023764 -0.0889413 0.0223248
v -0.011944 -0.10237 0.0235315
v 0.006 -0.100868 0.0148113
v 0.020788 -0.0984886 0.0231874
v 0.03197 -0.0878359 0.031556
v 0.03197 -0.0727529 0.0315439
v 0.022051 -0.0605504 0.0371772
v 0.006 -0.0558859 0.0428155
v -0.010321 -0.0602231 0.029996
v -0.020846 -0.0725123 0.0171817
v -0.020846 -0.0881003 0.0171942
v -0.009058 -0.0988273 0.0160057
v 0.006 -0.0967477 0.026775
v 0.018263 -0.0953821 0.025066
v 0.028176 -0.0867404 0.0233501
v 0.028176 -0.0738614 0.0233398
v 0.019616 -0.0635519 0.0265786
v 0.006 -0.0597343 0.0298246
v -0.005542 -0.0661053 0.0235026
v -0.009466 -0.0758153 0.0171844
v -0.009466 -0.0847963 0.0171915
v -0.00419 -0.0928345 0.0219849
v 0.006 -0.0923585 0.0295086
v 0.013214 -0.0891719 0.025232
v 0.016505 -0.0833523 0.0209514
v 0.016505 -0.0772533 0.0209465
v 0.013574 -0.0709883 0.0209415
v 0.006 -0.0671443 0.0209385
v -0.00287 -0.0699815 0.0195167
v -0.006558 -0.0732933 0.0172864
v -0.006558 -0.0800693 0.0172918
v -0.001574 -0.0896193 0.0197594
v 0.006 -0.0802983 0.0260799
v -0.004 -0.113496 0.00464938
v -0.004 -0.108101 -0.00173692
v -0.00035 -0.108472 0.00565337
v 0.002676 -0.111321 0.0130446
v 0.002676 -0.115659 0.0130481
v 0.001476 -0.121028 0.0101974
v -0.004 -0.125104 0.00734662
v -0.008047 -0.119067 0.00414981
v -0.006055 -0.114167 0.000954909
v -0.006055 -0.112831 0.000953845
v -0.006222 -0.110442 -0.000392058
v -0.004 -0.107554 0.00800364
v 0.001713 -0.105625 0.0147211
v 0.008839 -0.109311 0.021442
v 0.008839 -0.117654 0.0214487
v 0.004094 -0.124624 0.0202782
v -0.004 -0.127525 0.0191056
v -0.010665 -0.122663 0.0150687
v -0.012217 -0.116161 0.0110335
v -0.012217 -0.110821 0.0110292
v -0.008285 -0.107594 0.00951468
v -0.004 -0.103495 0.0194224
v 0.001237 -0.106271 0.0259736
v 0.003447 -0.111054 0.0325284
v 0.003447 -0.115894 0.0325323
v -0.00027 -0.118606 0.0353885
v -0.004 -0.11833 0.0382442
v -0.009713 -0.121341 0.0280006
v -0.017866 -0.117991 0.017754
v -0.017866 -0.108981 0.0177468
v -0.011221 -0.103546 0.0185825
v -0.004 -0.10591 0.0375643
v 0.000126 -0.107787 0.0422668
v 0.002162 -0.11146 0.0469728
v 0.002162 -0.115465 0.046976
v -0.000509 -0.118257 0.0600792
v -0.004 -0.118842 0.0731797
v -0.01011 -0.121871 0.0491631
v -0.018637 -0.118236 0.0251442
v -0.018637 -0.108724 0.0251366
v -0.010745 -0.104191 0.031347
v -0.004 -0.107792 0.0476418
v -0.000826 -0.10908 0.0646059
v 0.000879 -0.111849 0.0815711
v 0.000879 -0.115021 0.0815736
v -0.000985 -0.117548 0.128098
v -0.004 -0.118491 0.174623
v -0.008285 -0.119317 0.101563
v -0.012987 -0.116398 0.0285007
v -0.012987 -0.110556 0.028496
v -0.008443 -0.107354 0.0380675
v -0.004 -0.104505 0.107094
v 0.00084 -0.106734 0.12893
v 0.00319 -0.111044 0.150767
v 0.00319 -0.115716 0.150771
v -0.000905 -0.117591 0.21174
v -0.004 -0.116253 0.272706
v -0.00646 -0.116758 0.160513
v -0.009135 -0.115131 0.0483187
v -0.009135 -0.111793 0.048316
v -0.008206 -0.107649 0.0777037
v -0.004 -0.103371 0.174611
v 0.001555 -0.105692 0.2035
v 0.004474 -0.110562 0.232392
v 0.004474 -0.116068 0.232396
v 0.000364 -0.119293 0.269349
v -0.004 -0.119196 0.306298
v -0.006777 -0.117154 0.210731
v -0.007338 -0.114492 0.115163
v -0.007338 -0.112324 0.115161
v -0.007967 -0.107924 0.144886
v -0.004 -0.103331 0.224661
v 0.001237 -0.10609 0.253719
v 0.003447 -0.110855 0.282778
v 0.003447 -0.115695 0.282782
v 0.001555 -0.1209 0.308147
v -0.004 -0.124304 0.333511
v -0.008443 -0.119398 0.274052
v -0.007852 -0.114581 0.214592
v -0.007852 -0.112077 0.21459
v -0.008126 -0.107646 0.219626
v -0.004 -0.10491 0.27572
v 0.000443 -0.107142 0.304106
v 0.00242 -0.111149 0.332494
v 0.00242 -0.115321 0.332497
v 0.003538 -0.123607 0.338382
v -0.004 -0.132126 0.344265
v -0.010745 -0.122535 0.313019
v -0.007852 -0.114528 0.281773
v -0.007852 -0.112024 0.281771
v -0.00765 -0.108254 0.278746
v -0.004 -0.107583 0.309649
v 0.000126 -0.107559 0.328627
v 0.00396 -0.110636 0.347608
v 0.00396 -0.11581 0.347612
v 0.003856 -0.124032 0.352322
v -0.004 -0.131576 0.35703
v -0.011221 -0.123172 0.335693
v -0.009906 -0.115169 0.314358
v -0.009906 -0.111331 0.314355
v -0.007491 -0.108447 0.312
v -0.004 -0.109714 0.346264
v 0.001158 -0.106123 0.34878
v 0.009352 -0.108881 0.351301
v 0.009352 -0.117559 0.351308
v 0.003141 -0.123045 0.357527
v -0.004 -0.12347 0.363742
v -0.011935 -0.124135 0.361056
v -0.019921 -0.118388 0.358363
v -0.019921 -0.108042 0.358355
v -0.009952 -0.105029 0.352307
v -0.004 -0.109164 0.3597
v -0.000429 -0.108297 0.361378
v 0.003704 -0.110708 0.36306
v 0.003704 -0.115714 0.363064
v -0.000191 -0.118451 0.365753
v -0.004 -0.118067 0.368441
v -0.007095 -0.117465 0.370959
v -0.009393 -0.114955 0.373477
v -0.009393 -0.111451 0.373474
v -0.006857 -0.109276 0.366586
v -0.004 -0.11321 0.364405
v 0.01646 0.0935005 0.398671
v 0.006 0.0921547 0.401407
v 0.006 0.0806365 0.398681
v 0.027593 0.0869033 0.395941
v 0.023854 0.102587 0.389601
v 0.030512 0.087746 0.388075
v -0.007977 0.0978266 0.398839
v 0.006 0.111885 0.391134
v 0.027593 0.0743663 0.395951
v 0.016009 0.0683238 0.395271
v 0.006 0.0704902 0.394585
v -0.007525 0.0639999 0.395446
v -0.026973 0.0710616 0.396295
v -0.026973 0.0902086 0.396279
v 0.030512 0.073511 0.388087
v 0.024485 0.103354 0.377291
v 0.030804 0.0878183 0.373371
v 0.030804 0.0734153 0.373383
v -0.015821 0.107462 0.383273
v 0.006 0.113523 0.381216
v 0.019165 0.0644413 0.393394
v 0.006 0.0636395 0.398694
v -0.031351 0.069774 0.375438
v -0.011132 0.0595562 0.387072
v -0.031351 0.091463 0.37542
v 0.024576 0.0577798 0.383995
v 0.024937 0.103896 0.36156
v 0.038683 0.0900958 0.361399
v 0.038683 0.0711188 0.361414
v 0.027371 0.0543299 0.367755
v -0.01528 0.106791 0.37575
v 0.006 0.107475 0.361729
v 0.006 0.0474602 0.394603
v -0.015371 0.0543416 0.38246
v -0.02785 0.0707869 0.370308
v -0.02785 0.0904419 0.370292
v 0.006 0.0463479 0.374088
v 0.022682 0.101114 0.349253
v 0.039 0.0910179 0.347723
v 0.039 0.0701739 0.347739
v 0.028633 0.0527692 0.359378
v 0.006 0.0455224 0.371011
v -0.011042 0.10157 0.364469
v 0.006 0.0975974 0.350793
v -0.013477 0.0566612 0.370661
v -0.020554 0.0729024 0.367227
v -0.020554 0.0883204 0.367215
v -0.011312 0.059314 0.360399
v 0.019616 0.097314 0.312667
v 0.038389 0.0899859 0.328914
v 0.038389 0.0711769 0.328929
v 0.024304 0.0580834 0.345867
v 0.006 0.0553859 0.362797
v -0.007256 0.0642799 0.328935
v -0.005362 0.0945719 0.350283
v 0.006 0.0915211 0.296428
v -0.012676 0.0751765 0.349785
v -0.012676 0.0860205 0.349777
v -0.010049 0.075894 0.295073
v 0.017092 0.0941541 0.243764
v 0.032262 0.0881781 0.292669
v 0.032262 0.0729271 0.292681
v 0.019797 0.0636065 0.319531
v 0.006 0.0633238 0.346375
v -0.010049 0.0758662 0.260194
v -0.004641 0.0674745 0.303286
v -0.002566 0.0910905 0.295745
v 0.006 0.0895212 0.19487
v -0.010049 0.085215 0.295065
v -0.010049 0.0851872 0.260186
v 0.014837 0.0913277 0.175377
v 0.024092 0.0857514 0.225307
v 0.024092 0.0752464 0.225315
v 0.015558 0.0687725 0.260541
v 0.006 0.0684925 0.295763
v -0.001394 0.0714073 0.227712
v -0.007569 0.0765462 0.209924
v -0.005088 0.0772262 0.159656
v -0.001935 0.0902592 0.227525
v 0.006 0.0902889 0.125452
v -0.000673 0.0886405 0.142552
v -0.007569 0.0844272 0.209918
v 0.014927 0.0913855 0.109891
v 0.019423 0.0843418 0.157943
v 0.019423 0.0765478 0.157949
v 0.013754 0.0709226 0.176588
v 0.006 0.0695085 0.195227
v -0.002747 0.0696762 0.143422
v -0.010632 0.075564 0.0916099
v -0.005088 0.0836672 0.15965
v -0.010632 0.085221 0.0916022
v 0.006641 0.0941423 0.0619211
v -0.003919 0.0925801 0.0767213
v 0.018624 0.0958976 0.0647507
v 0.021174 0.0847966 0.0898935
v 0.021174 0.0759856 0.0899005
v 0.014566 0.06987 0.109224
v 0.006 0.0686324 0.128546
v -0.003198 0.0690821 0.092982
v -0.011216 0.0753677 0.057414
v -0.011216 0.0853627 0.057406
v -0.007256 0.0966597 0.048508
v 0.006 0.104477 0.0396108
v 0.020879 0.0986449 0.0338005
v 0.025842 0.0861143 0.0430454
v 0.025842 0.0745923 0.0430546
v 0.017812 0.065834 0.0514386
v 0.006 0.0630957 0.0598188
v -0.008879 0.0620547 0.0410126
v -0.012391 0.069635 0.0527776
v -0.023764 0.0889767 0.0221832
v -0.023764 0.0716967 0.0221969
v -0.011944 0.102408 0.0233685
v 0.006 0.106934 0.0245629
v 0.020788 0.0985254 0.0230306
v 0.03197 0.087886 0.031416
v 0.03197 0.0728031 0.031428
v 0.022051 0.0606095 0.0370807
v 0.006 0.055954 0.0427265
v -0.010321 0.0602708 0.0299
v -0.020846 0.0725396 0.0170662
v -0.020846 0.0881276 0.0170538
v -0.009058 0.0988526 0.0158483
v 0.006 0.100892 0.0146507
v 0.018263 0.0954219 0.024914
v 0.028176 0.0867775 0.0232119
v 0.028176 0.0738985 0.0232222
v 0.019616 0.0635941 0.0264774
v 0.006 0.0597817 0.0297294
v -0.005542 0.0661426 0.0233973
v -0.009466 0.0758426 0.0170636
v -0.009466 0.0848236 0.0170565
v -0.00419 0.0928694 0.0218371
v 0.006 0.0967902 0.0266209
v 0.013214 0.089212 0.02509
v 0.016505 0.0833856 0.0208186
v 0.016505 0.0772866 0.0208235
v 0.013574 0.0710216 0.0208285
v 0.006 0.0671776 0.0208315
v -0.00287 0.0700125 0.0194053
v -0.006558 0.0733207 0.0171696
v -0.006558 0.0800967 0.0171642
v -0.001574 0.0896506 0.0196166
v 0.006 0.0924054 0.0293614
v 0.006 0.0803397 0.025952
v -0.00035 0.10848 0.00548062
v -0.004 0.108099 -0.00190908
v -0.004 0.113504 0.00446862
v 0.002676 0.111341 0.0128673
v 0.001713 0.105649 0.0145529
v 0.008839 0.109345 0.0212679
v -0.006222 0.110442 -0.000567942
v -0.004 0.107566 0.00783235
v 0.002676 0.115679 0.0128639
v 0.001476 0.121044 0.0100046
v -0.004 0.125116 0.00714738
v -0.008047 0.119073 0.00396019
v -0.006055 0.114169 0.000773091
v -0.006055 0.112833 0.000774154
v 0.008839 0.117688 0.0212613
v 0.001237 0.106313 0.0258044
v 0.003447 0.111106 0.0323515
v 0.003447 0.115946 0.0323477
v -0.008285 0.107609 0.00934332
v -0.004 0.103525 0.0192576
v 0.004094 0.124656 0.0200797
v -0.004 0.127555 0.0189024
v -0.010665 0.122687 0.0148733
v -0.012217 0.116179 0.0108485
v -0.012217 0.110839 0.0108527
v -0.00027 0.118662 0.0351995
v 0.000126 0.107855 0.0420951
v 0.002162 0.111534 0.0467952
v 0.002162 0.115539 0.046792
v -0.000509 0.118353 0.0598908
v -0.011221 0.103576 0.0184175
v -0.004 0.10597 0.0373956
v -0.004 0.11839 0.0380557
v -0.009713 0.121385 0.0278074
v -0.017866 0.118019 0.017566
v -0.017866 0.109009 0.0175732
v -0.004 0.118958 0.0729903
v -0.000826 0.109182 0.0644321
v 0.000879 0.111979 0.0813929
v 0.000879 0.115151 0.0813903
v -0.000985 0.117752 0.12791
v -0.004 0.118769 0.174434
v -0.010745 0.104241 0.031181
v -0.004 0.107868 0.0474701
v -0.01011 0.121949 0.0489689
v -0.018637 0.118276 0.0249558
v -0.018637 0.108764 0.0249634
v -0.008285 0.119479 0.101373
v 0.00084 0.10694 0.12876
v 0.00319 0.111284 0.15059
v 0.00319 0.115956 0.150587
v -0.000905 0.117928 0.211552
v -0.004 0.116687 0.27252
v -0.00646 0.117014 0.160327
v -0.008443 0.107414 0.0378965
v -0.004 0.104675 0.106928
v -0.012987 0.116444 0.0283153
v -0.012987 0.110602 0.0283199
v -0.009135 0.115207 0.0481353
v 0.001555 0.106016 0.203332
v 0.004474 0.110932 0.232216
v 0.004474 0.116438 0.232211
v 0.000364 0.119721 0.269159
v -0.004 0.119684 0.306108
v -0.006777 0.11749 0.210545
v -0.007338 0.114676 0.114981
v -0.008206 0.107773 0.0775322
v -0.004 0.103649 0.174447
v -0.009135 0.111869 0.0481379
v -0.007338 0.112508 0.114982
v 0.001237 0.106494 0.253549
v 0.003447 0.111305 0.282601
v 0.003447 0.116145 0.282598
v 0.001555 0.12139 0.307954
v -0.004 0.124835 0.333313
v -0.008443 0.119834 0.273862
v -0.007852 0.114923 0.21441
v -0.007852 0.112419 0.214412
v -0.007967 0.108154 0.144714
v -0.004 0.103689 0.224497
v -0.008126 0.107996 0.219454
v 0.000443 0.107626 0.303935
v 0.00242 0.111679 0.332316
v 0.00242 0.115851 0.332313
v 0.003538 0.124145 0.338184
v -0.004 0.132674 0.344054
v -0.010745 0.123033 0.312823
v -0.007852 0.114976 0.281591
v -0.007852 0.112472 0.281593
v -0.00765 0.108698 0.278574
v -0.004 0.105349 0.275552
v 0.000126 0.108083 0.328455
v 0.00396 0.11119 0.347432
v 0.00396 0.116364 0.347427
v 0.003856 0.124593 0.352124
v -0.004 0.132144 0.35682
v -0.011221 0.123706 0.335497
v -0.009906 0.115669 0.314174
v -0.009906 0.111831 0.314177
v -0.007491 0.108943 0.311827
v -0.004 0.108076 0.309477
v 0.001158 0.106679 0.34861
v 0.009352 0.109441 0.351127
v 0.009352 0.118119 0.35112
v 0.003141 0.123615 0.357331
v -0.004 0.12405 0.363545
v -0.011935 0.124709 0.360858
v -0.019921 0.118958 0.358174
v -0.019921 0.108612 0.358183
v -0.009952 0.105589 0.352139
v -0.004 0.110266 0.346089
v -0.000429 0.108873 0.361205
v 0.003704 0.111286 0.362883
v 0.003704 0.116292 0.36288
v -0.000191 0.119033 0.365564
v -0.004 0.118653 0.368253
v -0.007095 0.118055 0.370771
v -0.009393 0.115549 0.373293
v -0.009393 0.112045 0.373296
v -0.006857 0.10986 0.366412
v -0.004 0.109736 0.359526
v -0.004 0.11379 0.364225
# 534 verticies
vn 0.026104 0.982554 -0.184135
vn 0.099217 0.964243 0.245748
vn 0.404464 0.862097 0.305283
vn 0.666257 0.727737 0.162791
vn 0.4549 0.841861 -0.290406
vn 0.101367 0.987396 -0.12155
vn -0.013366 0.996727 0.079732
vn -0.2256 0.833053 -0.505101
vn -0.654609 0.691836 -0.304713
vn -0.571044 0.758817 0.313219
vn -0.238191 0.907388 0.346283
vn 0.1322 0.532056 0.836325
vn 0.655919 0.487565 0.576239
vn 0.928679 0.264005 0.260492
vn 0.91676 0.306946 -0.255606
vn 0.496504 0.774764 -0.391439
vn -0.093233 0.98725 -0.129014
vn -0.474995 0.706983 -0.52398
vn -0.883328 0.013807 -0.468552
vn -0.918853 -0.113197 0.378015
vn -0.484081 0.246801 0.839497
vn 0.075449 -0.061214 0.995269
vn 0.700428 0.170078 0.693163
vn 0.935156 0.312151 0.167469
vn 0.957572 0.242035 -0.156447
vn 0.740111 0.338646 -0.580995
vn 0.072202 0.532564 -0.843305
vn -0.668659 0.153829 -0.727484
vn -0.496395 -0.811859 -0.30737
vn -0.647343 -0.723827 0.238794
vn -0.470906 -0.354024 0.808031
vn -0.135823 -0.455428 0.879851
vn 0.477769 -0.114858 0.870945
vn 0.927486 0.233118 0.292278
vn 0.910836 0.345743 -0.225477
vn 0.680517 0.30911 -0.66434
vn -0.048333 0.091319 -0.994648
vn -0.669781 -0.25324 -0.698043
vn -0.75514 -0.590407 -0.284925
vn -0.636474 -0.744012 0.203339
vn -0.463952 -0.636038 0.616607
vn -0.260753 -0.360373 0.895622
vn 0.219096 -0.261758 0.939936
vn 0.89076 -0.059736 0.450532
vn 0.933568 -0.081727 -0.348958
vn 0.491573 -0.213073 -0.844367
vn 0.054849 -0.166415 -0.984529
vn -0.758059 -0.15044 -0.634598
vn -0.967219 -0.212528 -0.138994
vn -0.891997 -0.252722 0.374796
vn -0.489348 -0.300323 0.818746
vn -0.218429 -0.057737 0.974143
vn 0.103936 -0.094557 0.990079
vn 0.851904 -0.131175 0.507004
vn 0.867304 -0.128138 -0.481004
vn 0.189296 -0.309039 -0.93202
vn 0.159184 -0.533822 -0.830478
vn -0.205958 -0.282676 -0.936843
vn -0.980359 -0.05198 -0.190248
vn -0.890978 -0.028272 0.453165
vn -0.362991 -0.040991 0.930891
vn -0.105383 -0.009237 0.994389
vn 0.176601 -0.05533 0.982726
vn 0.870423 -0.130823 0.474604
vn 0.830374 -0.149859 -0.536676
vn 0.116195 -0.14335 -0.982827
vn 0.022469 -0.201507 -0.979229
vn -0.373668 -0.083955 -0.923755
vn -0.903608 -0.055118 -0.4248
vn -0.937071 -0.026891 0.348101
vn -0.326538 -0.0104 0.945127
vn -0.095135 0.020931 0.995244
vn 0.336464 -0.025675 0.941346
vn 0.919229 -0.0868 0.384037
vn 0.863153 -0.092481 -0.496401
vn 0.20893 -0.057405 -0.976244
vn -0.080159 -0.045284 -0.995753
vn -0.477978 -0.018952 -0.878167
vn -0.97393 0.004512 -0.226805
vn -0.953124 -0.051301 -0.298198
vn -0.97057 -0.051265 0.235299
vn -0.502256 0.008921 0.864673
vn -0.027501 0.183441 0.982646
vn 0.423345 0.057263 0.904157
vn 0.944879 -0.009981 0.327267
vn 0.918449 -0.023243 -0.394857
vn 0.407308 -0.012506 -0.913205
vn 0.027386 -0.002407 -0.999622
vn -0.464014 0.014197 -0.885714
vn -0.973848 0.041836 -0.223314
vn -0.888188 0.028844 0.458574
vn -0.932456 0.082399 0.351762
vn -0.334026 0.172337 0.926675
vn 0.027029 0.250381 0.96777
vn 0.535773 0.187562 0.823267
vn 0.959416 0.08154 0.269948
vn 0.938607 0.063105 -0.339169
vn 0.527979 0.052834 -0.847612
vn -0.022126 0.065214 -0.997626
vn -0.626742 0.114074 -0.770832
vn -0.949172 0.199186 -0.243715
vn -0.951784 0.171272 0.254507
vn -0.597096 0.186992 0.780071
vn 0.083928 -0.085038 0.992837
vn 0.62167 0.136088 0.771367
vn 0.919977 0.296042 0.256906
vn 0.925121 0.285011 -0.250839
vn 0.620132 0.248844 -0.743984
vn 0.064167 0.194546 -0.978792
vn -0.533166 0.110726 -0.838733
vn -0.898865 0.252107 -0.358447
vn -0.935439 -0.07805 -0.344764
vn -0.928007 -0.093812 0.360558
vn -0.531355 -0.124886 0.837894
vn 0.108394 -0.994013 -0.013751
vn 0.581419 -0.643177 0.498271
vn 0.935469 -0.070122 0.346383
vn 0.936736 0.050877 -0.346321
vn 0.581531 0.067355 -0.810731
vn 0.077078 -0.000878 -0.997025
vn -0.283218 -0.286701 -0.9152
vn -0.407839 -0.775996 -0.481142
vn -0.408769 -0.903572 0.128321
vn -0.124841 -0.988325 0.087342
vn 0.051848 -0.781153 -0.622183
vn -0.145477 -0.962772 -0.227828
vn 0.362455 -0.925727 0.107964
vn 0.588572 -0.774864 -0.230584
vn 0.359362 -0.606154 -0.709533
vn -0.013 -0.490302 -0.871456
vn -0.186067 -0.635284 -0.749529
vn -0.096568 -0.936812 -0.33624
vn 0.059662 -0.979919 0.190262
vn 0.382267 -0.920658 0.079131
vn 0.196464 -0.97749 0.076907
vn -0.441272 -0.889261 0.12039
vn -0.229562 -0.950884 0.207656
vn -0.052202 -0.99842 0.020809
vn 0.01598 -0.99458 -0.102738
vn 0.055394 -0.949744 -0.308087
vn 0.121643 -0.903569 -0.410812
vn 0.121683 -0.950089 -0.28727
vn 0.301556 -0.953419 0.007455
vn 0.429648 -0.841548 0.327413
vn 0.092848 -0.978055 0.186512
vn 0.739011 -0.611425 0.282882
vn 0.46295 -0.726467 -0.50786
vn 0.874624 -0.483803 0.031095
vn 0.805211 -0.566507 0.175228
vn 0.831213 -0.552385 0.062902
vn 0.762595 -0.512592 0.394585
vn 0.116839 -0.669675 0.733406
vn -0.365405 -0.753059 0.547157
vn -0.349077 -0.91514 0.201655
vn -0.333797 -0.939614 -0.075537
vn -0.340104 -0.891005 -0.300732
vn -0.173158 -0.174114 -0.969382
vn 0.388228 -0.078713 -0.918196
vn 0.96229 -0.06411 -0.264362
vn 0.949009 -0.09935 0.299185
vn 0.670458 -0.001802 0.741945
vn -0.036091 0.046725 0.998256
vn -0.661758 -0.223937 0.715491
vn -0.805812 -0.569942 0.160727
vn -0.753272 -0.574857 -0.319563
vn -0.495861 -0.431239 -0.753761
vn 0.216712 -0.107925 -0.970252
vn 0.609866 0.032438 -0.79184
vn 0.910591 0.194119 -0.364887
vn 0.907746 0.273024 0.318521
vn 0.443777 0.23737 0.864128
vn 0.197321 0.216189 0.956204
vn -0.285661 0.100437 0.953053
vn -0.835616 -0.285923 0.469035
vn -0.800669 -0.388844 -0.455774
vn -0.291843 -0.229082 -0.928628
vn 0.069846 0.124544 -0.989753
vn 0.562964 0.091838 -0.821363
vn 0.956803 0.069733 -0.28225
vn 0.978611 0.061742 0.196237
vn 0.550153 0.026474 0.834644
vn 0.214304 0.004253 0.976758
vn -0.131165 0.098905 0.986414
vn -0.828542 0.48442 0.280813
vn -0.925422 0.343884 -0.159182
vn -0.461269 0.2185 -0.859935
vn 0.013965 0.130804 -0.99131
vn 0.575258 0.037114 -0.81713
vn 0.954343 0.008071 -0.298604
vn 0.950571 0.011304 0.310303
vn 0.626111 0.0152 0.779586
vn -0.012599 0.020243 0.999716
vn -0.817014 0.066685 0.572748
vn -0.905356 0.332351 -0.264335
vn -0.834341 0.539746 0.112019
vn -0.723692 0.316268 -0.613388
vn 0.105305 -0.025243 -0.99412
vn 0.763383 -0.029934 -0.645252
vn 0.98209 -0.025882 -0.186626
vn 0.800155 -0.030492 0.599018
vn -0.105164 -0.022763 0.994194
vn -0.017778 -0.010255 0.999789
vn -0.826457 0.022396 0.562554
vn -0.981496 0.064544 -0.180277
vn -0.987423 0.095254 0.126188
vn -0.852619 0.02556 -0.521907
vn -0.161308 -0.002356 -0.986901
vn 0.67414 -0.000804 -0.738603
vn 0.967818 0.002486 -0.251638
vn 0.921309 -0.00996 0.388703
vn 0.028045 -0.051002 0.998305
vn -0.001017 -0.085925 0.996301
vn -0.311666 -0.03284 0.949624
vn -0.991105 0.004597 0.133006
vn -0.996683 0.01088 0.080651
vn -0.947002 0.005145 -0.321187
vn -0.22188 0.015042 -0.974958
vn 0.651729 0.016196 -0.758279
vn 0.961144 0.019571 -0.275352
vn 0.988198 -0.001504 0.153177
vn 0.459 -0.121475 0.880093
vn 0.059381 -0.229897 0.971402
vn -0.586248 -0.093527 0.804715
vn -0.994831 -0.008079 0.101226
vn -0.999926 -0.001359 0.012102
vn -0.939857 0.00589 -0.341517
vn -0.331484 0.04167 -0.94254
vn 0.635461 0.005886 -0.77211
vn 0.986137 -0.040125 -0.161006
vn 0.99909 -0.027276 -0.032803
vn 0.878127 -0.042553 0.476531
vn -0.04454 -0.188968 0.980973
vn -0.857359 -0.163448 0.488079
vn -0.996661 -0.038206 -0.072159
vn -0.992107 -0.020587 -0.123695
vn -0.874833 0.018099 -0.484086
vn -0.29019 0.029088 -0.956527
vn 0.422186 -0.068717 -0.903901
vn 0.893265 -0.44698 0.047815
vn 0.934286 -0.316762 0.163619
vn 0.908787 0.137555 0.393934
vn 0.120203 0.311293 0.942681
vn -0.82757 -0.06212 0.557915
vn -0.989511 -0.139064 0.039106
vn -0.912036 -0.122135 -0.391502
vn -0.518298 -0.025839 -0.85481
vn -0.077646 0.013155 -0.996894
vn 0.040617 0.077433 -0.99617
vn 0.958637 -0.003749 -0.284608
vn 0.886074 -0.208859 0.413825
vn 0.643435 0.303959 0.702567
vn 0.30197 0.622448 0.722061
vn -0.435767 0.440396 0.784958
vn -0.902566 0.232166 0.362594
vn -0.756193 0.126022 -0.642099
vn 0.065018 0.034749 -0.997279
vn 0.288435 0.257293 -0.922283
vn -0.197135 0.385944 -0.901213
vn 0.428832 0.683736 -0.59043
vn 0.686613 0.726228 0.033985
vn 0.647534 0.742204 0.172724
vn 0.602214 0.770883 0.20755
vn 0.418362 0.821878 0.38664
vn 0.026117 0.925136 0.378736
vn -0.01266 0.870732 -0.491595
vn 0.435106 0.354724 -0.827559
vn 0.518056 0.739163 -0.430415
vn 0.404464 0.862097 -0.305283
vn 0.099217 0.964243 -0.245748
vn 0.026104 0.982554 0.184135
vn 0.666257 0.727737 -0.162791
vn 0.655919 0.487565 -0.576239
vn 0.928679 0.264005 -0.260492
vn -0.238191 0.907388 -0.346283
vn 0.1322 0.532056 -0.836325
vn 0.4549 0.841861 0.290406
vn 0.101367 0.987396 0.12155
vn -0.013366 0.996727 -0.079732
vn -0.2256 0.833053 0.505101
vn -0.654609 0.691836 0.304713
vn -0.571044 0.758817 -0.313219
vn 0.91676 0.306946 0.255606
vn 0.700428 0.170078 -0.693163
vn 0.935156 0.312151 -0.167469
vn 0.957572 0.242035 0.156447
vn -0.484081 0.246801 -0.839497
vn 0.075449 -0.061214 -0.995269
vn 0.496504 0.774764 0.391439
vn -0.093233 0.98725 0.129014
vn -0.883328 0.013807 0.468552
vn -0.474995 0.706983 0.52398
vn -0.918853 -0.113197 -0.378015
vn 0.740111 0.338646 0.580995
vn 0.477769 -0.114858 -0.870945
vn 0.927486 0.233118 -0.292278
vn 0.910836 0.345743 0.225477
vn 0.680517 0.30911 0.66434
vn -0.470906 -0.354024 -0.808031
vn -0.135823 -0.455428 -0.879851
vn 0.072202 0.532564 0.843305
vn -0.668659 0.153829 0.727484
vn -0.496395 -0.811859 0.30737
vn -0.647343 -0.723827 -0.238794
vn -0.048333 0.091319 0.994648
vn 0.219096 -0.261758 -0.939936
vn 0.89076 -0.059736 -0.450532
vn 0.933568 -0.081727 0.348958
vn 0.491573 -0.213073 0.844367
vn 0.054849 -0.166415 0.984529
vn -0.463952 -0.636038 -0.616607
vn -0.260753 -0.360373 -0.895622
vn -0.669781 -0.25324 0.698043
vn -0.75514 -0.590407 0.284925
vn -0.636474 -0.744012 -0.203339
vn -0.758059 -0.15044 0.634598
vn 0.103936 -0.094557 -0.990079
vn 0.851904 -0.131175 -0.507004
vn 0.867304 -0.128138 0.481004
vn 0.189296 -0.309039 0.93202
vn 0.159184 -0.533822 0.830478
vn -0.205958 -0.282676 0.936843
vn -0.489348 -0.300323 -0.818746
vn -0.218429 -0.057737 -0.974143
vn -0.967219 -0.212528 0.138994
vn -0.891997 -0.252722 -0.374796
vn -0.980359 -0.05198 0.190248
vn 0.176601 -0.05533 -0.982726
vn 0.870423 -0.130823 -0.474604
vn 0.830374 -0.149859 0.536676
vn 0.116195 -0.14335 0.982827
vn 0.022469 -0.201507 0.979229
vn -0.903608 -0.055118 0.4248
vn -0.373668 -0.083955 0.923755
vn -0.362991 -0.040991 -0.930891
vn -0.105383 -0.009237 -0.994389
vn -0.890978 -0.028272 -0.453165
vn -0.937071 -0.026891 -0.348101
vn 0.336464 -0.025675 -0.941346
vn 0.919229 -0.0868 -0.384037
vn 0.863153 -0.092481 0.496401
vn 0.20893 -0.057405 0.976244
vn -0.080159 -0.045284 0.995753
vn -0.477978 -0.018952 0.878167
vn -0.953124 -0.051301 0.298198
vn -0.97393 0.004512 0.226805
vn -0.326538 -0.0104 -0.945127
vn -0.095135 0.020931 -0.995244
vn -0.502256 0.008921 -0.864673
vn -0.97057 -0.051265 -0.235299
vn 0.423345 0.057263 -0.904157
vn 0.944879 -0.009981 -0.327267
vn 0.918449 -0.023243 0.394857
vn 0.407308 -0.012506 0.913205
vn 0.027386 -0.002407 0.999622
vn -0.464014 0.014197 0.885714
vn -0.973848 0.041836 0.223314
vn -0.888188 0.028844 -0.458574
vn -0.932456 0.082399 -0.351762
vn -0.027501 0.183441 -0.982646
vn -0.334026 0.172337 -0.926675
vn 0.535773 0.187562 -0.823267
vn 0.959416 0.08154 -0.269948
vn 0.938607 0.063105 0.339169
vn 0.527979 0.052834 0.847612
vn -0.022126 0.065214 0.997626
vn -0.626742 0.114074 0.770832
vn -0.949172 0.199186 0.243715
vn -0.951784 0.171272 -0.254507
vn -0.597096 0.186992 -0.780071
vn 0.027029 0.250381 -0.96777
vn 0.62167 0.136088 -0.771367
vn 0.919977 0.296042 -0.256906
vn 0.925121 0.285011 0.250839
vn 0.620132 0.248844 0.743984
vn 0.064167 0.194546 0.978792
vn -0.533166 0.110726 0.838733
vn -0.898865 0.252107 0.358447
vn -0.928007 -0.093812 -0.360558
vn -0.935439 -0.07805 0.344764
vn -0.531355 -0.124886 -0.837894
vn 0.083928 -0.085038 -0.992837
vn 0.581419 -0.643177 -0.498271
vn 0.935469 -0.070122 -0.346383
vn 0.936736 0.050877 0.346321
vn 0.581531 0.067355 0.810731
vn 0.077078 -0.000878 0.997025
vn -0.283218 -0.286701 0.9152
vn -0.407839 -0.775996 0.481142
vn -0.408769 -0.903572 -0.128321
vn -0.124841 -0.988325 -0.087342
vn 0.108394 -0.994013 0.013751
vn -0.145477 -0.962772 0.227828
vn 0.362455 -0.925727 -0.107964
vn 0.588572 -0.774864 0.230584
vn 0.359362 -0.606154 0.709533
vn -0.013 -0.490302 0.871456
vn -0.186067 -0.635284 0.749529
vn -0.096568 -0.936812 0.33624
vn 0.059662 -0.979919 -0.190262
vn 0.382267 -0.920658 -0.079131
vn 0.051848 -0.781153 0.622183
vn -0.441272 -0.889261 -0.12039
vn -0.229562 -0.950884 -0.207656
vn -0.052202 -0.99842 -0.020809
vn 0.01598 -0.99458 0.102738
vn 0.055394 -0.949744 0.308087
vn 0.121643 -0.903569 0.410812
vn 0.121683 -0.950089 0.28727
vn 0.301556 -0.953419 -0.007455
vn 0.429648 -0.841548 -0.327413
vn 0.196464 -0.97749 -0.076907
vn 0.092848 -0.978055 -0.186512
vn 0.874624 -0.483803 -0.031095
vn 0.46295 -0.726467 0.50786
vn 0.739011 -0.611425 -0.282882
vn 0.805211 -0.566507 -0.175228
vn 0.388228 -0.078713 0.918196
vn 0.96229 -0.06411 0.264362
vn -0.340104 -0.891005 0.300732
vn -0.173158 -0.174114 0.969382
vn 0.831213 -0.552385 -0.062902
vn 0.762595 -0.512592 -0.394585
vn 0.116839 -0.669675 -0.733406
vn -0.365405 -0.753059 -0.547157
vn -0.349077 -0.91514 -0.201655
vn -0.333797 -0.939614 0.075537
vn 0.949009 -0.09935 -0.299185
vn 0.609866 0.032438 0.79184
vn 0.910591 0.194119 0.364887
vn 0.907746 0.273024 -0.318521
vn -0.495861 -0.431239 0.753761
vn 0.216712 -0.107925 0.970252
vn 0.670458 -0.001802 -0.741945
vn -0.036091 0.046725 -0.998256
vn -0.661758 -0.223937 -0.715491
vn -0.805812 -0.569942 -0.160727
vn -0.753272 -0.574857 0.319563
vn 0.443777 0.23737 -0.864128
vn 0.562964 0.091838 0.821363
vn 0.956803 0.069733 0.28225
vn 0.978611 0.061742 -0.196237
vn 0.550153 0.026474 -0.834644
vn -0.291843 -0.229082 0.928628
vn 0.069846 0.124544 0.989753
vn 0.197321 0.216189 -0.956204
vn -0.285661 0.100437 -0.953053
vn -0.835616 -0.285923 -0.469035
vn -0.800669 -0.388844 0.455774
vn 0.214304 0.004253 -0.976758
vn 0.575258 0.037114 0.81713
vn 0.954343 0.008071 0.298604
vn 0.950571 0.011304 -0.310303
vn 0.626111 0.0152 -0.779586
vn -0.012599 0.020243 -0.999716
vn -0.461269 0.2185 0.859935
vn 0.013965 0.130804 0.99131
vn -0.131165 0.098905 -0.986414
vn -0.828542 0.48442 -0.280813
vn -0.925422 0.343884 0.159182
vn -0.817014 0.066685 -0.572748
vn 0.763383 -0.029934 0.645252
vn 0.98209 -0.025882 0.186626
vn 0.800155 -0.030492 -0.599018
vn -0.105164 -0.022763 -0.994194
vn -0.017778 -0.010255 -0.999789
vn -0.826457 0.022396 -0.562554
vn -0.723692 0.316268 0.613388
vn 0.105305 -0.025243 0.99412
vn -0.905356 0.332351 0.264335
vn -0.834341 0.539746 -0.112019
vn -0.981496 0.064544 0.180277
vn 0.67414 -0.000804 0.738603
vn 0.967818 0.002486 0.251638
vn 0.921309 -0.00996 -0.388703
vn 0.028045 -0.051002 -0.998305
vn -0.001017 -0.085925 -0.996301
vn -0.311666 -0.03284 -0.949624
vn -0.991105 0.004597 -0.133006
vn -0.852619 0.02556 0.521907
vn -0.161308 -0.002356 0.986901
vn -0.987423 0.095254 -0.126188
vn -0.996683 0.01088 -0.080651
vn 0.651729 0.016196 0.758279
vn 0.961144 0.019571 0.275352
vn 0.988198 -0.001504 -0.153177
vn 0.459 -0.121475 -0.880093
vn 0.059381 -0.229897 -0.971402
vn -0.586248 -0.093527 -0.804715
vn -0.994831 -0.008079 -0.101226
vn -0.999926 -0.001359 -0.012102
vn -0.947002 0.005145 0.321187
vn -0.22188 0.015042 0.974958
vn -0.939857 0.00589 0.341517
vn 0.635461 0.005886 0.77211
vn 0.986137 -0.040125 0.161006
vn 0.99909 -0.027276 0.032803
vn 0.878127 -0.042553 -0.476531
vn -0.04454 -0.188968 -0.980973
vn -0.857359 -0.163448 -0.488079
vn -0.996661 -0.038206 0.072159
vn -0.992107 -0.020587 0.123695
vn -0.874833 0.018099 0.484086
vn -0.331484 0.04167 0.94254
vn 0.422186 -0.068717 0.903901
vn 0.893265 -0.44698 -0.047815
vn 0.934286 -0.316762 -0.163619
vn 0.908787 0.137555 -0.393934
vn 0.120203 0.311293 -0.942681
vn -0.82757 -0.06212 -0.557915
vn -0.989511 -0.139064 -0.039106
vn -0.912036 -0.122135 0.391502
vn -0.518298 -0.025839 0.85481
vn -0.29019 0.029088 0.956527
vn 0.040617 0.077433 0.99617
vn 0.958637 -0.003749 0.284608
vn 0.886074 -0.208859 -0.413825
vn 0.643435 0.303959 -0.702567
vn 0.30197 0.622448 -0.722061
vn -0.435767 0.440396 -0.784958
vn -0.902566 0.232166 -0.362594
vn -0.756193 0.126022 0.642099
vn 0.065018 0.034749 0.997279
vn -0.077646 0.013155 0.996894
vn -0.197135 0.385944 0.901213
vn 0.428832 0.683736 0.59043
vn 0.686613 0.726228 -0.033985
vn 0.647534 0.742204 -0.172724
vn 0.602214 0.770883 -0.20755
vn 0.418362 0.821878 -0.38664
vn 0.026117 0.925136 -0.378736
vn -0.01266 0.870732 0.491595
vn 0.435106 0.354724 0.827559
vn 0.288435 0.257293 0.922283
vn 0.518056 0.739163 0.430415
# 534 normals
usemtl Material__1
f  1//1 2//2 3//3
f  1//1 3//3 4//4
f  1//1 4//4 5//5
f  1//1 5//5 6//6
f  1//1 6//6 7//7
f  1//1 7//7 8//8
f  1//1 8//8 9//9
f  1//1 9//9 10//10
f  1//1 10//10 11//11
f  1//1 11//11 2//2
f  2//2 12//12 13//13
f  2//2 13//13 3//3
f  11//11 12//12 2//2
f  3//3 13//13 14//14
f  3//3 14//14 4//4
f  4//4 14//14 15//15
f  4//4 15//15 5//5
f  5//5 15//15 16//16
f  5//5 16//16 6//6
f  6//6 16//16 17//17
f  6//6 17//17 7//7
f  17//17 8//8 7//7
f  8//8 18//18 19//19
f  8//8 19//19 9//9
f  17//17 18//18 8//8
f  9//9 19//19 20//20
f  9//9 20//20 10//10
f  10//10 20//20 21//21
f  10//10 21//21 11//11
f  11//11 21//21 12//12
f  12//12 22//22 23//23
f  12//12 23//23 13//13
f  21//21 22//22 12//12
f  13//13 23//23 24//24
f  13//13 24//24 14//14
f  14//14 24//24 25//25
f  14//14 25//25 15//15
f  15//15 25//25 26//26
f  15//15 26//26 16//16
f  16//16 26//26 27//27
f  16//16 27//27 17//17
f  17//17 27//27 28//28
f  17//17 28//28 18//18
f  18//18 28//28 19//19
f  28//28 29//29 19//19
f  19//19 29//29 30//30
f  19//19 30//30 20//20
f  20//20 30//30 31//31
f  20//20 31//31 21//21
f  21//21 31//31 22//22
f  22//22 32//32 33//33
f  22//22 33//33 23//23
f  31//31 32//32 22//22
f  23//23 33//33 34//34
f  23//23 34//34 24//24
f  24//24 34//34 35//35
f  24//24 35//35 25//25
f  25//25 35//35 36//36
f  25//25 36//36 26//26
f  26//26 36//36 37//37
f  26//26 37//37 27//27
f  27//27 37//37 38//38
f  27//27 38//38 28//28
f  28//28 38//38 39//39
f  28//28 39//39 29//29
f  29//29 39//39 40//40
f  29//29 40//40 30//30
f  30//30 40//40 41//41
f  30//30 41//41 31//31
f  31//31 41//41 32//32
f  32//32 42//42 43//43
f  32//32 43//43 33//33
f  41//41 42//42 32//32
f  43//43 44//44 33//33
f  33//33 44//44 34//34
f  44//44 45//45 34//34
f  34//34 45//45 35//35
f  45//45 46//46 35//35
f  35//35 46//46 36//36
f  36//36 46//46 47//47
f  36//36 47//47 37//37
f  37//37 47//47 48//48
f  37//37 48//48 38//38
f  38//38 48//48 49//49
f  38//38 49//49 39//39
f  39//39 49//49 50//50
f  39//39 50//50 40//40
f  40//40 50//50 51//51
f  40//40 51//51 41//41
f  41//41 51//51 42//42
f  42//42 52//52 53//53
f  42//42 53//53 43//43
f  51//51 52//52 42//42
f  53//53 54//54 43//43
f  43//43 54//54 44//44
f  54//54 55//55 44//44
f  44//44 55//55 45//45
f  55//55 56//56 45//45
f  45//45 56//56 46//46
f  46//46 56//56 57//57
f  46//46 57//57 47//47
f  47//47 57//57 58//58
f  47//47 58//58 48//48
f  48//48 58//58 59//59
f  48//48 59//59 49//49
f  49//49 59//59 60//60
f  49//49 60//60 50//50
f  50//50 60//60 61//61
f  50//50 61//61 51//51
f  51//51 61//61 52//52
f  52//52 62//62 63//63
f  52//52 63//63 53//53
f  61//61 62//62 52//52
f  53//53 63//63 64//64
f  53//53 64//64 54//54
f  54//54 64//64 65//65
f  54//54 65//65 55//55
f  55//55 65//65 66//66
f  55//55 66//66 56//56
f  56//56 66//66 67//67
f  56//56 67//67 57//57
f  58//58 57//57 67//67
f  58//58 68//68 69//69
f  58//58 69//69 59//59
f  58//58 67//67 68//68
f  59//59 69//69 70//70
f  59//59 70//70 60//60
f  60//60 70//70 71//71
f  60//60 71//71 61//61
f  61//61 71//71 62//62
f  62//62 72//72 73//73
f  62//62 73//73 63//63
f  71//71 72//72 62//62
f  63//63 73//73 74//74
f  63//63 74//74 64//64
f  64//64 74//74 75//75
f  64//64 75//75 65//65
f  65//65 75//75 76//76
f  65//65 76//76 66//66
f  66//66 76//76 77//77
f  66//66 77//77 67//67
f  67//67 77//77 78//78
f  67//67 78//78 68//68
f  68//68 78//78 79//79
f  80//80 69//69 68//68
f  79//79 80//80 68//68
f  70//70 69//69 80//80
f  70//70 81//81 82//82
f  70//70 82//82 71//71
f  70//70 80//80 81//81
f  71//71 82//82 72//72
f  72//72 83//83 84//84
f  72//72 84//84 73//73
f  82//82 83//83 72//72
f  73//73 84//84 85//85
f  73//73 85//85 74//74
f  74//74 85//85 86//86
f  74//74 86//86 75//75
f  75//75 86//86 87//87
f  75//75 87//87 76//76
f  76//76 87//87 88//88
f  76//76 88//88 77//77
f  77//77 88//88 89//89
f  77//77 89//89 78//78
f  78//78 89//89 90//90
f  78//78 90//90 79//79
f  81//81 79//79 91//91
f  79//79 90//90 92//92
f  79//79 92//92 91//91
f  81//81 80//80 79//79
f  81//81 91//91 82//82
f  91//91 93//93 82//82
f  82//82 93//93 83//83
f  83//83 94//94 95//95
f  83//83 95//95 84//84
f  93//93 94//94 83//83
f  84//84 95//95 96//96
f  84//84 96//96 85//85
f  85//85 96//96 97//97
f  85//85 97//97 86//86
f  86//86 97//97 98//98
f  86//86 98//98 87//87
f  87//87 98//98 99//99
f  87//87 99//99 88//88
f  88//88 99//99 100//100
f  88//88 100//100 89//89
f  89//89 100//100 101//101
f  89//89 101//101 90//90
f  90//90 101//101 102//102
f  90//90 102//102 92//92
f  91//91 92//92 93//93
f  92//92 102//102 103//103
f  92//92 103//103 93//93
f  93//93 103//103 94//94
f  94//94 104//104 105//105
f  94//94 105//105 95//95
f  103//103 104//104 94//94
f  95//95 105//105 106//106
f  95//95 106//106 96//96
f  96//96 106//106 107//107
f  96//96 107//107 97//97
f  97//97 107//107 108//108
f  97//97 108//108 98//98
f  98//98 108//108 109//109
f  98//98 109//109 99//99
f  99//99 109//109 110//110
f  99//99 110//110 100//100
f  101//101 100//100 111//111
f  110//110 111//111 100//100
f  101//101 112//112 113//113
f  101//101 113//113 102//102
f  112//112 101//101 111//111
f  102//102 113//113 114//114
f  102//102 114//114 103//103
f  103//103 114//114 104//104
f  104//104 115//115 116//116
f  104//104 116//116 105//105
f  114//114 115//115 104//104
f  105//105 116//116 117//117
f  105//105 117//117 106//106
f  106//106 117//117 118//118
f  106//106 118//118 107//107
f  107//107 118//118 119//119
f  107//107 119//119 108//108
f  108//108 119//119 120//120
f  108//108 120//120 109//109
f  109//109 120//120 121//121
f  109//109 121//121 110//110
f  110//110 121//121 122//122
f  110//110 122//122 112//112
f  110//110 112//112 111//111
f  112//112 122//122 123//123
f  112//112 123//123 113//113
f  113//113 123//123 124//124
f  113//113 124//124 114//114
f  114//114 124//124 115//115
f  115//115 125//125 126//126
f  115//115 126//126 116//116
f  124//124 125//125 115//115
f  116//116 126//126 127//127
f  116//116 127//127 117//117
f  117//117 127//127 128//128
f  117//117 128//128 118//118
f  118//118 128//128 129//129
f  118//118 129//129 119//119
f  119//119 129//129 130//130
f  119//119 130//130 120//120
f  120//120 130//130 131//131
f  120//120 131//131 121//121
f  121//121 131//131 132//132
f  121//121 132//132 122//122
f  122//122 132//132 133//133
f  122//122 133//133 123//123
f  123//123 133//133 134//134
f  123//123 134//134 124//124
f  124//124 134//134 125//125
f  125//125 135//135 136//136
f  125//125 136//136 126//126
f  134//134 135//135 125//125
f  126//126 136//136 137//137
f  126//126 137//137 127//127
f  127//127 137//137 138//138
f  127//127 138//138 128//128
f  128//128 138//138 139//139
f  128//128 139//139 129//129
f  129//129 139//139 140//140
f  129//129 140//140 130//130
f  130//130 140//140 141//141
f  130//130 141//141 131//131
f  131//131 141//141 142//142
f  131//131 142//142 132//132
f  132//132 142//142 143//143
f  132//132 143//143 133//133
f  133//133 143//143 144//144
f  133//133 144//144 134//134
f  134//134 144//144 135//135
f  135//135 145//145 136//136
f  144//144 145//145 135//135
f  136//136 145//145 137//137
f  137//137 145//145 138//138
f  138//138 145//145 139//139
f  139//139 145//145 140//140
f  140//140 145//145 141//141
f  141//141 145//145 142//142
f  142//142 145//145 143//143
f  143//143 145//145 144//144
f  146//146 147//147 148//148
f  146//146 148//148 149//149
f  146//146 149//149 150//150
f  146//146 150//150 151//151
f  146//146 151//151 152//152
f  146//146 152//152 153//153
f  146//146 153//153 154//154
f  146//146 154//154 155//155
f  146//146 155//155 156//156
f  146//146 156//156 147//147
f  147//147 157//157 158//158
f  147//147 158//158 148//148
f  156//156 157//157 147//147
f  148//148 158//158 159//159
f  148//148 159//159 149//149
f  149//149 159//159 160//160
f  149//149 160//160 150//150
f  150//150 160//160 161//161
f  150//150 161//161 151//151
f  151//151 161//161 162//162
f  151//151 162//162 152//152
f  152//152 162//162 163//163
f  152//152 163//163 153//153
f  153//153 163//163 164//164
f  153//153 164//164 154//154
f  154//154 164//164 165//165
f  154//154 165//165 155//155
f  155//155 165//165 166//166
f  155//155 166//166 156//156
f  156//156 166//166 157//157
f  157//157 167//167 168//168
f  157//157 168//168 158//158
f  166//166 167//167 157//157
f  158//158 168//168 169//169
f  158//158 169//169 159//159
f  159//159 169//169 170//170
f  159//159 170//170 160//160
f  160//160 170//170 171//171
f  160//160 171//171 161//161
f  161//161 171//171 172//172
f  161//161 172//172 162//162
f  162//162 172//172 173//173
f  162//162 173//173 163//163
f  163//163 173//173 174//174
f  163//163 174//174 164//164
f  164//164 174//174 175//175
f  164//164 175//175 165//165
f  165//165 175//175 176//176
f  165//165 176//176 166//166
f  166//166 176//176 167//167
f  167//167 177//177 178//178
f  167//167 178//178 168//168
f  176//176 177//177 167//167
f  168//168 178//178 179//179
f  168//168 179//179 169//169
f  169//169 179//179 180//180
f  169//169 180//180 170//170
f  170//170 180//180 181//181
f  170//170 181//181 171//171
f  171//171 181//181 182//182
f  171//171 182//182 172//172
f  172//172 182//182 183//183
f  172//172 183//183 173//173
f  173//173 183//183 184//184
f  173//173 184//184 174//174
f  174//174 184//184 185//185
f  174//174 185//185 175//175
f  175//175 185//185 186//186
f  175//175 186//186 176//176
f  176//176 186//186 177//177
f  177//177 187//187 188//188
f  177//177 188//188 178//178
f  186//186 187//187 177//177
f  178//178 188//188 189//189
f  178//178 189//189 179//179
f  179//179 189//189 190//190
f  179//179 190//190 180//180
f  180//180 190//190 191//191
f  180//180 191//191 181//181
f  181//181 191//191 192//192
f  181//181 192//192 182//182
f  182//182 192//192 193//193
f  182//182 193//193 183//183
f  183//183 193//193 194//194
f  183//183 194//194 184//184
f  184//184 194//194 195//195
f  184//184 195//195 185//185
f  185//185 195//195 196//196
f  185//185 196//196 186//186
f  186//186 196//196 187//187
f  187//187 197//197 198//198
f  187//187 198//198 188//188
f  196//196 197//197 187//187
f  188//188 198//198 199//199
f  188//188 199//199 189//189
f  189//189 199//199 200//200
f  189//189 200//200 190//190
f  190//190 200//200 201//201
f  190//190 201//201 191//191
f  191//191 201//201 202//202
f  191//191 202//202 192//192
f  192//192 202//202 203//203
f  192//192 203//203 193//193
f  193//193 203//203 204//204
f  193//193 204//204 194//194
f  194//194 204//204 205//205
f  194//194 205//205 195//195
f  195//195 205//205 206//206
f  195//195 206//206 196//196
f  196//196 206//206 197//197
f  197//197 207//207 208//208
f  197//197 208//208 198//198
f  206//206 207//207 197//197
f  198//198 208//208 209//209
f  198//198 209//209 199//199
f  199//199 209//209 210//210
f  199//199 210//210 200//200
f  200//200 210//210 211//211
f  200//200 211//211 201//201
f  201//201 211//211 212//212
f  201//201 212//212 202//202
f  202//202 212//212 213//213
f  202//202 213//213 203//203
f  203//203 213//213 214//214
f  203//203 214//214 204//204
f  204//204 214//214 215//215
f  204//204 215//215 205//205
f  205//205 215//215 216//216
f  205//205 216//216 206//206
f  206//206 216//216 207//207
f  207//207 217//217 218//218
f  207//207 218//218 208//208
f  216//216 217//217 207//207
f  208//208 218//218 219//219
f  208//208 219//219 209//209
f  209//209 219//219 220//220
f  209//209 220//220 210//210
f  210//210 220//220 221//221
f  210//210 221//221 211//211
f  211//211 221//221 222//222
f  211//211 222//222 212//212
f  212//212 222//222 223//223
f  212//212 223//223 213//213
f  213//213 223//223 224//224
f  213//213 224//224 214//214
f  214//214 224//224 225//225
f  214//214 225//225 215//215
f  215//215 225//225 226//226
f  215//215 226//226 216//216
f  216//216 226//226 217//217
f  217//217 227//227 228//228
f  217//217 228//228 218//218
f  226//226 227//227 217//217
f  218//218 228//228 229//229
f  218//218 229//229 219//219
f  219//219 229//229 230//230
f  219//219 230//230 220//220
f  220//220 230//230 231//231
f  220//220 231//231 221//221
f  221//221 231//231 232//232
f  221//221 232//232 222//222
f  222//222 232//232 233//233
f  222//222 233//233 223//223
f  223//223 233//233 234//234
f  223//223 234//234 224//224
f  224//224 234//234 235//235
f  224//224 235//235 225//225
f  225//225 235//235 236//236
f  225//225 236//236 226//226
f  226//226 236//236 227//227
f  227//227 237//237 238//238
f  227//227 238//238 228//228
f  236//236 237//237 227//227
f  228//228 238//238 239//239
f  228//228 239//239 229//229
f  229//229 239//239 240//240
f  229//229 240//240 230//230
f  230//230 240//240 241//241
f  230//230 241//241 231//231
f  231//231 241//241 242//242
f  231//231 242//242 232//232
f  232//232 242//242 243//243
f  232//232 243//243 233//233
f  233//233 243//243 244//244
f  233//233 244//244 234//234
f  234//234 244//244 245//245
f  234//234 245//245 235//235
f  235//235 245//245 246//246
f  235//235 246//246 236//236
f  236//236 246//246 237//237
f  237//237 247//247 248//248
f  237//237 248//248 238//238
f  246//246 247//247 237//237
f  238//238 248//248 249//249
f  238//238 249//249 239//239
f  239//239 249//249 250//250
f  239//239 250//250 240//240
f  240//240 250//250 251//251
f  240//240 251//251 241//241
f  241//241 251//251 252//252
f  241//241 252//252 242//242
f  242//242 252//252 253//253
f  242//242 253//253 243//243
f  243//243 253//253 254//254
f  243//243 254//254 244//244
f  244//244 254//254 255//255
f  244//244 255//255 245//245
f  245//245 255//255 256//256
f  245//245 256//256 246//246
f  246//246 256//256 247//247
f  247//247 257//257 258//258
f  247//247 258//258 248//248
f  256//256 257//257 247//247
f  248//248 258//258 259//259
f  248//248 259//259 249//249
f  249//249 259//259 260//260
f  249//249 260//260 250//250
f  250//250 260//260 261//261
f  250//250 261//261 251//251
f  251//251 261//261 262//262
f  251//251 262//262 252//252
f  252//252 262//262 263//263
f  252//252 263//263 253//253
f  253//253 263//263 264//264
f  253//253 264//264 254//254
f  254//254 264//264 265//265
f  254//254 265//265 255//255
f  255//255 265//265 266//266
f  255//255 266//266 256//256
f  256//256 266//266 257//257
f  257//257 267//267 258//258
f  266//266 267//267 257//257
f  258//258 267//267 259//259
f  259//259 267//267 260//260
f  260//260 267//267 261//261
f  261//261 267//267 262//262
f  262//262 267//267 263//263
f  263//263 267//267 264//264
f  264//264 267//267 265//265
f  265//265 267//267 266//266
f  268//268 269//269 270//270
f  271//271 268//268 270//270
f  268//268 272//272 269//269
f  273//273 272//272 268//268
f  271//271 273//273 268//268
f  269//269 274//274 270//270
f  272//272 275//275 269//269
f  269//269 275//275 274//274
f  276//276 271//271 270//270
f  277//277 276//276 270//270
f  278//278 277//277 270//270
f  279//279 278//278 270//270
f  280//280 279//279 270//270
f  281//281 280//280 270//270
f  274//274 281//281 270//270
f  282//282 273//273 271//271
f  276//276 282//282 271//271
f  272//272 283//283 275//275
f  284//284 283//283 272//272
f  273//273 284//284 272//272
f  285//285 284//284 273//273
f  282//282 285//285 273//273
f  274//274 286//286 281//281
f  275//275 286//286 274//274
f  283//283 287//287 275//275
f  275//275 287//287 286//286
f  288//288 282//282 276//276
f  277//277 288//288 276//276
f  289//289 288//288 277//277
f  278//278 289//289 277//277
f  278//278 279//279 289//289
f  290//290 291//291 279//279
f  280//280 290//290 279//279
f  279//279 291//291 289//289
f  292//292 290//290 280//280
f  281//281 292//292 280//280
f  286//286 292//292 281//281
f  293//293 285//285 282//282
f  288//288 293//293 282//282
f  283//283 294//294 287//287
f  295//295 294//294 283//283
f  284//284 295//295 283//283
f  296//296 295//295 284//284
f  285//285 296//296 284//284
f  297//297 296//296 285//285
f  293//293 297//297 285//285
f  286//286 298//298 292//292
f  287//287 298//298 286//286
f  294//294 299//299 287//287
f  287//287 299//299 298//298
f  300//300 293//293 288//288
f  289//289 300//300 288//288
f  301//301 300//300 289//289
f  291//291 301//301 289//289
f  290//290 301//301 291//291
f  290//290 302//302 301//301
f  303//303 302//302 290//290
f  292//292 303//303 290//290
f  298//298 303//303 292//292
f  304//304 297//297 293//293
f  300//300 304//304 293//293
f  294//294 305//305 299//299
f  294//294 306//306 305//305
f  295//295 306//306 294//294
f  295//295 307//307 306//306
f  296//296 307//307 295//295
f  296//296 308//308 307//307
f  297//297 308//308 296//296
f  309//309 308//308 297//297
f  304//304 309//309 297//297
f  298//298 310//310 303//303
f  299//299 310//310 298//298
f  305//305 311//311 299//299
f  299//299 311//311 310//310
f  312//312 304//304 300//300
f  301//301 312//312 300//300
f  313//313 312//312 301//301
f  302//302 313//313 301//301
f  314//314 313//313 302//302
f  303//303 314//314 302//302
f  310//310 314//314 303//303
f  315//315 309//309 304//304
f  312//312 315//315 304//304
f  305//305 316//316 311//311
f  305//305 317//317 316//316
f  306//306 317//317 305//305
f  306//306 318//318 317//317
f  307//307 318//318 306//306
f  307//307 319//319 318//318
f  308//308 319//319 307//307
f  320//320 319//319 308//308
f  309//309 320//320 308//308
f  321//321 320//320 309//309
f  315//315 321//321 309//309
f  310//310 322//322 314//314
f  311//311 322//322 310//310
f  316//316 323//323 311//311
f  311//311 323//323 322//322
f  324//324 315//315 312//312
f  313//313 324//324 312//312
f  325//325 324//324 313//313
f  314//314 325//325 313//313
f  322//322 325//325 314//314
f  326//326 321//321 315//315
f  324//324 326//326 315//315
f  316//316 327//327 323//323
f  328//328 327//327 316//316
f  317//317 328//328 316//316
f  329//329 328//328 317//317
f  318//318 329//329 317//317
f  330//330 329//329 318//318
f  319//319 330//330 318//318
f  331//331 330//330 319//319
f  320//320 331//331 319//319
f  331//331 320//320 321//321
f  332//332 333//333 321//321
f  326//326 332//332 321//321
f  333//333 331//331 321//321
f  322//322 334//334 325//325
f  323//323 334//334 322//322
f  327//327 335//335 323//323
f  323//323 335//335 334//334
f  336//336 326//326 324//324
f  325//325 336//336 324//324
f  334//334 336//336 325//325
f  337//337 332//332 326//326
f  336//336 337//337 326//326
f  327//327 338//338 335//335
f  339//339 338//338 327//327
f  328//328 339//339 327//327
f  340//340 339//339 328//328
f  329//329 340//340 328//328
f  341//341 340//340 329//329
f  330//330 341//341 329//329
f  342//342 341//341 330//330
f  331//331 342//342 330//330
f  343//343 342//342 331//331
f  333//333 343//343 331//331
f  333//333 332//332 344//344
f  344//344 332//332 337//337
f  345//345 343//343 333//333
f  333//333 344//344 345//345
f  334//334 346//346 336//336
f  335//335 346//346 334//334
f  338//338 347//347 335//335
f  335//335 347//347 346//346
f  346//346 337//337 336//336
f  348//348 349//349 337//337
f  346//346 348//348 337//337
f  349//349 344//344 337//337
f  338//338 350//350 347//347
f  351//351 350//350 338//338
f  339//339 351//351 338//338
f  352//352 351//351 339//339
f  340//340 352//352 339//339
f  353//353 352//352 340//340
f  341//341 353//353 340//340
f  354//354 353//353 341//341
f  342//342 354//354 341//341
f  355//355 354//354 342//342
f  343//343 355//355 342//342
f  356//356 355//355 343//343
f  345//345 356//356 343//343
f  345//345 344//344 349//349
f  357//357 345//345 349//349
f  358//358 356//356 345//345
f  357//357 358//358 345//345
f  347//347 348//348 346//346
f  350//350 359//359 347//347
f  347//347 359//359 348//348
f  348//348 357//357 349//349
f  348//348 360//360 357//357
f  359//359 360//360 348//348
f  350//350 361//361 359//359
f  362//362 361//361 350//350
f  351//351 362//362 350//350
f  363//363 362//362 351//351
f  352//352 363//363 351//351
f  364//364 363//363 352//352
f  353//353 364//364 352//352
f  365//365 364//364 353//353
f  354//354 365//365 353//353
f  366//366 365//365 354//354
f  355//355 366//366 354//354
f  367//367 366//366 355//355
f  356//356 367//367 355//355
f  368//368 367//367 356//356
f  358//358 368//368 356//356
f  360//360 358//358 357//357
f  369//369 368//368 358//358
f  360//360 369//369 358//358
f  361//361 370//370 359//359
f  359//359 370//370 360//360
f  370//370 369//369 360//360
f  361//361 371//371 370//370
f  372//372 371//371 361//361
f  362//362 372//372 361//361
f  373//373 372//372 362//362
f  363//363 373//373 362//362
f  374//374 373//373 363//363
f  364//364 374//374 363//363
f  375//375 374//374 364//364
f  365//365 375//375 364//364
f  376//376 375//375 365//365
f  366//366 376//376 365//365
f  377//377 366//366 367//367
f  366//366 377//377 376//376
f  378//378 379//379 367//367
f  368//368 378//378 367//367
f  377//377 367//367 379//379
f  380//380 378//378 368//368
f  369//369 380//380 368//368
f  370//370 381//381 369//369
f  381//381 380//380 369//369
f  371//371 381//381 370//370
f  371//371 382//382 381//381
f  383//383 382//382 371//371
f  372//372 383//383 371//371
f  384//384 383//383 372//372
f  373//373 384//384 372//372
f  385//385 384//384 373//373
f  374//374 385//385 373//373
f  386//386 385//385 374//374
f  375//375 386//386 374//374
f  387//387 386//386 375//375
f  376//376 387//387 375//375
f  388//388 387//387 376//376
f  379//379 388//388 376//376
f  377//377 379//379 376//376
f  378//378 389//389 379//379
f  390//390 389//389 378//378
f  380//380 390//390 378//378
f  389//389 388//388 379//379
f  381//381 391//391 380//380
f  391//391 390//390 380//380
f  382//382 391//391 381//381
f  382//382 392//392 391//391
f  393//393 392//392 382//382
f  383//383 393//393 382//382
f  394//394 393//393 383//383
f  384//384 394//394 383//383
f  395//395 394//394 384//384
f  385//385 395//395 384//384
f  396//396 395//395 385//385
f  386//386 396//396 385//385
f  397//397 396//396 386//386
f  387//387 397//397 386//386
f  398//398 397//397 387//387
f  388//388 398//398 387//387
f  399//399 398//398 388//388
f  389//389 399//399 388//388
f  400//400 399//399 389//389
f  390//390 400//400 389//389
f  391//391 401//401 390//390
f  401//401 400//400 390//390
f  392//392 401//401 391//391
f  392//392 402//402 401//401
f  403//403 402//402 392//392
f  393//393 403//403 392//392
f  404//404 403//403 393//393
f  394//394 404//404 393//393
f  405//405 404//404 394//394
f  395//395 405//405 394//394
f  406//406 405//405 395//395
f  396//396 406//406 395//395
f  407//407 406//406 396//396
f  397//397 407//407 396//396
f  408//408 407//407 397//397
f  398//398 408//408 397//397
f  409//409 408//408 398//398
f  399//399 409//409 398//398
f  410//410 409//409 399//399
f  400//400 410//410 399//399
f  401//401 411//411 400//400
f  411//411 410//410 400//400
f  402//402 411//411 401//401
f  402//402 412//412 411//411
f  403//403 412//412 402//402
f  404//404 412//412 403//403
f  405//405 412//412 404//404
f  406//406 412//412 405//405
f  407//407 412//412 406//406
f  408//408 412//412 407//407
f  409//409 412//412 408//408
f  410//410 412//412 409//409
f  411//411 412//412 410//410
f  413//413 414//414 415//415
f  416//416 413//413 415//415
f  413//413 417//417 414//414
f  418//418 417//417 413//413
f  416//416 418//418 413//413
f  414//414 419//419 415//415
f  417//417 420//420 414//414
f  414//414 420//420 419//419
f  421//421 416//416 415//415
f  422//422 421//421 415//415
f  423//423 422//422 415//415
f  424//424 423//423 415//415
f  425//425 424//424 415//415
f  426//426 425//425 415//415
f  419//419 426//426 415//415
f  427//427 418//418 416//416
f  421//421 427//427 416//416
f  417//417 428//428 420//420
f  429//429 428//428 417//417
f  418//418 429//429 417//417
f  430//430 429//429 418//418
f  427//427 430//430 418//418
f  419//419 431//431 426//426
f  420//420 431//431 419//419
f  428//428 432//432 420//420
f  420//420 432//432 431//431
f  433//433 427//427 421//421
f  422//422 433//433 421//421
f  434//434 433//433 422//422
f  423//423 434//434 422//422
f  435//435 434//434 423//423
f  424//424 435//435 423//423
f  436//436 435//435 424//424
f  425//425 436//436 424//424
f  437//437 436//436 425//425
f  426//426 437//437 425//425
f  431//431 437//437 426//426
f  438//438 430//430 427//427
f  433//433 438//438 427//427
f  428//428 439//439 432//432
f  440//440 439//439 428//428
f  429//429 440//440 428//428
f  441//441 440//440 429//429
f  430//430 441//441 429//429
f  442//442 441//441 430//430
f  438//438 442//442 430//430
f  431//431 443//443 437//437
f  432//432 443//443 431//431
f  439//439 444//444 432//432
f  432//432 444//444 443//443
f  445//445 438//438 433//433
f  434//434 445//445 433//433
f  446//446 445//445 434//434
f  435//435 446//446 434//434
f  447//447 446//446 435//435
f  436//436 447//447 435//435
f  448//448 447//447 436//436
f  437//437 448//448 436//436
f  443//443 448//448 437//437
f  449//449 442//442 438//438
f  445//445 449//449 438//438
f  439//439 450//450 444//444
f  451//451 450//450 439//439
f  440//440 451//451 439//439
f  452//452 451//451 440//440
f  441//441 452//452 440//440
f  453//453 452//452 441//441
f  442//442 453//453 441//441
f  454//454 453//453 442//442
f  449//449 454//454 442//442
f  443//443 455//455 448//448
f  444//444 455//455 443//443
f  450//450 456//456 444//444
f  444//444 456//456 455//455
f  457//457 449//449 445//445
f  446//446 457//457 445//445
f  458//458 457//457 446//446
f  447//447 458//458 446//446
f  459//459 458//458 447//447
f  448//448 459//459 447//447
f  455//455 459//459 448//448
f  460//460 454//454 449//449
f  457//457 460//460 449//449
f  450//450 461//461 456//456
f  462//462 461//461 450//450
f  451//451 462//462 450//450
f  463//463 462//462 451//451
f  452//452 463//463 451//451
f  464//464 463//463 452//452
f  453//453 464//464 452//452
f  465//465 464//464 453//453
f  454//454 465//465 453//453
f  466//466 465//465 454//454
f  460//460 466//466 454//454
f  455//455 467//467 459//459
f  456//456 467//467 455//455
f  461//461 468//468 456//456
f  456//456 468//468 467//467
f  469//469 460//460 457//457
f  458//458 469//469 457//457
f  470//470 469//469 458//458
f  459//459 470//470 458//458
f  467//467 470//470 459//459
f  471//471 466//466 460//460
f  469//469 471//471 460//460
f  461//461 472//472 468//468
f  473//473 472//472 461//461
f  462//462 473//473 461//461
f  474//474 473//473 462//462
f  463//463 474//474 462//462
f  475//475 474//474 463//463
f  464//464 475//475 463//463
f  476//476 475//475 464//464
f  465//465 476//476 464//464
f  477//477 476//476 465//465
f  466//466 477//477 465//465
f  478//478 477//477 466//466
f  471//471 478//478 466//466
f  467//467 479//479 470//470
f  468//468 479//479 467//467
f  472//472 480//480 468//468
f  468//468 480//480 479//479
f  481//481 471//471 469//469
f  470//470 481//481 469//469
f  479//479 481//481 470//470
f  482//482 478//478 471//471
f  481//481 482//482 471//471
f  472//472 483//483 480//480
f  484//484 483//483 472//472
f  473//473 484//484 472//472
f  485//485 484//484 473//473
f  474//474 485//485 473//473
f  486//486 485//485 474//474
f  475//475 486//486 474//474
f  487//487 486//486 475//475
f  476//476 487//487 475//475
f  488//488 487//487 476//476
f  477//477 488//488 476//476
f  489//489 488//488 477//477
f  478//478 489//489 477//477
f  490//490 489//489 478//478
f  482//482 490//490 478//478
f  479//479 491//491 481//481
f  480//480 491//491 479//479
f  483//483 492//492 480//480
f  480//480 492//492 491//491
f  491//491 482//482 481//481
f  493//493 490//490 482//482
f  491//491 493//493 482//482
f  483//483 494//494 492//492
f  495//495 494//494 483//483
f  484//484 495//495 483//483
f  496//496 495//495 484//484
f  485//485 496//496 484//484
f  497//497 496//496 485//485
f  486//486 497//497 485//485
f  498//498 497//497 486//486
f  487//487 498//498 486//486
f  499//499 498//498 487//487
f  488//488 499//499 487//487
f  500//500 499//499 488//488
f  489//489 500//500 488//488
f  501//501 500//500 489//489
f  490//490 501//501 489//489
f  502//502 501//501 490//490
f  493//493 502//502 490//490
f  492//492 493//493 491//491
f  494//494 503//503 492//492
f  492//492 503//503 493//493
f  503//503 502//502 493//493
f  494//494 504//504 503//503
f  505//505 504//504 494//494
f  495//495 505//505 494//494
f  506//506 505//505 495//495
f  496//496 506//506 495//495
f  507//507 506//506 496//496
f  497//497 507//507 496//496
f  508//508 507//507 497//497
f  498//498 508//508 497//497
f  509//509 508//508 498//498
f  499//499 509//509 498//498
f  510//510 509//509 499//499
f  500//500 510//510 499//499
f  511//511 510//510 500//500
f  501//501 511//511 500//500
f  512//512 511//511 501//501
f  502//502 512//512 501//501
f  503//503 513//513 502//502
f  513//513 512//512 502//502
f  504//504 513//513 503//503
f  504//504 514//514 513//513
f  515//515 514//514 504//504
f  505//505 515//515 504//504
f  516//516 515//515 505//505
f  506//506 516//516 505//505
f  517//517 516//516 506//506
f  507//507 517//517 506//506
f  518//518 517//517 507//507
f  508//508 518//518 507//507
f  519//519 518//518 508//508
f  509//509 519//519 508//508
f  520//520 519//519 509//509
f  510//510 520//520 509//509
f  521//521 520//520 510//510
f  511//511 521//521 510//510
f  522//522 521//521 511//511
f  512//512 522//522 511//511
f  513//513 523//523 512//512
f  523//523 522//522 512//512
f  514//514 523//523 513//513
f  514//514 524//524 523//523
f  525//525 524//524 514//514
f  515//515 525//525 514//514
f  526//526 525//525 515//515
f  516//516 526//526 515//515
f  527//527 526//526 516//516
f  517//517 527//527 516//516
f  528//528 527//527 517//517
f  518//518 528//528 517//517
f  529//529 528//528 518//518
f  519//519 529//529 518//518
f  530//530 529//529 519//519
f  520//520 530//530 519//519
f  531//531 530//530 520//520
f  521//521 531//531 520//520
f  532//532 531//531 521//521
f  522//522 532//532 521//521
f  523//523 533//533 522//522
f  533//533 532//532 522//522
f  524//524 533//533 523//523
f  524//524 534//534 533//533
f  525//525 534//534 524//524
f  526//526 534//534 525//525
f  527//527 534//534 526//526
f  528//528 534//534 527//527
f  529//529 534//534 528//528
f  530//530 534//534 529//529
f  531//531 534//534 530//530
f  532//532 534//534 531//531
f  533//533 534//534 532//532
