# 
# Wavefront OBJ file
# Converted by the DEEP Exploration 2.00.1211
# Right Hemisphere, LTD
# http://www.righthemisphere.com/
# 
mtllib tibia_l.mtl
# object Object #0
g Object__0
v 0.01646 -0.031255 -0.009683
v 0.006 -0.02852 -0.008335
v 0.006 -0.031255 0.003181
v 0.027593 -0.03399 -0.003088
v 0.023854 -0.040317 -0.018777
v 0.030512 -0.041855 -0.003937
v -0.007977 -0.031083 -0.014009
v 0.006 -0.038777 -0.028074
v 0.027593 -0.03399 0.009449
v 0.016009 -0.034675 0.015491
v 0.006 -0.035359 0.013324
v -0.007525 -0.034503 0.019815
v -0.026973 -0.033649 0.012754
v -0.026973 -0.033649 -0.006393
v 0.030512 -0.041855 0.010298
v 0.024485 -0.052627 -0.019554
v 0.030804 -0.056559 -0.004021
v 0.030804 -0.056559 0.010382
v -0.015821 -0.046642 -0.023657
v 0.006 -0.048694 -0.029719
v 0.019165 -0.036555 0.019372
v 0.006 -0.031255 0.020178
v -0.031351 -0.054507 0.014025
v -0.011132 -0.042881 0.024252
v -0.031351 -0.054507 -0.007664
v 0.024576 -0.045959 0.026026
v 0.024937 -0.068357 -0.020108
v 0.038683 -0.068529 -0.006308
v 0.038683 -0.068529 0.012669
v 0.027371 -0.062202 0.029463
v -0.01528 -0.054165 -0.022992
v 0.006 -0.068186 -0.023687
v 0.006 -0.035359 0.036354
v -0.015371 -0.047497 0.029463
v -0.02785 -0.059636 0.013008
v -0.02785 -0.059636 -0.006647
v 0.006 -0.055875 0.03745
v 0.022682 -0.080667 -0.017336
v 0.039 -0.082205 -0.007241
v 0.039 -0.082205 0.013603
v 0.028633 -0.07058 0.031017
v 0.006 -0.058953 0.038273
v -0.011042 -0.06545 -0.01778
v 0.006 -0.079129 -0.013818
v -0.013477 -0.059294 0.027134
v -0.020554 -0.062715 0.01089
v -0.020554 -0.062715 -0.004528
v -0.011312 -0.069554 0.024473
v 0.019616 -0.117256 -0.013565
v 0.038389 -0.101014 -0.006224
v 0.038389 -0.101014 0.012585
v 0.024304 -0.084087 0.025692
v 0.006 -0.067159 0.028403
v -0.007256 -0.101014 0.019482
v -0.005362 -0.079642 -0.010793
v 0.006 -0.133499 -0.007785
v -0.012676 -0.080155 0.008602
v -0.012676 -0.080155 -0.002242
v -0.010049 -0.134867 0.007841
v 0.017092 -0.186161 -0.01046
v 0.032262 -0.137261 -0.004445
v 0.032262 -0.137261 0.010806
v 0.019797 -0.110418 0.020148
v 0.006 -0.083575 0.020452
v -0.010049 -0.169746 0.007841
v -0.004641 -0.12666 0.016267
v -0.002566 -0.134183 -0.007355
v 0.006 -0.235059 -0.005866
v -0.010049 -0.134867 -0.00148
v -0.010049 -0.169746 -0.00148
v 0.014837 -0.25455 -0.007688
v 0.024092 -0.204625 -0.002072
v 0.024092 -0.204625 0.008433
v 0.015558 -0.169404 0.014935
v 0.006 -0.134183 0.015243
v -0.001394 -0.202231 0.012274
v -0.007569 -0.220015 0.007121
v -0.005088 -0.270283 0.006401
v -0.001935 -0.202403 -0.006578
v 0.006 -0.304476 -0.006689
v -0.000673 -0.287377 -0.005027
v -0.007569 -0.220015 -0.00076
v 0.014927 -0.320036 -0.007798
v 0.019423 -0.27199 -0.000716
v 0.019423 -0.27199 0.007078
v 0.013754 -0.253356 0.012718
v 0.006 -0.234718 0.014147
v -0.002747 -0.286523 0.013938
v -0.010632 -0.33833 0.008009
v -0.005088 -0.270283 -4e-005
v -0.010632 -0.33833 -0.001648
v 0.006641 -0.368004 -0.010593
v -0.003919 -0.353205 -0.009019
v 0.018624 -0.365173 -0.012346
v 0.021174 -0.340039 -0.001225
v 0.021174 -0.340039 0.007586
v 0.014566 -0.32072 0.013717
v 0.006 -0.301399 0.01497
v -0.003198 -0.336963 0.014492
v -0.011216 -0.372526 0.008178
v -0.011216 -0.372526 -0.001817
v -0.007256 -0.381415 -0.013121
v 0.006 -0.390306 -0.020945
v 0.020879 -0.396121 -0.015118
v 0.025842 -0.386886 -0.00258
v 0.025842 -0.386886 0.008942
v 0.017812 -0.378509 0.017707
v 0.006 -0.370131 0.020452
v -0.008879 -0.388938 0.021478
v -0.012391 -0.377167 0.013907
v -0.023764 -0.407746 -0.005459
v -0.023764 -0.407746 0.011821
v -0.011944 -0.40655 -0.018889
v 0.006 -0.405352 -0.023414
v 0.020788 -0.406891 -0.015007
v 0.03197 -0.398514 -0.004361
v 0.03197 -0.398514 0.010722
v 0.022051 -0.392871 0.02292
v 0.006 -0.387229 0.02758
v -0.010321 -0.400052 0.023253
v -0.020846 -0.412876 0.010974
v -0.020846 -0.412876 -0.004614
v -0.009058 -0.414073 -0.01534
v 0.006 -0.415269 -0.01738
v 0.018263 -0.40501 -0.011902
v 0.028176 -0.406719 -0.003259
v 0.028176 -0.406719 0.00962
v 0.019616 -0.403472 0.019927
v 0.006 -0.400223 0.023742
v -0.005542 -0.40655 0.017376
v -0.009466 -0.412876 0.007671
v -0.009466 -0.412876 -0.00131
v -0.00419 -0.408089 -0.009352
v 0.006 -0.403302 -0.013269
v 0.013214 -0.404839 -0.005692
v 0.016505 -0.409115 0.000131
v 0.016505 -0.409115 0.00623
v 0.013574 -0.409115 0.012495
v 0.006 -0.409115 0.016339
v -0.00287 -0.410539 0.013503
v -0.006558 -0.412772 0.010193
v -0.006558 -0.412772 0.003417
v -0.001574 -0.410312 -0.006135
v 0.006 -0.400565 -0.008882
v 0.006 -0.403984 0.003181
# 145 verticies
vn 0.404464 0.862097 -0.305283
vn 0.099217 0.964243 -0.245748
vn 0.026104 0.982554 0.184135
vn 0.666257 0.727737 -0.162791
vn 0.655919 0.487565 -0.576239
vn 0.928679 0.264005 -0.260492
vn -0.238191 0.907388 -0.346283
vn 0.1322 0.532056 -0.836325
vn 0.4549 0.841861 0.290406
vn 0.101367 0.987396 0.12155
vn -0.013366 0.996727 -0.079732
vn -0.2256 0.833053 0.505101
vn -0.654609 0.691836 0.304713
vn -0.571044 0.758817 -0.313219
vn 0.91676 0.306946 0.255606
vn 0.700428 0.170078 -0.693163
vn 0.935156 0.312151 -0.167469
vn 0.957572 0.242035 0.156447
vn -0.484081 0.246801 -0.839497
vn 0.075449 -0.061214 -0.995269
vn 0.496504 0.774764 0.391439
vn -0.093233 0.98725 0.129014
vn -0.883328 0.013807 0.468552
vn -0.474995 0.706983 0.52398
vn -0.918853 -0.113197 -0.378015
vn 0.740111 0.338646 0.580995
vn 0.477769 -0.114858 -0.870945
vn 0.927486 0.233118 -0.292278
vn 0.910836 0.345743 0.225477
vn 0.680517 0.30911 0.66434
vn -0.470906 -0.354024 -0.808031
vn -0.135823 -0.455428 -0.879851
vn 0.072202 0.532564 0.843305
vn -0.668659 0.153829 0.727484
vn -0.496395 -0.811859 0.30737
vn -0.647343 -0.723827 -0.238794
vn -0.048333 0.091319 0.994648
vn 0.219096 -0.261758 -0.939936
vn 0.89076 -0.059736 -0.450532
vn 0.933568 -0.081727 0.348958
vn 0.491573 -0.213073 0.844367
vn 0.054849 -0.166415 0.984529
vn -0.463952 -0.636038 -0.616607
vn -0.260753 -0.360373 -0.895622
vn -0.669781 -0.25324 0.698043
vn -0.75514 -0.590407 0.284925
vn -0.636474 -0.744012 -0.203339
vn -0.758059 -0.15044 0.634598
vn 0.103936 -0.094557 -0.990079
vn 0.851904 -0.131175 -0.507004
vn 0.867304 -0.128138 0.481004
vn 0.189296 -0.309039 0.93202
vn 0.159184 -0.533822 0.830478
vn -0.205958 -0.282676 0.936843
vn -0.489348 -0.300323 -0.818746
vn -0.218429 -0.057737 -0.974143
vn -0.967219 -0.212528 0.138994
vn -0.891997 -0.252722 -0.374796
vn -0.980359 -0.05198 0.190248
vn 0.176601 -0.05533 -0.982726
vn 0.870423 -0.130823 -0.474604
vn 0.830374 -0.149859 0.536676
vn 0.116195 -0.14335 0.982827
vn 0.022469 -0.201507 0.979229
vn -0.903608 -0.055118 0.4248
vn -0.373668 -0.083955 0.923755
vn -0.362991 -0.040991 -0.930891
vn -0.105383 -0.009237 -0.994389
vn -0.890978 -0.028272 -0.453165
vn -0.937071 -0.026891 -0.348101
vn 0.336464 -0.025675 -0.941346
vn 0.919229 -0.0868 -0.384037
vn 0.863153 -0.092481 0.496401
vn 0.20893 -0.057405 0.976244
vn -0.080159 -0.045284 0.995753
vn -0.477978 -0.018952 0.878167
vn -0.953124 -0.051301 0.298198
vn -0.97393 0.004512 0.226805
vn -0.326538 -0.0104 -0.945127
vn -0.095135 0.020931 -0.995244
vn -0.502256 0.008921 -0.864673
vn -0.97057 -0.051265 -0.235299
vn 0.423345 0.057263 -0.904157
vn 0.944879 -0.009981 -0.327267
vn 0.918449 -0.023243 0.394857
vn 0.407308 -0.012506 0.913205
vn 0.027386 -0.002407 0.999622
vn -0.464014 0.014197 0.885714
vn -0.973848 0.041836 0.223314
vn -0.888188 0.028844 -0.458574
vn -0.932456 0.082399 -0.351762
vn -0.027501 0.183441 -0.982646
vn -0.334026 0.172337 -0.926675
vn 0.535773 0.187562 -0.823267
vn 0.959416 0.08154 -0.269948
vn 0.938607 0.063105 0.339169
vn 0.527979 0.052834 0.847612
vn -0.022126 0.065214 0.997626
vn -0.626742 0.114074 0.770832
vn -0.949172 0.199186 0.243715
vn -0.951784 0.171272 -0.254507
vn -0.597096 0.186992 -0.780071
vn 0.027029 0.250381 -0.96777
vn 0.62167 0.136088 -0.771367
vn 0.919977 0.296042 -0.256906
vn 0.925121 0.285011 0.250839
vn 0.620132 0.248844 0.743984
vn 0.064167 0.194546 0.978792
vn -0.533166 0.110726 0.838733
vn -0.898865 0.252107 0.358447
vn -0.928007 -0.093812 -0.360558
vn -0.935439 -0.07805 0.344764
vn -0.531355 -0.124886 -0.837894
vn 0.083928 -0.085038 -0.992837
vn 0.581419 -0.643177 -0.498271
vn 0.935469 -0.070122 -0.346383
vn 0.936736 0.050877 0.346321
vn 0.581531 0.067355 0.810731
vn 0.077078 -0.000878 0.997025
vn -0.283218 -0.286701 0.9152
vn -0.407839 -0.775996 0.481142
vn -0.408769 -0.903572 -0.128321
vn -0.124841 -0.988325 -0.087342
vn 0.108394 -0.994013 0.013751
vn -0.145477 -0.962772 0.227828
vn 0.362455 -0.925727 -0.107964
vn 0.588572 -0.774864 0.230584
vn 0.359362 -0.606154 0.709533
vn -0.013 -0.490302 0.871456
vn -0.186067 -0.635284 0.749529
vn -0.096568 -0.936812 0.33624
vn 0.059662 -0.979919 -0.190262
vn 0.382267 -0.920658 -0.079131
vn 0.051848 -0.781153 0.622183
vn -0.441272 -0.889261 -0.12039
vn -0.229562 -0.950884 -0.207656
vn -0.052202 -0.99842 -0.020809
vn 0.01598 -0.99458 0.102738
vn 0.055394 -0.949744 0.308087
vn 0.121643 -0.903569 0.410812
vn 0.121683 -0.950089 0.28727
vn 0.301556 -0.953419 -0.007455
vn 0.429648 -0.841548 -0.327413
vn 0.196464 -0.97749 -0.076907
vn 0.092848 -0.978055 -0.186512
# 145 normals
usemtl Material__1
f  1//1 2//2 3//3
f  4//4 1//1 3//3
f  1//1 5//5 2//2
f  6//6 5//5 1//1
f  4//4 6//6 1//1
f  2//2 7//7 3//3
f  5//5 8//8 2//2
f  2//2 8//8 7//7
f  9//9 4//4 3//3
f  10//10 9//9 3//3
f  11//11 10//10 3//3
f  12//12 11//11 3//3
f  13//13 12//12 3//3
f  14//14 13//13 3//3
f  7//7 14//14 3//3
f  15//15 6//6 4//4
f  9//9 15//15 4//4
f  5//5 16//16 8//8
f  17//17 16//16 5//5
f  6//6 17//17 5//5
f  18//18 17//17 6//6
f  15//15 18//18 6//6
f  7//7 19//19 14//14
f  8//8 19//19 7//7
f  16//16 20//20 8//8
f  8//8 20//20 19//19
f  21//21 15//15 9//9
f  10//10 21//21 9//9
f  22//22 21//21 10//10
f  11//11 22//22 10//10
f  11//11 12//12 22//22
f  23//23 24//24 12//12
f  13//13 23//23 12//12
f  12//12 24//24 22//22
f  25//25 23//23 13//13
f  14//14 25//25 13//13
f  19//19 25//25 14//14
f  26//26 18//18 15//15
f  21//21 26//26 15//15
f  16//16 27//27 20//20
f  28//28 27//27 16//16
f  17//17 28//28 16//16
f  29//29 28//28 17//17
f  18//18 29//29 17//17
f  30//30 29//29 18//18
f  26//26 30//30 18//18
f  19//19 31//31 25//25
f  20//20 31//31 19//19
f  27//27 32//32 20//20
f  20//20 32//32 31//31
f  33//33 26//26 21//21
f  22//22 33//33 21//21
f  34//34 33//33 22//22
f  24//24 34//34 22//22
f  23//23 34//34 24//24
f  23//23 35//35 34//34
f  36//36 35//35 23//23
f  25//25 36//36 23//23
f  31//31 36//36 25//25
f  37//37 30//30 26//26
f  33//33 37//37 26//26
f  27//27 38//38 32//32
f  27//27 39//39 38//38
f  28//28 39//39 27//27
f  28//28 40//40 39//39
f  29//29 40//40 28//28
f  29//29 41//41 40//40
f  30//30 41//41 29//29
f  42//42 41//41 30//30
f  37//37 42//42 30//30
f  31//31 43//43 36//36
f  32//32 43//43 31//31
f  38//38 44//44 32//32
f  32//32 44//44 43//43
f  45//45 37//37 33//33
f  34//34 45//45 33//33
f  46//46 45//45 34//34
f  35//35 46//46 34//34
f  47//47 46//46 35//35
f  36//36 47//47 35//35
f  43//43 47//47 36//36
f  48//48 42//42 37//37
f  45//45 48//48 37//37
f  38//38 49//49 44//44
f  38//38 50//50 49//49
f  39//39 50//50 38//38
f  39//39 51//51 50//50
f  40//40 51//51 39//39
f  40//40 52//52 51//51
f  41//41 52//52 40//40
f  53//53 52//52 41//41
f  42//42 53//53 41//41
f  54//54 53//53 42//42
f  48//48 54//54 42//42
f  43//43 55//55 47//47
f  44//44 55//55 43//43
f  49//49 56//56 44//44
f  44//44 56//56 55//55
f  57//57 48//48 45//45
f  46//46 57//57 45//45
f  58//58 57//57 46//46
f  47//47 58//58 46//46
f  55//55 58//58 47//47
f  59//59 54//54 48//48
f  57//57 59//59 48//48
f  49//49 60//60 56//56
f  61//61 60//60 49//49
f  50//50 61//61 49//49
f  62//62 61//61 50//50
f  51//51 62//62 50//50
f  63//63 62//62 51//51
f  52//52 63//63 51//51
f  64//64 63//63 52//52
f  53//53 64//64 52//52
f  64//64 53//53 54//54
f  65//65 66//66 54//54
f  59//59 65//65 54//54
f  66//66 64//64 54//54
f  55//55 67//67 58//58
f  56//56 67//67 55//55
f  60//60 68//68 56//56
f  56//56 68//68 67//67
f  69//69 59//59 57//57
f  58//58 69//69 57//57
f  67//67 69//69 58//58
f  70//70 65//65 59//59
f  69//69 70//70 59//59
f  60//60 71//71 68//68
f  72//72 71//71 60//60
f  61//61 72//72 60//60
f  73//73 72//72 61//61
f  62//62 73//73 61//61
f  74//74 73//73 62//62
f  63//63 74//74 62//62
f  75//75 74//74 63//63
f  64//64 75//75 63//63
f  76//76 75//75 64//64
f  66//66 76//76 64//64
f  66//66 65//65 77//77
f  77//77 65//65 70//70
f  78//78 76//76 66//66
f  66//66 77//77 78//78
f  67//67 79//79 69//69
f  68//68 79//79 67//67
f  71//71 80//80 68//68
f  68//68 80//80 79//79
f  79//79 70//70 69//69
f  81//81 82//82 70//70
f  79//79 81//81 70//70
f  82//82 77//77 70//70
f  71//71 83//83 80//80
f  84//84 83//83 71//71
f  72//72 84//84 71//71
f  85//85 84//84 72//72
f  73//73 85//85 72//72
f  86//86 85//85 73//73
f  74//74 86//86 73//73
f  87//87 86//86 74//74
f  75//75 87//87 74//74
f  88//88 87//87 75//75
f  76//76 88//88 75//75
f  89//89 88//88 76//76
f  78//78 89//89 76//76
f  78//78 77//77 82//82
f  90//90 78//78 82//82
f  91//91 89//89 78//78
f  90//90 91//91 78//78
f  80//80 81//81 79//79
f  83//83 92//92 80//80
f  80//80 92//92 81//81
f  81//81 90//90 82//82
f  81//81 93//93 90//90
f  92//92 93//93 81//81
f  83//83 94//94 92//92
f  95//95 94//94 83//83
f  84//84 95//95 83//83
f  96//96 95//95 84//84
f  85//85 96//96 84//84
f  97//97 96//96 85//85
f  86//86 97//97 85//85
f  98//98 97//97 86//86
f  87//87 98//98 86//86
f  99//99 98//98 87//87
f  88//88 99//99 87//87
f  100//100 99//99 88//88
f  89//89 100//100 88//88
f  101//101 100//100 89//89
f  91//91 101//101 89//89
f  93//93 91//91 90//90
f  102//102 101//101 91//91
f  93//93 102//102 91//91
f  94//94 103//103 92//92
f  92//92 103//103 93//93
f  103//103 102//102 93//93
f  94//94 104//104 103//103
f  105//105 104//104 94//94
f  95//95 105//105 94//94
f  106//106 105//105 95//95
f  96//96 106//106 95//95
f  107//107 106//106 96//96
f  97//97 107//107 96//96
f  108//108 107//107 97//97
f  98//98 108//108 97//97
f  109//109 108//108 98//98
f  99//99 109//109 98//98
f  110//110 99//99 100//100
f  99//99 110//110 109//109
f  111//111 112//112 100//100
f  101//101 111//111 100//100
f  110//110 100//100 112//112
f  113//113 111//111 101//101
f  102//102 113//113 101//101
f  103//103 114//114 102//102
f  114//114 113//113 102//102
f  104//104 114//114 103//103
f  104//104 115//115 114//114
f  116//116 115//115 104//104
f  105//105 116//116 104//104
f  117//117 116//116 105//105
f  106//106 117//117 105//105
f  118//118 117//117 106//106
f  107//107 118//118 106//106
f  119//119 118//118 107//107
f  108//108 119//119 107//107
f  120//120 119//119 108//108
f  109//109 120//120 108//108
f  121//121 120//120 109//109
f  112//112 121//121 109//109
f  110//110 112//112 109//109
f  111//111 122//122 112//112
f  123//123 122//122 111//111
f  113//113 123//123 111//111
f  122//122 121//121 112//112
f  114//114 124//124 113//113
f  124//124 123//123 113//113
f  115//115 124//124 114//114
f  115//115 125//125 124//124
f  126//126 125//125 115//115
f  116//116 126//126 115//115
f  127//127 126//126 116//116
f  117//117 127//127 116//116
f  128//128 127//127 117//117
f  118//118 128//128 117//117
f  129//129 128//128 118//118
f  119//119 129//129 118//118
f  130//130 129//129 119//119
f  120//120 130//130 119//119
f  131//131 130//130 120//120
f  121//121 131//131 120//120
f  132//132 131//131 121//121
f  122//122 132//132 121//121
f  133//133 132//132 122//122
f  123//123 133//133 122//122
f  124//124 134//134 123//123
f  134//134 133//133 123//123
f  125//125 134//134 124//124
f  125//125 135//135 134//134
f  136//136 135//135 125//125
f  126//126 136//136 125//125
f  137//137 136//136 126//126
f  127//127 137//137 126//126
f  138//138 137//137 127//127
f  128//128 138//138 127//127
f  139//139 138//138 128//128
f  129//129 139//139 128//128
f  140//140 139//139 129//129
f  130//130 140//140 129//129
f  141//141 140//140 130//130
f  131//131 141//141 130//130
f  142//142 141//141 131//131
f  132//132 142//142 131//131
f  143//143 142//142 132//132
f  133//133 143//143 132//132
f  134//134 144//144 133//133
f  144//144 143//143 133//133
f  135//135 144//144 134//134
f  135//135 145//145 144//144
f  136//136 145//145 135//135
f  137//137 145//145 136//136
f  138//138 145//145 137//137
f  139//139 145//145 138//138
f  140//140 145//145 139//139
f  141//141 145//145 140//140
f  142//142 145//145 141//141
f  143//143 145//145 142//142
f  144//144 145//145 143//143
