#VRML V2.0 utf8
Transform {
children [
Shape {
appearance Appearance {
              material DEF surface Material {
              diffuseColor 0.8 0.8 0.8
              ambientIntensity 0.2
              specularColor 0.4 0.4 0.4
              emissiveColor 0 0 0
              shininess 0.25
              transparency 0
            }
          }
geometry IndexedFaceSet {
solid FALSE
coord DEF bone Coordinate {
point [
  0.003007	  0.000471	 -0.007115,
  0.002000	 -0.002054	 -0.006929,
  0.002869	 -0.003194	 -0.009323,
  0.003297	 -0.002310	 -0.009568,
 -0.003988	  0.002213	 -0.007834,
  0.003648	 -0.000546	 -0.010134,
 -0.005764	  0.002535	 -0.011056,
  0.002307	 -0.004833	 -0.009648,
  0.001063	 -0.007144	 -0.008105,
 -0.008883	 -0.001090	 -0.006264,
  0.002549	 -0.004326	 -0.010817,
  0.003131	 -0.002449	 -0.010663,
 -0.010397	 -0.000854	 -0.009630,
 -0.009193	  0.000105	 -0.012535,
  0.004098	 -0.001648	 -0.013628,
 -0.007600	  0.001595	 -0.016504,
 -0.008843	  0.000258	 -0.014418,
  0.002358	 -0.005802	 -0.011012,
 -0.011355	 -0.007410	 -0.006465,
  0.001211	 -0.008100	 -0.010823,
 -0.011142	 -0.002261	 -0.009408,
  0.002035	 -0.005716	 -0.011847,
  0.002535	 -0.004451	 -0.011806,
  0.001860	 -0.005851	 -0.012673,
 -0.010877	 -0.002469	 -0.012014,
 -0.001369	 -0.006993	 -0.015889,
 -0.008805	 -0.003030	 -0.017973,
 -0.010560	 -0.003069	 -0.015365,
 -0.012819	 -0.008144	 -0.011194,
 -0.012044	 -0.004417	 -0.009479,
 -0.000053	 -0.008332	 -0.013627,
 -0.012928	 -0.005354	 -0.011451,
 -0.011904	 -0.004161	 -0.013830,
 -0.011930	 -0.007091	 -0.014933,
]
}
coordIndex [
   0,	   1,	   2, -1
   3,	   0,	   2, -1
   0,	   4,	   1, -1
   5,	   0,	   3, -1
   6,	   4,	   0, -1
   5,	   6,	   0, -1
   2,	   1,	   7, -1
   1,	   8,	   7, -1
   1,	   9,	   8, -1
   4,	   9,	   1, -1
   2,	   7,	  10, -1
   3,	   2,	  10, -1
  11,	   5,	   3, -1
  11,	   3,	  10, -1
   4,	  12,	   9, -1
  13,	  12,	   4, -1
   6,	  13,	   4, -1
  14,	   5,	  11, -1
  15,	   6,	   5, -1
  14,	  15,	   5, -1
  16,	  13,	   6, -1
  15,	  16,	   6, -1
   7,	   8,	  17, -1
   7,	  17,	  10, -1
   9,	  18,	   8, -1
   8,	  19,	  17, -1
   8,	  18,	  19, -1
   9,	  20,	  18, -1
  12,	  20,	   9, -1
  17,	  21,	  10, -1
  22,	  11,	  10, -1
  23,	  22,	  10, -1
  21,	  23,	  10, -1
  22,	  14,	  11, -1
  24,	  20,	  12, -1
  24,	  12,	  13, -1
  24,	  13,	  16, -1
  25,	  14,	  22, -1
  26,	  15,	  14, -1
  25,	  26,	  14, -1
  27,	  16,	  15, -1
  26,	  27,	  15, -1
  24,	  16,	  27, -1
  17,	  19,	  21, -1
  18,	  28,	  19, -1
  18,	  29,	  28, -1
  20,	  29,	  18, -1
  19,	  30,	  21, -1
  19,	  28,	  30, -1
  24,	  29,	  20, -1
  21,	  30,	  23, -1
  23,	  25,	  22, -1
  30,	  25,	  23, -1
  24,	  31,	  29, -1
  24,	  32,	  31, -1
  24,	  27,	  32, -1
  30,	  33,	  25, -1
  33,	  26,	  25, -1
  32,	  27,	  26, -1
  33,	  32,	  26, -1
  28,	  33,	  30, -1
  29,	  31,	  28, -1
  28,	  31,	  33, -1
  31,	  32,	  33, -1
]
colorPerVertex FALSE
colorIndex [
1,
1,
1,
1,
1,
1,
1,
1,
1,
1,
1,
1,
1,
1,
1,
1,
1,
1,
1,
1,
1,
1,
1,
1,
1,
1,
1,
1,
1,
1,
1,
1,
1,
1,
]
normal Normal {
vector [
  0.814935	  0.330942	  0.475771,
  0.521878	 -0.146017	  0.840430,
  0.885588	 -0.347159	  0.308567,
  0.954789	 -0.273635	  0.116200,
 -0.273067	  0.782424	  0.559684,
  0.873723	  0.477245	 -0.094049,
 -0.189538	  0.981765	 -0.014611,
  0.922374	 -0.286963	  0.258608,
  0.607593	 -0.465288	  0.643690,
 -0.387391	  0.344315	  0.855205,
  0.958082	 -0.284483	 -0.033875,
  0.951545	 -0.304587	  0.042287,
 -0.732906	  0.673210	  0.098169,
 -0.700519	  0.712514	  0.039961,
  0.862890	 -0.020245	 -0.504985,
 -0.306406	  0.829111	 -0.467644,
 -0.771031	  0.630972	 -0.085940,
  0.954991	 -0.295315	 -0.027935,
 -0.617686	 -0.340794	  0.708748,
  0.524624	 -0.851236	  0.012963,
 -0.883107	  0.406598	  0.234095,
  0.892150	 -0.363223	 -0.268584,
  0.917609	 -0.358432	 -0.171816,
  0.885286	 -0.323439	 -0.334150,
 -0.843644	  0.525287	 -0.111080,
  0.462523	 -0.428277	 -0.776306,
 -0.394115	  0.117446	 -0.911526,
 -0.826175	  0.457730	 -0.328511,
 -0.700550	 -0.707151	  0.095751,
 -0.926353	  0.287649	  0.243162,
  0.447311	 -0.826677	 -0.341347,
 -0.962922	  0.267569	 -0.034457,
 -0.858101	  0.375896	 -0.349806,
 -0.641810	 -0.467686	 -0.607741,
]
}
normalIndex [
   0,	   1,	   2, -1
   3,	   0,	   2, -1
   0,	   4,	   1, -1
   5,	   0,	   3, -1
   6,	   4,	   0, -1
   5,	   6,	   0, -1
   2,	   1,	   7, -1
   1,	   8,	   7, -1
   1,	   9,	   8, -1
   4,	   9,	   1, -1
   2,	   7,	  10, -1
   3,	   2,	  10, -1
  11,	   5,	   3, -1
  11,	   3,	  10, -1
   4,	  12,	   9, -1
  13,	  12,	   4, -1
   6,	  13,	   4, -1
  14,	   5,	  11, -1
  15,	   6,	   5, -1
  14,	  15,	   5, -1
  16,	  13,	   6, -1
  15,	  16,	   6, -1
   7,	   8,	  17, -1
   7,	  17,	  10, -1
   9,	  18,	   8, -1
   8,	  19,	  17, -1
   8,	  18,	  19, -1
   9,	  20,	  18, -1
  12,	  20,	   9, -1
  17,	  21,	  10, -1
  22,	  11,	  10, -1
  23,	  22,	  10, -1
  21,	  23,	  10, -1
  22,	  14,	  11, -1
  24,	  20,	  12, -1
  24,	  12,	  13, -1
  24,	  13,	  16, -1
  25,	  14,	  22, -1
  26,	  15,	  14, -1
  25,	  26,	  14, -1
  27,	  16,	  15, -1
  26,	  27,	  15, -1
  24,	  16,	  27, -1
  17,	  19,	  21, -1
  18,	  28,	  19, -1
  18,	  29,	  28, -1
  20,	  29,	  18, -1
  19,	  30,	  21, -1
  19,	  28,	  30, -1
  24,	  29,	  20, -1
  21,	  30,	  23, -1
  23,	  25,	  22, -1
  30,	  25,	  23, -1
  24,	  31,	  29, -1
  24,	  32,	  31, -1
  24,	  27,	  32, -1
  30,	  33,	  25, -1
  33,	  26,	  25, -1
  32,	  27,	  26, -1
  33,	  32,	  26, -1
  28,	  33,	  30, -1
  29,	  31,	  28, -1
  28,	  31,	  33, -1
  31,	  32,	  33, -1
]
normalPerVertex TRUE
}
}
]
}
