# 
# Wavefront OBJ file
# Converted by the DEEP Exploration 2.00.1211
# Right Hemisphere, LTD
# http://www.righthemisphere.com/
# 
mtllib trapezium_r.mtl
# object Object #0
g Object__0
v 0.008651 -0.003654 0.013486
v 0.003194 -0.004816 0.014902
v 0.004714 -0.002639 0.013221
v 0.008519 -0.002234 0.012494
v 0.007812 -0.004233 0.013966
v 0.009526 -0.000886 0.01309
v 0.003378 -0.005259 0.015955
v -0.001586 -0.010303 0.018955
v 0.001598 -0.005798 0.013862
v 0.005228 0.000989 0.012478
v 0.002565 0.000164 0.009697
v 0.008777 0.00067 0.011485
v 0.009424 -0.004055 0.01438
v 0.010129 0.003693 0.011317
v 0.011108 0.004234 0.012773
v 0.010921 0.000117 0.013682
v 0.010394 -0.00251 0.014217
v -0.000443 -0.010596 0.021722
v 0.007036 -0.005017 0.015536
v -0.007378 -0.007607 0.022133
v -0.008734 -0.003699 0.019655
v -0.004564 0.002543 0.016396
v 0.007573 0.004745 0.01152
v 0.007175 0.006446 0.012876
v 0.001211 0.006414 0.017896
v 0.010631 0.005947 0.013874
v 0.010505 0.001622 0.015874
v 0.009455 -0.002457 0.0173
v 0.005947 -0.006116 0.016316
v -0.003445 -0.008625 0.023809
v -0.00605 -0.002591 0.022948
v -0.006303 -0.000753 0.021163
v -0.004049 0.001432 0.019848
v -0.001079 0.003642 0.020304
v 0.008431 0.006728 0.016217
v 0.002958 0.007761 0.020606
v -1.4e-005 0.005553 0.02014
v 0.009778 0.002816 0.017275
v 0.009301 -0.00021 0.022569
v 0.001263 -0.003095 0.023733
v -0.004316 -0.001649 0.023102
v -0.002407 0.001262 0.021798
v 0.002356 0.006147 0.023485
v 0.000284 0.003298 0.022451
v 0.005603 0.003526 0.024965
v -0.001496 0.000393 0.022467
v 0.001367 0.002032 0.023759
# 47 verticies
vn 0.316139 -0.651947 -0.689218
vn 0.298793 -0.774541 -0.557502
vn 0.272832 -0.52959 -0.803179
vn 0.221933 -0.381047 -0.897524
vn 0.264364 -0.86244 -0.431636
vn 0.699084 -0.327982 -0.635382
vn 0.215297 -0.857637 -0.467018
vn 0.050278 -0.882167 -0.468246
vn -0.004247 -0.637336 -0.770574
vn 0.002384 -0.143363 -0.989667
vn 0.098744 0.009279 -0.99507
vn 0.179538 -0.231876 -0.956033
vn 0.381921 -0.775465 -0.502783
vn 0.550916 0.147954 -0.821341
vn 0.936894 0.034749 -0.347882
vn 0.9588 -0.185569 -0.215099
vn 0.866847 -0.491218 -0.08533
vn -0.109733 -0.981016 -0.159892
vn 0.33463 -0.896154 -0.291429
vn -0.782748 -0.470625 0.407207
vn -0.940557 0.092249 -0.326869
vn -0.788778 0.554499 -0.265255
vn -0.026188 0.505273 -0.862562
vn 0.040032 0.770068 -0.636704
vn -0.562875 0.781711 -0.268515
vn 0.762863 0.637971 -0.105042
vn 0.968648 0.026566 0.247013
vn 0.858823 -0.463438 0.218286
vn 0.614424 -0.645876 0.45313
vn 0.050079 -0.247647 0.967555
vn -0.500727 0.312119 0.807375
vn -0.71393 0.537057 0.449303
vn -0.632447 0.71115 0.307043
vn -0.735957 0.651285 0.184921
vn 0.575101 0.800502 0.168687
vn -0.324078 0.930462 0.170923
vn -0.749135 0.629894 0.205013
vn 0.797359 0.443456 0.409348
vn 0.816441 -0.251649 0.519709
vn 0.147637 -0.224111 0.963316
vn -0.161778 0.32273 0.932563
vn -0.520263 0.551404 0.652135
vn -0.005681 0.664527 0.747243
vn -0.638235 0.475724 0.605262
vn 0.205404 0.136835 0.969064
vn -0.227845 0.094733 0.969078
vn -0.426438 0.063732 0.902269
# 47 normals
usemtl Material__1
f  1//1 2//2 3//3
f  1//1 3//3 4//4
f  5//5 2//2 1//1
f  6//6 1//1 4//4
f  6//6 5//5 1//1
f  5//5 7//7 2//2
f  2//2 8//8 9//9
f  2//2 9//9 3//3
f  7//7 8//8 2//2
f  4//4 3//3 10//10
f  3//3 9//9 11//11
f  3//3 11//11 10//10
f  4//4 10//10 12//12
f  6//6 4//4 12//12
f  13//13 7//7 5//5
f  6//6 13//13 5//5
f  6//6 12//12 14//14
f  6//6 14//14 15//15
f  6//6 15//15 16//16
f  6//6 16//16 17//17
f  6//6 17//17 13//13
f  7//7 18//18 8//8
f  13//13 19//19 7//7
f  19//19 18//18 7//7
f  8//8 20//20 21//21
f  8//8 21//21 9//9
f  18//18 20//20 8//8
f  9//9 21//21 22//22
f  9//9 22//22 11//11
f  12//12 10//10 23//23
f  10//10 11//11 24//24
f  10//10 24//24 23//23
f  11//11 22//22 25//25
f  11//11 25//25 24//24
f  12//12 23//23 14//14
f  17//17 19//19 13//13
f  14//14 23//23 26//26
f  14//14 26//26 15//15
f  15//15 26//26 27//27
f  15//15 27//27 16//16
f  16//16 27//27 28//28
f  16//16 28//28 17//17
f  17//17 28//28 19//19
f  19//19 29//29 18//18
f  18//18 30//30 20//20
f  29//29 30//30 18//18
f  28//28 29//29 19//19
f  20//20 31//31 32//32
f  20//20 32//32 21//21
f  30//30 31//31 20//20
f  21//21 32//32 33//33
f  21//21 33//33 22//22
f  22//22 33//33 34//34
f  22//22 34//34 25//25
f  23//23 24//24 35//35
f  23//23 35//35 26//26
f  24//24 25//25 36//36
f  24//24 36//36 35//35
f  25//25 34//34 37//37
f  25//25 37//37 36//36
f  26//26 35//35 38//38
f  26//26 38//38 27//27
f  27//27 38//38 39//39
f  27//27 39//39 28//28
f  28//28 39//39 29//29
f  29//29 40//40 30//30
f  39//39 40//40 29//29
f  30//30 41//41 31//31
f  40//40 41//41 30//30
f  32//32 31//31 42//42
f  31//31 41//41 42//42
f  33//33 32//32 42//42
f  34//34 33//33 42//42
f  37//37 34//34 42//42
f  35//35 36//36 43//43
f  35//35 43//43 38//38
f  36//36 37//37 44//44
f  36//36 44//44 43//43
f  44//44 37//37 42//42
f  38//38 43//43 45//45
f  38//38 45//45 39//39
f  39//39 45//45 40//40
f  40//40 46//46 41//41
f  45//45 46//46 40//40
f  41//41 46//46 42//42
f  46//46 47//47 42//42
f  47//47 44//44 42//42
f  43//43 44//44 47//47
f  43//43 47//47 45//45
f  45//45 47//47 46//46
