#VRML V2.0 utf8
Transform {
children [
Shape {
appearance Appearance {
              material DEF surface Material {
              diffuseColor 0.8 0.8 0.8
              ambientIntensity 0.2
              specularColor 0.4 0.4 0.4
              emissiveColor 0 0 0
              shininess 0.25
              transparency 0
            }
          }
geometry IndexedFaceSet {
solid FALSE
coord DEF bone Coordinate {
point [
  0.004714	 -0.002639	 -0.013221,
  0.003194	 -0.004816	 -0.014902,
  0.008651	 -0.003654	 -0.013486,
  0.008519	 -0.002234	 -0.012494,
  0.001598	 -0.005798	 -0.013862,
  0.005228	  0.000989	 -0.012478,
  0.002565	  0.000164	 -0.009697,
  0.007812	 -0.004233	 -0.013966,
  0.003378	 -0.005259	 -0.015955,
 -0.001586	 -0.010303	 -0.018955,
  0.009526	 -0.000886	 -0.013090,
  0.008777	  0.000670	 -0.011485,
 -0.008734	 -0.003699	 -0.019655,
 -0.004564	  0.002543	 -0.016396,
  0.007573	  0.004745	 -0.011520,
  0.007175	  0.006446	 -0.012876,
  0.001211	  0.006414	 -0.017896,
  0.009424	 -0.004055	 -0.014380,
 -0.000443	 -0.010596	 -0.021722,
  0.007036	 -0.005017	 -0.015536,
 -0.007378	 -0.007607	 -0.022133,
  0.010129	  0.003693	 -0.011317,
  0.011108	  0.004234	 -0.012773,
  0.010921	  0.000117	 -0.013682,
  0.010394	 -0.002510	 -0.014217,
 -0.006303	 -0.000753	 -0.021163,
 -0.004049	  0.001432	 -0.019848,
 -0.001079	  0.003642	 -0.020304,
  0.010631	  0.005947	 -0.013874,
  0.008431	  0.006728	 -0.016217,
  0.002958	  0.007761	 -0.020606,
 -0.000014	  0.005553	 -0.020140,
  0.005947	 -0.006116	 -0.016316,
 -0.003445	 -0.008625	 -0.023809,
  0.009455	 -0.002457	 -0.017300,
 -0.006050	 -0.002591	 -0.022948,
  0.010505	  0.001622	 -0.015874,
 -0.002407	  0.001262	 -0.021798,
  0.009778	  0.002816	 -0.017275,
  0.002356	  0.006147	 -0.023485,
  0.000284	  0.003298	 -0.022451,
  0.009301	 -0.000210	 -0.022569,
  0.001263	 -0.003095	 -0.023733,
 -0.004316	 -0.001649	 -0.023102,
 -0.001496	  0.000393	 -0.022467,
  0.001367	  0.002032	 -0.023759,
  0.005603	  0.003526	 -0.024965,
]
}
coordIndex [
   0,	   1,	   2, -1
   3,	   0,	   2, -1
   0,	   4,	   1, -1
   5,	   0,	   3, -1
   6,	   4,	   0, -1
   5,	   6,	   0, -1
   2,	   1,	   7, -1
   1,	   8,	   7, -1
   4,	   9,	   1, -1
   1,	   9,	   8, -1
   3,	   2,	  10, -1
   2,	   7,	  10, -1
  11,	   5,	   3, -1
  11,	   3,	  10, -1
   4,	  12,	   9, -1
  13,	  12,	   4, -1
   6,	  13,	   4, -1
  14,	   5,	  11, -1
  15,	   6,	   5, -1
  14,	  15,	   5, -1
  16,	  13,	   6, -1
  15,	  16,	   6, -1
   7,	   8,	  17, -1
   7,	  17,	  10, -1
   9,	  18,	   8, -1
   8,	  19,	  17, -1
   8,	  18,	  19, -1
  12,	  20,	   9, -1
   9,	  20,	  18, -1
  21,	  11,	  10, -1
  22,	  21,	  10, -1
  23,	  22,	  10, -1
  24,	  23,	  10, -1
  17,	  24,	  10, -1
  21,	  14,	  11, -1
  12,	  25,	  20, -1
  26,	  25,	  12, -1
  13,	  26,	  12, -1
  27,	  26,	  13, -1
  16,	  27,	  13, -1
  28,	  14,	  21, -1
  29,	  15,	  14, -1
  28,	  29,	  14, -1
  30,	  16,	  15, -1
  29,	  30,	  15, -1
  31,	  27,	  16, -1
  30,	  31,	  16, -1
  17,	  19,	  24, -1
  18,	  32,	  19, -1
  20,	  33,	  18, -1
  18,	  33,	  32, -1
  19,	  34,	  24, -1
  19,	  32,	  34, -1
  25,	  35,	  20, -1
  20,	  35,	  33, -1
  22,	  28,	  21, -1
  36,	  28,	  22, -1
  23,	  36,	  22, -1
  34,	  36,	  23, -1
  24,	  34,	  23, -1
  37,	  35,	  25, -1
  37,	  25,	  26, -1
  37,	  26,	  27, -1
  37,	  27,	  31, -1
  38,	  29,	  28, -1
  36,	  38,	  28, -1
  39,	  30,	  29, -1
  38,	  39,	  29, -1
  40,	  31,	  30, -1
  39,	  40,	  30, -1
  37,	  31,	  40, -1
  32,	  41,	  34, -1
  33,	  42,	  32, -1
  32,	  42,	  41, -1
  35,	  43,	  33, -1
  33,	  43,	  42, -1
  34,	  41,	  36, -1
  37,	  43,	  35, -1
  41,	  38,	  36, -1
  37,	  44,	  43, -1
  37,	  45,	  44, -1
  37,	  40,	  45, -1
  46,	  39,	  38, -1
  41,	  46,	  38, -1
  45,	  40,	  39, -1
  46,	  45,	  39, -1
  42,	  46,	  41, -1
  43,	  44,	  42, -1
  42,	  44,	  46, -1
  44,	  45,	  46, -1
]
colorPerVertex FALSE
colorIndex [
1,
1,
1,
1,
1,
1,
1,
1,
1,
1,
1,
1,
1,
1,
1,
1,
1,
1,
1,
1,
1,
1,
1,
1,
1,
1,
1,
1,
1,
1,
1,
1,
1,
1,
1,
1,
1,
1,
1,
1,
1,
1,
1,
1,
1,
1,
1,
]
normal Normal {
vector [
  0.272832	 -0.529590	  0.803179,
  0.298793	 -0.774541	  0.557502,
  0.316139	 -0.651947	  0.689218,
  0.221933	 -0.381047	  0.897524,
 -0.004247	 -0.637336	  0.770574,
  0.002384	 -0.143363	  0.989667,
  0.098744	  0.009279	  0.995070,
  0.264364	 -0.862440	  0.431636,
  0.215297	 -0.857637	  0.467018,
  0.050278	 -0.882167	  0.468246,
  0.699084	 -0.327982	  0.635382,
  0.179538	 -0.231876	  0.956033,
 -0.940557	  0.092249	  0.326869,
 -0.788778	  0.554499	  0.265255,
 -0.026188	  0.505273	  0.862562,
  0.040032	  0.770068	  0.636704,
 -0.562875	  0.781711	  0.268515,
  0.381921	 -0.775465	  0.502783,
 -0.109733	 -0.981016	  0.159892,
  0.334630	 -0.896154	  0.291429,
 -0.782748	 -0.470625	 -0.407207,
  0.550916	  0.147954	  0.821341,
  0.936894	  0.034749	  0.347882,
  0.958800	 -0.185569	  0.215099,
  0.866847	 -0.491218	  0.085330,
 -0.713930	  0.537057	 -0.449303,
 -0.632447	  0.711150	 -0.307043,
 -0.735957	  0.651285	 -0.184921,
  0.762863	  0.637971	  0.105042,
  0.575101	  0.800502	 -0.168687,
 -0.324078	  0.930462	 -0.170923,
 -0.749135	  0.629894	 -0.205013,
  0.614424	 -0.645876	 -0.453130,
  0.050079	 -0.247647	 -0.967555,
  0.858823	 -0.463438	 -0.218286,
 -0.500727	  0.312119	 -0.807375,
  0.968648	  0.026566	 -0.247013,
 -0.520263	  0.551404	 -0.652135,
  0.797359	  0.443456	 -0.409348,
 -0.005681	  0.664527	 -0.747243,
 -0.638235	  0.475724	 -0.605262,
  0.816441	 -0.251649	 -0.519709,
  0.147637	 -0.224111	 -0.963316,
 -0.161778	  0.322730	 -0.932562,
 -0.227845	  0.094733	 -0.969078,
 -0.426438	  0.063732	 -0.902269,
  0.205404	  0.136835	 -0.969064,
]
}
normalIndex [
   0,	   1,	   2, -1
   3,	   0,	   2, -1
   0,	   4,	   1, -1
   5,	   0,	   3, -1
   6,	   4,	   0, -1
   5,	   6,	   0, -1
   2,	   1,	   7, -1
   1,	   8,	   7, -1
   4,	   9,	   1, -1
   1,	   9,	   8, -1
   3,	   2,	  10, -1
   2,	   7,	  10, -1
  11,	   5,	   3, -1
  11,	   3,	  10, -1
   4,	  12,	   9, -1
  13,	  12,	   4, -1
   6,	  13,	   4, -1
  14,	   5,	  11, -1
  15,	   6,	   5, -1
  14,	  15,	   5, -1
  16,	  13,	   6, -1
  15,	  16,	   6, -1
   7,	   8,	  17, -1
   7,	  17,	  10, -1
   9,	  18,	   8, -1
   8,	  19,	  17, -1
   8,	  18,	  19, -1
  12,	  20,	   9, -1
   9,	  20,	  18, -1
  21,	  11,	  10, -1
  22,	  21,	  10, -1
  23,	  22,	  10, -1
  24,	  23,	  10, -1
  17,	  24,	  10, -1
  21,	  14,	  11, -1
  12,	  25,	  20, -1
  26,	  25,	  12, -1
  13,	  26,	  12, -1
  27,	  26,	  13, -1
  16,	  27,	  13, -1
  28,	  14,	  21, -1
  29,	  15,	  14, -1
  28,	  29,	  14, -1
  30,	  16,	  15, -1
  29,	  30,	  15, -1
  31,	  27,	  16, -1
  30,	  31,	  16, -1
  17,	  19,	  24, -1
  18,	  32,	  19, -1
  20,	  33,	  18, -1
  18,	  33,	  32, -1
  19,	  34,	  24, -1
  19,	  32,	  34, -1
  25,	  35,	  20, -1
  20,	  35,	  33, -1
  22,	  28,	  21, -1
  36,	  28,	  22, -1
  23,	  36,	  22, -1
  34,	  36,	  23, -1
  24,	  34,	  23, -1
  37,	  35,	  25, -1
  37,	  25,	  26, -1
  37,	  26,	  27, -1
  37,	  27,	  31, -1
  38,	  29,	  28, -1
  36,	  38,	  28, -1
  39,	  30,	  29, -1
  38,	  39,	  29, -1
  40,	  31,	  30, -1
  39,	  40,	  30, -1
  37,	  31,	  40, -1
  32,	  41,	  34, -1
  33,	  42,	  32, -1
  32,	  42,	  41, -1
  35,	  43,	  33, -1
  33,	  43,	  42, -1
  34,	  41,	  36, -1
  37,	  43,	  35, -1
  41,	  38,	  36, -1
  37,	  44,	  43, -1
  37,	  45,	  44, -1
  37,	  40,	  45, -1
  46,	  39,	  38, -1
  41,	  46,	  38, -1
  45,	  40,	  39, -1
  46,	  45,	  39, -1
  42,	  46,	  41, -1
  43,	  44,	  42, -1
  42,	  44,	  46, -1
  44,	  45,	  46, -1
]
normalPerVertex TRUE
}
}
]
}
