#VRML V2.0 utf8
Transform {
children [
Shape {
appearance Appearance {
              material DEF surface Material {
              diffuseColor 0.8 0.8 0.8
              ambientIntensity 0.2
              specularColor 0.4 0.4 0.4
              emissiveColor 0 0 0
              shininess 0.25
              transparency 0
            }
          }
geometry IndexedFaceSet {
solid FALSE
coord DEF bone Coordinate {
point [
  0.002869	 -0.003194	  0.009323,
  0.002000	 -0.002054	  0.006929,
  0.003007	  0.000471	  0.007115,
  0.003297	 -0.002310	  0.009568,
  0.002307	 -0.004833	  0.009648,
  0.002549	 -0.004326	  0.010817,
  0.001063	 -0.007144	  0.008105,
 -0.008883	 -0.001090	  0.006264,
 -0.003988	  0.002213	  0.007834,
  0.003648	 -0.000546	  0.010134,
 -0.005764	  0.002535	  0.011056,
  0.003131	 -0.002449	  0.010663,
  0.002358	 -0.005802	  0.011012,
  0.002035	 -0.005716	  0.011847,
  0.002535	 -0.004451	  0.011806,
  0.001860	 -0.005851	  0.012673,
 -0.011355	 -0.007410	  0.006465,
  0.001211	 -0.008100	  0.010823,
 -0.011142	 -0.002261	  0.009408,
 -0.010397	 -0.000854	  0.009630,
 -0.009193	  0.000105	  0.012535,
  0.004098	 -0.001648	  0.013628,
 -0.007600	  0.001595	  0.016504,
 -0.008843	  0.000258	  0.014418,
 -0.000053	 -0.008332	  0.013627,
 -0.001369	 -0.006993	  0.015889,
 -0.012819	 -0.008144	  0.011194,
 -0.012044	 -0.004417	  0.009479,
 -0.010877	 -0.002469	  0.012014,
 -0.008805	 -0.003030	  0.017973,
 -0.010560	 -0.003069	  0.015365,
 -0.011930	 -0.007091	  0.014933,
 -0.012928	 -0.005354	  0.011451,
 -0.011904	 -0.004161	  0.013830,
]
}
coordIndex [
   0,	   1,	   2, -1
   0,	   2,	   3, -1
   4,	   1,	   0, -1
   5,	   4,	   0, -1
   5,	   0,	   3, -1
   4,	   6,	   1, -1
   6,	   7,	   1, -1
   1,	   7,	   8, -1
   1,	   8,	   2, -1
   3,	   2,	   9, -1
   2,	   8,	  10, -1
   2,	  10,	   9, -1
   3,	   9,	  11, -1
   5,	   3,	  11, -1
  12,	   6,	   4, -1
   5,	  12,	   4, -1
   5,	  13,	  12, -1
   5,	  11,	  14, -1
   5,	  14,	  15, -1
   5,	  15,	  13, -1
   6,	  16,	   7, -1
  12,	  17,	   6, -1
  17,	  16,	   6, -1
  16,	  18,	   7, -1
   7,	  18,	  19, -1
   7,	  19,	   8, -1
   8,	  19,	  20, -1
   8,	  20,	  10, -1
  11,	   9,	  21, -1
   9,	  10,	  22, -1
   9,	  22,	  21, -1
  10,	  20,	  23, -1
  10,	  23,	  22, -1
  11,	  21,	  14, -1
  13,	  17,	  12, -1
  13,	  24,	  17, -1
  15,	  24,	  13, -1
  14,	  21,	  25, -1
  14,	  25,	  15, -1
  15,	  25,	  24, -1
  17,	  26,	  16, -1
  26,	  27,	  16, -1
  16,	  27,	  18, -1
  24,	  26,	  17, -1
  18,	  27,	  28, -1
  19,	  18,	  28, -1
  20,	  19,	  28, -1
  23,	  20,	  28, -1
  21,	  22,	  29, -1
  21,	  29,	  25, -1
  22,	  23,	  30, -1
  22,	  30,	  29, -1
  30,	  23,	  28, -1
  24,	  31,	  26, -1
  25,	  31,	  24, -1
  25,	  29,	  31, -1
  26,	  32,	  27, -1
  31,	  32,	  26, -1
  27,	  32,	  28, -1
  32,	  33,	  28, -1
  33,	  30,	  28, -1
  29,	  30,	  33, -1
  29,	  33,	  31, -1
  31,	  33,	  32, -1
]
colorPerVertex FALSE
colorIndex [
1,
1,
1,
1,
1,
1,
1,
1,
1,
1,
1,
1,
1,
1,
1,
1,
1,
1,
1,
1,
1,
1,
1,
1,
1,
1,
1,
1,
1,
1,
1,
1,
1,
1,
]
normal Normal {
vector [
  0.885588	 -0.347159	 -0.308567,
  0.521878	 -0.146017	 -0.840430,
  0.814935	  0.330942	 -0.475771,
  0.954789	 -0.273635	 -0.116200,
  0.922374	 -0.286963	 -0.258608,
  0.958082	 -0.284483	  0.033875,
  0.607593	 -0.465288	 -0.643690,
 -0.387391	  0.344315	 -0.855205,
 -0.273067	  0.782424	 -0.559684,
  0.873723	  0.477245	  0.094049,
 -0.189538	  0.981765	  0.014611,
  0.951545	 -0.304587	 -0.042287,
  0.954991	 -0.295315	  0.027935,
  0.892150	 -0.363223	  0.268584,
  0.917609	 -0.358432	  0.171816,
  0.885286	 -0.323439	  0.334150,
 -0.617686	 -0.340794	 -0.708748,
  0.524624	 -0.851236	 -0.012963,
 -0.883107	  0.406598	 -0.234095,
 -0.732906	  0.673210	 -0.098169,
 -0.700519	  0.712514	 -0.039961,
  0.862890	 -0.020245	  0.504985,
 -0.306406	  0.829111	  0.467644,
 -0.771031	  0.630972	  0.085940,
  0.447311	 -0.826677	  0.341347,
  0.462523	 -0.428277	  0.776306,
 -0.700550	 -0.707151	 -0.095751,
 -0.926353	  0.287649	 -0.243162,
 -0.843644	  0.525287	  0.111080,
 -0.394115	  0.117446	  0.911526,
 -0.826175	  0.457730	  0.328511,
 -0.641810	 -0.467686	  0.607741,
 -0.962922	  0.267569	  0.034457,
 -0.858101	  0.375896	  0.349806,
]
}
normalIndex [
   0,	   1,	   2, -1
   0,	   2,	   3, -1
   4,	   1,	   0, -1
   5,	   4,	   0, -1
   5,	   0,	   3, -1
   4,	   6,	   1, -1
   6,	   7,	   1, -1
   1,	   7,	   8, -1
   1,	   8,	   2, -1
   3,	   2,	   9, -1
   2,	   8,	  10, -1
   2,	  10,	   9, -1
   3,	   9,	  11, -1
   5,	   3,	  11, -1
  12,	   6,	   4, -1
   5,	  12,	   4, -1
   5,	  13,	  12, -1
   5,	  11,	  14, -1
   5,	  14,	  15, -1
   5,	  15,	  13, -1
   6,	  16,	   7, -1
  12,	  17,	   6, -1
  17,	  16,	   6, -1
  16,	  18,	   7, -1
   7,	  18,	  19, -1
   7,	  19,	   8, -1
   8,	  19,	  20, -1
   8,	  20,	  10, -1
  11,	   9,	  21, -1
   9,	  10,	  22, -1
   9,	  22,	  21, -1
  10,	  20,	  23, -1
  10,	  23,	  22, -1
  11,	  21,	  14, -1
  13,	  17,	  12, -1
  13,	  24,	  17, -1
  15,	  24,	  13, -1
  14,	  21,	  25, -1
  14,	  25,	  15, -1
  15,	  25,	  24, -1
  17,	  26,	  16, -1
  26,	  27,	  16, -1
  16,	  27,	  18, -1
  24,	  26,	  17, -1
  18,	  27,	  28, -1
  19,	  18,	  28, -1
  20,	  19,	  28, -1
  23,	  20,	  28, -1
  21,	  22,	  29, -1
  21,	  29,	  25, -1
  22,	  23,	  30, -1
  22,	  30,	  29, -1
  30,	  23,	  28, -1
  24,	  31,	  26, -1
  25,	  31,	  24, -1
  25,	  29,	  31, -1
  26,	  32,	  27, -1
  31,	  32,	  26, -1
  27,	  32,	  28, -1
  32,	  33,	  28, -1
  33,	  30,	  28, -1
  29,	  30,	  33, -1
  29,	  33,	  31, -1
  31,	  33,	  32, -1
]
normalPerVertex TRUE
}
}
]
}
