# 
# Wavefront OBJ file
# Converted by the DEEP Exploration 2.00.1211
# Right Hemisphere, LTD
# http://www.righthemisphere.com/
# 
mtllib trapezoid_l.mtl
# object Object #0
g Object__0
v 0.003007 0.000471 -0.007115
v 0.002 -0.002054 -0.006929
v 0.002869 -0.003194 -0.009323
v 0.003297 -0.00231 -0.009568
v -0.003988 0.002213 -0.007834
v 0.003648 -0.000546 -0.010134
v -0.005764 0.002535 -0.011056
v 0.002307 -0.004833 -0.009648
v 0.001063 -0.007144 -0.008105
v -0.008883 -0.00109 -0.006264
v 0.002549 -0.004326 -0.010817
v 0.003131 -0.002449 -0.010663
v -0.010397 -0.000854 -0.00963
v -0.009193 0.000105 -0.012535
v 0.004098 -0.001648 -0.013628
v -0.0076 0.001595 -0.016504
v -0.008843 0.000258 -0.014418
v 0.002358 -0.005802 -0.011012
v -0.011355 -0.00741 -0.006465
v 0.001211 -0.0081 -0.010823
v -0.011142 -0.002261 -0.009408
v 0.002035 -0.005716 -0.011847
v 0.002535 -0.004451 -0.011806
v 0.00186 -0.005851 -0.012673
v -0.010877 -0.002469 -0.012014
v -0.001369 -0.006993 -0.015889
v -0.008805 -0.00303 -0.017973
v -0.01056 -0.003069 -0.015365
v -0.012819 -0.008144 -0.011194
v -0.012044 -0.004417 -0.009479
v -5.3e-005 -0.008332 -0.013627
v -0.012928 -0.005354 -0.011451
v -0.011904 -0.004161 -0.01383
v -0.01193 -0.007091 -0.014933
# 34 verticies
vn 0.814935 0.330942 0.475771
vn 0.521878 -0.146017 0.84043
vn 0.885588 -0.347159 0.308567
vn 0.954789 -0.273635 0.1162
vn -0.273067 0.782424 0.559684
vn 0.873723 0.477245 -0.094049
vn -0.189538 0.981765 -0.014611
vn 0.922374 -0.286963 0.258608
vn 0.607593 -0.465288 0.64369
vn -0.387391 0.344315 0.855205
vn 0.958082 -0.284483 -0.033875
vn 0.951545 -0.304587 0.042287
vn -0.732906 0.67321 0.098169
vn -0.700519 0.712514 0.039961
vn 0.862891 -0.020245 -0.504985
vn -0.306406 0.829111 -0.467644
vn -0.771031 0.630972 -0.08594
vn 0.954991 -0.295315 -0.027935
vn -0.617686 -0.340794 0.708748
vn 0.524624 -0.851236 0.012963
vn -0.883107 0.406598 0.234095
vn 0.89215 -0.363223 -0.268584
vn 0.917609 -0.358432 -0.171816
vn 0.885286 -0.323439 -0.33415
vn -0.843644 0.525287 -0.11108
vn 0.462523 -0.428277 -0.776306
vn -0.394115 0.117446 -0.911526
vn -0.826174 0.45773 -0.328511
vn -0.70055 -0.707151 0.095751
vn -0.926353 0.287649 0.243162
vn 0.447311 -0.826677 -0.341347
vn -0.962922 0.267569 -0.034457
vn -0.858101 0.375896 -0.349806
vn -0.64181 -0.467686 -0.607741
# 34 normals
usemtl Material__1
f  1//1 2//2 3//3
f  4//4 1//1 3//3
f  1//1 5//5 2//2
f  6//6 1//1 4//4
f  7//7 5//5 1//1
f  6//6 7//7 1//1
f  3//3 2//2 8//8
f  2//2 9//9 8//8
f  2//2 10//10 9//9
f  5//5 10//10 2//2
f  3//3 8//8 11//11
f  4//4 3//3 11//11
f  12//12 6//6 4//4
f  12//12 4//4 11//11
f  5//5 13//13 10//10
f  14//14 13//13 5//5
f  7//7 14//14 5//5
f  15//15 6//6 12//12
f  16//16 7//7 6//6
f  15//15 16//16 6//6
f  17//17 14//14 7//7
f  16//16 17//17 7//7
f  8//8 9//9 18//18
f  8//8 18//18 11//11
f  10//10 19//19 9//9
f  9//9 20//20 18//18
f  9//9 19//19 20//20
f  10//10 21//21 19//19
f  13//13 21//21 10//10
f  18//18 22//22 11//11
f  23//23 12//12 11//11
f  24//24 23//23 11//11
f  22//22 24//24 11//11
f  23//23 15//15 12//12
f  25//25 21//21 13//13
f  25//25 13//13 14//14
f  25//25 14//14 17//17
f  26//26 15//15 23//23
f  27//27 16//16 15//15
f  26//26 27//27 15//15
f  28//28 17//17 16//16
f  27//27 28//28 16//16
f  25//25 17//17 28//28
f  18//18 20//20 22//22
f  19//19 29//29 20//20
f  19//19 30//30 29//29
f  21//21 30//30 19//19
f  20//20 31//31 22//22
f  20//20 29//29 31//31
f  25//25 30//30 21//21
f  22//22 31//31 24//24
f  24//24 26//26 23//23
f  31//31 26//26 24//24
f  25//25 32//32 30//30
f  25//25 33//33 32//32
f  25//25 28//28 33//33
f  31//31 34//34 26//26
f  34//34 27//27 26//26
f  33//33 28//28 27//27
f  34//34 33//33 27//27
f  29//29 34//34 31//31
f  30//30 32//32 29//29
f  29//29 32//32 34//34
f  32//32 33//33 34//34
