# 
# Wavefront OBJ file
# Converted by the DEEP Exploration 2.00.1211
# Right Hemisphere, LTD
# http://www.righthemisphere.com/
# 
mtllib triquetrum_l.mtl
# object Object #0
g Object__0
v -0.001721 -0.015703 0.021701
v -0.000732 -0.012534 0.021612
v -0.002966 -0.012634 0.020903
v -0.004485 -0.016957 0.021567
v -0.00098 -0.01712 0.019031
v -0.002465 -0.018203 0.018471
v -0.001041 -0.017808 0.016834
v -0.00215 -0.009472 0.021174
v -0.000195 -0.008613 0.021316
v -0.000778 -0.012704 0.018779
v -0.005244 -0.0091 0.021548
v -0.004721 -0.006312 0.020791
v -0.00518 -0.010712 0.021981
v -0.006461 -0.017649 0.019688
v 5.6e-005 -0.011341 0.016867
v -0.000149 -0.013406 0.014355
v -0.003018 -0.012784 0.013772
v -0.001718 -0.004845 0.019111
v -0.007672 -0.005706 0.019953
v -0.000546 -0.009675 0.018101
v 0.001683 -0.004715 0.020707
v -0.00724 -0.009285 0.021181
v -0.006584 -0.011742 0.022111
v -0.010698 -0.006286 0.013243
v -0.009369 -0.013369 0.020454
v 0.001746 -0.005936 0.019553
v 0.001912 -0.00586 0.015758
v 0.000285 -0.008223 0.012524
v -0.001481 -0.007476 0.011001
v -0.005254 -0.002747 0.01715
v -0.010306 -0.006689 0.019466
v 0.001757 -0.004276 0.015074
v -0.007988 -0.012773 0.02224
v -0.010214 -0.011246 0.021355
# 34 verticies
vn 0.199843 -0.523132 0.82849
vn 0.551224 -0.06131 0.832102
vn -0.02465 0.080913 0.996416
vn 0.195148 -0.365945 0.909946
vn 0.889698 -0.35393 0.288393
vn -0.014739 -0.976889 -0.21324
vn 0.547623 -0.836412 0.022895
vn -0.123008 0.252361 0.959783
vn 0.620143 0.051756 0.78278
vn 0.987971 -0.056099 0.144104
vn 0.324744 0.192646 0.925975
vn 0.060638 0.284357 0.956799
vn 0.082812 0.049385 0.995341
vn -0.515143 -0.816313 0.261267
vn 0.953692 -0.216793 0.208499
vn 0.455076 -0.480636 -0.749597
vn -0.077636 -0.545561 -0.834467
vn -0.271046 0.554516 0.786795
vn -0.13427 0.827556 0.545089
vn 0.833649 -0.359539 0.419239
vn 0.581716 0.146538 0.800083
vn -0.189492 0.305159 0.933258
vn 0.087088 -0.247924 0.964857
vn -0.778151 0.063699 -0.624838
vn -0.649648 -0.632922 0.421149
vn 0.885799 -0.288839 0.363226
vn 0.957203 -0.071797 -0.280371
vn 0.7617 -0.222399 -0.608566
vn 0.435672 0.032929 -0.899503
vn -0.378962 0.901289 0.20992
vn -0.398221 0.755084 0.520834
vn 0.703151 0.596112 -0.387593
vn -0.435669 -0.303433 0.84742
vn -0.866851 0.060487 0.494884
# 34 normals
usemtl Material__1
f  1//1 2//2 3//3
f  4//4 1//1 3//3
f  1//1 5//5 2//2
f  6//6 1//1 4//4
f  7//7 5//5 1//1
f  6//6 7//7 1//1
f  3//3 2//2 8//8
f  2//2 9//9 8//8
f  5//5 10//10 2//2
f  2//2 10//10 9//9
f  3//3 11//11 4//4
f  12//12 11//11 3//3
f  8//8 12//12 3//3
f  11//11 13//13 4//4
f  14//14 6//6 4//4
f  4//4 13//13 14//14
f  10//10 5//5 15//15
f  5//5 7//7 15//15
f  16//16 7//7 6//6
f  17//17 16//16 6//6
f  17//17 6//6 14//14
f  7//7 16//16 15//15
f  8//8 9//9 18//18
f  19//19 12//12 8//8
f  18//18 19//19 8//8
f  10//10 20//20 9//9
f  9//9 21//21 18//18
f  9//9 20//20 21//21
f  20//20 10//10 15//15
f  22//22 13//13 11//11
f  22//22 11//11 12//12
f  22//22 12//12 19//19
f  13//13 23//23 14//14
f  22//22 23//23 13//13
f  24//24 17//17 14//14
f  14//14 23//23 25//25
f  25//25 24//24 14//14
f  26//26 20//20 15//15
f  27//27 26//26 15//15
f  28//28 27//27 15//15
f  16//16 28//28 15//15
f  28//28 16//16 17//17
f  29//29 28//28 17//17
f  17//17 24//24 29//29
f  18//18 21//21 30//30
f  31//31 19//19 18//18
f  30//30 31//31 18//18
f  22//22 19//19 31//31
f  20//20 26//26 21//21
f  21//21 32//32 30//30
f  21//21 26//26 32//32
f  22//22 33//33 23//23
f  22//22 31//31 34//34
f  22//22 34//34 33//33
f  23//23 33//33 25//25
f  32//32 29//29 24//24
f  30//30 32//32 24//24
f  24//24 34//34 30//30
f  33//33 34//34 24//24
f  25//25 33//33 24//24
f  26//26 27//27 32//32
f  32//32 27//27 29//29
f  27//27 28//28 29//29
f  34//34 31//31 30//30
