#VRML V2.0 utf8
Transform {
children [
Shape {
appearance Appearance {
              material DEF surface Material {
              diffuseColor 0.8 0.8 0.8
              ambientIntensity 0.2
              specularColor 0.4 0.4 0.4
              emissiveColor 0 0 0
              shininess 0.25
              transparency 0
            }
          }
geometry IndexedFaceSet {
solid FALSE
coord DEF bone Coordinate {
point [
 -0.001721	 -0.015703	  0.021701,
 -0.000732	 -0.012534	  0.021612,
 -0.002966	 -0.012634	  0.020903,
 -0.004485	 -0.016957	  0.021567,
 -0.000980	 -0.017120	  0.019031,
 -0.002465	 -0.018203	  0.018471,
 -0.001041	 -0.017808	  0.016834,
 -0.002150	 -0.009472	  0.021174,
 -0.000195	 -0.008613	  0.021316,
 -0.000778	 -0.012704	  0.018779,
 -0.005244	 -0.009100	  0.021548,
 -0.004721	 -0.006312	  0.020791,
 -0.005180	 -0.010712	  0.021981,
 -0.006461	 -0.017649	  0.019688,
  0.000056	 -0.011341	  0.016867,
 -0.000149	 -0.013406	  0.014355,
 -0.003018	 -0.012784	  0.013772,
 -0.001718	 -0.004845	  0.019111,
 -0.007672	 -0.005706	  0.019953,
 -0.000546	 -0.009675	  0.018101,
  0.001683	 -0.004715	  0.020707,
 -0.007240	 -0.009285	  0.021181,
 -0.006584	 -0.011742	  0.022111,
 -0.010698	 -0.006286	  0.013243,
 -0.009369	 -0.013369	  0.020454,
  0.001746	 -0.005936	  0.019553,
  0.001912	 -0.005860	  0.015758,
  0.000285	 -0.008223	  0.012524,
 -0.001481	 -0.007476	  0.011001,
 -0.005254	 -0.002747	  0.017150,
 -0.010306	 -0.006689	  0.019466,
  0.001757	 -0.004276	  0.015074,
 -0.007988	 -0.012773	  0.022240,
 -0.010214	 -0.011246	  0.021355,
]
}
coordIndex [
   0,	   1,	   2, -1
   3,	   0,	   2, -1
   0,	   4,	   1, -1
   5,	   0,	   3, -1
   6,	   4,	   0, -1
   5,	   6,	   0, -1
   2,	   1,	   7, -1
   1,	   8,	   7, -1
   4,	   9,	   1, -1
   1,	   9,	   8, -1
   2,	  10,	   3, -1
  11,	  10,	   2, -1
   7,	  11,	   2, -1
  10,	  12,	   3, -1
  13,	   5,	   3, -1
   3,	  12,	  13, -1
   9,	   4,	  14, -1
   4,	   6,	  14, -1
  15,	   6,	   5, -1
  16,	  15,	   5, -1
  16,	   5,	  13, -1
   6,	  15,	  14, -1
   7,	   8,	  17, -1
  18,	  11,	   7, -1
  17,	  18,	   7, -1
   9,	  19,	   8, -1
   8,	  20,	  17, -1
   8,	  19,	  20, -1
  19,	   9,	  14, -1
  21,	  12,	  10, -1
  21,	  10,	  11, -1
  21,	  11,	  18, -1
  12,	  22,	  13, -1
  21,	  22,	  12, -1
  23,	  16,	  13, -1
  13,	  22,	  24, -1
  24,	  23,	  13, -1
  25,	  19,	  14, -1
  26,	  25,	  14, -1
  27,	  26,	  14, -1
  15,	  27,	  14, -1
  27,	  15,	  16, -1
  28,	  27,	  16, -1
  16,	  23,	  28, -1
  17,	  20,	  29, -1
  30,	  18,	  17, -1
  29,	  30,	  17, -1
  21,	  18,	  30, -1
  19,	  25,	  20, -1
  20,	  31,	  29, -1
  20,	  25,	  31, -1
  21,	  32,	  22, -1
  21,	  30,	  33, -1
  21,	  33,	  32, -1
  22,	  32,	  24, -1
  31,	  28,	  23, -1
  29,	  31,	  23, -1
  23,	  33,	  29, -1
  32,	  33,	  23, -1
  24,	  32,	  23, -1
  25,	  26,	  31, -1
  31,	  26,	  28, -1
  26,	  27,	  28, -1
  33,	  30,	  29, -1
]
colorPerVertex FALSE
colorIndex [
1,
1,
1,
1,
1,
1,
1,
1,
1,
1,
1,
1,
1,
1,
1,
1,
1,
1,
1,
1,
1,
1,
1,
1,
1,
1,
1,
1,
1,
1,
1,
1,
1,
1,
]
normal Normal {
vector [
  0.199843	 -0.523132	  0.828490,
  0.551224	 -0.061310	  0.832102,
 -0.024650	  0.080913	  0.996416,
  0.195148	 -0.365945	  0.909946,
  0.889698	 -0.353930	  0.288393,
 -0.014739	 -0.976889	 -0.213240,
  0.547623	 -0.836412	  0.022895,
 -0.123008	  0.252361	  0.959783,
  0.620143	  0.051756	  0.782780,
  0.987971	 -0.056099	  0.144104,
  0.324744	  0.192646	  0.925975,
  0.060638	  0.284357	  0.956799,
  0.082812	  0.049385	  0.995341,
 -0.515143	 -0.816313	  0.261267,
  0.953692	 -0.216793	  0.208499,
  0.455076	 -0.480636	 -0.749597,
 -0.077636	 -0.545561	 -0.834467,
 -0.271046	  0.554516	  0.786794,
 -0.134270	  0.827556	  0.545089,
  0.833649	 -0.359539	  0.419239,
  0.581716	  0.146538	  0.800083,
 -0.189492	  0.305159	  0.933258,
  0.087088	 -0.247924	  0.964857,
 -0.778151	  0.063699	 -0.624838,
 -0.649648	 -0.632922	  0.421149,
  0.885799	 -0.288839	  0.363226,
  0.957203	 -0.071797	 -0.280371,
  0.761700	 -0.222399	 -0.608566,
  0.435672	  0.032929	 -0.899503,
 -0.378962	  0.901289	  0.209920,
 -0.398221	  0.755084	  0.520834,
  0.703151	  0.596112	 -0.387593,
 -0.435669	 -0.303433	  0.847420,
 -0.866852	  0.060487	  0.494884,
]
}
normalIndex [
   0,	   1,	   2, -1
   3,	   0,	   2, -1
   0,	   4,	   1, -1
   5,	   0,	   3, -1
   6,	   4,	   0, -1
   5,	   6,	   0, -1
   2,	   1,	   7, -1
   1,	   8,	   7, -1
   4,	   9,	   1, -1
   1,	   9,	   8, -1
   2,	  10,	   3, -1
  11,	  10,	   2, -1
   7,	  11,	   2, -1
  10,	  12,	   3, -1
  13,	   5,	   3, -1
   3,	  12,	  13, -1
   9,	   4,	  14, -1
   4,	   6,	  14, -1
  15,	   6,	   5, -1
  16,	  15,	   5, -1
  16,	   5,	  13, -1
   6,	  15,	  14, -1
   7,	   8,	  17, -1
  18,	  11,	   7, -1
  17,	  18,	   7, -1
   9,	  19,	   8, -1
   8,	  20,	  17, -1
   8,	  19,	  20, -1
  19,	   9,	  14, -1
  21,	  12,	  10, -1
  21,	  10,	  11, -1
  21,	  11,	  18, -1
  12,	  22,	  13, -1
  21,	  22,	  12, -1
  23,	  16,	  13, -1
  13,	  22,	  24, -1
  24,	  23,	  13, -1
  25,	  19,	  14, -1
  26,	  25,	  14, -1
  27,	  26,	  14, -1
  15,	  27,	  14, -1
  27,	  15,	  16, -1
  28,	  27,	  16, -1
  16,	  23,	  28, -1
  17,	  20,	  29, -1
  30,	  18,	  17, -1
  29,	  30,	  17, -1
  21,	  18,	  30, -1
  19,	  25,	  20, -1
  20,	  31,	  29, -1
  20,	  25,	  31, -1
  21,	  32,	  22, -1
  21,	  30,	  33, -1
  21,	  33,	  32, -1
  22,	  32,	  24, -1
  31,	  28,	  23, -1
  29,	  31,	  23, -1
  23,	  33,	  29, -1
  32,	  33,	  23, -1
  24,	  32,	  23, -1
  25,	  26,	  31, -1
  31,	  26,	  28, -1
  26,	  27,	  28, -1
  33,	  30,	  29, -1
]
normalPerVertex TRUE
}
}
]
}
