# 
# Wavefront OBJ file
# Converted by the DEEP Exploration 2.00.1211
# Right Hemisphere, LTD
# http://www.righthemisphere.com/
# 
mtllib ulna_l.mtl
# object Object #0
g Object__0
v -0.013773 -0.24091 -0.029655
v -0.018832 -0.241186 -0.0328
v -0.019999 -0.233907 -0.032553
v -0.01236 -0.233365 -0.028996
v -0.018479 -0.241264 -0.018114
v -0.012534 -0.24059 -0.02301
v -0.02325 -0.241093 -0.027488
v -0.020546 -0.225927 -0.029053
v -0.015151 -0.227087 -0.027099
v -0.025148 -0.235608 -0.027738
v -0.013198 -0.237444 -0.020845
v -0.024396 -0.241627 -0.025238
v -0.021605 -0.24227 -0.017118
v -0.017303 -0.238757 -0.017311
v -0.02336 -0.242545 -0.019265
v -0.026603 -0.236544 -0.024236
v -0.016196 -0.218509 -0.024334
v -0.024343 -0.226363 -0.025868
v -0.0222 -0.214869 -0.025251
v -0.015443 -0.22862 -0.020474
v -0.016404 -0.220386 -0.019316
v -0.017369 -0.230157 -0.017641
v -0.024619 -0.246723 -0.024257
v -0.022915 -0.239137 -0.014687
v -0.026465 -0.245995 -0.01841
v -0.023721 -0.244787 -0.018104
v -0.021779 -0.230847 -0.014181
v -0.026272 -0.227783 -0.022967
v -0.026341 -0.230913 -0.017303
v -0.027641 -0.238394 -0.018821
v -0.016213 -0.207342 -0.016515
v -0.015956 -0.206698 -0.022203
v -0.025997 -0.218841 -0.020889
v -0.021901 -0.20535 -0.023632
v -0.02007 -0.206379 -0.023407
v -0.016387 -0.207868 -0.013093
v -0.017033 -0.221324 -0.017244
v -0.026318 -0.239005 -0.015904
v -0.025185 -0.230715 -0.015398
v -0.01868 -0.222349 -0.014571
v -0.023106 -0.221688 -0.01426
v -0.02565 -0.220785 -0.016674
v -0.015209 -0.188405 -0.011283
v -0.014222 -0.188094 -0.015966
v -0.016369 -0.187334 -0.019767
v -0.025541 -0.205782 -0.018077
v -0.021543 -0.187354 -0.020531
v -0.021548 -0.207712 -0.012384
v -0.020844 -0.188759 -0.010236
v -0.02493 -0.207559 -0.014929
v -0.02019 -0.164859 -0.007708
v -0.015111 -0.166047 -0.008684
v -0.014494 -0.164677 -0.014065
v -0.016836 -0.162386 -0.018003
v -0.015013 -0.16182 -0.018122
v -0.025156 -0.187444 -0.015721
v -0.020734 -0.162446 -0.018189
v -0.02383 -0.188631 -0.012062
v -0.02354 -0.164468 -0.008667
v -0.020224 -0.132589 -0.005926
v -0.015561 -0.133782 -0.006295
v -0.013111 -0.134791 -0.012863
v -0.014451 -0.133607 -0.017252
v -0.017292 -0.132533 -0.018055
v -0.026221 -0.162426 -0.012406
v -0.020233 -0.128434 -0.017724
v -0.027353 -0.129418 -0.010295
v -0.024155 -0.131404 -0.007282
v -0.021268 -0.11746 -0.005391
v -0.01632 -0.117873 -0.005797
v -0.013627 -0.119155 -0.012419
v -0.013164 -0.117146 -0.016637
v -0.017298 -0.116321 -0.017786
v -0.020454 -0.115389 -0.017297
v -0.028075 -0.115518 -0.010579
v -0.024712 -0.117324 -0.006864
v -0.02673 -0.1011 -0.007445
v -0.021766 -0.10157 -0.004944
v -0.016924 -0.10197 -0.00586
v -0.014616 -0.101165 -0.012091
v -0.013646 -0.099474 -0.017803
v -0.022026 -0.099238 -0.016849
v -0.017516 -0.09974 -0.018537
v -0.02855 -0.09949 -0.011146
v -0.028864 -0.082273 -0.007679
v -0.029876 -0.08172 -0.011029
v -0.022971 -0.083565 -0.004315
v -0.017534 -0.084515 -0.004823
v -0.015531 -0.08382 -0.010612
v -0.020343 -0.086468 -0.018213
v -0.017452 -0.085827 -0.018793
v -0.023049 -0.084883 -0.016579
v -0.028159 -0.082401 -0.013907
v -0.029887 -0.06456 -0.006039
v -0.031452 -0.063658 -0.011148
v -0.029212 -0.064344 -0.014004
v -0.022576 -0.064602 -0.00237
v -0.017114 -0.065027 -0.002871
v -0.018311 -0.06655 -0.017958
v -0.015099 -0.065394 -0.009029
v -0.02115 -0.06682 -0.018375
v -0.023597 -0.066032 -0.016562
v -0.031355 -0.044504 -0.002927
v -0.032378 -0.041854 -0.009504
v -0.030387 -0.043288 -0.012721
v -0.023979 -0.045229 -0.015271
v -0.022906 -0.045875 -3.6e-005
v -0.015467 -0.047684 0.000377
v -0.018666 -0.047041 -0.016805
v -0.013337 -0.047117 -0.008188
v -0.021772 -0.045962 -0.017618
v -0.031005 -0.029474 0.000783
v -0.032694 -0.027153 -0.00759
v -0.030453 -0.027797 -0.01071
v -0.022933 -0.029254 -0.014982
v -0.021235 -0.031388 0.002354
v -0.010004 -0.029972 -0.001632
v -0.011774 -0.032679 0.003493
v -0.015798 -0.0305 -0.016632
v -0.009079 -0.031408 -0.009616
v -0.019168 -0.029718 -0.017226
v -0.02956 -0.015007 0.004809
v -0.03322 -0.012847 -0.006777
v -0.031014 -0.013579 -0.009124
v -0.021447 -0.016738 -0.011925
v -0.018159 -0.016419 0.005034
v -0.008711 -0.026651 0.006204
v -0.002931 -0.01949 -0.000379
v -0.004407 -0.022333 0.004442
v -0.003787 -0.020122 -0.004165
v -0.014427 -0.022226 -0.015375
v -0.006003 -0.024377 -0.011034
v -0.01945 -0.010378 -0.012166
v -0.027937 -0.003138 0.008744
v -0.033429 -0.002758 -0.005645
v -0.031113 -0.004041 -0.010141
v -0.01863 -0.012537 0.007585
v -0.010744 -0.01989 0.011241
v 0.001667 -0.014988 7.4e-005
v 0.000508 -0.010768 -0.00972
v -0.003099 -0.02009 0.008222
v -0.002903 -0.017856 -0.012517
v -0.01463 -0.014842 -0.013495
v -0.007186 -0.022752 -0.014053
v -0.008473 -0.0136 -0.011762
v -0.024796 0.000313 -0.012768
v -0.022702 0.00067 -0.013157
v -0.017236 -0.006673 -0.005089
v -0.023368 5.5e-005 0.011402
v -0.028767 0.007678 0.002565
v -0.032015 0.004411 0.000737
v -0.023827 0.007659 0.008302
v -0.026813 0.007681 0.005277
v -0.030116 0.005833 -0.006881
v -0.032635 0.003977 -0.002479
v -0.028811 0.004044 -0.011741
v -0.017156 -0.011036 0.008135
v -0.018475 -0.000618 0.010742
v -0.011082 -0.015979 0.011661
v -0.011627 -0.015564 0.003026
v -0.025165 0.008185 -0.012943
v -0.023331 0.008821 -0.013573
v -0.01938 -0.001712 -0.00541
v -0.019083 0.00356 -0.007947
v -0.016976 -0.00107 0.003297
v -0.01594 -0.009949 0.003166
v -0.018485 0.003557 0.010034
v -0.02762 0.009306 -7.6e-005
v -0.03082 0.006709 -0.003139
v -0.028528 0.008811 -0.002797
v -0.023543 0.011351 0.001126
v -0.014328 0.012758 0.004327
v -0.019197 0.013945 0.002144
v -0.026302 0.010026 -0.006231
v -0.023024 0.012101 -0.010038
v -0.020083 0.012054 -0.011475
v -0.01195 0.011744 -0.007208
v -0.015739 0.001788 -0.000914
v -0.016524 0.001777 0.003812
v -0.024092 0.011092 -0.003647
v -0.018976 0.013962 -0.002561
v -0.011691 0.011909 -0.001676
v -0.019868 0.013779 -0.005772
# 183 verticies
vn 0.600977 -0.583998 -0.545686
vn -0.085612 -0.796504 -0.598542
vn -0.071674 0.146573 -0.9866
vn 0.910919 0.168821 -0.376465
vn 0.270342 -0.9516 0.146193
vn 0.827157 -0.458203 0.325363
vn -0.605549 -0.609406 -0.511796
vn -0.172318 0.329983 -0.928126
vn 0.873194 0.332732 -0.356119
vn -0.786658 0.008459 -0.617331
vn 0.884278 0.099836 0.456163
vn 0.007167 -0.803419 -0.595371
vn 0.448793 -0.689043 0.569039
vn 0.554014 -0.25663 0.791965
vn 0.758404 -0.598652 -0.257758
vn -0.922385 -0.052121 -0.38274
vn 0.827754 0.185715 -0.529465
vn -0.755455 0.149522 -0.637911
vn -0.059209 0.201959 -0.977603
vn 0.925572 0.13916 0.352066
vn 0.981799 0.000491 0.189922
vn 0.760329 0.025339 0.649044
vn -0.0932271 -0.774792 -0.625304
vn 0.005134 -0.263818 0.964559
vn -0.370208 -0.596623 0.71203
vn 0.736563 -0.654561 0.170368
vn 0.315298 -0.076236 0.945926
vn -0.977622 0.049959 -0.204352
vn -0.973757 0.07456 0.215031
vn -0.998426 -0.043095 0.035881
vn 0.996123 -0.058262 0.065914
vn 0.747744 0.075723 -0.659656
vn -0.960596 0.093873 -0.261615
vn -0.381627 0.168577 -0.908814
vn 0.246214 0.140906 -0.958918
vn 0.747081 -0.128044 0.652284
vn 0.882184 -0.145775 0.447774
vn -0.725415 -0.062432 0.685475
vn -0.59531 0.019523 0.803259
vn 0.451118 -0.163883 0.877289
vn -0.389681 -0.034373 0.920308
vn -0.909578 0.023739 0.414855
vn 0.785899 -0.090892 0.611639
vn 0.993646 -0.018478 -0.111027
vn 0.494119 0.095735 -0.864107
vn -0.974489 0.069251 -0.213483
vn -0.404915 0.118829 -0.9066
vn -0.252031 -0.103032 0.962219
vn -0.144509 -0.107341 0.983664
vn -0.844514 -0.02744 0.534831
vn -0.007941 -0.086958 0.99618
vn 0.59838 -0.063572 0.798686
vn 0.999182 -0.014936 -0.037586
vn 0.058956 0.044862 -0.997252
vn 0.622228 0.014742 -0.782697
vn -0.980228 0.028905 -0.195747
vn -0.411599 0.049221 -0.910035
vn -0.76008 -0.073611 0.645647
vn -0.562993 -0.071482 0.823365
vn -0.111303 -0.053422 0.99235
vn 0.628153 -0.030407 0.777496
vn 0.994568 0.000856 0.10409
vn 0.77469 -0.00697 -0.632303
vn 0.116272 0.01069 -0.99316
vn -0.990977 -0.023821 -0.131896
vn -0.442924 0.019737 -0.896342
vn -0.998904 -0.0342 -0.031946
vn -0.549208 -0.044152 0.834519
vn -0.19881 -0.03504 0.979411
vn 0.611358 0.00949099 0.791297
vn 0.984412 0.019392 0.174803
vn 0.83296 -0.003568 -0.553322
vn -0.003093 -0.010297 -0.999942
vn -0.488955 -0.008342 -0.872269
vn -0.997576 -0.049816 -0.04859
vn -0.665763 -0.042778 0.744936
vn -0.730191 -0.066285 0.68002
vn -0.168767 -0.03163 0.985148
vn 0.628129 0.005115 0.778092
vn 0.966473 0.034493 0.25444
vn 0.658901 0.031502 -0.75157
vn -0.49059 -0.033687 -0.870739
vn -0.088198 -0.020571 -0.995891
vn -0.964497 -0.079731 -0.25177
vn -0.781554 -0.086525 0.617808
vn -0.98942 -0.082357 -0.119434
vn -0.196685 -0.076442 0.977482
vn 0.60982 -0.055531 0.790592
vn 0.998352 0.038495 0.042564
vn -0.274522 -0.030152 -0.961108
vn 0.434879 0.053862 -0.898877
vn -0.549668 -0.039898 -0.83443
vn -0.649537 -0.058764 -0.758056
vn -0.788673 -0.108686 0.60513
vn -0.984017 -0.055801 -0.169105
vn -0.629533 -0.013189 -0.776862
vn -0.170615 -0.120518 0.97794
vn 0.590355 -0.131772 0.796315
vn 0.759072 0.027006 -0.650447
vn 0.996132 -0.07779 0.040857
vn -0.209625 0.015805 -0.977654
vn -0.53987 0.005298 -0.841732
vn -0.783723 -0.126986 0.607991
vn -0.993024 -0.029101 -0.114267
vn -0.691273 0.048685 -0.720952
vn -0.513982 0.058222 -0.855823
vn -0.164895 -0.156357 0.973839
vn 0.645456 -0.239199 0.725376
vn 0.508055 -0.004785 -0.861312
vn 0.960688 -0.160409 -0.226601
vn -0.296335 0.033372 -0.954501
vn -0.714147 -0.129341 0.687943
vn -0.955365 0.009626 -0.295271
vn -0.541015 0.109945 -0.833796
vn -0.528756 0.148132 -0.835748
vn -0.132672 -0.170084 0.976458
vn 0.888659 -0.447383 0.100671
vn 0.334188 -0.360622 0.870787
vn 0.493142 -0.100767 -0.864093
vn 0.888854 -0.396223 -0.2301
vn -0.230001 0.162507 -0.959526
vn -0.626245 -0.14991 0.765078
vn -0.990524 -0.002969 -0.137307
vn -0.651141 0.008069 -0.758914
vn -0.392877 0.121872 -0.91148
vn -0.286092 -0.324896 0.90144
vn 0.13968 -0.678846 0.720873
vn 0.789661 -0.589536 -0.169949
vn 0.701878 -0.680742 0.209661
vn 0.884566 -0.466033 -0.018863
vn 0.158482 0.068583 -0.984977
vn 0.708662 -0.49082 -0.506847
vn -0.000247 0.244312 -0.969697
vn -0.674233 -0.023929 0.738131
vn -0.991682 0.055012 -0.116365
vn -0.590263 0.003605 -0.807203
vn -0.401159 -0.332398 0.853571
vn -0.020548 -0.500592 0.86544
vn 0.959838 0.175199 0.219127
vn 0.890037 0.246527 -0.383481
vn 0.620702 -0.339392 0.706783
vn 0.645955 -0.120311 -0.753835
vn 0.113689 0.31309 -0.942894
vn 0.37178 -0.479616 -0.794826
vn 0.226091 0.672815 -0.704417
vn -0.253267 -0.091507 -0.963059
vn 0.648226 0.03437 -0.760671
vn 0.847799 0.495746 -0.188344
vn -0.140809 0.040212 0.98922
vn -0.72732 0.616226 0.30211
vn -0.907846 0.248967 0.337389
vn -0.356133 0.58565 0.728137
vn -0.597317 0.638815 0.4849
vn -0.801974 0.482138 -0.352677
vn -0.896674 0.439893 -0.049703
vn -0.702403 0.366415 -0.610221
vn 0.555633 0.383887 0.737498
vn 0.655673 -0.029393 0.754473
vn 0.138167 0.541147 0.8295
vn 0.419318 0.888083 0.188366
vn -0.4788 0.4453 -0.75661
vn 0.149666 0.124783 -0.980831
vn 0.942318 0.077934 -0.32552
vn 0.744212 -0.348791 -0.569643
vn 0.994524 -0.102404 -0.020881
vn 0.938334 0.307141 0.158727
vn 0.634937 0.13786 0.760164
vn -0.536922 0.822276 0.188618
vn -0.757992 0.649143 -0.063728
vn -0.596222 0.801927 -0.037845
vn -0.485713 0.85403 0.18632
vn 0.536931 0.649921 0.537874
vn -0.313132 0.921843 0.228373
vn -0.624848 0.760148 -0.178154
vn -0.422646 0.871787 -0.247704
vn 0.115372 0.573093 -0.811329
vn 0.710917 0.467262 -0.525607
vn 0.859801 -0.493775 -0.130108
vn 0.929628 -0.230869 0.287213
vn -0.488806 0.871861 0.030442
vn -0.043308 0.998966 -0.013845
vn 0.871968 0.481968 0.085903
vn -0.07707 0.99126 -0.107071
# 183 normals
usemtl Material__1
f  1//1 2//2 3//3
f  4//4 1//1 3//3
f  2//2 1//1 5//5
f  1//1 6//6 5//5
f  1//1 4//4 6//6
f  3//3 2//2 7//7
f  7//7 2//2 5//5
f  3//3 8//8 9//9
f  10//10 3//3 7//7
f  3//3 10//10 8//8
f  4//4 3//3 9//9
f  4//4 9//9 11//11
f  4//4 11//11 6//6
f  12//12 7//7 5//5
f  13//13 5//5 14//14
f  15//15 5//5 13//13
f  5//5 6//6 14//14
f  15//15 12//12 5//5
f  6//6 11//11 14//14
f  7//7 12//12 16//16
f  10//10 7//7 16//16
f  9//9 8//8 17//17
f  10//10 18//18 8//8
f  8//8 18//18 19//19
f  8//8 19//19 17//17
f  9//9 20//20 11//11
f  9//9 17//17 21//21
f  20//20 9//9 21//21
f  10//10 16//16 18//18
f  11//11 20//20 22//22
f  14//14 11//11 22//22
f  16//16 12//12 23//23
f  12//12 15//15 23//23
f  24//24 13//13 14//14
f  25//25 26//26 13//13
f  26//26 15//15 13//13
f  24//24 25//25 13//13
f  27//27 24//24 14//14
f  22//22 27//27 14//14
f  15//15 26//26 23//23
f  16//16 28//28 18//18
f  29//29 28//28 16//16
f  30//30 29//29 16//16
f  30//30 16//16 23//23
f  21//21 17//17 31//31
f  17//17 32//32 31//31
f  17//17 19//19 32//32
f  18//18 28//28 19//19
f  28//28 18//18 19//19
f  19//19 28//28 18//18
f  28//28 33//33 19//19
f  19//19 34//34 35//35
f  19//19 35//35 32//32
f  19//19 33//33 34//34
f  20//20 21//21 22//22
f  21//21 31//31 36//36
f  21//21 37//37 22//22
f  37//37 21//21 36//36
f  27//27 22//22 37//37
f  23//23 26//26 25//25
f  25//25 30//30 23//23
f  38//38 25//25 24//24
f  24//24 27//27 39//39
f  38//38 24//24 39//39
f  30//30 25//25 38//38
f  40//40 27//27 37//37
f  27//27 40//40 41//41
f  39//39 27//27 41//41
f  28//28 29//29 33//33
f  42//42 29//29 39//39
f  29//29 30//30 38//38
f  29//29 42//42 33//33
f  39//39 29//29 38//38
f  36//36 31//31 43//43
f  31//31 44//44 43//43
f  31//31 32//32 44//44
f  32//32 35//35 45//45
f  32//32 45//45 44//44
f  33//33 46//46 34//34
f  33//33 42//42 46//46
f  35//35 34//34 45//45
f  34//34 47//47 45//45
f  34//34 46//46 47//47
f  40//40 36//36 48//48
f  36//36 40//40 37//37
f  36//36 43//43 49//49
f  48//48 36//36 49//49
f  41//41 42//42 39//39
f  41//41 40//40 48//48
f  50//50 42//42 41//41
f  48//48 50//50 41//41
f  42//42 50//50 46//46
f  49//49 43//43 51//51
f  43//43 52//52 51//51
f  43//43 44//44 53//53
f  52//52 43//43 53//53
f  44//44 45//45 53//53
f  45//45 54//54 55//55
f  45//45 55//55 53//53
f  45//45 47//47 54//54
f  46//46 56//56 47//47
f  46//46 50//50 56//56
f  47//47 57//57 54//54
f  47//47 56//56 57//57
f  58//58 50//50 48//48
f  49//49 58//58 48//48
f  59//59 58//58 49//49
f  51//51 59//59 49//49
f  50//50 58//58 56//56
f  59//59 51//51 60//60
f  51//51 52//52 60//60
f  52//52 61//61 60//60
f  52//52 53//53 61//61
f  53//53 62//62 61//61
f  63//63 62//62 53//53
f  55//55 63//63 53//53
f  55//55 54//54 63//63
f  54//54 64//64 63//63
f  54//54 57//57 64//64
f  65//65 56//56 58//58
f  56//56 65//65 57//57
f  57//57 66//66 64//64
f  66//66 57//57 65//65
f  59//59 65//65 58//58
f  67//67 65//65 59//59
f  68//68 59//59 60//60
f  68//68 67//67 59//59
f  60//60 61//61 69//69
f  60//60 69//69 68//68
f  61//61 70//70 69//69
f  61//61 62//62 70//70
f  62//62 71//71 70//70
f  71//71 62//62 63//63
f  72//72 63//63 64//64
f  72//72 71//71 63//63
f  64//64 66//66 73//73
f  73//73 72//72 64//64
f  67//67 66//66 65//65
f  66//66 67//67 74//74
f  66//66 74//74 73//73
f  67//67 75//75 74//74
f  75//75 67//67 68//68
f  69//69 76//76 68//68
f  76//76 75//75 68//68
f  77//77 76//76 69//69
f  69//69 70//70 78//78
f  78//78 77//77 69//69
f  70//70 79//79 78//78
f  70//70 71//71 79//79
f  71//71 80//80 79//79
f  80//80 71//71 72//72
f  81//81 72//72 73//73
f  81//81 80//80 72//72
f  74//74 82//82 73//73
f  82//82 83//83 73//73
f  83//83 81//81 73//73
f  74//74 75//75 82//82
f  75//75 84//84 82//82
f  84//84 75//75 76//76
f  77//77 84//84 76//76
f  85//85 77//77 78//78
f  86//86 84//84 77//77
f  85//85 86//86 77//77
f  78//78 79//79 87//87
f  87//87 85//85 78//78
f  79//79 88//88 87//87
f  88//88 79//79 80//80
f  89//89 80//80 81//81
f  89//89 88//88 80//80
f  90//90 91//91 81//81
f  83//83 90//90 81//81
f  91//91 89//89 81//81
f  92//92 82//82 84//84
f  82//82 92//92 90//90
f  83//83 82//82 90//90
f  84//84 86//86 93//93
f  93//93 92//92 84//84
f  94//94 85//85 87//87
f  95//95 86//86 85//85
f  94//94 95//95 85//85
f  86//86 95//95 96//96
f  93//93 86//86 96//96
f  97//97 87//87 88//88
f  97//97 94//94 87//87
f  98//98 88//88 89//89
f  98//98 97//97 88//88
f  89//89 91//91 99//99
f  100//100 89//89 99//99
f  100//100 98//98 89//89
f  90//90 92//92 101//101
f  91//91 90//90 101//101
f  99//99 91//91 101//101
f  92//92 102//102 101//101
f  102//102 92//92 93//93
f  96//96 102//102 93//93
f  103//103 94//94 97//97
f  104//104 95//95 94//94
f  103//103 104//104 94//94
f  95//95 104//104 105//105
f  96//96 95//95 105//105
f  106//106 102//102 96//96
f  105//105 106//106 96//96
f  97//97 98//98 107//107
f  107//107 103//103 97//97
f  108//108 98//98 100//100
f  98//98 108//108 107//107
f  99//99 101//101 109//109
f  110//110 100//100 99//99
f  109//109 110//110 99//99
f  110//110 108//108 100//100
f  101//101 102//102 111//111
f  109//109 101//101 111//111
f  102//102 106//106 111//111
f  112//112 103//103 107//107
f  113//113 104//104 103//103
f  112//112 113//113 103//103
f  104//104 113//113 105//105
f  106//106 105//105 114//114
f  113//113 114//114 105//105
f  111//111 106//106 115//115
f  115//115 106//106 114//114
f  107//107 108//108 116//116
f  116//116 112//112 107//107
f  117//117 108//108 110//110
f  108//108 117//117 118//118
f  108//108 118//118 116//116
f  119//119 109//109 111//111
f  110//110 109//109 119//119
f  120//120 110//110 119//119
f  120//120 117//117 110//110
f  111//111 121//121 119//119
f  121//121 111//111 115//115
f  122//122 112//112 116//116
f  123//123 113//113 112//112
f  122//122 123//123 112//112
f  113//113 123//123 124//124
f  114//114 113//113 124//124
f  125//125 115//115 114//114
f  124//124 125//125 114//114
f  121//121 115//115 125//125
f  116//116 118//118 126//126
f  126//126 122//122 116//116
f  127//127 118//118 117//117
f  128//128 129//129 117//117
f  130//130 128//128 117//117
f  129//129 127//127 117//117
f  130//130 117//117 120//120
f  118//118 127//127 126//126
f  131//131 119//119 121//121
f  132//132 120//120 119//119
f  131//131 132//132 119//119
f  132//132 130//130 120//120
f  133//133 131//131 121//121
f  133//133 121//121 125//125
f  134//134 122//122 126//126
f  135//135 123//123 122//122
f  134//134 135//135 122//122
f  123//123 135//135 124//124
f  135//135 136//136 124//124
f  124//124 136//136 125//125
f  136//136 133//133 125//125
f  126//126 127//127 137//137
f  137//137 134//134 126//126
f  127//127 138//138 137//137
f  138//138 127//127 129//129
f  129//129 128//128 139//139
f  140//140 139//139 128//128
f  130//130 140//140 128//128
f  141//141 129//129 139//139
f  129//129 141//141 138//138
f  132//132 142//142 130//130
f  142//142 140//140 130//130
f  131//131 133//133 143//143
f  142//142 144//144 131//131
f  131//131 144//144 132//132
f  145//145 142//142 131//131
f  143//143 145//145 131//131
f  132//132 144//144 142//142
f  133//133 136//136 146//146
f  133//133 146//146 147//147
f  133//133 148//148 145//145
f  133//133 147//147 148//148
f  143//143 133//133 145//145
f  137//137 149//149 134//134
f  150//150 151//151 134//134
f  152//152 153//153 134//134
f  134//134 151//151 135//135
f  153//153 150//150 134//134
f  149//149 152//152 134//134
f  154//154 135//135 155//155
f  136//136 135//135 154//154
f  151//151 155//155 135//135
f  146//146 136//136 156//156
f  156//156 136//136 154//154
f  137//137 157//157 158//158
f  159//159 157//157 137//137
f  149//149 137//137 158//158
f  138//138 159//159 137//137
f  141//141 159//159 138//138
f  139//139 140//140 160//160
f  159//159 141//141 139//139
f  160//160 159//159 139//139
f  140//140 142//142 145//145
f  160//160 140//140 145//145
f  145//145 148//148 160//160
f  156//156 161//161 146//146
f  146//146 161//161 162//162
f  147//147 146//146 162//162
f  147//147 163//163 148//148
f  147//147 162//162 164//164
f  163//163 147//147 164//164
f  148//148 163//163 165//165
f  148//148 166//166 160//160
f  166//166 148//148 165//165
f  167//167 152//152 149//149
f  158//158 167//167 149//149
f  155//155 151//151 150//150
f  150//150 153//153 168//168
f  169//169 155//155 150//150
f  170//170 169//169 150//150
f  168//168 170//170 150//150
f  171//171 153//153 152//152
f  172//172 173//173 152//152
f  173//173 171//171 152//152
f  167//167 172//172 152//152
f  153//153 171//171 168//168
f  169//169 154//154 155//155
f  154//154 169//169 170//170
f  174//174 154//154 170//170
f  154//154 174//174 156//156
f  175//175 161//161 156//156
f  174//174 175//175 156//156
f  158//158 157//157 166//166
f  157//157 159//159 160//160
f  166//166 157//157 160//160
f  167//167 158//158 165//165
f  165//165 158//158 166//166
f  176//176 162//162 161//161
f  175//175 176//176 161//161
f  164//164 162//162 176//176
f  163//163 164//164 165//165
f  177//177 164//164 176//176
f  164//164 177//177 178//178
f  164//164 178//178 165//165
f  178//178 179//179 165//165
f  179//179 167//167 165//165
f  172//172 167//167 179//179
f  168//168 171//171 170//170
f  174//174 170//170 180//180
f  171//171 180//180 170//170
f  180//180 171//171 173//173
f  181//181 173//173 172//172
f  182//182 181//181 172//172
f  182//182 172//172 179//179
f  181//181 180//180 173//173
f  174//174 180//180 175//175
f  183//183 177//177 175//175
f  177//177 176//176 175//175
f  180//180 183//183 175//175
f  177//177 182//182 178//178
f  177//177 183//183 182//182
f  182//182 179//179 178//178
f  183//183 180//180 181//181
f  183//183 181//181 182//182
