#VRML V2.0 utf8 
Transform { 
 children [ 
    Shape { 
appearance Appearance {
              material DEF surface Material {
              diffuseColor 0.8 0.8 0.8
              ambientIntensity 0.2
              specularColor 0.4 0.4 0.4
              emissiveColor 0 0 0
              shininess 0.25
              transparency 0
            }
          }
   geometry IndexedFaceSet { 
   solid FALSE 
    coord DEF bone Coordinate{ 
     point [ 
	 -0.013773  -0.240910  -0.029655,
	 -0.018832  -0.241186  -0.032800,
	 -0.019999  -0.233907  -0.032553,
	 -0.012360  -0.233365  -0.028996,
	 -0.018479  -0.241264  -0.018114,
	 -0.012534  -0.240590  -0.023010,
	 -0.023250  -0.241093  -0.027488,
	 -0.020546  -0.225927  -0.029053,
	 -0.015151  -0.227087  -0.027099,
	 -0.025148  -0.235608  -0.027738,
	 -0.013198  -0.237444  -0.020845,
	 -0.024396  -0.241627  -0.025238,
	 -0.021605  -0.242270  -0.017118,
	 -0.017303  -0.238757  -0.017311,
	 -0.023360  -0.242545  -0.019265,
	 -0.026603  -0.236544  -0.024236,
	 -0.016196  -0.218509  -0.024334,
	 -0.024343  -0.226363  -0.025868,
	 -0.022200  -0.214869  -0.025251,
	 -0.015443  -0.228620  -0.020474,
	 -0.016404  -0.220386  -0.019316,
	 -0.017369  -0.230157  -0.017641,
	 -0.024619  -0.246723  -0.024257,
	 -0.022915  -0.239137  -0.014687,
	 -0.026465  -0.245995  -0.018410,
	 -0.023721  -0.244787  -0.018104,
	 -0.021779  -0.230847  -0.014181,
	 -0.026272  -0.227783  -0.022967,
	 -0.026341  -0.230913  -0.017303,
	 -0.027641  -0.238394  -0.018821,
	 -0.016213  -0.207342  -0.016515,
	 -0.015956  -0.206698  -0.022203,
	 -0.025997  -0.218841  -0.020889,
	 -0.021901  -0.205350  -0.023632,
	 -0.020070  -0.206379  -0.023407,
	 -0.016387  -0.207868  -0.013093,
	 -0.017033  -0.221324  -0.017244,
	 -0.026318  -0.239005  -0.015904,
	 -0.025185  -0.230715  -0.015398,
	 -0.018680  -0.222349  -0.014571,
	 -0.023106  -0.221688  -0.014260,
	 -0.025650  -0.220785  -0.016674,
	 -0.015209  -0.188405  -0.011283,
	 -0.014222  -0.188094  -0.015966,
	 -0.016369  -0.187334  -0.019767,
	 -0.025541  -0.205782  -0.018077,
	 -0.021543  -0.187354  -0.020531,
	 -0.021548  -0.207712  -0.012384,
	 -0.020844  -0.188759  -0.010236,
	 -0.024930  -0.207559  -0.014929,
	 -0.020190  -0.164859  -0.007708,
	 -0.015111  -0.166047  -0.008684,
	 -0.014494  -0.164677  -0.014065,
	 -0.016836  -0.162386  -0.018003,
	 -0.015013  -0.161820  -0.018122,
	 -0.025156  -0.187444  -0.015721,
	 -0.020734  -0.162446  -0.018189,
	 -0.023830  -0.188631  -0.012062,
	 -0.023540  -0.164468  -0.008667,
	 -0.020224  -0.132589  -0.005926,
	 -0.015561  -0.133782  -0.006295,
	 -0.013111  -0.134791  -0.012863,
	 -0.014451  -0.133607  -0.017252,
	 -0.017292  -0.132533  -0.018055,
	 -0.026221  -0.162426  -0.012406,
	 -0.020233  -0.128434  -0.017724,
	 -0.027353  -0.129418  -0.010295,
	 -0.024155  -0.131404  -0.007282,
	 -0.021268  -0.117460  -0.005391,
	 -0.016320  -0.117873  -0.005797,
	 -0.013627  -0.119155  -0.012419,
	 -0.013164  -0.117146  -0.016637,
	 -0.017298  -0.116321  -0.017786,
	 -0.020454  -0.115389  -0.017297,
	 -0.028075  -0.115518  -0.010579,
	 -0.024712  -0.117324  -0.006864,
	 -0.026730  -0.101100  -0.007445,
	 -0.021766  -0.101570  -0.004944,
	 -0.016924  -0.101970  -0.005860,
	 -0.014616  -0.101165  -0.012091,
	 -0.013646  -0.099474  -0.017803,
	 -0.022026  -0.099238  -0.016849,
	 -0.017516  -0.099740  -0.018537,
	 -0.028550  -0.099490  -0.011146,
	 -0.028864  -0.082273  -0.007679,
	 -0.029876  -0.081720  -0.011029,
	 -0.022971  -0.083565  -0.004315,
	 -0.017534  -0.084515  -0.004823,
	 -0.015531  -0.083820  -0.010612,
	 -0.020343  -0.086468  -0.018213,
	 -0.017452  -0.085827  -0.018793,
	 -0.023049  -0.084883  -0.016579,
	 -0.028159  -0.082401  -0.013907,
	 -0.029887  -0.064560  -0.006039,
	 -0.031452  -0.063658  -0.011148,
	 -0.029212  -0.064344  -0.014004,
	 -0.022576  -0.064602  -0.002370,
	 -0.017114  -0.065027  -0.002871,
	 -0.018311  -0.066550  -0.017958,
	 -0.015099  -0.065394  -0.009029,
	 -0.021150  -0.066820  -0.018375,
	 -0.023597  -0.066032  -0.016562,
	 -0.031355  -0.044504  -0.002927,
	 -0.032378  -0.041854  -0.009504,
	 -0.030387  -0.043288  -0.012721,
	 -0.023979  -0.045229  -0.015271,
	 -0.022906  -0.045875  -0.000036,
	 -0.015467  -0.047684   0.000377,
	 -0.018666  -0.047041  -0.016805,
	 -0.013337  -0.047117  -0.008188,
	 -0.021772  -0.045962  -0.017618,
	 -0.031005  -0.029474   0.000783,
	 -0.032694  -0.027153  -0.007590,
	 -0.030453  -0.027797  -0.010710,
	 -0.022933  -0.029254  -0.014982,
	 -0.021235  -0.031388   0.002354,
	 -0.010004  -0.029972  -0.001632,
	 -0.011774  -0.032679   0.003493,
	 -0.015798  -0.030500  -0.016632,
	 -0.009079  -0.031408  -0.009616,
	 -0.019168  -0.029718  -0.017226,
	 -0.029560  -0.015007   0.004809,
	 -0.033220  -0.012847  -0.006777,
	 -0.031014  -0.013579  -0.009124,
	 -0.021447  -0.016738  -0.011925,
	 -0.018159  -0.016419   0.005034,
	 -0.008711  -0.026651   0.006204,
	 -0.002931  -0.019490  -0.000379,
	 -0.004407  -0.022333   0.004442,
	 -0.003787  -0.020122  -0.004165,
	 -0.014427  -0.022226  -0.015375,
	 -0.006003  -0.024377  -0.011034,
	 -0.019450  -0.010378  -0.012166,
	 -0.027937  -0.003138   0.008744,
	 -0.033429  -0.002758  -0.005645,
	 -0.031113  -0.004041  -0.010141,
	 -0.018630  -0.012537   0.007585,
	 -0.010744  -0.019890   0.011241,
	  0.001667  -0.014988   0.000074,
	  0.000508  -0.010768  -0.009720,
	 -0.003099  -0.020090   0.008222,
	 -0.002903  -0.017856  -0.012517,
	 -0.014630  -0.014842  -0.013495,
	 -0.007186  -0.022752  -0.014053,
	 -0.008473  -0.013600  -0.011762,
	 -0.024796   0.000313  -0.012768,
	 -0.022702   0.000670  -0.013157,
	 -0.017236  -0.006673  -0.005089,
	 -0.023368   0.000055   0.011402,
	 -0.028767   0.007678   0.002565,
	 -0.032015   0.004411   0.000737,
	 -0.023827   0.007659   0.008302,
	 -0.026813   0.007681   0.005277,
	 -0.030116   0.005833  -0.006881,
	 -0.032635   0.003977  -0.002479,
	 -0.028811   0.004044  -0.011741,
	 -0.017156  -0.011036   0.008135,
	 -0.018475  -0.000618   0.010742,
	 -0.011082  -0.015979   0.011661,
	 -0.011627  -0.015564   0.003026,
	 -0.025165   0.008185  -0.012943,
	 -0.023331   0.008821  -0.013573,
	 -0.019380  -0.001712  -0.005410,
	 -0.019083   0.003560  -0.007947,
	 -0.016976  -0.001070   0.003297,
	 -0.015940  -0.009949   0.003166,
	 -0.018485   0.003557   0.010034,
	 -0.027620   0.009306  -0.000076,
	 -0.030820   0.006709  -0.003139,
	 -0.028528   0.008811  -0.002797,
	 -0.023543   0.011351   0.001126,
	 -0.014328   0.012758   0.004327,
	 -0.019197   0.013945   0.002144,
	 -0.026302   0.010026  -0.006231,
	 -0.023024   0.012101  -0.010038,
	 -0.020083   0.012054  -0.011475,
	 -0.011950   0.011744  -0.007208,
	 -0.015739   0.001788  -0.000914,
	 -0.016524   0.001777   0.003812,
	 -0.024092   0.011092  -0.003647,
	 -0.018976   0.013962  -0.002561,
	 -0.011691   0.011909  -0.001676,
	 -0.019868   0.013779  -0.005772,
     ]    } 
    coordIndex [ 
	     0,      1,      2, -1 
	     3,      0,      2, -1 
	     1,      0,      4, -1 
	     0,      5,      4, -1 
	     0,      3,      5, -1 
	     2,      1,      6, -1 
	     6,      1,      4, -1 
	     2,      7,      8, -1 
	     9,      2,      6, -1 
	     2,      9,      7, -1 
	     3,      2,      8, -1 
	     3,      8,     10, -1 
	     3,     10,      5, -1 
	    11,      6,      4, -1 
	    12,      4,     13, -1 
	    14,      4,     12, -1 
	     4,      5,     13, -1 
	    14,     11,      4, -1 
	     5,     10,     13, -1 
	     6,     11,     15, -1 
	     9,      6,     15, -1 
	     8,      7,     16, -1 
	     9,     17,      7, -1 
	     7,     17,     18, -1 
	     7,     18,     16, -1 
	     8,     19,     10, -1 
	     8,     16,     20, -1 
	    19,      8,     20, -1 
	     9,     15,     17, -1 
	    10,     19,     21, -1 
	    13,     10,     21, -1 
	    15,     11,     22, -1 
	    11,     14,     22, -1 
	    23,     12,     13, -1 
	    24,     25,     12, -1 
	    25,     14,     12, -1 
	    23,     24,     12, -1 
	    26,     23,     13, -1 
	    21,     26,     13, -1 
	    14,     25,     22, -1 
	    15,     27,     17, -1 
	    28,     27,     15, -1 
	    29,     28,     15, -1 
	    29,     15,     22, -1 
	    20,     16,     30, -1 
	    16,     31,     30, -1 
	    16,     18,     31, -1 
	    17,     27,     18, -1 
	    27,     17,     18, -1 
	    18,     27,     17, -1 
	    27,     32,     18, -1 
	    18,     33,     34, -1 
	    18,     34,     31, -1 
	    18,     32,     33, -1 
	    19,     20,     21, -1 
	    20,     30,     35, -1 
	    20,     36,     21, -1 
	    36,     20,     35, -1 
	    26,     21,     36, -1 
	    22,     25,     24, -1 
	    24,     29,     22, -1 
	    37,     24,     23, -1 
	    23,     26,     38, -1 
	    37,     23,     38, -1 
	    29,     24,     37, -1 
	    39,     26,     36, -1 
	    26,     39,     40, -1 
	    38,     26,     40, -1 
	    27,     28,     32, -1 
	    41,     28,     38, -1 
	    28,     29,     37, -1 
	    28,     41,     32, -1 
	    38,     28,     37, -1 
	    35,     30,     42, -1 
	    30,     43,     42, -1 
	    30,     31,     43, -1 
	    31,     34,     44, -1 
	    31,     44,     43, -1 
	    32,     45,     33, -1 
	    32,     41,     45, -1 
	    34,     33,     44, -1 
	    33,     46,     44, -1 
	    33,     45,     46, -1 
	    39,     35,     47, -1 
	    35,     39,     36, -1 
	    35,     42,     48, -1 
	    47,     35,     48, -1 
	    40,     41,     38, -1 
	    40,     39,     47, -1 
	    49,     41,     40, -1 
	    47,     49,     40, -1 
	    41,     49,     45, -1 
	    48,     42,     50, -1 
	    42,     51,     50, -1 
	    42,     43,     52, -1 
	    51,     42,     52, -1 
	    43,     44,     52, -1 
	    44,     53,     54, -1 
	    44,     54,     52, -1 
	    44,     46,     53, -1 
	    45,     55,     46, -1 
	    45,     49,     55, -1 
	    46,     56,     53, -1 
	    46,     55,     56, -1 
	    57,     49,     47, -1 
	    48,     57,     47, -1 
	    58,     57,     48, -1 
	    50,     58,     48, -1 
	    49,     57,     55, -1 
	    58,     50,     59, -1 
	    50,     51,     59, -1 
	    51,     60,     59, -1 
	    51,     52,     60, -1 
	    52,     61,     60, -1 
	    62,     61,     52, -1 
	    54,     62,     52, -1 
	    54,     53,     62, -1 
	    53,     63,     62, -1 
	    53,     56,     63, -1 
	    64,     55,     57, -1 
	    55,     64,     56, -1 
	    56,     65,     63, -1 
	    65,     56,     64, -1 
	    58,     64,     57, -1 
	    66,     64,     58, -1 
	    67,     58,     59, -1 
	    67,     66,     58, -1 
	    59,     60,     68, -1 
	    59,     68,     67, -1 
	    60,     69,     68, -1 
	    60,     61,     69, -1 
	    61,     70,     69, -1 
	    70,     61,     62, -1 
	    71,     62,     63, -1 
	    71,     70,     62, -1 
	    63,     65,     72, -1 
	    72,     71,     63, -1 
	    66,     65,     64, -1 
	    65,     66,     73, -1 
	    65,     73,     72, -1 
	    66,     74,     73, -1 
	    74,     66,     67, -1 
	    68,     75,     67, -1 
	    75,     74,     67, -1 
	    76,     75,     68, -1 
	    68,     69,     77, -1 
	    77,     76,     68, -1 
	    69,     78,     77, -1 
	    69,     70,     78, -1 
	    70,     79,     78, -1 
	    79,     70,     71, -1 
	    80,     71,     72, -1 
	    80,     79,     71, -1 
	    73,     81,     72, -1 
	    81,     82,     72, -1 
	    82,     80,     72, -1 
	    73,     74,     81, -1 
	    74,     83,     81, -1 
	    83,     74,     75, -1 
	    76,     83,     75, -1 
	    84,     76,     77, -1 
	    85,     83,     76, -1 
	    84,     85,     76, -1 
	    77,     78,     86, -1 
	    86,     84,     77, -1 
	    78,     87,     86, -1 
	    87,     78,     79, -1 
	    88,     79,     80, -1 
	    88,     87,     79, -1 
	    89,     90,     80, -1 
	    82,     89,     80, -1 
	    90,     88,     80, -1 
	    91,     81,     83, -1 
	    81,     91,     89, -1 
	    82,     81,     89, -1 
	    83,     85,     92, -1 
	    92,     91,     83, -1 
	    93,     84,     86, -1 
	    94,     85,     84, -1 
	    93,     94,     84, -1 
	    85,     94,     95, -1 
	    92,     85,     95, -1 
	    96,     86,     87, -1 
	    96,     93,     86, -1 
	    97,     87,     88, -1 
	    97,     96,     87, -1 
	    88,     90,     98, -1 
	    99,     88,     98, -1 
	    99,     97,     88, -1 
	    89,     91,    100, -1 
	    90,     89,    100, -1 
	    98,     90,    100, -1 
	    91,    101,    100, -1 
	   101,     91,     92, -1 
	    95,    101,     92, -1 
	   102,     93,     96, -1 
	   103,     94,     93, -1 
	   102,    103,     93, -1 
	    94,    103,    104, -1 
	    95,     94,    104, -1 
	   105,    101,     95, -1 
	   104,    105,     95, -1 
	    96,     97,    106, -1 
	   106,    102,     96, -1 
	   107,     97,     99, -1 
	    97,    107,    106, -1 
	    98,    100,    108, -1 
	   109,     99,     98, -1 
	   108,    109,     98, -1 
	   109,    107,     99, -1 
	   100,    101,    110, -1 
	   108,    100,    110, -1 
	   101,    105,    110, -1 
	   111,    102,    106, -1 
	   112,    103,    102, -1 
	   111,    112,    102, -1 
	   103,    112,    104, -1 
	   105,    104,    113, -1 
	   112,    113,    104, -1 
	   110,    105,    114, -1 
	   114,    105,    113, -1 
	   106,    107,    115, -1 
	   115,    111,    106, -1 
	   116,    107,    109, -1 
	   107,    116,    117, -1 
	   107,    117,    115, -1 
	   118,    108,    110, -1 
	   109,    108,    118, -1 
	   119,    109,    118, -1 
	   119,    116,    109, -1 
	   110,    120,    118, -1 
	   120,    110,    114, -1 
	   121,    111,    115, -1 
	   122,    112,    111, -1 
	   121,    122,    111, -1 
	   112,    122,    123, -1 
	   113,    112,    123, -1 
	   124,    114,    113, -1 
	   123,    124,    113, -1 
	   120,    114,    124, -1 
	   115,    117,    125, -1 
	   125,    121,    115, -1 
	   126,    117,    116, -1 
	   127,    128,    116, -1 
	   129,    127,    116, -1 
	   128,    126,    116, -1 
	   129,    116,    119, -1 
	   117,    126,    125, -1 
	   130,    118,    120, -1 
	   131,    119,    118, -1 
	   130,    131,    118, -1 
	   131,    129,    119, -1 
	   132,    130,    120, -1 
	   132,    120,    124, -1 
	   133,    121,    125, -1 
	   134,    122,    121, -1 
	   133,    134,    121, -1 
	   122,    134,    123, -1 
	   134,    135,    123, -1 
	   123,    135,    124, -1 
	   135,    132,    124, -1 
	   125,    126,    136, -1 
	   136,    133,    125, -1 
	   126,    137,    136, -1 
	   137,    126,    128, -1 
	   128,    127,    138, -1 
	   139,    138,    127, -1 
	   129,    139,    127, -1 
	   140,    128,    138, -1 
	   128,    140,    137, -1 
	   131,    141,    129, -1 
	   141,    139,    129, -1 
	   130,    132,    142, -1 
	   141,    143,    130, -1 
	   130,    143,    131, -1 
	   144,    141,    130, -1 
	   142,    144,    130, -1 
	   131,    143,    141, -1 
	   132,    135,    145, -1 
	   132,    145,    146, -1 
	   132,    147,    144, -1 
	   132,    146,    147, -1 
	   142,    132,    144, -1 
	   136,    148,    133, -1 
	   149,    150,    133, -1 
	   151,    152,    133, -1 
	   133,    150,    134, -1 
	   152,    149,    133, -1 
	   148,    151,    133, -1 
	   153,    134,    154, -1 
	   135,    134,    153, -1 
	   150,    154,    134, -1 
	   145,    135,    155, -1 
	   155,    135,    153, -1 
	   136,    156,    157, -1 
	   158,    156,    136, -1 
	   148,    136,    157, -1 
	   137,    158,    136, -1 
	   140,    158,    137, -1 
	   138,    139,    159, -1 
	   158,    140,    138, -1 
	   159,    158,    138, -1 
	   139,    141,    144, -1 
	   159,    139,    144, -1 
	   144,    147,    159, -1 
	   155,    160,    145, -1 
	   145,    160,    161, -1 
	   146,    145,    161, -1 
	   146,    162,    147, -1 
	   146,    161,    163, -1 
	   162,    146,    163, -1 
	   147,    162,    164, -1 
	   147,    165,    159, -1 
	   165,    147,    164, -1 
	   166,    151,    148, -1 
	   157,    166,    148, -1 
	   154,    150,    149, -1 
	   149,    152,    167, -1 
	   168,    154,    149, -1 
	   169,    168,    149, -1 
	   167,    169,    149, -1 
	   170,    152,    151, -1 
	   171,    172,    151, -1 
	   172,    170,    151, -1 
	   166,    171,    151, -1 
	   152,    170,    167, -1 
	   168,    153,    154, -1 
	   153,    168,    169, -1 
	   173,    153,    169, -1 
	   153,    173,    155, -1 
	   174,    160,    155, -1 
	   173,    174,    155, -1 
	   157,    156,    165, -1 
	   156,    158,    159, -1 
	   165,    156,    159, -1 
	   166,    157,    164, -1 
	   164,    157,    165, -1 
	   175,    161,    160, -1 
	   174,    175,    160, -1 
	   163,    161,    175, -1 
	   162,    163,    164, -1 
	   176,    163,    175, -1 
	   163,    176,    177, -1 
	   163,    177,    164, -1 
	   177,    178,    164, -1 
	   178,    166,    164, -1 
	   171,    166,    178, -1 
	   167,    170,    169, -1 
	   173,    169,    179, -1 
	   170,    179,    169, -1 
	   179,    170,    172, -1 
	   180,    172,    171, -1 
	   181,    180,    171, -1 
	   181,    171,    178, -1 
	   180,    179,    172, -1 
	   173,    179,    174, -1 
	   182,    176,    174, -1 
	   176,    175,    174, -1 
	   179,    182,    174, -1 
	   176,    181,    177, -1 
	   176,    182,    181, -1 
	   181,    178,    177, -1 
	   182,    179,    180, -1 
	   182,    180,    181, -1 
    ] 
   colorPerVertex FALSE 
    colorIndex [ 
	  1, 
	  1, 
	  1, 
	  1, 
	  1, 
	  1, 
	  1, 
	  1, 
	  1, 
	  1, 
	  1, 
	  1, 
	  1, 
	  1, 
	  1, 
	  1, 
	  1, 
	  1, 
	  1, 
	  1, 
	  1, 
	  1, 
	  1, 
	  1, 
	  1, 
	  1, 
	  1, 
	  1, 
	  1, 
	  1, 
	  1, 
	  1, 
	  1, 
	  1, 
	  1, 
	  1, 
	  1, 
	  1, 
	  1, 
	  1, 
	  1, 
	  1, 
	  1, 
	  1, 
	  1, 
	  1, 
	  1, 
	  1, 
	  1, 
	  1, 
	  1, 
	  1, 
	  1, 
	  1, 
	  1, 
	  1, 
	  1, 
	  1, 
	  1, 
	  1, 
	  1, 
	  1, 
	  1, 
	  1, 
	  1, 
	  1, 
	  1, 
	  1, 
	  1, 
	  1, 
	  1, 
	  1, 
	  1, 
	  1, 
	  1, 
	  1, 
	  1, 
	  1, 
	  1, 
	  1, 
	  1, 
	  1, 
	  1, 
	  1, 
	  1, 
	  1, 
	  1, 
	  1, 
	  1, 
	  1, 
	  1, 
	  1, 
	  1, 
	  1, 
	  1, 
	  1, 
	  1, 
	  1, 
	  1, 
	  1, 
	  1, 
	  1, 
	  1, 
	  1, 
	  1, 
	  1, 
	  1, 
	  1, 
	  1, 
	  1, 
	  1, 
	  1, 
	  1, 
	  1, 
	  1, 
	  1, 
	  1, 
	  1, 
	  1, 
	  1, 
	  1, 
	  1, 
	  1, 
	  1, 
	  1, 
	  1, 
	  1, 
	  1, 
	  1, 
	  1, 
	  1, 
	  1, 
	  1, 
	  1, 
	  1, 
	  1, 
	  1, 
	  1, 
	  1, 
	  1, 
	  1, 
	  1, 
	  1, 
	  1, 
	  1, 
	  1, 
	  1, 
	  1, 
	  1, 
	  1, 
	  1, 
	  1, 
	  1, 
	  1, 
	  1, 
	  1, 
	  1, 
	  1, 
	  1, 
	  1, 
	  1, 
	  1, 
	  1, 
	  1, 
	  1, 
	  1, 
	  1, 
	  1, 
	  1, 
	  1, 
	  1, 
	  1, 
	  1, 
	  1, 
	  1, 
	  1, 
	  1, 
	  1, 
	  1, 
	  1, 
	  1, 
	  1, 
	  1, 
    ] 
normal Normal { 
vector [ 
	  0.600977  -0.583998  -0.545686,
	 -0.085612  -0.796504  -0.598542,
	 -0.071674   0.146573  -0.986600,
	  0.910919   0.168821  -0.376465,
	  0.270342  -0.951600   0.146193,
	  0.827157  -0.458203   0.325363,
	 -0.605549  -0.609406  -0.511796,
	 -0.172318   0.329983  -0.928126,
	  0.873194   0.332732  -0.356119,
	 -0.786658   0.008459  -0.617331,
	  0.884278   0.099836   0.456163,
	  0.007167  -0.803419  -0.595371,
	  0.448793  -0.689043   0.569039,
	  0.554014  -0.256630   0.791965,
	  0.758404  -0.598652  -0.257758,
	 -0.922385  -0.052121  -0.382740,
	  0.827754   0.185715  -0.529465,
	 -0.755455   0.149522  -0.637911,
	 -0.059209   0.201959  -0.977603,
	  0.925572   0.139160   0.352066,
	  0.981799   0.000491   0.189922,
	  0.760329   0.025339   0.649044,
	 -0.093227  -0.774792  -0.625304,
	  0.005134  -0.263818   0.964559,
	 -0.370208  -0.596623   0.712030,
	  0.736563  -0.654561   0.170368,
	  0.315298  -0.076236   0.945926,
	 -0.977622   0.049959  -0.204352,
	 -0.973757   0.074560   0.215031,
	 -0.998426  -0.043095   0.035881,
	  0.996123  -0.058262   0.065914,
	  0.747744   0.075723  -0.659656,
	 -0.960596   0.093873  -0.261615,
	 -0.381627   0.168577  -0.908814,
	  0.246214   0.140906  -0.958918,
	  0.747081  -0.128044   0.652284,
	  0.882184  -0.145775   0.447774,
	 -0.725415  -0.062432   0.685475,
	 -0.595310   0.019523   0.803259,
	  0.451118  -0.163883   0.877289,
	 -0.389681  -0.034373   0.920308,
	 -0.909578   0.023739   0.414855,
	  0.785899  -0.090892   0.611639,
	  0.993646  -0.018478  -0.111027,
	  0.494119   0.095735  -0.864107,
	 -0.974489   0.069251  -0.213483,
	 -0.404915   0.118829  -0.906600,
	 -0.252031  -0.103032   0.962219,
	 -0.144509  -0.107341   0.983664,
	 -0.844514  -0.027440   0.534831,
	 -0.007941  -0.086958   0.996180,
	  0.598380  -0.063572   0.798686,
	  0.999182  -0.014936  -0.037586,
	  0.058956   0.044862  -0.997252,
	  0.622228   0.014742  -0.782697,
	 -0.980228   0.028905  -0.195747,
	 -0.411599   0.049221  -0.910035,
	 -0.760080  -0.073611   0.645647,
	 -0.562993  -0.071482   0.823365,
	 -0.111303  -0.053422   0.992350,
	  0.628153  -0.030407   0.777496,
	  0.994568   0.000856   0.104090,
	  0.774690  -0.006970  -0.632303,
	  0.116272   0.010690  -0.993160,
	 -0.990977  -0.023821  -0.131896,
	 -0.442924   0.019737  -0.896342,
	 -0.998904  -0.034200  -0.031946,
	 -0.549208  -0.044152   0.834519,
	 -0.198810  -0.035040   0.979411,
	  0.611358   0.009491   0.791298,
	  0.984412   0.019392   0.174803,
	  0.832960  -0.003568  -0.553322,
	 -0.003093  -0.010297  -0.999942,
	 -0.488955  -0.008342  -0.872269,
	 -0.997576  -0.049816  -0.048590,
	 -0.665763  -0.042778   0.744936,
	 -0.730191  -0.066285   0.680020,
	 -0.168767  -0.031630   0.985148,
	  0.628129   0.005115   0.778092,
	  0.966473   0.034493   0.254440,
	  0.658901   0.031502  -0.751570,
	 -0.490590  -0.033687  -0.870739,
	 -0.088198  -0.020571  -0.995891,
	 -0.964497  -0.079731  -0.251770,
	 -0.781554  -0.086525   0.617808,
	 -0.989420  -0.082357  -0.119434,
	 -0.196685  -0.076442   0.977482,
	  0.609820  -0.055531   0.790592,
	  0.998352   0.038495   0.042564,
	 -0.274522  -0.030152  -0.961108,
	  0.434879   0.053862  -0.898877,
	 -0.549668  -0.039898  -0.834430,
	 -0.649537  -0.058764  -0.758056,
	 -0.788673  -0.108686   0.605130,
	 -0.984017  -0.055801  -0.169105,
	 -0.629533  -0.013189  -0.776862,
	 -0.170615  -0.120518   0.977940,
	  0.590355  -0.131772   0.796315,
	  0.759072   0.027006  -0.650447,
	  0.996132  -0.077790   0.040857,
	 -0.209625   0.015805  -0.977654,
	 -0.539870   0.005298  -0.841732,
	 -0.783723  -0.126986   0.607991,
	 -0.993024  -0.029101  -0.114267,
	 -0.691273   0.048685  -0.720952,
	 -0.513982   0.058222  -0.855823,
	 -0.164895  -0.156357   0.973839,
	  0.645456  -0.239199   0.725376,
	  0.508055  -0.004785  -0.861312,
	  0.960688  -0.160409  -0.226601,
	 -0.296335   0.033372  -0.954501,
	 -0.714147  -0.129341   0.687943,
	 -0.955365   0.009626  -0.295271,
	 -0.541015   0.109945  -0.833796,
	 -0.528756   0.148132  -0.835748,
	 -0.132672  -0.170084   0.976458,
	  0.888659  -0.447383   0.100671,
	  0.334188  -0.360622   0.870787,
	  0.493142  -0.100767  -0.864093,
	  0.888854  -0.396223  -0.230100,
	 -0.230001   0.162507  -0.959526,
	 -0.626245  -0.149910   0.765078,
	 -0.990524  -0.002969  -0.137307,
	 -0.651141   0.008069  -0.758914,
	 -0.392877   0.121872  -0.911480,
	 -0.286092  -0.324896   0.901440,
	  0.139680  -0.678846   0.720873,
	  0.789661  -0.589536  -0.169949,
	  0.701878  -0.680742   0.209661,
	  0.884566  -0.466033  -0.018863,
	  0.158482   0.068583  -0.984977,
	  0.708662  -0.490820  -0.506847,
	 -0.000247   0.244312  -0.969696,
	 -0.674233  -0.023929   0.738131,
	 -0.991682   0.055012  -0.116365,
	 -0.590263   0.003605  -0.807203,
	 -0.401159  -0.332398   0.853570,
	 -0.020548  -0.500592   0.865440,
	  0.959838   0.175199   0.219127,
	  0.890037   0.246527  -0.383481,
	  0.620702  -0.339392   0.706783,
	  0.645955  -0.120311  -0.753835,
	  0.113689   0.313090  -0.942894,
	  0.371780  -0.479616  -0.794826,
	  0.226091   0.672815  -0.704417,
	 -0.253267  -0.091507  -0.963059,
	  0.648226   0.034370  -0.760671,
	  0.847799   0.495746  -0.188344,
	 -0.140809   0.040212   0.989220,
	 -0.727320   0.616226   0.302110,
	 -0.907846   0.248967   0.337389,
	 -0.356133   0.585650   0.728137,
	 -0.597317   0.638815   0.484900,
	 -0.801974   0.482138  -0.352677,
	 -0.896674   0.439893  -0.049703,
	 -0.702403   0.366415  -0.610221,
	  0.555633   0.383887   0.737498,
	  0.655673  -0.029393   0.754473,
	  0.138167   0.541147   0.829500,
	  0.419318   0.888083   0.188366,
	 -0.478800   0.445300  -0.756610,
	  0.149666   0.124783  -0.980831,
	  0.942318   0.077934  -0.325520,
	  0.744212  -0.348791  -0.569643,
	  0.994524  -0.102404  -0.020881,
	  0.938334   0.307141   0.158727,
	  0.634937   0.137860   0.760165,
	 -0.536922   0.822276   0.188618,
	 -0.757992   0.649143  -0.063728,
	 -0.596222   0.801927  -0.037845,
	 -0.485713   0.854030   0.186320,
	  0.536931   0.649921   0.537874,
	 -0.313132   0.921843   0.228373,
	 -0.624848   0.760148  -0.178154,
	 -0.422646   0.871787  -0.247704,
	  0.115372   0.573093  -0.811329,
	  0.710917   0.467262  -0.525607,
	  0.859802  -0.493775  -0.130108,
	  0.929628  -0.230869   0.287213,
	 -0.488806   0.871861   0.030442,
	 -0.043308   0.998966  -0.013845,
	  0.871968   0.481968   0.085903,
	 -0.077070   0.991260  -0.107071,
     ]    } 
normalIndex      [ 
	     0,      1,      2, -1 
	     3,      0,      2, -1 
	     1,      0,      4, -1 
	     0,      5,      4, -1 
	     0,      3,      5, -1 
	     2,      1,      6, -1 
	     6,      1,      4, -1 
	     2,      7,      8, -1 
	     9,      2,      6, -1 
	     2,      9,      7, -1 
	     3,      2,      8, -1 
	     3,      8,     10, -1 
	     3,     10,      5, -1 
	    11,      6,      4, -1 
	    12,      4,     13, -1 
	    14,      4,     12, -1 
	     4,      5,     13, -1 
	    14,     11,      4, -1 
	     5,     10,     13, -1 
	     6,     11,     15, -1 
	     9,      6,     15, -1 
	     8,      7,     16, -1 
	     9,     17,      7, -1 
	     7,     17,     18, -1 
	     7,     18,     16, -1 
	     8,     19,     10, -1 
	     8,     16,     20, -1 
	    19,      8,     20, -1 
	     9,     15,     17, -1 
	    10,     19,     21, -1 
	    13,     10,     21, -1 
	    15,     11,     22, -1 
	    11,     14,     22, -1 
	    23,     12,     13, -1 
	    24,     25,     12, -1 
	    25,     14,     12, -1 
	    23,     24,     12, -1 
	    26,     23,     13, -1 
	    21,     26,     13, -1 
	    14,     25,     22, -1 
	    15,     27,     17, -1 
	    28,     27,     15, -1 
	    29,     28,     15, -1 
	    29,     15,     22, -1 
	    20,     16,     30, -1 
	    16,     31,     30, -1 
	    16,     18,     31, -1 
	    17,     27,     18, -1 
	    27,     17,     18, -1 
	    18,     27,     17, -1 
	    27,     32,     18, -1 
	    18,     33,     34, -1 
	    18,     34,     31, -1 
	    18,     32,     33, -1 
	    19,     20,     21, -1 
	    20,     30,     35, -1 
	    20,     36,     21, -1 
	    36,     20,     35, -1 
	    26,     21,     36, -1 
	    22,     25,     24, -1 
	    24,     29,     22, -1 
	    37,     24,     23, -1 
	    23,     26,     38, -1 
	    37,     23,     38, -1 
	    29,     24,     37, -1 
	    39,     26,     36, -1 
	    26,     39,     40, -1 
	    38,     26,     40, -1 
	    27,     28,     32, -1 
	    41,     28,     38, -1 
	    28,     29,     37, -1 
	    28,     41,     32, -1 
	    38,     28,     37, -1 
	    35,     30,     42, -1 
	    30,     43,     42, -1 
	    30,     31,     43, -1 
	    31,     34,     44, -1 
	    31,     44,     43, -1 
	    32,     45,     33, -1 
	    32,     41,     45, -1 
	    34,     33,     44, -1 
	    33,     46,     44, -1 
	    33,     45,     46, -1 
	    39,     35,     47, -1 
	    35,     39,     36, -1 
	    35,     42,     48, -1 
	    47,     35,     48, -1 
	    40,     41,     38, -1 
	    40,     39,     47, -1 
	    49,     41,     40, -1 
	    47,     49,     40, -1 
	    41,     49,     45, -1 
	    48,     42,     50, -1 
	    42,     51,     50, -1 
	    42,     43,     52, -1 
	    51,     42,     52, -1 
	    43,     44,     52, -1 
	    44,     53,     54, -1 
	    44,     54,     52, -1 
	    44,     46,     53, -1 
	    45,     55,     46, -1 
	    45,     49,     55, -1 
	    46,     56,     53, -1 
	    46,     55,     56, -1 
	    57,     49,     47, -1 
	    48,     57,     47, -1 
	    58,     57,     48, -1 
	    50,     58,     48, -1 
	    49,     57,     55, -1 
	    58,     50,     59, -1 
	    50,     51,     59, -1 
	    51,     60,     59, -1 
	    51,     52,     60, -1 
	    52,     61,     60, -1 
	    62,     61,     52, -1 
	    54,     62,     52, -1 
	    54,     53,     62, -1 
	    53,     63,     62, -1 
	    53,     56,     63, -1 
	    64,     55,     57, -1 
	    55,     64,     56, -1 
	    56,     65,     63, -1 
	    65,     56,     64, -1 
	    58,     64,     57, -1 
	    66,     64,     58, -1 
	    67,     58,     59, -1 
	    67,     66,     58, -1 
	    59,     60,     68, -1 
	    59,     68,     67, -1 
	    60,     69,     68, -1 
	    60,     61,     69, -1 
	    61,     70,     69, -1 
	    70,     61,     62, -1 
	    71,     62,     63, -1 
	    71,     70,     62, -1 
	    63,     65,     72, -1 
	    72,     71,     63, -1 
	    66,     65,     64, -1 
	    65,     66,     73, -1 
	    65,     73,     72, -1 
	    66,     74,     73, -1 
	    74,     66,     67, -1 
	    68,     75,     67, -1 
	    75,     74,     67, -1 
	    76,     75,     68, -1 
	    68,     69,     77, -1 
	    77,     76,     68, -1 
	    69,     78,     77, -1 
	    69,     70,     78, -1 
	    70,     79,     78, -1 
	    79,     70,     71, -1 
	    80,     71,     72, -1 
	    80,     79,     71, -1 
	    73,     81,     72, -1 
	    81,     82,     72, -1 
	    82,     80,     72, -1 
	    73,     74,     81, -1 
	    74,     83,     81, -1 
	    83,     74,     75, -1 
	    76,     83,     75, -1 
	    84,     76,     77, -1 
	    85,     83,     76, -1 
	    84,     85,     76, -1 
	    77,     78,     86, -1 
	    86,     84,     77, -1 
	    78,     87,     86, -1 
	    87,     78,     79, -1 
	    88,     79,     80, -1 
	    88,     87,     79, -1 
	    89,     90,     80, -1 
	    82,     89,     80, -1 
	    90,     88,     80, -1 
	    91,     81,     83, -1 
	    81,     91,     89, -1 
	    82,     81,     89, -1 
	    83,     85,     92, -1 
	    92,     91,     83, -1 
	    93,     84,     86, -1 
	    94,     85,     84, -1 
	    93,     94,     84, -1 
	    85,     94,     95, -1 
	    92,     85,     95, -1 
	    96,     86,     87, -1 
	    96,     93,     86, -1 
	    97,     87,     88, -1 
	    97,     96,     87, -1 
	    88,     90,     98, -1 
	    99,     88,     98, -1 
	    99,     97,     88, -1 
	    89,     91,    100, -1 
	    90,     89,    100, -1 
	    98,     90,    100, -1 
	    91,    101,    100, -1 
	   101,     91,     92, -1 
	    95,    101,     92, -1 
	   102,     93,     96, -1 
	   103,     94,     93, -1 
	   102,    103,     93, -1 
	    94,    103,    104, -1 
	    95,     94,    104, -1 
	   105,    101,     95, -1 
	   104,    105,     95, -1 
	    96,     97,    106, -1 
	   106,    102,     96, -1 
	   107,     97,     99, -1 
	    97,    107,    106, -1 
	    98,    100,    108, -1 
	   109,     99,     98, -1 
	   108,    109,     98, -1 
	   109,    107,     99, -1 
	   100,    101,    110, -1 
	   108,    100,    110, -1 
	   101,    105,    110, -1 
	   111,    102,    106, -1 
	   112,    103,    102, -1 
	   111,    112,    102, -1 
	   103,    112,    104, -1 
	   105,    104,    113, -1 
	   112,    113,    104, -1 
	   110,    105,    114, -1 
	   114,    105,    113, -1 
	   106,    107,    115, -1 
	   115,    111,    106, -1 
	   116,    107,    109, -1 
	   107,    116,    117, -1 
	   107,    117,    115, -1 
	   118,    108,    110, -1 
	   109,    108,    118, -1 
	   119,    109,    118, -1 
	   119,    116,    109, -1 
	   110,    120,    118, -1 
	   120,    110,    114, -1 
	   121,    111,    115, -1 
	   122,    112,    111, -1 
	   121,    122,    111, -1 
	   112,    122,    123, -1 
	   113,    112,    123, -1 
	   124,    114,    113, -1 
	   123,    124,    113, -1 
	   120,    114,    124, -1 
	   115,    117,    125, -1 
	   125,    121,    115, -1 
	   126,    117,    116, -1 
	   127,    128,    116, -1 
	   129,    127,    116, -1 
	   128,    126,    116, -1 
	   129,    116,    119, -1 
	   117,    126,    125, -1 
	   130,    118,    120, -1 
	   131,    119,    118, -1 
	   130,    131,    118, -1 
	   131,    129,    119, -1 
	   132,    130,    120, -1 
	   132,    120,    124, -1 
	   133,    121,    125, -1 
	   134,    122,    121, -1 
	   133,    134,    121, -1 
	   122,    134,    123, -1 
	   134,    135,    123, -1 
	   123,    135,    124, -1 
	   135,    132,    124, -1 
	   125,    126,    136, -1 
	   136,    133,    125, -1 
	   126,    137,    136, -1 
	   137,    126,    128, -1 
	   128,    127,    138, -1 
	   139,    138,    127, -1 
	   129,    139,    127, -1 
	   140,    128,    138, -1 
	   128,    140,    137, -1 
	   131,    141,    129, -1 
	   141,    139,    129, -1 
	   130,    132,    142, -1 
	   141,    143,    130, -1 
	   130,    143,    131, -1 
	   144,    141,    130, -1 
	   142,    144,    130, -1 
	   131,    143,    141, -1 
	   132,    135,    145, -1 
	   132,    145,    146, -1 
	   132,    147,    144, -1 
	   132,    146,    147, -1 
	   142,    132,    144, -1 
	   136,    148,    133, -1 
	   149,    150,    133, -1 
	   151,    152,    133, -1 
	   133,    150,    134, -1 
	   152,    149,    133, -1 
	   148,    151,    133, -1 
	   153,    134,    154, -1 
	   135,    134,    153, -1 
	   150,    154,    134, -1 
	   145,    135,    155, -1 
	   155,    135,    153, -1 
	   136,    156,    157, -1 
	   158,    156,    136, -1 
	   148,    136,    157, -1 
	   137,    158,    136, -1 
	   140,    158,    137, -1 
	   138,    139,    159, -1 
	   158,    140,    138, -1 
	   159,    158,    138, -1 
	   139,    141,    144, -1 
	   159,    139,    144, -1 
	   144,    147,    159, -1 
	   155,    160,    145, -1 
	   145,    160,    161, -1 
	   146,    145,    161, -1 
	   146,    162,    147, -1 
	   146,    161,    163, -1 
	   162,    146,    163, -1 
	   147,    162,    164, -1 
	   147,    165,    159, -1 
	   165,    147,    164, -1 
	   166,    151,    148, -1 
	   157,    166,    148, -1 
	   154,    150,    149, -1 
	   149,    152,    167, -1 
	   168,    154,    149, -1 
	   169,    168,    149, -1 
	   167,    169,    149, -1 
	   170,    152,    151, -1 
	   171,    172,    151, -1 
	   172,    170,    151, -1 
	   166,    171,    151, -1 
	   152,    170,    167, -1 
	   168,    153,    154, -1 
	   153,    168,    169, -1 
	   173,    153,    169, -1 
	   153,    173,    155, -1 
	   174,    160,    155, -1 
	   173,    174,    155, -1 
	   157,    156,    165, -1 
	   156,    158,    159, -1 
	   165,    156,    159, -1 
	   166,    157,    164, -1 
	   164,    157,    165, -1 
	   175,    161,    160, -1 
	   174,    175,    160, -1 
	   163,    161,    175, -1 
	   162,    163,    164, -1 
	   176,    163,    175, -1 
	   163,    176,    177, -1 
	   163,    177,    164, -1 
	   177,    178,    164, -1 
	   178,    166,    164, -1 
	   171,    166,    178, -1 
	   167,    170,    169, -1 
	   173,    169,    179, -1 
	   170,    179,    169, -1 
	   179,    170,    172, -1 
	   180,    172,    171, -1 
	   181,    180,    171, -1 
	   181,    171,    178, -1 
	   180,    179,    172, -1 
	   173,    179,    174, -1 
	   182,    176,    174, -1 
	   176,    175,    174, -1 
	   179,    182,    174, -1 
	   176,    181,    177, -1 
	   176,    182,    181, -1 
	   181,    178,    177, -1 
	   182,    179,    180, -1 
	   182,    180,    181, -1 
    ] 
normalPerVertex  TRUE 
   } 
  } 
 ] 
} 
