# 
# Wavefront OBJ file
# Converted by the DEEP Exploration 2.00.1211
# Right Hemisphere, LTD
# http://www.righthemisphere.com/
# 
mtllib upperarms.mtl
# object Object #0
g Object__0
v -0.012369 0.28689 0.228375
v -0.022851 0.285712 0.224929
v -0.017801 0.276874 0.224803
v -0.005594 0.275996 0.225554
v -0.005515 0.288705 0.22716
v -0.013432 0.294258 0.224407
v -0.022641 0.273217 0.217805
v -0.02629 0.283903 0.218569
v -0.020821 0.293305 0.219734
v -0.016529 0.270656 0.222434
v -0.006701 0.2691 0.223675
v -0.021019 0.268099 0.217036
v 0.000335 0.269198 0.219777
v 0.001787 0.277972 0.220439
v 0.004379 0.288785 0.220659
v 0.005019 0.296219 0.217676
v -0.008116 0.296038 0.22478
v -0.014497 0.297528 0.220257
v -0.027387 0.285382 0.211546
v -0.030949 0.28276 0.205322
v -0.028026 0.278825 0.205117
v -0.024464 0.292858 0.216047
v -0.0142 0.259426 0.220373
v -0.007191 0.258792 0.221397
v -0.019811 0.259235 0.214941
v -0.001187 0.25915 0.218546
v -0.023845 0.269237 0.205014
v 0.002639 0.268637 0.212462
v 0.004454 0.279473 0.213216
v 0.004094 0.288323 0.213869
v 0.004813 0.296732 0.210836
v 0.001506 0.300075 0.209809
v -0.001442 0.301021 0.213847
v -0.010716 0.300412 0.218819
v -0.017388 0.298998 0.21742
v -0.026602 0.294321 0.211006
v -0.028158 0.296506 0.202965
v -0.031533 0.287893 0.204098
v -0.030786 0.286518 0.193545
v -0.031482 0.279949 0.194216
v -0.02852 0.276827 0.194762
v -0.018837 0.248827 0.213997
v -0.015454 0.249399 0.218363
v -0.008179 0.248986 0.21991
v -0.021967 0.258141 0.2045
v -0.021537 0.249292 0.204352
v 0.000946 0.260431 0.211057
v -0.00169 0.24854 0.217291
v -0.023385 0.267185 0.19768
v 0.007304 0.266971 0.205893
v 0.011786 0.276292 0.207465
v 0.014173 0.282846 0.209453
v 0.013646 0.285472 0.210981
v 0.008507 0.294887 0.194649
v 0.014216 0.287658 0.205012
v -0.004449 0.304175 0.20727
v 0.003185 0.300823 0.197712
v -0.009958 0.304382 0.211422
v -0.020489 0.301868 0.210072
v -0.021968 0.302745 0.201824
v -0.021782 0.301384 0.192921
v -0.027422 0.295665 0.192647
v -0.021105 0.292187 0.183015
v -0.022236 0.283934 0.181466
v -0.023179 0.275011 0.182812
v -0.022451 0.27154 0.186038
v -0.019285 0.265425 0.190119
v -0.021446 0.225587 0.206531
v -0.019244 0.225482 0.212811
v -0.015526 0.226013 0.216525
v -0.009014 0.225925 0.217573
v -0.021377 0.259262 0.198061
v -0.020729 0.249954 0.199209
v -0.000177 0.247762 0.209698
v 0.004666 0.260207 0.205791
v -0.001954 0.226509 0.214477
v -0.017797 0.259604 0.191772
v 0.008257 0.267349 0.199701
v 0.01141 0.27461 0.198135
v 0.015449 0.280793 0.200446
v 0.005917 0.29179 0.187531
v 0.000799 0.298455 0.188689
v 0.010319 0.288432 0.192614
v 0.006783 0.28249 0.18839
v -0.011008 0.305676 0.206502
v -0.008595 0.30523 0.202781
v -0.002674 0.304028 0.199148
v -0.013796 0.305927 0.205553
v -0.015753 0.30612 0.201077
v -0.015568 0.305438 0.196355
v -0.012275 0.304282 0.192808
v -0.016643 0.300318 0.187546
v -0.011252 0.300751 0.186794
v -0.012781 0.29255 0.180555
v -0.013917 0.282687 0.178039
v -0.013966 0.274608 0.178695
v -0.012352 0.270692 0.182351
v -0.011374 0.265974 0.18665
v -0.010307 0.260671 0.189391
v -0.022026 0.205191 0.207597
v -0.019989 0.225739 0.200022
v -0.020614 0.20532 0.200825
v -0.019628 0.205359 0.213578
v -0.015184 0.20566 0.216403
v -0.009172 0.205899 0.216419
v -0.016288 0.250117 0.193341
v -0.014879 0.226262 0.19536
v 0.001593 0.24655 0.204238
v 0.001144 0.225737 0.207936
v 0.004979 0.260296 0.200485
v -0.001686 0.204629 0.213497
v -0.00894 0.248879 0.192406
v 0.001607 0.267602 0.193757
v 0.006252 0.27605 0.19219
v 0.001634 0.279454 0.181865
v -0.001036 0.287809 0.180777
v -0.00306 0.295867 0.184078
v -0.005393 0.302148 0.189877
v 0.001424 0.276191 0.185996
v -0.008109 0.305382 0.198763
v -0.009379 0.304877 0.195015
v -0.001259 0.267216 0.18995
v -0.001904 0.260738 0.192981
v -0.00261 0.246903 0.19506
v -0.023084 0.17529 0.207343
v -0.021144 0.175737 0.200754
v -0.015482 0.205587 0.196172
v -0.015532 0.176034 0.195766
v -0.020136 0.175511 0.213507
v -0.015822 0.175466 0.215828
v -0.008773 0.175935 0.215333
v -0.005693 0.225981 0.194916
v -0.00646 0.204255 0.195802
v 0.001608 0.24615 0.200311
v -0.00034 0.225814 0.199188
v 0.001566 0.203546 0.207637
v -0.002029 0.175246 0.211923
v -0.002285 0.225818 0.196564
v -0.020614 0.148049 0.19992
v -0.022302 0.147621 0.206475
v -0.007638 0.176182 0.195746
v -0.009308 0.149079 0.194653
v -0.015767 0.148551 0.195295
v -0.019528 0.147781 0.21135
v -0.016829 0.148776 0.213061
v -0.009237 0.149429 0.21362
v -0.00199 0.204522 0.199656
v 0.000331 0.175725 0.207307
v -0.002235 0.14897 0.210744
v -0.015388 0.117412 0.193323
v -0.019823 0.115915 0.198469
v -0.022117 0.115676 0.204578
v -0.016602 0.114985 0.210244
v -0.00271 0.175743 0.200617
v -0.004723 0.14885 0.199043
v -0.009007 0.118438 0.192409
v -0.004698 0.118454 0.196825
v -0.008704 0.116728 0.20955
v -0.002382 0.118394 0.206501
v -0.0004 0.148934 0.205545
v -0.010278 0.083273 0.191395
v -0.014486 0.083706 0.191685
v -0.018872 0.083299 0.197816
v -0.020698 0.081823 0.204709
v -0.017339 0.082787 0.213498
v -0.000145 0.117547 0.204399
v -0.005489 0.083307 0.195475
v -0.001538 0.0834 0.203093
v -0.011855 0.083202 0.210126
v -0.008198 0.083401 0.207799
v -0.003494 0.083819 0.204951
v -0.006056 0.056312 0.194756
v -0.011849 0.055129 0.190339
v -0.015564 0.05487 0.191911
v -0.018897 0.055426 0.200483
v -0.018633 0.055926 0.206468
v -0.015328 0.059009 0.218157
v -0.001328 0.058118 0.20016
v -0.004164 0.05853 0.205642
v -0.011934 0.059291 0.214265
v -0.009099 0.058832 0.209825
v 0.000117 0.038945 0.20164
v -0.003178 0.037754 0.195264
v -0.010967 0.037086 0.188204
v -0.014307 0.036362 0.190266
v -0.016086 0.035388 0.203441
v -0.016334 0.035725 0.213179
v -0.013374 0.039637 0.223546
v -0.015599 0.037466 0.223255
v -0.004069 0.03827 0.209421
v -0.00997 0.040117 0.220966
v -0.00772 0.038116 0.216714
v -0.002291 0.026345 0.211761
v 0.000582 0.020695 0.191636
v 0.001473 0.020407 0.196001
v 0.000694 0.021546 0.200523
v 0.000908 0.02257 0.205337
v -0.001997 0.022476 0.189269
v -0.007692 0.027063 0.185088
v -0.010638 0.027332 0.184947
v -0.013263 0.026902 0.186638
v -0.012945 0.020505 0.196634
v -0.013306 0.022792 0.202878
v -0.013624 0.021094 0.207216
v -0.013787 0.025154 0.227061
v -0.014617 0.016504 0.212562
v -0.016298 0.021086 0.220198
v -0.010896 0.025738 0.228393
v -0.00491 0.025911 0.218252
v -0.007466 0.026727 0.226101
v -0.005957 0.025611 0.22032
v -0.000791 0.019396 0.213788
v 0.001427 0.016504 0.189622
v -0.000535 0.014188 0.19499
v -0.001592 0.013773 0.200412
v 0.003285 0.013911 0.207114
v -0.005602 0.01923 0.180453
v -0.00104 0.018257 0.186187
v -0.009573 0.019072 0.178369
v -0.012678 0.019424 0.180875
v -0.013451 0.017987 0.193409
v -0.00829 0.016223 0.197257
v -0.007727 0.017223 0.201874
v -0.00561 0.014347 0.204086
v -0.00572 0.011243 0.205307
v -0.0155 0.01175 0.220541
v -0.013511 0.014497 0.226071
v -0.010125 0.014453 0.22919
v -0.015457 0.010751 0.214538
v -0.005692 0.014441 0.230762
v -8e-005 0.017768 0.22023
v -0.003784 0.016235 0.229275
v -0.001422 0.016832 0.225141
v 0.001654 0.012774 0.215538
v 0.001134 0.01126 0.182556
v 0.004683 0.009671 0.188196
v 0.003178 0.009249 0.194208
v 0.003069 0.008613 0.198715
v 0.005683 0.010456 0.207216
v -0.003312 0.01246 0.175999
v -0.009707 0.01361 0.172336
v -0.013256 0.013945 0.175431
v -0.013538 0.012282 0.187641
v -0.007488 0.01042 0.194012
v -0.004118 0.009646 0.200694
v -0.009334 0.003422 0.206962
v -0.008719 0.000688 0.202279
v -0.014377 0.000658 0.214611
v -0.012637 0.000924 0.217789
v -0.010443 0.002408 0.224742
v -0.007516 0.009067 0.230254
v -0.009309 2.4e-005 0.207123
v -0.00375 0.01141 0.232188
v 0.004946 0.0138 0.222149
v 0.000635 0.010471 0.231113
v 0.003374 0.013434 0.226038
v 0.007243 0.009606 0.215989
v 0.005443 0.008793 0.212059
v 0.00085 0.00596 0.181266
v -0.001557 0.006792 0.173933
v 0.008782 0.005 0.186552
v 0.008609 0.004151 0.192404
v 0.007287 0.004248 0.198096
v 0.009542 0.006033 0.205851
v -0.009686 0.007478 0.168945
v -0.012018 0.005759 0.170142
v -0.014185 0.008235 0.178722
v -0.012224 0.005932 0.189613
v -0.012827 0.002066 0.192511
v -0.008271 0.004425 0.196251
v -0.010322 -0.002272 0.196594
v -0.007623 -0.00836 0.195468
v -0.007385 -0.004249 0.207068
v -0.006326 -0.004833 0.203009
v -0.010553 -0.005577 0.213877
v -0.008817 -0.002499 0.217357
v -0.005455 0.002949 0.23077
v -0.003331 -0.001788 0.229514
v -0.005236 -0.003336 0.225279
v -0.007088 -0.00269 0.222131
v -0.00108 0.007356 0.232531
v 0.009836 0.011359 0.222043
v -0.001251 0.003748 0.231847
v 0.004756 0.009625 0.228207
v 0.008644 0.009244 0.226635
v 0.011306 0.006056 0.216657
v 0.007748 0.004767 0.211156
v 0.00024 0.000949 0.181591
v -0.003225 0.000686 0.1755
v -0.00836 0.000872 0.170928
v 0.009369 -0.000544 0.183843
v 0.00978 -0.000783 0.190372
v 0.007366 -0.000193 0.198041
v 0.010522 0.001103 0.204384
v -0.013116 0.002051 0.171515
v -0.013376 0.003576 0.17805
v -0.014188 -0.003072 0.191101
v -0.011393 -0.001926 0.18725
v -0.010212 -0.010657 0.188828
v -0.003181 -0.013061 0.192463
v -0.001774 -0.007887 0.201753
v -0.002407 -0.00803 0.206577
v -0.005564 -0.00908 0.213629
v -0.003451 -0.00669 0.216912
v -0.00266 -0.004003 0.225764
v 0.004726 -0.002028 0.226383
v -0.00165 -0.007654 0.220135
v 0.010562 0.005738 0.227259
v 0.013501 0.006214 0.222329
v 0.006552 0.003579 0.227415
v 0.011335 0.001069 0.215848
v 0.007978 0.001644 0.211016
v 0.008411 -0.006135 0.183197
v -0.000175 -0.003254 0.181851
v -0.004282 -0.003797 0.176647
v -0.010017 -0.000833 0.171235
v -0.011597 -0.000169 0.171686
v 0.00848 -0.006364 0.191087
v 0.006138 -0.003938 0.198389
v 0.009156 -0.003703 0.20506
v -0.011633 -0.000425 0.178795
v -0.00732 -0.005007 0.18632
v -0.003653 -0.013825 0.186778
v 0.003525 -0.011179 0.19252
v 0.002596 -0.00708 0.199538
v 0.002939 -0.008343 0.206923
v 0.002047 -0.006898 0.212751
v 0.00384 -0.008608 0.218905
v 0.003539 -0.009228 0.223976
v 0.007215 -0.004504 0.22654
v 0.01034 0.001053 0.227305
v 0.013437 -0.000625 0.223777
v 0.009299 -0.004561 0.216914
v 0.006357 -0.003172 0.211728
v 0.002408 -0.011578 0.184274
v -0.002509 -0.00625 0.184154
v -0.007275 -0.004285 0.177605
v -0.004517 -0.006659 0.184705
v 0.008539 -0.005932 0.223926
v -0.017801 0.276874 -0.224803
v -0.022851 0.285712 -0.224929
v -0.012369 0.28689 -0.228375
v -0.005594 0.275996 -0.225554
v -0.022641 0.273217 -0.217805
v -0.006701 0.2691 -0.223675
v -0.016529 0.270656 -0.222434
v -0.021019 0.268099 -0.217036
v -0.013432 0.294258 -0.224407
v -0.020821 0.293305 -0.219734
v -0.02629 0.283903 -0.218569
v -0.005515 0.288705 -0.22716
v 0.000335 0.269198 -0.219777
v 0.001787 0.277972 -0.220439
v -0.030949 0.28276 -0.205322
v -0.027387 0.285382 -0.211546
v -0.028026 0.278825 -0.205117
v -0.007191 0.258792 -0.221397
v -0.001187 0.25915 -0.218546
v -0.0142 0.259426 -0.220373
v -0.019811 0.259235 -0.214941
v -0.023845 0.269237 -0.205014
v -0.008116 0.296038 -0.22478
v -0.014497 0.297528 -0.220257
v -0.024464 0.292858 -0.216047
v 0.004379 0.288785 -0.220659
v 0.005019 0.296219 -0.217676
v 0.002639 0.268637 -0.212462
v 0.004454 0.279473 -0.213216
v -0.031533 0.287893 -0.204098
v -0.031482 0.279949 -0.194216
v -0.030786 0.286518 -0.193545
v -0.026602 0.294321 -0.211006
v -0.028158 0.296506 -0.202965
v -0.02852 0.276827 -0.194762
v -0.015454 0.249399 -0.218363
v -0.008179 0.248986 -0.21991
v 0.000946 0.260431 -0.211057
v -0.00169 0.24854 -0.217291
v -0.018837 0.248827 -0.213997
v -0.021967 0.258141 -0.2045
v -0.021537 0.249292 -0.204352
v -0.023385 0.267185 -0.19768
v -0.001442 0.301021 -0.213847
v -0.010716 0.300412 -0.218819
v -0.017388 0.298998 -0.21742
v 0.004094 0.288323 -0.213869
v 0.004813 0.296732 -0.210836
v 0.001506 0.300075 -0.209809
v 0.011786 0.276292 -0.207465
v 0.007304 0.266971 -0.205893
v 0.014173 0.282846 -0.209453
v 0.013646 0.285472 -0.210981
v -0.027422 0.295665 -0.192647
v -0.022236 0.283934 -0.181466
v -0.023179 0.275011 -0.182812
v -0.022451 0.27154 -0.186038
v -0.021105 0.292187 -0.183015
v -0.020489 0.301868 -0.210072
v -0.021968 0.302745 -0.201824
v -0.021782 0.301384 -0.192921
v -0.019285 0.265425 -0.190119
v -0.019244 0.225482 -0.212811
v -0.015526 0.226013 -0.216525
v -0.009014 0.225925 -0.217573
v -0.000177 0.247762 -0.209698
v 0.004666 0.260207 -0.205791
v -0.001954 0.226509 -0.214477
v -0.021446 0.225587 -0.206531
v -0.021377 0.259262 -0.198061
v -0.020729 0.249954 -0.199209
v -0.017797 0.259604 -0.191772
v -0.004449 0.304175 -0.20727
v -0.009958 0.304382 -0.211422
v 0.014216 0.287658 -0.205012
v 0.008507 0.294887 -0.194649
v 0.003185 0.300823 -0.197712
v 0.008257 0.267349 -0.199701
v 0.015449 0.280793 -0.200446
v 0.01141 0.27461 -0.198135
v -0.016643 0.300318 -0.187546
v -0.012781 0.29255 -0.180555
v -0.013917 0.282687 -0.178039
v -0.013966 0.274608 -0.178695
v -0.012352 0.270692 -0.182351
v -0.011374 0.265974 -0.18665
v -0.011252 0.300751 -0.186794
v -0.013796 0.305927 -0.205553
v -0.015753 0.30612 -0.201077
v -0.015568 0.305438 -0.196355
v -0.012275 0.304282 -0.192808
v -0.010307 0.260671 -0.189391
v -0.022026 0.205191 -0.207597
v -0.019628 0.205359 -0.213578
v -0.015184 0.20566 -0.216403
v -0.009172 0.205899 -0.216419
v 0.001144 0.225737 -0.207936
v 0.001593 0.24655 -0.204238
v 0.004979 0.260296 -0.200485
v -0.001686 0.204629 -0.213497
v -0.019989 0.225739 -0.200022
v -0.020614 0.20532 -0.200825
v -0.016288 0.250117 -0.193341
v -0.014879 0.226262 -0.19536
v -0.00894 0.248879 -0.192406
v -0.011008 0.305676 -0.206502
v -0.002674 0.304028 -0.199148
v -0.008595 0.30523 -0.202781
v 0.010319 0.288432 -0.192614
v 0.000799 0.298455 -0.188689
v 0.005917 0.29179 -0.187531
v 0.006783 0.28249 -0.18839
v 0.006252 0.27605 -0.19219
v 0.001607 0.267602 -0.193757
v -0.005393 0.302148 -0.189877
v -0.00306 0.295867 -0.184078
v -0.001036 0.287809 -0.180777
v 0.001634 0.279454 -0.181865
v 0.001424 0.276191 -0.185996
v -0.001259 0.267216 -0.18995
v -0.001904 0.260738 -0.192981
v -0.009379 0.304877 -0.195015
v -0.00261 0.246903 -0.19506
v -0.023084 0.17529 -0.207343
v -0.021144 0.175737 -0.200754
v -0.020136 0.175511 -0.213507
v -0.015822 0.175466 -0.215828
v -0.008773 0.175935 -0.215333
v -0.00034 0.225814 -0.199188
v 0.001566 0.203546 -0.207637
v 0.001608 0.24615 -0.200311
v -0.002029 0.175246 -0.211923
v -0.015482 0.205587 -0.196172
v -0.015532 0.176034 -0.195766
v -0.005693 0.225981 -0.194916
v -0.00646 0.204255 -0.195802
v -0.002285 0.225818 -0.196564
v -0.008109 0.305382 -0.198763
v -0.020614 0.148049 -0.19992
v -0.022302 0.147621 -0.206475
v -0.019528 0.147781 -0.21135
v -0.016829 0.148776 -0.213061
v -0.009237 0.149429 -0.21362
v -0.00199 0.204522 -0.199656
v 0.000331 0.175725 -0.207307
v -0.002235 0.14897 -0.210744
v -0.007638 0.176182 -0.195746
v -0.015767 0.148551 -0.195295
v -0.009308 0.149079 -0.194653
v -0.019823 0.115915 -0.198469
v -0.015388 0.117412 -0.193323
v -0.016602 0.114985 -0.210244
v -0.022117 0.115676 -0.204578
v -0.008704 0.116728 -0.20955
v -0.002382 0.118394 -0.206501
v -0.00271 0.175743 -0.200617
v -0.0004 0.148934 -0.205545
v -0.004723 0.14885 -0.199043
v -0.009007 0.118438 -0.192409
v -0.004698 0.118454 -0.196825
v -0.014486 0.083706 -0.191685
v -0.018872 0.083299 -0.197816
v -0.010278 0.083273 -0.191395
v -0.020698 0.081823 -0.204709
v -0.017339 0.082787 -0.213498
v -0.011855 0.083202 -0.210126
v -0.008198 0.083401 -0.207799
v -0.003494 0.083819 -0.204951
v -0.000145 0.117547 -0.204399
v -0.005489 0.083307 -0.195475
v -0.001538 0.0834 -0.203093
v -0.011849 0.055129 -0.190339
v -0.015564 0.05487 -0.191911
v -0.018897 0.055426 -0.200483
v -0.006056 0.056312 -0.194756
v -0.018633 0.055926 -0.206468
v -0.015328 0.059009 -0.218157
v -0.011934 0.059291 -0.214265
v -0.009099 0.058832 -0.209825
v -0.004164 0.05853 -0.205642
v -0.001328 0.058118 -0.20016
v -0.003178 0.037754 -0.195264
v -0.014307 0.036362 -0.190266
v -0.010967 0.037086 -0.188204
v -0.016086 0.035388 -0.203441
v 0.000117 0.038945 -0.20164
v -0.016334 0.035725 -0.213179
v -0.015599 0.037466 -0.223255
v -0.013374 0.039637 -0.223546
v -0.00997 0.040117 -0.220966
v -0.004069 0.03827 -0.209421
v -0.00772 0.038116 -0.216714
v 0.000582 0.020695 -0.191636
v -0.007692 0.027063 -0.185088
v -0.001997 0.022476 -0.189269
v -0.010638 0.027332 -0.184947
v -0.013263 0.026902 -0.186638
v -0.012945 0.020505 -0.196634
v -0.013306 0.022792 -0.202878
v -0.013624 0.021094 -0.207216
v -0.002291 0.026345 -0.211761
v 0.001473 0.020407 -0.196001
v 0.000694 0.021546 -0.200523
v 0.000908 0.02257 -0.205337
v -0.013787 0.025154 -0.227061
v -0.016298 0.021086 -0.220198
v -0.014617 0.016504 -0.212562
v -0.010896 0.025738 -0.228393
v -0.007466 0.026727 -0.226101
v -0.00491 0.025911 -0.218252
v -0.005957 0.025611 -0.22032
v 0.001427 0.016504 -0.189622
v -0.005602 0.01923 -0.180453
v -0.009573 0.019072 -0.178369
v -0.00104 0.018257 -0.186187
v -0.012678 0.019424 -0.180875
v -0.013451 0.017987 -0.193409
v -0.007727 0.017223 -0.201874
v -0.00829 0.016223 -0.197257
v -0.00561 0.014347 -0.204086
v -0.00572 0.011243 -0.205307
v -0.000791 0.019396 -0.213788
v -0.000535 0.014188 -0.19499
v -0.001592 0.013773 -0.200412
v 0.003285 0.013911 -0.207114
v -0.0155 0.01175 -0.220541
v -0.010125 0.014453 -0.22919
v -0.013511 0.014497 -0.226071
v -0.015457 0.010751 -0.214538
v -0.005692 0.014441 -0.230762
v -0.003784 0.016235 -0.229275
v -8e-005 0.017768 -0.22023
v -0.001422 0.016832 -0.225141
v 0.001134 0.01126 -0.182556
v 0.004683 0.009671 -0.188196
v -0.009707 0.01361 -0.172336
v -0.003312 0.01246 -0.175999
v -0.013256 0.013945 -0.175431
v -0.013538 0.012282 -0.187641
v -0.007488 0.01042 -0.194012
v -0.004118 0.009646 -0.200694
v -0.009334 0.003422 -0.206962
v -0.008719 0.000688 -0.202279
v 0.001654 0.012774 -0.215538
v 0.003178 0.009249 -0.194208
v 0.003069 0.008613 -0.198715
v 0.005683 0.010456 -0.207216
v -0.014377 0.000658 -0.214611
v -0.012637 0.000924 -0.217789
v -0.010443 0.002408 -0.224742
v -0.007516 0.009067 -0.230254
v -0.009309 2.4e-005 -0.207123
v -0.00375 0.01141 -0.232188
v 0.000635 0.010471 -0.231113
v 0.004946 0.0138 -0.222149
v 0.003374 0.013434 -0.226038
v -0.001557 0.006792 -0.173933
v 0.00085 0.00596 -0.181266
v 0.008782 0.005 -0.186552
v -0.009686 0.007478 -0.168945
v -0.012018 0.005759 -0.170142
v -0.014185 0.008235 -0.178722
v -0.012224 0.005932 -0.189613
v -0.008271 0.004425 -0.196251
v -0.012827 0.002066 -0.192511
v -0.010322 -0.002272 -0.196594
v -0.007623 -0.00836 -0.195468
v -0.007385 -0.004249 -0.207068
v -0.006326 -0.004833 -0.203009
v 0.007243 0.009606 -0.215989
v 0.005443 0.008793 -0.212059
v 0.008609 0.004151 -0.192404
v 0.007287 0.004248 -0.198096
v 0.009542 0.006033 -0.205851
v -0.010553 -0.005577 -0.213877
v -0.008817 -0.002499 -0.217357
v -0.005455 0.002949 -0.23077
v -0.003331 -0.001788 -0.229514
v -0.005236 -0.003336 -0.225279
v -0.007088 -0.00269 -0.222131
v -0.00108 0.007356 -0.232531
v -0.001251 0.003748 -0.231847
v 0.004756 0.009625 -0.228207
v 0.009836 0.011359 -0.222043
v 0.008644 0.009244 -0.226635
v -0.003225 0.000686 -0.1755
v -0.00836 0.000872 -0.170928
v 0.00024 0.000949 -0.181591
v 0.009369 -0.000544 -0.183843
v -0.013116 0.002051 -0.171515
v -0.013376 0.003576 -0.17805
v -0.014188 -0.003072 -0.191101
v -0.011393 -0.001926 -0.18725
v -0.010212 -0.010657 -0.188828
v -0.003181 -0.013061 -0.192463
v -0.001774 -0.007887 -0.201753
v -0.002407 -0.00803 -0.206577
v 0.007748 0.004767 -0.211156
v 0.011306 0.006056 -0.216657
v 0.00978 -0.000783 -0.190372
v 0.007366 -0.000193 -0.198041
v 0.010522 0.001103 -0.204384
v -0.005564 -0.00908 -0.213629
v -0.003451 -0.00669 -0.216912
v 0.004726 -0.002028 -0.226383
v -0.00266 -0.004003 -0.225764
v -0.00165 -0.007654 -0.220135
v 0.006552 0.003579 -0.227415
v 0.013501 0.006214 -0.222329
v 0.010562 0.005738 -0.227259
v -0.004282 -0.003797 -0.176647
v -0.010017 -0.000833 -0.171235
v -0.011597 -0.000169 -0.171686
v -0.000175 -0.003254 -0.181851
v 0.008411 -0.006135 -0.183197
v -0.011633 -0.000425 -0.178795
v -0.00732 -0.005007 -0.18632
v -0.003653 -0.013825 -0.186778
v 0.002596 -0.00708 -0.199538
v 0.003525 -0.011179 -0.19252
v 0.002939 -0.008343 -0.206923
v 0.002047 -0.006898 -0.212751
v 0.007978 0.001644 -0.211016
v 0.011335 0.001069 -0.215848
v 0.00848 -0.006364 -0.191087
v 0.006138 -0.003938 -0.198389
v 0.009156 -0.003703 -0.20506
v 0.00384 -0.008608 -0.218905
v 0.003539 -0.009228 -0.223976
v 0.01034 0.001053 -0.227305
v 0.007215 -0.004504 -0.22654
v 0.013437 -0.000625 -0.223777
v -0.007275 -0.004285 -0.177605
v 0.002408 -0.011578 -0.184274
v -0.002509 -0.00625 -0.184154
v -0.004517 -0.006659 -0.184705
v 0.006357 -0.003172 -0.211728
v 0.009299 -0.004561 -0.216914
v 0.008539 -0.005932 -0.223926
# 678 verticies
vn -0.099631 0.062679 0.993048
vn -0.648128 0.10781 0.753861
vn -0.386322 -0.328729 0.861796
vn 0.29566 -0.21616 0.930516
vn 0.333071 0.160975 0.929059
vn -0.293157 0.531096 0.794982
vn -0.844298 -0.347548 0.407885
vn -0.944984 0.076209 0.318115
vn -0.694217 0.485059 0.531771
vn -0.425511 -0.297 0.854828
vn 0.169438 -0.268593 0.948234
vn -0.826781 -0.323307 0.460333
vn 0.722714 -0.21105 0.658136
vn 0.792342 -0.174398 0.584619
vn 0.907083 -0.035011 0.419494
vn 0.773546 0.493874 0.397134
vn 0.035629 0.672587 0.73916
vn -0.4022 0.662698 0.631717
vn -0.904124 0.067186 0.421954
vn -0.948726 -0.225262 0.221759
vn -0.849786 -0.501429 0.162583
vn -0.709456 0.377507 0.595115
vn -0.51972 -0.170079 0.837236
vn 0.030391 -0.193016 0.980725
vn -0.877881 -0.174013 0.446145
vn 0.710403 -0.185417 0.678931
vn -0.945721 -0.297507 0.130769
vn 0.851559 -0.237917 0.467165
vn 0.741261 -0.219406 0.634344
vn 0.901681 0.018992 0.431984
vn 0.797993 0.547291 0.252347
vn 0.627577 0.768693 0.123526
vn 0.339014 0.863699 0.372953
vn -0.119488 0.828217 0.547521
vn -0.484642 0.65763 0.576754
vn -0.796521 0.48055 0.366915
vn -0.844193 0.519004 0.134066
vn -0.964737 0.203454 0.167
vn -0.931393 0.138731 -0.336542
vn -0.90645 -0.372684 -0.198631
vn -0.826716 -0.560956 -0.043222
vn -0.876366 -0.045064 0.479533
vn -0.506198 -0.083484 0.858367
vn 0.100542 -0.123206 0.987275
vn -0.989612 -0.139167 0.036056
vn -0.997257 -0.050533 0.054088
vn 0.889634 -0.191143 0.414749
vn 0.759853 -0.107989 0.641063
vn -0.916416 -0.335751 -0.217839
vn 0.832092 -0.3733 0.410207
vn 0.807165 -0.42896 0.405558
vn 0.854345 -0.218275 0.471647
vn 0.667289 0.132946 0.732837
vn 0.779168 0.563052 -0.275446
vn 0.923741 0.382592 0.018034
vn 0.352913 0.925003 0.140793
vn 0.579783 0.812152 -0.065269
vn 0.024668 0.932712 0.359778
vn -0.448692 0.822237 0.350146
vn -0.607052 0.793162 0.048808
vn -0.518582 0.785736 -0.337183
vn -0.784646 0.494997 -0.373241
vn -0.492427 0.431661 -0.755767
vn -0.59833 0.11033 -0.793618
vn -0.5511 -0.378144 -0.743838
vn -0.567184 -0.665844 -0.48472
vn -0.598895 -0.51618 -0.612277
vn -0.999778 0.007091 0.019844
vn -0.853476 0.00764 0.521076
vn -0.429512 -0.035675 0.902356
vn 0.148283 -0.076515 0.985981
vn -0.926127 -0.165402 -0.339016
vn -0.899764 -0.072094 -0.430381
vn 0.93427 -0.079304 0.347635
vn 0.910765 -0.290996 0.292966
vn 0.720131 -0.043468 0.692475
vn -0.582361 -0.283398 -0.761933
vn 0.854887 -0.444044 -0.268316
vn 0.839384 -0.431013 -0.331153
vn 0.956886 -0.179329 -0.228495
vn 0.733324 0.2627 -0.627077
vn 0.502583 0.684005 -0.528723
vn 0.839228 0.122998 -0.529687
vn 0.812729 -0.136412 -0.566448
vn 0.131978 0.984967 0.111453
vn 0.079438 0.99638 -0.03028
vn 0.34744 0.92993 -0.120478
vn -0.088499 0.981878 0.167582
vn -0.22389 0.974405 0.0202
vn -0.190893 0.954311 -0.229893
vn -0.084894 0.926809 -0.365813
vn -0.340668 0.710557 -0.615673
vn -0.00905 0.749059 -0.662442
vn -0.049729 0.448995 -0.892149
vn -0.10396 0.109787 -0.988504
vn 0.092059 -0.414508 -0.905377
vn 0.036094 -0.654355 -0.755325
vn 0.019201 -0.565722 -0.824372
vn 0.045703 -0.318472 -0.94683
vn -0.997249 0.030915 0.067374
vn -0.830645 -0.016584 -0.556555
vn -0.86588 0.012779 -0.500089
vn -0.786316 0.018931 0.617534
vn -0.293846 -0.017002 0.955702
vn 0.202028 -0.039647 0.978577
vn -0.507278 -0.153994 -0.847912
vn -0.409752 -0.056805 -0.910427
vn 0.985447 -0.138764 0.098181
vn 0.973925 0.004374 0.226828
vn 0.887221 -0.305656 -0.345562
vn 0.675253 -0.027262 0.737082
vn 0.099644 -0.153082 -0.983177
vn 0.68691 -0.394437 -0.610388
vn 0.71714 -0.354705 -0.599912
vn 0.62224 -0.266965 -0.735899
vn 0.382982 0.225116 -0.895906
vn 0.250573 0.505848 -0.825428
vn 0.24781 0.824016 -0.509498
vn 0.598652 -0.526329 -0.603816
vn 0.121356 0.985917 -0.115069
vn 0.000616 0.967731 -0.251985
vn 0.526202 -0.47055 -0.708303
vn 0.595907 -0.275016 -0.754494
vn 0.542671 -0.120368 -0.831276
vn -0.997202 0.002128 0.074728
vn -0.881674 0.014185 -0.471646
vn -0.374351 -0.004814 -0.927275
vn -0.425525 0.019039 -0.904746
vn -0.695536 -0.034688 0.717654
vn -0.165968 -0.04975 0.984875
vn 0.226941 -0.059927 0.972063
vn 0.128401 -0.071197 -0.989163
vn 0.284206 -0.044488 -0.957731
vn 0.889548 -0.124231 -0.439625
vn 0.942015 -0.055842 -0.330892
vn 0.996382 -0.030246 0.07942
vn 0.689948 -0.047796 0.722279
vn 0.626581 -0.058931 -0.777125
vn -0.843858 0.005056 -0.536542
vn -0.9792 -0.039701 0.198973
vn 0.416208 -0.00519 -0.909254
vn 0.345574 0.041657 -0.937466
vn -0.365998 0.043294 -0.929608
vn -0.712524 -0.078458 0.697248
vn -0.268476 -0.082344 0.95976
vn 0.238099 -0.08933 0.967124
vn 0.805694 -0.057315 -0.589553
vn 0.999397 -0.034729 -0.000215
vn 0.763475 -0.064942 0.642564
vn -0.45749 0.035659 -0.888499
vn -0.876686 -0.001248 -0.481061
vn -0.994771 -0.027709 0.098303
vn -0.513944 -0.040947 0.856846
vn 0.822253 -0.023596 -0.568633
vn 0.773779 0.01071 -0.633365
vn 0.310592 0.043252 -0.949559
vn 0.794842 0.023969 -0.606342
vn 0.364857 -0.040263 0.930193
vn 0.604716 -0.067288 0.793594
vn 0.999443 -0.023355 -0.023846
vn 0.29364 0.022122 -0.95566
vn -0.52326 0.021668 -0.851898
vn -0.914302 -0.017793 -0.404642
vn -0.98554 -0.028939 0.166954
vn -0.425986 0.061816 0.902615
vn 0.990849 -0.017694 0.133808
vn 0.766657 0.01285 -0.641928
vn 0.995152 -0.011629 0.097656
vn 0.573668 0.079111 0.815258
vn 0.574423 0.013098 0.818454
vn 0.623903 -0.018149 0.781291
vn 0.713336 0.034233 -0.699986
vn 0.079635 0.060087 -0.995012
vn -0.740575 0.004983 -0.671956
vn -0.981916 -0.076972 -0.172965
vn -0.983129 -0.070935 0.168597
vn -0.32367 0.195129 0.925831
vn 0.996185 0.042182 -0.076399
vn 0.76521 0.038862 0.642607
vn 0.71511 0.18831 0.67317
vn 0.771863 0.127248 0.622925
vn 0.990576 0.12969 -0.044042
vn 0.729216 0.233287 -0.643289
vn 0.058644 0.278816 -0.958552
vn -0.861737 0.004014 -0.507339
vn -0.983396 -0.166831 -0.071407
vn -0.997944 -0.055199 0.032582
vn 0.128718 0.311572 0.941464
vn -0.797143 0.108629 0.593939
vn 0.851658 0.176588 0.493452
vn 0.716423 0.316961 0.62151
vn 0.894245 0.233439 0.38188
vn 0.89574 0.228821 0.38117
vn 0.870764 0.283181 -0.401967
vn 0.993826 -0.088697 0.066649
vn 0.987554 -0.127729 0.091772
vn 0.992623 0.103922 0.062451
vn 0.752892 0.409435 -0.515283
vn 0.455432 0.473171 -0.754116
vn -0.311859 0.411171 -0.856552
vn -0.877216 0.228621 -0.422166
vn -0.903772 -0.383642 0.189776
vn -0.884656 -0.453615 -0.107786
vn -0.868219 -0.335848 -0.365241
vn -0.782121 0.040146 0.621832
vn -0.903225 -0.150935 -0.401751
vn -0.998688 -0.00985 0.050253
vn 0.036969 0.269147 0.962389
vn 0.862703 0.351776 0.363314
vn 0.722573 0.365985 0.586467
vn 0.830768 0.43027 0.353118
vn 0.909918 0.361263 0.203812
vn 0.930966 0.316456 -0.182094
vn 0.946874 0.1723 0.271555
vn 0.980717 0.187923 -0.053652
vn 0.874628 0.470843 -0.115466
vn 0.564881 0.575154 -0.591699
vn 0.766625 0.483898 -0.422053
vn -0.122146 0.642331 -0.756632
vn -0.838548 0.380026 -0.390406
vn -0.943449 -0.226544 0.242038
vn -0.760557 -0.512142 0.399078
vn -0.745985 -0.655298 0.118707
vn -0.849449 -0.482256 -0.214163
vn -0.813524 -0.019069 -0.581218
vn -0.941675 -0.169177 0.290908
vn -0.819206 -0.203329 0.536245
vn -0.540339 -0.077152 0.837903
vn -0.902548 -0.037388 -0.428963
vn -0.041458 0.258778 0.965047
vn 0.790584 0.601428 0.115157
vn 0.541471 0.534885 0.64862
vn 0.589319 0.69538 0.411279
vn 0.776439 0.625456 -0.077118
vn 0.84938 0.321188 -0.418797
vn 0.859626 0.498914 -0.110131
vn 0.756151 0.631737 0.170717
vn 0.724982 0.676126 -0.131358
vn 0.775961 0.627956 -0.059623
vn 0.660785 0.497078 -0.562386
vn 0.054514 0.63229 -0.772812
vn -0.85302 0.310877 -0.419181
vn -0.947072 -0.113558 0.300264
vn -0.823619 0.065005 0.563406
vn -0.987398 0.084153 0.134025
vn -0.879252 0.120428 -0.460882
vn -0.996274 -0.062425 -0.059501
vn -0.933169 -0.34269 -0.108438
vn -0.741962 -0.469421 0.478681
vn -0.741439 -0.449902 0.497852
vn -0.517954 -0.087501 0.850921
vn -0.894817 -0.18558 -0.406033
vn -0.022151 0.263446 0.96442
vn 0.537326 0.840948 -0.063929
vn 0.542102 0.374635 0.752179
vn 0.472461 0.717617 0.51167
vn 0.562458 0.702267 -0.436419
vn 0.78457 0.620016 0.005499
vn 0.829573 0.028234 -0.557684
vn 0.750952 0.072141 -0.656404
vn 0.7816 0.485443 -0.391722
vn 0.887129 0.449031 0.106645
vn 0.911003 0.408668 -0.055358
vn 0.922637 0.384733 -0.026849
vn -0.107223 0.172764 -0.97911
vn -0.690889 -0.016454 -0.722773
vn -0.99859 -0.029251 -0.04431
vn -0.984717 0.052035 0.166208
vn -0.818894 0.250396 0.516444
vn -0.777745 0.227742 0.585873
vn -0.888425 -0.066775 0.454139
vn -0.659373 -0.604015 0.447653
vn -0.764118 -0.584313 -0.273317
vn -0.748594 -0.645728 0.150476
vn -0.691096 -0.710787 0.13103
vn -0.547441 -0.670259 0.50106
vn -0.4523 -0.250372 0.856001
vn -0.247634 -0.652221 0.716439
vn -0.53758 -0.743635 0.397512
vn -0.668332 -0.712305 0.214368
vn 0.031862 -0.059872 0.997697
vn 0.675749 0.733777 0.070252
vn 0.34597 -0.226554 0.910482
vn 0.493598 0.224315 0.840264
vn 0.438337 0.42514 0.791907
vn 0.80142 0.350743 -0.484464
vn 0.938633 0.333377 -0.088474
vn 0.578299 -0.038486 -0.814917
vn 0.735353 -0.355347 -0.577048
vn 0.127901 -0.294093 -0.94718
vn 0.865337 0.171339 -0.470993
vn 0.992454 -0.028525 0.11925
vn 0.996704 -0.076531 -0.026902
vn 0.99692 -0.071757 -0.031638
vn -0.799041 -0.26636 -0.53906
vn -0.94736 -0.316257 0.049904
vn -0.992568 -0.121685 -0.001429
vn -0.873238 -0.407336 -0.267458
vn -0.753653 -0.656766 -0.025803
vn -0.087723 -0.917813 0.387201
vn -0.261802 -0.951896 0.159226
vn -0.290767 -0.948274 -0.127401
vn -0.246893 -0.924789 0.289498
vn -0.433378 -0.865953 0.249616
vn -0.06603 -0.853574 0.516771
vn 0.07568 -0.479681 0.874173
vn -0.436281 -0.765402 0.473094
vn 0.543426 0.268482 0.795365
vn 0.966719 0.222591 0.126122
vn 0.21744 -0.048465 0.97487
vn 0.877968 -0.170986 -0.447143
vn 0.98833 -0.10595 -0.109447
vn 0.6772 -0.308463 -0.66802
vn 0.24394 -0.523203 -0.816549
vn 0.551407 -0.624229 -0.553433
vn 0.092455 -0.642504 -0.760685
vn -0.687438 -0.565314 -0.455905
vn 0.858399 -0.481679 0.176457
vn 0.850968 -0.523481 0.042667
vn 0.824815 -0.562953 0.052579
vn -0.775292 -0.628976 -0.057546
vn -0.635846 -0.560606 -0.53049
vn -0.236789 -0.74439 -0.624351
vn 0.512878 -0.820989 0.250864
vn 0.457588 -0.877701 0.142316
vn 0.330355 -0.940311 0.08174
vn 0.37458 -0.91901 -0.122929
vn 0.24114 -0.968828 -0.056786
vn 0.014564 -0.960752 0.277027
vn 0.092624 -0.415201 0.905002
vn 0.38851 -0.103689 0.915592
vn 0.888134 -0.383637 0.253063
vn 0.68201 -0.657643 -0.319951
vn 0.801625 -0.587159 -0.112436
vn 0.248382 -0.736695 -0.628957
vn -0.07444 -0.586005 -0.806881
vn -0.230791 -0.939392 -0.25353
vn -0.365378 -0.69446 -0.619858
vn 0.620306 -0.756479 0.207267
vn -0.386322 -0.328729 -0.861796
vn -0.648128 0.10781 -0.753861
vn -0.099631 0.062679 -0.993048
vn 0.29566 -0.21616 -0.930516
vn -0.844298 -0.347548 -0.407885
vn 0.169438 -0.268593 -0.948234
vn -0.425511 -0.297 -0.854828
vn -0.826781 -0.323307 -0.460333
vn -0.293157 0.531096 -0.794982
vn -0.694217 0.485059 -0.531771
vn -0.944984 0.076209 -0.318115
vn 0.333071 0.160975 -0.929059
vn 0.722714 -0.21105 -0.658136
vn 0.792342 -0.174398 -0.584619
vn -0.948726 -0.225262 -0.221759
vn -0.904124 0.067186 -0.421954
vn -0.849786 -0.501429 -0.162583
vn 0.030391 -0.193016 -0.980725
vn 0.710403 -0.185417 -0.678931
vn -0.51972 -0.170079 -0.837236
vn -0.877881 -0.174013 -0.446145
vn -0.945721 -0.297507 -0.130769
vn 0.035629 0.672587 -0.73916
vn -0.4022 0.662698 -0.631717
vn -0.709456 0.377507 -0.595115
vn 0.907083 -0.035011 -0.419494
vn 0.773546 0.493874 -0.397134
vn 0.851559 -0.237917 -0.467165
vn 0.741261 -0.219406 -0.634344
vn -0.964737 0.203454 -0.167
vn -0.90645 -0.372684 0.198631
vn -0.931393 0.138731 0.336542
vn -0.796521 0.48055 -0.366915
vn -0.844193 0.519004 -0.134066
vn -0.826716 -0.560956 0.043222
vn -0.506198 -0.083484 -0.858367
vn 0.100542 -0.123206 -0.987275
vn 0.889634 -0.191143 -0.414749
vn 0.759853 -0.107989 -0.641063
vn -0.876366 -0.045064 -0.479533
vn -0.989612 -0.139167 -0.036056
vn -0.997257 -0.050533 -0.054088
vn -0.916416 -0.335751 0.217839
vn 0.339014 0.863699 -0.372953
vn -0.119488 0.828217 -0.547521
vn -0.484642 0.65763 -0.576754
vn 0.901681 0.018992 -0.431984
vn 0.797993 0.547291 -0.252347
vn 0.627577 0.768693 -0.123526
vn 0.807165 -0.42896 -0.405558
vn 0.832092 -0.3733 -0.410207
vn 0.854345 -0.218275 -0.471647
vn 0.667289 0.132946 -0.732837
vn -0.784646 0.494997 0.373241
vn -0.59833 0.11033 0.793618
vn -0.5511 -0.378144 0.743838
vn -0.567184 -0.665844 0.48472
vn -0.492427 0.431661 0.755767
vn -0.448692 0.822237 -0.350146
vn -0.607052 0.793162 -0.048808
vn -0.518582 0.785736 0.337183
vn -0.598895 -0.51618 0.612277
vn -0.853476 0.00764 -0.521076
vn -0.429512 -0.035675 -0.902356
vn 0.148283 -0.076515 -0.985981
vn 0.93427 -0.079304 -0.347635
vn 0.910765 -0.290996 -0.292966
vn 0.720131 -0.043468 -0.692475
vn -0.999778 0.007091 -0.019844
vn -0.926127 -0.165402 0.339016
vn -0.899764 -0.072094 0.430381
vn -0.582361 -0.283398 0.761933
vn 0.352913 0.925003 -0.140793
vn 0.024668 0.932712 -0.359778
vn 0.923741 0.382592 -0.018034
vn 0.779168 0.563052 0.275446
vn 0.579783 0.812152 0.065269
vn 0.854887 -0.444044 0.268316
vn 0.956886 -0.179329 0.228495
vn 0.839384 -0.431013 0.331153
vn -0.340668 0.710557 0.615673
vn -0.049729 0.448995 0.892149
vn -0.10396 0.109787 0.988504
vn 0.092059 -0.414508 0.905377
vn 0.036094 -0.654355 0.755325
vn 0.019201 -0.565722 0.824372
vn -0.00905 0.749059 0.662442
vn -0.088499 0.981878 -0.167582
vn -0.22389 0.974405 -0.0202
vn -0.190893 0.954311 0.229893
vn -0.084894 0.926809 0.365813
vn 0.045703 -0.318472 0.94683
vn -0.997249 0.030915 -0.067374
vn -0.786316 0.018931 -0.617534
vn -0.293846 -0.017002 -0.955702
vn 0.202028 -0.039647 -0.978577
vn 0.973925 0.004374 -0.226828
vn 0.985447 -0.138764 -0.098181
vn 0.887221 -0.305656 0.345562
vn 0.675253 -0.027262 -0.737082
vn -0.830645 -0.016584 0.556555
vn -0.86588 0.012779 0.500089
vn -0.507278 -0.153994 0.847912
vn -0.409752 -0.056805 0.910427
vn 0.099644 -0.153082 0.983177
vn 0.131978 0.984967 -0.111453
vn 0.34744 0.92993 0.120478
vn 0.079438 0.99638 0.03028
vn 0.839228 0.122998 0.529687
vn 0.502583 0.684005 0.528723
vn 0.733324 0.2627 0.627077
vn 0.812729 -0.136412 0.566448
vn 0.71714 -0.354705 0.599912
vn 0.68691 -0.394437 0.610388
vn 0.24781 0.824016 0.509498
vn 0.250573 0.505848 0.825428
vn 0.382982 0.225116 0.895906
vn 0.62224 -0.266965 0.735899
vn 0.598652 -0.526329 0.603816
vn 0.526202 -0.47055 0.708303
vn 0.595907 -0.275016 0.754494
vn 0.000616 0.967731 0.251985
vn 0.542671 -0.120368 0.831276
vn -0.997202 0.002128 -0.074728
vn -0.881674 0.014185 0.471646
vn -0.695536 -0.034688 -0.717654
vn -0.165968 -0.04975 -0.984875
vn 0.226941 -0.059927 -0.972063
vn 0.942015 -0.055842 0.330892
vn 0.996382 -0.030246 -0.07942
vn 0.889548 -0.124231 0.439625
vn 0.689948 -0.047796 -0.722279
vn -0.374351 -0.004814 0.927275
vn -0.425525 0.019039 0.904746
vn 0.128401 -0.071197 0.989163
vn 0.284206 -0.044488 0.957731
vn 0.626581 -0.058931 0.777125
vn 0.121356 0.985917 0.115069
vn -0.843858 0.005056 0.536542
vn -0.9792 -0.039701 -0.198973
vn -0.712524 -0.078458 -0.697248
vn -0.268476 -0.082344 -0.95976
vn 0.238099 -0.08933 -0.967124
vn 0.805694 -0.057315 0.589553
vn 0.999397 -0.034729 0.000215
vn 0.763475 -0.064942 -0.642564
vn 0.416208 -0.00519 0.909254
vn -0.365998 0.043294 0.929608
vn 0.345574 0.041657 0.937466
vn -0.876686 -0.001248 0.481061
vn -0.45749 0.035659 0.888499
vn -0.513944 -0.040947 -0.856846
vn -0.994771 -0.027709 -0.098303
vn 0.364857 -0.040263 -0.930193
vn 0.604716 -0.067288 -0.793594
vn 0.822253 -0.023596 0.568633
vn 0.999443 -0.023355 0.023846
vn 0.773779 0.01071 0.633365
vn 0.310592 0.043252 0.949559
vn 0.794842 0.023969 0.606342
vn -0.52326 0.021668 0.851898
vn -0.914302 -0.017793 0.404642
vn 0.29364 0.022122 0.95566
vn -0.98554 -0.028939 -0.166954
vn -0.425986 0.061816 -0.902615
vn 0.573668 0.079111 -0.815258
vn 0.574423 0.013098 -0.818454
vn 0.623903 -0.018149 -0.781291
vn 0.990849 -0.017694 -0.133808
vn 0.766657 0.01285 0.641928
vn 0.995152 -0.011629 -0.097656
vn 0.079635 0.060087 0.995012
vn -0.740575 0.004983 0.671956
vn -0.981916 -0.076972 0.172965
vn 0.713336 0.034233 0.699986
vn -0.983129 -0.070935 -0.168597
vn -0.32367 0.195129 -0.925831
vn 0.71511 0.18831 -0.67317
vn 0.771863 0.127248 -0.622925
vn 0.76521 0.038862 -0.642607
vn 0.996185 0.042182 0.076399
vn 0.729216 0.233287 0.643289
vn -0.861737 0.004014 0.507339
vn 0.058644 0.278816 0.958552
vn -0.983396 -0.166831 0.071407
vn 0.990576 0.12969 0.044042
vn -0.997944 -0.055199 -0.032582
vn -0.797143 0.108629 -0.593939
vn 0.128718 0.311572 -0.941464
vn 0.716423 0.316961 -0.62151
vn 0.851658 0.176588 -0.493452
vn 0.894245 0.233439 -0.38188
vn 0.870764 0.283181 0.401967
vn 0.455432 0.473171 0.754116
vn 0.752892 0.409435 0.515283
vn -0.311859 0.411171 0.856552
vn -0.877216 0.228621 0.422166
vn -0.903772 -0.383642 -0.189776
vn -0.884656 -0.453615 0.107786
vn -0.868219 -0.335848 0.365241
vn 0.89574 0.228821 -0.38117
vn 0.993826 -0.088697 -0.066649
vn 0.987554 -0.127729 -0.091772
vn 0.992623 0.103922 -0.062451
vn -0.782121 0.040146 -0.621832
vn -0.998688 -0.00985 -0.050253
vn -0.903225 -0.150935 0.401751
vn 0.036969 0.269147 -0.962389
vn 0.722573 0.365985 -0.586467
vn 0.862703 0.351776 -0.363314
vn 0.830768 0.43027 -0.353118
vn 0.930966 0.316456 0.182094
vn 0.564881 0.575154 0.591699
vn -0.122146 0.642331 0.756632
vn 0.766625 0.483898 0.422053
vn -0.838548 0.380026 0.390406
vn -0.943449 -0.226544 -0.242038
vn -0.745985 -0.655298 -0.118707
vn -0.760557 -0.512142 -0.399078
vn -0.849449 -0.482256 0.214163
vn -0.813524 -0.019069 0.581218
vn 0.909918 0.361263 -0.203812
vn 0.946874 0.1723 -0.271555
vn 0.980717 0.187923 0.053652
vn 0.874628 0.470843 0.115466
vn -0.941675 -0.169177 -0.290908
vn -0.540339 -0.077152 -0.837903
vn -0.819206 -0.203329 -0.536245
vn -0.902548 -0.037388 0.428963
vn -0.041458 0.258778 -0.965047
vn 0.541471 0.534885 -0.64862
vn 0.790584 0.601428 -0.115157
vn 0.589319 0.69538 -0.411279
vn 0.84938 0.321188 0.418797
vn 0.859626 0.498914 0.110131
vn 0.054514 0.63229 0.772812
vn 0.660785 0.497078 0.562386
vn -0.85302 0.310877 0.419181
vn -0.947072 -0.113558 -0.300264
vn -0.823619 0.065005 -0.563406
vn -0.987398 0.084153 -0.134025
vn -0.879252 0.120428 0.460882
vn -0.996274 -0.062425 0.059501
vn 0.776439 0.625456 0.077118
vn 0.756151 0.631737 -0.170717
vn 0.724982 0.676126 0.131358
vn 0.775961 0.627956 0.059623
vn -0.933169 -0.34269 0.108438
vn -0.741962 -0.469421 -0.478681
vn -0.741439 -0.449902 -0.497852
vn -0.517954 -0.087501 -0.850921
vn -0.894817 -0.18558 0.406033
vn -0.022151 0.263446 -0.96442
vn 0.542102 0.374635 -0.752179
vn 0.537326 0.840948 0.063929
vn 0.472461 0.717617 -0.51167
vn 0.750952 0.072141 0.656404
vn 0.829573 0.028234 0.557684
vn 0.7816 0.485443 0.391722
vn -0.107223 0.172764 0.97911
vn -0.690889 -0.016454 0.722773
vn -0.99859 -0.029251 0.04431
vn -0.984717 0.052035 -0.166208
vn -0.777745 0.227742 -0.585873
vn -0.818894 0.250396 -0.516444
vn -0.888425 -0.066775 -0.454139
vn -0.659373 -0.604015 -0.447653
vn -0.764118 -0.584313 0.273317
vn -0.748594 -0.645728 -0.150476
vn 0.562458 0.702267 0.436419
vn 0.78457 0.620016 -0.005499
vn 0.887129 0.449031 -0.106645
vn 0.911003 0.408668 0.055358
vn 0.922637 0.384733 0.026849
vn -0.691096 -0.710787 -0.13103
vn -0.547441 -0.670259 -0.50106
vn -0.4523 -0.250372 -0.856001
vn -0.247634 -0.652221 -0.716439
vn -0.53758 -0.743635 -0.397512
vn -0.668332 -0.712305 -0.214368
vn 0.031862 -0.059872 -0.997697
vn 0.34597 -0.226554 -0.910482
vn 0.493598 0.224315 -0.840264
vn 0.675749 0.733777 -0.070252
vn 0.438337 0.42514 -0.791907
vn 0.735353 -0.355347 0.577048
vn 0.127901 -0.294093 0.94718
vn 0.578299 -0.038486 0.814917
vn 0.865337 0.171339 0.470993
vn -0.799041 -0.26636 0.53906
vn -0.94736 -0.316257 -0.049904
vn -0.992568 -0.121685 0.001429
vn -0.873238 -0.407336 0.267458
vn -0.753653 -0.656766 0.025803
vn -0.087723 -0.917813 -0.387201
vn -0.261802 -0.951896 -0.159226
vn -0.290767 -0.948274 0.127401
vn 0.938633 0.333377 0.088474
vn 0.80142 0.350743 0.484464
vn 0.992454 -0.028525 -0.11925
vn 0.996704 -0.076531 0.026902
vn 0.99692 -0.071757 0.031638
vn -0.246893 -0.924789 -0.289498
vn -0.433378 -0.865953 -0.249616
vn 0.07568 -0.479681 -0.874173
vn -0.06603 -0.853574 -0.516771
vn -0.436281 -0.765402 -0.473094
vn 0.21744 -0.048465 -0.97487
vn 0.966719 0.222591 -0.126122
vn 0.543426 0.268482 -0.795365
vn 0.551407 -0.624229 0.553433
vn 0.092455 -0.642504 0.760685
vn -0.687438 -0.565314 0.455905
vn 0.24394 -0.523203 0.816549
vn 0.6772 -0.308463 0.66802
vn -0.775292 -0.628976 0.057546
vn -0.635846 -0.560606 0.53049
vn -0.236789 -0.74439 0.624351
vn 0.457588 -0.877701 -0.142316
vn 0.512878 -0.820989 -0.250864
vn 0.330355 -0.940311 -0.08174
vn 0.37458 -0.91901 0.122929
vn 0.98833 -0.10595 0.109447
vn 0.877968 -0.170986 0.447143
vn 0.858399 -0.481679 -0.176457
vn 0.850968 -0.523481 -0.042667
vn 0.824815 -0.562953 -0.052579
vn 0.24114 -0.968828 0.056786
vn 0.014564 -0.960752 -0.277027
vn 0.38851 -0.103689 -0.915592
vn 0.092624 -0.415201 -0.905002
vn 0.888134 -0.383637 -0.253063
vn -0.230791 -0.939392 0.25353
vn 0.248382 -0.736695 0.628957
vn -0.07444 -0.586005 0.806881
vn -0.365378 -0.69446 0.619858
vn 0.801625 -0.587159 0.112436
vn 0.68201 -0.657643 0.319951
vn 0.620306 -0.756479 -0.207267
# 678 normals
usemtl Material__1
f  1//1 2//2 3//3
f  4//4 5//5 1//1
f  6//6 1//1 5//5
f  4//4 1//1 3//3
f  6//6 2//2 1//1
f  7//7 3//3 2//2
f  8//8 2//2 9//9
f  6//6 9//9 2//2
f  7//7 2//2 8//8
f  3//3 10//10 11//11
f  12//12 10//10 3//3
f  3//3 11//11 4//4
f  12//12 3//3 7//7
f  4//4 11//11 13//13
f  14//14 5//5 4//4
f  4//4 13//13 14//14
f  14//14 15//15 5//5
f  16//16 17//17 5//5
f  16//16 5//5 15//15
f  6//6 5//5 17//17
f  18//18 6//6 17//17
f  6//6 18//18 9//9
f  7//7 19//19 20//20
f  8//8 19//19 7//7
f  12//12 7//7 21//21
f  7//7 20//20 21//21
f  9//9 19//19 8//8
f  9//9 22//22 19//19
f  18//18 22//22 9//9
f  10//10 23//23 24//24
f  10//10 12//12 25//25
f  10//10 24//24 11//11
f  10//10 25//25 23//23
f  11//11 24//24 26//26
f  11//11 26//26 13//13
f  12//12 21//21 27//27
f  27//27 25//25 12//12
f  14//14 13//13 28//28
f  26//26 28//28 13//13
f  29//29 15//15 14//14
f  14//14 28//28 29//29
f  29//29 30//30 15//15
f  30//30 16//16 15//15
f  30//30 31//31 16//16
f  32//32 33//33 16//16
f  33//33 17//17 16//16
f  32//32 16//16 31//31
f  33//33 34//34 17//17
f  18//18 17//17 34//34
f  18//18 35//35 22//22
f  34//34 35//35 18//18
f  36//36 19//19 22//22
f  37//37 38//38 19//19
f  38//38 20//20 19//19
f  37//37 19//19 36//36
f  39//39 40//40 20//20
f  21//21 20//20 40//40
f  39//39 20//20 38//38
f  27//27 21//21 41//41
f  21//21 40//40 41//41
f  36//36 22//22 35//35
f  42//42 43//43 23//23
f  43//43 24//24 23//23
f  42//42 23//23 25//25
f  43//43 44//44 24//24
f  26//26 24//24 44//44
f  27//27 45//45 25//25
f  25//25 45//45 46//46
f  25//25 46//46 42//42
f  26//26 47//47 28//28
f  48//48 47//47 26//26
f  26//26 44//44 48//48
f  27//27 41//41 49//49
f  49//49 45//45 27//27
f  28//28 50//50 51//51
f  47//47 50//50 28//28
f  28//28 51//51 29//29
f  29//29 51//51 52//52
f  52//52 53//53 29//29
f  30//30 29//29 53//53
f  30//30 53//53 31//31
f  54//54 31//31 55//55
f  53//53 55//55 31//31
f  32//32 31//31 54//54
f  56//56 32//32 57//57
f  33//33 32//32 56//56
f  54//54 57//57 32//32
f  58//58 34//34 33//33
f  58//58 33//33 56//56
f  59//59 35//35 34//34
f  59//59 34//34 58//58
f  36//36 35//35 59//59
f  60//60 37//37 36//36
f  60//60 36//36 59//59
f  61//61 62//62 37//37
f  61//61 37//37 60//60
f  62//62 38//38 37//37
f  62//62 39//39 38//38
f  63//63 64//64 39//39
f  63//63 39//39 62//62
f  64//64 40//40 39//39
f  64//64 65//65 40//40
f  66//66 41//41 40//40
f  66//66 40//40 65//65
f  67//67 49//49 41//41
f  67//67 41//41 66//66
f  68//68 69//69 42//42
f  69//69 43//43 42//42
f  68//68 42//42 46//46
f  69//69 70//70 43//43
f  70//70 44//44 43//43
f  70//70 71//71 44//44
f  48//48 44//44 71//71
f  49//49 72//72 45//45
f  46//46 45//45 72//72
f  46//46 72//72 73//73
f  73//73 68//68 46//46
f  48//48 74//74 47//47
f  47//47 75//75 50//50
f  74//74 75//75 47//47
f  48//48 71//71 76//76
f  76//76 74//74 48//48
f  77//77 72//72 49//49
f  77//77 49//49 67//67
f  51//51 50//50 78//78
f  75//75 78//78 50//50
f  79//79 80//80 51//51
f  80//80 52//52 51//51
f  51//51 78//78 79//79
f  55//55 53//53 52//52
f  55//55 52//52 80//80
f  54//54 81//81 82//82
f  54//54 83//83 84//84
f  54//54 82//82 57//57
f  54//54 84//84 81//81
f  55//55 83//83 54//54
f  55//55 80//80 83//83
f  85//85 58//58 56//56
f  86//86 56//56 87//87
f  85//85 56//56 86//86
f  56//56 57//57 87//87
f  87//87 57//57 82//82
f  88//88 59//59 58//58
f  88//88 58//58 85//85
f  89//89 60//60 59//59
f  89//89 59//59 88//88
f  90//90 61//61 60//60
f  90//90 60//60 89//89
f  91//91 92//92 61//61
f  91//91 61//61 90//90
f  92//92 62//62 61//61
f  92//92 63//63 62//62
f  93//93 94//94 63//63
f  93//93 63//63 92//92
f  94//94 64//64 63//63
f  94//94 95//95 64//64
f  95//95 65//65 64//64
f  95//95 96//96 65//65
f  97//97 66//66 65//65
f  97//97 65//65 96//96
f  98//98 67//67 66//66
f  98//98 66//66 97//97
f  99//99 77//77 67//67
f  99//99 67//67 98//98
f  100//100 69//69 68//68
f  73//73 101//101 68//68
f  68//68 102//102 100//100
f  68//68 101//101 102//102
f  100//100 103//103 69//69
f  103//103 70//70 69//69
f  103//103 104//104 70//70
f  104//104 71//71 70//70
f  104//104 105//105 71//71
f  76//76 71//71 105//105
f  106//106 73//73 72//72
f  106//106 72//72 77//77
f  107//107 73//73 106//106
f  107//107 101//101 73//73
f  108//108 74//74 109//109
f  76//76 109//109 74//74
f  74//74 108//108 75//75
f  75//75 110//110 78//78
f  108//108 110//110 75//75
f  76//76 105//105 111//111
f  111//111 109//109 76//76
f  112//112 106//106 77//77
f  112//112 77//77 99//99
f  78//78 113//113 114//114
f  78//78 114//114 79//79
f  110//110 113//113 78//78
f  80//80 79//79 114//114
f  80//80 114//114 83//83
f  81//81 84//84 115//115
f  116//116 82//82 81//81
f  81//81 115//115 116//116
f  82//82 117//117 118//118
f  116//116 117//117 82//82
f  87//87 82//82 118//118
f  83//83 114//114 84//84
f  84//84 114//114 119//119
f  119//119 115//115 84//84
f  86//86 88//88 85//85
f  86//86 120//120 121//121
f  86//86 121//121 91//91
f  86//86 87//87 120//120
f  86//86 91//91 90//90
f  86//86 90//90 89//89
f  86//86 89//89 88//88
f  120//120 87//87 118//118
f  93//93 92//92 91//91
f  121//121 93//93 91//91
f  121//121 118//118 93//93
f  118//118 94//94 93//93
f  118//118 117//117 94//94
f  117//117 95//95 94//94
f  117//117 116//116 95//95
f  116//116 96//96 95//95
f  116//116 115//115 96//96
f  119//119 97//97 96//96
f  119//119 96//96 115//115
f  122//122 98//98 97//97
f  122//122 97//97 119//119
f  123//123 99//99 98//98
f  123//123 98//98 122//122
f  124//124 112//112 99//99
f  124//124 99//99 123//123
f  125//125 103//103 100//100
f  100//100 102//102 126//126
f  100//100 126//126 125//125
f  127//127 102//102 101//101
f  127//127 101//101 107//107
f  128//128 126//126 102//102
f  128//128 102//102 127//127
f  125//125 129//129 103//103
f  129//129 104//104 103//103
f  129//129 130//130 104//104
f  130//130 105//105 104//104
f  130//130 131//131 105//105
f  111//111 105//105 131//131
f  132//132 107//107 106//106
f  132//132 106//106 112//112
f  107//107 132//132 133//133
f  107//107 133//133 127//127
f  108//108 134//134 110//110
f  135//135 134//134 108//108
f  108//108 109//109 135//135
f  135//135 109//109 136//136
f  111//111 136//136 109//109
f  110//110 123//123 113//113
f  134//134 123//123 110//110
f  111//111 131//131 137//137
f  137//137 136//136 111//111
f  138//138 132//132 112//112
f  138//138 112//112 124//124
f  113//113 122//122 119//119
f  123//123 122//122 113//113
f  113//113 119//119 114//114
f  120//120 118//118 121//121
f  134//134 124//124 123//123
f  138//138 124//124 134//134
f  125//125 126//126 139//139
f  125//125 139//139 140//140
f  140//140 129//129 125//125
f  139//139 126//126 128//128
f  127//127 133//133 141//141
f  127//127 141//141 128//128
f  142//142 143//143 128//128
f  139//139 128//128 143//143
f  142//142 128//128 141//141
f  140//140 144//144 129//129
f  129//129 144//144 145//145
f  129//129 145//145 130//130
f  145//145 131//131 130//130
f  145//145 146//146 131//131
f  137//137 131//131 146//146
f  133//133 132//132 138//138
f  133//133 138//138 147//147
f  147//147 141//141 133//133
f  138//138 134//134 135//135
f  147//147 138//138 135//135
f  135//135 136//136 147//147
f  137//137 148//148 136//136
f  148//148 147//147 136//136
f  137//137 146//146 149//149
f  149//149 148//148 137//137
f  150//150 151//151 139//139
f  140//140 139//139 151//151
f  150//150 139//139 143//143
f  140//140 152//152 153//153
f  140//140 151//151 152//152
f  140//140 153//153 144//144
f  147//147 154//154 141//141
f  141//141 154//154 155//155
f  141//141 155//155 142//142
f  156//156 143//143 142//142
f  142//142 155//155 157//157
f  142//142 157//157 156//156
f  156//156 150//150 143//143
f  144//144 153//153 145//145
f  153//153 146//146 145//145
f  153//153 158//158 146//146
f  159//159 149//149 146//146
f  159//159 146//146 158//158
f  148//148 154//154 147//147
f  149//149 160//160 148//148
f  160//160 154//154 148//148
f  159//159 160//160 149//149
f  161//161 162//162 150//150
f  161//161 150//150 156//156
f  162//162 151//151 150//150
f  162//162 163//163 151//151
f  152//152 151//151 163//163
f  152//152 163//163 164//164
f  164//164 153//153 152//152
f  164//164 165//165 153//153
f  165//165 158//158 153//153
f  160//160 155//155 154//154
f  166//166 157//157 155//155
f  166//166 155//155 160//160
f  156//156 167//167 161//161
f  156//156 157//157 167//167
f  168//168 167//167 157//157
f  168//168 157//157 166//166
f  165//165 169//169 158//158
f  158//158 169//169 170//170
f  170//170 159//159 158//158
f  170//170 171//171 159//159
f  159//159 166//166 160//160
f  171//171 166//166 159//159
f  161//161 167//167 172//172
f  161//161 172//172 173//173
f  173//173 162//162 161//161
f  173//173 174//174 162//162
f  174//174 163//163 162//162
f  174//174 175//175 163//163
f  164//164 163//163 175//175
f  164//164 175//175 176//176
f  176//176 165//165 164//164
f  176//176 177//177 165//165
f  177//177 169//169 165//165
f  171//171 168//168 166//166
f  178//178 172//172 167//167
f  178//178 167//167 168//168
f  179//179 178//178 168//168
f  179//179 168//168 171//171
f  177//177 180//180 169//169
f  170//170 169//169 180//180
f  170//170 180//180 181//181
f  181//181 171//171 170//170
f  181//181 179//179 171//171
f  182//182 183//183 172//172
f  173//173 172//172 183//183
f  182//182 172//172 178//178
f  173//173 184//184 185//185
f  173//173 183//183 184//184
f  173//173 185//185 174//174
f  185//185 175//175 174//174
f  185//185 186//186 175//175
f  176//176 175//175 186//186
f  177//177 176//176 187//187
f  176//176 186//186 187//187
f  188//188 177//177 189//189
f  188//188 180//180 177//177
f  177//177 187//187 189//189
f  178//178 190//190 182//182
f  178//178 179//179 190//190
f  190//190 179//179 181//181
f  188//188 191//191 180//180
f  181//181 180//180 191//191
f  181//181 191//191 192//192
f  190//190 181//181 192//192
f  182//182 190//190 193//193
f  183//183 182//182 194//194
f  195//195 194//194 182//182
f  182//182 196//196 195//195
f  197//197 196//196 182//182
f  182//182 193//193 197//197
f  183//183 198//198 199//199
f  183//183 199//199 184//184
f  183//183 194//194 198//198
f  199//199 200//200 184//184
f  200//200 185//185 184//184
f  200//200 201//201 185//185
f  202//202 185//185 201//201
f  203//203 186//186 185//185
f  203//203 185//185 202//202
f  204//204 187//187 186//186
f  204//204 186//186 203//203
f  205//205 189//189 187//187
f  206//206 207//207 187//187
f  206//206 187//187 204//204
f  207//207 205//205 187//187
f  208//208 191//191 188//188
f  188//188 205//205 208//208
f  188//188 189//189 205//205
f  209//209 193//193 190//190
f  209//209 190//190 192//192
f  208//208 210//210 191//191
f  192//192 191//191 210//210
f  192//192 210//210 211//211
f  192//192 211//211 209//209
f  212//212 193//193 209//209
f  197//197 193//193 212//212
f  198//198 194//194 213//213
f  213//213 194//194 195//195
f  214//214 213//213 195//195
f  195//195 215//215 214//214
f  196//196 215//215 195//195
f  197//197 215//215 196//196
f  197//197 216//216 215//215
f  212//212 216//216 197//197
f  217//217 199//199 198//198
f  217//217 198//198 218//218
f  198//198 213//213 218//218
f  219//219 200//200 199//199
f  219//219 199//199 217//217
f  219//219 201//201 200//200
f  219//219 220//220 201//201
f  221//221 201//201 220//220
f  202//202 201//201 221//221
f  202//202 222//222 223//223
f  221//221 222//222 202//202
f  202//202 223//223 203//203
f  203//203 223//223 224//224
f  203//203 224//224 204//204
f  204//204 224//224 225//225
f  204//204 225//225 206//206
f  207//207 226//226 205//205
f  205//205 227//227 228//228
f  228//228 208//208 205//205
f  205//205 226//226 227//227
f  206//206 225//225 229//229
f  229//229 207//207 206//206
f  229//229 226//226 207//207
f  228//228 230//230 208//208
f  230//230 210//210 208//208
f  209//209 231//231 212//212
f  211//211 231//231 209//209
f  230//230 232//232 210//210
f  211//211 210//210 232//232
f  211//211 232//232 233//233
f  211//211 233//233 231//231
f  212//212 234//234 216//216
f  234//234 212//212 231//231
f  235//235 218//218 213//213
f  236//236 213//213 214//214
f  235//235 213//213 236//236
f  237//237 214//214 215//215
f  236//236 214//214 237//237
f  238//238 215//215 216//216
f  237//237 215//215 238//238
f  239//239 216//216 234//234
f  238//238 216//216 239//239
f  217//217 240//240 241//241
f  217//217 241//241 219//219
f  218//218 240//240 217//217
f  218//218 235//235 240//240
f  241//241 220//220 219//219
f  241//241 242//242 220//220
f  243//243 220//220 242//242
f  221//221 220//220 243//243
f  243//243 222//222 221//221
f  243//243 244//244 222//222
f  245//245 222//222 244//244
f  224//224 223//223 222//222
f  224//224 222//222 245//245
f  225//225 224//224 245//245
f  225//225 246//246 229//229
f  247//247 246//246 225//225
f  247//247 225//225 245//245
f  248//248 226//226 229//229
f  248//248 249//249 226//226
f  227//227 226//226 249//249
f  228//228 227//227 250//250
f  227//227 249//249 250//250
f  251//251 230//230 228//228
f  228//228 250//250 251//251
f  229//229 246//246 252//252
f  229//229 252//252 248//248
f  253//253 230//230 251//251
f  253//253 232//232 230//230
f  234//234 231//231 254//254
f  254//254 231//231 233//233
f  253//253 255//255 232//232
f  233//233 232//232 255//255
f  233//233 255//255 256//256
f  254//254 233//233 256//256
f  257//257 234//234 254//254
f  258//258 234//234 257//257
f  239//239 234//234 258//258
f  235//235 259//259 260//260
f  235//235 260//260 240//240
f  236//236 259//259 235//235
f  236//236 261//261 259//259
f  237//237 261//261 236//236
f  237//237 262//262 261//261
f  238//238 262//262 237//237
f  238//238 263//263 262//262
f  239//239 263//263 238//238
f  239//239 264//264 263//263
f  258//258 264//264 239//239
f  241//241 240//240 260//260
f  265//265 242//242 241//241
f  241//241 260//260 265//265
f  265//265 266//266 242//242
f  242//242 266//266 267//267
f  243//243 242//242 267//267
f  268//268 244//244 243//243
f  268//268 243//243 267//267
f  269//269 270//270 244//244
f  244//244 270//270 245//245
f  269//269 244//244 268//268
f  245//245 270//270 271//271
f  245//245 271//271 247//247
f  246//246 247//247 252//252
f  247//247 271//271 272//272
f  273//273 252//252 247//247
f  247//247 272//272 274//274
f  273//273 247//247 274//274
f  248//248 252//252 273//273
f  275//275 249//249 248//248
f  248//248 273//273 275//275
f  275//275 276//276 249//249
f  250//250 249//249 276//276
f  277//277 251//251 250//250
f  250//250 278//278 277//277
f  279//279 278//278 250//250
f  250//250 280//280 279//279
f  250//250 276//276 280//280
f  251//251 277//277 281//281
f  251//251 281//281 253//253
f  253//253 281//281 255//255
f  257//257 254//254 282//282
f  256//256 282//282 254//254
f  255//255 281//281 283//283
f  255//255 284//284 256//256
f  255//255 283//283 284//284
f  285//285 256//256 284//284
f  256//256 285//285 282//282
f  257//257 286//286 287//287
f  257//257 287//287 258//258
f  282//282 286//286 257//257
f  258//258 287//287 264//264
f  259//259 288//288 289//289
f  259//259 289//289 260//260
f  261//261 288//288 259//259
f  260//260 289//289 290//290
f  260//260 290//290 265//265
f  261//261 291//291 288//288
f  291//291 261//261 262//262
f  291//291 262//262 292//292
f  263//263 292//292 262//262
f  263//263 293//293 292//292
f  264//264 293//293 263//263
f  264//264 294//294 293//293
f  287//287 294//294 264//264
f  290//290 266//266 265//265
f  267//267 266//266 295//295
f  290//290 295//295 266//266
f  268//268 267//267 296//296
f  267//267 295//295 296//296
f  297//297 269//269 268//268
f  268//268 298//298 297//297
f  296//296 298//298 268//268
f  297//297 270//270 269//269
f  297//297 271//271 270//270
f  299//299 272//272 271//271
f  299//299 271//271 297//297
f  300//300 272//272 299//299
f  301//301 274//274 272//272
f  301//301 272//272 300//300
f  275//275 273//273 302//302
f  301//301 302//302 273//273
f  301//301 273//273 274//274
f  303//303 276//276 275//275
f  275//275 302//302 303//303
f  303//303 304//304 276//276
f  280//280 276//276 304//304
f  283//283 281//281 277//277
f  277//277 278//278 283//283
f  278//278 305//305 306//306
f  306//306 283//283 278//278
f  278//278 279//279 305//305
f  279//279 280//280 307//307
f  279//279 307//307 305//305
f  280//280 304//304 307//307
f  308//308 309//309 282//282
f  282//282 309//309 286//286
f  308//308 282//282 285//285
f  310//310 283//283 306//306
f  284//284 283//283 310//310
f  310//310 285//285 284//284
f  310//310 308//308 285//285
f  286//286 311//311 312//312
f  286//286 312//312 287//287
f  309//309 311//311 286//286
f  287//287 312//312 294//294
f  313//313 314//314 288//288
f  315//315 289//289 288//288
f  313//313 288//288 291//291
f  315//315 288//288 314//314
f  316//316 290//290 289//289
f  316//316 289//289 315//315
f  290//290 316//316 317//317
f  290//290 317//317 295//295
f  292//292 313//313 291//291
f  292//292 318//318 313//313
f  318//318 292//292 293//293
f  319//319 293//293 294//294
f  318//318 293//293 319//319
f  320//320 294//294 312//312
f  319//319 294//294 320//320
f  296//296 295//295 317//317
f  296//296 321//321 298//298
f  296//296 317//317 321//321
f  297//297 298//298 322//322
f  297//297 322//322 299//299
f  321//321 322//322 298//298
f  323//323 299//299 322//322
f  300//300 299//299 323//323
f  300//300 324//324 325//325
f  323//323 324//324 300//300
f  300//300 325//325 301//301
f  301//301 325//325 326//326
f  301//301 326//326 302//302
f  302//302 326//326 327//327
f  302//302 327//327 303//303
f  303//303 327//327 328//328
f  303//303 328//328 304//304
f  304//304 328//328 329//329
f  304//304 329//329 307//307
f  306//306 305//305 307//307
f  306//306 330//330 331//331
f  307//307 330//330 306//306
f  306//306 331//331 310//310
f  307//307 329//329 330//330
f  331//331 308//308 310//310
f  331//331 309//309 308//308
f  331//331 332//332 309//309
f  309//309 332//332 311//311
f  333//333 311//311 332//332
f  334//334 312//312 311//311
f  334//334 311//311 333//333
f  320//320 312//312 334//334
f  335//335 314//314 313//313
f  318//318 335//335 313//313
f  335//335 336//336 314//314
f  337//337 315//315 314//314
f  337//337 314//314 336//336
f  316//316 315//315 337//337
f  317//317 316//316 337//337
f  317//317 337//337 321//321
f  318//318 324//324 335//335
f  319//319 324//324 318//318
f  319//319 325//325 324//324
f  320//320 325//325 319//319
f  320//320 326//326 325//325
f  334//334 326//326 320//320
f  321//321 337//337 322//322
f  338//338 322//322 337//337
f  323//323 322//322 338//338
f  336//336 335//335 323//323
f  323//323 335//335 324//324
f  336//336 323//323 338//338
f  334//334 327//327 326//326
f  333//333 328//328 327//327
f  333//333 327//327 334//334
f  339//339 329//329 328//328
f  339//339 328//328 333//333
f  329//329 339//339 330//330
f  330//330 339//339 332//332
f  330//330 332//332 331//331
f  333//333 332//332 339//339
f  338//338 337//337 336//336
f  340//340 341//341 342//342
f  340//340 342//342 343//343
f  341//341 340//340 344//344
f  345//345 346//346 340//340
f  340//340 346//346 347//347
f  343//343 345//345 340//340
f  344//344 340//340 347//347
f  342//342 341//341 348//348
f  349//349 341//341 350//350
f  341//341 349//349 348//348
f  350//350 341//341 344//344
f  342//342 351//351 343//343
f  351//351 342//342 348//348
f  352//352 345//345 343//343
f  343//343 351//351 353//353
f  353//353 352//352 343//343
f  354//354 355//355 344//344
f  344//344 355//355 350//350
f  356//356 344//344 347//347
f  356//356 354//354 344//344
f  345//345 357//357 346//346
f  358//358 357//357 345//345
f  352//352 358//358 345//345
f  357//357 359//359 346//346
f  360//360 347//347 346//346
f  359//359 360//360 346//346
f  361//361 356//356 347//347
f  347//347 360//360 361//361
f  362//362 351//351 348//348
f  362//362 348//348 363//363
f  349//349 363//363 348//348
f  350//350 355//355 349//349
f  355//355 364//364 349//349
f  349//349 364//364 363//363
f  351//351 365//365 353//353
f  351//351 362//362 366//366
f  365//365 351//351 366//366
f  367//367 352//352 353//353
f  352//352 367//367 358//358
f  353//353 365//365 368//368
f  368//368 367//367 353//353
f  355//355 354//354 369//369
f  354//354 370//370 371//371
f  370//370 354//354 356//356
f  369//369 354//354 371//371
f  364//364 355//355 372//372
f  355//355 369//369 373//373
f  372//372 355//355 373//373
f  374//374 356//356 361//361
f  374//374 370//370 356//356
f  359//359 357//357 375//375
f  357//357 376//376 375//375
f  376//376 357//357 358//358
f  367//367 377//377 358//358
f  358//358 377//377 378//378
f  378//378 376//376 358//358
f  359//359 375//375 379//379
f  360//360 359//359 379//379
f  360//360 380//380 361//361
f  381//381 380//380 360//360
f  379//379 381//381 360//360
f  382//382 374//374 361//361
f  361//361 380//380 382//382
f  366//366 362//362 383//383
f  362//362 384//384 383//383
f  384//384 362//362 363//363
f  364//364 385//385 363//363
f  363//363 385//385 384//384
f  385//385 364//364 372//372
f  365//365 386//386 368//368
f  365//365 366//366 386//386
f  366//366 387//387 386//386
f  366//366 383//383 388//388
f  387//387 366//366 388//388
f  389//389 390//390 367//367
f  367//367 390//390 377//377
f  368//368 389//389 367//367
f  391//391 389//389 368//368
f  368//368 392//392 391//391
f  392//392 368//368 386//386
f  373//373 369//369 393//393
f  369//369 371//371 393//393
f  371//371 370//370 394//394
f  370//370 395//395 394//394
f  370//370 374//374 396//396
f  395//395 370//370 396//396
f  371//371 394//394 397//397
f  393//393 371//371 397//397
f  398//398 385//385 372//372
f  372//372 373//373 399//399
f  398//398 372//372 399//399
f  373//373 393//393 400//400
f  399//399 373//373 400//400
f  374//374 382//382 401//401
f  396//396 374//374 401//401
f  379//379 375//375 402//402
f  375//375 403//403 402//402
f  375//375 376//376 403//403
f  376//376 404//404 403//403
f  404//404 376//376 378//378
f  377//377 405//405 378//378
f  390//390 406//406 377//377
f  377//377 406//406 405//405
f  407//407 404//404 378//378
f  378//378 405//405 407//407
f  379//379 402//402 408//408
f  381//381 379//379 408//408
f  380//380 409//409 382//382
f  409//409 380//380 381//381
f  410//410 409//409 381//381
f  381//381 408//408 410//410
f  382//382 409//409 411//411
f  401//401 382//382 411//411
f  412//412 388//388 383//383
f  383//383 384//384 413//413
f  412//412 383//383 413//413
f  384//384 385//385 398//398
f  413//413 384//384 398//398
f  387//387 392//392 386//386
f  414//414 387//387 415//415
f  387//387 414//414 392//392
f  415//415 387//387 388//388
f  416//416 388//388 412//412
f  388//388 416//416 415//415
f  417//417 390//390 389//389
f  389//389 418//418 419//419
f  389//389 391//391 418//418
f  419//419 417//417 389//389
f  390//390 417//417 406//406
f  391//391 392//392 414//414
f  418//418 391//391 414//414
f  400//400 393//393 420//420
f  393//393 397//397 420//420
f  397//397 394//394 421//421
f  394//394 422//422 421//421
f  394//394 395//395 422//422
f  395//395 423//423 422//422
f  395//395 396//396 424//424
f  423//423 395//395 424//424
f  396//396 401//401 425//425
f  424//424 396//396 425//425
f  397//397 421//421 426//426
f  420//420 397//397 426//426
f  413//413 398//398 427//427
f  398//398 399//399 428//428
f  427//427 398//398 428//428
f  399//399 400//400 429//429
f  428//428 399//399 429//429
f  400//400 420//420 430//430
f  429//429 400//400 430//430
f  401//401 411//411 431//431
f  425//425 401//401 431//431
f  408//408 402//402 432//432
f  402//402 433//433 432//432
f  402//402 403//403 433//433
f  403//403 434//434 433//433
f  403//403 404//404 434//434
f  404//404 435//435 434//434
f  435//435 404//404 407//407
f  436//436 405//405 437//437
f  405//405 436//436 407//407
f  406//406 437//437 405//405
f  417//417 438//438 406//406
f  406//406 438//438 437//437
f  439//439 435//435 407//407
f  407//407 436//436 439//439
f  408//408 440//440 410//410
f  432//432 441//441 408//408
f  441//441 440//440 408//408
f  409//409 410//410 442//442
f  411//411 409//409 442//442
f  442//442 410//410 443//443
f  410//410 440//440 443//443
f  411//411 442//442 444//444
f  431//431 411//411 444//444
f  412//412 413//413 445//445
f  446//446 412//412 447//447
f  447//447 412//412 445//445
f  446//446 416//416 412//412
f  445//445 413//413 427//427
f  415//415 448//448 414//414
f  448//448 418//418 414//414
f  449//449 450//450 415//415
f  451//451 448//448 415//415
f  416//416 449//449 415//415
f  450//450 451//451 415//415
f  449//449 416//416 446//446
f  452//452 453//453 417//417
f  419//419 452//452 417//417
f  417//417 453//453 438//438
f  452//452 419//419 418//418
f  448//448 452//452 418//418
f  430//430 420//420 426//426
f  426//426 421//421 454//454
f  421//421 455//455 454//454
f  421//421 422//422 455//455
f  422//422 456//456 455//455
f  422//422 423//423 456//456
f  423//423 457//457 456//456
f  423//423 424//424 458//458
f  457//457 423//423 458//458
f  424//424 425//425 459//459
f  458//458 424//424 459//459
f  425//425 431//431 460//460
f  459//459 425//425 460//460
f  430//430 426//426 461//461
f  426//426 454//454 461//461
f  445//445 427//427 447//447
f  427//427 428//428 447//447
f  428//428 429//429 447//447
f  429//429 430//430 447//447
f  430//430 461//461 447//447
f  431//431 444//444 462//462
f  460//460 431//431 462//462
f  432//432 433//433 463//463
f  464//464 441//441 432//432
f  463//463 464//464 432//432
f  433//433 465//465 463//463
f  433//433 434//434 465//465
f  434//434 466//466 465//465
f  434//434 435//435 466//466
f  435//435 467//467 466//466
f  467//467 435//435 439//439
f  468//468 436//436 437//437
f  469//469 436//436 468//468
f  436//436 469//469 439//439
f  438//438 470//470 437//437
f  437//437 470//470 468//468
f  453//453 460//460 438//438
f  438//438 460//460 470//470
f  471//471 467//467 439//439
f  439//439 469//469 471//471
f  440//440 441//441 472//472
f  443//443 440//440 472//472
f  441//441 464//464 473//473
f  472//472 441//441 473//473
f  442//442 443//443 474//474
f  444//444 442//442 474//474
f  475//475 474//474 443//443
f  472//472 475//475 443//443
f  444//444 474//474 476//476
f  462//462 444//444 476//476
f  454//454 449//449 446//446
f  477//477 446//446 447//447
f  454//454 446//446 477//477
f  461//461 477//477 447//447
f  451//451 452//452 448//448
f  450//450 449//449 456//456
f  454//454 455//455 449//449
f  449//449 455//455 456//456
f  457//457 451//451 450//450
f  456//456 457//457 450//450
f  458//458 452//452 451//451
f  451//451 457//457 458//458
f  452//452 458//458 453//453
f  458//458 459//459 453//453
f  453//453 459//459 460//460
f  461//461 454//454 477//477
f  460//460 462//462 470//470
f  470//470 462//462 476//476
f  478//478 464//464 463//463
f  479//479 478//478 463//463
f  463//463 465//465 479//479
f  473//473 464//464 478//478
f  465//465 480//480 479//479
f  481//481 480//480 465//465
f  466//466 481//481 465//465
f  466//466 467//467 481//481
f  467//467 482//482 481//481
f  482//482 467//467 471//471
f  468//468 470//470 476//476
f  468//468 476//476 483//483
f  483//483 469//469 468//468
f  469//469 484//484 471//471
f  469//469 483//483 484//484
f  485//485 482//482 471//471
f  471//471 484//484 485//485
f  486//486 475//475 472//472
f  473//473 486//486 472//472
f  473//473 487//487 488//488
f  487//487 473//473 478//478
f  486//486 473//473 488//488
f  476//476 474//474 475//475
f  483//483 476//476 475//475
f  475//475 486//486 483//483
f  478//478 489//489 490//490
f  489//489 478//478 479//479
f  487//487 478//478 490//490
f  491//491 492//492 479//479
f  492//492 489//489 479//479
f  480//480 491//491 479//479
f  481//481 491//491 480//480
f  481//481 482//482 491//491
f  482//482 493//493 491//491
f  482//482 485//485 494//494
f  493//493 482//482 494//494
f  486//486 495//495 483//483
f  483//483 495//495 484//484
f  484//484 496//496 485//485
f  484//484 495//495 496//496
f  485//485 496//496 494//494
f  497//497 495//495 486//486
f  488//488 497//497 486//486
f  488//488 487//487 498//498
f  487//487 490//490 498//498
f  499//499 497//497 488//488
f  498//498 499//499 488//488
f  490//490 489//489 500//500
f  489//489 501//501 500//500
f  501//501 489//489 492//492
f  490//490 500//500 502//502
f  498//498 490//490 502//502
f  492//492 491//491 503//503
f  491//491 504//504 503//503
f  491//491 493//493 504//504
f  503//503 501//501 492//492
f  493//493 505//505 504//504
f  506//506 505//505 493//493
f  493//493 494//494 506//506
f  494//494 507//507 506//506
f  496//496 508//508 494//494
f  494//494 508//508 507//507
f  495//495 497//497 496//496
f  496//496 497//497 508//508
f  497//497 499//499 508//508
f  502//502 509//509 498//498
f  509//509 499//499 498//498
f  499//499 509//509 510//510
f  508//508 499//499 510//510
f  502//502 500//500 511//511
f  500//500 512//512 511//511
f  500//500 501//501 512//512
f  501//501 513//513 512//512
f  513//513 501//501 503//503
f  514//514 509//509 502//502
f  511//511 514//514 502//502
f  515//515 513//513 503//503
f  503//503 504//504 515//515
f  504//504 516//516 515//515
f  504//504 505//505 516//516
f  505//505 517//517 516//516
f  517//517 505//505 506//506
f  518//518 517//517 506//506
f  506//506 507//507 518//518
f  508//508 510//510 507//507
f  507//507 510//510 519//519
f  507//507 519//519 518//518
f  509//509 514//514 520//520
f  510//510 509//509 520//520
f  510//510 520//520 519//519
f  521//521 514//514 511//511
f  522//522 523//523 511//511
f  523//523 521//521 511//511
f  512//512 522//522 511//511
f  512//512 513//513 522//522
f  513//513 524//524 522//522
f  524//524 513//513 515//515
f  514//514 521//521 525//525
f  520//520 514//514 525//525
f  526//526 515//515 516//516
f  526//526 524//524 515//515
f  527//527 516//516 528//528
f  516//516 517//517 528//528
f  527//527 526//526 516//516
f  517//517 529//529 528//528
f  529//529 517//517 518//518
f  518//518 519//519 530//530
f  531//531 529//529 518//518
f  531//531 518//518 530//530
f  530//530 519//519 520//520
f  525//525 530//530 520//520
f  532//532 525//525 521//521
f  533//533 534//534 521//521
f  523//523 533//533 521//521
f  534//534 532//532 521//521
f  523//523 522//522 535//535
f  522//522 536//536 535//535
f  536//536 522//522 537//537
f  522//522 524//524 538//538
f  537//537 522//522 538//538
f  523//523 535//535 533//533
f  524//524 526//526 539//539
f  538//538 524//524 539//539
f  540//540 530//530 525//525
f  525//525 532//532 541//541
f  541//541 542//542 525//525
f  525//525 542//542 543//543
f  543//543 540//540 525//525
f  526//526 527//527 544//544
f  526//526 545//545 546//546
f  539//539 526//526 546//546
f  526//526 544//544 545//545
f  544//544 527//527 528//528
f  528//528 529//529 547//547
f  547//547 544//544 528//528
f  529//529 548//548 547//547
f  548//548 529//529 531//531
f  530//530 540//540 549//549
f  531//531 530//530 549//549
f  550//550 548//548 531//531
f  549//549 550//550 531//531
f  551//551 532//532 534//534
f  541//541 532//532 551//551
f  534//534 533//533 552//552
f  533//533 535//535 553//553
f  552//552 533//533 553//553
f  554//554 534//534 552//552
f  554//554 551//551 534//534
f  535//535 536//536 553//553
f  536//536 555//555 553//553
f  555//555 536//536 556//556
f  556//556 536//536 537//537
f  557//557 558//558 537//537
f  537//537 558//558 556//556
f  538//538 557//557 537//537
f  559//559 557//557 538//538
f  539//539 559//559 538//538
f  560//560 559//559 539//539
f  546//546 560//560 539//539
f  549//549 540//540 561//561
f  561//561 540//540 543//543
f  541//541 551//551 562//562
f  562//562 563//563 541//541
f  541//541 563//563 542//542
f  542//542 563//563 543//543
f  563//563 564//564 543//543
f  543//543 564//564 561//561
f  544//544 565//565 545//545
f  566//566 567//567 544//544
f  544//544 547//547 566//566
f  567//567 565//565 544//544
f  546//546 545//545 568//568
f  545//545 565//565 568//568
f  568//568 560//560 546//546
f  547//547 569//569 566//566
f  547//547 548//548 569//569
f  548//548 570//570 569//569
f  570//570 548//548 550//550
f  561//561 571//571 549//549
f  549//549 571//571 550//550
f  572//572 570//570 550//550
f  571//571 572//572 550//550
f  551//551 554//554 573//573
f  562//562 551//551 574//574
f  574//574 551//551 573//573
f  575//575 576//576 552//552
f  553//553 575//575 552//552
f  552//552 576//576 554//554
f  553//553 555//555 575//575
f  576//576 573//573 554//554
f  555//555 577//577 575//575
f  577//577 555//555 578//578
f  578//578 555//555 556//556
f  556//556 558//558 578//578
f  558//558 557//557 559//559
f  558//558 579//579 578//578
f  579//579 558//558 580//580
f  580//580 558//558 559//559
f  580//580 559//559 560//560
f  568//568 581//581 560//560
f  560//560 581//581 582//582
f  580//580 560//560 582//582
f  564//564 583//583 561//561
f  571//571 561//561 583//583
f  563//563 562//562 584//584
f  584//584 562//562 574//574
f  564//564 563//563 585//585
f  585//585 563//563 584//584
f  583//583 564//564 586//586
f  586//586 564//564 585//585
f  568//568 565//565 587//587
f  565//565 588//588 587//587
f  588//588 565//565 567//567
f  589//589 567//567 566//566
f  566//566 569//569 590//590
f  590//590 589//589 566//566
f  589//589 588//588 567//567
f  591//591 581//581 568//568
f  587//587 591//591 568//568
f  590//590 569//569 592//592
f  569//569 570//570 592//592
f  570//570 593//593 592//592
f  593//593 570//570 572//572
f  594//594 571//571 583//583
f  572//572 571//571 594//594
f  595//595 593//593 572//572
f  595//595 572//572 594//594
f  596//596 597//597 573//573
f  576//576 596//596 573//573
f  573//573 597//597 574//574
f  597//597 598//598 574//574
f  574//574 598//598 584//584
f  596//596 576//576 575//575
f  575//575 577//577 599//599
f  599//599 596//596 575//575
f  577//577 600//600 599//599
f  601//601 600//600 577//577
f  601//601 577//577 578//578
f  578//578 579//579 602//602
f  601//601 578//578 602//602
f  579//579 603//603 604//604
f  580//580 603//603 579//579
f  602//602 579//579 604//604
f  605//605 603//603 580//580
f  582//582 605//605 580//580
f  591//591 582//582 581//581
f  606//606 605//605 582//582
f  582//582 591//591 607//607
f  608//608 606//606 582//582
f  608//608 582//582 607//607
f  594//594 583//583 609//609
f  609//609 583//583 610//610
f  610//610 583//583 586//586
f  598//598 611//611 584//584
f  584//584 611//611 585//585
f  611//611 612//612 585//585
f  585//585 612//612 586//586
f  612//612 613//613 586//586
f  586//586 613//613 610//610
f  607//607 591//591 587//587
f  587//587 588//588 614//614
f  614//614 607//607 587//587
f  588//588 615//615 614//614
f  615//615 588//588 589//589
f  589//589 590//590 616//616
f  616//616 617//617 589//589
f  589//589 617//617 618//618
f  618//618 619//619 589//589
f  619//619 615//615 589//589
f  620//620 616//616 590//590
f  592//592 620//620 590//590
f  593//593 620//620 592//592
f  621//621 620//620 593//593
f  595//595 622//622 593//593
f  622//622 621//621 593//593
f  623//623 594//594 609//609
f  594//594 623//623 595//595
f  622//622 595//595 624//624
f  623//623 624//624 595//595
f  596//596 625//625 597//597
f  626//626 625//625 596//596
f  599//599 626//626 596//596
f  625//625 627//627 597//597
f  597//597 627//627 598//598
f  627//627 628//628 598//598
f  611//611 598//598 628//628
f  599//599 600//600 626//626
f  629//629 600//600 601//601
f  600//600 629//629 626//626
f  630//630 601//601 602//602
f  630//630 629//629 601//601
f  602//602 604//604 631//631
f  631//631 632//632 602//602
f  602//602 632//632 630//630
f  604//604 603//603 631//631
f  603//603 605//605 631//631
f  605//605 606//606 633//633
f  631//631 605//605 633//633
f  633//633 606//606 634//634
f  606//606 608//608 635//635
f  634//634 606//606 635//635
f  636//636 607//607 614//614
f  607//607 636//636 635//635
f  608//608 607//607 635//635
f  637//637 638//638 609//609
f  610//610 637//637 609//609
f  609//609 638//638 623//623
f  613//613 637//637 610//610
f  639//639 611//611 628//628
f  611//611 639//639 612//612
f  639//639 640//640 612//612
f  612//612 640//640 613//613
f  640//640 641//641 613//613
f  613//613 641//641 637//637
f  614//614 615//615 642//642
f  642//642 636//636 614//614
f  615//615 643//643 642//642
f  643//643 615//615 619//619
f  616//616 620//620 621//621
f  621//621 617//617 616//616
f  644//644 645//645 617//617
f  617//617 621//621 644//644
f  645//645 618//618 617//617
f  646//646 619//619 618//618
f  645//645 646//646 618//618
f  646//646 643//643 619//619
f  644//644 621//621 647//647
f  647//647 621//621 622//622
f  622//622 624//624 647//647
f  623//623 648//648 649//649
f  638//638 648//648 623//623
f  624//624 623//623 649//649
f  624//624 649//649 647//647
f  627//627 625//625 650//650
f  625//625 626//626 651//651
f  650//650 625//625 651//651
f  652//652 651//651 626//626
f  629//629 652//652 626//626
f  627//627 653//653 654//654
f  628//628 627//627 654//654
f  653//653 627//627 650//650
f  628//628 654//654 639//639
f  652//652 629//629 630//630
f  632//632 655//655 630//630
f  655//655 652//652 630//630
f  656//656 632//632 631//631
f  633//633 656//656 631//631
f  632//632 656//656 655//655
f  656//656 633//633 657//657
f  657//657 633//633 634//634
f  658//658 659//659 634//634
f  634//634 659//659 657//657
f  635//635 658//658 634//634
f  660//660 658//658 635//635
f  636//636 660//660 635//635
f  661//661 660//660 636//636
f  642//642 661//661 636//636
f  637//637 662//662 638//638
f  641//641 662//662 637//637
f  662//662 663//663 638//638
f  638//638 663//663 648//648
f  654//654 664//664 639//639
f  640//640 639//639 664//664
f  641//641 640//640 665//665
f  665//665 640//640 664//664
f  662//662 641//641 666//666
f  666//666 641//641 665//665
f  667//667 661//661 642//642
f  643//643 667//667 642//642
f  668//668 667//667 643//643
f  646//646 668//668 643//643
f  646//646 645//645 644//644
f  669//669 670//670 644//644
f  644//644 670//670 646//646
f  647//647 669//669 644//644
f  670//670 668//668 646//646
f  647//647 649//649 669//669
f  649//649 648//648 669//669
f  648//648 671//671 669//669
f  663//663 671//671 648//648
f  653//653 650//650 672//672
f  672//672 650//650 651//651
f  672//672 651//651 652//652
f  655//655 672//672 652//652
f  654//654 653//653 673//673
f  653//653 674//674 673//673
f  674//674 653//653 672//672
f  654//654 673//673 664//664
f  656//656 672//672 655//655
f  672//672 656//656 675//675
f  675//675 656//656 657//657
f  657//657 673//673 674//674
f  659//659 673//673 657//657
f  675//675 657//657 674//674
f  659//659 658//658 665//665
f  665//665 658//658 666//666
f  658//658 660//660 666//666
f  673//673 659//659 664//664
f  664//664 659//659 665//665
f  666//666 660//660 676//676
f  660//660 661//661 676//676
f  661//661 667//667 677//677
f  676//676 661//661 677//677
f  663//663 662//662 676//676
f  676//676 662//662 666//666
f  671//671 663//663 677//677
f  677//677 663//663 676//676
f  667//667 668//668 678//678
f  677//677 667//667 678//678
f  670//670 678//678 668//668
f  669//669 671//671 670//670
f  671//671 678//678 670//670
f  678//678 671//671 677//677
f  674//674 672//672 675//675
